<?xml version="1.0" encoding="UTF-8"?>
<svg id="Layer_1" data-name="Layer 1" xmlns="http://www.w3.org/2000/svg" viewBox="0 0 414 200">
  <defs>
    <style>
      .cls-1 {
        fill: #edeae1;
      }

      .cls-2 {
        fill: #fff9b8;
      }

      .cls-3 {
        fill: #fff200;
      }

      .cls-4 {
        fill: #fbb040;
      }

      .cls-5 {
        fill: #9ed2f1;
      }

      .cls-6 {
        fill: #8fc9e3;
      }

      .cls-7 {
        fill: #bdb6b1;
      }

      .cls-8 {
        fill: #cbc5c0;
      }

      .cls-9 {
        fill: #dbd5d1;
      }

      .cls-10 {
        fill: #423d39;
      }

      .cls-11 {
        fill: #57524d;
      }

      .cls-12 {
        fill: #757474;
      }

      .cls-13 {
        fill: #4e4945;
      }
    </style>
  </defs>
  <path class="cls-10" d="M295.45,125.98c0,.18,.02,.36,.02,.55-.31,.46,.82,1.16-.26,1.5-.31-.56-.65-1.11-.91-1.69-1.68-3.61-4.68-5.72-8.28-7.18-.31-.12-.62-.49-.92-.14-.14,.16-.1,.55-.02,.81,.66,2.22,1.15,4.48,2.26,6.57,1.61,3.02,3.44,5.96,4.46,9.25,.59,1.89,.5,1.92,2.2,.78,.13,.27,.26,.54,.39,.81-.23,.36-.56,.57-.97,.67-.76-.06-1.17,.27-1.19,1.03l-.43,1.03c-.05,.2-.1,.39-.15,.59,0,0-.02,.12-.02,.12-.29,0-.58-.01-.86-.02,.06-.24,.11-.48,.17-.72,.05-.17,.1-.35,.15-.52-.08-1.71,.06-3.46-1.06-5.03-1.51,2.41-2.45,5.03-4.8,6.73-1.71,1.23-2.78,2.8-2.07,5.06,.28,.89,.32,1.83,.24,2.77,.06,.91-.3,.99-.96,.48l-.24-3.03c.02-.28,.09-.65-.3-.68-.32-.03-.35,.23-.17,.47-.77,.96-1.43,2.03-2.33,2.86-2.35,2.16-4.01,4.65-4.55,7.8-.07,.08-.1,.17-.09,.27-.77,2.74-1.78,5.38-3.27,8.08,2.7-.22,4.43-1.59,5.99-3.32,1.02-1.14,1.36-2.7,2.53-3.73,.45,.14,.43,.51,.43,.87-.1,.19-.2,.38-.31,.57-.46,.89-1.06,1.75-.42,2.8-.02,.24-.03,.47-.05,.71-.29-.12-.58-.24-.87-.36-.75-.46-.9,.31-1.21,.62-1.14,1.14-2.4,2.2-3.97,2.51-1.9,.37-3.27,1.05-4.53,2.67-1.7,2.19-4.36,3.01-7.4,2.94,.95,1.1,2.19,.85,3.18,1.25-.04,.32-.08,.63-.12,.95-.47,.31-.99,.44-1.55,.39-.41-.08-.84-.14-.88-.68-1.86-.99-3.84-1.78-5.36-3.31-.36-.36-.91-.18-1.37-.16-4.25,.17-7.75-1.22-10.25-4.72-.34-.48-.61-1.07-1.38-.69-.04,.03-.11,.07-.11,.09,0,.08,.04,.17,.07,.25,.29,.71,.59,1.42,.88,2.12-.01,.11,.01,.2,.08,.29,.75,1.99,2.43,3.27,3.79,4.8-.89,.74-1.4-.06-1.87-.53-.76-.76-1.58-1.31-2.69-1.36-.41-.52-.89-.51-1.4-.16-.24-.04-.48-.08-.73-.12,.41-.86,1.25-.24,1.84-.51,.67-.09,.71-.4,.45-.97-.41-.9-.8-1.82-1.05-2.77-.25-.96-.73-1.24-1.75-1.26-3.81-.1-6.86-1.57-8.68-5.03-.3-.57-.59-1.15-.95-1.68-.36-.55-.92-.46-1.43-.25-.51,.21-.19,.59-.08,.88,1.6,4.13,4.13,7.53,8.05,9.83-.02,.28-.05,.55-.07,.83-2.55-.55-3.93-2.6-5.55-4.3-.8-.85-1.53-1.41-2.77-1.57-2.99-.39-5.88-1.16-8.08-3.4-1.27-1.3-2.67-1.71-4.46-1.11-.81,.27-1.74,.22-2.62,.31-.11-.27-.22-.55-.34-.82,.47-.07,.93-.17,1.4-.22,3.09-.34,2.99-.27,1.42-2.82-.77-1.26-1.44-1.3-2.67-.78-3.14,1.34-6.26,1.74-9.17-.64-.86-.7-1.45,.18-1.93,.63-.53,.49,.18,.78,.51,1.04,2.21,1.76,4.79,2.62,7.59,2.92-.16,.52-.82,.29-1.06,.69-2.42-.4-4.44,.62-6.57,1.55-2.06,.91-4.37,1.08-6.64,.88-1.08-.1-1.93,.19-2.79,.81-3.34,2.43-7.12,3.71-11.27,3.77-1.05,.01-1.92,.32-2.48,1.11-.81,1.14-1.93,1.83-3.14,2.45-.1,.06-.19,.13-.29,.19-.11,.06-.23,.13-.34,.19-.12,.06-.25,.11-.37,.17-.11,.06-.21,.13-.32,.19-.14,.08-.27,.16-.41,.24-.09,.09-.2,.12-.32,.1-.13,.07-.26,.15-.39,.22-.76,.37-1.48,.83-2.37,.87-.28,0-.55-.02-.83-.03-.13-.13-.27-.27-.4-.4,2.93-1.18,5.98-2.15,8.16-4.64,.54-.61,.69-.91-.32-1.08-.99-.17-2.06-.29-2.9-.76-2.03-1.13-3.37-.51-4.82,1.08-2.61,2.85-5.66,4.91-9.9,4.17-.78-.14-1.03,.49-1.17,1.06-.19,.82,.53,.79,1.01,.84,2.24,.26,4.49,.07,6.74,.05,0,.25,0,.5,0,.75-.15,.02-.31,.05-.46,.07-.59-.09-1.19-.29-1.69,.24-.29,.26-.59,.51-.88,.77-.29-.02-.59-.04-.88-.06l-.06-.05c-.05-.31-.17-.59-.53-.57-1.31,.06-2.58-.19-3.85-.47-3.51-.77-4.87-2.29-5.05-5.74-.04-.7-.35-.75-.87-.72-.05-.43,.14-.92-.36-1.22-1.25-1.38-1.15-3.16-1.36-4.82-.1-.85-.37-1.35-1.17-1.71-1.43-.65-2.84-1.37-3.9-2.58,0-.37,0-.74-.01-1.11,2.32,1.99,5.02,3.31,7.97,4.04,2.47,.62,4.45,2.04,6.4,3.51,1.94,1.46,1.88,1.46,3.31-.48,.9-1.23,.16-2.17-.44-3.01-2.86-4.04-6.82-6.7-11.43-8.48-.77-.3-1.53-.74-2.39-.47-1.62,.5-3.28,.5-4.94,.45-1.31-.04-.97,.52-.63,1.25,.32,.7,1.37,1.2,.68,2.21-.39,.46-.53,.07-.71-.2,.06-.36,.07-.69-.33-.88-1.02-1.72-2.11-3.31-3.93-4.44-1.79-1.11-2.31-3.18-2.71-5.11-.22-1.03-.49-2.01-.83-3,.13-.33,.41-.42,.73-.41,.92,2.08,2.92,3.26,5.06,2.99,0-.75-.63-1.23-.88-1.88-.62-1.65-1.25-3.3-.55-5.06,.49-1.23,.66-2.43,.27-3.69-.01-.12-.03-.24-.04-.36-.21-1.21-.35-2.41-.04-3.62,.02-.15,.03-.3,.05-.45-.14-.59,.25-1.08,.34-1.63,.15-.93-.42-.49-.8-.38-.48-.31-.44-.64-.03-.98,.57,0,.89-.24,.86-.83,.17-.37,.55-.32,.86-.42,.27,.26,.53,.52,.8,.79-.96,2.73-1.67,5.49-.74,8.71,1.02-1.19,1.76-2.43,3.05-2.87,2.88-.99,4.65-3.34,6.75-5.24,1.18-1.07,2.4-2.04,3.77-2.8,1.59-.88,3.29-1.59,4.96-2.32,3.05-1.33,6.16-2.07,9.44-.79,.65,.26,.96-.06,1.25-.58,.73-1.3,.46-3.03-.72-3.95-1.28-1-2.73-1.53-4.4-1.63-2.89-.18-5.62,.62-8.4,1.14-.79-.04-.66-.51-.49-1,2.76-2.22,5.36-4.68,8.89-5.75,.12-.06,.24-.12,.37-.19,.52-.28,1.03-.57,1.55-.85,.12,0,.2-.07,.23-.18,.11-.07,.22-.13,.33-.2,.4,.02,.69-.11,.77-.53,.1-.06,.19-.12,.29-.17,.67-.2,1.06,1.39,1.87,.28,1.93-.15,3.81-.74,5.78-.62,2.7,.16,4.33-1.76,6.59-3.15-1.53-.38-2.67,.04-3.81,.03-.19,.02-.38,.05-.57,.07-.49,.09-.98,.18-1.47,.27-.16-.75,.71-.62,.93-1.05,.21-.02,.43-.03,.64-.05,.12,0,.24-.02,.37-.03,.39-.06,.78-.12,1.17-.18,1.41,.58,2.98-.07,4.39,.55,.5,.22,1.23-.71,1.46,.09,.18,.6-.87,.11-1.12,.64-.11,.22-.44,.34-.66,.51,0,0,0,.01,0,.01-.23-.11-.4-.03-.56,.13-.7,.12-.99,.75-1.47,1.14-.45-.03-.91-.06-1.1,.54,.49,.13,.99,.4,1.13-.4,.5-.11,1-.22,1.5-.33,.22-.08,.45-.15,.67-.23l.92-.03c.54,.12,.83-.1,.87-.64,3.67-.9,7.46-1,11.18-1.58,.87-.13,1.62-.38,1.58-1.27-.04-.84-.92-.51-1.44-.54-3.37-.17-6.62,.45-9.72,1.7-1.02,.41-1.31,.32-1.24-.73,3.62-1.15,7.26-2.2,11.13-1.9,.06,0,.13,.02,.18,0,1.79-1.05,.55-2.86,1.08-4.27,.41-1.11-.71-.63-1.27-.61-4.95,.2-9.08-1.5-12.54-5.01-1.61-1.63-3.41-3.08-4.82-4.89-.44-.57-1.04-.44-1.62-.47,.05-.27-.52-.6-.16-.7,.88-.24,1.27-1.12,2.15-1.37,.61-.17,1.63-.22,1.67-.97,.04-.69-.92-.95-1.45-1.39-.04-.04-.1-.07-.14-.1-1.46-1.07-1.38-2.02,.3-2.71,1.11-.46,2.27-.8,3.41-1.2,.36,.05,.77-.09,1.01,.32-1.92,.86-1.93,.87-.61,2.45,.79,.95,1.65,1.83,2.43,2.78,1.77,2.14,3.73,4.05,6.37,5.11,.52,.21,1.31,.91,1.65,.07,.28-.7,.43-1.63-.62-2.28-2.54-1.57-3.57-3.97-3.17-6.86,.21-1.5-.07-2.63-1.41-3.42-.02-.29-.11-.53-.4-.66-.39-1.28-.85-2.51-1.91-3.43-.33-.4,.19-.7,.13-1.07-.01-.27,.04-.62-.36-.6-.12,0-.23,.31-.34,.48-.22,.1-.43,.21-.65,.31-.03-.33-.07-.67-.1-1,0,0-.01,0-.01,0,.14-.08,.28-.16,.42-.24,.74-.47,.43-1.2,.47-1.84,.36-.46,.36-.91-.03-1.35,.62-5.94,5.67-9.11,10.59-6.66,.85,.43,1.63,.96,2.16,1.77,.15,.09,.3,.18,.45,.28,.31,0,.61-.28,.94-.04,.2,.67-.86,.76-.68,1.42-1.06,.72-2.54,.85-3.21,2.14h.02c-.53-.36-.82-.04-1.08,.35h0c-.87-.04-1.43,.48-1.96,1.07-.16,.51,.23,.59,.58,.71-.49,1.37,.73,2.21,1.1,3.31,.37,1.09,1.15,1.29,2.39,.91,1.91-.6,3.34-2.1,5.31-2.51,1.19,.15-.02,1.44,.86,1.74,.34,1.29,1.08,1.83,2.53,1.8,2.25-.05,4.49,.22,6.64,.97,.93,.32,1.91,.2,2.82,.04,4.72-.84,9.31-.05,13.15,2.47,2.35,1.54,4.78,2.28,7.31,3.07,.91,.28,1.66,.82,2.5,1.21,0,0,.16,.02,.16,.02,.41,.15,1.08,.1,.68,.87-.73,.48-1.21-.2-1.75-.41-1.52-.59-3.03-1.2-4.96-1.48,1.14,1.59,1.9,3.06,2.45,4.65,.12,.34,.3,.69,.77,.87,4.4,1.72,7.93,4.32,9.51,8.98,.34,1,1.54,.94,2.34,.8,.86-.15,.44-1.08,.36-1.62-.24-1.49-.69-2.93-1.45-4.26,.32,0,.63,0,.95,0,.09,.16,.17,.32,.26,.47,.08,.19,.15,.37,.23,.56,.52,.8,1.41,.88,2.21,1.13,.04,.43,1.55,.28,.47,1.15-.64,.22-1.12-.51-1.76-.36q-.27,3.33,2.72,4.4c2.43,.87,4.59,2.16,6.12,4.26,.95,1.3,1.99,2.24,3.89,1.92-1.04-1.99-2.12-3.88-3.7-5.48-2.07-2.09-4.66-3.36-7.19-4.74,.73-.3,1.42,.21,2.14,.11,1.79,.73,3.36,1.82,4.82,3.06,.54,.45,1.05,.9,1.77,1.04,.29,.29,.55,.77,1.03,.23,.48,.09,.95,.19,1.43,.28,.25,.47,.68,.39,1.1,.36,.66-.04,1.23,.23,1.78,.53,.15,.05,.29,.09,.44,.14,.32,.13,.64,.26,.96,.39,.16,.29,.42,.36,.73,.34,0,0,0,0,0,0,.06,.41,.12,.82,.18,1.22-.47,.02-.88-.16-1.24-.44-.02-.75-.51-.83-1.11-.76-1.46-.35-2.86-1.03-4.58-1.03,.78,1.35,1.57,2.51,2.14,3.76,.51,1.12,1.21,1.69,2.46,1.97,3.45,.77,6.49,2.41,8.16,5.57,.8,1.51,1.76,2.17,3.3,2.33,.43,.04,.96,.51,1.3,0,.3-.44-.15-.88-.34-1.29-1.08-2.27-2.68-4.21-4.15-6.24,.07-.33,.32-.59,.6-.36,1.16,.96,2.71,1.06,3.96,1.8-.23,.29-.47,.58-.7,.88-1-.09-.87,.53-.44,.92,1.2,1.12,1.76,2.57,2.27,4.04,.21,.6,.52,1.12,1.09,1.28,1.19,.33,1.94,1.26,2.9,1.89,3,2,4.36,4.78,4.16,8.32-.39,.32-.48,.8,0,.93,.82,.23,.7-.48,.72-.97,0-1.51,.02-3.02,.02-4.53,.5-.43,.2-.59-.24-.71-.17-.65-.34-1.29-.51-1.94,.37-.13,.68,.05,1,.19,.39,.69,.56,1.5,1.19,2.05,0,.37-.02,.74-.03,1.11-.38,1.47-.61,2.97-.67,4.49-.03,.68-.33,1.34,.41,1.89,1.02,.76,1.74,1.79,2.32,2.89,.63-.28,.34-.93,.74-1.21,.62,.41,.31,1.08,.47,1.62-.08,.18-.17,.35-.25,.53-.05,.12-.1,.25-.14,.37Zm-80.27-18.29c.14,.14,.28,.28,.43,.42,.28,.64,1.88,1.45,2.61,1.32,.11-.02,.25,.03,.35,0,1.58-.55,3.22-.29,4.83-.36,0,.25,0,.49,0,.74-1.78-.14-3.46,.15-5.09,.91-2.3,1.06-3.59,2.79-3.87,5.25-.08,.74,.55,1.41,1.06,1.2,5.6-2.25,10.38-.15,15,2.73,.46,.29,.66,1.12,1.38,.88,.76-.26,.85-1.06,.96-1.74,.54-3.37-.93-5.99-4.26-7.43-1.48-.64-3.03-1.13-4.54-1.69,.26-.24,.52-.49,.78-.73,.43-.08,.94,.22,1.3-.24-.82-1.24-1.52-2.53-3.13-3.02-.58-.18-1.08-.74-1.21-1.41-.17-.86-.42-.9-1.29-.55-1.52,.63-3.19,1.01-4.79,1.33-.81,.16-.97,.44-1.22,.96-.48,.62-.7-.02-.92-.22-2.11-1.99-4.87-2.87-7.49-3.72-4.12-1.34-8.38-.37-12.57,.13-.88,.12-1.98-.59-2.55,.67-1.31,.3-2.62,.61-3.93,.91-.15-.15-.26-.11-.35,.06-.09,.08-.2,.11-.33,.1-.41,0-.92,.09-.86,.54,.08,.56,.62,.49,1.07,.36l.15-.02,.12,.09c.34,0,.68,.02,1.02,.03,1.75,.34,3.48,.78,4.88,1.92,.76,.62,1.53,.76,2.45,.69,3.91-.27,7.83-.17,11.71,.36,2.09,.28,4.15,.76,5.57,2.6,.41,.53,.75,1.65,1.58,1.39,1.03-.33,.94-1.49,.99-2.42,.01-.29,.03-.58,.05-.87,.04-.39,.09-.77,.13-1.16Zm54.92,5.63c.49-.23,.57-.67,.63-1.13,.51-1.17,.83-2.27-.91-2.7-.28,0-.56-.01-.84-.02-.71-1.47-2.46-1.98-3.02-.81-1.19,2.47-3.5,4.36-3.35,7.57,.15,3.21-1.31,6.15-3.37,9,2.39-.12,3.67-1.58,5.11-2.68,2.73-2.06,3.73-5.12,4.61-8.21,.25,.12,.5,.25,.75,.37,.12,.06,.02,.76,.31,.18,.22-.44,.07-1.06,.08-1.6,0,0-.01,.03-.01,.03Zm-73.51,19.47s-.07-.09-.1-.14c-.36-.58,.04-1.61-1.05-1.75-.25-.03-.47,.08-.52,.34-.15,.84,.77,1.07,1,1.69-.05,.15-.1,.3-.16,.45-2.01-1.67-4.55-.66-7.11-1.59,1,1.69,.44,3.53,1.59,4.68,1.13,1.13,2.02,2.41,3.08,3.58,2.15,2.39,3.68,5.13,4.34,8.3,.09,.42-.09,1.15,.54,1.11,.6-.04,1.3-.34,1.44-1.11,.16-.92,.28-1.84,.42-2.76,.28,0,.56-.01,.84-.02-.03,.69-.06,1.37-.08,2.06-.03,.76,.45,.68,.92,.5,.47-.18,1.56,0,1.14-.8-.39-.75-.7-1.88-1.91-1.99-.16-.43-.68-.88,.09-1.25,.52,.03,.92,.98,1.48,.3,.43-.53,.61-1.22,0-1.85-.26-.27-.81-.59-.12-1.01,.6-.1,.74,.4,1.01,.74,.04,.32,.24,.47,.56,.51,1.54,1.32,2.6,2.98,3.5,4.76,.34,.67,.88,1.3,1.61,1.13,.94-.23,.58-1.17,.5-1.78-.75-5.76-1.92-11.37-6.48-15.6-.86-.8-1.8-1.6-2.94-1.91-.88-.24-1.33,.83-2.11,1.08-.11,.03-.23,.03-.35,.05-.13,.07-.26,.14-.4,.2-.18,.75-.05,1.46,.12,2.21,.58,2.53,2.26,4.49,3.47,6.69-.92,.24-.99,1.16-1.44,1.77h0c.01-.12-.02-.22-.11-.31-.08-.25-.17-.49-.25-.74l-.14-.33c-.79-2.08-1.76-4.06-3.15-5.82-.19-.23-.36-.48,0-.72,.34-.13,.73-.18,.77-.65Zm16.93,.43c.75-.98,.7-2-.34-2.62-1.47-.88-.3,1.15-1.12,1.1-.06,0-.12,0-.18,.01-1-2.19-3.54-2.04-5.18-3.27-.39-.29-1.02,.07-.9,.45,.45,1.51-.34,3.24,.63,4.57,2.83,3.89,3.33,8.47,4.26,12.95,.1,.49-.39,1.56,.7,1.34,.75-.15,2.27,.17,1.85-1.57-.11-.47,.08-1.04,.22-1.54,.99-3.59,.95-7.12-.44-10.61,.05-.34,.12-.66,.5-.8Zm69.82-2.99c.92-.66,1.49-1.61,2.15-2.48,.28-.37,1.17-.87,.27-1.33-.6-.31-1.48-.12-1.74,.69-.33,1.02-1.02,1.91-1.07,3.03-.56,.54-.92,1.14-.55,2.06,.62-.57,.88-1.22,.93-1.97Zm-46.2-13.61c-.25-.03-.51-.06-.76-.09-.66-.13-1.18-.5-1.66-.95-.2-.19-.43-.45-.76-.32-.36,.14-.27,.47-.22,.74,.3,1.4,.23,2.77-.26,4.12-.17,.46-.17,.96,.46,1.12,.53,.14,.85-.09,1.11-.59,.33-.67,.79-1.28,1.19-1.92,1.23,.69,.11,1.31-.14,1.82-.64,1.29-.01,1.81,1.11,1.86,5.1,.26,9.35,2.31,12.93,5.8,.97,.94,1.56,.84,2.06-.4,1.2-3,.16-5.99-2.79-7.85-2.06-1.3-4.4-1.93-6.76-2.46-.72-1.07-1.43-1.06-2.15,0-1.13,.3-2.21,.69-3.13,1.46-.43,.36-.91,.62-1.15-.21,.15-.77,2.37-.68,.92-2.12Zm31.16,37.55c-.12-.06-.25-.13-.37-.19-.28-.08-.49-.2-.38-.54,.27-.06,.54-.11,.82-.17,1.65,.76,3.31,.57,4.96,0,.46,.01,.68-.23,.71-.67,3.7-2.51,6.08-6.12,8.34-9.82,.2-.33,.86-.84,.13-1.13-1.3-.51-1.84-1.67-2.6-2.74-2.2,2.16-4.13,4.38-5.85,6.73-1.07,1.46-2.18,2.5-4.08,2.66-1.64,.14-2.97,2.63-2.29,4.1-.06,.33-.12,.66-.17,.98-1.04,.17-.46-1.23-1.41-1.26-.22,1.17-.37,2.41-.7,3.6-.66,2.41-.69,2.41,1.52,2.82,.05,.09,.18,.23,.15,.28-1.87,3.39-4.13,6.51-6.89,9.23-.99,.98-.57,1.25,.29,1.69,2.27,1.16,5.92,.43,7.76-1.81,3.08-3.75,4.84-8.13,6.01-12.93-1.74,.12-3.06,.88-4.4,1.58-.4,.21-.75,.87-1.34,.28,.18-1.02,1.11-1.18,1.85-1.57,.26,0,.57,.09,.68-.24,.1-.3-.18-.32-.37-.39-.83,.05-1.63-.02-2.33-.52Zm-102.59-5c1.03,.98,1.68,2.23,2.45,3.39,.47,.7,1.3,1.25,1.73,.35,.35-.73,.6-2.04-.45-2.69-3.03-1.86-5.76-3.95-6.63-7.63-1.24,.71-1.37,1.69-1.55,2.64-.86-.01-1.72,.03-2.46,.52-.65,.43-1.29,.56-1.98,.13-.37-.23-.8-.38-1.09,.01-.27,.36-.07,.73,.15,1.12,.46,.81,.95,1.64,1.19,2.52,.3,1.1,.95,1.71,1.88,2.36,2.68,1.88,5.36,3.82,6.94,6.81,.15,.28,.16,.72,.65,.7,.73-.04,2.23-2.21,1.94-2.89-.79-1.92-1.41-3.92-2.53-5.71-.02-.33-.14-.59-.51-.67,0,0-.06-.07-.06-.07,.1-.3,.21-.59,.31-.89Zm84.09-7.48c2.83,.61,4.76-.96,6.61-2.67,.76-.71,1.4-1.55,2.12-2.29,2.55-2.62,2.47-3.02-.88-4.31-2.22-.85-2.83-.71-4.28,1.08-1.22,1.5-2.5,2.95-3.98,4.22-1.1,.94-1.04,1.96-.2,3.05,.22,.28,.84,.34,.59,.91-.59,.98-1-.56-1.72,.02,.34,2.19,.21,4.5-.05,6.81-.09,.78,.41,1.44,.7,2.13,.12,.28,.25,.59,.57,.59,.45,0,.51-.42,.56-.76,.24-1.67,.41-3.36,.72-5.02,.25-1.32,.88-2.65-.96-3.39-.18-.07,.05-.27,.18-.37Zm-72.14-6.34c.73,.4-.19,.88,.06,1.3-.94,.56-1.88-.19-2.87,0-.76,.14-1.55,.54-1.32,1.05,.86,1.91,.47,4.25,2.4,5.81,2.65,2.15,4.91,4.68,6.73,7.58,.29,.46,.06,1.68,1.29,1.05,.81-.41,1.81-.62,1.46-1.97-.74-2.84-1.63-5.56-3.48-7.96-1.11-1.44-2.73-2.43-3.51-4.13,.99-.4,1.17-.95,.87-2.04-.32-1.13-1.38,.1-1.6-.74,.04-1.52-.07-3.11-1.01-4.28-1.17-1.47-2.27-2.97-3.29-4.53-.64-.98-1.59-1.31-2.76-1.16-1.37,.18-2.61,.73-3.86,1.25-.47,.19-.81,.47-.48,1.06,.96,1.72,1.75,3.55,2.88,5.16,2.1,3,5.18,3.23,8.49,2.53Zm59.67-19.39c.4,.24,.75,.23,1.02-.19,1.67-1.34,3.15-2.86,4.02-4.82,1.73-3.88,2.44-7.98,2.63-12.19,.03-.71-.16-1.23-.87-1.55-2.11-.95-3.37-2.83-4.91-4.4-.29-.3-.36-.9-1.01-.8-.46,1.77-.73,3.55-.51,5.35,.58,4.81-1.33,9.41-1.23,14.18,.01,.5-.25,1.02-.44,1.5-.83,2.07-.84,2.07,1.3,2.91Zm-75.95-4.07c.17,.1,.27,.22,.34,.2,3.35-.76,6.67-1.1,9.85,.66,.19,.1,.48,.15,.69,.09,2.76-.75,5.64-.66,8.45-1.06,3.42-.49,6.87-.81,9.95,1.3,.64,.44,1.24,.92,2.07,.35,.79-.54,1.21-1.21,1.16-2.2-.12-2.18-1.55-3.68-4.46-4.57-4.33-1.32-8.78-1.43-13.22-.96-5.53,.58-10.66,2.26-14.83,6.19Zm56.19-10.08c-.07-2.72-1.43-5-2.7-7.28-1.29-2.31-3.12-4.21-5.18-5.93-2.86-2.39-5.5-5.02-9.75-4.81-1.16,.06-1.33,.38-1.2,1.26,.26,1.85,.76,3.63,1.79,5.24,1.73,2.71,4.39,4.49,6.7,6.63,2.39,2.21,6.01,3.16,7.04,6.82,.21,.75,1.36,1.03,2.3,.37,.83-.58,1.01-1.39,1.01-2.31Zm37.91,.26c-.19,.65-.27,.92-.35,1.19-1.23,4.06-.58,8.21-.63,12.33-.03,2.31,.23,4.6-.93,6.83-.49,.94-.22,2.47,.7,3.18,.91,.71,2.15,.36,3.14-.35,.29-.21,.64-.37,.83-.65,1.29-1.87,2.56-3.72,3-6.04,.67-3.52,.62-7.07,.66-10.62,0-.69-.18-1.12-.93-1.45-2.12-.91-3.96-2.24-5.5-4.43Zm-55.43-25.98c3.14,.03,3.15,.02,2.02-2.09-.78-1.46-1.97-2.62-2.99-3.9-1.48-1.85-2.69-3.85-3.23-6.15-.38-1.59,.52-2.83,2.16-2.91,1.08-.05,1.94-.48,2.78-1.03,.89-.58,1.01-1.13,.07-1.88-3.61-2.84-8.76-1.18-9.97,3.36-1.18,4.43,.84,8.02,3.35,11.48,1.65,2.28,3.9,3.05,5.82,3.12Zm-3.41,73.09c-.08-.57-.13-1.14-.32-1.71-1.72-5.25-5.45-9.02-9.49-12.57-.89-.78-1.85-1.25-3.07-1.03-1.41,.26-2.3,1.59-3.75,1.8-.06,0-.18,.63-.05,.79,.74,.94,.87,2.15,1.71,3.09,1.84,2.04,4.22,3.41,6.2,5.24,2.11,1.95,4.7,3.59,5.6,6.57,.11,.35,.22,.64,.71,.59,.96-.11,2.51-1.82,2.46-2.76Zm-28.59-9.08c-.85,.19-1.31,.99-1.74,1.58-.6,.83-2.83,.16-2.07,2.04,.42,1.05,1.19,1.98,1.91,2.89,.39,.49,.98,.84,1.5,1.22,3.16,2.31,7,3.63,9.75,6.55,1.03,1.09,2.02,1.46,3.49,.3,1.49-1.18,1.49-2.25,.53-3.53-3.27-4.39-6.91-8.39-12.16-10.58-.38-.16-.77-.3-1.2-.47Zm63.07-51.73c.08-.8-.09-1.5-.75-2.05-.86-.73-1.48-1.65-2.13-2.56-.9-1.28-2.41-1.23-2.97,.2-.96,2.46-1.39,5.04-1.12,7.7,.24,2.31,.53,4.63,.64,6.95,.07,1.63-.12,3.39-1.45,4.51-1.37,1.16-.51,1.64,.41,2.15,1.41,.78,2.48-.04,3.18-1.06,1.31-1.92,2.6-3.88,3.25-6.14,.91-3.17,.59-6.47,.92-9.7Zm46.19,31.98c.58-2.76,.3-5.81-3.56-7.33-.21-.08-.37-.29-.53-.47-1.12-1.23-1.62-.54-1.94,.61-.8,2.87-.72,5.79-.22,8.67,.53,3.05,.99,6.09,.79,9.2-.1,1.53-1.24,2.69-1.17,4.33,.06,1.48,.6,1.27,1.45,.82,1.93-1.01,3.13-2.6,3.78-4.64,1.08-3.44,1.27-6.98,1.39-11.2Zm-82.28-4.44c0,.27-.03,.45,0,.62,.12,.53-.3,1.26,.41,1.56,.66,.28,1.18-.26,1.5-.69,.39-.53,.88-.81,1.43-.93,4-.87,7.99-1.67,11.99,.1,1.83,.81,2.78,.07,2.74-1.92-.04-1.59-.87-2.69-2.11-3.64-2.81-2.15-6.09-2.21-9.39-2.1-4.32,.14-6.81,3.52-6.56,7Zm45.41,30.26c-.14-3.37-.46-6.73-1.52-9.97-.38-1.14-.94-2.06-2.43-1.2-.72,.41-1.55,.63-2.39,.46-1.32-.26-1.63,.34-1.58,1.52,.25,5.78,.95,11.42,4.47,16.34,.77,1.08,1.21,.61,1.64-.15,1.23-2.17,1.93-4.48,1.82-7Zm-37.6-63.15c2.12,.14,3.56-.17,4.96-.65,3.43-1.18,6.01-3.8,9.26-5.31,.7-.32,.41-.77-.15-.94-.67-.2-1.38-.37-2.07-.42-2.93-.2-5.77,.42-8.63,.91-3.57,.61-7.14,1.16-10.55-.71-.81-.44-1.01,.04-1.1,.75-.26,2.13,1.67,4.97,3.82,5.69,1.66,.55,3.38,.52,4.47,.67Zm21.62,62.26c-.23-5.44-1.67-9.95-3.81-14.26-.4-.81-1.3-1.27-2.24-1.16-3.21,.37-4.06,1.6-3.26,4.7,.23,.9,.63,1.75,.96,2.62,1.02,2.67,2.37,5.19,3.59,7.77,.67,1.41,1.03,2.96,2.2,4.12,.93,.93,1.65,.83,1.95-.44,.3-1.3,.71-2.59,.62-3.36Zm-40.2-32.83c-.92,.1-2.05,.14-3.16,.34-5.37,.97-7.35,3.82-6.14,8.58,.33,1.3,1.13,1.45,1.87,.73,1.47-1.42,3.3-2.04,5.15-2.62,2.59-.81,5.2-1.77,7.97-1.1,.87,.21,1.66,.51,2.27-.18,.65-.73,.07-1.52-.31-2.18-1.64-2.87-4.43-3.44-7.65-3.57Zm66.54,41.8c.12,1.31-.5,3.65,1.04,5.68,.39,.52,.35,1.5,1.31,1.34,.98-.16,1.99-.03,2.72-1.2,2.29-3.68,2.64-7.64,2.17-11.77-.06-.51,0-1.08-.7-1.26-1.93-.49-2.88-2.07-3.95-3.51-.23-.31-.24-.85-.8-.78-.62,.08-.62,.64-.71,1.07-.68,3.14-1.24,6.29-1.08,10.43Zm-94.18-27.05c.07,1.4-.07,2.62,.93,3.21,.64,.38,1.43-.17,2.04-.71,3.54-3.1,7.71-4.95,12.35-5.81,1.2-.22,1.74-.69,1.08-1.89-.84-1.52-2-2.58-3.84-2.76-3.96-.4-7.33,.97-10.34,3.36-1.58,1.25-2.05,3.05-2.21,4.59Zm41.92-34.85c.39-.42,1.98,.5,1.33-.89-.66-1.42-1.42-2.8-1.86-4.32-.15-.51-.54-.54-.94-.65-2.4-.66-4.51-1.87-6.21-3.61-1.87-1.93-3.56-4.03-5.29-6.09-.37-.44-.69-.81-1.32-.55-.38,.16-.91,.29-.94,.72-.04,.52,.53,.7,.91,.97,.34,.24,.67,.49,.98,.76,.88,.79,1.33,1.58-.08,2.28-.42,.21-.54,.72-1.08,.85-1.31,.3-.86,.88-.22,1.54,1.6,1.65,3.36,3.14,4.98,4.75,2.7,2.68,6,3.79,9.73,4.24Zm22.69,7.33c-.06-.52-.09-1.05-.2-1.56-.81-3.82-2.4-7.43-3.31-11.21-.66-2.73-2.37-4-4.79-4.95-1.02-.4-1.61,.14-2.28,.49-.69,.36-.28,.99-.12,1.55,.16,.55,.36,1.16,.27,1.71-.27,1.69,.56,2.77,1.64,3.98,3.33,3.7,6.16,7.7,6.19,12.95,0,.36,0,.73,.47,.79,.43,.05,.84-.03,1.07-.46,.55-1.03,1.23-2.02,1.06-3.28Zm19.55,56.57c-2.16-.25-4.51,.59-6.95,.6-.82,0-1.04,.43-.65,1.15,1.4,2.63,3.29,4.59,6.47,5.14,3.08,.53,5.99-.2,8.93-.83,.91-.19,2.38-.26,2.5-.88,.2-1-.72-1.99-1.56-2.74-.39-.35-.84-.64-1.29-.92-2.19-1.39-4.64-1.62-7.45-1.53Zm-6.57-75.93c-1.88-3.19-4.62-4.28-7.83-4.54-4.34-.35-7.91,1.63-11.43,3.7-.48,.28-1.32,.5-1.2,1.12,.12,.65,.83,1.02,1.52,1.28,2.75,1.04,5.54,.93,8.4,.61,2.7-.3,5.04-1.89,7.79-1.94,.82-.01,1.64-.14,2.74-.23Zm20.78,19.18c2.17,3.22,4.43,5.58,7.99,6.69,4.01,1.25,8.11,.68,12.16,1.07,1.13,.11,.74-.5,.43-1.07-.97-1.84-2.7-3.02-4.42-3.86-4.97-2.43-10.44-2.48-16.17-2.83Zm-14.4,15.83c1.62,.24,2.76-.22,3.84-.84,4.74-2.72,7.54-6.92,9.1-11.95,.93-2.98,.51-3.41-2.66-3.53-.66-.02-1.1,.13-1.48,.69-.65,.98-1.54,1.75-2.5,2.45-.6,.43-1.22,.94-1.35,1.72-.71,4.11-1.9,8.01-4.95,11.47Zm6.93-24.46c-.37-1.25-1.2-2.92-1.79-3.56-4.22-4.55-9.43-6.19-15.59-5.16-1.49,.25-1.29,.78-.57,1.64,2.3,2.74,4.97,4.81,8.64,5.59,3.06,.66,6.14,.98,9.3,1.49Zm33.82,26.18c-3.09,2.59-3.08,6.05-3.38,9.54-.36,4.19-1.16,8.37-5.56,10.72,.73,.58,1.35,.5,2,.31,2.35-.68,4.38-1.83,5.66-3.96,1.81-3.02,2.82-6.35,3.75-9.71,.82-2.97,.84-5.6-2.47-6.9Zm-10.63-8.87c1.88,2.66,3.97,4.57,6.55,5.9,3.63,1.87,7.6,2.99,11.16,5.02,.83,.47,.99-.1,.95-.82-.13-2.83-1.5-4.96-3.81-6.55-4.41-3.04-9.43-3.57-14.86-3.55Zm-92.38,48.17c-1.38-.53-2.77-.82-4.37-.33-2.81,.86-5.07,2.35-6.82,4.7-1.71,2.3-3.7,4.38-4.89,7.04-.47,1.05-.14,1.23,.78,1.26,1.85,.07,3.58-.42,5.02-1.49,4.11-3.07,7.31-6.99,10.28-11.18Zm91.32-21.84c-.06-.63-.12-1.24-.33-1.87-1.16-3.54-4-4.95-7.32-5.9-3.02-.86-5.3,.24-7.37,2.25-.86,.83-.39,1.38,.43,1.39,2.8,.04,4.7,1.96,6.98,3.04,1.75,.83,3.51,1.73,4.81,3.24,1.14,1.33,1.78,1.21,2.54-.45,.26-.56,.25-1.13,.26-1.71Zm-30.4-43.57c1.54,2.59,3.57,4.42,6,5.57,4.93,2.32,10.36,1.7,15.75,2.35-2.71-4.51-11.93-7.83-21.75-7.91Zm-.75,64.21c1.22,0,2.2-.09,3.16,.02,1.16,.14,1.96-.3,2.55-1.19,2.55-3.85,3.73-8,2.76-12.6-.07-.34-.04-.73-.47-.85-1.57-.43-2.94-1.12-3.74-2.78-.26,1.89-1.84,3.18-1.52,5.15,.7,4.31,.2,8.43-2.75,12.24Zm-96.01-18.4c.04,2.22,.81,3.83,1.81,5.37,.4,.61,.86,.45,1.38,.27,1.79-.63,2.66-2.07,3.23-3.7,.56-1.6,1.13-3.19,2.19-4.53,.62-.78,1.37-1.56,2.54-1.14,.51,.18,.87,.26,1.23-.2,.4-.51,0-.89-.2-1.27-.72-1.38-2.82-2.22-4.59-1.95-3.42,.51-5.37,2.87-7.08,5.49-.36,.56-.41,1.32-.51,1.66Zm120.85,25.77c-1.02-.48-2.01-.73-3.09-.79-4.7-.24-9.12,1.16-13.62,2.1-.78,.16-.61,.48-.31,.95,.75,1.16,2,1.78,3.01,2.64,2.17,1.82,7.38,2.12,9.38,.38,1.74-1.51,3.43-3.15,4.63-5.29Zm-40.82-43.01c.04-1.55-.06-1.65-1.66-1.77-.65-.05-1.3-.09-1.95-.1-2.62-.04-3.44,.64-4.05,3.17-.57,2.36-.87,4.8-2.39,6.86-.54,.73-.27,1.43,.61,1.85,1.01,.48,2.01,.48,3.1,.17,3.74-1.05,5.67-6.3,6.35-10.18Zm.95,1.36c.15,1.36,.27,3.16,.55,4.94,.37,2.31,1.56,4.23,3.16,5.92,.91,.95,3.27,1.27,3.45,.48,.23-1,.85-1.94,.55-3.04-.58-2.1-.63-4.27-.7-6.42-.04-1.3-.62-2.23-1.7-2.88-.91-.56-1.9-.93-2.94-1.21-2.32-.62-2.35-.62-2.38,2.21Zm5.8,35.43c1.07-.08,2.13-.14,3.2-.25,1.12-.12,2.24-.28,3.35-.42,.52-.07,1.13,.04,.84-.87-.74-2.28-3.32-4.32-5.74-4.64-3.38-.45-6.58,.38-9.8,1.15-.61,.15-1.57,.42-1.65,.79-.16,.72,.5,1.33,1.11,1.84,2.53,2.1,5.53,2.52,8.69,2.4Zm-1.09-47.93c2.48-.36,4.03-2.06,5.13-4.08,2.2-4.01,3.39-8.36,3.79-12.91,.09-.99-.9-1.74-1.81-1.41-.76,.28-3.34,3.94-3.4,4.77-.3,4.21-2.05,7.8-4.88,10.93-.38,.43-1.4,.47-1.06,1.37,.36,.93,1.25,1.16,2.22,1.33Zm-40.07,10.9c-1.25-.14-2.38,.3-3.53,.54-.59,.12-1.03,.36-.77,1.07,1.13,3.13,2.12,6.31,4.64,8.73,1.31,1.26,2.87,1.56,4.6,1.22,.44-.09,1.23-.36,1.08-.7-.57-1.24,.24-2.62-.44-3.74-1.04-1.71-1.71-3.58-2.55-5.37-.61-1.3-1.48-2.11-3.02-1.76Zm-20.51,16.08c.26-2.73-1.09-4.96-2.28-7.22-.15-.29-.34-.54-.82-.46-2.64,.42-4.83,3.06-4.17,5.46,.61,2.2,.92,4.43,1.4,6.64,.44,2.02,1.79,2.5,3.5,1.31,2.04-1.42,2.18-3.59,2.36-5.72Zm-10.11,9.44c1.8-.08,3.08-.89,3.73-2.26,.5-1.05-.32-2.12-1.14-2.7-2.17-1.53-4.12-3.28-5.91-5.21-.95-1.02-1.66-.65-2.3,.23-1.09,1.49-1.55,3.25-2.18,4.94-.11,.31-.05,.6,.17,.81,2.19,2.12,4.55,3.93,7.62,4.18Zm109.33-4.79c.08-2.74-1.91-3.73-3.7-4.87-.81-.52-1.23-.25-1.52,.62-1.18,3.57-1.2,7.15,.18,10.62,.56,1.42,1.47,2.78,3.09,3.46,1.08,.46,1.78,.08,2.49-.68,.73-.79,.59-1.34-.17-2.03-.59-.52-.69-1.32-.69-2.11,0-1.75-.15-3.5,.32-5.03Zm-36.97-1.04c-.15-1.39-.27-2.78-.44-4.17-.07-.6-.28-1.13-1-1.29-1.45-.34-2.55-1.12-3.25-2.46-.24-.47-1.16-.83-1.1-.16,.15,1.74-.73,3.38-.17,5.16,1.2,3.81,2,7.68,1.25,11.71-.08,.44-.57,1.16,.18,1.33,.63,.14,1.45,.23,1.99-.41,.22-.27,.38-.59,.53-.91,1.32-2.78,1.99-5.71,2.01-8.79Zm-90.78,3.76c.74,2.13,1.31,3.87,2.92,5.06,2.56,1.9,8.81,1.76,11.26-.28,.35-.29,.62-.69,.86-1.08,.42-.69,.43-1.28-.45-1.7-1.51-.71-2.86-1.66-3.99-2.88-.43-.46-.81-.6-1.32-.07-2.66,2.73-5.71,2.55-9.28,.96Zm63.92-23.51c.01-2.12-.72-2.91-2.07-2.27-1.06,.5-2.23,.67-3.22,1.3-.84,.53-1.5,1.22-1.65,2.17-.4,2.59-.58,5.2-1.08,7.79-.29,1.51,.77,2.16,2.21,1.47,.68-.33,1.32-.79,1.88-1.3,2.87-2.53,3.22-6.09,3.93-9.15Zm2.81-2.63c-1.94-.06-2.21,.23-1.76,2.12,.45,1.86,.92,3.72,1.47,5.56,.44,1.47,1.22,2.79,2.52,3.71,1.53,1.08,2.5,.73,3.5-.72,.95-1.38,.64-2.61,.17-3.95-.31-.88-.67-1.75-.87-2.65-.71-3.17-1.66-3.96-5.04-4.07Zm-25.78,44.47c.72-.15,1.62-.15,2.32-.52,3.42-1.85,6.59-4.05,9.61-6.49,1.15-.93,1.01-1.49-.32-1.88-2.42-.72-4.64-.6-6.83,.96-2.46,1.75-4.92,3.44-6.95,5.68-.98,1.08-.79,1.63,.67,1.99,.46,.11,.93,.17,1.52,.27Zm3.36-34.76c0-1.05,.07-2.11-.01-3.15-.2-2.57-.82-2.93-3.21-1.89-1.28,.56-2.87,1-2.73,2.78,.22,2.91,.53,5.81,.98,8.69,.28,1.82,1.85,2.24,3.26,1,.67-.59,1.07-1.35,1.31-2.23,.45-1.72,.51-3.46,.41-5.21Zm51.11,8.11c.64,.05,1.37-.13,1.94-.53,2.75-1.92,4.52-4.68,6.37-7.35,.28-.41,.48-1.17-.24-1.55-.96-.51-1.91-1.05-2.93-1.41-1.21-.42-2.22-.24-2.92,1.11-1.13,2.17-2.32,4.32-4.2,6.01-.73,.66-1,1.65-.54,2.57,.47,.91,1.41,1.17,2.52,1.15Zm8.5-1.68c-.12,2.18,.33,4.17,1.93,5.78,.67,.67,1.86,1.52,2.31,.61,.5-1.01,1.44-1.95,1.36-3.29-.11-1.81,.22-3.59,.61-5.36,.28-1.29-.09-2.31-1.22-3.01-.85-.53-1.73-1-2.61-1.47-.81-.43-1.26-.25-1.5,.71-.49,1.99-.74,4-.87,6.02Zm-48.65,28.28c-1.81-.85-3.44-1.55-5-2.38-.74-.4-1.27-.38-1.92,.12-1.01,.77-2.03,1.55-3.14,2.14-2.28,1.22-4.69,1.57-7.16,.52-1.21-.51-1.72,.4-2.03,1.13-.37,.88,.65,.71,1.11,.92,1.69,.78,3.53,.99,5.34,1.23,4.71,.62,8.83-.88,12.81-3.68Zm92.37-33.14c-2.32,2.75-4.1,5.67-5.32,8.87-.48,1.25-.52,2.76,.91,3.59,1.33,.77,2.5,0,3.26-.99,1.42-1.84,2.7-3.8,3.62-5.95,.14-.33,.21-.66,.04-1.01-.71-1.52-1.43-3.02-2.52-4.51Zm-71.24,19.92c-.58,0-1.3-.22-1.73,.04-2.18,1.27-4.65,2-6.66,3.55-1.09,.84-1.08,1.46,.17,2.14,1.66,.91,3.49,.91,5.19,.31,2.81-.99,5.35-2.63,8.23-3.5,.83-.25,.42-.61,.05-.97-1.47-1.41-3.27-1.78-5.24-1.57Zm43.63,12.88c.69-.17,1.52,.35,2.16-.3,2.25-2.3,3.67-4.97,3.71-8.23,0-.5-2.31-2.96-2.81-2.97-.11,0-.27,.03-.31,.1-.71,1.27-2.41,1.94-2.57,3.45-.26,2.47-.75,4.82-2.05,6.97-.37,.61-.22,1,.59,.98,.41-.01,.83,0,1.28,0Zm-51.16-11.17c-1.95-.95-3.57-.94-5.31-.53-3.94,.92-6.92,3.33-9.9,5.79-.59,.49-.3,.75,.19,1,1.35,.71,2.73,.5,4.12,.17,4.24-1,7.18-4.07,10.89-6.43Zm43.03-39.44c-1.17,1.62-2.58,3.05-4.19,4.24-.86,.64-.67,1-.31,1.81,.57,1.28,1.5,1.95,2.7,2.54,.93,.46,1.71,1.23,2.56,1.85,.35,.26,.46,.99,1.05,.72,.44-.2,.45-.77,.54-1.24,.73-3.64-.11-6.93-2.35-9.93Zm-31.95-38.57c.97,1.13,2.37,1.81,2.85,3.26,.12,.37,.58,.31,.95,.25,5.23-.84,9.69,.15,12.54,5.04,.33,.56,.97,.92,1.5,.61,.62-.35-.03-.9-.15-1.35-.08-.27-.25-.53-.4-.78-3.51-5.77-10.26-8.21-17.29-7.03Zm-12.2,86.62c-1.72-.79-2.98-1.55-4.03-2.59-.51-.51-.96-.47-1.58-.17-3.17,1.6-6.37,2.83-9.93,1.05-.71-.35-1.3,.28-1.57,.81-.33,.63,.48,.67,.81,.84,5.26,2.63,10.56,2.35,16.3,.06Zm3.04-87.77c-1.94-.4-1.9,.54-1.46,1.86,.2,.6,.32,1.25,.31,1.88-.02,.92,.34,1.07,1.18,.92,2.99-.56,5.97-.87,8.78,.78,.62,.36,1.38,.09,1.81-.32,.6-.55-.3-.84-.5-1.26-.57-1.18-1.69-1.73-2.79-2.3-2.32-1.2-4.9-1.16-7.33-1.55Zm63.61,69.92s0-.02,0-.03c-.82,.08-1.65,.16-2.47,.25-3.64,.42-3.77,.59-3.43,4.33,.1,1.09,.27,2.06,1.63,2.35,1.31,.28,2.31-.09,3.12-1.1,.95-1.18,1.94-2.33,2.85-3.53,.44-.58,1.51-1.06,1.14-1.77-.37-.7-1.49-.45-2.31-.53-.17-.02-.35,.02-.53,.03Zm-3.01-8.28c.4-3.52,.86-6.98-1.17-10.13-1.16-1.81-1.21-1.76-2.64-.06-.45,.54-.92,1.1-1.5,1.48-1.19,.78-1.14,1.45-.26,2.51,1.76,2.12,4.72,3.2,5.57,6.2Zm-52.56,20.62c-.38,.57-.44,.93-.11,1.4,2.55,3.61,5.79,6.35,10.12,7.66,.82,.25,2.03,.84,2.49,.29,.54-.66-.33-1.67-.7-2.47-.48-1.04-.66-2.31-2.43-2.25-3.85,.12-6.92-1.55-9.36-4.64Zm-10.34-78.87c.08-1-.43-2.08-.63-3.22-.12-.68-.39-1.33-.6-1.99-.27-.84-.72-1.07-1.59-.64-1.1,.54-2.26,.98-3.42,1.39-.86,.31-.96,.69-.4,1.38,1.13,1.4,2.22,2.82,3.06,4.44,.65,1.27,1.88,.38,2.84,.32,.96-.06,.74-.87,.74-1.67Zm27.86,36.04c.23-1.28-.29-2.48-.59-3.72-.08-.34-.21-.74-.58-.8-.42-.07-.54,.38-.73,.66-.74,1.08-1.7,1.94-2.79,2.66-1.35,.89-1.48,1.9-.23,2.95,.81,.68,1.67,1.3,2.25,2.2,.64,.99,1.21,.65,1.76-.1,.85-1.15,1.07-2.43,.91-3.85Zm-74.35,54.1c-2.55-.05-4.5,1.3-4.97,3.1-.4,1.52,.31,2.82,1.95,3.71,.91,.5,1.45,.47,1.88-.61,.53-1.34,1.25-2.61,1.9-3.91,.28-.55,1.09-1.07,.81-1.62-.36-.69-1.3-.66-1.57-.67Zm44.58-64.16c-.14,.71-.8,1.47,.44,1.64,2.02,.27,3.77,1.19,5.48,2.22,.32,.19,.74,.86,1.19,.33,.43-.51,.14-1.2-.26-1.58-.88-.85-1.91-1.55-2.82-2.38-1.12-1.01-2.24-1.58-3.58-.38-.02,.02-.18-.11-.35-.21,.09-.19,.13-.43,.28-.58,.4-.42,.98-.73,.17-1.35-.65-.5-1.12-.48-1.65,.13-.61,.71-1.26,1.38-1.9,2.07-.24,.26-.57,.6-.31,.89,.18,.21,.65,.18,.99,.25,.97,.2,1.22-1.04,2.33-1.05Zm54.8,46.15c-.31-1.6-.9-3.02-.79-4.57,.04-.53,.21-1.16-.64-1.4-.74-.21-1.4-.59-2.12,.08-.69,.63-1.43,1.22-2.22,1.72-.66,.42-.65,.74-.3,1.39,1.09,2.06,3.18,2.58,5.13,3.3,.44,.16,.98,.05,.94-.53Zm-28.93-21.95c.16,1.48,.31,2.92,.5,4.36,.03,.26,.18,.61,.38,.71,.29,.13,.52-.17,.69-.41,1.05-1.4,1.95-2.9,2.63-4.51,.11-.25,.24-.67,.12-.81-.95-1.12-2.43-1.29-3.68-1.31-1.17-.01-.33,1.32-.64,1.97Zm-71.08,38.46c-1.91-.96-3.82-1.93-5.75-2.86-.84-.4-1.31-.25-1.22,.84,.1,1.37,.56,2.61,1.21,3.8,.43,.79,1.09,1.01,1.72,.37,1.09-1.12,2.48-1.54,4.04-2.15Zm-.22-24.17c.17-2.2-.94-4.04-1.14-6.04-.06-.55-.64-.38-1.03-.25-.85,.3-1.55,.84-2.19,1.45-.52,.49-.57,.96-.04,1.48,1.29,1.27,2.57,2.54,4.4,3.35Zm60.94-48.74c.15-1.86-.23-3.37-.79-4.85-.43-1.16-1.57-.95-2.25-.73-.83,.26,.02,.97,.15,1.44,.39,1.39,.89,2.75,1.37,4.11,.25,.71,.18,1.97,1.2,1.78,.84-.16,.17-1.32,.31-1.75Zm-36.43,37.16c-.43,1.8-.16,3.26-.6,4.65-.5,1.59-.15,1.87,1.5,1.42,.61-.17,1.25-.4,1.76-.76,.44-.31,.97-.93,.43-1.44-1.11-1.04-1.83-2.38-3.08-3.87Zm39.12-28.47c-.06-.81-.07-1.62-.18-2.42-.15-1.09-1.1-1.25-1.88-1.11-1.01,.19-.24,.95-.16,1.41,.28,1.7,.99,3.35,.45,5.12-.11,.36-.4,.83,.24,.97,.44,.1,.78-.19,.99-.57,.59-1.07,.53-2.24,.54-3.39Zm-20.25,24.06c-.82,1.83-1.01,3.38-1.89,4.6-.9,1.24-.21,1.45,.89,1.56,.86,.08,1.64-.11,2.38-.49,.44-.23,.88-.58,.54-1.08-.85-1.25-1.06-2.77-1.91-4.59Zm46.29,13.69c1.24-1.43,2.31-2.67,3.39-3.89,.31-.35,.49-.81,.2-1.1-.67-.69-1.62-.9-2.55-1.07-.43-.08-.66,.2-.69,.6-.13,1.71-.9,3.38-.35,5.46Zm-81.05-1.67c-.3,1.33,.02,2.48-.48,3.51-.24,.5-.32,1.03,.21,1.42,.46,.34,.97,.35,1.52,.18,1.04-.32,1.45-1.3,2.18-1.95,.59-.53,.38-.87-.28-1.1-1.13-.4-2.03-1.15-3.14-2.06Zm78.64,16.08c-1.04,1.54-1.47,3.14-2.51,4.4-.36,.43-.09,.74,.41,.87,.63,.16,1.26,.3,1.86,.53,.62,.23,.92,.02,.98-.56,.18-1.72,.19-3.43-.74-5.24Zm-53.39-25.36c.11,0,.22,0,.34,0,.21-1.6,.41-3.2,.63-4.8,.06-.4,.25-.8-.35-.98-.9-.26-1.76-.05-2.55,.33-.44,.21-.31,.69-.12,1.08,.69,1.46,1.37,2.91,2.06,4.37Zm28.45-.38c-1.12,.77-1.16,2.07-1.86,2.97-1.19,1.54-1.02,1.85,.98,2.03,.57,.05,1.17-.04,1.75-.11,.41-.05,.61-.25,.46-.71-.45-1.36-.87-2.73-1.32-4.18Zm19.54,11.12c-.06-.75-.07-1.49-.18-2.22-.14-.96,.66-2.42-.16-2.76-1.29-.54-1.23,1.36-2.1,1.9-1.65,1.02-.82,1.8,.37,2.46,.61,.34,1.21,.75,2.06,.63Zm-10.53,2.13c-.14-1.15,.45-2.32-.05-3.43-.15-.33-.34-.84-.86-.74-.59,.12-.42,.62-.35,.99,.53,2.59,.58,5.19,.18,7.8-.09,.59-.08,1.41,.56,1.47,.81,.08,.94-.75,.9-1.4-.1-1.56-.25-3.12-.38-4.69Zm-60.48,13.47c-.28,3.19,1.27,4.29,4.59,3.18-1.51-1.16-2.73-2.57-4.59-3.18Zm5.52-22.32c.11-1.71-.05-3.12-.24-4.53-.1-.76-.37-1.05-1.15-.76-.77,.28-1.89,.76-1.44,1.51,.73,1.23,1.34,2.65,2.83,3.78Zm36.51-5.45c.44-1.72,.74-3.06,1.14-4.36,.22-.72,0-1.07-.69-.94-.67,.13-1.93-.65-1.91,.66,.03,1.47,.42,2.95,1.45,4.64Zm67.42,11.5c-1.09,1.28-2.41,2.18-3.91,2.85-.57,.25-1.54,.47-1.12,1.21,.38,.67,1.66,.96,2.16,.43,1.21-1.27,2.9-2.33,2.87-4.49Zm-124.2-3.49c-.27-1.53-.5-2.77-.71-4.02-.04-.25-.19-.54-.41-.42-.78,.41-1.77,.74-2.19,1.4-.46,.73,.71,.75,1.11,1.13,.64,.6,1.31,1.15,2.19,1.92Zm28.02,11.82c-.07,.09-.15,.18-.22,.27,.35,.9,.67,1.81,1.05,2.7,.36,.85,1.27,.96,2.01,1.26,.2,.08,.39-.18,.44-.44,.16-.87-.05-1.56-.87-2.07-.83-.52-1.6-1.15-2.4-1.72Zm-33.3-14.88c1.57-.97,3.12-1.93,4.7-2.85,.32-.19,.43-.8,.56-1.23,.06-.19,0-.53-.14-.61-.13-.09-.52-.03-.63,.1-1.36,1.65-3.5,2.5-4.49,4.59Zm64.13,9.14c-.56,1.36,.09,2.64-.2,3.86-.14,.57,.05,1.03,.57,1.34,.36,.21,.72,.15,.91-.21,.26-.49,.66-.91,.28-1.59-.58-1.04-1-2.15-1.56-3.4Zm14.5,11.4c2.34,.17,1.43-1.27,1.26-2.16-.11-.58,.01-1.58-.67-1.65-.94-.1-.39,1-.74,1.47-.23,.32-.3,.75-.52,1.09-.68,1.07-.17,1.31,.66,1.25Zm43.35-9.79q-3.54-1.9-4.67,.49c1.59-.23,3.11-.02,4.67-.49Zm-51.14-53.15c.13,1.73,.26,3.39,.39,5.05,.02,.31,.17,.58,.49,.63,.11,.02,.29-.16,.37-.3,.68-1.14-.05-4.42-1.26-5.38Zm-19.45,8.24c-.85,.89-.45,1.9-.49,2.8-.02,.36-.18,1.26,.5,.91,.74-.38,1.71-1.02,1.69-2-.01-.87-1-1.17-1.7-1.72Zm12.71,52.51c.44-.41,1.76,.43,1.62-.85-.1-.94-.8-2.19-1.75-2.06-.94,.13-.65,1.56-.87,2.42-.22,.85,.52,.48,1,.49Zm-22.88,4.4c-.74-1.79-1.94-2.72-3.03-3.75-.18-.17-.4-.31-.61-.17-.28,.19-.31,.56-.12,.77,1.02,1.1,1.61,2.67,3.76,3.15Zm11.05-5.71c.2,1.08,.59,2.04,2,2.15,.38,.03,.71,.01,.66-.52-.06-.64-1.75-2.94-2.17-2.86-.72,.14-.29,.76-.49,1.23Zm61.93,14.12c-.08-.57-.53-1.02-.91-.91-.93,.28-1.49,1.06-1.67,1.98-.14,.7,.59,.6,.99,.63,1.23,.08,1.14-1.07,1.59-1.7Zm-79.05-11.38c.02,2.8,.27,2.98,2.85,2.15-.69-1.07-1.64-1.72-2.85-2.15Zm72.89,.57c.18,.41-.28,1.42,.56,1.25,.84-.17,1.35-1.15,1.51-2,.15-.78-.65-.64-1.14-.7-1.24-.15-.9,.74-.93,1.44Zm4-37.73c.85-.62,.98-1.47,1.41-2.13,.21-.32,.81-.76,.24-1.15-.4-.27-1.01-.44-1.48-.37-.64,.1-.35,.75-.34,1.15,.02,.78-.22,1.57,.17,2.5Zm-30.75,33.63c-.16,.02-.33,.04-.49,.06-.37,1.5,.43,2.91,.51,4.37,.02,.36,.46,.53,.83,.46,.56-.11,.3-.5,.22-.81-.35-1.36-.71-2.72-1.07-4.08Zm-60.29,10.74c-1.17-.51-1.88-1.49-3.04-.93-.12,.06,.12,1.51,.56,1.82,.91,.66,1.47-.41,2.49-.89Zm25.3-46.54c-3.3-.41-3.36-.34-2.16,2.4,.85-.73,1.19-1.85,2.16-2.4Zm-44.13,39.96c.93,.51,1.78,1.53,2.75,.92,.37-.23-.3-1.49-.83-1.88-.94-.69-1.16,.73-1.92,.96Zm22.96-35.52c-1.31-.15-2.46-.2-2.99,.5-.34,.45,.45,1.36,.9,2.07,.71-.88,1.32-1.62,2.09-2.56Zm17.8,.6c-1.77,.72-1.77,1.64,0,3.99v-3.99Zm25.11,32.23c-.31-.7-.73-1.65-1.17-2.59-.12-.24-.28-.58-.63-.44-.39,.15-.46,.56-.32,.88,.39,.9,.82,1.78,1.28,2.64,.08,.15,.37,.26,.58,.27,.3,.02,.35-.22,.27-.75Zm2.62-53.76c-.4,.06-1.02-.17-.92,.48,.16,1.04,1.19,.69,1.84,.91,.52,.18,.81-.08,.73-.6-.17-1.03-1.09-.59-1.65-.79Zm-12.03-6.88c-.15-.81,.2-1.82-.85-2.25-.3-.12-.51,.31-.34,.58,.51,.85-.29,2.18,.76,2.66,.63,.28,.28-.63,.43-.99Zm26.01,20.09c.73-.83,.73-1.6,.78-2.33,.03-.38,0-.85-.59-.89-.54-.04-.68,.34-.81,.74-.3,.89,.38,1.52,.62,2.48Zm17.65,5.97c0-1.12,0-1.91,0-2.7,0-.61-.31-.85-.89-.74-.6,.12-.77,.55-.49,1.04,.4,.68,.43,1.55,1.37,2.4Zm-.46,17.58c.76-.66,1.54-1.34,2.39-2.09-1.88-.69-2.22-.35-2.39,2.09Zm-6.55-27.92c.3-.01,2.14-1.83,2.22-2.17,.1-.4-.13-.53-.45-.56-.45-.04-2.22,1.86-2.19,2.31,.01,.27,.14,.42,.42,.42Zm-5.2,38.26c.2-.84,.43-1.51,.5-2.18,.07-.68-.44-.93-1.04-.86-.65,.08-.5,.6-.31,.94,.33,.61,.04,1.42,.85,2.11Zm-17.18-56c-.66,.32-1.75-.42-1.85,.67-.04,.43,.57,1.39,1.15,1.29,.89-.15,.49-1.21,.7-1.96Zm-50.5,58.3c-.04-1.35-.17-2.23-1.02-2.61-.3-.13-1.26,.43-1.18,.8,.2,.89,1.3,.91,2.19,1.81Zm58.71-50.15c.79-.83,1.81-1.23,1.75-2.39,0-.17-.37-.41-.56-.22-.65,.65-1.73,1.11-1.19,2.61Zm46.17,25.6c.12,.46-.33,1.27,.41,1.27,.68,0,.86-.83,.96-1.45,.09-.53-.18-.92-.75-.94-.94-.03-.44,.73-.61,1.12Zm-73.6,14.16c.48-.68,.44-1.4-.13-1.89-.49-.42-1.16-.26-1.8,.12,.7,.64,1.3,1.19,1.93,1.77Zm-31.05-13.06q-1.29,1.47,.22,2.58c-.07-.86-.14-1.64-.22-2.58Zm75.78,34.26c-.51,1-.6,1.99,.06,3.32,.33-1.34,.29-2.33-.06-3.32Zm10.62-16.01c-.79,.67-1.6,1.03-1.3,2.05,.04,.13,.46,.28,.61,.22,.98-.43,.72-1.25,.7-2.27Zm-54.34-52.63c.42,.65,.86,1.17,1.61,1.14,.33-.01,.25-.47,.16-.73-.3-.88-.96-.6-1.77-.42Zm16.96,48.93c.27-1.1,.49-1.78-.25-2.28-.09-.06-.42,.02-.45,.1-.28,.74,.15,1.27,.7,2.18Zm47.08-12.49c-.2-1.08,.2-1.75-.44-2.22-.3-.22-.56,.07-.67,.33-.29,.73,.18,1.13,1.11,1.89Zm4.34,33.17c-.12,.13-.3,.24-.3,.35,0,.1,.18,.27,.29,.28,.23,.03,.47-.07,.4-.35-.03-.11-.23-.17-.4-.28Zm-34.86-37.53c-.18,.14-.3,.24-.42,.34,.11,.11,.21,.29,.33,.3,.13,0,.26-.15,.4-.23-.09-.12-.18-.24-.3-.41Zm30.11,.63c.35-.08,.38-.31,.33-.52-.03-.11-.2-.29-.29-.28-.26,.03-.36,.25-.3,.48,.03,.13,.18,.23,.26,.31Zm-8.69,54.82c.36-.04,.61-.13,.45-.41-.09-.15-.36-.25-.56-.28-.26-.04-.47,.14-.34,.39,.08,.16,.34,.23,.45,.29Zm-2.62-2.06c.17,.29,.22,.48,.35,.54,.15,.08,.43,.65,.51-.01,.03-.23-.27-.48-.86-.53Zm23.32-35.63c.09-.04,.23-.06,.26-.12,.03-.07-.05-.18-.08-.27-.09,.04-.23,.06-.26,.12-.03,.07,.05,.18,.08,.27Zm-21.82,36.69s-.09,.07-.13,.1c.04,.04,.07,.1,.11,.1,.04,0,.08-.05,.12-.09-.03-.04-.07-.08-.1-.11Z"/>
  <path class="cls-4" d="M152.77,12.76c1.75-.67,3.56-1.1,5.4-1.45,.68,2.46,1.33,4.93,2.05,7.38,2.76,9.4,5.99,18.64,9.61,27.74,2.86,7.2,6.15,14.23,9.84,21.07,.54,1.01,1.88,2.07,1.48,2.98-.41,.94-1.92,1.4-2.9,2.14-.95,.72-1.4,.49-1.99-.52-3.92-6.71-7.08-13.76-10.08-20.91-3.82-9.1-7.01-18.41-10.03-27.79-1.14-3.54-1.85-7.22-3.39-10.64Z"/>
  <path class="cls-2" d="M206.18,65.92c-1.97,.41-3.39,1.92-5.31,2.51-1.24,.39-2.02,.18-2.39-.91-.37-1.1-1.59-1.94-1.1-3.31,3.08-1.17,5.94-2.78,8.66-4.56,.92-.6,2.32-.79,2.73-2.09h0c.41,.22,.79,.07,1.16-.11,4.72-2.29,9.1-5.17,13.72-7.64,.07-.04,.07-.21,.1-.31h0c2.11-.69,4.14-1.52,5.71-3.16h0c1.37,.26,2.01-.92,3-1.44,5.12-2.69,10.22-5.41,15.21-8.31,.7,1.85,1.41,3.7,2.11,5.55-2.84,1.64-5.66,3.29-8.51,4.91-3.68,2.09-7.52,3.87-11.12,6.12-4.27,2.66-8.93,4.7-13.26,7.31-3.42,2.05-7.12,3.65-10.7,5.44Z"/>
  <path class="cls-10" d="M152.77,12.76c1.53,3.42,2.25,7.1,3.39,10.64,3.02,9.38,6.2,18.69,10.03,27.79,3,7.14,6.17,14.19,10.08,20.91,.59,1.01,1.04,1.24,1.99,.52,.98-.74,2.49-1.2,2.9-2.14,.39-.91-.94-1.97-1.48-2.98-3.69-6.84-6.98-13.87-9.84-21.07-3.62-9.1-6.85-18.34-9.61-27.74-.72-2.45-1.37-4.92-2.05-7.38,1.03-.63,1.03,.22,1.21,.81,1.35,4.46,2.66,8.94,4.07,13.39,2.79,8.78,6,17.41,9.63,25.89,2.38,5.58,5.11,10.99,7.93,16.35,.46,.88,.72,2.01,1.92,2.34,.17,.14,.34,.28,.51,.42-2.86,1.83-5.93,3.39-8.22,5.97-.22,.24-.43,.49-.65,.73-.16-.17-.31-.33-.47-.5,.02-.05,.03-.13,.06-.16,2.38-1.87,1.42-3.62,.19-5.79-5.52-9.66-9.7-19.93-13.52-30.34-3.13-8.55-5.94-17.2-8.39-25.97-.14-.51-.91-1.35,.32-1.71Z"/>
  <path class="cls-5" d="M145.92,153.65c.69-1-.36-1.51-.68-2.21-.34-.74-.68-1.3,.63-1.25,1.66,.05,3.32,.05,4.94-.45,.86-.27,1.62,.18,2.39,.47,4.61,1.79,8.57,4.45,11.43,8.48,.6,.85,1.34,1.78,.44,3.01-1.43,1.95-1.37,1.94-3.31,.48-1.95-1.47-3.92-2.89-6.4-3.51-2.95-.74-5.65-2.05-7.97-4.04-.46-.21-.64-.09-.51,.42-.24,0-.36-.13-.38-.36,.43-.16,.48-.46,.25-.8-.18-.25-.37-.63-.78-.25h-.05Z"/>
  <path class="cls-13" d="M161.32,177.07c-1.03,.75-2.29,.72-3.41,.59-1.25-.14-1.97,.29-2.76,1.12-4.45,4.69-10.13,7.36-16.21,9.31-1.74,.56-3.32,1.51-5.15,1.85-2.14,.4-2.4,.1-2.69-2-.15-1.09-.58-2.26-.97-3.3-.67-1.8,.47-1.88,1.49-2.21,5.46-1.76,10.99-3.37,15.65-6.86,.93-.7,1.76-1.52,2.64-2.28,.62-.54,.26-1.19,.22-1.8-.16-2.33,.31-4.38,2.58-5.64,0,0,.12,.12,.12,.11,.04,.21,.09,.42,.13,.64-1.49,1.92-2.59,3.86-1.3,6.38,1.32,2.6,3.48,3.71,6.29,3.72,1.11,0,2.22-.31,3.33-.48,0,.28,.02,.56,.03,.85Zm-26.66,6.79c.35-.09,.77-.2,.91,.23,.19,.59-.36,.65-.73,.74-.69,.16-1.41,.23-2.1,.39-.53,.13-1.4,.09-1.24,.89,.14,.69,.89,.37,1.38,.28,.82-.15,1.62-.38,2.42-.6,.37-.1,.75-.14,.87,.3,.14,.48-.27,.56-.62,.65-.75,.19-1.48,.44-2.24,.57-.61,.1-1.16,.42-1.09,.94,.1,.77,.86,.42,1.29,.32,7.43-1.84,14.44-4.51,20.18-9.75,1.07-.98,1.47-1.59-.26-2.17-.48-.16-1.04-.52-1.26-.94-.97-1.9-1.74-1.22-3.07-.19-4.45,3.45-9.56,5.72-14.95,7.4-.51,.16-1.08,.13-1.56,.34-.46,.2-1.44-.06-1.25,.78,.15,.7,.9,.25,1.39,.18,.65-.09,1.28-.23,1.92-.35Z"/>
  <path class="cls-2" d="M174.57,77.21c.22-.24,.43-.49,.65-.73,.51,0,1.01,0,1.52,.01-.38,.58-.8,1.15-1.15,1.75-.37,.63-.24,1.25,.29,1.74,.71,.66,3.25,.54,4.17-.19-.76-.32-1.53-.05-2.28-.11-.51-.04-1.12,.16-1.41-.44-.27-.55,.05-1.04,.4-1.43,.62-.69,1.28-1.36,1.97-1.99,1.32-1.2,2.68-2.35,4.02-3.53h0c.82-.1,1.66-.18,1.79-1.25,.28-.26,.33-.59,.3-.94,.44-.57,1.1-.79,1.74-1.02,.28,.02,.56,.04,.85,.06-.28,.74,.19,.85,.66,.59,.68-.38,1.47-.62,1.97-1.28v.04c1.07,.91,1.54,2.15,1.93,3.43-1.75,.83-3.84,.97-5.27,2.48-1.14,.4-2.29,.74-3.41,1.2-1.67,.69-1.75,1.63-.3,2.71,.05,.03,.1,.06,.14,.1,.53,.44,1.49,.7,1.45,1.39-.04,.75-1.06,.8-1.67,.97-.89,.25-1.27,1.14-2.15,1.37-.35,.1,.21,.43,.16,.7-.19,.33-.48,.33-.8,.25-.2-.95-1.06-.59-1.61-.69-.85-.17-1.77-.02-2.64-.12-2.53-.31-3.22-1.77-1.91-4,.2-.35,.4-.7,.6-1.06Z"/>
  <path class="cls-4" d="M250.09,85.62c.76,1.33,1.2,2.77,1.45,4.26,.09,.55,.51,1.47-.36,1.62-.79,.14-2,.2-2.34-.8-1.58-4.65-5.11-7.26-9.51-8.98-.47-.18-.66-.53-.77-.87-.55-1.59-1.32-3.06-2.45-4.65,1.92,.28,3.43,.88,4.96,1.48,.54,.21,1.03,.89,1.75,.41,0,0,.04,.07,.04,.07,.44,1.11,1.54,1.44,2.47,1.93,.35,.18,.47-.16,.34-.5,.57-.21,.76,.16,.93,.57-.82,.55-.68,1,.53,1.7l.04-.09-.02,.1c-.09,.1-.09,.2,.02,.28,.98,1.16,1.95,2.31,2.93,3.47Z"/>
  <path class="cls-5" d="M276.58,100.51c1.47,2.02,3.07,3.97,4.15,6.24,.19,.4,.65,.84,.34,1.29-.34,.5-.87,.04-1.3,0-1.54-.16-2.51-.82-3.3-2.33-1.67-3.16-4.7-4.8-8.16-5.57-1.25-.28-1.95-.85-2.46-1.97-.57-1.26-1.36-2.41-2.14-3.76,1.72,0,3.12,.68,4.58,1.03,.22,.46,.53,.8,1.11,.76,.37,.28,.77,.46,1.24,.44,0,0,.03,0,.03,0,.08,.28,.32,.32,.57,.36h-.03c.97,.58,1.94,1.15,2.91,1.72,.56,.32,.78,1.26,1.71,.9,0,0-.01,0-.01,0-.38,.78,.35,.7,.72,.91h.03Z"/>
  <path class="cls-11" d="M206.18,65.92c3.58-1.8,7.28-3.39,10.7-5.44,4.34-2.6,8.99-4.64,13.26-7.31,3.61-2.25,7.45-4.03,11.12-6.12,2.85-1.62,5.67-3.27,8.51-4.91,1.44,.89-.06,1.08-.41,1.27-3.3,1.9-6.54,3.89-9.94,5.63-6.17,3.17-12.19,6.64-18.24,10.03-4.31,2.41-8.65,4.72-13.08,6.88-.79,.38-1.22,.84-1.07,1.71-.88-.3,.34-1.59-.86-1.74Z"/>
  <path class="cls-5" d="M141.55,125.54c.39-.11,.96-.56,.8,.38-.09,.54-.48,1.03-.34,1.63-.02,.15-.03,.3-.05,.45-.31,1.21-.17,2.42,.04,3.62-.02,.04-.07,.09-.07,.12,.02,.08,.07,.16,.11,.24,.39,1.26,.23,2.46-.27,3.69-.7,1.75-.07,3.41,.55,5.06,.25,.65,.87,1.12,.88,1.88-2.14,.28-4.13-.9-5.06-2.99-1.06-4.43-.52-8.63,1.95-12.54,.49-.5,.98-1,1.48-1.5,0,0-.01-.04-.01-.04Z"/>
  <path class="cls-5" d="M248.65,172.05c-1.36-1.53-3.04-2.81-3.79-4.8,.02-.03,.08-.08,.07-.1-.04-.07-.1-.12-.15-.19-.29-.71-.59-1.42-.88-2.12,.04-.11,.06-.23,.04-.34,.77-.38,1.04,.21,1.38,.69,2.5,3.49,6,4.89,10.25,4.72,.46-.02,1.01-.2,1.37,.16,1.52,1.53,3.5,2.32,5.36,3.31-1.09,.22-2.17,.43-3.26,.65-1.19,0-2.37,0-3.56,.01-2.2-.42-4.36-.95-6.4-1.91-.14-.02-.27-.04-.41-.06,0,0-.03,0-.03,0Z"/>
  <path class="cls-11" d="M204.18,57.87c7.54-3.78,14.75-8.14,22.15-12.15,3.8-2.06,7.73-3.95,11.41-6.23,2.6-1.61,5.23-3.13,7.95-4.51,.82-.41,.83-.39,1.35,.27-2.67,1.24-5.04,3.01-7.66,4.32-6.68,3.36-12.98,7.38-19.66,10.74-1.21,.61-2.5,1.14-3.6,1.91-3.43,2.41-7.25,4.11-10.95,6.02-.2-.12-.41-.24-.61-.36-.13,0-.27,0-.4,0Z"/>
  <path class="cls-2" d="M205.19,58.24c3.71-1.91,7.53-3.6,10.95-6.02,1.1-.77,2.38-1.3,3.6-1.91,6.68-3.35,12.97-7.38,19.66-10.74,2.61-1.31,4.99-3.08,7.66-4.32,.08,.19,.16,.38,.23,.57-3.54,1.93-6.92,4.12-10.5,6-2.53,1.33-5.48,2.11-7.33,4.54,0,0,0,0,0,0-1.72,.19-3.05,1.25-4.49,2.04-.47,.26-1.35,.19-1.22,1.12,0,0,0,0,0,0-.86-.42-1.47,.24-2.08,.58-3.05,1.69-6.08,3.43-9.09,5.19-1.28,.75-2.83,1.07-3.82,2.29,0,0,0,0,0,0-.72-.23-1.21,.29-1.74,.58-1.34,.75-2.64,1.58-3.95,2.38-.02-.19-.03-.38-.05-.57-.18-.66,.88-.75,.68-1.42,0,0,.02,.05,.02,.05,.54,.18,.86,.15,.55-.53-.05-.05-.1-.1-.15-.16,0,0,.05-.02,.05-.02,.13,0,.27,0,.4,0-.06,.14-.32,.2-.13,.43,.29,.35,.5,.05,.74-.07Z"/>
  <path class="cls-6" d="M186.47,102.22c.23-.17,.56-.28,.66-.51,.25-.53,1.3-.04,1.12-.64-.24-.79-.97,.13-1.47-.09-.08-.19-.17-.38-.25-.58,.82,.23,1.37-1,2.25-.41-.07,1.04,.22,1.14,1.24,.73,3.1-1.25,6.35-1.87,9.72-1.7,.52,.03,1.41-.3,1.44,.54,.04,.89-.71,1.13-1.58,1.27-3.72,.57-7.51,.68-11.18,1.58-.22,.02-.44,.04-.65,.06-.43-.08-.87-.17-1.3-.25Z"/>
  <path class="cls-13" d="M290.75,140.66c.29,0,.58,.01,.86,.02-1.46,3.81-3.39,7.29-7.15,9.38-.7,.39-1.02,.82-1.1,1.61-.26,2.72-1.4,5.12-2.94,7.35,0-.36,.02-.72-.43-.87,1.32-2.77,2.64-5.55,2.42-8.73,.67,.52,1.02,.43,.96-.48,.92,.51,1.41-.28,1.98-.68,2.25-1.6,3.26-4.14,4.81-6.27,.11-.05,.22-.09,.33-.14-.07-.06-.14-.12-.21-.18,.15-.34,.31-.68,.46-1.01Z"/>
  <path class="cls-13" d="M158.49,112.74c-.17,.49-.3,.97,.49,1-.55,.2-1.1,.4-1.65,.6-5.36,2.01-10.11,4.85-13.3,9.74-.27-.26-.53-.52-.8-.79,3.17-4.62,7.62-7.59,12.81-9.6,.81-.32,1.63-.64,2.44-.96Z"/>
  <path class="cls-13" d="M291.41,112.25c-.32-.14-.63-.32-1-.19-1.09-2.11-2.23-4.18-4.17-5.72-1.79-1.42-3.83-2.42-5.81-3.52,.23-.29,.47-.58,.7-.88,4.55,2.35,8.73,5.05,10.27,10.3Z"/>
  <path class="cls-13" d="M140.08,127.07c-2.47,3.91-3,8.1-1.95,12.54-.33,0-.6,.09-.73,.41-1.57-4.85-1.03-9.38,2.1-13.52,.19,.19,.39,.38,.58,.57Z"/>
  <path class="cls-12" d="M229.46,46.35c1.85-2.43,4.8-3.21,7.33-4.54,3.58-1.88,6.96-4.07,10.5-6,.25-.1,.49-.2,.74-.3,.11,.09,.23,.19,.34,.28,0,.47-.44,.55-.7,.79-4.99,2.91-10.09,5.62-15.21,8.31-.99,.52-1.63,1.7-3,1.44Z"/>
  <path class="cls-11" d="M174.57,77.21c-.2,.35-.4,.71-.6,1.06-1.3,2.23-.62,3.69,1.91,4,.87,.11,1.79-.04,2.64,.12,.54,.11,1.41-.26,1.61,.69-1.52,.24-3.06,.34-4.59,.14-2.97-.4-3.89-2.11-2.67-4.85,.29-.64,.63-1.24,1.23-1.66,.16,.17,.31,.33,.47,.5Z"/>
  <path class="cls-13" d="M278.77,162.73c.29,.12,.58,.24,.87,.36,.01,.22,.03,.45,.04,.67-.74,1.64-1.06,3.43-2.05,4.97-1.33,1.95-3.2,3.18-5.4,3.98,0-.31,0-.62-.01-.93,3.93-1.8,5.96-4.92,6.55-9.05Z"/>
  <path class="cls-11" d="M172.78,105.14c-.81,1.11-1.2-.48-1.87-.28,2.78-2.1,5.75-3.78,9.32-4.17-.22,.43-1.09,.29-.93,1.05-1.7,.76-3.41,1.48-5.08,2.3-.53,.26-1.3,.31-1.44,1.1Z"/>
  <path class="cls-13" d="M292.58,115.4c0-.37,.02-.74,.03-1.11,3.52,2.5,4.66,6.26,3.24,10.78-.16-.54,.15-1.21-.47-1.62,.35-3.12-.56-5.81-2.8-8.06Z"/>
  <path class="cls-13" d="M295.22,128.03c1.08-.33-.05-1.04,.26-1.5,1.53,2.86,2.2,5.77,.44,8.79-.19-.22-.37-.43-.56-.65,.8-2.23,.5-4.44-.14-6.64Z"/>
  <path class="cls-13" d="M249.09,172.12c2.03,.95,4.2,1.49,6.4,1.91-.06,.44,.02,.84,.32,1.18-2.78,.03-5.11-1.19-7.37-2.59,.22-.17,.43-.33,.65-.5Z"/>
  <path class="cls-11" d="M186.57,69.08c-.65,.23-1.3,.46-1.74,1.02-.46,.14-.93,.28-1.39,.41-.17-.14-.34-.28-.51-.42,1.94-1.16,3.87-2.33,5.81-3.49,.03,.33,.07,.67,.1,1-.76,.49-1.51,.98-2.27,1.47Z"/>
  <path class="cls-13" d="M250.09,85.62c-.98-1.16-1.95-2.31-2.93-3.47,.09-.07,.19-.13,.28-.2-.1-.03-.2-.06-.3-.09l.02-.1s-.04,.09-.04,.09c.07-.32,.15-.63,.22-.95,1.29,1.53,2.86,2.84,3.69,4.71-.32,0-.63,0-.95,0Z"/>
  <path class="cls-13" d="M259.05,174.02c1.09-.22,2.17-.43,3.26-.65,.04,.55,.47,.6,.88,.68-1.17,1.13-2.68,1.06-4.14,1.15,0-.39,0-.79,0-1.18Z"/>
  <path class="cls-10" d="M272.22,171.78c0,.31,0,.62,.01,.93-1,.54-2.07,.88-3.23,.83-.27-.32-.5-.24-.69,.08-.95,.23-1.9,.15-2.85,0,0-.26,0-.51,0-.77,2.32,.05,4.59-.19,6.76-1.07Z"/>
  <path class="cls-10" d="M259.05,174.02c0,.39,0,.79,0,1.18-1.08,.16-2.15,.26-3.23,0-.31-.34-.39-.74-.32-1.18,1.19,0,2.37,0,3.56-.01Z"/>
  <path class="cls-7" d="M277.64,168.74c.99-1.54,1.31-3.33,2.05-4.97,.14,.16,.28,.33,.42,.49,.22,.49,.27,.88-.17,1.38-.76,.86-.59,2.23-1.52,3.04-.26,.02-.51,.04-.77,.06Z"/>
  <path class="cls-11" d="M210.56,158.84c.24-.4,.9-.17,1.06-.69,.95-.04,1.9-.09,2.85-.13,.11,.27,.22,.55,.34,.82-1.42,.22-2.83,.34-4.25,0Z"/>
  <path class="cls-13" d="M238.29,168.92c.02-.28,.05-.55,.07-.83,.6,.21,1.2,.43,1.79,.64,.21,.86,.61,.85,1.15,.26,.85,.01,1.7,.04,2.49,.38-.59,.26-1.43-.36-1.84,.51-1.33,.07-2.53-.33-3.67-.96Z"/>
  <path class="cls-11" d="M186.54,100.41c.08,.19,.17,.38,.25,.58-1.41-.62-2.98,.03-4.39-.55,1.38-.39,2.76-.1,4.14-.03Z"/>
  <path class="cls-10" d="M163.82,175.73c-.14,.12-.29,.24-.43,.35-.13,0-.21,.07-.27,.18-.29,.15-.59,.31-.88,.46-.19-.21-.37-.43-.56-.64,.24-.12,.47-.24,.71-.36,.11-.08,.23-.17,.34-.25,.67-.55,.9-1.49,1.74-1.88,0,0,.06,.05,.06,.05,0,.48,0,.96,0,1.44-.11,.1-.22,.19-.33,.29-.13,.12-.26,.24-.39,.35Z"/>
  <path class="cls-10" d="M274.13,98.71c-.97-.57-1.94-1.14-2.91-1.72,.29-.15,.59-.31,.88-.46,.17,.1,.33,.19,.5,.29,.19,.09,.38,.18,.57,.27,.68,.35,1.4,.63,1.88,1.26-.31,.12-.62,.24-.92,.36Z"/>
  <path class="cls-13" d="M254.2,88.93c1.09-.87-.43-.72-.47-1.15,1.11-.04,1.96,.48,2.68,1.25-.72,.11-1.41-.4-2.14-.11h-.07Z"/>
  <path class="cls-10" d="M245.67,79.6c.13,.33,0,.68-.34,.5-.93-.49-2.03-.82-2.47-1.93,.2-.43,.5-.34,.82-.14,.1,.41,.4,.54,.79,.55,.47,.27,.99,.47,1.2,1.02Z"/>
  <path class="cls-13" d="M168.47,172.62c0-.25,0-.5,0-.75,.43-.32,.91-.4,1.43-.33,0,.48,.3,.65,.73,.7-.67,.41-1.41,.41-2.16,.39Z"/>
  <path class="cls-13" d="M294.38,137.24c-.13-.27-.26-.54-.39-.81,.31-.36,.63-.71,.94-1.07l.93,.05c-.25,.8-.77,1.39-1.48,1.83Z"/>
  <path class="cls-10" d="M140.08,127.07c-.19-.19-.39-.38-.58-.57,.61-.46,.7-2.06,2.06-.93-.49,.5-.98,1-1.48,1.5Z"/>
  <path class="cls-13" d="M279.7,162.39c-.64-1.05-.04-1.91,.42-2.8-.14,.93-.28,1.87-.42,2.8Z"/>
  <path class="cls-13" d="M272.1,96.54c-.29,.15-.59,.31-.88,.46,0,0,.03,0,.03,0-.12-.23-.26-.41-.56-.36,0,0-.03,0-.03,0-.06-.41-.12-.81-.18-1.22,.82,0,.99,.89,1.63,1.12Z"/>
  <path class="cls-10" d="M170.62,172.23c-.43-.04-.73-.21-.73-.7,.59-.13,1.17-.26,1.76-.39,.13,.13,.27,.27,.4,.4-.02,.11-.03,.22-.03,.34-.47,.12-.93,.23-1.4,.35Z"/>
  <path class="cls-10" d="M247.34,80.91c-.07,.32-.14,.63-.22,.95-1.21-.69-1.35-1.14-.53-1.7,.25,.25,.5,.5,.75,.74Z"/>
  <path class="cls-13" d="M153.84,164.86c.5,.3,.3,.8,.36,1.22-.12,.05-.24,.1-.37,.15-.25-.4-.62-.34-1-.27l-.12-.12c.38-.33,.75-.66,1.13-1Z"/>
  <path class="cls-13" d="M292.22,138.94c.02-.76,.44-1.09,1.19-1.03-.4,.34-.8,.69-1.19,1.03Z"/>
  <path class="cls-13" d="M164.55,175.08c0-.48,0-.96,0-1.44,.29,.02,.59,.04,.88,.06-.29,.47-.39,1.05-.89,1.39Z"/>
  <path class="cls-13" d="M166.32,172.93c.5-.53,1.1-.33,1.69-.24-.51,.41-1.1,.33-1.69,.24Z"/>
  <path class="cls-13" d="M242.68,169.99c.52-.35,.99-.36,1.4,.16-.49,.13-.96,.1-1.4-.16Z"/>
  <path class="cls-11" d="M189.58,63.18c.39,.44,.39,.89,.03,1.35-.26-.44-.24-.89-.03-1.35Z"/>
  <path class="cls-13" d="M274.13,98.71c.31-.12,.62-.24,.92-.36,.4,.34,1.33,.36,.78,1.26-.93,.35-1.15-.58-1.71-.9Z"/>
  <path class="cls-13" d="M265.46,172.85c0,.26,0,.51,0,.77-.24,.01-.49,.03-.73,.04,.04-.32,.08-.63,.12-.95,.2,.05,.41,.09,.61,.14Z"/>
  <path class="cls-13" d="M142.38,123.72c.03,.59-.29,.84-.86,.83,.06-.5,.35-.78,.86-.83Z"/>
  <path class="cls-13" d="M276.55,100.51c-.37-.2-1.1-.13-.72-.91,.59-.77,.94-.03,1.18,.27,.32,.4-.1,.56-.46,.63Z"/>
  <path class="cls-13" d="M264.03,93.37c-.49,.54-.74,.06-1.03-.23,.34,.08,.69,.15,1.03,.23Z"/>
  <path class="cls-13" d="M266.56,94.01c-.42,.03-.85,.11-1.1-.36,.44-.09,.78,.12,1.1,.36Z"/>
  <path class="cls-10" d="M161.32,177.07c0-.28-.02-.56-.03-.85,.14-.05,.27-.09,.41-.14,.19,.21,.37,.43,.56,.64-.24,.29-.58,.35-.93,.35Z"/>
  <path class="cls-13" d="M268.32,173.63c.19-.33,.42-.41,.69-.08-.21,.18-.44,.22-.69,.08Z"/>
  <path class="cls-13" d="M144.88,152.57c.41,.18,.4,.52,.33,.88-.39-.19-.34-.54-.33-.88Z"/>
  <path class="cls-13" d="M172.02,171.88c0-.11,.01-.23,.03-.34,.28,.01,.55,.02,.83,.03-.21,.31-.49,.42-.86,.31Z"/>
  <path class="cls-10" d="M145.97,153.65c.41-.38,.61,0,.78,.25,.24,.33,.19,.64-.25,.8-.51-.19-1-.38-.54-1.05Z"/>
  <path class="cls-13" d="M244.46,78.58c-.39,0-.69-.14-.79-.55,.33,.08,.64,.21,.79,.55Z"/>
  <path class="cls-10" d="M295.87,135.41l-.93-.05c.14-.23,.28-.46,.42-.69,.19,.22,.37,.43,.56,.65,0,0-.04,.09-.04,.09Z"/>
  <path class="cls-11" d="M170.62,105.04c-.08,.42-.37,.55-.77,.53,.12-.37,.42-.48,.77-.53Z"/>
  <path class="cls-13" d="M146.89,155.06c-.14-.5,.04-.63,.51-.42,0,.37,0,.74,.01,1.11-.34-.11-.57-.3-.52-.7Z"/>
  <path class="cls-13" d="M270.47,95.41c-.31,.02-.57-.05-.73-.34,.32-.05,.55,.09,.73,.34Z"/>
  <path class="cls-13" d="M251.52,86.66c-.08-.19-.15-.37-.23-.56,.08,.19,.15,.37,.23,.56Z"/>
  <path class="cls-13" d="M268.78,94.68c-.15-.05-.29-.09-.44-.14,.15,.05,.29,.09,.44,.14Z"/>
  <path class="cls-13" d="M273.17,97.1c-.19-.09-.38-.18-.57-.27,.19,.09,.38,.18,.57,.27Z"/>
  <polygon class="cls-13" points="242.14 77.23 241.98 77.21 242.08 77.11 242.14 77.23"/>
  <path class="cls-11" d="M181.24,100.62c-.12,0-.24,.02-.37,.03,.12,0,.24-.02,.37-.03Z"/>
  <path class="cls-13" d="M291.64,140.56c.05-.2,.1-.39,.15-.59-.05,.2-.1,.39-.15,.59Z"/>
  <path class="cls-11" d="M189.15,66.37c-.14,.08-.28,.16-.42,.24,.14-.08,.28-.16,.42-.24Z"/>
  <path class="cls-10" d="M204.29,58.05c.31,.68-.01,.71-.55,.53-.02-.08-.05-.15-.05-.23,0-.03,.06-.06,.1-.1,.17-.07,.34-.14,.5-.21Z"/>
  <path class="cls-11" d="M202.78,58.57c-.15-.09-.3-.18-.45-.28,.15,.09,.3,.18,.45,.28Z"/>
  <path class="cls-11" d="M204.29,58.05c-.17,.07-.34,.14-.5,.21,.12-.12,.24-.24,.36-.36,.04,.06,.09,.11,.15,.16Z"/>
  <path class="cls-11" d="M169.52,105.77c-.03,.12-.11,.18-.23,.18,.08-.06,.15-.12,.23-.18Z"/>
  <path class="cls-13" d="M177.4,169.59c.1-.06,.19-.13,.29-.19-.1,.06-.19,.13-.29,.19Z"/>
  <path class="cls-11" d="M167.74,106.8c-.12,.06-.24,.12-.37,.19,.12-.06,.24-.12,.37-.19Z"/>
  <path class="cls-13" d="M176.68,169.95c.12-.06,.25-.11,.37-.17-.12,.06-.25,.11-.37,.17Z"/>
  <path class="cls-13" d="M175.96,170.38c.14-.08,.27-.16,.41-.24-.14,.08-.27,.16-.41,.24Z"/>
  <path class="cls-13" d="M175.25,170.71c.13-.07,.26-.15,.39-.22-.13,.07-.26,.15-.39,.22Z"/>
  <path class="cls-10" d="M249.09,172.12c-.22,.17-.43,.33-.65,.5-.1-.26-.02-.45,.24-.57,.14,.02,.27,.04,.41,.06Z"/>
  <path class="cls-13" d="M163.82,175.73c.13-.12,.26-.23,.39-.35-.13,.12-.26,.23-.39,.35Z"/>
  <path class="cls-13" d="M163.13,176.26c.05-.11,.14-.17,.27-.18-.09,.06-.18,.12-.27,.18Z"/>
  <path class="cls-13" d="M295.45,125.98c.05-.12,.1-.25,.14-.37-.05,.12-.1,.25-.14,.37Z"/>
  <path class="cls-8" d="M248.36,35.8c-.11-.09-.23-.19-.34-.28,.26-.08,.35,.04,.34,.28Z"/>
  <path class="cls-5" d="M144.03,124.09c3.19-4.88,7.93-7.72,13.3-9.74,.55-.21,1.1-.4,1.65-.6,2.78-.52,5.51-1.31,8.4-1.14,1.67,.1,3.12,.63,4.4,1.63,1.18,.92,1.45,2.65,.72,3.95-.3,.53-.6,.84-1.25,.58-3.28-1.28-6.39-.55-9.44,.79-1.67,.73-3.37,1.44-4.96,2.32-1.37,.76-2.59,1.73-3.77,2.8-2.1,1.9-3.87,4.25-6.75,5.24-1.29,.44-2.02,1.68-3.05,2.87-.93-3.22-.22-5.97,.74-8.71Z"/>
  <path class="cls-5" d="M161.39,111.9c4.17-3.92,9.3-5.6,14.83-6.19,4.44-.47,8.89-.36,13.22,.96,2.91,.89,4.35,2.39,4.46,4.57,.05,.99-.36,1.66-1.16,2.2-.83,.57-1.43,.09-2.07-.35-3.09-2.12-6.54-1.79-9.95-1.3-2.81,.4-5.68,.31-8.45,1.06-.21,.06-.5,.01-.69-.09-3.18-1.75-6.5-1.41-9.85-.66-.07,.02-.18-.1-.34-.2Z"/>
  <path class="cls-4" d="M217.58,101.82c0,.92-.18,1.73-1.01,2.31-.94,.65-2.09,.38-2.3-.37-1.03-3.66-4.65-4.61-7.04-6.82-2.31-2.14-4.97-3.92-6.7-6.63-1.03-1.61-1.53-3.38-1.79-5.24-.12-.88,.05-1.2,1.2-1.26,4.24-.21,6.88,2.42,9.75,4.81,2.06,1.72,3.89,3.61,5.18,5.93,1.27,2.28,2.63,4.56,2.7,7.28Z"/>
  <path class="cls-5" d="M255.49,102.09c1.54,2.2,3.38,3.52,5.5,4.43,.76,.33,.94,.76,.93,1.45-.04,3.55,0,7.09-.66,10.62-.44,2.32-1.72,4.16-3,6.04-.19,.27-.54,.44-.83,.65-.99,.71-2.23,1.06-3.14,.35-.91-.72-1.19-2.24-.7-3.18,1.16-2.23,.9-4.53,.93-6.83,.05-4.12-.6-8.27,.63-12.33,.08-.27,.16-.54,.35-1.19Z"/>
  <path class="cls-5" d="M186.81,105.17l-.12-.09s-.15,.02-.15,.02c-.29-.25-.43-.53-.21-.9,.12,.01,.23-.02,.33-.1,.12-.02,.23-.04,.35-.06,1.31-.3,2.62-.61,3.93-.91,.88-.11,1.86,.15,2.55-.67,4.19-.5,8.45-1.47,12.57-.13,2.62,.85,5.38,1.73,7.49,3.72,.22,.21,.45,.85,.92,.22,0,0,0,.02,0,.02-.62,.62,.21,.97,.29,1.45,.1,.37,.19,.74,.29,1.11-.02,.29-.03,.58-.05,.87-.05,.93,.04,2.09-.99,2.42-.83,.27-1.16-.85-1.58-1.39-1.43-1.84-3.48-2.32-5.57-2.6-3.88-.53-7.79-.63-11.71-.36-.93,.06-1.69-.08-2.45-.69-1.4-1.14-3.13-1.58-4.88-1.92-.34-.18-.68-.2-1.02-.03Z"/>
  <path class="cls-5" d="M237.34,115.97c-2.14-.85-2.13-.84-1.3-2.91,.2-.49,.45-1.01,.44-1.5-.11-4.77,1.81-9.37,1.23-14.18-.22-1.8,.05-3.58,.51-5.35,.65-.1,.72,.5,1.01,.8,1.54,1.58,2.8,3.45,4.91,4.4,.7,.32,.9,.84,.87,1.55-.19,4.21-.9,8.31-2.63,12.19-.87,1.96-2.35,3.48-4.02,4.82-.34,.06-.68,.12-1.02,.19Z"/>
  <path class="cls-4" d="M200.06,76.1c-1.92-.07-4.17-.84-5.82-3.12-2.51-3.47-4.53-7.06-3.35-11.48,1.21-4.54,6.36-6.2,9.97-3.36,.95,.74,.82,1.3-.07,1.88-.84,.55-1.69,.98-2.78,1.03-1.63,.08-2.53,1.32-2.16,2.91,.55,2.31,1.75,4.3,3.23,6.15,1.02,1.28,2.21,2.44,2.99,3.9,1.13,2.11,1.13,2.13-2.02,2.09Z"/>
  <path class="cls-5" d="M196.65,149.19c.05,.94-1.5,2.66-2.46,2.76-.49,.06-.61-.24-.71-.59-.9-2.98-3.49-4.62-5.6-6.57-1.98-1.82-4.36-3.19-6.2-5.24-.84-.94-.97-2.15-1.71-3.09-.13-.16,0-.78,.05-.79,1.45-.21,2.34-1.54,3.75-1.8,1.21-.23,2.18,.25,3.07,1.03,4.04,3.55,7.77,7.31,9.49,12.57,.19,.57,.24,1.13,.32,1.71Z"/>
  <path class="cls-5" d="M168.06,140.11c.44,.17,.83,.31,1.2,.47,5.25,2.19,8.89,6.19,12.16,10.58,.96,1.29,.96,2.36-.53,3.53-1.47,1.16-2.46,.79-3.49-.3-2.75-2.92-6.59-4.24-9.75-6.55-.52-.38-1.11-.73-1.5-1.22-.72-.91-1.49-1.84-1.91-2.89-.76-1.88,1.47-1.21,2.07-2.04,.43-.59,.89-1.39,1.74-1.58Z"/>
  <path class="cls-4" d="M231.13,88.38c-.34,3.23-.01,6.53-.92,9.7-.65,2.26-1.93,4.23-3.25,6.14-.7,1.03-1.77,1.84-3.18,1.06-.92-.51-1.79-.99-.41-2.15,1.33-1.13,1.52-2.88,1.45-4.51-.11-2.32-.4-4.64-.64-6.95-.27-2.66,.15-5.24,1.12-7.7,.56-1.43,2.06-1.48,2.97-.2,.64,.91,1.26,1.83,2.13,2.56,.65,.55,.82,1.25,.75,2.05Z"/>
  <path class="cls-5" d="M277.33,120.36c-.12,4.22-.31,7.77-1.39,11.2-.64,2.04-1.85,3.63-3.78,4.64-.85,.45-1.39,.66-1.45-.82-.07-1.64,1.07-2.79,1.17-4.33,.2-3.12-.26-6.15-.79-9.2-.5-2.88-.58-5.8,.22-8.67,.32-1.16,.82-1.85,1.94-.61,.16,.17,.32,.38,.53,.47,3.86,1.52,4.13,4.57,3.56,7.33Z"/>
  <path class="cls-5" d="M224.02,109.93c1.52,.56,3.06,1.05,4.54,1.69,3.33,1.44,4.8,4.05,4.26,7.43-.11,.68-.19,1.48-.96,1.74-.72,.25-.91-.59-1.38-.88-4.62-2.89-9.4-4.99-15-2.73-.51,.2-1.14-.47-1.06-1.2,.28-2.46,1.56-4.19,3.87-5.25,1.63-.75,3.31-1.05,5.09-.91,.21,.04,.42,.08,.63,.13Z"/>
  <path class="cls-6" d="M195.05,115.92c-.24-3.48,2.25-6.86,6.56-7,3.31-.11,6.58-.05,9.39,2.1,1.24,.95,2.07,2.05,2.11,3.64,.05,1.99-.91,2.73-2.74,1.92-4-1.77-7.99-.98-11.99-.1-.55,.12-1.05,.4-1.43,.93-.31,.43-.83,.97-1.5,.69-.71-.3-.29-1.03-.41-1.56-.04-.17,0-.35,0-.62Z"/>
  <path class="cls-5" d="M240.46,146.18c.11,2.52-.58,4.83-1.82,7-.43,.76-.87,1.22-1.64,.15-3.52-4.92-4.22-10.56-4.47-16.34-.05-1.17,.26-1.77,1.58-1.52,.84,.16,1.68-.05,2.39-.46,1.49-.86,2.06,.06,2.43,1.2,1.07,3.24,1.39,6.6,1.52,9.97Z"/>
  <path class="cls-4" d="M202.87,83.02c-1.08-.16-2.81-.12-4.47-.67-2.15-.72-4.07-3.56-3.82-5.69,.09-.71,.29-1.19,1.1-.75,3.41,1.87,6.98,1.32,10.55,.71,2.86-.49,5.7-1.11,8.63-.91,.7,.05,1.4,.21,2.07,.42,.57,.17,.85,.61,.15,.94-3.24,1.51-5.83,4.13-9.26,5.31-1.4,.48-2.84,.78-4.96,.65Z"/>
  <path class="cls-5" d="M224.49,145.28c.09,.76-.32,2.06-.62,3.36-.3,1.27-1.01,1.37-1.95,.44-1.17-1.16-1.53-2.71-2.2-4.12-1.22-2.58-2.57-5.1-3.59-7.77-.33-.87-.73-1.73-.96-2.62-.8-3.1,.05-4.33,3.26-4.7,.94-.11,1.84,.35,2.24,1.16,2.14,4.31,3.57,8.82,3.81,14.26Z"/>
  <path class="cls-5" d="M197.73,130.5c.12-.02,.24-.02,.35-.05,.78-.24,1.23-1.32,2.11-1.08,1.14,.32,2.08,1.11,2.94,1.91,4.56,4.23,5.73,9.84,6.48,15.6,.08,.62,.44,1.56-.5,1.78-.74,.18-1.27-.46-1.61-1.13-.9-1.77-1.96-3.44-3.5-4.76-.19-.17-.37-.34-.56-.51-.27-.34-.41-.84-1.01-.74,0,0-.05,0-.05,0,.17-.37-.02-.5-.36-.53h0c-.09-.67-.61-1.01-1.07-1.39-1.21-2.2-2.89-4.16-3.47-6.69-.17-.75-.3-1.46-.12-2.21,.13-.07,.26-.14,.4-.2Z"/>
  <path class="cls-5" d="M184.29,112.46c3.22,.13,6.02,.7,7.65,3.57,.38,.66,.96,1.45,.31,2.18-.61,.69-1.4,.4-2.27,.18-2.76-.68-5.38,.29-7.97,1.1-1.85,.58-3.68,1.19-5.15,2.62-.74,.72-1.54,.57-1.87-.73-1.21-4.77,.77-7.61,6.14-8.58,1.11-.2,2.24-.24,3.16-.34Z"/>
  <path class="cls-5" d="M250.83,154.26c-.16-4.14,.39-7.29,1.08-10.43,.1-.44,.09-1,.71-1.07,.56-.07,.57,.47,.8,.78,1.07,1.44,2.02,3.01,3.95,3.51,.7,.18,.64,.75,.7,1.26,.47,4.13,.12,8.09-2.17,11.77-.73,1.17-1.74,1.05-2.72,1.2-.96,.16-.91-.82-1.31-1.34-1.54-2.04-.92-4.37-1.04-5.68Z"/>
  <path class="cls-5" d="M156.65,127.21c.16-1.54,.63-3.34,2.21-4.59,3.01-2.38,6.38-3.75,10.34-3.36,1.83,.18,3,1.25,3.84,2.76,.66,1.2,.12,1.66-1.08,1.89-4.63,.86-8.8,2.71-12.35,5.81-.62,.54-1.4,1.09-2.04,.71-.99-.59-.85-1.81-.93-3.21Z"/>
  <path class="cls-4" d="M198.57,92.36c-3.74-.45-7.03-1.56-9.73-4.24-1.63-1.61-3.39-3.1-4.98-4.75-.64-.66-1.09-1.24,.22-1.54,.54-.13,.66-.64,1.08-.85,1.41-.7,.97-1.49,.08-2.28-.31-.27-.64-.52-.98-.76-.38-.27-.95-.45-.91-.97,.03-.43,.56-.56,.94-.72,.63-.26,.94,.11,1.32,.55,1.73,2.06,3.42,4.16,5.29,6.09,1.7,1.75,3.81,2.96,6.21,3.61,.4,.11,.79,.14,.94,.65,.44,1.51,1.2,2.89,1.86,4.32,.65,1.39-.94,.47-1.33,.89Z"/>
  <path class="cls-5" d="M268.47,156.9c.59,.59,.93-.07,1.34-.28,1.35-.7,2.67-1.46,4.4-1.58-1.17,4.8-2.93,9.18-6.01,12.93-1.83,2.23-5.49,2.96-7.76,1.81-.86-.44-1.28-.71-.29-1.69,2.77-2.72,5.02-5.84,6.89-9.23,.03-.05-.09-.18-.15-.28,0,0,0-.03,0-.03,.2,.09,.41,.14,.55-.09,.18-.27,.09-.48-.19-.62l-.02,.02c.15,.28,.35,.38,.64,.2,.23-.15,.18-.35,.08-.55l.02-.02c.14,0,.32,.06,.41,0,.23-.17,.07-.34-.06-.5l.14-.08Z"/>
  <path class="cls-5" d="M242.65,117.49c2.36,.53,4.7,1.16,6.76,2.46,2.96,1.86,4,4.85,2.79,7.85-.5,1.24-1.09,1.34-2.06,.4-3.58-3.49-7.83-5.54-12.93-5.8-1.13-.06-1.76-.57-1.11-1.86,.25-.51,1.37-1.14,.14-1.82,0,0-.02,.02-.02,.02,.24,.83,.72,.57,1.15,.21,.91-.77,2-1.15,3.13-1.46,.72,0,1.43,0,2.15,0Z"/>
  <path class="cls-4" d="M221.27,99.69c.17,1.26-.52,2.25-1.06,3.28-.22,.42-.63,.51-1.07,.46-.48-.06-.47-.43-.47-.79-.03-5.25-2.86-9.25-6.19-12.95-1.08-1.2-1.91-2.29-1.64-3.98,.09-.54-.11-1.15-.27-1.71-.16-.56-.57-1.19,.12-1.55,.67-.35,1.26-.88,2.28-.49,2.42,.94,4.13,2.21,4.79,4.95,.91,3.78,2.5,7.39,3.31,11.21,.11,.51,.13,1.04,.2,1.56Z"/>
  <path class="cls-5" d="M240.81,156.26c2.81-.09,5.27,.13,7.45,1.53,.44,.28,.89,.58,1.29,.92,.85,.74,1.76,1.74,1.56,2.74-.12,.62-1.59,.68-2.5,.88-2.94,.63-5.85,1.35-8.93,.83-3.18-.54-5.07-2.5-6.47-5.14-.38-.72-.17-1.14,.65-1.15,2.43-.02,4.79-.85,6.95-.6Z"/>
  <path class="cls-5" d="M295.35,134.67c-.14,.23-.28,.46-.42,.69-.31,.36-.63,.71-.94,1.07-1.7,1.13-1.62,1.11-2.2-.78-1.02-3.29-2.85-6.23-4.46-9.25-1.11-2.09-1.61-4.35-2.26-6.57-.08-.25-.12-.65,.02-.81,.3-.34,.62,.02,.92,.14,3.6,1.46,6.61,3.57,8.28,7.18,.27,.58,.61,1.13,.91,1.69,.64,2.2,.94,4.41,.14,6.64Z"/>
  <path class="cls-4" d="M234.25,80.34c-1.11,.1-1.92,.22-2.74,.23-2.75,.05-5.09,1.64-7.79,1.94-2.86,.32-5.66,.43-8.4-.61-.69-.26-1.4-.63-1.52-1.28-.12-.62,.72-.84,1.2-1.12,3.53-2.07,7.09-4.05,11.43-3.7,3.21,.26,5.95,1.34,7.83,4.54Z"/>
  <path class="cls-5" d="M255.03,99.52c5.73,.35,11.2,.4,16.17,2.83,1.71,.84,3.44,2.02,4.42,3.86,.3,.57,.7,1.18-.43,1.07-4.05-.39-8.14,.18-12.16-1.07-3.56-1.11-5.83-3.47-7.99-6.69Z"/>
  <path class="cls-5" d="M240.63,115.35c3.05-3.45,4.24-7.36,4.95-11.47,.13-.78,.75-1.28,1.35-1.72,.97-.7,1.85-1.47,2.5-2.45,.37-.56,.82-.71,1.48-.69,3.16,.12,3.59,.55,2.66,3.53-1.56,5.04-4.36,9.23-9.1,11.95-1.08,.62-2.22,1.08-3.84,.84Z"/>
  <path class="cls-4" d="M247.56,90.89c-3.16-.51-6.24-.83-9.3-1.49-3.67-.79-6.35-2.86-8.64-5.59-.72-.86-.93-1.39,.57-1.64,6.16-1.03,11.36,.61,15.59,5.16,.59,.64,1.42,2.31,1.79,3.56Z"/>
  <path class="cls-5" d="M281.38,117.07c3.31,1.3,3.29,3.93,2.47,6.9-.93,3.36-1.94,6.69-3.75,9.71-1.27,2.12-3.31,3.28-5.66,3.96-.64,.18-1.27,.27-2-.31,4.39-2.34,5.2-6.52,5.56-10.72,.3-3.49,.29-6.95,3.38-9.54Z"/>
  <path class="cls-5" d="M273.33,153.29c-1.65,.56-3.31,.75-4.96,0-.1-.38-.24-.74-.69-.84-.68-1.47,.65-3.96,2.29-4.1,1.9-.16,3.01-1.21,4.08-2.66,1.73-2.35,3.66-4.57,5.85-6.73,.76,1.08,1.31,2.23,2.6,2.74,.73,.29,.07,.79-.13,1.13-2.26,3.7-4.64,7.3-8.34,9.82-.54-.09-.51,.4-.71,.67Z"/>
  <path class="cls-5" d="M270.75,108.2c5.43-.02,10.45,.51,14.86,3.55,2.32,1.6,3.69,3.72,3.81,6.55,.03,.71-.12,1.29-.95,.82-3.56-2.03-7.54-3.16-11.16-5.02-2.58-1.33-4.68-3.24-6.55-5.9Z"/>
  <path class="cls-5" d="M178.37,156.37c-2.97,4.19-6.18,8.11-10.28,11.18-1.44,1.07-3.17,1.56-5.02,1.49-.92-.03-1.25-.22-.78-1.26,1.19-2.66,3.19-4.74,4.89-7.04,1.74-2.35,4-3.84,6.82-4.7,1.6-.49,2.99-.2,4.37,.33Z"/>
  <path class="cls-5" d="M213.03,134.02c1.38,3.49,1.43,7.03,.44,10.61-.14,.5-.33,1.07-.22,1.54,.41,1.74-1.1,1.42-1.85,1.57-1.09,.21-.6-.85-.7-1.34-.93-4.47-1.43-9.06-4.26-12.95-.97-1.33-.17-3.06-.63-4.57-.11-.37,.51-.74,.9-.45,1.64,1.23,4.18,1.08,5.18,3.27,0,0,.06,.03,.06,.03-.07,.96,.73,1.51,1.07,2.28Z"/>
  <path class="cls-5" d="M269.69,134.53c0,.58,0,1.15-.26,1.71-.75,1.65-1.39,1.78-2.54,.45-1.3-1.51-3.05-2.41-4.81-3.24-2.29-1.08-4.19-3-6.98-3.04-.82-.01-1.29-.56-.43-1.39,2.07-2.01,4.36-3.11,7.37-2.25,3.33,.95,6.16,2.36,7.32,5.9,.21,.63,.27,1.24,.33,1.87Z"/>
  <path class="cls-5" d="M239.29,90.96c9.82,.09,19.04,3.4,21.75,7.91-5.38-.64-10.82-.03-15.75-2.35-2.43-1.14-4.46-2.98-6-5.57Z"/>
  <path class="cls-5" d="M238.54,155.17c2.95-3.81,3.44-7.93,2.75-12.24-.32-1.97,1.26-3.26,1.52-5.15,.79,1.66,2.16,2.35,3.74,2.78,.44,.12,.4,.51,.47,.85,.97,4.6-.21,8.75-2.76,12.6-.59,.89-1.39,1.33-2.55,1.19-.96-.12-1.95-.02-3.16-.02Z"/>
  <path class="cls-5" d="M199.12,140.32c.08,.25,.17,.49,.25,.74-.02,.04-.06,.09-.04,.12,.04,.07,.1,.13,.15,.19h0c.19,1.41,.39,2.81,.58,4.22-.14,.92-.26,1.84-.42,2.76-.14,.77-.84,1.07-1.44,1.11-.63,.04-.45-.68-.54-1.11-.65-3.17-2.18-5.91-4.34-8.3-1.05-1.17-1.95-2.45-3.08-3.58-1.15-1.15-.59-2.99-1.59-4.68,2.56,.94,5.1-.07,7.11,1.59,0,0,.06,.05,.06,.05-.35,.24-.18,.48,0,.72,1.39,1.76,2.36,3.75,3.15,5.82,.05,.11,.1,.22,.14,.33Z"/>
  <path class="cls-5" d="M142.53,136.77c.1-.35,.15-1.1,.51-1.66,1.71-2.62,3.65-4.97,7.08-5.49,1.77-.27,3.87,.58,4.59,1.95,.2,.38,.6,.76,.2,1.27-.36,.46-.72,.38-1.23,.2-1.17-.42-1.92,.36-2.54,1.14-1.06,1.34-1.63,2.94-2.19,4.53-.57,1.63-1.44,3.07-3.23,3.7-.51,.18-.98,.34-1.38-.27-1-1.54-1.77-3.16-1.81-5.37Z"/>
  <path class="cls-5" d="M263.37,162.53c-1.2,2.14-2.89,3.78-4.63,5.29-2,1.74-7.21,1.44-9.38-.38-1.02-.86-2.26-1.48-3.01-2.64-.31-.47-.47-.79,.31-.95,4.5-.94,8.93-2.34,13.62-2.1,1.08,.05,2.07,.3,3.09,.79Z"/>
  <path class="cls-5" d="M282.42,149.42c.22,3.19-1.1,5.96-2.42,8.73-1.17,1.03-1.51,2.6-2.53,3.73-1.56,1.73-3.3,3.1-5.99,3.32,1.49-2.7,2.5-5.34,3.27-8.08,.03-.09,.06-.18,.09-.27,.54-3.15,2.21-5.65,4.55-7.8,.9-.83,1.56-1.9,2.33-2.86,.16,.07,.31,.14,.47,.21,.08,1.01,.16,2.02,.24,3.03Z"/>
  <path class="cls-5" d="M222.55,119.52c-.68,3.88-2.61,9.13-6.35,10.18-1.09,.3-2.08,.31-3.1-.17-.88-.42-1.15-1.12-.61-1.85,1.52-2.06,1.81-4.51,2.39-6.86,.62-2.53,1.44-3.21,4.05-3.17,.65,.01,1.3,.05,1.95,.1,1.61,.12,1.7,.23,1.66,1.77Z"/>
  <path class="cls-5" d="M223.5,120.88c.03-2.83,.05-2.83,2.38-2.21,1.04,.28,2.03,.65,2.94,1.21,1.07,.66,1.66,1.59,1.7,2.88,.07,2.15,.12,4.32,.7,6.42,.31,1.1-.32,2.05-.55,3.04-.18,.79-2.54,.47-3.45-.48-1.61-1.68-2.8-3.61-3.16-5.92-.28-1.78-.41-3.59-.55-4.94Z"/>
  <path class="cls-5" d="M229.3,156.32c-3.16,.12-6.16-.3-8.69-2.4-.61-.5-1.27-1.12-1.11-1.84,.08-.37,1.04-.65,1.65-.79,3.21-.77,6.42-1.61,9.8-1.15,2.42,.32,5,2.36,5.74,4.64,.29,.91-.32,.8-.84,.87-1.12,.14-2.23,.31-3.35,.42-1.06,.11-2.13,.17-3.2,.25Z"/>
  <path class="cls-4" d="M228.21,108.38c-.98-.17-1.87-.4-2.22-1.33-.34-.9,.67-.94,1.06-1.37,2.83-3.13,4.58-6.72,4.88-10.93,.06-.83,2.64-4.49,3.4-4.77,.91-.33,1.9,.42,1.81,1.41-.4,4.55-1.59,8.89-3.79,12.91-1.11,2.02-2.66,3.72-5.13,4.08Z"/>
  <path class="cls-5" d="M165.97,150.8c1.11,1.79,1.74,3.78,2.53,5.71,.28,.69-1.22,2.86-1.94,2.89-.49,.02-.5-.42-.65-.7-1.58-2.99-4.26-4.93-6.94-6.81-.93-.65-1.58-1.26-1.88-2.36-.24-.88-.73-1.71-1.19-2.52-.22-.39-.42-.76-.15-1.12,.3-.4,.72-.24,1.09-.01,.69,.43,1.33,.3,1.98-.13,.74-.49,1.6-.53,2.46-.52,0,0,.04,0,.04,0-.03,.73,.05,1.37,1.06,1.22-.14,.25-.04,.41,.19,.53,.52,.45,.74,1.64,1.81,.69-.02,.59,.29,.85,.87,.85l-.06,.06c-.48-.07-.63,.14-.51,.58,.08,.42,.39,.67,.72,.9,0,0,.06,.07,.07,.07,.17,.22,.34,.44,.51,.67Z"/>
  <path class="cls-5" d="M178.43,138.1c.78,1.69,2.4,2.69,3.51,4.13,1.85,2.4,2.74,5.12,3.48,7.96,.35,1.35-.65,1.55-1.46,1.97-1.23,.63-1-.59-1.29-1.05-1.82-2.89-4.08-5.43-6.73-7.58-1.93-1.56-1.54-3.91-2.4-5.81-.23-.51,.56-.91,1.32-1.05,.99-.19,1.92,.57,2.87,0,0,0-.02-.04-.02-.04-.24-.09-.53-.03-.54,.19-.01,.58,.47,.81,.92,1.04,.11,.06,.22,.13,.33,.19v.06Z"/>
  <path class="cls-5" d="M188.14,119.28c1.54-.35,2.41,.46,3.02,1.76,.84,1.79,1.52,3.66,2.55,5.37,.68,1.12-.14,2.5,.44,3.74,.16,.33-.64,.61-1.08,.7-1.73,.34-3.28,.04-4.6-1.22-2.52-2.42-3.51-5.61-4.64-8.73-.26-.71,.18-.95,.77-1.07,1.16-.24,2.28-.68,3.53-.54Z"/>
  <path class="cls-5" d="M268.98,114.35c-.88,3.09-1.88,6.15-4.61,8.21-1.45,1.09-2.73,2.56-5.11,2.68,2.06-2.84,3.51-5.79,3.37-9-.15-3.22,2.16-5.1,3.35-7.57,.56-1.17,2.31-.66,3.02,.81,0,1.63,0,3.25-.01,4.88Z"/>
  <path class="cls-5" d="M167.63,135.36c-.18,2.14-.32,4.31-2.36,5.72-1.72,1.19-3.06,.71-3.5-1.31-.48-2.21-.79-4.45-1.4-6.64-.66-2.39,1.52-5.03,4.17-5.46,.48-.08,.67,.17,.82,.46,1.2,2.27,2.54,4.49,2.28,7.22Z"/>
  <path class="cls-5" d="M177.66,135.36c-3.31,.7-6.4,.46-8.49-2.53-1.12-1.61-1.92-3.44-2.88-5.16-.33-.6,.01-.87,.48-1.06,1.25-.51,2.49-1.07,3.86-1.25,1.17-.15,2.12,.18,2.76,1.16,1.02,1.56,2.12,3.06,3.29,4.53,.94,1.17,1.04,2.76,1.01,4.28,0,0-.03,.03-.03,.03Z"/>
  <path class="cls-5" d="M157.52,144.8c-3.07-.25-5.44-2.05-7.62-4.18-.22-.21-.28-.51-.17-.81,.63-1.69,1.09-3.46,2.18-4.94,.64-.88,1.35-1.25,2.3-.23,1.79,1.93,3.74,3.67,5.91,5.21,.82,.58,1.64,1.65,1.14,2.7-.66,1.37-1.93,2.18-3.73,2.26Z"/>
  <path class="cls-5" d="M266.85,140.01c-.47,1.52-.33,3.28-.32,5.03,0,.78,.11,1.58,.69,2.11,.76,.68,.91,1.24,.17,2.03-.71,.77-1.41,1.14-2.49,.68-1.61-.68-2.52-2.05-3.09-3.46-1.37-3.47-1.36-7.05-.18-10.62,.29-.87,.71-1.14,1.52-.62,1.79,1.14,3.77,2.13,3.7,4.87Z"/>
  <path class="cls-5" d="M229.88,138.97c-.02,3.08-.68,6.01-2.01,8.79-.15,.32-.31,.64-.53,.91-.53,.64-1.36,.56-1.99,.41-.75-.17-.27-.89-.18-1.33,.74-4.03-.05-7.91-1.25-11.71-.56-1.78,.32-3.42,.17-5.16-.06-.67,.86-.31,1.1,.16,.7,1.34,1.79,2.12,3.25,2.46,.71,.16,.92,.7,1,1.29,.17,1.39,.3,2.78,.44,4.17Z"/>
  <path class="cls-5" d="M139.1,142.73c3.56,1.59,6.62,1.77,9.28-.96,.51-.53,.89-.39,1.32,.07,1.13,1.23,2.48,2.17,3.99,2.88,.89,.42,.88,1.01,.45,1.7-.24,.39-.51,.79-.86,1.08-2.45,2.04-8.7,2.18-11.26,.28-1.61-1.19-2.18-2.94-2.92-5.06Z"/>
  <path class="cls-5" d="M203.02,119.22c-.71,3.06-1.05,6.62-3.93,9.15-.57,.5-1.2,.97-1.88,1.3-1.44,.69-2.5,.04-2.21-1.47,.5-2.58,.68-5.2,1.08-7.79,.15-.95,.81-1.64,1.65-2.17,.99-.63,2.17-.8,3.22-1.3,1.35-.64,2.08,.15,2.07,2.27Z"/>
  <path class="cls-5" d="M205.84,116.59c3.39,.11,4.33,.9,5.04,4.07,.2,.9,.56,1.77,.87,2.65,.48,1.34,.79,2.57-.17,3.95-1,1.45-1.97,1.8-3.5,.72-1.31-.92-2.08-2.24-2.52-3.71-.55-1.83-1.02-3.69-1.47-5.56-.45-1.89-.18-2.18,1.76-2.12Z"/>
  <path class="cls-5" d="M161.69,176.08c-.14,.05-.27,.09-.41,.14-1.11,.17-2.22,.48-3.33,.48-2.81,0-4.97-1.11-6.29-3.72-1.28-2.53-.19-4.47,1.3-6.38,.29-.12,.58-.25,.87-.37,.12-.05,.24-.1,.37-.15,.52-.02,.83,.02,.87,.72,.18,3.46,1.54,4.97,5.05,5.74,1.27,.28,2.54,.53,3.85,.47,.36-.02,.48,.26,.53,.57-.85,.39-1.08,1.33-1.74,1.88-.11,.08-.23,.17-.34,.25-.24,.12-.47,.24-.71,.36Z"/>
  <path class="cls-5" d="M180.05,161.06c-.59-.1-1.06-.16-1.52-.27-1.46-.36-1.65-.91-.67-1.99,2.03-2.23,4.5-3.93,6.95-5.68,2.19-1.56,4.41-1.68,6.83-.96,1.33,.4,1.47,.95,.32,1.88-3.01,2.44-6.19,4.64-9.61,6.49-.69,.38-1.6,.37-2.32,.52Z"/>
  <path class="cls-5" d="M183.41,126.31c.1,1.75,.04,3.49-.41,5.21-.23,.89-.64,1.64-1.31,2.23-1.41,1.24-2.98,.82-3.26-1-.45-2.88-.75-5.79-.98-8.69-.14-1.79,1.45-2.22,2.73-2.78,2.39-1.04,3.01-.69,3.21,1.89,.08,1.04,.01,2.1,.01,3.15Z"/>
  <path class="cls-5" d="M234.52,134.42c-1.1,.02-2.05-.24-2.52-1.15-.47-.91-.19-1.91,.54-2.57,1.88-1.69,3.07-3.84,4.2-6.01,.7-1.35,1.7-1.53,2.92-1.11,1.02,.35,1.98,.89,2.93,1.41,.71,.38,.52,1.14,.24,1.55-1.85,2.67-3.62,5.44-6.37,7.35-.57,.4-1.29,.58-1.94,.53Z"/>
  <path class="cls-5" d="M171.65,171.15c-.59,.13-1.17,.26-1.76,.39-.52-.07-1,.01-1.43,.33-2.25,.02-4.5,.21-6.74-.05-.48-.06-1.2-.03-1.01-.84,.13-.57,.39-1.19,1.17-1.06,4.24,.75,7.29-1.32,9.9-4.17,1.45-1.58,2.8-2.2,4.82-1.08,.84,.47,1.91,.6,2.9,.76,1,.17,.85,.46,.32,1.08-2.18,2.48-5.22,3.46-8.16,4.64Z"/>
  <path class="cls-5" d="M249.79,141.69c.25-.57-.37-.63-.59-.91-.85-1.09-.91-2.11,.2-3.05,1.48-1.27,2.76-2.72,3.98-4.22,1.46-1.79,2.06-1.93,4.28-1.08,3.35,1.28,3.43,1.69,.88,4.31-.73,.75-1.36,1.59-2.12,2.29-1.85,1.71-3.78,3.28-6.61,2.67h-.02Z"/>
  <path class="cls-5" d="M243.01,132.74c.13-2.03,.39-4.04,.87-6.02,.24-.96,.69-1.14,1.5-.71,.88,.47,1.77,.94,2.61,1.47,1.13,.7,1.5,1.72,1.22,3.01-.38,1.76-.72,3.55-.61,5.36,.08,1.33-.87,2.27-1.36,3.29-.45,.92-1.64,.07-2.31-.61-1.6-1.61-2.05-3.6-1.93-5.78Z"/>
  <path class="cls-5" d="M194.37,161.02c-3.98,2.79-8.1,4.29-12.81,3.68-1.81-.24-3.65-.45-5.34-1.23-.46-.21-1.48-.03-1.11-.92,.31-.73,.82-1.64,2.03-1.13,2.47,1.04,4.88,.69,7.16-.52,1.11-.59,2.13-1.38,3.14-2.14,.66-.5,1.18-.52,1.92-.12,1.55,.83,3.18,1.53,5,2.38Z"/>
  <path class="cls-1" d="M192.36,72.58c1.35,.79,1.62,1.92,1.41,3.42-.4,2.88,.63,5.28,3.17,6.86,1.05,.65,.9,1.58,.62,2.28-.34,.84-1.14,.14-1.65-.07-2.64-1.06-4.6-2.97-6.37-5.11-.78-.95-1.64-1.84-2.43-2.78-1.32-1.59-1.31-1.6,.61-2.45,1.55-.71,3.1-1.43,4.65-2.14Z"/>
  <path class="cls-5" d="M265.46,172.85c-.2-.05-.41-.09-.61-.14-.99-.39-2.22-.15-3.18-1.25,3.04,.07,5.7-.75,7.4-2.94,1.25-1.61,2.63-2.3,4.53-2.67,1.57-.3,2.83-1.37,3.97-2.51,.31-.31,.46-1.08,1.21-.62-.59,4.13-2.62,7.25-6.55,9.05-2.17,.88-4.44,1.12-6.76,1.07Z"/>
  <path class="cls-5" d="M286.74,127.87c1.09,1.48,1.81,2.99,2.52,4.51,.16,.35,.1,.68-.04,1.01-.92,2.15-2.19,4.11-3.62,5.95-.76,.98-1.93,1.75-3.26,.99-1.44-.83-1.39-2.33-.91-3.59,1.22-3.2,3-6.12,5.32-8.87Z"/>
  <path class="cls-5" d="M215.5,147.8c1.97-.21,3.77,.16,5.24,1.57,.37,.36,.78,.72-.05,.97-2.88,.87-5.42,2.51-8.23,3.5-1.7,.6-3.53,.6-5.19-.31-1.24-.68-1.26-1.3-.17-2.14,2.02-1.55,4.49-2.28,6.66-3.55,.43-.25,1.15-.04,1.73-.04Z"/>
  <path class="cls-5" d="M290.75,140.66c-.15,.34-.31,.68-.46,1.01-.04,.11-.08,.21-.12,.32-1.55,2.13-2.56,4.67-4.81,6.27-.57,.4-1.06,1.19-1.98,.68,.08-.94,.04-1.88-.24-2.77-.72-2.26,.36-3.83,2.07-5.06,2.35-1.69,3.29-4.31,4.8-6.73,1.12,1.57,.99,3.33,1.06,5.03-.05,.17-.1,.35-.15,.52-.06,.24-.11,.48-.17,.72Z"/>
  <path class="cls-5" d="M259.13,160.68c-.45,0-.87,0-1.28,0-.8,.02-.96-.36-.59-.98,1.31-2.15,1.8-4.5,2.05-6.97,.16-1.51,1.86-2.18,2.57-3.45,.04-.07,.2-.1,.31-.1,.5,0,2.82,2.46,2.81,2.97-.04,3.26-1.46,5.93-3.71,8.23-.63,.65-1.47,.12-2.16,.3Z"/>
  <path class="cls-5" d="M207.97,149.51c-3.71,2.37-6.66,5.43-10.89,6.43-1.39,.33-2.77,.54-4.12-.17-.49-.26-.78-.52-.19-1,2.98-2.46,5.96-4.87,9.9-5.79,1.74-.41,3.36-.42,5.31,.53Z"/>
  <path class="cls-5" d="M243.8,169.37c-.8-.34-1.65-.36-2.49-.38,0,0-.02,0-.02,0-.13-.04-.26-.07-.39-.11-.25-.05-.49-.1-.74-.15-.6-.21-1.2-.43-1.79-.64-3.92-2.3-6.44-5.7-8.05-9.83-.11-.29-.43-.67,.08-.88,.51-.21,1.07-.29,1.43,.25,.35,.54,.65,1.11,.95,1.68,1.82,3.47,4.87,4.94,8.68,5.03,1.01,.03,1.49,.31,1.75,1.26,.25,.95,.64,1.87,1.05,2.77,.26,.57,.21,.88-.45,.97Z"/>
  <path class="cls-5" d="M251,110.06c2.24,3,3.08,6.29,2.35,9.93-.09,.46-.1,1.04-.54,1.24-.6,.27-.7-.46-1.05-.72-.85-.63-1.63-1.39-2.56-1.85-1.2-.6-2.13-1.26-2.7-2.54-.36-.82-.55-1.18,.31-1.81,1.61-1.19,3.02-2.62,4.19-4.24Z"/>
  <path class="cls-4" d="M219.05,71.5c7.03-1.18,13.77,1.26,17.29,7.03,.15,.25,.33,.5,.4,.78,.12,.45,.77,1,.15,1.35-.54,.31-1.18-.05-1.5-.61-2.85-4.89-7.31-5.88-12.54-5.04-.36,.06-.82,.12-.95-.25-.48-1.44-1.88-2.13-2.85-3.26Z"/>
  <path class="cls-5" d="M280.44,102.83c1.98,1.1,4.02,2.1,5.81,3.52,1.94,1.53,3.07,3.6,4.17,5.72,.17,.65,.34,1.29,.51,1.94l.24,.71c0,1.51-.02,3.02-.02,4.53-.24,.01-.48,.02-.72,.04,.2-3.54-1.15-6.32-4.16-8.32-.96-.64-1.7-1.56-2.9-1.89-.57-.16-.88-.67-1.09-1.28-.51-1.47-1.07-2.91-2.27-4.04-.42-.4-.56-1.01,.44-.92Z"/>
  <path class="cls-5" d="M206.84,158.12c-5.74,2.29-11.03,2.57-16.3-.06-.33-.17-1.14-.21-.81-.84,.27-.52,.86-1.16,1.57-.81,3.56,1.78,6.77,.55,9.93-1.05,.61-.31,1.07-.34,1.58,.17,1.05,1.04,2.31,1.8,4.03,2.59Z"/>
  <path class="cls-4" d="M209.89,70.35c2.43,.39,5.02,.36,7.33,1.55,1.1,.57,2.22,1.12,2.79,2.3,.2,.42,1.09,.71,.5,1.26-.44,.4-1.19,.68-1.81,.32-2.81-1.65-5.79-1.33-8.78-.78-.84,.16-1.2,0-1.18-.92,.01-.62-.11-1.28-.31-1.88-.44-1.32-.48-2.26,1.46-1.86Z"/>
  <path class="cls-5" d="M254.27,88.93c2.53,1.38,5.12,2.66,7.19,4.74,1.59,1.6,2.66,3.49,3.7,5.48-1.9,.31-2.94-.62-3.89-1.92-1.53-2.09-3.69-3.38-6.12-4.26q-2.99-1.07-2.72-4.4c.64-.15,1.12,.58,1.76,.36,0,0,.07,0,.07,0Z"/>
  <path class="cls-5" d="M273.5,140.27c.18-.01,.36-.04,.53-.03,.81,.08,1.93-.17,2.31,.53,.37,.7-.7,1.19-1.14,1.77-.91,1.2-1.9,2.35-2.85,3.53-.81,1-1.81,1.38-3.12,1.1-1.35-.29-1.53-1.26-1.63-2.35-.34-3.73-.21-3.91,3.43-4.33,.82-.09,1.64-.17,2.47-.25,0,0,0,.02,0,.03Z"/>
  <path class="cls-5" d="M214.48,158.02c-.95,.04-1.9,.08-2.85,.13-2.8-.3-5.37-1.16-7.59-2.92-.33-.26-1.03-.55-.51-1.04,.48-.45,1.07-1.33,1.93-.63,2.92,2.38,6.03,1.98,9.17,.64,1.22-.52,1.89-.48,2.67,.78,1.57,2.55,1.67,2.49-1.42,2.82-.47,.05-.94,.14-1.4,.22Z"/>
  <path class="cls-5" d="M270.48,131.98c-.85-3-3.81-4.08-5.57-6.2-.88-1.06-.93-1.73,.26-2.51,.58-.38,1.05-.95,1.5-1.48,1.43-1.7,1.47-1.74,2.64,.06,2.03,3.15,1.57,6.61,1.17,10.13Z"/>
  <path class="cls-5" d="M217.93,152.61c2.44,3.09,5.51,4.75,9.36,4.64,1.77-.05,1.96,1.22,2.43,2.25,.37,.8,1.24,1.81,.7,2.47-.45,.55-1.67-.05-2.49-.29-4.33-1.31-7.57-4.05-10.12-7.66-.33-.47-.26-.83,.11-1.4Z"/>
  <path class="cls-4" d="M207.59,73.74c0,.81,.22,1.61-.74,1.67-.96,.06-2.19,.96-2.84-.32-.83-1.63-1.92-3.04-3.06-4.44-.56-.69-.45-1.08,.4-1.38,1.16-.41,2.32-.85,3.42-1.39,.87-.42,1.33-.2,1.59,.64,.21,.66,.48,1.32,.6,1.99,.2,1.14,.71,2.22,.63,3.22Z"/>
  <path class="cls-3" d="M235.44,109.78c.16,1.42-.06,2.7-.91,3.85-.55,.75-1.12,1.09-1.76,.1-.58-.9-1.44-1.52-2.25-2.2-1.25-1.05-1.12-2.06,.23-2.95,1.09-.72,2.05-1.58,2.79-2.66,.19-.27,.31-.73,.73-.66,.37,.06,.5,.46,.58,.8,.3,1.24,.82,2.45,.59,3.72Z"/>
  <path class="cls-5" d="M161.09,163.88c.27,0,1.21-.03,1.57,.67,.28,.55-.53,1.07-.81,1.62-.65,1.29-1.37,2.56-1.9,3.91-.43,1.08-.97,1.11-1.88,.61-1.64-.89-2.35-2.19-1.95-3.71,.47-1.79,2.43-3.15,4.97-3.1Z"/>
  <path class="cls-3" d="M205.67,99.72c-1.11,0-1.36,1.24-2.33,1.05-.34-.07-.8-.04-.99-.25-.26-.3,.07-.63,.31-.89,.64-.69,1.29-1.36,1.9-2.07,.52-.61,.99-.63,1.65-.13,.81,.62,.23,.93-.17,1.35-.14,.15-.19,.39-.28,.58,.17,.1,.33,.23,.35,.21,1.35-1.2,2.46-.63,3.58,.38,.91,.82,1.94,1.52,2.82,2.38,.39,.38,.69,1.07,.26,1.58-.45,.53-.87-.13-1.19-.33-1.71-1.03-3.46-1.95-5.48-2.22-1.23-.17-.58-.92-.44-1.64Z"/>
  <path class="cls-5" d="M260.48,145.86c.03,.57-.5,.69-.94,.53-1.95-.72-4.03-1.24-5.13-3.3-.34-.65-.36-.98,.3-1.39,.79-.5,1.53-1.09,2.22-1.72,.73-.67,1.38-.3,2.12-.08,.85,.25,.68,.87,.64,1.4-.11,1.55,.47,2.97,.79,4.57Z"/>
  <path class="cls-6" d="M172.78,105.14c.13-.79,.91-.84,1.44-1.1,1.67-.82,3.38-1.54,5.08-2.3,.49-.09,.98-.18,1.47-.27,.21,.13,.4,.12,.57-.07,1.14,0,2.28-.41,3.81-.03-2.26,1.39-3.89,3.32-6.59,3.15-1.97-.12-3.84,.47-5.78,.62Z"/>
  <path class="cls-6" d="M165.25,148.53c-.58,0-.89-.26-.87-.85-.42-.39-.8-.85-1.28-1.15-.38-.24-.66-.03-.53,.46-.23-.12-.33-.28-.19-.53,.69-.25,.37-.67,.07-.92-.29-.24-.55-1-1.13-.3,0,0-.04,0-.04,0,.18-.95,.31-1.92,1.55-2.64,.87,3.68,3.6,5.77,6.63,7.63,1.05,.65,.8,1.95,.45,2.69-.43,.89-1.26,.35-1.73-.35-.78-1.16-1.42-2.41-2.45-3.39-.15-.22-.31-.43-.46-.65Z"/>
  <path class="cls-6" d="M231.54,123.91c.31-.65-.53-1.98,.64-1.97,1.25,.01,2.73,.19,3.68,1.31,.12,.14-.01,.56-.12,.81-.68,1.61-1.58,3.1-2.63,4.51-.18,.24-.41,.54-.69,.41-.2-.09-.35-.45-.38-.71-.19-1.44-.33-2.88-.5-4.36Z"/>
  <path class="cls-5" d="M160.46,162.37c-1.56,.61-2.94,1.03-4.04,2.15-.63,.64-1.29,.42-1.72-.37-.65-1.19-1.11-2.43-1.21-3.8-.08-1.09,.39-1.24,1.22-.84,1.93,.93,3.83,1.9,5.75,2.86Z"/>
  <path class="cls-5" d="M292.58,115.4c2.24,2.25,3.15,4.94,2.8,8.06-.41,.28-.11,.94-.74,1.21-.58-1.1-1.3-2.13-2.32-2.89-.74-.55-.43-1.21-.41-1.89,.06-1.52,.28-3.02,.67-4.49Z"/>
  <path class="cls-5" d="M249.8,141.7c-.13,.1-.37,.3-.18,.37,1.84,.74,1.21,2.07,.96,3.39-.32,1.66-.48,3.35-.72,5.02-.05,.34-.11,.75-.56,.76-.32,0-.45-.3-.57-.59-.29-.7-.78-1.35-.7-2.13,.26-2.31,.38-4.62,.05-6.81,.71-.58,1.12,.95,1.72-.02,0,0,.02,.01,.02,.01Z"/>
  <path class="cls-6" d="M268.47,156.9s-.14,.08-.14,.08c-.49-.08-.62,.08-.34,.51,0,0-.02,.02-.02,.02-.54-.48-.65-.1-.72,.35,0,0,.02-.02,.02-.02-.45,.07-.85,.17-.36,.71,0,0,0,.03,0,.03-2.21-.41-2.18-.41-1.52-2.82,.33-1.19,.48-2.42,.7-3.6,.95,.02,.37,1.43,1.41,1.26,0,0,.05,.03,.05,.03-.1,.34,.11,.46,.39,.54,.12,.06,.25,.13,.37,.19,.7,.5,1.5,.57,2.33,.52-.1,.21-.21,.42-.31,.64-.74,.38-1.67,.54-1.85,1.57Z"/>
  <path class="cls-5" d="M160.24,138.2c-1.83-.82-3.11-2.09-4.4-3.35-.53-.52-.48-.99,.04-1.48,.64-.61,1.34-1.15,2.19-1.45,.39-.14,.97-.3,1.03,.25,.2,2,1.31,3.84,1.14,6.04Z"/>
  <path class="cls-4" d="M221.18,89.46c-.14,.43,.53,1.59-.31,1.75-1.02,.19-.95-1.07-1.2-1.78-.48-1.36-.98-2.72-1.37-4.11-.13-.47-.98-1.18-.15-1.44,.68-.21,1.81-.42,2.25,.73,.56,1.48,.93,2.99,.79,4.85Z"/>
  <path class="cls-6" d="M236.23,118.74s.02-.02,.02-.02c-.4,.64-.86,1.25-1.19,1.92-.25,.51-.57,.73-1.11,.59-.63-.16-.63-.66-.46-1.12,.49-1.35,.56-2.72,.26-4.12-.06-.28-.14-.6,.22-.74,.33-.13,.56,.13,.76,.32,.47,.46,.99,.83,1.66,.96,.23,.21,.46,.39,.76,.09,1.45,1.44-.76,1.35-.92,2.12Z"/>
  <path class="cls-5" d="M184.75,126.62c1.26,1.49,1.98,2.82,3.08,3.87,.54,.51,.01,1.12-.43,1.44-.51,.36-1.15,.59-1.76,.76-1.64,.45-2,.17-1.5-1.42,.44-1.39,.17-2.84,.6-4.65Z"/>
  <path class="cls-3" d="M223.87,98.15c-.01,1.16,.06,2.33-.54,3.39-.21,.38-.55,.67-.99,.57-.64-.14-.35-.62-.24-.97,.53-1.77-.17-3.42-.45-5.12-.07-.45-.85-1.22,.16-1.41,.77-.14,1.73,.02,1.88,1.11,.11,.8,.13,1.62,.18,2.42Z"/>
  <path class="cls-6" d="M203.63,122.21c.85,1.82,1.07,3.34,1.91,4.59,.34,.51-.09,.85-.54,1.08-.74,.38-1.52,.57-2.38,.49-1.1-.11-1.79-.32-.89-1.56,.89-1.22,1.07-2.78,1.89-4.6Z"/>
  <path class="cls-6" d="M249.92,135.9c-.55-2.08,.21-3.74,.35-5.46,.03-.4,.26-.68,.69-.6,.93,.17,1.88,.38,2.55,1.07,.29,.29,.1,.76-.2,1.1-1.08,1.22-2.15,2.46-3.39,3.89Z"/>
  <path class="cls-5" d="M168.87,134.24c1.11,.91,2.01,1.66,3.14,2.06,.66,.23,.87,.57,.28,1.1-.72,.65-1.13,1.63-2.18,1.95-.55,.17-1.06,.16-1.52-.18-.53-.39-.45-.91-.21-1.42,.5-1.04,.18-2.18,.48-3.51Z"/>
  <path class="cls-5" d="M247.51,150.32c.93,1.81,.92,3.52,.74,5.24-.06,.58-.36,.79-.98,.56-.6-.23-1.24-.37-1.86-.53-.5-.13-.77-.44-.41-.87,1.04-1.26,1.47-2.86,2.51-4.4Z"/>
  <path class="cls-6" d="M194.12,124.96c-.68-1.46-1.37-2.92-2.06-4.37-.19-.39-.32-.87,.12-1.08,.79-.38,1.65-.59,2.55-.33,.6,.17,.4,.58,.35,.98-.22,1.6-.42,3.2-.63,4.8-.11,0-.22,0-.34,0Z"/>
  <path class="cls-6" d="M222.58,124.58c.46,1.45,.88,2.82,1.32,4.18,.15,.46-.05,.67-.46,.71-.58,.07-1.17,.16-1.75,.11-2-.18-2.17-.49-.98-2.03,.7-.91,.74-2.2,1.86-2.97Z"/>
  <path class="cls-6" d="M242.11,135.7c-.86,.12-1.45-.29-2.06-.63-1.19-.66-2.01-1.43-.37-2.46,.87-.54,.8-2.44,2.1-1.9,.82,.34,.02,1.8,.16,2.76,.11,.73,.12,1.47,.18,2.22Z"/>
  <path class="cls-12" d="M203.08,60.53c1.32-.8,2.61-1.62,3.95-2.38,.53-.3,1.02-.81,1.74-.58-.41,1.3-1.81,1.49-2.73,2.09-2.73,1.78-5.59,3.39-8.66,4.56-.34-.12-.74-.19-.57-.71,.86,0,1.71,0,1.96-1.07,0,0,0,0,0,0,.45,.13,.87,.19,1.08-.37,0,0-.02,.01-.02,.01,1.27-.17,2.25-.9,3.26-1.57Z"/>
  <path class="cls-6" d="M231.58,137.83c.13,1.56,.28,3.12,.38,4.69,.04,.66-.09,1.48-.9,1.4-.63-.06-.65-.88-.56-1.47,.4-2.61,.35-5.21-.18-7.8-.08-.38-.24-.88,.35-.99,.52-.1,.71,.41,.86,.74,.5,1.11-.08,2.29,.05,3.43Z"/>
  <path class="cls-6" d="M171.11,151.3c1.86,.61,3.08,2.02,4.59,3.18-3.32,1.11-4.87,.01-4.59-3.18Z"/>
  <path class="cls-6" d="M176.63,128.98c-1.48-1.14-2.1-2.55-2.83-3.78-.45-.75,.67-1.23,1.44-1.51,.78-.29,1.04,0,1.15,.76,.19,1.41,.35,2.82,.24,4.53Z"/>
  <path class="cls-6" d="M213.14,123.53c-1.03-1.69-1.43-3.17-1.45-4.64-.02-1.31,1.24-.53,1.91-.66,.69-.13,.91,.22,.69,.94-.4,1.31-.7,2.64-1.14,4.36Z"/>
  <path class="cls-6" d="M280.56,135.03c.03,2.17-1.66,3.22-2.87,4.49-.5,.53-1.78,.24-2.16-.43-.42-.74,.55-.96,1.12-1.21,1.5-.67,2.82-1.58,3.91-2.85Z"/>
  <path class="cls-6" d="M156.36,131.54c-.88-.76-1.56-1.32-2.19-1.92-.4-.38-1.57-.4-1.11-1.13,.42-.66,1.41-.99,2.19-1.4,.22-.12,.37,.17,.41,.42,.22,1.25,.44,2.49,.71,4.02Z"/>
  <path class="cls-6" d="M184.38,143.36c.8,.58,1.57,1.2,2.4,1.72,.82,.51,1.03,1.2,.87,2.07-.05,.25-.23,.52-.44,.44-.74-.3-1.64-.41-2.01-1.26-.38-.89-.7-1.8-1.05-2.7,.07-.09,.15-.18,.22-.27Z"/>
  <path class="cls-6" d="M151.09,128.48c.98-2.09,3.13-2.94,4.49-4.59,.11-.13,.49-.19,.63-.1,.13,.09,.2,.43,.14,.61-.13,.44-.23,1.04-.56,1.23-1.58,.92-3.13,1.88-4.7,2.85Z"/>
  <path class="cls-6" d="M202.37,141.52s.05,.01,.05,0c-.7,.41-.15,.74,.12,1.01,.61,.64,.43,1.33,0,1.85-.55,.68-.96-.27-1.48-.3-.29-1.15-.58-2.29-.84-3.32,.83-.5,.94,1.33,1.77,.22,0,0,0,0,0,0-.04,.13-.15,.27-.12,.38,.07,.26,.29,.2,.48,.15Z"/>
  <path class="cls-6" d="M215.22,137.62c.56,1.24,.98,2.36,1.56,3.4,.38,.68-.03,1.11-.28,1.59-.19,.35-.54,.42-.91,.21-.52-.31-.71-.77-.57-1.34,.29-1.22-.35-2.5,.2-3.86Z"/>
  <path class="cls-6" d="M229.72,149.02c-.83,.06-1.34-.18-.66-1.25,.22-.34,.28-.77,.52-1.09,.35-.48-.2-1.57,.74-1.47,.68,.07,.56,1.08,.67,1.65,.17,.89,1.08,2.33-1.26,2.16Z"/>
  <path class="cls-6" d="M273.07,139.23c-1.55,.47-3.08,.26-4.67,.49q1.12-2.39,4.67-.49Z"/>
  <path class="cls-4" d="M221.93,86.08c1.21,.96,1.94,4.23,1.26,5.38-.08,.13-.26,.31-.37,.3-.33-.05-.47-.31-.49-.63-.13-1.66-.26-3.32-.39-5.05Z"/>
  <path class="cls-4" d="M202.48,94.32c.7,.55,1.69,.85,1.7,1.72,.01,.97-.95,1.61-1.69,2-.67,.35-.51-.55-.5-.91,.04-.91-.36-1.91,.49-2.8Z"/>
  <path class="cls-6" d="M215.18,146.84c-.48-.01-1.22,.36-1-.49,.22-.85-.07-2.29,.87-2.42,.95-.13,1.65,1.12,1.75,2.06,.14,1.27-1.18,.43-1.62,.85Z"/>
  <path class="cls-13" d="M202,140.98c-.83,1.11-.95-.71-1.77-.22,.26,1.03,.55,2.18,.84,3.32-.77,.37-.24,.82-.09,1.25,.04,.09,.02,.17-.07,.23-.28,0-.56,.01-.84,.02-.19-1.41-.39-2.82-.58-4.22,.45-.61,.51-1.53,1.44-1.77,.46,.38,.98,.72,1.07,1.39Z"/>
  <path class="cls-6" d="M282.96,130.14c.05-1.11,.74-2.01,1.07-3.03,.26-.82,1.14-1,1.74-.69,.9,.46,0,.95-.27,1.33-.66,.87-1.23,1.82-2.15,2.48-.13-.03-.26-.06-.39-.09Z"/>
  <path class="cls-6" d="M192.31,151.24c-2.15-.47-2.75-2.05-3.76-3.15-.19-.21-.16-.58,.12-.77,.22-.14,.43,0,.61,.17,1.09,1.03,2.28,1.96,3.03,3.75Z"/>
  <path class="cls-11" d="M192.36,72.58c-1.55,.71-3.1,1.43-4.65,2.14-.24-.41-.65-.28-1.01-.32,1.42-1.51,3.51-1.65,5.27-2.48,.29,.13,.38,.37,.4,.66Z"/>
  <path class="cls-6" d="M203.36,145.53c.2-.47-.23-1.09,.49-1.23,.42-.08,2.11,2.22,2.17,2.86,.05,.53-.29,.55-.66,.52-1.41-.11-1.79-1.08-2-2.15Z"/>
  <path class="cls-6" d="M265.29,159.65c-.45,.62-.36,1.78-1.59,1.7-.4-.03-1.12,.07-.99-.63,.18-.91,.74-1.7,1.67-1.98,.38-.11,.83,.34,.91,.91Z"/>
  <path class="cls-6" d="M186.24,148.26c1.22,.43,2.17,1.08,2.85,2.15-2.58,.83-2.84,.65-2.85-2.15Z"/>
  <path class="cls-6" d="M259.13,148.83c.02-.71-.32-1.59,.93-1.44,.49,.06,1.29-.08,1.14,.7-.16,.85-.67,1.83-1.51,2-.85,.17-.38-.84-.56-1.25Z"/>
  <path class="cls-6" d="M263.13,111.1c-.39-.93-.15-1.73-.17-2.5-.01-.4-.3-1.05,.34-1.15,.47-.07,1.09,.09,1.48,.37,.57,.4-.02,.83-.24,1.15-.44,.66-.56,1.51-1.41,2.13Z"/>
  <path class="cls-6" d="M232.38,144.74c.36,1.36,.72,2.72,1.07,4.08,.08,.31,.34,.7-.22,.81-.38,.07-.81-.1-.83-.46-.08-1.47-.88-2.87-.51-4.37,.16-.02,.33-.04,.49-.06Z"/>
  <path class="cls-6" d="M172.08,155.47c-1.02,.48-1.58,1.55-2.49,.89-.44-.32-.67-1.77-.56-1.82,1.16-.56,1.87,.42,3.04,.93Z"/>
  <path class="cls-6" d="M200.91,145.57c.08-.06,.11-.14,.07-.23,1.21,.12,1.51,1.24,1.91,1.99,.42,.79-.67,.62-1.14,.8-.47,.18-.95,.26-.92-.5,.03-.69,.06-1.37,.08-2.06Z"/>
  <path class="cls-6" d="M197.39,108.93c-.97,.55-1.31,1.67-2.16,2.4-1.2-2.74-1.14-2.81,2.16-2.4Z"/>
  <path class="cls-13" d="M268.98,114.35c0-1.63,0-3.25,.01-4.88,.28,0,.56,.01,.84,.02-.28,1.07,.2,2.06,.3,3.1,0,.25-.01,.49-.02,.74,0,0,.01-.03,.01-.03-.53,.37-.25,.95-.39,1.42-.25-.12-.5-.25-.75-.37Z"/>
  <path class="cls-6" d="M153.25,148.89c.75-.23,.97-1.65,1.92-.96,.53,.39,1.19,1.65,.83,1.88-.97,.61-1.82-.42-2.75-.92Z"/>
  <path class="cls-6" d="M176.21,113.37c-.77,.95-1.37,1.69-2.09,2.56-.45-.71-1.24-1.61-.9-2.07,.53-.7,1.68-.65,2.99-.5Z"/>
  <path class="cls-8" d="M194.02,113.97v3.99c-1.77-2.35-1.77-3.27,0-3.99Z"/>
  <path class="cls-6" d="M219.13,146.21c.08,.53,.03,.77-.27,.75-.2-.01-.5-.12-.58-.27-.46-.86-.9-1.74-1.28-2.64-.14-.32-.07-.72,.32-.88,.36-.14,.52,.2,.63,.44,.44,.94,.86,1.89,1.17,2.59Z"/>
  <path class="cls-3" d="M221.75,92.44c.56,.21,1.48-.24,1.65,.79,.09,.52-.21,.78-.73,.6-.65-.23-1.68,.13-1.84-.91-.1-.64,.52-.41,.92-.48Z"/>
  <path class="cls-4" d="M209.72,85.57c-.14,.36,.2,1.28-.43,.99-1.05-.47-.25-1.81-.76-2.66-.17-.28,.05-.71,.34-.58,1.05,.43,.7,1.44,.85,2.25Z"/>
  <path class="cls-6" d="M235.73,105.66c-.24-.96-.92-1.59-.62-2.48,.14-.4,.27-.78,.81-.74,.6,.04,.62,.52,.59,.89-.05,.73-.05,1.5-.78,2.33Z"/>
  <path class="cls-6" d="M253.38,111.63c-.94-.86-.97-1.72-1.37-2.4-.28-.49-.11-.92,.49-1.04,.57-.12,.89,.13,.89,.74,0,.79,0,1.58,0,2.7Z"/>
  <path class="cls-6" d="M252.92,129.21c.18-2.43,.51-2.77,2.39-2.09-.85,.74-1.63,1.42-2.39,2.09Z"/>
  <path class="cls-6" d="M177.7,136.62s.02,.04,.02,.04c-.25-.42,.67-.9-.06-1.3,0,0,.03-.03,.03-.03,.21,.84,1.28-.4,1.6,.73,.31,1.09,.13,1.64-.87,2.04,0,0,0-.06,0-.06,1.11-.73-.03-.84-.34-1.18-.13-.08-.25-.16-.38-.24Z"/>
  <path class="cls-6" d="M246.36,101.29c-.28,0-.41-.15-.42-.42-.02-.45,1.74-2.34,2.19-2.31,.32,.03,.55,.16,.45,.56-.09,.34-1.92,2.16-2.22,2.17Z"/>
  <path class="cls-6" d="M241.17,139.55c-.81-.68-.52-1.49-.85-2.11-.18-.34-.33-.85,.31-.94,.6-.08,1.11,.18,1.04,.86-.07,.68-.3,1.34-.5,2.18Z"/>
  <path class="cls-4" d="M223.99,83.55c-.21,.75,.19,1.81-.7,1.96-.58,.1-1.19-.86-1.15-1.29,.1-1.09,1.19-.35,1.85-.67Z"/>
  <path class="cls-6" d="M211.96,131.74s-.06-.03-.06-.03c.06,0,.12-.02,.18-.01,.82,.05-.35-1.99,1.12-1.1,1.03,.62,1.09,1.64,.34,2.62-.27-.76-.36-1.69-1.57-1.48Z"/>
  <path class="cls-7" d="M173.49,141.85c-.89-.9-2-.92-2.19-1.81-.08-.37,.88-.93,1.18-.8,.84,.38,.97,1.26,1.02,2.61Z"/>
  <path class="cls-4" d="M232.19,91.7c-.54-1.5,.53-1.96,1.19-2.61,.19-.19,.56,.05,.56,.22,.05,1.16-.96,1.55-1.75,2.39Z"/>
  <path class="cls-6" d="M278.37,117.3c.18-.39-.32-1.15,.61-1.12,.58,.02,.84,.41,.75,.94-.1,.62-.28,1.45-.96,1.45-.74,0-.29-.81-.41-1.27Z"/>
  <path class="cls-6" d="M270.13,112.58c-.1-1.03-.58-2.03-.3-3.1,1.74,.44,1.42,1.54,.91,2.7-.2,.13-.41,.26-.61,.39Z"/>
  <path class="cls-6" d="M204.77,131.45c-.63-.58-1.23-1.12-1.93-1.77,.64-.38,1.32-.54,1.8-.12,.57,.49,.61,1.21,.13,1.89Z"/>
  <path class="cls-7" d="M186.57,69.08c.76-.49,1.51-.98,2.27-1.47,.22-.1,.43-.21,.65-.31,.23,.04,.47,.08,.7,.12,.06,.37-.46,.67-.13,1.07,0,0-.01-.04-.01-.04-1.06-.43-1.69,.68-2.63,.69-.28-.02-.56-.04-.85-.06Z"/>
  <path class="cls-8" d="M195.92,132.95c-.23-.62-1.16-.86-1-1.69,.05-.26,.28-.38,.52-.34,1.09,.14,.69,1.17,1.05,1.75,.03,.05,.07,.09,.1,.14-.22,.05-.45,.1-.67,.15Z"/>
  <path class="cls-7" d="M173.72,118.39c.08,.93,.15,1.72,.22,2.58q-1.51-1.11-.22-2.58Z"/>
  <path class="cls-2" d="M203.08,60.53c-1.01,.67-2,1.4-3.26,1.57,.68-1.29,2.15-1.41,3.21-2.14,.02,.19,.03,.38,.05,.57Z"/>
  <path class="cls-6" d="M249.5,152.65c.34,.99,.38,1.98,.06,3.32-.66-1.33-.56-2.32-.06-3.32Z"/>
  <path class="cls-6" d="M260.12,136.64c.03,1.02,.28,1.84-.7,2.27-.15,.07-.57-.09-.61-.22-.29-1.02,.52-1.38,1.3-2.05Z"/>
  <path class="cls-4" d="M205.78,84.02c.81-.19,1.47-.46,1.77,.42,.09,.25,.17,.72-.16,.73-.75,.02-1.19-.49-1.61-1.14Z"/>
  <path class="cls-6" d="M222.75,132.95c-.55-.91-.98-1.45-.7-2.18,.03-.08,.35-.16,.45-.1,.75,.5,.53,1.18,.25,2.28Z"/>
  <path class="cls-11" d="M211.96,131.74c1.21-.21,1.3,.72,1.57,1.48-.37,.14-.45,.46-.5,.8-.34-.77-1.15-1.32-1.07-2.28Z"/>
  <path class="cls-11" d="M193.48,102.47c-.69,.82-1.67,.55-2.55,.67,.57-1.25,1.67-.54,2.55-.67Z"/>
  <path class="cls-6" d="M269.82,120.45c-.93-.76-1.4-1.16-1.11-1.89,.1-.26,.36-.55,.67-.33,.64,.47,.24,1.14,.44,2.22Z"/>
  <path class="cls-12" d="M282.96,130.14c.13,.03,.26,.06,.39,.09-.05,.75-.31,1.4-.93,1.97-.37-.91-.02-1.51,.55-2.06Z"/>
  <path class="cls-11" d="M242.65,117.49c-.72,0-1.43,0-2.15,0,.71-1.06,1.43-1.07,2.15,0Z"/>
  <path class="cls-7" d="M198.76,62.44c-.25,1.07-1.1,1.07-1.96,1.07,.53-.58,1.08-1.11,1.96-1.07Z"/>
  <path class="cls-13" d="M290.42,119.28c.24-.01,.48-.02,.72-.04-.02,.49,.1,1.2-.72,.97-.48-.13-.39-.62,0-.93Z"/>
  <path class="cls-7" d="M185.96,103.31c-.5,.11-1,.22-1.5,.33l.06-.08-.09-.06c.48-.39,.78-1.01,1.47-1.14,.02,.32,.04,.63,.06,.95Z"/>
  <path class="cls-13" d="M269.42,96.19c-.58,.04-.89-.3-1.11-.76,.6-.07,1.09,.01,1.11,.76Z"/>
  <path class="cls-11" d="M186.32,104.2c-.21,.36-.08,.65,.21,.9-.45,.13-.99,.2-1.07-.36-.06-.45,.45-.54,.86-.54Z"/>
  <path class="cls-12" d="M269.73,114.72c.14-.47-.15-1.05,.39-1.42-.01,.54,.14,1.16-.08,1.6-.29,.57-.19-.12-.31-.18Z"/>
  <path class="cls-11" d="M184.46,103.64c-.14,.8-.64,.53-1.13,.4,.19-.6,.65-.57,1.1-.54,0,0,.08,.06,.08,.06l-.06,.08Z"/>
  <path class="cls-11" d="M223.39,109.06c.49-.12,.96-.07,1.41,.14-.26,.24-.52,.49-.78,.73-.21-.04-.42-.08-.63-.13,0-.25,0-.49,0-.74Z"/>
  <path class="cls-13" d="M274.17,153.63c.16,.11,.37,.17,.4,.28,.07,.29-.17,.38-.4,.35-.12-.01-.29-.18-.29-.28,0-.11,.18-.22,.3-.35Z"/>
  <path class="cls-13" d="M239.3,116.1c.12,.16,.21,.28,.3,.41-.13,.09-.27,.24-.4,.23-.12,0-.22-.19-.33-.3,.12-.1,.24-.2,.42-.34Z"/>
  <path class="cls-12" d="M269.41,116.73c-.08-.09-.22-.19-.26-.31-.06-.23,.04-.46,.3-.48,.09,0,.26,.16,.29,.28,.05,.21,.02,.44-.33,.52Z"/>
  <path class="cls-7" d="M186.47,102.22c.43,.08,.87,.17,1.3,.25-.07,.19-.14,.39-.21,.58-.31,.01-.61,.02-.92,.03l-.17-.85s0-.01,0-.01Z"/>
  <path class="cls-12" d="M260.72,171.55c-.1-.06-.37-.13-.45-.29-.13-.26,.08-.43,.34-.39,.2,.03,.47,.13,.56,.28,.16,.28-.09,.36-.45,.41Z"/>
  <path class="cls-13" d="M165.25,148.53c.15,.22,.31,.43,.46,.65-.1,.3-.21,.59-.31,.89-.33-.23-.64-.48-.72-.9,.29-.1,.48-.27,.51-.58l.06-.06Z"/>
  <path class="cls-12" d="M258.1,169.49c.59,.06,.89,.3,.86,.53-.08,.66-.36,.09-.51,.01-.12-.07-.17-.26-.35-.54Z"/>
  <path class="cls-12" d="M215.19,106.62c.47,.41,.74,.87,.42,1.49-.14-.14-.28-.28-.43-.41h0c0-.36,0-.71,0-1.07Z"/>
  <path class="cls-13" d="M282.18,146.4c-.16-.07-.31-.14-.47-.21-.18-.24-.14-.5,.17-.47,.39,.03,.32,.4,.3,.68Z"/>
  <path class="cls-13" d="M291.16,114.71l-.24-.71c.44,.12,.74,.28,.24,.71Z"/>
  <path class="cls-13" d="M267.67,152.43c.45,.11,.59,.46,.69,.84-.27,.06-.54,.11-.82,.17,0,0-.05-.03-.05-.03,.06-.33,.12-.66,.17-.98Z"/>
  <path class="cls-13" d="M273.33,153.29c.19-.26,.17-.75,.71-.67-.03,.44-.24,.68-.71,.67Z"/>
  <path class="cls-12" d="M281.42,133.86c-.03-.09-.11-.21-.08-.27,.03-.06,.17-.08,.26-.12,.03,.09,.11,.21,.08,.27-.03,.07-.17,.08-.26,.12Z"/>
  <path class="cls-11" d="M190.19,67.42c-.23-.04-.47-.08-.7-.12,.11-.17,.22-.48,.34-.48,.4-.01,.34,.33,.36,.6Z"/>
  <path class="cls-12" d="M270.13,112.58c.2-.13,.41-.26,.61-.39-.06,.46-.14,.91-.63,1.13,0-.25,.01-.49,.02-.74Z"/>
  <path class="cls-9" d="M186.47,102.23l.17,.85c-.22,.08-.45,.15-.67,.23-.02-.32-.04-.63-.06-.95,.16-.16,.34-.25,.56-.13Z"/>
  <path class="cls-11" d="M187.56,103.05c.07-.19,.14-.39,.21-.58,.22-.02,.44-.04,.65-.06-.04,.54-.32,.76-.87,.64Z"/>
  <path class="cls-13" d="M237.34,115.97c.34-.06,.68-.12,1.02-.19-.27,.42-.62,.43-1.02,.19Z"/>
  <path class="cls-13" d="M270.32,155.33c.1-.21,.21-.42,.31-.64,.19,.07,.47,.1,.37,.39-.11,.33-.42,.25-.68,.24Z"/>
  <path class="cls-7" d="M199.84,62.08c-.21,.56-.63,.49-1.08,.37,.27-.4,.56-.72,1.08-.37Z"/>
  <path class="cls-12" d="M215.05,108.85c-.1-.37-.19-.74-.29-1.1,.14-.02,.28-.03,.42-.05h0c-.04,.38-.09,.77-.13,1.15Z"/>
  <path class="cls-13" d="M203.43,142.27c.19,.17,.37,.34,.56,.51-.31-.04-.51-.19-.56-.51Z"/>
  <path class="cls-6" d="M195.92,132.95c.22-.05,.45-.1,.67-.15-.04,.46-.43,.52-.77,.65,0,0-.06-.05-.06-.05,.05-.15,.1-.3,.15-.45Z"/>
  <path class="cls-13" d="M165.97,150.8c-.17-.22-.34-.44-.51-.67,.37,.08,.49,.33,.51,.67Z"/>
  <path class="cls-11" d="M186.81,105.17c.35-.17,.68-.15,1.02,.03-.34,0-.68-.02-1.02-.03Z"/>
  <path class="cls-13" d="M268.31,154.17c-.12-.06-.25-.13-.37-.19,.12,.06,.25,.13,.37,.19Z"/>
  <path class="cls-13" d="M199.49,141.37c-.05-.06-.11-.12-.15-.19-.01-.02,.03-.08,.04-.12,.09,.09,.12,.19,.11,.31Z"/>
  <path class="cls-13" d="M274.82,156.85c-.03,.09-.06,.18-.09,.27-.01-.1,.01-.2,.09-.27Z"/>
  <path class="cls-13" d="M199.12,140.32c-.05-.11-.1-.22-.14-.33,.05,.11,.1,.22,.14,.33Z"/>
  <path class="cls-13" d="M290.92,139.95c.05-.17,.1-.35,.15-.52-.05,.17-.1,.35-.15,.52Z"/>
  <path class="cls-13" d="M243.94,164.49c.02,.12,0,.23-.04,.34-.02-.08-.06-.17-.07-.25,0-.03,.07-.06,.11-.09Z"/>
  <path class="cls-11" d="M181.33,101.4c-.17,.19-.36,.2-.57,.07,.19-.02,.38-.05,.57-.07Z"/>
  <path class="cls-11" d="M187,104.05c-.12,.02-.23,.04-.35,.06,.09-.17,.2-.21,.35-.06Z"/>
  <path class="cls-13" d="M244.78,166.96c.05,.06,.11,.12,.15,.19,0,.02-.04,.07-.07,.1-.07-.08-.09-.18-.08-.29Z"/>
  <path class="cls-12" d="M259.6,170.55s.07,.07,.1,.11c-.04,.03-.08,.09-.12,.09-.04,0-.07-.06-.11-.1,.04-.03,.08-.06,.13-.1Z"/>
  <path class="cls-13" d="M142.03,131.97c-.04-.08-.08-.16-.11-.24,0-.03,.04-.08,.07-.12,.01,.12,.03,.24,.04,.36Z"/>
  <path class="cls-13" d="M237.15,116.62c-.29,.29-.53,.12-.76-.09,.25,.03,.5,.06,.76,.09Z"/>
  <path class="cls-13" d="M197.73,130.5c-.13,.07-.26,.14-.4,.2,.13-.07,.26-.14,.4-.2Z"/>
  <path class="cls-13" d="M141.95,127.99c.02-.15,.03-.3,.05-.45-.02,.15-.03,.3-.05,.45Z"/>
  <path class="cls-12" d="M208.77,57.57c.99-1.22,2.54-1.54,3.82-2.29,3.01-1.76,6.03-3.51,9.09-5.19,.61-.34,1.21-1,2.08-.58-.03,.11-.03,.28-.1,.31-4.62,2.47-9,5.35-13.72,7.64-.37,.18-.75,.34-1.16,.11Z"/>
  <path class="cls-12" d="M223.75,49.5c-.13-.93,.76-.86,1.22-1.12,1.44-.79,2.76-1.85,4.49-2.04-1.57,1.63-3.6,2.47-5.71,3.16Z"/>
  <path class="cls-2" d="M183.44,70.51c.46-.14,.93-.28,1.39-.41,.03,.35-.02,.69-.3,.94-.72,.25-1.63,.23-1.79,1.25,0,0,0,0,0,0-.69-.32-1.16,.18-1.58,.51-1.51,1.19-2.95,2.46-4.42,3.69-.51,0-1.01,0-1.52-.01,2.29-2.58,5.36-4.13,8.22-5.97Z"/>
  <path class="cls-5" d="M134.66,183.86c-.64,.12-1.28,.26-1.92,.35-.49,.07-1.23,.52-1.39-.18-.18-.84,.8-.58,1.25-.78,.48-.21,1.05-.18,1.56-.34,5.38-1.68,10.5-3.95,14.95-7.4,1.33-1.03,2.1-1.71,3.07,.19,.21,.42,.78,.78,1.26,.94,1.73,.58,1.33,1.2,.26,2.17-5.74,5.24-12.75,7.91-20.18,9.75-.43,.11-1.19,.45-1.29-.32-.07-.51,.48-.84,1.09-.94,.76-.13,1.49-.38,2.24-.57,.35-.09,.76-.17,.62-.65-.13-.44-.5-.39-.87-.3-.8,.21-1.6,.44-2.42,.6-.48,.09-1.24,.41-1.38-.28-.16-.8,.71-.76,1.24-.89,.69-.17,1.4-.23,2.1-.39,.38-.09,.93-.15,.73-.74-.14-.43-.56-.32-.91-.23Z"/>
  <path class="cls-5" d="M153.83,166.23c-.29,.12-.58,.24-.87,.37-.04-.21-.09-.42-.13-.64,.38-.07,.75-.13,1,.27Z"/>
  <path class="cls-12" d="M176.74,76.49c1.47-1.24,2.91-2.5,4.42-3.69,.42-.33,.9-.83,1.58-.51-1.34,1.17-2.7,2.33-4.02,3.53-.69,.63-1.35,1.3-1.97,1.99-.35,.39-.66,.87-.4,1.43,.29,.61,.9,.4,1.41,.44,.75,.06,1.52-.2,2.28,.11-.93,.73-3.46,.85-4.17,.19-.53-.49-.65-1.1-.29-1.74,.35-.6,.76-1.17,1.15-1.75Z"/>
  <path class="cls-2" d="M187.42,69.13c.94,0,1.57-1.12,2.63-.69-.49,.66-1.29,.9-1.97,1.28-.47,.26-.94,.15-.66-.59Z"/>
  <path class="cls-12" d="M182.74,72.3c.16-1.02,1.07-1,1.79-1.25-.13,1.06-.97,1.15-1.79,1.25Z"/>
  <path class="cls-10" d="M247.13,81.87c.1,.03,.2,.06,.3,.09-.09,.07-.19,.13-.28,.2-.11-.09-.11-.18-.02-.28Z"/>
  <path class="cls-10" d="M270.69,96.63c.3-.05,.45,.13,.56,.36-.24-.04-.48-.08-.56-.36Z"/>
  <path class="cls-10" d="M205.19,58.24c-.24,.12-.45,.42-.74,.07-.19-.22,.08-.29,.13-.43,.2,.12,.41,.24,.61,.36Z"/>
  <path class="cls-10" d="M290.17,141.99c.04-.11,.08-.21,.12-.32,.07,.06,.14,.12,.21,.18-.11,.05-.22,.09-.33,.14Z"/>
  <path class="cls-10" d="M240.15,168.74c.25,.05,.49,.1,.74,.15,.13,.04,.26,.07,.39,.11,0,0,.02,0,.02,0-.54,.59-.95,.61-1.15-.26Z"/>
  <path class="cls-13" d="M162.4,175.72c.11-.08,.23-.17,.34-.25-.11,.08-.23,.17-.34,.25Z"/>
  <path class="cls-10" d="M215.18,107.7c-.14,.02-.28,.03-.42,.05-.08-.49-.91-.83-.29-1.45,.47-.38,.53,.13,.72,.33,0,.36,0,.72,0,1.08Z"/>
  <path class="cls-10" d="M202.37,141.52c-.2,.05-.42,.11-.48-.15-.03-.11,.08-.25,.12-.38,.35,.03,.53,.16,.36,.53Z"/>
  <path class="cls-10" d="M266.91,158.55c-.5-.53-.1-.63,.36-.71,.28,.14,.37,.35,.19,.62-.15,.23-.35,.18-.55,.09Z"/>
  <path class="cls-10" d="M267.25,157.86c.07-.45,.18-.83,.72-.35,.1,.2,.16,.4-.08,.55-.29,.18-.49,.08-.64-.2Z"/>
  <path class="cls-6" d="M267.98,157.49c-.28-.43-.14-.58,.34-.51,.13,.16,.3,.33,.06,.5-.09,.06-.27,0-.41,0Z"/>
  <path class="cls-10" d="M161.32,145.24c.58-.7,.84,.06,1.13,.3,.3,.25,.62,.67-.07,.92-1.02,.15-1.09-.49-1.06-1.22Z"/>
  <path class="cls-10" d="M162.57,146.99c-.13-.5,.16-.7,.53-.46,.48,.3,.86,.76,1.28,1.15-1.07,.95-1.3-.23-1.81-.69Z"/>
  <path class="cls-10" d="M165.19,148.59c-.03,.31-.23,.48-.51,.58-.12-.44,.03-.65,.51-.58Z"/>
  <path class="cls-10" d="M177.7,136.62c.13,.08,.25,.16,.38,.24,0,.33,0,.66,0,.99-.45-.23-.93-.46-.92-1.04,0-.22,.3-.28,.54-.19Z"/>
  <path class="cls-13" d="M178.09,137.84c0-.33,0-.66,0-.99,.3,.34,1.44,.45,.34,1.18-.11-.06-.22-.13-.33-.19Z"/>
  <path class="cls-13" d="M241.28,168.99c-.13-.04-.26-.07-.39-.11,.13,.04,.26,.07,.39,.11Z"/>
</svg>