<?xml version="1.0" encoding="UTF-8"?>
<svg id="Layer_1" data-name="Layer 1" xmlns="http://www.w3.org/2000/svg" viewBox="0 0 414 200">
  <defs>
    <style>
      .cls-1 {
        fill: #f7b7d3;
      }

      .cls-2 {
        fill: #00bff3;
      }

      .cls-3 {
        fill: #e8e6dc;
      }

      .cls-4 {
        fill: #fff9b8;
      }

      .cls-5 {
        fill: #fff200;
      }

      .cls-6 {
        fill: #fbb040;
      }

      .cls-7 {
        fill: #b5cdba;
      }

      .cls-8 {
        fill: #9da8b6;
      }

      .cls-9 {
        fill: #a4d3f2;
      }

      .cls-10 {
        fill: #d0bea9;
      }

      .cls-11 {
        fill: #ad8671;
      }

      .cls-12 {
        fill: #5c5c5b;
      }

      .cls-13 {
        fill: #393836;
      }

      .cls-14 {
        fill: #767474;
      }

      .cls-15 {
        fill: #4f4e45;
      }
    </style>
  </defs>
  <path class="cls-13" d="M135.73,110.51c2.5,1.32,5.22,3.67,7.61,3.36,4.01-.52,7.98-2.19,12.5-2.67-1.79-2.53-4.53-1.49-5.9-3.73,2.42-.48,4.5,.22,6.48,1.04,4.23,1.77,4.2,1.86,4.33-3.27,.02-.8,.18-1.65,0-2.4-.51-2.11,1.87-4.9-.42-6.21-1.65-.94-4.03-.29-6.09-.38-1.01-.05-1.75,.55-2.5,1.17-1.25,1.03-2.61,1.81-4.19,1.98-.39-1.48,.48-2.07,1.48-2.55,1.85-.89,3.26-2.43,4.41-4.18,4.73-7.22,10.11-13.72,16.28-19.48,4.33-4.04,8.91-5.34,14.31-3.61,8,2.56,16.08,4.59,24.5,3.97-.5,1.57-1.54,2.37-2.99,2.49-1.63,.14-3.26,.21-4.89,.32-4.07,.46-8.23,.26-12.13,2.01-.74,.04-1.48,.08-2.23,.12-2.02-.02-4.04-.03-6.06-.05-2.59,.06-1.44,2.89-2.46,4.11l-.05,.03c-.48,.04-.61,.31-.43,.79-.41,2.04-.81,4.08-1.22,6.12-.06,.23-.11,.45-.17,.68,0,0,0-.03,0-.03-1.43,1.26-.11,3.34-1.34,5.26v-7.28c.15-.47,.29-.95,.44-1.42,1.38-.88,.65-2.34,.8-3.55,1.91-6.4,2.41-6.82,8.25-6.98,.92-.03,1.85-.18,2.77-.34,.66-.11,1.61,.17,1.74-.94,.1-.78-.64-1.06-1.13-1.46-4.62-3.67-11.77-3.13-16.06,1-2.52,2.42-3.92,5.57-5.21,8.8-2.83,7.05-3.11,14.63-3.68,22.17-.51,6.78-.81,6.04,4.58,6.79,1.22,.17,2.45,.4,3.64,.75,2.05,.6,2.77-.09,2.61-2.52-.27-4.23-.42-8.47,.08-12.7,.84,.37,.39,1.47,.92,2.01,.1,2.09,.21,4.18,.31,6.26-.83,1.17-.97,2.3,.13,3.38,.96,5.02,.47,5.89,6.44,4.23,.29-.08,.61-.04,.91-.05,1.46,.07,2.79,.09,3.11-2.11,.25-1.77,.88,.29,1.32-.04v-.03c-.02,.39,.07,.62,.47,.39,.81-.14,1.61-.27,2.42-.41,1.66,.56,3.61-.79,5.09,.94-.79,.49-1.64,.65-2.53,.58-.24-.41-.42-.33-.56,.09h.02c-.2,.02-.4,.05-.6,.08-.45,.06-.9,.13-1.35,.19-.24-.27-.43-.21-.58,.11-.48,.18-.96,.36-1.44,.54-.41-.18-.76-.09-1.04,.3-.69,.1-1.38,.2-2.07,.3-.46-.1-.79,.07-1.01,.53-.12,.74-.51,1.09-1.17,1.38-3.33,1.47-6.63,3.05-9.94,4.56-.64,.29-1.54,.29-1.56,1.32-.02,.93,.76,1.32,1.37,1.7,1.76,1.12,3.58,1.37,5.62,.88,6.93-1.65,13.88-3.11,21.04-2.15,3.26,.44,6.55,.54,9.83,.8,.28,.04,.55,.09,.83,.13,0,0,.22,.11,.22,.11l.24-.02c.54,.69,1.21,.59,1.89,.37,1.82,.15,3.63,.3,5.45,.45,1.95,.16,1.75-.81,.97-2.18-1.45-2.53-3.66-4.17-5.68-6.04,0-.87-.32-1.41-1.17-1.41-1.72-.8-3.44-1.6-5.16-2.39,.05-.58,.1-1.16,.14-1.73,1.03,.24,2.07,.47,3.1,.71,1.26,1.07,2.14-.03,3.1-.67,1.24,0,2.48,0,3.72,0,.56,.5,1.2,.57,1.88,.48l.24,.22h.31c.1,.39,.3,.53,.65,.31,4.54,1.78,7.63,5.53,10.38,9.67,1.61,2.43,2.19,5.27,1.32,8.13-.77,2.51,.24,2.75,1.98,2.58,.29,.66,.7,1.18,1.36,1.41,.04,3.34,2.71,5.14,3.81,7.92,1.37,3.43,4.32,1.46,6.22,.79,2.29-.8-.39-2.47-.25-3.82-.22-.27-.43-.54-.65-.81-.14-.03-.2-.13-.2-.29,.34-.45,.68-.89,1.02-1.34l-.11,.13,.13-.1c.05,.95,.55,1.39,1.35,1.53,.12,.19,.24,.37,.35,.56,.18,.3,.37,.59,.55,.89,.56,1.36,.8,3.04,2.59,3.15,.79,.49,1.57,.54,2.35-.02,.29-.11,.57-.22,.86-.33l.45-.44c.27-.32,.54-.64,.81-.95,.86-.07,1.06-.69,1-1.51,.47-.86,1.22-1.07,2.05-1.07-.04,.87-.07,1.74-.11,2.6-.64,.77-2.39,1.33-.11,2.45,4.91,2.41,9.41,1.84,13.61-1.86,2.06-.28,1.06-2.15,1.4-3.33,3.65,.54,4.05,.11,4.1-3.97,.02-1.69,.24-3.37,.38-5.06,.51-.4,.51-.95,.37-1.54,.37-2.45,1.09-4.76,2.46-6.76,.78-.35,1.4-.36,1.4,.86-1.64,3.86-2.44,7.98-2.85,12.19-.07,.66-.69,1.58,.49,1.95,1.59,.5,4.73-2.17,4.56-4-.32-3.42-.69-6.83-1.04-10.25-.25-1.29-.51-2.59-.76-3.88,.07-.79,.14-1.58,.21-2.37,1.02-1.45-.59-2.26-.67-3.44,0-2.98-.04-5.97,.02-8.95,.03-1.51-.3-2.3-1.74-3.05-3.11-1.62-5.78-4.13-7.28-7.67-1.99-4.69-1.88-4.75-6.5-4.12-.92,.12-1.85,.24-2.77,.34-1.71,.18-2.52,.58-1.85,3.02,1.61,5.87,5.05,10.38,8.27,15.09-.23,.65-.65,1.07-1.25,1.28-2.59-2.12-3.98-5.25-5.55-8.22-.15-.26-.3-.52-.45-.78-.75-1.1-1.52-2.19-1.72-3.61,.2-.53,.07-.91-.41-1.12l.02,.05c-.14-.28-.27-.56-.41-.84-.17-.15-.22-.34-.14-.56-.08-.48-.16-.97-.23-1.45-.68-2.28-2.32-2.31-4.05-2.14-.5-.86-.91-.67-1.27,.14-1.4,.58-2.85,.69-4.32,.54-.68-.88-1.3-.84-1.87,.14-.43,.42-.86,.84-1.3,1.26-1.45,.27-1.07,1.59-1.2,2.61-6.05,10.64-12.51,12.52-21.43,6.23-.27-.7-.7-1.22-1.37-1.45-1.53-3.98-4.13-5.43-7.91-4.2-.67,.22-1.4,.25-2.1,.37-1.28-.16-2.55-.17-3.75,.49-2.27,.17-4.57-.06-6.8,.64-.46-.22-1.18-.33-1.32-.7-.23-.6,.4-.88,.87-1.08,.58-.24,1.16-.67,1.74-.67,5.14-.06,10.07-1.91,15.15-2.29,6.66-.5,13.19-.89,16.18-9.25,.48-1.36,1.27-2.58,1.92-3.86,.29-.57,1-1.03,.69-1.78-.39-.93-1.22-.65-1.89-.51-3.66,.73-7.33,1.15-11.05,1.13,.07-.43,.13-.87,.2-1.3,2.67-.47,5.41,.17,8.05-.65,2.31-.17,4.58-.58,6.7-1.7-2.14-.92-4.2-.22-6.26-.04-4.42-.26-8.65,1.36-13.02,1.62-.16-.2-.35-.23-.56-.09,.07-2.23,1.78-2.21,3.06-2.77,2.05-.17,4.11-.34,6.16-.5,.47,.28,.89,.22,1.28-.2,.61-.07,1.23-.14,1.84-.22,1.08,.2,2.13,.09,3.13-.42,1.44-.1,2.87-.2,4.31-.3,.49,.19,.96,.24,1.29-.33,.56-.04,.95-.36,1.22-.9,4.19-8.2,10.5-10.95,17.73-6.15,5.22,3.47,10.24,3.94,15.8,3.02,.68,.67,1.28,.57,1.8-.23,2.08-.2,4.15-.4,6.23-.6,.43,.62,.84,.58,1.21-.07,.51-.47,1.02-.94,1.52-1.41,.1-.27,.2-.53,.3-.8,.36-1.2,.62-2.47,1.6-3.31,.7-.02,1.41-.03,2.11-.05-4.61,7.74-3.35,16.3-2.56,24.69,.66,6.95,2.09,13.76,4.57,20.26,.47,1.24-.04,3.36,1.67,3.41,1.62,.05,2.19-1.79,2.66-3.34,.99-3.3,1.28-6.72,1.2-10.16-.15-6.41-.39-12.82-.59-19.23,2.3,.4,.9,2.36,1.22,3.6-.03,1.04-.51,2.19,.61,2.94,.22,.15,.44,.31,.66,.46,.25,0,.49,.02,.74,.03,2.62-.2,5.24-.4,7.85-.6,.39,.66,1,.62,1.6,.68,.54,.06,1.44-.11,1.21,.9-.18,.83-1.09-.18-1.54,.38-.84,.03-1.68,.06-2.51,.09-.99-.89-1.86-1.01-2.5,.46-.51,.09-1.03,.34-1.51,.26-3.07-.51-3.54,1.24-3.39,4.17,.21,3.99,.21,8.03-.04,12.02-.25,3.92-1.03,7.76-4.71,9.72-.88,.47-.97,.97-.42,1.84,.62,1,1,2.16,.97,3.39-.03,1.1,.58,1.96,1.26,2.13,.83,.22,1.44-.72,2.1-1.43,4.97-5.25,7.94-11.73,9.73-18.97l1.58,.25c-.11,.7-.23,1.39-.34,2.09-.07,.23-.15,.46-.22,.69,0,0,0,0,0,0-.83,.46-.75,1.25-.63,2.07-.15,.43-.3,.86-.45,1.28-2.07,3.5-.87,6.95,.13,10.41,.04,.48,.09,.97,.13,1.45-.67,1.34-.67,2.69,0,4.04,.17,.96,.01,1.88-.32,2.77-.8,.58-.91,1.26-.27,2.07-.08,.49-.16,.97-.24,1.46-.7,1.46-1.01,3.02-.89,4.67,.04,.8-.14,1.53-.59,2.17-.9,.75-1.17,1.79-1.11,2.98,.03,.2-.02,.35-.17,.47-.67,.4-.69,1.08-.63,1.8-.5,1.24-.99,2.47-1.49,3.71-.11,.22-.21,.44-.32,.67-.69,1.15-1.38,2.31-2.07,3.46-.14,.22-.28,.45-.41,.67,0,0-.02,.02-.02,.02-.45,.07-.66,.36-.67,.85-.33,.88-.93,1.49-1.62,2-.88,.38-1.81,.74-.72,2,.06,.55,.12,1.11,.18,1.66-.05,1.1-.1,2.2-.15,3.3-1.59,4.79-4.95,7.89-8.78,10-8.3,4.56-17.21,6.11-26.45,5.23-1.31-.12-2.56-.51-3.88,.38-8.06,5.48-16.17,4.16-24.19-.1-3.79-2.01-7.61-4.04-10.64-7.42,.47-.96-1.25-1.73,.13-3.07,4.14,4.76,9.32,7.87,14.9,10.1,5.84,2.34,11.67,2.97,17.77-1.02-3.51-1.25-6.34-2.7-8.1-5.73-1.22-2.11-2.94-3.32-4.95-4.04-4.14-1.49-8.19-3.22-12.24-5-4.61-2.03-8.43-4.51-8.85-10.68-.09-1.29-1.09-1.74-1.91-1.85-1.3-.18-.97,1.14-.99,1.97-.11,4.81,.52,9.45,2.62,13.74,.55,1.12,1.02,2.21-.83,2.25-.24-.24-.48-.48-.72-.72,.02-.41-.17-.61-.53-.64-.07-.25-.13-.51-.2-.76,.15-.47,.03-.64-.41-.46-4.92-1.8-8.29-6-11.94-9.72-2.78-2.83-5.87-5.35-7.83-9.07-.64-1.21-1.72-1.22-2.73-.87-6.35,2.19-12.69,2.41-19.06,.12-.89-.32-1.83-.42-2.57,.5-.74,.1-1.49,.18-1.28,1.37-.75,.18-1.51,.37-2.26,.55-.01-.58-.03-1.17-.04-1.75,.2-.24,.4-.47,.61-.71,1.35-1.49,.09-1.86-.83-2.28-3.57-1.61-6.83-3.75-9.73-6.58-1.34-1.3-2.85-1.52-4.62-1.2-5.59,1.02-11.19,2.22-16.88,1.81-5.03-.36-10.29,.41-14.8-3.21-.59-.47-1.92-.7-2.53,.34-.58,1,.13,1.68,.93,2.14,9.75,5.61,19.05,12.66,30.8,11.81,.1,0,.2,.04,.3,.05,.23,.37,.43,.32,.61-.04,1.64-.08,3.29-.15,4.93-.23,0,.62,0,1.23,0,1.85-.42,.07-.85,.13-1.27,.2-3.48-.78-6.96-.82-10.44,.01-.63-.1-1.25-.19-1.88-.29-.57-1.28-1.46-.92-2.35-.58-.45-.07-.9-.14-1.35-.21-.86-.98-1.7-2.02-3.09-1.03-.44-.15-.88-.3-1.32-.45,.02-1.62-1.07-1.48-2.01-1.56-.34-.14-.68-.28-1.02-.42-.42-.96-.85-1.06-1.31-.03-.3,.16-.59,.31-.89,.47-1.12,.17-2.66-.56-2.84,1.63-.79,.19-1.57,.39-2.36,.58-1.54-.26-2.98,.05-4.33,.88-.67,.08-1.34,.17-2.01,.25-3.47-.77-6.95-.79-10.42,.01-.87-.09-1.74-.19-2.61-.28-1.16-1.21-2.56-.92-3.93-.77-.53-.08-1.05-.17-1.58-.25-.36-.61-.76-.68-1.22-.14-1.55,.14-3.1,.28-4.64,.42-1.14-.29-2.1,.49-3.16,.65-.9,.47-1.85,.51-2.82,.37-1.06-.74-2.08-.84-3.03,.21-1.45,.35-2.91,.34-4.36-.03-.97-1.01-1.99-.91-3.04-.17-.87-.09-1.75-.17-2.62-.26-.43-.06-.86-.11-1.29-.17-.38-.05-.75-.1-1.13-.15-.67-.93-1.6-.64-2.46-.61-.2-.04-.41-.07-.61-.11-.17-.36-.37-.43-.62-.09-.65,.11-1.27,.07-1.81-.39-1.55-2.25-3.62-2.22-5.05,.07-.89,.6-1.88,.59-2.87,.6-.76-.15-1.51-.27-2.04,.58-.34,.04-.68,.09-1.02,.13-.46,.05-.93,.1-1.39,.14-1.66,.46-3.33,.76-5.04,.37,.02-.53,.03-1.07,.05-1.6,1.4-.15,2.8-.3,4.19-.45,1.16-.13,2.67,.86,3.21-1.25,.56-.06,1.11-.12,1.67-.18,.66,.11,1.31,.01,1.33-.89,.02-.88-.6-1.06-1.27-1.03-3.28-.82-6.39-2.13-9.22-4.19-.12-1.83-.09-1.9,1.68-1.06,7.25,3.44,14.69,6.17,22.52,7.4,.52,2.07,2.01,1.08,3.13,1.23,.62,.09,1.24,.17,1.85,.26,.18,.32,.38,.35,.6,.05,3.1-.1,6.21-.2,9.31-.3,1.13-.02,2.27,.01,3.39-.09,.85-.08,1.28-.91,1.35-1.66,.08-.96-.68-.94-1.32-.84-6.9-1.88-13.03-5.68-19-9.72-3.52-2.38-6.62-2.42-10.32-.54-3.74,1.9-7.85,1.73-11.81,.43-.96-.32-2.35-1.14-1.88-2.57,.47-1.43,1.62-.2,2.4,0,4.05,.99,8.01,.5,11.95-.64,10.66-3.07,20.42-8.85,30.86-12.6,.23-.08,.63-.25,.27-1.03-7.75-3.77-15.98-4.93-24.5-3.03-6.83,1.53-13.01,4.81-18.79,9.08-.68,.5-1.84,1.5-2.4,.31-.45-.94,.39-2.15,1.3-2.76,.88-.59,1.85-1.02,2.77-1.52,2.45-1.32,4.89-2.65,7.72-4.18-3.16-2.03-6.16-2.7-9.22-3.09-1.65-.21-2.85-.69-2.48-2.93,3.35-.26,6.84,1.21,10.04-1,.28,.24,.49,.14,.66-.17,3.78-.03,7.89-1.09,11.19,1.25,4.62,3.28,9.76,1.06,14.49,2.59,.92,.3,2.25-.34,3.19-.93,6.07-3.85,12.44-2.9,18.81-1.48,1.3,.29,2.45,1.45,3.67,2.21,.21,.15,.41,.3,.62,.45,1.78,.9,3.55,1.83,5.59,1.37,3.35,.51,6.74,.36,10.08,1.3m109.71,36.78c-.25-.03-.5-.07-.76-.1-.83,.08-1.74-.27-2.46,.49-1.24,.04-2.47,.07-3.71,.11-.21-.37-.42-.37-.63,0-.63,0-1.25-.02-1.88-.03-.84-.8-1.78-.58-2.72-.31-.51-.06-1.02-.14-1.53-.18-.75-.06-1.56-1.36-2.19-.29-.6,1-.19,2.28,.48,3.17,.58,.76,1.41,1.29,2.12,1.95,3.56,3.3,8.01,4.5,12.2,6.29,5.05,2.16,9.95,2.63,14.89-.91,2.49-1.78,4.52-4.01,6.77-6.01,2.18-1.94,1.49-2.68-.24-3.83-.29-.12-.58-.23-.88-.35-2.95-1.18-6.08-.83-9.11-1.23-1.25-.44-2.49-.67-3.64,.33-1.86,.23-3.72,.47-5.59,.7-.5-.67-.89-.61-1.15,.23,0,0,.02-.03,.02-.04Zm44.54-75.3c0-.38,.02-.76,.03-1.14,.97-1.76,.8-2.63-1.3-2.29-1.41,.23-2.85,.25-4.28,.36-.08-.18-.16-.37-.23-.55-.15,.2-.3,.4-.45,.6-2.99,0-5.86,.71-8.68,1.73-1.88-.29-3.67,.4-5.5,.66l-3.81,.37c-.19,.02-.39,.04-.58,.06-1.17,.47-2.98-.77-3.44,1.59-1.03,.13-.87,1.04-.95,1.8-2.82,3.2-3.21,7.84-5.44,11.39-1.23,1.95-1.02,2.66,1.34,2.57,3.92-.14,7.71-1.56,11.65-1.27,.23-.03,.47-.07,.7-.1,1.1-.25,2.19-.64,3.3-.73,5.2-.42,10.41-.68,15.61-1.25,2.6-.28,2.95-1.19,2.64-3.75-.37-3.03-.26-6.12-.35-9.19-.08-.29-.16-.58-.24-.86Zm1.69,17.62c-.1-.35-.2-.7-.3-1.06-3.2-1.7-6.39,.03-9.59-.01-2.81-.04-3.85,.99-2.27,3.97,.09,.27,.19,.55,.28,.82,1.09,2.17,2.77,3.66,4.56,5.05,1.78,1.38,3.25,2.18,3.91-1.21,.23-1.18,.86-2.34,1.85-3.1,.86-.08,1.09-.7,1.03-1.54,.65-.87,.66-1.88,.52-2.92Zm-59.94,55.46c3.66,1.23,7.35,1.01,11.05,.28,.4-.37,.84-.74,.43-1.4-1.22-1.96-2.33-3.96-3.87-5.71-7.79-8.84-17.8-10.27-28.12-10.74-.56-.03-1.43-.24-1.49,.69-.06,.91,.4,1.76,1.13,2.3,6.84,5.08,12.89,11.55,20.87,14.59Zm57.92-46.23c-.32,.12-.86,.1-.35,.72-.32,6.67-.08,13.33,.14,19.99-.97,.93-.87,1.64,.36,2.12,.79,8.12,2.73,16.19,.9,24.45-.35,1.57,.63,2.26,1.98,2.35,1.76,.12,2.48-1.37,3.33-2.63,1.33-1.98,1.39-4.47,2.01-6.72,2.35-8.47,2.85-16.97-.23-25.44-.64-1.77-1.31-3.52-1.78-5.4-1.1-4.37-2.57-8.62-3.93-13.02-1.55,1.01-1.75,2.48-2.43,3.58Zm-185.27,31.19c-5.46-1.36-10.93-2.71-16.04-5.33-1.75-.9-3.25-.84-4.99,.04-1.62,.82-1.89,1.42-.47,2.78,2.16,2.08,4.46,3.86,7.03,5.28,6.66,3.69,13.68,6.16,20.87,8.14,1.15,2.71,3.31,.94,4.98,1.39,.41,.06,.82,.12,1.22,.18,.18,.35,.39,.39,.62,.06,3.12-.06,6.25-.13,9.37-.19,1.09-.2,2.57,.79,3.05-1.25,2.2-.56,4.41-1.12,7.46-1.9-3.99-2.49-7.24-4.36-10.32-6.53-1.63-1.15-3.17-1.62-5.12-1.68-5.63-.18-11.29,.08-16.89-.82-.26-.05-.51-.1-.77-.16Zm11.13-2.08c9.76,1.17,19.97-4.31,30.33-9.11,.56-.26,1.23-.56,1.29-1.33,.1-1.12-.83-1.09-1.46-1.41-10.59-5.42-21.47-5.74-32.66-2.65-7.1,1.96-13.52,5.95-20.54,8.1-.8,.24-2.2-.13-2.17,1.28,.03,1.25,1.42,1.12,2.24,1.44,6.79,2.71,13.83,3.64,22.96,3.68Zm150.88-60.07c-6.51-5.02-13.91-3.87-16.6,1.8-3.71,7.81-8.23,15.02-12.75,22.26-1.56,2.49-3.43,3.22-5.85,3.46-.93,.09-2.39-.63-2.69,.86-.27,1.31,.92,2.21,1.79,2.99,7.63,6.79,14.09,3.71,19.13-5.31,3.57-6.4,6.39-13.26,9.27-20.07,1.36-3.23,2.93-6.39,7.7-5.97Zm7.7,103.04c7.19-.43,16-2.04,23.24-9.02,1.49-1.43,2.99-2.83,3.34-5.18,.12-.79,.48-1.65-.21-2.23-.61-.52-1.12,.17-1.64,.5-3.16,1.98-6.69,2.75-10.06,1.75-3.2-.95-5.11,.53-7.35,2.45-2.69,2.32-5.72,4.23-9.04,5.15-4.34,1.2-8.31-.04-11.79-3.21-2.02-1.84-3.79-.22-5.66,.54-1.02,.41-.98,1.2-.73,1.88,.65,1.8,1.47,3.49,3.25,4.29,4.72,2.11,9.58,3.43,16.65,3.1Zm-92.33-52.1c-8.69-3.44-16.92-5.32-25.05-2.45-7.85,2.77-15.33,6.84-22.97,10.35,.04,.29,.09,.58,.13,.87,3.57,.77,7.13,1.62,10.71,2.27,3.42,.62,6.67-.66,9.98-1.32,9.24-1.82,17.94-5.44,27.19-9.72Zm130.3,.17c0-1.15,.07-2.3-.02-3.44-.08-.97,.23-2.33-.8-2.73-1.26-.49-1.65,1.01-2.32,1.81-1.97,2.37-3.17,5.61-6.26,6.73-.5,.18-.99,.78-.93,1.62,.49,6.71-1.01,13.13-2.37,19.56-1.29,6.12-3.89,8.28-9.33,7.67-1.75-.19-2.39,1.34-2.84,2.56-.54,1.44,.92,1.96,1.78,2.26,1.67,.59,3.59,.87,5.14-.02,4.27-2.47,8.35-5.33,10.89-10.11,4.25-7.99,7.15-16.46,7.05-25.91Zm-22.46,22.65c.05-3.74-.19-3.93-3.21-2.61-.56,.25-1.12,.52-1.64,.87-7.06,4.76-14.39,9.12-20.04,16.02-.95,1.16-3.22,1.53-2.93,3,.4,2.03,2.43,2.69,4.26,3.37,2.06,.76,3.86,.67,5.91,.01,2.9-.94,5.52-2.47,7.96-4.28,5.28-3.92,8.72-9.29,9.68-16.38Zm-66.7,14.81c.15-3.18-1.29-6.15-.7-9.16,.86-4.39-1.17-6.7-4.26-8.79-3.5-2.37-7.61-4.27-9.82-8.13-1.8-3.16-3.8-3.88-6.76-3.8-3.41,.09-3.68,.37-2.23,3.79,.26,.62,.57,1.23,.96,1.76,4.79,6.57,9.41,13.36,15.62,18.41,2.34,1.9,3.77,5.18,7.2,5.92Zm-31.01-17.12c2.56-.26,5.13-.47,7.68-.8,1.45-.18,2.1-.75,.89-2.39-1.61-2.2-3.25-4.42-3.87-7.32-.32-1.5-1.37-1.75-2.67-1.56-3.32,.49-6.64,.78-9.75,2.45-1.14,.61-2.42,.23-3.79-.38-3.39-1.53-6.15-6.26-10.69-2.91-.79,.58-2.39,.37-2.57,1.45-.23,1.37,.98,2.31,1.97,3.14,6.76,5.62,14.4,8.17,22.78,8.32Zm28.35-24c2.07,3.41,5.63,5.24,6.81,8.87,1.24,3.81,4.39,4.77,6.77,6.86,1.43,1.25,2.26,.3,2.44-1.47,.15-1.42-.2-2.75-.81-3.96-2.39-4.78-6.26-7.74-10.53-10.03-1.27-.68-2.9-.93-4.7-.27Zm-102-5.54c-3.52-3.38-14.9-3.93-19.22-1.14,6.01,5.49,12.6,3.58,19.22,1.14Zm52.36-24.8c-3.62,3.24-5.92,6.39-7.88,9.88-.12,.21-.07,.71,.08,.92,.52,.77,5.4,.26,5.62-.64,.72-3.02,1.32-6.07,2.18-10.16Zm-92.15,22.21c-3.94-.83-7.53-1.43-11.31,.1,4.52,2.81,6.7,2.81,11.31-.1Z"/>
  <path class="cls-6" d="M51.47,61.87c-.41-4.45-.32-8.9,.01-13.36,.49,.17,.97,.43,1.47,.51,8.76,1.37,17.12,4.1,25.46,7.5,10.86,4.42,21.99,8.03,32.33,13.95,5.63,3.22,11.81,5.33,16.6,10.23,.5,.51,1.47,.77,1.16,1.75-.28,.86-1.21,.74-1.9,.88-2.74,.57-5.48,1.18-7.98,2.57-1.55,.86-2.86,.73-4.33-.16-4.42-2.65-9.04-4.87-13.57-7.27-5.18-2.75-10.76-4.58-16.16-6.8-9.32-3.84-18.57-7.9-28.38-10.04-1.6-.35-3.2-1.13-4.72,.26Z"/>
  <path class="cls-4" d="M194.4,97.63c-2.66,.79-5.47,1.21-7.54,3.55-.81,.11-1.69-.22-2.43,.42"/>
  <path class="cls-4" d="M199.31,94.79c.14,.37,.86,.48,1.32,.7"/>
  <path class="cls-4" d="M174.28,99.72c.21-1.81,.54-3.52,2.39-4.18-1.58-1.57-.55-3.6-.78-5.4,0,0,0,.03,0,.03,.06-.23,.11-.45,.17-.68,.41-2.04,.81-4.08,1.22-6.12,.14-.26,.29-.53,.43-.79,0,0,.05-.03,.05-.03,3.36-.31,6.72-.59,10.07-.94,1.06-.11,2.31,.44,3.08-.92,4.05-.18,8.23,.43,11.93-2.29-.52-1.22-1.49-.53-2.18-.81,0-.41-.01-.82-.02-1.24,1.63-.1,3.26-.17,4.89-.32,1.45-.13,2.49-.93,2.99-2.49,1.23-.95,.43,2.18,.49,.45,.6-.17,1.4-.83,2-1,.64,.1,.36,.9,1,1-2.3,4.66-3.29,4-6.7,7.43-7.57,7.62-16.14,13.67-26.39,16.06-1.42,.33-2.89,.88-2.31,2.81,.54,1.79,2.02,.57,2.93,.3,8.3-2.41,16.1-5.96,22.79-12.21,2.84-2.66,5.89-5.05,8.31-8.21,2.72-3.56,1.74-2.54,4.37-6.18-.51,2.66,3.55-1.32,4,0-1.28,.56-.9-1.92-.96,.31-.17,.55,.13,.78,.53,.94l-.11,.11c-.3,.03-.62,.02-.91,.1-.73,.2-1.89,0-1.8,1.26,.09,1.25,1.19,1,1.96,.93,1.78-.16,3.67,.2,5.23-1.17,3.72,.02,7.39-.4,11.05-1.13,.67-.13,1.51-.42,1.89,.51,.31,.75-.4,1.21-.69,1.78-.65,1.28-1.44,2.5-1.92,3.86-2.98,8.36-9.52,8.76-16.18,9.25-5.08,.38-10.01,2.23-15.15,2.29"/>
  <path class="cls-15" d="M133.23,107.32c-4.42,.13-8.77-.64-13.12-1.41-2.25-.54-4.01-2.09-5.89-3.42-5.16-3.65-6-6.91-2.16-11.93,2.04-2.67,.92-3.13-1.02-4.1-13.1-6.55-26.39-12.52-40.08-17.46-6.04-2.18-11.98-4.5-18.27-5.56-.81-.14-1.36-.52-1.23-1.57,1.52-1.39,3.12-.61,4.72-.26,9.81,2.13,19.06,6.2,28.38,10.04,5.41,2.23,10.99,4.05,16.16,6.8,4.53,2.41,9.15,4.62,13.57,7.27,1.47,.88,2.78,1.02,4.33,.16,2.5-1.39,5.24-2,7.98-2.57,.69-.14,1.62-.02,1.9-.88,.32-.98-.66-1.24-1.16-1.75-4.79-4.9-10.98-7-16.6-10.23-10.34-5.92-21.46-9.53-32.33-13.95-8.34-3.39-16.7-6.13-25.46-7.5-.5-.08-.98-.33-1.47-.51-.42-3.12,1.74-1.99,2.79-1.82,5.11,.82,10.12,2.22,15.09,3.78,13.66,4.29,26.89,9.98,39.86,16.29,6.42,3.12,13.32,5.99,18.57,11.18,4.05,4.01,7.9,3.83,12.56,3.5,3.7-.26,6.12-1.93,8.73-4.63,13.16-13.61,28.99-17.32,46.4-14.8,5.24,.76,10.39,1.75,15.33,3.9,1.39,.6,2.52,1.27,1.62,3.24-.6,.17-1.21,.33-1.81,.5-1.16-1.92-2.91-2.71-4.84-3.19-2.51-.62-5-1.23-7.56-1.58-12.02-1.63-23.89-2.38-35.07,4.43-5.22,3.18-10.19,6.42-14.4,11.42-5,5.94-8.75,13.35-15.68,17.35,.79,.96,1.25,2.25,2.71,1.71m-3.34-15.25c-1.73,.27-3.51,.34-5.19,.84-5.02,1.5-10.28,2.45-13.89,7.33-2.24,3.02-2.31,4.68,.6,6.72,4.23,2.96,8.8,5.29,13.92,5.47,1.74,.06,4.19,1.12,5.11-.82,.81-1.71-1.25-3.38-2.14-5-1.59-2.91-1.1-4.9,1.81-5.14,6-.48,6.65-7.11,10.74-9.67-.18-.27-.35-.55-.53-.82-1.82,.18-3.65,.36-5.47,.53-1.68-.08-3.38-.39-4.97,.55Z"/>
  <path class="cls-9" d="M50.52,103.06c-.37,2.24,.83,2.72,2.48,2.93,3.06,.38,6.06,1.06,9.22,3.09-2.82,1.53-5.27,2.86-7.72,4.18-.93,.5-1.89,.93-2.77,1.52-.91,.61-1.75,1.82-1.3,2.76,.57,1.19,1.73,.2,2.4-.31,5.78-4.27,11.96-7.55,18.79-9.08,8.52-1.9,16.75-.74,24.5,3.03,.37,.78-.04,.95-.27,1.03-10.44,3.74-20.2,9.53-30.86,12.6-3.94,1.13-7.9,1.63-11.95,.64-.78-.19-1.93-1.42-2.4,0-.47,1.43,.92,2.25,1.88,2.57,3.95,1.3,8.07,1.47,11.81-.43,3.7-1.89,6.8-1.85,10.32,.54,5.97,4.04,12.1,7.85,19,9.72,.5,1.21-.32,1.15-.98,1.33-.88,.23-2.07-.21-2.43,1.27-3.1,.1-6.21,.2-9.31,.3-.2-.02-.4-.03-.6-.05-.62-.09-1.24-.17-1.85-.26-.67-1.6-1.96-1.24-3.13-1.23-7.84-1.23-15.27-3.96-22.52-7.4-1.77-.84-1.8-.77-1.68,1.06l.06-.03c-.25-.37-.51-.37-.77,0-2.11-2.91-1.34-6.13-.47-9.13,.48-1.66,.8-2.93-.1-4.47-1.05-1.81-.49-3.71-.06-5.62,.56-2.5,1.5-5.01-.22-7.57-.3-.44-1.58-2.86,.93-3Z"/>
  <path class="cls-4" d="M296.79,78.29c-.32-1.24,1.08-3.19-1.22-3.6,0,0-.03-.04-.03-.04,.79,.62,1.35,.34,1.41-.66,.07-1.29,.19-2.63-.3-3.88,.03-.23,.07-.45,.1-.68,.16,.01,.25-.07,.27-.26,1.63-.59,3.12-1.55,4.91-1.69,5.43-.43,10.87-.87,16.26-1.62,2.39-.34,4.9,0,7.17-1.27,.11,.08,.24,.11,.37,.09,.29,.59,.8,.68,1.32,.62,7-.87,14.01-1.75,21.01-2.64,.85-.11,.87-.78,.77-1.51,.46-.53,.93-1.05,1.39-1.58,1.41-.13,2.82-.26,4.23-.39,.85,3.63,1.15,7.6,2.75,10.77,1.12,2.23-.1,3.27-.29,4.83-9.89,1.71-19.89,2.38-29.85,3.39-6.84,.69-13.58,2.12-20.4,2.94-2.62,.2-5.24,.4-7.85,.6-.25,0-.49-.02-.74-.03-.22-.15-.44-.31-.66-.46,.52-1.16,.19-2.11-.61-2.94Z"/>
  <path class="cls-13" d="M218.54,69.27c-2.63,3.64-5.2,7.35-7.92,10.91-2.41,3.16-5.46,5.56-8.31,8.21-6.69,6.25-14.49,9.8-22.79,12.21-.92,.27-2.4,1.49-2.93-.3-.58-1.93,.89-2.48,2.31-2.81,10.25-2.39,18.82-8.43,26.39-16.06,3.42-3.44,6.76-7.3,9.05-11.96,4.5-6.83,7.84-14.37,11.12-21.97,.92-2.13,.13-3.21-1.27-4.1-1.06-.68-2.3-.99-3.42-1.56-.93-.48-1.15-1.09-.27-2.04,4.43-4.75,8.81-9.55,13.22-14.32,.19-.21,.54-.24,1.14-.48,.47,6.16,.97,12.16,1.38,18.16,.41,5.97,.38,5.94-4.63,3.93-.94-.38-2.19-1.44-2.9,.36-2.97,7.52-6.68,14.6-10.18,21.81Z"/>
  <path class="cls-2" d="M219.21,160.52c1.84-.04,1.38-1.13,.83-2.25-2.1-4.29-2.73-8.93-2.62-13.74,.02-.82-.31-2.14,.99-1.97,.82,.11,1.83,.56,1.91,1.85,.42,6.17,4.24,8.65,8.85,10.68,4.05,1.78,8.1,3.51,12.24,5,2.01,.72,3.73,1.93,4.95,4.04,1.76,3.04,4.59,4.48,8.1,5.73-6.09,3.99-11.93,3.35-17.77,1.02-5.58-2.23-10.76-5.34-14.9-10.1-1.38,1.33,.34,2.11-.13,3.07-1.5-.49-2-1.88-2.44-3.34Z"/>
  <path class="cls-15" d="M306.65,81.12c6.82-.81,13.56-2.25,20.4-2.94,9.96-1.01,19.95-1.67,29.85-3.39,.82,.29,2.19,0,2.09,1.43-.09,1.38-1.39,1.04-2.26,1.14-14.77,1.68-29.43,4.47-44.27,5.31-1.81,.1-2.09,1.16-2.3,2.85-.49,3.83-.09,7.84-1.68,11.47-.53-.08-1.06-.17-1.58-.25,.18-4.57,1.68-9.02,1.03-13.67,.45-.56,1.36,.45,1.54-.38,.22-1.01-.68-.84-1.21-.9-.6-.07-1.21-.03-1.6-.68Z"/>
  <path class="cls-15" d="M354.45,59.19c-1.41,.13-2.82,.26-4.23,.39-.5-.06-1.01-.22-1.51-.16-12.27,1.31-24.54,2.65-36.81,3.98-.55-.14-1.07-.17-1.49,.34-1.66,.18-3.33,.37-4.99,.55-.02-1.37-1.47-.89-1.86-1.79,.5-.65,2.57,.16,1.53-1.93-1.47-2.95-8.12-6.55-10.88-5.45-2.02,.81-3.73,2.6-5.58,3.95-.7,.02-1.41,.03-2.11,.05,4.14-7.87,11.82-9.05,17.56-2.71,.07,.08,.19,.11,.25,.2,2.96,4.75,7.05,5.16,11.84,4.43,8.06-1.22,16.18-1.95,24.29-2.75,2.34-.23,4.72,.03,7.08,.06,.64,.08,1.31,.31,1.83-.36,.18-.51,.54-.59,.97-.46,1.25,.84,3.31-1.17,4.05,1.44l.08,.22Z"/>
  <path class="cls-9" d="M51.15,132.87c2.83,2.06,5.93,3.37,9.22,4.19,.27,.65,.41,1.29-.06,1.91-.56,.06-1.11,.12-1.67,.18-1.22-.08-2.54-.46-3.21,1.25-1.4,.15-2.8,.3-4.19,.45-1.25,.1-.59,1.12-.69,1.77-2.56,.04-1.23-2.45-.98-2.84,1.31-2.05,.86-4.33,1.13-6.51,.16-.16,.69,.24,.51-.42l-.06,.03Z"/>
  <path class="cls-13" d="M168.38,141.04c-.33,.07-.67,.14-1,.22-.57-.15-1.1-.12-1.46,.49-.42,.14-.85,.28-1.27,.42-.35-.07-.7-.15-1.04-.22-.25,.08-.5,.16-.75,.23-.44,.06-.89,.12-1.33,.18-.41-.8-1.74-.25-1.8-1.55,.82-.12,1.64-.24,2.46-.36,.86,.07,1.75,.21,1.89-1.17,1.4-.25,2.8-.49,4.2-.74,.03,.83,.07,1.67,.1,2.5Z"/>
  <path class="cls-15" d="M109.53,142.32c3.47-.8,6.95-.79,10.42-.01-3.47,.74-6.95,.78-10.42,.01Z"/>
  <path class="cls-15" d="M146.73,143.05c3.48-.83,6.96-.8,10.44-.01-3.48,.54-6.96,.58-10.44,.01Z"/>
  <path class="cls-12" d="M306.96,113.54c-.99-3.45-2.2-6.91-.13-10.41-1.14,3.49,.16,6.94,.13,10.41Z"/>
  <path class="cls-15" d="M63.55,140.63c1.43-2.29,3.5-2.32,5.05-.07-1.69-.39-3.38-.48-5.05,.07Z"/>
  <path class="cls-12" d="M354.36,58.97c-.74-2.6-2.8-.6-4.05-1.44,1.18-.94,2.56-.78,3.85-.65,1.15,.12,1.14,.39,.19,2.09Z"/>
  <path class="cls-15" d="M159.72,140.81c.06,1.3,1.39,.75,1.8,1.55-.98,.52-1.99,.8-3.08,.48,0-.62,0-1.23,0-1.85,.43-.06,.86-.12,1.28-.18Z"/>
  <path class="cls-15" d="M128.66,140.6c.18-2.19,1.72-1.46,2.84-1.63-.66,1.16-1.62,1.67-2.84,1.63Z"/>
  <path class="cls-12" d="M307.09,119.02c-.67-1.35-.66-2.69,0-4.04,.47,1.35,.44,2.69,0,4.04Z"/>
  <path class="cls-15" d="M102.99,141.27c1.37-.15,2.77-.44,3.93,.77-1.38,.17-2.73,.21-3.93-.77Z"/>
  <path class="cls-15" d="M138.05,140.95c1.39-.99,2.23,.05,3.09,1.03-1.18,.23-2.13-.43-3.09-1.03Z"/>
  <path class="cls-15" d="M121.97,142.06c1.35-.84,2.8-1.14,4.33-.88-1.36,.82-2.79,1.21-4.33,.88Z"/>
  <path class="cls-15" d="M79.15,142.33c1.05-.74,2.07-.84,3.04,.17-1.03,.34-2.05,.34-3.04-.17Z"/>
  <path class="cls-15" d="M86.54,142.53c.96-1.05,1.98-.95,3.03-.21-.99,.46-2,.58-3.03,.21Z"/>
  <path class="cls-12" d="M305.37,129.99c-.12-1.66,.19-3.21,.89-4.67,.23,1.68,.04,3.26-.89,4.67Z"/>
  <path class="cls-3" d="M233.51,70.2c-1,.52-2.05,.62-3.13,.42"/>
  <path class="cls-15" d="M134.72,138.94c.95,.08,2.03-.06,2.01,1.56-1.02,.04-1.56-.69-2.01-1.56Z"/>
  <path class="cls-15" d="M168.38,141.04c-.03-.83-.07-1.67-.1-2.5,.24-.06,.48-.13,.72-.19,.21,.23,.41,.47,.62,.7,0,0,.03,.03,.03,.03,.01,.58,.03,1.17,.04,1.75-.43,.07-.87,.14-1.3,.21Z"/>
  <path class="cls-12" d="M275.66,65.31c-.53,.8-1.13,.89-1.8,.23,.55-.62,1.16-.54,1.8-.23Z"/>
  <path class="cls-12" d="M306.5,123.86c-.64-.81-.54-1.49,.27-2.07,.35,.76,.18,1.44-.27,2.07Z"/>
  <path class="cls-15" d="M142.49,142.19c.89-.35,1.78-.7,2.35,.58-.86,.17-1.65,0-2.35-.58Z"/>
  <path class="cls-15" d="M92.39,141.95c1.06-.16,2.02-.95,3.16-.65-.93,.93-2.02,.95-3.16,.65Z"/>
  <path class="cls-12" d="M303.67,135.14c-.06-1.19,.22-2.23,1.11-2.98-.11,1.11-.21,2.23-1.11,2.98Z"/>
  <path class="cls-12" d="M349.35,58c-.52,.67-1.18,.44-1.83,.36,.62-.02,1.02-1.48,1.83-.36Z"/>
  <path class="cls-15" d="M71.65,141.14c.87-.03,1.79-.32,2.46,.61-.93,.34-1.71-.07-2.46-.61Z"/>
  <path class="cls-15" d="M58.64,141.81c.53-.85,1.28-.73,2.04-.58-.6,.54-1.25,.88-2.04,.58Z"/>
  <path class="cls-12" d="M295.56,150.8c-1.09-1.26-.17-1.62,.72-2-.24,.67-.48,1.33-.72,2Z"/>
  <path class="cls-10" d="M171.94,140.28c-.21-1.19,.55-1.27,1.28-1.37,0,.95-.23,1.64-1.28,1.37Z"/>
  <path class="cls-12" d="M283.09,64.64c-.38,.64-.78,.69-1.21,.07,.39-.35,.79-.41,1.21-.07Z"/>
  <path class="cls-3" d="M228.54,70.84c-.38,.42-.81,.48-1.28,.2,.32-.88,.72-1.17,1.28-.2Z"/>
  <path class="cls-15" d="M132.39,138.5c.46-1.02,.89-.93,1.31,.03-.44-.01-.87-.02-1.31-.03Z"/>
  <path class="cls-12" d="M295.58,155.77c.05-1.1,.1-2.2,.15-3.3,.48,1.13,.48,2.23-.15,3.3Z"/>
  <path class="cls-12" d="M302.87,137.41c-.06-.72-.05-1.4,.63-1.8,.07,.72-.16,1.31-.63,1.8Z"/>
  <path class="cls-12" d="M307.29,101.84c-.12-.81-.2-1.61,.63-2.07-.21,.69-.42,1.38-.63,2.07Z"/>
  <path class="cls-15" d="M50.55,142.62c.1-.65-.56-1.67,.69-1.77-.02,.53-.03,1.07-.05,1.6-.21,.06-.43,.11-.64,.17Z"/>
  <path class="cls-15" d="M56.23,142.09c.46-.05,.93-.1,1.39-.14-.44,.3-.9,.42-1.39,.14Z"/>
  <path class="cls-15" d="M75.23,141.9c.43,.06,.86,.11,1.29,.17-.47,.28-.89,.19-1.29-.17Z"/>
  <path class="cls-10" d="M163.6,141.94c.35,.07,.7,.15,1.04,.22-.35,.52-.79,.46-1.26,.24,.03-.18,.1-.33,.21-.46Z"/>
  <path class="cls-15" d="M165.92,141.74c.37-.61,.89-.64,1.46-.49-.41,.46-.88,.67-1.46,.49Z"/>
  <path class="cls-15" d="M100.19,140.88c.46-.54,.86-.47,1.22,.14-.41-.05-.81-.09-1.22-.14Z"/>
  <path class="cls-12" d="M297.9,146.8c0-.5,.22-.79,.67-.85,.03,.52-.22,.79-.67,.85Z"/>
  <path class="cls-7" d="M217.36,157.94c.44-.18,.56-.01,.41,.46-.14-.15-.27-.3-.41-.46Z"/>
  <path class="cls-7" d="M217.96,159.16c.35,.03,.54,.23,.53,.64-.18-.21-.35-.43-.53-.64Z"/>
  <path class="cls-12" d="M298.58,145.92c.14-.22,.28-.45,.41-.67-.14,.22-.28,.45-.41,.67Z"/>
  <path class="cls-12" d="M284.91,62.44c-.1,.27-.2,.53-.3,.8-.15-.38-.01-.63,.3-.8Z"/>
  <path class="cls-15" d="M70.42,140.95c.25-.35,.45-.27,.62,.09-.21-.03-.41-.06-.62-.09Z"/>
  <path class="cls-15" d="M113.18,105.97c-.21-.15-.41-.3-.62-.45,.21,.15,.41,.3,.62,.45Z"/>
  <path class="cls-15" d="M51.21,132.85c.18,.66-.35,.27-.51,.42,0-.21-.08-.35-.26-.43,.26-.36,.51-.36,.77,0Z"/>
  <path class="cls-3" d="M61.22,101.89c-.17,.3-.38,.41-.66,.17,.22-.06,.44-.11,.66-.17Z"/>
  <path class="cls-12" d="M301.06,141.78c.11-.22,.21-.44,.32-.67-.11,.22-.21,.44-.32,.67Z"/>
  <path class="cls-15" d="M163.6,141.94c-.11,.13-.18,.29-.21,.46-.21,0-.39-.07-.54-.23,.25-.08,.5-.16,.75-.23Z"/>
  <path class="cls-12" d="M307.91,99.78c.07-.23,.15-.46,.22-.69,.22,.35,.1,.56-.22,.69Z"/>
  <path class="cls-6" d="M135.78,99.8c-1.46,.54-1.91-.75-2.71-1.71,6.93-4,10.68-11.41,15.68-17.35,4.21-5,9.18-8.24,14.4-11.42,11.18-6.82,23.05-6.07,35.07-4.43,2.56,.35,5.06,.96,7.56,1.58,1.93,.48,3.68,1.27,4.84,3.19-.07,1.73-.9,2.95-2.13,3.9-8.42,.62-16.5-1.4-24.5-3.97-5.4-1.73-9.98-.43-14.31,3.61-6.17,5.76-11.55,12.27-16.28,19.48-1.15,1.75-2.55,3.29-4.41,4.18-1,.48-1.86,1.07-1.48,2.55-.79,.49-1.56,.11-2.37,.01-3.14-.38-6.29-.64-9.39,.37Z"/>
  <path class="cls-9" d="M108.62,126.07c-9.13-.03-16.18-.97-22.96-3.68-.81-.32-2.2-.2-2.24-1.44-.04-1.41,1.37-1.03,2.17-1.28,7.02-2.16,13.44-6.14,20.54-8.1,11.18-3.09,22.07-2.76,32.66,2.65,.63,.32,1.56,.29,1.46,1.41-.07,.77-.74,1.07-1.29,1.33-10.36,4.81-20.57,10.28-30.33,9.11Z"/>
  <path class="cls-6" d="M288.62,59.08c1.85-1.35,3.56-3.14,5.58-3.95,2.75-1.1,9.41,2.5,10.88,5.45,1.04,2.09-1.03,1.27-1.53,1.93-1.45,.07-2.89,.14-4.34,.21-.2-.06-.41-.12-.61-.18h0c-.2-.14-.4-.28-.6-.41-2.72-.81-2.2,1.59-2.54,3.15-.52,.62-.59,1.34-.37,2.12-.02,.68-.04,1.36-.06,2.04-.01,.45-.02,.91-.03,1.36-.13,1.34-.07,2.65,.54,3.86,0,0,.03,.04,.03,.04,.2,6.41,.44,12.82,.59,19.23,.08,3.45-.21,6.86-1.2,10.16-.47,1.55-1.03,3.39-2.66,3.34-1.71-.05-1.2-2.17-1.67-3.41-2.48-6.49-3.91-13.31-4.57-20.26-.8-8.38-2.05-16.95,2.56-24.69Z"/>
  <path class="cls-6" d="M259.5,66c-4.77-.42-6.34,2.74-7.7,5.97-2.88,6.81-5.7,13.68-9.27,20.07-5.04,9.02-11.5,12.1-19.13,5.31-.87-.78-2.06-1.67-1.79-2.99,.31-1.49,1.76-.77,2.69-.86,2.42-.23,4.29-.97,5.85-3.46,4.52-7.24,9.04-14.45,12.75-22.26,2.69-5.67,10.09-6.82,16.6-1.8Z"/>
  <path class="cls-9" d="M103.89,139.05c-7.19-1.98-14.21-4.45-20.87-8.14-2.57-1.42-4.87-3.2-7.03-5.28-1.42-1.37-1.15-1.97,.47-2.78,1.74-.88,3.24-.93,4.99-.04,5.11,2.62,10.58,3.97,16.04,5.33,.26,.05,.51,.1,.77,.16,5.6,.9,11.26,.64,16.89,.82,1.95,.06,3.49,.53,5.12,1.68,3.08,2.17,6.34,4.04,10.32,6.53-3.05,.78-5.25,1.34-7.46,1.9-1.15,.03-2.47-.47-3.05,1.25-3.12,.06-6.25,.13-9.37,.19-.21-.02-.41-.04-.62-.06l-1.22-.18c-1.3-2.04-3.26-1.18-4.98-1.39Z"/>
  <path class="cls-5" d="M173.36,97.71c-.5,4.23-.35,8.48-.08,12.7,.16,2.44-.56,3.12-2.61,2.52-1.19-.35-2.42-.58-3.64-.75-5.39-.75-5.09-.01-4.58-6.79,.57-7.54,.85-15.12,3.68-22.17,1.3-3.23,2.69-6.38,5.21-8.8,4.29-4.12,11.45-4.66,16.06-1,.5,.4,1.23,.67,1.13,1.46-.13,1.11-1.08,.83-1.74,.94-.92,.15-1.84,.31-2.77,.34-5.83,.16-6.34,.58-8.24,6.98-.61,1.09-.86,2.28-.8,3.55-.15,.47-.29,.95-.44,1.42-.7,3.15-1.12,6.34-1.19,9.59Z"/>
  <path class="cls-4" d="M261.45,85.99c-3.94-.29-7.73,1.13-11.65,1.27-2.35,.09-2.57-.62-1.34-2.57,2.24-3.54,2.63-8.18,5.44-11.39,2.49-.19,4.98-.38,7.47-.57,1.28,0,2.63,.54,3.72-.69,.42-.08,.84-.16,1.26-.23,.87,.53,1.71,.39,2.54-.12,1.42-.1,2.83-.19,4.25-.29,.23-.04,.46-.08,.69-.12,.55-.09,1.1-.18,1.65-.27,.84,.54,1.58,.44,2.19-.42,.33-.01,.67-.02,1-.03,1.55,.14,3.1,.28,4.66,.42,.1,3.07-.01,6.16,.35,9.19,.31,2.56-.04,3.47-2.64,3.75-5.2,.57-10.41,.83-15.61,1.25-1.11,.09-2.2,.48-3.3,.73-.23,.03-.47,.07-.7,.1Z"/>
  <path class="cls-9" d="M168.99,138.34c-.24,.06-.48,.13-.72,.19-1.4,.25-2.8,.49-4.2,.74-.94-.24-1.63,.04-1.89,1.17-.82,.12-1.64,.24-2.46,.36-.43,.06-.86,.12-1.28,.18-1.64,.08-3.29,.15-4.93,.23-.2,.01-.41,.03-.61,.04-.1-.02-.2-.06-.3-.05-11.75,.85-21.05-6.2-30.8-11.81-.8-.46-1.51-1.13-.93-2.14,.61-1.05,1.94-.82,2.53-.34,4.52,3.62,9.77,2.85,14.8,3.21,5.7,.41,11.3-.79,16.88-1.81,1.77-.32,3.28-.11,4.62,1.2,2.9,2.83,6.16,4.97,9.73,6.58,.92,.42,2.18,.78,.83,2.28-.21,.03-.42,.06-.63,.09-.21-.04-.42-.08-.62-.12Z"/>
  <path class="cls-9" d="M189.44,113.24c.45-.06,.9-.13,1.35-.19,.2-.03,.4-.06,.6-.09,0,0-.02,0-.02,0s.29,.08,.29,.08l.26-.17c.89,.06,1.75-.09,2.53-.58,3.87-.13,7.74-.55,11.59,.23,1.72,.8,3.44,1.6,5.16,2.39,.24,.63,.27,1.46,1.17,1.41,2.01,1.87,4.23,3.51,5.68,6.04,.79,1.37,.98,2.35-.97,2.18-1.82-.15-3.63-.3-5.45-.45-.57-.5-1.23-.45-1.89-.37l-.24,.02s-.22-.11-.22-.11c-.24-.34-.51-.37-.83-.13-3.28-.25-6.57-.36-9.83-.8-7.17-.96-14.12,.5-21.04,2.15-2.05,.49-3.87,.24-5.62-.88-.6-.38-1.39-.77-1.37-1.7,.02-1.03,.92-1.03,1.56-1.32,3.32-1.52,6.61-3.09,9.94-4.56,.65-.29,1.05-.64,1.17-1.38,.34-.18,.67-.35,1.01-.53,.69-.1,1.38-.2,2.07-.3,.35-.1,.7-.2,1.04-.3,.48-.18,.96-.36,1.44-.54,.19-.04,.39-.07,.58-.11Z"/>
  <path class="cls-2" d="M267.2,169.04c-7.07,.33-11.93-.99-16.65-3.1-1.78-.79-2.6-2.49-3.25-4.29-.25-.68-.29-1.47,.73-1.88,1.87-.76,3.64-2.38,5.66-.54,3.48,3.17,7.45,4.41,11.79,3.21,3.32-.92,6.34-2.83,9.04-5.15,2.24-1.92,4.15-3.4,7.35-2.45,3.38,1,6.9,.23,10.06-1.75,.52-.33,1.03-1.01,1.64-.5,.69,.58,.33,1.45,.21,2.23-.35,2.35-1.85,3.75-3.34,5.18-7.24,6.98-16.06,8.59-23.24,9.02Z"/>
  <path class="cls-2" d="M282.56,117.67c-.23-6.66-.47-13.32-.14-19.99,.12-.24,.23-.48,.35-.72,.68-1.1,.88-2.58,2.43-3.58,1.35,4.41,2.82,8.66,3.93,13.02,.47,1.87,1.14,3.63,1.78,5.4,3.09,8.47,2.58,16.96,.23,25.44-.62,2.25-.68,4.74-2.01,6.72-.85,1.26-1.58,2.75-3.33,2.63-1.35-.09-2.33-.78-1.98-2.35,1.83-8.26-.11-16.32-.9-24.45,.15-.76,.24-1.51-.36-2.12Z"/>
  <path class="cls-9" d="M174.87,116.94c-9.26,4.28-17.95,7.91-27.19,9.72-3.31,.65-6.57,1.94-9.98,1.32-3.59-.65-7.14-1.51-10.71-2.27-.04-.29-.09-.58-.13-.87,7.64-3.5,15.12-7.58,22.97-10.35,8.13-2.87,16.37-.99,25.05,2.45Z"/>
  <path class="cls-2" d="M258.91,145.77c1.74,1.15,2.43,1.89,.24,3.83-2.25,2-4.28,4.23-6.77,6.01-4.94,3.54-9.85,3.07-14.89,.91-4.18-1.79-8.64-2.99-12.2-6.29-.7-.65-1.54-1.18-2.12-1.95-.68-.89-1.09-2.17-.48-3.17,.64-1.07,1.44,.23,2.19,.29,.51,.04,1.02,.12,1.53,.18,.87,.51,1.78,.52,2.72,.31,.63,0,1.25,.02,1.88,.03,.21,0,.42,0,.63,0,1.24-.04,2.47-.07,3.71-.11,.84-.02,1.67-.03,2.51-.05,.24-.11,.47-.23,.71-.34,0,0-.02,.03-.02,.03,.38-.08,.77-.15,1.15-.23,1.86-.23,3.72-.47,5.59-.7,1.21-.11,2.43-.22,3.64-.33,3.04,.4,6.16,.05,9.12,1.23,.29,.12,.58,.23,.87,.35Z"/>
  <path class="cls-2" d="M305.17,117.1c.1,9.45-2.8,17.93-7.05,25.91-2.54,4.77-6.62,7.64-10.89,10.11-1.54,.89-3.47,.61-5.14,.02-.86-.3-2.32-.83-1.78-2.26,.46-1.22,1.09-2.75,2.84-2.56,5.44,.6,8.03-1.56,9.33-7.67,1.36-6.44,2.86-12.85,2.37-19.56-.06-.83,.42-1.43,.93-1.62,3.09-1.12,4.29-4.36,6.26-6.73,.67-.8,1.06-2.3,2.32-1.81,1.03,.4,.72,1.76,.8,2.73,.09,1.14,.02,2.29,.02,3.44Z"/>
  <path class="cls-2" d="M282.71,139.75c-.96,7.09-4.4,12.47-9.68,16.38-2.44,1.81-5.06,3.34-7.96,4.28-2.06,.66-3.85,.75-5.91-.01-1.83-.68-3.87-1.34-4.26-3.37-.29-1.47,1.98-1.84,2.93-3,5.65-6.9,12.98-11.26,20.04-16.02,.52-.35,1.08-.62,1.64-.87,3.03-1.32,3.26-1.13,3.21,2.61Z"/>
  <path class="cls-1" d="M216.01,154.56c-3.43-.74-4.86-4.02-7.2-5.92-6.21-5.05-10.82-11.84-15.62-18.41-.39-.53-.7-1.14-.96-1.76-1.44-3.43-1.18-3.7,2.23-3.79,2.96-.08,4.96,.64,6.76,3.8,2.21,3.87,6.32,5.77,9.82,8.13,3.09,2.09,5.13,4.4,4.26,8.79-.59,3.01,.85,5.98,.7,9.16Z"/>
  <path class="cls-1" d="M224.85,143.19c-7.98-3.05-14.03-9.52-20.87-14.59-.73-.54-1.19-1.39-1.13-2.3,.06-.94,.93-.72,1.49-.69,10.33,.47,20.34,1.9,28.12,10.74,1.54,1.75,2.65,3.75,3.87,5.71,.42,.67-.03,1.03-.43,1.4-3.68-.09-7.37-.19-11.05-.28Z"/>
  <path class="cls-9" d="M185,137.44c-8.39-.16-16.03-2.71-22.78-8.32-.99-.83-2.2-1.76-1.97-3.14,.18-1.08,1.79-.87,2.57-1.45,4.54-3.35,7.3,1.38,10.69,2.91,1.36,.61,2.65,.99,3.79,.38,3.11-1.66,6.43-1.96,9.75-2.45,1.29-.19,2.35,.06,2.67,1.56,.62,2.9,2.25,5.12,3.87,7.32,1.21,1.64,.56,2.21-.89,2.39-2.56,.32-5.12,.54-7.68,.8Z"/>
  <path class="cls-6" d="M268.14,106.13c-3.23-4.71-6.67-9.21-8.27-15.09-.67-2.44,.14-2.83,1.85-3.02,.93-.1,1.85-.21,2.77-.34,4.62-.63,4.51-.57,6.5,4.12,1.5,3.54,4.17,6.04,7.28,7.67,1.44,.75,1.77,1.53,1.74,3.05-.06,2.98-.02,5.97-.02,8.95-4.58-.07-8.29-2.51-11.85-5.35Z"/>
  <path class="cls-6" d="M307.92,83.08c.65,4.65-.85,9.1-1.03,13.67-1.79,7.24-4.76,13.72-9.73,18.97-.67,.71-1.27,1.65-2.1,1.43-.68-.18-1.29-1.03-1.26-2.13,.03-1.23-.35-2.39-.97-3.39-.54-.88-.46-1.37,.42-1.84,3.68-1.95,4.46-5.8,4.71-9.72,.25-3.99,.25-8.02,.04-12.02-.15-2.94,.32-4.68,3.39-4.17,.48,.08,1.01-.16,1.51-.25,.88,.17,1.76,.32,2.5-.46,.84-.03,1.68-.06,2.51-.09Z"/>
  <path class="cls-1" d="M213.35,113.44c1.79-.66,3.43-.41,4.7,.27,4.27,2.29,8.13,5.25,10.53,10.03,.61,1.22,.95,2.55,.81,3.96-.18,1.76-1.01,2.72-2.44,1.47-2.39-2.09-5.53-3.05-6.77-6.86-1.18-3.62-4.74-5.46-6.81-8.87Z"/>
  <path class="cls-9" d="M111.35,107.9c-6.62,2.44-13.22,4.34-19.22-1.15,4.32-2.79,15.71-2.24,19.22,1.15Z"/>
  <path class="cls-2" d="M269.97,141.08c-4.2,3.7-8.7,4.27-13.61,1.86-2.27-1.11-.53-1.67,.11-2.45,.79-.02,1.07-.61,1.23-1.35,.61-.2,1.22-.4,1.84-.6,2.26-.14,4.52-.28,6.78-.42,1.25,.35,2.5,.69,3.75,1.04-.03,.64-.06,1.29-.09,1.93Z"/>
  <path class="cls-2" d="M244.03,138.5c-.14,1.35,2.54,3.02,.25,3.82-1.9,.67-4.85,2.64-6.22-.79-1.11-2.77-3.77-4.57-3.81-7.92,1.4,.24,2.81,.48,4.21,.71,.96,.5,1.91,1,2.87,1.5,.44,.79,1.08,1.28,1.86,1.58,0,.16,.07,.25,.2,.29,.22,.27,.43,.54,.65,.81Z"/>
  <path class="cls-15" d="M206.07,112.52c-3.85-.78-7.73-.36-11.59-.23-1.49-1.73-3.43-.38-5.09-.94,2.1-.44,4.19-.91,6.29-1.32,.87-.17,1.9-.44,1.58-1.57-.82-2.89-.29-6.16-2.03-8.77,.06-.85-.44-1.43-.82-2.06,.86-1.26,1.74-2.46,3.11-.63,.09,.75,.17,1.49,.26,2.24,.3,1.4,.61,2.79,.91,4.19,.03,.38,.05,.77,.08,1.15-.08,.99-.16,1.98,.55,2.78-.1,2.68,1.53,2.32,3.05,2.13,.19,.29,.41,.35,.66,.09,1.06,.4,2.13,.8,3.19,1.2-.05,.58-.1,1.16-.14,1.73Z"/>
  <path class="cls-2" d="M281.22,121.17c.35,3.42,.72,6.83,1.04,10.25,.17,1.82-2.97,4.5-4.56,4-1.18-.37-.55-1.29-.49-1.95,.42-4.21,1.21-8.33,2.85-12.19,.39-.03,.77-.07,1.16-.1Z"/>
  <path class="cls-5" d="M195.22,99.7c1.75,2.61,1.21,5.88,2.03,8.77,.32,1.12-.71,1.4-1.58,1.57-2.1,.4-4.19,.88-6.29,1.32-.81,.14-1.61,.27-2.42,.41-.1-.22-.26-.35-.48-.39,0,0,.01,.03,.01,.03-.61-3.28-.66-6.71-2.05-9.79,.74-.64,1.62-.32,2.43-.42,.03,1.84,.11,3.67,.07,5.51-.03,1.38,.57,2.47,1.66,2.48,2.13,.03,4.27-.28,6.38-.63,.67-.11,.93-1.24,.54-1.69-2.03-2.34-.33-4.77-.29-7.15Z"/>
  <path class="cls-4" d="M163.72,83.1c-.87,4.09-1.46,7.15-2.18,10.16-.21,.9-5.1,1.41-5.62,.64-.15-.22-.2-.71-.08-.92,1.96-3.49,4.26-6.64,7.88-9.88Z"/>
  <path class="cls-4" d="M268.19,68.82c2.82-1.03,5.69-1.74,8.68-1.73,.23-.01,.45-.03,.68-.04,1.43-.11,2.87-.14,4.28-.36,2.11-.34,2.28,.54,1.3,2.29-2.44,.08-4.9-.08-7.21,1.08,0,0,.04-.03,.04-.03-2.59,.02-5.19,.04-7.78,.06,0-.42,0-.85,.01-1.27Z"/>
  <path class="cls-15" d="M268.14,106.13c3.57,2.84,7.27,5.28,11.85,5.35,.08,1.18,1.7,1.99,.67,3.44-.84-1.24-2.11-1.23-3.32-1.49-4.01-.86-7.66-2.53-10.45-6.03,.6-.21,1.02-.63,1.25-1.28Z"/>
  <path class="cls-12" d="M190.9,80.69c-.77,1.36-2.02,.81-3.08,.92-3.35,.35-6.71,.64-10.07,.94,1.02-1.22-.13-4.05,2.46-4.11-.67,1-.92,1.75,.62,1.98,2.11,.31,3.82-.63,5.44-1.93,.74-.04,1.48-.08,2.23-.12l1.04,.36c-.23,1.24,.48,1.67,1.36,1.96Z"/>
  <path class="cls-15" d="M184.44,101.61c1.4,3.08,1.45,6.51,2.05,9.79-.45,.33-1.07-1.73-1.32,.04-.32,2.2-1.65,2.18-3.11,2.11,2.02-.77,2.13-2.26,1.74-4.39-.45-2.5-1.66-5.26,.63-7.54Z"/>
  <path class="cls-9" d="M71.57,105.31c-4.61,2.91-6.79,2.91-11.31,.1,3.78-1.54,7.37-.93,11.31-.1Z"/>
  <path class="cls-4" d="M218.45,75.36s.11-.11,.11-.11c.01-.28,.02-.57,.03-.85,4.37-.26,8.6-1.88,13.02-1.62-.15,.58-.29,1.16-.44,1.74-2.64,.83-5.39,.18-8.05,.65-1.58-.66-3.09,.84-4.67,.18Z"/>
  <path class="cls-15" d="M173.36,97.71c.07-3.25,.49-6.44,1.19-9.59,0,2.25,0,4.49,0,7.28,1.23-1.92-.08-4,1.34-5.26,.23,1.81-.8,3.84,.78,5.4-1.84,.65-2.18,2.37-2.39,4.18-.53-.55-.08-1.64-.92-2.01Z"/>
  <path class="cls-13" d="M218.45,75.36c1.58,.66,3.09-.84,4.67-.18-.07,.43-.13,.87-.2,1.3-1.56,1.38-3.45,1.01-5.23,1.17-.77,.07-1.87,.32-1.96-.93-.09-1.26,1.07-1.06,1.8-1.26,.29-.08,.61-.07,.91-.1Z"/>
  <path class="cls-4" d="M189.54,78.73l-1.04-.36c3.9-1.75,8.06-1.55,12.13-2.01,0,.41,.01,.82,.02,1.24-3.63,1.27-7.44,.37-11.11,1.13Z"/>
  <path class="cls-4" d="M268.19,68.82c0,.42,0,.85-.01,1.27-1.19,.33-2.59,.26-3.08,1.96-1.09,1.23-2.45,.69-3.72,.69,.47-.19,.96-.34,1.41-.58,1.47-.77-.17-.65-.23-.98,.05-.57,.09-1.13,.14-1.7,1.83-.26,3.62-.95,5.5-.66Z"/>
  <path class="cls-12" d="M262.55,71.17c.06,.33,1.71,.21,.23,.98-.45,.24-.94,.39-1.41,.58-2.49,.19-4.98,.38-7.47,.57,.08-.76-.09-1.67,.95-1.8,1.14-.05,2.29-.11,3.43-.16,.22-.02,.44-.04,.65-.06,1.21-.04,2.41-.07,3.62-.11Z"/>
  <path class="cls-4" d="M262.55,71.17c-1.21,.04-2.41,.07-3.62,.11-.22,.02-.44,.04-.66,.06-1.14,.05-2.29,.11-3.43,.16,.46-2.36,2.27-1.12,3.44-1.59,.19-.02,.39-.04,.58-.06,1.27-.12,2.54-.25,3.81-.37-.05,.57-.09,1.13-.14,1.7Z"/>
  <path class="cls-15" d="M238.45,134.32c-1.4-.24-2.81-.48-4.21-.71-.66-.23-1.06-.75-1.36-1.41,2.3-1.11,4.51-.67,6.69,.46-.89,.12-1.76,.27-1.12,1.66Z"/>
  <path class="cls-4" d="M231.17,74.52c.15-.58,.29-1.16,.44-1.74,2.06-.18,4.11-.88,6.26,.04-2.12,1.12-4.38,1.52-6.7,1.7Z"/>
  <path class="cls-4" d="M186.27,78.49c-1.62,1.3-3.33,2.24-5.44,1.93-1.54-.22-1.29-.98-.62-1.98,2.02,.02,4.04,.03,6.06,.05Z"/>
  <path class="cls-15" d="M90.25,140.44c.36-1.48,1.55-1.04,2.43-1.27,.66-.17,1.49-.12,.98-1.33,.64-.09,1.41-.12,1.32,.84-.06,.76-.5,1.59-1.35,1.66-1.13,.1-2.26,.07-3.39,.09Z"/>
  <path class="cls-15" d="M224.85,143.19c3.68,.09,7.37,.19,11.05,.28-3.7,.74-7.39,.95-11.05-.28Z"/>
  <path class="cls-15" d="M103.89,139.05c1.72,.21,3.67-.65,4.98,1.39-1.66-.45-3.82,1.32-4.98-1.39Z"/>
  <path class="cls-15" d="M275.92,70.05c2.31-1.15,4.77-1,7.21-1.08,0,.38-.02,.76-.03,1.14-1.48,.1-2.98-.18-4.42,.45-.33,.01-.67,.02-1,.03-.59-.18-1.18-.36-1.77-.54Z"/>
  <path class="cls-15" d="M281.22,121.17c-.39,.03-.77,.07-1.16,.1,0-1.22-.62-1.21-1.4-.86,.25-1.29,1-2.22,1.79-3.12,.25,1.29,.51,2.59,.76,3.88Z"/>
  <path class="cls-3" d="M211.18,94.36c-1.03,2.21-2.38,1.42-3.75,.49,1.2-.66,2.47-.65,3.75-.49Z"/>
  <path class="cls-15" d="M120.09,140.48c.59-1.72,1.91-1.22,3.05-1.25-.48,2.04-1.96,1.05-3.05,1.25Z"/>
  <path class="cls-3" d="M209.32,111.49c.97-.58,1.82-1.82,3.1-.67-.96,.64-1.84,1.75-3.1,.67Z"/>
  <path class="cls-15" d="M75.35,139.21c1.18,0,2.47-.36,3.13,1.23-1.13-.15-2.62,.84-3.13-1.23Z"/>
  <path class="cls-9" d="M55.44,140.4c.66-1.71,1.98-1.33,3.21-1.25-.54,2.1-2.05,1.11-3.21,1.25Z"/>
  <path class="cls-15" d="M269.97,141.08c.03-.64,.06-1.29,.09-1.93,.06-.67,.12-1.34,.18-2.01,.38,.2,.76,.4,1.14,.61-.34,1.18,.66,3.05-1.4,3.33Z"/>
  <path class="cls-15" d="M243.17,137.4c-.77-.31-1.42-.79-1.86-1.58,.63-.29,.84-.86,.85-1.56,.98,.18,1.62,.83,2.03,1.81-.34,.45-.68,.89-1.02,1.34Z"/>
  <path class="cls-11" d="M278.69,70.56c1.43-.63,2.94-.35,4.42-.45,.08,.29,.16,.58,.24,.86-1.55-.14-3.1-.28-4.66-.42Z"/>
  <path class="cls-15" d="M305.41,83.17c-.74,.77-1.62,.62-2.5,.46,.64-1.46,1.51-1.35,2.5-.46Z"/>
  <path class="cls-15" d="M296.79,78.29c.8,.83,1.12,1.78,.61,2.94-1.11-.75-.64-1.9-.61-2.94Z"/>
  <path class="cls-15" d="M174.98,86.7c-.07-1.28,.18-2.47,.8-3.55-.15,1.22,.59,2.68-.8,3.55Z"/>
  <path class="cls-15" d="M282.56,117.67c.6,.61,.51,1.36,.36,2.12-1.23-.47-1.33-1.18-.36-2.12Z"/>
  <path class="cls-15" d="M245.19,90.8c.13,1.17-.46,1.93-1.2,2.61,.13-1.02-.24-2.34,1.2-2.61Z"/>
  <path class="cls-15" d="M248.92,144.19c-1.21,.11-2.43,.22-3.64,.33,1.15-1,2.39-.76,3.64-.33Z"/>
  <path class="cls-15" d="M60.31,138.97c.47-.62,.33-1.26,.06-1.91,.67-.03,1.3,.15,1.27,1.03-.02,.9-.67,.99-1.33,.89Z"/>
  <path class="cls-15" d="M257.7,139.14c-.15,.74-.44,1.33-1.23,1.35,.04-.87,.07-1.73,.11-2.6,0,0-.03,.07-.03,.08,.38,.4,.76,.78,1.15,1.17Z"/>
  <path class="cls-15" d="M248.36,89.4c-.6,.38-1.23,.32-1.87,.14,.57-.97,1.19-1.02,1.87-.14Z"/>
  <path class="cls-3" d="M216.13,110.82c.88-1.06,1.52-.97,1.88,.48-.68,.09-1.32,.02-1.88-.48Z"/>
  <path class="cls-15" d="M174.59,105.98c.04,1.13,.08,2.25,.13,3.38-1.1-1.08-.96-2.21-.13-3.38Z"/>
  <path class="cls-3" d="M222.56,99.64c-.98,.13-1.46-.33-1.37-1.45,.68,.23,1.1,.75,1.37,1.45Z"/>
  <path class="cls-8" d="M209.77,123.73c.66-.09,1.32-.13,1.89,.37-.69,.23-1.35,.32-1.89-.37Z"/>
  <path class="cls-15" d="M253.53,140.46c.02-.76,.14-1.44,1-1.51,.06,.82-.13,1.44-1,1.51Z"/>
  <path class="cls-15" d="M253.95,88.72c-.39,.4-.82,.4-1.27,.14,.35-.81,.76-1,1.27-.14Z"/>
  <path class="cls-15" d="M212.4,116.32c-.9,.05-.93-.79-1.17-1.41,.85,0,1.17,.54,1.17,1.41Z"/>
  <path class="cls-12" d="M237.86,145.75c-.84,.02-1.67,.03-2.51,.05,.72-.76,1.63-.41,2.46-.5,.03,.15,.05,.3,.05,.45Z"/>
  <path class="cls-12" d="M229.13,145.88c-.94,.21-1.85,.2-2.72-.31,.94-.27,1.88-.49,2.72,.31Z"/>
  <path class="cls-15" d="M283.24,92.2c.07-.74,.12-1.5,1.03-1.54,.05,.84-.17,1.46-1.03,1.54Z"/>
  <path class="cls-15" d="M249.06,142.22c.78-.38,1.57-.33,2.35-.02-.78,.56-1.56,.52-2.35,.02Z"/>
  <path class="cls-15" d="M244.22,136.09c.74,.19,1.16,.74,1.35,1.53-.79-.13-1.3-.58-1.35-1.53Z"/>
  <path class="cls-15" d="M282.77,96.96c-.12,.24-.23,.48-.35,.72-.51-.62,.03-.6,.35-.72Z"/>
  <path class="cls-15" d="M239.69,145.22c-.38,.08-.77,.15-1.15,.23,.26-.84,.65-.9,1.15-.23Z"/>
  <path class="cls-15" d="M258.23,92.31c-.39-.42-.37-.92-.23-1.45,.08,.48,.16,.97,.23,1.45Z"/>
  <path class="cls-15" d="M277.55,67.04c-.23,.01-.45,.03-.68,.04,.15-.2,.3-.4,.45-.6,.08,.18,.16,.37,.23,.55Z"/>
  <path class="cls-15" d="M275.84,128.71c.12-.51,.24-1.03,.37-1.54,.15,.59,.15,1.14-.37,1.54Z"/>
  <path class="cls-15" d="M98.26,128.3c-.26-.05-.51-.1-.77-.16,.26,.05,.51,.1,.77,.16Z"/>
  <path class="cls-15" d="M258.78,93.71c-.36-.14-.49-.43-.41-.84,.14,.28,.27,.56,.41,.84Z"/>
  <path class="cls-15" d="M272.64,90.63c.29,.19,.51,.41,.28,.82-.09-.27-.19-.55-.28-.82Z"/>
  <path class="cls-15" d="M244.03,138.5c-.22-.27-.43-.54-.65-.81,.22,.27,.43,.54,.65,.81Z"/>
  <path class="cls-8" d="M208.49,123.51c.31-.24,.59-.21,.83,.13-.28-.04-.55-.09-.83-.13Z"/>
  <path class="cls-15" d="M169.62,138.46c.21-.03,.42-.06,.63-.09-.2,.24-.4,.47-.61,.71,0,0-.03-.03-.03-.03-.03-.2-.03-.39,0-.59Z"/>
  <path class="cls-15" d="M184.3,114.48c-.34,.18-.67,.35-1.01,.53,.22-.46,.55-.63,1.01-.53Z"/>
  <path class="cls-15" d="M187.42,113.89c-.35,.1-.7,.2-1.04,.3,.28-.38,.63-.48,1.04-.3Z"/>
  <path class="cls-15" d="M110.1,140.62c.21,.02,.41,.04,.62,.06-.23,.34-.44,.3-.62-.06Z"/>
  <path class="cls-15" d="M259.17,94.79c-.14-.37-.27-.75-.41-1.12,.48,.22,.61,.6,.41,1.12Z"/>
  <path class="cls-15" d="M258.91,145.77c-.29-.12-.58-.23-.87-.35,.29,.12,.58,.23,.87,.35Z"/>
  <path class="cls-15" d="M176.05,89.5c-.06,.23-.11,.45-.17,.68,.06-.23,.11-.45,.17-.68Z"/>
  <path class="cls-15" d="M191.4,112.95c-.2,.03-.4,.06-.6,.09,.2-.03,.4-.06,.6-.09Z"/>
  <path class="cls-15" d="M189.44,113.24c-.19,.04-.39,.07-.58,.11,.15-.32,.34-.38,.58-.11Z"/>
  <path class="cls-15" d="M191.94,112.87l-.26,.17s-.29-.08-.29-.08c.14-.42,.31-.5,.56-.09Z"/>
  <path class="cls-3" d="M218.56,111.52c.22,.1,.43,.2,.65,.31-.34,.22-.54,.09-.65-.31Z"/>
  <path class="cls-15" d="M186.48,111.37c.22,.05,.38,.18,.48,.39-.4,.23-.49,0-.48-.39Z"/>
  <path class="cls-11" d="M218.59,74.4c-.01,.28-.02,.56-.03,.85-.39-.16-.69-.39-.53-.94,.21-.14,.39-.11,.56,.09Z"/>
  <path class="cls-15" d="M237.86,145.75c0-.15-.02-.3-.05-.45,.25,.04,.5,.07,.76,.11-.23,.11-.47,.23-.71,.34Z"/>
  <path class="cls-15" d="M152.89,141.26c.2-.01,.41-.03,.61-.04-.18,.36-.39,.41-.61,.04Z"/>
  <path class="cls-15" d="M80.34,140.7c.2,.02,.4,.03,.6,.05-.22,.3-.42,.27-.6-.05Z"/>
  <path class="cls-15" d="M284.79,87.73c-.1-.35-.2-.7-.3-1.06,.1,.35,.2,.7,.3,1.06Z"/>
  <path class="cls-12" d="M231.64,145.91c-.21,0-.42,0-.63,0,.21-.37,.42-.37,.63,0Z"/>
  <path class="cls-11" d="M258.87,69.85c-.2,.02-.39,.04-.58,.06,.2-.02,.39-.04,.58-.06Z"/>
  <path class="cls-15" d="M252.27,141.86c.15-.15,.3-.29,.45-.44-.15,.15-.3,.29-.45,.44Z"/>
  <path class="cls-14" d="M177.7,82.59c-.14,.26-.29,.53-.43,.79-.18-.48-.05-.75,.43-.79Z"/>
  <path class="cls-15" d="M298.06,81.7c.25,0,.49,.02,.74,.03-.25,0-.49-.02-.74-.03Z"/>
  <path class="cls-15" d="M261.34,99.18c-.15-.26-.3-.52-.45-.78,.15,.26,.3,.52,.45,.78Z"/>
  <path class="cls-15" d="M261.45,85.99c.23-.03,.47-.07,.7-.1-.23,.03-.47,.07-.7,.1Z"/>
  <path class="cls-15" d="M245.92,138.18c.18,.3,.37,.59,.55,.89-.18-.3-.37-.59-.55-.89Z"/>
  <path class="cls-5" d="M195.22,99.7c-.04,2.38-1.74,4.81,.29,7.15,.4,.46,.13,1.58-.54,1.69-2.11,.35-4.26,.66-6.38,.63-1.09-.01-1.69-1.1-1.66-2.48,.04-1.83-.04-3.67-.07-5.51,2.07-2.34,4.87-2.76,7.54-3.55,.38,.64,.88,1.21,.82,2.06Z"/>
  <path class="cls-12" d="M189.54,78.73c3.67-.76,7.48,.14,11.11-1.13,.7,.27,1.66-.41,2.18,.81-3.7,2.71-7.88,2.11-11.93,2.29-.88-.29-1.58-.73-1.36-1.96Z"/>
  <path class="cls-4" d="M137.41,83.99c1.82-.18,3.65-.36,5.47-.53,.18,.27,.35,.55,.53,.82-4.09,2.57-4.74,9.2-10.74,9.67-2.92,.23-3.41,2.23-1.81,5.14,.89,1.62,2.95,3.28,2.14,5-.92,1.94-3.38,.88-5.11,.82-5.12-.19-9.69-2.51-13.92-5.47-2.91-2.04-2.83-3.7-.6-6.72,3.61-4.87,8.87-5.83,13.89-7.33,1.68-.5,3.46-.57,5.19-.84-.01,.45-.02,.9-.04,1.34-2.84,.77-5.71,1.43-8.51,2.35-2.8,.92-5.26,2.49-6.9,5.34-.75,1.3-1.06,2.56,.13,3.69,2.21,2.1,4.8,3.02,8.1,3.17-1.29-2.62-3.53-2.06-5.06-3.04-2.6-1.68-2.69-2.25-.47-4.32,4.42-4.11,9.88-4.67,15.19-5.82,.98-.16,1.97-.31,2.95-.47,.77-.13,1.94-.12,1.75-1.23-.18-1.02-1.35-.55-2.12-.57-.02-.33-.04-.66-.06-.98Z"/>
  <path class="cls-4" d="M137.41,83.99c.02,.33,.04,.66,.06,.98-.86,.31-1.72,.63-2.57,.94-.83,0-1.66-.02-2.49-.03,.01-.45,.02-.9,.04-1.34,1.59-.94,3.29-.63,4.97-.55Z"/>
  <path class="cls-4" d="M311.9,63.4c12.27-1.33,24.54-2.66,36.81-3.98,.49-.05,1,.1,1.51,.16-.46,.53-.93,1.05-1.39,1.58-1.95,.16-3.9,.44-5.85,.47-3.75,.06-7.26,1.85-11.2,1.3-1.7-.24-4.54-.83-6.05,1.76-.13,.01-.25-.02-.37-.09-3.41-.98-6.81-.03-10.21-.05-1.05,0-2.74,1.11-3.25-1.16Z"/>
  <path class="cls-12" d="M311.9,63.4c.51,2.27,2.2,1.15,3.25,1.16,3.4,.02,6.8-.94,10.21,.05-2.26,1.26-4.78,.93-7.17,1.27-5.4,.76-10.83,1.19-16.26,1.62-1.8,.14-3.29,1.1-4.92,1.69-.19-.9-.43-1.81,.38-2.52,3.66-1.25,7.55-.17,11.23-1.34,.83-.26,1.98,.05,1.79-1.59,.42-.51,.95-.48,1.49-.34Z"/>
  <path class="cls-12" d="M325.72,64.69c1.51-2.59,4.35-2,6.05-1.76,3.94,.55,7.45-1.24,11.2-1.3,1.95-.03,3.9-.3,5.85-.47,.09,.72,.08,1.4-.77,1.51-7,.89-14,1.77-21.01,2.64-.52,.06-1.02-.03-1.32-.62Z"/>
  <path class="cls-13" d="M297.39,66.66c-.81,.71-.57,1.62-.38,2.52-.01,.18-.1,.27-.27,.26-.58,.13-.72,.33-.1,.68,.49,1.25,.38,2.59,.3,3.88-.06,1-.62,1.27-1.41,.66-.61-1.21-.67-2.52-.54-3.86,.51-.44,.56-.89,.03-1.36,.02-.68,.04-1.36,.06-2.04,1.18-.48,1.28-1.19,.37-2.12,.33-1.56-.18-3.96,2.54-3.16,.2,.14,.4,.27,.6,.41,0,0,0,0,0,0,.13,.37,.32,.5,.61,.18,1.45-.07,2.89-.14,4.34-.21,.38,.9,1.84,.42,1.86,1.79-2.12,.15-4.24,.33-6.36,.44-1.15,.06-2.07,.26-1.66,1.93Z"/>
  <path class="cls-12" d="M296.64,70.12c-.62-.35-.47-.56,.1-.68-.03,.23-.07,.45-.1,.68Z"/>
  <path class="cls-4" d="M297.39,66.66c-.41-1.67,.51-1.87,1.66-1.93,2.12-.11,4.24-.29,6.36-.44,1.66-.18,3.33-.37,4.99-.55,.19,1.64-.95,1.32-1.79,1.59-3.68,1.16-7.56,.08-11.23,1.34Z"/>
  <path class="cls-15" d="M162.18,140.44c.26-1.13,.95-1.41,1.89-1.17-.14,1.38-1.03,1.23-1.89,1.17Z"/>
  <path class="cls-13" d="M169.62,138.46c-.03,.19-.03,.39,0,.59-.21-.23-.41-.47-.62-.7,.21,.04,.42,.08,.62,.12Z"/>
  <path class="cls-13" d="M257.7,139.14c-.38-.39-.76-.78-1.15-1.17,.36-.81,.98-1.06,1.74-.97,.31-.04,.61-.09,.92-.13,.68-.43,1.4-.69,2.2-.5,.69,.88,1.31,.77,1.87-.16,.39,0,.79,0,1.18,0,.58,.94,1.21,1.02,1.89,.12,.79-.17,1.5,.08,2.17,.55,.35,.03,.7,.06,1.04,.09,.22,.06,.45,.13,.67,.19-.06,.67-.12,1.34-.18,2.01-1.25-.35-2.5-.69-3.75-1.04-2.29-.52-4.59-1.15-6.78,.42-.61,.2-1.22,.4-1.84,.6Z"/>
  <path class="cls-13" d="M242.17,134.26c-.01,.7-.23,1.27-.85,1.56-.96-.5-1.91-1-2.87-1.5-.63-1.4,.23-1.54,1.12-1.66,.45,.26,.9,.52,1.36,.78,.23,.61,.66,.83,1.22,.8h.02Z"/>
  <path class="cls-15" d="M263.28,136.19c-.56,.93-1.18,1.04-1.87,.16,.59-.48,1.22-.54,1.87-.16Z"/>
  <path class="cls-15" d="M266.35,136.31c-.68,.9-1.3,.82-1.89-.12,.65-.38,1.28-.37,1.89,.12Z"/>
  <path class="cls-3" d="M198.68,103.44c-.3-1.4-.61-2.79-.91-4.19,1.81,.99,.78,2.75,.91,4.19Z"/>
  <path class="cls-3" d="M199.31,107.36c-.72-.79-.63-1.79-.55-2.78,.64,.81,1.73,1.52,.55,2.78Z"/>
  <path class="cls-15" d="M242.15,134.25c-.57,.03-.99-.2-1.22-.8,.6-.09,.93,.32,1.22,.8Z"/>
  <path class="cls-15" d="M269.56,136.95c-.35-.03-.69-.06-1.04-.09,.37-.3,.72-.25,1.04,.09Z"/>
  <path class="cls-3" d="M203.02,109.59c-.25,.27-.47,.2-.66-.09,.22,.03,.44,.06,.66,.09Z"/>
  <path class="cls-15" d="M259.22,136.86c-.31,.04-.61,.09-.92,.13,.28-.31,.58-.38,.92-.13Z"/>
  <path class="cls-15" d="M295.46,65.28c.92,.93,.81,1.64-.37,2.12-.22-.78-.15-1.5,.37-2.12Z"/>
  <path class="cls-15" d="M295.03,69.44c.53,.47,.48,.92-.03,1.36,.01-.45,.02-.91,.03-1.36Z"/>
  <path class="cls-15" d="M299.22,62.71c-.29,.33-.48,.2-.61-.18,.2,.06,.41,.12,.61,.18Z"/>
  <path class="cls-15" d="M298.6,62.53c-.2-.14-.4-.27-.6-.41,.2,.14,.4,.27,.6,.41Z"/>
  <path class="cls-15" d="M265.1,72.04c.49-1.69,1.88-1.63,3.08-1.96,2.59-.02,5.19-.04,7.78-.06-.15,.33-.31,.66-.46,1-.55,.09-1.1,.18-1.65,.27-.3-.45-.5-.24-.69,.12-1.42,.1-2.83,.19-4.25,.29-.86-.21-1.72-.48-2.54,.12-.42,.08-.84,.16-1.26,.23Z"/>
  <path class="cls-11" d="M275.5,71.02c.15-.33,.31-.66,.46-1,0,0-.04,.03-.04,.03,.59,.18,1.18,.36,1.77,.54-.62,.87-1.36,.97-2.19,.43Z"/>
  <path class="cls-11" d="M266.36,71.81c.83-.6,1.69-.33,2.54-.12-.83,.5-1.68,.64-2.54,.12Z"/>
  <path class="cls-11" d="M273.16,71.41c.19-.35,.39-.57,.69-.12-.23,.04-.46,.08-.69,.12Z"/>
  <path class="cls-13" d="M155.53,100.91c.92,.38,2.7-1.22,3.03,1.2,.15,1.14,.03,2.57-1.65,2.61-1.42,.03-2.84,.23-4.27,.32-.96,.06-1.59-.36-1.53-1.56,.05-1.01-.08-2.18,1.19-2.37,1.01-.15,2.03-.14,3.23-.21Z"/>
  <path class="cls-12" d="M146.75,103.39c0,.81,0,1.72-.88,1.89-1.02,.19-1.06-.76-1.07-1.55-.01-.78-.08-1.73,.84-1.89,.98-.17,1.05,.75,1.12,1.55Z"/>
  <path class="cls-12" d="M139.46,105.92c-.99-.41-.89-1.38-.87-2.26,.01-.82,.2-1.7,1.18-1.46,.9,.22,.83,1.18,.78,1.96-.05,.78-.1,1.62-1.08,1.76Z"/>
  <path class="cls-15" d="M259.53,138.53c2.19-1.57,4.49-.94,6.78-.42-2.26,.14-4.52,.28-6.78,.42Z"/>
  <path class="cls-11" d="M258.28,71.34c.22-.02,.44-.04,.66-.06-.22,.02-.44,.04-.66,.06Z"/>
  <path class="cls-12" d="M132.4,85.89c.83,0,1.66,.02,2.5,.03,0,.45,0,.89-.01,1.34-5.31,1.15-10.78,1.71-15.19,5.82-2.22,2.06-2.12,2.64,.47,4.32,1.52,.98,3.76,.42,5.06,3.04-3.3-.15-5.89-1.07-8.1-3.17-1.18-1.12-.88-2.38-.13-3.69,1.65-2.85,4.11-4.42,6.9-5.34,2.8-.92,5.67-1.58,8.51-2.35Z"/>
  <path class="cls-14" d="M134.89,87.26c0-.45,0-.89,.01-1.34,.86-.31,1.72-.63,2.57-.94,.77,.02,1.94-.45,2.12,.57,.19,1.11-.98,1.11-1.75,1.23-.98,.16-1.97,.32-2.95,.47Z"/>
</svg>