<svg width="20" height="50" viewBox="0 0 20 50" fill="none" xmlns="http://www.w3.org/2000/svg">
<g clip-path="url(#clip0_102_58)">
<path d="M15.8333 15H4.16667C1.86667 15 0 16.8667 0 19.1667V30.8333C0 33.1333 1.86667 35 4.16667 35H15.8333C18.1333 35 20 33.1333 20 30.8333V19.1667C20 16.8667 18.1333 15 15.8333 15ZM18.3333 30.8333C18.3333 32.2083 17.2083 33.3333 15.8333 33.3333H4.16667C2.79167 33.3333 1.66667 32.2083 1.66667 30.8333V19.1667C1.66667 17.7917 2.79167 16.6667 4.16667 16.6667H15.8333C17.2083 16.6667 18.3333 17.7917 18.3333 19.1667V30.8333ZM4.16667 23.3333C4.16667 22.875 4.54167 22.5 5 22.5H12.5C12.9583 22.5 13.3333 22.875 13.3333 23.3333C13.3333 23.7917 12.9583 24.1667 12.5 24.1667H5C4.54167 24.1667 4.16667 23.7917 4.16667 23.3333ZM4.16667 20C4.16667 19.5417 4.54167 19.1667 5 19.1667H10C10.4583 19.1667 10.8333 19.5417 10.8333 20C10.8333 20.4583 10.4583 20.8333 10 20.8333H5C4.54167 20.8333 4.16667 20.4583 4.16667 20ZM15.8333 26.6667C15.8333 27.125 15.4583 27.5 15 27.5H5C4.54167 27.5 4.16667 27.125 4.16667 26.6667C4.16667 26.2083 4.54167 25.8333 5 25.8333H15C15.4583 25.8333 15.8333 26.2083 15.8333 26.6667ZM8.33333 30C8.33333 30.4583 7.95833 30.8333 7.5 30.8333H5C4.54167 30.8333 4.16667 30.4583 4.16667 30C4.16667 29.5417 4.54167 29.1667 5 29.1667H7.5C7.95833 29.1667 8.33333 29.5417 8.33333 30Z" fill="#F76A89"/>
</g>
<defs>
<clipPath id="clip0_102_58">
<rect width="20" height="20" fill="white" transform="translate(0 15)"/>
</clipPath>
</defs>
</svg>
