<?xml version="1.0" encoding="UTF-8"?>
<svg id="Layer_1" data-name="Layer 1" xmlns="http://www.w3.org/2000/svg" viewBox="0 0 414 200">
  <defs>
    <style>
      .cls-1 {
        fill: #eeece1;
      }

      .cls-2 {
        fill: #f5ede5;
      }

      .cls-3 {
        fill: #e8dfcd;
      }

      .cls-4 {
        fill: #fff9b8;
      }

      .cls-5 {
        fill: #fefefe;
      }

      .cls-6 {
        fill: #faf1e8;
      }

      .cls-7 {
        fill: #fde8e6;
      }

      .cls-8 {
        fill: #c1c0c0;
      }

      .cls-9 {
        fill: #9ddcf9;
      }

      .cls-10 {
        fill: #bcae9a;
      }

      .cls-11 {
        fill: #727171;
      }

      .cls-12 {
        fill: #5b554e;
      }

      .cls-13 {
        fill: #353131;
      }

      .cls-14 {
        fill: #4c4740;
      }

      .cls-15 {
        fill: #767475;
      }

      .cls-16 {
        fill: #5e5b55;
      }

      .cls-17 {
        fill: #7b7a7a;
      }
    </style>
  </defs>
  <path class="cls-7" d="M70.44,173.61c.04-1.69-1.57-3.19-.57-5,.06-.11,0-.42-.09-.46-3.3-1.49-1.39-4.42-1.82-6.69-.17-.93-.05-1.79-1.35-1.95-1.3-.16-1.3-1.44-1.54-2.32-.96-3.5-1.28-7.11-2.56-10.59-3.8-10.29-2.49-21.11-2.39-31.73,.03-2.72,.2-5.54,.32-8.31,.1-2.15,.85-4.17,1.19-6.28,.9-5.61,2.91-11.07,3.4-16.69,.32-3.63,2.39-6.33,3.07-9.64,2.07,.12,2.86-1.77,4.22-2.74,7.49-5.32,14.93-10.72,22.44-16.02,2.62-1.85,5.24-3.77,8.1-5.17,7.17-3.51,14.48-6.71,21.71-10.11,5.31-2.5,10.77-4.62,16.28-6.6,.76-.27,1.71-.9,2.55,0,1.34,1.41,2.96,2.55,3.32,4.73,.62,3.84,1.27,7.69,2.22,11.46,.38,1.54,.14,2.21-1.17,2.95-3.79,2.13-7.5,4.39-11.24,6.6-3.14,1.81-6.28,3.62-9.42,5.43-.18,0-.29,.09-.34,.26-1.63,.26-2.75,1.37-3.96,2.34-.5,.1-.86,.27-1.1,.83-1.12,2.63-2.43,5.17-3.72,7.73-1.91,3.77-4.24,7.25-6.39,10.84-.99,1.66-2.35,3.25-3.88,4.42-1.72,1.31-2.46,3.02-2.42,4.88,.16,6.89-2.67,13.15-3.61,19.84-2.48-.75-4.31-2.65-6.9-2.56,2.71,1.91,6.15,2.72,8.37,5.7-4.41,1.34-8.77,1.99-12.77,3.8,1.31,.4,2.43-.14,3.6-.41,3.6-.85,7.13-2.64,10.85-2.3,8.29,.76,16.58,.77,24.88,.94,3.53,.07,6.64-1,9.82-2.22,6.69-2.57,13.11-5.87,20.14-7.5,6.42-.38,12.83-.75,19.32,2.49-1.38,.33-2.24,.54-3.12,.74-4.02,.92-8.01,1.83-11.55,4.18-2.8,1.86-3.61,5.26-1.66,8.21,.16,.66-.93,1.32,0,1.97,.69,1.46-.64,1.9-1.39,2.43-6.24,4.36-12.31,8.97-19.07,12.55-7.02,3.44-14.08,6.8-21.05,10.36-10.43,5.33-20.62,11.14-31.79,14.85-6.19,2.06-12.32,4.42-18.94,4.79Z"/>
  <path class="cls-7" d="M336.61,91.93c.26,2.77-.02,5.38-1.69,7.79-1.48,2.14-.73,4.69-.73,7.05,0,2.98-.15,5.68-2.64,7.9-1.6,1.43-1.73,3.86-2.7,5.78-1.27,2.51-2.33,5.22-3.25,7.77-.83,2.3-2.16,3.33-3.68,4.71-2.45,2.21-3.86,5.29-5.76,7.93-1.02,1.42-2.24,2.17-3.2,3.23-2.08,2.29-5.47,3.39-6.37,6.81-.34,1.28-1.72,.62-2.63,.67-1.55,.09-2.81,.17-1.96,2.33,.57,1.43-.74,1.08-1.44,1.26-5.26-.71-10.21-2.61-15.3-3.96-.92-.37-1.83-.8-2.77-1.11-12.21-4.08-23.62-9.66-33.52-18.03-.56-1.11-1.93-1.26-2.63-2.2-3.54-3.6-7.01-7.29-11.29-10.44,.73-.27,1.1-.49,1.48-.54,4.83-.66,6.64-4.48,8.33-8.22,1.16-2.56-2-6.5-4.41-7.67-2.25-1.09-4.76-1.89-6.54-3.89,4.23,.49,8.41,1.03,12.37,2.55,5.58,2.14,10.57,5.35,15.53,8.62,2.96,1.95,5.73,4.41,8.97,5.64,6.63,2.52,13.53,4.34,20.28,6.54,1.54,.5,2.81,.2,3.87-.81,1.85-1.75,3.84-3.33,5.62-5.18,2.9-3.01,5.87-5.94,8.55-9.16,.35-.42,1.18-.56,.52-1.21-.39-.38-.97-.04-1.25,.42-1.37,2.3-3.44,3.99-5.23,5.91-2.7,2.87-5.58,5.57-8.47,8.24-.74,.68-1.74,1.44-2.87,1.02-8.02-2.99-16.78-3.93-24.15-8.69-3.77-2.44-7.5-4.94-11.45-7.53,1.74-.53,3.1-1.18,4.6-.29,1.49,.89,3.03,1.7,4.56,2.51,4.81,2.55,9.61,5.15,14.62,7.29,2.95,1.26,4.91-.09,4.99-3.35-.38,0-.55,.23-.72,.55-1.43,2.76-1.68,2.82-4.58,1.58-5.47-2.34-10.64-5.26-15.9-8.02-1.78-.93-3.81-1.43-3.02-4.79-2.12,3.62-4.81,4.27-8.03,2.63-2.79-1.41-5.56-2.87-8.8-3.69,.42-.14,.64-.27,.87-.29,11.08-.94,22.16-1.86,33.24-2.79,.88-.07,1.55,.29,2.28,.76,3.05,1.96,6.19,3.77,9.25,5.72,2.82,1.8,5.52,2.51,8.2-.23,.48-.49,1.18-.9,.52-1.53-.6-.57-.87,.17-1.28,.6-1.13,1.2-2.4,2.68-4.23,1.71-3.96-2.12-7.81-4.47-12.21-7.02,1.65-.29,2.68-.47,3.71-.65,7.02-.54,14.03-1.07,21.05-1.61,.54,.17,1.04,.21,1.4-.35,8.33-.3,16.61-1.27,24.92-1.96,.94,.1,1.87,.11,2.74-.31,.73,.01,1.47,.03,2.2,.04Z"/>
  <path class="cls-7" d="M337.29,79.75c.45,1.54-1.22,3.62,1.18,4.68-.1,.1-.22,.18-.34,.26-1.34,.08-2.68,.17-4.02,.25-.25,.07-.5,.13-.75,.2-3.89-.05-7.74,.43-11.58,.92-1.06-.69-1.58,.75-2.5,.64-.24-.65-.79-.47-1.26-.43-4.79,.38-9.58,.76-14.37,1.16-.98,.08-1.91,.32-2.8-.49-2.98-2.7-6.04-5.32-9.05-7.99-2.61-2.31-4.95-5.63-8.95-2.15-.17,.15-.46,.15-.7,.22-7.31,2.24-14.84,3.49-22.37,4.7-.93,.15-1.7,.37-2.43,1.04-4.02,3.69-8.55,6.64-13.51,8.92-.89,.41-1.78,.83-2.67,1.24-4.06,1.09-8.12,2.18-12.17,3.27l-.6,.04c-2.55-.58-5.26,.42-8.04-.75,2.66-1.16,5.11-2.08,7-3.96,.3-.3,.6-.6,.89-.9,2.58-1.37,3.7-4.05,5.4-6.19,.65-.83,.53-2.1-1.02-2.38,.14-.73-1.33-.84-.67-1.77,1.01-.58,1.83-1.36,2.56-2.27,3.02-3.79,6.43-6.99,11.4-8.13,2.4-.55,4.87-1.24,6.98-2.45,7.84-4.49,16.19-7.87,24.45-11.4,6.31-2.7,12.8-3.23,19.33-.44,4.8,2.05,9.1,4.96,13.54,7.62,7.13,4.28,14.03,8.94,21.19,13.17,1.93,1.14,3.44,3.09,5.86,3.38Z"/>
  <path class="cls-4" d="M228.4,96.22c.2-.01,.4-.02,.6-.04,.64,.37,1.2,.43,2.03,.27,3.65-.67,7.16-2,10.9-2.17,3.83,.19,7.6-.48,11.39-.74,4.01-.37,8.01-.75,12.02-1.12,3.92-.32,7.84-.63,11.75-.95,4.05-.46,8.17-.32,12.17-1.28,.16-.02,.32-.05,.49-.07,3.73,.27,7.42-.19,11.09-.77,.46-.07,.92-.13,1.38-.2,3.47,.46,6.85-.53,10.3-.63,4.23-.12,8.45-.79,12.68-1.22,.32-.06,.64-.12,.95-.19,.52,0,1.05-.02,1.57-.03,3.44-.78,6.91-1.45,10.42-1.82,1,.02,2,.04,3,.06,.87,2.01,.51,3.78-1.01,5.34-.41,1.14-1.04-.13-1.53,.15-2.66,.21-5.32,.43-7.98,.64-.38-.16-.73-.12-1.06,.14-7.32,.57-14.65,1.14-21.97,1.71-.56,.04-1.16-.03-.85,.85-.36,.56-.86,.52-1.4,.35-1.09,.1-1.83-.92-3.02-.8-6.01,.63-12.02,1.14-18.04,1.69-10.32,.83-20.64,1.72-30.97,2.46-6.08,.44-12.16,1.74-18.3,.27-1.83-.44-3.78-.39-5.68-.53-2.48-.18-4.8,.19-6.58,2.16-.6,.66-1.4,.82-2.25,.88-9.5,.74-19,1.49-28.5,2.24-.07-.11-.14-.22-.22-.33l-.11,.39c-.19,0-.38,0-.58,0-.46-.75-.38-1.78-1.21-2.33,1.13-1.12,2.63-1.84,3.48-3.26l.43,.36c-.08,1.51,1.12,.84,1.67,.83,1.8-.05,3.6-.3,5.4-.48,1.91-.59,4.01,.08,5.88-.85,3.91,.16,7.78-.3,11.64-.87h.97c.21,.06,.41,.13,.62,.19,2.82,.24,5.66,1.03,8.41-.31Z"/>
  <path class="cls-12" d="M192.01,102.88c9.5-.75,19-1.5,28.5-2.24,.85-.07,1.65-.22,2.25-.88,1.79-1.97,4.1-2.35,6.58-2.16,1.9,.14,3.85,.1,5.68,.53,6.14,1.46,12.21,.16,18.3-.27,10.33-.74,20.65-1.63,30.97-2.46,0,.24,0,.48,0,.72-1.03,.18-2.06,.36-3.71,.65,4.41,2.55,8.25,4.9,12.21,7.02,1.83,.98,3.1-.51,4.23-1.71,.4-.43,.67-1.17,1.28-.6,.66,.63-.04,1.05-.52,1.53-2.68,2.74-5.38,2.04-8.2,.23-3.05-1.95-6.19-3.77-9.25-5.72-.73-.47-1.4-.83-2.28-.76-11.08,.93-22.16,1.86-33.24,2.79-.23,.02-.45,.15-.87,.29,3.23,.81,6.01,2.27,8.8,3.69,3.22,1.63,5.91,.99,8.03-2.63-.79,3.36,1.24,3.86,3.02,4.79,5.26,2.76,10.43,5.68,15.9,8.02,2.9,1.24,3.15,1.19,4.58-1.58,.17-.32,.34-.55,.72-.55-.08,3.26-2.04,4.61-4.99,3.35-5.01-2.14-9.81-4.74-14.62-7.29-1.53-.81-3.07-1.63-4.56-2.51-1.5-.89-2.87-.24-4.6,.29,3.94,2.6,7.67,5.1,11.45,7.53,7.37,4.76,16.13,5.71,24.15,8.69,1.14,.42,2.13-.33,2.87-1.02,2.89-2.68,5.77-5.37,8.47-8.24,1.8-1.91,3.86-3.61,5.23-5.91,.27-.46,.86-.8,1.25-.42,.66,.65-.17,.79-.52,1.21-2.67,3.22-5.65,6.15-8.55,9.16-1.78,1.85-3.77,3.43-5.62,5.18-1.06,1.01-2.33,1.31-3.87,.81-6.76-2.2-13.65-4.01-20.28-6.54-3.24-1.23-6.01-3.69-8.97-5.64-4.96-3.27-9.96-6.48-15.53-8.62-3.95-1.51-8.14-2.06-12.37-2.55,1.78,2,4.29,2.8,6.54,3.89,2.41,1.17,5.57,5.11,4.41,7.67-1.69,3.74-3.5,7.56-8.33,8.22-.38,.05-.75,.27-1.48,.54,4.28,3.15,7.75,6.84,11.29,10.44l-.59,.42c-2.73-1.35-3.83-4.6-6.67-5.93-.15,.71-.23,1.29-.39,1.85-.41,1.47-.73,2.74,1.64,2.5,1.25-.13,1.02,1.03,1.03,1.82,.07,4.16-.97,8.14-2.05,12.1-.19,.68-.89,1.54-.15,2.01,.47,.3,1.44-.04,2.13-.26,4.29-1.38,7.31-7.63,7.2-11.82,.16-.17,.32-.34,.48-.5,9.91,8.38,21.31,13.95,33.52,18.03,.94,.31,1.84,.74,2.77,1.11-.35,.14-.7,.28-1.04,.43-11.17-3.61-21.85-8.21-31.3-15.32-.2-.15-.38-.32-.59-.45-2.57-1.61-2.37-1.53-3.5,1.34-2.01,5.1-5.35,8.9-11.5,8.57-1.74-.09-2.37-.82-2.35-2.42,.02-1.81,0-3.63,0-5.68-2.57,1.72-4.83,3.54-7.59,4.62-3.91,1.52-7.72-.96-6.9-5.48,.68-3.74,1.14-7.51,2.48-11.1,.6,2.85-.3,5.58-.65,8.35-.23,1.81-.51,3.62-.25,5.44,.1,.72,.46,1.48,1.26,1.69,.76,.21,.39-1.07,1.13-1.01,.18,.78,.13,1.88,1.38,1.53,3.57-.99,7.28-2.58,8.75-5.88,1.55-3.49,3.1-7.22,3.47-11.2,.08-.9,.09-1.64-.64-2.22-3-2.39-6.23-4.56-8.94-7.25-1.85-1.83-2.59-1.22-3.54,.52-.27-.03-.54-.06-.81-.08,1.78-2.86-.04-4.64-2-6.22-2.52-2.03-3.83-4.29-1.86-7.81-8.27,.75-16.15,1.46-24.04,2.18-.03,.21-.07,.42-.1,.63,.29,2.43,.73,4.86,.43,7.32-.29,0-.58,0-.87,0-.14-2.27-.27-4.55-.44-6.82-.03-.46-.05-.97-.73-1.08-.81-.13-.89,.5-1.14,.98-.23-.02-.46-.03-.69-.05-1.32-1.2-4.06-.86-4.74,.61-.53,1.17-.92,2.43-2.32,2.89-.18-1.05,.63-1.8,.83-2.74,.13-.6,.29-1.14-.63-1.17-.87-.03-1.73,.39-1.35,1.17,.44,.9-1.2,2.73,1.15,2.74-.39,1.72-.99,2.39-2.66,2.64-2.04,.3-3.9,.04-4.89-2.13,.19-.18,.37-.36,.56-.54,.35,.82,1.11,1.17,1.84,1.51,2.19,1.02,3.19,.35,3.15-2.04-.03-2.06-.08-4.13,0-6.19,.05-1.27-.01-2.66,1.33-3.47,.06,.41,.12,.83,.18,1.24-.67,.39-.61,1.16-.79,1.74-.7,2.3-.19,2.84,2.14,2.54,1.55-.2,3.1-.36,4.65-.54,.19,0,.38,0,.58,0,0,0,.17,.03,.17,.03l.15-.09Zm51.66,7.05c-.13-2.95-.97-4.69-2.89-5.72-2.25-1.21-4.48-2.48-6.85-3.41-2.67-1.06-5.17-3.08-8.42-1.73-1.46,.61-2.33,1.8-3.47,2.73-2.39,1.94-2.26,3.41-.32,5.63,2.94,3.37,6.68,5.83,9.75,9.01,1.72,1.79,3.69,1.98,5.89,1.33,3.37-.99,6.37-5.15,6.32-7.85Zm-7.72,28.69c0,1.91-.04,3.08,.02,4.24,.04,.68-.23,1.63,.84,1.8,1.07,.17,1.16-.83,1.37-1.46,1.32-3.98,1.59-8.12,1.71-12.28,.01-.52,.28-1.23-.67-1.3-.75-.05-1.14,.17-1.44,.96-1.09,2.84-2.36,5.61-1.82,8.03Zm-3.43-39.68c.13,.08,.24,.21,.37,.22,.13,.01,.26-.08,.4-.13-.13-.1-.25-.26-.39-.29-.11-.02-.25,.12-.38,.2Zm17.03,35.48c.06,.05,.11,.11,.17,.16,.05-.06,.11-.12,.16-.18-.08-.06-.17-.11-.25-.17-.03,.06-.05,.12-.08,.18Z"/>
  <path class="cls-12" d="M136.52,59.03c3.74-2.21,7.46-4.47,11.24-6.6,1.32-.74,1.56-1.41,1.17-2.95-.94-3.77-1.6-7.62-2.22-11.46-.35-2.19-1.98-3.32-3.32-4.73-.84-.89-1.79-.27-2.55,0-5.51,1.98-10.97,4.1-16.28,6.6-7.22,3.39-14.54,6.59-21.71,10.11-2.86,1.4-5.48,3.33-8.1,5.17-7.51,5.3-14.94,10.7-22.44,16.02-1.36,.97-2.15,2.85-4.22,2.74,.96-1.66,2.61-2.65,4.06-3.72,7.53-5.56,15.19-10.94,22.79-16.41,6.13-4.42,13.08-7.26,19.86-10.44,5.21-2.45,10.55-4.64,15.74-7.13,2-.96,2.91-3.25,4.7-4.6,3.99-3.01,8.1-4.86,13.02-2.32,.55,.28,1.04,.32,1.66,.18,7.33-1.58,14.82-1.55,22.25-2.23,2.97-.27,5.94-.59,8.93-.4,0,.24,0,.48,0,.72-1.89,.12-3.78,.22-5.68,.35-.54,.04-1.3-.13-1.29,.74,.01,.82,.76,.72,1.3,.78,.49,.06,.99,.07,1.48,.07,5.04-.03,10.08-.07,15.12-.1,0,.28,0,.55,0,.83-5.56,.04-11.11,.1-16.67,.12-.79,0-1.83,.2-2.03-.92-.27-1.49-1.32-1.2-2.26-1.14-5.04,.35-10.09,.71-15.13,1.1-1.92,.15-3.84,.35-5.66,1.07,1.37,2.87,3.2,5.26,3.42,8.33-1.31,.55-1.41-.28-1.67-1.27-.6-2.28-.83-4.75-2.92-6.37-4.44-3.45-10.65-2.37-14.24,2.52,1.29,.37,2.45-.08,3.54-.6,4.08-1.97,7.36-.84,8.74,3.37,1.07,3.26,1.88,6.63,2.56,9.99,1.47,7.26,1.94,14.63,2.28,22.01,.32,6.92,.03,13.87,1.07,20.76-.43,0-.85,0-1.28,0-.11-.91-.58-1.32-1.51-1.57-1.36-.38-2.73-.33-4.09-.45,0-.2-.02-.4-.03-.6,2.63-.59,5.34-3.99,5.27-6.62-.1-3.56-.28-7.13-.27-10.69,0-1.46-.47-2.05-1.91-2.23-3.26-.4-6.51-.96-9.82-1.46,.78-.68,1.69-.56,2.55-.45,2.38,.3,4.76,.6,7.13,1,1.31,.22,2,.11,1.81-1.54-.38-3.29-.63-6.6-.83-9.91-.13-2.14-.88-2.04-2.45-1.09-3.44,2.08-6.99,4-10.49,5.98-.21-.18-.43-.36-.64-.54Zm15,24.11c.05,1.25-3.05,2.59,0,4.14v-4.14Z"/>
  <path class="cls-7" d="M224.93,115.65c.95-1.73,1.69-2.35,3.54-.52,2.71,2.69,5.94,4.86,8.94,7.25,.74,.59,.73,1.32,.64,2.22-.37,3.98-1.91,7.71-3.47,11.2-1.47,3.3-5.17,4.89-8.75,5.88-1.25,.35-1.21-.76-1.38-1.53,.97-.63,1.94-1.26,1.45-2.68,.17-3.15,.39-6.3,.48-9.45,.07-2.27-.92-3.75-3.4-3.86-.02-.41-.04-.82-.06-1.23,1.53-2.19,.89-4.98,2-7.29Z"/>
  <path class="cls-9" d="M150.22,185.78c.53,1.16-.54,2.31,0,3.47-.57,.43-.2,.83,.04,1.23-1.92,.58-3.81-.59-5.72-.09,.09-.73,.28-1.47,.26-2.2-.2-7.53-.44-15.06-.66-22.59,.05-.69,.23-1.4-.24-2.03-.07-2.66-.15-5.31-.22-7.97l-.07-2.07c-.05-.81-.11-1.62-.16-2.43,.25-.4,.2-.78-.06-1.15-.04-1.32,.01-2.65-.14-3.96-.19-1.64,.21-2.74,2-3.01,.8-.12,1.28-1.1,2.32-.83,.08,.96,.16,1.93,.24,2.91,.13,3.55,.22,7.11,.39,10.66,.48,9.71,.99,19.41,1.49,29.12,.02,.41-.01,.84,.55,.93Z"/>
  <path class="cls-14" d="M147.79,145.07c-.08-.97-.16-1.95-.24-2.91-1.03-.28-1.52,.71-2.32,.83-1.79,.26-2.19,1.37-2,3.01,.15,1.31,.1,2.64,.14,3.96-.19,.39-.21,.78,.06,1.15,.05,.81,.11,1.62,.16,2.43-.28,.01-.56,.02-.84,.03-.16-2.95-.31-5.9-.47-8.86-.02-.37-.05-.73-.07-1.1,6.75-3.57,12.83-8.19,19.07-12.55,.75-.52,2.08-.97,1.39-2.43,1.24,.38,2.36,.11,3.54-.4,2.04-.88,4.19-1.5,6.25-2.34,3.73-1.52,7.5-2.96,10.82-5.31,1.32-.93,2.08-2.1,.96-3.53-1.26-1.61-2.7-3.09-5.12-2.57-3.63,.77-7.27,1.47-10.75,2.86-5.3,2.12-5.84,2.83-5.64,8.34,.01,.33-.05,.66-.07,.99-1.95-2.95-1.13-6.35,1.66-8.21,3.54-2.35,7.53-3.26,11.55-4.18,.87-.2,1.74-.41,3.12-.74-6.49-3.24-12.9-2.87-19.32-2.49-.02-.32-.03-.63-.05-.95,.25-1.53-.23-2.19-1.94-2.15-1.37,.03-2.79-.35-4.12-.79-1.58-.52-3.1-1.13-4.8-.72-.53-.04-1.05-.09-1.58-.13-.15-.07-.3-.12-.46-.14,2.18-.29,3.65-1.48,4.44-3.52,.1,1.21-.66,2.72,1.21,3.3,2.47,.77,4.92,1.57,7.6,1.06-1.45-3.28-1.4-3.43,1.19-3.83,.64,1.1-2.15,.87-.86,2.09,.65,.62,1.28,1.57,2.46,1.31,1.21-.26,2.29-.81,3.34-1.43,.4,.25,.23,.51,0,.77-.82,.92-1.87,1.27-3.08,1.35-1.12,.07-2.19,.27-1.98,1.86,.2,1.55,1.33,.84,2.1,.88,1.07,.06,2.16,.09,3.22,0,2.11-.2,4.71,1.33,6.08-1.65,0-.01,.29,.1,.44,.15,.16,1.08,.3,2.2,1.68,2.4,1.83,.27,3.52,1.02,5.06,1.89,2.7,1.54,5.24,2.95,8.15,.56,0,0,.2,.2,.31,.31-.55,1.31-2.35,1.02-2.97,2.38,1.3,1.7,4.02,1.18,5.17,3.15-.94,.06-1.75-.34-2.53-.77-1.43-.78-2.18-.34-2.35,1.23-.09,.23-.17,.47-.26,.7,0,.53,.01,1.07,.02,1.6-.18,.23-.36,.45-.54,.68-.32-.34,.3-1.62-1.03-.96-2,.99-4.16,1.83-3.42,4.78q-.27,2.66-1.67,2.06c-.04-1.27,.27-2.57-.21-3.92-1.08,.4-2,.71-2.89,1.1-5.1,2.23-10.67,3.45-15.14,7.07-1.6,1.3-3.48,2.34-3.21,4.85-.43,0-.86,0-1.29,0-.22-.32,.15-1.37-.56-.94-2.3,1.38-4.49,2.97-6.67,4.54-.24,.18-.19,.76-.28,1.16-.31,.88,.18,1.91-.5,2.72Z"/>
  <path class="cls-12" d="M337.29,79.75c-2.42-.29-3.93-2.24-5.86-3.38-7.15-4.23-14.06-8.89-21.19-13.17-4.44-2.66-8.74-5.57-13.54-7.62-6.54-2.79-13.02-2.26-19.33,.44-8.27,3.53-16.61,6.91-24.45,11.4-2.11,1.21-4.59,1.9-6.98,2.45-4.97,1.14-8.38,4.34-11.4,8.13-.73,.91-1.55,1.69-2.56,2.27l-.15-.85c1.45-1.64,2.82-3.37,4.37-4.91,2.09-2.09,4.33-4,7.3-4.81,1.67-.45,3.36-.88,4.96-1.54,1.67-.68,3.58-.93,5.13-2.45-1.95-.27-3.54,.32-5.18,.4,0-.26,0-.52,0-.78,7.43-.41,13.88-3.75,20.5-6.67,5.11-2.26,10.11-4.84,15.81-5.63,5.33-.74,10.27,.31,14.83,2.81,9.45,5.18,18.54,10.96,27.59,16.79,2.82,1.82,5.69,3.56,8.57,5.31,.74,.45,1.33,.96,1.58,1.81Z"/>
  <path class="cls-13" d="M193.38,97.36c-.85,1.42-2.35,2.14-3.48,3.26-1.35,.72-2.56,1.73-4.14,1.97-.4,.06-.92,.23-1.09-.2-.24-.57,.25-.88,.73-1.07,1.34-.53,2.85-.74,3.7-2.12,.48-.16,.87-.43,1.05-.94,.69-.46,1.68-.57,1.95-1.56,.35-.41,.7-.81,1.05-1.22v-.06c.03-.39-.15-.59-.54-.59,0,0-.02,.07-.02,.07,.24,.29,.55,.42,.81,.12,4.11-4.88,7.33-10.17,7.68-16.78l-.03,.03c.62-.18,.39-.65,.35-1.05,.5-2.45,.62-4.94,.44-7.43-.08-1.07,.18-2.44-1.78-2.13-.96,.15-.61-.75-.46-1.24,.47-1.58,.98-3.14,1.52-4.83,1.14,.79,2.21,1.43,2.71,2.57,.45,1.04,3.06,2.16,.01,3.32-.53,.2-.11,1.07-.12,1.63-.04,1.9-.08,3.8-.13,5.7-.02,.3-.04,.61-.06,.91-.21,1.56-.17,3.19-.66,4.65-1.85,5.51-4.29,10.75-7.7,15.5-.33,.34-1.06,.12-1.13,.82-.22,.22-.44,.44-.66,.67Z"/>
  <path class="cls-16" d="M142.22,143.61c.02,.37,.05,.73,.07,1.1-4.96,1.81-9.43,4.64-14.18,6.9-11.73,5.59-22.86,12.43-35.11,16.93-6.5,2.39-13.04,4.74-19.94,5.76-.84,.12-2.18,1.11-2.62-.7,6.62-.37,12.75-2.73,18.94-4.79,11.17-3.71,21.37-9.53,31.79-14.85,6.96-3.56,14.03-6.91,21.05-10.36Z"/>
  <path class="cls-16" d="M157.6,63.74c-.28,3.01,.64,4.65,3.9,5.82,6.77,2.43,13.02,6.11,19.08,10.05,.81,.53,1.72,1.02,2.1,2.02-.14,.15-.27,.29-.41,.44-2.69-2.05-5.58-3.79-8.52-5.43-4.6-2.56-9.21-5.13-14.22-6.85-1.14-.39-1.71-.28-1.65,1.09,.21,5.56,.41,11.12,.57,16.68,.03,1.07,.44,1.65,1.44,1.99,1.63,.56,3.22,1.21,4.83,1.83-.02,.25-.04,.51-.05,.76-2.07-.16-3.67-1.83-5.9-1.77-.28,2.29,.26,4.56,.34,6.84-.25,0-.49,0-.74,.01-1.67-11.09-.65-22.36-2.11-33.47,.45,0,.89,0,1.34,0Z"/>
  <path class="cls-12" d="M178.54,128.51q1.41,.6,1.67-2.06c.37,2.21,.52,4.43,.44,6.67-.9,.63-.51,1.54-.52,2.36-.92-1.59-.68-3.45-1.16-5.74-2.52,5.49-6.14,9.58-9.29,14-1.47,2.05-3.08,4.03-4.78,5.89-2.1,2.29-4.83,2.11-6.67-.45-1.01-1.41-2.57-2.58-2.51-4.6,.64-1.66,.7-3.32-.04-4.97,.04-.67,.08-1.34,.12-2.01,.43,0,.86,0,1.29,0-.19,3.03-.76,6.07,.6,9.03,.44,.96,.97,1.46,2,1.45,0,.71-.28,1.57,.71,1.85,.94,.26,1.8,.37,2.79-.28,2.27-1.49,3.52-3.88,5.12-5.88,2.23-2.8,4.68-5.57,6.41-9.13h-4.11c.1-1.69,1.57-1.14,2.19-.98,2.75,.73,3.83-.83,4.67-2.96,.3-.75,.7-1.47,1.06-2.2Z"/>
  <path class="cls-16" d="M180.13,135.49c.01-.82-.37-1.74,.52-2.36,.38,4.25,.76,8.5,1.17,13.09,.65-.97,.36-1.62,.34-2.26-.02-.6-.02-1.27,.79-1.26,.88,0,.62,.79,.7,1.31,.14,.99-.23,2.1,.78,2.96-.48-3.36,1.63-6.27,1.18-9.71-.63-4.83-.67-9.74-.96-14.62,.18-.23,.36-.45,.54-.68,.9,2.81,.49,5.74,.82,8.61,.49,4.35,.5,8.73,1.4,13.06,.69,3.32-1.8,5.07-5.06,3.96-1.29-.44-1.62-1.3-1.68-2.43-.2-3.22-.36-6.45-.53-9.67Zm5.74,8.47c-.14-.06-.27-.12-.41-.18-.06,.14-.19,.3-.16,.41,.03,.1,.25,.13,.39,.19,.06-.14,.12-.28,.18-.42Z"/>
  <path class="cls-16" d="M147.79,145.07c.69-.81,.19-1.84,.5-2.72,.41,3.77,.97,7.54,1.19,11.32,.36,6.45,.5,12.92,.73,19.38,.03,.89,.06,1.78,.09,2.67,.02,.84,.04,1.68,.06,2.53-.07,1.76-.49,3.54,.24,5.26-.03,.77,.47,1.62-.37,2.26-.56-.09-.53-.52-.55-.93-.5-9.71-1.01-19.41-1.49-29.12-.17-3.55-.26-7.11-.39-10.66Z"/>
  <path class="cls-16" d="M203.53,75.72c.02-.3,.04-.61,.06-.91,1.34,.88,2.31-.39,3.18-.83,9.55-4.86,19.71-6.96,30.33-7.38,3.78-.15,7.54-.83,11.3-1.27,0,.26,0,.52,0,.78-3.37,.43-6.73,1.07-10.12,1.24-11.21,.57-22.01,2.64-32.04,7.93-.77,.41-1.68,1.13-2.71,.44Z"/>
  <path class="cls-12" d="M185.14,83.19c1.4,1.76,2.61,1.59,4.47,.25,3.52-2.54,7.34-4.66,11.43-6.21,0,.34,0,.69,.01,1.03,0,0,.03-.03,.03-.03-1.18-.19-1.83,.87-2.8,1.23-1.69,.65-3.66,1.48-2.38,4.07,.26,.52,.17,1.28-.25,1.63-2.3,1.89-4.49,3.99-7.59,4.55,1.61-2.18,4.38-2.78,6.27-4.64,.88-.87,.84-1.5,.32-2.3-.52-.8-1.1-.79-1.97-.19-2.83,1.97-5.67,3.93-8.48,5.94-1.8,1.29-2.99,3.25-5.05,4.17-.26-.04-.52-.09-.78-.13,1.57-2.26,3.8-3.8,6.02-5.29,1.83-1.24,1.78-2.28,.21-3.57,.18-.17,.37-.35,.55-.52Z"/>
  <path class="cls-12" d="M157.6,63.74c-.45,0-.89,0-1.34,0-.05-1.25-.1-2.5-.15-3.75-.07-.4-.14-.79-.21-1.19-.54-5.75-1.42-11.45-2.44-17.13-.11-.58-.79-1.62,.74-1.4,.36,2.28,.7,4.55,1.08,6.83,.11,.65,.21,1.43,1.19,1.1,.85-.29,2.15-.18,1.98-1.64-.05-.43-.48-.81,.24-1.44,.58,2.16,2.05,1.58,3.49,1.35,2.93-.47,5.77-1.29,8.61-2.1l.47,.57c-2.63,1.25-5.47,1.76-8.29,2.32-1.62,.32-3.18,.84-4.77,1.23-2.65,.64-2.88,2.13-2.07,4.29,.11,.29,.04,.65,.05,.98,.31,1.17-.83,2.72,.92,3.51,.05,1.25,.1,2.49,.15,3.74,.04,.23,.08,.46,.12,.69,.33,.66,.31,1.35,.23,2.06Z"/>
  <path class="cls-16" d="M192.07,30.25c0-.28,0-.55,0-.83,.65-.04,1.31-.06,1.96-.12,.35-.03,.96,.16,.87-.47-.04-.27-.56-.47-.87-.71,0-.26,.02-.52,.03-.79,1.32-.08,2.03,.64,2.19,1.84,.23,1.8-.35,3.34-1.66,4.67-4.11,4.17-9.61,5.82-14.72,8.15-2.01,.91-4.15,1.53-6.23,2.28l-.09-.78c4.58-1.86,9.23-3.55,13.6-5.85,2.31-1.21,4.98-2.01,6.39-4.44,.51-.89,2.09-1.48,1.51-2.58-.53-1.01-1.97,0-2.96-.38Z"/>
  <path class="cls-7" d="M190.32,119.19c-1.15-1.97-3.86-1.45-5.17-3.15,.62-1.36,2.42-1.07,2.97-2.38l-.04,.03c.54-.17,1.03-.36,.51-1.05l-.03,.04c.19,.01,.38,.02,.57,.03,0-.19-.02-.38-.03-.57l-.04,.03c1.08,.41,.94-.43,1.04-1.02,0,0-.03,.04-.03,.04,1.17-.88,1.92-1.19,1.98,.87,.06,2.08-.33,4.44,1.96,5.82-.82,1.66-2.64,.37-3.72,1.26l.03,.05Z"/>
  <path class="cls-1" d="M225.9,137.48c.48,1.42-.48,2.05-1.45,2.68-.74-.06-.37,1.22-1.13,1.01-.8-.22-1.15-.97-1.26-1.69-.26-1.82,.02-3.63,.25-5.44,.35-2.77,1.25-5.5,.65-8.35,.02-.21,.03-.42,.05-.63,1.65,.14,1.89,1.28,1.93,2.64,.08,2.83-.14,5.63-.45,8.44-.13,1.11,.03,1.86,1.41,1.35Z"/>
  <path class="cls-12" d="M330.62,91.46c2.66-.21,5.32-.43,7.98-.64,0,.27,.02,.55,.03,.82-.67,.09-1.35,.19-2.02,.28-.73-.01-1.47-.03-2.2-.04-.95-.2-1.9-.41-2.74,.31-8.3,.69-16.58,1.66-24.92,1.96-.31-.88,.29-.81,.85-.85,7.32-.56,14.65-1.14,21.97-1.71,.35-.05,.71-.09,1.06-.14Z"/>
  <path class="cls-16" d="M144.13,165.6c.23,7.53,.46,15.06,.66,22.59,.02,.73-.17,1.46-.26,2.2-.86-.45-.63-1.25-.64-1.98-.09-5.06-.19-10.12-.28-15.18-.01-.3-.02-.61-.04-.91,0-.17,0-.35,0-.52,.54-2.03-.53-4.21,.56-6.2Z"/>
  <path class="cls-12" d="M225.9,137.48c-1.39,.51-1.54-.23-1.41-1.35,.32-2.8,.54-5.61,.45-8.44-.04-1.35-.28-2.5-1.93-2.64,0-.3-.02-.59-.02-.89,2.47,.1,3.46,1.59,3.4,3.86-.09,3.15-.32,6.3-.48,9.45Z"/>
  <path class="cls-16" d="M284.22,151.62c.35-.14,.7-.28,1.04-.43,5.09,1.36,10.05,3.25,15.3,3.96,.15,1.13-.66,1-1.27,.85-5.1-1.22-10.21-2.38-15.08-4.39Z"/>
  <path class="cls-16" d="M190.29,119.14c1.08-.89,2.9,.39,3.72-1.26,.02-.26,.05-.51,.07-.77,1.16,.25,1.14-.65,1.22-1.33,.17-1.37,.25-2.75,.37-4.12,.29,0,.58,0,.87,0-.11,1.89-.12,3.79-.37,5.65-.29,2.19-2.54,2.85-5.88,1.82Z"/>
  <path class="cls-13" d="M194.05,27.34c0,.26-.02,.52-.03,.79-3.04-1.18-6.22-.51-9.34-.74l-.53,.03c-1.01,.06-2.03,.11-3.04,.17,0-.24,0-.48,0-.72,1.28-.04,2.56-.08,3.85-.13,1.91,.23,3.82,.21,5.73,.01,.27,0,.53,0,.8,.01,.2,.01,.4,.03,.6,.04,.72-.07,1.39,.08,1.97,.53Z"/>
  <path class="cls-16" d="M224.93,115.65c-1.11,2.31-.47,5.1-2,7.29-.09-.31-.19-.63-.29-.94,1.07-.21,1.46-.59,.35-1.36-.1-1.8,.46-3.45,1.12-5.07,.27,.03,.54,.06,.81,.08Z"/>
  <path class="cls-13" d="M143.67,155.6c.07,2.66,.15,5.31,.22,7.97-.21,0-.43-.02-.64-.02-.14-2.64-.27-5.27-.41-7.91,.28-.01,.56-.03,.83-.04Z"/>
  <path class="cls-15" d="M143.25,163.55c.21,0,.43,.01,.64,.02,.47,.63,.29,1.34,.24,2.03-1.09,1.98-.02,4.16-.56,6.2-.59-2.73-.45-5.49-.32-8.25Z"/>
  <path class="cls-16" d="M341.15,85.34c-1-.02-2-.04-3-.06,0-.2-.01-.4-.02-.6,.12-.07,.23-.16,.34-.26,.91-.04,1.85-.24,2.72-.08,1.47,.28,.63,.68-.04,1Z"/>
  <path class="cls-16" d="M157.1,57.26c-1.75-.79-.61-2.34-.92-3.51,.63,1.09,1.04,2.23,.92,3.51Z"/>
  <path class="cls-12" d="M190.69,26.75c-1.91,.2-3.82,.22-5.73-.01,1.91-.3,3.82-.36,5.73,.01Z"/>
  <path class="cls-16" d="M185.14,83.19c-.18,.17-.37,.35-.55,.52-.77-.55-1.55-1.1-2.32-1.65,.14-.15,.27-.29,.41-.44,1.2-.08,1.82,.76,2.47,1.56Z"/>
  <path class="cls-14" d="M155.69,139.61c.74,1.65,.68,3.31,.04,4.97-.31-1.66-.24-3.31-.04-4.97Z"/>
  <path class="cls-11" d="M150.59,183.52c-.73-1.72-.31-3.5-.24-5.26,.5,1.73,.35,3.5,.24,5.26Z"/>
  <path class="cls-11" d="M338.63,91.65c0-.27-.02-.55-.03-.82,.49-.27,1.13,.99,1.53-.15,.29,.09,.69,.1,.84,.3,.26,.33,0,.6-.38,.63-.66,.04-1.32,.03-1.97,.04Z"/>
  <path class="cls-12" d="M173.53,43.5c.03,.26,.06,.52,.09,.78-.69,.57-1.55,.54-2.37,.66-.16-.19-.32-.38-.47-.57,.92-.29,1.83-.57,2.75-.86Z"/>
  <path class="cls-17" d="M143.67,155.6c-.28,.01-.56,.03-.83,.04-.03-.69-.05-1.38-.08-2.07,.28-.01,.56-.02,.84-.03,.02,.69,.05,1.38,.07,2.07Z"/>
  <path class="cls-11" d="M150.29,175.73c-.03-.89-.06-1.78-.09-2.67,.03,.89,.06,1.78,.09,2.67Z"/>
  <path class="cls-2" d="M222.99,120.64c1.11,.77,.72,1.15-.35,1.36-.16-.52-.19-1.01,.35-1.36Z"/>
  <path class="cls-1" d="M201.06,78.26c0-.34,0-.69-.01-1.03,.12-.03,.24-.04,.37-.01,.04,.4,.26,.87-.35,1.05Z"/>
  <path class="cls-16" d="M150.25,190.48c-.23-.4-.61-.8-.04-1.23,.97,.38,.4,.81,.04,1.23Z"/>
  <path class="cls-16" d="M196.11,104.34c.03-.21,.07-.42,.1-.63-.03,.21-.07,.42-.1,.63Z"/>
  <path class="cls-16" d="M185.18,120.35c.09-.23,.17-.47,.26-.7-.09,.23-.17,.47-.26,.7Z"/>
  <path class="cls-12" d="M192.08,26.8c-.2-.01-.4-.03-.6-.04,.2,.01,.4,.03,.6,.04Z"/>
  <path class="cls-15" d="M143.57,172.32c.01,.3,.02,.6,.04,.91-.2-.29-.25-.6-.04-.91Z"/>
  <path class="cls-16" d="M157.37,61.69c-.04-.23-.08-.46-.12-.69,.04,.23,.08,.46,.12,.69Z"/>
  <path class="cls-2" d="M162.66,126.67c.03-.33,.09-.66,.07-.99-.2-5.51,.33-6.21,5.64-8.34,3.48-1.39,7.12-2.09,10.75-2.86,2.42-.51,3.86,.97,5.12,2.57,1.12,1.43,.36,2.6-.96,3.53-3.32,2.35-7.09,3.79-10.82,5.31-2.06,.84-4.21,1.46-6.25,2.34-1.19,.51-2.3,.78-3.54,.4-.94-.65,.15-1.31,0-1.97Z"/>
  <path class="cls-12" d="M159.63,110.09c.02,.32,.03,.63,.05,.95-7.04,1.64-13.46,4.93-20.14,7.5-3.18,1.22-6.29,2.29-9.82,2.22-8.3-.17-16.59-.18-24.88-.94-3.72-.34-7.24,1.45-10.85,2.3-1.17,.28-2.3,.81-3.6,.41,4-1.81,8.35-2.45,12.77-3.8-2.22-2.97-5.66-3.79-8.37-5.7,2.59-.09,4.42,1.81,6.9,2.56,.95-6.69,3.77-12.95,3.61-19.84-.04-1.85,.7-3.56,2.42-4.88,1.53-1.17,2.89-2.75,3.88-4.42,2.15-3.6,4.48-7.08,6.39-10.84,1.29-2.55,2.6-5.09,3.72-7.73,.24-.56,.6-.73,1.1-.83,.03,.31,.06,.62,.09,.93,.3,1.2-.97,1.59-1.28,2.52-1.32,4.02-3.68,7.56-5.84,11.12-1.67,2.74-3.13,5.68-5.55,7.99-2.55,2.44-4.31,5.17-4.37,9.19-.07,4.89-1.02,9.81-2.76,14.5-1.15,3.09,.6,5.52,3.96,5.82,7.36,.64,14.75,.43,22.12,.72,3.77,.15,7.13-1.03,10.53-2.38,6.59-2.61,12.98-5.76,19.93-7.38Z"/>
  <path class="cls-14" d="M122.89,67.99c-.03-.31-.06-.62-.09-.93,1.21-.97,2.34-2.08,3.96-2.34,.11,.05,.23,.09,.34,.14,0-.13,0-.27,0-.4,3.14-1.81,6.28-3.62,9.42-5.43,.21,.18,.43,.36,.64,.54-.1,.53,.04,1.27-.92,.98-4.96,2.45-4.35,1.04-4.38,5.1-.18,1.09-.22,2.18,.13,3.24,.05,1.8,.11,3.59,.16,5.39-.28-.02-.56-.05-.85-.07l-.1-7.88c.01-.07,.05-.14,.04-.2-.03-.13-.09-.25-.14-.37-.28-.04-.56-.08-.83-.12-.04-.44,.11-1.13-.44-1.15-.84-.03-.44,.79-.57,1.24-2.02,1.03-4.54,.66-6.36,2.26Z"/>
  <path class="cls-16" d="M127.1,64.46c0,.13,0,.27,0,.4-.11-.05-.23-.09-.34-.14,.05-.17,.16-.26,.34-.26Z"/>
  <path class="cls-16" d="M284.29,96.11c0-.24,0-.48,0-.72,6.01-.55,12.03-1.06,18.04-1.69,1.19-.12,1.93,.9,3.02,.8-7.02,.54-14.03,1.07-21.05,1.61Z"/>
  <path class="cls-12" d="M246.35,129.84c.7,.95,2.07,1.09,2.63,2.2-.16,.17-.32,.34-.48,.5-1.19-.43-2.07-1.23-2.73-2.28l.59-.42Z"/>
  <path class="cls-11" d="M331.66,92.2c.85-.71,1.8-.5,2.74-.31-.88,.42-1.81,.41-2.74,.31Z"/>
  <path class="cls-12" d="M302.23,89.16c-.46,.07-.92,.13-1.38,.19-1.35-1.08-2.98-.45-4.45-.75,.86-1.19,2.5-.28,3.49-1.2-3.15-2.81-6.34-5.42-9.23-8.32-2.54-2.56-5.02-3.59-8.15-1.19-.12,.09-.32,.05-.48,.1-6.43,1.92-12.99,3.37-19.64,4.12-3.99,.45-6.25,3.08-9.39,5.46,4.58,1,8.62,.78,12.76,.22,1.97-.27,2.85-.82,3-2.69,.03-.38,0-.86,.65-.87,.73,.77,.18,1.66-.1,2.26-1.02,2.25-.07,3.23,2.01,3.68,0,.18,0,.37,.01,.55-1.16,.16-2.32,.31-3.48,.47,1.31-1.43,.8-2.22-.92-2.45-.81-.11-1.68-.12-2.47,.06-2.8,.65-5.63,.59-8.41,.17-2.78-.43-5.35-.71-7.65,1.46-.78,.74-2.06,.95-3.12,1.41-.48-.06-.96-.13-1.44-.19,4.96-2.28,9.49-5.23,13.51-8.92,.73-.67,1.49-.89,2.43-1.04,7.53-1.21,15.05-2.46,22.37-4.7,.24-.07,.53-.08,.7-.22,3.99-3.48,6.34-.16,8.95,2.15,3.01,2.67,6.07,5.29,9.05,7.99,.89,.81,1.81,.57,2.8,.49,4.79-.4,9.58-.78,14.37-1.16,.47-.04,1.01-.22,1.26,.43-.91,.47-1.9,.47-2.9,.53-4.69,.31-9.38,.66-14.06,1.03-1.47,.11-.18,.6-.09,.92Z"/>
  <path class="cls-14" d="M228.4,96.22c-2.76,1.35-5.6,.55-8.41,.31-.21-.06-.41-.13-.62-.19-.32,0-.65,0-.97,0,.31-1.63-1.5-.78-1.88-1.61,.53-.21,1.29,.16,1.44-.87,.41-2.81,2.22-4.72,4.35-6.39,.13-.18,.27-.37,.4-.55,.25-.07,.51-.15,.76-.22,.35,1.62-1.07,2.2-1.96,2.87-1.12,.85-1.77,1.94-2.37,3.09-.24,.47-.39,1.24-.17,1.66,.35,.67,1.01,.08,1.54,0,2.48-.36,4.15-2.3,6.33-3.24,.17,.14,.35,.28,.52,.42-1.89,1.89-4.34,2.8-7,3.96,2.77,1.17,5.49,.17,8.04,.75Z"/>
  <path class="cls-17" d="M302.23,89.16c-.09-.32-1.38-.8,.09-.92,4.69-.37,9.37-.72,14.06-1.03,1-.07,1.99-.06,2.9-.53,.91,.11,1.43-1.33,2.5-.64,.73,1.55,2.68-.22,3.43,1.27-4.23,.43-8.44,1.1-12.68,1.22-3.45,.1-6.83,1.08-10.3,.63Z"/>
  <path class="cls-12" d="M325.2,87.32c-.75-1.49-2.7,.28-3.43-1.27,3.85-.49,7.69-.97,11.58-.92,.25-.07,.5-.13,.75-.2,1.34-.08,2.68-.17,4.02-.25,0,.2,.01,.4,.02,.6-3.51,.37-6.98,1.04-10.42,1.82,.49-.2,.97-.4,1.46-.6-1.07-.01-2.34-.99-3.03,.63-.32,.06-.64,.12-.95,.19Z"/>
  <path class="cls-14" d="M241.93,94.29c-3.74,.17-7.26,1.5-10.9,2.17-.82,.15-1.39,.1-2.03-.27,4.06-1.09,8.12-2.18,12.18-3.27,.07,.1,.15,.19,.24,.28,.17,.17,.34,.34,.51,.51,0,0,0,0,0,0,0,.2,.01,.4,.02,.6Z"/>
  <path class="cls-14" d="M232.64,82.03c1.56,.27,1.67,1.55,1.02,2.38-1.69,2.14-2.82,4.82-5.4,6.19l-.42-.52c.25-.53,.81-.78,1.16-1.18,1.62-1.85,3.89-3.43,3.21-6.44l.43-.43Z"/>
  <path class="cls-14" d="M243.85,91.67c.48,.06,.96,.13,1.44,.19,.07,.17,.05,.32-.06,.47-.31-.06-.63-.17-.85,.18,.3-.02,.61-.04,.91-.06,.29-.15,.57-.18,.82,.07-1.23,1-2.71,1.08-4.19,1.17,0,0,0,0,0,0-.17-.17-.34-.34-.51-.51-.09-.09-.17-.18-.24-.28,.89-.41,1.78-.83,2.67-1.24Z"/>
  <path class="cls-14" d="M231.82,79.41l.15,.85c-.66,.92,.81,1.04,.67,1.77-.14,.14-.29,.29-.43,.43-.58-.78-1.51-.49-2.26-.75,.27-1.06,1.18-1.59,1.88-2.3Z"/>
  <path class="cls-14" d="M228.26,90.6c-.3,.3-.6,.6-.89,.9-.17-.14-.35-.28-.52-.42,.33-.33,.66-.67,.99-1,.14,.17,.28,.35,.42,.52Z"/>
  <path class="cls-16" d="M334.11,84.93c-.25,.07-.5,.13-.75,.2,.25-.07,.5-.13,.75-.2Z"/>
  <path class="cls-10" d="M193.38,97.36c.22-.22,.44-.44,.66-.67,.34,.01,.69,.02,1.03,.04,2.12,1.28,4.27,.14,6.38,0,3.4-.23,6.84-.16,10.18-1.06,1,.3,1.46-1.04,2.44-.79,.08,1.66,1.8,.31,2.32,1.22-1.64,.3-3.29-.2-4.89,.47-1.49,.62-3.28-.53-4.73,.65-1.86,.93-3.96,.26-5.88,.85-2.31-1.01-4.72-.09-7.08-.35l-.43-.36Z"/>
  <path class="cls-17" d="M265.35,92.42c-4.01,.37-8.01,.75-12.02,1.12-1.52-.98-3.42,.35-4.92-.79,5.29-.38,10.57-.75,15.86-1.13,.5,.07,.97,.19,1.08,.8Z"/>
  <path class="cls-17" d="M289.27,90.2c-4,.96-8.12,.81-12.17,1.27,.27-.27,.6-.53,.07-.86,1.29-.81,2.74-.2,4.08-.45,.87-.16,2.06,.49,2.52-.88l2.55-.39c.43,1.69,2.37-.05,2.95,1.3Z"/>
  <path class="cls-17" d="M296.4,88.61c1.48,.29,3.11-.33,4.45,.75-3.67,.58-7.36,1.04-11.09,.77,.4-1.78,2.28-.25,2.99-1.35,1.21-.06,2.43-.11,3.64-.17Z"/>
  <path class="cls-15" d="M277.17,90.62c.53,.33,.2,.59-.07,.86-3.92,.32-7.84,.63-11.75,.95-.1-.61-.57-.73-1.08-.8,.05-.15,.09-.31,.12-.47,1.16,.02,2.32,.03,3.47,.05,1.16-.16,2.32-.31,3.48-.47,.34,.01,.69,.02,1.03,.04,1.16,.65,2.31,.71,3.44-.07,.45-.03,.9-.06,1.35-.09Z"/>
  <path class="cls-15" d="M248.41,92.75c1.5,1.14,3.39-.19,4.92,.79-3.8,.26-7.57,.93-11.39,.74,0-.2-.01-.4-.02-.6,1.48-.09,2.97-.17,4.19-1.17,0,0,.02,.13,.02,.13l2.28,.11Z"/>
  <path class="cls-15" d="M206.76,97.21c1.45-1.18,3.24-.03,4.73-.65,1.6-.67,3.25-.17,4.89-.47-.53-.91-2.24,.44-2.32-1.22,.82-.05,1.64-.09,2.46-.14,.38,.83,2.19-.02,1.88,1.61-3.86,.57-7.73,1.03-11.64,.87Z"/>
  <path class="cls-17" d="M193.81,97.71c2.35,.26,4.76-.66,7.08,.35-1.8,.18-3.6,.43-5.41,.48-.55,.02-1.75,.69-1.67-.83Z"/>
  <path class="cls-12" d="M292.75,88.78c-.71,1.09-2.59-.44-2.99,1.35-.16,.02-.32,.05-.49,.07-.58-1.35-2.52,.39-2.95-1.3,2.14-.26,4.28-.33,6.43-.11Z"/>
  <path class="cls-17" d="M326.16,87.13c.69-1.61,1.96-.64,3.03-.63-.49,.2-.97,.4-1.46,.6-.52,0-1.05,.02-1.57,.03Z"/>
  <path class="cls-11" d="M330.62,91.46c-.35,.05-.71,.09-1.06,.14,.33-.26,.68-.3,1.06-.14Z"/>
  <path class="cls-8" d="M192.01,102.88l-.15,.09s-.17-.03-.17-.03c.04-.13,.07-.26,.11-.39,.07,.11,.14,.22,.22,.33Z"/>
  <path class="cls-15" d="M219.37,96.34c.21,.06,.41,.13,.62,.19-.21-.06-.41-.13-.62-.19Z"/>
  <path class="cls-2" d="M243.67,109.93c.06,2.7-2.95,6.86-6.32,7.85-2.19,.64-4.16,.45-5.89-1.33-3.07-3.19-6.81-5.64-9.75-9.01-1.94-2.23-2.07-3.69,.32-5.63,1.14-.92,2.01-2.12,3.47-2.73,3.26-1.36,5.75,.67,8.42,1.73,2.36,.93,4.6,2.2,6.85,3.41,1.92,1.03,2.76,2.77,2.89,5.72Z"/>
  <path class="cls-7" d="M245.76,130.26c.66,1.06,1.55,1.85,2.73,2.28,.12,4.19-2.9,10.44-7.2,11.82-.69,.22-1.66,.56-2.13,.26-.74-.47-.04-1.33,.15-2.01,1.08-3.97,2.12-7.94,2.05-12.1-.01-.79,.22-1.95-1.03-1.82-2.37,.24-2.05-1.03-1.64-2.5,.16-.56,.24-1.14,.39-1.85,2.85,1.33,3.94,4.58,6.67,5.93Z"/>
  <path class="cls-9" d="M188.12,113.66c-.11-.11-.3-.32-.31-.31-2.91,2.39-5.44,.98-8.15-.56-1.54-.87-3.23-1.63-5.06-1.89-1.38-.2-1.52-1.32-1.68-2.4,.52-.86,.77-1.78,.7-2.79,1.07-.7,2.23-.98,3.5-.77-.16,1.37,.06,2.65,.93,3.76,.99,2.17,2.85,2.43,4.89,2.13,1.67-.25,2.27-.92,2.66-2.64h0c1.4-.46,1.79-1.73,2.32-2.89,.67-1.47,3.41-1.81,4.74-.61-.53,1.39-.6,2.96-1.65,4.17-.56,.64-1.44,1.23-.95,2.33,0,0,.03-.04,.03-.04-.98-.31-.93,.44-1.04,1.02,0,0,.04-.03,.04-.03-.42-.06-.57,.15-.54,.54,0,0,.03-.04,.03-.04-.58,.15-1.05,.35-.51,1.05l.04-.03Z"/>
  <path class="cls-9" d="M193.14,95.48c-.35,.41-.7,.81-1.05,1.22-.67,.07-1.34,.14-2.01,.22-1.61,.75-3.68-.77-5.07,1.03l-.09,.02c-1.34,.81-1.28,2.2-1.33,3.47-.08,2.06-.03,4.13,0,6.19,.04,2.39-.96,3.07-3.15,2.04-.73-.34-1.49-.69-1.84-1.51-.02-1.15,.07-2.32-.06-3.46-.57-5,2.93-9.7,8.01-10.62,2.09-.37,3.95,1.11,6.04,.75,.4,0,.57,.2,.54,.59,0,0,0,.06,0,.06Z"/>
  <path class="cls-2" d="M235.95,138.63c-.54-2.42,.73-5.2,1.82-8.03,.31-.8,.7-1.02,1.44-.96,.95,.07,.68,.78,.67,1.3-.11,4.16-.39,8.29-1.71,12.28-.21,.63-.29,1.63-1.37,1.46-1.07-.17-.8-1.12-.84-1.8-.06-1.16-.02-2.33-.02-4.24Z"/>
  <path class="cls-14" d="M186.57,94.08c-5.09,.92-8.58,5.62-8.01,10.62,.13,1.14,.05,2.31,.06,3.46-.19,.18-.37,.36-.56,.54-.87-1.12-1.09-2.39-.93-3.76,0,0-.05,.01-.05,.01,1.34-1.36,.5-3.18,.98-4.72-.1-.28-.2-.56-.3-.85,.2-.14,.71-.11,.49-.49-.17-.28-.52-.06-.73,.19-1.4,.61-3.34-.92-4.39,1.09-1.99-.2-2.61,1.79-4.02,2.52,.38-2.31,1.95-3.49,4.04-4.02,1.38-.35,2.83-.43,4.4-.65-.36-.87-.66-1.59-.96-2.32,1.32-.31,1.19,.88,1.58,1.53,.22,.36,.39,.76,.91,.41,.33-.22,.8-.4,.93-.72,.21-.48-.31-.57-.65-.8-1.25-.89-2.57-1.83-1-3.54,.26,.04,.52,.09,.78,.13-.19,.85,.65,.66,.99,.97,.49,.9-1.77,.36-.75,1.3,.49,.45,1.32,1.24,2.31,.31,1.34-1.26,3.1-1.66,4.87-1.95,0,.25,0,.49,0,.74Z"/>
  <path class="cls-1" d="M195.67,111.66c-.12,1.38-.2,2.75-.37,4.12-.08,.68-.06,1.58-1.22,1.33-.69-.86-.92-1.85-1.05-2.94-.38-3.17-.81-6.33,.33-9.44,.25-.48,.33-1.11,1.14-.98,.68,.11,.7,.62,.73,1.08,.17,2.27,.3,4.55,.44,6.82Z"/>
  <path class="cls-14" d="M193.36,104.74c-1.14,3.11-.71,6.27-.33,9.44,.13,1.09,.36,2.08,1.05,2.94-.02,.25-.05,.51-.07,.77-2.28-1.38-1.89-3.74-1.96-5.82-.06-2.05-.81-1.74-1.98-.87-.49-1.1,.39-1.69,.95-2.33,1.05-1.21,1.12-2.78,1.65-4.17,.23,.02,.46,.03,.69,.05Z"/>
  <path class="cls-11" d="M185.61,99.09c-.17,.04-.33,.08-.5,.12-.06-.41-.12-.83-.18-1.24,0,0,.09-.02,.09-.01,.2,.38,.4,.76,.59,1.14Z"/>
  <path class="cls-6" d="M232.52,98.95c.13-.07,.27-.22,.38-.2,.14,.03,.26,.19,.39,.29-.13,.05-.27,.14-.4,.13-.13-.01-.24-.14-.37-.22Z"/>
  <path class="cls-5" d="M249.55,134.43c.03-.07,.06-.13,.08-.18,.08,.06,.17,.11,.25,.17-.05,.06-.11,.12-.16,.18-.06-.05-.12-.11-.17-.16Z"/>
  <path class="cls-7" d="M173.53,43.5c-.92,.29-1.83,.57-2.75,.86-2.84,.81-5.68,1.62-8.61,2.1-1.44,.23-2.92,.81-3.49-1.35-.72,.63-.29,1.02-.24,1.44,.17,1.46-1.13,1.35-1.98,1.64-.98,.34-1.08-.44-1.19-1.1-.37-2.27-.72-4.55-1.08-6.83,0-.54,.1-1.1-.47-1.46-.22-3.06-2.05-5.46-3.42-8.33,1.82-.73,3.74-.92,5.66-1.07,5.04-.39,10.09-.75,15.13-1.1,.94-.06,1.99-.35,2.26,1.14,.21,1.12,1.24,.92,2.03,.92,5.56-.02,11.11-.08,16.67-.12,.99,.37,2.43-.63,2.96,.38,.58,1.1-.99,1.69-1.51,2.58-1.41,2.44-4.08,3.23-6.39,4.44-4.38,2.3-9.03,3.99-13.6,5.85Z"/>
  <path class="cls-7" d="M136.22,60.49l.02,.06"/>
  <path class="cls-7" d="M138,65c3.31,.5,7.74,1.6,11,2,1.45,.18,2,0,2.17,3.27,.18,3.56,.17,7.13,.27,10.69,.07,2.63-2.64,6.03-5.27,6.62-1.97,0-3.96-.14-5.9,.07-1.65,.18-2.25-.35-2.09-1.93-.02-2.96-.03-5.92-.05-8.87,.02-3.46,.03-6.93,.07-10.39"/>
  <path class="cls-9" d="M153.72,38.81c.56,.36,.46,.93,.47,1.46-1.52-.22-.84,.81-.74,1.4,1.03,5.68,1.91,11.38,2.44,17.13,.07,.4,.14,.79,.21,1.19,.05,1.25,.1,2.5,.15,3.75,1.46,11.11,.43,22.37,2.11,33.47,.06,.35,.12,.7,.19,1.05-.03,.06-.08,.12-.07,.17,.03,.11,.1,.22,.15,.32-1.21,2.05-3.74,2.03-5.07,0-1.1,.57,1.08,2.42-1.04,2.61-1.76-1.6-1.94-4.06-.41-5.67,.4,.49-.15,1.77,1.08,1.5,.96-.21,.41-1.09,.38-1.64-.12-2.11-.33-4.22-.51-6.33-1.04-6.88-.75-13.84-1.07-20.76-.34-7.38-.81-14.76-2.28-22.01-.68-3.37-1.49-6.73-2.56-9.99-1.38-4.21-4.66-5.34-8.74-3.37-1.08,.52-2.25,.97-3.54,.6,3.59-4.89,9.8-5.97,14.24-2.52,2.09,1.62,2.32,4.09,2.92,6.37,.26,.99,.37,1.82,1.67,1.27Z"/>
  <path class="cls-7" d="M152.12,95.69c-1.53,1.61-1.36,4.07,.41,5.67-.45,.44-1.26,.5-1.36,1.3l.02-.02c-.79,2.04-2.26,3.23-4.44,3.52-.27-.03-.55-.06-.82-.09-.67-2.29-2.86-1.53-4.28-1.81-1.55-.31-2.13-.89-2.34-2.24-.32-2.11-.63-4.23-.95-6.35-.01-2.14,.06-4.28-.06-6.4-.08-1.39,.39-1.93,1.76-1.93,2.05,0,4.1-.1,6.15-.15,1.36,.13,2.73,.08,4.09,.45,.92,.26,1.4,.66,1.51,1.57,.11,2.16,.22,4.32,.33,6.47Z"/>
  <path class="cls-3" d="M181.12,27.58c1.01-.06,2.03-.11,3.04-.17,.18,0,.35-.02,.53-.03,3.11,.22,6.3-.45,9.34,.74,.3,.23,.83,.44,.87,.71,.09,.63-.52,.43-.87,.47-.65,.06-1.31,.08-1.96,.12-5.04,.04-10.08,.07-15.12,.1-.49,0-.99,0-1.48-.07-.54-.07-1.29,.04-1.3-.78-.01-.87,.75-.7,1.29-.74,1.89-.13,3.78-.24,5.68-.35Z"/>
  <path class="cls-13" d="M146.2,87.18c-2.05,.06-4.1,.15-6.15,.15-1.37,0-1.84,.54-1.76,1.93,.13,2.13,.05,4.27,.06,6.4-.36,0-.71,0-1.07,0-.04-1.79-.08-3.57-.12-5.36,.18-.86,.26-1.72-.07-2.56-.04-.99-.07-1.99-.11-2.98,.4-.01,.8-.03,1.2-.04-.16,1.57,.43,2.11,2.09,1.93,1.95-.21,3.93-.06,5.9-.07,0,.2,.02,.4,.03,.6Z"/>
  <path class="cls-14" d="M152.12,95.69c-.11-2.16-.22-4.32-.33-6.47,.43,0,.85,0,1.28,0,.18,2.11,.39,4.22,.51,6.33,.03,.55,.58,1.44-.38,1.64-1.23,.26-.69-1.01-1.08-1.5Z"/>
  <path class="cls-7" d="M151.52,83.14v4.14c-3.05-1.55,.05-2.89,0-4.14Z"/>
  <path class="cls-17" d="M143.43,151.11c-.26-.37-.25-.76-.06-1.15,.26,.37,.3,.75,.06,1.15Z"/>
  <path class="cls-7" d="M145.92,106.07c.27,.03,.55,.06,.82,.09,.16,.03,.31,.07,.46,.14,.43,1.18,.97,1.08,1.58,.13,1.7-.41,3.22,.2,4.8,.72,1.32,.44,2.75,.82,4.12,.79,1.71-.04,2.19,.62,1.94,2.15-6.95,1.62-13.35,4.76-19.93,7.38-3.39,1.35-6.75,2.52-10.53,2.38-7.37-.29-14.76-.08-22.12-.72-3.36-.29-5.1-2.73-3.96-5.82,1.74-4.69,2.69-9.61,2.76-14.5,.05-4.02,1.82-6.75,4.37-9.19,2.42-2.31,3.88-5.25,5.55-7.99,2.17-3.56,4.52-7.1,5.84-11.12,.31-.93,1.58-1.32,1.28-2.52,1.82-1.6,4.34-1.23,6.36-2.26,.34-.03,.68-.06,1.02-.09,.28,.04,.56,.08,.83,.12,.04,.19,.07,.38,.11,.57,.03,2.63,.06,5.26,.1,7.88,.02,.52,.03,1.03,.05,1.55,.04,1.14,.08,2.29,.11,3.43,.03,.23,.06,.45,.08,.68,.03,2.25,.07,4.5,.1,6.75-.18,.33-.35,.65-.53,.98-2.88,.91-4.2-2.35-6.73-2.46,1.64,1.52,3.11,3.54,5.54,3.41,1.61-.09,1.82,.4,1.77,1.68-.03,.82,.08,1.64,.12,2.47-.19,3.5,.19,6.94,.77,10.39,.1,.6,.99,1.48-.02,1.94-.99,.45-1.32-.63-1.89-1.19-2.01-1.96-2.45-4.56-3.08-7.09-.12-1.21-.23-2.42-.35-3.62-.05-.45-.27-.76-.76-.77-.49-.02-.81,.28-.76,.73,.14,1.29-.43,2.85,1.24,3.62-.31,.48-.13,.97,.02,1.43,1.17,3.59,1.52,7.86,6.76,8.06,.28,.01,.56,.53,.81,.85,3.28,4.08,8.44,3.65,11.34-.95Zm-15.45,4.76c.15,2.6,0,5.31,2.22,7.27-1.09-2.32-1.05-4.96-2.22-7.27Z"/>
  <path class="cls-7" d="M159.69,148.09c-1.03,.02-1.56-.48-2-1.45-1.36-2.96-.79-6-.6-9.03-.28-2.51,1.6-3.56,3.21-4.85,4.47-3.62,10.04-4.84,15.14-7.07,.89-.39,1.82-.69,2.89-1.1,.48,1.35,.17,2.65,.21,3.92-.36,.73-.76,1.44-1.06,2.2-.84,2.13-1.92,3.69-4.67,2.96-.62-.16-2.09-.72-2.19,.98l.02-.04c-.99-.31-1.34,.02-1.03,1.02l.03-.03c-.94-.27-.95,.4-1.03,1.01h.01c-1.58,.1-1.98,1.15-2,2.51l.02-.03c-1.33,.05-1.69,.84-1.52,2.02l.02-.02c-1.05-.04-1.83,.19-1.51,1.52l.02-.02c-1.53,.43-1.94,1.62-2.02,3.02l.02-.03c-1.52,.17-2.24,.97-2.01,2.53l.04-.02Z"/>
  <path class="cls-9" d="M184.66,122.63c.29,4.88,.33,9.79,.96,14.62,.45,3.44-1.66,6.35-1.18,9.71-1.01-.87-.64-1.97-.78-2.96-.08-.52,.18-1.3-.7-1.31-.81,0-.81,.66-.79,1.26,.02,.63,.31,1.29-.34,2.26-.41-4.59-.79-8.84-1.17-13.09,.08-2.24-.07-4.46-.44-6.67-.74-2.94,1.41-3.78,3.42-4.78,1.33-.66,.71,.62,1.03,.96Z"/>
  <path class="cls-9" d="M176.59,95.7c.3,.73,.6,1.45,.96,2.32-1.57,.22-3.02,.31-4.4,.65-2.09,.52-3.66,1.71-4.04,4.02,0,0,.03-.04,.03-.04-1.57-.25-2.01,.92-2.52,2.01l.02-.02c-.4-.05-.58,.12-.53,.53l.02-.02c-1.05,.62-2.13,1.18-3.34,1.43-1.19,.25-1.81-.7-2.46-1.31-1.28-1.22,1.5-.99,.86-2.09,0,0-.03,.03-.03,.03,1.78-1.24,3.6-2.44,4.51-4.54l-.04,.04c.43,.07,.62-.1,.54-.54l-.03,.04c3.24-1.93,6.4-4.21,10.51-2.49h-.05Z"/>
  <path class="cls-4" d="M161.19,103.18c-2.6,.4-2.64,.55-1.19,3.83-2.68,.51-5.14-.29-7.6-1.06-1.87-.59-1.1-2.09-1.21-3.3,0,0-.02,.02-.02,.03,.65,.69,1.18-.46,1.81-.12,.23,.04,.47,.09,.7,.13,.32,1.22,.68,.52,1.03,.02h-.03c1.24,.22,2.39-.25,3.56-.5,.63-.13,.35-.53-.05-.76,0-.21,0-.42,0-.64,1.53-.19,3.07-.38,4.63-.58-.13,1.32-1.68,1.71-1.65,2.99l.03-.03Z"/>
  <path class="cls-2" d="M148.78,106.43c-.61,.95-1.14,1.05-1.58-.13,.53,.04,1.05,.09,1.58,.13Z"/>
  <path class="cls-7" d="M231.82,79.41c-.69,.71-1.61,1.24-1.88,2.3,0,0,.01-.01,.01-.01-.5-.14-.58,.12-.52,.53l.03-.03c-.85-.18-1.61-.21-1.52,1.02l.02-.02c-1.38,.76-3.17,1.05-3.5,3.02l.03-.02c-.68-.51-.88-.04-1.03,.51h.02c-.25,.06-.51,.13-.76,.21-.18-.15-.36-.3-.54-.45-.05-.66-.1-1.31-.14-1.97-.05-.75-.36-1.43-1.18-1.2-.79,.22-.34,.96-.18,1.44,.41,1.21-.25,1.77-1.12,2.43-1.64,1.24-3.66,1.92-5.05,3.51-.31,.08-.7,.06-.93,.24-5.28,3.94-11.29,5.53-17.79,5.54-.2-.19-.4-.39-.6-.58,3.41-4.75,5.85-9.99,7.7-15.5,.49-1.46,.46-3.1,.66-4.65,1.03,.68,1.94-.03,2.71-.44,10.04-5.29,20.84-7.35,32.04-7.93,3.39-.17,6.75-.82,10.12-1.24,1.63-.08,3.23-.67,5.18-.4-1.55,1.52-3.46,1.76-5.13,2.45-1.6,.65-3.29,1.08-4.96,1.54-2.97,.81-5.21,2.72-7.3,4.81-1.55,1.55-2.92,3.27-4.37,4.91Z"/>
  <path class="cls-7" d="M186.56,93.34c-1.77,.29-3.53,.68-4.87,1.95-.99,.93-1.82,.14-2.31-.31-1.02-.94,1.24-.4,.75-1.3,0,0-.05,.03-.05,.03,.38,.57,.67,.06,1-.08,.57-.22,1.31-.15,1.53-.93l-.03,.02c1.72,.08,2.92-.87,4.02-2.02l-.03,.02c.74,0,1.68,.3,1.51-1.03l-.03,.03c3.1-.56,5.29-2.66,7.59-4.55,.42-.35,.51-1.11,.25-1.63-1.28-2.59,.7-3.43,2.38-4.07,.96-.37,1.62-1.42,2.8-1.23-.35,6.61-3.57,11.9-7.68,16.78-.26,.31-.58,.17-.81-.12-1.71-1.66-3.81-1.85-6.03-1.56Z"/>
  <path class="cls-16" d="M186.56,93.34c2.22-.29,4.31-.11,6.03,1.56,0,0,.02-.07,.02-.07-2.09,.36-3.95-1.12-6.04-.75,0-.25,0-.49,0-.74Z"/>
  <path class="cls-8" d="M190.09,96.92c.67-.07,1.34-.14,2.01-.22-.28,.99-1.26,1.09-1.95,1.56-.12-.14-.24-.28-.36-.42,.1-.31,.2-.61,.31-.92Z"/>
  <path class="cls-8" d="M190.14,98.26c-.18,.5-.57,.77-1.05,.94,0,0,0,0,0,0-.04-.36-.09-.73-.13-1.09,.27-.09,.55-.18,.82-.27,.12,.14,.24,.28,.36,.42Z"/>
  <path class="cls-2" d="M195.07,96.73c-.34-.01-.69-.02-1.03-.04,.07-.7,.8-.48,1.13-.82,.2,.19,.4,.39,.6,.58-.23,.09-.46,.18-.7,.28Z"/>
  <path class="cls-16" d="M193.14,95.48s0-.06,0-.06c0,0,0,.06,0,.06Z"/>
  <path class="cls-7" d="M178.37,92.58c-1.57,1.71-.25,2.66,1,3.54,.33,.24,.86,.32,.65,.8-.14,.32-.6,.5-.93,.72-.51,.34-.69-.06-.91-.41-.39-.65-.26-1.84-1.58-1.53,0,0,.05,.01,.05,.01-.74-1.97-2.49-1.53-3.89-1.43-1.7,.12-3.07,.36-1.5-2.52-2.71,1.77-4.56,.25-6.52-.39-1.61-.61-3.2-1.27-4.83-1.83-1-.34-1.41-.93-1.44-1.99-.16-5.56-.36-11.12-.57-16.68-.05-1.36,.52-1.48,1.65-1.09,5.02,1.72,9.62,4.29,14.22,6.85,2.94,1.64,5.83,3.38,8.52,5.43,.77,.55,1.55,1.1,2.32,1.65,1.58,1.29,1.63,2.34-.21,3.57-2.22,1.49-4.45,3.03-6.02,5.29Z"/>
  <path class="cls-7" d="M159.1,97.2c-.08-2.28-.62-4.55-.34-6.84,2.23-.05,3.83,1.61,5.9,1.77,1.17,.61,2.33,1.22,3.67,1.38,.69,.08,1.39,.38,1.52,1.06,.17,.84-.75,.95-1.26,1.25-1.02,.6-2.48,.71-2.46,2.38,0,0,.03-.04,.03-.04-.66-.3-.79-.07-.54,.54,0,0,.04-.04,.04-.04-.97,.25-1.94,.54-2.92,.75-1.89,.41-3.67,.56-3.65-2.21Z"/>
  <path class="cls-14" d="M159.1,97.2c-.02,2.78,1.75,2.62,3.65,2.21,.98-.21,1.95-.5,2.92-.75-.91,2.1-2.73,3.31-4.51,4.54-.03-1.28,1.52-1.67,1.65-2.99-1.56,.19-3.1,.39-4.63,.58-1.84,.27-3.73,.38-5.21,1.75-.63-.34-1.16,.81-1.81,.12,.1-.81,.91-.86,1.36-1.31,2.12-.19-.06-2.04,1.04-2.61,1.33,2.04,3.86,2.05,5.07,0,.01-.06,.05-.12,.03-.17-.03-.11-.08-.21-.12-.32-.06-.35-.12-.7-.19-1.05,.25,0,.49,0,.74-.01Z"/>
  <path class="cls-14" d="M166.13,98.2c-.02-1.67,1.44-1.78,2.46-2.38,.52-.3,1.43-.41,1.26-1.25-.14-.68-.83-.98-1.52-1.06-1.34-.16-2.5-.78-3.67-1.38,.02-.25,.04-.51,.05-.76,1.97,.64,3.81,2.15,6.53,.39-1.57,2.87-.2,2.64,1.5,2.52,1.4-.1,3.16-.53,3.89,1.43-4.11-1.72-7.27,.56-10.51,2.49Z"/>
  <path class="cls-1" d="M170.62,134.65h4.11c-1.73,3.56-4.18,6.33-6.41,9.13-1.59,2-2.84,4.38-5.12,5.88-.99,.65-1.85,.54-2.79,.28-1-.28-.71-1.14-.71-1.85,0,0-.04,.02-.04,.02,.97-.61,2.1-1.08,2.01-2.53,0,0-.02,.03-.02,.03,1.21-.65,1.7-1.78,2.02-3.02,0,0-.02,.02-.02,.02,1.22,.21,1.46-.56,1.51-1.52,0,0-.02,.02-.02,.02,.83-.43,1.32-1.11,1.52-2.02,0,0-.02,.03-.02,.03,.73-.79,2.35-.87,2-2.52,0,0-.01,.01-.01,.01,1.05,.38,.95-.41,1.03-1.01,0,0-.03,.03-.03,.03,.65-.03,.96-.4,1.03-1.02l-.02,.04Z"/>
  <path class="cls-11" d="M185.88,143.96c-.06,.14-.12,.28-.18,.42-.14-.06-.36-.09-.39-.19-.04-.11,.1-.27,.16-.41,.14,.06,.27,.12,.41,.18Z"/>
  <path class="cls-1" d="M180.14,93.68c-.34-.31-1.18-.12-.99-.97,2.06-.92,3.25-2.88,5.05-4.17,2.8-2.02,5.64-3.97,8.48-5.94,.87-.61,1.45-.61,1.97,.19,.52,.8,.56,1.43-.32,2.3-1.89,1.86-4.66,2.46-6.27,4.64,0,0,.03-.03,.03-.03-.63,.16-1.74-.38-1.51,1.03,0,0,.03-.02,.03-.02-1.76-.17-2.94,.83-4.02,2.02,0,0,.03-.02,.03-.02-.89-.71-1.41,.14-2.04,.49-.29,.05-.63,.06-.48,.52l.05-.03Z"/>
  <path class="cls-16" d="M156.11,59.99c-.07-.4-.14-.79-.21-1.19,.07,.4,.14,.79,.21,1.19Z"/>
  <path class="cls-14" d="M189.06,112.17c.11-.58,.06-1.33,1.04-1.02-.1,.59,.04,1.43-1.04,1.02Z"/>
  <path class="cls-14" d="M188.07,113.69c-.54-.7-.06-.9,.51-1.05,.52,.69,.03,.88-.51,1.05Z"/>
  <path class="cls-14" d="M188.56,112.68c-.03-.39,.12-.6,.54-.54,0,.19,.02,.38,.03,.57-.19-.01-.38-.02-.57-.03Z"/>
  <path class="cls-12" d="M184.69,27.39c-.18,0-.35,.02-.53,.03,.18,0,.35-.02,.53-.03Z"/>
  <path class="cls-9" d="M136.98,84.77c.04,.99,.07,1.99,.11,2.98-.3,.86-.15,1.71,.07,2.56,.04,1.79,.08,3.57,.12,5.36-.53,2.21,.52,4.16,1.01,6.2,.46,1.95,.9,3.83,3.69,3.39,.96-.15,2.02,.36,3.22,.61-.87,.75-1.56,1.43-2.34,1.99-2.77,2-6.3,1.26-7.71-1.77-1.23-2.65-2.43-5.34-2.35-8.4,.05-1.65-.12-3.31-.19-4.96-.02-.52-.05-1.04-.07-1.56-.04-.95-.08-1.89-.13-2.84,.36-1.57,.23-3.14-.09-4.7-.05-2.63-.1-5.26-.15-7.9-.01-.49-.02-.97-.03-1.46-.05-1.8-.11-3.59-.16-5.39,.31-1.1,.21-2.17-.13-3.24,.03-4.06-.58-2.65,4.38-5.1,0,0-.02-.06-.02-.06,.08,1.6,.16,3.21,.24,4.81,.01,.33,.02,.66,.04,.99-.28,1.54-.16,3.07,.13,4.59,.04,4.63-.06,9.26,.35,13.89Z"/>
  <path class="cls-17" d="M131.86,65.65c.34,1.07,.44,2.15,.13,3.24-.35-1.07-.32-2.15-.13-3.24Z"/>
  <path class="cls-16" d="M130.27,65.63c-.34,.03-.68,.06-1.02,.09,.13-.46-.27-1.27,.57-1.24,.56,.02,.41,.71,.44,1.15Z"/>
  <path class="cls-17" d="M132.15,74.28c.01,.49,.02,.97,.03,1.46-.28,0-.55,.01-.83,.02-.02-.52-.03-1.03-.05-1.55,.28,.02,.56,.05,.85,.07Z"/>
  <path class="cls-16" d="M131.21,66.33c-.04-.19-.07-.38-.11-.57,.05,.12,.11,.25,.14,.37,.02,.06-.02,.13-.04,.2Z"/>
  <path class="cls-7" d="M292.75,88.78c-2.15-.21-4.29-.14-6.43,.11-.85,.13-1.7,.26-2.55,.39-4.17-.06-8.3,.51-12.44,.91-2.09-.45-3.03-1.43-2.01-3.68,.27-.6,.83-1.49,.1-2.26-.65,.01-.62,.49-.65,.87-.15,1.87-1.03,2.42-3,2.69-4.14,.56-8.18,.77-12.76-.22,3.13-2.38,5.4-5.01,9.39-5.46,6.65-.75,13.21-2.2,19.64-4.12,.16-.05,.37-.01,.48-.1,3.13-2.4,5.61-1.37,8.15,1.19,2.89,2.91,6.08,5.51,9.23,8.32-.99,.92-2.64,0-3.49,1.2-1.21,.06-2.43,.11-3.64,.17Z"/>
  <path class="cls-16" d="M271.34,90.19c4.14-.39,8.27-.97,12.44-.91-.46,1.37-1.65,.72-2.52,.88-1.35,.25-2.79-.36-4.08,.45-.45,.03-.9,.06-1.36,.09-1.15,.02-2.29,.05-3.44,.07-.34-.01-.69-.02-1.03-.04,0-.18,0-.36-.01-.55Z"/>
  <path class="cls-1" d="M227.84,90.08c-.33,.33-.66,.67-.99,1-2.18,.94-3.84,2.88-6.33,3.24-.54,.08-1.19,.67-1.54,0-.22-.42-.08-1.18,.17-1.66,.59-1.16,1.24-2.24,2.37-3.09,.88-.67,2.31-1.25,1.96-2.87,0,0-.02,.01-.02,.01,.7,.54,.94,.17,1.03-.51,0,0-.03,.02-.03,.02,1.72-.36,2.88-1.38,3.5-3.02,0,0-.02,.02-.02,.02,.84,.17,1.62,.23,1.52-1.02,0,0-.03,.03-.03,.03,.19,.01,.37,.02,.56,.03-.01-.19-.02-.37-.04-.56,0,0-.01,.01-.01,.01,.75,.26,1.68-.03,2.26,.75,.68,3.01-1.59,4.59-3.21,6.44-.34,.39-.9,.64-1.16,1.18Z"/>
  <path class="cls-2" d="M222.71,86.92c-.13,.18-.27,.37-.4,.55-.15-.13-.3-.26-.45-.39,.1-.2,.2-.41,.31-.61,.18,.15,.36,.3,.54,.45Z"/>
  <path class="cls-15" d="M241.42,93.19c.17,.17,.34,.34,.51,.51-.17-.17-.34-.34-.51-.51Z"/>
  <path class="cls-12" d="M245.23,92.32s.06,.13,.06,.13c-.3,.02-.61,.04-.91,.06,.22-.35,.54-.24,.85-.18Z"/>
  <path class="cls-12" d="M214.62,91.49c-2.19,1-3.98,2.74-6.56,3.35,1.26,.9,2.63-.25,3.57,.82-3.33,.91-6.78,.83-10.18,1.06-2.1,.14-4.26,1.29-6.38,0,.23-.09,.46-.18,.7-.28,6.5,0,12.51-1.6,17.79-5.54,.24-.18,.62-.16,.93-.24,.04,.27,.08,.54,.12,.81Z"/>
  <path class="cls-12" d="M189.78,97.84c-.27,.09-.55,.18-.82,.27-1.03-.31-2.24-1.06-2.42,.9-.31,.02-.62,.05-.93,.07-.2-.38-.4-.76-.59-1.14,1.39-1.81,3.46-.28,5.07-1.04-.1,.31-.2,.61-.31,.92Z"/>
  <path class="cls-11" d="M186.54,99.02c.19-1.97,1.39-1.21,2.42-.9,.04,.36,.09,.73,.13,1.09-.85-.06-1.7-.12-2.55-.18Z"/>
  <path class="cls-12" d="M246.13,92.65c4.09-1.24,8.35-.99,12.54-1.38,1.88-.17,3.8-.93,5.72-.11-.04,.16-.08,.31-.12,.47-5.29,.38-10.57,.75-15.86,1.13-.76-.04-1.52-.07-2.28-.11Z"/>
  <path class="cls-17" d="M272.38,90.77c1.15-.02,2.29-.05,3.44-.07-1.13,.77-2.28,.72-3.44,.07Z"/>
  <path class="cls-13" d="M173.63,105.71c-1.34,.14-.98-.83-1.01-1.54,1.01,.08,1.88-.41,2.77-.74,1.59-.58,2.03,0,1.7,1.52,0,0,.05-.01,.05-.01-1.27-.21-2.43,.08-3.5,.77Z"/>
  <path class="cls-4" d="M177.08,104.94c.33-1.51-.11-2.1-1.7-1.52-.89,.33-1.76,.82-2.77,.74,0,0,.04,.03,.04,.03-.68-.82-1.62-.65-2.49-.6-.73,.04-1.03-.26-1.03-.95,0,0-.03,.04-.03,.04,1.41-.72,2.03-2.72,4.02-2.52,1.65,.02,3.29,.03,4.94,.05-.48,1.54,.36,3.36-.98,4.72Z"/>
  <path class="cls-17" d="M178.06,100.22c-1.65-.02-3.29-.03-4.94-.05,1.05-2.02,2.99-.48,4.39-1.09,.08,.1,.16,.2,.24,.3,.1,.28,.2,.56,.3,.85Z"/>
  <path class="cls-17" d="M177.52,99.08c.2-.25,.56-.47,.73-.19,.22,.37-.28,.35-.49,.49-.08-.1-.16-.2-.24-.3Z"/>
  <path class="cls-17" d="M136.5,66.29c-.01-.33-.02-.66-.04-.99,.21,0,.43,0,.64-.01,.09,2.82,.16,5.64,.3,8.46,.04,.74-.43,1.73,.73,2.11,.02,2.96,.03,5.92,.05,8.87-.4,.01-.8,.03-1.2,.04-.41-4.62-.32-9.25-.35-13.89,.1-1.54,.33-3.07-.13-4.59Z"/>
  <path class="cls-17" d="M138.13,75.85c-1.17-.37-.7-1.36-.73-2.11-.14-2.82-.21-5.64-.3-8.46,.07-.36,.15-.72,.22-1.07,.69,.14,.89,.58,.89,1.25-.04,3.46-.05,6.93-.07,10.39Z"/>
  <path class="cls-17" d="M137.32,64.21c-.07,.36-.15,.72-.22,1.07-.21,0-.43,0-.64,.01-.08-1.6-.16-3.21-.24-4.81,.92-.55,.96,.18,1,.74,.07,.99,.07,1.99,.1,2.98Z"/>
  <path class="cls-16" d="M158.55,98.26c.04,.11,.09,.21,.12,.32,.01,.05-.02,.11-.03,.17-.05-.11-.12-.21-.15-.32-.01-.04,.04-.11,.07-.17Z"/>
  <path class="cls-12" d="M132.62,92.73c.07,1.65,.24,3.31,.19,4.96-.09,3.06,1.12,5.75,2.35,8.4,1.4,3.03,4.94,3.77,7.71,1.77,.78-.56,1.47-1.24,2.34-1.99-1.2-.25-2.27-.76-3.22-.61-2.8,.44-3.23-1.43-3.69-3.39-.48-2.04-1.54-3.99-1.01-6.2,.36,0,.71,0,1.07,0,.32,2.12,.63,4.23,.95,6.35,.21,1.35,.79,1.93,2.34,2.24,1.42,.28,3.61-.48,4.28,1.81-2.9,4.6-8.06,5.03-11.34,.95-.25-.31-.53-.83-.81-.85-5.24-.2-5.59-4.47-6.76-8.06-.15-.46-.34-.95-.02-1.43,.21,.02,.42,.03,.62,.05,.64,2.53,1.08,5.14,3.08,7.09,.57,.56,.9,1.64,1.89,1.19,1.01-.46,.12-1.34,.02-1.94-.58-3.44-.96-6.89-.77-10.39,.12,0,.25,0,.37,0,.14,.02,.28,.03,.42,.03Z"/>
  <path class="cls-16" d="M137.16,90.32c-.22-.85-.37-1.7-.07-2.56,.33,.85,.25,1.7,.07,2.56Z"/>
  <path class="cls-14" d="M132.2,92.7c-.12,0-.25,0-.37,0-.04-.82-.15-1.65-.12-2.47,.04-1.28-.16-1.77-1.77-1.68-2.43,.14-3.9-1.89-5.54-3.41,2.53,.12,3.85,3.38,6.73,2.46,.64-.08,.66-.49,.53-.98-.03-2.25-.07-4.5-.1-6.75-.03-.23-.06-.45-.08-.68-.04-1.14-.08-2.29-.11-3.43,.28,0,.55-.01,.83-.02,.05,2.63,.1,5.26,.15,7.9-.17,1.57-.21,3.14,.09,4.7,.04,.95,.08,1.89,.13,2.84-.12,.51-.23,1.01-.35,1.52Z"/>
  <path class="cls-16" d="M130.47,110.83c1.17,2.31,1.14,4.95,2.22,7.27-2.22-1.96-2.07-4.68-2.22-7.27Z"/>
  <path class="cls-17" d="M127.6,96.74c-.21-.02-.42-.03-.62-.05-1.67-.77-1.11-2.33-1.24-3.62-.05-.45,.27-.74,.76-.73,.49,.02,.71,.33,.76,.77,.12,1.21,.23,2.42,.35,3.62Z"/>
  <path class="cls-17" d="M131.65,86.62c.13,.49,.11,.9-.53,.98,.18-.33,.35-.65,.53-.98Z"/>
  <path class="cls-17" d="M131.47,79.19c.03,.23,.06,.45,.08,.68-.03-.23-.06-.45-.08-.68Z"/>
  <path class="cls-12" d="M161.66,145.58c.09,1.45-1.05,1.92-2.01,2.53-.22-1.56,.5-2.36,2.01-2.53Z"/>
  <path class="cls-12" d="M163.66,142.59c-.32,1.24-.81,2.37-2.02,3.02,.08-1.4,.49-2.59,2.02-3.02Z"/>
  <path class="cls-12" d="M168.63,136.6c.35,1.65-1.28,1.73-2,2.52,.02-1.36,.42-2.41,2-2.52Z"/>
  <path class="cls-12" d="M166.65,139.1c-.2,.9-.69,1.59-1.52,2.02-.17-1.18,.18-1.97,1.52-2.02Z"/>
  <path class="cls-12" d="M165.15,141.09c-.05,.96-.29,1.73-1.51,1.52-.32-1.33,.46-1.55,1.51-1.52Z"/>
  <path class="cls-12" d="M169.64,135.6c-.08,.61,.03,1.39-1.03,1.01,.07-.61,.08-1.29,1.03-1.01Z"/>
  <path class="cls-12" d="M170.64,134.61c-.06,.62-.38,.99-1.03,1.02-.32-1,.03-1.33,1.03-1.02Z"/>
  <path class="cls-14" d="M169.13,102.65c0,.69,.3,.99,1.03,.95,.88-.05,1.81-.22,2.49,.6-2.03-.04-4.05,.04-6.04,.47,.51-1.09,.95-2.26,2.52-2.01Z"/>
  <path class="cls-14" d="M166.64,104.64c.03,.19,.37,.38,.03,.55-.15,.07-.37-.01-.56-.02-.05-.4,.12-.58,.53-.53Z"/>
  <path class="cls-14" d="M165.62,98.7c-.25-.61-.13-.84,.54-.54,.09,.44-.11,.61-.54,.54Z"/>
  <path class="cls-8" d="M152.97,102.54c1.47-1.37,3.37-1.48,5.21-1.75,0,.21,0,.42,0,.64-1.15,.48-2.6,.13-3.51,1.27,0,0,.03-.01,.03-.01-.34,0-.68-.01-1.03-.02-.23-.04-.47-.09-.7-.13Z"/>
  <path class="cls-15" d="M154.67,102.7c.91-1.15,2.36-.79,3.51-1.27,.41,.24,.69,.63,.05,.76-1.17,.25-2.32,.71-3.56,.51Z"/>
  <path class="cls-15" d="M153.67,102.67c.34,0,.68,.01,1.03,.02-.35,.5-.7,1.2-1.03-.02Z"/>
  <path class="cls-16" d="M214.62,91.49c-.04-.27-.08-.54-.12-.81,1.39-1.59,3.41-2.27,5.05-3.51,.87-.66,1.53-1.22,1.12-2.43-.16-.48-.62-1.22,.18-1.44,.82-.23,1.13,.44,1.18,1.2,.04,.66,.1,1.32,.14,1.97-.1,.2-.2,.41-.31,.61-2.7,1-4.77,3.04-7.24,4.41Z"/>
  <path class="cls-14" d="M227.96,83.2c-.63,1.63-1.78,2.66-3.5,3.02,.34-1.97,2.12-2.26,3.5-3.02Z"/>
  <path class="cls-14" d="M229.46,82.19c.1,1.25-.67,1.19-1.52,1.02-.09-1.23,.67-1.2,1.52-1.02Z"/>
  <path class="cls-14" d="M224.48,86.19c-.09,.68-.34,1.06-1.03,.51,.16-.55,.35-1.03,1.03-.51Z"/>
  <path class="cls-14" d="M229.96,81.7c.01,.19,.02,.37,.04,.56-.19-.01-.37-.02-.56-.03-.06-.41,.03-.67,.52-.53Z"/>
  <path class="cls-12" d="M182.59,92.71c1.08-1.19,2.26-2.19,4.02-2.02-1.1,1.14-2.31,2.09-4.02,2.02Z"/>
  <path class="cls-12" d="M186.57,90.72c-.22-1.41,.89-.87,1.51-1.03,.16,1.33-.78,1.03-1.51,1.03Z"/>
  <path class="cls-12" d="M180.57,93.18c.64-.35,1.16-1.2,2.04-.49-.22,.78-.97,.71-1.53,.93-.17-.15-.34-.3-.51-.44Z"/>
  <path class="cls-14" d="M180.57,93.18c.17,.15,.34,.3,.51,.44-.32,.14-.62,.64-1,.08-.15-.46,.19-.47,.48-.52Z"/>
  <path class="cls-15" d="M136.5,66.29c.47,1.52,.23,3.06,.13,4.59-.29-1.52-.41-3.05-.13-4.59Z"/>
  <path class="cls-17" d="M132.42,88.34c-.3-1.56-.26-3.13-.09-4.7,.32,1.56,.45,3.13,.09,4.7Z"/>
  <path class="cls-17" d="M132.2,92.7c.12-.51,.23-1.02,.35-1.52,.02,.52,.05,1.04,.07,1.56-.14,0-.28-.01-.42-.03Z"/>
</svg>