<?xml version="1.0" encoding="UTF-8"?>
<svg id="Layer_1" data-name="Layer 1" xmlns="http://www.w3.org/2000/svg" viewBox="0 0 414 200">
  <defs>
    <style>
      .cls-1 {
        fill: #00bff3;
      }

      .cls-2 {
        fill: #eae1cc;
      }

      .cls-3 {
        fill: #e9e6dc;
      }

      .cls-4 {
        fill: #eeb4d3;
      }

      .cls-5 {
        fill: #fff9b8;
      }

      .cls-6 {
        fill: #fff200;
      }

      .cls-7 {
        fill: #fbb040;
      }

      .cls-8 {
        fill: #6c6b6b;
      }

      .cls-9 {
        fill: #9ed2f1;
      }

      .cls-10 {
        fill: #cec9c7;
      }

      .cls-11 {
        fill: #3f3b35;
      }

      .cls-12 {
        fill: #48423c;
      }

      .cls-13 {
        fill: #322c2a;
      }

      .cls-14 {
        fill: #605a55;
      }

      .cls-15 {
        fill: #767474;
      }

      .cls-16 {
        fill: #4d4843;
      }
    </style>
  </defs>
  <path class="cls-11" d="M162.81,145.66c2.56-.23,5.03-1.15,7.65-.97,3.87,.27,7.71,.73,11.34,2.13,1.45,.56,2.2,.24,2.44-1.16,.39-2.3,2.85-3.22,3.44-5.35,.08-.24,.16-.48,.24-.72,.18-.52,.35-.24,.67-.08,.95,.47,1.95,.82,2.43-.63,1.17-.93,2.41-1.75,3.89-2.12,.5-.03,1.03,0,1.32-.54,.35-.72,.16-1.45,.03-2.18-.24-.92,.55-2.32-1.2-2.51-.22-.51-.44-1.03-.67-1.54,1.44,.08,2.62-.13,2.38-2.05-.07-.58,.21-.99,.83-1.11,.02,.35,.05,.7,.07,1.05-.31,.63-1.13,1.37,.33,1.65,.89,5.01,1.45,10.06,1.23,15.15-.09,2.08,.66,2.87,2.73,2.48,1.19-.22,1.91-1.08,2.69-1.88,.87,.55,.9-.11,.98-.69-.01-.94,.18-1.83,.74-2.6,.45,.17,.9,.34,1.35,.5,0,1.38,.01,2.77,.02,4.15,0,.77,.41,1.07,1.14,1.02,1.16,.1,2.2-.01,3.03-1.04,1.55-1.9,2.61-4.11,3.49-6.31,1.37-3.44,2.04-7.16,3.34-10.64,1.67-4.5,3.71-8.86,4.28-13.7,.88-2.03,.64-4.97,4.03-4.97-.34,3.1-1.13,6.21-2.43,8.92-2.53,5.29-3.37,11.15-6.04,16.36-.38,.74-.88,2,.3,2.55,2.26,1.07,3.17,3.29,4.68,5.16,2.26-2.19,2.77-5.2,4.09-7.77,1.03,.05,.95,.81,.95,1.51-.62,2.05-1.34,4.05-2.63,5.79-.14,.16-.28,.32-.42,.48-.76,.93-1.52,1.87-2.77,2.2-.64-1.02-1.2-2.09-1.94-3.04-2.64-3.39-3.33-3.3-4.86,.52-.13,.32-.2,.67-.37,.97-1.24,2.08-.08,2.84,1.76,3.06,1.96,.24,3.94,.32,5.91,.47,1.29-.96,2.67-2.17,2.69,.87,0,.06,.43,.12,.67,.18,.19,0,.33,.07,.44,.23,.23,.09,.46,.18,.69,.26,.63,.21,1.26,.42,1.89,.64,.35,.52,1.16,.72,1.06,1.55-.05,.13-.13,.17-.26,.11-.89,.01-2.03-.59-2.34,.92l-.05,.02c-.57,0-1.23-.15-1.38,.69h-.03c-.21,.12-.42,.22-.63,.33l-.04,.02c-.49,0-.86,.16-1.01,.66-1.87,.86-3.78,1.65-5.61,2.6-.68,.35-2.01,.31-1.78,1.5,.17,.89,1.24,1.14,2.05,1.37,3.51,.98,7.13,1.46,10.75,1.61,4.67,.19,9.46,.24,13.93-1,5.37-1.48,9.49-5.07,12.4-9.91,.35-.14,.51-.41,.5-.77-.14-.26-.28-.53-.41-.79-.55-.75,.08-1.04,.54-1.4,2.61,.19,3.3-1.78,4.09-3.64-.04-.87,.78-1.18,1.14-1.79,.34,.06,.69,.12,1.03,.18,.27,.25,.4,.11,.48-.17,.79-1.05,1.7-1.98,2.79-2.72,.39,.04,.91,.26,1.07-.24,.19-.62-.42-.52-.78-.63-.15-.51-.31-1.02-.46-1.53-.09-.35-.18-.7-.28-1.05-.82-.63,.94-3.05-1.68-2.42-.21-.6-.42-1.19-.63-1.79,1.92-3.54,2.37-7.09,.05-10.64-.09-.66,.16-1.43-.55-1.92v-.03c0-1.34,0-2.68,.02-4.02,.09-.41,.18-.82,.27-1.23,.06-.17,.13-.34,.19-.51l.23-.48c.68-.1,.85-.55,.79-1.15,.16-.31,.32-.62,.48-.93,.56-.31,1.13-.39,1.7-.04,0,0-.01-.03-.01-.03-.45,.71,2.1,1.9-.37,2.28-1.49-.17-1.22,1.35-1.89,1.98-.1,.26-.2,.51-.31,.77,.16,1.28,.31,2.56,.47,3.84,.05,.17,.1,.35,.15,.52,.65,1.46,1.39,1.63,2.56,.39,1.44-1.53,2.21-3.05,.84-4.99,.42-.2,.83-.41,1.25-.61,.13,.2,.26,.4,.39,.61,.02,.6-.09,1.26,.71,1.49,2.27,2.42,3.48,5.51,5.15,8.31,1.63,2.72,2.78,2.74,4.52,.1,.37-.57,.61-1.24,.83-1.88,1.15-3.32,.17-6.52-.64-9.7-1.41-5.53-4.55-10.29-6.88-15.41-.6-1.32-1.13-2.66-2.07-3.84-.75-.95-1.23-1.2-1.87-.08-1.32,2.3-3.24,4.26-3.88,6.93-.97,2.07-.88,4.15-.06,6.23,.13,.48,.26,.96,.39,1.45-.48,.05-.96,.1-1.44,.14h0c-.07-.17-.14-.33-.21-.49-.12-.5-.23-1-.35-1.49-.16-.91-.31-1.82-.47-2.73,.11-2.08,.41-4.11,1.25-6.04,.3-.68,.63-1.35,.35-2.22-1.64-5.18-1.62-5.19-6.88-3.94-.08,.02-.16,.07-.24,.1,.66-2.69,3.03-2.74,5.07-3.31,.32-.11,.65-.22,.97-.33,.67-.13,1.34-.33,2.02-.37,2.44-.15,3.67-1.22,3.02-3.8-.61-2.43,1.05-5.17-1.03-7.4,1.48-1.81,1.13-4.41,2.69-6.18,.23,.03,.46,.05,.69,.08-.06,.6-.12,1.21-.17,1.81-1.37,8.03-.96,15.82,3.19,23.09,.85,1.48,1.27,3.15,2.44,4.53,1.02,1.2,1.24,.62,1.8-.21,.8-1.19,.71-2.9,2.18-3.7,.17,.62,.33,1.25,.5,1.87-.42,.94-.71,1.98-1.29,2.81-1.32,1.9-1.57,3.73-.25,5.73,.42,.63,.55,1.44,.84,2.16,.92,2.29,1.49,2.38,3.01,.34,2.55-3.45,5.24-6.81,7.02-10.77,.65-.03,1.01-.35,1.03-1.02,.45-.89,.3-2.04,1.19-2.74,.27,.03,.54,.06,.82,.08l.24,.02,.24-.02c-.35,1.34,.79,2.12,1.16,3.2-.03,.63,.06,1.3-.64,1.66,0,0,.02-.02,.02-.02-.14-.21-.27-.43-.41-.64-1.29-1.16-1.27,.26-1.7,.85-2.31,3.15-3.77,6.85-6.72,9.62-2.05,1.92-3.46,4.14-2.58,7.54,1.12,4.35,.73,8.69-3.84,11.36-.15,.09-.26,.23-.38,.35-.99,.92-.25,1.9,.18,2.59,.72,1.2,1.26-.03,1.78-.43,4.16-3.21,7.75-7,11.17-10.97,.46,0,.83,.13,1.07,.55-.44,1.64-.42,3.2-.1,4.94,.82,4.43,1.63,8.95-.43,13.32-.57,.16-1.15,.32-1.72,.48,.54-1.56,1.08-3.13,1.62-4.69,.38-.1,.48-.25,.08-.48,.15-2.53-.37-5.01-.67-7.51-.08-.65-.18-1.56-.84-1.7-.57-.12-1.23,.37-1.65,.99-1.87,2.77-4.64,4.65-7.15,6.71-1.45,1.19-1.84,2.11-1.64,3.84,.42,3.69,.04,7.32-2.24,10.44-1.96,2.67-4.39,4.89-7.32,6.65,2.71,1.33,4.69,1.27,7.25,0,5.49-2.73,9.33-6.95,11.56-12.66,1.23-.65,1.74-.2,1.68,1.11,0,0,0,0,0,0-1.46,.14-1.45,1.32-1.66,2.34,.05,.54-.16,.96-.56,1.3-.13,.19-.26,.37-.4,.56-.06,.71-.41,1.24-.99,1.63-.06,.07-.1,.14-.11,.23,0,0-.07,.14-.07,.14-.67,.09-.95,.48-.89,1.14,0,0,.01-.02,.01-.02-.58-.04-1.02,.12-1.12,.77-.62,.79-1.25,1.59-1.87,2.38-.07,.16-.13,.32-.2,.48-.26,1.15-.61,2.26-1.37,3.2-.99-.1-1.28,.53-1.4,1.34-3.05-.21,.86-2.24-.92-2.84-2.9,1.66-6.16,2.47-9.45,.98-1.22-.55-1.76-.67-2.86,.23-3.2,2.59-6.34,5.32-10.38,6.63-4.28,1.39-8.51,1.27-12.8-.28,1.92,1.97,4.29,3.06,6.81,3.89,.18,.3,.36,.59,.54,.89,0,0-.13,.15-.13,.15-.69-.02-1.38-.03-2.07-.05-.35-.11-.71-.22-1.06-.33-.26-.9-.96-.73-1.62-.68-.46-.2-.99-.32-1.38-.62-2.91-2.22-5.97-3.35-9.8-2.7-2.78,.48-5.72,.31-8.56,.05-4.02-.37-8.17-.56-11.65-2.94-1.26-.86-2.45-1.41-3.38-.18-1,1.33,.53,2.17,1.36,2.83,2.21,1.77,4.43,3.56,7.02,4.79,.17,.86,.85,.76,1.46,.76l.03,.02c.15,1.23-1.18,1.35-1.6,2.16-.35,.12-.71,.23-1.06,.35-2.14,.17-4.3,.26-6.25,1.35-2.6,.49-5.19,.54-7.79-.02-.79-1.24-1.94-.55-2.96-.56-.41-.04-.82-.08-1.23-.12-.25-.48-.56-.65-1-.2-.36-.07-.72-.13-1.07-.2-.56-1.04-1.5-.6-2.33-.58-.27-.1-.54-.2-.81-.3-.33-.99-.87-1.03-1.57-.36-.71-.01-1.42-.03-2.13-.04-.94-1.02-1.86-2.07-3.48-1.48-2.36-2.41-5.89-2.77-8.43-4.83-2.7-2.18-5.61-2.69-8.86-1.66-.32,.1-.69,.04-1.04,.06-7.27,.37-14.54,.76-21.59-1.76-.63-.23-1.55-.31-1.78,.53-.18,.67,.6,.96,1.14,1.23,2.01,1,4.01,2.03,6.05,2.96,5.83,2.64,11.8,4.8,18.3,5.01,5.39,.17,10.75-.08,16.08-.94,1.56,.55,.73,1.05-.03,1.55-.71,.1-1.42,.19-2.13,.29-.92-.5-1.81-.64-2.58,.27-.38,.04-.76,.08-1.14,.12-1.55-.17-3.11-.62-4.58,.33-1.56,.25-3.12,.28-4.68,.02-1.16-.86-2.38-.69-3.61-.21-.53-.09-1.07-.19-1.6-.28-.37-.64-.89-.6-1.46-.33-.55-.06-1.11-.12-1.66-.18-.84-.83-1.86-1.1-3.01-.95-.24-.09-.48-.19-.71-.28-.5-.64-1.23-.41-1.88-.49,0,0-.15-.05-.15-.05-.12-.24-.27-.35-.51-.15-1.44,.34-2.89,.69-4.34,1.03-1.57,0-3.13,.04-4.51,.94-.56,.09-1.12,.18-1.68,.28-.59-.58-1.11-.51-1.55,.18-.4,.02-.81,.04-1.21,.06-3.37-.19-6.74-.25-10.1,.04-.21-.02-.42-.04-.64-.06-.62-.85-1.33-.81-2.09-.22-1.07,.1-2.13,.07-3.14-.35-.23-.62-1.2-.76-1.06-1.62,.91-.03,1.82-.04,2.68,.36,.46,.35,.89,1.02,1.49,.17,7.44,.94,14.8,.3,22.11-1.23,.56,.07,1.33,.44,1.57-.24,.26-.73-.56-.56-.99-.67-2.87-1.42-5.69-2.96-8.63-4.21-1.37-.58-2.55-1.56-4.32-1.49-4.16,.15-8.33,.02-12.49-.17-7.2-.34-14.35-1.07-21.05-4.06-2.38-1.06-4.28-.05-6.26,1.29,1.25,.83,2.34,1.7,3.56,2.34,6.76,3.57,13.99,5.88,21.4,7.64-1.06,1.48-3.28,.41-4.32,1.94-.53,.3-1.09,.29-1.66,.11-2.44-.08-4.85,.08-7.19,.84-2.26,.26-4.52,.25-6.78-.02-1.06-1.33-3.49,.54-4.12-1.78,5.58,.3,11.17,.32,16.75-.04,.56,.17,1.19,.35,1.34-.47,.12-.64-.39-.8-.91-.84-5.76-1.39-11.12-3.77-16.39-6.45-3.03-1.54-6.16-2.3-9.74-1.34-6.61,1.77-13.22,2.04-19.3-2.03-.56-.37-1.27-.53-1.93-.73-.64-.2-1.27-.03-1.6,.55-.44,.78,.32,1.12,.8,1.37,2.08,1.06,4.17,2.1,6.3,3.04,5.78,2.57,11.87,4.23,17.95,5.87-.38,.4-.75,.79-1.13,1.19-.54,0-1.09,0-1.63,0-1.27-.85-2.22-.25-3.11,.66-.54,.11-1.07,.21-1.61,.32-1.01-.67-1.84-.43-2.54,.51-1.35,.61-2.79,.22-4.18,.36-.44-.26-.85-.22-1.24,.09-4.13,.39-8.24,.05-12.35-.28-.54-.6-1.19-.52-1.86-.3-1.4,.16-1.41-.69-1.22-1.68,2.58,.28,5.16,.56,7.74,.84,2.11,.99,4.22,.95,6.34,.02,3.34-.67,6.9-.11,10.5-1.81-4.69-1.21-8.92-2.62-12.91-4.53-3.72-1.78-7.58-2.74-11.64-3.1-.2-.9-.33-1.8,.09-2.69,8.13-2.4,15.34-6.99,23.27-9.86,.42-.15,.76-.41,.71-.93-.04-.47-.46-.48-.76-.56-1.5-.39-3.02-.72-4.52-1.12-4.91-1.29-9.8-.35-14.69,.09-.45-.63-.78-.47-1.06,.15-.62,.6-1.39,.7-2.2,.7-.29-.1-.59-.19-.88-.29l-.02-1.57c.41-.03,.81-.08,1.03-.5,1.04-.02,2.11,.32,3.12-.19,3.37,.41,6.65-.65,9.99-.64,.32-.04,.64-.09,.96-.13,.31,.36,.68,.35,1.09,.21,.86,.13,1.72,.26,2.59,.38,.16,.28,.34,.29,.53,.03,1.03-.33,2.05-.66,3.08-1,2.81-.13,5.63-.26,8.44-.39,.34,.05,.67,.1,1.01,.15,.68,.35,1.4,.42,2.14,.29,.66,.25,1.33,.5,1.99,.76,.11,.3,.3,.37,.58,.2,.35,.08,.7,.15,1.05,.23,2.42,.89,4.9,.2,7.35,.3,2.07,.34,4.14,.61,6.16-.26,3.84-.41,7.62-1.43,11.55-1.05,1,.1,2.08,.29,3.06-.22,.73-.18,1.44-.06,2.13,.21,.36,.53,.86,.56,1.41,.41,.77,.14,1.53,.29,2.3,.43,.18,.07,.35,.14,.53,.22,0,0-.01,0-.01,0-.04,.49-.09,.98-.13,1.47-5.29-1.38-10.64-1.94-16.09-1.06-.2-.25-.37-.19-.51,.06-.59,.29-1.65,0-1.74,.84-.09,.9,.94,.82,1.54,1.03,.89,.32,1.88,.43,2.71,.85,5.19,2.59,9.77-.29,14.54-1.54,.52-.21,.64-.66,.68-1.15,.71-.03,1.21,.33,1.62,.87,2.8,1.52,5.77,.56,8.67,.59,.59-.24,1.15-.08,1.71,.13,.72,.84,1.61,.53,2.47,.38,1.18,.02,2.36,.05,3.54,.07,.56,.13,1.07,.11,1.33-.53,.51-.53,1.13-.65,1.82-.51,.65,.1,1.31,.25,1.8-.38Zm60,4.2h.01c-.1-.39-.26-.44-.48-.07-.69-.07-1.39-.14-2.08-.22-.16-.24-.34-.26-.53-.03-.36-.02-.73-.05-1.09-.07-1.01-.4-2.03-.37-3.04,0-.54,.02-1.08,.03-1.62,.05-.2-.22-.38-.19-.53,.06-2.42,.64-4.84,1.27-7.26,1.91-.01-.41-.03-.82-.04-1.23,2.47-.59,1.32-1.82,.52-2.99-.05-.39,0-.9-.57-.86-.17,.01-.32,.47-.47,.72-2.43,1.69-4.87,2.3-7.72,.75-1.2-.65-2.99,.24-3.28,1.27-.32,1.13,1.41,.75,2.23,1.07,.48,.19,1,.27,1.51,.4l.62,.15c1.17,.21,2.34,.41,3.51,.62l.5,1.45c-1.36,.95-2.98,1.19-4.49,1.74-.23,.09-.46,.18-.69,.27-.41,.12-.81,.24-1.22,.35-.59-.17-1.12-.19-1.43,.48-3.42,1.23-6.85,2.46-10.39,3.73,4.03,2.66,9.73,3.34,15.95,2.18,8.04-1.49,15.51-4.48,22.7-8.3,1.11-.59,3.15-.63,3.13-1.84-.03-1.51-2.2-.69-3.2-1.46-.18-.05-.37-.1-.55-.15Zm47.57-6.88v.02c-.01,.54-.12,1.11,.37,1.53,.91,1.65,.97,3.5,1.22,5.3,.18,1.28,1.08,1.59,1.75,.81,2.37-2.77,5.36-5.06,5.87-9.18,.94-7.48-3.69-12.69-7.17-18.29-1.9-3.05-2.31-2.8-4.13,.5-1.15,.06-1.09,.86-1.01,1.67l-.23,2.55c-.48,1.06-.66,2.1,.2,3.08h0c.45,1.53-1.11,3.54,1.08,4.68,0,0-.01-.01-.01-.01l.15,.49c.3,1.21,.6,2.42,.91,3.63-.24,.77,.42,1.96-1.01,2.17l-.05-.06c-.45-1.21-.98-1.3-1.6-.11-1.78,1.98-3.71,3.85-5.32,5.96-3.45,4.5-6.39,9.45-11.41,12.5-.37,.22-.8,.44-.71,.96,.11,.64,.65,.78,1.17,.79,1.99,.05,3.96,.2,5.94-.34,5.14-1.38,8.72-5.02,12.5-8.39,1.49-1.33,1.72-2.83,1.16-4.69-.55-1.81-.86-3.69-1.28-5.54,.43-.28,.87-.56,1.3-.83l.02,.13c.1,.22,.21,.44,.31,.66Zm-80.99,13.07c.17-.04,.34-.08,.5-.12,2.82-1.04,5.64-2.08,8.98-3.31-3.52-1.62-6.91-1.32-10.04-2.16-.22-.01-.43-.03-.65-.04-.2,0-.4-.01-.6-.02-.3,0-.6-.01-.9-.02-11.99-.78-22.33,4.62-33.79,8.76,3.23,1.44,5.96,1.28,8.57,1.52,9.69,.9,18.81-1.83,27.92-4.61Zm-78.31,.07c11.57,6.87,45.4,4.16,54.72-4.33-8.44-3.51-17.03-4.73-26-3.46-6.22,.88-12.14,2.84-18.11,4.62-3.46,1.03-6.93,2.07-10.61,3.18Zm13.51-6.03c-.46-.53-.58-.82-.78-.89-6.13-2.04-12.36-3.18-18.89-2.7-9.87,.73-18.23,5.63-27.01,9.37-1.92,.82-1.02,1.54,.16,2.19,4.48,2.47,9.26,2.75,14.14,1.76,5.07-1.03,9.89-2.85,14.77-4.58,5.63-2,11.35-3.94,17.62-5.15Zm85.17,20.96c2.7,0,5.39-.13,8-.91,.55-.16,1.34-.04,1.46-.81,.12-.74-.61-.94-1.08-1.3-2.47-1.87-5.31-3.31-7.11-5.96-.63-.92-1.39-.98-2.25-.59-2.16,1-4.47,1.36-6.78,1.78-6.63,1.21-13.1,1.26-18.99-2.72-.56-.38-1.15-.32-1.75-.24-.49,.07-1.18-.04-1.19,.65,0,.29,.48,.7,.84,.88,2.28,1.22,4.55,2.48,6.9,3.56,6.97,3.22,14.19,5.55,21.96,5.66Zm-12.29-28.68c0-1.5,0-2.36,0-3.23,0-1.01-.47-1.56-1.45-1.08-3.5,1.75-7.33,3.04-9.21,7.01-1.67,3.54-1.75,3.44,2.29,4,3.22,.44,5.17-2.06,7.64-3.26,1.53-.74,.57-2.69,.72-3.45Zm-36.96,5.71c1.91,.69,3.56,1.15,5.09,1.88,2.18,1.04,4.31,1.41,6.6,.45,2.62-1.1,5.55-.9,8.48-1.71-3.89-2.7-15.46-3.03-20.17-.62Zm108.52-58.33c-.81,1-3.57-.46-3.33,2.24,.09,1.06-.09,3.17,1.57,2.89,1.73-.29,2.86-2.05,3.33-3.83,.22-.82-.27-1.52-1.57-1.3Zm-178.79,55.18c3.48,3.27,6.55,1.23,10.23,.58-3.59-1.47-6.61-1.35-10.23-.58Zm191.98,9.28c-.06,.15-.13,.29-.19,.44,.15,.06,.32,.21,.43,.17,.1-.04,.22-.3,.18-.4-.04-.11-.27-.14-.42-.2Z"/>
  <path class="cls-12" d="M69.42,70.87c-.57-2.19,.82-1.93,2.05-1.54,6.52,2.06,13.08,4,19.51,6.31,11.15,4,22.24,8.21,33.04,13.08,10.39,4.68,20.85,9.28,30.22,15.92,1.84,1.3,3.77,.73,4.41-1.48,3.05-10.6,14.37-13.78,22.23-9.91,.94,.46,1.9,.88,2.64,1.59,1.52,1.45,2.89,1.94,5.27,1.48,3.68-.72,4.73-2.62,5.94-5.91,3.48-9.41,11.53-13.69,22.4-10.87,3.1,.8,5.7,2.51,8.2,4.32,3.16,2.29,7.98,.87,9.44-2.83,1.19-3.02,2.29-6.04,5.04-8.27,6.85-5.54,14.89-5.76,22.09-.28,.57,1,1.4,2.04-.43,2.66-.38-1.27-1.4-1.98-2.44-2.57-7.66-4.42-16.74-2.89-21.19,5.74-2.69,5.21-3.61,11.13-5.22,16.77-1.15,4.01-1.57,8.28-4.08,11.83-.68-.28-.26-1.32-1.05-1.53-.36-.17-.73-.34-1.09-.51,.17-3.02,0-3.15-2.91-2.34-2.42,.67-4.83,1.44-7.28,1.95-2.07,.43-3.04,1.41-2.59,3.55l-.72,.98c-.79,.03-1.03-.39-1.04-1.13-.01-.79,.8-2.33-.96-1.9-1.32,.32-3.65-.21-3.66,2.01-.02,4.37,.32,8.75,.53,13.51,.64-.78,.97-1.18,1.29-1.57,.57,.19,1.14,.38,1.72,.57-.13,.19-.26,.38-.39,.57-.78,.07-1.47,.18-.5,1.07,0,.76-.41,1.24-1.08,1.53-.52-.19-1.05-.39-1.55-.57v8.8c.58-.88,.31-1.78,1.13-1.99,.35,2.25,.35,4.51,.04,6.76-2.11-1.12-.77,1.5-1.74,1.61-.04-2.17-.07-4.34-.11-6.52-.19-11.56-1.6-23.08-1.05-34.67,.08-1.77,.44-3.45,.92-5.11,.42-1.47,1.29-2.96,3.04-2.68,4.72,.77,8.74-1.66,13.09-2.56,1.61-.33,1.97-.87,.49-2.11-3.11-2.62-6.73-3.96-10.66-4.22-5.33-.36-12.49,2.02-14.83,8.33-.76,2.04-1.12,4.18-1.83,6.2-1.78,5.03-1.5,10.12-.45,15.12,.48,2.28,.76,4.53,1.03,6.82-1.82-.21-1.07-1.65-1.2-2.62-.12-.91-.02-1.91-1.4-1.07-.04-.42-.08-.85-.13-1.27-.11-.94-.1-1.95-1.56-1.72-1.52,.24-1.14,1.2-.84,2.1,.23,.7,.21,1.33-.24,1.93-1.1,.04-1.93-.28-2.08-1.54,.1-1.45-.72-1.77-1.95-1.57-1.86,.3-3.71,.63-5.57,.91q-3.15,.49-2.45,3.76c-1.13,1.2-1.5,.31-1.93-.65-.3-.68,.21-1.88-1.15-1.93-3.06-.05-6.05,.03-8.72,1.97-3.82,2.77-7.93,4.25-12.56,1.9-.4-.2-.81-.49-1.16-.07-.35,.41-.03,.83,.24,1.15,.84,.99,1.78,1.91,2.57,2.93,1.41,1.83,1,2.86-1.48,3.49-4.58,1.17-9.23,1.56-13.94,.93-2.5-.33-4.94-.77-7.13-2.2-2.74-1.79-3.09-4.86-.61-7.01,1.81-1.57,3.21-3.61,5.63-4.47,1.26-.45,1.2-1.35-.03-1.98-6.52-3.36-13.05-6.7-19.8-9.6-8.97-3.85-17.96-7.63-27.15-10.93-2.59-.93-5.15-1.94-7.73-2.92-.23-.11-.45-.21-.68-.32-1.13,.05-1.99-.69-2.98-1.06-.31-.57-.75-.56-1.26-.28,0,0-.11-.07-.11-.07,.54-.76,1.37-.76,2.17-.85,1.03,.12,2.02,.33,2.84,1.02,.29,.67,.81,.65,1.39,.46,.23,.03,.45,.07,.68,.1,.28,.17,.56,.35,.85,.52,4.98,1.11,9.62,3.24,14.33,5.1,13.67,5.41,27.27,10.99,40.04,18.39,.66,.38,1.28,.43,1.98,.17,3.19-1.17,6.4-2.33,9.81-3.56-4.11-2.78-8.14-5.19-12.34-7.36-8.68-4.49-17.57-8.55-26.62-12.21-9.11-3.68-18.31-7.16-27.57-10.45-5.61-1.99-11.22-4.07-17.12-5.14Zm138.42,24.13c-1.1,.58-.61,1.6-.67,2.47-.04,1.56-.1,3.12-.1,4.68-.01,2.9,.18,3.12,2.89,2.28,5.19-1.61,10.37-3.25,15.71-4.25,3.57-.67,5.38-2.48,5.49-6.13,.04-1.29,.43-2.56,.67-3.84,1.29-1.23-1.06-3,1.52-4.42-1.42,.16-1.95,.15-2.42,.29-6.53,1.98-13.05,3.99-19.7,5.56-1.13,.27-2.71,.08-3.4,1.54,0,.61,0,1.23,.01,1.84v-.02Zm-14.76,3c.25-1.38-.59-1.16-1.4-.93-6.11,1.7-12.22,3.39-18.31,5.16-.61,.18-1.98,.22-1.16,1.61,.17,.31,.34,.62,.5,.93-1.87,.29-2.3,1.7-2.74,3.27-1.26,4.43-1.26,4.38,3.23,3.49,6.09-1.21,12.17-2.59,18.43-2.56,1.57,0,1.55-1,1.54-2.08-.02-2.43-.04-4.86-.06-7.28-.01-.53-.02-1.07-.04-1.6Zm-41.22,12.5l.02-.91c1.6-.55,3.41-.66,5.18-2.61-7.63,1.82-14.34,3.99-20.21,8.15-1.72,1.22-3.65,2.89-3.03,5.37,.57,2.26,2.96,2.47,4.84,2.9,3.84,.88,7.72,1.11,11.63,.25,1.5-.33,3.8,.15,4.25-1.27,.45-1.43-1.62-2.3-2.86-3.23-1.91-1.43-1.67-3.03,.65-3.74,1.81-.55,2.71-1.74,3.37-3.32,.32-.77,1.02-1.66,.34-2.37-.65-.67-1.41,.23-2.13,.42-.67,.17-1.36,.24-2.04,.36Zm24.03-10.73c1.89-.47,3.9-.96,5.91-1.48,.57-.15,1.33-.21,1.4-.94,.07-.66-.53-1.03-1.05-1.37-8.09-5.24-18.01-2.28-21.6,7.16-1.45,3.81-1.1,8.26-4.22,11.48-.68,.71-.25,1.39,.76,1.67,3.17,.88,7.02-.64,8.99-3.21,1.93-2.52,2.15-5.57,3.06-8.4,1.38-4.35,2.06-4.95,6.75-4.91Zm-18.66,7.57l.1-.13-.16-.03,.06,.15Z"/>
  <path class="cls-7" d="M86.06,85.41c-.23-.03-.45-.07-.68-.1-.34-.51-.82-.63-1.39-.46-.82-.69-1.81-.9-2.84-1.02-.76-.88-1.88-.74-2.85-1.03-.37-.13-.73-.26-1.1-.39-.52-.19-1.04-.37-1.56-.56-2.69-.76-5.29-1.85-8.1-2.18-.24-.12-.47-.23-.71-.35,.55-2.91,1.12-5.81,2.59-8.43,5.9,1.07,11.51,3.14,17.12,5.14,9.26,3.29,18.46,6.77,27.57,10.45,9.05,3.65,17.94,7.72,26.62,12.21,4.2,2.17,8.23,4.58,12.34,7.36-3.42,1.24-6.62,2.39-9.81,3.56-.7,.26-1.31,.21-1.98-.17-12.77-7.39-26.37-12.97-40.04-18.39-4.71-1.86-9.34-3.99-14.33-5.1-.28-.17-.56-.35-.85-.52Z"/>
  <path class="cls-5" d="M353.73,52.27c2.19,3.11,5.02,5.8,6.03,9.66,.09,.33,.6,.55,.92,.82-2.58,.69-5.16,1.37-7.73,2.08-9.23,2.54-18.48,5.01-27.67,7.69-4.04,1.18-8.23,1.85-12.1,3.6-.55-.04-1.08-.02-1.53,.35-.54-.1-1.07-.13-1.45,.38-.4,.11-.8,.21-1.2,.32-1.32,.35-2.64,.71-3.95,1.06-2.32,.62-4.64,1.25-6.96,1.87-.43-.18-.77-.04-1.05,.31-2.28,.03-4.36,.96-6.49,1.56-5.89,1.66-5.86,1.78-6.55-4.3,.21-.88,.35-1.76,0-2.64,.24-.58,.33-1.26,1-1.57,4.27-.97,8.54-1.95,12.63-3.57,1.35-.26,2.73-.43,4.05-.79,12.9-3.57,25.81-7.12,38.68-10.82,2.61-.75,5.42-1.02,7.77-2.59,.72-.04,1.65,.49,2.04-.5,.33-.85-.79-1.01-1.03-1.63,1.54-.42,3.07-.84,4.61-1.26Z"/>
  <path class="cls-13" d="M265.21,72.46c2.27-4.63,4.42-9.31,5.88-14.29,.46-1.55,.1-2.26-1.54-2.49-1.41-.2-3.56,.03-3.89-1.4-.28-1.22,1.72-2.09,2.73-3.12,2.48-2.52,4.86-5.14,7.23-7.76,.7-.77,1.36-1.83,2.45-1.58,1.03,.24,.59,1.49,.77,2.28,.92,4.16,1.74,8.34,2.67,12.49,.3,1.36,.17,1.96-1.45,1.66-5.22-.98-5.22-.95-6.63,4.07-.16,.56-.33,1.11-.5,1.66-.9,.24-1.14,1.04-1.35,1.77-1.59,5.61-4.87,10.43-7.31,15.65-.29,.62-.7,1.18-1.09,1.74-3.52,5.07-7.24,9.98-11.61,14.36-1.85,1.92-3.99,3.45-6.24,4.86-1.33-1.73-.31-2.99,.87-4.17,1.55-1.55,3.6-2.62,4.49-4.79,.42-.28,.85-.55,.87-1.13,.13-.07,.16-.17,.09-.3,1.36-.27,2.24-1.17,2.98-2.27,.97-1.44,1.86-2.94,2.94-4.3,3.16-3.97,5.7-8.28,7.63-12.97Z"/>
  <path class="cls-1" d="M252.11,166.62c-2.52-.83-4.89-1.91-6.81-3.89,4.29,1.55,8.52,1.67,12.8,.28,4.04-1.31,7.18-4.04,10.38-6.63,1.1-.89,1.64-.77,2.86-.23,3.3,1.48,6.55,.68,9.45-.98,1.77,.6-2.13,2.63,.92,2.83,0,0,.16,.17,.16,.17,0,0,.01-.02,.01-.02-1.32-.43-.97,.4-.81,1.08,0,0-.02,0-.02,0,.23-.75,.12-1.25-.83-1.1-.55,.14-.72,.59-.86,1.06-.46,.73-.19,1.04,.6,1.03l.11,.02c.06,.25-.04,.34-.29,.3-1.18-1.15-1.59-.01-2.14,.72-2.17,.74-3.37,3.06-5.72,3.52-.52-.04-.92,.18-1.22,.6-1.17,.23-2.34,.45-3.51,.68-.24,.12-.47,.24-.71,.36-.84-.06-1.68-.13-2.46,.31-3.04,.26-6.08,.51-9.11,.77-.14-.03-.28-.06-.42-.1-.64-.77-1.53-.78-2.41-.81Z"/>
  <path class="cls-9" d="M70.93,146.1c4.89-.45,9.78-1.38,14.69-.09,1.5,.39,3.02,.73,4.52,1.12,.31,.08,.72,.1,.76,.56,.05,.53-.3,.78-.71,.93-7.93,2.87-15.14,7.47-23.27,9.86-.06-3.74-.12-7.49-.18-11.23,.31-.1,.62-.21,.93-.31,.81,0,1.58-.1,2.2-.7,.35-.05,.7-.1,1.06-.15Z"/>
  <path class="cls-9" d="M74.54,170.58c-2.58-.28-5.16-.56-7.74-.84,0-2.86,.02-5.72,.03-8.57,4.06,.36,7.92,1.31,11.64,3.1,4,1.92,8.22,3.33,12.91,4.53-3.61,1.7-7.16,1.14-10.5,1.81-2.11-.34-4.23-.36-6.34-.02Z"/>
  <path class="cls-13" d="M298.07,80.1c2.32-.62,4.64-1.25,6.96-1.87,.97-.02,1.94-.04,2.91-.06h.01c-.02,.25-.03,.48-.05,.71-1.64,.99-3.58,.99-5.33,1.62-1.58-.39-2.92,.05-4.06,1.16,0,0-.15,.14-.15,.14-.65,.74-1.09,1.55-.89,2.58,.48,2.1-1.12,3.81-1.11,5.82-.79-.08-.93,.42-1.07,1.07-.29,1.39-.67,2.76-1.01,4.13-.27-.03-.54-.06-.81-.08,.8-3.64,1.6-7.27,2.4-10.91,1.3-.04,1.18-.98,1.04-1.8-.11-.7-.54-.75-1.01-.22-3.19,.3-6.07,1.77-9.17,2.43-1.26,.27-1.77,1.02-1.93,2.36-.27,2.22,.08,4.54-1,6.64-1.62-.43-.56-1.85-1-2.72,0-3.07,.01-6.13,.02-9.2,.02-3.16,.03-6.32,.05-9.49,1.01-3.76,1.19-3.61,5.12-4,1.83-.18,4.43,.38,5.39-2.29,.47-.12,.94-.23,1.41-.35,1.08,.95,2.25,.41,3.4,.2,.54,.16,1.03,.13,1.38-.39,.23-.05,.46-.1,.69-.15,.56,.21,1.08,.25,1.42-.38,.35-.12,.7-.25,1.05-.37,.25,.49,.64,.82,1.16,.98-5.77,1.66-11.53,3.34-17.32,4.97-.94,.26-1.95,.26-1.91,1.61,.09,.4,.19,.8,.28,1.2-.66,.31-.75,.99-1,1.57-.82,.88-.83,1.76,0,2.64,.69,6.08,.66,5.96,6.55,4.3,2.13-.6,4.21-1.53,6.49-1.56,.56,.61,.83,.24,1.05-.31Z"/>
  <path class="cls-16" d="M307.91,78.89c.02-.23,.03-.47,.05-.7,1.78-.59,4.21,.47,5.22-2.07,3.87-1.75,8.06-2.43,12.1-3.6,9.19-2.68,18.44-5.15,27.67-7.69,2.57-.71,5.15-1.39,7.73-2.08,1.78,1.29,.59,1.66-.63,2-5,1.41-10,2.85-15.01,4.23-9.27,2.56-18.55,5.12-27.84,7.61-3.08,.83-6.09,1.96-9.3,2.3Z"/>
  <path class="cls-16" d="M353.73,52.27c-1.54,.42-3.07,.84-4.61,1.26-2.09,.52-4.18,1-6.26,1.56-8.66,2.35-17.3,4.73-25.95,7.1-.03-.44-.07-.88-.1-1.32,11.86-3.84,23.99-6.72,35.96-10.19,.84-.24,1.81-.53,2.16,.59,.29,.94-.8,.64-1.2,.99Z"/>
  <path class="cls-16" d="M221.27,170.77c.41-.81,1.75-.93,1.6-2.16,7.48,2.8,15.25,2.7,22.99,1.9,2.63-.27,5.57-.03,7.88-1.93,1.2,.57,2.4,1.09,3.78,.65-2.03,1.94-4.77,2.03-7.26,2.47-8.88,1.57-17.77,1.82-26.5-.95-.94-.3-1.66,.03-2.49,0Z"/>
  <path class="cls-12" d="M290.79,35.17c0,1.82,.06,3.64-.03,5.46-.04,.92,.58,2.45-1.02,2.47-1.83,.03-1.07-1.65-1.12-2.6-.12-1.99-.11-3.99,0-5.98,.08-1.58-.25-2.52-2.1-2.31-.66,.08-1.54,.03-1.59-.9-.04-.82,.83-.7,1.36-.89,1.15-.41,2.28-.84,2.52-2.3,.1-.63,.42-1.21,1.19-1.1,1.01,.14,.78,.98,.78,1.64,.01,2.17,0,4.33,0,6.5Z"/>
  <path class="cls-16" d="M293.87,121.07c-.23-.42-.61-.56-1.07-.55,1.24-3.86,2.34-7.77,3.44-11.67,.62-2.21,.89-4.08-.18-6.12-.39-.74-.51-1.63-.76-2.45,.7-.37,.61-1.04,.64-1.66,2.25,.95,2.39,3.24,2.57,5.04,.61,6.32-1.32,12.08-4.64,17.41Z"/>
  <path class="cls-13" d="M178.46,120.93c-1.91,.26-3.58,.22-3.11-2.49,5.22-1.03,10.45-2.07,15.67-3.1,.88,.15,.99,.95,1.32,1.57-.1,.34-.19,.67-.29,1.01-.89,.29-1.79,.58-2.68,.86-3.67,.56-7.37,.96-10.91,2.16Z"/>
  <path class="cls-16" d="M191.02,138.87c-.48,1.45-1.48,1.1-2.43,.63-.32-.16-.5-.44-.67,.08-.08,.24-.16,.48-.24,.72-3.55-5.4-6.31-11.21-8.81-17.15,.98-2.8,1.75,.25,2.63,.1,1.31,5.38,4.45,9.9,6.88,14.76,.7,1.41,1.7,.78,2.64,.87Z"/>
  <path class="cls-12" d="M271.32,71.35c.01-2.34,2.54-3.7,2.34-6.12,4.17-3.59,8.63-6.16,14.42-4.21-.16,.4-.32,.81-.48,1.21-2.12-.02-4.2-.41-6.36,.34-4.37,1.51-6.98,4.5-8.3,8.81-.31,.02-.62,.03-.94,.05-.23-.03-.46-.05-.69-.08Z"/>
  <path class="cls-11" d="M257.51,169.24c-1.37,.44-2.58-.08-3.78-.65-.37-.08-.73-.17-1.1-.25-.04-.23-.08-.45-.11-.68,0,0,.13-.15,.13-.15,.62-.03,1.25-.06,1.87-.08,.14,.03,.28,.06,.42,.1,1.13,.02,2.27,.16,3.38,.02,1.91-.24,4.01,.8,5.73-.79,.78-.44,1.62-.37,2.46-.31,.24-.12,.47-.24,.71-.36,1.17-.23,2.34-.45,3.51-.68,.53,.05,.99-.05,1.22-.6,2.34-.46,3.54-2.78,5.72-3.52,.6,.03,1.2,.05,1.8,.08-.76,1.23-1.62,2.33-3.16,2.62-.24,.18-.48,.36-.73,.54-.2,.15-.4,.29-.6,.44-.14,.1-.27,.2-.41,.3-2.35,1.46-4.87,2.39-7.68,2.36-.22,.09-.45,.18-.67,.27-.4,.42-.91,.32-1.4,.27-1.63-.17-3.25-.27-4.77,.54-.81,.33-1.61,.72-2.53,.54Z"/>
  <path class="cls-12" d="M316.8,60.88c.03,.44,.07,.88,.1,1.32-4.33,1.15-8.56,2.67-12.98,3.48-.53-.16-.91-.49-1.16-.98,4.59-1.61,9.31-2.74,14.04-3.82Z"/>
  <path class="cls-12" d="M67.54,79.65c2.81,.33,5.4,1.42,8.1,2.18,.38,.57,.66,1.42,1.56,.56,.37,.13,.73,.26,1.1,.39-.04,.51-.09,1.01-.13,1.52-.5-.16-1-.31-1.5-.47-.23-.37-.59-.45-.99-.44-2.75-.73-5.5-1.45-8.24-2.2-.76-.21-.85-.78-.61-1.45,.24-.03,.47-.07,.71-.1Z"/>
  <path class="cls-16" d="M161.88,123.64c-1.11,.03-1.26-1.01-1.32-1.94-.08-1.41,1.11-1.37,2-1.39,1.26-.03,1.15,1.06,1.2,1.88,.08,1.14-.62,1.5-1.88,1.45Z"/>
  <path class="cls-16" d="M171.7,120.9c-.52,1.12-1.48,1.47-2.33,1.5-1.26,.04-.96-1.24-1.15-1.98-.29-1.15,.68-1.31,1.43-1.27,1.09,.04,1.44,1.04,2.05,1.76Z"/>
  <path class="cls-16" d="M132.49,143.27c-.99,.52-2.06,.32-3.06,.22-3.93-.38-7.71,.64-11.55,1.05,4.77-1.58,9.62-2.21,14.61-1.28Z"/>
  <path class="cls-16" d="M136.35,171.39c3.37-.28,6.73-.22,10.1-.04-3.36,.75-6.73,.74-10.1,.04Z"/>
  <path class="cls-16" d="M150.13,146.5c-2.9-.03-5.87,.93-8.67-.59,2.87,.56,5.83-.31,8.67,.59Z"/>
  <path class="cls-16" d="M104.4,169.97c.63,2.32,3.07,.45,4.12,1.78-2.12,.25-4.18-.18-6.22-.67,.16-.43,.31-.86,.47-1.29,.57-.14,1.13-.25,1.63,.18Z"/>
  <path class="cls-16" d="M189.43,170.75c.76-.5,1.6-1,.03-1.55,.04-.2,.08-.4,.12-.6,1.62-.59,2.55,.46,3.48,1.48-1.18,.43-2.34,.93-3.64,.67Z"/>
  <path class="cls-16" d="M129.41,169.15c-.13,.86,.83,1,1.06,1.62-2.11-.44-4.22-.54-6.32,.04,1.04-1.53,3.26-.45,4.32-1.94,.31,.09,.62,.18,.94,.27Z"/>
  <path class="cls-16" d="M115.31,171.77c2.34-.76,4.75-.92,7.19-.84-2.33,.89-4.74,1.06-7.19,.84Z"/>
  <path class="cls-11" d="M102.77,169.79c-.16,.43-.31,.86-.47,1.29-.53-.08-1.06-.17-1.59-.25-.41-1.3-2.64,.09-2.64-1.8,1.61-.02,3.2,.11,4.7,.76Z"/>
  <path class="cls-16" d="M294.3,95.42c.34-1.38,.72-2.75,1.01-4.13,.13-.64,.28-1.14,1.07-1.07-.53,1.73-1.07,3.47-1.6,5.2,0,0-.24,.02-.24,.02,0,0-.24-.02-.24-.02Z"/>
  <path class="cls-16" d="M213.96,172.47c1.95-1.08,4.11-1.18,6.25-1.35-2.03,.68-4.03,1.52-6.25,1.35Z"/>
  <path class="cls-12" d="M292.32,142.51c.06-1.31-.45-1.76-1.68-1.11,.06-.69,.32-1.26,.98-1.58,.57-.16,1.15-.32,1.72-.48-.34,1.06-.25,2.25-1.02,3.17Z"/>
  <path class="cls-16" d="M98.07,169.03c0,1.89,2.24,.5,2.64,1.8-1.47,.16-2.82-.28-4.17-.76,.38-.4,.75-.79,1.13-1.19,0,0,.24-.02,.24-.02l.17,.17Z"/>
  <path class="cls-12" d="M294.82,65.8c-.47,.12-.94,.23-1.41,.35-.65-.82-1.88-.94-2.36-1.97,.73-.09,1.46-.18,2.2-.26,.77,.42,1.31,1.03,1.58,1.88Z"/>
  <path class="cls-16" d="M179,171.76c1.47-.95,3.03-.5,4.58-.33-1.48,.72-3.04,.43-4.58,.33Z"/>
  <path class="cls-16" d="M150.88,170.84c1.38-.91,2.94-.94,4.51-.94-1.43,.66-2.91,1.1-4.51,.94Z"/>
  <path class="cls-16" d="M170.7,171.57c1.24-.48,2.46-.65,3.61,.21-1.22,.18-2.43,.23-3.61-.21Z"/>
  <path class="cls-16" d="M91.8,170.73c.89-.91,1.85-1.51,3.11-.66-1.04,.22-2.08,.44-3.11,.66Z"/>
  <path class="cls-16" d="M298.51,81.67c1.15-1.11,2.49-1.55,4.06-1.16-1.35,.39-2.71,.78-4.06,1.16Z"/>
  <path class="cls-16" d="M260.04,168.7c1.52-.81,3.14-.71,4.77-.54-1.56,.41-3.15,.59-4.77,.54Z"/>
  <path class="cls-13" d="M293.24,63.92c-.73,.09-1.46,.18-2.2,.26-.59-.22-1.08-.55-1.38-1.12,.38-.27,.76-.53,1.14-.8,.85,.5,1.99,.56,2.44,1.65Z"/>
  <path class="cls-12" d="M290.66,144.85c.21-1.02,.21-2.2,1.66-2.34-.25,.99-.87,1.73-1.66,2.34Z"/>
  <path class="cls-16" d="M78.16,84.31c.04-.51,.09-1.01,.13-1.52,.97,.29,2.1,.15,2.85,1.03-.8,.09-1.63,.09-2.17,.85-.27-.12-.54-.24-.81-.37Z"/>
  <path class="cls-16" d="M184.71,171.32c.77-.92,1.66-.78,2.58-.27-.82,.44-1.7,.42-2.58,.27Z"/>
  <path class="cls-16" d="M203.21,171.88c1.02,.01,2.18-.68,2.96,.56-1.04,.1-2.08,.17-2.96-.56Z"/>
  <path class="cls-13" d="M287.6,62.23c.16-.4,.32-.81,.48-1.21,.7-.07,1.24,.2,1.66,.75-.04,.43-.08,.87-.12,1.3-.67-.28-1.35-.56-2.02-.84Z"/>
  <path class="cls-16" d="M162.97,169.83c1.15-.15,2.17,.12,3.01,.95-1.09-.04-2.06-.46-3.01-.95Z"/>
  <path class="cls-16" d="M87.66,171.56c.69-.93,1.52-1.17,2.54-.51-.85,.17-1.69,.34-2.54,.51Z"/>
  <path class="cls-16" d="M154.32,147c-.87,.15-1.76,.46-2.47-.38,.88-.25,1.71-.14,2.47,.38Z"/>
  <path class="cls-16" d="M297.48,84.4c-.2-1.03,.24-1.84,.89-2.58-.03,.95-.14,1.88-.89,2.58Z"/>
  <path class="cls-10" d="M100.74,143.32c-.74,.12-1.46,.05-2.14-.29,.82-.68,1.57-.84,2.14,.29Z"/>
  <path class="cls-16" d="M133.62,171.12c.77-.6,1.48-.63,2.09,.22-.72,.18-1.43,.14-2.09-.22Z"/>
  <path class="cls-16" d="M160.38,169.06c.65,.07,1.38-.16,1.88,.49-.75,.32-1.3-.15-1.88-.49Z"/>
  <path class="cls-14" d="M68.02,171.42c.67-.22,1.32-.3,1.86,.3-.67,.21-1.31,.24-1.86-.3Z"/>
  <path class="cls-16" d="M195.2,170.13c.7-.67,1.24-.63,1.57,.36-.52-.12-1.05-.24-1.57-.36Z"/>
  <path class="cls-12" d="M281.87,158.18s-.16-.17-.16-.17c.12-.81,.41-1.43,1.4-1.34-.03,.82-.62,1.17-1.23,1.51Z"/>
  <path class="cls-16" d="M162.81,145.66c-.49,.63-1.15,.49-1.8,.38,.52-.5,1.12-.65,1.8-.38Z"/>
  <path class="cls-16" d="M147.66,171.29c.45-.69,.96-.76,1.55-.18-.49,.31-1.01,.37-1.55,.18Z"/>
  <path class="cls-16" d="M197.58,170.78c.83-.02,1.76-.46,2.33,.58-.82,0-1.61-.15-2.33-.58Z"/>
  <path class="cls-16" d="M139.84,145.04c-.04,.49-.16,.94-.68,1.15-.16-.06-.31-.12-.47-.19,.04-.49,.09-.98,.13-1.47,.34,.17,.67,.34,1.01,.51Z"/>
  <path class="cls-12" d="M289.62,63.07c.04-.43,.08-.87,.12-1.3,.43,0,.81,.12,1.06,.5-.38,.27-.76,.53-1.14,.8,0,0-.04,0-.04,0Z"/>
  <path class="cls-12" d="M301.71,65.07c-.34,.63-.85,.59-1.42,.38,.36-.53,.87-.54,1.42-.38Z"/>
  <path class="cls-12" d="M299.6,65.61c-.35,.52-.84,.55-1.38,.39,.35-.52,.84-.55,1.38-.39Z"/>
  <path class="cls-16" d="M200.98,171.57c.43-.45,.75-.29,1,.2-.38,.19-.72,.15-1-.2Z"/>
  <path class="cls-3" d="M82.96,143.84c-.4,.14-.78,.15-1.09-.21,.54-.85,.87-.59,1.09,.21Z"/>
  <path class="cls-12" d="M279.45,161.36c-.6-.03-1.2-.05-1.8-.08,.55-.73,.95-1.87,2.14-.72,.29,.44,0,.63-.34,.8Z"/>
  <path class="cls-16" d="M167.64,170.96c.57-.28,1.09-.31,1.46,.33-.55,.17-1.03,.02-1.46-.33Z"/>
  <path class="cls-16" d="M136.02,143.89c-.55,.15-1.05,.12-1.41-.41,.57-.21,1.03-.05,1.41,.41Z"/>
  <path class="cls-16" d="M79.09,84.74c.5-.28,.95-.29,1.26,.28-.47,.13-.93,.21-1.26-.28Z"/>
  <path class="cls-16" d="M67.8,144.59c-.22,.42-.62,.47-1.03,.5,0-.9,.41-.92,1.03-.5Z"/>
  <path class="cls-11" d="M280.22,158.14c.95-.15,1.06,.35,.83,1.1-.11,.16-.22,.32-.33,.48-.25,.17-.5,.34-.75,.51-.8,0-1.07-.3-.6-1.03,.58-.11,.94-.41,.86-1.06Z"/>
  <path class="cls-12" d="M286.54,150.61c.1-.65,.54-.81,1.12-.77-.05,.72-.69,.59-1.12,.77Z"/>
  <path class="cls-12" d="M287.64,149.86c-.06-.66,.22-1.05,.89-1.14-.08,.55-.41,.9-.89,1.14Z"/>
  <path class="cls-16" d="M159.18,146.55c-.26,.63-.77,.65-1.33,.53,.35-.41,.8-.56,1.33-.53Z"/>
  <path class="cls-15" d="M82.23,172c.4-.31,.81-.35,1.24-.09-.39,.35-.81,.39-1.24,.09Z"/>
  <path class="cls-12" d="M281.07,159.24c-.16-.68-.52-1.51,.81-1.08-.27,.36-.54,.72-.81,1.08Z"/>
  <path class="cls-16" d="M75.68,83.4c.4-.01,.76,.07,.99,.44-.33-.15-.66-.29-.99-.44Z"/>
  <path class="cls-12" d="M266.21,167.89c.22-.09,.45-.18,.67-.27-.22,.09-.45,.18-.67,.27Z"/>
  <path class="cls-12" d="M288.6,148.58c.01-.09,.05-.17,.11-.23,0,0,.05,.16,.05,.16l-.16,.07Z"/>
  <path class="cls-16" d="M159.73,168.87c.24-.2,.39-.09,.51,.15-.17-.05-.34-.1-.51-.15Z"/>
  <path class="cls-16" d="M138.85,144.53c-.18-.07-.35-.14-.53-.22,.18,.07,.35,.14,.53,.22Z"/>
  <path class="cls-12" d="M284.47,153.47c.07-.16,.13-.32,.2-.48-.07,.16-.13,.32-.2,.48Z"/>
  <path class="cls-10" d="M103.31,144.27c-.27,.17-.46,.1-.58-.2,.19,.07,.39,.13,.58,.2Z"/>
  <path class="cls-16" d="M67.67,146.94c-.31,.1-.62,.21-.93,.31,.02-.2,.03-.4,.05-.6,.29,.09,.59,.19,.88,.29Z"/>
  <path class="cls-14" d="M86.08,144.26c-.19,.26-.37,.25-.53-.03,.18,0,.35,.02,.53,.03Z"/>
  <path class="cls-16" d="M83.32,86.08c.23,.11,.45,.21,.68,.32-.23-.11-.45-.21-.68-.32Z"/>
  <path class="cls-12" d="M274.56,165.26c.14-.1,.27-.2,.41-.3-.14,.1-.27,.2-.41,.3Z"/>
  <path class="cls-12" d="M289.7,146.71c.13-.19,.26-.37,.4-.56-.13,.19-.26,.37-.4,.56Z"/>
  <path class="cls-16" d="M67.54,79.65c-.24,.03-.47,.07-.71,.1-.07-.15-.07-.3,0-.45,.24,.12,.47,.23,.71,.35Z"/>
  <path class="cls-12" d="M279.97,160.23c.25-.17,.5-.34,.75-.51-.09,.34-.2,.64-.64,.53,0,0-.11-.03-.11-.03Z"/>
  <path class="cls-12" d="M275.57,164.52c.24-.18,.48-.36,.73-.54-.24,.18-.48,.36-.73,.54Z"/>
  <path class="cls-7" d="M261.48,75.14c-.02,.33-.03,.67-.05,1-3.45,.3-6.56,2.71-10.25,1.64-.33-.1-1.06,.38-1.26,.77-.73,1.46-2.04,2.54-2.55,4.15-1.84,5.8-3.73,11.58-5.6,17.37-.92,1.08-.72,2.5-1.16,3.73-.38,2.51-1.92,4.56-2.68,6.92-1.11,3.46-1.97,7.08-3.64,10.26-2.59,4.94-3.85,10.42-6.67,15.23-1.32,2.57-1.83,5.58-4.09,7.77-1.5-1.87-2.41-4.09-4.68-5.16-1.18-.56-.68-1.82-.3-2.55,2.67-5.21,3.51-11.07,6.04-16.36,1.3-2.71,2.09-5.82,2.43-8.92,.04-.36,.08-.71,.13-1.07,1.44-.55,1.4-1.79,1.4-3.02,2.51-3.55,2.93-7.81,4.08-11.83,1.61-5.64,2.53-11.56,5.22-16.77,4.45-8.63,13.53-10.16,21.19-5.74,1.03,.6,2.06,1.3,2.44,2.57Z"/>
  <path class="cls-7" d="M196.37,116.89c-.26-2.28-.55-4.54-1.03-6.82-1.06-5-1.33-10.09,.45-15.12,.71-2.01,1.07-4.16,1.83-6.2,2.34-6.31,9.5-8.69,14.83-8.33,3.93,.26,7.55,1.61,10.66,4.22,1.48,1.25,1.12,1.78-.49,2.11-4.35,.9-8.38,3.32-13.09,2.56-1.75-.28-2.62,1.2-3.04,2.68-.48,1.66-.83,3.34-.92,5.11-.55,11.59,.85,23.11,1.05,34.67,.04,2.17,.07,4.34,.11,6.52-.02,.7-.04,1.4-.06,2.1-.1,.53-.2,1.06-.3,1.59-.57,.78-.76,1.66-.75,2.6-.37,.17-.86,.16-.98,.69-.78,.79-1.51,1.65-2.69,1.88-2.07,.39-2.82-.4-2.73-2.48,.22-5.09-.34-10.14-1.23-15.15,.25-.62-.01-1.14-.33-1.65-.02-.35-.05-.7-.07-1.05,.31-2.18-.16-4.25-.88-6.29,.06-1.23,.21-2.47-.35-3.64Z"/>
  <path class="cls-9" d="M111.07,156.11c3.69-1.1,7.15-2.15,10.61-3.18,5.98-1.78,11.9-3.74,18.11-4.62,8.97-1.27,17.55-.05,26,3.46-9.33,8.5-43.15,11.21-54.72,4.33Z"/>
  <path class="cls-7" d="M289.62,63.07s.04,0,.04,0c.3,.57,.79,.9,1.38,1.12,.48,1.02,1.71,1.14,2.36,1.97-.96,2.67-3.56,2.11-5.39,2.29-3.93,.39-4.11,.24-5.12,4-1.27,1.59-1.3,7.47-.05,9.49,0,3.07-.01,6.13-.02,9.2-1.33,1.42-1.31,3.22-1.42,4.99,.02,.27,.04,.54,.06,.8v.03c-1.48,.79-1.39,2.51-2.19,3.7-.56,.82-.78,1.41-1.8,.21-1.17-1.38-1.59-3.05-2.44-4.53-4.15-7.26-4.57-15.05-3.19-23.09,1.32-.05,1.13-1,1.11-1.86,1.32-4.3,3.93-7.29,8.3-8.81,2.16-.75,4.24-.35,6.36-.34,.67,.28,1.35,.56,2.02,.84Z"/>
  <path class="cls-9" d="M124.59,150.08c-6.26,1.22-11.99,3.15-17.62,5.15-4.88,1.73-9.7,3.55-14.77,4.58-4.88,.99-9.66,.71-14.14-1.76-1.18-.65-2.07-1.37-.16-2.19,8.79-3.75,17.15-8.65,27.01-9.37,6.53-.48,12.76,.67,18.89,2.7,.2,.07,.32,.35,.78,.89Z"/>
  <path class="cls-4" d="M256.7,150.8c-2.92,4.83-7.03,8.42-12.4,9.91-4.48,1.24-9.26,1.19-13.93,1-3.63-.15-7.24-.63-10.75-1.61-.81-.23-1.88-.47-2.05-1.37-.23-1.19,1.1-1.14,1.78-1.5,1.83-.95,3.73-1.74,5.61-2.6,.34-.22,.68-.44,1.01-.66,0,0,.04-.02,.04-.02,.21-.11,.42-.22,.63-.33,0,0,.03,0,.03,0,.46-.23,.92-.46,1.39-.69,0,0,.05-.02,.05-.02,.84-.15,1.68-.31,2.34-.92,.13,.06,.21,.03,.26-.11,.74-.22,1.48-.43,2.22-.67,7.8-2.49,15.71-3.75,23.87-1.99,.14,.26,.28,.53,.41,.79-.17,.26-.33,.52-.5,.77Z"/>
  <path class="cls-9" d="M129.41,169.15c-.31-.09-.62-.18-.94-.27-7.41-1.76-14.63-4.07-21.4-7.64-1.21-.64-2.31-1.51-3.56-2.34,1.98-1.33,3.87-2.35,6.26-1.29,6.7,2.99,13.85,3.72,21.05,4.06,4.16,.2,8.34,.33,12.49,.17,1.76-.07,2.95,.91,4.32,1.49,2.94,1.25,5.76,2.79,8.63,4.21-.19,.3-.39,.61-.58,.91-7.31,1.53-14.66,2.18-22.11,1.23-.46-.41-.97-.31-1.49-.17-.85-.41-1.76-.4-2.68-.36Z"/>
  <path class="cls-7" d="M208.84,123.68c.67-.29,1.08-.77,1.08-1.53,.49-.21,.42-.67,.5-1.07,.13-.19,.26-.38,.39-.57,1.18-1.52,1.31-3.46,2.02-5.17,1.85-.85,3.88-1.14,5.77-1.94,2.83-1.19,3.39-.77,3.92,1.99,.04,.21,.32,.38,.49,.57-.57,4.84-2.61,9.2-4.28,13.7-1.29,3.48-1.96,7.2-3.34,10.64-.88,2.2-1.94,4.41-3.49,6.31-.84,1.03-1.87,1.14-3.03,1.04-.38-.34-.76-.68-1.14-1.02,0-1.38-.01-2.77-.02-4.15,.52-1.17,.84-2.38,.68-3.68,.02-.71,.04-1.42,.06-2.12,.31-2.26,.31-4.51-.04-6.76,.14-2.08,.27-4.16,.41-6.24Z"/>
  <path class="cls-1" d="M270.36,115.83c-.13-.2-.26-.4-.39-.61-.61-1.58-.92-3.35-2.7-4.17,0,0,.01,.03,.01,.03,.07-.69-.26-1.21-.71-1.67-.13-.48-.26-.96-.39-1.45-.24-2.08-.22-4.16,.06-6.23,.64-2.67,2.56-4.64,3.88-6.93,.64-1.12,1.12-.86,1.87,.08,.94,1.18,1.47,2.52,2.07,3.84,2.32,5.12,5.47,9.89,6.88,15.41,.81,3.19,1.8,6.38,.64,9.7-.23,.65-.46,1.32-.83,1.88-1.74,2.65-2.89,2.62-4.52-.1-1.67-2.8-2.88-5.88-5.15-8.31-.1-.56-.23-1.11-.71-1.49Z"/>
  <path class="cls-9" d="M188.83,150.46c3.13,.84,6.52,.54,10.04,2.16-3.34,1.23-6.16,2.27-8.98,3.31-.17,.04-.34,.08-.5,.12-9.1,2.79-18.23,5.52-27.92,4.61-2.6-.24-5.33-.08-8.57-1.52,11.46-4.14,21.8-9.54,33.79-8.76,.3,0,.6,.01,.89,.02,.2,0,.4,.01,.6,.02,.22,.01,.43,.03,.65,.04Z"/>
  <path class="cls-9" d="M198.51,154.58c1.51-.55,3.14-.79,4.49-1.74,.99-.62,2.39-.28,3.18-1.36,2.42-.64,4.84-1.27,7.26-1.91,.18-.02,.35-.04,.53-.06,.54-.02,1.08-.03,1.62-.05,1.01,.24,2.03,.22,3.04,0,.36,.02,.73,.05,1.09,.07,.18,0,.35,.02,.53,.03,.69,.07,1.39,.14,2.08,.22,.16,.02,.32,.05,.48,.07,0,0-.01,0-.01,0,.13,.24,.31,.32,.55,.15,1,.76,3.17-.06,3.2,1.46,.02,1.21-2.02,1.25-3.13,1.84-7.19,3.82-14.66,6.81-22.7,8.3-6.22,1.15-11.92,.48-15.95-2.18,3.54-1.27,6.96-2.5,10.39-3.73,.56,.1,1.09,.1,1.43-.48,.41-.12,.81-.24,1.22-.35,.23-.09,.46-.18,.69-.27Z"/>
  <path class="cls-1" d="M291.62,139.81c-.66,.32-.91,.89-.98,1.58-2.23,5.7-6.07,9.93-11.56,12.66-2.57,1.28-4.54,1.33-7.25,0,2.93-1.76,5.36-3.97,7.32-6.65,2.28-3.12,2.66-6.75,2.24-10.44-.2-1.73,.19-2.64,1.64-3.84,2.51-2.06,5.28-3.94,7.15-6.71,.42-.62,1.08-1.12,1.65-.99,.65,.14,.76,1.05,.84,1.7,.3,2.49,.81,4.97,.67,7.51-.14,.14-.17,.3-.08,.48-.54,1.56-1.08,3.13-1.62,4.69Z"/>
  <path class="cls-9" d="M98.07,169.03l-.17-.17s-.24,.02-.24,.02c-6.09-1.64-12.17-3.3-17.95-5.87-2.13-.95-4.22-1.98-6.3-3.04-.48-.24-1.24-.58-.8-1.37,.32-.58,.96-.74,1.6-.55,.66,.2,1.37,.36,1.93,.73,6.08,4.07,12.69,3.81,19.3,2.03,3.58-.96,6.71-.21,9.74,1.34,5.27,2.68,10.63,5.05,16.39,6.45-.14,.44-.28,.88-.42,1.31-5.58,.36-11.16,.34-16.75,.04-.5-.42-1.07-.32-1.63-.18-1.5-.65-3.09-.78-4.7-.76Z"/>
  <path class="cls-7" d="M295.89,84.42c-.8,3.64-1.6,7.27-2.4,10.91-.89,.7-.74,1.85-1.19,2.74-.61,.07-1.06,.3-1.03,1.02-1.78,3.95-4.47,7.32-7.02,10.77-1.51,2.05-2.09,1.95-3.01-.34-.29-.72-.43-1.53-.84-2.16-1.32-2.01-1.07-3.83,.25-5.73,.58-.83,.87-1.87,1.29-2.81,1.05-.19,1.01-1.03,1.09-1.8,0,0,.08-.21,.08-.21,.79-.85,.78-1.9,.71-2.96,1.07-2.1,.73-4.42,1-6.64,.16-1.35,.67-2.09,1.93-2.36,3.1-.66,5.98-2.14,9.17-2.43-.01,.67-.02,1.35-.03,2.02Z"/>
  <path class="cls-1" d="M268.29,123.67c1.82-3.3,2.23-3.56,4.13-.5,3.49,5.6,8.11,10.81,7.17,18.29-.52,4.12-3.5,6.41-5.87,9.18-.67,.78-1.57,.47-1.75-.81-.25-1.8-.3-3.65-1.22-5.3,.08-.56-.01-1.08-.37-1.53,0,0,0-.02,0-.02-.1-.22-.21-.44-.31-.66,0,0-.02-.13-.02-.13-.23-.81-.45-1.62-.67-2.43-.3-1.21-.6-2.42-.91-3.63,.03-.06,.09-.14,.07-.18-.06-.11-.15-.21-.22-.31,0,0,.01,.01,.01,.01-.36-1.56,.32-3.36-1.08-4.68,0,0,0,0,0,0-.07-1.03-.13-2.05-.2-3.08,.08-.85,.15-1.7,.23-2.56,.68-.35,1.02-.9,1.01-1.67Z"/>
  <path class="cls-4" d="M252.64,168.34c.37,.08,.73,.17,1.1,.25-2.31,1.9-5.25,1.65-7.88,1.93-7.74,.8-15.51,.9-22.99-1.9,0,0-.03-.02-.03-.02-.34-.53-.91-.63-1.46-.76-2.59-1.22-4.8-3.02-7.02-4.79-.83-.66-2.36-1.51-1.36-2.83,.93-1.23,2.11-.68,3.38,.18,3.48,2.37,7.64,2.57,11.65,2.94,2.83,.26,5.78,.43,8.56-.05,3.83-.66,6.89,.48,9.8,2.7,.39,.3,.92,.41,1.38,.62,.39,.57,1.05,.52,1.62,.68,.35,.11,.71,.22,1.06,.33,.57,.74,1.35,.81,2.19,.73Z"/>
  <path class="cls-1" d="M295.3,100.28c.25,.82,.37,1.71,.76,2.45,1.08,2.04,.81,3.91,.18,6.12-1.1,3.9-2.2,7.81-3.44,11.67-3.42,3.97-7.01,7.76-11.17,10.97-.52,.4-1.06,1.63-1.78,.43-.42-.7-1.16-1.67-.18-2.59,.13-.12,.24-.27,.38-.35,4.56-2.67,4.96-7,3.84-11.36-.88-3.4,.53-5.62,2.58-7.54,2.95-2.77,4.41-6.47,6.72-9.62,.43-.59,.42-2,1.7-.85,.14,.21,.27,.43,.41,.64l-.02,.02Z"/>
  <path class="cls-9" d="M189.58,168.6c-.04,.2-.08,.4-.12,.6-5.33,.86-10.69,1.12-16.08,.94-6.51-.21-12.47-2.36-18.3-5.01-2.04-.93-4.04-1.96-6.05-2.96-.54-.27-1.32-.55-1.14-1.23,.23-.85,1.15-.76,1.78-.53,7.04,2.52,14.31,2.13,21.59,1.76,.35-.02,.72,.04,1.04-.06,3.26-1.03,6.17-.53,8.86,1.66,2.54,2.05,6.07,2.42,8.43,4.83Z"/>
  <path class="cls-9" d="M209.76,171.04c-7.77-.11-14.99-2.44-21.96-5.66-2.35-1.08-4.62-2.34-6.9-3.56-.35-.19-.84-.59-.84-.88,.02-.69,.7-.59,1.19-.65,.61-.08,1.2-.13,1.75,.24,5.89,3.98,12.36,3.93,18.99,2.72,2.3-.42,4.62-.78,6.78-1.78,.86-.4,1.62-.33,2.25,.59,1.81,2.65,4.64,4.09,7.11,5.96,.48,.36,1.2,.56,1.08,1.3-.12,.77-.91,.65-1.46,.81-2.61,.78-5.3,.9-8,.91Z"/>
  <path class="cls-1" d="M268.74,143.01c.42,1.85,.73,3.73,1.28,5.54,.56,1.86,.34,3.36-1.16,4.69-3.78,3.37-7.36,7.01-12.5,8.39-1.98,.53-3.95,.39-5.94,.34-.52-.01-1.07-.16-1.17-.79-.09-.52,.34-.74,.71-.96,5.02-3.05,7.96-8,11.41-12.5,1.62-2.11,3.54-3.98,5.32-5.96,.53,.04,1.07,.07,1.6,.11,0,0,.05,.06,.05,.06,.13,.36,.26,.73,.39,1.09Z"/>
  <path class="cls-7" d="M181.5,123.24c.75-1.15,1.8-1.71,3.16-1.95,1.6-.29,3.15-.84,4.72-1.27,.37-.02,.75-.04,1.12-.07,.32,0,.65,.02,.97,.03,.59,3.44,1.79,6.71,2.92,9.99,.22,.51,.44,1.03,.67,1.54,.19,.94-.34,2.22,1.2,2.51,.13,.73,.32,1.46-.03,2.18-.52,0-1.05-.04-1.32,.54-1.48,.37-2.72,1.19-3.89,2.12-.94-.09-1.93,.54-2.64-.87-2.43-4.86-5.57-9.38-6.88-14.76Z"/>
  <path class="cls-16" d="M256.79,149.23c-8.16-1.75-16.07-.5-23.87,1.99-.74,.24-1.48,.45-2.22,.67,.11-.83-.71-1.03-1.06-1.55,3.76-1.03,7.51-2.07,11.27-3.1-4.62-1.25-9.08-.84-13.47,.73-.54,.19-.75,.69-.82,1.24-.23-.06-.67-.12-.67-.18-.03-3.04-1.4-1.83-2.69-.87-.17-.66-.33-1.32-.5-1.98,1.25-.32,2.01-1.26,2.77-2.2,0,0,0,.03,0,.03-.38,2.07-.4,2.96,2.38,2.02,6.04-2.03,12.28-1.8,18.36,.16,1.99,.64,3.42,.65,4.65-1.29,.69-1.1,1.85-1.81,3.27-1.83,0,.53,0,1.05,0,1.58-.38,.89-1.95,.4-1.98,1.81,1.69,.45,3.4,.91,5.1,1.36-.46,.36-1.09,.66-.54,1.4Z"/>
  <path class="cls-7" d="M255.69,96.7c.68-1.53,.85-3.43,2.89-3.96,.08-.03,.16-.08,.24-.1,5.26-1.24,5.24-1.24,6.88,3.94,.28,.87-.06,1.54-.35,2.22-.84,1.93-1.14,3.96-1.25,6.04-4.39-.1-5.72-3.83-7.85-6.62-.12-.21-.23-.43-.35-.64-.07-.3-.14-.59-.21-.89Z"/>
  <path class="cls-6" d="M197.47,142.35c-.16,.76,.8,2.71-.72,3.45-2.48,1.2-4.42,3.7-7.64,3.26-4.04-.56-3.96-.46-2.29-4,1.88-3.97,5.71-5.26,9.21-7.01,.97-.49,1.45,.07,1.45,1.08,0,.86,0,1.73,0,3.23Z"/>
  <path class="cls-12" d="M227.63,136.21c2.83-4.8,4.08-10.29,6.67-15.23,1.67-3.18,2.52-6.8,3.64-10.26,.76-2.36,2.31-4.42,2.68-6.92,.44,.01,.88,.02,1.32,.03-.17,1.04-.33,2.07-.5,3.11-.07,.23-.15,.47-.22,.7-2.2,5.95-4.09,12.03-6.7,17.79-1.67,3.68-3.12,7.44-4.7,11.16-.28,.65-.63,.97-1.24,1.14,0-.7,.08-1.46-.95-1.51Z"/>
  <path class="cls-9" d="M160.5,148.06c4.7-2.42,16.27-2.09,20.17,.62-2.94,.81-5.87,.61-8.48,1.71-2.29,.96-4.42,.6-6.6-.45-1.52-.73-3.18-1.19-5.09-1.88Z"/>
  <path class="cls-10" d="M223.02,115.96c-.17-.19-.45-.36-.49-.57-.53-2.76-1.09-3.18-3.92-1.99-1.89,.8-3.92,1.08-5.77,1.94-.41-.16-.82-.32-1.24-.48-.42-2.33,1.66-1.65,2.63-1.97,3.28-1.09,6.64-1.98,10-2.82,1.46-.36,1.55-1.53,1.33-2.41-.31-1.24-1.37-.4-2.06-.21-3.5,.94-6.94,2.14-10.54,2.7,0-.37-.02-.75-.02-1.12,.24-.33,.48-.65,.72-.98,4.5-.07,8.53-2.07,12.78-3.16,.36,.17,.73,.34,1.09,.51-.17,1.51-1.03,2.97-.35,4.54-.04,.36-.08,.71-.13,1.07-3.38,0-3.15,2.94-4.03,4.97Z"/>
  <path class="cls-9" d="M138.7,146c.16,.06,.31,.12,.47,.19-4.77,1.25-9.35,4.13-14.54,1.54-.84-.42-1.82-.53-2.71-.85-.6-.21-1.64-.14-1.54-1.03,.09-.84,1.14-.55,1.74-.84,.17-.02,.34-.04,.51-.06,5.44-.88,10.79-.32,16.09,1.06Z"/>
  <path class="cls-6" d="M222.76,146.19c.17,.66,.33,1.32,.5,1.98-1.97-.15-3.95-.23-5.91-.47-1.83-.23-3-.98-1.76-3.06,.17-.29,.24-.64,.37-.97,1.52-3.83,2.22-3.92,4.86-.52,.73,.94,1.3,2.02,1.94,3.04Z"/>
  <path class="cls-12" d="M194.39,129.97c-1.13-3.28-2.33-6.55-2.92-9.99,.11-.13,.16-.29,.16-.46,1.54-.34,1.61,.84,1.86,1.81,.33,1.32,.63,2.65,1.02,4.28,1.68-1.8-.28-3.18,.23-4.57,.74,.12,1.37-.16,1.99-.51,.72,2.04,1.19,4.11,.88,6.29-.62,.11-.9,.53-.83,1.11,.24,1.91-.94,2.12-2.38,2.05Z"/>
  <path class="cls-12" d="M254.2,144.66c0-.53,0-1.05,0-1.58,1.42-1.11,3.13-.87,4.74-.88,1.32,0,1.79-.46,1.94-1.76,.35-3.06,.85-6.1,3.23-8.41,.21,.6,.42,1.19,.63,1.79-.42,2.94-2.81,5.37-2.17,8.58-.36,.61-1.19,.92-1.14,1.79-2.47-.84-4.84-.2-7.21,.47Z"/>
  <path class="cls-4" d="M226.62,149.22c.07-.55,.28-1.04,.82-1.24,4.39-1.58,8.86-1.99,13.47-.73-3.76,1.03-7.51,2.07-11.27,3.1-.63-.21-1.26-.42-1.89-.64-.23-.09-.46-.18-.69-.26-.1-.16-.25-.23-.44-.23Z"/>
  <path class="cls-1" d="M265.17,119.92c-.16-1.28-.31-2.56-.47-3.84,.1-.26,.2-.51,.31-.77,.66-.63,.4-2.14,1.89-1.98,.13,1.18,1.21,1.67,1.82,2.5,1.37,1.94,.6,3.46-.84,4.99-1.17,1.24-1.9,1.07-2.56-.39-.05-.17-.1-.35-.15-.52Z"/>
  <path class="cls-16" d="M256.25,98.23c2.13,2.78,3.46,6.52,7.85,6.62,.16,.91,.31,1.82,.47,2.73-5.01-1.53-8.42-4.84-10.62-9.51,.08-1.09,.64-1.59,1.75-1.37,.07,.3,.14,.6,.21,.89,.12,.21,.23,.43,.35,.64Z"/>
  <path class="cls-1" d="M254.2,144.66c2.37-.67,4.74-1.3,7.21-.47-.79,1.86-1.48,3.83-4.09,3.64-1.7-.46-3.41-.91-5.1-1.36,.03-1.4,1.61-.91,1.98-1.81Z"/>
  <path class="cls-1" d="M262.56,142.4c-.64-3.2,1.75-5.64,2.17-8.58,2.62-.63,.87,1.79,1.68,2.42-.12,.41-.03,.76,.28,1.05,.15,.51,.31,1.02,.46,1.53-.1,.29-.2,.58-.29,.87-1.09,.74-2,1.67-2.79,2.72-.18,0-.34,.06-.48,.17-.34-.06-.69-.12-1.03-.18Z"/>
  <path class="cls-5" d="M261.22,89.43c-1.25-3.23,3.22-5.61,4.04-8.54,.23-.8,2.12-.87,3.3-.89,1.65-.04,1.36,.85,1.37,1.45,.05,2.05,2.1,5.16-1.94,6.55-1.29,.44-4.76-.12-4.96,1.08-.61,.12-1.22,.23-1.82,.35Z"/>
  <path class="cls-9" d="M90.24,144.9c3.63-.78,6.65-.89,10.23,.58-3.68,.65-6.75,2.69-10.23-.58Z"/>
  <path class="cls-12" d="M268.72,115.84c-.61-.83-1.69-1.32-1.82-2.5,2.47-.38-.08-1.57,.37-2.28,1.78,.82,2.09,2.59,2.7,4.17-.42,.2-.83,.41-1.25,.61Z"/>
  <path class="cls-14" d="M74.54,170.58c2.11-.34,4.23-.31,6.34,.02-2.12,.92-4.23,.96-6.34-.02Z"/>
  <path class="cls-16" d="M202.5,151.39c1.16-.54,2.29-1.21,3.64-1.13,.01,.41,.03,.82,.04,1.23-.8,1.08-2.19,.74-3.18,1.36-.17-.48-.34-.97-.5-1.45Z"/>
  <path class="cls-12" d="M267.24,130.96c1.4,1.32,.73,3.12,1.08,4.68-2.2-1.14-.64-3.14-1.08-4.68Z"/>
  <path class="cls-12" d="M208.41,138.8c.16,1.3-.16,2.51-.68,3.68-.45-.17-.9-.34-1.35-.5,.1-.53,.2-1.06,.3-1.59,1.78,.8,.58-1.69,1.74-1.58Z"/>
  <path class="cls-12" d="M263.59,119.44c-1.5-1.35-1.61-2.69,.02-4.02,0,1.34-.02,2.68-.02,4.02Z"/>
  <path class="cls-12" d="M266.24,101.74c-.28,2.08-.3,4.15-.06,6.23-.82-2.09-.91-4.17,.06-6.23Z"/>
  <path class="cls-12" d="M266.57,109.42c.45,.46,.78,.98,.71,1.67-.58-.35-1.14-.27-1.7,.04-.15-.52-.3-1.04-.45-1.56,.48-.05,.96-.1,1.44-.14Z"/>
  <path class="cls-12" d="M196.26,134.02c-1.54-.29-1.02-1.57-1.2-2.51,1.75,.19,.96,1.6,1.2,2.51Z"/>
  <path class="cls-12" d="M268.74,143.01c-.13-.36-.26-.73-.39-1.09,1.43-.21,.77-1.4,1.01-2.17,.22,.81,.45,1.62,.67,2.43-.43,.28-.87,.55-1.3,.83Z"/>
  <path class="cls-14" d="M272.95,71.38c.02,.86,.21,1.81-1.11,1.86,.06-.6,.12-1.21,.17-1.81,.31-.02,.62-.03,.94-.05Z"/>
  <path class="cls-16" d="M230.44,152c-.66,.61-1.5,.77-2.34,.92,.31-1.51,1.44-.91,2.34-.92Z"/>
  <path class="cls-12" d="M254.52,167.43c-.62,.03-1.25,.06-1.87,.08-.18-.3-.36-.59-.54-.89,.88,.03,1.77,.04,2.41,.81Z"/>
  <path class="cls-16" d="M252.64,168.34c-.84,.08-1.62,0-2.19-.73,.69,.02,1.38,.03,2.07,.05,.04,.23,.08,.45,.11,.68Z"/>
  <path class="cls-12" d="M268.29,123.67c0,.77-.33,1.32-1.01,1.67-.07-.81-.14-1.61,1.01-1.67Z"/>
  <path class="cls-12" d="M197.67,127.87c.32,.51,.58,1.03,.33,1.65-1.46-.28-.64-1.01-.33-1.65Z"/>
  <path class="cls-12" d="M283.04,97.01c-.08,.77-.04,1.61-1.09,1.8-.17-.62-.33-1.25-.5-1.87,0,0,.01-.03,.02-.03,.53,.03,1.05,.07,1.57,.1Z"/>
  <path class="cls-12" d="M267.05,127.89c.07,1.03,.13,2.05,.2,3.08-.86-.97-.68-2.02-.2-3.08Z"/>
  <path class="cls-16" d="M121.15,169.92c.14-.44,.28-.88,.42-1.31,.52,.05,1.03,.21,.91,.84-.15,.82-.77,.64-1.34,.47Z"/>
  <path class="cls-14" d="M218.63,149.46c-1.01,.22-2.03,.25-3.04,0,1.01-.37,2.03-.4,3.04,0Z"/>
  <path class="cls-12" d="M268.3,141.86c-.53-.04-1.07-.07-1.6-.11,.62-1.19,1.15-1.1,1.6,.11Z"/>
  <path class="cls-16" d="M155.68,168.45c.19-.3,.39-.61,.58-.91,.43,.11,1.24-.06,.99,.67-.24,.68-1.01,.31-1.57,.24Z"/>
  <path class="cls-16" d="M132.09,169.51c.52-.13,1.03-.24,1.49,.17-.6,.84-1.03,.18-1.49-.17Z"/>
  <path class="cls-16" d="M196.59,155.2c-.33,.58-.86,.58-1.43,.48,.3-.67,.84-.65,1.43-.48Z"/>
  <path class="cls-12" d="M282.22,154.18c.15,.06,.37,.1,.41,.2,.04,.1-.07,.37-.18,.4-.11,.04-.28-.1-.43-.17,.06-.15,.13-.29,.19-.44Z"/>
  <path class="cls-16" d="M291.27,99.09c-.03-.72,.41-.95,1.03-1.02-.01,.67-.37,.99-1.03,1.02Z"/>
  <path class="cls-12" d="M266.85,139.69c.1-.29,.2-.58,.29-.87,.35,.1,.96,.01,.77,.63-.15,.5-.68,.28-1.07,.24Z"/>
  <path class="cls-12" d="M264.3,113.21c.05-.53,.27-.94,.79-1.15,.06,.61-.11,1.06-.79,1.15Z"/>
  <path class="cls-12" d="M264.14,121.39c-.51-.54-.66-1.19-.55-1.92,.7,.49,.45,1.25,.55,1.92Z"/>
  <path class="cls-12" d="M204.65,145.27c.12-.52,.61-.51,.98-.69-.08,.58-.11,1.24-.98,.69Z"/>
  <path class="cls-12" d="M206.66,147.26c-.35-.05-.69-.1-1.04-.14,.16-.25,.3-.71,.47-.72,.56-.04,.52,.48,.57,.86Z"/>
  <path class="cls-16" d="M70.93,146.1c-.35,.05-.7,.1-1.06,.15,.27-.62,.61-.78,1.06-.15Z"/>
  <path class="cls-16" d="M228.05,152.94c-.46,.23-.92,.46-1.39,.69,.16-.84,.81-.68,1.39-.69Z"/>
  <path class="cls-12" d="M194.91,136.75c.27-.59,.8-.55,1.32-.54-.29,.55-.82,.52-1.32,.54Z"/>
  <path class="cls-12" d="M270.38,143c.35,.45,.45,.97,.37,1.53-.5-.42-.39-.99-.37-1.53Z"/>
  <path class="cls-16" d="M249.38,167.28c-.57-.16-1.22-.11-1.62-.68,.66-.05,1.36-.22,1.62,.68Z"/>
  <path class="cls-16" d="M221.38,167.84c.55,.14,1.12,.23,1.46,.76-.62,0-1.29,.09-1.46-.76Z"/>
  <path class="cls-12" d="M207.74,146.63c.38,.34,.76,.68,1.14,1.02-.73,.05-1.14-.26-1.14-1.02Z"/>
  <path class="cls-12" d="M270.36,115.83c.47,.38,.61,.93,.71,1.49-.79-.23-.69-.89-.71-1.49Z"/>
  <path class="cls-16" d="M225.96,153.98c-.34,.22-.68,.44-1.01,.66,.15-.5,.53-.67,1.01-.66Z"/>
  <path class="cls-12" d="M266.68,137.3c-.31-.29-.4-.64-.28-1.05,.09,.35,.18,.7,.28,1.05Z"/>
  <path class="cls-12" d="M265.17,119.92c.05,.17,.1,.35,.15,.52-.05-.17-.1-.35-.15-.52Z"/>
  <path class="cls-16" d="M122.61,144.94c-.17,.02-.34,.04-.51,.06,.14-.25,.31-.31,.51-.06Z"/>
  <path class="cls-14" d="M213.97,149.52c-.18,.02-.35,.04-.53,.06,.15-.25,.33-.27,.53-.06Z"/>
  <path class="cls-12" d="M265.01,115.32c-.1,.25-.2,.51-.31,.77,.1-.25,.2-.51,.31-.77Z"/>
  <path class="cls-12" d="M263.88,114.19c.06-.17,.13-.34,.19-.51-.06,.17-.13,.34-.19,.51Z"/>
  <path class="cls-14" d="M220.25,149.56c-.18,0-.35-.02-.53-.03,.19-.23,.37-.22,.53,.03Z"/>
  <path class="cls-14" d="M222.81,149.85c-.16-.02-.32-.05-.48-.07,.22-.36,.38-.32,.48,.07Z"/>
  <path class="cls-16" d="M227.06,149.44c.23,.09,.46,.18,.69,.26-.23-.09-.46-.18-.69-.26Z"/>
  <path class="cls-14" d="M223.36,150c-.25,.17-.42,.09-.55-.15,.18,.05,.37,.1,.55,.15Z"/>
  <path class="cls-16" d="M187.59,150.4c-.3,0-.6-.01-.89-.02,.3,0,.6,.01,.89,.02Z"/>
  <path class="cls-12" d="M265.12,109.56c-.07-.16-.14-.32-.21-.48,.07,.16,.14,.32,.21,.48Z"/>
  <path class="cls-16" d="M188.83,150.46c-.21-.01-.43-.03-.65-.04,.21,.01,.43,.03,.65,.04Z"/>
  <path class="cls-16" d="M198.37,150.62c.21,.05,.41,.1,.62,.15-.21-.05-.41-.1-.62-.15Z"/>
  <path class="cls-16" d="M256.7,150.8c.17-.26,.33-.52,.5-.77,0,.37-.16,.63-.5,.77Z"/>
  <path class="cls-16" d="M295.31,100.25c-.14-.21-.27-.43-.41-.64,.14,.21,.27,.43,.41,.64Z"/>
  <path class="cls-16" d="M226.63,153.64c-.21,.11-.42,.22-.63,.33,.21-.11,.42-.22,.63-.33Z"/>
  <path class="cls-12" d="M225.54,144.02s0-.03,0-.03c.14-.16,.28-.32,.42-.48-.14,.17-.28,.34-.42,.5Z"/>
  <path class="cls-14" d="M293.24,135.12c-.09-.18-.06-.34,.08-.48,.4,.23,.3,.38-.08,.48Z"/>
  <path class="cls-16" d="M198.51,154.58c-.23,.09-.46,.18-.69,.27,.23-.09,.46-.18,.69-.27Z"/>
  <path class="cls-12" d="M268.31,135.63c.08,.1,.17,.2,.22,.31,.02,.04-.05,.12-.07,.18-.05-.16-.1-.33-.15-.49Z"/>
  <path class="cls-16" d="M189.39,156.04c.17-.04,.34-.08,.5-.12-.17,.04-.34,.08-.5,.12Z"/>
  <path class="cls-12" d="M263.59,142.59c.14-.11,.3-.17,.48-.17-.08,.29-.2,.43-.48,.17Z"/>
  <path class="cls-12" d="M270.06,142.31c.1,.22,.21,.44,.31,.66-.1-.22-.21-.44-.31-.66Z"/>
  <path class="cls-7" d="M175.88,99.77c-4.68-.04-5.36,.56-6.75,4.91-.9,2.83-1.13,5.88-3.06,8.4-1.97,2.58-5.82,4.09-8.99,3.21-1.01-.28-1.45-.97-.76-1.67,3.11-3.22,2.77-7.68,4.22-11.48,3.59-9.43,13.51-12.39,21.6-7.16,.52,.34,1.12,.71,1.05,1.37-.07,.73-.83,.79-1.4,.94-2.01,.52-4.03,1.01-5.91,1.48Z"/>
  <path class="cls-5" d="M231.82,90.21c-.23,1.28-.63,2.55-.67,3.84-.11,3.64-1.92,5.45-5.49,6.13-5.33,1.01-10.52,2.65-15.71,4.25-2.71,.84-2.9,.61-2.89-2.28,0-1.56,.07-3.12,.1-4.68,.22-.82,.45-1.65,.67-2.47,0,0,0,.02,0,.02,7.24-1.98,14.48-3.96,21.72-5.94,.95-.02,1.59,.59,2.27,1.13Z"/>
  <path class="cls-5" d="M151.85,110.5c.68-.11,1.38-.18,2.04-.36,.72-.19,1.47-1.09,2.13-.42,.69,.71-.01,1.59-.34,2.37-.66,1.58-1.56,2.77-3.37,3.32-2.31,.71-2.55,2.31-.65,3.74,1.23,.92,3.3,1.8,2.86,3.23-.44,1.42-2.74,.94-4.25,1.27-3.91,.87-7.79,.63-11.63-.25-1.88-.43-4.27-.64-4.84-2.9-.62-2.47,1.31-4.15,3.03-5.37,5.86-4.16,12.57-6.32,20.21-8.15-1.77,1.94-3.58,2.05-5.18,2.61-1.86,.68-3.82,1.18-5.57,2.08-3.11,1.58-6.56,2.73-8.33,6.21-.28,.55-.77,.8-.27,1.48,1.31,1.79,6.34,2.75,8.39,1.52-1.08-.74-2.31-.71-3.48-.85-1.2-.15-2.75,.09-3.11-1.3-.38-1.46,1.17-2.13,2.1-2.97,.31-.28,.8-.34,1.13-.59,2.78-2.07,6.27-2.73,9.12-4.65Z"/>
  <path class="cls-5" d="M193.11,99.59c.02,2.43,.04,4.86,.06,7.28,0,1.08,.03,2.09-1.54,2.08-6.26-.02-12.34,1.36-18.43,2.56-4.49,.89-4.49,.94-3.23-3.49,.44-1.57,.87-2.98,2.74-3.27,3.67-1.02,7.33-2.05,11-3.07,1.28,.43,1.84-1.31,3.07-1.02,2.2,.12,4.1-1.44,6.33-1.09Z"/>
  <path class="cls-3" d="M212.93,109.02c0,.37,.02,.75,.02,1.12-.9,.3-1.78,.7-2.7,.89-.85,.17-1.45,.31-1.44,1.4,0,1.13,.52,1.56,1.55,1.6,.3,.17,.56,.11,.77-.15,.64,.07,.83,.38,.51,.97-.85,1.7-1.7,3.39-2.55,5.09-.33,.4-.65,.79-1.29,1.57-.21-4.76-.56-9.14-.53-13.51,.01-2.22,2.34-1.7,3.66-2.01,1.77-.42,.95,1.11,.96,1.9,.01,.74,.25,1.16,1.04,1.13Z"/>
  <path class="cls-7" d="M226.42,104.87c-4.25,1.09-8.27,3.09-12.78,3.16-.45-2.14,.52-3.12,2.59-3.55,2.46-.51,4.86-1.28,7.28-1.95,2.91-.81,3.07-.68,2.91,2.34Z"/>
  <path class="cls-5" d="M231.82,90.21c-.68-.53-1.31-1.15-2.27-1.13-.18-1.43-1.25-.7-1.79-.58-3.19,.73-6.33,1.67-9.52,2.4-3.47,.79-6.69,2.73-10.43,2.28,.69-1.46,2.27-1.27,3.4-1.54,6.65-1.57,13.17-3.58,19.7-5.56,.47-.14,1-.13,2.42-.29-2.58,1.43-.23,3.19-1.52,4.42Z"/>
  <path class="cls-7" d="M188.92,112.69c-1.11,2.33-3.38,2.31-5.42,2.54-1.52,.17-3.06,.19-4.56,.56q-.7-3.29,2.45-3.76c1.86-.29,3.71-.61,5.57-.91,1.23-.2,2.05,.12,1.95,1.57Z"/>
  <path class="cls-14" d="M151.85,110.5c-2.85,1.92-6.35,2.58-9.12,4.65-.34,.25-.83,.32-1.13,.59-.93,.84-2.48,1.51-2.1,2.97,.36,1.39,1.91,1.15,3.11,1.3,1.17,.14,2.4,.11,3.48,.85-2.05,1.23-7.08,.27-8.39-1.52-.49-.68-.01-.92,.27-1.48,1.77-3.47,5.22-4.63,8.33-6.21,1.76-.89,3.71-1.4,5.57-2.08,0,.3-.01,.61-.02,.91Z"/>
  <path class="cls-5" d="M186.77,100.68c-1.23-.29-1.79,1.45-3.07,1.02,.05-.85-.28-1.02-1.1-.78-3.46,1.01-6.93,1.95-10.4,2.92-.82-1.39,.55-1.43,1.16-1.61,6.09-1.77,12.2-3.46,18.31-5.16,.8-.22,1.64-.45,1.4,.93-.91,.21-1.95,.21-2.71,.68-1.17,.73-3.22-.08-3.59,2.01Z"/>
  <path class="cls-14" d="M207.82,93.18c3.74,.46,6.96-1.48,10.43-2.28,3.19-.73,6.33-1.67,9.52-2.4,.54-.12,1.61-.85,1.79,.58-7.24,1.98-14.48,3.96-21.72,5.94,0-.61,0-1.23-.01-1.84Z"/>
  <path class="cls-14" d="M172.21,103.84c3.47-.97,6.94-1.91,10.4-2.92,.82-.24,1.15-.07,1.1,.78-3.66,1.02-7.33,2.05-10.99,3.07-.17-.31-.34-.62-.5-.93Z"/>
  <path class="cls-13" d="M193.7,113.72c.02-.17,.04-.35,.07-.52,1.39-.84,1.28,.16,1.4,1.07,.13,.97-.62,2.41,1.2,2.62,.56,1.17,.41,2.41,.35,3.64-.62,.34-1.25,.63-1.99,.51,.02-.17,.04-.35,.06-.52,.07-.04,.19-.08,.19-.11,0-.13-.05-.25-.07-.38-.36-1.03-1.13-1.98-.62-3.18,.42-1.16,1.09-2.36-.58-3.13Z"/>
  <path class="cls-13" d="M208.84,123.68c-.14,2.08-.27,4.16-.41,6.24-.82,.21-.55,1.12-1.13,1.99v-8.8c.5,.19,1.02,.38,1.55,.57Z"/>
  <path class="cls-11" d="M209.1,119.93c.85-1.7,1.7-3.39,2.55-5.09,0,0-.05,.02-.05,.02,.41,.16,.83,.32,1.24,.48-.71,1.71-.84,3.64-2.02,5.17-.57-.19-1.14-.38-1.72-.57Z"/>
  <path class="cls-14" d="M186.77,100.68c.38-2.09,2.42-1.29,3.59-2.01,.75-.47,1.79-.47,2.71-.68,.01,.53,.02,1.07,.04,1.6-2.23-.35-4.14,1.21-6.33,1.09Z"/>
  <path class="cls-13" d="M208.41,138.8c-1.15-.1,.05,2.38-1.74,1.58,.02-.7,.04-1.4,.06-2.1,.98-.11-.36-2.73,1.74-1.61-.02,.71-.04,1.42-.06,2.12Z"/>
  <path class="cls-14" d="M227.17,109.92c-.69-1.58,.18-3.03,.35-4.54,.79,.21,.37,1.25,1.05,1.53,0,1.23,.05,2.46-1.4,3.02Z"/>
  <path class="cls-14" d="M207.84,95c-.22,.82-.45,1.65-.67,2.47,.07-.87-.43-1.89,.67-2.47Z"/>
  <path class="cls-16" d="M83.99,84.84c.57-.17,1.05-.05,1.39,.46-.58,.19-1.1,.21-1.39-.46Z"/>
  <path class="cls-11" d="M210.42,121.08c-.07,.4-.01,.86-.5,1.07-.97-.89-.28-1,.5-1.07Z"/>
  <polygon class="cls-2" points="157.22 107.33 157.16 107.18 157.32 107.21 157.22 107.33"/>
  <path class="cls-16" d="M86.06,85.41c.28,.17,.56,.35,.85,.52-.28-.17-.56-.35-.85-.52Z"/>
  <path class="cls-16" d="M77.19,82.39c-.9,.86-1.18,0-1.56-.56,.52,.19,1.04,.37,1.56,.56Z"/>
  <path class="cls-5" d="M303.92,65.68c4.42-.81,8.65-2.33,12.98-3.48,8.65-2.37,17.3-4.75,25.95-7.1,2.07-.56,4.17-1.04,6.26-1.56,.24,.62,1.35,.79,1.03,1.63-.38,1-1.32,.46-2.04,.5-.42-.73-1-.42-1.59-.27-4,1.04-8.03,2-12.02,3.1-11.66,3.22-23.31,6.48-34.93,9.81-.78,.22-2.29-.13-2.23,1.52-1.52-.57-2.98-.17-4.46,.24-2.71,.76-5.45,1.46-8.17,2.18-.04-1.35,.97-1.35,1.91-1.61,5.78-1.62,11.55-3.31,17.32-4.97Z"/>
  <path class="cls-14" d="M297.33,69.83c-.06-1.65,1.45-1.3,2.23-1.52,11.63-3.33,23.28-6.59,34.93-9.81,3.99-1.1,8.01-2.06,12.02-3.1,.59-.15,1.17-.46,1.59,.27-2.35,1.58-5.16,1.84-7.77,2.59-12.87,3.7-25.78,7.25-38.68,10.82-1.32,.37-2.7,.53-4.05,.79-.08-.07-.17-.09-.28-.05Z"/>
  <path class="cls-8" d="M297.33,69.83c.1-.03,.19-.02,.28,.05-4.09,1.63-8.36,2.6-12.63,3.57-.09-.4-.19-.8-.28-1.2,2.73-.72,5.46-1.42,8.17-2.18,1.48-.42,2.94-.81,4.46-.24Z"/>
  <path class="cls-13" d="M313.17,76.12c-1.01,2.54-3.44,1.48-5.22,2.07,0,0-.01-.01-.01-.01,.35-.34,.7-.67,1.04-1.01,.4-.11,.8-.21,1.2-.32,.59,.3,1.12,.32,1.45-.38,.45-.37,.99-.39,1.53-.35Z"/>
  <path class="cls-12" d="M283.98,77.67c-.83-.88-.83-1.76,0-2.64,.35,.88,.21,1.76,0,2.64Z"/>
  <path class="cls-16" d="M308.99,77.17c-.35,.34-.7,.67-1.04,1.01-.97,.02-1.94,.04-2.91,.06,1.32-.35,2.64-.71,3.95-1.06Z"/>
  <path class="cls-16" d="M311.64,76.47c-.33,.7-.86,.68-1.45,.38,.38-.51,.91-.48,1.45-.38Z"/>
  <path class="cls-16" d="M298.07,80.1c-.22,.55-.49,.91-1.05,.31,.28-.35,.62-.49,1.05-.31Z"/>
  <path class="cls-5" d="M256.24,81.77c.83,3-1.13,4.71-3.04,6.4-1.18,1.05-1.9,2.2-1.55,3.83,.07,.13,.04,.23-.09,.3-1.74,0-3.47,0-5.21,0,.31-3.37,1.42-6.42,3.61-9.04l6.28-1.49Z"/>
  <path class="cls-3" d="M250.69,93.42c-1.11,.12-2.35-.61-3.32,.5-.55,.06-1.19,.32-1.53-.34-.28-.55,.44-.82,.52-1.29,1.74,0,3.47,0,5.21,0-.02,.58-.45,.85-.87,1.13Z"/>
  <path class="cls-12" d="M264.05,166.76c-1.72,1.59-3.82,.55-5.73,.79-1.11,.14-2.25,0-3.38-.02,3.04-.26,6.08-.51,9.12-.77Z"/>
  <path class="cls-12" d="M280.22,158.14c.09,.65-.27,.95-.86,1.06,.13-.48,.3-.93,.86-1.06Z"/>
  <path class="cls-12" d="M271.94,164.8c-.23,.56-.69,.66-1.22,.6,.29-.43,.69-.64,1.22-.6Z"/>
  <path class="cls-12" d="M267.22,166.08c-.24,.12-.47,.24-.71,.36,.24-.12,.47-.24,.71-.36Z"/>
  <path class="cls-12" d="M282.84,81.93c-1.25-2.01-1.22-7.9,.05-9.49-.02,3.16-.03,6.32-.05,9.49Z"/>
  <path class="cls-12" d="M283.82,93.84c.07,1.06,.09,2.11-.71,2.96-.38-.7-.98-.87-1.71-.69,.11-1.77,.09-3.57,1.42-4.99,.43,.87-.62,2.28,1,2.71Z"/>
  <path class="cls-14" d="M295.89,84.42c.01-.67,.02-1.35,.03-2.02,.47-.53,.9-.48,1.01,.22,.14,.82,.25,1.76-1.04,1.8Z"/>
  <path class="cls-11" d="M246.36,92.29c-.08,.47-.8,.74-.52,1.29,.34,.66,.98,.4,1.53,.34,.59,1.15-.32,1.49-1.05,1.92-1.74,1.02-2.95,2.43-3.42,4.43-.37-.07-.75-.13-1.12-.2,1.87-5.79,3.76-11.57,5.6-17.37,.51-1.61,1.82-2.69,2.55-4.15,.19-.39,.93-.87,1.26-.77,3.69,1.07,6.8-1.34,10.25-1.64,.22,1.4-.84,1.82-1.77,2.34-2.58,.63-5.16,1.26-7.74,1.89-.76,.19-1.56,.32-1.75,1.28-.07,.54-.14,1.07-.22,1.61-2.18,2.62-3.3,5.67-3.61,9.04Z"/>
  <path class="cls-14" d="M249.96,83.25c.07-.54,.14-1.07,.22-1.61,3.31,.12,6.18-1.88,9.45-1.96-.28,2.09-2.61,.82-3.39,2.09-2.09,.5-4.18,.99-6.28,1.49Z"/>
  <path class="cls-5" d="M259.63,79.68c-3.27,.08-6.14,2.09-9.45,1.96,.19-.96,.99-1.09,1.75-1.28,2.58-.63,5.16-1.26,7.74-1.89,.29,.41,.37,.82-.04,1.21Z"/>
  <path class="cls-14" d="M241.78,100.07c.37,.07,.75,.13,1.12,.2-.18,.66-.35,1.33-.53,1.99-.14,.52-.29,1.05-.43,1.57-.44-.01-.88-.02-1.32-.03,.44-1.23,.24-2.65,1.16-3.73Z"/>
  <path class="cls-14" d="M241.22,107.64c.07-.23,.15-.47,.22-.7-.07,.23-.15,.47-.22,.7Z"/>
  <path class="cls-11" d="M281.4,96.11c.73-.18,1.33,0,1.71,.69,0,0-.08,.21-.08,.21-.52-.03-1.04-.06-1.57-.1-.02-.27-.04-.54-.06-.81Z"/>
  <path class="cls-10" d="M190.5,119.95c.27-.41,.67-.49,1.13-.43,0,.17-.05,.32-.16,.46-.32,0-.65-.02-.97-.03Z"/>
  <path class="cls-10" d="M256.25,98.23c-.12-.21-.23-.43-.35-.64,.12,.21,.23,.43,.35,.64Z"/>
  <path class="cls-13" d="M211.6,114.86s.05-.02,.05-.02c.32-.58,.12-.89-.51-.96-.26,.05-.51,.1-.77,.15-1.03-.04-1.54-.48-1.55-1.6,0-1.08,.59-1.23,1.44-1.4,.92-.18,1.8-.58,2.7-.89,3.6-.56,7.04-1.75,10.54-2.7,.7-.19,1.76-1.03,2.06,.21,.22,.88,.12,2.05-1.33,2.41-3.36,.84-6.72,1.73-10,2.82-.97,.32-3.04-.36-2.63,1.97Z"/>
  <path class="cls-10" d="M210.37,114.03c.26-.05,.51-.1,.77-.15-.21,.27-.47,.32-.77,.15Z"/>
  <path class="cls-12" d="M193.7,113.72c1.66,.77,1,1.97,.58,3.13-.67-.95-.76-2.02-.58-3.13Z"/>
  <path class="cls-12" d="M194.9,120.02c.03,.13,.07,.25,.07,.38,0,.04-.12,.08-.19,.11,.04-.16,.07-.33,.11-.49Z"/>
</svg>