<?xml version="1.0" encoding="UTF-8"?>
<svg id="Layer_1" data-name="Layer 1" xmlns="http://www.w3.org/2000/svg" viewBox="0 0 414 200">
  <defs>
    <style>
      .cls-1 {
        fill: #f7b7d3;
      }

      .cls-2 {
        fill: #00bcf2;
      }

      .cls-3 {
        fill: #fff9b8;
      }

      .cls-4 {
        fill: #fbb040;
      }

      .cls-5 {
        fill: #fdfdfc;
      }

      .cls-6 {
        fill: #9ed2f1;
      }

      .cls-7 {
        fill: #b9ac97;
      }

      .cls-8 {
        fill: #c4bfbd;
      }

      .cls-9 {
        fill: #413d37;
      }

      .cls-10 {
        fill: #727171;
      }

      .cls-11 {
        fill: #545150;
      }

      .cls-12 {
        fill: #4c4743;
      }

      .cls-13 {
        fill: #716a5d;
      }

      .cls-14 {
        fill: #fff200;
        stroke: #fff200;
        stroke-miterlimit: 10;
      }

      .cls-15 {
        font-size: 12px;
      }

      .cls-15, .cls-16 {
        fill: #231f20;
        font-family: MyriadPro-Regular, 'Myriad Pro';
      }

      .cls-16 {
        font-size: 10px;
      }
    </style>
  </defs>
  <path class="cls-12" d="M309.42,86.42c-6.16,1.24-12.31,2.56-18.5,3.68-1.92,.35-2.69,.78-1.88,3.08,.73,2.09,1.09,4.4,.84,6.66-.24,2.13,.42,3.83,1.65,5.35,3.72,4.55,4.97,9.99,4.93,15.86,0,1.28,.11,2.31,.87,3.39,4.2,5.98,5.15,12.58,2.89,19.65-.58,1.81-1.38,3.49-3.05,4.63-.98,.67-1.77,1.75-2.02,3.22-.74,4.24-2.36,8.08-4.46,11.78-2.68,4.72-6.24,8.15-11.38,8.7-3.4,.36-5.97,2.53-9.05,3.52-4.98,1.61-9.92,2.23-14.87,.39-2.56-.95-4.64,.48-6.85,.97-6.04,1.34-11.91,1.42-17.65-1.3-1.36-.64-2.57-.17-3.84,.35-6.15,2.55-12.42,2.98-18.79,1.09-1.49-.44-2.85-.49-4.43,.08-7.07,2.56-14.24,2.69-21.33,.1-1.5-.55-2.69-.38-4.11,.08-7.39,2.4-14.78,3.09-21.99-.72-1.43-.75-2.6,.02-3.81,.38-7.1,2.1-14.19,3.04-21.33,.26-1.82-.71-3.28,.64-4.83,1.12-6.77,2.1-13.44,2.91-20.1-.34-1.06-.52-2.11-.41-3.25,.09-5.08,2.22-10.39,2.31-15.75,1.66-.19-.02-.44,.01-.55-.1-2.87-2.93-5.93-1.36-9.03-.57-1.43,.36-2.94,1.48-5.15-.06,3.21-.89,5.85-1.63,8.87-2.47-1.55-1.68-3.22-2.52-4.24-4.14-.72-1.15-1.71-.2-2.61-.11-1.63,.16-1.65-.56-.68-1.68,5.35-.78,10.14-3.21,15.81-5.9-2.19-.62-3.5-1.1-4.84-1.36-3.86-.75-7.74-.21-11.61,.02-.29-.8-.21-1.64,.72-1.49,4.55,.73,8.2-1.92,12.1-3.6,3.84-1.65,7.66-1.12,10.95,1.09,3.08,2.06,5.58,1.87,8.29-.29,.27-.22,.71-.21,1.07-.31,.02,1,.06,1.98,1.41,1.75,1.84-.24,3.94-.29,5.28,.8,3.42,2.78,6.1,.39,9.35-.65-1.85-1.05-3.37-1.9-4.88-2.76,.11-.13,.21-.25,.32-.38,.43-.02,.86-.04,1.29-.06,3.08,.96,5.59,3.63,9.29,2.88,1.55-.31,2.92-.38,4.31-1.47,4.08-3.19,8.39-3.33,12.41-.13,2.14,1.7,3.61,.97,5.35-.31,4.37-3.23,9.04-3.97,14.1-2.08,1.23,.46,2.1,1.36,3.19,1.96-.36,.28-.72,.56-1.07,.84-5.37-3.32-11.15-3.23-14.9,.56,2.77-.14,5.36,.1,7.44,1.26,2.75,1.53,5.17,1.01,7.78,.21,.24,.26,.49,.52,.73,.78-3.59,1.61-7.18,3.19-10.75,4.84-.73,.33-1.95,.4-1.82,1.54,.1,.93,1.17,1.32,1.97,1.6,3.65,1.31,7.33,.91,11.01,.06,6.34-1.47,12.31-4.18,18.42-6.42,.28,.28,.56,.57,.84,.85-3.47,1.49-6.94,2.98-10.42,4.47,.06,.31,.13,.61,.19,.92,13.03,4.27,24.23-2.56,36.22-7.46-1.19-.53-1.94-.87-2.7-1.2-.38-1.5,.89-2.39,1.16-3.65,.64,.74,1.23,1.55,1.93,2.21,1.02,.96,1.85,.9,2.29-.68,.67-2.39,1.55-4.73,2.05-7.16,1.93-9.48,2.98-19.1,4.13-28.72,.35-2.94-.37-6.2,1.65-8.8,.33,0,.65,0,.98,.01,.24,3.06-1.36,6.05-.34,9.19,1.81-7.2,3.24-14.46,5.23-21.56,.3,.41,.61,.83,.91,1.24-.4,5.75-2.74,11.01-3.65,16.62-1.34,8.24-3.39,16.3-5.17,24.43-.27,1.26-.97,2.79,.15,3.78,1.59,1.41,2.66,3.22,3.84,5.22,1.14-3.14,2.49-5.88,3.12-8.79,2.21-10.23,5.2-20.24,7.14-30.55,1.06-5.65,1.42-11.53,3.8-16.86,.37,0,.74,0,1.11,0,.71,1.26,1.73,.48,2.54,.33,4.76-.86,9.51-1.82,14.26-2.78,4.45-.9,4.45-.93,3.29-5.56,.37-.04,.73-.09,1.09-.13,1.41,4.91,4.41,8.53,8.37,11.15,3.14,2.08,6.31,4.1,9.3,6.44,.82,.64,1.59,1.89,2.69,1.24,1.22-.71,.85-2.27,.48-3.3-1.5-4.17-3.66-7.93-6.49-11.23-2.07-2.41-3.98-4.94-4.08-8.46,.3,0,.6,0,.9,.01-.04,1.48,.82,2.52,1.54,3.63,.65,2.14,1.96,2.76,3.98,2.21,2.03-.55,4.12-.87,6.18-1.26,8.07-1.51,16.15-3.01,24.23-4.51,0,.37,0,.74,0,1.12Zm-35.7,37.77c.14-.51,.1-.98-.31-1.36-.05-1.23-.16-2.46-.15-3.68,.04-3.87-1-4.93-4.71-5-2.31-.04-4.51-.55-6.56-1.83-4.63-2.87-8.22-6.8-10.8-11.81-.67-1.3-1.27-2.54-3.01-2.13-1.86,.44-3.74,.78-5.62,1.13-.88,.16-1.69,.31-1.91,1.48-.4,2.16-1.22,4.22-1.7,6.33-2.06,9.1-3.09,18.45-5.96,27.36-2.04,6.32-2.29,13.23-5.55,19.17-.51,.93-1.71,2.19-.77,3.32,1.04,1.24,2.68,.61,4.06,.51,.53-.04,1.02-.53,1.54-.79,4.4-2.22,8.89-2.52,13.22-.04,1.61,.92,3.14,1.33,4.86,1.31,.17,.38,.35,.76,.52,1.13-8.38,.26-14.34,6.34-21.99,9.94,11.81,4.36,21.6,.84,29.66-7.53,.98-.33,1.96-.69,2.67,.54-3.43,2.58-6.85,5.16-10.47,7.88,1.43,1.03,2.69,1.35,4.03,1.45,5.27,.41,9.83-1.53,14.01-4.83,2.66-2.1,4.82-4.5,5.43-8.18,.13-.81,.59-1.68,0-2.3-.51-.53-1.21,.06-1.81,.29-2.37,.93-4.74,1.83-7.11,2.74-.02-.47-.05-.94-.07-1.4,.53-.56,.35-1.62,1.2-1.95,1.27-.31,1.67-1.13,1.68-2.55,.02-2.32,1.04-4.13,3.18-4.94,1.6-.61,3.22-1.41,4.87-1.57,1.8-.17,1.63-1.09,1.04-2.13-2.06-3.63-1.74-7,.38-10.49,1.95-3.21,1.83-3.29-1.45-5.14,.05-.53,.09-1.06,.14-1.59,1.09-.14,1.46,1.67,2.69,1.17,.39-9.43,.35-9.55-4.42-10.76v4.6c-.1,.65-.19,1.31-.79,1.68v-.02Zm.89,44.11c-.74-.03-1.47-.05-2.21-.08-.29-.07-.57-.13-.86-.2-.95-.29-2.27-.29-2.33,.73-.07,1.24,1.31,1.34,2.32,1.41,2.79,1.39,5.66,1.61,8.62,.69,6.01-1.86,12.67-10.6,13.27-17.26,.13-1.4-.46-1.32-1.27-1.08-2.71,.81-4.91,2.23-5.93,5.33-1.94,5.92-6.02,9.2-11.63,10.45Zm11.37-58.98c-1.05-1.11,.06-1.97,.49-2.57,2.96-4.12,2.3-8.6,1.36-13.14-.34-1.62-1.22-2.71-2.81-2.19-2.13,.7-4.46,.51-6.66,1.69,.51,.87,.89,1.7,1.42,2.39,2.8,3.67,5.29,7.48,4.92,12.57-.08,1.03,1.19,.47,1.24,1.29-1.14,1.67-.44,3.12,.81,4.06,1.11,.84,1.6,1.97,2.12,3.14,1.41,3.18,1.73,6.45,.58,9.82-.5,1.47,0,2.88,1.03,3.54,1,.64,1.74-.83,2.3-1.54,.84-1.06,1.61-2.38,1.9-3.72,1.57-7.27-.45-14.44-5.52-19.66-.78,1.69-1.23,3.66-3.19,4.32Zm-11.74,54.18c-.69,.92-1.39,1.85-2.2,2.93,1.98,.82,3.63,.18,5.29-.39,2.29-1.87,5-3.14,6.56-6,3.12-5.73,2.72-11.47,.5-17.37-.54-1.43-1.06-1.31-2.04-.63-2.47,1.7-3.66,4.46-4.24,7.22-1.03,4.85-2.1,9.65-3.87,14.26Zm-72.95,6.02c5.26,3.23,10.38,3.29,15.62,2.27,6.62-1.3,12.55-4.52,18.49-7.69,.7-.37,1.86-.66,1.78-1.68-.07-.96-1.16-1.28-1.93-1.64-5.11-2.43-10.23-1.85-15.24,.25-6.17,2.58-11.94,6.18-18.72,8.51Zm87.51-46.65c.1-2.27-.18-4.23-1.2-5.88-4.14-6.73-10.56-10.5-16.68-14.64-1.4-.95-1.94-.41-2.11,1.26-.54,5.19,2.45,10.43,7.55,13.2,3.39,1.84,6.5,4.12,9.1,7.15,.74,.86,1.4,2.37,2.67,1.73,1.02-.51,.54-2.02,.66-2.81Zm-205.79,47c3.74,2.48,7.45,3.25,11.42,2.61,5.61-.9,10.87-2.93,15.86-5.79,1.43-.82,4.21-.96,3.87-2.72-.31-1.6-3.06-1.46-4.84-1.67-9.57-1.12-17.65,3.67-26.31,7.57Zm78.2-6.17c-12.01-5.35-21.49,.81-31.77,6.07,11.98,4.6,21.48-1.39,31.77-6.07Zm-54.14,6.37c7.4,5.04,20.85-.23,29.51-6.02-11.2-5.25-20.08,1.02-29.51,6.02Zm181-21.61c.35-.29,.53-.39,.65-.54,2.75-3.7,3.68-7.87,2.36-12.41-1.59-5.45-5.26-9.34-9.06-13.06-.33-.32-1.47-.78-1.51,.44-.14,3.68-.39,7.57,1.3,10.81,2.45,4.7,3.99,9.79,6.26,14.76Zm.28,3.99c12.15-3.15,15.21-16.93,7.76-26.46-.47,.8-.94,1.56-1.38,2.34-2.12,3.8-2.25,4.01-1.41,8.39,.93,4.92-1.11,8.69-3.76,12.28-.76,1.02-1.83,1.89-1.21,3.46Zm-19.33-40.06c-1.08-4.32-2.25-8.06-5.6-11.39-3.22-3.2-5.78-4.89-10.03-3.55-1.57,.5-1.93,.82-1.06,2.36,1.99,3.52,4.47,6.67,7.39,9.19,2.59,2.24,5.58,4.27,9.29,3.38Zm-167.57,60.09c5.2,7.29,16.65,8.85,27.12,3.8-.23-1.21-1.62-.92-2.08-1.86-1.39-2.8-3.49-2.33-5.84-1.65-4.43,1.27-8.92,1.34-13.15-.77-2.15-1.07-3.99-1.02-6.05,.48Zm52.63,2.95c-1.19-.96-2.02-1.3-2.33-1.94-1.44-2.95-3.45-2.73-5.96-1.8-3.26,1.2-6.7,1.48-10.15,1.1-2.46-.27-4.91-.7-7.09-2.06-.92-.58-1.85-.38-2.33,.31-.69,.99,.35,1.7,.98,2.09,2.19,1.34,4.01,3.24,6.63,3.96,6.64,1.83,12.99,.67,20.25-1.65Zm49.67,.51c-1.55-1.04-3.05-1.64-4.02-2.77-1.85-2.17-3.76-1.9-6.17-1.36-5.97,1.36-12.03,2.52-17.77-1.19-.7-.45-1.57-.71-2.4-.09,5.05,5.96,19.23,10.34,30.36,5.41Zm-25.68-.24c-1.17-.6-2.58-.95-3.47-1.86-2.44-2.49-5-2.43-8.12-1.73-4.21,.95-8.52,.97-12.35-1.95-.69-.53-1.71-1.35-2.53-.29-.93,1.2,.55,1.67,.94,2.47,.21,.43,.62,.78,1,1.08,7.63,6.01,15.9,5.75,24.53,2.28Zm-74.98,1.1c-1.8-2.28-3.39-4.18-6.75-3.31-4.83,1.25-9.65,.7-13.93-2.39-1.07-.77-2.03-.18-3,.03-1.12,.24-1.04,.96-.32,1.72,6.56,6.95,14.86,7.97,24.01,3.95Zm148.2-2.28c-2.35-.18-3.05-3.55-6.11-2.8-5.77,1.41-11.55,.95-17.19-1.11-.57-.21-1.14-.87-1.73-.03,4.6,6.47,16.64,8.22,25.03,3.93Zm-51.21-2.86c7.06,6.23,19.74,7.41,27.35,2.79-1.66-2.73-3.6-3.36-6.71-2.3-5.87,2-11.94,2.61-17.85-.27-.89-.43-1.82-.42-2.79-.22Zm50.31,.36c5.59,5.32,17.57,5.09,23.24,.4-1.23-.35-2.48-.53-3.57-1.06-1.58-.76-3.11-1.78-4.84-.8-4.58,2.61-9.36,2.95-14.82,1.46Zm-152.85-10.23c-4.91-3.53-11.37-3.35-14.19,.22,4.68,1.06,9.49,3.81,14.19-.22Zm123.06-12.37c-1.23,2.96-1.47,6.14-2.24,9.15-.1,.4,.05,1.05,.41,.95,1.89-.55,4.08-.78,5.51-2.01,1.08-.92,.46-3.33-.46-4.52-.92-1.19-1.6-2.76-3.22-3.57Zm-75.59,11.44c-4.56-3.3-9.58-3.61-11.34,.16,3.72,3.37,7.42,1.89,11.34-.16Zm100.45-2.42c-5.67-2.55-8.05-2.52-12.2,.03,2.26,.53,3.89,2.91,5.87,2.88,1.95-.04,3.88-1.7,6.33-2.91Zm32.82-14.26c1.59-1.06,1.95-3.1,3.58-3.67,1.61-.57,1.27-1.84,.47-2.56-1.34-1.2-1.48-3.01-2.5-4.56-2.62,3.28-2.13,6.91-1.55,10.8Zm-8.96,9.39c.08,.69-.26,1.76,1,1.97,2.53,.41,6.23-3.45,5.84-6.08-.07-.45-.18-.69-.63-.84-1.84-.59-6.01,2.61-6.21,4.95Zm-1.24-52.32c.02-1.17-4.41-5.77-5.43-5.64-.86,.11-1.61,.43-.81,1.54,1.33,1.83,2.42,3.8,4.48,5.02,1.5,.88,1.58,.21,1.76-.91Zm-44.8,30.56c1.11-1.32,1.2-2.99,1.12-4.67-.02-.36-.62-.64-.93-.36-1.17,1.09-.34,2.71-.82,4-.16,.43,.04,.78,.63,1.03Z"/>
  <path class="cls-9" d="M187.47,164.88c-.28-.28-.56-.57-.84-.85-.46-.77-1.26-.76-1.96-.99-5.57-1.81-11.21-1.27-16.86-.63-.24-.26-.49-.52-.73-.78,.53-.79-.1-1.37-.33-2.02,.36-.28,.71-.56,1.07-.84,.12-.11,.24-.23,.39-.37,.03-.39,.05-.79,.08-1.18,0-1.39,.44-2.64,1.14-3.79,.33-.8-.29-2.21,1.24-2.24,1.28-1.02,2.43-2.4,3.87-2.97,1.76-.69,1.7-1.87,1.16-3.08-2.03-4.54-2.66-9.51-3.91-14.28,.7-2.42,.98-4.87,.53-7.38,.13-.11,.26-.22,.38-.33,.09,.29,.17,.58,.26,.87,.06,.41,.11,.81,.17,1.22,.51,2.4,.85,4.86,1.57,7.18,2.38,7.66,2.79,15.6,3.2,23.55,.05,1.04-.69,2.54,.6,3,1.26,.45,2.67-.05,3.73-1.02,1.06-.97,1.48-2.34,1.76-3.78,.77-4.03-.17-7.98-.53-11.94-.87-9.47-3.48-18.61-4.63-28.03,.05-.07,.16-.16,.15-.19-.05-.14-.15-.27-.23-.4-.01-.41-.02-.82-.03-1.24,.45-.05,.9-.1,1.35-.16,2.6-1.09,5.18-2.28,7.82-3.24,1.9-.69,2.74-1.87,2.38-4,.56,0,1.12,0,1.68,.01,.66,5.51,.37,11.06,.52,16.59,.16,3.91-.51,7.86,.42,11.74,0,1.03,.01,2.06,.02,3.09-3.57-.12-1.74,2.76-2.13,4.42-.22,2.1-.47,4.2-.65,6.3-.06,.66-.18,1.54,.82,1.57,.96,.03,.9-.81,.95-1.51,.05-.91,.1-1.81,.15-2.72,.28,.19,.56,.39,.84,.58-.05,3.14-.31,6.36,2.63,8.45,1.24-2.14,1.87-4.44,2.21-6.96,1.26-9.29,.91-18.62,.99-27.95-.05-1.61-.09-3.21-.14-4.82-.06-3.15-.12-6.29-.18-9.44,.05-.07,.15-.15,.14-.19-.05-.14-.14-.26-.22-.39,.08-.84-.89-2.33,1.08-1.98-.25,1.76-.08,2.34,2,1.91,3.18-.67,4.03-2.54,3.77-5.58-.06-.43-.35-.49-.68-.49l-.02-.02c-.02-.74,1.26-.62,.86-1.71-1.76,.31-3.54,.62-5.33,.94-.03-.36-.06-.73-.08-1.09h0c.19,0,.35-.07,.49-.2,1.1-.23,2.2-.46,3.3-.69,1.02-.21,1.53-.74,.99-1.89,.24-.24,.48-.48,.72-.72,2.14,1.27,2.09-1.34,3.12-2.03l.63,.77c-.91,2.53-2.32,4.99-2.66,7.61-1.36,10.56-2.24,21.18-1.96,31.87,.25,9.12,1.82,18.15,1.53,27.3-.02,.72-.14,1.53,.93,1.43,1.02-.1,2.12-.15,2.54-1.41,1.42-4.22,2.54-8.48,2.38-13.07-.27-7.79-.48-15.59-.48-23.38,0-8.62-.37-17.33,2.77-25.58,.54,.28,.59,.84,.67,1.38-.49,1.89-.3,2.84,1.93,2.2,4.18-1.21,8.4-2.27,12.63-3.22,1.85-.41,2.57-1.46,2.53-3.35-.01-.29-.03-.58-.04-.87,.54-.63,1.22-1.43-.31-1.36-1.38,.06-2.75,.44-4.13,.68-.03-.33-.05-.67-.08-1,0,0,0,0,0,0,.78,0,1.61,.28,2.28-.41,2.69-.56,4.69-1.88,6.36-4.48,3.28-5.1,10.88-6.54,16.23-3.56,.16,.31,.32,.62,.48,.93-.14,.18-.28,.35-.42,.53-7.3-3.75-14.42-.61-17.81,7.26-1.85,4.31-2.27,8.96-3.75,13.31-.3-.41-.61-.83-.91-1.24-3.72-.42-3.76-.38-4.23,3.68-.33-.4-.65-.8-.98-1.2-.17-.62,.22-1.48-.7-1.79-2.95-1.01-6.51,1.82-6.77,5.2-.47,6.09-1.1,12.17-1.66,18.25-.04,.21-.08,.42-.12,.63-.24,3.97-.2,8-.8,11.91-.84,5.46-.14,11.26-2.89,16.3-.56,1.02-.11,1.72,.21,2.53-.27,1.26-1.55,2.15-1.16,3.65-3.36-1.29-6.81-1.33-10.29-.82-4.53,.66-8.77,2.36-13.01,4.09Zm2.91-51.3c-.1-.06-.2-.06-.3,0,.09-.97,.18-1.93,.32-3.34-3.02,1.33-5.69,2.53-8.38,3.68-1.06,.45-1.43,1.19-1.24,2.38,.33,2.06,.61,4.13,.94,6.41,1.46-1.46,.67-3.09,.94-4.51,.25-1.31-.57-2.94,1-3.85,.49,1.41,.26,2.86,.12,4.27-.74,7.58-.54,15.07,.73,22.62,.94,5.56,2.26,11.34-.59,16.84-.4,.77,.2,1.07,.78,1.24,2.29,.66,3.09-.68,3.38-2.84,1.28-9.33,1.91-18.72,2.15-28.14,.84-4.92,.62-9.84,.14-14.77Zm-.27,38.03c-.65,2.64-.58,5.42-1.57,8.01-.64,1.68,.09,2.3,1.86,1.97,5.24-.98,6.08-2.78,3.43-7.79-.18-.35-.45-.65-.67-.97-1.58-2.46-1.59-2.46-3.05-1.22Zm24.57-25.34c.48-6.34,.99-12.68,1.42-19.03,.06-.84,.9-2.25-.71-2.45-1.53-.19-1.78,1.01-1.9,2.39-.66,7.59-.16,15.2-.35,22.8-.03,1.2,0,2.39,0,3.59,.18-.01,.35-.02,.53-.03,.21-1.31,.41-2.63,.62-3.94,.83-1.02,.47-2.19,.39-3.33Zm-45.65,33.77c.15,1.24,.78,1.14,1.56,.65,1.72-1.32,4.58,1.15,5.71-1.87,.88-2.35,.45-4.84,.17-7.28-.01-.1-.04-.2-.04-.3-.03-2.37-1.03-2.39-2.43-1.09-2.81,2.62-4.55,5.89-4.97,9.91Zm29.45-9.94c1.54-1.44,2.32-2.84,3.63-3.09,2.24-.42,2.29-1.84,2.06-3.78-1.05-8.98-1-18-.69-27.03,.13-3.65,.48-7.28,.74-10.91-4.87,.61-4.9,.64-4.57,5.54,.03,.51,.03,1.02,.05,1.54,.38,12.39,.63,24.77-1.22,37.73Zm6.4,3.31c-.03-.6-.17-1.93-.17-3.26,0-2.41-1.06-2.13-2.48-1.27-1.92,1.17-4.57,7.2-4.23,9.69,.07,.51,.11,1.13,.72,1.07,1.89-.19,3.95-.05,5.59-.85,1.12-.55,.46-2.63,.56-4.04,.01-.2,0-.41,0-1.34Zm25.88-54.65c.12-.78-.59-.67-1.28-.49-4.8,1.24-9.6,2.48-14.39,3.76-.49,.13-1.27,.31-1.02,1.14,.23,.81,.95,.51,1.46,.36,4.4-1.32,8.94-1.82,13.42-2.67,1.01-.19,1.54-.64,1.81-2.1Zm-44.1,62.72c-1.66-.66-3.31-1.32-5.1-.78,1.68,.42,3.2,1.84,5.1,.78Z"/>
  <path class="cls-12" d="M191.94,104.95c-.56,0-1.12,0-1.68-.01-.68-1.33,.95-3.42-1.21-4.27-.2-.19-.4-.38-.59-.57,.53-.17,1.43,.35,1.4-1.09-2.24,.54-4.58,.22-6.62,1.59,0,0,.02-.02,.02-.02-.19,.01-.37,.02-.56,.04-.66,.33-.55,1.02-.64,1.62-3.01,2.88-3.28,5.16-.92,7.78,.68,.75-.24,.81-.43,.85-.74,.19-.92,.59-.64,1.31-.45,.05-.9,.1-1.35,.16-.15-1.73-.48-3.47-.42-5.19,.19-5.55,2.43-8.12,7.54-8.95,.81-.13,2.03,.21,2.26-.82,.25-1.16-.67-2.06-1.55-2.71-2.67-1.97-5.51-2.84-8.57-1.15-3.76,2.08-6.42,5.13-6.68,9.92-.15,2.76-.07,5.53-.1,8.3-.59-.02-1.19-.03-1.78-.05-.04-2.17-.08-4.34-.12-6.5q-.44-1.42-1.8-1.29c.26,.3,.56,.66,.86,1.02-.57,.12-1.15,.24-1.72,.37-.49-1.09-1.29-1.86-2.37-1.32-.96,.48,.09,1.14,.2,1.73-.43,.12-.85,.23-1.28,.35-.06-.7-.41-1.19-1.06-1-.79,.23-.15,.74-.06,1.13-.32,.13-.64,.27-.96,.4-.71-.48-1.1-1.74-2.16-1.34-.57,.21-.3,1.02-.29,1.58-2.06,4.99-1.73,5.58,3.12,5.42,.09,0,.18,.03,.28,.04,.04,.37,.08,.74,.12,1.11-1.23,.25-2.19,.67-1.59,2.37,.33,.94,.57,1.92,.85,2.88,0,.83-.39,1.27-1.16,1.31-.48-.98-.69-2.05-1.21-3.06-1.53-2.98-1.31-2.94-3.63-.42-2.88,3.13-6.39,4.27-10.43,3.04-1-.3-1.97-.67-3.43-1.17,1.28,2.88-.03,3.53-2.07,3.79-4.14,.52-8.21,.17-12.16-1.17-3.8-1.29-4.43-4.52-1.49-7.5,2.11-2.14,4.88-3.07,7.59-4.32-5.67-7.36-11.04-14.85-15.96-22.74-3.47-5.56-6.93-11.12-10.45-16.64-4.2-6.59-7.74-13.62-12.14-20.06-.41-.61-1.15-1.29-.58-2.17,.4-.62,1.06-.06,1.6-.11,.28,.65,.54,1.31,.85,1.93,3.99,8,8.86,15.42,13.48,22.99,4.03,6.59,8.05,13.22,12.54,19.51,2.82,3.95,5.51,8.03,8.39,11.93,1.41,1.91,2.6,4.82,5.48,4.58,2.32-.2,4.59-1.04,7.05-1.63-4.71-5.07-8.47-10.66-12.41-16.08-3.67-5.04-7.03-10.35-10.29-15.7-4.62-7.57-9.02-15.3-13.55-22.94-1.62-2.73-3.35-5.4-5.03-8.09,.43-1.29,1.01-1.43,1.73-.24,1.18,1.94,2.38,3.87,3.53,5.83,4.44,7.55,8.79,15.18,13.34,22.66,3.3,5.42,6.65,10.83,10.36,15.93,4.16,5.71,7.84,11.87,12.9,16.81,2.19,2.14,4.49,1.66,5.63-1.38,1.08-2.9,2.48-5.31,5.27-6.87,4.04-2.26,8.28-1.87,11.35,3.63,.91,1.63,1.67,2.03,3.09,1.03,1.52-.15,1.3-1.53,1.59-2.56,2.46-7.21,13.25-11.17,18.6-2.36,1.13-3.34,2.69-6.38,5.95-7.4,2.99-.94,6.04-.68,8.67,1.51,.33,.57,.66,1.13,.99,1.7-.24,.24-.48,.48-.72,.72-2.46-2.7-6.2-3.71-9.08-2.34-3.12,1.48-3.56,4.55-3.71,7.68-.1,2.23,.02,4.48,.05,6.72Zm-47.63,3.23c-2.75,.33-5.48,.73-8.1,1.77-3.32,.66-6.29,2.24-9.1,4.14-2.2,1.49-2.43,3.85-.46,4.82,4.43,2.18,9.06,2.65,13.9,1.39-.2-.49-.28-.79-.43-1.04q-2.58-4.37,2.26-5.31c4.19-.81,5.37-2.32,5.01-6.39-1.03,.21-2.06,.41-3.08,.62Zm-2.89,7.52c6.33,5.95,14.89,1.19,14.94-5.58,0-1.12,.35-2.23,.5-3.34,.24-1.82,1.03-3,2.86-3.28,1.6-.24,3.18-.68,4.77-1.01,.73-.15,1.31-.32,.91-1.38-1.48-3.92-6.21-5.39-9.67-3.18-3.04,1.94-4.67,4.91-5.23,8.4-.87,5.42-3.66,8.5-9.07,9.38Z"/>
  <path class="cls-4" d="M102.38,43.89c1.68,2.7,3.41,5.36,5.03,8.09,4.53,7.64,8.93,15.37,13.55,22.94,3.27,5.35,6.63,10.66,10.29,15.7,3.94,5.42,7.7,11.01,12.41,16.08-2.47,.6-4.74,1.44-7.05,1.63-2.88,.25-4.06-2.66-5.48-4.58-2.88-3.9-5.58-7.99-8.39-11.93-4.49-6.29-8.51-12.92-12.54-19.51-4.62-7.56-9.49-14.99-13.48-22.99-.31-.63-.57-1.29-.85-1.93,1.57-2.46,4.02-3.04,6.51-3.51Z"/>
  <path class="cls-3" d="M309.41,85.31c-8.08,1.5-16.15,3-24.23,4.51-2.07,.39-4.15,.71-6.18,1.26-2.03,.55-3.33-.07-3.98-2.21,.32-.58,.72-1.04,.86-1.8,.54-2.92,2.18-4.09,5.04-3.56,1.02,.19,2.02,.46,3.05,.38,1.29-.1,2.45-.44,2.53-2.18,4.91-.92,9.81-1.85,14.72-2.77,.24-.06,.48-.12,.72-.18,8.98-1.77,17.97-3.53,26.95-5.3,1.99,1.47,2.95-1.49,4.65-1.25,2.12,.21,4.11-.43,6.11-1.03,.17,.73,.26,1.54,1.21,1.59,.03,2.1,.05,4.19,.08,6.29-2.19-.03-4.29,.59-6.39,1.14-5.92,1.2-11.84,2.39-17.76,3.59-2.5,.26-4.99,.6-7.38,1.51Z"/>
  <path class="cls-9" d="M273.48,85.24c-.3,0-.6,0-.9-.01-.12-.98-.13-1.94,.44-2.79,4.16-1.92,5.52-5.75,6.04-10.17,1.29-5.31,1.19-10.75,1.29-16.17,.05-2.79-1.85-1.83-2.99-1.83-2.37,0-2.56-1.17-1.26-2.7,1.82-2.15,2.77-4.82,4.23-7.17,.46-.74,.68-1.89,1.76-1.71,.97,.16,1.14,1.26,1.53,2.06,1.29,2.7,1.82,5.79,3.71,8.19,.52,.66,.35,1.29-.62,1.49-.87,.18-1.69,.13-2.53-.09-1.03-.87-1.07-.06-1.1,.75,.14,4.28,.3,8.57-.54,12.8-2.41,.95-.68,3.22-1.3,4.74,0,0-.05,.21-.05,.21-.75,1.31-1.07,2.74-1.11,4.26-.42,.32-.53,.78-.49,1.3-.11,.4-.21,.81-.32,1.21-1.37,2.55-3.45,4.24-5.8,5.62Z"/>
  <path class="cls-3" d="M273.48,85.24c2.35-1.37,4.44-3.07,5.8-5.62,.28,0,.56,0,.84,0-.07,.67,0,1.24,.84,1.04,1.46-.34,2.91-.69,4.36-1.04,6.18-1.16,12.37-2.29,18.54-3.5,11.79-2.3,23.58-4.65,35.36-6.98,1.66,.63,2,1.94,1.63,3.63-.94-.06-1.04-.86-1.21-1.59-2.27-1.25-4.25-.52-6.11,1.03-1.7-.24-2.66,2.72-4.65,1.25,.08-1.13-.41-1-1.23-.84-7.96,1.59-15.92,3.11-23.89,4.67-.8,.16-1.82,.12-1.84,1.46-.24,.06-.48,.12-.72,.18-2.03-1.32-4.05-.41-6.04,.07-3.79,.9-7.75,1.04-11.73,2.5,1.27,1.05,2.15-.11,3.05,.2-.09,1.74-1.24,2.09-2.53,2.18-1.03,.08-2.03-.19-3.05-.38-2.85-.53-4.5,.64-5.04,3.56-.14,.77-.54,1.22-.86,1.8-.72-1.11-1.58-2.15-1.54-3.63Z"/>
  <path class="cls-11" d="M339.23,69.15c-11.79,2.33-23.57,4.67-35.36,6.98-6.17,1.21-12.36,2.34-18.54,3.5,0-.37,.02-.74,.02-1.11,6.81-1.41,13.62-2.85,20.44-4.23,11.01-2.23,22.02-4.42,33.03-6.62,.77-.15,1.89-.93,2.13,.43,.2,1.17-1.12,.71-1.72,1.05Z"/>
  <path class="cls-9" d="M262.32,89.39c-.37,.04-.73,.09-1.1,.13-.45-.05-.94-.26-1.34-.13-6.21,1.92-12.41,3.88-18.62,5.84-.64-.24-.43-.74-.34-1.22,1.01-5.28,3.62-7.59,9.53-8.64,.9-.16,2.71,.67,2.4-1.68,.23-.27,.45-.54,.68-.81,.19,0,.3,.11,.36,.3,.23,1.1,.95,1.29,1.85,1.18,2.42-.11,4.36-1.02,5.31-3.63,.09-.3,.17-.59,.26-.89,.24-.61,.48-1.21,.72-1.82,.21,.41,.41,.81,.62,1.22-1.21,3.34-1.5,6.72-.32,10.15Zm-15.91-1.66c-1.06,.26-1.05,.95-.62,1.81-1.13,.38-2.55,.35-2.66,2.64,5.44-1.49,10.74-2.93,15.9-4.91,.71-.27,1.18-.78,.91-1.63-.47-1.46-1.4-.4-2.15-.4-3.79,.83-7.59,1.66-11.38,2.48Z"/>
  <path class="cls-9" d="M169.4,111.67c.59,.02,1.19,.03,1.78,.05,.51,3.8,1.01,7.61,1.52,11.41-.13,.11-.25,.22-.38,.33-.37-1.04-.75-2.09-1.12-3.13-.13-1.36-.94-1.45-1.79-.93-2.76,1.69-5.94,2.42-8.54,4.44-3.23,.41-5.72,3-8.92,3.54-1.3,.22-2.57,.68-3.85,1.01-.77,.2-1.74,.92-2.06-.53-.33-1.47,.82-1.69,1.72-1.87,4.39-.86,8.41-2.87,12.49-4.68,3.15-1.49,6.3-3.01,9.47-4.44,.78-.35,.93-.84,.88-1.62-.06-.85-.25-1.6-1.07-1.95-.83-.36-.95,.26-1.05,.89-.29,.07-.59,.15-.88,.22l.03-.1c-.16-.24-.32-.47-.49-.71-1.33-.72-3.39,1.07-4.2-1.41,2.16-.18,4.32-.35,6.48-.53Z"/>
  <path class="cls-6" d="M73.28,163.8c3.87-.23,7.75-.76,11.61-.02,1.34,.26,2.65,.73,4.84,1.36-5.67,2.69-10.45,5.12-15.81,5.9-1.58-2.27-.5-4.82-.64-7.24Z"/>
  <path class="cls-9" d="M252.75,82.6c-.16-.31-.32-.62-.48-.93-.19-2.76-1.93-4.65-3.11-6.91-1.97-3.76-4.28-7.21-6.81-10.52-3.06-4-6.74-7.11-11.79-8.9,2.07-1.07,3.46-.06,4.71,.7,1.8,1.1,3.67,2.28,5.1,3.86,5.1,5.64,9.4,11.93,12.61,19.07,.59,1.32,.03,2.6,.54,3.79-.25-.06-.51-.11-.76-.17Z"/>
  <path class="cls-12" d="M214.87,97.05c-.08-.54-.13-1.1-.67-1.38,.67-2.56,2.15-3.89,4.72-4.03,1.7-.09,3.37-.65,5.39-1.07-2.89-3.06-5.45-5.09-9.24-3.65-2.29,.87-4.37,1.92-5.92,3.99l-.63-.77c0-.21-.02-.41-.02-.62,4.54-5.45,12.37-6.29,16.84,0,.6,.84,1.36,.52,2.08,.61,.02,.33,.05,.67,.07,1-3.07,.69-6.13,1.4-9.2,2.07-1,.22-1.01,.17-1.81,1.37-.18,.31-.36,.62-.54,.93l-1.05,1.56Z"/>
  <path class="cls-9" d="M171.18,98.72c-.29,1.03-.08,2.42-1.59,2.56-1.13-2.86-.78-5.85-.75-8.84,.06-5.12,2.09-9.42,4.45-13.62,.88-1.57,2.26-2.29,4.03-2.65-.05,.46,0,.89-.12,.97-5.48,3.4-5.96,9.35-6.49,15.14-.19,2.09-.94,4.41,.47,6.44Z"/>
  <path class="cls-12" d="M170.67,151.18c-1.54,.03-.91,1.44-1.24,2.24-2.38-8.38-5.84-16.39-7.46-25.03,.08-.52,.09-1.01-.45-1.28,0,0,0-.01,0-.01,.29-.79-.67-1.98,.42-2.39,.83-.31,.69,1.02,1.2,1.4,.52,6.29,3.54,11.82,4.77,17.91,.51,2.54,1.34,5.01,2.78,7.17Z"/>
  <path class="cls-6" d="M117.57,158.35c1.51,.85,3.02,1.71,4.88,2.76-3.25,1.04-5.93,3.43-9.35,.65-1.34-1.09-3.45-1.04-5.28-.8,.07-2.4,2.18-2,3.38-2.86l2.42-.1c.36-.4,.72-.43,1.08,0,.96,.12,1.92,.24,2.88,.36Z"/>
  <path class="cls-9" d="M211.92,63.61c-2.78,7.53-3.52,15.45-3.9,23.44-.04,.81-.15,1.62-.23,2.43-1.21,.06-1.07-1.14-1.49-1.82,.25-8.75,1.76-17.21,5.05-25.26,.51,.23,.54,.73,.57,1.22Z"/>
  <path class="cls-12" d="M316.79,83.8c5.92-1.2,11.84-2.39,17.76-3.59,1.14,.41,2.49-.6,3.51,.61-5.35,1.09-10.7,2.26-16.07,3.24-1.71,.31-3.21,1.86-5.11,1.04-.03-.43-.06-.87-.09-1.3Z"/>
  <path class="cls-9" d="M204.59,89.38c-3.43-6.91-8.63-11.52-15.59-13.87,7.36,1,12.41,5.52,16.13,12.11,.09,.38,.14,.78,.28,1.14,.52,1.41,.15,1.46-.81,.63Z"/>
  <path class="cls-12" d="M262.94,76.56c3.25-4.85,8.2-6.27,14.86-4.26,.04,.55,.19,1.13-.47,1.41-5.37-2.17-9.84-.43-13.75,3.69-.21-.28-.43-.56-.64-.84Z"/>
  <path class="cls-12" d="M285.35,78.52c0,.37-.02,.74-.02,1.11-1.45,.35-2.91,.7-4.36,1.04-.84,.2-.91-.37-.84-1.04,.33-.39,.84-.77,.05-1.22l-.02,.03c.61,.3,1.07,.21,1.04-.62-.02-.72-.37-1.04-1.05-.66l-.07-.05c.04-1.52,.36-2.95,1.11-4.26-.56,3.54,2.24,4.24,4.16,5.67Z"/>
  <path class="cls-9" d="M211.92,63.61c-.03-.49-.06-.99-.57-1.22,.92-2.36,2.87-3.72,4.72-5.27-1.58,2.04-2.13,4.77-4.14,6.49Z"/>
  <path class="cls-12" d="M132.1,130.16c-.6-.15-1.84,.29-1.92-1.23-.07-1.25,.72-1.43,1.71-1.32,.89,.11,2.01-.28,2.12,1.26,.1,1.34-.74,1.43-1.91,1.29Z"/>
  <path class="cls-11" d="M316.79,83.8c.03,.43,.06,.87,.09,1.3-2.49,.44-4.98,.88-7.46,1.32,0-.37,0-.74,0-1.12,2.39-.91,4.88-1.25,7.38-1.51Z"/>
  <path class="cls-11" d="M111.19,158.09c-1.2,.86-3.31,.46-3.38,2.86-1.34,.23-1.39-.75-1.41-1.75,.98-.99,2.11-1.63,3.45-1.84,.29,.58,.84,.59,1.34,.73Z"/>
  <path class="cls-13" d="M338.06,80.82c-1.02-1.21-2.37-.2-3.51-.61,2.1-.55,4.2-1.17,6.39-1.14,.1,2.6-1.84,1.33-2.88,1.75Z"/>
  <path class="cls-12" d="M281.24,72.63c.62-1.52-1.11-3.78,1.3-4.74-.07,1.69,.2,3.5-1.3,4.74Z"/>
  <path class="cls-12" d="M111.19,158.09c-.49-.14-1.05-.15-1.34-.73,1.06-.72,2.26-.75,3.43-.6,.8,.1,.71,.67,.32,1.23-.81,.03-1.61,.06-2.42,.1Z"/>
  <path class="cls-10" d="M255.74,84.36c-.89,.11-1.62-.08-1.85-1.18,.62,.39,1.23,.79,1.85,1.18Z"/>
  <path class="cls-12" d="M117.57,158.35c-.96-.12-1.92-.24-2.88-.36-.11-1.69,.77-1.27,1.63-.88,.4,.05,.79,.11,1.18,.16,.15-.07,.27-.04,.38,.09,0,.2,0,.41,0,.61-.1,.13-.21,.25-.32,.38Z"/>
  <path class="cls-12" d="M261.3,79.84c-.09,.3-.17,.59-.26,.89-.78-.59,.23-.57,.26-.89Z"/>
  <path class="cls-12" d="M283.08,55.09c.03-.82,.06-1.62,1.1-.75-.37,.25-.73,.5-1.1,.75Z"/>
  <path class="cls-12" d="M229.68,89.71c-.67,.7-1.5,.42-2.28,.41,.76-.14,1.52-.28,2.28-.41Z"/>
  <path class="cls-9" d="M262.02,78.02l.71-1.08c.23,.23,.47,.45,.7,.68-.26,.54-.53,1.08-.79,1.62-.21-.41-.41-.81-.62-1.22Z"/>
  <path class="cls-11" d="M117.89,157.97c0-.2,0-.41,0-.61,.53-.1,.93,.17,1.3,.54-.43,.02-.86,.04-1.29,.06Z"/>
  <path class="cls-8" d="M161.51,127.11c.54,.27,.53,.76,.45,1.28-.4-.33-.55-.75-.45-1.28Z"/>
  <path class="cls-9" d="M252.75,82.6c.25,.06,.51,.11,.76,.17,0,0,.02,.11,.02,.11-.23,.27-.45,.54-.68,.81-.18-.18-.35-.37-.53-.55,.14-.18,.28-.35,.42-.53Z"/>
  <path class="cls-9" d="M262.94,76.56c.21,.28,.43,.56,.64,.84,0,0-.15,.22-.15,.22-.23-.23-.47-.45-.7-.68-.03-.2,.04-.33,.22-.38Z"/>
  <path class="cls-11" d="M117.5,157.27c-.39-.05-.79-.11-1.18-.16,.45-.44,.83-.25,1.18,.16Z"/>
  <path class="cls-12" d="M168.29,157.21c-.03,.39-.05,.79-.08,1.18-.33-.42-.19-.81,.08-1.18Z"/>
  <path class="cls-4" d="M252.33,83.13c.18,.18,.35,.37,.53,.55,.31,2.35-1.5,1.52-2.4,1.68-5.91,1.05-8.52,3.35-9.53,8.64-.09,.49-.31,.98,.34,1.22l-.03-.11c-1.24,.32-1.05,1.48-1.22,2.42-2.38,5.32-2.74,11.21-3.8,16.86-1.94,10.31-4.93,20.32-7.14,30.55-.63,2.92-1.98,5.65-3.12,8.79-1.18-1.99-2.25-3.81-3.84-5.22-1.12-.99-.43-2.52-.15-3.78,1.78-8.13,3.83-16.19,5.17-24.43,.91-5.61,3.25-10.87,3.65-16.62,1.48-4.36,1.9-9,3.75-13.31,3.38-7.87,10.51-11.01,17.81-7.26Z"/>
  <path class="cls-4" d="M263.43,77.62s.15-.22,.15-.22c3.91-4.12,8.38-5.86,13.75-3.69-1.02,3.14-2.92,5.78-4.31,8.72-.57,.86-.56,1.81-.44,2.8,.1,3.52,2.01,6.05,4.08,8.46,2.83,3.3,4.99,7.07,6.49,11.23,.37,1.03,.74,2.58-.48,3.3-1.1,.65-1.87-.6-2.69-1.24-2.99-2.34-6.15-4.36-9.3-6.44-3.95-2.62-6.96-6.23-8.37-11.15-1.18-3.43-.89-6.8,.32-10.15,.27-.54,.53-1.08,.79-1.62Z"/>
  <path class="cls-4" d="M211.94,157.96c-.32-.82-.77-1.51-.21-2.53,2.75-5.04,2.05-10.85,2.89-16.3,.6-3.91,.56-7.94,.8-11.91,.04-.21,.08-.42,.12-.63,.56-6.08,1.19-12.16,1.66-18.25,.26-3.38,3.82-6.22,6.77-5.2,.92,.32,.52,1.17,.7,1.79-.19,3.29-1.02,6.54-.66,9.88-2.02,2.6-1.3,5.86-1.65,8.8-1.16,9.61-2.2,19.24-4.13,28.72-.5,2.43-1.38,4.77-2.05,7.16-.44,1.58-1.28,1.64-2.29,.68-.7-.66-1.29-1.47-1.93-2.21Z"/>
  <path class="cls-6" d="M201.3,169.52c6.78-2.32,12.55-5.92,18.72-8.51,5.02-2.1,10.14-2.67,15.24-.25,.76,.36,1.86,.68,1.93,1.64,.07,1.02-1.09,1.31-1.78,1.68-5.94,3.17-11.87,6.4-18.49,7.69-5.24,1.03-10.36,.96-15.62-2.27Z"/>
  <path class="cls-6" d="M187.47,164.88c4.24-1.73,8.48-3.43,13.01-4.09,3.48-.51,6.93-.47,10.29,.82,.75,.33,1.5,.67,2.7,1.2-11.99,4.9-23.2,11.73-36.22,7.46-.06-.31-.13-.61-.19-.92,3.47-1.49,6.94-2.98,10.42-4.47Z"/>
  <path class="cls-6" d="M288.8,122.87c-.13,.79,.35,2.31-.66,2.81-1.27,.63-1.94-.88-2.67-1.73-2.6-3.03-5.71-5.31-9.1-7.15-5.09-2.76-8.08-8.01-7.55-13.2,.17-1.66,.71-2.2,2.11-1.26,6.12,4.14,12.54,7.91,16.68,14.64,1.02,1.66,1.29,3.61,1.2,5.88Z"/>
  <path class="cls-6" d="M258.54,161.69c-8.06,8.37-17.84,11.88-29.66,7.53,7.66-3.61,13.61-9.68,21.99-9.94,2.54,.88,5.35,.73,7.67,2.42Z"/>
  <path class="cls-6" d="M83.01,169.87c8.66-3.89,16.74-8.69,26.31-7.57,1.77,.21,4.53,.07,4.84,1.67,.34,1.76-2.44,1.9-3.87,2.72-4.99,2.86-10.25,4.89-15.86,5.79-3.97,.64-7.68-.13-11.42-2.61Z"/>
  <path class="cls-2" d="M274.24,163.5c1.76-4.6,2.84-9.4,3.87-14.26,.58-2.76,1.77-5.52,4.24-7.22,.98-.67,1.5-.8,2.04,.63,2.22,5.9,2.62,11.64-.5,17.37-1.56,2.86-4.27,4.13-6.56,6-2.08,.63-2.09-1.65-3.08-2.54Z"/>
  <path class="cls-6" d="M167.81,162.4c5.65-.64,11.29-1.18,16.86,.63,.7,.23,1.5,.22,1.96,.99-6.11,2.24-12.08,4.94-18.42,6.42-3.68,.86-7.36,1.25-11.01-.06-.8-.29-1.86-.67-1.97-1.6-.13-1.14,1.1-1.21,1.82-1.54,3.57-1.64,7.17-3.23,10.75-4.84Z"/>
  <path class="cls-6" d="M161.21,163.7c-10.29,4.68-19.79,10.67-31.77,6.07,10.29-5.26,19.76-11.42,31.77-6.07Z"/>
  <path class="cls-1" d="M265.29,159.29c2.37-.91,4.75-1.81,7.11-2.74,.6-.24,1.3-.83,1.81-.29,.6,.62,.13,1.5,0,2.3-.6,3.68-2.76,6.08-5.43,8.18-4.18,3.3-8.74,5.23-14.01,4.83-1.34-.1-2.6-.42-4.03-1.45,3.62-2.72,7.04-5.3,10.47-7.88,1.36-.98,2.71-1.96,4.07-2.94Z"/>
  <path class="cls-6" d="M107.07,170.07c9.43-5.01,18.31-11.27,29.51-6.02-8.65,5.79-22.11,11.06-29.51,6.02Z"/>
  <path class="cls-2" d="M288.07,148.46c-2.27-4.97-3.81-10.06-6.26-14.76-1.69-3.24-1.44-7.13-1.3-10.81,.05-1.22,1.18-.76,1.51-.44,3.8,3.71,7.47,7.61,9.06,13.06,1.32,4.53,.39,8.71-2.36,12.41-.11,.15-.29,.25-.65,.54Z"/>
  <path class="cls-2" d="M288.34,152.45c-.62-1.57,.45-2.43,1.21-3.46,2.66-3.59,4.7-7.36,3.76-12.28-.83-4.38-.71-4.59,1.41-8.39,.44-.78,.91-1.54,1.38-2.34,7.45,9.53,4.38,23.31-7.76,26.46Z"/>
  <path class="cls-4" d="M269.01,112.39c-3.71,.89-6.71-1.14-9.29-3.38-2.93-2.53-5.41-5.67-7.39-9.19-.87-1.54-.5-1.87,1.06-2.36,4.24-1.34,6.8,.34,10.03,3.55,3.35,3.33,4.52,7.07,5.6,11.39Z"/>
  <path class="cls-6" d="M101.44,172.48c2.06-1.5,3.9-1.55,6.05-.48,4.24,2.11,8.72,2.04,13.15,.77,2.35-.67,4.45-1.15,5.84,1.65,.47,.94,1.85,.65,2.08,1.86-10.47,5.04-21.93,3.48-27.12-3.8Z"/>
  <path class="cls-6" d="M285.98,109.32c1.95-.66,2.4-2.63,3.19-4.32,5.06,5.21,7.09,12.39,5.52,19.66-.29,1.34-1.06,2.66-1.9,3.72-.56,.71-1.3,2.18-2.3,1.54-1.03-.66-1.53-2.07-1.03-3.54,1.15-3.36,.83-6.64-.58-9.82-.52-1.17-1.01-2.3-2.12-3.14-1.25-.95-1.94-2.39-.81-4.06l.04-.05Z"/>
  <path class="cls-2" d="M271.55,168.02c.29,.07,.57,.13,.85,.2,.72,.34,1.47,.24,2.21,.08,5.61-1.26,9.68-4.53,11.63-10.45,1.02-3.1,3.21-4.51,5.93-5.33,.82-.25,1.4-.33,1.27,1.08-.6,6.66-7.26,15.4-13.27,17.26-2.96,.92-5.83,.7-8.62-.69,0-.72,0-1.43,0-2.15Z"/>
  <path class="cls-6" d="M154.07,175.43c-7.26,2.33-13.6,3.49-20.25,1.65-2.62-.72-4.44-2.62-6.63-3.96-.63-.38-1.66-1.09-.98-2.09,.48-.69,1.41-.88,2.33-.31,2.18,1.37,4.63,1.79,7.09,2.06,3.44,.38,6.88,.11,10.15-1.1,2.51-.93,4.52-1.15,5.96,1.8,.31,.64,1.15,.98,2.33,1.94Z"/>
  <path class="cls-6" d="M203.74,175.94c-11.14,4.93-25.31,.55-30.36-5.41,.83-.63,1.7-.36,2.4,.09,5.74,3.71,11.8,2.55,17.77,1.19,2.41-.55,4.32-.81,6.17,1.36,.97,1.13,2.47,1.74,4.02,2.77Z"/>
  <path class="cls-6" d="M178.06,175.7c-8.63,3.46-16.9,3.73-24.53-2.28-.38-.3-.79-.65-1-1.08-.39-.79-1.86-1.26-.94-2.47,.81-1.06,1.84-.24,2.53,.29,3.82,2.92,8.14,2.91,12.35,1.95,3.12-.71,5.68-.77,8.12,1.73,.9,.92,2.3,1.26,3.47,1.86Z"/>
  <path class="cls-6" d="M103.08,176.8c-9.15,4.02-17.45,3-24.01-3.95-.72-.76-.8-1.48,.32-1.72,.97-.21,1.93-.81,3-.03,4.29,3.09,9.1,3.64,13.93,2.39,3.37-.87,4.95,1.03,6.75,3.31Z"/>
  <path class="cls-4" d="M285.94,109.37c-.05-.83-1.32-.26-1.24-1.29,.37-5.1-2.12-8.9-4.92-12.57-.53-.69-.91-1.51-1.42-2.39,2.2-1.19,4.52-1,6.66-1.69,1.59-.52,2.47,.57,2.81,2.19,.94,4.54,1.6,9.02-1.36,13.14-.43,.6-1.54,1.47-.49,2.57,0,0-.04,.05-.04,.05Z"/>
  <path class="cls-6" d="M251.28,174.51c-8.39,4.29-20.43,2.54-25.03-3.93,.59-.85,1.17-.18,1.73,.03,5.64,2.05,11.42,2.51,17.19,1.11,3.06-.75,3.76,2.62,6.11,2.8Z"/>
  <path class="cls-3" d="M241.27,95.22c6.2-1.95,12.4-3.92,18.62-5.84,.4-.12,.89,.08,1.34,.13,1.15,4.64,1.16,4.66-3.29,5.56-4.75,.97-9.5,1.92-14.26,2.78-.81,.15-1.83,.93-2.54-.33,.13-.8,.62-1.58,.1-2.41l.03,.11Z"/>
  <path class="cls-6" d="M200.07,171.65c.97-.19,1.9-.21,2.79,.22,5.91,2.88,11.97,2.27,17.85,.27,3.11-1.06,5.05-.44,6.71,2.3-7.61,4.63-20.28,3.45-27.35-2.79Z"/>
  <path class="cls-1" d="M250.39,172.01c5.46,1.49,10.24,1.15,14.82-1.46,1.73-.99,3.26,.04,4.84,.8,1.1,.53,2.34,.71,3.57,1.06-5.67,4.69-17.64,4.92-23.24-.4Z"/>
  <path class="cls-6" d="M166.75,159.6c.23,.65,.86,1.23,.33,2.02-2.61,.8-5.03,1.33-7.78-.21-2.08-1.16-4.68-1.4-7.44-1.26,3.75-3.79,9.53-3.88,14.9-.56Z"/>
  <path class="cls-1" d="M264.26,154.84c.92-.1,2.39-1.43,2.16,1.1-.86,.32-.68,1.39-1.2,1.95-3.08,3.2-6.46,2.47-9.92,.88-.48-.22-1.28,.08-1.39-.69-.12-.84,.7-1,1.17-1.45,2.75-2.65,6.09-1.41,9.18-1.78Z"/>
  <path class="cls-11" d="M264.26,154.84c-3.09,.37-6.43-.87-9.18,1.78-.47,.45-1.29,.61-1.17,1.45,.11,.77,.91,.47,1.39,.69,3.45,1.59,6.83,2.32,9.92-.88,.02,.47,.05,.94,.07,1.4-1.36,.98-2.71,1.96-4.07,2.94-.71-1.22-1.69-.87-2.67-.54-2.31-1.69-5.13-1.54-7.67-2.42-.17-.38-.35-.76-.52-1.13,2.58-.4,3.45-3.68,6.05-4.11,2.7-.44,5.46-2.01,7.85,.8Z"/>
  <path class="cls-6" d="M97.53,161.78c-4.7,4.04-9.51,1.29-14.19,.22,2.82-3.57,9.28-3.75,14.19-.22Z"/>
  <path class="cls-14" d="M220.59,149.41c1.61,.8,2.3,2.38,3.22,3.57,.92,1.19,1.54,3.6,.46,4.52-1.43,1.23-3.62,1.46-5.51,2.01-.36,.1-.51-.55-.41-.95,.77-3.01,1-6.19,2.24-9.15Z"/>
  <path class="cls-6" d="M274.51,122.53v-4.6c4.77,1.21,4.81,1.32,4.42,10.76-1.23,.5-1.6-1.31-2.69-1.17-.83-1.56-1.34-3.25-1.73-4.99Z"/>
  <path class="cls-6" d="M145,160.85c-3.93,2.04-7.63,3.53-11.34,.16,1.76-3.76,6.78-3.45,11.34-.16Z"/>
  <path class="cls-6" d="M245.45,158.43c-2.46,1.21-4.38,2.88-6.33,2.91-1.98,.04-3.6-2.34-5.87-2.88,4.15-2.55,6.53-2.59,12.2-.03Z"/>
  <path class="cls-2" d="M278.27,144.18c-.59-3.89-1.07-7.51,1.55-10.8,1.01,1.55,1.16,3.36,2.5,4.56,.81,.72,1.15,1.99-.47,2.56-1.63,.57-1.99,2.61-3.58,3.67Z"/>
  <path class="cls-2" d="M269.3,153.57c.2-2.35,4.38-5.55,6.21-4.95,.44,.14,.56,.39,.63,.84,.38,2.64-3.31,6.5-5.84,6.08-1.26-.21-.92-1.28-1-1.97Z"/>
  <path class="cls-11" d="M225.63,106.13c-.22,2.89-.44,5.79-.66,8.68-.33,0-.65,0-.98-.01-.36-3.34,.47-6.58,.66-9.88,.33,.4,.65,.8,.98,1.2Z"/>
  <path class="cls-2" d="M274.24,163.5c.99,.89,1,3.17,3.08,2.54-1.66,.57-3.31,1.21-5.29,.39,.81-1.08,1.51-2,2.2-2.93Z"/>
  <path class="cls-11" d="M274.51,122.53c.39,1.74,.91,3.43,1.73,4.99-.05,.53-.09,1.06-.14,1.59-1.52-1.22-2.2-2.92-2.39-4.89,.6-.38,.7-1.03,.79-1.68Z"/>
  <path class="cls-2" d="M271.55,168.02c0,.72,0,1.43,0,2.15-1.02-.07-2.4-.17-2.32-1.41,.06-1.02,1.38-1.02,2.33-.73Z"/>
  <path class="cls-9" d="M241.23,95.11c.51,.83,.03,1.61-.1,2.41-.37,0-.74,0-1.11,0,.17-.94-.03-2.1,1.22-2.42Z"/>
  <path class="cls-8" d="M274.61,168.3c-.74,.16-1.49,.26-2.21-.08,.74,.03,1.47,.06,2.21,.08Z"/>
  <path class="cls-11" d="M273.72,124.19c-.44-.37-.43-.85-.31-1.36,.41,.37,.44,.84,.31,1.36Z"/>
  <path class="cls-4" d="M172.7,123.13c-.51-3.8-1.01-7.61-1.52-11.41,.03-2.77-.05-5.54,.1-8.3,.26-4.79,2.92-7.83,6.68-9.92,3.06-1.7,5.9-.82,8.57,1.15,.89,.66,1.81,1.56,1.55,2.71-.23,1.03-1.45,.69-2.26,.82-5.11,.83-7.35,3.4-7.54,8.95-.06,1.72,.27,3.46,.42,5.19,.01,.41,.02,.82,.03,1.24,.03,.2,.05,.4,.08,.6,1.15,9.42,3.76,18.56,4.63,28.03,.37,3.97,1.31,7.91,.53,11.94-.28,1.44-.69,2.81-1.76,3.78-1.07,.97-2.47,1.47-3.73,1.02-1.29-.46-.55-1.96-.6-3-.41-7.96-.81-15.9-3.2-23.55-.72-2.32-1.06-4.78-1.57-7.18-.06-.41-.11-.81-.17-1.22-.09-.29-.17-.58-.26-.87Z"/>
  <path class="cls-4" d="M209.14,90.91c1.55-2.07,3.63-3.12,5.92-3.99,3.79-1.44,6.35,.59,9.24,3.65-2.01,.42-3.69,.98-5.39,1.07-2.57,.14-4.05,1.47-4.72,4.03-3.14,8.25-2.77,16.95-2.77,25.58,0,7.79,.21,15.59,.48,23.38,.16,4.59-.96,8.85-2.38,13.07-.42,1.26-1.52,1.31-2.54,1.41-1.07,.11-.95-.71-.93-1.43,.28-9.15-1.29-18.18-1.53-27.3-.29-10.69,.59-21.31,1.96-31.87,.34-2.62,1.74-5.08,2.66-7.61Z"/>
  <path class="cls-4" d="M191.94,104.95c-.02-2.24-.15-4.48-.05-6.72,.15-3.13,.59-6.21,3.71-7.68,2.88-1.37,6.62-.36,9.08,2.34,.54,1.16,.03,1.68-.99,1.89-1.1,.23-2.2,.46-3.3,.69-.16,.07-.33,.14-.49,.2h0c-.68,.09-1.1,.51-1.29,1.2-.78,2.04-.73,2.19,.74,2.18,.01,.89,.02,1.78,.03,2.67-1.97-.36-1,1.14-1.08,1.98-.05,.21-.03,.4,.08,.59,.06,3.15,.12,6.29,.18,9.44-.31,1.62-.32,3.23,.14,4.82-.09,9.32,.27,18.66-.99,27.95-.34,2.52-.97,4.82-2.21,6.96-2.94-2.09-2.68-5.31-2.63-8.45,.01-2.88,.02-5.76,.03-8.64,0-1.03-.01-2.06-.02-3.09,.11-3.92,.37-7.85-.42-11.74-.15-5.53,.14-11.08-.52-16.59Z"/>
  <path class="cls-4" d="M190.24,128.35c-.24,9.42-.87,18.81-2.15,28.14-.29,2.15-1.09,3.5-3.38,2.84-.59-.17-1.19-.47-.78-1.24,2.85-5.51,1.53-11.29,.59-16.84-1.27-7.55-1.48-15.04-.73-22.62,.14-1.41,.36-2.86-.12-4.27,2.15-.21,4.04-2.83,6.42-.77,.1-.06,.2-.06,.3,0-.05,4.92-.1,9.85-.14,14.77Z"/>
  <path class="cls-4" d="M163.12,126.11c-.13-1.6,.32-2.65,1.9-3.23,1.59-.59,3.03-1.21,4.3,.53,.89,2.45,1.97,4.83,2.46,7.44,1.25,4.78,1.87,9.74,3.91,14.28,.55,1.22,.6,2.39-1.16,3.08-1.43,.56-2.59,1.95-3.87,2.97-1.44-2.16-2.27-4.63-2.78-7.17-1.22-6.09-4.24-11.61-4.77-17.91Z"/>
  <path class="cls-4" d="M198.48,150.11c1.85-12.96,1.6-25.34,1.22-37.73-.02-.51-.01-1.03-.05-1.54-.33-4.9-.3-4.93,4.57-5.54-.25,3.63-.61,7.26-.74,10.91-.32,9.02-.37,18.05,.69,27.03,.23,1.94,.18,3.36-2.06,3.78-1.32,.25-2.09,1.65-3.63,3.09Z"/>
  <path class="cls-3" d="M180.06,112.18c-.27-.71-.1-1.12,.64-1.31,.18-.05,1.1-.1,.43-.85-2.36-2.62-2.09-4.9,.92-7.78,2.35-.43,4.79-.41,7-1.57,2.15,.85,.52,2.94,1.21,4.27,.37,2.13-.47,3.32-2.38,4-2.65,.96-5.22,2.15-7.82,3.24Z"/>
  <path class="cls-14" d="M169.03,160.05c.42-4.02,2.16-7.29,4.97-9.91,1.4-1.3,2.4-1.28,2.43,1.09,0,.1,.03,.2,.04,.3,.29,2.44,.71,4.93-.17,7.28-1.13,3.03-3.99,.56-5.71,1.87-.52-.22-1.04-.43-1.56-.65Z"/>
  <path class="cls-14" d="M204.89,153.42c0,.93,.01,1.14,0,1.34-.1,1.4,.56,3.49-.56,4.04-1.65,.8-3.7,.66-5.59,.85-.62,.06-.65-.55-.72-1.07-.34-2.49,2.31-8.52,4.23-9.69,1.42-.86,2.49-1.14,2.48,1.27,0,1.33,.13,2.66,.17,3.26Z"/>
  <path class="cls-3" d="M214.87,97.05c.35-.52,.7-1.04,1.05-1.56,3.26-.58,6.53-1.16,9.79-1.74,2.16,.16,4.03-1.6,6.25-1.07,.04,1.89-.68,2.94-2.53,3.35-4.24,.95-8.45,2.01-12.63,3.22-2.23,.64-2.42-.31-1.93-2.2Z"/>
  <path class="cls-14" d="M193.16,152.83c.23,.32,.49,.63,.67,.97,2.65,5.01,1.8,6.81-3.43,7.79-1.77,.33-2.5-.28-1.86-1.97,.99-2.6,.92-5.37,1.57-8.01,.4,2.19,1.92,1.13,3.05,1.21Z"/>
  <path class="cls-3" d="M230.77,98.76c-.27,1.45-.8,1.9-1.81,2.1-4.48,.85-9.02,1.34-13.42,2.67-.51,.15-1.23,.45-1.46-.36-.24-.83,.53-1.01,1.02-1.14,4.79-1.28,9.59-2.52,14.39-3.76,.69-.18,1.4-.28,1.28,.49Z"/>
  <path class="cls-3" d="M199.37,101.73c-.01-.89-.02-1.78-.03-2.67,.18-.1,.35-.2,.53-.3,1.62,.02,2.87-1.58,4.57-1.21,0,0,.02,.02,.02,.02,.23,.16,.45,.32,.68,.49,.26,3.04-.58,4.91-3.77,5.58-2.08,.44-2.25-.15-2-1.91Z"/>
  <path class="cls-11" d="M171.78,130.84c-.48-2.61-1.57-4.99-2.46-7.44-.96-2.14,.13-2.84,1.87-3.07,.37,1.04,.75,2.09,1.12,3.13,.44,2.51,.16,4.96-.54,7.38Z"/>
  <path class="cls-3" d="M216.47,94.56c.8-1.2,.81-1.15,1.81-1.37,3.07-.67,6.13-1.38,9.2-2.07,1.38-.24,2.75-.62,4.13-.68,1.53-.07,.85,.73,.31,1.36-2.19,.07-4.32,.49-6.42,1.14-3.08,.05-6,1.23-9.03,1.61Z"/>
  <path class="cls-12" d="M192.89,136.37c-.01,2.88-.02,5.76-.03,8.64-.28-.19-.56-.39-.84-.58-.63-1.13,.89-3.12-1.26-3.64,.39-1.65-1.43-4.54,2.13-4.42Z"/>
  <path class="cls-3" d="M204.44,97.55c-1.7-.37-2.95,1.23-4.57,1.21,.26-.7-.31-1.18-.41-1.79,.2,.02,.37-.05,.51-.2,1.79-.31,3.58-.63,5.33-.94,.4,1.09-.88,.97-.86,1.71Z"/>
  <path class="cls-12" d="M190.24,128.35c.05-4.92,.1-9.85,.14-14.77,.47,4.93,.7,9.86-.14,14.77Z"/>
  <path class="cls-12" d="M192.46,121.54c.78,3.89,.52,7.81,.42,11.74-.93-3.88-.25-7.82-.42-11.74Z"/>
  <path class="cls-14" d="M193.16,152.83c-1.12-.09-2.64,.97-3.05-1.21,1.46-1.25,1.47-1.24,3.05,1.21Z"/>
  <path class="cls-8" d="M186.66,161.49c-1.9,1.07-3.42-.35-5.1-.78,1.79-.55,3.44,.12,5.1,.78Z"/>
  <path class="cls-11" d="M225.49,92.95c2.1-.65,4.24-1.06,6.42-1.14,.01,.29,.03,.58,.04,.87-2.21-.54-4.09,1.23-6.25,1.07-.07-.27-.14-.54-.21-.8Z"/>
  <path class="cls-12" d="M198.69,118.56c-.45-1.59-.45-3.2-.14-4.82,.05,1.61,.09,3.22,.14,4.82Z"/>
  <path class="cls-11" d="M214.29,129.61c-.03-1.13-.11-2.27,.39-3.33,.09,1.14,.45,2.31-.39,3.33Z"/>
  <path class="cls-12" d="M199.97,96.77c-.14,.15-.31,.22-.51,.2-.29-.03-.57-.06-.86-.09,.19-.69,.61-1.11,1.29-1.2,.03,.36,.06,.73,.08,1.09Z"/>
  <path class="cls-12" d="M169.03,160.05c.52,.22,1.04,.43,1.56,.65-.77,.49-1.41,.59-1.56-.65Z"/>
  <path class="cls-11" d="M172.96,124c.06,.41,.11,.81,.17,1.22-.06-.41-.11-.81-.17-1.22Z"/>
  <path class="cls-12" d="M199.89,95.68c.16-.07,.33-.14,.49-.2-.14,.13-.31,.2-.49,.2Z"/>
  <path class="cls-7" d="M205.14,98.06c-.23-.16-.45-.32-.68-.49,.33,0,.61,.06,.68,.49Z"/>
  <path class="cls-12" d="M198.37,104.3c-.11-.18-.13-.38-.08-.59,.08,.13,.17,.25,.22,.39,.01,.04-.09,.13-.14,.19Z"/>
  <path class="cls-12" d="M178.81,114.17c-.03-.2-.05-.4-.08-.6,.08,.13,.17,.26,.23,.4,.01,.04-.1,.13-.15,.19Z"/>
  <path class="cls-11" d="M215.53,126.59c-.04,.21-.08,.42-.12,.63,.04-.21,.08-.42,.12-.63Z"/>
  <path class="cls-4" d="M141.42,115.69c5.42-.87,8.2-3.95,9.07-9.38,.56-3.49,2.19-6.46,5.23-8.4,3.46-2.21,8.18-.74,9.67,3.18,.4,1.06-.18,1.23-.91,1.38-1.59,.33-3.17,.77-4.77,1.01-1.83,.28-2.62,1.46-2.86,3.28-.15,1.12-.49,2.23-.5,3.34-.06,6.78-8.61,11.53-14.94,5.58Z"/>
  <path class="cls-3" d="M144.31,108.18c1.03-.21,2.05-.41,3.08-.62,.36,4.07-.82,5.58-5.01,6.39q-4.84,.94-2.26,5.31c.15,.25,.23,.56,.43,1.04-4.84,1.26-9.47,.78-13.9-1.39-1.97-.97-1.74-3.33,.46-4.82,2.81-1.9,5.78-3.48,9.1-4.14-.02,.32-.03,.65-.05,.97-1.58,.81-3.43,.95-4.85,2.17-1.51,.77-3.02,1.65-2.54,3.82,.34,1.51,3.16,2.18,5.56,1.5q-5.07-2.25-2.52-4.63c2.59-.92,5.18-1.85,7.78-2.77,1.61-.87,4.66,1.03,4.72-2.83Z"/>
  <path class="cls-3" d="M169.4,111.67c-2.16,.18-4.32,.35-6.48,.53,0,0-.04,.09-.04,.09-.29-.01-.57-.02-.86-.03-.09-.01-.18-.04-.28-.04-4.85,.16-5.19-.42-3.12-5.42,.82-.08,1.64-.16,2.46-.24,.32-.13,.64-.27,.96-.4,.37-.04,.75-.09,1.12-.13,.43-.12,.85-.23,1.28-.35,.78,.22,1.51,.06,2.18-.41,.57-.12,1.15-.24,1.72-.37,.31,.09,.63,.18,.94,.27,.04,2.17,.08,4.34,.12,6.5Z"/>
  <path class="cls-4" d="M162.88,112.29s.04-.09,.04-.09c.82,2.48,2.87,.7,4.2,1.41,.16,.24,.32,.47,.49,.71,0,0-.03,.1-.03,.1,.03,.55,.07,1.11,.1,1.66-2.04,1-4.06,2.05-6.28,2.54-.28-.96-.52-1.94-.85-2.88-.6-1.7,.36-2.12,1.59-2.37,.71,.01,1.08-.24,.74-1.07Z"/>
  <path class="cls-3" d="M136.16,110.92c.02-.32,.03-.65,.05-.97,2.62-1.03,5.35-1.43,8.1-1.77-.06,3.86-3.11,1.96-4.72,2.83-1.11-1.5-2.29-.13-3.43-.09Z"/>
  <path class="cls-9" d="M189.05,100.67c-2.21,1.16-4.65,1.14-7,1.57,.08-.6-.02-1.29,.64-1.62,.11,.14,.22,.28,.33,.41,.08-.15,.15-.3,.23-.45,0,0-.02,.02-.02,.02,1.78,.32,3.5-.17,5.23-.5,.2,.19,.4,.38,.59,.57Z"/>
  <path class="cls-3" d="M188.45,100.1c-1.73,.33-3.44,.82-5.23,.5,2.04-1.37,4.38-1.05,6.62-1.59,.03,1.44-.87,.93-1.4,1.09Z"/>
  <path class="cls-9" d="M166.61,105.26c-.67,.47-1.39,.63-2.18,.41-.11-.59-1.16-1.25-.2-1.73,1.08-.54,1.89,.23,2.37,1.32Z"/>
  <path class="cls-9" d="M161.08,106.56c-.82,.08-1.64,.16-2.46,.24,0-.56-.27-1.36,.29-1.58,1.06-.4,1.45,.86,2.16,1.34Z"/>
  <path class="cls-9" d="M169.28,105.17c-.31-.09-.63-.18-.94-.27-.3-.36-.6-.71-.86-1.02q1.36-.14,1.8,1.29Z"/>
  <path class="cls-9" d="M163.16,106.02c-.37,.04-.75,.09-1.12,.13-.08-.39-.73-.9,.06-1.13,.65-.19,1,.31,1.06,1Z"/>
  <path class="cls-7" d="M183.25,100.58l-.23,.45c-.11-.14-.22-.28-.33-.41,.19-.01,.37-.02,.56-.04Z"/>
  <path class="cls-9" d="M162.88,112.29c.34,.83-.03,1.09-.74,1.07-.04-.37-.08-.74-.12-1.1,.29,.01,.57,.02,.86,.03Z"/>
  <path class="cls-13" d="M301.95,78.76c.02-1.34,1.04-1.3,1.84-1.46,7.96-1.56,15.93-3.08,23.89-4.67,.82-.17,1.31-.29,1.23,.84-8.98,1.77-17.97,3.53-26.95,5.3Z"/>
  <path class="cls-13" d="M286.5,81.71c-.9-.31-1.78,.85-3.05-.2,3.98-1.46,7.93-1.6,11.73-2.5,1.99-.47,4.02-1.39,6.04-.07-4.91,.92-9.81,1.85-14.72,2.77Z"/>
  <path class="cls-13" d="M333.55,72.22c1.86-1.55,3.84-2.28,6.11-1.03-2,.6-3.99,1.24-6.11,1.03Z"/>
  <path class="cls-12" d="M279.6,78.41c-.04-.52,.07-.98,.49-1.3,0,0,.07,.05,.07,.05-.05,.43-.45,.85,0,1.28,0,0,.02-.03,.02-.03-.19,0-.39,0-.58,0Z"/>
  <path class="cls-5" d="M279.6,78.41c.19,0,.39,0,.58,0,.79,.44,.28,.83-.05,1.22-.28,0-.56,0-.84,0,.11-.4,.21-.81,.32-1.21Z"/>
  <path class="cls-3" d="M257.79,85.24c.74,0,1.68-1.06,2.15,.4,.27,.85-.2,1.35-.91,1.63-5.17,1.98-10.46,3.42-15.9,4.91,.11-2.29,1.54-2.26,2.66-2.64,1.63-.38,3.38-.23,4.87-1.25l-.04,.02c.93,.1,1.89,.33,2.6-.64,1.78-.24,4.04,.56,4.57-2.42Z"/>
  <path class="cls-3" d="M257.79,85.24c-.53,2.98-2.79,2.18-4.57,2.42-.91,0-1.89-.34-2.6,.64,0,0,.04-.02,.04-.02-1.4-.32-2.95,.71-4.25-.55,3.79-.83,7.59-1.66,11.38-2.48Z"/>
  <path class="cls-9" d="M246.41,87.72c1.29,1.26,2.85,.24,4.25,.55-1.49,1.02-3.24,.88-4.87,1.25-.43-.85-.44-1.54,.62-1.81Z"/>
  <path class="cls-12" d="M167.68,116.08c-.03-.55-.07-1.11-.1-1.66,.29-.07,.59-.15,.88-.22,.27,.88,.86,1.92-.79,1.88Z"/>
  <path class="cls-12" d="M167.61,114.32c-.16-.24-.32-.47-.49-.71,.16,.24,.32,.47,.49,.71Z"/>
  <path class="cls-9" d="M225.49,92.95c.07,.27,.14,.54,.21,.8-3.26,.58-6.53,1.16-9.79,1.74,.18-.31,.36-.62,.54-.93,3.03-.39,5.94-1.56,9.03-1.61Z"/>
  <path class="cls-9" d="M280.15,78.44c-.45-.42-.06-.85,0-1.28,.67-.38,1.03-.05,1.05,.66,.02,.83-.43,.92-1.04,.62Z"/>
  <path class="cls-9" d="M198.6,96.88c.29,.03,.57,.06,.86,.09,.1,.61,.67,1.09,.41,1.79-.18,.1-.35,.2-.53,.3-1.47,0-1.52-.14-.74-2.18Z"/>
  <path class="cls-13" d="M131.81,113.78q-2.54,2.38,2.52,4.63c-2.4,.68-5.23,0-5.56-1.5-.49-2.17,1.02-3.05,2.54-3.82,.17,.23,.34,.46,.5,.69Z"/>
  <path class="cls-13" d="M136.16,110.92c1.14-.04,2.32-1.41,3.43,.09-2.59,.92-5.18,1.85-7.78,2.77-.17-.23-.34-.46-.5-.69,1.42-1.22,3.27-1.36,4.85-2.17Z"/>
  <path class="cls-13" d="M250.62,88.3c.7-.98,1.69-.63,2.6-.64-.71,.96-1.66,.74-2.6,.64Z"/>
  <text class="cls-15" transform="translate(130.4 25.52)"><tspan x="0" y="0">mũi nửa kép chưa hoàn chỉnh </tspan></text>
  <text class="cls-16" transform="translate(202.34 53.32)"><tspan x="0" y="0">mũi thứ 1</tspan></text>
  <text/>
  <text/>
  <text class="cls-16" transform="translate(160 69.1)"><tspan x="0" y="0">mũi thứ 2</tspan></text>
</svg>