<svg width="24" height="24" viewBox="0 0 24 24" fill="none" xmlns="http://www.w3.org/2000/svg">
<g clip-path="url(#clip0_81_56)">
<path d="M12.0576 24.1309C11.3665 24.1309 10.5602 24.0157 9.98429 23.6702L3.0733 19.6387C1.92147 18.9476 1 17.4503 1 16.0681V8.12042C1 6.8534 1.92147 5.24084 3.0733 4.54974L9.98429 0.518325C11.1361 -0.172775 12.8639 -0.172775 14.0157 0.518325L20.9267 4.54974C22.0785 5.24084 23 6.73822 23 8.12042V16.0681C23 17.3351 22.0785 18.9476 20.9267 19.6387L14.0157 23.6702C13.4398 23.9005 12.7487 24.1309 12.0576 24.1309ZM12.0576 1.55497C11.5969 1.55497 11.1361 1.67016 10.7906 1.90052L3.87958 5.93194C3.0733 6.27749 2.49738 7.31414 2.49738 8.12042V16.0681C2.49738 16.8743 3.0733 17.911 3.7644 18.2565L10.6754 22.288C11.3665 22.6335 12.5183 22.6335 13.2094 22.288L20.1204 18.2565C20.8115 17.911 21.3874 16.7592 21.3874 16.0681V8.12042C21.3874 7.31414 20.8115 6.27749 20.1204 5.93194L13.2094 1.90052C12.9791 1.67016 12.5183 1.55497 12.0576 1.55497Z" fill="#B6B6B6"/>
<mask id="mask0_81_56" style="mask-type:luminance" maskUnits="userSpaceOnUse" x="5" y="4" width="15" height="17">
<path d="M13.7231 4L20 8.40486L11.2773 20.8345L5 16.4296L13.7231 4Z" fill="white"/>
</mask>
<g mask="url(#mask0_81_56)">
<mask id="mask1_81_56" style="mask-type:luminance" maskUnits="userSpaceOnUse" x="5" y="4" width="15" height="17">
<path d="M13.7231 4L20 8.40486L11.2773 20.8345L5 16.4296L13.7231 4Z" fill="white"/>
</mask>
<g mask="url(#mask1_81_56)">
<mask id="mask2_81_56" style="mask-type:luminance" maskUnits="userSpaceOnUse" x="5" y="4" width="15" height="17">
<path d="M13.7231 4L20 8.40486L11.2773 20.8345L5 16.4296L13.7231 4Z" fill="white"/>
</mask>
<g mask="url(#mask2_81_56)">
<path d="M6.46715 16.6571C6.93496 16.5108 7.43915 16.23 7.60366 16.1414C8.36251 15.7333 9.06443 15.2299 9.79363 14.7751C10.5224 14.32 11.2758 13.9151 12.0196 13.4919C13.3684 12.7252 14.7169 11.958 16.0654 11.1908C16.3964 11.0038 16.7285 10.8179 17.0655 10.6424C17.3636 10.4862 17.6665 10.3454 17.9683 10.1987C18.4701 9.95507 18.9842 9.68419 19.3598 9.26265C19.5362 9.06374 19.7193 8.80275 19.7572 8.53345C19.7735 8.41323 19.7537 8.28353 19.6568 8.20167C19.5508 8.11151 19.3903 8.09371 19.257 8.08185C18.9387 8.05377 18.6207 8.13089 18.3257 8.2424C18.1723 8.30132 18.0224 8.37053 17.8753 8.44408C17.7476 8.50814 17.5993 8.56667 17.4902 8.66118C17.4174 8.72366 17.3605 8.81303 17.4127 8.90675C17.417 8.91387 17.4237 8.91743 17.432 8.91782C17.8824 8.92138 18.3277 8.97081 18.7682 9.06611C18.5622 9.49438 18.028 9.545 17.6072 9.57386C17.1216 9.6051 16.6514 9.70594 16.1963 9.87677C15.2796 10.22 14.4642 10.7752 13.6302 11.2774C11.9318 12.3024 10.163 13.204 8.43607 14.1788C7.87137 14.4983 7.32961 14.8582 6.75306 15.1564C6.25559 15.4134 5.51373 15.6957 5.55367 16.3767C5.57898 16.8137 6.00527 16.8014 6.46715 16.6571Z" fill="#B6B6B6"/>
</g>
</g>
</g>
</g>
<defs>
<clipPath id="clip0_81_56">
<rect width="24" height="24" fill="white"/>
</clipPath>
</defs>
</svg>
