<?xml version="1.0" encoding="UTF-8"?>
<svg id="Layer_1" data-name="Layer 1" xmlns="http://www.w3.org/2000/svg" viewBox="0 0 414 200">
  <defs>
    <style>
      .cls-1 {
        fill: #edebe1;
      }

      .cls-2 {
        fill: #fff9b8;
      }

      .cls-3 {
        fill: #fff100;
      }

      .cls-4 {
        fill: #fbb040;
      }

      .cls-5 {
        fill: #9ed2f1;
      }

      .cls-6 {
        fill: #8fc9e3;
      }

      .cls-7 {
        fill: #c4bfb9;
      }

      .cls-8 {
        fill: #e0d9a1;
      }

      .cls-9 {
        fill: #433e39;
      }

      .cls-10 {
        fill: #585350;
      }

      .cls-11 {
        fill: #4c4845;
      }

      .cls-12 {
        fill: #81796a;
      }

      .cls-13 {
        fill: #757575;
      }
    </style>
  </defs>
  <path class="cls-9" d="M173.84,79.48c-.12-.13-.23-.26-.35-.39,0-.63-.38-.9-1.07-.88-.28-.07-.57-.13-.85-.2l-.59-.22c-.28-.02-.56-.04-.85-.06,0-.28,0-.55,0-.83,2.33-.18,4.71,.22,6.98-.51,.61,.05,1.24,.18,1.69-.36,.59-.64,1.81-.26,2.28-1.09,.2-.2,.4-.4,.59-.6,.8,3.57,3.63,5.75,6.79,7.69,.64,.39,1.44,1.1,2.13,.66,.69-.44,.24-1.34-.08-1.96-.59-1.14-.94-2.4-.55-3.51,.92-2.57-.22-4.63-1.55-6.72-.23-.36-.34-.79-.5-1.18-.14-.69-1.14-.36-1.39-.92,.97-.51,.28-1.08,.09-1.64q-1.37-3.93-5.44-2.26c-.28,.04-.56,.07-.84,.11-.2-.16-.4-.33-.59-.49,0,0,0,0,0,0,.18-.1,.36-.19,.54-.29,.43-.18,.84-.42,1.29-.54,2.45-.65,3.88-1.61,3.99-4.34,.16-4.16,4.06-7.43,8.52-8.02,3.95-.53,6.85,.84,8.84,3.84,.17,.68,1.14,.34,1.42,.87-2.43,1.36-5.15,2.18-7.81,3.1-.66,.23-1.75,.16-1.37,1.28,.15,.21,.29,.42,.44,.63-1.45,1.3,.03,2.46,.24,3.68,.2,1.16,.86,1.36,2.16,1.01,3.19-.86,6.44-1.56,9.67-2.32,.02,.26,.05,.52,.07,.78-.27,.14-.54,.3-.82,.4-1,.36-.71,1.31-.4,1.56,1.7,1.37-.95,4.39,2.5,5.01,1.33,.24,2.66,.45,4,.68,.27,.31,.63,.36,1.04,.3,0,0-.02,0-.02,0-.02,.3-.03,.6-.05,.91-.67,.01-1.33-.01-1.91-.35-.43-.62-1.09-.46-1.72-.4-.91,.44-2.33-.74-2.92,.68-1.11,2.63-.12,3.98,2.96,4.18,3.97,.26,8.05,.66,10.6,3.66,1.61,1.89,3.06,1.39,4.87,.83,1.08-.33,1.35-.77,.65-1.71-1.5-2-3.51-3.45-5.84-4.61-.1-.32-.35-.47-.72-.47-.4-.12-.79-.24-1.19-.36,.18-.49,.64-.58,1.13-.62,1.07,.3,2.14,.67,3.3,.57,1.11-.1,2.27,.74,3.33-.15,.64,0,1.27,0,1.91,0,.91,.69,1.87,.59,2.86,.14,.65,.09,1.31,.18,1.96,.27-.06,.3-.13,.6-.19,.9-2.1-.12-4.21-.23-6.31-.35-.37,.04-.74,.08-1.12,.12-.46,.07-.91,.14-1.25,.19,2.3,3.7,5.29,6.16,10.5,4.61,.57-.17,1.28-.04,1.91,.02,4.05,.32,7.91,.98,10.53,4.19,.71,.88,1.75,.87,2.66,.05,.08-.15,.04-.25-.13-.32-1.14-.97-1.94-2.17-3.13-3.13-3.06-2.48-6.76-3.78-10.57-4.95,.51-.65,1.31-.32,1.97-.45,.63,.17,1.27,.35,1.9,.52,.21,.3,.54,.37,.9,.36,2.73,1.05,5.42,2.2,8.54,1.83,.16,.24,.35,.37,.64,.13,.33,.08,.66,.16,1,.24,.24,.09,.47,.17,.71,.26,.57-.01,1.14-.02,1.71-.03,1.42,.33,2.84,.67,4.26,1,.13,.22,.33,.26,.58,.16,0,0,.01,.16,.01,.16-.02,.33-.05,.65-.07,.98l-1.01-.34c-.16-.04-.32-.08-.48-.12-1.26-.27-2.53-.55-3.79-.82-.11-.29-.25-.37-.48-.08-1.67-.08-3.33-.64-5.34-.12,1.59,1.24,2.83,2.43,3.65,3.86,.56,.98,1.28,1.42,2.55,1.54,1.97,.19,3.99,.44,5.82,1.05,2.64,.88,5.69,1.45,6.71,4.35-.66,.52-1.01-.08-1.36-.36-1.32-1.04-2.82-1.81-4.38-2.5-.1-.11-.23-.16-.39-.16-3.31-.94-6.72-1.28-10.17-1.4-.16-.18-.31-.18-.46,0-3.18,.66-6.48,.65-9.62,1.68-1.99,.66-1.57,1.04-.42,2.03,2.94,2.53,6.69,3.16,10.51,3.68,0,.32-.01,.63-.02,.95-2.26,1.13-3.31,3.37-5.45,4.61-.18,.11-.17,.52-.18,.8-.16,5.22-1.79,9.97-6,14.04,2.52,.25,4.43-.09,6.12-1.61,2.02-1.82,3.87-3.75,5.59-5.79,.62-.74,.82-1.95,2.25-2.03,.69,.92-.59,2.48,1.44,3.1,.54-2,1.07-3.96,1.6-5.91,.48,0,.97-.02,1.45-.03-1.42,4.11-2.98,8.19-1.41,12.58,.27,.75,.1,1.71-.15,2.51-.34,1.11,.31,1.8,1.08,2.39,.87,.67,1.79,.25,2.65-.18,1.66-.82,2.85-2.06,3.84-3.44,2.29-3.17,3.08-6.74,3.64-10.41,.43-2.79,.25-5.03-3.58-5.65-.67-.11-1.34-.52-1.87-.93-1.74-1.37-2.81-1.03-3.37,.9-.67-.92-1.7-.64-2.65-.61,.1-.4,.16-.81,.3-1.19,1.05-2.87,.93-3.03-2.39-3.02,0-.35,0-.69,0-1.04,2.46-.21,4.93-.41,7.39-.62,.26-.07,.52-.13,.78-.2,1.26-.14,2.52-.39,3.78-.39,1.29,0,1.52-.65,1.62-1.52,.08-.02,.16-.05,.23-.05,1.11,0,1.32,1.96,2.66,1.12,1.01-.64-.83-1.61-.05-2.46,.37-.31,.88-.27,.93,.11,.39,2.78,2.72,2.51,4.93,2.6,1.26,.05,2.5,.38,3.75,.58,.32,.1,.64,.2,.97,.31l.48,.12c.31,.32,.71,.31,1.13,.24,.95,.35,1.91,.66,2.83,1.06,.47,.2,1.06,.53,.7,1.11-.3,.5-.86,.25-1.24,.04-2.7-1.47-5.79-1.79-8.79-2.36-.68-.37-1.41-.18-2.13-.16-2.49,.1-4.97,.2-7.46,.29-.56-.47-1.05-.48-1.45,.17-2.02,.54-4.24,.15-6.36,1.12,1.84,1.74,3.99,2.87,6.25,3.86,5.86,2.56,12.06,2.83,18.4,2.12,.33,.53,.99,.58,1.52,.82-1.38,.23-2.77,.45-4.47,.73,2.68,2.66,5.9,3.71,9.44,4.01,5.05,.42,9.98,1.17,14.54,3.25,1.27,.58,1.58,.26,1.38-.86-.38-2.2-1.67-3.94-3.49-5.42,.58-.88,1.23-.71,1.84-.06,1.15,1.22,2.35,2.43,2.51,4.13-.01,.32-.2,.78,.32,.83,.57,.06,.42-.43,.45-.74-.02-2.44-.89-4.7-1.87-6.93,.37-.05,.74-.1,1.1-.15,.62,1.8,2.87,2.68,3.3,4.58-.22,.73-1.11-.28-1.46,.52-1.38,3.11-.17,6.8,3.26,9.36,.7-1.44,.38-2.9,.32-4.34-.02-.56-.69-1.5,.81-1.41,.04,.08,.02,.15-.06,.21-.02,.61-.23,1.27,.46,1.74,0,.69,.02,1.37,.03,2.06-.56,.82-.59,1.73-.5,2.65,0,.56-.01,1.11-.02,1.67-.02,.36,.07,.66,.45,.85,.13,.08,.16,.18,.09,.3,.05,.17,.1,.34,.16,.51,.52,.97,.76,1.98,.62,3.05-.22,.29-.44,.58-.65,.87-.14-.3-.28-.61-.41-.91-1.17-6.98-6.18-10.85-13.42-12.93-.66-.19-1.57-.63-1.36,.57,.39,2.28,.57,4.61,2.37,6.55,1.57,1.69,2.99,3.5,4.35,5.33,2.46,3.33,4.5,6.82,4.51,10.95-.02,.32-.13,.73,.32,.83,.67,.14,.88-.32,1.01-.79-.03-.33,.06-.61,.41-.77,.25,.25,.51,.5,.76,.74-.2,.33-.39,.66-.59,.99-.41,.15-.55,.44-.55,.8-1.77,1.72-1.5,4.27-3.16,6.03-.12,.05-.19,.14-.23,.25-.12,.2-.24,.4-.36,.61-.47-.18-.57-.55-.6-.94,2.44-3.95,2.3-7.98,.51-12.52-2.72,4.06-5.58,7.53-8.45,10.98-.49,.6-.87,1.25-.53,1.97,.62,1.32,.93,2.71,1.07,4.11,.09,.93,.84,.86,1.44,1.1,.53,1.37-1.36,.86-1.61,1.62-.51,.18-.75,.43-.23,.83,.11,.61,0,1.18-.33,1.72-.51,.25-.52,.65-.41,1.08,.03,.55,.03,1.1-.5,1.51-.33-.06-.65-.13-.98-.19,.44-1.42,.87-2.85,1.31-4.27,.01-.25,.03-.5,.04-.75-.05-1.13,.07-2.29-.2-3.37-.2-.82,.13-2.16-1-2.36-.89-.16-1.27,1.1-1.91,1.69-.88,.82-1.57,1.85-2.58,2.49-3.45,2.17-4.7,5.3-5.42,8.78-.71,3.39-1.62,6.76-2.93,10.36,5.64-2.28,8.85-6.07,11.56-10.3l.78,.74c-1,1.63-1.99,3.26-2.99,4.89-.01,.14-.03,.29-.04,.43,.18,.71,0,1.37-.36,2.01-.35,.01-.71,.02-1.06,.03,0-1.25-.59-.82-1.18-.32-1.76,1.46-3.64,2.76-5.93,3.51-1.53,.5-2.72,1.3-3.85,2.35-4.17,3.9-8.8,4.73-14.09,2.7-.51-.2-1.06-.6-1.5-.12-.42,.47,.11,.91,.43,1.29,2.98,3.68,7.13,4.73,12.01,4.15,.16-.04,.32-.07,.48-.11,2.26-.69,4.38-1.63,6.32-2.86,.31,.19,.62,.39,.94,.58-.73,.63-1.48,1.24-2.48,1.54-.38,.01-.69,.13-.86,.46-.7,.49-1.52,.71-2.39,.84-.38-.02-.73,.03-.98,.33-1.13,.19-2.23,.6-3.42,.41-.43-.42-.87-.42-1.34-.06-1.04,.1-2.01-.17-2.98-.44-.18-.08-.36-.16-.54-.23-1.57-.55-3.17-.02-4.76-.08-.37-.4-.68-.3-.94,.1-1.44,.15-2.88,.24-4.33,0-.42-.52-.89-.56-1.42-.12-2.37,0-4.7-.54-6.52-1.72-2.73-1.77-5.94-1.71-8.93-2.46,0-.3,.02-.6,.03-.91,1.2,.1,2.39,.2,3.82,.32-1.22-1.66-2.23-2.99-3.18-4.36-.3-.43-.51-.93-1.19-.86-5.24,.5-9.21-1.5-12.5-4.87-.03-.03-.14,.01-.22,.02,.54,2.36,2.32,4.44,6.11,7.14-.28,.24-.57,.48-.85,.73-2.25-1.64-4.98-.54-7.43-1.01-.24-.57-1.22-.13-1.44-.77,1.03-.05,2.03-.11,3.03-.16,.79-.24,1.78,.23,2.5-.52-1.27-1.29-2.36-2.67-3.16-4.21-.34-.66-.73-1.15-1.79-1.02-3.92,.48-7.64,.03-10.92-2.13-.75-.5-1.62-.27-2.18,.27-.59,.58,.16,1,.54,1.41,2.76,2.99,6.22,5.01,10.54,5.82-1.27,1.24-2.59-.38-3.87,.06h0c-.21-.36-.56-.44-.98-.42,0,0,0,0,0,0-.81-1.16-1.77-1.1-2.83-.28-1.27,.5-2.63,.44-3.97,.55-.51-.4-.97-.37-1.38,.12-.31,.01-.62,.03-.94,.04-.53,0-1.05,.01-1.58,.02-.78,.13-1.56,.13-2.33-.08-.25-.38-.55-.45-.9-.09-.36-.06-.73-.13-1.09-.19-.13-.32-.27-.63-.4-.95,4.02,.33,8.03,.51,12.13-.53-1.4-1.35-2.74-2.47-3.82-3.76-.79-.94-1.54-.98-2.66-.63-4.84,1.5-9.68,1.95-14.42-.31-.56-.27-1.06-.4-1.49,.08-.67,.78,.31,.98,.71,1.25,2.69,1.83,5.71,3.07,9.05,3.69-.32,.98-1.27,.49-1.94,.64-1.77-.44-3.27,.38-4.84,.83-.13,0-.24,.02-.34,.1-.35,.11-.7,.23-1.04,.34-.56-.05-1.2,.06-1.51-.54,1.19-.66,2.73-.68,3.93-1.62-1.36-.82-2.76-1.42-3.79-2.33-1.48-1.31-2.72-1.15-4.44-.35-5.21,2.43-10.58,3.69-16.14,.71-.51-.27-1.16-.43-1.53,.03-.31,.39,.19,.79,.54,1.06,2.22,1.71,4.75,2.97,7.51,3.87-.15,.26-.31,.53-.46,.79-.73,.06-1.46,.13-2.19,.19-.28-.24-.57-.48-.85-.72-1.46-.95-3.14-1.73-4.34-2.89-1.51-1.47-2.74-1.28-4.55-.46-3.79,1.72-7.81,2.87-12.19,2.71-1.39-.05-2.69-.35-4-.67-.93-.22-1.69,0-2.04,.69-.43,.87,.58,.96,1.17,1.23,4.19,1.88,8.63,2.88,13.33,2.94,.69,.06,1.38,.19,2.04-.09,1.31-.22,2.63-.44,3.94-.67,.16,.27,.32,.53,.48,.8l-.1,.11s-.16-.03-.16-.03c-.61-.06-1.23-.16-1.67,.38l-1.96,.3c-.36-.4-.66-.31-.92,.09-1.44,.26-2.89,.25-4.34,.02-.27-.4-.57-.48-.94-.09-1.63-.25-3.21-.26-4.47,.9-.41,.03-.73,.19-.86,.56-.16,.11-.31,.21-.47,.32-.16,.09-.32,.18-.48,.27-1.04,.77-2.14,1.45-3.44,1.85-.46-.05-.84-.19-.95-.64,1.99-1.24,4.34-2.04,6.05-3.88-1.11-.34-2.25-.44-3.01-.97-3.8-2.68-6.47-1.15-9.4,1.4-3.08,2.68-6.72,4.79-11.4,4.63-1.45-.3-2.57-1.53-4.61-1.26,1.39,1.33,2.84,1.9,4.5,2.12,2.68,.95,5.47,.84,8.27,.72,0,.29,0,.59,0,.88l-.15,.08s-.17-.06-.17-.06c-.85-.04-1.71-.25-2.52,.17-.36,0-.72,0-1.08-.01-.51-.33-1.07-.22-1.62-.15-.74,.02-1.27,.36-1.73,.85-.49,.52-1.07,.8-1.68,.1,1.3-1.27,.04-1.41-.95-1.76-5.07-1.8-7.41-4.83-7.23-9.61,.04-1.08-.57-.97-1.28-.98-3.16-.02-5.62,2.93-4.83,5.85,1.1,4.06,6.25,8.6,11.61,7.78,.06,.31,.12,.61,.18,.92-.81,.44-1.67,.28-2.52,.18-.38-.41-.84-.4-1.35-.23-.57-.09-1.19-.07-1.61-.52-.06-.08-.15-.12-.26-.13-.94-.24-1.89-.83-2.76,.11-.2-.26-.4-.51-.6-.77,.23-.37,.52-.77,.07-1.14-1.53-1.27-2.7-2.73-3.58-4.42-.59-1.13-1.1,.13-1.66,.13-.32-.17-.65-.33-.97-.5,.68-.66,1.35-1.32,2.03-1.97,0-.16,.01-.31,.02-.47-.25-2.29,.9-4.05,3.06-5.06,1.51-.71,1.34-1.31,1.08-2.6-.38-1.94-.75-3.67-2.89-4.68,.33-.18,.66-.35,.99-.53,1.42,.64,2.95,1.15,4.23,1.96,3.49,2.22,7.96,2.74,11.3,5.19,.62,.45,.97,.16,1.42-.18,1.42-1.07,1.89-2.23,1.21-3.91-1.11-2.72-3.07-4.74-5.78-6.25-2.15-1.2-4.51-2.16-6.51-3.53-2-1.37-3.81-2.34-6.43-1.35-1.07,.4-2.41,.3-3.54-.06-1.51-.48-1.6,.18-1.49,1.17-1.3-.26-.47-1.78-1.61-2.14-2.25-1.24-4.08-2.82-5.17-5,.28-.23,.56-.46,.85-.69,.31,.41,.6,.82,.92,1.23,3.78,4.89,9.86,5.76,15.46,2.31,.95-.59,1.92-1.24,.01-2.01-1.56-.63-2.72-1.73-3.37-3.17-.37-.82-.99-1.08-2-1.17-4.3-.39-7.73-2.11-10.07-5.4-.32-.46-.45-1.37-1.52-.84-.26-.23-.53-.46-.79-.69,.25-.38,.49-.75,.74-1.13,.43-.3,.38-.59-.05-.86-1.12-2.96-1.5-5.92-.13-8.9,.43-.2,.53-.54,.5-.93,.13-.41,.34-.67,.86-.37,.41,.11,.42,.36,.24,.63-3.12,4.67-.86,8.82,1.69,12.9,.51,.82,1.2,1.63,2.46,2.04,.57-2.83,1.41-5.45,3.19-7.74,.35-.45,.3-.94,.15-1.42-.98-3.04-1.19-6.1-.24-9.17,.32-1.03-.17-1.02-1.09-.89-1.01,.14-1.75,1.28-2.95,.61-.45-1.25,.87-.87,1.43-1.2,.4,.03,.76-.02,1.01-.34,.16-.02,.31-.05,.47-.07,0,0,.21,0,.21,0l.19-.07c1.26-.33,2.23-.93,2.93-1.98,.78-1.17,1.94-2.17,3.33-2.68,6.14-2.25,11.44-6.18,18.33-6.95,2.33-.26,4.66-.39,6.92-.13,2.4,.28,4.21-.24,5.9-1.62,.76-.62,1.59-1.18,2.61-1.46,.18-.1,.36-.19,.54-.29,.47-.18,.94-.37,1.41-.55,.17-.07,.34-.14,.51-.21,.87-.31,1.69-.76,2.69-.71,.23-.08,.46-.16,.7-.24,1.88-.57,3.82-.74,5.79-.79,.18,.21,.34,.17,.48-.04,1.47-.16,2.94-.21,4.38,.17,.19,.02,.38,.05,.57,.07,.22,0,.44,.01,.66,.02,.32,1.11-.61,.9-1.26,.9-1.85,.01-3.7-.12-5.53,0-4,.26-7.79,1.15-11.12,3.24,4.37-.62,8.72-1.11,13.15-.99,3.52,.1,4.54-.62,4.76-3.15,.75,.26,1.77-.05,2.25,.81,.24,.18,.47,.17,.69-.04,.23-.52,.77-.46,1.24-.52,.28,.23,.55,.46,.83,.69-1.54,1.12-3.82,1.18-5.23,2.68,.83,.3,1.41,.1,2.02-.13,5.9-2.24,12.07-3.2,18.46-2.66,2.07,.17,2.99-.34,2.79-2.2,.08-.34,.15-.68,.23-1.01,.41-.05,.82-.11,1.23-.16,1.11,1.01-.3,1.8-.32,2.71-.01,.39-.41,.84,.23,1.07,.56,.2,.86-.12,1.09-.54,.55-1,1.13-1.99,1.71-2.98,.18-.32,.41-.62,0-.92-.37-.26-.68-.12-1.06,.08-.48,.25-.66,1.3-1.58,.52,2.08-2.59-.87-4.03-1.74-5.94-.26-.65-1.34-.63-1.44-1.4,.07-2.45-1.38-4.69-1.32-7.14,0-.13-.31-.32-.51-.39-4.16-1.44-6.72-4.44-9.35-7.39-.53-.24-1.01-.24-1.36,.26h-.02c-.16,0-.3,.05-.41,.15-1.14,.25-2.27,.61-3.43,.73-1.76,.18-.84,.87-.46,1.48-.37,.08-.75,.15-1.12,.23Zm10.96,59.87c-.19-.31-.2-.75-.7-.86h.01q-1.02-2.79-3-2.75c.11,.99,1.26,1.39,1.61,2.23-.22,.2-.45,.39-.67,.59-1.15-.61-1.71-2.51-3.01-2.14-2.06,.59-3.81,0-5.64-.42-.31,3.05,.74,5.33,3.13,7.43,3.21,2.82,5.28,6.35,6.24,10.31,.13,.55,.16,1.08,1.16,.95,3.33-.44,4.5-1.75,4.03-4.73-.12-.76-.4-1.51-.55-2.27-.36-1.86-1.83-3.37-2.05-5.27,1.16-.19,.89,1.07,1.66,1.28,.41,.9,.84,1.79,1.21,2.7,.38,.94,1.15,1.54,2.19,1.7,1.42,.23,.23-1.19,1.02-1.41,.13-.03,.3,.05,.45,.08,2.16,1.33,3.25,3.34,4.35,5.34,.31,.56,.51,1.34,1.03,1.61,1.04,.53,2.1,1.39,3.52,.75,1.38-.62,2.18-1.42,2.17-2.93-.02-6.74-4.3-11.61-9.01-16.31-.35-.35-.84-.38-1.33-.28-1.48,.3-2.82,0-4.15-.61-1.51-.7-2.45,.48-3.48,1.05-1.24,.68-.1,1.44,.12,2.18,.35,1.16,1.91,1.89,1.49,3.3-1.1,.05-.94,.95-1.29,1.5-1.19-.27-1.14-1.39-1.78-2.03,.2-.19,.4-.39,.6-.58,.32,.09,.51,.62,.93,.27,.09-.07-.16-.45-.25-.69Zm71.54-42.91c.34-.06,.79,.17,1-.25,.02-.04-.19-.2-.32-.26-.6-.24-.65,.13-.68,.5-.18,.15-.62,.25-.17,.55,.06-.18,.12-.37,.18-.55Zm-99.22,44.24c.21,.42,.6,.81,.29,1.32-.28-.13-.67-.19-.81-.39-2.22-3.06-5.43-1.21-8.25-1.29-.16,0-.5,.27-.48,.33,.59,1.54-.74,3.29,1.01,4.75,4.27,3.57,7.81,7.63,9.86,12.69,1.39-.71,2.63-1.51,4.02-2,1.39-.49,1.75-1.24,1.62-2.44-.11-.98-.2-1.94-.47-2.92-1.01-3.59-3.85-6.09-6.48-8.72,1.12-.03,2.43,.18,2.31-1.43,.18,.13,.43,.23,.52,.4,3.82,7.06,9.43,12.51,17.65,15.77,1.28,.51,1.92-.04,2.81-.44,.99-.44,1.1-1.1,.79-1.95-.29-.8-.38-1.68-.79-2.43-3.59-6.54-7.51-12.74-16.58-14.47-3.01-.58-4.92,.55-4.41,3.13-.52-.13-1.04-.26-1.56-.38-.04-2.27-1.9-1.47-3.5-1.73,.62,1.2,1.82,1.46,2.44,2.22Zm-21.62,8.41c.67,.48,.72-.67,1.32-.38,1.18,1.42,2.28,2.93,4,3.91,3.64,2.07,7.13,4.26,10.06,7.15,1.01,1,2.74,1.82,4.68,.72,2.19-1.24,1.75-2.55,.83-4.25-3.04-5.55-7.77-9.81-13.12-13.59-3.07-2.17-3.39-2.07-6.14,.3-.28,.24-.6,.48-.95,.64-1,.45-1.01,1.14-.7,1.95,.25,.66,.44,1.34,.65,2.01-.22,.24-.44,.48-.66,.72-.82-1-1.09-2.18-1.44-3.34-.17-.57-.47-.95-1.16-.47-1.13,.79-1.1,2.32,.06,3.07,.84,.54,1.71,1.04,2.57,1.56Zm18.71-33.11c-.36,.01-.72,.02-1.08,.04-.9-1.29-2.36-1.9-3.9-2.31-8.33-2.23-16.74-2.24-25.11-.34-9.25,2.11-11.43,9.87-8.89,15.95,1.61-2.62,4.82-3.3,6.93-5.19,1.57-1.4,3.29-2.49,5.47-2.88,3.9-.69,7.8-1.36,11.68-2.2,3.24-.7,6.78-1.02,9.77,.79,1.66,1,2.46,.31,3.31-.65,.48-.54,.69-1.26,1.02-1.9,.3,.02,.6,.04,.9,.06,.46-.02,.91-.04,1.37-.06,1.05,.68-.05,1.11-.33,1.49-.97,1.34-1.56,2.78-1.64,4.35-.03,.57-.39,1.38,.54,1.64,.64,.18,1.35,.18,2.05-.2,5.63-3.04,11.81-3.48,18.17-2.87,2.03,.2,3.07-.77,2.47-2.45-.73-2.04-2.23-3.48-4.59-3.93-5.2-.99-10.24-.65-14.97,1.74-.47,.24-.97,1.17-1.7,.23,.08-.94,1.11-1.05,1.73-1.52,.48-.37,1.69-.32,1.31-1.15-.31-.67-1.39-.34-1.9-.15-.94,.36-3.08-.7-2.62,1.52Zm58.02-6.73c-.76,.4-1.53,.8-2.29,1.2-.48,0-.96,0-1.44,0-.87,0-1.56,.34-1.19,1.12,.47,.96,.87-.03,1.36-.16,.83-.22,.28,.51,.47,.77-2.98,1.51-3.57,3.97-3.46,6.72,.06,1.3,.72,1.77,2.17,1.32,7.12-2.19,13.91-.73,20.64,1.47,1.32,.43,2.42,.6,2.71-1.16,.46-2.7-.85-4.64-3.06-6.26-2.17-1.58-4.85-2.08-7.48-2.66-.44-.42-.99-.33-1.54-.27-.13,.07-.25,.07-.37-.02,.3-.7,1.38-.16,1.84-1.09-1.17,.49-2.02-.21-3.01-.13-.66-1.17-1.65-1.45-2.96-.85-.8,0-1.6,0-2.4,0Zm42.6,35.51c.12-.46,.14-.98,.39-1.38,1.07-1.71,.24-2.28-1.66-2.28,.05-.05,.1-.09,.14-.14-.03,.04-.07,.09-.1,.13-2.02,.43,.08,1.63-.56,2.32,.03,.18,.06,.37,.09,.55,.5,2.02,.34,4.06,.07,6.08-.13,.96-.04,1.79,.52,2.62,.32,.48,.51,1.18,1.31,.97,1.04-.28,.53-.97,.35-1.57-.68-2.24-1.34-4.49-.64-6.83,.03-.16,.06-.32,.09-.48Zm-42.22-43.02c.09,.21,.18,.42,.28,.64,.4,2.04,.42,4.11,.13,6.23,1.77-.19,2.46-.9,2.45-2.16-.01-1.41,.08-2.82-.4-4.2-1.76-5.04-3.88-10.02-3.64-15.44,.02-.55-.24-1.14-.94-.86-1.2,.47-3.3-.32-3.57,1.02-.36,1.78-2.6,3.56-.15,5.62,2.36,1.99,4.3,4.37,5.28,7.22,.04,.61-.25,1.3,.52,1.74,.1,.05,.11,.12,.05,.2Zm-78.67,41.43h.23s.21-.09,.21-.09c1.56-.54,2.51-1.6,3.19-2.9,.08-.15,.16-.3,.24-.45,.48-2.2,1.05-4.38,.99-6.67-.13-4.92-.06-4.92-5.36-3.11-1.38,.47-2.64,1.05-2.77,2.58-.17,2.03-.43,4.06-.51,6.1-.12,2.83,.7,3.74,3.78,4.52Zm111.81,21.3c3.08-.62,6.09-1.41,9.34-2.66-8.12-5.39-16.13-3.23-24.41-.88,2,2.49,4.43,3.93,7.81,3.98,1.31,.51,2.6,.32,3.87-.12,.64-.02,1.28-.04,1.91-.06,.53,.07,1.04,.09,1.47-.27Zm-3.42-78.96c1.13-.26,2.26-.53,3.41-.79-1.14-1.73-2.61-2.62-5.11-3.14-4.48-.94-8.87-.64-13.25,.55-4.08,1.11-8.23,2.04-12.66,3.12,4.05,3.44,8.65,3.95,13.58,3.5,4.27-.39,8.22-1.82,12.28-2.88,.6-.09,1.27,.12,1.77-.35Zm-23.57,23.67c.67,.61,1.3,.68,1.88-.09,.8-.72,1.37-1.53,1.71-2.51,1.79-5.21,1.4-10.46,.39-15.72-.06-.34-.11-.74-.6-.82-3.38-.58-6.31-2.02-9.15-4.16-.31,4.22,.49,7.85,1.77,11.44,1.01,2.81,2.43,5.58,2.12,8.61-.15,1.54,.35,2.57,1.87,3.26Zm-6.62-3.4c.38-.29,.37-.56-.03-.82-.85-3.22-1.66-6.4-4.1-9.13-2.58-2.87-5.61-5.43-7.69-8.65-.21-.33-.74-.66-1.14-.69-2.62-.19-4.82-1.22-7.08-2.9-.1,5.13,1.93,9.15,5.32,12.69,3.38,3.53,7.53,6.56,8.3,11.6,.2,1.28,1.41,2.17,3.45,1.55,2.16-.65,2.74-1.97,2.97-3.67Zm-33.69,6.77c-.92-3.74-4.26-5.15-7.88-5.97-6.71-1.53-13.36-.56-19.93,.87-3.28,.72-6.5,1.64-9.95,3.54,4.51,.45,8.32,1.08,11.82,2.67,.2,.09,.48,.12,.7,.08,4.22-.76,8.45-.07,12.67-.14,3.33-.05,6.52,.1,9.51,1.52,1.96,.61,3-.26,3.06-2.56Zm109.95,8.56c-.11-4.96-.83-9.12-2.13-13.22-.2-.63-.27-1.23-1.16-1.41-1.97-.41-3.77-1.15-5.34-2.3-1.04-.76-1.4-.2-1.54,.64-.38,2.16-.93,4.33-.53,6.53,1.02,5.6,2.15,11.18,3.16,16.78,.17,.95,.16,1.89,1.47,2.12,1.37,.24,2.72,.27,3.76-.79,.68-.7,1.2-1.45,1.55-2.35,.84-2.2,.67-4.46,.75-6Zm-101.82-59.26c.12,3.84,2.54,8.05,5.44,12.1,.91,1.26,1.94,2.45,3.54,3.08,1.2,.47,2.69,.76,3.65,.1,.88-.61,.23-1.86-.16-2.74-1.09-2.5-2.26-4.97-3.47-7.43-1-2.02-1.87-4.07-2.01-6.28-.14-2.23,.68-2.92,3.18-3.37,1.31-.23,2.53-.83,3.81-1.22,1.19-.37,1.2-.88,.49-1.72-1.62-1.93-4.61-2.89-7.25-2.24-4.69,1.15-7.27,4.22-7.23,9.73Zm-13.49,43.99c2.54,1.29,4.39,2.4,5.71,4.04,.44,.55,1.16,.27,1.79,.29,4.71,.14,9.43,.19,14.13,.5,2.96,.2,5.87,.85,8.08,2.84,.69,.63,1.2,.41,1.85-.02,2.08-1.37,1.9-3.18-.67-5.07-9.35-6.86-19.6-5.83-30.89-2.59Zm72.23,45.37c-.03-4.88-1.86-8.44-3.82-12.04-1.1-2.02-3.56-1.62-5.03-2.92-1.34-1.17-2.76,.41-4.18,.61-1.03,.14-.65,1.18-.56,1.81,.94,6.73,4.73,12.42,8.7,18.02,.86,1.22,3.23,.73,3.81-.67,.75-1.8,1.15-3.67,1.08-4.81Zm-21.29,.33c-.38-4.99-2.78-9.8-5.15-14.68-1.25-2.57-3.69-2.72-5.84-3.68-1.45-.65-2.06,.8-3.21,.93-1.7,.19-1.59,1-1.17,2.25,1.39,4.12,4.28,7.56,6.32,11.37,1.48,2.75,3.39,4.67,6.72,5.66,2.21,.66,2.41,.71,2.32-1.84Zm61.02-1.99c-2.49,.47-2.52,.44-3.75,1.34-4.75,3.48-8.39,7.71-11.01,12.64-.85,1.6-1.88,3.1-3.15,4.48-.41,.45-1.46,.72-1.05,1.46,.37,.67,1.32,.7,2.11,.82,5.44,.8,11.6-2.78,13.32-8.02,1.35-4.11,2.32-8.31,3.52-12.72Zm-82.54-64.11c5.73-.12,11.23-1.34,16.75-2.55,1.71-.37,1.71-.93,.58-1.92-1.35-1.18-2.96-1.95-4.77-2.34-4.1-.89-8.24-.72-12.4-.27-3.65,.4-7.37,1-10.28-1.94-.95-.96-1.14-.05-1.21,.6-.3,2.76,.78,5.05,3.34,6.63,2.36,1.47,5.11,1.96,7.99,1.78Zm-11.9,26.23c-1.2,.06-2.4,.1-3.6,.17-5.27,.29-8.14,3.19-7.76,7.83,.12,1.47,1.36,2.08,2.74,1.22,.86-.54,1.7-1.09,2.73-1.25,5.72-.89,11.42-1.05,17.07,.46,1.44,.39,2.35,.16,2.11-1.48-.4-2.74-1.82-4.75-4.8-5.83-2.73-.99-5.6-1.05-8.49-1.12Zm65,35.58c.02,.26,.03,.61,.07,.96,.44,4.07,3.01,7.55,4.1,11.44,.2,.7,.69,.82,1.46,.64,.77-.18,1.6-.38,2.37-.3,2.27,.26,3.03-.88,3.16-2.54,.45-5.88,.16-11.54-5.63-15.74-1.6-1.16-2.87-1.21-3.95,.38-1.05,1.55-1.51,3.26-1.58,5.15Zm.59-24.3c-.33-1.72-.91-3.23-2.39-4.37-3.98-3.07-8.69-4.1-13.83-3.79-3.95,.24-6.7,2.52-7.47,5.9-.24,1.08,.1,1.57,1.31,1.23,2.8-.79,5.6-.3,8.34,.09,3.47,.48,7,1.01,10,2.77,.92,.54,1.78,1.17,2.78,.72,1.1-.5,.93-1.71,1.25-2.54Zm-13.41-27.25c.23-1.56-.47-3.26-2.98-4.28-1.04-.42-1.9-1.28-2.7-2.06-.91-.87-1.52-1.06-1.93,.28-1.19,3.87-1.64,7.74-.42,11.72,.82,2.69,.9,5.44-.28,8.11-.57,1.3-1.56,3.15-.2,3.82,1.53,.75,2.9-.92,3.95-2.08,3.92-4.37,4.31-9.59,4.58-15.51Zm-93.92,65.59c-1.71-.01-3.3,.3-4.87,.94-6.34,2.57-10.58,7.21-15.02,11.67-1.02,1.03,0,1.35,.81,1.63,3.43,1.21,6.25-.15,8.95-1.77,4.46-2.69,8.13-6.17,11.91-9.54,.75-.67,2.38-1.22,1.98-2.09-.41-.91-2.08-.75-3.27-.82-.16-.01-.32-.02-.48-.02Zm28.7-3.32c-4.17-2.5-8.22-3.12-12.6-1.48-5.2,1.95-9.25,5.29-13.31,8.61-1.06,.87,0,1.04,.64,1.17,2.22,.44,4.45,.39,6.68,.02,6.98-1.16,12.51-4.82,18.6-8.33Zm-51.27-9.52c-.61,.05-1.77-.61-1.74,.31,.05,1.59,.58,3.18,1.02,4.75,.21,.76,1.14,.94,1.84,1.26,4.31,2.01,7.93,4.55,9.12,9.02,.28,1.05,.87,.69,1.54,.25,1.16-.76,2.29-1.58,3.57-2.14,1.21-.53,1.11-1.1,.75-2.04-1.68-4.37-4.81-7.76-8.88-10.57-1.55-1.07-2.97-2.15-5.09-1.02-.58,.31-1.37,.4-2.13,.19Zm169.95-29.65c.14-3.51-.46-6.43-.89-9.38-.18-1.26-.79-1.76-2.23-1.98-1.43-.21-1.96,.3-2.59,1.25-1.35,2.05-1.59,4.1-1.29,6.48,.61,4.81,1.45,9.73-1.38,14.31-.29,.47-.16,.77,.28,1.08,1.04,.73,3.49,.48,4.04-.6,1.9-3.74,5.26-7.11,4.07-11.16Zm-36.49,.84c2.13-.45,4.23-.64,6.34-.72,.34-.01,.7-.32,.99-.55,5.08-4.06,9.91-8.25,10.26-14.88,.05-.88,.13-1.7-1.07-1.72-2.24-.03-4.84-.97-6.13,1.79-.31,.66-1.15,1.16-1.84,1.64-.82,.57-1.2,1.26-1.38,2.15-.92,4.68-2.6,9.01-7.17,12.29Zm5.73,.65c-4.76-.08-7.36,1.58-8.5,4.62-.52,1.38,.68,1.73,1.36,1.55,4.03-1.1,7.57,.55,11.2,1.45,3.06,.76,6.18,1.74,7.93,4.41,.62,.95,1.03,.4,1.35-.05,1.3-1.79,1.19-3.63-.05-5.39-3.25-4.6-8.53-5.85-13.28-6.59Zm-122.19-.5c-4.31,.35-8.63,1.05-12.36,3.34-2.89,1.77-3.6,4.3-1.95,6.37,.34,.43,.66,1.08,1.48,.54,2.7-1.8,6.03-2.18,9.11-3.08,3.05-.89,6.02-2.22,9.52-1.41,1.75,.4,2.5-.83,1.72-2.31-1.48-2.8-4.35-3.26-7.52-3.44Zm112.27,20.51c1.64-.19,3.19-.44,4.48-1.39,2.87-2.1,5.12-4.67,6.95-7.5,1.22-1.89,.71-2.9-1.6-3.34-1.55-.3-3.05-.81-4.7-.77-1.09,.03-1.89,.34-2.29,1.22-1.3,2.84-3.72,4.89-6.18,6.92-2.62,2.17-2.23,3.56,1.26,4.51,.68,.18,1.4,.24,2.08,.35Zm21.14-2.81c.12-5.08-1.48-6.92-6.4-8.13-1.18-.29-1.39,.12-1.44,.99-.19,4.02-.43,8.06,.68,12,.79,2.82,2.7,4.94,6,5.79,.95,.24,2.13,.46,1.33-1.11-.47-.92-.2-1.81,.49-2.58,.54-.6,.71-1.15,.3-1.92-.93-1.77-1.04-3.68-.97-5.03Zm-72.51,15.13c1.59-.42,2.88-.75,4.16-1.11,.65-.18,1.05-.54,1.12-1.21,.54-5.32,.09-10.37-4-14.78-1.47-1.59-2.76-2.13-4.99-1.5-2.19,.62-3.17,2.57-1.81,4.26,3.38,4.21,6.04,8.64,5.53,14.34Zm42.47,12.99c6.75,6.48,18.03,5.24,22.22-2.28,.72-1.29,.46-1.89-1.05-1.99-2.31-.16-4.63-.37-6.91,.27-4.69,1.32-9.38,2.63-14.26,4Zm-73.41-3.74c5.73,4.38,15.99,.47,24.99-6.24-3.17-1.59-6.52-2-9.95-1.12-5.62,1.43-10.03,4.79-15.04,7.37Zm-49.91-35.78c-1.26,0-2.04,.07-3.19,.76-4.85,2.91-7.44,7.04-8.24,12.11-.2,1.28,.66,1.7,1.84,2.04,3.16,.92,3.42,.82,4.4-1.81,.25-.66,.63-1.29,1.01-1.91,1.63-2.69,4.16-4.61,6.94-6.33,.56-.35,1.28-.56,1.27-1.38-.02-2.33-1.33-3.49-4.02-3.48Zm98.3,28.57c-5.6-2.67-10.74-3.07-16.08-1.06-3.34,1.25-6.18,3.2-9.17,4.96-1.23,.72-.86,1.09,.26,1.5,1.9,.69,3.88,.78,5.88,.66,6.79-.41,12.47-3.53,19.1-6.05Zm69.2-21.51c-.62,.74-1.21,1.49-1.86,2.2-2.68,2.91-5.51,5.69-8.79,8.1-.49,.36-.87,.83-1.31,1.24-1.21,1.15-.96,2.11,.4,3.02,1.94,1.31,4.06,1.28,6.4-.16,3.74-2.31,6.49-5.43,9.12-8.65,.73-.9,.92-1.41-.53-2-1.53-.61-2.64-1.79-3.42-3.76Zm-76.51-12.81c-1.68-.14-3.08,.19-4.48,.46-1.3,.24-2.21,.93-2.37,2.1-.32,2.3-1.46,4.29-2.71,6.27-.62,.98-1.37,2.04-.3,3.11,1.2,1.21,2.84,1.26,4.42,.83,.88-.24,1.69-.78,2.44-1.29,3.24-2.17,5.05-5.2,6.34-8.5,.89-2.28,.52-2.77-2.12-2.97-.48-.04-.96,0-1.22,0Zm10.72-22.62c-.11,3.91-.3,7.36-1.95,10.61-.29,.57-1.76,1.07-.57,1.88,.96,.65,2,.26,2.84-.4,.65-.52,1.37-1.03,1.84-1.67,3.75-5.08,5.49-10.63,4.82-16.7-.07-.65-.02-1.83-.93-1.72-1.22,.15-2.85-.39-3.65,1.03-1.33,2.34-3.77,4.39-2.41,6.97Zm-71.5,38.66c-.14-1.85-1.28-4.63-3.09-7.46-2.1-3.27-4.24-3.08-9.36-.99-2.66,1.08-.02,3.01,.64,4.41,.67,1.41,1.76,2.69,2.79,3.94,.9,1.09,2.03,2.01,3.45,2.57,2.49,.98,5.72-.46,5.57-2.47Zm37.69-12.34c.03-3.61-.51-4.02-4.04-3.54-.63,.09-1.26,.19-1.9,.3-2.07,.34-3.38,1.41-3.46,3.28-.12,2.64-.91,5.16-1.52,7.71-.49,2.06,.46,2.87,2.87,2.63,1.17-.12,2.2-.48,3.02-1.18,3.1-2.63,4.21-6.08,5.02-9.2Zm45.95-1.29c-1.41-.09-3.22-.1-3.86,1.69-.98,2.78-2.34,5.37-3.98,7.89-1.1,1.68,.3,3.33,2.52,3.17,3.32-.23,5.61-1.83,7.11-4.33,.74-1.24,1.28-2.58,1.9-3.89,2.06-4.39,2.03-4.42-3.69-4.53Zm-6.95,21.23c.11-1.3,.04-2.69-.62-3.74-1.23-1.97-.33-5.66-4.88-5.2-.84,.08-1.86-1.08-2.5,.19-.61,1.21-1.73,2.17-.77,3.88,2.19,3.92,3.58,8.11,3.97,12.52,.04,.5-.28,1.27,.65,1.37,.75,.08,1.27-.31,1.66-.96,1.52-2.53,2.43-5.19,2.49-8.05Zm-34.93-23.62c-3.12-.11-3.14-.1-2.62,2.66,.21,1.1,.42,2.22,.83,3.27,.81,2.05,1.55,4.16,3.56,5.64,1.35,.99,2.77,1.13,4.46,.73,1.72-.41,.8-1.61,1.21-2.4,.73-1.41,.09-2.78-.12-4.13-.85-5.43-1.03-5.54-7.32-5.76Zm-24.26,2.14c-.88,.07-1.76,.11-2.62,.23-2.19,.3-2.7,1.1-1.76,2.92,1.47,2.84,3.31,5.48,5.71,7.79,.99,.95,2.15,1.75,3.59,2.01,1.27,.23,3.11,.08,3.02-1.19-.11-1.57,.38-3.3-.96-4.85-1.04-1.2-1.58-2.75-2.24-4.18-.88-1.89-2.13-3.17-4.73-2.72Zm44.45,36.05c3.25,1.83,6.37,2.31,9.63,1.93,4.36-.51,8.56-1.68,12.78-2.74,1.27-.32,1.21-.67,.51-1.36-1.78-1.76-3.92-2.93-6.68-2.87-5.88,.14-10.75,2.8-16.25,5.04Zm84.97-38.43c-.22,.22-.51,.46-.72,.74-1.18,1.59-2.36,3.19-3.51,4.8-1.46,2.04-2.61,4.2-3.29,6.54-.5,1.7,.36,2.86,2,3.68,1.73,.87,2.56-.36,3.3-1.27,1.78-2.17,3.37-4.46,5.06-6.69,1.48-1.96,.08-6.64-2.31-7.66-.13-.06-.28-.08-.54-.15Zm-48.34,26.19c-.21-1.57-.05-3.51-.88-5.32-.53-1.16-3.49-2.37-4.84-2.01-.74,.2-1.82,3.02-1.43,3.94,1.88,4.36,2.33,8.76,.64,13.25-.15,.39-.44,.73,.17,1.07,1.34,.75,3.28,.33,3.99-.97,1.66-3.04,2.48-6.25,2.35-9.95Zm-87.15-21.25c.16-1.45-.2-2.24-2.12-1.59-1.33,.45-2.8,.62-4.13,1.07-1.34,.46-2.33,1.38-2.23,2.74,.19,2.46-.44,4.74-1.38,7.03-.35,.85-.71,1.98,.44,2.74,1.07,.71,2.26,.66,3.43,.24,1.05-.38,1.86-1.01,2.57-1.83,2.69-3.1,2.85-6.8,3.42-10.4Zm78.16,2.29c.47,3,.56,6.29,2.62,9.13,1.46,2,2.32,1.94,3.64-.08,.2-.3,.43-.63,.73-.83,2.82-1.88,1.55-4.71,2.04-7.1,.51-2.49-.66-3.21-5.93-4.51-.15-.04-.31-.07-.46-.12-1.57-.54-2.23,.2-2.47,1.42-.12,.62-.11,1.26-.17,2.1Zm-14.7,.47c.03-5.59-.03-5.65-6.28-6.64-.47-.07-.95-.15-1.42-.22-1.1-.16-1.45,.26-1.3,1.2,.3,1.89,.42,3.81,.86,5.67,.43,1.78,.84,3.64,2.39,5.01,2.14,1.89,4.81,1.31,5.44-1.23,.3-1.23,.21-2.53,.3-3.8Zm-101.33,19.18s.67,.07,1.29-.01c1.95-.27,3.46-2.35,2.56-3.45-2.26-2.78-5.45-4.88-7.45-7.85-.34-.51-.62-.69-1.28-.22-2.03,1.46-3.64,5.5-2.87,7.48,.92,2.37,4,4.13,7.75,4.05Zm138.04,27.9c-1-1.1-1.98-1.95-2.63-2.97-.63-.99-1.41-1.13-2.55-1.06-5.44,.33-10.25-1.06-14.4-4.2-.41-.31-.82-1.13-1.55-.55-.68,.54,.12,1.04,.39,1.47,3.86,6.09,12.31,9.11,20.74,7.31Zm10.88-23.09c-.12-.74,.4-1.86-.41-2.16-1.78-.67-3.38-1.53-4.89-2.58-.07-.05-.38,.02-.4,.08-.52,1.46-2.87,2.03-2.27,4.11,.7,2.42,.56,4.91-.18,7.34-.2,.66-.85,1.32,.5,1.6,.97,.2,1.87,.82,2.6-.47,.97-1.7,2.28-3.23,3.74-4.65,.96-.94,1.53-1.97,1.3-3.27Zm-69.95-80.31c-.04-.67-.08-1.59-.16-2.5q-.4-4.51-5.32-3.18c-.76,.21-1.89,.02-1.96,1.17-.08,1.26-.33,2.5,.31,3.74,.89,1.73,1.75,3.49,1.93,5.41,.09,.95,.6,1.16,1.57,1.11,2.88-.16,3.32-.54,3.51-3.18,.06-.77,.08-1.55,.14-2.57Zm72.53,52.7c-.25-3.26-.58-6.43-3.33-8.99-1.14-1.06-1.74-1.13-2.69,.07-.68,.86-1.6,1.58-2.48,2.29-1.45,1.17-1.2,2.07,.56,2.61,2.91,.88,5.48,2.23,7.95,4.02Zm.58,18.18c3.22-1.93,5.64-4.53,8.08-7.11,.35-.36,.49-.72-.03-1.07-1.1-.72-8.2,.46-8.9,1.51-.15,.23-.21,.54-.21,.81,.02,1.95-.3,3.96,1.06,5.86Zm-28.21-35.92c-1.63,2.11-3.22,3.77-4.92,5.36-1.44,1.34-1.26,1.86,.83,2.33,1.79,.4,3.55,.85,5.09,1.78,1.29,.78,1.67,.27,1.68-.87,.02-2.95-.87-5.67-2.68-8.6Zm-127.67,63.84c-.01,1.74,.73,2.91,1.48,4.08,.55,.85,1.03,.91,1.78,.13,1.56-1.61,3.19-3.17,4.78-4.75,.44-.44,.86-.94,.15-1.45-1.37-.97-2.76-2.21-4.7-1.59-1.97,.64-3.35,1.9-3.49,3.58Zm109.22-57.56c-.17-1.85-.54-3.47-1.32-5.05-.68-1.38-1.11-1.21-1.92-.07-.71,1-1.59,1.95-2.57,2.75-1.11,.92-.67,1.38,.38,1.86,1.35,.63,2.61,1.4,3.51,2.5,.86,1.04,1.3,.86,1.58-.28,.15-.62,.25-1.24,.34-1.71Zm35.65,30.09c-.28-1.68-.39-3.4-.9-5.01-.36-1.12-1.74-1.16-2.84-.9-1.17,.28-3.26,2.96-2.81,3.45,1.43,1.57,3.12,2.83,5.46,3.22,.74,.12,1.32,.13,1.09-.76Zm-102.43-6.27c1.91-.29,3.53-1.19,4.5-2.55,.79-1.11-.99-1.69-1.46-2.59-.37-.69-.89-1.33-1.4-1.96-.29-.36-.39-1.05-1.13-.87-.55,.13-.45,.67-.54,1.08-.33,1.6-.92,3.12-1.69,4.59-.79,1.49-.12,2.38,1.72,2.31Zm-37.22,2.54c.26-1.59,.6-2.89,.65-4.19,.05-1.19,.87-2.91-.54-3.44-1.39-.52-2.56,1.03-3.76,1.78-.84,.52-.83,1.08-.25,1.77,1.12,1.33,2.04,2.82,3.9,4.08Zm113.43-10.07c-1.71,2.2-2.45,4.25-4.26,5.67-.58,.46,0,.93,.51,1.14,1.47,.62,3.04,.72,4.62,.46,.67-.11,.89-.48,.64-1.09-.73-1.77-1.09-3.63-1.51-6.18Zm-23.63-3.17c-1.56,2.04-2.56,3.88-4.18,5.34-.39,.35-.56,.8-.04,1.06,1.71,.86,3.63,.7,5.31,.18,1.69-.53,.16-1.69,.06-2.52-.14-1.21-.66-2.4-1.15-4.05Zm-26.28,.98c-.81,1.54-1.58,2.89-2.24,4.29-.31,.66-1.55,1.18-.82,1.97,.75,.81,2.06,.98,3.12,.62,1.19-.4,3.19-.54,2.45-2.39-.6-1.5-1.59-2.88-2.51-4.5Zm-63.32-15.91c5.18,.95,11.14-.3,14.05-2.88-4.97-.16-9.41,.78-14.05,2.88Zm75.11-4.46c-.62-2.41-2.12-4.04-3.64-5.65-.36-.38-.68-1.24-1.41-.8-1.01,.61-1.31,1.72-1.74,2.69-.3,.68,.35,.81,.84,1.03,1.89,.86,3.79,1.73,5.94,2.72Zm-63.43,26.62c-.32,1.87-.6,3.45-.85,5.04-.1,.63-.69,1.38,.56,1.71,1.35,.35,2.47,.13,3.5-.72,.77-.64,.62-1.15,.07-1.82-1.07-1.3-2.07-2.64-3.29-4.21Zm39.17-3.86c.64-2.09,.97-3.94,1.01-5.84,.03-1.48-1.29-1.32-2.2-1.23-.78,.08-2.54,.04-2.1,1,.9,1.97,1.55,4.11,3.29,6.06Zm-25.59,3.5c1.73-1.91,1.47-4.15,.98-6.09-.38-1.47-2.39-.57-3.55-.35-1.25,.23-.4,1.03-.06,1.63,.89,1.56,1.73,3.14,2.64,4.81Zm125.49,1.06c2.33-.35,4.48-.97,6.72-.78,.84,.07,1.5-.03,1.34-.95-.14-.82-.75-1.32-1.69-1.04-.86,.26-1.74,.56-2.57,.33-2.43-.67-3.18,.59-3.81,2.42Zm-154.01,31.96c-1.23-.62-2.16-1.14-3.15-1.57-.76-.33-1.51-1.14-2.32-.84-.84,.31-.13,1.14-.03,1.7,.2,1.03,.46,2.06,1.97,2.33,1.56,.28,2.29-.7,3.53-1.61Zm127.74-32.96c1.69-1.21,2.52-2.33,3.26-3.46,.35-.53,1.21-1.24,.42-1.87-.7-.56-1.74-.8-2.71-.58-.98,.23-.56,1.05-.62,1.63-.14,1.26-.21,2.52-.35,4.28Zm-19.81-24c.6-2.13,.75-3.83,.37-5.57-.23-1.05-.97-1.18-1.65-.6-.77,.66-1.46,1.57-.88,2.64,.58,1.06,1.26,2.08,2.15,3.54Zm20.82,49.86c-.14-1.12-.16-1.83-.34-2.51-.21-.79-.2-2.08-.98-2.21-1.32-.22-.76,1.27-1.35,1.87-.4,.41-.57,1-.85,1.51-.26,.46-.17,.83,.39,1.02,.93,.33,1.74,1.05,2.83,.85,.4-.07,.3-.59,.31-.52Zm-51.18-37.02c.41,1.76,.82,3.52,1.26,5.41,1.12-.89,1.25-1.98,1.57-2.96,.89-2.7,.45-3.07-2.83-2.45Zm-74.01,.59c-2.37,.07-4.11,.99-5.8,2.49q4.39,.97,5.8-2.49Zm126.48,37.45c2.25-.56,2.63-1.7,1.67-3.2-.4-.63-.05-2.03-1.45-1.74-1.22,.26-.41,1.3-.39,2,.02,.91,.1,1.82,.17,2.94Zm-25.83-31.51c.21,.04,.43,.08,.64,.12,.5-1.22,1.03-2.43,1.5-3.65,.18-.46,.91-.99,.03-1.43-.57-.28-1.23-.28-1.84-.05-.72,.27-.37,.79-.35,1.26,.05,1.25,.02,2.5,.02,3.75Zm1.23,24.23c.41-.44,1.96,.58,1.72-.87-.16-.96-.49-2.52-1.68-2.47-.91,.04-1.07,1.68-1.42,2.62-.37,.99,.68,.6,1.38,.71Zm-41.19-3.42c-.69,1.18-.16,2.06-.24,2.93-.05,.53,.1,1.01,.85,1,.61,0,1.37,.26,1.78-.22,.36-.42-.09-.95-.38-1.34-.58-.77-1.26-1.49-2.02-2.37Zm-17.54-11.11c-.42-.77,.26-2.24-1.24-2.46-.71-.1-2.08,.88-1.94,1.57,.2,.99,1.56,1.5,2.62,1.89,.63,.23,.53-.48,.56-1Zm105.47,14.39c.8-.61,1.4-1.07,2-1.52,.36-.27,.94-.56,.71-.98-.16-.29-.76-.47-1.2-.54-1.85-.28-2.23,.39-1.51,3.05Zm-33.71-55.21c1.51-1.11,2.89-1.68,2.71-2.91-.07-.52-1.68-1.01-2.26-.64-1.21,.78-.17,1.98-.45,3.54Zm22.18,47.62c.75,1.32,.19,2.97,1.78,3.2,.79,.11,1.62-1.3,1.43-2.15-.34-1.53-1.89-.58-3.22-1.05Zm-54.9,3.47c-.52,.55-.33,1.21-.42,1.82-.07,.46-.31,1.06,.51,1.17,.67,.09,1.51,.31,2-.2,.42-.43-.17-.93-.48-1.29-.46-.54-.78-1.23-1.61-1.5Zm-64.7-4.93c.03-1.62,.39-3.03-.97-3.74-.57-.29-1.79,.77-1.81,1.33-.07,1.28,1.44,1.54,2.79,2.41Zm89.46,9.03c-.51-1.01-1.01-2.03-1.55-3.02-.12-.22-.38-.5-.74-.24-.17,.12-.41,.37-.37,.49,.36,1.12,.43,2.34,1.38,3.25,.17,.16,.59,.2,.89,.17,.41-.04,.43-.33,.39-.65Zm-39.59-19.18c-.74,.1-1.51,.54-1.48,1.1,.04,.74,.78,1.5,1.6,1.62,.67,.1,.74-.79,.92-1.3,.27-.77-.22-1.18-1.04-1.41Zm70.96-28.62c1.48-1.11,2.6-1.84,2.58-2.97,0-.63-1.42-.61-1.81-.41-1.24,.67-.48,1.84-.78,3.38Zm-75.06,44.3c-.19,.11-.38,.22-.57,.34,.69,1.21,1.37,2.42,2.08,3.61,.19,.32,.59,.57,.98,.45,.47-.15,.39-.54,.18-.87-.78-1.25-1.45-2.57-2.68-3.53Zm12.09-58.94c.32-.77,.64-1.42,.84-2.1,.14-.47,.16-1.05-.64-1.08-.8-.02-1.63,.08-1.72,1.03-.08,.85,.51,1.4,1.51,2.15Zm15.51,46.71c.82-1.15,1.83-1.98,1.34-3.01-.26-.54-1.41-.11-1.9,.27-1.3,1.04,.33,1.58,.56,2.73Zm77.85-15.45c2.51-2.59,2.5-2.74,0-4.32v4.32Zm-154.49,37.16c.14,.54,.21,.94,.36,1.32,.25,.59,.49,1.24,1.45,1.09,.54-.09,1.32-.16,1.39-.62,.12-.76-.85-.89-1.39-1.24-.43-.28-.87-.61-1.81-.54Zm100.56-20.96c-.45,.33-1.7,0-1.34,1.01,.24,.67,.44,1.76,1.43,1.74,.97-.02,.73-1.09,.94-1.7,.22-.65-.12-1.09-1.03-1.04Zm-11.91,7.53c-.75,.77-.56,1.43-.65,2.02-.09,.61,.34,1.04,.94,1.31,.33,.15,.63,.04,.82-.2,.35-.45,.23-.92-.04-1.37-.32-.54-.65-1.08-1.07-1.76Zm-107.84,8.43c-.16-1.59,.05-2.66-1.09-3.17-.56-.25-1.42,.38-1.43,.79-.03,1.14,1.33,1.28,2.52,2.37Zm41.65-1.06c.19,1.13-.62,2.09,.7,2.56,.39,.14,1.38,.17,1.45-.29,.17-1.14-1.01-1.47-2.14-2.27Zm17.63-40.87c-1.35,0-1.97-.02-2.58,0-.48,.02-.98,.1-.99,.66,0,.4-.16,.9,.34,1.12,.57,.25,.75-.36,1.12-.55,.52-.26,1.01-.58,2.11-1.23Zm-42.78,43.24c1.06,.56,1.06,2.18,2.73,2.09,.11,0,.34-.38,.29-.51-.46-1.22-1.6-1.58-3.02-1.58Zm83.9-61.66c1.01-1.13,1.63-1.76,1.4-2.64-.03-.1-.82-.21-1.09-.06-1.21,.64-.14,1.46-.31,2.71Zm64.07,17.03c.41-1.28,1.54-1.76,.87-2.67-.24-.32-1.16-.4-1.52-.03-.73,.74,.06,1.39,.65,2.7Zm-77.49,34.43c-.25,.94-.28,1.82,.74,2.44,.32,.19,.69,.07,.74-.25,.15-.94-.59-1.53-1.22-2.15-.04-.04-.14-.03-.27-.05Zm56.24-10.54c-.86,.43-1.5,.9-1.4,1.73,.04,.32,.64,.57,.96,.4,.94-.5,.53-1.29,.44-2.13Zm-122.38,22.96c.3,1.18,.97,1.56,2.22,1.64-.44-.97-1-1.47-2.22-1.64Zm68.21-8.73c.59,1,.7,1.65,1.67,1.98-.07-.87-.25-1.46-1.67-1.98Zm-65.26,10.92c-.07-.1-.14-.2-.21-.3-.06,.03-.17,.07-.17,.1,0,.11,.05,.21,.09,.32,.09-.04,.19-.08,.29-.12Z"/>
  <path class="cls-2" d="M207.64,63.02c-3.23,.76-6.48,1.45-9.67,2.32-1.3,.35-1.95,.15-2.16-1.01-.21-1.22-1.69-2.38-.24-3.68,4.2-1.51,8.41-2.99,12.6-4.53,8.46-3.13,16.9-6.28,25.33-9.47,.49-.19,1.92,0,1.17-1.23,0-.27,0-.54,0-.81h0c.97-.21,1.04,1.36,1.82,.92,1.84-1.06,4.33-.57,5.92-2.08,14.28-5.3,28.56-10.59,42.82-15.91,5.95-2.22,11.85-4.51,17.78-6.77,.52,1.41,.58,2.95,2.16,4.01,.85,.57-.08,1.55-.16,2.35-.42,.2-.81,.44-1.25,.61-18.21,6.75-36.4,13.53-54.63,20.24-13.8,5.07-27.51,10.34-41.48,15.05Z"/>
  <path class="cls-5" d="M144.54,15.73c1.76-.25,3.34-1.25,5.25-.88,.61,.12,1.28,0,1.65,.6,.28,.81,.55,1.62,.84,2.42,5.56,15.1,11.51,30.08,19.4,44.38,2.04,3.7,2.02,3.58-1.44,6.01-1.65,1.16-2.19,.87-3.06-.66-9.46-16.65-16.46-34.12-22.64-51.88Z"/>
  <path class="cls-5" d="M281.84,100.22c-6.35,.72-12.55,.45-18.4-2.12-2.26-.99-4.41-2.12-6.25-3.86,2.12-.97,4.35-.58,6.36-1.12,.51,.11,.99,.07,1.45-.17,2.49-.1,4.97-.2,7.46-.29,.71,.05,1.42,.11,2.13,.16,3.01,.56,6.09,.88,8.79,2.36,.38,.21,.94,.46,1.24-.04,.35-.58-.23-.9-.7-1.11-.92-.39-1.89-.71-2.83-1.06-.32-.28-.71-.3-1.13-.24-.16-.04-.32-.08-.48-.12-.26-.25-.57-.39-.97-.31-1.25-.2-2.49-.53-3.75-.58-2.21-.1-4.54,.18-4.93-2.6-.05-.38-.56-.42-.93-.11,0,0-.03-.02-.03-.02,.58-.62,.4-.89-.49-.85l.03-.02c.78,.14,.79-.24,.54-.69-.32-.56-.72-1.08-1.08-1.62,.16-.15,.33-.3,.49-.45,.56,.01,1.13,.03,1.69,.04,2.99,.49,6.01,.86,8.9,1.73,.63,.24,1.13,1.01,1.97,.36,0,0,0,0,0,0-.43,.54,.19,.52,.47,.68,.82,.04,1.73-.33,2.41,.38-.85,.72-.5,1.02,.49,1.08,0,0-.02-.02-.02-.02,.83,1.61,2.61,2.59,3.61,4.1,.16,.24,.55,.05,.7-.23,0,0,0,0,0,0-1,.52-.19,1.07,.02,1.56,.5,1.2,1.35,2.29,1.37,3.92-.88-.83-1.56-1.47-2.24-2.11-.31-.46-.69-1.21-1.33-.74-.82,.6,.11,1.05,.58,1.47,1.06,1.19,1.19,1.89-.98,1.81-.89-.03-1.8,.37-2.71,.58-.51-.04-1.04-.14-1.46,.25Z"/>
  <path class="cls-11" d="M144.54,15.73c6.18,17.76,13.18,35.23,22.64,51.88,.87,1.53,1.41,1.82,3.06,.66,3.46-2.43,3.49-2.31,1.44-6.01-7.89-14.31-13.84-29.28-19.4-44.38-.3-.8-.56-1.62-.84-2.42,1.47-.75,1.4,.53,1.87,1.1-.03,.34,0,.66,.35,.88,2.31,7.2,5.22,14.23,8.19,21.23,3.56,8.4,7.36,16.71,11.97,24.73,1.1,1.91,2.09,2.41,4.12,1.26,.52-.29,1.2-.35,1.81-.52,.2,.16,.4,.33,.59,.49-.72,.3-1.45,.58-2.16,.9-3.78,1.73-7.64,3.35-10.52,6.26-.11,.01-.22,.03-.33,.06-.36,.02-.75,.43-1.07-.07,.72-.9,1.03-1.7,.32-2.87-8.23-13.52-13.94-27.96-19.61-42.41-1.28-3.26-2.39-6.57-3.58-9.85-.16-.44-.59-.94,.14-1.28,.43-.2,.7,.22,1.03,.38Z"/>
  <path class="cls-10" d="M207.64,63.02c13.97-4.71,27.68-9.98,41.48-15.05,18.23-6.7,36.42-13.48,54.63-20.24,.44-.16,.83-.4,1.25-.61,.53,.06,1.35-.39,1.52,.18,.26,.88-.85,.89-1.43,1.1-11.06,4.11-22.13,8.18-33.21,12.26-19.64,7.22-39.28,14.45-58.94,21.64-1.69,.62-3.37,1.32-5.23,1.5-.02-.26-.05-.52-.07-.78Z"/>
  <path class="cls-10" d="M204.31,55.64c-.28-.53-1.25-.2-1.42-.87,3.12-.16,5.72-1.67,8.47-2.68,29.52-10.89,58.99-21.85,88.49-32.79,.73-.27,1.51-.41,2.27-.62-.01,1.41-1.47,1.32-2.38,1.66-14.87,5.55-29.76,11.05-44.64,16.57-6.83,2.53-13.76,4.87-20.44,7.7,0,0,0,0,0,0-1.42,.47-2.85,.9-4.24,1.42-8.71,3.2-17.41,6.41-26.11,9.62Z"/>
  <path class="cls-5" d="M109.4,120.58c1.21,.67,1.94-.47,2.95-.61,.93-.13,1.41-.14,1.09,.89-.96,3.07-.75,6.13,.24,9.17,.15,.48,.2,.97-.15,1.42-1.79,2.3-2.62,4.91-3.19,7.74-1.26-.41-1.95-1.23-2.46-2.04-2.55-4.08-4.81-8.23-1.69-12.9,.18-.27,.17-.52-.24-.63,0,0,.08,0,.08,0,.33,.15,.56,.07,.73-.22,.18-.3,.09-.5-.25-.62,0,0,0,0,0,0,.42,.15,.79,.07,.96-.29,.18-.37-.05-.64-.47-.78l.04-.17s.19-.04,.19-.04c1,.66,1.5,.46,2.18-.86l-.02-.06Z"/>
  <path class="cls-5" d="M298.99,145.37c-.6-.24-1.35-.17-1.44-1.1-.13-1.4-.45-2.78-1.07-4.11-.34-.72,.03-1.37,.53-1.97,2.87-3.46,5.73-6.92,8.45-10.98,1.79,4.54,1.93,8.56-.51,12.52-.56,.69-1.12,1.38-1.68,2.06-.8,.76-1.6,1.51-2.4,2.27,.14,.25,.1,.46-.19,.61-.94-.51-1.4-.05-1.73,.67l.03,.03Z"/>
  <path class="cls-5" d="M127.67,182.03c-5.36,.81-10.51-3.72-11.61-7.78-.79-2.92,1.66-5.87,4.83-5.85,.72,0,1.32-.1,1.28,.98-.18,4.77,2.16,7.81,7.23,9.61,.99,.35,2.24,.49,.95,1.76,0,0-.05,.04-.05,.04,0,0-.15-.01-.15-.01-.29,.37-1.38,.76,.03,1.09,0,0-.02,.02-.02,.02-.39-.92-.96-.45-1.51-.16-.33,.1-.66,.21-.98,.31Z"/>
  <path class="cls-11" d="M110.44,187.86c-5.55,2.89-11.72,4.06-17.98,4.99-1.11,.16-2.22,.29-3.34,.4-1.7,.16-2.79,.21-2.69-2.05,.05-1.16-.4-2.9-1.29-4.12-1.05-1.43-.27-1.93,1.12-2.23,3.11-.67,6.25-1.23,9.34-1.95,5.07-1.18,9.76-3.15,14.26-5.5,.08,.34,.17,.69,.25,1.03-.25,.17-.48,.37-.74,.52-6.63,3.64-13.97,5.52-21.56,6.79-.5,.08-1.31-.06-1.19,.65,.08,.52,.73,.68,1.36,.58,.87-.13,1.74-.28,2.61-.35,.64-.05,1.66-.6,1.79,.33,.12,.84-1.05,.62-1.67,.78-.68,.18-1.42,.23-2.12,.35-.68,.12-1.69,.13-1.51,.96,.19,.87,1.19,.41,1.84,.39,.63-.03,1.26-.26,1.89-.27,.73-.01,1.91-.66,2.09,.2,.22,1.07-1.25,.68-1.95,.97-.41,.17-.94,.12-1.42,.17-.9,.09-1.46,.49-1.59,1.52,7.58-.25,14.61-2.14,21.45-4.75,.18,.43,.62,.5,1.06,.58Z"/>
  <path class="cls-5" d="M304.01,99.97c.98,2.24,1.85,4.49,1.87,6.93-.26-.03-.51-.06-.77-.09-.16-1.7-1.36-2.9-2.51-4.13-.61-.65-1.26-.82-1.84,.06-.01,0-.05-.05-.11-.12,1.63-.27,.87-.89,.2-1.36-1.42-.99-3.17-1.77-4.83-1.7-3.46,.14-5.09-1.28-5.76-4.01-.06-.14-.13-.29-.19-.43-.51-.53-.19-1.64-1.46-1.64,0,0,0,0,0,0,.79-.78-.75-1.08-.48-1.75,.15-.05,.3-.1,.45-.15,3.07,.42,5.83,1.68,8.74,2.51l.18,.03s.01,.16,.01,.16,.04,.16,.04,.16l.18,.04,2.59,1.61c.41,.33,.82,.67,1.22,1,.82,.96,1.64,1.91,2.46,2.87Z"/>
  <path class="cls-8" d="M234.66,44.6c6.69-2.83,13.61-5.17,20.44-7.7,14.88-5.52,29.77-11.02,44.64-16.57,.9-.34,2.36-.25,2.38-1.66,.83,.36,.3,1.06,.52,1.58-9.35,3.01-59.76,21.89-61.52,23.08,.51,.04,.89,.07,1.28,.1-1.59,1.5-4.08,1.02-5.92,2.08-.78,.45-.85-1.12-1.82-.91Z"/>
  <path class="cls-12" d="M242.4,43.44c-.39-.03-.77-.06-1.28-.1,1.76-1.19,52.17-20.07,61.52-23.08,.12,.17,.24,.34,.36,.5-5.93,2.26-11.84,4.55-17.78,6.77-14.27,5.32-28.55,10.61-42.82,15.91Z"/>
  <path class="cls-6" d="M170.44,101.5c-.22,2.53-1.24,3.24-4.76,3.15-4.42-.12-8.78,.37-13.15,.99,3.33-2.09,7.12-2.98,11.12-3.24,1.83-.12,3.69,.01,5.53,0,.65,0,1.59,.21,1.26-.9,0,0,0,0,0,0Z"/>
  <path class="cls-11" d="M173.84,79.48c.37-.08,.75-.15,1.12-.23,.66,.7,1.34,1.39,1.99,2.1,4.04,4.44,8.38,8.54,14.87,10.19,.11,.77,1.19,.75,1.44,1.4-9.12-1.51-14.48-7.25-19.42-13.46Z"/>
  <path class="cls-6" d="M311.34,108.52c-1.5-.08-.83,.85-.81,1.41,.05,1.45,.38,2.9-.32,4.34-3.43-2.56-4.65-6.25-3.26-9.36,.35-.79,1.25,.21,1.46-.52,0,0-.02,.08-.02,.08-.29,.1-.36,.27-.2,.51,.57,1.06,1.12,2.14,1.73,3.18,.28,.47,.6,1.13,1.35,.37l.06-.02Z"/>
  <path class="cls-11" d="M178.82,169.02c.15-.26,.31-.53,.46-.79,4.74,.37,9.39-.01,13.92-1.36,.3,.61,.94,.5,1.51,.54-5.12,1.84-10.33,3.02-15.88,1.61Z"/>
  <path class="cls-11" d="M310.45,131.99c-.25-.25-.51-.5-.76-.74,1.24-3.15,2.13-6.36,1.81-9.74,.14,.3,.28,.61,.41,.91,.22-.29,.44-.58,.65-.87,.67,3.7-.16,7.16-2.12,10.44Z"/>
  <path class="cls-10" d="M105.39,145.56c-.28,.23-.56,.46-.85,.69-2.1-3.41-2.83-6.87-.52-10.45,.26,.23,.53,.46,.79,.69-1.4,3.1-.72,6.1,.57,9.06Z"/>
  <path class="cls-11" d="M109.72,151.25c1.14,.36,.31,1.88,1.61,2.14,1.05,2.37,2.47,4.53,4.62,6.27-.26,.21-.52,.42-.79,.63-3.49-2.23-4.93-5.42-5.44-9.04Z"/>
  <path class="cls-11" d="M148.89,176.12c.11,.45,.49,.59,.95,.64-3.26,1.69-6.7,2.9-10.54,3.01,0-.29,0-.59,0-.88,3.3-.65,6.53-1.49,9.6-2.76Z"/>
  <path class="cls-11" d="M290.13,162.32c.35-.01,.71-.02,1.06-.03-.58,3.26-1.91,6.22-4.59,8.61-.47,.03-.93,.06-1.39,.09,0,0,.2-.1,.2-.1,.11-.16,.22-.32,.32-.49,0,0,.01-.02,.01-.02,.14-.17,.29-.34,.43-.51,1.87-2.29,2.93-4.92,3.96-7.56Z"/>
  <path class="cls-9" d="M288.12,91.74c-.27,.68,1.26,.97,.48,1.75-.16,.28-.54,.47-.7,.23-1-1.51-2.77-2.48-3.61-4.1,.16-.13,.44-.38,.46-.37,1.53,1.14,3.56,1,5.29,1.6,.23,.48,.53,.6,.95,.15,.32,.08,.65,.16,.97,.25,.26,.54,.75,.54,1.29,.42,.22,.05,.44,.09,.66,.14,.21,.34,.56,.41,.96,.39,.17,.04,.33,.08,.5,.12,.17,.09,.35,.19,.52,.28,0,0-.03-.02-.03-.02,.21,.44,.64,.48,1.09,.46,.54,.24,1.09,.48,.37,1.07-2.92-.83-5.68-2.09-8.74-2.51-.24-.17-.37-.07-.45,.15Z"/>
  <path class="cls-11" d="M278.96,87.14c-2.89-.88-5.91-1.24-8.9-1.74,.08-.3,.16-.6,.24-.89,3.21-.04,6.27,.5,9.15,1.78-.16,.28-.32,.56-.48,.85Z"/>
  <path class="cls-10" d="M166.25,71.77c.32,.5,.71,.08,1.07,.07-2.08,3.42-1.85,3.88,2.4,4.86,.15,.03,.27,.14,.4,.22,0,.28,0,.55,0,.83-.99,.16-1.88-.19-2.74-.49-2.9-1.01-3.26-2.83-1.14-5.48Z"/>
  <path class="cls-10" d="M241.91,171.14c0,.3-.02,.6-.03,.91-2.97-.23-5.61-1.23-7.98-2.79,.28-.24,.57-.48,.85-.73,2.24,1.19,4.72,1.85,7.16,2.61Z"/>
  <path class="cls-10" d="M175.44,102.45c-.28-.23-.55-.46-.83-.69,2.39-1.04,4.88-1.77,7.55-1.95,.16,.27,.32,.54,.48,.82-2.4,.61-4.81,1.22-7.21,1.82Z"/>
  <path class="cls-11" d="M175.78,168.5c.28,.24,.57,.48,.85,.72-2.04,1.51-4.35,2.5-6.99,2.86-.16-.27-.32-.53-.48-.8,2.25-.84,4.6-1.51,6.63-2.78Z"/>
  <path class="cls-11" d="M258.25,80.79c.02-.33,.05-.65,.07-.98,2.18,.54,4.19,1.35,5.81,2.79-.21,.23-.42,.46-.63,.69-1.75-.84-3.5-1.67-5.26-2.51Z"/>
  <path class="cls-11" d="M219.85,73.49c-.49,.04-.95,.13-1.13,.62-1.59-.49-3.18-.98-4.77-1.46,.02-.3,.03-.6,.05-.91,2.1,.18,4.06,.75,5.85,1.75Z"/>
  <path class="cls-10" d="M219.73,166.99c1.28-.44,2.6,1.18,3.87-.06,1.49,.13,2.98,.26,4.47,.39-1,.05-2,.1-3.03,.16,.21,.65,1.19,.2,1.44,.77-2.36,.04-4.62-.32-6.74-1.27Z"/>
  <path class="cls-9" d="M182.65,100.62c-.16-.27-.32-.54-.48-.82,.21-.04,.42-.09,.63-.13,.48,.15,.93,.16,1.28-.23,.86-.06,1.72-.12,2.58-.17,1.84,.52,3.9-.49,5.64,.65-3.24-.06-6.44,.39-9.64,.7Z"/>
  <path class="cls-11" d="M304.01,99.97c-.82-.96-1.64-1.91-2.46-2.87,.03-.39,.06-.79,.09-1.18,1.57,1.02,2.82,2.25,3.47,3.91-.37,.05-.74,.1-1.1,.15Z"/>
  <path class="cls-10" d="M192.3,99.92c-1.74-1.14-3.8-.13-5.64-.65,2.33-.61,4.69-.52,7.05-.15-.08,.34-.15,.68-.23,1.01-.4-.07-.79-.14-1.19-.22Z"/>
  <path class="cls-9" d="M270.3,84.51c-.08,.3-.16,.59-.24,.89-.56-.01-1.13-.03-1.69-.04-.18-.25-.43-.4-.7-.16-.26,.24-.09,.46,.2,.61,.36,.54,.76,1.06,1.08,1.62,.25,.44,.25,.83-.54,.69-1.31-.54-1.68-1.77-2.47-2.69,.03-.47,.24-.83,.76-1,1.19,.02,2.38,.05,3.58,.07Z"/>
  <path class="cls-11" d="M311.28,108.54c-.76,.76-1.08,.1-1.35-.37-.61-1.04-1.16-2.12-1.73-3.18,.23-.22,.47-.44,.7-.67,1.28,1.19,2.12,2.58,2.38,4.22Z"/>
  <path class="cls-11" d="M238.08,75.18c-.66,.13-1.46-.2-1.97,.45-1.06,.01-2.12,.08-3.09-.42,.06-.3,.13-.6,.19-.9,1.73-.17,3.29,.39,4.86,.87Z"/>
  <path class="cls-11" d="M294.93,151.95c.33,.06,.65,.13,.98,.19-.17,1.04-.6,1.98-1.33,2.82-.26-.25-.52-.49-.78-.74,.39-.75,.39-1.65,1.13-2.27Z"/>
  <path class="cls-9" d="M119.35,182.36c-1.13,1.12-2.36,2.14-3.89,2.83-.22-.24-.45-.49-.67-.73,1.32-.96,2.64-1.91,3.96-2.87,.2,.26,.4,.51,.6,.77Z"/>
  <path class="cls-11" d="M300.33,96.1c-.86-.54-1.73-1.07-2.59-1.61,.45-.1,.9-.2,1.36-.3,1.1,.28,1.89,.93,2.53,1.72-.43,.06-.86,.12-1.3,.18Z"/>
  <path class="cls-9" d="M110.44,187.86c-.43-.08-.87-.15-1.06-.58,1.12-.53,2.24-1.07,3.36-1.6,.26,.21,.52,.42,.78,.63-.6,.52-1.26,.95-2.11,1.1-.44-.04-.81,.06-.99,.46h.02Z"/>
  <path class="cls-9" d="M300.88,144.06c.8-.76,1.6-1.51,2.4-2.27,.27,.21,.53,.42,.8,.64-.47,.8-1.2,1.39-1.99,1.92-.51,.35-.98,.36-1.21-.29Z"/>
  <path class="cls-11" d="M226.48,73.9c-1.06,.9-2.22,.05-3.33,.15,1.09-.39,2.21-.27,3.33-.15Z"/>
  <path class="cls-11" d="M231.25,74.04c-.98,.44-1.95,.54-2.86-.14,.97-.16,1.92-.17,2.86,.14Z"/>
  <path class="cls-9" d="M110.11,178.44c-.08-.34-.17-.69-.25-1.03,.1-.12,.23-.18,.4-.2,.21-.13,.42-.27,.63-.4,0,0,.03-.02,.03-.02,.46-.03,.81-.18,.91-.62,.26-.17,.52-.33,.77-.5,.32,.17,.65,.33,.97,.5-1,.94-2.22,1.62-3.47,2.28Z"/>
  <path class="cls-11" d="M304.08,142.43c-.27-.21-.53-.42-.8-.64,.56-.69,1.12-1.38,1.68-2.06,.03,.4,.13,.76,.6,.94-.27,.73-.79,1.3-1.48,1.76Z"/>
  <path class="cls-11" d="M203.36,165.71c.13,.32,.27,.63,.4,.95-1,.05-1.99,.08-2.84-.51,.68-.15,1.62,.34,1.94-.64,.16,.07,.33,.13,.49,.2Z"/>
  <path class="cls-11" d="M215.94,166.29c1.06-.83,2.02-.88,2.83,.28-.91-.36-1.86-.38-2.83-.28Z"/>
  <path class="cls-9" d="M278.96,87.14c.16-.28,.32-.56,.48-.85,.68,.23,1.85-.03,1.48,1.2-.84,.65-1.34-.11-1.97-.36Z"/>
  <path class="cls-11" d="M311.27,115.18c-.08-.92-.06-1.82,.5-2.65,.16,.93,.08,1.83-.5,2.65Z"/>
  <path class="cls-11" d="M266.72,84.44c-.53,.17-.73,.53-.76,1-.61-.32-1.08-.77-1.41-1.32,.45-.05,.9-.11,1.35-.16,.27,.16,.55,.32,.82,.48Z"/>
  <path class="cls-9" d="M265.9,83.96c-.45,.05-.9,.11-1.35,.16-.35-.27-.7-.55-1.05-.82,.21-.23,.42-.46,.63-.69,.76,.27,1.32,.76,1.77,1.36Z"/>
  <path class="cls-11" d="M127.67,182.03c.33-.1,.66-.21,.98-.31,.17,.46,.61,.54,1.06,.58-.47,.56-1.19,.55-1.87,.65-.06-.31-.12-.61-.18-.92Z"/>
  <path class="cls-10" d="M257.33,176.23c.52-.45,.99-.4,1.42,.12-.49,.15-.97,.15-1.42-.12Z"/>
  <path class="cls-11" d="M210.59,166.95c.41-.48,.87-.52,1.38-.12-.44,.26-.9,.29-1.38,.12Z"/>
  <path class="cls-9" d="M109.42,120.64c-.67,1.32-1.18,1.52-2.18,.86,.57-.59,.92-1.62,2.18-.86Z"/>
  <path class="cls-7" d="M253.47,78.48c-.57,.01-1.14,.02-1.71,.03-.11-.1-.19-.22-.24-.36,.8-.58,1.35-.01,1.95,.33Z"/>
  <path class="cls-11" d="M167.7,172.53c.44-.54,1.06-.44,1.67-.38-.46,.46-1.04,.49-1.67,.38Z"/>
  <path class="cls-11" d="M272.3,177.01c.47-.36,.92-.36,1.34,.06-.46,.21-.91,.22-1.34-.06Z"/>
  <path class="cls-11" d="M311.74,110.47c-.69-.47-.47-1.13-.46-1.74,.41,.53,.65,1.09,.46,1.74Z"/>
  <path class="cls-11" d="M136.45,179.96c.81-.42,1.67-.21,2.52-.17-.82,.29-1.66,.38-2.52,.17Z"/>
  <path class="cls-9" d="M115.16,160.29c.26-.21,.52-.42,.79-.63,.33,.23,.65,.46,.98,.69-.33,.18-.66,.35-.99,.53-.26-.2-.51-.39-.77-.59Z"/>
  <path class="cls-9" d="M286.19,171.4c-.36,.68-.98,1.13-1.7,1.5-.19-.27-.39-.53-.58-.8,.43-.37,.85-.74,1.28-1.11,.33,.14,.66,.28,.99,.42Z"/>
  <path class="cls-11" d="M283.76,173.49c-.31-.19-.62-.39-.94-.58,.3-.22,.6-.44,.9-.66l.67,.72c-.08,.3-.28,.48-.64,.52Z"/>
  <path class="cls-11" d="M297.15,147.83c-.52-.4-.28-.65,.23-.83-.08,.28-.15,.55-.23,.83Z"/>
  <path class="cls-11" d="M159.55,172.85c.37-.39,.67-.3,.94,.09-.34,.16-.65,.12-.94-.09Z"/>
  <path class="cls-1" d="M153.65,17.43c-.35-.22-.38-.54-.35-.88,.68,.12,1.19,.29,.35,.88Z"/>
  <path class="cls-11" d="M164.83,172.92c.26-.4,.56-.49,.92-.09-.28,.23-.59,.27-.92,.09Z"/>
  <path class="cls-11" d="M296.41,150.64c-.11-.43-.1-.83,.41-1.08,.13,.44-.1,.77-.41,1.08Z"/>
  <path class="cls-11" d="M123.98,182.9c.5-.17,.97-.18,1.35,.23-.5,.14-.96,.11-1.35-.23Z"/>
  <path class="cls-10" d="M184.08,99.44c-.35,.39-.8,.38-1.28,.23,.36-.35,.8-.38,1.28-.23Z"/>
  <path class="cls-11" d="M204.85,166.84c.35-.36,.64-.29,.9,.09-.33,.17-.63,.15-.9-.09Z"/>
  <path class="cls-11" d="M293.25,91.66c-.54,.12-1.03,.12-1.29-.42,.51-.05,.94,.07,1.29,.42Z"/>
  <path class="cls-11" d="M290.99,91c-.42,.46-.72,.33-.95-.15,.32,.05,.63,.1,.95,.15Z"/>
  <path class="cls-10" d="M263.08,176.35c.27-.4,.57-.5,.94-.1-.29,.22-.6,.26-.94,.1Z"/>
  <path class="cls-10" d="M173.37,102.28c-.22,.21-.44,.22-.69,.04,.19-.52,.45-.16,.69-.04Z"/>
  <path class="cls-9" d="M129.72,182.3c-.46-.04-.89-.12-1.06-.58,.55-.3,1.12-.76,1.51,.16,.08,.33-.17,.38-.44,.42Z"/>
  <path class="cls-9" d="M130.17,181.86c-1.41-.33-.32-.72-.03-1.09,.42-.11,.81-.06,.88,.36,.08,.52-.29,.73-.85,.72Z"/>
  <path class="cls-9" d="M298.97,145.34c.33-.72,.79-1.18,1.73-.67,.14,.08,.29,.16,.43,.24-.16,.12-.32,.23-.47,.35-.54,.33-1.07,1-1.69,.08Z"/>
  <path class="cls-9" d="M300.33,96.1c.43-.06,.86-.12,1.3-.18,0,0,.02,0,.02,0-.03,.39-.06,.79-.09,1.18-.41-.33-.82-.67-1.22-1Z"/>
  <path class="cls-11" d="M133.76,179.79c.55-.07,1.11-.18,1.62,.15-.57,.18-1.1,.1-1.62-.15Z"/>
  <path class="cls-11" d="M208.07,167.02c.53,0,1.05-.01,1.58-.02-.52,.19-1.05,.18-1.58,.02Z"/>
  <path class="cls-11" d="M172.42,78.22c.69-.02,1.07,.24,1.07,.88-.36-.29-.72-.58-1.07-.88Z"/>
  <path class="cls-10" d="M104.72,133.82c.42,.27,.48,.55,.05,.86-.02-.29-.03-.57-.05-.86Z"/>
  <path class="cls-11" d="M309.3,133.79c0-.36,.14-.66,.55-.8,.05,.39-.24,.6-.55,.8Z"/>
  <path class="cls-11" d="M277.06,176.66c.24-.3,.59-.35,.98-.33-.26,.27-.57,.41-.98,.33Z"/>
  <path class="cls-9" d="M281.4,88.18c-.28-.16-.9-.14-.47-.68,.34-.41,.73-.45,1.03-.01,.34,.51-.03,.67-.56,.69Z"/>
  <path class="cls-11" d="M111.84,176.16c-.1,.44-.46,.59-.91,.62,.3-.21,.61-.41,.91-.62Z"/>
  <path class="cls-9" d="M284.31,89.64c-1-.06-1.35-.36-.49-1.08,.55,.22,1.46,.32,.49,1.08Z"/>
  <path class="cls-11" d="M296.95,93.03c-.46,.02-.88-.02-1.09-.46,.36,.15,.73,.31,1.09,.46Z"/>
  <path class="cls-11" d="M105.09,123.99c.02,.39-.07,.73-.5,.93-.06-.4,.17-.69,.5-.93Z"/>
  <path class="cls-9" d="M106.51,122.78c.34,.13,.43,.33,.25,.62-.17,.29-.4,.37-.73,.22-.37-.18-.49-.43-.25-.75,.2-.27,.46-.21,.73-.09Z"/>
  <path class="cls-9" d="M107,121.7c.42,.14,.65,.4,.47,.78-.17,.36-.55,.44-.96,.29-.64-.65,.05-.81,.49-1.07Z"/>
  <path class="cls-9" d="M115,185.45c-.34,.21-.68,.42-1.02,.64-.2-.26-.4-.52-.6-.78,.26-.15,.53-.31,.79-.46,.28,.2,.56,.4,.83,.61Z"/>
  <path class="cls-11" d="M294.87,92.2c-.4,.02-.75-.06-.96-.39,.32,.13,.64,.26,.96,.39Z"/>
  <path class="cls-11" d="M280.42,175.49c.17-.33,.48-.45,.86-.46-.29,.15-.58,.31-.86,.46Z"/>
  <path class="cls-11" d="M218.76,166.56c.41-.02,.76,.06,.98,.41-.33-.14-.65-.27-.98-.41Z"/>
  <path class="cls-11" d="M110.42,187.86c.18-.4,.55-.49,.99-.46-.33,.15-.66,.3-.99,.46Z"/>
  <path class="cls-11" d="M154.22,174.31c.13-.37,.45-.53,.86-.56-.29,.19-.57,.37-.86,.56Z"/>
  <path class="cls-11" d="M111.83,119.03c-.25,.32-.61,.37-1.01,.34,.26-.29,.59-.42,1.01-.34Z"/>
  <path class="cls-11" d="M311.7,117.69c-.38-.19-.48-.49-.45-.85,.15,.28,.3,.57,.45,.85Z"/>
  <path class="cls-9" d="M299.09,94.19c-.45,.1-.9,.2-1.36,.3,0,0-.18-.04-.18-.04,0,0-.04-.16-.04-.16,.23-.94,.41-.95,1.58-.1Z"/>
  <path class="cls-7" d="M250.05,78.02c-.29,.24-.48,.11-.64-.13,.26-.13,.47-.09,.64,.13Z"/>
  <path class="cls-11" d="M214.02,71.74c-.41,.07-.77,.02-1.04-.3,.42-.11,.77,0,1.04,.3Z"/>
  <path class="cls-11" d="M240.88,76.06c-.37,.01-.7-.05-.9-.36,.3,.12,.6,.24,.9,.36Z"/>
  <path class="cls-11" d="M300.65,145.27c.16-.12,.32-.23,.47-.35-.16,.12-.32,.23-.47,.35Z"/>
  <path class="cls-11" d="M305.92,140.07c.03-.12,.11-.2,.23-.25,.02,.15-.05,.24-.23,.25Z"/>
  <path class="cls-11" d="M112.7,118.89l-.19,.07s-.21,0-.21,0c.13-.02,.26-.04,.4-.07Z"/>
  <path class="cls-11" d="M311.94,118.5c-.05-.17-.1-.34-.16-.51,.05,.17,.1,.34,.16,.51Z"/>
  <path class="cls-9" d="M308.9,104.33c-.23,.22-.47,.44-.7,.67-.15-.24-.09-.41,.2-.51,.17-.05,.33-.11,.5-.16Z"/>
  <path class="cls-10" d="M153.26,103.79c-.18,.1-.36,.19-.54,.29,.18-.1,.36-.19,.54-.29Z"/>
  <path class="cls-10" d="M155.18,103.02c-.17,.07-.34,.14-.51,.21,.17-.07,.34-.14,.51-.21Z"/>
  <path class="cls-10" d="M158.56,102.07c-.23,.08-.46,.16-.7,.24,.23-.08,.46-.16,.7-.24Z"/>
  <path class="cls-11" d="M291.55,160.28c.01-.14,.03-.29,.04-.43,.03,.1,.07,.2,.07,.3,0,.04-.07,.08-.11,.13Z"/>
  <path class="cls-10" d="M169.78,101.48c-.19-.02-.38-.05-.57-.07,.19,.02,.38,.05,.57,.07Z"/>
  <path class="cls-10" d="M164.82,101.24c-.14,.21-.3,.24-.48,.04,.16-.01,.32-.03,.48-.04Z"/>
  <path class="cls-11" d="M295.89,92.59c-.17-.09-.35-.19-.52-.28,.29-.08,.43,.06,.52,.28Z"/>
  <path class="cls-7" d="M258.3,79.64c-.25,.11-.44,.06-.58-.16,.25-.11,.44-.06,.58,.16Z"/>
  <path class="cls-11" d="M251.52,78.16c.05,.14,.13,.26,.24,.36-.24-.09-.47-.17-.71-.26,.16-.03,.31-.07,.47-.1Z"/>
  <path class="cls-11" d="M195.74,167.07c.1-.08,.21-.11,.34-.1,0,0-.14,.14-.14,.14l-.2-.04Z"/>
  <path class="cls-10" d="M170.97,77.8c.2,.07,.4,.15,.59,.22-.2-.07-.4-.15-.59-.22Z"/>
  <path class="cls-9" d="M285.21,170.99c.46-.03,.93-.06,1.39-.09-.14,.17-.27,.33-.41,.49-.33-.14-.66-.28-.99-.42,0,0,.01,.01,.01,.01Z"/>
  <path class="cls-9" d="M284.4,172.97c-.22-.24-.45-.48-.67-.72,.07-.05,.13-.1,.18-.16,.19,.27,.39,.53,.58,.8,0,0-.09,.08-.09,.08Z"/>
  <path class="cls-11" d="M114.66,173.22c0,.16-.01,.31-.02,.47,0-.16,.01-.31,.02-.47Z"/>
  <path class="cls-11" d="M153.28,174.91c.16-.09,.32-.18,.48-.27-.16,.09-.32,.18-.48,.27Z"/>
  <path class="cls-11" d="M268.78,176.33c.18,.08,.36,.16,.54,.23-.18-.08-.36-.16-.54-.23Z"/>
  <path class="cls-11" d="M110.89,176.8c-.21,.13-.42,.27-.63,.4,.21-.13,.42-.27,.63-.4Z"/>
  <path class="cls-11" d="M122.11,182.25c.11,.01,.2,.06,.26,.13,0,0-.18,0-.18,0l-.08-.14Z"/>
  <path class="cls-9" d="M115.46,185.2c-.15,.09-.31,.17-.46,.26-.28-.2-.56-.4-.83-.61,.21-.13,.41-.25,.62-.38,.22,.24,.45,.49,.67,.73Z"/>
  <path class="cls-9" d="M113.98,186.09c-.15,.07-.3,.14-.45,.21-.26-.21-.52-.42-.78-.63,.21-.12,.42-.24,.63-.36,.2,.26,.4,.52,.6,.78Z"/>
  <path class="cls-11" d="M180.26,63.84c-.18,.1-.36,.19-.54,.29,.18-.1,.36-.19,.54-.29Z"/>
  <path class="cls-5" d="M153.42,117.29c-.33,.64-.55,1.36-1.02,1.9-.85,.96-1.65,1.66-3.31,.65-2.99-1.8-6.53-1.49-9.77-.79-3.87,.84-7.77,1.51-11.68,2.2-2.19,.39-3.91,1.48-5.47,2.88-2.11,1.89-5.32,2.57-6.93,5.19-2.54-6.08-.37-13.84,8.89-15.95,8.36-1.9,16.78-1.9,25.11,.34,1.53,.41,3,1.02,3.9,2.31,.1,.42,.19,.84,.29,1.26Z"/>
  <path class="cls-5" d="M113.37,185.31c-.21,.12-.42,.24-.63,.36-1.12,.53-2.24,1.07-3.36,1.6-6.84,2.61-13.87,4.49-21.45,4.75,.13-1.02,.68-1.43,1.59-1.52,.48-.05,1.01,0,1.42-.17,.7-.29,2.18,.1,1.95-.97-.18-.85-1.37-.21-2.09-.2-.63,0-1.25,.25-1.89,.27-.65,.03-1.65,.49-1.84-.39-.18-.83,.83-.84,1.51-.96,.71-.12,1.44-.17,2.12-.35,.62-.17,1.79,.06,1.67-.78-.13-.92-1.15-.38-1.79-.33-.88,.07-1.74,.22-2.61,.35-.63,.1-1.27-.07-1.36-.58-.12-.71,.69-.57,1.19-.65,7.59-1.27,14.93-3.15,21.56-6.79,.27-.15,.5-.34,.74-.52,1.25-.65,2.46-1.34,3.47-2.28,.56,0,1.07-1.26,1.66-.13,.88,1.69,2.05,3.15,3.58,4.42,.45,.37,.16,.77-.07,1.14-1.32,.96-2.64,1.91-3.96,2.87-.21,.13-.41,.25-.62,.38-.27,.15-.53,.31-.79,.46Z"/>
  <path class="cls-5" d="M159.74,140.59c-.52-2.58,1.4-3.71,4.4-3.13,9.08,1.74,13,7.93,16.58,14.47,.41,.75,.49,1.63,.79,2.43,.31,.85,.2,1.5-.79,1.95-.89,.4-1.54,.95-2.81,.44-8.22-3.26-13.83-8.71-17.65-15.77-.09-.17-.34-.27-.52-.4,0,0,0,0,0,0Z"/>
  <path class="cls-5" d="M175.41,115.11c-2.99-1.41-6.19-1.57-9.51-1.52-4.22,.07-8.45-.62-12.67,.14-.22,.04-.5,0-.7-.08-3.51-1.59-7.32-2.22-11.82-2.67,3.44-1.9,6.66-2.83,9.95-3.54,6.57-1.43,13.23-2.39,19.93-.87,3.63,.83,6.96,2.24,7.88,5.97-1.29,.61-2.58,1.2-3.06,2.56Z"/>
  <path class="cls-5" d="M288.43,121.11c-.08,1.54,.09,3.8-.75,6-.34,.9-.87,1.65-1.55,2.35-1.04,1.07-2.39,1.04-3.76,.79-1.31-.23-1.3-1.17-1.47-2.12-1.01-5.6-2.14-11.18-3.16-16.78-.4-2.19,.15-4.36,.53-6.53,.15-.84,.51-1.39,1.54-.64,1.57,1.14,3.37,1.89,5.34,2.3,.89,.18,.96,.78,1.16,1.41,1.3,4.09,2.02,8.26,2.13,13.22Z"/>
  <path class="cls-4" d="M212.16,105.78c-.23,1.7-.81,3.01-2.97,3.67-2.04,.62-3.25-.27-3.45-1.55-.78-5.05-4.93-8.08-8.3-11.6-3.39-3.54-5.42-7.56-5.32-12.69,2.26,1.68,4.46,2.71,7.08,2.9,.41,.03,.93,.36,1.14,.69,2.08,3.22,5.11,5.78,7.69,8.65,2.45,2.72,3.25,5.91,4.1,9.13,.01,.27,.02,.55,.03,.82Z"/>
  <path class="cls-5" d="M136.13,147.56c-.21-.67-.4-1.35-.65-2.01-.31-.82-.31-1.5,.7-1.95,.35-.16,.67-.39,.95-.64,2.75-2.37,3.07-2.47,6.14-.3,5.35,3.78,10.08,8.04,13.12,13.59,.93,1.7,1.36,3-.83,4.25-1.95,1.1-3.67,.28-4.68-.72-2.93-2.89-6.42-5.08-10.06-7.15-1.72-.98-2.82-2.49-4-3.91,0-.5-.28-.86-.69-1.16Z"/>
  <path class="cls-5" d="M186.61,61.84c-.04-5.51,2.54-8.58,7.23-9.73,2.64-.65,5.63,.32,7.25,2.24,.71,.84,.7,1.35-.49,1.72-1.28,.39-2.5,.99-3.81,1.22-2.5,.45-3.32,1.14-3.18,3.37,.14,2.21,1.01,4.26,2.01,6.28,1.21,2.46,2.38,4.93,3.47,7.43,.38,.88,1.04,2.13,.16,2.74-.96,.66-2.46,.37-3.65-.1-1.6-.63-2.64-1.82-3.54-3.08-2.91-4.05-5.32-8.26-5.44-12.1Z"/>
  <path class="cls-5" d="M186.6,140.89c.42-1.42-1.14-2.15-1.49-3.3-.22-.74-1.36-1.5-.12-2.18,1.04-.57,1.97-1.75,3.48-1.05,1.33,.61,2.67,.91,4.15,.61,.49-.1,.98-.07,1.33,.28,4.71,4.7,8.99,9.57,9.01,16.31,0,1.52-.79,2.32-2.17,2.93-1.42,.63-2.48-.22-3.52-.75-.52-.26-.73-1.05-1.03-1.61-1.1-2-2.19-4.01-4.35-5.34,0,0-.07-.02-.07-.02-.36-1.26-1.41-2.07-2.39-2.94l-.03-.19-.21-.04c-.1-.33-.2-.65-.72-.43,0,0,0,0,0,0,.15-.97-.29-1.56-1.4-1.75h0c.16-.4,0-.54-.47-.42v-.1Z"/>
  <path class="cls-5" d="M220.68,111.63c2.63,.58,5.31,1.08,7.48,2.66,2.22,1.62,3.52,3.55,3.06,6.26-.3,1.76-1.39,1.59-2.71,1.16-6.73-2.2-13.52-3.67-20.64-1.47-1.45,.45-2.12-.02-2.17-1.32-.12-2.75,.48-5.21,3.45-6.72,.48-.15,.97-.29,1.45-.44,.51-.12,1.02-.24,1.53-.35,.15-.02,.3-.04,.45-.05l.21,.04,.2-.08,5.78,.03c.12,.09,.24,.1,.37,.02,.51,.09,1.03,.18,1.54,.27Z"/>
  <path class="cls-5" d="M116.92,160.35c-.33-.23-.65-.46-.98-.69-2.15-1.74-3.57-3.9-4.62-6.27-.11-.99-.01-1.65,1.49-1.17,1.13,.36,2.47,.47,3.54,.06,2.61-.99,4.43-.02,6.43,1.35,2,1.37,4.36,2.33,6.51,3.53,2.71,1.51,4.67,3.53,5.78,6.25,.68,1.68,.22,2.84-1.21,3.91-.45,.34-.81,.63-1.42,.18-3.34-2.44-7.81-2.97-11.3-5.19-1.28-.81-2.81-1.32-4.23-1.96Z"/>
  <path class="cls-5" d="M173.12,105.83c11.29-3.24,21.54-4.28,30.89,2.59,2.57,1.89,2.75,3.71,.67,5.07-.65,.43-1.16,.64-1.85,.02-2.21-1.99-5.12-2.65-8.08-2.84-4.7-.31-9.42-.37-14.13-.5-.63-.02-1.34,.26-1.79-.29-1.32-1.64-3.16-2.74-5.71-4.04Z"/>
  <path class="cls-5" d="M257.23,98.99c.56-1.93,1.63-2.27,3.37-.9,.53,.41,1.2,.82,1.87,.93,3.83,.62,4.01,2.86,3.58,5.65-.56,3.67-1.35,7.24-3.64,10.41-.99,1.38-2.19,2.62-3.84,3.44-.86,.43-1.78,.85-2.65,.18-.77-.6-1.43-1.28-1.08-2.39,.24-.8,.42-1.75,.15-2.51-1.57-4.39-.01-8.47,1.41-12.58,.28-.74,.56-1.48,.84-2.22Z"/>
  <path class="cls-5" d="M245.34,151.2c.07,1.14-.32,3.01-1.08,4.81-.58,1.4-2.95,1.89-3.81,.67-3.96-5.59-7.75-11.28-8.7-18.02-.09-.63-.47-1.67,.56-1.81,1.42-.19,2.84-1.78,4.18-.61,1.48,1.3,3.94,.9,5.03,2.92,1.95,3.6,3.79,7.16,3.82,12.04Z"/>
  <path class="cls-5" d="M224.06,151.54c.09,2.55-.12,2.5-2.32,1.84-3.33-1-5.24-2.91-6.72-5.66-2.04-3.81-4.93-7.25-6.32-11.37-.42-1.25-.54-2.06,1.17-2.25,1.15-.13,1.76-1.58,3.21-.93,2.15,.96,4.59,1.11,5.84,3.68,2.37,4.89,4.77,9.69,5.15,14.68Z"/>
  <path class="cls-5" d="M285.08,149.55c-1.21,4.41-2.18,8.61-3.52,12.72-1.72,5.24-7.88,8.82-13.32,8.02-.8-.12-1.75-.14-2.11-.82-.41-.74,.64-1.01,1.05-1.46,1.27-1.38,2.3-2.88,3.15-4.48,2.62-4.93,6.26-9.16,11.01-12.64,1.23-.9,1.26-.87,3.75-1.34Z"/>
  <path class="cls-4" d="M202.53,85.44c-2.88,.17-5.63-.32-7.99-1.78-2.55-1.58-3.64-3.88-3.34-6.63,.07-.65,.26-1.56,1.21-.6,2.9,2.93,6.63,2.34,10.28,1.94,4.16-.46,8.3-.62,12.4,.27,1.81,.39,3.42,1.16,4.77,2.34,1.12,.98,1.13,1.54-.58,1.92-5.52,1.21-11.02,2.43-16.75,2.55Z"/>
  <path class="cls-5" d="M190.63,111.67c2.88,.07,5.76,.13,8.49,1.12,2.98,1.08,4.4,3.09,4.8,5.83,.24,1.64-.67,1.87-2.11,1.48-5.65-1.51-11.35-1.35-17.07-.46-1.03,.16-1.87,.71-2.73,1.25-1.38,.86-2.62,.25-2.74-1.22-.38-4.64,2.49-7.54,7.76-7.83,1.2-.07,2.4-.11,3.6-.17Z"/>
  <path class="cls-5" d="M255.64,147.25c.08-1.89,.53-3.6,1.58-5.15,1.08-1.59,2.35-1.54,3.95-.38,5.78,4.2,6.07,9.86,5.63,15.74-.13,1.67-.88,2.8-3.16,2.54-.76-.09-1.6,.11-2.37,.3-.77,.18-1.27,.06-1.46-.64-1.09-3.89-3.67-7.37-4.1-11.44-.04-.35-.05-.7-.07-.96Z"/>
  <path class="cls-4" d="M218.78,109.18c-1.51-.69-2.02-1.72-1.87-3.26,.31-3.03-1.11-5.8-2.12-8.61-1.28-3.58-2.08-7.22-1.77-11.44,2.84,2.15,5.77,3.58,9.15,4.16,.49,.08,.54,.49,.6,.82,1.01,5.26,1.4,10.51-.39,15.72-.34,.98-.91,1.79-1.71,2.51-.63,.03-1.25,.06-1.88,.09Z"/>
  <path class="cls-5" d="M157.44,142.02c2.62,2.64,5.47,5.13,6.48,8.72,.27,.97,.36,1.93,.47,2.92,.13,1.2-.23,1.95-1.62,2.44-1.39,.49-2.63,1.29-4.02,2-2.05-5.05-5.59-9.12-9.86-12.69-1.75-1.46-.43-3.22-1.01-4.75-.02-.06,.32-.34,.48-.33,2.81,.08,6.02-1.77,8.25,1.29,.15,.2,.54,.26,.82,.39,0,0,.02,.01,.02,.01Z"/>
  <path class="cls-5" d="M256.23,122.95c-.32,.83-.15,2.04-1.25,2.54-1,.45-1.86-.17-2.78-.72-3-1.77-6.54-2.29-10-2.77-2.74-.38-5.54-.87-8.34-.09-1.21,.34-1.55-.16-1.31-1.23,.76-3.37,3.52-5.66,7.47-5.9,5.14-.31,9.85,.72,13.83,3.79,1.49,1.14,2.06,2.65,2.39,4.37Z"/>
  <path class="cls-5" d="M242.82,95.71c-.26,5.92-.66,11.13-4.58,15.51-1.04,1.16-2.42,2.83-3.95,2.08-1.36-.66-.37-2.52,.2-3.82,1.18-2.67,1.1-5.43,.28-8.11-1.21-3.97-.77-7.84,.42-11.72,.41-1.34,1.03-1.15,1.93-.28,.8,.77,1.66,1.63,2.7,2.06,2.51,1.02,3.21,2.72,2.98,4.28Z"/>
  <path class="cls-5" d="M311.5,121.51c.32,3.38-.57,6.58-1.81,9.74-.35,.17-.44,.45-.41,.77-.46,.38-.9,.44-1.33-.04,0-4.13-2.06-7.62-4.51-10.95-1.35-1.83-2.77-3.64-4.35-5.33-1.8-1.94-1.98-4.27-2.37-6.55-.21-1.2,.7-.76,1.36-.57,7.24,2.07,12.25,5.95,13.42,12.93Z"/>
  <path class="cls-5" d="M259.88,92.51c-2.46,.21-4.93,.41-7.39,.62-.97-.01-1.93-.03-2.9-.04-3.82-.52-7.57-1.14-10.51-3.68-1.15-.99-1.57-1.38,.42-2.03,3.14-1.03,6.44-1.02,9.62-1.68,.15,0,.31,0,.46,0,3.45,.12,6.86,.46,10.17,1.4,.13,.05,.26,.11,.39,.16,1.56,.69,3.07,1.46,4.38,2.5,.35,.28,.7,.87,1.36,.35,0,.13,.06,.23,.18,.31-.1,.87-.33,1.52-1.62,1.52-1.26,0-2.52,.25-3.78,.39-.26,.07-.52,.13-.78,.2Z"/>
  <path class="cls-4" d="M240.57,85.86c-4.06,1.06-8.01,2.49-12.28,2.88-4.93,.45-9.53-.05-13.58-3.5,4.44-1.09,8.58-2.01,12.66-3.12,4.39-1.19,8.78-1.49,13.25-.55,2.5,.53,3.97,1.41,5.11,3.14-1.15,.27-2.28,.53-3.41,.79-.63-.03-1.28-.15-1.77,.35Z"/>
  <path class="cls-5" d="M155.7,117.29c.73,.95,1.23,0,1.7-.23,4.73-2.4,9.77-2.73,14.97-1.74,2.36,.45,3.86,1.9,4.59,3.93,.6,1.69-.44,2.65-2.47,2.45-6.37-.61-12.55-.18-18.17,2.87-.71,.38-1.41,.38-2.05,.2-.93-.26-.57-1.06-.54-1.64,.08-1.58,.66-3.01,1.64-4.35,.27-.38,1.38-.81,.33-1.49h0Z"/>
  <path class="cls-5" d="M148.9,161.3c.16,0,.32,.01,.48,.02,1.19,.08,2.85-.08,3.27,.82,.4,.88-1.22,1.43-1.98,2.09-3.77,3.37-7.44,6.85-11.91,9.54-2.7,1.63-5.52,2.99-8.95,1.77-.81-.29-1.83-.6-.81-1.63,4.44-4.46,8.68-9.1,15.02-11.67,1.58-.64,3.17-.95,4.87-.94Z"/>
  <path class="cls-5" d="M294.93,151.95c-.74,.62-.74,1.52-1.13,2.27-2.71,4.23-5.92,8.02-11.56,10.3,1.32-3.6,2.23-6.97,2.93-10.36,.73-3.48,1.97-6.61,5.42-8.78,1.01-.64,1.7-1.67,2.58-2.49,.64-.6,1.02-1.86,1.91-1.69,1.12,.21,.79,1.54,1,2.36,.27,1.08,.15,2.24,.2,3.37-.2,.24-.28,.49-.04,.75-.44,1.42-.87,2.85-1.31,4.27Z"/>
  <path class="cls-5" d="M177.6,157.98c-6.08,3.51-11.61,7.17-18.6,8.33-2.23,.37-4.46,.42-6.68-.02-.64-.13-1.7-.3-.64-1.17,4.06-3.32,8.11-6.65,13.31-8.61,4.38-1.65,8.43-1.02,12.6,1.48Z"/>
  <path class="cls-5" d="M126.33,148.46c.75,.22,1.54,.12,2.13-.19,2.12-1.12,3.54-.05,5.09,1.02,4.07,2.81,7.2,6.2,8.88,10.57,.36,.93,.46,1.51-.75,2.04-1.28,.56-2.41,1.39-3.57,2.14-.67,.44-1.26,.8-1.54-.25-1.19-4.47-4.81-7.01-9.12-9.02-.69-.32-1.62-.51-1.84-1.26-.44-1.57-.97-3.16-1.02-4.75-.03-.91,1.13-.25,1.74-.31Z"/>
  <path class="cls-5" d="M251.89,104.05c-1.43,.08-1.62,1.29-2.25,2.03-1.72,2.05-3.57,3.97-5.59,5.79-1.69,1.52-3.6,1.86-6.12,1.61,4.21-4.07,5.84-8.83,6-14.04,0-.27,0-.69,.18-.8,2.14-1.24,3.2-3.48,5.45-4.61,.96,.39,1.94,.32,2.93,.13,3.32-.01,3.44,.14,2.39,3.02-.14,.39-.2,.8-.3,1.19,0,0,.01,.02,.02,.02-.09,.15-.18,.3-.27,.45-.11,.19-.22,.37-.34,.56-.18,.7-1.22,1.22-.58,2.1h0c-1.15,.56-1.78,1.34-1.44,2.55l-.08-.02Z"/>
  <path class="cls-5" d="M105.39,145.56c-1.29-2.97-1.97-5.96-.57-9.06,1.08-.53,1.2,.39,1.52,.84,2.33,3.3,5.77,5.01,10.07,5.4,1.01,.09,1.63,.35,2,1.17,.65,1.44,1.81,2.54,3.37,3.17,1.9,.77,.94,1.42-.01,2.01-5.6,3.45-11.68,2.58-15.46-2.31-.31-.4-.61-.82-.92-1.23Z"/>
  <path class="cls-5" d="M296.28,118.81c1.18,4.05-2.17,7.42-4.07,11.16-.55,1.08-3,1.33-4.04,.6-.44-.31-.57-.61-.28-1.08,2.84-4.58,1.99-9.5,1.38-14.31-.3-2.37-.06-4.43,1.29-6.48,.63-.95,1.16-1.47,2.59-1.25,1.45,.22,2.05,.72,2.23,1.98,.43,2.94,1.03,5.87,.89,9.38Z"/>
  <path class="cls-5" d="M259.79,119.66c4.57-3.27,6.25-7.61,7.17-12.29,.17-.88,.56-1.58,1.38-2.15,.69-.48,1.53-.98,1.84-1.64,1.29-2.76,3.9-1.82,6.13-1.79,1.2,.02,1.12,.84,1.07,1.72-.35,6.63-5.18,10.81-10.26,14.88-.29,.23-.65,.53-.99,.55-2.12,.08-4.21,.27-6.34,.72Z"/>
  <path class="cls-5" d="M265.52,120.31c4.75,.74,10.04,1.99,13.28,6.59,1.24,1.76,1.35,3.6,.05,5.39-.32,.45-.73,1-1.35,.05-1.75-2.67-4.87-3.65-7.93-4.41-3.62-.89-7.16-2.55-11.2-1.45-.68,.19-1.88-.17-1.36-1.55,1.14-3.04,3.74-4.7,8.5-4.62Z"/>
  <path class="cls-5" d="M185.35,142.44c.22,1.9,1.7,3.41,2.05,5.27,.15,.76,.43,1.5,.55,2.27,.47,2.98-.7,4.29-4.03,4.73-1,.13-1.03-.4-1.16-.95-.96-3.97-3.03-7.49-6.24-10.31-2.39-2.1-3.44-4.39-3.13-7.43,1.83,.42,3.58,1.01,5.64,.42,1.3-.37,1.87,1.52,3.01,2.14,.49,.6,.99,1.2,1.48,1.79,.64,.64,.59,1.76,1.78,2.03,0,0,.04,.05,.04,.05Z"/>
  <path class="cls-5" d="M143.33,119.8c3.17,.17,6.04,.64,7.52,3.44,.79,1.48,.03,2.71-1.72,2.31-3.51-.8-6.47,.53-9.52,1.41-3.08,.9-6.42,1.29-9.11,3.08-.82,.55-1.14-.1-1.48-.54-1.65-2.07-.94-4.6,1.95-6.37,3.73-2.28,8.05-2.99,12.36-3.34Z"/>
  <path class="cls-5" d="M283.91,172.09c-.06,.06-.12,.11-.18,.16-.3,.22-.6,.44-.9,.66-1.94,1.24-4.06,2.18-6.32,2.86-.16,.04-.32,.07-.48,.11-4.87,.58-9.03-.47-12.01-4.15-.31-.39-.85-.83-.43-1.29,.44-.49,.98-.08,1.5,.12,5.29,2.03,9.92,1.19,14.09-2.7,1.13-1.06,2.32-1.85,3.85-2.35,2.28-.74,4.17-2.05,5.93-3.51,.6-.5,1.18-.93,1.18,.32-1.02,2.64-2.08,5.26-3.96,7.56-.14,.17-.29,.34-.43,.51,0,0-.01,.02-.01,.02-.18,.12-.49,.18-.32,.49,0,0-.2,.1-.2,.1,0,0-.01-.01-.01-.01-.43,.37-.86,.74-1.28,1.11Z"/>
  <path class="cls-5" d="M255.6,140.32c-.68-.11-1.4-.16-2.08-.35-3.49-.95-3.88-2.35-1.26-4.51,2.46-2.03,4.88-4.08,6.18-6.92,.4-.88,1.19-1.19,2.29-1.22,1.65-.05,3.15,.47,4.7,.77,2.31,.45,2.82,1.45,1.6,3.34-1.83,2.83-4.08,5.39-6.95,7.5-1.29,.95-2.84,1.2-4.48,1.39Z"/>
  <path class="cls-5" d="M276.74,137.5c-.07,1.35,.04,3.27,.97,5.03,.41,.78,.24,1.32-.3,1.92-.69,.77-.95,1.66-.49,2.58,.8,1.57-.39,1.36-1.33,1.11-3.3-.85-5.21-2.97-6-5.79-1.11-3.94-.88-7.98-.68-12,.04-.87,.25-1.28,1.44-.99,4.92,1.21,6.53,3.05,6.4,8.13Z"/>
  <path class="cls-5" d="M204.22,152.63c.51-5.7-2.15-10.13-5.53-14.34-1.36-1.69-.38-3.63,1.81-4.26,2.23-.64,3.52-.09,4.99,1.5,4.09,4.41,4.54,9.46,4,14.78-.07,.67-.47,1.03-1.12,1.21-1.27,.36-2.56,.69-4.16,1.11Z"/>
  <path class="cls-5" d="M246.69,165.62c4.88-1.37,9.57-2.68,14.26-4,2.28-.64,4.6-.43,6.91-.27,1.51,.1,1.77,.7,1.05,1.99-4.19,7.51-15.47,8.76-22.22,2.28Z"/>
  <path class="cls-5" d="M300.64,102.62c.06,.07,.1,.12,.11,.12,1.82,1.48,3.11,3.22,3.49,5.42,.19,1.12-.11,1.44-1.38,.86-4.55-2.07-9.49-2.82-14.54-3.25-3.54-.3-6.76-1.34-9.44-4.01,1.7-.28,3.09-.5,4.47-.73,0,0,.04-.03,.04-.03,.62-.1,1.24-.23,1.86-.3,5.32-.6,10.63-1.07,15.38,1.91Z"/>
  <path class="cls-5" d="M173.29,161.88c5.02-2.57,9.42-5.93,15.04-7.37,3.44-.88,6.78-.47,9.95,1.12-9.01,6.71-19.26,10.62-24.99,6.24Z"/>
  <path class="cls-5" d="M123.37,126.11c2.7,0,4.01,1.15,4.02,3.48,0,.82-.71,1.04-1.27,1.38-2.77,1.72-5.3,3.65-6.94,6.33-.38,.62-.76,1.25-1.01,1.91-.98,2.64-1.25,2.73-4.4,1.81-1.19-.34-2.05-.76-1.84-2.04,.81-5.07,3.39-9.21,8.24-12.11,1.16-.69,1.93-.76,3.19-.76Z"/>
  <path class="cls-5" d="M221.68,154.68c-6.63,2.52-12.31,5.65-19.1,6.05-2,.12-3.98,.03-5.88-.66-1.12-.41-1.49-.78-.26-1.5,2.99-1.76,5.83-3.71,9.17-4.96,5.34-2,10.48-1.6,16.08,1.06Z"/>
  <path class="cls-5" d="M290.87,133.16c.78,1.97,1.89,3.15,3.42,3.76,1.46,.58,1.27,1.1,.53,2-2.63,3.22-5.38,6.34-9.12,8.65-2.33,1.44-4.45,1.47-6.4,.16-1.36-.92-1.6-1.88-.4-3.02,.44-.41,.82-.89,1.31-1.24,3.28-2.41,6.11-5.19,8.79-8.1,.65-.71,1.24-1.47,1.86-2.2Z"/>
  <path class="cls-5" d="M214.36,120.36c.26,0,.74-.03,1.22,0,2.64,.2,3.01,.69,2.12,2.97-1.29,3.31-3.1,6.33-6.34,8.5-.76,.51-1.56,1.05-2.44,1.29-1.58,.43-3.21,.38-4.42-.83-1.07-1.08-.32-2.13,.3-3.11,1.25-1.97,2.4-3.96,2.71-6.27,.16-1.17,1.08-1.86,2.37-2.1,1.4-.26,2.8-.59,4.48-.46Z"/>
  <path class="cls-4" d="M225.08,97.73c-1.36-2.57,1.08-4.63,2.41-6.97,.81-1.42,2.44-.87,3.65-1.03,.91-.11,.86,1.07,.93,1.72,.67,6.07-1.07,11.62-4.82,16.7-.47,.64-1.19,1.15-1.84,1.67-.83,.66-1.88,1.05-2.84,.4-1.2-.81,.28-1.3,.57-1.88,1.64-3.25,1.83-6.69,1.95-10.61Z"/>
  <path class="cls-5" d="M153.59,136.39c.15,2.01-3.08,3.46-5.57,2.47-1.42-.56-2.55-1.49-3.45-2.57-1.03-1.25-2.12-2.53-2.79-3.94-.66-1.4-3.3-3.33-.64-4.41,5.12-2.08,7.25-2.28,9.36,.99,1.82,2.83,2.96,5.61,3.09,7.46Z"/>
  <path class="cls-5" d="M175.78,168.5c-2.03,1.26-4.37,1.93-6.63,2.78-1.31,.22-2.63,.44-3.94,.67-.68,.03-1.36,.06-2.04,.09-4.71-.05-9.14-1.06-13.33-2.94-.59-.27-1.6-.36-1.17-1.23,.34-.69,1.11-.91,2.04-.69,1.31,.32,2.61,.62,4,.67,4.38,.17,8.4-.99,12.19-2.71,1.81-.82,3.04-1,4.55,.46,1.2,1.16,2.87,1.94,4.34,2.89Z"/>
  <path class="cls-5" d="M191.28,124.05c-.82,3.12-1.92,6.57-5.02,9.2-.82,.7-1.86,1.06-3.02,1.18-2.41,.24-3.36-.58-2.87-2.63,.61-2.56,1.41-5.07,1.52-7.71,.08-1.87,1.39-2.94,3.46-3.28,.63-.1,1.26-.21,1.9-.3,3.53-.48,4.07-.06,4.04,3.54Z"/>
  <path class="cls-2" d="M170.12,76.91c-.13-.07-.26-.18-.4-.22-4.25-.98-4.48-1.44-2.4-4.86,.11-.03,.22-.05,.33-.06,.65,0,1.3,.01,1.95,.02-.44,.91-.95,1.95,.05,2.69,1.6,1.17,3.44,.67,5.38,.44-.47-.86-1.08-.64-1.57-.66q-3.49-.14-2.83-2.87h0c.49,.15,.69,.05,.48-.42h0c.19-.02,.38-.04,.57-.06-.03-.12-.06-.24-.1-.36h0c.19,.04,.46,.18,.57,.12,2.91-1.7,5.84-3.37,9.12-4.5,.62-.21,.53-.62-.04-.9-.02-.25-.05-.51-.07-.76q4.07-1.67,5.44,2.26c.2,.56,.88,1.13-.09,1.64-2.36,.6-4.76,1.12-7.08,1.82-2.06,.62-2.21,1.57-.63,2.85,.76,.62,1.52,1.24,2.28,1.86-.48,.83-1.69,.45-2.28,1.09-.6-.03-1.2-.01-1.69,.36-2.28,.73-4.66,.33-6.98,.51Z"/>
  <path class="cls-5" d="M191.82,91.55c-6.49-1.65-10.83-5.75-14.87-10.19-.65-.71-1.32-1.4-1.99-2.1-.38-.62-1.3-1.3,.46-1.49,1.16-.12,2.29-.48,3.43-.73,.14-.05,.27-.1,.41-.15,0,0,.02,0,.02,0,.45-.09,.91-.17,1.36-.26,2.62,2.95,5.19,5.95,9.35,7.39,.2,.07,.51,.26,.51,.39-.06,2.46,1.39,4.69,1.32,7.14Z"/>
  <path class="cls-5" d="M244.29,164.74c-.64,.02-1.28,.04-1.91,.06-1.31-.43-2.61-.56-3.87,.12-3.38-.05-5.81-1.5-7.81-3.98,8.28-2.36,16.28-4.51,24.41,.88-3.25,1.24-6.26,2.04-9.34,2.66-.67-.69-1.05-.13-1.47,.27Z"/>
  <path class="cls-5" d="M237.23,122.76c5.72,.11,5.75,.14,3.69,4.53-.61,1.3-1.15,2.64-1.9,3.89-1.5,2.51-3.8,4.1-7.11,4.33-2.22,.15-3.62-1.49-2.52-3.17,1.65-2.52,3-5.11,3.98-7.89,.63-1.79,2.45-1.78,3.86-1.69Z"/>
  <path class="cls-5" d="M230.28,143.99c-.07,2.87-.98,5.52-2.49,8.05-.39,.65-.91,1.04-1.66,.96-.93-.1-.6-.87-.65-1.37-.4-4.4-1.78-8.6-3.97-12.52-.95-1.71,.17-2.67,.77-3.88,.64-1.27,1.66-.11,2.5-.19,4.55-.46,3.65,3.22,4.88,5.2,.66,1.05,.73,2.45,.62,3.74Z"/>
  <path class="cls-5" d="M195.35,120.37c6.29,.21,6.47,.33,7.32,5.76,.21,1.36,.85,2.72,.12,4.13-.41,.79,.5,1.99-1.21,2.4-1.69,.41-3.11,.26-4.46-.73-2.01-1.48-2.75-3.59-3.56-5.64-.42-1.05-.63-2.17-.83-3.27-.51-2.76-.49-2.76,2.62-2.66Z"/>
  <path class="cls-5" d="M171.08,122.51c2.59-.46,3.85,.82,4.73,2.72,.66,1.43,1.2,2.98,2.24,4.18,1.34,1.54,.85,3.27,.96,4.85,.09,1.27-1.74,1.42-3.02,1.19-1.44-.26-2.6-1.06-3.59-2.01-2.4-2.31-4.24-4.95-5.71-7.79-.94-1.81-.42-2.61,1.76-2.92,.87-.12,1.75-.15,2.62-.23Z"/>
  <path class="cls-5" d="M215.53,158.56c5.5-2.24,10.36-4.9,16.25-5.04,2.75-.07,4.9,1.11,6.68,2.87,.7,.69,.76,1.05-.51,1.36-4.22,1.06-8.42,2.23-12.78,2.74-3.26,.38-6.37-.1-9.63-1.93Z"/>
  <path class="cls-5" d="M137.58,140.19c-.68,1.3-1.63,2.36-3.19,2.9-.15,.03-.3,.06-.44,.09-3.08-.78-3.9-1.7-3.78-4.52,.09-2.04,.34-4.07,.51-6.1,.13-1.53,1.39-2.11,2.77-2.58,5.3-1.81,5.23-1.81,5.36,3.11,.06,2.29-.51,4.46-.99,6.67-.08,.15-.16,.3-.24,.45Z"/>
  <path class="cls-5" d="M300.51,120.13c.26,.07,.41,.09,.54,.15,2.39,1.02,3.79,5.7,2.31,7.66-1.69,2.23-3.28,4.52-5.06,6.69-.74,.91-1.57,2.13-3.3,1.27-1.64-.82-2.5-1.98-2-3.68,.68-2.34,1.83-4.5,3.29-6.54,1.15-1.61,2.33-3.21,3.51-4.8,.21-.28,.5-.52,.72-.74Z"/>
  <path class="cls-5" d="M252.17,146.32c.13,3.7-.69,6.91-2.35,9.95-.71,1.3-2.65,1.72-3.99,.97-.61-.34-.32-.68-.17-1.07,1.69-4.49,1.24-8.89-.64-13.25-.4-.92,.68-3.74,1.43-3.94,1.35-.36,4.31,.86,4.84,2.01,.83,1.81,.68,3.75,.88,5.32Z"/>
  <path class="cls-5" d="M165.02,125.07c-.57,3.6-.72,7.31-3.42,10.4-.72,.82-1.52,1.46-2.57,1.83-1.17,.42-2.36,.48-3.43-.24-1.14-.76-.79-1.89-.44-2.74,.94-2.29,1.57-4.57,1.38-7.03-.11-1.36,.88-2.28,2.23-2.74,1.33-.46,2.79-.62,4.13-1.07,1.92-.65,2.28,.14,2.12,1.59Z"/>
  <path class="cls-5" d="M243.18,127.36c.06-.84,.04-1.48,.17-2.1,.24-1.22,.9-1.96,2.47-1.42,.15,.05,.31,.08,.46,.12,5.27,1.3,6.44,2.02,5.93,4.51-.49,2.38,.78,5.22-2.04,7.1-.31,.21-.54,.53-.73,.83-1.33,2.02-2.19,2.08-3.64,.08-2.06-2.83-2.15-6.13-2.62-9.13Z"/>
  <path class="cls-5" d="M148.89,176.12c-3.07,1.27-6.3,2.12-9.6,2.76-2.8,.13-5.59,.23-8.27-.72,.04-.29,.08-.58,.11-.87,4.69,.16,8.32-1.95,11.4-4.63,2.93-2.55,5.6-4.08,9.4-1.4,.75,.53,1.89,.63,3.01,.97-1.71,1.84-4.07,2.64-6.05,3.88Z"/>
  <path class="cls-5" d="M228.48,127.83c-.09,1.27,0,2.57-.3,3.8-.63,2.54-3.31,3.12-5.44,1.23-1.55-1.37-1.96-3.24-2.39-5.01-.45-1.86-.56-3.78-.86-5.67-.15-.94,.2-1.36,1.3-1.2,.48,.07,.95,.14,1.42,.22,6.25,.98,6.31,1.04,6.28,6.64Z"/>
  <path class="cls-5" d="M266.06,90.41c-.12-.07-.18-.18-.18-.31-1.02-2.89-4.07-3.46-6.71-4.34-1.83-.61-3.86-.86-5.82-1.05-1.28-.13-1.99-.57-2.55-1.54-.83-1.43-2.07-2.63-3.65-3.86,2.01-.52,3.67,.05,5.34,.12,.16,.03,.32,.05,.48,.08,1.26,.27,2.53,.55,3.79,.82,.16,.04,.32,.08,.48,.12l1.01,.34c1.75,.84,3.5,1.67,5.26,2.51,.35,.27,.7,.55,1.05,.82,.33,.56,.79,1,1.41,1.32,.79,.92,1.15,2.14,2.47,2.69,0,0-.03,.02-.03,.02-.22,.45-.19,.8,.49,.85,0,0,.03,.02,.03,.02-.78,.86,1.06,1.82,.05,2.46-1.34,.85-1.55-1.12-2.66-1.12-.08,0-.16,.03-.23,.05Z"/>
  <path class="cls-4" d="M213.95,72.64c1.59,.49,3.18,.97,4.77,1.46,.4,.12,.79,.24,1.19,.36,.24,.16,.48,.31,.72,.47,2.33,1.16,4.34,2.61,5.84,4.61,.7,.94,.43,1.38-.65,1.71-1.8,.55-3.26,1.06-4.87-.83-2.55-3-6.64-3.41-10.6-3.66-3.08-.2-4.06-1.55-2.96-4.18,.59-1.41,2.01-.24,2.92-.68,.5,.37,1.11,.38,1.72,.4,.59,.34,1.25,.36,1.91,.35Z"/>
  <path class="cls-5" d="M127.16,147.01c-3.75,.07-6.83-1.68-7.75-4.05-.77-1.97,.84-6.02,2.87-7.48,.66-.47,.94-.29,1.28,.22,2,2.97,5.19,5.07,7.45,7.85,.9,1.1-.61,3.18-2.56,3.45-.62,.09-1.27,.01-1.29,.01Z"/>
  <path class="cls-5" d="M193.19,166.87c-4.53,1.35-9.17,1.74-13.92,1.36-2.76-.9-5.28-2.16-7.51-3.87-.35-.27-.86-.67-.54-1.06,.37-.46,1.02-.3,1.53-.03,5.56,2.99,10.93,1.73,16.14-.71,1.72-.8,2.96-.97,4.44,.35,1.03,.92,2.42,1.51,3.79,2.33-1.2,.94-2.74,.97-3.93,1.62Z"/>
  <path class="cls-4" d="M233.02,75.21c.96,.5,2.03,.44,3.09,.42,3.81,1.17,7.52,2.47,10.57,4.95,1.19,.96,1.99,2.16,3.13,3.13,0,.12,.04,.23,.13,.32-.91,.82-1.95,.83-2.66-.05-2.61-3.21-6.47-3.87-10.53-4.19-.64-.05-1.34-.19-1.91-.02-5.22,1.55-8.2-.92-10.5-4.61,.34-.05,.8-.12,1.25-.19,.4,.17,.77,.11,1.12-.12,2.1,.12,4.21,.23,6.31,.35Z"/>
  <path class="cls-4" d="M212.05,99.81c-.98-2.85-2.92-5.23-5.28-7.22-2.44-2.06-.21-3.83,.15-5.62,.27-1.34,2.37-.55,3.57-1.02,.7-.28,.97,.31,.94,.86-.24,5.41,1.88,10.39,3.64,15.44,.48,1.38,.39,2.79,.4,4.2,.01,1.26-.68,1.97-2.45,2.16,.29-2.13,.27-4.19-.13-6.23-.09-.21-.18-.42-.28-.64,.06-.08,.05-.15-.05-.2-.05-.61,.02-1.24-.51-1.74Z"/>
  <path class="cls-5" d="M265.19,174.91c-8.42,1.8-16.87-1.22-20.74-7.31-.28-.43-1.07-.93-.39-1.47,.73-.58,1.14,.24,1.55,.55,4.16,3.14,8.97,4.53,14.4,4.2,1.14-.07,1.92,.07,2.55,1.06,.65,1.02,1.63,1.87,2.63,2.97Z"/>
  <path class="cls-5" d="M276.07,151.82c.23,1.3-.34,2.33-1.3,3.27-1.46,1.42-2.77,2.95-3.74,4.65-.73,1.29-1.63,.67-2.6,.47-1.36-.28-.71-.95-.5-1.6,.74-2.43,.88-4.92,.18-7.34-.6-2.08,1.75-2.65,2.27-4.11,.02-.06,.33-.13,.4-.08,1.5,1.05,3.1,1.9,4.89,2.58,.81,.3,.29,1.43,.41,2.16Z"/>
  <path class="cls-5" d="M206.12,71.5c-.05,1.02-.08,1.8-.14,2.57-.19,2.65-.63,3.02-3.51,3.18-.96,.05-1.48-.17-1.57-1.11-.18-1.92-1.03-3.69-1.93-5.41-.64-1.24-.4-2.48-.31-3.74,.08-1.14,1.2-.96,1.96-1.17q4.91-1.34,5.32,3.18c.08,.91,.12,1.83,.16,2.5Z"/>
  <path class="cls-5" d="M203.36,165.71c-.16-.07-.33-.13-.49-.2-3.34-.62-6.36-1.86-9.05-3.69-.4-.27-1.38-.47-.71-1.25,.42-.49,.93-.35,1.49-.08,4.74,2.26,9.58,1.81,14.42,.31,1.12-.35,1.87-.31,2.66,.63,1.08,1.29,2.42,2.4,3.82,3.76-4.1,1.04-8.11,.86-12.13,.53Z"/>
  <path class="cls-5" d="M228.07,167.32c-1.49-.13-2.98-.26-4.47-.39-4.31-.81-7.77-2.83-10.54-5.82-.38-.41-1.13-.83-.54-1.41,.55-.54,1.43-.77,2.18-.27,3.28,2.17,7,2.62,10.92,2.13,1.06-.13,1.45,.36,1.79,1.02,.8,1.55,1.89,2.93,3.16,4.21-.72,.75-1.7,.28-2.5,.52Z"/>
  <path class="cls-5" d="M241.91,171.14c-2.44-.76-4.92-1.42-7.16-2.61-3.8-2.71-5.58-4.79-6.11-7.14,.08,0,.19-.05,.22-.02,3.3,3.37,7.26,5.37,12.5,4.87,.68-.07,.89,.43,1.19,.86,.95,1.37,1.96,2.7,3.18,4.36-1.43-.12-2.63-.22-3.82-.32Z"/>
  <path class="cls-5" d="M278.65,124.21c-2.47-1.79-5.04-3.14-7.95-4.02-1.75-.53-2.01-1.43-.56-2.61,.88-.71,1.8-1.43,2.48-2.29,.96-1.2,1.55-1.13,2.69-.07,2.75,2.55,3.08,5.73,3.33,8.99Z"/>
  <path class="cls-5" d="M279.22,142.38c-1.35-1.9-1.04-3.91-1.06-5.86,0-.27,.06-.58,.21-.81,.69-1.04,7.8-2.23,8.9-1.51,.52,.34,.38,.7,.03,1.07-2.44,2.58-4.87,5.18-8.08,7.11Z"/>
  <path class="cls-5" d="M251.01,106.46c1.81,2.93,2.7,5.65,2.68,8.6,0,1.14-.38,1.64-1.68,.87-1.54-.93-3.3-1.38-5.09-1.78-2.1-.47-2.27-.98-.83-2.33,1.7-1.59,3.29-3.25,4.92-5.36Z"/>
  <path class="cls-5" d="M123.35,170.31c.15-1.68,1.52-2.94,3.49-3.58,1.94-.63,3.32,.62,4.7,1.59,.72,.5,.29,1.01-.15,1.45-1.59,1.59-3.23,3.14-4.78,4.75-.75,.77-1.23,.72-1.78-.13-.76-1.17-1.5-2.34-1.48-4.08Z"/>
  <path class="cls-6" d="M192.3,99.92c.4,.07,.79,.14,1.19,.22,.21,1.86-.72,2.37-2.79,2.2-6.4-.54-12.56,.42-18.46,2.66-.61,.23-1.18,.43-2.02,.13,1.41-1.5,3.69-1.56,5.23-2.68,2.4-.61,4.81-1.22,7.21-1.82,3.21-.32,6.4-.76,9.64-.7Z"/>
  <path class="cls-12" d="M234.67,45.41c.75,1.23-.68,1.05-1.17,1.23-8.42,3.19-16.87,6.34-25.33,9.47-4.18,1.55-8.4,3.02-12.6,4.53-.15-.21-.29-.42-.44-.63,.52-.16,1.06-.31,1.57-.5,12.66-4.7,25.31-9.4,37.97-14.1Z"/>
  <path class="cls-8" d="M234.67,45.41c-12.65,4.7-25.31,9.41-37.97,14.1-.51,.19-1.04,.33-1.57,.5-.38-1.12,.71-1.05,1.37-1.28,2.66-.92,5.37-1.73,7.81-3.1,8.7-3.21,17.4-6.42,26.11-9.62,1.4-.51,2.83-.95,4.24-1.42,0,.27,0,.54,0,.81Z"/>
  <path class="cls-3" d="M232.57,112.74c-.09,.47-.19,1.1-.34,1.71-.27,1.14-.71,1.32-1.58,.28-.9-1.09-2.15-1.87-3.51-2.5-1.05-.49-1.49-.94-.38-1.86,.98-.81,1.86-1.75,2.57-2.75,.81-1.14,1.24-1.31,1.92,.07,.78,1.57,1.15,3.2,1.32,5.05Z"/>
  <path class="cls-6" d="M268.22,142.83c.23,.89-.35,.88-1.09,.76-2.34-.39-4.04-1.65-5.46-3.22-.45-.49,1.64-3.18,2.81-3.45,1.1-.26,2.48-.22,2.84,.9,.52,1.62,.62,3.34,.9,5.01Z"/>
  <path class="cls-5" d="M165.78,136.57c-1.83,.07-2.5-.82-1.72-2.31,.78-1.47,1.36-2.99,1.69-4.59,.08-.41-.01-.94,.54-1.08,.74-.18,.84,.51,1.13,.87,.51,.63,1.03,1.26,1.4,1.96,.47,.9,2.25,1.48,1.46,2.59-.98,1.36-2.59,2.26-4.5,2.55Z"/>
  <path class="cls-5" d="M128.57,139.11c-1.86-1.27-2.78-2.75-3.9-4.08-.58-.69-.59-1.24,.25-1.77,1.2-.75,2.37-2.31,3.76-1.78,1.41,.53,.59,2.25,.54,3.44-.05,1.3-.39,2.6-.65,4.19Z"/>
  <path class="cls-5" d="M241.99,129.04c.42,2.55,.78,4.41,1.51,6.18,.25,.61,.03,.98-.64,1.09-1.59,.26-3.15,.16-4.62-.46-.51-.21-1.09-.69-.51-1.14,1.81-1.42,2.55-3.47,4.26-5.67Z"/>
  <path class="cls-5" d="M218.36,125.87c.49,1.66,1.01,2.84,1.15,4.05,.1,.83,1.63,1.99-.06,2.52-1.68,.53-3.6,.68-5.31-.18-.52-.26-.34-.71,.04-1.06,1.61-1.46,2.62-3.3,4.18-5.34Z"/>
  <path class="cls-5" d="M192.09,126.85c.92,1.62,1.91,3,2.51,4.5,.74,1.84-1.26,1.98-2.45,2.39-1.06,.36-2.37,.19-3.12-.62-.74-.8,.51-1.32,.82-1.97,.66-1.4,1.43-2.75,2.24-4.29Z"/>
  <path class="cls-6" d="M128.76,110.94c4.64-2.1,9.09-3.04,14.05-2.88-2.91,2.57-8.88,3.82-14.05,2.88Z"/>
  <path class="cls-3" d="M203.87,106.48c-2.16-.99-4.05-1.86-5.94-2.72-.48-.22-1.14-.34-.84-1.03,.43-.98,.73-2.09,1.74-2.69,.73-.44,1.05,.42,1.41,.8,1.52,1.6,3.02,3.23,3.64,5.65Z"/>
  <path class="cls-6" d="M253.57,141.11c1.9,0,2.73,.57,1.66,2.28-.25,.4-.26,.92-.39,1.38-.03,.16-.06,.32-.09,.48-.7,2.34-.04,4.59,.64,6.83,.18,.59,.7,1.29-.35,1.57-.8,.22-.99-.49-1.31-.97-.56-.83-.65-1.66-.52-2.62,.27-2.02,.43-4.06-.07-6.08,.02-.06,.07-.13,.06-.19-.03-.13-.1-.24-.15-.36,.63-.69-1.46-1.89,.56-2.32,0,0-.04,0-.04,0Z"/>
  <path class="cls-5" d="M140.44,133.1c1.22,1.57,2.22,2.91,3.29,4.21,.54,.66,.69,1.18-.07,1.82-1.04,.86-2.15,1.08-3.5,.72-1.26-.33-.66-1.08-.56-1.71,.25-1.59,.53-3.18,.85-5.04Z"/>
  <path class="cls-6" d="M179.61,129.24c-1.73-1.95-2.39-4.09-3.29-6.06-.44-.97,1.32-.92,2.1-1,.91-.09,2.23-.25,2.2,1.23-.04,1.9-.38,3.75-1.01,5.84Z"/>
  <path class="cls-6" d="M154.02,132.74c-.91-1.67-1.75-3.25-2.64-4.81-.34-.6-1.19-1.4,.06-1.63,1.16-.22,3.17-1.12,3.55,.35,.49,1.94,.75,4.18-.98,6.09Z"/>
  <path class="cls-8" d="M181.16,64.51c.02,.25,.05,.51,.07,.76-.78,.33-1.57,.63-2.33,.99-2.6,1.22-5.46,2.09-7.31,4.3,0,0,0,0,0,0-.37-.04-.52,.1-.48,.42,0,0,0,0,0,0-.36-.04-.52,.1-.48,.42,0,0,0,0,0,0-.34,.13-.68,.27-1.03,.4-.65,0-1.3-.01-1.95-.02,2.88-2.91,6.74-4.53,10.52-6.26,.71-.32,1.44-.6,2.16-.9,.28-.04,.56-.07,.84-.11Z"/>
  <path class="cls-10" d="M187.9,69.33c-2.85,0-5.37,1.18-8.02,1.86-1.11,.28-.82,.82-.14,1.35,.7,.55,1.61,.94,1.93,1.81-.2,.2-.4,.4-.59,.6-.76-.62-1.52-1.24-2.28-1.86-1.58-1.29-1.43-2.23,.63-2.85,2.32-.7,4.72-1.22,7.08-1.82,.25,.56,1.25,.24,1.39,.92Z"/>
  <path class="cls-6" d="M279.51,133.8c.62-1.83,1.38-3.1,3.81-2.42,.82,.23,1.71-.07,2.57-.33,.94-.29,1.55,.21,1.69,1.04,.16,.92-.51,1.02-1.34,.95-2.24-.19-4.38,.43-6.72,.78Z"/>
  <path class="cls-6" d="M125.49,165.76c-1.23,.92-1.96,1.9-3.53,1.61-1.51-.27-1.77-1.31-1.97-2.33-.11-.56-.82-1.39,.03-1.7,.81-.3,1.56,.51,2.32,.84,.98,.43,1.92,.95,3.15,1.57Z"/>
  <path class="cls-6" d="M253.23,132.8c.14-1.76,.22-3.02,.35-4.28,.06-.58-.36-1.4,.62-1.63,.97-.22,2.01,.02,2.71,.58,.79,.63-.07,1.34-.42,1.87-.75,1.13-1.58,2.25-3.26,3.46Z"/>
  <path class="cls-6" d="M233.42,108.81c-.89-1.46-1.57-2.48-2.15-3.54-.58-1.07,.1-1.98,.88-2.64,.68-.58,1.42-.45,1.65,.6,.38,1.75,.22,3.45-.37,5.57Z"/>
  <path class="cls-6" d="M254.23,158.66c0-.07,.09,.45-.31,.52-1.08,.2-1.9-.52-2.83-.85-.56-.19-.65-.56-.39-1.02,.28-.51,.45-1.1,.85-1.51,.59-.6,.02-2.08,1.35-1.87,.78,.13,.77,1.41,.98,2.21,.18,.68,.2,1.4,.34,2.51Z"/>
  <path class="cls-6" d="M203.05,121.64c3.28-.62,3.72-.26,2.83,2.45-.32,.98-.45,2.07-1.57,2.96-.44-1.88-.85-3.64-1.26-5.41Z"/>
  <path class="cls-6" d="M129.05,122.23q-1.41,3.45-5.8,2.49c1.69-1.49,3.43-2.41,5.8-2.49Z"/>
  <path class="cls-6" d="M209.95,110.46c.76-.4,1.53-.8,2.29-1.2,.8,.43,1.6,.41,2.4,0,1.31-.6,2.3-.32,2.96,.85-.99,.8-2.18,.91-3.33,.5-.92-.32-1.69-.27-2.51,.12-.54,.01-1.07,.02-1.61,.03,.03-.15-.04-.25-.2-.3Z"/>
  <path class="cls-6" d="M191.81,146.77s.07,.02,.07,.02c-.15-.03-.32-.11-.45-.08-.8,.21,.4,1.63-1.02,1.41-1.04-.17-1.81-.76-2.19-1.7-.37-.91-.8-1.8-1.21-2.7,.15-.21,.3-.42,.45-.63,.31,.2,.6,.67,.99,.07h0c0,.18-.1,.42,0,.53,.26,.31,.51,.08,.73-.09l.21,.04s.03,.19,.03,.19c-.21,0-.59-.01-.6,.03-.27,1.17,1.51,2.87,3,2.91Z"/>
  <path class="cls-6" d="M255.52,159.69c-.07-1.12-.15-2.03-.17-2.94-.02-.7-.83-1.75,.39-2,1.4-.3,1.05,1.11,1.45,1.74,.96,1.5,.58,2.64-1.67,3.2Z"/>
  <path class="cls-4" d="M195,98.89c.92,.79,1.1-.26,1.58-.52,.37-.2,.69-.34,1.06-.08,.41,.29,.19,.6,0,.92-.58,.99-1.15,1.98-1.71,2.98-.23,.42-.53,.73-1.09,.54-.64-.23-.24-.68-.23-1.07,.03-.91,1.44-1.7,.32-2.71,0,0,.06-.07,.06-.07Z"/>
  <path class="cls-6" d="M229.69,128.18c0-1.25,.03-2.5-.02-3.75-.02-.47-.37-.98,.35-1.26,.61-.23,1.27-.23,1.84,.05,.89,.44,.15,.97-.03,1.43-.47,1.23-1,2.44-1.5,3.65-.21-.04-.43-.08-.64-.12Z"/>
  <path class="cls-6" d="M155.69,117.29c-.46,.02-.91,.04-1.37,.06,.29-.47,.2-.92-.11-1.36-.46-2.22,1.68-1.16,2.62-1.52,.51-.2,1.59-.53,1.9,.15,.38,.83-.83,.78-1.31,1.15-.62,.47-1.64,.58-1.73,1.52,0,0,0,0,0,0Z"/>
  <path class="cls-6" d="M230.92,152.41c-.7-.11-1.75,.28-1.38-.71,.36-.95,.51-2.58,1.42-2.62,1.19-.05,1.52,1.51,1.68,2.47,.24,1.44-1.32,.42-1.72,.87Z"/>
  <path class="cls-6" d="M135.5,149.1c-.86-.52-1.73-1.02-2.57-1.56-1.16-.74-1.19-2.28-.06-3.07,.69-.48,.98-.11,1.16,.47,.35,1.16,.62,2.34,1.44,3.34,.01,.27,.02,.55,.04,.82Z"/>
  <path class="cls-6" d="M254.94,101.24c-.53,1.96-1.06,3.91-1.6,5.91-2.03-.62-.74-2.19-1.44-3.1,0,0,.08,.02,.08,.02,1.57-.37,1.72-1.36,1.44-2.54,0,0,0,0,0,0,.66,.58,.92-.56,1.52-.28h0Z"/>
  <path class="cls-6" d="M189.73,148.99c.76,.88,1.44,1.59,2.02,2.37,.29,.39,.74,.92,.38,1.34-.41,.48-1.17,.22-1.78,.22-.75,0-.9-.47-.85-1,.08-.86-.45-1.75,.24-2.93Z"/>
  <path class="cls-6" d="M172.19,137.88c-.03,.51,.07,1.23-.56,1-1.06-.38-2.42-.9-2.62-1.89-.14-.69,1.23-1.67,1.94-1.57,1.5,.22,.82,1.69,1.24,2.46Z"/>
  <path class="cls-6" d="M277.65,152.26c-.72-2.65-.34-3.33,1.51-3.05,.44,.07,1.05,.25,1.2,.54,.23,.43-.36,.71-.71,.98-.6,.46-1.19,.91-2,1.52Z"/>
  <path class="cls-6" d="M243.94,97.05c.28-1.57-.76-2.77,.45-3.54,.58-.37,2.19,.11,2.26,.64,.18,1.23-1.21,1.79-2.71,2.91Z"/>
  <path class="cls-6" d="M266.12,144.67c1.33,.47,2.87-.49,3.22,1.05,.19,.85-.65,2.26-1.43,2.15-1.6-.23-1.03-1.88-1.78-3.2Z"/>
  <path class="cls-6" d="M211.23,148.14c.83,.27,1.15,.96,1.61,1.5,.31,.36,.9,.86,.48,1.29-.49,.5-1.33,.28-2,.2-.82-.1-.58-.71-.51-1.17,.09-.61-.1-1.27,.42-1.82Z"/>
  <path class="cls-6" d="M146.53,143.21c-1.35-.87-2.85-1.13-2.79-2.41,.03-.56,1.25-1.62,1.81-1.33,1.36,.71,1.01,2.11,.97,3.74Z"/>
  <path class="cls-6" d="M235.99,152.24c.04,.33,.01,.62-.39,.65-.29,.03-.71,0-.89-.17-.95-.91-1.02-2.13-1.38-3.25-.04-.13,.2-.37,.37-.49,.36-.26,.62,.02,.74,.24,.55,1,1.04,2.01,1.55,3.02Z"/>
  <path class="cls-6" d="M196.4,133.05c.82,.23,1.31,.64,1.04,1.41-.18,.51-.25,1.4-.92,1.3-.82-.12-1.56-.88-1.6-1.62-.03-.56,.75-1,1.48-1.1Z"/>
  <path class="cls-6" d="M267.37,104.44c.29-1.54-.47-2.71,.78-3.38,.39-.21,1.8-.22,1.81,.41,.02,1.14-1.1,1.86-2.58,2.97Z"/>
  <path class="cls-6" d="M192.3,148.73c1.22,.96,1.9,2.28,2.68,3.53,.2,.33,.29,.72-.18,.87-.39,.13-.79-.13-.98-.45-.71-1.19-1.39-2.41-2.08-3.61,.19-.11,.38-.22,.57-.34Z"/>
  <path class="cls-4" d="M204.39,89.79c-1.01-.75-1.59-1.3-1.51-2.15,.08-.95,.91-1.05,1.72-1.03,.8,.02,.79,.6,.64,1.08-.2,.68-.52,1.32-.84,2.1Z"/>
  <path class="cls-6" d="M219.91,136.51c-.23-1.15-1.86-1.7-.56-2.73,.49-.39,1.63-.81,1.9-.27,.49,1.03-.52,1.85-1.34,3.01Z"/>
  <path class="cls-10" d="M254.94,101.24s0,0,0,0c-.01-.19-.02-.37-.03-.55,0-.28,0-.56,0-.84-.1-.48-.2-.96-.3-1.44,0,0-.01-.02-.01-.02,.95-.03,1.98-.31,2.65,.61-.28,.74-.56,1.48-.84,2.22-.48,0-.97,.02-1.45,.03Z"/>
  <path class="cls-6" d="M297.76,121.05v-4.32c2.5,1.59,2.51,1.73,0,4.32Z"/>
  <path class="cls-11" d="M211.75,110.73c.82-.39,1.59-.43,2.51-.11,1.16,.4,2.35,.3,3.33-.5,.99-.08,1.84,.63,3.01,.13-.46,.93-1.54,.4-1.84,1.09-1.93,0-3.85-.02-5.78-.03-.41-.19-.82-.39-1.23-.58Z"/>
  <path class="cls-6" d="M143.27,158.22c.94-.07,1.38,.26,1.81,.54,.55,.35,1.52,.48,1.39,1.24-.07,.46-.86,.54-1.39,.62-.96,.16-1.2-.5-1.45-1.09-.16-.37-.22-.78-.36-1.32Z"/>
  <path class="cls-6" d="M175.41,115.11c.48-1.36,1.77-1.96,3.06-2.56-.06,2.31-1.1,3.17-3.06,2.56Z"/>
  <path class="cls-6" d="M243.83,137.25c.9-.04,1.25,.4,1.03,1.04-.21,.61,.03,1.68-.94,1.7-.99,.02-1.19-1.07-1.43-1.74-.36-1,.89-.67,1.34-1.01Z"/>
  <path class="cls-6" d="M231.92,144.78c.41,.68,.74,1.22,1.07,1.76,.27,.45,.39,.92,.04,1.37-.19,.24-.49,.34-.82,.2-.61-.27-1.03-.7-.94-1.31,.09-.59-.1-1.24,.65-2.02Z"/>
  <path class="cls-6" d="M157.12,140.69c-.62-.76-1.82-1.01-2.44-2.22,1.6,.26,3.46-.54,3.5,1.73-.13,.54-.58,.54-1.06,.48Z"/>
  <path class="cls-6" d="M182.71,137.97c-.34-.84-1.49-1.24-1.61-2.23q1.98-.04,3,2.76c-.78,.47-.89-.44-1.39-.53Z"/>
  <path class="cls-6" d="M124.08,153.21c-1.19-1.09-2.55-1.23-2.52-2.37,0-.41,.87-1.04,1.43-.79,1.14,.5,.93,1.58,1.09,3.17Z"/>
  <path class="cls-6" d="M131.14,177.29c-.04,.29-.08,.58-.11,.87-1.66-.22-3.11-.79-4.5-2.12,2.04-.28,3.16,.96,4.61,1.26Z"/>
  <path class="cls-11" d="M209.95,110.46c.16,.05,.23,.15,.2,.3-.04,.4,0,.77,.45,.99-.48,.15-.97,.29-1.45,.44-.19-.26,.37-.99-.47-.77-.48,.13-.89,1.12-1.36,.16-.37-.77,.32-1.13,1.19-1.12,.48,0,.96,0,1.44,0Z"/>
  <path class="cls-6" d="M165.73,152.16c1.13,.8,2.31,1.13,2.14,2.27-.07,.46-1.06,.43-1.45,.29-1.32-.47-.5-1.43-.7-2.56Z"/>
  <path class="cls-6" d="M183.36,111.28c-1.1,.65-1.58,.97-2.11,1.23-.38,.19-.55,.8-1.12,.55-.5-.22-.35-.72-.34-1.12,.01-.56,.5-.64,.99-.66,.62-.02,1.24,0,2.58,0Z"/>
  <path class="cls-6" d="M140.58,154.52c1.41,0,2.55,.36,3.02,1.58,.05,.13-.17,.5-.29,.51-1.67,.09-1.67-1.52-2.73-2.09Z"/>
  <path class="cls-4" d="M224.48,92.86c.17-1.25-.9-2.07,.31-2.71,.27-.14,1.07-.03,1.09,.06,.23,.89-.39,1.51-1.4,2.64Z"/>
  <path class="cls-11" d="M252.5,94.17c-.99,.18-1.97,.26-2.93-.13,0-.32,.01-.63,.02-.95,.97,.01,1.93,.03,2.9,.04,0,.35,0,.69,0,1.04Z"/>
  <path class="cls-6" d="M288.56,109.9c-.59-1.3-1.38-1.95-.65-2.7,.36-.37,1.28-.29,1.52,.03,.67,.91-.46,1.39-.87,2.67Z"/>
  <path class="cls-11" d="M157.12,140.69c.48,.06,.93,.06,1.06-.48,.52,.13,1.04,.26,1.57,.38,0,0,0,0,0,0,.12,1.6-1.19,1.39-2.31,1.43,0,0-.02-.01-.02-.01,.31-.51-.09-.9-.29-1.32Z"/>
  <path class="cls-6" d="M187.46,143.09c-.15,.21-.3,.42-.45,.63-.77-.2-.5-1.46-1.66-1.27,0,0-.05-.05-.05-.05,.35-.55,.19-1.45,1.29-1.5,0,0,0,.11,0,.11-.07,.34,.06,.5,.47,.43,0,0,0-.01,0-.01,.13,.56,.27,1.12,.4,1.68Z"/>
  <path class="cls-6" d="M238.5,164.91c1.27-.68,2.56-.55,3.87-.12-1.27,.44-2.56,.63-3.87,.12Z"/>
  <path class="cls-6" d="M211.07,144.32c.12,.02,.23,0,.27,.05,.63,.62,1.37,1.21,1.22,2.15-.05,.32-.42,.44-.74,.25-1.03-.62-1-1.5-.74-2.44Z"/>
  <path class="cls-6" d="M267.31,133.78c.09,.84,.51,1.63-.44,2.13-.32,.17-.92-.08-.96-.4-.1-.83,.53-1.3,1.4-1.73Z"/>
  <path class="cls-6" d="M182.71,137.97c.51,.09,.61,1,1.39,.53,0,0-.01-.01-.01-.01-.51,.29-.1,.58-.01,.88-.02,.14,0,.27,.04,.41-.2,.19-.4,.39-.6,.58-.49-.6-.99-1.2-1.48-1.79,.22-.2,.45-.39,.67-.59Z"/>
  <path class="cls-6" d="M144.93,156.74c1.23,.17,1.79,.68,2.22,1.64-1.25-.08-1.92-.46-2.22-1.64Z"/>
  <path class="cls-10" d="M154.21,115.99c.31,.44,.39,.88,.11,1.36-.3-.02-.6-.04-.9-.06-.1-.42-.19-.84-.29-1.26,.36-.01,.72-.02,1.08-.04Z"/>
  <path class="cls-13" d="M213.15,148.01c1.42,.52,1.6,1.11,1.67,1.98-.97-.34-1.07-.98-1.67-1.98Z"/>
  <path class="cls-11" d="M135.5,149.1c-.01-.27-.02-.55-.04-.82,.22-.24,.44-.48,.66-.72,.41,.3,.7,.66,.69,1.16-.59-.29-.65,.87-1.32,.38Z"/>
  <path class="cls-11" d="M307.95,131.98c.42,.48,.87,.42,1.33,.04-.13,.47-.34,.93-1.01,.79-.45-.1-.34-.51-.32-.83Z"/>
  <path class="cls-11" d="M281.84,100.22c.42-.39,.94-.29,1.46-.25-.2,.37-.45,.73,.1,1.04,0,0-.04,.03-.04,.03-.53-.24-1.19-.29-1.51-.82Z"/>
  <path class="cls-6" d="M244.29,164.74c.42-.4,.8-.96,1.47-.27-.43,.36-.94,.34-1.47,.27Z"/>
  <path class="cls-11" d="M305.1,106.81c.26,.03,.51,.06,.77,.09-.03,.31,.12,.79-.45,.74-.52-.05-.34-.51-.32-.83Z"/>
  <path class="cls-11" d="M265,92.96c-.46,.24-.94,.28-1.45,.17,.4-.64,.89-.64,1.45-.17Z"/>
  <path class="cls-11" d="M256.34,96.44c.04-.37,.09-.74,.68-.5,.13,.05,.34,.22,.32,.26-.21,.42-.65,.18-1,.25h0Z"/>
  <path class="cls-6" d="M214.64,109.26c-.8,.41-1.6,.43-2.4,0,.8,0,1.6,0,2.4,0Z"/>
  <path class="cls-11" d="M218.78,109.18c.63-.03,1.25-.06,1.88-.09-.58,.77-1.21,.7-1.88,.09Z"/>
  <path class="cls-11" d="M163.17,172.03c.68-.03,1.36-.06,2.04-.09-.67,.28-1.36,.15-2.04,.09Z"/>
  <path class="cls-11" d="M212.05,99.81c.53,.5,.46,1.13,.51,1.74-.77-.44-.48-1.13-.51-1.74Z"/>
  <path class="cls-11" d="M240.57,85.86c.49-.5,1.14-.38,1.77-.35-.5,.47-1.17,.27-1.77,.35Z"/>
  <path class="cls-11" d="M274.59,92.83c-.71-.05-1.42-.11-2.13-.16,.72-.02,1.45-.21,2.13,.16Z"/>
  <path class="cls-13" d="M184.13,139.77c-.05-.13-.06-.27-.04-.41,.24,0,.48,0,.71-.01,.09,.24,.34,.61,.25,.69-.42,.35-.61-.18-.93-.27Z"/>
  <path class="cls-11" d="M220.68,111.63c-.51-.09-1.03-.18-1.54-.27,.55-.06,1.1-.16,1.54,.27Z"/>
  <path class="cls-11" d="M212.04,72.29c-.61-.03-1.22-.03-1.72-.4,.63-.06,1.29-.21,1.72,.4Z"/>
  <path class="cls-11" d="M177.1,76.4c.49-.37,1.09-.39,1.69-.36-.45,.54-1.08,.41-1.69,.36Z"/>
  <path class="cls-11" d="M180.64,76.63c-.45,.09-.91,.17-1.36,.26,.35-.51,.83-.5,1.36-.26Z"/>
  <path class="cls-11" d="M226.71,74.86c-.35,.23-.72,.29-1.12,.12,.37-.04,.74-.08,1.12-.12Z"/>
  <path class="cls-7" d="M184.8,139.36c-.24,0-.48,0-.71,.01-.09-.29-.5-.59,.01-.88,.51,.12,.51,.55,.7,.86Z"/>
  <path class="cls-13" d="M147.89,158.93c-.1,.04-.19,.08-.29,.12-.03-.11-.08-.21-.09-.32,0-.03,.11-.07,.17-.1,.07,.1,.14,.2,.21,.3Z"/>
  <path class="cls-11" d="M212.16,105.78c-.01-.27-.02-.55-.03-.82,.4,.26,.41,.54,.03,.82Z"/>
  <path class="cls-11" d="M278.51,92.31c.4-.08,.7,.06,.97,.31-.32-.1-.64-.2-.97-.31Z"/>
  <path class="cls-11" d="M256.34,96.45c-.06,.18-.12,.37-.18,.55-.44-.31,0-.4,.17-.55,0,0,0,0,0,0Z"/>
  <path class="cls-11" d="M279.96,92.74c.41-.05,.81-.04,1.13,.24-.42,.06-.82,.07-1.13-.24Z"/>
  <path class="cls-11" d="M296.24,147.68c-.24-.26-.16-.51,.04-.75-.01,.25-.03,.5-.04,.75Z"/>
  <path class="cls-11" d="M254.75,145.25c.03-.16,.06-.32,.09-.48-.03,.16-.06,.32-.09,.48Z"/>
  <path class="cls-11" d="M253.05,143.43c.05,.12,.12,.24,.15,.36,.01,.06-.04,.13-.06,.19-.03-.18-.06-.37-.09-.55Z"/>
  <path class="cls-11" d="M133.95,143.17c.15-.03,.3-.06,.44-.09,0,0-.21,.09-.21,.09h-.23Z"/>
  <path class="cls-1" d="M253.57,141.11s.04,0,.04,0c.03-.04,.07-.09,.1-.13-.05,.05-.1,.09-.14,.14Z"/>
  <path class="cls-11" d="M137.58,140.19c.08-.15,.16-.3,.24-.45-.08,.15-.16,.3-.24,.45Z"/>
  <path class="cls-11" d="M212.62,101.75c.09,.21,.18,.42,.28,.64-.09-.21-.18-.42-.28-.64Z"/>
  <path class="cls-11" d="M259.88,92.51c.26-.07,.52-.13,.78-.2-.26,.07-.52,.13-.78,.2Z"/>
  <path class="cls-11" d="M260.14,87.25c-.13-.05-.26-.11-.39-.16,.16,0,.29,.06,.39,.16Z"/>
  <path class="cls-11" d="M249.58,85.68c-.15,0-.31,0-.46,0,.15-.19,.3-.19,.46,0Z"/>
  <path class="cls-11" d="M249.94,84.04c-.09-.09-.14-.2-.13-.32,.17,.07,.21,.18,.13,.32Z"/>
  <path class="cls-11" d="M257.24,80.44c-.16-.04-.32-.08-.48-.12,.16,.04,.32,.08,.48,.12Z"/>
  <path class="cls-11" d="M252.97,79.5c-.16-.03-.32-.05-.48-.08,.23-.29,.38-.21,.48,.08Z"/>
  <path class="cls-11" d="M179.26,76.89c-.14,.05-.27,.1-.41,.15,.11-.1,.25-.15,.41-.15Z"/>
  <path class="cls-11" d="M220.63,74.93c-.24-.16-.48-.31-.72-.47,.37,0,.62,.15,.72,.47Z"/>
  <path class="cls-11" d="M276.02,175.88c.16-.04,.32-.07,.48-.11-.16,.04-.32,.07-.48,.11Z"/>
  <path class="cls-9" d="M283.4,101.01c-.55-.31-.3-.68-.1-1.04,.9-.21,1.82-.61,2.71-.58,2.17,.08,2.04-.62,.98-1.81,.25-.25,.5-.49,.75-.74,.68,.64,1.36,1.28,2.24,2.11-.02-1.62-.87-2.72-1.37-3.92-.21-.49-1.01-1.04-.02-1.56,1.27,0,.95,1.11,1.46,1.64,.06,.14,.13,.29,.19,.43,.67,2.73,2.3,4.15,5.76,4.01,1.66-.07,3.42,.72,4.83,1.7,.68,.47,1.43,1.08-.2,1.36-4.75-2.99-10.06-2.52-15.38-1.91-.63,.07-1.24,.2-1.86,.3Z"/>
  <path class="cls-11" d="M287.74,96.84c-.25,.24-.5,.49-.75,.74-.46-.42-1.39-.87-.58-1.47,.64-.47,1.02,.27,1.33,.74Z"/>
  <path class="cls-11" d="M267.88,85.81c-.29-.15-.46-.37-.2-.61,.26-.24,.52-.09,.7,.16-.16,.15-.33,.3-.49,.45Z"/>
  <path class="cls-9" d="M268.88,89c-.68-.05-.71-.4-.49-.85,.89-.04,1.07,.24,.49,.85Z"/>
  <path class="cls-11" d="M290.24,95.55c-.06-.14-.13-.29-.19-.43,.06,.14,.13,.29,.19,.43Z"/>
  <path class="cls-11" d="M288.12,91.74c.08-.22,.21-.31,.45-.15-.15,.05-.3,.1-.45,.15Z"/>
  <path class="cls-9" d="M285.74,170.39c.14-.17,.29-.34,.43-.51-.14,.17-.29,.34-.43,.51Z"/>
  <path class="cls-9" d="M285.4,170.89c-.17-.3,.14-.36,.32-.49-.11,.16-.22,.32-.32,.49Z"/>
  <path class="cls-11" d="M191.81,146.77c-1.49-.03-3.27-1.74-3-2.91,.01-.05,.39-.02,.6-.03,.98,.86,2.03,1.68,2.39,2.94Z"/>
  <path class="cls-9" d="M187.46,143.09c-.13-.56-.27-1.12-.4-1.68,1.11,.18,1.55,.78,1.4,1.75-.39,.6-.68,.13-.99-.07Z"/>
  <path class="cls-11" d="M189.18,143.59c-.22,.17-.47,.4-.73,.09-.09-.11,0-.34,0-.52,.52-.22,.62,.1,.72,.43Z"/>
  <path class="cls-9" d="M187.06,141.42c-.41,.07-.54-.09-.47-.43,.47-.12,.63,.02,.47,.43Z"/>
  <path class="cls-9" d="M210.6,111.75c-.46-.22-.49-.59-.45-.99,.54-.01,1.07-.02,1.61-.03,.41,.19,.82,.39,1.23,.58,0,0-.2,.08-.2,.08,0,0-.21-.04-.21-.04-.16-.04-.31-.02-.45,.05-.51,.12-1.02,.24-1.53,.35Z"/>
  <path class="cls-11" d="M212.13,111.4c.14-.08,.29-.09,.45-.05-.15,.02-.3,.04-.45,.05Z"/>
  <path class="cls-9" d="M254.9,100.69c.01,.18,.02,.37,.03,.55-.59-.28-.85,.86-1.52,.28-.64-.88,.4-1.4,.58-2.1,.11-.19,.22-.37,.34-.56,.09-.15,.18-.3,.27-.45,.1,.48,.2,.96,.3,1.44-.49,.28-.5,.56,0,.84Z"/>
  <path class="cls-9" d="M253.41,101.53c.28,1.18,.13,2.18-1.44,2.54-.34-1.21,.29-1.99,1.44-2.54Z"/>
  <path class="cls-10" d="M254.33,98.86c-.11,.19-.22,.37-.34,.56,.11-.19,.22-.37,.34-.56Z"/>
  <path class="cls-12" d="M171.59,70.55c1.85-2.21,4.71-3.08,7.31-4.3,.76-.36,1.56-.66,2.33-.99,.57,.28,.66,.69,.04,.9-3.28,1.13-6.21,2.8-9.12,4.5-.11,.07-.38-.07-.57-.12Z"/>
  <path class="cls-12" d="M169.6,71.79c.34-.13,.68-.27,1.03-.4q-.66,2.73,2.83,2.87c.49,.02,1.1-.2,1.57,.66-1.94,.22-3.78,.73-5.38-.44-1-.73-.49-1.78-.05-2.69Z"/>
  <path class="cls-12" d="M170.62,71.39c-.04-.32,.12-.46,.48-.42,.21,.47,0,.57-.48,.42Z"/>
  <path class="cls-12" d="M171.11,70.97c-.05-.32,.11-.46,.48-.42,.03,.12,.06,.24,.1,.36-.19,.02-.38,.04-.57,.06Z"/>
  <path class="cls-11" d="M254.9,100.69c-.5-.28-.5-.56,0-.84,0,.28,0,.56,0,.84Z"/>
</svg>