<?xml version="1.0" encoding="utf-8"?>
<!-- Generator: Adobe Illustrator 28.1.0, SVG Export Plug-In . SVG Version: 6.00 Build 0)  -->
<svg version="1.1" id="Layer_1" xmlns="http://www.w3.org/2000/svg" xmlns:xlink="http://www.w3.org/1999/xlink" x="0px" y="0px"
	 viewBox="0 0 24 24" style="enable-background:new 0 0 24 24;" xml:space="preserve">
<style type="text/css">
	.st0{fill:#8282F8;}
	.st1{fill:#DCDCFF;}
	.st2{fill:none;stroke:#DCDCFF;stroke-width:1.5837;stroke-miterlimit:10;}
</style>
<path class="st0" d="M17.8,2.7H6.1c-2.5,0-4.6,2.1-4.6,4.6v9.3c0,2.5,2.1,4.6,4.6,4.6h11.7c2.5,0,4.6-2.1,4.6-4.6V7.3
	C22.4,4.8,20.3,2.7,17.8,2.7z"/>
<path class="st1" d="M22.4,8.8h-4.5c-1.7,0-3.1,1.4-3.1,3.1v0.2c0,1.7,1.4,3.1,3.1,3.1h4.5"/>
<path class="st2" d="M22.4,8.8h-4.5c-1.7,0-3.1,1.4-3.1,3.1v0.2c0,1.7,1.4,3.1,3.1,3.1h4.5"/>
</svg>
