<?xml version="1.0" encoding="UTF-8"?>
<svg id="Layer_1" data-name="Layer 1" xmlns="http://www.w3.org/2000/svg" viewBox="0 0 414 200">
  <defs>
    <style>
      .cls-1 {
        fill: #fff9b8;
      }

      .cls-2 {
        fill: #fff100;
      }

      .cls-3 {
        fill: #ece9df;
      }

      .cls-4 {
        fill: #e5e1d9;
      }

      .cls-5 {
        fill: #fbb040;
      }

      .cls-6 {
        fill: #9ed2f1;
      }

      .cls-7 {
        fill: #c2bdb6;
      }

      .cls-8 {
        fill: #8fc9e3;
      }

      .cls-9 {
        fill: #322d2a;
      }

      .cls-10 {
        fill: #bcad98;
      }

      .cls-11 {
        fill: #dad4cf;
      }

      .cls-12 {
        fill: #e0d9a1;
      }

      .cls-13 {
        fill: #423e39;
      }

      .cls-14 {
        fill: #54504c;
      }

      .cls-15 {
        fill: #4b4541;
      }

      .cls-16 {
        fill: #767575;
      }
    </style>
  </defs>
  <path class="cls-13" d="M274.17,88.62c2.74-.68,5.66-.63,8.3-.22,2.05,.32,3.66-.34,5.22-.73,5.08-1.28,9.56-.64,13.68,2.08,.81,.54,1.55,1.03,2.59,1.22,5.41,.98,9.1,4.29,9.25,8.95,.07,2.26,1.75,3.85,2.15,5.88-.38,.02-.76,.04-1.14,.06-2.63-6.08-9.76-8.05-18.58-5.55,1.2,1.97,3,3.44,4.89,4.87,2.97,2.25,6.42,3.99,9.17,6.46q3.45,3.1,5.01-.97c.46,0,.82,.16,1,.55-.06,.77-.31,1.48-.85,2.11-.07,.13-.15,.26-.22,.4-1.09,1.34-.92,2.55-.25,4.15,2.58,6.14,.92,11.73-3.95,16.58-1.03,1.03-1.29,1.77-.8,3.03,1.13,2.86,1.53,5.82,.53,8.79-.63,1.86,.47,3.58,.46,5.38,0,1.94,0,3.87,0,5.81,.17,.77-.11,1.45-.51,2.12-.36,0-.72,0-1.08-.01,.8-3.33,1.04-6.65-.23-10.03-3.65,2.73-5.48,5.75-5.82,10.02-.35,4.46-2.93,8.49-9.01,9.42-1.31,0-2.63-.62-4.16,.01,1.45,.72,2.75,.8,4.11,.62,.83,.05,1.67,.1,2.5,.16,.89,.66,.09,1.3-.03,1.96,0,0-.06,.05-.06,.05l-.87,.07c-.16-.12-.31-.25-.47-.37-1.62-.98-3.64-.56-5.35-1.11-1.13-.37-2.02-.23-3.09,.14-5.73,1.98-11.49,3.95-17.38,.34-.78-.48-1.54,.04-2.01,.43-.71,.59,.15,.98,.58,1.33,2.39,1.95,5.4,2.8,8.47,3.54,0,.29,0,.58,0,.87-1.02,0-2.04-.01-3.06-.02-.49-.52-.79-.29-1.02,.2-.56,.11-1.12,.23-1.69,.34,0,0,0,0,0,0-.49,.05-.98,.09-1.47,.14-.51-.17-.98-.18-1.36,.22-3.89,.48-7.77,.72-11.64-.1-.4-.41-.75-1.01-1.49-.36-1,.09-2.03,0-2.96,.46-.36,.16-.72,.31-1.08,.47-.34-.3-.67-.6-1.01-.89h.01c-.04-1.42-1.1-2.5-1.73-3.72-.58-1.11-1.15-2.21-1.73-3.32-2.1-4.75-4.5-9.4-7.07-13.97-.82-2.33-2.05-4.5-3.3-6.67-1.61-3.19-3.22-6.38-4.83-9.57-.26-.26-.47-.26-.63,.08-.15,.33-.29,.66-.44,.98-3.7,1.14-5.66,4.79-4.16,7.78,2.43,4.84,4.93,9.65,7.31,14.5,2.64,5.37,5.71,10.58,7.87,16.12-.33,0-.65,.01-.98,.02,0,0,.02,.02,.02,.02-.19-.15-.37-.3-.56-.45-1.67,.03-3.37-.03-4.91-.57-2.11-.74-4.15-.79-6.27-.17-.92-.27-1.65,.09-2.36,.53-1.4,.19-2.8,.38-4.19,.56-2.07,.04-4.14,.08-6.21,.11-2.53,.32-4.97-.19-7.24-1-1.7-.6-3.13-.54-4.62,.22-.81-.07-1.61-.13-2.54-.21,.83-.96,2.35-.55,3.01-1.38-2.45-3.03-5.12-4.27-9.72-2.8-5.92,1.9-11.95,1.58-16.6-3.01-.8-.79-1.5-.3-2.22,0-1.19,.5-.3,1.16-.03,1.62,1.68,2.82,4.28,4.81,7.71,5.9,.93,.29,1.51,.55,1.29,1.47-.65,.12-1.18-.07-1.62-.48-.28-.46-.77-.46-1.27-.44-.98-.22-1.79-.98-2.93-.65-.3-.24-.59-.48-.89-.72-.66-1.67-2.64-2.57-3.31-4.21-.58-1.43-1.42-1.57-3.03-1-6.42,2.26-12.91,3.71-19.4,.1-1.23-.68-2.17,.23-2.84,.78-.79,.65,.41,1.05,.84,1.46,2.05,1.99,5.05,2.75,7.51,4.23,.22-.01,.43-.03,.65-.04h.02c-.26,.45-.79,.47-1.26,.57l-.19,.03s-.15-.09-.15-.09c-.26-.39-.66-.47-1.14-.38-1.14,.25-2.28,.49-3.42,.74-.02-.32-.05-.64-.07-.96,.55-.29,1.27-.39,.28-1.14-3.03-2.29-5.93-4.48-10.25-1.92-.85,.5-2.91,1.47-3.38,.19-.42-1.15,2.02-.58,2.88-1.31,5.18-1.25,9.65-3.71,14.07-6.24,.56-.32,1.66-.5,1.29-1.36-.32-.75-1.01-1.33-2.11-1.31-.58,0-1.17-.07-1.75-.11-1.16-.25-2.32-.41-3.44,.14-.75,.05-1.51,.11-2.26,.16-.72-2.03,1.86-.63,2.16-1.61,.25-.93-1.55-1.23-.96-2.3,1.68-.31,1.77,1.04,2.29,1.78,.63,.89,1.45,.78,2.34,.75,1.39-.05-.41-1.14,.57-1.33,1.17-.37,1.61,.57,2.04,1.06,1.83,2.08,3.7,2.15,6.31,.91,1.44-.69,1.8-1.21,1.46-2.46-.79-2.87-2.06-5.67-4.3-7.8-3.34-3.19-6.06-7.41-12.16-7.24-.39,.01-.81-.18-1.19-.31-2.12-.76-2.69-.43-2.78,1.63-.09,.46-.08,.88,.5,1.12,.12,.3,.25,.61,.37,.91-.34,0-.69,.01-1.03,.02-.86-1.25-.88-2.84-2.08-3.96,1.82-.84,3.75-1.55,4.54-3.42,1.43-3.38,2.04-6.86,1.7-10.45-.06-.63-.1-1.37-.81-1.76-2.09-1.16-7.73,1.03-8.19,3.2-.92,4.31-1.62,8.62,1.88,12.44-.61,.4-1.56-.5-1.9,.23-.15,.31,.54,.91,.84,1.38-.38,.06-.76,.13-1.15,.19-1.78-1.68-4.32-.08-6.28-1.29,.61,1.6-.71,3.24,.76,4.53,3.72,3.29,5.64,7.4,6.54,11.79,.45,2.21,1.37,2.57,3.49,1.87,.22-.04,.43-.08,.65-.12,1.18-.26,1.89-.77,1.6-1.97-.24-.98-.44-1.98-.47-2.98-.06-1.68-1.56-3.09-1.11-4.84,1.69-.03,1.21,1.29,1.48,1.99,.61,1.56,1.76,2.25,3.57,2.29,.22,.21,.43,.41,.65,.62-.1,.39,.63,.87-.18,1.18-1.26,.59-1.48-1.27-2.69-.8-.24,1.74,.21,3.35,1.55,4.75-5.84,.9-11.33,2.51-15.85,6.01-.6,.46-1.91,.54-1.84,1.24,.08,.88,1.19,1.3,2.19,1.54,.21,.12,.43,.21,.61,.36,.46,.38,1.85,.12,1.34,1.13-.49,.96-1.34,.39-2.08,.07-.15-.07-.41,.06-.82,.14,1.81,1.89,4.48,1.63,6.59,2.47-.01,.3-.02,.61-.03,.91-.71,0-1.4-.03-2.03-.36-.22-.27-.51-.37-.88-.26-1.48-.27-2.93-.31-4.45-.11-4.24,.56-7.95-.67-11.33-2.8-.08-.21-.2-.33-.47-.2-.36,.07-.72,.15-1.08,.22-.05-.33-.09-.67-.14-1-.46-.69-.78-1.48-1.4-2.03-1.11-.99,.23-3.12-1.73-3.36-1.55-.19-3.25,.5-4.88,.8-.24,.04-.5,.04-.75,.06-.34,.03-.69,.06-1.03,.09-.53,.09-1.06,.18-1.59,.27-.04-.29-.07-.59-.11-.88,0,0,0,0,0,0,.38,.07,.73,.05,1-.22,.91-.12,1.82-.23,2.72-.35,.53,.14,1.01,.1,1.36-.32,.38-.06,.75-.12,1.13-.18,.58,.24,1.07,.22,1.41-.32,1.13-.31,2.05-.71,2.62-1.78,.8-1.5,2.24-2.57,4.24-2.75,1.21-.11,1.5-.55,1.78-1.59,.69-2.63,0-4.55-2.17-6.6-3.13-2.97-5.53-6.43-4.87-10.79,.08-.52-.06-.97-.58-1.35-3.7-2.74-3.14-6.1-1.8-9.56,.08-.14,.17-.28,.25-.42,.14-.28,.28-.56,.43-.85,1.27-1.27-.36-2.04-.7-3.03-.33-.89-.31-1.79-.03-2.68,.1-.29,.19-.59,.29-.88,0,0,0,.01,0,.01,.34,0,.69,.01,1.03,.02-.47,2.72,.04,5.16,2.55,7.09,.63,.49,1.03,.89,1.69-.01,2.21-3,5.11-5.74,4.63-9.69,.42,0,.84,0,1.26,0-.11,1.24-.21,2.49-.33,3.94,5.17-2.3,10.29-3.82,15.42-5.38,6.65-2.02,12.83-1.65,18.69,1.74,.8,.46,1.4,.76,2.2,.17,.46-.05,.8-.21,.85-.66l.22-.02s.08,.18,.08,.18c.46,.18,.74,.87,1.41,.38,.13-.09,.2-.42,.12-.51-.51-.57-.95,.4-1.48,.08,.54-1.95,.67-3.8-1.26-5.35-1.18-.95-2.43-1.76-3.83-2.43-4.35-2.09-9.07-2.36-13.89-2.21-.07-.59,.47-.76,.93-.98,2.47-.57,5.01,.06,7.49-.35,.64,.08,1.26,.13,1.7-.4,1.81-.54,3.67-.77,5.57-.77,.37,.41,.69,.33,.98-.07,1.85-.22,3.71-.31,5.56-.04,0,.29,0,.58,0,.87-3.91,.13-7.86,0-12.29,1.27,3.48,1.01,6.19,2.02,8.26,3.88,1.19,1.07,2.51,1.52,4.15,1.73,6.14,.79,11.84,2.66,17.04,5.58,1.92,1.08,3.18,.74,3.6-1.25,.25-1.18-.12-2.28-.81-3.33-1.66-2.53-4.45-3.88-7.21-5.27,.16-.15,.32-.3,.48-.45,.33,.02,.65,.03,.98,.05,4.03-.34,8.06-.67,12.08-1.01,.28,.06,.37-.03,.28-.27,.08-.15,.16-.3,.23-.45,1.01,.04,1.28,.93,2.01,1.29-.44,.6-1.2,.4-1.82,.56-2.72,.13-5.43,.26-8.15,.39-.2,.02-.4,.05-.59,.07-.35,.21-1.4,.23-.93,.66,1.73,1.58,3.48,3.12,4.76,5.02,.13,.19,.78,.17,1.19,.16,2.52-.04,5.03-.04,7.56-.2,5.15-.34,10.17,.08,13.52,4.2,.9,1.1,1.5,.42,2.2-.11,1.91-1.44-.1-2.8-.11-4.21,2.18-.35,1.38,1.68,2.42,2.25,.1,.28,.2,.55,.3,.83,.11,.17,.21,.35,.32,.52,1.39,2.96,2.77,5.93,4.16,8.89,.11,.21,.22,.42,.33,.64l.06,.11c.01,.08,.05,.15,.11,.21,.31,.5,.62,1,.94,1.5,.21,.48,.43,.95,.64,1.43-1.75,2.25-3.21,4.58-3.4,7.38-.34,5.05,1.66,7.98,6.23,8.93,1.14,.24,2.63,.61,3.39-.05,.87-.74-.32-1.72-.8-2.49-1.88-3.02-2.17-5.94,.48-8.73,.85-.89,1.88-1.65,2.83-2.48,2.41-2.11,5.15-3.97,6.85-6.63,.34-.53,.79-1.09,.45-1.61-.31-.47-1.07-.22-1.64-.2-.42,.01-.84,.03-1.26,.05-.62-.07-1.14-.25-1.15-.9,9.37-1.05,16.87-7.03,19.21-15.57-5.74,2.76-11.82,4.5-17.16,7.5-2.67,1.5-4.71,3.51-4.99,6.46-.07,.71-.41,1.51,.92,1.61,.18,.33,.36,.65,.55,.98l-.76-.05c-.65-.04-1.35-.23-1.78,.43-.84,.31-1.68,.62-2.51,.93-.01-.33-.02-.66-.04-.99,0-.15,0-.3,0-.45,.44-.13,1.32-.14,1.02-.66-1.72-2.98-2.53-6.33-5.04-8.97l.02,.03c.23-1.24-.83-2.22-.91-3.39,.53-.12,.8-.44,.88-.89,.13-.06,.26-.1,.41-.12,.31,.06,.61,.11,.92,.17-.2,.93-1.24,1.96-.09,2.77,1.04,.73,2.39,.35,3.92,.19-1-1.18-1.82-2.14-2.63-3.1,1.51-.88-.92-.78-.45-1.31,.87-.99,.2-1.37-.76-1.74-1.03-.4-.14-.94-.11-1.42,1.5,.6,2.39,1.72,3.31,2.82,1.86,2.23,1.69,2.09,3.92,.17,1.63-1.41,1.33-2.4,.25-3.84-1.37-1.84-3.02-3.43-4.7-5.03,.52-.43,1.03-.86,1.55-1.3,.48-.26,.95-.52,1.43-.77,.25,.23,.51,.47,.76,.7-1.64,.69-2.01,1.45-.52,2.71,1.06,.89,1.94,2.01,2.62,3.15,.85,1.42,1.66,2,3.39,.9,1.06-.68,2.33-1.12,3.69-1.23,2.01-.16,2.05-1.01,1.06-2.23,.27-.25,.54-.5,.81-.75,.5,.66,.97,1.34,1.51,1.97,.18,.21,.5,.41,.79,.44,.38,.05,.6-.24,.58-.55-.18-2.59,.8-4.97,1.71-7.38,.34-.91-.65-.41-1.07-.51l-.96-.26c3.07-1.59,6.05-3.3,9.22-4.72,2.24-1,4.82-1,7.03,.07,1.81,.88,2.75,.37,3.67-.88,.13-.09,.19-.21,.19-.36-.05-.11-.01-.19,.12-.22,.3,.2,.59,.41,.89,.61,2.45,.85,4.98,.19,7.47,.23,.23,0,.5-.35,.71-.57,3.37-3.48,7.72-4.05,12.56-3.17,1.05,.19,2.11,.59,3.15-.06,.38-.24,1.08-.42,1.13-.69,.09-.52-.54-.7-1.04-.99-5.71-3.36-11.51-2.52-17.37-.4-.45-.02-.86-.09-1.07-.49,1.36-.84,2.76-1.59,4.48-1.72,.19-.06,.37-.13,.56-.19Zm-113.81,37.19c-.39,.14-.81,.26-.84,.7-.02,.25,.13,.4,.44,.36,.5-.06,.65-.4,.76-.76,.07-.15,.13-.31,.2-.46l-.57,.16Zm14.39,36.74c-.11-.08-.22-.16-.32-.24,.01,.16,.02,.32,.03,.48,.78,.65,.84,2.02,2.6,2.02-.56-1.09-1.25-1.82-2.3-2.27Zm76.55-3.25c-.54-.85-1.15-1.65-2.79-2.29,.62,1.42,1.49,2.03,2.3,2.69,.52,.81,1.01,1.63,1.59,2.41,.11,.15,.63,.19,.87,.1,.4-.15,.24-.53,.06-.73-.65-.74-1.35-1.45-2.04-2.17Zm-4.49-5.68c.23-.21,.46-.42,.69-.63,3.08,3.52,6.13,7.07,9.28,10.55,.57,.63,.84,2.18,2.27,1.45,1.5-.76,3.6-1.14,3.21-3.55-.92-5.66-3.9-10.39-8.07-14.67-.88-.9-1.72-1.43-3.22-.94-1.39,.45-2.67-.12-3.6-1.04-1.41-1.38-1.96-.22-2.46,.62-.23,.39,.03,.99,.07,1.49-.34,0-.69,0-1.03,0-.23-.71-.72-1.2-1.59-.77-.9,.45,.03,.95,.1,1.44,.13,.79,1.8,1.54,.1,2.38-.96-2.21-2.55-3.79-5.44-4.13-.45-.05-.85-.52-1.35-.13-.57,.44-.26,.89-.01,1.37,2.45,4.83,4.89,9.67,7.34,14.5,.23,.45,.41,1.05,1.19,.91,.71-.13,.78-.7,.81-1.21,.16-2.12-.28-4.18-.74-6.24,.3-.29,.64-.49,.99-.1,.67,.73,1.22,2.31,2.33,1.64,1.3-.78-.49-1.79-.8-2.73-.02-.07-.04-.14-.05-.21Zm-19.19-25.88c-1.63-1.29-2.07-2.92-1.89-4.75,.05-.47-.09-.89-.76-.9-.49,0-1.1-.09-1.46,.12-.57,.33,0,.77,.17,1.12,1.06,2.12,2.14,4.23,3.26,6.42,.82-.44,.73-1.06,.83-1.61,.05-.05,.16-.14,.15-.15-.09-.09-.2-.17-.3-.25Zm66.19,26.19c.3,.99-.29,2.09,.51,3.02,0,.3,0,.59,0,.89-.62,.65-.38,1.35-.19,2.05,.01,2.28-.3,4.51-1.72,6.48-1.03,1.44,.11,1.45,1.17,1.4,2.24-.1,3.97-1.07,5.31-2.58,2.7-3.03,3.29-6.53,3.23-10.26-.06-4-2.78-7.44-2.98-11.38-.02-.42-.39-.58-.9-.49-1.79,.3-4.02,.08-4,2.53-.35-.01-.69-.03-1.04-.04,.13-.7,.29-1.4,.36-2.1,.05-.53-.56-1.27-.83-.81-.67,1.13-3.19,1.72-1.7,3.6-.23,.23-.47,.46-.7,.69-1.47-2.84-5.35-1.82-7.52-3.89-.19,3.49-.66,6.61,1.37,9.52,.67,.95,.82,2.19,1.15,3.31,.39,1.32,.22,3.16,1.19,3.87,1.22,.89,3.01-.64,4.66-.64,.33,0,.66-.01,1-.02,.24-.1,.48-.21,.72-.31,.01-1.62,.03-3.25,.04-4.87,.29,0,.57,.02,.86,.03Zm-23.6-1.34c.37-.02,.74-.04,1.11-.05,2.12,3.3,4.36,6.54,7.4,9.29,.62,.56,1.09,1.82,2.32,.85,1.31-1.04,4.23-.72,3.71-3.39-.63-3.24-1.57-6.38-3.27-9.31-1.22-2.1-1.63-5.12-5.79-4.29-.07,.01-.16-.04-.24-.07-3.93-1.08-5.85,.26-5.22,3.63,.09,.5,.22,1,.33,1.5-.31,.04-.63,.08-.94,.13-.75-.94-.77-2.06-.88-3.11-.17-1.56-1.02-1.95-2.91-1.52,2.3,2.96,3.64,6.09,3.35,9.6-.04,.49,.26,.85,.68,1.08,.43,.23,.77-.04,1.04-.34,.39-.44,.96-.87,.46-1.46-.64-.77-1.16-1.55-1.14-2.52Zm-4.04-18.78c0-.58,0-1.16,0-1.74,.31-.25,.17-.35-.17-.39-.92-.16-1.85-.15-2.74,.09-.65,.18-1.27,.38-.88,1.22,.87,1.88,1.66,3.79,2.55,5.85,1.01-1.13,.42-2.37,1.11-3.3,1.16,.89,.28,2.07,.58,3.08-.37,1.33-.62,2.67-1.33,3.93-.77,1.37,.12,2.21,1.64,2.56,2.06,.48,6.43-1.43,7.11-3.21,1.2-3.11,1.75-6.33,1.58-9.62-.04-.72-.11-1.71-1-1.82-2.09-.28-4.19,.16-6.18,.67-1.47,.38-.69,1.78-1.12,2.67l-1.16,.02Zm22.69-5.24c.03,.34,.06,.68,.09,1.03,0,.83-1.56,1.2-1.06,2.07,1.04,1.8,2.27,3.51,3.69,5.67,.47-3.2,1.42-5.68,2.52-8.1,.71-1.55-.12-1.57-1.44-1.39-.27-.21-.53-.42-.8-.63,.67-.74,2-.15,2.94-1.29-.5-.3-1.13-.55-1.57-.95-1.22-1.1-5.02-1.51-6.48-.71-.64,.35-.52,.68-.13,1,1.12,.92,1.28,2.31,2.23,3.3Zm15.7-36.26c-.09-.07-.18-.15-.27-.22-.02,.16-.04,.32-.05,.48,.75,1.6,1.75,3.11,2.12,4.84,.12,.58,.34,1.19,1.11,1.32,1.63,.29,2.87,1.32,4.44,1.85,.13-3.95-2.93-7.34-7.34-8.26Zm-72.3,73.82c.11,.04,.21,.08,.32,.12-.01-.05-.02-.11-.03-.16-.1,.03-.21,.06-.31,.09,.63-.37,.18-.76,0-1.12-1.27-2.53-2.74-4.99-3.76-7.59-.74-1.9-1.97-2.38-4.08-2.24-1.23,.08-1.53,.29-.91,1.25,2.35,3.61,4.82,7.13,8.77,9.65Zm-37.85-10.06c.48,1.17,1.14,2.21,2.38,2.92,.4,.23,.75,.72,1.26,.35,.43-.31,.21-.74,.04-1.18-.31-.82-1.8-1.42-.67-2.52,3.22,3.71,6.44,7.43,9.67,11.14,.47,.54,.6,1.4,1.75,1.31,3.52-.28,5.24-2.24,4.54-5.26-1.61-6.96-6.11-12.46-11.74-17.39-1.7-1.49-3.67,0-5.51-.11-.77-.05-.36,1.65-.39,2.56-.1,2.69,1.35,5.13,1.67,7.74-.82,.57-.94-.12-1.13-.51-.69-1.49-1.31-2.99-1.47-4.61-.19-1.89-.39-3.77-.62-6.02-1.14,1.02-2.07,1.83-3.19,1.91-2.41,.16-1.39,1.03-.7,1.91,0,.4-.15,.73-.64,.86-.95-.56-1.14-1.55-1.76-2.29-.72-.85-1.86-1.7-2.9-1.41-1.17,.33-3.24,.09-3.42,1.29-.27,1.87-1.08,3.83,.86,5.73,3.26,3.2,5.37,7.03,6.05,11.3,.27,1.68,1.05,1.81,2.56,1.26,.46-.17,.97-.32,1.45-.33,1.93-.03,2.46-.98,2.17-2.44-.41-2.07-.87-4.13-1.3-6.2,.34,0,.69,0,1.03-.01Zm109.01-60.62c.39,.89,.38,1.93,1.56,2.9-.1-1.26-.12-2.19-.92-2.96-2.18-6.63-11.35-9-17.5-6.08,2.28,1.9,4.69,3.14,8.26,2.65,3.49-.49,6.6,.75,8.62,3.48Zm-81.84,83.23c1.81-.32,3.63-.58,5.41-.99,.69-.16,1.73,.06,2.01-.6,.33-.78-.82-.95-1.26-1.43-.53-.56-1.21-1.03-1.63-1.65-.86-1.25-1.7-1.43-3.18-.58-5.69,3.28-13.86,4.41-18.9-1.03-.86-.93-1.78-.26-2.42,.14-1.03,.64,.04,1.14,.48,1.54,2.01,1.81,4.44,3.06,7.18,3.87,3.83,1.13,7.78,.87,11.72,.77,.2-.01,.39-.03,.59-.04Zm-83.85-12.32c-.13-.57-.26-1.13-.4-1.7-1.4-5.58-4.43-10.27-9.78-13.81-2.72-1.8-4.6-4.45-8.71-4.6-3.06-.12-3.24-.37-2.88,2.33,.15,1.17,.56,2.26,1.19,3.3,1.41,2.34,3.31,4.38,5.36,6.3,3.64,3.42,7.85,6.37,11.24,9.99,.58,.62,1.15,.78,1.93,.34,.93-.53,2.38-.69,2.05-2.16Zm29.91-18.32c-.01,1.11-.02,2.17,.58,3.06,3,4.47,5.11,9.46,9.97,12.87,.96,.68,1.77,1.55,2.49,2.43,1.94,2.4,3.71,.11,5.51-.13,1.79-.24,1.18-1.51,.98-2.44-1.29-6.13-5.37-10.85-10.38-15.07-1.15-.97-2.22-1.87-4.11-1.11-.87,.35-1.93-.04-2.87-.49-.6-.29-.87-1.34-1.78-.87-.74,.38-.28,1.21-.4,1.74Zm82.09-22.58c8.64-2.08,17.49-12.83,17.64-21.31-3.89,.58-7.23,2.12-9.63,4.74-4.4,4.79-8,9.96-8.02,16.57Zm-61.61,48.93c6.6-.32,12.39-2.65,18.12-5.13,.41-.18,.77-.43,.4-.83-.71-.77-.97-1.9-2.33-2.16-2.87-.54-5.76-1.05-8.72-.74-5.57,.57-10.68,2.37-15.75,4.35-1.6,.62-1.14,1.04-.23,1.8,2.4,2.02,5.37,2.57,8.51,2.71Zm-29.01-44.25c-.12-2.54-1.8-4.14-4.23-5.27-3.95-1.85-8.27-1.92-12.51-1.44-3.09,.36-5.59,1.86-6.65,4.68-.5,1.33,.08,2.53,.77,3.52,.49,.71,1.81,.39,2.8,.16,5.49-1.26,10.98-1.86,16.53-.16,1.7,.52,3.33-.29,3.31-1.48Zm36.94-7.83c-1.06,.11-2.58,.19-4.06,.44-4.25,.7-6.64,3.25-6.36,6.67,.13,1.65,1.04,2.11,2.78,1.6,5.87-1.73,11.82-1.74,17.71-.21,1.87,.48,2.34,.03,2.26-1.4-.12-2.07-1.14-3.79-3.05-5.04-2.61-1.71-5.7-1.98-9.28-2.06Zm93.15-3.47c-.47-5.57-2.72-10.69-5.53-15.64-.8-1.41-2.75-1.3-4.17-1.13-1.18,.14-2.87,5.6-2.25,6.64,2.43,4.11,4.37,8.44,7.18,12.39,.56,.79,.39,2.33,2.05,2.03,1.55-.28,2.48-1.38,2.71-2.78,.08-.5,.01-1.01,.01-1.52Zm-44.25-2.6c3.75-1.56,7.67-2.61,9.96-6.14,2.42-3.73,6.62-5.88,11.42-7.02,1.64-.39,4.54-3.64,3.76-4.38-1.17-1.11-2.96-.42-4.49-.4-.66,0-1.34,.15-1.98,.3-10.46,2.48-15.22,9.51-18.67,17.63Zm-73.26,46.69c-.11-5.45-4.68-12.88-9.86-16.05-1.5-.92-3.19-.28-4.76,0-.44,.08,.16,5.16,.68,5.55,3.25,2.49,5.49,5.72,6.36,9.22,.78,3.13,2.43,3.34,5.37,3.04,1.61-.16,2.68-.26,2.22-1.76Zm41.58,12.19c2.85-.25,5.59-.88,8.06-2.18,2.64-1.4,5.25-2.85,7.83-4.34,.71-.41,2.19-.65,1.81-1.46-.46-.98-1.47-1.85-3.1-1.82-7.79,.13-15,1.99-21.76,5.28-1.07,.52-1.3,.89-.31,1.74,2.09,1.8,4.65,2.49,7.47,2.79Zm-60.14-2.97c1.92,1.51,4.56,2.14,8.24,1.94,6.64-.36,12.22-3.34,18.18-5.39,1-.34,.77-.76,.32-1.3-.6-.72-1.27-1.22-2.42-1.36-9.2-1.16-17.51,.32-24.32,6.1Zm17.82-48.64c-4.2,.12-7.9,1.08-10.13,4.53-.66,1.03-.67,2.25-.03,3.1,.4,.54,1.76,.85,2.75,.58,5.44-1.49,10.95-1.08,16.45-.46,1.07,.12,2.26,.72,3.03-.13,.84-.92-.03-1.99-.54-2.83-.82-1.37-2.22-2.33-3.81-3.06-2.41-1.1-4.96-1.71-7.72-1.74Zm133.05,3.5c.41-1.45-.07-2.02-1.89-1.77-.87,.12-1.96-.08-2.56-.71-2.14-2.24-2.4-.33-2.92,.95-.25,.61-.35,1.26-.52,1.89-1,3.64-3.04,7.05-3.2,10.89-.06,1.53-.39,3.15,1.92,3.74,2.39,.61,4,.06,5.07-2.1,2.05-4.12,3.28-8.47,4.1-12.88Zm-52.11,43.29c2.99,1.49,5.42,2.13,8.39,1.6,6.25-1.12,11.38-4.09,16.58-7.01,.63-.35,1.93-.56,1.46-1.44-.45-.84-1.17-1.86-2.59-1.78-1.83,.1-3.67,.03-5.5,.33-6.93,1.16-11.9,5.4-18.33,8.3Zm32.94-75.92c-8.6-.9-11.57,.63-14.27,6.91-1.37,3.19-2.64,6.41-3.94,9.62-.21,.51-.82,1.07-.18,1.59,.54,.43,1.26,.24,1.92,.1,3.36-.7,5.18-2.9,6.63-5.31,2.68-4.47,4.45-9.41,9.84-12.92Zm-84.91,36.48c-1.79-.16-2.41,.18-1.8,1.93,1.29,3.7,2.98,7.19,5.55,10.36,.74,.91,1.66,1.66,2.89,2.01,1.86,.53,3.65,.52,5.04-.93,1.32-1.38,.77-2.62-.27-3.94-1.51-1.92-2.81-3.96-3.6-6.2-.52-1.49-1.73-2.31-3.34-2.66-1.46-.31-2.98-.39-4.47-.58Zm20.69,29.65c.12-3.37-.53-5.87-2.01-6.94-2.12-1.53-3.24-3.44-3.58-5.78-.25-1.78-2.14-2.56-3.8-1.67-1.42,.76-2.39,4.64-1.42,6.03,2.73,3.89,4.74,7.99,5.28,12.56,.05,.4-.11,.86,.66,.93,2.57,.25,4.71-1.3,4.86-3.61,.03-.51,0-1.02,0-1.52Zm88.31-47.36c-1.12,3.62-1.95,7.09-3.07,10.5-1.15,3.5-1.2,7.09,1.98,10.16,.9,.87,1.24,.33,1.73-.1,2.34-2.03,3.46-4.61,4.27-7.3,1.45-4.81-.59-10.44-4.91-13.26Zm-32.53,58.5c3.88-.27,7.52-1.24,10.97-2.81,2.34-1.06,4.04-2.56,4.77-4.78,.41-1.23,1.21-2.85,.26-3.67-.77-.66-2.63,.13-3.95,.55-6.29,1.99-11.52,5.58-17.23,8.45-.88,.44-.72,.87,.1,1.23,1.59,.7,3.24,1.19,5.08,1.03Zm4.88-41.35c-.93,0-1.44,0-1.94,0q-3,.03-2.05,2.51c.39,1.03,.72,2.08,1.2,3.08,1.52,3.15,3.78,5.81,7.38,7.39,1.54,.68,3.34,.97,4.74-.07,1.26-.93,.58-2.28,.19-3.46-.72-2.17-1.92-4.14-3.18-6.11-1.49-2.33-3.33-4.03-6.35-3.33Zm-4.32-8.22c-6.75-.06-10.44,2.45-11.14,6.8-.13,.83-.27,1.88,1.24,1.41,4.96-1.54,10.11-1.08,15.2-1.27,.93-.04,1.81,.13,2.72,.35,.69,.18,1.3,1.29,2.11,.42,.66-.71,.13-1.57-.29-2.25-2.33-3.79-6.25-5.25-9.83-5.46Zm27.48,9.84c-.98,2.65-1.71,5.33-2.96,7.82-1.08,2.15-1.09,4.2-.43,6.34,.48,1.54,1.24,3.02,1.63,4.57,.42,1.68,.99,1.85,2.48,.68,6.56-5.15,4.83-14.34-.72-19.41Zm-1.63-33.84c-.25-2.33-1.65-3.73-3.94-4.45-6.12-1.92-14.44,.85-17.69,5.77-.73,1.11-.52,1.63,.93,1.67,1.75,.04,3.49,.08,5.25-.21,5.15-.86,10-2.9,15.46-2.77Zm-47.9,32.81c-.42,0-.84,0-1.26,0-2.98,.03-3.08,.19-2.31,2.59,1.27,3.92,4,6.95,7.52,9.54,1.38,1.02,3.03,1.25,4.41,.36,1.32-.85,1.25-2.3,.71-3.61-.62-1.49-1.33-2.96-1.93-4.46-1.7-4.26-1.94-4.42-7.15-4.43Zm-57.99,3.56c.04-2.91-.56-3.39-3.59-3.2-.42,.03-.84,.1-1.26,.07-2.22-.14-3.14,.78-3.34,2.66-.3,2.82-.92,5.59-2.73,8.06-.53,.72-.62,1.45,.18,2.17,1.99,1.81,5.21,1.79,6.82-.27,2.3-2.93,3.28-6.32,3.92-9.49Zm-22.38-2.81c-.52,.58-2.88-.93-2.09,1.14,1.17,3.05,2.85,5.96,4.35,8.92,.51,1,1.2,1.91,2.22,2.59,1.49,.98,4.66,.75,5.13-.36,.91-2.15-1.36-9.56-3.45-11-.57-.39-1.32-.67-2.03-.79-1.31-.23-2.65-.32-4.14-.48Zm66.93-19.36c-4.54,.1-8.08,1.78-10.83,4.63-2.11,2.19-3.99,4.55-3.48,7.67,.08,.5,.02,1.14,.68,1.3,.7,.16,.99-.48,1.27-.88,1.08-1.55,2.73-2.56,4.41-3.53,2.52-1.46,5.29-2.53,8.04-3.63,.9-.36,3.23-4.08,2.88-4.8-.62-1.28-2.06-.47-2.97-.75Zm26.7,43.44c.07-4.13-1.9-7.27-4.54-10.18-.49-.53-4.59-.8-4.53-.45,.29,1.82-1.56,3.56-.06,5.44,2.35,2.97,3.72,6.31,4.55,9.82,.16,.66-.52,1.85,.88,1.87,1.15,.01,2.18-.51,2.59-1.7,.58-1.67,1.14-3.33,1.11-4.81Zm21.68-32.74c2.1-.63,2.82-1.98,3.32-3.32,2.14-5.77,2.1-11.55-.18-17.29-.24-.61-.5-1.42-1.48-1.15-.99,.28-2.75,.11-2.83,1.02-.21,2.35-1.85,4.46-.62,7.12,1.94,4.19,3.61,8.59,1.79,13.62Zm-118.2,11.73c-.29-1.01,.39-2.74-1.71-2.81-1.18-.04-2.48,.11-3.71,.27-1.01,.14-2.18,.41-2.19,1.46-.04,2.96-1.54,5.62-2.12,8.46-.22,1.07-.56,2.25,.93,2.86,1.57,.65,3.22,.88,4.74-.14,1.01-.68,1.75-1.57,2.18-2.61,.98-2.39,1.68-4.83,1.89-7.5Zm127.33-15.06c.01,.18,.08,.82,.11,1.47,.09,1.68,1.02,2.76,3,2.94,2.11,.19,2.69-1.2,3.12-2.55,.57-1.81,.66-3.77,1.53-5.45,1.82-3.53,.28-5.71-3.26-7.34-.22-.1-.41-.25-.61-.38-.78-.54-1.31-.52-1.58,.43-.99,3.43-2.19,6.83-2.3,10.88Zm-147.81,12.26c-3.47-.07-3.56-.05-2.68,2.35,1.19,3.26,2.92,6.31,5.35,9.03,1.37,1.53,3.13,2.35,5.45,2.09,.76-.08,1.31-.27,1.24-1.04-.13-1.41,.12-2.8-.97-4.14-1.15-1.4-2.14-3-2.71-4.64-.97-2.74-2.85-3.99-5.67-3.65Zm-21.9-4.1c-3.36,.37-6.2,2.2-8.5,4.7-3.1,3.37-2.93,3.65,1.71,5.31,1.52,.54,2.43,.6,3.53-.73,1.58-1.91,3.91-3.1,6.53-3.86,2.7-.78,3.02-2.47,.86-4.15-1.03-.8-2.26-1.23-4.13-1.26Zm5.46,19.85c.69-.39,2.6,.04,2.19-1.48-.94-3.52-2.18-6.98-3.32-10.45-.18-.55-.43-1.14-1.27-1.16-1.92-.05-6.23,3.59-6.38,5.38-.27,3.1,4.94,7.79,8.78,7.71Zm-12.07-2.09c1.16,.05,1.67,.1,2.17,.09,1.48-.03,2.68-.17,1.2-1.76-.74-.8-1.31-1.75-1.34-2.77-.03-1.17-.79-1.67-1.89-2-2.88-.86-5.55-2.04-7.71-3.96-.37-.33-.76-.87-1.42-.25-2.34,2.18-1.04,8.02,2.1,9.24,2.39,.93,4.9,1.48,6.89,1.42Zm6.84,32.95c-.04-.13-.02-.32-.12-.38-4.19-2.78-7.29-6.03-6.31-11.01,.12-.63-.41-.67-.85-.84-2.65-1.04-5.77,.95-6.07,3.88-.49,4.89,7.14,9.67,13.35,8.36Zm110.78-33.22c2.88-.02,5.67-1.84,6.76-4.74,.95-2.53,1.63-5.14,2.33-7.74,.14-.51,.63-1.4-.5-1.63-.89-.19-1.59,.2-2.02,.95-.72,1.23-1.46,2.55-2.78,3.32-2.98,1.74-4.52,4.28-5.96,6.98-1.17,2.18-.74,2.88,2.18,2.86Zm30.76,30.85c-1.83-1.15-3.71-2.11-5.22-3.48-.72-.65-1.53-.48-2.34-.26-4.27,1.15-8.41,1.38-12.21-1.18-.93-.63-1.81-.18-2.5,.36-.86,.68,.05,1.15,.47,1.62,.99,1.12,2.3,1.89,3.76,2.49,5.91,2.41,11.93,1.54,18.02,.45Zm-12.18-77.32c-1.88-.84-3.35-.94-4.87-.76-5.6,.68-11.11,7.6-9.81,12.35,.12,.43,.27,.88,.87,.93,.63,.05,.78-.41,1.01-.8,2.88-4.85,6.72-8.96,12.79-11.72Zm4.52,31c-.21-.48-.36-.99-.64-1.43-1.35-2.11-3.66-3.73-6.16-3.64-2.47,.09-4.94,1.47-7.26,2.52-.56,.25-.95,1.53-.73,2.17,.3,.91,1.42,.18,2.18,.24,3.55,.29,7.22-.53,10.63,1.04,.73,.34,1.89,.33,1.99-.91Zm-12.81,33.73c-1.99,0-3.26,.01-4.52,0-1.35-.02-1.89,.34-1.2,1.55,.81,1.43,1.53,2.91,2.24,4.39,.39,.8,.8,1.13,1.89,.67,2.42-1.03,4.77-2.13,7.06-3.35,1.18-.63,.85-1.01,.24-1.82-1.67-2.23-4.28-1.11-5.71-1.43Zm-15.82-18.88c3.61-4.28,5.55-8.74,6.14-13.66,.12-1-.29-1.11-1.29-.72-.98,.38-1.75,.83-2.01,1.78-.39,1.45-1.07,2.95-2.38,3.77-3.87,2.41-3.08,5.06-1.05,7.94,.13,.18,.25,.37,.59,.89Zm65.69-37.81c0-.06-.24-.34-.58-.57-.43-.29-.8-.09-1.1,.18-1.16,1.04-2.61,2.11-2.65,3.57-.12,4.22-.37,8.36-2.82,12.2-.59,.92,.5,1.73,1.29,2.37,.52,.42,.94,.11,1.14-.34,.73-1.7,2.38-3.05,1.94-5.2-.28-1.36,.23-2.87,.58-4.28,.63-2.54,1.4-5.06,2.2-7.92Zm-33.36,12.49c-.07-1.52-.15-3.04-.65-4.51-.13-.39-.12-.94-.74-1.01-.65-.08-.73,.47-.94,.84-.66,1.16-1.06,2.56-2.06,3.44-2.34,2.05-1.87,3.86-.19,5.97,1.13,1.41,2.1,1.62,3.37,.25,1.37-1.47,1.27-3.23,1.2-4.97Zm1.32,3.45c1.38-1.23,3.25-.85,3.88-2.16,1.44-3,1.62-6.19,1.98-9.84-2,1.45-3.51,2.63-5.58,2.91-1.11,.15-1.02,.75-.83,1.45,.65,2.34,.7,4.72,.54,7.64Zm-53.39,22.2c0-1.65,.28-3.39,1.43-4.67,2.28-2.55,1.15-4.8-.25-7.15-.41-.69-.8-1.31-1.87-1.06-.9,.21-1.36,.75-1.53,1.54-.75,3.68,.67,7.21,1.01,10.82,.03,.32,.54,.53,1.21,.52Zm22.16,33.05c1.07,.07,1.28,0,1.36-.46,.19-1.15-2.28-3.97-3.62-4.05-2.4-.14-4.6-.73-6.52-1.99-.61-.4-1.18-.54-1.77-.07-.71,.57-.14,1.03,.24,1.49,2.52,3.09,6.02,4.7,10.32,5.08Zm-110.34-11.14c-2.13-.16-2.95,.74-2.63,2.47,.13,.7,.44,1.38,.64,2.07,.46,1.53,1.25,2.18,3.19,1.33,1.49-.66,2.91-1.39,4.31-2.17,1.23-.68,1.05-1.36,.05-2-1.65-1.05-3.57-1.48-5.56-1.7Zm123.59-22.12c.72-.18,1.61-.37,2.47-.63,2.99-.92,3.16-1.46,1.27-3.59-.76-.86-1.45-1.76-2.14-2.66-.4-.52-.76-.92-1.6-.6-1.51,.57-3.1,5.51-2.11,6.65,.48,.55,1.15,.81,2.11,.84Zm25-30.34c-.54,2.28-1.01,4.28-1.54,6.54,3.45-.39,6.45,.39,9.87,1.76-1.78-3.92-4.59-6.3-8.33-8.3Zm-127.27,32.98c1.96-.18,3.58-1.08,4.6-2.38,.89-1.13-.96-1.76-1.43-2.69-.37-.72-.89-1.39-1.38-2.07-.33-.46-.39-1.3-1.28-1.09-.73,.17-.69,.9-.8,1.47-.29,1.58-.81,3.1-1.55,4.56-.75,1.49-.12,2.24,1.84,2.19Zm100.46-24.3c-4.11,3.55-7.68,7.07-6.73,12.5,4.21-3.29,6.06-7.52,6.73-12.5Zm-76.06,23.37c1.11-.09,2.25-.83,3.4-1.55,.6-.38,.91-.75,.47-1.44-.88-1.39-1.66-2.83-2.45-4.27-.23-.41-.49-.92-1.01-.77-.35,.1-.65,.65-.76,1.04-.42,1.56-1.02,3.05-1.92,4.45-.98,1.53-.18,2.59,2.27,2.55Zm104.54-9.88c-.97,2.39-1.21,4.54-2.03,6.58-.54,1.33,.93,1.68,2.2,1.29,1.27-.39,2.28-1.18,3.15-2.09,.42-.44,.55-.77,.09-1.31-1.11-1.33-2.1-2.73-3.41-4.46Zm-116.32,3.34c1.2-1.34,1.22-2.7,1.61-3.93,.91-2.88,.1-3.58-3.37-3.45-1.52,.06-2.02,.47-1.34,1.71,1,1.82,1.99,3.65,3.1,5.67Zm37.02,4.11c3.57-.1,4.06-.82,2.43-3.57-.15-.26-.27-.54-.48-.76-.66-.72-.54-2.3-1.58-2.22-1.21,.1-.95,1.62-1.37,2.51-.28,.6-.58,1.19-.87,1.79-.82,1.68-.29,2.31,1.87,2.25Zm-11.94-4.45c1.29-2.4,1.49-4.38,1.5-6.29,0-1.72-1.81-1.05-2.89-.95-.68,.07-2.21-.14-1.55,1.27,.86,1.84,1.8,3.65,2.95,5.97Zm50,32.58c-.54-1.11-1.04-2.02-1.42-2.96-.5-1.25-1.27-1.64-2.52-.71-.9,.68-2.83,.81-2.68,1.89,.14,1.01,1.92,1.18,3.08,1.57,1.04,.35,2.1,.37,3.53,.22Zm-106.56-6.57c-1.13-.94-2.23-1.91-3.41-2.8-.76-.58-1.29-1.95-2.38-1.52-.94,.38-.45,1.71-.55,2.62-.14,1.32,.68,1.92,2.1,1.8,1.36-.11,2.66,.08,4.24-.1Zm26.41-15.2c.28-1.12,.23-2.04-.09-2.94-.23-.66-.12-1.69-1.14-1.73-1.15-.05-1.89,.91-2.45,1.64-.57,.74,.57,1.06,1.06,1.46,.7,.57,1.32,1.3,2.62,1.57Zm56.68-24.3c-1.45,1.06-1.31,2.46-1.4,3.79-.06,.92,.88,.92,1.5,1.16,.66,.26,1.34,.12,1.89-.22,.81-.51,.12-1.07-.14-1.5-.63-1.05-.8-2.31-1.86-3.23Zm-1.02,11.63c.13-2.02,.42-3.63,.25-5.2-.11-1.04-1.39-.78-2.27-.68-.92,.1-.98,.52-.63,1.22,.71,1.43,1.09,3,2.65,4.65Zm82.79-36.98c-.11,.05-.22,.1-.33,.16,.68,2.12,1.37,4.24,2.05,6.36,.7-1.04,3.08-1.21,1.84-2.74-1.07-1.33-2.37-2.52-3.57-3.78Zm-47.65,57.18c0,.99-.06,1.79,.02,2.57,.06,.63-.48,1.62,.83,1.69,1.03,.06,2.41,.47,3.03-.26,.55-.66-.64-1.33-1.15-1.94-.67-.8-1.38-1.58-2.73-2.06Zm-116.65-6.86c.5-4.29-.74-5.25-4.74-3.81,1.57,1.26,3.06,2.46,4.74,3.81Zm49.94-1.78c.57-.98,.42-1.85,.26-2.67-.17-.9-1.2-1.16-2.05-1.34-.68-.14-1.28,.41-1.6,.87-.57,.82,.51,1.1,.98,1.47,.72,.57,1.25,1.36,2.41,1.67Zm19.8,14.95c-1.06-1.67-1.84-3.18-3.68-4.2q.16,4.34,3.68,4.2Zm4.12,.32c-1.32-1.48-2.43-2.72-3.53-3.98-.26-.3-.54-.59-1-.45-.16,.05-.29,.35-.3,.54-.12,1.42,2.92,4.02,4.83,3.89Zm-36.17-42.66c-.29-.75-1.17-.69-1.82-.83-1-.22-2.06-.58-3.06-.03-.13,.07-.09,.66,.09,.78,.97,.66,2.04,1.21,3.34,1.14,.7-.04,1.22-.41,1.46-1.06Zm89.7,25.71c-.11-1.39,1.09-2.89-.3-3.96-.43-.33-1.98,.53-2.15,1.11-.44,1.48,1.65,1.79,2.46,2.85Zm-121.22-9.47c.34-1.45,.57-2.52,.83-3.57,.12-.48,.54-.99-.18-1.35-.61-.3-1.15,.06-1.65,.28-.54,.24-.94,.54-.58,1.21,.53,.97,.93,2,1.58,3.44Zm72.15,12c.31-3.64,1.05-2.57-3.66-4,.71,1.56,2.38,2.33,3.66,4Zm67.04,10.01c-.63-.81-1.23-1.56-1.83-2.32-.09-.12-.17-.25-.26-.37-.19-.26-.46-.46-.81-.33-.4,.15-.64,.44-.66,.84-.08,1.37,1.65,2.51,3.55,2.18Zm-53.8-3.78c.3,1.43,.5,2.6,.8,3.76,.12,.44,.66,.8,1.14,.7,.63-.12,.98-.74,.72-1.2-.63-1.1-.92-2.44-2.65-3.26Zm39.99-31.18c0-1.2-.81-1.79-1.25-2.52-.24-.4-.62-.77-1.17-.47-.48,.26-1.02,.62-1.2,1.05-.24,.53,.52,.62,.92,.8,.8,.36,1.62,.69,2.71,1.15Zm14.25-11.93c2.02-1.67,2.01-2.35-.06-4.25-.34,1.47-.43,2.81,.06,4.25Zm-53.84,50.07c-.09,.8-.1,1.51,1.06,1.28,.61-.12,1.84,.29,1.64-.71-.17-.87-1.04-1.77-2.12-1.87-.75-.06-.5,.89-.59,1.3Zm47.5-5.77c-.17,1.54-1.39,2.47-.27,3.4,.29,.24,1.77-.05,2-.42,.73-1.17-.7-1.65-1.73-2.98Zm-133.64-32.11c-1.53,.03-2.8,.44-3.95,1.32,2.43,1.81,3.39,.76,3.95-1.32Zm28.1,21.26c.6,.98,1.43,1.64,2.46,2.29,.56-2.61,.54-2.62-2.46-2.29Zm61.37,14.46c-.23,.12-.56,.19-.59,.32-.2,.84,.75,1.19,1.1,1.8,.25,.44,.48,.96,1.21,.9,.16-.01,.44-.31,.41-.41-.36-1.06-1.24-1.8-2.12-2.61Zm39.77-32.31c-.19-1.22,.85-1.97-.2-2.59-.28-.16-1.26,.06-1.33,.25-.29,.85,.42,1.4,1.53,2.34Zm-137.44,45.36c.49,1.65,1.52,2.75,3.66,2.63-1.22-.88-2.44-1.75-3.66-2.63Zm153.69-27.84c.7-1,.46-1.75-.1-2.37-.29-.32-.82,.04-1,.33-.55,.94,.33,1.38,1.09,2.04Zm5.28-41.2c.58-1.14,1.15-1.91,.32-3.11-.75,1.01-1.36,1.74-.32,3.11Z"/>
  <path class="cls-5" d="M226.11,6.85c2.36-.19,4.5,.74,6.79,.94-.53,2.5-1.17,4.99-1.21,7.55-.63,2.77-1.34,5.52-1.89,8.3-3.47,17.53-8.09,34.83-14.23,51.81-2.07,5.73-4.45,11.37-7.12,17.02-3.51-3.58-4.22-6.3-2.57-10.28,3.93-9.5,7.18-19.18,9.93-28.98,.82-2.91,2.41-5.76,1.78-8.9,.88-.1,.89-.67,1.03-1.27,1.25-5.47,2.65-10.92,3.79-16.41,1.36-6.57,2.87-13.12,3.7-19.77Z"/>
  <path class="cls-1" d="M240.78,179.67c-2.17-5.54-5.23-10.75-7.87-16.12-2.39-4.85-4.89-9.66-7.31-14.5-1.5-2.99,.46-6.64,4.16-7.78,0,0-.03-.02-.03-.02,2.29,4.63,4.5,9.29,6.89,13.89,1.69,3.25,2.9,6.71,5.24,9.7h0c.55,2.79,2.33,5.18,3.59,7.74,.68,1.39,.88,3.06,2.48,4.05h-.02c-.33,.86,.34,1.53,.69,2.24,2.46,5.07,4.96,10.13,7.44,15.19-2.34,.45-4.69,.9-7.03,1.35-2.74-5.25-5.48-10.49-8.22-15.74Z"/>
  <path class="cls-15" d="M217.59,44.3c.62,3.14-.96,5.99-1.78,8.9-2.75,9.8-6,19.48-9.93,28.98-1.65,3.98-.94,6.7,2.57,10.28,2.67-5.65,5.05-11.28,7.12-17.02,6.14-16.98,10.76-34.28,14.23-51.81,.55-2.78,1.26-5.54,1.89-8.3,.22,2.21,.05,4.4-.27,6.59,.1,.14,.07,.25-.1,.33-.02,.23-.04,.45-.06,.67-.94,6.18-2.51,12.26-4.01,18.35-2.77,11.27-5.95,22.45-10.02,33.43-2.24,6.05-4.47,12.11-7.45,17.94-.37,.72-.5,1.52-.75,2.28-.06,.36-.09,.74-.57,.91-.32-.44-.64-.88-.96-1.32-.12-.18-.24-.37-.36-.55-1.15-3-2.76-5.78-5.12-8.22-.06-.13-.13-.26-.2-.39-.13-.16-.26-.31-.39-.47-.04-.11-.05-.22-.06-.33,.2-.18,.4-.36,.59-.54,1.52,1.5,1.62-.02,1.93-.73,2.93-6.8,5.47-13.71,7.65-20.71,1.87-6.02,3.51-12.1,5.25-18.15,.27-.04,.55-.08,.82-.12l-.03-.02Z"/>
  <path class="cls-9" d="M190.84,111.99c-.59-.61-1.27-1.17-1.77-1.83-1.26-1.65-2.54-2.63-4.58-.73-.82,.76-1.49,.46-1.73-.54-.63-2.7-1.27-5.41-1.89-8.11-.27-1.18,.17-1.49,1.48-.92,2.77,1.21,5.59,2.34,8.38,3.52,.76,.32,1.68,.62,.6,1.54-.74,.63-2.39,.94-2.15,1.84,.26,.95,1.48,1.7,2.29,2.53,.16,.17,.36,.31,.54,.46,2.14,2.27,4.7,4.12,7.53,5.72,.27,.15,.54,.3,.8,.45,.89,.53,1.71,1.18,2.67,1.58,1.9,.79,3.79,1.81,6.07,1.09,.95-.59,.64-1.36,.39-2.1-.19-.57-.91-1.12,.05-1.65,.76-.42,1.38-.16,1.96,.32,.93,2.14,.88,4.09-1.44,5.61-.53,.08-1.06,.16-1.59,.24-.47-.01-.94-.03-1.4-.04-3.2-.69-6.09-1.97-8.7-3.66-2.59-1.67-5.01-3.52-7.51-5.3Z"/>
  <path class="cls-6" d="M208.45,120.99c.53-.08,1.06-.16,1.59-.24,.15,.13,.29,.26,.44,.39,.01,1.4,2.03,2.76,.11,4.21-.7,.53-1.31,1.22-2.2,.11-3.35-4.12-8.37-4.54-13.52-4.2-2.53,.16-5.04,.16-7.56,.2-.41,0-1.06,.03-1.19-.16-1.28-1.9-3.03-3.44-4.76-5.02-.47-.43,.58-.45,.93-.66,.2-.02,.4-.05,.6-.07,2.72-.13,5.43-.26,8.15-.39,.56,.45,1.34,.43,1.91,.29,.93-.22,.63-.62-.09-.86-.73-.36-1.01-1.25-2.01-1.29,0-.43,0-.87,0-1.3,2.5,1.77,4.92,3.63,7.51,5.3,2.61,1.69,5.5,2.97,8.7,3.66,.46,.34,.93,.3,1.4,.04Z"/>
  <path class="cls-6" d="M184.36,180.55c.22-.92-.36-1.18-1.29-1.47-3.44-1.09-6.03-3.08-7.71-5.9-.27-.46-1.16-1.12,.03-1.62,.72-.31,1.42-.8,2.22,0,4.64,4.59,10.68,4.91,16.6,3.01,4.6-1.47,7.27-.23,9.72,2.8-.66,.83-2.18,.42-3.01,1.38,.93,.08,1.73,.14,2.54,.21-.98,.91-2.25,1.12-3.61,1.09-.22-1.44-1.52-.8-2.33-.79-1.15,.02-2.32,.22-3.43,.49-3.08,.73-6.35-.34-9.38,.78l-.17,.04h-.17Z"/>
  <path class="cls-14" d="M116.91,175.96c.05,.33,.09,.67,.14,1-4.82,1.94-10.04,2.24-15.2,2.64-5.94,.45-11.92,.64-17.89,.55-.91-.01-1.83-.18-2.73-.35-.72-.13-1.5-.74-1.21-1.17,.83-1.27,.24-2.68,.73-3.84,.4-.94,.9-1.66,.69-2.76-.21-1.08,1.02-1.3,1.94-1.1,7.36,1.58,14.71,.62,22.06-.02,.04,.29,.07,.59,.11,.88-6.87,1.31-13.78,1.67-20.75,.59-.52-.08-1.43-.66-1.63,.27-.15,.72,.42,1.15,1.35,1.25,1.19,.12,3.47,.07,3.23,.81-.41,1.31-2.24,.22-3.46,.27-.76,.03-1.99-.45-2.1,.52-.09,.78,1.17,.52,1.83,.72,1.29,.41,3.98-.21,3.74,.64-.4,1.42-2.68,.47-4.16,.53-.78,.03-1.75-.04-1.82,.76-.1,.99,1.02,.77,1.69,.78,11.27,.04,22.54,0,33.45-2.97Z"/>
  <path class="cls-15" d="M226.69,106c-.52,.43-1.03,.86-1.55,1.3-3.26-2.08-6.79-3.71-10.78-4.46-5.88-1.1-10.96-3.17-13.68-8.37-2.36,4.63-1.21,9.05,3.79,10.82,1.85,.66,3.82,1.04,5.6,1.84-.44,.2-1.65-.31-1.06,.85-2.92-1.18-5.62-.71-8.17,.82-1.29,.78-2.6,1.56-3.57,2.66-.43,.32-.82,.83-1.49,.44-.61-.36-.04-.76,.05-1.14,1.77-1.33,3.43-2.78,5.58-3.7,.5-.22,1.63-.22,1.2-1.01-.41-.76-1.29-1.03-2.34-.51-2.43,1.21-4.66,2.58-6.12,4.72-.68-.02-.95-.39-1.06-.91,.47-.52,.93-1.03,1.4-1.55,.64-.49,1.27-.97,1.91-1.46,0,0,0,0,0,0,1.01-.46,2.03-.91,3.04-1.37,.59-.27,.98-.7,.47-1.2-.94-.93-.88-2.31-1.99-3.14-.13-1.88-.23-3.77,.65-5.56,.2-.41,.6-.74-.19-.9-.14-.03-.36,.23-.55,.35-.17-.19-.35-.38-.52-.58,2.03-2.48,2.99-2.43,4.66,.16,1.18,1.82,2.37,3.66,4.53,4.8,.51,.39,.96,1.1,1.75,.69,.46-.24-.09-.73-.19-1.1l-.02,.03c.8-.05,.75,.54,1.04,.94,.37,.51,.62,1.47,1.78,.84,.19-.23,.38-.47,.56-.7,.56,1.88,2.66,1.73,4.16,2.37,.27,.39,.69,.43,1.15,.37,2.78,.52,5.21,1.68,7.55,3.03,.72,.42,1.35,1.13,2.4,.64Z"/>
  <path class="cls-15" d="M226.11,6.85c-.83,6.65-2.34,13.2-3.7,19.77-1.14,5.49-2.54,10.94-3.79,16.41-.14,.6-.15,1.17-1.03,1.27,0,0,.03,.02,.03,.02-.03-.3-.05-.61-.08-.91,.01-3.88,1.51-7.53,2.31-11.29,1.68-7.9,3.32-15.8,4.72-23.74,.13-.73-.28-2.01,1.53-1.54Z"/>
  <path class="cls-15" d="M123.63,124.65c-.42,0-.84,0-1.26,0,.36-1.41,.71-2.84,1.63-4.07,.93-1.25,.18-1.45-1.08-1.47-2.36-.04-4.17,.87-5.72,2.31-1.81,1.67-2.76,3.75-3.69,5.84-.34,0-.69-.01-1.03-.02,.39-2.62,1.8-4.83,3.85-6.71,2.07-1.89,4.65-3.06,7.68-2.41,1.69,.36,2.84-.05,4.2-.69,4.53-2.15,9.31-3.65,14.55-3.86-.45,.23-1,.39-.93,.98-1.06,.21-2.14,.35-3.16,.64-6.17,1.75-13.21,2.51-15.02,9.44Z"/>
  <path class="cls-14" d="M197.32,93.93c.17,.19,.35,.38,.52,.58-2.03,2.08-2.81,2.03-3.85-.35-1.32-3.02-1.82-6.14-1.24-9.36,.26-1.46,.61-2.94,2.31-3.62,1.83-.73,3.4,.09,4.84,1.03,.79,.52,1.63,1.01,2.09,1.83-.2,.18-.4,.36-.59,.54-.98-.66-1.9-1.41-2.95-1.97-2.37-1.26-3.43-.9-4.25,1.37-1.24,3.42-.28,6.72,.92,9.97,.57,1.54,1.47,.43,2.21,0Z"/>
  <path class="cls-14" d="M177.64,178.26c.3,.24,.59,.48,.89,.72-7.09,2.49-14.33,2.89-21.72,1.18,.48-.1,1.01-.12,1.26-.58,6.63,.77,13.17,.48,19.57-1.32Z"/>
  <path class="cls-14" d="M240.78,179.67c2.74,5.24,5.48,10.49,8.22,15.74-.91,1.28-1.31,.29-1.62-.33-2.55-5.12-5.06-10.26-7.58-15.39,.33,0,.65-.01,.98-.02Z"/>
  <path class="cls-14" d="M309.03,159.57c.36,0,.72,0,1.08,.01-1.52,4.87-4.5,8.71-10.21,10.52-1.28,.4-2.46,.88-3.51,1.62,.12-.65,.92-1.3,.03-1.96,.5-.06,1-.13,1.51-.19,.83,.79,1.32,.58,1.53-.4,4.99-1.86,7.62-5.48,9.57-9.6Z"/>
  <path class="cls-15" d="M239.93,108.47c-.27,.25-.54,.5-.81,.75-2.64-2.89-5.68-4.85-10.24-3.29-.25-.23-.51-.47-.76-.7,2.89-1.49,5.82-1.4,8.46,.28,1.41,.9,1.85,.55,2.62-.5,.8-1.08,1.75-2.12,3.14-2.73,.25,.21,.49,.42,.74,.62-.94,.91-1.89,1.82-2.84,2.72-.92,.88-1.34,1.8-.31,2.85Z"/>
  <path class="cls-14" d="M276.23,177v-.87c6.14,.51,11.75-.94,17.05-3.49,.23,.23,.47,.46,.7,.69-5.34,3.32-11.27,4.47-17.75,3.68Z"/>
  <path class="cls-14" d="M250.48,178.34c.36-.16,.72-.31,1.08-.47,1.92,5.01,4.79,9.67,7.07,14.55,.27,.57,1.28,1.36-.44,1.53-2.57-5.21-5.14-10.41-7.71-15.61Z"/>
  <path class="cls-14" d="M137.28,180.47c.01-.3,.02-.61,.03-.91,4.84,.42,9.69,.9,14.52-.08,.02,.32,.05,.64,.07,.96-4.87,1.15-9.75,.92-14.63,.03Z"/>
  <path class="cls-14" d="M184.7,180.53c3.03-1.12,6.3-.05,9.38-.78,1.12-.26,2.28-.47,3.43-.49,.81-.01,2.11-.65,2.33,.79-4.1,.89-8.25,1.35-12.48,1.02-.91-.07-1.87,0-2.66-.54Z"/>
  <path class="cls-12" d="M256.03,194.05c-2.49-5.06-4.98-10.12-7.44-15.19-.35-.71-1.02-1.37-.69-2.25,.78-.07,.72,1.04,1.58,.85,0,0-.01,0-.01,0-.35,.92,.25,1.66,.63,2.45,2.34,4.74,4.68,9.48,7.02,14.22-.36-.02-.73-.05-1.09-.07Z"/>
  <path class="cls-12" d="M257.12,194.12c-2.34-4.74-4.67-9.48-7.02-14.22-.39-.78-.99-1.52-.63-2.45,.34,.3,.67,.6,1.01,.89,2.57,5.21,5.14,10.41,7.71,15.61-.36,.05-.71,.11-1.07,.16Z"/>
  <path class="cls-14" d="M231.42,21.93c.31-2.19,.49-4.39,.27-6.59,.05-2.56,.68-5.05,1.21-7.55,1.57-.03,.94,1.04,.88,1.56-.53,4.23-1.15,8.45-2.36,12.58Z"/>
  <path class="cls-13" d="M194.75,98.51c-.23,.85-1.07,1.37-1.63,1.21-1.49-.42-1.7-1.84-2.2-2.92-.25-.54,.87-.99,1.4-.93,1.78,.18,1.47,1.89,2.43,2.63Z"/>
  <path class="cls-15" d="M263.59,96.69c-.3-.2-.59-.41-.89-.61,1.58-2.33,3.49-4.37,6.42-5.53,.21,.4,.63,.47,1.07,.49-2.64,1.5-4.8,3.43-6.61,5.65Z"/>
  <path class="cls-15" d="M189.63,93.71c-1.32-.53-1.39-1.78-1.77-2.79-.36-.96,.83-1.13,1.4-1.06,1.69,.21,1.45,1.71,1.92,2.66,.39,.79-.7,.95-1.55,1.18Z"/>
  <path class="cls-13" d="M196.47,104.94c-.32-.4-.67-.78-.97-1.2-.31-.44-1.08-.85-.46-1.44,.51-.49,1.1-1.15,2.03-.48,.24,.36,.43,.76,.73,1.08,1.55,1.66,.8,2.18-1.32,2.04Z"/>
  <path class="cls-15" d="M314.2,105.87c.38-.02,.76-.04,1.14-.06,1.02,1.76,1.01,3.58,.36,5.42-.18-.39-.54-.54-1-.55-.12-1.61,.11-3.24-.5-4.81Z"/>
  <path class="cls-13" d="M172.83,113.22c.12-.06,.23-.04,.31,.06,0,.3,0,.61-.01,.91-.53-.13-1.06-.25-1.6-.38-.13-.09-.28-.12-.44-.07-2.01-.29-4.03-.58-6.04-.87,.33-.27,.66-.53,.99-.8,2.1-.09,4.09,.44,6.09,.88,.23,.09,.46,.18,.69,.26Z"/>
  <path class="cls-14" d="M208.47,95.84c.47-.17,.51-.54,.57-.91,.96,1.21,1.48,2.58,1.97,3.96-.28,.03-.56,.06-.84,.09-.35-.49-.7-.99-1.05-1.48-.21-.55-.42-1.11-.64-1.66Z"/>
  <path class="cls-14" d="M173.14,114.19c0-.3,0-.61,.01-.91,1.33,.04,2.5,.5,3.61,1.09-.09,.32-.17,.64-.26,.95-1.12-.38-2.24-.75-3.36-1.13Z"/>
  <path class="cls-14" d="M310.62,157.46c0-1.94,0-3.87,0-5.81,.47,1.94,.66,3.87,0,5.81Z"/>
  <path class="cls-14" d="M215.31,179.73c2.07-.04,4.14-.08,6.21-.11-2.07,.23-4.13,.53-6.21,.11Z"/>
  <path class="cls-15" d="M112.22,130.79c.35,.99,1.98,1.76,.7,3.03-.23-1.01-.47-2.02-.7-3.03Z"/>
  <path class="cls-14" d="M166.05,112.07c-.33,.27-.66,.53-.99,.8-.34-.01-.68-.03-1.02-.04,0-.29,0-.58,0-.87,.68-.14,1.35-.16,1.99,.12Z"/>
  <path class="cls-14" d="M225.71,179.05c.71-.44,1.44-.8,2.36-.53-.72,.39-1.52,.52-2.36,.53Z"/>
  <path class="cls-14" d="M254.51,177.42c.74-.65,1.09-.05,1.49,.36-.5-.12-.99-.24-1.49-.36Z"/>
  <path class="cls-14" d="M151.93,112.83c-.44,.53-1.07,.48-1.7,.4,.49-.38,1.05-.54,1.7-.4Z"/>
  <path class="cls-13" d="M293.98,173.32c-.23-.23-.47-.46-.7-.69,.41-.25,.82-.51,1.23-.76l.77,.61c-.43,.28-.87,.56-1.3,.85Z"/>
  <path class="cls-14" d="M158.49,111.99c-.29,.4-.61,.48-.98,.07,.31-.2,.64-.24,.98-.07Z"/>
  <path class="cls-14" d="M110.5,170.02c-.35,.42-.82,.47-1.36,.32,.36-.39,.84-.43,1.36-.32Z"/>
  <path class="cls-10" d="M217.55,43.42c.03,.3,.05,.61,.08,.91-.27,.04-.55,.08-.82,.12-.25-.62,.01-.95,.75-1.03Z"/>
  <path class="cls-14" d="M272.15,177.18c.23-.49,.53-.72,1.02-.2-.34,.07-.68,.13-1.02,.2Z"/>
  <path class="cls-14" d="M267.64,177.88c.38-.4,.86-.39,1.36-.22-.4,.35-.86,.38-1.36,.22Z"/>
  <path class="cls-14" d="M113.04,169.52c-.34,.54-.83,.56-1.41,.32,.41-.3,.89-.38,1.41-.32Z"/>
  <path class="cls-15" d="M210.16,98.98c.28-.03,.56-.06,.84-.09,.14,.23,.29,.47,.43,.7-.19,.23-.38,.46-.56,.7-.24-.44-.47-.87-.71-1.31Z"/>
  <path class="cls-14" d="M181.46,179.63c.5-.02,.99-.01,1.27,.44-.42-.15-.85-.29-1.27-.44Z"/>
  <path class="cls-14" d="M155.33,179.71c.48-.09,.88,0,1.14,.38-.38-.13-.76-.25-1.14-.38Z"/>
  <path class="cls-15" d="M112.48,127.23c-.1,.29-.19,.59-.29,.88,.1-.29,.19-.59,.29-.88Z"/>
  <path class="cls-14" d="M295.47,171.84c.29-.02,.58-.05,.87-.07-.3,.2-.59,.39-.89,.59,0-.17,.01-.34,.02-.51Z"/>
  <path class="cls-14" d="M106.42,170.69c-.27,.28-.63,.29-1,.22,.33-.07,.67-.15,1-.22Z"/>
  <path class="cls-14" d="M178.25,115.02c-.33-.02-.65-.03-.98-.05-.05-.14-.07-.28-.07-.42,.46-.03,.78,.17,1.05,.47Z"/>
  <path class="cls-13" d="M243.08,102.9c-.25-.21-.49-.42-.74-.62,0,0,.15-.09,.14-.09,.32,.09,.64,.17,.96,.26-.12,.15-.24,.3-.37,.46Z"/>
  <path class="cls-14" d="M216.75,102.33c-.46,.06-.88,.02-1.15-.37,.38,.12,.77,.25,1.15,.37Z"/>
  <path class="cls-14" d="M231.26,22.93c.02-.22,.04-.45,.06-.67-.02,.22-.04,.45-.06,.67Z"/>
  <path class="cls-15" d="M274.17,88.62c-.19,.06-.37,.13-.56,.19,.19-.06,.37-.13,.56-.19Z"/>
  <path class="cls-15" d="M262.58,96.3c0,.15-.06,.27-.19,.36,.06-.12,.13-.24,.19-.36Z"/>
  <path class="cls-14" d="M172.83,113.22c-.23-.09-.46-.18-.69-.26,.23,.09,.46,.18,.69,.26Z"/>
  <path class="cls-15" d="M314.63,113.73c.07-.13,.15-.26,.22-.4-.07,.13-.15,.26-.22,.4Z"/>
  <path class="cls-3" d="M190.61,113.75c.1,.24,0,.32-.28,.27,.02-.14,.12-.23,.28-.27Z"/>
  <path class="cls-13" d="M177.2,114.56c0,.14,.03,.28,.07,.42-.16,.15-.32,.3-.48,.45-.1-.02-.2-.06-.29-.11,.09-.32,.17-.64,.26-.95,.18,0,.33,.07,.44,.19Z"/>
  <path class="cls-13" d="M295.47,171.84c0,.17-.01,.34-.02,.51,0,0-.17,.13-.17,.13-.26-.2-.52-.4-.77-.61,.17-.14,.33-.27,.5-.41,.16,.12,.31,.25,.47,.37Z"/>
  <path class="cls-14" d="M118.13,176.75c.27-.14,.39,0,.47,.2-.16-.07-.31-.13-.47-.2Z"/>
  <path class="cls-4" d="M270.48,177.52s0,0,0,0c0,0,0,0,0,0Z"/>
  <path class="cls-14" d="M239.25,179.26c.19,.15,.37,.3,.56,.45-.19-.15-.37-.3-.56-.45Z"/>
  <path class="cls-14" d="M134.38,179.85c.37-.11,.66-.01,.88,.26-.29-.09-.58-.17-.88-.26Z"/>
  <path class="cls-15" d="M112.5,134.67c-.08,.14-.17,.28-.25,.42,.08-.14,.17-.28,.25-.42Z"/>
  <path class="cls-6" d="M123.63,124.65c1.82-6.93,8.85-7.69,15.02-9.44,1.03-.29,2.11-.43,3.16-.64,4.82-.15,9.54,.12,13.89,2.21,1.4,.67,2.66,1.48,3.83,2.43,1.93,1.55,1.8,3.4,1.26,5.35l-.05,.05-.08-.18s-.22,.02-.22,.02c-.28,.22-.57,.44-.85,.66-.8,.59-1.4,.3-2.2-.17-5.86-3.39-12.04-3.76-18.69-1.74-5.13,1.56-10.25,3.08-15.42,5.38,.12-1.45,.23-2.7,.33-3.94Z"/>
  <path class="cls-6" d="M197.42,155.63c-.33-2.62-1.77-5.06-1.67-7.74,.03-.91-.38-2.61,.39-2.56,1.84,.11,3.81-1.39,5.51,.11,5.62,4.93,10.13,10.44,11.74,17.39,.7,3.02-1.02,4.98-4.54,5.26-1.16,.09-1.28-.77-1.75-1.31-3.23-3.71-6.45-7.43-9.67-11.14,0,0,0,0,0,0Z"/>
  <path class="cls-6" d="M137.73,166.36c.34,1.46-1.11,1.63-2.05,2.16-.78,.44-1.34,.29-1.93-.34-3.39-3.63-7.6-6.57-11.24-9.99-2.05-1.93-3.95-3.96-5.36-6.3-.63-1.04-1.04-2.13-1.19-3.3-.35-2.69-.17-2.44,2.88-2.33,4.1,.16,5.99,2.8,8.71,4.6,5.34,3.53,8.38,8.22,9.78,13.81,.14,.56,.27,1.13,.4,1.7Z"/>
  <path class="cls-6" d="M167.64,148.03c.12-.53-.34-1.36,.4-1.74,.91-.47,1.17,.58,1.78,.87,.93,.45,1.99,.84,2.87,.49,1.89-.76,2.96,.14,4.11,1.11,5.01,4.23,9.09,8.94,10.38,15.07,.2,.94,.8,2.2-.98,2.44-1.8,.24-3.57,2.53-5.51,.13-.71-.88-1.53-1.76-2.49-2.43-4.85-3.42-6.96-8.4-9.97-12.87-.6-.89-.59-1.95-.58-3.06Z"/>
  <path class="cls-6" d="M143.8,151.72c-.12-.3-.25-.61-.37-.91-.17-.37-.33-.75-.5-1.12,.09-2.07,.66-2.4,2.78-1.63,.38,.14,.8,.33,1.19,.31,6.1-.16,8.82,4.06,12.16,7.24,2.23,2.13,3.5,4.92,4.3,7.8,.35,1.25-.02,1.77-1.46,2.46-2.61,1.24-4.48,1.17-6.31-.91-.44-.49-.87-1.44-2.04-1.06,0,0-.09,.02-.09,.02,.39-.86-.06-1.14-1-1.08,.08-.13,.05-.24-.08-.33-3.26-3.36-6.67-6.63-8.59-10.79Z"/>
  <path class="cls-5" d="M225.23,133.08c.84-.31,1.68-.62,2.51-.93,.63-.04,1.28,.02,1.78-.43,.25,.02,.51,.03,.76,.05,.88,.23,1.76,.29,2.62-.08,.42-.02,.84-.04,1.26-.05,.57-.02,1.33-.27,1.64,.2,.34,.52-.12,1.08-.45,1.61-1.7,2.66-4.45,4.51-6.85,6.63-.94,.83-1.98,1.59-2.83,2.48-2.65,2.79-2.37,5.71-.48,8.73,.48,.77,1.66,1.75,.8,2.49-.77,.66-2.25,.29-3.39,.05-4.57-.95-6.56-3.89-6.23-8.93,.19-2.8,1.64-5.14,3.4-7.38,1.61-1.67,3.5-3.09,5.47-4.43Z"/>
  <path class="cls-5" d="M210.07,107.12c-1.78-.8-3.74-1.18-5.6-1.84-5-1.78-6.15-6.19-3.79-10.82,2.72,5.2,7.8,7.27,13.68,8.37,3.99,.75,7.51,2.38,10.78,4.46,1.68,1.6,3.33,3.2,4.7,5.03,1.07,1.44,1.38,2.44-.25,3.84-2.23,1.92-2.06,2.06-3.92-.17-.92-1.1-1.81-2.23-3.31-2.82h-.07c.06-.34-.14-.46-.51-.43,0,0,.04-.1,.04-.1-2.03-2.12-4.71-3.35-7.67-4.19-1.2-.79-2.64-1.03-4.06-1.31l-.03-.03Z"/>
  <path class="cls-6" d="M176.5,115.32c.09,.05,.19,.09,.29,.11,2.76,1.4,5.55,2.75,7.21,5.27,.69,1.05,1.06,2.15,.81,3.33-.42,1.99-1.68,2.33-3.6,1.25-5.2-2.92-10.9-4.79-17.04-5.58-1.64-.21-2.96-.66-4.15-1.73-2.07-1.86-4.78-2.87-8.26-3.88,4.43-1.26,8.38-1.15,12.29-1.27,.34,.01,.68,.03,1.02,.04,2.01,.29,4.03,.58,6.04,.87,.15,.02,.29,.05,.44,.07,.53,.13,1.06,.25,1.6,.38,1.12,.38,2.24,.75,3.36,1.13Z"/>
  <path class="cls-6" d="M116.91,175.96c-10.92,2.97-22.18,3.02-33.45,2.97-.67,0-1.78,.21-1.69-.78,.08-.8,1.05-.73,1.82-.76,1.48-.06,3.76,.89,4.16-.53,.24-.85-2.45-.24-3.74-.64-.66-.21-1.92,.05-1.83-.72,.11-.98,1.34-.49,2.1-.52,1.22-.05,3.05,1.04,3.46-.27,.23-.75-2.04-.69-3.23-.81-.93-.1-1.51-.53-1.35-1.25,.2-.93,1.11-.35,1.63-.27,6.97,1.08,13.87,.72,20.75-.59,.53-.09,1.06-.18,1.59-.27,.38,.24,.71,.14,1.03-.09,.25-.02,.5-.01,.75-.06,1.63-.29,3.33-.99,4.88-.8,1.96,.24,.61,2.37,1.73,3.36,.62,.55,.94,1.35,1.4,2.03Z"/>
  <path class="cls-6" d="M244.97,146.9c-.04-.5-.3-1.11-.07-1.49,.5-.84,1.05-2.01,2.46-.62,.93,.92,2.21,1.49,3.6,1.04,1.5-.49,2.35,.04,3.22,.94,4.17,4.29,7.15,9.01,8.07,14.67,.39,2.41-1.71,2.79-3.21,3.55-1.43,.73-1.7-.82-2.27-1.45-3.15-3.48-6.2-7.02-9.28-10.55-.84-2.03-1.69-4.06-2.53-6.09Z"/>
  <path class="cls-6" d="M249.73,125.45c.02-6.61,3.62-11.78,8.02-16.57,2.4-2.61,5.74-4.15,9.63-4.74-.15,8.48-9,19.23-17.64,21.31Z"/>
  <path class="cls-6" d="M270.54,150.74c-.11-.5-.23-1-.33-1.5-.63-3.37,1.3-4.71,5.22-3.63,.08,.02,.17,.08,.24,.07,4.17-.83,4.57,2.19,5.79,4.29,1.7,2.93,2.64,6.08,3.27,9.31,.52,2.67-2.39,2.35-3.71,3.39-1.22,.97-1.7-.3-2.32-.85-3.04-2.75-5.29-5.98-7.4-9.29-.26-.6-.51-1.19-.77-1.79Z"/>
  <path class="cls-6" d="M188.12,174.38c-3.13-.14-6.11-.69-8.51-2.71-.91-.77-1.37-1.18,.23-1.8,5.06-1.98,10.18-3.78,15.75-4.35,2.96-.3,5.85,.21,8.72,.74,1.36,.25,1.62,1.39,2.33,2.16,.37,.4,0,.65-.4,.83-5.73,2.48-11.52,4.81-18.12,5.13Z"/>
  <path class="cls-6" d="M294.25,145.59c-.03-2.45,2.2-2.22,4-2.53,.51-.09,.88,.07,.9,.49,.21,3.95,2.92,7.38,2.98,11.38,.06,3.72-.52,7.22-3.23,10.26-1.34,1.51-3.07,2.48-5.31,2.58-1.06,.05-2.21,.03-1.17-1.4,1.42-1.97,1.73-4.2,1.72-6.48,.56-.65,.33-1.35,.19-2.05,0-.3,0-.59,0-.89,.16-1.5,.01-2.99-.36-4.46,0-2.3-.11-4.61,.29-6.9Z"/>
  <path class="cls-6" d="M159.11,130.13c.03,1.19-1.61,2-3.31,1.48-5.55-1.7-11.04-1.1-16.53,.16-.99,.23-2.31,.55-2.8-.16-.69-.99-1.27-2.18-.77-3.52,1.07-2.82,3.56-4.33,6.65-4.68,4.24-.49,8.56-.41,12.51,1.44,2.43,1.14,4.11,2.74,4.23,5.27Z"/>
  <path class="cls-6" d="M196.05,122.3c3.58,.08,6.67,.35,9.28,2.06,1.91,1.25,2.93,2.97,3.05,5.04,.08,1.42-.39,1.88-2.26,1.4-5.89-1.53-11.84-1.52-17.71,.21-1.74,.51-2.65,.05-2.78-1.6-.28-3.42,2.11-5.97,6.36-6.67,1.48-.24,2.99-.33,4.06-.44Z"/>
  <path class="cls-5" d="M229.74,130.79c-1.33-.1-.99-.9-.92-1.61,.28-2.95,2.31-4.96,4.99-6.46,5.34-3,11.42-4.74,17.16-7.5-2.34,8.54-9.83,14.52-19.21,15.57-.67,0-1.35,0-2.02,0Z"/>
  <path class="cls-6" d="M289.19,118.83c0,.51,.07,1.02-.01,1.52-.24,1.4-1.16,2.5-2.71,2.78-1.66,.3-1.49-1.24-2.05-2.03-2.8-3.95-4.74-8.28-7.18-12.39-.62-1.04,1.08-6.5,2.25-6.64,1.42-.17,3.37-.28,4.17,1.13,2.82,4.94,5.07,10.07,5.53,15.64Z"/>
  <path class="cls-6" d="M244.94,116.22c3.44-8.12,8.2-15.16,18.67-17.63,.65-.15,1.32-.3,1.98-.3,1.53-.02,3.32-.71,4.49,.4,.77,.74-2.12,3.99-3.76,4.38-4.8,1.14-9,3.28-11.42,7.02-2.29,3.53-6.21,4.58-9.96,6.14Z"/>
  <path class="cls-6" d="M314.2,105.87c.61,1.57,.37,3.2,.5,4.81q-1.58,4.08-5.01,.97c-2.75-2.47-6.2-4.21-9.17-6.46-1.89-1.43-3.7-2.9-4.89-4.87,8.82-2.5,15.94-.54,18.58,5.55Z"/>
  <path class="cls-6" d="M171.68,162.91c.46,1.49-.61,1.59-2.22,1.76-2.93,.3-4.59,.09-5.37-3.04-.87-3.49-3.11-6.72-6.36-9.22-.51-.39-1.11-5.47-.68-5.55,1.57-.28,3.26-.92,4.76,0,5.18,3.17,9.75,10.6,9.86,16.05Z"/>
  <path class="cls-6" d="M213.26,175.1c-2.82-.3-5.39-.99-7.47-2.79-.99-.85-.75-1.22,.31-1.74,6.76-3.29,13.96-5.15,21.76-5.28,1.63-.03,2.64,.85,3.1,1.82,.39,.82-1.1,1.06-1.81,1.46-2.58,1.48-5.18,2.94-7.83,4.34-2.47,1.3-5.21,1.93-8.06,2.18Z"/>
  <path class="cls-6" d="M193.38,156.08c.44,2.07,.89,4.13,1.3,6.2,.29,1.46-.24,2.4-2.17,2.44-.49,0-.99,.16-1.45,.33-1.51,.55-2.29,.42-2.56-1.26-.68-4.27-2.79-8.1-6.05-11.3-1.93-1.9-1.12-3.86-.86-5.73,.17-1.2,2.24-.96,3.42-1.29,1.04-.29,2.18,.56,2.9,1.41,.63,.74,.81,1.73,1.76,2.29,1.24,2.3,2.47,4.61,3.71,6.91Z"/>
  <path class="cls-6" d="M153.12,172.14c6.81-5.78,15.12-7.27,24.32-6.1,1.14,.14,1.81,.64,2.42,1.36,.45,.54,.68,.95-.32,1.3-5.96,2.05-11.54,5.03-18.18,5.39-3.67,.2-6.32-.44-8.24-1.94Z"/>
  <path class="cls-6" d="M131.67,175.4c-1-.25-2.11-.66-2.19-1.54-.07-.71,1.24-.78,1.84-1.24,4.53-3.5,10.01-5.1,15.85-6.01,0,0-.02,0-.02,0,.75-.05,1.51-.11,2.26-.16,1.15-.05,2.3-.1,3.44-.14,.58,.04,1.17,.12,1.75,.11,1.1-.01,1.79,.56,2.11,1.31,.37,.86-.73,1.04-1.29,1.36-4.42,2.53-8.89,4.98-14.07,6.24-2.64-.18-5.32,.32-7.93-.4-.62-.17-1.34-.12-1.77,.49Z"/>
  <path class="cls-6" d="M170.94,123.5c2.76,.03,5.31,.64,7.72,1.74,1.59,.72,2.99,1.68,3.81,3.06,.51,.85,1.38,1.91,.54,2.83-.77,.84-1.96,.25-3.03,.13-5.5-.62-11.01-1.03-16.45,.46-.99,.27-2.35-.04-2.75-.58-.63-.85-.63-2.07,.03-3.1,2.23-3.45,5.93-4.41,10.13-4.53Z"/>
  <path class="cls-6" d="M303.99,127c-.82,4.41-2.05,8.75-4.1,12.88-1.07,2.15-2.68,2.7-5.07,2.1-2.31-.59-1.99-2.2-1.92-3.74,.16-3.83,2.2-7.24,3.2-10.89,.17-.63,.27-1.28,.52-1.89,.52-1.28,.78-3.19,2.92-.95,.6,.63,1.69,.83,2.56,.71,1.81-.25,2.29,.32,1.89,1.77Z"/>
  <path class="cls-6" d="M251.87,170.29c6.43-2.89,11.4-7.14,18.33-8.3,1.84-.31,3.67-.23,5.5-.33,1.42-.08,2.13,.94,2.59,1.78,.47,.88-.83,1.09-1.46,1.44-5.19,2.92-10.32,5.89-16.58,7.01-2.97,.53-5.4-.11-8.39-1.6Z"/>
  <path class="cls-6" d="M284.81,94.37c-5.4,3.51-7.16,8.45-9.84,12.92-1.44,2.4-3.26,4.61-6.63,5.31-.66,.14-1.38,.33-1.92-.1-.64-.52-.03-1.08,.18-1.59,1.3-3.21,2.57-6.43,3.94-9.62,2.7-6.29,5.67-7.81,14.27-6.91Z"/>
  <path class="cls-6" d="M177.64,178.26c-6.4,1.79-12.94,2.09-19.57,1.32,0,0-.02,0-.02,0-.24-.23-.44-.12-.65,.04-2.46-1.48-5.46-2.24-7.51-4.23-.43-.42-1.63-.81-.84-1.46,.67-.55,1.6-1.47,2.84-.78,6.5,3.61,12.98,2.15,19.4-.1,1.61-.56,2.45-.43,3.03,1,.67,1.64,2.65,2.55,3.31,4.21Z"/>
  <path class="cls-6" d="M199.9,130.85c1.49,.18,3.02,.27,4.47,.58,1.61,.34,2.82,1.17,3.34,2.66,.78,2.24,2.08,4.28,3.6,6.2,1.04,1.32,1.6,2.56,.27,3.94-1.39,1.45-3.19,1.46-5.04,.93-1.23-.35-2.15-1.1-2.89-2.01-2.57-3.17-4.26-6.66-5.55-10.36-.61-1.75,0-2.1,1.8-1.93Z"/>
  <path class="cls-6" d="M220.59,160.5c0,.51,.03,1.02,0,1.52-.15,2.31-2.29,3.87-4.86,3.61-.78-.08-.62-.53-.66-.93-.53-4.57-2.54-8.67-5.28-12.56-.98-1.39,0-5.27,1.42-6.03,1.66-.89,3.55-.11,3.8,1.67,.33,2.35,1.46,4.26,3.58,5.78,1.48,1.06,2.14,3.57,2.01,6.94Z"/>
  <path class="cls-6" d="M308.9,113.14c4.32,2.82,6.36,8.46,4.91,13.26-.81,2.7-1.93,5.27-4.27,7.3-.49,.42-.83,.96-1.73,.1-3.18-3.07-3.12-6.66-1.98-10.16,1.12-3.41,1.94-6.88,3.07-10.5Z"/>
  <path class="cls-6" d="M276.37,171.64c-1.84,.17-3.49-.32-5.08-1.03-.81-.36-.98-.79-.1-1.23,5.71-2.87,10.95-6.46,17.23-8.45,1.32-.42,3.17-1.21,3.95-.55,.95,.82,.15,2.44-.26,3.67-.73,2.21-2.43,3.72-4.77,4.78-3.46,1.56-7.09,2.54-10.97,2.81Z"/>
  <path class="cls-6" d="M281.25,130.29c3.02-.7,4.86,1,6.35,3.33,1.26,1.96,2.45,3.94,3.18,6.11,.39,1.18,1.07,2.53-.19,3.46-1.4,1.04-3.2,.75-4.74,.07-3.61-1.58-5.86-4.24-7.38-7.39-.48-1-.81-2.05-1.2-3.08q-.95-2.48,2.05-2.51c.5,0,1.01,0,1.94,0Z"/>
  <path class="cls-6" d="M276.93,122.07c3.59,.21,7.5,1.67,9.83,5.46,.42,.69,.96,1.55,.29,2.25-.81,.87-1.41-.25-2.11-.42-.9-.23-1.79-.39-2.72-.35-5.09,.19-10.24-.27-15.2,1.27-1.51,.47-1.37-.58-1.24-1.41,.7-4.35,4.39-6.86,11.14-6.8Z"/>
  <path class="cls-6" d="M139.81,147.79c-3.5-3.82-2.8-8.13-1.88-12.44,.46-2.17,6.1-4.36,8.19-3.2,.7,.39,.75,1.13,.81,1.76,.34,3.59-.27,7.07-1.7,10.45-.79,1.87-2.72,2.59-4.54,3.42-.29,0-.58,0-.87,.01Z"/>
  <path class="cls-6" d="M142.79,156.59c-.44,1.75,1.06,3.16,1.12,4.84,.03,1,.23,2,.47,2.98,.29,1.2-.42,1.7-1.6,1.97-.22,.04-.43,.08-.65,.12-2.12,.7-3.04,.35-3.49-1.87-.9-4.39-2.82-8.5-6.54-11.79-1.47-1.29-.14-2.93-.76-4.53,1.96,1.21,4.5-.39,6.28,1.29,1.37,1.88,2.73,3.76,4.1,5.65,.31,.46-.05,1.34,1.08,1.29v.06Z"/>
  <path class="cls-6" d="M304.41,131.9c5.55,5.07,7.28,14.27,.72,19.41-1.49,1.17-2.06,1.01-2.48-.68-.39-1.55-1.15-3.03-1.63-4.57-.66-2.14-.65-4.19,.43-6.34,1.25-2.49,1.98-5.17,2.96-7.82Z"/>
  <path class="cls-6" d="M292.95,153.9c-.01,1.62-.03,3.25-.04,4.87-.24,.1-.48,.21-.72,.31-.33,0-.66,.02-1,.02-1.65,0-3.44,1.53-4.66,.64-.96-.71-.8-2.54-1.19-3.87-.33-1.12-.48-2.35-1.15-3.31-2.03-2.91-1.56-6.03-1.37-9.52,2.17,2.06,6.05,1.05,7.52,3.89,1.19,2.24,2.38,4.47,2.6,6.98Z"/>
  <path class="cls-1" d="M213.2,124.22c-.1-.28-.2-.55-.3-.83,1.15-.76,.74-1.88,.61-2.78-.36-2.4,.97-3.47,3.47-3.83,1.12,1.2,1.07,2.97,2.63,3.95h-.01c-.32,1.02,.46,1.79,.86,2.63,1.4,2.92,2.86,5.83,4.3,8.74-2.15,1.04-3.64,2.77-5.63,3.98-.31-.5-.62-1-.94-1.5,0,0,.04-.13,.04-.13l-.15-.07s-.06-.11-.06-.11c-.11-.21-.22-.42-.33-.64-1.39-2.96-2.77-5.93-4.16-8.89-.11-.17-.21-.35-.32-.52Z"/>
  <path class="cls-6" d="M267.32,133.78c.43-.89-.35-2.29,1.12-2.67,1.99-.51,4.09-.95,6.18-.67,.89,.12,.96,1.11,1,1.82,.16,3.29-.38,6.51-1.58,9.62-.69,1.78-5.05,3.69-7.11,3.21-1.52-.35-2.41-1.19-1.64-2.56,.71-1.26,.96-2.61,1.33-3.93,.46-1.58,.74-3.19,.7-4.82Z"/>
  <path class="cls-6" d="M302.78,98.06c-5.45-.13-10.31,1.91-15.46,2.77-1.76,.29-3.5,.26-5.25,.21-1.45-.04-1.66-.56-.93-1.67,3.25-4.92,11.57-7.69,17.69-5.77,2.29,.72,3.7,2.12,3.94,4.45Z"/>
  <path class="cls-6" d="M254.88,130.87c5.21,.01,5.44,.17,7.15,4.43,.6,1.5,1.31,2.96,1.93,4.46,.54,1.31,.61,2.75-.71,3.61-1.38,.89-3.03,.66-4.41-.36-3.52-2.59-6.26-5.62-7.52-9.54-.78-2.41-.67-2.56,2.31-2.59,.42,0,.84,0,1.26,0Z"/>
  <path class="cls-6" d="M196.89,134.43c-.64,3.17-1.62,6.55-3.92,9.49-1.61,2.06-4.83,2.08-6.82,.27-.8-.73-.71-1.46-.18-2.17,1.81-2.46,2.42-5.24,2.73-8.06,.2-1.87,1.13-2.79,3.34-2.66,.42,.03,.84-.05,1.26-.07,3.03-.19,3.63,.3,3.59,3.2Z"/>
  <path class="cls-6" d="M174.51,131.63c1.48,.16,2.83,.25,4.14,.48,.71,.13,1.46,.4,2.03,.79,2.09,1.44,4.36,8.85,3.45,11-.47,1.11-3.64,1.35-5.13,.36-1.02-.67-1.71-1.59-2.22-2.59-1.49-2.96-3.17-5.86-4.35-8.92-.8-2.07,1.56-.56,2.09-1.14Z"/>
  <path class="cls-5" d="M241.44,112.27c.91,.29,2.35-.53,2.97,.75,.35,.72-1.98,4.44-2.88,4.8-2.75,1.1-5.52,2.17-8.04,3.63-1.68,.97-3.32,1.98-4.41,3.53-.28,.4-.58,1.04-1.27,.88-.66-.15-.6-.8-.68-1.3-.51-3.12,1.37-5.48,3.48-7.67,2.75-2.85,6.29-4.54,10.83-4.63Z"/>
  <path class="cls-6" d="M268.14,155.71c.03,1.48-.53,3.13-1.11,4.81-.41,1.19-1.44,1.71-2.59,1.7-1.4-.02-.73-1.21-.88-1.87-.83-3.52-2.2-6.86-4.55-9.82-1.49-1.88,.36-3.62,.06-5.44-.06-.35,4.05-.08,4.53,.45,2.64,2.9,4.61,6.05,4.54,10.18Z"/>
  <path class="cls-6" d="M289.82,122.97c1.82-5.02,.15-9.43-1.79-13.62-1.23-2.67,.42-4.77,.62-7.12,.08-.92,1.84-.74,2.83-1.02,.98-.28,1.24,.53,1.48,1.15,2.28,5.75,2.32,11.53,.18,17.29-.5,1.34-1.22,2.69-3.32,3.32Z"/>
  <path class="cls-6" d="M113.5,127.26c.93-2.09,1.88-4.17,3.69-5.84,1.55-1.44,3.37-2.35,5.72-2.31,1.26,.02,2.02,.22,1.08,1.47-.92,1.23-1.27,2.66-1.63,4.07,.48,3.95-2.41,6.69-4.63,9.69-.66,.9-1.06,.5-1.69,.01-2.5-1.93-3.02-4.38-2.55-7.09Z"/>
  <path class="cls-6" d="M171.62,134.7c-.21,2.66-.9,5.11-1.89,7.5-.43,1.04-1.17,1.94-2.18,2.61-1.51,1.01-3.17,.79-4.74,.14-1.48-.61-1.15-1.8-.93-2.86,.58-2.84,2.09-5.5,2.12-8.46,.01-1.06,1.18-1.33,2.19-1.46,1.23-.16,2.53-.32,3.71-.27,2.1,.08,1.42,1.81,1.71,2.81Z"/>
  <path class="cls-6" d="M298.95,119.64c.11-4.05,1.31-7.45,2.3-10.88,.28-.96,.8-.98,1.58-.43,.2,.14,.39,.28,.61,.38,3.55,1.63,5.08,3.81,3.26,7.34-.86,1.68-.96,3.64-1.53,5.45-.43,1.35-1.01,2.74-3.12,2.55-1.98-.18-2.91-1.26-3-2.94-.03-.65-.1-1.3-.11-1.47Z"/>
  <path class="cls-6" d="M297.93,169.57c-.5,.06-1,.13-1.51,.19-.83-.05-1.67-.1-2.5-.16,.02-.21,.04-.42,.06-.63,6.08-.93,8.66-4.96,9.01-9.42,.34-4.27,2.17-7.28,5.82-10.02,1.27,3.38,1.02,6.7,.23,10.03-1.95,4.13-4.58,7.74-9.57,9.6-.53,.07-1.15-.09-1.53,.4Z"/>
  <path class="cls-6" d="M151.14,131.9c2.82-.33,4.7,.91,5.67,3.65,.58,1.64,1.56,3.23,2.71,4.64,1.1,1.34,.84,2.73,.97,4.14,.07,.77-.48,.95-1.24,1.04-2.32,.26-4.08-.56-5.45-2.09-2.43-2.72-4.16-5.77-5.35-9.03-.88-2.4-.79-2.43,2.68-2.35Z"/>
  <path class="cls-6" d="M263.59,96.69c1.81-2.23,3.97-4.15,6.61-5.65,5.86-2.11,11.66-2.96,17.37,.4,.5,.29,1.13,.47,1.04,.99-.05,.27-.74,.45-1.13,.69-1.04,.65-2.09,.25-3.15,.06-4.84-.88-9.19-.3-12.56,3.17-.21,.22-.48,.57-.71,.57-2.49-.04-5.02,.62-7.47-.23Z"/>
  <path class="cls-6" d="M129.24,127.8c1.87,.04,3.1,.46,4.13,1.26,2.16,1.68,1.84,3.36-.86,4.15-2.62,.76-4.95,1.95-6.53,3.86-1.1,1.33-2.01,1.27-3.53,.73-4.64-1.66-4.81-1.93-1.71-5.31,2.3-2.5,5.14-4.33,8.5-4.7Z"/>
  <path class="cls-6" d="M295,171.46c-.17,.14-.33,.27-.5,.41-.41,.25-.82,.51-1.23,.76-5.3,2.56-10.9,4-17.05,3.49-3.07-.74-6.09-1.59-8.47-3.54-.43-.36-1.3-.74-.58-1.33,.47-.39,1.23-.91,2.01-.43,5.9,3.62,11.65,1.65,17.38-.34,1.07-.37,1.95-.51,3.09-.14,1.71,.56,3.73,.14,5.35,1.11Z"/>
  <path class="cls-6" d="M134.7,147.64c-3.84,.09-9.05-4.6-8.78-7.71,.16-1.79,4.47-5.44,6.38-5.38,.85,.02,1.09,.61,1.27,1.16,1.14,3.48,2.38,6.94,3.32,10.45,.41,1.52-1.5,1.09-2.19,1.48Z"/>
  <path class="cls-6" d="M122.63,145.55c-1.99,.06-4.5-.49-6.89-1.42-3.14-1.22-4.44-7.06-2.1-9.24,.67-.62,1.05-.07,1.42,.25,2.16,1.92,4.83,3.1,7.71,3.96,1.1,.33,1.86,.82,1.89,2,.03,1.03,.6,1.98,1.34,2.77,1.47,1.59,.27,1.74-1.2,1.76-.5,0-1.01-.04-2.17-.09Z"/>
  <path class="cls-6" d="M220.99,178.71c-3.94,.1-7.89,.36-11.72-.77-2.74-.81-5.18-2.05-7.18-3.87-.44-.4-1.5-.9-.48-1.54,.64-.4,1.56-1.07,2.42-.14,5.04,5.44,13.21,4.32,18.9,1.03,1.48-.85,2.32-.67,3.18,.58,.42,.61,1.11,1.08,1.63,1.65,.45,.48,1.59,.65,1.26,1.43-.28,.66-1.32,.44-2.01,.6-1.78,.41-3.6,.67-5.41,.99-.2,.01-.39,.03-.59,.04Z"/>
  <path class="cls-6" d="M129.47,178.5c-6.21,1.32-13.84-3.47-13.35-8.36,.29-2.92,3.41-4.91,6.07-3.88,.44,.17,.98,.21,.85,.84-.98,4.99,2.12,8.23,6.31,11.01,.1,.06,.08,.25,.12,.38Z"/>
  <path class="cls-6" d="M240.25,145.27c-2.92,.02-3.35-.68-2.18-2.86,1.45-2.7,2.98-5.24,5.96-6.98,1.31-.76,2.06-2.08,2.78-3.32,.44-.75,1.13-1.14,2.02-.95,1.12,.23,.63,1.12,.5,1.63-.69,2.6-1.38,5.21-2.33,7.74-1.09,2.9-3.88,4.72-6.76,4.74Z"/>
  <path class="cls-6" d="M271.01,176.12c-6.09,1.09-12.12,1.96-18.02-.45-1.47-.6-2.78-1.37-3.76-2.49-.42-.47-1.33-.94-.47-1.62,.68-.54,1.56-.99,2.5-.36,3.8,2.56,7.94,2.33,12.21,1.18,.81-.22,1.62-.4,2.34,.26,1.51,1.37,3.39,2.33,5.22,3.48Z"/>
  <path class="cls-6" d="M131.67,175.4c.42-.61,1.15-.66,1.77-.49,2.62,.72,5.29,.22,7.93,.4-.86,.73-3.3,.17-2.88,1.31,.46,1.27,2.53,.31,3.38-.19,4.33-2.57,7.22-.37,10.25,1.92,.99,.75,.26,.85-.28,1.14-4.83,.98-9.68,.49-14.52,.08-2.11-.83-4.79-.57-6.59-2.47,.41-.08,.67-.21,.82-.14,.73,.33,1.59,.89,2.08-.07,.51-1.01-.88-.75-1.34-1.13-.18-.14-.41-.24-.61-.36Z"/>
  <path class="cls-6" d="M244.34,155.01c.46,2.06,.9,4.13,.74,6.24-.04,.51-.1,1.08-.81,1.21-.78,.14-.96-.46-1.19-.91-2.45-4.83-4.88-9.67-7.34-14.5-.24-.48-.56-.93,.01-1.37,.5-.38,.9,.08,1.35,.13,2.89,.34,4.48,1.92,5.44,4.13,0,0,.05,.02,.05,.02,.59,1.68,1.18,3.35,1.77,5.03,0,0-.03,.01-.03,.01Z"/>
  <path class="cls-6" d="M258.82,98.8c-6.07,2.76-9.91,6.87-12.79,11.72-.23,.39-.39,.85-1.01,.8-.61-.05-.76-.5-.87-.93-1.29-4.75,4.21-11.67,9.81-12.35,1.52-.18,2.99-.08,4.87,.76Z"/>
  <path class="cls-5" d="M228.88,105.93c4.56-1.56,7.6,.4,10.24,3.29,.99,1.22,.95,2.07-1.06,2.23-1.36,.11-2.63,.56-3.69,1.23-1.73,1.1-2.55,.52-3.39-.9-.68-1.14-1.56-2.26-2.62-3.15-1.5-1.26-1.12-2.02,.52-2.71Z"/>
  <path class="cls-6" d="M263.34,129.8c-.1,1.24-1.26,1.25-1.99,.91-3.42-1.57-7.09-.76-10.63-1.04-.76-.06-1.88,.67-2.18-.24-.21-.64,.17-1.92,.73-2.17,2.33-1.05,4.79-2.43,7.26-2.52,2.5-.09,4.81,1.53,6.16,3.64,.28,.44,.43,.94,.64,1.43Z"/>
  <path class="cls-6" d="M250.54,163.53c1.43,.32,4.04-.8,5.71,1.43,.61,.81,.95,1.19-.24,1.82-2.29,1.23-4.64,2.33-7.06,3.35-1.1,.46-1.5,.13-1.89-.67-.72-1.47-1.43-2.95-2.24-4.39-.69-1.21-.14-1.57,1.2-1.55,1.26,.02,2.52,0,4.52,0Z"/>
  <path class="cls-5" d="M234.71,144.65c-.34-.52-.46-.71-.59-.89-2.02-2.88-2.82-5.54,1.05-7.94,1.31-.81,1.98-2.32,2.38-3.77,.26-.95,1.03-1.4,2.01-1.78,1-.39,1.41-.27,1.29,.72-.58,4.93-2.53,9.39-6.14,13.66Z"/>
  <path class="cls-6" d="M300.41,106.84c-.8,2.86-1.57,5.38-2.2,7.92-.35,1.41-.86,2.92-.58,4.28,.44,2.15-1.21,3.5-1.94,5.2-.2,.45-.62,.76-1.14,.34-.79-.64-1.88-1.45-1.29-2.37,2.46-3.83,2.7-7.97,2.82-12.2,.04-1.46,1.49-2.53,2.65-3.57,.29-.26,.67-.47,1.1-.18,.34,.23,.59,.51,.58,.57Z"/>
  <path class="cls-6" d="M303.42,95.44c-2.02-2.74-5.13-3.97-8.62-3.48-3.56,.5-5.98-.75-8.26-2.65,6.15-2.92,15.33-.55,17.5,6.08-.21,.02-.42,.03-.63,.05Z"/>
  <path class="cls-6" d="M267.05,119.33c.07,1.74,.17,3.5-1.2,4.97-1.28,1.37-2.24,1.16-3.37-.25-1.69-2.11-2.15-3.92,.19-5.97,1-.88,1.4-2.28,2.06-3.44,.21-.37,.29-.92,.94-.84,.62,.07,.6,.62,.74,1.01,.5,1.47,.58,2.99,.65,4.51Z"/>
  <path class="cls-6" d="M268.37,122.78c.15-2.92,.11-5.3-.54-7.64-.19-.7-.29-1.3,.83-1.45,2.07-.28,3.58-1.46,5.58-2.91-.37,3.65-.54,6.84-1.98,9.84-.63,1.31-2.5,.93-3.88,2.16Z"/>
  <path class="cls-6" d="M214.98,144.98c-.67,0-1.18-.21-1.21-.52-.34-3.6-1.77-7.14-1.01-10.82,.16-.8,.63-1.33,1.53-1.54,1.07-.25,1.46,.37,1.87,1.06,1.4,2.35,2.53,4.6,.25,7.15-1.15,1.28-1.42,3.03-1.43,4.67Z"/>
  <path class="cls-8" d="M190.31,148.31c-.68-.88-1.71-1.75,.7-1.91,1.13-.07,2.06-.89,3.19-1.91,.23,2.25,.43,4.13,.62,6.02,.16,1.62,.78,3.12,1.47,4.61,.18,.39,.3,1.08,1.13,.51,0,0,0,0,0,0-1.13,1.1,.36,1.71,.67,2.52,.17,.44,.39,.87-.04,1.18-.52,.37-.86-.12-1.26-.35-1.24-.71-1.9-1.76-2.38-2.92-.79-2.81-2.13-5.41-4.1-7.76Z"/>
  <path class="cls-6" d="M237.14,178.03c-4.31-.38-7.8-1.99-10.33-5.07-.38-.46-.95-.92-.24-1.49,.59-.47,1.16-.33,1.77,.07,1.92,1.26,4.13,1.85,6.52,1.99,1.34,.08,3.82,2.9,3.62,4.05-.08,.45-.29,.53-1.36,.45Z"/>
  <path class="cls-6" d="M126.8,166.89c1.99,.21,3.92,.64,5.56,1.7,1,.64,1.18,1.32-.05,2-1.4,.78-2.81,1.51-4.31,2.17-1.94,.85-2.73,.2-3.19-1.33-.21-.69-.51-1.37-.64-2.07-.32-1.73,.49-2.63,2.63-2.47Z"/>
  <path class="cls-6" d="M250.39,144.77c-.96-.03-1.63-.29-2.11-.84-1-1.14,.6-6.08,2.11-6.65,.84-.32,1.21,.08,1.6,.6,.69,.9,1.38,1.81,2.14,2.66,1.9,2.13,1.73,2.66-1.27,3.59-.86,.26-1.75,.45-2.47,.63Z"/>
  <path class="cls-6" d="M275.39,114.42c3.73,2,6.55,4.37,8.33,8.3-3.42-1.37-6.42-2.15-9.87-1.76,.53-2.26,1.01-4.26,1.54-6.54Z"/>
  <path class="cls-6" d="M232.26,166.13c-3.95-2.52-6.42-6.05-8.77-9.65-.63-.96-.32-1.17,.91-1.25,2.11-.14,3.34,.35,4.08,2.24,1.01,2.6,2.49,5.07,3.76,7.59,.18,.36,.63,.75,0,1.12l.03-.05Z"/>
  <path class="cls-8" d="M148.12,147.4c-1.95,.04-2.59-.71-1.84-2.19,.74-1.46,1.26-2.98,1.55-4.56,.11-.57,.07-1.3,.8-1.47,.89-.2,.95,.64,1.28,1.09,.49,.67,1.01,1.34,1.38,2.07,.47,.92,2.31,1.56,1.43,2.69-1.02,1.3-2.64,2.2-4.6,2.38Z"/>
  <path class="cls-5" d="M248.57,123.1c-.67,4.98-2.52,9.21-6.73,12.5-.96-5.43,2.62-8.95,6.73-12.5Z"/>
  <path class="cls-8" d="M172.52,146.47c-2.46,.04-3.25-1.02-2.27-2.55,.9-1.4,1.5-2.89,1.92-4.45,.1-.39,.4-.93,.76-1.04,.52-.15,.79,.36,1.01,.77,.79,1.43,1.57,2.87,2.45,4.27,.44,.7,.13,1.06-.47,1.44-1.15,.72-2.29,1.46-3.4,1.55Z"/>
  <path class="cls-6" d="M292.66,127.84c1.31-.19,2.14-.17,1.44,1.39-1.1,2.42-2.05,4.9-2.52,8.1-1.42-2.16-2.66-3.87-3.69-5.67-.5-.87,1.05-1.23,1.06-2.07,1.24-.58,2.48-1.17,3.72-1.75Z"/>
  <path class="cls-6" d="M304.56,92.3c4.41,.93,7.47,4.31,7.34,8.26-1.57-.53-2.81-1.56-4.44-1.85-.77-.14-.98-.75-1.11-1.32-.37-1.73-1.37-3.24-2.12-4.84,.12-.07,.23-.16,.33-.25Z"/>
  <path class="cls-8" d="M139.81,147.79c.29,0,.58,0,.87-.01,1.21,1.12,1.22,2.71,2.08,3.96,.74,2.58,2.38,4.75,4.19,6.85,.58,.67,1.48,1.27,.88,2.28-1.81-.05-2.96-.73-3.57-2.29-.27-.7,.21-2.02-1.48-1.99,0,0,0-.06,0-.06,.92-.42,.14-.88,.03-1.32-.97-2.14-2.25-4.12-4.07-5.81-.31-.47-.99-1.07-.84-1.38,.34-.73,1.28,.17,1.9-.23Z"/>
  <path class="cls-15" d="M222.36,113.18c-.03,.48-.93,1.02,.11,1.42,.95,.37,1.63,.75,.76,1.74-.46,.52,1.96,.42,.45,1.31-.4,.05-.8,.1-1.2,.14-.31-.06-.61-.11-.92-.17,.7-1.02,.08-1.61-.92-2.07-.31-.14-.78-.22-.86,.1-.18,.77,.41,1.32,.94,1.86,.1,.1,.28,.15,.42,.22-.09,.45-.35,.77-.88,.89-.69-1.24-1.33-2.5-2.09-3.7-.3-.47-.88-1.21-1.18,.06l-.57-.06c-.14-.37-.3-.72-.83-.77-2.78-.9-5.45-.64-8.04,.57-.48-.69-1.13,.04-1.67-.15,.37-.27,.69-.65,1.11-.81,3.85-1.4,7.77-1.51,11.73-.34,.73,.22,1.79,1.06,1.8-.55,.42-.08,.85-.16,1.27-.24,0,0-.04,.1-.04,.1,0,.3,.16,.45,.51,.43h.07Z"/>
  <path class="cls-6" d="M277.05,136.59c1.31,1.73,2.3,3.13,3.41,4.46,.45,.55,.33,.88-.09,1.31-.87,.91-1.89,1.7-3.15,2.09-1.26,.39-2.73,.04-2.2-1.29,.82-2.04,1.07-4.19,2.03-6.58Z"/>
  <path class="cls-6" d="M160.73,139.94c-1.1-2.02-2.09-3.85-3.1-5.67-.68-1.24-.18-1.66,1.34-1.71,3.47-.13,4.28,.58,3.37,3.45-.39,1.23-.42,2.58-1.61,3.93Z"/>
  <path class="cls-8" d="M197.75,144.04c-2.17,.06-2.69-.57-1.87-2.25,.29-.6,.58-1.19,.87-1.79,.42-.89,.16-2.41,1.37-2.51,1.04-.08,.92,1.5,1.58,2.22,.2,.22,.33,.5,.48,.76,1.64,2.75,1.14,3.47-2.43,3.57Z"/>
  <path class="cls-6" d="M288.85,128.57c-.95-1-1.11-2.38-2.23-3.3-.39-.32-.52-.65,.13-1,1.46-.8,5.26-.38,6.48,.71,.45,.4,1.07,.66,1.57,.95-.95,1.14-2.27,.54-2.94,1.29-1.23,.06-2.06,.81-3.01,1.35Z"/>
  <path class="cls-6" d="M243.08,102.9c.12-.15,.24-.3,.37-.46,.42,.1,1.41-.4,1.07,.51-.9,2.41-1.89,4.79-1.71,7.38,.02,.31-.2,.6-.58,.55-.29-.04-.61-.23-.79-.44-.54-.64-1.01-1.31-1.51-1.97-1.03-1.04-.61-1.96,.31-2.85,.95-.91,1.89-1.81,2.84-2.72Z"/>
  <path class="cls-8" d="M185.81,139.59c-1.15-2.32-2.09-4.13-2.95-5.97-.66-1.41,.87-1.2,1.55-1.27,1.08-.1,2.9-.78,2.89,.95,0,1.91-.2,3.9-1.5,6.29Z"/>
  <path class="cls-8" d="M235.81,172.18c-1.43,.15-2.49,.13-3.53-.22-1.16-.39-2.94-.56-3.08-1.57-.15-1.08,1.77-1.21,2.68-1.89,1.24-.93,2.02-.54,2.52,.71,.38,.94,.88,1.85,1.42,2.96Z"/>
  <path class="cls-8" d="M266.17,132.07c0,.58,0,1.16,0,1.74-.04,.57-.09,1.15-.13,1.72-.69,.93-.09,2.17-1.11,3.3-.89-2.06-1.68-3.97-2.55-5.85-.39-.84,.23-1.04,.88-1.22,.89-.24,1.82-.25,2.74-.09,.01,.15,.07,.28,.17,.39Z"/>
  <path class="cls-15" d="M147.84,160.87c.6-1.02-.3-1.61-.88-2.28-1.81-2.1-3.45-4.26-4.19-6.85,.34,0,.69-.01,1.03-.02,1.92,4.16,5.33,7.43,8.58,10.78-1.67,.72-2.27-1.64-3.9-1.02-.22-.21-.43-.41-.65-.62Z"/>
  <path class="cls-8" d="M129.26,165.6c-1.58,.18-2.88-.01-4.24,.1-1.42,.12-2.23-.48-2.1-1.8,.09-.91-.39-2.24,.55-2.62,1.09-.43,1.62,.94,2.38,1.52,1.18,.89,2.28,1.86,3.41,2.8Z"/>
  <path class="cls-8" d="M270.2,152.59c-.02,.98,.5,1.76,1.14,2.52,.5,.59-.07,1.03-.46,1.46-.27,.3-.61,.58-1.04,.34-.42-.23-.72-.58-.68-1.08,.29-3.51-1.05-6.64-3.35-9.6,1.89-.43,2.74-.04,2.91,1.52,.11,1.05,.13,2.17,.88,3.11,.1,.6-.11,1.28,.6,1.72Z"/>
  <path class="cls-15" d="M292.95,153.9c-.23-2.5-1.42-4.74-2.6-6.98,.23-.23,.47-.46,.7-.69,.71,.31,.56,1.32,1.59,1.49,.2-.74,.38-1.46,.57-2.17,.35,.01,.69,.03,1.04,.04-.4,2.29-.29,4.59-.29,6.9-.05,.48-.1,.96-.15,1.44-.29,0-.57-.02-.86-.03Z"/>
  <path class="cls-12" d="M238.95,156.44c2.58,4.57,4.97,9.22,7.07,13.97-.13,.09-.25,.17-.38,.25-.47-.76-.89-1.54-1.43-2.26-.86-1.16-.71-2.82-2.37-3.58,0,0,0,0,0,0,.45-1.01-.29-1.79-.7-2.62-.9-1.83-2.09-3.56-2.54-5.54,.11-.08,.23-.16,.34-.24Z"/>
  <path class="cls-8" d="M155.67,150.4c-1.3-.28-1.92-1-2.62-1.57-.49-.4-1.62-.72-1.06-1.46,.56-.73,1.29-1.69,2.45-1.64,1.02,.04,.91,1.07,1.14,1.73,.32,.91,.37,1.83,.09,2.94Z"/>
  <path class="cls-8" d="M212.35,126.1c1.06,.92,1.23,2.18,1.86,3.23,.26,.43,.95,.99,.14,1.5-.55,.34-1.23,.48-1.89,.22-.63-.25-1.57-.25-1.5-1.16,.09-1.33-.05-2.73,1.4-3.79Z"/>
  <path class="cls-8" d="M211.33,137.73c-1.57-1.65-1.94-3.22-2.65-4.65-.35-.7-.28-1.12,.63-1.22,.88-.1,2.16-.36,2.27,.68,.17,1.57-.13,3.18-.25,5.2Z"/>
  <path class="cls-8" d="M294.12,100.75c1.2,1.25,2.49,2.45,3.57,3.78,1.24,1.53-1.14,1.7-1.84,2.74-.68-2.12-1.37-4.24-2.05-6.36,.11-.05,.22-.1,.33-.16Z"/>
  <path class="cls-8" d="M246.47,157.93c1.35,.48,2.06,1.27,2.73,2.06,.51,.61,1.7,1.28,1.15,1.94-.62,.74-2,.32-3.03,.26-1.32-.08-.77-1.06-.83-1.69-.07-.78-.02-1.57-.02-2.57Z"/>
  <path class="cls-8" d="M129.82,151.07c-1.68-1.35-3.17-2.55-4.74-3.81,4-1.44,5.25-.48,4.74,3.81Z"/>
  <path class="cls-8" d="M147.16,166.61s.01,0,.02,0c-1.34-1.4-1.79-3.01-1.55-4.75,1.21-.46,1.44,1.39,2.69,.8,0,0,.04,.03,.04,.03-.59,1.07,1.22,1.38,.97,2.3-.3,.97-2.88-.42-2.16,1.61Z"/>
  <path class="cls-14" d="M190.31,148.31c1.97,2.35,3.31,4.94,4.1,7.76-.34,0-.69,0-1.03,.01-1.24-2.3-2.47-4.61-3.71-6.91,.49-.13,.64-.46,.64-.86Z"/>
  <path class="cls-8" d="M148.49,161.48c1.63-.62,2.22,1.73,3.9,1.02,.14,.09,.16,.2,.08,.33-.49,.21-.44,.51-.15,.81,.3,.31,.61,.7,1.15,.27,0,0,.09-.02,.09-.02-.99,.18,.82,1.27-.57,1.32-.89,.03-1.71,.14-2.34-.75-.52-.74-.62-2.09-2.29-1.78,0,0-.04-.03-.04-.03,.81-.31,.08-.79,.18-1.18Z"/>
  <path class="cls-12" d="M224.75,132.11c-1.44-2.91-2.89-5.82-4.3-8.74-.4-.84-1.19-1.61-.86-2.63,.94,.05,.76,1.14,1.59,1.29l-.02-.03c-.09,1.14,.71,2.04,1.11,3.05,.88,2.22,2.75,4.12,2.91,6.58,0,.15,0,.3,0,.45-.15,.03-.29,.03-.44,.02Z"/>
  <path class="cls-8" d="M179.76,149.29c-1.16-.31-1.7-1.1-2.41-1.67-.47-.37-1.54-.64-.98-1.47,.32-.46,.92-1.01,1.6-.87,.85,.17,1.88,.44,2.05,1.34,.15,.82,.3,1.7-.26,2.67Z"/>
  <path class="cls-14" d="M244.97,146.9c.84,2.03,1.69,4.06,2.53,6.09-.23,.21-.46,.42-.69,.63-.59-.43-.85-1.28-1.92-1.1,0-.29,0-.58,0-.86,.42-1.69-1-3.12-.95-4.75,.34,0,.69,0,1.03,0Z"/>
  <path class="cls-5" d="M222.48,117.79c.4-.05,.8-.1,1.2-.14,.82,.96,1.63,1.92,2.63,3.1-1.53,.16-2.88,.54-3.92-.19-1.16-.81-.11-1.84,.09-2.77Z"/>
  <path class="cls-15" d="M224.75,132.11c.15,.01,.3,0,.44-.02,.01,.33,.02,.66,.04,.99-1.97,1.34-3.86,2.76-5.47,4.43-.21-.48-.43-.95-.64-1.43,1.99-1.2,3.48-2.94,5.63-3.98Z"/>
  <path class="cls-8" d="M199.56,164.24q-3.52,.15-3.68-4.2c1.84,1.02,2.62,2.52,3.68,4.2Z"/>
  <path class="cls-8" d="M293.2,145.56c-.19,.71-.38,1.42-.57,2.17-1.03-.17-.88-1.17-1.59-1.49-1.49-1.88,1.03-2.46,1.7-3.6,.27-.45,.88,.29,.83,.81-.07,.7-.24,1.4-.36,2.1Z"/>
  <path class="cls-12" d="M225.19,131.63c-.16-2.46-2.03-4.36-2.91-6.58-.4-1.01-1.2-1.91-1.11-3.05,2.5,2.64,3.32,6,5.04,8.97,.3,.52-.58,.53-1.02,.66Z"/>
  <path class="cls-8" d="M203.68,164.56c-1.92,.13-4.95-2.46-4.83-3.89,.02-.19,.15-.49,.3-.54,.46-.14,.74,.15,1,.45,1.1,1.25,2.21,2.49,3.53,3.98Z"/>
  <path class="cls-7" d="M229.75,141.26c.15-.33,.29-.66,.44-.98,.21-.03,.42-.05,.63-.08,1.61,3.19,3.22,6.38,4.83,9.57-.16,.1-.32,.19-.48,.29-1.32-2.49-2.6-5-3.98-7.46-.3-.53-.14-1.6-1.48-1.35l.03,.02Z"/>
  <path class="cls-8" d="M243.93,146.91c-.05,1.64,1.37,3.06,.95,4.75-.72-.25-.74-.89-1.06-1.37-.25-.37-.54-1.04-1.23-.31,0,0-.05-.02-.05-.02,1.71-.84,.03-1.59-.1-2.38-.08-.49-1.01-.99-.1-1.44,.87-.43,1.35,.06,1.59,.77Z"/>
  <path class="cls-12" d="M221.19,122.02c-.83-.16-.65-1.24-1.59-1.29,0,0,.01,0,.01,0-.17-2-1.19-3.69-2.53-5.27,0,0,.02,.03,.02,.03-.03-.17-.07-.34-.1-.51,.3-1.27,.88-.54,1.18-.06,.76,1.21,1.4,2.47,2.09,3.7,.08,1.18,1.14,2.15,.91,3.39Z"/>
  <path class="cls-15" d="M138.76,149.4c1.82,1.69,3.1,3.67,4.07,5.81l-1.11,.03c-1.37-1.88-2.73-3.76-4.1-5.65,.38-.06,.76-.13,1.15-.19Z"/>
  <path class="cls-8" d="M167.51,121.89c-.23,.65-.76,1.02-1.46,1.06-1.29,.07-2.37-.48-3.34-1.14-.17-.12-.21-.71-.09-.78,1-.55,2.06-.19,3.06,.03,.65,.14,1.53,.08,1.82,.83Z"/>
  <path class="cls-8" d="M257.21,147.6c-.81-1.06-2.9-1.37-2.46-2.85,.17-.58,1.73-1.44,2.15-1.11,1.39,1.07,.19,2.57,.3,3.96Z"/>
  <path class="cls-8" d="M135.99,138.13c-.65-1.44-1.05-2.47-1.58-3.44-.36-.66,.03-.97,.58-1.21,.51-.22,1.04-.58,1.65-.28,.72,.36,.3,.88,.18,1.35-.26,1.06-.5,2.12-.83,3.57Z"/>
  <path class="cls-8" d="M244.88,152.52c1.06-.19,1.33,.66,1.92,1.1,.02,.07,.03,.14,.05,.21,.32,.94,2.1,1.95,.8,2.73-1.11,.67-1.66-.91-2.33-1.64-.35-.39-.69-.2-.99,.1,0,0,.03-.01,.03-.01,1.11,.34,1.03-.33,.97-.9-.06-.54-.7-.97-.46-1.58Z"/>
  <path class="cls-8" d="M208.14,150.13c-1.28-1.67-2.96-2.45-3.66-4,4.71,1.44,3.98,.37,3.66,4Z"/>
  <path class="cls-8" d="M275.18,160.14c-1.9,.33-3.63-.8-3.55-2.18,.02-.4,.26-.7,.66-.84,.35-.13,.62,.07,.81,.33,.09,.12,.17,.25,.26,.37,.59,.76,1.19,1.52,1.83,2.32Z"/>
  <path class="cls-8" d="M221.38,156.36c1.73,.82,2.02,2.16,2.65,3.26,.27,.46-.09,1.08-.72,1.2-.48,.09-1.02-.26-1.14-.7-.3-1.16-.5-2.33-.8-3.76Z"/>
  <path class="cls-8" d="M261.37,125.18c-1.09-.46-1.91-.78-2.71-1.15-.4-.18-1.16-.26-.92-.8,.19-.42,.73-.78,1.2-1.05,.55-.31,.93,.07,1.17,.47,.44,.73,1.24,1.32,1.25,2.52Z"/>
  <path class="cls-8" d="M275.62,113.25c-.49-1.44-.4-2.78-.06-4.25,2.07,1.9,2.08,2.58,.06,4.25Z"/>
  <path class="cls-8" d="M221.78,163.32c.09-.41-.16-1.36,.59-1.3,1.08,.09,1.95,.99,2.12,1.87,.2,1-1.03,.59-1.64,.71-1.16,.23-1.15-.48-1.06-1.28Z"/>
  <path class="cls-8" d="M269.28,157.56c1.03,1.33,2.46,1.81,1.73,2.98-.23,.37-1.71,.65-2,.42-1.12-.93,.1-1.86,.27-3.4Z"/>
  <path class="cls-8" d="M135.64,125.44c-.56,2.09-1.52,3.13-3.95,1.32,1.15-.89,2.42-1.29,3.95-1.32Z"/>
  <path class="cls-7" d="M235.65,149.76c1.25,2.17,2.48,4.35,3.3,6.67-.11,.08-.23,.16-.34,.23-1.52-2.06-2.54-4.32-3.44-6.62,.16-.1,.32-.19,.48-.29Z"/>
  <path class="cls-8" d="M163.74,146.7c3-.33,3.02-.32,2.46,2.29-1.04-.65-1.87-1.31-2.46-2.29Z"/>
  <path class="cls-8" d="M225.11,161.17c.88,.81,1.76,1.55,2.12,2.61,.03,.1-.25,.4-.41,.41-.73,.07-.95-.46-1.21-.9-.35-.61-1.3-.96-1.1-1.8,.03-.13,.36-.2,.59-.32Z"/>
  <path class="cls-14" d="M288.85,128.57c.95-.54,1.77-1.29,3.01-1.35,.27,.21,.53,.42,.8,.63-1.24,.58-2.48,1.17-3.72,1.75-.03-.34-.06-.68-.09-1.03Z"/>
  <path class="cls-14" d="M266.04,135.53c.04-.57,.09-1.15,.13-1.72,.39,0,.77-.02,1.16-.02,.04,1.64-.24,3.24-.7,4.82-.31-1.01,.58-2.19-.58-3.08Z"/>
  <path class="cls-8" d="M264.88,128.86c-1.11-.93-1.82-1.49-1.53-2.34,.06-.19,1.05-.41,1.33-.25,1.05,.61,.01,1.36,.2,2.59Z"/>
  <path class="cls-8" d="M127.44,174.22c1.22,.88,2.44,1.75,3.66,2.63-2.13,.13-3.17-.98-3.66-2.63Z"/>
  <path class="cls-5" d="M221.15,117.74c-.14-.07-.32-.12-.42-.22-.53-.54-1.13-1.1-.94-1.86,.08-.32,.55-.24,.86-.1,1,.45,1.61,1.04,.92,2.07-.15,.01-.28,.05-.41,.12Z"/>
  <path class="cls-7" d="M293.97,168.98c-.02,.21-.04,.42-.06,.63-1.35,.18-2.66,.1-4.11-.62,1.53-.63,2.86-.02,4.16-.01Z"/>
  <path class="cls-7" d="M249.48,177.46c-.86,.19-.8-.92-1.58-.85,0,0,.02,.01,.02,.01,.5-.97-.73-1.67-.56-2.59,.13-.1,.27-.2,.4-.3,.63,1.23,1.69,2.3,1.73,3.73Z"/>
  <path class="cls-7" d="M251.29,159.3c.68,.72,1.38,1.43,2.04,2.17,.18,.21,.35,.58-.06,.73-.24,.09-.76,.05-.87-.1-.58-.77-1.07-1.6-1.59-2.41,.16-.13,.33-.27,.49-.4Z"/>
  <path class="cls-8" d="M281.13,146.37c-.76-.66-1.65-1.11-1.09-2.04,.17-.29,.71-.64,1-.33,.56,.62,.8,1.37,.1,2.37Z"/>
  <path class="cls-8" d="M286.41,105.17c-1.04-1.37-.43-2.1,.32-3.11,.83,1.2,.27,1.97-.32,3.11Z"/>
  <path class="cls-8" d="M174.74,162.55c1.06,.45,1.75,1.18,2.3,2.27-1.75,0-1.81-1.36-2.6-2.02,.1-.08,.2-.16,.29-.25Z"/>
  <path class="cls-14" d="M270.2,152.59c-.71-.44-.51-1.12-.6-1.72,.31-.04,.63-.08,.94-.13,.26,.6,.51,1.19,.77,1.79-.37,.02-.74,.04-1.11,.05Z"/>
  <path class="cls-7" d="M246.02,170.41c.58,1.11,1.15,2.21,1.73,3.32-.13,.1-.27,.2-.4,.3-.99-.96-1.32-2.18-1.71-3.37,.13-.08,.26-.17,.38-.25Z"/>
  <path class="cls-15" d="M229.74,130.79c.67,0,1.35,0,2.02,0,0,.66,.52,.83,1.15,.9-.86,.37-1.74,.32-2.62,.08-.18-.33-.36-.65-.55-.98Z"/>
  <path class="cls-8" d="M250.8,159.7c-.81-.66-1.68-1.27-2.3-2.69,1.63,.64,2.25,1.44,2.79,2.29-.16,.13-.33,.27-.49,.4Z"/>
  <path class="cls-8" d="M303.42,95.44c.21-.02,.42-.03,.63-.05,.8,.77,.82,1.7,.92,2.96-1.18-.97-1.16-2.02-1.56-2.9Z"/>
  <path class="cls-14" d="M293.8,153.93c.05-.48,.1-.96,.15-1.44,.37,1.47,.52,2.95,.36,4.46-.8-.93-.21-2.03-.51-3.02Z"/>
  <path class="cls-15" d="M152.86,166.3c-1.15,.05-2.3,.1-3.44,.14,1.12-.56,2.28-.39,3.44-.14Z"/>
  <path class="cls-14" d="M192.86,114.59c.72,.24,1.02,.63,.09,.86-.57,.14-1.35,.15-1.91-.29,.61-.17,1.38,.04,1.82-.56Z"/>
  <path class="cls-16" d="M160.8,124.56c.53,.33,.97-.64,1.48-.08,.08,.09,0,.42-.12,.51-.67,.48-.95-.2-1.41-.38,0,0,.05-.05,.05-.05Z"/>
  <path class="cls-16" d="M160.72,126.12c-.11,.36-.26,.69-.76,.76-.31,.04-.46-.11-.44-.36,.03-.44,.45-.56,.84-.7l.37,.3Z"/>
  <path class="cls-14" d="M294.32,157.83c.15,.7,.37,1.4-.19,2.05-.19-.7-.43-1.4,.19-2.05Z"/>
  <path class="cls-15" d="M229.53,131.72c-.49,.45-1.15,.39-1.78,.43,.43-.66,1.13-.47,1.78-.43Z"/>
  <path class="cls-14" d="M159.62,125.11c.28-.22,.57-.44,.85-.66-.05,.45-.38,.61-.85,.66Z"/>
  <path class="cls-15" d="M142.93,149.69c.17,.37,.33,.75,.5,1.12-.58-.24-.59-.66-.5-1.12Z"/>
  <path class="cls-15" d="M217.69,133.63c.11,.21,.22,.42,.33,.64-.11-.21-.22-.42-.33-.64Z"/>
  <path class="cls-4" d="M304.23,92.56c.02-.16,.04-.32,.05-.48,.09,.07,.18,.15,.27,.22-.1,.1-.21,.18-.33,.25Z"/>
  <path class="cls-15" d="M292.19,159.08c.24-.1,.48-.21,.72-.31-.24,.1-.48,.21-.72,.31Z"/>
  <path class="cls-10" d="M174.45,162.8c-.01-.16-.02-.32-.03-.48,.11,.08,.22,.16,.32,.24-.09,.09-.19,.17-.29,.25Z"/>
  <path class="cls-15" d="M142.13,166.49c.22-.04,.43-.08,.65-.12-.22,.04-.43,.08-.65,.12Z"/>
  <path class="cls-4" d="M232.23,166.18c.1-.03,.21-.06,.31-.09,.01,.05,.02,.11,.03,.16-.11-.04-.21-.08-.32-.12,0,0-.03,.05-.03,.05Z"/>
  <path class="cls-16" d="M230.82,140.2c-.21,.03-.42,.05-.63,.08,.16-.33,.37-.34,.63-.08Z"/>
  <path class="cls-14" d="M108.15,171.43c-.32,.23-.66,.33-1.03,.09,.34-.03,.69-.06,1.03-.09Z"/>
  <path class="cls-14" d="M182.89,115.54c-.2,.02-.4,.05-.6,.07,.2-.02,.4-.05,.6-.07Z"/>
  <path class="cls-11" d="M213.2,124.22c.11,.17,.21,.35,.32,.52-.11-.17-.21-.35-.32-.52Z"/>
  <path class="cls-16" d="M160.36,125.81c.19-.05,.38-.11,.57-.16-.07,.15-.13,.31-.2,.46-.12-.1-.24-.2-.36-.3Z"/>
  <path class="cls-15" d="M227.76,128.14c-.1-.12-.15-.25-.14-.4,.1,.08,.21,.16,.3,.25,0,0-.1,.1-.15,.15Z"/>
  <path class="cls-14" d="M220.99,178.71c.2-.01,.39-.03,.59-.04-.2,.01-.39,.03-.59,.04Z"/>
  <path class="cls-14" d="M157.41,179.63c.2-.16,.41-.27,.65-.04-.22,.01-.43,.03-.65,.04Z"/>
  <path class="cls-14" d="M266.17,132.07c-.1-.12-.16-.25-.17-.39,.34,.04,.48,.14,.17,.39Z"/>
  <path class="cls-15" d="M218.08,134.38l.15,.07s-.04,.13-.04,.13c-.06-.06-.09-.13-.11-.21Z"/>
  <path class="cls-12" d="M235.17,150.05c.9,2.3,1.92,4.56,3.44,6.62,.45,1.98,1.64,3.71,2.54,5.54,.4,.82,1.15,1.61,.7,2.62-2.34-2.99-3.55-6.44-5.24-9.7-2.39-4.6-4.6-9.26-6.89-13.89,1.33-.26,1.18,.82,1.48,1.35,1.38,2.46,2.66,4.97,3.98,7.46Z"/>
  <path class="cls-12" d="M245.64,170.66c.39,1.19,.72,2.4,1.71,3.37-.17,.92,1.06,1.62,.56,2.59-1.6-.99-1.8-2.66-2.48-4.05-1.25-2.56-3.04-4.94-3.59-7.74,1.66,.76,1.51,2.42,2.37,3.58,.54,.72,.96,1.51,1.43,2.26Z"/>
  <path class="cls-1" d="M208.47,95.84c.21,.55,.42,1.11,.64,1.66-.35,.34-.7,.67-1.05,1.01,0,0,.02-.03,.02-.03-.52,.14-1.04,.28-1.56,.41-2.17-1.14-3.35-2.98-4.53-4.8-1.68-2.59-2.63-2.64-4.66-.16-.74,.44-1.64,1.54-2.21,0-1.2-3.24-2.16-6.55-.92-9.97,.82-2.27,1.88-2.62,4.25-1.37,1.05,.56,1.97,1.31,2.95,1.97,0,.11,.02,.22,.06,.33,.13,.16,.26,.31,.39,.47,.07,.13,.14,.25,.2,.39-.33,.15-.66,.29-.99,.44-.93-.74-1.78-1.6-3.16-1.74-1.81,.33-3.28,3.4-2.24,4.71,.18,.23,.39,.49,.8,.36,.49-.16,.41-.55,.47-.9,.18-1.14-.59-2.5,1.02-3.3,1.18,.14,1.63,1.48,2.98,1.36h0c.05,1.58,1.41,2.47,2.53,3.49,0,0,0,0,0,0,.82,1.52,1.59,3.06,2.47,4.56,.48,.81,1.05,1.13,1.13-.2,.16,0,.31,0,.47,0,.32,.44,.64,.88,.96,1.32Z"/>
  <path class="cls-12" d="M201.04,86.2c.33-.15,.66-.29,.99-.44,2.36,2.43,3.96,5.22,5.11,8.22-.12,.09-.23,.17-.35,.25-1.49-1.12-1.17-3.36-3.35-4.05,0,0,0,0,0,0,.09-1.67-1.14-2.62-2.53-3.49,0,0,0,0,0,0,.04-.16,.09-.32,.13-.49Z"/>
  <path class="cls-7" d="M201.83,85.37c-.13-.16-.26-.31-.39-.47,.13,.16,.26,.31,.39,.47Z"/>
  <path class="cls-7" d="M207.51,94.52c-.16,0-.31,0-.47,0-.11-.08-.2-.19-.25-.31,.12-.08,.23-.16,.35-.25,.12,.18,.24,.36,.36,.55Z"/>
  <path class="cls-2" d="M220.55,112.88c-.01,1.61-1.07,.76-1.8,.55-3.96-1.17-7.88-1.06-11.73,.34-.43,.15-.74,.53-1.11,.81-1.22,.5-2.11,1.67-3.73,1.33-.61,0-1.22,0-1.83,.01-.27-.15-.54-.3-.8-.45,.76-.85-.38-1.03-.76-1.32-.97-.74-1.57-1.56-1.51-2.7,.97-1.11,2.27-1.88,3.57-2.66,2.55-1.54,5.25-2,8.17-.82,.34,.05,.67,.1,1.01,.15,1.24,.69,2.64,.99,4.03,1.33,2.17,1.14,4.34,2.29,6.5,3.43Z"/>
  <path class="cls-11" d="M208.45,120.99c-.48,.26-.95,.3-1.4-.04,.47,.01,.94,.03,1.4,.04Z"/>
  <path class="cls-2" d="M195.84,110.75c-.6-.08-1.24-.03-1.68-.51,1.46-2.14,3.69-3.51,6.12-4.72,1.05-.52,1.92-.25,2.34,.51,.43,.79-.7,.79-1.2,1.01-2.14,.92-3.81,2.37-5.58,3.7Z"/>
  <path class="cls-12" d="M208.05,98.51c.35-.34,.7-.67,1.05-1.01,.35,.49,.7,.99,1.05,1.48,.24,.44,.47,.87,.71,1.31-1.16,.63-1.41-.33-1.78-.84-.29-.39-.24-.98-1.04-.94Z"/>
  <path class="cls-1" d="M206.51,98.89c.52-.14,1.04-.28,1.56-.41,.1,.38,.65,.86,.19,1.1-.79,.41-1.24-.3-1.75-.69Z"/>
  <path class="cls-13" d="M210.02,108.12c-.34-.05-.67-.1-1.01-.15-.59-1.16,.62-.65,1.06-.85,0,0,.02,.03,.02,.03-.02,.32-.05,.65-.07,.97Z"/>
  <path class="cls-13" d="M297.93,169.57c.39-.49,1-.33,1.53-.4-.21,.98-.7,1.19-1.53,.4Z"/>
  <path class="cls-14" d="M171.54,113.81c-.15-.02-.29-.05-.44-.07,.16-.04,.31-.02,.44,.07Z"/>
  <path class="cls-13" d="M153.47,163.91c-.55,.43-.85,.03-1.15-.27-.3-.3-.34-.6,.15-.81,.95-.07,1.4,.21,1,1.08Z"/>
  <path class="cls-13" d="M220.55,112.88c-2.17-1.14-4.34-2.29-6.5-3.43,.22-.32-1.58-.79,.1-.99,2.97,.84,5.64,2.08,7.67,4.19-.42,.08-.85,.16-1.27,.23Z"/>
  <path class="cls-15" d="M214.15,108.45c-1.68,.2,.11,.68-.1,.99-1.39-.34-2.79-.64-4.03-1.33,.02-.32,.05-.65,.07-.97,1.42,.27,2.86,.52,4.06,1.31Z"/>
  <path class="cls-13" d="M222.29,113.18c-.35,.02-.52-.13-.51-.43,.37-.03,.57,.09,.51,.43Z"/>
  <path class="cls-13" d="M141.72,155.24l1.11-.03c.11,.44,.89,.9-.03,1.32-1.13,.05-.77-.83-1.08-1.29Z"/>
  <path class="cls-16" d="M217.09,115.47c1.33,1.58,2.35,3.27,2.53,5.27-1.56-.98-1.51-2.75-2.63-3.95,.03-.44,.07-.88,.1-1.31Z"/>
  <path class="cls-13" d="M244.88,152.52c-.24,.61,.4,1.04,.46,1.58,.06,.56,.14,1.23-.97,.9-.59-1.68-1.18-3.35-1.77-5.03,.69-.72,.98-.06,1.23,.31,.32,.48,.34,1.12,1.06,1.37,0,.29,0,.58,0,.86Z"/>
  <path class="cls-13" d="M206.42,117.25c-1.83,.53-2.91-.71-4.25-1.34,1.62,.34,2.52-.83,3.73-1.33,.54,.18,1.19-.55,1.67,.15-.54,.32-1.09,.62-1.61,.96-1.27,.82-.54,1.22,.45,1.56Z"/>
  <path class="cls-16" d="M217.01,114.99c.03,.17,.07,.34,.1,.51-.55,.1-.79-.07-.67-.57,.19,.02,.38,.04,.57,.06Z"/>
  <path class="cls-12" d="M197.94,85.33c-1.61,.81-.84,2.17-1.02,3.3-.06,.34,.02,.74-.47,.9-.4,.13-.62-.13-.8-.36-1.04-1.31,.42-4.38,2.24-4.71,.02,.29,.04,.58,.05,.87Z"/>
  <path class="cls-12" d="M206.79,94.22c.05,.12,.14,.22,.25,.31-.08,1.33-.65,1.01-1.13,.2-.88-1.49-1.65-3.04-2.47-4.56,2.19,.69,1.86,2.93,3.35,4.05Z"/>
  <path class="cls-12" d="M200.91,86.68c1.39,.87,2.62,1.82,2.53,3.49-1.12-1.01-2.48-1.9-2.53-3.49Z"/>
  <path class="cls-12" d="M197.94,85.33c-.02-.29-.04-.58-.05-.87,1.38,.14,2.23,.99,3.16,1.74-.04,.16-.09,.32-.13,.49-1.35,.13-1.79-1.22-2.98-1.36Z"/>
</svg>