<?xml version="1.0" encoding="UTF-8"?>
<svg id="Layer_1" data-name="Layer 1" xmlns="http://www.w3.org/2000/svg" viewBox="0 0 414 200">
  <defs>
    <style>
      .cls-1 {
        fill: #f7b7d3;
      }

      .cls-2 {
        fill: #00bff3;
      }

      .cls-3 {
        fill: #ebe9df;
      }

      .cls-4 {
        fill: #ebeae9;
      }

      .cls-5 {
        fill: #fff200;
      }

      .cls-6 {
        fill: #fff8b8;
      }

      .cls-7 {
        fill: #fbb040;
      }

      .cls-8 {
        fill: #a19b94;
      }

      .cls-9 {
        fill: #9ddcf9;
      }

      .cls-10 {
        fill: #beb8b7;
      }

      .cls-11 {
        fill: #dad5d0;
      }

      .cls-12 {
        fill: #373232;
      }

      .cls-13 {
        fill: #45413a;
      }

      .cls-14 {
        fill: #645d52;
      }

      .cls-15 {
        fill: #4c4b4b;
      }

      .cls-16 {
        fill: #757474;
      }
    </style>
  </defs>
  <path class="cls-13" d="M96.41,167.32c.09-.64-.39-.98-.6-1.47-.02-.98-.03-1.95-.05-2.93,0,0-.02,.04-.02,.04,5.03,2.67,10.19,3.23,15.54,1.32,2.95-1.05,5.68-2.67,8.44-4.2,1.13-.63,2.57-.64,3.48-2.03-5.96-2.63-11.87-1.64-17.79-.51-3.48,.66-6.45,2.84-9.71,4.15,.04-.12,.01-.21-.09-.27,.04-.28,.08-.56,.11-.84,1.19-1.21,2.84-1.45,4.17-2.61-.77-1.41-2.24-.56-3.15-1.36-.33-.29-1.03-.19-.97-.87,.09-.95,.78-.55,1.24-.48,1.03,.17,1.89-.56,2.86-.67,.16-.05,.32-.1,.48-.14,.89-.12,1.77-.23,2.66-.35-.03,.06-.06,.11-.09,.17,.04-.05,.07-.1,.11-.14,1.78-.26,3.54-.11,5.29,.28,.11,.04,.21,.09,.32,.13,2.76,1,5.6,.42,8.41,.48,1.87,.04,3.43-1.35,5.32-1.48,3.17-.22,6.29-.55,9.21,1.4,.88,.59,1.94,.12,2.92,.09,2.75-.09,5.53,.26,8.19-.86,.16-.09,.32-.18,.48-.28,.44-.31,.91-.3,1.4-.2,.71,.28,1.62-.36,2.19,.62-1.23,.31-2.45,.62-3.82,.96,2.98,2.33,5.76,2.62,8.63,.17-1.01-1.02-2.2-.77-3.24-1.14,.45-.86,1.31-.38,1.9-.77,.59,.06,1.21,.04,1.66,.61,.22,.54,.62,.51,1.04,.41,.42,.17,.85,.34,1.27,.52,.14-.03,.28-.06,.42-.09,.4-.32,.83-.32,1.28-.19,.49,.48,.99,.45,1.5,.04,.96,.02,1.93,.08,2.76-.65,.53,0,1.06,0,1.59-.01,.01,.42-.07,1.15,.05,1.2,2.09,.81,4.2,2.11,6.32,2.13,1.95,.02,3.91-1.34,5.89-2.11-.35-.94-1.02-1-1.64-1.23-2.7-.99-5.44-.69-8.18-.41l.02-1.02c.26-.08,.53-.16,.79-.23,.3,.41,.55,.31,.77-.1,1.58-.33,3.16-.25,4.74,0,.27,.44,.65,.46,1.06,.34,.18,.04,.35,.09,.53,.13,.3,.45,.69,.41,1.09,.24,3.34,2.2,6.54,1.65,10.04,.07,4.3-1.94,8.81-1.51,13.02,.8,1.58,.87,2.36,.52,3.05-1.24,.39-1,1-2.12,1.78-2.63,1.61-1.04,1.08-2.03,.32-3.21-.19-.29-.36-.62-.45-.96-1.32-5.09-3.56-9.87-4.32-15.12-.68-4.67-3-7.46-6.48-9.58-1.84-1.13-3.68-2.47-4.94-4.52,.64-.68,1.3-.14,1.95-.05,1.97,2.73,4.69,4.22,7.36,6.12,.03-5.03-.35-9.5-4.87-11.64,.01-.05,.04-.11,.03-.16-.02-.1-.05-.19-.08-.28,.31-.06,.6-.14,.74-.52,.12,.01,.24,0,.36-.05,1.05,1.02,1.97,2.26,3.35,2.68,.35-1.32,.51-2.65,1.05-3.71,.49-.94,1.93-1.66,.33-2.67-.93-.59-.44-2.51-1.92-2.33-.28-.87-.88-1.03-1.59-.96,.83-.98,.73-1.78-.34-2.39-.11-1.23-.84-2.16-1.22-3.26-.21-.82-.83-.62-1.33-.7,.08-.34,.21-.78-.25-.79-.36,0-.73,.22-.45,.8h.02c-.58-.46-.9-.03-1.2,.45h0c-.56,0-1.3-.26-1.2,.9h0c-1.77,.26-3.25,1.1-4.36,2.73l.02-.02c-.48-.09-.94-.14-1.21,.47l.02-.02c-1.18,.79-2.64,1-3.58,2.28l.02-.02c-.75,.57-1.86,.29-2.39,1.36h0c-1.78,.51-3.27,1.69-4.76,2.82-.73,.55-.11,.73,.37,.77,.14,.14,.28,.28,.42,.42-.65,.17-1.14,.55-1.35,1.31-.02,.2-.03,.4-.05,.61,0,.58-.01,1.16-.02,1.74,0,.18,0,.36-.01,.54-.07,1.03-.21,2.24,1.24,1.51,4.36-2.2,8.91-3.91,13.17-6.39,1.41-.82,2.72-2.16,4.49-1.99,.19,2.02-1.4,1.85-2.34,2.49-.71,.35-1.43,.67-2.14,1.04-2.31,1.23-2.31,1.27-.36,3.31-.03,.58-.24,1.01-.76,1.19-1.62-2.18-3.36-2.68-5.71-1.15-1.98,1.28-4.21,2.08-6.39,2.89-1.13,.42-1.56,1.15-1.72,2.38-.51,3.96-2.51,6.27-5.99,6.86-2.02,.34-3.22,2.39-5.16,3.03-2.8,.93-5.58,1.79-8.51,1.46-1.4-.15-3.04-.04-3.67-1.99-.68-2.09,.09-3.96,1.32-5.34,1.19-1.34,2.15-3.01,3.99-3.91-4.37-3.03-8.37-6.16-12.2-9.58-3.23-2.88-6.56-5.61-9.73-8.56-5.65-5.25-11.22-10.62-16.82-15.94-.95-.9-1.85-1.85-2.77-2.78,.21-.54,.63-.69,1.09-.78,1.02,.91,2.07,1.78,3.06,2.73,4.28,4.16,8.46,8.45,12.82,12.49,6.4,5.93,12.77,11.93,19.63,17.17,2.96,2.26,5.94,6.08,9.9,1.74,.09-.1,.25-.11,.35-.2,.37-.3,.96-.45,.99-1.02,.04-.7-.57-.92-1.03-1.21-8.78-5.61-16.71-12.62-24.57-19.72-3.39-3.06-6.63-6.33-9.99-9.42-3.87-3.56-7.76-7.1-11.36-11.02,.2-.87,.49-1.16,1.21-.45,2.91,2.87,5.77,5.8,8.8,8.51,5.33,4.77,10.4,9.88,15.82,14.53,4.12,3.54,8.17,7.19,12.45,10.48,3.1,2.38,6.28,4.61,9.49,6.78,1.4,.95,2.22,.34,2.35-1.5,.07-.97,.11-1.95,.13-2.93,.2-10.23,9.05-15.75,16.77-12.94,1.11,.4,2.32,.74,3.14,1.77,1.54,1.93,3,1.41,4.8,.37,2.48-1.44,4.07-2.69,3.52-6.63-.73-5.19,3.67-8.7,7.83-9.36,3.11-.5,6.18-.16,8.81,2.2,.3,.27,.57,.54,1.04,.49,2.86-.33,6.53-3.98,6.97-7.4,.91-7.03,6.42-9.93,11.39-9.97,.25,0,1.37,0,1.62,.09-.1,.55,1.24,1.46-.43,1.42-4.32-.44-10.76,3-11.39,8.64-.2,1.79-.39,3.58-.44,5.38-.1,4.43,.5,8.89-.09,13.28-.32,2.35-.48,4.5,.14,6.82,.43,1.59,.98,1.7,2.08,1.12,2.94-1.54,4.17-4.33,4.52-7.82,.53-5.25,.43-10.51,.54-15.78,.02-.78-.21-1.71,.64-2.19,.15,1-.32,2.25,.9,2.8-.29,.57-.66,1.09-.62,1.84,.14,2.63,.68,2.96,2.76,1.81,.87-.48,1.79-1.03,2.52-1.63,1.69-1.38,3.97-1.95,5.12-4.3-.63-.52-1.56,.64-1.87-.63-.14-.56,.12-.88,.47-1.09,1.55-.91,1.75-2.42,1.48-4.16,.26-.05,.58-.12,.56-.45-.03-.54-.43-.4-.74-.38-.09,.05-.17,.05-.26,0-.02-.2-.04-.4-.06-.61,.25-.36,.5-.72,.79-1.14-1.01-.17-1.44,.6-1.94,1.22l.02-.02c-.49,.16-1.26-.14-1.21,.93l.03-.02c-.29,.04-.57,.09-.86,.13-2.08-2.13-1.06-2.51-.91-3.87,.72,.26,2.82,.04,3.54,.3,.24,.18,.43,.16,.54-.18,.95-.68,1.05-1.93,1.16-2.93,.62-5.59,3.56-8.85,7.95-10.76,.46,.1,.44-.24,1.23-.36,1.2-.1,4.45-.22,5.65-.32q-.03,2.16-1.76,1.63c-5.72-.94-11.79,4.16-11.99,11.15-.06,2.1-.14,4.2-.21,6.3-.1,3.15-.18,6.31-2.8,8.37-.67,.53-.43,1.01,.21,1.28,3.88,1.67,7.43,.46,8.68-4.5,.71-2.82,.51-5.66,.66-8.5,.39,0,.78,0,1.17,0,.79,.85,.09,2.06,.53,2.98,.37,.15,.64-.05,.94-.24,4.47-2.79,8.84-5.84,13.46-8.25,2.44-1.27,2.66-4.58,5.01-5.65,.08-.04,.14-.51,.08-.55-1.13-.85-.64-2.76-1.78-3.59,0-.32,0-.63,0-.95-.09-.15-.17-.31-.26-.46-.05,.14-.11,.29-.16,.43h0c-1.98,0-3.37,1.36-4.76,2.71h0c-1.28,.11-2.29,.83-3.17,1.83l.02-.02c-.41,.15-.95,.15-.81,.92l.03-.02c-.62,.05-1.25,.1-1.87,.16,.18-1.26,1.74-1.67,1.49-3.19,2.56,.68,4.11-1.82,6.2-2.62,.66-.25,1.19-.86,1.91-1.11,.75-.26,1.08-.88,1-1.9-.35-4.39,.52-8.36,4.23-10.47,3.82-2.17,7.79-2.48,11.58,.41,.21,.16,.49,.18,.74,.27,1.09,1.11,1.04,1.98-.39,2.63-.52,.24-.99,.64-1.48,.97-1.64,.67-3.16,1.58-4.93,3.2h2.18c-1.22,.55-1.98,1.42-1.63,3.06-.81,1.21,.9,2.05,.36,3.22-1.75-1.95-1.96-4.45-1.79-7.01,.06-.95,.71-1.66,1.56-1.8,1.49-.25,2.51-1.57,3.89-2.07,.38-.14,.99-.31,.97-.95-.01-.58-.5-.85-.92-1.05-3.43-1.71-6.9-1.66-9.99,.69-2.4,1.82-3.36,4.69-3.23,8.16,.11,2.97,1.34,5.43,2.2,8.03,1.32,3.97,3.77,7.26,5.73,10.85,.75,1.37,1.71,3.58,2.69,3.28,1.46-.44,2.17-2.61,2.4-4.53,.13-1.04,.08-2.09-.11-3.14-.68-3.68-2.3-6.96-3.41-10.45,.34,0,.67-.02,1.01-.02,.79,1.41,1.69,.64,2.52,.12,1.74-1.07,3.45-2.19,5.18-3.29,7.25-3.95,14.18-8.6,21.28-12.86,5.31-3.19,10.61-6.4,15.89-9.67,3.61-2.23,7.16-4.56,10.74-6.85,.59-.02,1.43-.76,1.65,.36,.15,.77-.73,.88-1.23,1.19-6.17,3.77-12.34,7.55-18.51,11.31-7.21,4.4-14.42,8.78-21.63,13.17-.23,.14-.46,.28-.69,.43-1.76,1.15-3.98,1.88-5.16,3.56-1.24,1.78,.66,4.12,.64,6.31-.02,2.82,.46,5.69-.92,8.33-.29,.55-.35,1.22,.33,1.75,1.24,.98,1.56,2.61,1.65,4.15,.28,4.95,.21,9.87-1.92,14.42-.28,.6-.35,1.37,.02,1.95,2.51,3.94,1.57,8.29,1.14,12.54-.14,1.35-.72,2.62-1.19,3.92-.89,2.45-1.98,4.75-1.41,7.84,.94,5.07-1.62,9.37-3.62,13.62-.34,.72-.68,1.33-.69,2.13-.04,2.64-.23,5.26-.61,7.86-.9,6.04-3.19,11.12-7.79,14.58-.54,.41-.85,.92-.93,1.63-.59,5.27-4.07,7.95-7.45,10.63-1.55,1.22-3.34,2.04-5.21,2.52-.16,.1-.32,.2-.49,.29-.13,.04-.25,.09-.38,.13-.55,0-.8,.32-.79,.93,0,0,.01-.02,.01-.02-.75,.23-1.09-1.66-2.02-.51-.79,0-1.59,0-2.38-.01-.94-.61-2-.6-3.02-.74-.52,.14-.98-.02-1.4-.37-.13-.73-.63-.65-1.09-.68l-.02-.02c-.15-1.09-.93-.79-1.52-.88-.29-.14-.58-.28-.86-.42,0-.63,0-1.25,0-1.88,3.34-2.54,4.84-6.46,6.34-10.75h-1.97c-.01-.37-.02-.74-.03-1.11,.31-.13,.61-.3,.92-.37,2.5-.53,2.87-1.15,2.09-3.64,1.24,.05,1.83-.95,2.47-1.93,1.87-2.83,1.25-7.12,4.17-9.33-.47-4.3,2.52-7.85,1.99-12.26-.14-1.13,.75-2.91,1.64-3.61,1.82-1.41,1.92-3.23,1.84-5.33-.03-.74,0-1.56,.25-2.22,.67-1.72,.1-3.33-.45-4.76-1.32-3.37-1.07-6.28,1.31-8.86,.26-.07,.38-.26,.37-.56,0-.22,.01-.43,.02-.65,.04-1.84,.08-3.68,.12-5.52,0-.31,0-.63-.01-.94,.51-.78,.39-1.24-.51-1.29-.62-1.16-.65-2.41-.49-3.7,.02-.19,.04-.38,.07-.57-.03-1.86,.56-3.45,1.58-4.87,.5,0,.87-.19,.87-.86,0-.67-.34-.87-.86-.84-2.67-.87-5.26-1.99-7.43-3.99-2.32-2.14-4.44-3.63-7.4-1.03-2.05,1.8-4.71,2.48-5.06,6.34-.15,1.69-.96,3.76-2.64,5-2.56,1.9-5.11,1.62-7.74,.55-1.39-.57-2.67-.9-4.03,.08-1.11,.8-2.26,1.51-3.43,2.18-.83,.48-1.05,1.22-1.07,2.2-.05,2.18-.1,4.37-.28,6.54-.34,4.06-1.61,7.94-5.02,9.42-2.79,1.21-2.59,3.12-2.47,5.49,.02,.45,.03,.9,0,1.35-.05,.9,.2,1.65,.88,2.13,1.88,1.33,2.92,3.55,3.59,5.67,1.56,4.98,2.23,10.17,1.03,15.45-.22,.97,.12,1.77,.62,2.48,2.28,3.27,3.01,7.05,2.86,11.11-.05,1.3,1.52,3.43,2.83,3.62,.02,.43,.19,.74,.55,.91-.27,1.19,.67,.62,1.02,.9,0,.44,0,.87,0,1.31-8.69-.04-16.11,4.03-23.24,9.38,1.53,1.11,3.21,1.36,4.9,1.55,4.28,.49,8.39-.42,12.38-2.15,.02,.42,.05,.85,.07,1.27-.23,.3-.51,.38-.84,.29-.2-.32-.31-.22-.37,.11-.17,.59,.06,.83,.52,1.19,2.13,1.66,4.58,2.35,6.98,3.21,.33,1.67,1.68,.44,2.39,1.1-.27,.54-1.07,.07-1.22,.82-.19,.14-.37,.28-.56,.42-.21,.12-.42,.25-.63,.37-.47,.83-1.27,.75-1.98,.95-1.19-.41-2.43,1.32-3.6-.11,.46-.43,.99-.49,1.55-.38,.46,.05,.94,.16,1.27-.38l.03-.02c.11-.08,.22-.15,.33-.23,.58-.58,1.74-.12,1.99-1.4-2.03-.35-3.99-.92-5.59-2.17-2.48-1.94-4.97-2.42-7.88-1.65-2.65,.7-5.37,.16-8.01-.5-1.2-.3-2.31-1.09-3.51-1.43-1-.28-2.38-.23-2.84,.72-.37,.76,.93,1.29,1.54,1.9,2.82,2.81,6.12,4.48,9.69,5.55l-.78,.89c-.29-.06-.58-.11-.87-.17-.44-.53-.98-.7-1.6-.58-.25-.04-.51-.07-.76-.11-.58-.7-1,.1-1.49,.22-.24,.13-.48,.25-.71,.38-.17,.06-.35,.12-.52,.18-.28,.04-.56,.07-.84,.11-.12-.34-.24-.68-.37-1.02,.49-.55,1.34-.07,1.87-.98-2.43-1.69-4.87-3.38-6.79-5.85-.24-.31-.87-.35-1.31-.32-5.07,.29-10.11,.39-14.96-1.86-.75-.35-2.15-.01-2.6,1-.37,.84,.58,1.69,1.21,2.09,1.15,.73,2.07,1.79,3.17,2.58,5.01,3.62,10.48,4.48,16.23,3.98,.54,0,1.1,.18,1.57-.28,.4-.07,.8-.13,1.2-.2-.13,.41-.25,.83-.38,1.24-.27,.05-.54,.1-.82,.14-.5,.05-1,.09-1.49,.14-.3,.06-.61,.12-.91,.18-1.69-.48-3.38-.5-5.07,0-.45-.09-.89-.17-1.34-.26-.49-.01-.92-.79-1.45-.14-.27-.1-.53-.2-.8-.3-.53-.9-1.33-.42-2.02-.52-.13-.07-.26-.14-.39-.21-.15-.07-.29-.15-.44-.22-1.47-.61-2.68,.47-3.98,.85-5.18,1.49-10.33,1.07-15.47-.14-1.56-.37-2.95-.4-4.55,.19-5.35,1.99-10.85,1.45-16.25,.28-3.6-.78-6.93-1.7-10.65,.08-3.81,1.82-7.95,.76-11.85-.5-1.93-.62-3.56-.52-5.47,.39-5.48,2.63-11.01,1.98-16.28-.85-1.61-.87-2.88-.88-4.45-.25-.96,.38-2.64,1.45-2.95,.2-.35-1.41,1.53-1.02,2.42-1.31,1.48-.47,1.52-1.07,.41-2.1-.8-.75-1.58-1.52-2.37-2.27,0,0-.02,0-.02,0Zm60.6-51.55l.02-.02c-.48,0-.82,.22-.98,.76-.9,.03-1.68,.36-2.25,1.2-1.29,.99-2.93,1.4-3.8,3.07-1.63,.43-1.95,2.27-2.87,3.46-.67,.86-1.46,1.73-.89,2.91,.51,1.06,1.6,1.18,2.59,1.28,3.09,.31,6.02-.36,8.82-1.84,.56-.3,1.55-.15,1.57-1.06,.02-.89-.96-.84-1.51-1.17-2.06-1.23-2.39-2.78-.59-3.61,1.98-.92,2.37-2.55,2.58-4.53,.2-.62,.46-1.36-.01-1.83-.46-.45-.91,.14-1.3,.49-.24-.12-.43-.06-.57,.2-.28,.22-.71,.21-.82,.7Zm52.3-32.11h0c-.64-.12-1.17-.04-1.19,.91h0c-1.89,0-3.13,1.36-4.37,2.73l.03-.02c-.53-.28-.93-.09-1.22,.46h.01c-1.15,.58-2.6,.64-3.19,2.26v-.02c-.31-.16-.73-.09-.73,.26,0,.4,.45,.32,.75,.28l-.03,.7c-1.14,1.14,.12,2.17,.17,3.26,.01,.31,.57,.12,.84-.1,3.7-3.13,7.93-5.2,11.88-7.83,.73-.48,.91-.88,.25-1.41-.48-.38-.32-.95-.56-1.37-.29-.67,.13-1.17,.5-1.95-.96,.27-1.92-.04-1.97,1.4h.01c-.5-.22-1.01-.42-1.19,.44Zm-103.37,72.36c.41-.03,1.1,.26,1.05-.46-.04-.64-.7-.38-1.13-.31-1.97-.21-3.9-.04-5.88,.73,2.11,1.62,4.03,.69,5.96,.04Zm154.85-69.93c.05,.29,.15,.6,.43,.56,.43-.05,.36-.47,.33-.82,.27-1.23,.72-2.37,1.49-3.29,.55-.67,.54-1.28,.12-1.97,.02-.53,.13-.97,.72-.94,1.8,2.91,3.84,5.63,5.44,8.7,.29,.55,.76,1.29,1.2,1.35,.64,.08,.77-.88,.97-1.48,1.36-4.04,1.19-8.1-.1-12.1-1.18-3.67-3.32-6.69-5.27-9.82-.31-.49-.44-1.55-1.16-1.23-.53,.23-1.13,.75-1.28,1.6-.28,1.61-.6,3.22-.9,4.83-.59,1.2-.57,2.4-.03,3.61,.15,1.23,.28,2.46,.75,3.59-.88,.21-2.02-.08-2.23,1.47-.17,.58-.34,1.16-.52,1.73-.38,.37-.36,.85-.31,1.35-.02,.97-.17,1.97,.34,2.86ZM97.17,165.52c-.02-.09-.05-.18-.07-.26-.01,.04-.05,.11-.04,.12,.04,.05,.1,.07,.15,.11-.05,1.26,1.05,1.42,1.6,2.08,4.57,5.48,10.33,7.18,16.72,6.29,1.5-.21,3.19-.48,4.59-1.96-2.69-1.68-5.26-3.18-6.83-6.12-.34-.63-1.01-.58-1.62-.35-4.45,1.69-8.9,1.86-13.37,.03-.35-.14-.77-.25-1.13,.05Zm164.87-68.74c1.4,5.21,4.32,9.56,6.17,14.52,.8-.35,.8-1.11,1.08-1.67,1.93-3.94,1.57-8.24,1.53-12.49-.01-1.42-.03-2.86-.6-4.19-1.35-3.14-3.28-5.85-4.93-8.77-.92-1.63-1.47-.95-2.08,.24-.69,1.32-.62,2.89-1.12,4.27-.42,.05-.8,.2-.81,.76-.02,2.16-.02,4.33,0,6.5,0,.55,.35,.75,.77,.82Zm-57.67-11.92c-3.55-4.17-8.67-3.3-12.32-.51-2.08,1.59-3.41,6.26-2.4,8.42,1.12,2.41,2.13,4.87,3.44,7.2,3.69,6.55,8.17,12.29,12.85,17.88,.28,.33,.5,.76,.95,.67,.64-.13,.43-.8,.52-1.28,.7-3.74-.58-7.07-1.82-10.32-1.14-2.98-2.8-5.63-4.6-8.21-1.52-2.18-3.17-4.39-3.96-7.12-.32-1.11-.7-2.71,.65-3.08,2.5-.68,4.41-2.55,6.69-3.67Zm-7.55,24.26c-.09,.12-.31,.3-.4,.54-.29,.75-.53,1.52-.57,2.38-.28,7.09,.55,13.91,2.65,20.69,1.54,4.98,2.89,10.05,4.66,14.94,1.04,2.86,2.78,5.01,5.34,6.2,1.56,.73,2.36,.09,2.38-1.86,.03-2.81-1.03-5.32-1.61-7.96-1.55-7.09-4.25-13.37-8.07-19.3-2.19-3.41-4.01-7.75-2.57-12.54,.26-.85-1-3.1-1.81-3.08Zm-39.49,13.05c3.52,3.12,8.02,1.93,9.24-1.75,.55-1.65,1.14-3.25,1.18-5.08,.08-3.59-.16-7.23,1.11-10.67,.71-1.92,2.7-3.52,4.21-2.68,2.86,1.6,4.5-.99,6.6-1.95,1.06-.48,.89-1.19,.07-2-1.09-1.07-2.39-1.56-3.69-2.03-6.26-2.3-14.62,2.62-14.33,11.57,.08,2.47-.14,4.96-.36,7.42-.27,3.04-.99,5.85-4.03,7.16Zm42.8-9.16c-.81,.91-.58,1.87-.51,2.83,.46,6.19,4.01,10.56,7.07,15.12,2.4,3.57,5.1,6.95,7.99,10.02,1.82,1.94,1.82,5.83,5.14,6.12,.81,.07,1.75,1.12,2.39,.49,.69-.67,.29-1.98,.23-3.02-.01-.22-.09-.44-.15-.65-1-4.07-2.8-7.66-5.13-10.92-3.01-4.23-6.58-7.85-9.88-11.77-2.34-2.77-4.75-5.47-7.15-8.22Zm63.5,23.43c-.03-3.36-1.26-8.05-2.82-12.66-.33-.99-.7-.78-1.32-.46-2.8,1.43-4.91,5.88-4.86,9.91,.07,4.94,1.94,9.6,1.62,14.6-.07,1.06,.57,.91,1.22,.68,4.68-1.71,6.38-4.58,6.16-12.06Zm-126.79,19.95c-6.92-.64-12.95,3.37-19.25,6.28-.77,.36-.63,.87,.02,1.24,3.63,2.06,7.38,2.92,11.47,2.08,5.45-1.12,10.35-3.73,15.15-6.69,.39-.24,1-.36,1-.94,0-.71-.65-.84-1.13-1.04-2.27-.96-4.64-1.03-7.27-.92Zm143.54-68.05c-2.3,3.5-4.34,6.38-7.4,7.98-.81,.42-.95,1.09-.95,1.98,0,1.88,.04,3.76-.12,5.63-.22,2.53-.21,5.39-1.7,7.27-1.35,1.69-1.41,3.07-.91,4.97,.31,1.18,.67,1.31,1.48,.6,.93-.82,1.73-1.84,2.53-2.77,3.11-3.59,6.07-7.34,7.11-12.52,.34-1.69,.37-3.45,.82-5.08,.77-2.78-.43-5.1-.87-8.05Zm-91.8,69.14c-7.31-3.66-15.83-1.77-28.04,5.73,5.2,5.21,21.19,.56,28.04-5.73Zm24.84-47.55c.75-4.78-1.6-9.38-2.99-14.23-.34-1.19-.96-1.49-1.96-.86-1.66,1.04-3.35,2.03-5.04,3.02-.67,.39-.88,.84-.35,1.56,1.57,2.13,2.51,4.68,3.73,7.05,1.75,3.42,2.36,7.09,1.75,10.77-.43,2.58,.11,4,1.78,5.5,1.05,.94,1.29,.54,1.57-.52,.99-3.8,1.51-7.69,1.52-12.29Zm68.71-34.75c-.28-2.21,.23-4.16-.9-5.95-.68-1.08-.8-1.33-1.7-.12-1.34,1.78-2.53,3.75-4.41,5.01-1.32,.88-2.79,1.47-1.68,4.41,1.2,3.18,1.05,7.05-.91,10.31-.37,.62-.67,1.3-.95,1.98-.61,1.45-.28,3.09,.53,3.96,.74,.79,1.76-.42,2.45-1.18,.98-1.08,2.04-2.03,2.91-3.28,3.2-4.54,3.53-10.12,4.67-15.13Zm-97.93,87.33c.21,.26,.27,.43,.38,.47,.43,.18,.86,.37,1.31,.47,4.84,1.05,9.67,1.09,14.52,0,3.74-.85,6.85-3.24,10.12-5.24,.32-.2,.85-.37,.76-.89-.11-.68-.72-.8-1.22-.93-5.29-1.35-10.55-1.13-15.79,.47-3.69,1.12-7.06,2.94-10.08,5.65Zm-49.32,3.34c7.77,6.82,22.43,10.02,28.83,6.1-3.29-1.7-6.06-3.86-8.59-6.43-.55-.56-1.09-.27-1.67-.12-1.73,.46-3.45,.99-5.2,1.29-2.76,.47-5.74,.91-8.08-.91-1.98-1.54-3.43-1.11-5.29,.07Zm133.56-45.06c.45-5.48-2.14-9.76-3.72-14.39-.09-.25-.44-.37-.54-.62-.56-1.43-1.06-.77-1.72-.06-2.42,2.57-2.72,5.87-2.37,9.29,.55,5.31,2.96,10.04,3.86,15.27,.3,1.75,1.2,.51,1.61-.16,1.74-2.85,3.32-5.79,2.88-9.33Zm-83.26,50.81c-1.93-1.27-3.84-2.3-5.1-4.03-1.57-2.16-3.09-2.5-5.44-1.81-5.26,1.54-10.56,1.9-15.45-1.69-.42-.31-.89-.3-1.34-.15-.42,.14-.98,.09-1.17,.68-.21,.65,.27,.97,.62,1.27,1.2,1.02,2.41,2.05,3.67,2.97,4.07,2.96,8.69,3.79,13.36,4.27,3.6,.37,7.19,.15,10.85-1.51Zm-40.23-5.82c2.44-.13,4.84-.57,7.19-1.32,4.22-1.36,8.48-2.63,12.4-4.98,.39-.23,.94-.35,1.03-.95,.06-.43-.32-.59-.63-.7-3.65-1.31-7.29-2.45-11.19-1.42-4.86,1.29-9.07,4.21-13.46,6.68-1.15,.65-.28,1.25,.28,1.52,1.39,.69,2.83,1.21,4.39,1.16Zm129.15-36.5c-1.2,.65-1.78,1.64-2.42,2.54-1.3,1.82-2.92,3.2-4.7,4.32-1.23,.77-1.89,1.65-1.74,3.36,.37,4.26-3.16,9.16-7.11,10.2-.89,.24-1.79,.53-2.5,1.28-.37,.39-.44,.95-.36,1.44,.1,.62,.64,.44,.98,.39,5.79-.89,11.1-3.17,14.34-8.98,2.34-4.2,3.68-9.06,3.51-14.55Zm-32.74,31.57c5.69,.35,11.73-4.23,12.95-9.91,.63-2.94,.28-5.98,.15-8.98-.04-.89-.38-1.18-1.16-.84-1.86,.8-3.22,2.36-4.13,4.22-1.27,2.59-2.38,5.31-3.25,8.1-.91,2.93-2.68,5.04-4.56,7.41Zm-101.32,10.62c-2.04-1.09-3.7-2.09-4.92-3.57-1.31-1.59-2.58-1.49-4.2-1.09-5.15,1.26-10.14,1.02-14.71-2.4-.63-.47-1.33-.6-1.77,.08-.45,.69,.2,1.15,.59,1.65,3.05,3.91,7.2,5.33,11.42,6.45,4.42,1.17,8.84,1.49,13.58-1.12Zm137.98-61.47c-1.87,3.28-4.01,5.37-6.19,7.34-1.53,1.39-2.06,3.07-2.25,5.15-.29,3.24-1.04,6.31-3.25,8.65-.52,.55-.98,1.24-1.32,1.96-.34,.7-.23,1.54,.22,2.12,.52,.66,.92-.12,1.31-.39,2.1-1.41,3.81-3.28,5.4-5.39,1.62-2.16,2.92-4.57,4.12-6.97,1.79-3.57,2.71-7.57,1.95-12.46Zm-35.13,52.34c.39,1.07,1.15,.98,1.75,1.19,7.33,2.54,16.86-2.85,20.03-10.86,.09-.23,.13-.65,0-.81-.33-.42-.74-.13-1.08,.06-2.15,1.2-4.47,1.77-6.81,2.11-1.4,.2-2.44,.55-3.42,2.04-.87,1.33-2.17,2.48-3.52,3.47-2.14,1.57-4.53,2.17-6.96,2.79Zm37.77-103.53c-.17-1.87-.28-3.75-.52-5.61-.14-1.11-.52-2.17-1.81-1.37-1.67,1.04-3.3,2.18-4.99,3.19-.61,.36-.9,.88-.44,1.37,1.44,1.54,1.49,3.68,1.74,5.59,.5,3.76,1.1,7.73-2.41,10.36-.41,.31-.61,.84-.26,1.37,.54,.83,1.15,.19,1.55-.12,4.52-3.57,7.38-8.21,7.14-14.79Zm-61.61,74.26c1.41-6.53-.92-16.18-4.46-18.99-.42,2.9-.42,5.96-1.38,8.54-.84,2.24-.18,3.27,.97,4.6,1.58,1.83,3.11,3.73,4.87,5.85Zm-10.46,2.65c.03,2.86,1.47,4.87,1.94,7.23,.57,2.84,1.05,5.7,1.63,8.54,.36,1.76,1.94,2.6,3.75,2.2,1.77-.4,1.38-1.86,1.25-3.17-.66-6.51-4.76-10.37-8.57-14.79Zm48.8-70.87c-1.8,1.12-3.73,2.21-5.55,3.52-.62,.45,.05,1.1,.44,1.43,2.34,1.94,4.79,3.67,7.52,4.81,.84,.35,1.38,.26,1.38-1.02,0-1.78-.14-3.6,.84-5.19,.14-.23,.07-.94-.08-1.02-1.47-.8-2.79-1.99-4.55-2.52Zm-37.27,89.12c.26-.09,.45-.14,.64-.22,1.21-.51,3.35,.27,3.51-1.42,.18-1.82-1.77-2.63-3.21-3.21-.93-.37-2.21-1.7-2.8-.59-.6,1.13,.12,2.85,.48,4.28,.22,.86,.7,1.21,1.38,1.17Zm-18.23-56.77c.17-.09,.47-.25,.76-.42,2.6-1.54,5.19-3.1,7.81-4.6,.96-.55,1.72-1.33,2.35-2.28,.18-.27,.29-.71,.05-1.05-.26-.37-.59-.21-.88-.02-3.56,2.33-7.29,4.32-10.62,7.1-.29,.24-.54,.42-.42,.85,.12,.44,.47,.46,.95,.41Zm-17.69,57.38c1.38,.39,2.69,.46,3.72,1.11,1.95,1.22,3.77,.93,5.66,.06,.39-.18,1.07-.03,1.09-.7,.03-.8-.71-.79-1.17-.94-2.04-.69-4.14-.96-6.25-.64-.97,.15-2.1-.12-3.05,1.11Zm76.05-56.93c-1.08,2.6-.7,5.11-.35,7.6,.07,.48,.39,.69,.88,.35,2.24-1.53,2.6-3.15,.94-5.57-.49-.71-.46-1.74-1.47-2.38Zm-139.37,57.66c2.94,2.44,5.48,2.44,8.89,.07-2.95-1.24-5.84-1.05-8.89-.07ZM262.63,60.28c-.9,.02-3.43,2.71-3.21,3.55,.37,1.39,1.68,2.02,2.73,1.96,1.28-.07,1.67-1.76,1.83-2.91,.13-.97-.7-1.93-1.36-2.61Zm-62.55,93.8h6.06c-1.41-1.4-2.39-3.11-3.56-3.29-.85-.13-2.26,1.46-2.49,3.29Zm56.86-30.94q3.22-1.71,2.64-4.22c-.11-.49,0-1.2-.57-1.29-.62-.1-1.1,.35-1.42,1-.67,1.36-.88,2.8-.65,4.51Zm-3.02,14.76c-.2-.47,.35-1.83-.72-1.68-1.37,.19-1.26,1.85-1.59,3-.14,.5-.05,1.02,.5,.83,.86-.3,2.14-.2,1.81-2.15Zm-38.05,17.36c-1.14-.34-2.2-.26-3.17-.84-.56-.34-1.29-.17-1.5,.57-.26,.94,.64,.94,1.08,1.18,1.33,.72,2.35-.33,3.59-.92Zm-45.92-49.28c1.31-.7,2.19-1.15,3.05-1.64,.28-.16,.61-.43,.46-.87-.14-.42-.54-.35-.85-.36-1.45-.05-2.02,1.04-2.66,2.87Zm41.87-10.11c0-1.05,1.49-1.75,.68-2.93-.28-.41-.86-.32-1.22,.13-.89,1.12,.21,1.83,.55,2.79Z"/>
  <path class="cls-7" d="M109.88,72.4c3.6,3.92,7.49,7.46,11.36,11.02,3.37,3.09,6.61,6.36,9.99,9.42,7.86,7.1,15.78,14.11,24.57,19.72,.45,.29,1.07,.51,1.03,1.21-.03,.57-.62,.72-.99,1.02-.1,.09-.26,.1-.35,.2-3.95,4.34-6.94,.52-9.9-1.74-6.85-5.24-13.23-11.24-19.63-17.17-4.36-4.04-8.54-8.33-12.82-12.49-.98-.96-2.04-1.83-3.06-2.73-1.26-1.31-2.53-2.62-3.79-3.93,.87-1.84,1.94-3.48,3.58-4.52Z"/>
  <path class="cls-6" d="M326.92,20.41c-3.58,2.29-7.13,4.62-10.74,6.85-5.28,3.26-10.58,6.48-15.89,9.67-7.11,4.26-14.03,8.91-21.28,12.86-1.11-.13-2.28,.33-3.49-.45,1.54-1.66,2.91-3.27,4.39-4.71,1.21-1.17,3.03-1.58,3.06-4.04,.01-.9,.93-.68,1.62-.55,.98,.18,1.87-.99,1.59-1.91,1.07-1.15,2.68-1.36,3.65-2.69,2.24-.64,4.08-2.21,6.05-3.43,3.59-2.23,7.3-4.2,10.71-6.79,4.4-2.23,8.51-5.07,12.75-7.64,1.37-.85,2.75-1.69,4.12-2.53,.13,.02,.25,.03,.38,.03,2.41,.75,2.68,3.1,3.09,5.34Z"/>
  <path class="cls-9" d="M95.7,161.69c3.26-1.31,6.24-3.49,9.71-4.15,5.92-1.13,11.83-2.12,17.79,.51-.91,1.38-2.35,1.4-3.48,2.03-2.76,1.53-5.49,3.15-8.44,4.2-5.35,1.91-10.51,1.34-15.54-1.32-.01-.42-.03-.84-.04-1.27Z"/>
  <path class="cls-12" d="M270.31,52.99c.54-1.17-1.17-2.01-.36-3.22,.39,.11,.81,.21,1.12-.15,2.76-3.21,5.85-6.05,8.13-9.78,1.59-2.49,3.49-4.69,4.97-7.31,.83-1.46,1.5-2.96,2.04-4.53,.53-1.56-.95-1.21-1.55-1.63-.46-.32-1.36,.04-1.47-.78-.09-.71,.66-.96,1.11-1.38,1.71-1.61,3.35-3.33,4.99-5.05,.5-.52,1.06-1.13,1.67-.95,.68,.2,.39,1.17,.46,1.78,.31,2.53,.54,5.07,.78,7.61,.06,.65,.27,1.6-.78,1.09-1.89-.91-3.14-.89-3.93,1.82-.32,1.11-1.19,2.24-1.73,3.42-.98,1-1.66,2.33-2.38,3.52-2.18,3.66-5.05,6.56-7.58,9.84-1.48,1.91-3.88,2.88-4.5,5.66-.34,0-.67,.02-1.01,.02h0Z"/>
  <path class="cls-12" d="M222.49,80.12c-1.22-.55-.75-1.8-.9-2.8-.07-.59,.18-1.04,.49-1.46,0,.36-.1,.83,.24,.99,.48,.22,.66-.35,.88-.66,2.05-2.97,2.76-6.42,2.74-10.13,.19-4.51,.13-9.02-.13-13.53-.11-.97,.81-2.23-.6-2.84-.55-.25-1.1-.2-1.66-.04-.12-.14-.23-.14-.34,0-.78-.14-.88-.52-.6-1.38,.79-2.45,2.41-4.41,3.06-6.95,.12-.47,.55-.92,1.01-.14,1.37,2.31,2.79,4.57,4.15,6.89,.5,.84,.17,1.19-.67,1.22-.76,.03-1.59-.23-2.24,.49,.3,1.01-.24,1.81-.03,2.72-.08,2.1,0,4.2,.25,6.29,.24,1.61-.09,3.16,.08,4.59-.23,.87-.25,1.76-.15,2.65-.78,5.25-1.9,10.34-5.59,14.08Z"/>
  <path class="cls-12" d="M247.85,53.49c1.2-1.8,1.26-4.01,1.72-6.08,.13-.58,.12-1.2,.23-1.78,.53-2.77,.54-2.78-1.91-3.25-.86-.16-.88-.49-.46-1.31,1.27-2.51,2.35-5.15,4.02-7.43,1.96,2.45,2.82,5.69,4.49,8.37-.23,.68-.75,.45-1.16,.44-2.71-.04-2.71-.05-2.92,2.92-.21,3.08-.95,6.02-1.87,8.9-1.64,2.34-2.15,5.41-3.85,7.72-1.18,1.66-2.35,3.33-3.53,4.99-1.42-.8-.68-1.99-.42-3.09,.66,.19,.78-.39,.98-.87,.39-.47,.92-.87,1.16-1.43,1.16-2.71,3.44-4.79,3.51-8.1Z"/>
  <path class="cls-6" d="M227.86,73.84c1.25-.84,2.92-1.49,4.05-2.73,.09,.05,.17,.05,.26,0,.06,.28,.12,.56,.17,.83,.27,1.74,.07,3.25-1.48,4.16-.35,.21-.61,.53-.47,1.09,.32,1.27,1.25,.11,1.87,.63-1.15,2.35-3.43,2.93-5.12,4.3-.73,.6-1.64,1.14-2.52,1.63-2.09,1.15-2.62,.82-2.76-1.81-.04-.74,.33-1.26,.62-1.84,2.93-4.17,2.64-3.61,3.95-6.65,.74-.04,1.45-.48,1.42,.37m-2.18,7.56c-.14-.42-.34-1.05-.7-.89-.71,.32-1.83,.08-1.99,1.36-.06,.51,.29,1.1,.83,1.01,.77-.13,1.46-.53,1.85-1.48Zm1.81-.87c.68-.05,1.77-1.1,1.61-1.6-.13-.41-.45-.92-.85-.69-.64,.36-1.67,.24-1.79,1.32-.07,.59,.38,1.07,1.04,.97Z"/>
  <path class="cls-12" d="M191.9,103.12c.71-.07,1.32,.09,1.59,.96-1.43,1.94-2.86,3.88-4.3,5.83-1.29,2.43-3.37,4.17-4.49,6.74-1.72,1.26-2.73,3.33-4.23,4.88-2.25,2.3-4.63,4.35-7.11,6.28-.73,.57-1.53,.97-2.03-.06-.53-1.1,.51-1.26,1.09-1.67,3.79-2.68,7.13-5.96,9.96-9.89,.32-.15,.5-.42,.56-.8,.08-.13,.15-.26,.23-.4,2-1.68,3.12-4.24,4.78-6.27,1.43-1.75,2.65-3.72,3.96-5.6Z"/>
  <path class="cls-13" d="M286.18,34.43c4.57-2.74,9.14-5.46,13.7-8.22,6.41-3.88,12.81-7.77,19.21-11.68,.87-.53,1.64-1.25,2.52-1.75,.68-.39,1.47-.58,1.44,.83-.02,.15-.03,.3-.05,.46h.02c-1.01-.02-2.06-.16-2.4,1.36h.01c-.59-.47-.89,0-1.2,.46h0c-.82,.14-1.67,.25-1.99,1.35h0c-1.36,.41-2.75,.76-3.57,2.26h.01c-1.05-.14-1.87,.25-2.38,1.35h0c-.4-.16-.67,0-.8,.46h0c-.9,0-1.7,.18-1.99,1.35h0c-3.3,1.24-6.31,3.09-9.12,5.42h0c-.46,.19-1.32-.29-1.2,.91h.02c-.56-.39-.92-.09-1.2,.45h0c-.56,.02-1.02,.21-1.2,.9h0c-.62-.08-1.28-.23-1.2,.91h.01c-.56-.4-.9-.03-1.2,.46h0c-.45,.21-1.26-.19-1.2,.9h.01c-.6-.5-.87,.07-1.2,.46,0,0,.01-.01,.01-.01-1.91,.78-3.66,1.9-5.29,3.25-.63-.69,0-1.26,.15-1.87Z"/>
  <path class="cls-13" d="M275.79,20.49c.15,1.3-.81,3.45,1.56,4.01,.07,.02,.08,.39,.12,.6-1.5,.26-1.43,1.97-2.14,2.94-.45,.61-1.21,.22-1.14-.71,.14-1.71-.72-1.81-1.82-1.75-.85,.05-1.71-.03-2.56,0-1.44,.06-1.95-.58-1-1.96,1.69-2.43,3.49-4.77,5.25-7.14,.25-.34,.58-.67,1.02-.46,.46,.22,.7,.66,.71,1.24,.01,.97,0,1.95,0,3.22Zm-5.25,3.44c3.81,.77,4.41-.07,3.4-4.82-1.42,1.07-2.27,2.28-3.4,4.82Z"/>
  <path class="cls-15" d="M238.55,37.27c-1.28,.23-2.41-.63-3.45-1.5-.43-.37-1.05-1.28-.29-1.89,.51-.41,1.21-.26,1.6,.67,.76,1.81,2.14,1.79,3.55,1.24,.73-.28,1.57-.81,1.36-1.87-.17-.87-.8-1.47-1.67-1.67-.78-.17-2.16,.55-2.22-.62-.07-1.35,1.39-.3,2.07-.81,.64-.48,1.22-.87,1.11-1.89-.1-.9-.6-1.33-1.31-1.42-1.2-.17-2.41-.23-3.02,1.36-.29,.74-.84,1.14-1.41,.65-.62-.53-.14-1.31,.18-1.8,1.33-2,5.28-2.06,6.79-.16,.13,.16,.36,.42,.32,.54-.72,2.26,.43,4.32,.49,6.46,.04,1.67-1.78,2.71-4.12,2.72Z"/>
  <path class="cls-15" d="M212.34,46.19c-.66,0-1.33,.08-1.97-.02-.64-.1-1.63,.55-1.85-.61-.17-.89,.3-1.88,.98-2.33,1.07-.7,1.93-1.81,3.18-2.18,.37-.11,.71-.38,1.05-.62,.77-.54,1.31-1.2,1.17-2.37-.11-1-.64-1.49-1.4-1.63-.98-.18-1.99-.2-2.67,.87-.15,.24-.27,.53-.32,.81-.15,.89-.69,1.12-1.32,.87-.68-.27-.52-1.02-.3-1.54,.74-1.79,2.21-2.22,3.73-2.33,1.58-.11,3.12,.37,3.76,2.16,.44,1.23,.29,2.49-1.02,3.46-1.27,.94-2.61,1.7-3.86,2.65-.35,.26-.87,.57-.63,1.22,.19,.51,.68,.35,1.05,.36,1.25,.02,2.5-.02,3.75,0,.4,0,.84,.09,.78,.72-.04,.51-.44,.49-.76,.49-1.12,.01-2.24,0-3.36,0Z"/>
  <path class="cls-6" d="M286.18,34.43c-.15,.61-.79,1.17-.15,1.87-.03,.11,0,.21,.07,.29-.77,.71-1.86,1-2.31,2.27,1.04,.54,1.58-.65,2.39-.75,.28,.92-.61,2.09-1.59,1.91-.69-.13-1.61-.35-1.62,.55-.03,2.46-1.85,2.87-3.06,4.04-1.49,1.44-2.86,3.05-4.39,4.71,1.21,.78,2.39,.33,3.49,.45-1.72,1.1-3.44,2.22-5.18,3.29-.83,.51-1.74,1.29-2.52-.12,.61-2.78,3.02-3.75,4.5-5.66,2.53-3.27,5.39-6.18,7.58-9.84,.71-1.19,1.4-2.52,2.38-3.52,.14,.17,.28,.33,.42,.5Z"/>
  <path class="cls-15" d="M229.52,170.98c.15-.74,.94-.28,1.22-.82-.71-.66-2.06,.57-2.39-1.1,5.44,1.21,10.86,1.14,16.21-.5,1.88-.58,4.09-.7,5.19-3.1,.93-1.15,1.27,.74,2.02,.51-2,2.48-4.69,3.4-7.41,4.11-4.24,1.1-8.54,1.42-12.88,.83-.64-.09-1.3,.04-1.95,.06Z"/>
  <path class="cls-15" d="M222.76,172.61c1.17,1.43,2.41-.3,3.6,.11-5.2,2.03-10.49,2.02-15.82,.78,.26-.3,.52-.59,.78-.89,3.81,.36,7.63,.41,11.44,0Z"/>
  <path class="cls-6" d="M279.2,39.83c-2.28,3.73-5.38,6.57-8.13,9.78-.31,.36-.73,.26-1.12,.15-.35-1.64,.41-2.51,1.63-3.06,1.25-.7,2.58-1.3,2.75-3.2,.49-.33,.96-.73,1.48-.97,1.43-.66,1.49-1.52,.39-2.63,1.01,.22,1.96-1.82,3-.08Z"/>
  <path class="cls-15" d="M106.3,76.92c1.26,1.31,2.53,2.62,3.79,3.93-.45,.1-.88,.24-1.08,.78-1.06-.97-2.12-1.93-3.16-2.92-1-.96-.53-1.47,.46-1.79Z"/>
  <path class="cls-15" d="M166.56,129.79c.57-.46,1.12-.99,1.73-1.37,.59-.37,1.25-.95,1.87,.02,.29,.45,.61,1.05,.03,1.27-.77,.29-1.45,1.38-2.45,.56-.34-.27-.42-1.57-1.2-.5,0,0,.02,.02,.02,.02Z"/>
  <path class="cls-15" d="M166.54,129.77c-.46,.98-.38,2.41-1.77,2.59-.62,.08-1.18,.14-1.48-.64-.34-.89,.21-1.01,.76-1.4,.83-.58,1.73-.05,2.51-.53,0,0-.02-.02-.02-.02Z"/>
  <path class="cls-15" d="M146.74,154.29c-.56-.98-1.47-.34-2.19-.62,1.87-.81,3.75-.8,5.65-.15-.59,.38-1.46-.1-1.9,.76-.52,0-1.04,0-1.57,0Z"/>
  <path class="cls-15" d="M194.3,174.39c1.69-.5,3.38-.49,5.07,0-1.69,.39-3.38,.39-5.07,0Z"/>
  <path class="cls-3" d="M95.76,162.92c.02,.98,.03,1.95,.05,2.93-1.01,.11-.99-.71-.97-1.47,.02-.7-.17-1.62,.92-1.47Z"/>
  <path class="cls-15" d="M188.7,173.18c.69,.09,1.49-.38,2.02,.52-.72,.05-1.42,.01-2.02-.52Z"/>
  <path class="cls-15" d="M157.38,154.81c-.51,.41-1.01,.44-1.5-.04,.51-.28,1.01-.29,1.5,.04Z"/>
  <path class="cls-13" d="M161.79,153.4c.34-.36,.74-.54,1.2-.46,.14,.31,.27,.61,.41,.92-.5,.49-1.05,.54-1.65,.27,0-.24,.02-.49,.03-.73Z"/>
  <path class="cls-15" d="M163.41,153.86c-.14-.31-.27-.61-.41-.92,.36-.33,.76-.34,1.19-.24,0,.34-.01,.68-.02,1.02-.25,.05-.5,.09-.75,.14Z"/>
  <path class="cls-8" d="M323,14.07c.02-.15,.03-.3,.05-.46,.84,.08,1.41,.34,.79,1.45-.13,0-.26-.01-.38-.03,.02-.43-.07-.78-.45-.96Z"/>
  <path class="cls-15" d="M202.6,173.93c.13-.41,.25-.83,.38-1.24,.14-.06,.27-.12,.41-.18,.12,.34,.24,.68,.37,1.02-.39,.13-.77,.27-1.16,.4Z"/>
  <path class="cls-15" d="M191.51,173.99c.53-.66,.97,.12,1.45,.14-.5,.15-.99,.17-1.45-.14Z"/>
  <path class="cls-15" d="M208.08,172.75c.62-.13,1.16,.04,1.6,.58-.64,.2-1.11-.21-1.6-.58Z"/>
  <path class="cls-15" d="M205.82,172.86c.49-.12,.91-.92,1.49-.22-.5,.07-1,.15-1.49,.22Z"/>
  <path class="cls-15" d="M161.79,153.4c0,.24-.02,.49-.03,.73,0,0-.07-.05-.07-.05l.04,.07c-.53,0-1.06,0-1.59,.01,.37-.76,1.1-.51,1.65-.76Z"/>
  <path class="cls-15" d="M200.29,174.21c.5-.05,1-.09,1.49-.14-.5,.05-1,.09-1.49,.14Z"/>
  <path class="cls-15" d="M152.9,154.53c-.42,.11-.81,.13-1.04-.41,.4-.03,.8-.09,1.04,.41Z"/>
  <path class="cls-3" d="M95.72,160.57c-.04,.28-.08,.56-.11,.84-.2-.13-.58-.26-.58-.39-.01-.52,.38-.44,.69-.45Z"/>
  <path class="cls-3" d="M96.41,167.32s.02,0,.02,0c-.05,.26-.04,.59-.37,.63-.07,0-.22-.16-.21-.22,.04-.37,.32-.35,.55-.39Z"/>
  <path class="cls-15" d="M173.18,153.08c-.41,.17-.79,.21-1.09-.24,.4-.1,.79-.18,1.09,.24Z"/>
  <path class="cls-15" d="M171.55,152.7c-.41,.12-.79,.1-1.06-.34,.43-.18,.78-.06,1.06,.34Z"/>
  <path class="cls-15" d="M165.75,152.37c-.22,.42-.47,.51-.77,.1,.23-.28,.49-.26,.77-.1Z"/>
  <path class="cls-15" d="M251.74,165.99c-.02-.62,.24-.93,.79-.93-.15,.43-.39,.77-.79,.93Z"/>
  <path class="cls-11" d="M182.94,115.39c-.06,.39-.24,.66-.56,.8,0-.44,.12-.77,.56-.8Z"/>
  <path class="cls-15" d="M154.6,154.96c-.14,.03-.28,.06-.42,.09,.14-.03,.28-.06,.42-.09Z"/>
  <path class="cls-15" d="M108.63,154.52c-.11-.04-.21-.09-.32-.13,.15-.09,.26-.05,.32,.13Z"/>
  <path class="cls-9" d="M103.02,154.11s-.07,.1-.11,.14c.03-.06,.06-.11,.09-.17,0,0,.01,.02,.01,.02Z"/>
  <path class="cls-15" d="M100.35,154.44c-.16,.05-.32,.1-.48,.14,.16-.05,.32-.1,.48-.14Z"/>
  <path class="cls-15" d="M143.16,153.87c-.16,.09-.32,.18-.48,.28,.16-.09,.32-.18,.48-.28Z"/>
  <path class="cls-15" d="M252.91,164.92c.16-.1,.32-.2,.49-.29-.1,.23-.22,.43-.49,.29Z"/>
  <path class="cls-11" d="M223.22,49.66c.11-.15,.22-.15,.34,0-.11,0-.23,0-.34,0Z"/>
  <path class="cls-15" d="M228.33,171.77c.21-.12,.42-.25,.63-.37-.21,.12-.42,.25-.63,.37Z"/>
  <path class="cls-11" d="M231.85,67.86c-.11,.34-.3,.36-.54,.18,.18-.06,.36-.12,.54-.18Z"/>
  <path class="cls-15" d="M187.87,172.75c.15,.07,.29,.15,.44,.22-.15-.07-.29-.15-.44-.22Z"/>
  <path class="cls-15" d="M204.59,173.41c.17-.06,.35-.12,.52-.18-.17,.06-.35,.12-.52,.18Z"/>
  <path class="cls-7" d="M204.37,84.86c-2.28,1.12-4.19,2.98-6.69,3.67-1.35,.37-.97,1.98-.65,3.08,.79,2.73,2.44,4.94,3.96,7.12,1.8,2.58,3.46,5.23,4.6,8.21,1.24,3.25,2.52,6.58,1.82,10.32-.09,.48,.12,1.14-.52,1.28-.44,.09-.67-.34-.95-.67-4.67-5.59-9.15-11.33-12.85-17.88-1.32-2.33-2.32-4.79-3.44-7.2-1.01-2.16,.33-6.83,2.4-8.42,3.65-2.79,8.77-3.67,12.32,.51Z"/>
  <path class="cls-7" d="M270.3,52.98c1.11,3.49,2.73,6.77,3.41,10.45,.19,1.05,.24,2.09,.11,3.14-.24,1.92-.95,4.09-2.4,4.53-.98,.3-1.94-1.91-2.69-3.28-1.96-3.58-4.41-6.88-5.73-10.85-.87-2.6-2.09-5.06-2.2-8.03-.13-3.47,.83-6.34,3.23-8.16,3.09-2.35,6.56-2.4,9.99-.69,.42,.21,.91,.47,.92,1.05,.01,.65-.59,.82-.97,.95-1.38,.5-2.4,1.82-3.89,2.07-.85,.14-1.5,.85-1.56,1.8-.16,2.56,.04,5.06,1.79,7.01,0,0,0-.01,0-.01Z"/>
  <path class="cls-7" d="M196.82,109.12c.81-.02,2.06,2.22,1.81,3.08-1.44,4.79,.38,9.12,2.57,12.54,3.82,5.94,6.52,12.22,8.07,19.3,.58,2.65,1.64,5.16,1.61,7.96-.02,1.95-.83,2.59-2.38,1.86-2.55-1.19-4.3-3.34-5.34-6.2-1.78-4.89-3.12-9.96-4.66-14.94-2.1-6.78-2.92-13.6-2.65-20.69,.03-.86,.27-1.62,.57-2.38,.09-.24,.31-.42,.4-.54Z"/>
  <path class="cls-7" d="M226.01,67.86c.43,3.17-1.64,7.25-2.45,8.65-.88,.66-1.23,.34-1.97,.82-.85,.48-.63,1.41-.64,2.19-.11,5.26-.01,10.53-.54,15.78-.35,3.49-1.59,6.29-4.52,7.82-1.1,.58-1.66,.47-2.08-1.12-.62-2.33-.46-4.47-.14-6.82,.6-4.39,0-8.85,.09-13.28,.04-1.8,.23-3.59,.44-5.38,.64-5.65,7.68-9.53,11.82-8.64Z"/>
  <path class="cls-7" d="M157.32,122.17c3.04-1.32,3.76-4.13,4.03-7.16,.22-2.46,.44-4.95,.36-7.42-.29-8.95,8.06-13.88,14.33-11.57,1.3,.48,2.6,.97,3.69,2.03,.82,.8,.98,1.52-.07,2-2.1,.96-3.74,3.55-6.6,1.95-1.51-.84-3.5,.76-4.21,2.68-1.27,3.43-1.03,7.08-1.11,10.67-.04,1.83-.63,3.43-1.18,5.08-1.22,3.68-5.72,4.87-9.24,1.75Z"/>
  <path class="cls-7" d="M200.12,113.02c2.4,2.75,4.81,5.45,7.15,8.22,3.3,3.92,6.87,7.54,9.88,11.77,2.33,3.27,4.13,6.85,5.13,10.92,.05,.22,.13,.43,.15,.65,.06,1.04,.46,2.35-.23,3.02-.64,.63-1.57-.42-2.39-.49-3.32-.29-3.31-4.18-5.14-6.12-2.89-3.07-5.58-6.45-7.99-10.02-3.07-4.56-6.61-8.93-7.07-15.12-.07-.96-.3-1.92,.51-2.83Z"/>
  <path class="cls-7" d="M245.72,55.08c3.14-.32,1.47,1.05,.7,2.83-.48,1.1-2.22,4.44-3.24,5.1-.2,.48-.33,1.06-.98,.87-.67-.54-1.05-.09-1.06,.59-.03,1.61-.76,3.12-.49,4.76-.15,2.84,.05,5.68-.66,8.5-1.25,4.95-4.8,6.17-8.68,4.5-.63-.27-.88-.75-.21-1.28,2.62-2.07,2.7-5.22,2.8-8.37,.07-2.1,.15-4.2,.21-6.3,.2-7,5.9-12.13,11.62-11.19Z"/>
  <path class="cls-2" d="M263.62,136.44c.22,7.48-1.47,10.35-6.16,12.06-.65,.24-1.28,.38-1.22-.68,.32-4.99-1.55-9.66-1.62-14.6-.06-4.03,2.06-8.48,4.86-9.91,.62-.32,.98-.52,1.32,.46,1.56,4.61,2.79,9.3,2.82,12.66Z"/>
  <path class="cls-9" d="M136.83,156.39c2.63-.1,5-.04,7.27,.92,.48,.2,1.13,.33,1.13,1.04,0,.58-.61,.7-1,.94-4.8,2.95-9.7,5.57-15.15,6.69-4.09,.84-7.84-.02-11.47-2.08-.65-.37-.79-.88-.02-1.24,6.3-2.91,12.33-6.93,19.25-6.28Z"/>
  <path class="cls-2" d="M280.37,88.34c.44,2.95,1.64,5.27,.87,8.05-.45,1.62-.48,3.39-.82,5.08-1.04,5.18-4,8.93-7.11,12.52-.81,.94-1.6,1.95-2.53,2.77-.81,.71-1.17,.58-1.48-.6-.51-1.9-.44-3.27,.91-4.97,1.49-1.88,1.48-4.74,1.7-7.27,.16-1.86,.12-3.75,.12-5.63,0-.89,.14-1.55,.95-1.98,3.06-1.6,5.1-4.48,7.4-7.98Z"/>
  <path class="cls-2" d="M262.08,88.7c.5-1.38,.43-2.95,1.12-4.27,.62-1.19,1.16-1.87,2.08-.24,1.65,2.92,3.59,5.63,4.93,8.77,.57,1.33,.59,2.77,.6,4.19,.04,4.24,.4,8.55-1.53,12.49-.28,.56-.28,1.32-1.08,1.67-1.85-4.96-4.77-9.31-6.17-14.52-.18-2.69-.12-5.38,.04-8.08Z"/>
  <path class="cls-9" d="M188.57,157.48c-6.84,6.29-22.84,10.95-28.04,5.73,12.21-7.5,20.73-9.39,28.04-5.73Z"/>
  <path class="cls-7" d="M213.41,109.93c0,4.6-.53,8.49-1.52,12.29-.27,1.06-.52,1.46-1.57,.52-1.68-1.51-2.21-2.92-1.78-5.5,.62-3.68,0-7.35-1.75-10.77-1.21-2.37-2.16-4.92-3.73-7.05-.53-.72-.32-1.17,.35-1.56,1.69-.99,3.38-1.98,5.04-3.02,1-.63,1.62-.33,1.96,.86,1.39,4.85,3.74,9.45,2.99,14.23Z"/>
  <path class="cls-9" d="M221.98,163c-3.99,1.73-8.1,2.63-12.38,2.15-1.69-.19-3.37-.45-4.9-1.55,7.13-5.34,14.55-9.42,23.24-9.38,.38,.02,.77,.04,1.15,.06,.67,.56,1.65,.34,2.39,1.33-2.97,2.57-5.88,5.09-9.14,7.07-.12,.11-.25,.22-.37,.33Z"/>
  <path class="cls-2" d="M282.11,75.18c-1.14,5.01-1.46,10.59-4.67,15.13-.88,1.25-1.94,2.2-2.91,3.28-.69,.76-1.71,1.97-2.45,1.18-.81-.87-1.14-2.51-.53-3.96,.28-.68,.58-1.36,.95-1.98,1.96-3.25,2.11-7.12,.91-10.31-1.1-2.94,.37-3.53,1.68-4.41,1.88-1.26,3.07-3.23,4.41-5.01,.91-1.21,1.02-.96,1.7,.12,1.13,1.78,.62,3.74,.9,5.95Z"/>
  <path class="cls-9" d="M184.18,162.51c3.03-2.71,6.4-4.53,10.08-5.65,5.23-1.59,10.49-1.82,15.79-.47,.5,.13,1.11,.25,1.22,.93,.09,.52-.44,.7-.76,.89-3.27,2-6.38,4.39-10.12,5.24-4.84,1.1-9.68,1.06-14.52,0-.45-.1-.88-.29-1.31-.47-.11-.04-.17-.21-.38-.47Z"/>
  <path class="cls-9" d="M134.86,165.85c1.86-1.18,3.31-1.6,5.29-.07,2.34,1.81,5.33,1.38,8.08,.91,1.75-.3,3.47-.83,5.2-1.29,.58-.15,1.12-.44,1.67,.12,2.52,2.57,5.3,4.73,8.59,6.43-6.4,3.93-21.06,.72-28.83-6.1Z"/>
  <path class="cls-2" d="M268.42,120.79c.44,3.54-1.14,6.48-2.88,9.33-.4,.66-1.31,1.91-1.61,.16-.89-5.23-3.31-9.96-3.86-15.27-.35-3.42-.05-6.72,2.37-9.29,.66-.7,1.16-1.37,1.72,.06,.1,.25,.46,.37,.54,.62,1.58,4.63,4.17,8.91,3.72,14.39Z"/>
  <path class="cls-6" d="M191.56,100.73c0,.93-.21,1.84-1.01,2.19-1.4,.6-2.02,1.92-2.6,3.31-1.77-.17-3.08,1.17-4.49,1.99-4.27,2.48-8.81,4.19-13.17,6.39-1.45,.73-1.31-.48-1.24-1.51,.22-.17,.23-.35,.01-.54,0-.58,.01-1.16,.02-1.74,.02-.2,.03-.4,.05-.61,.2-.77,.7-1.14,1.35-1.31,5.31-3.24,10.58-6.58,15.97-9.66,1.22-.7,2.28-2.12,3.9-1.79,.38,1.1,1.11,2.03,1.22,3.26Z"/>
  <path class="cls-2" d="M262.79,71.49c.3-1.61,.62-3.22,.9-4.83,.15-.85,.74-1.37,1.28-1.6,.72-.32,.86,.74,1.16,1.23,1.95,3.14,4.09,6.16,5.27,9.82,1.29,4.01,1.46,8.06,.1,12.1-.2,.6-.34,1.55-.97,1.48-.44-.05-.92-.8-1.2-1.35-1.6-3.07-3.64-5.79-5.44-8.7-.12-.32-.25-.64-.37-.96-.47-1.14-.6-2.37-.75-3.6,.01-1.2,.02-2.4,.03-3.61Z"/>
  <path class="cls-9" d="M203.39,172.5c-.14,.06-.27,.12-.41,.18-.4,.07-.8,.13-1.2,.2-.56-.14-1.09-.11-1.57,.28-5.75,.5-11.22-.36-16.23-3.98-1.1-.8-2.02-1.85-3.17-2.58-.62-.4-1.57-1.25-1.21-2.09,.44-1.02,1.85-1.35,2.6-1,4.86,2.25,9.89,2.14,14.96,1.86,.44-.02,1.06,.01,1.31,.32,1.92,2.46,4.36,4.15,6.79,5.85-.53,.91-1.38,.43-1.87,.98Z"/>
  <path class="cls-9" d="M185.16,171.6c-3.67,1.66-7.25,1.88-10.85,1.51-4.67-.48-9.29-1.31-13.36-4.27-1.26-.92-2.47-1.95-3.67-2.97-.35-.29-.83-.62-.62-1.27,.19-.59,.75-.54,1.17-.68,.45-.15,.92-.16,1.34,.15,4.89,3.6,10.19,3.23,15.45,1.69,2.35-.69,3.87-.34,5.44,1.81,1.26,1.73,3.17,2.76,5.1,4.03Z"/>
  <path class="cls-9" d="M144.93,165.78c-1.55,.06-3-.46-4.39-1.16-.56-.28-1.43-.88-.28-1.52,4.39-2.47,8.6-5.39,13.46-6.68,3.91-1.04,7.54,.11,11.19,1.42,.31,.11,.69,.27,.63,.7-.09,.59-.64,.71-1.03,.95-3.92,2.34-8.17,3.62-12.4,4.98-2.35,.76-4.75,1.19-7.19,1.32Z"/>
  <path class="cls-6" d="M246.14,61.98c.66-.14,1.57,.25,1.68-1.04,.24,.04,.54,.21,.72,.1,3.84-2.36,7.67-4.74,11.5-7.12,1.15,.83,.65,2.73,1.78,3.59,.06,.04,0,.51-.08,.55-2.35,1.07-2.57,4.38-5.01,5.65-4.62,2.4-8.99,5.46-13.46,8.25-.29,.18-.56,.39-.94,.24-.44-.92,.26-2.12-.53-2.98-.1-.92,.53-1.51,.81-2.25,1.18-1.66,2.35-3.33,3.53-4.99Z"/>
  <path class="cls-9" d="M222.76,172.61c-3.81,.4-7.63,.36-11.44,0-3.57-1.07-6.86-2.74-9.69-5.55-.61-.61-1.91-1.14-1.54-1.9,.46-.94,1.84-1,2.84-.72,1.2,.34,2.31,1.13,3.51,1.43,2.64,.66,5.36,1.21,8.01,.5,2.92-.77,5.41-.28,7.88,1.65,1.6,1.25,3.55,1.82,5.59,2.17-.25,1.28-1.41,.83-1.99,1.4-.11,.08-.22,.15-.33,.23,0,0-.03,.02-.03,.02-.42,.13-.85,.25-1.27,.38-.56-.11-1.09-.05-1.55,.38Z"/>
  <path class="cls-1" d="M243.8,149.72h1.97c-1.5,4.28-3.01,8.2-6.34,10.75-1.74,.79-3.34,1.96-5.23,2.37-3.07,.66-6.13,1.64-9.2-.01,1.91-1.58,3.82-3.16,5.73-4.75,.1-.1,.21-.19,.31-.29,0,0,.05-.06,.05-.06,.1-.12,.2-.24,.3-.36,.17-.18,.35-.36,.52-.54,.13-.12,.27-.24,.4-.36,0,0,0,0,0,0,.3-.11,.68-.13,.89-.35,3.03-3.23,6.38-5.75,10.6-6.39Z"/>
  <path class="cls-2" d="M274.08,129.27c.17,5.5-1.17,10.35-3.51,14.55-3.23,5.81-8.55,8.08-14.34,8.98-.34,.05-.87,.23-.98-.39-.08-.5-.01-1.05,.36-1.44,.7-.75,1.6-1.04,2.5-1.28,3.95-1.04,7.48-5.94,7.11-10.2-.15-1.71,.52-2.59,1.74-3.36,1.77-1.11,3.4-2.49,4.7-4.32,.64-.9,1.22-1.9,2.42-2.54Z"/>
  <path class="cls-1" d="M249.74,165.47c-1.09,2.4-3.3,2.53-5.19,3.1-5.35,1.64-10.78,1.71-16.21,.5-2.4-.86-4.85-1.55-6.98-3.21-.46-.36-.68-.59-.52-1.19,.13,.01,.26-.02,.37-.11,.33,.08,.62,0,.84-.29,.89-.45,1.79-.42,2.68-.03,2.09,.92,4.21,.78,6.39,.59,2.93-.25,5.56-1.59,8.31-2.5,.29,.14,.58,.28,.86,.42,.33,.69,.92,.8,1.52,.88,0,0,.02,.02,.02,.02,.36,.23,.73,.45,1.09,.68,.42,.36,.88,.51,1.4,.37,.87,1,1.98,.7,3.02,.74,.79,0,1.59,0,2.38,.01Z"/>
  <path class="cls-9" d="M97.17,165.52c.37-.31,.79-.2,1.13-.05,4.46,1.83,8.91,1.66,13.37-.03,.61-.23,1.29-.29,1.62,.35,1.57,2.94,4.14,4.44,6.83,6.12-1.4,1.48-3.09,1.75-4.59,1.96-6.39,.89-12.15-.81-16.72-6.29-.55-.66-1.65-.81-1.6-2.08l-.04,.03Z"/>
  <path class="cls-2" d="M241.33,160.85c1.88-2.37,3.64-4.48,4.56-7.41,.87-2.79,1.98-5.52,3.25-8.1,.91-1.86,2.27-3.41,4.13-4.22,.78-.34,1.13-.05,1.16,.84,.12,3,.47,6.04-.15,8.98-1.21,5.69-7.26,10.26-12.95,9.91Z"/>
  <path class="cls-9" d="M140.02,171.47c-4.74,2.61-9.17,2.29-13.58,1.12-4.23-1.12-8.38-2.54-11.42-6.45-.39-.51-1.05-.96-.59-1.65,.44-.68,1.15-.55,1.77-.08,4.57,3.43,9.57,3.67,14.71,2.4,1.62-.4,2.89-.49,4.2,1.09,1.22,1.48,2.88,2.48,4.92,3.57Z"/>
  <path class="cls-2" d="M278,110c.75,4.89-.17,8.9-1.95,12.46-1.2,2.4-2.5,4.81-4.12,6.97-1.59,2.12-3.31,3.99-5.4,5.39-.4,.27-.79,1.05-1.31,.39-.45-.58-.56-1.42-.22-2.12,.35-.71,.8-1.4,1.32-1.96,2.21-2.34,2.96-5.41,3.25-8.65,.19-2.08,.72-3.76,2.25-5.15,2.18-1.97,4.32-4.06,6.19-7.34Z"/>
  <path class="cls-2" d="M242.87,162.34c2.43-.63,4.81-1.22,6.96-2.79,1.35-.99,2.65-2.14,3.52-3.47,.97-1.5,2.02-1.84,3.42-2.04,2.35-.34,4.66-.91,6.81-2.11,.34-.19,.75-.48,1.08-.06,.12,.15,.08,.57,0,.81-3.16,8.01-12.7,13.4-20.03,10.86-.6-.21-1.35-.12-1.75-1.19Z"/>
  <path class="cls-7" d="M280.64,58.81c.24,6.58-2.62,11.22-7.14,14.79-.39,.31-1.01,.95-1.55,.12-.35-.53-.15-1.06,.26-1.37,3.51-2.63,2.91-6.6,2.41-10.36-.25-1.91-.3-4.05-1.74-5.59-.46-.49-.17-1.01,.44-1.37,1.69-1.01,3.31-2.15,4.99-3.19,1.29-.8,1.67,.26,1.81,1.37,.24,1.86,.35,3.74,.52,5.61Z"/>
  <path class="cls-6" d="M159.71,116.21c-.21,1.98-.6,3.61-2.58,4.53-1.8,.84-1.48,2.38,.59,3.61,.56,.33,1.53,.29,1.51,1.17-.02,.91-1.01,.76-1.57,1.06-2.8,1.48-5.74,2.14-8.82,1.84-.99-.1-2.08-.22-2.59-1.28-.57-1.18,.22-2.05,.89-2.91,.93-1.19,1.24-3.03,2.87-3.46,.29,0,.57,.04,.69,.41-.61,.74-1.35,1.4-1.8,2.26-.48,.92-1.1,2.32,.21,2.88,1.63,.7,3.38,.58,4.96-.53-1.06-.15-2.1,0-3.14-.03-1.06-.02-1.77-.46-.92-1.8,.68-1.08,1.5-2,2.35-2.93,1.48-1.6,3.61-2.25,4.71-4.34v.05c.63,.19,1.14,0,1.57-.52l1.07-.03Z"/>
  <path class="cls-7" d="M219.03,133.07c-1.76-2.12-3.29-4.02-4.87-5.85-1.15-1.33-1.81-2.37-.97-4.6,.97-2.58,.96-5.63,1.38-8.54,3.54,2.81,5.87,12.46,4.46,18.99Z"/>
  <path class="cls-7" d="M208.57,135.72c3.81,4.43,7.91,8.29,8.57,14.79,.13,1.32,.52,2.78-1.25,3.17-1.82,.41-3.39-.44-3.75-2.2-.58-2.84-1.06-5.7-1.63-8.54-.47-2.36-1.91-4.37-1.94-7.23Z"/>
  <path class="cls-7" d="M257.37,64.85c1.76,.53,3.08,1.72,4.55,2.52,.15,.08,.22,.79,.08,1.02-.98,1.6-.84,3.42-.84,5.19,0,1.29-.54,1.38-1.38,1.02-2.73-1.15-5.18-2.87-7.52-4.81-.39-.32-1.06-.98-.44-1.43,1.82-1.31,3.75-2.4,5.55-3.52Z"/>
  <path class="cls-7" d="M187.14,116.63c-.32-2.52,1.84-3.58,2.49-5.52,4.53,2.14,4.9,6.61,4.87,11.64-2.67-1.9-5.39-3.39-7.36-6.12Z"/>
  <path class="cls-6" d="M211.96,83.77c.25,.42,.09,.98,.56,1.37,.66,.53,.48,.93-.25,1.41-3.95,2.63-8.18,4.7-11.88,7.83-.26,.22-.82,.41-.84,.1-.05-1.08-1.31-2.11-.17-3.26,4.04-2.47,8.07-4.95,12.11-7.42,.15-.01,.31-.02,.46-.03Z"/>
  <path class="cls-15" d="M243.8,149.72c-4.22,.64-7.58,3.15-10.6,6.39-.21,.22-.59,.24-.89,.35,.13-.7,.25-1.4,.38-2.1,1.53-.7,2.6-2.2,4.02-3.08,.27-.17,.65-.33,.6-.78-.07-.54-.52-.64-.89-.71-1.93-.38-3.83-.63-5.81-.05-1.45,.42-2.33,1.79-3.69,2.28-.36-.16-.53-.47-.55-.91,3.06-3.38,6.69-3.76,10.57-2.48,1.18,.39,2.17,.62,2.85-.85,.04,.54,.18,.97,.75,.98,1.1,.84,2.15-.2,3.22-.14,.01,.37,.02,.74,.03,1.11Z"/>
  <path class="cls-9" d="M161.73,154.15l-.04-.07s.06,.05,.07,.05c.6,.27,1.15,.22,1.65-.27,.25-.05,.5-.09,.75-.14,2.74-.28,5.48-.58,8.18,.41,.62,.23,1.29,.29,1.64,1.23-1.98,.76-3.94,2.13-5.89,2.11-2.12-.02-4.23-1.31-6.32-2.13-.12-.05-.04-.78-.05-1.2Z"/>
  <path class="cls-1" d="M226.92,152.01c1.35-.48,2.24-1.85,3.69-2.28,1.98-.58,3.88-.33,5.81,.05,.36,.07,.82,.17,.89,.71,.06,.45-.33,.61-.6,.78-1.43,.88-2.49,2.38-4.02,3.08-.23-.07-.47-.13-.7-.2-.2-.37-.51-.5-.87-.46-.07-.08-.14-.1-.24-.06-.92-.56-1.9-.81-2.94-.73-.35-.28-1.28,.29-1.02-.9Z"/>
  <path class="cls-4" d="M189.58,110.68c-.13-.26-.26-.51-.38-.77,1.43-1.94,2.86-3.88,4.3-5.83,1.48-.17,.99,1.74,1.92,2.33,1.6,1.02,.15,1.73-.33,2.67-.55,1.06-.7,2.38-1.05,3.71-1.38-.42-2.31-1.66-3.35-2.68-.14-.19-.26-.17-.36,.05-.14,.38-.43,.46-.74,.52Z"/>
  <path class="cls-5" d="M220.11,153.97c-.69,.04-1.16-.3-1.38-1.17-.36-1.43-1.08-3.15-.48-4.28,.59-1.1,1.87,.22,2.8,.59,1.45,.58,3.39,1.39,3.21,3.21-.16,1.69-2.3,.91-3.51,1.42-.18,.08-.38,.13-.64,.22Z"/>
  <path class="cls-6" d="M201.88,97.21c-.49,.05-.83,.03-.95-.41-.12-.43,.14-.61,.42-.85,3.33-2.78,7.06-4.77,10.62-7.1,.29-.19,.61-.35,.88,.02,.24,.34,.14,.77-.05,1.05-.63,.95-1.39,1.73-2.35,2.28-2.62,1.5-5.21,3.06-7.81,4.6-.29,.17-.58,.32-.76,.42Z"/>
  <path class="cls-15" d="M239.43,162.34c-2.75,.91-5.38,2.25-8.31,2.5-2.19,.19-4.31,.32-6.39-.59-.89-.39-1.79-.42-2.68,.03-.02-.42-.05-.85-.07-1.27,.12-.11,.25-.22,.37-.33,.86,.66,1.69,1.75,2.64,.14,3.07,1.65,6.12,.68,9.2,.01,1.89-.41,3.49-1.58,5.23-2.37,0,.63,0,1.25,0,1.88Z"/>
  <path class="cls-9" d="M184.19,154.58c.96-1.23,2.09-.97,3.05-1.11,2.11-.32,4.21-.06,6.25,.64,.46,.16,1.19,.14,1.17,.94-.02,.67-.7,.52-1.09,.7-1.88,.87-3.71,1.16-5.66-.06-1.03-.65-2.35-.72-3.72-1.11Z"/>
  <path class="cls-14" d="M190.34,97.47c-1.61-.34-2.68,1.09-3.9,1.79-5.38,3.08-10.66,6.42-15.97,9.66-.14-.14-.28-.28-.42-.42,.65-.48,1.33-.93,1.96-1.45,.83-.69,2.15-.64,2.43-2.14,0,0,0,0,0,0,1.09,.23,1.97-.03,2.39-1.36,0,0-.02,.02-.02,.02,1.43-.27,2.88-.51,3.58-2.28,0,0-.02,.02-.02,.02,.48,.11,.99,.3,1.21-.47l-.02,.02c1.61-.58,3.24-1.13,4.36-2.73,0,0,0,0,0,0,.52-.09,1.31,.28,1.2-.9,0,0,0,0,0,0,.52,.25,.94,.16,1.2-.46,0,0-.02,.01-.02,.01,.23,0,.47,0,.7-.01,.51,.08,1.12-.11,1.33,.7Z"/>
  <path class="cls-2" d="M260.24,97.66c1.01,.64,.98,1.67,1.47,2.38,1.66,2.42,1.3,4.04-.94,5.57-.49,.34-.81,.13-.88-.35-.35-2.49-.73-5,.35-7.6Z"/>
  <path class="cls-9" d="M146.74,154.29c.52,0,1.04,0,1.57,0,1.04,.37,2.23,.12,3.24,1.14-2.87,2.45-5.65,2.16-8.63-.17,1.37-.35,2.6-.65,3.82-.96Z"/>
  <path class="cls-9" d="M120.87,155.31c3.05-.98,5.94-1.17,8.89,.07-3.41,2.36-5.95,2.37-8.89-.07Z"/>
  <path class="cls-5" d="M200.08,154.08c.24-1.83,1.65-3.43,2.49-3.29,1.17,.18,2.15,1.89,3.56,3.29h-6.06Z"/>
  <path class="cls-2" d="M243.76,148.61c-1.08-.06-2.12,.98-3.22,.14,1.21-1.49,2.68-2.34,4.46-2.73,.58-.13,2.01,.46,1.75-1.35,0,0,.03-.07,.03-.07,.78,2.5,.42,3.12-2.09,3.64-.32,.07-.62,.24-.92,.37Z"/>
  <path class="cls-14" d="M260.04,53.92c-3.83,2.38-7.66,4.77-11.5,7.12-.17,.11-.48-.06-.72-.1,.36-.42,.73-.84,1.09-1.26,.58-.62,1.51-.54,2.01-1.32l-.03,.02c.52-.03,.88-.23,.81-.92,0,0-.02,.02-.02,.02,1.37,.11,2.48-.41,3.17-1.83h0c1.92-.15,3.32-1.47,4.76-2.71,0,0,0,0,0,0,.14,.01,.28,.02,.42,.04,0,.32,0,.63,0,.95Z"/>
  <path class="cls-2" d="M256.94,123.14c-.23-1.71-.02-3.14,.65-4.51,.32-.65,.79-1.1,1.42-1,.56,.09,.46,.8,.57,1.29q.59,2.5-2.64,4.22Z"/>
  <path class="cls-14" d="M211.5,83.8c-4.04,2.47-8.07,4.95-12.11,7.42,.01-.23,.02-.46,.03-.7,0-.18,0-.36-.01-.54v.02c1.19-.5,2.54-.74,3.17-2.28,0,0-.01,.01-.02,.01,.52,.23,.91,.04,1.22-.46l-.03,.02c1.6-.61,3.21-1.2,4.37-2.74,0,0,0,0,0,0,.58,.02,1.09-.1,1.19-.91,0,0,0,0,0,0,.49,.16,.97,.3,1.19-.45,0,0-.01,0-.01,0,.38,.1,.93-.2,1,.58Z"/>
  <path class="cls-2" d="M263.16,80.58c.42,.69,.44,1.31-.12,1.97-.77,.92-1.21,2.06-1.49,3.29-.25,.08-.51,.17-.76,.25-.52-.89-.36-1.88-.34-2.86,.33-.38,.34-.86,.31-1.35,.17-.58,.34-1.16,.52-1.73,.72-.38,1.45-.85,1.89,.42Z"/>
  <path class="cls-7" d="M185.6,108.72c.11,2.15-1.28,3.19-2.49,4.35-1.95-2.04-1.95-2.08,.36-3.31,.7-.37,1.42-.7,2.14-1.04Z"/>
  <path class="cls-2" d="M253.92,137.89c.34,1.95-.95,1.85-1.81,2.15-.55,.19-.65-.33-.5-.83,.33-1.15,.22-2.81,1.59-3,1.07-.15,.53,1.21,.72,1.68Z"/>
  <path class="cls-9" d="M105.94,156.03c-1.93,.65-3.86,1.58-5.96-.04,1.98-.77,3.91-.94,5.88-.73,.03,.26,.06,.51,.08,.77Z"/>
  <path class="cls-14" d="M262.08,88.7c-.16,2.69-.21,5.38-.04,8.08-.43-.07-.77-.27-.77-.82-.01-2.17-.01-4.33,0-6.5,0-.57,.39-.71,.81-.76Z"/>
  <path class="cls-16" d="M274.33,43.51c-.17,1.9-1.51,2.5-2.75,3.2-.56,0-1.12,0-2.18,0,1.77-1.62,3.29-2.53,4.93-3.2Z"/>
  <path class="cls-14" d="M242.61,66.97c-.28,.74-.91,1.33-.81,2.25-.39,0-.78,0-1.17,0-.27-1.64,.47-3.15,.49-4.76,.01-.68,.39-1.13,1.06-.59-.26,1.1-1,2.29,.42,3.09Z"/>
  <path class="cls-10" d="M215.87,155.25c-1.23,.59-2.26,1.64-3.59,.92-.44-.24-1.35-.24-1.08-1.18,.21-.75,.94-.91,1.5-.57,.96,.58,2.03,.5,3.17,.84Z"/>
  <path class="cls-11" d="M169.95,105.97c.64-1.82,1.21-2.91,2.66-2.87,.31,.01,.71-.07,.85,.36,.15,.44-.18,.71-.46,.87-.86,.49-1.74,.94-3.05,1.64Z"/>
  <path class="cls-8" d="M174.44,104.91c-.28,1.49-1.61,1.45-2.43,2.14-.63,.52-1.3,.97-1.96,1.45-.49-.04-1.1-.22-.37-.77,1.49-1.12,2.98-2.31,4.76-2.81Z"/>
  <path class="cls-10" d="M211.82,95.86c-.34-.96-1.44-1.67-.55-2.79,.36-.45,.94-.54,1.22-.13,.81,1.18-.67,1.87-.68,2.93Z"/>
  <path class="cls-14" d="M231.91,71.11c-1.61,1.24-3.82,1.61-5.78,2.73-.37-1.16,.81-1.39,1.2-1.95,.55,.13,.9-.1,1.2-.42,0,0-.05,.02-.05,.02,.73-.13,1.78,.12,1.72-.93,0,0-.03,.02-.03,.02,.55-.02,1.1-.05,1.64-.07,.03,.2,.06,.4,.09,.61Z"/>
  <path class="cls-6" d="M150.69,121.19c-.12-.37-.4-.4-.69-.41,.86-1.67,2.51-2.08,3.8-3.07,.02,.25,.04,.5,.05,.75-1.05,.91-2.1,1.82-3.16,2.73Z"/>
  <path class="cls-8" d="M259.63,52.93c-1.44,1.24-2.84,2.56-4.76,2.72,1.39-1.35,2.78-2.7,4.76-2.72Z"/>
  <path class="cls-8" d="M185.93,98.13c-1.12,1.6-2.75,2.15-4.36,2.73,1.11-1.63,2.6-2.47,4.36-2.73Z"/>
  <path class="cls-8" d="M208.12,84.57c-1.15,1.54-2.76,2.13-4.37,2.74,1.23-1.37,2.47-2.73,4.37-2.74Z"/>
  <path class="cls-8" d="M180.4,101.29c-.7,1.77-2.15,2-3.58,2.28,.94-1.28,2.4-1.49,3.58-2.28Z"/>
  <path class="cls-8" d="M202.59,87.73c-.63,1.54-1.98,1.78-3.19,2.28,.59-1.62,2.03-1.68,3.19-2.28Z"/>
  <path class="cls-14" d="M263.16,80.58c-.43-1.28-1.17-.81-1.89-.42,.21-1.54,1.35-1.26,2.23-1.47,.12,.32,.25,.64,.37,.96-.59-.03-.69,.41-.72,.94Z"/>
  <path class="cls-15" d="M227.93,152.91c1.04-.08,2.02,.16,2.94,.73-.59,.23-1.35-.18-1.77,.65-.38-.02-.77-.04-1.15-.06,0-.44,0-.87,0-1.31Z"/>
  <path class="cls-14" d="M260.37,95.1c-.38-1.85-.25-3.69,.12-5.52-.04,1.84-.08,3.68-.12,5.52Z"/>
  <path class="cls-8" d="M254.87,55.64c-.7,1.42-1.8,1.93-3.17,1.83,.89-1,1.9-1.72,3.17-1.83Z"/>
  <path class="cls-8" d="M211.5,83.8c-.07-.78-.63-.48-1-.58,.05-1.44,1-1.13,1.97-1.4-.37,.77-.79,1.28-.5,1.95-.15,.01-.31,.02-.46,.03Z"/>
  <path class="cls-6" d="M153.85,118.47c-.02-.25-.04-.5-.05-.75,.57-.83,1.35-1.17,2.25-1.2,.06,.05,.12,.11,.18,.16-.56,1.01-1.71,.99-2.38,1.79Z"/>
  <path class="cls-14" d="M158.63,116.23c-.43,.52-.95,.71-1.56,.52-.01-.33-.03-.67-.04-1l-.02,.02c.47,.07,.77-.12,.82-.7,.14-.26,.33-.32,.57-.2,0,0,.13,.04,.13,.04,0,0,.12-.05,.12-.05-.02,.17-.05,.34-.07,.5,.02,.29,.04,.58,.06,.86Z"/>
  <path class="cls-8" d="M176.84,103.55c-.42,1.32-1.29,1.59-2.39,1.36,.53-1.07,1.64-.79,2.39-1.36Z"/>
  <path class="cls-14" d="M158.63,116.23c-.02-.29-.04-.58-.06-.86,.21-.05,.52,.08,.55-.31,0-.05-.31-.13-.48-.2l-.12,.05s-.13-.04-.13-.04c.39-.35,.84-.94,1.3-.49,.47,.47,.21,1.21,.01,1.83-.36,0-.72,.02-1.07,.03Z"/>
  <path class="cls-8" d="M231.85,70.5c-.38,.02-.77,.05-1.15,.07,.5-.62,.93-1.39,1.94-1.22-.29,.42-.54,.78-.79,1.14Z"/>
  <path class="cls-15" d="M247.35,165.45c-1.05-.04-2.16,.26-3.02-.74,1.03,.14,2.08,.13,3.02,.74Z"/>
  <path class="cls-8" d="M250.93,58.36c-.5,.78-1.43,.7-2.01,1.32,.05-.39,.09-.78,.14-1.16,.62-.05,1.25-.1,1.87-.16Z"/>
  <path class="cls-14" d="M262.79,71.49c-.01,1.2-.02,2.4-.03,3.61-.54-1.21-.56-2.41,.03-3.61Z"/>
  <path class="cls-14" d="M261.13,78.21c0-.57,0-1.14,0-1.7,.52-.02,.86,.17,.86,.84,0,.67-.37,.85-.87,.86Z"/>
  <path class="cls-8" d="M230.72,70.56c.04,1.06-.69,.81-1.21,.93-.05-1.07,.72-.77,1.21-.93Z"/>
  <path class="cls-15" d="M241.82,163.64c-.6-.08-1.19-.19-1.52-.88,.6,.09,1.37-.21,1.52,.88Z"/>
  <path class="cls-8" d="M105.94,156.03c-.03-.26-.06-.51-.08-.77,.43-.07,1.09-.33,1.13,.31,.05,.72-.64,.43-1.05,.46Z"/>
  <path class="cls-14" d="M260.48,88.64c-.17-.43-.34-.86-.51-1.29,.9,.06,1.02,.51,.51,1.29Z"/>
  <path class="cls-8" d="M187.13,97.22c.12,1.19-.67,.81-1.2,.9-.1-1.16,.63-.89,1.2-.9Z"/>
  <path class="cls-8" d="M209.31,83.66c-.1,.8-.61,.92-1.19,.91,.02-.94,.55-1.03,1.19-.91Z"/>
  <path class="cls-14" d="M260.79,86.1c.25-.08,.51-.17,.76-.25,.03,.35,.09,.76-.33,.82-.28,.03-.38-.28-.43-.56Z"/>
  <path class="cls-14" d="M232.35,71.95c-.06-.28-.12-.56-.17-.83,.31-.02,.71-.15,.74,.38,.02,.33-.31,.4-.56,.45Z"/>
  <path class="cls-15" d="M200.2,173.16c.48-.39,1.02-.42,1.57-.28-.47,.46-1.04,.29-1.57,.28Z"/>
  <path class="cls-8" d="M157.03,115.75c.01,.33,.03,.67,.04,1,0,0-.01-.05-.01-.05-.28,0-.55-.02-.83-.03-.06-.05-.12-.11-.18-.16,.16-.54,.5-.76,.98-.76Z"/>
  <path class="cls-8" d="M189.01,96.76c-.23,0-.47,0-.7,.01-.28-.58,.09-.81,.45-.8,.46,.01,.33,.45,.25,.79Z"/>
  <path class="cls-8" d="M251.71,57.45c.06,.69-.3,.9-.81,.92-.14-.78,.4-.78,.81-.92Z"/>
  <path class="cls-15" d="M242.93,164.34c-.36-.23-.73-.45-1.09-.68,.46,.02,.97-.05,1.09,.68Z"/>
  <path class="cls-8" d="M188.32,96.77c-.26,.63-.68,.71-1.2,.46,.3-.48,.62-.91,1.2-.46Z"/>
  <path class="cls-8" d="M210.51,83.21c-.22,.75-.71,.61-1.19,.45,.19-.87,.69-.66,1.19-.45Z"/>
  <path class="cls-15" d="M224.3,172.23c.42-.13,.85-.25,1.27-.38-.33,.54-.81,.43-1.27,.38Z"/>
  <path class="cls-14" d="M260.76,81.89c.03,.49,.02,.97-.31,1.35-.05-.5-.07-.98,.31-1.35Z"/>
  <path class="cls-8" d="M203.79,87.28c-.3,.5-.7,.69-1.22,.46,.29-.55,.68-.74,1.22-.46Z"/>
  <path class="cls-8" d="M181.6,100.84c-.22,.76-.73,.58-1.21,.47,.27-.6,.73-.56,1.21-.47Z"/>
  <path class="cls-8" d="M199.41,89.99c0,.18,0,.36,.01,.54-.3,.04-.75,.13-.75-.28,0-.35,.42-.42,.74-.26Z"/>
  <path class="cls-8" d="M157.83,115.07c-.05,.58-.34,.77-.82,.7,.11-.49,.53-.49,.82-.7Z"/>
  <path class="cls-8" d="M229.54,71.47c-.21,.32-.46,.55-.84,.42-.05-.09-.05-.19-.01-.29,.29-.04,.57-.09,.86-.13Z"/>
  <path class="cls-14" d="M259.48,83.65c-.02-.14-.06-.27-.06-.41,0-.05,.08-.11,.12-.16-.02,.19-.04,.38-.07,.57Z"/>
  <path class="cls-15" d="M221.21,164.57c-.11,.09-.23,.12-.37,.11,.06-.33,.17-.42,.37-.11Z"/>
  <path class="cls-3" d="M97.22,165.48c-.05-.03-.11-.06-.15-.11-.01-.01,.02-.08,.04-.12,.02,.09,.05,.18,.07,.26,0,0,.04-.03,.04-.03Z"/>
  <path class="cls-14" d="M259.99,96.31c.12-.19,.24-.38,.37-.56,.01,.3-.11,.49-.37,.56Z"/>
  <path class="cls-15" d="M225.61,171.83c.11-.08,.22-.15,.33-.23-.11,.08-.22,.15-.33,.23Z"/>
  <path class="cls-8" d="M169.06,112.57c.21,.19,.2,.37-.01,.54,0-.18,0-.36,.01-.54Z"/>
  <path class="cls-8" d="M169.12,110.23c-.02,.2-.03,.4-.05,.61,.02-.2,.03-.4,.05-.61Z"/>
  <path class="cls-11" d="M190.32,110.16c.1-.21,.22-.24,.36-.05-.12,.04-.24,.06-.36,.05Z"/>
  <path class="cls-8" d="M260.04,52.97c-.14-.01-.28-.02-.42-.04,.05-.14,.11-.29,.16-.43,.09,.15,.17,.31,.26,.46Z"/>
  <path class="cls-14" d="M306.59,25.2c-3.41,2.59-7.12,4.56-10.71,6.79-1.97,1.23-3.82,2.79-6.05,3.43-.07-.09-.15-.18-.22-.27,.11-1.19,2.03-.47,1.72-2.11,0,0-.01,.01-.01,.01,.5,.19,.97,.25,1.2-.47h-.01c.58,.02,1.32,.3,1.2-.9,0,0,0,0,0,.01,.5,.16,.95,.19,1.2-.47,0,0-.01,.01-.01,.01,.47-.18,1.29,.24,1.2-.91,0,0,0,0,0,0,.66,.15,1.26,.18,1.2-.91,0,0,0,0,0,0,.52,.24,.93,.12,1.2-.46h-.02c.6,.06,1.26,.2,1.2-.9,0,0,0,0,0,0,2.56-.19,4.28-2.56,6.63-3.32,.11,.15,.22,.29,.33,.44Z"/>
  <path class="cls-14" d="M319.33,17.57c-4.24,2.56-8.35,5.41-12.75,7.64-.11-.15-.22-.29-.33-.44,.63-1.01,2.11-.72,2.49-2.11h0c.78-.23,1.77-.05,1.99-1.35,0,0,0,0,0,0,.4,.14,.76,.2,.8-.46h0c.99,0,1.84-.32,2.38-1.36,0,0-.01,.01-.01,.01,1.34-.44,2.8-.66,3.57-2.27h0c.49-.05,.98-.11,1.47-.16,.13,.17,.27,.33,.4,.5Z"/>
  <path class="cls-14" d="M286.18,38.12c-.8,.09-1.35,1.28-2.39,.75,.45-1.27,1.54-1.56,2.31-2.27,1.34,.08,2.22-1.33,3.5-1.44,.07,.09,.15,.18,.22,.27-.97,1.33-2.57,1.54-3.65,2.69Z"/>
  <path class="cls-14" d="M323,14.07c.38,.18,.47,.53,.45,.96-1.37,.84-2.75,1.69-4.12,2.53-.13-.17-.27-.33-.4-.5,.23-.37,.89-.48,.51-1.19,0,0,0,0,0,0,.52,.24,.95,.18,1.2-.47,0,0-.01,.01-.01,.01,.91-.2,1.77-.53,2.4-1.36h-.02Z"/>
  <path class="cls-13" d="M225.68,81.39c-.39,.95-1.09,1.35-1.85,1.48-.54,.09-.89-.5-.83-1.01,.15-1.28,1.27-1.04,1.99-1.36,.36-.16,.56,.47,.7,.89Z"/>
  <path class="cls-13" d="M227.49,80.52c-.66,.1-1.11-.38-1.04-.97,.12-1.08,1.15-.97,1.79-1.32,.4-.22,.72,.29,.85,.69,.16,.5-.93,1.55-1.61,1.6Z"/>
  <path class="cls-8" d="M308.75,22.65c-.38,1.39-1.86,1.1-2.49,2.11-2.34,.76-4.07,3.12-6.63,3.32,2.8-2.33,5.82-4.19,9.12-5.43Z"/>
  <path class="cls-8" d="M289.61,35.16c-1.29,.11-2.16,1.51-3.5,1.44-.08-.08-.1-.18-.07-.29,1.63-1.36,3.38-2.48,5.29-3.25,.31,1.64-1.6,.92-1.72,2.11Z"/>
  <path class="cls-8" d="M317.46,17.23c-.77,1.61-2.23,1.83-3.57,2.27,.83-1.5,2.21-1.86,3.57-2.27Z"/>
  <path class="cls-8" d="M319.45,15.88c.38,.7-.29,.82-.51,1.19-.49,.06-.98,.11-1.47,.17,.32-1.1,1.16-1.21,1.99-1.36Z"/>
  <path class="cls-8" d="M313.9,19.49c-.54,1.04-1.39,1.36-2.38,1.36,.51-1.1,1.33-1.49,2.38-1.36Z"/>
  <path class="cls-8" d="M310.73,21.3c-.22,1.3-1.21,1.12-1.99,1.36,.29-1.17,1.09-1.35,1.99-1.36Z"/>
  <path class="cls-8" d="M323.02,14.06c-.63,.84-1.49,1.16-2.4,1.36,.33-1.52,1.39-1.38,2.4-1.36Z"/>
  <path class="cls-8" d="M293.7,31.69c.12,1.2-.62,.92-1.2,.91-.06-1.09,.75-.68,1.2-.91Z"/>
  <path class="cls-8" d="M296.07,30.34c.1,1.15-.73,.73-1.2,.91-.09-1.14,.58-.98,1.2-.91Z"/>
  <path class="cls-8" d="M299.63,28.08c.06,1.09-.59,.96-1.2,.91-.12-1.2,.73-.72,1.2-.91Z"/>
  <path class="cls-8" d="M297.26,29.43c.06,1.09-.53,1.06-1.2,.91,.17-.69,.64-.88,1.2-.91Z"/>
  <path class="cls-8" d="M320.64,15.42c-.25,.65-.68,.71-1.2,.47,.31-.45,.62-.93,1.2-.47Z"/>
  <path class="cls-8" d="M298.46,28.98c-.27,.59-.68,.71-1.2,.46,.29-.54,.64-.84,1.2-.46Z"/>
  <path class="cls-8" d="M294.89,31.24c-.25,.66-.7,.63-1.2,.47,.3-.49,.64-.85,1.2-.47Z"/>
  <path class="cls-8" d="M292.51,32.59c-.23,.72-.7,.66-1.2,.47,.33-.39,.6-.96,1.2-.47Z"/>
  <path class="cls-8" d="M311.52,20.84c-.04,.66-.4,.6-.8,.46,.13-.46,.39-.62,.8-.46Z"/>
  <path class="cls-11" d="M270.54,23.93c1.12-2.54,1.98-3.75,3.4-4.82,1.01,4.75,.42,5.59-3.4,4.82Z"/>
  <path class="cls-13" d="M246.74,144.67c.26,1.81-1.16,1.22-1.75,1.35-1.77,.4-3.24,1.24-4.46,2.73-.57-.01-.71-.44-.75-.98,.76-1.87,2.43-2.05,3.86-2.68,.33,.07,.66,.09,.92-.23,.71-.24,1.43-.37,2.17-.19Z"/>
  <path class="cls-15" d="M244.57,144.85c-.26,.32-.58,.3-.92,.23,.25-.36,.57-.34,.92-.23Z"/>
  <path class="cls-13" d="M229.1,154.28c.42-.83,1.18-.42,1.77-.65,.09-.04,.17-.02,.24,.06,.19,.41,.51,.5,.87,.46,.23,.07,.47,.13,.7,.2-.13,.7-.25,1.4-.38,2.1,0,0,0,0,0,0-.13,.12-.27,.24-.4,.36-.17,.18-.35,.36-.52,.54-.1,.12-.2,.24-.3,.36,0,0-.05,.06-.05,.06-.1,.1-.21,.19-.31,.29-1.91,1.58-3.82,3.16-5.73,4.75-.95,1.61-1.79,.52-2.64-.14,3.25-1.98,6.17-4.5,9.14-7.07-.74-.99-1.73-.77-2.39-1.33Z"/>
  <path class="cls-15" d="M231.91,156.82l.4-.36c-.13,.12-.27,.24-.4,.36Z"/>
  <path class="cls-15" d="M231.09,157.72c.1-.12,.2-.24,.3-.36-.1,.12-.2,.24-.3,.36Z"/>
  <path class="cls-15" d="M230.73,158.07c.1-.1,.21-.19,.31-.29-.1,.1-.21,.19-.31,.29Z"/>
  <path class="cls-14" d="M156.23,116.67c.28,0,.55,.02,.83,.03-1.09,2.1-3.23,2.74-4.71,4.34-.86,.93-1.67,1.85-2.35,2.93-.85,1.34-.13,1.78,.92,1.8,1.04,.02,2.09-.12,3.14,.03-1.57,1.11-3.33,1.23-4.96,.53-1.31-.56-.69-1.96-.21-2.88,.45-.86,1.19-1.51,1.8-2.26,1.05-.91,2.1-1.82,3.16-2.73,.67-.81,1.82-.79,2.38-1.79Z"/>
  <path class="cls-15" d="M231.98,154.15c-.37,.04-.68-.05-.87-.46,.37-.04,.67,.09,.87,.46Z"/>
  <path class="cls-11" d="M158.64,114.86c.17,.07,.49,.15,.48,.2-.04,.39-.34,.26-.55,.31,.02-.17,.05-.34,.07-.5Z"/>
</svg>