<?xml version="1.0" encoding="UTF-8"?>
<svg id="Layer_1" data-name="Layer 1" xmlns="http://www.w3.org/2000/svg" viewBox="0 0 414 200">
  <defs>
    <style>
      .cls-1 {
        fill: #f7b7d3;
      }

      .cls-2 {
        fill: #f9f8f7;
      }

      .cls-3 {
        fill: #00bff3;
      }

      .cls-4 {
        fill: #edebea;
      }

      .cls-5 {
        fill: #fff9b8;
      }

      .cls-6 {
        fill: #fff200;
      }

      .cls-7 {
        fill: #fbb040;
      }

      .cls-8 {
        fill: #e4e8e7;
      }

      .cls-9 {
        fill: #655d54;
      }

      .cls-10 {
        fill: #9ed2f1;
      }

      .cls-11 {
        fill: #c1c0c0;
      }

      .cls-12 {
        fill: #b7aa96;
      }

      .cls-13 {
        fill: #b9b1ad;
      }

      .cls-14 {
        fill: #b3cdb7;
      }

      .cls-15 {
        fill: #403b36;
      }

      .cls-16 {
        fill: #46413d;
      }

      .cls-17 {
        fill: #6d6b6b;
      }

      .cls-18 {
        fill: #342e2c;
      }

      .cls-19 {
        fill: #494542;
      }

      .cls-20 {
        fill: #524d4a;
      }
    </style>
  </defs>
  <path class="cls-15" d="M191.4,105.77c-.8-.25-1.61-.5-2.41-.75-.37-.19-.73-.39-1.1-.58h-.17s-.11-.13-.11-.13c-.19-.13-.38-.25-.57-.38-.32-.17-.65-.35-.97-.52,.09-.35,.18-.7,.27-1.05,2.68,1.3,5.23,2.97,8.59,2.69-.41-1.63-1.02-3.06-1.07-4.52-.08-2.42-1.25-3.5-3.47-4.78-3.39-1.95-6.2-4.82-9.11-7.44-.9-.81-1.43-1.2-2.62-.56-1.61,.87-3.34,1.53-5.02,2.28,2.2,2.57,4.34,5.09,6.48,7.6-.12,.36-.23,.72-.35,1.07-1.39-1.38-2.79-2.76-3.95-3.91-1.7,.79-3.34,1.55-4.99,2.31-.14,.06-.28,.12-.42,.18-.3,.09-.59,.18-.89,.27-.48,.15-.96,.3-1.44,.45-3.17,.94-6.35,1.37-9.56,.11-.13-.05-.27-.11-.4-.16-.32-.25-.64-.51-.96-.76,.33-.18,.67-.36,1-.54,4.29,1.81,11.81,.7,14.85-2.26-.42-.3-.82-.6-1.24-.89-3.34-2.26-3.27-3.09,.59-4.66,3.79-1.54,7.65-2.94,11.47-4.42,1.49-.58,2.94-1.22,4.41-1.84-.91-1.66-1.66-3.04-2.41-4.42-.16-.25-.32-.51-.48-.76-.36-.19-.72-.39-1.08-.58-.1-.1-.2-.19-.3-.29,.01-.22,.02-.44,.03-.65,.36-.2,.72-.4,1.08-.6,.13-.57,.25-1.13,.38-1.7,.11-.86,.21-1.72,.32-2.59,.13-.37,.26-.73,.39-1.1,.79-1.49,1.58-2.98,2.37-4.47,.14-.15,.29-.3,.43-.45,.84-.59,1.67-1.18,2.51-1.77,2.95-.12,5.89-.23,8.84-.35,.31,.17,.62,.35,.94,.52,.3,.11,.6,.22,.9,.32h0c.16,.14,.32,.28,.48,.42h-.01c.17,.13,.34,.27,.52,.41,.65,.11,1.29,.23,1.94,.34,.24,.22,.49,.44,.73,.66-.47,.53-.94,1.06-1.42,1.58l.03-.02c-.46,.14-.92,.29-1.37,.43h-.01c-.28,.02-.57,.03-.85,.04-1.82-.39-.19-.83-.02-1.24l.06-.03c.12-.17,.24-.33,.36-.5-4.03-3.56-10.09-3.46-13.11,.41-3.32,4.25-3.89,8.87-1.29,13.65,2.01,3.7,5.35,6.27,8.81,8.66,2.12,1.46,4.65,1.68,7.83,1.44-1.17-2.1-2.03-3.88-3.12-5.52-1.75-2.63-3.92-5.04-5.44-7.78-2.13-3.85-.88-6.91,3.21-9.08,.45,.17,.91,.34,1.36,.51-.99,.68-1.98,1.37-2.97,2.05l-.14,1.46c-1.46,1.44-.95,5.49,.85,6.55,.26,.15,.73,.17,1.02,.05,1.3-.51,2.61-1.04,3.86-1.66,5.18-2.55,10.34-5.13,15.5-7.7,.14-.09,.28-.18,.42-.27,.55-.22,1.09-.44,1.64-.66,.21,.02,.43,.05,.64,.07,.33,.09,.66,.19,.99,.28-.93,.45-1.87,.91-2.8,1.36-.15,.03-.29,.07-.44,.1-.5,.28-1,.56-1.51,.83-.13,.01-.22,.07-.28,.18-.17,.08-.33,.16-.5,.24-.29,.16-.58,.32-.87,.48,0,0,.03-.01,.03-.01-.17,.08-.33,.16-.5,.25-1.44,.79-2.88,1.58-4.32,2.37-.38,.12-.76,.23-1.15,.35-.21,.12-.42,.25-.64,.37-1.28,.59-.6,1.16,.01,1.74,.2,.46,.39,.91,.59,1.37,.33,.55,.65,1.1,.98,1.65,.14,.44,.29,.87,.43,1.31,.32,.47,.64,.94,.97,1.42,.12,2.22,.24,4.43,.37,6.77,1.02-.15,1.68-.27,2.35-.34,4.16-.41,8.4-.71,12.06,1.55,2.6,1.61,4.64,1,7.27-.62-1.88-1.4-3.44-2.84-5.28-3.85-1.84-1.01-3.95-1.59-5.95-2.36-.74-.15-1.49-.31-2.23-.46-2.6-.25-5.19-.49-7.79-.74,.77-.3,1.54-.6,2.3-.9,1.21,.11,2.43,.23,3.64,.34,.56,.09,1.13,.18,1.69,.27,.34,.05,.68,.1,1.02,.14,.41,.1,.82,.2,1.23,.31,.51,.12,1.02,.25,1.53,.37,.13,.08,.25,.15,.38,.23,0,0,.04,.06,.04,.06,1.03,.35,2.06,.69,3.09,1.04,.64-.23,1.28-.47,1.91-.7,.14,.58,.29,1.15,.43,1.73,1.28,.97,2.77,1.78,3.79,2.96,1.18,1.36,2.42,1.41,4.13,1.38,3.97-.07,8.02-.13,11.89,.53,3.91,.67,7.85,2.07,10.05,5.57,1.44,2.29,3.34,1.71,5.69,1.72-1.69-1.98-3.12-3.66-4.54-5.33,.54,0,1.08,.02,1.63,.02,.22,.19,.48,.35,.65,.58,2.62,3.53,5.81,5.64,10.66,6.5,5.63,.99,10.79,3.71,12.35,9.86,.12,.48,.84,.97,1.39,1.17,1.47,.53,3.01,.91,4.52,1.35,.5-.09,1-.17,1.49-.26,.43,.47,.76,1.09,1.29,1.39,1.87,1.06,3.78,2.06,5.73,2.99,4.47,2.14,6.42,5.7,5.79,10.41-.09,.65,.52,1.37,.81,2.06,.35-.05,.71-.09,1.06-.14,.18-2.27,.36-4.54,.54-6.81,.51-.15,1.02-.3,1.53-.45,.45,.8,.9,1.61,1.36,2.41-.35,.48-.7,.96-1.05,1.43,0,.5,0,1-.01,1.49-1.97,2.18-2.08,3.29-.62,5.45,.27,.4,.43,.86,.64,1.3,.11,.76,.22,1.53,.34,2.29,.51,3.23,.69,6.55-2.17,8.85-2.21,1.77-2.79,3.8-2.64,6.27-.11,.8-.22,1.59-.33,2.39-.23,.93-.47,1.86-.7,2.79-.1,.31-.2,.62-.31,.93-1.27,4.6-4.26,7.73-9,9.36-.64,.12-1.29,.24-1.93,.36-1.19,.06-2.37,.13-3.56,.19,.57-.48,1.14-.97,1.72-1.45,.18,.09,.36,.19,.54,.28l.16,.07,.16-.08c5.59-1,9.09-4.14,10.67-9.25,.25-.71,.5-1.41,.75-2.12,.08-.54,.15-1.07,.23-1.61,.06-.06,.12-.11,.2-.16,.04-.84,.07-1.68,.11-2.51-.06-.29-.13-.57-.2-.86,0-.17,.01-.33,.02-.5,0-.26,0-.53,0-.79-.1-1.09-.2-2.18-.29-3.26-.36-1.06-.73-2.11-1.09-3.17-.41-.68-.81-1.36-1.22-2.05-3.67,1.66-4.88,4.71-6.27,7.63-.18,.73-.35,1.46-.53,2.18,.05,.13,.02,.25-.09,.36l-.39,1.31c-.07,.57-.13,1.14-.2,1.72-.09,.43-.17,.85-.26,1.28,.06,.14,.04,.27-.07,.39-.06,.03-.16,.07-.16,.1,0,.1,.05,.21,.09,.31-.04,.3-.08,.61-.12,.91-.15,.1-.16,.21-.04,.34-.02,.45-.04,.9-.06,1.34-.39-.51-.78-1.02-1.17-1.54,.07-.21,.15-.42,.22-.62,.1-.37,.2-.74,.3-1.1,.11-1.51,.22-3.03,.34-4.65-.77,.42-1.43,.89-2.17,1.15-.38,.13-.9-.1-1.36-.16,.58-.49,1.18-.97,1.74-1.48,1.01-.9,2-1.82,2.99-2.73,.13-.27,.26-.53,.38-.8,.06-.45,.12-.91,.17-1.36,.38-.45,.76-.9,1.14-1.35,1.02-1.19,2.07-2.36,3.05-3.59,.32-.4,.77-1.13,.61-1.37-1.1-1.59-2.35-3.08-3.55-4.61-.27-.78-.53-1.55-.8-2.33l-.79-.39-.21-.05c-4.38-1.55-6.89-4.78-8.63-8.64-.86-1.9-2.13-2.81-4.34-2.33-.26-.2-.51-.41-.77-.61-.06-.87-4.74-6.21-5.54-6.32-.07,0-.15,0-.23,0-1.41,0-2.82,0-4.4,0,0,2.25,.1,4.24-.04,6.21-.09,1.25,.44,1.76,1.61,1.74,1.65-.03,3.3-.18,4.95-.28,.02,.29,.05,.58,.07,.88h.01c-.15,.03-.3,.08-.45,.12-.95,.14-1.9,.28-2.86,.41-1.3,.18-2.6,.34-3.9,.51-.31-.25-.87-.49-.89-.77-.09-.96,0-1.94,.02-2.9,.04-.04,.13-.08,.12-.11-.02-.09-.07-.18-.11-.28v-8.52c-.15,.03-.3,.07-.44,.1-1.53,2.39-3.06,4.78-4.72,7.36,.09,.5,.41,1.43,.39,2.36-.1,3.68-1.54,6.98-3.6,10.03-1.08,1.6-2.46,3.02-3.71,4.52,.08,.56,.16,1.13,.23,1.69l.06,.1-.07,.09,.13,.59c.23,.16,.46,.33,.7,.49,0,.43,0,.86,0,1.3l-.18,.07c-.16,.24-.33,.48-.49,.71-.08,2.3-.15,4.6-.23,6.9,.65,.24,1.31,.47,1.96,.71-.77,.79-1.53,1.57-2.3,2.36-.1,.09-.11,.18-.02,.28-.1,.47-.2,.94-.3,1.41-.08,.29-.15,.58-.23,.87,.08,.14,.06,.26-.06,.37-.13,.45-.26,.91-.38,1.36-.17,.54-.33,1.09-.5,1.63-.29,.32-.57,.64-.86,.96-.4,.55-.8,1.1-1.2,1.65,0-.68-.12-1.39,.05-2.02,.84-3.08,1.76-6.13,2.65-9.2,.07-.33,.13-.65,.2-.98-.07-.08-.07-.16,0-.24,.03-2,.06-4,.09-6-.02-1.11-.04-2.22-.07-3.33-.11-.45-.22-.91-.32-1.36-.18-1.12-.37-2.24-.55-3.36-.28-.46-.57-.91-.85-1.37-.7-3.64-1.4-7.28-2.18-11.32-1.15,1.34-2.1,2.44-3.06,3.55,.16-.82,.15-1.74,.54-2.44,.46-.83,.61-1.21-.57-1.19-.38,.06-.75,.12-1.13,.19-.91-.01-1.81-.02-2.72-.03-.3,.04-.6,.08-.9,.12-.15,.86-.3,1.72-.45,2.58,.14,.28,.28,.56,.42,.84,.19,.53,.37,1.07,.56,1.6,.05,.73,.09,1.47,.14,2.2,.07,.2,.15,.41,.22,.61,.17,.18,.34,.35,.51,.53,.13-.22,.26-.43,.39-.65,.7-1.09,1.4-2.18,2.1-3.27,.14,.07,.28,.13,.42,.2-.08,.17-.16,.33-.24,.5-.15,.43-.3,.85-.46,1.28-.12,.09-.25,.19-.37,.28-.15,2.54-.57,5.09-.4,7.6,.28,4.28,1.13,8.53,1.37,12.81,.21,3.66,.29,7.4-.35,10.99-.36,2.01,.14,3.32,1.14,4.96,.55-.42,1-.77,1.44-1.11h.17s.17,0,.17,0c0,.72-.02,1.43-.03,2.15l.02-.03c-.15,.02-.31,.05-.46,.07,.16,.13,.33,.26,.49,.39,.3-.13,.59-.27,.89-.4,0,0,.02-.03,.02-.03,.14-.1,.27-.2,.41-.29,.46-.01,.91-.02,1.37-.04,.03,.33,.06,.65,.1,.98-1.28,.48-2.55,.97-4.37,1.65,2.02,1.23,3.43,2.36,5.34,1.74,2.51-.81,4.94-1.83,7.49-2.8-.58-.33-1.06-.61-1.53-.88,.61-.17,1.25-.56,1.82-.48,1.6,.21,3.17,.6,4.75,.93l1.38,.47,.52-.03c.14-.03,.27,0,.38,.09,.43,.26,.86,.52,1.29,.78,.48,.29,.96,.58,1.43,.87-.31-.05-.62-.1-.93-.14-.33-.08-.66-.16-.99-.24-1.71-.13-3.41-.27-5.12-.4-.2,.04-.41,.08-.61,.11-6.62,1.25-12.47,4.08-18.69,7.94,2.46,1.17,4.42,2.1,6.38,3.03-.03,.37-.06,.74-.09,1.11-1.88-.82-3.91-1.45-5.61-2.53-1.78-1.12-3.16-1.32-4.93,.75,2.3,1.8,4.6,3.6,6.9,5.41-.13,.13-.25,.26-.38,.4-.45,.14-.91,.28-1.36,.43-.31,.09-.61,.19-.92,.28-.9,.2-1.81,.39-2.71,.59-.56,.14-1.12,.28-1.67,.42-.95,.13-1.89,.25-2.84,.38-1.97,0-3.93,0-5.9,.01-.96-.13-1.91-.25-2.87-.38-.3-.07-.6-.14-.91-.21,.07-.33,.15-.66,.22-1,1.13,.22,2.25,.43,3.38,.65,.24,.01,.47,.03,.71,.04,3.86-.44,7.72-.87,11.58-1.31,.29-.09,.59-.18,.88-.28-.21-.18-.42-.35-.63-.53-2.65-1.88-4.09-6.35-8.88-3.65-.38,.21-.84,.3-1.28,.39-4.55,.95-9.03,1.64-13.21-1.29-.58-.41-1.8-.01-2.72,.01,0,.24,0,.48,0,.72,2.65,2.37,5.8,3.93,9.27,4.97-.02,.34-.05,.69-.07,1.03-2.23-.48-4.45-.91-6.66,.06-.88,.23-1.76,.47-2.64,.7-1.19,.21-2.38,.43-3.57,.64-.68,.14-1.36,.27-2.04,.41-.79,.06-1.59,.12-2.38,.18-1.19,.02-2.38,.04-3.57,.06-1.08-.08-2.17-.16-3.25-.24-.65-.16-1.29-.32-1.94-.48-.54-.14-1.08-.28-1.61-.43-.53-.14-1.07-.28-1.6-.42-.58,.03-1.16,.06-1.74,.09-.42,.13-.83,.25-1.25,.38-.57,.12-1.13,.23-1.7,.35-.17,.05-.34,.09-.52,.14-1.23,.19-2.46,.38-3.69,.57-.29,.04-.59,.08-.88,.12-.62,.08-1.24,.17-1.86,.25-.58,.04-1.17,.08-1.75,.12-1.22,0-2.43,0-3.65,.01-.74-.03-1.48-.06-2.23-.09-.62-.1-1.23-.2-1.85-.31-.29-.05-.58-.1-.87-.14-.33-.05-.67-.11-1-.16-1.35-.25-2.7-.5-4.05-.76-1.25,.27-2.49,.54-3.74,.81-1.02,.22-2.03,.44-3.05,.66-.66,.05-1.32,.1-1.98,.15-.55,.09-1.1,.19-1.65,.28-1.43,.03-2.86,.06-4.29,.09-.44,0-.88-.01-1.32-.02-.4-.02-.8-.05-1.21-.07-.71-.09-1.41-.18-2.12-.27-1.11-.24-2.23-.48-3.34-.72-.22-.06-.45-.12-.67-.18-.82-.3-1.64-.61-2.46-.91-.84-.11-1.69-.19-2.51-.35-.4-.08-.76-.32-1.13-.49-.1-.32-.11-.72-.32-.93-1.37-1.31-2.71-2.68-4.24-3.81-.66-.49-1.8-.73-2.65-.61-4.16,.54-8.28,1.58-12.46,1.79-3.62,.18-7.18-.7-9.79-3.58-.41-.45-1.48-.36-2.24-.53-.06,.23-.12,.46-.18,.68,3.07,4.02,7.6,5.77,12.49,6.9,6.12,1.41,12.29,.93,18.45,.33,0,.33,.02,.66,.02,.99-.37,.03-.74,.07-1.11,.1-.69,.12-1.39,.24-2.08,.36-4.08-.02-8.16-.04-12.25-.05-.63-.12-1.26-.25-1.89-.37-.51-.05-1.08,.02-1.53-.16-3.1-1.21-6.25-1.62-9.52-.67-.98,.15-1.97,.3-2.95,.45-.76,.09-1.51,.18-2.27,.27-.29-.34-.57-.69-.86-1.03,2.57-.35,5.14-.7,8.21-1.12-1.91-1.59-3.64-2.66-4.84-4.12-1.31-1.59-2.55-1.54-4.45-1.18-3.8,.72-7.69,1.01-11.54,1.48,.07-.36,.14-.71,.22-1.07,2.82-.32,5.73-.34,8.45-1.03,6.56-1.68,13.04-3.68,19.55-5.55,.16-.02,.23-.11,.23-.26-1.36-1.04-2.71-2.08-4.07-3.11,0-.45,.02-.9,.02-1.35l.78-.24c.33,.22,.66,.45,.99,.67,0,0,.01,.01,.01,.01,1.24,1.15,2.47,2.32,3.74,3.44,.15,.13,.58,.06,.84-.02,2.36-.66,4.73-1.32,7.07-2.05,.17-.05,.16-.64,.23-.97,.22-.26,.44-.53,.65-.79l1.08,.58c.69,.23,1.37,.49,2.07,.67,.81,.21,1.64,.33,2.46,.5-8.6,1.15-16.41,4.7-25.1,6.96,3.64,3.62,7.76,3.95,12.02,3.58,7.73-.68,14.79-3.56,21.91-6.22,.43-.16,.78-.52,1.24-.82-2.39-2.64-5.57-2.9-8.67-3.36,.31-.4,.61-.79,.92-1.19,.39-.12,.78-.23,1.17-.35,.21-.08,.41-.15,.61-.23,2.37-.59,4.71-1.48,7.11-1.7,4.38-.4,8.73-.08,12.79,1.88,1.91,.92,3.68,.74,5.73-.3,4.98-2.53,10.42-2.36,15.62-.8,2.24,.67,4.2,1.18,6.45,.52,.56-.16,1.2-.09,1.8-.12,.59,0,1.18,0,1.78,0,.31,.03,.63,.07,.94,.1,.3-.03,.59-.05,.89-.08,.11-.1,.24-.14,.39-.11,.58,.3,1.16,.6,1.73,.9,1.58,1.16,3.14,2.33,4.74,3.47,.33,.24,.85,.55,1.15,.46,2.88-.88,5.73-1.84,9.26-3-1.78-.66-2.97-1.18-4.21-1.55-3.55-1.05-7.13-.71-10.7-.04-.02-.33-.05-.66-.07-.98,3.96-1.2,7.9-1.09,11.82,.17,.18,.05,.35,.09,.53,.14,.14-.06,.25-.03,.35,.08,.29,.13,.58,.27,.87,.4,.45,.25,.91,.49,1.36,.74,.18,.16,.37,.32,.55,.48h-.03c1.88,.99,1.13-.58,1.33-1.22,.18,0,.36-.02,.54-.02,1.24,3.32,4.32,.74,6.3,1.89-.01-3.7-4.28-3.39-5.6-6.27-.38,.97-.55,1.41-.72,1.85-.18,.85-.35,1.7-.53,2.55-.14,0-.28,0-.42,0,0-1.14,.02-2.27,.03-3.41,.04-.85,.08-1.71,.12-2.56-.28-.82-.56-1.64-.83-2.46,.95,.96,1.85,1.98,2.87,2.88,1.42,1.25,2.81,2.59,4.45,3.52,.66,.37,2.16,.03,2.89-.48,1.07-.74,.15-1.42-.48-2.22-2.35-3.01-4.89-5.97-6.66-9.28-2.46-4.61-4.28-9.53-6.41-14.3-.31-.69-.73-1.4-1.3-1.89-2.71-2.31-5.5-4.55-8.26-6.81l-1.15-.43c.22,.36,.43,.72,.65,1.08,.06,.11,.08,.23,.05,.36-.32,.17-.64,.33-.95,.5-.18-.14-.35-.29-.53-.43,0,0-.03-.16-.03-.16-.06-.33-.12-.65-.17-.98-.09-.28-.17-.55-.26-.83-.09-.2-.18-.41-.28-.61-.2-.82-.4-1.63-.61-2.45l-.26-.55c-.21-.55-.42-1.1-.63-1.64-.09-.31-.18-.61-.28-.92-.19-1.01-.37-2.01-.56-3.02,.12-.38,.23-.77,.45-1.47,.32,.73,.48,1.11,.65,1.49,.83,2.19,1.2,4.68,2.57,6.5,3.5,4.67,8.01,8.43,13.47,11.07,2.06,.99,4.13,1.98,6.57,3.14-.12-2.31-.11-3.95-.34-5.56-.1-.68-.55-1.46-1.1-1.91-4.73-3.84-9.55-7.58-14.27-11.43-1.98-1.62-3.76-3.45-5.69-5.12-.18-.16-.83,.17-1.27,.28-.34-.13-.67-.27-1.01-.4l.35-1.7c-.06-.44-.12-.89-.18-1.33-.07-.15-.13-.31-.2-.46-.17-.27-.35-.53-.52-.8-.15-.26-.29-.52-.44-.78-.16-.31-.31-.62-.47-.93-1.04-.42-2.07-.83-3.11-1.25-.56-.12-1.12-.23-1.68-.35Zm84.21,3.43c-.13-.44-.27-.89-.4-1.33,1.81,.22,3.63,.45,5.44,.67,.4,.13,.8,.26,1.2,.39h3.49c-.56-2.86-3.7-6.05-7.4-7.53-6.66-2.67-13.74-2.91-20.81-2.97-1.98-.02-3.97,.35-6.57,.6,1.07,.93,1.62,1.67,2.37,2.01,3.62,1.65,7.23,3.36,10.98,4.7,2.43,.87,5.13,1.07,7.66,1.72,.55,.14,.92,.89,1.37,1.36-.46,.17-.91,.33-1.37,.5,.24,.38,.42,1.03,.74,1.11,.92,.22,1.92,.29,2.87,.22,.19-.02,.3-.94,.45-1.44Zm-43.9,44.41c.12,.59,.23,1.17,.35,1.76,.33,1.06,.65,2.12,.98,3.18,.12-.05,.24-.09,.36-.14,.17-1.76,.34-3.52,.5-5.28,.78-2.94,1.58-5.87,2.3-8.82,.13-.52,.12-1.25-.18-1.64-1.49-1.99-3.1-3.89-4.79-5.99v14.75c.16,.72,.32,1.45,.48,2.17Zm13.63-28.26c0-.29,0-.58,0-.87-.21-.98-.41-1.96-.71-3.38-1.39,2.18-2.38,3.92-3.56,5.52-1.96,2.64-1.94,3.8,.8,6.88,1.23-2.88,2.36-5.52,3.48-8.16Zm.8-11.16l-.28,.74c.04,.52,.08,1.03,.13,1.55,1.99-.22,4.01-.34,5.96-.73,.62-.13,1.46-.97,1.52-1.55,.2-1.79,.07-3.62,.07-5.4-2.31,.16-4.61,.32-7.02,.49-.1,1.49-.19,2.96-.29,4.43-.03,.16-.06,.31-.09,.47Zm-.53-9.81c.14,.77,.16,1.58,.46,2.29,.2,.46,.8,1.08,1.24,1.09,1.79,.05,3.58-.11,5.38-.2,1.59-.08,2.02-1.24,2.01-2.35,0-.72-.63-1.53-1.18-2.13-.58-.63-1.59-.93-2.09-1.59-1.95-2.61-4.39-1.97-6.92-1.2,.28,1.1,.54,2.13,.79,3.15,.1,.32,.2,.63,.31,.95Zm-.65,6.43s.12-.1,.11-.14c-.02-.11-.08-.21-.13-.32,0-.27,0-.55,0-.82,.04-.05,.13-.1,.12-.14-.02-.11-.07-.22-.11-.32-.19-3.09-.58-6.13-2.44-8.72-.71,2.54-.62,5.18-1.65,7.34-1.22,2.56-1.72,4.85-1.24,7.65,.53,3.03-.12,6.03-2.17,8.69-.45,.58,.14,1.88,.26,2.85,.75-.37,1.76-.56,2.21-1.14,2.38-3.06,4.22-6.38,4.69-10.23,.05-.14,.11-.28,.16-.43,.06-1.42,.12-2.84,.18-4.26Zm-15.34,38.87c-.07-.33-.13-.66-.2-.99,.03-4.34,.08-8.68,.09-13.02,0-.48,0-1.06-.25-1.43-2.17-3.07-4.4-6.11-6.46-8.95-.02,.13-.29,.82-.25,1.49,.44,6.51,.7,13.04,1.52,19.51,.36,2.86,1.9,5.59,2.91,8.38,.91,2.86,2.36,4.23,4.67,4.31-.61-1.9-1.2-3.77-1.8-5.63-.03-.64-.07-1.27-.1-1.91,.07-.15,.05-.28-.07-.4-.02-.45-.05-.91-.07-1.36Zm-63.37,33.26c1.76-.39,3.53-.78,5.66-1.25-.63-.52-.83-.72-1.07-.87-.3-.21-.74-.32-.93-.58-2.83-3.93-6.23-3.39-10.59-2.16-5.94,1.68-12.12,1.71-17.2-2.82-.34-.3-1.07-.2-1.63-.29,.27,1.07,.67,1.79,1.29,2.21,2.45,1.64,4.96,3.19,7.45,4.78,.52,.1,1.03,.21,1.55,.31,2.61,.38,5.23,.76,7.84,1.14,.36,.01,.73,.02,1.09,.04h.44c.21-.02,.41-.03,.62-.03,1.64-.12,3.27-.24,4.91-.36,.19-.04,.38-.07,.56-.11Zm91.83-52.17c.26-.08,.53-.16,.79-.24,.89-1.23,1.88-2.41,2.64-3.71,4-6.77,1.63-13.43-.74-19.97-.34-.94-2.43-1.39-3.8-1.83-.14-.05-1.08,1.46-1.29,2.33-1.64,6.85-.18,13.51,1.57,20.13,.29,1.09,.55,2.19,.82,3.29Zm-10.11,6.99c.03-.12,0-.23-.06-.34-.15-1.42-.31-2.84-.46-4.26v-5.92c-.22-.04-.45-.07-.67-.11-.22,.45-.45,.9-.67,1.35-2.62,5.17-5.15,10.37-7.88,15.49-2.68,5.04-3.4,10.37-3,15.87,.11,1.55,.68,3.26,3.07,3.1,.12-.29,.25-.48,.27-.68,.49-7.16,3.75-13.4,7.62-19.35,1.1-1.69,2.28-3.09,1.78-5.16Zm-104.96,36.11c2.14,2.77,4.92,3.35,7.74,3.64,6.29,.65,12.04-1.35,17.66-3.6,2.99-1.2,5.81-2.76,8.78-4.19-2.62-2.87-9.49-4.02-13.62-2.76-6.82,2.09-13.53,4.53-20.56,6.91Zm81.24-77.45c4.11,2.14,8.49,3.04,12.87,2.78,7.46-.44,14.88-1.47,22.61-2.28-1.58-3.19-4.61-4.17-7.41-5.06-10.01-3.16-19.24-1.15-28.07,4.55Zm-54.78,78.18c6.23,4.99,25.23-.89,33.92-5.3-2.33-3.53-8.4-5.49-13.08-3.66-6.93,2.71-13.67,5.85-20.84,8.96Zm67.41-33.12c.68-.88,1.28-1.49,1.67-2.21,1.27-2.36,2.33-4.73,.48-7.31-.82-1.15-1.4-2.46-2.22-3.62-3.65-5.18-7.36-10.34-11.17-15.68-3.53,5.32-1.15,14.57,3.07,19.1,1.78,1.91,3.41,3.94,5.08,5.93,1.01,1.21,1.98,2.45,3.07,3.8Zm-41.62-52.16c-1.1,4.19,3.15,7.67,6.64,7.94,5.57,.44,11.14,.48,16.64-.79,3.44-.8,6.67-1.94,10.01-4.16-1.45-.73-2.5-1.65-3.64-1.76-3.34-.32-6.74-.61-10.08-.39-6.58,.44-13.19,2.89-19.57-.84Zm40.57,34.45c2.31-3.78,2.5-7.64,1.37-11.35-1.18-3.86-3.09-7.52-4.73-11.25-.18-.41-.6-.9-1.02-1.01-1.99-.54-4.01-.97-6.17-1.47-.87,4.83-.94,9.41,1.73,13.46,2.6,3.94,5.72,7.58,8.82,11.63Zm-6.65,45.07c-4.78-2.16-9.68-2.64-14.6-1.47-3.69,.87-7.23,2.31-10.81,3.55-1.92,.67-3.8,1.45-5.9,2.26,3.19,3.42,6.92,4.31,11.1,3.82,7.54-.88,13.77-4.64,20.22-8.16Zm48.82-59.62c-.14,.26-.28,.52-.41,.79,1.53,2.3,2.99,4.76,5.64,6.07,3.62,1.79,7.41,3.29,11.18,4.81,3.77,1.52,7.6,2.9,11.41,4.34,.91-2.62-.68-6.2-3.81-7.76-3.91-1.95-7.82-3.98-11.95-5.4-3.87-1.33-8.02-1.92-12.05-2.84Zm-66.33,12.34c.06-1.25,.1-1.93,.12-2.6,.14-3.94-1.52-7.41-3.9-10.37-3.35-4.15-7.19-7.95-10.85-11.87-.5-.54-1.17-.94-2.08-1.65-.33,6.34,1.39,11.73,5.14,16.31,3.12,3.81,6.88,7.14,11.58,10.19Zm12.03,51.74c3.12,2.37,6.27,2.45,9.44,2.01,7.48-1.05,13.79-4.55,19.95-8.58-1.94-.71-3.82-1.28-5.73-1.44-9.05-.74-15.92,4.22-23.66,8.02Zm83.35-28.57c3.89-3.89,3.84-7.96,2.4-11.96-1.91-5.31-6.66-8.19-13.44-9.5,.99,3.94,2.16,7.74,4.77,10.76,2.68,3.11,5.31,6.12,6.27,10.69Zm-109.56,36.35c-1.22-1.33-2.69-2.54-3.62-4.04-1.22-1.98-2.61-1.74-4.53-1.17-5.34,1.58-10.8,2.68-16.42,1.66-1.82-.33-3.54-1.13-5.44-1.76,4.05,7.11,18.41,8.77,30.02,5.31Zm10.1-75.27c.41,.52,.81,1.11,1.28,1.65,3.07,3.47,4.85,7.45,4.11,11.96-.64,3.88,2.5,4.94,4.67,7.05,2.73-7.89-1.31-22.28-6.87-25.07-1.04,1.43-2.08,2.88-3.19,4.41Zm16.82,74.08c-1.49-1.07-2.76-1.95-3.98-2.88-1.39-1.06-2.63-1.05-4.4-.41-7.04,2.57-13.93,3.23-19.66-2.94-.83,.34-1.63,.66-2.43,.99,4.16,7.81,17.21,10.06,30.47,5.23Zm15.78-15.47c2.43-.22,4.5-.45,4.21-2.98-.23-2.09,1.65-2.78,2.52-4.13,.44-.69,1.26-1.35,1.31-2.05,.23-3.59,.28-7.19,.35-10.79,0-.42-.31-.85-.72-1.92-4.03,7.18-8.3,13.59-7.66,21.88Zm-39.95-84.66c2.06,3.31,4.06,6.53,6.25,10.04,.61-.05,1.64-.2,2.68-.21,1.96-.03,2.74-.95,2.29-2.7-.69-2.71-1.44-5.41-2.23-8.1-.29-1-.77-1.95-1.23-3.06-2.75,1.42-5.28,2.74-7.76,4.02Zm-6.33,16.08c0-2.78,.05-5.16-.05-7.54-.02-.46-.6-.95-1.01-1.34-.9-.84-1.83-1.65-2.8-2.42-.37-.3-.98-.74-1.3-.64-2.41,.83-4.78,1.77-7.59,2.85,4.22,3.26,6.83,7.59,12.74,9.09Zm19.79,39.75c3.14,8.29,6.86,15.9,12.63,22.49,.28-.32,.35-.55,.27-.71-2.87-5.46-4.44-11.26-5.12-17.31-.07-.58-.65-1.33-1.21-1.61-1.99-.98-4.07-1.79-6.56-2.85Zm-2.42-36.55c1.49,2.04,2.84,3.89,4.22,5.72,.15,.2,.49,.33,.76,.36,3.62,.39,7.45-2.75,7.63-6.18,.08-1.6-1.11-2.12-2.27-1.95-3.33,.5-6.6,1.29-10.33,2.05Zm26.44,66.01c-1.28-1.24-2.45-2.48-3.76-3.57-.57-.48-1.42-.7-2.18-.93-2.89-.88-4.54,.78-6.18,2.64-1.04,1.17-.91,2.63,.58,3.23,2.8,1.12,5.58,2.04,8.46,.07,.95-.65,2.13-.99,3.08-1.42Zm-74.32,.32c-6.14-2.06-11.8-1.9-17.71-.4,.31,.38,.44,.66,.66,.79,1.7,.97,3.38,1.98,5.15,2.82,.54,.25,1.38,.18,2,0,3.11-.95,6.19-1.99,9.91-3.2Zm7.64-.41c2.72,1.3,5.07,2.43,7.43,3.54,.18,.09,.48,.11,.66,.04,2.48-1.02,4.94-2.06,8.01-3.35-5.74-1.96-10.75-1.86-16.1-.23Zm48.37-51.85c1.31-.65,2.37-1.04,3.24-1.66,.66-.47,1.54-1.28,1.5-1.88-.13-1.84-.65-3.66-1.01-5.4-2.12,.76-4.13,1.48-6.35,2.28,.82,2.1,1.64,4.19,2.61,6.67Zm76.46,15.3c-.81-5.56-2.25-7.04-7.42-7.64,1.41,3.51,3.93,5.89,7.42,7.64Zm-54.96-26.16c-.44-.56-.89-1.15-1.34-1.74-.41,.31-1.03,.55-1.19,.95-.52,1.29-.98,2.62-1.24,3.97-.17,.9-.01,1.89,.14,2.81,.05,.32,.6,.84,.84,.8,.41-.07,.98-.44,1.09-.79,.6-1.88,1.09-3.8,1.7-6.01Zm-17.35,10.39c-1.64,.61-2.89,1.07-4.37,1.62,.86,2.16,1.68,4.2,2.49,6.24l.5-.12c.44-2.45,.87-4.89,1.38-7.74Zm21.41,51.16c2.08,.09,3.55,.15,5.41,.23-.84-1.95-1.54-3.59-2.24-5.23-.27-.02-.54-.04-.82-.06-.72,1.54-1.43,3.09-2.35,5.06Zm-34.95-64.62c-4.63-1.57-3.44,2.51-5.23,3.66,.64,.68,1.17,1.23,2.07,2.19,1.16-2.15,2.13-3.95,3.15-5.85Zm58.28,9.31c-.17-.24-.34-.47-.52-.71-.75,.23-1.73,.26-2.19,.73-1.21,1.24-2.41,2.66-1.26,4.49,.12,.2,1.38,.13,1.55-.13,.9-1.4,1.63-2.91,2.42-4.37Zm-47.23,20.04c.03-2.4,1.27-4.82-.5-7.09-.42,1.58-.76,3.13-1.27,4.64-.49,1.48-.18,2.33,1.77,2.45Zm-15.91-29.56c-1.85-.22-3.22-.39-5.28-.63,1.62,1.42,2.77,2.43,4.27,3.74,.38-1.19,.67-2.06,1.01-3.11Zm28.53,1.5c.66,1.39,1.26,2.65,1.99,4.21,1.34-3.68,1.1-4.19-1.99-4.21Zm-59.11-6.66c-2.29-3.73-2.53-3.86-3.95-2.37,1.34,.8,2.65,1.58,3.95,2.37Zm52.79,64.63c-.11-.08-.23-.24-.33-.23-.11,.01-.2,.18-.3,.27,.11,.06,.23,.18,.34,.18,.1,0,.19-.14,.29-.22Z"/>
  <path class="cls-5" d="M218.95,68.86c-5.17,2.57-10.32,5.15-15.5,7.7-1.25,.62-2.55,1.15-3.86,1.66-.29,.11-.76,.1-1.02-.05-1.8-1.06-2.3-5.11-.85-6.55,3.18-1.58,6.37-3.13,9.52-4.75,11.48-5.89,22.96-11.79,34.43-17.71,7.58-3.92,15.15-7.86,22.71-11.83,.96-.5,1.81-1.17,2.71-1.77,0,0-.05-.04-.05-.04,.73-.18,1.52-.24,2.18-.56,1.57-.76,3.08-1.64,4.61-2.47,.15-.06,.3-.11,.45-.17,.26-.32,.51-.64,.77-.96,.07-.43,.13-.85,.2-1.28,.25-.1,.51-.21,.76-.31,1.22,2.6,2.45,5.19,3.67,7.78-6.71,3.45-13.42,6.89-20.12,10.35-4.09,2.11-8.17,4.23-12.25,6.35-5.78,3.01-11.55,6.04-17.33,9.06l-8.33,4.29c-.22,.11-.43,.21-.65,.32-.55,.22-1.09,.44-1.64,.66-.14,.09-.28,.18-.42,.27Z"/>
  <path class="cls-10" d="M166.5,82.15s-.01-.02-.01-.02c-.23-.22-.46-.44-.69-.66,0,0,.02,0,.02,0,.3,.03,.6,.05,.9,.08-.2-.51-.39-1.02-.59-1.53-.25-.44-.49-.88-.74-1.32-.39-.28-.78-.56-1.17-.84,0,0,.02,.02,.02,.02-.5-1.04-.94-2.12-1.55-3.11-.15-.23-.87-.15-1.32-.21,0,0-.1,.08-.1,.08,0,0,.02,.03,.02,.03,0,0,.17-.14,.17-.14,0,0-.06-.2-.06-.2,.18-.28,.37-.56,.55-.85-2.49-4.82-5.29-9.52-7.4-14.48-4.04-9.51-7.67-19.17-11.48-28.76-.05-.15-.1-.31-.14-.46-.08-.38-.15-.77-.23-1.15-.45-1.32-.97-2.61-1.32-3.95-.97-3.61-1.81-7.25-2.85-10.83-.14-.47-1.14-.71-1.74-1.06,.35-.27,.74-.81,1.03-.77,1.8,.25,3.57,.73,5.37,.94,.76,.09,1.59-.31,2.38-.49,.61,2,1.23,4,1.82,6.01,2.67,9.06,5.29,18.09,9.04,26.87,3.91,9.15,8.33,18,13.53,26.53,1.55,2.55,3.52,4.87,5.3,7.29-.16,.48-.18,1.22-.52,1.38-2.02,1-4.12,1.87-5.66,2.55-1.13-.41-1.86-.68-2.59-.95Z"/>
  <path class="cls-7" d="M202.64,126.84c2.76,2.26,5.55,4.5,8.26,6.81,.57,.49,1,1.21,1.3,1.89,2.13,4.77,3.95,9.69,6.41,14.3,1.77,3.31,4.31,6.27,6.66,9.28,.63,.8,1.54,1.49,.48,2.22-.73,.51-2.24,.85-2.89,.48-1.64-.93-3.03-2.27-4.45-3.52-1.02-.9-1.92-1.91-2.87-2.88,0,0-.05-.03-.06-.03-.4-.73-.79-1.46-1.19-2.19-.06-.18-.13-.36-.19-.55-2.54-4.48-5.29-8.86-7.54-13.46-1.78-3.64-2.95-7.55-4.38-11.34,.03-.13,.02-.25-.05-.36,.17-.22,.33-.43,.5-.65Z"/>
  <path class="cls-16" d="M273.84,164.71c-.48-.29-.96-.58-1.43-.87-.43-.26-.86-.52-1.29-.78,1.4,.26,2.79,.55,4.19,.75,.55,.08,1.32,.15,1.68-.13,1.69-1.32,3.26-2.76,5.31-4.52-1.82-.17-2.78-.26-3.74-.35-.81-.15-1.62-.31-2.43-.46,2.29-.18,4.59-.51,6.88-.5,2.39,0,3.49-.67,4.38-2.71,.72-1.66,1.81-3.18,2.74-4.76,.23,.23,.46,.47,.69,.7-.84,1.58-1.68,3.16-2.72,5.11,2.24-.46,3.9-.79,5.55-1.13,.39,.51,.78,1.02,1.17,1.54-.65,2.71-1.29,5.42-1.94,8.13-.57,.48-1.14,.97-1.72,1.45-.67,.96-1.34,1.91-2.01,2.87,.1,.24,.2,.47,.3,.71,2.61-.27,5.23-.54,7.84-.81,.44-.04,.88-.08,1.32-.12,.12-.16,.23-.31,.35-.47,.11,.37,.22,.74,.33,1.11,0,0,0,0,0,0-.27,.24-.55,.47-.82,.71-.8,.76-1.59,1.51-2.39,2.27-.02-.46-.04-.91-.05-1.37-.53-.09-1.07-.24-1.61-.26-1.64-.06-3.29-.17-4.93-.07-1.19,.07-2.53,.19-3.52,.74-4.42,2.46-8.96,3.3-13.75,1.19-1.73-.77-2.61-.14-3.51,1.28,.84,.53,1.55,1.04,2.33,1.45,3.68,1.94,7.69,2.3,11.8,2.15,.94-.19,1.88-.38,2.83-.56l.14-.11h.18c.08,.34,.16,.68,.24,1.01-1.76,.33-3.55,1.01-5.29,.91-3.63-.21-7,.39-10.29,1.74-.2-.3-.4-.6-.6-.89,1.1-.51,2.2-1.02,3.35-1.55-1.93-1.08-3.61-2.09-5.37-2.95-.54-.26-1.4-.31-1.97-.1-4,1.43-8.05,2.17-12.29,1.11,.03-.37,.06-.74,.09-1.11,.45,.01,.9-.02,1.34,.04,6.09,.86,11.23-.91,15.47-5.04,1.48-1.44,2.79-3.04,4.24-4.64-.36-.22-.72-.45-1.08-.67Zm19.81-8.19c-10.41,1.23-15.6,8.31-21.8,14.26,3.27,2.41,8.68,2.32,12.67-.12,5.18-3.16,8.01-7.95,9.13-14.14Z"/>
  <path class="cls-5" d="M185.83,78.17c.75,1.38,1.5,2.76,2.41,4.42-1.47,.61-2.92,1.26-4.41,1.84-3.82,1.48-7.68,2.88-11.47,4.42-3.86,1.57-3.93,2.4-.59,4.66,.42,.28,.82,.59,1.24,.89-3.04,2.96-10.55,4.07-14.85,2.26-.13-.69-.26-1.39-.38-2.08,.18-.6,.37-1.2,.55-1.79l.04-.16s.17-.02,.17-.02c0,0,.13,.03,.13,.03l.08-.1c-.02-.28-.04-.57-.07-.85-.04-.2-.09-.4-.13-.6,0,0-.01,.02-.01,.02,.23-.15,.46-.3,.69-.45,0,0,.02-.01,.02-.01,.2,.16,.4,.31,.61,.47,.17-.19,.35-.37,.52-.55-.3-.17-.61-.34-.91-.52,.23-.08,.47-.17,.7-.25,.5,.78,.53,.76,1.79-.68,.14,.03,.23-.02,.26-.16,1.07-.64,2.16-1.25,3.18-1.96,.27-.19,.29-.69,.42-1.06,0,0,0,0,0,0,.69-.15,1.43-.2,2.07-.47,1.17-.49,2.28-1.1,3.41-1.67-.17,.28-.26,.66-.51,.83-1.9,1.28-3.96,2.38-5.73,3.81-1.62,1.31-3.03,2.87-4.29,4.49-.34,.44-.09,1.71,.36,2.21,1.01,1.1,4.65,.71,5.96-.61h-5.71c1.9-5.55,7.86-6.68,11.42-10.34-.68-.17-1.1-.27-1.52-.37,1.32-.61,2.64-1.22,3.95-1.83,.22,.04,.44,.09,.67,.13,.67,0,1.44,.23,1.98-.01,2.69-1.25,5.33-2.62,7.98-3.94Z"/>
  <path class="cls-10" d="M120.44,165.61c1.36,1.04,2.71,2.08,4.07,3.11-.13,.04-.21,.13-.23,.26-6.51,1.87-12.98,3.87-19.55,5.55-2.71,.7-5.63,.71-8.45,1.03-.08-1.35-.19-2.7-.22-4.06,0-.38,.22-.77,.34-1.15,1.02-.45,2.02-.96,3.07-1.34,5.75-2.08,11.39-4.63,17.82-4.07,.44,.08,.88,.16,1.32,.25,.61,.14,1.22,.28,1.83,.42Z"/>
  <path class="cls-10" d="M180.11,97.63c-2.14-2.51-4.29-5.02-6.49-7.6,1.68-.75,3.41-1.41,5.02-2.28,1.19-.64,1.73-.25,2.62,.56,2.91,2.62,5.73,5.49,9.11,7.44,2.22,1.28,3.4,2.36,3.47,4.78,.05,1.45,.66,2.89,1.07,4.52-3.36,.28-5.91-1.38-8.59-2.69-.31-.22-.63-.45-.94-.67-.88-.61-1.76-1.24-2.68-1.79-.08-.05-.51,.41-.77,.64,0,0,0,0,0,0-.31-.15-.63-.3-.94-.46-.12-.02-.19-.08-.21-.2,1.5-1.02,.26-1.49-.47-2.07-.05-.09-.13-.16-.22-.21Z"/>
  <path class="cls-16" d="M263.34,91.97c-.54,0-1.08-.02-1.63-.02-1.92-1.34-3.76-2.78-5.76-3.99-4.09-2.45-8.78-3.23-13.44-4.06,.31-.3,.61-.6,.92-.89,5.81,.78,11.24,2.41,16.32,5.37,2.16,1.25,5.12,1.31,7.74,1.81,8.46,1.6,16.1,4.58,21.86,10.97,.58,.64,1.6,1.06,2.5,1.28,8.76,2.11,14.66,7.18,17.89,15.1,.43,1.04,.93,2.06,1.39,3.09-.51,.15-1.02,.3-1.53,.45-.15-.32-.36-.63-.45-.97-2.05-7.68-7.31-12.67-14.85-15.73-.81-.33-1.75-.36-2.32-.47,.84,2.52,1.62,4.89,2.41,7.26-.5,.09-1,.17-1.49,.26-.47-1.36-.68-2.86-1.45-4.04-1.84-2.8-3.57-5.82-6.04-8.07-3.84-3.52-8.7-5.72-13.94-6.93-2.47-.57-4.99-.91-7.5-1.29-.16-.02-.43,.57-.64,.88Z"/>
  <path class="cls-19" d="M175.27,79.16c-1.78-2.42-3.75-4.75-5.3-7.29-5.2-8.53-9.62-17.38-13.53-26.53-3.75-8.78-6.37-17.81-9.04-26.87-.59-2.01-1.22-4.01-1.82-6.01,1.43-.36,1.74,.44,2.07,1.54,2.4,8.14,4.54,16.37,7.43,24.35,2.56,7.08,5.74,14,9.11,20.78,2.63,5.31,5.93,10.33,9,15.43,.95,1.57,2.15,3.01,3.23,4.5-.38,.03-.77,.07-1.15,.1Z"/>
  <path class="cls-19" d="M276.02,29.76c-.25,.1-.51,.21-.76,.31-2.2,1.06-4.42,2.08-6.59,3.2-12.21,6.27-24.41,12.56-36.59,18.88-.54,.28-.92,.85-1.37,1.29,0,0,.01,0,.01,0-4.11,.57-7.13,3.11-10.44,5.14h0c-.68,.2-1.42,.29-2.03,.6-4.16,2.11-8.3,4.26-12.45,6.39-.24-.22-.49-.44-.73-.66,5.89-3.11,11.77-6.26,17.68-9.34,10.73-5.59,21.48-11.16,32.23-16.71,6.07-3.13,12.16-6.22,18.25-9.32,.65-.33,1.35-.63,2.06-.77,.16-.03,.49,.66,.74,1.02Z"/>
  <path class="cls-19" d="M299.29,169.45c-.11-.37-.22-.74-.33-1.1,2.08-1.22,4.36-2.21,6.18-3.71,2.29-1.89,4.46-4.01,6.22-6.35,2.03-2.71,3.15-5.85,2.69-9.23-2.57,1.2-4.98,2.33-7.38,3.46,.11-.8,.22-1.59,.33-2.39,.35,.07,.77,.28,1.05,.18,3.91-1.38,6.58-3.81,7.57-7.76,1.36-5.41-.21-10.41-2.32-15.33-.42-.99-1.22-1.83-1.84-2.74,.35-.48,.7-.96,1.05-1.43,4.33,7.48,7.06,15.12,2.95,23.55-.28,.58-.16,1.37-.11,2.06,.36,5.11-1.24,9.49-5.27,13.03-.6,.53-1.07,1.2-1.61,1.79-2.52,2.73-5.56,4.75-9.17,5.99Z"/>
  <path class="cls-10" d="M96.06,176.64c3.85-.47,7.74-.76,11.54-1.48,1.9-.36,3.14-.41,4.45,1.18,1.2,1.45,2.92,2.53,4.84,4.12-3.07,.42-5.64,.77-8.21,1.12-4.1-.4-8.19-.8-12.29-1.2-.11-1.25-.22-2.49-.33-3.74Z"/>
  <path class="cls-19" d="M229.99,63.31c5.78-3.02,11.55-6.04,17.33-9.06,4.08-2.13,8.16-4.25,12.25-6.35,6.7-3.46,13.41-6.9,20.12-10.35,.73,1.21-.43,1.6-1.13,1.97-4.23,2.29-8.5,4.53-12.78,6.74-5.46,2.82-10.95,5.6-16.43,8.39-6.21,3.16-12.42,6.3-18.63,9.45-.24-.26-.49-.53-.73-.79Z"/>
  <path class="cls-19" d="M143.08,30.23c3.8,9.6,7.44,19.26,11.48,28.76,2.11,4.96,4.91,9.66,7.4,14.48-.19,.28-.37,.56-.55,.85,0,0,.06,.2,.06,.2,0,0-.17,.14-.17,.14-5.3-9.33-10.14-18.86-13.71-28.92-1.87-5.27-3.74-10.54-5.62-15.81,.37,.1,.74,.2,1.11,.3Z"/>
  <path class="cls-19" d="M117.29,164.94c-6.43-.56-12.07,1.99-17.82,4.07-1.05,.38-2.05,.89-3.07,1.34-.16-.8-.32-1.6-.4-1.97,2.89-.88,5.58-1.7,8.27-2.52,0-.24,0-.47,0-.71-1.31-.13-2.61-.32-3.92-.39-1.37-.07-2.75-.01-4.12-.01-.05-.18-.09-.37-.14-.55,.6-.22,1.21-.64,1.8-.61,2.54,.09,5.08,.33,7.62,.48,1.38,.08,2.77,.16,4.15,.13,2.54-.05,5.07-.18,7.61-.28,0,.34,.02,.68,.03,1.02Z"/>
  <path class="cls-19" d="M202.18,127.85c1.44,3.79,2.6,7.7,4.38,11.34,2.25,4.6,5,8.99,7.54,13.46-.25,.25-.5,.5-.75,.75-4.92-5.94-7.93-12.79-10.58-19.81-.49-1.31-1.05-2.59-1.58-3.88,.01-.45,.02-.91,.03-1.36,.32-.17,.64-.33,.95-.5Z"/>
  <path class="cls-15" d="M175.27,79.16c.38-.03,.77-.07,1.15-.1,.46,0,.93-.01,1.39-.02,.24-.13,.48-.25,.71-.38,.83-.44,1.66-.88,2.49-1.32,.16,.25,.31,.5,.47,.75-2.09,1.3-4.19,2.6-6.28,3.9-1.32,.61-2.64,1.22-3.95,1.83,0,0,.02-.02,.02-.02-1.13,.56-2.24,1.18-3.41,1.67-.64,.27-1.37,.32-2.07,.47-.07-.08-.15-.15-.2-.24-.02-.04,.03-.11,.05-.17,.21-.12,.42-.24,.63-.36,1.83-.9-.12-2.04,.21-3.03,.73,.27,1.46,.54,2.59,.95,1.55-.68,3.64-1.55,5.66-2.55,.34-.17,.35-.91,.52-1.38Z"/>
  <path class="cls-18" d="M143.08,30.23c-.37-.1-.74-.2-1.11-.3-.08-.25-.16-.51-.23-.76,.02-.06,.06-.13,.05-.18-.04-.11-.1-.22-.16-.32-.09-.31-.18-.63-.27-.94-.1-.13-.21-.25-.31-.38-1.41-4.51-2.83-9.01-4.22-13.52-.1-.33-.02-.7-.03-1.05,.6,.35,1.6,.59,1.74,1.06,1.04,3.59,1.88,7.23,2.85,10.83,.36,1.34,.88,2.63,1.32,3.95,.08,.38,.15,.77,.23,1.15,.05,.15,.1,.31,.14,.46Z"/>
  <path class="cls-20" d="M96.39,180.37c4.1,.4,8.19,.8,12.29,1.2,.29,.34,.57,.69,.86,1.03-3.93-.16-7.85-.3-11.78-.51-1.03-.06-2.03-.36-1.37-1.72Z"/>
  <path class="cls-15" d="M270.06,179.62c.2,.3,.4,.6,.6,.89-.66,.2-1.32,.4-1.98,.59-.4,.1-.8,.2-1.19,.3-.57,.16-1.14,.31-1.7,.47-1.1,.14-2.2,.27-3.3,.41-1.96,0-3.92,0-5.87,0-.45-.04-.9-.07-1.36-.11-.32-.05-.64-.11-.95-.16-.18-.05-.36-.1-.54-.15-1.02-.33-2.05-.67-3.07-1-.31-.24-.62-.48-.93-.73,.13-.13,.25-.26,.38-.4,6.66,2.39,13.29,1.82,19.92-.14Z"/>
  <path class="cls-19" d="M286.24,177.86c-.08-.33-.16-.67-.24-1,3.34-1.93,6.69-3.87,10.03-5.8,.02,.46,.04,.91,.05,1.37-2.73,2.71-6.19,4.23-9.85,5.43Z"/>
  <path class="cls-15" d="M125.45,162.98c1.27-.02,2.53-.03,3.8-.05,.29,0,.58,.01,.87,.02,1.02,.22,2.04,.44,3.06,.67,.15,.08,.3,.15,.46,.23,.38,.15,.77,.31,1.15,.46-.22,.26-.44,.53-.65,.79-3.91-1.52-7.88-1.38-11.88-.41,0,0-.01-.01-.01-.01,.02-.33,.03-.66,.05-.99,.63-.14,1.27-.29,1.9-.43,.42-.09,.84-.18,1.26-.27Z"/>
  <path class="cls-15" d="M243.43,83.02c-.31,.3-.61,.6-.92,.89-3.01,0-6.03,0-9.04,0,0-.32-.01-.64-.02-.97l.12-.1s.15,.07,.15,.07c.35-.06,.7-.11,1.05-.17,2.31,.02,4.61,.04,6.92,.06,.22,.02,.44,.05,.66,.07,.36,.04,.72,.08,1.08,.12Z"/>
  <path class="cls-15" d="M229.99,63.31c.24,.26,.49,.53,.73,.79,0,0-.05,.03-.05,.03-.28,.16-.56,.31-.84,.47h.01c-.17,.1-.33,.2-.5,.31,0,0-.11,.07-.11,.07-.12,0-.24,.01-.35,.05-.39,.16-.78,.32-1.17,.48-.35,.18-.69,.36-1.04,.53-.67,.37-1.34,.74-2.01,1.12-.11,0-.2,.06-.26,.15-.16,.09-.32,.19-.48,.28-.15,.07-.29,.13-.44,.2-.29,.16-.58,.33-.87,.49-.33-.09-.66-.19-.98-.28,0-.13,.01-.26,.01-.39l8.33-4.29Z"/>
  <path class="cls-19" d="M200.31,62.87c-2.95,.12-5.89,.23-8.84,.35,2.89-1.32,5.81-2.02,8.84-.35Z"/>
  <path class="cls-19" d="M142.71,165.01c-.31,.4-.61,.79-.92,1.19-.46-.04-.92-.09-1.39-.13-.82-.16-1.65-.29-2.46-.5-.7-.18-1.38-.45-2.07-.67,2.28,.04,4.56,.08,6.84,.11Z"/>
  <path class="cls-20" d="M197.65,113.37c.34,.13,.67,.27,1.01,.4,.02,1.01,.05,2.02,.07,3.02-.16-.38-.33-.75-.65-1.49-.21,.7-.33,1.08-.45,1.47,0-1.13,0-2.27,0-3.4Z"/>
  <path class="cls-16" d="M233.45,82.95c0,.32,.01,.64,.02,.97-.92,.4-1.85,.8-2.77,1.21-.14-.58-.29-1.15-.43-1.73,1.06-.15,2.12-.29,3.18-.44Z"/>
  <path class="cls-20" d="M143.14,182.69c0-.33-.02-.66-.02-.99,.31-.08,.63-.16,.94-.24,.38,.17,.74,.41,1.13,.49,.83,.16,1.67,.24,2.51,.35-1.52,.13-3.04,.26-4.57,.39Z"/>
  <path class="cls-15" d="M165.81,85.94c-.13,.36-.15,.87-.42,1.06-1.01,.71-2.11,1.31-3.18,1.96-.16-.31-.32-.61-.48-.92,1.23-.92,2.03-2.58,4.08-2.09Z"/>
  <path class="cls-15" d="M161.37,74.55c.46,.06,1.18-.02,1.32,.21,.61,.98,1.05,2.06,1.55,3.11-.37,.01-.99,.16-1.08,.02-.54-.82-.95-1.72-1.41-2.59-.13-.25-.25-.5-.38-.74Z"/>
  <path class="cls-19" d="M157.77,94.58c.13,.69,.26,1.39,.38,2.08-.33,.18-.67,.36-1,.54-.02-1.26-.03-2.52-.05-3.78,.22,.39,.44,.78,.67,1.16Z"/>
  <path class="cls-15" d="M181.95,100.55c.27-.23,.69-.69,.77-.64,.92,.55,1.79,1.18,2.68,1.79-.04,.39-.08,.78-.12,1.18-1.11-.77-2.22-1.55-3.33-2.32Z"/>
  <path class="cls-20" d="M212.64,82.27c-.32-.47-.64-.94-.97-1.42,1.36,.16,2.71,.32,4.07,.47-.77,.3-1.54,.6-2.3,.9-.27,.01-.53,.03-.8,.04Z"/>
  <path class="cls-20" d="M208.97,183.47c1.19-.02,2.38-.04,3.57-.06-1.19,.02-2.38,.04-3.57,.06Z"/>
  <path class="cls-20" d="M173.53,182.48c1.35,.25,2.7,.5,4.05,.76-1.35-.25-2.7-.5-4.05-.76Z"/>
  <path class="cls-19" d="M120.44,165.61c-.61-.14-1.22-.28-1.83-.42-.13-.38-.26-.76-.39-1.14,.75,.07,1.5,.14,2.25,.21,0,.45-.02,.9-.02,1.35Z"/>
  <path class="cls-15" d="M181.02,77.34c.43-.26,.85-.51,1.28-.77,.56,0,1.12-.02,1.68-.02,.1,.09,.2,.19,.3,.29-.93,.42-1.86,.84-2.78,1.26-.16-.25-.31-.5-.47-.75Z"/>
  <path class="cls-20" d="M244.77,181.46c.9-.2,1.81-.39,2.71-.59-.9,.2-1.81,.39-2.71,.59Z"/>
  <path class="cls-20" d="M166.75,183.95c1.01-.22,2.03-.44,3.05-.66-1.01,.22-2.03,.44-3.05,.66Z"/>
  <path class="cls-20" d="M199.88,163.08c.02,.33,.05,.66,.07,.98-.08,.22-.16,.45-.23,.67-.58-.3-1.16-.6-1.73-.9,.63-.25,1.26-.5,1.89-.75Z"/>
  <path class="cls-20" d="M181.3,183.85c.74,.03,1.48,.06,2.23,.09-.74-.03-1.48-.06-2.23-.09Z"/>
  <path class="cls-19" d="M211.24,79.55c-.33-.55-.65-1.1-.98-1.65,.33,.55,.65,1.1,.98,1.65Z"/>
  <path class="cls-20" d="M228.36,84.1c-1.03-.35-2.06-.69-3.09-1.04,1.03,.35,2.06,.69,3.09,1.04Z"/>
  <path class="cls-15" d="M118.22,164.04c.13,.38,.26,.76,.39,1.14-.44-.08-.88-.16-1.32-.25,0-.34-.02-.68-.03-1.02,.32,.04,.64,.09,.96,.13Z"/>
  <path class="cls-20" d="M262.49,182.29c1.1-.14,2.2-.27,3.3-.41-1.1,.14-2.2,.27-3.3,.41Z"/>
  <path class="cls-20" d="M111.81,182.35c.98-.15,1.97-.3,2.95-.45-.98,.15-1.97,.3-2.95,.45Z"/>
  <path class="cls-15" d="M214.3,153.2c.4,.73,.79,1.46,1.19,2.19-.17,.11-.33,.21-.49,.32-.14-.14-.29-.28-.44-.42-.2-.32-.4-.63-.61-.95,0-.25-.01-.5-.02-.75,.12-.13,.24-.26,.36-.39Z"/>
  <path class="cls-9" d="M195.77,163.91c-.59,0-1.18,0-1.78,0,.59,0,1.18,0,1.78,0Z"/>
  <path class="cls-20" d="M139.96,183.15c.69-.12,1.39-.24,2.08-.36-.69,.12-1.39,.24-2.08,.36Z"/>
  <path class="cls-20" d="M187.18,183.93c.58-.04,1.17-.08,1.75-.12-.58,.04-1.17,.08-1.75,.12Z"/>
  <path class="cls-20" d="M240.26,182.25c.95-.13,1.89-.25,2.84-.38-.95,.13-1.89,.25-2.84,.38Z"/>
  <path class="cls-20" d="M231.49,181.89c.96,.13,1.91,.25,2.87,.38-.96-.13-1.91-.25-2.87-.38Z"/>
  <path class="cls-20" d="M249.76,180.16c.31,.24,.62,.48,.93,.73-.76-.1-1.52-.2-2.28-.3,.45-.14,.91-.28,1.36-.43Z"/>
  <path class="cls-20" d="M154.19,184.12c.71,.09,1.41,.18,2.12,.27-.71-.09-1.41-.18-2.12-.27Z"/>
  <path class="cls-19" d="M216.38,157.88c-.04,.85-.08,1.71-.12,2.56,.04-.85,.08-1.71,.12-2.56Z"/>
  <path class="cls-9" d="M220.53,182.18c.88-.23,1.76-.47,2.64-.7-.88,.23-1.76,.47-2.64,.7Z"/>
  <path class="cls-15" d="M157.77,94.58c-.22-.39-.44-.78-.67-1.16,.41-.21,.81-.42,1.22-.63-.18,.6-.37,1.19-.55,1.79Z"/>
  <path class="cls-19" d="M183.97,76.55c-.56,0-1.12,.02-1.68,.02,.57-.23,1.14-.45,1.71-.68-.01,.22-.02,.44-.03,.66Z"/>
  <path class="cls-19" d="M209.67,76.54c-.61-.58-1.29-1.15-.01-1.74,0,.58,0,1.16,.01,1.74Z"/>
  <path class="cls-19" d="M185.46,73.59c-.13,.57-.25,1.13-.38,1.7,.13-.57,.25-1.13,.38-1.7Z"/>
  <path class="cls-20" d="M203.78,182.76c.65,.16,1.29,.32,1.94,.48-.65-.16-1.29-.32-1.94-.48Z"/>
  <path class="cls-20" d="M214.92,183.23c.68-.14,1.36-.27,2.04-.41-.68,.14-1.36,.27-2.04,.41Z"/>
  <path class="cls-20" d="M125.82,182.72c.63,.12,1.26,.25,1.89,.37-.63-.12-1.26-.25-1.89-.37Z"/>
  <path class="cls-20" d="M255.26,182.19c.45,.04,.9,.07,1.36,.11-.45-.04-.9-.07-1.36-.11Z"/>
  <path class="cls-19" d="M216.67,163.86c-.2,.64,.55,2.21-1.33,1.21,.3-.41,.6-.82,.89-1.23,.14,0,.28,0,.42,0,0,0,.01,.01,.01,.01Z"/>
  <path class="cls-15" d="M165.39,78.7c.25,.44,.49,.88,.74,1.32-.26,0-.52,0-.78,0-.3,0-.6-.02-.9-.03-.09-.69-.19-1.37-.28-2.05,.41,.26,.81,.51,1.22,.77Z"/>
  <path class="cls-19" d="M122.29,163.69c-.02,.33-.03,.66-.05,.99-.33-.22-.66-.45-.99-.67,.35-.11,.69-.22,1.04-.32Z"/>
  <path class="cls-15" d="M166.13,80.02c.2,.51,.39,1.02,.59,1.53-.3-.03-.6-.05-.9-.08-.14-.22-.29-.44-.43-.66-.01-.26-.02-.53-.04-.79,.26,0,.52,0,.78,0Z"/>
  <path class="cls-20" d="M163.12,184.39c.55-.09,1.1-.19,1.65-.28-.55,.1-1.1,.19-1.65,.28Z"/>
  <path class="cls-20" d="M221.07,81.95c-.56-.09-1.13-.18-1.69-.27,.56,.09,1.13,.18,1.69,.27Z"/>
  <path class="cls-19" d="M191.4,105.77c.56,.12,1.12,.23,1.68,.35-.56-.12-1.12-.23-1.68-.35Z"/>
  <path class="cls-20" d="M197.82,110.35c.06,.44,.12,.89,.18,1.33-.06-.44-.12-.89-.18-1.33Z"/>
  <path class="cls-19" d="M185.29,102.87c.04-.39,.08-.78,.12-1.18,.31,.22,.63,.45,.94,.67-.09,.35-.18,.7-.27,1.05-.26-.18-.53-.36-.79-.54Z"/>
  <path class="cls-20" d="M200.57,181.91c.53,.14,1.07,.28,1.6,.42-.53-.14-1.07-.28-1.6-.42Z"/>
  <path class="cls-20" d="M201.23,128.35c-.01,.45-.02,.91-.03,1.36-.17-.6-.33-1.2-.5-1.79,.18,.14,.35,.29,.53,.43Z"/>
  <path class="cls-19" d="M168.09,98c.48-.15,.96-.3,1.44-.45-.48,.15-.96,.3-1.44,.45Z"/>
  <path class="cls-20" d="M223.32,82.39c-.41-.1-.82-.2-1.23-.31,.41,.1,.82,.2,1.23,.31Z"/>
  <path class="cls-15" d="M180.33,97.84c.73,.57,1.97,1.04,.47,2.07-.16-.21-.31-.41-.47-.62,0-.48,0-.96,0-1.45Z"/>
  <path class="cls-19" d="M125.45,162.98c-.42,.09-.84,.18-1.26,.27,.42-.09,.84-.18,1.26-.27Z"/>
  <path class="cls-19" d="M186.17,69.91c-.13,.37-.26,.73-.39,1.1,.13-.37,.26-.73,.39-1.1Z"/>
  <path class="cls-19" d="M210.3,74.43c.38-.12,.76-.23,1.15-.35-.38,.12-.76,.23-1.15,.35Z"/>
  <path class="cls-19" d="M165.39,78.7c-.41-.26-.81-.51-1.22-.77,0,0,.05-.08,.05-.08,.39,.28,.78,.56,1.17,.84Z"/>
  <path class="cls-19" d="M187.89,104.44c.37,.19,.73,.39,1.1,.58-.37-.19-.73-.39-1.1-.58Z"/>
  <path class="cls-19" d="M165.35,80.01c.01,.26,.02,.53,.04,.79-.31-.27-.62-.55-.93-.82,.3,0,.6,.02,.9,.03Z"/>
  <path class="cls-15" d="M161.95,89.11c-1.26,1.44-1.29,1.45-1.79,.68,.17-.29,.34-.58,.51-.86,.43,.06,.85,.12,1.28,.19Z"/>
  <path class="cls-20" d="M229.83,181.42c.02-.34,.05-.69,.07-1.03,.3,.1,.6,.19,.9,.29-.07,.33-.15,.66-.22,1-.25-.08-.51-.17-.76-.25Z"/>
  <path class="cls-19" d="M161.95,89.11c-.43-.06-.85-.12-1.28-.19,.35-.3,.7-.59,1.06-.89,.16,.31,.32,.61,.48,.92-.03,.14-.11,.19-.26,.16Z"/>
  <path class="cls-20" d="M267.49,181.41c.4-.1,.8-.2,1.19-.3-.4,.1-.8,.2-1.19,.3Z"/>
  <path class="cls-20" d="M197.58,182.38c.42-.13,.83-.25,1.25-.38-.42,.13-.83,.25-1.25,.38Z"/>
  <path class="cls-20" d="M178.58,183.4c.29,.05,.58,.1,.87,.14-.29-.05-.58-.1-.87-.14Z"/>
  <path class="cls-20" d="M190.79,183.56c.29-.04,.59-.08,.88-.12-.29,.04-.59,.08-.88,.12Z"/>
  <path class="cls-19" d="M180.33,97.84c0,.48,0,.96,0,1.45-.19-.19-.38-.39-.57-.58,.12-.36,.23-.72,.35-1.07,.09,.05,.17,.12,.22,.21Z"/>
  <path class="cls-19" d="M226.69,66.03c.35-.18,.69-.36,1.04-.53-.35,.18-.69,.36-1.04,.53Z"/>
  <path class="cls-19" d="M158.55,91.09c.04,.2,.09,.4,.13,.6,.02,.28,.04,.57,.07,.85l-.08,.1s-.13-.03-.13-.03c-1.71-.53-.14-1.01,.02-1.52Z"/>
  <path class="cls-20" d="M196.19,107.37c.16,.31,.31,.62,.47,.93l-.47-.93Z"/>
  <path class="cls-19" d="M298.47,170.16c.27-.24,.55-.47,.82-.71-.27,.24-.55,.47-.82,.71Z"/>
  <path class="cls-20" d="M197.1,109.08c.17,.27,.35,.53,.52,.8-.17-.27-.35-.53-.52-.8Z"/>
  <path class="cls-19" d="M216.24,71.48c.29-.16,.58-.32,.87-.48-.29,.16-.58,.32-.87,.48Z"/>
  <path class="cls-20" d="M215.37,165.08c-.18-.16-.37-.32-.55-.48,.18,.16,.37,.32,.55,.48Z"/>
  <path class="cls-9" d="M197.6,163.94c-.3,.03-.59,.05-.89,.08,.3-.03,.59-.05,.89-.08Z"/>
  <path class="cls-20" d="M213.46,163.86c-.29-.13-.58-.27-.87-.4,.29,.13,.58,.27,.87,.4Z"/>
  <path class="cls-20" d="M198.2,119.79c.09,.31,.18,.61,.28,.92-.09-.31-.18-.61-.28-.92Z"/>
  <path class="cls-19" d="M202.15,63.72c-.3-.11-.6-.22-.9-.32,.3,.11,.6,.22,.9,.32Z"/>
  <path class="cls-16" d="M234.77,82.75c-.35,.06-.7,.11-1.05,.17,.35-.06,.7-.11,1.05-.17Z"/>
  <path class="cls-20" d="M157.51,184.46c.44,0,.88,.01,1.32,.02-.44,0-.88-.01-1.32-.02Z"/>
  <path class="cls-15" d="M213.36,153.4c.25-.25,.5-.5,.75-.75,.06,.18,.12,.37,.19,.55-.12,.13-.24,.26-.36,.39-.15,0-.31,0-.46,0,0,0-.12-.06-.12-.06,0,0,0-.13,0-.13Z"/>
  <path class="cls-19" d="M213.48,153.59c.15,0,.31,0,.46,0,0,.25,.01,.5,.02,.75-.16-.25-.32-.5-.47-.76Z"/>
  <path class="cls-19" d="M229.83,64.6c.28-.16,.56-.31,.84-.47-.28,.16-.56,.31-.84,.47Z"/>
  <path class="cls-19" d="M188.97,64.98c-.14,.15-.29,.3-.43,.45,.14-.15,.29-.3,.43-.45Z"/>
  <path class="cls-19" d="M214.56,155.29c.15,.14,.29,.28,.44,.42-.15-.14-.29-.28-.44-.42Z"/>
  <path class="cls-19" d="M229.35,64.9c.17-.1,.33-.21,.5-.31-.17,.1-.33,.21-.5,.31Z"/>
  <path class="cls-19" d="M228.89,65.02c.11-.04,.23-.06,.35-.05-.12,.02-.23,.04-.35,.05Z"/>
  <path class="cls-19" d="M170.41,97.29c.14-.06,.28-.12,.42-.18-.14,.06-.28,.12-.42,.18Z"/>
  <path class="cls-19" d="M203.12,64.55c-.17-.14-.34-.28-.52-.42,.17,.14,.34,.28,.52,.42Z"/>
  <path class="cls-19" d="M202.62,64.14c-.16-.14-.32-.28-.48-.42,.16,.14,.32,.28,.48,.42Z"/>
  <path class="cls-19" d="M130.12,162.95c-.29,0-.58-.01-.87-.02,.29,0,.58,.01,.87,.02Z"/>
  <path class="cls-19" d="M224.42,67.3c.06-.09,.14-.14,.26-.15,0,0-.08,.15-.08,.15h-.18Z"/>
  <path class="cls-20" d="M212.23,163.38c-.18-.05-.35-.09-.53-.14,.18,.05,.35,.09,.53,.14Z"/>
  <path class="cls-19" d="M133.64,163.85c-.15-.08-.3-.15-.46-.23,.15,.08,.3,.15,.46,.23Z"/>
  <path class="cls-19" d="M223.5,67.78c.15-.07,.29-.13,.44-.2-.15,.07-.29,.13-.44,.2Z"/>
  <path class="cls-19" d="M141.62,28.67c.06,.11,.12,.21,.16,.32,.02,.05-.03,.12-.05,.18-.07-.11-.15-.21-.19-.33-.02-.04,.05-.12,.08-.17Z"/>
  <path class="cls-19" d="M141.04,27.35c.1,.13,.21,.25,.31,.38-.1-.13-.21-.25-.31-.38Z"/>
  <path class="cls-19" d="M219.4,69.74c.15-.03,.29-.07,.44-.1-.15,.03-.29,.07-.44,.1Z"/>
  <path class="cls-19" d="M144.49,164.42c-.2,.08-.41,.15-.61,.23,.2-.08,.41-.15,.61-.23Z"/>
  <path class="cls-19" d="M217.6,70.75c.06-.11,.15-.17,.28-.18,0,0-.08,.17-.08,.17h-.2Z"/>
  <path class="cls-19" d="M215.77,71.71c.17-.08,.33-.16,.5-.25-.17,.08-.33,.16-.5,.25Z"/>
  <path class="cls-19" d="M161.37,74.55c.13,.25,.25,.5,.38,.74-.16-.22-.32-.44-.48-.66,0,0,.1-.08,.1-.08Z"/>
  <path class="cls-20" d="M200.5,126.78c.06,.33,.12,.65,.17,.98-.06-.32-.12-.65-.17-.98Z"/>
  <path class="cls-19" d="M178.53,78.66c-.24,.13-.48,.25-.71,.38,.24-.13,.48-.25,.71-.38Z"/>
  <path class="cls-20" d="M199.96,125.34c.09,.2,.18,.41,.28,.61-.09-.2-.18-.41-.28-.61Z"/>
  <path class="cls-19" d="M165.8,81.47c.23,.22,.46,.44,.69,.66-.23-.22-.46-.44-.69-.66Z"/>
  <path class="cls-20" d="M225.23,83c-.13-.08-.26-.15-.38-.23,.13,.08,.26,.15,.38,.23Z"/>
  <path class="cls-20" d="M199.1,122.35c.09,.18,.17,.36,.26,.55-.09-.18-.17-.36-.26-.55Z"/>
  <path class="cls-20" d="M253.76,181.88c.18,.05,.36,.1,.54,.15-.18-.05-.36-.1-.54-.15Z"/>
  <path class="cls-20" d="M195.36,182.86c.17-.05,.34-.09,.52-.14-.17,.05-.34,.09-.52,.14Z"/>
  <path class="cls-20" d="M150.17,183.21c.22,.06,.45,.12,.67,.18-.22-.06-.45-.12-.67-.18Z"/>
  <path class="cls-16" d="M242.35,82.89c-.22-.02-.44-.05-.66-.07,.22,.02,.44,.05,.66,.07Z"/>
  <path class="cls-19" d="M166.29,85.18c-.21,.12-.42,.24-.63,.36,.21-.12,.42-.24,.63-.36Z"/>
  <path class="cls-19" d="M187.04,103.94c.19,.13,.38,.25,.57,.38-.19-.13-.38-.25-.57-.38Z"/>
  <path class="cls-19" d="M159.46,90.04c.3,.17,.61,.34,.91,.52-.17,.19-.35,.37-.52,.56-.2-.16-.4-.31-.61-.47,.07-.2,.14-.4,.21-.6Z"/>
  <path class="cls-19" d="M159.23,90.66c-.23,.15-.46,.3-.69,.45,.23-.15,.46-.3,.69-.45Z"/>
  <path class="cls-19" d="M181.01,100.1c.31,.15,.63,.3,.94,.46-.31-.15-.63-.3-.94-.46Z"/>
  <path class="cls-19" d="M158.13,97.96c.13,.05,.27,.11,.4,.16-.13-.05-.27-.11-.4-.16Z"/>
  <path class="cls-2" d="M290.13,150.37c-.93,1.58-2.02,3.1-2.74,4.76-.89,2.05-1.99,2.72-4.38,2.71-2.29,0-4.59,.32-6.88,.5-2.68,.38-5,1.38-6.75,3.4-.18,.27-.36,.53-.54,.8-1.58-.32-3.15-.72-4.75-.93-.57-.07-1.21,.31-1.82,.48,0,0,.04,.05,.04,.05-.22-.37-.43-.73-.65-1.1-.48-.06-.95-.12-1.43-.19-1.03,.02-2.07,.03-3.1,.05-.18,.04-.36,.08-.54,.12l-1.35,.37c-.46,.01-.91,.02-1.37,.04-.14,.1-.27,.2-.41,.29,0,0-.02,.03-.02,.03-.31,0-.63-.02-.94-.03,0-.72,.02-1.43,.03-2.15,.44-.29,.89-.57,1.33-.86,.03-.27,.06-.53,.1-.8l.02-.03c.15-.42,.31-.84,.46-1.26h.11c.4-.55,.8-1.1,1.2-1.65,.29-.32,.57-.64,.86-.96,.17-.54,.33-1.09,.5-1.63,.13-.45,.26-.91,.38-1.36,.12-.11,.14-.24,.06-.37,.08-.29,.15-.58,.23-.87,.1-.47,.2-.94,.3-1.41,0,0,.11-.13,.11-.13l-.09-.15c.77-.79,1.53-1.57,2.3-2.36,0,0,.04-.04,.04-.04,.14,0,.22-.06,.25-.18,1.83-2.16,3.66-4.31,5.49-6.47,.45-2.43,.89-4.85,1.34-7.28,.4-.83,.89-1.62,1.17-2.48,.87-2.65,1.66-5.31,2.49-7.97h.07c1.3-.18,2.6-.35,3.9-.53,.95-.13,1.91-.27,2.86-.41,.15-.04,.3-.08,.45-.12,0,0-.01,0-.01,0,1.45-.54,2.89-1.08,4.34-1.62,2.21-.48,3.48,.43,4.34,2.33,1.74,3.86,4.26,7.09,8.63,8.64,0,0,.08,.12,.08,.12l.12-.07c.26,.13,.52,.26,.79,.39-.21,.66-.44,1.32-.64,1.98-1.14,3.77-1.48,7.53,.19,11.27-.06,.45-.12,.91-.17,1.36-.13,.27-.26,.53-.38,.8-1,.91-1.99,1.83-2.99,2.73-.57,.51-1.16,.99-1.74,1.48,0,0,.05,.06,.05,.06-.15,.28-.31,.55-.46,.83h0c-.15-.07-.3-.12-.45-.18Z"/>
  <path class="cls-7" d="M257.46,134.85c.02,1.11,.04,2.22,.07,3.33-.03,2-.06,4-.09,6-.08,.08-.08,.16,0,.24-.07,.33-.13,.65-.2,.98-.89,3.06-1.81,6.12-2.65,9.2-.17,.64-.04,1.35-.05,2.02,0,0-.11,0-.11,0-.15,.42-.31,.84-.46,1.26,0,0-.02,.03-.02,.03-.26,.17-.51,.34-.77,.5,0,0,0,.1,0,.1-.1-.05-.19-.03-.25,.05-.24,.34-.49,.67-.73,1.01-.45,.34-.89,.69-1.44,1.11-1-1.64-1.5-2.95-1.14-4.96,.64-3.58,.55-7.33,.35-10.99-.24-4.28-1.09-8.53-1.37-12.81-.17-2.52,.25-5.07,.4-7.6,.12-.09,.25-.19,.37-.28,.15-.43,.3-.85,.46-1.28,.08-.17,.16-.33,.24-.5-.14-.07-.28-.13-.42-.2,0,0,.11,.08,.11,.08,0-.38,.01-.75,.02-1.13l.02-.02c.25,0,.49,0,.74-.01,0,0,0-.02,0-.02,.95-1.1,1.9-2.21,3.06-3.55,.78,4.04,1.48,7.68,2.18,11.32,.28,.46,.57,.91,.85,1.37,.18,1.12,.37,2.24,.55,3.36,.11,.45,.22,.91,.32,1.36Z"/>
  <path class="cls-10" d="M199.47,67.59c-4.09,2.17-5.34,5.22-3.21,9.08,1.52,2.74,3.69,5.15,5.44,7.78,1.09,1.64,1.95,3.43,3.12,5.52-3.19,.25-5.72,.02-7.83-1.44-3.46-2.39-6.8-4.96-8.81-8.66-2.6-4.79-2.02-9.41,1.29-13.65,3.02-3.86,9.08-3.97,13.11-.41-.12,.17-.24,.33-.36,.5,0,0-.06,.03-.06,.03-.89,.41-1.79,.83-2.68,1.24Z"/>
  <path class="cls-10" d="M143.02,173.86c7.03-2.38,13.73-4.82,20.56-6.91,4.13-1.27,11.01-.11,13.62,2.76-2.97,1.43-5.8,2.99-8.78,4.19-5.63,2.25-11.37,4.25-17.66,3.6-2.82-.29-5.59-.87-7.74-3.64Z"/>
  <path class="cls-7" d="M224.26,96.41c8.83-5.7,18.06-7.71,28.07-4.55,2.8,.88,5.83,1.87,7.41,5.06-7.73,.81-15.15,1.84-22.61,2.28-4.38,.26-8.76-.65-12.87-2.78Z"/>
  <path class="cls-10" d="M140.4,166.06c.46,.04,.92,.09,1.39,.13,3.1,.46,6.28,.73,8.67,3.36-.45,.31-.8,.66-1.24,.82-7.12,2.66-14.17,5.53-21.91,6.22-4.27,.38-8.38,.05-12.02-3.58,8.69-2.27,16.5-5.81,25.1-6.96Z"/>
  <path class="cls-10" d="M169.48,174.59c7.17-3.11,13.91-6.25,20.84-8.96,4.68-1.83,10.75,.13,13.08,3.66-8.69,4.41-27.69,10.29-33.92,5.3Z"/>
  <path class="cls-7" d="M280.65,108.55c-1.81-.22-3.63-.45-5.44-.67-1.97-.26-2.02-.24-2.02,.81-.04,.14-.13,.18-.27,.14-.45-.47-.82-1.22-1.37-1.36-2.54-.64-5.23-.85-7.66-1.72-3.75-1.34-7.36-3.05-10.98-4.7-.75-.34-1.29-1.07-2.37-2.01,2.6-.25,4.59-.62,6.57-.6,7.08,.06,14.15,.3,20.81,2.97,3.7,1.48,6.84,4.66,7.4,7.53-1.18,0-2.34,0-3.49,0-.4-.13-.8-.26-1.2-.39Z"/>
  <path class="cls-7" d="M236.89,141.47c-1.09-1.35-2.06-2.59-3.07-3.8-1.67-1.99-3.3-4.03-5.08-5.93-4.22-4.52-6.6-13.77-3.07-19.1,3.81,5.34,7.51,10.5,11.17,15.68,.82,1.16,1.39,2.47,2.22,3.62,1.85,2.58,.79,4.96-.48,7.31-.39,.72-1,1.33-1.67,2.21Z"/>
  <path class="cls-3" d="M292.88,164.72c.65-2.71,1.29-5.42,1.94-8.13,.02-.45,.04-.9,.06-1.34,.11-.1,.12-.21,.04-.34,.04-.3,.08-.61,.12-.91,.02-.14,.05-.27,.07-.41,.1-.12,.13-.25,.07-.39,.09-.43,.17-.85,.26-1.28,.07-.57,.13-1.14,.2-1.72,.13-.44,.26-.88,.39-1.31,.1-.1,.13-.22,.09-.36,.18-.73,.35-1.46,.53-2.18,1.38-2.93,2.6-5.97,6.27-7.63,.41,.69,.82,1.37,1.22,2.05-.11,.26-.33,.52-.31,.77,.31,3.29,.64,6.57,1,9.85,.02,.22,.37,.42,.57,.62-.08,.54-.15,1.07-.23,1.61-.25,.71-.5,1.41-.75,2.12-1.58,5.11-5.07,8.26-10.67,9.25-.11-.08-.22-.08-.32,0-.18-.09-.36-.19-.54-.28Z"/>
  <path class="cls-7" d="M195.28,89.31c6.37,3.73,12.99,1.28,19.57,.84,3.34-.22,6.74,.07,10.08,.39,1.14,.11,2.19,1.03,3.64,1.76-3.33,2.22-6.57,3.36-10.01,4.16-5.5,1.28-11.07,1.23-16.64,.79-3.48-.27-7.74-3.75-6.64-7.94Z"/>
  <path class="cls-7" d="M198.73,116.79c-.02-1.01-.05-2.02-.07-3.02,.43-.1,1.09-.43,1.27-.28,1.93,1.67,3.71,3.5,5.69,5.12,4.72,3.85,9.54,7.59,14.27,11.43,.55,.45,1.01,1.23,1.1,1.91,.23,1.61,.22,3.25,.34,5.56-2.44-1.17-4.51-2.15-6.57-3.14-5.46-2.64-9.96-6.4-13.47-11.07-1.37-1.83-1.74-4.31-2.57-6.5Z"/>
  <path class="cls-7" d="M235.85,123.76c-3.1-4.04-6.21-7.69-8.82-11.63-2.67-4.05-2.6-8.63-1.73-13.46,2.16,.5,4.18,.93,6.17,1.47,.42,.11,.84,.6,1.02,1.01,1.64,3.73,3.55,7.39,4.73,11.25,1.13,3.71,.94,7.57-1.37,11.35Z"/>
  <path class="cls-10" d="M229.2,168.83c-6.44,3.52-12.68,7.28-20.22,8.16-4.18,.49-7.91-.4-11.1-3.82,2.1-.81,3.98-1.6,5.9-2.26,3.58-1.24,7.13-2.67,10.81-3.55,4.92-1.17,9.82-.69,14.6,1.47Z"/>
  <path class="cls-10" d="M273.84,164.71c.36,.22,.72,.45,1.08,.67-1.45,1.6-2.76,3.2-4.24,4.64-4.24,4.13-9.38,5.9-15.47,5.04-.44-.06-.89-.03-1.34-.04-1.96-.93-3.92-1.86-6.38-3.03,6.22-3.87,12.07-6.7,18.69-7.94,.2-.04,.41-.08,.61-.11,1.71,.13,3.41,.27,5.12,.4,.33,.08,.66,.16,.99,.24,.31,.05,.62,.1,.93,.14Z"/>
  <path class="cls-7" d="M247.46,133.15c.15,1.42,.31,2.84,.46,4.26-.12,.13-.1,.24,.06,.34,.5,2.07-.68,3.46-1.78,5.16-3.86,5.95-7.13,12.18-7.62,19.35-.01,.2-.15,.39-.27,.68-2.39,.15-2.96-1.55-3.07-3.1-.41-5.5,.32-10.84,3-15.87,2.72-5.12,5.26-10.32,7.88-15.49,.17,.84,.3,1.69,.53,2.52,.21,.74,.53,1.44,.81,2.16Z"/>
  <path class="cls-3" d="M278.03,109.22c4.03,.92,8.18,1.51,12.05,2.84,4.13,1.42,8.05,3.45,11.95,5.4,3.13,1.56,4.72,5.14,3.81,7.76-3.8-1.44-7.64-2.82-11.41-4.34-3.77-1.52-7.56-3.01-11.18-4.81-2.64-1.31-4.11-3.78-5.64-6.07,.14-.26,.28-.52,.41-.79Z"/>
  <path class="cls-7" d="M211.69,121.56c-4.7-3.04-8.46-6.38-11.58-10.19-3.76-4.58-5.47-9.97-5.14-16.31,.91,.71,1.58,1.11,2.08,1.65,3.66,3.92,7.51,7.72,10.85,11.87,2.39,2.96,4.04,6.44,3.9,10.37-.02,.68-.06,1.36-.12,2.6Z"/>
  <path class="cls-7" d="M258.08,130.77c-.27-1.1-.54-2.2-.82-3.29-1.75-6.63-3.21-13.28-1.57-20.13,.21-.87,1.15-2.38,1.29-2.33,1.37,.44,3.46,.89,3.8,1.83,2.37,6.54,4.74,13.2,.74,19.97-.77,1.3-1.76,2.48-2.64,3.71-.26,.08-.53,.16-.79,.24Z"/>
  <path class="cls-10" d="M223.72,173.3c7.74-3.8,14.6-8.76,23.66-8.02,1.91,.16,3.79,.72,5.73,1.44-6.15,4.04-12.47,7.54-19.95,8.58-3.17,.44-6.32,.37-9.44-2.01Z"/>
  <path class="cls-7" d="M263.34,91.97c.22-.31,.48-.9,.64-.88,2.51,.37,5.04,.72,7.5,1.29,5.25,1.21,10.1,3.41,13.94,6.93,2.47,2.26,4.2,5.27,6.04,8.07,.77,1.18,.99,2.68,1.45,4.04-1.51-.44-3.05-.82-4.52-1.35-.56-.2-1.27-.7-1.39-1.17-1.57-6.15-6.72-8.86-12.35-9.86-4.85-.85-8.04-2.97-10.66-6.5-.17-.22-.43-.38-.65-.58Z"/>
  <path class="cls-7" d="M230.7,85.12c.92-.4,1.85-.8,2.77-1.21,3.01,0,6.03,0,9.04,0,4.66,.83,9.35,1.61,13.44,4.06,2.01,1.2,3.85,2.65,5.76,3.99,1.43,1.68,2.86,3.35,4.55,5.33-2.35-.01-4.25,.57-5.69-1.72-2.2-3.5-6.14-4.9-10.05-5.57-3.88-.66-7.92-.6-11.89-.53-1.71,.03-2.94-.03-4.13-1.38-1.02-1.17-2.51-1.99-3.79-2.96Z"/>
  <path class="cls-3" d="M307.07,144.73c-.96-4.57-3.6-7.58-6.27-10.69-2.61-3.03-3.78-6.82-4.77-10.76,6.78,1.31,11.53,4.19,13.44,9.5,1.44,3.99,1.49,8.07-2.4,11.96Z"/>
  <path class="cls-3" d="M306.67,152.52c2.41-1.13,4.82-2.26,7.38-3.46,.46,3.38-.66,6.52-2.69,9.23-1.75,2.33-3.93,4.46-6.22,6.35-1.82,1.5-4.1,2.49-6.18,3.71-.12,.15-.23,.31-.35,.47-.44,.04-.88,.08-1.32,.12-2.61,.27-5.23,.54-7.84,.81-.1-.24-.2-.47-.3-.71,.67-.96,1.34-1.91,2.01-2.87,1.19-.06,2.37-.13,3.56-.19,.64-.12,1.29-.24,1.93-.36,4.75-1.63,7.73-4.76,9-9.36,.1-.31,.2-.62,.31-.93,.23-.93,.47-1.86,.7-2.79Z"/>
  <path class="cls-10" d="M197.52,181.08c-11.61,3.47-25.97,1.8-30.02-5.31,1.9,.63,3.62,1.43,5.44,1.76,5.62,1.02,11.08-.08,16.42-1.66,1.92-.57,3.31-.81,4.53,1.17,.93,1.5,2.4,2.71,3.62,4.04Z"/>
  <path class="cls-10" d="M270.06,179.62c-6.62,1.96-13.26,2.54-19.92,.14-2.3-1.8-4.6-3.61-6.9-5.41,1.77-2.07,3.15-1.88,4.93-.75,1.71,1.08,3.73,1.7,5.61,2.53,4.24,1.05,8.29,.32,12.29-1.11,.57-.2,1.43-.16,1.97,.1,1.76,.86,3.44,1.88,5.37,2.95-1.15,.53-2.25,1.04-3.35,1.55Z"/>
  <path class="cls-7" d="M207.61,105.81c1.11-1.53,2.15-2.97,3.19-4.41,5.57,2.79,9.61,17.18,6.87,25.07-2.17-2.12-5.31-3.17-4.67-7.05,.74-4.51-1.04-8.49-4.11-11.96-.47-.53-.88-1.12-1.28-1.65Z"/>
  <path class="cls-10" d="M144.06,181.47c-.31,.08-.63,.16-.94,.24-6.16,.6-12.34,1.08-18.45-.33-4.89-1.13-9.42-2.89-12.49-6.9,.06-.23,.12-.46,.18-.68,.76,.16,1.83,.08,2.24,.53,2.61,2.88,6.16,3.76,9.79,3.58,4.17-.21,8.29-1.24,12.46-1.79,.85-.11,1.99,.12,2.65,.61,1.53,1.13,2.87,2.5,4.24,3.81,.22,.21,.22,.62,.32,.93Z"/>
  <path class="cls-10" d="M160.17,183.43c-.15,0-.29,0-.44,.01-.36-.01-.73-.02-1.09-.04-2.61-.38-5.23-.76-7.84-1.14-.52-.1-1.03-.21-1.55-.31-2.49-1.59-5.01-3.13-7.45-4.78-.63-.42-1.02-1.14-1.29-2.21,.55,.09,1.29-.01,1.63,.29,5.08,4.53,11.27,4.5,17.2,2.82,4.35-1.23,7.76-1.78,10.59,2.16,.19,.27,.63,.38,.93,.58,.23,.16,.44,.35,1.07,.87-2.13,.47-3.9,.86-5.66,1.25-.19,.03-.38,.07-.56,.11-1.64,.12-3.27,.24-4.91,.36-.21,0-.41,.01-.62,.02Z"/>
  <path class="cls-3" d="M294.41,111.17c-.78-2.37-1.57-4.74-2.41-7.26,.57,.11,1.51,.14,2.32,.47,7.54,3.06,12.8,8.05,14.85,15.73,.09,.34,.3,.65,.45,.97-.18,2.27-.36,4.54-.54,6.81-.35,.05-.71,.09-1.06,.14-.29-.69-.9-1.42-.81-2.06,.63-4.71-1.32-8.28-5.79-10.41-1.95-.93-3.86-1.93-5.73-2.99-.53-.3-.87-.92-1.29-1.39Z"/>
  <path class="cls-7" d="M226.99,154.67c-1.01-2.79-2.54-5.52-2.91-8.38-.82-6.47-1.08-13-1.52-19.51-.05-.67,.23-1.36,.25-1.49,2.06,2.84,4.29,5.88,6.46,8.95,.26,.37,.26,.95,.25,1.43-.02,4.34-.06,8.68-.09,13.02,.07,.33,.13,.66,.2,.99,.02,.45,.05,.91,.07,1.36-.04,.04-.13,.11-.12,.13,.05,.1,.12,.18,.18,.27,.03,.64,.07,1.27,.1,1.91-.06,.49-.12,.98-.17,1.47-.31-.8-.02-1.94-.45-2.28-2.1-1.66-1.04-3.8-1.2-5.72-.16-1.91-.03-3.85-.03-5.77,0-.86,0-1.72,0-2.58-.21-.01-.41-.03-.62-.04-.09,.22-.24,.44-.26,.68-.32,3.27-.66,6.54-.9,9.82-.07,.9,.11,1.82,.24,2.73,.14,1.01,.35,2.01,.53,3.02Z"/>
  <path class="cls-7" d="M271.22,121.29s-.07,.01-.07,.01c-.53,.63-1.21,1.19-1.55,1.89-1.23,2.53-2.34,5.12-3.5,7.68,0,0,0,0,0,0-.48,.42-.97,.84-1.45,1.26-.94,.79-1.95,1.51-2.79,2.39-.31,.33-.2,1.01-.28,1.53,0,0,.02-.02,.02-.02-.16,.15-.32,.3-.48,.46l.03-.02c-.61-.14-1.22-.28-1.84-.43-.23-.16-.46-.33-.7-.49-.04-.2-.09-.4-.13-.59l.07-.09s-.06-.1-.06-.1c-.08-.56-.16-1.13-.23-1.69,1.25-1.5,2.62-2.92,3.71-4.52,2.06-3.04,3.5-6.35,3.6-10.03,.03-.93-.3-1.87-.39-2.36,1.65-2.58,3.19-4.97,4.72-7.36,.15-.03,.3-.07,.44-.1,0,2.84,0,5.68,0,8.52-.08,.13-.08,.26-.01,.39-.02,.97-.11,1.95-.02,2.9,.03,.28,.58,.51,.89,.77Z"/>
  <path class="cls-10" d="M224.44,179.89c-13.26,4.83-26.31,2.58-30.47-5.23,.81-.33,1.6-.65,2.43-.99,5.73,6.16,12.61,5.51,19.66,2.94,1.77-.64,3.01-.65,4.4,.41,1.22,.93,2.49,1.8,3.98,2.88Z"/>
  <path class="cls-7" d="M212.64,82.27c.27-.01,.53-.03,.8-.04,2.6,.25,5.19,.49,7.79,.74,.74,.15,1.49,.31,2.23,.46,1.99,.77,4.1,1.34,5.95,2.36,1.83,1.01,3.39,2.45,5.28,3.85-2.63,1.62-4.67,2.24-7.27,.62-3.66-2.27-7.9-1.96-12.06-1.55-.67,.07-1.33,.19-2.35,.34-.13-2.33-.25-4.55-.37-6.77Z"/>
  <path class="cls-10" d="M230.8,180.68c-.3-.1-.6-.19-.9-.29-3.47-1.03-6.62-2.6-9.27-4.97,0-.24,0-.48,0-.72,.92-.02,2.14-.42,2.72-.01,4.18,2.93,8.66,2.24,13.21,1.29,.44-.09,.91-.18,1.28-.39,4.78-2.7,6.23,1.77,8.88,3.65-.08,.27-.16,.54-.25,.8-3.86,.44-7.72,.87-11.58,1.31-.24-.01-.47-.03-.71-.04-1.13-.22-2.25-.43-3.38-.65Z"/>
  <path class="cls-7" d="M244.62,115.5c-.47,3.86-2.31,7.17-4.69,10.23-.45,.58-1.46,.77-2.21,1.14-.11-.97-.71-2.27-.26-2.85,2.05-2.66,2.7-5.66,2.17-8.69-.49-2.8,.02-5.09,1.24-7.65,1.03-2.17,.94-4.81,1.65-7.34,1.87,2.59,2.25,5.63,2.44,8.72,0,.15,0,.31-.01,.46,0,.27,0,.55,0,.82,0,.15,.01,.31,.02,.46-.06,1.42-.12,2.84-.18,4.26-.05,.14-.11,.28-.16,.43Z"/>
  <path class="cls-3" d="M311.46,124.48c.62,.91,1.42,1.75,1.84,2.74,2.11,4.92,3.68,9.92,2.32,15.33-.99,3.96-3.66,6.39-7.57,7.76-.29,.1-.7-.11-1.05-.18-.15-2.48,.44-4.5,2.64-6.27,2.86-2.3,2.68-5.62,2.17-8.85-.12-.76-.23-1.53-.34-2.29,0-2.25-.02-4.5-.03-6.75,0-.5,0-1,.01-1.49Z"/>
  <path class="cls-7" d="M240.21,164.42c-.64-8.29,3.63-14.7,7.66-21.88,.42,1.07,.73,1.5,.72,1.92-.06,3.6-.11,7.2-.35,10.79-.05,.71-.87,1.36-1.31,2.05-.86,1.35-2.75,2.04-2.52,4.13,.28,2.54-1.78,2.76-4.21,2.98Z"/>
  <path class="cls-10" d="M200.26,79.76c2.47-1.28,5.01-2.6,7.76-4.02,.45,1.11,.93,2.06,1.23,3.06,.79,2.69,1.54,5.38,2.23,8.1,.44,1.74-.33,2.67-2.29,2.7-1.04,.01-2.07,.16-2.68,.21-2.18-3.51-4.19-6.73-6.25-10.04Z"/>
  <path class="cls-4" d="M193.94,95.85c-5.91-1.5-8.52-5.83-12.74-9.09,2.81-1.07,5.18-2.02,7.59-2.85,.31-.11,.92,.34,1.3,.64,.96,.77,1.9,1.58,2.8,2.42,.41,.39,.99,.88,1.01,1.34,.1,2.38,.05,4.76,.05,7.54Z"/>
  <path class="cls-7" d="M213.73,135.6c2.49,1.06,4.57,1.87,6.56,2.85,.56,.28,1.15,1.03,1.21,1.61,.68,6.05,2.25,11.84,5.12,17.31,.08,.16,.01,.39-.27,.71-5.77-6.59-9.49-14.2-12.63-22.49Z"/>
  <path class="cls-9" d="M267.1,35.55c-.9,.59-1.76,1.27-2.71,1.77-7.56,3.96-15.12,7.91-22.71,11.83-11.47,5.92-22.95,11.82-34.43,17.71-3.16,1.62-6.35,3.17-9.52,4.75,.05-.49,.09-.97,.14-1.46,1.72-.87,3.44-1.73,5.16-2.6,0,0,.01,0,.01,0,.46-.14,.92-.29,1.37-.43,0,0-.03,.02-.03,.02,5.34-2.73,10.69-5.47,16.02-8.22,.02-.01-.08-.23-.12-.35,0,0,0,0,0,0,3.48-1.71,6.96-3.42,10.44-5.14,0,0-.01,0-.01,0,.55-.16,1.16-.24,1.65-.49,10.48-5.43,20.94-10.9,31.44-16.32,1.01-.52,2.19-.72,3.3-1.08Z"/>
  <path class="cls-4" d="M211.32,99.06c3.73-.76,7.01-1.54,10.33-2.05,1.16-.18,2.36,.35,2.27,1.95-.18,3.43-4,6.57-7.63,6.18-.27-.03-.61-.17-.76-.36-1.38-1.83-2.72-3.68-4.22-5.72Z"/>
  <path class="cls-4" d="M237.75,165.06c-.95,.43-2.13,.78-3.08,1.42-2.88,1.98-5.66,1.05-8.46-.07-1.49-.6-1.62-2.05-.58-3.23,1.64-1.86,3.29-3.51,6.18-2.64,.76,.23,1.61,.46,2.18,.93,1.31,1.09,2.48,2.34,3.76,3.57Z"/>
  <path class="cls-7" d="M278.34,119.38c-1.65,.1-3.3,.25-4.95,.28-1.17,.02-1.7-.49-1.61-1.74,.14-1.97,.04-3.96,.04-6.21,1.58,0,2.99,0,4.4,0,.08,0,.15-.02,.23,0,.8,.11,5.48,5.45,5.54,6.32-1.21,.45-2.43,.91-3.64,1.36Z"/>
  <path class="cls-4" d="M245.31,103.44c-.26-1.02-.52-2.05-.79-3.15,2.54-.77,4.98-1.41,6.92,1.2,.49,.66,1.51,.96,2.09,1.59,.55,.6,1.17,1.41,1.18,2.13,0,1.11-.43,2.28-2.01,2.35-1.79,.09-3.59,.24-5.38,.2-.44-.01-1.04-.63-1.24-1.09-.3-.7-.32-1.52-.46-2.29-.1-.32-.2-.63-.31-.95Z"/>
  <path class="cls-7" d="M231.23,151.44v-14.75c1.69,2.09,3.3,4,4.79,5.99,.3,.4,.31,1.13,.18,1.64-.72,2.95-1.52,5.88-2.3,8.82,.12-1.98-1.48-1.55-2.67-1.69Z"/>
  <path class="cls-7" d="M245.86,114.93c.09-.25,.19-.5,.28-.74,.03-.16,.06-.31,.09-.47,.1-1.47,.19-2.94,.29-4.43,2.41-.17,4.71-.33,7.02-.49,0,1.78,.13,3.61-.07,5.4-.06,.58-.9,1.42-1.52,1.55-1.95,.4-3.97,.51-5.96,.73-.04-.52-.08-1.03-.13-1.55Z"/>
  <path class="cls-10" d="M163.43,165.39c-3.71,1.21-6.79,2.25-9.91,3.2-.61,.19-1.46,.26-2,0-1.77-.84-3.45-1.85-5.15-2.82-.23-.13-.35-.41-.66-.79,5.91-1.49,11.57-1.66,17.71,.4Z"/>
  <path class="cls-10" d="M199.72,164.73c.08-.22,.16-.45,.23-.67,3.57-.67,7.14-1.01,10.7,.04,1.24,.37,2.43,.89,4.21,1.55-3.53,1.16-6.38,2.12-9.26,3-.3,.09-.82-.23-1.15-.46-1.59-1.14-3.16-2.31-4.74-3.47Z"/>
  <path class="cls-7" d="M258.42,145.02c.08-2.3,.15-4.6,.23-6.9,.16-.24,.33-.48,.49-.71,0,0,.18-.07,.18-.07,.61-.29,1.22-.58,1.83-.87,0,0-.03,.02-.03,.02,.16-.15,.32-.3,.48-.46,0,0-.02,.02-.02,.02,1.45-.95,2.9-1.9,4.52-2.96v2.91c-.04,.12-.07,.25-.11,.37-.14,.4-.27,.8-.41,1.2-.27,.22-.59,.39-.79,.65-1.56,2.11-3.09,4.23-4.63,6.35-.15,.13-.29,.25-.44,.38-.44,.02-.88,.04-1.32,.06Z"/>
  <path class="cls-10" d="M171.07,164.97c5.35-1.64,10.36-1.73,16.1,.23-3.07,1.29-5.54,2.33-8.01,3.35-.18,.07-.47,.05-.66-.04-2.36-1.11-4.71-2.24-7.43-3.54Z"/>
  <path class="cls-7" d="M219.44,113.12c-.97-2.49-1.79-4.58-2.61-6.67,2.22-.79,4.23-1.52,6.35-2.28,.35,1.75,.88,3.56,1.01,5.4,.04,.61-.84,1.41-1.5,1.88-.87,.62-1.93,1.01-3.24,1.66Z"/>
  <path class="cls-10" d="M122.25,164.7c4-.98,7.97-1.11,11.88,.41-.07,.34-.06,.92-.23,.97-2.34,.73-4.7,1.39-7.07,2.05-.27,.07-.69,.15-.84,.02-1.27-1.12-2.5-2.29-3.74-3.44Z"/>
  <path class="cls-7" d="M226.99,154.67c-.18-1.01-.39-2.01-.53-3.02-.13-.91-.31-1.83-.24-2.73,.25-3.28,.59-6.55,.9-9.82,.02-.23,.17-.45,.26-.68,.21,.01,.41,.03,.62,.04,0,.86,0,1.72,0,2.58,0,1.93-.12,3.86,.03,5.77,.16,1.92-.9,4.06,1.2,5.72,.43,.34,.15,1.48,.45,2.28,.06-.49,.12-.98,.17-1.47,.6,1.86,1.19,3.73,1.8,5.63-2.31-.08-3.76-1.45-4.67-4.31Z"/>
  <path class="cls-7" d="M245.35,125.35c-1.13,2.64-2.25,5.27-3.48,8.16-2.74-3.09-2.76-4.24-.8-6.88,1.19-1.61,2.17-3.35,3.56-5.52,.3,1.43,.51,2.4,.71,3.38,0,.29,0,.58,0,.87Z"/>
  <path class="cls-1" d="M278.56,158.8c.96,.09,1.93,.18,3.74,.35-2.05,1.77-3.63,3.21-5.31,4.52-.36,.28-1.13,.21-1.68,.13-1.41-.2-2.8-.49-4.19-.75-.11-.09-.24-.12-.38-.09,1.07-.91,2.01-2.03,3.23-2.67,1.4-.73,3.05-1.02,4.59-1.5Z"/>
  <path class="cls-10" d="M262.3,162.14s-.04-.05-.04-.05c.48,.28,.95,.55,1.53,.88-2.55,.96-4.99,1.98-7.49,2.8-1.91,.62-3.32-.51-5.34-1.74,1.81-.69,3.09-1.17,4.37-1.65,2.33-.08,4.65-.16,6.98-.23Z"/>
  <path class="cls-8" d="M250.49,121s0,.02,0,.02c-.13-.19-.25-.39-.38-.58-.12,.2-.24,.4-.36,.59,0,0-.02,.02-.02,.02-.23,.34-.46,.68-.69,1.01,.22,.04,.44,.08,.67,.11,0,0-.11-.08-.11-.08-.7,1.09-1.4,2.18-2.1,3.26-.3,.04-.61,.08-.91,.12-.07-.2-.15-.41-.22-.61-.05-.73-.09-1.47-.14-2.2-.19-.53-.37-1.07-.56-1.6-.14-.28-.28-.56-.42-.84,.15-.86,.3-1.72,.45-2.58,.3-.04,.6-.08,.9-.12,.91,.01,1.81,.02,2.72,.03,.38-.06,.75-.12,1.13-.19,1.19-.02,1.04,.37,.57,1.19-.39,.71-.38,1.62-.54,2.44Z"/>
  <path class="cls-3" d="M293.65,155.05c-1.66,.34-3.31,.67-5.55,1.13,1.04-1.96,1.88-3.53,2.72-5.11-.08-.18-.16-.35-.24-.53,0,0,0,0,0,0,.28-.08,.57-.15,.85-.23-.13-.2-.26-.4-.39-.6,0,0-.05-.06-.05-.06,.46,.07,.98,.3,1.36,.17,.74-.26,1.4-.72,2.17-1.15-.12,1.62-.23,3.14-.34,4.65-.1,.37-.2,.74-.3,1.1-.07,.21-.15,.42-.22,.62Z"/>
  <path class="cls-3" d="M297.52,132.37c1.2,1.53,2.45,3.02,3.55,4.61,.17,.24-.29,.97-.61,1.37-.98,1.22-2.03,2.4-3.05,3.59-1.79-3.21-1-6.39,.11-9.57Z"/>
  <path class="cls-3" d="M295.9,128.41c-3.48-1.75-6.01-4.14-7.42-7.64,5.17,.6,6.6,2.08,7.42,7.64Z"/>
  <path class="cls-6" d="M217.19,161.3c.17-.44,.34-.87,.72-1.85,1.33,2.88,5.59,2.58,5.6,6.27-1.98-1.15-5.06,1.43-6.3-1.89,0-.85-.02-1.69-.03-2.54Z"/>
  <path class="cls-7" d="M240.94,102.25c-.61,2.21-1.09,4.13-1.7,6.01-.11,.35-.68,.72-1.09,.79-.23,.04-.78-.48-.84-.8-.16-.92-.31-1.91-.14-2.81,.25-1.35,.72-2.68,1.24-3.97,.16-.4,.78-.64,1.19-.95,.45,.59,.91,1.17,1.34,1.74Z"/>
  <path class="cls-7" d="M223.59,112.65c-.51,2.84-.94,5.29-1.38,7.74l-.5,.12c-.81-2.04-1.63-4.07-2.49-6.24,1.48-.55,2.73-1.01,4.37-1.62Z"/>
  <path class="cls-6" d="M245,163.81c.91-1.97,1.63-3.51,2.35-5.06,.27,.02,.54,.04,.82,.06,.7,1.64,1.41,3.28,2.24,5.23-1.86-.08-3.32-.14-5.41-.23Z"/>
  <path class="cls-16" d="M297.52,132.37c-1.11,3.18-1.9,6.36-.11,9.57-.38,.45-.76,.9-1.14,1.35-1.67-3.73-1.33-7.49-.19-11.27,.2-.66,.42-1.32,.64-1.98,.27,.78,.53,1.55,.8,2.33Z"/>
  <path class="cls-7" d="M210.05,99.19c-1.02,1.9-2,3.7-3.15,5.85-.91-.96-1.43-1.51-2.07-2.19,1.78-1.15,.59-5.23,5.23-3.66Z"/>
  <path class="cls-5" d="M220.27,58.57c.04,.12,.15,.34,.12,.35-5.33,2.75-10.68,5.48-16.02,8.22,.47-.53,.94-1.06,1.42-1.58,4.15-2.14,8.29-4.29,12.45-6.39,.61-.31,1.35-.4,2.03-.59Z"/>
  <path class="cls-7" d="M268.33,108.5c-.79,1.47-1.51,2.97-2.42,4.37-.17,.26-1.43,.33-1.55,.13-1.15-1.83,.06-3.24,1.26-4.49,.46-.48,1.44-.5,2.19-.73,.17,.24,.34,.47,.52,.71Z"/>
  <path class="cls-7" d="M221.1,128.54c-1.95-.12-2.27-.97-1.77-2.45,.5-1.5,.84-3.05,1.27-4.64,1.77,2.27,.53,4.69,.5,7.09Z"/>
  <path class="cls-7" d="M231.23,151.44c1.19,.15,2.79-.29,2.67,1.69-.17,1.76-.34,3.52-.5,5.28-.12,.05-.24,.09-.36,.14-.33-1.06-.65-2.12-.98-3.18-.12-.59-.23-1.17-.35-1.76-.16-.72-.32-1.45-.48-2.17Z"/>
  <path class="cls-20" d="M278.56,158.8c-1.54,.48-3.19,.77-4.59,1.5-1.23,.64-2.17,1.76-3.23,2.67-.17,.01-.35,.02-.52,.03-.28-.42-.56-.84-.84-1.26,1.75-2.02,4.08-3.02,6.75-3.4,.81,.15,1.62,.31,2.43,.46Z"/>
  <path class="cls-5" d="M181.49,78.09c.93-.42,1.86-.84,2.78-1.26,.36,.19,.72,.39,1.08,.58-3.16,1.57-6.32,3.14-9.48,4.71-.22-.04-.44-.09-.67-.13,2.09-1.3,4.19-2.6,6.28-3.9Z"/>
  <path class="cls-9" d="M175.88,82.13c3.16-1.57,6.32-3.14,9.48-4.71,.16,.25,.32,.51,.48,.76-2.65,1.33-5.28,2.69-7.98,3.94-.53,.25-1.31,.02-1.98,.01Z"/>
  <path class="cls-7" d="M205.19,98.99c-.34,1.05-.62,1.92-1.01,3.11-1.5-1.31-2.65-2.32-4.27-3.74,2.06,.25,3.43,.41,5.28,.63Z"/>
  <path class="cls-3" d="M305.4,152.01c-.2-.21-.54-.4-.57-.62-.37-3.28-.7-6.57-1-9.85-.02-.25,.2-.51,.31-.77,.36,1.06,.73,2.11,1.09,3.17,.1,1.09,.2,2.17,.29,3.26,0,.26,0,.53,0,.79,0,.17-.01,.33-.02,.5,.07,.29,.13,.57,.19,.86-.05-.08-.12-.1-.21-.07v.49c.02,.7,.06,1.4,.1,2.09-.07,.04-.14,.1-.2,.16Z"/>
  <path class="cls-3" d="M311.44,125.97c0,2.25,.02,4.5,.03,6.75-.21-.43-.37-.9-.64-1.3-1.47-2.17-1.36-3.27,.62-5.45Z"/>
  <path class="cls-16" d="M262.3,162.14c-2.33,.08-4.65,.16-6.98,.23-.03-.33-.06-.65-.1-.98,.45-.12,.9-.25,1.35-.37,.18-.04,.36-.08,.54-.12,1.03-.02,2.07-.03,3.1-.05,.48,.06,.95,.12,1.43,.19,.22,.37,.43,.73,.65,1.1Z"/>
  <path class="cls-7" d="M233.72,100.48c3.09,.02,3.33,.53,1.99,4.21-.74-1.56-1.33-2.82-1.99-4.21Z"/>
  <path class="cls-20" d="M247.46,133.15c-.27-.72-.6-1.43-.81-2.16-.23-.83-.36-1.68-.53-2.52,.22-.45,.45-.9,.67-1.35,.22,.04,.45,.07,.67,.11v5.92Z"/>
  <path class="cls-13" d="M174.61,93.83c-1.31-.78-2.61-1.56-3.95-2.37,1.42-1.49,1.66-1.36,3.95,2.37Z"/>
  <path class="cls-19" d="M278.34,119.38c1.21-.45,2.43-.91,3.64-1.36,.26,.2,.51,.41,.77,.61-1.45,.54-2.89,1.08-4.34,1.62-.02-.29-.05-.58-.07-.88Z"/>
  <path class="cls-5" d="M203.02,67.55c-1.72,.87-3.44,1.73-5.16,2.6,.99-.68,1.98-1.37,2.97-2.05,.45-.17,.89-.34,1.34-.51,.28-.01,.57-.02,.85-.04Z"/>
  <path class="cls-16" d="M257.44,144.18c.03-2,.06-4,.09-6-.03,2-.06,4-.09,6Z"/>
  <path class="cls-16" d="M275.61,109.21c-.81-.17-1.62-.35-2.42-.52,0-1.05,.06-1.07,2.02-.81,.13,.44,.27,.89,.4,1.33Z"/>
  <path class="cls-19" d="M202.18,67.59c-.45,.17-.89,.34-1.34,.51-.45-.17-.91-.34-1.36-.51,.89-.41,1.79-.83,2.68-1.24-.17,.42-1.8,.85,.02,1.24Z"/>
  <path class="cls-19" d="M304.41,155.74c.25-.71,.5-1.41,.75-2.12-.25,.71-.5,1.41-.75,2.12Z"/>
  <path class="cls-16" d="M269.37,161.73c.28,.42,.56,.84,.84,1.26-.46-.16-.92-.31-1.38-.47,.18-.27,.36-.53,.54-.8Z"/>
  <path class="cls-19" d="M202.64,126.84c-.17,.22-.33,.43-.5,.65-.22-.36-.43-.72-.65-1.08l1.15,.43Z"/>
  <path class="cls-16" d="M252.18,159.59c.24-.34,.49-.67,.74-1.01,.09,.1,.18,.2,.27,.3,0-.12,0-.24-.01-.35,0,0,0-.1,0-.09,.23,.1,.45,.19,.67,.29-.44,.29-.89,.57-1.33,.86,0,0-.17,0-.17,0h-.17Z"/>
  <path class="cls-14" d="M305.52,147.2c-.1-1.09-.2-2.17-.29-3.26,.1,1.09,.2,2.17,.29,3.26Z"/>
  <path class="cls-19" d="M217.19,161.3c0,.85,.02,1.69,.03,2.54-.18,0-.36,.02-.54,.02,0,0-.01-.01-.01-.01,.18-.85,.35-1.7,.53-2.55Z"/>
  <path class="cls-16" d="M261.15,136.47c-.61,.29-1.22,.58-1.83,.87,0-.43,0-.86,0-1.3,.61,.14,1.22,.28,1.84,.43Z"/>
  <path class="cls-16" d="M256.59,130.13c-.28-.46-.57-.91-.85-1.37,.28,.46,.57,.91,.85,1.37Z"/>
  <path class="cls-19" d="M305.59,151.86c-.04-.7-.07-1.4-.11-2.09,0-.16,0-.33,.01-.49,.09-.04,.16-.01,.21,.07-.04,.84-.07,1.68-.11,2.51Z"/>
  <path class="cls-20" d="M223.46,83.43c-.74-.15-1.49-.31-2.23-.46,.74,.15,1.49,.31,2.23,.46Z"/>
  <path class="cls-9" d="M246.24,122.66c.05,.73,.09,1.47,.14,2.2-.05-.73-.09-1.47-.14-2.2Z"/>
  <path class="cls-16" d="M296.65,146.35c-.18,.73-.35,1.46-.53,2.18,.18-.73,.35-1.46,.53-2.18Z"/>
  <path class="cls-12" d="M231.71,153.61c.12,.59,.23,1.17,.35,1.76-.12-.59-.23-1.17-.35-1.76Z"/>
  <path class="cls-16" d="M258.27,133.08c.08,.56,.15,1.13,.23,1.69-.08-.56-.15-1.13-.23-1.69Z"/>
  <path class="cls-16" d="M296.66,165.62c-.64,.12-1.29,.24-1.93,.36,.64-.12,1.29-.24,1.93-.36Z"/>
  <path class="cls-20" d="M246.48,180.05c.08-.27,.16-.54,.25-.8,.21,.18,.42,.35,.63,.53-.29,.09-.59,.18-.88,.28Z"/>
  <path class="cls-9" d="M246.6,125.47c.3-.04,.61-.08,.91-.12-.13,.22-.26,.43-.39,.65-.17-.18-.34-.35-.51-.53Z"/>
  <path class="cls-16" d="M256.59,154.01c-.29,.32-.57,.64-.86,.96,.29-.32,.57-.64,.86-.96Z"/>
  <path class="cls-9" d="M245.86,114.93c.04,.52,.08,1.03,.13,1.55-.04-.52-.08-1.03-.13-1.55Z"/>
  <path class="cls-16" d="M295.45,151.92c-.09,.43-.17,.85-.26,1.28,.09-.43,.17-.85,.26-1.28Z"/>
  <path class="cls-16" d="M257.47,151.02c-.13,.45-.26,.91-.38,1.36,.13-.45,.26-.91,.38-1.36Z"/>
  <path class="cls-16" d="M296.03,148.89c-.13,.44-.26,.88-.39,1.31,.13-.44,.26-.88,.39-1.31Z"/>
  <path class="cls-13" d="M204.41,67.12c-.46,.14-.92,.29-1.37,.43,.46-.14,.92-.29,1.37-.43Z"/>
  <path class="cls-16" d="M258.42,145.02c.44-.02,.88-.04,1.32-.06,.23,.24,.45,.49,.68,.73,0,0-.05,.04-.04,.04-.65-.24-1.31-.47-1.96-.71Z"/>
  <path class="cls-16" d="M257.46,134.85c-.11-.45-.22-.91-.32-1.36,.11,.45,.22,.91,.32,1.36Z"/>
  <path class="cls-20" d="M149.25,181.95c.52,.1,1.03,.21,1.55,.31-.52-.1-1.03-.21-1.55-.31Z"/>
  <path class="cls-16" d="M280.65,108.55c.4,.13,.8,.26,1.2,.39-.4-.13-.8-.26-1.2-.39Z"/>
  <path class="cls-9" d="M245.35,125.35c0-.29,0-.58,0-.87,0,.29,0,.58,0,.87Z"/>
  <path class="cls-16" d="M258.08,130.77c.26-.08,.53-.16,.79-.24-.26,.08-.53,.16-.79,.24Z"/>
  <path class="cls-9" d="M245.31,103.44c.1,.32,.2,.63,.31,.95-.1-.32-.2-.63-.31-.95Z"/>
  <path class="cls-16" d="M272.91,164.57c-.33-.08-.66-.16-.99-.24,.33,.08,.66,.16,.99,.24Z"/>
  <path class="cls-16" d="M259.14,137.41c-.16,.24-.33,.48-.49,.71,.16-.24,.33-.48,.49-.71Z"/>
  <path class="cls-16" d="M257.24,145.41c.07-.33,.13-.65,.2-.98-.07,.33-.13,.65-.2,.98Z"/>
  <path class="cls-16" d="M295.71,145.45c.13-.27,.26-.53,.38-.8-.13,.27-.26,.53-.38,.8Z"/>
  <path class="cls-20" d="M158.64,183.4c.36,.01,.72,.02,1.09,.04-.36-.01-.73-.02-1.09-.04Z"/>
  <path class="cls-16" d="M252.49,161.73c.31,0,.63,.02,.94,.03-.3,.13-.59,.27-.89,.4,.04-.05,.12-.12,.11-.16-.02-.1-.09-.2-.14-.3l-.02,.03Z"/>
  <path class="cls-12" d="M229.63,149.68c-.07-.33-.13-.66-.2-.99,.07,.33,.13,.66,.2,.99Z"/>
  <path class="cls-9" d="M245.27,120.21c.14,.28,.28,.56,.42,.84-.14-.28-.28-.56-.42-.84Z"/>
  <path class="cls-16" d="M257.76,149.78c-.08,.29-.15,.58-.23,.87,.08-.29,.15-.58,.23-.87Z"/>
  <path class="cls-12" d="M227.4,158.46c-.1,.08-.19,.22-.29,.22-.11,0-.23-.11-.34-.18,.1-.1,.19-.26,.3-.27,.1-.01,.22,.14,.33,.23Z"/>
  <path class="cls-9" d="M250.46,117.36c-.38,.06-.75,.12-1.13,.19,.38-.06,.75-.12,1.13-.19Z"/>
  <path class="cls-9" d="M246.62,117.51c-.3,.04-.6,.08-.9,.12,.3-.04,.6-.08,.9-.12Z"/>
  <path class="cls-16" d="M293.87,154.43c.1-.37,.2-.73,.3-1.1-.1,.37-.2,.73-.3,1.1Z"/>
  <path class="cls-19" d="M305.97,155.32c-.1,.31-.2,.62-.31,.93,.1-.31,.2-.62,.31-.93Z"/>
  <path class="cls-16" d="M294.93,154.91c.08,.12,.07,.23-.04,.34-.12-.13-.1-.24,.04-.34Z"/>
  <path class="cls-16" d="M295.12,153.59c-.02,.14-.05,.27-.07,.41-.03-.1-.08-.21-.09-.31,0-.03,.1-.07,.16-.1Z"/>
  <path class="cls-12" d="M229.77,151.44c-.06-.09-.14-.17-.18-.27-.01-.02,.08-.09,.12-.13,.12,.12,.14,.25,.07,.4Z"/>
  <path class="cls-19" d="M202.22,66.31c.12-.17,.24-.33,.36-.5-.12,.17-.24,.33-.36,.5Z"/>
  <path class="cls-16" d="M253.45,161.73c.14-.1,.27-.2,.41-.29-.14,.1-.27,.2-.41,.29Z"/>
  <path class="cls-2" d="M252.51,161.7c.05,.1,.12,.2,.14,.3,.01,.04-.07,.11-.11,.16-.16-.13-.33-.26-.49-.39,.15-.02,.31-.05,.46-.07Z"/>
  <path class="cls-14" d="M305.51,148.49c0-.17,.01-.33,.02-.5,0,.17-.01,.33-.02,.5Z"/>
  <path class="cls-16" d="M258.08,148.09l.09,.15s-.11,.13-.11,.13c-.09-.1-.08-.19,.02-.28Z"/>
  <path class="cls-19" d="M221.66,67.6c0,.13,0,.26-.01,.39-.21-.02-.42-.05-.64-.07,.22-.11,.43-.21,.65-.32Z"/>
  <path class="cls-19" d="M218.95,68.86c.14-.09,.28-.18,.42-.27-.14,.09-.28,.18-.42,.27Z"/>
  <path class="cls-20" d="M247.97,137.75c-.16-.1-.18-.21-.06-.34,.07,.11,.09,.22,.06,.34Z"/>
  <path class="cls-16" d="M266.8,163.92c-.2,.04-.41,.08-.61,.11,.2-.04,.41-.08,.61-.11Z"/>
  <path class="cls-16" d="M258.49,134.96c.04,.2,.09,.4,.13,.59-.04-.2-.09-.4-.13-.59Z"/>
  <path class="cls-16" d="M293.42,165c.11-.09,.21-.09,.32,0,0,0-.16,.08-.16,.08l-.16-.07Z"/>
  <path class="cls-19" d="M124.27,168.98c.02-.13,.1-.22,.23-.26,0,.15-.08,.24-.23,.26Z"/>
  <polygon class="cls-16" points="295.93 129.65 295.81 129.72 295.72 129.6 295.93 129.65"/>
  <path class="cls-20" d="M234.19,181.33c.24,.01,.47,.03,.71,.04-.24-.01-.47-.03-.71-.04Z"/>
  <path class="cls-19" d="M249.34,124.06c-.12,.09-.25,.19-.37,.28,.12-.09,.25-.19,.37-.28Z"/>
  <path class="cls-19" d="M250.04,122.29c-.08,.17-.16,.33-.24,.5,.08-.17,.16-.33,.24-.5Z"/>
  <path class="cls-20" d="M165.69,183.04c.19-.04,.38-.07,.56-.11-.19,.04-.38,.07-.56,.11Z"/>
  <path class="cls-20" d="M160.17,183.43c.21,0,.41-.01,.62-.02-.21,0-.41,.01-.62,.02Z"/>
  <path class="cls-19" d="M278.43,120.25c-.15,.04-.3,.08-.45,.12,.15-.04,.3-.08,.45-.12Z"/>
  <path class="cls-16" d="M270.35,117.62c-.07-.13-.07-.26,.01-.39,.04,.09,.09,.18,.11,.28,0,.03-.08,.07-.12,.11Z"/>
  <path class="cls-9" d="M244.62,115.5c.05-.14,.11-.28,.16-.43-.05,.14-.11,.28-.16,.43Z"/>
  <path class="cls-9" d="M246.23,113.72c-.03,.16-.06,.31-.09,.47,.03-.16,.06-.31,.09-.47Z"/>
  <path class="cls-9" d="M244.97,110.81c0-.15-.01-.31-.02-.46,.05,.11,.1,.21,.13,.32,0,.04-.07,.09-.11,.14Z"/>
  <path class="cls-9" d="M244.95,109.53c0-.15,0-.31,.01-.46,.04,.11,.09,.21,.11,.32,0,.04-.08,.09-.12,.14Z"/>
  <path class="cls-5" d="M267.1,35.55c-1.1,.35-2.29,.56-3.3,1.08-10.49,5.41-20.96,10.88-31.44,16.32-.5,.26-1.1,.33-1.65,.49,.45-.43,.83-1,1.37-1.29,12.18-6.31,24.38-12.6,36.59-18.88,2.17-1.11,4.39-2.13,6.59-3.2-.07,.43-.13,.85-.2,1.28-2.67,1.39-5.34,2.77-8.01,4.16,0,0,.05,.04,.05,.04Z"/>
  <path class="cls-9" d="M267.05,35.51c2.67-1.39,5.34-2.77,8.01-4.16-.26,.32-.51,.64-.77,.96-.15,.06-.3,.11-.45,.17-1.53,.83-3.04,1.71-4.61,2.47-.65,.32-1.45,.38-2.18,.56Z"/>
  <path class="cls-13" d="M273.84,32.48c.15-.06,.3-.11,.45-.17-.15,.06-.3,.11-.45,.17Z"/>
  <path class="cls-19" d="M142.93,29.77c-.08-.38-.15-.77-.23-1.15,.08,.38,.15,.77,.23,1.15Z"/>
  <path class="cls-15" d="M161.4,74.33c.18-.28,.37-.56,.55-.85-.18,.28-.37,.56-.55,.85Z"/>
  <path class="cls-1" d="M293.65,156.52c-1.12,6.19-3.95,10.98-9.13,14.14-3.99,2.43-9.4,2.53-12.67,.12,6.2-5.94,11.39-13.03,21.8-14.26Z"/>
  <path class="cls-1" d="M296.03,171.05c-3.34,1.93-6.69,3.87-10.03,5.8,0,0-.18,0-.18,0,0,0-.14,.11-.14,.11-.94,.19-1.88,.38-2.83,.56-4.11,.15-8.12-.21-11.8-2.15-.78-.41-1.49-.93-2.33-1.45,.9-1.41,1.78-2.04,3.51-1.28,4.79,2.12,9.33,1.28,13.75-1.19,.99-.55,2.32-.66,3.52-.74,1.63-.1,3.29,0,4.93,.07,.54,.02,1.07,.17,1.61,.26Z"/>
  <path class="cls-19" d="M282.85,177.52c.94-.19,1.88-.37,2.83-.56-.94,.19-1.88,.38-2.83,.56Z"/>
  <path class="cls-19" d="M297.29,168.94c.44-.04,.88-.08,1.32-.12-.44,.04-.88,.08-1.32,.12Z"/>
  <path class="cls-15" d="M290.58,150.54c.08,.18,.16,.35,.24,.53-.23-.23-.46-.47-.68-.7,.15,.06,.3,.11,.45,.17Z"/>
  <path class="cls-17" d="M171.26,83.83c.42,.1,.84,.21,1.52,.37-3.55,3.66-9.52,4.79-11.42,10.34h5.71c-1.3,1.32-4.94,1.71-5.96,.61-.46-.5-.71-1.77-.36-2.21,1.26-1.62,2.68-3.19,4.29-4.49,1.76-1.43,3.82-2.53,5.73-3.81,.25-.17,.34-.55,.51-.83,0,0-.02,.02-.02,.02Z"/>
  <path class="cls-19" d="M160.37,90.56c-.17,.18-.35,.37-.52,.55,.17-.18,.35-.37,.52-.55Z"/>
  <path class="cls-15" d="M158.75,92.54c-.02-.28-.05-.57-.07-.85,.02,.28,.05,.57,.07,.85Z"/>
  <path class="cls-5" d="M230.72,53.43c-3.48,1.71-6.96,3.42-10.44,5.14,3.3-2.03,6.33-4.56,10.44-5.14Z"/>
  <path class="cls-15" d="M266.11,136v-2.91c-1.63,1.07-3.08,2.02-4.52,2.96,.08-.52-.03-1.2,.28-1.53,.83-.88,1.84-1.6,2.79-2.39,.48-.42,.97-.84,1.45-1.26,0,0,0,0,0,0,.46,.29,.93,.59,1.39,.88-.45,2.43-.89,4.85-1.34,7.28-.19-.49-.38-.98-.57-1.46,.14-.4,.27-.8,.41-1.2,.08-.11,.11-.24,.11-.37Z"/>
  <path class="cls-16" d="M267.5,131.76c-.46-.29-.93-.59-1.39-.88,1.16-2.57,2.27-5.15,3.5-7.68,.34-.71,1.02-1.27,1.55-1.89-.82,2.66-1.62,5.33-2.49,7.97-.28,.86-.77,1.66-1.17,2.48Z"/>
  <path class="cls-16" d="M265.6,137.58c.19,.49,.38,.98,.57,1.46-1.83,2.16-3.66,4.31-5.49,6.47-.16-.31-.33-.62-.49-.93,1.54-2.12,3.07-4.24,4.63-6.35,.19-.26,.52-.44,.79-.65Z"/>
  <path class="cls-11" d="M261.66,161.04c-.48-.06-.95-.12-1.43-.19,.48,.06,.95,.12,1.43,.19Z"/>
  <path class="cls-15" d="M260.18,144.58c.16,.31,.33,.62,.49,.93-.03,.12-.12,.18-.25,.18-.23-.24-.45-.49-.68-.73,.15-.13,.29-.25,.44-.38Z"/>
  <path class="cls-15" d="M253.96,157.89c.15-.42,.31-.84,.46-1.26-.15,.42-.31,.84-.46,1.26Z"/>
  <path class="cls-15" d="M291.03,149.71c.13,.2,.26,.4,.39,.6-.28,.08-.57,.15-.85,.23,.15-.28,.31-.55,.46-.83Z"/>
  <path class="cls-15" d="M253.85,158.72c-.22-.1-.45-.19-.67-.29,.25-.17,.51-.34,.77-.51-.03,.27-.06,.53-.1,.8Z"/>
  <path class="cls-11" d="M257.12,160.91c-.18,.04-.36,.08-.54,.12,.18-.04,.36-.08,.54-.12Z"/>
  <path class="cls-19" d="M249.72,122.17c-.22-.04-.44-.08-.67-.11,.23-.34,.46-.68,.69-1.01,0,.38-.01,.75-.02,1.13Z"/>
  <path class="cls-15" d="M253.17,158.52c0,.12,0,.24,.01,.35-.09-.1-.18-.2-.27-.3,.07-.08,.15-.1,.25-.05Z"/>
  <path class="cls-15" d="M249.76,121.03c.12-.2,.24-.4,.36-.59,.13,.19,.25,.39,.38,.58-.25,0-.49,0-.74,.01Z"/>
  <path class="cls-16" d="M266.11,130.89c-.48,.42-.97,.84-1.45,1.26,.48-.42,.97-.84,1.45-1.26Z"/>
  <path class="cls-16" d="M261.61,136.04c-.16,.15-.32,.3-.48,.46,.16-.15,.32-.3,.48-.46Z"/>
  <path class="cls-16" d="M266.11,136c0,.14-.03,.26-.11,.37,.04-.12,.07-.25,.11-.37Z"/>
  <path class="cls-14" d="M305.5,149.27c0,.16,0,.32-.01,.49,0-.16,0-.32,.01-.49Z"/>
</svg>