<?xml version="1.0" encoding="UTF-8"?>
<svg id="Layer_1" data-name="Layer 1" xmlns="http://www.w3.org/2000/svg" viewBox="0 0 414 200">
  <defs>
    <style>
      .cls-1 {
        fill: #231f20;
        font-family: MyriadPro-Regular, 'Myriad Pro';
        font-size: 12.76px;
      }

      .cls-2 {
        fill: #ebe8df;
      }

      .cls-3 {
        fill: #fff9b8;
      }

      .cls-4 {
        fill: #fff000;
      }

      .cls-5 {
        fill: #fbb040;
      }

      .cls-6 {
        fill: #fdfdfd;
      }

      .cls-7, .cls-8 {
        fill: #9ed2f1;
      }

      .cls-9 {
        fill: #c2bbb7;
      }

      .cls-10 {
        fill: #bbad98;
      }

      .cls-11 {
        fill: #d6d0cb;
      }

      .cls-12 {
        fill: #45403b;
      }

      .cls-13 {
        fill: #6e675d;
      }

      .cls-14 {
        fill: #534e49;
      }

      .cls-15 {
        fill: #4b4642;
      }

      .cls-8 {
        stroke: #97c7e6;
        stroke-miterlimit: 10;
      }
    </style>
  </defs>
  <path class="cls-12" d="M89.47,169.52c3.97-4.71,2.2-9.86,1.13-14.9-.4-1.85-1.58-3.5-.35-5.54,.68-1.13-.25-2.43-.74-3.6,2.78-.71,4.33-2.5,4.86-5.13,.43-2.11,1.07-4.22,1.12-6.34,.13-6.33,1.3-5.62-5.4-4.88-.66-.5-.53-1.02-.02-1.53,5.11-.26,10.23-.41,15.33,.18,1.45,.17,2.22-.01,1.8-1.63-.15-.58,.2-.88,.85-.78,.16,.06,.33,.09,.5,.12,.26,.51,.52,1.03,.78,1.54,.27,.47,.66,.73,1.24,.66,6.5-.8,12.98-.58,19.45,.32,1.51,.21,1.72-.46,1.53-1.71-.46-3.17-2.89-4.57-5.53-5.83,.1-.36,.2-.72,.3-1.08,2.25,.92,4.45,2.04,7.04,1.39,.58,.96,1.68,.84,2.57,1.15-.65,1.22-1.36,2.42-1.94,3.66-.63,1.35-.51,2.26,1.47,2.09,6.37-.55,12.75-.21,19.11,.21,1.99,.13,2.4-.52,1.88-2.15,.62-.63,1.15-1.24,1.38-2.17,.24-.97,.83-.47,1.21,.07-.3,1.24-.59,2.48-.95,3.96,6.37-.71,12.73-.65,19.08-.02,1.05,.1,2.42,1.04,3.15-.11,.75-1.18-.1-2.48-.75-3.59-3.17-5.41-15.12-6.33-19.66-1.54-1.7-.11-3.77-1.11-4.35,1.59-.51-1.37-2.83-1.14-2.87-2.93,.9-.51,1.76,.21,2.65,.1,2.29-.29,4.28-.88,4.2-3.65,.42,0,.85,0,1.27-.01,1.52,.07,1.96-1.02,2.19-2.07,.4-1.82,.88-3.62,.81-5.53-.25-6.99-.42-13.97-.59-20.96q-.17-6.86,6.57-9.38c.1-.04,.19-.07,.3-.09,1.41-.29,1.23-.94,.55-1.86-2.49-3.35-7.18-3.68-10.56-.76-1.83,1.58-2.6,3.74-3.67,5.74-.7-.42-.54-1.1-.57-1.72,1.05-3.18,3.12-5.54,6.34-6.86,3.14-1.28,6.63-.31,9.28,2.36,.83,.83,1.08,2.28,3.07,1.76,2.08-.54,1.46-2.09,1.96-3.24,.24-.19,.47-.38,.71-.57,.49,0,.84,.28,.73,.7-.98,3.92-.37,7.81,.17,11.7-.38,0-.77,0-1.15,0-.24-1.35-.58-2.69-.7-4.05-.1-1.14-.43-1.9-1.77-1.9,.03-.82,1.72-.42,1.17-1.88-2.7,1.03-5.38,2.05-8.07,3.07l.04-.02c-.82-.07-1.61,0-2.21,.63-.09,.39-.19,.77-.28,1.16-.97,1.53-.46,3.21-.48,4.82-.01,1.03-.72,2.48,1.15,2.88-.2,.78-.41,1.57-.61,2.35-.06,.17-.13,.33-.16,.5-.01,.07,.11,.24,.14,.23,4.27-1.1,8.62-2.01,12.4-4.37,.09-.05,0-.37,0-.56-.62-.36-1.25-.73-1.87-1.09,.42-.2,.83-.4,1.25-.59,.47-.02,.94-.04,1.42-.06,.12,.1,.12,.21,.02,.32,.11,.31,.22,.61,.32,.92,.42,1.42,.88,2.83,1.25,4.26,2.01,7.71,4.92,15.27,4.57,23.4-.02,.48-.17,1.05,.45,1.26,.78,.27,1.44-.19,1.97-.63,2.82-2.34,3.23-5.63,3.49-8.85,.46-5.65-.38-11.21-1.81-16.7-.15-.59-.85-1.27,.16-1.78,.4,.09,.79,.17,1.19,.26,0,.39-.08,.8,0,1.17,1.78,8.03,3.34,16.06,.26,24.15-.5,1.3,.32,1.4,1.26,1.02,.91-.37,1.7-.78,2.19-1.86,3.98-8.74,3.71-17.77,2.32-26.91-.15-.79,1.1-1.16,.62-2.21-2.82,.77-5.52,1.75-7.89,3.47-2.21-.93-1.51-3.13-2.26-4.7,.36-.02,.73-.05,1.09-.07,.77,.57,.85,2.28,2.38,1.56,2.03-.95,4.41-1.23,6.13-2.79,.45-.18,.9-.37,1.34-.55,.59,1.97,1.18,3.94,1.78,5.92-.62,.16-1.74-.38-1.49,.98,.16,3.01,.39,6.02,.47,9.04,.11,4.17,.32,4.31,4.3,2.44,.38-.4,.77-.8,1.15-1.19,2.72,5.51,5.14,11.14,7.06,16.96,.3,.9-.2,2.51,1.3,2.64,1.32,.11,2.11-1.11,2.81-2.09,.64-.9,.99-1.92,1.19-3.01,.71-3.81-.11-7.45-1.26-11.06-2.36-7.45-6.48-14.27-8.6-21.8-.07-.35-.14-.7-.21-1.05-1.36-2.91-1.43-5.87-.12-8.78,.39-.87,.51-2.27,2.17-1.98-.34,.59-.32,1.18,.03,1.75-1.86,1.27-1.69,3.2-1.76,5.04-.06,1.48,.51,2,2.02,1.14,2.54-1.45,5.1-2.88,7.71-4.22,2.14-1.09,2.64-2.5,1.37-4.48l-.03-1.11c.51-.8,.7-1.65,.5-2.57,.05-.3,.1-.61,.15-.91,.36,.05,.72,.09,1.08,.14-.53,4.44,.96,8.59,2.02,12.8,.19,2-2.43-1.09-2.39,1.27,.02,1.6,.27,2.61,1.93,3.06-1.85,4.03-.49,7.42,2.3,10.53-.43,.38-.85,.77-1.28,1.15,.42,1.8,.84,3.6,1.26,5.4-1.22,.22-.99-1.35-1.95-1.48-.93,3.19-.91,3.22,2.28,2.56,.92,2.24,1.92,4.45,2.75,6.71,.56,1.54,2.4,2.56,1.99,4.47-2.6-.78-3.84-3.68-6.84-4.15,0,3.22-1.04,6.35,1.06,9.17-2.23-.25-3,.92-3.11,2.83,1.93,.13,3.78,.21,5.61,.4,.83,.09,1.79,.3,.81,1.42-2.84-.57-5.69-.55-8.58-.31-4.14,.34-6.41,2.69-7.7,6.2-.61,1.65-.49,2.46,1.78,2.38,5.64-.19,11.29-.32,16.89,.62,0,.34,0,.68,0,1.02-.5,.01-1.04,.14-1.51,.02-2.93-.73-3,.64-2.33,2.73,.53,1.65,.93,3.35,1.38,5.02-.04,.48-.1,.95-.6,1.23-.73-1.73-1.47-3.45-2.31-5.43-.69,4.04-1.46,7.73-3.63,10.92,.96,.84,1.92,.39,2.79,.48,0,.36,0,.73,0,1.09-3.12-.32-3.8,1.03-3.1,3.74,.47,1.81,.87,3.62,1.63,5.34,2.29,5.13,6.22,9.1,10.14,13.09,1.41,1.43,2.95,2.03,4.86,.92,.45-.2,.61-.53,.53-.99-.58-.99-.35-2.06-.3-3.11,.36,0,.72,0,1.08,0,.26,1.4,.01,2.92,1.05,4.15-3.58,2.33-8.09,2.94-11.81,5.57,6.48,3.28,12.66,2.44,18.86,.32,.55,.04,1.07,.15,1.32,.71-.3,1.21,1.79,1.52,1.19,2.85-1.11,.62-1.34-.45-1.72-.93-.75-.95-1.57-1.08-2.68-.74-6.11,1.87-12.08,1.89-17.83-1.2-.9-.48-1.66-.52-1.24,.86l-.16,1.38c-1.19-1.89-2.76-1.69-4.68-1.04-4.3,1.45-8.74,2.18-13.27,1.13-.81-.19-2.71,.08-2-1.86,9.91,3.22,17.92-1.65,26.67-5.2-4.36-3.19-8.5-3.46-13.05-2.14-4.74,1.38-9.06,3.68-13.75,5.14-.32-.22-.64-.45-.96-.67,.82-.85,2.96-.71,2.79-1.84-.2-1.3-1.99-1.78-3.39-2.11-.9-.21-1.81-.4-2.73-.44-8.12-.38-15.37,2.44-22.55,5.33,.44,1.79,2.8,1.42,2.88,3.14-1.29,.76-2.16-.3-2.76-.91-1.43-1.46-2.92-1.48-4.64-.77-.01-.39-.02-.78-.03-1.17,2.73-1.06,5.47-2.12,8.44-3.27-3.5-3.62-7.73-3.43-11.95-3.05-4.35,.39-8.33,2.1-12.43,3.36-.37-.22-.74-.45-1.11-.67-1.31-2.95-4.82-4.5-8.95-3.93-6.82,.95-12.82,4.21-19.23,6.31-1.49-.25-1.14,1.43-2.04,1.79-1.47-.84-2.8-.02-3.45,.89-.56,.79,.63,1.69,1.36,2.37,.51,.47,1.05,.91,1.58,1.36-.05,.35-.11,.7-.16,1.05-.44-.23-1.07-.35-1.3-.71-2.32-3.53-5.23-3.22-9.03-2.11-5.43,1.58-10.98,1.62-15.41-2.83-.43-.43-.96-.15-1.44-.11,0-.38,0-.76,.01-1.14,2.53-1.15,5.06-2.3,7.78-3.53-1.5-1.25-3.02-1.43-4.5-1.78-3.63-.84-7.14,.24-10.7,.49Zm88.7-21.21c-.1-.21-.2-.43-.3-.64-.08,.06-.15,.13-.23,.19,.19,.13,.39,.27,.58,.4,.06,.04,.12,.07,.18,.11-.08-.02-.16-.04-.24-.06Zm-54.61,15.38c.01-.08,.03-.17,.04-.25-.09,.05-.18,.09-.27,.14,.09,.03,.17,.06,.26,.09,.09,1.29,.25,2.55,1.64,3.21,.17,.08,.73-.17,.72-.26-.02-1.54-1.05-2.35-2.39-2.93Zm12.47-27.21s0-.01,0-.01c-.32-.06-.64-.12-.96-.18,.17-1.34,.36-2.68,.5-4.02,.08-.74,.96-1.91-.41-2.06-1.18-.13-2.02,.77-1.78,2.13,.12,.67,.23,1.33,.34,2-.26,.31-.52,.61-.78,.92-.53-1.48-1.01-2.98-1.59-4.45-.51-1.31-7.06-2.74-7.99-1.76-.17,.18-.26,.54-.21,.8,.78,4.69,1.62,9.38,5.59,12.78,1.28,1.09,2.74,1.78,4.31,.34,.15-.2,.31-.4,.46-.6,.11-.6,.21-1.21,.32-1.81,.4-.39,.39-.75-.05-1.11-.04-.4-.09-.8-.13-1.2,3.46-.61,.91,2.02,1.7,2.86,.02,1.39,.04,2.8,1.87,3.21,1.58,.35,3.02,.14,4.15-1.1,.74-.82,1.18-1.78,1.6-2.78,.27-.63,.55-1.95,1.79-.73-.4,.9-.74,1.83-1.22,2.68-.72,1.28-.06,1.83,1.12,2.09,1.98,.45,4.44-1.66,3.74-3.43-.97-2.47-1.22-5.12-2.28-8.23-.55,2.77-.97,4.88-1.39,6.99-1.36,.42-1.33-.48-1.2-1.26,.22-1.32,.58-2.63,.88-3.94,.08-.4,.16-.8,.25-1.2,.04-.59,0-1.2,.12-1.77,.57-2.52-.48-3.16-3.07-2.97-4.32,.31-4.32,.16-4.99,4.39-.15,.96-.37,1.92-.56,2.87-.14,.16-.18,.34-.12,.55Zm-17.28,21.79c2.59-.89-.4-2.5,.51-3.61,1.21,.33,1.26,1.49,1.72,2.31,2.51,4.42,5.97,8.11,9.46,11.82,1.79,1.9,3.43,.78,5.25,.22,2.06-.63,1.37-2.18,1.4-3.43,.05-2.64-1.46-4.85-2.4-7.22,.43,0,.86,0,1.29-.01,1.49,2.51,2.53,5.17,2.52,8.09,0,1.38,.55,1.35,1.7,1.05,1.6-.42,2.54-1.09,2.35-2.84-.23-2.15-.18-4.33-.53-6.46-.76-4.55-2.51-8.71-5.96-12.08-.88-.86-1.55-1.49-3.14-.95-1.64,.56-1.19,1.54-1.31,2.51-.26,2.03,.47,3.95,.63,5.94-1.93,.19-1.81-1.78-2.89-2.49,.23-1.05,.97-2.02,.7-3.16-1.42-.16-1.33,1.22-2.17,1.51-.86-.82-1.76-1.61-2.56-2.47-1.99-2.16-4.59-.67-6.84-.8-.49-.03-.74,2.89-.13,4.47,.07,.18,.14,.36,.21,.54-.38,0-.76-.01-1.14-.02-1.27-1.77-.37-3.84-.79-5.73q-3.17,.53-2.26,2.49c-.11,.44-.22,.87-.32,1.31-1.03-1.22-2-2.49-3.11-3.64-1.02-1.06-5.25-.56-5.3,.6-.11,2.72-.35,5.5,1.45,7.94,3.07,4.18,5.16,8.69,4.84,13.95q6.45-1.07,6.58-6.6c-.04-.24-.08-.48-.12-.72-.13-.82-.26-1.64-.38-2.46,.24-.03,.48-.05,.72-.08Zm96.05-80.49c1.02-.4,2.05-.81,3.07-1.22,.75-.3,1.73-.57,1.13-1.61-.5-.87-1.2-.32-1.82,.03-2.91,1.63-5.79,3.3-8.74,4.86-1.05,.56-1.31,1.13-.64,2.07,.36,1.12,.65,2.26,1.09,3.34,2.22,5.41,4.65,10.74,6.69,16.21,1.92,5.14,3.15,10.43,.87,15.83-.22,.42-1.05,.78-.4,1.27,.39,.3,.86-.14,1.02-.63,1.32-.6,1.45-1.85,1.68-2.97,.64-3.08,.95-6.21,1.04-9.35,.26-8.17-1.14-16.23-1.82-24.33-.2-2.35-1.02-2.89-3.16-2.3,0-.4-.02-.8-.03-1.19Zm-35.33,27.84c-.11-.28-.15-.62,.23-.67,1.49-.18,1.92-.94,1.47-2.25-.57-1.64-1.75-.61-2.52-.37-2.16,.66-4.16,1.7-5.98,3.02-.58,.42-1.35,.84-.83,1.62,.46,.69,1.08-.01,1.63-.12,1.99-.39,3.69-2.11,5.97-1.21-.91,1.58-3.24,.93-4.44,2.38,2.18,1.06,4.28,1.81,5.99,3.25,.56,.48,1.5,.95,1.91-.21,.69-1.95-1.33-5.06-3.43-5.43Zm-7.38-7.66c.21,1.24-.48,2.71,1.47,3.43,2.3,.84,4.35,.06,6.11-.92,1.34-.75,.16-2.3-.16-3.47q-1.2-4.31-5.52-2.69c-.48,.18-.93,.42-1.39,.63-2.31,.15-4.29,1.32-6.48,1.85-1.03,.25-1.28,.88-.97,1.79-.32,6.23,.93,12.52-.73,18.83,1.98-1.76,3.56-3.69,4.52-6.15,1.79-4.59,1.28-9.51,2.43-14.18,.24,.29,.48,.59,.73,.88Zm-15.72,36.33c1.55,.17,1.53,1.68,2.44,2.74,.66-2.38,1.26-4.55,1.86-6.72,.15-.56,.42-1.37-.46-1.39-1.22-.04-2.55,.03-3.64,.48-1,.41,.17,1.35,0,2.1-.15,.66-.06,1.37-.08,2.06-.94-.27-.69-1.12-.91-1.72-.82-2.29-5.42-4.06-7.57-2.88-.51,.28-.64,.76-.58,1.26,.52,4,.83,8.05,3.07,11.64,.88,1.41,1.91,2.76,3.87,2.34,2.02-.43,2.58-2.09,2.86-3.82,.33-2.11-.6-4.06-.87-6.09Zm40.45-18.87c3.59,1.32,6.76,3.22,9.47,5.87,.74,.73,1.84,1.26,3.1,.63,1.29-.65,.9-1.57,.59-2.53-.39-1.22-1.02-2.46-1.02-3.69,0-2.31-2.81-3.12-2.83-5.32,.55-2.18-.58-4.07-1.85-5.5-.89-1-2.29,.43-3.43,1.06,1.48,1.86,4.39,2.05,5.27,4.43-1.09,.8-1.55-.32-2.23-.69-1.52-.82-2.99-1.73-4.52-2.54-.6-.32-1.64-.79-1.76,.19-.31,2.64-2.24,5.05-1.27,7.87-.46,1.34-.5,2.57,1.44,3.37-1.04,.07-1.63,.1-2.23,.14-2.06-.04-4.13-.19-6.18-.09-3.09,.14-5.12,1.7-6.31,4.46-1.96,4.57-1.64,5.05,3.45,4.6,.82-.07,1.65-.06,2.47-.12,5.29-.38,10.52,.46,15.77,.78,2.05,.12,2.3-.63,1.95-2.2-.62-2.72-2.54-4.41-4.91-5.77-.43-1.45-1.6-2.3-2.95-2.72-1.25-.39-1.87-1.03-2.02-2.2Zm-32.35,31.11c-1.83-.57-3.78-.74-5.51-1.63-.59-.3-.48-1.84-1.74-.95-.77,.54-1.3,1.2-1.24,2.22,.16,2.55,.37,4.99,2.15,7.2,2.91,3.62,4.94,7.66,5.23,12.36,.05,.81-1.02,2.63,.9,2.32,1.48-.24,4.05,.52,4.27-2.29,.25-3.23,.4-6.41-.27-9.65-.71-3.42-2.49-6.38-3.76-9.56,.7-1.05,1.72,2.43,2.22-.12,.14-.7,.75-2.06-.54-2.15-1.11-.07-1.76,1.05-1.7,2.24Zm-12.87,18.29c1.58,1.46,3.19,2.89,4.73,4.39,1.21,1.18,2.4,.56,3.68,.18,1.45-.43,1.86-1.37,1.9-2.65,.05-1.68-.16-3.32-.69-4.94-1.81-5.5-5.62-9.75-9.67-13.8-1.6-1.6-3.1-3.93-6.19-2.22-.45,.25-1.45-.1-2.03-.43-2.14-1.24-2.24,.11-2.13,1.52,.26,3.4,1.65,6.42,3.46,9.34,1.94,3.13,4.77,5.59,6.89,8.58-2.31,.74-2.31-2.43-4.3-2.4,.2,1.95,.97,3.49,2.9,4.07,1.47,.44,.43-1.49,1.44-1.64Zm58.38,1.79c-.39-6.84-3.9-12.68-8.13-18.26-2.09-2.75-4.22-4.53-8.11-2.89-1.25,.52-1.62,.9-1.43,2.02,1.58,9.48,6.79,16.95,14.26,23.1,1.71,1.41,2.86,.54,3.26-1.34,.16-.76,.1-1.57,.15-2.63Zm-99.55-.25c.17-2.67-.59-4.69-1.56-6.66-2.33-4.78-5.83-8.76-9.53-12.61-1.89-1.96-4.57-1.69-6.47-1.29-1.95,.42-1.17,3.06-.93,4.74,.21,1.43,.74,2.87,1.38,4.19,2.62,5.43,7.02,9.56,11.26,13.8,1.27,1.27,2.56,1.63,4.4,.86,1.91-.79,1.31-2.2,1.44-3.03Zm75.53,.8c-1.09-8.52-6.61-15.19-12.36-21.66-1.14-1.28-3.39-.2-5.01,.03-1.18,.17-.74,1.87-.62,2.89,1.11,9.1,6.14,16.02,13.31,21.77,1.24,.99,2.27,.51,3.43,.1,1.46-.51,1.06-1.73,1.25-3.14Zm7.11-8.24c-1-6.27-1.57-12.72-9.8-14.84-1.66-.43-1.78-.04-1.82,1.14-.12,4.05-.1,8.02,2.24,11.71,1.92,3.03,3.32,6.31,3.52,9.97,.04,.79-.64,2.32,.94,2.32,1.44,0,3.27-.08,3.6-2.07,.45-2.72,1.29-5.38,1.32-8.22Zm-84.83,19.02c7.57-.21,13.98-3.88,20.79-6.36,1.6-.58,.7-1.32-.07-1.88-1.79-1.3-3.86-1.82-6.1-1.84-8.03-.09-14.98,3.36-22.13,6.12-1.42,.55-.92,1.22-.05,1.9,2.21,1.73,4.8,2.17,7.57,2.07Zm102.91-8.42q5.21-.85,6.27-6.12c1.33-6.6-.35-12.28-5.82-16.72-1.94-1.58-3.24-1.26-3.79,1.08-.57,2.39-.94,4.97,.16,7.26,2.22,4.62,3.72,9.33,3.19,14.5Zm-11.95-40.31c-.98,.36-3.3-1.23-3.05,.92,.63,5.39,1.75,10.79,6.59,14.48,1.39,1.06,3.07,1.79,4.87,.7,1.89-1.14,1.47-2.91,1.08-4.53-.73-3.02-2.64-5.54-3.97-8.31-1.11-2.29-2.58-3.77-5.52-3.27Zm22.15,2.69c.12-.87,.36-2.08-1.03-1.9-2.03,.27-4.77-1.55-5.98,1.23-1.33,3.06-2.22,6.29-3.23,9.46-.64,2.03-.61,4.05,1.86,4.92,2.47,.87,4.11-.47,5.3-2.42,2.13-3.48,2.58-7.39,3.08-11.29Zm-120.58-3.1c-1.09,.5-3.78-1.39-3.48,1,.66,5.29,2.3,10.34,7.39,13.65,1.29,.84,2.33,.34,3.39,.09,1.29-.3,.98-1.54,.95-2.46-.09-3-1.43-5.68-2.38-8.47-.94-2.77-2.44-4.51-5.88-3.81Zm89.93-.02c-1.39,.35-3.49-.77-4.32,1.56-1.09,3.07-2.48,6.04-3.09,9.26-.26,1.38-.55,2.93,1.03,3.68,1.74,.83,3.61,.81,5.21-.51,1.04-.86,1.75-1.98,2.15-3.2,.8-2.44,1.55-4.89,2.17-7.38,.82-3.31,.62-3.49-3.15-3.42Zm-8.01-10.7c-.27-1.68-1.02-3.59-2.18-5.13-2.04-2.7-5.35-4.04-8.57-4.09-1.82-.03-1.38,3.11-2.41,4.63-.33,.48-.35,1.16-.7,1.62-1,1.36-.37,1.82,1.05,2.09,3.26,.63,6.3,1.77,9.17,3.41,2.01,1.14,3.6,.07,3.63-2.53Zm-16.73,10.34c-2.6-.53-3.86,.58-4.3,3.13-.53,3.09-1.41,6.12-2.16,9.17-.31,1.26-.75,2.66,.81,3.36,1.58,.71,3.22,.52,4.57-.71,1.07-.98,1.71-2.24,2.02-3.58,.68-2.97,1.26-5.96,1.83-8.94,.39-2.04-.41-3.01-2.77-2.44Zm7.71,.29c-2.78-.19-3.03-.16-2.88,.92,.69,5.03,1.76,9.98,6.49,13.18,2.39,1.61,3.87,.86,4.06-1.93,.17-2.5-.52-4.89-1.3-7.23-1.76-5.27-.71-4.46-6.38-4.94Zm-56.28-.25c-.94,.33-2.97-.62-3.56,1.68-.96,3.72-2.21,7.39-2.67,11.21-.32,2.68,1.62,3.94,4.25,2.87,1.33-.54,2.11-1.58,2.61-2.79,1.43-3.44,1.27-7.21,2.37-10.73,.64-2.06-.57-2.65-2.99-2.24Zm4.52,3.74c-1.02,3.25-1.13,6.62-2.58,9.69-1.1,2.34-.5,3.06,2.24,2.87,1.27-.09,2.32-.64,3.42-1.2,1.28-.65,1.57-1.14,.63-2.39-2.02-2.66-2.87-5.81-3.72-8.97Zm73.17,1.47c-1.17,3.16-1.64,6.42-3.67,9.08-.27,.35-.25,.83,.15,1.03,1.86,.93,3.58,.31,5.28-.51,1.37-.66,1.53-1.45,.85-2.82-1.02-2.09-1.69-4.33-2.61-6.77Zm-25.21,.15c-.93,2.91-1.06,5.56-2.28,7.91-.66,1.27,.06,1.8,1.15,2.15,1.81,.57,3.41-.04,4.97-.87,.55-.29,.77-.66,.33-1.14-2.04-2.21-2.74-5.1-4.17-8.06Zm42.93-3.39c-1.77-.09-3.48-.29-5.19,.17-1.3,.34-1.96,1.01-1.21,2.34,1.13,2.01,2.25,4.01,3.6,6.41,1.03-2.94,1.9-5.4,2.75-7.87,.09-.26,.04-.56,.06-1.04Zm-116,4.8c-.53,2.56-.77,4.69-1.51,6.69-.28,.76-1.41,1.59-.61,2.36,.88,.84,2.16,.34,3.22,0,.87-.28,1.67-.76,2.5-1.16,.69-.33,.91-.78,.34-1.37-1.69-1.74-2.32-4.07-3.93-6.53Zm13.47,3.17c.79-2.91,1.42-5.18,2.02-7.47,.14-.54,.4-1.46-.36-1.46-1.2,0-2.47,.31-3.57,.79-1.07,.47-.69,1.48-.35,2.34,.69,1.73,1.36,3.47,2.26,5.79Zm72.17-1.26c.62-1.66,.99-2.66,1.36-3.65q1.65-4.45-3.58-3.8c.68,2.27,1.35,4.52,2.22,7.45Zm-89.44,23.73c0,2.21,.07,3.82-.02,5.41-.08,1.25,.53,1.48,1.64,1.37,.98-.09,1.89-.19,1.69-1.46-.29-1.92-.9-3.67-3.31-5.33Zm101.63,7.38c.61-.43,2.38,.57,1.97-1.24-.31-1.36-.34-3.6-2.06-3.49-1.61,.1-.92,2.37-1.39,3.63-.49,1.32,.62,1.1,1.48,1.11Zm-50.99-7.43c.21,2.4-.77,4.21,.98,5.51,.53,.39,1.15-.31,1.38-.83,.83-1.9-.42-3.01-2.36-4.68Zm75.75-3.27c-.23,2.19-.86,4.56,2.05,5.81,1.45-2.63-1.07-3.98-2.05-5.81Zm7.46,10.08c-.9-1.74-1.81-3.38-3.72-4.45-.27,4.1-.05,4.35,3.72,4.45Zm-29.1-4.23c-.18,4.14,.49,4.98,3.77,4.57-1.51-1.38-1.9-3.46-3.77-4.57Zm21.41-.2c-.5,1.67-1.73,2.95-.58,4.28,.45,.52,2.11,.12,2.42-.58,.66-1.48-.67-2.38-1.85-3.69Zm-99.34-1.85c0,1.62,0,2.94,0,4.25,0,1.05,.75,.95,1.49,.91,.87-.05,1.07-.72,.88-1.22-.48-1.31-.66-2.83-2.37-3.94Zm50.34,1.84c-.11,1.45-1.37,2.83,.3,3.96,.5,.34,1.72,.29,1.87-.36,.34-1.55-.48-2.74-2.16-3.6Zm-72.9,.21c1.11,1.52-.16,5.03,3.92,4.19-1.01-1.7-2.05-3.28-3.92-4.19Zm127.62-56.53c-.98-1.93-1.1-3.49-2.89-3.93-.69-.17-.96,.31-.88,.83,.27,1.74,1.92,1.94,3.76,3.1Zm-10.38,40.53c.82,1.09,1.62,2.15,2.53,3.35q.4-4.44-2.53-3.35Zm-112.52-3.88c.22,1.5,.15,2.72,1.35,3.32,.45,.23,.84-.42,.95-.89,.38-1.53-.64-2.02-2.31-2.43Zm92.42,15.14c-.23,1.51-.59,2.87,1.01,3.7,.2,.1,.73,.04,.78-.08,.65-1.43-.65-2.23-1.23-3.26-.04-.07-.15-.1-.56-.35Zm-16.42-11.24c-.98-1.66-1.35-2.99-2.67-3.71-.09-.05-.64,.35-.61,.45,.36,1.27,1.43,2.06,2.33,2.96,.06,.06,.19,.07,.95,.3Zm44.72-45.9c-.14-.18-.22-.39-.34-.41-.14-.02-.31,.11-.46,.18,.14,.17,.28,.34,.42,.51,.13-.1,.25-.19,.38-.29Zm4.76,66.67l.12-.12-.19-.03,.07,.15Z"/>
  <path class="cls-15" d="M227.85,130.39c0-.34,0-.68,0-1.02,.5,0,1.02,.06,1.51-.01,1.73-.25,4.15,1.34,5.03-.28,.96-1.78-.61-3.84-1.75-5.58,.27-.23,.54-.46,.81-.69,.73,.91,1.46,1.82,2.19,2.73,2.61-1.55,.1-2.64-.36-3.91,.24-.24,.47-.49,.71-.73,.76,.36,1.22,1.59,2.33,.92,1.06-.63,1.35-1.71,1.31-2.84-.26-8.06-2.47-15.51-7.71-21.98-.5-.62-.99-1.39-1.91-1.35-3.13,.13-5.65-1.48-8.39-2.51,.43-.38,.85-.77,1.28-1.15,1.58,.92,3.17,1.89,5.05,2.12,9.25,1.13,16.62-3.58,24.87-6.9-2.61-1.79-5.05-2.1-7.53-2.17-3.93-.12-7.81,.4-11.68,.95-4.98,.71-9.78,.95-12.42-4.39-.05-.11-.38-.09-.58-.14-1.66-.45-1.9-1.46-1.93-3.06-.04-2.36,2.58,.74,2.39-1.27,1.47,1.91,1.9,4.34,3.48,6.22,1.73,2.05,4.14,2.17,6.18,1.37,1.83-.71,.22-2.6,.2-3.95,0-.76-.42-1.52-.61-2.28-.9-3.61-3-6.91-3.06-10.74h.29s.29,0,.29,0c1.79,5.39,1.82,5.41,7.09,3.89,.29-.08,.56-.25,.85-.34,9.95-2.78,19.91-5.55,29.87-8.32,.68,.08,1.45-.12,1.92,.59-8.48,2.46-16.94,4.97-25.45,7.33-1.81,.5-2.56,1.17-2.24,3.02,.3,1.75,.44,3.12,3.01,3.02,2.77-.11,5.56,.52,8.11,1.67,1.24,.56,2.37,.4,3.59,.16,6.56-1.29,13.1-1.61,19.54,.62,1.56,.54,3.06-.02,4.58-.2,6.41-.77,12.75-.92,18.93,1.35,4.69,1.72,8.07,4.69,9.82,9.2,.46,1.2,1.25,1.88,2.32,2.57,6.53,4.27,9.05,13.03,5.8,19.99-.47,1.01-1.06,1.95-.72,3.06,2.14,6.97-.06,13.04-4.49,18.48-1.59,1.95-2.25,3.55-1.25,5.98,1.48,3.62,.1,7.64,1.31,11.36-.03,.19,0,.36,.12,.52,.09,.44,.18,.88,.27,1.32-.06,.06-.17,.14-.16,.17,.05,.14,.14,.26,.21,.38,.03,.4,.06,.81,.08,1.21-.38,0-.75-.01-1.13-.02-.06-.47-.11-.95-.17-1.42-.07-.3-.15-.6-.22-.9-.34-.53,.03-1.39-.35-1.54-5.77,2.43-6.74,6.76-6.07,11.86,.14,1.05-.18,2.16-.35,3.23-.88,5.74-4.52,8.69-10.57,8.61-.52,0-1.03-.1-1.55-.1-.51,0-1.17-.33-1.63,.6,2.93,.95,5.76,1.06,8.59,.29,7.44-2.03,11.09-7.09,12.23-14.11,.39,0,.78,0,1.17,0-.53,6.71-3.86,11.73-10.34,14.44-2.69,1.13-5.46,2.1-8.08,3.39-.07-.35-.14-.7-.21-1.04,.13-.22,.25-.44,.38-.66-2.74-.59-5.38-2.18-8.33-.79-.28-.22-.57-.44-.85-.67,.87-.49,1.7-1.09,2.62-1.43,3.09-1.16,4.48-3.49,5.04-6.42q.69-3.59-3.08-3.29c0-.36,0-.71,0-1.07,3.11-.09,4.18-1.64,3.68-4.48-.19-1.05,0-2.16-.06-3.23-.4-6.67-2.55-9.7-7.96-11.28-.25-.49-.71-.6-1.22-.63,0-.4-.02-.79-.02-1.19,.4,0,.81,0,1.21,0,.91,.43,1.82,.87,2.74,1.29,1.11,.5,2.37,1.15,3.47,.39,1.18-.81,.77-2.27,.39-3.27-1.19-3.21-2.65-6.33-3.97-9.5-.29-.69-.98-.61-1.5-.85,.05-.35,.1-.7,.15-1.05,1.35,.12,2.21-.18,1.8-1.76-.8-3.06-2.81-4.98-5.96-5.82-3.55-.94-7.18-.89-10.78-.55-2.96,.29-5.3,1.61-6.26,4.53-.36,0-.72,0-1.09,0,.81-2.2-1.38-2.98-2.29-4.37-.07-.11-.61-.11-.76,.02-.18,.16-.33,.67-.24,.75,1.48,1.25,1.28,3.55,3.11,4.57,.68,1.64-.74,1.98-1.75,2.58-.25-5.01-2.73-7.7-7.9-8.15-2.98-.26-5.99-.25-8.98-.14-3.82,.14-5.93,2.04-6.97,5.58-.52,1.79-.37,2.6,1.86,2.34,1.73-.21,3.5-.16,5.25-.22,0,.34,0,.68,0,1.02-2.64-.18-3.84,1.08-4.26,3.5-.36,2.02-1.11,3.98-1.69,5.97-.54-1.06-1.51-1.02-2.51-.92-.82-1.55-2.02-3.02-2.39-4.66-.66-2.91-2.44-3.94-5.3-3.86Zm45.8-21.64c.15,.12,.38,.37,.43,.34,.36-.23,.16-.47-.05-.7-.77-1.06-1.07-2.46-2.48-3.33-.18,1.88,.45,3.06,2.11,3.69Zm-21.59,2.24c.03,.09,.07,.17,.1,.26,.07-.08,.14-.16,.21-.24-.09-.02-.19-.04-.28-.05-.73-2.02-2.2-3.47-3.97-5.01-1.3,3.91,1.71,4.18,3.94,5.05Zm12.65,5.72c-.08-5.8-1.82-11.07-5.25-15.84-2.05-2.85-4.27-5.34-8.49-4.65-.67,.11-1.41-.21-2.12-.33-.97-.16-2.1-1.2-2.82-.52-.84,.81,.03,2.02,.37,3.01,3.14,9.22,11.15,15.48,15.9,23.73,.74,1.29,1.72,1.05,1.95-.41,.27-1.65,.32-3.33,.46-5Zm24.41,2.94c-.41-6.03-2.83-11.18-5.92-16.13-2.47-3.94-5.05-7.42-10.62-7.71-2.12-.11-2.54-.14-2,1.87,2.49,9.18,8.96,16.18,14.28,23.81,.63,.9,1.74,1.53,2.96,1.04,1.41-.57,1.18-1.92,1.29-2.88Zm1.59,53.36c6.35,.73,9.81-1.57,10.63-7.23,1.01-6.9,.24-13.74-1.16-20.52-.13-.62-.11-1.54-1.26-1.1-2.3,.88-4.76,1.64-5.14,4.49-.25,1.85-.43,3.71-.59,5.57-.54,6.29,1.03,12.82-2.48,18.79Zm3.46-79.47c7.11,5.83,16.17,9.24,19.81,18.37,2.84-6.19,1.48-12.89-3.08-17.05-4.03-3.68-10.14-4.28-16.72-1.32Zm-47.43,12.57c-.19-3.97-1.93-7.85-3.85-11.67-.27-.53-.64-.93-1.41-.93-3.86-.01-6.66,4.38-4.96,7.79,2.58,5.21,4.26,10.65,4.53,16.45,.04,.81-.57,2.06,.57,2.35,1.34,.35,1.95-.89,2.43-1.86,1.87-3.71,2.11-7.77,2.69-12.14Zm30.22-17.49c-7.95-4.78-20.54-2.42-32.6,4.01,11.96,5.58,21.81-.32,32.6-4.01Zm-7.51,4.35c2.6,1.83,5.39,2.31,8.29,2.46,8.29,.43,15.31-3.91,23.24-5.33-2.87-3.58-6.24-4.63-11.47-3.71-6.95,1.22-13.38,3.86-20.06,6.57Zm35.5,30.56c-1.55,.07-3.02,1.11-4.11,.21-1.86-1.53-2.27-.04-2.81,1.02-2.3,4.52-3.92,9.29-5.1,14.18-.4,1.66-.45,3.52,1.37,4.48,1.9,1,3.6-.02,5.05-1.21,.69-.57,1.28-1.28,1.79-2.01,3.54-5.07,4.05-10.75,3.81-16.67Zm3.12-17.47c-.66,.67-.27,1.47-.3,2.21-.12,3.53,.17,7.11-.79,10.54-1.19,4.25-.29,8.6-.91,12.87-.09,.59,.42,1.27,.7,1.9,.46,1.07,.93,1.32,1.9,.28,8.43-8.99,6.56-22-.6-27.8Zm-37.31,5.99c-.01-5.37-.87-10.96-4.08-16-.44-.69-.68-1.95-1.9-1.55-1.1,.37-2.77,.13-3.15,1.5-.52,1.84-1.24,3.7,.02,5.67,3.2,5,4.53,10.48,4.29,16.32-.05,1.19-.2,2.46,1.63,2.59,1.56,.11,2.6-.56,2.98-1.98,.54-2.02,.48-4.09,.21-6.56Zm28.02-4.08c.53,4.3,.4,8.65,1.65,12.85,.25,.86,.48,1.85,1.61,1.91,.95,.05,1.77-.45,2.36-1.21,.95-1.22,1.41-2.63,1.53-4.11,.22-2.74,.08-5.52,.54-8.22,.83-4.88-2.02-7.39-5.94-9.47-1.27-.68-1.81-.74-1.76,.89,.08,2.45,.02,4.9,.02,7.35Zm-44.08-27.77c1.39,1.58,2.57,2.81,3.6,4.15,.63,.83,1.27,1.1,2.34,.91,6.04-1.07,11.93-.9,17.36,2.29,1.21,.71,2.46,.07,3.08-.58,.68-.71-.47-1.53-1.02-2.16-1.55-1.76-3.48-3.09-5.73-3.92-6.4-2.36-12.9-2.23-19.63-.69Zm35.72,42.08c1.56-1.51,1.62-1.5,1.85-2.4,1.31-5.14,1.61-10.34,.54-15.53-.56-2.71-1.79-5.23-3.1-7.71-.53-1-1.1-1.46-2.42-1.15-1.28,.3-1.71,.83-1.59,2.03,.15,1.48,.08,2.97-.71,4.32-.61,1.04-.13,1.85,.41,2.73,3.3,5.42,5.52,11.14,5.02,17.7Zm15.64-31.67c-2.51-9.21-15.94-12.36-28.21-9.55,.62,.5,1.35,.83,1.65,1.37,2.3,4.07,5.67,3.89,9.78,2.84,5.15-1.31,9.84-.16,13.2,4.18,.86,1.11,2.03,1.15,3.58,1.16Zm-3.54,62.74c7.03-1.34,7.63-11.72,2.51-19.28-.44,3.03-1.47,5.62-3.48,7.78-.63,.68-.49,1.46-.3,2.23,.75,3.04,1.38,6.09,1.26,9.26Zm-57.82-33.22c4.27,.18,8.12-.12,11.78,1.12,.62,.21,1.26,.87,1.93,.1,.67-.77,.21-1.49-.21-2.17-2.14-3.44-4.94-6.18-8.82-7.9-1.62-.72-2.04-.04-2.17,1.24-.25,2.57-1.19,4.94-2.52,7.61Zm-4.45-39.28c-.23,2.95-.23,2.91,2.54,2.9,3.92-.02,7.83-.07,11.09,2.61,1.02,.84,2.37,.19,3.13-.42,1.01-.81-.31-1.51-.79-2.05-3.23-3.7-7.63-5.08-12.46-5.66-2.47-.3-4.17-.07-3.51,2.63Zm-1.21-2.79c-.15-1.26-.39-2.91-.54-4.56-.1-1.1-.33-1.44-1.7-1.1-6.03,1.49-6.05,1.42-4.61,7.02,.22,.85,.41,1.72,.56,2.58,.23,1.28-.08,2.76,2.29,2.46,1.96-.25,3.73-.3,3.78-2.77,.02-1.08,.12-2.15,.21-3.63Zm58.24,27.01c-1.34,2.46-2.04,4.58-2.34,6.8-.38,2.83-.43,5.71-1.42,8.43-.48,1.31-.64,2.48,.36,3.59,.53,.59,1.27,.8,1.93,.33,1.39-.97,3.28-2.01,2.96-3.79-.89-4.92-.92-9.9-1.5-15.37Zm-25.08,4.64c0,2.73,.03,5.17-.02,7.61-.01,.72-.08,1.35,.76,1.7,2,.84,4.03,1.41,6.26,1.06,1.46-.23,1.72-.89,.91-2-2.18-3.02-4.09-6.27-7.92-8.37Zm22.66-2.92c1.34-3.12,2.93-5.33,2.55-8.12-.26-1.94-2.26-2.36-3.41-3.52-.32-.32-.73,.04-.96,.4-.82,1.27-1.5,2.45-.51,4.02,1.22,1.93,1.55,4.2,2.33,7.21Zm.02,21.48c-6.99,1.41-8.08,4.78-3.51,10.27,1.17-3.42,2.32-6.78,3.51-10.27Zm.78-1.93c-2.87-1.91-5.64-3.7-9.23-2.02,1.17,1.53,1.35,3.47,2.2,5.34,2.22-1.61,4.49-2.7,7.03-3.32Zm-58.53,12.09c.51-1.89,.98-3.55,1.41-5.23,.18-.69,1.05-1.64,0-2.04-1.17-.45-2.39,.27-3.5,.78-.86,.4-1.17,1.11-.66,1.95,.85,1.41,1.17,3.12,2.74,4.54Zm46.54-36.7c.8-2.13,1.38-3.88,.36-5.11-.85-1.02-2.45,0-4.01,.28,1.2,1.58,2.26,2.98,3.66,4.82Zm8.09,48.06c.73-1.59,1.46-2.97,1.99-4.42,.3-.82-.66-1.13-1.18-1.48-.72-.48-.65,.39-.95,.66-1.82,1.63-1.08,3.27,.14,5.24Zm-57.13-52.11c.09-.92,1.75-1.56,.43-2.48-.32-.22-1.37,.02-1.66,.37-.92,1.13,.52,1.47,1.23,2.1Zm24.83,.94c.54-1.17,1.07-2.05,.49-2.64-.76-.77-1.66-.07-2.61,.45,.65,.67,1.25,1.29,2.12,2.18Z"/>
  <path class="cls-3" d="M265.66,62.99c-9.96,2.77-19.91,5.54-29.87,8.32-.29,.08-.56,.25-.85,.34-5.27,1.52-5.3,1.5-7.09-3.89,1.61-1.21,3.21-2.42,4.82-3.62,.78-.9,2.21,2.8,2.67-.35,2.16-.64,4.72-.61,5.72-3.15,.35,0,.7,.02,1.05,.02,1.15,.31,2.21,.06,3.33-.27,4.23-1.27,8.49-2.43,12.74-3.65,23.4-6.71,46.8-13.43,70.21-20.15,.17,.45,.34,.91,.52,1.36,1.18,1.88,.7,3.91,.61,5.9-.38,.15-.75,.33-1.14,.44-19.3,5.53-38.61,11.02-57.9,16.6-1.67,.48-3.73,.33-4.83,2.1Z"/>
  <path class="cls-15" d="M135.96,121.94c-.89-.31-2-.19-2.57-1.15,2.02-3.33,1.46-5.79-2.08-8.19-4.25-2.89-8.99-4.79-14.08-5.88-5.36-1.15-10.65-1.2-15.75,1.02-.46,.2-2.05,.21-.87,1.47,0,.36,0,.73,0,1.09-3.67-.68-7.41-.4-11.11-.64,0-1.23,.92-1.23,1.83-1.22,.8,1.09,1.61,1.17,2.42,0,1.24-.02,2.47-.05,3.71-.07,.36,.11,.56-.05,.65-.36,5.74-3.72,12.09-3.85,18.63-2.86,3.17,1.02,6.46,1.72,9.46,3.2,.86,.42,1.72,.61,2.56-.06,2.16-1.71,4.86-2.42,7.33-3.58,1.57-.19,2.99-1.2,4.67-.75,.51,.44-1.47,1.62,.64,1.67,2.36,.06,4.6,.86,6.76,1.75,2.09,.86,3.96,.17,6.37-.45-3.39-1.85-6.54-2.45-9.85-2.47-.73,0-1.87,.08-.58-1.02,2.1,.13,4.1-.46,6.14-.76,1.08,1.69,2.87,2.16,4.89,2.83-.26-1.58-.46-2.82-.67-4.06-1.74-1.4-.96-3.04-.5-4.65,.27-1.08,.28-2-1.34-1.76-1.49,.22-2.97,.48-4.46,.73-1.73,.29-1.44,1.22-.76,2.26-.45,.71-.86,1.01-1.57,.15-1.83-2.23-2.55-2.19-4.11,.29-1.51,2.39-3.67,3.86-6.53,3.44-2.56-.37-1.27,1.09-1.39,1.94-5.68,2.92-11.32,2.36-16.95-.14-1.45-2.77-.85-4.44,2.12-7.09,1.24-1.1,3.81-1.43,3.66-3.07-.11-1.19-2.25-2.14-3.27-3.36-7.21-8.56-12.6-18.13-16.91-28.28-2.31-5.44-5.15-10.68-6.92-16.33-.15-.3-.3-.61-.46-.91-.16-.11-.2-.25-.13-.43,.09-.53,.12-1.09,.73-1.37,2.75,6.26,5.51,12.5,8.23,18.77,4.27,9.85,9.36,19.25,16.51,27.53,3.61,4.18,3.59,4.1,9.07,2.42,1.87-.57,1.87-.97,.61-2.19-6.62-6.36-11.45-13.92-15.57-21.89-5.66-10.94-10.47-22.23-14.94-33.65,1.75-1.8,1.67,.26,1.97,.94,2.21,5.2,4.22,10.47,6.5,15.63,4.97,11.24,10.03,22.44,17.84,32.26,1.75,2.2,3.6,4.3,5.67,6.23,1.72,1.61,3.12,1.87,4.08-.69,.34-.92,.86-1.79,1.38-2.63,3.66-5.9,9.06-7.33,14.8-3.3,2.92,2.05,3.4,.79,4.05-1.45,.03,.62-.13,1.3,.57,1.72-1.45,11.97-1.64,23.8,4.41,34.91-.42,0-.85,0-1.27,.01-5.29-9.75-24.86-14.15-29.92-7.66,2.11,1.73,5.12,2.68,5.76,5.74-.03,.72-.21,1.48,.64,1.93,.31,1-.71,1.97-.07,2.97,.19,.29,.38,.59,.58,.88-.07,.14-.19,.2-.35,.2-.13-.03-.25-.05-.38-.08,.04,.11,.09,.23,.13,.34v.13Zm12.46-33.02c-.11-.63-.46-1.06-1.18-.89-.8,.2-.54,.84-.48,1.37-2.08,1.31-2.21,3.52-3.12,5.79,3.24-.54,6.13-1.04,9.03-1.5,1.16-.19,1.73-.98,1.36-1.86-.6-1.42,1.91-3.52-1.06-4.35-.62-.31-1.36-1.03-1.48,.39-.19,.07-.38,.14-.57,.21-.27-.64-.74-.95-1.41-.62-.11,.06,.08,.66,.12,1.01-.41,.15-.81,.29-1.22,.44Zm-26.17,7.23c-1.42,.64-2.59,1.59-3.6,2.7-2.08,2.28-1.68,3.86,1.29,4.81,3.61,1.16,7.29,.91,10.96,.21,1.72-.33,1.53-1.18,.5-1.91-2.72-1.92-2.38-3.53,.05-5.48,.76-.61,2.48-1.88,.47-3.22,.4-.72,1.83-.26,1.95-1.68-4.15,1.22-8.19,2.14-11.61,4.56Zm30.58-11.24c-6.11-4.98-11.07-4.28-14.55,1.35-.73,1.17-1.28,2.45-1.84,3.71-1.04,2.35-1.99,4.73-3.43,6.9-1.71,2.59-1.41,3.22,1.77,3.79,2.03,.36,3.59-.45,4.94-1.81,1.39-1.4,2.07-3.19,2.69-4.92,1.67-4.61,3.61-8.85,10.41-9.01Zm-.68,24.21c1.62,.94,2.81,1.62,4.1,2.36q-.35-3.26-4.1-2.36Z"/>
  <path class="cls-5" d="M99.59,33.86c4.47,11.42,9.28,22.72,14.94,33.65,4.12,7.97,8.94,15.53,15.57,21.89,1.27,1.21,1.27,1.61-.61,2.19-5.49,1.68-5.46,1.76-9.07-2.42-7.16-8.28-12.24-17.68-16.51-27.53-2.72-6.27-5.49-12.51-8.23-18.77-.24-1.56-1.39-2.87-1.33-4.51,.8-2.51,2.93-3.6,5.25-4.5Z"/>
  <path class="cls-5" d="M186.49,84.4c.75,1.57,.05,3.77,2.26,4.7,.02,.31,.04,.61,.06,.92-1.01,.51-.31,1.19-.16,1.78,1.43,5.49,2.27,11.05,1.81,16.7-.26,3.22-.67,6.51-3.49,8.85-.53,.44-1.18,.89-1.97,.63-.62-.21-.47-.78-.45-1.26,.34-8.13-2.57-15.68-4.57-23.4-.37-1.43-.83-2.84-1.25-4.26-.11-.31-.22-.61-.32-.92,.11-.11,.1-.22-.02-.32-.08-.38-.16-.75-.24-1.13-.54-3.89-1.15-7.78-.17-11.7,.11-.42-.24-.7-.73-.69-.09-.13-.19-.26-.3-.38l-.09-.14s.12-.11,.12-.11c.12,.1,.25,.18,.39,.24,1.71-.3,2-1.26,1.38-2.66,0,0,.02-.03,.02-.03,.56,.47,.81,.31,.79-.37l-.06-.09c.68,.27,.8-.04,.67-.59l.07,.04c.55-.07,.93-.22,.37-.77,0,0,.04-.03,.04-.03,.11,.39,.36,.51,.76,.36,3.13-1.54,6.19-1.07,9.23,.26,.96,.94,2.6,1.19,3.18,2.8-1.08,.39-2.1,.78-3.13,1.11-5.19,1.66-6.16,3.34-4.82,8.49,.17,.66,.43,1.3,.64,1.95Z"/>
  <path class="cls-15" d="M96.89,174.34c0,.38,0,.76-.01,1.14-1.36,.68-1.34,1.48-.37,2.52,1.34,1.43,2.99,2.47,4.81,3.15,7.27,2.71,14.77,2.11,22.26,1.18,.57-.07,1.31-.33,.48-1.08,.05-.35,.11-.7,.16-1.05,7.84,3.77,15.97,2.72,24.23,1.55q-2.75-4.85-7.68-3.61c-2.71,.69-5.48,1.19-8.26,.87-1.58-.18-3.66,.35-4.52-1.72,3.2-.1,6.29,.84,9.59,.23,6.17-1.14,11.69-3.77,17.36-6.12,.37,.22,.74,.45,1.11,.67-1.17,.59-2.31,1.24-3.52,1.74-2.12,.88-1.51,1.71,0,2.51,2.43,1.3,5.06,1.46,7.78,1.24,4.03-.32,7.83-1.55,11.69-2.53,.01,.39,.02,.78,.03,1.17-.02,1.25,1.03,1.82,1.82,2.54,3.31,3,7.53,4.1,11.79,5.12,0,.36,.01,.72,.02,1.08-5.12-2.07-9.93-.05-14.85,.92-6.66,1.32-13.14,.93-19.14-2.49-.96-.55-1.86-.6-2.94-.4-6.62,1.2-13.24,1.64-19.95,.37-3.38-.64-6.74,.58-10.13,.82-4.86,.34-9.7,.45-14.43-.8-2.48-.65-4.65,.38-6.97,.7-2.14,.29-4.29,.49-6.45,.62-1.07,.07-1.69-.32-.71-1.35,3.12-.05,6.26-.01,9.48-1.4-.85-.56-1.44-.93-1.99-1.33-3.28-2.36-4.45-2.75-8.15-2.7,.22-.39,.43-.78,.65-1.16,2.27-.8,4.54-1.6,6.81-2.4Zm80.29,8.52c-1.85-1.4-3.65-2.33-4.82-3.74-1.64-1.96-3.21-1.87-5.6-1.39-5.77,1.15-11.8,2.94-16.9-1.91-.93-.88-1.78-.06-2.5,.34-1.16,.65-.17,1.31,.24,1.85,2.6,3.4,6.13,5.46,10.4,6.42,6.44,1.46,12.66,.36,19.19-1.58Z"/>
  <path class="cls-7" d="M223.61,177.04c-.42-1.38,.34-1.34,1.24-.86,5.75,3.09,11.73,3.07,17.83,1.2,1.11-.34,1.94-.21,2.68,.74,.37,.48,.61,1.55,1.72,.93,0,0,.01,.02,.01,.02l-.15,.51c.25,.02,.5,.05,.75,.07,0,0,.02,.01,.02,.01-.47,1.44,1.98,1.19,1.61,2.68-.73,.14-1.5,.29-2.26,.45-.63,.13-1.26,.27-1.89,.4-.91,.02-1.61,.16-.88,1.24-.2,0-.41,0-.61,0,.59-2.25-1.34-1.2-1.98-1.17-5.04,.24-9.75-.76-14.2-2.97-.32-.26-.69-.48-.99-.03-.33,.48,.1,.65,.46,.82,.13,1.64-1.52,1.01-2.23,1.59-.73-.1-1.38,.11-1.99,.49-.17-.08-.34-.06-.49,.05-5.65,.55-11.24,.46-16.7-1.26,0,0,0,.02,0,.02-2.64-1.39-5.27-2.79-7.91-4.18,.13-.36,.27-.72,.4-1.08,1.24-.3,2.45-1,3.65,.25,.42,.43,1.29,.8,1.66-.28l.13-.03c-.71,1.93,1.19,1.67,2,1.86,4.53,1.05,8.97,.32,13.27-1.13,1.93-.65,3.5-.85,4.68,1.04,.33,.29,.76,.42,.96-.03,.32-.7-.4-.97-.8-1.35Zm1.67,2.4c-.07-.12-.15-.25-.22-.38-.07,.07-.21,.15-.19,.19,.03,.14,.13,.27,.19,.4,.07-.07,.14-.13,.22-.21Z"/>
  <path class="cls-7" d="M284.33,176.65c2.95-1.4,5.59,.2,8.33,.79-.13,.22-.25,.44-.38,.66-.56,.24-1.28,.27-1.44,1.01,0,0,.06-.04,.06-.04-.51-.07-1.05-.17-.94,.62,0,0,.01,0,.01,0-3.65,.51-6.94,2.35-10.66,2.6-.49,.08-.98,.16-1.47,.25-.43,0-.85,0-1.28,0l-1.42-.13c-3.14-.56-6.23-1.28-9.12-2.64-.21-.12-.43-.25-.64-.37-.4-.24-.81-.49-1.21-.73-.31-.18-.59-.59-1.01-.22-.39,.35-.16,.66,.16,.92,.5,.29,1,.58,1.5,.87,.16,.11,.33,.22,.49,.33,.66,.43,1.32,.85,1.98,1.28-.55,.96-1.59,.53-2.24,.98-.66,.11-1.31,.22-1.97,.33-1.76,0-3.52,0-5.28,0l-2-.45c-3.03-.19-5.1-2.71-8.08-3.04,0,0-.02-.01-.02-.01,.05-.17,.19-.38,.13-.5-.17-.35-.47-.21-.74-.07,0,0-.01-.02-.01-.02,.61-1.33-1.49-1.64-1.19-2.85,1.89-1.33,2.92,.51,4.3,1.05,1.26,.83,2.59,1.44,4.18,1.27,.38,.21,.76,.36,1.15,.02,3.67,.41,4.91,.15,6.13-1.28h.01c.06,.76,.59,1.09,1.22,.77,.24-.12,1.06-.74,.32-1.37v.03c.84,1.09,1.64,.07,2.34-.17,.91-.31,1.62-.59,2.55,.02,5.37,3.49,10.79,2.66,16.21,.09Z"/>
  <path class="cls-7" d="M89.49,109.66c3.7,.24,7.44-.03,11.11,.64,2.35,.72,4.74,1.34,7.04,2.19,2.12,.78,4.65,5.18,3.85,6.76-1.43,2.81-3.91,1.14-6.01,1.04-.1,0-.21-.01-.3-.05-5-1.91-10.23-2.04-15.5-1.79-.15-2.93,.88-5.88-.18-8.8Z"/>
  <path class="cls-12" d="M232.67,64.13c-1.61,1.21-3.21,2.42-4.82,3.62,0,0-.29,0-.29,0,0,0-.29,0-.29,0-.01-1-.02-2.01-.04-3.01,3.58-.55,4.43-4.03,6.88-5.8,.57-.27,1.01-.65,1.18-1.26,4.04-4.16,7.21-8.82,9.37-14.13,.72-1.77,.76-2.76-1.58-2.9-2.17-.13-2.81-.87-1.18-2.71,1.86-2.1,3.54-4.36,5.22-6.6,1.06-1.41,1.87-1.54,2.42,.28,.85,2.84,1.59,5.71,2.49,8.53,.57,1.77-.12,2.24-1.77,1.79-1.71-.47-2.57,.01-3.12,1.68-1.66,5.05-4.6,9.43-8.13,13.48-.45,0-.61,.22-.56,.62-.09,.13-.16,.27-.19,.42-2.22,1.7-4.07,3.72-5.6,6Z"/>
  <path class="cls-15" d="M238.43,59.22c16.74-4.89,33.48-9.78,50.22-14.67,9.74-2.84,19.48-5.69,29.23-8.52,.58-.17,1.21-.2,1.81-.3,.16,.33,.32,.65,.48,.98l-.27-.06s.07,.24,.07,.24c-.7,.16-1.42,.27-2.11,.47-23.47,6.78-46.93,13.61-70.42,20.33-3.19,.91-6.24,2.54-9.75,2.26l.02,.04c.24-.26,.48-.51,.72-.77Z"/>
  <path class="cls-7" d="M108.06,125.38c-.65-.1-1,.19-.85,.78,.42,1.61-.35,1.79-1.8,1.63-5.1-.59-10.22-.44-15.33-.18-.63-2.57-.76-5.17-.62-7.8,3.78,.08,7.57-.26,11.33,.54,2.79,.59,5,1.71,5.97,4.45,.22,.63,.31,1.52,1.35,.66l-.05-.07Z"/>
  <path class="cls-14" d="M265.66,62.99c1.09-1.76,3.16-1.61,4.83-2.1,19.29-5.58,38.6-11.08,57.9-16.6,.39-.11,.76-.29,1.14-.44,.48,.08,1.14-.23,1.39,.32,.36,.8-.36,.98-.95,1.15-3.83,1.1-7.66,2.21-11.49,3.3-14.88,4.25-29.76,8.52-44.66,12.71-2.15,.61-3.84,2.31-6.24,2.26-.46-.71-1.24-.52-1.92-.59Z"/>
  <path class="cls-15" d="M186.49,84.4c-.22-.65-.47-1.29-.64-1.95-1.34-5.15-.37-6.83,4.82-8.49,1.04-.33,2.05-.73,3.13-1.11-.58-1.61-2.21-1.86-3.18-2.8,.02-.44,.04-.88,.06-1.32,1.7,.5,2.88,1.82,4.55,2.73,1.3-3.62,2.99-6.78,6.72-8.71,2.78-1.44,5.3-1.51,7.94-.16,1.62,.83,3.16,1.81,4.64,2.84,1.26,.88,2.27,.6,3.28-.3,.19,.92,0,1.77-.5,2.57-2.94,.61-5.88,1.22-8.82,1.82,.6-1.63,2.36-1.23,3.54-1.85,.5-.27,1.24-.54,1.37-.95,.2-.63-.61-.91-1.09-1.25-5.47-3.9-11.97-2.08-14.7,3.87-2.05,4.47-1.02,8.82-.2,13.24-.45,.18-.9,.37-1.34,.55-.36-2.11-.79-4.21-1.06-6.33-.13-1.01-.46-1.32-1.53-1.2-6.22,.7-7.16,1.93-5.95,7.89,.06,.28,.02,.58,.03,.87-.36,.02-.73,.05-1.09,.07Z"/>
  <path class="cls-3" d="M238.43,59.22c-.24,.26-.48,.51-.72,.77,0,0,0,.13,0,.13v-.17c3.49,.27,6.54-1.35,9.74-2.26,23.49-6.71,46.95-13.54,70.42-20.33,.69-.2,1.41-.32,2.11-.47,0,0-.12,.1-.12,.1,3.11-.99,6.21-1.98,9.32-2.97,.14,.42,.28,.83,.43,1.25-23.53,6.75-47.08,13.46-70.59,20.26-5.66,1.64-11.51,2.69-16.9,5.14-.35,0-.7-.02-1.05-.02-1.91,1.04-5.07,.03-5.72,3.15-.45,3.15-1.89-.56-2.67,.35,1.54-2.28,3.38-4.3,5.6-6,.05,.36,.1,.73,.16,1.09Z"/>
  <path class="cls-14" d="M108.1,125.45c-1.03,.86-1.12-.03-1.35-.66-.97-2.73-3.18-3.86-5.97-4.45-3.76-.8-7.55-.46-11.33-.54,.07-.45,.14-.9,.22-1.35,5.27-.24,10.5-.11,15.5,1.79,.09,.04,.2,.04,.3,.05,2.1,.1,4.58,1.77,6.01-1.04,.8-1.58-1.74-5.98-3.85-6.76-2.3-.85-4.69-1.47-7.04-2.19,0-.36,0-.73,0-1.09,5.19,.74,10.08,1.97,12.52,7.11-1.14,.71-.91,1.6-.25,2.44,.71,.9,1.51,0,2.12-.18,1.03-.31,2.32-.86,1.42-2.38,.04-.19,.06-.38,.12-.56,.02-.06,.18-.12,.26-.1,.66,.18,.37,1.59,1.37,1.17,3.48-1.45,5.31,1.48,7.83,2.56-.21,.12-.42,.24-.64,.36,.4,.28,.65-.02,.92-.23h.07c-.1,.36-.2,.72-.3,1.08-.59-.16-1.17-.36-1.77-.46-9.98-1.68-13.25-.04-14.93,7.01-.26-.51-.52-1.03-.78-1.54,.55-1.11,1.45-2.33,.91-3.44-.31-.63-1.78-.55-2.74-.15,.47,1.21,.92,2.38,1.38,3.55Z"/>
  <path class="cls-13" d="M242.11,60.66c5.38-2.45,11.24-3.5,16.9-5.14,23.51-6.8,47.06-13.51,70.59-20.26-.03,.32-.06,.64-.09,.96-.37,.12-.75,.24-1.13,.36-23.4,6.72-46.8,13.43-70.21,20.15-4.25,1.22-8.51,2.39-12.74,3.65-1.12,.34-2.18,.59-3.33,.27Z"/>
  <path class="cls-12" d="M151.41,76.93c-.96-.35-.78-1.12-.77-1.77,.28-11.25,1.15-22.43,4.57-33.27,1.44-4.55,3.41-8.9,7.23-12.19,1.02-.88,2.07-1.88,3.94-1.86-.6,1.83-2.4,1.99-3.4,2.99-3.86,3.85-5.65,8.63-7.07,13.59-2.76,9.66-3.61,19.57-3.87,29.54-.03,.99,.52,2.17-.62,2.98Z"/>
  <path class="cls-7" d="M90.09,129.14c6.7-.74,5.53-1.45,5.4,4.88-.04,2.12-.69,4.23-1.12,6.34-.53,2.63-2.09,4.42-4.86,5.13-.93-5.49,.42-10.9,.58-16.35Z"/>
  <path class="cls-7" d="M96.89,174.34c-2.27,.8-4.54,1.6-6.81,2.4,.16-2.43-1.07-4.76-.6-7.22,3.56-.25,7.07-1.33,10.7-.49,1.48,.34,3,.52,4.5,1.78-2.72,1.23-5.25,2.38-7.78,3.53Z"/>
  <path class="cls-12" d="M215.81,55.13c-6.56-12.11-18.2-18.97-28.87-26.8,6.53,1.69,30.57,20.56,28.87,26.8Z"/>
  <path class="cls-12" d="M257.8,183.16c1.76,0,3.52,0,5.28,0,.69,.06,1.39,.2,1.97-.33,.65-.45,1.69-.02,2.24-.98-.66-.43-1.32-.85-1.98-1.28,.24-.27,.47-.54,.71-.8,2.88,1.37,5.98,2.09,9.12,2.64,.47,.04,.94,.09,1.42,.13,.43,0,.85,0,1.28,0,.49-.08,.98-.16,1.47-.25,3.72-.25,7.01-2.09,10.66-2.6,.08,.17,.16,.35,.24,.52-.3,.18-.59,.36-.89,.53-1.76,.93-3.6,1.66-5.63,1.86-.85,.04-1.78-.24-2.45,.54-2.9,.52-5.8,.42-8.71,0-.99-.82-2.01-.75-3.06-.12-.41,.07-.83,.13-1.24,.2-.17-.03-.32-.01-.48,.06-3.56,1.09-7.16,1.58-10.85,.68-.23-.03-.45-.06-.68-.09-.36-.03-.71-.06-1.07-.09-.33-.51-.83-.57-1.39-.51l-.25,.04s-.22-.12-.22-.12c-.77-.79-1.59-.81-2.45-.14-.2,.06-.39,.13-.59,.19-.2-.03-.39,0-.56,.12-.89,.65-1.92,.6-2.96,.54-.27,.06-.54,.11-.82,.17-.54,.12-1.08,.25-1.63,.37-.74-1.08-.03-1.22,.88-1.24,.67,.04,1.36,.15,1.89-.4,.77-.15,1.53-.3,2.26-.45,.37-1.49-2.08-1.24-1.61-2.68,2.98,.33,5.04,2.85,8.08,3.04,.55,.64,1.28,.51,2,.45Z"/>
  <path class="cls-7" d="M89.43,177.91c3.7-.06,4.87,.34,8.15,2.7,.56,.4,1.15,.77,1.99,1.33-3.22,1.39-6.36,1.35-9.48,1.4-.22-1.81-.44-3.62-.67-5.42Z"/>
  <path class="cls-15" d="M219.05,64.34c-.36-.05-.72-.09-1.08-.14,.01-3.76,1.67-6.6,5.31-8.15,3.78-1.61,7.35-1.28,10.47,1.52-.1,.23-.21,.46-.31,.69-.73,.26-1.22-.33-1.84-.46-4.37-2.09-7.96-1.47-10.63,1.69-1.22,1.45-1.22,3.26-1.93,4.85Z"/>
  <path class="cls-15" d="M205.57,181.96c5.46,1.72,11.05,1.81,16.7,1.26,.47,.72,1.28,.52,1.96,.64-6.09,1.55-12.12,1.38-18.09-.56-.19-.44-.38-.89-.57-1.33Z"/>
  <path class="cls-12" d="M224.24,183.85c-.69-.12-1.49,.09-1.96-.64,.15-.12,.31-.14,.49-.05,.72,.05,1.46,.17,1.99-.49,.71-.57,2.36,.06,2.23-1.59,.18-.26,.35-.53,.53-.79,4.45,2.21,9.17,3.21,14.2,2.97,.64-.03,2.57-1.09,1.98,1.17-3.68,.23-7.35,.32-10.91-.87-.26-.09-.51-.19-.77-.28l-.23,.05s-.19-.13-.19-.13c-.32-.51-.83-.57-1.38-.52-.52,0-1.05,0-1.57,0-.55-.06-1.05,0-1.39,.49-1,.22-1.89,.91-3,.69Z"/>
  <path class="cls-14" d="M185.66,184.93c0-.36-.01-.72-.02-1.08,3.73,.02,7.45,.04,11.18,.06,0,.37,0,.74,0,1.11-3.73,.58-7.45,.63-11.17-.09Z"/>
  <path class="cls-14" d="M190.68,68.72c-.02,.44-.04,.88-.06,1.32-3.04-1.32-6.1-1.8-9.23-.26-.06-.39-.12-.79-.17-1.18,3.18-1.99,6.33-1.53,9.46,.11Z"/>
  <path class="cls-14" d="M205.57,181.96c.19,.44,.38,.89,.57,1.33-2.37,1.04-4.9,1.36-7.47,1.51,0-.35,0-.71-.01-1.06,1.57-.36,3.15-.71,4.72-1.07,.73-.23,1.45-.46,2.18-.69v-.02Z"/>
  <path class="cls-14" d="M309.83,154.79c.38,0,.75,.01,1.13,.02,.51,2.17,.44,4.34-.03,6.5-.39,0-.78,0-1.17,0,.02-2.17,.05-4.34,.07-6.51Z"/>
  <path class="cls-14" d="M329.17,34.01c-3.11,.99-6.21,1.98-9.32,2.97,0,0,.03-.22,.03-.22h.23c.07-.45,.13-.9,.2-1.35,1.85-.57,3.71-1.15,5.56-1.72,.22-.1,.44-.19,.66-.29,.89,.17,2.15-1.17,2.63,.6Z"/>
  <path class="cls-14" d="M94.35,38.36c-.06,1.64,1.09,2.95,1.33,4.51-.61,.28-.64,.84-.73,1.37-.76-1.8-1.51-3.6-2.27-5.4,.15-.23,.31-.47,.46-.7,.4,.07,.8,.15,1.2,.22Z"/>
  <path class="cls-9" d="M93.74,108.44c-.81,1.16-1.62,1.08-2.42,0,.81-.68,1.61-.7,2.42,0Z"/>
  <path class="cls-12" d="M178.73,71.26c.63,1.4,.34,2.36-1.37,2.66,.08-.46,.15-.92,.22-1.39,.32-.47,.15-1.35,1.15-1.27Z"/>
  <path class="cls-9" d="M328.39,36.58c.38-.12,.75-.24,1.13-.36-.08,.62,.29,1.37-.61,1.73-.17-.46-.35-.91-.52-1.37Z"/>
  <path class="cls-15" d="M198.66,183.74c0,.35,0,.71,.01,1.06-.61,.07-1.23,.15-1.84,.22,0-.37,0-.74,0-1.11,.61-.06,1.23-.11,1.84-.17Z"/>
  <path class="cls-15" d="M269.48,183.03c1.05-.63,2.07-.69,3.06,.12-1.02-.04-2.04-.08-3.06-.12Z"/>
  <path class="cls-15" d="M281.24,183.15c.67-.78,1.6-.5,2.45-.54-.78,.32-1.55,.69-2.45,.54Z"/>
  <path class="cls-15" d="M250.85,183.04c.86-.67,1.68-.65,2.45,.14-.82-.05-1.63-.09-2.45-.14Z"/>
  <path class="cls-14" d="M178.76,70.71c.12-.71,.68-1.01,1.29-1.25,.06,.26,.12,.51,.18,.77,0,0-.07-.04-.07-.04-.22,.2-.45,.4-.67,.59,0,0,.06,.09,.05,.09-.26-.06-.52-.11-.78-.16Z"/>
  <path class="cls-14" d="M177.58,72.54c-.07,.46-.15,.92-.22,1.39-.15-.06-.28-.14-.39-.24,.21-.38,.41-.76,.62-1.14Z"/>
  <path class="cls-12" d="M290.85,179.11c.17-.74,.88-.77,1.44-1.01,.07,.35,.14,.7,.21,1.04,0,0,.01-.01,.01-.01-.37,.1-.73,.2-1.1,.29-.19-.1-.38-.21-.56-.31Z"/>
  <path class="cls-15" d="M253.78,183.27c.56-.06,1.06,0,1.39,.51-.57,.1-1-.14-1.39-.51Z"/>
  <path class="cls-15" d="M227.24,183.16c.33-.49,.84-.55,1.39-.49-.37,.41-.81,.61-1.39,.49Z"/>
  <path class="cls-15" d="M230.2,182.67c.55-.05,1.06,0,1.38,.52-.56,.07-1.03-.08-1.38-.52Z"/>
  <path class="cls-12" d="M181.22,68.61c.06,.39,.12,.78,.17,1.18-.39,.15-.65,.03-.76-.36-.33-.61,.21-.66,.59-.82Z"/>
  <path class="cls-14" d="M310.87,153.59c-.08-.13-.17-.25-.21-.38-.01-.04,.1-.11,.16-.17,.15,.18,.17,.36,.05,.56Z"/>
  <path class="cls-9" d="M238.47,57.71c-.05-.4,.11-.63,.56-.62-.19,.21-.37,.41-.56,.62Z"/>
  <path class="cls-12" d="M180.23,70.23c-.06-.26-.12-.51-.18-.77,.18,0,.36,0,.55,0,.56,.55,.18,.7-.37,.77Z"/>
  <path class="cls-12" d="M178.76,70.71c.26,.05,.52,.11,.78,.16,.02,.68-.23,.84-.79,.37-.04-.12-.11-.24-.12-.36,0-.05,.09-.12,.13-.17Z"/>
  <path class="cls-14" d="M176.93,73.93c.11,.12,.21,.25,.3,.38-.24,.18-.48,.37-.71,.57,.14-.31,.27-.63,.41-.94Z"/>
  <path class="cls-14" d="M95.08,44.67c.15,.3,.3,.61,.46,.91-.15-.3-.3-.61-.46-.91Z"/>
  <path class="cls-10" d="M93.15,38.13c-.15,.23-.31,.47-.46,.7-.13-.41,.02-.64,.46-.7Z"/>
  <path class="cls-9" d="M98.11,108c-.1,.32-.29,.48-.65,.36,.22-.12,.43-.24,.65-.36Z"/>
  <path class="cls-15" d="M320.32,35.41c-.07,.45-.13,.89-.2,1.34,0,0,.05-.04,.05-.04-.16-.33-.32-.65-.48-.98,.21-.11,.42-.21,.63-.32Z"/>
  <path class="cls-9" d="M326.54,33.4c-.22,.1-.44,.19-.66,.29,.22-.1,.44-.19,.66-.29Z"/>
  <path class="cls-14" d="M147.4,22.93c.27-.06,.53-.13,.8-.19-.16,.47-.44,.48-.8,.19Z"/>
  <path class="cls-12" d="M289.96,179.69c-.11-.79,.43-.69,.94-.62,.12,.81-.18,1.03-.94,.62Z"/>
  <path class="cls-15" d="M291.41,179.42c.37-.1,.73-.2,1.1-.29-.3,.31-.57,.76-1.1,.29Z"/>
  <path class="cls-15" d="M289.32,180.74c.3-.18,.59-.36,.89-.53-.3,.18-.59,.36-.89,.53Z"/>
  <path class="cls-15" d="M256.23,183.87c.23,.03,.45,.06,.68,.09-.23-.03-.45-.06-.68-.09Z"/>
  <path class="cls-15" d="M245.93,184.06c.27-.06,.54-.11,.82-.17-.27,.06-.54,.11-.82,.17Z"/>
  <path class="cls-15" d="M267.76,183.28c.15-.07,.31-.09,.48-.06,0,0-.23,.15-.23,.15l-.25-.09Z"/>
  <path class="cls-15" d="M249.7,183.35c.17-.11,.36-.15,.56-.12-.19,.04-.38,.08-.56,.12Z"/>
  <path class="cls-15" d="M232.01,183.28c.26,.09,.51,.19,.77,.28-.26-.09-.51-.19-.77-.28Z"/>
  <path class="cls-14" d="M310.54,151.71c-.11-.16-.15-.33-.12-.52,.07,.11,.15,.22,.2,.34,.02,.04-.05,.12-.08,.18Z"/>
  <path class="cls-5" d="M197.43,82.56c-.83-4.42-1.85-8.77,.2-13.24,2.73-5.95,9.23-7.77,14.7-3.87,.48,.34,1.29,.63,1.09,1.25-.13,.41-.87,.68-1.37,.95-1.18,.63-2.94,.23-3.54,1.85-.18-.04-.36-.02-.53,.05-1.66-.29-1.78,1.11-2.17,1.98-1.31,2.92-1.24,5.87,.12,8.78,.07,.35,.14,.7,.21,1.05,2.13,7.53,6.24,14.35,8.6,21.8,1.15,3.61,1.97,7.24,1.26,11.06-.2,1.1-.55,2.11-1.19,3.01-.7,.98-1.48,2.2-2.81,2.09-1.49-.13-1-1.74-1.3-2.64-1.93-5.82-4.34-11.45-7.06-16.96-1.48-3.75-2.95-7.51-4.43-11.26-.59-1.97-1.18-3.94-1.78-5.92Z"/>
  <path class="cls-5" d="M160.86,117.47c-6.05-11.11-5.86-22.94-4.41-34.91,1.07-2,1.84-4.16,3.67-5.74,3.39-2.92,8.08-2.59,10.56,.76,.68,.92,.86,1.56-.55,1.86-.1,.02-.2,.05-.3,.09q-6.73,2.52-6.57,9.38c.17,6.99,.34,13.97,.59,20.96,.07,1.91-.41,3.71-.81,5.53-.23,1.04-.68,2.14-2.19,2.07Z"/>
  <path class="cls-7" d="M151.56,164.78c-2.13-2.98-4.95-5.44-6.9-8.58-1.81-2.91-3.2-5.93-3.46-9.34-.11-1.41-.01-2.76,2.13-1.52,.58,.33,1.58,.68,2.03,.43,3.08-1.71,4.59,.61,6.19,2.22,4.05,4.05,7.86,8.3,9.67,13.8,.53,1.62,.73,3.26,.69,4.94-.03,1.29-.45,2.23-1.9,2.65-1.29,.38-2.47,1-3.68-.18-1.54-1.5-3.15-2.93-4.73-4.39l-.04-.04Z"/>
  <path class="cls-7" d="M126,119.27c-2.52-1.08-4.35-4.02-7.83-2.56-1,.42-.71-.99-1.37-1.17-.07-.02-.23,.04-.26,.1-.07,.18-.08,.37-.12,.56-1.1,.04-2.2,.08-3.29,.12-2.44-5.15-7.33-6.37-12.52-7.11-1.18-1.26,.41-1.27,.87-1.47,5.1-2.22,10.39-2.17,15.75-1.02,5.09,1.1,9.83,3,14.08,5.88,3.54,2.4,4.1,4.86,2.08,8.19-2.59,.65-4.79-.47-7.04-1.39,0,0-.07,0-.07,0-.05-.13-.15-.17-.28-.13Z"/>
  <path class="cls-7" d="M129.36,151.12c1.08,.71,.96,2.68,2.89,2.49h0c-.75,.86-.26,1.12,.62,1.19,0,0,0,0,0,0-.07,.06-.19,.12-.19,.18,0,.14,.06,.28,.1,.43,.63,.98,1.26,1.97,1.9,2.95,.94,2.37,2.46,4.58,2.4,7.22-.03,1.25,.66,2.79-1.4,3.43-1.82,.56-3.46,1.67-5.25-.22-3.49-3.7-6.95-7.4-9.46-11.82-.46-.81-.52-1.98-1.72-2.31,.63-1.3-1.01-2.2-.68-3.45-.07-.18-.14-.36-.21-.54-.61-1.59-.35-4.5,.13-4.47,2.25,.13,4.85-1.36,6.84,.8,.8,.87,1.7,1.65,2.56,2.47,.49,.55,.98,1.1,1.47,1.65Z"/>
  <path class="cls-7" d="M221.62,93.14c2.73,1.03,5.26,2.64,8.39,2.51,.92-.04,1.41,.73,1.91,1.35,5.24,6.47,7.45,13.92,7.71,21.98,.04,1.13-.26,2.21-1.31,2.84-1.12,.66-1.57-.57-2.33-.92-1.76-2.6-4.16-4.77-5.54-7.62-.19-.39-.46-1.2-1.29-.58h0c.33-1.06,.2-1.83-1.24-1.77l.02-.12c.41-1.92-1.43-2.93-1.99-4.48-.83-2.27-1.82-4.48-2.75-6.71-.11-.36-.22-.72-.33-1.07-.42-1.8-.84-3.6-1.26-5.4Z"/>
  <path class="cls-7" d="M209.98,166.61c-.05,1.06,.02,1.87-.15,2.63-.4,1.87-1.55,2.75-3.26,1.34-7.47-6.15-12.68-13.62-14.26-23.1-.19-1.12,.18-1.5,1.43-2.02,3.89-1.63,6.03,.14,8.11,2.89,4.23,5.59,7.74,11.42,8.13,18.26Z"/>
  <path class="cls-7" d="M110.43,166.36c-.12,.83,.47,2.24-1.44,3.03-1.85,.77-3.13,.41-4.4-.86-4.25-4.24-8.64-8.37-11.26-13.8-.64-1.32-1.17-2.76-1.38-4.19-.25-1.68-1.02-4.33,.93-4.74,1.9-.41,4.58-.67,6.47,1.29,3.71,3.85,7.2,7.83,9.53,12.61,.96,1.97,1.72,4,1.56,6.66Z"/>
  <path class="cls-7" d="M185.97,167.17c-.19,1.41,.21,2.63-1.25,3.14-1.16,.41-2.19,.89-3.43-.1-7.17-5.75-12.2-12.67-13.31-21.77-.12-1.02-.56-2.72,.62-2.89,1.62-.23,3.87-1.31,5.01-.03,5.75,6.47,11.27,13.14,12.36,21.66Z"/>
  <path class="cls-7" d="M135.42,115.56c-.64-3.06-3.65-4.01-5.76-5.74,5.07-6.49,24.63-2.09,29.92,7.66,.08,2.77-1.91,3.36-4.2,3.65-.89,.11-1.74-.61-2.65-.1,0,0,.01,.01,.01,.01-2.22-2.07-4.5-4.03-7.97-3.58l-.04-.03c.26-.58-.18-.56-.56-.58-.59-.42-1.24-.61-1.98-.5-.57-.03-1.15-.06-1.72-.09-1.23-.45-2.49-.46-3.77-.21-.43-.16-.86-.32-1.29-.48Z"/>
  <path class="cls-5" d="M219.05,64.34c.71-1.59,.7-3.4,1.93-4.85,2.67-3.16,6.26-3.78,10.63-1.69-.6,2.81-3.04,4.55-4.37,6.93,.01,1,.02,2.01,.04,3.01,.06,3.83,2.16,7.13,3.06,10.74,.19,.77,.6,1.52,.61,2.28,.02,1.36,1.63,3.24-.2,3.95-2.05,.8-4.46,.68-6.18-1.37-1.58-1.88-2.01-4.31-3.48-6.22-1.06-4.21-2.55-8.36-2.02-12.8Z"/>
  <path class="cls-7" d="M220.61,81.46c.2,.04,.53,.03,.58,.14,2.64,5.34,7.44,5.1,12.42,4.39,3.87-.55,7.75-1.07,11.68-.95,2.49,.07,4.92,.39,7.53,2.17-8.25,3.32-15.62,8.03-24.87,6.9-1.88-.23-3.46-1.2-5.05-2.12-2.79-3.11-4.15-6.5-2.3-10.53Z"/>
  <path class="cls-7" d="M235.41,165.45c-.05,1.05-.28,2.11,.3,3.11-.17,.33-.35,.66-.53,.99-1.92,1.1-3.45,.51-4.86-.92-3.92-3.98-7.85-7.96-10.14-13.09-.77-1.72-1.16-3.53-1.63-5.34-.71-2.71-.02-4.06,3.1-3.74,2.05-.88,3.25-.03,4.5,1.57,4.14,5.31,7.76,10.84,9.26,17.42Z"/>
  <path class="cls-5" d="M216.46,117.29c2.28-5.4,1.04-10.69-.87-15.83-2.04-5.47-4.47-10.8-6.69-16.21-.45-1.08-.73-2.23-1.09-3.34,1.15-.56,1.88-1.86,3.41-1.76,1.2-.39,2.41-.79,3.61-1.18,2.14-.59,2.97-.05,3.16,2.3,.67,8.11,2.07,16.16,1.82,24.33-.1,3.15-.41,6.27-1.04,9.35-.23,1.13-.36,2.38-1.68,2.97-.21-.21-.41-.43-.62-.64Z"/>
  <path class="cls-7" d="M232.64,123.5c1.14,1.73,2.71,3.8,1.75,5.58-.87,1.63-3.3,.04-5.03,.28-.49,.07-1.01,.01-1.51,.01-5.6-.94-11.25-.82-16.89-.62-2.27,.08-2.39-.73-1.78-2.38,1.3-3.52,3.56-5.86,7.7-6.2,2.88-.24,5.74-.26,8.58,.31,.28,0,.56,0,.85,0,.12,.06,.21,.14,.28,.25,.25,.09,.5,.18,.75,.27,2.16,.08,3.67,1.41,5.29,2.51Z"/>
  <path class="cls-7" d="M201.79,120.34c2.37,1.36,4.29,3.05,4.91,5.77,.36,1.57,.1,2.32-1.95,2.2-5.25-.32-10.48-1.16-15.77-.78-.82,.06-1.65,.05-2.47,.12-5.1,.45-5.42-.03-3.45-4.6,1.18-2.76,3.22-4.31,6.31-4.46,2.05-.1,4.12,.05,6.18,.09,2.08,.55,4.17,1.1,6.25,1.65Z"/>
  <path class="cls-7" d="M193.07,158.93c-.03,2.84-.87,5.51-1.32,8.22-.33,1.99-2.16,2.07-3.6,2.07-1.57,0-.89-1.52-.94-2.32-.2-3.66-1.6-6.94-3.52-9.97-2.34-3.69-2.36-7.66-2.24-11.71,.03-1.17,.15-1.57,1.82-1.14,8.23,2.12,8.79,8.57,9.8,14.84Z"/>
  <path class="cls-7" d="M118.52,161.53q-.13,5.53-6.58,6.6c.32-5.26-1.77-9.77-4.84-13.95-1.79-2.44-1.56-5.22-1.45-7.94,.05-1.16,4.28-1.67,5.3-.6,1.11,1.15,2.08,2.42,3.11,3.64,1.61,2.91,2.96,5.92,3.95,9.07,.13,.82,.26,1.64,.38,2.46-.03,.08-.1,.18-.08,.25,.04,.16,.13,.32,.2,.48Z"/>
  <path class="cls-7" d="M154.94,171.39c-5.66,2.34-11.18,4.98-17.36,6.12-3.3,.61-6.4-.33-9.59-.23h-.06c.34-.74-.05-.76-.62-.6,0,0,.01,0,.01,0,.1-.78-.61-.79-1.07-1.04-.59-.82-.41-1.43,.52-1.86,6.41-2.1,12.4-5.36,19.23-6.31,4.13-.58,7.64,.98,8.95,3.93Z"/>
  <path class="cls-7" d="M108.24,177.95c-2.76,.1-5.36-.34-7.57-2.07-.86-.67-1.37-1.35,.05-1.9,7.16-2.76,14.11-6.21,22.13-6.12,2.23,.03,4.3,.55,6.1,1.84,.77,.56,1.67,1.3,.07,1.88-6.81,2.48-13.22,6.16-20.79,6.36Z"/>
  <path class="cls-7" d="M164.49,146.56c1.27,3.18,3.05,6.14,3.76,9.56,.68,3.24,.52,6.42,.27,9.65-.22,2.81-2.79,2.05-4.27,2.29-1.91,.31-.85-1.5-.9-2.32-.29-4.7-2.32-8.74-5.23-12.36-1.78-2.21-1.99-4.65-2.15-7.2-.06-1.02,.47-1.68,1.24-2.22,1.26-.89,1.15,.64,1.74,.95,1.74,.89,3.69,1.06,5.51,1.63l.03,.02Z"/>
  <path class="cls-7" d="M237.54,169.6c-1.04-1.22-.79-2.75-1.05-4.15,.1-2.44-.76-4.74-1.95-6.73-2.05-3.43-1.81-6.88-1.21-10.52,.22-1.33,1.03-1.76,1.99-2.27,.62,0,1.24,0,1.86,0l-.05-.03c.51,1.68,2.78,1.21,3.55,2.89,1.94,4.2,3.27,8.44,2.6,13.06-.44,2.99-.89,6.07-5.01,6.56-.65,.08-1.15,.43-.81,1.2l.09-.02Z"/>
  <path class="cls-7" d="M211.15,169.53c.53-5.17-.97-9.88-3.19-14.5-1.1-2.29-.72-4.87-.16-7.26,.55-2.34,1.85-2.66,3.79-1.08,5.47,4.44,7.15,10.12,5.82,16.72q-1.06,5.27-6.27,6.12Z"/>
  <path class="cls-7" d="M179.42,177.87c-.09-1.72-2.45-1.35-2.88-3.14,7.18-2.89,14.42-5.71,22.55-5.33,.92,.04,1.83,.23,2.73,.44,1.41,.32,3.2,.81,3.39,2.11,.17,1.13-1.97,.99-2.79,1.84-1.79,.59-3.58,1.19-5.17,2.22-5.72,1.7-11.43,3.39-17.48,1.4-.04-.01-.21,.31-.32,.47,0,0-.03-.01-.03-.01Z"/>
  <path class="cls-7" d="M172,175.02c-3.86,.99-7.67,2.21-11.69,2.53-2.71,.22-5.35,.05-7.78-1.24-1.51-.81-2.12-1.63,0-2.51,1.21-.5,2.35-1.16,3.52-1.74,4.1-1.26,8.09-2.97,12.43-3.36,4.23-.38,8.45-.56,11.95,3.05-2.97,1.15-5.7,2.21-8.44,3.27Z"/>
  <path class="cls-7" d="M237.54,169.6s-.09,.02-.09,.02c1.21,.42,2.18-.35,3.21-.66,3.06-.92,6.14-1.65,9.33-1.07,1.82,.33,3.82,.65,4.5,2.78-3.3,1.61-6.61,3.22-9.91,4.83-6.2,2.12-12.38,2.96-18.86-.32,3.72-2.63,8.23-3.24,11.81-5.57Z"/>
  <path class="cls-7" d="M156.48,125.75c.52,1.63,.11,2.28-1.88,2.15-6.36-.42-12.73-.75-19.11-.21-1.98,.17-2.1-.73-1.47-2.09,.58-1.25,1.29-2.45,1.94-3.66,0,0,0-.13,0-.13,.09-.08,.17-.17,.25-.26,.16,0,.28-.07,.35-.2,4.51-2.42,9.17-1.9,13.88-.7,.75,.19,1.34,1.36,2.31,.4,0,0-.01-.01-.01-.01,.04,1.79,2.36,1.56,2.87,2.93,.29,.6,.58,1.2,.87,1.8Z"/>
  <path class="cls-7" d="M159.96,122.37c4.53-4.79,16.49-3.87,19.66,1.54,.65,1.11,1.5,2.41,.75,3.59-.73,1.15-2.1,.22-3.15,.11-6.35-.63-12.71-.69-19.08,.02,.36-1.49,.65-2.73,.95-3.96,.29-.43,.59-.86,.88-1.29Z"/>
  <path class="cls-7" d="M203.5,176.66s-.13,.03-.13,.03c-1.05-.74-1.52-1.49,0-2.23,4.68-1.46,9.01-3.77,13.75-5.14,4.56-1.32,8.7-1.05,13.05,2.14-8.75,3.55-16.76,8.42-26.67,5.2Z"/>
  <path class="cls-7" d="M109.34,127.03c1.68-7.05,4.95-8.69,14.93-7.01,.6,.1,1.18,.3,1.77,.46,2.64,1.25,5.06,2.65,5.53,5.83,.18,1.25-.03,1.92-1.53,1.71-6.47-.91-12.95-1.12-19.45-.32-.59,.07-.98-.19-1.24-.66Z"/>
  <path class="cls-5" d="M196.02,87.84c1.39,9.14,1.66,18.17-2.32,26.91-.49,1.08-1.28,1.49-2.19,1.86-.94,.38-1.75,.28-1.26-1.02,3.09-8.08,1.52-16.11-.26-24.15-.08-.37,0-.78,0-1.17,1.59-1.76,3.71-2.31,6.02-2.43Z"/>
  <path class="cls-7" d="M199.2,129.22c2.94-.5,4.41,.98,5.52,3.27,1.34,2.76,3.24,5.29,3.97,8.31,.39,1.62,.81,3.39-1.08,4.53-1.8,1.09-3.47,.36-4.87-.7-4.84-3.7-5.96-9.09-6.59-14.48-.25-2.15,2.07-.56,3.05-.92Z"/>
  <path class="cls-7" d="M132.25,153.61c-.16-1.98-.89-3.91-.63-5.94,.12-.97-.33-1.95,1.31-2.51,1.59-.54,2.26,.09,3.14,.95,3.44,3.38,5.2,7.53,5.96,12.08,.35,2.13,.3,4.31,.53,6.46,.19,1.74-.75,2.42-2.35,2.84-1.15,.3-1.7,.33-1.7-1.05,0-2.92-1.04-5.58-2.52-8.09-.63-1.35-1.18-2.74-2.4-3.75-.31-.16-.53-.08-.69,.2,0,0,0,0,0,0,.84-.9,.34-1.15-.62-1.19h0Z"/>
  <path class="cls-4" d="M196.33,115.19c-.97-2.82,.96-5.23,1.27-7.87,.11-.98,1.15-.52,1.76-.19,1.52,.82,3,1.72,4.52,2.54,.68,.37,1.14,1.49,2.23,.69l.02,.02c.03,2.2,2.83,3.01,2.84,5.32,0,1.23,.63,2.47,1.02,3.69,.31,.97,.69,1.88-.59,2.53-1.25,.63-2.35,.1-3.1-.63-2.71-2.65-5.88-4.55-9.47-5.87-.16-.08-.33-.16-.49-.24Z"/>
  <path class="cls-7" d="M227.85,130.39c2.86-.08,4.64,.95,5.3,3.86,.37,1.64,1.57,3.11,2.39,4.66,.6,1.98,1.62,3.98-.23,5.87-2.03,.56-3.85,.12-5.53-1.03-2.07-1.43-3.24-3.5-4.38-5.59-.46-1.67-.85-3.37-1.38-5.02-.67-2.08-.6-3.46,2.33-2.73,.47,.12,1,0,1.51-.02Z"/>
  <path class="cls-7" d="M198.66,183.74c-.61,.06-1.23,.11-1.84,.17-3.73-.02-7.45-.04-11.18-.06-4.26-1.02-8.48-2.12-11.79-5.12-.79-.72-1.84-1.29-1.82-2.54,1.72-.71,3.2-.69,4.64,.77,.6,.61,1.47,1.67,2.76,.91,0,0,.03,.01,.03,.01,.6,1.47,2.07,1.18,3.24,1.4,4.59,.87,8.94-.58,13.36-1.35,2.08,2.09,4.91,3.12,7.34,4.72-1.57,.36-3.15,.71-4.72,1.07Z"/>
  <path class="cls-7" d="M221.35,131.91c-.5,3.9-.94,7.8-3.08,11.29-1.19,1.94-2.83,3.29-5.3,2.42-2.47-.87-2.5-2.88-1.86-4.92,1-3.18,1.9-6.41,3.23-9.46,1.21-2.78,3.95-.96,5.98-1.23,1.38-.18,1.14,1.03,1.03,1.9Z"/>
  <path class="cls-7" d="M100.77,128.81c3.44-.69,4.94,1.04,5.88,3.81,.94,2.79,2.29,5.47,2.38,8.47,.03,.92,.34,2.15-.95,2.46-1.06,.25-2.1,.75-3.39-.09-5.08-3.31-6.73-8.36-7.39-13.65-.3-2.39,2.39-.5,3.48-1Z"/>
  <path class="cls-7" d="M190.7,128.79c3.77-.07,3.97,.11,3.15,3.42-.62,2.48-1.36,4.94-2.17,7.38-.4,1.22-1.11,2.34-2.15,3.2-1.6,1.32-3.47,1.34-5.21,.51-1.58-.75-1.29-2.3-1.03-3.68,.61-3.21,2-6.19,3.09-9.26,.83-2.33,2.93-1.21,4.32-1.56Z"/>
  <path class="cls-7" d="M156.36,134.29c.27,2.03,1.2,3.98,.87,6.09-.27,1.73-.84,3.39-2.86,3.82-1.96,.42-2.99-.93-3.87-2.34-2.24-3.59-2.55-7.64-3.07-11.64-.07-.51,.07-.98,.58-1.26,2.15-1.18,6.75,.6,7.57,2.88,.22,.6-.03,1.45,.91,1.72-.04,.24-.08,.49-.13,.73Z"/>
  <path class="cls-7" d="M136.15,135.93c.19-.96,.41-1.91,.56-2.87,.67-4.23,.67-4.08,4.99-4.39,2.59-.19,3.64,.45,3.07,2.97-.13,.57-.08,1.18-.12,1.77-.08,.4-.16,.8-.25,1.2-.3,1.31-.65,2.61-.88,3.94-.13,.78-.16,1.68,1.2,1.26,0,0,.02-.11,.02-.11-1.24-1.21-1.52,.1-1.79,.73-.42,1-.86,1.96-1.6,2.78-1.12,1.24-2.57,1.45-4.15,1.1-1.83-.41-1.84-1.82-1.87-3.21,.62-1.49,.72-3.04,.7-4.62,0,0,0,.01,0,.01,.04-.18,.08-.36,.12-.55Z"/>
  <path class="cls-4" d="M182.69,118.09c-.03,2.6-1.62,3.67-3.63,2.53-2.88-1.64-5.92-2.78-9.17-3.41-1.42-.27-2.05-.72-1.05-2.09,.34-.47,.37-1.14,.7-1.62,1.03-1.52,.59-4.66,2.41-4.63,3.22,.05,6.53,1.39,8.57,4.09,1.16,1.54,1.91,3.45,2.18,5.13Z"/>
  <path class="cls-7" d="M165.96,128.43c2.36-.58,3.16,.39,2.77,2.44-.57,2.99-1.14,5.98-1.83,8.94-.31,1.34-.95,2.6-2.02,3.58-1.35,1.23-2.99,1.42-4.57,.71-1.56-.7-1.12-2.1-.81-3.36,.75-3.05,1.63-6.08,2.16-9.17,.44-2.56,1.7-3.66,4.3-3.13Z"/>
  <path class="cls-7" d="M173.67,128.73c5.67,.48,4.61-.34,6.38,4.94,.78,2.34,1.48,4.73,1.3,7.23-.19,2.79-1.67,3.54-4.06,1.93-4.74-3.2-5.8-8.15-6.49-13.18-.15-1.08,.1-1.11,2.88-.92Z"/>
  <path class="cls-7" d="M133.82,140.53c-.11,.6-.21,1.21-.32,1.81-.35,.06-.6,.19-.46,.6-1.57,1.43-3.03,.75-4.31-.34-3.97-3.4-4.81-8.09-5.59-12.78-.04-.25,.04-.61,.21-.8,.93-.98,7.48,.45,7.99,1.76,.57,1.47,1.06,2.96,1.59,4.45,.23,.99,.47,1.99,.7,2.98,.04,.4,.09,.8,.13,1.2,.02,.37,.03,.74,.05,1.11Z"/>
  <path class="cls-7" d="M124.05,181.24c.83,.76,.09,1.01-.48,1.08-7.5,.93-15,1.54-22.26-1.18-1.81-.68-3.46-1.71-4.81-3.15-.97-1.04-1-1.85,.37-2.52,.49-.04,1.02-.32,1.44,.11,4.42,4.45,9.98,4.42,15.41,2.83,3.79-1.11,6.71-1.42,9.03,2.11,.23,.36,.86,.48,1.3,.71Z"/>
  <path class="cls-7" d="M117.39,128.48c2.43-.42,3.64,.18,2.99,2.24-1.1,3.52-.94,7.29-2.37,10.73-.5,1.21-1.27,2.24-2.61,2.79-2.63,1.07-4.57-.19-4.25-2.87,.46-3.82,1.71-7.49,2.67-11.21,.59-2.3,2.62-1.35,3.56-1.68Z"/>
  <path class="cls-7" d="M127.99,177.27c.86,2.07,2.94,1.54,4.52,1.72,2.78,.32,5.55-.18,8.26-.87q4.92-1.25,7.68,3.61c-8.26,1.17-16.4,2.23-24.23-1.55-.53-.45-1.07-.89-1.58-1.36-.73-.67-1.93-1.58-1.36-2.37,.65-.91,1.98-1.74,3.45-.89,.24,.62,.69,1.03,1.32,1.27,.49,.39,.96,.66,1.28-.16,0,0-.01,0-.01,0-.02,.21-.03,.43-.05,.64,.22-.02,.45-.03,.67-.05h.06Z"/>
  <path class="cls-15" d="M225.39,138.16c1.14,2.09,2.31,4.16,4.38,5.59,1.68,1.15,3.5,1.6,5.53,1.03,0,.38,0,.76,0,1.14-.96,.52-1.77,.95-1.99,2.27-.6,3.64-.84,7.09,1.21,10.52,1.2,2,2.05,4.29,1.95,6.73-.36,0-.72,0-1.08,0-1.5-6.58-5.12-12.11-9.26-17.42-1.25-1.6-2.46-2.46-4.5-1.57,0-.36,0-.73,0-1.09q4.9-2.01,3.15-5.98c.5-.28,.56-.75,.6-1.23Zm3.39,6.8c.77,1.35,.87,3.13,2.58,3.75,.08,.03,.64-.72,.7-1.15,.35-2.38-2.21-1.66-3.29-2.6Z"/>
  <path class="cls-3" d="M176.96,87.88c-.42,.2-.83,.4-1.25,.59l-4.88,1.26c-1.9-.07-3.37,1.02-5,1.68-1.88-.4-1.17-1.86-1.15-2.88,.02-1.61-.49-3.29,.48-4.82,2.01,.29,3.64-.97,5.52-1.21l3.83-1.75c1.34,0,1.67,.75,1.77,1.9,.12,1.36,.46,2.7,.7,4.05l-.02,1.19Z"/>
  <path class="cls-5" d="M171.36,97.09c-1.15,4.67-.64,9.59-2.43,14.18-.96,2.46-2.54,4.39-4.52,6.15,1.66-6.32,.41-12.61,.73-18.83,2.09-.43,3.83-2.21,6.22-1.5Z"/>
  <path class="cls-4" d="M222.17,115.82c-2.1-2.82-1.05-5.95-1.06-9.17,2.99,.48,4.24,3.37,6.84,4.15,0,0-.02,.12-.02,.12-.44,1.14-.06,1.75,1.24,1.78,0,0,0-.01,0-.01-.33,1.86,1.23,2.92,2,4.31,.56,1,2.18,2.12,1.38,2.97-1.07,1.15-2.31-.5-3.46-.93-2.39-.88-4.09-3.07-6.84-3.3l-.07,.07Z"/>
  <path class="cls-3" d="M187.58,84.33c0-.29,.03-.59-.03-.87-1.21-5.95-.27-7.18,5.95-7.89,1.08-.12,1.41,.19,1.53,1.2,.26,2.12,.69,4.22,1.06,6.33-1.72,1.56-4.1,1.83-6.13,2.79-1.53,.72-1.61-.99-2.38-1.56Z"/>
  <path class="cls-3" d="M217.35,68.8c1.27,1.97,.77,3.39-1.37,4.48-2.61,1.33-5.17,2.76-7.71,4.22-1.52,.87-2.08,.34-2.02-1.14,.07-1.83-.1-3.76,1.76-5.04,3.22-.5,6.33-1.34,9.35-2.52Z"/>
  <path class="cls-7" d="M121.91,132.22c.85,3.16,1.7,6.3,3.72,8.97,.94,1.25,.65,1.74-.63,2.39-1.1,.56-2.15,1.11-3.42,1.2-2.74,.19-3.34-.53-2.24-2.87,1.44-3.07,1.55-6.44,2.58-9.69Z"/>
  <path class="cls-7" d="M224.79,139.39q1.75,3.97-3.15,5.98c-.88-.09-1.83,.35-2.79-.48,2.18-3.19,2.94-6.88,3.63-10.92,.84,1.98,1.57,3.7,2.31,5.43Z"/>
  <path class="cls-7" d="M195.07,133.69c.92,2.44,1.59,4.69,2.61,6.77,.67,1.38,.52,2.16-.85,2.82-1.7,.82-3.42,1.44-5.28,.51-.4-.2-.42-.68-.15-1.03,2.03-2.66,2.51-5.92,3.67-9.08Z"/>
  <path class="cls-7" d="M169.86,133.83c1.42,2.96,2.13,5.84,4.17,8.06,.44,.48,.21,.85-.33,1.14-1.56,.83-3.16,1.44-4.97,.87-1.09-.34-1.81-.88-1.15-2.15,1.22-2.35,1.35-5.01,2.28-7.91Z"/>
  <path class="cls-7" d="M212.8,130.45c-.02,.48,.03,.79-.06,1.04-.85,2.47-1.72,4.93-2.75,7.87-1.34-2.4-2.47-4.4-3.6-6.41-.74-1.32-.09-1.99,1.21-2.34,1.71-.45,3.43-.25,5.19-.17Z"/>
  <path class="cls-7" d="M144.74,139.68s-.02,.11-.02,.11c.42-2.11,.84-4.22,1.39-6.99,1.07,3.11,1.31,5.76,2.28,8.23,.7,1.77-1.76,3.87-3.74,3.43-1.18-.27-1.84-.81-1.12-2.09,.48-.86,.82-1.79,1.22-2.68Z"/>
  <path class="cls-7" d="M96.79,135.25c1.61,2.46,2.24,4.79,3.93,6.53,.57,.59,.35,1.04-.34,1.37-.83,.39-1.63,.88-2.5,1.16-1.06,.34-2.34,.84-3.22,0-.8-.77,.33-1.6,.61-2.36,.75-2.01,.99-4.13,1.51-6.69Z"/>
  <path class="cls-4" d="M179.46,105.62c2.1,.37,4.12,3.49,3.43,5.43-.41,1.16-1.35,.69-1.91,.21-1.7-1.44-3.81-2.18-5.99-3.25,1.2-1.44,3.53-.79,4.44-2.38l.03-.02Z"/>
  <path class="cls-4" d="M179.44,105.64c-2.28-.89-3.98,.82-5.97,1.21-.55,.11-1.17,.81-1.63,.12-.52-.78,.25-1.2,.83-1.62,1.82-1.33,3.82-2.36,5.98-3.02,.77-.24,1.95-1.27,2.52,.37,.45,1.3,.02,2.07-1.47,2.25-.38,.05-.34,.39-.23,.67,0,0-.03,.02-.03,.02Z"/>
  <path class="cls-7" d="M110.26,138.42c-.9-2.32-1.57-4.06-2.26-5.79-.35-.86-.72-1.87,.35-2.34,1.09-.49,2.37-.78,3.57-.79,.76,0,.5,.92,.36,1.46-.6,2.29-1.23,4.56-2.02,7.47Z"/>
  <path class="cls-7" d="M156.36,134.29c.04-.24,.08-.49,.13-.73,.02-.69-.07-1.4,.08-2.06,.17-.75-1-1.69,0-2.1,1.09-.45,2.42-.52,3.64-.48,.87,.03,.61,.84,.46,1.39-.59,2.17-1.2,4.34-1.86,6.72-.92-1.07-.89-2.57-2.44-2.74Z"/>
  <path class="cls-7" d="M182.43,137.16c-.87-2.93-1.55-5.18-2.22-7.45q5.23-.65,3.58,3.8c-.37,1-.74,1.99-1.36,3.65Z"/>
  <path class="cls-15" d="M202.48,100.92c-1.32-3.93-2.54-7.89-4.77-11.47-.25-1.36,.88-.82,1.49-.98,1.48,3.75,2.95,7.51,4.43,11.26-.38,.4-.77,.8-1.15,1.19Z"/>
  <path class="cls-15" d="M244.58,175.5c3.3-1.61,6.61-3.22,9.91-4.83,.07,.38,.13,.75,.2,1.13-1.12,.61-2.2,1.34-3.39,1.79-2.43,.92-1.87,1.87-.18,2.95-.31,.24-.62,.48-.93,.72-1.38-.54-2.42-2.39-4.3-1.05-.25-.56-.77-.66-1.32-.71Z"/>
  <path class="cls-8" d="M92.99,160.9c2.41,1.66,3.01,3.41,3.31,5.33,.2,1.28-.71,1.37-1.69,1.46-1.11,.11-1.72-.12-1.64-1.37,.1-1.6,.02-3.2,.02-5.41Z"/>
  <path class="cls-4" d="M206.11,110.36c-.88-2.37-3.79-2.57-5.27-4.43,1.15-.62,2.54-2.06,3.43-1.06,1.27,1.43,2.4,3.32,1.85,5.5,0,0-.02-.02-.02-.02Z"/>
  <path class="cls-13" d="M217.35,68.8c-3.01,1.18-6.13,2.02-9.35,2.52-.36-.58-.37-1.16-.03-1.75,.17-.07,.35-.09,.53-.05,2.94-.61,5.88-1.22,8.82-1.82,0,.37,.02,.74,.03,1.11Z"/>
  <path class="cls-8" d="M194.63,168.28c-.87,0-1.97,.22-1.48-1.11,.47-1.27-.23-3.54,1.39-3.63,1.72-.1,1.75,2.13,2.06,3.49,.41,1.81-1.36,.81-1.97,1.24Z"/>
  <path class="cls-7" d="M114.39,147.96q-.91-1.96,2.26-2.49c.41,1.89-.48,3.96,.79,5.73-.18,.33-.35,.65-.53,.98-.72-1.47-1.22-3.06-2.51-4.22Z"/>
  <path class="cls-8" d="M143.64,160.85c1.94,1.67,3.19,2.78,2.36,4.68-.23,.52-.85,1.22-1.38,.83-1.75-1.3-.77-3.11-.98-5.51Z"/>
  <path class="cls-15" d="M114.39,147.96c1.29,1.16,1.79,2.75,2.51,4.22,.68,2.01,1.79,3.91,1.84,6.09-.24,.03-.48,.05-.72,.08-.99-3.15-2.34-6.16-3.95-9.07,.11-.44,.22-.87,.32-1.31Z"/>
  <path class="cls-7" d="M133.72,134.32c-.11-.67-.22-1.33-.34-2-.25-1.36,.6-2.26,1.78-2.13,1.37,.15,.49,1.32,.41,2.06-.14,1.34-.33,2.68-.5,4.03-1.29-.13-.7-1.43-1.35-1.96Z"/>
  <path class="cls-7" d="M219.38,157.58c.98,1.83,3.5,3.19,2.05,5.81-2.92-1.26-2.28-3.62-2.05-5.81Z"/>
  <path class="cls-8" d="M226.84,167.66c-3.77-.09-3.99-.35-3.72-4.45,1.91,1.06,2.82,2.7,3.72,4.45Z"/>
  <path class="cls-3" d="M174.51,80.75c-1.28,.58-2.55,1.17-3.83,1.75-.82-1.2-2.08-.22-3.07-.56,2.69-1.02,5.37-2.04,8.07-3.07,.55,1.46-1.14,1.06-1.17,1.88Z"/>
  <path class="cls-12" d="M170.82,90.57c-1.36,1.88-3.72,2.15-5.61,3.2,.21-.78,.41-1.57,.62-2.35,1.63-.66,3.1-1.75,5-1.68,0,.28,0,.55,0,.83Z"/>
  <path class="cls-8" d="M197.74,163.44c1.86,1.11,2.26,3.19,3.77,4.57-3.27,.41-3.95-.43-3.77-4.57Z"/>
  <path class="cls-8" d="M151.6,164.82c-1.01,.15,.03,2.08-1.44,1.64-1.93-.58-2.7-2.12-2.9-4.07,1.99-.03,1.99,3.14,4.3,2.4,0,0,.04,.04,.04,.04Z"/>
  <path class="cls-8" d="M219.15,163.24c1.17,1.32,2.51,2.21,1.85,3.69-.32,.7-1.97,1.1-2.42,.58-1.15-1.33,.08-2.61,.58-4.28Z"/>
  <path class="cls-8" d="M118.74,158.27c-.05-2.18-1.16-4.08-1.84-6.09,.18-.33,.35-.65,.53-.98,.38,0,.76,.01,1.14,.02-.33,1.25,1.31,2.14,.68,3.45-.91,1.11,2.08,2.72-.51,3.61Z"/>
  <path class="cls-7" d="M119.81,161.38c1.71,1.11,1.89,2.63,2.37,3.94,.19,.5-.01,1.18-.88,1.22-.74,.04-1.49,.14-1.49-.91,0-1.32,0-2.63,0-4.25Z"/>
  <path class="cls-15" d="M203.38,174.46c-1.52,.74-1.05,1.49,0,2.23-.37,1.07-1.24,.71-1.66,.28-1.2-1.24-2.41-.55-3.65-.25-.27-.23-.54-.47-.81-.7,1.58-1.04,3.37-1.63,5.17-2.22,.32,.22,.64,.45,.96,.67Z"/>
  <path class="cls-8" d="M170.16,163.22c1.68,.86,2.5,2.05,2.16,3.6-.14,.65-1.37,.7-1.87,.36-1.67-1.13-.41-2.51-.3-3.96Z"/>
  <path class="cls-7" d="M97.25,163.44c1.87,.91,2.91,2.48,3.92,4.19-4.08,.84-2.8-2.67-3.92-4.19Z"/>
  <path class="cls-14" d="M170.82,90.57c0-.28,0-.55,0-.83,1.63-.42,3.26-.84,4.88-1.26,.62,.36,1.25,.73,1.87,1.09-1.63-.23-3.1,.3-4.35,1.17-.98,.68-1.65,.38-2.42-.17Z"/>
  <path class="cls-4" d="M224.87,106.91c-1.85-1.16-3.49-1.36-3.76-3.1-.08-.52,.19-1,.88-.83,1.79,.44,1.91,2,2.89,3.93Z"/>
  <path class="cls-14" d="M133.72,134.32c.65,.53,.06,1.83,1.35,1.96,.32,.06,.64,.12,.96,.18,.03,1.57-.08,3.13-.7,4.62-.79-.83,1.76-3.47-1.7-2.86-.23-.99-.47-1.99-.7-2.98,.26-.31,.52-.61,.78-.92Z"/>
  <path class="cls-7" d="M108.1,125.45c-.45-1.17-.91-2.33-1.38-3.55,.95-.4,2.42-.48,2.74,.15,.55,1.11-.35,2.33-.91,3.44-.17-.02-.34-.06-.5-.12,0,0,.05,.07,.05,.07Z"/>
  <path class="cls-8" d="M214.49,147.44q2.93-1.09,2.53,3.35c-.91-1.2-1.71-2.26-2.53-3.35Z"/>
  <path class="cls-15" d="M159.96,122.37c-.29,.43-.59,.86-.88,1.29-.38-.54-.97-1.04-1.21-.07-.23,.93-.76,1.54-1.38,2.17-.29-.6-.58-1.2-.87-1.8,.58-2.7,2.64-1.7,4.35-1.59Z"/>
  <path class="cls-7" d="M164.47,146.54c-.06-1.2,.59-2.31,1.7-2.24,1.3,.08,.68,1.45,.54,2.15-.5,2.55-1.52-.93-2.22,.12,0,0-.03-.02-.03-.02Z"/>
  <path class="cls-7" d="M101.97,143.55c1.67,.41,2.68,.9,2.31,2.43-.12,.47-.51,1.12-.95,.89-1.2-.6-1.13-1.82-1.35-3.32Z"/>
  <path class="cls-8" d="M194.39,158.7c.41,.25,.52,.28,.56,.35,.58,1.04,1.88,1.83,1.23,3.26-.05,.12-.58,.18-.78,.08-1.61-.83-1.25-2.18-1.01-3.7Z"/>
  <path class="cls-13" d="M167.61,81.95c.99,.33,2.25-.64,3.07,.56-1.88,.24-3.51,1.5-5.52,1.21,.09-.39,.19-.77,.28-1.16,.76-.13,1.69,.28,2.21-.63l-.04,.02Z"/>
  <path class="cls-15" d="M222.88,98.54c.11,.36,.22,.72,.33,1.07-3.19,.66-3.21,.64-2.28-2.56,.96,.13,.73,1.7,1.95,1.48Z"/>
  <path class="cls-14" d="M133.57,154.6c1.22,1,1.78,2.4,2.4,3.75-.43,0-.86,0-1.29,.01-.63-.98-1.26-1.97-1.9-2.95,.26-.27,.52-.54,.78-.81Z"/>
  <path class="cls-7" d="M177.97,147.45c-.76-.24-.89-.24-.95-.3-.9-.9-1.96-1.69-2.33-2.96-.03-.1,.52-.5,.61-.45,1.32,.72,1.69,2.05,2.67,3.71Z"/>
  <path class="cls-7" d="M123.56,163.69c1.34,.58,2.37,1.39,2.39,2.93,0,.09-.56,.34-.72,.26-1.39-.66-1.55-1.93-1.64-3.21l-.03,.02Z"/>
  <path class="cls-14" d="M129.36,151.12c-.49-.55-.98-1.1-1.47-1.65,.84-.29,.75-1.67,2.17-1.51,.27,1.14-.48,2.11-.7,3.16Z"/>
  <path class="cls-15" d="M211.21,80.15c.83-1.28,2.26-1.76,3.58-2.37,0,.4,.02,.8,.03,1.19-1.2,.39-2.41,.79-3.61,1.18Z"/>
  <path class="cls-14" d="M126.04,176.84c-.63-.24-1.09-.66-1.32-1.27,.91-.36,.55-2.04,2.04-1.79-.93,.43-1.11,1.05-.52,1.86-.07,.4-.13,.8-.2,1.2Z"/>
  <path class="cls-14" d="M176.96,87.88l.02-1.19c.38,0,.77,0,1.15,0,.08,.38,.16,.75,.24,1.13-.47,.02-.94,.04-1.42,.06Z"/>
  <path class="cls-15" d="M222.69,101.55c-.13,.1-.25,.19-.38,.29-.14-.17-.28-.34-.42-.51,.15-.07,.32-.21,.46-.18,.12,.02,.2,.23,.34,.41Z"/>
  <path class="cls-10" d="M217.08,117.93c-.16,.5-.63,.93-1.02,.63-.65-.5,.19-.86,.4-1.27,.21,.21,.41,.43,.62,.64Z"/>
  <path class="cls-3" d="M167.65,81.93c-.52,.91-1.45,.5-2.21,.63,.61-.63,1.39-.7,2.21-.63Z"/>
  <path class="cls-15" d="M206.13,81.37c-.07-.35-.14-.7-.21-1.05,.07,.35,.14,.7,.21,1.05Z"/>
  <path class="cls-14" d="M133.82,140.53c-.02-.37-.03-.74-.05-1.11,.44,.35,.45,.72,.05,1.11Z"/>
  <path class="cls-14" d="M144.4,134.6c.08-.4,.16-.8,.25-1.2-.08,.4-.16,.8-.25,1.2Z"/>
  <path class="cls-15" d="M223.61,177.04c.4,.38,1.12,.64,.8,1.35-.21,.45-.63,.32-.96,.03,.05-.46,.11-.92,.16-1.38Z"/>
  <path class="cls-9" d="M123.58,163.66c-.09-.03-.17-.06-.26-.09,.09-.05,.18-.09,.27-.14-.01,.08-.03,.17-.04,.25,0,0,.03-.02,.03-.02Z"/>
  <path class="cls-15" d="M118.52,161.53c-.07-.16-.15-.31-.2-.48-.02-.07,.05-.16,.08-.25,.04,.24,.08,.48,.12,.72Z"/>
  <polygon class="cls-9" points="227.45 168.22 227.38 168.06 227.57 168.1 227.45 168.22"/>
  <path class="cls-15" d="M235.19,169.55c.18-.33,.35-.66,.53-.99,.09,.46-.08,.79-.53,.99Z"/>
  <path class="cls-9" d="M178.17,148.31c.08,.02,.16,.04,.24,.06-.06-.04-.12-.07-.18-.11l-.06,.05Z"/>
  <path class="cls-9" d="M178.22,148.25c-.19-.13-.39-.27-.58-.4,.08-.06,.15-.13,.23-.19,.1,.21,.2,.43,.3,.64,0,0,.06-.05,.06-.05Z"/>
  <path class="cls-14" d="M178.39,88.14c.11,.31,.22,.61,.32,.92-.11-.31-.22-.61-.32-.92Z"/>
  <path class="cls-14" d="M133.04,142.94c-.15-.41,.11-.54,.46-.6-.15,.2-.31,.4-.46,.6Z"/>
  <path class="cls-14" d="M136.15,135.93c-.04,.18-.08,.36-.12,.55-.06-.2-.02-.38,.12-.55Z"/>
  <path class="cls-12" d="M254.69,171.8c-.07-.38-.13-.75-.2-1.13-.68-2.12-2.68-2.45-4.5-2.78-3.2-.58-6.28,.15-9.33,1.07-1.03,.31-2,1.08-3.21,.66-.34-.78,.16-1.13,.81-1.2,4.13-.49,4.58-3.57,5.01-6.56,.67-4.61-.66-8.86-2.6-13.06-.77-1.68-3.04-1.21-3.55-2.89,.24-.66,.71-.45,1.21-.33,3.99,.94,5.26,.22,6.95-3.21,1.81-3.65,1.76-7.58,2.35-11.43-.12-.15-.23-.3-.35-.45-1.09-.04-2.19-.08-3.28-.12,0-.34,0-.68,0-1.02,4.38-.56,8.71,.09,13.05,.47,.83,.07,1.77,.18,.94,1.35-2.32,.41-5.61-1.79-6.67,.21-.93,1.77,.86,4.64,1.96,6.88,1.43,2.9,3.18,5.54,6.51,6.75,2.5,.91,3.62,.27,3.4-2.28-.36-4.38-2.55-8.11-5.28-11.57,.12-2.14,1.99-.62,2.84-1.23,1.01-.6,2.43-.94,1.75-2.58,.06-.32,.12-.65,.18-.97,.36,0,.72,0,1.09,0-.58,2.71,.42,3.51,3.35,3.1,5.95-.84,11.92-.42,17.85,.49-.05,.35-.1,.7-.15,1.05-1.44-.1-2.9-.09-4.3-.34-2.26-.41-3.07,.08-2.2,2.35,.95,2.5,1.94,4.95,3.45,7.22,.38,.57,1.69,1.06,.76,2.13-1.5-.04-1.79-1.34-2.39-2.22-2.13-3.17-2.9-3.15-4.85,.29-.49,.86-.93,1.77-1.23,2.7-.96,2.92,.08,4.05,3.1,3.2,1.85-.52,3.58-1.45,5.36-2.2,.51,.03,.98,.13,1.22,.63-.67,1.8-1.68,3.43-1.1,5.58,1.19,4.42,4.28,8.25,4.41,13,0,.15,.67,.28,1.02,.41,0,.36,0,.71,0,1.07-6.44,3.4-12.89,6.81-19.81,10.46,.7,.39,.96,.53,1.22,.68,4.67,2.7,9.34,1.46,14,0,.28,.22,.57,.44,.85,.67-5.42,2.58-10.85,3.41-16.21-.09-.93-.61-1.64-.33-2.55-.02-.7,.24-1.5,1.26-2.35,.17,3.09-2.36,6.89-3.54,10.15-5.61,1.55-.99,3.61-1.31,4.76-3.05-2.87-1.21-5.63-1.43-8.59-1.05-5.3,.69-9.99,2.95-14.84,4.8Zm7.44-4.43c1.58-.32,3.24-.47,3.88-2.3,1.15-3.28,1.95-6.64,1.56-10.1-.32-2.87-1.3-5.51-3.78-7.48-1.5-1.2-3.37-1.27-4.88-.91-1.15,.27-.42,2.09-.6,3.21-.27,1.72,.24,3.25,1.15,4.75,2.34,3.86,3.44,7.95,2.19,12.4,.01,.23,.03,.45,.04,.68,.15-.08,.3-.17,.44-.25Zm-13.75-9.05c3.27,2.41,5.28,5.7,6.69,9.28,1,2.54,2.26,2.13,3.75,.68,2.35-2.29,2.37-5.12,1.64-7.98-1.07-4.2-3.72-7.62-6.28-11.07-1.26-1.7-2.48-3.37-5.2-2.12-.84,.38-2.07,.1-2.91-.61-1.75-1.47-2.37-.23-2.64,1.12-.25,1.24,.09,2.51,.39,3.78,.68,2.85,3.18,4.52,4.54,6.9-2.07,.85-2.05-1.87-3.66-1.93-.48,2,1.35,2.92,2.26,4.21,.48,.68,.99,.08,1.26-.53,.25-.58-.95-1.26,.16-1.74Zm19.6-9.88c.27,3.31,1.36,5.83,2.92,8.19,2.22,3.36,5.3,6,8.1,8.89,1.49,1.55,1.81,1.35,3.69,.43,3.72-1.82,2.99-4.2,2.06-6.86-1.13-3.23-3.33-5.82-5.64-8.38-1.68-1.87-4.44-2.21-5.95-3.81-1.62-1.71-2.49-.23-3.68-.11-1.32,.14-1.67,.98-1.51,1.63Zm4.42-18.03c-5.81,.2-4.8-.35-6,4.4-.63,2.48-1.27,4.95-1.42,7.52-.19,3.07,1.34,4.24,4.41,3.22,1.57-.52,2.51-1.65,3.2-3.03,1.4-2.78,1.84-5.78,2.53-8.76,.73-3.11-.17-3.99-2.72-3.35Zm-21.8,5.71c-1.05,1.54-2.21,2.67-2.63,4-.53,1.71-3,3.64-.99,5.2,2.19,1.7,4.35-.41,6.33-1.51,.78-.44,1.2-.87,.58-1.85-1.11-1.73-2.03-3.57-3.3-5.84Zm25.91,29.11c-1.79-1.99-3.46-3.84-5.13-5.69-.34-.37-.78-.88-1.23-.43-1.36,1.4-1.54,3.18-1.37,4.97,.16,1.69,1.56,.8,2.41,.88,1.63,.16,3.28,.17,5.31,.26Zm-12.54-26.25c.65-2.48,1.13-4.23,1.55-5.99,.15-.64,.56-1.64-.17-1.88-1.19-.38-2.41,.18-3.52,.74-.72,.37-1.12,.85-.7,1.66,.84,1.61,1.68,3.23,2.84,5.47Zm-10.87,28.36c-.22-2.29-1.7-3.7-2.79-5.31-.34-.5-.79-1.05-1.41-.41-1,1.03-.62,2.39-.67,3.61-.04,.91,.68,1.22,1.62,1.33,.99,.11,1.95,.46,3.25,.79Zm-8.1-7.23c-.41,1.88-.75,3.26-1.01,4.66-.12,.64-1.05,1.57,.36,1.83,1,.19,1.96,.02,2.34-1.23,.58-1.91-.27-3.36-1.69-5.27Zm3.29-23.55c3.38-2.06,1.58-3.98,.37-5.88-.11,1.79-.23,3.57-.37,5.88Zm27.45,.77c2.88-1.4,1.91-2.88,.79-4.65-.27,1.56-.49,2.86-.79,4.65Z"/>
  <path class="cls-7" d="M264.7,116.71c-.14,1.67-.19,3.35-.46,5-.24,1.46-1.21,1.69-1.95,.41-4.75-8.25-12.76-14.51-15.9-23.73-.34-.99-1.21-2.21-.37-3.01,.71-.68,1.84,.36,2.82,.52,.71,.12,1.45,.44,2.12,.33,4.21-.69,6.44,1.8,8.49,4.65,3.43,4.77,5.17,10.04,5.25,15.84Z"/>
  <path class="cls-7" d="M289.11,119.65c-.11,.96,.12,2.31-1.29,2.88-1.22,.49-2.33-.14-2.96-1.04-5.32-7.63-11.79-14.63-14.28-23.81-.55-2.01-.13-1.98,2-1.87,5.58,.28,8.16,3.77,10.62,7.71,3.09,4.94,5.51,10.1,5.92,16.13Z"/>
  <path class="cls-7" d="M290.69,173c3.51-5.97,1.94-12.49,2.48-18.79,.16-1.86,.35-3.72,.59-5.57,.38-2.86,2.84-3.61,5.14-4.49,1.14-.44,1.13,.48,1.26,1.1,1.41,6.79,2.17,13.63,1.16,20.52-.83,5.66-4.28,7.96-10.63,7.23Z"/>
  <path class="cls-7" d="M294.16,93.53c6.59-2.96,12.69-2.36,16.72,1.32,4.56,4.17,5.92,10.87,3.08,17.05-3.64-9.13-12.7-12.54-19.81-18.37Z"/>
  <path class="cls-7" d="M246.72,106.1c-.58,4.38-.82,8.43-2.69,12.14-.49,.96-1.09,2.21-2.43,1.86-1.14-.3-.53-1.54-.57-2.35-.27-5.8-1.95-11.24-4.53-16.45-1.69-3.41,1.1-7.81,4.96-7.79,.76,0,1.14,.4,1.41,.93,1.92,3.82,3.65,7.7,3.85,11.67Z"/>
  <path class="cls-7" d="M276.95,88.61c-10.79,3.69-20.64,9.59-32.6,4.01,12.06-6.43,24.65-8.79,32.6-4.01Z"/>
  <path class="cls-7" d="M269.44,92.96c6.68-2.72,13.12-5.35,20.06-6.57,5.22-.92,8.59,.12,11.47,3.71-7.93,1.41-14.95,5.76-23.24,5.33-2.9-.15-5.69-.63-8.29-2.46Z"/>
  <path class="cls-7" d="M257.99,131.16c.83-1.17-.11-1.27-.94-1.35-4.34-.38-8.67-1.03-13.05-.47-1.75,.06-3.52,.01-5.25,.22-2.22,.27-2.38-.55-1.86-2.34,1.04-3.54,3.15-5.45,6.97-5.58,2.99-.11,6.01-.12,8.98,.14,5.17,.45,7.65,3.13,7.9,8.15-.85,.61-2.72-.91-2.84,1.23,0,0,.08,0,.08,0Z"/>
  <path class="cls-7" d="M304.94,123.52c.24,5.92-.27,11.6-3.81,16.67-.51,.73-1.1,1.44-1.79,2.01-1.45,1.19-3.15,2.21-5.05,1.21-1.82-.96-1.77-2.83-1.37-4.48,1.18-4.89,2.8-9.65,5.1-14.18,.54-1.05,.95-2.54,2.81-1.02,1.1,.9,2.56-.14,4.11-.21Z"/>
  <path class="cls-7" d="M308.06,106.05c7.16,5.8,9.03,18.81,.6,27.8-.97,1.04-1.44,.78-1.9-.28-.27-.63-.78-1.31-.7-1.9,.62-4.27-.28-8.61,.91-12.87,.96-3.44,.68-7.02,.79-10.54,.02-.74-.36-1.54,.3-2.21Z"/>
  <path class="cls-7" d="M284.96,129.96c-5.93-.92-11.9-1.33-17.85-.49-2.92,.41-3.93-.39-3.35-3.1,.97-2.92,3.3-4.25,6.26-4.53,3.6-.35,7.23-.4,10.78,.55,3.15,.84,5.15,2.76,5.96,5.82,.41,1.58-.44,1.88-1.8,1.76Z"/>
  <path class="cls-7" d="M270.75,112.05c.27,2.47,.33,4.54-.21,6.56-.38,1.42-1.42,2.09-2.98,1.98-1.83-.13-1.68-1.39-1.63-2.59,.24-5.84-1.09-11.33-4.29-16.32-1.26-1.97-.54-3.83-.02-5.67,.39-1.37,2.05-1.13,3.15-1.5,1.21-.41,1.46,.86,1.9,1.55,3.21,5.04,4.07,10.63,4.08,16Z"/>
  <path class="cls-7" d="M283.48,175.98c-4.67,1.46-9.34,2.69-14,0-.26-.15-.52-.29-1.22-.68,6.92-3.65,13.36-7.06,19.81-10.46q3.78-.3,3.08,3.29c-.57,2.94-1.95,5.26-5.04,6.42-.93,.35-1.75,.95-2.62,1.43Z"/>
  <path class="cls-7" d="M298.77,107.96c0-2.45,.06-4.91-.02-7.35-.05-1.63,.48-1.57,1.76-.89,3.92,2.08,6.78,4.59,5.94,9.47-.46,2.7-.32,5.48-.54,8.22-.12,1.48-.58,2.89-1.53,4.11-.59,.76-1.41,1.26-2.36,1.21-1.13-.06-1.36-1.06-1.61-1.91-1.25-4.2-1.11-8.56-1.65-12.85Z"/>
  <path class="cls-7" d="M309.83,154.79c-.02,2.17-.05,4.34-.07,6.51-1.14,7.02-4.79,12.08-12.23,14.11-2.83,.77-5.65,.66-8.59-.29,.46-.92,1.11-.59,1.63-.6,.52,0,1.03,.09,1.55,.1,6.05,.08,9.69-2.88,10.57-8.61,.17-1.07,.49-2.18,.35-3.23-.68-5.1,.29-9.43,6.07-11.86,.38,.15,0,1.01,.35,1.54,.07,.3,.15,.6,.22,.9,.06,.47,.11,.95,.17,1.42Z"/>
  <path class="cls-7" d="M254.68,80.19c6.73-1.53,13.23-1.67,19.63,.69,2.25,.83,4.18,2.16,5.73,3.92,.55,.62,1.71,1.44,1.02,2.16-.63,.66-1.87,1.3-3.08,.58-5.43-3.2-11.32-3.36-17.36-2.29-1.07,.19-1.7-.09-2.34-.91-1.03-1.34-2.21-2.56-3.6-4.15Z"/>
  <path class="cls-7" d="M290.41,122.27c.5-6.57-1.72-12.28-5.02-17.7-.54-.88-1.02-1.69-.41-2.73,.79-1.34,.86-2.83,.71-4.32-.12-1.2,.31-1.73,1.59-2.03,1.32-.31,1.89,.15,2.42,1.15,1.3,2.47,2.54,5,3.1,7.71,1.07,5.19,.77,10.39-.54,15.53-.23,.9-.29,.88-1.85,2.4Z"/>
  <path class="cls-7" d="M306.05,90.6c-1.55-.01-2.72-.05-3.58-1.16-3.36-4.34-8.05-5.49-13.2-4.18-4.11,1.04-7.48,1.23-9.78-2.84-.31-.54-1.03-.87-1.65-1.37,12.28-2.81,25.71,.34,28.21,9.55Z"/>
  <path class="cls-7" d="M288.06,163.76c-.36-.14-1.02-.27-1.02-.41-.13-4.75-3.22-8.58-4.41-13-.58-2.16,.43-3.78,1.1-5.58,5.41,1.59,7.55,4.62,7.96,11.28,.06,1.08-.12,2.18,.06,3.23,.5,2.84-.57,4.39-3.68,4.48Z"/>
  <path class="cls-7" d="M247.63,130.93c-.59,3.84-.54,7.77-2.35,11.43-1.7,3.43-2.96,4.15-6.95,3.21-.51-.12-.97-.34-1.21,.33,0,0,.05,.03,.05,.03,1.32-1.9,.23-4.12,.88-6.1,.58-1.99,1.33-3.94,1.69-5.97,.43-2.42,1.62-3.68,4.26-3.5,1.09,.04,2.19,.08,3.28,.12,.07,.18,.19,.33,.35,.45Z"/>
  <path class="cls-7" d="M282.5,142.37c.93-1.07-.38-1.56-.76-2.13-1.51-2.27-2.5-4.72-3.45-7.22-.86-2.27-.05-2.77,2.2-2.35,1.41,.26,2.87,.24,4.3,.34,.53,.24,1.21,.16,1.5,.85,1.33,3.17,2.78,6.29,3.97,9.5,.37,1.01,.79,2.46-.39,3.27-1.1,.75-2.35,.11-3.47-.39-.92-.41-1.83-.86-2.74-1.29-.09-.77-.36-1.21-1.21-.6l.03,.02Z"/>
  <path class="cls-7" d="M302.51,153.35c.12-3.17-.51-6.22-1.26-9.26-.19-.77-.34-1.55,.3-2.23,2.01-2.16,3.04-4.75,3.48-7.78,5.12,7.56,4.51,17.94-2.51,19.28Z"/>
  <path class="cls-7" d="M244.69,120.12c1.33-2.67,2.27-5.04,2.52-7.61,.13-1.28,.54-1.96,2.17-1.24,3.88,1.72,6.68,4.46,8.82,7.9,.42,.68,.88,1.4,.21,2.17-.67,.77-1.31,.11-1.93-.1-3.67-1.24-7.51-.94-11.78-1.12Z"/>
  <path class="cls-7" d="M240.23,80.85c-.65-2.7,1.05-2.93,3.51-2.63,4.84,.58,9.24,1.96,12.46,5.66,.48,.55,1.79,1.24,.79,2.05-.76,.61-2.11,1.26-3.13,.42-3.26-2.68-7.17-2.63-11.09-2.61-2.77,.01-2.77,.05-2.54-2.9Z"/>
  <path class="cls-5" d="M239.03,78.05c-.09,1.48-.18,2.56-.21,3.63-.06,2.46-1.82,2.51-3.78,2.77-2.37,.3-2.07-1.18-2.29-2.46-.15-.87-.34-1.73-.56-2.58-1.44-5.6-1.42-5.53,4.61-7.02,1.37-.34,1.6,0,1.7,1.1,.15,1.65,.39,3.3,.54,4.56Z"/>
  <path class="cls-7" d="M297.26,105.06c.59,5.47,.61,10.45,1.5,15.37,.32,1.77-1.57,2.81-2.96,3.79-.67,.47-1.4,.26-1.93-.33-1-1.11-.84-2.28-.36-3.59,.99-2.72,1.04-5.61,1.42-8.43,.3-2.22,.99-4.34,2.34-6.8Z"/>
  <path class="cls-7" d="M272.18,109.7c3.83,2.1,5.74,5.36,7.92,8.37,.81,1.12,.54,1.78-.91,2-2.23,.35-4.26-.23-6.26-1.06-.84-.35-.78-.98-.76-1.7,.05-2.44,.02-4.88,.02-7.61Z"/>
  <path class="cls-7" d="M282.5,144.13c-1.78,.75-3.51,1.68-5.36,2.2-3.02,.85-4.06-.28-3.1-3.2,.3-.93,.74-1.84,1.23-2.7,1.95-3.44,2.71-3.46,4.85-.29,.6,.88,.89,2.18,2.39,2.22,0,0-.03-.02-.03-.02-.06,.07-.17,.14-.16,.2,.02,.14,.11,.27,.16,.4,0,.4,.02,.79,.02,1.19Z"/>
  <path class="cls-12" d="M226.32,120.47c-.47-1.22-.97-2.32-2.4-2.94-.65-.28-2.06-.41-1.68-1.79,2.75,.23,4.45,2.42,6.84,3.3,1.15,.42,2.39,2.08,3.46,.93,.8-.86-.82-1.98-1.38-2.97-.78-1.39-2.33-2.45-2-4.31,.83-.62,1.1,.19,1.29,.58,1.38,2.86,3.79,5.03,5.54,7.62-.24,.24-.47,.49-.71,.73-1.29-.58-1.95-.25-1.83,1.17-.27,.23-.54,.46-.81,.69-1.63-1.1-3.14-2.42-5.29-2.51-.25-.09-.5-.18-.75-.27-.07-.11-.16-.19-.28-.25Z"/>
  <path class="cls-7" d="M294.84,106.78c-.77-3.01-1.11-5.28-2.33-7.21-.99-1.57-.31-2.76,.51-4.02,.23-.36,.63-.72,.96-.4,1.16,1.15,3.15,1.58,3.41,3.52,.38,2.79-1.21,5-2.55,8.12Z"/>
  <path class="cls-7" d="M294.86,128.26c-1.19,3.49-2.34,6.86-3.51,10.27-4.57-5.5-3.48-8.86,3.51-10.27Z"/>
  <path class="cls-7" d="M295.64,126.33c-2.55,.61-4.81,1.7-7.03,3.32-.85-1.87-1.03-3.81-2.2-5.34,3.59-1.68,6.36,.12,9.23,2.02Z"/>
  <path class="cls-8" d="M237.11,138.42c-1.57-1.42-1.89-3.13-2.74-4.54-.51-.84-.2-1.55,.66-1.95,1.1-.51,2.33-1.23,3.5-.78,1.05,.4,.17,1.35,0,2.04-.43,1.67-.9,3.34-1.41,5.23Z"/>
  <path class="cls-7" d="M283.65,101.72c-1.4-1.85-2.46-3.25-3.66-4.82,1.57-.27,3.17-1.3,4.01-.28,1.03,1.23,.45,2.98-.36,5.11Z"/>
  <path class="cls-8" d="M291.74,149.79c-1.21-1.97-1.96-3.6-.14-5.24,.3-.27,.24-1.14,.95-.66,.52,.35,1.48,.66,1.18,1.48-.54,1.45-1.27,2.84-1.99,4.42Z"/>
  <path class="cls-7" d="M252.05,110.99c-2.23-.87-5.24-1.14-3.94-5.05,1.77,1.55,3.24,2.99,3.97,5.01l-.03,.03Z"/>
  <path class="cls-12" d="M238.05,139.83c-.66,1.99,.43,4.2-.88,6.1-.62,0-1.24,0-1.86,0,0-.38,0-.76,0-1.14,1.85-1.89,.83-3.89,.23-5.87,1-.11,1.98-.14,2.51,.92Z"/>
  <path class="cls-7" d="M262.67,126.37c-.06,.32-.12,.65-.18,.97-1.83-1.02-1.63-3.31-3.11-4.57-.09-.08,.06-.59,.24-.75,.15-.13,.69-.14,.76-.02,.9,1.39,3.1,2.17,2.29,4.37Z"/>
  <path class="cls-7" d="M233.45,122.81c-.11-1.42,.54-1.75,1.83-1.17,.46,1.27,2.97,2.35,.36,3.91-.73-.91-1.46-1.82-2.19-2.73Z"/>
  <path class="cls-7" d="M234.61,97.68c-.71-.63-2.15-.97-1.23-2.1,.29-.35,1.34-.59,1.66-.37,1.32,.92-.34,1.56-.43,2.48Z"/>
  <path class="cls-7" d="M259.44,98.62c-.87-.9-1.47-1.52-2.12-2.18,.95-.53,1.85-1.22,2.61-.45,.58,.58,.06,1.47-.49,2.64Z"/>
  <path class="cls-7" d="M273.65,108.75c-1.66-.63-2.29-1.81-2.1-3.69,1.42,.87,1.71,2.27,2.48,3.33-.13,.12-.25,.24-.38,.36Z"/>
  <path class="cls-12" d="M282.48,142.95c-.06-.13-.14-.26-.16-.4,0-.06,.1-.13,.16-.2,.85-.61,1.12-.17,1.21,.6-.4,0-.81,0-1.21,0Z"/>
  <path class="cls-14" d="M309.66,153.37c-.07-.3-.15-.6-.22-.9,.07,.3,.15,.6,.22,.9Z"/>
  <path class="cls-10" d="M274.02,108.39c.2,.22,.41,.47,.05,.7-.04,.03-.28-.22-.43-.34,.12-.12,.25-.24,.38-.36Z"/>
  <path class="cls-9" d="M252.09,110.96c.09,.02,.19,.04,.28,.05-.07,.08-.14,.16-.21,.24-.03-.09-.07-.17-.1-.26,0,0,.03-.03,.03-.03Z"/>
  <path class="cls-13" d="M235.34,63.78c.65-3.12,3.8-2.11,5.72-3.15-1,2.54-3.56,2.51-5.72,3.15Z"/>
  <path class="cls-5" d="M152.83,84.91c-6.8,.16-8.74,4.39-10.41,9.01-.63,1.73-1.3,3.52-2.69,4.92-1.35,1.36-2.91,2.17-4.94,1.81-3.18-.56-3.48-1.2-1.77-3.79,1.44-2.17,2.39-4.56,3.43-6.9,.56-1.26,1.11-2.53,1.84-3.71,3.48-5.62,8.44-6.32,14.55-1.35Z"/>
  <path class="cls-3" d="M131.92,93.27c2.02,1.34,.3,2.61-.47,3.22-2.43,1.95-2.77,3.56-.05,5.48,1.03,.73,1.23,1.58-.5,1.91-3.68,.7-7.35,.95-10.96-.21-2.97-.95-3.37-2.53-1.29-4.81,1.01-1.11,2.18-2.07,3.6-2.7,.55,.04,1.1,.09,1.65,.13-.76,.73-1.9,1.07-2.39,2.09-.95,.95-2.08,2.05-.6,3.19,1.56,1.21,3.48,1.17,5.31,.59-1.07-.58-2.19-.66-3.28-.87-1.62-.32-1.6-1.23-.8-2.34,1.03-1,2.73-1.25,3.32-2.73h0c2.44-.47,4.84-1.03,6.53-2.99l-.07,.05Z"/>
  <path class="cls-3" d="M152.98,87.49c2.97,.83,.46,2.93,1.06,4.35,.37,.88-.2,1.67-1.36,1.86-2.9,.46-5.79,.96-9.03,1.5,.91-2.28,1.04-4.48,3.12-5.79,.55-.16,1.1-.32,1.66-.48,.41-.15,.81-.29,1.22-.44,.5,.08,.96,.04,1.29-.39,.19-.07,.38-.14,.57-.21,.56,.08,1.07,0,1.48-.39Z"/>
  <path class="cls-12" d="M152.75,121.04c-.97,.97-1.56-.21-2.31-.4-4.71-1.2-9.37-1.72-13.88,.7-.19-.29-.38-.59-.57-.88,.48-.33,1.02-.62,1.44-1.01,.55-.53,1.39-1.16,.96-1.92-.59-1.05-1.53-.33-2.33-.03-.85-.45-.67-1.22-.64-1.93,.43,.16,.86,.32,1.29,.48,1.23,.53,2.51,.21,3.77,.21,.57,.03,1.15,.06,1.72,.09,.52,.67,1.26,.55,1.98,.5,.38,.02,.82,0,.56,.58-1.42,1.03-3.57-1.19-4.97,1.14,1.93,0,3.76,.78,5.02-1.1,3.47-.45,5.75,1.51,7.97,3.58Z"/>
  <path class="cls-7" d="M144.07,102.71c.01,.24,.02,.49,.03,.73-1.29,1.11-.14,1.02,.58,1.02,3.31,.02,6.46,.63,9.85,2.47-2.41,.62-4.28,1.31-6.37,.45-2.16-.89-4.4-1.68-6.76-1.75-2.12-.06-.13-1.24-.64-1.67,.28-.24,.55-.48,.83-.72,.83-.18,1.65-.36,2.48-.54Z"/>
  <path class="cls-3" d="M123.91,96.28c-.55-.04-1.1-.09-1.65-.13,3.42-2.42,7.47-3.33,11.61-4.56-.12,1.42-1.55,.96-1.95,1.68,0,0,.07-.05,.07-.05-2.41,.53-4.84,1.03-6.53,3,0,0,0,0,0,0-.52,.02-1.04,.05-1.56,.08Z"/>
  <path class="cls-7" d="M136.06,117.49c.79-.3,1.73-1.02,2.33,.03,.43,.76-.4,1.4-.96,1.92-.42,.4-.96,.68-1.44,1.01-.64-1.01,.39-1.97,.07-2.97Z"/>
  <path class="cls-7" d="M152.16,109.12q3.75-.9,4.1,2.36c-1.29-.74-2.47-1.43-4.1-2.36Z"/>
  <path class="cls-13" d="M148.43,88.92c-.55,.16-1.1,.32-1.66,.48-.06-.53-.32-1.17,.48-1.37,.72-.18,1.06,.25,1.18,.89Z"/>
  <path class="cls-13" d="M150.93,88.09c-.33,.43-.79,.47-1.29,.39-.05-.35-.24-.95-.12-1.01,.67-.34,1.15-.02,1.41,.62Z"/>
  <path class="cls-13" d="M152.98,87.49c-.41,.4-.92,.48-1.48,.39,.12-1.42,.86-.71,1.48-.39Z"/>
  <path class="cls-12" d="M136.22,121.55c-.08,.09-.16,.18-.25,.26-.04-.11-.08-.23-.13-.34,.13,.03,.25,.05,.38,.08Z"/>
  <path class="cls-12" d="M179.48,70.78c.22-.2,.45-.4,.67-.59,.13,.56,0,.86-.67,.59Z"/>
  <path class="cls-7" d="M177.17,182.86c-6.53,1.95-12.75,3.04-19.19,1.58-4.26-.97-7.79-3.03-10.4-6.42-.41-.54-1.4-1.2-.24-1.85,.72-.4,1.57-1.22,2.5-.34,5.1,4.85,11.14,3.06,16.9,1.91,2.39-.48,3.96-.57,5.6,1.39,1.17,1.41,2.97,2.34,4.82,3.74Z"/>
  <path class="cls-12" d="M197.25,176.01c.27,.23,.54,.47,.81,.7-.13,.36-.27,.72-.4,1.08-.54,.05-1.07,.1-1.61,.14-4.42,.77-8.77,2.22-13.36,1.35-1.16-.22-2.64,.07-3.24-1.4,.11-.17,.27-.49,.32-.47,6.05,1.99,11.77,.3,17.48-1.4Z"/>
  <path class="cls-15" d="M196.05,177.94c.54-.05,1.07-.1,1.61-.14,2.64,1.39,5.27,2.79,7.91,4.18-.73,.23-1.45,.46-2.18,.69-2.43-1.6-5.25-2.64-7.34-4.72Z"/>
  <path class="cls-15" d="M247.07,182.79c-.53,.55-1.22,.44-1.89,.4,.63-.13,1.26-.27,1.89-.4Z"/>
  <path class="cls-15" d="M224.74,182.67c-.53,.66-1.27,.54-1.99,.49,.6-.37,1.25-.59,1.99-.49Z"/>
  <path class="cls-12" d="M225.28,179.45c-.08,.08-.15,.15-.22,.21-.07-.13-.16-.26-.19-.4-.01-.05,.13-.13,.19-.19,.07,.13,.15,.26,.22,.38Z"/>
  <path class="cls-12" d="M247.11,179.07c.27-.14,.56-.28,.74,.07,.06,.12-.08,.33-.13,.5-.25-.02-.5-.05-.75-.07l.15-.51Z"/>
  <path class="cls-12" d="M226.97,181.09c-.36-.17-.79-.34-.46-.82,.31-.45,.67-.23,.99,.03-.18,.26-.35,.53-.53,.79Z"/>
  <path class="cls-7" d="M254.69,171.8c4.85-1.86,9.54-4.11,14.84-4.8,2.96-.39,5.72-.16,8.59,1.05-1.15,1.74-3.21,2.06-4.76,3.05-3.26,2.07-7.07,3.25-10.15,5.61,0,0,.01-.03,.01-.03-.73-.31-1.36-.4-1.54,.59,0,0-.01,0-.01,0-3.52-.13-7.14,1.02-10.54-.73-1.69-1.07-2.26-2.02,.18-2.95,1.19-.45,2.26-1.19,3.39-1.79Z"/>
  <path class="cls-12" d="M251.13,176.54c3.4,1.75,7.02,.6,10.54,.73-1.22,1.43-2.46,1.68-6.13,1.28-.38,0-.77-.01-1.15-.02-1.59,.16-2.92-.45-4.18-1.27,.31-.24,.62-.48,.93-.72Z"/>
  <path class="cls-12" d="M261.68,177.27c.18-.99,.82-.9,1.54-.59,.74,.63-.08,1.25-.32,1.37-.63,.32-1.16-.01-1.22-.78Z"/>
  <path class="cls-15" d="M257.8,183.16c-.72,.06-1.45,.19-2-.45l2,.45Z"/>
  <path class="cls-15" d="M265.06,182.83c-.58,.52-1.28,.39-1.97,.33,.66-.11,1.31-.22,1.97-.33Z"/>
  <path class="cls-12" d="M264.83,180.23c-.5-.29-1-.58-1.5-.87,.28-.23,.57-.47,.85-.7,.4,.24,.81,.49,1.21,.73-.19,.28-.37,.56-.56,.85Z"/>
  <path class="cls-15" d="M276.56,182.54c-.47-.04-.94-.09-1.42-.13,.47,.04,.94,.09,1.42,.13Z"/>
  <path class="cls-15" d="M279.31,182.29c-.49,.08-.98,.16-1.47,.25,.49-.08,.98-.16,1.47-.25Z"/>
  <path class="cls-15" d="M254.39,178.53c.38,0,.77,.01,1.15,.02-.39,.34-.77,.19-1.15-.02Z"/>
  <path class="cls-12" d="M263.33,179.36c-.32-.27-.55-.57-.16-.92,.42-.37,.7,.04,1.01,.22-.28,.23-.57,.47-.85,.7Z"/>
  <path class="cls-12" d="M265.32,180.56c-.16-.11-.33-.22-.49-.33,.19-.28,.37-.56,.56-.85,.21,.12,.43,.25,.64,.37-.24,.27-.47,.54-.71,.8Z"/>
  <path class="cls-5" d="M227.23,64.74c1.33-2.38,3.78-4.13,4.37-6.93,.62,.14,1.11,.73,1.84,.46,.22,.22,.45,.45,.67,.67-2.44,1.77-3.3,5.25-6.88,5.8Z"/>
  <polygon class="cls-6" points="320.18 36.71 320.12 36.75 319.89 36.76 319.85 36.98 319.97 36.88 319.9 36.65 320.18 36.71"/>
  <polygon class="cls-15" points="237.69 59.95 237.71 60.12 237.71 59.99 237.69 59.95"/>
  <path class="cls-7" d="M113.13,116.32c1.1-.04,2.2-.08,3.29-.12,.89,1.52-.39,2.07-1.42,2.38-.6,.18-1.41,1.07-2.12,.18-.66-.84-.89-1.72,.25-2.44Z"/>
  <path class="cls-12" d="M126,119.27c.14-.04,.23,0,.28,.13-.27,.2-.52,.5-.92,.23,.21-.12,.42-.24,.64-.36Z"/>
  <path class="cls-12" d="M132.25,153.61c.96,.04,1.46,.29,.62,1.19-.88-.07-1.38-.33-.62-1.19Z"/>
  <path class="cls-12" d="M133.57,154.6c-.26,.27-.52,.54-.78,.81-.04-.14-.1-.28-.1-.43,0-.06,.12-.12,.19-.18,.16-.29,.39-.37,.69-.2Z"/>
  <path class="cls-12" d="M229.16,112.71c-1.3-.03-1.68-.65-1.24-1.78,1.44-.06,1.57,.71,1.24,1.78Z"/>
  <path class="cls-15" d="M140.48,116.25c-1.26,0-2.54,.32-3.77-.21,1.28-.24,2.54-.23,3.77,.21Z"/>
  <path class="cls-15" d="M144.18,116.85c-.72,.05-1.46,.17-1.98-.5,.74-.1,1.39,.09,1.98,.5Z"/>
  <path class="cls-11" d="M226.59,120.72c.25,.09,.5,.18,.75,.27-.25-.09-.5-.18-.75-.27Z"/>
  <path class="cls-15" d="M126.04,176.84c.07-.4,.13-.8,.2-1.2,.46,.25,1.18,.26,1.07,1.04-.32,.82-.79,.55-1.28,.16Z"/>
  <path class="cls-15" d="M127.93,177.26c-.22,.02-.45,.03-.67,.05,.02-.21,.03-.43,.05-.64,.58-.16,.97-.13,.62,.59Z"/>
  <path class="cls-7" d="M228.78,144.96c1.07,.95,3.64,.22,3.29,2.6-.06,.43-.63,1.18-.7,1.15-1.71-.63-1.81-2.4-2.58-3.75Z"/>
  <path class="cls-7" d="M248.37,158.29c-1.37-2.38-3.87-4.06-4.54-6.9-.3-1.27-.63-2.53-.39-3.78,.27-1.35,.88-2.59,2.64-1.12,.84,.71,2.07,.99,2.91,.61,2.72-1.24,3.94,.42,5.2,2.12,2.56,3.45,5.21,6.87,6.28,11.07,.73,2.86,.71,5.69-1.64,7.98-1.49,1.45-2.75,1.86-3.75-.68-1.41-3.58-3.42-6.87-6.69-9.28l-.02-.02Z"/>
  <path class="cls-7" d="M267.99,148.43c-.16-.65,.19-1.49,1.51-1.63,1.18-.13,2.05-1.61,3.68,.11,1.51,1.59,4.26,1.94,5.95,3.81,2.31,2.56,4.5,5.15,5.64,8.38,.93,2.66,1.66,5.04-2.06,6.86-1.89,.92-2.2,1.11-3.69-.43-2.79-2.89-5.88-5.53-8.1-8.89-1.56-2.36-2.65-4.88-2.92-8.19Z"/>
  <path class="cls-7" d="M261.65,166.93c1.26-4.45,.15-8.54-2.19-12.4-.91-1.5-1.42-3.03-1.15-4.75,.18-1.12-.55-2.94,.6-3.21,1.51-.35,3.38-.29,4.88,.91,2.48,1.97,3.46,4.62,3.78,7.48,.39,3.46-.41,6.81-1.56,10.1-.64,1.83-2.3,1.98-3.88,2.3-.16-.14-.33-.29-.49-.43Z"/>
  <path class="cls-7" d="M272.41,130.4c2.54-.64,3.44,.24,2.72,3.35-.69,2.97-1.13,5.98-2.53,8.76-.69,1.37-1.63,2.51-3.2,3.03-3.07,1.02-4.59-.15-4.41-3.22,.16-2.57,.8-5.04,1.42-7.52,1.2-4.75,.19-4.2,6-4.4Z"/>
  <path class="cls-7" d="M257.99,131.16s-.08,0-.08,0c2.73,3.46,4.92,7.19,5.28,11.57,.21,2.55-.9,3.19-3.4,2.28-3.32-1.21-5.08-3.86-6.51-6.75-1.1-2.23-2.89-5.11-1.96-6.88,1.06-2.01,4.36,.19,6.67-.21Z"/>
  <path class="cls-7" d="M250.61,136.12c1.27,2.28,2.19,4.11,3.3,5.84,.63,.98,.2,1.41-.58,1.85-1.98,1.11-4.14,3.21-6.33,1.51-2.02-1.56,.45-3.49,.99-5.2,.42-1.34,1.58-2.47,2.63-4Z"/>
  <path class="cls-7" d="M276.52,165.23c-2.03-.09-3.67-.1-5.31-.26-.85-.08-2.25,.81-2.41-.88-.17-1.79,0-3.58,1.37-4.97,.45-.46,.89,.05,1.23,.43,1.66,1.85,3.33,3.7,5.13,5.69Z"/>
  <path class="cls-8" d="M263.99,138.98c-1.16-2.24-2-3.85-2.84-5.47-.42-.81-.02-1.29,.7-1.66,1.11-.56,2.33-1.13,3.52-.74,.73,.24,.32,1.23,.17,1.88-.42,1.77-.91,3.52-1.55,5.99Z"/>
  <path class="cls-8" d="M253.11,167.34c-1.3-.33-2.26-.68-3.25-.79-.94-.11-1.66-.41-1.62-1.33,.05-1.22-.33-2.57,.67-3.61,.62-.64,1.07-.08,1.41,.41,1.09,1.6,2.57,3.02,2.79,5.31Z"/>
  <path class="cls-7" d="M245.01,160.11c1.42,1.91,2.27,3.36,1.69,5.27-.38,1.25-1.33,1.42-2.34,1.23-1.41-.27-.48-1.19-.36-1.83,.26-1.4,.6-2.79,1.01-4.66Z"/>
  <path class="cls-7" d="M248.29,136.56c.15-2.31,.26-4.09,.37-5.88,1.21,1.91,3,3.83-.37,5.88Z"/>
  <path class="cls-7" d="M248.39,158.31c-1.11,.49,.09,1.17-.16,1.74-.27,.61-.78,1.21-1.26,.53-.91-1.3-2.74-2.22-2.26-4.21,1.61,.05,1.59,2.78,3.66,1.93,0,0,.02,.02,.02,.02Z"/>
  <path class="cls-8" d="M275.75,137.34c.31-1.79,.53-3.09,.79-4.65,1.12,1.77,2.09,3.25-.79,4.65Z"/>
  <path class="cls-2" d="M262.14,167.37c-.15,.08-.3,.17-.44,.25-.01-.23-.03-.45-.04-.68,.16,.14,.32,.29,.49,.43Z"/>
  <path class="cls-15" d="M247.63,130.93c-.16-.12-.27-.27-.35-.45,.12,.15,.23,.3,.35,.45Z"/>
  <path class="cls-13" d="M122.14,98.93c-.81,1.11-.82,2.02,.8,2.34,1.09,.21,2.2,.29,3.28,.87-1.82,.58-3.74,.62-5.31-.59-1.48-1.14-.34-2.25,.6-3.19,.21,.19,.42,.38,.63,.57Z"/>
  <path class="cls-13" d="M125.46,96.21c1.69-1.96,4.12-2.46,6.53-3-1.69,1.96-4.09,2.52-6.53,3Z"/>
  <path class="cls-13" d="M123.91,96.28c.52-.03,1.04-.05,1.56-.08-.59,1.48-2.29,1.73-3.32,2.73-.21-.19-.42-.38-.63-.57,.49-1.02,1.63-1.36,2.39-2.09Z"/>
  <path class="cls-12" d="M144.07,104.71c-.83,.18-1.65,.36-2.48,.54-.61-1.02-1.12-2.04,.7-2.38,1.58-.29,2.01,.51,1.78,1.85Z"/>
  <path class="cls-7" d="M144.79,117.46c-1.26,1.88-3.08,1.1-5.02,1.1,1.4-2.33,3.55-.11,4.97-1.14,0,0,.04,.03,.04,.03Z"/>
  <text class="cls-1" transform="translate(87.75 24.06) scale(1.05 1)"><tspan x="0" y="0">3 mi mc n cha hon chnh</tspan></text>
</svg>