<?xml version="1.0" encoding="UTF-8"?>
<svg id="Layer_1" data-name="Layer 1" xmlns="http://www.w3.org/2000/svg" viewBox="0 0 414 200">
  <defs>
    <style>
      .cls-1 {
        fill: #e7ddcc;
      }

      .cls-2 {
        fill: #fff9b8;
      }

      .cls-3 {
        fill: #fbb040;
      }

      .cls-4 {
        fill: #6b645a;
      }

      .cls-5 {
        fill: #c1c0c0;
      }

      .cls-6 {
        fill: #8accf0;
      }

      .cls-7 {
        fill: #b9b0a8;
      }

      .cls-8 {
        fill: #332f2d;
      }

      .cls-9 {
        fill: #baad99;
      }

      .cls-10 {
        fill: #111211;
      }

      .cls-11 {
        fill: #47403a;
      }

      .cls-12 {
        fill: #514c48;
      }

      .cls-13 {
        fill: #231f20;
        font-family: MyriadPro-Regular, 'Myriad Pro';
        font-size: 12px;
      }
    </style>
  </defs>
  <path class="cls-11" d="M215.43,68.17c-3.05,.08-4.15,1.54-4.25,3.77-.02,.55-.22,1.12-.51,1.63-1.31,2.33-.62,4.31,1.53,6.06h.01c.42,1.44,.89,2.85,1.24,4.29,.99,3.97-.41,7.65-2.29,11.24-.72,1.37-.7,2.55,.05,3.98,2.45,4.68,2.19,9.49,.14,14.2-1.28,2.95-2.03,5.86-1.69,9.03,.32,3.02-.43,6.03-1.49,8.95-.51,1.39-.6,2.74-.15,4.13h-1.1c-.96,.31-1,1.11-1.35,1.7-1.55,2.57-3.23,5.08-5.22,7.45-.81,.97-1.7,1.93-3.42,1.87-.38-.11-.54-.34-.56-.64,1.07-.24,1.36-.65,.75-1.51-1.68-2.34-2.92-4.88-4.88-7.11-.39-.16-.78-.32-1.18-.49,.53-1.09-.37-1.89-.91-2.73-2.83-4.51-4.92-9.35-2.7-14.18,1.5-3.25,.92-6.06,.26-9.11-.86-4.01-.89-7.97,1.37-11.76,.9-1.51-.36-2.8-.52-4.19-.08-.67-1.82-1.76,.34-2.27,2.16,5.82,4.41,11.62,7.69,17.12,.18,.3,.48,.61,1.26,.36,.6-2.72,1.21-5.55,1.84-8.37,.15-.66-.02-1.28-.34-1.85-4.1-7.28-6.93-14.86-8.55-22.73-.22-.81-.44-1.63-.66-2.44-.06-3.57-.04-3.43-3.38-3.07-2.7,.29-.74,1.74-1.27,2.54-.87,.04-1.15-.41-1.27-.98-.13-.58-.35-1.05-1.28-.84-.78,.05-1.56,.1-2.33,.15-4.53,.27-4.73,.54-2.78,3.99,.07,.12,.23,.2,.35,.3-.26,.65-.66,.9-1.39,.35-.14-.33-.28-.66-.42-1-1.59-3.68-1.68-3.69-6.56-3.21-1.04,.1-1.5,.62-2.07,1.14-5.56,4.99-11.06,5.63-17.97,2.07-1.02-.52-1.86-1.21-1.78,.53,.02,.55-.52,.9-1.2,.94-3.99,.21-7.96,.17-11.53-1.53-2.97-1.42-3.07-3.26-.32-5.04,2.09-1.35,4.53-2.32,7.14-2.56,2.76-.25,2.69-1.36,2.15-2.93-.16-.47-.25-.96-.37-1.44,.02-.05,.08-.1,.07-.14-.03-.09-.08-.18-.13-.28-.78-2.23-1.13-4.52-1.42-6.82h.93c.73,3.09,1.47,6.17,2.17,9.26,.14,.64,.19,1.45,1.13,1.45,1.47,0,3.11,0,4.36-.5,1.27-.51-.13-1.61,0-2.46,.15-.94-1.5-2.07,.44-2.83,.34,1.23,.81,2.45,.97,3.7,.17,1.39,1.09,1.6,2.51,1.38,.26-.04,.52-.1,.78-.1,4.61-.07,7.95-1.48,11-4.56,5.38-5.44,11.26-5.05,16.44,.48,.8,.85,1.56,.95,2.68,.8,1.12-.16,2.26-.23,3.39-.35,.42,.03,.84,.06,1.26,.09,.17,6.61,1.36,13.12,2.95,19.58,.17,.68-.09,1.88,1,1.95,1.2,.08,1.36-1.14,1.79-1.86,.41-.69,.63-1.46,.87-2.2,1.09-3.44,.89-6.97,1.15-10.46,.06-.73-.35-1.59,.83-2.03,.06,.17,.12,.34,.18,.52,.02,.77,.02,1.53,.06,2.3,.02,.48-.11,1.14,.7,1.19,1.06,.06,1.03-.87,.9-1.23-.62-1.72,.8-1.85,2.24-2.03,.95-.12,1.91-.25,2.86-.38,3.14-.33,6.29-.66,9.43-1,0,.25,0,.49,0,.74Zm-41.42-2.11c-.16,.24-.31,.48-.47,.71-1.95,1.31-2.38,3.31-4.1,5.15,6.83-.18,13.01-.83,19.18-1.45,1.05-.11,1.31-.53,1.27-1.25-.06-.2-.11-.4-.17-.6-.1-1.11-.21-2.23-.31-3.34-.02-.34-.04-.67-.06-1.01-.76-.78-1.81-.35-2.65-.26-2.92,.3-5.82,.69-8.71,1.14-1.35,.21-3.04-.41-4,.91Zm-13.9,2.21l-1.61,.1c.4-1.36,2.61,.06,3.1-1.45-3.01,.03-5.87,.5-8.73,.93-.86,.11-1.73,.23-2.59,.34-2.2-.03-4.36,.21-6.46,.76-2.82,.33-5.43,1.11-7.76,2.42-2.64,1.49-2.51,2.9,.36,4.03,2.49,.98,5.16,1.36,7.93,1.26,.76-.03,1.75,.25,2.2-.33,.52-.66-.46-1.11-.84-1.61-1.34-1.75-1.07-2.32,1.56-2.54,2.36-.2,4.76-.4,7.1-.24,3.29,.22,5.13-.92,6.08-3.28,.1-.09,.2-.18,.3-.28-.21-.04-.42-.08-.63-.12Zm49.25,9.64c-.91,1.95-1.67,3.44-2.32,4.97-3.81,8.87-6,18.05-8.06,27.25-.4,1.8,1.29,1.85,2.34,2.21,1.32,.46,1.43-.79,1.7-1.39,3.06-6.81,6.25-13.59,8.96-20.49,1.64-4.18,.66-8.31-2.62-12.54Zm-61.08-4.68c4.36,4.75,11.36,5.41,16.56,1.79,2.88-2.01,4.54-4.65,6.19-7.29,1.35-2.16,2.92-3.82,6.4-3.5,1.1,.1,2.26-.26,3.4-.35,1.47-.11,1.57-.54,.77-1.47-3.1-3.59-7.97-4.22-12.08-1.37-3.57,2.47-6.28,5.51-8.41,8.86-1.33,2.09-3.14,3.25-6.27,3.02-2.14-.16-4.34-.11-6.56,.3Zm51.12,57.22c2.02-2.86,4.04-5.9,6.27-8.84,2.84-3.72,4.7-7.74,5.66-11.99,.81-3.56,.63-7.11-1.34-10.49-1.06,.34-1.03,1.08-1.26,1.64-2.41,5.81-4.85,11.56-8.72,16.95-2.77,3.86-5.02,8.24-.62,12.74Zm-.4-44.31c.09,1.82-.04,3.65,.56,5.45,.24,.72,.58,1.06,1.54,1.16,1.05,.11,1.13-.42,1.34-.96,2.29-5.9,4.8-11.76,6.81-17.72,1.81-5.37,1.57-5.43-5.34-4.27-.26,.04-.52,.08-.77,.14-.52,.13-.93,.31-1.02,.83-.88,5.14-3.38,10.08-3.1,15.37Zm-.51,57.5c2.65-9.83-2.58-17.91-8.68-26.17-2.35,3.03-2.12,6.03-1.58,8.99,1.19,6.55,6.67,11.49,10.26,17.18Zm-8.37-43.99c-3.73,8.77-.7,16.57,5.73,24.25,.44-2.3,2.28-3.98,1.74-6.24-1.5-6.24-4.5-12.09-7.47-18Zm18.14,20.74c-3,3.74-5.97,7.45-8.24,11.47-.14,.25-.34,.56-.28,.8,.76,3,.76,6.04,1.01,9.12,5.49-6.47,8.21-13.53,7.5-21.4Zm-10.21-38.31c-1.2,1.42-1.52,2.64-2.65,3.43-.58,.4-.92,.8-.65,1.45,.69,1.66,1.32,3.33,1.99,5,.2,.51,.53,.93,1.31,.73,.7-.19,.47-.67,.37-1.06-.77-2.98-.56-6-.36-9.55Zm2.05,16.22c1.05-1.22,.92-2.53,1.49-3.67,.19-.38-.02-.74-.51-.82-.93-.15-1.9-.38-2.83-.06-.5,.17-.43,.61-.25,.92,.68,1.16,.89,2.51,2.1,3.63Zm-1.33,19.01c.82-1.17,1.29-1.82,1.75-2.48,.38-.54,.99-1.07,.03-1.62-.8-.45-1.74-.94-2.66-.63-1.05,.36-.16,1.07-.04,1.6,.2,.87,.5,1.72,.92,3.12Zm.24-40.28c.85-1.47,1.37-2.56,.87-4.01-1.34,1.21-.58,2.47-.87,4.01Zm1.5,65.4s-.07-.1-.11-.14c-.05,.04-.13,.08-.14,.12,0,.04,.06,.09,.1,.14,.05-.04,.1-.08,.15-.12Z"/>
  <path class="cls-3" d="M151.43,61.67c-1.94,.77-.29,1.89-.44,2.83-.14,.85,1.26,1.95,0,2.46-1.25,.5-2.89,.51-4.36,.5-.94,0-.99-.81-1.13-1.45-.7-3.09-1.44-6.17-2.17-9.26-.57-4.48-1.25-8.95-1.69-13.43-1.01-10.26-2.24-20.46-7.81-29.96,1.29-1.17,3-1.77,4.76-2.33,5.94,9.46,7.47,19.71,8.48,30.07,.6,6.09,1.14,12.2,2.85,18.19,.21,.71-.44,1.69,.99,2.02,.15-.1,.31-.2,.46-.3,.02,.21,.05,.42,.07,.64Z"/>
  <path class="cls-2" d="M215.42,67.43c-3.14,.33-6.29,.66-9.43,1-.1-.88-1.58-.35-1.64-.52-.16-1.43,2.66-1.35,.9-2.73,.7-.58,1.4-1.16,2.09-1.74,.92-.05,2.03,.2,2.31-.9,3,.32,5.86-.43,8.77-.75,5.5-.6,11.04-.99,16.44-2.07,1.67,.02,3.23-.75,4.94-.46,2.73,.31,5.24-.88,7.95-.72,1.97,1.33,1.58,3.15,1.58,4.89-.94,.15-1.87,.34-2.82,.45-10.37,1.19-20.74,2.36-31.11,3.54Z"/>
  <path class="cls-3" d="M190.82,77.02c1.62,7.87,4.46,15.45,8.55,22.73,.32,.57,.49,1.19,.34,1.85-.64,2.82-1.24,5.64-1.84,8.37-.78,.25-1.08-.06-1.26-.36-3.28-5.5-5.53-11.3-7.69-17.12,0,0,0,.07,0,.07-.55-1.7-1.18-3.38-1.62-5.1-.93-3.64-1.24-7.23,1.86-10.43,.55,0,1.1,0,1.65,0Z"/>
  <path class="cls-12" d="M199.1,184.5l-1.2,.02c2.34-10.2,2.17-20.42,.55-30.66-.11-.72-.11-1.35-1.38-1.43-3.43-.21-5.27-2.01-5.75-4.48-.62-3.17-1.14-6.39-.85-9.63,.05-.54,.4-1.07,.61-1.6,.39,.16,.78,.32,1.18,.49-1.23,1.93-.67,3.91-.34,5.9,.36,2.16,1.81,3.04,4.47,2.72,.02,.31,.18,.54,.56,.64-1.57,.86-3.11,.24-4.8-.27,.27,2.26,1,4.13,3.57,5,2.48,.84,4.66,0,6.57-1.27,5.86-3.93,6.16-9.02,4.66-14.47h1.1c1.36,4.06,1.45,8.04-1.35,11.8-.49,.66-.49,1.24-.32,1.98,.67,2.97,1.25,5.96,1.17,9,.07,.16,.14,.32,.21,.47,.09,.99,.17,1.99,.26,2.98-.33,0-.66,0-.98,0-.62-4.07-.73-8.19-1.97-12.34-1.18,.75-2.02,1.62-3.1,1.9-2.64,.69-2.35,2.1-2.12,3.8,1.34,9.84,1.6,19.67-.73,29.46Z"/>
  <path class="cls-8" d="M207.35,63.45c-.7,.58-1.4,1.16-2.09,1.74-1.83,.92-2.77,2.75-5.05,3.34-.22-.9-.11-1.64,.29-2.36,4.23-2.8,7.91-6,10.89-9.7,1.95-1.83,3.37-3.93,4.95-5.95,.83-1.07,1.04-1.86-.89-2.31-1.84-.42-1.67-1.13-.27-1.97,2.03-1.23,3.99-2.54,6-3.79,.45-.28,.88-.82,1.57-.53,.65,.27,.47,.86,.49,1.34,.06,2.04,.04,4.08,.17,6.11,.09,1.51-.71,1.79-2.12,1.03-1.58-.86-2.24-.31-2.97,.82-1.74,2.68-3.85,5.19-6.11,7.61-.85,.39-1.49,.85-1.04,1.73h.01c-2.03,.33-2.53,1.94-3.82,2.9Z"/>
  <path class="cls-12" d="M149.91,59.3c-1.71-5.99-2.25-12.1-2.85-18.19-1.02-10.36-2.54-20.61-8.48-30.07,1.26-.1,1.27-.11,1.96,1.05,3.04,5.13,4.93,10.55,5.96,16.13,1.9,10.31,2.36,20.75,4.31,31.06l-.14,.11c-.25-.03-.5-.06-.75-.09Z"/>
  <path class="cls-8" d="M177.82,80.88c-4.17,1.3-8.33,2.64-12.82,3.05-.9,.08-2.15,.6-2.47-.8-.36-1.55,1.11-1.32,2.12-1.47,4.25-.63,8.33-1.64,12.17-3.24,3.54-.94,6.68-2.45,9.62-4.25,1.01-.04,1.61-1.41,2.68-.73,.7,.45,.21,1.29-.18,1.93-.29,.23-1.02,.27-.55,.83h.02c-.69-.4-.92-.06-1.06,.42h-.01c-3.17,1.43-6.34,2.85-9.5,4.27Z"/>
  <path class="cls-12" d="M133.82,13.37c5.57,9.49,6.81,19.7,7.81,29.96,.44,4.48,1.12,8.95,1.69,13.43-.31,0-.62,0-.93,0-.05-.24-.1-.49-.15-.73,.08-.63,.27-1.27-.36-1.81-1.48-7.21-1.64-14.53-2.84-21.77-.99-6.01-2.53-11.89-5.75-17.43-.28-.48-1.93-1.58,.52-1.64Z"/>
  <path class="cls-12" d="M215.42,67.43c10.37-1.18,20.74-2.35,31.11-3.54,.95-.11,1.88-.3,2.82-.45,.45,.11,1.21-.11,1.22,.51,.01,.61-.71,.49-1.19,.55-6.96,.79-13.92,1.61-20.9,2.34-4.35,.46-8.64,1.26-13.05,1.33,0-.25,0-.49,0-.74Z"/>
  <path class="cls-12" d="M212.78,60.13c10.68-1.18,21.35-2.37,32.03-3.52,.91-.1,2.08-.77,2.73,.42-11.69,1.37-23.38,2.73-35.06,4.12-.75,.09-1.18,.02-1.31-.61,0,0-.01,.01-.01,.01,.54-.14,1.08-.28,1.62-.42Z"/>
  <path class="cls-12" d="M190.46,63.09c-.42-.03-.84-.06-1.26-.09,.28-1.03,.52-2.07,.85-3.08,1.2-3.69,3.88-6.31,8.63-7.26,4.66-.93,8.5,.25,11.51,3.22,.08,.91-.16,1.39-1.32,.63-.27-.35-.46-.76-.82-1.04-5.29-4.06-14.12-2.05-16.46,3.77-.5,1.25-.76,2.57-1.13,3.85Z"/>
  <path class="cls-8" d="M212.21,79.63c.37-.86,.92-1.29,2.23-1.01,1.4,.3,2.72,.73,3.73,1.5,6.3,4.77,8.03,11.08,9.54,17.93-1.65-.73-1.44-1.68-1.63-2.42-1.21-4.79-2.89-9.45-6.82-13.33-1.75-1.73-3.78-3.32-7.04-2.66,0,0-.01-.01-.01-.01Z"/>
  <path class="cls-2" d="M211.17,60.53c.13,.63,.57,.7,1.31,.61,11.68-1.39,23.37-2.75,35.06-4.12,.08,.26,.17,.52,.25,.78-1.04,.13-2.12,.17-3.12,.42-1.6,.39-3.58-.29-4.85,1.06-1.71-.29-3.27,.48-4.94,.46-.83,.03-1.58-.25-2.49-.14-4.63,.57-9.34,.8-13.93,1.52-2.93,.46-6.09,.12-8.8,1.44-.28,1.1-1.39,.84-2.31,.9,1.29-.96,1.79-2.57,3.82-2.92Z"/>
  <path class="cls-12" d="M189.17,77.03c-3.1,3.19-2.79,6.79-1.86,10.43,.44,1.72,1.07,3.4,1.62,5.1-.28,.21-.65,.33-.9,.09-.27-.26-.52-.61-.56-.94-.54-4.4-3.33-7.74-7.6-10.39,.27-1.29,.96-.56,1.57-.2,.92,1.14,2.06,2.07,3.79,2.59,.24-1.45,.45-2.74,.66-4.03,.42-1.03,1.54-1.86,1.43-3.05,0,0,.01,0,.01,0,.69,.39,1,.18,1.06-.43,0,0-.02,0-.02,0,.4,.2,1.3,.1,.79,.84Z"/>
  <path class="cls-8" d="M225.38,124.06c-1.35,3.69-3.3,7.13-6.93,9.78-1.62,1.18-3.43,2.07-5.88,1.59,7.42-1.54,9.51-6.55,11.89-11.38,.31,0,.62,0,.92,.01Z"/>
  <path class="cls-4" d="M206.95,184.55h-1.59c1.07-3.49,1.15-7.08,1.72-10.62,.31,.01,.62,.02,.94,.04,.37,3.57-.81,7.05-1.07,10.58Z"/>
  <path class="cls-10" d="M208.01,173.97c-.31-.01-.62-.02-.94-.04,0-3.78,.02-7.57,.03-11.35,.3-.01,.59-.03,.89-.04,.04,.82,.08,1.64,.11,2.46,.01,.2,.02,.4,.03,.61-.04,2.79-.08,5.57-.13,8.36Z"/>
  <path class="cls-11" d="M158.33,82.13c1.19-.23,1.82,.19,1.9,1.28,.09,1.19-.97,1-1.77,.91-.94-.11-2.49,.55-2.49-1.07,0-1.36,1.22-1.08,2.36-1.12Z"/>
  <path class="cls-11" d="M151.85,83.67c-.87-.5-2.96,.18-2.93-1.61,.02-.95,.81-.73,1.47-.49,1.1,.4,3.12-.37,3.1,1.48,0,.84-.7,.84-1.64,.62Z"/>
  <path class="cls-4" d="M239.82,59.27c1.27-1.34,3.24-.67,4.85-1.06,1-.24,2.08-.28,3.12-.42,.25,.06,.5,.11,.76,.17-.09,.16-.18,.31-.28,.47-.17,.04-.34,.08-.5,.13-2.71-.17-5.22,1.03-7.95,.72Z"/>
  <path class="cls-7" d="M212.78,60.13c-.54,.14-1.08,.28-1.62,.42-.45-.88,.19-1.35,1.04-1.73-.18,.54,.22,.92,.58,1.31Z"/>
  <path class="cls-4" d="M207.99,162.54c-.3,.01-.59,.03-.89,.04-.03-.3-.06-.59-.09-.89,.33,0,.66,0,.98,0,.24,.28,.28,.56,0,.84Z"/>
  <path class="cls-4" d="M141.89,54.21c.63,.54,.43,1.18,.36,1.81-.37-.57-.46-1.18-.36-1.81Z"/>
  <path class="cls-12" d="M151.36,61.03c-.15,.1-.31,.2-.46,.29-.08-.65-.16-1.29-.24-1.94,0,0,.14-.11,.14-.11,.18,.58,.37,1.16,.55,1.75Z"/>
  <path class="cls-4" d="M143.81,63.57c.04,.09,.1,.18,.13,.28,.01,.04-.04,.09-.07,.14-.05-.09-.11-.18-.14-.28-.01-.04,.05-.09,.08-.14Z"/>
  <path class="cls-4" d="M207.74,158.71c-.07-.16-.14-.32-.21-.47,.07,.16,.14,.32,.21,.47Z"/>
  <path class="cls-7" d="M248.27,58.43c.09-.16,.18-.31,.28-.47,.34,.32,.15,.44-.28,.47Z"/>
  <path class="cls-4" d="M208.14,165.61c-.01-.2-.02-.4-.03-.61,.3,.19,.35,.39,.03,.61Z"/>
  <path class="cls-3" d="M208.87,56.51c-1.18,.87-.89,2.31-1.98,3.24-.42,.36-.72,.77-1.41,.79-1.75-.78-3.82-1.6-5.24-.05-1.58,1.72-2.1,3.87-1.21,6.05,.04,.25,.08,.5,.12,.75-.03,.26-.07,.51-.1,.77-1.18,.44-.78,1.31-.83,2.03-.27,3.5-.06,7.03-1.15,10.46-.24,.75-.46,1.51-.87,2.2-.43,.73-.59,1.94-1.79,1.86-1.09-.07-.83-1.27-1-1.95-1.59-6.47-2.79-12.98-2.95-19.58,.37-1.29,.63-2.6,1.13-3.85,2.34-5.82,11.17-7.83,16.46-3.77,.36,.28,.55,.69,.82,1.04Z"/>
  <path class="cls-3" d="M209.35,77.91c3.28,4.24,4.26,8.37,2.62,12.54-2.71,6.9-5.9,13.68-8.96,20.49-.27,.6-.37,1.85-1.7,1.39-1.05-.36-2.74-.42-2.34-2.21,2.06-9.2,4.25-18.38,8.06-27.25,.65-1.52,1.41-3.02,2.32-4.97Z"/>
  <path class="cls-3" d="M148.27,73.23c2.21-.41,4.41-.46,6.56-.3,3.13,.23,4.95-.93,6.27-3.02,2.13-3.35,4.85-6.39,8.41-8.86,4.12-2.85,8.98-2.23,12.08,1.37,.8,.93,.7,1.36-.77,1.47-1.14,.09-2.3,.45-3.4,.35-3.48-.32-5.05,1.34-6.4,3.5-1.65,2.64-3.31,5.28-6.19,7.29-5.2,3.61-12.2,2.96-16.56-1.79Z"/>
  <path class="cls-3" d="M199.39,130.45c-4.4-4.5-2.15-8.88,.62-12.74,3.87-5.39,6.31-11.14,8.72-16.95,.23-.56,.2-1.3,1.26-1.64,1.97,3.39,2.14,6.94,1.34,10.49-.96,4.25-2.82,8.26-5.66,11.99-2.24,2.94-4.25,5.98-6.27,8.84Z"/>
  <path class="cls-3" d="M198.99,86.14c-.28-5.29,2.23-10.23,3.1-15.37,.09-.52,.5-.7,1.02-.83,.25-.06,.51-.09,.77-.14,6.91-1.15,7.15-1.1,5.34,4.27-2.01,5.96-4.52,11.82-6.81,17.72-.21,.53-.29,1.07-1.34,.96-.95-.1-1.3-.44-1.54-1.16-.6-1.8-.46-3.63-.56-5.45Z"/>
  <path class="cls-3" d="M198.49,143.64c-3.59-5.69-9.08-10.63-10.26-17.18-.54-2.96-.77-5.96,1.58-8.99,6.1,8.26,11.33,16.34,8.68,26.17Z"/>
  <path class="cls-3" d="M190.12,99.65c2.97,5.91,5.97,11.76,7.47,18,.55,2.27-1.3,3.94-1.74,6.24-6.43-7.68-9.47-15.48-5.73-24.25Z"/>
  <path class="cls-2" d="M150.28,68.21c.86-.11,1.73-.23,2.59-.34-.09,1.03,.59,1.36,1.75,1.18,1.3-.2,2.59-.44,3.88-.66l1.61-.1c.11,.13,.22,.27,.33,.4-.95,2.36-2.79,3.5-6.08,3.28-2.34-.16-4.74,.05-7.1,.24-2.63,.22-2.9,.79-1.56,2.54,.39,.5,1.36,.95,.84,1.61-.45,.58-1.44,.31-2.2,.33-2.77,.1-5.43-.28-7.93-1.26-2.86-1.13-3-2.54-.36-4.03,2.33-1.31,4.94-2.09,7.76-2.42,.37,.13,.74,.27,1.11,.4-2.15,.35-4.19,.95-6.08,1.84-1.07,.5-2.34,1.16-1.8,2.27,.55,1.13,2.03,1.3,3.78,1.5-.85-1.24-2.94-.81-2.79-1.91,.17-1.26,1.93-1.49,3.19-1.91,1.21-.4,2.53-.58,3.73-1,1.59-.55,3.53-.11,4.92-1.15,.13-.27,.26-.54,.38-.81Z"/>
  <path class="cls-6" d="M206.93,135.47c1.51,5.45,1.2,10.54-4.66,14.47-1.91,1.28-4.09,2.11-6.57,1.27-2.57-.87-3.3-2.74-3.57-5,1.69,.5,3.23,1.12,4.8,.27,1.72,.06,2.61-.9,3.42-1.87,1.99-2.37,3.67-4.88,5.22-7.45,.35-.59,.4-1.39,1.35-1.69Z"/>
  <path class="cls-2" d="M189.9,69.23c.04,.72-.23,1.15-1.27,1.25-6.18,.63-12.35,1.27-19.18,1.45,1.72-1.84,2.15-3.84,4.1-5.15,5.29-.5,10.58-.99,15.88-1.49,.1,1.11,.21,2.23,.31,3.34,.06,.2,.11,.4,.17,.6Z"/>
  <path class="cls-3" d="M208.26,120.39c.7,7.87-2.01,14.93-7.5,21.4-.25-3.08-.25-6.13-1.01-9.12-.06-.24,.13-.55,.28-.8,2.27-4.03,5.24-7.74,8.24-11.47Z"/>
  <path class="cls-6" d="M196.37,145.83c-2.66,.32-4.11-.56-4.47-2.72-.33-1.99-.88-3.97,.34-5.9,1.95,2.23,3.19,4.77,4.88,7.11,.61,.85,.32,1.26-.75,1.51Z"/>
  <path class="cls-3" d="M182.96,72.24c1.19,1.43,.79,2.51-1.15,3.21-1.19,.43-2.24,1.14-3.61,1.22-.12-.1-.28-.18-.35-.3-1.94-3.44-1.75-3.72,2.78-3.99,.78-.05,1.56-.1,2.33-.15Z"/>
  <path class="cls-4" d="M189.42,65.29c-5.29,.5-10.58,.99-15.88,1.49,.16-.24,.31-.48,.47-.71,1.54-.14,3.11-.17,4.63-.43,3.55-.61,7.24-.43,10.72-1.36,.02,.34,.04,.67,.06,1.01Z"/>
  <path class="cls-3" d="M200.1,98.3c-1.21-1.12-1.43-2.47-2.1-3.63-.18-.3-.25-.74,.25-.92,.93-.32,1.9-.09,2.83,.06,.49,.08,.7,.44,.51,.82-.56,1.13-.44,2.45-1.49,3.67Z"/>
  <path class="cls-2" d="M189.36,64.28c-3.48,.92-7.18,.75-10.72,1.36-1.51,.26-3.08,.29-4.63,.43,.96-1.32,2.64-.7,4-.91,2.88-.45,5.79-.85,8.71-1.14,.84-.09,1.88-.51,2.65,.26Z"/>
  <path class="cls-3" d="M198.77,117.31c-.42-1.39-.72-2.25-.92-3.12-.12-.54-1.01-1.25,.04-1.6,.92-.31,1.86,.18,2.66,.63,.96,.54,.35,1.08-.03,1.62-.46,.65-.93,1.31-1.75,2.48Z"/>
  <path class="cls-2" d="M158.5,68.38c-1.29,.22-2.58,.47-3.88,.66-1.16,.18-1.84-.15-1.75-1.18,2.86-.43,5.72-.9,8.73-.93-.49,1.52-2.7,.09-3.1,1.45Z"/>
  <path class="cls-7" d="M150.28,68.21c-.13,.27-.26,.54-.38,.81-1.71-.36-3.28,.49-4.96,.36-.37-.13-.74-.27-1.11-.4,2.1-.55,4.25-.79,6.46-.77Z"/>
  <path class="cls-9" d="M199.01,77.03c.28-1.54-.47-2.8,.87-4.01,.51,1.45-.01,2.54-.87,4.01Z"/>
  <path class="cls-5" d="M199.16,67.29c.53,.41,.58,.84,.08,1.29-.06-.17-.12-.34-.18-.52,.03-.26,.07-.51,.1-.77Z"/>
  <path class="cls-12" d="M189.9,69.23c-.06-.2-.11-.4-.17-.6,.06,.2,.11,.4,.17,.6Z"/>
  <path class="cls-1" d="M160.11,68.28c.21,.04,.42,.08,.63,.12-.1,.09-.2,.18-.3,.28-.11-.13-.22-.27-.33-.4Z"/>
  <path class="cls-9" d="M200.5,142.44c-.05,.04-.1,.08-.15,.12-.04-.05-.11-.1-.1-.14,0-.04,.09-.08,.14-.12,.04,.05,.07,.1,.11,.14Z"/>
  <path class="cls-6" d="M207.02,161.69c.03,.3,.06,.59,.09,.89,0,3.78-.02,7.57-.03,11.35-.57,3.54-.65,7.13-1.72,10.61-1.44,.28-1.63-.39-1.51-1.27,.08-.57,.91-1.09,.06-1.78-1.6,.64,.01,2.89-2.35,3.09-.46-1.22,1.08-2.44,.02-3.89-1.16,1.16-.99,2.36-1.16,3.5-.33,.39-.8,.42-1.32,.32,2.33-9.79,2.07-19.62,.73-29.46-.23-1.7-.53-3.11,2.12-3.8,1.08-.28,1.93-1.16,3.1-1.9,1.24,4.15,1.35,8.28,1.97,12.34Z"/>
  <path class="cls-11" d="M150.66,59.39c.08,.64,.16,1.29,.24,1.94-1.43-.33-.77-1.31-.99-2.02,.25,.03,.5,.06,.75,.09Z"/>
  <path class="cls-4" d="M209.66,62.55c2.71-1.32,5.87-.98,8.8-1.44,4.59-.72,9.3-.95,13.93-1.52,.91-.11,1.66,.17,2.49,.14-5.4,1.07-10.95,1.46-16.44,2.07-2.91,.32-5.77,1.07-8.77,.75Z"/>
  <path class="cls-5" d="M188.4,76.18c-.06,.61-.37,.82-1.06,.43,.14-.48,.37-.81,1.06-.43Z"/>
  <path class="cls-3" d="M181.44,81.11c1.19-1.07,1.9-3.08,4.45-1.44-.21,1.29-.43,2.59-.66,4.03-1.72-.52-2.87-1.45-3.79-2.59Z"/>
  <path class="cls-11" d="M199.64,66.07l-.6,.47c-.9-2.18-.37-4.33,1.21-6.05,1.42-1.55,3.49-.73,5.24,.05,.14,.96-.6,1.62-1.59,1.56-3.77-.21-4.16,1.74-4.25,3.96Z"/>
  <path class="cls-4" d="M144.94,69.37c1.68,.13,3.25-.72,4.96-.36-1.39,1.04-3.33,.6-4.92,1.15-1.2,.41-2.53,.6-3.73,1-1.26,.42-3.02,.65-3.19,1.91-.15,1.1,1.94,.67,2.79,1.91-1.75-.2-3.23-.36-3.78-1.5-.54-1.11,.73-1.77,1.8-2.27,1.89-.89,3.93-1.48,6.08-1.84Z"/>
  <text class="cls-13" transform="translate(224.69 112.57)"><tspan x="0" y="0">3 bính</tspan></text>
</svg>