<?xml version="1.0" encoding="UTF-8"?>
<svg id="Layer_1" data-name="Layer 1" xmlns="http://www.w3.org/2000/svg" viewBox="0 0 414 200">
  <defs>
    <style>
      .cls-1 {
        fill: #e9e6dd;
      }

      .cls-2 {
        fill: #ede4cf;
      }

      .cls-3 {
        fill: #fff9b8;
      }

      .cls-4 {
        fill: #fff200;
      }

      .cls-5 {
        fill: #fbb040;
      }

      .cls-6 {
        fill: #9ed2f1;
      }

      .cls-7 {
        fill: #91bfdc;
      }

      .cls-8 {
        fill: #bbae9a;
      }

      .cls-9 {
        fill: #c6c1bc;
      }

      .cls-10 {
        fill: #71685b;
      }

      .cls-11 {
        fill: #555049;
      }

      .cls-12 {
        fill: #48453e;
      }

      .cls-13 {
        fill: #302c2b;
      }
    </style>
  </defs>
  <path class="cls-12" d="M291.67,83.35c-1.79,.17-3.58,.42-5.38,.5-1.31,.05-1.74,.52-1.81,1.75-.14,2.18-.23,3.96,2.74,4.78,2.21,.62,4.02,2.29,4.75,4.49,.5,1.49,1.35,2.12,2.93,2.55,6.87,1.87,9.15,5.58,7.69,12.25-.22,.99-.14,1.87,.22,2.82,1.23,3.21,.84,6.23-1.72,8.76-.87,.86-.85,1.64-.58,2.62,.91,3.29,.88,6.56-.55,9.72-.44,.97-.07,1.45,.69,2.01,4.58,3.37,7.03,7.83,7.57,13.24,.08,.82,.17,1.59,.89,2.19,4.4,3.67,4.56,8.07,2.34,12.77-.6,1.28-.65,2.24,.11,3.54,2.01,3.42,.99,6.81-2.85,10.59-.34,.01-.67,.02-1.01,.03,0,0,0,0,0,0-.13-1.14,.88-1.68,1.46-2.44,1.74-2.25,2.85-4.58,1.43-7.39-.56-1.1-1.09-1.47-2.29-.61-1.42,1.03-2.91,2.03-4.51,2.78-2.06,.97-3.43,2.06-2.33,4.43,.38,.82-.02,1.56-.46,2.27-5.09,3.57-9.96,1.98-14.59-.76-1.91-1.13-2.96-1.1-5.05,.04-4.28,2.34-9.13,3.13-13.92,.89-1.17-.54-2-.77-3.28-.13-4.71,2.39-9.46,2.87-14.01-.43-.63-.45-1.09-.47-1.81-.06-3.06,1.77-6.22,2.78-9.6,.64-.48-.31-1.01-.25-1.47-.01-3.27,1.67-6.32,.87-9.29-.72-.8-.43-1.4-.76-2.15,.17-3.15,3.91-7.83,3.33-11.41,1.63-2.46-1.16-4.69-1.5-7.57-1.45-3.83,.07-8.12,.67-11.77-1.49-.57-.34-.97-.48-1.37,.3-1.32,2.52-3.74,2.53-6.22,2.2-.85-.11-1.73-.27-2.48-.63-2.82-1.34-5.23-2.07-7.17,1.42-.86,1.55-2.87,1.72-4.84,.91-4.59-1.91-9.19-3.72-14.47-2.36-3.55,.91-7.17,.97-10.39-1.21-.52-.35-.9-.29-1.37,.05-4.71,3.4-9.6,2.21-14.4,.31-1.52-.6-2.36-.91-3.58,.6-1.73,2.15-4.35,1.94-6.86,1.24-2.26-.63-4.03-2.29-6.15-2.97-2.3-.75-3.79,2.2-6.14,2.2-2.45,0-4.78,1.28-7.28,.58,.01-.28,.02-.57,.03-.85,.4-.17,1.24-.26,.13-.7-1.8-.72-3.57-1.48-5.38-2.18-1.28-.5-2.2-1.82-3.89-1.55,.78,2.42,2.76,3.48,5.05,4.19-.03,.34-.06,.69-.09,1.03-2.03-.69-3.87-.4-5.82,.52-3.24,1.53-8.03,.37-10.79-2.54-1.21-1.28-1.86-1.64-2.86,.15-.54,.96-1.23,2.92-2.4,2.23-1.12-.67,.57-2.02,1.19-2.92,4.06-5.82,6.29-12,4.49-19.01-.76-2.96-2.31-5.58-4.51-7.79-.96-.97-1.1-1.8-.73-3.02,1.49-4.88,2.84-9.8,4.3-14.69,.43-1.43,.62-2.34-1.55-2.57-1.94-.21-3.17-1.27-3.21-3.55-.07-3.62,1.5-6.34,4.31-8.49-.95-1.37-3.67,.28-3.53-2.25,2.36-.05,4.54,1.27,7.06,.43,8.68-2.87,16.89-2.64,23.99,3.74,1.31,1.18,4.03,.5,5.38-1.2,1.25-1.59,1.01-3.19-.76-4.32-1.49-.95-3.03-1.85-4.61-2.66-6.98-3.6-14.53-5.32-22.41-5.99-.52-.35-1.09-.26-1.66-.18-1.85,.28-3.74-.28-5.57,.3-.74-.15-1.68-.09-1.47-1.24,5.86-.44,11.66-.08,17.4,1.06,.91,.18,1.9,.65,2.7-.07,1.71-1.56,3.7-2.78,5.95-4.28-1.77-.43-3.13-.76-4.5-1.08-.16-.08-.33-.09-.5-.04-4.17-.24-8.34-.67-12.53-.42-.26,.06-.52,.12-.78,.18-1.96,.45-3.93,.9-5.89,1.35-.3-.24-.6-.47-.9-.71,0,0,0,0,0,0,.45,.04,.84-.05,1.07-.46,0,0,0,0,0,0,.18,.02,.33-.02,.45-.14,.42-.34,.91-.46,1.46-.4,.21-.06,.43-.12,.64-.17,.44-.31,.93-.37,1.45-.3,.58,.07,1.16,.17,1.66-.25,.37-.03,.73-.06,1.1-.09,.38,.45,.71,.37,1-.08,2.07-.29,4.14-.25,6.21,.01,.31,.46,.64,.51,1.01,.05,.72,.07,1.44,.13,2.16,.2,.4,.05,.79,.09,1.19,.14,.67-.09,1.32-.03,1.91,.31,.63,.44,1.35,.26,2.04,.23,.54,.13,1.08,.26,1.61,.39,.16,.03,.33,.05,.49,.08,.32,.05,.65,.1,.97,.15,.13,.22,.29,.27,.49,.07,.54,.02,1.07,.03,1.61,.05,.15-.02,.31-.04,.46-.05,.57-.05,1.13-.1,1.7-.15,0,0,.17,.01,.17,.01l.16-.03c.74-.1,1.49-.2,2.23-.3,.53,.25,1.02,.28,1.44-.19,.95-.03,1.9-.06,2.85-.09,.6,.07,1.21,.21,1.75-.18,.55-.04,1.1-.08,1.64-.12,2.39,.6,4.78,.59,7.16,0,.74-.11,1.48-.15,2.18,.17,.68,.38,1.41,.22,2.13,.16,.89-.12,1.74-.01,2.53,.4,.17,.03,.35,.06,.52,.09,.17,0,.38-.08,.51-.01,3.89,2.1,7.6,.88,11.49-.21,8.51-2.39,17.11-2.38,25.63,.14,2.6,.77,4.88-.45,7.29-.8,5.58-.82,11.1-1.05,16.53,.79,1.64,.55,3.37,1.15,4.44,2.35,2.02,2.26,3.81,2.08,6.25,.58,3.33-2.04,7.18-3.03,11.01-3.98,.39,.07,.77,.09,1.07-.22l3.06-.14c0,.34,.01,.67,.02,1.01-1.76,.33-3.52,.66-5.29,.99-6.9,1.28-12.36,5.83-19.15,7.39-.24,.06-.27,.2,.15,.56,.59,.19,1.55,.36,2.32,.8,1.97,1.13,3.31,.5,4.87-.87,2.7-2.36,6.06-3.56,9.73-4.03,5.06-.65,9.91,.17,14.68,1.7,.88,.28,1.91,1.07,2.77-.04,1.56-2.01,3.9-3.08,5.95-4.51,5.52-1.74,11.19-2.47,17.36-1.94-1.5-2.17-2.82-4.1-4.14-6.02-.65-.94-1.67-.65-2.59-.63-4.35,.1-8.61-.3-12.56-2.18-4.82-2.29-5.16-5.38-.88-8.48,1.78-1.29,3.79-2.28,5.99-2.76,1.95-.42,2.02-1.25,1.43-2.89-2.06-5.64-4.05-11.31-5.15-17.21-.08-.18-.15-.36-.23-.54-.08-.33-.15-.67-.23-1,.41,.01,.82,.02,1.23,.04,1.52,5.36,2.92,10.75,4.84,16,1.56,4.27,1.51,4.28,6.32,3.85,.43-.04,.86-.07,1.29-.08,2.03-.07,2.8-.64,1.98-2.78-2.19-5.74-4.19-11.55-5.31-17.58-.03-.53-.28-.87-.88-.91-1.26-5.14-2.44-10.29-3.29-15.51-.07-.3-.15-.6-.22-.9-.9-4.37-1.78-8.75-2.11-13.2,.03-.05,.11-.1,.1-.14-.03-.1-.09-.19-.13-.29-.84-2.36-.83-4.81-.87-7.26,.26,0,.51,0,.77-.01,.43,.43,.35,.94,.3,1.46-.48,.37-.37,.68,.11,.94,.48,1.24,.62,2.51,.53,3.82-.03,.69-.26,1.41,.39,1.99,.04,.32,.07,.64,.11,.96,.06,.47,.12,.93,.18,1.4,.11,.66,.22,1.32,.34,1.99,.04,.83-.3,1.71,.4,2.44,.03,.19,.05,.39,.08,.58,.03,.17,.05,.34,.08,.51,.05,.12,.12,.24,.16,.36,.01,.05-.04,.12-.07,.19,.07,.26,.15,.53,.22,.79,.43,2.36,.85,4.73,1.28,7.09,.03,.21,.06,.42,.1,.62,.5,1.4,.87,2.82,.9,4.31,.04,.18,.08,.36,.12,.54,.09,.26,.18,.52,.28,.78,.28,.93-.63,2.29,1.11,2.68,.12,.09,.15,.19,.06,.32-.09,.4-.11,.78,.23,1.11,.08,.31,.16,.63,.25,.94,.04,.16,.09,.32,.13,.48,.14,.63,.27,1.26,.41,1.89,.06,.19,.12,.37,.17,.56,.25,.86,.51,1.72,.76,2.59,.1,.43,.2,.86,.31,1.29,.27,.97,.53,1.94,.8,2.9-.05,.39,0,.76,.38,1.01,1.17,3.28,2.37,6.56,3.48,9.85,.41,1.21,1.05,1.76,2.45,1.37,.57-.16,1.19-.19,1.79-.19,2.98,.04,4.89-.83,5.41-4.01,.38-2.3,1.92-4.32,3.95-5.81,6.12-4.48,13.33-2.78,16.2,4.02,.93,2.21,1.97,2.46,4.32,2.17,14.24-1.78,28.5-3.34,42.76-4.94,.74-.08,2.04-.8,1.95,.89-18.82,2.14-37.66,4.15-56.4,6.82,.03,.24,.06,.47,.09,.71h3.01c.01,.22,.02,.44,.03,.67q-4.31,.46-4.1,4.5c0,.16,.04,.32,.02,.48-.23,1.75,.7,2.17,2.41,2.12,4.7-.15,9.41-.16,14.11-.22,.17,.31,.34,.63,.51,.94ZM126.74,173.55c-.16-.35-.53-.54-.77-.29-.34,.34,.23,.43,.39,.64,.34,.8,.34,1.73,1.04,2.39,1.94-1.65,1.88-1.87-.66-2.74Zm123.19-56.92c.54,.73,1.08,1.46,1.62,2.19,.17,.87-.54,1.01-1.16,1.32-1.65,.85-3.36,1.64-4.83,2.71-1.73,1.27-2.59,3.09-1.92,5.15,.71,2.17,2.76,1.41,4.39,1.45,.51,.01,1.06,0,1.54-.16,5.86-1.91,11.61-1.82,17.37,.49,1.21,.48,2.99,1.21,4.04-.21,1.04-1.41,.37-2.96-.55-4.31-.99-1.45-2.4-2.51-3.89-3.49-.68-.45-1.64-.6-1.87-1.54,.72-.56,1.43-.29,2.14,.02,.33,.24,.62,.57,1,.71,1.01,.4,1.61,2.17,3.17,.86,1.5-1.26,2.07-2.71,1.1-4.47-.74-1.34-1.44-2.72-3.03-3.4,.08-2.29,1.42-.66,2.21-.52,.33-1.09,.06-1.81-1.01-2.18-.8-.28-.96-.81-.62-1.5,5.5,1.56,10.97,2,16.3-.57,2.87-1.39,2.91-2.85,.15-4.48-2.42-1.43-5.15-2.22-7.84-3.05-5.15-1.59-9.3-4.44-12.51-8.53-1.99-2.54-2.66-2.47-4.57,.4-.77,.16-1.18-.19-1.36-.85,.95-.8,1.25-1.59,.37-2.7-1.12-1.42-2.12-2.94-3.01-4.5-.53-.92-1.21-1.3-2.25-1.28-1.38,.03-2.75,.08-4.12,.11-1.75,.03-2.53,.45-1.14,2.06,.86,.99,1.56,2.06,1.74,3.44,.5,3.8,3,6.42,6.09,8.66,1.24,.35,2.53,.63,3.19,1.86,.45,1.67,1.84,2.82,2.66,4.28,.43,.77,1.73,1.55,.42,2.61-1.12-1.32-2.21-2.66-3.39-3.93-.41-.43-.92-1.18-1.68-.79-.77,.39-1.07,1.24-1.34,2-.33,.92,.6,1.02,1.15,1.3,1.73,.86,3.49,1.68,5.25,2.52,.35,.08,.69,.16,1.04,.24,.21,.2,.42,.39,.62,.59-.58,1.39-1.53,1.02-2.52,.48-8.44-5.82-20.49-5.69-24.89-1.31,4.22,2.02,7.85,4.82,11.83,7.13,.04,.41,.09,.81,.13,1.22Zm5.57-16.87c-3.94-1.05-7.88-.97-11.82,0-4.03,.56-7.91,1.46-10.75,4.49-.4,.42-1.38,1.09-.53,1.51,1.41,.7,2.91,2.16,4.67,1.07,2.98-1.85,6.18-2.85,9.74-2.85,2.44,.07,4.9-.05,7.3,.6,.75,.2,1.76,.56,1.89-.76,.3-.47,.59-.95,.89-1.42q1.45-2.21-1.39-2.64Zm-63.07,35.51c1.12-.29,1.6,.98,2.61,.95,1.32,2.7,2.07,5.61,3.7,8.18,1.33,2.1,2.85,4.04,5.38,5,2.15,.81,4.07,.16,5.82-.96,1.66-1.06,.57-2.5,.3-3.74-1.04-4.83-3.03-9.35-5.32-13.77-.48-.93-1.04-1.62-2.16-1.87-2-.45-3.98-1.01-5.99-1.4-3.61-.7-3.61-.66-3.17,2.72-.4,.07-.79,.14-1.19,.21-.61-.92,.14-2.38-1.17-2.97-1.1-.49-6.52,1.46-7.17,2.5-2.22,3.58-3.85,7.37-4.41,11.5-.73,5.33,.32,6.7,5.84,7.99,1.97,.46,3.19,.07,3.93-1.93,1.51-4.04,2.54-8.16,2.99-12.41Zm-1.61,17.63c-.74-.02-1.24-.45-1.77-.87-1.51-1.2-3.48-1.05-5.12-.88-.71,.08-.48,2.19-.52,3.37-.04,1.11-.1,2.44,.47,3.31,3,4.6,4.95,9.82,8.98,13.81,1.99,1.97,4.3,3.48,7.38,3.52,2.94,.04,3.36-.34,2.8-3.05-1.27-6.1-4.44-11.29-8.98-15.77-.25-.32-.53-.62-.75-.96-.31-.49-1.44-.84-.78-1.5,.7-.7,1.11,.34,1.6,.67,.82,.55,1.16,1.71,2.58,1.88-.21-1.59-.14-3.03-.64-4.42-.21-.58-.41-1.15-1.19-.81-1.34,.58-2.98,.53-4.05,1.68Zm-43.88,20.29c.26-.13,.39-.31,.25-.58,.17-.95,.36-1.91,.5-2.86,.96-6.69,.92-13.34-.89-19.93-.34-1.24-.77-1.66-2.09-.94-1.84,1-3.82,1.47-5.92,.69-.78-.29-1.31-.22-1.52,.66-1.25,5.23-2.25,10.47-.05,15.69,1.3,3.09,2.5,6.18,2.54,9.56,0,.64-.09,1.28,.93,1.43,2.2,.33,5.43-1.55,6.27-3.71Zm-21.11-47.79c.29-.07,.58-.14,.86-.21,2.44-.48,4.77,.09,7.11,.65,2.08,.5,4.11,1.18,6.27,1.32,1.79,.12,2.56-.47,2.74-2.29,.31-3.18-1.08-5.45-3.58-7.32-5.85-4.37-15.87-4.78-22.09-.89-2.37,1.48-4.58,3.08-5.16,6.01-.64,3.28,.96,5.04,4.46,4.54,2.03-.29,4.03-.78,6.05-1.17,.75,0,1.56,.24,2.14-.45,.4-.06,.8-.12,1.19-.18Zm123.94-7.54c-7.56-6.8-16.61-11.09-26.65-13.47-6.5-1.54-12.84-.96-18.41,3.03-1.34,.96-1.98,1.78,.22,2.61,1.42,.53,2.78,1.32,4.01,2.18,3.69,2.6,7.8,3.07,12.21,2.42,6.39-.95,12.13,.48,17.15,4.29,3.75,2.84,8.01,2.65,11.49-.64,.14-.11,.28-.22,.43-.32l-.44-.1Zm23.42-38.4c.06-.76,.06-1.9,.27-3,.63-3.33,1.68-4.12,5.27-4.17,.86-.01,1.72-.07,2.58-.16,.8-.09,1.25-.44,.93-1.31-1.78-4.78-5.46-8.37-12.13-5.99-3.11,1.11-4.89,3.44-6.01,6.28-1.71,4.35-.82,8.78-.49,13.19,.43,5.81,4.04,9.77,8.64,13.16,1.31,.97,2.23,1.19,2.47-.85,.2-1.69,.26-3.35,.19-5.05-.15-3.97-1.76-7.74-1.73-12.1Zm-31.11,97.59c3.48,.01,6.91-1.65,8.27-4.34,2.26-4.49,4.42-9.01,3.6-14.3-.42-2.7-2.09-4.42-3.48-6.57-2.51-3.89-4.58-.58-6.81-.54-.08,0-.17,.04-.25,.04-1.26,.07-1.73,.72-1.85,1.87-.4,3.86-1.74,7.38-4.44,10.38-1.03,1.14-1.03,2.24-.27,3.54,1.21,2.08,1.9,4.36,1.85,6.72-.05,2.62,1.72,3.01,3.38,3.19Zm-8.92-.52c3.69,0,4.85-1.1,4.04-4.26-2.32-8.97-8.45-15.31-16.55-20.06-1.41-.83-3.87-1.55-5.32-.61-1.68,1.1-1.36,3.41-.93,5.21,2.11,8.7,7.63,14.95,15.94,19.14,.93,.47,1.93,.64,2.81,.59Zm-7.68-60.95c-5.33-.03-9.49,1.46-13.15,4.25-2.26,1.72-3.08,3.97-2.83,6.65,.13,1.34,.83,2.13,2.29,2.08,1.88-.07,3.88,.07,5.62-.48,6.36-2,12.47-1.51,18.58,.85,1.69,.65,3.88,1.63,5.24-.08,1.34-1.68,.42-3.72-.6-5.47-.24-.42-.56-.81-.88-1.19-3.81-4.46-8.91-6.37-14.27-6.61Zm-130.9-1.65c-7.04-.02-12.37,1.96-15.12,5.24-1.66,1.98-2.52,5.38-1.32,6.53,1.71,1.66,4.03,1.5,6.28,1.11,.67-.12,1.33-.34,1.99-.51,4.44-1.09,8.88-1.94,13.45-.66,1.64,.46,3.28,.94,4.96,1.28,3.75,.75,5.4-.94,4.39-4.43-.27-.94-.7-1.8-1.31-2.6-3.54-4.57-8.73-5.65-13.31-5.96Zm65.27,.54c-4.05-.21-7.62,1.18-10.96,3.03-3.19,1.77-4.97,4.39-4.41,8.06,.2,1.3,.77,2.06,2.34,1.97,2.39-.14,4.78-.14,7.11-.84,4.26-1.28,8.55-1.53,12.92-.2,1.94,.59,4,.89,6.03,1.18,1.7,.24,2.64-.33,2.82-2.21,.29-3.06-.95-5.31-3.34-7.17-3.63-2.82-8.05-3.38-12.5-3.82Zm-53.75,59.5c-.03-.32-.02-.65-.09-.96-2.28-9.39-7.93-16.88-15.17-23.45-.41-.37-1.05-.53-1.58-.77-2.09-.96-3.9-.29-4.63,1.73-.63,1.74-.51,3.51-.13,5.27,2.25,10.43,9.15,16.77,19.8,19.88,2.05,.6,1.94-.43,1.81-1.68Zm65.22,.92c-.39-1.73-.51-3.57-1.23-5.17-2.77-6.16-6.23-11.95-11.68-16.44-1.69-1.39-3.68-2.19-5.92-2.75-2.34-.58-2.88,.23-3.08,2.08-1.17,10.59,8.6,22.31,19.89,23.95,1.69,.24,2.23-.11,2.02-1.67Zm22.82-59.81c-5.67-.17-9.34,1.12-12.7,3.17-2.84,1.73-4.57,4.09-4.2,7.48,.18,1.64,.83,2.49,2.77,2.34,2.39-.19,4.78-.27,7.11-.95,4.57-1.32,9.12-1.22,13.67,.21,1.53,.48,3.1,.95,4.78,.92,1.13-.02,2.25-.22,2.32-1.4,.12-1.89,.41-3.78-.93-5.57-3.54-4.73-8.77-5.85-12.82-6.2Zm-24.64,43.71c.18,2.8-.12,5.64,1.05,8.33,1.28,2.94,1.91,5.99,1.97,9.18,.04,2.17,2.06,3.09,3.93,1.85,.67-.45,1.22-1.13,1.68-1.79,3.72-5.45,4.88-11.43,4.14-17.79-.25-2.17-.31-4.34,0-6.51,.16-1.12,.07-2.01-1.16-2.64-1.1-.57-1.98-.99-3.25-.19-1.75,1.09-3.79,1.62-5.89,.98-1.28-.39-1.58,0-1.84,1.12-.57,2.47-.44,4.97-.63,7.46Zm-31.02,16.21c-.37-3.93-1.89-7.49-3.82-10.95-2.62-4.67-5.87-8.88-10.01-12.48-1.87-1.63-4.47-2.2-6.41-1.55-1.97,.65-1.35,3.28-1.15,5.07,1.11,10.2,9.29,18.85,19.8,21.16,1.36,.3,1.77-.04,1.6-1.25Zm144.41-56.21c6.79,.82,12.05-1.73,16.41-6.37,2.37-2.52,3.09-5.39,2.07-8.53-1-3.09-3.76-4.45-6.81-5.35-1.09-.32-1.72-.2-1.75,1.16-.06,2.34-.43,4.67-1.79,6.71-3.6,5.43-9.36,5.94-15.37,5.92-.99,0-2.37-1-2.86-.05-.58,1.14,.19,2.54,.98,3.59,.8,1.06,1.94,1.77,3.29,2.22,1.9,.63,3.87,.65,5.82,.68Zm-166.72,42.37c-.3-3.72-.35-7.75-1.56-11.66-.38-1.22-.7-2.12-2.37-1.11-1.72,1.04-3.71,1.27-5.7,.71-.8-.23-1.33-.28-1.55,.6-1.26,5.07-2.2,10.22-.36,15.26,1.2,3.28,2.73,6.44,2.87,9.97,.04,.91,.44,1.32,1.39,1.34,2.08,.05,5.6-2.56,6.04-4.48,.79-3.4,.93-6.87,1.24-10.63Zm171.76-2.97c.22-5.58-2.9-9.46-7.33-12.65-.56-.41-1.06-1.43-1.87-.88-.86,.59-1.63,1.48-1.24,2.7,.1,.31,.21,.61,.3,.93,1.13,3.98,1.18,7.75-1.84,11.2-1.73,1.98-2.07,4.37-.95,6.83,.98,2.16,1.61,4.41,2.15,6.7,.27,1.13-.39,2.9,.88,3.28,1.52,.45,2.73-1.05,3.92-1.94,.46-.35,.93-.77,1.2-1.26,2.58-4.69,4.56-9.57,4.77-14.91Zm-152.15-50.81c3.01,1.36,5.43,2.73,7.82,4.16,3.44,2.06,7.29,2.62,11.26,2.16,7.57-.88,14.65-.26,20.18,5.41,1.38,1.42,2.38,.58,3.09-.48,.96-1.45,.02-4.54-1.62-5.5-10.32-6.03-21.51-8.83-33.68-7.72-2.28,.21-4.56,.68-7.05,1.97Zm33.13,.24c2.84,1.48,5.44,2.6,7.74,4.11,3.77,2.47,7.8,2.99,12.24,2.41,7-.91,13.41,.25,18.39,5.41,1.18,1.22,2.1,.86,2.95-.16,1.14-1.36,.47-4.53-1.11-5.55-6.58-4.26-13.94-6.56-21.78-7.71-6.13-.9-12.14-.71-18.43,1.5Zm88.88,49.6c-.16,3.03,.77,5.61,2.97,7.96,2.09,2.23,3.65,4.86,4.89,7.63,1.53,3.39,3.03,4.31,6.84,4.26,3.57-.05,4.06-.6,3.29-3.89-1.53-6.55-4.89-12.32-8.7-17.91-1.07-1.56-2-2.69-4.23-1.57-.92,.46-2.19,.42-3.29,.13-1.43-.38-1.87,.23-1.78,1.47,.04,.64,0,1.29,0,1.93Zm-95.59-30.43c-1.32-.12-2.03,.13-1.7,1.59,1.21,5.36,2.59,10.66,5.41,15.53,1.29,2.22,3.31,3.67,5.54,4.82,2.1,1.08,4.23,.4,6.08-.76,1.74-1.09,.64-2.65,.34-3.97-1.06-4.75-3.01-9.22-5.28-13.57-.41-.79-.77-1.58-1.87-1.8-2.85-.58-5.68-1.22-8.52-1.84Zm-58.06-20.28c3.04,1.6,5.81,2.89,8.38,4.45,3.12,1.9,6.63,2.38,10.07,2.1,7.51-.62,14.44-.08,19.79,5.7,1.03,1.11,2.08,.55,2.74-.43,.89-1.33,.07-4.14-1.37-5.14-6.8-4.7-14.49-7.36-22.8-8.32-5.56-.64-11.13-.58-16.81,1.63Zm-9.55,24.17c.02-4.68,.01-4.71-4.04-3.96-2.03,.37-4.03,.86-6.04,1.28-.88,.18-1.49,.43-1.76,1.44-1.41,5.24-2.89,10.46-4.45,15.66-.4,1.32,.09,1.75,1.35,1.96,2.39,.39,4.74,.55,7.16,0,1.96-.44,1.76-2.22,2.73-3.19,4.04-3.99,4.33-9.1,5.06-13.19Zm147.83,19.63c1.06-.05,2.69-.79,4.33-1.46,1.21-.5,1.18-1.19,.42-2.06-1.02-1.17-2.11-2.3-2.97-3.57-2.49-3.67-4.81-7.44-6.78-11.38-.25-.49-.58-1.16-1.04-1.31-3.06-1.05-6.11-2.19-9.37-2.62-.96-.13-1.55,.09-1.19,1.16,2.01,6.1,4.21,12.13,8.57,17.17,1.85,2.14,3.98,4.07,8.04,4.08Zm-112.96-23.95c-.64-.1-1.56-.22-1.28,1.11,1.29,6.18,2.72,12.32,6.63,17.63,.89,1.2,1.99,2.22,3.37,2.94,2.24,1.18,4.34,.62,6.34-.51,1.99-1.12,.81-2.79,.51-4.14-1.04-4.67-2.94-9.08-5.19-13.34-.41-.77-.75-1.66-1.83-1.9-2.76-.6-5.44-1.5-8.54-1.79Zm-2.26,6.4c-.11-1.61-.23-3.21-.34-4.82-.07-1.1-.54-1.63-1.82-1.32-2.33,.56-4.67,1.09-7.02,1.58-.97,.21-1.37,.8-1.69,1.62-1.74,4.54-2.46,9.19-2.09,14.03,.16,2.03,1.25,3.13,2.99,3.81,1.17,.46,2.48,.61,3.73,.9,1.77,.42,2.8-.32,3.33-1.85,1.58-4.53,2.95-9.1,2.89-13.95Zm172.57-4.74c-.08-.8-.1-1.62-.24-2.41-.43-2.42-.48-2.31-2.7-.99-6.15,3.66-10.06,9.15-14.13,14.56-2.92,3.89-2.91,3.74,.65,7.01,1.97,1.81,3.63,1.7,5.63,.26,3.95-2.85,6.18-6.85,8.4-10.87,1.31-2.38,2.53-4.78,2.39-7.57Zm-98.07,31.5s.07,0,.11,0c.05,.81,.15,1.61,.14,2.42-.04,4.41,2.88,8.31,2.49,12.8-.06,.69,.65,1.01,1.44,1.11,2.21,.27,3.99-.84,4.49-2.95,.52-2.2,1.02-4.42,1.45-6.64,.93-4.88,1.26-9.77,.14-14.68-.35-1.52-.67-2.67-2.75-1.37-1.38,.86-3.16,1.09-4.74,.53-1.81-.64-2.09,.23-2.19,1.52-.19,2.42-.38,4.83-.57,7.25Zm-42.15-26.24c-.12-1.61-.24-3.22-.36-4.82-.04-.56-.01-1.14-.76-1.37-1.22-.38-6.65,1.54-7.34,2.72-2.31,3.9-4.11,7.96-4.36,12.5-.25,4.54,1.75,6.57,6.66,6.96,1.69,.13,2.65-.48,3.15-1.85,1.66-4.58,3.02-9.23,3.01-14.14Zm65.02,1.47c0-1.13,.03-2.26,0-3.39-.02-.64-.11-1.29-.22-1.93-.09-.53-.05-1.14-.85-1.31-.94-.2-6.42,1.46-6.87,2.2-2.68,4.38-4.77,8.96-4.74,14.14,.02,3.33,.96,4.44,4.36,5.29,4.04,1.01,4.53,.78,6.07-2.92,1.62-3.89,2.09-7.97,2.26-12.09Zm35.37-58.22c-.42-.54-.85-.45-1.27-.41-5.21,.52-10.42,1.1-15.56,2.09-2.63,.51-5.1,1.49-7.35,2.85-1.57,.95-3.5,1.96-3.3,3.99,.19,1.9,2.18,2.56,3.81,3.24,3.11,1.3,6.4,1.87,9.79,1.77,1.23-.04,2.92,.57,3.59-.56,.6-1.02-.82-1.98-1.43-2.91-1.57-2.38-1.16-3.29,1.9-3.45,3.35-.17,6.7-.16,10.06-.25,.73-.02,1.79,.23,1.81-.83,.03-1.36,.06-2.81-.43-4.05-.43-1.08-1.89,.17-2.78-.41-.07-.81,1.06-.4,1.18-1.09Zm-74.57,21.49c-1.49,.13-3.48,.18-5.42,.51-5.31,.93-10.62,1.96-15.02,5.2-.77,.57-2.27,1.3-1.83,2.06,.62,1.08,2.3,1.19,3.65,1.21,.64,0,1.31-.32,1.94-.57,6.08-2.44,12.46-2.49,18.76-1.51,3.97,.62,7.67,1.2,11.31-.81,.49-.27,1.35-.11,1.49-.73,.17-.75-.67-1.06-1.16-1.44-3.85-2.97-8.44-3.76-13.73-3.93Zm-77.66,50.09c2.09-.03,3.39-.42,4.58-1.12,.66-.38,1-.85,.64-1.6-2.6-5.34-5.05-10.76-8.09-15.9-.88-1.48-7.95-3.89-8.52-2.98-1,1.58,.14,3.36,.55,5,1.07,4.23,2.39,8.42,4.92,12.13,1.55,2.28,3.4,4.3,5.92,4.47Zm151.11-9.21c-.29-2.11-.55-4.68-1.02-7.21-.18-.94,.28-2.82-1.48-2.49-1.78,.34-4.24-.29-5.07,2.37-1.69,5.39-2.77,10.77-1.41,16.37,.4,1.63,.51,3.48,2.77,3.82,2.48,.37,4.05-.77,4.96-2.91,1.31-3.07,1.26-6.29,1.24-9.96Zm-128-33.69c1.26,.71,2.39,1.82,3.82,1.2,8.1-3.51,16.39-2.92,24.76-1.19,.76,.16,1.56,.43,2.19-.2,2.41-2.38,5.03-4.47,8.46-5.59-14.11-3.85-26.88-.41-39.23,5.77Zm6.21-4.57c-2.32-1.02-4.36-1.33-6.41-1.6-7.59-1-15.12-.22-22.66,.65-3.45,.4-6.07,2.12-8.63,4.05-.43,.32-1.18,.96-.23,1.24,1.16,.35,2.23,1.32,3.64,.74,7.78-3.2,15.75-2.84,23.81-1.11,.88,.19,1.9,.64,2.75,0,2.21-1.71,4.81-2.77,7.74-3.95Zm122.09,28.45c.71,2.56,7.82,14.7,10.14,17.39,2.65,3.07,3.9,3.03,6.41-.19,.35-.45,.67-.95,1.08-1.35,1.13-1.1,.97-1.9-.25-2.97-3.21-2.78-6.44-5.6-8.03-9.6-.22-.55-.58-1.04-1.19-1.2-2.7-.68-5.29-1.74-8.17-2.09Zm43.04-13.29c.02-1.05-.43-2.98-.77-3-1.27-.1-1.66,1.03-2.33,1.66-3.82,3.59-8.29,5.69-13.78,5.74-2.26,.02-5.06,4.03-4.35,6.08,.16,.47,.51,.6,.96,.65,2,.23,3.81,1,5.59,1.81,.95,.43,1.52,.22,2.28-.37,3.16-2.49,6.39-4.91,9.61-7.33,1.8-1.35,2.64-3.13,2.79-5.24Zm9.32,43.09c.06-2.38-.66-4.37-2.31-6.08-.71-.74-1.18-1.04-1.93,.02-3.02,4.3-6.6,8.19-10.19,12.08-.44,.48-.86,.9-.37,1.68,2.77,4.42,3.41,4.58,8.05,1.71,.5-.31,.97-.67,1.5-.94,3.63-1.86,4.84-5.01,5.24-8.48Zm-22.67,3.86c-1.08,3.43-2.16,6.63-3.75,9.65-.27,.52-.39,1,.05,1.56,1.98,2.47,9.49,4.48,12.59,3.33,2.48-.92,2.95-1.91,1.99-4.3-1.97-4.9-6.1-7.75-10.89-10.24Zm-31.57,14.97c2.28-.14,4.57-.81,6.68-1.94,.51-.27,1.35-.54,.96-1.44-1.76-4.07-4.01-7.85-7.59-10.77-1.25-1.02-1.93-.71-2.32,.91-.7,2.9-1.69,5.74-3.13,8.41-1.41,2.61-1.25,3.06,1.73,4.15,1.13,.41,2.3,.67,3.68,.69Zm21.89-93.78c-.43,0-.86,.04-1.28,0-1.95-.23-2.91-.06-2.35,2.35,.91,3.9,1.37,7.92,.22,11.91-.18,.64,0,.98,.64,1.35,2.14,1.24,3.73,.81,4.91-1.53,1.58-3.14,1.64-6.53,1.86-9.9,.28-4.17,.29-4.17-3.99-4.16Zm24.69,71.37c1.43-2.18,3.38-3.47,3.17-5.82-.34-3.76-1.55-7.24-4.14-10.2-3.49-3.99-3.75-3.98-6.3,.41-.57,.98-1.56,1.8-.25,3.16,3.31,3.46,6.23,7.22,7.51,12.45Zm-14.65,2.86c0,.32-.01,.65,0,.97,.04,.85-.53,1.88,.41,2.5,1.76,1.14,3.61,2.16,5.45,3.19,.12,.07,.5-.14,.65-.3,1.45-1.58,3.14-3.03,2.06-5.53-1.71-3.95-4.39-7.29-7.23-10.55-1.25-1.43-2.4-.02-3.43,.35-1.33,.48-.03,1.22,.22,1.68,1.33,2.43,2.06,4.95,1.87,7.69Zm-29.5-23.99c.09,1.09,.15,1.79,.2,2.49,.34,4.83,.88,9.69-1.9,14.13-.72,1.15,.12,1.39,.96,1.67,2.5,.84,8.58-1.36,9.92-3.5,.44-.7-.03-1.01-.39-1.45-2.26-2.76-3.96-5.83-5.8-8.83-.87-1.42-1.41-3.05-2.99-4.52Zm19.49-6.34c-3.43-.24-5.79,1.57-8.27,3.4-.81,.6-1.46,.81-.68,1.64,.93,1.01,.67,3.59,3.02,2.73,3.26-1.2,6.47-1.45,9.84-.86,1.09,.19,4.59-3.31,4.4-4.31-.09-.48-.55-.59-.91-.77-2.33-1.1-4.81-1.69-7.39-1.84Zm5.42-37.02c-.85,3.24-.85,6.74-3.34,9.48-.85,.93,.23,1,.8,1.21,2.5,.9,4.98,1.8,6.81,3.75,.37,.39,.65,.69,1.18,.1,4.04-4.39,.86-13-5.45-14.55ZM89.11,177.79c3.78,.08,4.64-1.15,3.2-4.29-1.27-2.77-3.61-4.59-6.1-6.26-2.29-1.54-2.69-1.33-3.51,1.25-.22,.69-.4,1.44-.83,2.01-1.53,2.09-.47,3.65,1.16,5,1.71,1.41,3.75,2.23,6.07,2.27Zm95.4-16.26c-.61,4.24-1.01,8.31-3.15,12.03-.24,.41-.31,.77,.2,.99,2.89,1.2,5.76,2.66,9.07,1.94,2.14-.46,2.75-2.31,1.31-3.86-1.24-1.34-2.41-2.72-3.35-4.25-1.39-2.26-2.73-4.56-4.08-6.85Zm114.91-1.45c2.73-2.12,3.74-4.39,2.28-7.38-1.58-3.25-3.71-6.14-6.12-8.87-.26-.3-.91-.75-.95-.71-1.16,1.03-2.32,2.07-3.34,3.21-.7,.78,.2,1.34,.65,1.85,3.08,3.56,6,7.2,7.48,11.9Zm-79.75,18.26c1.68-.05,3.09-.59,4.28-1.59,1.23-1.04,1.66-1.92-.3-2.8-2.01-.9-3.9-2.03-5.8-3.13-5.37-3.1-5.8-2.89-6.38,3.17-.07,.7-.05,1.23,.66,1.65,2.34,1.41,4.8,2.49,7.55,2.7Zm4.36-27.01c3.07-.12,5.76-1.4,8.5-2.53,1.31-.54,1.47-1.14,.53-2.13-1.49-1.58-2.54-3.42-3.56-5.29-1.12-2.05-1.49-2.11-2.7,0-1.49,2.61-2.53,5.46-4.11,8.02-1.15,1.88-.26,1.97,1.33,1.93Zm23.97-6.17c-.36-4.18,.2-7.89,1.27-11.53,.29-.99,.28-1.56-.95-1.65-2.51-.19-4.98-.09-7.4,.66-.73,.23-1.35,.5-.87,1.33,2.23,3.83,4.18,7.83,7.94,11.19Zm-153.39,3.43c1.99-.18,4.14-.88,6.24-1.81,.93-.41,1.07-.82,.43-1.61-1.31-1.6-2.26-3.42-2.99-5.3-.56-1.43-1.27-1.15-2.28-.55-2.18,1.31-3.43,3.26-4.43,5.44-1.2,2.62-.37,3.88,3.02,3.82Zm29.78,28.77c.71-.05,1.87,.15,1.35-1.34-.98-2.77-2.25-5.39-4.73-7.29-2.96-2.26-4.01-1.92-4.44,1.57-.15,1.24-1.24,2.74,.27,3.82,2.19,1.56,4.53,2.89,7.56,3.24Zm109.91-28.05c-3.38,1.57-6.39,2.82-10.3,3.37,4.13,2.84,6.97,6.18,10.38,9.94-.8-4.79-.25-8.87-.09-13.31Zm-79.68,27.22c.86-.64,3.38,.85,2.79-1.49-.67-2.65-2.27-5.07-4.83-6.64-2.3-1.42-3.33-.93-3.64,1.54-.08,.64-.19,1.28-.3,1.91-.53,2.85,.05,3.7,3.09,4.35,.91,.2,1.87,.22,2.9,.33Zm44.59-29.16c-.21-.28-.49-.59-.69-.94-.77-1.34-1.48-2.71-2.27-4.03-.4-.67-.35-1.84-1.31-1.89-1.03-.06-1.53,1-1.86,1.77-.98,2.29-1.77,4.66-2.72,6.97-.21,.51-.77,.93-.2,1.45,.46,.41,1.09,.47,1.68,.23,2.2-.88,4.39-1.75,6.57-2.67,.34-.14,.8-.31,.8-.88Zm-40.6,3.04c1.72-.23,3.26-.92,4.79-1.64,3.09-1.45,3.06-1.45,1.42-4.2-.67-1.12-1.36-2.25-1.79-3.46-.61-1.72-1.37-1.4-2.17-.25-1.8,2.6-2.46,5.59-3.2,8.55-.17,.66,.07,1.11,.93,.99Zm-32.11-.55c1.93-.21,3.48-1.32,5.26-1.89,1.94-.62,2.91-1.34,1.22-3.28-1.01-1.15-1.59-2.66-2.21-4.07-.7-1.6-1.42-1.35-2.23-.16-1.72,2.56-2.32,5.51-3.2,8.35-.26,.84,.29,1.18,1.17,1.05Zm147.74-31.59q-.57,2.7-2.41,4.6c-.33,.34-1,.58-.63,1.14,.78,1.18,.91,2.73,1.79,3.68,.62,.67,1.91-.55,2.97-.75,3.77-.73,4.17-1.56,2.65-4.98-.81-1.83-2.29-2.93-4.37-3.68Zm-161.86,22.79c.41-3.61,1.13-6.91,2.22-10.16,.22-.64,.73-1.57-.46-1.76-2.18-.35-4.28,.14-6.22,1.11-.67,.34-.54,.97-.27,1.5,1.57,3.11,3.15,6.21,4.73,9.31Zm123.15,21.93c2.85-2.57,3.99-4.99,4.76-9.71,.18-1.12-3.01-3.75-4.17-3.45-.4,.1-.5,.41-.54,.72-.45,4.07-.46,8.13-.05,12.44Zm-24.76-22.17c.87-3,1.74-5.43,2.81-7.81,.47-1.04,2.13-2.21,1.17-3.11-1.02-.96-2.78-.04-4.15,.34-.8,.22-1.5,.78-2.25,1.17-.9,.47-1.13,1.08-.72,2.01,1.01,2.29,1.96,4.6,3.15,7.42Zm-32.3-.62c.83-2.84,1.62-5.1,2.58-7.3,.52-1.19,2.38-2.64,1.29-3.53-1.24-1.01-3.27,.05-4.85,.67-.7,.28-1.31,.77-1.94,1.18-.46,.3-.68,.68-.43,1.24,1.06,2.4,2.09,4.82,3.36,7.74Zm-32.86-.42c.89-3.63,2.11-6.7,3.8-9.59,.71-1.22,.59-1.74-1.04-1.61-1.93,.15-3.67,.69-5.23,1.77-.57,.4-1.18,.77-.85,1.54,1.04,2.52,2.12,5.02,3.33,7.88Zm-10.94,21.27c-.05-4.31,.51-8.1,1.54-11.83,.3-1.09-.45-1.6-1.45-1.27-1.77,.58-3.55,1.23-2.79,3.68,.42,1.37,.69,2.86,.6,4.26-.13,1.89,.34,3.44,2.11,5.16Zm138.35,.87c.72-.54,.55-1.14,.31-1.59-1.46-2.76-1.56-5.72-1.54-8.7,0-.82,.19-1.81-.89-1.98-1.68-.28-2.25,1.46-3.53,2.01-.69,.3-.72,.82-.32,1.4,1.99,2.94,3.97,5.89,5.98,8.87Zm6.48-26.22c0-.05-.01-.11-.02-.16-1.26,.19-2.55,.29-3.78,.59-2.5,.62-2.54,.85-.77,2.65q3.7,3.78,6.93-.49c.47-.62,1.5-1.23,1.05-2.01-.4-.72-1.55-.44-2.38-.57-.33-.05-.68,0-1.03,0Zm-177.11,24.9c.03-4.17,.3-7.86,1.44-11.44,.25-.78,.33-1.49-.67-1.76-1.56-.42-3.79,1.53-3.46,3.05,.43,1.98,.83,3.98,.63,6-.16,1.61,.53,2.75,2.06,4.15Zm98.22,1.64c-.08-4.09-.1-7.46,.51-10.81,.15-.8,.74-1.86-.32-2.43-.96-.51-1.71,.42-2.56,.72-1.06,.37-1.09,1-.91,1.91,.32,1.58,.8,3.2,.65,4.76-.22,2.24,.92,3.73,2.64,5.85Zm-32.79-.17c-.76-4.32,.77-7.82,1.15-11.46,.11-1.07,.5-2.33-1.25-2.26-1.3,.05-2.46,.52-2.26,2.26,.24,2,.39,4.03,.22,6.03-.15,1.87,.16,3.47,2.14,5.43Zm106.46-2.95c2.9-2.71,3.88-7.25,2.4-10.21-.21-.42-.54-.86-.86-.48-.86,1.03-2.74,1.23-2.77,2.92-.05,2.58-.09,5.17,1.23,7.76Zm-59.93,1.89c-2.08,4.94-1.48,5.92,5.62,9.27-2.04-2.82-4.12-5.61-5.62-9.27Zm-55.47-9.18c1.82,1.8,3.49,3.45,5.18,5.12,.77-.63,.44-1.3,.43-1.9q-.09-5.22-5.61-3.22Zm104.33-62.64c-.24-1.42-.27-2.91-.78-4.24-.64-1.7-2.44-1.06-3.54-.74-1.28,.38-.15,1.33,.19,1.91,.73,1.26,1.62,2.45,2.47,3.65,.3,.43,.75,.67,1.31,.42,.47-.2,.5-.6,.35-1ZM99.02,155.98c.22-6-.5-6.79-5.13-6.01-.05,0-.07,.12-.17,.3,1.46,1.67,2.95,3.38,4.46,5.08,.15,.17,.38,.29,.84,.64Zm32.04,.29c.48-2.22,.25-4.29-.86-5.8-.57-.78-2.38,.33-3.64,.92,1.5,1.62,2.89,3.13,4.5,4.88Zm-51.69-7.86c1.14,1.78,2.12,3.32,3.17,4.95q1.75-4.71-3.17-4.95Zm4.96,11.8q-1.18,4.48,3.03,5.89c-1.04-2.02-2-3.9-3.03-5.89Zm141.11-19.57c2.92-2.55,2.94-2.9,.44-6.08-.15,2.08-.28,3.85-.44,6.08Zm-129.75-7.67c-.49,1.86-.92,3.49-1.36,5.15,3.33-.2,3.43-.55,1.36-5.15Zm21.81,28.81q-.71,4.4,2.42,4.44c-.76-1.39-1.47-2.7-2.42-4.44Zm121.14-30.48c1.92,.73,3.55-.27,5.69-.75-2.55-1.91-3.82,1.22-5.69,.75Zm-127.82-3.44c-1.81-.62-2.76,.55-3.95,.42-.37-.04-.97,.01-.86,.58,.11,.56,.61,.76,1.19,.52,1.06-.43,2.11-.88,3.62-1.52Zm98.52,1.4c-.11-.4-.4-.75-.7-.62-.96,.39-2.21,.4-2.7,1.46-.16,.35,.29,.9,.7,.8,1.07-.28,1.93-.93,2.7-1.63Zm46.73,28.86c0-1.76,.04-2.94-.02-4.12-.03-.52-.44-.88-1.05-.71-.49,.13-.63,.6-.43,.96,.58,1.04,.22,2.35,1.51,3.88Zm-114.38-28.23c.67-.67,1.99-.73,2.37-1.84,.12-.37-.48-.64-.66-.5-.8,.64-2.28,.29-2.62,1.5-.09,.33,.27,.73,.91,.84Zm33.1,.47c.6-.47,1.44-1,2.08-1.7,.21-.23-.38-.78-.81-.49-.8,.53-2.09,.36-2.49,1.35-.17,.43,.31,.86,1.22,.84Zm-46.48,4.38c0,1.66-.9,2.77-.1,3.89,.21,.29,.91-.07,1.08-.4,.62-1.17-.06-2.08-.98-3.49Zm32.3,1.08c.1,1.12-.85,2.24,.07,3.24,.06,.07,.69-.15,.83-.36,.77-1.19-.05-2.05-.9-2.88Zm119.89-13.4c0-.84,1.75-1.51,.4-2.42-.34-.23-1.32-.22-1.42-.04-.55,1.01,.32,1.68,1.02,2.46Zm-122.13,50.91c.17,1.28,.1,2.33,1.54,2.56,.42,.07,1.1-.16,1.04-.49-.2-1.18-1.45-1.33-2.58-2.07Zm-47.78-51.17c.35-.75,1.29-1.33,.74-2.25-.22-.36-.84-.16-1.14,.08-1.09,.85,.18,1.41,.4,2.17Z"/>
  <path class="cls-5" d="M242.04,39.24c.85,5.22,2.03,10.37,3.29,15.51-.12,.65,.47,.7,.88,.91,1.12,6.03,3.12,11.84,5.31,17.58,.82,2.14,.05,2.71-1.98,2.78-.43,.01-.86,.04-1.29,.08-4.81,.43-4.77,.42-6.32-3.85-1.92-5.25-3.31-10.64-4.84-16-1.79-8.24-3.62-16.47-4.84-24.81-.63-4.28-1.65-8.52-1.61-12.88,2.34-1.74,5.11-.92,7.7-1.15,0,0,.24-.02,.24-.02l.23,.05c.04,2.45,.02,4.9,.87,7.26-.1,.15-.08,.29,.04,.43,.33,4.45,1.21,8.83,2.11,13.2-.17,.35-.03,.64,.22,.9Z"/>
  <path class="cls-3" d="M291.17,82.41c-4.7,.06-9.41,.08-14.11,.22-1.72,.05-2.65-.36-2.41-2.12,.02-.16-.01-.32-.02-.48q-.2-4.05,4.1-4.5c3.39-.33,6.79-.66,10.18-.99,1.65-.03,3.26-.23,4.83-.73,3.59-.39,7.18-.77,10.76-1.16,1.66,.22,3.24-.03,4.75-.7,5.36-.58,10.72-1.15,16.07-1.73,.69,.74,1.56,.59,2.35,.3,1.11-.4,1.98-.12,2.78,.6-.06,2.31,.34,4.64-.51,6.9-7.49,.83-14.98,1.65-22.46,2.49-5.44,.61-10.88,1.26-16.31,1.88Z"/>
  <path class="cls-6" d="M85.8,103.99c7.87,.67,15.43,2.39,22.41,5.99,1.58,.81,3.12,1.71,4.61,2.66,1.77,1.13,2.01,2.73,.76,4.32-1.34,1.7-4.06,2.38-5.38,1.2-7.1-6.38-15.3-6.61-23.99-3.74-2.53,.84-4.7-.49-7.06-.43-1.11-3.01-1.85-5.97,1.12-8.54,.29-.25,.21-.88,.31-1.33,1.83-.59,3.72-.03,5.57-.3,.55,.06,1.1,.12,1.65,.18Z"/>
  <path class="cls-13" d="M228.14,94.91c-6.38-8.51-12.77-17.02-19.13-25.54-1.68-2.25-3.39-4.49-4.85-6.86-1.04-1.69-2.01-1.96-3.76-.87-2.37,1.48-2.46,1.38-2.76-1.24-.36-3.21-.69-6.43-1-9.64-.05-.54-.29-1.21,.25-1.6,.73-.52,1.29,.13,1.83,.45,3.06,1.8,6.06,3.7,9.16,5.43,1.81,1.01,1.53,1.83-.11,2.44-2.59,.96-2.42,2.03-.96,4.04,8.93,12.26,17.79,24.56,27.57,36.26,.52,.62,1.2,1.2,1.06,2.12-1.57,.87-2.74,.69-3.84-.84-.44-.62-.6-1.9-1.99-1.66,0,0,.02,.04,.02,.04,.33-1.28-.8-1.79-1.52-2.52Z"/>
  <path class="cls-6" d="M229.64,97.4c1.39-.25,1.55,1.04,1.99,1.66,1.09,1.53,2.27,1.72,3.84,.84,.47,0,.93-.02,1.4-.03-2.05,1.43-4.39,2.5-5.95,4.51-.86,1.11-1.89,.32-2.77,.04-4.77-1.52-9.62-2.34-14.68-1.7-3.67,.47-7.03,1.66-9.73,4.03-1.56,1.36-2.9,2-4.87,.87-.78-.44-1.74-.61-2.32-.8-.42-.37-.39-.51-.15-.56,6.78-1.56,12.24-6.11,19.15-7.39,1.76-.33,3.53-.66,5.29-.99,1.9,0,3.8,0,5.7,0,1.03-.23,2.39,1.45,3.11-.48Z"/>
  <path class="cls-6" d="M85.62,98.04c4.19-.25,8.36,.18,12.53,.42,.17,.01,.33,.02,.5,.04,1.37,.33,2.73,.66,4.5,1.08-2.25,1.5-4.24,2.72-5.95,4.28-.8,.72-1.79,.25-2.7,.07-5.75-1.14-11.55-1.5-17.4-1.06,.01-.89,.02-1.77,.03-2.66,.72,.08,1.35-.09,1.82-.64,1.96-.45,3.93-.9,5.89-1.35,.26-.06,.52-.12,.78-.18Z"/>
  <path class="cls-3" d="M293.74,73.81c-1.56,.5-3.18,.7-4.83,.73-3.45-1.19-6.83-.31-10.22,.32h-3.01c-.03-.24-.06-.47-.09-.71,18.74-2.67,37.58-4.68,56.4-6.82-.98,1.1-.89,2.58-1.54,3.8-.8-.72-1.67-1-2.78-.6-.79,.28-1.66,.44-2.35-.3-.24-.8-.89-.96-1.65-.87-4.46,.51-8.92,1.03-13.38,1.53-.73,.08-1.06,.41-1.05,1.07-1.51,.67-3.09,.92-4.75,.7-3.71-1.79-7.34,.29-11.02,.25-.37,0,.35,.55,.25,.91Z"/>
  <path class="cls-6" d="M301.01,176.99c.44-.71,.84-1.45,.46-2.27-1.09-2.37,.27-3.46,2.33-4.43,1.6-.75,3.09-1.75,4.51-2.78,1.19-.86,1.73-.49,2.29,.61,1.42,2.81,.31,5.14-1.43,7.39-.59,.76-1.59,1.3-1.46,2.44-2.24-.32-4.47-.64-6.71-.96Z"/>
  <path class="cls-11" d="M230.63,18.57c-.05,4.36,.98,8.6,1.61,12.88,1.23,8.33,3.05,16.57,4.84,24.81-.41-.01-.82-.02-1.23-.04-2.91-10.76-4.64-21.71-6.25-32.69-.2-1.35-.45-2.7-.58-4.06-.12-1.22,.34-1.75,1.61-.9Z"/>
  <path class="cls-11" d="M291.17,82.41c5.44-.63,10.87-1.27,16.31-1.88,7.49-.84,14.98-1.66,22.46-2.49,.84,.86,.39,1.35-.6,1.44-12.58,1.13-25.05,3.11-37.67,3.88-.17-.31-.34-.63-.51-.94Z"/>
  <path class="cls-11" d="M226.52,97.88c-1.9,0-3.8,0-5.7,0,0-.34-.01-.67-.02-1.01,1.91-.41,3.81-.5,5.72-.02,0,.34,0,.69,0,1.03Z"/>
  <path class="cls-11" d="M126.15,97.55c-2.39,.59-4.78,.6-7.16,0,2.39-.27,4.78-.38,7.16,0Z"/>
  <path class="cls-10" d="M102.42,177.11c-.01,.28-.02,.57-.03,.85-1.38-.16-2.77,.96-4.14-.05,.03-.34,.06-.69,.09-1.03,1.36,.08,2.72,.16,4.08,.23Z"/>
  <path class="cls-12" d="M226.52,97.88c0-.34,0-.69,0-1.03,.2-.04,.4-.08,.59-.11,.85,.24,1.69,.47,2.54,.71,0,0-.02-.04-.02-.04-.73,1.93-2.09,.25-3.11,.48Z"/>
  <path class="cls-1" d="M229.66,97.44c-.85-.24-1.69-.47-2.54-.71-.28-.91,.67-1.21,1.02-1.81,.72,.73,1.85,1.24,1.52,2.52Z"/>
  <path class="cls-11" d="M246.18,50.89c-1.74-.39-.84-1.75-1.11-2.68,.77,.75,1.06,1.67,1.11,2.68Z"/>
  <path class="cls-11" d="M78.95,99.57c-.47,.55-1.09,.72-1.82,.64-.16-.73,.05-1.24,.92-1.35,.3,.24,.6,.47,.9,.71Z"/>
  <path class="cls-11" d="M241.92,32.44c-.7-.73-.36-1.61-.4-2.44,.35,.78,.49,1.59,.4,2.44Z"/>
  <path class="cls-1" d="M307.72,177.96c.34-.01,.67-.02,1.01-.03-.02,.38-.03,.84-.6,.76-.17-.03-.27-.47-.41-.72Z"/>
  <path class="cls-11" d="M240.9,25.65c-.65-.57-.42-1.3-.39-1.99,.13,.66,.26,1.32,.39,1.99Z"/>
  <path class="cls-1" d="M217.74,97.01c-.3,.31-.68,.29-1.07,.22,.21-.69,.53-.92,1.07-.22Z"/>
  <path class="cls-11" d="M239.98,19.85c-.48-.27-.6-.57-.11-.94,.04,.31,.08,.63,.11,.94Z"/>
  <path class="cls-11" d="M101.4,97.92c-.69,.03-1.41,.2-2.04-.23,.68,.08,1.36,.16,2.04,.23Z"/>
  <path class="cls-11" d="M112.73,97.95c-.42,.47-.91,.44-1.44,.19,.44-.34,.93-.34,1.44-.19Z"/>
  <path class="cls-11" d="M86.88,96.97c-.29,.46-.62,.54-1,.08,.32-.22,.65-.28,1-.08Z"/>
  <path class="cls-11" d="M130.47,97.88c-.72,.07-1.45,.23-2.13-.16,.71,.05,1.42,.11,2.13,.16Z"/>
  <path class="cls-6" d="M94.1,97.03c-.36,.46-.7,.41-1.01-.05,.34,.02,.67,.03,1.01,.05Z"/>
  <path class="cls-11" d="M248.5,60.06c-.1-.43-.2-.86-.31-1.29,.1,.43,.2,.86,.31,1.29Z"/>
  <path class="cls-11" d="M84.78,97.15c-.5,.42-1.08,.31-1.66,.25,.52-.28,1.07-.36,1.66-.25Z"/>
  <path class="cls-11" d="M117.34,97.68c-.55,.39-1.15,.25-1.75,.18,.56-.26,1.14-.36,1.75-.18Z"/>
  <path class="cls-11" d="M241.19,28.02c-.06-.47-.12-.93-.18-1.4,.06,.47,.12,.93,.18,1.4Z"/>
  <path class="cls-11" d="M238.8,17.46l-.23-.05s-.24,.02-.24,.02c.42-.23,.84-.84,1.23,.03-.26,0-.51,0-.77,.01Z"/>
  <path class="cls-11" d="M246.47,52.31c-.33-.32-.32-.71-.23-1.11,.08,.37,.15,.74,.23,1.11Z"/>
  <path class="cls-11" d="M249.68,63.97c-.37-.26-.43-.62-.38-1.01,.13,.34,.25,.67,.38,1.01Z"/>
  <path class="cls-11" d="M97.45,97.37c-.4-.05-.79-.09-1.19-.14,.4,.05,.79,.09,1.19,.14Z"/>
  <path class="cls-11" d="M79.12,98.41c-.23,.4-.62,.5-1.07,.46,.27-.33,.61-.52,1.07-.46Z"/>
  <path class="cls-11" d="M242.4,34.87c-.07-.26-.15-.52-.22-.79,.07,.26,.15,.53,.22,.79Z"/>
  <path class="cls-11" d="M107.03,98.6c-.15,.02-.31,.04-.46,.05,.14-.13,.29-.15,.46-.05Z"/>
  <path class="cls-11" d="M104.96,98.61c-.2,.2-.36,.15-.49-.07,.16,.02,.32,.05,.49,.07Z"/>
  <path class="cls-11" d="M133.52,98.38c-.17-.03-.35-.06-.52-.09,.17,.03,.35,.06,.52,.09Z"/>
  <polygon class="cls-11" points="109.06 98.44 108.9 98.47 108.73 98.46 108.89 98.32 109.06 98.44"/>
  <path class="cls-11" d="M103.5,98.39c-.16-.03-.33-.05-.49-.08,.16,.03,.33,.05,.49,.08Z"/>
  <path class="cls-11" d="M79.57,98.27c-.13,.12-.28,.16-.45,.14,.15-.05,.3-.09,.45-.14Z"/>
  <path class="cls-11" d="M81.67,97.69c-.21,.06-.43,.12-.64,.17,.21-.06,.43-.12,.64-.17Z"/>
  <path class="cls-11" d="M242.09,33.53c-.03-.17-.05-.34-.08-.51,.06,.11,.14,.22,.17,.34,.01,.04-.06,.11-.09,.17Z"/>
  <path class="cls-11" d="M236.08,57.22c.08,.18,.15,.36,.23,.54-.08-.18-.15-.36-.23-.54Z"/>
  <path class="cls-11" d="M247.43,56.18c-.06-.19-.12-.37-.17-.56,.06,.19,.12,.37,.17,.56Z"/>
  <path class="cls-11" d="M246.85,53.73c-.04-.16-.09-.32-.13-.48,.07,.1,.15,.2,.2,.31,.02,.04-.05,.11-.07,.17Z"/>
  <path class="cls-11" d="M244.79,47.43c-.04-.18-.08-.36-.12-.54,.06,.12,.14,.23,.18,.35,.02,.05-.04,.12-.06,.19Z"/>
  <path class="cls-11" d="M243.77,42.58c-.03-.21-.06-.42-.1-.62,.06,.14,.14,.27,.18,.41,.02,.06-.05,.14-.08,.21Z"/>
  <path class="cls-6" d="M249.78,118.29c-3.48,3.29-7.75,3.48-11.49,.64-5.02-3.81-10.76-5.24-17.15-4.29-4.4,.65-8.51,.18-12.21-2.42-1.23-.87-2.59-1.65-4.01-2.18-2.2-.83-1.56-1.65-.22-2.61,5.58-3.99,11.92-4.58,18.41-3.03,10.04,2.38,19.09,6.67,26.65,13.47,0,.14,0,.29,.02,.43Z"/>
  <path class="cls-5" d="M273.19,79.46c-.03,4.36,1.58,8.13,1.73,12.1,.06,1.71,0,3.36-.19,5.05-.24,2.05-1.16,1.82-2.47,.85-4.6-3.39-8.21-7.35-8.64-13.16-.33-4.41-1.21-8.84,.49-13.19,1.12-2.85,2.89-5.17,6.01-6.28,6.66-2.38,10.35,1.21,12.13,5.99,.32,.87-.13,1.22-.93,1.31-.85,.1-1.72,.15-2.58,.16-3.59,.04-4.64,.83-5.27,4.17-.21,1.11-.2,2.25-.27,3Z"/>
  <path class="cls-6" d="M242.08,177.05c-1.66-.18-3.43-.57-3.38-3.19,.04-2.36-.64-4.64-1.85-6.72-.76-1.3-.76-2.4,.27-3.54,2.69-3,4.04-6.53,4.44-10.38,.12-1.15,.59-1.8,1.85-1.87,.09,0,.17-.04,.25-.04,2.22-.04,4.3-3.34,6.81,.54,1.39,2.15,3.06,3.87,3.48,6.57,.82,5.29-1.33,9.81-3.6,14.3-1.36,2.69-4.78,4.35-8.27,4.34Z"/>
  <path class="cls-6" d="M233.15,176.53c-.88,.06-1.88-.12-2.81-.59-8.31-4.19-13.83-10.44-15.94-19.14-.44-1.8-.75-4.11,.93-5.21,1.44-.94,3.9-.22,5.32,.61,8.1,4.75,14.23,11.1,16.55,20.06,.82,3.16-.34,4.27-4.04,4.26Z"/>
  <path class="cls-6" d="M225.47,115.58c5.37,.24,10.46,2.15,14.27,6.61,.32,.38,.64,.77,.88,1.19,1.02,1.75,1.94,3.79,.6,5.47-1.36,1.7-3.55,.73-5.24,.08-6.11-2.36-12.22-2.85-18.58-.85-1.74,.55-3.74,.4-5.62,.48-1.46,.06-2.16-.74-2.29-2.08-.26-2.67,.57-4.93,2.83-6.65,3.66-2.79,7.82-4.28,13.15-4.25Z"/>
  <path class="cls-6" d="M94.58,113.93c4.58,.31,9.77,1.39,13.31,5.96,.62,.8,1.04,1.66,1.31,2.6,1,3.5-.64,5.19-4.39,4.43-1.67-.34-3.31-.82-4.96-1.28-4.57-1.28-9.02-.44-13.45,.66-.67,.16-1.32,.39-1.99,.51-2.25,.39-4.57,.55-6.28-1.11-1.19-1.15-.33-4.56,1.32-6.53,2.75-3.28,8.09-5.26,15.12-5.24Z"/>
  <path class="cls-6" d="M159.85,114.47c4.45,.44,8.86,1,12.5,3.82,2.39,1.86,3.64,4.11,3.34,7.17-.18,1.88-1.12,2.45-2.82,2.21-2.03-.28-4.09-.58-6.03-1.18-4.36-1.33-8.65-1.08-12.92,.2-2.33,.7-4.72,.7-7.11,.84-1.57,.09-2.14-.67-2.34-1.97-.56-3.67,1.22-6.29,4.41-8.06,3.34-1.85,6.91-3.24,10.96-3.03Z"/>
  <path class="cls-6" d="M122.49,126.03c-2.01,.4-4.01,.88-6.05,1.17-3.5,.5-5.1-1.26-4.46-4.54,.57-2.93,2.78-4.52,5.16-6.01,6.22-3.89,16.24-3.47,22.09,.89,2.5,1.86,3.89,4.14,3.58,7.32-.18,1.82-.95,2.41-2.74,2.29-2.16-.15-4.2-.83-6.27-1.32-2.34-.56-4.67-1.13-7.11-.65-.29,.07-.58,.14-.86,.21-.4,.06-.8,.12-1.19,.18-.77-.09-1.48,.06-2.14,.45Z"/>
  <path class="cls-6" d="M106.1,173.97c.13,1.25,.24,2.28-1.81,1.68-10.65-3.11-17.55-9.45-19.8-19.88-.38-1.75-.5-3.53,.13-5.27,.73-2.02,2.54-2.69,4.63-1.73,.54,.25,1.17,.4,1.58,.77,7.24,6.57,12.89,14.06,15.17,23.45,.08,.31,.06,.64,.09,.96Z"/>
  <path class="cls-6" d="M171.32,174.89c.21,1.56-.34,1.91-2.02,1.67-11.29-1.64-21.06-13.35-19.89-23.95,.2-1.85,.75-2.67,3.08-2.08,2.23,.56,4.23,1.35,5.92,2.75,5.45,4.5,8.91,10.28,11.68,16.44,.72,1.6,.84,3.44,1.23,5.17Z"/>
  <path class="cls-6" d="M194.15,115.07c4.06,.35,9.28,1.47,12.82,6.2,1.34,1.79,1.05,3.69,.93,5.57-.08,1.17-1.2,1.38-2.32,1.4-1.67,.03-3.25-.44-4.78-.92-4.55-1.43-9.11-1.53-13.67-.21-2.33,.68-4.71,.76-7.11,.95-1.94,.15-2.59-.7-2.77-2.34-.37-3.4,1.37-5.75,4.2-7.48,3.36-2.05,7.03-3.34,12.7-3.17Z"/>
  <path class="cls-6" d="M169.5,158.79c.2-2.49,.06-4.99,.63-7.46,.26-1.12,.56-1.51,1.84-1.12,2.1,.64,4.14,.11,5.89-.98,1.27-.8,2.15-.38,3.25,.19,1.23,.63,1.32,1.52,1.16,2.64-.31,2.16-.25,4.33,0,6.51,.74,6.36-.42,12.35-4.14,17.79-.45,.67-1,1.34-1.68,1.79-1.87,1.25-3.89,.32-3.93-1.85-.06-3.19-.69-6.24-1.97-9.18-1.17-2.7-.87-5.54-1.05-8.33Z"/>
  <path class="cls-6" d="M138.48,175c.17,1.21-.24,1.55-1.6,1.25-10.51-2.32-18.69-10.97-19.8-21.16-.19-1.79-.81-4.41,1.15-5.07,1.94-.65,4.54-.08,6.41,1.55,4.13,3.6,7.39,7.81,10.01,12.48,1.94,3.46,3.45,7.02,3.82,10.95Z"/>
  <path class="cls-6" d="M146.93,173.2c-.83,2.16-4.07,4.04-6.27,3.71-1.01-.15-.92-.79-.93-1.43-.04-3.38-1.24-6.47-2.54-9.56-2.2-5.22-1.2-10.46,.05-15.69,.21-.88,.74-.95,1.52-.66,2.1,.77,4.08,.31,5.92-.69,1.32-.72,1.75-.3,2.09,.94,1.81,6.59,1.85,13.24,.89,19.93-.14,.96-.33,1.91-.5,2.86-.08,.19-.17,.39-.25,.58Z"/>
  <path class="cls-6" d="M282.89,118.79c-1.95-.03-3.92-.04-5.82-.68-1.34-.45-2.49-1.16-3.29-2.22-.79-1.06-1.56-2.45-.98-3.59,.49-.95,1.86,.05,2.86,.05,6.01,.01,11.77-.49,15.37-5.92,1.36-2.05,1.73-4.38,1.79-6.71,.03-1.36,.66-1.48,1.75-1.16,3.06,.9,5.81,2.26,6.81,5.35,1.02,3.14,.29,6.01-2.07,8.53-4.37,4.64-9.63,7.2-16.41,6.37Z"/>
  <path class="cls-6" d="M116.18,161.16c-.31,3.75-.45,7.22-1.24,10.63-.44,1.92-3.96,4.53-6.04,4.48-.95-.02-1.36-.43-1.39-1.34-.14-3.53-1.68-6.68-2.87-9.97-1.84-5.04-.9-10.19,.36-15.26,.22-.88,.75-.83,1.55-.6,1.99,.56,3.98,.33,5.7-.71,1.67-1.01,2-.11,2.37,1.11,1.2,3.91,1.26,7.94,1.56,11.66Z"/>
  <path class="cls-6" d="M287.94,158.2c-.22,5.34-2.19,10.22-4.77,14.91-.27,.49-.73,.91-1.2,1.26-1.19,.89-2.4,2.39-3.92,1.94-1.27-.38-.61-2.14-.88-3.28-.54-2.29-1.17-4.55-2.15-6.7-1.13-2.47-.79-4.85,.95-6.83,3.02-3.46,2.97-7.22,1.84-11.2-.09-.31-.2-.62-.3-.93-.39-1.22,.38-2.11,1.24-2.7,.81-.55,1.3,.47,1.87,.88,4.43,3.19,7.55,7.07,7.33,12.65Z"/>
  <path class="cls-6" d="M135.79,107.39c2.49-1.29,4.77-1.76,7.05-1.97,12.17-1.12,23.36,1.69,33.68,7.72,1.64,.96,2.58,4.05,1.62,5.5-.71,1.06-1.71,1.9-3.09,.48-5.53-5.67-12.61-6.29-20.18-5.41-3.97,.46-7.82-.09-11.26-2.16-2.39-1.43-4.81-2.8-7.82-4.16Z"/>
  <path class="cls-6" d="M168.92,107.63c6.3-2.21,12.3-2.4,18.43-1.5,7.84,1.15,15.2,3.45,21.78,7.71,1.58,1.02,2.25,4.19,1.11,5.55-.85,1.02-1.77,1.38-2.95,.16-4.98-5.16-11.39-6.33-18.39-5.41-4.43,.58-8.47,.06-12.24-2.41-2.31-1.51-4.91-2.62-7.74-4.11Z"/>
  <path class="cls-6" d="M257.81,157.23c0-.64,.04-1.29,0-1.93-.08-1.24,.36-1.84,1.78-1.47,1.11,.29,2.37,.34,3.29-.13,2.23-1.12,3.16,0,4.23,1.57,3.82,5.58,7.18,11.35,8.7,17.91,.77,3.3,.28,3.85-3.29,3.89-3.82,.05-5.31-.86-6.84-4.26-1.25-2.76-2.8-5.4-4.89-7.63-2.2-2.34-3.14-4.92-2.97-7.96Z"/>
  <path class="cls-6" d="M162.21,126.79c2.84,.62,5.68,1.26,8.52,1.84,1.1,.22,1.46,1.01,1.87,1.8,2.27,4.35,4.21,8.82,5.28,13.57,.3,1.32,1.4,2.87-.34,3.97-1.84,1.16-3.98,1.84-6.08,.76-2.24-1.15-4.26-2.6-5.54-4.82-2.83-4.88-4.2-10.17-5.41-15.53-.33-1.46,.38-1.71,1.7-1.59Z"/>
  <path class="cls-6" d="M104.15,106.52c5.68-2.21,11.25-2.27,16.81-1.63,8.31,.96,16,3.62,22.8,8.32,1.45,1,2.27,3.81,1.37,5.14-.66,.98-1.71,1.55-2.74,.43-5.35-5.78-12.28-6.32-19.79-5.7-3.45,.28-6.95-.2-10.07-2.1-2.57-1.56-5.33-2.85-8.38-4.45Z"/>
  <path class="cls-6" d="M194.05,156.36c4.54,4.48,7.71,9.66,8.98,15.77,.56,2.71,.14,3.09-2.8,3.05-3.07-.04-5.39-1.55-7.38-3.52-4.03-3.99-5.99-9.21-8.98-13.81-.57-.88-.5-2.2-.47-3.31,.04-1.18-.19-3.29,.52-3.37,1.64-.17,3.61-.32,5.12,.88,.53,.42,1.03,.85,1.77,.87-.2,1.17,1.15,1.75,1.16,2.98,.01,1.6,1.05,1.54,2.07,.47Z"/>
  <path class="cls-6" d="M193.6,130.39c-.45-3.39-.44-3.42,3.17-2.72,2.01,.39,3.99,.95,5.99,1.4,1.11,.25,1.68,.94,2.16,1.87,2.29,4.42,4.28,8.94,5.32,13.77,.27,1.25,1.36,2.68-.3,3.74-1.75,1.12-3.67,1.78-5.82,.96-2.53-.96-4.05-2.9-5.38-5-1.62-2.57-2.38-5.49-3.7-8.18-.31-1.14-.61-2.27-.92-3.41,.02-.06,.09-.14,.07-.18-.06-.11-.15-.21-.22-.32,.05-.67,0-1.32-.36-1.92Z"/>
  <path class="cls-6" d="M94.6,130.69c-.73,4.09-1.02,9.2-5.06,13.19-.98,.97-.78,2.75-2.73,3.19-2.43,.55-4.77,.38-7.16,0-1.26-.2-1.75-.63-1.35-1.96,1.56-5.2,3.05-10.42,4.45-15.66,.27-1.01,.88-1.26,1.76-1.44,2.02-.42,4.02-.9,6.04-1.28,4.05-.75,4.06-.72,4.04,3.96Z"/>
  <path class="cls-6" d="M242.43,150.32c-4.06,0-6.2-1.94-8.04-4.08-4.35-5.04-6.56-11.07-8.57-17.17-.35-1.07,.23-1.29,1.19-1.16,3.26,.43,6.31,1.57,9.37,2.62,.46,.16,.8,.82,1.04,1.31,1.98,3.94,4.29,7.71,6.78,11.38,.86,1.27,1.95,2.4,2.97,3.57,.76,.87,.79,1.56-.42,2.06-1.64,.68-3.27,1.41-4.33,1.46Z"/>
  <path class="cls-6" d="M129.47,126.36c3.1,.29,5.78,1.19,8.54,1.79,1.09,.24,1.42,1.13,1.83,1.9,2.26,4.27,4.15,8.67,5.19,13.34,.3,1.35,1.48,3.02-.51,4.14-2,1.12-4.1,1.69-6.34,.51-1.38-.72-2.48-1.74-3.37-2.94-3.91-5.31-5.34-11.45-6.63-17.63-.28-1.34,.64-1.21,1.28-1.11Z"/>
  <path class="cls-6" d="M127.22,132.76c.06,4.84-1.31,9.42-2.89,13.95-.53,1.53-1.57,2.27-3.33,1.85-1.25-.29-2.56-.44-3.73-.9-1.75-.68-2.83-1.78-2.99-3.81-.38-4.84,.35-9.48,2.09-14.03,.32-.82,.72-1.41,1.69-1.62,2.35-.5,4.69-1.02,7.02-1.58,1.27-.31,1.74,.22,1.82,1.32,.1,1.61,.22,3.21,.34,4.82Z"/>
  <path class="cls-6" d="M299.79,128.02c.14,2.79-1.08,5.19-2.39,7.57-2.22,4.02-4.45,8.02-8.4,10.87-2,1.44-3.66,1.55-5.63-.26-3.56-3.28-3.58-3.12-.65-7.01,4.07-5.41,7.98-10.91,14.13-14.56,2.22-1.32,2.27-1.44,2.7,.99,.14,.79,.16,1.61,.24,2.41Z"/>
  <path class="cls-6" d="M201.72,159.52c.19-2.42,.37-4.83,.57-7.25,.1-1.29,.39-2.16,2.19-1.52,1.59,.56,3.36,.33,4.74-.53,2.08-1.3,2.4-.15,2.75,1.37,1.12,4.91,.79,9.8-.14,14.68-.43,2.22-.93,4.43-1.45,6.64-.5,2.11-2.28,3.21-4.49,2.95-.79-.1-1.5-.42-1.44-1.11,.39-4.49-2.53-8.39-2.49-12.8,0-.81-.09-1.61-.14-2.42-.04,0-.07,0-.11,0Z"/>
  <path class="cls-6" d="M192.43,135.27c-.45,4.25-1.49,8.37-2.99,12.41-.74,1.99-1.96,2.39-3.93,1.93-5.53-1.29-6.58-2.66-5.84-7.99,.57-4.13,2.19-7.92,4.41-11.5,.64-1.04,6.06-2.99,7.17-2.5,1.32,.59,.56,2.05,1.17,2.97,.03,.81,.06,1.62,.09,2.43,0,.26-.01,.52-.02,.79-.02,.48-.04,.97-.06,1.45Z"/>
  <path class="cls-6" d="M159.56,133.28c0,4.91-1.35,9.56-3.01,14.14-.5,1.37-1.46,1.99-3.15,1.85-4.92-.39-6.91-2.42-6.66-6.96,.25-4.54,2.05-8.6,4.36-12.5,.7-1.18,6.13-3.1,7.34-2.72,.75,.23,.72,.81,.76,1.37,.12,1.61,.24,3.21,.36,4.82Z"/>
  <path class="cls-6" d="M224.58,134.75c-.17,4.12-.64,8.2-2.26,12.09-1.54,3.69-2.03,3.92-6.07,2.92-3.39-.85-4.34-1.96-4.36-5.29-.03-5.18,2.06-9.76,4.74-14.14,.45-.74,5.93-2.4,6.87-2.2,.8,.17,.76,.78,.85,1.31,.1,.64,.2,1.28,.22,1.93,.03,1.13,0,2.26,0,3.39Z"/>
  <path class="cls-3" d="M259.95,76.53c-.12,.69-1.25,.28-1.18,1.09,.9,.57,2.36-.67,2.78,.41,.49,1.23,.46,2.69,.43,4.05-.03,1.05-1.08,.81-1.81,.83-3.35,.09-6.71,.07-10.06,.25-3.05,.16-3.47,1.07-1.9,3.45,.61,.93,2.03,1.88,1.43,2.91-.67,1.13-2.35,.52-3.59,.56-3.4,.11-6.69-.47-9.79-1.77-1.63-.68-3.62-1.34-3.81-3.24-.2-2.03,1.73-3.04,3.3-3.99,2.25-1.36,4.72-2.34,7.35-2.85,5.14-.99,10.34-1.57,15.56-2.09,.42-.04,.86-.14,1.27,.41Zm-5.74,1.9c-.04-.27-.07-.53-.11-.8-2.24,.32-4.52,.52-6.73,.99-3.33,.71-6.71,1.41-9.54,3.38-1.83,1.27-2.21,2.77-.81,3.75,1.54,1.08,3.32,1.73,5.46,1.6-.51-1.26-1.65-.95-2.43-1.3-.97-.44-2.43-.57-2.61-1.69-.2-1.21,1.19-1.66,2.11-2.17,1.85-1.03,3.89-1.66,5.98-2.09,2.88-.59,5.78-1.12,8.67-1.68Z"/>
  <path class="cls-6" d="M264.67,120.23c.23,.93,1.19,1.09,1.87,1.54,1.49,.98,2.9,2.04,3.89,3.49,.92,1.34,1.59,2.9,.55,4.31-1.05,1.42-2.84,.7-4.04,.21-5.76-2.31-11.51-2.39-17.37-.49-.48,.15-1.02,.17-1.54,.16-1.63-.04-3.68,.73-4.39-1.45-.68-2.06,.19-3.89,1.92-5.15,1.47-1.08,3.18-1.87,4.83-2.71,.62-.32,1.33-.45,1.16-1.32,.3-.02,.59-.04,.89-.06,3.09,3.47,6.85,2.43,10.61,1.37,.54,.03,1.09,.07,1.63,.1Z"/>
  <path class="cls-4" d="M249.8,115.42c-3.98-2.31-7.61-5.11-11.83-7.13,4.41-4.37,16.46-4.51,24.89,1.31,2.33,4.32,.92,6.97-4.28,7.77-1.38-.27-2.86,.33-4.17-.46,.15-.07,.31-.14,.44-.23,.04-.03,.03-.21,0-.22-1.6-.68-3.2-1.41-5.05-1.05Z"/>
  <path class="cls-5" d="M261.16,93.52c1.91-2.86,2.58-2.94,4.57-.4,3.21,4.1,7.35,6.94,12.51,8.53,2.69,.83,5.42,1.62,7.84,3.05,2.76,1.63,2.72,3.09-.15,4.48-5.32,2.57-10.79,2.13-16.3,.57-.02-5-2-9.21-5.29-13.13-.99-1.17-2.88-1.43-3.18-3.1Z"/>
  <path class="cls-6" d="M185.38,98.02c5.29,.17,9.88,.95,13.73,3.93,.49,.38,1.33,.7,1.16,1.44-.15,.62-1,.46-1.49,.73-3.64,2.01-7.34,1.42-11.31,.81-6.3-.98-12.68-.93-18.76,1.51-.62,.25-1.29,.58-1.94,.57-1.35-.02-3.03-.13-3.65-1.21-.44-.76,1.05-1.5,1.83-2.06,4.4-3.24,9.7-4.27,15.02-5.2,1.93-.34,3.93-.38,5.42-.51Z"/>
  <path class="cls-6" d="M107.71,148.11c-2.52-.17-4.37-2.19-5.92-4.47-2.53-3.71-3.85-7.9-4.92-12.13-.41-1.64-1.55-3.42-.55-5,.58-.91,7.65,1.51,8.52,2.98,3.05,5.14,5.49,10.55,8.09,15.9,.36,.75,.02,1.21-.64,1.6-1.2,.7-2.49,1.09-4.58,1.12Z"/>
  <path class="cls-6" d="M258.82,138.9c.02,3.67,.07,6.88-1.24,9.96-.91,2.13-2.48,3.28-4.96,2.91-2.27-.34-2.38-2.18-2.77-3.82-1.36-5.6-.28-10.98,1.41-16.37,.83-2.66,3.29-2.04,5.07-2.37,1.76-.33,1.3,1.55,1.48,2.49,.47,2.53,.73,5.1,1.02,7.21Z"/>
  <path class="cls-6" d="M130.82,105.21c12.36-6.18,25.12-9.62,39.23-5.77-3.42,1.12-6.05,3.21-8.46,5.59-.63,.62-1.44,.35-2.19,.2-8.37-1.73-16.66-2.32-24.76,1.19-1.43,.62-2.56-.49-3.82-1.2Z"/>
  <path class="cls-6" d="M137.03,100.64c-2.93,1.19-5.53,2.24-7.74,3.95-.84,.65-1.87,.2-2.75,0-8.05-1.72-16.03-2.09-23.81,1.11-1.41,.58-2.48-.39-3.64-.74-.94-.28-.2-.92,.23-1.24,2.56-1.93,5.18-3.65,8.63-4.05,7.54-.87,15.07-1.65,22.66-.65,2.05,.27,4.08,.58,6.41,1.6Z"/>
  <path class="cls-6" d="M259.12,129.1c2.87,.35,5.47,1.4,8.17,2.09,.61,.16,.97,.65,1.19,1.2,1.59,4,4.81,6.81,8.03,9.6,1.23,1.06,1.38,1.86,.25,2.97-.41,.4-.72,.9-1.08,1.35-2.52,3.22-3.77,3.26-6.41,.19-2.32-2.69-9.44-14.84-10.14-17.39Z"/>
  <path class="cls-6" d="M302.16,115.81c-.15,2.11-.99,3.89-2.79,5.24-3.22,2.42-6.45,4.84-9.61,7.33-.76,.6-1.33,.8-2.28,.37-1.78-.81-3.59-1.58-5.59-1.81-.45-.05-.8-.18-.96-.65-.71-2.05,2.09-6.06,4.35-6.08,5.49-.05,9.96-2.15,13.78-5.74,.67-.63,1.06-1.77,2.33-1.66,.34,.03,.79,1.95,.77,3Z"/>
  <path class="cls-6" d="M311.48,158.9c-.4,3.47-1.61,6.62-5.24,8.48-.52,.27-.99,.63-1.5,.94-4.64,2.86-5.28,2.7-8.05-1.71-.49-.78-.08-1.19,.37-1.68,3.59-3.89,7.16-7.78,10.19-12.08,.75-1.06,1.21-.76,1.93-.02,1.65,1.7,2.36,3.69,2.31,6.08Z"/>
  <path class="cls-6" d="M288.81,162.76c4.79,2.48,8.92,5.33,10.89,10.24,.96,2.4,.49,3.38-1.99,4.3-3.1,1.15-10.61-.85-12.59-3.33-.44-.56-.33-1.04-.05-1.56,1.59-3.02,2.67-6.23,3.75-9.65Z"/>
  <path class="cls-6" d="M257.24,177.73c-1.38-.02-2.55-.27-3.68-.69-2.97-1.09-3.14-1.53-1.73-4.15,1.44-2.67,2.43-5.51,3.13-8.41,.39-1.62,1.07-1.93,2.32-.91,3.58,2.93,5.83,6.7,7.59,10.77,.39,.9-.45,1.17-.96,1.44-2.11,1.13-4.4,1.8-6.68,1.94Z"/>
  <path class="cls-5" d="M279.13,83.95c4.28,0,4.27,0,3.99,4.17-.22,3.37-.28,6.77-1.86,9.9-1.18,2.34-2.77,2.77-4.91,1.53-.63-.37-.82-.71-.64-1.35,1.15-3.99,.69-8.01-.22-11.91-.56-2.41,.4-2.58,2.35-2.35,.42,.05,.86,0,1.28,0Z"/>
  <path class="cls-4" d="M246.8,103.98c-3.56,0-6.76,1-9.74,2.85-1.75,1.09-3.26-.38-4.67-1.07-.85-.42,.14-1.09,.53-1.51,2.85-3.03,6.72-3.93,10.75-4.49,3.94,0,7.88,0,11.82,0q2.85,.42,1.39,2.64c-.31,.47-.6,.95-.89,1.42-3.06,.16-6.14-.42-9.19,.16Z"/>
  <path class="cls-6" d="M303.82,155.32c-1.29-5.24-4.2-8.99-7.51-12.45-1.31-1.37-.32-2.18,.25-3.16,2.55-4.39,2.81-4.4,6.3-.41,2.59,2.96,3.8,6.44,4.14,10.2,.21,2.35-1.74,3.64-3.17,5.82Z"/>
  <path class="cls-6" d="M289.17,158.19c.19-2.74-.54-5.26-1.87-7.69-.25-.46-1.55-1.21-.22-1.68,1.04-.37,2.18-1.78,3.43-.35,2.83,3.26,5.51,6.6,7.23,10.55,1.08,2.5-.61,3.94-2.06,5.53-.15,.16-.53,.37-.65,.3-1.84-1.03-3.69-2.05-5.45-3.19-.94-.61-.37-1.64-.41-2.5-.02-.32,0-.65,0-.97Z"/>
  <path class="cls-13" d="M263.04,120.13c-3.76,1.06-7.52,2.1-10.61-1.37-.41-1.34,.31-1.16,1.31-.98,2.12,.37,4.16,1.7,6.43,.54,4.94-2.21,6.52-5,5.21-9.19-.21-.2-.42-.39-.62-.59,.4-.45,.77-.76,.7-1.57-.3-3.31-2.04-5.8-4.56-7.94-1.28-.49-1.64-1.8-2.61-2.56-.94-.73-.94-1.41-.09-2.22,1.08-1.04,1.49,.12,2.03,.54,6.22,4.84,9.15,10.96,8.15,18.59-.84,2.9-2.47,5.25-5.34,6.74Z"/>
  <path class="cls-6" d="M259.67,134.19c1.58,1.47,2.12,3.1,2.99,4.52,1.84,3,3.54,6.07,5.8,8.83,.36,.44,.83,.74,.39,1.45-1.34,2.15-7.42,4.34-9.92,3.5-.84-.28-1.68-.52-.96-1.67,2.79-4.45,2.24-9.31,1.9-14.13-.05-.7-.11-1.4-.2-2.49Z"/>
  <path class="cls-6" d="M279.16,127.86c2.58,.16,5.06,.74,7.39,1.84,.36,.17,.82,.28,.91,.77,.19,1-3.31,4.5-4.4,4.31-3.37-.59-6.58-.34-9.84,.86-2.35,.86-2.09-1.73-3.02-2.73-.78-.84-.13-1.05,.68-1.64,2.48-1.83,4.85-3.64,8.27-3.4Z"/>
  <path class="cls-5" d="M284.59,90.84c6.31,1.55,9.49,10.16,5.45,14.55-.54,.58-.81,.29-1.18-.1-1.83-1.95-4.32-2.86-6.81-3.75-.57-.21-1.65-.28-.8-1.21,2.5-2.74,2.49-6.24,3.34-9.48Z"/>
  <path class="cls-6" d="M89.11,177.79c-2.33-.04-4.36-.86-6.07-2.27-1.64-1.35-2.7-2.91-1.16-5,.42-.58,.61-1.32,.83-2.01,.83-2.59,1.23-2.79,3.51-1.25,2.48,1.67,4.82,3.49,6.1,6.26,1.44,3.14,.58,4.37-3.2,4.29Z"/>
  <path class="cls-6" d="M184.52,161.53c1.36,2.28,2.69,4.58,4.08,6.85,.94,1.53,2.11,2.91,3.35,4.25,1.44,1.55,.83,3.4-1.31,3.86-3.31,.71-6.18-.74-9.07-1.94-.52-.22-.44-.58-.2-.99,2.13-3.72,2.53-7.78,3.15-12.03Z"/>
  <path class="cls-6" d="M299.42,160.08c-1.48-4.69-4.39-8.34-7.48-11.9-.44-.51-1.35-1.07-.65-1.85,1.02-1.15,2.19-2.18,3.34-3.21,.04-.04,.69,.41,.95,.71,2.41,2.73,4.54,5.62,6.12,8.87,1.45,2.99,.45,5.26-2.28,7.38Z"/>
  <path class="cls-5" d="M257.47,98.46c-3.09-2.23-5.58-4.86-6.09-8.66-.18-1.37-.88-2.44-1.74-3.44-1.4-1.61-.61-2.03,1.14-2.06,1.38-.02,2.75-.08,4.12-.11,1.04-.02,1.72,.36,2.25,1.28,.89,1.56,1.89,3.08,3.01,4.5,.88,1.12,.58,1.9-.37,2.7-1.84-.53-2.54,.88-3.42,1.85-.98,1.07,.18,1.69,.78,2.38,.42,.48,.44,1,.32,1.56Z"/>
  <path class="cls-6" d="M219.68,178.34c-2.76-.21-5.21-1.29-7.55-2.7-.71-.42-.73-.95-.66-1.65,.59-6.06,1.01-6.27,6.38-3.17,1.9,1.1,3.8,2.23,5.8,3.13,1.96,.88,1.54,1.76,.3,2.8-1.19,1.01-2.6,1.54-4.28,1.59Z"/>
  <path class="cls-6" d="M224.04,151.34c-1.59,.04-2.48-.05-1.33-1.93,1.57-2.56,2.61-5.41,4.11-8.02,1.21-2.12,1.59-2.05,2.7,0,1.02,1.86,2.06,3.71,3.56,5.29,.94,1,.78,1.59-.53,2.13-2.75,1.13-5.43,2.41-8.5,2.53Z"/>
  <path class="cls-6" d="M248.01,145.17c-3.76-3.37-5.72-7.37-7.94-11.19-.49-.84,.13-1.1,.87-1.33,2.42-.75,4.89-.85,7.4-.66,1.23,.09,1.24,.67,.95,1.65-1.07,3.64-1.63,7.36-1.27,11.53Z"/>
  <path class="cls-6" d="M94.62,148.6c-3.39,.05-4.21-1.2-3.02-3.82,1-2.18,2.24-4.12,4.43-5.44,1-.6,1.72-.88,2.28,.55,.73,1.88,1.68,3.69,2.99,5.3,.64,.79,.5,1.2-.43,1.61-2.1,.93-4.26,1.63-6.24,1.81Z"/>
  <path class="cls-6" d="M124.4,177.37c-3.02-.36-5.37-1.68-7.56-3.24-1.51-1.08-.42-2.58-.27-3.82,.43-3.49,1.48-3.83,4.44-1.57,2.48,1.9,3.75,4.52,4.73,7.29,.53,1.49-.64,1.3-1.35,1.34Z"/>
  <path class="cls-6" d="M234.31,149.32c-.17,4.44-.72,8.52,.09,13.31-3.42-3.76-6.26-7.1-10.38-9.94,3.9-.54,6.92-1.79,10.3-3.37Z"/>
  <path class="cls-6" d="M154.63,176.54c-1.03-.11-1.99-.13-2.9-.33-3.04-.65-3.62-1.51-3.09-4.35,.12-.63,.22-1.27,.3-1.91,.31-2.47,1.35-2.96,3.64-1.54,2.56,1.58,4.16,4,4.83,6.64,.59,2.34-1.93,.85-2.79,1.49Z"/>
  <path class="cls-6" d="M199.22,147.38c0,.57-.46,.74-.8,.88-2.18,.92-4.37,1.79-6.57,2.67-.6,.24-1.23,.18-1.68-.23-.57-.52-.01-.94,.2-1.45,.95-2.31,1.74-4.67,2.72-6.97,.33-.77,.83-1.82,1.86-1.77,.97,.05,.92,1.22,1.31,1.89,.79,1.33,1.5,2.7,2.27,4.03,.2,.35,.48,.65,.69,.94Z"/>
  <path class="cls-6" d="M158.61,150.42c-.86,.12-1.1-.33-.93-.99,.74-2.96,1.4-5.95,3.2-8.55,.8-1.15,1.56-1.47,2.17,.25,.43,1.21,1.12,2.34,1.79,3.46,1.64,2.75,1.67,2.75-1.42,4.2-1.53,.72-3.07,1.4-4.79,1.64Z"/>
  <path class="cls-6" d="M126.5,149.87c-.88,.13-1.43-.21-1.17-1.05,.88-2.85,1.48-5.79,3.2-8.35,.81-1.2,1.53-1.45,2.23,.16,.62,1.41,1.2,2.92,2.21,4.07,1.7,1.94,.72,2.66-1.22,3.28-1.78,.57-3.33,1.68-5.26,1.89Z"/>
  <path class="cls-6" d="M274.23,118.27c2.07,.76,3.56,1.86,4.37,3.68,1.52,3.42,1.12,4.26-2.65,4.98-1.06,.2-2.35,1.42-2.97,.75-.88-.95-1.01-2.5-1.79-3.68-.37-.56,.3-.8,.63-1.14q1.84-1.9,2.41-4.6Z"/>
  <path class="cls-6" d="M112.37,141.07c-1.58-3.1-3.17-6.2-4.73-9.31-.27-.53-.4-1.16,.27-1.5,1.94-.97,4.04-1.46,6.22-1.11,1.19,.19,.67,1.12,.46,1.76-1.09,3.25-1.81,6.55-2.22,10.16Z"/>
  <path class="cls-6" d="M235.52,163c-.41-4.31-.4-8.37,.05-12.44,.03-.32,.13-.62,.54-.72,1.16-.3,4.35,2.34,4.17,3.45-.76,4.71-1.91,7.13-4.76,9.71Z"/>
  <path class="cls-6" d="M210.76,140.84c-1.19-2.82-2.13-5.13-3.15-7.42-.41-.93-.18-1.54,.72-2.01,.75-.39,1.45-.95,2.25-1.17,1.37-.38,3.14-1.3,4.15-.34,.96,.91-.71,2.07-1.17,3.11-1.07,2.38-1.94,4.81-2.81,7.81Z"/>
  <path class="cls-6" d="M178.45,140.21c-1.27-2.93-2.3-5.34-3.36-7.74-.25-.56-.03-.94,.43-1.24,.63-.41,1.24-.9,1.94-1.18,1.58-.62,3.61-1.69,4.85-.67,1.1,.9-.77,2.34-1.29,3.53-.96,2.21-1.75,4.46-2.58,7.3Z"/>
  <path class="cls-6" d="M145.6,139.79c-1.21-2.86-2.28-5.37-3.33-7.88-.32-.78,.28-1.14,.85-1.54,1.56-1.09,3.3-1.62,5.23-1.77,1.63-.13,1.75,.39,1.04,1.61-1.68,2.89-2.91,5.96-3.8,9.59Z"/>
  <path class="cls-7" d="M134.65,161.06c-1.77-1.71-2.23-3.27-2.11-5.16,.1-1.41-.18-2.9-.6-4.26-.76-2.45,1.02-3.09,2.79-3.68,1-.33,1.75,.19,1.45,1.27-1.03,3.73-1.59,7.51-1.54,11.83Z"/>
  <path class="cls-7" d="M273.01,161.93c-2.01-2.98-3.99-5.93-5.98-8.87-.39-.58-.36-1.1,.32-1.4,1.27-.55,1.85-2.29,3.53-2.01,1.07,.18,.89,1.16,.89,1.98-.02,2.98,.08,5.94,1.54,8.7,.24,.46,.42,1.05-.31,1.59Z"/>
  <path class="cls-6" d="M279.49,135.71c.34,0,.69-.04,1.03,0,.83,.13,1.97-.15,2.38,.57,.44,.79-.59,1.39-1.05,2.01q-3.22,4.27-6.93,.49c-1.76-1.8-1.72-2.03,.77-2.65,1.23-.31,2.52-.4,3.78-.59,0,.05,.01,.11,.02,.16Z"/>
  <path class="cls-6" d="M102.38,160.61c-1.53-1.4-2.22-2.54-2.06-4.15,.2-2.02-.2-4.02-.63-6-.33-1.52,1.91-3.48,3.46-3.05,1,.27,.92,.98,.67,1.76-1.14,3.58-1.41,7.27-1.44,11.44Z"/>
  <path class="cls-6" d="M200.6,162.25c-1.72-2.12-2.86-3.61-2.64-5.85,.15-1.56-.33-3.19-.65-4.76-.18-.91-.15-1.54,.91-1.91,.85-.3,1.6-1.23,2.56-.72,1.06,.57,.47,1.63,.32,2.43-.61,3.35-.59,6.72-.51,10.81Z"/>
  <path class="cls-7" d="M167.81,162.07c-1.98-1.96-2.29-3.56-2.14-5.43,.16-1.99,.01-4.03-.22-6.03-.21-1.73,.96-2.2,2.26-2.26,1.75-.07,1.36,1.19,1.25,2.26-.38,3.64-1.91,7.13-1.15,11.46Z"/>
  <path class="cls-6" d="M274.27,159.12c-1.31-2.6-1.28-5.18-1.23-7.76,.03-1.69,1.91-1.89,2.77-2.92,.32-.38,.65,.06,.86,.48,1.48,2.96,.5,7.5-2.4,10.21Z"/>
  <path class="cls-4" d="M268.95,114.52c.03-.19,.06-.37,.1-.56,1.59,.68,2.29,2.06,3.03,3.4,.97,1.76,.4,3.21-1.1,4.47-1.56,1.31-2.15-.46-3.17-.86-.37-.15-.67-.47-1-.71,.12-2.11,2.36-3.52,2.14-5.74Z"/>
  <path class="cls-7" d="M214.33,161.01c1.5,3.65,3.58,6.45,5.62,9.27-7.1-3.35-7.7-4.33-5.62-9.27Z"/>
  <path class="cls-6" d="M194.05,156.36c-1.02,1.07-2.06,1.13-2.07-.47-.01-1.24-1.36-1.81-1.16-2.98,1.07-1.15,2.71-1.1,4.05-1.68,.78-.34,.98,.23,1.19,.81,.51,1.39,.44,2.83,.64,4.42-1.42-.18-1.76-1.33-2.58-1.88-.49-.33-.89-1.37-1.6-.67-.66,.66,.46,1,.78,1.5,.22,.34,.5,.64,.75,.96Z"/>
  <path class="cls-7" d="M158.86,151.83q5.52-2,5.61,3.22c0,.6,.34,1.27-.43,1.9-1.69-1.67-3.36-3.32-5.18-5.12Z"/>
  <path class="cls-7" d="M99.02,155.98c-.46-.34-.69-.46-.84-.64-1.51-1.7-3-3.41-4.46-5.08,.1-.18,.12-.29,.17-.3,4.64-.78,5.35,.02,5.13,6.01Z"/>
  <path class="cls-2" d="M265.38,109.13c1.31,4.19-.27,6.98-5.21,9.19-.67-.12-1.54,.08-1.6-.94,5.2-.8,6.62-3.46,4.28-7.77,.99,.54,1.95,.91,2.52-.48Z"/>
  <path class="cls-4" d="M263.72,108.3c-1.75-.84-3.51-1.66-5.25-2.52-.55-.27-1.48-.38-1.15-1.3,.27-.76,.57-1.61,1.34-2,.76-.38,1.27,.36,1.68,.79,1.18,1.26,2.27,2.61,3.39,3.93,0,.37-.01,.73-.02,1.1Z"/>
  <path class="cls-7" d="M102.42,177.11c-1.36-.08-2.72-.16-4.08-.23-2.29-.72-4.27-1.77-5.05-4.19,1.69-.27,2.61,1.05,3.89,1.55,1.8,.7,3.58,1.46,5.38,2.18,1.1,.44,.26,.53-.13,.7Z"/>
  <path class="cls-7" d="M131.05,156.27c-1.61-1.75-3-3.25-4.5-4.88,1.27-.59,3.07-1.7,3.64-.92,1.11,1.51,1.34,3.58,.86,5.8Z"/>
  <path class="cls-7" d="M79.36,148.41q4.92,.24,3.17,4.95c-1.05-1.64-2.03-3.18-3.17-4.95Z"/>
  <path class="cls-7" d="M84.33,160.21c1.03,1.99,1.99,3.87,3.03,5.89q-4.21-1.41-3.03-5.89Z"/>
  <path class="cls-4" d="M255.5,99.76c-3.94,0-7.88,0-11.82,0,3.94-.96,7.88-1.05,11.82,0Z"/>
  <path class="cls-7" d="M225.43,140.64c.16-2.23,.29-4,.44-6.08,2.49,3.18,2.47,3.52-.44,6.08Z"/>
  <path class="cls-7" d="M95.69,132.97c2.07,4.6,1.97,4.95-1.36,5.15,.44-1.66,.87-3.29,1.36-5.15Z"/>
  <path class="cls-10" d="M278.69,74.86c3.39-.63,6.76-1.51,10.22-.32-3.39,.33-6.79,.66-10.18,.99-.01-.22-.02-.44-.03-.67Z"/>
  <path class="cls-7" d="M117.5,161.78c.95,1.74,1.67,3.05,2.42,4.44q-3.14-.04-2.42-4.44Z"/>
  <path class="cls-13" d="M192.43,135.27c.02-.48,.04-.97,.06-1.45,.25-.26,.27-.52,.02-.79-.03-.81-.06-1.62-.09-2.43,.39-.07,.79-.14,1.19-.21,.35,.6,.41,1.25,.36,1.92,.05,.17,.11,.34,.16,.5,.31,1.14,.61,2.27,.92,3.41-1.01,.03-1.49-1.25-2.61-.95Z"/>
  <path class="cls-7" d="M238.64,131.29c1.87,.47,3.14-2.66,5.69-.75-2.14,.48-3.77,1.48-5.69,.75Z"/>
  <path class="cls-8" d="M246.8,103.98c3.05-.59,6.13,0,9.19-.16-.14,1.32-1.15,.96-1.89,.76-2.4-.65-4.86-.53-7.3-.6Z"/>
  <path class="cls-7" d="M110.83,127.85c-1.51,.64-2.56,1.09-3.62,1.52-.58,.24-1.08,.04-1.19-.52-.11-.57,.49-.62,.86-.58,1.2,.13,2.15-1.04,3.95-.42Z"/>
  <path class="cls-7" d="M209.34,129.25c-.77,.7-1.64,1.36-2.7,1.63-.41,.1-.86-.44-.7-.8,.49-1.06,1.74-1.06,2.7-1.46,.3-.13,.59,.22,.7,.62Z"/>
  <path class="cls-7" d="M256.08,158.11c-1.29-1.52-.93-2.83-1.51-3.88-.2-.36-.06-.82,.43-.96,.61-.16,1.02,.19,1.05,.71,.06,1.18,.02,2.36,.02,4.12Z"/>
  <path class="cls-7" d="M141.69,129.88c-.64-.11-1-.51-.91-.84,.34-1.21,1.82-.86,2.62-1.5,.18-.14,.78,.13,.66,.5-.38,1.12-1.7,1.17-2.37,1.84Z"/>
  <path class="cls-7" d="M174.79,130.35c-.9,.02-1.39-.4-1.22-.84,.4-.99,1.69-.82,2.49-1.35,.43-.29,1.01,.26,.81,.49-.64,.7-1.48,1.23-2.08,1.7Z"/>
  <path class="cls-11" d="M254.4,116.92c-1.5-.02-2.92-1.1-4.48-.29-.04-.4-.09-.81-.13-1.21,1.85-.36,3.44,.37,5.05,1.05,.03,.01,.04,.19,0,.22-.13,.1-.29,.16-.44,.23Z"/>
  <path class="cls-7" d="M128.31,134.74c.92,1.41,1.6,2.32,.98,3.49-.17,.33-.87,.69-1.08,.4-.8-1.12,.11-2.22,.1-3.89Z"/>
  <path class="cls-7" d="M160.61,135.81c.85,.83,1.68,1.69,.9,2.88-.14,.21-.77,.42-.83,.36-.92-1,.03-2.12-.07-3.24Z"/>
  <path class="cls-7" d="M126.74,173.55c2.55,.87,2.6,1.09,.66,2.74-.7-.66-.71-1.59-1.04-2.39,.13-.12,.25-.23,.38-.35Z"/>
  <path class="cls-7" d="M280.5,122.41c-.7-.78-1.57-1.45-1.02-2.46,.1-.18,1.08-.18,1.42,.04,1.36,.9-.4,1.57-.4,2.42Z"/>
  <path class="cls-7" d="M158.38,173.32c1.13,.74,2.38,.89,2.58,2.07,.05,.32-.62,.55-1.04,.49-1.44-.23-1.36-1.28-1.54-2.56Z"/>
  <path class="cls-7" d="M110.59,122.15c-.22-.76-1.48-1.32-.4-2.17,.3-.23,.92-.44,1.14-.08,.55,.92-.39,1.49-.74,2.25Z"/>
  <path class="cls-11" d="M246.2,55.66c-.4-.21-1-.26-.88-.91,.6,.05,.85,.38,.88,.91Z"/>
  <path class="cls-11" d="M122.49,126.03c.66-.39,1.37-.53,2.14-.45-.59,.69-1.39,.44-2.14,.45Z"/>
  <path class="cls-11" d="M85.8,103.99c-.55-.06-1.1-.12-1.65-.18,.57-.08,1.14-.17,1.65,.18Z"/>
  <path class="cls-11" d="M242.04,39.24c-.25-.26-.39-.54-.22-.9,.07,.3,.15,.6,.22,.9Z"/>
  <path class="cls-9" d="M126.36,173.9c-.16-.21-.73-.3-.39-.64,.24-.25,.61-.05,.77,.29-.13,.12-.25,.23-.38,.35Z"/>
  <path class="cls-11" d="M239.7,25.15c-.12-.13-.13-.28-.04-.43,.05,.1,.11,.19,.13,.29,0,.04-.06,.09-.1,.14Z"/>
  <path class="cls-9" d="M146.93,173.2c.08-.19,.17-.39,.25-.58,.14,.28,.01,.46-.25,.58Z"/>
  <path class="cls-11" d="M125.83,125.4c.29-.07,.58-.14,.86-.21-.29,.07-.58,.14-.86,.21Z"/>
  <path class="cls-9" d="M249.78,118.29c-.01-.14-.02-.29-.02-.43,.15,.03,.29,.07,.44,.1-.14,.11-.28,.22-.43,.32Z"/>
  <path class="cls-11" d="M98.65,98.5c-.17-.01-.33-.02-.5-.04,.17-.06,.34-.04,.5,.04Z"/>
  <path class="cls-11" d="M85.62,98.04c-.26,.06-.52,.12-.78,.18,.26-.06,.52-.12,.78-.18Z"/>
  <path class="cls-10" d="M309.25,71.95c-.01-.67,.31-.99,1.05-1.07,4.46-.49,8.92-1.02,13.38-1.53,.76-.09,1.41,.07,1.65,.87-5.36,.58-10.72,1.15-16.07,1.73Z"/>
  <path class="cls-10" d="M293.74,73.81c.09-.36-.62-.91-.25-.91,3.68,.04,7.31-2.04,11.02-.25-3.59,.39-7.18,.77-10.76,1.16Z"/>
  <path class="cls-12" d="M194.12,132.81c-.05-.17-.11-.34-.16-.5,.08,.11,.17,.2,.22,.32,.02,.04-.04,.12-.07,.18Z"/>
  <path class="cls-12" d="M192.51,133.03c.24,.27,.23,.53-.02,.79,0-.26,.01-.52,.02-.79Z"/>
  <path class="cls-10" d="M254.2,78.43c-2.89,.56-5.79,1.09-8.67,1.68-2.1,.43-4.13,1.06-5.98,2.09-.92,.51-2.31,.96-2.11,2.17,.19,1.12,1.64,1.26,2.61,1.69,.78,.35,1.92,.04,2.43,1.3-2.14,.12-3.92-.53-5.46-1.6-1.4-.98-1.02-2.48,.81-3.75,2.83-1.97,6.21-2.66,9.54-3.38,2.21-.47,4.48-.67,6.73-.99,.04,.27,.07,.53,.11,.8Z"/>
</svg>