<?xml version="1.0" encoding="UTF-8"?>
<svg id="Layer_1" data-name="Layer 1" xmlns="http://www.w3.org/2000/svg" viewBox="0 0 414 200">
  <defs>
    <style>
      .cls-1 {
        fill: #f7b7d3;
      }

      .cls-2 {
        fill: #00bef2;
      }

      .cls-3 {
        fill: #fff9b8;
      }

      .cls-4 {
        fill: #fff200;
      }

      .cls-5 {
        fill: #fbb040;
      }

      .cls-6 {
        fill: #747273;
      }

      .cls-7 {
        fill: #9ed2f1;
      }

      .cls-8 {
        fill: #b9ad99;
      }

      .cls-9 {
        fill: #d7d0cc;
      }

      .cls-10 {
        fill: #555454;
      }

      .cls-11 {
        fill: #48433c;
      }

      .cls-12 {
        fill: #4b4949;
      }
    </style>
  </defs>
  <path class="cls-11" d="M229.22,181.06c-.81,.13-1.47-.2-2.08-.69,.46-.71,1.23-.52,1.89-.63,3.33,.74,6.65,1.58,10.25,.91-1.35-2.75-3.81-4.27-5.4-6.51-1.04-1.46-2.29-1.93-4.12-2.04-7.47-.43-13.1-3.86-16.14-10.93-.57-1.33-1.59-1.53-2.75-1.67,1.41-1.41,3.2-.25,4.75-.72,2.57-.22,5.14-.46,7.71-.67,1.27-.1,1.7-.43,.97-1.79-.66-1.23-1.89-2.22-1.86-3.8,.04-.72-.25-1.18-1.01-1.26-.16-.03-.24-.13-.25-.29,.14-.43,.28-.87,.41-1.3,2.06,2.43,5.26,2.91,7.8,4.55,1.44,.93,2.3,2.99,4.16,2.91,6.67-.32,12.72,3.95,19.54,2.51,1.04-.22,2.27,.35,3.39,.61,.66,.15,1.36,.46,1.97,.09,4.35-2.62,9.72-2.47,13.85-6.39,2.95-2.81,6.4-5.46,7.87-8.99,1.6-3.85,3.41-7.2,6.4-10,.66-.34,.97-.89,1.01-1.62,2.05-4.43,4.4-8.87-.51-13.03-.14-.12-.31-.29-.35-.46-.77-3.74-3.47-3.4-6.22-2.99-.38,.06-.77,.17-1.15,.14-2.2-.2-2.66,.93-2.21,2.8-.4,.01-.81,.03-1.21,.04-.82-.59,.07-2.61-1.58-2.31-4.14,.75-8.76-.86-11.85,4.28-3.27,5.44-10.61,6.06-14.79,1.55-2.27-2.45-4.38-2.93-7.28-2.43-1.62,.28-3.31,.62-4.9,.41-4.57-.58-7.15,2.06-9.25,5.44-4.42,7.11-15.22,9.6-21.88-.01-.63-.91-1.23-2.12-2.69-2.32,.44,7.5,4.61,12.09,10.76,15.79,1.3,.78,2.46,1.9,2.97,3.47-.54,0-1.08,0-1.61,0-1.16-1.55-2.36-3.05-4.9-3.23,.45,.86,1.05,1.35,.85,2.06l-13.02-.04c2.96-1.17,6.05-1.37,9.13-.87,2.4,.39,2.37-.36,1.54-2.21-2.76-6.15-14.25-8.56-19.97-4.22-5.13,3.89-8.37,9.63-13.87,13.49,5.62,1.64,10.41,.07,15.16-1.77,.66,.28,1.22,.64,1.18,1.48,.09,.13,.11,.28,.05,.43-.08,1.53-.16,3.05-.24,4.58-.15-.46-.39-.91-.44-1.38-.29-2.73-1.41-3.39-4.13-2.36-3.66,1.4-7.61,1.72-11.41,.63-2.01-.58-3.49-.22-5.21,1.06,5.15,5.26,11.25,7.7,18.46,7.46,.12,1.25-.95,1.04-1.62,1.33-4.62-.66-8.93-.26-12.77,2.87-1,.82-2.71,.77-4.1,1.11-.22,.07-.45,.14-.67,.21-2.19,.57-4.4,.83-6.65,.45-.77-.3-1.97,.13-2.1-1.25,2.25-.05,4.49-.1,6.74-.16,.49,.13,.96,.16,1.37-.2,3.41-.81,6.3-2.65,9.65-4.37-2.35-1.29-4.45-2.03-6.01-3.38-2.94-2.55-5.54-3.62-9.64-1.93-4.05,1.67-8.71,1.27-13.11,.21-1.55-.37-2.83,.58-3.46,1.58-.75,1.18,.92,1.65,1.63,2.21,2.84,2.26,6.27,3.5,9.37,5.32-.41,.46-.82,.91-1.23,1.37-.67,.43-1.33,.86-2,1.3-.18-.38-.36-.76-.54-1.14,.33-.45,1.3-.71,.07-1.42-2.22-1.28-4.56-2.52-6.39-4.26-2.19-2.08-3.93-2.01-6.54-.69-5.35,2.7-11.06,4.29-17.02,1.93-1.72-.68-3.62-1.57-4.47,.37-.67,1.5,1.38,2.41,2.61,3.22,5.67,3.7,12.02,4.53,18.6,4.32,.8,.17,1.6,.35,2.62,.57-.86,.34-1.44,.57-2.03,.8-3.3,.03-6.61,.07-9.91,.1-.62-.02-1.25-.04-1.87-.06,.23-1.25-.85-1.07-1.48-1.3-3.2-1.15-6.27-2.6-8.88-4.76-1.36-1.13-2.35-.99-3.83-.3-5.48,2.57-10.89,5.68-17.23,2.08-1.35-.77-2.86,.78-3.6,1.81-.69,.98,1.02,1.28,1.6,1.94,1.99,2.27,4.8,2.96,7.49,3.9-.04,.48-.07,.95-.11,1.43-1.28,.77-2.55,1.55-3.83,2.32-.22-.35-.43-.7-.65-1.05,.6-.6,1.59-.78,1.88-1.79-1.91-1.05-4.37-1.68-5.61-3.27-2.09-2.66-3.95-2.27-6.31-.88-5.63,3.33-11.29,3.59-17,.16-.68-.41-1.55-.6-2.13,.11-.52,.63-.57,1.45,.12,2.07,.86,.77,1.73,1.54,2.67,2.2,5.1,3.56,11.06,3.66,16.93,4.13-.18,1.41-1.27,1.14-2.18,1.16-1.7,.04-3.4,.04-5.11,.06-.48-.02-.96-.04-1.43-.06-.11-.25-.22-.49-.32-.74-.08,.27-.15,.53-.23,.8,0,0,.03-.02,.03-.02-.21,.12-.42,.24-.63,.37-6.53,5.77-13.94,6.47-21.95,3.84-1.03-.34-1.84-.72-1.34-2.02,.72,.25,1.44,.53,2.17,.76,6.4,2.06,12.52,1.63,18.26-2.09,.56-.36,1.27-.63,1.23-1.45-.05-.88-.87-.89-1.46-1.16-1.48-.68-3.36-1.02-4.35-2.15-3.04-3.45-6.22-3.9-9.93-1.34-.2,.06-.39,.12-.59,.18-.41,.12-.83,.24-1.24,.36,0-.4-.01-.8-.02-1.2,7.4-2.82,12.55-8.62,18.76-13.67-3.91-1.02-7.31-.98-10.79-.5-4.36,.6-8.05,2.87-12.04,4.39-.05-.43-.09-.86-.14-1.29,.72-1.36,2.55-1.29,3.6-2.81-1.35,.18-2.38,.32-3.41,.46-.11-.18-.21-.36-.32-.53,.04-.21,.08-.42,.12-.63,0,0,.11-.1,.11-.1,.41-.14,.82-.27,1.23-.41,1.15,0,2.3,0,3.46,0,.52,.46,1.13,.51,1.78,.37,.58-.01,1.15-.03,1.73-.04,.32,.12,.56,.04,.68-.3,5.48,.07,9.64-3.69,14.63-5.09,2.26-.63,4.28-.95,6.39,.21,.93,.51,2.02,1.16,3.02,.68,3.22-1.56,6.93-1.53,10.09-3.29,4.38-2.45,8.69-3.49,14.05-2.44,3.59,.7,8.15-.63,11.55-3.36,3.44-2.77,7.38-3.04,11.45-2,1.58,.41,2.73,.19,4.27-.45,5.22-2.16,10.2-5.03,15.87-6.04,3.03-.54,5.97-.17,8.82,.93,.77,.3,1.74,.59,1.98-.3,.29-1.07,.17-2.3,0-3.42-.15-.98-.98-.64-1.63-.51-1.24,.23-2.48,.41-3.71,.66-.84,.17-1.56,.24-1.67-.91-.09-.97,.38-1.39,1.29-1.54,1.52-.26,3.03-.61,4.54-.92,.77-.16,1.66-.31,1.63-1.3-.04-1.16,.92-2.7-.49-3.42-1.37-.7-2.3,.47-3.04,1.55-1.45,2.12-3.69,2.98-5.97,3.79-1.98,.13-3.95,.26-5.93,.38-2.34-.57-4.24-2.05-6.38-3.02,.31-1.61-1.26-1.62-2-2.37-.6,.49-.08,1.56-.98,1.88-1.76-3.75-1.33-4.49,2.72-4.6,1.25-.03,2.5,.02,3.76,.07,3.48,.12,5.92-1.65,7.09-5.17-1.06-.53-2.38,.3-3.51-.56,1.33-1.36,3.15-.19,4.76-1.47-3.23,.18-6.09-.05-8.87,.84-2.2-.26-4.36-.12-6.48,.56-.39,.05-.79,.1-1.18,.14-.21,.05-.43,.11-.64,.16-1.17,.38-2.85-.65-3.48,1.25-3.02,.35-5.55,1.73-7.68,3.85-1,.99-1.26,2.11-.14,3.26,.72,.74,1.38,1.52,2.07,2.28-.31,.52-.83,.54-1.34,.61-.32-.22-.64-.44-.97-.66-.2-.19-.4-.38-.61-.57-2.65-2.94-1.12-5.61,1.59-7.49,1.33-.92,2.62-2.21,4.11-2.55,3.31-.77,2.13-1.97,.9-3.78-5.32-7.86-9.41-16.39-13.2-25.08-6.65-15.25-12.01-30.96-16.81-46.87-3.15-10.45-6.02-20.98-8.94-31.5-.19-.69-1.81-2.5,.93-2.07,1.46,5.21,2.96,10.4,4.37,15.62,4.16,15.39,9.02,30.55,14.4,45.55,2.94,8.19,6.2,16.26,9.85,24.15,3.32,7.19,6.91,14.26,11.62,20.69,.6,.82,1.07,1.88,2.46,1.69,2.35-.33,4.7-.57,7.47-.9-1.53-1.94-2.83-3.37-3.89-4.96-7.49-11.33-12.97-23.65-17.85-36.29-8.26-21.39-14.69-43.35-20.73-65.43,1.32-.59,1.64,.2,1.95,1.28,3.03,10.67,5.89,21.4,9.21,31.98,3.09,9.86,6.55,19.6,10.08,29.31,3.8,10.44,8.3,20.59,13.64,30.32,2.32,4.22,5.04,8.22,8.14,11.94,1.1,1.32,2.38,1.51,4.06,1.58,5.41,.22,9.03-1.46,11.57-6.78,3.54-7.42,9.55-12.84,17.44-15.54,3.52-1.2,7.27-1.14,10.95,.49,3.92,1.74,7.72,3.53,10.75,6.65-1.25,2.65-2.02-.13-3.02-.27-9.07-8.68-21.83-6.42-28.96,1.37-5.09,5.56-8.55,12.33-12.59,18.67-2.3,3.62-5.3,6.18-10.07,5.29-.57-.11-1.35-.46-1.79,.42,1.82,3.08,4.78,4.75,8.07,4.63,4.27-.16,7.87-2.19,10.68-5.75,3.61-4.56,6.13-9.78,9.49-14.5,3.47-4.87,9.42-8.06,14.57-7.03,3.62,.72,5.66,3.52,7.93,6.01-.38,.7-.03,2.02-1.52,1.74-2.43-6.51-9.96-7.91-15.35-4.02-2.18,1.57-3.53,3.76-4.96,5.91-4.4,6.64-6.22,14-5.97,21.92-.57,2.01,.05,2.69,2.15,2.16,1.3-.33,2.71-.55,4.02-.4,2.71,.31,3.73-.77,3.35-3.39,.18-1.04,.4-2.08,.52-3.13,.54-4.72,1.63-9.32,3.28-13.76,.66-1.78,1.54-3.6,3.94-3.72,2.89-.14,5.78-.36,8.67-.55-.36,1.76-1.8,1.63-3.1,1.82-1.13,.17-2.41-.53-3.38,.58-1.32,.32-3.24-.68-3.65,1.66-.98,.05-1.28,.85-1.5,1.56-.73,2.35-1.38,4.73-2.2,7.61,3.17-1.77,5.93-3.31,8.25-5.49,5.91-5.53,11.11-11.61,14.29-19.19,2.3-3.59,3.52-7.67,5.2-11.54,.71-1.64,.52-2.45-1.31-2.88-2.1-.49-2.47-1.36-.72-3.07,2.47-2.4,4.66-5.08,7.26-7.42,.96,4.57,1.6,8.82,1.67,13.18-4-.73-4.18-.79-5.51,3.22-1.22,3.68-3.46,6.89-4.52,10.61-3.04,4.22-5.34,8.95-8.85,12.85l-1.58,1.71c-2.89,3.26-6.04,6.32-10,8.13-3.98,1.81-5.45,4.64-5.29,8.82,.08,2.08,2.87,4.63,4.41,3.43,2.35-1.83,4.53-3.78,7.41-4.75,.12-.04,.26-.35,.22-.49-.49-1.96-.91-3.95-1.57-5.85-.52-1.5-2.2,.08-3.09-.99,1.19-1.41,2.93-1.12,4.45-1.44,8.56-.71,17.11-1.43,25.67-2.1,1.31-.1,2.2-.76,2.83-1.75,1.55-2.43,3.02-4.91,4.52-7.36,.09-.39,.18-.77,.27-1.15,.48-.16,.92-.35,.8-.99-.08-.41-.24-.74-.75-.59-5.79,1.6-11.83,1.06-17.68,2.16-.95,.16-1.9,.31-2.85,.47-1.32-.05-2.63-.1-3.95-.15,.27-.83,.99-1.17,1.68-1.54,1.79-.19,4.22,.83,5.15-1.05,.71-1.44-1.22-2.68-2.41-3.71,.06-.82,.25-1.5,1.31-1.27,2.09,4.2,5.33,5.76,9.9,4.39,.45-.14,.96-.13,1.44-.09,6.59,.47,10.8-2.47,14.89-7.82,5.9-7.72,16.12-5.67,19.63,.71,1.18,2.14,2.28,4.6,5.89,3.66,2.16-.56,2.73-2.05,3.44-3.48,1.4-2.79,3.51-4.76,6.05-6.45,5.7-3.8,14.38,.15,16.53,5.59,.59,1.5,1.24,2,2.69,1.82,.77-.09,1.54-.11,2.32-.13,3.11-.11,5.39-.37,6.39-4.54,1.53-6.39,6.34-8.9,12.74-8.15,.27,.03,.53,.06,.8,.09,.46,.09,.92,.18,1.38,.27,.24,.05,.48,.11,.73,.16,3.7,.85,5.01,3.98,6.22,6.96,.65,1.59,1.35,2.01,2.93,1.87,6.02-.53,12.08-.52,18.05-1.54,.87,1.52,1.61,1.26,2.25-.17,.18-.01,.36,.01,.53,.07,.11,.39,.22,.77,.34,1.16-.14,.11-.26,.23-.37,.38-11.7-.11-23.12,2.41-34.9,3.48,.8,1.06,1.64,.64,2.35,.78-.18,.28-.36,.56-.54,.84-1.44-.03-2.08,.56-1.77,2.09,.29,1.41,.52,2.84,.63,4.27,.14,1.82,.87,2.41,2.79,2.2,3.71-.39,7.46-.45,11.19-.65,.24,.31,.43,.23,.58-.09h.01c.24-.03,.48-.06,.71-.09,2.04-.46,4.09-.68,6.18-.32-.54,.4-1.07,.79-1.61,1.19-2.57,.49-5.18,.56-7.79,.52-2.71,.09-1.21,2.15-1.57,3.35,.2,1.52-.13,2.98-.56,4.43,0,0-.04-.11-.04-.11-.12,.53-.24,1.05-.36,1.58-.06,.2-.12,.39-.18,.59-.28,.95-.57,1.9-.85,2.86-.1,.24-.19,.47-.29,.71,.14,.83,0,1.58-.62,2.18-.2,0-.39,0-.59,0,0,0-.02-.02-.02-.02-.06-.3-.12-.61-.18-.91,.52-3.8,1.91-7.4,2.39-11.24,.32-2.55-.27-3.18-2.59-2.74-.57,.11-1.16,.22-1.73,.17-3.05-.28-4.09,.81-3.99,4.09,.18,6.12-.3,12.49-4.59,17.22-2.53,2.79-1.9,5.8-3.11,9.02,5.25-3.18,8.83-7.2,11.43-12.13,.46,.03,.92,.05,1.38,.08-1.9,2.62-1.12,5.82-1.9,8.69-.55,.29-.71,.64-.18,1.11-.71,7.13-3.57,13.01-9.02,17.89-2.56,2.29-4.19,5.68-6.01,8.72-.97,1.62-2.14,3-3.53,4.15-5.01,4.16-10.13,8.16-17.18,7.81-1.07-.05-1.84,.5-2.67,.98-1.93,1.12-3.96,1.99-6.16,2.45-.64-.06-1.28-.16-1.77,.42-.78,.18-1.57,.37-2.35,.55-1.02-.53-2.01-.7-2.91,.24-1.74,.41-3.47,.42-5.21-.04-.54-.74-1.12-.73-1.73-.1-.4-.07-.8-.15-1.21-.22-.23-.07-.47-.14-.7-.22-.34-.08-.68-.15-1.03-.23-.31-.42-.74-.47-1.21-.39-1.5-.39-2.91-.99-4.05-2.08-.47-.46-.85-1.19-1.67-.54-.41,.06-.82,.12-1.23,.18-1.91-.8-3.83-.74-5.75-.04-.64-.11-1.27-.22-1.91-.33-.2-.02-.41-.04-.61-.05-.34-.08-.69-.17-1.03-.25-.26-.1-.53-.21-.79-.31Zm14.78-72.28c-1.33,0-2.67,.07-4-.01-1.54-.09-2.03,.67-1.93,2.06-3.15,1.73-4.34,5.03-6.12,7.83-.78,1.23,.15,1.53,1.41,1.39,4.64-.5,9.29-.51,13.88-1.85,4.47-1.31,7.57-4.11,8.26-8.8-.3-1.03,1.23-1.38,.9-2.77-4.11,1.14-8.48,.06-12.4,2.15Zm36.63-2.88l-.07,.85c-.95,.07-1.89,.13-2.84,.2-2.32-1.67-5.06-1.44-6.45,.54-3.28,2.05-3.2,6-5.74,8.98,1.36,0,2.03,.05,2.69,0,7.01-.58,14.01-1.2,21.02-1.76,4.26-.34,4.25-.29,3.68-4.44-.18-1.33-.29-2.67-.43-4.01-.72-.71,.62-2.62-1.05-2.52-4.1,.25-8.27,.35-12.2,2.05,.46,.04,.92,.07,1.38,.11Zm-29.95,78.41c6.08,.42,12.01-.04,18.04-3.06-2.96-.98-5.69-1.17-7.39-3.46-1.06-1.44-2.28-1.52-4.01-1.04-7.05,1.94-13.6,.91-19.32-3.95-.59-.5-1.14-1.09-2-1.05-.46,.02-1.06-.08-1.25,.46-.1,.28,.04,.8,.26,1.02,4.39,4.36,7.91,9.93,14.81,10.84,.29,.08,.58,.16,.86,.24Zm-5.95-77.8c.35-.03,.93-.05,1.51-.11q4.94-.48,2.18-4.49c-3.55-5.14-11.16-5.28-15.66-.86-5.15,5.06-7.79,11.64-11.68,17.45-1.56,2.32-2.91,5.22-6.12,5.03-2.24-.14-4.41-.11-6.6,.19q-3.69,.5-1.37,3.58c4.29,5.69,12.4,5.46,16.95,.02,4.74-5.67,8.12-12.17,12.25-18.2,1.47-2.14,3-4.53,6.31-2.65,.51,.29,1.33,.04,2.23,.04Zm54.55,28.32c2.49-1.35,3.25-3.28,3.71-5.16,1.47-5.94,2.37-11.9,.79-18.05-.83-3.23-1.52-6.57-.56-10.01,.58-2.07,1.59-2.89,3.54-1.83,2.28,1.23,4.55,.03,6.83,.14,.94,.04,.93-.73,.71-1.48-1.94-6.61-9.48-9.07-14.96-5.24-5.2,3.62-5.5,8.71-5.16,14.14,.59,9.27,5.58,17.64,5.11,27.49Zm-52.03-14.14c1.94,2.65,4.25,3.99,7.41,3.95,3.74-.06,6.16-2.26,7.87-5.14,2-3.39,3.58-7.03,5.31-10.58,1.57-3.21,3.49-5.8,7.67-5.2,1.03,.15,2.12-.04,3.18-.17,.82-.09,1.98,.38,2.36-.52,.38-.88-.35-1.83-.85-2.62-4.26-6.56-14.31-6.2-18.22,.67-1.95,3.42-3.77,6.9-5.36,10.53-1.75,4-4.33,7.47-9.36,9.09Zm-8.33,50.84c2.43,2.22,4.91,3.57,7.79,4.17,11.99,2.48,21.26-4.8,25.62-15.03,.61-1.43,.03-1.68-1.22-1.66-4.67,.06-8.85,.89-12.95,3.78-5.64,3.98-12.42,5.97-19.24,8.75Zm-6.02-12.69c-4.88-.39-9.67,1.24-14.61,1.31-.98,.01-2.44-.61-2.87,.57-.38,1.05,.47,2.17,1.23,3.09,3.81,4.61,8.86,6.43,14.65,6.82,2.77,.19,5.23-.91,7.79-1.51,2.99-.71,5.89-1.83,8.82-2.82,.97-.33,1.96-.81,.74-1.96-2.06-1.97-3.95-4.13-7.04-4.64-2.87-.48-5.71-1.02-8.72-.85Zm-111.39-.86c1.6,1.07,3.15,1.4,4.8,1.45,9.92,.3,17.36-4.79,24.08-11.28,1.31-1.27,4.21-2.63,3.34-4.14-1.07-1.87-4.04-2.23-6.47-2.38-.38-.02-.77,.07-1.15,.05-3.89-.12-6.35,2.68-9.42,4.36-5.74,3.13-9.92,8.04-15.18,11.94Zm-51.33,10.01c3.63,1.49,6.98,3.43,10.7,2.21,7.19-2.36,13.81-5.79,18.81-11.72,.99-1.18,3.6-1.89,2.81-3.43-.76-1.45-3.3-1.22-5.12-1.19-11.26,.18-19.35,6.54-27.19,14.12Zm217-22.51c-.76-.37,1.18-3.03-1.17-1.85-3.65,1.83-7.26,4.32-8.62,8.51-2.12,6.56-4.99,12.66-9.24,18.11-.52,.67-2.02,1.21-1.26,2.26,.57,.79,1.86,.96,2.96,.87,.86-.07,1.72-.18,2.57-.32,3.97-.68,6.21-3.65,8.45-6.54,4.73-6.12,5.11-13.57,6.31-21.04Zm-137.98,6.12c.26,.22,.39,.4,.54,.43,.56,.13,1.14,.27,1.71,.3,11.59,.57,21.48-2.9,28.96-12.17,1.16-1.44,.34-1.79-.87-2.05-3.66-.8-7.3-.61-10.95,.14-8.33,1.72-13.75,7.6-19.39,13.36Zm-47.16,13.65c.62-.11,1.47-.3,2.33-.41,4.97-.65,8.59-4.08,12.81-6.26,3.59-1.86,6.93-4.11,9.59-7.24,.36-.42,1.07-.65,.98-1.33-.1-.73-.84-.71-1.35-.83-4.55-1.1-9.09-1.03-13.32,1.04-5.49,2.7-9.91,6.92-14.24,11.13-2.23,2.17-1.67,3.24,1.51,3.78,.47,.08,.96,.07,1.69,.12Zm184.35-6.67c11-4.91,14.25-25.03,8.85-36.88-3.52,3.01-4.56,7.16-5.28,11.31-1.45,8.36-1.23,16.94-3.56,25.58Zm-2.4,6.49c12.03-.02,24.42-11.6,23.68-26.03-3.38,2.86-5.91,6.48-9.86,8.41-.57,.28-.8,1.27-1.15,1.96-2.05,3.97-4.13,8.06-8.38,10-2.66,1.21-3.37,3.33-4.28,5.67Zm11.6-1.26c-2.65,.88-4.6,1.77-6.65,2.17-3.95,.78-7.35,1.8-10.27,5.25-3.2,3.78-7.98,4.85-12.95,2.53-1.75-.82-3.28,.56-3.93,1.62-.8,1.31,1.17,1.58,2.01,2.14,2.53,1.69,5.34,2.21,8.4,2.14,2.82-.07,5.35-.71,7.97-1.71,6.85-2.61,11.52-7.45,15.41-14.13Zm-95.74-31.95c1.74,.69,1.91-.27,1.53-1.73-.34-1.31-.67-2.62-1.03-3.92-.28-.99-.7-1.76-1.99-1.62-2.3,.24-4.62,.39-6.93,.56-.91,.06-1.35,.32-1.3,1.41,.19,3.82,1.8,5.3,5.56,5.09,1.34-.07,2.69,.13,4.16,.21Zm87.31-15.34c.37,1.57,.98,2.91,1.9,4.15,2.14,2.87,2,2.76,4.8,.49,1.63-1.32,1.12-2.56,.71-4.07-.53-1.94-1.92-1.17-3.05-1.1-1.43,.09-2.85,.33-4.36,.52Zm-138.59,23.43c7.57,3.04,9.99,2.74,13.23-1.56-4.54-.94-8.79-.67-13.23,1.56Zm-14.19,5.66c-2.98-2.02-7.97-1.37-11.05,1.44q6.45,1.88,11.05-1.44Zm-34.97,6.06c2.25-.08,3.74,3.14,5.59,2.04,1.59-.94,3.43-2.18,4.81-4.04-3.97-1.27-7.17,.14-10.4,2Zm-15.35,3.36c-4.26-.97-7.87,0-11.82,2.17,4.62,1.32,8.48,1.67,11.82-2.17Zm198.24-11.54c5.6-2.37,5.82-2.67,4.96-6.64-2.46,1.47-3.75,3.69-4.96,6.64Zm-30.39,17.54c-.9,.72-2.83-.89-2.89,1.12-.03,.92,1.13,2.59,2.46,2.37,1.49-.25,3.81-.79,3.8-2.41,0-1.79-2.21-.44-3.37-1.08Zm-26.69-6.81c1.34,3.82,1.47,3.88,4.87,2.44-1.33-1.24-2.83-1.97-4.87-2.44Zm49.69-.09c-2.06,.71-3.5,1.46-4.24,3.32,2.77,.8,3.9-.35,4.24-3.32Z"/>
  <path class="cls-5" d="M102.77,8.77c6.04,22.09,12.46,44.05,20.73,65.43,4.88,12.64,10.36,24.96,17.85,36.29,1.05,1.59,2.36,3.02,3.89,4.96-2.76,.33-5.12,.57-7.47,.9-1.38,.19-1.86-.87-2.46-1.69-4.7-6.43-8.29-13.5-11.62-20.69-3.65-7.89-6.91-15.96-9.85-24.15-5.38-15-10.24-30.16-14.4-45.55-1.41-5.22-2.91-10.42-4.37-15.62,2.56,.04,5.13,.08,7.69,.11Z"/>
  <path class="cls-3" d="M319.02,112.36c-3.73,.2-7.48,.25-11.19,.65-1.92,.2-2.65-.38-2.79-2.2-.11-1.43-.34-2.86-.63-4.27-.31-1.52,.33-2.12,1.77-2.09,2.34,.4,4.61-.61,6.94-.4,3.16,0,6.3-.28,9.39-1,5.15-.41,10.29-.87,15.45-1.19,1.39-.09,1.62-.67,1.34-1.81h.26c1.1,.25,.8,.96,.7,1.78-.32,2.88-.5,5.78-.74,8.67-4.32,.61-8.75,.19-12.99,1.44l-.03-.06c-2.08-.36-4.14-.14-6.18,.32-.24,.03-.48,.06-.71,.09,0,0-.01,0-.01,0-.19,.03-.39,.06-.58,.09Z"/>
  <path class="cls-7" d="M54.38,163.6c3.99-1.52,7.68-3.79,12.04-4.39,3.48-.48,6.88-.52,10.79,.5-6.21,5.04-11.36,10.85-18.76,13.67-1.35,.19-2.71,.38-4.06,.58,0-3.45,0-6.9-.01-10.35Z"/>
  <path class="cls-12" d="M189.73,153.41c.08-1.53,.16-3.05,.24-4.58,3.13,10.99,10.27,18.18,20.89,22.03,.69,.25,1.67,.68,2.16-.01,.44-.62,.04-1.54-.57-2.07-2.2-1.9-2.68-4.61-3.14-7.2-.38-2.1-1.38-3.1-3.29-3.76-4.87-1.66-8.97-4.42-11.57-9.01-1.8-3.18-1.84-3.22-4.53-.42,.04-.84-.52-1.2-1.18-1.48,2.2-1.17,3.57-3.7,6.37-3.87,.36,.74,1.01,.65,1.66,.58l.17,.14c-2.84,1.58-2.23,3.42-.45,5.42,2.38,2.68,4.88,5.15,8.26,6.58,3.5,1.47,7.21,2.15,10.87,3.02-1.55,.47-3.34-.69-4.75,.72-.05,5.09,2.71,8.89,6.02,12.25,3.44,3.5,8.02,5.43,12.14,7.99-.66,.12-1.43-.08-1.89,.63-3.55-.74-5.81-3.6-8.7-5.42-1.7-1.07-3.38-1.75-5.29-2.08-7.72-1.33-13.79-5.27-18.4-11.61-.85-1.16-1.4-3.22-3.67-2.4,0,0-.13-.14-.13-.13,.02-.39,.04-.79,.06-1.18,.62-1.7-1.37-2.6-1.28-4.14Z"/>
  <path class="cls-7" d="M58.47,174.57c.41-.12,.83-.24,1.24-.36,.2-.06,.39-.12,.59-.18,3.72-2.56,6.89-2.11,9.93,1.34,.99,1.12,2.87,1.47,4.35,2.15,.59,.27,1.41,.28,1.46,1.16,.04,.82-.67,1.09-1.23,1.45-5.74,3.71-11.86,4.15-18.26,2.09-.73-.23-1.45-.51-2.17-.76,.66-2.04,.33-4.08-.03-6.11,1.39-.15,2.85,.08,4.11-.77Z"/>
  <path class="cls-3" d="M322.51,103.05c-3.09,.72-6.23,.99-9.39,1-2.04-1.57-4.22-.97-6.39-.43-.71-.15-1.55,.27-2.35-.78,11.78-1.07,23.2-3.59,34.9-3.48,.1,.22,.19,.45,.29,.67,0,0-.26,.01-.26,.01-5.34,.18-10.58,1.25-15.87,1.83-.73,.08-.95,.52-.92,1.18Z"/>
  <path class="cls-12" d="M127.52,169.25c.62,.02,1.25,.04,1.87,.06-1.63,2.98-4.73,3.47-7.53,4.16-6.72,1.66-13.55,1.83-20.39,.57,.04-.48,.07-.95,.11-1.43,3.73,.47,7.47,1.07,11.23,.69,5.11-.52,10.35-.74,14.7-4.06Z"/>
  <path class="cls-12" d="M128.07,129.23c.51-.07,1.04-.09,1.34-.61,3.1,1.3,6.29,2.2,9.67,2.28q3.1,.08,1.92-2.89c.89-.32,.38-1.39,.98-1.88,.74,.75,2.31,.76,2,2.37-.3,.23-1.41-.4-.82,.78,1.24,2.46-.12,3.13-2.24,3.12-4.53-.02-8.99-.38-12.84-3.16Z"/>
  <path class="cls-12" d="M80.27,179.29c1.7-.02,3.41-.02,5.11-.06,.91-.02,2,.25,2.18-1.16,2.13-.41,4.26-.83,6.39-1.24,.26,.6,.83,.65,1.37,.76-4.7,3.39-9.88,2.54-15.05,1.7Z"/>
  <path class="cls-11" d="M326.53,111.93c4.25-1.25,8.68-.83,12.99-1.44,.17,.42,.42,.86-.15,1.19-.59-.02-1.2-.15-1.72,.29-.6,.06-1.21,.13-1.81,.19-.43-.54-.8-.42-1.13,.11-2.14,.16-4.29,.33-6.43,.49-.59-.28-1.18-.55-1.76-.83Z"/>
  <path class="cls-11" d="M152.39,165.52c-2.76,1.77-5.78,2.8-9.03,3.14-.19-.38-.38-.77-.58-1.15,3.13-.75,6.2-1.65,9.08-3.12,.18,.38,.36,.76,.54,1.14Z"/>
  <path class="cls-10" d="M159.09,163.55c.12,1.39,1.33,.95,2.1,1.25-2.33,.57-4.52-.46-6.79-.58,.41-.46,.82-.91,1.23-1.37,1.15,.23,2.31,.46,3.46,.7Z"/>
  <path class="cls-12" d="M150.98,133.23c-.06,.55-.11,1.11-.17,1.66-1.09-.21-2.31,.37-3.31-.5,0-.39,0-.78,0-1.16,.17-.18,.35-.36,.52-.53,.77-.04,1.54-.09,2.31-.13,.21,.22,.43,.44,.64,.67Z"/>
  <path class="cls-12" d="M233.56,182.01c1.92-.69,3.84-.75,5.75,.04-1.92,.37-3.84,.47-5.75-.04Z"/>
  <path class="cls-11" d="M152.96,133.26c.68-1.36,1.94-1.09,3.1-1.09,.15,.84,1.06,1.93-.53,2.24-1.01,.2-2.43,.82-2.56-1.15Z"/>
  <path class="cls-12" d="M58.47,174.57c-1.26,.85-2.72,.62-4.11,.77,0-.46,.02-.93,.03-1.39,1.35-.19,2.71-.38,4.06-.58,0,.4,.01,.8,.02,1.2Z"/>
  <path class="cls-10" d="M142.78,167.51c.19,.38,.38,.77,.58,1.15-1.31,.51-2.66,.64-4.05,.55,.59-.23,1.17-.46,2.03-.8-1.02-.22-1.82-.4-2.62-.57,1.35-.11,2.7-.23,4.06-.34Z"/>
  <path class="cls-12" d="M185.38,160.16c.67-.29,1.74-.08,1.62-1.33,.45-.02,.9-.05,1.35-.07,.87-.01,1.73-.02,2.6-.03l.13,.14c-1.77,.99-3.62,1.66-5.7,1.3Z"/>
  <path class="cls-9" d="M54.44,159.96c1.03-.14,2.06-.28,3.41-.46-1.05,1.52-2.89,1.45-3.6,2.81-.85-.86-.06-1.58,.2-2.34Z"/>
  <path class="cls-8" d="M338.78,97.76c-.64,1.44-1.38,1.7-2.25,.17,.71-.63,1.45-.86,2.25-.17Z"/>
  <path class="cls-10" d="M326.53,111.93c.59,.28,1.18,.55,1.76,.83-1.11,.32-2.24,.49-3.4,.3,.54-.4,1.07-.79,1.61-1.19,0,0,.03,.06,.03,.06Z"/>
  <path class="cls-10" d="M257.35,185.7c.9-.94,1.89-.77,2.91-.24-.95,.34-1.92,.42-2.91,.24Z"/>
  <path class="cls-11" d="M95.32,177.58c-.54-.1-1.11-.15-1.37-.76,.8-.35,1.59-.7,2.39-1.05,.29,.28,.57,.56,.86,.84-.44,.68-1.13,.88-1.88,.97Z"/>
  <path class="cls-12" d="M315.53,116.93c.36-1.19-1.13-3.26,1.57-3.35-1.51,.65-1.24,2.14-1.57,3.35Z"/>
  <path class="cls-12" d="M311.03,132.7c-.46-.03-.92-.05-1.38-.08,.36-.66,.71-1.31,1.07-1.97,.27,.28,.54,.57,.81,.85,.11,.51-.05,.92-.5,1.2Z"/>
  <path class="cls-11" d="M311.53,131.5c-.27-.28-.54-.57-.81-.85,.22-.51,.44-1.02,.66-1.53l.64,.02s.02,.02,.02,.02c0,.37-.02,.75-.03,1.12,0,0-.03,.02-.03,.02-.16,.29-.32,.58-.48,.88l.11,.15-.08,.17Z"/>
  <path class="cls-10" d="M250.41,185.56c.62-.63,1.2-.63,1.73,.1-.59,.19-1.17,.21-1.73-.1Z"/>
  <path class="cls-12" d="M308.95,142.49c-.53-.47-.37-.82,.18-1.11,.19,.41,.17,.79-.18,1.11Z"/>
  <path class="cls-10" d="M334.72,112.26c.33-.53,.7-.65,1.13-.11-.35,.29-.73,.33-1.13,.11Z"/>
  <path class="cls-8" d="M339.64,98.98c-.11-.39-.23-.77-.34-1.16,.4-.12,.72,0,.83,.39,.1,.38-.06,.69-.5,.77Z"/>
  <path class="cls-12" d="M240.55,181.87c.82-.65,1.2,.08,1.67,.54-.56-.18-1.11-.36-1.67-.54Z"/>
  <path class="cls-9" d="M55.57,158.29c-.41,.14-.82,.27-1.23,.41,.19-.81,.5-1.24,1.23-.41Z"/>
  <path class="cls-10" d="M337.66,111.97c.52-.43,1.12-.31,1.72-.29-.5,.52-1.09,.49-1.72,.29Z"/>
  <path class="cls-10" d="M262.61,184.91c.48-.59,1.13-.48,1.77-.42-.52,.41-1.12,.5-1.77,.42Z"/>
  <path class="cls-9" d="M60.8,158.66c-.65,.14-1.25,.09-1.78-.37,.65-.15,1.27-.19,1.78,.37Z"/>
  <path class="cls-12" d="M312.02,130.28c0-.37,.02-.75,.03-1.12,.2,0,.39,0,.59,0-.06,.45,.02,.98-.61,1.12Z"/>
  <path class="cls-10" d="M246.26,184.5c.47-.08,.9-.02,1.21,.39-.4-.13-.81-.26-1.21-.39Z"/>
  <path class="cls-12" d="M78.28,179.29c.08-.27,.15-.53,.23-.8,.11,.25,.22,.49,.32,.74,0,0-.27,.11-.27,.11,0,0-.28-.05-.28-.05Z"/>
  <path class="cls-10" d="M307.21,90.21c-.27-.03-.53-.06-.8-.09,.29-.2,.56-.21,.8,.09Z"/>
  <path class="cls-9" d="M63.21,158.32c-.12,.34-.36,.42-.68,.3,.23-.1,.45-.2,.68-.3Z"/>
  <path class="cls-9" d="M54.24,158.8c-.04,.21-.08,.42-.12,.63-.39-.29-.26-.49,.12-.63Z"/>
  <path class="cls-10" d="M309.31,90.64c-.24-.05-.48-.11-.73-.16,.24,.05,.48,.11,.73,.16Z"/>
  <path class="cls-10" d="M167.84,164.36c.22-.07,.45-.14,.67-.21-.22,.07-.45,.14-.67,.21Z"/>
  <path class="cls-11" d="M97.66,176.37c-.12,.15-.28,.23-.46,.24-.29-.28-.57-.56-.86-.83,.22-.15,.45-.3,.67-.45,.22,.35,.43,.7,.65,1.05Z"/>
  <path class="cls-12" d="M77.68,179.63c.21-.12,.42-.24,.63-.37-.21,.12-.42,.24-.63,.37Z"/>
  <path class="cls-12" d="M229.22,181.06c.26,.1,.53,.21,.79,.31-.26-.1-.53-.21-.79-.31Z"/>
  <path class="cls-12" d="M231.05,181.62c.2,.02,.41,.04,.61,.05-.2-.02-.41-.04-.61-.05Z"/>
  <path class="cls-12" d="M314.93,121.24s.04,.11,.04,.11c0,0-.04-.11-.04-.11Z"/>
  <path class="cls-12" d="M314.4,123.41c.06-.2,.12-.39,.18-.59-.06,.2-.12,.39-.18,.59Z"/>
  <path class="cls-12" d="M313.26,126.97c.1-.24,.19-.47,.29-.71-.1,.24-.19,.47-.29,.71Z"/>
  <path class="cls-10" d="M248.5,185.12c.23,.07,.47,.14,.7,.22-.23-.07-.47-.14-.7-.22Z"/>
  <path class="cls-12" d="M126.5,127.99c.2,.19,.4,.38,.61,.57-.2-.19-.4-.38-.61-.57Z"/>
  <path class="cls-8" d="M148.03,132.7c-.17,.18-.35,.36-.52,.53-.04-.39,.14-.56,.52-.53Z"/>
  <path class="cls-12" d="M311.5,131.18c.16-.29,.32-.58,.48-.88-.16,.29-.32,.58-.48,.88Z"/>
  <path class="cls-5" d="M197.55,99.74c1.88,3.85-.35,6.49-2.66,9.11-2.27-2.49-4.31-5.29-7.93-6.01-5.16-1.03-11.1,2.16-14.57,7.03-3.36,4.71-5.88,9.94-9.49,14.5-2.81,3.55-6.41,5.59-10.68,5.75-3.28,.12-6.25-1.54-8.07-4.63,.44-.88,1.22-.52,1.79-.42,4.76,.89,7.77-1.67,10.07-5.29,4.03-6.34,7.5-13.11,12.59-18.67,7.13-7.79,19.89-10.05,28.96-1.37Z"/>
  <path class="cls-5" d="M244.72,106.5c-.9,0-1.72,.25-2.23-.04-3.31-1.88-4.84,.51-6.31,2.65-4.13,6.03-7.51,12.53-12.25,18.2-4.55,5.44-12.67,5.67-16.95-.02q-2.32-3.08,1.37-3.58c2.19-.3,4.36-.32,6.6-.19,3.21,.19,4.56-2.7,6.12-5.03,3.9-5.81,6.53-12.4,11.68-17.45,4.5-4.42,12.11-4.28,15.66,.86q2.76,4-2.18,4.49c-.58,.06-1.16,.09-1.51,.11Z"/>
  <path class="cls-5" d="M299.27,134.82c.47-9.85-4.53-18.23-5.11-27.49-.34-5.43-.04-10.51,5.16-14.14,5.48-3.82,13.02-1.36,14.96,5.24,.22,.75,.23,1.52-.71,1.48-2.27-.11-4.54,1.09-6.83-.14-1.95-1.05-2.96-.24-3.54,1.83-.96,3.44-.27,6.78,.56,10.01,1.58,6.15,.68,12.11-.79,18.05-.46,1.88-1.23,3.81-3.71,5.16Z"/>
  <path class="cls-4" d="M193.36,110.59c-.12,.34-.23,.67-.35,1.01-2.89,.19-5.78,.41-8.67,.55-2.4,.12-3.28,1.94-3.94,3.72-1.65,4.44-2.73,9.04-3.28,13.76-.12,1.05-.34,2.09-.52,3.13-1.02,.36-.23,2.19-1.48,2.12-2.68-.14-5.45,.89-8.05-.49-.25-7.92,1.57-15.28,5.97-21.92,1.42-2.15,2.78-4.34,4.96-5.91,5.39-3.89,12.93-2.49,15.35,4.02Z"/>
  <path class="cls-5" d="M247.24,120.67c5.03-1.62,7.61-5.08,9.36-9.09,1.59-3.63,3.41-7.11,5.36-10.53,3.91-6.87,13.96-7.23,18.22-.67,.51,.78,1.23,1.73,.85,2.62-.38,.9-1.54,.43-2.36,.52-1.05,.12-2.15,.31-3.18,.17-4.18-.59-6.1,1.99-7.67,5.2-1.73,3.55-3.31,7.19-5.31,10.58-1.71,2.88-4.13,5.08-7.87,5.14-3.16,.05-5.47-1.29-7.41-3.95Z"/>
  <path class="cls-1" d="M215.62,158.78c-3.66-.87-7.37-1.54-10.87-3.02-3.38-1.42-5.88-3.9-8.26-6.58-1.78-2-2.38-3.84,.45-5.42,3.33-.58,6.9-1.66,9.99-.28,4.41,1.98,9.36,2.99,13.07,6.43,.14,.12,.28,.23,.42,.35,.26,.24,.51,.47,.77,.71,0,.16,.09,.26,.25,.29,.34,.42,.67,.84,1.01,1.26-.03,1.58,1.2,2.57,1.86,3.8,.72,1.35,.3,1.68-.97,1.79-2.57,.21-5.14,.44-7.71,.67Z"/>
  <path class="cls-2" d="M238.91,171.51c6.81-2.78,13.6-4.77,19.24-8.75,4.09-2.89,8.28-3.72,12.95-3.78,1.25-.02,1.83,.23,1.22,1.66-4.35,10.23-13.63,17.51-25.62,15.03-2.88-.6-5.36-1.95-7.79-4.17Z"/>
  <path class="cls-2" d="M232.89,158.83c3.01-.17,5.85,.38,8.72,.85,3.09,.51,4.98,2.68,7.04,4.64,1.21,1.16,.23,1.64-.74,1.96-2.93,.99-5.82,2.11-8.82,2.82-2.56,.61-5.02,1.7-7.79,1.51-5.79-.39-10.84-2.21-14.65-6.82-.76-.93-1.61-2.05-1.23-3.09,.43-1.18,1.89-.56,2.87-.57,4.94-.07,9.73-1.7,14.61-1.31Z"/>
  <path class="cls-7" d="M121.5,157.97c5.25-3.91,9.43-8.81,15.18-11.94,3.07-1.68,5.53-4.48,9.42-4.36,.38,.01,.77-.08,1.15-.05,2.43,.15,5.4,.51,6.47,2.38,.87,1.51-2.03,2.87-3.34,4.14-6.72,6.49-14.16,11.58-24.08,11.28-1.65-.05-3.2-.38-4.8-1.45Z"/>
  <path class="cls-7" d="M70.17,167.97c7.84-7.57,15.93-13.94,27.19-14.12,1.82-.03,4.36-.26,5.12,1.19,.8,1.53-1.81,2.25-2.81,3.43-4.99,5.93-11.62,9.36-18.81,11.72-3.72,1.22-7.06-.73-10.7-2.21Z"/>
  <path class="cls-7" d="M195.11,143.05c-2.8,.18-4.17,2.7-6.37,3.87-4.75,1.84-9.54,3.41-15.16,1.77,5.5-3.86,8.74-9.6,13.87-13.49,5.72-4.34,17.21-1.94,19.97,4.22,.83,1.85,.86,2.6-1.54,2.21-3.08-.5-6.17-.31-9.13,.87-.34,.08-.68,.16-1.01,.25-.21,.1-.42,.21-.64,.31Z"/>
  <path class="cls-2" d="M287.17,145.46c-1.2,7.47-1.58,14.92-6.31,21.04-2.24,2.89-4.48,5.86-8.45,6.54-.85,.14-1.71,.25-2.57,.32-1.1,.09-2.39-.09-2.96-.87-.76-1.05,.74-1.59,1.26-2.26,4.26-5.45,7.12-11.55,9.24-18.11,1.35-4.19,4.96-6.68,8.62-8.51,2.34-1.17,.41,1.49,1.17,1.85Z"/>
  <path class="cls-7" d="M149.19,151.58c5.65-5.75,11.06-11.64,19.39-13.36,3.65-.75,7.29-.94,10.95-.14,1.21,.26,2.03,.61,.87,2.05-7.48,9.27-17.37,12.74-28.96,12.17-.57-.03-1.15-.17-1.71-.3-.15-.03-.27-.21-.54-.43Z"/>
  <path class="cls-7" d="M102.03,165.23c-.73-.05-1.21-.04-1.69-.12-3.18-.54-3.74-1.61-1.51-3.78,4.33-4.21,8.75-8.43,14.24-11.13,4.22-2.07,8.77-2.14,13.32-1.04,.51,.12,1.25,.1,1.35,.83,.09,.68-.62,.9-.98,1.33-2.66,3.13-5.99,5.38-9.59,7.24-4.22,2.18-7.84,5.61-12.81,6.26-.86,.11-1.71,.3-2.33,.41Z"/>
  <path class="cls-7" d="M127.52,169.25c-4.36,3.32-9.59,3.54-14.7,4.06-3.76,.38-7.5-.22-11.23-.69-2.68-.94-5.49-1.63-7.49-3.9-.58-.66-2.29-.96-1.6-1.94,.73-1.03,2.25-2.57,3.6-1.81,6.34,3.6,11.75,.49,17.23-2.08,1.48-.69,2.47-.83,3.83,.3,2.61,2.17,5.68,3.61,8.88,4.76,.63,.23,1.71,.05,1.48,1.3Z"/>
  <path class="cls-3" d="M194.94,115.09c3.1-.99,6.54,.35,9.56-1.39,.37-.21,1.1,.2,1.66,.33,.58-.19,1.17-.39,1.75-.58,5.05,.32,10-.87,15.01-1.01-1.5,2.46-2.97,4.94-4.52,7.36-.64,1-1.52,1.65-2.83,1.75-8.56,.67-17.11,1.39-25.67,2.1,.26-1.26,1.08-2.18,1.88-3.13,.89-1.06,2.05-2.06,1.58-3.72l1.58-1.71Z"/>
  <path class="cls-7" d="M159.09,163.55c-1.15-.23-2.31-.46-3.46-.7-3.1-1.82-6.54-3.07-9.37-5.32-.71-.56-2.39-1.03-1.63-2.21,.64-1.01,1.92-1.96,3.46-1.58,4.4,1.06,9.06,1.46,13.11-.21,4.1-1.69,6.7-.62,9.64,1.93,1.57,1.36,3.66,2.09,6.01,3.38-3.35,1.71-6.24,3.55-9.65,4.37-.46,.07-.92,.13-1.37,.2-2.25,.05-4.49,.1-6.74,.16Z"/>
  <path class="cls-2" d="M286.38,158.56c2.34-8.64,2.12-17.22,3.56-25.58,.72-4.14,1.76-8.29,5.28-11.31,5.41,11.85,2.15,31.97-8.85,36.88Z"/>
  <path class="cls-7" d="M142.78,167.51c-1.35,.11-2.7,.23-4.06,.34-6.58,.21-12.93-.62-18.6-4.32-1.23-.8-3.28-1.71-2.61-3.22,.86-1.93,2.76-1.05,4.47-.37,5.96,2.36,11.67,.77,17.02-1.93,2.61-1.32,4.35-1.39,6.54,.69,1.83,1.74,4.17,2.97,6.39,4.26,1.23,.71,.25,.97-.07,1.42-2.88,1.47-5.95,2.37-9.08,3.12Z"/>
  <path class="cls-3" d="M277.72,106.94c.95-.07,1.89-.13,2.84-.2,1.93-.13,3.85-.25,5.78-.38,2.05-.04,4.1-.07,6.16-.11,.14,1.34,.25,2.68,.43,4.01,.57,4.15,.57,4.1-3.68,4.44-7.01,.56-14.01,1.18-21.02,1.76-.66,.05-1.33,0-2.69,0,2.53-2.98,2.46-6.93,5.74-8.98,2.15-.18,4.3-.36,6.45-.54Z"/>
  <path class="cls-1" d="M189.93,148.4c2.69-2.81,2.73-2.76,4.53,.42,2.6,4.59,6.7,7.35,11.57,9.01,1.91,.65,2.92,1.65,3.29,3.76,.46,2.58,.94,5.29,3.14,7.2,.61,.53,1.02,1.44,.57,2.07-.49,.7-1.47,.26-2.16,.01-10.63-3.85-17.77-11.04-20.89-22.03,.06-.15,.05-.29-.05-.43Z"/>
  <path class="cls-2" d="M283.98,165.05c.91-2.34,1.62-4.46,4.28-5.67,4.26-1.94,6.33-6.03,8.38-10,.35-.68,.59-1.68,1.15-1.96,3.95-1.94,6.49-5.56,9.86-8.41,.74,14.43-11.64,26.01-23.68,26.03Z"/>
  <path class="cls-5" d="M311.38,129.12c-.22,.51-.44,1.02-.66,1.53-.36,.66-.71,1.31-1.07,1.97-2.6,4.92-6.17,8.95-11.43,12.13,1.21-3.22,.58-6.23,3.11-9.02,4.29-4.73,4.77-11.1,4.59-17.22-.1-3.28,.94-4.38,3.99-4.09,.57,.05,1.16-.06,1.73-.17,2.32-.44,2.91,.19,2.59,2.74-.48,3.84-1.87,7.44-2.39,11.24-.15,.3-.31,.59-.46,.89Z"/>
  <path class="cls-2" d="M295.58,163.78c-3.9,6.68-8.56,11.52-15.41,14.13-2.62,1-5.16,1.65-7.97,1.71-3.07,.07-5.87-.45-8.4-2.14-.84-.56-2.81-.82-2.01-2.14,.65-1.06,2.18-2.44,3.93-1.62,4.97,2.32,9.75,1.25,12.95-2.53,2.93-3.45,6.32-4.48,10.27-5.25,2.05-.4,4-1.28,6.65-2.17Z"/>
  <path class="cls-7" d="M97.01,175.33c-.22,.15-.45,.3-.67,.45-.8,.35-1.59,.7-2.39,1.05-2.13,.41-4.26,.83-6.39,1.24-5.86-.47-11.82-.57-16.93-4.13-.94-.66-1.81-1.43-2.67-2.2-.69-.62-.64-1.45-.12-2.07,.58-.71,1.45-.52,2.13-.11,5.71,3.43,11.37,3.18,17-.16,2.36-1.4,4.22-1.78,6.31,.88,1.25,1.58,3.71,2.21,5.61,3.27-.29,1-1.29,1.18-1.88,1.79Z"/>
  <path class="cls-2" d="M249.81,184.07c-6.9-.91-10.42-6.48-14.81-10.84-.22-.22-.36-.74-.26-1.02,.19-.54,.79-.44,1.25-.46,.86-.04,1.41,.55,2,1.05,5.72,4.86,12.26,5.89,19.32,3.95,1.73-.48,2.95-.4,4.01,1.04,1.69,2.29,4.42,2.48,7.39,3.46-6.03,3.02-11.96,3.49-18.04,3.06-.29-.08-.57-.16-.86-.24Z"/>
  <path class="cls-3" d="M141,128.01q1.19,2.97-1.92,2.89c-3.38-.08-6.57-.98-9.67-2.28-.69-.76-1.35-1.55-2.07-2.28-1.12-1.15-.86-2.27,.14-3.26,2.13-2.11,4.65-3.5,7.68-3.85,1.05,.02,2.1,.05,3.15,.07-1.9,.62-3.89,.97-5.61,2.06-1.45,.92-3.35,1.62-2.5,3.91,.59,1.57,4.32,2.91,6.22,2.15-1.58,0-2.14-1.32-3.33-1.64-.69-.19-1.67-.43-1.67-1.37,0-1,.95-1.35,1.71-1.77,2.85-1.58,6.03-1.99,9.13-2.71,.75-.17,2.17,.45,2.12-1.23,1.25,.11,2.55,.31,2.56-1.58,2.78-.89,5.64-.66,8.87-.84-1.62,1.28-3.44,.11-4.76,1.47,1.13,.86,2.45,.03,3.51,.56-1.16,3.52-3.61,5.3-7.09,5.17-1.25-.04-2.5-.1-3.76-.07-4.05,.11-4.48,.85-2.72,4.6Z"/>
  <path class="cls-3" d="M255.5,109.39c-.69,4.69-3.79,7.49-8.26,8.8-4.59,1.34-9.24,1.35-13.88,1.85-1.26,.13-2.19-.16-1.41-1.39,1.77-2.79,2.96-6.1,6.12-7.83,5.15,.56,10.02-1.52,15.1-1.57,.78,.05,1.55,.09,2.33,.14Z"/>
  <path class="cls-2" d="M229.03,179.74c-4.12-2.56-8.7-4.49-12.14-7.99-3.31-3.36-6.07-7.16-6.02-12.25,1.16,.15,2.18,.34,2.75,1.67,3.04,7.07,8.66,10.49,16.14,10.93,1.83,.11,3.08,.58,4.12,2.04,1.59,2.24,4.05,3.76,5.4,6.51-3.61,.67-6.93-.17-10.25-.91Z"/>
  <path class="cls-7" d="M188.35,158.76c-.45,.02-.9,.05-1.35,.07-7.2,.23-13.3-2.21-18.46-7.46,1.73-1.28,3.2-1.64,5.21-1.06,3.8,1.09,7.75,.77,11.41-.63,2.72-1.04,3.83-.37,4.13,2.36,.05,.47,.29,.92,.44,1.38-.09,1.54,1.9,2.43,1.28,4.14-.89,.41-1.77,.81-2.66,1.22Z"/>
  <path class="cls-5" d="M277.16,119.81c-.45-1.87,.01-3.01,2.21-2.8,.38,.04,.77-.08,1.15-.14,2.75-.42,5.45-.75,6.22,2.99,.04,.17,.2,.34,.35,.46,4.9,4.16,2.56,8.6,.51,13.03-4.78-3.5-7.63-8.51-10.44-13.53Z"/>
  <path class="cls-4" d="M199.84,131.83c-1.47-.08-2.83-.28-4.16-.21-3.75,.2-5.36-1.27-5.56-5.09-.06-1.09,.39-1.35,1.3-1.41,2.31-.16,4.62-.31,6.93-.56,1.29-.14,1.71,.64,1.99,1.62,.37,1.3,.69,2.61,1.03,3.92,.38,1.46,.21,2.42-1.53,1.73Z"/>
  <path class="cls-5" d="M287.14,116.49c1.51-.19,2.93-.43,4.36-.52,1.13-.07,2.53-.84,3.05,1.1,.41,1.52,.92,2.75-.71,4.07-2.8,2.26-2.66,2.37-4.8-.49-.93-1.24-1.54-2.59-1.9-4.15Z"/>
  <path class="cls-7" d="M148.55,139.92c4.44-2.23,8.69-2.5,13.23-1.56-3.24,4.3-5.67,4.61-13.23,1.56Z"/>
  <path class="cls-12" d="M195.75,142.74c.34-.08,.68-.16,1.01-.25,4.34,.01,8.68,.03,13.02,.04,1.27,.66,2.54,1.35,4.05,1.17,.54,0,1.08,0,1.61,0,.61,2.52,3.31,2.94,4.69,4.69-.05,.51-.1,1.01-.15,1.52-3.71-3.44-8.65-4.45-13.07-6.43-3.09-1.39-6.66-.3-9.99,.28,0,0-.17-.14-.17-.14-.34-.29-.68-.59-1.03-.89Z"/>
  <path class="cls-12" d="M277.16,119.81c2.82,5.02,5.66,10.03,10.44,13.53-.04,.73-.35,1.28-1.01,1.62-2.68-3.09-6.08-5.55-7.92-9.39-.91-1.9-2.23-3.61-2.73-5.71,.4-.01,.81-.03,1.21-.04Z"/>
  <path class="cls-7" d="M134.36,145.58q-4.59,3.32-11.05,1.44c3.07-2.81,8.07-3.47,11.05-1.44Z"/>
  <path class="cls-7" d="M99.4,151.64c3.23-1.85,6.42-3.26,10.4-2-1.38,1.86-3.22,3.09-4.81,4.04-1.85,1.1-3.33-2.12-5.59-2.04Z"/>
  <path class="cls-7" d="M84.05,155c-3.34,3.84-7.2,3.49-11.82,2.17,3.96-2.18,7.57-3.14,11.82-2.17Z"/>
  <path class="cls-8" d="M292.49,106.25c-2.05,.04-4.1,.07-6.16,.11-1.77-1.77-3.75-.97-5.71-.47-.46-.04-.92-.07-1.38-.11,3.93-1.7,8.09-1.8,12.2-2.05,1.67-.1,.33,1.81,1.05,2.52Z"/>
  <path class="cls-6" d="M253.17,109.26c-5.08,.05-9.96,2.12-15.1,1.57-.1-1.39,.39-2.15,1.93-2.06,1.33,.08,2.66,.01,4,.01,3.06,.1,6.2-1.2,9.18,.48Z"/>
  <path class="cls-3" d="M207.91,113.45c-.58,.19-1.16,.39-1.75,.58-.2-.72-.4-1.44-.6-2.16,5.85-1.1,11.9-.56,17.68-2.16,.51-.14,.67,.18,.75,.59,.12,.64-.32,.83-.8,.99-4.46,.35-8.92,.7-13.39,1.05-.82,.06-1.83-.21-1.9,1.11Z"/>
  <path class="cls-2" d="M282.28,143.46c1.22-2.95,2.51-5.17,4.96-6.64,.85,3.96,.63,4.27-4.96,6.64Z"/>
  <path class="cls-2" d="M251.9,161c1.16,.64,3.36-.71,3.37,1.08,0,1.62-2.31,2.16-3.8,2.41-1.33,.22-2.48-1.45-2.46-2.37,.06-2.01,1.99-.4,2.89-1.12Z"/>
  <path class="cls-6" d="M207.91,113.45c.07-1.33,1.08-1.05,1.9-1.11,4.46-.35,8.92-.7,13.39-1.05-.09,.38-.18,.77-.27,1.15-5.02,.14-9.97,1.32-15.01,1.01Z"/>
  <path class="cls-5" d="M200.44,110.64c.3-1.94,1.9-3.13,2.73-4.76,1.19,1.03,3.12,2.26,2.41,3.71-.92,1.88-3.35,.87-5.15,1.05Z"/>
  <path class="cls-8" d="M253.17,109.26c-2.98-1.68-6.11-.38-9.18-.48,3.92-2.09,8.29-1.01,12.4-2.15,.34,1.39-1.2,1.74-.9,2.77-.78-.05-1.55-.09-2.33-.14Z"/>
  <path class="cls-4" d="M167.08,134.39c2.6,1.37,5.37,.35,8.05,.49,1.25,.07,.46-1.76,1.48-2.12,.38,2.62-.64,3.7-3.35,3.39-1.31-.15-2.72,.08-4.02,.4-2.1,.53-2.72-.15-2.15-2.16Z"/>
  <path class="cls-1" d="M225.2,154.19c2.05,.47,3.54,1.2,4.87,2.44-3.4,1.44-3.53,1.38-4.87-2.44Z"/>
  <path class="cls-6" d="M186.54,114h3.95c-2.37,1.58-5.01,1.49-7.6,1.66,.41-2.34,2.33-1.34,3.65-1.66Z"/>
  <path class="cls-3" d="M146.94,117.11c-.01,1.89-1.31,1.7-2.56,1.58-1.42-1.04-2.59,.7-3.95,.35,.01-.46,.02-.92,.03-1.37,2.12-.68,4.28-.82,6.48-.56Z"/>
  <path class="cls-2" d="M274.9,154.11c-.34,2.96-1.47,4.12-4.24,3.32,.75-1.85,2.18-2.61,4.24-3.32Z"/>
  <path class="cls-6" d="M277.72,106.94c-2.15,.18-4.3,.36-6.45,.54,1.39-1.98,4.13-2.21,6.45-.54Z"/>
  <path class="cls-1" d="M213.84,143.7c-1.51,.18-2.78-.5-4.05-1.17,.2-.71-.4-1.2-.85-2.06,2.54,.18,3.74,1.67,4.9,3.23Z"/>
  <path class="cls-6" d="M306.72,103.62c2.18-.53,4.36-1.13,6.39,.43-2.33-.2-4.59,.81-6.94,.4,.18-.28,.36-.56,.54-.84Z"/>
  <path class="cls-3" d="M140.46,117.68c-.01,.46-.02,.92-.03,1.37-.71,.08-1.41,.17-2.12,.25-1.05-.02-2.1-.05-3.15-.07,.63-1.89,2.31-.86,3.48-1.24,.21-.05,.43-.11,.64-.16,.39-.05,.79-.1,1.18-.14Z"/>
  <path class="cls-6" d="M280.63,105.89c1.96-.51,3.94-1.3,5.71,.47-1.93,.13-3.85,.25-5.78,.38,.02-.28,.05-.56,.07-.85Z"/>
  <path class="cls-3" d="M202.71,112.34c-1.81,2.09-2.81,2.05-3.95-.15,1.32,.05,2.63,.1,3.95,.15Z"/>
  <path class="cls-12" d="M222.44,152.53c-.34-.42-.67-.84-1.01-1.26,.76,.08,1.05,.54,1.01,1.26Z"/>
  <path class="cls-10" d="M165.83,163.4c.46-.07,.92-.13,1.37-.2-.42,.36-.89,.33-1.37,.2Z"/>
  <path class="cls-12" d="M221.19,150.97c-.26-.24-.51-.47-.77-.71,.39-.2,.78-.4,1.17-.6,0,0,.02,.01,.02,.01-.14,.43-.28,.86-.41,1.3Z"/>
  <path class="cls-10" d="M319.61,112.28c.24-.03,.48-.06,.71-.09-.24,.03-.48,.06-.71,.09Z"/>
  <path class="cls-10" d="M319.02,112.36c.19-.03,.39-.06,.58-.09-.15,.32-.34,.39-.58,.09Z"/>
  <path class="cls-12" d="M60.3,174.03c-.2,.06-.39,.12-.59,.18,.2-.06,.39-.12,.59-.18Z"/>
  <path class="cls-8" d="M139.27,117.82c-.21,.05-.43,.11-.64,.16,.21-.05,.43-.11,.64-.16Z"/>
  <path class="cls-10" d="M249.81,184.07c.29,.08,.57,.16,.86,.24-.29-.08-.57-.16-.86-.24Z"/>
  <path class="cls-12" d="M311.38,129.12c.16-.3,.31-.59,.46-.89,.06,.3,.12,.61,.18,.91-.21,0-.43-.01-.64-.02Z"/>
  <path class="cls-6" d="M322.51,103.05c-.04-.66,.18-1.1,.92-1.18,5.29-.58,10.53-1.65,15.87-1.83,.28,1.14,.05,1.73-1.34,1.81-5.15,.33-10.3,.78-15.45,1.19Z"/>
  <path class="cls-11" d="M188.35,158.76c.89-.41,1.77-.81,2.66-1.22-.02,.4-.04,.79-.06,1.18-.87,0-1.73,.02-2.6,.03Z"/>
  <path class="cls-11" d="M195.75,142.74c.34,.3,.68,.59,1.03,.89-.65,.07-1.3,.16-1.66-.58,.21-.1,.42-.21,.64-.31Z"/>
  <path class="cls-11" d="M221.58,149.67c-.39,.2-.78,.4-1.17,.6-.14-.12-.28-.23-.42-.35,.05-.51,.1-1.01,.15-1.52,.48,.42,.96,.85,1.44,1.27Z"/>
  <path class="cls-6" d="M138.31,119.3c.71-.08,1.41-.17,2.12-.25,1.36,.35,2.53-1.4,3.95-.36,.05,1.68-1.36,1.05-2.12,1.23-3.1,.72-6.29,1.13-9.13,2.71-.76,.42-1.71,.77-1.71,1.77,0,.93,.98,1.18,1.67,1.37,1.2,.32,1.76,1.64,3.33,1.64-1.9,.76-5.63-.57-6.22-2.15-.85-2.29,1.04-2.99,2.5-3.91,1.72-1.09,3.72-1.44,5.61-2.06Z"/>
</svg>