<?xml version="1.0" encoding="UTF-8"?>
<svg id="Layer_1" data-name="Layer 1" xmlns="http://www.w3.org/2000/svg" viewBox="0 0 414 200">
  <defs>
    <style>
      .cls-1 {
        fill: #f3b6d3;
      }

      .cls-2 {
        fill: #00bff3;
      }

      .cls-3 {
        fill: #f5ae41;
      }

      .cls-4 {
        fill: #e7e2d9;
      }

      .cls-5 {
        fill: #ece3cc;
      }

      .cls-6 {
        fill: #edeae0;
      }

      .cls-7 {
        fill: #fff9b8;
      }

      .cls-8 {
        fill: #fff200;
      }

      .cls-9 {
        fill: #ecebea;
      }

      .cls-10 {
        fill: #9ed2f1;
      }

      .cls-11 {
        fill: #bbad98;
      }

      .cls-12 {
        fill: #c7c3c1;
      }

      .cls-13 {
        fill: #444039;
      }

      .cls-14 {
        fill: #717070;
      }

      .cls-15 {
        fill: #56504f;
      }

      .cls-16 {
        fill: #494441;
      }
    </style>
  </defs>
  <path class="cls-13" d="M202.53,87.74c-.6,.16-1.2,.33-1.81,.49-.94-.35-2.07,.25-2.91-.59,2.95-.9,6.17-1.07,8.82-3.35-.76-.57-1.41-1.1-2.1-1.57-2.48-1.72-2.45-2.61,.37-3.96,2.31-1.11,4.68-2.09,7.07-3.02,4.92-1.91,9.65-4.32,14.73-5.81,0,.37,.01,.73,.02,1.1-.91,.45-1.76,1.08-2.84,1.11l-.71,.14c-3.33,1.07-3.45,1.55-.85,3.9,1.19,1.08,2.45,2.11,3.78,3.02,1.17,.8,2.28,2.79,3.87,1.49,1.92-1.56,6.06-1.3,5.05-5.55l-.04,.04c.95,.84,1.84,1.77,2.87,2.52,7.38,5.34,15.67,4.53,23.85,3.06,3.53-.64,6.67-2.98,10.96-3.62-3.93-2.75-7.84-3.41-11.83-3.79-.39-.36-1.54-.47-.44-1.33,4.19,0,8.21,1,11.67,3.24,1.71,1.11,3.23,1.7,5.14,1.45,.69-.09,1.69,.54,1.99-.52,.23-.79-.45-1.44-.95-2.01-.27-.31-.68-.5-1-.77-4.73-4.07-10.68-5.18-16.43-6.76,.06-.46,.31-.75,.75-.89,3.57,.15,6.86,1.48,10.08,2.8,2.03,.83,3.87,1.03,5.96,.67,9.06-1.58,16.45,.88,21.39,9.06,.48,.8,.97,1.22,2.01,1.23,9.62,.07,12.61,6.03,14.43,12.42,.46,1.63,1.17,2.75,2.59,3.51,7.12,3.83,10.64,9.75,10.07,17.88-.25,3.55,1.2,6.74,1.66,10.14,.88,6.53,.32,12.77-2.43,18.74-.65,1.42-1.13,2.85-1.51,4.34-1.21-.22-2.49-1.11-3.54,.34-2.09,1.86-4.94,.61-7.2,1.77-.98-.87-.32-1.86-.29-2.85,.09-2.8,1.14-5.68-.45-8.39l-.02-.03c-.08-.21-.15-.42-.23-.64-.11-.09-.16-.2-.16-.34-.15-.23-.29-.46-.44-.7-.91-1.59-1.72-1.61-2.93-.14-.9,1.09-1.31,2.63-2.75,3.25-.58,.35-.54,.92-.52,1.49-.06,.19-.11,.37-.17,.56-.74,.04-.86,1.14-1.71,.99-.21-.09-.43-.17-.64-.26-.01-.38-.02-.77-.04-1.15,.73-.09,1.14-.39,1.47-1.15,.79-1.78-.19-3.32-.43-4.95-.57-3.98-.87-7.89,2.95-10.65,.68-.49,.86-1.25,.21-1.74-4.07-3.09-3.97-7.47-3.7-11.88,.18-2.9-.04-3.26-2.99-3.18-4.9,.13-10.62-2.57-11.32-8.8-.11-.97-.6-1.49-1.33-2.04-1.44-1.07-3.05-1.4-4.78-1.6-3.46-.4-6.62-1.44-8.54-4.7,.07-.61,.18-1.24-.49-1.63-2.18-.05-2.54,2.39-4.19,3.08-.43,0-.81-.13-1-.56,.69-.75,1.38-1.5,2.06-2.25,.4-.45,.98-1.05,.2-1.46-2.48-1.32-4.59-3.35-7.43-4-.86-.47,.72-1.78-.39-1.8-1.37-.02-2.59,.87-3.75,1.56,1.43,2.69,2.8-.14,4.16,.23,.34,.94-.51,1.15-.97,1.6-.24,.04-.42,.14-.32,.44,.42,1.45,1.68,2.34,2.38,3.6-.18,.44-.55,.59-.99,.6-1.45-2.15-3.49-3.72-5.38-5.43-.48-.43-1.22-1.27-1.58-.21-.55,1.6-.79,3.33-.94,5.03-.1,1.09,1.06,1.49,1.78,2.04,6.06,4.7,9.98,10.29,8.51,18.52-.33,1.85,1.77,2.57,3,3.08,1.14,.47,.9-1.29,1.27-2.04,.37-.75,.53-1.61,.79-2.42,.44-.34,.88-.67,1.31-1.01,0,0,0-.02,0-.02-.09,.48,.04,.86,.48,1.11,.09,.09,.11,.19,.06,.31-.05,.45-.11,.91-.16,1.36-1.04,.31-2.72,3.99-2.12,4.99,1.2,2,2.56,3.9,4.01,6.08,.52-3.58-.07-6.64-1.17-9.63,1.34,.06,1.04,2.09,2.47,2.05,.91,2.84,.96,5.77,.61,8.68-.21,1.75,.03,3.4,.42,5.09,1.86,7.92,3.27,15.83-.84,23.56-.81,1.52,.78,2.28,1.4,3.26,.58,.92,1.26,0,1.92-.35,3.41-1.84,6.97-3.02,10.9-1.84,1.99,.6,3.14-.05,3.35-2.18,.08-.21,.16-.43,.24-.64,.07-.3,.14-.6,.2-.9,.06-.28,.11-.56,.17-.84,.61-1.76,1.35-3.45,3.05-4.47,.79,.26,.37,.82,.31,1.29-1.31,1.51-2.13,3.26-2.56,5.21,.01,.3,.18,.4,.46,.36,1.9-.78,3.85-.08,5.73-.19,3.19-.19,2.23,1.55,1.87,3.06-.62,2.56-1.32,5.1-2.48,7.49-.35,.23-.33,.4,.09,.49,.16,0,.3,.05,.43,.14-.07,1.55,1.07,1.38,2.04,1.46,.06,.13,.08,.27,.08,.42,.74,1.05,1.81,.48,2.75,.55,1.85-.13,3.77,.15,5.44-.97,.5,.01,.92-.12,1.08-.67,.18-.12,.36-.24,.55-.37,.63,0,1.27-.02,1.65,.63l-.09-.12s.07,.13,.07,.13c-.81-.19-1.34,.17-1.69,.86,0,0-.04,.02-.04,.02-.44,.02-.81,.15-.99,.59-.27,.4-.67,.5-1.12,.47-.12,0-.22,.03-.31,.11-1.05,.82-2.6,.48-3.57,1.5-.62-.04-1.24-.08-1.86-.12-.6-1.69-2.27-.9-3.38-1.44-2.74-1.34-4.9-.53-7.45,1.2-5.17,3.49-10.9,5.37-17.17,2.5-.83-.38-5.36,1.4-5.82,2.15-.39,.64,.15,.89,.49,1.25,1.87,1.94,4.17,2.85,6.83,3.1,4.69,.45,9.2-.56,13.72-1.5v1.07c-3.32,1.14-6.75,1.96-10.27,1.72-4.75-.32-9.36,.37-14.03,1.02-6.13,.86-12.29,1.02-18.37-.55-.83-.22-1.5-.04-2.2,.34-1.29,.69-2.65,1.18-4.12,1.28-.02-.36-.03-.73-.05-1.09,.87-.3,1.76-.56,2.61-.91,.62-.25,1.11-.77,.3-1.24-1.69-.99-2.8-3.26-5.31-2.57-.35,.02-.69,.03-1.04,.05-.85,.29-1.85,1.05-2.06-.66,3.17-.82,6.52-.75,9.62-1.93,3.89-.82,6.96-3.15,10.04-5.46,1.74-1.3,1.75-2.33,0-3.55-.93-.65-1.97-.96-3.13-1.04-3.28-.23-6.54-.06-9.72,.71-6.89,1.67-13.74,3.47-19.99,6.98-1.52,.81-3.34,1.07-4.78,2.48,1.68,.77,3.17,1.32,4.81,1.39h-.02c.17,.03,.34,.07,.5,.11,.37,.32,1.54,.38,.41,1.21-.3-.24-.57-.18-.84,.06-2.02-.29-3.97-.77-5.8-1.75-1.37-.73-2.9-.22-3.77,.66-.61,.61,.74,1.52,1.3,2.2,.96,1.19,2.08,2.25,3.13,3.36,.17,.1,.34,.19,.5,.29,1.54,.26,3.08,.53,4.63,.79,.52,.4,.24,.81,.02,1.22-.37-.06-.73-.11-1.1-.17-.34-.09-.69-.18-1.03-.27-.16-.03-.32-.06-.48-.1-1.36-.28-2.65-1.38-4.13-.41-.34,0-.67,0-1.01,0,0-.35,0-.71-.01-1.06-.27-2.87-3.77-5.68-6.64-5.32-.04-.32-.07-.65-.11-.97,7.5-1.26,13.85-5.3,20.94-8.37-3.62-2.28-7.17-3.27-11.02-3.16-6.97,.19-13.44,2.21-19.64,5.31-.93,.47-1.88,1.57-3.13,.58-.4-1.35,1.31-.66,1.43-1.5-5.3-3.57-5.91-3.87-9.42-3.72-1.95,.09-3.89,.42-5.84,.65-.35,.02-.7,.04-1.05,.05-.55,.14-1.1,.28-1.65,.43-1.38-.15-.84-.92-.53-1.62,2.92-.25,5.82-.66,8.63-1.55,.8,.2,1.6,.39,2.39,.59,1.6,.55,3.55,.7,4.74,1.72,3.07,2.63,6.05,2.98,9.39,.79,.2-.06,.4-.12,.6-.17,.99-.52,3.03-.51,1.24-2.45,.3-.28,.73-.74,1.04-.36,1.53,1.92,3.23,.97,4.93,.42,.66,.04,1.08-.22,1.14-.92,1.5-3.01,3.77-5.49,6.82-6.61,2.56-.94,1.95-2.21,1.09-3.58-2.05-3.26-2.69-6.9-3.29-10.58,.12-1.93,.08-3.83-.72-5.65-.3-.69-.32-1.4-.19-2.12,.06-.05,.17-.13,.16-.15-.05-.13-.13-.25-.2-.37-.4-5.53-.02-11.05,.1-16.58,.59-1.02,.32-2.1,.23-3.16,0,0,0,.02,0,.02,.35,.02,.7,.05,1.04,.07,.25,.7-.28,1.51,.28,2.18,1.99-1.62,3.95-3.24,5.95-4.81,.66-.52,1.11-.87,.61-1.87-.92-1.81-1.63-3.72-2.45-5.64-1.61,.61-.95,2.97-2.67,3.45-.37-.01-.73-.02-1.1-.04-.07-.63,.23-1.11,.61-1.57,.11-.25,.21-.51,.32-.76,.75-1.38,2.22-2.37,2.27-4.14,.06-2.68,.32-4.99-3.07-6.57-3.72-1.74-6.89-4.76-9.59-7.96-1.47-1.74-2.79-2.21-4.75-1.18-1.13,.59-2.32,1.06-3.48,1.58,.21,1.28,1.32,1.41,2.02,1.96,2.28,1.8,2.26,2.65-.26,3.96-.91,.47-1.89,.78-2.84,1.17-.27,.07-.54,.14-.8,.21Zm83.01,3.08c-.02-.87,.56-2.02-.98-2.2-2.11-.24-4.27,.29-6.36-.35-.39-.08-.87-.29-1.07,.18-.25,.59,.32,.58,.68,.69,1.15,2.55,3.5,3.3,5.9,3.89,2.31,.57,2.56,.22,1.83-2.21Zm20.8,23.03c-.08,.59-.19,1.18,.36,1.63,.32,1.91,.97,3.62,3.07,4.84-.18-2.42,1.89-4.28,1.39-6.14-.52-1.95-2.38-3.52-4.35-4.83-.63,1.6-.31,3.08-.47,4.5Zm-57.35,38.36c-.51,.44-.72-.08-1.01-.31-3.59-2.76-4.08-2.6-5.18,1.59-.26,.99-.65,1.95-.99,2.92-.42,1.18-.07,1.98,1.24,1.76,2.01-.33,4.26-.43,5.87-1.47,1.28-.83-.44-2.81-.12-4.31,.02-.07,.1-.13,.16-.2,3.78-2.6,4.17-4.79,1.95-11.88,.24,4.12-2.37,7.75-1.92,11.91Zm53.74-65.33c-.03,.43-.06,.86-.1,1.3-4.27-.76-8.54-.49-12.8,.06-1.02,.13-2.65-.4-2.96,.84-.36,1.48,.34,3.11,1.42,4.23,1.19,1.23,2.7,2.16,4.4,2.54,5.76,1.28,11.59,2.3,17.25,4,1.07,.32,1.59,0,1.28-1.05-.73-2.52-1.27-5.17-3.48-6.96l.13-1.42c1.77,.4,2.26,1.99,2.97,3.31,1.11,2.07,1.54,4.36,1.88,6.66,.11,.72,.4,1.48,1.18,1.44,.81-.04,.57-.92,.62-1.46,.26-3.02,.16-6.02-.72-8.94-1.61-5.35-4.57-9.38-10.44-10.47-1.65-.31-2.78-.26-1.77,1.97,.55,1.23,.75,2.63,1.11,3.95Zm11.35,28.93c1.18,.46,2.25,1.11,3.17,1.97,1.43,1.35,2.01,.53,2.42-.89,.6-2.1,.36-4.17-.58-6.04-3-5.99-7.49-10.1-14.4-11.09-1.54-.22-1.13,.58-.93,1.3,.82,2.88,2.7,5.09,4.59,7.32,2.02,2.38,4.21,4.63,5.71,7.41-.32,.07-.64,.14-.96,.21-1.17-.06-1.34,.85-1.61,1.66-.63,1.83-.49,3.73-.58,5.62-.05,1.12,.64,2.93-1.83,2.36-.4-.09-1.11,.58-1.42,1.31-1.05,2.5-1.01,5.02-.33,7.58,.31,1.19,.74,1.27,1.77,.48,2.21-1.69,2.15-3.71,1.25-5.98-.03-.64-.06-1.28-.09-1.92,.12-.1,.23-.27,.35-.28,.12,0,.33,.15,.35,.26,.83,4.09,3.54,7.17,5.58,10.62,.55,.93,.92,.71,1.55,.39,.02,.4,.03,.79,.05,1.19-2.9,1.67-.36,5.02-2.53,6.97,3.75,.51,8.92-1.21,10.61-5.03,2.56-5.79,2.76-11.63,2.01-17.65-.18-1.44,.13-3.1-1.18-4.52-1.41,2.11-2.73,4.2-5.01,5.37-.52,.26-.36,.92-.37,1.42-.34,.01-.68,.02-1.02,.04-.92-3.94-3.28-6.8-6.6-8.96,0-.37,.02-.75,.02-1.12Zm-61.45-13.66c-.15,.34-.32,.57-.33,.79-.25,9.38-1.12,18.77-.6,28.15,.33,6.02,.67,12.12,3.51,17.73,1.29,2.55,2.55,5.07,4.62,7.08,.8,.78,1.66,1.81,2.85,1.29,.97-.43,1.08-1.67,1.26-2.68,.08-.42,.07-.86,.11-1.29,.81-8.88-.29-17.73-.32-26.6,0-1.22-.35-2.44-1.08-3.41-3.97-5.29-6.44-11.25-8.16-17.59-.33-1.21-.61-2.6-1.86-3.5Zm-19.35,57.23c.08-.26,.19-.44,.16-.59-1.88-8.28-1.28-16.59,.26-24.78,.77-4.13-.08-7.65-1.97-11.07-2.78-5.05-4.28-10.2-1.99-15.85,.17-.41,.37-.83-.05-1.16-.53-.43-.96-.04-1.34,.3-1.46,1.32-2.79,2.86-4.41,3.94-1.64,1.09-2.22,2.55-2.36,4.3-.89,11.4-.35,22.6,4.7,33.15,1.97,4.11,3.33,8.58,6.99,11.76Zm22.24-55.53c1.06,5.73,3.12,10.7,6,15.27,4.18,6.64,8.81,13.03,10.37,20.94,.41,2.1,.56,4.25,.7,6.39,.14,2.1,1.96,2.75,3.29,3.16,1.17,.36,1.9-1.29,2.29-2.51,.13-.41,.23-.83,.33-1.24,1.59-7.04,.51-13.7-1.66-20.59-3.44-10.9-11.91-16.19-21.31-21.42Zm-5.98,34.54c.44-6.08-2.36-11.58-5.68-16.83-3.15-4.98-8.39-8.11-11.79-12.9-.65-.91-1.38-.86-1.75,.46-.91,3.24-.45,6.51,.89,9.33,2.93,6.16,5.3,12.58,8.8,18.5,1.81,3.06,3.01,6.55,3.61,10.15,.29,1.73,1.83,2.08,3.07,2.32,1.49,.29,1.33-1.35,1.61-2.19,.91-2.71,1.33-5.52,1.24-8.83Zm16.77-29.7c.47-.9,.56-1.72,.6-2.59,.38-7.61-5.96-13.77-12.28-16.9-2.09-1.04-4.28-1.98-5.78-3.72-2.79-3.24-6.94-3.87-10.36-5.87-.5-.29-1.05-.55-1.43,.34-.88,2.04-.02,8.55,1.6,9.92,3.63,3.08,6.79,6.7,11.28,8.75,2.61,1.19,4.92,3.05,7.38,4.58,2.97,1.84,5.95,3.65,8.97,5.5Zm-30.31-29.5c-6.17,2.33-8.9,6.22-9.25,12.16-.48,8.12,4.02,13.86,8.91,19.46,.38,.44,.9,.66,1.25,.03,1.73-3.05,3.85-6.19,2.57-9.8-.88-2.48-.93-4.97-1.38-7.45-.18-1.01-.21-2.02-.7-2.98-1.79-3.52-2.78-7.17-1.41-11.43Zm50.71,79.47c-5.58-1.62-10.53-1.51-15.64,.17-5.39,1.76-10.13,4.54-14.56,7.92-1.46,1.11-3.55,1.16-4.86,3.07,13.95,3.3,24.63-2.72,35.06-11.15Zm-1.98,8.32c7.89-.06,16.07-5.94,18.2-12.85,1.07-3.47,.52-4.12-3.11-4.01-1.31,.04-2.29,.59-3.21,1.39-4.45,3.82-8.65,7.93-13.31,11.52-1.04,.8-3.11,1.7-2.67,2.68,.65,1.45,2.83,1.06,4.11,1.28Zm-1.97-79.89c3.46,.33,6.65-.68,9.91-.67,.72,0,1.84,.38,2.1-.36,.38-1.05-.79-1.64-1.5-2.11-7.34-4.9-15.12-7.55-23.96-4.41-.72,.26-1.79,.19-2,.93-.27,.92,.7,1.56,1.37,1.97,4.38,2.66,8.66,5.73,14.07,4.65Zm-33.06,15.77c.61-2.34-.86-3.83-3.35-4.75-1.19-.44-2.04-2-3.65-.79-1.54,1.16-2,2.48-1.79,4.45,.36,3.36,.15,6.69-2.57,9.29-.95,.91-1.03,2,.23,2.78,1.72,1.06,2.95,2.62,4.19,4.14,.87,1.06,1.27,1.24,2.22,0,3.3-4.34,4.69-9.24,4.72-15.12Zm50.81-16.85c-3.33-14.78-15.43-17.82-23.48-15.07,1.3,.78,2.58,1.73,2.89,3.16,.62,2.87,2.71,3.49,5.1,4.22,4.04,1.24,7.81,3.22,10.72,6.32,1.5,1.6,2.94,1.7,4.77,1.37Zm-64.69,45.66c-.21,.04-.42,.08-.63,.12-.2,1.59-.45,3.17-.59,4.76-.56,6.41-1.84,12.82-.35,19.26,.29,1.27,.3,3.02,2.04,3.2,1.63,.17,3.1-.81,3.81-2.18,1.91-3.65,2.79-7.55,1.76-11.68-1.22-4.86-4.41-8.81-6.04-13.48Zm90.98-20.68c.21-4.23-2.19-8.72-6.54-12.3-2.74-2.26-2.76-2.23-4.08,.95-.42,1.01-.45,1.97-.59,2.97-.08,.59,.01,1.07,.51,1.6,4.04,4.35,6.87,9.01,3.92,15.24-.58,1.23,.35,2.66,1.13,3.49,.68,.72,1.33-.68,1.96-1.15,3.14-2.31,3.91-5.63,3.69-10.79Zm-61.07,17.17c-.25,.05-.5,.09-.74,.14,.15,2.02,.37,4.04,.43,6.07,.18,6.92,.29,13.85-.16,20.77-.13,1.95,1.47,2.94,3.2,2.09,1.59-.78,2.8-1.95,2.78-3.95-.03-2.67,.03-5.33,0-8-.1-6.29-3.11-11.6-5.5-17.12Zm-47.57-53.51c-1.49,.6-3.23,1.33-4.98,1.99-1.27,.47-1.06,1-.27,1.81,3.05,3.13,6.31,6.01,9.86,8.54,2.49,1.78,2.77,1.56,3.96-1.34,.26-.63,.54-1.28,.95-1.82,.73-.99,.54-1.57-.47-2.27-2.67-1.84-5.4-3.61-7.48-6.17-.32-.4-.69-.78-1.56-.74Zm29.3,95.93c3.4,4.67,21.17,6.31,27.52,2.6-1.94-3.07-4.49-3.33-7.84-2.24-5.6,1.81-11.31,1.87-16.83-.62-1.05-.47-1.95-.46-2.85,.26Zm54.36-65.12c.63-.06,1.5,.3,1.91-.66,.16-.39-2.08-5.68-2.46-5.76-2.59-.55-5.18-1.08-7.78-1.58-.72-.14-1.18,.13-.97,.99,1.04,4.26,4.43,6.83,9.31,7.01Zm-84.07,51.42c3.42,.05,6.43-.34,9.37,.49,.37,.1,.9,.04,1.22-.16,1.12-.71,.42-1.61-.08-2.17-1.23-1.4-.72-4.77-3.24-4.32-3.12,.55-5.4,2.99-7.28,6.17Zm32.7-46.91c-.91,2.5-1.4,5.3-3.2,7.4-3.19,3.71-2.74,3.03-.04,6.35,1.21,1.5,2.17,1.39,2.93-.4,.2-.46,.3-1,.3-1.5,.02-3.95,.01-7.9,.01-11.86Zm30.59,46.08c1.02,.24,1.9,.31,2.65,.66,3.5,1.62,5.74-.27,7.91-2.64,.87-.95,.75-1.48-.47-1.72-2.58-.51-8.08,.05-10.09,3.7Zm-27.56,.8c1.25-.18,2.79,.37,3.33-.56,1.33-2.32-1.76-3.24-2.02-5.19-.12-.89-.79-1.55-1.82-1.27-1.13,.31-2.71,4.18-2.41,5.92,.37,2.17,2.1,.58,2.93,1.09Zm18.3-.27c1.9-.47,3.68-.4,5.44-.47,1.54-.06,1.99-.98,1.1-1.93-1.59-1.72-3.06-3.73-5.65-4.5-.27,2.39,.43,4.69-.9,6.9Zm-23.21-73.05c1.68,1.32,2.81,2.83,4.81,3.37,.14-4.22-.12-4.42-4.81-3.37Zm12.34,74.91c1.85,2.74,2.6,2.77,5.45,.39-1.71-2.05-3.55,.21-5.45-.39Zm-3.71-74.01c-.06-.81,.13-1.64-.96-1.57-1.37,.09-1.13,1.12-.94,1.9,.27,1.06-.52,3.09,.65,3.01,1.27-.09,.8-2.28,1.25-3.34Zm-6.76,48.02c0-2.12,.04-3.57-.02-5.01-.02-.54,.41-1.58-.78-1.37-.75,.13-1.1,.85-.87,1.6,.44,1.41,.97,2.8,1.67,4.78Zm-10.07-38.89c.03,1.14-.68,2.45,.42,3.28,.53,.4,1.17-.37,1.36-.85,.57-1.45-.99-1.64-1.78-2.43Z"/>
  <path class="cls-16" d="M218.98,176.06c0,.35,0,.71,.01,1.06-8.17,.31-16.32,.29-24.3-1.84-1.08-.29-2.01-.23-2.99,.13-7.26,2.65-14.65,2.64-22.09,1-2.06-.46-4.02-.45-6.09-.11-7.75,1.28-15.52,2.04-23.27-.08-.92-.25-1.82-.09-2.74,.32-10.39,4.68-20.84,5.39-31.34,.36-1-.48-1.81-.06-2.71,.24-3.84,1.28-7.74,2.26-11.82,2.41-2.28,.08-4.44-.44-6.58-1.11-1.03-.32-2.02-.76-.39-1.74,6.22,2.92,12.22,.9,18.24-.79,.59-.17,1.06-.4,.73-1.28-1.12-2.92-3.24-4.08-6.31-3.36-.41,.1-.85,.07-1.27,.1,0-.33,0-.66,0-.99,6.53-1.69,12.61-4.45,18.76-7.55-.43-.38-.59-.6-.8-.7-.38-.19-.79-.34-1.2-.45-8.71-2.28-17.25-2.38-25.42,2.07-1.49,.81-3.04,1.46-4.78,1.49,.22-1.2,.45-2.4,.67-3.6,1.13,.33,2.15,1.43,3.36,.95,2.78-1.11,5.51-2.39,9.08-3.4-4.64-2.04-8.83-2.77-13-3.53-.09-.95,.45-1.25,1.28-1.25,.22,.07,.45,.14,.67,.21,4.21,.95,8.41,1.74,12.34,3.85,2.14,1.15,5.08,.97,7.37-.4,2.11-1.27,4.19-2.43,6.62-2.86,.18,.05,.36,.11,.54,.16,0,.31,0,.62,0,.93-1.58,1.12-3.81,.89-5.61,2.77,2.85,.46,5.63,.27,7.73,1.58,3.61,2.25,6.13,.21,9.02-1.33-.78-1.23-2.06-1.5-2.91-2.31,0-.37,.02-.75,.03-1.12,.17-.05,.33-.05,.5,0,.07,.3,.26,.41,.56,.34,1.24,.75,2.46,1.52,3.71,2.25,1.93,1.14,5.25,.55,7.43-1.35,1.3-1.13,2.54-2.31,4.23-2.84,.19-.08,.39-.16,.58-.23l.53-.25c.16-.05,.31-.11,.47-.16,.91-.4,1.86-.47,2.84-.44,.39-.01,.78-.02,1.18-.03,.12-.13,.24-.13,.36,0,.53,.01,1.07,.02,1.6,.03,4.61,.04,7.83,3.05,11.36,5.38,1.5,.99,2.98,1.14,4.14-.24,6.33-7.55,17.33-6.34,23.02,.05-.31,.7-.86,1.48,.53,1.62-6.35,2.37-12.61,4.93-18.51,9.03,5.32,3.01,10.56,2.73,15.86,1.91,6.51-1.01,12.24-4.14,18.12-6.84,.29,.22,.58,.45,.88,.67-1.23,1.11-2.84,1.55-4.22,2.4-.48,.3-1.31,.39-1.3,1.06,.02,.83,.93,.87,1.52,1.14,.46,.21,.97,.32,1.46,.47,3.61,1.1,7.3,.5,10.96,.49,0,.33,0,.66,0,.99-2.97,.66-5.95,.59-8.97,.27-2.46-.26-4.59-1.33-6.8-2.25-1.01-.42-2.03-.22-2.52,.6-.47,.78,.52,1.34,1.04,1.84,1.89,1.8,4.41,2.21,6.79,2.74,7.19,1.6,14.52,1.4,21.82,1.52Zm-83.34-8.17c2.93,2.15,6.23,2.65,9.51,2.71,9.29,.17,18.25-1.05,25.62-7.36-9.19-5.5-23.99-1.51-35.14,4.65Zm-13.71,11.08c1.54-.14,3.1-.18,4.62-.44,1.94-.33,3.89-.72,5.77-1.29,5.68-1.73,5.67-1.77,1.47-5.78-.19-.18-.4-.33-.56-.53-1.31-1.62-2.81-1.86-4.79-1.15-3.96,1.42-8.18,1.77-12.33,2.11-3.82,.31-7.7-.06-11.14-2.09-.93-.55-1.63-.29-2.36,.19-.5,.33-.21,.75,.06,1.09,1.42,1.81,2.48,3.96,4.75,4.96,4.63,2.04,9.44,3.14,14.52,2.92Zm21.5-16.25c-5.58-2.55-10.99-2.44-16.3-2.27-7.89,.26-13.94,5.6-21.04,8.27,13.19,3.83,25.05-.53,37.35-6Zm-9.64,6.32c2.27,2.84,4.55,5.65,8.43,6.37,5.28,.98,10.59,.88,15.88,.29,2.01-.22,4.2,0,6.28-1.29-2.93-2.05-5.18-4.07-9.25-3.25-7.13,1.45-14.44,1.68-21.33-2.13Zm19.66-9.36c-5.73-6.8-16.88-7.14-20.8-.65,.99,.13,1.91,.27,2.83,.37,2.46,.27,5.11,.2,7.18,1.61,1.74,1.19,3.24,.91,4.94,.41,1.88-.55,3.75-1.12,5.84-1.74Zm27.45-.43c-5.18-6.09-14.39-6.6-19.46-1.18-.22,.23-.48,.63-.42,.87,.17,.67,.81,.47,1.29,.48,3.25,.09,6.2,1.26,9.11,2.55,.83,.37,1.53,.59,2.43,.2,2.27-1,4.59-1.9,7.06-2.92Zm-20.05,11.06c9.41,7.38,19.43,6.51,30,4.21q-3.04-4.07-7.08-3.09c-.17,.04-.33,.08-.5,.13-6.65,1.7-13.23,2.33-19.51-1.34-.77-.45-1.61-.48-2.91,.09Z"/>
  <path class="cls-16" d="M226.73,71.02c0-.37-.01-.73-.02-1.1,2.86-1.31,5.73-2.61,8.58-3.95,.49-.23,1.48-.49,1-1.15-1.3-1.79-1.54-4.34-3.82-5.43-.01-.24-.02-.49-.03-.73-.32-1.8-1.37-.56-1.85-.3-3.38,1.79-6.72,3.67-10.03,5.6-.45,.26-1.44,.31-1.06,1.32v.03c-1.93-.16-3.22,1.11-4.65,2.07h-.01c-.36-.01-.73-.04-.51,.52h0c-1.01-.31-1.62,.19-2.06,1.04h0c-.37-.03-.72-.03-.51,.52h0c-1-.08-1.9,.02-2.06,1.29,0,.24-.02,.47-.02,.71l-.05,.03,.06,.03c-1.9-1.91-2.79,.67-4.19,.95-.95,.36-1.96,.64-2.51,1.62h-.01c-1.27,.04-2.12,1-3.19,1.45-.74,.55-1.48,1.11-2.22,1.66,0,0-.05,.02-.05,.02-2.51,1.27-3.65,4.14-6.23,5.33l-.13-.12c-.02-.37-.04-.75-.05-1.12,2.8-3.12,5.82-5.95,9.69-7.74,4.13-1.9,4.27-2.13,1.43-5.56-5.84-7.04-10.9-14.63-16.24-22.03-2.54-3.52-4.51-7.44-7.43-10.68-.41-.45-.53-.97-.07-1.32,.43-.33,.93-.14,1.28,.38,.48,.7,1.02,1.35,1.54,2.03,1.1,2.62,3.11,4.63,4.63,6.96,5.43,8.3,11.36,16.23,17.51,24,2.73,3.45,2.62,3.34,6.63,1.21,2.11-1.13,2-2.07,.56-3.55-4.54-4.66-7.97-10.2-11.89-15.35-4.5-5.92-8.39-12.31-12.54-18.49,.18-.33,.24-1,.82-.59,.54,.38,1.02,.92,1.39,1.47,3.37,4.95,6.57,10.02,10.09,14.85,4.47,6.14,9.22,12.07,13.8,18.13,.85,1.12,1.51,1.17,2.76,.52,5.31-2.79,10.57-5.68,15.74-8.71,1.11-.65,1.21-1.17,.74-2.41-1.99-5.28-.63-11.74,3.81-14.7,4.43-2.94,11.63-1.69,14.81,2.88,1.61,2.31,2.88,2.26,4.94,1.1,5.81-3.29,11.66-6.52,17.51-9.74,12.16-6.67,24.34-13.3,36.49-19.98,4.2-2.31,8.33-4.75,12.52-7.07,.9-.49,2.34-1.59,2.03,.9-1.36-.24-2.15,.82-3.16,1.37-.34,.15-.67,.31-1.01,.46-.68,.39-1.35,.78-2.03,1.16-.9,.51-2.05,.52-2.76,1.4-.29,.16-.58,.32-.87,.48-3.25,1.8-6.5,3.6-9.75,5.41-1.47,.8-2.93,1.59-4.4,2.39-.28,.15-.55,.3-.83,.45-1.09,.47-2.18,.96-3.05,1.81-.92,.45-1.86,.84-2.74,1.34-7.4,4.17-15.04,7.92-22.25,12.45-1.16,.31-2.26,.72-3.16,1.56-.86,.51-1.73,1.02-2.59,1.54-.41,.25-.83,.5-1.24,.75-2.97,1.18-5.68,2.82-8.32,4.58-1.34,.49-2.64,1.07-3.78,1.95-.51,.34-1.02,.68-1.53,1.02-.31,.19-.62,.38-.93,.56-.33,.2-.65,.39-.98,.59-.35,.18-.69,.36-1.04,.54-1.25,0-2.13,.91-3.17,1.39-1.05,.49-.82,1.13,.29,1.39l-.18,.53c-.55,.53-.48,1.03,.06,1.52,.49,.91,1.02,1.79,1.45,2.72,.92,1.97,2.05,2.25,4.03,1.13,4.38-2.49,8.96-4.62,13.38-7.05,11.99-6.61,23.93-13.3,35.91-19.94,3.13-1.74,6.33-3.36,9.47-5.1,6.35-3.53,12.68-7.11,19.02-10.67,.4,.05,.99-.16,1.13,.35,.2,.73-.47,1.04-.98,1.32-3.58,2.01-7.15,4.04-10.76,6-3.22,1.75-6.51,3.38-9.71,5.16-11.97,6.62-23.91,13.3-35.88,19.92-3.74,2.07-7.46,4.18-11.32,6-2.16,1.02-2.32,2.27-1.59,4.25,.53,1.44,.91,2.98,1.02,4.5,.11,1.55,.86,2.28,2.19,2.69-.43,.14-.69,.43-.75,.89-1.18,1.71-.42,3.57-.43,5.37-1.11,.86,.04,.97,.44,1.33-4.46-.14-8.91-.43-13.37-.36-3.25,.05-5.88-.55-7.65-3.61-.86-1.48-2.02-1.69-3.36-.02-1.45,1.81-1.12,3.86-1.46,5.83l.04-.04c-.94,.08-1-.55-1.12-1.27-.38-2.24,.56-4.07,1.72-5.84,.2-.11,.5-.23,.28-.49-.08-.1-.43,.02-.66,.04-2.74,1.38-5.58,2.54-8.52,3.43Zm19.83,.44c1.49-.09,2.43-.19,3.38-.19,1.07,0,1.39-.47,1.02-1.44-1.14-3.02-2.36-5.95-4.33-8.6-2.09-2.81-3.84-5.93-4.52-9.44-.27-1.38-.52-2.73,2.03-2.69,2.22,.04,4.22-1.63,6.11-2.92,.79-.54,0-1.25-.34-1.78-1.59-2.56-4.11-3.81-6.87-4.59-5.04-1.42-9.5,1.36-10.25,6.52-.7,4.78,0,9.38,2.31,13.73,1.66,3.12,4.08,5.65,6.03,8.53,1.56,2.3,3.29,3.38,5.45,2.88Zm12.13-2.99c-.1-3.53-.85-6.78-1.67-10.04-.44-1.72-1.01-1.82-2.56-1.11-1.64,.76-3.14,1.75-4.79,2.46-1.27,.54-1.38,1.21-.7,2.39,1.28,2.23,2.42,4.54,3.18,7.02,.62,2.03,2.54,2.98,5.3,2.5,2.23-.38,.72-2.27,1.24-3.22Z"/>
  <path class="cls-7" d="M244.15,52.93l.18-.53s-.05,.02-.05,.02c.86,.23,1.44-.31,2.05-.76,4.65-2.23,9.32-4.42,13.48-7.53,0,0,0,0,0,0,5.21-2.36,10.33-4.91,14.99-8.29,0,0,0,0,0,0,7.02-2.92,13.34-7.17,20.05-10.69,6.88-3.61,13.59-7.56,20.36-11.39,.87-.49,2.31-.22,2.48-1.73,0,0-.02,.02-.02,.02,1.37-.05,2.67-.2,2.93-1.94-.03-.32-.07-.64-.1-.95,1.01-.55,1.8-1.61,3.16-1.37,.25,3.09,3.59,4.65,3.84,7.74-6.34,3.56-12.67,7.14-19.02,10.67-3.13,1.74-6.33,3.36-9.47,5.1-11.97,6.64-23.92,13.33-35.91,19.94-4.41,2.43-9,4.56-13.38,7.05-1.98,1.12-3.11,.84-4.03-1.13-.43-.93-.97-1.82-1.45-2.72-.02-.51-.04-1.01-.06-1.52Z"/>
  <path class="cls-10" d="M186.16,31.15c4.15,6.18,8.04,12.57,12.54,18.49,3.91,5.15,7.35,10.69,11.89,15.35,1.44,1.48,1.56,2.42-.56,3.55-4.01,2.13-3.9,2.24-6.63-1.21-6.15-7.78-12.08-15.7-17.51-24-1.52-2.33-3.53-4.34-4.63-6.96,.88-.1,.99-.7,1.06-1.45,.36-3.69,.38-3.69,3.84-3.76Z"/>
  <path class="cls-10" d="M82.62,165.24c1.74-.04,3.29-.68,4.78-1.49,8.17-4.45,16.71-4.35,25.42-2.07,.41,.11,.82,.26,1.2,.45,.21,.1,.37,.32,.8,.7-6.15,3.11-12.24,5.86-18.76,7.55-.54,.1-1.08,.21-1.61,.31-.21,.04-.42,.08-.63,.12-3.65,.23-7.3,.45-10.95,.68-.56-.14-1.46-.24-.91-1.04,1.14-1.67,.49-3.47,.67-5.2Z"/>
  <path class="cls-10" d="M96.06,171.37c.42-.03,.86,0,1.27-.1,3.07-.72,5.2,.44,6.31,3.36,.33,.88-.14,1.11-.73,1.28-6.02,1.69-12.02,3.71-18.24,.79,.06-1.31,.12-2.62,.18-3.94,3.75-.33,7.57-.12,11.2-1.39Z"/>
  <path class="cls-10" d="M209.32,157.33c1.79,1.94-.25,1.93-1.24,2.45-.2,.06-.4,.12-.6,.17-3.34,2.19-6.32,1.83-9.39-.79-1.2-1.02-3.14-1.17-4.74-1.72,.96-1.41,2.79-.7,3.94-1.65,3.24-.49,6.46-.66,9.59,.55,.66,.59,1.43,.87,2.32,.81,.12,.05,.16,.11,.11,.18Z"/>
  <path class="cls-10" d="M82.74,155.66c4.17,.77,8.36,1.5,13,3.53-3.58,1.01-6.3,2.28-9.08,3.4-1.2,.48-2.23-.62-3.36-.95-1.33-1.89-.42-3.99-.56-5.99Z"/>
  <path class="cls-16" d="M316.74,161.16c-.38-.65-1.02-.64-1.65-.63,1.93-1.31,3.64-2.85,4.8-4.89,1.46-2.58,2.84-5.22,4.25-7.83,.24,.45,.49,.89,.73,1.34-1.89,4.56-4.09,8.91-8.12,12.02Z"/>
  <path class="cls-16" d="M307.14,164.6c.62,.04,1.24,.08,1.86,.12-4.32,3.73-9.1,6.63-14.62,8.21,0-.36,0-.71,0-1.07,4.46-2.07,8.95-4.08,12.77-7.26Z"/>
  <path class="cls-15" d="M197.81,87.63c.84,.84,1.97,.24,2.91,.59-2.32,.69-4.67,.86-7.08,.53-4.24-.59-5.17-2.34-3.25-6.29,.25,.33,.5,.65,.75,.98-.52,3.14-.27,3.53,2.87,3.97,1.25,.18,2.54,.15,3.8,.22Z"/>
  <path class="cls-13" d="M96.06,171.37c-3.64,1.26-7.45,1.05-11.2,1.39,0,0-.04,.02-.04,.02-.35-.29-.73-.23-1.12-.1-.57-.19-.81-.6-.83-1.18,3.65-.23,7.3-.45,10.95-.68,.21-.04,.42-.08,.63-.12,.54-.1,1.08-.21,1.61-.31,0,.33,0,.66,0,.99Z"/>
  <path class="cls-16" d="M245.33,175.66c.02,.36,.03,.73,.05,1.09-2.46,1.26-5.1,1.62-7.81,1.59,0-.33,0-.67,0-1,2.59-.56,5.17-1.12,7.76-1.68Z"/>
  <path class="cls-13" d="M111.56,156.3c0-.31,0-.62,0-.93,2.57-.94,5.13-.3,7.68,.1,.19,.14,.38,.28,.58,.42,0,.37-.02,.75-.03,1.12-.34-.1-.69-.21-1.03-.31-.19-.09-.37-.19-.56-.28-2.21-.04-4.43-.08-6.64-.12Z"/>
  <path class="cls-13" d="M206.89,156.34c-3.14-1.21-6.36-1.05-9.59-.56,0-.35,.01-.7,.02-1.05,2.94-.88,5.86-.95,8.76,.13,.26,.42,.65,.49,1.1,.44,0,0-.02-.01-.02-.01-.01,.19-.02,.38-.04,.57-.08,.16-.15,.32-.23,.48Z"/>
  <path class="cls-16" d="M222.1,101.03c.37,.01,.73,.02,1.1,.04-.57,2.23-1.14,4.47-1.72,6.7-.35-.02-.7-.05-1.04-.07,.04-2.35,.53-4.59,1.66-6.66Z"/>
  <path class="cls-16" d="M197.31,154.73c0,.35-.01,.7-.02,1.05-1.15,.95-2.99,.25-3.94,1.65-.8-.2-1.6-.39-2.39-.59,2.01-1.03,4.07-1.9,6.35-2.12Z"/>
  <path class="cls-16" d="M226.74,178.06c.22-.41,.5-.82-.02-1.22,2.12,.23,4.24,.46,6.35,.68-.76,.29-1.93-.35-2.21,1-1.41,.12-2.76-.18-4.13-.46Z"/>
  <path class="cls-13" d="M230.87,178.52c.28-1.35,1.45-.71,2.21-1,.92,0,1.85,0,2.77,.01,.19-.02,.38-.03,.58-.05,.38-.05,.77-.1,1.15-.15,0,.33,0,.67,0,1-.53,.06-1.05,.12-1.58,.19-1.19-.6-2.38-.64-3.55,.04-.52-.01-1.04-.03-1.56-.04Z"/>
  <path class="cls-12" d="M119.24,155.46c-2.56-.39-5.11-1.03-7.68-.1-.18-.05-.36-.11-.54-.16,2.78-1.24,5.54-1.53,8.23,.26Z"/>
  <path class="cls-16" d="M322.26,146.87c1.05-1.44,2.33-.55,3.54-.34-.28,.78-.55,1.57-.83,2.35-.15-.62,.03-1.37-.64-1.8-.64-.54-1.36-.34-2.07-.21Z"/>
  <path class="cls-16" d="M232.43,178.56c1.18-.68,2.36-.64,3.55-.04-1.18,.3-2.37,.28-3.55,.04Z"/>
  <path class="cls-15" d="M220.33,130.06c.79,1.81,.84,3.72,.72,5.65-.51-1.85-.76-3.73-.72-5.65Z"/>
  <path class="cls-16" d="M220,177.12c1.49-.97,2.77,.12,4.13,.41-1.38-.14-2.75-.27-4.13-.41Z"/>
  <path class="cls-13" d="M209.21,157.15c-.89,.06-1.66-.23-2.32-.81,.08-.16,.15-.32,.23-.48,.54,0,1.08-.02,1.62-.02,.59,.28,1.39,.49,.47,1.32Z"/>
  <path class="cls-15" d="M220.43,107.67c.09,1.07,.36,2.15-.23,3.16-.22-1.08-.29-2.14,.23-3.16Z"/>
  <path class="cls-16" d="M315.03,162.04c.36-.7,.89-1.05,1.69-.86-.34,.73-1.14,.55-1.69,.86Z"/>
  <path class="cls-16" d="M216.42,156.47c-.06,.7-.48,.96-1.14,.92,.07-.69,.71-.67,1.14-.92Z"/>
  <path class="cls-13" d="M324.33,147.08c.68,.44,.49,1.18,.64,1.8,0,0,.02,.16,.02,.16,0,0-.13,.1-.13,.1-.24-.45-.49-.89-.73-1.34,.07-.24,.13-.48,.2-.73Z"/>
  <path class="cls-16" d="M208.74,155.84c-.54,0-1.08,.02-1.62,.02,.01-.19,.02-.38,.04-.57,.53,.18,1.06,.37,1.58,.55Z"/>
  <path class="cls-6" d="M83.7,172.67c.39-.12,.77-.18,1.12,.1-.4,.21-.77,.22-1.12-.1Z"/>
  <path class="cls-16" d="M207.17,155.3c-.44,.05-.84-.02-1.1-.44,.46-.08,.84,.03,1.1,.44Z"/>
  <path class="cls-15" d="M143.81,153.21c-.53-.01-1.07-.02-1.6-.03,.54-.37,1.07-.23,1.6,.03Z"/>
  <path class="cls-16" d="M314,162.65c.18-.44,.56-.57,.99-.59-.33,.2-.66,.39-.99,.59Z"/>
  <path class="cls-16" d="M224.61,177.62c.34,.09,.69,.18,1.03,.27-.34-.09-.69-.18-1.03-.27Z"/>
  <path class="cls-15" d="M191.06,81.3c.02,.37,.04,.75,.05,1.12-.22-.01-.45-.03-.67-.04,.21-.36,.41-.72,.62-1.08Z"/>
  <path class="cls-16" d="M190.44,82.38c.22,.01,.45,.03,.67,.04,0,0,.13,.12,.13,.12-.03,.3-.06,.6-.1,.9-.25-.33-.5-.65-.75-.98,0,0,.04-.09,.04-.09Z"/>
  <path class="cls-15" d="M202.53,87.74c.27-.07,.54-.14,.8-.21-.21,.29-.48,.35-.8,.21Z"/>
  <path class="cls-16" d="M223.03,98.7c-.11,.25-.21,.51-.32,.76,.11-.25,.21-.51,.32-.76Z"/>
  <path class="cls-15" d="M220.11,127.41c.07,.12,.15,.24,.2,.37,0,.03-.11,.1-.16,.15-.01-.17-.02-.35-.03-.52Z"/>
  <path class="cls-16" d="M312.57,163.23c.09-.08,.19-.11,.31-.11,0,0-.12,.15-.12,.15l-.19-.04Z"/>
  <path class="cls-15" d="M141.85,153.16c-.39,.01-.78,.02-1.18,.03,.38-.3,.77-.37,1.18-.03Z"/>
  <path class="cls-15" d="M137.84,153.63c-.16,.05-.31,.11-.47,.16,.16-.05,.31-.11,.47-.16Z"/>
  <path class="cls-15" d="M136.84,154.05c-.19,.08-.39,.16-.58,.23,.19-.08,.39-.16,.58-.23Z"/>
  <path class="cls-4" d="M84.69,154.62c-.22-.07-.45-.14-.67-.21,.22,.07,.45,.14,.67,.21Z"/>
  <path class="cls-12" d="M120.88,156.22c-.3,.08-.49-.04-.56-.34,.19,.11,.37,.22,.56,.34Z"/>
  <path class="cls-3" d="M252.62,102.15c1.26,.9,1.53,2.28,1.86,3.5,1.72,6.34,4.19,12.3,8.16,17.59,.73,.97,1.07,2.19,1.08,3.41,.03,8.87,1.13,17.72,.32,26.6-.04,.43-.03,.87-.11,1.29-.19,1.01-.29,2.25-1.26,2.68-1.19,.52-2.06-.51-2.85-1.29-2.06-2.02-3.32-4.53-4.62-7.08-2.84-5.61-3.18-11.71-3.51-17.73-.52-9.38,.35-18.77,.6-28.15,0-.23,.18-.45,.33-.79Z"/>
  <path class="cls-3" d="M233.27,159.38c-3.66-3.17-5.02-7.65-6.99-11.76-5.05-10.55-5.59-21.75-4.7-33.15,.14-1.75,.72-3.21,2.36-4.3,1.62-1.08,2.94-2.61,4.41-3.94,.38-.34,.81-.73,1.34-.3,.42,.33,.21,.75,.05,1.16-2.3,5.65-.8,10.8,1.99,15.85,1.89,3.42,2.74,6.94,1.97,11.07-1.54,8.19-2.14,16.5-.26,24.78,.03,.14-.08,.32-.16,.59Z"/>
  <path class="cls-10" d="M235.84,177.53c-.92,0-1.85,0-2.77-.01-2.12-.23-4.24-.46-6.35-.69-1.54-.26-3.08-.53-4.63-.79-.17-.1-.34-.19-.5-.29-1.05-1.11-2.17-2.17-3.13-3.36-.55-.68-1.9-1.59-1.3-2.2,.87-.88,2.41-1.39,3.77-.66,1.83,.98,3.78,1.46,5.8,1.75,.28-.02,.56-.04,.84-.06,1.14-.83-.03-.89-.41-1.21-.17-.04-.34-.08-.5-.12,0,0,.02,.01,.02,.01-.01-1.29-.02-2.58-.03-3.87,6.25-3.52,13.11-5.31,19.99-6.98,3.18-.77,6.44-.94,9.72-.71,1.16,.08,2.2,.39,3.13,1.04,1.75,1.21,1.74,2.24,0,3.55-3.08,2.3-6.16,4.63-10.04,5.46-.04-.87-.59-1.25-1.36-1.11-1.67,.32-3.17,.13-4.82-.44-1.73-.6-4.68,1.61-5.18,3.39-2.75,.35-5.5,.42-8.26,.11-.15-.29-.32-.32-.51-.03-.49,.2-1.38-.27-1.45,.58-.07,.82,.8,.71,1.31,.79,3.4,.47,6.78,.12,10.17-.22,.73-.07,1.16-.35,.58-1.12h-.09c.21,1.7,1.21,.94,2.06,.65,.36,.38,.7,.17,1.04-.05,2.51-.7,3.61,1.57,5.31,2.57,.81,.48,.32,.99-.3,1.24-.85,.34-1.74,.61-2.61,.91-2.59,.56-5.17,1.12-7.76,1.68-.38,.05-.77,.1-1.15,.15-.19,.02-.38,.03-.58,.05Z"/>
  <path class="cls-3" d="M255.51,103.85c9.4,5.23,17.87,10.52,21.31,21.42,2.17,6.88,3.25,13.55,1.66,20.59-.09,.42-.2,.84-.33,1.24-.39,1.22-1.12,2.87-2.29,2.51-1.32-.4-3.15-1.06-3.29-3.16-.14-2.14-.29-4.3-.7-6.39-1.56-7.91-6.19-14.3-10.37-20.94-2.88-4.57-4.93-9.54-6-15.27Z"/>
  <path class="cls-3" d="M249.52,138.39c.09,3.31-.33,6.13-1.24,8.83-.28,.85-.12,2.48-1.61,2.19-1.25-.24-2.78-.59-3.07-2.32-.61-3.6-1.81-7.09-3.61-10.15-3.49-5.92-5.87-12.34-8.8-18.5-1.34-2.82-1.8-6.09-.89-9.33,.37-1.32,1.11-1.37,1.75-.46,3.4,4.8,8.64,7.93,11.79,12.9,3.32,5.25,6.13,10.75,5.68,16.83Z"/>
  <path class="cls-3" d="M266.29,108.69c-3.02-1.85-6-3.66-8.97-5.5-2.46-1.53-4.77-3.39-7.38-4.58-4.49-2.04-7.66-5.67-11.28-8.75-1.62-1.37-2.48-7.88-1.6-9.92,.38-.89,.93-.63,1.43-.34,3.42,2,7.56,2.63,10.36,5.87,1.5,1.74,3.68,2.68,5.78,3.72,6.32,3.14,12.66,9.29,12.28,16.9-.04,.87-.14,1.69-.6,2.59Z"/>
  <path class="cls-7" d="M191.14,83.44c.03-.3,.06-.6,.1-.9,2.58-1.18,3.73-4.06,6.23-5.33,.64,.99-.33,1.34-.76,1.89-.73,.95-1.62,1.79-2.23,2.8-1.41,2.35-.72,3.66,1.96,3.59,1.12-.03,2.63,.66,3.24-.9,.05-.13-1.82-.15-2.79-.14-2.07,.02-2.24-.86-1.2-2.33,.59-.84,1.29-1.61,2.01-2.34,2.07-2.09,4.81-3.23,7.1-5.01,.5-.39,2.04-.5,.77-1.74-.04-.2-.08-.39-.11-.59,1.4-.29,2.29-2.87,4.19-.95-.06,.03-.14,.06-.16,.11-.02,.04,.04,.12,.07,.18l.04-.31s.05-.03,.05-.03c3.18-.42,5.48-2.71,8.28-3.95,1.34-.6,2.95-1.1,3.68-2.67l-.03,.02c1.43,0,2.69-.43,3.64-1.57h0c2.59-.98,4.85-2.58,7.27-3.89,2.28,1.09,2.52,3.64,3.82,5.43,.48,.67-.51,.92-1,1.15-2.85,1.33-5.72,2.63-8.58,3.95-5.09,1.49-9.81,3.9-14.73,5.81-2.39,.93-4.76,1.91-7.07,3.02-2.82,1.35-2.86,2.24-.37,3.96,.69,.48,1.34,1,2.1,1.57-2.65,2.28-5.87,2.46-8.82,3.35-1.27-.07-2.55-.04-3.8-.22-3.14-.44-3.39-.84-2.87-3.97Z"/>
  <path class="cls-10" d="M207.62,170.35c-3.66,0-7.35,.61-10.96-.49-.49-.15-1-.26-1.46-.47-.59-.27-1.5-.31-1.52-1.14-.02-.67,.82-.77,1.3-1.06,1.38-.85,2.99-1.29,4.22-2.4,.4-.13,.47-.34,.16-.65l.02-.03c1.25,.99,2.2-.11,3.13-.58,6.2-3.1,12.67-5.12,19.64-5.31,3.85-.11,7.41,.89,11.02,3.16-7.09,3.07-13.44,7.12-20.94,8.37-.34,.04-.67,.09-1.01,.13-.76-.11-1.49-.05-2.17,.34-.17,.02-.35,.05-.52,.07-.31,.01-.61,.03-.92,.04Z"/>
  <path class="cls-3" d="M234.98,75.17c.34-1.97,.02-4.02,1.46-5.83,1.34-1.67,2.5-1.47,3.36,.02,1.78,3.06,4.41,3.66,7.65,3.61,4.45-.06,8.91,.22,13.37,.36,3.99,.38,7.9,1.04,11.83,3.79-4.29,.65-7.43,2.99-10.96,3.62-8.18,1.47-16.47,2.28-23.85-3.06-1.03-.74-1.91-1.67-2.87-2.52Z"/>
  <path class="cls-10" d="M198.32,164.13c-5.88,2.7-11.6,5.84-18.12,6.84-5.29,.82-10.54,1.1-15.86-1.91,5.9-4.1,12.16-6.66,18.51-9.03,.55-.14,1.1-.28,1.65-.43,.35-.02,.7-.04,1.05-.05,1.95-.22,3.89-.56,5.84-.65,3.51-.15,4.11,.15,9.42,3.72-.12,.84-1.84,.16-1.43,1.5,0,0-.02,.03-.02,.03-.33-.66-.68-.2-1.03-.02Z"/>
  <path class="cls-3" d="M235.98,79.2c-1.38,4.26-.38,7.91,1.41,11.43,.49,.96,.52,1.97,.7,2.98,.44,2.48,.5,4.97,1.38,7.45,1.28,3.61-.85,6.75-2.57,9.8-.35,.62-.87,.41-1.25-.03-4.89-5.6-9.39-11.35-8.91-19.46,.35-5.94,3.08-9.83,9.25-12.16Z"/>
  <path class="cls-10" d="M286.7,158.67c-10.43,8.44-21.11,14.45-35.06,11.15,1.31-1.91,3.4-1.96,4.86-3.07,4.44-3.37,9.17-6.15,14.56-7.92,5.11-1.67,10.06-1.78,15.64-.17Z"/>
  <path class="cls-1" d="M297.04,148.78c.44-1.94,1.25-3.7,2.56-5.21,1.68-.76,3.33-1.61,5.15-1.99,.21,.09,.43,.17,.64,.26,.29,1.78-1.2,3.7,.57,5.83,.43-2.55,.78-4.69,1.14-6.82,.06-.19,.11-.37,.17-.56,.17-.5,.35-.99,.52-1.49,1.44-.62,1.85-2.16,2.75-3.25,1.21-1.47,2.03-1.45,2.93,.14,.15,.23,.29,.46,.44,.7,0,.14,.05,.25,.16,.34,.08,.21,.15,.42,.23,.64,0,0,.02,.03,.02,.03,.91,4.34-.11,8.58-.97,12.74-1.13,5.46-4.1,9.44-10.21,9.97-.13-.08-.28-.13-.43-.14,.01-.17-.02-.33-.09-.49,1.16-2.39,1.86-4.93,2.48-7.49,.36-1.51,1.33-3.25-1.87-3.06-1.88,.11-3.83-.58-5.73,.19-.15-.12-.31-.24-.46-.36Z"/>
  <path class="cls-2" d="M314.04,116.94c3.32,2.16,5.69,5.02,6.6,8.96,.11,.65,.22,1.29,.33,1.94,.04,.22,.08,.44,.12,.67,.29,3.61-.24,6.96-3.02,9.61-.63,.32-1,.54-1.56-.39-2.03-3.45-4.75-6.53-5.58-10.62-.02-.11-.23-.27-.35-.26-.12,0-.23,.18-.35,.28-.7,.68-.26,1.3,.09,1.92,.89,2.27,.96,4.29-1.25,5.98-1.03,.79-1.46,.71-1.77-.48-.68-2.56-.72-5.07,.33-7.58,.31-.74,1.02-1.4,1.42-1.31,2.47,.57,1.78-1.24,1.83-2.36,.08-1.89-.06-3.79,.58-5.62,.28-.81,.44-1.72,1.61-1.66,.32,.31,.64,.62,.96,.94Z"/>
  <path class="cls-2" d="M307.75,91.85c2.21,1.79,2.74,4.44,3.48,6.96,.3,1.05-.21,1.37-1.28,1.05-5.67-1.7-11.49-2.72-17.25-4-1.7-.38-3.21-1.32-4.4-2.54-1.09-1.12-1.79-2.75-1.42-4.23,.31-1.24,1.94-.71,2.96-.84,4.26-.56,8.53-.83,12.8-.06,1.91,.94,3.66,2.1,5.13,3.67Z"/>
  <path class="cls-10" d="M284.71,166.98c-1.27-.22-3.45,.17-4.11-1.28-.44-.98,1.63-1.88,2.67-2.68,4.66-3.59,8.86-7.7,13.31-11.52,.92-.79,1.9-1.35,3.21-1.39,3.64-.11,4.18,.55,3.11,4.01-2.13,6.91-10.32,12.79-18.2,12.85Z"/>
  <path class="cls-10" d="M307.14,164.6c-3.83,3.18-8.32,5.19-12.77,7.26-4.53,.94-9.03,1.94-13.72,1.5-2.67-.26-4.96-1.16-6.83-3.1-.34-.35-.88-.61-.49-1.25,.45-.75,4.99-2.53,5.82-2.15,6.26,2.86,11.99,.99,17.17-2.5,2.55-1.72,4.72-2.53,7.45-1.2,1.11,.54,2.77-.25,3.38,1.44Z"/>
  <path class="cls-2" d="M321.67,125.86c0-.51-.15-1.16,.37-1.42,2.28-1.17,3.6-3.26,5.01-5.37,1.31,1.42,1,3.08,1.18,4.52,.75,6.02,.55,11.87-2.01,17.65-1.69,3.83-6.86,5.54-10.61,5.03,2.17-1.96-.37-5.31,2.53-6.97,3.83-1.8,5.25-7.64,3.53-13.44Z"/>
  <path class="cls-10" d="M282.74,87.09c-5.41,1.08-9.69-1.99-14.07-4.65-.67-.41-1.64-1.05-1.37-1.97,.21-.74,1.28-.67,2-.93,8.84-3.14,16.62-.49,23.96,4.41,.71,.47,1.87,1.06,1.5,2.11-.27,.74-1.38,.37-2.1,.36-3.27-.02-6.45,1-9.91,.67Z"/>
  <path class="cls-3" d="M249.67,102.86c-.03,5.88-1.41,10.78-4.72,15.12-.95,1.24-1.35,1.06-2.22,0-1.24-1.52-2.47-3.07-4.19-4.14-1.26-.78-1.18-1.86-.23-2.78,2.72-2.6,2.93-5.94,2.57-9.29-.21-1.97,.25-3.29,1.79-4.45,1.61-1.21,2.46,.35,3.65,.79,2.49,.92,3.96,2.41,3.35,4.75Z"/>
  <path class="cls-10" d="M300.49,86.01c-1.83,.33-3.27,.22-4.77-1.37-2.91-3.1-6.68-5.08-10.72-6.32-2.39-.73-4.48-1.35-5.1-4.22-.31-1.43-1.59-2.37-2.89-3.16,8.04-2.75,20.15,.28,23.48,15.07Z"/>
  <path class="cls-3" d="M235.79,131.67c1.62,4.68,4.81,8.63,6.04,13.48,1.04,4.12,.15,8.03-1.76,11.68-.71,1.37-2.18,2.35-3.81,2.18-1.74-.18-1.75-1.93-2.04-3.2-1.48-6.44-.21-12.85,.35-19.26,.14-1.59,.39-3.17,.59-4.76,.21-.04,.42-.08,.63-.12Z"/>
  <path class="cls-3" d="M272.98,107.69c-.25,.81-.42,1.67-.79,2.42-.37,.75-.12,2.51-1.27,2.04-1.24-.51-3.33-1.23-3-3.08,1.47-8.23-2.45-13.83-8.51-18.52-.71-.55-1.87-.95-1.78-2.04,.15-1.7,.4-3.43,.94-5.03,.36-1.06,1.1-.22,1.58,.21,1.89,1.72,3.93,3.28,5.38,5.43,1.38,2.46,4,3.97,5.29,6.41,1.98,3.76,2.55,7.91,2.14,12.16Z"/>
  <path class="cls-2" d="M326.77,110.98c.22,5.16-.56,8.48-3.69,10.79-.63,.46-1.28,1.87-1.96,1.15-.78-.82-1.71-2.25-1.13-3.49,2.95-6.23,.12-10.89-3.92-15.24-.49-.53-.59-1.01-.51-1.6,.14-1,.17-1.96,.59-2.97,1.32-3.17,1.33-3.21,4.08-.95,4.35,3.58,6.75,8.07,6.54,12.3Z"/>
  <path class="cls-2" d="M314.04,115.79c-1.5-2.78-3.69-5.03-5.71-7.41-1.89-2.23-3.76-4.44-4.59-7.32-.21-.72-.61-1.52,.93-1.3,6.91,.99,11.39,5.1,14.4,11.09,.94,1.87,1.18,3.95,.58,6.04-.41,1.42-.98,2.24-2.42,.89-.92-.87-1.99-1.51-3.17-1.97,0,0-.02-.03-.02-.03Z"/>
  <path class="cls-3" d="M265.7,128.15c2.38,5.52,5.4,10.83,5.5,17.12,.04,2.67-.02,5.33,0,8,.02,2-1.19,3.17-2.78,3.95-1.73,.85-3.33-.15-3.2-2.09,.45-6.92,.34-13.85,.16-20.77-.05-2.02-.28-4.04-.43-6.07,.25-.05,.5-.09,.74-.14Z"/>
  <path class="cls-10" d="M218.98,176.06c-7.3-.12-14.63,.09-21.82-1.52-2.39-.53-4.9-.94-6.79-2.74-.52-.49-1.51-1.06-1.04-1.84,.49-.82,1.51-1.02,2.52-.6,2.21,.92,4.34,1.99,6.8,2.25,3.02,.32,6,.38,8.97-.27,1.09,.1,2.17,.16,3.19-.34,.16-.03,.31-.05,.47-.08h0c.36-.05,.71-.12,1.07-.18,2.86-.36,6.36,2.45,6.64,5.32Z"/>
  <path class="cls-1" d="M324.33,147.08c-.07,.24-.13,.48-.2,.73-1.41,2.61-2.78,5.25-4.25,7.83-1.16,2.04-2.87,3.58-4.8,4.89-.18,.12-.36,.24-.55,.37-.36,.22-.72,.44-1.08,.67-1.67,1.13-3.59,.85-5.44,.97-.92-.18-1.83-.37-2.75-.55,0-.14-.02-.28-.08-.42,.33-.24,.62-.59,.99-.7,6.06-1.83,7.84-6.76,8.88-12.24,2.26-1.16,5.11,.09,7.2-1.77,.71-.13,1.43-.33,2.07,.21Z"/>
  <path class="cls-10" d="M218.13,74.64c.87-.04,1.23,.34,1.56,.74,2.07,2.57,4.81,4.34,7.48,6.17,1.01,.69,1.21,1.28,.47,2.27-.4,.54-.69,1.19-.95,1.82-1.19,2.89-1.46,3.12-3.96,1.34-3.54-2.53-6.81-5.41-9.86-8.54-.79-.81-1-1.34,.27-1.81,1.76-.66,3.49-1.39,4.98-1.99Z"/>
  <path class="cls-2" d="M302.72,86.89c-.36-1.32-.56-2.71-1.11-3.95-1-2.23,.13-2.28,1.77-1.97,5.87,1.1,8.83,5.13,10.44,10.47,.88,2.92,.98,5.92,.72,8.94-.05,.54,.19,1.42-.62,1.46-.78,.04-1.08-.72-1.18-1.44-.34-2.3-.76-4.6-1.88-6.66-.71-1.32-1.2-2.92-2.97-3.31-1.27-1.85-3.23-2.68-5.17-3.55Z"/>
  <path class="cls-3" d="M260.39,72.01c0-1.8-.75-3.66,.43-5.37,5.75,1.58,11.7,2.69,16.43,6.76,.32,.28,.73,.46,1,.77,.5,.58,1.17,1.23,.95,2.01-.3,1.06-1.3,.43-1.99,.52-1.92,.25-3.43-.34-5.14-1.45-3.46-2.24-7.48-3.23-11.67-3.24Z"/>
  <path class="cls-10" d="M247.43,170.56c.9-.72,1.8-.73,2.85-.26,5.52,2.49,11.23,2.43,16.83,.62,3.35-1.08,5.9-.83,7.84,2.24-6.35,3.7-24.13,2.06-27.52-2.6Z"/>
  <path class="cls-2" d="M301.79,105.44c-4.89-.18-8.27-2.75-9.31-7.01-.21-.86,.25-1.13,.97-.99,2.6,.5,5.19,1.03,7.78,1.58,.38,.08,2.62,5.37,2.46,5.76-.41,.96-1.28,.6-1.91,.66Z"/>
  <path class="cls-8" d="M217.72,156.86c1.88-3.18,4.16-5.61,7.28-6.17,2.52-.45,2.01,2.92,3.24,4.32,.5,.56,1.2,1.46,.08,2.17-.32,.2-.85,.27-1.22,.16-2.94-.83-5.95-.44-9.37-.49Z"/>
  <path class="cls-8" d="M248.95,152.19c-.05,.07-.14,.13-.16,.2-.32,1.5,1.4,3.48,.12,4.31-1.61,1.04-3.87,1.14-5.87,1.47-1.31,.22-1.66-.57-1.24-1.76,.34-.97,.73-1.93,.99-2.92,1.1-4.19,1.58-4.35,5.18-1.59,.3,.23,.51,.75,1.01,.31l-.03-.03Z"/>
  <path class="cls-3" d="M221.49,107.76l1.72-6.7c1.72-.48,1.06-2.84,2.67-3.45,.82,1.92,1.53,3.84,2.45,5.64,.51,1,.05,1.35-.61,1.87-1.99,1.57-3.95,3.19-5.95,4.81-.56-.67-.03-1.48-.28-2.18Z"/>
  <path class="cls-3" d="M250.43,109.95c0,3.95,.01,7.9-.01,11.86,0,.5-.11,1.04-.3,1.5-.76,1.79-1.72,1.89-2.93,.4-2.7-3.32-3.15-2.64,.04-6.35,1.81-2.1,2.29-4.91,3.2-7.4Z"/>
  <path class="cls-3" d="M266.53,88.52c-.71-1.26-1.97-2.15-2.38-3.6,.11-.15,.21-.29,.32-.44,.46-.45,1.31-.67,.97-1.6l-.02,.02c2.84,.65,4.94,2.68,7.43,4,.78,.41,.21,1.02-.2,1.46-.68,.75-1.37,1.5-2.06,2.25-2.56,1.65-2.65-1.51-4.06-2.09Z"/>
  <path class="cls-10" d="M281.02,156.04c2.02-3.65,7.52-4.21,10.09-3.7,1.21,.24,1.34,.77,.47,1.72-2.16,2.37-4.41,4.25-7.91,2.64-.75-.35-1.64-.41-2.65-.66Z"/>
  <path class="cls-8" d="M253.46,156.83c-.83-.51-2.55,1.08-2.93-1.09-.3-1.74,1.28-5.62,2.41-5.92,1.04-.28,1.71,.38,1.82,1.27,.25,1.95,3.35,2.87,2.02,5.19-.54,.93-2.08,.38-3.33,.56Z"/>
  <path class="cls-2" d="M306.33,113.85c.16-1.42-.16-2.9,.47-4.5,1.97,1.31,3.83,2.87,4.35,4.83,.5,1.87-1.58,3.72-1.39,6.14-2.1-1.22-2.75-2.92-3.07-4.84,.12-.59,.05-1.15-.36-1.63Z"/>
  <path class="cls-8" d="M271.76,156.57c1.33-2.21,.63-4.51,.9-6.9,2.58,.77,4.05,2.78,5.65,4.5,.88,.95,.44,1.87-1.1,1.93-1.76,.07-3.54,0-5.44,.47Z"/>
  <path class="cls-15" d="M315.06,148.64c-1.04,5.48-2.82,10.41-8.88,12.24-.37,.11-.66,.46-.99,.7-.97-.08-2.12,.09-2.04-1.46,6.11-.54,9.09-4.51,10.21-9.97,.86-4.16,1.87-8.41,.97-12.74,1.58,2.72,.54,5.59,.45,8.39-.03,.99-.69,1.98,.29,2.85Z"/>
  <path class="cls-16" d="M266.53,88.52c1.41,.58,1.5,3.75,4.06,2.09,.2,.44,.57,.55,1,.56-.56,.75-1.09,1.36-.34,2.45,2.7,3.93,3.21,8.42,3.04,13.05-.44,.34-.88,.67-1.31,1.01,.4-4.25-.16-8.4-2.15-12.16-1.29-2.44-3.91-3.95-5.29-6.41,.44-.01,.8-.16,.99-.6Z"/>
  <path class="cls-3" d="M275.41,110.87c1.1,2.99,1.7,6.05,1.17,9.63-1.45-2.18-2.81-4.08-4.01-6.08-.6-1,1.08-4.68,2.12-4.99,.24,.48,.48,.96,.72,1.44Z"/>
  <path class="cls-10" d="M278.19,88.27c2.09,.65,4.25,.11,6.36,.35,.39,.71-.3,1.9,.98,2.2,.73,2.43,.48,2.78-1.83,2.21-2.4-.6-4.76-1.35-5.9-3.89,.13-.29,.26-.58,.39-.87Z"/>
  <path class="cls-10" d="M238.09,170.24c.5-1.78,3.45-3.99,5.18-3.39,1.65,.57,3.16,.75,4.82,.44,.77-.15,1.32,.23,1.36,1.11-3.1,1.18-6.45,1.11-9.62,1.93,0,0,.09,.01,.09,.01-.61-.03-1.22-.06-1.83-.1Z"/>
  <path class="cls-16" d="M321.67,125.86c1.72,5.8,.3,11.64-3.53,13.44-.02-.4-.04-.79-.05-1.19,2.78-2.64,3.31-6,3.02-9.61,.4-.21,.8-.57,.51-.97-.32-.45-.46,.09-.63,.31-.11-.65-.22-1.29-.33-1.94,.34-.01,.68-.02,1.02-.04Z"/>
  <path class="cls-3" d="M248.55,83.52c4.69-1.05,4.95-.85,4.81,3.37-2-.54-3.13-2.05-4.81-3.37Z"/>
  <path class="cls-10" d="M226.65,166.04c.01,1.29,.02,2.58,.03,3.87-1.64-.07-3.13-.61-4.81-1.39,1.44-1.41,3.26-1.67,4.78-2.48Z"/>
  <path class="cls-3" d="M257.18,84.41c-.45,1.06,.02,3.25-1.25,3.34-1.17,.09-.38-1.94-.65-3.01-.19-.77-.43-1.81,.94-1.9,1.09-.07,.9,.75,.96,1.57Z"/>
  <path class="cls-15" d="M304.76,141.58c-1.83,.39-3.47,1.24-5.15,1.99,.06-.47,.48-1.03-.31-1.29,1.56-1.36,3.36-2.01,5.43-1.86,.01,.38,.02,.77,.04,1.15Z"/>
  <path class="cls-15" d="M307.11,140.84c-.36,2.14-.71,4.27-1.14,6.82-1.76-2.13-.27-4.05-.57-5.83,.84,.14,.97-.96,1.71-.99Z"/>
  <path class="cls-16" d="M302.72,86.89c1.94,.87,3.9,1.7,5.17,3.55-.04,.47-.09,.94-.13,1.42-1.46-1.57-3.22-2.72-5.13-3.67,.03-.43,.06-.86,.1-1.3Z"/>
  <path class="cls-3" d="M250.43,132.44c-.7-1.99-1.23-3.37-1.67-4.78-.23-.75,.12-1.47,.87-1.6,1.19-.21,.76,.83,.78,1.37,.06,1.45,.02,2.9,.02,5.01Z"/>
  <path class="cls-15" d="M275.41,110.87c-.24-.48-.48-.96-.72-1.44,.05-.45,.11-.91,.16-1.36,1.86,1.09,1.85,3.33,3.02,4.85-1.42,.04-1.13-1.99-2.47-2.05Z"/>
  <path class="cls-3" d="M240.35,93.54c.78,.79,2.35,.98,1.78,2.43-.19,.48-.83,1.25-1.36,.85-1.1-.83-.39-2.14-.42-3.28Z"/>
  <path class="cls-15" d="M285.53,90.82c-1.28-.31-.6-1.5-.98-2.2,1.55,.19,.96,1.33,.98,2.2Z"/>
  <path class="cls-16" d="M305.27,161.99c.92,.18,1.83,.37,2.75,.55-.94-.07-2,.5-2.75-.55Z"/>
  <path class="cls-15" d="M278.19,88.27c-.13,.29-.26,.58-.39,.87-.36-.11-.93-.1-.68-.69,.2-.47,.68-.26,1.07-.18Z"/>
  <path class="cls-16" d="M212.35,170.74c-.36,.06-.71,.12-1.07,.19-.02-.34-.03-.68-.05-1.02,.34-.04,.67-.09,1.01-.13,.04,.32,.07,.65,.11,.97Z"/>
  <path class="cls-15" d="M307.79,138.8c-.17,.5-.35,.99-.52,1.49-.02-.57-.06-1.14,.52-1.49Z"/>
  <path class="cls-16" d="M310.35,129.03c-.35-.63-.8-1.25-.09-1.92,.03,.64,.06,1.28,.09,1.92Z"/>
  <path class="cls-16" d="M313.46,161.56c.36-.22,.72-.44,1.08-.67-.16,.55-.58,.68-1.08,.67Z"/>
  <path class="cls-16" d="M314.04,116.94c-.32-.31-.64-.62-.96-.94,.32-.07,.64-.14,.96-.21,0,0,.02,.03,.02,.03,0,.37-.02,.75-.02,1.12Z"/>
  <path class="cls-15" d="M306.33,113.85c.41,.48,.48,1.03,.36,1.63-.55-.45-.44-1.04-.36-1.63Z"/>
  <path class="cls-15" d="M276.27,89.72c-.16-.54-.33-1.09-.49-1.63,.67,.39,.56,1.02,.49,1.63Z"/>
  <path class="cls-16" d="M185.55,159.55c-.35,.02-.7,.04-1.05,.05,.35-.02,.7-.04,1.05-.05Z"/>
  <path class="cls-15" d="M274.3,106.65c.31,.3,.59,.62,.48,1.11-.44-.25-.57-.63-.48-1.11Z"/>
  <path class="cls-4" d="M226.66,169.89c.17,.04,.34,.08,.5,.12-.17-.04-.34-.08-.5-.12Z"/>
  <path class="cls-16" d="M264.47,84.48c-.11,.15-.21,.29-.32,.44-.1-.3,.07-.39,.32-.44Z"/>
  <path class="cls-16" d="M223.89,72.12c-.24,.05-.48,.1-.71,.14,.24-.05,.48-.1,.71-.14Z"/>
  <path class="cls-16" d="M227.57,171.22c-.28,.02-.56,.04-.84,.06,.26-.24,.54-.3,.84-.06Z"/>
  <path class="cls-16" d="M242.93,170.94c-.34,.22-.67,.43-1.04,.05,.35-.02,.69-.03,1.04-.05Z"/>
  <path class="cls-16" d="M221.59,175.75c.17,.1,.34,.19,.5,.29-.17-.1-.34-.19-.5-.29Z"/>
  <path class="cls-15" d="M313.91,136.39c-.15-.23-.29-.46-.44-.7,.15,.23,.29,.46,.44,.7Z"/>
  <path class="cls-15" d="M314.31,137.36c-.08-.21-.15-.42-.23-.64,.08,.21,.15,.42,.23,.64Z"/>
  <path class="cls-15" d="M296.08,147.59c.06-.28,.11-.56,.17-.84-.06,.28-.11,.56-.17,.84Z"/>
  <path class="cls-15" d="M295.63,149.13c-.14-.3,0-.49,.24-.64-.08,.21-.16,.43-.24,.64Z"/>
  <path class="cls-15" d="M297.04,148.78c.15,.12,.31,.24,.46,.36-.27,.04-.45-.06-.46-.36Z"/>
  <path class="cls-15" d="M302.62,159.49c.07,.15,.1,.32,.09,.49-.43-.09-.45-.25-.09-.49Z"/>
  <path class="cls-16" d="M207.48,159.95c.2-.06,.4-.12,.6-.17-.2,.06-.4,.12-.6,.17Z"/>
  <path class="cls-10" d="M135.64,167.89c11.14-6.15,25.95-10.14,35.14-4.65-7.37,6.31-16.33,7.53-25.62,7.36-3.28-.06-6.59-.56-9.51-2.71Z"/>
  <path class="cls-10" d="M121.93,178.97c-5.08,.21-9.89-.89-14.52-2.92-2.27-1-3.33-3.15-4.75-4.96-.27-.34-.56-.76-.06-1.09,.73-.48,1.42-.74,2.36-.19,3.44,2.03,7.33,2.4,11.14,2.09,4.15-.34,8.36-.69,12.33-2.11,1.98-.71,3.48-.47,4.79,1.15,.16,.2,.38,.35,.56,.53,4.2,4.01,4.21,4.05-1.47,5.78-1.88,.57-3.83,.96-5.77,1.29-1.52,.26-3.08,.3-4.62,.44Z"/>
  <path class="cls-10" d="M143.43,162.72c-12.3,5.47-24.15,9.83-37.35,6,7.1-2.67,13.15-8.02,21.04-8.27,5.32-.17,10.73-.28,16.3,2.27Z"/>
  <path class="cls-10" d="M133.79,169.04c6.89,3.81,14.2,3.58,21.33,2.13,4.08-.83,6.32,1.2,9.25,3.25-2.08,1.29-4.28,1.06-6.28,1.29-5.29,.59-10.6,.69-15.88-.29-3.87-.72-6.15-3.53-8.43-6.37Z"/>
  <path class="cls-10" d="M153.45,159.67c-2.09,.62-3.97,1.19-5.84,1.74-1.69,.5-3.2,.77-4.94-.41-2.07-1.41-4.72-1.33-7.18-1.61-.92-.1-1.84-.24-2.83-.37,3.92-6.49,15.07-6.15,20.8,.65Z"/>
  <path class="cls-10" d="M180.9,159.25c-2.47,1.01-4.78,1.92-7.06,2.92-.9,.4-1.6,.17-2.43-.2-2.91-1.29-5.86-2.47-9.11-2.55-.48-.01-1.12,.19-1.29-.48-.06-.24,.21-.64,.42-.87,5.07-5.41,14.28-4.91,19.46,1.18Z"/>
  <path class="cls-10" d="M160.86,170.3c1.29-.58,2.14-.54,2.91-.09,6.29,3.67,12.86,3.04,19.51,1.34,.17-.04,.33-.09,.5-.13q4.04-.98,7.08,3.09c-10.57,2.29-20.59,3.17-30-4.21Z"/>
  <path class="cls-10" d="M111.56,156.3c2.21,.04,4.43,.08,6.64,.12,.19,.09,.37,.19,.56,.28,.34,.1,.69,.21,1.03,.31,.85,.82,2.13,1.08,2.91,2.31-2.89,1.54-5.42,3.58-9.02,1.33-2.1-1.31-4.88-1.11-7.73-1.58,1.8-1.88,4.03-1.65,5.61-2.77Z"/>
  <path class="cls-13" d="M211.23,169.9c.02,.34,.03,.68,.05,1.02,0,0,0,0,0,0-.17-.04-.32-.01-.47,.08-1.02,.5-2.11,.45-3.19,.34,0-.33,0-.66,0-.99,.31-.01,.61-.03,.92-.04,.17-.02,.35-.05,.52-.07,.68-.4,1.41-.46,2.17-.34Z"/>
  <path class="cls-13" d="M198.32,164.13c.35-.18,.7-.64,1.03,.02,.32,.31,.24,.52-.16,.65-.29-.22-.58-.45-.88-.67Z"/>
  <path class="cls-10" d="M246.56,71.46c-2.15,.49-3.89-.58-5.45-2.88-1.95-2.88-4.37-5.41-6.03-8.53-2.31-4.35-3-8.95-2.31-13.73,.75-5.16,5.21-7.94,10.25-6.52,2.76,.78,5.28,2.02,6.87,4.59,.33,.53,1.12,1.24,.34,1.78-1.88,1.3-3.89,2.96-6.11,2.92-2.54-.04-2.29,1.31-2.03,2.69,.69,3.51,2.44,6.64,4.52,9.44,1.97,2.66,3.2,5.58,4.33,8.6,.37,.97,.05,1.44-1.02,1.44-.94,0-1.89,.1-3.38,.19Z"/>
  <path class="cls-10" d="M258.69,68.47c-.52,.95,.98,2.84-1.24,3.22-2.76,.48-4.68-.48-5.3-2.5-.76-2.48-1.9-4.79-3.18-7.02-.67-1.17-.56-1.84,.7-2.39,1.65-.71,3.15-1.7,4.79-2.46,1.55-.72,2.12-.61,2.56,1.11,.82,3.26,1.57,6.51,1.67,10.04Z"/>
  <path class="cls-11" d="M270.78,36.52c7.2-4.53,14.84-8.28,22.25-12.45,.89-.5,1.83-.9,2.74-1.34,.17,.18,.35,.37,.52,.55-.87,.55-1.71,1.14-2.61,1.63-5.84,3.16-11.71,6.28-17.53,9.49-.53,.29-1.63,.32-1.37,1.46,0,0,0,0,0,0-1.45-.46-2.25,1.05-3.51,1.17-.16-.17-.33-.34-.49-.5Z"/>
  <path class="cls-14" d="M205.58,73.05c1.27,1.24-.26,1.35-.77,1.74-2.29,1.78-5.03,2.92-7.1,5.01-.72,.73-1.42,1.5-2.01,2.34-1.04,1.47-.88,2.35,1.2,2.33,.97-.01,2.84,0,2.79,.14-.6,1.56-2.12,.87-3.24,.9-2.68,.07-3.37-1.24-1.96-3.59,.61-1.02,1.5-1.86,2.23-2.8,.43-.55,1.4-.91,.76-1.89,0,0,.05-.02,.05-.02,1.48,.8,2.09-1.11,3.32-1.08,.8-.57,2.06-.66,2.1-2.03,0,0,.01,0,.01,0,1.18,.42,1.77-.63,2.63-1.03Z"/>
  <path class="cls-11" d="M219.49,65.27c-.38-1.01,.61-1.06,1.06-1.32,3.31-1.92,6.65-3.8,10.03-5.6,.49-.26,1.53-1.5,1.85,.3-2.54,1.35-5.48,2.05-7.23,4.63,0,0,0,0,0,0-1.53-.21-2.78,.21-3.64,1.57,0,0,.03-.02,.03-.02-.7,.15-1.41,.3-2.11,.45Z"/>
  <path class="cls-15" d="M219.49,65.27c.7-.15,1.41-.3,2.11-.45-.73,1.57-2.33,2.07-3.68,2.67-2.8,1.24-5.1,3.53-8.28,3.95,0-.24,.01-.48,.02-.71,.89-.1,1.71-.32,2.06-1.29,0,0,0,0,0,0,.39,.05,.79,.11,.51-.51,0,0,0,0,0,0,1.05,.39,1.69-.05,2.06-1.03,0,0,0,0,0,0,.39,.05,.8,.12,.51-.51,0,0,.01,0,.01,0,2.05,.44,3.34-.83,4.64-2.07v-.03Z"/>
  <path class="cls-11" d="M304.05,18.08c3.25-1.8,6.5-3.6,9.75-5.41,.13,.2,.25,.4,.38,.6-2.96,2.22-6.4,3.57-9.59,5.37-.18-.19-.36-.37-.53-.56Z"/>
  <path class="cls-11" d="M255.47,44.94c2.65-1.76,5.36-3.4,8.32-4.58,.18,.19,.36,.37,.53,.56-.78,.47-1.55,.95-2.33,1.42-.82,.49-2.24,.25-2.2,1.8,0,0,0,0,0,0-1.6-.45-2.47,1.1-3.79,1.4-.18-.2-.36-.39-.55-.59Z"/>
  <path class="cls-15" d="M225.2,63.29c1.75-2.58,4.7-3.28,7.23-4.63,.01,.24,.02,.49,.03,.73-2.42,1.31-4.68,2.91-7.27,3.9Z"/>
  <path class="cls-11" d="M244.33,52.4c-1.11-.26-1.34-.91-.29-1.39,1.04-.48,1.92-1.39,3.17-1.39,.17,.18,.34,.36,.51,.54-.46,.27-.93,.53-1.39,.8-.77,.36-1.69,.52-2.05,1.47l.05-.02Z"/>
  <path class="cls-11" d="M219.48,65.3c-1.3,1.24-2.59,2.51-4.64,2.07,1.43-.96,2.72-2.23,4.64-2.07Z"/>
  <path class="cls-11" d="M299.66,20.47c1.47-.8,2.93-1.59,4.4-2.39,.18,.19,.36,.37,.53,.56-1.42,.86-2.67,2.06-4.41,2.34-.18-.17-.35-.34-.53-.51Z"/>
  <path class="cls-11" d="M251.69,46.9c1.14-.88,2.43-1.47,3.78-1.95,.18,.2,.36,.39,.55,.59-1.06,1.07-2.54,1.26-3.82,1.88l-.51-.52Z"/>
  <path class="cls-11" d="M267.63,38.08c.9-.84,2-1.25,3.16-1.56,.16,.17,.33,.33,.49,.5-.75,1.04-2.07,1.01-3.06,1.6-.2-.18-.39-.36-.59-.55Z"/>
  <path class="cls-11" d="M202.94,74.09c-.03,1.37-1.3,1.46-2.1,2.03-.2-.5-.69-.46-1.1-.58,1.08-.45,1.92-1.42,3.19-1.44Z"/>
  <path class="cls-11" d="M314.67,12.19c.71-.88,1.86-.89,2.76-1.4,.18,.19,.37,.38,.55,.57-.11,.23-.23,.47-.34,.71,0,0,.02-.02,.02-.02l-2.53,.61c-.15-.16-.31-.31-.46-.47Z"/>
  <path class="cls-5" d="M199.74,75.54c.4,.12,.9,.08,1.1,.58-1.23-.03-1.84,1.88-3.32,1.08,.74-.55,1.48-1.11,2.22-1.66Z"/>
  <path class="cls-11" d="M295.77,22.73c.87-.85,1.96-1.33,3.05-1.81,.11,.2,.23,.39,.34,.59l-2.87,1.78c-.17-.18-.35-.37-.52-.55Z"/>
  <path class="cls-11" d="M265.03,39.61c.87-.51,1.73-1.02,2.6-1.53,.19,.18,.39,.36,.58,.54-.86,.52-1.72,1.04-2.58,1.56-.2-.19-.4-.38-.6-.57Z"/>
  <path class="cls-11" d="M205.58,73.05c-.85,.4-1.45,1.46-2.63,1.03,.56-.98,1.56-1.26,2.51-1.62,.04,.2,.08,.39,.11,.59Z"/>
  <path class="cls-11" d="M214.31,67.89c-.37,.98-1.01,1.42-2.06,1.03,.44-.84,1.05-1.34,2.06-1.03Z"/>
  <path class="cls-11" d="M317.43,10.79c.68-.39,1.35-.78,2.03-1.16,.14,.19,.29,.39,.43,.58-.63,.38-1.27,.77-1.9,1.15-.18-.19-.37-.38-.55-.57Z"/>
  <path class="cls-11" d="M211.73,69.44c-.35,.97-1.17,1.19-2.06,1.29,.16-1.27,1.06-1.37,2.06-1.29Z"/>
  <path class="cls-11" d="M250.16,47.92c.51-.34,1.02-.68,1.53-1.02,.17,.17,.34,.35,.5,.52-.42,.51-.96,.83-1.6,.98-.15-.16-.29-.32-.44-.47Z"/>
  <path class="cls-15" d="M244.15,52.93c.02,.51,.04,1.01,.06,1.52-.54-.49-.61-.99-.06-1.52Z"/>
  <path class="cls-11" d="M263.8,40.36c.41-.25,.83-.5,1.24-.75,.2,.19,.4,.38,.59,.57-.43,.25-.87,.49-1.3,.74-.18-.19-.36-.37-.53-.56Z"/>
  <path class="cls-11" d="M248.25,49.08c.33-.2,.65-.39,.98-.59,.13,.16,.25,.31,.38,.47-.32,.2-.64,.41-.97,.61l-.38-.49Z"/>
  <path class="cls-11" d="M320.47,9.17c.03,.32,.07,.64,.1,.95-.23,.03-.45,.06-.68,.08-.14-.19-.29-.39-.43-.58,.34-.15,.67-.31,1.01-.46Z"/>
  <path class="cls-11" d="M313.8,12.67c.29-.16,.58-.32,.87-.48,.15,.15,.31,.31,.46,.47-.32,.2-.63,.41-.95,.61-.13-.2-.25-.4-.38-.6Z"/>
  <path class="cls-11" d="M298.83,20.92c.28-.15,.56-.3,.83-.45,.17,.17,.35,.34,.52,.5-.34,.18-.67,.35-1.01,.53-.11-.2-.23-.39-.34-.59Z"/>
  <path class="cls-11" d="M249.23,48.48c.31-.19,.62-.38,.93-.56,.15,.16,.29,.31,.44,.47-.33,.19-.67,.37-1,.56-.13-.16-.25-.31-.38-.47Z"/>
  <path class="cls-11" d="M247.21,49.62c.35-.18,.69-.36,1.04-.54,.13,.16,.26,.32,.38,.49-.31,.2-.61,.4-.92,.6-.17-.18-.34-.36-.51-.54Z"/>
  <path class="cls-15" d="M209.6,71.48l-.04,.31c-.03-.06-.08-.13-.07-.18,.02-.05,.11-.07,.16-.11,0,0-.06-.03-.06-.03Z"/>
  <path class="cls-11" d="M212.25,68.93c.28,.62-.12,.56-.51,.51-.2-.55,.14-.54,.51-.51Z"/>
  <path class="cls-9" d="M235.25,67.58c.23-.02,.57-.14,.66-.04,.22,.26-.08,.38-.28,.49-.12-.15-.25-.29-.37-.44Z"/>
  <path class="cls-11" d="M214.83,67.38c.28,.63-.12,.56-.51,.51-.22-.56,.15-.53,.51-.51Z"/>
  <path class="cls-15" d="M299.17,21.5c.34-.18,.67-.35,1.01-.53,1.73-.27,2.98-1.47,4.41-2.34,3.19-1.8,6.64-3.15,9.6-5.37,.32-.2,.64-.41,.95-.61,.84-.2,1.69-.41,2.53-.61-.17,1.51-1.61,1.24-2.48,1.73-6.76,3.84-13.48,7.78-20.36,11.39-6.71,3.52-13.03,7.77-20.05,10.69-.26-1.15,.84-1.17,1.37-1.46,5.82-3.21,11.69-6.32,17.53-9.49,.9-.49,1.74-1.08,2.61-1.63,.96-.59,1.92-1.18,2.87-1.78Z"/>
  <path class="cls-15" d="M264.33,40.92c.43-.25,.87-.49,1.3-.74,.86-.52,1.72-1.04,2.58-1.56,.99-.59,2.31-.56,3.06-1.6,1.26-.12,2.06-1.63,3.51-1.17-4.66,3.38-9.77,5.92-14.99,8.29-.03-1.54,1.38-1.3,2.2-1.8,.78-.47,1.55-.95,2.33-1.42Z"/>
  <path class="cls-15" d="M247.72,50.16c.3-.2,.61-.4,.92-.6,.32-.2,.65-.41,.97-.61,.33-.19,.67-.37,1-.56,.64-.15,1.18-.46,1.6-.98,1.28-.62,2.76-.82,3.82-1.88,1.33-.3,2.19-1.85,3.79-1.4-4.16,3.11-8.83,5.3-13.48,7.53,0-.23,0-.47,0-.7,.46-.27,.93-.53,1.39-.8Z"/>
  <path class="cls-15" d="M319.89,10.21c.23-.03,.45-.06,.68-.08-.25,1.74-1.55,1.9-2.93,1.94,.11-.24,.23-.47,.34-.71,.64-.38,1.27-.77,1.91-1.15Z"/>
  <path class="cls-16" d="M246.33,50.96c0,.23,0,.47,0,.7-.61,.45-1.18,1-2.05,.76,.36-.95,1.28-1.1,2.05-1.47Z"/>
  <path class="cls-16" d="M94.44,170.69c-.21,.04-.42,.08-.63,.12,.21-.04,.42-.08,.63-.12Z"/>
  <path class="cls-16" d="M118.76,156.7c-.19-.09-.37-.19-.56-.28,.19,.09,.37,.19,.56,.28Z"/>
  <path class="cls-16" d="M235.84,177.53c.19-.02,.38-.03,.58-.05-.19,.02-.38,.03-.58,.05Z"/>
  <path class="cls-16" d="M238.09,170.24c.61,.03,1.22,.06,1.83,.1,.58,.77,.15,1.05-.58,1.12-3.38,.34-6.77,.7-10.17,.22-.52-.07-1.38,.04-1.31-.79,.07-.85,.96-.37,1.45-.58,.17,.01,.34,.02,.51,.03,2.76,.31,5.51,.24,8.26-.11Z"/>
  <path class="cls-4" d="M229.83,170.35c-.17-.01-.34-.02-.51-.03,.19-.28,.36-.25,.51,.03Z"/>
  <path class="cls-15" d="M221.57,64.85c.85-1.36,2.11-1.78,3.64-1.57-.95,1.14-2.2,1.56-3.64,1.57Z"/>
  <path class="cls-16" d="M209.06,170.24c-.17,.02-.35,.05-.52,.07,.17-.02,.35-.05,.52-.07Z"/>
  <path class="cls-13" d="M320.98,127.83c.17-.22,.31-.76,.63-.31,.28,.4-.11,.76-.51,.97-.04-.22-.08-.44-.12-.67Z"/>
  <path class="cls-16" d="M210.82,171c.14-.09,.3-.12,.47-.08-.16,.03-.31,.05-.47,.08Z"/>
</svg>