<svg width="24" height="24" viewBox="0 0 24 24" fill="none" xmlns="http://www.w3.org/2000/svg">
<mask id="mask0_32_18" style="mask-type:luminance" maskUnits="userSpaceOnUse" x="2" y="2" width="20" height="21">
<path d="M2 2.02563H22V22.5385H2V2.02563Z" fill="white"/>
</mask>
<g mask="url(#mask0_32_18)">
<path d="M21.777 21.171L20.4068 19.7126C20.4068 19.7126 20.4068 19.7126 20.4054 19.7126L19.5414 18.7925L19.09 18.3131C20.0021 17.214 20.6378 15.9493 20.9743 14.5484C21.0705 14.1437 21.1386 13.7378 21.1813 13.3318C21.1813 13.3304 21.1827 13.3304 21.1827 13.3278C21.184 13.3238 21.1827 13.3184 21.1827 13.3144C21.2868 12.3088 21.2294 11.3005 21.0024 10.3056C21.0171 9.99977 21.1092 6.5596 18.3087 4.34138C15.4134 2.04838 12.2417 2.35688 12.0881 2.3729C11.622 2.3088 11.1827 2.28343 10.786 2.29812C8.57183 2.37958 6.93988 3.29705 6.35361 4.76606L5.83945 4.21986C5.78737 4.16377 4.54138 2.851 3.56114 3.56013C2.86536 4.06494 2.76119 4.93433 3.27402 5.94662C3.34079 6.08017 3.46365 6.17231 3.61189 6.20036C3.76013 6.22974 3.91237 6.18834 4.02589 6.08684C4.17946 5.95196 4.23155 5.73294 4.15543 5.54464C4.12204 5.45917 4.01921 5.17338 4.13539 5.0799C4.2823 4.96104 4.58278 5.2081 4.65222 5.27755L5.23716 5.89854C4.88192 6.2658 4.56007 6.65976 4.27161 7.07776C4.26894 7.08177 4.26761 7.08444 4.26493 7.08845C3.62257 8.02328 3.15249 9.07295 2.88406 10.1907C2.83598 10.3924 2.79325 10.5994 2.75852 10.8037C2.50078 11.3192 2.27642 11.8347 2.09346 12.3449C1.99998 12.6013 2.13085 12.8871 2.39394 12.9845L2.434 12.9966C2.4714 13.0059 2.50879 13.0099 2.54618 13.0099C2.58091 13.0099 2.61563 13.0046 2.64902 12.9979C2.65302 13.07 2.65703 13.1435 2.66371 13.2156C2.52215 13.3491 2.22033 13.6923 2.3699 14.0943C2.42599 14.2439 2.5168 14.336 2.61563 14.3921C2.49277 14.5404 2.41264 14.738 2.49277 14.9664C2.56087 15.1587 2.67172 15.2869 2.82396 15.3483C2.8293 15.351 2.83598 15.3523 2.84266 15.355C2.75051 15.5072 2.70911 15.6969 2.81728 15.8932C2.92279 16.0842 3.06301 16.1536 3.16184 16.1777C3.2019 16.187 3.24196 16.191 3.27936 16.191C3.33678 16.191 3.3902 16.1817 3.43694 16.1683C3.86696 17.1298 4.44789 18.0032 5.17038 18.7685C5.07289 18.9821 5.02482 19.3173 5.32263 19.5484C5.44148 19.6392 5.56034 19.6739 5.67118 19.6739C5.80607 19.6739 5.92759 19.6232 6.01974 19.5631C6.44042 19.9103 6.89314 20.2215 7.36723 20.4886C7.47006 20.6769 7.86536 21.3526 8.3261 21.4634C8.37685 21.4755 8.42492 21.4821 8.47167 21.4821C8.63192 21.4821 8.77081 21.414 8.87631 21.2832C8.90169 21.2511 8.92172 21.2177 8.93908 21.187C9.20617 21.2765 9.47727 21.3579 9.75238 21.4247C10.4028 21.581 11.0678 21.6651 11.7302 21.6798C11.7476 21.8027 11.8063 21.9148 11.9012 21.9923C11.9586 22.0404 12.024 22.0724 12.0961 22.0898C12.1322 22.0991 12.1696 22.1031 12.2056 22.1031C12.3539 22.1031 12.4968 22.035 12.5916 21.9135C12.661 21.8254 12.7278 21.7332 12.7959 21.6437C14.691 21.4661 16.5205 20.6889 17.9749 19.4456L20.6204 22.2594C20.7767 22.4263 20.9877 22.5091 21.1987 22.5091C21.395 22.5091 21.59 22.4383 21.7436 22.2941C21.8971 22.1485 21.9866 21.9509 21.992 21.7386C21.9986 21.5275 21.9225 21.3246 21.777 21.171ZM19.6268 20.7356C19.9287 20.5754 20.1624 20.3617 20.3253 20.0946L20.4976 20.2775C20.376 20.5433 20.1463 20.7543 19.7991 20.9172L19.6268 20.7356ZM19.1915 20.2709C19.4893 20.1266 19.7217 19.9103 19.8846 19.6245L20.0969 19.8515C19.95 20.1293 19.719 20.3403 19.3971 20.4912L19.1915 20.2709ZM18.7842 19.8395C19.0713 19.6859 19.2983 19.4642 19.4639 19.1785L19.6522 19.3788C19.5053 19.6833 19.277 19.8956 18.9578 20.0238L18.7842 19.8395ZM14.8245 15.6274L13.7414 14.4763C13.7414 14.4749 13.7414 14.4749 13.7414 14.4749L12.8747 13.5535C13.2647 13.5054 13.6586 13.4626 14.0526 13.4239L14.7417 14.1558C14.7417 14.1558 14.7417 14.1558 14.7417 14.1571L15.2612 14.7086C15.2746 14.738 15.2973 14.7607 15.3266 14.7781L15.8101 15.2922L15.8114 15.2936L19.2342 18.9327C19.0806 19.2372 18.8576 19.4562 18.5558 19.5951L14.8245 15.6274ZM15.7767 17.1085C15.4455 18.1648 14.8379 19.1077 13.9645 19.9223C14.5561 18.9461 15.0702 17.9084 15.5056 16.82L15.7767 17.1085ZM15.6699 18.2142C15.9503 18.1168 16.2307 18.0046 16.5059 17.8831L16.6928 18.0834C16.2882 18.3318 15.77 18.6269 15.2906 18.8633C15.4295 18.6536 15.5563 18.4373 15.6699 18.2142ZM15.8635 17.8003C15.9223 17.66 15.9783 17.5198 16.0278 17.3756L16.2721 17.6347C16.1359 17.6921 15.9997 17.7482 15.8635 17.8003ZM13.3982 20.8064C13.9832 20.3777 14.484 19.9063 14.8993 19.3935C15.3453 19.2105 15.8915 18.922 16.3776 18.6429C15.5764 19.6779 14.5414 20.4765 13.1885 21.1082C13.2593 21.0081 13.3301 20.9079 13.3982 20.8064ZM14.2102 17.3782C13.5758 17.5772 12.9268 17.6961 12.2791 17.7268C12.1909 17.7308 12.1228 17.8069 12.1268 17.8951C12.1309 17.9805 12.2016 18.0473 12.2871 18.0473C12.2898 18.0473 12.2924 18.0473 12.2951 18.0473C12.8747 18.0193 13.4543 17.9218 14.0246 17.7655C13.9231 17.9739 13.8189 18.1795 13.7121 18.3825C11.8638 18.6843 9.88593 18.5147 7.8293 17.8777C7.79458 17.7335 7.76119 17.5852 7.72914 17.433C8.473 17.5238 9.1995 17.5719 9.90997 17.5719C11.5112 17.5719 13.0229 17.3382 14.4279 16.8774C14.3571 17.0444 14.285 17.2126 14.2102 17.3782ZM14.5908 16.4861C12.5569 17.202 10.2839 17.4156 7.8293 17.1232C8.04966 16.8307 8.27001 16.5409 8.4917 16.2578C8.74944 16.2685 9.00318 16.2751 9.25292 16.2751C11.0318 16.2751 12.609 15.9827 14.1501 15.379L14.4305 15.6755C13.3087 16.1015 12.1028 16.3833 10.7513 16.5342C10.6632 16.5436 10.6004 16.6237 10.6098 16.7105C10.6191 16.7933 10.6885 16.8534 10.7687 16.8534C10.7754 16.8534 10.7807 16.8534 10.7874 16.8534C12.215 16.6945 13.4864 16.39 14.6682 15.9293L14.7671 16.0348C14.711 16.1857 14.6509 16.3366 14.5908 16.4861ZM15.3333 9.05426C15.3987 9.30399 15.4562 9.56307 15.5056 9.8275C15.4121 9.82883 15.3186 9.8275 15.2251 9.82883C15.1864 9.63118 15.145 9.43754 15.0983 9.25057C15.1771 9.1838 15.2545 9.1197 15.3333 9.05426ZM18.863 7.70944C18.2433 7.68807 17.6276 7.68941 17.0254 7.71345C17.3752 7.45303 17.7265 7.19796 18.0804 6.95356C18.3675 7.20597 18.6279 7.45971 18.863 7.70944ZM20.3774 13.0032C20.3747 13.0032 20.3734 13.0019 20.3707 13.0019C19.9661 12.9258 19.5654 12.8577 19.1674 12.7962C19.1634 12.7962 19.1594 12.7949 19.1554 12.7949C18.3301 12.6694 17.5208 12.5772 16.7356 12.5211C16.7623 12.3676 16.7876 12.2126 16.8117 12.0577C17.235 12.0871 17.665 12.1245 18.0964 12.1726C18.1017 12.1739 18.1084 12.1739 18.1138 12.1739C18.1939 12.1739 18.2633 12.1125 18.2727 12.031C18.282 11.9429 18.2193 11.8641 18.1311 11.8534C17.7038 11.8067 17.2778 11.7693 16.8584 11.7399C16.8811 11.5756 16.9012 11.4114 16.9199 11.2471C18.6707 11.3032 19.9193 11.4421 19.9327 11.4434C19.938 11.4434 19.9447 11.4434 19.95 11.4434C20.0315 11.4434 20.1009 11.3833 20.109 11.3019C20.1196 11.2137 20.0569 11.1336 19.9687 11.1242C19.9554 11.1229 18.7067 10.984 16.9559 10.9279C16.9799 10.6728 17 10.4178 17.0147 10.164C18.9244 10.2241 20.3173 10.4044 20.7059 10.4592C20.8969 11.3352 20.9543 12.2193 20.8809 13.1034C20.7126 13.0687 20.5443 13.0353 20.3774 13.0032ZM16.5379 15.5981L16.1853 15.2228C17.1682 14.6913 18.1311 14.0195 19.1915 13.1248C19.2876 13.1395 19.3851 13.1555 19.4813 13.1715C18.6426 14.1451 17.653 14.9597 16.5379 15.5981ZM16.7623 15.8371C17.2177 15.574 17.6517 15.2816 18.063 14.961C17.9174 15.562 17.7358 16.1256 17.5208 16.6437L16.7623 15.8371ZM19.9554 9.07028C20.2599 9.519 20.4588 9.88759 20.5737 10.1173C20.0208 10.0452 18.7267 9.89694 17.032 9.84352C17.0414 9.63118 17.0467 9.41884 17.0494 9.20784C18.0256 9.01419 19.0018 8.96745 19.9554 9.07028ZM16.6781 12.839C17.0374 12.8644 17.4006 12.8964 17.7692 12.9365C17.3285 13.2663 16.8918 13.5681 16.4618 13.8392C16.5419 13.5067 16.614 13.1728 16.6781 12.839ZM16.3483 14.2866C16.9639 13.9154 17.5969 13.48 18.2299 12.9899C18.4076 13.0126 18.5865 13.0353 18.7668 13.0607C17.864 13.8059 17.0307 14.3868 16.188 14.8569C16.2441 14.6672 16.2975 14.4776 16.3483 14.2866ZM17.0507 8.88065C17.0494 8.59753 17.0414 8.31441 17.028 8.03396C17.7251 8.00591 18.4423 8.00725 19.1621 8.04064C19.3678 8.27835 19.5494 8.50805 19.7096 8.7244C18.8349 8.65629 17.9428 8.70971 17.0507 8.88065ZM16.7008 7.9565C16.8277 10.2014 16.5352 12.5786 15.8501 14.8676L15.5857 14.5858C15.6725 14.284 15.7526 13.9795 15.8261 13.675C15.8301 13.6616 15.8328 13.6496 15.8341 13.6363C15.8715 13.484 15.9062 13.3318 15.9396 13.1795C15.9423 13.1702 15.9436 13.1622 15.9463 13.1528C15.9783 13.0032 16.0051 12.8537 16.0344 12.7041C16.0438 12.6841 16.0491 12.6627 16.0505 12.64C16.0505 12.636 16.0478 12.6333 16.0478 12.6293C16.0932 12.3903 16.1333 12.1499 16.1693 11.9108C16.176 11.8935 16.1813 11.8774 16.1827 11.8574C16.1827 11.8521 16.18 11.8467 16.18 11.8414C16.2161 11.5983 16.2468 11.3553 16.2735 11.1136C16.2788 11.0989 16.2828 11.0855 16.2828 11.0708C16.2842 11.0641 16.2802 11.0588 16.2802 11.0535C16.3176 10.7076 16.3456 10.363 16.3643 10.0198C16.367 10.0091 16.371 9.99844 16.371 9.98775C16.371 9.98107 16.3683 9.97573 16.367 9.96906C16.379 9.73401 16.387 9.50164 16.3897 9.26793C16.3937 9.25057 16.3937 9.23321 16.391 9.21451C16.395 8.87531 16.3923 8.5401 16.3776 8.20757C16.4858 8.12344 16.5927 8.03797 16.7008 7.9565ZM15.1236 14.093C15.2251 14.0409 15.328 13.9888 15.4321 13.9341C15.3988 14.0596 15.364 14.1865 15.328 14.312L15.1236 14.093ZM15.8314 9.82616C15.8141 9.73134 15.7954 9.63652 15.7754 9.54304C15.8728 9.51099 15.9703 9.48161 16.0665 9.45223C16.0625 9.57643 16.0611 9.70063 16.0558 9.82616C15.981 9.82482 15.9062 9.82616 15.8314 9.82616ZM15.5336 13.5134C15.3186 13.6322 15.1049 13.7444 14.8939 13.8499L14.4559 13.3839C14.8312 13.3505 15.2064 13.3211 15.5844 13.2957C15.5684 13.3678 15.551 13.4413 15.5336 13.5134ZM16.0638 8.45597C16.0705 8.67498 16.0745 8.894 16.0718 9.11569C15.9516 9.15175 15.8288 9.18781 15.7059 9.22787C15.6739 9.09299 15.6405 8.95944 15.6044 8.82856C15.7567 8.70303 15.9102 8.57883 16.0638 8.45597ZM14.8258 9.48829C14.8512 9.6018 14.8766 9.71665 14.8993 9.83417C14.7364 9.83818 14.5761 9.84486 14.4132 9.8502C14.5507 9.72734 14.6883 9.60714 14.8258 9.48829ZM14.0473 10.1827C14.6976 10.1534 15.3654 10.1427 16.0358 10.1467C16.0197 10.3991 15.9997 10.6528 15.973 10.9079C15.0048 10.8972 14.078 10.9199 13.2059 10.9747C13.485 10.7049 13.7655 10.4405 14.0473 10.1827ZM12.8533 11.3179C13.8135 11.2471 14.8512 11.2177 15.9396 11.2284C15.9223 11.3806 15.9009 11.5329 15.8782 11.6865C14.6803 11.6424 13.5064 11.6771 12.3846 11.7906C12.5408 11.6317 12.6971 11.4728 12.8533 11.3179ZM12.0294 12.1525C13.2433 12.0083 14.5213 11.9602 15.8328 12.0056C15.8074 12.1606 15.7807 12.3155 15.7526 12.4691C14.2903 12.4183 12.8707 12.4931 11.5246 12.6907C11.6928 12.5091 11.8611 12.3288 12.0294 12.1525ZM11.172 13.0687C12.6023 12.831 14.1207 12.7361 15.6926 12.7882C15.6805 12.8483 15.6712 12.9098 15.6578 12.9685C14.3985 13.0513 13.1498 13.1822 11.9279 13.3558C11.9225 13.3558 11.9185 13.3558 11.9145 13.3571C11.6835 13.3905 11.4538 13.4239 11.2241 13.46C11.2214 13.4613 11.2174 13.4613 11.2147 13.4626C11.0598 13.4867 10.9062 13.5121 10.754 13.5374C10.8929 13.3798 11.0331 13.2223 11.172 13.0687ZM11.6207 13.7231C11.4484 14.0075 11.3269 14.2746 11.2388 14.5591C11.2121 14.6445 11.2588 14.734 11.3429 14.7607C11.359 14.7647 11.375 14.7674 11.391 14.7674C11.4591 14.7674 11.5232 14.7233 11.5446 14.6552C11.6474 14.3227 11.805 14.0129 12.0414 13.663C12.1883 13.6429 12.3338 13.6216 12.4807 13.6029L13.3395 14.5163C12.4313 14.8408 11.5526 15.0332 10.6872 15.0919C10.8274 14.6205 11.0411 14.1851 11.3362 13.7671C11.4311 13.7524 11.5246 13.7378 11.6207 13.7231ZM10.4148 13.9207C10.5777 13.8913 10.742 13.8646 10.9062 13.8366C10.6565 14.2372 10.4735 14.6566 10.352 15.1066C10.0448 15.116 9.73903 15.1066 9.4332 15.0826C9.75906 14.6873 10.0862 14.2973 10.4148 13.9207ZM9.18614 15.3844C9.4933 15.4164 9.80179 15.4351 10.1103 15.4351C10.2291 15.4351 10.348 15.4311 10.4682 15.4258C10.4695 15.4258 10.4722 15.4271 10.4749 15.4271C10.4775 15.4271 10.4802 15.4258 10.4829 15.4258C11.4912 15.3831 12.5155 15.1667 13.5798 14.7727L13.9137 15.1266C12.3018 15.741 10.6431 16.004 8.73742 15.9453C8.887 15.757 9.03657 15.5687 9.18614 15.3844ZM18.8683 18.0767L17.7625 16.9001C18.0563 16.2164 18.2954 15.4552 18.469 14.6312C18.6546 14.4736 18.8349 14.308 19.0099 14.1384C18.8817 15.0131 18.6666 15.8278 18.3688 16.5623C18.3354 16.6451 18.3742 16.7386 18.457 16.7719C18.4757 16.78 18.497 16.784 18.5171 16.784C18.5798 16.784 18.6399 16.7452 18.6653 16.6838C19.0205 15.8064 19.2623 14.8222 19.3825 13.7605C19.4719 13.6656 19.5601 13.5695 19.6469 13.4707C19.6429 14.0115 19.5334 14.6739 19.317 15.4512C19.293 15.5366 19.3437 15.6248 19.4292 15.6488C19.4426 15.6528 19.4572 15.6555 19.4719 15.6555C19.5414 15.6555 19.6068 15.6087 19.6255 15.538C19.8793 14.6285 19.9914 13.8633 19.9647 13.253C20.0395 13.2663 20.1143 13.281 20.1891 13.2944C20.2425 13.8005 20.1704 14.3881 19.9714 15.0465C19.946 15.132 19.9941 15.2215 20.0782 15.2468C20.0943 15.2522 20.109 15.2535 20.125 15.2535C20.1931 15.2535 20.2572 15.2094 20.2786 15.14C20.4775 14.4816 20.5577 13.8833 20.5176 13.3571C20.6285 13.3785 20.7393 13.4012 20.8515 13.4239C20.8087 13.7738 20.746 14.1237 20.6632 14.4736C20.34 15.8131 19.735 17.0243 18.8683 18.0767ZM18.1098 4.59245C19.4613 5.6635 20.1063 7.03369 20.4121 8.16484C19.1795 5.34032 16.3963 3.56548 13.859 2.77488C15.0275 2.94982 16.6194 3.41323 18.1098 4.59245ZM10.7981 2.61863C13.4944 2.51446 18.2299 4.27995 20.0248 8.07669C19.1741 6.68781 17.9348 5.50859 16.3149 4.55773C16.2374 4.51366 16.1399 4.53903 16.0945 4.61516C16.0505 4.69128 16.0758 4.7901 16.152 4.83551C17.7412 5.76767 18.9524 6.92285 19.7764 8.28503C19.6589 8.13412 19.5307 7.9792 19.3918 7.82028C19.3798 7.79224 19.3584 7.76954 19.333 7.75218C19.0192 7.39694 18.652 7.02701 18.2299 6.6611C18.2286 6.65976 18.2286 6.65709 18.2273 6.65575C18.2113 6.63172 18.1885 6.61569 18.1645 6.60367C17.9762 6.44208 17.7759 6.28316 17.5649 6.12424C17.5502 6.10688 17.5328 6.09352 17.5128 6.08417C17.2524 5.89187 16.9759 5.70356 16.6808 5.5206C16.6674 5.50992 16.6541 5.50057 16.6367 5.4939C16.403 5.351 16.1586 5.21211 15.9022 5.07723C15.8929 5.07055 15.8822 5.06654 15.8715 5.0612C15.4989 4.86756 15.1023 4.68594 14.6803 4.519C14.6763 4.51767 14.6736 4.51633 14.6709 4.515C14.5935 4.48428 14.5133 4.4549 14.4332 4.42552C14.4279 4.42285 14.4225 4.42018 14.4158 4.41884C14.3664 4.40015 14.317 4.38011 14.2663 4.36275C10.9837 3.19154 8.67733 3.73241 7.41931 4.2893C8.29939 3.63893 9.48529 3.27568 10.965 3.21158C11.0545 3.20757 11.1226 3.13278 11.1186 3.04464C11.1146 2.9565 11.0384 2.88839 10.9516 2.89106C9.31702 2.96184 8.01894 3.38519 7.07209 4.15175C7.79725 3.2276 9.09533 2.6814 10.7981 2.61863ZM13.6733 8.93006C13.5732 8.79384 13.4757 8.65362 13.3822 8.50672C13.7174 8.42926 14.0606 8.36115 14.4118 8.30239C14.1634 8.50672 13.9177 8.71638 13.6733 8.93006ZM4.71899 17.7321C4.54271 17.0938 4.45457 16.3579 4.45457 15.5473C4.6175 15.4472 4.7831 15.351 4.9487 15.2575C4.89928 16.2898 4.94736 17.2914 5.0996 18.2102C4.96739 18.054 4.84052 17.8951 4.71899 17.7321ZM4.13539 15.7463C4.14341 16.1937 4.17813 16.6197 4.23956 17.0177C4.04592 16.6972 3.87364 16.3633 3.72006 16.0174C3.85762 15.9253 3.99517 15.8344 4.13539 15.7463ZM3.80153 11.7359C3.71338 11.7185 3.63059 11.7759 3.61456 11.8641C3.56782 12.1125 3.53443 12.3609 3.51306 12.6039C3.27669 12.7522 3.0964 12.8777 2.96819 12.9712C2.96419 12.9098 2.95751 12.847 2.95484 12.7856C2.97621 12.7522 2.99624 12.7175 3.00959 12.6787C3.19923 12.1512 3.43561 11.6184 3.70938 11.0868C3.97113 10.8104 4.25559 10.5486 4.5574 10.2989C4.34907 10.9212 4.18481 11.5836 4.06728 12.2767C3.99517 12.3181 3.92439 12.3569 3.85762 12.3956C3.87631 12.2394 3.90035 12.0818 3.92973 11.9228C3.94576 11.836 3.88833 11.7519 3.80153 11.7359ZM6.97727 7.7495C6.38433 7.98989 5.81274 8.28636 5.2652 8.63359C5.6378 8.14347 6.03977 7.66537 6.46712 7.2073L6.97727 7.7495ZM4.70564 9.4135C5.38539 8.89667 6.11456 8.46932 6.87978 8.13813C6.79699 8.28636 6.71552 8.43861 6.63806 8.59219C5.97434 8.91537 5.36403 9.28529 4.80981 9.69528C4.79912 9.70196 4.78844 9.7073 4.78043 9.71665C4.59079 9.85688 4.40783 10.0024 4.23155 10.1534C4.38112 9.90495 4.54004 9.65789 4.70564 9.4135ZM5.03016 9.93033C5.31862 9.71799 5.62177 9.51767 5.94095 9.32937C5.42946 9.99844 4.99009 10.9012 4.66825 11.9642C4.58678 12.0043 4.50665 12.0444 4.43053 12.0844C4.57343 11.3206 4.77241 10.5967 5.03016 9.93033ZM6.22273 9.48829C6.21873 9.50031 6.21205 9.51232 6.20671 9.52434C5.93561 10.1774 5.70724 10.8678 5.51894 11.5756C5.36002 11.6424 5.20911 11.7092 5.06488 11.7759C5.37204 10.8518 5.76867 10.0706 6.22273 9.48829ZM5.4495 18.3425C5.25852 17.3075 5.20644 16.1536 5.2839 14.9664C5.2839 14.9637 5.28523 14.9597 5.28523 14.957C5.40409 13.1582 5.81942 11.2872 6.50318 9.64854C6.73155 9.09966 6.99597 8.57349 7.28577 8.07669L7.41264 8.21291C5.88486 10.9733 5.32396 14.2345 5.75131 17.9098C5.65115 18.0527 5.54966 18.1969 5.4495 18.3425ZM6.03176 17.5118C5.69389 14.0917 6.23609 11.0495 7.64501 8.45997L7.77321 8.59619C6.51921 11.0388 5.9957 14.1825 6.36964 17.047C6.25746 17.2006 6.14394 17.3542 6.03176 17.5118ZM6.64741 16.6624C6.36964 13.9942 6.8691 11.1202 8.00692 8.84592L8.51306 9.38278C8.32877 9.74069 8.15382 10.1186 7.9949 10.5072C7.66103 11.3272 7.42466 12.1739 7.2871 13.0406C7.2871 13.042 7.2871 13.0433 7.2871 13.0433C7.23903 13.3398 7.20297 13.6389 7.17893 13.9394C7.17893 13.9394 7.17893 13.9407 7.17893 13.9421C7.15623 14.2332 7.14421 14.527 7.14154 14.8222C7.14154 14.8235 7.14154 14.8248 7.14154 14.8262V14.8275C7.1402 15.1988 7.15489 15.5714 7.18694 15.948C7.00665 16.1843 6.82637 16.4207 6.64741 16.6624ZM9.45991 10.3897C9.20083 10.4405 8.94442 10.4952 8.69335 10.554C8.87364 10.4204 9.06061 10.2936 9.25292 10.1707L9.45991 10.3897ZM8.40356 10.371C8.51306 10.1186 8.62792 9.87157 8.74811 9.63252L9.02989 9.933C8.81355 10.0732 8.60521 10.2188 8.40356 10.371ZM7.48075 15.5647C7.4714 15.3857 7.46472 15.2081 7.46339 15.0305C7.58224 15.0665 7.70243 15.0999 7.82129 15.132C7.70778 15.2762 7.59426 15.4191 7.48075 15.5647ZM8.03897 14.8569C7.93881 14.8315 7.83865 14.8075 7.73849 14.7781C7.91611 14.6966 8.10174 14.6192 8.29271 14.5444C8.20858 14.6485 8.12311 14.7514 8.03897 14.8569ZM8.69469 14.0556C8.25665 14.2038 7.84533 14.3708 7.46606 14.5537C7.4714 14.3881 7.48075 14.2239 7.49143 14.0609C8.0323 13.8553 8.58785 13.6723 9.15275 13.5161C9.00051 13.695 8.84693 13.874 8.69469 14.0556ZM9.52268 13.086C8.84293 13.257 8.17252 13.4667 7.52215 13.707C7.54084 13.5281 7.56355 13.3491 7.59025 13.1715C8.18587 12.9618 8.80286 12.7762 9.42653 12.6226C9.63753 12.5706 9.85254 12.5211 10.0689 12.4757C9.88593 12.6774 9.7043 12.879 9.52268 13.086ZM10.4375 12.0738C10.0716 12.1432 9.70564 12.2233 9.3504 12.3115C8.77482 12.453 8.20591 12.6226 7.65169 12.8123C7.68374 12.6413 7.71846 12.4717 7.75852 12.3021C8.5972 12.0203 9.40917 11.8013 10.1704 11.6571C10.4215 11.609 10.6845 11.5649 10.9543 11.5249C10.782 11.7052 10.6098 11.8881 10.4375 12.0738ZM11.3216 11.1496C10.9009 11.2044 10.4936 11.2685 10.1103 11.3406C9.39448 11.4781 8.63459 11.6798 7.85067 11.9362C7.93347 11.6277 8.03096 11.3246 8.14047 11.0227C8.93908 10.8104 9.78176 10.6355 10.6458 10.5059C10.8702 10.4725 11.0919 10.4418 11.3135 10.4138C11.5913 10.379 11.8744 10.3483 12.1589 10.3189C11.8784 10.59 11.5993 10.8665 11.3216 11.1496ZM8.19122 4.35607C7.76654 4.66991 7.34586 5.01313 6.9332 5.38439L6.65543 5.08791C6.88379 4.92766 7.40329 4.60848 8.19122 4.35607ZM9.06328 4.13706C9.32637 4.08765 9.60682 4.04892 9.90863 4.02488C9.45858 4.27995 9.00452 4.57509 8.5558 4.90629C8.54912 4.91029 8.54512 4.9143 8.53977 4.91831C8.16184 5.19742 7.78657 5.50324 7.41931 5.83043C7.41397 5.83444 7.40997 5.83845 7.40462 5.84245C7.39795 5.84913 7.39127 5.85581 7.38326 5.86248L7.15356 5.61809C7.77722 5.0572 8.41825 4.55907 9.06328 4.13706ZM8.86563 5.52328C8.6199 5.55666 8.3715 5.60073 8.12044 5.65282C8.31408 5.4939 8.50772 5.34032 8.7027 5.19609C8.91371 5.15869 9.12872 5.12531 9.34773 5.09325C9.18347 5.22814 9.02321 5.37237 8.86563 5.52328ZM9.85922 4.70196C9.67225 4.72466 9.48529 4.7487 9.30099 4.77541C9.74971 4.4776 10.1971 4.21585 10.6378 4.00084C10.7754 4.00218 10.9182 4.00618 11.0625 4.01419C10.6512 4.19849 10.2478 4.42819 9.85922 4.70196ZM8.48368 5.90923C8.31007 6.09486 8.14314 6.29117 7.97888 6.4955L7.60895 6.10153C7.90142 6.02541 8.19389 5.96131 8.48368 5.90923ZM11.7783 4.08097C12.0481 4.11569 12.3272 4.16377 12.6156 4.2252C11.7462 4.54972 10.0355 5.37771 8.64528 7.20463L8.20056 6.73188C9.2409 5.42178 10.4735 4.50698 11.7783 4.08097ZM13.2112 4.36809C13.4022 4.42018 13.5972 4.4776 13.7962 4.54304C12.8774 4.81281 10.9984 5.62744 9.36242 7.96719L8.8683 7.44101C10.583 5.16136 12.8841 4.45891 13.2112 4.36809ZM15.6712 5.31895C15.7887 5.8331 15.8809 6.36329 15.9476 6.90282C15.7633 6.90949 15.5804 6.91751 15.3987 6.92953C15.32 6.19769 15.165 5.54197 14.934 4.97039C15.1891 5.08124 15.4348 5.19876 15.6712 5.31895ZM15.0796 6.95356C15.0141 6.95891 14.95 6.96425 14.8859 6.97093C14.5267 6.26847 14.082 5.61409 13.5304 4.97707C13.9538 4.81815 14.2529 4.75672 14.3571 4.73935C14.4078 4.75805 14.4572 4.77675 14.5067 4.79544C14.7978 5.40041 14.9888 6.12557 15.0796 6.95356ZM12.1562 5.67151C12.3258 5.56334 12.4901 5.46719 12.649 5.38038C12.9241 6.06281 13.071 6.67846 13.0964 7.25404C12.9815 7.27942 12.868 7.30746 12.7559 7.33551C12.5302 6.8307 12.3312 6.27915 12.1562 5.67151ZM13.4142 7.18594C13.3915 6.77194 13.3101 6.34058 13.1685 5.88252C13.465 6.25244 13.7281 6.65575 13.9578 7.08978C13.7748 7.11783 13.5932 7.14988 13.4142 7.18594ZM14.293 7.03903C13.9418 6.3526 13.5077 5.73562 13.0002 5.20276C13.0737 5.16671 13.1458 5.13465 13.2153 5.10394C13.7548 5.71425 14.1915 6.34058 14.544 7.00832C14.4599 7.01767 14.3758 7.02701 14.293 7.03903ZM10.766 6.79064C10.8648 7.15923 10.9797 7.5198 11.1119 7.8697C10.6752 8.04598 10.2478 8.2463 9.83518 8.46932L9.58678 8.20623C9.97006 7.65201 10.368 7.18326 10.766 6.79064ZM11.2294 8.16751C11.3082 8.35714 11.391 8.54544 11.4805 8.72974C11.1319 8.85661 10.7927 8.9955 10.4695 9.14373L10.0635 8.71238C10.4415 8.51072 10.8314 8.32776 11.2294 8.16751ZM11.6234 9.01954C11.7943 9.35073 11.984 9.67525 12.1896 9.99443C11.9092 10.0211 11.6301 10.0519 11.3549 10.0866L10.7019 9.3908C10.9984 9.25859 11.3069 9.13439 11.6234 9.01954ZM12.5435 9.94902C11.8371 8.89133 11.3416 7.77354 11.0304 6.53957C11.1373 6.44208 11.2441 6.3486 11.3509 6.26046C11.7115 7.61462 12.2083 8.72974 12.8627 9.65522C12.7559 9.75404 12.649 9.8502 12.5435 9.94902ZM13.1017 9.43754C12.458 8.51873 11.9733 7.40495 11.6247 6.04411C11.7088 5.97867 11.7943 5.91857 11.8771 5.85981C12.0601 6.48081 12.2684 7.04705 12.5061 7.56387C12.5061 7.56387 12.5061 7.56387 12.5061 7.56521C12.5101 7.58123 12.5181 7.59592 12.5262 7.61062C12.6704 7.91777 12.8226 8.20891 12.9869 8.48268C12.9896 8.48535 12.9909 8.48935 12.9936 8.49203C13.1311 8.72039 13.2767 8.9354 13.4303 9.14106C13.3194 9.23855 13.2112 9.33871 13.1017 9.43754ZM14.8979 7.90175C14.317 7.98321 13.7481 8.09005 13.2059 8.21825C13.0964 8.03129 12.9922 7.83631 12.8934 7.63198C13.7935 7.40896 14.7551 7.27408 15.762 7.23001C15.4722 7.44902 15.1837 7.67205 14.8979 7.90175ZM16.2655 6.86142C16.2094 6.40602 16.1346 5.95597 16.0424 5.51793C16.176 5.59272 16.3069 5.66884 16.4337 5.74496C16.4885 6.03743 16.5366 6.33524 16.5766 6.63439C16.4725 6.70784 16.3696 6.78529 16.2655 6.86142ZM16.8718 6.43006C16.8491 6.27915 16.8264 6.12824 16.801 5.97734C16.9252 6.06013 17.0467 6.14293 17.1642 6.22707C17.0668 6.29384 16.9693 6.36195 16.8718 6.43006ZM3.93374 4.83017C3.79351 4.94368 3.66664 5.1814 3.85762 5.6635C3.88299 5.72627 3.86563 5.80105 3.81355 5.84646C3.77482 5.88118 3.72273 5.89587 3.67199 5.88519C3.64261 5.87985 3.58919 5.86115 3.55847 5.80105C3.30473 5.29758 2.98956 4.37076 3.74944 3.82055C4.50131 3.27701 5.59506 4.42819 5.60575 4.44021L10.9637 10.1387C10.8421 10.1547 10.7206 10.1707 10.5977 10.1894C10.34 10.2281 10.0849 10.2709 9.83251 10.3176L7.37124 7.70143C7.37124 7.70009 7.37124 7.70009 7.3699 7.70009L6.59266 6.87344C6.58865 6.86676 6.58598 6.86008 6.58064 6.85474C6.57663 6.85073 6.57263 6.85073 6.56862 6.84806L6.10121 6.34993L4.88326 5.05453C4.68027 4.8502 4.25158 4.57242 3.93374 4.83017ZM5.70858 6.40068C5.44683 6.50752 5.1824 6.62504 4.91531 6.74924C5.08491 6.53556 5.26654 6.3299 5.45751 6.13225L5.70858 6.40068ZM4.50398 7.30613C4.83117 7.14053 5.15569 6.98695 5.47754 6.84673C4.65756 7.76419 3.93507 8.74844 3.33545 9.75271C3.60121 8.87931 3.99517 8.05533 4.50398 7.30613ZM2.51814 12.6867L2.49544 12.6801C2.40596 12.6467 2.36189 12.5452 2.39394 12.453C2.57556 11.9522 2.79458 11.4447 3.04966 10.9386C3.04966 10.9373 3.04966 10.9373 3.04966 10.9359C3.78283 9.47894 4.80313 8.02862 6.01841 6.73054L6.24811 6.9736C5.10361 8.19689 4.13539 9.5604 3.42626 10.9373V10.9386C3.14447 11.4835 2.90275 12.0297 2.70778 12.5706C2.67706 12.6547 2.59159 12.7041 2.51814 12.6867ZM2.93481 13.4052C2.93881 13.4012 3.19923 13.1782 3.7214 12.8537C3.7254 12.8523 3.72808 12.8483 3.73208 12.847C4.13673 12.5959 4.69629 12.2861 5.42012 11.9683C5.33999 12.2995 5.26787 12.6347 5.20778 12.9712C3.96312 13.5388 3.08838 14.0476 2.9308 14.1411C2.86803 14.1491 2.73181 14.1451 2.67038 13.9808C2.56488 13.6977 2.92412 13.4132 2.93481 13.4052ZM2.79458 14.8595C2.71045 14.6218 3.05767 14.4375 3.06168 14.4362C3.06301 14.4349 3.06435 14.4335 3.06568 14.4322C3.06702 14.4322 3.06969 14.4309 3.07102 14.4309C3.08037 14.4255 3.89902 13.9327 5.14501 13.3531C5.11563 13.5401 5.08892 13.7271 5.06488 13.9127C4.41184 14.2506 3.7668 14.6298 3.15115 15.0412C3.12711 15.0519 3.02829 15.0852 2.94549 15.0519C2.88139 15.0251 2.83064 14.961 2.79458 14.8595ZM3.23662 15.8665C3.1832 15.8531 3.1378 15.8104 3.09773 15.7383C2.98689 15.5366 3.31141 15.3203 3.31675 15.3176C3.86696 14.9477 4.43855 14.6085 5.01947 14.3C4.99944 14.4936 4.98208 14.6859 4.96873 14.8782C4.44656 15.1667 3.9284 15.4859 3.42893 15.8264C3.42893 15.8264 3.32877 15.8879 3.23662 15.8665ZM5.51894 19.2946C5.31194 19.1344 5.48021 18.862 5.49757 18.8339C6.88379 16.8067 8.29672 14.9704 9.75105 13.3117C9.75105 13.3104 9.75238 13.3104 9.75238 13.3104C10.0502 12.9712 10.3493 12.64 10.6498 12.3155C10.6512 12.3141 10.6538 12.3115 10.6552 12.3101C11.3322 11.5796 12.0187 10.8865 12.7145 10.2295C12.7198 10.2241 12.7265 10.2201 12.7305 10.2134C13.0657 9.89828 13.4036 9.59245 13.7441 9.29331C13.7441 9.29331 13.7441 9.29331 13.7441 9.29197C13.7454 9.29197 13.7454 9.29197 13.7454 9.29064C14.9447 8.23695 16.172 7.28343 17.4367 6.42872C17.5729 6.53156 17.7038 6.63439 17.8293 6.73855C17.4741 6.98428 17.1215 7.24069 16.7716 7.50244C16.7663 7.50511 16.7623 7.51045 16.7569 7.51446C16.2748 7.87504 15.7981 8.25164 15.3253 8.64293C15.3226 8.6456 15.32 8.64694 15.3173 8.64961C12.5649 10.9319 9.95137 13.7378 7.41397 17.1392C7.40596 17.1472 7.39795 17.1539 7.39261 17.1632C7.38993 17.1672 7.3886 17.1712 7.38593 17.1753C6.8878 17.8457 6.391 18.5374 5.89688 19.2546C5.85548 19.2933 5.69255 19.4282 5.51894 19.2946ZM6.69282 18.6777C6.81568 19.1304 6.96125 19.5657 7.13219 19.9744C6.82102 19.7767 6.52188 19.5604 6.23742 19.3267C6.38967 19.1077 6.54191 18.8913 6.69282 18.6777ZM8.40089 21.1523C8.12711 21.0855 7.78256 20.5941 7.63165 20.3029C7.34186 19.71 7.10815 19.0476 6.93454 18.3371C7.10414 18.1007 7.27375 17.8684 7.44335 17.6387C7.84266 19.4629 8.50639 20.7116 8.67332 21.0067C8.63993 21.0842 8.56381 21.191 8.40089 21.1523ZM8.95644 20.8558C8.83358 20.6368 8.31542 19.6672 7.92412 18.2396C9.2863 18.6443 10.6164 18.8499 11.8985 18.8499C12.45 18.8499 12.9922 18.8099 13.5264 18.7337C13.3782 19.0022 13.2233 19.2653 13.063 19.5243C12.0881 19.738 11.0331 19.8462 9.92466 19.8462C9.89394 19.8462 9.85922 19.8475 9.83384 19.8462C9.7457 19.8462 9.67359 19.917 9.67359 20.0051C9.67225 20.0946 9.74437 20.1667 9.83251 20.1667C9.86323 20.1667 9.89394 20.1667 9.92466 20.1667C10.9409 20.1667 11.9132 20.0772 12.824 19.9009C12.5128 20.3817 12.1829 20.8478 11.833 21.2952C11.817 21.3152 11.8037 21.3379 11.7903 21.3606C11.1333 21.3499 10.4735 21.2685 9.8285 21.1136C9.53336 21.0428 9.2409 20.9546 8.95644 20.8558ZM12.3405 21.7172C12.2991 21.7693 12.2323 21.7933 12.1709 21.7786C12.1469 21.7733 12.1255 21.7626 12.1068 21.7466C12.0721 21.7172 12.0494 21.6758 12.0454 21.629C12.0414 21.5796 12.0547 21.5316 12.0841 21.4942C12.5181 20.9426 12.9201 20.3617 13.294 19.7594C13.2981 19.754 13.3007 19.75 13.3034 19.7447C13.5291 19.3801 13.7428 19.0062 13.9471 18.6242C13.9511 18.6176 13.9538 18.6109 13.9578 18.6029C14.2863 17.9859 14.5881 17.3462 14.8565 16.6865C14.8592 16.6811 14.8606 16.6758 14.8632 16.6691C14.9126 16.5449 14.9621 16.4194 15.0101 16.2938L15.2639 16.5636C14.5227 18.4533 13.5398 20.1867 12.3405 21.7172ZM13.7949 21.167C15.1544 20.4552 16.18 19.5484 16.9666 18.3732L17.1843 18.6055C16.9145 18.9461 16.6167 19.2693 16.2922 19.5644C16.2267 19.6245 16.2227 19.726 16.2815 19.7914C16.3135 19.8262 16.3576 19.8435 16.4004 19.8435C16.4391 19.8435 16.4778 19.8288 16.5085 19.8008C16.833 19.5043 17.1335 19.1811 17.406 18.8406L17.7559 19.2132C16.6194 20.1801 15.2465 20.8545 13.7949 21.167ZM21.5232 22.0604C21.3336 22.2394 21.0331 22.2313 20.8541 22.0404L20.0288 21.163C20.3467 20.9947 20.5804 20.781 20.7286 20.5246L21.5432 21.39C21.6301 21.4835 21.6768 21.6037 21.6728 21.7305C21.6688 21.8561 21.6154 21.9736 21.5232 22.0604Z" fill="#DE5F7B"/>
</g>
</svg>
