<svg width="24" height="24" viewBox="0 0 24 24" fill="none" xmlns="http://www.w3.org/2000/svg">
<g clip-path="url(#clip0_79_39)">
<path d="M0.903931 2.05603C0.903931 1.29664 1.51954 0.68103 2.27893 0.68103H21.5289C22.2883 0.68103 22.9039 1.29664 22.9039 2.05603V21.8701C22.9039 22.6295 22.2883 23.2451 21.5289 23.2451H2.27893C1.51954 23.2451 0.903931 22.6295 0.903931 21.8701V2.05603Z" fill="#F76A89" stroke="#F76A89" stroke-width="0.55"/>
<path d="M11.9865 18.0001C13.462 18.0001 14.6581 15.3137 14.6581 12C14.6581 8.68633 13.462 6 11.9865 6C10.5111 6 9.31494 8.68633 9.31494 12C9.31494 15.3137 10.5111 18.0001 11.9865 18.0001Z" stroke="white"/>
<path d="M12.0573 18.0001C14.7684 18.0001 16.9661 15.3137 16.9661 12C16.9661 8.68633 14.7684 6 12.0573 6C9.34632 6 7.14856 8.68633 7.14856 12C7.14856 15.3137 9.34632 18.0001 12.0573 18.0001Z" stroke="white"/>
<path d="M7.14856 6H16.9661" stroke="white"/>
<path d="M12.0573 6V18.0001" stroke="white"/>
<path d="M6.08644 12.4597L8.63099 11.218" stroke="white"/>
<path d="M8.06581 12.4597L10.6104 11.218" stroke="white"/>
<path d="M10.6694 12.4616L13.2819 11.218" stroke="white"/>
<path d="M13.3409 12.4616L15.9534 11.218" stroke="white"/>
<path d="M15.369 12.4616L17.9815 11.218" stroke="white"/>
</g>
<defs>
<clipPath id="clip0_79_39">
<rect width="24" height="24" fill="white"/>
</clipPath>
</defs>
</svg>
