<svg width="56" height="56" viewBox="0 0 56 56" fill="none" xmlns="http://www.w3.org/2000/svg">
<rect width="56" height="56" fill="#52BF90" fill-opacity="0.3"/>
<g clip-path="url(#clip0_52_21)">
<path d="M32.5833 29.8333C32.5833 30.0764 32.4868 30.3096 32.3149 30.4815C32.1429 30.6534 31.9098 30.75 31.6667 30.75H24.3333C24.0902 30.75 23.8571 30.6534 23.6852 30.4815C23.5132 30.3096 23.4167 30.0764 23.4167 29.8333C23.4167 29.5902 23.5132 29.3571 23.6852 29.1852C23.8571 29.0132 24.0902 28.9167 24.3333 28.9167H31.6667C31.9098 28.9167 32.1429 29.0132 32.3149 29.1852C32.4868 29.3571 32.5833 29.5902 32.5833 29.8333ZM28.9167 32.5833H24.3333C24.0902 32.5833 23.8571 32.6799 23.6852 32.8518C23.5132 33.0237 23.4167 33.2569 23.4167 33.5C23.4167 33.7431 23.5132 33.9763 23.6852 34.1482C23.8571 34.3201 24.0902 34.4167 24.3333 34.4167H28.9167C29.1598 34.4167 29.3929 34.3201 29.5649 34.1482C29.7368 33.9763 29.8333 33.7431 29.8333 33.5C29.8333 33.2569 29.7368 33.0237 29.5649 32.8518C29.3929 32.6799 29.1598 32.5833 28.9167 32.5833ZM37.1667 26.6112V34.4167C37.1652 35.6318 36.6819 36.7967 35.8226 37.656C34.9634 38.5152 33.7985 38.9985 32.5833 39H23.4167C22.2015 38.9985 21.0366 38.5152 20.1774 37.656C19.3181 36.7967 18.8348 35.6318 18.8333 34.4167V21.5833C18.8348 20.3682 19.3181 19.2033 20.1774 18.344C21.0366 17.4848 22.2015 17.0015 23.4167 17H27.5554C28.3984 16.9978 29.2335 17.1628 30.0123 17.4853C30.7911 17.8079 31.4983 18.2816 32.0929 18.8792L35.2866 22.0747C35.8845 22.6689 36.3585 23.3758 36.6812 24.1546C37.004 24.9333 37.169 25.7683 37.1667 26.6112ZM30.7968 20.1753C30.5083 19.8959 30.1844 19.6555 29.8333 19.4603V23.4167C29.8333 23.6598 29.9299 23.8929 30.1018 24.0648C30.2737 24.2368 30.5069 24.3333 30.75 24.3333H34.7063C34.511 23.9824 34.2703 23.6588 33.9904 23.3708L30.7968 20.1753ZM35.3333 26.6112C35.3333 26.46 35.304 26.3152 35.2903 26.1667H30.75C30.0207 26.1667 29.3212 25.8769 28.8055 25.3612C28.2897 24.8455 28 24.146 28 23.4167V18.8764C27.8515 18.8627 27.7058 18.8333 27.5554 18.8333H23.4167C22.6873 18.8333 21.9879 19.1231 21.4721 19.6388C20.9564 20.1545 20.6667 20.854 20.6667 21.5833V34.4167C20.6667 35.146 20.9564 35.8455 21.4721 36.3612C21.9879 36.8769 22.6873 37.1667 23.4167 37.1667H32.5833C33.3127 37.1667 34.0122 36.8769 34.5279 36.3612C35.0436 35.8455 35.3333 35.146 35.3333 34.4167V26.6112Z" fill="#52BF90"/>
</g>
<defs>
<clipPath id="clip0_52_21">
<rect width="22" height="22" fill="white" transform="translate(17 17)"/>
</clipPath>
</defs>
</svg>
