<svg width="56" height="56" viewBox="0 0 56 56" fill="none" xmlns="http://www.w3.org/2000/svg">
<rect width="56" height="56" fill="#52BF90" fill-opacity="0.3"/>
<g clip-path="url(#clip0_52_21)">
<path d="M31.75 29.5C31.75 29.6989 31.671 29.8897 31.5303 30.0303C31.3897 30.171 31.1989 30.25 31 30.25H25C24.8011 30.25 24.6103 30.171 24.4697 30.0303C24.329 29.8897 24.25 29.6989 24.25 29.5C24.25 29.3011 24.329 29.1103 24.4697 28.9697C24.6103 28.829 24.8011 28.75 25 28.75H31C31.1989 28.75 31.3897 28.829 31.5303 28.9697C31.671 29.1103 31.75 29.3011 31.75 29.5ZM28.75 31.75H25C24.8011 31.75 24.6103 31.829 24.4697 31.9697C24.329 32.1103 24.25 32.3011 24.25 32.5C24.25 32.6989 24.329 32.8897 24.4697 33.0303C24.6103 33.171 24.8011 33.25 25 33.25H28.75C28.9489 33.25 29.1397 33.171 29.2803 33.0303C29.421 32.8897 29.5 32.6989 29.5 32.5C29.5 32.3011 29.421 32.1103 29.2803 31.9697C29.1397 31.829 28.9489 31.75 28.75 31.75ZM35.5 26.8637V33.25C35.4988 34.2442 35.1033 35.1973 34.4003 35.9003C33.6973 36.6033 32.7442 36.9988 31.75 37H24.25C23.2558 36.9988 22.3027 36.6033 21.5997 35.9003C20.8967 35.1973 20.5012 34.2442 20.5 33.25V22.75C20.5012 21.7558 20.8967 20.8027 21.5997 20.0997C22.3027 19.3967 23.2558 19.0012 24.25 19H27.6363C28.326 18.9982 29.0092 19.1332 29.6464 19.3971C30.2836 19.661 30.8622 20.0486 31.3488 20.5375L33.9618 23.152C34.4509 23.6382 34.8388 24.2166 35.1028 24.8537C35.3669 25.4909 35.5019 26.1741 35.5 26.8637ZM30.2883 21.598C30.0522 21.3694 29.7872 21.1727 29.5 21.013V24.25C29.5 24.4489 29.579 24.6397 29.7197 24.7803C29.8603 24.921 30.0511 25 30.25 25H33.487C33.3272 24.7129 33.1303 24.4481 32.9013 24.2125L30.2883 21.598ZM34 26.8637C34 26.74 33.976 26.6215 33.9648 26.5H30.25C29.6533 26.5 29.081 26.2629 28.659 25.841C28.2371 25.419 28 24.8467 28 24.25V20.5353C27.8785 20.524 27.7593 20.5 27.6363 20.5H24.25C23.6533 20.5 23.081 20.7371 22.659 21.159C22.2371 21.581 22 22.1533 22 22.75V33.25C22 33.8467 22.2371 34.419 22.659 34.841C23.081 35.2629 23.6533 35.5 24.25 35.5H31.75C32.3467 35.5 32.919 35.2629 33.341 34.841C33.7629 34.419 34 33.8467 34 33.25V26.8637Z" fill="#52BF90"/>
</g>
<defs>
<clipPath id="clip0_52_21">
<rect width="18" height="18" fill="white" transform="translate(19 19)"/>
</clipPath>
</defs>
</svg>
