<?xml version="1.0" encoding="UTF-8"?>
<svg id="Layer_1" data-name="Layer 1" xmlns="http://www.w3.org/2000/svg" viewBox="0 0 414 200">
  <defs>
    <style>
      .cls-1 {
        fill: #e9e5dc;
      }

      .cls-2 {
        fill: #ede4ce;
      }

      .cls-3 {
        fill: #fff9b8;
      }

      .cls-4 {
        fill: #fff200;
      }

      .cls-5 {
        fill: #fbb040;
      }

      .cls-6 {
        fill: #fdfdfd;
      }

      .cls-7 {
        fill: #9ed2f1;
      }

      .cls-8 {
        fill: #8fc9e3;
      }

      .cls-9 {
        fill: #d1cac8;
      }

      .cls-10 {
        fill: #e1dbd6;
      }

      .cls-11 {
        fill: #423d39;
      }

      .cls-12 {
        fill: #5c5752;
      }

      .cls-13 {
        fill: #757474;
      }

      .cls-14 {
        fill: #4e4845;
      }
    </style>
  </defs>
  <path class="cls-11" d="M134.57,159.79c.72-2.04-1.41-2.32-1.87-3.64,.28-.14,.56-.28,.84-.41,.25,.09,.6,.09,.73,.27,1.76,2.46,4.02,4.36,6.1,6.42,1.67,1.66,3.34,3.33,4.94,5.07,1.26,1.37,1.96-.19,2.92-.35,1.03-.17,.66-1.07,.74-1.79,.18-1.56-.83-2.65-1.19-3.99-.75-2.81-1.73-5.47-3.61-7.74-1.5-1.81-3.3-3.2-4.92-4.82-2.15-2.15-4.18-4.22-7.48-4.6-3.61-.42-3.06-.97-2.94,2.95,0,.15,0,.3,0,.46,.03,.15,.06,.3,.09,.46,.2,.56,.4,1.12,.6,1.68-.23,.22-.47,.44-.7,.67,0,0,0-.02,0-.02,0-.16-.05-.29-.17-.39-.09-.3-.18-.61-.28-.91-.08-.16-.16-.32-.23-.49-.59-1.8-.61-3.62-.18-5.45-.11-.17-.23-.35-.34-.52-2.3-.95-2.88-3.04-2.99-5.43-.06-1.39,.14-2.76,.63-4.01,.7-1.79,.91-3.45,.3-5.4-.54-1.74-.04-3.59,.74-5.25,.92,.04,.8,.84,.89,1.48,.06,.14,.03,.26-.08,.35-.93,.1-.84,.81-.75,1.52,0,.38-.01,.76-.02,1.13-.01,.79-.35,1.76,.85,1.9,.48,.74,.92,1.51,1.44,2.21,1.16,1.58,1.67,1.49,2.72-.22,.65-1.06,1.27-2.28,2.18-2.97,1.08-.81,1.29-1.76,1.4-3.02,.26-2.92,.52-5.86,2.26-8.31,.28-.09,.71-.08,.56-.58-.13-.41-.52-.27-.82-.25-1.27,.09-2.54,.19-3.8,.28-.05-.3-.11-.59-.16-.89l.08-.09s.11,.04,.11,.04c1.08-.13,2.15-.26,3.23-.39,1.48,.31,2.96,.59,4.3-.53,.43,.1,.89,.16,1.11,.67-3.83,1.68-5.39,5-5.69,9.3-.1,1.4,.32,1.3,1.26,.89,1.72-.75,3.49-1.37,5.24-2.04,.19,.44,.49,.75,.91,.91,.62,.27,1.24,.56,1.87,.8,1.41,.53,2.11-.39,1.79-2.3-.27-.24-.53-.48-.8-.72,2.32-.59,4.56-1.48,6.9-2.07,2.49-.62,4.82,.06,7.22,.05,2.89,0,5.41,.96,7.7,2.78,.49,.39,.9,.68,1.49,.4-.35,1.71,1.47,1.25,1.85,2.23-.72,1.23-1,2.72-.29,3.84,.43,.69,1.69,.88,2.69,.59,5.4-1.58,10.78-1.64,16.18,.15,1.24,.41,2.04-.24,1.75-1.84-.37-2-1.48-3.49-3.05-4.39-4.14-2.36-8.49-3.13-13.04-1.56-.37,.13-.8,.43-1.01-.25,.44-1.5,2.61-.78,2.76-2.63-3.51-1.67-4.51-1.42-4.8,1.25-.28,0-.56-.01-.83-.02,.05-1.81-.74-2.98-2.02-4.16-3.57-3.29-7.85-4.22-12.24-4.93,.14-.3,.27-.61,.41-.91,.97-.02,1.93-.05,2.9-.07,.13-.05,.27-.1,.4-.14,2.17-.77,4.33-1.6,6.64-1.71,.49,.06,.97,.12,1.33-.37,6.73-1.3,13.36-.58,19.9,1.36,.72,.21,1.27,.19,1.97-.06,5.13-1.83,10.37-2.53,15.73-1.53,1.07,.2,2.04,.19,2.81-.78,.4,.09,.81,.15,1.04,.59-.69,.77-1.49,1.4-1.76,2.58-.17,.72-.76,1.56-.2,2.11,.71,.7,1.11-.54,1.72-.74,.32,.03,.63,.05,.95,.08-.3,.7-.11,1.03,.56,1.34,1.27,.59,2.49,1.31,3.71,2.02,.72,.42,1.42,1.25,2.24,.46,.81-.77,1.71-1.64,1.47-3.03-.28-1.61-.62-3.21-1.04-4.77-.18-.67-.4-1.52-1.34-1.41-.22-.24-.44-.47-.66-.71,.47-1.03,.08-1.42-.83-1.14-.82,.25-1.6,.69-2.39,1.05-.03-.72-.27-1.49,.39-2.06,.82,.61,1.6,.52,1.87-.55,.17-.7-.47-1.77-.9-1.77-.85,.01-.98,1.02-.99,1.87-1.01-.14-.72-.86-.55-1.52,.29-1.1,.21-1.97-1.06-2.15-4.96-2.71-8.85-6.68-11.76-11.84,.1-.39,.2-.77,.29-1.16,.28,.26,.56,.52,.84,.77,2.86,4.77,6.45,8.64,11.47,11.34-.36-2.71-1.21-4.94-.91-7.31,.13-.96-.43-1.55-.87-2.22,.03-.39,.06-.79,.09-1.18,.1,.02,.19,.06,.26,.14,.28-.14,.57-.27,.85-.41,1.9,2.23,4.14,3.61,6.98,4.01,4.22,.6,8.45,.64,12.68,.46,2.86-.13,5.6-.91,8.36-2.36-.38-.3-.53-.45-.71-.55-3.81-2.08-7.94-2.53-12.09-2.94-4.4-.44-8.88-.49-12.76-3.35-.84-.62-1.43-.34-1.72,.73-.2,.73-.4,1.45-.6,2.18-.27,0-.54-.01-.8-.02,.1-.74,.11-1.5,.31-2.21,.81-2.95,.51-3.44-2.54-3.51,1.39-.64,1.46-1.33,.39-2.12-.22-.16-.29-.49-.02-.76,1.09-.54,1.3,.63,1.71,1.17,2.37,3.1,5.55,4.64,8.97,5.72,.52,.16,1.17,.37,1.51-.27,.25-.47,.09-1.13-.25-1.5-1.83-1.99-2.85-4.61-4.48-6.77-2.42-3.21-3.14-8.72,2.46-9.66-.31,1.11-1.22,1.63-2,2.15-1.63,1.09-1.67,2.47-1.09,4.21,.32,.97,1.12,1.43,1.62,2.18,.3,1.27,.85,1.63,2.09,1.11,2.61-1.09,5.29-1.97,7.94-2.93-.02,.33-.05,.66-.07,.98,.01,.76,.02,1.52,.03,2.28,.05,3.33,.34,3.67,3.25,3.79,.15,.05,.29,.09,.44,.14,.18,.02,.35,.05,.53,.07,0,0,0,0,0,0,.44,.64,1.07,.47,1.66,.46,2.23,.22,4.12,1.68,6.31,2.08,.82,.42,1.42-.11,2.04-.55,.99-.18,1.97-.35,2.96-.53,.43,.59,1.41,0,1.69,.94-.07,.09-.15,.09-.23,.02-.51-.16-1.02-.25-1.47,.17-1.12,.22-2.24,.44-3.94,.78,1.89,1.01,3.13,1.9,4.11,3.16,.47,.61,1.17,.56,1.74,.32,1.46-.62,3-.6,4.5-.8,4.85-.64,9.58-.07,13.94,2.43,1.27,.73,2.04,.62,2.99-.18-2.6-2.93-5.75-4.49-9.19-5.48,.24-.27,.49-.54,.73-.81,1.08,.1,2.11,.37,3.06,.95,.19,.05,.38,.1,.57,.15,.51-.08,1.02-.16,1.53-.24,.33,.43,.59,.26,.81-.14,1.12-.11,2.24-.22,3.36-.34,.27,.29,.55,.57,.82,.86-1.4,.22-2.81,.44-4.58,.72,1.14,.95,2.14,1.55,2.69,2.31,1.39,1.94,2.91,1.43,4.74,1.29,4.52-.36,9.21-.95,12.78,3.33,.33,.4,.97,.44,1.36,.11,.61-.52,.17-1.2-.17-1.57-1.36-1.46-2.58-3.05-4.42-3.95-3.84-1.88-7.89-2.13-11.99-2.26,0-.31,0-.62,0-.93,.84,0,1.67,0,2.51,0,.39,.54,.8,.57,1.24,.07,1.58,.03,3.15,.11,4.65,.72,.15,.03,.3,.06,.45,.08,1.63,.36,3.24,.96,4.95,.57l.45,.95c-.02,1.76,1.96,1.67,2.31,2.83,1.12,3.7,3.54,2.84,5.94,2.33,.54-.11,1.1-.23,1.65-.23,3.91-.04,7.75,.24,10.86,3.64,.1-2.7-2.28-3.34-3.16-5.09l.37-.45c.22,.03,.45,.07,.67,.1,.6,.7,1.47,.75,2.21,1.12,.19,.53,.38,1.06,.57,1.59,.68,1.81,1.59,3.53,1.67,5.56,.03,.7,.57,1.04,1.02,1.3,1.32,.78,2.69,1.47,4.09,2.22,.39-1.8-.21-3.27-.63-4.77,.28-.07,.56-.13,.84-.2,.56,.78,.7,1.7,.8,2.64,.02,.47,.04,.93,.06,1.4,.04,.35,.08,.7,.12,1.05-.27,.25-.28,.53-.06,.82,.1,1.58,1.83,2.15,1.92,3.73,.12,1.95-.88,.1-1.23,.43-1.9-5.23-8.01-7.6-13.11-6.49-1.21,.26-3.24-.41-3.48,.97-.26,1.53,1.57,2.52,2.65,3.65,3.29,3.46,7.62,5.44,10.74,9.18,.5,.6,.87,2.27,2.29,1.67,.05,.62,.09,1.25,.14,1.87,.25,.7,.49,1.4,.74,2.1-.05,.69,.12,1.18,.85,1.21,.05,.34,.1,.69,.15,1.03,.08,1.46,.16,2.92,.24,4.38-.13,.79-.27,1.57-.4,2.36-.53,.33-1.06,.66-1.58,.99,1.44-5.86,.62-11.01-4.11-15.26-.61,4.06-2.34,7.51-3.03,11.21-.52,2.81-1.82,5.94,.47,8.87,2.01,2.57,1.78,2.66,4,.29,.71-.75,1.22-1.59,1.77-2.44,.3,0,.6,.02,.9,.02-.45,1.69-1.13,3.18-2.57,4.17-1.33,.92-2.08,2.18-1.24,3.97-.14,.64,.2,1.41-.46,1.9-.66-3.12-2.49-5.53-3.91-8.34-1.05,1.18-1.21,2.56-1.58,3.67-1.11,3.34-3.23,6.51-2.39,10.38,.45,2.06,1.19,4.04,1.56,6.11,.3,1.69,.94,1.71,1.91,.79,2.37-2.27,4.47-4.74,4.53-8.5,.8-1.08-.31-2.65,.77-3.66,.64,2.34,.41,4.63-.3,6.89-.62,.73-.97,1.46-.09,2.26,.09,.46,.18,.91,.27,1.37-.29,.01-.58,.02-.86,.03-.66-.61-.9,.1-1.31,.46-2.44,2.09-4.78,3.86-4.62,8.14,.14,3.68-1.55,7.08-4.55,9.44-1.17,.92-2.66,.97-4.09,2.2,2.76,.49,4.94-.39,7.12-1.17,.01,.34,.02,.68,.03,1.03,0,0,0,0,0,0-.35-.03-.66,.07-.85,.42,0,0-.03,0-.03,0-.1-.02-.19,0-.27,.07-1.16,.6-2.54,.65-3.48,1.76-.21,.04-.42,.07-.62,.11-.14,.15-.28,.31-.42,.46-.21-.22-.42-.44-.64-.66-.87-1.26-2.19-.51-3.27-.88-1.98-.68-3.83-.49-5.95,.26-4.85,1.7-9.92,3.34-14.77-.38-.66-.51-1.62-.22-2.08,.48-.66,1.01,.57,1.11,.91,1.65,.21,.34,.67,.51,1.01,.75,3.95,2.73,8.32,3.1,12.82,2.75,.75,.01,1.53,.33,2.2-.33,1.42-.47,2.84-.94,4.26-1.41,.24,.24,.47,.48,.71,.73-.19,.08-.38,.16-.58,.23-.21,.11-.42,.23-.62,.34,0,0-.13,.12-.13,.12,0,0-.16-.03-.16-.03-.5-.07-1.01-.19-1.38,.36-.5,.39-1.05,.55-1.66,.5-.13-.03-.25,0-.36,.1-1.05,.46-2.14,.49-3.25,.41-.28,0-.56,.01-.84,.02-.8,.31-1.6,.35-2.4,0-.27,0-.54-.02-.81-.02-1.22-.06-2.44-.11-3.66-.17-.29-.41-.55-.35-.79,.07-1.15,.26-2.3,.52-3.45,.78-.1-1.32,1.23-1.14,1.9-2.06-2.09-.84-3.8-2.05-5.18-3.79-.39-.49-.98-.28-1.54-.11-4.1,1.3-8.12,1.74-11.88-1.27-.9-.72-2.05-.29-2.58,.57-.46,.74,.44,1.33,.97,1.88,2.36,2.46,5.38,3.19,8.4,3.96,0,.3,0,.61,0,.91-3.17-.73-6.33-.67-9.49,.14-.16,.04-.33,.08-.49,.12-.44,.07-.87,.14-1.31,.22,0-.3,0-.6,0-.89,1.45-.38,2.9-.75,4.61-1.19-.98-1.43-2.64-1.64-3.22-3.05-.66-1.59-1.58-1.57-3.02-1.22-5.29,1.29-10.58,1.85-15.51-1.51-.85-.58-1.36,.05-1.97,.49,4.07,4.8,5.78,5.96,9.97,6.57,2.77,.4,5.55,.16,8.32-.01v.88c-.56,.1-1.13,.19-1.7,.29-3.21-.24-6.42-.48-9.63-.71-1.77-1.06-3.54-.36-5.32-.01-.14,.03-.27,.07-.41,.1-.72,.17-1.46,.77-2.13-.1-.27-.09-.35-.28-.24-.56,1.25-.54,2.75-.09,3.72-.91-1.03-1.28-2.12-2.42-2.96-3.74-.67-1.06-1.11-.96-2.1-.44-6.28,3.27-12.51,5.21-18.21-1.41-.73-.85-1.84-.13-2.43,.5-.6,.65,.27,1.22,.69,1.61,2.62,2.43,5.62,4.04,9.02,4.69,.28,.28,.61,.28,.96,.17,2.04,.1,4.09,.2,6.13,.3,.17,.2,.3,.16,.41-.07,1.6-.23,3.2-.46,4.81-.68,.07,.18,.13,.36,.2,.54,.02,1.13-.84,.56-1.28,.8-.43-.44-.84-.4-1.22,.09-.26,.02-.52,.04-.78,.06-2.56,0-5.12,.01-7.68,.02-.24-.02-.49-.04-.73-.06-.33-.4-.71-.4-1.13-.21-1.22-.07-2.39-.36-3.49-.98-.19-.02-.37-.05-.56-.07-.86-.47-1.72-.52-2.58-.02-.86-.18-1.61,.05-2.25,.7-.25,.13-.44,.06-.56-.22-.24-.04-.48-.09-.73-.13,.81-1.2,2.42-.66,3.54-1.89-1.64-.6-2.66-1.72-3.54-2.97-.73-1.04-1.51-1.05-2.55-.64-3.63,1.45-7.41,1.86-11.24,1.53-2.69-.23-5.18-1.23-7-3.44-1.01-1.22-2.08-1.49-2.94-.54-.93,1.04,.28,1.94,.84,2.8,2.26,3.47,5.55,5.01,9.16,5.99-.29,.63-.87,.47-1.35,.58-.25-.02-.5-.04-.75-.06-.29-.51-.76-.48-1.21-.45-.29-.15-.58-.3-.87-.45-.58-.74-1.31-1.01-2.18-.85-.47,.17-.94,.33-1.4,.5-.43-.11-.93-.12-.99-.79,.76-.27,1.61-.6,.46-1.48-1.23-.94-2.16-2.17-2.68-3.63-.47-1.3-1.18-1.29-2.11-.98-.59,.19-1.16,.48-1.75,.68-5.39,1.81-10.81,2.96-16.11-.17-1.58-.93-2.66-.36-3.86,.63,3.21,3.82,7.27,5.62,11.87,6.16,1.13,.78,2.34,.4,3.54,.31,.28,0,.57,0,.85,0,1.06,.09,2.13,.42,3.13-.3,.39-.03,.78-.07,1.16-.1,.21,0,.41-.01,.62-.02l2.38-.41c-.1,1.55-1.63,.46-2.08,1.36-1.29,.23-2.59,.42-3.91,.21-1.71-.29-3.41-.29-5.12-.02-.6-.03-1.21-.06-1.81-.08-.41-.57-.95-.54-1.52-.38-.61-.11-1.23-.23-1.84-.34-.15-.08-.3-.17-.45-.25-.83-.15-1.65-.21-2.47,.02-.04-.65,.06-1.41-.87-1.39-1.1-.89-2.39-1.61-3.27-2.72-1.37-1.74-2.73-1.28-4.32-.61-4,1.68-8.1,2.3-12.3,.96-1.23-.88-2.46-1.76-3.69-2.64,.57,1.75,1.57,2.86,3.15,3.2,1.06,.91,2.32,1.33,3.59,1.72,4.53,1.38,9.17,1.54,13.83,1.38,.31-.03,.62-.07,.92-.1,.67-.2,1.34-.4,2-.6,.07,.32,.14,.65,.21,.97-.36,.41-.81,.38-1.26,.32-.63-.08-1.27-.22-1.76,.42-.38,.01-.77,.03-1.15,.04-.36,0-.73,.02-1.09,.03-1.48,.16-2.95,.16-4.42-.06-1.88-.85-3.93-.47-5.87-.93-.43-.11-.86-.22-1.29-.33-.41-.49-.9-.68-1.49-.44-1.71,.08-3.42,.15-5.13,.23,0-.3,0-.6,0-.91,.5,0,1.01,0,1.51,0,.31,0,.74,.12,.76-.37,.02-.51-.42-.4-.72-.43-1.23-1.17-2.64-2.18-3.65-3.55-1.45-1.95-2.31-4.31-2.2-6.9,.09-2.1-.59-2.88-2.57-2.45-1.01,.22-1.93,.76-2.77,1.41-.34,0-.64-.07-.81-.45,.14-.28,.29-.55,.43-.83,.06-.03,.12-.07,.18-.1-.05,.03-.1,.06-.14,.08,.76-.48,1.51-.99,2.43-1,0,0,.17,.02,.17,.02l.16-.07c.43-.3,.9-.37,1.39-.3,1.63,.15,.5-1.24,.84-1.8,.04-.51,.08-1.02,.13-1.53,.05-.22,.11-.45,.16-.67Zm69.77-7.25v-.04s-.04,.06-.04,.06c.45,1.01,1.11,1.94,.91,3.17-1.36,.37-.84-1.09-1.3-1.6-.05-.16-.11-.32-.16-.47-1.77-3.04-1.43-6.51-1.56-10.35-1.25,1.35-2.35,2.16-3.77,2.29-.68,.06-.55,.69-.34,1.21-.02,.39-.1,.74-.47,.91-.4-.62-.77-1.25-1.19-1.85-1.18-1.65-4.81-2-6-.59-.53,.63-.43,4.96,.2,5.76,2.75,3.5,5.18,7.28,5.9,11.88,.4,2.54,1.17,2.59,3.03,1.93,2.76-.98,2.79-.85,2.54-4.08-.25-3.3-1.42-6.32-2.34-9.41,.04-.4,.08-.8,.49-.97,.99,1.83,1.52,3.86,2.12,5.87,.5,1.68,2.35,2.92,3.47,2.38,.04-.05,.11-.13,.1-.15-.05-.11-.12-.2-.18-.3-.24-.81-1.46-1.36-.53-2.47,3,3.27,5.58,6.92,8.13,10.61,.56,.81,1.07,1.93,1.99,2.05,2.52,.33,4.65-2.13,4.42-4.88-.04-.45-.14-.89-.23-1.34-1.21-6.48-4.95-11.33-8.79-16.09-.7-.87-1.63-1.82-2.61-2.09-3.47-.97-4.59,.18-4.34,4.08,.05,.76,.12,1.52,.18,2.27-.09,.77-.06,1.52,.38,2.19Zm65.63-7.23c-.42,.39-1.12,.65-.54,1.47,.18,.34,.55,.7-.08,.97-.57,.25-.57-.32-.74-.64-.04-.6-.39-.77-.87-.77-1.04-2.21-3.16-.83-4.62-1.64-.04-.02-.28,.19-.27,.26,.24,1.91-1.28,3.73-.1,5.72,2.06,3.49,3.87,7.14,4.12,11.42,.07,1.14,.49,1.04,1.31,.9,2.4-.4,1.94-2.8,2.68-4.36,.34-.42,.28-.91,.22-1.4,0-1.02,0-2.05,0-3.07-.02-.27-.03-.54-.05-.81-.27-.72-.75-1.49,.35-1.92,.07,.25,.14,.49,.22,.74-.09,.58,.11,.93,.67,1.01,.05,.97,.13,1.94,.14,2.91,.01,.64,.1,1.2,.68,1.5,.38,.2,.63-.1,.87-.38,.45-.52,.69-1.01,.33-1.79-.61-1.33-1.1-2.73-1.64-4.1-.11-.65-.06-1.43-.37-1.94-.66-1.11-.2-3.07-2.02-3.32-.1-.28-.19-.56-.29-.84,.12-.08,.23-.17,.31-.29,3.65,.39,5.83-.48,6.7-3.02,1.17-3.44,1.61-7.05,1.37-10.73-.04-.59-.03-1.29-.83-1.32-2.02-.09-4.02,.02-5.97,.66-.7,.23-.71,.83-.71,1.46-.01,3.61-.65,7.09-1.88,10.43-.48,1.29-.07,2.03,1.04,2.47-.02,.14-.02,.28,0,.42Zm-21.36,4.24c-.04,.73,.11,1.37,.71,1.8,.05,2.09,1.1,3.84,1.65,5.76,.18,.63,.87,1.38,1.64,.99,.93-.47,.46-1.2,.08-1.89-.19-.35-.94-.65-.28-1.25,1.45-.09,2.01,1.27,2.69,2.22,1.79,2.49,3.86,4.72,5.43,7.41,.48,.82,1.27,2.04,2.27,1.15,1.11-.98,3.42-.65,2.99-3.53-.38-2.58-1.47-4.79-2.24-7.17-1.1-3.43-3.44-5.95-5.43-8.73-.64-.89-1.5-.97-2.43-.84,0-.32,0-.65-.01-.97,.53-.6,1.28-.48,1.92-.72,2.21-.81,2.39-1.5,.93-3.49-.47-.64-.83-1.35-1.54-1.77-.75-.45-.39-2.27-1.89-1.86-1.11,.3-.92,1.75-1.76,2.35-.31,.22-.32,.94-.47,1.43-.33-.02-.67-.05-1-.07,.7-2.41,.86-4.95,2.02-7.28,1.25-2.51,.85-2.97-1.85-3.12-1.04-.06-2.08-.07-3.12-.07-3,0-3.72,.68-4.22,3.99-.29,1.94-.43,3.92-.83,5.84-.8,3.88-.28,4.67,3.42,4.83,.01,.29,.03,.58,.04,.87-.66,1.78,1.08,2.66,1.29,4.12Zm-68.35-40.83c-1.39-.52-2.76-.34-4.15-.04,1.15,.69,2.39,.47,3.59,.62,2.76,.26,5.3,2.55,8.22,1.28-2.47-1.2-5.03-1.75-7.67-1.86Zm-26.38,38.11s.02-.03,.02-.03l-.89,.44c-.71-.26-1.5-.39-2.12-.81-1.05-.72-1.37-.06-1.67,.83-2-.12-4-.08-6.08-.79,.12,2.27-.42,4.6,1.65,6.01,1.01,.69,1.59,1.7,2.05,2.78,1.37,3.18,3.17,6.19,3.28,9.88,.03,.97,.39,1.39,1.34,.97,.57-.25,1.21-.37,1.83-.4,1.68-.08,1.97-1.05,1.79-2.71-.39-3.42-1.27-6.68-2.46-9.85,.11-.46,.22-.92,.34-1.38,1.05,1.65,1.69,3.53,2.03,5.44,.3,1.69,1.55,1.97,2.51,2.71,.32,.25,.65,.2,.9-.17,.23-.34,.25-.71,.04-1.06-.53-.89-1.08-1.76-1.62-2.64,.3-.07,.59-.14,.89-.21l-.02-.02c.13,.18,.26,.36,.38,.54,2.42,2.54,4.9,5.02,7.23,7.66,1.82,2.06,3.53,3,6.19,1.51,1.47-.83,1.75-1.51,1.4-3.07-1.39-6.17-5.36-10.13-9.68-13.83-1.38-1.18-2.77-2.09-4.62-1.62-.62,.16-1.28-.09-1.76-.54-.83-.79-1.62-.61-2.46-.1-.16,.16-.32,.31-.49,.47Zm142.27-48.07c-.07,1.85,.73,3.44,1.22,5.12,.2,.67,.23,1.61,.93,1.68,.73,.07,1.02-.91,1.48-1.44,.54-.63,.02-1.09-.33-1.54-.97-1.25-1.94-2.49-2.91-3.73-.08-.33-.19-.41-.38-.08Zm-50.11,23.42c.02-.51-.16-.9-.59-1.13,.12-.27,.23-.55,.35-.82,.3-.26,.35-.54,.03-.83-.22-2.34-1.18-4.34-2.59-6.03-1.44-1.73-3.3-2.88-5.2-3.96-3.93-2.22-4.09-2.13-5.48,2.43-.4,1.31,.1,2.01,.88,2.38,2.36,1.1,4.01,3.05,5.59,5.13-.14,.25-.28,.5-.43,.75-.31,.06-.61,.12-.92,.18-.63,.32-.77,.95-.83,1.62-2.52-.88-5.11-1.56-7.75-1.44-4.16,.19-8.43,.29-10.19,5.77-.64,1.99-.1,2.93,1.82,3.16,1.54,.19,2.58-1.16,3.88-1.32,4.83-.57,9.68-.74,14.39,1.03,.95,.36,1.93,1.19,2.91,.33,.95-.83-.18-1.82-.03-2.75,.45-.02,.91-.03,1.36-.05,1.43-1.11,1.56-3.21,2.81-4.45Zm46.68,4.94l.49-.25c1.03-.31,2.05-.63,3.28-1-1.06-.95-1.51-2.99-2.75-2.81-1.74,.24-3.58-.45-5.51,.77,1.85,.94,1.55,4.5,4.55,3.74-.35,1.55-1.96,1.89-2.55,3.22-.21,.13-.57,.23-.59,.39-.06,.49,.34,.48,.65,.53,1.23,1.55,1.72,3.59,2.77,5.28,.21-.17,.48-.27,.53-.45,.83-2.72,1.67-5.44,2.44-8.18,.27-.96-.18-1.12-1.03-.95-.72,.15-1.44,1.02-2.22,.15-.02-.14-.05-.29-.07-.43Zm-101.32-16.01c2.19-.29,4.38-.69,6.57-.85,2.7-.2,5.39,.12,8.03,.78,.98,.25,1.66-.05,1.87-1.15,.24-1.27-.78-1.06-1.35-1.14-5.2-.71-10.3-.31-15.22,1.8-.44,.17-1.23,.17-1.05,.83,.12,.43,.8,.14,1.14-.28Zm105.11-6.25c-.05-.19-.1-.37-.14-.56-.22-.91-.44-1.82-.66-2.72-.04-.15-.07-.3-.11-.45-.65-1.57-3.94-2.18-4.14-.78-.29,2.08-1.59,3.92-.89,6.3,1.46,4.96,3.32,9.94,1.61,15.49,1.98-.52,2.67-2.06,3.22-3.7,1.13-3.4,1.27-6.95,1.31-10.52,.04-.04,.12-.1,.11-.13-.02-.11-.08-.2-.12-.31-.07-.87-.13-1.74-.2-2.62Zm-62.13,24.33c-.2-.04-.39-.08-.59-.12-.48,0-.97,.01-1.45-.02-1.49-.12-2.04,.18-1.24,2.02,1.17,2.71,2.08,5.56,2.99,8.4,.53,1.66,1.57,2.75,2.83,3.69,1.38,1.03,2.91,1.2,4.3,.24,1.26-.87,.82-2.48,.63-3.7-.35-2.15-1.19-4.21-1.51-6.36-.33-2.23-1.47-3.26-3.32-3.65-.88-.19-1.76-.33-2.64-.49Zm55.12-1.15c-.81-3.09-3.12-4.5-5.51-5.73-6.28-3.24-12.5-.74-14.68,5.81-.17,.52-.41,1.05-.05,1.47,.36,.43,.87,.23,1.35,.06,5.28-1.87,10.71-1.02,16.09-1.03,1.03,0,1.61,1.6,2.78,.8,.43-.06,.81-.19,.75-.79-.05-.47-.4-.53-.73-.58Zm.82,41.8c2.09-1.48,2.99-3.89,3.82-6.26,.76-2.15,.3-2.58-1.74-2.12-7.1,1.59-12.87,6.28-19.33,9.62,1.39,1.39,1.46,1.39,2.62,1.67,4.78,1.13,9.12-.6,13.46-2.42,.53,.23,.98,.25,1.17-.49Zm-44.65-44.92c-.08,.12-.16,.25-.25,.37-.72,1.37-1.21,2.78-.84,4.59,1.32-.86,2.57-1.3,3.9-1.27,4.37,.1,8.74,.22,13.11,.39,.89,.03,1.77,.23,2.61,.69,.85,.47,1.95,1.09,2.66,.07,.64-.9-.08-1.99-.52-2.87-.29-.58-.73-1.12-1.22-1.51-4.88-3.91-10.28-4.94-16.12-3.36,0-.69-.04-1.38-.79-1.65-.28-.1-.6-.05-.69,.26-.19,.71,.56,.97,.67,1.56-.52,1.27-2.18,1.27-2.53,2.73Zm-49.46-3.19c.3,.31,.27,.6-.04,.87-.56-.04-.97,.13-1.01,.84-.26,1.02-.63,2.03-.74,3.07-.31,2.84,.7,3.58,3.09,2.33,.59-.31,1.19-.39,1.81-.43,4.98-.37,9.97-.97,14.84,.97,1.21,.48,1.63-.06,1.47-1.53-.4-3.47-2.2-5.94-5.38-6.82-3.27-.91-6.55-1.06-9.91-.42-1.12,.21-2.15,1.33-3.41,.63-.21-1.34,1.58-.59,1.56-1.89-1.28,.22-2.69-.78-3.74,.76-.73,.23-.96-.35-1.24-.89-1.3-2.48-3.21-4.17-5.5-5.51-4.13-2.41-8.59-3.33-13.15-3.78-3.68-.36-7.36-.16-11,.99,2.24,1.23,4.54,2.2,6.52,3.8,1.03,.83,1.73,2.14,3.25,2.21,1.3,.07,2.62,.34,3.89,.68,4.51,1.21,8.9,2.84,12.86,5.53,1.78,1.21,2.45,1.07,3.35-1.06,.3-.71-.36-2.05,1.01-2.13,0,1.09,.44,1.75,1.49,1.79Zm60.44-21.51c-.06,3.26,1.05,6.18,2.25,9.05,.64,1.55,1.54,2.95,2.46,4.36,1.67,2.54,3.59,4.97,4.64,7.95,.3,.84,.29,1.84,1.4,1.96,1.11,.12,1.85-.44,2.39-1.44,1.01-1.87,1.01-3.85,.82-5.95-.51-5.5-2.75-10.38-4.34-15.49-.44-1.41-1.09-2-2.51-2.08-1.64-.1-3.36-.33-4.83-1.23-1.73-1.05-2.23-.34-2.22,1.5,0,.46-.03,.91-.05,1.37Zm-61.5,64.18c-.03-.58,0-.97-.07-1.34-1.33-7.07-5.59-11.93-10.39-16.34-.5-.46-1.1-.63-1.9-.44-1.49,.35-3.05,.4-4.22-1.11-.4-.52-1.15-.77-1.3,.04-.28,1.59-.65,3.32,.45,4.75,1.08,1.41,1.8,3.03,2.51,4.67,.92,2.09,1.95,4.08,3.54,5.71,2.05,2.1,3.98,4.34,5.92,6.56,.44,.51,.83,.69,1.45,.43,.84-.34,1.72-.58,2.58-.87,1.03-.34,1.79-.88,1.43-2.07Zm46.8-.76c-.15-.89-.27-1.79-.47-2.67-1.21-5.25-3.89-9.56-7.12-13.55-.97-1.19-1.7-2.21-3.41-1.73-1.14,.32-2.32-.36-3.34-1-.68-.43-1.22-1.03-2.02-.3-.82,.75-.21,1.5-.04,2.27,1.78,7.98,6.19,14.13,11.32,19.83,1.22,1.35,2.18,.28,3.17-.13,1.06-.44,2.39-.87,1.92-2.72Zm9.67-48.46c.03-2.58-1.12-4.71-1.97-7.02-1.18-3.21-3.8-5.26-5.1-8.09-1.86-4.06-5.21-2.9-7.91-4-.43-.17-.92-.58-1.33-.04-.36,.47-.13,1.03,.01,1.52,1.48,5.11,4.14,9.31,7.55,13.19,1.87,2.14,3.98,4.59,4.12,8.04,.04,1.13,.83,1.02,1.54,.83,2.18-.59,3.08-1.9,3.09-4.44Zm-61.75-2.15c1.4,1.87,3.53,2.71,4.44,4.87,.09,.22,.63,.35,.94,.31,3.56-.46,7.02,.66,10.56,.79,3.83,.14,7.58,.96,10.03,4.79,.72,1.13,1.5,.52,2.08-.07,.95-.96,1.07-2.24,.77-3.58-.6-2.68-2.74-3.65-4.61-4.8-3.21-1.99-6.77-2.96-10.38-3.5-4.61-.69-9.21-.51-13.83,1.19Zm35.77-4.05c.37-6.68-1.43-8.95-4.67-14.38-.42-.71-.53-1.82-1.79-1.95-1.64-.18-3.28-.56-4.76-1.52-.85-.55-1.33-.28-1.42,.99-.18,2.59,1.08,4.59,2.01,6.75,1.61,3.73,4.39,6.78,5.18,10.98,.3,1.57,.87,3.19,0,4.64-.7,1.17-.63,2.04,.37,2.67,1.05,.67,2.14,1.38,3.35,0,2.08-2.39,1.68-5.31,1.72-8.17Zm39.26-19.77c-5.19-3.28-14.71-3.5-20.62-.39-2.49,1.31-4.94,2.66-7.63,3.48-.95,.29-2.09-.12-2.99,.96,1.7,1.6,3.81,1.88,5.78,2.17,9.16,1.36,17.71-.7,25.46-6.22Zm13.21,9.56c-.25,2.84,1.19,4.93,1.79,7.27,1.01,3.96,2.44,7.65,5.01,10.8,1.05,1.28,2.38,2.53,2.65,4.48,.11,.79,.79,.96,1.47,.92,1.73-.1,2.65-1.46,2.7-3.88,.12-6.16-2.69-11.32-4.66-16.78-.2-.56-.67-.91-1.12-.89-2.75,.12-5.27-.92-7.84-1.93Zm8.65,.56c2.13,.01,4.12-.27,6.08-.83,3.9-1.11,7.79-2.28,11.87-2.13,.92,.03,1.18-.36,.81-1.19-.29-.65-.56-1.27-1.11-1.84-2.68-2.8-6.01-3.05-9.34-2.88-5.96,.31-11.52,2.57-17.07,4.75-.37,.14-.9,.4-.98,.7-.14,.6,.46,.87,.86,1.12,2.78,1.75,5.77,2.54,8.87,2.3Zm.11,60.98c-1.29-3.74-1.75-8.26-4-12.06-.91-1.53-1.92-3.14-4.05-2.36-.33,.12-.85-.09-1.17-.32-1.6-1.18-2.9,.32-4.2,.75-1.06,.35-.29,1.9-.15,2.87,.69,4.74,3.22,8.35,6.19,11.65,.96,1.07,1.42,2.89,2.82,3.19,1.39,.3,2.4-1.33,3.72-1.78,.07-.02,.12-.07,.19-.09,.73-.17,.75-.77,.65-1.84Zm6.14,8.46c3.63,1.18,7.33-.9,8.81-4.97,1.27-3.5,1.62-7.12,.92-10.93-.57-3.1-2.19-5.81-2.42-8.99-.03-.48-.34-.5-.74-.5-2.93,0-3.26,.25-3.71,3.43-.21,1.5-.27,3.02-.32,4.54-.13,3.72,.33,7.45-.11,11.16-.26,2.23-.46,4.54-2.43,6.27Zm-97.49,5.93c6.38-.23,11.23-2.24,16.04-4.38,.64-.29,1.8-.47,1.61-1.4-.21-1-.63-2.21-1.88-2.46-3.26-.64-6.5-1.42-9.86-.75-4.49,.9-8.82,2.38-13.09,4.12-.44,.18-1.08,.28-1.12,.86-.04,.64,.52,1.02,.97,1.36,2.54,1.89,5.32,2.86,7.33,2.65Zm-38.64-54.33c-3.9,0-5.67,.92-8.18,3.4-1.61,1.59-1.73,3.39-.75,5.04,.78,1.32,2.3,.53,3.58,.32,4.92-.79,9.85-1.82,14.75,.26,2.01,.85,3.24-.23,3.04-2.51-.16-1.8-1.13-2.96-2.49-3.93-3.11-2.24-6.7-2.08-9.96-2.58Zm85.19,52.96c6.42,.22,11.73-2.29,16.92-5.2,.56-.31,1.61-.57,1.31-1.45-.31-.9-.82-1.92-1.99-2.09-3.03-.44-6.04-.58-9.09-.13-5.11,.76-9.48,3.57-14.06,5.81-.3,.15-.7,.27-.72,.72-.02,.68,.53,.85,.95,1.03,2.27,.99,4.62,1.58,6.68,1.3Zm-75.09-5.62c-.76-.86-1.23-1.92-2.49-1.9-4.7,.1-9.33,.49-13.91,1.9-3.49,1.07-6.07,3.82-9.35,5.2-.74,.31-.28,.8,.26,1.22,2.29,1.79,4.85,2.12,7.52,1.7,6.63-1.06,12.39-4.41,17.97-8.11Zm90.19-72.78c4.09,2.69,8.08,2.87,12.17,2.1,5.08-.96,9.56-3.97,14.52-5.34,.99-.27,1.04-.88,.22-1.53-1.32-1.05-2.88-1.58-4.43-1.8-8.14-1.16-15.11,2.52-22.47,6.57Zm21.06,14.01c-.02-3.59-.8-6.38-3.08-10.35-.36-.63-.26-2-1.64-1.41-1.06,.46-2.36,.45-2.09,2.37,.09,.63-.09,1.44-.41,1.97-1.85,3.04-1.39,6.1-.23,9.21,.26,.7,.47,1.47,.48,2.21,.05,2.58,2.15,5.03,.37,7.76-.39,.6-.07,1.2,.79,.83,2.38-1,4.44-2.23,4.91-5.42,.33-2.24,.97-4.44,.9-7.18Zm-66.52,62.68c.26,.4,.38,.67,.57,.87,2.96,3.12,6.5,3.8,10.39,2.88,4.42-1.04,8.06-3.89,11.89-6.26,.62-.38,2.1-.29,1.69-1.39-.3-.81-1.35-1.67-2.49-1.72-.35-.01-.7,0-1.04-.01-2.22-.03-4.42,.2-6.63,.5-5.08,.69-9.65,2.95-14.39,5.13Zm-42.31-26.49c-.62,.48-2.13-.39-1.96,.31,.5,2.04-1.04,4.45,.91,6.17,2.45,2.17,3.77,5.15,4.99,8.22,.19,.47,.67,.9,.68,1.35,.04,4.08,2.68,2.93,4.81,3.03,1.54,.08,1.79-.56,1.79-2.1-.01-6.1-2.92-10.6-6.7-14.52-1.17-1.22-2.12-3.57-4.51-2.46Zm-6.17,26.8c2.59,2.16,5.53,2.36,8.5,2.1,6.15-.55,11.61-3.58,17.39-5.83-4.72-5.12-17.9-3.18-25.89,3.73Zm56.09-27.47c-.23,.17-.66,.71-1.16,.81-1.57,.31-1.9,1.29-1.75,2.89,.12,1.3-.82,2.66,.2,3.92,2.42,3,3.31,6.69,4.14,10.46,.83,3.77,1,3.78,4.58,2.83,.7-.19,1.09-.54,1.19-1.33,.54-4.29,.36-8.4-1.88-12.23-1.55-2.65-2.7-5.58-5.32-7.35Zm36.63,26.8c3.45,2.79,6.99,2.31,10.49,1.27,4.83-1.43,9.09-4.31,13.49-6.82,.93-.53,1.04-1,.37-1.88-.67-.89-1.46-1.48-2.49-1.33-2.54,.36-5.11,.25-7.61,1.11-5.05,1.73-9.28,5.22-14.25,7.66Zm-6.54-11.84c.12-3.91-.85-7.23-2.22-10.39-.78-1.8-1.86-3.41-3.71-4.23-1.82-.81-3.25,.13-3.23,2.24,0,1.21,.14,2.51-.2,3.61-.46,1.48-.04,2.57,.48,3.86,1.18,2.94,2.67,5.78,2.97,9.07,.04,.44,.03,1.09,.6,.94,1.61-.42,3.35-.67,4.72-1.57,1.11-.73,.42-2.54,.6-3.53Zm45.41-21.51c.23,1.79-.52,3.9,2,4.4,2.19,.44,4.04-.52,4.95-2.93,.4-1.04,.73-2.12,.99-3.22,.8-3.41,2.28-6.59,2.78-10.09,.11-.79,.4-1.55-.89-1.24-1.6,.38-3.13-.33-4.19-1.45-1.11-1.18-1.29-.41-1.64,.46-.61,1.52-.56,3.26-1.34,4.73-1.55,2.92-2.32,6.1-2.65,9.33Zm-61.24-36.9c-.22-1.88-.41-3.76-.67-5.64-.3-2.19-1.84-2.03-3.33-2.12-1.64-.1-1.41,1.13-1.58,2.24-.14,.96-.36,2-.83,2.79-1.09,1.82-.85,3.61-.61,5.63,.5,4.2,.84,8.46-.54,12.6-.15,.46-.64,.97-.06,1.39,.41,.3,.96,.28,1.38-.06,.72-.56,1.66-.87,2.05-1.84,1.93-4.81,4.26-9.49,4.18-15Zm-25.39,28.26c-2.62-.06-3.19,.51-2.09,2.54,.78,1.44,1.25,2.97,1.75,4.47,.87,2.61,2.36,4.71,3.99,6.73,1.43,1.77,4.85,2.16,6.25,.81,1.06-1.01,.94-4.23-.47-5.79-1.23-1.36-1.84-3.01-2.28-4.71-.56-2.13-1.9-3.03-3.67-3.45-1.14-.27-2.31-.41-3.47-.61Zm75.75,.49c-1.23,0-2.13,0-3.04,0-.8,0-1.16,.38-.97,1.27,1.15,5.64,3.53,10.31,8.65,12.66,1.18,.54,2.66,.8,3.73-.29,.98-1,.57-2.38,.25-3.65-.63-2.5-1.77-4.66-3.04-6.86-1.49-2.56-3.31-3.48-5.57-3.13Zm-125.88,4.07c.14-4.31,.14-4.3-3.84-3.98-.97,.08-1.93,.19-2.83,.63-.66,.32-1.21,.75-1.4,1.56-.82,3.56-1.41,7.15-.54,10.8,.63,2.65,2.85,3.68,4.83,2.15,1.2-.93,2.35-2.04,2.74-3.79,.55-2.43,1.05-4.85,1.04-7.37Zm126.84,9.4c.17,2.02-.37,3.94-.08,5.57,.74,4.07,3.21,7.63,3.31,11.96,1.81,.72,3.38-.71,5.11-.71,.66,0,1.21-.11,1.31-1.05,.52-4.92-1.06-9.17-3.5-13.14-.25-.41-.64-.59-1.07-.59-1.81,0-3.23-1.13-5.08-2.04Zm-80.04-10.94c-.28-.8,.3-2.45-.87-2.78-1.88-.52-3.92-.24-5.72,.49-1.29,.53-1.16,2.31-1.3,3.62-.23,2.11-.6,4.06-1.91,5.8-.66,.88-1.54,2.12-.53,3.48,1.48,1.99,4.8,2.22,6.27,.18,2.21-3.08,3.81-6.54,4.06-10.79Zm54.34-2.19c-3.43-.22-4.18,.37-3.31,2.96,1.47,4.35,4.09,7.8,7.66,10.32,1.1,.78,2.35,.73,3.32-.16,1-.9,1.06-2.26,.68-3.58-.34-1.15-.77-2.27-1.13-3.42-1.97-6.24-2.39-5.77-7.22-6.13Zm-29.13,1.16c-.16-.66,.19-1.51-.47-2.07-1.42-1.2-6.49,.24-6.98,2.24-.59,2.42-1.84,4.5-2.5,6.84-.45,1.61-1.06,3.45,.93,4.55,2.2,1.21,4.37,.92,5.55-1.07,1.87-3.16,3.16-6.62,3.48-10.5Zm-45.42-1.57c-.6,.69-2.46-1.16-2.18,1.02,.56,4.38,2.66,8.16,4.85,11.79,.91,1.5,4.72,1.69,5.5,.56,.7-1.03,.78-4.96-.14-6.01-.86-.99-1.28-2.15-1.58-3.33-.52-2.06-1.48-3.35-3.5-3.54-.96-.09-1.91-.31-2.95-.48Zm-6.32,.2c-1.17,.02-2.33-.06-3.42,.69-1.2,.82-.59,2.22-.99,3.3-.86,2.29-1.44,4.73-1.98,7.14-.38,1.73,.39,2.73,2.03,2.95,2.77,.38,4.47-.64,5.48-3.6,.62-1.82,.85-3.82,1.56-5.59,1.29-3.24,.41-4.98-2.69-4.89Zm-7.6,12c.14-.97,.38-1.88-.26-2.52-1.5-1.49-2.16-3.51-2.85-5.45-.97-2.76-2.53-4.36-5.29-4.4-1.09-.01-2.47-.56-3.17,.3-.61,.75,.62,1.75,.84,2.75,.75,3.42,2.34,6.38,4.42,9.06,1.15,1.48,2.57,2.26,4.32,2.31,1.35,.04,2.72,.06,1.99-2.05Zm129.7-23.6c0,.72,0,.95,0,1.18,.06,2.03,1.36,3.75,2.95,4.06,2.05,.4,2.63-1.07,3.14-2.78,.8-2.71,1.09-5.58,2.3-8.16,.32-.68,.67-1.85-.1-2.32-1.58-.95-2.71-2.57-4.4-3.34-.55-.25-1-.73-1.24,.26-.93,3.85-1.84,7.7-2.65,11.09Zm-153.71,11.08c.08-2.88-3.43-5.08-6.18-4.24-2.93,.9-5.34,2.77-7.37,5.17-2.22,2.63-1.99,3.41,1.06,4.62,.65,.26,1.26,.64,1.91,.88,.75,.27,1.44,.29,2-.56,1.69-2.61,4.19-3.8,6.92-4.57,.78-.22,1.6-.56,1.66-1.29Zm105.69-11.79c1.86-.97,2.27-2.73,2.81-4.39,1.53-4.74,.66-9.47-.22-14.15-.6-3.18-.69-3.13-3.55-2.49-1.08,.24-1.68,.6-1.61,2.03,.06,1.26-.05,2.66-.49,3.79-.51,1.3-.12,2.27,.44,3.16,2.25,3.59,3.46,7.43,2.62,12.05Zm-106.47,28.24c2.29,.1,2.71-.44,2.03-2.6-.13-.42-.16-.89-.21-1.35-.33-2.81-1.29-5.43-1.96-8.14-.3-1.22-1.02-1.99-2.11-1.35-1.38,.82-2.94,1.38-4.04,2.71-.94,1.13-1.39,2.44-1.08,3.98,.62,3.12,4.45,6.62,7.38,6.75Zm-8.81-2.01c.48-.12,1.49-.04,1.85-.53,.47-.63-.49-1.26-.81-1.88-.53-1.02-1.34-1.87-1.28-3.16,.05-.96-.68-1.04-1.22-1.29-2.72-1.24-5.61-2.15-7.63-4.74-.54-.7-.84-.1-1.16,.22-1.49,1.51-1.4,6.59,.08,8.11,2.82,2.89,6.45,2.68,10.16,3.26Zm92.57-63.7c-.06,.02-.4,.09-.4,.17-.03,1.34-.14,2.71,.02,4.03,.12,1.01,1.07,.71,1.72,.79,3.38,.42,6.68,1.14,9.65,3.11,1.42,.94,2.81-.07,3.46-.92,.63-.82-.77-1.58-1.54-2.11-.58-.4-1.2-.76-1.8-1.11-3.45-2.01-7.16-3.14-11.11-3.95Zm35.66,42.55c-.91-.43-.93-1.32-1.27-2.03-1.37-2.89-2.97-5.58-5.35-7.62-1.19-1.02-2.14-1.44-2.54,.8-.17,.94-.64,1.83-1.05,2.7-1.16,2.5-.79,3.38,1.85,3.86,2.06,.37,4.05,.89,5.92,1.93,.63,.35,1.16,1.21,2.44,.35Zm-37.57-40.96c-.19-1.96-.35-3.84-.56-5.71-.16-1.37-.66-2.05-2.06-1.32-1.11,.58-2.32,.96-3.5,1.35-1.64,.53-1.44,1.64-.61,2.67,.9,1.1,1.74,2.36,1.93,3.68,.4,2.85,2.25,2.28,3.77,2.15,1.86-.16,.51-1.96,1.03-2.81Zm73.63,22.99c-.57,.17-1.06,.37-1.44,.88-1.04,1.35-1.9,2.7-1.77,4.66,.26,3.91-1.14,7.39-2.73,10.75-.65,1.38,.2,2.07,.79,2.93,.46,.67,1.05,.18,1.19-.14,.68-1.5,2.09-2.59,1.92-4.6-.11-1.26,.24-2.55,.31-3.83,.17-3.22,1.88-5.92,2.48-8.99,.19-.96,.07-1.45-.77-1.65Zm-165.39,63.81c.11,1.03,.6,2.2,1.1,3.37,.33,.77,.96,.92,1.55,.67,1.65-.72,3.37-1.24,4.88-2.39,1.37-1.05,.97-1.84-.06-2.52-1.8-1.2-3.8-1.76-5.92-1.62-1.24,.08-1.58,1.03-1.55,2.5Zm23.02-22.67c1.82,.17,2.98-1.51,4.47-2.34,.58-.32,.32-1.03-.11-1.3-1.42-.9-1.81-2.58-2.59-3.96-.29-.51-.4-1.11-1.17-.98-.73,.12-.83,.65-.92,1.27-.24,1.64-.64,3.24-1.26,4.76-.78,1.9-.43,2.52,1.58,2.56Zm126.91-23.94c-.36-2.54-1.46-4.21-2.86-5.48-3.71-3.37-3.76-3.3-5.33,1.92-.02,.07-.04,.15-.07,.21-.59,1.18-.08,1.43,.92,1.4,2.46-.08,4.78,.56,7.33,1.95Zm-54.99,22.65c.9-.12,1.88-.48,2.8-1.03,.38-.22,.76-.49,.5-1.05-.83-1.82-1.63-3.66-2.54-5.43-.65-1.26-1.33-.96-1.68,.25-.48,1.65-.99,3.26-2.1,4.56-.49,.57-.61,1.32,.15,1.7,.86,.44,1.72,1,2.87,.99Zm-49.03,.68c1.25-.25,2.81-.9,3.7-2.1,.74-1-.68-1.99-1.25-2.95-.45-.75-.71-1.64-1.07-2.45-.17-.38-.17-.97-.73-.93-.49,.04-.7,.51-.75,.95-.18,1.7-1.42,2.84-1.87,4.4-.21,.71-1.21,1.16-.54,2.16,.57,.86,1.4,.87,2.51,.93Zm97.92-8.92c-.32,2.68-1.45,4.64-2.07,6.83-.35,1.21,.4,1.52,1.2,1.58,1.95,.15,2.97-1.68,4.39-2.64,.25-.17,.2-.63-.05-.79-1.65-1.03-1.96-3.19-3.48-4.97Zm-60.96,1.4c1.21-2.15,1.15-4.41,2.36-6.14,.25-.36,.42-1.08-.39-1.15-1.15-.11-2.3-.24-3.45-.23-1.5,.02-1.9,.67-1.27,2.34,.69,1.82,1.87,3.24,2.75,5.18Zm-47.63,.21c.72-.91,.76-2.1,1.05-3.18,.99-3.7,.4-4.47-3.03-4.29-1.2,.06-1.64,.38-1.13,1.74,.78,2.08,1.52,4.17,3.11,5.74Zm63.99-17.76c.96-.02,1.76-.07,1.98-.9,.19-.73-.56-1.13-1-1.57-.4-.39-.93-.62-1.35-.99-2.08-1.81-4.47-1.08-5.36,1.65-.17,.53-.09,.89,.49,.91,1.86,.07,3.71,.23,5.25,.89Zm-29.11,22.74c.41-.09,1.29-.26,2.15-.5,.64-.17,.92-.54,.53-1.31-.7-1.38-1.25-2.86-2-4.2-.5-.88-1.21-1.32-1.68,.15-.36,1.14-.72,2.28-1.14,3.39-.79,2.11-.49,2.57,2.13,2.47Zm-11.93-5.25c1.34-1.14,.7-2.8,1.3-4.06,1.23-2.6,.88-3.18-1.67-3.12-.28,0-.55,.06-.83,.04-1.82-.07-1.83,1.11-1.04,2.23,1.03,1.46,1.39,3.21,2.24,4.9Zm74.73,.82c.47-2.34,.74-4.28,.78-6.26,.03-1.44-.9-1.12-1.58-1.05-.66,.07-2.03-.34-1.81,.72,.47,2.19,.78,4.58,2.61,6.59Zm-30.29,11.9c0-1.14,.03-2.27,0-3.41-.05-1.57-2.04-3.26-3.41-2.89-1,.27-1.52,.88-.53,1.85,1.38,1.34,2.52,2.92,3.94,4.45Zm-102.85,9.35c-1.32,4.08-1.03,4.61,2.6,4.98,.14,.01,.28,.01,.41,.04,.43,.08,.92,.72,1.26,.06,.34-.65-.21-1.13-.61-1.52-1.19-1.19-2.41-2.34-3.67-3.55Zm106.84-28.94c-1.1-.06-1.77,.27-1.39,1.68,.36,1.37,.68,2.75,1.02,4.13,.1,.4,.06,1.03,.65,.91,.47-.1,.52-.63,.51-1.1-.02-1.36,.08-2.7,.45-4.02,.33-1.19-.17-1.7-1.25-1.6Zm-105.28,14.31c1.2,1.25,2.28,2.37,3.36,3.5,.41,.43,1.05,.87,1.31,.17,.35-.97,.08-2.15-.35-3.04-.3-.63-1.02-1.21-1.87-1.07-.74,.12-1.48,.27-2.44,.45Zm51.84,1.5c-.02-1.48-1.14-2.7-2.38-2.52-.62,.09-1.17,.5-1.32,1.24-.09,.43,2.52,3.13,2.93,3.04,1-.22,.65-1.15,.77-1.76Zm36.52-27.37c-2.18-.67-4.54,.53-6.62-1.29,.65,1.25,.67,2.49,.81,3.81,1.99-.84,3.76-2,5.81-2.53Zm68.7,29.31c.31-1.61,.64-3.16,.88-4.71,.1-.62-.29-1.54-.79-.9-.72,.9-2.28,1.31-2.18,2.46,.1,1.17,.63,2.62,2.09,3.15Zm-128.43-1.17c-.25-1.11,.21-2.89-1.17-3.13-.66-.11-2.62,1.38-2.37,1.85,.63,1.19,1.88,2.16,3.08,2.75,.61,.3,.31-.89,.46-1.47Zm60.91-52.72c.05-.59,.2-1.26-.65-1.31-.42-.02-.95,0-.92,.59,.05,1.13-.56,1.9-.99,2.81-.46,.98,.29,1.63,.92,1.95,.71,.37,.67-.6,.92-1.02,.55-.91,.63-1.97,.73-3.01Zm21.17,7.68c.65-1.49,.83-2.89,.78-4.35-.02-.56-.1-1.09-.78-1.07-.42,.01-1.02,.02-.98,.57,.09,1.58-.78,3.37,.98,4.85Zm-91.46,58.41c-.49,3.71,.22,4.67,2.78,4.04,.86-.21,.93-.75,.37-1.19-1.1-.85-1.82-2.23-3.15-2.86Zm53.97,3.5c-1.18-.81-1.87-2.21-2.72-3.46-.44-.66-.97-1.32-1.64-.62-.7,.73,.4,.84,.6,1.29,.37,.8,.87,1.55,1.14,2.39,.38,1.14,1.25,1.01,2.03,1.14,.35,.06,.69-.09,.58-.74Zm-6.98-4.55c0,1.04,0,1.83,0,2.61,0,1.8,1.03,2.55,2.64,1.97,.4-.14,.7-.52,.41-.75-1.22-.95-1.48-2.79-3.06-3.84Zm58.08-14.16c-.42-.68,.56-2.08-.82-2.13-.86-.03-1.64,.71-2.18,1.5-.17,.24,1.99,2.81,2.29,2.73,1.15-.33,.36-1.42,.71-2.1Zm-34.09,10.61c-.51,1.62-.14,2.82,.32,3.99,.36,.9,1.09,1.22,1.82,.79,.75-.43,.38-1.18,0-1.74-.65-.98-1.35-1.91-2.15-3.04Zm-63.5,8.41c-1.35-1.4-2.59-2.71-3.86-3.97-.13-.13-.51-.02-.74,.07-.13,.05-.3,.43-.29,.43,1.07,.9,1.53,2.3,2.34,3.37,.5,.66,1.54,.32,2.55,.1Zm92.89-1.31c.11-.02,.45-.06,.75-.21,.06-.03,0-.67-.15-.77-1.17-.78-1.62-2.21-2.5-3.25-.35-.42-.82-.73-1.09,.08-.29,.87,1.91,4.1,3,4.15Zm-5.92-4.12c-.05,.66-.1,1.17-.12,1.69-.09,2.07,.66,2.65,2.53,2.09,.74-.22,.76-.81,.35-1.11-.98-.71-1.23-2.22-2.77-2.67Zm26.72,1.99c-.66-1.08-1.17-2.05-1.8-2.91-.28-.39-.84-.61-1.28-.24-.4,.34-.5,.82-.23,1.4,.66,1.38,1.33,2.67,3.31,1.76Zm-130.32-25.48c.61-1.06,.5-2.2,1.29-3.1,.2-.22,.82-1.54-.27-1.78-.6-.13-1.4,.15-1.93,.54-.61,.45,.03,1.06,.18,1.6,.25,.91,.49,1.82,.74,2.73Zm120.54-7.63c.83-1.11,1.16-2.22,1.45-3.44h-3.2c.61,1.19,1.13,2.22,1.75,3.44Zm4.54,33.87c.35-.43,1.48,.33,1.46-.89-.02-.92-.65-2.01-1.39-1.98-.65,.02-1.19,1.09-1.3,2.04-.12,1.04,.57,.78,1.22,.83Zm-60.49-16.31c.7,1.06,1.27,2.15,2.28,2.85,.78,.54,.94,.21,.98-.56,.13-2.78-1.85-2.07-3.25-2.29Zm18.75,19.08c-1.25-.9-1.35-2.47-2.62-2.22-.74,.14-.68,1.52-.47,1.96,.61,1.27,1.61,.39,3.1,.26Zm39.46-66.32c-.19-.06-.37-.11-.56-.17-.38,1.67-.76,3.35-1.14,5.02,1.59-1.3,1.88-3,1.7-4.86Zm-36.85,66.08c-.33-.48-.6-.91-.91-1.3-.48-.62-1-1.21-1.76-1.4-.09-.02-.39,.32-.37,.43,.24,.96,.65,1.86,1.42,2.4,.37,.26,.91,.41,1.62-.13Zm.94-59.13c.03,.5-.25,1.35,.5,1.17,.75-.18,1.8-.47,1.89-1.48,.1-1.11-.98-.78-1.55-.94-1.12-.32-.7,.74-.84,1.25Zm-12.85,39.22c1.05,1.62,1.82,2.8,2.59,3.99-.4-1.5,.37-3.84-2.59-3.99Zm62.32,2.36c.23-1.27,.49-2.25-.36-2.78-.41-.26-1.24,.09-1.31,.7-.14,1.1,.91,1.26,1.67,2.09Zm-110.67-1.66c.88,.84,1.36,1.35,1.88,1.8,.74,.65,1.54-.21,1.03-1.19-.59-1.14-1.61-.57-2.92-.61Zm122.41,25.88c-1.26-.74-2.58-.85-3.94-.64,1.23,1.01,2.55,1.14,3.94,.64Zm-112.27-8.99c.8,.81,.64,2.99,2.67,2.39-.53-1.38-1.8-1.64-2.67-2.39Zm55.94-53.72c-.92-.9-.85-2-1.91-1.92-.36,.03-.76,.38-.61,.75,.33,.83,1.05,1.06,2.52,1.17Zm-4.85-8.49c0,1.02,0,1.62,0,2.23,0,.55,.25,.86,.75,.86,.27,0,.68-.01,.77-.18,.28-.53-.22-.74-.48-1.07-.34-.44-.57-.99-1.03-1.84Zm-16.9,28.6c.14-.84,.28-1.69,.41-2.53-.26-.04-.7-.2-.76-.09-.51,.85-.27,1.72,.34,2.62Z"/>
  <path class="cls-3" d="M228.13,72.3c-2.65,.97-5.34,1.84-7.94,2.93-1.24,.52-1.79,.16-2.09-1.11,.01-.93,.03-1.87,.04-2.8,1.52-1.37,3.05-2.74,4.57-4.11,.84-.32,2.06,.63,2.51-.93,5.01-1.95,10.02-3.9,15.02-5.85,10.4-4.06,20.8-8.15,31.21-12.18,10.52-4.07,21.06-8.07,31.59-12.11,.34-.01,.67-.03,1.01-.04,1.96,1.34,2.67,3.34,2.58,5.77-5.38,2.15-10.75,4.35-16.16,6.43-10.35,3.99-20.74,7.89-31.09,11.87-10.42,4.01-20.83,8.08-31.24,12.12Z"/>
  <path class="cls-5" d="M150.92,34.44c1.73-1.42,3.47-2.83,5.76-2.93,2.06,7.2,4.36,14.29,7.17,21.2,2,4.9,4.26,9.58,6.95,14.07,2.87,4.8,6.08,9.13,10.58,12.18,.27,.18,.56,.55,.59,.86,.03,.41-.4,.54-.73,.65-2.18,.78-4.37,1.56-6.55,2.33,0,0-.02-.03-.02-.03,.37-1.2-.25-1.67-1.18-1.92-4.18-4.69-7.99-9.76-10.85-15.5-2.82-5.65-5.22-11.58-7.49-17.53-1.66-4.35-2.83-8.93-4.22-13.41Z"/>
  <path class="cls-11" d="M174.69,82.82c2.18-.78,4.37-1.56,6.55-2.33,.33-.12,.77-.24,.73-.65-.03-.31-.32-.68-.59-.86-4.5-3.06-7.71-7.38-10.58-12.18-2.69-4.5-4.95-9.18-6.95-14.07-2.82-6.9-5.11-14-7.17-21.2,.76-1.6,1.07-.52,1.33,.3,1.28,4.06,2.48,8.15,3.82,12.19,2.1,6.3,4.55,12.46,7.64,18.24,2.66,4.99,5.61,9.85,9.77,13.59,1.22,1.1,2.52,2.11,3.87,3.01,1.35,.9,2.93,.23,3.54-1.46,.68-1.88,1.51-3.61,2.57-5.32,2.32-3.72,9.05-5.17,12.14-.15,.06,1.04,1.03,.33,1.51,.76-1.39,1.03-2.81,1.53-4.25,2.01-1.01,.34-2.22,.7-1.84,2.4-2.26,1.14-2.34,3.75-3.2,5.81-.2,.47,.42,.4,.73,.46,.01,.26,.02,.53,.03,.79,0,0,0,0,0,0-.14,.07-.28,.15-.42,.22-.94,.46-1.87,1.01-2.36,2.01-1.72,3.49-5.76,3.79-8.41,2.57-.94-.43-1.87-1.08-2.98-.62-.02-.35-.04-.7-.05-1.05,3.18-1.1,4.51-3.93,5.75-7.07-1.49-.45-2.27,.63-3.22,1.15-1.17,.28-2.39,.38-3.36,1.28l-.93,.4c-1.42,.22-2.68,.93-3.95,1.6-.38-.07-.78-.11-.96-.58,.49-.33,1.13-.47,1.25-1.25Zm11.33,5.55c1.9,0,3.68-.66,4.73-2.77,1.05-2.11,2.27-4.17,2.98-6.42,.97-3.09,2.68-5.04,5.55-5.8,.41-.11,.85-.23,.97-.73,.13-.53-.25-.83-.57-1.1-3.17-2.76-7.51-2-9.7,1.82-1.17,2.03-2.32,4.08-2.9,6.48-.56,2.33-1.23,4.67-3.12,6.27-.37,.32-1.1,.65-.79,1.4,.25,.6,.88,.67,1.45,.71,.42,.03,.83,.09,1.41,.15Z"/>
  <path class="cls-14" d="M128.82,165.98c.16,.38,.47,.45,.81,.45-1.78,3.89-1.39,5.84,1.58,8.64,2.33,2.21,5.2,2.9,8.06,3.64,0,.3,0,.6,0,.91-2.71,.03-5.17-.9-7.4-2.52-.82-.59-1.6-.83-2.53-.52-6.99,2.34-14.21,2.52-21.42,2.75-3.4,.11-6.8,.04-10.2-.03-2.57-.05-2.39-.62-2.37-3.21,.01-1.82,1.2-3.21,.8-5-.28-1.29,.59-1.59,1.52-1.47,1.16,.15,2.31,.48,3.47,.65,8.66,1.31,17.13-.34,25.6-1.96,1.31-.25,1.2-1.77,2.08-2.32Zm-32.64,8.35c1.6,1.09,3.06,.96,4.48,1.12,.56,.06,1.53-.3,1.47,.64-.05,.83-1.01,.44-1.57,.44-.9,0-1.8-.11-2.7-.15-.73-.04-1.54,.04-1.54,1.03,0,.8,.84,.66,1.32,.67,9.86,.23,19.7,.18,29.43-1.96,1.54-.34,2.48-.8,1.19-2.69-.47-.69-.73-1.68-.79-2.55-.09-1.34-.64-1.41-1.64-1.21-3,.58-6,1.21-9.03,1.58-5.79,.72-11.59,1.24-17.39-.07-.43-.1-1.29-.93-1.48,.27-.15,.96,.59,1.17,1.33,1.35,1.05,.25,2.28-.05,3.34,1.11-2.13,.93-4.12-.73-6.41,.43Z"/>
  <path class="cls-11" d="M222.71,67.21c-1.52,1.37-3.05,2.74-4.57,4.11-2.44-1.02-.5-2.07,.1-2.81,1.71-2.14,4.17-3.53,5.16-6.38,3.12-3.77,3.83-8.8,5.77-13.19,.66-1.5,.42-2.51-1.43-2.74-2.1-.26-2.26-.75-.77-2.4,1.83-2.03,3.47-4.24,5.46-6.11,1.07-1,1.19-.41,1.44,.57,.67,2.69,.88,5.5,2.04,8.06,.7,1.54-.33,1.99-1.42,1.53-2.43-1.02-3.1,.16-3.56,2.58-.65,3.46-1.96,6.7-3.64,9.75-.3,.55-1.03,1.11-.48,1.96,0,0,.04,0,.04,0-.16-.02-.31-.04-.47-.07-1.23,1.71-2.46,3.42-3.69,5.12Z"/>
  <path class="cls-12" d="M228.13,72.3c10.41-4.04,20.82-8.11,31.24-12.12,10.36-3.98,20.74-7.88,31.09-11.87,5.41-2.08,10.77-4.28,16.16-6.43,.26,.07,.68,.06,.75,.23,.31,.77-.32,.85-.75,1.02-2.92,1.18-5.84,2.38-8.78,3.5-7.77,2.97-15.57,5.89-23.34,8.86-9.55,3.65-19.09,7.33-28.63,11.02-5.35,2.07-10.67,4.19-16.02,6.28-.58,.23-1.2,.33-1.8,.5,.02-.33,.05-.66,.07-.98Z"/>
  <path class="cls-12" d="M226.81,62.15c2.14,.25,3.93-1.04,5.8-1.76,16.47-6.28,32.9-12.69,49.34-19.04,6.85-2.65,13.7-5.27,20.55-7.9,.52-.2,1.03-.53,1.52,.06,.04,.04,.08,.08,.12,.12-.05,.05-.09,.1-.14,.14-2.74,1.49-5.69,2.33-8.55,3.46-9.04,3.56-18.1,7.06-27.16,10.55-10.31,3.98-20.62,7.92-30.93,11.88-3.26,1.25-6.52,2.5-9.79,3.75-.73,.28-1.35,.45-.71-.78,.04-.05,.12-.12,.11-.16-.02-.11-.08-.21-.12-.32h-.04Z"/>
  <path class="cls-3" d="M226.87,62.63c-.64,1.22-.02,1.06,.71,.78,3.26-1.25,6.52-2.5,9.79-3.75,10.31-3.96,20.63-7.9,30.93-11.88,9.06-3.49,18.12-7,27.16-10.55,2.86-1.12,5.81-1.97,8.55-3.46,.37,.77,2.02,1.52,.04,2.33-.34,.01-.67,.03-1.01,.04-.42-.92-1.01-.47-1.59-.25-2.73,1.05-5.47,2.08-8.2,3.13-7.67,2.95-15.35,5.91-23.02,8.87-6.68,2.59-13.36,5.19-20.04,7.78-7.88,3.05-15.76,6.1-23.65,9.13-.7,.27-1.33,.48-1.31,1.46-.45,1.56-1.68,.62-2.51,.93,1.23-1.71,2.46-3.42,3.69-5.12,.16,.18,.32,.36,.48,.54Z"/>
  <path class="cls-14" d="M150.92,34.44c1.39,4.48,2.55,9.06,4.22,13.41,2.28,5.95,4.67,11.88,7.49,17.53,2.86,5.73,6.67,10.81,10.85,15.5-.05,.42-.1,.83-.14,1.25-.15,0-.25-.08-.29-.24-.14-.16-.29-.32-.43-.49-3.37-3.35-6.22-7.14-8.7-11.35-2.95-5.02-5.36-10.3-7.56-15.74-2.36-5.84-4.44-11.78-6.11-17.89-.2-.72-.91-1.88,.67-1.98Z"/>
  <path class="cls-7" d="M261.94,178.69c-3.01-.77-6.04-1.49-8.4-3.96-.53-.55-1.43-1.14-.97-1.88,.53-.86,1.69-1.29,2.58-.57,3.75,3.01,7.77,2.57,11.88,1.27,.56-.18,1.15-.39,1.54,.11,1.38,1.74,3.09,2.95,5.18,3.79-.67,.92-2,.74-1.9,2.06-.25,.26-.53,.23-.83,.12-.31-1.28-1.31-1-2.09-1.01-2.33-.03-4.66,.04-6.99,.07Z"/>
  <path class="cls-12" d="M173.44,84.07c.18,.47,.58,.51,.96,.58-1.82,.77-3.18,2.32-4.74,3.52-.94,.73-1.65,1.99-1.44,3.36,.2,1.36,1.41,1.45,2.42,1.72,3.91,1.05,7.68,.35,11.45-1.01-.27-1.49-1.6-1.64-2.35-2.46-1.06-1.16-.96-1.89,.39-2.5,.02,.35,.04,.7,.05,1.05,.54,1.2,1.83,1.47,2.54,2.49,.81,1.18,.91,2.04-.54,2.57-4.09,1.49-8.26,1.99-12.48,.83-2.57-.71-3.24-2.77-1.83-5.3,1.31-2.35,3.42-3.65,5.58-4.85Z"/>
  <path class="cls-14" d="M205.63,70.96c.09-.09,.19-.14,.31-.14,.41,.07,.82,.12,1-.45,.38-1.99,.58-3.99,1.46-5.87,2.36-5.01,10.47-6.96,14.19-2.38-.78,1.26-1.47-.25-2.21-.09-2.87-2.79-9.52-.76-11.3,3.84-.97,2.52-1.2,5.09-.52,7.74-.31,.01-.63,.03-.94,.04-.13-.06-.24-.15-.34-.26,.22-1.46-.26-2.24-1.7-2.06h.01c.04-.11,.04-.24,.02-.36Z"/>
  <path class="cls-14" d="M309.83,150.93c.29-.01,.58-.02,.86-.03,1.08,4.79,.76,9.49-1.63,13.66-1.58,2.75-3.51,5.46-6.64,6.46-.01-.34-.02-.68-.03-1.03,3.56-2.54,6.24-5.86,7.33-10.44,.67-2.83,.31-5.74,.11-8.62Z"/>
  <path class="cls-11" d="M205.59,71.32c1.44-.17,1.92,.6,1.7,2.06-3.5,1.23-7.01,2.47-10.51,3.7-.37-1.7,.83-2.06,1.84-2.4,1.44-.48,2.85-.98,4.25-2.01-.47-.43-1.45,.28-1.51-.76,1.6,.66,2.82-.75,4.26-.96,.02,.13,.01,.25-.02,.38-.03,.06-.05,.12-.08,.18,.02-.07,.04-.13,.06-.2Z"/>
  <path class="cls-14" d="M158.02,110.25c-.14,.3-.27,.61-.41,.91-5.49,.14-10.76,1.33-15.81,3.72-.22-.51-.67-.58-1.11-.67,5.48-2.88,11.2-4.49,17.33-3.96Z"/>
  <path class="cls-14" d="M192.58,181.1c.48-.11,1.06,.06,1.35-.58,2.96,.1,5.91,.31,8.86-.14,1.62-.25,3.19-.92,4.87-.71,.24,.04,.48,.09,.73,.13-.16,.23-.29,.63-.49,.68-5.07,1.21-10.15,2.45-15.32,.61Z"/>
  <path class="cls-11" d="M246.95,81.96c-.27-.94-1.25-.35-1.69-.94,4.98-.72,9.95-1.03,14.87,.54-.24,.27-.49,.54-.73,.81-4.14-.58-8.28-.93-12.45-.42Z"/>
  <path class="cls-14" d="M314.94,104.25c.35-.34,1.35,1.51,1.23-.43,1.33,3.67,1.19,7.1-1.38,10.15-.27,.32-.42,.76-.62,1.15-.05-.62-.09-1.25-.14-1.87,1.33-2.87,2.67-5.74,.91-8.99Z"/>
  <path class="cls-11" d="M285.73,83.16c2.09-.37,4.19-.55,6.29-.08,.16,.02,.32,.05,.48,.07,.24,.03,.49,.05,.73,.08,.79,.72,1.71,.41,2.59,.39,1.49,.38,3.05,.53,4.32,1.61-.2,.24-.41,.47-.61,.71-4.47-1.87-9.11-2.09-13.81-1.82v-.97Z"/>
  <path class="cls-14" d="M132.98,115.17c.05,.3,.11,.59,.16,.89-2.99,1.74-4.96,4.41-5.94,7.96-.09-.64,.03-1.43-.89-1.48,1.51-3.23,3.09-6.39,6.67-7.37Z"/>
  <path class="cls-14" d="M306.35,90.06c-.19-.53-.38-1.06-.57-1.59,3.27,.71,6.09,2.12,7.56,5.7-.28,.07-.56,.13-.84,.2-.66-.31-1.03-.93-1.46-1.51-1.21-1.6-2.67-2.77-4.68-2.8Z"/>
  <path class="cls-11" d="M190.95,89.62c.68,.08,.8,.76,1.12,1.21,.54,.76-.3,.79-.54,1.02-.4,.38-.94,.6-1.42,.88-.86,.5-1.62,.36-2.03-.63-.49-1.17,.54-1.09,1.08-1.4,.6-.35,1.2-.72,1.79-1.08Z"/>
  <path class="cls-11" d="M197.99,86c.31,1.43-1.04,3.51-2.34,3.58-.67,.04-.96-.5-1.27-1.01-.28-.47-.18-.98,.23-1.16,1.11-.49,1.98-1.65,3.34-1.43,0,0,.03,.03,.03,.03Z"/>
  <path class="cls-14" d="M261.94,178.69c2.33-.03,4.66-.1,6.99-.07,.78,0,1.78-.27,2.09,1.01-3.03,.05-6.05,.68-9.08-.03,0-.3,0-.61,0-.91Z"/>
  <path class="cls-11" d="M194.35,84.14c-.01-.26-.02-.53-.03-.79,1.53-.52,3.06-1.03,4.59-1.55,.61,.03,1.18-.06,1.69-.46,.15,0,.3,0,.45,0,.24,1.08-.6,1.29-1.17,1.51-.81,.31-1.14,.74-.85,1.65-.26,.04-.52,.09-.78,.13-1.11-1.99-2.64-.01-3.9-.5Z"/>
  <path class="cls-11" d="M210.74,107.54c-.23-.44-.65-.5-1.04-.59,2.52-1.23,3.18-3.52,3.06-6.31-.03-.74-.47-1.02-.83-1.44,1.27,.18,1.34,1.06,1.06,2.15-.17,.66-.46,1.38,.55,1.52,0,.15,.01,.3,.02,.45-.66,.56-.42,1.33-.39,2.06-.8,.72-1.61,1.44-2.41,2.16Z"/>
  <path class="cls-14" d="M238.5,179.72c3.21,.24,6.42,.48,9.63,.71-3.26,.53-6.47,.33-9.63-.71Z"/>
  <path class="cls-12" d="M180.57,181.03c.45-.9,1.98,.19,2.08-1.36,.81-.36,1.63-.67,2.52-.68,.06,.67,.56,.68,.99,.79-1.8,.74-3.65,1.22-5.58,1.25Z"/>
  <path class="cls-14" d="M314.17,129.88c-.3,0-.6-.02-.9-.02,.3-.89,.6-1.78,.9-2.67,.53-.33,1.06-.66,1.58-.99-.2,1.4-1.04,2.47-1.59,3.68Z"/>
  <path class="cls-12" d="M171.55,181.22c1.71-.27,3.41-.26,5.12,.02-1.71,.55-3.41,.55-5.12-.02Z"/>
  <path class="cls-11" d="M231.34,79.35c-2.91-.12-3.2-.46-3.25-3.79,.22,.27,.66,.56,.64,.82-.12,2.08,1.11,2.65,2.61,2.97Z"/>
  <path class="cls-12" d="M147.16,180.16c1.94,.46,3.98,.07,5.87,.93-2,.03-3.97-.18-5.87-.93Z"/>
  <path class="cls-12" d="M219.69,180.66c2.56,0,5.12-.01,7.68-.02-2.56,.53-5.12,.69-7.68,.02Z"/>
  <path class="cls-14" d="M310.81,140.38c-1.08,1.01,.03,2.57-.77,3.66-.04-1.37-.09-2.74-.13-4.12,.66-.49,.32-1.26,.46-1.9,.36,.74,.52,1.52,.45,2.36Z"/>
  <path class="cls-11" d="M300.15,85.24c.73-.05,1.31,.33,1.84,.81,.16,.12,.33,.24,.49,.36,.13,.12,.26,.23,.38,.35,.01,.17,.02,.34,.03,.5-.12,.15-.25,.3-.37,.45-1-.59-2-1.18-3-1.76,.2-.24,.41-.47,.61-.71Z"/>
  <path class="cls-14" d="M296.1,173.19c.21,.22,.42,.44,.64,.66-.46,.68-1.11,1.08-1.8,1.42-.12-.46-.44-.57-.82-.59,.66-.49,1.32-.99,1.99-1.48Z"/>
  <path class="cls-11" d="M197.99,86s-.03-.03-.03-.03c.4,.15,.65,0,.76-.44,.4-.05,.8-.11,1.21-.16,0,0-.12,.08-.12,.08-.04,.43-.01,.81,.47,.91,.01-.12,.07-.17,.18-.16-.1,.39-.2,.77-.29,1.16-.67-.55-1.12-1.54-2.17-1.36Z"/>
  <path class="cls-14" d="M316.16,123.83c-.08-1.46-.16-2.92-.24-4.38,.59,1.43,.52,2.9,.24,4.38Z"/>
  <path class="cls-11" d="M173.35,82.12c.05-.42,.1-.83,.14-1.25,.93,.24,1.55,.71,1.18,1.92-.52-.03-1.04-.08-1.32-.67Z"/>
  <path class="cls-11" d="M129.73,152.26c-.16-.31-.33-.62-.49-.94,.09-.51,.19-1.02,.28-1.53,.18,.37,.36,.73,.54,1.1,0,.64,.33,.89,.87,.9l.54,.87-1.44,.08s.01,.02,.01,.02c-.1-.17-.21-.33-.31-.5Z"/>
  <path class="cls-14" d="M134.28,161.98c-.34,.57,.79,1.96-.84,1.8,.28-.6,.56-1.2,.84-1.8Z"/>
  <path class="cls-14" d="M130.03,152.74l1.44-.08c.22,.32,.44,.65,.65,.97-.22,.28-.44,.56-.65,.84-.48-.58-.96-1.15-1.44-1.73Z"/>
  <path class="cls-14" d="M136.39,114.74c-1.08,.13-2.15,.26-3.23,.39,1.02-.66,2.12-.6,3.23-.39Z"/>
  <path class="cls-14" d="M310.42,149.53c-.88-.8-.53-1.53,.09-2.26-.03,.75-.06,1.51-.09,2.26Z"/>
  <path class="cls-12" d="M295.82,83.63c-.88,.02-1.8,.33-2.59-.39,.9-.15,1.76-.03,2.59,.39Z"/>
  <path class="cls-12" d="M285.73,83.16v.97c-.27,.04-.53,.07-.79,.11l-.45-.95c.4-.19,.81-.38,1.25-.13Z"/>
  <path class="cls-12" d="M242.31,81.55c-.62,.43-1.22,.97-2.04,.55,.63-.4,1.32-.55,2.04-.55Z"/>
  <path class="cls-12" d="M187.56,179.29c.87-.15,1.6,.11,2.18,.85-.73-.28-1.46-.57-2.18-.85Z"/>
  <path class="cls-12" d="M208.94,180.03c.64-.66,1.39-.88,2.25-.7-.66,.58-1.49,.51-2.25,.7Z"/>
  <path class="cls-12" d="M270.69,81.85c0,.31,0,.62,0,.93-.13,0-.27,.02-.4,.02-.27-.29-.55-.57-.82-.86,.39-.29,.8-.28,1.22-.1Z"/>
  <path class="cls-14" d="M294.47,175.57c-.58,.59-1.34,.72-2.07,.94-.09-.29-.18-.58-.27-.87,.13,.1,.26,.2,.39,.3,.33,0,.56-.13,.54-.55-.1-.06-.13-.14-.08-.26,.43,.39,.96,.41,1.48,.44Z"/>
  <path class="cls-11" d="M294.47,175.57c-.52-.03-1.05-.06-1.48-.44,.29-.41,.72-.41,1.13-.46,.38,.02,.71,.13,.82,.59-.16,.1-.31,.2-.47,.3Z"/>
  <path class="cls-12" d="M159.7,181.07c.48-.64,1.13-.5,1.76-.42-.54,.38-1.1,.62-1.76,.42Z"/>
  <path class="cls-12" d="M168.22,180.76c.57-.17,1.1-.19,1.52,.38-.56,.15-1.08,.1-1.52-.38Z"/>
  <path class="cls-12" d="M162.58,178.8c.93-.01,.83,.74,.87,1.39-.24,.05-.49,.1-.73,.14-.07-.32-.14-.65-.21-.97,.03-.19,.05-.38,.08-.57Z"/>
  <path class="cls-11" d="M199.93,85.37c-.4,.05-.8,.11-1.21,.16-.16-.3-.31-.59-.47-.89,.26-.04,.52-.09,.78-.13,.55-.03,.81,.31,.9,.86Z"/>
  <path class="cls-12" d="M274.44,81.91c-.44,.5-.85,.48-1.24-.07,.42-.17,.83-.18,1.24,.07Z"/>
  <path class="cls-14" d="M250.65,179.19c0,.3,0,.6,0,.89-.27,.02-.55,.04-.82,.06,0-.29,0-.59,0-.88,.27-.02,.55-.05,.82-.07Z"/>
  <path class="cls-12" d="M228.14,180.58c.38-.49,.78-.52,1.22-.09-.39,.32-.8,.23-1.22,.09Z"/>
  <path class="cls-14" d="M315.76,118.42c-.73-.03-.9-.52-.85-1.21,.34,.36,1,.44,.85,1.21Z"/>
  <path class="cls-14" d="M132.18,155.41c-.23-.31-.46-.63-.7-.94,.22-.28,.44-.56,.65-.83,.26,.39,.53,.78,.79,1.17-.25,.2-.5,.4-.75,.6Z"/>
  <path class="cls-11" d="M132.18,155.41c.25-.2,.5-.4,.75-.6,.21,.31,.42,.61,.62,.92-.28,.14-.56,.28-.84,.41-.18-.24-.35-.49-.53-.73Z"/>
  <path class="cls-14" d="M144.38,179.39c.59-.24,1.08-.04,1.49,.44-.53,0-1.08,.05-1.49-.44Z"/>
  <path class="cls-12" d="M233.96,80.02c-.59,0-1.22,.18-1.66-.46,.6-.07,1.16,.08,1.66,.46Z"/>
  <path class="cls-12" d="M266.11,82.28c-.22,.4-.47,.56-.81,.14,.24-.28,.51-.29,.81-.14Z"/>
  <path class="cls-13" d="M206.94,70.37c-.17,.57-.58,.52-1,.45,.21-.46,.6-.46,1-.45Z"/>
  <path class="cls-12" d="M217.82,180.39c.42-.19,.81-.19,1.13,.21-.41,.16-.8,.16-1.13-.21Z"/>
  <path class="cls-14" d="M275.3,178.73c.23-.42,.49-.48,.79-.07-.24,.27-.51,.21-.79,.07Z"/>
  <path class="cls-14" d="M314.2,98.21c-.02-.47-.04-.93-.06-1.4,.31,.45,.2,.92,.06,1.4Z"/>
  <path class="cls-14" d="M190.61,180.59c.46-.02,.92-.06,1.21,.45-.47,.08-.85-.18-1.21-.45Z"/>
  <path class="cls-14" d="M289.06,177.82c.36-.55,.88-.44,1.38-.36-.46,.12-.92,.24-1.38,.36Z"/>
  <path class="cls-14" d="M169.29,107.96c-.36,.49-.85,.43-1.33,.37,.37-.44,.84-.45,1.33-.37Z"/>
  <path class="cls-12" d="M302.9,87.25c-.01-.17-.02-.34-.03-.5,.35,.04,.57,.26,.7,.6-.22-.03-.45-.07-.67-.1Z"/>
  <path class="cls-14" d="M129.53,149.8c-.09,.51-.19,1.02-.28,1.53-.14-.3-.27-.6-.41-.91,.23-.22,.47-.44,.7-.66,0,0,0,.04,0,.04Z"/>
  <path class="cls-14" d="M301.57,171.43c.2-.35,.5-.45,.85-.42-.21,.32-.48,.51-.85,.42Z"/>
  <path class="cls-11" d="M292.13,175.63c.09,.29,.18,.58,.27,.87-.16,.09-.32,.19-.47,.28-.24-.24-.47-.48-.71-.73,.3-.14,.61-.29,.91-.43Z"/>
  <path class="cls-14" d="M314.26,100.08c-.22-.29-.22-.57,.06-.82-.02,.27-.04,.55-.06,.82Z"/>
  <path class="cls-12" d="M157.45,181.14c.36,0,.73-.02,1.09-.03-.36,0-.73,.02-1.09,.03Z"/>
  <path class="cls-1" d="M129.29,165.13s.1-.06,.14-.08c-.06,.03-.12,.07-.18,.1,0,0,.03-.02,.03-.02Z"/>
  <path class="cls-12" d="M292.5,83.15c-.16-.02-.32-.05-.48-.07,.16,.02,.32,.05,.48,.07Z"/>
  <path class="cls-12" d="M193.92,84.37c.14-.07,.28-.15,.42-.22-.14,.07-.28,.15-.42,.22Z"/>
  <path class="cls-12" d="M302.48,86.4c-.16-.12-.33-.24-.49-.36,.16,.12,.33,.24,.49,.36Z"/>
  <path class="cls-14" d="M161.32,110.03c-.13,.05-.27,.1-.4,.14,.13-.05,.27-.1,.4-.14Z"/>
  <path class="cls-12" d="M279.53,82.72c-.15-.03-.3-.06-.45-.08,.19-.22,.32-.08,.45,.08Z"/>
  <path class="cls-14" d="M132.05,164.09l-.16,.07s-.17-.02-.17-.02c.1-.15,.21-.17,.33-.05Z"/>
  <path class="cls-12" d="M263.77,82.66c-.19-.05-.38-.1-.57-.15,.19,.05,.38,.1,.57,.15Z"/>
  <path class="cls-14" d="M127.63,142.64c.11,.17,.23,.35,.34,.52-.11-.17-.23-.35-.34-.52Z"/>
  <path class="cls-12" d="M172.62,81.4c.14,.16,.29,.32,.43,.49-.14-.16-.29-.32-.43-.49Z"/>
  <path class="cls-14" d="M128.15,148.62c.08,.16,.16,.32,.23,.49-.08-.16-.16-.32-.23-.49Z"/>
  <path class="cls-14" d="M128.66,150.01c.12,.1,.17,.23,.17,.39-.06-.13-.11-.26-.17-.39Z"/>
  <path class="cls-14" d="M129.73,152.26c.1,.17,.21,.33,.31,.5-.1-.17-.21-.33-.31-.5Z"/>
  <path class="cls-12" d="M232.3,79.56c-.18-.02-.35-.05-.53-.07,.2-.21,.38-.2,.53,.07Z"/>
  <path class="cls-12" d="M165.92,180.17c.15,.08,.3,.17,.45,.25-.15-.08-.3-.17-.45-.25Z"/>
  <path class="cls-14" d="M251.96,179.86c.16-.04,.33-.08,.49-.12-.16,.04-.33,.08-.49,.12Z"/>
  <path class="cls-12" d="M232.77,179.81c.14-.03,.27-.07,.41-.1-.14,.03-.27,.07-.41,.1Z"/>
  <path class="cls-12" d="M213.77,179.34c.19,.02,.37,.05,.56,.07-.19-.02-.37-.05-.56-.07Z"/>
  <path class="cls-14" d="M282.95,178.86c.28,0,.56-.01,.84-.02-.28,.19-.55,.27-.84,.02Z"/>
  <path class="cls-14" d="M279.74,178.83c.27,0,.54,.02,.81,.02-.27,.24-.54,.18-.81-.02Z"/>
  <path class="cls-14" d="M287.04,178.42c.1-.1,.22-.13,.36-.1-.12,.03-.24,.07-.36,.1Z"/>
  <path class="cls-14" d="M290.73,177.37c.21-.11,.42-.23,.62-.34-.21,.11-.42,.23-.62,.34Z"/>
  <path class="cls-14" d="M134.57,159.79c-.05,.22-.11,.45-.16,.67,.05-.22,.11-.45,.16-.67Z"/>
  <path class="cls-14" d="M297.16,173.39c.21-.04,.42-.07,.62-.11-.16,.38-.38,.32-.62,.11Z"/>
  <path class="cls-14" d="M301.26,171.51c.08-.07,.17-.1,.27-.07,0,0-.12,.13-.12,.13l-.16-.05Z"/>
  <path class="cls-7" d="M141.8,114.88c5.04-2.39,10.32-3.58,15.81-3.72,4.39,.71,8.67,1.64,12.24,4.93,1.28,1.18,2.07,2.35,2.02,4.16-.48,1.13-1.09,2.13-2.19,2.62-.59,.28-1,0-1.49-.4-2.28-1.82-4.81-2.79-7.7-2.78-2.4,0-4.73-.67-7.22-.05-2.34,.58-4.58,1.47-6.9,2.07-1.32,.23-2.62,.52-3.77,1.32-1.75,.67-3.52,1.29-5.24,2.04-.94,.41-1.35,.5-1.26-.89,.3-4.3,1.86-7.62,5.69-9.3Z"/>
  <path class="cls-7" d="M205.22,155.72c.2-1.23-.46-2.16-.91-3.17,0,0,.02,.01,.02,.01,.07-.78,.02-1.53-.36-2.22-.06-.76-.13-1.52-.18-2.27-.25-3.9,.87-5.05,4.34-4.08,.97,.27,1.9,1.22,2.61,2.09,3.84,4.75,7.57,9.6,8.79,16.09,.08,.44,.19,.89,.23,1.34,.24,2.75-1.9,5.21-4.42,4.88-.92-.12-1.43-1.24-1.99-2.05-2.55-3.69-5.13-7.34-8.13-10.61,0,0,0,0,0,0Z"/>
  <path class="cls-7" d="M129.53,149.8s0-.04,0-.04c-.2-.56-.4-1.12-.6-1.68,.02-.05,.08-.12,.06-.16-.04-.11-.1-.2-.15-.3,0-.15,0-.3,0-.46-.12-3.92-.68-3.37,2.94-2.95,3.3,.38,5.33,2.45,7.48,4.6,1.62,1.62,3.41,3.01,4.92,4.82,1.88,2.27,2.86,4.93,3.61,7.74,.36,1.34,1.37,2.44,1.19,3.99-.09,.72,.29,1.61-.74,1.79-.96,.16-1.66,1.72-2.92,.35-1.6-1.73-3.26-3.41-4.94-5.07-2.08-2.06-4.34-3.97-6.1-6.42-.13-.19-.48-.19-.73-.27-.21-.31-.42-.61-.62-.92-.26-.39-.53-.78-.79-1.17-.22-.32-.44-.65-.65-.97-.18-.29-.36-.58-.54-.87,0-.63-.58-.6-.87-.9-.18-.37-.36-.73-.54-1.1Z"/>
  <path class="cls-7" d="M256.65,100.2c.02-.46,.05-.91,.05-1.37,0-1.83,.49-2.55,2.22-1.5,1.47,.89,3.19,1.13,4.83,1.23,1.42,.09,2.07,.68,2.51,2.08,1.59,5.12,3.84,10,4.34,15.49,.19,2.1,.19,4.09-.82,5.95-.54,1-1.28,1.56-2.39,1.44-1.12-.12-1.1-1.12-1.4-1.96-1.05-2.98-2.98-5.41-4.64-7.95-.93-1.41-1.82-2.82-2.46-4.36-1.19-2.87-2.31-5.79-2.25-9.05Z"/>
  <path class="cls-7" d="M195.15,164.38c.36,1.2-.41,1.73-1.43,2.07-.86,.29-1.74,.52-2.58,.87-.62,.25-1.01,.08-1.45-.43-1.94-2.22-3.87-4.46-5.92-6.56-1.59-1.63-2.62-3.62-3.54-5.71-.72-1.64-1.43-3.26-2.51-4.67-1.1-1.43-.73-3.16-.45-4.75,.14-.81,.89-.56,1.3-.04,1.17,1.51,2.73,1.46,4.22,1.11,.8-.19,1.4-.02,1.9,.44,4.81,4.42,9.06,9.27,10.39,16.34,.07,.37,.04,.76,.07,1.34Z"/>
  <path class="cls-7" d="M241.95,163.62c.47,1.85-.86,2.29-1.92,2.72-.99,.41-1.95,1.49-3.17,.13-5.13-5.69-9.53-11.85-11.32-19.83-.17-.77-.78-1.52,.04-2.27,.79-.73,1.34-.13,2.02,.3,1.02,.64,2.21,1.32,3.34,1,1.71-.48,2.44,.54,3.41,1.73,3.24,3.99,5.91,8.3,7.12,13.55,.2,.88,.32,1.78,.47,2.67Z"/>
  <path class="cls-7" d="M154.36,146.35c.84-.51,1.63-.68,2.46,.1,.47,.45,1.14,.7,1.76,.54,1.86-.47,3.25,.44,4.62,1.62,4.32,3.7,8.29,7.66,9.68,13.83,.35,1.56,.07,2.24-1.4,3.07-2.66,1.49-4.37,.55-6.19-1.51-2.33-2.64-4.81-5.11-7.23-7.66-.13-.18-.26-.36-.38-.54,0,0,.02,.02,.02,.02-1.33-2.98-3.37-5.61-3.8-9.04,0,0-.02,.03-.02,.03,.16-.16,.32-.31,.49-.47Z"/>
  <path class="cls-7" d="M194.72,119.92c-1.38,.08-.72,1.42-1.02,2.13-.9,2.13-1.57,2.27-3.35,1.06-3.96-2.69-8.35-4.32-12.86-5.53-1.27-.34-2.59-.61-3.89-.68-1.52-.08-2.22-1.38-3.25-2.21-1.98-1.6-4.28-2.57-6.52-3.8,3.64-1.15,7.32-1.35,11-.99,4.56,.45,9.03,1.36,13.15,3.78,2.29,1.34,4.21,3.03,5.5,5.51,.28,.54,.51,1.12,1.24,.89,0,0-.01-.16-.01-.16Z"/>
  <path class="cls-7" d="M255.69,145.45c.93-.13,1.79-.05,2.43,.84,1.99,2.78,4.33,5.3,5.43,8.73,.77,2.38,1.86,4.59,2.24,7.17,.43,2.88-1.88,2.55-2.99,3.53-1,.88-1.79-.33-2.27-1.15-1.57-2.68-3.64-4.92-5.43-7.41-.68-.95-1.24-2.3-2.69-2.22,0,0-.05,.04-.05,.04,.75-.79,.18-1.08-.42-1.37v-.02c.25-.59-.1-.96-.4-1.35-.29-2.25-1.86-3.98-2.08-6.26-.1-1,.3-1.41,1.06-1.89,.8-.5,.99-.13,1.44,.43,1,1.27,2.29,1.52,3.72,.92Z"/>
  <path class="cls-7" d="M251.62,115.16c0,2.53-.91,3.85-3.09,4.44-.71,.19-1.5,.29-1.54-.83-.14-3.44-2.25-5.9-4.12-8.04-3.4-3.89-6.07-8.08-7.55-13.19-.14-.49-.37-1.06-.01-1.52,.41-.54,.9-.13,1.33,.04,2.7,1.1,6.05-.06,7.91,4,1.3,2.83,3.92,4.87,5.1,8.09,.85,2.31,2,4.44,1.97,7.02Z"/>
  <path class="cls-7" d="M189.86,113.01c4.62-1.7,9.22-1.89,13.83-1.19,3.61,.54,7.17,1.52,10.38,3.5,1.87,1.16,4.01,2.13,4.61,4.8,.3,1.34,.18,2.62-.77,3.58-.59,.59-1.36,1.2-2.08,.07-2.45-3.83-6.2-4.65-10.03-4.79-3.53-.13-6.99-1.25-10.56-.79-.31,.04-.84-.09-.94-.31-.91-2.16-3.04-2.99-4.44-4.87Z"/>
  <path class="cls-5" d="M225.64,108.96c-.04,2.85,.35,5.78-1.72,8.17-1.21,1.39-2.3,.68-3.35,0-1-.64-1.08-1.5-.37-2.67,.87-1.45,.29-3.07,0-4.64-.79-4.2-3.58-7.25-5.18-10.98-.93-2.16-2.19-4.16-2.01-6.75,.09-1.27,.57-1.54,1.42-.99,1.48,.96,3.13,1.35,4.76,1.52,1.25,.13,1.36,1.24,1.79,1.95,3.24,5.43,5.04,7.7,4.67,14.38Z"/>
  <path class="cls-7" d="M264.9,89.19c-7.75,5.52-16.29,7.58-25.46,6.22-1.97-.29-4.08-.56-5.78-2.17,.9-1.09,2.04-.68,2.99-.96,2.68-.81,5.14-2.17,7.63-3.48,5.91-3.11,15.44-2.89,20.62,.39Z"/>
  <path class="cls-5" d="M219.56,65.59c-5.59,.94-4.87,6.45-2.45,9.66,1.63,2.17,2.66,4.78,4.48,6.77,.34,.37,.5,1.03,.25,1.5-.34,.64-.99,.44-1.51,.27-3.43-1.08-6.6-2.61-8.97-5.72-.41-.54-.62-1.71-1.71-1.17,0,0,.1-.03,.1-.03-.11-1.21-.74-2.2-1.18-3.27-.68-2.65-.45-5.22,.52-7.74,1.41-5.13,9.02-7.05,12.88-3.22"/>
  <path class="cls-7" d="M278.11,98.75c2.57,1.01,5.09,2.05,7.84,1.93,.45-.02,.92,.33,1.12,.89,1.97,5.45,4.78,10.62,4.66,16.78-.05,2.42-.97,3.78-2.7,3.88-.68,.04-1.36-.13-1.47-.92-.27-1.95-1.6-3.19-2.65-4.48-2.57-3.15-4-6.84-5.01-10.8-.6-2.34-2.04-4.42-1.79-7.27Z"/>
  <path class="cls-7" d="M286.75,99.31c-3.1,.23-6.09-.55-8.87-2.3-.4-.26-1-.52-.86-1.12,.07-.31,.61-.56,.98-.7,5.56-2.17,11.11-4.44,17.07-4.75,3.33-.17,6.66,.08,9.34,2.88,.54,.57,.81,1.19,1.11,1.84,.37,.83,.11,1.22-.81,1.19-4.08-.15-7.97,1.02-11.87,2.13-1.96,.56-3.95,.85-6.08,.83Z"/>
  <path class="cls-7" d="M286.87,160.29c.09,1.07,.08,1.67-.65,1.84-.07,.02-.13,.07-.19,.09-1.32,.44-2.33,2.08-3.72,1.78-1.39-.3-1.86-2.12-2.82-3.19-2.98-3.3-5.5-6.91-6.19-11.65-.14-.97-.91-2.52,.15-2.87,1.3-.43,2.6-1.93,4.2-.75,.32,.24,.84,.44,1.17,.32,2.14-.77,3.15,.83,4.05,2.36,2.25,3.8,2.71,8.33,4,12.06Z"/>
  <path class="cls-7" d="M293,168.75c1.97-1.73,2.17-4.04,2.43-6.27,.43-3.71-.02-7.44,.11-11.16,.05-1.52,.11-3.04,.32-4.54,.45-3.17,.79-3.42,3.71-3.43,.4,0,.7,.02,.74,.5,.23,3.18,1.85,5.9,2.42,8.99,.7,3.81,.35,7.43-.92,10.93-1.48,4.07-5.17,6.15-8.81,4.97Z"/>
  <path class="cls-7" d="M195.51,174.68c-2.01,.21-4.79-.76-7.33-2.65-.45-.34-1.02-.72-.97-1.36,.04-.58,.69-.68,1.12-.86,4.27-1.74,8.6-3.22,13.09-4.12,3.36-.67,6.6,.11,9.86,.75,1.25,.25,1.68,1.46,1.88,2.46,.19,.93-.97,1.12-1.61,1.4-4.81,2.14-9.66,4.15-16.04,4.38Z"/>
  <path class="cls-7" d="M156.87,120.35c3.26,.51,6.84,.35,9.96,2.58,1.35,.97,2.33,2.12,2.49,3.93,.2,2.28-1.04,3.36-3.04,2.51-4.9-2.08-9.83-1.06-14.75-.26-1.28,.21-2.8,1-3.58-.32-.98-1.65-.86-3.45,.75-5.04,2.5-2.48,4.28-3.4,8.18-3.4Z"/>
  <path class="cls-7" d="M241.87,126.66c-.15,.93,.98,1.92,.03,2.75-.98,.86-1.96,.03-2.91-.33-4.71-1.78-9.55-1.61-14.39-1.03-1.3,.15-2.33,1.5-3.88,1.32-1.92-.23-2.46-1.17-1.82-3.16,1.75-5.48,6.03-5.58,10.19-5.77,2.64-.12,5.23,.56,7.75,1.44,1.9,1.31,4.04,2.33,5.03,4.79Z"/>
  <path class="cls-7" d="M196.92,121.21c1.26,.7,2.28-.42,3.41-.63,3.36-.64,6.65-.49,9.91,.42,3.18,.88,4.99,3.35,5.38,6.82,.17,1.47-.26,2.01-1.47,1.53-4.87-1.94-9.86-1.34-14.84-.97-.62,.05-1.22,.12-1.81,.43-2.39,1.25-3.39,.51-3.09-2.33,.11-1.04,.49-2.05,.74-3.07,.37-.23,.9-.23,1.01-.84,.31-.28,.34-.57,.04-.87,0,0,.02-.05,.02-.05,.19,.17,.4,.37,.61,.08,.08-.12,.02-.35,.02-.53h.07Z"/>
  <path class="cls-7" d="M242.06,173.32c-2.06,.28-4.41-.31-6.68-1.3-.42-.18-.97-.35-.95-1.03,.01-.45,.42-.57,.72-.72,4.58-2.24,8.95-5.05,14.06-5.81,3.06-.45,6.06-.31,9.09,.13,1.17,.17,1.68,1.18,1.99,2.09,.3,.87-.75,1.13-1.31,1.45-5.19,2.91-10.5,5.42-16.92,5.2Z"/>
  <path class="cls-5" d="M212.32,85.51c.2-.73,.41-1.45,.6-2.18,.29-1.07,.88-1.35,1.72-.73,3.88,2.86,8.36,2.92,12.76,3.35,4.15,.41,8.29,.85,12.09,2.94,.18,.1,.33,.25,.71,.55-2.76,1.45-5.5,2.23-8.36,2.36-4.23,.19-8.46,.15-12.68-.46-2.84-.4-5.08-1.78-6.98-4.01,.66-.55,.07-1.22,.13-1.82Z"/>
  <path class="cls-7" d="M166.96,167.7c-5.58,3.7-11.34,7.05-17.97,8.11-2.67,.43-5.23,.1-7.52-1.7-.54-.42-1-.91-.26-1.22,3.28-1.37,5.86-4.13,9.35-5.2,4.59-1.41,9.21-1.79,13.91-1.9,1.26-.03,1.73,1.04,2.49,1.9Z"/>
  <path class="cls-7" d="M257.16,94.92c7.36-4.05,14.33-7.73,22.47-6.57,1.56,.22,3.11,.74,4.43,1.8,.82,.65,.77,1.26-.22,1.53-4.97,1.38-9.44,4.39-14.52,5.34-4.09,.77-8.08,.58-12.17-2.1Z"/>
  <path class="cls-7" d="M278.22,108.93c.07,2.75-.56,4.94-.9,7.18-.47,3.18-2.53,4.42-4.91,5.42-.86,.36-1.18-.24-.79-.83,1.78-2.73-.31-5.18-.37-7.76-.02-.74-.22-1.51-.48-2.21-1.15-3.12-1.62-6.17,.23-9.21,.32-.53,.5-1.34,.41-1.97-.27-1.92,1.03-1.91,2.09-2.37,1.38-.59,1.27,.78,1.64,1.41,2.28,3.97,3.06,6.77,3.08,10.35Z"/>
  <path class="cls-7" d="M314.94,104.25c1.77,3.25,.42,6.12-.91,8.99-1.42,.59-1.8-1.08-2.29-1.67-3.12-3.74-7.44-5.73-10.74-9.18-1.08-1.13-2.91-2.12-2.65-3.65,.24-1.38,2.26-.71,3.48-.97,5.1-1.11,11.21,1.26,13.11,6.49Z"/>
  <path class="cls-7" d="M211.69,171.61c4.74-2.18,9.31-4.43,14.39-5.13,2.21-.3,4.4-.54,6.63-.5,.35,0,.7,0,1.04,.01,1.14,.05,2.18,.91,2.49,1.72,.41,1.1-1.07,1.01-1.69,1.39-3.84,2.37-7.48,5.22-11.89,6.26-3.89,.91-7.43,.24-10.39-2.88-.19-.2-.31-.47-.57-.87Z"/>
  <path class="cls-7" d="M199.75,151.36c.92,3.09,2.1,6.11,2.34,9.41,.24,3.23,.22,3.11-2.54,4.08-1.87,.66-2.64,.61-3.03-1.93-.72-4.6-3.14-8.38-5.9-11.88-.63-.8-.74-5.13-.2-5.76,1.19-1.41,4.82-1.06,6,.59,.42,.59,.8,1.23,1.19,1.85,.58,1.31,.79,2.88,2.15,3.64Z"/>
  <path class="cls-7" d="M249,122c5.84-1.58,11.24-.55,16.12,3.36,.49,.39,.93,.93,1.22,1.51,.44,.88,1.16,1.97,.52,2.87-.71,1.02-1.81,.4-2.66-.07-.84-.46-1.72-.65-2.61-.69-4.37-.17-8.74-.29-13.11-.39-1.33-.03-2.59,.41-3.9,1.27-.36-1.81,.12-3.23,.84-4.59,.08-.12,.16-.25,.25-.37,.35-1.45,2.01-1.46,2.53-2.73,.27-.06,.53-.11,.8-.17Z"/>
  <path class="cls-7" d="M169.39,145.12c2.39-1.11,3.33,1.24,4.51,2.46,3.79,3.92,6.69,8.41,6.7,14.52,0,1.54-.25,2.18-1.79,2.1-2.13-.11-4.77,1.05-4.81-3.03,0-.45-.49-.88-.68-1.35-1.22-3.07-2.54-6.05-4.99-8.22-1.95-1.72-.41-4.12-.91-6.17-.17-.69,1.34,.17,1.96-.31Z"/>
  <path class="cls-7" d="M163.22,171.92c7.99-6.91,21.17-8.85,25.89-3.73-5.78,2.24-11.24,5.28-17.39,5.83-2.97,.27-5.91,.07-8.5-2.1Z"/>
  <path class="cls-7" d="M219.3,144.44c2.62,1.77,3.78,4.7,5.32,7.35,2.24,3.83,2.42,7.94,1.88,12.23-.1,.79-.49,1.15-1.19,1.33-3.58,.95-3.75,.94-4.58-2.83-.83-3.77-1.72-7.47-4.14-10.46-1.02-1.26-.08-2.63-.2-3.92-.14-1.6,.18-2.57,1.75-2.89,.5-.1,.93-.64,1.16-.81Z"/>
  <path class="cls-7" d="M174.75,121.64c.21,.69,.64,.38,1.01,.25,4.56-1.58,8.91-.8,13.04,1.56,1.57,.89,2.68,2.38,3.05,4.39,.29,1.61-.51,2.26-1.75,1.84-5.39-1.79-10.77-1.73-16.18-.15-1.01,.29-2.26,.1-2.69-.59-.71-1.12-.43-2.61,.29-3.84,.73-.8,1.46-1.59,2.19-2.39,.62-.03,1.36,.07,1.02-1.07h.01Z"/>
  <path class="cls-7" d="M255.94,171.24c4.97-2.44,9.19-5.93,14.25-7.66,2.5-.86,5.08-.75,7.61-1.11,1.03-.15,1.83,.44,2.49,1.33,.67,.88,.56,1.35-.37,1.88-4.4,2.51-8.66,5.39-13.49,6.82-3.49,1.04-7.04,1.52-10.49-1.27Z"/>
  <path class="cls-7" d="M249.4,159.4c-.18,.98,.51,2.79-.6,3.53-1.37,.9-3.11,1.15-4.72,1.57-.57,.15-.56-.5-.6-.94-.3-3.29-1.79-6.13-2.97-9.07-.52-1.29-.94-2.38-.48-3.86,.34-1.1,.21-2.4,.2-3.61-.01-2.11,1.42-3.04,3.23-2.24,1.85,.82,2.93,2.43,3.71,4.23,1.38,3.16,2.34,6.48,2.22,10.39Z"/>
  <path class="cls-7" d="M294.81,137.88c.32-3.23,1.1-6.42,2.65-9.33,.78-1.48,.73-3.22,1.34-4.73,.35-.87,.53-1.64,1.64-.46,1.06,1.12,2.59,1.83,4.19,1.45,1.29-.31,1.01,.45,.89,1.24-.5,3.5-1.99,6.68-2.78,10.09-.26,1.09-.59,2.18-.99,3.22-.91,2.41-2.75,3.37-4.95,2.93-2.52-.5-1.76-2.61-2-4.4Z"/>
  <path class="cls-5" d="M233.57,100.99c.08,5.5-2.25,10.19-4.18,15-.39,.97-1.33,1.28-2.05,1.84-.43,.33-.97,.35-1.38,.06-.58-.42-.09-.94,.06-1.39,1.38-4.14,1.05-8.4,.54-12.6-.24-2.02-.48-3.81,.61-5.63,.47-.79,.69-1.83,.83-2.79,.17-1.11-.06-2.34,1.58-2.24,1.48,.09,3.03-.07,3.33,2.12,.26,1.87,.45,3.76,.67,5.64Z"/>
  <path class="cls-7" d="M185.17,178.99c-.89,0-1.71,.31-2.52,.68-.79,.14-1.59,.27-2.38,.41-.21,0-.41,.01-.62,.02-.39,.03-.78,.07-1.16,.1-1.06-.11-2.11-.12-3.13,.3-.28,0-.57,0-.85,0-1.16-.39-2.35-.32-3.54-.31-4.6-.54-8.66-2.34-11.87-6.16,1.2-.99,2.28-1.57,3.86-.63,5.3,3.13,10.72,1.98,16.11,.17,.59-.2,1.16-.49,1.75-.68,.93-.3,1.65-.32,2.11,.98,.53,1.46,1.46,2.69,2.68,3.63,1.16,.89,.31,1.21-.46,1.48Z"/>
  <path class="cls-7" d="M314.17,127.19c-.3,.89-.6,1.78-.9,2.67-.55,.85-1.06,1.69-1.77,2.44-2.22,2.37-1.99,2.28-4-.29-2.29-2.94-.99-6.06-.47-8.87,.69-3.69,2.42-7.14,3.03-11.21,4.72,4.26,5.55,9.4,4.11,15.26Z"/>
  <path class="cls-7" d="M207.66,179.68c-1.68-.22-3.25,.46-4.87,.71-2.95,.45-5.91,.24-8.86,.14-3.61-.98-6.9-2.52-9.16-5.99-.56-.86-1.78-1.76-.84-2.8,.86-.96,1.93-.68,2.94,.54,1.82,2.21,4.31,3.21,7,3.44,3.84,.32,7.61-.09,11.24-1.53,1.04-.41,1.82-.4,2.55,.64,.88,1.24,1.9,2.36,3.54,2.97-1.11,1.23-2.73,.69-3.54,1.89Z"/>
  <path class="cls-7" d="M289.15,170.31c-4.33,1.81-8.68,3.55-13.46,2.42-1.16-.27-1.24-.28-2.62-1.67,6.46-3.33,12.23-8.02,19.33-9.62,2.04-.46,2.5-.03,1.74,2.12-.83,2.37-1.73,4.77-3.82,6.26-.39,.16-.78,.32-1.17,.49Z"/>
  <path class="cls-7" d="M289.49,129.4c-1.17,.79-1.75-.8-2.78-.8-5.38,.02-10.81-.84-16.09,1.03-.48,.17-1,.37-1.35-.06-.35-.42-.12-.95,.05-1.47,2.18-6.55,8.41-9.05,14.68-5.81,2.39,1.23,4.7,2.64,5.51,5.73,0,.46,0,.92-.01,1.38Z"/>
  <path class="cls-7" d="M208.18,129.25c1.16,.2,2.33,.34,3.47,.61,1.77,.42,3.11,1.32,3.67,3.45,.45,1.7,1.05,3.35,2.28,4.71,1.41,1.56,1.52,4.77,.47,5.79-1.4,1.34-4.81,.95-6.25-.81-1.63-2.01-3.12-4.12-3.99-6.73-.5-1.5-.97-3.03-1.75-4.47-1.1-2.03-.53-2.6,2.09-2.54Z"/>
  <path class="cls-7" d="M283.92,129.74c2.25-.35,4.08,.57,5.57,3.13,1.28,2.2,2.41,4.36,3.04,6.86,.32,1.27,.73,2.64-.25,3.65-1.07,1.09-2.55,.83-3.73,.29-5.11-2.34-7.49-7.02-8.65-12.66-.18-.89,.18-1.28,.97-1.27,.9,0,1.81,0,3.04,0Z"/>
  <path class="cls-7" d="M152.61,153.13c1.19,3.17,2.07,6.43,2.46,9.85,.19,1.67-.1,2.63-1.79,2.71-.62,.03-1.26,.15-1.83,.4-.95,.42-1.31,0-1.34-.97-.11-3.68-1.91-6.7-3.28-9.88-.46-1.07-1.04-2.09-2.05-2.78-2.06-1.41-1.53-3.74-1.65-6.01,2.08,.71,4.09,.67,6.08,.79,0,0,.05,0,.05,0-.03,.13-.06,.26-.09,.38,.16,.02,.33,.04,.49,.06h0c-.29,.98-.1,1.28,.83,1.38h0c-.03,.14-.06,.27-.09,.4,.16,.02,.33,.04,.49,.06,0,0,0,0,0,0-.56,1.23,.5,1.85,.87,2.73-.05,.66,.54,.59,.82,.88Z"/>
  <path class="cls-7" d="M158.04,133.81c.01,2.52-.49,4.94-1.04,7.37-.4,1.75-1.54,2.86-2.74,3.79-1.98,1.54-4.2,.51-4.83-2.15-.87-3.65-.28-7.24,.54-10.8,.19-.81,.74-1.24,1.4-1.56,.9-.44,1.85-.55,2.83-.63,3.97-.32,3.97-.33,3.84,3.98Z"/>
  <path class="cls-7" d="M247.29,144.54c-3.71-.16-4.22-.95-3.42-4.83,.39-1.92,.53-3.9,.83-5.84,.5-3.31,1.22-3.99,4.22-3.99,1.04,0,2.08,0,3.12,.07,2.7,.16,3.1,.61,1.85,3.12-1.16,2.33-1.33,4.87-2.02,7.28-1.05,2.02-2.72,3.23-4.57,4.19Z"/>
  <path class="cls-7" d="M284.88,143.21c1.85,.91,3.28,2.05,5.08,2.04,.43,0,.81,.18,1.07,.59,2.44,3.97,4.02,8.21,3.5,13.14-.1,.94-.64,1.05-1.31,1.05-1.73,0-3.3,1.44-5.11,.71-.1-4.34-2.57-7.89-3.31-11.96-.3-1.63,.25-3.56,.08-5.57Z"/>
  <path class="cls-7" d="M309.9,139.92c.04,1.37,.09,2.74,.13,4.12-.06,3.76-2.16,6.23-4.53,8.5-.97,.93-1.61,.9-1.91-.79-.37-2.07-1.12-4.06-1.56-6.11-.84-3.87,1.27-7.04,2.39-10.38,.37-1.11,.52-2.49,1.58-3.67,1.42,2.81,3.25,5.22,3.91,8.34Z"/>
  <path class="cls-7" d="M269.99,144.88c-1.11-.44-1.52-1.18-1.04-2.47,1.24-3.34,1.87-6.82,1.88-10.43,0-.62,.01-1.22,.71-1.46,1.95-.64,3.95-.75,5.97-.66,.8,.03,.79,.74,.83,1.32,.25,3.68-.19,7.29-1.37,10.73-.87,2.55-3.05,3.41-6.7,3.02-.09-.07-.18-.1-.29-.06Z"/>
  <path class="cls-7" d="M234.38,129.17c.88,.16,1.76,.31,2.64,.49,1.85,.4,2.99,1.43,3.32,3.65,.32,2.15,1.16,4.21,1.51,6.36,.2,1.22,.64,2.83-.63,3.7-1.39,.96-2.91,.79-4.3-.24-1.26-.94-2.3-2.03-2.83-3.69-.91-2.83-1.82-5.69-2.99-8.4-.79-1.83-.25-2.13,1.24-2.02,.48,.04,.97,.02,1.45,.02,.2,.04,.39,.08,.59,.12Z"/>
  <path class="cls-7" d="M204.83,132.27c-.25,4.25-1.85,7.71-4.06,10.79-1.46,2.05-4.79,1.82-6.27-.18-1.01-1.36-.13-2.6,.53-3.48,1.31-1.74,1.68-3.69,1.91-5.8,.14-1.31,0-3.09,1.3-3.62,1.8-.74,3.84-1.01,5.72-.49,1.17,.32,.59,1.98,.87,2.78Z"/>
  <path class="cls-7" d="M259.17,130.08c4.83,.35,5.24-.11,7.22,6.13,.36,1.15,.79,2.27,1.13,3.42,.39,1.32,.32,2.67-.68,3.58-.97,.88-2.22,.93-3.32,.16-3.57-2.52-6.19-5.96-7.66-10.32-.87-2.59-.12-3.18,3.31-2.96Z"/>
  <path class="cls-7" d="M230.04,131.24c-.32,3.88-1.6,7.34-3.48,10.5-1.18,1.99-3.35,2.28-5.55,1.07-1.99-1.09-1.38-2.94-.93-4.55,.65-2.34,1.9-4.42,2.5-6.84,.49-2,5.56-3.44,6.98-2.24,.66,.56,.31,1.41,.47,2.07Z"/>
  <path class="cls-7" d="M127.2,124.01c.98-3.55,2.95-6.21,5.94-7.96,1.27-.09,2.54-.19,3.8-.28,.09,.27,.17,.55,.26,.82-1.73,2.45-1.99,5.4-2.26,8.31-.11,1.26-.32,2.2-1.4,3.02-.92,.69-1.54,1.91-2.18,2.97-1.05,1.71-1.56,1.8-2.72,.22-.52-.7-.96-1.47-1.44-2.21,.01-.79-.3-1.41-.85-1.9,0-.38,.01-.76,.02-1.13,.48-.37,.81-.83,.75-1.52,.11-.09,.14-.21,.08-.35Z"/>
  <path class="cls-7" d="M268.62,147.1c.17,.32,.17,.88,.74,.64,0,0,.06-.03,.06-.03-.45,1.18,.51,1.84,.83,2.73,.2,.53-.05,1.67,1.07,.94h.05s0,.06,0,.06c-1.09,.43-.62,1.19-.35,1.92-.22,.29-.13,.55,.05,.81,0,1.02,0,2.05,0,3.07-.07,.47-.15,.93-.22,1.4-.74,1.56-.28,3.96-2.68,4.36-.82,.14-1.24,.24-1.31-.9-.25-4.28-2.06-7.93-4.12-11.42-1.18-1.99,.35-3.81,.1-5.72,0-.08,.22-.29,.27-.26,1.46,.81,3.58-.57,4.62,1.64,.01,.63,.56,.55,.87,.77Z"/>
  <path class="cls-7" d="M184.62,129.67c1.05,.18,1.99,.39,2.95,.48,2.02,.19,2.98,1.48,3.5,3.54,.3,1.17,.72,2.34,1.58,3.33,.91,1.05,.84,4.98,.14,6.01-.77,1.14-4.59,.94-5.5-.56-2.19-3.63-4.29-7.41-4.85-11.79-.28-2.18,1.58-.33,2.18-1.02Z"/>
  <path class="cls-4" d="M245.8,120.22c-.12,.27-.23,.55-.35,.82-2.05,1.14-3.85,.77-5.39-1.1-.29-.35-.59-.63-1.04-.61-1.58-2.08-3.23-4.03-5.59-5.13-.78-.36-1.28-1.07-.88-2.38,1.39-4.55,1.56-4.65,5.48-2.43,1.91,1.08,3.76,2.23,5.2,3.96,1.41,1.69,2.37,3.69,2.59,6.03-.01,.28-.02,.55-.03,.83Z"/>
  <path class="cls-7" d="M178.3,129.87c3.1-.1,3.98,1.65,2.69,4.89-.71,1.77-.93,3.77-1.56,5.59-1.01,2.96-2.72,3.98-5.48,3.6-1.65-.23-2.42-1.23-2.03-2.95,.54-2.42,1.12-4.85,1.98-7.14,.4-1.08-.21-2.48,.99-3.3,1.09-.74,2.24-.67,3.42-.69Z"/>
  <path class="cls-7" d="M170.7,141.88c.72,2.11-.64,2.09-1.99,2.05-1.75-.05-3.17-.83-4.32-2.31-2.08-2.68-3.66-5.63-4.42-9.06-.22-.99-1.45-2-.84-2.75,.7-.86,2.08-.32,3.17-.3,2.77,.04,4.32,1.64,5.29,4.4,.68,1.94,1.35,3.96,2.85,5.45,.64,.64,.39,1.55,.26,2.52Z"/>
  <path class="cls-7" d="M309.83,150.93c.2,2.88,.56,5.79-.11,8.62-1.09,4.58-3.77,7.9-7.33,10.44-2.19,.78-4.36,1.66-7.12,1.17,1.43-1.23,2.92-1.29,4.09-2.2,3-2.36,4.7-5.76,4.55-9.44-.17-4.28,2.18-6.04,4.62-8.14,.41-.36,.65-1.07,1.31-.46Z"/>
  <path class="cls-7" d="M300.4,118.28c.81-3.39,1.72-7.24,2.65-11.09,.24-.98,.7-.5,1.24-.26,1.69,.77,2.82,2.39,4.4,3.34,.77,.46,.42,1.64,.1,2.32-1.21,2.58-1.5,5.45-2.3,8.16-.5,1.71-1.09,3.18-3.14,2.78-1.6-.31-2.89-2.04-2.95-4.06,0-.23,0-.46,0-1.18Z"/>
  <path class="cls-7" d="M146.69,129.35c-.06,.73-.88,1.07-1.66,1.29-2.73,.77-5.22,1.96-6.92,4.57-.56,.86-1.25,.84-2,.56-.65-.24-1.26-.62-1.91-.88-3.04-1.21-3.28-1.99-1.06-4.62,2.03-2.39,4.44-4.27,7.37-5.17,2.75-.84,6.26,1.35,6.18,4.24Z"/>
  <path class="cls-7" d="M250.65,179.19c-.27,.02-.55,.05-.82,.07-2.77,.17-5.55,.42-8.32,.01-4.2-.61-5.9-1.78-9.97-6.57,.62-.44,1.12-1.07,1.97-.49,4.93,3.36,10.23,2.81,15.51,1.51,1.44-.35,2.36-.38,3.02,1.22,.58,1.41,2.24,1.62,3.22,3.05-1.71,.44-3.16,.82-4.61,1.19Z"/>
  <path class="cls-7" d="M296.72,107.89c-.04,3.57-.18,7.12-1.31,10.52-.55,1.65-1.24,3.19-3.22,3.7,1.71-5.55-.15-10.52-1.61-15.49-.7-2.38,.6-4.22,.89-6.3,.2-1.4,3.49-.79,4.14,.78-.02,.05-.06,.12-.04,.16,.04,.1,.1,.2,.15,.29,.22,.91,.44,1.82,.66,2.72,.05,.19,.1,.37,.14,.56,.07,.87,.13,1.74,.2,2.62-.09,.15-.08,.29,0,.43Z"/>
  <path class="cls-7" d="M292.13,175.63c-.3,.14-.61,.29-.91,.43-1.42,.47-2.84,.94-4.26,1.41-.76-.11-1.49,.02-2.2,.33-4.5,.35-8.87-.02-12.82-2.75-.35-.24-.8-.41-1.01-.75-.33-.54-1.57-.64-.91-1.65,.46-.7,1.42-.99,2.08-.48,4.86,3.72,9.92,2.08,14.77,.38,2.12-.74,3.97-.94,5.95-.26,1.08,.37,2.41-.37,3.27,.88-.66,.49-1.32,.99-1.99,1.48-.41,.05-.84,.04-1.13,.46-.05,.11-.03,.2,.08,.26-.38-.06-.56,.12-.54,.55l-.39-.3Z"/>
  <path class="cls-7" d="M252.39,117.57c.84-4.62-.38-8.46-2.62-12.05-.56-.89-.95-1.87-.44-3.16,.45-1.14,.56-2.53,.49-3.79-.07-1.43,.53-1.79,1.61-2.03,2.86-.63,2.95-.69,3.55,2.49,.88,4.69,1.75,9.41,.22,14.15-.53,1.66-.94,3.42-2.81,4.39Z"/>
  <path class="cls-7" d="M145.92,145.8c-2.92-.12-6.76-3.63-7.38-6.75-.31-1.54,.14-2.85,1.08-3.98,1.1-1.33,2.66-1.9,4.04-2.71,1.09-.64,1.81,.13,2.11,1.35,.67,2.71,1.63,5.33,1.96,8.14,.05,.45,.08,.92,.21,1.35,.68,2.15,.26,2.69-2.03,2.6Z"/>
  <path class="cls-7" d="M137.11,143.79c-3.7-.58-7.34-.37-10.16-3.26-1.48-1.52-1.57-6.6-.08-8.11,.32-.32,.61-.92,1.16-.22,2.01,2.59,4.91,3.5,7.63,4.74,.54,.25,1.26,.33,1.22,1.29-.06,1.29,.75,2.15,1.28,3.16,.32,.62,1.28,1.25,.81,1.88-.36,.49-1.37,.41-1.85,.53Z"/>
  <path class="cls-7" d="M246.95,81.96c4.17-.51,8.31-.16,12.45,.42,3.44,.99,6.6,2.55,9.19,5.48-.95,.81-1.72,.91-2.99,.18-4.36-2.5-9.09-3.07-13.94-2.43-1.5,.2-3.04,.18-4.5,.8-.58,.25-1.27,.29-1.74-.32-.98-1.27-2.22-2.15-4.11-3.16,1.7-.34,2.82-.56,3.94-.78,.51,.11,1,.11,1.47-.17,.08,.07,.16,.07,.23-.02Z"/>
  <path class="cls-7" d="M139.27,178.71c-2.86-.74-5.73-1.43-8.06-3.64-2.97-2.81-3.36-4.76-1.58-8.64,.85-.65,1.76-1.19,2.77-1.41,1.98-.43,2.66,.34,2.57,2.45-.11,2.59,.75,4.94,2.2,6.9,1.01,1.36,2.42,2.38,3.65,3.55l-.04,.8c-.5,0-1.01,0-1.51,0Z"/>
  <path class="cls-7" d="M230.44,179.15c-1.6,.23-3.2,.46-4.81,.68-.14,.02-.28,.05-.41,.07-2.04-.1-4.09-.2-6.13-.3-.32-.06-.64-.12-.96-.17-3.4-.65-6.4-2.26-9.02-4.69-.42-.39-1.28-.95-.69-1.61,.58-.64,1.69-1.35,2.43-.5,5.7,6.62,11.93,4.69,18.21,1.41,.99-.51,1.43-.61,2.1,.44,.84,1.33,1.93,2.47,2.96,3.74-.97,.82-2.47,.37-3.72,.91,0,0,.05,0,.05,0Z"/>
  <path class="cls-7" d="M284.94,84.24c.26-.04,.52-.07,.78-.11,4.7-.27,9.35-.05,13.81,1.82,1,.59,2,1.18,3,1.76,.88,1.76,3.26,2.4,3.16,5.09-3.11-3.4-6.94-3.67-10.86-3.64-.55,0-1.11,.12-1.65,.23-2.4,.51-4.82,1.37-5.94-2.33-.35-1.16-2.33-1.07-2.31-2.83Z"/>
  <path class="cls-5" d="M210.99,88.79c.44,.67,.99,1.26,.87,2.22-.31,2.37,.55,4.6,.91,7.31-5.01-2.7-8.6-6.57-11.47-11.34,1.6-1.45,3.87-2.02,4.72-4.42,.04,.08,.04,.16,0,.24v-.06c1.17,2.49,2.62,4.71,4.97,6.05Z"/>
  <path class="cls-7" d="M270.29,82.81c.13,0,.27-.02,.4-.02,4.09,.13,8.14,.38,11.99,2.26,1.84,.9,3.06,2.5,4.42,3.95,.35,.37,.78,1.04,.17,1.57-.39,.33-1.03,.29-1.36-.11-3.58-4.27-8.26-3.69-12.78-3.33-1.82,.14-3.34,.65-4.74-1.29-.55-.77-1.55-1.36-2.69-2.31,1.78-.28,3.18-.5,4.58-.72Z"/>
  <path class="cls-7" d="M162.58,178.8c-.03,.19-.05,.38-.08,.57-.67,.2-1.34,.4-2,.6-.31,.03-.62,.07-.92,.1-4.66,.16-9.3,0-13.83-1.38-1.27-.39-2.53-.8-3.59-1.72,.18-.19,.36-.37,.54-.56,4.21,1.34,8.3,.72,12.3-.96,1.59-.67,2.94-1.13,4.32,.61,.88,1.11,2.16,1.83,3.27,2.72Z"/>
  <path class="cls-5" d="M229.69,80.1c3.95,.81,7.66,1.94,11.11,3.95,.61,.35,1.22,.71,1.8,1.11,.77,.53,2.17,1.29,1.54,2.11-.65,.85-2.04,1.87-3.46,.92-2.97-1.97-6.27-2.69-9.65-3.11-.65-.08-1.6,.22-1.72-.79-.16-1.32-.05-2.68-.02-4.03,0-.08,.34-.15,.4-.17Z"/>
  <path class="cls-7" d="M265.34,122.64c-1.28,.86-1.81,0-2.44-.35-1.87-1.05-3.86-1.56-5.92-1.93-2.63-.47-3.01-1.35-1.85-3.86,.4-.87,.88-1.76,1.05-2.7,.4-2.24,1.35-1.82,2.54-.8,2.38,2.04,3.98,4.73,5.35,7.62,.34,.71,.36,1.6,1.27,2.03Z"/>
  <path class="cls-5" d="M227.77,81.69c-.53,.85,.83,2.65-1.03,2.81-1.52,.13-3.37,.7-3.77-2.15-.19-1.32-1.03-2.58-1.93-3.68-.84-1.02-1.04-2.14,.61-2.67,1.19-.38,2.39-.77,3.5-1.35,1.4-.72,1.91-.04,2.06,1.32,.21,1.87,.37,3.75,.56,5.71Z"/>
  <path class="cls-8" d="M301.4,104.68c.84,.2,.95,.69,.77,1.65-.6,3.08-2.32,5.78-2.48,8.99-.07,1.28-.41,2.58-.31,3.83,.17,2.01-1.24,3.1-1.92,4.6-.15,.32-.73,.81-1.19,.14-.6-.86-1.44-1.56-.79-2.93,1.59-3.36,2.99-6.84,2.73-10.75-.13-1.96,.73-3.3,1.77-4.66,.39-.5,.88-.7,1.44-.88Z"/>
  <path class="cls-4" d="M217.04,106.18c.95-.1,1.17,.74,1.34,1.41,.42,1.57,.76,3.17,1.04,4.77,.25,1.39-.66,2.25-1.47,3.03-.83,.79-1.52-.05-2.24-.46-1.22-.71-2.44-1.43-3.71-2.02-.67-.31-.86-.65-.56-1.34,1.43-2.34,3.59-3.76,5.59-5.38Z"/>
  <path class="cls-7" d="M136.01,168.49c-.03-1.47,.31-2.42,1.55-2.5,2.12-.14,4.12,.42,5.92,1.62,1.03,.69,1.43,1.47,.06,2.52-1.51,1.15-3.23,1.67-4.88,2.39-.59,.26-1.22,.1-1.55-.67-.5-1.17-.99-2.34-1.1-3.37Z"/>
  <path class="cls-8" d="M205.22,155.72s0,0,0,0c-.93,1.11,.29,1.67,.53,2.47,.03,.15,.06,.3,.08,.45-1.12,.54-2.97-.7-3.47-2.38-.6-2.01-1.13-4.04-2.12-5.87-.27-1.52-1.56-2.3-2.16-3.58-.21-.52-.34-1.15,.34-1.21,1.43-.13,2.52-.94,3.77-2.29,.13,3.83-.2,7.31,1.56,10.35,.05,.16,.11,.32,.16,.47,.46,.51-.07,1.97,1.3,1.6Z"/>
  <path class="cls-7" d="M252.87,140.42c.15-.49,.16-1.21,.47-1.43,.84-.6,.65-2.05,1.76-2.35,1.5-.41,1.15,1.41,1.89,1.86,.7,.42,1.07,1.14,1.54,1.77,1.45,1.99,1.28,2.68-.93,3.49-.64,.24-1.39,.12-1.92,.72-3.23-.07-3.76-.84-2.81-4.06Z"/>
  <path class="cls-8" d="M159.03,145.83c-2.01-.05-2.36-.67-1.58-2.56,.62-1.52,1.02-3.12,1.26-4.76,.09-.62,.19-1.15,.92-1.27,.77-.13,.88,.48,1.17,.98,.78,1.38,1.17,3.06,2.59,3.96,.43,.27,.69,.98,.11,1.3-1.5,.83-2.65,2.51-4.47,2.34Z"/>
  <path class="cls-7" d="M285.94,121.88c-2.55-1.39-4.87-2.02-7.33-1.95-1,.03-1.51-.22-.92-1.4,.03-.07,.05-.14,.07-.21,1.57-5.22,1.62-5.29,5.33-1.92,1.39,1.27,2.49,2.94,2.86,5.48Z"/>
  <path class="cls-8" d="M230.95,144.53c-1.16,0-2.01-.56-2.87-.99-.75-.38-.63-1.13-.15-1.7,1.11-1.3,1.62-2.91,2.1-4.56,.35-1.21,1.03-1.51,1.68-.25,.91,1.77,1.71,3.61,2.54,5.43,.26,.57-.12,.83-.5,1.05-.92,.55-1.9,.9-2.8,1.03Z"/>
  <path class="cls-8" d="M292.79,127.54c.78,.87,1.51,0,2.22-.15,.84-.17,1.3,0,1.03,.95-.76,2.74-1.6,5.46-2.44,8.18-.05,.18-.32,.28-.53,.45-1.05-1.69-1.54-3.73-2.77-5.28-.02-.31-.04-.61-.06-.92,.58-1.32,2.2-1.67,2.55-3.22h0Z"/>
  <path class="cls-8" d="M181.91,145.21c-1.11-.06-1.94-.07-2.51-.93-.67-1,.33-1.45,.54-2.16,.45-1.56,1.7-2.7,1.87-4.4,.05-.44,.26-.91,.75-.95,.57-.04,.57,.55,.73,.93,.36,.82,.62,1.7,1.07,2.45,.57,.96,1.99,1.94,1.25,2.95-.89,1.2-2.45,1.85-3.7,2.1Z"/>
  <path class="cls-8" d="M306.35,90.06c2.01,.02,3.47,1.2,4.68,2.8,.44,.58,.81,1.2,1.46,1.51,.42,1.5,1.02,2.98,.63,4.77-1.4-.75-2.76-1.43-4.09-2.22-.45-.27-1-.61-1.02-1.3-.07-2.03-.99-3.75-1.67-5.56Z"/>
  <path class="cls-8" d="M156.81,156.04c.54,.88,1.09,1.75,1.62,2.64,.21,.35,.19,.72-.04,1.06-.25,.37-.58,.42-.9,.17-.96-.75-2.2-1.02-2.51-2.71-.34-1.91-.98-3.79-2.03-5.44,0,0-.02,0-.02,0-.28-1.16-.99-1.86-2.01-2.23,0,0,0,0,0,0,.01-.16,.02-.32,.04-.48-.15,.01-.29,.03-.44,.04,0,0,0,0,0,0,.29-.88,0-1.34-.83-1.37,0,0,0,0,0,0,.01-.16,.02-.32,.03-.48-.15,.01-.29,.03-.44,.04,0,0-.05,0-.05,0,.3-.89,.62-1.55,1.67-.83,.62,.42,1.41,.55,2.12,.81,.74,3.21,1.46,6.43,3.8,8.81Z"/>
  <path class="cls-8" d="M191.31,110.54c4.93-2.1,10.02-2.5,15.22-1.8,.57,.08,1.59-.13,1.35,1.14-.21,1.1-.89,1.39-1.87,1.15-2.64-.66-5.33-.98-8.03-.78-2.2,.16-4.38,.56-6.57,.85-.03-.19-.06-.37-.09-.56Z"/>
  <path class="cls-8" d="M279.83,136.29c1.51,1.78,1.82,3.95,3.48,4.97,.25,.15,.3,.62,.05,.79-1.42,.96-2.44,2.79-4.39,2.64-.8-.06-1.55-.36-1.2-1.58,.62-2.19,1.75-4.15,2.07-6.83Z"/>
  <path class="cls-14" d="M252.87,140.42c-.95,3.23-.42,3.99,2.81,4.06,0,.32,0,.65,.01,.97-1.43,.6-2.72,.35-3.72-.92-.45-.57-.64-.94-1.44-.43-.76,.48-1.16,.89-1.06,1.89,.22,2.28,1.79,4.02,2.08,6.26-.3,0-.6,0-.9,.01-.44-.15-.76-.42-.9-.92-.17-.6-.35-1.2-.52-1.8-.2-.85-.46-1.7-.6-2.57-.14-.86-.3-1.61-1.3-1.56-.01-.29-.03-.58-.04-.87,1.86-.96,3.52-2.17,4.57-4.19,.33,.02,.67,.05,1,.07Z"/>
  <path class="cls-8" d="M218.88,137.69c-.88-1.94-2.06-3.36-2.75-5.18-.63-1.67-.23-2.32,1.27-2.34,1.15-.01,2.3,.12,3.45,.23,.81,.08,.64,.79,.39,1.15-1.2,1.73-1.15,3.99-2.36,6.14Z"/>
  <path class="cls-8" d="M171.25,137.9c-1.6-1.57-2.33-3.66-3.11-5.74-.51-1.36-.07-1.68,1.13-1.74,3.44-.17,4.03,.59,3.03,4.29-.29,1.07-.33,2.26-1.05,3.18Z"/>
  <path class="cls-7" d="M235.23,120.14c-1.54-.67-3.38-.83-5.25-.89-.58-.02-.66-.38-.49-.91,.89-2.73,3.28-3.46,5.36-1.65,.42,.37,.95,.59,1.35,.99,.44,.43,1.19,.83,1,1.57-.21,.83-1.02,.88-1.98,.9Z"/>
  <path class="cls-7" d="M292.79,127.55c-3,.76-2.71-2.8-4.55-3.74,1.93-1.22,3.77-.53,5.51-.77,1.24-.17,1.69,1.87,2.75,2.81-1.23,.38-2.26,.69-3.28,1-.16,.08-.33,.17-.49,.25,.02,.14,.05,.29,.07,.43,0,0,0,0,0,0Z"/>
  <path class="cls-8" d="M206.12,142.88c-2.62,.1-2.92-.36-2.13-2.47,.42-1.11,.78-2.25,1.14-3.39,.46-1.47,1.18-1.03,1.68-.15,.76,1.34,1.3,2.82,2,4.2,.39,.77,.11,1.14-.53,1.31-.86,.24-1.74,.4-2.15,.5Z"/>
  <path class="cls-7" d="M194.2,137.63c-.85-1.69-1.21-3.44-2.24-4.9-.79-1.12-.78-2.31,1.04-2.23,.27,.01,.55-.04,.83-.04,2.55-.06,2.9,.51,1.67,3.12-.59,1.26,.05,2.92-1.3,4.06Z"/>
  <path class="cls-4" d="M210.74,107.54c.8-.72,1.61-1.44,2.41-2.16,.8-.36,1.57-.8,2.39-1.05,.91-.28,1.3,.11,.83,1.14-2.41,1.47-4.67,3.13-5.88,6.02-.61,.2-1,1.44-1.72,.74-.56-.55,.04-1.38,.2-2.11,.27-1.17,1.07-1.8,1.76-2.58Z"/>
  <path class="cls-8" d="M268.93,138.45c-1.83-2.01-2.14-4.4-2.61-6.59-.23-1.06,1.15-.65,1.81-.72,.68-.07,1.61-.39,1.58,1.05-.04,1.98-.31,3.92-.78,6.26Z"/>
  <path class="cls-8" d="M237.67,120.26c.31-.06,.61-.12,.92-.18,2.05,2.54,4.61,2.94,7.45,2.09-1.25,1.24-1.38,3.34-2.81,4.45-1.4-2.02-2.55-4.31-4.98-5.14-.51-.17-.82-.57-.58-1.22Z"/>
  <path class="cls-8" d="M238.64,150.35c-1.43-1.53-2.56-3.1-3.94-4.45-1-.97-.47-1.57,.53-1.85,1.37-.38,3.36,1.32,3.41,2.89,.04,1.13,0,2.27,0,3.41Z"/>
  <path class="cls-7" d="M135.8,159.7c1.26,1.21,2.48,2.37,3.67,3.55,.4,.4,.94,.88,.61,1.52-.34,.66-.84,.01-1.26-.06-.14-.02-.27-.02-.41-.04-3.63-.37-3.92-.89-2.6-4.98Z"/>
  <path class="cls-8" d="M172.71,120.26c.29-2.67,1.29-2.92,4.8-1.25-.15,1.84-2.31,1.12-2.76,2.63,0,0-.01,0-.01,0-.68-.54-1.22-.2-1.74,.33-1.21-.34,.15-1.21-.29-1.71Z"/>
  <path class="cls-8" d="M242.63,130.75c1.08-.1,1.58,.41,1.25,1.6-.37,1.32-.47,2.65-.45,4.02,0,.47-.04,1-.51,1.1-.59,.12-.55-.51-.65-.91-.35-1.38-.66-2.76-1.02-4.13-.38-1.41,.29-1.75,1.39-1.68Z"/>
  <path class="cls-8" d="M296.54,98.82c.97,1.24,1.95,2.49,2.91,3.73,.35,.45,.87,.91,.33,1.54-.46,.54-.75,1.51-1.48,1.44-.71-.07-.74-1-.93-1.68-.49-1.69-1.29-3.28-1.22-5.12,.13,.03,.26,.05,.38,.08Z"/>
  <path class="cls-8" d="M137.36,145.07c.96-.18,1.7-.33,2.44-.45,.85-.13,1.57,.45,1.87,1.07,.43,.89,.7,2.07,.35,3.04-.25,.71-.89,.26-1.31-.17-1.08-1.13-2.15-2.25-3.36-3.5Z"/>
  <path class="cls-14" d="M156.81,156.04c-2.34-2.38-3.06-5.6-3.8-8.81,.3-.15,.59-.3,.89-.44,.43,3.44,2.47,6.06,3.8,9.04-.3,.07-.59,.14-.89,.21Z"/>
  <path class="cls-8" d="M189.2,146.57c-.12,.61,.23,1.54-.77,1.76-.41,.09-3.02-2.61-2.93-3.04,.15-.74,.7-1.15,1.32-1.24,1.23-.18,2.36,1.04,2.38,2.52Z"/>
  <path class="cls-8" d="M225.72,119.2c-2.06,.53-3.82,1.69-5.81,2.53-.14-1.32-.16-2.56-.81-3.81,2.08,1.82,4.44,.62,6.62,1.29Z"/>
  <path class="cls-8" d="M249.75,151.34c.13,.5,.46,.78,.9,.92,.39,.49,.05,1.83,1.29,1.34,0,0,.01,.02,.01,.02-.6,.73-.5,1.2,.42,1.37,0,0,.05-.04,.05-.04-.67,.6,.08,.9,.28,1.25,.38,.69,.86,1.42-.08,1.89-.77,.39-1.46-.36-1.64-.99-.55-1.92-1.6-3.67-1.65-5.76,.14,0,.28,0,.43,0Z"/>
  <path class="cls-8" d="M294.42,148.52c-1.46-.54-1.99-1.99-2.09-3.15-.1-1.15,1.47-1.56,2.18-2.46,.51-.63,.89,.28,.79,.9-.25,1.56-.57,3.1-.88,4.71Z"/>
  <path class="cls-8" d="M165.99,147.34c-.15,.58,.16,1.78-.46,1.47-1.2-.59-2.45-1.56-3.08-2.75-.25-.48,1.7-1.97,2.37-1.85,1.37,.24,.92,2.02,1.17,3.13Z"/>
  <path class="cls-8" d="M180.26,108.7c2.64,.12,5.2,.66,7.67,1.86-2.93,1.27-5.47-1.02-8.22-1.28,.19-.19,.37-.39,.56-.58Z"/>
  <path class="cls-5" d="M226.9,94.62c-.1,1.05-.18,2.1-.73,3.01-.25,.42-.2,1.38-.92,1.02-.63-.32-1.38-.97-.92-1.95,.43-.91,1.04-1.68,.99-2.81-.02-.59,.5-.61,.92-.59,.85,.05,.7,.72,.65,1.31Z"/>
  <path class="cls-8" d="M248.07,102.3c-1.76-1.48-.89-3.28-.98-4.85-.03-.54,.57-.56,.98-.57,.68-.02,.77,.51,.78,1.07,.04,1.45-.13,2.86-.78,4.35Z"/>
  <path class="cls-14" d="M237.67,120.26c-.24,.65,.07,1.05,.58,1.22,2.43,.83,3.58,3.12,4.98,5.14-.45,.02-.91,.03-1.36,.05-1-2.46-3.13-3.48-5.03-4.79,.06-.67,.2-1.3,.83-1.62Z"/>
  <path class="cls-8" d="M156.61,160.71c1.33,.62,2.05,2,3.15,2.86,.57,.44,.49,.98-.37,1.19-2.56,.63-3.26-.33-2.78-4.04Z"/>
  <path class="cls-14" d="M172.71,120.26c.44,.5-.91,1.37,.29,1.71,.24,.25,.48,.49,.72,.74-.73,.8-1.46,1.59-2.19,2.39-.37-.99-2.2-.52-1.85-2.23,1.11-.5,1.72-1.49,2.19-2.62,.28,0,.56,.01,.83,.02Z"/>
  <path class="cls-8" d="M210.57,164.21c.11,.65-.23,.8-.58,.74-.77-.13-1.65,0-2.03-1.14-.28-.84-.77-1.59-1.14-2.39-.2-.44-1.3-.55-.6-1.29,.67-.7,1.19-.04,1.64,.62,.84,1.25,1.54,2.64,2.72,3.46Z"/>
  <path class="cls-8" d="M271.37,151.38s-.05,0-.05,0c0-.61-.1-1.17-.52-1.62-.33-.79-.02-2.09-1.38-2.05,0,0-.06,.03-.06,.03,.63-.26,.26-.62,.08-.97,.03-.58,.42-.64,.82-.7,1.81,.25,1.35,2.21,2.02,3.32,.31,.51,.26,1.29,.37,1.94-.42,.02-.85,.04-1.27,.05Z"/>
  <path class="cls-8" d="M203.6,159.67c1.57,1.04,1.84,2.89,3.06,3.84,.29,.23-.01,.6-.41,.75-1.62,.57-2.64-.17-2.64-1.97,0-.79,0-1.57,0-2.61Z"/>
  <path class="cls-8" d="M261.67,145.5c-.35,.68,.45,1.77-.71,2.1-.31,.09-2.46-2.48-2.29-2.73,.54-.79,1.32-1.53,2.18-1.5,1.39,.05,.4,1.45,.82,2.13Z"/>
  <path class="cls-8" d="M271.37,151.38c.42-.02,.85-.04,1.27-.05,.54,1.37,1.02,2.77,1.64,4.1,.36,.78,.12,1.27-.33,1.79-.24,.27-.48,.58-.87,.38-.57-.3-.67-.86-.68-1.5-.02-.97-.09-1.94-.14-2.91,.1-.59-.12-.92-.67-1.01-.07-.25-.14-.49-.22-.74,0,0,0-.05,0-.05Z"/>
  <path class="cls-14" d="M210.5,111.49c1.21-2.89,3.47-4.54,5.88-6.02,.22,.24,.44,.47,.66,.71-2,1.62-4.16,3.05-5.59,5.38-.32-.03-.63-.05-.95-.08Z"/>
  <path class="cls-8" d="M227.58,156.11c.8,1.13,1.5,2.06,2.15,3.04,.37,.56,.74,1.3,0,1.74-.74,.43-1.47,.11-1.82-.79-.47-1.17-.83-2.37-.32-3.99Z"/>
  <path class="cls-11" d="M206.02,82.73c.59-.27,1.1-.14,1.43,.45,.95,1.74,2.32,3.05,3.63,4.42-.03,.39-.06,.79-.09,1.18-2.35-1.34-3.8-3.56-4.97-6.05Z"/>
  <path class="cls-8" d="M164.09,164.52c-1.01,.23-2.05,.56-2.55-.1-.82-1.07-1.27-2.48-2.34-3.37,0,0,.16-.38,.29-.43,.23-.09,.61-.2,.74-.07,1.27,1.26,2.51,2.57,3.86,3.97Z"/>
  <path class="cls-8" d="M256.97,163.21c-1.1-.06-3.3-3.29-3-4.15,.27-.8,.74-.49,1.09-.08,.88,1.03,1.33,2.46,2.5,3.25,.15,.1,.21,.75,.15,.77-.29,.15-.64,.18-.75,.21Z"/>
  <path class="cls-8" d="M251.05,159.09c1.53,.45,1.79,1.96,2.77,2.67,.41,.3,.39,.89-.35,1.11-1.88,.56-2.63-.03-2.53-2.09,.02-.52,.07-1.03,.12-1.69Z"/>
  <path class="cls-8" d="M246.04,122.16c-2.84,.85-5.4,.46-7.45-2.09,.14-.25,.28-.5,.43-.75,.46-.01,.76,.27,1.04,.61,1.54,1.87,3.34,2.24,5.39,1.1,.43,.23,.62,.61,.59,1.13Z"/>
  <path class="cls-8" d="M277.77,161.08c-1.98,.91-2.65-.38-3.31-1.76-.27-.57-.17-1.06,.23-1.4,.44-.36,1-.15,1.28,.24,.63,.86,1.14,1.82,1.8,2.91Z"/>
  <path class="cls-8" d="M147.45,135.6c-.25-.91-.49-1.82-.74-2.73-.15-.54-.79-1.15-.18-1.6,.53-.39,1.33-.67,1.93-.54,1.09,.24,.47,1.55,.27,1.78-.79,.89-.68,2.03-1.29,3.1Z"/>
  <path class="cls-8" d="M267.99,127.97c-.62-1.22-1.15-2.25-1.75-3.44h3.2c-.29,1.21-.62,2.33-1.45,3.44Z"/>
  <path class="cls-8" d="M147.17,122.44c.32,1.91-.38,2.83-1.79,2.3-.63-.24-1.25-.53-1.87-.8,1.04-1.04,2.52-.76,3.66-1.5Z"/>
  <path class="cls-8" d="M196.23,121.65s-.02,.05-.02,.05c-1.05-.04-1.49-.7-1.49-1.79,0,0,.01,.16,.01,.16,1.06-1.54,2.46-.54,3.75-.76,.02,1.31-1.77,.55-1.56,1.89,0,0-.07-.01-.07-.01-.46-.26-.64-.07-.63,.46Z"/>
  <path class="cls-8" d="M272.54,161.84c-.66-.04-1.35,.21-1.22-.83,.11-.95,.64-2.02,1.3-2.04,.74-.03,1.38,1.06,1.39,1.98,.02,1.22-1.11,.46-1.46,.89Z"/>
  <path class="cls-8" d="M212.05,145.53c1.4,.22,3.38-.49,3.25,2.29-.04,.76-.2,1.1-.98,.56-1.01-.7-1.57-1.78-2.28-2.85Z"/>
  <path class="cls-8" d="M230.8,164.61c-1.49,.13-2.48,1.01-3.1-.26-.21-.43-.27-1.81,.47-1.96,1.27-.25,1.37,1.32,2.62,2.22Z"/>
  <path class="cls-14" d="M198.08,146.81c.6,1.28,1.9,2.06,2.16,3.58-.41,.18-.46,.57-.49,.97-1.35-.76-1.56-2.34-2.15-3.64,.37-.17,.45-.52,.47-.91Z"/>
  <path class="cls-8" d="M270.26,98.29c.18,1.85-.11,3.56-1.7,4.86,.38-1.67,.76-3.35,1.14-5.02,.19,.06,.37,.11,.56,.17Z"/>
  <path class="cls-8" d="M233.41,164.38c-.71,.54-1.24,.39-1.62,.13-.77-.54-1.18-1.44-1.42-2.4-.03-.11,.27-.45,.37-.43,.76,.19,1.27,.79,1.76,1.4,.31,.39,.58,.82,.91,1.3Z"/>
  <path class="cls-4" d="M234.36,105.25c.14-.51-.28-1.57,.84-1.25,.57,.16,1.66-.17,1.55,.94-.09,1.01-1.15,1.3-1.89,1.48-.75,.18-.47-.66-.5-1.17Z"/>
  <path class="cls-14" d="M147.17,122.44c-1.14,.74-2.63,.46-3.66,1.5-.42-.16-.72-.47-.91-.91,1.15-.8,2.45-1.09,3.77-1.32,.27,.24,.53,.48,.8,.72Z"/>
  <path class="cls-8" d="M221.51,144.46c2.96,.15,2.19,2.48,2.59,3.99-.77-1.18-1.54-2.37-2.59-3.99Z"/>
  <path class="cls-8" d="M142.69,176.42c-.18,.19-.36,.37-.54,.56-1.58-.35-2.58-1.45-3.15-3.2,1.23,.88,2.46,1.76,3.69,2.64Z"/>
  <path class="cls-8" d="M247.33,145.41c1.01-.05,1.17,.69,1.3,1.56,.14,.87,.39,1.71,.6,2.57-.2,0-.41,0-.61,0-.2-1.46-1.94-2.34-1.29-4.12Z"/>
  <path class="cls-8" d="M283.83,146.82c-.77-.83-1.81-.98-1.67-2.09,.08-.61,.91-.95,1.31-.7,.85,.53,.59,1.51,.36,2.78Z"/>
  <path class="cls-8" d="M173.16,145.16c1.31,.04,2.32-.53,2.92,.61,.51,.98-.29,1.83-1.03,1.19-.52-.45-1.01-.96-1.88-1.8Z"/>
  <path class="cls-8" d="M295.57,171.03c-1.39,.5-2.71,.37-3.94-.64,1.36-.21,2.68-.1,3.94,.64Z"/>
  <path class="cls-8" d="M183.3,162.04c.87,.75,2.13,1.01,2.67,2.39-2.03,.6-1.87-1.58-2.67-2.39Z"/>
  <path class="cls-8" d="M180.26,108.7c-.19,.19-.37,.39-.56,.58-1.2-.15-2.44,.07-3.59-.62,1.38-.31,2.76-.48,4.15,.04Z"/>
  <path class="cls-8" d="M217.49,128.44c-.62-.91-.85-1.77-.34-2.62,.06-.1,.5,.06,.76,.09-.14,.84-.28,1.69-.41,2.53Z"/>
  <path class="cls-14" d="M249,122c-.27,.06-.53,.11-.8,.17-.11-.58-.87-.85-.67-1.56,.09-.32,.4-.37,.69-.26,.75,.27,.78,.96,.79,1.65Z"/>
  <path class="cls-14" d="M211.34,87.75c.06-.75,.12-1.5,.18-2.25,.27,0,.54,.01,.8,.02-.07,.61,.53,1.27-.13,1.82-.28,.14-.57,.27-.85,.41Z"/>
  <path class="cls-8" d="M248.62,149.54c.2,0,.41,0,.61,0,.17,.6,.35,1.2,.52,1.8-.14,0-.28,0-.43,0-.6-.42-.74-1.07-.71-1.8Z"/>
  <path class="cls-14" d="M126.36,127.02c.55,.49,.86,1.1,.85,1.9-1.2-.14-.86-1.1-.85-1.9Z"/>
  <path class="cls-12" d="M170.97,180.19c1.19,0,2.38-.08,3.54,.31-1.19,.09-2.41,.47-3.54-.31Z"/>
  <path class="cls-12" d="M175.35,180.5c1.02-.42,2.07-.41,3.13-.3-.99,.72-2.07,.39-3.13,.3Z"/>
  <path class="cls-14" d="M289.49,129.4c0-.46,0-.92,.01-1.38,.34,.06,.69,.11,.73,.58,.06,.6-.31,.73-.75,.79Z"/>
  <path class="cls-8" d="M191.31,110.54c.03,.19,.06,.37,.09,.56-.34,.41-1.02,.71-1.14,.28-.19-.66,.6-.66,1.05-.83Z"/>
  <path class="cls-14" d="M127.12,124.36c.06,.69-.26,1.15-.75,1.52-.09-.71-.18-1.42,.75-1.52Z"/>
  <path class="cls-14" d="M270.26,146.07c-.4,.06-.79,.12-.82,.7-.58-.82,.12-1.08,.54-1.47,0,0,0-.07,0-.07,.1,.28,.19,.56,.29,.84Z"/>
  <path class="cls-14" d="M284.76,177.8c.71-.31,1.44-.44,2.2-.33-.66,.66-1.45,.34-2.2,.33Z"/>
  <path class="cls-9" d="M269.97,145.23s0,.08,0,.07c-.02-.14-.01-.28,0-.42,.11-.03,.21-.01,.29,.06-.08,.12-.18,.22-.31,.29Z"/>
  <path class="cls-14" d="M196.17,122.58c-.11,.61-.64,.61-1.01,.84,.04-.71,.45-.88,1.01-.84Z"/>
  <path class="cls-14" d="M137.21,116.6c-.09-.27-.17-.55-.26-.82,.3-.02,.69-.17,.82,.25,.16,.5-.28,.49-.56,.58Z"/>
  <path class="cls-14" d="M290.24,130.76c.02,.31,.04,.61,.06,.92-.31-.06-.71-.05-.65-.53,.02-.16,.38-.26,.59-.39Z"/>
  <path class="cls-14" d="M268.62,147.1c-.31-.23-.86-.14-.87-.77,.48,0,.83,.17,.87,.77Z"/>
  <path class="cls-14" d="M271.6,152.17c.54,.08,.77,.41,.67,1.01-.55-.07-.76-.42-.67-1.01Z"/>
  <path class="cls-14" d="M289.15,170.31c.39-.16,.78-.32,1.17-.49-.19,.73-.64,.72-1.17,.49Z"/>
  <path class="cls-14" d="M152.61,153.13c-.28-.29-.88-.21-.82-.88,.38-.17,.76-.34,1.14-.5,0,0,.02,0,.02,0-.11,.46-.22,.92-.33,1.38Z"/>
  <path class="cls-14" d="M140.78,178.71l.04-.8c.3,.03,.74-.08,.72,.43-.02,.5-.45,.37-.76,.37Z"/>
  <path class="cls-12" d="M203.97,150.34c.37,.69,.43,1.45,.36,2.22,0,0,.02-.04,.02-.04-.43-.67-.47-1.41-.38-2.19Z"/>
  <path class="cls-14" d="M270.87,158.63c.07-.47,.15-.93,.22-1.4,.05,.49,.12,.98-.22,1.4Z"/>
  <path class="cls-12" d="M246.72,81.98c-.47,.28-.97,.28-1.47,.17,.46-.43,.96-.33,1.47-.17Z"/>
  <path class="cls-12" d="M218.13,179.43c.32,.06,.64,.12,.96,.17-.34,.1-.67,.11-.96-.17Z"/>
  <path class="cls-12" d="M159.57,180.07c.31-.03,.62-.07,.92-.1-.31,.03-.62,.07-.92,.1Z"/>
  <path class="cls-14" d="M245.8,120.22c.01-.28,.02-.55,.03-.83,.31,.29,.27,.57-.03,.83Z"/>
  <path class="cls-14" d="M296.54,98.82c-.13-.03-.26-.05-.38-.08,.19-.33,.31-.25,.38,.08Z"/>
  <path class="cls-14" d="M295.71,101.56c-.05-.1-.11-.19-.15-.29-.01-.04,.03-.11,.04-.16,.04,.15,.07,.3,.11,.45Z"/>
  <path class="cls-14" d="M296.51,104.84c-.05-.19-.1-.37-.14-.56,.05,.19,.1,.37,.14,.56Z"/>
  <path class="cls-14" d="M296.72,107.89c-.09-.14-.09-.29,0-.43,.04,.1,.1,.2,.12,.31,0,.03-.07,.08-.11,.13Z"/>
  <path class="cls-9" d="M245.67,124.9c-.08,.12-.16,.25-.25,.37,.08-.12,.16-.25,.25-.37Z"/>
  <path class="cls-14" d="M292.72,127.11c.16-.08,.33-.17,.49-.25-.16,.08-.33,.17-.49,.25Z"/>
  <path class="cls-12" d="M234.38,129.17c-.2-.04-.39-.08-.59-.12,.2,.04,.39,.08,.59,.12Z"/>
  <path class="cls-14" d="M154.36,146.35c-.16,.16-.32,.31-.49,.47,.16-.16,.32-.31,.49-.47Z"/>
  <path class="cls-14" d="M128.85,147.61c.05,.1,.12,.19,.15,.3,.01,.04-.04,.11-.06,.16-.03-.15-.06-.31-.09-.46Z"/>
  <polygon class="cls-10" points="204.35 152.53 204.33 152.57 204.31 152.56 204.36 152.5 204.35 152.53"/>
  <path class="cls-12" d="M203.92,154.12c-.05-.16-.11-.32-.16-.47,.05,.16,.11,.32,.16,.47Z"/>
  <path class="cls-14" d="M271.09,154.16c-.18-.26-.27-.52-.05-.81,.02,.27,.03,.54,.05,.81Z"/>
  <path class="cls-14" d="M157.68,155.82c.13,.18,.26,.36,.38,.54-.13-.18-.26-.36-.38-.54Z"/>
  <path class="cls-12" d="M205.83,158.64c-.03-.15-.06-.3-.08-.45,.06,.1,.14,.19,.18,.3,.01,.03-.06,.1-.1,.15Z"/>
  <path class="cls-12" d="M225.22,179.9c.14-.02,.28-.05,.41-.07-.11,.23-.24,.27-.41,.07Z"/>
  <path class="cls-12" d="M179.64,180.09c.21,0,.41-.01,.62-.02-.21,0-.41,.01-.62,.02Z"/>
  <path class="cls-6" d="M230.44,179.15s-.05,0-.05,0c-.11,.28-.03,.47,.24,.56,0,0,0-.02,0-.02-.07-.18-.13-.36-.2-.54Z"/>
  <path class="cls-13" d="M225.22,66.28c-.02-.98,.61-1.19,1.31-1.46,7.89-3.02,15.77-6.08,23.65-9.13,6.68-2.59,13.36-5.2,20.04-7.78,7.67-2.97,15.34-5.92,23.02-8.87,2.73-1.05,5.47-2.08,8.2-3.13,.58-.22,1.17-.68,1.59,.25-10.53,4.03-21.07,8.04-31.59,12.11-10.41,4.03-20.81,8.12-31.21,12.18-5.01,1.95-10.01,3.9-15.02,5.85Z"/>
  <path class="cls-5" d="M186.02,88.36c-.58-.07-1-.13-1.41-.15-.57-.04-1.2-.11-1.45-.71-.31-.75,.42-1.08,.79-1.4,1.88-1.6,2.56-3.94,3.12-6.27,.58-2.4,1.73-4.45,2.9-6.48,2.2-3.82,6.53-4.57,9.7-1.82,.32,.28,.7,.57,.57,1.1-.12,.51-.56,.62-.97,.73-2.87,.76-4.57,2.71-5.55,5.8-.71,2.25-1.93,4.31-2.98,6.42-1.05,2.11-2.83,2.77-4.73,2.77Z"/>
  <path class="cls-3" d="M180.12,87.27c-1.34,.61-1.45,1.34-.39,2.5,.75,.82,2.09,.97,2.35,2.46-3.77,1.37-7.53,2.06-11.45,1.01-1.02-.27-2.22-.36-2.42-1.72-.2-1.37,.5-2.63,1.44-3.36,1.56-1.2,2.91-2.75,4.74-3.52,1.27-.67,2.52-1.38,3.95-1.6,.12,.17,.24,.33,.36,.5-.38,.17-.79,.29-1.15,.51-2.02,1.26-4.27,2.17-5.81,4.2-.66,.87-1.43,2.13-.24,2.96,1.41,.99,3.09,1.03,5.02,.45-.99-.87-1.78-.56-2.51-.61-.78-.06-1.77-.05-2.06-.78-.36-.92,.56-1.59,1.1-2.25,.22-.26,.58-.38,.86-.59,2.46-1.85,5.12-3.23,7.93-4.33,.38-.15,1.55-.07,.77-1.23,0-.17,0-.35,.01-.52,.96-.52,1.73-1.61,3.22-1.15-1.24,3.14-2.57,5.97-5.75,7.07Z"/>
  <path class="cls-3" d="M202.7,81.45c-.49-1.2-1.06-.88-1.65-.11-.15,0-.3,0-.45,0-.72-.53-1.35-.69-1.69,.46-1.53,.52-3.06,1.03-4.59,1.55-.31-.05-.93,.01-.73-.46,.86-2.06,.94-4.67,3.2-5.81,3.5-1.23,7.01-2.47,10.51-3.7,.1,.11,.21,.19,.34,.26,.13,.6,.27,1.21,.4,1.81-.52,.52-.29,1.2-.35,1.83-1.55,1.55-3.04,3.18-4.98,4.17Z"/>
  <path class="cls-3" d="M182.64,81.36c0,.17,0,.35-.01,.52-1.11,.44-2.22,.88-3.33,1.32l-.02-.56c.97-.9,2.2-1,3.36-1.28Z"/>
  <path class="cls-2" d="M179.28,82.64c0,.19,.01,.37,.02,.56-.2,.11-.39,.23-.59,.34-.12-.17-.24-.33-.36-.5,.31-.13,.62-.27,.93-.4Z"/>
  <path class="cls-7" d="M96.18,174.32c2.28-1.16,4.28,.5,6.41-.43-1.05-1.16-2.29-.85-3.34-1.11-.75-.18-1.48-.39-1.33-1.35,.19-1.2,1.05-.37,1.48-.27,5.8,1.31,11.6,.79,17.39,.07,3.03-.38,6.03-1,9.03-1.58,1-.19,1.56-.13,1.64,1.21,.06,.87,.32,1.86,.79,2.55,1.29,1.89,.35,2.35-1.19,2.69-9.73,2.14-19.57,2.19-29.43,1.96-.49-.01-1.32,.13-1.32-.67,0-.98,.82-1.06,1.54-1.03,.9,.05,1.8,.16,2.7,.15,.56,0,1.52,.39,1.57-.44,.06-.94-.91-.58-1.47-.64-1.41-.16-2.88-.03-4.48-1.12Z"/>
  <path class="cls-6" d="M226.87,62.63c-.16-.18-.32-.36-.48-.54,.16,.02,.31,.04,.47,.07,.04,.1,.1,.21,.12,.32,0,.04-.07,.11-.11,.16Z"/>
  <path class="cls-11" d="M208.03,75.45c-.13-.6-.27-1.21-.4-1.81,.31-.01,.63-.03,.94-.04,.44,1.07,1.07,2.06,1.18,3.27-1.15,.38-.95-1.23-1.72-1.41Z"/>
  <path class="cls-14" d="M205.59,71.32c-.02,.07-.04,.13-.06,.2,.03-.06,.05-.12,.08-.18,0,0-.01-.01-.01-.01Z"/>
  <path class="cls-3" d="M198.91,81.81c.34-1.14,.98-.99,1.69-.46-.51,.39-1.09,.49-1.69,.46Z"/>
  <path class="cls-11" d="M199.8,85.46c.42,.14,.7,.37,.47,.91-.48-.1-.52-.48-.47-.91Z"/>
  <path class="cls-14" d="M130.07,150.9c.29,.3,.86,.27,.87,.9-.54-.01-.87-.26-.87-.9Z"/>
  <path class="cls-11" d="M292.52,175.94c-.02-.43,.16-.61,.54-.55,.02,.42-.21,.54-.54,.55Z"/>
  <path class="cls-11" d="M251.94,153.6c-1.24,.49-.9-.84-1.29-1.34,.3,0,.6,0,.9-.01,.3,.39,.65,.76,.39,1.35Z"/>
  <path class="cls-11" d="M252.37,154.99c-.92-.17-1.02-.64-.42-1.37,.6,.29,1.17,.59,.42,1.37Z"/>
  <path class="cls-8" d="M196.23,121.65c-.02-.52,.17-.71,.63-.46,0,.18,.06,.41-.02,.53-.2,.3-.42,.09-.61-.08Z"/>
  <path class="cls-11" d="M173.72,122.71c-.24-.25-.48-.49-.72-.74,.51-.53,1.06-.87,1.74-.33,.34,1.14-.4,1.03-1.02,1.07Z"/>
  <path class="cls-11" d="M152.92,151.75c-.38,.17-.76,.34-1.14,.5-.37-.88-1.43-1.49-.87-2.73,1.02,.36,1.72,1.06,2,2.23Z"/>
  <path class="cls-11" d="M149.67,147.7c.84,.03,1.12,.49,.83,1.37-.94-.09-1.13-.4-.83-1.37Z"/>
  <path class="cls-11" d="M149.26,147.25c.15-.01,.29-.03,.44-.04-.01,.16-.02,.32-.03,.48-.16-.02-.33-.04-.49-.06,.03-.13,.06-.26,.09-.38Z"/>
  <path class="cls-11" d="M150.51,149.08c.15-.01,.29-.03,.44-.04-.01,.16-.02,.32-.04,.48-.16-.02-.33-.04-.49-.06,.03-.13,.06-.26,.09-.39Z"/>
  <path class="cls-11" d="M269.42,147.71c1.36-.05,1.05,1.26,1.38,2.05-.18,.23-.37,.46-.55,.68-.32-.89-1.29-1.55-.83-2.73Z"/>
  <path class="cls-14" d="M270.25,150.44c.18-.23,.37-.46,.55-.68,.41,.45,.52,1.01,.52,1.62-1.12,.73-.87-.41-1.07-.94Z"/>
  <path class="cls-11" d="M202.7,81.45c1.94-.99,3.43-2.62,4.98-4.17,1.45,.38,2.19,1.03,.73,2.44-.66,.64-1.37,1.21-2.07,1.81-.39,.34-1.03,.59-.33,1.26,.04-.08,.03-.16,0-.24-1.66-.26-2.23,1.72-3.62,2.11-.63,.17-1.14,.96-1.72-.02-.57-.97,.2-1.32,.69-1.8,.46-.45,.89-.92,1.34-1.38Z"/>
  <path class="cls-13" d="M178.71,83.54c.2-.11,.39-.23,.59-.34,1.11-.44,2.22-.88,3.33-1.32,.78,1.16-.39,1.08-.77,1.23-2.81,1.09-5.47,2.48-7.93,4.33-.28,.21-.64,.33-.86,.59-.54,.65-1.46,1.32-1.1,2.25,.29,.73,1.28,.71,2.06,.78,.73,.06,1.52-.25,2.51,.61-1.93,.58-3.61,.54-5.02-.45-1.18-.83-.42-2.09,.24-2.96,1.53-2.03,3.79-2.94,5.81-4.2,.36-.22,.76-.34,1.15-.51Z"/>
</svg>