<?xml version="1.0" encoding="UTF-8"?>
<svg id="Layer_1" data-name="Layer 1" xmlns="http://www.w3.org/2000/svg" viewBox="0 0 414 200">
  <defs>
    <style>
      .cls-1 {
        fill: #eeebe2;
      }

      .cls-2 {
        fill: #e7e2db;
      }

      .cls-3 {
        fill: #fff9b8;
      }

      .cls-4 {
        fill: #fff200;
      }

      .cls-5 {
        fill: #ece9e0;
      }

      .cls-6 {
        fill: #fbb040;
      }

      .cls-7 {
        fill: #6c6559;
      }

      .cls-8 {
        fill: #9ed2f1;
      }

      .cls-9 {
        fill: #91bfdc;
      }

      .cls-10 {
        fill: #666;
      }

      .cls-11 {
        fill: #baad98;
      }

      .cls-12 {
        fill: #c5beb8;
      }

      .cls-13 {
        fill: #45413c;
      }

      .cls-14 {
        fill: #534e4c;
      }

      .cls-15 {
        fill: #5a5755;
      }

      .cls-16 {
        fill: #4b4742;
      }

      .cls-17 {
        fill: #4e4a46;
      }
    </style>
  </defs>
  <path class="cls-13" d="M166.25,103.71c2.18,1.14,4.36,1.34,6.82,.8,6.68-1.46,13.34-.74,19.94,.79,1.18,.27,5.9-2.46,6.58-3.5,1.47-2.25,3.04-4.42,4.54-6.58-2.08-1.11-4.92-2.19-7.28-3.98-3.11-2.36-6.29-4.91-8.65-8.05-4.2-5.57-7.81-11.64-11.63-17.52-.19-.29-.1-.77-.14-1.16,.25-.17,.5-.34,.75-.52,1.93,3.12,3.88,6.23,5.79,9.36,3.52,5.78,7.47,11.19,12.62,15.41,3.25,2.66,6.78,4.93,11.31,5.26,0-2.24-.2-4.26,.06-6.22,.21-1.6-.51-1.98-1.61-2.31l.02-1.09c.34,.07,.67,.14,1.01,.21,.46,.03,.92,.07,1.37,.1,1.43-1.87,2.87-3.74,4.3-5.61,2.1-.25,.82-2.01,1.2-3.04,.62-.95,1.29-1.86,1.83-2.85,.31-.56,.4-1.24,.59-1.87l1.08-.02c.98,1.19,1.96,2.38,2.94,3.57-.24,.24-.48,.48-.72,.73-2.53-2.32-3.35-2.07-4.97,1.53-.08,.34-.17,.69-.25,1.03,.48,1.35,.68,2.94,1.48,4.01,2.34,3.14,5.6,4.82,9.32,4.89,6.36,.11,12.74,.2,19.07-.25,4.28-.3,8.51-1.54,12.76-2.36,0-.22,0-.45,0-.67-.98-.35-1.94-.91-2.94-1.03-7.3-.85-14.62-1.6-21.93-2.39-.42-.72-.85-1.44-1.27-2.16-.12-.41-.18-.86-.37-1.24-2.58-5.22-5.14-10.45-7.81-15.62-1.11-2.16-.37-4.69,1.88-5.27,2.68-.7,5.4-1.2,8.11-1.79,.3,.26,.59,.52,.89,.78,0,.17-.02,.34-.03,.51l.03-.02c-1.49,.36-2.97,.71-4.46,1.07l.03-.02c-1.69,.54-3.83-.1-4.91,2.09,.02,.24,.05,.48,.07,.71,.46,1.52,.92,3.04,1.39,4.57,.09,.19,.18,.37,.27,.56l2.98-.16c.22-.05,.45-.1,.67-.15,.88-.08,1.77-.16,2.65-.23-1.08,.74-2.16,1.48-3.71,2.54,.27,1.36,.51,3.21,1.01,4.98,.57,2,1.38,3.91,2.08,5.87,.17,.59,.33,1.17,.5,1.76h3.34c1.52-4.84,3.24-9.58,1.69-14.87-.82,.09-1.68,.18-2.55,.27-.29,.05-.58,.1-.87,.16-.49-.23-.99-.46-1.48-.69,.43-.12,.86-.23,1.28-.35,5.44-1.29,10.88-2.57,16.32-3.86,.8,.15,1.59,.31,2.39,.46-4.41,1.21-8.83,2.42-13.39,3.67v8.93c4.2,.85,8.24,1.83,12.33,2.44,2.85,.42,5.79,.6,8.66,.43,8.07-.46,16.1-1.26,24.08,1.21,1.9,.59,4.19-.09,6.28-.37,6.47-.88,12.88-.99,19.18,1.14,.53,.12,1.06,.24,1.59,.37,.22-.01,.43-.02,.65-.03,.73-.16,1.47-.32,2.2-.48,3.44-.18,6.88-.36,10.32-.54,.04,1.02,.04,1.03-1.02,1.09-3.19,.18-6.38,.35-10.18,.56,1.99,1.72,3.56,2.79,4.77,4.2,1.12,1.31,2.22,1.18,3.6,.89,2.33-.49,4.69-.82,7.04-1.22,.03,.25,.06,.5,.09,.74-.61,.19-1.22,.39-1.83,.58-7.43,2.2-14.86,4.39-22.29,6.59,0,.33,0,.65,0,.98,1.35,.45,2.67,1.01,4.05,1.33,10.83,2.5,20.6-2.59,30.98-5.35-2.11-1.16-4.22-2.32-6.33-3.48-.33-.26-.67-.52-1-.77,.15-.31,.29-.61,.44-.92,1.81,.88,3.68,1.66,5.42,2.68,1.77,1.04,3.42,2.31,5.13,3.48,.05-.26,.1-.53,.14-.79-.91-1.34-1.81-2.68-2.72-4.02,.17-.08,.34-.16,.5-.25,.36,0,.71-.02,1.07-.02,.13,.18,.27,.35,.4,.53,.13,.2,.26,.39,.39,.59,.55,.79,1.1,1.58,1.65,2.37,.11,.25,.22,.5,.32,.75,.14,.09,.19,.21,.14,.38,.17,.22,.33,.43,.5,.65,.48,.16,.95,.32,1.43,.47,0,.37,0,.75-.01,1.12-5.15-1.4-10.13-.62-15.53,1.37,2.79,1.76,5.14,3.4,7.63,4.78,5.04,2.79,9.91,5.78,13.3,10.84l1.88,.32c-.1,.33-.19,.67-.29,1-2.2,.53,0,1.16-.04,1.74,1.46,3.54,1.45,7.19,.67,10.89-.06,.21-.12,.41-.18,.62-1.1,4.06-3.44,7.27-6.07,10.32-.68,.79-.9,2.04-1.33,3.08,.12,.39,.23,.78,.35,1.17,0,1,1.31,2.18-.37,2.94-.36-.73-.79-1.43-1.08-2.18-.86-2.23-1.67-4.49-2.73-7.33-1.39,3.14-1.97,5.9-3.55,7.64-1.93,2.12-1.61,4.01-1,6.26-.34,0-.67,.01-1.01,.02-.31-.76-.62-1.52-.91-2.24-5,.96-5.79,1.85-6.03,6.84-.19,4.06-.3,8.13-.44,12.19-1.64,.74-1.5,1.62-.19,2.61-.76,1.75-1.52,3.49-2.28,5.24-.51-.1-1.03-.2-1.54-.3,.37-.54,.72-1.1,1.11-1.62,1.73-2.36,1.51-5.67-.48-6.83h0c2.29,.42,1.84-1.25,1.76-2.62,0-.58,.01-1.16,.02-1.73-.28-2.3-.57-4.61-.85-6.91-1.36-4.11-3.25-5.32-8.23-5.32-2.64,6.13-.22,12.04,.54,18.08,.78-.08,1.5-.15,2.22-.22,.33,.11,.67,.22,1.03,.33-6.86,3.16-13.58,6.26-20.6,9.49,3.55,2.6,7.14,2.46,10.71,2.45,.26,.31,.52,.61,.77,.92,0,0,0,.11,0,.11-1.44,.03-2.89,.05-4.33,.08-.22-.01-.43-.03-.65-.04-1.96-.48-4.21-.46-5.8-1.54-2.41-1.63-3.99-.28-6.38,.85,2.12,1.08,3.83,1.94,5.54,2.81-.23,.18-.45,.36-.68,.54-1.38-.47-2.86-.74-4.11-1.47-1.73-1.01-3.26-1.39-5.3-.84-3.45,.94-7.29,1.27-10.14-1.22-2.34-2.04-4-1.14-6.71,0,2.22,1.32,3.99,2.38,5.76,3.43-.2,.19-.39,.37-.59,.56-1.6-.75-3.17-1.59-4.8-2.23-1.28-.5-2.63-.96-3.97-1.08-4.26-.39-8.53-.61-12.8-.89,.26-.25,.53-.5,.79-.76,10.07,2.37,19.03-1.21,28.12-5.76-4.55-2.5-9.05-2.57-13.64-1.96,0-.36,0-.71,0-1.07,1.16-.21,2.33-.42,3.84-.69-.94-1.14-1.66-2.02-2.38-2.9,.66-.17,1.32-.33,2.71-.68-1.01-1.8-1.92-3.43-2.84-5.07-.4,1.1-.7,2.22-.33,2.97,.73,1.47,.06,2.11-.91,2.79-.33,1.13-.65,2.27-.98,3.4-.03,.46-.06,.93-.09,1.39-1.41,.35-2.82,.7-4.22,1.04-.22,.07-.44,.14-.67,.21-2.79,.96-5.58,1.92-8.37,2.88-.17,.1-.34,.19-.51,.29-.17,.09-.34,.17-.51,.26-.33-.71-.67-1.42-1-2.13-2.06-.44-4.16-1.41-6.16-1.21-4.7,.45-9.39,1.26-14.01,2.32-3.76,.86-7.39,2.29-11.08,3.47,0,.29-.02,.59-.02,.88,1.94,.79,3.87,1.58,5.81,2.37-.9,2.04-2.09,.21-3.13,.27l-.5-.24c-.84-.46-1.65-1.05-2.54-1.35-1.02-.35-2.11-.46-3.16-.67-.42,.61-.84,1.21-1.25,1.82-.95-.2-1.93-.66-2.85-.54-3.14,.4-6.26,1-9.39,1.52-.14,.02-.28,.03-.43,.05-1.68-.03-3.35-.05-5.03-.08-.49-.06-.98-.12-1.47-.18-2.71-.47-5.21-1.36-6.83-3.95,.49-.09,.97-.18,1.46-.27,1.92,2.57,4.81,2.8,7.5,3.52,.2,.02,.4,.04,.6,.06,1.17,0,2.34,0,3.51,0,.22-.03,.44-.07,.66-.1,.96-.13,1.93-.26,2.89-.39,.34-.04,.69-.08,1.03-.12,5.72-1.68,11.44-3.37,17.16-5.05,.01-.45,.03-.91,.04-1.36-2.88-.91-5.72-2.22-8.66-2.64-7.65-1.1-14.85,1.25-21.97,3.93-.75,.28-1.66,.07-2.49,.08,1.66-.88,3.32-1.76,5.7-3.02-2.25-.68-3.89-1.36-5.58-1.67-6.37-1.15-12.58,.17-18.66,1.93-3.56,1.03-7.94,.38-10.28,4.61-1.31-.31-2.67-2.11-3.9,.13-.17,.38-.34,.75-.51,1.13-.57-.33-1.15-.66-1.72-.99,0,0,.02,0,.03,0-4.21,1-8.38,2.25-12.64,2.92-3.92,.62-8.03,.44-10.97-2.87-1.38-1.55-2.15-1.26-3.29-.47,0,.93,0,1.67,0,2.42-2.03-1.71-4.1-1.09-6.42-.57-3.36,.75-6.87,.77-10.32,1.1,.16-.32,.33-.65,.49-.97,9.29,.13,17.44-4.23,25.96-7.4-3.68-1.71-7.5-2.24-11.39-1.75-3.07,.39-6.1,1.17-9.15,1.78,0-.35,0-.71,0-1.06,1.18-.35,2.33-.83,3.53-1.04,2-.35,2.75-1.39,2.91-3.63,.43-6.14-1.24-11.4-5.2-15.8-.94-1.04-2.24-2.26-3.44-2.34-1.46-.1-2.99,.92-4.64,1.51-.44,3.5,1.27,6.51,2.91,9.41,2,3.54,4.69,6.75,3.19,11.36-.26-.38-.52-.77-.78-1.15-.09-1.02,.06-2.15-.31-3.05-2.2-5.36-5.79-9.59-9.81-13.49-1.48-1.44-2.65-3.24-3.96-4.87,.11-.25,.23-.51,.34-.76,.93-.22,1.86-.44,2.78-.66-.83-2.08-1.83-3.94-2.29-5.95-.38-1.68-.97-2.36-2.6-2.7-1.79-.38-3.53-1.26-5.15-2.21-1.35-.79-2.48-2-3.81-3.09-1.69,3.51-1.17,6.74,.09,9.97-.32,.08-.63,.15-.95,.23-.12-.24-.24-.49-.36-.73-.47-1.68-.95-3.37-1.42-5.05,.07-.56,.13-1.12,.2-1.69,.04-.38,.09-.75,.13-1.13-.08-.15-.05-.27,.09-.36,.33-.55,.67-1.1,1-1.64,.18-2.6,.35-5.19,.53-7.79,.31,.36,.63,.73,.94,1.09-.39,2.54,.51,4.73,1.69,6.82,.7,1.24,1.35,1.41,2.46,.19,1.38-1.52,3.08-2.71,4.65-4.04,.03,.43,.06,.85,.09,1.28-1.58,1.55-3.17,3.11-4.75,4.66,.08,.35,.16,.69,.24,1.04,2.48,.44,5.2,1.8,7.37,1.12,3.47-1.08,6.57-3.51,9.9-5.41-.8-3.78-2.92-5.01-7.75-4.24-.04-.33-.09-.66-.13-.99,2.99-.31,5.62-1.69,8.2-3.2,.13-.08,.33-.02,.48-.06,7.65-2.1,15.32-2.01,23.01-.21,1.83,.43,3.68,.82,5.53,.99,3.25,.3,3.78-.39,3.18-3.77,.48,0,.96,0,1.44,0,.29,.67,.57,1.34,1.06,2.49,1.56-1.03,2.96-1.94,4.35-2.86-.07-.24-.15-.49-.22-.73-1.39-.34-2.78-.68-4.16-1.02,0-.33,0-.66,0-.99,.68,.11,1.37,.21,2.05,.32,.19,.03,.38,.07,.58,.1,3.01,1.21,6.01,2.46,9.04,3.61,3.11,1.18,6.21,2.4,9.4,3.26,.84,.23,2.62-.63,2.82-1.35,.28-.98-.3-2.52-.97-3.44-.81-1.11-2.06-1.89-3.2-2.68-5.93-4.08-12.36-6.93-19.23-8.67,.55-.23,1.09-.46,1.64-.69,.13-.08,.24-.06,.34,.06,.56,.15,1.13,.3,1.69,.45,.12-.07,.21-.04,.28,.09,.16,.04,.32,.09,.48,.13,.68,.23,1.36,.46,2.04,.69,.65,.24,1.3,.48,1.95,.72,.16,.08,.33,.17,.49,.25,.58,.23,1.16,.46,1.74,.7Zm90.32,14.28h.01c-.7-.16-1.39-.32-2.09-.48-3.43-.15-6.88-.52-10.3-.38-4.42,.18-8.28,4.25-8.08,8.31,.55,0,1.11-.02,1.67,0,7.21,.26,14.42,.53,21.63,.78,1.63,.06,3.25,.04,4.88,.06,.77-.26,2.46,1.27,2.08-1.21,.19-.79,.38-1.58,.57-2.37h1.5c-.13,.38-.25,.76-.38,1.13-.03,.18-.07,.36-.1,.53v2.03h25.95c-.18-3.29-2.21-6.54-5.51-6.99-4.91-.67-9.91-.62-14.87-.68-.96-.01-1.92,.84-2.89,1.29,.09-.69,.18-1.38,.28-2.1-1.88-.28-2.36,1.35-3.01,2.75-1.46,.14-2.93,.28-4.39,.41-.07,.36-.15,.73-.22,1.09-2.08-1.29-4.16-2.59-6.23-3.88l-.49-.28Zm.72,29.66l1.09,.42c-.24-.28-.47-.56-.71-.85-.31-.54-.63-1.07-.94-1.61-.77-1.01-1.53-2.02-2.3-3.03-.26,.24-.52,.48-.78,.72,.88,.93,1.76,1.85,2.63,2.77,.33,.52,.67,1.05,1.01,1.57Zm-12.6-3.37s-.02,.03-.02,.03c.03,.48,.06,.96,.09,1.44,.03,.52,.05,1.05,.08,1.57,.99,2.61,1.98,5.23,2.97,7.84,.48,.67,.96,1.33,1.45,2,.19,.37,.39,.75,.58,1.12,.14,.65,.61,1.58,.37,1.89-1.31,1.7-.12,2.73,.86,3.56,.73,.62,1.84,.72,2.79,1.05,.07-.25,.15-.5,.22-.75-.67-.59-1.35-1.16-1.98-1.8-.04-.04,.38-.6,.59-.91,2.16,1.72,4.33,3.44,6.48,5.17,1.07,.86,2.05,.98,2.93-.28,1.37-1.52,1.31-5.4-.1-6.84-.08-.11-.1-.24-.07-.38,.37-.58,.74-1.16,1.11-1.74,0,0,0,0,0,0,.06,.19,.12,.38,.18,.57,.37,2.6,.73,5.21,1.11,7.89,3.6-.9,7.85-.91,8.16-6.6,.03-.47,.42-.91,.64-1.37,.07-.35,.13-.69,.2-1.04,.09-3.27-.62-6.23-2.25-9.09-2.33-4.1-5.03-5.36-8.59-3.71,.51,3.34,1.44,6.55-.47,9.7l-1.12,1.68c-2.3-3.17-4.6-6.35-6.9-9.52-1.06-.99-2.12-1.97-3.11-2.89,1.41-.69,2.89-1.4,3.75-1.82-1.29-3.8-2.4-7.08-3.5-10.35,.39-2.12-.94-1.29-1.83-1.2,.12-.69,.24-1.37,.36-2.06-.25-.28-.5-.57-.75-.85-1.31,0-2.63,.09-3.93-.05-1.55-.16-2.52,.18-3.14,1.96-.99,2.86-2.48,5.52-3.42,8.38-.47,1.42-.2,3.12-.26,4.69,1.71,.02,3.45,.22,5.13-.02,.72-.1,1.36-1.07,1.97-1.72,.56-.59,1.02-1.28,1.53-1.93,.32,.05,.65,.1,.97,.15-.48,1.11-.95,2.22-1.34,3.11,.51,.75,1.01,1.49,1.52,2.22-.14,.11-.28,.22-.42,.33-.57-.21-1.14-.43-1.71-.64-.36,.14-.71,.28-1.07,.42,0,.26-.02,.52-.03,.79Zm-49.71,16.18l.08-.6c-.12,0-.23,0-.35,.01,.11,.18,.22,.37,.33,.55-.02,2.56,1.35,3.27,4.16,2.89-1.7-1.15-2.96-2.01-4.22-2.86Zm30.91,4.35c.2,.02,.39,.04,.59,.06-.11-.11-.22-.22-.33-.34-1.11-1.62-2.24-3.21-4.85-3.79,1.64,1.94,2,4.42,4.58,4.07Zm-66.93-17.02c.28,.07,.57,.14,.85,.21-.11-.23-.23-.47-.34-.7-.21-2-.41-3.99-.62-6.06-1.33,.23-2.55,.44-4.02,.69,1.5,2.12,2.81,4,4.13,5.87Zm48.24-14.45c.87-2.42,1.75-4.85,2.63-7.31h-5.98c.01-.41,.03-.81,.04-1.22,.37-2.35-.77-4.81-2.95-6.06-5.54-3.2-11.55-3-17.44-1.99-3.84,.66-5.54,3.77-5,7.76h16.93c0,.22-.02,.43-.02,.65-.78,.05-1.57,.1-2.35,.15-1.79,.05-2.16,1.19-1.89,2.82-.3,4.22-.8,8.39-3.44,11.84,2.81,1.63,5.99,1.03,8.02-1-1.28-3.82-2.48-7.42-3.69-11.01l.9-1.58c.06,.46,.12,.92,.18,1.39,.06,.22,.12,.44,.19,.66,.81,2.23,1.28,4.72,2.54,6.6,1.3,1.94,3.18,3.69,5.17,4.78,2.74,1.5,4.17,.42,3.75-2.86-.41-3.17-1.65-6.21-2.41-9.35-.35-1.47-1.15-1.97-2.45-1.93-.43-.08-.85-.15-1.28-.23-.63-.05-1.26-.11-1.9-.16,.02-.3,.05-.6,.07-.9,.77,.08,1.55,.16,2.32,.24,.79,.04,1.59,.07,2.38,.11,.45,.04,.91,.08,1.36,.12,.3,.68,.6,1.36,.91,2.03,.85,2.45,1.7,4.89,2.55,7.34,.4,.19,.81,.38,1.21,.58-.2,1.19-.53,2.37-.56,3.56-.02,.77,.16,1.88,.65,2.27,1.6,1.29,5.4,.58,6.4-1.36,1.3-2.51,2.1-5.31,3.29-7.89,1.08-2.34,1.75-4.64,.66-7.16,4.94,.28,9.89,.57,14.85,.85-.07-2.89-1.29-4.78-3.61-6.1-5.16-2.94-10.72-2.7-16.26-2.18-3.64,.34-6.34,2.77-6.71,6.93-.24,.16-.48,.31-.71,.47,.28,.19,.56,.37,.84,.56,.77-.01,1.53-.02,2.3-.03,.36-.08,.71-.17,1.07-.25,1.99-.09,3.98-.24,5.97-.23,.46,0,.91,.57,1.37,.87-1.23,.08-2.46,.16-3.68,.24l-1.02,.06-.76,.4c-.11,.2-.22,.4-.33,.6-.16,.5-.32,1-.48,1.51-.33,.54-.67,1.07-1,1.61-.37,1.21-.73,2.42-1.1,3.62-.29,.36-.59,.72-.88,1.08-.09,.19-.18,.38-.28,.56-.12-.49-.24-.99-.36-1.48Zm44.16-20.37c.01,.34-.08,.91,.06,.99,2.35,1.29,4.7,2.65,7.51,2.29-.06-3.09-4.69-8.73-7.22-8.87v4.39c-.18-1.56-.28-3.13-.57-4.67-.15-.78-.63-1.49-.96-2.23-.05-.25-.1-.51-.15-.76-.07-.27-.15-.53-.22-.8-1.72-4.22-3.49-8.42-5.14-12.67-.71-1.83-1.84-2.48-3.63-2.13-1.02,.2-2.07,.24-2.8,.32-.74,1.63-1.37,2.99-1.97,4.33,4,6.51,9.62,12.45,8.42,21.57,2.48,.36,4.32-.2,5.38-2.61,.43,.28,.85,.56,1.28,.85Zm-30.75,16.11c-.26-.52-.51-1.04-.77-1.56-.2,.57-.39,1.14-.59,1.71-1.05,3.72-2.11,7.44-3.23,11.42,3.15,1.98,6.06,.47,8.31-1-1.29-3.66-2.5-7.11-3.72-10.57Zm-31.08-4.17c-.21,0-.42,0-.63-.01-1.31,.08-2.63,.06-3.92,.26-.65,.1-1.55,.44-1.79,.96-.78,1.67-1.37,3.45-1.9,5.24-.56,1.9-.82,3.91-1.47,5.78-.8,2.32-.35,3.35,1.99,3.7,2.78,.42,5.36-1.2,6.21-4.26,.94-3.38,1.6-6.84,2.39-10.27,0-.33-.01-.66-.02-.98-.29-.13-.58-.27-.87-.4Zm-39.79,7.35c-.89-1.58-1.71-3.23-2.71-4.73-.61-.91-1.43-2.14-2.31-2.3-2.38-.41-4.83-.33-7.35-.45,.14,5.61,2.01,10.12,5.96,13.23,1.58,1.25,4.04,1.25,6.09,1.82,.09-1.89,.18-3.78,.28-5.67,0-.17,0-.35,.01-.52h2.16c.78-2.57,1.55-5.13,2.53-8.36-2.31,.61-4.14,1.09-5.46,1.43,.34,2.3,.57,3.92,.81,5.53Zm149.83-11.97c-.31-1.02,1.48-1.72,.38-2.86,.5,.09,1,.18,1.5,.27,.49-.08,.97-.16,1.46-.24,.52-.94,1.42-1.83,1.51-2.81,.57-6.41,.85-12.85-3.14-18.35-1.02-1.4-2.34-2.77-3.81-3.48-.79-.38-3,.43-3.17,1.11-.53,2.07-.97,4.56-.36,6.49,1.11,3.52,3.01,6.76,4.58,10.12-.01,.07-.05,.14-.04,.2,.04,.13,.1,.25,.15,.37,.1,.54,.21,1.07,.31,1.61-.48,0-.97,0-1.45,0-1.66-6.01-4.76-11.21-8.21-16.18-.67-.96-1.75-1.99-2.78-2.19-2.85-.55-5.77-.67-9.05-1.01,.49,1.96,.54,4.26,1.57,5.85,4.43,6.89,9.1,13.6,13.78,20.29,1.25,1.79,3.17,1.48,4.67-.49,.68,.44,1.37,.88,2.05,1.32-.78,1.91-1.57,3.82-2.48,6.05h25.73c.4-3.35-3.9-6.91-7.93-7.36-5.19-.58-10.3-.96-15.26,1.27Zm52.67,.84c.3-.7,.61-1.4,.91-2.1,.26-6.82-2.88-13.73-6.27-14.82-1.04,6.1-1.57,12.43-3.34,18.35-1.17,3.92-.49,6.61,1.63,9.46,2.57-1.36,5.87-6.46,7.06-10.89Zm-192.17,34.55c-.19-1.17-.37-2.34-.56-3.52,.86-1,2.87-1.96,.14-3.17-.23,.54-.43,1.02-.63,1.49-.33-.34-.7-.65-.98-1.03-1.96-2.69-3.88-5.43-5.9-8.08-.32-.42-1.11-.68-1.63-.61-1.22,.16-2.4,.56-4.29,1.03,.56,2.59,.47,5.91,1.91,8.08,2.71,4.08,5.37,7.92,4.99,13.47,2.31-.52,4.36-.98,6.42-1.44,.67-.73,1.34-1.47,1.95-2.12-.16,2.5,1.38,2.05,3.7,1.45-.98-1.39-1.66-2.53-2.53-3.47-.23-.25-1.03,.08-1.52,.14-.3-.62-.69-1.42-1.08-2.21Zm122.74,6.25c1.71,1.04,3.35,2.31,5.17,3.02,1.14,.45,2.69,.39,3.83-.08,.52-.21,.73-1.95,.69-2.97-.21-5.61-3.29-9.8-6.3-14.02-1.78-2.49-3.78-4.32-7.04-3.72-.55,.1-1.24-.65-1.87-1.01-.51-.35-1.03-.7-1.54-1.05-.36,1.01-.94,2-1.03,3.03-.42,4.95,1.34,9.04,4.58,12.53,1.23,1.32,2.31,2.81,3.46,4.22-1.27-.63-2.54-1.26-3.89-1.92-.44,1.79,.15,2.74,1.94,3.25,1.31,.37,1.74-.14,1.99-1.28Zm-142.37-1.56c1.7,1.16,3.45,2.24,5.08,3.49,1.96,1.5,4.23,1.34,5.61-.14,.87-.93,.9-3.59,.34-5.05-2.66-6.94-7.55-12.02-13.08-16.44-1.68-1.34-5.58-.69-6.1,1.07-.4,1.35-.56,3.07-.12,4.35,1.48,4.31,3.94,7.98,7.23,11,.45,.41,.68,1.11,1,1.67-.95-.3-1.91-.61-2.8-.89-.16,2.97,.76,3.88,3.47,3.23-.21-.76-.42-1.53-.64-2.3Zm20.57-13.57c.91,2.36,1.83,4.72,2.74,7.08-.71-.4-1.42-.8-2.72-1.53,.83,1.67,1.41,2.83,1.99,3.99,.21-.07,.42-.13,.64-.2,.19-.63,.37-1.25,.56-1.88,3.38,4.14,7.07,7.91,11.54,10.72,1.84,1.16,5.18,.21,5.18-1.61,0-1.86-.12-4-.97-5.51-1.92-3.4-4.2-6.61-6.57-9.68-3.33-4.3-7.16-7.75-13.16-6-.03,.68-.07,1.53-.1,2.38,.3,.75,.59,1.5,.89,2.24Zm90.71-45.7c-1.19,2.75,.18,3.82,2.49,4.26,1.8,2.41,3.6,4.81,5.39,7.22,1.33,1.8,2.53,3.74,4.03,5.37,.68,.74,2.08,1.35,2.93,1.11,.86-.24,1.77-1.47,2.1-2.48,.41-1.27,.39-2.76,.31-4.13-.36-5.94-3.33-10.64-6.57-15.19-.81-1.13-1.68-2.79-2.75-3.03-3.36-.74-6.84-.91-10.96-1.37,1.09,2.94,2.07,5.59,3.04,8.24Zm-38.81-20.83c-1.28,1.59-2.51,2.54-2.97,3.81-.87,2.42-1.83,5.03-1.81,7.55,.06,6.64,.58,13.28,1.01,19.91,.07,1.17,.3,3.06,.91,3.3,1.1,.42,2.92,.36,3.78-.38,6.47-5.56,7.48-16.78,4.57-23.32-1.59-3.56-3.5-6.96-5.49-10.87Zm4.75,6.94c2.31,3.81,4.03,7.48,6.46,10.51,4.57,5.67,9.52,11,14.38,16.4,.75,.83,1.86,1.28,2.81,1.9,.64-1.33,1.42-2.61,1.88-4.02,.25-.76,.04-1.73-.12-2.58-1.22-6.31-4.85-11.15-8.67-15.85-1.74-2.14-3.47-4.36-6.43-4.75-3.13-.41-6.25-.98-10.3-1.62Zm-.52,55.85c.07,1.52-.14,3.14,.26,4.57,1.24,4.34,2.84,8.57,6.06,11.73,2.82,2.77,5.73,5.46,8.81,7.89,1.74,1.37,5.16,.22,5.17-1.5,.02-1.95,0-4.18-.82-5.81-3.29-6.49-7.71-12.1-13.01-16.88-.45-.4-1.12-.8-1.66-.76-1.53,.12-3.03,.47-4.82,.77Zm85.32-50.17c1.16,2.85,2.24,5.59,3.37,8.3,2.91,6.97,8.38,11.8,13.01,17.31,1.18,1.41,3.39,2.57,5.02,.9,.83-.84,1.11-3.13,.67-4.38-1.28-3.65-2.91-7.17-4.66-10.6-1.1-2.15-2.6-4.09-4.03-6.03-.98-1.32-1.96-3.16-3.27-3.58-3.14-1-6.48-1.29-10.1-1.93Zm-113.94,49.63c.45,4.37,1.69,8.27,4.04,11.78,3.03,4.54,6.85,8.16,11.32,10.98,2.35,1.49,4.85-.06,5.02-2.8,.2-3.31-1.11-6.28-2.76-8.67-2.63-3.83-5.94-7.15-9.09-10.55-.77-.84-2.03-1.58-3.09-1.62-1.66-.07-3.34,.5-5.44,.87Zm-16.49-36.46c2.55,2.15,5,4.32,7.56,6.32,.66,.51,1.65,.63,2.51,.74,3.33,.43,6.73,.47,9.97,1.26,3.46,.84,6.85,2.17,10.11,3.67,1.65,.76,3.97,.74,4.99-1.03,1.11-1.94,.16-3.19-1.43-4.24-5.32-3.5-10.94-5.99-17.2-6.93-5.58-.84-11.07-1.05-16.52,.21Zm103.78-15.98c12.37,6.3,23.72,.42,35.24-3.54-12.36-6.56-23.83-2.04-35.24,3.54Zm8.52-5.86c-13.12-2.74-25.64,1.07-38.46,3.84,3.99,3.84,8.55,5.16,14.8,4.51,8.44-.88,15.91-4.95,23.66-8.35Zm-110.52,82.77c0-.34,.01-.67,.02-1.01-1.67-1.88-3.91-2.93-6.23-2.8-4.87,.27-9.79,.64-14.55,1.68-4.59,1-9,2.91-14.25,4.68,1.48,1.29,2.27,2.49,3.28,2.75,2.19,.56,4.61,1.27,6.73,.81,8.38-1.81,16.67-4.04,25-6.11Zm9.14-2.85c1.11-.19,2.22-.56,3.32-.52,2.23,.08,2.99-1.53,3.24-3.3,.8-5.79-.07-11.32-4.23-15.41-2.58-2.54-5.63-5.18-10.37-2.92,.65,2.76,.62,6.12,2.12,8.24,2.98,4.19,5.25,8.48,5.92,13.91Zm159.33-42.7c-1.95-.55-3.48-1.09-5.05-1.37-.59-.11-1.49,.18-1.87,.64-1.04,1.27-2.02,2.64-2.77,4.12-1.41,2.79-2.62,5.69-3.96,8.52-1,2.1-.99,5.45,.11,6.48,1.75,1.65,4.52,1.6,6.67-.51,5.05-4.95,5.82-11.73,6.88-17.88Zm-65.78-16.93c-.24-2.26-.32-4.72-.78-7.08-1.18-6.03-2.8-6.96-8.09-4.85-.58,.23-1.23,.87-1.44,1.47-.98,2.85-.73,5.56,.86,8.19,2.21,3.65,3.75,7.56,3.62,12.05-.02,.83,.4,1.68,.62,2.52,.89-.28,2.04-.28,2.59-.9,.83-.92,1.56-2.2,1.78-3.44,.46-2.55,.57-5.18,.84-7.97Zm25.43,40.07c.21,1.07,.25,2.33,.71,3.39,2.11,4.89,4.6,9.48,8.35,13.27,2.27,2.29,2.7,2.54,5.68,1.08,2.4-1.17,1.39-3.24,1-4.72-1.76-6.66-5.37-11.9-11.32-15.06-.34-.18-.93-.09-1.3,.1-1,.53-1.94,1.19-3.12,1.93Zm-62.38,21.63c2.95-.51,4.29-2.09,5.03-5.6,1.61-7.63-.69-13.5-6.85-17.73-.93-.63-4.5,.16-4.5,1.2-.02,3.05-1.04,6.37,1.04,9.05,2.94,3.79,4.61,8.09,5.28,13.07Zm-91.48-42.15c.23-3.82-1.52-6.36-4.64-6.77-4.28-.56-8.61-.89-12.92-1.04-3.86-.13-6.9,1.31-7.66,5.92-.12,.71-.34,1.41-.51,2.12,.69,.09,1.39,.28,2.08,.24,4.66-.28,9.31-.74,13.98-.88,3.17-.09,6.35,.25,9.68,.41Zm68.27,39.72c.89-4.91,.91-9.56-.32-14.16-1.29-4.84-4.5-7.44-8.91-7.32-.54,1.84-1.22,3.66-1.56,5.56-.15,.85,.33,1.87,.66,2.76,1.65,4.47,5.28,8.29,3.67,14.02,2.28-.31,4.28-.57,6.46-.87Zm-65.58-39.89h24.97c-.04-2.67-1.49-4.49-3.68-5.7-4.53-2.5-9.44-2.7-14.35-2.2-4.11,.42-6.24,3.16-6.94,7.9Zm143.54,40.05q4.31-1.02,5.72-4.98c.06-.16,.13-.31,.2-.47,1.85-3.92,1.17-9.88-1.64-13.02-.78-.87-1.95-1.68-3.02-1.82-1.51-.19-3.09,.29-4.89,.51,0,2.4-.77,5.5,.17,7.83,1.55,3.83,3.4,7.46,3.46,11.94Zm-13.45,6.89c3.33,3.38,7.12,3.65,10.56,2.4,6.67-2.42,13.12-5.52,19.65-8.37,.14-.06,.17-.41,.37-.95-11.3-2.91-20.49,3.41-30.59,6.91Zm55.68-74.03c0,3.99-.15,7.55,.04,11.09,.17,3.21,.57,6.42,1.14,9.57,.42,2.36,3.07,3.13,4.42,1.31,.91-1.23,1.78-2.79,1.94-4.29,.39-3.71,.4-7.47,.46-11.21,.01-.7-.26-1.75-.74-2.07-2.29-1.53-4.69-2.87-7.26-4.4Zm-79.3-19.2c1.53,1.19,3.17,2.25,4.56,3.6,1.29,1.25,2.5,1.77,4.32,1.5,6.75-1.01,13.51-1.52,20.2,.64,.97,.31,2.12,.04,3.38,.04-3.26-7.52-21.82-7.88-32.47-5.78Zm68.64,42.38c1.01-.6,1.86-.78,2.07-1.28,.75-1.76,1.55-3.58,1.85-5.47,1.15-7.02-1.29-13.04-5.01-18.62-.86-1.3-3.34-1.38-3.64-.02-.79,3.59-1.84,7.29,.61,10.72,2.91,4.09,4.67,8.59,4.11,14.66Zm-105.12,5.62c1.24,3.68,1.98,7.01,3.44,9.92,1.43,2.83,3.45,5.55,6.63,6.35,1.27,.32,3.08,.12,4.03-.67,.59-.5,.42-2.74-.08-3.87-1.46-3.31-3.19-6.49-4.96-9.62-.44-.78-1.42-1.53-2.25-1.67-2-.33-4.05-.29-6.82-.45Zm31.46,1.28c-.27,.23-.53,.46-.8,.7,1.15,3.34,1.97,6.88,3.56,9.96,1.52,2.94,4.21,4.77,7.64,4.59,2.11-.11,3.49-2.06,2.69-3.85-1.51-3.38-3.11-6.71-4.73-10.03-.18-.36-.71-.7-1.1-.74-2.42-.26-4.85-.43-7.27-.63Zm-116.94-2.14c-1.91,.14-3.57,.09-5.15,.46-.81,.19-1.96,1.01-2.11,1.75-.88,4.16-1.55,8.37-2.16,12.58-.08,.54,.54,1.49,1.07,1.76,2.04,1.05,5.5-.42,6.5-2.62,1.96-4.32,2.24-8.89,1.85-13.93Zm146.86,2.62c1.36,3.68,2.18,6.94,3.72,9.76,1.44,2.63,3.54,4.98,6.66,5.53,.77,.13,1.96,0,2.35-.54,.52-.7,.83-2.05,.56-2.86-.83-2.47-2.41-4.73-2.9-7.25-.77-3.97-3.13-4.52-6.21-4.4-1.05,.04-2.1-.11-4.18-.24Zm-115.9-2.33c-.2,5.78,2.65,12.14,7.16,14.38,2.88,1.43,5.04,.25,4.45-3-.63-3.47-1.44-7.29-3.39-9.96-1.11-1.52-4.65-1.02-7.09-1.42-.32-.05-.64,0-1.12,0Zm142.89,2.01c-2.31,.11-3.93,.22-5.55,.26-1.38,.04-2.46,.19-2.87,2.04-.62,2.76-1.66,5.4-2.35,8.14-.37,1.46-.99,3.73-.36,4.38,.88,.9,3,1.17,4.27,.71,1.44-.52,3.12-1.9,3.64-3.34,1.34-3.76,2.1-7.75,3.23-12.19Zm-30.43,.02c-2.34,.14-4.37,.21-6.39,.44-.44,.05-1.1,.55-1.22,.98-1.1,3.95-2.17,7.91-3.06,11.92-.14,.63,.5,1.87,1.09,2.21,1.94,1.09,5.24-.24,6.43-2.22,2.37-3.94,2.77-8.37,3.14-13.33Zm37.79-42.24c-2.83-6.68-17.4-9.2-29.17-6.34,.87,.79,1.93,1.33,2.34,2.21,.94,2.03,2.29,1.93,4.05,1.66,6.01-.92,11.98-.73,17.41,2.52,2,1.2,3.58,1.21,5.37-.05Zm-3.53,42.56c-.38,6.01,3.07,12.47,7.14,14.2,1.95,.83,3.76,1.08,5.09-.75,1.42-1.94,.23-3.88-.77-5.54-1.43-2.38-3.08-4.61-4.96-7.38-1.62-.13-3.97-.33-6.5-.54Zm-149.66-2.43c-2.24,0-4.43-.06-6.61,.05-.41,.02-1.01,.62-1.14,1.07-1.08,3.79-2.08,7.61-3.08,11.42-.45,1.72,.27,2.59,1.89,2.9,3.37,.66,5.94-1.27,7.12-5.7,.82-3.05,1.18-6.24,1.81-9.75Zm-44.17,2.07c-1.65,.71-3.04,1.2-4.33,1.9-3.94,2.13-4.68,4.62-2.3,8.61,.77,1.3,2.11,2.55,3.44,3.04,1.58,.59,3.7,.92,5.06,.22,.76-.39,.85-3.18,.57-4.76-.52-2.93-1.52-5.75-2.44-9.02Zm96.63-12.36c6.54,1.33,10.59-2.56,12.7-7.17,.76-1.66,.23-2.81-.83-3.93-.8-.85-1.62-1.67-2.39-2.54-1.06-1.19-2.08-2.42-3.12-3.63-.21,.08-.43,.15-.64,.23,.46,6.45-1.43,12.04-5.71,17.04Zm45.61-31.2c.05-.3,.09-.6,.14-.91-6.77-6.1-15.09-7.2-23.72-8.04-.31,1.63-.58,3.1-.9,4.78,2.43,.18,4.55,.25,6.65,.51,5.08,.62,10.25,.82,14.91,3.59,.75,.45,1.94,.06,2.92,.06Zm-30.85,24.19c-1.62,2.07-2.94,3.65-4.12,5.34-.21,.3-.04,1.29,.26,1.55,1.92,1.68,3.9,3.29,5.92,4.84,1.35,1.04,3.24,1.69,4.11,.08,.63-1.16,.36-3.53-.39-4.73-1.57-2.52-3.72-4.62-5.79-7.08Zm46.16,8.05c3.57,.86,7.43,2.12,11.48,.45-1.34-4.6-6.22-7.99-9.97-8.92-.47,2.66-.95,5.33-1.51,8.46Zm51.68,5.42c1.88,0,3.33,.39,4.44-.1,1.34-.6,2.75-1.74,3.44-3.05,.41-.79-.56-2.34-.79-3.58-.19-1.02-.22-2.08-.29-3.12-.15-2.22-.27-4.44-.43-7.17-2.48,1.82-3.37,4.07-3.58,6.68-.26,3.29-.31,6.61-2.79,10.34Zm3.28-15.89c.99-1.1,2.58-2.13,3.01-3.54,.52-1.71,.69-4.18-.12-5.57-1.03-1.75-3.07-3.06-4.93-3.91-1.03-.47-2.6,.38-3.86,.62,1.96,4.12,3.85,8.08,5.9,12.4Zm-124.24,6.3v-9.35c-4.3,.19-8.08,1.23-11.48,4.04,3.81,1.76,7.4,3.43,11.48,5.31Zm74.47,21.59c-1.3,2.14-2.85,4.28-3.94,6.65-.9,1.97-.04,3.26,2.1,3.17,2.38-.09,4.75-.68,7.25-1.08-1.84-2.98-3.4-5.5-5.41-8.75Zm29.85,.17c-1.51,2.42-3.05,4.72-4.36,7.15-.17,.32,.66,1.75,1.25,1.96,2.82,1.02,5.48,.23,7.95-1-1.57-2.62-2.98-4.99-4.84-8.11Zm-147.21-4.44c-1.05,3.49-2.2,7.34-3.35,11.18,2.59,1.4,5.29,.91,8.06-1.35-1.64-3.42-3.26-6.81-4.71-9.84Zm67.03-.61c1.85,3.5,3.36,6.36,5.07,9.6,1.41-3.69,2.68-7,4.24-11.08-3.49,.55-6.25,.99-9.31,1.47Zm75.47-19.38c-.29,.17-.58,.34-.86,.51,.29,2.35-.21,5.59,1.05,6.86,1.96,1.97,5.18,1.4,7.9,1.2,.09-.27,.18-.53,.27-.8-2.79-2.59-5.57-5.18-8.36-7.77Zm19.46,27.02c1.44-3.69,2.71-6.97,3.99-10.26-.14-.18-.27-.37-.41-.55-1.89,1.02-3.69,2.38-5.69,2.99-2.68,.82-1.95,2.25-.97,3.79,.87,1.37,1.96,2.58,3.08,4.02Zm-205.73-9.48c1.12,4.63,2.18,8.98,3.12,12.85,.78-4.07,1.66-8.66,2.63-13.69-2.19,.32-3.99,.58-5.75,.84Zm149.01,.91c-2.8,.88-4.86,1.53-7.31,2.3,1.58,2.91,2.84,5.23,4.32,7.96,.99-3.4,1.86-6.37,2.99-10.26Zm-135.07,13.63c2.28-.69,4.48-1.36,6.71-2.04-1.74-2.88-3.16-5.23-4.62-7.66-.67,3.12-1.3,6.04-2.08,9.71Zm167.98,20.89h6.76c-1.84-2.39-3.53-4.59-5.21-6.79-2.28,1.93-2.57,3.24-1.55,6.79Zm-6.01-24.72c1.12-3.56,1.98-6.33,2.85-9.1-.19-.18-.38-.36-.57-.55-2,.68-4,1.37-6.09,2.09,1.33,2.64,2.44,4.85,3.81,7.56Zm34.95-13.79c-3.25-1.14-5.49-4.1-8.91-1.71,.67,1.5,1.34,3.03,2.01,4.53,2.19-.9,4.23-1.73,6.9-2.83Zm-124.32-26.69c-2.69,.07-4.97,2.15-5.63,5.05,1.91-.33,3.77-.65,5.63-.96v-4.08Zm-75.33,65.92c1.21,0,2.1,.02,2.99,0,.32,0,.63-.13,.93-.19-.09-3.32-1.03-4.7-3.69-5.37-.08,1.79-.15,3.58-.24,5.57Zm45.22-34.69c.67,2.09,1.19,3.72,1.87,5.83,.88-2.72,1.58-4.91,2.29-7.1-.2-.2-.4-.4-.6-.6-1.25,.66-2.51,1.32-3.56,1.87Zm79.25,13.91c.68,3.16,2.88,5.63,4.77,5.34-.35-4.13,1.04-3.34-4.77-5.34Zm73.89,.42c-1.2-.65-2.09-1.14-2.96-1.61q-2.04,2,.98,5.96c.62-1.37,1.24-2.74,1.98-4.35Zm-199.52,6.35v-5.9c-1.47,.08-2.76,.16-4.2,.24,1.46,1.96,2.7,3.64,4.2,5.67Zm113.81,16.67c1.75-.22,3.14-.39,5.32-.66-1.43-1.94-2.43-3.31-3.78-5.16-.61,2.33-1.01,3.82-1.54,5.82Zm-123.78-43.34c1.04-1.74,1.91-3.2,2.77-4.66-.09-.18-.17-.36-.26-.53-1.88,.82-3.76,1.63-5.82,2.52,1.35,1.09,2.28,1.84,3.31,2.67Zm198.59-27.59c-1.51,.14-2.8,.27-4.61,.44,1.42,1.88,2.5,3.3,3.79,5.02,.3-2,.53-3.53,.81-5.46Zm-95.38,47.2c1.67,1.66,3.15,3.13,4.83,4.8-.59-5.26-1.79-6.45-4.83-4.8Zm58.06-34.27c-1.39-2.2-2.6-4.13-4.1-6.5q-.27,4.77,4.1,6.5Zm-90.18,51.04c-.35,.06-.71,.12-1.06,.18-.11,1.51-.22,3.01-.33,4.52h3.42c-.77-1.79-1.4-3.25-2.03-4.7Zm117.08-24.39c3.49-1.73,2.65-3.12,1.34-6.44-.42,2.02-.84,4.04-1.34,6.44Zm-90.42,25.03c-.18,2.14-.29,3.46-.43,5.08,1.17-.1,2.05-.18,3.53-.3-1.12-1.72-1.89-2.92-3.1-4.78Zm76.76-32.86c.17,.04,.34,.08,.5,.13,.44-1.4,.89-2.81,1.43-4.54-1.28,.13-2.24,.24-3.43,.36,.44,.99,.74,1.57,.96,2.18,.22,.61,.36,1.25,.54,1.87Zm-94.61,18.5c-.72-4.66-1.88-5.55-4.48-3.77,1.42,1.19,2.82,2.38,4.48,3.77Zm79.69-17.09c-.24,1.98-.48,3.95-.73,6.02,3.7-1.49,1.7-3.84,.73-6.02Zm-64.92,18.04l.62-.36c0-.84,.27-1.85-.07-2.47-.37-.65-1.32-.94-2.05-1.29-.06-.03-.73,.91-.64,1.07,.64,1.06,1.42,2.04,2.15,3.04Zm18.92-53.12c.35-.25,.69-.5,1.04-.75,.19-.84,.38-1.68,.61-2.65h-3.43c.65,1.23,1.22,2.32,1.78,3.4Zm-46.99,48.42c-1.16,.47-1.93,.79-3.08,1.26,1.16,1.11,2,1.92,3.31,3.17-.1-1.86-.15-2.93-.23-4.43Zm18.36,1.05c-.21-.22-.42-.43-.63-.65-1.03,.23-2.06,.46-3.2,.72,.24,.78,.46,1.48,.9,2.93,1.18-1.21,2.05-2.11,2.93-3Zm86.59-48.07c-1.12,.16-1.93,.27-3.3,.47,1.16,1.36,1.94,2.27,3.06,3.57,.1-1.67,.16-2.67,.25-4.04Zm-105.87,21c-.02-.16-.04-.32-.06-.47-1.51,0-3.03-.05-4.53,.04-.31,.02-.59,.58-.89,.9,.36,.22,.75,.67,1.06,.61,1.48-.28,2.95-.7,4.42-1.08Zm-43.37,24.53c-.28,.26-.56,.52-.85,.77,.52,.89,1.05,1.78,1.57,2.68,.43-.4,.86-.8,1.29-1.21-.67-.75-1.34-1.5-2.01-2.25Zm121.64-46.23c-1.39,.39-2.18,.61-2.43,.68,.52,.96,.98,1.83,1.63,3.04,.29-1.33,.48-2.23,.8-3.72Zm-6,23.92c-.02,.25-.03,.51-.05,.76,.75,.37,1.51,.73,2.97,1.44-.41-1.33-.48-2.36-.8-2.46-.63-.19-1.41,.14-2.12,.26Zm26.76,26.74c-.06-.14-.1-.34-.19-.38-.1-.04-.25,.07-.38,.12,.08,.16,.16,.33,.24,.49,.11-.08,.22-.15,.33-.24Z"/>
  <path class="cls-3" d="M225.06,64.01c-.46-1.52-.92-3.04-1.39-4.57,1.19-.3,2.38-.57,3.56-.9,18.58-5.18,37.16-10.4,55.75-15.56,11.5-3.19,23.03-6.31,34.54-9.45,1.35,.33,2.98,1.82,3.58-.97,5.97-1.69,11.95-3.37,17.92-5.09,5.49-1.58,10.97-3.22,16.46-4.84,1.84-.37,3.68-.75,5.52-1.12,0,.26-.04,.54,.01,.78,.48,2.12,.98,4.24,1.47,6.36-15.81,4.27-31.64,8.5-47.44,12.83-13.26,3.64-26.49,7.41-39.74,11.11-8.68,2.42-17.37,4.82-26.05,7.23-5.44,1.29-10.88,2.57-16.32,3.86-.42,.11-.83,.21-1.25,.32h-.04c-.88,.09-1.77,.17-2.65,.25-.22,.05-.45,.1-.67,.15-.99,.05-1.99,.11-2.98,.16-.09-.19-.18-.37-.27-.56Z"/>
  <path class="cls-8" d="M205.35,85.51c1.09,.33,1.82,.7,1.61,2.31-.26,1.96-.06,3.98-.06,6.22-4.53-.32-8.06-2.59-11.31-5.26-5.15-4.22-9.1-9.64-12.62-15.41-1.91-3.13-3.86-6.24-5.79-9.36-1.78-4.03-3.66-8.02-5.32-12.11-1.89-4.65-3.56-9.41-5.37-14.1-.22-.57-.72-1.03-1.08-1.53-1.31-4.19-2.62-8.38-3.94-12.57,1.96-.67,3.9-1.44,5.9-1.97,.77-.2,1.68,.16,2.52,.26,.69,2.35,1.23,4.76,2.09,7.03,2.97,7.86,5.93,15.74,9.15,23.48,1.7,4.1,3.8,8.03,5.97,11.88,1.73,3.07,1.86,3.81-.31,6.53-1.16,1.45-1.6,2.98,.37,3.95,1.73,.85,3.64,1.28,5.43,2,1.14,.46,2.36,.93,3.29,1.74,2.99,2.58,5.59,5.75,9.49,6.92Z"/>
  <path class="cls-17" d="M109.31,140.78c-.11,.25-.23,.51-.34,.76-2.85-.22-5.69-.44-8.65-.68-.03,3.16,1.64,6.05,3.48,8.53,2.62,3.54,5.67,6.76,8.82,9.79,2.24,2.15,4.91,3.81,7.45,5.57,.34,.23,1.17-.1,1.64-.4,.52-.33,.9-.93,1.34-1.4,.26,.38,.52,.77,.78,1.15,.25,.18,.5,.35,.75,.53,0,.35,0,.71,0,1.06-3.5,1.61-7.01,3.22-10.51,4.83,.03,.32,.07,.64,.1,.97,1.66,.53,3.33,1.05,4.99,1.58-.16,.32-.33,.65-.49,.97-2.38-.69-4.75-1.38-7.13-2.07-.12,.25-.23,.51-.35,.76,2.02,1.27,4.03,2.53,6.05,3.8-.67,.39-1.35,.78-2.02,1.17-.31,.06-.62,.12-.93,.17-.52-.23-1.05-.45-1.57-.68,.41-.21,.82-.42,1.58-.81-.45-.28-.65-.42-.86-.54-4.32-2.56-7.26-6.07-7.51-11.66-.03-.7-1.08-1.72-1.83-1.93-2.27-.64-4.69,.32-5.5,2.27-.73,1.74-.38,4.43,.35,6.34,1.12,2.96,3.71,4.64,6.49,5.82-.35,.22-.7,.43-1.06,.65-5.16-3.8-10.61-.83-15.94-.83-7.45,0-14.9-.07-22.35-.34-1.62-.06-3.4-.75-4.77-1.71-.98-.68-1.98-2.34-1.9-3.47,.09-1.26,1.17-2.95,2.25-3.49,1.54-.77,3.46-.87,5.22-.89,8.18-.08,16.36,.02,24.53-.04,2.6-.02,5.02-.23,6.48-3.44,.62-1.37,2.92-1.88,4.38-2.73,.53-2.36,1.4-4.83,1.51-7.34,.06-1.3-1.31-2.63-1.88-4.03-1.22-3.04-2.36-6.12-3.49-9.21-.41-1.12-.69-2.29-1.02-3.43,.32-.08,.63-.15,.95-.23,2.94,3.45,6.71,4.7,10.97,4.64Zm-39.97,31.51c-.01,.24-.02,.47-.03,.71h-7.34c3.47,3.05,31.6,3.05,36.31,.29-.42-1.13-1.09-2.24-1.21-3.41-.26-2.46-1.53-2.6-3.43-2.34-3.41,.46-6.84,.98-10.27,.97-5.65-.02-11.29-.47-16.94-.65-1.38-.05-2.77,.21-4.16,.33,.01,.18,.03,.36,.04,.54,2.17,.44,4.34,.89,6.51,1.33-.04,.24-.09,.49-.13,.73-2.65-.15-5.3-.29-7.95-.44-.02,.38-.04,.75-.06,1.13,2.88,.27,5.77,.54,8.65,.8Zm50.26-6.1c-3.16-2.85-6.46-2.9-10.03-2.24-2.3,.42-1.99,1.89-1.69,3.43,.47,2.44,2.02,3.89,3.5,3.18,2.71-1.28,5.32-2.81,8.23-4.38Zm-6.36-4.31c-2.72-2.79-5.19-5.33-7.66-7.87-.34,.13-.68,.26-1.01,.38,.1,2.16-.56,4.93,.45,6.34,1.81,2.5,4.86,2.29,8.22,1.15Z"/>
  <path class="cls-16" d="M205.35,85.51c-3.9-1.17-6.49-4.34-9.49-6.92-.93-.8-2.15-1.27-3.29-1.74-1.79-.72-3.7-1.15-5.43-2-1.98-.97-1.53-2.49-.37-3.95,2.17-2.72,2.04-3.46,.31-6.53-2.17-3.85-4.27-7.78-5.97-11.88-3.22-7.75-6.18-15.62-9.15-23.48-.86-2.27-1.4-4.68-2.09-7.03,2.58-.28,2.36,2.38,2.85,3.66,2.26,5.8,3.86,11.89,6.17,17.66,2.45,6.12,5.42,12,8.19,17.97,.92,1.99,1.95,3.93,2.75,5.55,7.4-2.46,14.44-4.8,21.53-7.16,.99-11.9,14.03-14.4,20.95-8.58,2.78,2.34,4.72,1.57,7.2,.91,3.32-.89,6.63-1.82,9.95-2.73,.22-.08,.45-.16,.67-.24,.34-.05,.69-.11,1.03-.16,0,.32,0,.65-.01,.97-4.43,1.28-8.86,2.56-13.29,3.84-1.64,.48-3.29,.95-4.93,1.43-.3-.26-.59-.52-.89-.78,1.05-.77,.59-1.16-.19-1.88-2.29-2.12-4.98-2.95-7.89-2.97-6.12-.04-12.31,4.63-10.27,12.73,.79,3.11,2.02,6.1,3.04,9.14-.36,0-.72,.01-1.08,.02-.72-.95-1.44-1.89-2.34-3.09-3.34,.65-6.96,1.35-10.81,2.1,1.41,1.63,2.56,2.97,4.25,4.93-3.47,.79-6.4,1.45-10.2,2.31,3.29,2.55,6.05,4.69,8.8,6.82l-.02,1.09Zm-.65-22.22c-3.42,1.2-6.83,2.4-10.25,3.6-2,1.27-4.14,2.34-5.94,3.86-1.53,1.29-1.12,3.22,.56,3.85,5.05,1.89,10.08,1.5,15.45-.08-1.53-1.45-2.81-2.67-4.1-3.89l-.05-.87c4.29-.99,8.57-1.97,13.5-3.11-1.28-1.72-2.24-3.02-3.28-4.42-.07,.16,.04-.1,.29-.69-2.06,.57-3.78,1.05-5.5,1.53l-.67,.23Z"/>
  <path class="cls-17" d="M257.56,167.26c.33,.71,.67,1.42,1,2.13-.74,.39-1.48,.79-2.69,1.43,1.47,.63,2.47,1.06,3.47,1.49-.26,.25-.53,.5-.79,.76-1-.31-1.99-.78-3.01-.9-1.36-.16-2.76-.04-4.14-.04-.08,.4-.16,.8-.24,1.19,1.53,1.03,2.98,2.21,4.59,3.07,7.65,4.1,15.66,3.63,23.73,1.9,.27-.06,.43-.67,.64-1.02,.2-.19,.39-.37,.59-.56,6.56,2.21,13.23,2.35,19.95,1.02,.23-.05,.37-.6,.55-.92,.23-.18,.45-.36,.68-.54,2.57,.48,5.13,1.17,7.72,1.41,6.43,.61,12.46-1.35,18.39-3.7,.15,.32,.29,.63,.44,.95-5.91,3.09-12.18,4.26-18.74,4.13-3.64-.07-7.29,.3-10.94,.34-4.32,.06-8.64-.09-12.96,0-2.65,.06-5.33,.2-7.94,.64-6.39,1.07-12.63,.84-19.01-.6-3.19-.72-6.75,.41-10.14,.68-6.11,.5-12.23,1.1-18.27-.73,.06-.35,.11-.7,.17-1.05,8.07,1.62,16.08,.97,24.59-.52-1.43-.98-2.53-1.53-3.38-2.37-1.55-1.53-2.98-1.79-5.16-1.22-4.24,1.11-8.63,1.55-12.98,2.11-.5,.06-1.1-.82-1.66-1.27,8.94,.94,16.82-2.84,24.73-6.38,.39-.17,.54-.95,.81-1.45Z"/>
  <path class="cls-16" d="M249.25,59.83c8.68-2.41,17.37-4.81,26.05-7.23,13.25-3.7,26.48-7.47,39.74-11.11,15.8-4.34,31.63-8.56,47.44-12.83,.78,1.13,.79,1.17-.76,1.61-5.05,1.42-10.11,2.81-15.17,4.2-19.79,5.44-39.57,10.89-59.37,16.29-11.83,3.23-23.69,6.37-35.54,9.54-.8-.15-1.59-.31-2.39-.46Z"/>
  <path class="cls-17" d="M251.17,49.83c0-.32,0-.65,.01-.97,5.34-1.6,10.65-3.28,16.01-4.78,30.44-8.54,60.88-17.04,91.34-25.51,.74-.21,2-1.48,2.26,.64-3.79,1.05-7.57,2.1-11.36,3.16-25.35,7.11-50.7,14.23-76.06,21.34-7.4,2.04-14.81,4.08-22.21,6.11Z"/>
  <path class="cls-17" d="M154.1,113.27c-.48,0-.96,0-1.44,0-1.68-2.53-3.86-4.26-6.63-5.35-9.43-3.71-18.91-3.55-28.42-.59-6.33,1.97-9.48,7.05-8.18,12.86,.94-.22,1.88-.45,2.81-.67,.04,.33,.09,.66,.13,.99-1.67,.94-3.34,1.89-5,2.83-.03-.43-.06-.85-.09-1.28-.38-4.59,.75-8.78,3.49-12.65-6.71-.23-9.89,2.28-11.57,8.69-.1,.37-.47,.66-.71,.99-.31-.36-.63-.73-.94-1.09,.02-4.78,4.42-9.14,8.87-9.46,5.28-.38,10.05-2.74,15.15-3.52,4.74-.73,9.59-.57,14.37-1.05,1.5-.15,2.93-1.13,4.39-1.73-.09,.53-.18,1.06-.27,1.59,.58,.47,1.1,1.11,1.75,1.36,2.42,.94,4.89,1.72,7.32,2.62,2,.74,3.98,1.57,5.97,2.36,0,.33,0,.66,0,.99-.65,.09-1.29,.18-2.02,.29,.41,.77,.71,1.3,1,1.84Z"/>
  <path class="cls-8" d="M339.84,83.62c.91,1.34,1.81,2.68,2.72,4.02-.05,.26-.1,.53-.14,.79-1.7-1.17-3.35-2.44-5.13-3.48-1.74-1.02-3.61-1.79-5.42-2.68-.15,.31-.29,.61-.44,.92,.33,.26,.67,.52,1,.77-2.13-.02-4.27-.04-6.4-.06,.61-.19,1.22-.39,1.83-.58-.03-.25-.06-.5-.09-.74-2.35,.4-4.71,.72-7.04,1.22-1.38,.29-2.48,.42-3.6-.89-1.21-1.41-2.78-2.48-4.77-4.2,3.8-.21,6.99-.38,10.18-.56,1.06-.06,1.06-.06,1.02-1.09,0,0-.02,.03-.02,.03,.27,0,.54,0,.81,0,.16,0,.31-.01,.46-.02-.05,2.1,1.42,.85,2.2,1.13,3.16,.97,6.31,1.95,9.48,2.88,.25,.07,.59-.22,.89-.34,0,0,.02,.02,.02,.02,.81,.95,1.63,1.91,2.44,2.86Z"/>
  <path class="cls-8" d="M337.91,143.64c-.61-2.25-.93-4.14,1-6.26,1.58-1.73,2.16-4.5,3.55-7.64,1.05,2.84,1.86,5.1,2.73,7.33,.29,.76,.72,1.46,1.08,2.18,0,0-.03-.08-.03-.08,0,1.49-.01,2.98-.02,4.47h.01c-.31,.54-.62,1.07-.94,1.59-.22,.6-.45,1.21-.67,1.81-.16,.22-.33,.44-.49,.66-.66,.52-1.32,1.04-1.98,1.55-.98,.46-2.01,1.3-2.67-.44,.02-.06,.07-.13,.05-.18-.04-.12-.11-.23-.16-.34-.16-.85-.31-1.69-.47-2.54l-.99-2.11Z"/>
  <path class="cls-3" d="M273.38,43.71c25.35-7.11,50.7-14.23,76.06-21.34,3.78-1.06,7.57-2.11,11.36-3.16,.43,.53,.86,1.06,1.38,1.7-.37,.19-.77,.4-1.16,.6-1.84,.37-3.68,.75-5.52,1.12-1.18,.09-2.41,0-3.54,.31-10.03,2.67-20.04,5.4-30.05,8.13-1.21,.33-2.38,.83-3.57,1.26,.05,.15,.1,.3,.15,.45l2.63-.23c-.6,2.8-2.23,1.3-3.58,.97-.97-.13-2.02-.58-2.91-.34-6.64,1.75-13.23,3.68-19.85,5.48-6.94,1.88-13.89,3.68-20.84,5.51-.18-.15-.37-.3-.55-.46Z"/>
  <path class="cls-16" d="M115.22,177.69c.67-.39,1.35-.78,2.02-1.17,3.54,.74,7.07,2.05,10.61,2.06,3.99,.01,7.98-1.14,11.96-1.79,0-.37,.02-.74,.03-1.11,3.26,.67,6.51,1.81,9.79,1.91,5.89,.18,11.79-.25,17.69-.43,1.21-.17,2.41-.33,3.62-.5,.97,.32,1.93,.65,2.9,.97-.03,.35-.06,.69-.08,1.04-4.64-1.52-9.22,.43-13.83,.25-5.7-.22-11.39-.64-17.08-.94-.88-.05-1.78,.05-2.65,.24-6.56,1.42-13.13,2.07-19.77,.61-1.74-.38-3.47-.76-5.21-1.15Z"/>
  <path class="cls-17" d="M165.39,36.26c.37,.51,.86,.96,1.08,1.53,1.81,4.69,3.48,9.44,5.37,14.1,1.66,4.09,3.54,8.08,5.32,12.11-.25,.17-.5,.34-.75,.52-.05-.17-.09-.34-.14-.52-.31-.39-.61-.77-.92-1.16-2.19-4.93-4.4-9.85-6.56-14.8-1.28-2.93-2.51-5.89-3.67-8.88-.29-.76-.22-1.68-.31-2.52,.19-.13,.38-.25,.57-.38Z"/>
  <path class="cls-14" d="M346.23,90.21c0-.37,0-.75,.01-1.12,5.99,1.63,9.55,7.5,8.38,13.92-.28,1.52-.73,3-1.1,4.51l-1.88-.32c.55-1.39,1.35-2.72,1.62-4.17,.88-4.68-1.21-10.16-7.03-12.82Z"/>
  <path class="cls-17" d="M225.09,179.37c-8.36,2.21-16.73,3.28-25.12,.15,.48-.23,.97-.47,1.45-.7,1.59,.32,3.17,.7,4.77,.96,6.4,1.05,12.64-.32,18.88-1.49,0,.36,.01,.72,.02,1.09Z"/>
  <path class="cls-17" d="M348.2,156.77c-.05,6.92-5.08,14.1-11.29,15.29-.06-.34-.12-.69-.17-1.03,5.06-1.89,8.07-5.79,9.62-11.11,.29-.29,.66-.53,.85-.88,.39-.72,.67-1.5,1-2.26Z"/>
  <path class="cls-17" d="M173.76,178.67c.03-.35,.06-.69,.08-1.04,5.58,.21,11.16,.42,16.74,.62,.16,.32,.31,.64,.47,.96-5.8,.99-11.57,1.01-17.29-.55Z"/>
  <path class="cls-14" d="M165.39,36.26c-.19,.13-.38,.25-.57,.38-.87-2.07-1.81-4.11-2.58-6.23-.73-1.99-1.28-4.05-1.95-6.24,.31-.13,.74-.31,1.17-.48,1.31,4.19,2.62,8.38,3.94,12.57Z"/>
  <path class="cls-16" d="M336.73,171.02c.06,.34,.12,.69,.17,1.03-2.82,.95-5.64,1.9-8.46,2.86-.15-.32-.29-.63-.44-.95,.58-.36,1.15-.71,1.98-1.23-1.86-.3-3.4-.55-4.93-.79,0-.37,.02-.73,.03-1.1,3.87,1.33,7.76,1.22,11.65,.17Z"/>
  <path class="cls-16" d="M348.2,156.77c-.33,.76-.61,1.54-1,2.26-.19,.35-.56,.59-.85,.88-.11-4.15-.22-8.3-.34-12.44l1.08-.16c.36,1.41,.73,2.82,1.09,4.23,0,1.74,0,3.49,.01,5.23Z"/>
  <path class="cls-13" d="M140.08,103.81c.09-.53,.18-1.06,.27-1.59,.77-.36,1.54-.71,2.31-1.07,.21-.11,.42-.22,.63-.34,3.64-.27,7.28-.53,10.92-.8,.16,.03,.32,.05,.48,.08,0,0,0,0,0,0-.83,.19-1.65,.46-2.48,.56-1.66,.2-3.33,.31-4.99,.46-2.38,.9-4.77,1.8-7.15,2.7Z"/>
  <path class="cls-13" d="M191.05,179.22c-.16-.32-.31-.64-.47-.96,.95-.17,1.95-.19,2.82-.56,.63-.27,1.09-1,1.62-1.52,1.6,.73,3.2,1.45,4.79,2.18-.21,.26-.41,.52-.62,.78-1.8-.09-3.6-.17-5.4-.26-.24,.05-.48,.1-.72,.16-.68,.06-1.36,.12-2.04,.19Z"/>
  <path class="cls-14" d="M225.09,179.37c0-.36-.01-.72-.02-1.09-.32-.57-.65-1.14-.97-1.71,0,0-.03,.05-.03,.05,.49-.12,1.04-.45,1.45-.31,1.72,.6,3.4,1.34,5.09,2.03-.06,.35-.11,.7-.17,1.05-1.79,0-3.57,0-5.36-.01Z"/>
  <path class="cls-13" d="M337.38,80.74c-.3,.12-.65,.42-.89,.34-3.17-.93-6.32-1.91-9.48-2.88,.58-.21,1.16-.42,1.75-.64,.58,.08,1.16,.15,1.74,.23,.5,.12,1,.23,1.5,.35,.81,.23,1.62,.47,2.43,.7,.2,.11,.39,.22,.59,.32,.79,.53,1.58,1.05,2.37,1.58Z"/>
  <path class="cls-14" d="M346.21,143.64c0-1.49,.01-2.98,.02-4.47,.49,.5,1.34,.96,1.4,1.51,.1,.97-.29,1.99-.48,2.99-.32-.01-.63-.02-.95-.03Z"/>
  <path class="cls-17" d="M147.23,101.11c1.66-.15,3.33-.26,4.99-.46,.84-.1,1.66-.37,2.48-.56,.85,.18,1.69,.36,2.54,.54-.55,.23-1.09,.46-1.64,.69-2.79-.07-5.58-.13-8.37-.2Z"/>
  <path class="cls-13" d="M346.21,143.64c.32,.01,.63,.02,.95,.03-.07,.71-.14,1.42-.21,2.12-.03,.06-.1,.15-.09,.19,.06,.12,.15,.22,.23,.33l.1,.09s-.05,.13-.05,.13c-.02,.25-.03,.51-.05,.76-.36,.05-.72,.11-1.08,.16-.2,.02-.41,.04-.61,.06-.26-.16-.53-.32-.79-.48,.22-.6,.45-1.21,.67-1.81l.94-1.59h-.01Z"/>
  <path class="cls-17" d="M347.1,147.3c.02-.25,.03-.51,.05-.76,.35,1.66,.69,3.33,1.04,4.99-.36-1.41-.73-2.82-1.09-4.23Z"/>
  <path class="cls-17" d="M95.62,130.6c.47,1.68,.95,3.37,1.42,5.05-.47-1.68-.95-3.37-1.42-5.05Z"/>
  <path class="cls-16" d="M104.37,177.3c.35-.22,.7-.43,1.06-.65,.15,.05,.31,.1,.46,.15,.51,.12,1.01,.24,1.52,.37l1.41,.06c0,.36-.01,.72-.02,1.08-1.48-.34-2.95-.68-4.43-1.02Z"/>
  <path class="cls-17" d="M108.8,178.32c0-.36,.01-.72,.02-1.08,.82,0,1.64,0,2.47,0,0,.36,.02,.72,.03,1.08-.84,0-1.67,0-2.51,0Z"/>
  <path class="cls-13" d="M339.84,83.62c-.81-.95-1.63-1.91-2.44-2.86,.97,.6,1.94,1.19,2.91,1.79,.01,.28,.02,.55,.03,.83-.17,.08-.34,.16-.5,.25Z"/>
  <path class="cls-16" d="M328.76,77.56c-.58,.21-1.16,.42-1.75,.64-.78-.28-2.25,.98-2.2-1.13,1.31,.16,2.63,.33,3.94,.49Z"/>
  <path class="cls-16" d="M111.31,178.33c0-.36-.02-.72-.03-1.08,.48-.02,.96-.04,1.44-.06,.52,.23,1.05,.45,1.57,.68-.99,.16-1.99,.31-2.98,.47Z"/>
  <path class="cls-17" d="M97.03,125.78c-.33,.55-.67,1.1-1,1.64,.33-.55,.67-1.1,1-1.64Z"/>
  <path class="cls-14" d="M353.2,110.25c.03-.58-2.16-1.21,.04-1.74-.01,.58-.03,1.16-.04,1.74Z"/>
  <path class="cls-16" d="M313.24,77.6c-.73,.16-1.47,.32-2.2,.48,.73-.16,1.47-.32,2.2-.48Z"/>
  <path class="cls-17" d="M164.02,102.77c-.65-.24-1.3-.48-1.95-.72,.65,.24,1.3,.48,1.95,.72Z"/>
  <path class="cls-17" d="M166.25,103.71c-.58-.23-1.16-.46-1.74-.7,.58,.23,1.16,.46,1.74,.7Z"/>
  <path class="cls-16" d="M340.35,83.37c-.01-.28-.02-.55-.03-.83,.37,.27,.73,.54,1.1,.81-.36,0-.71,.02-1.07,.02Z"/>
  <path class="cls-13" d="M201.42,178.82c-.48,.23-.97,.47-1.45,.7-.25-.13-.51-.26-.76-.39,.21-.26,.41-.52,.62-.78,.53,.16,1.06,.31,1.6,.47Z"/>
  <path class="cls-1" d="M175.37,62.84c.31,.39,.61,.77,.92,1.16-.31-.39-.61-.77-.92-1.16Z"/>
  <path class="cls-17" d="M159.27,101.13c-.56-.15-1.13-.3-1.69-.45,.56,.15,1.13,.3,1.69,.45Z"/>
  <path class="cls-16" d="M310.39,78.11c-.53-.12-1.06-.24-1.59-.37,.53,.12,1.06,.24,1.59,.37Z"/>
  <path class="cls-16" d="M332,78.14c-.5-.12-1-.23-1.5-.35,.5,.12,1,.23,1.5,.35Z"/>
  <path class="cls-17" d="M95.95,127.78c-.04,.38-.09,.75-.13,1.13,.04-.38,.09-.75,.13-1.13Z"/>
  <path class="cls-14" d="M346.63,136.32c-.12-.39-.23-.78-.35-1.17,.12,.39,.23,.78,.35,1.17Z"/>
  <path class="cls-17" d="M250.15,49.02c-.22,.08-.45,.16-.67,.24,.22-.08,.45-.16,.67-.24Z"/>
  <path class="cls-16" d="M324.35,77.09c-.27,0-.54,0-.81,0,.27,0,.54,0,.81,0Z"/>
  <path class="cls-14" d="M347.09,146.32c-.08-.11-.17-.21-.23-.33-.02-.04,.05-.12,.09-.19,.05,.17,.1,.34,.15,.52Z"/>
  <path class="cls-16" d="M335.02,79.16c-.2-.11-.39-.22-.59-.32,.2,.11,.39,.22,.59,.32Z"/>
  <path class="cls-17" d="M193.09,179.03c.24-.05,.48-.1,.72-.16-.24,.05-.48,.1-.72,.16Z"/>
  <path class="cls-16" d="M342.21,84.46c-.13-.2-.26-.39-.39-.59,.13,.2,.26,.39,.39,.59Z"/>
  <path class="cls-14" d="M344.18,87.59c-.11-.25-.22-.5-.32-.75,.11,.25,.22,.5,.32,.75Z"/>
  <path class="cls-14" d="M344.82,88.61c-.17-.22-.33-.43-.5-.65,.17,.22,.33,.43,.5,.65Z"/>
  <path class="cls-7" d="M353.69,121.76c.06-.21,.12-.41,.18-.62-.06,.21-.12,.41-.18,.62Z"/>
  <path class="cls-17" d="M154.69,100.09c-.16-.03-.32-.05-.48-.08,.16,.03,.32,.05,.48,.08Z"/>
  <path class="cls-17" d="M143.29,100.82c-.21,.11-.42,.22-.63,.34,.21-.11,.42-.22,.63-.34Z"/>
  <path class="cls-17" d="M160.03,101.36c-.16-.04-.32-.09-.48-.13,.16,.04,.32,.09,.48,.13Z"/>
  <path class="cls-8" d="M112.25,119.52c-.94,.22-1.88,.45-2.81,.67-1.3-5.81,1.85-10.89,8.18-12.86,9.51-2.96,18.99-3.12,28.42,.59,2.77,1.09,4.95,2.82,6.63,5.35,.6,3.38,.07,4.07-3.18,3.77-1.86-.17-3.71-.56-5.53-.99-7.69-1.8-15.36-1.88-23.01,.21-.16,.04-.35-.01-.48,.06-2.58,1.5-5.21,2.88-8.2,3.2Z"/>
  <path class="cls-8" d="M193.05,125.33c.78-.05,1.57-.1,2.35-.15,0-.22,.02-.43,.02-.65h-16.93c-.54-3.99,1.16-7.1,5-7.76,5.9-1.02,11.9-1.21,17.44,1.99,2.18,1.26,3.33,3.72,2.95,6.06-.33,.02-.67,.04-1,.06-.45-.04-.91-.08-1.36-.12-.79-.04-1.59-.07-2.38-.11-.77-.08-1.55-.16-2.32-.24-.02,.3-.05,.6-.07,.9,.63,.05,1.26,.11,1.9,.16,.43,.08,.85,.15,1.28,.23,1.29-.04,2.09,.46,2.45,1.93,.75,3.13,2,6.17,2.41,9.35,.42,3.28-1.01,4.36-3.75,2.86-1.99-1.09-3.87-2.84-5.17-4.78-1.26-1.88-1.73-4.38-2.54-6.6-.06-.22-.12-.44-.19-.66-.06-.46-.12-.92-.18-1.39l.1-1.05Z"/>
  <path class="cls-8" d="M216.75,71.34c-1.03-3.04-2.26-6.03-3.04-9.14-2.04-8.1,4.15-12.77,10.27-12.73,2.91,.02,5.6,.85,7.89,2.97,.78,.72,1.24,1.11,.19,1.88-2.71,.59-5.43,1.1-8.11,1.79-2.25,.58-2.99,3.11-1.88,5.27,2.66,5.17,5.22,10.4,7.81,15.62,.19,.38,.25,.82,.37,1.24-.79,.27-1.74,.98-2.33,.73-2.79-1.21-5.49-2.68-8.22-4.06-.98-1.19-1.96-2.38-2.94-3.57Z"/>
  <path class="cls-6" d="M212.89,80.29c1.99,3.91,3.9,7.31,5.49,10.87,2.91,6.54,1.9,17.75-4.57,23.32-.86,.74-2.68,.81-3.78,.38-.61-.23-.83-2.13-.91-3.3-.42-6.63-.95-13.27-1.01-19.91-.02-2.52,.94-5.13,1.81-7.55,.45-1.26,1.69-2.21,2.97-3.81Z"/>
  <path class="cls-6" d="M217.64,87.23c4.05,.64,7.16,1.21,10.3,1.62,2.96,.39,4.68,2.61,6.43,4.75,3.82,4.69,7.45,9.54,8.67,15.85,.16,.84,.37,1.82,.12,2.58-.46,1.4-1.23,2.68-1.88,4.02-.95-.62-2.06-1.07-2.81-1.9-4.86-5.4-9.81-10.73-14.38-16.4-2.43-3.02-4.15-6.69-6.46-10.51Z"/>
  <path class="cls-8" d="M147.23,101.11c2.79,.07,5.58,.13,8.37,.2,6.86,1.75,13.29,4.59,19.23,8.67,1.14,.79,2.39,1.57,3.2,2.68,.67,.92,1.24,2.46,.97,3.44-.2,.72-1.99,1.57-2.82,1.35-3.19-.86-6.29-2.09-9.4-3.26-3.03-1.15-6.03-2.4-9.04-3.61-.19-.03-.38-.07-.58-.1-.68-.11-1.37-.21-2.05-.32-1.99-.79-3.96-1.62-5.97-2.36-2.43-.9-4.9-1.68-7.32-2.62-.65-.25-1.17-.9-1.75-1.36,2.38-.9,4.77-1.8,7.15-2.7Z"/>
  <path class="cls-8" d="M251.7,101.12c-.98-2.65-1.96-5.3-3.04-8.24,4.12,.47,7.59,.64,10.96,1.37,1.07,.23,1.94,1.89,2.75,3.03,3.24,4.54,6.21,9.25,6.57,15.19,.08,1.38,.1,2.86-.31,4.13-.32,1-1.23,2.24-2.1,2.48-.86,.23-2.25-.38-2.93-1.11-1.5-1.62-2.69-3.57-4.03-5.37-1.79-2.41-3.59-4.81-5.39-7.22-.83-1.42-1.66-2.84-2.49-4.26Z"/>
  <path class="cls-8" d="M217.12,143.08c1.79-.3,3.3-.65,4.82-.77,.54-.04,1.21,.36,1.66,.76,5.3,4.78,9.72,10.39,13.01,16.88,.83,1.63,.83,3.86,.82,5.81-.01,1.71-3.43,2.87-5.17,1.5-3.08-2.42-5.99-5.12-8.81-7.89-3.22-3.16-4.82-7.39-6.06-11.73-.41-1.42-.19-3.05-.26-4.57Z"/>
  <path class="cls-8" d="M302.43,92.91c3.62,.64,6.96,.93,10.1,1.93,1.31,.42,2.29,2.25,3.27,3.58,1.43,1.94,2.93,3.87,4.03,6.03,1.75,3.43,3.38,6.95,4.66,10.6,.44,1.25,.15,3.53-.67,4.38-1.63,1.67-3.83,.51-5.02-.9-4.63-5.51-10.1-10.34-13.01-17.31-1.13-2.71-2.21-5.45-3.37-8.3Z"/>
  <path class="cls-6" d="M231.51,80.39c7.31,.78,14.62,1.54,21.93,2.39,1,.12,1.96,.67,2.94,1.03,0,.22,0,.45,0,.67-4.25,.82-8.47,2.06-12.76,2.36-6.34,.45-12.71,.36-19.07,.25-3.73-.06-6.98-1.75-9.32-4.89-.8-1.08-1.01-2.66-1.48-4.01,.08-.34,.17-.69,.25-1.03,1.62-3.6,2.44-3.86,4.97-1.53,3.56,3.42,7.63,5.35,12.54,4.76Z"/>
  <path class="cls-8" d="M297.45,119.03c-1.5,1.97-3.42,2.28-4.67,.49-4.68-6.7-9.35-13.41-13.78-20.29-1.02-1.59-1.07-3.89-1.57-5.85,3.28,.33,6.2,.46,9.05,1.01,1.03,.2,2.12,1.23,2.78,2.19,3.45,4.97,6.55,10.17,8.21,16.18-.01,2.1-.02,4.19-.03,6.29Z"/>
  <path class="cls-8" d="M188.5,142.54c2.1-.37,3.78-.94,5.44-.87,1.06,.04,2.31,.78,3.09,1.62,3.15,3.4,6.46,6.72,9.09,10.55,1.64,2.39,2.95,5.36,2.76,8.67-.16,2.74-2.67,4.29-5.02,2.8-4.47-2.82-8.29-6.45-11.32-10.98-2.34-3.51-3.59-7.41-4.04-11.78Z"/>
  <path class="cls-8" d="M160.1,144.57c.04-.85,.07-1.7,.1-2.38,6.01-1.75,9.83,1.7,13.16,6,2.38,3.07,4.65,6.28,6.57,9.68,.85,1.51,.98,3.66,.97,5.51,0,1.82-3.34,2.77-5.18,1.61-4.47-2.82-8.15-6.59-11.54-10.72v.04c-.14-.12-.27-.23-.41-.35l-.06-.07c-.91-2.36-1.83-4.72-2.74-7.08-.3-.75-.59-1.5-.89-2.24Z"/>
  <path class="cls-8" d="M140.38,160.34c-.33-.56-.55-1.26-1-1.67-3.29-3.02-5.75-6.7-7.23-11-.44-1.28-.28-3,.12-4.35,.52-1.76,4.43-2.4,6.1-1.07,5.53,4.42,10.42,9.5,13.08,16.44,.56,1.46,.53,4.12-.34,5.05-1.38,1.48-3.65,1.64-5.61,.14-1.63-1.25-3.38-2.34-5.08-3.49l-.04-.04Z"/>
  <path class="cls-8" d="M277.27,143.17c.63,.36,1.31,1.11,1.87,1.01,3.26-.6,5.26,1.23,7.04,3.72,3.01,4.22,6.09,8.41,6.3,14.02,.04,1.03-.17,2.76-.69,2.97-1.14,.46-2.68,.53-3.83,.08-1.82-.72-3.46-1.99-5.17-3.02l-.04-.05c-1.15-1.41-2.23-2.89-3.46-4.22-3.25-3.48-5-7.58-4.58-12.53,.09-1.04,.67-2.02,1.03-3.03,.51,.35,1.03,.7,1.54,1.05Z"/>
  <path class="cls-8" d="M172.01,106.09c5.45-1.26,10.94-1.05,16.52-.21,6.27,.94,11.89,3.43,17.2,6.93,1.59,1.05,2.54,2.3,1.43,4.24-1.02,1.77-3.34,1.79-4.99,1.03-3.26-1.5-6.65-2.83-10.11-3.67-3.25-.79-6.65-.83-9.97-1.26-.86-.11-1.86-.23-2.51-.74-2.56-2.01-5.02-4.17-7.56-6.32Z"/>
  <path class="cls-8" d="M123.05,162.95c-.44,.48-.81,1.07-1.34,1.4-.47,.3-1.3,.63-1.64,.4-2.55-1.76-5.22-3.41-7.45-5.57-3.15-3.03-6.2-6.25-8.82-9.79-1.84-2.49-3.51-5.38-3.48-8.53,2.96,.23,5.81,.45,8.65,.68,1.31,1.64,2.48,3.44,3.96,4.87,4.02,3.9,7.61,8.13,9.81,13.49,.37,.89,.22,2.02,.31,3.05Z"/>
  <path class="cls-8" d="M329.53,160.46c.14-4.06,.25-8.13,.44-12.19,.23-4.99,1.03-5.88,6.03-6.84,.29,.72,.6,1.48,.91,2.24,.18,.7,.36,1.4,.54,2.1,.08,.37,.17,.75,.25,1.12-.02,.07-.07,.15-.06,.2,.04,.13,.12,.25,.18,.37-.06,.15-.05,.28,.06,.4,.31,.75,.61,1.5,.92,2.24,.02,4.32,.03,8.63,.05,12.95-.33,.53-.66,1.05-1,1.58-2.62,4.29-6.63,4.51-10.82,4.2,.01-.18,.02-.35,.03-.53,.76-1.75,1.52-3.49,2.28-5.24,.06-.87,.13-1.74,.19-2.61Z"/>
  <path class="cls-8" d="M197.24,169.37c.84-.02,1.75,.2,2.49-.08,7.12-2.68,14.31-5.03,21.97-3.93,2.95,.42,5.78,1.73,8.66,2.64-.01,.45-.03,.91-.04,1.36-5.72,1.68-11.44,3.37-17.16,5.05-.34,.04-.69,.08-1.03,.12-.96,.13-1.93,.26-2.89,.39-.22,.03-.44,.07-.66,.1-1.17,0-2.34,0-3.51,0-.2-.02-.4-.04-.6-.06-2.69-.72-5.58-.95-7.5-3.52,.03-.35,.05-.7,.08-1.05,.07-.35,.14-.71,.21-1.06v.04Z"/>
  <path class="cls-8" d="M275.79,90.11c11.41-5.58,22.88-10.1,35.24-3.54-11.52,3.96-22.87,9.84-35.24,3.54Z"/>
  <path class="cls-8" d="M284.31,84.24c-7.75,3.4-15.22,7.47-23.66,8.35-6.25,.65-10.81-.66-14.8-4.51,12.82-2.77,25.34-6.59,38.46-3.84Z"/>
  <path class="cls-8" d="M173.8,167.01c-8.32,2.07-16.62,4.31-25,6.11-2.12,.46-4.54-.25-6.73-.81-1.01-.26-1.8-1.46-3.28-2.75,5.25-1.77,9.66-3.68,14.25-4.68,4.76-1.04,9.68-1.41,14.55-1.68,2.32-.13,4.56,.91,6.23,2.8,0,.34-.01,.67-.02,1.01Z"/>
  <path class="cls-8" d="M182.93,164.16c-.67-5.43-2.94-9.73-5.92-13.91-1.51-2.12-1.47-5.48-2.12-8.24,4.75-2.25,7.79,.38,10.37,2.92,4.16,4.09,5.03,9.62,4.23,15.41-.25,1.78-1,3.38-3.24,3.3-1.1-.04-2.21,.33-3.32,.52Z"/>
  <path class="cls-8" d="M264.28,126.29c-1.63-.02-3.25,0-4.88-.06-7.21-.25-14.42-.52-21.63-.78-.56-.02-1.12,0-1.67,0-.19-4.06,3.66-8.14,8.08-8.31,3.42-.14,6.87,.24,10.3,.38,.7,.16,1.39,.33,2.09,.49,0,0-.01,0-.01,0,.16,.09,.33,.19,.49,.28,2.08,1.29,4.16,2.59,6.23,3.88,.33,1.38,.66,2.75,.99,4.13Z"/>
  <path class="cls-8" d="M249.83,158.3c-.19-.37-.39-.75-.58-1.12-.19-.66-.38-1.31-.57-1.97,1.08-2.96-.44-6.09-3.85-7.87-.03-.52-.05-1.05-.08-1.57,1.42-.69,2.84-1.38,4.26-2.07-.07,.24-.15,.48-.22,.71,1.73,.45,3.45,.91,5.18,1.36,2.3,3.17,4.6,6.35,6.9,9.52,.35,1.24,.7,2.48,1.05,3.71-.03,.14,0,.26,.07,.38,.03,2.28,.07,4.56,.1,6.84-.88,1.26-1.86,1.15-2.93,.28-2.15-1.73-4.32-3.45-6.48-5.17-.95-1.01-1.9-2.03-2.85-3.04Z"/>
  <path class="cls-8" d="M197.24,169.37s0-.04,0-.04c-1.73,.56-3.45,1.12-5.18,1.68-.52,.13-1.05,.26-1.57,.39-2.03,.53-4.06,1.06-6.1,1.58-.15-.02-.31-.03-.46,0-1.88,.16-3.76,.27-5.62,.52-.31,.04-.54,.72-.81,1.1-.15-.04-.31-.04-.46,0-.41-.46-.73-1.16-1.23-1.35-1.97-.77-3.98-1.41-6-2.04-.44-.14-.95-.04-1.43-.05l.03,.06c2.34-4.23,6.71-3.58,10.28-4.61,6.08-1.76,12.29-3.08,18.66-1.93,1.7,.31,3.33,.98,5.58,1.67-2.38,1.26-4.04,2.14-5.7,3.02Z"/>
  <path class="cls-8" d="M273.11,157.74c-.22,.46-.62,.9-.64,1.37-.31,5.69-4.55,5.7-8.16,6.6-.38-2.68-.74-5.29-1.11-7.89-.06-.19-.12-.38-.18-.57,0,0,0,0,0,0-.34-1.22-.69-2.44-1.03-3.65,1.91-3.15,.98-6.37,.47-9.7,3.56-1.65,6.27-.39,8.59,3.71,1.63,2.86,2.34,5.83,2.25,9.09-.07,.35-.13,.69-.2,1.04Z"/>
  <path class="cls-8" d="M326.03,83.9c2.13,.02,4.27,.04,6.4,.06,2.11,1.16,4.22,2.32,6.33,3.48-10.38,2.76-20.15,7.85-30.98,5.35-1.38-.32-2.7-.88-4.05-1.33,0-.33,0-.65,0-.98,7.43-2.2,14.86-4.39,22.29-6.59Z"/>
  <path class="cls-8" d="M342.27,121.46c-1.06,6.15-1.83,12.92-6.88,17.88-2.15,2.11-4.91,2.16-6.67,.51-1.09-1.03-1.11-4.37-.11-6.48,1.34-2.83,2.55-5.73,3.96-8.52,.75-1.48,1.73-2.85,2.77-4.12,.38-.46,1.28-.74,1.87-.64,1.57,.28,3.1,.82,5.05,1.37Z"/>
  <path class="cls-8" d="M276.49,104.53c-.27,2.79-.37,5.42-.84,7.97-.23,1.24-.95,2.52-1.78,3.44-.56,.61-1.71,.62-2.59,.9-.22-.84-.64-1.69-.62-2.52,.13-4.49-1.42-8.4-3.62-12.05-1.59-2.63-1.84-5.34-.86-8.19,.21-.61,.86-1.24,1.44-1.47,5.29-2.12,6.91-1.18,8.09,4.85,.46,2.37,.54,4.82,.78,7.08Z"/>
  <path class="cls-6" d="M250.07,112.13c-1.06,2.41-2.9,2.97-5.38,2.61,1.2-9.12-4.43-15.06-8.42-21.57,.61-1.34,1.23-2.7,1.97-4.33,.73-.08,1.78-.12,2.8-.32,1.79-.34,2.91,.3,3.63,2.13,1.65,4.25,3.42,8.45,5.14,12.67,.07,.27,.15,.53,.22,.8,.05,.25,.1,.51,.15,.76-.04,2.41-.07,4.83-.11,7.24Z"/>
  <path class="cls-8" d="M124.58,164.63c-.25-.18-.5-.35-.75-.53,1.49-4.61-1.19-7.82-3.2-11.36-1.64-2.9-3.35-5.91-2.91-9.41,1.65-.59,3.18-1.61,4.64-1.51,1.2,.08,2.51,1.3,3.44,2.34,3.96,4.4,5.63,9.66,5.2,15.8-.16,2.24-.91,3.28-2.91,3.63-1.2,.21-2.36,.68-3.53,1.04Z"/>
  <path class="cls-8" d="M301.92,144.6c1.17-.74,2.12-1.4,3.12-1.93,.37-.2,.96-.28,1.3-.1,5.95,3.16,9.56,8.4,11.32,15.06,.39,1.47,1.4,3.54-1,4.72-2.98,1.46-3.41,1.21-5.68-1.08-3.75-3.79-6.24-8.38-8.35-13.27-.46-1.06-.5-2.32-.71-3.39Z"/>
  <path class="cls-8" d="M239.54,166.23c-.67-4.98-2.34-9.27-5.28-13.07-2.08-2.68-1.06-6-1.04-9.05,0-1.04,3.58-1.84,4.5-1.2,6.15,4.22,8.46,10.1,6.85,17.73-.74,3.5-2.08,5.09-5.03,5.6Z"/>
  <path class="cls-8" d="M208.69,124.75c-.77,.01-1.53,.02-2.3,.03-.04-.34-.08-.69-.13-1.03,.37-4.16,3.07-6.59,6.71-6.93,5.54-.52,11.1-.76,16.26,2.18,2.32,1.32,3.53,3.21,3.61,6.1-4.96-.28-9.91-.57-14.85-.85,0,0-.05,0-.05,0-.26,.28-.52,.55-.78,.83,0,0-.08,.07-.08,.07-.46-.31-.91-.87-1.37-.87-1.99-.01-3.98,.14-5.97,.23-.36,.08-.71,.17-1.07,.25Z"/>
  <path class="cls-8" d="M159.54,161.92c-2.06,.46-4.11,.93-6.42,1.44,.38-5.54-2.28-9.39-4.99-13.47-1.44-2.17-1.35-5.49-1.91-8.08,1.88-.47,3.07-.88,4.29-1.03,.52-.07,1.31,.2,1.63,.61,2.02,2.65,3.93,5.38,5.9,8.08,.28,.38,.65,.69,.98,1.03,.16,.56,.33,1.12,.49,1.68,.19,1.17,.37,2.34,.56,3.52l-.52,6.22Z"/>
  <path class="cls-8" d="M346.23,90.21c5.82,2.65,7.9,8.14,7.03,12.82-.27,1.45-1.06,2.78-1.62,4.17-3.39-5.06-8.26-8.05-13.3-10.84-2.49-1.38-4.85-3.02-7.63-4.78,5.4-1.99,10.38-2.77,15.53-1.37Z"/>
  <path class="cls-8" d="M268.05,123.83c.13-.37,.25-.75,.38-1.12,.34-.65,.68-1.29,1.02-1.94,.39-.25,.79-.51,1.18-.76h0c.96-.45,1.93-1.3,2.89-1.29,4.96,.07,9.97,.01,14.87,.68,3.3,.45,5.33,3.7,5.51,6.99h-25.95c0-.84,0-1.44,0-2.03,.03-.18,.07-.36,.1-.53Z"/>
  <path class="cls-8" d="M301.43,117.72c-.5-.09-1-.18-1.5-.27-.34-.75-.82-1.46-.99-2.25-.17-.78-.03-1.64-.02-2.46-.1-.54-.21-1.07-.31-1.61,.03-.07,.09-.15,.07-.2-.04-.13-.12-.25-.19-.37-1.57-3.36-3.47-6.6-4.58-10.12-.61-1.93-.17-4.41,.36-6.49,.17-.68,2.38-1.49,3.17-1.11,1.47,.71,2.8,2.08,3.81,3.48,3.99,5.5,3.7,11.94,3.14,18.35-.09,.98-.99,1.88-1.51,2.81-.49,.08-.97,.16-1.46,.24Z"/>
  <path class="cls-8" d="M148.06,124.08c-3.33-.16-6.51-.5-9.68-.41-4.66,.13-9.32,.6-13.98,.88-.69,.04-1.39-.15-2.08-.24,.17-.7,.39-1.4,.51-2.12,.77-4.6,3.8-6.05,7.66-5.92,4.31,.15,8.64,.48,12.92,1.04,3.12,.41,4.88,2.95,4.64,6.77Z"/>
  <path class="cls-8" d="M352.22,121.15c-1.19,4.43-4.5,9.53-7.06,10.89-2.12-2.85-2.8-5.54-1.63-9.46,1.76-5.92,2.29-12.25,3.34-18.35,3.39,1.1,6.53,8,6.27,14.82-.3,.7-.61,1.4-.91,2.1Z"/>
  <path class="cls-8" d="M216.32,163.79c-2.18,.29-4.17,.56-6.46,.87,1.61-5.73-2.01-9.56-3.67-14.02-.33-.89-.81-1.91-.66-2.76,.33-1.9,1.02-3.72,1.56-5.56,4.41-.12,7.62,2.49,8.91,7.32,1.23,4.6,1.21,9.25,.32,14.16Z"/>
  <path class="cls-8" d="M326.14,159.55c1.99,1.15,2.22,4.47,.48,6.83-.39,.53-.74,1.08-1.11,1.62,0,0-.01,.02-.01,.02-1.63,.95-3.25,1.9-4.88,2.84-.53,.18-1.05,.35-1.58,.53-1.77,.5-3.54,1-5.32,1.5-.33,.06-.65,.13-.98,.19-3.57,.01-7.16,.15-10.71-2.45,7.01-3.23,13.74-6.33,20.6-9.49-.36-.12-.7-.23-1.03-.33,1.51-.42,3.02-.85,4.53-1.27Zm-1.36,2.09l-.59,.24c.23,.68,.46,1.37,.7,2.05l.63-.25c-.24-.68-.49-1.36-.73-2.04Z"/>
  <path class="cls-8" d="M257.56,167.26c-.26,.5-.42,1.27-.81,1.45-7.92,3.54-15.79,7.32-24.74,6.38,0,0,.08,0,.08,0-1.94-.79-3.87-1.58-5.81-2.37,0-.29,.02-.59,.02-.88,3.69-1.18,7.33-2.61,11.08-3.47,4.62-1.06,9.31-1.86,14.01-2.32,2-.19,4.11,.77,6.16,1.21Z"/>
  <path class="cls-8" d="M150.75,123.9c.7-4.74,2.83-7.48,6.94-7.9,4.92-.5,9.82-.3,14.35,2.2,2.19,1.21,3.64,3.03,3.68,5.7h-24.97Z"/>
  <path class="cls-8" d="M259.35,172.29c-1-.43-2-.86-3.47-1.49,1.21-.64,1.95-1.03,2.69-1.43,.17-.09,.34-.17,.51-.26,.17-.1,.34-.19,.51-.29,2.79-.96,5.58-1.92,8.37-2.88,.22-.07,.44-.14,.67-.21,1.41-.35,2.82-.7,4.22-1.04,.33-.04,.66-.09,.98-.13,4.59-.61,9.1-.54,13.64,1.96-9.1,4.55-18.06,8.13-28.12,5.76Z"/>
  <path class="cls-8" d="M299.56,120.31c4.96-2.22,10.07-1.85,15.26-1.27,4.03,.45,8.34,4.01,7.93,7.36h-25.73c.91-2.23,1.7-4.14,2.48-6.05,0,0,.06-.04,.06-.04Z"/>
  <path class="cls-8" d="M294.28,163.95c-.06-4.49-1.91-8.11-3.46-11.94-.94-2.32-.17-5.43-.17-7.83,1.8-.22,3.38-.69,4.89-.51,1.07,.13,2.24,.95,3.02,1.82,2.82,3.14,3.49,9.1,1.64,13.02-.07,.15-.14,.31-.2,.47q-1.41,3.97-5.72,4.98Z"/>
  <path class="cls-8" d="M119.16,173.06c-1.66-.53-3.33-1.05-4.99-1.58-.03-.32-.07-.64-.1-.97,3.5-1.61,7.01-3.22,10.51-4.83,3.05-.61,6.08-1.39,9.15-1.78,3.88-.49,7.71,.05,11.39,1.75-8.51,3.17-16.67,7.53-25.96,7.4Z"/>
  <path class="cls-8" d="M280.83,170.84c10.1-3.5,19.29-9.82,30.59-6.91-.2,.54-.23,.89-.37,.95-6.53,2.84-12.98,5.95-19.65,8.37-3.45,1.25-7.23,.98-10.56-2.4Z"/>
  <path class="cls-8" d="M336.51,96.81c2.58,1.53,4.98,2.87,7.26,4.4,.48,.32,.75,1.37,.74,2.07-.06,3.74-.07,7.5-.46,11.21-.16,1.5-1.03,3.06-1.94,4.29-1.35,1.82-4,1.06-4.42-1.31-.56-3.16-.96-6.37-1.14-9.57-.19-3.54-.04-7.1-.04-11.09Z"/>
  <path class="cls-8" d="M257.21,77.61c10.64-2.11,29.21-1.75,32.47,5.78-1.27,0-2.41,.27-3.38-.04-6.69-2.16-13.45-1.65-20.2-.64-1.82,.27-3.03-.25-4.32-1.5-1.4-1.35-3.03-2.41-4.56-3.6Z"/>
  <path class="cls-8" d="M325.86,119.99c.57-6.07-1.19-10.58-4.11-14.66-2.45-3.43-1.4-7.13-.61-10.72,.3-1.36,2.78-1.28,3.64,.02,3.71,5.58,6.15,11.6,5.01,18.62-.31,1.88-1.1,3.7-1.85,5.47-.21,.5-1.06,.68-2.07,1.28Z"/>
  <path class="cls-8" d="M220.73,125.61c2.77,.15,4.82,.11,6.82,.45,.83,.14,1.81,.89,2.25,1.67,1.78,3.13,3.5,6.31,4.96,9.62,.5,1.13,.67,3.37,.08,3.87-.95,.8-2.76,1-4.03,.67-3.19-.81-5.21-3.52-6.63-6.35-1.47-2.91-2.2-6.24-3.44-9.92Z"/>
  <path class="cls-8" d="M326.14,159.55c-1.51,.42-3.02,.85-4.53,1.27-.72,.07-1.45,.14-2.22,.22-.76-6.05-3.18-11.96-.54-18.08,4.98,0,6.87,1.21,8.23,5.32-1.55,1.54-1.57,1.66-1.06,4.32,.05,.25,.05,.52,.02,.77-.18,1.56,.62,1.96,1.89,1.82,0,.58-.01,1.16-.02,1.73-2.4-.51-1.8,1.27-1.76,2.62h0Z"/>
  <path class="cls-8" d="M149.68,133.66c0,.17,0,.35-.01,.52-.09,1.89-.18,3.78-.28,5.67-2.06-.57-4.51-.57-6.09-1.82-3.95-3.11-5.82-7.62-5.96-13.23,2.52,.12,4.97,.03,7.35,.45,.87,.15,1.69,1.38,2.31,2.3,1,1.5,1.82,3.14,2.71,4.73-.01,.46-.02,.93-.04,1.39Z"/>
  <path class="cls-8" d="M252.19,126.9c2.43,.2,4.85,.37,7.27,.63,.39,.04,.92,.38,1.1,.74,1.62,3.32,3.21,6.65,4.73,10.03,.8,1.79-.59,3.74-2.69,3.85-3.44,.18-6.12-1.64-7.64-4.59-1.59-3.08-2.41-6.62-3.56-9.96,.27-.23,.53-.46,.8-.7Z"/>
  <path class="cls-8" d="M135.25,124.76c.39,5.04,.11,9.61-1.85,13.93-1,2.2-4.46,3.67-6.5,2.62-.52-.27-1.14-1.23-1.07-1.76,.6-4.21,1.28-8.42,2.16-12.58,.16-.74,1.3-1.56,2.11-1.75,1.57-.37,3.24-.31,5.15-.46Z"/>
  <path class="cls-8" d="M201.42,178.82c-.53-.16-1.06-.31-1.6-.47-1.6-.73-3.2-1.45-4.79-2.18,0,0-.01-.02-.01-.02-.65-.52-1.31-1.04-1.96-1.56l-.02-.02c-.02-.21-.04-.42-.05-.63-.14,.04-.28,.08-.42,.13l-.02-.02c-.06-.68-.12-1.35-.18-2.03l3.14-.33s0,.01,0,.01c1.62,2.6,4.12,3.49,6.83,3.95,.49,.06,.98,.12,1.47,.18,1.68,.03,3.35,.05,5.02,.08,0,0,.22,.07,.22,.07l.2-.12c3.13-.52,6.25-1.12,9.39-1.52,.92-.12,1.9,.34,2.85,.54,.87,.56,1.73,1.12,2.6,1.67,.32,.57,.65,1.14,.97,1.71-6.25,1.17-12.48,2.53-18.88,1.49-1.6-.26-3.18-.64-4.77-.96Z"/>
  <path class="cls-8" d="M282.11,127.37c2.08,.13,3.14,.28,4.18,.24,3.08-.12,5.45,.42,6.21,4.4,.49,2.52,2.07,4.77,2.9,7.25,.27,.82-.04,2.16-.56,2.86-.39,.53-1.58,.67-2.35,.54-3.12-.54-5.22-2.89-6.66-5.53-1.54-2.82-2.36-6.08-3.72-9.76Z"/>
  <path class="cls-8" d="M217.94,124.24s.05,0,.05,0c1.09,2.53,.42,4.82-.66,7.16-1.19,2.58-1.99,5.38-3.29,7.89-1,1.94-4.8,2.65-6.4,1.36-.49-.39-.67-1.5-.65-2.27,.03-1.19,.36-2.38,.56-3.56,0,0,0,0,0,0,.09-.19,.18-.38,.28-.56,.29-.36,.59-.72,.88-1.08,.37-1.21,.73-2.42,1.1-3.62,.33-.54,.67-1.07,1-1.61,.16-.5,.32-1,.48-1.51,.11-.2,.22-.4,.33-.6,.25-.13,.51-.26,.76-.4,.34-.02,.68-.04,1.02-.06,1.23-.08,2.46-.16,3.68-.24,0,0,.08-.07,.08-.07,.26-.28,.52-.55,.78-.83Z"/>
  <path class="cls-8" d="M280.13,177.26c-.21,.35-.37,.96-.64,1.02-8.07,1.73-16.08,2.2-23.73-1.9-1.61-.86-3.07-2.04-4.59-3.07,.08-.4,.16-.8,.24-1.19,1.38,0,2.77-.12,4.14,.04,1.02,.12,2.01,.58,3.01,.9,4.27,.28,8.54,.51,12.8,.89,1.35,.12,2.69,.58,3.97,1.08,1.64,.64,3.2,1.48,4.8,2.23Z"/>
  <path class="cls-8" d="M109.31,140.78c-4.26,.06-8.03-1.18-10.97-4.64-1.26-3.23-1.78-6.46-.09-9.97,1.32,1.1,2.46,2.3,3.81,3.09,1.61,.95,3.36,1.83,5.15,2.21,1.63,.34,2.22,1.02,2.6,2.7,.46,2.01,1.46,3.87,2.29,5.95-.92,.22-1.85,.44-2.78,.66Z"/>
  <path class="cls-8" d="M249.63,127.44c-.12,.69-.24,1.37-.36,2.06-.84,2.8-1.68,5.6-2.52,8.4-.51,.65-.97,1.34-1.53,1.93-.61,.65-1.25,1.62-1.97,1.72-1.68,.24-3.41,.04-5.13,.02,.06-1.57-.21-3.27,.26-4.69,.95-2.87,2.44-5.53,3.42-8.38,.61-1.78,1.58-2.12,3.14-1.96,1.3,.14,2.62,.04,3.93,.05,.25,.28,.5,.57,.75,.86Z"/>
  <path class="cls-8" d="M166.21,125.04c.48,0,.81-.04,1.12,0,2.45,.4,5.99-.09,7.09,1.42,1.95,2.66,2.76,6.49,3.39,9.96,.59,3.24-1.57,4.43-4.45,3-4.51-2.25-7.36-8.6-7.16-14.38Z"/>
  <path class="cls-8" d="M309.1,127.06c-1.13,4.44-1.89,8.43-3.23,12.19-.51,1.44-2.2,2.82-3.64,3.34-1.27,.46-3.39,.19-4.27-.71-.63-.65,0-2.92,.36-4.38,.69-2.74,1.73-5.39,2.35-8.14,.41-1.85,1.49-2,2.87-2.04,1.62-.04,3.24-.15,5.55-.26Z"/>
  <path class="cls-8" d="M190.4,126.31c-.78,3.43-1.44,6.89-2.39,10.27-.85,3.06-3.44,4.68-6.21,4.26-2.34-.35-2.8-1.38-1.99-3.7,.65-1.86,.91-3.87,1.47-5.78,.53-1.79,1.12-3.57,1.9-5.24,.24-.52,1.15-.86,1.79-.96,1.29-.2,2.61-.19,3.92-.26,.21,0,.42,0,.63,.01,.29,.13,.58,.27,.87,.4,0,.33,.01,.66,.02,.98Z"/>
  <path class="cls-8" d="M278.67,127.08c-.37,4.95-.76,9.39-3.14,13.33-1.19,1.98-4.5,3.31-6.43,2.22-.59-.33-1.23-1.57-1.09-2.21,.89-4.01,1.96-7.97,3.06-11.92,.12-.43,.77-.93,1.22-.98,2.02-.22,4.05-.29,6.39-.44Z"/>
  <path class="cls-8" d="M98.5,119.08c.24-.33,.62-.62,.71-.99,1.68-6.41,4.86-8.92,11.57-8.69-2.73,3.87-3.87,8.06-3.49,12.65-1.56,1.33-3.27,2.52-4.65,4.04-1.11,1.22-1.76,1.05-2.46-.19-1.18-2.09-2.08-4.28-1.69-6.82Z"/>
  <path class="cls-8" d="M316.46,84.84c-1.78,1.26-3.37,1.25-5.37,.05-5.43-3.25-11.4-3.44-17.41-2.52-1.76,.27-3.11,.37-4.05-1.66-.41-.88-1.47-1.42-2.34-2.21,11.76-2.86,26.34-.34,29.17,6.34Z"/>
  <path class="cls-8" d="M312.92,127.4c2.53,.21,4.88,.4,6.5,.54,1.88,2.77,3.53,5,4.96,7.38,1,1.66,2.19,3.6,.77,5.54-1.34,1.83-3.15,1.57-5.09,.75-4.06-1.73-7.51-8.18-7.14-14.2Z"/>
  <path class="cls-8" d="M163.26,124.97c-.63,3.51-1,6.7-1.81,9.75-1.18,4.43-3.76,6.36-7.12,5.7-1.62-.32-2.33-1.18-1.89-2.9,.99-3.82,2-7.63,3.08-11.42,.13-.46,.73-1.05,1.14-1.07,2.18-.11,4.36-.05,6.61-.05Z"/>
  <path class="cls-8" d="M167.32,177.16c-5.9,.18-11.8,.62-17.69,.43-3.28-.1-6.53-1.24-9.79-1.91l-4.41-2.15-.02-.02v-2.42c1.14-.79,1.91-1.08,3.29,.47,2.94,3.31,7.05,3.49,10.97,2.87,4.25-.67,8.43-1.92,12.64-2.92,0,0-.03,0-.03,0,.57,.33,1.15,.66,1.72,.99,.63,.8,1.29,1.57,1.88,2.4,.52,.73,.97,1.52,1.44,2.28Z"/>
  <path class="cls-8" d="M168.41,171.23s-.03-.06-.03-.06c2.25,2.97,5.52,3.03,8.66,3.44,.15-.04,.31-.04,.46,0,1.83-.1,3.67-.13,5.5-.35,.35-.04,.63-.83,.94-1.28,.15-.02,.31-.02,.46,0,.22,.32,.5,.94,.65,.91,2.52-.57,5.02-1.24,7.49,.16,0,0,.02,.02,.02,.02-.04,.15-.08,.3-.12,.45,.2,.02,.39,.04,.59,.06,0,0,.02,.02,.02,.02-.09,1.51,.38,1.88,1.96,1.56,0,0,.01,.02,.01,.02-.53,.52-.99,1.25-1.62,1.52-.87,.37-1.87,.39-2.82,.56-5.58-.21-11.16-.42-16.74-.62-.97-.32-1.93-.65-2.9-.97-2.14-1.77-4.29-3.53-6.43-5.3,1.24-2.24,2.59-.44,3.9-.13Z"/>
  <path class="cls-8" d="M325.05,171.95c1.53,.25,3.07,.49,4.93,.79-.83,.51-1.4,.87-1.98,1.23-5.93,2.36-11.96,4.31-18.39,3.7-2.59-.25-5.15-.93-7.72-1.41-1.71-.87-3.42-1.73-5.54-2.81,2.39-1.13,3.97-2.48,6.38-.85,1.6,1.08,3.85,1.07,5.8,1.54,.22,.01,.43,.03,.65,.04,1.44-.03,2.89-.05,4.33-.08,0,0-.07-.02-.07-.02,2.46-.74,4.92-1.48,7.38-2.22,1.41,.03,2.82,.05,4.23,.08Z"/>
  <path class="cls-8" d="M119.1,127.04c.91,3.26,1.92,6.09,2.44,9.02,.28,1.58,.19,4.36-.57,4.76-1.36,.7-3.48,.37-5.06-.22-1.33-.5-2.67-1.75-3.44-3.04-2.38-3.99-1.64-6.48,2.3-8.61,1.29-.7,2.68-1.18,4.33-1.9Z"/>
  <path class="cls-6" d="M215.73,114.68c4.29-5,6.17-10.59,5.71-17.04,.21-.08,.43-.16,.64-.23,1.04,1.21,2.06,2.44,3.12,3.63,.77,.87,1.6,1.69,2.39,2.54,1.06,1.12,1.59,2.27,.83,3.93-2.11,4.61-6.16,8.5-12.7,7.17Z"/>
  <path class="cls-8" d="M107.38,123.34c1.67-.94,3.34-1.89,5-2.83,4.84-.76,6.95,.46,7.75,4.24-3.33,1.9-6.43,4.33-9.9,5.41-2.17,.68-4.9-.68-7.37-1.12-.08-.35-.16-.69-.24-1.04,1.58-1.55,3.17-3.11,4.75-4.66Z"/>
  <path class="cls-8" d="M139.81,176.79c-3.99,.65-7.98,1.8-11.96,1.79-3.54-.01-7.07-1.32-10.61-2.06-2.02-1.27-4.03-2.53-6.05-3.8,.12-.25,.23-.51,.35-.76,2.38,.69,4.75,1.38,7.13,2.07,3.45-.33,6.96-.34,10.32-1.1,2.32-.52,4.39-1.13,6.42,.57,0,0,.02,.02,.02,.02,.46,2.62,2.65,2.58,4.39,3.26Z"/>
  <path class="cls-8" d="M232.09,175.07s-.08,0-.08,0c.56,.45,1.16,1.33,1.66,1.27,4.35-.57,8.74-1.01,12.98-2.11,2.18-.57,3.61-.31,5.16,1.22,.85,.84,1.95,1.39,3.38,2.37-8.51,1.49-16.52,2.14-24.59,.52-1.69-.69-3.37-1.43-5.09-2.03-.41-.14-.96,.19-1.45,.31-.44-1.18-.88-2.36-1.32-3.54,1.06,.21,2.15,.32,3.16,.67,.89,.31,1.7,.89,2.54,1.35,.17,.08,.33,.16,.5,.24,1.05-.05,2.24,1.77,3.13-.27Z"/>
  <path class="cls-7" d="M273.93,44.17c6.95-1.83,13.9-3.63,20.84-5.51,6.63-1.8,13.22-3.73,19.85-5.48,.89-.23,1.94,.21,2.91,.34-11.51,3.15-23.04,6.26-34.54,9.45-18.59,5.16-37.17,10.37-55.75,15.56-1.18,.33-2.38,.6-3.56,.9-.02-.24-.05-.48-.07-.71,1.64-.7,3.27-1.39,4.91-2.09,0,0-.03,.02-.03,.02,1.49-.36,2.97-.71,4.46-1.07l-.03,.02c1.88-.46,3.76-.92,5.64-1.38,.33-.04,.66-.03,.97-.12,7.18-1.98,14.37-3.92,21.53-5.97,4.31-1.23,8.58-2.63,12.86-3.96Z"/>
  <path class="cls-8" d="M231.64,64.02s.04-.01,.04-.01-.03,.03-.03,.03c.49,.23,.99,.46,1.48,.69,.29-.05,.58-.1,.87-.16,.87-.09,1.74-.19,2.55-.27,1.54,5.29-.17,10.02-1.69,14.87-1.1,0-2.22,0-3.34,0-.16-.59-.33-1.17-.5-1.76-.7-1.95-1.51-3.87-2.08-5.87-.5-1.77-.75-3.62-1.01-4.98,1.55-1.06,2.63-1.8,3.71-2.54Z"/>
  <path class="cls-6" d="M261.34,83.48c-.99,0-2.17,.38-2.92-.06-4.66-2.77-9.83-2.97-14.91-3.59-2.1-.26-4.22-.33-6.65-.51,.32-1.68,.59-3.15,.9-4.78,8.63,.84,16.95,1.94,23.72,8.04-.05,.3-.09,.6-.14,.91Z"/>
  <path class="cls-4" d="M230.49,107.68c2.07,2.46,4.22,4.57,5.79,7.08,.75,1.2,1.01,3.57,.39,4.73-.87,1.61-2.77,.96-4.11-.08-2.01-1.56-4-3.16-5.92-4.84-.3-.27-.47-1.25-.26-1.55,1.18-1.69,2.5-3.27,4.12-5.34Z"/>
  <path class="cls-8" d="M301.22,176.8c-.18,.32-.32,.88-.55,.92-6.72,1.33-13.38,1.19-19.95-1.02-1.77-1.06-3.54-2.11-5.76-3.43,2.71-1.14,4.37-2.04,6.71,0,2.85,2.49,6.69,2.15,10.14,1.22,2.03-.55,3.57-.17,5.3,.84,1.25,.73,2.73,1,4.11,1.47Z"/>
  <path class="cls-8" d="M276.65,115.72c.56-3.13,1.03-5.8,1.51-8.46,3.75,.92,8.63,4.31,9.97,8.92-4.05,1.67-7.91,.41-11.48-.45Z"/>
  <path class="cls-8" d="M328.33,121.14c2.48-3.73,2.53-7.05,2.79-10.34,.21-2.61,1.09-4.86,3.58-6.68,.16,2.72,.28,4.95,.43,7.17,.07,1.04,.1,2.1,.29,3.12,.23,1.24,1.2,2.79,.79,3.58-.69,1.31-2.09,2.45-3.44,3.05-1.11,.49-2.56,.1-4.44,.1Z"/>
  <path class="cls-8" d="M331.61,105.25c-2.06-4.32-3.94-8.28-5.9-12.4,1.27-.24,2.83-1.09,3.86-.62,1.86,.85,3.91,2.17,4.93,3.91,.81,1.39,.64,3.85,.12,5.57-.43,1.42-2.02,2.44-3.01,3.54Z"/>
  <path class="cls-8" d="M253.97,145.77c-1.73-.45-3.45-.91-5.18-1.36,.07-.24,.15-.48,.22-.71-1.42,.69-2.84,1.38-4.26,2.07-.03-.48-.06-.96-.09-1.44,.37-.41,.74-.83,1.11-1.24,.57,.21,1.14,.43,1.71,.64,.14-.11,.28-.22,.42-.33-.5-.74-1.01-1.48-1.52-2.22,.38-.89,.86-2,1.34-3.11,.68-1.71,1.32-3.44,2.06-5.12,.35-.79,.88-1.49,1.32-2.24,1.11,3.28,2.22,6.55,3.5,10.35-.86,.42-2.34,1.14-3.75,1.82,.99,.92,2.05,1.9,3.11,2.89Z"/>
  <path class="cls-4" d="M207.37,111.55c-4.08-1.89-7.67-3.55-11.48-5.31,3.4-2.81,7.18-3.85,11.48-4.04v9.35Z"/>
  <path class="cls-9" d="M220.59,129.09c1.22,3.46,2.43,6.92,3.72,10.57-2.25,1.48-5.16,2.98-8.31,1,1.13-3.98,2.18-7.7,3.23-11.42,.45-.05,.91-.1,1.36-.15Z"/>
  <path class="cls-8" d="M281.84,133.14c2.01,3.25,3.57,5.77,5.41,8.75-2.5,.39-4.87,.99-7.25,1.08-2.15,.08-3.01-1.2-2.1-3.17,1.09-2.38,2.64-4.51,3.94-6.65Z"/>
  <path class="cls-9" d="M192.05,127.97c1.2,3.6,2.41,7.19,3.69,11.01-2.03,2.03-5.2,2.63-8.02,1,2.64-3.45,3.13-7.61,3.44-11.84,.3-.06,.59-.12,.89-.18Z"/>
  <path class="cls-8" d="M311.69,133.31c1.86,3.12,3.28,5.49,4.84,8.11-2.48,1.23-5.13,2.02-7.95,1-.59-.21-1.42-1.64-1.25-1.96,1.31-2.44,2.85-4.74,4.36-7.15Z"/>
  <path class="cls-8" d="M164.48,128.87c1.45,3.03,3.07,6.41,4.71,9.84-2.78,2.26-5.47,2.75-8.06,1.35,1.15-3.84,2.31-7.69,3.35-11.18Z"/>
  <path class="cls-9" d="M231.51,128.26c3.06-.49,5.82-.92,9.31-1.47-1.56,4.07-2.83,7.39-4.24,11.08-1.71-3.24-3.22-6.1-5.07-9.6Z"/>
  <path class="cls-4" d="M251.7,111.78c0-1.46,0-2.92,0-4.39,2.53,.14,7.16,5.78,7.22,8.87-2.81,.36-5.16-1.01-7.51-2.29-.14-.08-.05-.65-.06-.99,.12-.4,.24-.8,.35-1.2Z"/>
  <path class="cls-8" d="M306.99,108.88c2.79,2.59,5.57,5.18,8.36,7.77-.09,.27-.18,.53-.27,.8-2.72,.2-5.94,.77-7.9-1.2-1.26-1.26-.76-4.5-1.05-6.86,.29-.17,.58-.34,.86-.51Z"/>
  <path class="cls-8" d="M326.45,135.89c-1.12-1.44-2.21-2.65-3.08-4.02-.98-1.54-1.71-2.97,.97-3.79,2-.61,3.8-1.97,5.69-2.99,.14,.18,.27,.37,.41,.55-1.28,3.28-2.55,6.56-3.99,10.26Z"/>
  <path class="cls-9" d="M120.72,126.41c1.75-.26,3.56-.52,5.75-.84-.97,5.03-1.85,9.62-2.63,13.69-.94-3.87-2-8.22-3.12-12.85Z"/>
  <path class="cls-9" d="M269.74,127.32c-1.13,3.89-2,6.86-2.99,10.26-1.48-2.73-2.74-5.05-4.32-7.96,2.44-.77,4.5-1.42,7.31-2.3Z"/>
  <path class="cls-9" d="M134.66,140.95c.79-3.66,1.41-6.58,2.08-9.71,1.47,2.43,2.89,4.78,4.62,7.66-2.23,.68-4.43,1.35-6.71,2.04Z"/>
  <path class="cls-9" d="M302.64,161.84c-1.02-3.56-.73-4.87,1.55-6.79,1.69,2.2,3.38,4.4,5.21,6.79h-6.76Z"/>
  <path class="cls-9" d="M296.63,137.12c-1.37-2.72-2.48-4.92-3.81-7.56,2.1-.72,4.09-1.4,6.09-2.09,.19,.18,.38,.36,.57,.55-.87,2.77-1.74,5.55-2.85,9.1Z"/>
  <path class="cls-9" d="M203.84,126.03h5.98c-.89,2.46-1.76,4.89-2.63,7.31-.28,.3-.57,.6-.85,.9l-2.55-7.34c.02-.29,.03-.58,.05-.87Z"/>
  <path class="cls-9" d="M149.68,133.66c.01-.46,.02-.93,.04-1.39-.24-1.61-.47-3.23-.81-5.53,1.33-.35,3.16-.83,5.46-1.43-.98,3.23-1.75,5.78-2.53,8.36h-2.16Z"/>
  <path class="cls-9" d="M331.58,123.33c-2.67,1.09-4.71,1.93-6.9,2.83-.66-1.5-1.34-3.03-2.01-4.53,3.42-2.4,5.66,.56,8.91,1.71Z"/>
  <path class="cls-16" d="M231.51,80.39c-4.91,.59-8.97-1.34-12.54-4.76,.24-.24,.48-.48,.72-.73,2.73,1.38,5.42,2.85,8.22,4.06,.59,.25,1.54-.46,2.33-.73,.42,.72,.85,1.44,1.27,2.16Z"/>
  <path class="cls-6" d="M207.25,96.63v4.08c-1.86,.32-3.72,.64-5.63,.96,.65-2.9,2.94-4.98,5.63-5.05Z"/>
  <path class="cls-9" d="M131.93,162.56c.08-1.99,.16-3.77,.24-5.57,2.66,.66,3.61,2.04,3.69,5.37-.3,.07-.62,.18-.93,.19-.89,.03-1.78,0-2.99,0Z"/>
  <path class="cls-8" d="M244.83,147.33c3.41,1.79,4.93,4.91,3.85,7.87-.29-.01-.58-.02-.87-.03-.99-2.61-1.98-5.23-2.97-7.84Z"/>
  <path class="cls-9" d="M159.54,161.92l.52-6.22c.39,.79,.77,1.59,1.08,2.21,.5-.06,1.29-.39,1.52-.14,.87,.94,1.55,2.08,2.53,3.47-2.32,.6-3.86,1.05-3.7-1.45-.6,.66-1.27,1.39-1.95,2.12Z"/>
  <path class="cls-9" d="M177.15,127.87c1.05-.55,2.3-1.21,3.56-1.87,.2,.2,.4,.4,.6,.6-.7,2.19-1.41,4.37-2.29,7.1-.68-2.11-1.2-3.74-1.87-5.83Z"/>
  <path class="cls-9" d="M256.4,141.78c5.81,2,4.42,1.22,4.77,5.34-1.89,.28-4.1-2.19-4.77-5.34Z"/>
  <path class="cls-9" d="M154.1,113.27c-.29-.54-.58-1.08-1-1.84,.73-.1,1.37-.2,2.02-.29,1.39,.34,2.78,.68,4.16,1.02,.07,.24,.15,.49,.22,.73-1.39,.92-2.79,1.84-4.35,2.86-.49-1.14-.77-1.81-1.06-2.49Z"/>
  <path class="cls-9" d="M330.29,142.2c-.74,1.62-1.36,2.98-1.98,4.35q-3.02-3.96-.98-5.96c.86,.47,1.76,.96,2.96,1.61Z"/>
  <path class="cls-9" d="M158.95,147.79c-1.32-1.87-2.64-3.75-4.13-5.87,1.47-.25,2.69-.46,4.02-.69,.21,2.07,.42,4.07,.62,6.06-.17,.17-.34,.33-.51,.5Z"/>
  <path class="cls-15" d="M251.1,130.7c-.45,.74-.97,1.45-1.32,2.24-.74,1.68-1.38,3.41-2.06,5.12-.32-.05-.65-.1-.97-.15,.84-2.8,1.68-5.6,2.52-8.4,.89-.08,2.22-.92,1.83,1.2Z"/>
  <path class="cls-9" d="M130.77,148.55c-1.51-2.03-2.75-3.7-4.2-5.67,1.44-.08,2.73-.15,4.2-.24v5.9Z"/>
  <path class="cls-9" d="M244.57,165.22c.53-2,.92-3.49,1.54-5.82,1.35,1.85,2.35,3.21,3.78,5.16-2.17,.27-3.57,.44-5.32,.66Z"/>
  <path class="cls-9" d="M249.83,158.3l2.85,3.04c-.21,.32-.63,.87-.59,.91,.62,.64,1.31,1.21,1.98,1.8-.07,.25-.15,.5-.22,.75-.94-.33-2.06-.43-2.79-1.05-.98-.83-2.17-1.86-.86-3.56,.24-.31-.23-1.25-.37-1.89Z"/>
  <path class="cls-9" d="M120.8,121.88c-1.03-.83-1.96-1.58-3.31-2.67,2.06-.89,3.94-1.71,5.82-2.52,.09,.18,.17,.36,.26,.53-.87,1.46-1.74,2.92-2.77,4.66Z"/>
  <path class="cls-15" d="M298.93,112.74c0,.82-.15,1.68,.02,2.46,.17,.79,.65,1.51,.99,2.25,1.1,1.14-.69,1.84-.38,2.86,0,0-.06,.04-.06,.04-.68-.44-1.37-.88-2.05-1.32,.01-2.1,.02-4.19,.03-6.29,.48,0,.97,0,1.45,0Z"/>
  <path class="cls-8" d="M327.92,155.2c-1.26,.14-2.07-.26-1.88-1.82,.03-.25,.03-.52-.02-.77-.52-2.66-.49-2.78,1.06-4.32,.28,2.3,.57,4.61,.85,6.91Z"/>
  <path class="cls-9" d="M319.38,94.29c-.29,1.93-.52,3.46-.81,5.46-1.3-1.72-2.37-3.14-3.79-5.02,1.8-.17,3.09-.3,4.61-.44Z"/>
  <path class="cls-9" d="M224,141.49c3.04-1.65,4.25-.46,4.83,4.8-1.68-1.67-3.17-3.15-4.83-4.8Z"/>
  <path class="cls-9" d="M282.06,107.22q-4.37-1.74-4.1-6.5c1.5,2.38,2.71,4.3,4.1,6.5Z"/>
  <path class="cls-9" d="M191.87,158.26c.63,1.46,1.26,2.91,2.03,4.7h-3.42c.11-1.51,.22-3.01,.33-4.52,.35-.06,.71-.12,1.06-.18Z"/>
  <path class="cls-9" d="M273.91,159.92c.98-.68,1.64-1.32,.91-2.79-.37-.74-.06-1.86,.33-2.97,.92,1.64,1.83,3.27,2.84,5.07-1.39,.35-2.05,.52-2.71,.68-.46,0-.91,0-1.37,0Z"/>
  <path class="cls-9" d="M273.91,159.92c.46,0,.91,0,1.37,0,.72,.88,1.44,1.76,2.38,2.9-1.52,.27-2.68,.48-3.84,.69-.3-.06-.59-.13-.89-.19,.33-1.13,.65-2.27,.98-3.4Z"/>
  <path class="cls-9" d="M308.96,133.87c.5-2.4,.92-4.42,1.34-6.44,1.32,3.32,2.15,4.71-1.34,6.44Z"/>
  <path class="cls-17" d="M164.51,171.36c2.14,1.77,4.29,3.53,6.43,5.3-1.21,.17-2.41,.33-3.62,.5-.48-.76-.92-1.55-1.44-2.28-.59-.83-1.25-1.6-1.88-2.4,.17-.38,.34-.75,.51-1.13Z"/>
  <path class="cls-9" d="M218.53,158.91c1.21,1.86,1.98,3.06,3.1,4.78-1.48,.13-2.36,.2-3.53,.3,.14-1.62,.25-2.94,.43-5.08Z"/>
  <path class="cls-9" d="M263.51,121.07c1.46-.14,2.93-.28,4.39-.41-.32,.68-.64,1.36-.97,2.04-.19,.79-.38,1.58-.57,2.37-.95-1.33-1.9-2.67-2.85-4Z"/>
  <path class="cls-9" d="M295.29,126.05c-.18-.63-.32-1.27-.54-1.87-.22-.61-.52-1.19-.96-2.18,1.2-.13,2.16-.23,3.43-.36-.55,1.74-.99,3.14-1.43,4.54-.17-.04-.34-.08-.5-.13Z"/>
  <path class="cls-9" d="M140.42,160.39c.21,.77,.42,1.53,.64,2.3-2.71,.66-3.63-.26-3.47-3.23,.89,.28,1.84,.59,2.8,.89,0,0,.04,.04,.04,.04Z"/>
  <path class="cls-9" d="M200.69,144.55c-1.65-1.39-3.06-2.58-4.48-3.77,2.6-1.78,3.75-.89,4.48,3.77Z"/>
  <path class="cls-9" d="M280.37,127.46c.97,2.18,2.97,4.54-.73,6.02,.25-2.07,.49-4.05,.73-6.02Z"/>
  <path class="cls-9" d="M215.45,145.51c-.73-1-1.51-1.98-2.15-3.04-.1-.16,.57-1.1,.64-1.07,.74,.35,1.69,.64,2.05,1.29,.35,.61,.07,1.63,.07,2.47l-.62,.36Z"/>
  <path class="cls-9" d="M263.51,121.07c.95,1.33,1.9,2.67,2.85,4,.38,2.48-1.31,.96-2.08,1.21-.33-1.38-.66-2.75-.99-4.13,.07-.36,.15-.73,.22-1.09Z"/>
  <path class="cls-6" d="M234.37,92.38c-.57-1.08-1.14-2.17-1.78-3.4h3.43c-.22,.98-.41,1.81-.61,2.65-.35,.25-.69,.5-1.04,.75Z"/>
  <path class="cls-17" d="M266.93,122.7c.32-.68,.64-1.36,.97-2.04,.66-1.4,1.14-3.02,3.01-2.75-.09,.72-.19,1.41-.28,2.1,0,0,0,0,0,0-.39,.25-.79,.51-1.18,.76-.34,.65-.68,1.29-1.02,1.94-.5,0-1,0-1.5,0Z"/>
  <path class="cls-9" d="M282.79,161.95c-.26,1.15-.68,1.66-1.99,1.28-1.78-.51-2.38-1.46-1.94-3.25,1.35,.67,2.62,1.29,3.89,1.92,0,0,.04,.05,.04,.05Z"/>
  <path class="cls-8" d="M225.87,164.82c-2.58,.35-2.94-2.14-4.58-4.07,2.61,.59,3.74,2.17,4.85,3.79-.09,.09-.18,.19-.27,.28Z"/>
  <path class="cls-9" d="M187.38,140.8c.08,1.5,.13,2.57,.23,4.43-1.31-1.26-2.15-2.06-3.31-3.17,1.15-.47,1.92-.78,3.08-1.26Z"/>
  <path class="cls-14" d="M251.7,111.78c-.12,.4-.24,.8-.35,1.2-.43-.28-.85-.56-1.28-.85,.04-2.42,.07-4.83,.11-7.24,.33,.74,.81,1.45,.96,2.23,.29,1.53,.39,3.11,.57,4.67Z"/>
  <path class="cls-9" d="M205.75,141.85c-.87,.89-1.75,1.79-2.93,3-.44-1.44-.66-2.15-.9-2.93,1.14-.26,2.17-.49,3.2-.72,.21,.22,.42,.43,.63,.65Z"/>
  <path class="cls-9" d="M292.33,93.78c-.08,1.37-.14,2.38-.25,4.04-1.11-1.3-1.89-2.21-3.06-3.57,1.38-.2,2.19-.31,3.3-.47Z"/>
  <path class="cls-9" d="M186.47,114.77c-1.47,.37-2.93,.79-4.42,1.08-.31,.06-.71-.39-1.06-.61,.3-.31,.58-.88,.89-.9,1.51-.09,3.02-.04,4.53-.04,.02,.16,.04,.32,.06,.47Z"/>
  <path class="cls-10" d="M262.09,166.23c-.03-2.28-.07-4.56-.1-6.84,1.41,1.44,1.47,5.33,.1,6.84Z"/>
  <path class="cls-9" d="M143.1,139.31c.67,.75,1.34,1.5,2.01,2.25-.43,.4-.86,.8-1.29,1.21-.52-.89-1.05-1.78-1.57-2.68,.28-.26,.56-.52,.85-.77Z"/>
  <path class="cls-9" d="M194.97,160.46c1.26,.85,2.52,1.71,4.22,2.86-2.81,.38-4.18-.33-4.16-2.89l-.06,.03Z"/>
  <path class="cls-9" d="M264.74,93.08c-.32,1.5-.51,2.4-.8,3.72-.65-1.21-1.11-2.08-1.63-3.04,.25-.07,1.04-.29,2.43-.68Z"/>
  <path class="cls-14" d="M251.7,101.12c.83,1.42,1.66,2.84,2.49,4.26-2.31-.44-3.68-1.5-2.49-4.26Z"/>
  <path class="cls-17" d="M222.76,173.08c.44,1.18,.88,2.36,1.32,3.54,0,0,.03-.05,.03-.05-.87-.56-1.73-1.12-2.6-1.67,.42-.61,.84-1.21,1.25-1.82Z"/>
  <path class="cls-17" d="M258.74,117c.72-.12,1.49-.45,2.12-.26,.32,.1,.4,1.13,.8,2.46-1.46-.71-2.22-1.08-2.97-1.44,.02-.25,.03-.51,.05-.76Z"/>
  <path class="cls-10" d="M262,153.61c.34,1.22,.69,2.44,1.03,3.66-.37,.58-.74,1.16-1.11,1.74-.35-1.24-.7-2.48-1.05-3.71,.37-.56,.75-1.12,1.12-1.68Z"/>
  <path class="cls-14" d="M164.2,154.27c-.19,.63-.37,1.25-.56,1.88-.21,.07-.42,.13-.64,.2-.58-1.16-1.16-2.32-1.99-3.99,1.29,.73,2,1.13,2.72,1.53,0,0,.06,.07,.05,.07,.13,.12,.27,.23,.41,.35v-.04Z"/>
  <path class="cls-3" d="M238.56,54.22c-1.88,.46-3.76,.92-5.64,1.38,0-.17,.02-.34,.03-.51,1.64-.48,3.29-.95,4.93-1.43,.23,.19,.45,.37,.68,.56Z"/>
  <path class="cls-9" d="M256.27,146.09c-.88-.93-1.76-1.85-2.63-2.78,.26-.24,.52-.48,.78-.72,.77,1.01,1.53,2.02,2.3,3.03-.15,.15-.3,.31-.44,.46Z"/>
  <path class="cls-3" d="M228.51,56.64c-1.64,.7-3.27,1.39-4.91,2.09,1.08-2.19,3.21-1.55,4.91-2.09Z"/>
  <path class="cls-14" d="M159.49,152.18c-.16-.56-.33-1.12-.49-1.68,.2-.47,.4-.95,.63-1.49,2.74,1.21,.72,2.17-.14,3.17Z"/>
  <path class="cls-16" d="M337.44,145.77c-.18-.7-.36-1.4-.54-2.1,.34,0,.67-.01,1.01-.02,.33,.7,.66,1.41,.99,2.11-.49,0-.97,0-1.46,0Z"/>
  <path class="cls-8" d="M326.14,159.55c-.04-1.35-.64-3.13,1.76-2.62,.07,1.38,.53,3.04-1.76,2.62Z"/>
  <path class="cls-14" d="M192.05,127.97c-.3,.06-.59,.12-.89,.18-.27-1.62,.1-2.76,1.89-2.82-.03,.35-.07,.7-.1,1.05l-.9,1.58Z"/>
  <path class="cls-16" d="M212.05,79.12c.4-1.01,.8-2.02,1.2-3.04-.38,1.02,.9,2.79-1.2,3.04Z"/>
  <path class="cls-11" d="M232.95,55.59c-1.49,.36-2.97,.71-4.46,1.07,1.49-.36,2.97-.71,4.46-1.07Z"/>
  <path class="cls-16" d="M329.53,160.46c-.06,.87-.13,1.74-.19,2.61-1.3-.98-1.45-1.87,.19-2.61Z"/>
  <path class="cls-16" d="M220.59,129.09c-.45,.05-.91,.1-1.36,.15,.2-.57,.39-1.14,.59-1.71,.26,.52,.51,1.04,.77,1.56Z"/>
  <path class="cls-12" d="M247.8,155.17c.29,.01,.58,.02,.87,.03,.19,.66,.38,1.31,.57,1.97-.48-.67-.96-1.33-1.45-2Z"/>
  <path class="cls-14" d="M203.84,126.03c-.02,.29-.03,.58-.05,.87-.3-.68-.6-1.36-.91-2.03,.33-.02,.67-.04,1-.06-.01,.41-.03,.81-.04,1.22Z"/>
  <path class="cls-7" d="M352.22,121.15c.3-.7,.61-1.4,.91-2.1-.3,.7-.61,1.4-.91,2.1Z"/>
  <path class="cls-14" d="M160.1,144.57c.3,.75,.59,1.5,.89,2.24-.3-.75-.59-1.5-.89-2.24Z"/>
  <path class="cls-9" d="M245.77,143.08c-.37,.41-.74,.83-1.11,1.24,0,0,.02-.03,.02-.03,0-.26,.02-.52,.03-.79,.36-.14,.71-.28,1.07-.42Z"/>
  <path class="cls-16" d="M210.81,127.94c-.33,.54-.67,1.07-1,1.61,.33-.54,.67-1.07,1-1.61Z"/>
  <path class="cls-17" d="M277.27,143.17c-.51-.35-1.03-.7-1.54-1.05,.51,.35,1.03,.7,1.54,1.05Z"/>
  <path class="cls-9" d="M256.72,145.63c.31,.54,.63,1.07,.94,1.61-.13,.14-.25,.28-.38,.43-.33-.52-.67-1.05-1.01-1.57,.15-.15,.29-.31,.44-.46Z"/>
  <path class="cls-16" d="M206.34,134.25c.28-.3,.57-.6,.85-.9,.12,.49,.24,.99,.36,1.48,0,0,0,0,0,0-.4-.19-.8-.38-1.21-.58Z"/>
  <path class="cls-16" d="M206.27,123.75c.04,.34,.08,.69,.13,1.03-.28-.19-.56-.37-.84-.56,.24-.16,.48-.31,.71-.47Z"/>
  <path class="cls-16" d="M208.71,133.18c-.29,.36-.59,.72-.88,1.08,.29-.36,.59-.72,.88-1.08Z"/>
  <path class="cls-9" d="M257.66,147.24c.24,.28,.47,.56,.71,.85-.36-.14-.72-.28-1.09-.42,.13-.14,.25-.28,.38-.43Z"/>
  <path class="cls-17" d="M197.04,170.4c-.03,.35-.05,.7-.08,1.05-.49,.09-.97,.18-1.46,.27,0,0,0-.01,0-.01,.51-.43,1.02-.87,1.53-1.3Z"/>
  <path class="cls-14" d="M199.14,124.64c.79,.04,1.59,.07,2.38,.11-.79-.04-1.59-.07-2.38-.11Z"/>
  <path class="cls-16" d="M327.05,168.3c-.01,.18-.02,.35-.03,.53-.51-.27-1.02-.53-1.52-.8,0,0,.01-.02,.01-.02,.51,.1,1.03,.2,1.54,.3Z"/>
  <path class="cls-16" d="M272.94,163.32c.3,.06,.59,.13,.89,.19,0,.36,0,.71,0,1.07-.33,.04-.66,.09-.98,.13,.03-.46,.06-.93,.09-1.39Z"/>
  <path class="cls-17" d="M256.58,118.01c-.7-.16-1.39-.33-2.09-.49,.7,.16,1.39,.33,2.09,.49Z"/>
  <path class="cls-17" d="M285.49,143.74c-.12,.08-.22,.16-.33,.24-.08-.16-.16-.33-.24-.49,.13-.05,.29-.16,.38-.12,.09,.04,.13,.24,.19,.38Z"/>
  <path class="cls-15" d="M249.63,127.44c-.25-.29-.5-.57-.75-.86,.25,.29,.5,.57,.75,.86Z"/>
  <path class="cls-15" d="M301.43,117.72c.49-.08,.97-.16,1.46-.24-.49,.08-.97,.16-1.46,.24Z"/>
  <path class="cls-17" d="M203.81,175.85c-.49-.06-.98-.12-1.47-.18,.49,.06,.98,.12,1.47,.18Z"/>
  <path class="cls-16" d="M206.37,84.62c.46,.03,.92,.07,1.37,.1-.46-.03-.92-.07-1.37-.1Z"/>
  <path class="cls-16" d="M231.03,77.41c.17,.59,.33,1.17,.5,1.76-.17-.59-.33-1.17-.5-1.76Z"/>
  <path class="cls-14" d="M158.95,147.79c.17-.17,.34-.33,.51-.5,.11,.23,.23,.47,.34,.7-.28-.07-.57-.14-.85-.21Z"/>
  <path class="cls-16" d="M208.69,124.75c.36-.08,.71-.17,1.07-.25-.36,.08-.71,.17-1.07,.25Z"/>
  <path class="cls-15" d="M231.66,64.04s.03-.03,.03-.03c.42-.11,.83-.21,1.25-.32-.43,.12-.86,.23-1.28,.35Z"/>
  <path class="cls-16" d="M312.75,173.09c.33-.06,.65-.13,.98-.19-.08,.37-.16,.74-.23,1.11h.03c-.26-.31-.52-.62-.77-.92Z"/>
  <path class="cls-12" d="M195.03,160.43c-.11-.18-.22-.37-.33-.55,.12,0,.23,0,.35-.01-.03,.2-.05,.4-.08,.6,0,0,.06-.03,.06-.03Z"/>
  <path class="cls-14" d="M190.4,126.31c0-.33-.01-.66-.02-.98,0,.33,.01,.66,.02,.98Z"/>
  <path class="cls-17" d="M212.13,174.53c.34-.04,.69-.08,1.03-.12-.34,.04-.69,.08-1.03,.12Z"/>
  <path class="cls-14" d="M199.93,125.69c-.43-.08-.85-.15-1.28-.23,.43,.08,.85,.15,1.28,.23Z"/>
  <path class="cls-16" d="M213.4,125.38c-.34,.02-.68,.04-1.02,.06,.34-.02,.68-.04,1.02-.06Z"/>
  <path class="cls-16" d="M273.11,157.74c.07-.35,.13-.69,.2-1.04-.07,.35-.13,.69-.2,1.04Z"/>
  <path class="cls-14" d="M342.42,88.43c.05-.26,.1-.53,.14-.79-.05,.26-.1,.53-.14,.79Z"/>
  <path class="cls-16" d="M214,77.17c-.08,.34-.17,.69-.25,1.03,.08-.34,.17-.69,.25-1.03Z"/>
  <path class="cls-5" d="M162.28,171.5s.03,0,.03,0c0,0-.02,0-.03,0Z"/>
  <path class="cls-17" d="M259.58,168.84c-.17,.1-.34,.19-.51,.29,.17-.1,.34-.19,.51-.29Z"/>
  <path class="cls-16" d="M268.62,165.75c-.22,.07-.44,.14-.67,.21,.22-.07,.44-.14,.67-.21Z"/>
  <path class="cls-12" d="M226.14,164.54c.11,.11,.22,.22,.33,.34-.2-.02-.39-.04-.59-.06,.09-.09,.18-.19,.26-.28Z"/>
  <path class="cls-15" d="M225.06,64.01c.09,.19,.18,.37,.27,.56-.09-.19-.18-.37-.27-.56Z"/>
  <polygon class="cls-5" points="313.52 174.01 313.49 174.01 313.45 174.09 313.52 174.11 313.52 174.01"/>
  <path class="cls-15" d="M228.32,64.41c.22-.05,.45-.1,.67-.15-.22,.05-.45,.1-.67,.15Z"/>
  <path class="cls-10" d="M263.02,157.25c.06,.19,.12,.38,.18,.57-.06-.19-.12-.38-.18-.57Z"/>
  <path class="cls-15" d="M234.01,64.57c-.29,.05-.58,.1-.87,.16,.29-.05,.58-.1,.87-.16Z"/>
  <path class="cls-16" d="M309.19,174.19c-.22-.01-.43-.03-.65-.04,.22,.01,.43,.03,.65,.04Z"/>
  <path class="cls-17" d="M204.46,174.96c.2,.02,.4,.04,.6,.06-.2-.02-.4-.04-.6-.06Z"/>
  <path class="cls-17" d="M208.58,175.02c.22-.03,.44-.07,.66-.1-.22,.03-.44,.07-.66,.1Z"/>
  <path class="cls-17" d="M228.96,175.34c-.17-.08-.33-.16-.5-.24,.17,.08,.33,.16,.5,.24Z"/>
  <path class="cls-17" d="M209.26,175.88l-.2,.12s-.22-.07-.22-.07c.14-.02,.28-.03,.43-.05Z"/>
  <path class="cls-2" d="M244.71,143.5c0,.26-.02,.52-.03,.79,0-.26,.02-.52,.03-.79Z"/>
  <path class="cls-14" d="M193.13,127.77c.06,.22,.12,.44,.19,.66-.06-.22-.12-.44-.19-.66Z"/>
  <path class="cls-14" d="M189.51,124.92c-.21,0-.42,0-.63-.01,.21,0,.42,0,.63,.01Z"/>
  <path class="cls-17" d="M268.05,123.83c-.03,.18-.07,.36-.1,.53,.03-.18,.07-.36,.1-.53Z"/>
  <path class="cls-17" d="M257.05,118.28l-.49-.28c.16,.09,.33,.19,.49,.28Z"/>
  <path class="cls-15" d="M298.5,110.56c.06,.12,.14,.24,.19,.37,.02,.05-.04,.13-.07,.2-.05-.12-.12-.24-.15-.37-.02-.06,.02-.13,.04-.2Z"/>
  <path class="cls-17" d="M157.16,110.47c.19,.03,.38,.07,.58,.1-.19-.03-.38-.07-.58-.1Z"/>
  <path class="cls-14" d="M250.03,104.12c-.07-.27-.15-.53-.22-.8,.07,.27,.15,.53,.22,.8Z"/>
  <path class="cls-16" d="M211.62,125.84c-.11,.2-.22,.4-.33,.6,.11-.2,.22-.4,.33-.6Z"/>
  <path class="cls-7" d="M321.11,32.55c-.88,.08-1.75,.16-2.63,.23-.05-.15-.1-.3-.15-.45,1.19-.42,2.36-.93,3.57-1.26,10.01-2.74,20.02-5.47,30.05-8.13,1.13-.3,2.36-.22,3.54-.31-5.48,1.61-10.96,3.25-16.46,4.84-5.97,1.72-11.94,3.39-17.92,5.09Z"/>
  <path class="cls-8" d="M69.34,172.29c-2.88-.27-5.77-.54-8.65-.8,.02-.38,.04-.75,.06-1.13,2.65,.15,5.3,.29,7.95,.44,.04-.24,.09-.49,.13-.73-2.17-.44-4.34-.89-6.51-1.33-.01-.18-.03-.36-.04-.54,1.39-.12,2.78-.38,4.16-.33,5.65,.19,11.29,.64,16.94,.65,3.42,0,6.86-.51,10.27-.97,1.89-.26,3.17-.12,3.43,2.34,.12,1.17,.79,2.27,1.21,3.41-4.71,2.76-32.85,2.76-36.31-.29h7.34c.01-.24,.02-.47,.03-.71Z"/>
  <path class="cls-8" d="M112.72,177.18c-.48,.02-.96,.04-1.44,.06-.82,0-1.64,0-2.47,0-.47-.02-.94-.04-1.41-.06-.51-.12-1.01-.24-1.52-.37-.15-.05-.31-.1-.46-.15-2.78-1.17-5.37-2.86-6.49-5.82-.72-1.91-1.08-4.59-.35-6.34,.82-1.95,3.24-2.91,5.5-2.27,.74,.21,1.8,1.24,1.83,1.93,.25,5.59,3.19,9.1,7.51,11.66,.21,.12,.41,.26,.86,.54-.75,.39-1.16,.6-1.58,.81Z"/>
  <path class="cls-8" d="M119.6,166.18c-2.91,1.57-5.52,3.09-8.23,4.38-1.48,.7-3.02-.75-3.5-3.18-.3-1.54-.6-3.01,1.69-3.43,3.58-.66,6.88-.62,10.03,2.24Z"/>
  <path class="cls-8" d="M113.24,161.88c-3.35,1.15-6.41,1.35-8.22-1.15-1.02-1.4-.36-4.18-.45-6.34,.34-.13,.68-.26,1.01-.38,2.47,2.54,4.94,5.07,7.66,7.87Z"/>
  <path class="cls-3" d="M205.37,63.05c1.72-.48,3.45-.96,5.5-1.53-.25,.6-.36,.85-.29,.69,1.04,1.4,2.01,2.7,3.28,4.42-4.93,1.14-9.22,2.12-13.5,3.11l.05,.87c1.28,1.22,2.57,2.44,4.1,3.89-5.37,1.58-10.4,1.97-15.45,.08-1.68-.63-2.08-2.56-.56-3.85,1.81-1.52,3.95-2.6,5.94-3.86,.07,.34,.13,.69,.2,1.03-.75,.57-1.51,1.13-2.26,1.7-.51,1.01-1.69,2.52-1.42,2.93,.9,1.34,2.37,2.02,4.09,1.05-.67-1.4-4.3-.17-2.19-3.32,4.44-2.12,8.88-4.23,13.49-6.42-.42-.16-.71-.27-1-.39,.01-.13,.02-.27,.01-.4Z"/>
  <path class="cls-3" d="M238.56,54.22c-.23-.19-.45-.37-.68-.56,4.43-1.28,8.86-2.56,13.29-3.84,7.4-2.04,14.81-4.08,22.21-6.11,.18,.15,.37,.3,.55,.46-4.29,1.33-8.55,2.73-12.86,3.96-7.16,2.05-14.35,3.99-21.53,5.97-.31,.09-.65,.08-.97,.12Z"/>
  <path class="cls-3" d="M194.65,67.91c-.07-.34-.13-.69-.2-1.03,3.42-1.2,6.83-2.4,10.25-3.6,.08,.09,.15,.19,.22,.28-3.42,1.45-6.85,2.89-10.27,4.34Z"/>
  <path class="cls-12" d="M205.37,63.05c0,.13,0,.27-.01,.4-.14,.09-.28,.13-.44,.11-.07-.09-.14-.19-.22-.28,.22-.08,.45-.16,.67-.23Z"/>
  <path class="cls-13" d="M325.5,168.03c.51,.27,1.01,.53,1.52,.8,4.2,.32,8.21,.1,10.82-4.2,.33-.53,.66-1.05,1-1.58-.02-4.32-.03-8.63-.05-12.95-.31-.75-.61-1.5-.92-2.24-.1-.12-.12-.26-.06-.4-.04-.19-.08-.38-.13-.57-.08-.37-.17-.75-.25-1.12,.49,0,.97,0,1.46,0,.16,.85,.31,1.69,.47,2.54,.04,.17,.07,.35,.11,.52,.65,1.75,1.69,.91,2.67,.44,.12,.32,.25,.65,.37,.97-.85,.63-1.7,1.27-2.55,1.9-.11,.14-.1,.27,.04,.38-.01,3.2-.02,6.4-.03,9.6l-.12,1c-.63,1.22-1.07,2.62-1.92,3.63-2.9,3.43-6.82,3.53-10.77,3.46-.69-.01-1.39,.42-2.08,.65,0,.37-.02,.73-.03,1.1-1.41-.03-2.82-.05-4.23-.08-.05-.17-.13-.32-.23-.45,0-.18,.01-.36,.02-.55,1.63-.95,3.25-1.9,4.88-2.84Z"/>
  <path class="cls-13" d="M342.15,149.26c.66-.52,1.32-1.04,1.98-1.55,.21,.23,.43,.46,.64,.69-.75,.61-1.5,1.22-2.24,1.84-.12-.32-.25-.65-.37-.97Z"/>
  <path class="cls-16" d="M346.22,143.65l-.94,1.59,.94-1.59Z"/>
  <path class="cls-13" d="M344.12,147.71c.16-.22,.33-.44,.49-.66,.26,.16,.53,.32,.79,.48-.21,.29-.43,.58-.64,.87-.21-.23-.43-.46-.64-.69Z"/>
  <path class="cls-16" d="M339.48,148.82c-.04-.17-.07-.35-.11-.52,.06,.11,.12,.22,.16,.34,.02,.05-.03,.12-.05,.18Z"/>
  <path class="cls-17" d="M139.81,176.79c-1.73-.68-3.93-.64-4.39-3.26,1.47,.72,2.94,1.43,4.41,2.15,0,.37-.02,.74-.03,1.11Z"/>
  <path class="cls-8" d="M344.76,148.39c.21-.29,.43-.58,.64-.87,.2-.02,.41-.04,.61-.06,.11,4.15,.22,8.3,.34,12.44-1.55,5.33-4.56,9.23-9.62,11.11-3.9,1.04-7.79,1.15-11.65-.17,.69-.23,1.39-.66,2.08-.65,3.95,.06,7.87-.04,10.77-3.46,.85-1.01,1.29-2.41,1.92-3.63,.04-.33,.08-.67,.12-1,.01-3.2,.02-6.4,.03-9.6,.11-.14,.09-.27-.04-.38,.85-.63,1.7-1.27,2.55-1.9,.75-.61,1.5-1.22,2.24-1.84Z"/>
  <path class="cls-17" d="M105.89,176.81c.51,.12,1.01,.24,1.52,.37-.51-.12-1.01-.24-1.52-.37Z"/>
  <path class="cls-13" d="M164.2,154.31c-.14-.11-.28-.23-.41-.35,.14,.11,.28,.23,.41,.35Z"/>
  <path class="cls-16" d="M337.87,147.86c.31,.75,.61,1.5,.92,2.24-.31-.75-.61-1.5-.92-2.24Z"/>
  <path class="cls-16" d="M338.84,163.05c-.33,.53-.66,1.05-1,1.58,.33-.53,.66-1.05,1-1.58Z"/>
  <path class="cls-16" d="M337.69,146.88c.04,.19,.08,.38,.13,.57-.06-.12-.14-.24-.18-.37-.02-.05,.04-.13,.06-.2Z"/>
  <path class="cls-13" d="M197.04,170.4c-.51,.43-1.02,.87-1.53,1.3-1.05,.11-2.09,.22-3.14,.33-.1-.2-.21-.39-.31-.59,0-.14,.01-.28,0-.42,1.73-.56,3.45-1.12,5.18-1.68-.07,.35-.14,.71-.21,1.06Z"/>
  <path class="cls-13" d="M192.55,174.06c-2.48-1.4-4.98-.73-7.49-.16-.15,.03-.43-.59-.65-.91,2.03-.53,4.06-1.06,6.1-1.58,.52,.01,1.04,.02,1.56,.03,.1,.2,.21,.39,.31,.59,.06,.68,.12,1.35,.18,2.03Z"/>
  <path class="cls-13" d="M177.05,174.61c-3.14-.42-6.42-.47-8.66-3.44,.48,0,.99-.09,1.43,.05,2.01,.63,4.03,1.27,6,2.04,.5,.2,.83,.89,1.23,1.35Z"/>
  <path class="cls-8" d="M183.94,172.98c-.31,.45-.58,1.23-.94,1.28-1.82,.22-3.66,.25-5.5,.35,.27-.38,.5-1.06,.81-1.1,1.86-.25,3.75-.36,5.62-.52Z"/>
  <path class="cls-17" d="M192.06,171.44c-.52-.01-1.04-.02-1.56-.03,.52-.13,1.05-.26,1.57-.39,0,.14,0,.28,0,.42Z"/>
  <path class="cls-13" d="M217.94,124.24c-.26,.28-.52,.55-.78,.83,.26-.28,.52-.55,.78-.83Z"/>
  <path class="cls-13" d="M269.45,120.77c.39-.25,.79-.51,1.18-.76-.39,.25-.79,.51-1.18,.76Z"/>
  <path class="cls-13" d="M313.45,174.09s.04-.08,.04-.08c.08-.37,.16-.74,.23-1.11,1.77-.5,3.54-1,5.32-1.5,.52,0,1.04,.01,1.56,.02,.1,.14,.18,.29,.23,.45-2.46,.74-4.92,1.48-7.38,2.22Z"/>
  <path class="cls-8" d="M324.78,161.64c.24,.68,.49,1.36,.73,2.04l-.63,.25c-.23-.68-.46-1.37-.7-2.05l.59-.24Z"/>
  <path class="cls-16" d="M320.6,171.42c-.52,0-1.04-.01-1.56-.02,.53-.18,1.05-.35,1.58-.53,0,.18-.01,.36-.02,.55Z"/>
  <path class="cls-13" d="M195.01,176.15c-1.58,.32-2.05-.05-1.96-1.56,.65,.52,1.31,1.04,1.96,1.56Z"/>
  <path class="cls-13" d="M193.03,174.57c-.2-.02-.39-.04-.59-.06,.04-.15,.08-.3,.12-.45,.14-.04,.28-.08,.42-.13,.02,.21,.04,.42,.05,.63Z"/>
  <path class="cls-7" d="M204.92,63.57c.16,.01,.3-.02,.44-.11,.29,.11,.58,.22,1,.39-4.61,2.19-9.05,4.31-13.49,6.42-.16-.22-.32-.44-.47-.66,.75-.57,1.51-1.13,2.26-1.7,3.42-1.45,6.85-2.89,10.27-4.34Z"/>
  <path class="cls-7" d="M192.87,70.27c-2.11,3.15,1.52,1.91,2.19,3.32-1.71,.97-3.18,.29-4.09-1.05-.27-.41,.91-1.92,1.42-2.93,.16,.22,.32,.44,.47,.66Z"/>
  <path class="cls-16" d="M339.98,162.11c-.04,.33-.08,.67-.12,1,.04-.33,.08-.67,.12-1Z"/>
  <path class="cls-16" d="M339.97,152.13c.13,.11,.15,.24,.04,.38-.14-.11-.15-.24-.04-.38Z"/>
</svg>