<?xml version="1.0" encoding="UTF-8"?>
<svg id="Layer_1" data-name="Layer 1" xmlns="http://www.w3.org/2000/svg" viewBox="0 0 414 200">
  <defs>
    <style>
      .cls-1 {
        fill: #f7b7d3;
      }

      .cls-2 {
        fill: #f8af41;
      }

      .cls-3 {
        fill: #eeece0;
      }

      .cls-4 {
        fill: #fff9b8;
      }

      .cls-5 {
        fill: #fff200;
      }

      .cls-6 {
        fill: #eceadf;
      }

      .cls-7 {
        fill: #fdfcfc;
      }

      .cls-8 {
        fill: #9ed2f1;
      }

      .cls-9 {
        fill: #332e2d;
      }

      .cls-10 {
        fill: #bbac99;
      }

      .cls-11 {
        fill: #bdb8b3;
      }

      .cls-12 {
        fill: #cac5c1;
      }

      .cls-13 {
        fill: #43403a;
      }

      .cls-14 {
        fill: #6d6459;
      }

      .cls-15 {
        fill: #767475;
      }

      .cls-16 {
        fill: #4f4d47;
      }
    </style>
  </defs>
  <path class="cls-13" d="M272.66,64.34c3.29-.47,6.57-.64,9.85,.08,.32,.01,.65,.02,.97,.04,.51,.11,1.02,.22,1.52,.33,.22,.05,.43,.11,.65,.16,.48,.1,.97,.2,1.45,.3,.19,.08,.39,.17,.58,.25,.19-.06,.35,0,.47,.14,.26,.37,.65,.43,1.07,.39,.18,.08,.37,.15,.55,.23,.46,.44,.95,.4,1.47,.12,.51-.13,1.02-.26,1.53-.39,.77,.06,1.56,.27,2.24-.28,.55-.03,1.1-.07,1.65-.1,.39,.49,.73,.41,1.04-.08,5.6-.6,11.09-.19,16.39,1.76,5.31,1.96,9.11,5.5,10.93,10.79,.38,1.1,.96,1.74,1.89,2.26,3.64,2.05,5.74,5.19,6.72,9.09-.3,.31-.59,.61-.89,.92-1.21-1.98-1.69-4.35-3.3-6.12-5.05-5.55-11.87-5.34-17.79-3.26-1.66,.58-.59,1.24,.07,1.76,3.33,2.65,6.59,5.37,10.11,7.79,4.37,3.01,7.54,7.11,10.05,12.48,.66-2.27,1.13-3.87,1.59-5.46,.48-.48,.48-.98,.06-1.49-.07-1.05-.13-2.1-.2-3.14,.39,0,.78-.01,1.17-.02,.39,.49,.4,1.04,.26,1.61-.58,.67-.58,1.34,.03,2,.21,1.47-.28,2.83-.69,4.2-.07,.2-.15,.4-.22,.59-.19,.66-.38,1.32-.57,1.98-.3,.06-.41,.23-.32,.51-.61,1.2-.17,2.39,.03,3.58,.06,.22,.12,.44,.18,.67,.02,1.83,.03,3.65,.05,5.48-.34,.32-.38,.7-.22,1.12-.99,4.68-3.1,8.85-6.38,12.37-1.27,1.36-1.68,2.65-1.16,4.33-.12,.69-.28,1.39,.42,1.91,.14,.69,.28,1.39,.42,2.08-.75,.7,.09,1.23,.21,1.84,.28,.95,.3,1.91,.01,2.86-1.12,1-.46,1.98,.04,2.96,.26,1.07,.52,2.13,.79,3.2-.59,.36-.28,1.31-1.06,1.55-.24-.94-.47-1.89-.78-3.13-1.55,1.8-2.85,3.49-4.83,4.32-1.3,.55-1.57,1.38-1.5,2.63,.17,3.27,.04,6.52-.5,9.77-.8,4.76-3.42,7.8-8.28,8.94-.2,.04-.39,.08-.59,.11-1.38,.02-2.77,.04-4.15,.06-.7-.29-1.74-.84-1.86,.24-.1,.91,1.12,.72,1.87,.75,.54,.17,1.07,.33,1.61,.5-.01,.3-.02,.6-.03,.9-.78-.03-1.68,.17-2.33-.13-2.62-1.22-4.94-.57-7.44,.5-4.57,1.96-9.46,2.75-14,.28-2.53-1.37-4.61-1.85-7.09-.48-.58,.34-.55,.69,0,1.04,.06,.06,.16,.12,.16,.17-.02,.13-.09,.24-.13,.37-1.25,1.13-1.89-.83-3.19-.52-4.83,1.16-9.46,.95-13.28-2.74-.78-.75-1.56-.16-2.15,.22-1,.65,0,1.24,.36,1.64,1.7,1.91,3.69,3.48,6.08,4.52,.03,.68,.38,1.04,1.1,.99,5,1.58,10.07,1.37,15.15,.47,.91,1.32-.35,1.45-1.06,1.56-1.69,.26-3.42,.33-5.13,.47-.85-.63-1.71-.59-2.58-.04-2.95,.03-5.73-.68-8.4-1.88-.23,.13-.47,.26-.7,.38-2.96,1.54-6.25,1.35-9.42,1.55-4.05,.25-8.08-.17-11.91-1.66-1.6-.62-3.08-.2-4.62,.24-1,.29-2.06,.37-3.1,.54-.22,.06-.43,.13-.65,.19-2.12,.51-4.28,.75-6.47,.63-.67-.54-1.35-.53-2.03-.01-2.91-.03-5.78-.3-8.53-1.3-.28-.61-.78-.64-1.35-.51-.92,.51-1.88,.86-2.97,.8-.44-.47-.77-.31-1.04,.18-.22,.04-.45,.08-.67,.12-.53-.15-1.03-.17-1.42,.3-1.26,.14-2.52,.29-3.78,.43-3.83,.14-7.66,.19-11.48-.22-1.39,.09-2.72-.11-3.97-.72,0,0-.07-.02-.07-.02-.31-.07-.63-.14-.94-.22-.21-.06-.42-.11-.63-.17-3.14-1.13-5.73,.91-8.57,1.46-7.38,1.44-14.61,1.96-21.54-1.65-.21-.12-.42-.25-.62-.37-.33-.18-.66-.37-.99-.55-1.14-2.02-4.87-2.03-6.91-.02-4.04,.89-8.13,.8-12.22,.52-.31-.47-.64-.57-1.03-.08-.76,.09-1.48-.06-2.16-.39,0-.55,.01-1.1,.02-1.65,1.44,.14,2.87,.27,4.31,.41,.72,.35,1.47,.21,2.21,.13,.24,0,.49,0,.73,0,.32,0,.65-.01,.97-.02,.34,0,.68,0,1.02,0,.81,.03,1.65,.28,2.39-.26,1.03-.11,2.06-.16,3.08-.33,1.75-.31,3.97,.13,4.41-2.44,.8-.27,1.01,.49,1.48,.8,2.29,1.52,4.23,3.56,7.02,4.35,7.12,2.02,14.12,1.17,21.07-.81,.45-.13,1.13-.16,1.11-.87-.02-.64-.64-.72-1.08-.98-1.98-1.15-3.9-2.42-5.24-4.26-.96-1.32-1.93-1.34-3.37-.91-3.03,.89-6.14,1.52-9.34,1.43-.16,0-.32,0-.49,0-3.71,.21-7.18-.3-9.72-3.29-1.15-1.35-2.15-.16-3,.2-1.4,.6-.04,1.36,.2,2.04,.29,.85,1.52,1.17,1.36,2.28-1.13,1.23-1.59-.2-1.81-.65-1.35-2.87-3.34-2.45-6-1.82-6.41,1.53-12.91,2.68-18.31-2.82-1.07-1.09-2.43,.07-3.32,.71-1.05,.75,.13,1.53,.58,2.12,1.13,1.47,2.75,2.39,4.35,3.3-.47,.16-.95,.32-1.42,.48-.63-.3-1.57-.43-1.85-.92-2.83-5.03-6.96-3.62-11.11-2.25-.25,.08-.51,.14-.78,.17-5.19,.52-10.32,.81-14.16-3.64-1.04-1.2-1.97-.22-2.79,.23-1.11,.61-.23,1.34,.19,1.89,1.13,1.46,2.6,2.54,4.29,3.36,2.55,1.23,5.33,1.75,8.04,2.48v1.83c-.35-.11-.71-.22-1.06-.33-.49-1.57-1.88-.86-2.9-1.09-.62-.14-1.25-.28-1.87-.42-.36-.52-.72-.52-1.08,0-.67,.16-1.33,.32-2,.48-.64-.04-1.16-.22-1.17-.97,.42-.06,.85-.12,1.27-.17,.16-.02,.33-.05,.49-.07-.11-.11-.22-.21-.33-.32-2.04-1.35-4.15-2.64-5.43-4.78-.63-1.06-1.35-.78-2.23-.45-2.97,1.13-6.03,1.89-9.2,2.23-1.31-.57-.84-1.13,.01-1.69,.75,.18,1.47,.07,2.19-.17,.18-.04,.36-.07,.54-.11,7.03-1.11,12.98-4.86,19.48-7.42-7.57-3.69-14.81-2.33-21.94,1.02-1.3,.03-1.69-.89-1.13-1.66,2.15-2.99,1.45-5.96,.31-9-.08-.23,0-.51,0-.77,1.38-.24,1.57,.81,1.88,1.68,.86,2.37,1.1,4.78,.04,7.4,2.05-.55,3.72-1.03,5.4-1.45,.92-.23,1.22-.81,1.34-1.67,1.02-7.49,.24-14.53-5.24-20.44-.64-1.42-1.83-2.03-3.35-2.15-.11-.14-.23-.27-.34-.41-.14-.6,.25-1.01,.54-1.46,.05-.23,.1-.46,.15-.69,0-1.12,.02-2.25,.02-3.37,.16-.42,.17-.82-.15-1.18-.21-1.34-.41-2.69-.62-4.03,.36,.01,.71,.03,1.07,.04,.4,.46,.05,1.67,1.12,1.38,.91-.24,.62-1.3,.84-2.01,.42-.26,.5-.64,.39-1.09,.4-1.36,.8-2.72,1.2-4.08,.51-.33,.68-.8,.34-1.29-.21-.3-.6-.25-.9,.02-.7,.08-1.4,.17-2.11,.25-.57-.7-1.28-.49-1.99-.29-.16-2.54-.34-5.09,1.98-6.97,0,0-.03-.01-.03-.01,.73,1.17-.29,2.13-.41,3.2-.19,1.66-.22,2.83,2.21,2.39,7-1.27,14.06-1.35,21.11-.27,1.67,.26,1.67-.51,1.62-1.73-.1-2.41-1.94-4.05-2.68-6.17l-.04,.02c1.59-.33,3.16,.09,4.74,.1,2.33,.02,3.31-1.07,2.76-3.24-.63-2.51-1.93-4.56-4.62-5.54-6.81-2.48-13.74-3.63-21.02-2.54-1.87,.28-3.68,1.3-5.67,.68,.22-.62,.27-1.17,1.25-1.35,4.43-.79,8.85-1.43,13.37-1.02,.81,.07,1.55,.14,2.28-.33,7.6-4.9,15.69-4.48,23.91-1.95,1.62,.5,2.86,.45,4.15-.58,2.89-2.31,6.46-2.62,9.94-3.04,6.18-.75,12.34-.85,18.32,1.3,.25,.4,.63,.5,1.08,.46,1.03,.04,1.83,.6,2.64,1.14,.2,.13,.4,.26,.61,.39,1.39,.61,2.74,1.39,4.37,.87,.94,.19,1.87,.38,2.81,.57-.02,.15-.07,.3-.07,.44,0,.06,.11,.17,.17,.17,3.29-.04,6.48,.69,9.72,1.07,.31,.87,.16,1.48-.95,1.53-6-1.6-12.05-1.58-18.29-.46,4.4,1.75,6.07,7.11,11.28,7.66-.42,.63-1,.86-1.78,.9-.87,.05-.81,.74-.71,1.36,.1,.65,.42,.89,1.07,.52,.46-.26,1.1-.57,1.36,.04,.31,.72-.48,.99-.97,1.31-2.27,1.52-3.24,3.78-3.74,6.28-.19,.95-.07,1.74,1.31,1.55,6.8-.89,13.56-.36,20.31,.5,2,.25,2.24-.61,1.91-2.21-.79-3.78-3.51-5.52-7.01-6.57-.99-.3-2.42,.06-2.74-1.47l.83-.8c3.03,.57,5.69,1.96,8.28,3.49,.91,.54,1.77,1.07,2.89,.75,.51-.14,.65-.51,.65-.97,0,0,0,0,0,0,.38-.74,.76-1.47,1.14-2.21,1.6,.25,2.72-1.35,4.33-1.08,.87,.19,1.76,.44,1.98-.83,.95-.03,1.9-.07,2.85-.1,5.34,.31,10.16,1.95,14.18,5.47,1.12,.98,2.14,1.91,3.65,.77,1.37-1.03,1.49-2.24,.92-3.87-.9-2.54-2.76-4.14-4.88-5.55-7.62-5.07-16.13-6.62-25.19-5.97,0-.35-.01-.7-.02-1.05,.43-.06,.86-.13,1.3-.18,3.33-.38,6.63,0,9.95,.22,.69,.04,1.56,.13,1.64-.79,.06-.68-.78-.47-1.19-.71-.95-1.01-2.03-.81-3.14-.3-1.26,.04-2.51,.08-3.77,.12,0-.36-.01-.73-.02-1.09,2.61-.63,5.29,.21,8.26-.21-1.5-1.67-2.75-3.08-4-4.48-.14-.09-.28-.17-.43-.26-2.07,.69-4.14,1.43-6.37,1.47-1.02,0-2.04,.02-3.05,.03l-3.35-.23c-2.76-1.56-3.46-3.61-2.08-6.47,1.27-2.63,3.32-4.67,5.71-6.35,1.3-.92,1.47-1.67,.7-3.16-9.69-18.65-15.66-38.63-21.75-58.56-.2-.66-1.52-2.28,.87-2.2,1.27,4.19,2.48,8.4,3.82,12.57,4.84,15.07,9.66,30.14,16.8,44.39,2.45,4.89,2.37,4.8,7.27,2.22,1.98-1.04,2.03-1.93,1.1-3.76-1.88-3.69-3.5-7.51-5.1-11.32-6.17-14.72-10.6-29.99-15.32-45.17,1.85-.89,1.76,.67,2.07,1.6,3.24,10.08,6.32,20.21,9.71,30.25,2.76,8.16,6.08,16.13,9.88,23.89,.4,.82,.41,2.79,2.04,1.99,1.54-.76,3.98-.84,3.98-3.49,0-3.05,.69-6,2.21-8.68,1.58-2.8,3.72-5.03,7.3-5.29,.62-.04,1.23-.08,1.85-.12,3.3-.49,6.05,.63,8.49,2.71,.67,.57,1.12,1.69,2.4,1.01,.99-.52,1.71-1.15,1.71-2.37-.03-5.41,2.81-9.4,6.77-12.85,2.11-1.84,7.06-1.84,9.44,.07,.27,.21,.45,.52,.72,.73,3.58,2.72,3.72,2.92,7.47,.45,5.63-3.72,11.75-6.56,17.68-9.73,12.93-6.91,25.93-13.7,38.93-20.51,.86-.45,1.64-1.44,2.86-.81-.04,1.38-1.33,1.49-2.19,1.94-16.91,8.93-33.85,17.83-50.77,26.76-.82,.43-1.87,.66-2.16,1.74-3.64,1.64-7.13,3.56-10.53,5.62-.42,.25-1.35,.24-.9,1.17l.03-.02c-.79-.54-1.22-.05-1.61,.53h.01c-.49-.07-.93-.05-1.08,.52l.02-.02c-.69,.12-1.47,.12-1.61,1.04h.02c-1.05-.38-1.5,.07-1.58,1.05,.03,.39,.05,.78,.08,1.17-.17,.32-.34,.64-.51,.95-.25,.37-.21,.7,.16,.98,.42,1.31,.93,2.59,1.25,3.92,.43,1.77,1.02,2.32,2.95,1.28,12.92-7.01,26.17-13.41,38.98-20.62,12.22-6.87,24.87-13.03,37.33-19.5,2.14,1.26,.09,1.55-.56,1.9-5.26,2.8-10.56,5.54-15.86,8.28-6.47,3.35-13.15,6.37-19.37,10.11-9.91,5.95-20.44,10.74-30.59,16.23-3.1,1.67-1.12,4.13-1.25,6.19-.13,1.92,1.83,1.08,2.86,1.2,2.29,.28,4.61,.49,6.7,1.41,2.09,.92,4.15,1.32,6.38,.91,.78,.03,1.61,.28,2.24-.44,.29-.04,.57-.07,.86-.11,.22-.02,.45-.05,.67-.07Zm-63.75,73.11c.13,.1,.34,.32,.38,.29,.38-.25,.06-.39-.12-.55-.19-.17-.37-.33-.56-.5-.12-.1-.31-.3-.34-.28-.34,.24-.07,.37,.13,.5,.17,.18,.34,.36,.51,.54Zm-79.12,.99c.07,0,.14,0,.21,0-.08,.02-.17,.03-.25,.05,.06-.33,.21-.67,.15-.98-.12-.63,.11-1.48-.77-1.74-.24-.07-.74,.14-.89,.37-.54,.82,.31,1.2,.71,1.69,.21,.26,.55,.42,.83,.62ZM222.77,59.86l.04-.03c-2.23,.16-3.89,1.5-5.72,2.38,.21,.98,1.55,.24,1.51,1.28-1.3,.04-1.74,.85-1.43,1.89,.48,1.6,.21,3.45,1.57,4.74,.15,.14,.68,0,.99-.11,3.54-1.26,7.07-2.54,10.44-4.19,.67-.33,1.4-.72,1.04-1.51-.96-2.06-1-4.46-2.51-6.3-.12-.55,.74-1.16,.01-1.61-.54-.33-1.21-.21-1.6,.39-.76,1.18-2.3,1.16-3.26,2.03-.52,.19-1.19,.23-1.09,1.04Zm-38.58,80.46c.22,.27,.38,.87,.84,.46,.36-.32-.03-.69-.36-.94-.68-1.18-1.33-2.38-2.06-3.53-.24-.39-.58-.99-1.2-.59-.77,.49-.29,1.01,.11,1.47,.89,1.04,1.78,2.08,2.67,3.12Zm-34.73,19.08c.31,.1,.5,.03,.5-.33,.23-1.9-.31-3.41-2.44-4.62,0,1.43,.07,2.5-.02,3.56-.13,1.57,.76,1.65,1.96,1.38Zm-30.79-15.8c.26,.61,.52,1.21,.9,2.09,.28-1.03,.16-1.62-.39-2.11-.06-.69-.11-1.38-.17-2.08,.03-.08,.09-.16,.08-.23-.04-.15-.12-.29-.18-.44-.05-.45-.09-.91-.14-1.36,.04-.06,.13-.13,.12-.17-.03-.13-.1-.26-.16-.39,0-.34,.01-.67,.02-1.01,.06-.06,.16-.12,.16-.17,0-.15-.06-.3-.1-.45-1.29-1.22-2.49,.12-4.05-.2,1.45,2.41,2.68,4.46,3.91,6.5Zm75.92-68.5h-.05c-.08-.14-.18-.41-.24-.4-3.14,.47-9.66,6.63-10.29,9.71-.43,2.08,.59,3.45,2.77,3.73,2.57,.32,5.11-.06,7.63-.46,.24-.06,.48-.11,.71-.17,.65-.27,1.32-.49,1.94-.81,3.69-1.86,3.7-1.96,.46-4.4-1.82-1.37-1.82-2.39,.21-3.42,2.1-1.06,4.36-1.85,6.5-2.84,.95-.44,2.75-.27,2.17-2.15-.45-1.44,.12-3.81-2.8-2.98-.05-1.17,1.61-.92,1.31-2.27-2.06,1.13-4.02,2.19-5.97,3.26-.93,.43-1.96,.73-2.74,1.33-.63,.48-2.26,.3-1.61,1.86Zm-47.3,15.97c-.23-.04-.45-.07-.68-.11-.67,.34-1.56-.26-2.3,.6,2.79,.98,5.65,1.68,7.98,3.3,2.57,1.78,5.01,.89,7.58,.4-.77-.7-1.57-1.21-2.43-1.6-3.22-1.45-6.68-2.04-10.15-2.59Zm1.17,39.71c-.34,1.05-.6,2.13-1.05,3.13-.44,.99-.29,1.61,.76,2.01,1.29,.49,2.4,.21,3.41-.65,.93-.79,1.9-1.51,1.46-2.98-.69-2.28-1.28-4.59-1.91-6.89-.11-.4-.17-.97-.72-.82-.3,.08-.46,.62-.69,.96-.05,.25-.09,.49-.14,.74,.1,1.38-.47,2.62-.87,3.9-.08,.2-.16,.41-.25,.61Zm73.13-6.4c.11-.12,.15-.26,.13-.42-.02-1.02,1.59-2.49-.14-2.95-1.87-.5-4.01-.47-5.87,.59-.7,.39-1.01,.81-.57,1.64,1.31,2.43,2.54,4.89,3.91,7.56,.39-.74,.66-1.25,.93-1.77,.04-.16,.08-.33,.12-.49,.18-.53,.17-1.37,1.11-.63,.63,.92-.1,1.59-.45,2.33-.1,.14-.14,.29-.1,.45-.08,.34-.16,.68-.24,1.03-.06,.26-.12,.52-.18,.79-.06,.43-.1,.85-.17,1.28-.3,1.93-.12,3.57,2.13,4.38,2.17,.77,3.77,.08,5.16-1.51,.99-1.14,1.66-2.46,2.08-3.86,1.01-3.38,1.78-6.82,2.13-10.34,.05-.49,.3-1-.14-1.46-1.27-1.35-6.9-.32-7.82,1.43-.08,.21-.16,.41-.24,.62-.48,1.35-.96,2.7-1.44,4.05-.07,.18-.14,.35-.21,.53-.17,.09-.33,.18-.5,.27-1.41-1.32,.12-2.36,.37-3.52Zm-66.08,10.38c4.64,2.23,6.81,.81,6.83-4.42,0-1.91-.36-3.74-.86-5.57-1.57-5.8-1.57-5.74-7.6-6.26-1.66-.14-2.11,.21-1.97,1.88,.4,4.96,1.68,9.69,3.53,14.31-1.61-.01-1.72,1.15-1.89,2.27-.9,.1-1.78-.24-2.73,.31-1.09,.62-2.43,.48-3.5-.24-2.02-1.37-2.28-.12-2.4,1.43-.04,.04-.12,.1-.11,.13,.02,.11,.07,.2,.11,.31,.94,7.09,4.77,12.67,9.72,17.67,.34,.77,.96,1.28,1.66,1.72,1.51,1.45,3.12,2.8,4.5,4.36,1.53,1.74,2.97,.63,4.55,.25,1.67-.4,1.61-1.59,1.64-2.8,.16-5.49-2.64-9.82-5.68-14.13-2.13-3.02-5.12-5.31-7.13-8.4,1.46-.24,1.84-.9,.95-2.15-.22-.31-.05-.61,.39-.66Zm-6.62-11.46q.41-5.23-5.24-5.05c-.18,0-.35,.02-.53,0-1.25-.11-1.98,.35-2.18,1.64-.65,4.24-1.48,8.45-1.98,12.7-.32,2.75,.93,3.7,3.76,3.34,2.12-.27,3.2-1.7,3.85-3.47,.59-1.61,1.01-3.27,1.5-4.92,.08-.26,.16-.52,.24-.77,.11-.61,.23-1.22,.34-1.83,.44-.5,.33-1.08,.25-1.65Zm129.44,12.54l-.05,1.05c-.27,1.17,.28,1.73,1.42,2.01,2.96,.72,5.45-.37,6.81-3.07,1.21-2.4,1.91-4.95,2.38-7.57,1.46-8.08,2.06-6.57-6.15-6.39-1.02,.02-1.71,.4-1.91,1.39-.86,4.19-2.41,8.24-2.49,12.57Zm-117.22-18.19c1.26-1.84,.02-4.72-2.32-6.31-4.01-2.73-8.47-3.16-13.14-2.93-4.04,.2-6.82,2.23-8.09,5.95-.86,2.52-.65,2.9,2.05,2.7,6.99-.51,13.94,0,20.89,.59,.2,0,.4,0,.61,0Zm112.09,55.22c6.77-2.28,12.79-5.97,19.5-9.53-4.53-2.2-8.68-1.9-12.82-.98-6.16,1.37-11.77,4.09-17.37,6.83-1.64,.8-1.7,1.24-.18,2.36,3.21,2.36,6.71,1.9,10.27,1.45,.2-.04,.4-.09,.6-.13Zm-40.18-92.45c-.17-.09-.33-.17-.5-.26,.04,.21,.08,.41,.11,.62,.56,4.09,1.66,8.03,3.12,11.92,2.41,6.41,6.85,11.57,10.81,17.03,.81,1.11,1.53,2.62,3.15,2.24,1.82-.43,1.6-2.22,1.74-3.65,.02-.26,.02-.52,0-.77-.47-8.16-3.23-15.58-7.66-22.46-.65-1.01-1.48-1.93-2.91-1.98-2.9-.1-5.46-1.19-7.87-2.68Zm-16.7,17.49c2.38,2.46,2.74,5.85,4.2,8.73,.44,.87,.29,2.26,1.73,2.25,1.24,0,2.07-.92,2.71-1.87,1.17-1.74,1.25-3.72,1.16-5.71-.33-7.67-3.23-14.66-5.93-21.73-1.86-4.88-4.15-9.67-4.42-15.02-.12-2.32,.5-3.96,3.01-4.76,1.57-.5,2.97-1.51,4.5-2.18,1.56-.68,1.49-1.38,.36-2.44-4.27-4.01-11.64-3.29-14.76,1.63-2.36,3.71-3.1,7.82-2.14,12.12,1.15,5.12,2.81,10.09,4.62,15.03,1.26,3.45,3.16,6.7,3.64,10.4-2.74-1.42-5.39-.65-8.66,2.55,2.26,1.31,4.85,1.88,6.96,3.58,1.67,1.35,2.58,.61,2.61-1.67,0-.31,.26-.61,.4-.92Zm-89.55-2.61c6.53,1.62,10.44,7.33,17.48,7.53,5.07,.15,9.13,3.84,13.44,6.36,2.53,1.47,5.4,1.43,6.55-.22,1.64-2.34-.25-3.94-1.7-5.33-6.14-5.84-13.39-9.88-21.86-11.38-4.73-.84-9.46-.46-13.91,3.04Zm151.77,11.72c-.2-5.18-1.23-10.17-3.94-14.61-2.57-4.21-4.6-9.41-11.36-8.4-.32,.05-.68-.23-1.02-.25-1.31-.07-2.98-1.58-3.61-.8-.94,1.16,.24,2.87,.57,4.35,1.22,5.43,4.84,9.47,8.21,13.67,2.99,3.72,5.76,7.59,8.33,11.6,.3,.47,.67,1.17,1.37,1.02,.69-.15,.71-.95,.8-1.48,.29-1.69,.45-3.4,.66-5.11Zm-166.81,51.6c-.13-.72-.26-1.92-.59-3.07-1.45-5.18-4.59-9.44-7.98-13.53-2.22-2.67-4.14-5.47-8.58-5.37-2.14,.05-2.68,.54-2.86,2.15-.29,2.71,.33,5.29,1.47,7.76,2.86,6.18,7.55,10.92,12.65,15.38,1.51,1.32,2.8,.89,4.35,.36,1.75-.59,1.4-1.96,1.54-3.68Zm8.47-19.35c.04,.6,.05,.94,.09,1.28,1.2,9.48,6.94,16.28,13.95,22.33,.59,.51,1.23,.53,1.97,.35,4-.95,4.82-2.28,3.8-6.21-1.54-5.92-5.24-10.6-9.15-15.16-2.16-2.52-4.03-5.17-8.34-4.48-1.84,.29-2.7,.17-2.31,1.89Zm98.66,22.64c-.44-7.69-4.05-14.4-8.6-20.76-2.03-2.85-3.89-5.21-8.25-3.41-1.76,.73-2.06,1.07-1.82,2.7,1.48,9.74,6.64,17.42,13.97,23.9,.85,.76,1.66,1.82,3.21,1.12,1.6-.72,1.35-2.04,1.48-3.55Zm-42.29-24.43c-2.7,.02-2.72,.02-2.72,2.18,0,1.12-.05,2.26,.17,3.34,1.8,8.69,6.35,15.67,13.6,21.07,1.41,1.05,2.53,.82,3.89,.37,1.45-.48,1.37-1.66,1.35-2.76-.03-1.55-.3-3.06-.78-4.55-2.01-6.16-5.63-11.43-9.57-16.53-1.59-2.06-2.79-4.92-5.94-3.11Zm63.48-66.06c3.28-.02,3.61-.41,2.82-3.64-.47-1.92-1.06-3.81-1.59-5.71-.88-3.14-2.37-6.11-2.71-9.4-.25-2.37,.36-4.12,2.97-5.04,1.71-.6,3.21-1.79,4.83-2.66,1.03-.56,1.31-1.1,.2-1.87-1.74-1.21-3.53-2.15-5.74-2.42-4.75-.59-9.18,4.43-10.14,9.18-1.49,7.34,1.4,13.66,4.95,19.78,.91,1.58,2.64,1.88,4.41,1.78Zm-138.9,24.79c.73,.93,1.71,.69,2.51,.96,3.22,1.09,6.89,1.38,9.12,4.29,.94,1.23,1.98,1.47,3.36,1.5,4.17,.1,7.93,1.37,11.4,3.68,1.66,1.1,3.57,1.88,5.44,2.65,1.97,.81,3.67,.13,4.94-1.43,1.3-1.6,.52-3.1-.56-4.44-.65-.8-1.39-1.59-2.25-2.18-7.98-5.45-16.71-8.57-26.61-7.61-2.59,.25-5.13,1.02-7.35,2.57Zm203.57,13.2c-.11-.72-.21-1.84-.46-2.92-1.46-6.39-4.65-11.98-8.31-17.42-1.83-2.72-3.78-4.39-7.31-4.79-4.24-.49-4.43-.61-3.38,3.58,.1,.42,.26,.82,.41,1.23,3.02,8.51,8.82,15.4,13.97,22.67,.81,1.14,2.04,2.14,3.61,1.59,1.7-.59,1.34-2.21,1.47-3.94Zm13.09,43.55c-.08-4.74-.67-9.43-1.58-14.08-.23-1.16-.28-1.45-1.77-1.06-4.18,1.11-5.49,4-5.7,7.68-.24,4.29-.29,8.59-.49,12.89-.14,3.09-.28,6.23-1.98,8.97-1.09,1.76-.14,1.79,1.26,1.8,5.15,.03,8.57-2.55,9.64-7.46,.63-2.87,.66-5.81,.61-8.74Zm-85.73-85.88c-1.5,1.69-1.61,3.15-1.59,4.59,.11,5.43,4.28,9.57,10.11,10.01,9.39,.71,17-4.22,25.37-7.32-1.08-1.31-2.32-1.7-3.6-2.02-5.9-1.46-11.81-.51-17.64,.25-5.45,.71-10.14,.52-12.66-5.51Zm41.66,90.72c-.09-.77-.09-1.55-.28-2.29-1.49-5.72-4.87-10.42-8.58-14.94-.8-.97-1.64-.78-2.59-.44-1.31,.47-2.58,.48-3.84-.18-2.57-1.35-3.46-.85-3.46,2.03,0,3.44,1.55,6.27,3.93,8.73,3.22,3.33,6.05,6.92,8.14,11.05,1.67,3.3,3.2,3.33,5.43,.18,.88-1.24,1.33-2.6,1.25-4.13Zm-27.54,3.49c-.1-.65-.19-1.59-.38-2.51-1.19-5.78-4.38-10.62-7.72-15.38-1.56-2.22-2.97-4.94-6.57-2.88-.2,.12-.54,.11-.78,.04-3.06-.88-2.77,.98-2.46,2.84,1.44,8.63,6.62,14.95,13.24,20.4,1.1,.91,2.13,1.38,3.58,.68,1.43-.68,.96-1.85,1.09-3.2Zm54.12-3.19c-.16-.93-.23-1.88-.49-2.78-1.72-6.16-5.69-10.71-10.93-14.35-1.58-1.1-2.58-2.48-5.2-1.05-2.31,1.26-2.44,2.3-1.97,4.32,1.7,7.26,6.58,12.35,12.06,17.05,2,1.72,3.33-.58,4.99-.87,1.35-.24,1.6-1.17,1.53-2.33Zm-99.66-50.49c-6.53-.02-8.59,1.2-10.46,5.53-1.95,4.52-1.73,4.93,3.07,4.61,7-.47,13.92,.2,20.85,.97,1.78,.2,2.2-.41,1.89-1.98-.64-3.19-2.53-5.43-5.46-6.85-3.46-1.68-7.21-2.19-9.89-2.27Zm30.84,2.16c-8.4-.17-11.64,1.88-13.21,7.5-.45,1.6-.02,1.98,1.54,1.93,8.14-.3,16.23,.23,24.28,1.35,1.29,.18,1.72-.23,1.7-1.5-.05-3.42-2.17-6.34-5.86-7.8-2.99-1.18-6.14-1.48-8.45-1.47Zm-43.2,31.17c-.24,2.93,.54,6.04,2.18,8.99,2.11,3.8,3.89,7.72,3.78,12.18-.01,.59-.11,1.35,.86,1.2,1.69-.27,3.57-.2,4.14-2.43,1.05-4.12,2.04-8.32,.95-12.48-1.29-4.95-2.15-10.31-8.93-11.62-3-.58-2.9-1.07-2.98,2.19-.01,.52,0,1.03,0,1.96Zm-79.57,30.94c8.65-.38,15.82-4.14,23.26-7.06,1.51-.59,.22-1.26-.24-1.64-2.85-2.35-6.35-2.58-9.78-2.25-7.39,.7-14.13,3.61-20.9,6.37-1.68,.68-1.14,1.28-.14,2.11,2.38,1.98,5.24,2.32,7.8,2.47Zm28.15,.11c7.97-.26,14.93-3.49,21.93-6.59,1.15-.51,.83-1.05,.13-1.72-2.89-2.79-6.37-3.52-10.25-2.79-6.89,1.3-13.18,4.27-19.67,6.7-1.45,.54-1.25,1.11-.25,1.9,2.39,1.91,5.21,2.41,8.12,2.5Zm122.34-77.62c-.63-3.85-1.93-8.26-3.95-12.47-.22-.45-.59-1.15-1.05-1-1.72,.58-4,.4-4.98,2.04-1.09,1.82-2.58,3.83-1.41,6.19,3.1,6.27,5.11,12.79,4.99,19.83,0,.52-.11,1.08,.48,1.34,.54,.24,1.02-.03,1.45-.37,.85-.67,1.42-1.55,1.83-2.5,1.73-3.92,2.38-8.07,2.65-13.06Zm62.52,24.31c.03-.52,.03-1.03,.09-1.55,.19-1.79,.15-3.21-2.42-2.13-.77,.33-1.89,.39-2.49-.35-1.11-1.38-1.58-.69-2.18,.39-2.91,5.16-4.77,10.7-6.18,16.39-.24,.98-.23,2.07-.09,3.08,.33,2.43,2.01,3.4,4.37,2.58,2.37-.82,4.09-2.47,5.19-4.57,2.26-4.33,3.61-8.94,3.74-13.84Zm-201.45,37.56c-.21-7.49-3.06-13.89-7.98-19.49-.43-.49-5.26-.37-5.58,.13-.13,.2-.15,.5-.14,.75,.06,3.07-.14,6.09,1.79,8.91,2.77,4.02,4.88,8.36,4.8,13.38,0,.54-.05,1.24,.65,1.11,1.98-.38,4.05-.68,5.84-1.51,1.22-.56,.32-2.21,.62-3.28Zm171.86-80.27c-4.6-2.64-8.91-3.22-13.41-2.93-5.81,.38-11.25,2.13-16.53,4.41-1.61,.7-4.68,1.16-4.41,2.4,.43,1.93,3.26,2.21,5.33,2.66,.34,.07,.7,.08,1.05,.12,9.94,1.02,18.53-3.16,27.96-6.66Zm-117.73,78.69c.43-4.08-.88-7.96-2.38-11.69-1.06-2.66-2.61-5.33-6.28-5.51-.62-.03-1.22-.61-1.82-.95-.54-.3-.64-1.57-1.51-.98-.73,.49-1.56,1.15-1.52,2.28,.11,2.83,.17,5.6,2.06,8.08,3.3,4.34,5.73,9.07,5.52,14.69-.03,.82,.04,1.21,1.11,1.17,4.04-.17,4.68-.74,4.81-4.7,.03-.77,0-1.55,0-2.39Zm69.23-8.15c-.43,1.67,.13,3.13,.92,4.63,1.41,2.68,2.46,5.5,2.81,8.53,.43,3.69,1.77,4.23,5.18,2.24,.86-.5,1.09-1.33,1.36-2.12,1.53-4.39,1.34-8.81-.05-13.17-.96-2.99-1.85-6.02-5.44-7.32-2.02-.73-4.03-.03-4.22,2.07-.16,1.71-.87,3.35-.57,5.13Zm-27.41-1.71c.16,1.42-.15,2.81,.47,4.13,2.07,4.41,3.66,8.95,3.48,13.9-.04,1.11,.4,1.19,1.46,.98,3.19-.65,4.78-2.28,5.41-5.58,1.54-8.11-.96-15.43-7.17-19.69-.85-.59-1.16-.53-1.92,.1-2.09,1.74-1.35,4.1-1.72,6.16Zm43.45-33.23c-1.06,0-2.12-.04-3.17,0-4.69,.22-7.76,2.76-8.46,6.99-.2,1.19-.38,2.14,1.6,1.9,7.58-.91,15.13-.37,22.65,.74,1.09,.16,2.01,.17,1.78-1.32-.5-3.26-1.92-5.87-5.28-7.09-2.94-1.07-6.04-1.1-9.12-1.22Zm58.5-33.4c-2.75-3.6-5.28-4.86-9.88-4.58-8.66,.52-16.42,3.99-24.44,7.06,1.03,1.24,2.26,1.54,3.42,1.9,4.41,1.4,8.87,1.09,13.34,.31,5.9-1.02,11.15-4.22,17.55-4.7Zm-153.41,93.89c6.7-.29,13.85-2.97,21-5.68,1.37-.52,.77-1,.12-1.59-2.76-2.53-6.3-2.63-9.69-2.54-7.1,.19-13.53,2.91-19.88,5.72-1.46,.65-1.33,1.33-.18,2.19,2.24,1.67,4.84,1.91,8.63,1.9Zm27.34,1.02c8.06,.07,14.39-3.12,20.86-5.84,1.41-.59,.83-1.14,0-1.77-1.99-1.49-4.33-1.94-6.72-2.02-8.07-.28-15.41,2.55-22.76,5.26-1.17,.43-.92,1-.09,1.63,2.79,2.11,5.99,2.82,8.72,2.75Zm43.26-2.95c4.8,2.47,9.32,3.14,14.18,2.4,6.09-.93,11.15-4.18,16.56-6.65,1.21-.55,.79-1.01-.03-1.58-2.74-1.94-5.78-2.39-9.06-1.89-3.15,.48-6.2,1.37-9.15,2.49-4.06,1.54-8.2,2.94-12.5,5.24Zm65.03-48.73c1.67,.31,1.98-.3,1.61-1.84-.72-2.99-2.32-5.19-5.37-6.15-4.53-1.43-9.17-1.73-13.84-.82-3.62,.7-5.49,2.9-5.73,6.41-.09,1.27,.17,1.97,1.7,1.79,7.24-.87,14.45-.46,21.63,.61Zm24.31-26.17c0,3.37,.31,6.13-.06,8.8-.87,6.18-1.6,12.35-1.92,18.58-.08,1.66,.32,3.55,1.45,4.16,1.21,.65,1.76-1.47,2.68-2.29,.19-.17,.32-.41,.47-.62,6.95-9.63,5.58-20.42-2.62-28.63Zm-39.69,5.71c.21-5.53-1.32-11.54-4.35-17.21-.58-1.09-1.06-1.73-2.62-1.22-2.72,.89-4.66,4.64-3.07,7.39,3.47,6.01,5.14,12.37,4.82,19.23-.06,1.38,.76,1.83,1.94,1.91,2.03,.13,2.83-1.19,3.16-2.81,.43-2.11,.41-4.27,.13-7.28Zm-162.95,6.81c-6.81-.17-9.79,1.99-10.83,7.34-.22,1.14-.17,1.92,1.32,1.67,6.98-1.17,13.91-.28,20.82,.51,1.64,.19,1.89-.5,1.61-1.71-.53-2.22-1.42-4.18-3.66-5.38-3.09-1.64-6.31-2.63-9.25-2.43Zm166.66,65.82c4.91-.07,8.51-1.63,12.14-3.26,2.32-1.04,3.91-2.59,4.76-4.87,.59-1.59,1.79-3.66,.7-4.84-1.31-1.42-3.47-.14-5.14,.47-6.37,2.34-12.06,6.02-18.11,8.98-1.53,.75-.85,1.41,.16,1.93,1.97,1.03,4.05,1.69,5.5,1.6Zm-59.74-81.57c-.33-6.7-.68-12.44-.88-18.19-.17-5.14-.1-5.14-4.96-3.52-3.43,1.14-3.44,1.26-2.7,4.76,1.25,5.87,4.29,11.16,5.63,17.03,1.02,4.5,2.36,8.89,1.01,13.54-.42,1.44,.43,1.78,1.72,1.77,2.5-.03,2.89-.58,1.9-2.64-.44-.92-.85-1.93-.95-2.93-.36-3.58-.57-7.18-.77-9.81Zm-21.91,27.4c-2.88-.13-3.01-.11-2.81,1.3,.66,4.78,1.96,9.39,4.4,13.63,.88,1.53,2.22,2.64,3.84,3.43,1.43,.7,2.88,.94,4.25,0,1.41-.96,1.47-2.38,1.24-3.93-.55-3.65-2.59-6.69-4.02-9.99-1.49-3.44-3.75-4.95-6.9-4.45Zm33.51,46.73c-3.57-2.42-6.95-3.9-10.98-3.13-6.49,1.25-12.36,4.2-18.45,6.52-1.41,.54-.94,1.17,.06,1.68,3.09,1.56,6.38,1.94,9.79,1.53,6.86-.82,12.98-3.66,19.57-6.59Zm74.77-69.73c-.04,4.73,.28,9.45,1.19,14.09,.24,1.21,.14,3.07,2.07,3.17,1.97,.09,2.92-1.33,3.51-2.98,.2-.57,.4-1.14,.52-1.73,.91-4.67,.92-9.39,.87-14.11,0-.94-.5-1.63-1.24-2.16-1.84-1.33-3.68-2.66-5.53-3.97-.99-.7-1.41-.4-1.4,.75,.02,2.32,0,4.64,0,6.95Zm-115.95,83.65c3.55,.29,7.1-.5,10.69-.89,.59-.06,1.34-.11,1.36-.92,.02-.63-.63-.71-1.08-.96-1.67-.95-3.5-1.74-4.92-2.97-1.62-1.39-3.05-1.38-5.03-.88-6.69,1.7-13.29,2.1-18.93-2.9-1.24-1.1-2.51-.48-3.33,.26-1.11,1,.38,1.67,.94,2.15,5.76,4.94,12.42,7.57,20.31,7.11Zm-114.14-48.64c-.07,4.48,2.2,5.95,5.67,4.51,1.65-.68,2.64-1.93,3.2-3.57,1.28-3.79,1.76-7.71,2.03-11.66,.22-3.21,.03-3.45-3.28-2.98-1.37,.2-3.36-.66-4.02,1.11-1.61,4.36-3.04,8.79-3.6,12.58Zm60.9,24.86c-.19-2.97-.42-5.96-1.28-8.87-1.16-3.96-3.06-7.48-6.12-10.36-.77-.73-1.46-1.02-2.53-.3-.66,.44-1.72,.22-1.7,1.49,.05,2.92-.08,5.76,1.86,8.37,2.93,3.93,5.16,8.22,5.39,13.22,.05,1.16,.59,1.06,1.55,.94,2.9-.38,3.19-2.18,2.81-4.48Zm78.8,23.63c4.04-.1,7.27-.48,10.47-1.24,.78-.18,1.35-.42,1.52-1.14,.19-.8-.67-.89-1.12-1.24-1.32-1.02-2.65-2.04-3.6-3.4-.73-1.06-1.51-1.14-2.7-.71-3.16,1.13-6.44,1.86-9.82,2.01-3.79,.17-7.46-.26-10.53-2.68-1.45-1.14-2.51-.1-3.55,.47-.6,.33,.09,.83,.49,1.16,3.29,2.75,7.38,4.23,11.24,5.83,2.39,.99,5.5,1.17,7.6,.95Zm22.51-46.47c.09-1.61-2.03-3.87-2.54-6.48-1-5.15-4.53-5.98-8.91-5.94-.18,0-.35-.02-.53-.04-1.38-.22-1.65,.37-1.45,1.61,.59,3.59,1.63,7.06,3.27,10.3,1.25,2.47,3.28,4.27,6.16,4.92,2.81,.63,3.95-.27,4-4.36Zm26.93,28.79c1.61-.78,4.02,.01,4.78-2.04,1.83-4.97,2.98-10,.8-15.26-1.41-3.41-3.87-5.06-7.54-5.39-1.14-.1-1.15,.48-1.21,1.17-.23,2.9-.39,5.68,1.23,8.47,2.28,3.93,3.77,8.18,1.94,13.06Zm-6.36-95.53c1.1,1.13,2.51,2.08,3.18,3.39,1.19,2.29,2.79,2.21,5,1.84,5.54-.92,10.99-.45,15.9,2.43,1.86,1.09,3.24,.82,4.79-.21-4.24-8.44-18.17-10.46-28.87-7.45ZM100.32,117.6c-2.53-.13-2.56-.13-2.3,2.27,.27,2.49,1,4.88,2.11,7.12,1.44,2.9,2.76,5.97,5.95,7.55,3.04,1.5,4.47,.62,4.42-2.72-.04-2.86-.93-5.56-1.94-8.23-2.14-5.66-2.11-5.67-8.25-5.99Zm205.86-4.36c1.59-2.13,2.61-4.49,2.97-7.03,1.04-7.41-.15-14.5-3.46-21.27-.59-1.21-1.25-1.69-2.66-1.26-1.26,.39-1.96,.83-1.69,2.32,.27,1.52,.14,3.15-.59,4.54-.74,1.42-.47,2.5,.23,3.83,3.1,5.88,6.06,11.82,5.2,18.86Zm-107.86,5.6c-1.13,.52-3.21-.76-4.02,1.09-1.67,3.85-3.59,7.65-3.94,11.91-.11,1.35-.36,2.87,1.29,3.59,1.58,.7,3.24,.84,4.79-.14,1.21-.76,1.94-1.84,2.53-3.16,1.55-3.48,2.33-7.16,3.28-10.81,.5-1.92,.08-2.79-2.07-2.51-.52,.07-1.06,0-1.87,0Zm125.26-40.08c-2.91-11.56-20.63-13.83-30.59-11.04,.64,.54,1.43,.93,1.79,1.55,2.56,4.47,6.19,4.23,10.74,3.19,5.44-1.25,10.57,.01,14.03,4.9,1.03,1.45,2.55,1.1,4.03,1.4Zm-64.01,44.32c.47-1.49-.49-1.76-1.9-1.64-.97,.08-1.95,.15-2.92,.09-1.79-.11-2.68,.55-3.08,2.36-.86,3.85-2.23,7.58-2.46,11.58-.17,2.96,.47,3.82,3.52,3.56,2.12-.18,3.3-1.49,4.12-3.21,1.9-3.97,2.51-8.21,2.71-12.74Zm-122.35,8.32c-.28-4.09-1.42-7.86-2.8-11.59-.27-.74-.68-1.09-1.5-1.17-1.94-.19-3.86-.45-5.79-.7-1.2-.15-1.52,.28-1.39,1.46,.54,4.78,1.99,9.26,4.76,13.24,1.14,1.64,2.89,3.18,5.08,2.64,1.86-.46,1.38-2.51,1.64-3.88Zm51.14-.27c-.16-3.77-1.28-7.3-2.56-10.79-.31-.85-.77-1.3-1.67-1.38-1.94-.18-3.88-.35-5.81-.56-.85-.09-1.45,.08-1.31,1.06,.69,5.07,1.88,9.98,5.41,13.99,1.14,1.29,2.66,2.73,4.5,2.04,1.91-.72,1.18-2.82,1.44-4.35Zm76.62-9.35c-.5,.09-1.78-.43-1.44,.89,1.41,5.48,2.5,11.13,7.7,14.79,1.31,.92,2.75,1.65,4.09,.74,1.25-.85,1.23-2.46,1.06-3.94-.47-4.02-2.87-7.31-4.28-10.97-.26-.69-.74-.87-1.41-.93-1.85-.17-3.69-.37-5.71-.58Zm-93.39-3.61c-1.19,.44-3.24-.75-3.81,1.56-1.05,4.26-2.62,8.4-3.08,12.79-.13,1.26-.67,2.68,.95,3.39,1.54,.67,3.14,.56,4.53-.44,1.09-.78,1.71-1.9,2.15-3.16,1.23-3.52,1.87-7.15,2.39-10.82,.5-3.5,.55-3.49-3.15-3.31Zm122.27,3.88c-1.56-.34-1.58,.41-1.24,1.73,.85,3.27,2.23,6.35,3.83,9.28,1.25,2.29,3.24,4.12,5.83,5.06,2.84,1.02,4.04-.02,3.52-2.93-.38-2.12-1.32-4.11-1.82-6.17-1.25-5.11-4.38-7.41-9.73-6.91-.09,0-.17-.02-.39-.05Zm13.03,31.28c.55-4.03-.75-7.82-2.3-11.6-1.02-2.49-3.61-2.47-5.53-3.47-.66-.35-.92,.57-.95,1.18-.25,3.83-.8,7.68,1.51,11.22,1.09,1.67,1.82,3.61,1.84,5.58,.02,2.58,.99,3.09,3.48,2.57,1.57-.33,2.1-.82,1.97-2.28-.09-1.02-.02-2.06-.02-3.21ZM119.51,117.65c-1.09,.44-3.19-.8-3.79,1.69-1.02,4.26-2.23,8.48-3.15,12.76-.59,2.77,1.46,4.34,4.3,3.52,1.68-.49,2.56-1.71,3.18-3.21,1.55-3.78,2.23-7.76,2.76-11.76,.41-3.08,.37-3.09-3.3-3Zm132.18,62.19c2.68,.16,5.29-.43,7.93-.66,.66-.06,1.52-.12,1.72-.92,.19-.75-.64-.9-1.08-1.28-1.05-.91-2.35-1.68-3.07-2.8-1.09-1.71-2.27-1.6-3.97-1.11-6.36,1.86-12.55,1.58-18.43-1.72-.52-.29-1.18-.88-1.63-.27-.53,.72,.33,1.22,.79,1.66,4.94,4.67,10.77,7.26,17.74,7.1Zm70.53-53.58c-.71,1.75-.95,2.88-1.56,3.76-3,4.33-3.79,8.93-2.15,13.93,.41,1.25-.25,3.36,1,3.66,1.45,.35,2.72-1.29,3.67-2.51,.57-.73,1.03-1.61,1.31-2.49,1.75-5.52,.03-10.59-2.28-16.35Zm-50.19-15.75c-.22-.53-.38-1.03-.62-1.48-2.26-4.06-6.13-6.27-10.14-8.3-1.29-.66-1.24,.37-1.41,1.06-.56,2.25-.99,4.56-2.18,6.59-.9,1.54-.43,1.84,1.18,1.88,3.86,.1,7.78-.13,11.41,1.63,1.54,.75,1.43-.62,1.77-1.38Zm-17.22-46.46c-1.85-.05-1.93,.01-2.1,1.77-.09,.94-.01,1.92-.24,2.82-.41,1.57,.4,1.67,1.67,1.66,4.67-.03,9.37-.31,13.25,3.11,1.02,.9,2.53-.02,3.39-.65,.94-.69-.31-1.48-.78-2.05-3.89-4.72-9.27-6.28-15.19-6.66Zm-23.24,31c-.98-.04-.86,.58-.82,1.05,.21,2.22,.41,4.43,.71,6.64,.1,.77,.6,1.42,1.3,1.86,3.11,1.93,6.15,4,9.54,5.47,.52,.22,1.11,.76,1.65,.12,.39-.45,.14-1.05-.15-1.44-3.38-4.65-5.88-10.02-11.22-13.07-.38-.21-.74-.45-1.02-.63Zm-29.14-16.69c-1.34,.6-3.33,.7-4.02,2.03-.57,1.08,1.23,1.6,2.09,2.21,1.76,1.25,1.97,2.6,.31,3.94-1.11,.89-.72,1.45-.04,2.29,3.24,4.03,3.22,4.05,7.68,1.78,.55-.28,1.09-.6,1.67-.76,1.09-.3,.95-.72,.34-1.41-2.39-2.75-4.38-5.78-6.39-8.79-.38-.56-.67-1.24-1.63-1.28Zm49.02-16.07c0-.79,0-1.73,0-2.68,0-1.55-.43-2.18-2.24-1.53-6.39,2.28-6.45,2.3-5.01,8.74,.06,.25,.17,.51,.14,.76-.35,3.16,1.28,3.64,4.08,3.21,1.55-.24,2.42-.55,2.55-2.2,.16-2.05,.71-4.06,.48-6.3Zm62.44,32.33c-.55,.81-.72,1-.83,1.22-2.75,5.32-2.02,11.45-4.13,16.95-.42,1.09,.51,2.78,2.39,2.72,1.34-.05,4.17-3.14,3.92-4.38-1.05-5.22-1.1-10.52-1.34-16.51Zm-27.22,4.68c0,2.56,.03,4.59,0,6.62-.06,3.39,.32,3.9,3.75,4.41,1.13,.17,2.29,.12,3.44,.12,1.87,0,2.1-.76,1.17-2.24-2.1-3.34-4.97-5.98-8.35-8.91Zm-162.32,22.37c-.96,4.3-1.6,8.6-3.57,12.54-.34,.67-.12,1.12,.48,1.5,1.63,1.05,6.53-.08,7.55-1.73,.2-.32,.29-.6,.08-.94-2.14-3.54-3.51-7.37-4.55-11.38Zm166.46,17.98c2.02-.44,4.07-1.19,6.03-2.19,.91-.46,.52-.95,.1-1.41-1.49-1.62-2.54-3.49-3.32-5.5-.45-1.17-1.03-1.21-1.91-.4-2.06,1.9-3.08,4.33-3.62,6.94-.39,1.85,1.03,2.31,2.71,2.55Zm-57.81-14.22c-.28,.44-.47,.62-.52,.83-.83,3.86-1.29,7.81-3.86,11.12-.79,1.02,.26,1.3,1.01,1.53,1.85,.58,6.39-1.01,7.46-2.57,.26-.38,.43-.72,.09-1.15-2.22-2.82-2.88-6.3-4.18-9.77Zm30.37,2.68c-1.74,1.39-4.91,6.93-5.14,8.86-.16,1.34,.65,1.86,1.85,1.96,2.59,.2,4.5-1.29,6.46-2.59,.65-.43,.48-1,.04-1.55-1.54-1.94-1.99-4.37-3.21-6.67Zm47.6-31.49c4.31-7.75,4.29-10.53-1.34-13.42-.43,1.37-2.29,2.37-1.63,3.9,1.29,3,2.2,6.1,2.97,9.52Zm-107.63,28.08c-1.11,3.17-2.23,6.13-3.52,9.03-.3,.68-1.42,1.29-.93,1.95,.62,.82,1.84,.97,2.92,.83,1.42-.19,2.71-.76,3.92-1.5,.65-.4,1.01-.8,.68-1.67-1.08-2.86-2.05-5.76-3.07-8.64Zm-27.31-.54c-.67,3.33-1.57,6.51-2.73,9.62-.24,.65-.11,1.13,.45,1.58,1.36,1.09,5.67,.63,6.72-.7,.34-.43,.22-.71-.04-1.12-1.86-2.92-3.27-6.03-4.4-9.38Zm130.34,6.97c.22-.03,.45-.06,.67-.09,.78-3.5,2.2-6.79,3.41-10.14,.17-.47,.6-1,.03-1.36-.26-.16-.82,.05-1.2,.2-1.88,.75-3.51,1.91-5.12,3.1-.65,.48-.93,1-.6,1.75,.94,2.18,1.87,4.36,2.81,6.53Zm-208.79-6.71c-.81,3.29-1.48,6.01-2.15,8.72-.17,.71-1.18,1.37-.68,2.02,.63,.81,1.75,.61,2.7,.32,.83-.25,1.66-.53,2.48-.82,1.75-.61,2.29-1.56,1.08-3.17-1.51-2.01-2.52-4.27-3.44-7.07Zm206.15-3.07c2.61-1.77,5.11-3.09,8.21-3.8-3.45-1.98-6.33-4.38-10.35-2.2,1.45,1.61,1.75,3.66,2.14,6Zm-13,39.4c-1.69-1.87-3.04-3.39-4.42-4.87-.74-.79-1.22-2.46-2.26-2.19-1.43,.38-1.51,2.13-1.78,3.45-.14,.66-.05,1.36-.08,2.04-.04,.85,.31,1.25,1.24,1.16,2.26-.22,4.52-.02,7.3,.41Zm-178.98-32.32c.96-3.39,1.76-6.19,2.52-8.99,.05-.19-.07-.6-.2-.64-1.43-.42-2.75,.08-4.04,.61-1.03,.43-1.07,1.2-.73,2.13,.76,2.08,1.48,4.16,2.44,6.89Zm136.67,2.01c.62-2.18,1.18-3.89,1.57-5.64,.2-.86,1.06-2,.21-2.58-.59-.4-1.92-.12-2.74,.25-.95,.42-2.84,.46-2.07,2.26,.79,1.85,1.5,3.77,3.04,5.71Zm-84.72-3.05l.45,.03c.71-2.51,1.41-5.03,2.15-7.54,.28-.96-.13-1.27-1.04-1.19-.96,.08-1.92,.26-2.89,.27-.95,0-1,.43-.79,1.14,.72,2.43,1.41,4.86,2.12,7.3Zm113.64,3.81c.81-3.04,1.47-5.51,2.1-7.98,.05-.21,.03-.62-.09-.67-1.35-.63-2.55,.07-3.76,.51-.87,.32-1.68,.76-1.17,1.88,.87,1.93,1.79,3.84,2.92,6.26Zm-87.86-3.86c1.13-1.42,1.38-2.97,1.95-4.38,1.58-3.88,1.55-3.84-2.85-3.43-1.05,.1-1.46,.23-1.11,1.31,.68,2.1,1.31,4.22,2.01,6.51Zm71.84,28.28c-1.46,1.48-1.9,3.49-1.15,4.63,.95,1.44,3.32,.83,5.02,1.5-.99-2.3-2.15-4.27-3.87-6.13Zm-168.01-1.87c-.64,1.57-.37,3.04-.49,4.46-.06,.66-.64,1.72,.45,1.97,.88,.2,2.03,.16,2.77-.26,.87-.5,.27-1.47,0-2.27-.51-1.46-1.1-2.84-2.73-3.9Zm205.67-62.85c.83-1.43,1.02-2.61,.98-3.79-.03-.86,.43-2.12-.83-2.39-1.15-.24-2.73-.36-3.47,.45-.7,.77,.46,1.76,1.03,2.56,.69,.96,1.38,1.91,2.29,3.17Zm-88.71-5.7c-1.03-2.95-1.84-5.34-2.7-7.72-.3-.84-.98-.93-1.7-.55-.56,.29-1.6,.57-.99,1.42,1.56,2.19,2.68,4.72,5.39,6.85Zm-6.57,10.95c2.92-1.31,5.47-3.24,8.52-4.27,.37-.13,.54-.44,.33-.81-.25-.45-.66-.52-1.11-.33-2.98,1.23-5.78,2.7-7.73,5.42Zm-59.57,8.08q-3.89-1.25-4.19,2.17c-.02,.25-.07,.51-.18,.74-.18,.37-.59,.78-.13,1.12,.46,.34,1.08,.17,1.42-.22,1.05-1.22,2.03-2.49,3.08-3.8Zm163.5,32.8c-1.99,2.38-2.71,4.72-.18,7.12,.38-1.25,.47-2.62,1.16-3.58,1.25-1.75,.72-2.72-.98-3.54Zm-78.53,14.48c-.15,2.05-1.05,4.2,1.09,5.84,.33,.25,.59,.79,1.04,.52,.3-.18,.49-.7,.53-1.09,.25-2.27-1.58-3.58-2.66-5.27Zm-27.12,10.67c.6-.52,2.45,.76,2.34-1.16-.08-1.43-.69-3.4-2.27-3.29-1.51,.1-.84,2.28-1.4,3.47-.47,.98,.33,1.12,1.33,.99Zm53.23-1.13c1.2,.08,2.63,.45,3.07-.79,.71-1.97-.12-3.74-1.66-5.52-.51,2.28-.95,4.24-1.42,6.31Zm-117.38-34.93c.21-.04,.41-.07,.62-.11,.32-1.84,.67-3.67,.96-5.51,.13-.79-.22-1.17-1.06-.79-.98,.45-1.97,.93-1.65,2.26,.34,1.39,.74,2.77,1.12,4.15Zm97.17-30.56c-.18-2.15-.81-3.57-2.78-4.09-.55-.15-1.23-.59-1.63,.12-.33,.58-.01,1.2,.52,1.55,1.18,.79,2.41,1.51,3.9,2.42Zm11.89,20.86c.28-.26,.41-.37,.53-.49,2.1-2,.07-3.13-1.03-4.4-.59-.68-1.09,.04-1.57,.3-.72,.4-.35,.83,.04,1.19,.99,.9,1.33,2.17,2.03,3.39Zm-9.3,46.52c-1.3-2.51-2.95-3.77-4.41-5.43-1.34,3.83,1.37,4.29,4.41,5.43Zm37.66-44.4c1.94-2.48,.54-4.02-.89-5.5-.35-.36-.44-1.34-1.31-.81-.75,.46-.75,1.12-.1,1.7,1.29,1.15,1.68,2.75,2.3,4.61Zm-44.61-31.99c1.87-2.6,.44-4.95-.34-7.35-.66,2.49-.06,4.91,.34,7.35Zm8.38,50.71c-.14,.13-.28,.25-.43,.38,.66,1.06,1.27,2.16,1.99,3.18,.36,.51,.59,1.39,1.52,1.12,.69-.2,.67-.91,.84-1.48,.22-.75,.16-1.29-.69-1.65-1.1-.46-2.16-1.03-3.23-1.56Zm-29.18,24.97c-1.46-1.72-2.76-3.25-4.41-5.2,.33,4.84,.64,5.19,4.41,5.2Zm-122.74-24.44c1.15,1.51,1.75,3.02,3.24,4.13,.14-4.98,.4-4.49-3.24-4.13Zm173.87-42.8c-1.26,2.81-.46,4.3,1.97,5.08,.43,.14,.87,.31,1.21-.05,.35-.38,.07-.79-.18-1.13-.92-1.21-1.86-2.42-2.99-3.9Zm-110.45,12c-3.77-3.1-5.22-2.98-6.3,0h6.3Zm78.15,51c-.18,1.32-1.69,2.52-.51,3.66,.41,.4,2.45,.1,2.6-.3,.63-1.62-.97-2.39-2.1-3.36Zm-107.11-4.26c0,2.02,.04,3.34-.01,4.66-.05,1.19,.68,1.17,1.54,1.12,1.07-.07,1.32-.54,1-1.53-.43-1.32-.93-2.57-2.53-4.24Zm134.86-3.76c-.45,2.39,1.19,3.37,1.95,4.73,.24,.42,.4,1.36,1.25,.7,.61-.47,.74-1.19,.19-1.81-1.01-1.14-2.08-2.22-3.4-3.62Zm-80.43,6.87c-.31,1.5-1.11,2.82,.06,3.93,.43,.41,1.88,.47,2.09-.28,.44-1.58-.74-2.57-2.15-3.65Zm-59.42-52.52c-.86,.03-1.99-.43-1.78,1.06,.1,.69-.01,1.63,1.25,1.45,1.16-.17,2.5-.42,2.53-1.7,.02-1.18-1.33-.6-2.01-.81Zm144.08,23.67c2.57-1.6,2.74-3.93,.49-6.24-.17,2.12-.32,4.12-.49,6.24Zm-163.26,27.59c.95,4.74,1.26,5.05,4.38,4.54-1.37-1.42-2.66-2.76-4.38-4.54Zm104.52-3.68c0,1.24-.02,2.17,0,3.1,.03,.92,.92,1.18,1.48,1.67,.26,.23,.64-.02,.85-.34,.47-.71,.09-1.35-.27-1.9-.5-.77-.73-1.73-2.07-2.53Zm-50.65,3.5c.79,4.08,1.24,4.52,3.72,3.62-1.26-1.18-2.09-2.69-3.72-3.62Zm-45.88-18.72c.12-1.2-.77-1.62-1.68-1.93-.56-.19-1.21,.11-.78,.74,.58,.86-.26,2.48,1.36,2.65,.8,.08,1.04-.75,1.1-1.46Zm66.79,2.91c-.39-1.24,1.43-2.48,.03-3.52-.63-.47-1.43,.42-1.68,.84-.88,1.46,.84,1.81,1.65,2.68Zm100.86-52.4c.68-1.29,1.13-2.47,.37-3.46-.35-.45-1.94-.24-2.1,.29-.4,1.33,.91,2.05,1.73,3.17Zm17.39,41.94c2.31-1.45,2.38-2.25,.54-4.24-.41,1.32-.81,2.62-.54,4.24Zm-141.16,24.61c.04-1.74-.5-2.68-2.45-4.11,.31,1.76,.14,3.61,2.45,4.11Zm77.45-9.77c0-1.68,.02-2.6-.01-3.52-.01-.39,.04-1.02-.49-1.01-.58,.01-1.23,.24-1.69,.58-.46,.34,.05,.72,.27,1.05,.51,.76,1.01,1.53,1.92,2.9Zm19.49-57.94c.55-1.4,1.63-2.28,.83-3.19-.5-.57-1.97-.4-2.33,.29-.57,1.08,.81,1.61,1.5,2.9Zm-108.12,24.04c-3.42,.6-3.63,1-1.8,3.56,.62-1.23,1.19-2.36,1.8-3.56Zm-9.35,49.77c-.89-1.53-1.91-2.67-3.25-3.55,.41,1.65,.42,3.62,3.25,3.55Zm154.24-74.73c.17,0,.34,0,.51,0-.06-.92,0-1.88-.23-2.76-.17-.64-.88-1.29-1.6-.99-.84,.35-.18,1.01,.08,1.51,.39,.75,.83,1.49,1.24,2.23Zm-13.79,55.17c.71-.11,.8-.59,.83-1.11,.06-1.11-.66-1.71-1.58-2.06-.46-.18-.93,.2-.79,.66,.28,.94,.63,1.9,1.54,2.5Zm-29.16,1.89c-.74-1.12-1.47-2.24-2.21-3.35-.25-.38-.62-.7-1.08-.43-.51,.31-.24,.79,.02,1.1,.86,1.05,1.44,2.36,3.27,2.68Zm-53.25-2.27c.41-2.89,.35-2.95-2.07-2.8,.51,.98,.77,2.07,2.07,2.8Zm99.48-45.71c-.83,2.66,.67,3.66,2.56,5.06-.53-2.03-1.6-3.22-2.56-5.06Zm-155.38,41.27c.7,.91-.3,2.44,1.31,2.91,.49,.14,1.03-.41,1.07-.94,.11-1.48-1.15-1.65-2.38-1.97Zm-21.09-22.07c.91-.87,1.61-1.74,1.19-2.71-.23-.54-1.57-.56-1.89-.2-.98,1.11,.39,1.83,.69,2.91Zm186.32,29.53c.62-1.4,.72-2.46,.3-3.46-.15-.36-.9-.07-1.08,.23-.69,1.09-.21,2.04,.78,3.24Zm-97.6-3.21c.46-1.52,.34-2.45-.85-2.97-.42-.19-1.15-.09-1.16,.2-.05,1.22,1.03,1.75,2.01,2.77Zm-77.56,8.62c-.4,2.3,.28,3.48,2.14,4.79-.33-2.03-1.19-3.08-2.14-4.79Zm37.58-10.89c-.78,.02-1.15,.26-.86,.77,.34,.6,.06,1.74,1.24,1.64,.63-.05,.66-.69,.68-1.21,.02-.88-.45-1.23-1.06-1.19Zm74.09-49.98c-1.04,.7-1.83,1.23-1.11,2.19,.24,.32,1.23,.56,1.39,.4,.74-.78-.13-1.51-.28-2.59Zm-89.17,52.36c-.06-.88,.83-1.97-.49-2.46-.34-.13-1.18,.09-1.19,.18-.06,1.09,.76,1.7,1.67,2.29Zm89.34-31.84c1.2,.8,2.26,.91,3.73,.73-1.2-1.09-2.13-1.82-3.73-.73Zm-138.01,44.61c-.32-1.24-.85-2.32-1.88-3.28q-.11,1.99,1.88,3.28Zm147.71-6.29c-.3-1.15,.52-2.04-.49-2.68-.36-.23-.97-.07-1.14,.35-.4,1,.25,1.54,1.63,2.33Zm-92.14-23.65c.98-.84,.85-1.63,.46-2.66-.95,.85-.85,1.64-.46,2.66Zm61.11,17.29q-.3-1.33-1.53-1.69c.14,.89,.51,1.53,1.53,1.69Zm-90.93,7.06c-.08,.15-.2,.28-.21,.42,0,.14,.11,.29,.17,.43,.07-.13,.19-.26,.19-.4,0-.14-.1-.29-.16-.45Zm86.69-11.43c.13,.07,.26,.15,.4,.19,.02,0,.09-.11,.14-.18-.13-.06-.25-.14-.39-.18-.03,0-.1,.1-.16,.16Z"/>
  <path class="cls-4" d="M320.58,18.74c-12.46,6.47-25.11,12.62-37.33,19.5-12.82,7.21-26.07,13.61-38.98,20.62-1.93,1.05-2.52,.49-2.95-1.28-.32-1.33-.83-2.61-1.25-3.92-.05-.33-.11-.65-.16-.98,.17-.32,.34-.64,.51-.95,.57-.22,1.18-.38,1.69-.68,7-4.11,14.44-7.44,21.39-11.65,6.5-3.94,13.47-7.14,20.24-10.65,10.27-5.32,20.55-10.64,30.82-15.95,2.61,1.41,4.21,3.78,6.01,5.96Z"/>
  <path class="cls-2" d="M177.19,11.35c4.72,15.18,9.15,30.46,15.32,45.17,1.6,3.82,3.22,7.63,5.1,11.32,.93,1.83,.88,2.71-1.1,3.76-4.9,2.58-4.81,2.68-7.27-2.22-7.14-14.24-11.97-29.32-16.8-44.39-1.34-4.17-2.55-8.38-3.82-12.57,2.78-.94,5.65-1.26,8.58-1.07Z"/>
  <path class="cls-8" d="M82.12,98.4c1.99,.63,3.8-.4,5.67-.68,7.28-1.09,14.22,.06,21.02,2.54,2.69,.98,3.99,3.03,4.62,5.54,.55,2.18-.43,3.26-2.76,3.24-1.58-.01-3.15-.43-4.74-.1-.31-1.29-1.5-1.32-2.47-1.56-6.96-1.76-13.93-1.41-20.88,.05-1.25-2.96,.22-6.05-.45-9.03Z"/>
  <path class="cls-9" d="M166.85,94.85c-.94-.19-1.88-.38-2.81-.57,1.08-.5,2.21-.82,3.41-.87,.61-.21,.7-.53,.24-.99-.04-.36-.09-.71-.13-1.07,.07-.57,.11-1.13-.42-1.55,0,0-.03-.18-.03-.18,0,0-.03-.22-.03-.22-.08-.77-.17-1.53-.25-2.3,.2-.7,.46-1.42-.35-1.95-.13-.87-.27-1.73-.4-2.6,.71-.87-.06-1.41-.49-2.02-.15-.84-.38-1.68-.43-2.53-.17-2.81-1.04-4.54-4.47-3.33-1.44,.51-1.65-.45-1.31-1.6,1.02-3.38,2.01-6.77,3.06-10.14,.42-1.36,1.19-1.4,2.02-.3,2.2,2.91,4.4,5.83,6.57,8.76,.93,1.25,.2,1.77-1.03,1.76-2.93,0-3.08,1.29-2.52,3.77,1.16,5.11,1.88,10.31,2.78,15.48,.76,.97,1.72,.34,2.6,.31,.35,0,.7,0,1.05,0,.19,0,.38,0,.57,0,.7,.01,1.4,.02,2.1,.03,.53,.07,1.06,.13,1.59,.2,0,0,.02,.01,.02,.01,.2,.89-.35,1.22-1.1,1.41-1.81-.55-3.69-.05-5.52-.31-1.17,.05-2.44-.58-3.46,.48-.25,.72-.76,.52-1.26,.33Z"/>
  <path class="cls-8" d="M85.95,138.85c5.48,5.91,6.26,12.95,5.24,20.44-.12,.86-.42,1.44-1.34,1.67-1.68,.42-3.35,.89-5.4,1.45,1.06-2.63,.82-5.03-.04-7.4-.31-.87-.51-1.92-1.88-1.68-.17-4.05-.32-8.11-.5-12.16-.05-1.16,.36-1.73,1.65-1.76,.76-.01,1.52-.36,2.28-.55Z"/>
  <path class="cls-8" d="M83.36,164.75c7.13-3.35,14.37-4.71,21.94-1.02-6.49,2.56-12.45,6.31-19.48,7.42-.29-.49-.46-.39-.54,.11-.71,.24-1.44,.35-2.19,.17-1.14-2.27-.61-4.48,.27-6.68Z"/>
  <path class="cls-8" d="M264.23,177.71c-2.39-1.05-4.38-2.61-6.08-4.52-.35-.4-1.36-.99-.36-1.64,.59-.38,1.38-.97,2.15-.22,3.82,3.69,8.46,3.9,13.28,2.74,1.29-.31,1.93,1.65,3.19,.52,0,0,.02,0,.02,0-.44,.25-.5,.6-.13,.92,.34,.28,.73,.72,1.19,.12,0,0,0,0,0,0-.11,1.58,1.46,1,2.13,1.56,.82,.42,2.16,.48,1.42,1.96-.22,.02-.43,.04-.65,.06,0,0,.08-.05,.08-.05-5.09,.91-10.15,1.11-15.15-.47-.39-.3-.35-1.07-1.1-.99Z"/>
  <path class="cls-14" d="M314.57,12.78c-10.28,5.32-20.55,10.63-30.82,15.95-6.77,3.51-13.74,6.72-20.24,10.65-6.96,4.22-14.4,7.54-21.39,11.65-.52,.3-1.13,.46-1.69,.68-.03-.39-.05-.78-.08-1.17,.67-.16,1.46-.14,1.58-1.07,0,0-.02,.01-.02,.01,.76-.03,1.63,.11,1.61-1.04,0,0-.02,.02-.02,.02,.51,.12,1.04,.26,1.08-.53,0,0-.01,.01-.01,.01,.67,.2,1.25,.16,1.61-.53,0,0-.03,.02-.03,.02,4.44-1.95,8.7-4.22,12.89-6.62,.76-.55,1.45-1.2,2.27-1.63,5.66-2.97,11.35-5.89,17.01-8.85,11.79-6.17,23.56-12.37,35.34-18.56,.64,.05,.96,.38,.92,1.01Z"/>
  <path class="cls-8" d="M99.77,176.52c-.42,.06-.85,.12-1.27,.17-.51,.06-1.03,.1-1.54,.17-4.58,.69-9.16,1.2-13.68-.37-.07-1.13-.14-2.25-.2-3.38,3.17-.34,6.24-1.1,9.2-2.23,.88-.33,1.59-.61,2.23,.45,1.28,2.14,3.39,3.44,5.43,4.78-.13,.1-.18,.24-.16,.4Z"/>
  <path class="cls-13" d="M160.71,53.81c2.61,0,4.61-.02,6.61,.01,.59,0,1.38-.06,1.31,.84-.05,.67-.7,.68-1.23,.68-2.48,0-4.95-.02-7.43,.01-1.3,.02-1.51-.54-1.1-1.62,.45-1.18,1.21-2.11,2.25-2.8,1.31-.87,2.67-1.67,4.03-2.46,1.25-.73,2.05-1.69,1.68-3.17-.25-1.02-1.06-1.48-2.12-1.67-1.46-.26-2.6,.06-3.39,1.36-.42,.69-.39,2.38-1.77,1.45-1.1-.74-.12-1.91,.51-2.67,1.44-1.75,3.47-2.01,5.54-1.52,1.61,.39,2.87,1.33,3.06,3.16,.23,2.1-.91,3.38-2.64,4.36-1.74,.98-3.61,1.78-5.31,4.04Z"/>
  <path class="cls-4" d="M313.65,11.77c-11.78,6.19-23.55,12.38-35.34,18.56-5.66,2.97-11.35,5.88-17.01,8.85-.82,.43-1.52,1.08-2.27,1.63-.49-.06-.97-.11-1.46-.16,.29-1.08,1.34-1.31,2.16-1.74,16.92-8.92,33.85-17.82,50.77-26.76,.86-.46,2.15-.56,2.19-1.94,.74,.28,.78,.97,.96,1.57Z"/>
  <path class="cls-16" d="M326.31,147.73c.78-.24,.47-1.18,1.06-1.55,.9,3.98,.92,7.97,.18,11.99-1.44,7.83-8.53,14.42-16.03,14.84l-.03-1.14c7.93-1.86,13.04-6.43,14.64-14.4,.65-3.24,.37-6.49,.19-9.74Z"/>
  <path class="cls-9" d="M180.82,93.46c.31,.19,.62,.38,.93,.56-1.54,4.28-3.09,8.57-4.63,12.85-.22,.37-.44,.73-.65,1.1-.78,1.36-1.47,2.86-3.52,2.53-1.93-.31-2.79-1.62-3.22-3.33-.12-.5-.28-.99-.43-1.48,1.34-1,2.74-.42,4.14-.17-.05,.17-.06,.35-.15,.49-.32,.51-1.43,.63-.85,1.56,.15,.24,.56,.47,.85,.46,.73-.03,1.02-.65,1.23-1.2,1.45-3.78,2.87-7.57,4.31-11.36,.36-.95,.55-2.08,1.99-2.02Z"/>
  <path class="cls-16" d="M82.57,107.43c6.96-1.46,13.92-1.81,20.88-.05,.97,.25,2.16,.28,2.47,1.56,0,0,.04-.02,.04-.02-1.05,.19-2.05,.14-3.12-.17-3.6-1.03-7.31-1.06-11.04-1.07-3.31,0-5.33,2.16-7.69,3.82,0,0,.03,.01,.03,.01-.37-.96,1.16-2.99-1.64-2.64-.37,.05-.5-.96,.06-1.45Z"/>
  <path class="cls-16" d="M187.8,92.36c.55,.97,1.34,1.17,2.41,.85,.53-.16,1.34-.79,1.64,.35-.14,.3-.26,.6-.39,.9-1.43,.11-2.87,.23-4.37,.95,.86,.06,1.55,.11,2.24,.16,0,.35,.01,.7,.02,1.05-1.95,1.03-4.44,.47-6.21,1.81,4,3.42,7.78,7.1,13.69,6.1,.11-.02,.27,.19,.41,.3-1.98,0-3.97-.01-5.95,0-.83,0-1.81-.17-2.01,1.04-2.03-2.87-4.86-4.79-7.97-6.38,.89-1.71,.48-4.08,2.73-5.1,1.03,0,2.12,.36,2.98-.52,.35,.02,.67,.02,.24-.4-.09-.15-.13-.3-.12-.48,.21-.21,.43-.41,.64-.62Z"/>
  <path class="cls-16" d="M83.28,176.5c4.52,1.57,9.1,1.06,13.68,.37,.51-.08,1.03-.12,1.54-.17,.01,.75,.53,.94,1.17,.97-.13,.43-.34,.8-.84,.9-4.89,.91-9.78,1.34-14.74,.35-1.15-.23-1.64-.81-1.99-1.73,.28-.25,.57-.5,.85-.75,.1,.05,.21,.08,.33,.07Z"/>
  <path class="cls-13" d="M216.43,39.62c0,1.89,0,3.78,0,5.67,0,.53-.08,1.09-.77,1.15-.87,.09-1-.52-1-1.17-.01-2.15-.04-4.3-.01-6.45,.01-1.02,.02-1.93-1.43-1.9-.49,.01-1.15,.04-1.17-.69-.01-.52,.53-.58,.91-.79,.53-.29,1.05-.62,1.48-1.03,.54-.52,.24-2.07,1.57-1.54,.97,.39,.37,1.55,.42,2.35,.09,1.46,.03,2.92,.03,4.38h0Z"/>
  <path class="cls-9" d="M108.6,179.02c0-.61,0-1.22,0-1.83,1.23,.06,2.46,.11,3.68,.17,.18,.27,.37,.3,.59,.04,3.35-.06,6.71-.13,10.06-.19,0,.51,0,1.03,0,1.54-.27,.03-.54,.06-.8,.09-.33-.12-.6-.05-.78,.26-4.25,.33-8.49,.44-12.73-.07Z"/>
  <path class="cls-16" d="M122.92,178.75c0-.51,0-1.03,0-1.54,1.13-.86,2.96,.22,3.83-1.33,.47-.16,.95-.32,1.42-.48,1.8,.56,3.6,1.12,5.4,1.69,0,.55-.01,1.1-.02,1.65-2.09,.33-3.76-1.89-5.96-.93-1.12-.02-2.43-.71-3.07,.88-.53,.02-1.07,.05-1.6,.07Z"/>
  <path class="cls-13" d="M294.52,180.27c-1.94,.51-3.9,.62-5.86,.14,0-.37,.02-.74,.03-1.12,2.97,.08,5.91-.25,8.85-.65,.75,.13,1.19-.15,1.24-.91l.16-.13h.21c.22-.05,.43-.11,.65-.17,1.41-.51,2.82-1.02,4.22-1.53,.02,.42,.04,.84,.06,1.26-.39,.17-.78,.33-1.17,.5-.76-.03-1.44,.04-1.49,1-1.86,.85-3.79,1.45-5.88,1.48-.41-.48-.74-.36-1.03,.12Z"/>
  <path class="cls-13" d="M311.48,171.87c.01,.38,.02,.76,.03,1.14-.22,.17-.44,.35-.65,.52-.29,.06-.57,.13-.86,.19-.16,.13-.32,.26-.48,.38-.37,.21-.75,.41-1.12,.62-.15,.14-.29,.27-.44,.41-.24,.13-.48,.26-.72,.38,0,0-.03,.06-.03,.06-.15,.11-.3,.23-.46,.34-.25,.12-.51,.24-.76,.36-.29-.3-.59-.6-.88-.9,1.06-1.01,2.75-1.03,3.67-2.25,.03-.35,.07-.71,.1-1.06,.87-.07,1.74-.14,2.6-.21Z"/>
  <path class="cls-13" d="M280.41,179.21c.22-.02,.43-.04,.65-.06,1.38,.33,1.16-1.73,2.44-1.54,.17-.05,.3,0,.39,.15,.05,.75,.49,1,1.21,.89,.84,.17,1.69,.34,2.53,.51l-.54,1.05c-.92,.08-1.8-.06-2.64-.41-.38-.57-.74-.56-1.1,.02-1.02,0-2.38,1.56-2.93-.6Z"/>
  <path class="cls-16" d="M193.21,180.94c3.82,.41,7.65,.37,11.48,.22-3.84,.56-7.67,.71-11.48-.22Z"/>
  <path class="cls-16" d="M148.96,178.69c2.04-2.01,5.77-2,6.91,.02-.94-1.04-1.93-1.58-3.32-.62-1.06,.73-2.35,.62-3.59,.6Z"/>
  <path class="cls-16" d="M334.5,92.9c-.39,0-.78,.01-1.17,.02-.57-.78-.6-1.67-.59-2.57,.3-.3,.59-.61,.89-.92,.74,1.05,.89,2.24,.87,3.47Z"/>
  <path class="cls-14" d="M124.53,178.68c.63-1.58,1.95-.89,3.07-.88-.68,1.42-1.98,.81-3.07,.88Z"/>
  <path class="cls-14" d="M104.63,177.6c1.02,.23,2.42-.48,2.9,1.09-1.14,.06-2.34,.3-2.9-1.09Z"/>
  <path class="cls-15" d="M83.28,125.6c-.36-.01-.71-.03-1.07-.04-.06-.82-.11-1.64-.19-2.73,1.12,.83,1.23,1.78,1.26,2.77Z"/>
  <path class="cls-16" d="M271.72,181.15c.87-.55,1.73-.59,2.58,.04-.86,.27-1.72,.3-2.58-.04Z"/>
  <path class="cls-16" d="M326.58,142.98c-.5-.98-1.16-1.96-.04-2.96,.01,.99,.03,1.97,.04,2.96Z"/>
  <path class="cls-16" d="M334.79,96.52c-.6-.66-.61-1.32-.03-2,.31,.66,.31,1.33,.03,2Z"/>
  <path class="cls-16" d="M224.44,181.14c.68-.52,1.35-.53,2.03,.01-.68,.29-1.35,.3-2.03-.01Z"/>
  <path class="cls-16" d="M305.1,175.4c.29,.3,.59,.6,.88,.9-.54,.5-1.17,.79-1.9,.88-.02-.42-.04-.84-.06-1.26,.36-.17,.73-.34,1.09-.51Z"/>
  <path class="cls-16" d="M82.16,118.49c.71-.2,1.42-.41,1.99,.29-.77,.61-1.56,1.27-1.99-.29Z"/>
  <path class="cls-16" d="M325.9,133.25c-.7-.52-.54-1.21-.42-1.91,.64,.53,.5,1.22,.42,1.91Z"/>
  <path class="cls-16" d="M271.14,64.53c-.62,.73-1.45,.48-2.24,.44,.7-.38,1.42-.66,2.24-.44Z"/>
  <path class="cls-13" d="M165.58,80.54c.43,.61,1.19,1.15,.49,2.02-.34-.63-.57-1.29-.49-2.02Z"/>
  <path class="cls-13" d="M166.47,85.16c.81,.53,.55,1.25,.35,1.95-.55-.58-.45-1.26-.35-1.95Z"/>
  <path class="cls-16" d="M301.42,178.67c.05-.97,.73-1.03,1.49-1-.18,.78-.64,1.16-1.49,1Z"/>
  <path class="cls-11" d="M86.27,118.53c.3-.27,.69-.31,.9-.02,.34,.49,.17,.96-.34,1.29-.19-.42-.37-.85-.56-1.27Z"/>
  <path class="cls-16" d="M326.53,137.16c-.12-.61-.96-1.13-.21-1.84,.36,.58,.46,1.19,.21,1.84Z"/>
  <path class="cls-16" d="M287.08,180.21c.18-.35,.36-.7,.54-1.05,.35,.04,.71,.09,1.06,.13,0,.37-.02,.74-.03,1.12-.52-.07-1.05-.13-1.57-.2Z"/>
  <path class="cls-6" d="M82.95,176.43c-.28,.25-.57,.5-.85,.75-.33-.17-.55-.45-.28-.76,.34-.39,.76-.19,1.14,.01Z"/>
  <path class="cls-16" d="M208.47,180.73c.39-.47,.89-.45,1.42-.3-.4,.44-.88,.49-1.42,.3Z"/>
  <path class="cls-16" d="M294.52,180.27c.29-.48,.62-.59,1.03-.12-.31,.29-.66,.29-1.03,.12Z"/>
  <path class="cls-16" d="M210.57,180.31c.27-.49,.59-.65,1.04-.18-.3,.28-.65,.33-1.04,.18Z"/>
  <path class="cls-16" d="M101.67,177.19c.36-.53,.72-.53,1.08,0-.36,0-.72,0-1.08,0Z"/>
  <path class="cls-16" d="M135.71,179.13c.39-.49,.72-.39,1.03,.08-.36,.17-.71,.19-1.03-.08Z"/>
  <path class="cls-11" d="M85.62,123.89c.11,.44,.03,.82-.39,1.09-.71-.65-.25-.9,.39-1.09Z"/>
  <path class="cls-16" d="M295.02,65.71c-.69,.55-1.47,.34-2.24,.28,.71-.34,1.46-.43,2.24-.28Z"/>
  <path class="cls-16" d="M297.71,65.54c-.31,.49-.65,.57-1.04,.08,.33-.24,.67-.28,1.04-.08Z"/>
  <path class="cls-16" d="M283.34,179.81c.36-.58,.73-.59,1.1-.02-.36,.18-.73,.24-1.1,.02Z"/>
  <path class="cls-16" d="M214.57,179.33c.57-.13,1.07-.1,1.35,.51-.55,.08-.98-.13-1.35-.51Z"/>
  <path class="cls-16" d="M308.4,174.73c.37-.21,.75-.41,1.12-.62-.11,.66-.63,.61-1.12,.62Z"/>
  <path class="cls-16" d="M216.23,51.49c-.62,.04-1.23,.08-1.85,.12,.6-.27,1.21-.51,1.85-.12Z"/>
  <path class="cls-16" d="M291.25,66.39c-.52,.28-1.01,.32-1.47-.12,.49,.04,.98,.08,1.47,.12Z"/>
  <path class="cls-13" d="M167.13,89.8c.53,.42,.49,.98,.42,1.55-.41-.45-.54-.97-.42-1.55Z"/>
  <path class="cls-13" d="M167.68,92.42c.47,.45,.38,.78-.24,.99,.08-.33,.16-.66,.24-.99Z"/>
  <path class="cls-16" d="M156.42,91.88c-.45,.04-.83-.06-1.08-.46,.36,.15,.72,.31,1.08,.46Z"/>
  <path class="cls-16" d="M289.23,66.04c-.42,.04-.81-.02-1.07-.39,.36,.13,.71,.26,1.07,.39Z"/>
  <path class="cls-12" d="M333.02,114.64c-.16-.42-.12-.79,.22-1.12,.17,.42,.15,.8-.22,1.12Z"/>
  <path class="cls-15" d="M82.83,129.59c.32,.36,.31,.76,.15,1.18-.33-.36-.38-.75-.15-1.18Z"/>
  <path class="cls-16" d="M310,173.73c.29-.06,.57-.13,.86-.19-.19,.47-.59,.03-.86,.19Z"/>
  <path class="cls-15" d="M82.96,134.14c-.05,.23-.1,.46-.15,.69,.05-.23,.1-.46,.15-.69Z"/>
  <path class="cls-16" d="M307.24,175.53c.24-.13,.48-.26,.72-.38-.24,.13-.48,.26-.72,.38Z"/>
  <path class="cls-16" d="M306.75,175.93c.15-.11,.3-.23,.46-.34,0,.32-.18,.38-.46,.34Z"/>
  <path class="cls-16" d="M121.33,179.1c.18-.31,.45-.37,.78-.26-.26,.09-.52,.17-.78,.26Z"/>
  <path class="cls-16" d="M156.86,179.26c.21,.12,.42,.25,.62,.37-.21-.12-.42-.25-.62-.37Z"/>
  <path class="cls-16" d="M262.62,179.66c.23-.13,.46-.26,.7-.38-.23,.13-.47,.26-.7,.38Z"/>
  <path class="cls-16" d="M187.59,179.81c.21,.06,.42,.11,.63,.17-.21-.06-.42-.11-.63-.17Z"/>
  <polygon class="cls-16" points="189.17 180.2 189.24 180.22 189.13 180.41 189.17 180.2"/>
  <path class="cls-16" d="M232.94,180.52c.22-.06,.43-.13,.65-.19-.22,.06-.43,.13-.65,.19Z"/>
  <path class="cls-15" d="M82.26,136.29c.11,.14,.23,.27,.34,.41-.37,.06-.5-.06-.34-.41Z"/>
  <path class="cls-12" d="M333.19,108.05c-.06-.22-.12-.44-.18-.67,.06,.22,.12,.44,.18,.67Z"/>
  <path class="cls-12" d="M332.98,103.8c-.09-.29,.03-.46,.32-.51-.11,.17-.22,.34-.32,.51Z"/>
  <path class="cls-16" d="M333.88,101.31c.07-.2,.15-.4,.22-.59-.07,.2-.15,.4-.22,.59Z"/>
  <path class="cls-14" d="M187.28,93.46c.42,.42,.11,.42-.24,.4,.03-.16,.11-.3,.24-.4Z"/>
  <path class="cls-16" d="M159.67,93.41c-.2-.13-.4-.26-.61-.39,.2,.13,.4,.26,.61,.39Z"/>
  <path class="cls-12" d="M174.48,92.7c-.19,0-.38,0-.57,0,.19-.33,.38-.33,.57,0Z"/>
  <polygon class="cls-13" points="167.07 89.41 167.1 89.62 166.91 89.54 167.07 89.41"/>
  <path class="cls-16" d="M287.69,65.5c-.19-.08-.39-.17-.58-.25,.19,.08,.39,.17,.58,.25Z"/>
  <path class="cls-16" d="M285.65,64.95c-.22-.05-.43-.11-.65-.16,.22,.05,.43,.11,.65,.16Z"/>
  <path class="cls-16" d="M283.48,64.46c-.32-.01-.65-.02-.97-.04,.33-.25,.65-.17,.97,.04Z"/>
  <path class="cls-16" d="M272.66,64.34c-.22,.02-.45,.05-.67,.07,.22-.02,.45-.05,.67-.07Z"/>
  <path class="cls-2" d="M215.02,94.35c-.49-3.7-2.38-6.96-3.64-10.4-1.81-4.94-3.47-9.91-4.62-15.03-.97-4.3-.22-8.41,2.14-12.12,3.12-4.91,10.49-5.63,14.76-1.63,1.13,1.06,1.2,1.76-.36,2.44-1.53,.66-2.92,1.67-4.5,2.18-2.5,.8-3.12,2.44-3.01,4.76,.27,5.35,2.55,10.14,4.42,15.02,2.7,7.07,5.6,14.06,5.93,21.73,.08,1.99,0,3.97-1.16,5.71-.64,.95-1.47,1.86-2.71,1.87-1.44,.01-1.29-1.38-1.73-2.25-1.46-2.88-1.82-6.27-4.2-8.73-.16-.45-1.64,.06-.82-1.16,.57-.85,.36-1.72-.48-2.38Z"/>
  <path class="cls-8" d="M144.93,138.44c.12-1.55,.38-2.8,2.4-1.43,1.07,.73,2.41,.87,3.5,.24,.95-.54,1.83-.2,2.73-.31,0,0,.12-.03,.12-.03-.2,.53-.03,.69,.51,.5v.13c2,3.09,4.99,5.38,7.12,8.4,3.04,4.31,5.83,8.64,5.68,14.13-.03,1.21,.02,2.4-1.64,2.8-1.57,.38-3.02,1.49-4.55-.25-1.37-1.56-2.99-2.91-4.5-4.36,.65-1.67,.44-2.55-1.66-1.72-4.95-5-8.78-10.58-9.72-17.67,.12-.15,.12-.29,0-.44Z"/>
  <path class="cls-8" d="M126.77,95.28c4.45-3.5,9.18-3.88,13.91-3.04,8.48,1.51,15.72,5.55,21.86,11.38,1.45,1.38,3.34,2.99,1.7,5.33-1.15,1.65-4.03,1.69-6.55,.22-4.31-2.51-8.37-6.21-13.44-6.36-7.04-.2-10.95-5.91-17.48-7.53Z"/>
  <path class="cls-8" d="M233.02,80.4c2.41,1.5,4.97,2.59,7.87,2.68,1.43,.05,2.26,.97,2.91,1.98,4.43,6.87,7.19,14.3,7.66,22.46,.01,.26,.02,.52,0,.77-.14,1.43,.08,3.22-1.74,3.65-1.61,.38-2.34-1.12-3.15-2.24-3.96-5.46-8.4-10.62-10.81-17.03-1.46-3.88-2.57-7.82-3.12-11.92,.13-.12,.26-.24,.39-.36Z"/>
  <path class="cls-8" d="M278.54,106.99c-.21,1.7-.37,3.42-.66,5.11-.09,.53-.11,1.33-.8,1.48-.7,.15-1.07-.55-1.37-1.02-2.57-4.01-5.35-7.87-8.33-11.6-3.37-4.2-6.99-8.25-8.21-13.67-.33-1.48-1.51-3.19-.57-4.35,.63-.78,2.3,.73,3.61,.8,.35,.02,.7,.29,1.02,.25,6.76-1.01,8.79,4.19,11.36,8.4,2.71,4.44,3.74,9.43,3.94,14.61Z"/>
  <path class="cls-8" d="M111.74,158.59c-.14,1.72,.21,3.09-1.54,3.68-1.55,.53-2.84,.97-4.35-.36-5.09-4.46-9.79-9.2-12.65-15.38-1.14-2.47-1.77-5.05-1.47-7.76,.17-1.61,.72-2.09,2.86-2.15,4.44-.11,6.36,2.7,8.58,5.37,3.4,4.09,6.54,8.35,7.98,13.53,.32,1.15,.45,2.35,.59,3.07Z"/>
  <path class="cls-8" d="M120.2,139.24c-.39-1.72,.47-1.59,2.31-1.89,4.32-.69,6.18,1.96,8.34,4.48,3.91,4.56,7.61,9.24,9.15,15.16,1.02,3.92,.2,5.26-3.8,6.21-.74,.18-1.38,.16-1.97-.35-7.01-6.05-12.74-12.85-13.95-22.33-.04-.34-.05-.69-.09-1.28Z"/>
  <path class="cls-8" d="M218.86,161.88c-.13,1.51,.12,2.83-1.48,3.55-1.55,.69-2.36-.37-3.21-1.12-7.33-6.48-12.49-14.16-13.97-23.9-.25-1.63,.05-1.97,1.82-2.7,4.36-1.8,6.21,.56,8.25,3.41,4.55,6.36,8.16,13.07,8.6,20.76Z"/>
  <path class="cls-8" d="M176.57,137.45c3.15-1.81,4.35,1.05,5.94,3.11,3.94,5.1,7.56,10.37,9.57,16.53,.49,1.49,.75,3,.78,4.55,.02,1.11,.1,2.28-1.35,2.76-1.36,.45-2.49,.68-3.89-.37-7.26-5.4-11.81-12.38-13.6-21.07-.22-1.08-.18-2.23-.17-3.34,0-2.16,.03-2.16,2.72-2.18Z"/>
  <path class="cls-2" d="M240.06,71.39c-1.77,.11-3.5-.19-4.42-1.77-3.55-6.13-6.44-12.44-4.95-19.78,.96-4.75,5.4-9.77,10.14-9.18,2.21,.27,4,1.22,5.74,2.42,1.1,.76,.83,1.31-.2,1.87-1.62,.88-3.11,2.06-4.83,2.66-2.61,.92-3.21,2.66-2.97,5.04,.34,3.29,1.83,6.26,2.71,9.4,.53,1.9,1.12,3.8,1.59,5.71,.79,3.23,.46,3.62-2.82,3.64Z"/>
  <path class="cls-8" d="M101.16,96.18c2.22-1.55,4.76-2.32,7.35-2.57,9.9-.95,18.63,2.17,26.61,7.61,.85,.58,1.59,1.37,2.25,2.18,1.09,1.34,1.86,2.84,.56,4.44-1.27,1.56-2.97,2.24-4.94,1.43-1.87-.77-3.78-1.55-5.44-2.65-3.47-2.3-7.23-3.58-11.4-3.68-1.39-.03-2.42-.27-3.36-1.5-2.23-2.91-5.9-3.21-9.12-4.29-.8-.27-1.79-.03-2.51-.96Z"/>
  <path class="cls-8" d="M304.73,109.38c-.12,1.73,.23,3.35-1.47,3.94-1.57,.54-2.8-.45-3.61-1.59-5.15-7.27-10.95-14.17-13.97-22.67-.14-.41-.31-.81-.41-1.23-1.04-4.19-.85-4.07,3.38-3.58,3.53,.41,5.48,2.07,7.31,4.79,3.65,5.44,6.84,11.03,8.31,17.42,.25,1.08,.35,2.2,.46,2.92Z"/>
  <path class="cls-1" d="M197.25,104.81c-.14-.1-.29-.32-.41-.3-5.91,1.01-9.7-2.67-13.69-6.1,1.77-1.33,4.26-.78,6.21-1.81,9.06-.65,17.57,.9,25.19,5.97,2.12,1.41,3.98,3.01,4.88,5.55,.57,1.62,.45,2.83-.92,3.87-1.51,1.14-2.53,.2-3.65-.77-4.02-3.51-8.83-5.16-14.18-5.47-.71-1.39-1.84-.4-2.78-.47,0,0-.06,0-.06,0-.18-.13-.36-.27-.54-.4l-.06-.08Z"/>
  <path class="cls-8" d="M317.82,152.93c.05,2.93,.01,5.86-.61,8.74-1.07,4.91-4.48,7.49-9.64,7.46-1.4,0-2.35-.04-1.26-1.8,1.7-2.74,1.83-5.88,1.98-8.97,.2-4.29,.24-8.6,.49-12.89,.21-3.68,1.52-6.57,5.7-7.68,1.48-.39,1.54-.1,1.77,1.06,.91,4.66,1.5,9.34,1.58,14.08Z"/>
  <path class="cls-8" d="M232.09,67.05c2.52,6.04,7.21,6.23,12.66,5.51,5.83-.76,11.74-1.71,17.64-.25,1.28,.32,2.52,.71,3.6,2.02-8.37,3.1-15.98,8.04-25.37,7.32-5.83-.44-10.01-4.58-10.11-10.01-.03-1.44,.09-2.9,1.59-4.59Z"/>
  <path class="cls-8" d="M273.75,157.77c.08,1.53-.37,2.89-1.25,4.13-2.23,3.15-3.75,3.12-5.43-.18-2.09-4.12-4.92-7.72-8.14-11.05-2.38-2.46-3.93-5.28-3.93-8.73,0-2.88,.89-3.38,3.46-2.03,1.25,.66,2.53,.66,3.84,.18,.95-.34,1.79-.53,2.59,.44,3.72,4.52,7.09,9.22,8.58,14.94,.19,.74,.19,1.53,.28,2.29Z"/>
  <path class="cls-8" d="M246.21,161.26c-.13,1.35,.34,2.51-1.09,3.2-1.45,.7-2.48,.23-3.58-.68-6.62-5.45-11.81-11.77-13.24-20.4-.31-1.86-.6-3.72,2.46-2.84,.24,.07,.58,.08,.78-.04,3.6-2.07,5,.66,6.57,2.88,3.34,4.76,6.53,9.6,7.72,15.38,.19,.92,.29,1.86,.38,2.51Z"/>
  <path class="cls-8" d="M300.33,158.07c.07,1.16-.18,2.09-1.53,2.33-1.66,.29-2.99,2.58-4.99,.87-5.48-4.7-10.36-9.8-12.06-17.05-.47-2.02-.34-3.06,1.97-4.32,2.62-1.43,3.62-.05,5.2,1.05,5.24,3.64,9.21,8.19,10.93,14.35,.25,.9,.33,1.85,.49,2.78Z"/>
  <path class="cls-8" d="M200.67,107.58c2.68,.08,6.42,.59,9.89,2.27,2.93,1.42,4.82,3.66,5.46,6.85,.31,1.57-.11,2.18-1.89,1.98-6.92-.77-13.85-1.44-20.85-.97-4.8,.32-5.02-.09-3.07-4.61,1.87-4.33,3.93-5.55,10.46-5.53Z"/>
  <path class="cls-8" d="M231.51,109.74c2.31-.02,5.45,.29,8.45,1.47,3.69,1.46,5.81,4.38,5.86,7.8,.02,1.28-.4,1.68-1.7,1.5-8.05-1.11-16.15-1.64-24.28-1.35-1.56,.06-1.98-.32-1.54-1.93,1.57-5.63,4.8-7.67,13.21-7.5Z"/>
  <path class="cls-8" d="M188.31,140.91c0-.93-.01-1.44,0-1.96,.09-3.27-.01-2.77,2.98-2.19,6.77,1.31,7.63,6.67,8.93,11.62,1.09,4.16,.11,8.36-.95,12.48-.57,2.23-2.45,2.16-4.14,2.43-.97,.15-.88-.61-.86-1.2,.11-4.46-1.67-8.38-3.78-12.18-1.64-2.95-2.42-6.06-2.18-8.99Z"/>
  <path class="cls-8" d="M332.74,90.35c0,.9,.02,1.8,.59,2.57,.07,1.05,.13,2.1,.2,3.14-.02,.5-.04,.99-.06,1.49-.46,1.59-.93,3.18-1.59,5.46-2.51-5.37-5.68-9.47-10.05-12.48-3.52-2.43-6.78-5.14-10.11-7.79-.66-.52-1.73-1.18-.07-1.76,5.92-2.08,12.73-2.29,17.79,3.26,1.61,1.76,2.09,4.14,3.3,6.12Z"/>
  <path class="cls-8" d="M108.73,171.85c-2.56-.15-5.42-.5-7.8-2.47-1-.83-1.54-1.43,.14-2.11,6.77-2.76,13.51-5.67,20.9-6.37,3.43-.33,6.93-.1,9.78,2.25,.46,.38,1.75,1.05,.24,1.64-7.44,2.91-14.6,6.68-23.26,7.06Z"/>
  <path class="cls-8" d="M136.88,171.96c-2.9-.09-5.73-.59-8.12-2.5-1-.8-1.2-1.36,.25-1.9,6.49-2.43,12.78-5.39,19.67-6.7,3.89-.74,7.36,0,10.25,2.79,.7,.67,1.02,1.21-.13,1.72-7,3.1-13.96,6.33-21.93,6.59Z"/>
  <path class="cls-8" d="M259.23,94.35c-.27,5-.92,9.14-2.65,13.06-.42,.95-.98,1.83-1.83,2.5-.43,.34-.91,.61-1.45,.37-.59-.26-.49-.82-.48-1.34,.12-7.03-1.88-13.55-4.99-19.83-1.16-2.35,.32-4.37,1.41-6.19,.99-1.64,3.27-1.46,4.98-2.04,.47-.16,.84,.54,1.05,1,2.02,4.21,3.32,8.62,3.95,12.47Z"/>
  <path class="cls-8" d="M321.75,118.66c-.12,4.9-1.47,9.51-3.74,13.84-1.1,2.1-2.82,3.75-5.19,4.57-2.36,.82-4.04-.15-4.37-2.58-.14-1.01-.15-2.1,.09-3.08,1.41-5.69,3.28-11.23,6.18-16.39,.61-1.08,1.07-1.76,2.18-.39,.6,.74,1.72,.67,2.49,.35,2.57-1.08,2.61,.34,2.42,2.13-.05,.51-.06,1.03-.09,1.55Z"/>
  <path class="cls-8" d="M164.34,173.32c3.21,.09,6.31-.54,9.34-1.43,1.45-.42,2.41-.41,3.37,.91,1.34,1.84,3.26,3.11,5.24,4.26,.44,.26,1.06,.34,1.08,.98,.02,.71-.66,.74-1.11,.87-6.95,1.98-13.95,2.83-21.07,.81-2.78-.79-4.72-2.83-7.02-4.35-.47-.31-.68-1.07-1.48-.8,0,0-.02-.02-.02-.02,.16-1.11-1.06-1.44-1.36-2.28-.24-.68-1.6-1.44-.2-2.04,.85-.36,1.85-1.55,3-.2,2.54,2.99,6.01,3.5,9.72,3.29,0,0,.25,.1,.25,.1l.24-.11Z"/>
  <path class="cls-8" d="M120.3,156.22c-.31,1.07,.6,2.72-.62,3.28-1.79,.82-3.86,1.13-5.84,1.51-.7,.13-.65-.57-.65-1.11,.08-5.03-2.04-9.37-4.8-13.38-1.94-2.81-1.73-5.84-1.79-8.91,0-.25,.01-.55,.14-.75,.33-.51,5.16-.62,5.58-.13,4.92,5.6,7.77,11.99,7.98,19.49Z"/>
  <path class="cls-8" d="M292.16,75.95c-9.43,3.5-18.02,7.68-27.96,6.66-.35-.04-.71-.04-1.05-.12-2.07-.45-4.89-.73-5.33-2.66-.28-1.24,2.8-1.7,4.41-2.4,5.27-2.28,10.71-4.04,16.53-4.41,4.5-.29,8.81,.29,13.41,2.93Z"/>
  <path class="cls-8" d="M174.43,154.64c0,.84,.02,1.62,0,2.39-.13,3.96-.77,4.53-4.81,4.7-1.07,.05-1.14-.35-1.11-1.17,.21-5.62-2.21-10.35-5.52-14.69-1.89-2.48-1.95-5.25-2.06-8.08-.04-1.12,.79-1.78,1.52-2.28,.87-.59,.97,.67,1.51,.98,.6,.34,1.2,.92,1.82,.95,3.67,.18,5.22,2.85,6.28,5.51,1.49,3.73,2.81,7.61,2.38,11.69Z"/>
  <path class="cls-8" d="M243.66,146.49c-.3-1.78,.41-3.42,.57-5.13,.19-2.1,2.2-2.8,4.22-2.07,3.59,1.3,4.49,4.33,5.44,7.32,1.39,4.36,1.59,8.78,.05,13.17-.27,.78-.5,1.61-1.36,2.12-3.42,1.99-4.75,1.45-5.18-2.24-.35-3.03-1.4-5.85-2.81-8.53-.79-1.5-1.35-2.97-.92-4.63Z"/>
  <path class="cls-8" d="M216.24,144.79c.37-2.06-.37-4.42,1.72-6.16,.76-.63,1.07-.69,1.92-.1,6.21,4.27,8.71,11.59,7.17,19.69-.63,3.3-2.22,4.93-5.41,5.58-1.05,.22-1.5,.13-1.46-.98,.19-4.95-1.4-9.48-3.48-13.9-.62-1.32-.31-2.71-.47-4.13Z"/>
  <path class="cls-8" d="M259.69,111.55c3.08,.13,6.18,.15,9.12,1.22,3.36,1.22,4.79,3.84,5.28,7.09,.23,1.49-.69,1.48-1.78,1.32-7.52-1.11-15.07-1.65-22.65-.74-1.98,.24-1.8-.71-1.6-1.9,.7-4.23,3.77-6.77,8.46-6.99,1.06-.05,2.12,0,3.17,0Z"/>
  <path class="cls-8" d="M318.19,78.16c-6.4,.48-11.65,3.68-17.55,4.7-4.48,.77-8.94,1.09-13.34-.31-1.16-.37-2.39-.67-3.42-1.9,8.02-3.08,15.78-6.54,24.44-7.06,4.6-.28,7.13,.98,9.88,4.58Z"/>
  <path class="cls-8" d="M164.78,172.04c-3.79,0-6.39-.23-8.63-1.9-1.15-.86-1.28-1.54,.18-2.19,6.36-2.81,12.78-5.53,19.88-5.72,3.39-.09,6.93,0,9.69,2.54,.65,.59,1.25,1.07-.12,1.59-7.15,2.72-14.31,5.39-21,5.68Z"/>
  <path class="cls-8" d="M84.12,111.51c2.36-1.66,4.38-3.82,7.69-3.82,3.73,0,7.44,.04,11.04,1.07,1.06,.3,2.06,.35,3.12,.17,.73,2.12,2.58,3.76,2.68,6.17,.05,1.22,.06,1.98-1.62,1.73-7.04-1.08-14.1-1-21.11,.27-2.44,.44-2.4-.73-2.21-2.39,.12-1.07,1.14-2.03,.41-3.2Z"/>
  <path class="cls-8" d="M192.12,173.07c-2.73,.08-5.93-.63-8.72-2.75-.83-.63-1.08-1.19,.09-1.63,7.35-2.71,14.69-5.54,22.76-5.26,2.4,.08,4.73,.54,6.72,2.02,.83,.62,1.42,1.17,0,1.77-6.47,2.71-12.8,5.91-20.86,5.84Z"/>
  <path class="cls-8" d="M272.61,172.97c-3.56,.46-7.06,.91-10.27-1.45-1.52-1.12-1.46-1.55,.18-2.36,5.6-2.74,11.21-5.46,17.37-6.83,4.14-.92,8.29-1.22,12.82,.98-6.72,3.55-12.73,7.25-19.5,9.53-.2,.04-.4,.09-.6,.13Z"/>
  <path class="cls-8" d="M235.38,170.12c4.3-2.3,8.44-3.7,12.5-5.24,2.95-1.12,6-2.01,9.15-2.49,3.28-.5,6.32-.05,9.06,1.89,.82,.58,1.24,1.03,.03,1.58-5.41,2.47-10.48,5.72-16.56,6.65-4.86,.74-9.38,.08-14.18-2.4Z"/>
  <path class="cls-8" d="M300.41,121.39c-7.18-1.07-14.39-1.48-21.63-.61-1.53,.18-1.79-.52-1.7-1.79,.24-3.51,2.11-5.7,5.73-6.41,4.68-.91,9.31-.61,13.84,.82,3.06,.97,4.65,3.16,5.37,6.15,.37,1.54,.06,2.15-1.61,1.84Z"/>
  <path class="cls-8" d="M324.72,95.22c8.2,8.21,9.58,19,2.62,28.63-.15,.21-.28,.45-.47,.62-.92,.82-1.47,2.94-2.68,2.29-1.13-.6-1.54-2.49-1.45-4.16,.32-6.23,1.05-12.4,1.92-18.58,.38-2.67,.06-5.44,.06-8.8Z"/>
  <path class="cls-8" d="M285.03,100.93c.28,3.01,.3,5.17-.13,7.28-.33,1.62-1.13,2.94-3.16,2.81-1.18-.08-2-.53-1.94-1.91,.32-6.86-1.35-13.22-4.82-19.23-1.59-2.75,.36-6.5,3.07-7.39,1.56-.51,2.04,.13,2.62,1.22,3.03,5.67,4.56,11.68,4.35,17.21Z"/>
  <path class="cls-8" d="M177.12,106.88c.21,.21,.41,.42,.62,.63,.32,1.53,1.75,1.17,2.74,1.47,3.49,1.05,6.22,2.79,7.01,6.57,.33,1.6,.09,2.46-1.91,2.21-6.75-.86-13.52-1.39-20.31-.5-1.38,.18-1.5-.61-1.31-1.55,.5-2.5,1.46-4.76,3.74-6.28,.49-.33,1.29-.59,.97-1.31-.27-.61-.9-.3-1.36-.04-.65,.37-.97,.13-1.07-.52-.1-.62-.15-1.31,.71-1.36,.78-.04,1.36-.27,1.78-.9,.19,.14,.39,.28,.58,.43,.14,.49,.3,.98,.43,1.48,.43,1.71,1.3,3.02,3.22,3.33,2.05,.33,2.74-1.17,3.52-2.53,.21-.37,.43-.74,.65-1.1Z"/>
  <path class="cls-8" d="M160.51,117.62c-6.95-.59-13.9-1.11-20.89-.59-2.69,.2-2.9-.18-2.05-2.7,1.26-3.72,4.05-5.74,8.09-5.95,4.67-.23,9.13,.19,13.14,2.93,2.34,1.59,3.57,4.47,2.32,6.31-.2,0-.4,0-.61,0Z"/>
  <path class="cls-8" d="M122.08,107.74c2.94-.19,6.16,.79,9.25,2.43,2.24,1.19,3.14,3.16,3.66,5.38,.29,1.21,.03,1.9-1.61,1.71-6.92-.79-13.85-1.68-20.82-.51-1.49,.25-1.54-.54-1.32-1.67,1.04-5.34,4.02-7.51,10.83-7.34Z"/>
  <path class="cls-8" d="M288.74,173.56c-1.45,.09-3.53-.57-5.5-1.6-1-.52-1.69-1.18-.16-1.93,6.05-2.96,11.74-6.64,18.11-8.98,1.67-.61,3.83-1.9,5.14-.47,1.09,1.18-.11,3.25-.7,4.84-.85,2.28-2.44,3.83-4.76,4.87-3.62,1.63-7.23,3.19-12.14,3.26Z"/>
  <path class="cls-4" d="M194.43,87.67c-2.53,.4-5.06,.78-7.63,.46-2.19-.27-3.2-1.64-2.77-3.73,.64-3.08,7.15-9.25,10.29-9.71,.06,0,.16,.26,.24,.4-2.52,1.97-5.27,3.74-7.01,6.49-.78,1.24-1.36,2.61,1.23,3.7-1.33-2.47,.1-3.68,1.38-4.96,2.47-2.49,5.37-4.41,8.42-6.14,.7-.39,2.13-.59,.88-1.89-.17-.13-.33-.25-.5-.38,1.96-1.07,3.91-2.14,5.97-3.26,.3,1.35-1.36,1.1-1.31,2.27,2.92-.83,2.36,1.54,2.8,2.98,.58,1.87-1.22,1.7-2.17,2.15-2.14,1-4.4,1.78-6.5,2.84-2.03,1.03-2.03,2.05-.21,3.42,3.24,2.44,3.23,2.54-.46,4.4-.62,.31-1.29,.54-1.94,.81-.24,.06-.48,.11-.71,.17Zm-1.89-3.46c-1.27,.16-2.55,.32-4.5,.56,1.95,1.16,3.24,.92,4.53,.46,.56,.04,1.13-.09,1.03-.74-.08-.5-.64-.37-1.05-.28Z"/>
  <path class="cls-2" d="M229,91.99c.2,2.63,.42,6.23,.77,9.81,.1,1,.51,2.01,.95,2.93,.99,2.05,.6,2.6-1.9,2.64-1.3,.02-2.14-.33-1.72-1.77,1.35-4.64,0-9.04-1.01-13.54-1.33-5.86-4.38-11.15-5.63-17.03-.74-3.5-.73-3.62,2.7-4.76,4.86-1.62,4.79-1.62,4.96,3.52,.2,5.74,.55,11.48,.88,18.19Z"/>
  <path class="cls-8" d="M207.09,119.39c3.15-.5,5.41,1.01,6.9,4.45,1.43,3.3,3.47,6.34,4.02,9.99,.23,1.54,.17,2.97-1.24,3.93-1.37,.93-2.82,.7-4.25,0-1.62-.79-2.96-1.9-3.84-3.43-2.44-4.24-3.74-8.85-4.4-13.63-.2-1.42-.07-1.44,2.81-1.3Z"/>
  <path class="cls-8" d="M240.6,166.12c-6.59,2.93-12.72,5.77-19.57,6.59-3.41,.41-6.7,.03-9.79-1.53-1-.5-1.47-1.14-.06-1.68,6.1-2.32,11.96-5.27,18.45-6.52,4.03-.77,7.4,.7,10.98,3.13Z"/>
  <path class="cls-8" d="M315.37,96.39c0-2.32,.01-4.64,0-6.95-.01-1.15,.41-1.45,1.4-.75,1.85,1.32,3.69,2.64,5.53,3.97,.74,.54,1.23,1.22,1.24,2.16,.05,4.72,.03,9.45-.87,14.11-.11,.59-.31,1.16-.52,1.73-.58,1.65-1.54,3.07-3.51,2.98-1.93-.09-1.84-1.96-2.07-3.17-.91-4.65-1.23-9.36-1.19-14.09Z"/>
  <path class="cls-8" d="M199.42,180.04c-7.88,.46-14.55-2.16-20.31-7.11-.56-.48-2.04-1.15-.94-2.15,.82-.74,2.09-1.36,3.33-.26,5.65,5,12.24,4.6,18.93,2.9,1.98-.5,3.41-.51,5.03,.88,1.43,1.23,3.26,2.01,4.92,2.97,.44,.25,1.1,.32,1.08,.96-.03,.81-.77,.85-1.36,.92-3.59,.39-7.14,1.18-10.69,.89Z"/>
  <path class="cls-8" d="M311.48,171.87c-.87,.07-1.74,.14-2.6,.21-.53-.05-1.06-.1-1.58-.14-.54-.17-1.07-.33-1.61-.5,0-.33,0-.66-.01-.99,1.38-.02,2.77-.04,4.15-.06,.2-.04,.39-.08,.59-.11,4.86-1.14,7.48-4.19,8.28-8.94,.55-3.25,.67-6.5,.5-9.77-.06-1.25,.2-2.08,1.5-2.63,1.98-.83,3.27-2.52,4.83-4.32,.31,1.24,.54,2.18,.78,3.13,.18,3.25,.47,6.5-.19,9.74-1.6,7.96-6.71,12.54-14.64,14.4Z"/>
  <path class="cls-8" d="M85.28,131.4c.56-3.79,2-8.22,3.6-12.58,.65-1.77,2.65-.91,4.02-1.11,3.31-.47,3.5-.23,3.28,2.98-.27,3.95-.74,7.87-2.03,11.66-.55,1.64-1.55,2.88-3.2,3.57-3.47,1.44-5.74-.04-5.67-4.51Z"/>
  <path class="cls-8" d="M146.18,156.26c.38,2.3,.08,4.1-2.81,4.48-.96,.13-1.5,.22-1.55-.94-.23-5-2.46-9.29-5.39-13.22-1.94-2.61-1.82-5.45-1.86-8.37-.02-1.27,1.04-1.05,1.7-1.49,1.07-.71,1.75-.42,2.53,.3,3.06,2.89,4.96,6.4,6.12,10.36,.85,2.92,1.08,5.91,1.28,8.87Z"/>
  <path class="cls-8" d="M224.98,179.9c-2.1,.22-5.21,.04-7.6-.95-3.86-1.6-7.95-3.07-11.24-5.83-.39-.33-1.09-.83-.49-1.16,1.04-.57,2.1-1.61,3.55-.47,3.07,2.42,6.74,2.85,10.53,2.68,3.38-.15,6.66-.88,9.82-2.01,1.19-.42,1.96-.35,2.7,.71,.95,1.37,2.28,2.38,3.6,3.4,.44,.34,1.31,.43,1.12,1.24-.17,.72-.74,.96-1.52,1.14-3.2,.75-6.43,1.13-10.47,1.24Z"/>
  <path class="cls-8" d="M247.49,133.42c-.05,4.09-1.19,4.99-4,4.36-2.88-.64-4.91-2.45-6.16-4.92-1.64-3.24-2.68-6.71-3.27-10.3-.2-1.24,.06-1.83,1.45-1.61,.17,.03,.35,.04,.53,.04,4.38-.04,7.91,.79,8.91,5.94,.51,2.61,2.62,4.88,2.54,6.48Z"/>
  <path class="cls-8" d="M274.42,162.21c1.83-4.87,.35-9.12-1.94-13.06-1.62-2.79-1.46-5.56-1.23-8.47,.05-.69,.07-1.27,1.21-1.17,3.67,.33,6.12,1.98,7.54,5.39,2.18,5.25,1.03,10.28-.8,15.26-.76,2.06-3.17,1.26-4.78,2.04Z"/>
  <path class="cls-8" d="M268.06,66.69c10.7-3.01,24.63-1,28.87,7.45-1.56,1.04-2.94,1.3-4.79,.21-4.9-2.88-10.36-3.35-15.9-2.43-2.21,.37-3.81,.45-5-1.84-.68-1.31-2.08-2.25-3.18-3.39Z"/>
  <path class="cls-8" d="M223.63,122.41c.93-1.75,6.55-2.78,7.82-1.43,.43,.46,.18,.97,.14,1.46-.35,3.52-1.12,6.96-2.13,10.34-.42,1.4-1.09,2.72-2.08,3.86-1.38,1.59-2.99,2.29-5.16,1.51-2.26-.81-2.43-2.46-2.13-4.38,.07-.42,.11-.85,.17-1.28,.06-.26,.12-.52,.18-.78,.08-.34,.16-.68,.24-1.03,.03-.15,.06-.3,.1-.45,.35-.74,1.08-1.41,.45-2.33,0,0,0-.01,0-.01,.17-.09,.33-.18,.5-.27,.07-.18,.14-.35,.21-.53,.48-1.35,.96-2.7,1.44-4.05,.08-.21,.16-.41,.24-.62Z"/>
  <path class="cls-8" d="M278.34,135.82c.08-4.33,1.63-8.39,2.49-12.57,.2-.99,.89-1.37,1.91-1.39,8.2-.18,7.6-1.69,6.15,6.39-.47,2.62-1.17,5.17-2.38,7.57-1.36,2.7-3.85,3.79-6.81,3.07-1.14-.28-1.69-.84-1.42-2.01,.42-.33,.4-.68,.05-1.05Z"/>
  <path class="cls-8" d="M100.32,117.6c6.14,.32,6.11,.33,8.25,5.99,1.01,2.67,1.9,5.36,1.94,8.23,.05,3.35-1.38,4.23-4.42,2.72-3.2-1.58-4.51-4.65-5.95-7.55-1.11-2.24-1.84-4.63-2.11-7.12-.26-2.4-.23-2.4,2.3-2.27Z"/>
  <path class="cls-8" d="M306.18,113.24c.86-7.05-2.1-12.99-5.2-18.86-.7-1.33-.98-2.42-.23-3.83,.73-1.38,.86-3.01,.59-4.54-.27-1.49,.43-1.93,1.69-2.32,1.41-.43,2.07,.05,2.66,1.26,3.31,6.77,4.5,13.86,3.46,21.27-.36,2.54-1.38,4.9-2.97,7.03Z"/>
  <path class="cls-8" d="M198.32,118.84c.81,0,1.35,.06,1.87,0,2.15-.27,2.57,.59,2.07,2.51-.95,3.65-1.73,7.32-3.28,10.81-.59,1.32-1.32,2.4-2.53,3.16-1.55,.97-3.21,.83-4.79,.14-1.65-.72-1.4-2.25-1.29-3.59,.35-4.26,2.27-8.07,3.94-11.91,.81-1.86,2.89-.58,4.02-1.09Z"/>
  <path class="cls-8" d="M323.58,78.76c-1.47-.3-3,.05-4.03-1.4-3.46-4.89-8.59-6.15-14.03-4.9-4.55,1.05-8.18,1.28-10.74-3.19-.36-.63-1.15-1.02-1.79-1.55,9.95-2.79,27.68-.52,30.59,11.04Z"/>
  <path class="cls-8" d="M148.66,124.93c-.11,.61-.23,1.22-.34,1.83-.08,.26-.16,.52-.24,.77-.49,1.64-.91,3.31-1.5,4.92-.65,1.77-1.73,3.19-3.85,3.47-2.82,.36-4.08-.59-3.76-3.34,.5-4.25,1.33-8.47,1.98-12.7,.2-1.29,.93-1.75,2.18-1.64,.17,.01,.35,0,.53,0q5.65-.18,5.24,5.05c-.08,.55-.16,1.1-.25,1.65Z"/>
  <path class="cls-8" d="M155.46,134.68c-1.85-4.61-3.13-9.34-3.53-14.31-.14-1.68,.31-2.03,1.97-1.88,6.04,.52,6.04,.47,7.6,6.26,.49,1.83,.87,3.66,.86,5.57-.03,5.23-2.2,6.65-6.83,4.42l-.07-.06Z"/>
  <path class="cls-8" d="M259.57,123.08c-.2,4.52-.81,8.76-2.71,12.74-.82,1.72-2,3.04-4.12,3.21-3.05,.25-3.69-.6-3.52-3.56,.23-4.01,1.6-7.73,2.46-11.58,.4-1.81,1.29-2.47,3.08-2.36,.97,.06,1.95,0,2.92-.09,1.41-.12,2.37,.15,1.9,1.64Z"/>
  <path class="cls-8" d="M137.22,131.41c-.26,1.36,.22,3.42-1.64,3.88-2.19,.54-3.94-1-5.08-2.64-2.76-3.98-4.22-8.46-4.76-13.24-.13-1.18,.19-1.62,1.39-1.46,1.93,.25,3.86,.51,5.79,.7,.82,.08,1.22,.43,1.5,1.17,1.38,3.73,2.52,7.5,2.8,11.59Z"/>
  <path class="cls-8" d="M188.35,131.13c-.26,1.53,.47,3.64-1.44,4.35-1.84,.69-3.36-.75-4.5-2.04-3.53-4.01-4.72-8.92-5.41-13.99-.13-.98,.47-1.15,1.31-1.06,1.94,.21,3.87,.38,5.81,.56,.9,.08,1.36,.54,1.67,1.38,1.27,3.5,2.39,7.02,2.56,10.79Z"/>
  <path class="cls-8" d="M264.97,121.78c2.02,.21,3.86,.41,5.71,.58,.66,.06,1.14,.24,1.41,.93,1.41,3.66,3.81,6.95,4.28,10.97,.17,1.48,.19,3.09-1.06,3.94-1.33,.91-2.78,.18-4.09-.74-5.2-3.65-6.28-9.31-7.7-14.79-.34-1.33,.94-.81,1.44-.89Z"/>
  <path class="cls-8" d="M171.59,118.18c3.69-.18,3.65-.18,3.15,3.31-.53,3.66-1.17,7.3-2.39,10.82-.44,1.26-1.06,2.38-2.15,3.16-1.39,1-2.99,1.11-4.53,.44-1.63-.71-1.08-2.13-.95-3.39,.45-4.39,2.02-8.53,3.08-12.79,.57-2.3,2.62-1.11,3.81-1.56Z"/>
  <path class="cls-8" d="M293.86,122.06c.22,.03,.31,.06,.39,.05,5.35-.5,8.48,1.8,9.73,6.91,.51,2.07,1.44,4.05,1.82,6.17,.52,2.91-.68,3.95-3.52,2.93-2.59-.93-4.58-2.77-5.83-5.06-1.61-2.94-2.98-6.02-3.83-9.28-.34-1.31-.32-2.07,1.24-1.73Z"/>
  <path class="cls-8" d="M306.89,153.34c0,1.15-.07,2.19,.02,3.21,.12,1.46-.4,1.95-1.97,2.28-2.49,.52-3.46,0-3.48-2.57-.02-1.97-.74-3.9-1.84-5.58-2.31-3.54-1.76-7.39-1.51-11.22,.04-.61,.29-1.53,.95-1.18,1.92,1.01,4.51,.98,5.53,3.47,1.55,3.78,2.85,7.57,2.3,11.6Z"/>
  <path class="cls-8" d="M288.68,179.29c-.35-.04-.71-.09-1.06-.13-.84-.17-1.69-.34-2.53-.51-.31-.42-.5-.98-1.21-.89-.09-.15-.22-.2-.39-.15-1.28-.51-2.57-1.02-3.85-1.53-.7-.2-1.15-1.54-2.15-.46,0,0,0,0,0,0,.31-.99-.15-1.23-1.06-1.04,0,0-.02,0-.02,0,.05-.12,.12-.24,.13-.37,0-.05-.1-.11-.16-.17,0-.35,0-.69,0-1.04,2.48-1.37,4.57-.9,7.09,.48,4.54,2.47,9.43,1.68,14-.28,2.51-1.07,4.82-1.73,7.44-.5,.65,.3,1.55,.1,2.33,.13,.5,.1,1.01,.2,1.51,.3-.92,1.22-2.62,1.24-3.67,2.25-.36,.17-.73,.34-1.09,.51-1.41,.51-2.82,1.02-4.22,1.53-.22,.06-.43,.12-.65,.18h-.21s-.16,.12-.16,.12c-.71-.08-.96,.44-1.24,.91-2.94,.4-5.88,.73-8.85,.65Z"/>
  <path class="cls-8" d="M119.51,117.65c3.66-.08,3.71-.08,3.3,3-.53,4-1.21,7.98-2.76,11.76-.61,1.49-1.5,2.72-3.18,3.21-2.83,.82-4.89-.75-4.3-3.52,.92-4.28,2.13-8.5,3.15-12.76,.59-2.49,2.7-1.25,3.79-1.69Z"/>
  <path class="cls-8" d="M251.69,179.84c-6.97,.16-12.8-2.43-17.74-7.1-.46-.43-1.32-.94-.79-1.66,.45-.61,1.11-.02,1.63,.27,5.87,3.29,12.07,3.57,18.43,1.72,1.69-.49,2.88-.61,3.97,1.11,.71,1.12,2.01,1.89,3.07,2.8,.44,.38,1.27,.53,1.08,1.28-.2,.8-1.06,.86-1.72,.92-2.64,.22-5.24,.82-7.93,.66Z"/>
  <path class="cls-8" d="M133.58,177.08c-1.8-.56-3.6-1.12-5.4-1.69-1.6-.92-3.22-1.84-4.35-3.3-.45-.59-1.64-1.36-.58-2.12,.89-.64,2.25-1.79,3.32-.71,5.41,5.49,11.91,4.34,18.31,2.82,2.67-.64,4.65-1.05,6,1.82,.21,.45,.67,1.89,1.81,.65,0,0,.02,.02,.02,.02-.44,2.57-2.66,2.13-4.41,2.44-1.01,.18-2.05,.23-3.08,.33-.82-.13-1.63-.11-2.39,.26-.34,0-.68,0-1.03,0-.33-.22-.65-.2-.97,.02-.24,0-.49,0-.73,0-.72-.28-1.46-.31-2.21-.13-1.44-.14-2.87-.27-4.31-.41Z"/>
  <path class="cls-8" d="M126.75,175.88c-.87,1.54-2.71,.47-3.83,1.33-3.35,.06-6.71,.13-10.06,.19-.2-.01-.39-.03-.59-.04-1.23-.06-2.46-.11-3.68-.17-2.71-.73-5.49-1.26-8.04-2.48-1.69-.81-3.16-1.89-4.29-3.36-.42-.55-1.3-1.28-.19-1.89,.82-.45,1.75-1.43,2.79-.23,3.84,4.45,8.97,4.15,14.16,3.64,.26-.03,.53-.08,.78-.17,4.15-1.37,8.28-2.78,11.11,2.25,.27,.49,1.22,.62,1.85,.92Z"/>
  <path class="cls-5" d="M169.3,105.7c-.2-.14-.39-.28-.58-.43-5.21-.55-6.88-5.91-11.28-7.66,6.24-1.12,12.29-1.14,18.29,.46,.23,2.77-1.72,4.91-2.29,7.45-1.39-.25-2.8-.83-4.13,.17Z"/>
  <path class="cls-8" d="M322.22,126.25c2.32,5.77,4.04,10.83,2.28,16.35-.28,.88-.74,1.76-1.31,2.49-.95,1.22-2.22,2.86-3.67,2.51-1.25-.3-.59-2.42-1-3.66-1.64-5-.85-9.6,2.15-13.93,.61-.88,.85-2.01,1.56-3.76Z"/>
  <path class="cls-4" d="M228.71,58.01c1.51,1.84,1.55,4.25,2.51,6.3,.37,.79-.37,1.18-1.04,1.51-3.38,1.65-6.91,2.93-10.44,4.19-.31,.11-.84,.26-.99,.11-1.36-1.3-1.09-3.15-1.57-4.74-.31-1.04,.12-1.85,1.43-1.89,.15-.07,.3-.13,.44-.2,3.22-1.76,6.44-3.52,9.66-5.28Z"/>
  <path class="cls-8" d="M272.03,110.51c-.33,.75-.22,2.12-1.77,1.38-3.63-1.76-7.55-1.53-11.41-1.63-1.61-.04-2.08-.33-1.18-1.88,1.18-2.03,1.61-4.34,2.18-6.59,.17-.69,.12-1.71,1.41-1.06,4.02,2.03,7.89,4.24,10.14,8.3,.25,.45,.4,.94,.62,1.48Z"/>
  <path class="cls-8" d="M254.8,64.05c5.91,.39,11.3,1.95,15.19,6.67,.47,.57,1.72,1.36,.78,2.05-.86,.63-2.38,1.55-3.39,.65-3.88-3.43-8.59-3.14-13.25-3.11-1.27,0-2.07-.08-1.67-1.66,.23-.9,.15-1.88,.24-2.82,.17-1.76,.25-1.82,2.11-1.78Z"/>
  <path class="cls-5" d="M231.57,95.05c.28,.17,.64,.41,1.02,.63,5.34,3.05,7.85,8.42,11.22,13.07,.29,.4,.54,.99,.15,1.44-.54,.63-1.14,.1-1.65-.12-3.39-1.47-6.43-3.53-9.54-5.47-.7-.44-1.2-1.09-1.3-1.86-.29-2.21-.5-4.42-.71-6.64-.04-.47-.16-1.09,.82-1.05Z"/>
  <path class="cls-2" d="M202.42,78.36c.96,.04,1.26,.72,1.63,1.28,2.02,3.01,4,6.04,6.39,8.79,.61,.7,.75,1.12-.34,1.41-.58,.16-1.13,.49-1.67,.76-4.46,2.26-4.45,2.25-7.68-1.78-.68-.84-1.06-1.41,.04-2.29,1.67-1.34,1.45-2.68-.31-3.94-.85-.61-2.65-1.13-2.09-2.21,.69-1.33,2.68-1.43,4.02-2.03Z"/>
  <path class="cls-2" d="M251.44,62.29c.24,2.23-.32,4.25-.48,6.3-.13,1.65-1,1.97-2.55,2.2-2.8,.43-4.44-.05-4.08-3.21,.03-.24-.08-.51-.14-.76-1.45-6.43-1.38-6.45,5.01-8.74,1.82-.65,2.25-.03,2.24,1.53,0,.94,0,1.89,0,2.68Z"/>
  <path class="cls-8" d="M313.88,94.62c.25,5.99,.3,11.29,1.34,16.51,.25,1.24-2.58,4.34-3.92,4.38-1.88,.07-2.81-1.63-2.39-2.72,2.11-5.5,1.39-11.63,4.13-16.95,.11-.22,.28-.42,.83-1.22Z"/>
  <path class="cls-5" d="M178.57,106.71c.83-2.45,2.24-4.68,2.75-7.24,3.11,1.59,5.94,3.51,7.97,6.38,.18,.34,.36,.69,.54,1.03,.19,1.03,.37,2.06,.56,3.08,0,0,0,0,0,0-.22,.32-.43,.65-.65,.97-1.12,.32-1.98-.21-2.89-.75-2.59-1.53-5.26-2.92-8.28-3.49Z"/>
  <path class="cls-8" d="M286.66,99.3c3.38,2.93,6.25,5.56,8.35,8.91,.93,1.48,.7,2.24-1.17,2.24-1.15,0-2.31,.05-3.44-.12-3.43-.51-3.81-1.03-3.75-4.41,.04-2.03,0-4.06,0-6.62Z"/>
  <path class="cls-8" d="M124.34,121.67c1.04,4,2.41,7.84,4.55,11.38,.2,.33,.11,.62-.08,.94-1.02,1.65-5.92,2.78-7.55,1.73-.6-.39-.82-.83-.48-1.5,1.97-3.94,2.61-8.24,3.57-12.54Z"/>
  <path class="cls-8" d="M290.8,139.65c-1.68-.24-3.1-.7-2.71-2.55,.54-2.61,1.56-5.05,3.62-6.94,.88-.81,1.46-.77,1.91,.4,.78,2.02,1.82,3.89,3.32,5.5,.42,.45,.81,.95-.1,1.41-1.97,1-4.02,1.74-6.03,2.19Z"/>
  <path class="cls-8" d="M232.99,125.43c1.3,3.47,1.96,6.95,4.18,9.77,.34,.43,.17,.76-.09,1.15-1.07,1.56-5.61,3.15-7.46,2.57-.75-.23-1.8-.51-1.01-1.53,2.57-3.31,3.03-7.26,3.86-11.12,.05-.21,.24-.4,.52-.83Z"/>
  <path class="cls-8" d="M263.37,128.1c1.22,2.3,1.66,4.74,3.21,6.67,.44,.55,.61,1.12-.04,1.55-1.96,1.3-3.87,2.79-6.46,2.59-1.2-.09-2.01-.61-1.85-1.96,.23-1.93,3.41-7.48,5.14-8.86Z"/>
  <path class="cls-8" d="M310.96,96.61c-.78-3.42-1.68-6.52-2.97-9.52-.66-1.53,1.2-2.53,1.63-3.9,5.63,2.89,5.65,5.67,1.34,13.42Z"/>
  <path class="cls-5" d="M215.02,94.35c.85,.66,1.05,1.53,.48,2.38-.82,1.22,.67,.71,.82,1.16-.14,.3-.4,.61-.4,.91-.02,2.28-.93,3.02-2.61,1.67-2.1-1.69-4.7-2.26-6.96-3.58,3.27-3.2,5.92-3.97,8.66-2.55Z"/>
  <path class="cls-8" d="M203.34,124.69c1.01,2.88,1.99,5.78,3.07,8.64,.33,.87-.03,1.27-.68,1.67-1.21,.74-2.5,1.31-3.92,1.5-1.08,.14-2.3,0-2.92-.83-.49-.66,.62-1.27,.93-1.95,1.28-2.91,2.41-5.87,3.52-9.03Z"/>
  <path class="cls-8" d="M176.03,124.15c1.13,3.35,2.54,6.46,4.4,9.38,.26,.41,.38,.69,.04,1.12-1.05,1.34-5.36,1.8-6.72,.7-.56-.45-.69-.93-.45-1.58,1.16-3.11,2.07-6.29,2.73-9.62Z"/>
  <path class="cls-8" d="M221.24,127.89s0,.01,0,.01c-.94-.74-.93,.11-1.11,.63-.04,.16-.08,.33-.12,.49-.27,.51-.54,1.02-.93,1.77-1.37-2.67-2.6-5.13-3.91-7.56-.45-.83-.13-1.24,.57-1.64,1.87-1.06,4.01-1.09,5.87-.59,1.73,.46,.12,1.93,.14,2.95-.19,.1-.23,.24-.13,.42-.25,1.16-1.77,2.19-.37,3.52Z"/>
  <path class="cls-8" d="M149.74,125.52c.22-.33,.39-.88,.69-.96,.55-.15,.61,.42,.72,.82,.63,2.3,1.23,4.61,1.91,6.89,.44,1.47-.53,2.2-1.46,2.98-1.01,.85-2.12,1.14-3.41,.65-1.05-.4-1.21-1.02-.76-2.01,.45-1,.71-2.08,1.05-3.13,.08-.2,.16-.41,.25-.61,.4-1.28,.97-2.52,.87-3.9,.05-.25,.09-.49,.14-.73Z"/>
  <path class="cls-8" d="M306.37,131.12c-.94-2.18-1.88-4.36-2.81-6.53-.32-.75-.05-1.28,.6-1.75,1.62-1.18,3.24-2.35,5.12-3.1,.38-.15,.94-.36,1.2-.2,.58,.36,.14,.89-.03,1.36-1.22,3.35-2.63,6.64-3.41,10.14-.23,.03-.45,.06-.67,.09Z"/>
  <path class="cls-8" d="M97.57,124.42c.92,2.79,1.93,5.06,3.44,7.07,1.2,1.61,.67,2.57-1.08,3.17-.82,.28-1.65,.56-2.48,.82-.95,.29-2.07,.49-2.7-.32-.5-.64,.5-1.31,.68-2.02,.67-2.72,1.34-5.43,2.15-8.72Z"/>
  <path class="cls-8" d="M303.73,121.34c-.39-2.35-.69-4.39-2.14-6,4.02-2.18,6.9,.22,10.35,2.2-3.1,.71-5.6,2.03-8.21,3.8Z"/>
  <path class="cls-8" d="M147.31,91.06c3.47,.55,6.93,1.14,10.15,2.59,.86,.39,1.66,.9,2.43,1.6-2.57,.49-5.01,1.38-7.58-.4-2.33-1.62-5.19-2.32-7.98-3.3,.73-.86,1.63-.26,2.3-.6,.23,.04,.45,.07,.68,.11Z"/>
  <path class="cls-8" d="M290.73,160.74c-2.79-.43-5.04-.63-7.3-.41-.93,.09-1.28-.3-1.24-1.16,.03-.68-.05-1.38,.08-2.04,.27-1.32,.35-3.08,1.78-3.45,1.04-.27,1.52,1.39,2.26,2.19,1.38,1.49,2.73,3,4.42,4.87Z"/>
  <path class="cls-8" d="M111.75,128.42c-.96-2.73-1.69-4.82-2.44-6.89-.34-.92-.3-1.7,.73-2.13,1.29-.53,2.6-1.03,4.04-.61,.13,.04,.25,.45,.2,.64-.77,2.81-1.57,5.6-2.52,8.99Z"/>
  <path class="cls-8" d="M248.42,130.44c-1.54-1.94-2.25-3.86-3.04-5.71-.77-1.8,1.12-1.84,2.07-2.26,.82-.36,2.15-.65,2.74-.25,.85,.58-.01,1.72-.21,2.58-.4,1.75-.95,3.46-1.57,5.64Z"/>
  <path class="cls-8" d="M163.7,127.39c-.71-2.43-1.4-4.87-2.12-7.3-.21-.71-.16-1.14,.79-1.14,.96,0,1.92-.18,2.89-.27,.91-.08,1.32,.24,1.04,1.19-.73,2.51-1.43,5.03-2.15,7.54l-.45-.03Z"/>
  <path class="cls-8" d="M277.34,131.19c-1.13-2.42-2.05-4.33-2.92-6.26-.51-1.12,.3-1.56,1.17-1.88,1.21-.45,2.41-1.14,3.76-.51,.12,.05,.14,.46,.09,.67-.64,2.47-1.3,4.94-2.1,7.98Z"/>
  <path class="cls-8" d="M189.48,127.33c-.7-2.29-1.33-4.41-2.01-6.51-.35-1.08,.06-1.21,1.11-1.31,4.41-.41,4.43-.45,2.85,3.43-.57,1.41-.82,2.96-1.95,4.38Z"/>
  <path class="cls-14" d="M199.46,72.28c1.25,1.3-.18,1.5-.88,1.89-3.05,1.73-5.96,3.65-8.42,6.14-1.27,1.28-2.71,2.49-1.38,4.96-2.6-1.08-2.02-2.46-1.23-3.7,1.74-2.75,4.48-4.51,7.01-6.49,0,0,.05,0,.05,0,1.75-.71,3.37-1.65,4.85-2.81Z"/>
  <path class="cls-1" d="M189.34,95.56c-.69-.05-1.38-.1-2.24-.16,1.5-.72,2.93-.83,4.37-.95,.41,.02,.68-.15,.8-.54,.17-.26,.33-.26,.49,.02,.46,0,.91,0,1.37-.01,1.26-.04,2.51-.08,3.77-.12,1.05,.1,2.09,.2,3.14,.3,.41,.24,1.25,.02,1.19,.71-.09,.93-.95,.84-1.64,.79-3.31-.21-6.62-.6-9.95-.22-.43,.05-.86,.12-1.3,.18Z"/>
  <path class="cls-8" d="M261.32,155.62c1.73,1.87,2.89,3.83,3.87,6.13-1.71-.67-4.07-.06-5.02-1.5-.75-1.14-.31-3.15,1.15-4.63Z"/>
  <path class="cls-8" d="M93.3,153.75c1.63,1.07,2.22,2.44,2.73,3.9,.28,.8,.88,1.77,0,2.27-.74,.42-1.9,.46-2.77,.26-1.09-.25-.51-1.31-.45-1.97,.12-1.42-.15-2.89,.49-4.46Z"/>
  <path class="cls-8" d="M298.98,90.89c-.91-1.26-1.6-2.21-2.29-3.17-.57-.8-1.73-1.79-1.03-2.56,.74-.81,2.32-.7,3.47-.45,1.26,.27,.8,1.53,.83,2.39,.04,1.18-.14,2.36-.98,3.79Z"/>
  <path class="cls-5" d="M177.08,94.36c-.6,.65-.38,1.44-.41,2.19-3.24-.38-6.43-1.12-9.72-1.07-.06,0-.17-.11-.17-.17,0-.15,.04-.29,.07-.44,.5,.2,1.01,.39,1.26-.33,1.14-.24,2.36,.07,3.46-.48,1.83,.26,3.7-.23,5.52,.31Z"/>
  <path class="cls-5" d="M203.7,96.14c1.95-2.71,4.75-4.18,7.73-5.42,.46-.19,.86-.12,1.11,.33,.21,.38,.04,.69-.33,.81-3.04,1.03-5.6,2.97-8.52,4.27Z"/>
  <path class="cls-8" d="M144.12,104.22c-1.05,1.31-2.03,2.59-3.08,3.8-.34,.39-.96,.56-1.42,.22-.46-.34-.05-.75,.13-1.12,.11-.23,.16-.49,.18-.74q.3-3.42,4.19-2.17Z"/>
  <path class="cls-14" d="M228.71,58.01c-3.22,1.76-6.44,3.52-9.66,5.28-.41-.84,.13-1.19,.78-1.57,1.02-.6,2-1.26,2.99-1.89,0,0-.04,.03-.04,.03,.62-.09,1.24-.19,1.09-1.04,.96-.87,2.49-.85,3.26-2.03,.39-.6,1.05-.72,1.6-.39,.73,.45-.14,1.06-.01,1.61Z"/>
  <path class="cls-8" d="M119.02,141.51c.06,.69,.11,1.38,.17,2.08-.17-.02-.34-.02-.51,.01-1.23-2.05-2.46-4.09-3.91-6.5,1.56,.31,2.76-1.03,4.05,.2-.02,.21-.04,.42-.06,.62,0,.34-.01,.67-.02,1.01,.01,.19,.03,.37,.04,.56,.05,.45,.09,.91,.14,1.36-.04,.08-.12,.17-.11,.23,.05,.15,.14,.29,.21,.44Z"/>
  <path class="cls-8" d="M307.63,137.02c1.7,.82,2.24,1.79,.98,3.54-.69,.96-.78,2.34-1.16,3.58-2.54-2.4-1.81-4.74,.18-7.12Z"/>
  <path class="cls-4" d="M257.57,40.64c.49,.05,.97,.11,1.46,.16-4.19,2.41-8.45,4.68-12.89,6.63-.45-.93,.49-.92,.9-1.17,3.4-2.07,6.89-3.98,10.53-5.62Z"/>
  <path class="cls-8" d="M229.1,151.5c1.08,1.69,2.91,3,2.66,5.27-.04,.39-.23,.9-.53,1.09-.44,.27-.71-.26-1.04-.52-2.14-1.64-1.24-3.78-1.09-5.84Z"/>
  <path class="cls-8" d="M201.98,162.17c-1.01,.13-1.8,0-1.33-.99,.57-1.18-.1-3.37,1.4-3.47,1.58-.1,2.18,1.86,2.27,3.29,.11,1.93-1.74,.64-2.34,1.16Z"/>
  <path class="cls-8" d="M255.21,161.04c.47-2.08,.91-4.03,1.42-6.31,1.54,1.78,2.36,3.55,1.66,5.52-.45,1.25-1.87,.87-3.07,.79Z"/>
  <path class="cls-8" d="M137.83,126.11c-.38-1.38-.78-2.76-1.12-4.15-.33-1.33,.67-1.82,1.65-2.26,.83-.38,1.18,0,1.06,.79-.29,1.84-.64,3.68-.96,5.51-.21,.04-.41,.07-.62,.11Z"/>
  <path class="cls-5" d="M235,95.55c-1.48-.91-2.72-1.63-3.9-2.42-.53-.35-.85-.97-.52-1.55,.4-.7,1.08-.26,1.63-.12,1.97,.52,2.6,1.94,2.78,4.09Z"/>
  <path class="cls-8" d="M246.89,116.41c-.7-1.22-1.03-2.49-2.03-3.39-.4-.36-.76-.79-.04-1.19,.48-.27,.98-.99,1.57-.3,1.1,1.27,3.13,2.4,1.03,4.4-.12,.12-.25,.23-.53,.49Z"/>
  <path class="cls-8" d="M237.59,162.93c-3.05-1.13-5.75-1.6-4.41-5.43,1.46,1.66,3.11,2.92,4.41,5.43Z"/>
  <path class="cls-8" d="M149.47,159.39c-1.19,.27-2.08,.19-1.96-1.38,.08-1.06,.02-2.13,.02-3.56,2.13,1.21,2.67,2.72,2.44,4.62-.17,.11-.33,.22-.5,.33Z"/>
  <path class="cls-8" d="M275.25,118.53c-.62-1.86-1.01-3.46-2.3-4.61-.65-.58-.65-1.24,.1-1.7,.87-.53,.97,.45,1.31,.81,1.43,1.48,2.83,3.02,.89,5.5Z"/>
  <path class="cls-8" d="M239.02,137.26c1.07,.52,2.13,1.09,3.23,1.56,.85,.36,.91,.9,.69,1.65-.17,.57-.15,1.28-.84,1.48-.93,.27-1.16-.61-1.52-1.12-.72-1.02-1.33-2.12-1.99-3.18,.14-.13,.28-.25,.43-.38Z"/>
  <path class="cls-8" d="M209.84,162.23c-3.77,0-4.08-.35-4.41-5.2,1.65,1.95,2.96,3.48,4.41,5.2Z"/>
  <path class="cls-8" d="M87.1,137.79c3.65-.36,3.39-.85,3.24,4.13-1.49-1.11-2.09-2.62-3.24-4.13Z"/>
  <path class="cls-8" d="M260.97,95c1.14,1.48,2.07,2.68,2.99,3.9,.25,.34,.54,.74,.18,1.13-.33,.36-.78,.19-1.21,.05-2.43-.78-3.22-2.27-1.97-5.08Z"/>
  <path class="cls-8" d="M150.52,107h-6.3c1.07-2.98,2.53-3.1,6.3,0Z"/>
  <path class="cls-8" d="M228.67,158c1.13,.97,2.73,1.74,2.1,3.36-.16,.4-2.19,.7-2.6,.3-1.18-1.14,.33-2.34,.51-3.66Z"/>
  <path class="cls-8" d="M121.55,153.74c1.6,1.67,2.11,2.92,2.53,4.24,.32,.99,.07,1.46-1,1.53-.86,.06-1.6,.07-1.54-1.12,.06-1.32,.01-2.63,.01-4.66Z"/>
  <path class="cls-8" d="M256.41,149.98c1.32,1.4,2.39,2.49,3.4,3.62,.55,.62,.42,1.33-.19,1.81-.85,.66-1.02-.28-1.25-.7-.76-1.35-2.4-2.33-1.95-4.73Z"/>
  <path class="cls-8" d="M175.98,156.86c1.41,1.08,2.59,2.07,2.15,3.65-.21,.75-1.66,.69-2.09,.28-1.17-1.11-.37-2.43-.06-3.93Z"/>
  <path class="cls-8" d="M116.56,104.34c.68,.21,2.03-.37,2.01,.81-.03,1.28-1.37,1.53-2.53,1.7-1.26,.19-1.15-.76-1.25-1.45-.22-1.49,.92-1.03,1.78-1.06Z"/>
  <path class="cls-8" d="M260.64,128.01c.17-2.12,.32-4.12,.49-6.24,2.26,2.32,2.08,4.65-.49,6.24Z"/>
  <path class="cls-8" d="M97.38,155.6c1.72,1.78,3.01,3.12,4.38,4.54-3.12,.51-3.43,.21-4.38-4.54Z"/>
  <path class="cls-8" d="M201.9,151.92c1.34,.79,1.57,1.76,2.07,2.53,.36,.55,.73,1.19,.27,1.9-.21,.32-.59,.57-.85,.34-.56-.49-1.45-.75-1.48-1.67-.03-.93,0-1.86,0-3.1Z"/>
  <path class="cls-8" d="M151.26,155.42c1.63,.93,2.46,2.44,3.72,3.62-2.48,.91-2.93,.46-3.72-3.62Z"/>
  <path class="cls-8" d="M105.38,136.7c-.06,.71-.3,1.55-1.1,1.46-1.62-.17-.78-1.79-1.36-2.65-.43-.63,.22-.92,.78-.74,.91,.3,1.8,.73,1.68,1.93Z"/>
  <path class="cls-8" d="M172.17,139.61c-.82-.86-2.53-1.22-1.65-2.68,.25-.42,1.06-1.31,1.68-.84,1.4,1.04-.42,2.27-.03,3.52Z"/>
  <path class="cls-8" d="M273.04,87.21c-.81-1.12-2.13-1.84-1.73-3.17,.16-.53,1.75-.74,2.1-.29,.76,.99,.31,2.17-.37,3.46Z"/>
  <path class="cls-8" d="M290.43,129.15c-.27-1.62,.13-2.92,.54-4.24,1.84,2,1.77,2.79-.54,4.24Z"/>
  <path class="cls-8" d="M149.27,153.76c-2.31-.5-2.14-2.35-2.45-4.11,1.95,1.43,2.49,2.37,2.45,4.11Z"/>
  <path class="cls-8" d="M226.72,143.99c-.91-1.38-1.41-2.14-1.92-2.9-.22-.33-.73-.71-.27-1.05,.46-.34,1.12-.57,1.69-.58,.54-.01,.48,.62,.49,1.01,.03,.92,.01,1.84,.01,3.52Z"/>
  <path class="cls-8" d="M184.19,140.32c-.89-1.04-1.78-2.08-2.67-3.12-.4-.47-.88-.99-.11-1.47,.62-.4,.96,.21,1.2,.59,.73,1.15,1.38,2.35,2.06,3.53-.16,.16-.32,.32-.48,.47Z"/>
  <path class="cls-4" d="M222.81,59.83c-1,.63-1.97,1.3-2.99,1.89-.64,.38-1.18,.73-.78,1.57-.15,.07-.3,.13-.44,.2,.04-1.04-1.3-.3-1.51-1.28,1.83-.88,3.49-2.21,5.72-2.38Z"/>
  <path class="cls-8" d="M138.09,110.09c-.61,1.21-1.18,2.33-1.8,3.56-1.83-2.57-1.62-2.96,1.8-3.56Z"/>
  <path class="cls-8" d="M128.74,159.87c-2.82,.08-2.84-1.9-3.25-3.55,1.34,.88,2.36,2.02,3.25,3.55Z"/>
  <path class="cls-8" d="M282.98,85.14c-.42-.74-.85-1.48-1.24-2.23-.26-.49-.91-1.15-.08-1.51,.72-.3,1.43,.35,1.6,.99,.24,.88,.17,1.83,.23,2.76-.17,0-.34,0-.51,0Z"/>
  <path class="cls-8" d="M269.19,140.31c-.91-.6-1.26-1.56-1.54-2.5-.14-.46,.33-.84,.79-.66,.92,.35,1.64,.95,1.58,2.06-.03,.52-.12,1-.83,1.11Z"/>
  <path class="cls-8" d="M240.03,142.2c-1.83-.32-2.4-1.63-3.27-2.68-.26-.31-.54-.79-.02-1.1,.46-.27,.83,.05,1.08,.43,.74,1.11,1.47,2.24,2.21,3.35Z"/>
  <path class="cls-8" d="M186.78,139.93c-1.3-.73-1.56-1.83-2.07-2.8,2.42-.15,2.47-.09,2.07,2.8Z"/>
  <path class="cls-8" d="M286.26,94.21c.97,1.84,2.04,3.03,2.56,5.06-1.89-1.4-3.39-2.4-2.56-5.06Z"/>
  <path class="cls-8" d="M130.88,135.48c1.23,.31,2.49,.49,2.38,1.97-.04,.53-.58,1.08-1.07,.94-1.61-.47-.61-2-1.31-2.91Z"/>
  <path class="cls-8" d="M109.79,113.42c-.31-1.09-1.67-1.8-.69-2.91,.32-.36,1.66-.34,1.89,.2,.41,.97-.28,1.84-1.19,2.71Z"/>
  <path class="cls-4" d="M199.46,72.28c-1.49,1.15-3.1,2.09-4.85,2.81-.64-1.55,.99-1.38,1.61-1.86,.79-.6,1.82-.9,2.74-1.33,.17,.13,.33,.26,.5,.38Z"/>
  <path class="cls-8" d="M296.11,142.94c-.99-1.2-1.48-2.14-.78-3.24,.19-.29,.93-.59,1.08-.23,.42,1,.32,2.06-.3,3.46Z"/>
  <path class="cls-8" d="M198.5,139.74c-.98-1.02-2.06-1.55-2.01-2.77,.01-.29,.74-.39,1.16-.2,1.19,.52,1.31,1.45,.85,2.97Z"/>
  <path class="cls-8" d="M120.94,148.35c.95,1.71,1.81,2.76,2.14,4.79-1.86-1.31-2.54-2.49-2.14-4.79Z"/>
  <path class="cls-8" d="M158.52,137.47c.6-.03,1.08,.31,1.06,1.19-.01,.53-.05,1.16-.68,1.21-1.18,.1-.9-1.04-1.24-1.64-.29-.51,.08-.75,.86-.77Z"/>
  <path class="cls-8" d="M155.53,134.74c-.44,.05-.62,.35-.39,.66,.89,1.25,.51,1.91-.95,2.15,0,0,.01-.13,.01-.13,.03-.19,.37-.29,.08-.57-.29-.28-.4,.05-.59,.08,0,0-.12,.03-.12,.03,.17-1.12,.28-2.28,1.89-2.27,0,0,.07,.06,.07,.06Z"/>
  <path class="cls-8" d="M143.43,139.85c-.92-.59-1.73-1.19-1.67-2.29,0-.09,.85-.3,1.19-.18,1.31,.49,.42,1.58,.49,2.46Z"/>
  <path class="cls-8" d="M232.77,108.01c1.6-1.08,2.53-.36,3.73,.73-1.46,.18-2.53,.07-3.73-.73Z"/>
  <path class="cls-8" d="M94.76,152.62q-1.98-1.29-1.88-3.28c1.03,.96,1.56,2.05,1.88,3.28Z"/>
  <path class="cls-8" d="M242.47,146.33c-1.37-.79-2.03-1.33-1.63-2.33,.17-.42,.78-.57,1.14-.35,1,.64,.18,1.52,.49,2.68Z"/>
  <path class="cls-8" d="M129.79,138.45c-.28-.2-.62-.36-.83-.62-.41-.49-1.25-.87-.71-1.69,.15-.23,.65-.44,.89-.37,.87,.27,.65,1.11,.77,1.74,.06,.31-.09,.65-.15,.98l.03-.04Z"/>
  <path class="cls-16" d="M191.08,106.83c.15,.31,.3,.62,.45,.93-.38,.74-.76,1.47-1.14,2.21-.19-1.03-.37-2.06-.56-3.08,.42-.02,.83-.04,1.25-.06Z"/>
  <path class="cls-16" d="M150.32,122.69c-.39-1.03-.48-1.81,.46-2.66,.39,1.03,.52,1.82-.46,2.66Z"/>
  <path class="cls-8" d="M154.65,156.56c2.09-.83,2.31,.05,1.66,1.72-.7-.44-1.32-.95-1.66-1.72Z"/>
  <path class="cls-8" d="M305.68,170.45c0,.33,0,.66,.01,.99-.75-.02-1.98,.16-1.87-.75,.12-1.07,1.16-.53,1.86-.24Z"/>
  <path class="cls-8" d="M211.44,139.98c-1.01-.16-1.39-.8-1.53-1.69q1.23,.36,1.53,1.69Z"/>
  <path class="cls-16" d="M197.91,105.28c.94,.06,2.07-.92,2.78,.47-.95,.03-1.9,.07-2.85,.1,0,0-.01-.01-.01-.01,.03-.18,.05-.37,.08-.55Z"/>
  <path class="cls-10" d="M118.68,143.59c.17-.03,.34-.03,.51-.01,.55,.48,.67,1.08,.39,2.11-.38-.88-.64-1.49-.9-2.09Z"/>
  <path class="cls-14" d="M308.78,173.14c-.5-.1-1.01-.2-1.51-.3,.01-.3,.02-.6,.03-.9,.53,.05,1.06,.1,1.58,.14-.03,.35-.07,.71-.1,1.06Z"/>
  <path class="cls-1" d="M201.03,94.1c-1.05-.1-2.09-.2-3.14-.3,1.11-.51,2.19-.7,3.14,.3Z"/>
  <path class="cls-16" d="M195.86,106.68c.07-.25,.15-.5,.22-.75,.58-.03,1.17-.06,1.75-.09,0,0,.01,.01,.01,.01-.22,1.27-1.12,1.02-1.98,.83Z"/>
  <path class="cls-4" d="M243.51,48.46c.01,1.15-.86,1.02-1.61,1.04,.14-.92,.92-.92,1.61-1.04Z"/>
  <path class="cls-4" d="M241.91,49.48c-.12,.92-.91,.91-1.58,1.07,.08-.98,.54-1.44,1.58-1.07Z"/>
  <path class="cls-16" d="M191.57,89.35c-1.01,.38-2.03,.43-3.05,.03,1.02,0,2.03-.02,3.05-.03Z"/>
  <path class="cls-16" d="M194.12,93.92c-.46,0-.91,0-1.37,.01-.59-1.58,.62-1.06,1.35-1.1,0,.36,.01,.73,.02,1.09Z"/>
  <path class="cls-16" d="M137.89,177.49c.75-.18,1.49-.16,2.21,.13-.74,.09-1.49,.22-2.21-.13Z"/>
  <path class="cls-16" d="M142.82,177.61c.77-.37,1.57-.39,2.39-.26-.74,.55-1.58,.3-2.39,.26Z"/>
  <path class="cls-16" d="M264.23,177.71c.76-.08,.71,.69,1.1,.99-.73,.05-1.07-.31-1.1-.99Z"/>
  <path class="cls-4" d="M223.86,58.82c.15,.85-.47,.94-1.09,1.04-.1-.81,.57-.84,1.09-1.04Z"/>
  <path class="cls-10" d="M120.5,147.04c.06,.16,.16,.31,.16,.45,0,.14-.12,.27-.19,.4-.06-.14-.17-.29-.17-.43,0-.14,.13-.27,.21-.42Z"/>
  <path class="cls-4" d="M246.17,47.41c-.36,.69-.94,.73-1.61,.53,.39-.59,.82-1.07,1.61-.53Z"/>
  <path class="cls-16" d="M148.66,124.93c.08-.55,.16-1.1,.25-1.65,.08,.57,.19,1.15-.25,1.65Z"/>
  <path class="cls-16" d="M333.47,97.56c.02-.5,.04-.99,.06-1.49,.42,.51,.42,1.01-.06,1.49Z"/>
  <path class="cls-14" d="M239.91,52.68c.05,.33,.11,.65,.16,.98-.37-.28-.41-.6-.16-.98Z"/>
  <path class="cls-16" d="M189.74,110.95c.22-.32,.43-.65,.65-.97,0,.46-.14,.83-.65,.97Z"/>
  <path class="cls-4" d="M244.57,47.94c-.04,.79-.57,.65-1.08,.53,.15-.57,.59-.6,1.08-.53Z"/>
  <path class="cls-11" d="M278.34,135.82c.35,.37,.36,.72-.05,1.05,.02-.35,.04-.7,.05-1.05Z"/>
  <path class="cls-8" d="M184.68,139.84c.33,.24,.72,.61,.36,.94-.46,.41-.62-.19-.84-.46,.16-.16,.32-.31,.48-.47Z"/>
  <path class="cls-16" d="M276.4,173.02c0,.35,0,.69,0,1.04-.54-.35-.57-.7,0-1.04Z"/>
  <path class="cls-15" d="M207.19,135.61c.05-.06,.13-.17,.16-.16,.14,.04,.26,.12,.39,.18-.05,.06-.12,.18-.14,.18-.14-.05-.27-.13-.4-.19Z"/>
  <path class="cls-16" d="M220.45,131.71c-.06,.26-.12,.52-.18,.78,.06-.26,.12-.52,.18-.78Z"/>
  <path class="cls-16" d="M220.79,130.23c-.03,.15-.06,.3-.1,.45-.04-.17,0-.32,.1-.45Z"/>
  <path class="cls-16" d="M148.73,130.16c-.08,.2-.16,.41-.25,.61,.08-.2,.16-.41,.25-.61Z"/>
  <path class="cls-16" d="M220,129.02c.04-.16,.08-.33,.12-.49-.04,.16-.08,.33-.12,.49Z"/>
  <path class="cls-16" d="M164.34,173.32l-.24,.11s-.25-.1-.25-.1c.16,0,.32,0,.49,0Z"/>
  <path class="cls-16" d="M99.77,176.52c-.02-.16,.03-.29,.16-.4,.11,.11,.22,.21,.33,.32-.16,.02-.33,.05-.49,.07Z"/>
  <path class="cls-16" d="M140.83,177.62c.32-.21,.64-.24,.97-.02-.32,0-.64,.01-.97,.02Z"/>
  <path class="cls-16" d="M272.61,172.97c.2-.04,.4-.09,.6-.13-.2,.04-.4,.09-.6,.13Z"/>
  <path class="cls-16" d="M221.95,127.08c-.07,.18-.14,.35-.21,.53,.07-.18,.14-.35,.21-.53Z"/>
  <path class="cls-16" d="M148.08,127.53c.08-.26,.16-.51,.24-.77-.08,.26-.16,.51-.24,.77Z"/>
  <path class="cls-16" d="M149.74,125.52c-.05,.24-.09,.49-.14,.73,.05-.24,.09-.49,.14-.73Z"/>
  <path class="cls-16" d="M221.61,124.37c-.1-.18-.05-.32,.13-.42,.02,.16-.03,.3-.13,.42Z"/>
  <path class="cls-16" d="M223.63,122.41c-.08,.21-.16,.41-.24,.62,.08-.21,.16-.41,.24-.62Z"/>
  <path class="cls-14" d="M160.51,117.62c.2,0,.41,0,.61,0-.2,0-.41,0-.61,0Z"/>
  <path class="cls-15" d="M208.4,136.92c-.2-.13-.46-.26-.13-.5,.03-.02,.22,.18,.34,.28-.07,.07-.14,.15-.21,.22Z"/>
  <path class="cls-15" d="M208.61,136.7c.19,.17,.37,.33,.56,.5-.09,.08-.17,.17-.26,.26-.17-.18-.34-.36-.51-.54,.07-.07,.14-.14,.21-.22Z"/>
  <path class="cls-10" d="M118.76,137.91c.02-.21,.04-.42,.06-.62,.04,.15,.09,.3,.1,.45,0,.06-.1,.12-.16,.17Z"/>
  <path class="cls-7" d="M85.28,171.26c.08-.5,.25-.6,.54-.11-.18,.04-.36,.07-.54,.11Z"/>
  <path class="cls-12" d="M310.42,170.28c-.2,.04-.39,.08-.59,.11,.2-.04,.39-.08,.59-.11Z"/>
  <path class="cls-15" d="M209.17,137.2c.18,.16,.5,.3,.12,.55-.04,.03-.25-.19-.38-.29,.08-.09,.17-.17,.26-.26Z"/>
  <path class="cls-10" d="M149.47,159.39c.17-.11,.33-.22,.5-.33,0,.36-.19,.42-.5,.33Z"/>
  <path class="cls-16" d="M147.31,91.06c-.23-.04-.45-.07-.68-.11,.23,.04,.45,.07,.68,.11Z"/>
  <path class="cls-11" d="M129.76,138.49c.08-.02,.17-.03,.25-.05-.07,0-.14,0-.22,0,0,0-.03,.04-.03,.04Z"/>
  <path class="cls-16" d="M198.36,88.14c-.16-.06-.3-.14-.43-.26,.14,.09,.28,.17,.43,.26Z"/>
  <path class="cls-16" d="M194.43,87.67c.24-.06,.48-.11,.71-.17-.24,.06-.48,.11-.71,.17Z"/>
  <path class="cls-3" d="M232.64,80.76c-.04-.21-.08-.41-.11-.62,.17,.09,.33,.17,.5,.26-.13,.12-.26,.24-.39,.36Z"/>
  <path class="cls-16" d="M144.93,138.44c.13,.15,.13,.29,0,.44-.04-.1-.09-.2-.11-.31,0-.04,.07-.09,.11-.13Z"/>
  <path class="cls-10" d="M119.02,141.51c-.07-.15-.17-.29-.21-.44-.02-.06,.07-.15,.11-.23,.06,.14,.14,.29,.18,.44,.02,.07-.05,.15-.08,.23Z"/>
  <path class="cls-10" d="M118.78,139.48c-.01-.19-.03-.37-.04-.56,.06,.13,.13,.25,.16,.39,.01,.05-.08,.12-.12,.17Z"/>
  <path class="cls-13" d="M171.57,94.04c-1.09,.55-2.32,.24-3.46,.48,1.02-1.07,2.29-.43,3.46-.48Z"/>
  <path class="cls-16" d="M279.65,176.09c1.28,.51,2.57,1.02,3.85,1.53-1.29-.2-1.07,1.87-2.44,1.54,.74-1.49-.6-1.55-1.42-1.96,0-.37,0-.73,.01-1.1Z"/>
  <path class="cls-13" d="M279.65,176.09c0,.37,0,.73-.01,1.1-.67-.57-2.24,.02-2.13-1.56,.99-1.08,1.44,.26,2.15,.46Z"/>
  <path class="cls-13" d="M276.44,174.59c.91-.2,1.38,.04,1.06,1.04-.46,.6-.86,.17-1.19-.12-.37-.32-.31-.67,.13-.92Z"/>
  <path class="cls-13" d="M192.26,93.92c-.12,.39-.39,.56-.8,.54,.13-.3,.25-.6,.39-.9,.14,.12,.28,.24,.41,.35Z"/>
  <path class="cls-14" d="M112.28,177.36c.2,.01,.39,.03,.59,.04-.22,.25-.41,.23-.59-.04Z"/>
  <path class="cls-16" d="M297.53,178.64c.28-.47,.53-.99,1.24-.91-.06,.76-.5,1.04-1.24,.91Z"/>
  <path class="cls-16" d="M299.15,177.61c.22-.06,.43-.12,.65-.18-.22,.06-.43,.12-.65,.18Z"/>
  <path class="cls-16" d="M283.88,177.77c.7-.09,.9,.47,1.21,.89-.72,.11-1.16-.14-1.21-.89Z"/>
  <path class="cls-8" d="M153.69,136.92c.19-.03,.3-.36,.59-.08,.29,.28-.05,.39-.08,.57-.54,.19-.71,.03-.51-.5Z"/>
  <path class="cls-16" d="M197.85,105.29c-.18-.13-.36-.27-.54-.4,.18,.13,.36,.27,.54,.4Z"/>
  <path class="cls-14" d="M192.57,85.22c-1.3,.46-2.58,.71-4.53-.46,1.96-.24,3.23-.4,4.5-.56,0,.34,.02,.68,.03,1.02Z"/>
  <path class="cls-15" d="M192.57,85.22c0-.34-.02-.68-.03-1.02,.41-.09,.97-.21,1.05,.28,.1,.64-.46,.77-1.03,.74Z"/>
</svg>