<svg xmlns="http://www.w3.org/2000/svg" xmlns:xlink="http://www.w3.org/1999/xlink" width="414" zoomAndPan="magnify" viewBox="0 0 310.5 225" height="300" preserveAspectRatio="xMidYMid meet" version="1.0"><defs><clipPath id="7a11282998"><path d="M 35.183594 46.21875 L 115.960938 46.21875 L 115.960938 97.683594 L 35.183594 97.683594 Z M 35.183594 46.21875 " clip-rule="nonzero"/></clipPath><clipPath id="ae46e4518e"><path d="M 35.269531 97.222656 C 38.1875 91.984375 48.597656 80.601562 53.3125 76.257812 C 56.160156 73.636719 57.808594 72.363281 60.800781 70.566406 C 64.769531 68.246094 70.3125 66.824219 75.328125 64.277344 C 81.167969 61.355469 87.160156 56.488281 93.675781 53.496094 C 100.488281 50.425781 113.515625 45.855469 115.3125 46.304688 C 115.613281 46.382812 115.839844 46.53125 115.839844 46.757812 C 115.539062 47.878906 101.011719 50.949219 94.199219 54.019531 C 87.683594 57.015625 81.695312 61.882812 75.851562 64.875 C 70.6875 67.496094 64.84375 68.921875 60.878906 71.242188 C 57.957031 73.039062 56.460938 74.3125 53.6875 76.855469 C 49.121094 81.050781 39.460938 91.609375 37.140625 94.976562 C 36.390625 96.175781 36.316406 97.375 35.867188 97.523438 C 35.644531 97.597656 35.269531 97.222656 35.269531 97.222656 " clip-rule="nonzero"/></clipPath><clipPath id="613129978e"><path d="M 120.019531 40.15625 L 151.433594 40.15625 L 151.433594 45.988281 L 120.019531 45.988281 Z M 120.019531 40.15625 " clip-rule="nonzero"/></clipPath><clipPath id="fed946d7c8"><path d="M 120.03125 45.257812 C 125.648438 42.9375 128.566406 42.1875 130.964844 42.261719 C 133.285156 42.339844 135.457031 43.6875 137.777344 43.835938 C 140.324219 44.058594 143.695312 43.460938 145.640625 43.160156 C 146.761719 42.9375 147.511719 42.863281 148.410156 42.488281 C 149.308594 41.964844 150.582031 40.089844 151.03125 40.167969 C 151.179688 40.242188 151.40625 40.765625 151.332031 40.765625 C 151.332031 40.839844 150.730469 40.316406 150.808594 40.316406 C 150.808594 40.316406 151.40625 40.464844 151.40625 40.617188 C 151.480469 40.988281 150.359375 41.964844 149.683594 42.414062 C 148.933594 43.011719 148.1875 43.386719 147.0625 43.6875 C 145.042969 44.210938 141.371094 44.734375 138.601562 44.585938 C 135.980469 44.507812 133.359375 43.085938 130.8125 43.011719 C 128.417969 43.011719 125.574219 43.6875 123.625 44.285156 C 122.277344 44.734375 120.78125 46.082031 120.257812 45.933594 C 120.03125 45.78125 120.03125 45.257812 120.03125 45.257812 " clip-rule="nonzero"/></clipPath><clipPath id="d0c491f481"><path d="M 123.867188 40.148438 L 151.351562 40.148438 L 151.351562 58.535156 L 123.867188 58.535156 Z M 123.867188 40.148438 " clip-rule="nonzero"/></clipPath><clipPath id="98da5ff0f7"><path d="M 135.605469 43.011719 C 147.511719 39.867188 149.460938 39.941406 150.359375 40.390625 C 150.808594 40.617188 151.179688 40.765625 151.257812 41.289062 C 151.480469 42.1875 150.65625 44.433594 149.460938 46.15625 C 147.585938 48.851562 143.09375 52.820312 139.5 54.84375 C 136.207031 56.714844 131.789062 57.761719 128.867188 58.289062 C 126.921875 58.585938 123.925781 58.585938 123.925781 58.289062 C 123.851562 57.839844 134.410156 56.714844 138.675781 54.46875 C 142.644531 52.371094 147.0625 48.328125 148.933594 45.632812 C 149.984375 44.058594 150.882812 41.890625 150.507812 41.214844 C 150.207031 40.765625 149.308594 40.839844 148.5625 40.765625 C 147.585938 40.691406 146.613281 40.617188 145.265625 40.839844 C 142.945312 41.214844 136.804688 44.136719 135.832031 43.6875 C 135.605469 43.609375 135.605469 43.011719 135.605469 43.011719 " clip-rule="nonzero"/></clipPath><clipPath id="a4830e4e90"><path d="M 99.710938 61.101562 L 119.558594 61.101562 L 119.558594 69.773438 L 99.710938 69.773438 Z M 99.710938 61.101562 " clip-rule="nonzero"/></clipPath><clipPath id="6f48b9a0ba"><path d="M 119.359375 61.882812 C 109.097656 68.621094 106.777344 69.519531 104.757812 69.742188 C 102.960938 69.894531 100.039062 69.445312 99.738281 68.921875 C 99.664062 68.769531 100.113281 68.246094 100.113281 68.320312 C 100.113281 68.320312 99.964844 68.996094 99.890625 68.996094 C 99.890625 68.996094 99.664062 68.472656 99.8125 68.320312 C 100.1875 68.023438 102.359375 68.996094 103.632812 68.996094 C 104.90625 68.996094 106.253906 68.621094 107.527344 68.246094 C 108.949219 67.796875 110.148438 67.273438 111.644531 66.449219 C 113.667969 65.25 117.113281 62.03125 118.382812 61.433594 C 118.910156 61.207031 119.359375 61.058594 119.507812 61.132812 C 119.582031 61.28125 119.359375 61.882812 119.359375 61.882812 " clip-rule="nonzero"/></clipPath><clipPath id="df0cb6e856"><path d="M 82.824219 69.902344 L 101.3125 69.902344 L 101.3125 85.460938 L 82.824219 85.460938 Z M 82.824219 69.902344 " clip-rule="nonzero"/></clipPath><clipPath id="ba757dc39d"><path d="M 101.238281 70.566406 C 90.527344 82.25 88.65625 83.371094 86.933594 84.195312 C 85.511719 84.792969 83.339844 85.617188 82.964844 85.320312 C 82.816406 85.167969 82.964844 84.644531 83.042969 84.644531 C 83.042969 84.644531 83.265625 85.320312 83.265625 85.320312 C 83.191406 85.394531 82.816406 84.945312 82.890625 84.71875 C 83.042969 84.269531 85.0625 84.269531 86.410156 83.671875 C 88.207031 82.773438 90.605469 81.351562 92.699219 79.476562 C 95.320312 77.15625 99.140625 71.390625 100.339844 70.34375 C 100.636719 70.117188 100.863281 69.894531 101.011719 69.96875 C 101.160156 69.96875 101.238281 70.566406 101.238281 70.566406 " clip-rule="nonzero"/></clipPath><clipPath id="7c50cd9c4b"><path d="M 78.507812 84.230469 L 87.425781 84.230469 L 87.425781 97.839844 L 78.507812 97.839844 Z M 78.507812 84.230469 " clip-rule="nonzero"/></clipPath><clipPath id="244c820f50"><path d="M 87.382812 84.496094 C 86.410156 89.960938 85.738281 91.234375 84.839844 92.582031 C 83.714844 94.15625 81.695312 96.550781 80.421875 97.300781 C 79.746094 97.675781 78.699219 97.898438 78.546875 97.75 C 78.324219 97.300781 83.042969 93.855469 84.3125 92.058594 C 85.210938 90.859375 85.660156 89.738281 86.113281 88.464844 C 86.484375 87.191406 86.1875 84.496094 86.636719 84.269531 C 86.859375 84.121094 87.382812 84.496094 87.382812 84.496094 " clip-rule="nonzero"/></clipPath><clipPath id="7bbd23daa5"><path d="M 97.402344 73.769531 L 105.203125 73.769531 L 105.203125 75.707031 L 97.402344 75.707031 Z M 97.402344 73.769531 " clip-rule="nonzero"/></clipPath><clipPath id="11d6580c0c"><path d="M 97.417969 74.910156 C 102.808594 73.636719 104.757812 73.636719 105.128906 74.011719 C 105.28125 74.160156 105.054688 74.6875 105.054688 74.6875 C 105.054688 74.6875 104.980469 73.9375 104.980469 73.9375 C 104.980469 73.9375 105.207031 74.535156 105.054688 74.6875 C 104.757812 75.136719 102.136719 74.386719 100.863281 74.609375 C 99.664062 74.761719 97.941406 75.882812 97.566406 75.660156 C 97.34375 75.507812 97.417969 74.910156 97.417969 74.910156 " clip-rule="nonzero"/></clipPath><clipPath id="cca52761fd"><path d="M 108.21875 73.777344 L 121.859375 73.777344 L 121.859375 79.5625 L 108.21875 79.5625 Z M 108.21875 73.777344 " clip-rule="nonzero"/></clipPath><clipPath id="8083ff05b2"><path d="M 108.5 73.789062 C 120.628906 78.128906 121.679688 78.503906 121.828125 78.878906 C 121.828125 79.105469 121.53125 79.476562 121.53125 79.476562 C 121.453125 79.476562 121.679688 78.804688 121.679688 78.804688 C 121.679688 78.804688 121.679688 79.328125 121.378906 79.476562 C 120.257812 80.003906 108.875 75.660156 108.277344 74.460938 C 108.125 74.238281 108.5 73.789062 108.5 73.789062 " clip-rule="nonzero"/></clipPath><clipPath id="4a22fe19d3"><path d="M 122.117188 79.617188 L 124.316406 79.617188 L 124.316406 81.363281 L 122.117188 81.363281 Z M 122.117188 79.617188 " clip-rule="nonzero"/></clipPath><clipPath id="ab5cb3abd8"><path d="M 124.074219 81.351562 C 122.054688 80.078125 122.578125 79.703125 122.578125 79.703125 C 122.578125 79.703125 122.128906 80.300781 122.128906 80.300781 C 122.128906 80.300781 122.203125 79.703125 122.429688 79.628906 C 122.726562 79.554688 124.148438 80.300781 124.300781 80.675781 C 124.375 80.902344 124.074219 81.351562 124.074219 81.351562 " clip-rule="nonzero"/></clipPath><clipPath id="60a57deec4"><path d="M 130.269531 83.203125 L 141.726562 83.203125 L 141.726562 91.570312 L 130.269531 91.570312 Z M 130.269531 83.203125 " clip-rule="nonzero"/></clipPath><clipPath id="d9bc35fafe"><path d="M 130.664062 83.222656 C 140.324219 89.289062 141.746094 90.558594 141.671875 91.085938 C 141.597656 91.308594 141.074219 91.457031 141.074219 91.457031 C 141.074219 91.457031 141.671875 91.007812 141.671875 91.085938 C 141.671875 91.085938 141.148438 91.609375 141.148438 91.535156 C 141.148438 91.535156 141.523438 90.933594 141.523438 90.933594 C 141.523438 90.933594 141.296875 91.535156 141.074219 91.535156 C 140.546875 91.609375 139.425781 89.4375 138.152344 88.390625 C 136.207031 86.890625 130.441406 84.71875 130.289062 83.820312 C 130.214844 83.523438 130.664062 83.222656 130.664062 83.222656 " clip-rule="nonzero"/></clipPath><clipPath id="9113d62d37"><path d="M 84.164062 91.085938 L 103.875 91.085938 L 103.875 99.507812 L 84.164062 99.507812 Z M 84.164062 91.085938 " clip-rule="nonzero"/></clipPath><clipPath id="1442b9db63"><path d="M 84.988281 93.257812 C 86.710938 98.347656 87.609375 98.648438 88.582031 98.722656 C 89.855469 98.796875 91.277344 98.199219 93 97.523438 C 95.84375 96.324219 103.933594 92.058594 103.859375 91.382812 C 103.859375 91.234375 103.257812 91.085938 103.257812 91.160156 C 103.257812 91.160156 103.859375 91.382812 103.859375 91.535156 C 103.933594 91.90625 102.882812 92.730469 102.136719 93.332031 C 101.160156 94.078125 99.964844 94.902344 98.316406 95.652344 C 95.84375 96.925781 90.902344 99.546875 88.582031 99.472656 C 87.234375 99.472656 86.1875 98.871094 85.511719 98.125 C 84.6875 97.222656 84.390625 95.277344 84.238281 94.378906 C 84.164062 93.855469 84.089844 93.179688 84.3125 93.105469 C 84.390625 92.957031 84.988281 93.257812 84.988281 93.257812 " clip-rule="nonzero"/></clipPath><clipPath id="525fbcbc85"><path d="M 106.898438 85.230469 L 108.675781 85.230469 L 108.675781 90.652344 L 106.898438 90.652344 Z M 106.898438 85.230469 " clip-rule="nonzero"/></clipPath><clipPath id="f9a7585251"><path d="M 108.648438 85.617188 C 107.453125 90.859375 107.003906 90.558594 107.003906 90.484375 C 107.003906 90.410156 107.75 90.558594 107.75 90.558594 C 107.75 90.558594 107.152344 90.710938 107.003906 90.558594 C 106.628906 90.109375 107.453125 87.414062 107.675781 86.441406 C 107.828125 85.917969 107.828125 85.320312 108.050781 85.242188 C 108.199219 85.167969 108.648438 85.617188 108.648438 85.617188 " clip-rule="nonzero"/></clipPath><clipPath id="7929ae229b"><path d="M 86.117188 100.191406 L 107.394531 100.191406 L 107.394531 108.859375 L 86.117188 108.859375 Z M 86.117188 100.191406 " clip-rule="nonzero"/></clipPath><clipPath id="ca64993c52"><path d="M 87.011719 100.445312 C 88.65625 106.808594 89.179688 107.707031 90.378906 108.082031 C 93.300781 108.832031 107.300781 102.839844 107.378906 102.992188 C 107.378906 103.066406 106.929688 103.363281 106.851562 103.289062 C 106.777344 103.289062 107.003906 102.691406 106.851562 102.617188 C 106.554688 102.464844 105.128906 104.339844 103.558594 105.085938 C 100.710938 106.507812 93 108.980469 90.527344 108.832031 C 89.554688 108.757812 88.957031 108.308594 88.433594 107.859375 C 87.984375 107.410156 87.832031 106.882812 87.535156 106.136719 C 87.085938 105.085938 86.410156 103.214844 86.261719 102.089844 C 86.1875 101.34375 86.035156 100.445312 86.335938 100.21875 C 86.410156 100.144531 87.011719 100.445312 87.011719 100.445312 " clip-rule="nonzero"/></clipPath><clipPath id="39ab536df8"><path d="M 86.5625 100.320312 L 87.40625 100.320312 L 87.40625 101.582031 L 86.5625 101.582031 Z M 86.5625 100.320312 " clip-rule="nonzero"/></clipPath><clipPath id="059b0061ab"><path d="M 87.382812 100.445312 C 87.011719 102.839844 86.410156 100.667969 86.636719 100.445312 C 86.785156 100.21875 87.382812 100.445312 87.382812 100.445312 " clip-rule="nonzero"/></clipPath><clipPath id="350aa3c9e6"><path d="M 75.84375 93.695312 L 86.429688 93.695312 L 86.429688 114.152344 L 75.84375 114.152344 Z M 75.84375 93.695312 " clip-rule="nonzero"/></clipPath><clipPath id="e88b0ff3e4"><path d="M 76.453125 93.707031 C 79.445312 98.648438 78.699219 100.820312 79.445312 102.992188 C 80.570312 106.136719 86.710938 112.574219 86.410156 113.699219 C 86.410156 113.996094 85.8125 114.074219 85.8125 114.074219 C 85.8125 114.074219 86.335938 113.546875 86.410156 113.546875 C 86.410156 113.625 86.113281 114.148438 85.886719 114.148438 C 85.511719 114.148438 85.136719 113.25 84.539062 112.425781 C 83.339844 110.628906 79.820312 106.136719 78.847656 103.363281 C 78.175781 101.34375 78.921875 99.394531 78.324219 97.75 C 77.800781 96.324219 75.777344 94.753906 75.851562 94.15625 C 75.851562 93.929688 76.453125 93.707031 76.453125 93.707031 " clip-rule="nonzero"/></clipPath><clipPath id="f0e1ba39dc"><path d="M 80.410156 106.214844 L 139.140625 106.214844 L 139.140625 115.457031 L 80.410156 115.457031 Z M 80.410156 106.214844 " clip-rule="nonzero"/></clipPath><clipPath id="bd1bd653da"><path d="M 80.945312 112.574219 C 91.128906 115.121094 100.261719 114.148438 106.554688 112.726562 C 112.542969 111.300781 117.859375 106.660156 123.402344 106.285156 C 128.644531 105.910156 138.300781 108.605469 139.050781 109.804688 C 139.199219 110.027344 138.902344 110.476562 138.902344 110.476562 C 138.902344 110.476562 139.125 109.804688 139.125 109.804688 C 139.125 109.804688 138.828125 110.476562 138.828125 110.476562 C 138.828125 110.476562 139.050781 109.804688 139.050781 109.804688 C 139.050781 109.804688 139.125 110.328125 138.902344 110.476562 C 137.851562 111.226562 128.644531 106.660156 123.476562 107.035156 C 118.011719 107.484375 112.84375 112.050781 106.929688 113.472656 C 100.5625 114.894531 91.128906 115.792969 86.5625 115.269531 C 84.089844 114.972656 81.917969 113.921875 81.019531 113.472656 C 80.644531 113.25 80.421875 113.097656 80.421875 112.949219 C 80.421875 112.800781 80.945312 112.574219 80.945312 112.574219 " clip-rule="nonzero"/></clipPath><clipPath id="cfc78271c7"><path d="M 87.597656 108.8125 L 90.472656 108.8125 L 90.472656 114.628906 L 87.597656 114.628906 Z M 87.597656 108.8125 " clip-rule="nonzero"/></clipPath><clipPath id="c6f321a011"><path d="M 88.808594 109.429688 C 88.730469 112.425781 90.527344 114.523438 90.453125 114.597656 C 90.304688 114.671875 88.28125 112.726562 87.832031 111.75 C 87.609375 111.078125 87.535156 110.328125 87.683594 109.804688 C 87.832031 109.355469 88.207031 108.832031 88.359375 108.832031 C 88.507812 108.832031 88.808594 109.429688 88.808594 109.429688 " clip-rule="nonzero"/></clipPath><clipPath id="372283504f"><path d="M 109.328125 96.929688 L 110.675781 96.929688 L 110.675781 103.175781 L 109.328125 103.175781 Z M 109.328125 96.929688 " clip-rule="nonzero"/></clipPath><clipPath id="49c44a7e8b"><path d="M 110.671875 97.074219 C 110.296875 103.214844 109.773438 102.992188 109.773438 102.992188 C 109.773438 102.992188 110.371094 103.214844 110.445312 103.140625 C 110.671875 102.914062 109.546875 101.640625 109.398438 100.742188 C 109.25 99.695312 109.472656 97.375 109.921875 97 C 110.148438 96.851562 110.671875 97.074219 110.671875 97.074219 " clip-rule="nonzero"/></clipPath><clipPath id="062e15e781"><path d="M 108.773438 89.558594 L 116.375 89.558594 L 116.375 94.03125 L 108.773438 94.03125 Z M 108.773438 89.558594 " clip-rule="nonzero"/></clipPath><clipPath id="3fc51d847b"><path d="M 109.097656 89.585938 C 116.511719 93.554688 116.0625 93.929688 116.0625 93.929688 C 116.0625 93.929688 116.363281 93.257812 116.363281 93.257812 C 116.363281 93.332031 116.289062 93.855469 116.0625 94.003906 C 115.238281 94.230469 109.097656 91.085938 108.800781 90.261719 C 108.726562 89.960938 109.097656 89.585938 109.097656 89.585938 " clip-rule="nonzero"/></clipPath><clipPath id="ac613d786f"><path d="M 122.273438 95.648438 L 130.335938 95.648438 L 130.335938 102.019531 L 122.273438 102.019531 Z M 122.273438 95.648438 " clip-rule="nonzero"/></clipPath><clipPath id="da672dbf44"><path d="M 122.800781 95.652344 C 129.390625 99.097656 130.363281 100.96875 130.289062 101.566406 C 130.214844 101.792969 129.992188 102.015625 129.765625 102.015625 C 129.316406 101.941406 128.71875 99.320312 127.820312 98.648438 C 126.996094 97.972656 125.574219 98.125 124.597656 97.675781 C 123.699219 97.300781 122.351562 96.625 122.277344 96.25 C 122.277344 96.027344 122.800781 95.652344 122.800781 95.652344 " clip-rule="nonzero"/></clipPath><clipPath id="6a3da562db"><path d="M 141.554688 105.117188 L 148.800781 105.117188 L 148.800781 116.507812 L 141.554688 116.507812 Z M 141.554688 105.117188 " clip-rule="nonzero"/></clipPath><clipPath id="70dab76e2b"><path d="M 147.886719 105.160156 C 148.859375 113.023438 149.011719 115.34375 148.335938 116.09375 C 147.960938 116.46875 147.363281 116.542969 146.6875 116.46875 C 145.492188 116.242188 142.71875 113.324219 142.046875 113.472656 C 141.746094 113.546875 141.597656 114.074219 141.597656 114.074219 C 141.597656 114.074219 141.746094 113.546875 141.972656 113.472656 C 142.796875 113.175781 146.6875 116.394531 147.738281 115.644531 C 148.933594 114.820312 148.1875 109.28125 147.886719 107.410156 C 147.738281 106.507812 147.0625 105.761719 147.214844 105.386719 C 147.289062 105.238281 147.886719 105.160156 147.886719 105.160156 " clip-rule="nonzero"/></clipPath><clipPath id="1ca0f0070e"><path d="M 143.621094 105.582031 L 148.171875 105.582031 L 148.171875 115.828125 L 143.621094 115.828125 Z M 143.621094 105.582031 " clip-rule="nonzero"/></clipPath><clipPath id="d786bf8530"><path d="M 145.863281 106.285156 C 144.066406 108.679688 144.515625 109.730469 144.816406 110.703125 C 145.117188 111.75 145.414062 113.023438 146.015625 113.847656 C 146.539062 114.671875 148.1875 115.71875 148.113281 115.792969 C 148.113281 115.792969 147.585938 115.644531 147.585938 115.496094 C 147.585938 115.421875 148.035156 115.121094 148.113281 115.121094 C 148.1875 115.195312 148.113281 115.71875 147.886719 115.792969 C 147.511719 115.945312 146.3125 115.269531 145.714844 114.671875 C 145.042969 113.921875 144.59375 112.800781 144.21875 111.675781 C 143.917969 110.328125 143.394531 108.308594 143.769531 107.257812 C 144.066406 106.507812 145.191406 105.535156 145.566406 105.609375 C 145.789062 105.609375 145.863281 106.285156 145.863281 106.285156 " clip-rule="nonzero"/></clipPath><clipPath id="00ed7069aa"><path d="M 47.292969 110.375 L 141.9375 110.375 L 141.9375 154.128906 L 47.292969 154.128906 Z M 47.292969 110.375 " clip-rule="nonzero"/></clipPath><clipPath id="7683d02726"><path d="M 127.21875 115.269531 C 132.835938 111.75 135.15625 110.554688 137.03125 110.476562 C 138.601562 110.476562 140.773438 111.003906 141.445312 111.976562 C 141.972656 112.648438 141.972656 114.148438 141.523438 114.972656 C 141.148438 115.871094 140.023438 116.394531 138.828125 117.066406 C 137.03125 117.964844 133.585938 118.414062 131.339844 119.464844 C 129.167969 120.363281 127.59375 121.410156 125.496094 122.757812 C 122.578125 124.628906 118.683594 128.375 115.613281 129.796875 C 113.292969 130.84375 111.71875 130.472656 108.949219 131.371094 C 103.859375 133.015625 94.945312 136.460938 88.207031 139.832031 C 81.246094 143.199219 73.082031 149.339844 67.691406 151.585938 C 64.472656 152.933594 62.375 153.382812 59.527344 153.757812 C 56.535156 154.207031 52.191406 154.132812 50.019531 153.832031 C 48.894531 153.683594 47.398438 153.085938 47.398438 153.085938 C 47.398438 153.011719 48.074219 153.085938 48.074219 153.160156 C 48.148438 153.234375 47.773438 153.683594 47.699219 153.609375 C 47.625 153.609375 47.472656 153.085938 47.699219 152.933594 C 48.445312 152.109375 55.859375 153.460938 59.453125 153.011719 C 62.597656 152.636719 64.695312 152.109375 68.140625 150.6875 C 73.757812 148.367188 82.292969 142.003906 89.332031 138.558594 C 95.84375 135.414062 104.230469 132.042969 108.800781 130.621094 C 111.195312 129.945312 112.320312 130.394531 114.339844 129.574219 C 117.484375 128.226562 121.828125 124.105469 124.972656 122.160156 C 127.296875 120.738281 129.015625 119.613281 131.261719 118.714844 C 133.511719 117.742188 136.578125 117.441406 138.300781 116.542969 C 139.5 115.945312 140.699219 115.269531 140.996094 114.445312 C 141.296875 113.773438 140.996094 112.648438 140.472656 112.050781 C 139.875 111.453125 138.300781 111.226562 137.03125 111.226562 C 135.457031 111.300781 133.285156 112.273438 131.636719 113.097656 C 130.140625 113.921875 128.117188 116.09375 127.519531 115.945312 C 127.296875 115.945312 127.21875 115.269531 127.21875 115.269531 " clip-rule="nonzero"/></clipPath><clipPath id="e6f2b18d01"><path d="M 126.597656 114.125 L 130.164062 114.125 L 130.164062 120.402344 L 126.597656 120.402344 Z M 126.597656 114.125 " clip-rule="nonzero"/></clipPath><clipPath id="343de6f0e8"><path d="M 129.242188 114.820312 C 127.070312 117.367188 130.289062 120.136719 130.140625 120.363281 C 129.992188 120.511719 128.644531 119.761719 128.042969 119.238281 C 127.445312 118.640625 126.769531 117.742188 126.621094 116.992188 C 126.546875 116.394531 126.695312 115.71875 127.070312 115.269531 C 127.445312 114.746094 128.644531 114.074219 129.015625 114.148438 C 129.167969 114.222656 129.242188 114.820312 129.242188 114.820312 " clip-rule="nonzero"/></clipPath><clipPath id="686ba1db48"><path d="M 107.859375 108.296875 L 109.351562 108.296875 L 109.351562 110.664062 L 107.859375 110.664062 Z M 107.859375 108.296875 " clip-rule="nonzero"/></clipPath><clipPath id="a6c001e531"><path d="M 108.648438 108.308594 C 109.324219 110.476562 108.726562 110.554688 108.726562 110.554688 C 108.726562 110.476562 109.324219 110.105469 109.324219 110.179688 C 109.398438 110.179688 109.023438 110.703125 108.800781 110.628906 C 108.5 110.554688 107.75 108.832031 107.902344 108.457031 C 107.976562 108.308594 108.648438 108.308594 108.648438 108.308594 " clip-rule="nonzero"/></clipPath><clipPath id="18532ed9b0"><path d="M 120.871094 118.878906 L 134.769531 118.878906 L 134.769531 136.40625 L 120.871094 136.40625 Z M 120.871094 118.878906 " clip-rule="nonzero"/></clipPath><clipPath id="5cd6dcd421"><path d="M 134.707031 119.238281 C 130.515625 132.566406 128.792969 135.414062 127.445312 136.085938 C 126.769531 136.460938 126.097656 136.460938 125.574219 136.238281 C 124.898438 136.011719 124.523438 135.261719 124 134.441406 C 123.027344 133.015625 121.378906 129.722656 121.15625 128 C 121.078125 126.953125 121.902344 125.527344 121.679688 125.230469 C 121.527344 125.078125 120.929688 125.304688 120.929688 125.304688 C 120.929688 125.304688 121.453125 125.078125 121.679688 125.230469 C 121.980469 125.453125 121.605469 126.953125 121.902344 128.074219 C 122.351562 129.722656 123.625 132.566406 124.449219 133.914062 C 124.972656 134.664062 125.347656 135.339844 125.871094 135.5625 C 126.320312 135.789062 126.769531 135.710938 127.21875 135.414062 C 128.34375 134.8125 129.839844 132.34375 130.8125 130.171875 C 132.238281 127.25 133.0625 119.464844 134.035156 118.941406 C 134.257812 118.863281 134.707031 119.238281 134.707031 119.238281 " clip-rule="nonzero"/></clipPath><clipPath id="c74e77e6d2"><path d="M 125.085938 123.46875 L 131 123.46875 L 131 136.269531 L 125.085938 136.269531 Z M 125.085938 123.46875 " clip-rule="nonzero"/></clipPath><clipPath id="fbf8a7e8cd"><path d="M 130.964844 124.257812 C 127.746094 127.324219 126.320312 131.59375 125.945312 133.542969 C 125.722656 134.589844 126.097656 136.160156 125.945312 136.238281 C 125.796875 136.238281 125.125 134.890625 125.125 133.839844 C 125.125 131.96875 127.296875 127.324219 128.195312 125.679688 C 128.566406 124.855469 128.867188 124.40625 129.316406 124.03125 C 129.765625 123.730469 130.664062 123.359375 130.890625 123.507812 C 131.039062 123.65625 130.964844 124.257812 130.964844 124.257812 " clip-rule="nonzero"/></clipPath><clipPath id="f2fe910c75"><path d="M 132.898438 122.074219 L 133.296875 122.074219 L 133.296875 122.421875 L 132.898438 122.421875 Z M 132.898438 122.074219 " clip-rule="nonzero"/></clipPath><clipPath id="eb4398f0f5"><path d="M 133.285156 122.085938 C 132.984375 122.832031 132.910156 122.085938 132.910156 122.085938 " clip-rule="nonzero"/></clipPath><clipPath id="1a9ccb470b"><path d="M 131.09375 122.15625 L 133.375 122.15625 L 133.375 124.128906 L 131.09375 124.128906 Z M 131.09375 122.15625 " clip-rule="nonzero"/></clipPath><clipPath id="03e7a938d7"><path d="M 131.113281 123.433594 C 133.136719 122.085938 133.359375 122.683594 133.359375 122.683594 C 133.359375 122.683594 132.835938 122.160156 132.835938 122.160156 C 132.835938 122.160156 133.359375 122.457031 133.359375 122.609375 C 133.359375 122.984375 131.863281 124.179688 131.5625 124.105469 C 131.339844 124.03125 131.113281 123.433594 131.113281 123.433594 " clip-rule="nonzero"/></clipPath><clipPath id="2eb28ce1ba"><path d="M 129.519531 124.984375 L 130.070312 124.984375 L 130.070312 125.773438 L 129.519531 125.773438 Z M 129.519531 124.984375 " clip-rule="nonzero"/></clipPath><clipPath id="6fcc9a13e7"><path d="M 129.765625 125.753906 C 129.09375 124.855469 130.066406 125.003906 130.066406 125.003906 " clip-rule="nonzero"/></clipPath><clipPath id="386b4db0e3"><path d="M 140.464844 80.375 L 190.429688 80.375 L 190.429688 93.339844 L 140.464844 93.339844 Z M 140.464844 80.375 " clip-rule="nonzero"/></clipPath><clipPath id="c207083117"><path d="M 140.847656 92.132812 C 145.640625 92.433594 146.539062 92.28125 147.664062 91.683594 C 149.609375 90.558594 152.453125 86.890625 154.550781 85.394531 C 156.046875 84.34375 157.023438 83.820312 158.746094 83.148438 C 161.441406 82.175781 166.082031 80.976562 169.152344 80.601562 C 171.398438 80.375 172.898438 80.300781 175.292969 80.75 C 178.738281 81.425781 185.027344 84.121094 187.648438 85.320312 C 188.921875 85.84375 190.34375 86.292969 190.417969 86.742188 C 190.492188 86.964844 189.96875 87.339844 189.96875 87.339844 C 189.96875 87.339844 190.34375 86.667969 190.34375 86.667969 C 190.417969 86.742188 190.269531 87.339844 190.269531 87.339844 C 190.195312 87.339844 190.269531 86.667969 190.269531 86.667969 C 190.195312 86.667969 190.269531 87.265625 190.042969 87.339844 C 188.921875 87.863281 180.308594 82.773438 176.414062 81.875 C 173.71875 81.273438 171.921875 81.125 169.226562 81.351562 C 165.707031 81.648438 160.765625 82.546875 157.171875 84.421875 C 153.503906 86.292969 150.28125 91.308594 147.363281 92.582031 C 145.566406 93.40625 143.542969 93.332031 142.347656 93.257812 C 141.597656 93.179688 140.699219 93.105469 140.546875 92.808594 C 140.472656 92.65625 140.847656 92.132812 140.847656 92.132812 " clip-rule="nonzero"/></clipPath><clipPath id="d82f87b0f0"><path d="M 140.933594 86.175781 L 152.664062 86.175781 L 152.664062 93.664062 L 140.933594 93.664062 Z M 140.933594 86.175781 " clip-rule="nonzero"/></clipPath><clipPath id="f94eee2fd5"><path d="M 152.53125 87.039062 C 142.121094 90.558594 141.746094 90.933594 141.523438 91.457031 C 141.296875 92.058594 141.746094 93.628906 141.671875 93.628906 C 141.597656 93.628906 140.847656 91.683594 140.996094 91.007812 C 141.222656 90.335938 141.820312 89.886719 142.644531 89.363281 C 144.21875 88.3125 148.933594 86.816406 150.730469 86.441406 C 151.554688 86.292969 152.378906 86.066406 152.605469 86.292969 C 152.753906 86.441406 152.53125 87.039062 152.53125 87.039062 " clip-rule="nonzero"/></clipPath><clipPath id="af628bc712"><path d="M 148.761719 95.179688 L 169.339844 95.179688 L 169.339844 98.785156 L 148.761719 98.785156 Z M 148.761719 95.179688 " clip-rule="nonzero"/></clipPath><clipPath id="f84ca4c095"><path d="M 149.085938 97.449219 C 164.433594 96.699219 168.328125 94.828125 169.003906 95.277344 C 169.226562 95.425781 169.152344 96.027344 169.152344 96.027344 C 169.152344 96.027344 169.078125 95.277344 169.078125 95.277344 C 169.078125 95.277344 169.378906 95.726562 169.300781 95.875 C 169.078125 96.324219 167.804688 96.699219 166.832031 97 C 165.410156 97.375 163.6875 97.597656 161.664062 97.824219 C 158.746094 98.199219 153.128906 98.945312 150.957031 98.722656 C 149.910156 98.648438 148.933594 98.421875 148.785156 98.125 C 148.710938 97.972656 149.085938 97.449219 149.085938 97.449219 " clip-rule="nonzero"/></clipPath><clipPath id="3130f2cfec"><path d="M 167.988281 92.109375 L 170.148438 92.109375 L 170.148438 95.585938 L 167.988281 95.585938 Z M 167.988281 92.109375 " clip-rule="nonzero"/></clipPath><clipPath id="13c32dfed2"><path d="M 169.226562 92.433594 C 169.078125 95.128906 170.199219 95.503906 170.125 95.578125 C 170.125 95.578125 168.402344 95.203125 168.105469 94.679688 C 167.804688 94.15625 168.179688 92.359375 168.554688 92.132812 C 168.703125 92.058594 169.226562 92.433594 169.226562 92.433594 " clip-rule="nonzero"/></clipPath><clipPath id="c681e80adf"><path d="M 165 83.546875 L 245.804688 83.546875 L 245.804688 119.910156 L 165 119.910156 Z M 165 83.546875 " clip-rule="nonzero"/></clipPath><clipPath id="d1b1362e16"><path d="M 165.035156 98.796875 C 189.21875 86.515625 191.839844 85.019531 196.484375 84.269531 C 203.148438 83.222656 215.277344 83.445312 221.269531 84.792969 C 225.011719 85.617188 228.234375 87.039062 229.804688 88.761719 C 230.851562 89.8125 230.402344 90.933594 231.226562 92.507812 C 233.175781 96.175781 240.738281 105.011719 242.910156 108.757812 C 243.957031 110.554688 244.332031 111.453125 244.78125 113.023438 C 245.378906 114.972656 245.902344 119.761719 245.753906 119.839844 C 245.679688 119.839844 244.78125 114.746094 243.957031 112.574219 C 243.285156 110.554688 242.609375 109.28125 241.261719 107.109375 C 239.015625 103.441406 232.574219 96.324219 230.703125 92.957031 C 229.804688 91.382812 230.253906 90.261719 229.207031 89.136719 C 227.707031 87.566406 224.714844 86.367188 221.269531 85.542969 C 215.429688 84.195312 203.148438 83.972656 196.558594 85.019531 C 191.992188 85.769531 189.445312 87.191406 185.175781 89.0625 C 179.410156 91.609375 166.90625 99.921875 165.332031 99.472656 C 165.109375 99.394531 165.035156 98.796875 165.035156 98.796875 " clip-rule="nonzero"/></clipPath><clipPath id="dd8413527d"><path d="M 164.484375 99 L 166.984375 99 L 166.984375 102.261719 L 164.484375 102.261719 Z M 164.484375 99 " clip-rule="nonzero"/></clipPath><clipPath id="88ff3d5990"><path d="M 165.109375 99.023438 C 166.980469 101.941406 166.382812 102.089844 166.382812 102.089844 C 166.382812 102.089844 166.980469 101.640625 166.980469 101.71875 C 166.980469 101.71875 166.757812 102.242188 166.605469 102.242188 C 166.15625 102.242188 164.433594 99.996094 164.511719 99.472656 C 164.511719 99.246094 165.109375 99.023438 165.109375 99.023438 " clip-rule="nonzero"/></clipPath><clipPath id="c42715a903"><path d="M 164.839844 91.640625 L 178.640625 91.640625 L 178.640625 101.160156 L 164.839844 101.160156 Z M 164.839844 91.640625 " clip-rule="nonzero"/></clipPath><clipPath id="2f960304ff"><path d="M 165.410156 99.546875 C 168.480469 100.59375 171.625 100.445312 173.269531 99.621094 C 174.84375 98.871094 175.964844 97.074219 176.863281 95.726562 C 177.6875 94.453125 178.511719 91.609375 178.585938 91.683594 C 178.738281 91.683594 178.363281 94.453125 177.6875 95.800781 C 176.863281 97.375 175.367188 99.394531 173.644531 100.292969 C 171.847656 101.191406 168.402344 101.269531 166.832031 101.042969 C 166.007812 100.894531 164.960938 100.371094 164.882812 100.070312 C 164.882812 99.921875 165.410156 99.546875 165.410156 99.546875 " clip-rule="nonzero"/></clipPath><clipPath id="fbaef34e88"><path d="M 178.171875 95.175781 L 194.921875 95.175781 L 194.921875 104.753906 L 178.171875 104.753906 Z M 178.171875 95.175781 " clip-rule="nonzero"/></clipPath><clipPath id="155c4d31d9"><path d="M 194.910156 95.351562 C 194.6875 98.273438 194.085938 98.945312 193.1875 99.621094 C 191.765625 100.667969 189.21875 101.566406 186.898438 102.390625 C 184.277344 103.289062 178.289062 104.863281 178.214844 104.710938 C 178.136719 104.488281 190.269531 100.59375 192.589844 99.023438 C 193.488281 98.421875 193.9375 98.046875 194.238281 97.449219 C 194.460938 96.773438 193.9375 95.503906 194.238281 95.277344 C 194.386719 95.128906 194.910156 95.351562 194.910156 95.351562 " clip-rule="nonzero"/></clipPath><clipPath id="20cf712afd"><path d="M 193.761719 93.828125 L 218.3125 93.828125 L 218.3125 101.074219 L 193.761719 101.074219 Z M 193.761719 93.828125 " clip-rule="nonzero"/></clipPath><clipPath id="582937e901"><path d="M 194.238281 99.023438 C 199.703125 100.519531 208.6875 100.371094 211.984375 99.546875 C 213.707031 99.171875 214.679688 98.722656 215.652344 97.824219 C 216.777344 96.851562 218.125 93.78125 218.273438 93.855469 C 218.421875 93.929688 217.523438 97 216.550781 98.046875 C 215.503906 99.171875 214.15625 99.769531 212.207031 100.292969 C 208.6875 101.191406 199.480469 101.269531 196.484375 100.742188 C 195.136719 100.519531 193.9375 99.996094 193.789062 99.621094 C 193.714844 99.394531 194.238281 99.023438 194.238281 99.023438 " clip-rule="nonzero"/></clipPath><clipPath id="f47415e32f"><path d="M 213.261719 99 L 219.59375 99 L 219.59375 113.054688 L 213.261719 113.054688 Z M 213.261719 99 " clip-rule="nonzero"/></clipPath><clipPath id="3fd68682e4"><path d="M 214.230469 99.320312 C 215.054688 105.460938 218.273438 109.804688 219.023438 111.453125 C 219.320312 112.050781 219.621094 112.5 219.546875 112.726562 C 219.472656 112.875 218.796875 112.875 218.796875 112.875 C 218.796875 112.875 219.472656 112.726562 219.546875 112.726562 C 219.546875 112.726562 219.246094 113.097656 219.023438 113.023438 C 218.050781 112.800781 214.605469 105.984375 213.78125 103.589844 C 213.332031 102.242188 213.257812 101.191406 213.332031 100.371094 C 213.332031 99.84375 213.332031 99.171875 213.554688 99.023438 C 213.707031 98.945312 214.230469 99.320312 214.230469 99.320312 " clip-rule="nonzero"/></clipPath><clipPath id="ae7552f26f"><path d="M 187.257812 102.601562 L 200.652344 102.601562 L 200.652344 106.335938 L 187.257812 106.335938 Z M 187.257812 102.601562 " clip-rule="nonzero"/></clipPath><clipPath id="1da13fa091"><path d="M 187.722656 102.617188 C 196.78125 105.609375 197.457031 105.609375 198.132812 105.386719 C 198.953125 105.160156 199.929688 103.8125 200.300781 103.890625 C 200.527344 103.964844 200.675781 104.5625 200.601562 104.5625 C 200.601562 104.636719 200.078125 104.339844 200.078125 104.1875 C 200.078125 104.113281 200.601562 103.890625 200.601562 103.964844 C 200.675781 104.039062 199.402344 105.609375 198.65625 105.984375 C 197.832031 106.359375 197.007812 106.359375 195.882812 106.285156 C 194.011719 106.058594 189.96875 104.414062 188.546875 103.8125 C 187.949219 103.589844 187.347656 103.441406 187.273438 103.214844 C 187.273438 103.066406 187.722656 102.617188 187.722656 102.617188 " clip-rule="nonzero"/></clipPath><clipPath id="a2085ec347"><path d="M 196.480469 106.285156 L 200.3125 106.285156 L 200.3125 109.242188 L 196.480469 109.242188 Z M 196.480469 106.285156 " clip-rule="nonzero"/></clipPath><clipPath id="22645da266"><path d="M 196.933594 106.285156 C 200.378906 108.832031 199.929688 109.207031 199.929688 109.207031 C 199.929688 109.207031 200.300781 108.53125 200.300781 108.53125 C 200.300781 108.53125 200.152344 109.128906 199.929688 109.207031 C 199.402344 109.355469 196.632812 107.484375 196.484375 106.957031 C 196.484375 106.660156 196.933594 106.285156 196.933594 106.285156 " clip-rule="nonzero"/></clipPath><clipPath id="26c11b2893"><path d="M 203.554688 115.304688 L 214.367188 115.304688 L 214.367188 124.523438 L 203.554688 124.523438 Z M 203.554688 115.304688 " clip-rule="nonzero"/></clipPath><clipPath id="f5f7c3f68c"><path d="M 204.121094 115.34375 C 206.742188 117.742188 206.742188 119.164062 207.714844 120.210938 C 209.0625 121.636719 214.230469 123.207031 214.304688 123.882812 C 214.378906 124.105469 213.855469 124.40625 213.855469 124.40625 C 213.78125 124.40625 214.230469 123.808594 214.230469 123.808594 C 214.230469 123.808594 214.230469 124.40625 214.003906 124.480469 C 213.257812 124.707031 208.464844 122.085938 207.191406 120.738281 C 206.367188 119.839844 206.515625 118.789062 205.917969 117.964844 C 205.320312 117.140625 203.597656 116.320312 203.597656 115.792969 C 203.597656 115.570312 204.121094 115.34375 204.121094 115.34375 " clip-rule="nonzero"/></clipPath><clipPath id="ae25994d76"><path d="M 162.613281 104.011719 L 178.472656 104.011719 L 178.472656 121.65625 L 162.613281 121.65625 Z M 162.613281 104.011719 " clip-rule="nonzero"/></clipPath><clipPath id="080fda231e"><path d="M 169.378906 105.835938 C 168.253906 104.636719 167.878906 104.789062 167.503906 104.9375 C 166.605469 105.386719 164.585938 106.734375 163.910156 107.859375 C 163.386719 108.757812 163.3125 109.878906 163.386719 111.003906 C 163.460938 112.351562 163.761719 113.847656 164.585938 115.195312 C 165.707031 116.992188 168.480469 119.539062 170.277344 120.363281 C 171.472656 120.886719 172.746094 120.886719 173.71875 120.8125 C 174.542969 120.660156 175.21875 120.511719 175.816406 119.914062 C 176.640625 119.089844 177.390625 117.21875 177.613281 115.945312 C 177.765625 114.746094 177.613281 113.699219 177.089844 112.5 C 176.339844 110.703125 174.09375 107.859375 172.597656 106.660156 C 171.625 105.910156 170.726562 105.609375 169.75 105.386719 C 168.851562 105.238281 167.28125 105.835938 167.054688 105.535156 C 166.90625 105.386719 167.207031 104.789062 167.28125 104.789062 C 167.355469 104.789062 167.503906 105.386719 167.429688 105.460938 C 167.355469 105.535156 166.832031 105.386719 166.832031 105.3125 C 166.832031 105.160156 168.851562 104.636719 169.675781 104.636719 C 170.5 104.710938 171.175781 105.011719 171.847656 105.460938 C 172.820312 105.910156 173.796875 106.660156 174.769531 107.632812 C 175.890625 108.90625 177.539062 111.078125 178.0625 112.648438 C 178.4375 113.773438 178.511719 114.746094 178.363281 115.871094 C 178.214844 117.140625 177.6875 118.789062 176.863281 119.761719 C 176.117188 120.660156 174.84375 121.335938 173.71875 121.484375 C 172.523438 121.710938 171.097656 121.558594 169.75 120.886719 C 167.953125 120.0625 165.332031 117.515625 164.285156 116.019531 C 163.613281 115.121094 163.460938 114.445312 163.164062 113.472656 C 162.863281 112.425781 162.5625 111.078125 162.636719 109.878906 C 162.789062 108.832031 163.011719 107.707031 163.6875 106.808594 C 164.660156 105.6875 167.207031 104.113281 168.328125 104.039062 C 169.003906 104.039062 169.601562 104.488281 169.828125 104.863281 C 170.050781 105.160156 170.199219 105.761719 170.125 105.910156 C 169.976562 105.984375 169.378906 105.835938 169.378906 105.835938 " clip-rule="nonzero"/></clipPath><clipPath id="6d55fbabd8"><path d="M 169.71875 105 L 214.703125 105 L 214.703125 138.808594 L 169.71875 138.808594 Z M 169.71875 105 " clip-rule="nonzero"/></clipPath><clipPath id="6156b7e5e7"><path d="M 169.902344 105.160156 C 175.144531 104.9375 175.59375 105.011719 176.492188 105.535156 C 178.4375 106.585938 182.179688 110.027344 184.578125 112.648438 C 186.972656 115.269531 189.820312 118.640625 191.015625 121.261719 C 191.839844 123.058594 192.664062 125.378906 192.140625 126.351562 C 191.839844 127.027344 189.894531 127.324219 189.894531 127.25 C 189.820312 127.175781 190.417969 126.652344 190.867188 126.503906 C 191.765625 126.203125 193.636719 126.277344 194.984375 126.800781 C 196.558594 127.476562 197.605469 129.347656 199.402344 130.621094 C 202.023438 132.492188 206.667969 135.261719 209.136719 136.535156 C 210.5625 137.285156 211.683594 137.960938 212.65625 138.035156 C 213.332031 138.035156 214.15625 137.285156 214.378906 137.507812 C 214.53125 137.585938 214.453125 138.183594 214.453125 138.183594 C 214.53125 138.183594 214.679688 137.585938 214.605469 137.585938 C 214.453125 137.433594 213.632812 138.632812 212.957031 138.78125 C 212.132812 138.933594 211.234375 138.410156 209.886719 137.808594 C 207.339844 136.609375 201.726562 133.242188 198.953125 131.21875 C 197.082031 129.871094 196.183594 128 194.535156 127.402344 C 193.113281 126.800781 190.042969 127.699219 189.894531 127.25 C 189.746094 126.953125 191.167969 126.578125 191.390625 125.976562 C 191.691406 125.078125 191.167969 123.507812 190.492188 122.007812 C 189.371094 119.613281 186.597656 116.019531 184.277344 113.398438 C 181.882812 110.777344 178.136719 107.332031 176.265625 106.210938 C 175.441406 105.761719 175.066406 105.6875 174.246094 105.535156 C 173.121094 105.386719 170.425781 106.285156 169.976562 105.910156 C 169.75 105.761719 169.902344 105.160156 169.902344 105.160156 " clip-rule="nonzero"/></clipPath><clipPath id="a7ed3668aa"><path d="M 208.882812 129.867188 L 220.304688 129.867188 L 220.304688 136.589844 L 208.882812 136.589844 Z M 208.882812 129.867188 " clip-rule="nonzero"/></clipPath><clipPath id="40902248b3"><path d="M 208.914062 135.863281 C 216.476562 130.546875 219.320312 129.648438 219.996094 129.945312 C 220.21875 130.097656 220.296875 130.621094 220.296875 130.621094 C 220.296875 130.621094 219.996094 129.945312 219.921875 129.945312 C 219.921875 129.945312 220.371094 130.472656 220.21875 130.695312 C 219.921875 131.292969 216.328125 131.292969 214.679688 132.191406 C 213.03125 133.09375 211.460938 135.414062 210.335938 136.085938 C 209.8125 136.386719 209.214844 136.6875 208.988281 136.535156 C 208.839844 136.460938 208.914062 135.863281 208.914062 135.863281 " clip-rule="nonzero"/></clipPath><clipPath id="39da4d86c6"><path d="M 187.152344 114.941406 L 190.925781 114.941406 L 190.925781 116.796875 L 187.152344 116.796875 Z M 187.152344 114.941406 " clip-rule="nonzero"/></clipPath><clipPath id="a0fb7bd495"><path d="M 187.347656 116.019531 C 190.867188 115.046875 190.71875 115.644531 190.792969 115.644531 C 190.792969 115.644531 191.015625 115.046875 190.867188 114.972656 C 190.71875 114.820312 189.21875 116.320312 188.546875 116.617188 C 188.097656 116.769531 187.347656 116.84375 187.199219 116.691406 C 187.125 116.542969 187.347656 116.019531 187.347656 116.019531 " clip-rule="nonzero"/></clipPath><clipPath id="dfb781ff85"><path d="M 188.5 115 L 203.570312 115 L 203.570312 129.988281 L 188.5 129.988281 Z M 188.5 115 " clip-rule="nonzero"/></clipPath><clipPath id="7a2a6809d9"><path d="M 189.144531 115.046875 C 194.613281 123.433594 197.082031 126.652344 198.730469 127.925781 C 199.703125 128.675781 200.527344 129.199219 201.351562 129.199219 C 202.097656 129.199219 203.449219 128.226562 203.523438 128.300781 C 203.523438 128.375 202.097656 129.871094 201.277344 129.945312 C 200.152344 129.945312 198.730469 128.824219 197.457031 127.699219 C 195.734375 126.203125 193.636719 123.359375 192.140625 121.261719 C 190.71875 119.3125 188.398438 116.320312 188.546875 115.496094 C 188.621094 115.195312 189.144531 115.046875 189.144531 115.046875 " clip-rule="nonzero"/></clipPath><clipPath id="c1ef6388c8"><path d="M 154.039062 115.292969 L 170.402344 115.292969 L 170.402344 139.96875 L 154.039062 139.96875 Z M 154.039062 115.292969 " clip-rule="nonzero"/></clipPath><clipPath id="5261765083"><path d="M 163.613281 115.945312 C 155.449219 133.242188 154.402344 136.460938 154.925781 137.808594 C 155.148438 138.558594 155.824219 139.007812 156.496094 139.082031 C 157.320312 139.230469 158.371094 138.859375 159.566406 138.109375 C 161.8125 136.761719 166.082031 132.269531 167.730469 129.945312 C 168.777344 128.597656 169.078125 126.425781 169.601562 126.277344 C 169.828125 126.203125 170.199219 126.726562 170.277344 126.726562 C 170.277344 126.652344 169.828125 126.128906 169.828125 126.128906 C 169.828125 126.128906 170.277344 126.351562 170.351562 126.578125 C 170.425781 127.25 169.226562 129.199219 168.328125 130.472656 C 167.28125 131.96875 165.78125 133.316406 164.210938 134.738281 C 162.488281 136.386719 159.867188 138.933594 158.296875 139.605469 C 157.398438 139.980469 156.648438 140.054688 155.972656 139.832031 C 155.226562 139.53125 154.402344 138.859375 154.175781 137.882812 C 153.726562 136.238281 154.777344 133.09375 155.675781 130.246094 C 156.871094 126.503906 159.941406 119.914062 161.441406 117.515625 C 162.113281 116.394531 162.789062 115.34375 163.164062 115.34375 C 163.386719 115.34375 163.613281 115.945312 163.613281 115.945312 " clip-rule="nonzero"/></clipPath><clipPath id="0f1c6535d8"><path d="M 154.074219 124.378906 L 161.050781 124.378906 L 161.050781 139.0625 L 154.074219 139.0625 Z M 154.074219 124.378906 " clip-rule="nonzero"/></clipPath><clipPath id="7256b0c473"><path d="M 160.09375 124.40625 C 161.441406 128.898438 161.066406 130.621094 160.464844 132.042969 C 159.792969 133.464844 158.667969 135.039062 157.546875 136.238281 C 156.496094 137.359375 154.175781 139.15625 154.101562 139.007812 C 153.878906 138.78125 158.746094 133.992188 159.71875 131.894531 C 160.390625 130.621094 160.617188 129.496094 160.617188 128.300781 C 160.542969 127.101562 159.269531 125.15625 159.492188 124.628906 C 159.566406 124.40625 160.09375 124.40625 160.09375 124.40625 " clip-rule="nonzero"/></clipPath><clipPath id="4d54049132"><path d="M 164 129.933594 L 175.902344 129.933594 L 175.902344 142.617188 L 164 142.617188 Z M 164 129.933594 " clip-rule="nonzero"/></clipPath><clipPath id="c69b51c8b0"><path d="M 168.328125 130.246094 C 165.035156 139.230469 164.734375 140.355469 165.183594 140.953125 C 165.558594 141.554688 166.679688 141.777344 167.503906 141.851562 C 168.402344 141.925781 169.453125 141.554688 170.425781 141.179688 C 171.472656 140.804688 172.671875 140.128906 173.421875 139.308594 C 174.246094 138.632812 174.695312 136.761719 175.21875 136.6875 C 175.441406 136.609375 175.816406 136.984375 175.816406 136.984375 C 175.816406 137.058594 175.144531 136.6875 175.144531 136.6875 C 175.144531 136.6875 175.742188 136.835938 175.816406 137.058594 C 175.964844 137.507812 175.066406 138.78125 174.320312 139.53125 C 173.496094 140.355469 172.148438 141.253906 170.949219 141.777344 C 169.828125 142.300781 168.554688 142.675781 167.503906 142.601562 C 166.53125 142.527344 165.484375 142.078125 164.882812 141.628906 C 164.511719 141.253906 164.210938 140.953125 164.0625 140.429688 C 163.910156 139.832031 164.210938 139.007812 164.511719 137.960938 C 165.035156 136.085938 166.757812 130.320312 167.582031 129.945312 C 167.878906 129.871094 168.328125 130.246094 168.328125 130.246094 " clip-rule="nonzero"/></clipPath><clipPath id="b05e526525"><path d="M 165.316406 129.59375 L 169.394531 129.59375 L 169.394531 141.429688 L 165.316406 141.429688 Z M 165.316406 129.59375 " clip-rule="nonzero"/></clipPath><clipPath id="c524aeb262"><path d="M 169.378906 129.722656 C 168.253906 139.082031 167.429688 140.429688 166.679688 140.878906 C 166.230469 141.179688 165.332031 141.179688 165.332031 141.253906 C 165.332031 141.328125 166.007812 141.402344 166.007812 141.402344 C 166.082031 141.328125 165.484375 141.179688 165.410156 140.953125 C 165.332031 140.355469 167.582031 138.859375 168.105469 137.285156 C 168.851562 135.261719 168.03125 130.246094 168.703125 129.648438 C 168.851562 129.496094 169.378906 129.722656 169.378906 129.722656 " clip-rule="nonzero"/></clipPath><clipPath id="a50c2fa1ca"><path d="M 111.949219 129.867188 L 116.308594 129.867188 L 116.308594 173.230469 L 111.949219 173.230469 Z M 111.949219 129.867188 " clip-rule="nonzero"/></clipPath><clipPath id="68ce27e450"><path d="M 115.613281 131.144531 C 116.738281 153.910156 115.914062 155.78125 115.761719 158.699219 C 115.613281 162.070312 116.664062 167.3125 116.136719 169.859375 C 115.839844 171.28125 115.390625 172.703125 114.714844 173.078125 C 114.191406 173.300781 113.144531 172.925781 112.695312 172.554688 C 112.394531 172.179688 112.246094 171.28125 112.394531 170.757812 C 112.542969 170.308594 113.144531 169.78125 113.59375 169.632812 C 114.042969 169.484375 114.863281 169.632812 115.238281 170.007812 C 115.613281 170.308594 115.914062 171.054688 115.914062 171.578125 C 115.839844 172.027344 115.390625 172.703125 114.941406 172.925781 C 114.492188 173.226562 113.667969 173.226562 113.21875 172.925781 C 112.769531 172.703125 112.246094 172.027344 112.246094 171.578125 C 112.320312 170.90625 113.367188 169.558594 113.964844 169.558594 C 114.566406 169.558594 115.761719 170.757812 115.914062 171.355469 C 115.988281 171.878906 115.464844 172.554688 115.089844 172.851562 C 114.789062 173.078125 114.265625 173.300781 113.890625 173.152344 C 113.292969 173.003906 112.617188 172.402344 112.246094 171.355469 C 111.195312 168.285156 113.367188 157.425781 113.441406 150.613281 C 113.441406 144.023438 111.421875 133.914062 112.542969 131.21875 C 112.917969 130.394531 113.515625 129.871094 114.042969 129.871094 C 114.566406 129.796875 115.613281 131.144531 115.613281 131.144531 " clip-rule="nonzero"/></clipPath><clipPath id="82ed169c04"><path d="M 103.640625 68.726562 L 113.1875 68.726562 L 113.1875 107.726562 L 103.640625 107.726562 Z M 103.640625 68.726562 " clip-rule="nonzero"/></clipPath><clipPath id="62a7eb0bc7"><path d="M 108.125 70.289062 C 108.648438 99.804688 110.074219 104.164062 111.195312 104.851562 C 111.644531 105.15625 112.320312 104.390625 112.617188 104.621094 C 112.917969 104.773438 113.144531 105.308594 113.144531 105.769531 C 113.144531 106.226562 112.917969 106.992188 112.542969 107.296875 C 112.09375 107.605469 111.046875 107.757812 110.523438 107.527344 C 110.074219 107.222656 109.546875 106.457031 109.625 105.921875 C 109.625 105.308594 110.371094 104.316406 110.972656 104.164062 C 111.421875 104.007812 112.246094 104.164062 112.542969 104.546875 C 112.992188 104.925781 113.21875 106.152344 112.992188 106.6875 C 112.769531 107.222656 111.644531 107.757812 111.121094 107.679688 C 110.597656 107.679688 109.996094 107.144531 109.773438 106.6875 C 109.546875 106.226562 109.625 105.386719 109.847656 104.925781 C 110.222656 104.46875 111.34375 104.085938 111.871094 104.164062 C 112.394531 104.238281 113.066406 105.386719 113.066406 105.386719 C 113.144531 105.308594 112.617188 104.546875 112.617188 104.621094 C 112.542969 104.621094 113.21875 105.691406 113.144531 106.152344 C 113.144531 106.609375 112.84375 107.070312 112.542969 107.296875 C 112.167969 107.605469 111.496094 107.679688 110.894531 107.679688 C 110.148438 107.605469 109.097656 107.449219 108.277344 106.609375 C 106.628906 104.851562 104.980469 100.035156 104.308594 95.445312 C 103.257812 88.714844 103.484375 72.886719 105.054688 69.90625 C 105.503906 69.066406 106.253906 68.683594 106.777344 68.757812 C 107.226562 68.757812 108.125 70.289062 108.125 70.289062 " clip-rule="nonzero"/></clipPath><clipPath id="cd0ebc551a"><path d="M 113.507812 105.75 L 117.304688 105.75 L 117.304688 109.214844 L 113.507812 109.214844 Z M 113.507812 105.75 " clip-rule="nonzero"/></clipPath><clipPath id="b3da3ee6b9"><path d="M 113.890625 105.761719 C 117.5625 108.832031 117.410156 109.128906 117.1875 109.207031 C 116.585938 109.28125 113.667969 107.035156 113.515625 106.433594 C 113.515625 106.136719 113.890625 105.761719 113.890625 105.761719 " clip-rule="nonzero"/></clipPath><clipPath id="770916d4c2"><path d="M 108.484375 42.398438 L 131.277344 42.398438 L 131.277344 91.894531 L 108.484375 91.894531 Z M 108.484375 42.398438 " clip-rule="nonzero"/></clipPath><clipPath id="3daf963b5c"><path d="M 109.175781 45.558594 C 115.613281 42.414062 116.136719 42.261719 116.8125 42.488281 C 117.785156 42.710938 118.910156 43.3125 119.808594 44.359375 C 121.230469 46.007812 122.429688 49.675781 123.25 52.671875 C 124.074219 55.816406 123.625 58.660156 124.375 62.855469 C 125.648438 69.667969 131.636719 85.84375 131.113281 89.660156 C 130.964844 90.785156 130.441406 91.457031 129.914062 91.757812 C 129.464844 91.984375 128.71875 91.757812 128.269531 91.457031 C 127.96875 91.234375 127.667969 90.785156 127.59375 90.410156 C 127.59375 89.886719 127.894531 88.988281 128.269531 88.613281 C 128.644531 88.3125 129.464844 88.164062 129.914062 88.390625 C 130.441406 88.613281 131.113281 89.585938 131.1875 90.109375 C 131.1875 90.636719 130.738281 91.308594 130.289062 91.609375 C 129.914062 91.832031 129.09375 91.90625 128.644531 91.683594 C 128.195312 91.457031 127.667969 90.859375 127.59375 90.335938 C 127.59375 89.8125 128.117188 88.6875 128.644531 88.464844 C 129.015625 88.164062 129.839844 88.238281 130.289062 88.539062 C 130.738281 88.761719 131.113281 89.4375 131.1875 89.960938 C 131.1875 90.484375 130.8125 91.308594 130.289062 91.535156 C 129.839844 91.832031 128.792969 91.832031 128.269531 91.457031 C 127.667969 91.007812 127.59375 90.1875 127.144531 88.761719 C 125.722656 84.570312 122.054688 69.667969 120.929688 63.15625 C 120.257812 59.261719 120.628906 56.488281 119.957031 53.644531 C 119.359375 51.097656 118.234375 48.105469 117.410156 46.757812 C 116.960938 46.082031 116.8125 45.558594 116.210938 45.484375 C 114.941406 45.183594 111.121094 48.554688 109.847656 48.402344 C 109.175781 48.253906 108.648438 47.65625 108.574219 47.207031 C 108.425781 46.757812 109.175781 45.558594 109.175781 45.558594 " clip-rule="nonzero"/></clipPath><clipPath id="86ed685867"><path d="M 128.429688 96.527344 L 147.296875 96.527344 L 147.296875 110.875 L 128.429688 110.875 Z M 128.429688 96.527344 " clip-rule="nonzero"/></clipPath><clipPath id="282e9988de"><path d="M 131.339844 97.5625 C 133.660156 104.449219 134.035156 105.199219 134.933594 105.796875 C 136.128906 106.621094 138.976562 107.296875 140.25 107.296875 C 140.921875 107.296875 141.222656 107.296875 141.746094 106.921875 C 142.796875 106.324219 143.992188 103.027344 145.042969 102.804688 C 145.714844 102.652344 146.761719 103.175781 146.988281 103.625 C 147.289062 104.152344 147.136719 105.347656 146.761719 105.796875 C 146.390625 106.171875 145.640625 106.398438 145.117188 106.246094 C 144.667969 106.171875 143.992188 105.722656 143.84375 105.199219 C 143.695312 104.601562 144.292969 103.027344 144.890625 102.878906 C 145.414062 102.652344 146.914062 103.328125 147.214844 104 C 147.511719 104.976562 145.863281 107.445312 144.890625 108.570312 C 144.144531 109.46875 143.167969 110.140625 142.347656 110.441406 C 141.746094 110.742188 141.296875 110.816406 140.546875 110.816406 C 138.976562 110.742188 135.53125 110.140625 133.734375 109.019531 C 132.238281 108.042969 131.113281 106.546875 130.289062 104.898438 C 129.316406 103.101562 128.269531 100.03125 128.492188 98.535156 C 128.566406 97.710938 129.09375 96.738281 129.617188 96.589844 C 130.066406 96.4375 131.339844 97.5625 131.339844 97.5625 " clip-rule="nonzero"/></clipPath><clipPath id="22cca15962"><path d="M 140.523438 91.957031 L 149.777344 91.957031 L 149.777344 98.847656 L 140.523438 98.847656 Z M 140.523438 91.957031 " clip-rule="nonzero"/></clipPath><clipPath id="31f084bfd4"><path d="M 140.546875 96.699219 C 143.167969 92.207031 143.769531 91.984375 144.441406 91.984375 C 145.414062 91.984375 146.988281 92.507812 147.886719 93.179688 C 148.710938 93.707031 149.460938 94.753906 149.683594 95.578125 C 149.757812 96.175781 149.609375 97.148438 149.234375 97.449219 C 148.785156 97.824219 147.664062 97.898438 147.214844 97.597656 C 146.761719 97.300781 146.464844 96.175781 146.613281 95.652344 C 146.6875 95.203125 147.289062 94.753906 147.738281 94.605469 C 148.1875 94.527344 148.933594 94.679688 149.234375 94.976562 C 149.609375 95.351562 149.910156 96.476562 149.609375 96.925781 C 149.382812 97.449219 148.113281 97.824219 147.363281 97.675781 C 146.464844 97.449219 145.492188 94.902344 144.742188 95.054688 C 144.066406 95.128906 143.84375 97.597656 143.246094 98.199219 C 142.796875 98.574219 142.347656 98.871094 141.898438 98.796875 C 141.523438 98.796875 140.921875 98.496094 140.699219 98.125 C 140.472656 97.75 140.546875 96.699219 140.546875 96.699219 " clip-rule="nonzero"/></clipPath><clipPath id="84505c0435"><path d="M 136.222656 93.941406 L 145.097656 93.941406 L 145.097656 108.40625 L 136.222656 108.40625 Z M 136.222656 93.941406 " clip-rule="nonzero"/></clipPath><clipPath id="9ab145db9d"><path d="M 145.042969 95.875 C 138.527344 108.308594 137.703125 108.457031 137.253906 108.230469 C 136.730469 108.007812 136.128906 106.882812 136.28125 106.359375 C 136.429688 105.835938 137.777344 105.011719 138.378906 105.011719 C 138.828125 105.085938 139.351562 105.6875 139.574219 106.058594 C 139.726562 106.507812 139.574219 107.257812 139.351562 107.632812 C 139.050781 108.007812 138.378906 108.382812 137.929688 108.382812 C 137.480469 108.382812 136.730469 108.082031 136.578125 107.632812 C 136.207031 106.882812 136.730469 105.535156 137.179688 104.113281 C 138.078125 101.640625 140.921875 95.351562 142.496094 94.304688 C 143.246094 93.855469 144.144531 93.929688 144.59375 94.230469 C 144.964844 94.527344 145.042969 95.875 145.042969 95.875 " clip-rule="nonzero"/></clipPath><clipPath id="b1f0e613da"><path d="M 135.503906 117.414062 L 141.578125 117.414062 L 141.578125 134.601562 L 135.503906 134.601562 Z M 135.503906 117.414062 " clip-rule="nonzero"/></clipPath><clipPath id="e16945e0ac"><path d="M 138.378906 118.679688 C 141.296875 133.832031 140.625 134.496094 140.023438 134.570312 C 139.5 134.640625 138.378906 133.832031 138.152344 133.316406 C 138.003906 132.875 138.226562 132.066406 138.601562 131.773438 C 139.050781 131.40625 140.175781 131.183594 140.625 131.480469 C 141.148438 131.699219 141.597656 132.804688 141.523438 133.316406 C 141.445312 133.757812 140.921875 134.421875 140.472656 134.496094 C 139.875 134.640625 138.378906 133.980469 138.226562 133.464844 C 138.003906 132.949219 138.828125 131.480469 139.425781 131.332031 C 139.949219 131.183594 141.371094 132.066406 141.523438 132.582031 C 141.671875 133.097656 140.996094 134.273438 140.472656 134.496094 C 139.949219 134.714844 138.976562 134.421875 138.300781 133.6875 C 136.804688 131.921875 135.457031 122.800781 135.53125 120.152344 C 135.53125 118.972656 135.679688 118.019531 136.128906 117.648438 C 136.429688 117.355469 137.179688 117.429688 137.554688 117.578125 C 137.929688 117.796875 138.378906 118.679688 138.378906 118.679688 " clip-rule="nonzero"/></clipPath><clipPath id="089a02a0da"><path d="M 122.445312 94.21875 L 138.839844 94.21875 L 138.839844 100.378906 L 122.445312 100.378906 Z M 122.445312 94.21875 " clip-rule="nonzero"/></clipPath><clipPath id="9158290256"><path d="M 122.726562 94.230469 C 131.039062 97.75 133.433594 97.675781 135.230469 98.199219 C 136.578125 98.574219 138.453125 99.171875 138.675781 99.621094 C 138.75 99.84375 138.378906 100.371094 138.378906 100.371094 C 138.378906 100.371094 138.601562 99.621094 138.675781 99.621094 C 138.675781 99.621094 138.902344 100.144531 138.75 100.21875 C 138.378906 100.59375 134.933594 98.648438 133.136719 98.199219 C 131.488281 97.824219 130.066406 98.046875 128.417969 97.597656 C 126.546875 97.074219 122.800781 95.652344 122.503906 94.976562 C 122.351562 94.679688 122.726562 94.230469 122.726562 94.230469 " clip-rule="nonzero"/></clipPath><clipPath id="b4bc36eaf5"><path d="M 142.265625 100.636719 L 164 100.636719 L 164 107.191406 L 142.265625 107.191406 Z M 142.265625 100.636719 " clip-rule="nonzero"/></clipPath><clipPath id="4221b45c46"><path d="M 142.496094 100.667969 C 154.625 104.5625 158.59375 104.636719 160.839844 105.238281 C 162.1875 105.535156 163.835938 105.984375 163.984375 106.433594 C 164.0625 106.585938 163.535156 107.035156 163.535156 107.035156 C 163.535156 107.035156 163.910156 106.359375 163.910156 106.359375 C 163.984375 106.359375 163.984375 106.882812 163.6875 107.035156 C 162.5625 107.707031 153.351562 105.160156 149.460938 104.039062 C 146.6875 103.214844 142.796875 102.167969 142.347656 101.417969 C 142.195312 101.117188 142.496094 100.667969 142.496094 100.667969 " clip-rule="nonzero"/></clipPath><clipPath id="1a2bb31953"><path d="M 182.023438 110.050781 L 268.335938 110.050781 L 268.335938 131.15625 L 182.023438 131.15625 Z M 182.023438 110.050781 " clip-rule="nonzero"/></clipPath><clipPath id="da7cb5b66e"><path d="M 182.257812 110.105469 C 202.921875 113.847656 205.09375 115.34375 207.414062 115.871094 C 209.4375 116.394531 211.011719 116.09375 213.105469 116.46875 C 215.800781 117.066406 217.972656 118.191406 222.167969 119.390625 C 231.300781 121.933594 261.480469 129.046875 266.421875 129.945312 C 267.46875 130.171875 268.144531 130.320312 268.21875 130.171875 C 268.292969 130.023438 267.394531 129.125 267.09375 129.125 C 266.945312 129.125 266.71875 129.722656 266.71875 129.722656 C 266.71875 129.722656 266.945312 129.125 267.09375 129.125 C 267.394531 129.125 268.519531 130.546875 268.21875 130.921875 C 266.796875 132.867188 219.171875 118.042969 210.785156 116.691406 C 208.539062 116.320312 207.941406 116.769531 206.367188 116.394531 C 204.347656 115.945312 202.546875 114.523438 199.703125 113.773438 C 195.285156 112.5 183.003906 111.976562 182.179688 110.777344 C 181.957031 110.554688 182.257812 110.105469 182.257812 110.105469 " clip-rule="nonzero"/></clipPath><clipPath id="a305950636"><path d="M 116.292969 90.175781 L 141.863281 90.175781 L 141.863281 97.800781 L 116.292969 97.800781 Z M 116.292969 90.175781 " clip-rule="nonzero"/></clipPath><clipPath id="96dfc8b66b"><path d="M 121.980469 95.054688 C 122.429688 97.75 121.828125 97.898438 121.304688 97.75 C 120.179688 97.449219 117.335938 95.128906 116.664062 93.707031 C 116.210938 92.808594 116.210938 91.382812 116.585938 90.859375 C 116.960938 90.410156 117.5625 90.335938 118.460938 90.261719 C 120.554688 90.035156 125.796875 90.933594 129.617188 91.757812 C 133.585938 92.65625 141.148438 94.378906 141.597656 95.351562 C 141.671875 95.578125 141.222656 96.027344 141.296875 96.027344 C 141.296875 96.027344 141.820312 95.652344 141.820312 95.578125 C 141.746094 95.351562 140.324219 95.875 139.199219 95.726562 C 136.65625 95.425781 131.039062 92.808594 127.296875 92.058594 C 124.226562 91.382812 120.105469 90.859375 118.460938 91.007812 C 117.785156 91.085938 117.261719 91.085938 117.113281 91.457031 C 116.8125 91.832031 117.113281 92.730469 117.484375 93.40625 C 118.011719 94.453125 119.808594 96.101562 120.855469 96.699219 C 121.527344 97.148438 122.578125 97.074219 122.652344 97.300781 C 122.652344 97.449219 122.351562 97.75 122.203125 97.75 C 121.828125 97.597656 121.003906 95.503906 121.230469 95.203125 C 121.304688 94.976562 121.980469 95.054688 121.980469 95.054688 " clip-rule="nonzero"/></clipPath><clipPath id="b93f11a4d3"><path d="M 146.613281 97.433594 L 271.476562 97.433594 L 271.476562 126.277344 L 146.613281 126.277344 Z M 146.613281 97.433594 " clip-rule="nonzero"/></clipPath><clipPath id="e2934c19b4"><path d="M 146.914062 97.449219 C 192.515625 107.035156 201.050781 110.777344 208.464844 112.425781 C 214.15625 113.625 217.375 113.175781 223.738281 114.371094 C 234.523438 116.394531 259.683594 123.882812 266.71875 125.003906 C 268.96875 125.378906 270.914062 124.929688 271.289062 125.378906 C 271.4375 125.527344 271.363281 125.976562 271.136719 126.128906 C 270.839844 126.277344 268.59375 125.378906 268.441406 124.929688 C 268.367188 124.78125 268.59375 124.40625 268.742188 124.332031 C 269.191406 124.179688 271.511719 125.753906 271.4375 126.054688 C 271.289062 126.351562 269.042969 126.128906 266.71875 125.753906 C 259.605469 124.707031 234.371094 117.140625 223.738281 115.121094 C 217.449219 113.921875 214.304688 114.371094 208.6875 113.175781 C 201.199219 111.601562 192.140625 107.632812 183.230469 105.460938 C 173.570312 103.066406 159.042969 101.042969 152.828125 99.695312 C 149.984375 99.097656 147.136719 98.871094 146.761719 98.199219 C 146.613281 97.972656 146.914062 97.449219 146.914062 97.449219 " clip-rule="nonzero"/></clipPath><clipPath id="c8e23f0a39"><path d="M 161.429688 100.433594 L 218.488281 100.433594 L 218.488281 113.632812 L 161.429688 113.632812 Z M 161.429688 100.433594 " clip-rule="nonzero"/></clipPath><clipPath id="5c645686c3"><path d="M 161.589844 100.445312 C 180.382812 104.039062 182.40625 105.160156 184.953125 105.6875 C 187.421875 106.210938 189.371094 105.984375 192.363281 106.585938 C 197.230469 107.484375 206.066406 110.554688 210.859375 111.601562 C 213.855469 112.199219 217.824219 112.125 218.347656 112.800781 C 218.5 113.023438 218.199219 113.472656 218.125 113.472656 C 218.125 113.472656 218.199219 112.800781 218.273438 112.800781 C 218.347656 112.726562 218.574219 113.25 218.421875 113.398438 C 218.199219 113.699219 217.074219 113.625 215.726562 113.472656 C 211.832031 112.949219 197.90625 108.382812 192.363281 107.332031 C 189.296875 106.734375 187.5 106.957031 185.101562 106.433594 C 182.632812 105.910156 180.609375 104.863281 177.613281 104.113281 C 173.269531 102.992188 162.339844 102.242188 161.515625 101.117188 C 161.289062 100.894531 161.589844 100.445312 161.589844 100.445312 " clip-rule="nonzero"/></clipPath><clipPath id="02351c6831"><path d="M 115 62 L 134 62 L 134 82 L 115 82 Z M 115 62 " clip-rule="nonzero"/></clipPath><clipPath id="42ff143f94"><path d="M 126.464844 58.136719 L 139.46875 74.585938 L 126.546875 84.800781 L 113.542969 68.351562 Z M 126.464844 58.136719 " clip-rule="nonzero"/></clipPath><clipPath id="09c59890be"><path d="M 139.425781 74.53125 L 126.421875 58.082031 L 113.5 68.296875 L 126.5 84.746094 Z M 139.425781 74.53125 " clip-rule="nonzero"/></clipPath><clipPath id="157fa08f7a"><path d="M 139.425781 74.53125 L 126.421875 58.082031 L 113.5 68.296875 L 126.5 84.746094 Z M 139.425781 74.53125 " clip-rule="nonzero"/></clipPath><clipPath id="c8acedb99b"><path d="M 119.207031 83.695312 L 126.25 83.695312 L 126.25 90.113281 L 119.207031 90.113281 Z M 119.207031 83.695312 " clip-rule="nonzero"/></clipPath><clipPath id="9200e13179"><path d="M 126.246094 84.496094 C 121.378906 87.339844 120.480469 89.886719 119.882812 90.035156 C 119.65625 90.035156 119.359375 89.511719 119.359375 89.511719 C 119.28125 89.585938 119.730469 90.109375 119.730469 90.109375 C 119.730469 90.109375 119.28125 89.886719 119.207031 89.660156 C 119.207031 89.0625 120.855469 86.816406 121.980469 85.84375 C 123.101562 84.871094 125.421875 83.597656 125.945312 83.746094 C 126.171875 83.894531 126.246094 84.496094 126.246094 84.496094 " clip-rule="nonzero"/></clipPath><clipPath id="341d658a1b"><path d="M 166.046875 118.15625 L 202.210938 118.15625 L 202.210938 161.714844 L 166.046875 161.714844 Z M 166.046875 118.15625 " clip-rule="nonzero"/></clipPath><clipPath id="8398ffa8bb"><path d="M 166.605469 118.191406 C 171.175781 123.65625 174.394531 134.066406 176.714844 138.410156 C 178.136719 141.179688 178.960938 143.125 180.757812 144.921875 C 182.707031 146.792969 185.851562 147.691406 187.949219 149.339844 C 189.820312 150.761719 190.941406 152.785156 192.816406 154.132812 C 194.761719 155.40625 197.90625 155.707031 199.480469 157.128906 C 200.828125 158.25 202.324219 160.648438 202.097656 161.246094 C 202.097656 161.472656 201.5 161.546875 201.5 161.546875 C 201.5 161.546875 202.097656 161.171875 202.097656 161.246094 C 202.175781 161.246094 201.800781 161.695312 201.574219 161.621094 C 200.902344 161.546875 200.078125 158.625 198.730469 157.503906 C 197.15625 156.15625 194.238281 155.929688 192.289062 154.65625 C 190.417969 153.382812 189.144531 151.136719 187.199219 149.714844 C 185.175781 148.144531 182.257812 147.46875 180.460938 145.671875 C 178.511719 143.800781 177.539062 141.628906 176.042969 138.632812 C 173.644531 134.214844 170.574219 124.105469 168.480469 121.035156 C 167.582031 119.761719 166.007812 119.164062 166.082031 118.640625 C 166.082031 118.414062 166.605469 118.191406 166.605469 118.191406 " clip-rule="nonzero"/></clipPath><clipPath id="f8de50cc15"><path d="M 130.050781 90.320312 L 131.800781 90.320312 L 131.800781 92.222656 L 130.050781 92.222656 Z M 130.050781 90.320312 " clip-rule="nonzero"/></clipPath><clipPath id="40f0455aab"><path d="M 131.789062 91.160156 C 131.789062 92.058594 130.738281 92.359375 130.441406 92.132812 C 130.140625 91.90625 130.066406 90.335938 130.066406 90.335938 " clip-rule="nonzero"/></clipPath><clipPath id="bc66b43809"><path d="M 120.917969 79.164062 L 124.683594 79.164062 L 124.683594 81.621094 L 120.917969 81.621094 Z M 120.917969 79.164062 " clip-rule="nonzero"/></clipPath><clipPath id="37f739c481"><path d="M 121.230469 79.179688 C 124.824219 81.125 124.523438 81.574219 124.523438 81.574219 C 124.523438 81.574219 124.675781 80.902344 124.675781 80.902344 C 124.675781 80.902344 124.675781 81.5 124.449219 81.574219 C 124.148438 81.722656 123.25 81.199219 122.652344 80.902344 C 122.054688 80.601562 121.078125 80.226562 120.929688 79.851562 C 120.855469 79.628906 121.230469 79.179688 121.230469 79.179688 " clip-rule="nonzero"/></clipPath></defs><g clip-path="url(#7a11282998)"><g clip-path="url(#ae46e4518e)"><path fill="#000000" d="M 32.273438 43.3125 L 118.867188 43.3125 L 118.867188 100.59375 L 32.273438 100.59375 Z M 32.273438 43.3125 " fill-opacity="1" fill-rule="nonzero"/></g></g><g clip-path="url(#613129978e)"><g clip-path="url(#fed946d7c8)"><path fill="#000000" d="M 117.035156 37.171875 L 154.464844 37.171875 L 154.464844 48.925781 L 117.035156 48.925781 Z M 117.035156 37.171875 " fill-opacity="1" fill-rule="nonzero"/></g></g><g clip-path="url(#d0c491f481)"><g clip-path="url(#98da5ff0f7)"><path fill="#000000" d="M 120.929688 37.023438 L 154.289062 37.023438 L 154.289062 61.28125 L 120.929688 61.28125 Z M 120.929688 37.023438 " fill-opacity="1" fill-rule="nonzero"/></g></g><g clip-path="url(#a4830e4e90)"><g clip-path="url(#6f48b9a0ba)"><path fill="#000000" d="M 96.746094 58.136719 L 122.523438 58.136719 L 122.523438 72.738281 L 96.746094 72.738281 Z M 96.746094 58.136719 " fill-opacity="1" fill-rule="nonzero"/></g></g><g clip-path="url(#df0cb6e856)"><g clip-path="url(#ba757dc39d)"><path fill="#000000" d="M 79.894531 66.972656 L 104.238281 66.972656 L 104.238281 88.390625 L 79.894531 88.390625 Z M 79.894531 66.972656 " fill-opacity="1" fill-rule="nonzero"/></g></g><g clip-path="url(#7c50cd9c4b)"><g clip-path="url(#244c820f50)"><path fill="#000000" d="M 75.554688 81.273438 L 90.378906 81.273438 L 90.378906 100.734375 L 75.554688 100.734375 Z M 75.554688 81.273438 " fill-opacity="1" fill-rule="nonzero"/></g></g><g clip-path="url(#7bbd23daa5)"><g clip-path="url(#11d6580c0c)"><path fill="#000000" d="M 94.421875 70.792969 L 108.210938 70.792969 L 108.210938 78.65625 L 94.421875 78.65625 Z M 94.421875 70.792969 " fill-opacity="1" fill-rule="nonzero"/></g></g><g clip-path="url(#cca52761fd)"><g clip-path="url(#8083ff05b2)"><path fill="#000000" d="M 105.28125 70.792969 L 124.84375 70.792969 L 124.84375 82.546875 L 105.28125 82.546875 Z M 105.28125 70.792969 " fill-opacity="1" fill-rule="nonzero"/></g></g><g clip-path="url(#4a22fe19d3)"><g clip-path="url(#ab5cb3abd8)"><path fill="#000000" d="M 119.132812 76.632812 L 127.359375 76.632812 L 127.359375 84.34375 L 119.132812 84.34375 Z M 119.132812 76.632812 " fill-opacity="1" fill-rule="nonzero"/></g></g><g clip-path="url(#60a57deec4)"><g clip-path="url(#d9bc35fafe)"><path fill="#000000" d="M 127.296875 80.226562 L 144.761719 80.226562 L 144.761719 94.605469 L 127.296875 94.605469 Z M 127.296875 80.226562 " fill-opacity="1" fill-rule="nonzero"/></g></g><g clip-path="url(#9113d62d37)"><g clip-path="url(#1442b9db63)"><path fill="#000000" d="M 81.246094 88.164062 L 106.910156 88.164062 L 106.910156 102.542969 L 81.246094 102.542969 Z M 81.246094 88.164062 " fill-opacity="1" fill-rule="nonzero"/></g></g><g clip-path="url(#525fbcbc85)"><g clip-path="url(#f9a7585251)"><path fill="#000000" d="M 104.007812 82.25 L 111.71875 82.25 L 111.71875 93.847656 L 104.007812 93.847656 Z M 104.007812 82.25 " fill-opacity="1" fill-rule="nonzero"/></g></g><g clip-path="url(#7929ae229b)"><g clip-path="url(#ca64993c52)"><path fill="#000000" d="M 83.265625 97.222656 L 110.359375 97.222656 L 110.359375 111.824219 L 83.265625 111.824219 Z M 83.265625 97.222656 " fill-opacity="1" fill-rule="nonzero"/></g></g><g clip-path="url(#39ab536df8)"><g clip-path="url(#059b0061ab)"><path fill="#000000" d="M 83.640625 97.449219 L 90.378906 97.449219 L 90.378906 105.847656 L 83.640625 105.847656 Z M 83.640625 97.449219 " fill-opacity="1" fill-rule="nonzero"/></g></g><g clip-path="url(#350aa3c9e6)"><g clip-path="url(#e88b0ff3e4)"><path fill="#000000" d="M 72.859375 90.710938 L 89.480469 90.710938 L 89.480469 117.136719 L 72.859375 117.136719 Z M 72.859375 90.710938 " fill-opacity="1" fill-rule="nonzero"/></g></g><g clip-path="url(#f0e1ba39dc)"><g clip-path="url(#bd1bd653da)"><path fill="#000000" d="M 77.425781 103.289062 L 142.183594 103.289062 L 142.183594 118.265625 L 77.425781 118.265625 Z M 77.425781 103.289062 " fill-opacity="1" fill-rule="nonzero"/></g></g><g clip-path="url(#cfc78271c7)"><g clip-path="url(#c6f321a011)"><path fill="#000000" d="M 84.6875 105.835938 L 93.449219 105.835938 L 93.449219 117.609375 L 84.6875 117.609375 Z M 84.6875 105.835938 " fill-opacity="1" fill-rule="nonzero"/></g></g><g clip-path="url(#372283504f)"><g clip-path="url(#49c44a7e8b)"><path fill="#000000" d="M 106.402344 94.003906 L 113.742188 94.003906 L 113.742188 106.128906 L 106.402344 106.128906 Z M 106.402344 94.003906 " fill-opacity="1" fill-rule="nonzero"/></g></g><g clip-path="url(#062e15e781)"><g clip-path="url(#3fc51d847b)"><path fill="#000000" d="M 105.804688 86.589844 L 119.425781 86.589844 L 119.425781 97 L 105.804688 97 Z M 105.804688 86.589844 " fill-opacity="1" fill-rule="nonzero"/></g></g><g clip-path="url(#ac613d786f)"><g clip-path="url(#da672dbf44)"><path fill="#000000" d="M 119.28125 92.65625 L 133.277344 92.65625 L 133.277344 105.011719 L 119.28125 105.011719 Z M 119.28125 92.65625 " fill-opacity="1" fill-rule="nonzero"/></g></g><g clip-path="url(#6a3da562db)"><g clip-path="url(#70dab76e2b)"><path fill="#000000" d="M 138.601562 102.167969 L 151.855469 102.167969 L 151.855469 119.457031 L 138.601562 119.457031 Z M 138.601562 102.167969 " fill-opacity="1" fill-rule="nonzero"/></g></g><g clip-path="url(#1ca0f0070e)"><g clip-path="url(#d786bf8530)"><path fill="#000000" d="M 140.773438 102.617188 L 151.179688 102.617188 L 151.179688 118.878906 L 140.773438 118.878906 Z M 140.773438 102.617188 " fill-opacity="1" fill-rule="nonzero"/></g></g><g clip-path="url(#00ed7069aa)"><g clip-path="url(#7683d02726)"><path fill="#000000" d="M 44.402344 107.484375 L 144.636719 107.484375 L 144.636719 156.828125 L 44.402344 156.828125 Z M 44.402344 107.484375 " fill-opacity="1" fill-rule="nonzero"/></g></g><g clip-path="url(#e6f2b18d01)"><g clip-path="url(#343de6f0e8)"><path fill="#000000" d="M 123.625 111.152344 L 133.136719 111.152344 L 133.136719 123.375 L 123.625 123.375 Z M 123.625 111.152344 " fill-opacity="1" fill-rule="nonzero"/></g></g><g clip-path="url(#686ba1db48)"><g clip-path="url(#a6c001e531)"><path fill="#000000" d="M 104.90625 105.3125 L 112.394531 105.3125 L 112.394531 113.617188 L 104.90625 113.617188 Z M 104.90625 105.3125 " fill-opacity="1" fill-rule="nonzero"/></g></g><g clip-path="url(#18532ed9b0)"><g clip-path="url(#5cd6dcd421)"><path fill="#000000" d="M 117.933594 115.945312 L 137.703125 115.945312 L 137.703125 139.265625 L 117.933594 139.265625 Z M 117.933594 115.945312 " fill-opacity="1" fill-rule="nonzero"/></g></g><g clip-path="url(#c74e77e6d2)"><g clip-path="url(#fbf8a7e8cd)"><path fill="#000000" d="M 122.128906 120.511719 L 133.960938 120.511719 L 133.960938 139.230469 L 122.128906 139.230469 Z M 122.128906 120.511719 " fill-opacity="1" fill-rule="nonzero"/></g></g><g clip-path="url(#f2fe910c75)"><g clip-path="url(#eb4398f0f5)"><path fill="#000000" d="M 129.914062 119.089844 L 136.28125 119.089844 L 136.28125 125.902344 L 129.914062 125.902344 Z M 129.914062 119.089844 " fill-opacity="1" fill-rule="nonzero"/></g></g><g clip-path="url(#1a9ccb470b)"><g clip-path="url(#03e7a938d7)"><path fill="#000000" d="M 128.117188 119.089844 L 136.351562 119.089844 L 136.351562 127.101562 L 128.117188 127.101562 Z M 128.117188 119.089844 " fill-opacity="1" fill-rule="nonzero"/></g></g><g clip-path="url(#2eb28ce1ba)"><g clip-path="url(#6fcc9a13e7)"><path fill="#000000" d="M 126.097656 122.007812 L 133.125 122.007812 L 133.125 128.75 L 126.097656 128.75 Z M 126.097656 122.007812 " fill-opacity="1" fill-rule="nonzero"/></g></g><g clip-path="url(#386b4db0e3)"><g clip-path="url(#c207083117)"><path fill="#000000" d="M 137.554688 77.605469 L 193.488281 77.605469 L 193.488281 96.25 L 137.554688 96.25 Z M 137.554688 77.605469 " fill-opacity="1" fill-rule="nonzero"/></g></g><g clip-path="url(#d82f87b0f0)"><g clip-path="url(#f94eee2fd5)"><path fill="#000000" d="M 138.003906 83.296875 L 155.59375 83.296875 L 155.59375 96.699219 L 138.003906 96.699219 Z M 138.003906 83.296875 " fill-opacity="1" fill-rule="nonzero"/></g></g><g clip-path="url(#af628bc712)"><g clip-path="url(#f84ca4c095)"><path fill="#000000" d="M 145.789062 92.28125 L 172.3125 92.28125 L 172.3125 101.792969 L 145.789062 101.792969 Z M 145.789062 92.28125 " fill-opacity="1" fill-rule="nonzero"/></g></g><g clip-path="url(#3130f2cfec)"><g clip-path="url(#13c32dfed2)"><path fill="#000000" d="M 165.109375 89.136719 L 173.121094 89.136719 L 173.121094 98.558594 L 165.109375 98.558594 Z M 165.109375 89.136719 " fill-opacity="1" fill-rule="nonzero"/></g></g><g clip-path="url(#c681e80adf)"><g clip-path="url(#d1b1362e16)"><path fill="#000000" d="M 162.039062 81.273438 L 248.890625 81.273438 L 248.890625 122.832031 L 162.039062 122.832031 Z M 162.039062 81.273438 " fill-opacity="1" fill-rule="nonzero"/></g></g><g clip-path="url(#dd8413527d)"><g clip-path="url(#88ff3d5990)"><path fill="#000000" d="M 161.515625 96.027344 L 170.050781 96.027344 L 170.050781 105.230469 L 161.515625 105.230469 Z M 161.515625 96.027344 " fill-opacity="1" fill-rule="nonzero"/></g></g><g clip-path="url(#c42715a903)"><g clip-path="url(#2f960304ff)"><path fill="#000000" d="M 161.890625 88.6875 L 181.652344 88.6875 L 181.652344 104.113281 L 161.890625 104.113281 Z M 161.890625 88.6875 " fill-opacity="1" fill-rule="nonzero"/></g></g><g clip-path="url(#fbaef34e88)"><g clip-path="url(#155c4d31d9)"><path fill="#000000" d="M 175.21875 92.28125 L 197.992188 92.28125 L 197.992188 107.707031 L 175.21875 107.707031 Z M 175.21875 92.28125 " fill-opacity="1" fill-rule="nonzero"/></g></g><g clip-path="url(#20cf712afd)"><g clip-path="url(#582937e901)"><path fill="#000000" d="M 190.792969 90.859375 L 221.28125 90.859375 L 221.28125 103.738281 L 190.792969 103.738281 Z M 190.792969 90.859375 " fill-opacity="1" fill-rule="nonzero"/></g></g><g clip-path="url(#f47415e32f)"><g clip-path="url(#3fd68682e4)"><path fill="#000000" d="M 210.335938 96.027344 L 222.617188 96.027344 L 222.617188 116.03125 L 210.335938 116.03125 Z M 210.335938 96.027344 " fill-opacity="1" fill-rule="nonzero"/></g></g><g clip-path="url(#ae7552f26f)"><g clip-path="url(#1da13fa091)"><path fill="#000000" d="M 184.277344 99.621094 L 203.671875 99.621094 L 203.671875 109.28125 L 184.277344 109.28125 Z M 184.277344 99.621094 " fill-opacity="1" fill-rule="nonzero"/></g></g><g clip-path="url(#a2085ec347)"><g clip-path="url(#22645da266)"><path fill="#000000" d="M 193.488281 103.289062 L 203.375 103.289062 L 203.375 112.199219 L 193.488281 112.199219 Z M 193.488281 103.289062 " fill-opacity="1" fill-rule="nonzero"/></g></g><g clip-path="url(#26c11b2893)"><g clip-path="url(#f5f7c3f68c)"><path fill="#000000" d="M 200.601562 112.351562 L 217.382812 112.351562 L 217.382812 127.476562 L 200.601562 127.476562 Z M 200.601562 112.351562 " fill-opacity="1" fill-rule="nonzero"/></g></g><g clip-path="url(#ae25994d76)"><g clip-path="url(#080fda231e)"><path fill="#000000" d="M 159.644531 101.042969 L 181.359375 101.042969 L 181.359375 124.539062 L 159.644531 124.539062 Z M 159.644531 101.042969 " fill-opacity="1" fill-rule="nonzero"/></g></g><g clip-path="url(#6d55fbabd8)"><g clip-path="url(#6156b7e5e7)"><path fill="#000000" d="M 166.90625 101.792969 L 217.667969 101.792969 L 217.667969 141.777344 L 166.90625 141.777344 Z M 166.90625 101.792969 " fill-opacity="1" fill-rule="nonzero"/></g></g><g clip-path="url(#a7ed3668aa)"><g clip-path="url(#40902248b3)"><path fill="#000000" d="M 205.917969 126.953125 L 223.367188 126.953125 L 223.367188 139.605469 L 205.917969 139.605469 Z M 205.917969 126.953125 " fill-opacity="1" fill-rule="nonzero"/></g></g><g clip-path="url(#39da4d86c6)"><g clip-path="url(#a0fb7bd495)"><path fill="#000000" d="M 184.203125 111.902344 L 193.9375 111.902344 L 193.9375 119.6875 L 184.203125 119.6875 Z M 184.203125 111.902344 " fill-opacity="1" fill-rule="nonzero"/></g></g><g clip-path="url(#dfb781ff85)"><g clip-path="url(#7a2a6809d9)"><path fill="#000000" d="M 185.550781 112.050781 L 206.515625 112.050781 L 206.515625 133.015625 L 185.550781 133.015625 Z M 185.550781 112.050781 " fill-opacity="1" fill-rule="nonzero"/></g></g><g clip-path="url(#c1ef6388c8)"><g clip-path="url(#5261765083)"><path fill="#000000" d="M 151.179688 112.351562 L 173.347656 112.351562 L 173.347656 142.914062 L 151.179688 142.914062 Z M 151.179688 112.351562 " fill-opacity="1" fill-rule="nonzero"/></g></g><g clip-path="url(#0f1c6535d8)"><g clip-path="url(#7256b0c473)"><path fill="#000000" d="M 151.105469 121.410156 L 164.433594 121.410156 L 164.433594 142.082031 L 151.105469 142.082031 Z M 151.105469 121.410156 " fill-opacity="1" fill-rule="nonzero"/></g></g><g clip-path="url(#4d54049132)"><g clip-path="url(#c69b51c8b0)"><path fill="#000000" d="M 161.066406 126.953125 L 178.8125 126.953125 L 178.8125 145.597656 L 161.066406 145.597656 Z M 161.066406 126.953125 " fill-opacity="1" fill-rule="nonzero"/></g></g><g clip-path="url(#b05e526525)"><g clip-path="url(#c524aeb262)"><path fill="#000000" d="M 162.339844 126.652344 L 172.371094 126.652344 L 172.371094 144.40625 L 162.339844 144.40625 Z M 162.339844 126.652344 " fill-opacity="1" fill-rule="nonzero"/></g></g><g clip-path="url(#a50c2fa1ca)"><g clip-path="url(#68ce27e450)"><path fill="#e7191f" d="M 109.25 126.875 L 119.882812 126.875 L 119.882812 176.21875 L 109.25 176.21875 Z M 109.25 126.875 " fill-opacity="1" fill-rule="nonzero"/></g></g><g clip-path="url(#82ed169c04)"><g clip-path="url(#62a7eb0bc7)"><path fill="#e7191f" d="M 101.3125 65.699219 L 116.210938 65.699219 L 116.210938 110.8125 L 101.3125 110.8125 Z M 101.3125 65.699219 " fill-opacity="1" fill-rule="nonzero"/></g></g><g clip-path="url(#cd0ebc551a)"><g clip-path="url(#b3da3ee6b9)"><path fill="#000000" d="M 110.523438 102.765625 L 120.546875 102.765625 L 120.546875 112.199219 L 110.523438 112.199219 Z M 110.523438 102.765625 " fill-opacity="1" fill-rule="nonzero"/></g></g><g clip-path="url(#770916d4c2)"><g clip-path="url(#3daf963b5c)"><path fill="#e7191f" d="M 105.578125 39.492188 L 134.183594 39.492188 L 134.183594 94.800781 L 105.578125 94.800781 Z M 105.578125 39.492188 " fill-opacity="1" fill-rule="nonzero"/></g></g><g clip-path="url(#86ed685867)"><g clip-path="url(#282e9988de)"><path fill="#e7191f" d="M 125.496094 93.59375 L 150.230469 93.59375 L 150.230469 113.886719 L 125.496094 113.886719 Z M 125.496094 93.59375 " fill-opacity="1" fill-rule="nonzero"/></g></g><g clip-path="url(#22cca15962)"><g clip-path="url(#31f084bfd4)"><path fill="#e7191f" d="M 137.554688 88.988281 L 152.695312 88.988281 L 152.695312 101.867188 L 137.554688 101.867188 Z M 137.554688 88.988281 " fill-opacity="1" fill-rule="nonzero"/></g></g><g clip-path="url(#84505c0435)"><g clip-path="url(#9ab145db9d)"><path fill="#e7191f" d="M 133.285156 91.234375 L 148.035156 91.234375 L 148.035156 111.402344 L 133.285156 111.402344 Z M 133.285156 91.234375 " fill-opacity="1" fill-rule="nonzero"/></g></g><g clip-path="url(#b1f0e613da)"><g clip-path="url(#e16945e0ac)"><path fill="#e7191f" d="M 132.535156 114.632812 L 144.59375 114.632812 L 144.59375 137.566406 L 132.535156 137.566406 Z M 132.535156 114.632812 " fill-opacity="1" fill-rule="nonzero"/></g></g><g clip-path="url(#089a02a0da)"><g clip-path="url(#9158290256)"><path fill="#077615" d="M 119.507812 91.234375 L 141.824219 91.234375 L 141.824219 103.363281 L 119.507812 103.363281 Z M 119.507812 91.234375 " fill-opacity="1" fill-rule="nonzero"/></g></g><g clip-path="url(#b4bc36eaf5)"><g clip-path="url(#4221b45c46)"><path fill="#077615" d="M 139.351562 97.675781 L 166.976562 97.675781 L 166.976562 110.105469 L 139.351562 110.105469 Z M 139.351562 97.675781 " fill-opacity="1" fill-rule="nonzero"/></g></g><g clip-path="url(#1a2bb31953)"><g clip-path="url(#da7cb5b66e)"><path fill="#077615" d="M 179.1875 107.109375 L 271.277344 107.109375 L 271.277344 133.992188 L 179.1875 133.992188 Z M 179.1875 107.109375 " fill-opacity="1" fill-rule="nonzero"/></g></g><g clip-path="url(#a305950636)"><g clip-path="url(#96dfc8b66b)"><path fill="#077615" d="M 113.59375 87.265625 L 144.828125 87.265625 L 144.828125 100.820312 L 113.59375 100.820312 Z M 113.59375 87.265625 " fill-opacity="1" fill-rule="nonzero"/></g></g><g clip-path="url(#b93f11a4d3)"><g clip-path="url(#e2934c19b4)"><path fill="#077615" d="M 143.769531 94.453125 L 274.453125 94.453125 L 274.453125 129.125 L 143.769531 129.125 Z M 143.769531 94.453125 " fill-opacity="1" fill-rule="nonzero"/></g></g><g clip-path="url(#c8e23f0a39)"><g clip-path="url(#5c645686c3)"><path fill="#077615" d="M 158.519531 97.449219 L 221.472656 97.449219 L 221.472656 116.542969 L 158.519531 116.542969 Z M 158.519531 97.449219 " fill-opacity="1" fill-rule="nonzero"/></g></g><g clip-path="url(#02351c6831)"><g clip-path="url(#42ff143f94)"><g clip-path="url(#09c59890be)"><g clip-path="url(#157fa08f7a)"><path fill="#000100" d="M 116.144531 66.742188 C 116.304688 66.945312 116.28125 67.238281 116.296875 67.484375 C 116.320312 67.828125 116.328125 68.171875 116.332031 68.511719 L 116.335938 68.761719 C 117.527344 67.203125 119.0625 65.847656 120.664062 64.78125 C 122.601562 63.480469 124.949219 62.460938 127.320312 62.664062 C 129.703125 62.867188 131.527344 64.542969 132.433594 66.671875 C 133.5 69.179688 133.59375 72.140625 133.230469 74.824219 C 133.023438 76.332031 132.632812 77.839844 131.964844 79.214844 C 131.4375 80.292969 130.648438 81.464844 129.507812 81.96875 C 129.269531 82.074219 129.042969 81.71875 129.269531 81.566406 C 131.300781 80.226562 132.097656 77.695312 132.488281 75.429688 C 132.953125 72.734375 132.886719 69.773438 131.898438 67.21875 C 131.074219 65.085938 129.328125 63.492188 126.972656 63.382812 C 124.644531 63.273438 122.351562 64.492188 120.523438 65.835938 C 118.914062 67.015625 117.539062 68.457031 116.378906 70.070312 C 116.917969 69.894531 117.457031 69.714844 117.992188 69.519531 C 118.566406 69.308594 119.230469 69.066406 119.726562 68.765625 C 119.921875 68.648438 120.199219 68.796875 120.101562 69.042969 C 119.996094 69.308594 119.746094 69.429688 119.507812 69.5625 C 119.152344 69.75 118.785156 69.917969 118.40625 70.0625 C 117.621094 70.375 116.820312 70.648438 116.015625 70.925781 C 115.769531 71.011719 115.511719 70.847656 115.523438 70.582031 C 115.355469 70.4375 115.332031 70.269531 115.445312 70.078125 C 115.488281 70.007812 115.527344 69.9375 115.570312 69.871094 C 115.589844 69.453125 115.589844 69.039062 115.582031 68.621094 C 115.574219 68.304688 115.5625 67.992188 115.542969 67.679688 C 115.53125 67.425781 115.429688 67.070312 115.546875 66.835938 C 115.660156 66.597656 115.972656 66.523438 116.144531 66.742188 Z M 116.144531 66.742188 " fill-opacity="1" fill-rule="nonzero"/></g></g></g></g><g clip-path="url(#c8acedb99b)"><g clip-path="url(#9200e13179)"><path fill="#000000" d="M 116.210938 80.75 L 129.242188 80.75 L 129.242188 93.105469 L 116.210938 93.105469 Z M 116.210938 80.75 " fill-opacity="1" fill-rule="nonzero"/></g></g><g clip-path="url(#341d658a1b)"><g clip-path="url(#8398ffa8bb)"><path fill="#000000" d="M 163.085938 115.195312 L 205.167969 115.195312 L 205.167969 164.675781 L 163.085938 164.675781 Z M 163.085938 115.195312 " fill-opacity="1" fill-rule="nonzero"/></g></g><g clip-path="url(#f8de50cc15)"><g clip-path="url(#40f0455aab)"><path fill="#e7191f" d="M 127.070312 87.339844 L 134.992188 87.339844 L 134.992188 95.203125 L 127.070312 95.203125 Z M 127.070312 87.339844 " fill-opacity="1" fill-rule="nonzero"/></g></g><g clip-path="url(#bc66b43809)"><g clip-path="url(#37f739c481)"><path fill="#000000" d="M 117.933594 76.183594 L 127.664062 76.183594 L 127.664062 84.570312 L 117.933594 84.570312 Z M 117.933594 76.183594 " fill-opacity="1" fill-rule="nonzero"/></g></g></svg>