<?xml version="1.0" encoding="UTF-8"?>
<svg id="Layer_1" data-name="Layer 1" xmlns="http://www.w3.org/2000/svg" viewBox="0 0 414 200">
  <defs>
    <style>
      .cls-1 {
        fill: #f0ebe4;
      }

      .cls-2 {
        fill: #e6e1d5;
      }

      .cls-3 {
        fill: #fff9b8;
      }

      .cls-4 {
        fill: #fbf2e9;
      }

      .cls-5 {
        fill: #fde8e6;
      }

      .cls-6 {
        fill: #a17e6d;
      }

      .cls-7 {
        fill: #b89d8a;
      }

      .cls-8 {
        fill: #9ddcf9;
      }

      .cls-9 {
        fill: #cab09e;
      }

      .cls-10 {
        fill: #403f3d;
      }

      .cls-11 {
        fill: #6f6b66;
      }

      .cls-12 {
        fill: #625e57;
      }

      .cls-13 {
        fill: #777676;
      }
    </style>
  </defs>
  <path class="cls-5" d="M78.22,164.03c-1.47,.54-2.48,1.14-3.18-1.36-.45-1.59-2.54-3.12-3.87-4.36-2.34-2.19-1.59-4.98-2.9-7.21-.6-1.03-.38-2.5-2.08-2.82-.94-.18-.68-1.17-.69-1.86-.03-2.1-.09-4.2,0-6.29,.09-1.99-.05-3.75-1.86-5.08-.94-.68-.97-1.9-.91-3.03,.38-6.56-.82-13.07-.58-19.62,.04-1.15-.23-2.36-.56-3.47-1.08-3.63-.48-7.24,.33-10.76,.57-2.51,.86-4.99,.84-7.55-.02-2.45-.48-5.01,1.42-7.08,4.71-4.15,9.91-7.68,15.16-11.06,6.79-4.36,13.59-8.72,20.36-13.13,4.24-2.77,8.27-5.9,12.88-8.04,10.26-4.75,20.95-8.42,31.52-12.39,4.83-1.82,9.63-3.91,14.84-4.57,1-.13,1.99-.23,2.99-.38,2.12-.32,4.22-1.52,6.36-.08,.86,.61,.79,2.16,2.22,2.2l-.03-.04c-.57,.77,.21,1.27,.37,1.9,.51,2.03,2.53,3.42,2.44,5.71-.23,1,1.08,1.26,1.06,2.16-4.66,1.81-8.99,5.13-14.49,3.65,.68,1.15-.33,1.82-1.5,2.39-5.45,2.65-10.92,5.26-16.35,7.95-2.18,1.08-4.28,2.35-6.37-.25-.42,1.73,1.52,1.84,1.53,3.06-.45,.45-.9,.91-1.35,1.36-.37,.36-.74,.71-1.12,1.07-1.18-.05-1.67,.83-2.23,1.62-1.9,1.57-3.81,3.14-5.71,4.71-.28,.27-.57,.54-.85,.81-.29,.27-.58,.54-.87,.81-.27,.27-.53,.53-.8,.8-1.95,.56-2.9,2.43-4.5,3.41-1.61,.99-3.74-.57-6.16,.93,2.15,.13,3.52,.22,5.25,.33-3.64,3.26-5.26,7.45-7.84,10.98-1.68,2.3-2.98,5-3.13,8.02-.37,3.83-.15,7.66,.05,11.49-.4,2.53,.51,5.03,.33,7.68-5.16-1.46-10.19-2.82-15.48-2.01,5.36,.46,10.62,1.23,15.82,3.34-1.55,.97-3.41,.15-5.09,2.01,8.01-1.6,15.35-.63,22.7,.08,1.25,.12,2.63,.09,3.8-.31,4.15-1.43,8.44-2.3,12.68-3.35,9.53-2.35,19.11-4.36,29.01-2.52,.26,1.23-.84,.98-1.39,1.17-3.33,1.18-6.64,2.5-9.62,4.35-5.36,3.33-5.73,4.42-2.35,9.33,.19,.2,.38,.4,.57,.61,.27,1.37-1.02,1.29-1.68,1.72-1.28,.84-2.92,1.05-4.03,2.22-6.1,3.89-12.3,7.56-19.43,9.3-1.65,.52-3.31,1.02-4.95,1.57-8.63,2.89-17.35,5.51-25.72,9.16-4.6,2.01-8.75,4.8-13.23,7-3.7,1.81-7.74,2.42-11.58,3.71Zm57.41-105.43l-.11-.02,.08-.21,.02,.22Z"/>
  <path class="cls-5" d="M354.66,73.36c-.48,4.43-1.33,8.73-4.53,12.16-.31,.33-.81,.69-.82,1.05-.18,5.06-4.45,7.75-6.72,11.58-.33,.57-1.16,.84-1.75,1.26-.44,.31-1.25,.64-1.25,.96,0,5.56-6.71,5.17-8.2,9.15-1.37,3.65-5.68,3.64-7.44,6.68-.51,.88-1.68,1.36-2.51,2.06-.53,.45-1.41,.68-1.38,1.57,.07,1.84-.91,2.44-2.57,2.29-1.04-.09-1.32,.81-1.89,1.36-2.7,2.55-5.6,4.71-9.24,5.88-1.96,.63-3.73,.43-5.22-.6-1.66-1.15-3.42-1.42-5.28-1.87-3.91-.95-7.71-2.35-11.55-3.56-2.3-3.42-6.25-4.72-9.31-7.18-5.19-4.18-11.41-7.07-15.35-12.82-.63-.92-1.21-2.54-2.88-2.59l.04,.04c-.23-2.42-1.92-3.99-3.35-5.69-1.67-1.98-3.09-4.09-4.31-6.42,8.23-2.45,10.08-5.19,7.27-10.56-.75-2.79-3.23-4.08-5.14-5.87-1.23-1.56,.08-1.07,.8-.96,3.61,.58,6.7,2.5,9.96,3.96,.31,.21,.62,.41,.92,.62,.66,.29,1.31,.58,1.97,.87,.33,.23,.66,.46,.99,.69,2.99,2.6,6.42,4.64,8.83,7.99,1.19,1.66,2.6,3.42,4.62,4.49,5.53,2.94,11.33,5.39,16.65,8.74,.97,.61,2.19,.81,3.18,.46,3.07-1.08,5.96-2.73,9.44-2.6-1.26-1.11-2.79-.28-4.26-.98,4.75-6.3,9.05-12.62,11-20.17-.93,2.5-2.7,4.58-3.72,6.99-1.97,4.66-4.97,8.63-8.01,12.54-2.44,3.13-4.85,4.96-9.22,1.63-1.08-.82-2.15-1.14-.82-2.67,.68-.78,1.11-1.95,.14-3.3-.18,.58-.29,.9-.39,1.23-.93,3.33-1.57,3.59-4.54,1.93-.95-.53-1.92-1.04-2.94-1.43-6.86-2.64-11.09-8.27-15.81-13.49,2.77-1.21,4.87-.73,7.25,.89,4.71,3.21,9.71,6.02,14.91,8.4,3.02,1.38,6.06-.42,6.55-3.8-.84,.03-.7,1.05-1.25,1.28-1.42,.6-2.23,2.95-4.04,2.07-6.2-3.02-12.36-6.14-17.87-10.36-.7-.54-1.5-1.02-1.12-2.17,.43-1.33,1.51-1.1,2.48-1.11,5.4-.04,10.8,0,16.2-.15,1.87-.05,3.56,.38,4.7,1.67,3,3.4,6.3,3.21,9.94,1.22-.83-.84-1.7-.25-2.5-.03-3.71,1.04-4.65,.7-7.28-2.86,2.41,.04,4.83,.26,7.23-.2,15.22-.09,30.43-.18,45.65-.27,.31,0,.62,0,.92,0,.94,0,1.88,0,2.83,0Z"/>
  <path class="cls-3" d="M351.83,73.37c-.31,0-.62,0-.92,0,.29-1.84-1.15-1.02-1.78-1.01-14.64,.14-29.27,.34-43.9,.52-2.59-.22-5.18-.21-7.76,.1-11.5,.11-23,.2-34.5,.36-1.78,.02-3.42-.26-4.99-1.05-2.29-1.15-4.7-1.88-7.25-2.16l-3.99-.25c0-.06,0-.12,0-.18l3.98-.35c1.37,.05,2.73,.16,4.1,.14,9.69-.15,19.38-.25,29.07-.5,24.06-.62,48.15,.38,72.18-1.54,4.1-.33,8.25-.06,12.38-.07,.25,1.64,1.2,3.28-.1,4.89-5.01,0-10.03-.02-15.04,.07-.49,0-2.08-.81-1.46,1.03Z"/>
  <path class="cls-11" d="M368.43,67.38c-4.13,0-8.28-.26-12.38,.07-24.03,1.92-48.12,.92-72.18,1.54-9.69,.25-19.38,.36-29.07,.5-1.36,.02-2.73-.09-4.1-.14,.58-1.57,1.96-.85,3.01-.99,.98-.13,2.07,.07,1.95-1.46,3.49-1.7,6.97-3.39,10.46-5.09-.02,1.49-1.31,1.69-2.27,2.2-2.11,1.12-4.24,2.21-6.5,3.37h28.57c.13-.87-1.21-.92-.55-1.74,8.24,3.47,16.72,.54,25.38,1.46-1.56-3.97-4.44-6.35-6.28-9.41-1.05-1.75-2.48-2.48-4.56-2.27-2.27,.23-4.56,.2-6.85,.29-.04-.3-.08-.61-.12-.91,.36-.05,.73-.07,1.08-.14,2.71-.52,6.62,1.56,7.32-3.37,.07-.48,.58-.27,.88-.1,.61,.33,.28,.59,.01,1.02-.72,1.16-1.18,2.29,.91,2.64,.51,.09,.97,.8,1.33,1.31,2.12,3.03,4.85,5.63,6.49,9.02,.52,1.07,1.23,1.77,2.74,1.74,11.62-.2,23.25-.27,34.87-.38,1.67,0,3.34-.02,5.02-.03,4.91-.05,9.82-.09,14.74-.14,.02,.3,.03,.6,.05,.91l.04,.09Z"/>
  <path class="cls-12" d="M256.77,100.74c1.67,.05,2.24,1.67,2.88,2.59,3.94,5.75,10.17,8.64,15.35,12.82,3.06,2.46,7.01,3.76,9.31,7.18-3.88-1.61-6.94-4.51-10.43-6.73-3.81-2.43-7.38-5.23-10.96-7.99-1.13-.87-2.05-2.09-2.86-3.29-1.21-1.8-1.79-1.29-2.42,.38-1.06,2.8-2.64,5.11-5.72,6.15-3.38,1.14-5.35-.16-5.14-3.62,.12-1.98,.25-3.95,.38-6.05-1.48,.09-1.81,1.28-2.37,2.1-1.88,2.74-4.65,3.71-7.74,3.9-2.17,.13-3.46-.82-3.08-3.32,.61-4.04,1.27-8.05,2.95-11.82,1.39,1.03,.56,2,.08,3.16-1.36,3.29-2.13,6.72-2.13,10.84,3.12-2.99,3.88-6.44,4.95-9.73,1.28-3.92,1.25-3.93-2.22-5.32,.32-.06,.51-.24,.48-.58,1.57,.49,4,.47,3.46,2.87-.98,4.43-2.27,8.81-4.82,12.73,1.85,.61,3.37-.26,4.83-1.17,3.66-2.3,5.26-6.34,7.8-9.57,2.02-2.57,1.41-4.46-1.14-6.84-.74-.69-1.8-1.11-1.33-2.43,3.33,1.4,5.94-.37,8.39-2.13,2.47-1.78,1.24-4.19,.6-6.41,.18-.12,.37-.23,.55-.35,2.8,5.36,.96,8.11-7.27,10.56,1.21,2.33,2.64,4.44,4.31,6.42,1.43,1.7,3.13,3.27,3.35,5.69-1.76-2.12-3.52-4.23-5.27-6.34-1.73,1.79-1.99,3.49-.22,5.22-1.59-.73-2.26-.41-2.45,1.52-.24,2.39-.1,4.87-1.21,7.17-.25,.52-.75,1.93,.66,2.22,1.18,.24,1.23-.88,1.44-1.58,.91-3.05,1.77-6.12,1.52-9.37,1.92-.14,1.02,1.28,.94,1.95-.38,3.19-1.01,6.35-2.19,9.5,5.41-1.01,8.48-5.89,6.74-10.34Z"/>
  <path class="cls-5" d="M246.88,87.01c-.47,1.31,.59,1.74,1.33,2.43,2.55,2.38,3.16,4.27,1.14,6.84-2.53,3.23-4.14,7.27-7.8,9.57-1.45,.91-2.98,1.78-4.83,1.17,2.55-3.92,3.84-8.31,4.82-12.73,.53-2.4-1.9-2.38-3.46-2.87-.86-2.22,.75-3.84,1.41-5.69-.21-.4-.16-.72,.29-.91,0,0-.05,.05-.05,.05,1.76-.83,1.46-2.54,1.73-4.01,.54-.13,1.19,.23,1.62-.38l-.03-.03c.5,2.66,1.67,4.94,3.88,6.61l-.04-.04Z"/>
  <path class="cls-12" d="M158.93,34.35c-5.21,.67-10,2.76-14.84,4.57-10.57,3.97-21.26,7.63-31.52,12.39-4.62,2.14-8.65,5.28-12.88,8.04-6.76,4.41-13.56,8.77-20.36,13.13-5.25,3.37-10.45,6.91-15.16,11.06-.37,.08-.75,.16-1.12,.24,1.05-.07,2.43,.21,1.75-1.67,4.31-4.36,9.6-7.44,14.63-10.8,4.81-3.21,9.81-6.18,14.65-9.37,5.68-3.75,11.17-7.87,17.16-11.04,5.58-2.95,11.72-4.85,17.62-7.2,8.96-3.56,18-6.91,27.18-9.86,1.16-.37,1.23-1.79,2.28-2.23,.16,.15,.33,.3,.49,.45-.02,.47-1.3,1.04,.12,1.39,0,.3,0,.6,0,.9Z"/>
  <path class="cls-10" d="M211.26,76.73c-3.47,10.27-12.37,17.48-24.85,18.04-.91,.04-1.82,.04-2.73,.06-.7-.02-1.52-.57-1.97,.45,0,0,.05-.05,.05-.05,.09-.71-.47-.76-.94-.89-.4-.25-.76-.35-.96,.23-2.52-1-5.12-1.77-7.49-3.2-3.07-1.86-5.45-4.39-7.73-7.06-.33-.38-1.03-1.08-.18-1.59,.6-.36,.88,.33,1.24,.73,2.82,3.17,5.71,6.27,9.73,7.98,.21,.48,.62,.57,1.09,.55,1.25,.34,2.51,.68,3.76,1.03,.36,.04,.73,.08,1.09,.12,12.16,1.9,25.62-4.98,28.35-17.54,.73,.09,1.61-.01,1.53,1.15Z"/>
  <path class="cls-8" d="M146,168.19c-.87-3.49,.18-7.11-1.07-10.6v12.41c-1.35-.47-1.61-.55-1.27-1.62,.51-1.63-.44-2.3-1.44-3.06-.07-1.44-.13-2.87-.2-4.31,.02-.88,.05-1.76,.07-2.64,.03-.4,.05-.8,.08-1.21,.01-1.07,.03-2.13,.04-3.2,.11-4.01,.25-8.01,.31-12.02,.03-2.13,1.69-2.67,3.1-2.68,1.42-.02,.66,1.56,.68,2.37,.09,3.73,.04,7.47,.04,11.2-.11,5.12-.22,10.24-.32,15.35Z"/>
  <path class="cls-12" d="M146.33,152.84c0-3.73,.06-7.47-.04-11.2-.02-.82,.74-2.39-.68-2.37-1.41,.02-3.07,.56-3.1,2.68-.05,4.01-.2,8.01-.31,12.02-.26,0-.52-.01-.78-.02-.03-3.33-.23-6.67-.05-9.99,.12-2.24-1.04-2.35-2.57-2.02-1.57,.34-3.09,.93-4.63,1.41-.16-.25-.33-.5-.49-.74,7.13-1.75,13.33-5.42,19.43-9.3l.45,.51c-2.48,1.76-4.7,3.58-4.54,7.13,.09,2.18,.67,2.96,2.78,2.02-.13,.49-.53,1.2-.34,1.43,.42,.5,.97-.05,1.45-.25,3.75-1.54,6.28-4.81,9.71-6.81,.16,.16,.33,.33,.49,.49-3.09,2.63-6.03,5.47-9.78,7.23-2.72,1.27-4.71,.18-4.97-2.85-.13-1.51-.02-3.03-.36-4.57-1.02,5.02-.22,10.2-1.15,15.23-.18,0-.36,0-.54,0Z"/>
  <path class="cls-5" d="M190.64,34.34c1.05,.64,.97,1.41,.26,2.25-.32,.11-.78,.13-.93,.36-1.81,2.71-4.56,4.12-7.27,5.75-2.71,1.63-3.72,.81-4.43-1.72-.32-1.9-1.96-3.3-2.18-5.62,2.29,1.15,4.39,.57,6.49,.04,2.25-.14,4.39-.81,6.55-1.38,.51,.11,1.02,.22,1.52,.33Z"/>
  <path class="cls-11" d="M133.7,142.6c.16,.25,.33,.5,.49,.74-9.12,3.37-18.56,5.8-27.56,9.53-4.11,1.71-8.14,3.59-11.89,5.93-4.16,2.59-8.65,4.17-13.32,5.41-1.08,.29-2.15,.09-3.21-.18,3.84-1.3,7.88-1.9,11.58-3.72,4.48-2.2,8.63-4.99,13.23-7,8.37-3.65,17.09-6.26,25.72-9.16,1.64-.55,3.3-1.05,4.95-1.57Z"/>
  <path class="cls-11" d="M286.4,34.92c6.95-1.58,13.94-3.22,21.03-1.07,4.28,1.3,8.11,3.69,11.89,6.02,5.87,3.6,11.51,7.55,16.76,12.03-.23,.02-.45,.04-.68,.06-1,0-1.68-.62-2.39-1.2-5.83-4.81-12.21-8.81-18.69-12.67-5.76-3.43-11.89-5.06-18.62-3.93-2.88,.49-5.77,.92-8.66,1.37-.21-.21-.43-.41-.64-.62Z"/>
  <path class="cls-10" d="M207.32,60.24c-2.74-4.78-6.99-7.76-11.93-9.89-.41-.17-1.03-.48-1.27-.32-2.89,2.04-3.41-1.06-5.37-2.14,1.44-.36,2.37-.66,3.33-.82,1.03-.17,2.39-1,2.46,1.15,.01,.33,.98,.69,1.56,.92,5.58,2.22,9.82,6.03,13.09,10.98-.19,1.24,.57,2.05,1.33,2.85,.11,.17,.22,.34,.33,.51,.08,.18,.16,.36,.23,.54,.15,1.09-.02,2.24,.58,3.25-1.5,.09-1.81-.91-2.26-2.08-.45-1.16-.08-2.88-1.85-3.34l.04,.04c.37-.32,.18-.68,.08-1.04-.12-.2-.24-.4-.37-.6Z"/>
  <path class="cls-11" d="M232.41,47.45c6.23-2.46,12.83-3.54,19.39-4.06,9.31-.75,17.81-4.18,26.59-6.72,.85-.25,1.64-.83,2.61-.52,.02,.28,.04,.57,.06,.85-2.18,.62-4.42,1.1-6.54,1.89-4.65,1.73-9.74,2.38-13.88,5.42-.14-.19-.28-.38-.42-.58-.4-.57-1.01-.37-1.51-.31-8.61,1.06-17.19,2.29-25.57,4.59-.24-.19-.49-.37-.73-.56Z"/>
  <path class="cls-12" d="M172.61,157.25c-1.72-3.67-1.83-7.72-2.01-11.58-.21-4.56-.4-9.13-.36-14.41-2.69,2.48-4.9,4.51-7.1,6.55-.16-.16-.33-.33-.49-.49,2.06-1.74,.76-2.49-.93-3.12,1.23-.63,2.46,.54,3.56,.15,2.7-.97,5.05-5.04,4.92-8.24-.6,.19-1.19,.37-1.78,.55-.14-.17-.29-.34-.43-.52,2.07-1.21,4.14-2.42,6.21-3.63,.18,.18,.35,.37,.53,.55-4.22,1.58-3.71,5.16-3.62,8.56,0,.36,.03,.73,.03,1.09-.14,8.02,1.31,15.89,2.21,23.81l-.72,.72Z"/>
  <path class="cls-11" d="M172.61,157.25c.24-.24,.48-.48,.72-.72,.5,1.84,1,3.67,1.5,5.51,1.37,2.02,2.42,.02,3.05-.55,.91-.83,.51-2.02-.75-2.63-1.82-9.34-2.02-18.81-2.25-28.27-.05-2.08-.24-4.19,.43-6.24,.22,0,.44-.02,.66-.03-.06,9.2-.08,18.4,1.15,27.54,.37,2.75,1.12,5.47,1.96,8.12,.71,2.25-.35,3.25-2.2,3.72-1.96,.49-3.12-.37-3.39-2.45-.18-1.35-.58-2.66-.87-3.99Z"/>
  <path class="cls-12" d="M175.96,124.32c-.22,0-.44,.02-.66,.03-.47-.3,.83-1.4-.58-1.28-.18-.18-.35-.37-.53-.55,.85-1.05,1.71-2.09,2.55-3.14,1.66-2.08,.9-3.44-1.31-4.37,.02-.24,.03-.48,.05-.73,.6,.13,.95,.01,1.12-.7,.7-3,1.47-5.99,2.21-8.99,.26,0,.52,.02,.78,.03-.34,4.44-2.5,8.73-.82,13.35,.32,.89,.34,1.61,1.39,1.29,.74-.22,1.98-.32,1.44-1.68-1.13-2.81-.61-5.71-.56-8.59,.29,.17,.58,.35,.88,.52,.07,2.35-.74,4.75,.41,7.07,1.74-1.45,2.31-4.48,1.88-9.59,1.54-.51,1.14,.79,1.14,1.38-.04,2.83-.25,5.65-1.09,8.38-.6,1.95-2.23,3.39-3.92,3.18-3.75-.46-4.02,1.83-4.36,4.37Z"/>
  <path class="cls-11" d="M178.26,40.97c.71,2.53,1.72,3.35,4.43,1.72,2.72-1.63,5.46-3.03,7.27-5.75,.15-.23,.62-.24,.93-.36-1,3.93-4.39,5.44-7.55,6.81-2.59,1.13-3.82,1.97-3.04,5.19,1.56,6.45,1.88,13.11,2.35,19.72,0,0-.16,.2-.16,.2-.71,.39-.33,1.23-.71,1.76-.52-6.42-.79-12.86-1.99-19.2-.64-3.37-1.49-6.7-2.25-10.04l.71-.06Z"/>
  <path class="cls-12" d="M178.26,40.97c-.24,.02-.47,.04-.71,.06-2.03-2.74-2.56-6.26-4.73-8.93,.18-.18,.35-.36,.53-.54,4.61-.37,9.22-.65,13.84-.31,1.86,.14,3.73,.47,3.45,3.08-.51-.11-1.02-.22-1.52-.33-.16-.19-.31-.38-.47-.56,.68-1.77-.88-1.09-1.4-1.11-3.09-.08-6.19-.06-9.29,.01-.62,.01-1.71-.54-1.81,.5-.08,.87,.59,1.66,1.57,1.98,1.66,.53,3.24-.08,4.85-.28,0,.28,0,.56,0,.84-2.1,.54-4.2,1.11-6.49-.04,.22,2.32,1.86,3.71,2.18,5.62Z"/>
  <path class="cls-12" d="M232.41,47.45c.24,.19,.49,.37,.73,.56-2.56,.88-5.37,1.36-7.6,2.77-2.32,1.46-6.78,1.36-5.77,6.13,.07,.33-.6,.86-.98,1.24-1.41,1.39-2.9,2.69-4.9,3.19-.09-1.44,1.19-1.44,2.01-1.94,2.51-1.51,3.05-2.5,2.49-4.55-2.26,1.37-4.64,2.52-6.56,4.37-.74,.71-1.54,1.32-2.68,.94,6.97-5.65,14.37-10.52,23.25-12.69Z"/>
  <path class="cls-2" d="M237.6,92c3.47,1.39,3.5,1.4,2.22,5.32-1.07,3.28-1.84,6.73-4.95,9.73,0-4.12,.77-7.55,2.13-10.84,.48-1.16,1.31-2.13-.08-3.16-.79-1.01,0-.98,.68-1.04Z"/>
  <path class="cls-10" d="M239.78,76.07c-.56-1.34-1.55-1.67-2.98-1.65-8.38,.16-16.76,.22-25.14,.31-.71-.55-1.42-.52-2.14-.02-1.26,.03-2.52,.05-3.78,.08,0-.26-.01-.52-.02-.78,4.75-.05,9.52,.11,14.26-.21,7.15-.48,14.49,1.45,21.45-1.55-1.11,1.06-1.94,2.21-1.07,3.82-.19,0-.38,0-.57,0Z"/>
  <path class="cls-2" d="M209.17,60.14c1.14,.39,1.95-.22,2.68-.94,1.92-1.85,4.3-3,6.56-4.37,.56,2.05,.02,3.04-2.49,4.55-.83,.5-2.11,.5-2.01,1.94,0,0,.04-.02,.04-.02-.73-.52-1-.13-1.13,.56l.03-.03c-1.02-.12-1.44,1-2.33,1.14-.76-.8-1.52-1.61-1.33-2.85,0,0-.02,.02-.02,.02Z"/>
  <path class="cls-1" d="M184.19,107.01c.44,5.1-.14,8.13-1.88,9.59-1.15-2.32-.34-4.72-.41-7.07,.07-1.08,.07-2.16,.22-3.23,.16-1.13,.44-2.24,2.04-1.62,.01,.8,.02,1.6,.03,2.4v-.07Z"/>
  <path class="cls-10" d="M192.5,68.51c5.27-.15,10.54-.29,15.81-.44,1.21,.75,2.3,.02,3.43-.28,2.37,.15,4.79-.13,7.09,.73-.08,.09-.08,.17,.02,.24-.92,.07-1.84,.15-2.75,.22-.72,0-1.45,0-2.17,0-7.14,0-14.29,0-21.43,0l.04-.11c0-.12-.02-.25-.04-.37Z"/>
  <path class="cls-12" d="M348.62,62.34c1.77,.31,3.16,1.16,4.05,2.76-.52,.83-.83,.16-1.22-.16-.89-.71-1.8-1.41-1.92,.56-.32-.1-.63-.2-.95-.29-1.14-2.49-3.67-3.69-5.3-5.73,.16-.16,.32-.33,.48-.49,1.27,1.64,3.85,1.4,4.89,3.37-1.22,1.42,.26,1.34,1.06,2.08-.06-1.16-1.19-1.28-1.09-2.09Z"/>
  <path class="cls-10" d="M351.83,73.37c-.62-1.85,.97-1.02,1.46-1.03,5.01-.08,10.03-.06,15.04-.07-.57,1.27-1.7,.46-2.55,.67-.43-.27-.85-.3-1.26,.05-1.63,.05-3.26,.09-4.88,.14-.24-.4-.45-.35-.63,.04-1.45,.06-2.9,.13-4.35,.19-.94,0-1.88,0-2.83,0Z"/>
  <path class="cls-12" d="M160.28,29.71c5.71-2.71,8.87-2.26,13.07,1.86-.18,.18-.35,.36-.53,.54-2.28-1.33-4.11-3.44-7.19-3.29-1.82,.09-3.18,1.29-4.9,1.38-.15-.16-.3-.33-.45-.49Z"/>
  <path class="cls-12" d="M335.4,51.97c.23-.02,.45-.04,.68-.06,2.52,2.4,5.64,4.17,7.68,7.09-.16,.16-.32,.33-.48,.49-2.49-2.64-5.74-4.5-7.88-7.51Z"/>
  <path class="cls-5" d="M211.74,67.79c-1.13,.29-2.22,1.03-3.43,.28,.03-.23,.06-.46,.08-.69-.07-1.03-.78-2.37-1.5-2.73-.69-.35-.56-.76-.21-1.27,.33-.49,1.03-.77,.88-1.53,1.77,.46,1.41,2.18,1.85,3.34,.45,1.17,.76,2.18,2.26,2.08,.06,.17,.08,.34,.07,.52Z"/>
  <path class="cls-12" d="M207.56,61.84c.15,.76-.55,1.05-.88,1.53-.35,.52-.48,.93,.21,1.27,.72,.36,1.43,1.7,1.5,2.73-3.48-2.63-3.74-3.72-1.31-5.52,.11-.08,.34,.01,.52,.03,0,0-.04-.04-.04-.04Z"/>
  <path class="cls-10" d="M146.33,152.84c.18,0,.36,0,.54,0,.04,4.38,.09,8.76,.13,13.14,0,.19,0,.37,0,.56-.04,.63-.06,1.25-.11,1.88-.03,.37-.14,.75-.6,.5-.18-.1-.2-.47-.3-.72,.11-5.12,.22-10.24,.32-15.35Z"/>
  <path class="cls-12" d="M239.78,76.07c.19,0,.38,0,.57,0,.85,.74,1.14,1.79,1.52,2.78-.56,.58-.33,1.33-.41,2.01-.27,1.47,.03,3.18-1.73,4.01,.12-.61,.14-1.27,.39-1.82,1.13-2.41,1.06-4.72-.33-6.99Z"/>
  <path class="cls-10" d="M181.76,95.22s-.05,.05-.05,.05c.9-.39,1.06,.94,1.85,.79,.2,1.39,.4,2.78,.6,4.17-.16,.35-.32,.71-.48,1.06-1.86-1.64-1.24-4.06-1.92-6.08Z"/>
  <path class="cls-2" d="M348.58,65.21c.32,.1,.63,.2,.95,.29,.12-1.96,1.03-1.26,1.92-.56,.39,.31,.7,.99,1.22,.16,.9,.09,.95,.73,.93,1.42-1.67,0-3.34,.02-5.02,.03,0-.45,0-.89,0-1.34Z"/>
  <path class="cls-11" d="M192.5,68.51c.03,.12,.04,.24,.04,.37-3.28,.23-6.57,.46-9.85,.69-.06-.35-.13-.7-.19-1.05l.16-.2c3.28,.06,6.57,.13,9.85,.19Z"/>
  <path class="cls-12" d="M281.06,36.99c-.02-.28-.04-.57-.06-.85,1.81-.37,3.5-1.28,5.4-1.22,.21,.21,.43,.41,.64,.62-1.99,.48-3.99,.97-5.98,1.45Z"/>
  <path class="cls-10" d="M183.68,101.3c.16-.35,.32-.71,.48-1.06,.2,1.27,.41,2.54,.61,3.82,.03,.22,.06,.44,.09,.66-.29,.77,1.16,2.01-.65,2.36-.01-.8-.02-1.6-.03-2.4-.39-1.16-1.33-.53-2.05-.62,.98-.66,2.05-1.26,1.56-2.75Z"/>
  <path class="cls-12" d="M142.02,161c.07,1.44,.13,2.87,.2,4.31-.33,.25-.81,1.06-.87-.1-.07-1.39,.04-2.79,.07-4.18,.2,0,.4-.02,.59-.03Z"/>
  <path class="cls-8" d="M141.43,153.94c.26,0,.52,.01,.78,.02-.01,1.07-.03,2.13-.04,3.2-.25,.01-.51,.02-.76,.04,0-1.09,.01-2.17,.02-3.26Z"/>
  <path class="cls-10" d="M142.02,161c-.2,0-.4,.02-.59,.03,0-.9,0-1.81-.01-2.71,.23,.01,.45,.03,.68,.04-.02,.88-.05,1.76-.07,2.64Z"/>
  <path class="cls-13" d="M209.52,74.72c.72-.51,1.43-.54,2.14,.02-.1,.67,.09,1.4-.39,2,.08-1.16-.8-1.06-1.53-1.15-.07-.29-.14-.58-.21-.87Z"/>
  <path class="cls-4" d="M64.79,82.11c.68,1.88-.7,1.6-1.75,1.67-.36-1.53,.66-1.64,1.75-1.67Z"/>
  <path class="cls-10" d="M183.56,96.07c-.79,.15-.95-1.18-1.85-.79,.46-1.02,1.28-.47,1.97-.45-.04,.41-.08,.83-.13,1.24Z"/>
  <path class="cls-12" d="M158.31,31.61c.2-.52,.51-.94,1.06-1.14,.18,.18,.35,.35,.53,.53-.37,.35-.73,.71-1.1,1.06-.16-.15-.33-.3-.49-.45Z"/>
  <path class="cls-12" d="M142.1,158.37c-.23-.01-.45-.03-.68-.04,0-.38,0-.75,0-1.13,.25-.01,.51-.02,.76-.04-.03,.4-.05,.8-.08,1.21Z"/>
  <path class="cls-12" d="M159.38,30.47c.3-.25,.6-.51,.9-.76,.15,.16,.3,.33,.45,.49-.27,.27-.54,.54-.82,.8-.18-.18-.35-.35-.53-.53Z"/>
  <path class="cls-7" d="M368.39,67.29c-.02-.3-.04-.6-.05-.91,.81,.26,.84,.56,.05,.91Z"/>
  <path class="cls-12" d="M239.78,84.82c-.45,.19-.5,.51-.29,.91,.1-.3,.19-.61,.29-.91Z"/>
  <path class="cls-13" d="M364.53,72.99c.41-.35,.83-.32,1.26-.05-.41,.36-.82,.36-1.26,.05Z"/>
  <path class="cls-13" d="M359.01,73.17c.19-.39,.4-.44,.63-.04-.21,.01-.42,.03-.63,.04Z"/>
  <path class="cls-2" d="M147.01,166.54c0-.19,0-.37,0-.56,.06,.13,.14,.26,.18,.4,0,.03-.11,.11-.17,.16Z"/>
  <path class="cls-12" d="M184.85,104.71c-.03-.22-.06-.44-.09-.66,.07,.15,.15,.29,.19,.44,.02,.06-.07,.14-.1,.22Z"/>
  <path class="cls-9" d="M207.32,60.24c.12,.2,.24,.4,.37,.6-.12-.2-.24-.4-.37-.6Z"/>
  <path class="cls-8" d="M159.91,31c.27-.27,.54-.54,.82-.8,1.73-.08,3.09-1.29,4.9-1.38,3.08-.15,4.91,1.96,7.19,3.29,2.17,2.66,2.7,6.19,4.73,8.93,.76,3.35,1.61,6.67,2.25,10.04,1.2,6.34,1.47,12.79,1.99,19.2-.01,2.28-.02,4.55-.03,6.83q-.48,3.12,.71,3.72c.11,.82,.38,1.67-.35,2.37-1.59,.31-1.01,1.68-1.14,2.58-.34,2.4-.47,4.82-.69,7.24-1.25-.34-2.51-.68-3.76-1.03,.67-3.4,.88-6.86,1.47-10.28,.95-5.45,.75-11.04,.11-16.58-.73-4.91-1.46-9.82-2.21-14.73-.09-.58-.55-.64-1.03-.63-.52-.29-.56-.75-.44-1.27,1.28-.35,1.26-.95-.1-2.69,.02-.9-1.28-1.16-1.06-2.16,1.01,.2,1.05-.33,.83-1.07-.74-2.44-1.49-4.87-3.63-6.53,0,0,.03,.04,.03,.04-.02-1.42-.99-2.19-2.01-2.93l-.06,.08c-.04-.39-.3-.54-.65-.57-3.09-1.35-5.9,.51-8.85,.79-1.42-.35-.13-.92-.12-1.39,.37-.35,.73-.71,1.1-1.06Z"/>
  <path class="cls-12" d="M171.63,113.89c-9.9-1.84-19.48,.17-29.01,2.52-4.24,1.05-8.53,1.92-12.68,3.35-1.17,.4-2.55,.43-3.8,.31-7.35-.72-14.69-1.69-22.7-.08,1.67-1.86,3.54-1.04,5.09-2.01-5.2-2.11-10.46-2.88-15.82-3.34,5.29-.82,10.33,.55,15.48,2.01,.19-2.65-.72-5.14-.33-7.68,.2,0,.41,0,.61,0,.78,2.1,.39,4.3,.6,6.46,.19,2,1.13,2.89,3.16,2.85,3.19-.07,6.41-.21,9.53,.51,5.04,1.16,9.69-.37,14.4-1.67,.5-.14,.82-.36,.63-.94,.44-.03,.89-.07,1.33-.1,3.07,.27,5.84-1.15,8.78-1.62,3.75-.6,7.47-1.41,11.12-2.11-.64-1.91-2.89-1.7-3.54-3.34,1.43-.74,2.03,.66,2.92,1.19,1.09,.64,1.87,1.94,3.21,1.99,3.39,.11,6.79,.03,10.65,.75-2.34-3.27-3.37-6.39-4.37-9.64-.52-1.68,.14-4.33-2.4-5.28-3.31-1.24-6.02-3.36-8.31-6.02,.04-.29,.08-.58,.11-.87,1.15,1.03,2.33,2.03,3.44,3.1,1.27,1.23,2.99,1.66,4.4,2.62,1.84,1.26,3.12-.27,4.84-1.18-2.62,4.43-.83,12.66,3.29,16.29,1.05-.85,.42-2.48,1.9-3.99-.35,2.24-.58,3.73-.82,5.23-.34,.8-1.09,.63-1.74,.72Z"/>
  <path class="cls-12" d="M174.33,45.81c1.36,1.74,1.39,2.34,.1,2.69,.02-1.51-.92-1.01-1.64-.72-5.91,2.36-12.33,3.38-17.88,6.71-1.01,.6-1.28,1.43-1.55,2.38-.19-.22-.37-.44-.56-.65-.25-.24-.51-.51-.49,.15l.04-.03c-1.88,.46-3.91,.6-4.28,3.19-1.31,9.18-2.7,18.34-4.05,27.52-.34,0-.67,0-1.01,0,.73-1.38-.42-2.81,.09-4.16,1.26-3.37,.93-6.95,1.53-10.41,.12-.67,.34-1.61-.73-1.73-5.64-.67-11.45-3.9-16.72,1.09-.15-.15-.29-.31-.44-.46,1.9-1.57,3.81-3.14,5.71-4.71,.17,.16,.34,.32,.51,.48-.53,.64-.29,.97,.45,1.03,3.63,.31,7.23,.85,10.78,1.68,.75,.18,1.39,.16,1.54-.93,.47-3.4,1.04-6.79,1.6-10.42-3.53,1.26-6.63,2.85-9.68,4.54l-.5-.45c0-1.23-1.94-1.33-1.53-3.06,2.09,2.6,4.19,1.33,6.37,.25,5.43-2.69,10.9-5.3,16.35-7.95,1.17-.57,2.18-1.23,1.5-2.39,5.51,1.47,9.83-1.85,14.49-3.65Z"/>
  <path class="cls-12" d="M107.83,97.47c.15-3.02,1.45-5.72,3.13-8.02,2.58-3.54,4.2-7.73,7.84-10.98-1.72-.11-3.1-.19-5.25-.33,2.42-1.51,4.55,.06,6.16-.93,1.59-.98,2.55-2.85,4.5-3.41,.16,.16,.33,.33,.49,.49-7.74,6.12-12.81,14.1-16.3,23.19-.19,0-.38,0-.57,0Z"/>
  <path class="cls-11" d="M171.63,113.89c.64-.09,1.39,.08,1.74-.72,.7,.37,1.4,.75,2.1,1.12-.02,.24-.03,.48-.05,.73-5.02,.69-9.49,2.75-13.92,5.13-4.84,2.61-5.26,3.4-2.63,8.02,.09,.16,.15,.33,.23,.49l-.82,.09c-3.38-4.92-3.01-6,2.35-9.33,2.98-1.85,6.29-3.17,9.62-4.35,.55-.19,1.65,.06,1.39-1.17Z"/>
  <path class="cls-12" d="M153.13,133.29c1.11-1.17,2.75-1.38,4.03-2.22,.66-.44,1.95-.36,1.68-1.72,.16-.17,.31-.33,.47-.5,.46,.4,.93,.25,1.49,.17,2.64-.38,4.62-2.33,7.18-2.87,.14,.17,.29,.34,.43,.52-4.94,2.38-9.89,4.76-14.83,7.14l-.45-.51Z"/>
  <path class="cls-11" d="M158.92,33.45c2.95-.28,5.75-2.13,8.85-.79,.22,.19,.43,.38,.65,.57,0,0,.06-.08,.06-.08-.07,.24-.14,.48-.2,.73-2.14-1.43-4.24-.23-6.36,.08-.99,.15-1.99,.26-2.99,.38,0-.3,0-.6,0-.9Z"/>
  <path class="cls-12" d="M170.46,36.05c2.14,1.66,2.89,4.09,3.63,6.53,.23,.74,.18,1.28-.83,1.07,.09-2.28-1.93-3.68-2.44-5.71-.16-.63-.93-1.13-.37-1.9Z"/>
  <path class="cls-10" d="M107.83,97.47c.19,0,.38,0,.57,0,0,3.25,.02,6.5,.02,9.75,0,.26,0,.52,.01,.78,.02,.31,.03,.63,.05,.94-.2,0-.41,0-.61,0-.19-3.83-.42-7.66-.05-11.49Z"/>
  <path class="cls-12" d="M168.27,33.88c.07-.24,.13-.48,.2-.73,1.02,.74,1.99,1.51,2.01,2.93-1.43-.05-1.35-1.59-2.22-2.2Z"/>
  <path class="cls-12" d="M132.44,66.66c.56-.79,1.05-1.68,2.23-1.62,.16,.16,.32,.33,.49,.49l-2.2,1.62c-.17-.16-.34-.32-.51-.48Z"/>
  <path class="cls-12" d="M135.79,63.97c.45-.45,.9-.91,1.35-1.36,.17,.15,.33,.3,.5,.45-.45,.47-.9,.94-1.35,1.41l-.5-.49Z"/>
  <path class="cls-12" d="M134.67,65.04c.37-.36,.75-.71,1.12-1.07,.17,.16,.33,.33,.5,.49-.38,.36-.76,.71-1.13,1.07-.16-.16-.32-.33-.49-.49Z"/>
  <polygon class="cls-12" points="135.63 58.6 135.6 58.38 135.52 58.58 135.63 58.6"/>
  <path class="cls-12" d="M125.88,72.18c.28-.27,.57-.54,.85-.81,.15,.15,.29,.31,.44,.46-.26,.28-.52,.56-.78,.83l-.51-.49Z"/>
  <path class="cls-12" d="M125.01,72.99c.29-.27,.58-.54,.87-.81,.17,.16,.34,.32,.51,.49-.3,.26-.6,.51-.9,.77-.16-.15-.32-.3-.48-.44Z"/>
  <path class="cls-12" d="M124.21,73.79c.27-.27,.53-.53,.8-.8,.16,.15,.32,.3,.48,.44l-.79,.85c-.16-.16-.33-.33-.49-.49Z"/>
  <path class="cls-12" d="M158.28,128.74c.27-.03,.55-.06,.82-.09,.1,.03,.18,.09,.21,.19-.16,.17-.31,.33-.47,.5-.19-.2-.38-.4-.57-.61Z"/>
  <path class="cls-12" d="M250.72,70.13c2.55,.28,4.96,1.02,7.25,2.16,1.57,.79,3.22,1.07,4.99,1.05,11.5-.16,23-.25,34.5-.36,.19,.29,.38,.58,.57,.87,2.63,3.56,3.57,3.91,7.28,2.86,.8-.22,1.67-.81,2.5,.03-3.64,1.99-6.93,2.18-9.94-1.22-1.14-1.29-2.83-1.72-4.7-1.67-5.4,.15-10.8,.11-16.2,.15-.98,0-2.05-.22-2.48,1.11-.38,1.15,.42,1.64,1.12,2.17,5.51,4.22,11.67,7.35,17.87,10.36,1.81,.88,2.62-1.47,4.04-2.07,.55-.23,.41-1.25,1.25-1.28-.49,3.38-3.54,5.18-6.55,3.8-5.2-2.38-10.2-5.19-14.91-8.4-2.38-1.62-4.48-2.1-7.25-.89,4.72,5.22,8.95,10.86,15.81,13.49,1.01,.39,1.99,.9,2.94,1.43,2.97,1.66,3.61,1.4,4.54-1.93,.09-.33,.2-.65,.39-1.23,.97,1.35,.54,2.52-.14,3.3-1.33,1.54-.26,1.85,.82,2.67,4.37,3.33,6.79,1.5,9.22-1.63,3.05-3.91,6.05-7.89,8.01-12.54,1.02-2.41,2.79-4.49,3.72-6.99-1.95,7.55-6.25,13.86-11,20.17,1.47,.7,3-.13,4.26,.98-3.48-.12-6.37,1.52-9.44,2.6-.99,.35-2.21,.15-3.18-.46-5.32-3.36-11.11-5.8-16.65-8.74-2.02-1.07-3.43-2.83-4.62-4.49-2.41-3.36-5.83-5.4-8.83-7.99,.12-.14,.24-.29,.37-.43,1.87,1.24,3.8,.48,5.77,.31,1.66-.14,1.52-1.05,1.62-2.17,.15-1.71-1.1-1.13-1.82-1.14-2.73-.03-5.47,.05-8.2,.09-.52,0-1.16-.17-1.17,.69-.15,.15-.29,.31-.44,.46-3.26-1.46-6.35-3.38-9.96-3.96-.73-.12-2.03-.61-.8,.96-.29,.08-.58,.16-.87,.24-.49-.41-.98-.83-1.46-1.24,.59-.37,1.18-.75,1.77-1.12Z"/>
  <path class="cls-10" d="M305.22,72.89c14.63-.19,29.27-.39,43.9-.52,.63,0,2.07-.83,1.78,1.01-15.22,.09-30.43,.18-45.65,.27-.01-.25-.02-.51-.04-.76Z"/>
  <path class="cls-11" d="M250.41,72.49c.29-.08,.58-.16,.87-.24,1.91,1.78,4.39,3.08,5.14,5.87-.18,.12-.37,.23-.55,.35-1.34-2.43-3.84-3.8-5.46-5.98Z"/>
  <path class="cls-6" d="M305.22,72.89c.01,.25,.03,.51,.04,.76-2.4,.46-4.82,.24-7.23,.2-.19-.29-.38-.58-.57-.87,2.58-.31,5.17-.32,7.76-.1Z"/>
  <path class="cls-12" d="M264.93,76.75c-.66-.29-1.31-.58-1.97-.87l.51-.44c.8-.1,1.37,.33,1.92,.82-.16,.17-.31,.33-.47,.5Z"/>
  <path class="cls-12" d="M265.92,77.44c-.33-.23-.66-.46-.99-.69,.16-.17,.31-.33,.47-.5,.3,.25,.59,.5,.89,.76-.12,.14-.24,.29-.37,.43Z"/>
  <path class="cls-12" d="M262.97,75.87c-.31-.21-.62-.41-.92-.62,.15-.15,.29-.31,.44-.46,.33,.21,.66,.43,1,.64l-.51,.44Z"/>
  <path class="cls-10" d="M250.72,70.13c-.59,.37-1.18,.75-1.77,1.12-1.96-1.12-3.96-.04-5.94-.1,.42-.98,1.77-.61,2.28-1.53-1.68-.11-3.3-.21-4.92-.31-.93-1.8-2.64-.43-3.89-.96,.05-.33,.1-.66,.16-.99,.31-.02,.61-.04,.92-.05,6.06,.85,12.1,.93,18.11-.4,.12,1.52-.97,1.33-1.95,1.46-1.04,.14-2.42-.58-3.01,.99-1.33,.12-2.65,.23-3.98,.35,0,.06,0,.12,0,.18l3.99,.25Z"/>
  <path class="cls-5" d="M255.66,66.91c-6.01,1.33-12.05,1.25-18.11,.4,.14-.51-1.79-.52-.49-.99,2.36-.85,4.16-2.51,6.32-3.61,.29-.26,.58-.51,.87-.77,.88-.38,1.5-1.05,2.09-1.76,.96-.89,2.4-1.17,3.07-2.42,1.02-.79,2.04-1.58,1.11-3.07-.16-.27-.33-.55-.49-.82-.12-.46-.24-.92-.37-1.38l-.04,.04c1.58-.36,2.53-1.47,3.34-2.76l-.03,.03c2.12-.26,3.17-1.93,4.43-3.31l-.03,.03c.85-.84,2.58-.59,2.77-2.23l-.03,.03c.19,0,.38,0,.57,0,4.14-3.05,9.23-3.69,13.88-5.42,2.12-.79,4.35-1.27,6.54-1.89,1.99-.48,3.99-.97,5.98-1.45,2.89-.46,5.78-.89,8.66-1.37,6.73-1.13,12.86,.5,18.62,3.93,6.48,3.86,12.86,7.86,18.69,12.67,.71,.59,1.39,1.2,2.39,1.2,2.13,3.02,5.39,4.87,7.88,7.51,1.63,2.04,4.16,3.24,5.3,5.73,0,.45,0,.89,0,1.34-11.62,.11-23.25,.18-34.87,.38-1.51,.03-2.22-.67-2.74-1.74-1.64-3.39-4.37-5.98-6.49-9.02-.36-.51-.83-1.22-1.33-1.31-2.09-.35-1.62-1.48-.91-2.64,.26-.43,.59-.69-.01-1.02-.3-.16-.81-.38-.88,.1-.7,4.92-4.61,2.84-7.32,3.37-.36,.07-.72,.09-1.08,.14-4.64,.27-9.28,.45-13.9,.84-1.95,.17-3.45,.3-3.05-2.36,.09-.59-.3-1.16-.9-1.15-1.02,.03-.73,.91-.6,1.43,.5,1.98-.53,2.86-2.12,3.79-1.98,1.16-4.37,1.8-5.7,3.91l.03-.02c-.43-.04-.66,.12-.58,.58h0c-3.49,1.68-6.97,3.38-10.46,5.08Z"/>
  <path class="cls-5" d="M293.07,55.71c2.28-.09,4.58-.06,6.85-.29,2.08-.21,3.51,.53,4.56,2.27,1.85,3.07,4.72,5.45,6.28,9.41-8.66-.92-17.15,2.02-25.38-1.46h.02c-.09-.75-.44-.98-1.13-.55l.04,.04c.19-.58,.14-.92-.58-.59l.02,.03c.14-.47,.28-.94,.41-1.4,.09-.28,.43-.59,.06-.86-.4-.29-.53,.13-.7,.37-.3,.2-.61,.61-.89,.58-4.63-.47-9.23-1.13-13.77-2.57,3.09-2.46,6.26-4.05,10.04-4.23,4.73-.22,9.45-.5,14.18-.76Zm-7.68,5.03c.18-.46,1.17-.35,.85-1.1-.18-.43-.57-.28-.85,.03-.52,.02-.71,.37-.68,.8,.04,.41,.33,.47,.67,.26Zm-.55,.82c-.06-.06-.14-.18-.18-.17-.13,.03-.25,.11-.37,.17,.06,.06,.13,.18,.18,.17,.13-.03,.25-.11,.37-.17Z"/>
  <path class="cls-5" d="M285.38,65.66c-.66,.82,.68,.87,.55,1.74h-28.57c2.25-1.17,4.38-2.25,6.5-3.37,.96-.51,2.25-.72,2.27-2.2,0,0,0,.01,0,.01,.58,.19,.96,.18,.58-.58,0,0-.03,.02-.03,.02,5.61,1.52,11.36,2.32,17.07,3.31,0,0-.02-.03-.02-.03-.1,.49,.17,.61,.58,.59,0,0-.04-.04-.04-.04,.24,.47,.35,1.18,1.13,.56h-.02Z"/>
  <path class="cls-12" d="M283.74,64.58c-5.71-.99-11.46-1.79-17.07-3.31,1.33-2.11,3.72-2.76,5.7-3.92,1.59-.93,2.62-1.81,2.12-3.79-.13-.52-.42-1.41,.6-1.43,.6-.02,.99,.56,.9,1.15-.4,2.66,1.1,2.53,3.05,2.36,4.62-.4,9.27-.58,13.9-.84,.04,.3,.08,.61,.12,.91-4.73,.26-9.45,.54-14.18,.76-3.78,.18-6.95,1.76-10.04,4.23,4.54,1.44,9.13,2.11,13.77,2.57,.27,.03,.59-.38,.89-.58,.22,.16,.43,.32,.65,.49-.14,.47-.28,.94-.41,1.4Z"/>
  <path class="cls-1" d="M243,71.15c1.98,.07,3.98-1.01,5.94,.1,.49,.41,.98,.83,1.46,1.24,1.62,2.18,4.12,3.55,5.46,5.98,.64,2.22,1.87,4.63-.6,6.41-2.45,1.77-5.06,3.53-8.39,2.13,0,0,.04,.04,.04,.04-.97-2.39-2.04-4.72-3.88-6.61,0,0,.03,.03,.03,.03,.38-1.12-.92-1-1.2-1.63-.39-.99-.68-2.04-1.52-2.78-.87-1.62-.04-2.76,1.07-3.82,0,0-.02,.03-.02,.03,.39-.64,1.74,.12,1.68-1.15l-.08,.02Z"/>
  <path class="cls-5" d="M256.77,100.74c1.73,4.45-1.33,9.33-6.74,10.34,1.18-3.15,1.81-6.31,2.19-9.5,.08-.67,.98-2.09-.94-1.95l.04,.04c-1.77-1.73-1.51-3.43,.22-5.22,1.75,2.11,3.51,4.22,5.27,6.34,0,0-.04-.04-.04-.04Z"/>
  <path class="cls-2" d="M251.28,99.63c.25,3.24-.61,6.31-1.52,9.37-.21,.69-.25,1.82-1.44,1.58-1.42-.29-.91-1.7-.66-2.22,1.11-2.3,.97-4.78,1.21-7.17,.19-1.92,.86-2.24,2.45-1.52,0,0-.04-.04-.04-.04Z"/>
  <path class="cls-12" d="M243.04,80.45c1.84,1.88,2.9,4.22,3.88,6.61-2.2-1.67-3.37-3.94-3.88-6.61Z"/>
  <path class="cls-10" d="M241.87,78.85c.28,.63,1.58,.51,1.2,1.63-.43,.61-1.08,.25-1.62,.38,.08-.68-.15-1.43,.41-2.01Z"/>
  <path class="cls-5" d="M175.47,114.29c-.7-.37-1.4-.75-2.1-1.12,.23-1.5,.47-3,.82-5.23-1.48,1.51-.86,3.14-1.9,3.99-4.12-3.64-5.91-11.86-3.29-16.29-1.71,.91-3,2.44-4.84,1.18-1.41-.96-3.13-1.39-4.4-2.62-1.11-1.07-2.29-2.07-3.44-3.1-.87-.64-1.74-1.27-2.62-1.91-1.83-1.66-1.57-3.91-1.36-6.57-1.07,1.09-1.14,1.91-1.13,2.71,0,1.04-.68,1.18-1.45,1.22-1.32,.06-.79-.96-.76-1.52,.09-1.73,.27-3.46,.49-5.18,1.01-8.12,1.81-8.5,9.53-5.04,1.74,.78,3.43,1.87,5.46,1.84l-.05-.03c2.05,1.93,4.55,3.02,7.18,3.86l-.02-.02c.02,1.27,1.01,1.02,1.77,1.14,.21,.27,.43,.54,.64,.82l.16,.1c.12,.09,.21,.2,.28,.33,2.12,2.66,1.77,5.61,1,8.6-4.03-1.71-6.91-4.81-9.73-7.98-.36-.41-.65-1.09-1.24-.73-.85,.51-.14,1.21,.18,1.59,2.28,2.67,4.65,5.2,7.73,7.06,2.37,1.43,4.97,2.2,7.49,3.2,.34,3.42-.79,6.68-1.06,10.04-.74,2.99-1.51,5.98-2.21,8.99-.17,.71-.52,.83-1.12,.7Zm.08-16.49c-.86,2.71-1.52,5.43-1.3,8.26,.95-2.69,1.63-5.41,1.3-8.26Z"/>
  <path class="cls-12" d="M175.43,91.43c.77-2.99,1.13-5.94-1-8.6,.43,.21,.86,.42,1.29,.63,.2,.08,.57,.27,.59,.24,.18-.3,.01-.46-.29-.53,1.36-2.88,.03-5.91,.51-8.84,.06-.39-.27-.74-.64-.73-1.65,.04-3.36-.93-4.93,.28-.25,.05-.5,.1-.75,.15-.59-1.91,.76-2.07,1.87-1.67,1.27,.46,2.48,.17,3.7,.3,1.77,.18,1.45-1.1,1.06-1.93-.41-.89-1.29-1.5-2.44-1.14-2.03-.04-4.05-.08-6.08-.12-.02-.15-.03-.31-.02-.46,1.73-.1,3.48-.4,5.18-.26,2.83,.24,4.07-.7,3.35-3.6,.43,0,.86-.02,1.28-.03,.63,5.53,.83,11.13-.11,16.58-.59,3.42-.8,6.88-1.47,10.28-.47,.02-.88-.07-1.09-.55Z"/>
  <path class="cls-5" d="M183.68,101.3c.5,1.49-.58,2.1-1.56,2.75-1.46,1.41-1.1,3.22-1.09,4.95-.04,2.88-.57,5.78,.56,8.59,.55,1.36-.7,1.45-1.44,1.68-1.05,.32-1.07-.4-1.39-1.29-1.68-4.62,.49-8.92,.82-13.35,.79-3.39,1.48-6.78,1.24-10.29,.47,.13,1.02,.18,.94,.89,.68,2.01,.06,4.43,1.92,6.08Z"/>
  <path class="cls-11" d="M180.82,94.33c.24,3.51-.45,6.9-1.24,10.29-.26,0-.52-.02-.78-.03,.26-3.35,1.4-6.62,1.06-10.04,.2-.58,.56-.47,.96-.23Z"/>
  <path class="cls-11" d="M182.11,83.19c-.25,3.31-.49,6.62-.74,9.93-.36-.04-.73-.08-1.09-.12,.22-2.41,.35-4.84,.69-7.24,.13-.9-.45-2.27,1.14-2.58Z"/>
  <path class="cls-5" d="M153.58,133.8c4.94-2.38,9.89-4.76,14.83-7.14,.59-.18,1.17-.37,1.78-.55,.13,3.19-2.21,7.27-4.92,8.24-1.1,.4-2.33-.78-3.56-.15-1.06,.02-1.64,.54-1.67,1.62-.31,.07-.84-.09-.58,.56l.03-.03c-.55-.16-.9-.12-.58,.58l.04-.03c-1.33-.23-2.02,.39-2.23,1.66h.01c-1.39-.23-2.25,.42-2.77,1.65l.03-.02c-.41-.03-.67,.09-.58,.57l.02-.02c-.44-.06-.62,.14-.57,.57l.02-.02c-.46-.07-.58,.19-.58,.58l.02-.03c-.57,.19-1.09,.41-.56,1.14l.05-.03c-2.11,.94-2.69,.16-2.78-2.02-.15-3.55,2.06-5.37,4.54-7.13Z"/>
  <path class="cls-2" d="M160.04,135.82c.03-1.08,.61-1.6,1.67-1.62,1.69,.63,2.99,1.38,.93,3.12-3.43,1.99-5.96,5.27-9.71,6.81-.48,.2-1.03,.75-1.45,.25-.19-.22,.21-.94,.34-1.43,0,0-.05,.03-.05,.03,.58-.19,1.08-.42,.56-1.14,0,0-.02,.03-.02,.03,.62,.23,.89,.11,.58-.58,0,0-.02,.02-.02,.02,.65,.26,.78,.01,.57-.57,0,0-.02,.02-.02,.02,.72,.34,.78,.02,.58-.57,0,0-.03,.02-.03,.02,1.24-.03,2.31-.34,2.77-1.66,0,0-.01,.01-.01,.01,1.05-.14,1.73-.78,2.23-1.66,0,0-.04,.03-.04,.03,.4,0,.67-.11,.58-.58l-.03,.03c.49,.12,.56-.2,.58-.56Z"/>
  <path class="cls-11" d="M182.56,35.4c0-.28,0-.56,0-.84,2.04-.28,3.96-1.2,6.07-1.1,.16,.19,.31,.38,.47,.56-2.16,.57-4.3,1.24-6.55,1.38Z"/>
  <path class="cls-5" d="M211.74,67.79c.01-.18-.01-.35-.07-.52-.61-1.01-.43-2.16-.58-3.25,.2-.23,.41-.46,.61-.69,.39-.49,1.53-.42,1.14-1.5,0,0-.03,.03-.03,.03,.76,.59,.93-.01,1.13-.56,0,0-.04,.02-.04,.02,2-.5,3.48-1.8,4.9-3.19,.38-.38,1.05-.91,.98-1.24-1.01-4.77,3.44-4.66,5.77-6.13,2.23-1.4,5.04-1.88,7.6-2.77,8.39-2.3,16.96-3.53,25.57-4.59,.5-.06,1.11-.26,1.51,.31-.05,.19-.1,.38-.15,.57l.03-.03c-1.53,0-2.56,.61-2.77,2.23,0,0,.03-.03,.03-.03-2,.41-3.41,1.61-4.43,3.31,0,0,.03-.03,.03-.03-1.83,.05-2.58,1.41-3.34,2.76,0,0,.04-.04,.04-.04-1.08,.3-2.19,.54-2.83,1.61-1.02,.82-2.04,1.65-3.05,2.47-.27,.27-.54,.53-.82,.8-1.13-.32-1.49,1.21-2.52,1.1-.33-.75,.3-1.63-.76-2.54,.56,3.44-1.87,4.53-3.97,5.85-.58,.23-1.17,.46-1.75,.69-1.27,.33-1.78-.99-3.03-1.63v3.25c-3.02,1.65-6.31,2.52-9.65,3.18-.74,.15-1.46,.14-1.48,1.13-.33,.04-.65,.08-.98,.12-2.3-.86-4.72-.58-7.09-.73Z"/>
  <path class="cls-12" d="M212.85,61.83c.38,1.08-.76,1.01-1.14,1.5-.28,.05-.57,.1-.85,.14-.11-.17-.22-.34-.33-.51,.89-.15,1.31-1.26,2.33-1.14Z"/>
  <path class="cls-2" d="M210.85,63.48c.28-.05,.57-.1,.85-.14-.2,.23-.41,.46-.61,.69-.08-.18-.16-.36-.23-.54Z"/>
  <path class="cls-12" d="M260.08,44.3c.05-.19,.1-.38,.15-.57,.14,.19,.28,.38,.42,.58-.19,0-.38,0-.57,0Z"/>
  <path class="cls-1" d="M159.32,128.85c-.04-.1-.11-.17-.21-.19-.07-.16-.14-.34-.23-.49-2.63-4.62-2.21-5.41,2.63-8.02,4.42-2.38,8.89-4.45,13.92-5.13,2.21,.93,2.97,2.29,1.31,4.37-.84,1.05-1.7,2.09-2.55,3.14-2.07,1.21-4.14,2.42-6.21,3.63-2.56,.54-4.54,2.49-7.18,2.87-.56,.08-1.03,.23-1.49-.17Z"/>
  <path class="cls-8" d="M174.72,123.07c1.41-.13,.11,.98,.58,1.28-.67,2.04-.48,4.16-.43,6.24,.23,9.46,.43,18.93,2.25,28.27-1.77,.34-2.23,1.62-2.3,3.18-.5-1.84-1-3.67-1.5-5.51-.9-7.92-2.35-15.79-2.21-23.81,0-.36-.02-.73-.03-1.09-.09-3.4-.6-6.97,3.62-8.56Z"/>
  <path class="cls-8" d="M174.82,162.03c.07-1.56,.53-2.84,2.3-3.18,1.26,.61,1.67,1.8,.75,2.63-.63,.57-1.69,2.57-3.05,.55Z"/>
  <path class="cls-10" d="M181.03,109c-.01-1.73-.37-3.54,1.09-4.95,.72,.09,1.66-.54,2.05,.62-1.6-.62-1.89,.49-2.04,1.62-.15,1.07-.15,2.15-.22,3.23-.29-.17-.58-.35-.88-.52Z"/>
  <path class="cls-10" d="M183.09,74.33c-.97,.79-.24,1.92-.55,2.84-.27-.02-.53-.04-.8-.06,.01-2.28,.02-4.55,.03-6.83,.39-.53,0-1.36,.71-1.76,.06,.35,.13,.7,.19,1.05-.02,.36-.03,.72-.05,1.08,0,.86,0,1.71,0,2.57,.15,.37,.3,.74,.45,1.11Z"/>
  <path class="cls-1" d="M188.64,33.45c-2.11-.09-4.03,.82-6.07,1.1-1.61,.19-3.19,.81-4.85,.28-.98-.31-1.65-1.11-1.57-1.98,.09-1.03,1.19-.48,1.81-.5,3.09-.07,6.19-.09,9.29-.01,.53,.01,2.08-.66,1.4,1.11Z"/>
  <path class="cls-3" d="M182.64,73.22c0-.86,0-1.71,0-2.57,3.46-.16,6.91-.43,10.37-.47,13.04-.14,26.09-.21,39.13-.31,1.08,0,2.2,.16,3.2-.45,.37,0,.74,0,1.12,0,1.31,.19,2.62,.38,3.91-.11,1.62,.1,3.24,.2,4.92,.31-.51,.92-1.87,.55-2.28,1.53,0,0,.08-.02,.08-.02-.82,0-1.92-.39-1.68,1.15,0,0,.02-.03,.02-.03-6.96,3-14.3,1.07-21.45,1.55-4.74,.32-9.5,.16-14.26,.21-1.08-.04-2.16-.14-3.23-.1-.67,.03-1.8-.34-1.49,1.1-.37,0-.74,.01-1.12,.02-.1-1.53-1.31-.95-2.04-.96-5.08-.07-10.15-.16-15.19-.85Z"/>
  <path class="cls-13" d="M200.99,75.01c-.31-1.44,.82-1.07,1.49-1.1,1.07-.04,2.15,.06,3.23,.1,0,.26,.01,.52,.02,.78-1.58,.07-3.16,.15-4.75,.22Z"/>
  <path class="cls-12" d="M213.94,61.3c-.19,.55-.36,1.15-1.13,.56,.13-.69,.4-1.08,1.13-.56Z"/>
  <path class="cls-3" d="M235.34,69.43c-1,.61-2.12,.44-3.2,.45-13.04,.1-26.09,.17-39.13,.31-3.46,.04-6.92,.31-10.37,.47,.02-.36,.03-.72,.05-1.08,3.28-.23,6.57-.46,9.85-.69,0,0-.04,.11-.04,.11,.47,.57,1.13,.48,1.75,.49,5.98,.01,11.95,.02,17.93,.03,.63,0,1.28,.06,1.74-.52,.72,0,1.45,0,2.17,0,.98,.7,1.92,.93,2.75-.22-.1-.07-.11-.15-.02-.24,.33-.04,.65-.08,.98-.12,.22,.01,.44,.02,.66,.03,.28,1.22,.89,1.34,1.78,.53,3.82-.23,7.67,.39,11.46-.47,.71-.16,1.52-.11,1.63,.94Z"/>
  <path class="cls-7" d="M213.93,68.98c-.46,.58-1.11,.52-1.74,.52-5.98,0-11.95-.01-17.93-.03-.62,0-1.28,.09-1.75-.49,7.14,0,14.29,0,21.43,0Z"/>
  <path class="cls-7" d="M218.85,68.76c-.83,1.16-1.77,.93-2.75,.22,.92-.07,1.84-.15,2.75-.22Z"/>
  <path class="cls-2" d="M348.62,62.34c-.1,.82,1.03,.93,1.09,2.09-.8-.74-2.28-.66-1.06-2.08,0,0-.03-.01-.03-.01Z"/>
  <path class="cls-11" d="M176.82,65.15c-.65-5.13-1.3-10.26-1.95-15.39,.48-.01,.94,.05,1.03,.63,.74,4.91,1.47,9.82,2.21,14.73-.43,0-.86,.02-1.28,.03Z"/>
  <path class="cls-11" d="M181.75,77.1c.27,.02,.53,.04,.8,.06-.03,1.22-.06,2.44-.08,3.66q-1.2-.6-.71-3.72Z"/>
  <path class="cls-12" d="M168.42,33.23c-.22-.19-.43-.38-.65-.57,.35,.03,.61,.18,.65,.57Z"/>
  <path class="cls-5" d="M124.7,74.28l.79-.85c.3-.26,.6-.51,.9-.77,.26-.28,.52-.56,.78-.83,5.27-4.99,11.08-1.77,16.72-1.09,1.07,.13,.85,1.07,.73,1.73-.6,3.46-.27,7.04-1.53,10.41-.51,1.36,.64,2.79-.09,4.16,0,0-.01,.01-.01,.01-.28,.05-.51,.13-.4,.5,.04,1.15-.84,1.87-1.64,1.63-3.49-1.06-7.14,.06-10.61-.95-3.07-.18-3.67-3.13-5.39-4.82-.64-.63-.89-2.03-2.68-1.08,1.9,1.01,2.68,2.65,3.77,4.03,1.13,1.42,2.37,2.6,4.29,2.76,3.44,.96,9.17,.71,12.66,.88,1.06,1.26-1,2-.59,4.17,.07,2.76,.13,5.52,.2,8.28-3.66,.01-7.27-.54-10.93-.77,3.61,1.67,7.45,1.77,11.32,1.72,1.21,1.67,2.85,2.98,4.88,2.99,2.65,.02,4.75,.94,6.66,2.6l-.04-.03c.65,1.65,2.9,1.43,3.54,3.34-3.65,.7-7.37,1.51-11.12,2.11-2.94,.47-5.7,1.89-8.78,1.62-1.62-1.02-3.12-2.25-5.04-2.71,0,0-.07-.05-.07-.05l.09,.07c.49,1.9,2.39,1.96,3.69,2.79,.19,.58-.13,.8-.63,.94-4.71,1.29-9.37,2.82-14.4,1.67-3.12-.72-6.35-.58-9.53-.51-2.03,.04-2.97-.84-3.16-2.85-.21-2.15,.18-4.36-.6-6.46-.02-.31-.03-.63-.05-.94,.26-.26,.22-.52-.01-.78,0-3.25-.02-6.5-.02-9.75,3.49-9.09,8.57-17.07,16.3-23.19Zm6.13,25.65c-1.08-2.1-2.17-4.21-3.55-6.89-.31,3.54,1.43,5.34,3.55,6.89Z"/>
  <path class="cls-5" d="M156.2,91.95c2.29,2.66,5,4.78,8.31,6.02,2.54,.95,1.88,3.6,2.4,5.28,1,3.25,2.04,6.37,4.37,9.64-3.85-.71-7.25-.63-10.65-.75-1.33-.04-2.12-1.35-3.21-1.99-.9-.53-1.5-1.92-2.92-1.19,0,0,.04,.03,.04,.03,.55-1.24-.77-1.38-1.24-1.99-1.4-1.82-3.2-3.36-3.85-5.69,0-1.05,.69-1.75,1.2-2.57,.26-.42,.93-1.24,.13-1.65-.89-.46-1.14,.45-1.53,1.07-.5,.8-.05,2.07-1.27,2.48-.22-3.36,.14-6.68,.52-10.01,.13-1.14-.42-2.49,1.42-3.08,1.88-.61,1.9,1.21,2.88,1.72,.89,1.19,1.84,2.31,3.38,2.68Z"/>
  <path class="cls-11" d="M133.1,113.33c1.92,.46,3.42,1.69,5.04,2.71-.44,.03-.89,.07-1.33,.1-1.3-.83-3.2-.89-3.69-2.79l-.02-.02Z"/>
  <path class="cls-11" d="M156.2,91.95c-1.54-.37-2.49-1.49-3.38-2.68,.29-.03,.59-.06,.88-.1,.87,.64,1.74,1.27,2.62,1.91-.04,.29-.08,.58-.11,.87Z"/>
  <path class="cls-8" d="M143.87,90.07c.06-1.11,.1-2.07,.15-3.04,1.36-9.17,2.74-18.34,4.05-27.52,.37-2.59,2.4-2.74,4.28-3.19-.09,.9-.13,1.8-.3,2.69-.78,4.05-1.6,8.1-2.4,12.14-1.16,6.42-1.64,12.93-2.11,19.42-.26,3.62-1.44,7.34,.09,10.97,.88,1.33,1.75,2.66,2.63,3.98-5.07,.4-7.56-2.42-7.05-8.04,.17-1.84,.6-3.67-.26-5.91"/>
  <path class="cls-4" d="M135.16,65.53c.38-.36,.76-.71,1.13-1.07,.45-.47,.9-.94,1.35-1.41,3.05-1.7,6.15-3.28,9.68-4.54-.57,3.63-1.13,7.02-1.6,10.42-.15,1.09-.78,1.11-1.54,.93-3.55-.83-7.15-1.37-10.78-1.68-.74-.06-.98-.39-.45-1.03,.73-.54,1.47-1.08,2.2-1.62Z"/>
  <path class="cls-11" d="M144.02,87.04c-.05,.96-.1,1.93-.15,3.04-1.03-.82-2.05-.58-3.07-.26-3.49-.17-7.02,.27-10.46-.69,0-.3,0-.59,0-.89,3.47,1,7.12-.12,10.61,.95,.8,.24,1.69-.48,1.64-1.63,.13-.17,.27-.33,.4-.5,0,0,.01-.01,.01-.01,.34,0,.67,0,1.01,0Z"/>
  <path class="cls-11" d="M149.66,71.16c.8-4.05,1.62-8.09,2.4-12.14,.17-.88,.2-1.79,.3-2.69,0,0-.04,.03-.04,.03,.18,.02,.35-.03,.49-.15,.19,.22,.37,.44,.56,.65-.62,3.63-1.22,7.27-1.88,10.9-.21,1.17-.38,2.29,.22,3.39-.68,0-1.36,0-2.05,0Z"/>
  <path class="cls-1" d="M152.8,56.22c-.14,.12-.3,.17-.49,.15-.02-.65,.24-.38,.49-.15Z"/>
  <path class="cls-12" d="M108.42,107.22c.24,.26,.27,.52,.01,.78,0-.26,0-.52-.01-.78Z"/>
  <path class="cls-5" d="M263.48,75.43c-.33-.21-.66-.43-1-.64,.01-.86,.65-.68,1.17-.69,2.73-.04,5.47-.13,8.2-.09,.72,0,1.98-.58,1.82,1.14-.1,1.12,.04,2.03-1.62,2.17-1.97,.17-3.9,.93-5.77-.31-.3-.25-.59-.5-.89-.76-.55-.48-1.12-.92-1.92-.82Z"/>
  <path class="cls-11" d="M235.34,69.43c-.11-1.05-.93-1.1-1.63-.94-3.8,.86-7.65,.24-11.47,.47-.46-.61-1.15-.48-1.78-.53-.22-.01-.44-.02-.66-.03,.02-1,.74-.99,1.48-1.13,3.34-.66,6.63-1.53,9.65-3.18-.14,.35,1.44,.55,0,1.12-2.06,.8-4.02,1.88-6.19,2.54,3.73-.18,7.46,.77,11.12-.42,.26,.01,.52,.03,.77,.04-.05,.33-.1,.66-.16,.99,0,.36-.01,.71-.02,1.07-.37,0-.74,0-1.12,0Z"/>
  <path class="cls-12" d="M236.63,67.36c-.26-.01-.52-.03-.77-.04-1.05-.7-1.69-1.59-1.15-2.9,.39-.92-.09-1.46-.74-1.97,.58-.23,1.17-.46,1.75-.69,.63,.18,.73,.68,.75,1.22-.24,.82-1.17,1.41-.8,2.59,1.11-.08,2.08-.45,3.08-.92,1.47-.69,2.39-2.32,4.19-2.42,.15,.16,.31,.31,.46,.47-2.16,1.1-3.96,2.76-6.32,3.61-1.3,.47,.63,.48,.49,.99-.31,.02-.61,.04-.92,.05Z"/>
  <path class="cls-3" d="M236.46,69.42c0-.36,.01-.71,.02-1.07,1.24,.53,2.96-.84,3.89,.96-1.29,.49-2.6,.3-3.91,.11Z"/>
  <path class="cls-12" d="M252.94,49.79c1.03-1.7,2.43-2.91,4.43-3.31-1.27,1.38-2.32,3.06-4.43,3.31Z"/>
  <path class="cls-12" d="M249.63,52.52c.75-1.35,1.5-2.71,3.34-2.76-.8,1.29-1.76,2.4-3.34,2.76Z"/>
  <path class="cls-11" d="M249.42,57.76c-.68,1.25-2.11,1.53-3.07,2.42-.03-.28-.06-.55-.1-.83,.6-1.07,1.57-1.66,2.67-2.08,.16,.16,.33,.32,.49,.49Z"/>
  <path class="cls-12" d="M257.34,46.5c.21-1.62,1.25-2.23,2.77-2.23-.19,1.65-1.92,1.4-2.77,2.23Z"/>
  <path class="cls-10" d="M246.84,54.09c.64-1.07,1.75-1.31,2.83-1.61,.12,.46,.24,.92,.37,1.38-.15,.09-.29,.19-.41,.31-.89-.6-1.6,.17-2.39,.33-.13-.14-.27-.27-.4-.41Z"/>
  <path class="cls-11" d="M250.53,54.68c.93,1.49-.09,2.28-1.11,3.07-.16-.16-.33-.32-.49-.49,.47-.81,1.37-1.48,.84-2.61,.25,0,.51,.01,.76,.02Z"/>
  <path class="cls-12" d="M246.25,59.35c.03,.28,.06,.55,.1,.83-.59,.71-1.22,1.38-2.09,1.76-.17-.16-.34-.33-.51-.49,.83-.7,1.67-1.4,2.5-2.09Z"/>
  <path class="cls-12" d="M244.26,61.93c-.29,.26-.58,.51-.87,.77-.15-.16-.31-.31-.46-.47,.27-.26,.55-.53,.82-.79,.17,.16,.34,.33,.51,.49Z"/>
  <path class="cls-12" d="M266.7,61.25c.38,.77,0,.77-.58,.58-.07-.46,.15-.62,.58-.58Z"/>
  <path class="cls-10" d="M250.53,54.68c-.25,0-.51-.01-.76-.02-.12-.14-.16-.31-.14-.49,.12-.12,.26-.22,.41-.31,.16,.27,.33,.55,.49,.82Z"/>
  <path class="cls-11" d="M285.39,59.67c.28-.31,.67-.46,.85-.03,.32,.75-.67,.64-.85,1.1,0-.35,0-.71,0-1.06Z"/>
  <path class="cls-5" d="M285.39,59.67c0,.35,0,.71,0,1.06-.34,.21-.64,.15-.67-.26-.04-.43,.15-.79,.68-.8Z"/>
  <path class="cls-11" d="M285.39,65.67c-.78,.62-.9-.09-1.13-.56,.69-.44,1.04-.21,1.13,.56Z"/>
  <path class="cls-12" d="M284.3,65.14c-.41,.02-.68-.1-.58-.59,.73-.33,.78,0,.58,.59Z"/>
  <path class="cls-12" d="M283.51,62.69c.17-.24,.3-.66,.7-.37,.37,.27,.03,.57-.06,.86-.21-.16-.43-.32-.65-.49Z"/>
  <path class="cls-12" d="M284.83,61.56c-.12,.06-.24,.14-.37,.17-.05,0-.12-.11-.18-.17,.12-.06,.24-.14,.37-.17,.05-.01,.12,.11,.18,.17Z"/>
  <path class="cls-10" d="M241.4,72.28c-.24-1.55,.86-1.15,1.68-1.15,.05,1.28-1.3,.51-1.68,1.15Z"/>
  <path class="cls-4" d="M158.38,73.38c.97-1.06,2.24-.4,3.36-.58,1.59,3.03,4.62,3.24,7.47,3.73,.76,.13,1.73,.42,2.26-.43,.51-.82,.03-1.56-.52-2.22,1.58-1.21,3.29-.25,4.93-.28,.37,0,.71,.34,.64,.73-.48,2.93,.85,5.97-.51,8.84-.1,.09-.2,.19-.3,.29-.43-.21-.86-.42-1.29-.63-.07-.13-.16-.24-.28-.32,0,0-.16-.1-.16-.1-.21-.27-.43-.54-.64-.82-.23-.93-.73-1.46-1.77-1.14,0,0,.02,.02,.02,.02-1.93-2.14-4.4-3.3-7.18-3.86,0,0,.05,.03,.05,.03-1.65-1.79-4.35-1.62-6.09-3.26Z"/>
  <path class="cls-12" d="M158.38,73.38c1.74,1.63,4.44,1.46,6.09,3.26-2.04,.03-3.72-1.06-5.46-1.84-7.72-3.46-8.52-3.08-9.53,5.04-.21,1.72-.4,3.45-.49,5.18-.03,.55-.55,1.58,.76,1.52,.77-.03,1.45-.18,1.45-1.22,0-.8,.06-1.62,1.13-2.71-.21,2.66-.47,4.91,1.36,6.57-.29,.03-.59,.06-.88,.1-.98-.51-1-2.33-2.88-1.72-1.84,.59-1.28,1.94-1.42,3.08-.38,3.32-.74,6.65-.52,10.01-.02,.22-.04,.44-.06,.66-.1,.08-.2,.16-.3,.25-1.53-3.63-.35-7.35-.09-10.97,.46-6.49,.94-13,2.11-19.42,.68,0,1.36,0,2.05,0,2.06,1.25,4.49,1.37,6.68,2.22Z"/>
  <path class="cls-10" d="M176,92c.33,2.85-.8,13.36-1.75,16.05-.22-2.83,.9-13.34,1.75-16.05Z"/>
  <path class="cls-12" d="M164.42,76.6c2.79,.56,5.25,1.72,7.18,3.86-2.64-.84-5.14-1.93-7.18-3.86Z"/>
  <path class="cls-12" d="M171.58,80.44c1.04-.32,1.54,.21,1.77,1.14-.76-.12-1.76,.13-1.77-1.14Z"/>
  <path class="cls-12" d="M173.99,82.4s.16,.1,.16,.1c0,0-.16-.1-.16-.1Z"/>
  <path class="cls-12" d="M182.64,73.22c5.04,.69,10.11,.78,15.19,.85,.74,.01,1.95-.57,2.04,.96-5.61,.07-11.2-.23-16.78-.7-.15-.37-.3-.74-.45-1.11Z"/>
  <path class="cls-3" d="M174.39,69.6c1.16-.36,2.03,.25,2.44,1.14,.39,.83,.7,2.11-1.06,1.93-1.23-.13-2.43,.17-3.7-.3-1.11-.4-2.46-.24-1.87,1.67-.05,.55,.87,1.61-.58,1.46-1.83-.18-3.78-.11-5.23-1.6,1.1-.71,2.08,.98,3.4,.04-1.18-.72-4.03-1.29-.65-2.78l1.63-.14c1.71-1.09,4.11,.52,5.61-1.42Z"/>
  <path class="cls-11" d="M168.78,71.02c-.54,.05-1.09,.09-1.63,.14-.21-.5-.67-.48-1.1-.51-.64-.13-1.24-.13-1.65,.5l.03-.02c-2.19,.92-2.17,1.85-.01,2.8l-.02-.02c1.44,1.49,3.4,1.42,5.23,1.6,1.45,.14,.52-.91,.58-1.46,.25-.05,.5-.1,.75-.15,.55,.65,1.03,1.4,.52,2.22-.53,.85-1.5,.57-2.26,.43-2.85-.5-5.88-.7-7.47-3.73,.97-3.36,3.9-3.33,6.55-3.78,0,.15,0,.31,.02,.46-1.18,.92,.21,1.06,.47,1.54Z"/>
  <path class="cls-3" d="M168.78,71.02c-.26-.48-1.65-.63-.47-1.54,2.03,.04,4.05,.08,6.08,.12-1.49,1.95-3.9,.33-5.61,1.42Z"/>
  <path class="cls-4" d="M176.02,83.17c.3,.07,.46,.23,.29,.53-.02,.03-.38-.16-.59-.24,.1-.1,.2-.2,.3-.29Z"/>
  <path class="cls-12" d="M158.95,136.91c-.51,.87-1.18,1.52-2.23,1.66,.21-1.27,.91-1.88,2.23-1.66Z"/>
  <path class="cls-12" d="M156.73,138.55c-.46,1.32-1.53,1.63-2.77,1.66,.51-1.23,1.38-1.88,2.77-1.66Z"/>
  <path class="cls-12" d="M152.33,141.84c.52,.73,.01,.95-.56,1.14-.53-.73,0-.95,.56-1.14Z"/>
  <path class="cls-12" d="M160.04,135.82c-.02,.37-.09,.68-.58,.56-.26-.65,.27-.49,.58-.56Z"/>
  <path class="cls-12" d="M159.49,136.36c.09,.47-.18,.59-.58,.58-.32-.7,.02-.74,.58-.58Z"/>
  <path class="cls-12" d="M152.89,141.29c.31,.69,.05,.81-.58,.58,0-.39,.12-.65,.58-.58Z"/>
  <path class="cls-12" d="M153.43,140.74c.21,.58,.08,.83-.57,.57-.05-.43,.13-.63,.57-.57Z"/>
  <path class="cls-12" d="M153.99,140.19c.2,.59,.15,.91-.58,.57-.1-.48,.16-.6,.58-.57Z"/>
  <path class="cls-10" d="M236.46,62.99c-.02-.55-.11-1.05-.75-1.22,2.1-1.33,4.53-2.41,3.97-5.85,1.06,.91,.43,1.79,.76,2.54,1.03,.12,1.39-1.42,2.52-1.1,.14,.15,.29,.29,.43,.44-1.18,.93-2.31,1.93-3.55,2.77-1.15,.79-1.72,2.37-3.39,2.42Z"/>
  <path class="cls-10" d="M243.78,56.56c1.02-.82,2.04-1.65,3.05-2.47,.13,.14,.27,.27,.4,.41-1,.83-2,1.66-3,2.49-.15-.15-.3-.29-.46-.44Z"/>
  <path class="cls-10" d="M242.97,57.36c.27-.27,.55-.53,.82-.8,.15,.15,.3,.29,.45,.44-.28,.27-.56,.53-.84,.8-.14-.15-.29-.29-.43-.44Z"/>
  <path class="cls-7" d="M220.47,68.43c.63,.05,1.31-.08,1.78,.53-.89,.81-1.5,.69-1.78-.53Z"/>
  <path class="cls-12" d="M142.41,94.17c.15-.71,.3-1.42,.55-2.6,.86,2.24,.43,4.07,.26,5.91-.51,5.62,1.98,8.44,7.05,8.04-.88-1.33-1.75-2.66-2.63-3.98,.1-.08,.2-.16,.3-.25,.51,0,1.01,0,1.52,.01,.65,2.33,2.45,3.87,3.85,5.69,.46,.61,1.78,.75,1.24,1.99-1.91-1.66-4.01-2.59-6.66-2.6-2.03-.01-3.67-1.32-4.88-2.99-.13-.32-.26-.63-.39-.95-.07-2.76-.13-5.52-.2-8.28Z"/>
  <path class="cls-11" d="M142.61,102.45c.13,.32,.26,.63,.39,.95-3.87,.06-7.71-.05-11.32-1.72,3.66,.23,7.27,.78,10.93,.77Z"/>
  <path class="cls-12" d="M130.34,88.23c0,.3,0,.59,0,.89-1.92-.16-3.16-1.34-4.29-2.76-1.1-1.37-1.87-3.02-3.77-4.03,1.78-.95,2.03,.45,2.68,1.08,1.72,1.69,2.32,4.63,5.39,4.82Z"/>
  <path class="cls-12" d="M130.84,99.93c-2.12-1.55-3.86-3.35-3.55-6.89,1.38,2.68,2.47,4.78,3.55,6.89Z"/>
  <path class="cls-12" d="M142.99,87.06c-.13,.17-.27,.33-.4,.5-.11-.36,.12-.45,.4-.5Z"/>
  <polygon class="cls-11" points="133.12 113.35 133.03 113.28 133.1 113.33 133.12 113.35"/>
  <path class="cls-11" d="M149.46,101.31c-.51,0-1.01,0-1.52-.01,.02-.22,.04-.44,.06-.66,1.22-.41,.77-1.68,1.27-2.48,.39-.62,.64-1.53,1.53-1.07,.8,.41,.13,1.23-.13,1.65-.51,.82-1.2,1.52-1.2,2.57Z"/>
  <path class="cls-2" d="M243.4,57.8c.28-.27,.56-.53,.84-.8,1-.83,2-1.66,3-2.49,.79-.15,1.49-.93,2.39-.33-.03,.19,.02,.35,.14,.49,.53,1.13-.37,1.8-.84,2.61-1.11,.42-2.08,1-2.67,2.08-.83,.7-1.67,1.4-2.5,2.09-.27,.26-.55,.53-.82,.79-1.8,.11-2.72,1.73-4.19,2.42-1,.47-1.97,.84-3.08,.92-.37-1.18,.55-1.77,.8-2.59,1.67-.05,2.24-1.64,3.39-2.42,1.24-.85,2.37-1.84,3.55-2.77Z"/>
  <path class="cls-3" d="M166.06,70.65c.43,.03,.88,.02,1.1,.51-3.39,1.49-.53,2.06,.65,2.78-1.32,.95-2.3-.74-3.4-.04,0,0,.02,.02,.02,.02,0-.93,0-1.87,.01-2.8,0,0-.03,.02-.03,.02,.69,.3,1.2,0,1.65-.5Z"/>
  <path class="cls-3" d="M164.44,71.12c0,.93,0,1.87-.01,2.8-2.16-.94-2.18-1.88,.01-2.8Z"/>
  <path class="cls-2" d="M166.06,70.65c-.45,.49-.96,.8-1.65,.5,.41-.63,1.01-.63,1.65-.5Z"/>
  <path class="cls-8" d="M180,94c1,0-3.61-1.18-4-1,0,1-.09,3.22-.13,4.45-.19,5.58-1.36,11.04-2.87,16.55,.92,.12,1.83,.12,2.4,.33,.43,.15,.9,0,1.15-.38,.21-.31,.41-.61,.64-1.19,1.82-7.76,1.82-8.76,2.82-13.76"/>
</svg>