<?xml version="1.0" encoding="UTF-8"?>
<svg id="Layer_1" data-name="Layer 1" xmlns="http://www.w3.org/2000/svg" viewBox="0 0 414 200">
  <defs>
    <style>
      .cls-1 {
        fill: #f7b7d3;
      }

      .cls-2 {
        fill: #00bef2;
      }

      .cls-3 {
        fill: #686155;
      }

      .cls-4 {
        fill: #e3d9cb;
      }

      .cls-5 {
        fill: #edebe1;
      }

      .cls-6 {
        fill: #fff9b8;
      }

      .cls-7 {
        fill: #fff200;
      }

      .cls-8 {
        fill: #fbb040;
      }

      .cls-9 {
        fill: #9ed2f1;
      }

      .cls-10 {
        fill: #737372;
      }

      .cls-11 {
        fill: #bbad99;
      }

      .cls-12 {
        fill: #44403a;
      }

      .cls-13 {
        fill: #4a4642;
      }

      .cls-14 {
        fill: #787777;
      }

      .cls-15 {
        fill: #4e4d4b;
      }
    </style>
  </defs>
  <path class="cls-12" d="M213.81,53.57c.18,.02,.36,.05,.53,.07,.5,.41,.65,.11,.75-.29,.24-.05,.47-.11,.71-.16,.31,.03,.61,.02,.82-.23,.13-.04,.26-.08,.39-.13,.13,.35,.27,.7,.4,1.04-4.09,.92-7.76,2.57-10.83,5.15-1.36,1.15-.92,2.61,.85,3.17,5.12,1.61,10.19,1.11,15.5-.28-1.21-.64-1.69-1.58-2.76-1.97-.58-.21-1.05-.73-.98-1.37,.09-.75,.75-1.01,1.48-1.16,2.26-.44,4.54-.84,6.78-1.33,.61-.13,1.73,.17,1.73-.7,0-.96,.53-2.24-.58-2.85-1.27-.69-.02-.94,.07-1.38-.37-.88,1.53-1.43,.45-2.42,.04-3.61,2.58-7.55,6.95-9.09,5.5-1.93,10.89-1.99,16.01,1.03,.1,.06,.28,.07,.34,.15,1.62,2.44,3.94,2.12,6.39,1.3,.53,.07,1.13-.02,1.42,.54-2.31,.83-4.88,1.01-7.07,2.16-.14,.02-.28,.04-.42,.06-3.44,.8-6.89,1.6-10.32,2.41-.4,.1-.96,.2-.55,.78,.26,.21,.53,.42,.79,.63-.79,.12-1.28,.45-1.23,1.25,.05,.91,.08,1.83,.04,2.74-.04,.89,.48,1.1,1.33,.95,4.78-.82,9.59-1.57,14.34-2.51,4.44-.88,8.83-1.95,13.25-2.94,.32,.15,.61,.33,.65,.69-.44,.39-.98,.5-1.58,.41-.42-.36-.61-.14-.75,.22-1.35,.41-2.67,.92-4.12,.97-.49-.03-1.02-.19-1.32,.34l-.81,.2c-.5-.37-.89-.34-1.14,.24-1.38,.43-2.75,.87-4.24,.91-1.23,.46-1.58,1.34-1.59,2.44,0,2.35-.03,4.71-.05,7.06,.05,.65-.03,1.27-.34,1.87-.28,.02-.83,1.04-.78-.17,.02-.4,0-.79,0-1.19,.38-2.68,.5-5.37,.58-8.07,.03-1.1-.38-1.39-1.63-1.12-1.81,.4-3.67,.64-5.52,.89-1.36,.19-2.15,.55-2.04,2.05,.17,2.46-.15,4.92-1,7.31-.3,.85-1.33,1.32-1.2,2.41,.18,1.42,.06,2.87,.09,4.3,0,.44-.06,.9,.63,1.11,1.22,.36,2.41,.81,3.62,1.18,.67,.21,1.18,.11,1.62-.52,1.5-2.16,2.99-4.32,3.73-6.8,.79-.21,1.08,.5,1.65,.7,.2,.15,.41,.3,.61,.45-.02,.36-.04,.71-.06,1.07-.49-.2-.87-.64-1.33,.19-.92,1.66-2.04,3.23-3.07,4.84-.49,.77,.01,1.19,.75,1.46,4.82,1.76,8.95,4.42,12.52,7.73,1.38,1.28,3.06,2.72,2.85,4.67-.21,1.91,1.04,2.61,2.46,3.39,1.98,1.09,2.51,.86,2.92-1.26,.07-.34,.05-.69,.08-1.03,.38-5.23-2.77-9.06-6.49-12.59-2.67-2.53-5.82-4.59-9.05-6.53,.42-.51,1.05-.28,1.59-.34,.24,.18,.49,.36,.73,.54,.14,.48,.54,.5,.99,.44,3.57,2.3,6.95,4.8,9.62,7.94,1.1,1.29,2.34,2.58,2.77,4.22,.26,1,.9,1.54,1.91,1.96,7.63,3.23,11.18,8.94,11.97,16.12,.24,2.16,.86,3.73,2.94,5.12,1.78,1.19,2.99,3.1,3.93,4.95,2.09,4.13,3.49,8.42,2.3,13-.45,1.74,.56,3.11,1.38,4.35,1.31,2,1.13,4.12,1.49,6.21,.42,2.86,.3,5.72,.03,8.58,0,.86-.09,1.71-.55,2.49-.31,.19-.33,.46-.24,.75,.04,.1,.03,.19-.05,.28-.28,.05-.66,.05-.57,.41,.03,.12,.36,.19,.56,.28,1.54,4.53,1.27,8.95-.66,13.39-.86,1.97-1.58,3.95-3.08,5.62-1.96,2.18-4.01,4.25-7.3,4.86-.67,.26-1.69,.05-1.8,1.06-.08,.1-.15,.21-.23,.31-.7,.08-1.31-.7-2.06-.16-.59,.06-1.18,.12-1.77,.18-.99,.11-2.12-.53-2.93,.45-.5,.06-1.01,.13-1.51,.19-4.04,.39-7.97-.62-11.98-.74-.42-.03-.84-.05-1.26-.08,0-.39,0-.77,0-1.16,3.06-1.33,5.16-3.38,6.14-6.31,1.9-1,2.17-1.95,.98-3.5-.09-.03-.14-.09-.13-.18-.14-.04-.29-.07-.43-.11-.48,.06-.96,.13-1.45,.19-.03-.31-.05-.62-.08-.94,.3-.09,.6-.2,.9-.26,1.06-.24,2.11-3.04,1.37-3.73-.14-.13-.47-.16-.69-.13-1.22,.17-2.81,3.01-2.36,4.16-.03,.79-.58,1.17-1.36,.97-1.05-.26-.33-1.16-.61-1.73,.36-1.27,.94-2.63,2.04-3.33,2.12-1.35,3.72-2.79,4.34-5.14,.55-2.07,1.96-3.9,1.44-6.25-.4-1.82-.3-3.78,1.09-5.39,1.01-1.18,.72-2.29-.13-3.3-1.22-1.46-1.48-3.24-2.3-4.82-.82-1.58-.28-3.43-1.62-4.86-2.39-2.56-2.61-5.52-1.54-8.55,.34-.96,.05-1.56-.57-2.15-1.78-1.68-3.22-3.5-3.46-5.88-.06-.61-.5-.79-1.03-1.08-2.75-1.49-4.14-3.95-4.1-6.57,.03-1.5-.31-2.34-1.45-3.13-.71-.49-1.33-1.03-1.89-1.67-.92-1.04-4.46-1.12-4.78-.07-.43,1.42-.93,2.88,.17,4.42,1.93,2.72,1.7,5.79,.3,8.53-.65,1.28-1.25,2.22-.52,3.51-.04,.51,.1,.91,.8,.93,1.07,2.48,.96,5.03,.64,7.6-.02,.17-.04,.34-.06,.52-.1,.14-.29,.28-.3,.42-.11,2.04-1.22,3.55-3.01,4.79-1,.7-1.13,3.49-.28,4.37,2.81,2.92,2.61,6.25,1.29,9.5-.47,1.16-.5,1.87-.17,3.07,1.33,4.79,2.17,9.65-.99,14.26-.38,.56-1.29,1.19-.6,1.99,.68,.78,1.54,.09,2.32,.06,.12-.06,.25-.11,.37-.17,.5-.25,1.04-.19,1.57-.17,.12,.87-1.25,.72-1.34,1.46,.49,.39,.99,.21,1.48,.12h.02c-.18,.28-.37,.55-.55,.81-.26-.03-.52-.07-.78-.1-.12-.16-.25-.16-.38,0-10.88,.03-20.41,3.74-29.34,8.65,10.74,3.88,23.09,.7,34.07-7.52,.14-.28,.27-.55,.41-.83,.48,.02,.96,.04,1.44,.06,.06,.41,.11,.83,.17,1.24h-.02c-.4-.11-.73-.08-.92,.32-1.97,1.73-4.35,2.95-6.71,4.2-.53-.13-.94-.07-1.06,.5-.18,.12-.36,.25-.54,.37-.56,.07-1.29-.12-1.41,.67-.04,.19-.08,.38-.12,.56-.51,.42-1.36-.1-1.81,.5-.21,.02-.41,.05-.62,.07-.83-.06-1.62-.02-2.04,.77-.96,.92,.12,1.23,.69,1.46,1.67,.68,3.4,1.22,5.1,1.82,.13,.39,.26,.77,.39,1.16-.26-.06-.53-.11-.79-.17-.23-.26-.54-.27-.87-.24-1.53-.26-3.14-.65-4.27-1.5-2.17-1.63-4.4-1.52-6.97-1.16-4.7,.65-9.48,.66-13.94-.99-1.89-.7-3.55-.73-5.37-.32-.29,.07-.7,.13-.82,.31-.19,.3,.19,.43,.44,.62,2.32,1.72,4.78,3.33,7.54,4.37,8.66,3.26,17.49,2.88,26.35,.62,.42-.11,1.04-.21,1.03-.65-.01-.62-.89-.25-1.2-.61,0-.34,.02-.69,.03-1.03,.39,.09,.77,.18,1.16,.27,.41,.53,1.02,.35,1.58,.36,.65-.02,1.3-.12,1.92,.16,.06,.63,1.05,.41,1.15,1-.18-.02-.35-.04-.53-.05-.31,0-.61,0-.92,0-8.83,4.02-18.07,3.98-27.47,2.13-1.3-.26-2.45-.26-3.74,.05-2.15,.52-4.38,.82-6.57,1.21-.15,0-.3,0-.45,0-.89,0-1.78,0-2.67,.01-.01-.29-.02-.57-.03-.86,3.15-.38,6.37-.43,9.85-1.64-2.84-1.16-5.27-2.32-7.07-3.99-2.08-1.93-4.38-1.75-6.89-1.68-4.77,.12-9.56,.15-14.12-1.37-1.41-.47-2.7-.64-4.05,.06-.36,.19-.98,.03-1.08,.55-.08,.44,.31,.72,.66,.98,4.12,3.21,8.89,5.3,14.21,6.43,.13,.03,.25,.06,.38,.09,.39,.07,.78,.15,1.18,.22,.28,.03,.57,.06,.85,.09,.73,.04,1.47,.09,2.2,.13-.38,1.09-1.36,.5-2.09,.57-.58,.06-1.16-.58-1.77-.03-1.26,.08-2.46-.26-3.57-.64-1.85-.63-3.5-.55-5.4-.01-6.17,1.74-12.52,1.49-18.74,.39-3.19-.57-6.14-.54-9.16,.36-.78-.3-1.93,.54-2.42-.63,1.4-.31,2.9-.27,4.19-.89-.08-.47-.43-.56-.71-.66-3.11-1.12-6.14-2.46-8.54-4.51-1.69-1.45-3.17-1.42-5.18-.89-2.72,.72-5.57,1.06-8.42,1.16-2.41,.08-4.91,.03-6.95-1.14-1.83-1.04-3.4-1.18-5.36-.48-1.28,.46-.97,.97-.27,1.43,1.39,.91,2.83,1.77,4.35,2.48,4.11,1.92,8.65,2.59,13.15,3.36l.57,.03c.65-.08,1.28-.02,1.89,.2-.51,.95-1.48,.52-2.21,.47-1.14-.08-2.24-.46-3.41-.25-.19,0-.38-.01-.58-.02-.25-.33-.61-.37-1.01-.3-.72-.03-1.45,0-2.1-.36-.26-.43-.65-.4-1.08-.26-.3-.07-.6-.13-.9-.2-.66-.45-1.3-.47-1.93,.05-7.37,3.1-14.85,2.18-22.32,.42-1.06-.25-1.82-.12-2.73,.25-2.27,.93-4.65,1.58-7.17,1.78-.18,.01-.36,.02-.54,.03-.3,.02-.6,.04-.91,.05-1.16-.2-2.32-.2-3.47,.05-.58-.05-1.16-.1-1.74-.15-1.16-.44-2.39-.56-3.63-.62-.22-.04-.43-.08-.65-.12-.32-.36-.76-.34-1.2-.3-.5-.13-1.01-.26-1.51-.39-.08-.22-.24-.31-.49-.26-1.84-.57-3.59-1.76-5.69-.74-.58,0-1.2-.16-1.62,.36-.16,.03-.32,.06-.48,.09-.53-.11-1.05-.22-1.46,.23-.17,.03-.33,.06-.5,.09-.52-.09-1.04-.2-1.44,.24-.13,0-.25-.01-.38-.02,.02-.28,.03-.55,.05-.83-.03-.06-.04-.12-.03-.18,1.51,.13,2.87-.53,4.33-.63,.71-.05,1.68-.2,1.83-.69,.21-.69-.76-1.11-1.35-1.45-.51-.29-.79-.76-1.26-1.02-1.31-.72-1.76-2.19-3.2-2.77,0,0,0-.01,0-.01,0-.4-.14-.74-.58-.92-.45-1.71-.31-3.11,2.01-3.72,1.28-.33,2.47-.94,3.68-1.46,.36-.16,1.02-.16,.92-.7-.09-.46-.68-.48-1.1-.56-1.63-.32-3.27-.62-4.9-.93-.15-.29-.35-.58-.04-.89,.69-.1,1.35,0,1.99,.22,1.18,.6,2.16,.09,3.12-.46,.26-.07,.51-.14,.77-.21,.28,.32,.53,.29,.77-.04,.18-.02,.36-.05,.55-.07,2.07-.1,4.14-.21,6.2-.31,.34,0,.67,.01,1.01,.02,.63,.6,1.42,.34,2.16,.3,1.04,.01,2.04,.13,2.89,.72,.38,.49,.77,.47,1.18,.03,.84-.15,1.69-.2,2.54-.05,.25,0,.5,0,.76,0,2.19-.32,4.5,.21,6.61-.71,.51,.05,1.05,.2,1.39-.33,.27-.06,.53-.11,.8-.17,.36,.3,.59,.15,.76-.18,.52-.07,1.04-.14,1.56-.21,.41,.36,.78,.32,1.14-.07,1.3,0,2.6,0,3.9,0,.22,.32,.47,.38,.75,.05,.39,.06,.78,.12,1.17,.17,.16,.37,.37,.57,.77,.2,.55,.05,1.16-.07,1.57,.4,.32,.71,.98,.84,1.74,.82,4.13-.43,8.34,.26,12.44-.71,.39,.08,.76,.12,1.02-.24,.4-.09,.79-.19,1.19-.28,.51,.4,.9,.34,1.16-.23,2.32-.49,4.65-.47,6.99-.18,.37,.41,.87,.32,1.36,.26,.58,.17,1.15,.35,1.73,.52,.99,1.27,2.2,1.23,3.53,.45,1.29-.34,2.57-.12,3.85,.07,1.09,.82,1.69-.02,2.38-.55,4.28-2.09,8.88-2.18,13.55-1.68,1.85,.2,3.54,.94,5.29,1.53,2.78,.93,5.77,.81,8.45-.22,6.08-2.33,12.05-2.13,18.02,.12,2.05,.77,2.76,.76,3.37-1.05,1.08-3.16,3.64-5.01,6.78-6.33,1.09-.46,1.36-.95,1.34-1.94-.07-3.91-.14-7.82,.19-11.72,.12-1.44-.82-2.58-1.29-3.86-1.06-2.91-1.39-5.96-1.13-9.02,.38-4.41,2.2-8.25,5.67-11.48,.91-.85,.82-2.12,.02-2.92-4.37-4.42-5.34-9.3-2.89-14.74,.16-.36,.33-.79,.27-1.16-.54-2.99,1.01-5.26,3.14-7.34,.53-.52,.72-1.04,.33-1.71-.33-.56-1.07-1.04-1.15-1.52-.67-4.33-5.04-5.86-7.92-8.54-2.63-2.45-5.1-5.02-7.08-7.95-1.37-2.03-2.86-3.99-3.93-6.18-.4-.82-1.49-1.04-2.26-1.48-1.04-.59-1.35-1.39-.96-2.17,.98-1.91-.4-3.38-1.09-4.87-.58-1.27-1.11-2.52-1.39-3.86,.27-.94-1.08-1.96,.16-2.86,.78,1.96,1.51,3.95,2.37,5.89,.45,1.03,.86,2.32,1.77,2.88,.65,.4,1.57-.91,2.42-1.37,1.13-.62,2.71-.93,3.36-1.8,.8-1.06-.68-2.31-.68-3.57-.03-.45-.04-.9-.73-.94-.17-.55-.34-1.09-.51-1.64l-.14-.73c-.07-.24-.14-.49-.21-.73,.79,.05,1.09,.79,1.75,1.01,.21,.86,.82,1.63,.66,2.56-.02,1.37,.91,2.33,1.75,3.34Zm84.16,85.9c.49-2.07,.49-4.14,0-6.21-.21-.5,.27-1.27-.74-1.46-.06-.34-.13-.67-.19-1.01,.06-.37,.04-.72-.22-1.04-.13-1.33-.6-2.57-1.16-3.8-.47-1.03-.95-1.07-1.69-.13-1.35,1.72-2.62,3.55-4.48,4.83-1.22,.84-1.12,1.5-.46,2.44,2.26,3.21,2.39,6.69,1.51,10.24-.45,1.82-1.77,3.26-3.41,4.41-1.41,.99-.75,2.17-.49,3.32,.14,.65,.74,.6,1.23,.41,4.57-1.83,8.29-4.33,9-9.13,.98-.77,.88-1.87,1.1-2.88Zm-153.25,23.46c1.29,.12,2.62,.37,3.63,1.01,1.24,.79,2.34,.66,3.58,.24,1.43-.48,2.87-.94,4.48-1.46-3.99-1.56-7.84-1.25-11.71-.13-.29,.03-.57,.05-.86,.08,0,.07,0,.13,0,.2l.88,.06Zm-4.28,.42c-2.34-.67-4.67-.73-6.99,.08-7.64,.7-14.43,3.59-21.55,6.25,11.03,6.2,27.05,.69,36.15-4.49-1.5-.72-2.99-1.41-4.75-1.54-.95-.07-1.95,.16-2.86-.29Zm111.18-47.34l-.34-2.12c0-.1-.02-.19-.1-.27-.84-1.6-2.02-2.97-3.28-4.33-2.68-2.87-5.57-5.57-8.38-8.34-3.39-3.36-6.94-6.61-9.97-10.25-.5-.6-.93-.63-1.52,0-1.98,2.15-2.94,4.38-1.97,7.26,.86,2.56,2.39,4.78,4.17,6.78,4.23,4.75,9.35,8.79,14.08,13.15,1.76,1.62,3.39,3.38,4.46,5.47,.2,.4,.11,1.12,.7,1.09,.48-.03,.86-.59,1.19-1.04,.83-1.12,.22-2.51,.97-3.62,1.13-.93,1.12-2.87-.02-3.79Zm-1.77,34.53c.45-4.39-.85-8.44-3.44-12.08-2.52-3.54-6.49-5.88-9.97-8.62-2.86-2.26-5.61-4.62-7.02-7.91-.17-.39-.28-.78-.83-.82-.56-.04-.98,.47-1,.68-.11,1.3-1.31,2.28-1.23,3.63,.2,3.39,1.85,6.38,3.83,9.1,3.17,4.35,6.82,8.42,10.14,12.68,1.52,1.95,3.23,4.01,3.22,6.46,0,1.89,1.29,2.51,2.6,3.36,1.3,.84,2.03,.4,2.6-.78,.88-1.84,1.07-3.76,1.09-5.71Zm-19.67-98.04c-.14,1.87,.99,4.3,1.41,6.83,.74,4.51,3.53,7.82,8.16,9.83,.74,.32,1.47,1.23,2.4,.65,.7-.44-.05-1.18-.05-1.8-.01-4.15-.89-8.23-1.55-12.31-.38-2.34-.76-4.62-.5-6.96,.24-2.09,1.47-3.61,2.94-3.43,3.18,.4,5.93-.8,8.83-1.49,.42-.1,1.02-.04,1.11-.51,.09-.48-.35-.82-.76-1.12-2.93-2.17-6.35-3.13-10.07-2.72-3.43,.38-6.84,.96-9.11,3.81-2.05,2.58-2.72,5.42-2.8,9.22Zm35.51,33.75c-.22-1.14-.53-2.32-1.41-3.16-4.6-4.41-10.01-7.72-16.52-9.64-5.53-1.63-11.08-3.38-14.93-7.67-.28-.31-.95-.79-1.23-.12-.52,1.23-1.71,2.29-1.33,3.8,.17,.68,.9,1.08,.94,1.83,.11,2.23,1.88,3.5,3.65,4.73,3.95,2.75,8.73,3.84,13.37,5.13,5.6,1.57,11.13,3.23,16.35,5.65,.25,.12,.33,.56,.76,.36,.42-.2,.39-.55,.36-.9Zm12.96,18.89c.15-2.38-1.07-4.44-2.12-6.47-1.53-2.94-3.73-5.49-6.67-7.5-4.01-2.75-8.57-4.59-13.25-6.2-1.02-.35-2.25-1.37-3.16-.65-.8,.63-.24,1.96-.22,2.98,0,.22,.09,.45,.18,.67,2,4.9,5.19,8.88,10.58,11.35,4.49,2.06,9.12,3.93,13.17,6.69,.4,.27,.84,.44,1.24,.23,.44-.23,.26-.72,.25-1.11Zm6.46,47.98c.42-3.92-1.96-7.29-4.44-10.63-.43-.58-.95-.57-1.46-.17-3.11,2.45-5.79,5.14-6.4,8.99-.36,2.33-.59,4.66-.61,7.02-.02,2.36-1.16,4.53-1.88,6.77-.13,.39-1.06,.49-.67,1.07,.35,.52,1.05,.28,1.6,.29,7.33,.16,14.26-5.77,13.85-13.34Zm-18.43-46.78c-.8,2.72,.84,5.05,2.88,7.04,4.32,4.21,9.32,7.86,13.46,12.23,.43,.46,1.02,.66,1.46,.12,.66-.81,1.49-1.46,1.81-2.56,1.09-3.69-.51-6.88-2.61-9.7-3.67-4.95-9.2-8.08-15.06-10.74-1.16-.53-1.99-.53-1.96,.93,.02,.8,0,1.61,0,2.67Zm-.9,63.25c.64,.5,1.45,.58,2.28,.65,4.62,.39,9.17-.05,13.68-.89,2.32-.43,4.68-.71,6.75-1.91,2.98-1.73,4.86-4.17,6.4-6.99,2.35-4.29,2.66-8.71,1.99-13.65-2.59,2.91-5.62,4.72-9.15,5.87-.89,.29-.85,.87-.94,1.51-.28,2.03-.65,3.96-1.8,5.87-2.86,4.7-7.25,7.15-13.08,7.5-2.37,.14-4.54,.21-6.13,2.05Zm7.28-43.66c-.03,4.11,2.31,7.41,4.72,10.7,2.38,3.25,5.43,6.14,7.03,9.83,.33,.76,.91,1.07,1.58,.38,2.18-2.26,3.87-4.8,3.38-7.86-.31-1.93-1.01-3.93-2.08-5.62-2.99-4.7-7.14-8.63-11.43-12.43-.75-.67-1.27-.55-1.77,.28-.89,1.47-1.59,2.97-1.43,4.73Zm-31.91-32.29c.36-1.63-.53-3.37-1.08-5.17-1.16-3.77-3.2-7.13-5.79-10.25-1.43-1.73-3.1-3.36-4.2-5.24-.8-1.36-1.42-.72-1.89-.17-.76,.89-1.46,1.9-1.81,2.95-1.37,4.06-.03,7.8,2.2,11.29,2.34,3.65,5.6,6.7,8.74,9.82,.76,.75,1.74,2.13,2.45,1.8,.93-.43,1.46-1.79,1.4-3.01-.03-.57,0-1.15,0-2.03Zm-16.32,54.87c.61,3.39-.27,7.22,.74,10.96,.41,1.51,1.2,2.51,3.15,2.39,1.95-.12,2.87-.81,2.91-2.78,.08-3.52,1.23-6.85,2.05-10.24,.27-1.09,.48-2.16,1.01-3.24,.55-1.1,.78-2.43-.5-3.79-2.27-2.4-4.08-5.15-6.1-7.75-.27-.35-.16-1.05-.84-1.01-.78,.05-.83,.71-1.03,1.26-1.64,4.53-.92,9.23-1.4,14.2Zm-22.03,15.92c-5.64-1.81-11.06-1.97-16.44-1.13-6.64,1.04-12.75,3.59-18.92,5.91-.3,.11-.65,.18-.61,.54,.03,.34,.38,.4,.68,.52,3.76,1.47,7.69,1.82,11.75,1.45,4.46-.4,8.73-1.49,13-2.64,3.7-1,6.9-2.84,10.54-4.65Zm-7.1,4.85c13.03,3.14,24.69,1.71,35.86-5.27-12.9-2.96-24.47-.97-35.86,5.27Zm-111.19-.35c5.18,2.34,10.33,3.28,15.93,2.65,5.29-.59,9.98-2.57,14.75-4.42,1.67-.65,3.51-.98,5.47-2.25-12.87-2.91-24.58-1.29-36.16,4.02Zm77.03,2.11c8.53,8.2,29.46,9.39,36.36,6.18-2.72-1.31-5.55-2.47-7.54-4.59-1.15-1.23-2.3-1.44-3.86-1.01-3.37,.91-6.84,1.24-10.33,1.26-3.31,.02-6.62-.33-9.54-1.82-1.75-.89-3.31-1.14-5.08-.03Zm12.55-5.75c-4.94-1.58-9.73-2.73-14.75-1.99-6.36,.94-11.94,3.81-17.7,6.17-.32,.13-.79,.25-.81,.65-.03,.48,.42,.72,.82,.87,1.38,.5,2.78,.88,4.3,.97,4.81,.28,9.38-.78,13.94-1.88,4.81-1.15,9.63-2.31,14.21-4.8Zm120.57-45.36c-.19-6.7-2.33-11.42-6.39-15.48-1-1-1.33-.54-1.54,.43-.46,2.12-1.56,3.97-3.22,5.52-.54,.5-.1,.55,.18,.88,1.8,2.07,3.27,4.38,4.07,6.85,1.02,3.13,.62,6.21-2.45,8.55-.38,.29-.76,.66-.31,.99,.93,.68,1.36,1.64,2.01,2.47,.34,.44,.81,.33,1.16,0,3.48-3.23,6.8-6.53,6.5-10.2Zm-14.39-14.52c-.07,.65-.2,1.28-.18,1.9,.03,.91,.59,1.71,1.44,2.08,1.01,.44,1.42-.51,1.85-1.07,1.75-2.25,2.13-4.7,1.92-7.44-.35-4.65-1.53-8.95-4.81-12.66-1.35-1.53-2.99-2.76-4.9-3.72-.99-.5-1.38-.41-1.24,.71,.18,1.47,.08,2.87-.76,4.3-.4,.69-1.39,1.82-.37,2.68,.95,.8,1.6,1.76,2.35,2.67,2.59,3.16,4.38,6.6,4.69,10.55Zm-29.52-16.01c-.29-2.01,.19-4.1-1-6.03-.82-1.33-3.29-1.74-4.17-.49-.8,1.14-2.05,1.72-3.26,2.33-.98,.5-1.45,.89-1.03,1.99,.59,1.55,1.03,3.17,1.34,4.79,.49,2.54-.17,4.98-1.16,7.37-.43,1.04,2.02,4.29,3.22,4.47,.51,.08,.65-.26,.94-.45,1.49-.99,2.6-2.39,3.02-3.84,.97-3.31,2.45-6.58,2.09-10.13Zm-11.27,30.53c-.08-1.61-.12-2.7-.2-3.79-.05-.63-.1-1.31-.66-1.75-2.6-2.09-5.04-4.32-7.33-6.68-.68-.7-1.3-.83-1.57,.27-.81,3.33-.96,6.67-.35,10.06,.74,4.1,3.82,6.93,6.59,9.94,.65,.7,1.3,.71,1.9-.27,1.61-2.62,1.42-5.49,1.63-7.78Zm-122.64,57.82c-3.42-1.4-6.55-2.78-8.76-5.21-.86-.95-1.46-1.08-2.71-.77-5.8,1.4-11.6,1.56-17.35-.28-.37-.12-.79-.4-1.17,.02,7.47,8.22,20.44,10.06,29.99,6.25Zm24.54-.45c-2.74-1.26-5.2-2.35-7.18-4.04-.97-.82-1.95-.81-3.16-.57-3.29,.68-6.61,1.02-10,.73-3.52-.3-6.81-1.18-9.85-2.76-.72-.37-1.39-.36-1.96,.1-.74,.6,0,1.11,.38,1.45,.88,.8,1.81,1.6,2.87,2.21,5.35,3.05,11.43,4.04,17.6,4.63,3.78,.37,7.41-.41,11.31-1.76ZM209.33,63.95c.12,.31,.17,.52,.27,.71,2.24,4.14,5.22,7.86,8.59,11.31,1.43,1.46,3.02,2.88,4.87,4,.84,.51,1.14,.39,1.08-.5-.11-1.64,.65-3.11,1.17-4.61,.31-.9,.24-1.55-.48-2.17-2.3-1.96-4.07-4.26-5.72-6.67-.53-.78-.96-2.11-2.33-1.97-2.46,.24-4.89-.08-7.46-.09Zm11.64-5.58c.37,1.33,1.52,1.55,2.22,2.18,.51,.46,.99,.97,.82,1.66-.18,.72-.9,.91-1.61,1.04-.63,.12-1.25,.28-1.89,.35-.99,.12-1.22,.49-.67,1.25,1.81,2.51,3.79,4.91,5.96,7.19,.46,.48,.94,.54,1.46,.03,1.03-1.02,2.2-1.81,1.98-3.57-.18-1.44,.1-3.08,1.79-4.1,.58-.35,.53-.97,.25-1.57-.77-1.61-1.41-3.27-1.67-5.01-.12-.81-.69-.86-1.39-.74-2.39,.42-4.79,.85-7.24,1.28Zm12.42,100.8c0,.4-.04,.8,0,1.2,.18,1.72,1.06,2.22,2.78,1.42,4.66-2.15,7.33-6.59,4.87-11.09-1.02-1.86-2.5-3.53-3.75-5.29-.19-.26-.41-.45-.77-.41-.5,.06-.53,.42-.6,.76-.29,1.46-.31,3.03-.94,4.36-1.39,2.93-1.24,6.01-1.6,9.04Zm7.52-42.43c0,.99-.01,1.56,0,2.13,.09,3.2,.26,6.51-1.76,9.29-1.31,1.8,.03,2.25,1.12,3.04,.2,.14,.47,.21,.64,.37,.89,.8,1.87,1.99,2.96,1.99,1.64,0,1.29-1.85,2.04-2.76,1.87-2.26,2.31-4.89,1.19-7.29-1.19-2.57-3.44-4.68-6.2-6.76Zm-18.12,12.32c-.12,2.17,.05,4.05,.55,5.9,.17,.62,.95,1.07,1.08,.58,.46-1.7,2.09-3.21,1.68-4.97-.88-3.8-1.83-7.48,1.54-10.82,.55-.55,.57-1.77-.21-2.16-.68-.33-1.2,.59-1.61,1.17-2.25,3.24-3.42,6.73-3.03,10.29Zm-38.79,33.26c-4.21-2.05-13.14-1.99-15.84,0,5.2,2.35,10.5,2.94,15.84,0Zm39.5-.77c1.28,.24,1.74-.28,1.19-.96-1.14-1.42-1.08-3.01-1.17-4.58-.08-1.24-.58-1.31-1.67-.83-2.74,1.2-4.21,3.37-5.51,5.65-.47,.82,.28,.97,1.03,.86,2.12-.31,4.24-.23,6.13-.14Zm1.79-61.91c-2.1,2.84-1.37,9.07,1.13,11.34,.2,.18,.55,.33,.83,.33,.43,0,.36-.4,.41-.66,.28-1.62,.32-3.29,1.33-4.76,.24-.36-.17-.69-.43-1.04-1.19-1.6-2.62-3.07-3.26-5.21Zm26.05,5.04c-.03-1.42,.09-2.58-.45-3.67-.15-.31-.15-.72-.62-.79-.5-.08-.68,.31-.79,.62-.6,1.58-1.92,2.68-3.22,3.77-.51,.43-.53,.59-.04,1.04,1.02,.93,1.94,1.94,2.88,2.94,.78,.83,1.3,.62,1.61-.3,.43-1.26,.82-2.54,.64-3.61Zm-40.91,57.55c-4.71-1.83-9.48-1.88-14.32-.58,1.84,.56,3.86,.66,5.51,1.4,3.22,1.44,5.94,.12,8.81-.83Zm31.19-.83c1.72-.24,3.39-.69,5.15-.77,.8-.04,.86-.67,.41-1.15-1.04-1.09-2.2-2.34-3.77-2.47-1.09-.09-1.48,1.38-2.06,2.24-.16,.25-.37,.47-.55,.71-.23,.3-.91,.46-.55,.95,.29,.38,.79,.59,1.37,.5Zm7.71-21.58c.56-2.48,.83-4.71-.06-6.94-.27-.67-.38-1.62-1.35-1.68-.91-.06-.76,.92-1.12,1.42-.35,.47-.75,.92-1.15,1.36-.47,.52-.59,1.13-.05,1.55,1.46,1.14,1.96,2.9,3.73,4.29Zm-133.4,22.83c4.46,1.65,8.62,2.37,12.93-.03-4.36-1.12-8.53-.98-12.93,.03Zm153.67-43.86c-.28,1.74,1.17,2.93,1.44,4.43,.03,.16,.02,.52,.43,.42,.31-.08,.58-.2,.69-.53,.26-.77,.28-1.82,.87-2.24,2.13-1.51,.26-2.26-.6-3.2-.19-.21-.52-.32-.76-.5-1-.74-1.84-.48-2.06,.68-.06,.33,0,.69,0,.93Zm-4.76-13.1c.09-.8,.13-1.6,.26-2.38,.31-1.83-1.09-3.41-3.22-3.67-.51-.06-.66,.03-.78,.45-.44,1.69,1.73,5.01,3.74,5.6Zm11.67,31.78c-1.74,1.16-1.47,2.78-1.5,4.27-.02,.62-.41,1.54,.47,1.82,.83,.26,.99-.73,1.48-1.13,.14-.11,.26-.26,.41-.37,2.03-1.43,2.05-1.64,.34-3.28-.39-.37-.72-.79-1.19-1.31Zm-33.33-75.18c1.2-1.97,1.63-4.05,1.45-6.24-.06-.7,.27-1.67-1.11-1.49-.93,.12-1.76,.28-1.69,1.58,.11,2.12,1.37,4,1.35,6.15Zm-2.64,22.56c1.29-.55,2.44-1.14,3.31-2.1,.38-.42,1.6-.7,.66-1.34-.71-.49-1.98-1.25-2.77-.43-.67,.7-1.37,1.47-1.93,2.26-.4,.56-.17,1.3,.73,1.6ZM90.5,163.16c3.79,1.84,6.94,.07,10.19-.4-3.3-.24-6.6-.63-10.19,.4ZM253.11,93.94c.36-.28,1.59,.05,1.34-.69-.36-1.05-1.29-2.77-1.93-2.75-1.48,.03-.18,1.57-.75,2.43-.5,.75,.4,1.02,1.34,1.02Zm-16.42-15.33c.49,.96,.83,1.6,1.15,2.25,.23,.47,.43,1.03,1.11,1,.74-.03,.99-.76,1.22-1.18,.25-.46-.33-.95-.95-1.17-.73-.26-1.46-.52-2.53-.91Zm-2.92,84.92c-1.07-2.03-1.72-2.17-3.06-.66,1,.29,1.86,1.09,3.06,.66Zm37,7.06c-.22-.04-.4-.09-.57-.08-.11,0-.22,.09-.33,.14,.15,.26,.42,.2,.65,.17,.08,0,.14-.12,.25-.22Z"/>
  <path class="cls-6" d="M270.42,48.21c-4.41,.99-8.81,2.07-13.25,2.94-4.76,.94-9.56,1.69-14.34,2.51-.84,.15-1.36-.06-1.33-.95,.04-.91,.01-1.83-.04-2.74-.05-.8,.44-1.13,1.23-1.25,2.89-.7,5.77-1.41,8.67-2.07,.68-.16,1.13-.46,1.42-1,0-.25,0-.5,0-.76,.14-.02,.28-.04,.42-.06,.42,1.15,1.19,1.35,2.28,.66,9.13-2.3,18.28-4.56,27.39-6.91,9.06-2.33,18.11-4.68,27.11-7.17,3.62-1,7.38-1.61,10.84-3.04,1.25,.84,.81,2.27,1.42,3.37,.38,.69,1,1.53,.97,2.45-2.39,.65-4.77,1.32-7.16,1.94-10.98,2.86-21.97,5.67-32.93,8.59-4.24,1.13-8.59,1.99-12.7,3.49Z"/>
  <path class="cls-9" d="M209.99,48.12c.17,.55,.34,1.09,.51,1.64-.18,.58,.24,.78,.73,.94,0,1.25,1.48,2.51,.68,3.57-.66,.87-2.23,1.19-3.36,1.8-.85,.47-1.77,1.77-2.42,1.37-.91-.56-1.32-1.84-1.77-2.88-.85-1.94-1.58-3.92-2.37-5.89-.01-1.52-1.07-2.77-1.38-4.18-.77-3.45-2.26-6.74-2.89-10.22-.48-2.67-1.74-5.21-1.74-7.97,.49-.34,.89-.72,1.63-.71,2.04,.03,4.11,.2,6.08-.51-.37,.61-.15,1.23-.02,1.84,.96,4.49,2.1,8.94,3.65,13.32,.75,2.14,1.09,4.4,2.31,6.42,.07,.24,.14,.49,.21,.73,.05,.24,.09,.48,.14,.73Z"/>
  <path class="cls-13" d="M270.42,48.21c4.12-1.5,8.46-2.36,12.7-3.49,10.96-2.92,21.95-5.73,32.93-8.59,2.39-.62,4.77-1.29,7.16-1.94,1.35,.67,.78,1.04-.27,1.31-3.27,.86-6.53,1.72-9.8,2.58-13.4,3.49-26.79,6.98-40.19,10.46-.61,.16-1.25,.24-1.88,.36-.04-.36-.34-.53-.65-.69Z"/>
  <path class="cls-13" d="M260.26,42.66c-.29-.56-.9-.47-1.42-.54,7.4-1.94,14.81-3.86,22.21-5.81,12.44-3.27,24.88-6.56,37.32-9.83,.66-.17,1.43-.55,1.6,.51-.34,.14-.67,.32-1.03,.42-10.38,2.75-20.75,5.52-31.14,8.23-9.17,2.38-18.36,4.69-27.54,7.02Z"/>
  <path class="cls-3" d="M320.81,28.36c-3.46,1.43-7.23,2.04-10.84,3.04-9,2.49-18.05,4.84-27.11,7.17-9.12,2.35-18.26,4.61-27.39,6.91-.01-1,1-.99,1.64-1.15,6.73-1.75,13.48-3.42,20.21-5.17,9.7-2.52,19.37-5.11,29.07-7.64,4.69-1.22,9.41-2.38,14.12-3.56,.2,.07,.37,.17,.3,.4Z"/>
  <path class="cls-6" d="M320.51,27.96c-4.71,1.18-9.42,2.34-14.12,3.56-9.7,2.53-19.37,5.11-29.07,7.64-6.73,1.75-13.48,3.41-20.21,5.17-.64,.17-1.66,.15-1.64,1.15-1.09,.69-1.86,.49-2.28-.66,2.19-1.15,4.76-1.33,7.07-2.16,9.18-2.34,18.37-4.64,27.54-7.02,10.39-2.7,20.76-5.48,31.14-8.23,.36-.1,.69-.28,1.03-.42,.42,.22,.41,.63,.54,.97Z"/>
  <path class="cls-15" d="M195.98,26.3c0,2.76,1.25,5.3,1.74,7.97,.63,3.49,2.12,6.77,2.89,10.22,.32,1.41,1.37,2.66,1.38,4.18-1.24,.9,.11,1.92-.16,2.86-.35-.61-.83-1.18-1.04-1.82-1.82-5.65-3.8-11.26-5.12-17.04-.45-1.99-1.04-3.98-1.46-5.99-.11-.54-.6-1.36,.46-1.57,.92-.17,1.13,.56,1.3,1.19Z"/>
  <path class="cls-13" d="M209.64,46.66c-1.22-2.02-1.56-4.28-2.31-6.42-1.54-4.38-2.69-8.82-3.65-13.32-.13-.61-.36-1.23,.02-1.84,.2-.01,.41-.03,.61-.04,.25,.32,.38,.77,.97,.74,.12,4.03,1.72,7.81,2.71,11.68,.89,3.45,2.25,6.81,3.4,10.21-.67-.22-.96-.96-1.75-1.01Z"/>
  <path class="cls-15" d="M256.28,176.5c-.1-.59-1.1-.37-1.15-1,7.66,.58,15.18,.05,22.47-2.21,1.94-.6,4.04-1.07,5.17-2.87,.74-.54,1.36,.24,2.06,.16-1.51,2.11-4.05,2.93-6.45,3.71-6.89,2.23-14.09,2.77-21.38,2.44-.24-.01-.48-.14-.72-.22Z"/>
  <path class="cls-9" d="M84.8,171.58c1.44,.57,1.9,2.05,3.2,2.77,.47,.26,.75,.72,1.26,1.02,.59,.34,1.56,.75,1.35,1.45-.15,.49-1.12,.64-1.83,.69-1.46,.11-2.83,.76-4.33,.63,.12-2.18,.61-4.35,.36-6.55Z"/>
  <path class="cls-13" d="M229.14,48.74c1.08,.99-.82,1.53-.45,2.42-1.84-.26-3.36,.7-5.04,1.03-1.99,.22-3.86,.85-5.74,1.41-.16,.09-.32,.19-.48,.28-.13-.35-.27-.7-.4-1.04,3.13-1.16,6.47-1.71,9.69-2.6,1.03-.28,1.88-.66,2.43-1.49Z"/>
  <path class="cls-15" d="M149.95,179.2c1.17-.21,2.28,.18,3.41,.25,.73,.05,1.7,.48,2.21-.47,.55-.14,1.07-.08,1.56,.18,.19,.96,1.06,.64,1.69,.66,2.11,.08,4.23,.1,6.34,.15-1.29,.49-2.65,.33-3.98,.29-3.77-.11-7.56-.15-11.24-1.06Z"/>
  <path class="cls-13" d="M255.48,61.69c.02-2.35,.05-4.71,.05-7.06,0-1.1,.36-1.98,1.59-2.44-.63,.53-.57,1.22-.59,1.9-.05,1.87-.12,3.74-.19,5.61-.03,.74-.1,1.48-.85,1.99Z"/>
  <path class="cls-3" d="M298.75,141.12c.26-2.86,.39-5.72-.03-8.58,.46,.37,.85,.71,.88,1.37,.13,2.45,.43,4.9-.85,7.21Z"/>
  <path class="cls-15" d="M213.9,179.01c.01,.29,.02,.57,.03,.86-2.61,.15-5.22,.26-7.77-.43,.61-.56,1.19,.08,1.77,.03,.73-.07,1.71,.52,2.09-.57,1.3-.04,2.59-.13,3.88,.11Z"/>
  <path class="cls-12" d="M165.17,179.97c-2.11-.04-4.23-.07-6.34-.15-.63-.02-1.5,.3-1.69-.66,2.72,0,5.44,0,8.16-.01,.27,.25,.53,.51,.8,.76-.31,.02-.62,.04-.93,.06Z"/>
  <path class="cls-13" d="M254.37,62.2c0,.4,0,.79,0,1.19-.05,1.21,.5,.19,.78,.17,.12,.71-.55,1.35-.23,2.08-.57-.2-.86-.91-1.65-.7,.47-.88-.03-2.08,1.12-2.74Z"/>
  <path class="cls-13" d="M258.68,67.69c-.54,.07-1.17-.17-1.59,.34-.54-.29-1.09-.58-1.63-.87,.02-.36,.04-.71,.06-1.07,1.24,.23,2.16,.98,3.16,1.59Z"/>
  <path class="cls-15" d="M166.1,179.91c-.27-.25-.53-.51-.8-.76,.52-.08,1.05-.17,1.57-.25,.49,1.17,1.64,.33,2.42,.63-1,.52-2.1,.4-3.18,.38Z"/>
  <path class="cls-13" d="M213.81,53.57c-.84-1.01-1.78-1.98-1.75-3.34,1.16,.88,1.28,2.18,1.75,3.34Z"/>
  <path class="cls-15" d="M98.17,161.51c-2.07,.1-4.14,.21-6.2,.31,2.03-.64,4.12-.52,6.2-.31Z"/>
  <path class="cls-15" d="M160.27,162.11c-1.33,.78-2.54,.82-3.53-.45,1.08,.75,2.33,.45,3.53,.45Z"/>
  <path class="cls-10" d="M105.22,180.7c1.15-.24,2.31-.25,3.47-.05-1.15,.47-2.31,.44-3.47,.05Z"/>
  <path class="cls-15" d="M89.88,162.15c-.97,.55-1.94,1.06-3.12,.46,1.04-.15,2.08-.31,3.12-.46Z"/>
  <path class="cls-10" d="M99.85,179.93c1.24,.06,2.47,.17,3.63,.62-1.28,.13-2.51-.02-3.63-.62Z"/>
  <path class="cls-15" d="M166.49,161.63c-.69,.53-1.29,1.37-2.38,.55,.79-.18,1.59-.37,2.38-.55Z"/>
  <path class="cls-15" d="M285.05,170.26c.11-1.01,1.13-.8,1.8-1.06-.48,.51-1.03,.94-1.8,1.06Z"/>
  <path class="cls-15" d="M101.34,161.83c-.74,.04-1.53,.3-2.16-.3,.75-.09,1.5-.11,2.16,.3Z"/>
  <path class="cls-15" d="M142.36,178.12c.62-.53,1.27-.5,1.93-.05-.64,.02-1.28,.04-1.93,.05Z"/>
  <path class="cls-15" d="M130.86,162.53c-.75,.02-1.42-.1-1.74-.82,.6,.25,1.35,.22,1.74,.82Z"/>
  <path class="cls-13" d="M263.3,50.84c.3-.53,.83-.38,1.32-.34-.34,.42-.84,.35-1.32,.34Z"/>
  <path class="cls-15" d="M155.01,161.14c-.49,.06-.99,.15-1.36-.26,.5-.12,.99-.16,1.36,.26Z"/>
  <path class="cls-15" d="M146.66,161.06c-.26,.57-.65,.63-1.16,.23,.39-.08,.77-.15,1.16-.23Z"/>
  <path class="cls-15" d="M86.74,178.82c.41-.46,.94-.35,1.46-.23-.43,.35-.94,.35-1.46,.23Z"/>
  <path class="cls-15" d="M88.68,178.5c.42-.53,1.04-.37,1.62-.36-.48,.32-1.01,.49-1.62,.36Z"/>
  <path class="cls-15" d="M116.71,161.5c-.34,.53-.87,.38-1.39,.33,.37-.42,.85-.46,1.39-.33Z"/>
  <path class="cls-13" d="M261.35,51.28c.25-.58,.64-.61,1.14-.24-.38,.08-.76,.16-1.14,.24Z"/>
  <path class="cls-15" d="M105.42,162.59c-.41,.44-.81,.46-1.18-.03l1.18,.03Z"/>
  <path class="cls-15" d="M120.97,160.87c-.35,.39-.73,.42-1.14,.07,.36-.23,.75-.17,1.14-.07Z"/>
  <path class="cls-10" d="M97.99,179.51c.44-.03,.88-.05,1.2,.3-.5,.22-.89,.09-1.2-.3Z"/>
  <path class="cls-13" d="M215.09,53.35c-.1,.4-.25,.7-.75,.29,.25-.1,.5-.19,.75-.29Z"/>
  <path class="cls-13" d="M268.74,49.53c.14-.37,.33-.59,.75-.22-.25,.07-.5,.15-.75,.22Z"/>
  <path class="cls-3" d="M297.9,145.34c-.19-.09-.53-.16-.56-.28-.09-.36,.29-.37,.57-.41,0,.23-.01,.46-.02,.7Z"/>
  <path class="cls-15" d="M125.62,160.93c-.28,.32-.53,.26-.75-.05,.26-.12,.51-.11,.75,.05Z"/>
  <path class="cls-15" d="M118.27,161.14c-.17,.33-.4,.48-.76,.18,.21-.22,.45-.31,.76-.18Z"/>
  <path class="cls-15" d="M127.55,161.31c-.4,.37-.61,.17-.77-.2,.26,.07,.51,.13,.77,.2Z"/>
  <path class="cls-5" d="M205.28,25.78c-.59,.03-.72-.42-.97-.74,.69-.14,1.06,.06,.97,.74Z"/>
  <path class="cls-13" d="M260.4,68.67c-.45,.06-.85,.04-.99-.44,.34,.12,.82,.01,.99,.44Z"/>
  <path class="cls-15" d="M148.37,178.88c.4-.07,.76-.03,1.01,.3-.41,.1-.77,.04-1.01-.3Z"/>
  <path class="cls-15" d="M91.42,161.89c-.23,.33-.49,.37-.77,.04,.26-.01,.51-.03,.77-.04Z"/>
  <path class="cls-15" d="M145.18,178.26c.43-.14,.83-.17,1.08,.26-.41,.07-.8,.08-1.08-.26Z"/>
  <path class="cls-15" d="M144.32,161.57c-.26,.36-.63,.32-1.02,.24,.26-.35,.63-.31,1.02-.24Z"/>
  <path class="cls-15" d="M254.84,176.46c.31,0,.61,0,.92,0-.31,0-.61,0-.92,0Z"/>
  <path class="cls-3" d="M297.96,144.37c-.09-.29-.07-.56,.24-.75,.09,.29-.02,.54-.24,.75Z"/>
  <path class="cls-13" d="M216.62,52.96c-.21,.26-.51,.27-.82,.23,.27-.08,.55-.16,.82-.23Z"/>
  <path class="cls-15" d="M216.6,179.85c.15,0,.3,0,.45,0-.15,0-.3,0-.45,0Z"/>
  <path class="cls-10" d="M109.6,180.6c.18-.01,.36-.02,.54-.03-.18,.01-.36,.02-.54,.03Z"/>
  <path class="cls-15" d="M108.71,162.54c-.25,0-.5,0-.76,0,.25-.14,.5-.14,.76,0Z"/>
  <path class="cls-10" d="M95.99,178.87c.25-.05,.41,.04,.49,.26-.16-.09-.33-.17-.49-.26Z"/>
  <path class="cls-8" d="M251.64,119.8c-.75,1.11-.15,2.5-.97,3.62-.33,.45-.71,1-1.19,1.04-.58,.04-.49-.69-.7-1.09-1.07-2.09-2.71-3.85-4.46-5.47-4.73-4.36-9.85-8.39-14.08-13.15-1.78-2-3.3-4.21-4.17-6.78-.97-2.88,0-5.11,1.97-7.26,.58-.64,1.02-.6,1.52,0,3.03,3.64,6.58,6.89,9.97,10.25,2.8,2.77,5.69,5.47,8.38,8.34,1.27,1.36,2.44,2.73,3.28,4.33-.02,.03-.07,.08-.06,.1,.04,.06,.11,.11,.16,.17,.11,.71,.22,1.42,.34,2.12,0,1.26,.01,2.53,.02,3.79Z"/>
  <path class="cls-8" d="M249.85,150.54c-.02,1.94-.21,3.87-1.09,5.71-.57,1.17-1.29,1.62-2.6,.78-1.31-.85-2.61-1.48-2.6-3.36,0-2.45-1.7-4.5-3.22-6.46-3.32-4.27-6.98-8.33-10.14-12.68-1.98-2.72-3.63-5.7-3.83-9.1-.08-1.35,1.12-2.33,1.23-3.63,.02-.21,.43-.73,1-.68,.56,.04,.67,.44,.83,.82,1.4,3.29,4.15,5.65,7.02,7.91,3.48,2.74,7.45,5.08,9.97,8.62,2.59,3.64,3.89,7.69,3.44,12.08Z"/>
  <path class="cls-9" d="M230.18,52.5c.08-3.79,.75-6.63,2.8-9.22,2.27-2.86,5.68-3.43,9.11-3.81,3.72-.41,7.15,.55,10.07,2.72,.41,.3,.85,.64,.76,1.12-.09,.47-.69,.41-1.11,.51-2.9,.69-5.66,1.89-8.83,1.49-1.47-.18-2.7,1.33-2.94,3.43-.26,2.33,.12,4.62,.5,6.96,.67,4.08,1.54,8.16,1.55,12.31,0,.62,.75,1.36,.05,1.8-.93,.58-1.66-.32-2.4-.65-4.63-2.01-7.41-5.32-8.16-9.83-.42-2.53-1.54-4.96-1.41-6.83Z"/>
  <path class="cls-8" d="M265.69,86.25c.03,.35,.06,.71-.36,.9-.43,.2-.5-.24-.76-.36-5.21-2.42-10.75-4.08-16.35-5.65-4.64-1.3-9.43-2.38-13.37-5.13-1.77-1.24-3.54-2.51-3.65-4.73-.04-.76-.76-1.15-.94-1.83-.39-1.51,.8-2.57,1.33-3.8,.28-.66,.95-.19,1.23,.12,3.85,4.29,9.4,6.04,14.93,7.67,6.51,1.92,11.92,5.23,16.52,9.64,.88,.84,1.19,2.02,1.41,3.16Z"/>
  <path class="cls-2" d="M278.65,105.15c.01,.38,.18,.88-.25,1.11-.4,.21-.84,.04-1.24-.23-4.05-2.76-8.68-4.63-13.17-6.69-5.39-2.47-8.58-6.45-10.58-11.35-.09-.21-.17-.44-.18-.67-.02-1.02-.57-2.36,.22-2.98,.91-.72,2.14,.3,3.16,.65,4.68,1.61,9.23,3.44,13.25,6.2,2.93,2.01,5.14,4.56,6.67,7.5,1.05,2.03,2.27,4.09,2.12,6.47Z"/>
  <path class="cls-2" d="M285.11,153.13c.41,7.57-6.52,13.49-13.85,13.34-.55-.01-1.25,.23-1.6-.29-.39-.58,.54-.67,.67-1.07,.72-2.24,1.86-4.41,1.88-6.77,.02-2.36,.25-4.69,.61-7.02,.6-3.86,3.29-6.54,6.4-8.99,.51-.4,1.03-.4,1.46,.17,2.48,3.34,4.85,6.71,4.44,10.63Z"/>
  <path class="cls-2" d="M266.68,106.35c0-1.06,.02-1.87,0-2.67-.04-1.46,.79-1.46,1.96-.93,5.86,2.65,11.39,5.79,15.06,10.74,2.1,2.82,3.7,6.02,2.61,9.7-.32,1.09-1.15,1.75-1.81,2.56-.44,.54-1.03,.34-1.46-.12-4.15-4.38-9.14-8.02-13.46-12.23-2.04-1.99-3.69-4.32-2.88-7.04Z"/>
  <path class="cls-2" d="M265.78,169.6c1.6-1.84,3.76-1.91,6.13-2.05,5.82-.34,10.22-2.79,13.08-7.5,1.15-1.9,1.52-3.84,1.8-5.87,.09-.64,.05-1.22,.94-1.51,3.53-1.15,6.56-2.96,9.15-5.87,.67,4.95,.36,9.36-1.99,13.65-1.54,2.82-3.42,5.25-6.4,6.99-2.06,1.2-4.42,1.48-6.75,1.91-4.52,.83-9.06,1.28-13.68,.89-.83-.07-1.63-.15-2.28-.65Z"/>
  <path class="cls-2" d="M273.06,125.94c-.17-1.75,.53-3.25,1.43-4.73,.5-.83,1.01-.94,1.77-.28,4.28,3.8,8.44,7.72,11.43,12.43,1.08,1.69,1.77,3.69,2.08,5.62,.5,3.06-1.2,5.61-3.38,7.86-.67,.69-1.25,.38-1.58-.38-1.6-3.69-4.65-6.58-7.03-9.83-2.41-3.29-4.75-6.59-4.72-10.7Z"/>
  <path class="cls-8" d="M241.15,93.65c0,.88-.03,1.46,0,2.03,.07,1.22-.47,2.57-1.4,3.01-.71,.33-1.69-1.05-2.45-1.8-3.14-3.12-6.4-6.17-8.74-9.82-2.23-3.49-3.57-7.23-2.2-11.29,.36-1.06,1.06-2.07,1.81-2.95,.48-.56,1.1-1.19,1.89,.17,1.11,1.88,2.77,3.51,4.2,5.24,2.59,3.12,4.63,6.48,5.79,10.25,.55,1.81,1.44,3.54,1.08,5.17Z"/>
  <path class="cls-8" d="M224.84,148.52c.48-4.98-.24-9.68,1.4-14.2,.2-.55,.25-1.21,1.03-1.26,.68-.04,.57,.66,.84,1.01,2.01,2.6,3.82,5.35,6.1,7.75,1.28,1.36,1.05,2.69,.5,3.79-.53,1.08-.75,2.15-1.01,3.24-.82,3.39-1.98,6.72-2.05,10.24-.04,1.97-.96,2.66-2.91,2.78-1.95,.12-2.74-.87-3.15-2.39-1.01-3.74-.13-7.56-.74-10.96Z"/>
  <path class="cls-9" d="M140.43,163.35c.9,.45,1.91,.22,2.86,.29,1.76,.13,3.25,.83,4.75,1.54-9.1,5.17-25.12,10.69-36.15,4.49,7.12-2.65,13.91-5.55,21.55-6.25,2.33-.03,4.66-.05,6.99-.08Z"/>
  <path class="cls-9" d="M202.8,164.44c-3.64,1.8-6.84,3.64-10.54,4.65-4.26,1.16-8.54,2.24-13,2.64-4.06,.37-7.99,.02-11.75-1.45-.3-.12-.65-.18-.68-.52-.03-.36,.31-.42,.61-.54,6.17-2.32,12.28-4.88,18.92-5.91,5.38-.84,10.8-.68,16.44,1.13Z"/>
  <path class="cls-9" d="M195.7,169.29c11.4-6.25,22.97-8.23,35.86-5.27-11.17,6.98-22.84,8.41-35.86,5.27Z"/>
  <path class="cls-9" d="M84.51,168.94c11.57-5.31,23.28-6.92,36.16-4.02-1.96,1.27-3.8,1.61-5.47,2.25-4.77,1.85-9.46,3.82-14.75,4.42-5.6,.63-10.75-.31-15.93-2.65Z"/>
  <path class="cls-9" d="M256.37,162.57c-10.98,8.22-23.33,11.39-34.07,7.52,8.94-4.91,18.46-8.62,29.34-8.65,.13,0,.25,0,.38,0,.26,.03,.52,.07,.78,.1,.21,.22,.47,.31,.8,.24,.37,.04,.75,.08,1.12,.13,.55,.22,1.1,.44,1.65,.66Z"/>
  <path class="cls-8" d="M255.46,67.17c.54,.29,1.09,.58,1.63,.87,3.24,1.94,6.39,4,9.05,6.53,3.72,3.53,6.87,7.36,6.49,12.59-.03,.34-.01,.69-.08,1.03-.41,2.12-.94,2.34-2.92,1.26-1.42-.78-2.67-1.48-2.46-3.39,.22-1.95-1.46-3.39-2.85-4.67-3.57-3.3-7.71-5.97-12.52-7.73-.73-.27-1.24-.68-.75-1.46,1.03-1.61,2.15-3.18,3.07-4.84,.46-.83,.85-.39,1.33-.19Z"/>
  <path class="cls-9" d="M213.9,179.01c-1.29-.25-2.58-.16-3.88-.11-.73-.04-1.47-.09-2.2-.13-.27-.13-.54-.24-.85-.09-.39-.07-.78-.15-1.18-.22-.13-.03-.25-.06-.38-.09-5.32-1.13-10.09-3.22-14.21-6.43-.34-.27-.74-.54-.66-.98,.09-.52,.72-.36,1.08-.55,1.36-.7,2.64-.53,4.05-.06,4.56,1.52,9.35,1.49,14.12,1.37,2.51-.06,4.8-.25,6.89,1.68,1.8,1.67,4.23,2.83,7.07,3.99-3.48,1.21-6.7,1.27-9.85,1.64Z"/>
  <path class="cls-9" d="M166.87,178.9c-.52,.08-1.05,.17-1.57,.25-2.72,0-5.44,0-8.16,.01-.49-.26-1.01-.32-1.56-.18-.61-.22-1.24-.28-1.89-.2-.19,0-.38-.02-.57-.03-4.5-.77-9.04-1.43-13.15-3.36-1.52-.71-2.96-1.58-4.35-2.48-.7-.46-1.01-.97,.27-1.43,1.96-.7,3.54-.56,5.36,.48,2.04,1.17,4.54,1.22,6.95,1.14,2.86-.1,5.7-.44,8.42-1.16,2.01-.53,3.5-.55,5.18,.89,2.4,2.05,5.43,3.39,8.54,4.51,.28,.1,.63,.19,.71,.66-1.29,.63-2.79,.58-4.19,.89Z"/>
  <path class="cls-9" d="M161.54,171.05c1.77-1.11,3.32-.87,5.08,.03,2.92,1.49,6.23,1.84,9.54,1.82,3.49-.02,6.97-.35,10.33-1.26,1.56-.42,2.71-.22,3.86,1.01,1.98,2.12,4.82,3.28,7.54,4.59-6.89,3.2-27.83,2.02-36.36-6.18Z"/>
  <path class="cls-9" d="M174.09,165.3c-4.58,2.49-9.41,3.65-14.21,4.8-4.55,1.09-9.13,2.16-13.94,1.88-1.52-.09-2.92-.47-4.3-.97-.4-.15-.85-.39-.82-.87,.02-.41,.49-.52,.81-.65,5.77-2.36,11.34-5.23,17.7-6.17,5.02-.74,9.81,.4,14.75,1.99Z"/>
  <path class="cls-2" d="M294.66,119.95c.3,3.67-3.02,6.97-6.5,10.2-.35,.32-.82,.43-1.16,0-.65-.83-1.08-1.79-2.01-2.47-.45-.33-.07-.7,.31-.99,3.08-2.33,3.47-5.42,2.45-8.55-.8-2.46-2.27-4.78-4.07-6.85-.28-.32-.72-.37-.18-.88,1.67-1.55,2.76-3.4,3.22-5.52,.21-.97,.55-1.43,1.54-.43,4.06,4.06,6.2,8.78,6.39,15.48Z"/>
  <path class="cls-9" d="M254.37,62.2c-1.15,.67-.64,1.86-1.12,2.74-.74,2.49-2.22,4.64-3.73,6.8-.44,.63-.95,.72-1.62,.52-1.22-.38-2.4-.82-3.62-1.18-.68-.2-.62-.66-.63-1.11-.03-1.43,.09-2.88-.09-4.3-.13-1.09,.9-1.56,1.2-2.41,.84-2.39,1.16-4.85,1-7.31-.1-1.5,.69-1.86,2.04-2.05,1.85-.25,3.71-.49,5.52-.89,1.25-.28,1.66,.02,1.63,1.12-.08,2.7-.2,5.39-.58,8.07Z"/>
  <path class="cls-9" d="M250.45,175.74c.32,.36,1.19,0,1.2,.61,0,.44-.62,.55-1.03,.65-8.86,2.26-17.7,2.63-26.35-.62-2.76-1.04-5.22-2.65-7.54-4.37-.25-.19-.63-.32-.44-.62,.12-.18,.52-.25,.82-.31,1.83-.41,3.48-.38,5.37,.32,4.46,1.65,9.24,1.64,13.94,.99,2.57-.36,4.8-.47,6.97,1.16,1.13,.85,2.74,1.23,4.27,1.5,.2,.33,.53,.31,.87,.24,.26,.06,.53,.11,.79,.17,.31,.3,.7,.38,1.14,.29Z"/>
  <path class="cls-2" d="M297.04,130.79c.06,.34,.13,.67,.19,1-.02,1.75-.04,3.5-.06,5.25,0,.47,0,.93,.68,1.04,0,.23-.01,.47-.02,.7-1.19,1-.89,2.32-.98,3.56-.71,4.8-4.43,7.31-9,9.13-.48,.19-1.08,.23-1.23-.41-.25-1.14-.92-2.32,.49-3.32,1.64-1.15,2.96-2.59,3.41-4.41,.88-3.55,.74-7.03-1.51-10.24-.66-.94-.75-1.6,.46-2.44,1.86-1.28,3.13-3.11,4.48-4.83,.74-.94,1.22-.9,1.69,.13,.56,1.22,1.03,2.47,1.16,3.8-.08,.37-.17,.75,.22,1.04Z"/>
  <path class="cls-2" d="M280.27,105.42c-.31-3.95-2.1-7.39-4.69-10.55-.75-.91-1.4-1.87-2.35-2.67-1.02-.87-.04-2,.37-2.68,.84-1.43,.94-2.82,.76-4.3-.14-1.12,.26-1.21,1.24-.71,1.91,.96,3.55,2.19,4.9,3.72,3.28,3.72,4.46,8.02,4.81,12.66,.21,2.74-.17,5.2-1.92,7.44-.43,.56-.84,1.51-1.85,1.07-.86-.37-1.41-1.17-1.44-2.08-.02-.62,.11-1.25,.18-1.9Z"/>
  <path class="cls-8" d="M250.75,89.41c.36,3.55-1.12,6.82-2.09,10.13-.43,1.46-1.54,2.85-3.02,3.84-.29,.19-.43,.53-.94,.45-1.19-.18-3.65-3.43-3.22-4.47,.99-2.39,1.65-4.82,1.16-7.37-.31-1.62-.75-3.23-1.34-4.79-.42-1.1,.04-1.49,1.03-1.99,1.2-.61,2.45-1.2,3.26-2.33,.88-1.24,3.35-.83,4.17,.49,1.19,1.93,.71,4.02,1,6.03Z"/>
  <path class="cls-8" d="M239.49,119.95c-.21,2.29-.01,5.16-1.63,7.78-.6,.98-1.25,.97-1.9,.27-2.76-3.01-5.85-5.83-6.59-9.94-.61-3.39-.46-6.73,.35-10.06,.27-1.1,.89-.97,1.57-.27,2.29,2.36,4.72,4.59,7.33,6.68,.56,.45,.62,1.13,.66,1.75,.08,1.09,.12,2.17,.2,3.79Z"/>
  <path class="cls-9" d="M116.85,177.77c-9.55,3.81-22.52,1.97-29.99-6.25,.38-.42,.8-.14,1.17-.02,5.75,1.85,11.55,1.68,17.35,.28,1.26-.3,1.85-.17,2.71,.77,2.21,2.43,5.34,3.81,8.76,5.21Z"/>
  <path class="cls-9" d="M141.38,177.31c-3.9,1.34-7.53,2.12-11.31,1.76-6.17-.6-12.25-1.58-17.6-4.63-1.06-.6-1.99-1.4-2.87-2.21-.37-.34-1.12-.85-.38-1.45,.57-.47,1.24-.48,1.96-.1,3.04,1.58,6.33,2.46,9.85,2.76,3.4,.29,6.72-.05,10-.73,1.21-.25,2.19-.26,3.16,.57,1.98,1.69,4.44,2.78,7.18,4.04Z"/>
  <path class="cls-1" d="M269.46,162.95c-.97,2.92-3.08,4.98-6.14,6.31-3.09,1.29-6.34,1.7-9.73,1.54-2.07-.1-3.97-.83-5.98-1.12,.04-.19,.08-.38,.12-.56,.6-.01,1.08-.22,1.41-.67,.18-.12,.36-.25,.54-.37,.48,.05,.84-.11,1.06-.5,2.35-1.25,4.73-2.47,6.71-4.2,.36,.03,.73,.08,.92-.3,0,0,.02-.01,.02-.01,.58-.34,1.16-.67,1.73-1.02,2.51-1.54,5.45-2.03,8.32-2.69,.48-.06,.96-.13,1.45-.19,.14,.04,.29,.07,.43,.11,0,.09,.04,.15,.13,.18,.37,1.32-1.35,2.18-.98,3.5Z"/>
  <path class="cls-1" d="M282.77,170.41c-1.13,1.8-3.23,2.27-5.17,2.87-7.29,2.26-14.82,2.8-22.47,2.21-.61-.28-1.27-.18-1.92-.16-.47-.32-.98-.48-1.58-.36-.39-.09-.77-.18-1.16-.27-.52-.14-1.03-.27-1.55-.41-1.71-.6-3.44-1.15-5.1-1.82-.57-.23-1.65-.54-.69-1.46,.74-.13,1.49-.26,2.04-.77,.21-.02,.41-.05,.62-.07,.54,.17,1.08,.33,1.62,.5,5.33,1.67,10.63,1.79,15.89-.26,.42,.03,.84,.05,1.26,.08,3.88,1.69,7.94,1.13,11.98,.74,.5-.06,1.01-.13,1.51-.19,.98-.16,2.03,.1,2.93-.45,.59-.06,1.18-.12,1.77-.18Z"/>
  <path class="cls-6" d="M223.64,52.19c1.69-.32,3.21-1.29,5.04-1.03-.09,.44-1.34,.69-.07,1.38,1.11,.6,.57,1.89,.58,2.85,0,.87-1.11,.56-1.73,.7-2.25,.49-4.52,.89-6.78,1.33-.73,.14-1.4,.41-1.48,1.16-.07,.64,.4,1.16,.98,1.37,1.07,.39,1.55,1.34,2.76,1.97-5.32,1.39-10.38,1.88-15.5,.28-1.77-.56-2.22-2.03-.85-3.17,3.07-2.58,6.74-4.22,10.83-5.15,.16-.09,.32-.19,.48-.28,.32,.14,.38,.37,.31,.66-2.55,1-5.15,1.93-7.44,3.39-.93,.59-1.72,1.33-1.55,2.37,.19,1.14,1.37,1.19,2.41,1.29,.51,.05,1.02,.11,1.53,.16,.84,.41,1.69,.36,2.53,.02,.09-.04,.16-.37,.09-.42-.67-.52-1.53-.38-2.32-.44-.12,0-.24,.06-.36,.1-.44-.08-.9-.11-1.32-.25-.55-.19-1.45,.13-1.61-.64-.14-.68,.6-.9,1.08-1.26,2.24-1.68,4.98-2.5,7.59-3.55,1.74-.7,3.73-.79,5.36-1.76,.65-.38-.02-.31-.15-.42-.13-.22-.27-.43-.4-.65Z"/>
  <path class="cls-9" d="M209.33,63.95c2.57,.01,5,.33,7.46,.09,1.37-.13,1.8,1.19,2.33,1.97,1.65,2.41,3.42,4.71,5.72,6.67,.72,.62,.8,1.28,.48,2.17-.53,1.5-1.29,2.98-1.17,4.61,.06,.89-.24,1.01-1.08,.5-1.86-1.12-3.44-2.54-4.87-4-3.37-3.44-6.35-7.17-8.59-11.31-.1-.19-.16-.4-.27-.71Z"/>
  <path class="cls-8" d="M233.39,159.17c.36-3.03,.21-6.11,1.6-9.04,.63-1.33,.65-2.9,.94-4.36,.07-.34,.1-.71,.6-.76,.36-.04,.58,.14,.77,.41,1.26,1.76,2.74,3.43,3.75,5.29,2.46,4.5-.21,8.94-4.87,11.09-1.73,.8-2.6,.3-2.78-1.42-.04-.4,0-.8,0-1.2Z"/>
  <path class="cls-8" d="M240.91,116.74c2.76,2.08,5,4.19,6.2,6.76,1.12,2.4,.68,5.02-1.19,7.29-.75,.91-.4,2.76-2.04,2.76-1.09,0-2.07-1.18-2.96-1.99-.17-.16-.45-.23-.64-.37-1.09-.79-2.42-1.24-1.12-3.04,2.01-2.78,1.84-6.08,1.76-9.29-.02-.57,0-1.14,0-2.13Z"/>
  <path class="cls-8" d="M222.79,129.07c-.39-3.56,.78-7.05,3.03-10.29,.4-.58,.92-1.51,1.61-1.17,.79,.39,.77,1.61,.21,2.16-3.36,3.33-2.41,7.01-1.54,10.82,.4,1.76-1.22,3.27-1.68,4.97-.13,.48-.92,.03-1.08-.58-.5-1.85-.67-3.73-.55-5.9Z"/>
  <path class="cls-9" d="M184,162.33c-5.35,2.95-10.64,2.36-15.84,0,2.7-2,11.63-2.06,15.84,0Z"/>
  <path class="cls-7" d="M223.5,161.56c-1.89-.09-4.01-.17-6.13,.14-.75,.11-1.5-.04-1.03-.86,1.3-2.28,2.77-4.45,5.51-5.65,1.09-.48,1.6-.41,1.67,.83,.1,1.57,.03,3.16,1.17,4.58,.55,.68,.09,1.2-1.19,.96Z"/>
  <path class="cls-8" d="M225.29,99.64c.64,2.14,2.07,3.61,3.26,5.21,.26,.35,.67,.68,.43,1.04-1.01,1.48-1.04,3.14-1.33,4.76-.04,.25,.02,.66-.41,.66-.28,0-.62-.15-.83-.33-2.5-2.26-3.23-8.49-1.13-11.34Z"/>
  <path class="cls-8" d="M251.34,104.68c.18,1.07-.21,2.34-.64,3.61-.31,.92-.83,1.13-1.61,.3-.93-1-1.86-2.01-2.88-2.94-.49-.45-.47-.61,.04-1.04,1.29-1.1,2.62-2.19,3.22-3.77,.12-.31,.29-.69,.79-.62,.47,.07,.47,.48,.62,.79,.55,1.09,.42,2.25,.45,3.67Z"/>
  <path class="cls-9" d="M210.43,162.23c-2.87,.95-5.59,2.26-8.81,.83-1.66-.74-3.68-.85-5.51-1.4,4.84-1.3,9.61-1.25,14.32,.58Z"/>
  <path class="cls-15" d="M268.43,159.34c-2.87,.66-5.81,1.14-8.32,2.69-.57,.35-1.15,.68-1.73,1.02-.06-.41-.11-.83-.17-1.24,.66-.45,1.32-.9,2.09-1.43-1.89-.57-3.62-.6-5.33-.42-.58,.06-1.52-.19-1.65,.76-.49,.09-.99,.27-1.48-.12,.08-.75,1.45-.59,1.34-1.46,2.83-.51,5.63-.42,8.41,.29,1.59,.41,3.42-.42,4.01-1.74,.27,.56-.44,1.47,.61,1.73,.78,.2,1.33-.18,1.36-.97,.26-.01,.52-.03,.78-.04,.03,.31,.05,.62,.08,.94Z"/>
  <path class="cls-7" d="M241.61,161.4c-.58,.09-1.08-.12-1.37-.5-.36-.49,.32-.65,.55-.95,.18-.24,.39-.46,.55-.71,.57-.86,.96-2.33,2.06-2.24,1.57,.13,2.73,1.38,3.77,2.47,.46,.48,.4,1.11-.41,1.15-1.76,.08-3.43,.53-5.15,.77Z"/>
  <path class="cls-8" d="M249.32,139.82c-1.77-1.39-2.27-3.14-3.73-4.29-.54-.43-.42-1.04,.05-1.55,.4-.44,.8-.89,1.15-1.36,.36-.5,.21-1.47,1.12-1.42,.97,.06,1.09,1.01,1.35,1.68,.88,2.23,.61,4.46,.06,6.94Z"/>
  <path class="cls-9" d="M144.7,162.59c3.87-1.11,7.72-1.43,11.71,.13-1.61,.52-3.05,.99-4.48,1.46-1.24,.41-2.34,.54-3.58-.24-1.01-.64-2.34-.9-3.63-1.01-.04-.11-.04-.22-.02-.34Z"/>
  <path class="cls-9" d="M115.92,162.65c4.4-1.01,8.57-1.15,12.93-.03-4.31,2.4-8.47,1.69-12.93,.03Z"/>
  <path class="cls-15" d="M263.32,170.41c-5.25,2.05-10.55,1.93-15.89,.26-.54-.17-1.08-.34-1.62-.5,.45-.6,1.29-.08,1.81-.5,2.01,.3,3.91,1.02,5.98,1.12,3.39,.17,6.64-.25,9.73-1.54,0,.39,0,.77,0,1.16Z"/>
  <path class="cls-2" d="M269.59,118.78c0-.25-.05-.6,0-.93,.22-1.16,1.06-1.43,2.06-.68,.24,.18,.57,.29,.76,.5,.86,.95,2.72,1.69,.6,3.2-.59,.42-.61,1.47-.87,2.24-.11,.33-.38,.45-.69,.53-.41,.1-.4-.26-.43-.42-.27-1.5-1.72-2.69-1.44-4.43Z"/>
  <path class="cls-2" d="M264.83,105.68c-2.01-.58-4.18-3.91-3.74-5.6,.11-.42,.27-.51,.78-.45,2.13,.26,3.53,1.84,3.22,3.67-.13,.78-.18,1.58-.26,2.38Z"/>
  <path class="cls-2" d="M276.51,137.46c.47,.52,.81,.94,1.19,1.31,1.7,1.64,1.69,1.85-.34,3.28-.15,.11-.26,.25-.41,.37-.5,.4-.65,1.39-1.48,1.13-.87-.28-.48-1.19-.47-1.82,.04-1.5-.23-3.11,1.5-4.27Z"/>
  <path class="cls-4" d="M243.18,62.28c.02-2.16-1.24-4.04-1.35-6.15-.07-1.3,.76-1.46,1.69-1.58,1.38-.17,1.05,.8,1.11,1.49,.18,2.19-.25,4.27-1.45,6.24Z"/>
  <path class="cls-8" d="M240.53,84.84c-.9-.3-1.13-1.04-.73-1.6,.56-.79,1.26-1.55,1.93-2.26,.79-.82,2.06-.07,2.77,.43,.93,.64-.29,.92-.66,1.34-.87,.96-2.02,1.54-3.31,2.1Z"/>
  <path class="cls-9" d="M90.5,163.16c3.58-1.03,6.89-.64,10.19-.4-3.25,.48-6.39,2.24-10.19,.4Z"/>
  <path class="cls-2" d="M268.36,158.41c-.26,.01-.52,.03-.78,.04-.45-1.15,1.14-3.98,2.36-4.16,.22-.03,.55,0,.69,.13,.75,.69-.31,3.49-1.37,3.73-.31,.07-.6,.17-.9,.26Z"/>
  <path class="cls-1" d="M253.34,160.73c.12-.96,1.06-.7,1.65-.76,1.72-.19,3.44-.15,5.33,.42-.77,.53-1.43,.98-2.09,1.43-.48-.02-.96-.04-1.44-.06-.89-1.01-2.15-1.03-3.43-1.01h-.02Z"/>
  <path class="cls-3" d="M252.78,45.64c-.29,.54-.73,.84-1.42,1-2.9,.66-5.78,1.38-8.67,2.07-.26-.21-.53-.42-.79-.63,.44-.08,.87-.14,1.31-.23,3.22-.63,6.26-1.9,9.57-2.21Z"/>
  <path class="cls-6" d="M252.78,45.64c-3.31,.31-6.35,1.58-9.57,2.21-.43,.08-.87,.15-1.31,.23-.41-.59,.14-.69,.55-.78,3.44-.82,6.88-1.61,10.32-2.41,0,.25,0,.5,0,.76Z"/>
  <path class="cls-2" d="M253.11,93.94c-.93,0-1.84-.27-1.34-1.02,.58-.86-.72-2.39,.75-2.43,.64-.02,1.57,1.7,1.93,2.75,.25,.74-.99,.41-1.34,.69Z"/>
  <path class="cls-8" d="M236.7,78.62c1.08,.39,1.8,.65,2.53,.91,.62,.22,1.2,.71,.95,1.17-.23,.42-.49,1.15-1.22,1.18-.68,.03-.88-.53-1.11-1-.31-.65-.66-1.29-1.15-2.25Z"/>
  <path class="cls-15" d="M276.56,171.23c-4.04,.39-8.1,.95-11.98-.74,4,.12,7.94,1.13,11.98,.74Z"/>
  <path class="cls-11" d="M297.86,138.08c-.68-.11-.69-.57-.68-1.04,.02-1.75,.04-3.5,.06-5.25,1,.19,.53,.96,.74,1.46-.04,1.61-.08,3.21-.12,4.82Z"/>
  <path class="cls-15" d="M140.43,163.35c-2.33,.03-4.66,.05-6.99,.08,2.32-.81,4.65-.74,6.99-.08Z"/>
  <path class="cls-11" d="M233.77,163.53c-1.21,.43-2.06-.37-3.06-.66,1.34-1.51,1.99-1.37,3.06,.66Z"/>
  <path class="cls-15" d="M269.46,162.95c-.37-1.32,1.36-2.18,.98-3.5,1.18,1.55,.91,2.5-.98,3.5Z"/>
  <path class="cls-15" d="M253.35,160.74c1.27-.02,2.53,0,3.43,1.01-.14,.28-.27,.55-.41,.83-.55-.22-1.1-.44-1.65-.66,.29-.21,.47-.48,.03-.64-.52-.18-1.04-.15-1.15,.51-.32,.06-.58-.02-.8-.24,.18-.27,.37-.54,.55-.8Z"/>
  <path class="cls-3" d="M251.64,119.8c0-1.26-.01-2.53-.02-3.79,1.14,.92,1.15,2.86,.02,3.79Z"/>
  <path class="cls-11" d="M296.87,142.35c.09-1.24-.21-2.56,.98-3.56,.04,.23,.09,.46,.13,.69-.22,1-.13,2.1-1.1,2.88Z"/>
  <path class="cls-3" d="M297.97,139.47c-.04-.23-.09-.46-.13-.69,0-.23,.01-.47,.02-.7,.04-1.61,.08-3.21,.12-4.82,.48,2.07,.49,4.14,0,6.21Z"/>
  <path class="cls-15" d="M248.93,174.29c.52,.14,1.03,.27,1.55,.41,0,.34-.02,.69-.03,1.03-.44,.09-.82,.01-1.14-.29-.13-.39-.26-.77-.39-1.16Z"/>
  <path class="cls-15" d="M281,170.59c-.9,.55-1.96,.28-2.93,.45,.82-.98,1.95-.34,2.93-.45Z"/>
  <path class="cls-15" d="M245.19,170.24c-.56,.51-1.3,.64-2.04,.77,.42-.8,1.21-.83,2.04-.77Z"/>
  <path class="cls-3" d="M251.61,111.97c.53,.13,.97,.33,.8,.93-.69-.03-.83-.42-.8-.93Z"/>
  <path class="cls-13" d="M211.23,50.69c-.49-.16-.92-.36-.73-.94,.7,.03,.71,.49,.73,.94Z"/>
  <path class="cls-15" d="M249.15,168.43c-.33,.46-.81,.66-1.41,.67,.13-.79,.85-.6,1.41-.67Z"/>
  <path class="cls-15" d="M258.37,163.06c-.19,.38-.56,.34-.92,.3,.18-.39,.52-.43,.92-.3Z"/>
  <path class="cls-15" d="M250.75,167.57c-.22,.38-.58,.55-1.06,.5,.12-.56,.53-.63,1.06-.5Z"/>
  <path class="cls-15" d="M270.77,170.59c-.11,.1-.17,.21-.25,.22-.24,.03-.5,.09-.65-.17,.11-.05,.22-.14,.33-.14,.18,0,.35,.05,.57,.08Z"/>
  <path class="cls-15" d="M251.64,174.98c.6-.12,1.11,.05,1.58,.36-.56-.01-1.17,.17-1.58-.36Z"/>
  <path class="cls-15" d="M144.7,162.59c-.02,.11-.02,.23,.02,.34-.29-.02-.58-.04-.88-.06,0-.07,0-.13,0-.2,.29-.03,.57-.05,.86-.08Z"/>
  <path class="cls-11" d="M297.04,130.79c-.39-.29-.31-.66-.22-1.04,.26,.31,.28,.67,.22,1.04Z"/>
  <path class="cls-15" d="M206.96,178.67c.31-.15,.58-.04,.85,.09-.28-.03-.57-.06-.85-.09Z"/>
  <path class="cls-13" d="M209.99,48.12c-.05-.24-.09-.48-.14-.73,.05,.24,.09,.48,.14,.73Z"/>
  <path class="cls-15" d="M248.53,175.29c-.34,.07-.67,.09-.87-.24,.33-.03,.65-.03,.87,.24Z"/>
  <path class="cls-15" d="M270.31,159.26c-.14-.04-.29-.07-.43-.11,.14,.04,.29,.07,.43,.11Z"/>
  <path class="cls-15" d="M251.25,159.48c.12-.06,.25-.11,.37-.17-.12,.06-.25,.11-.37,.17Z"/>
  <path class="cls-15" d="M205.41,178.35c.13,.03,.25,.06,.38,.09-.13-.03-.25-.06-.38-.09Z"/>
  <path class="cls-15" d="M153.12,178.76c.19,0,.38,.02,.57,.03-.19,0-.38-.02-.57-.03Z"/>
  <path class="cls-15" d="M252.02,161.44c-.13,0-.25,0-.38,0,.13-.15,.26-.15,.38,0Z"/>
  <path class="cls-3" d="M251.28,113.88c-.06-.06-.12-.11-.16-.17-.01-.02,.04-.06,.06-.1,.08,.08,.11,.17,.1,.27Z"/>
  <path class="cls-3" d="M253.05,120.5c-.02,.17-.04,.34-.06,.52,.02-.17,.04-.34,.06-.52Z"/>
  <path class="cls-11" d="M218.21,54.25c.07-.28,0-.52-.31-.66,1.89-.56,3.75-1.19,5.74-1.41,.13,.22,.27,.43,.4,.65-1.95,.47-3.89,.94-5.84,1.41Z"/>
  <path class="cls-12" d="M253.6,161.78c.11-.66,.64-.69,1.15-.51,.44,.15,.26,.43-.03,.64-.37-.04-.75-.08-1.12-.13Z"/>
  <path class="cls-3" d="M218.21,54.25c1.95-.47,3.89-.94,5.84-1.41,.13,.12,.8,.04,.15,.42-1.63,.97-3.62,1.05-5.36,1.76-2.61,1.05-5.35,1.87-7.59,3.55-.48,.36-1.23,.58-1.08,1.26,.16,.77,1.06,.45,1.61,.64,.41,.14,.88,.17,1.32,.25,.02,.25,.04,.5,.06,.75-.51-.05-1.02-.11-1.53-.16-1.04-.1-2.22-.16-2.41-1.29-.17-1.04,.62-1.78,1.55-2.37,2.29-1.45,4.89-2.39,7.44-3.39Z"/>
  <path class="cls-14" d="M213.15,61.47c-.02-.25-.04-.5-.06-.75,.12-.04,.24-.11,.36-.1,.8,.06,1.65-.08,2.32,.44,.07,.05,0,.39-.09,.42-.84,.34-1.69,.4-2.53-.02Z"/>
</svg>