<?xml version="1.0" encoding="utf-8"?>
<!-- Generator: Adobe Illustrator 28.1.0, SVG Export Plug-In . SVG Version: 6.00 Build 0)  -->
<svg version="1.1" id="Layer_1" xmlns="http://www.w3.org/2000/svg" xmlns:xlink="http://www.w3.org/1999/xlink" x="0px" y="0px"
	 viewBox="0 0 24 24" style="enable-background:new 0 0 24 24;" xml:space="preserve">
<style type="text/css">
	.st0{fill:#868686;}
</style>
<g>
	<path class="st0" d="M20.2,7.6l-6.4-4.9c-1.1-0.8-2.6-0.8-3.7,0L3.6,7.6C2.9,8.2,2.5,9,2.5,9.8v9.5c0,1.5,1.2,2.7,2.7,2.7h13.4
		c1.5,0,2.7-1.2,2.7-2.7l0-9.5C21.3,8.9,20.9,8.2,20.2,7.6z M20,19.3c0,0.8-0.6,1.4-1.4,1.4H5.2c-0.8,0-1.4-0.6-1.4-1.4V9.8
		c0-0.4,0.2-0.8,0.6-1.1l6.5-4.9c0.3-0.2,0.7-0.4,1.1-0.4c0.4,0,0.8,0.1,1.1,0.4c0,0,0,0,0,0l6.4,4.9C19.8,8.9,20,9.3,20,9.8
		L20,19.3z"/>
	<path class="st0" d="M15,10.8l-2.6-1.5c-0.3-0.2-0.8-0.2-1,0l-2.6,1.5c-0.3,0.2-0.5,0.6-0.5,0.9v3c0,0.3,0.2,0.7,0.5,0.9l2.6,1.5
		c0.3,0.2,0.8,0.2,1,0l2.6-1.5c0.3-0.2,0.5-0.6,0.5-0.9v-3C15.5,11.3,15.3,10.9,15,10.8z"/>
</g>
</svg>
