<svg xmlns="http://www.w3.org/2000/svg" xmlns:xlink="http://www.w3.org/1999/xlink" width="400" zoomAndPan="magnify" viewBox="0 0 300 299.999988" height="400" preserveAspectRatio="xMidYMid meet" version="1.0"><defs><clipPath id="0206e37c6c"><path d="M 74.90625 117 L 141 117 L 141 198 L 74.90625 198 Z M 74.90625 117 " clip-rule="nonzero"/></clipPath><clipPath id="4081326ff5"><path d="M 74.945312 123 L 111 123 L 111 140 L 74.945312 140 Z M 74.945312 123 " clip-rule="nonzero"/></clipPath><clipPath id="8d34e9a435"><path d="M 139.066406 177.1875 C 138.648438 179.902344 139.390625 183.164062 137.644531 185.28125 C 136.765625 186.34375 135.5 187 134.257812 187.601562 C 123.574219 192.796875 111.964844 196.078125 100.140625 197.242188 C 98.722656 197.382812 97.253906 197.488281 95.890625 197.078125 C 92.871094 196.167969 91.570312 193.8125 90.09375 191.027344 C 84.671875 180.789062 80.597656 169.859375 77.601562 158.667969 C 76.167969 153.3125 74.976562 147.839844 74.945312 142.296875 C 74.917969 137.445312 75.828125 132.503906 78.089844 128.238281 C 78.410156 127.625 78.761719 127.03125 79.140625 126.453125 C 82.171875 121.8125 87.183594 118.316406 92.703125 117.886719 C 94.859375 117.714844 96.996094 118.011719 99.039062 118.671875 C 102.484375 119.773438 105.660156 121.898438 108.183594 124.527344 C 112.203125 128.710938 114.792969 134.066406 116.921875 139.464844 C 119.050781 144.871094 120.792969 150.445312 123.460938 155.601562 C 123.234375 150.988281 124.933594 146.277344 127.851562 142.699219 C 129.027344 141.261719 130.550781 139.9375 132.394531 139.734375 C 134.261719 139.53125 136.101562 140.566406 137.292969 142.023438 C 138.480469 143.476562 139.113281 145.308594 139.582031 147.128906 C 142.105469 156.902344 140.589844 167.210938 139.066406 177.1875 Z M 139.066406 177.1875 " clip-rule="nonzero"/></clipPath><clipPath id="f671a77b55"><path d="M 75 137 L 84 137 L 84 146 L 75 146 Z M 75 137 " clip-rule="nonzero"/></clipPath><clipPath id="51a4cb4949"><path d="M 139.066406 177.1875 C 138.648438 179.902344 139.390625 183.164062 137.644531 185.28125 C 136.765625 186.34375 135.5 187 134.257812 187.601562 C 123.574219 192.796875 111.964844 196.078125 100.140625 197.242188 C 98.722656 197.382812 97.253906 197.488281 95.890625 197.078125 C 92.871094 196.167969 91.570312 193.8125 90.09375 191.027344 C 84.671875 180.789062 80.597656 169.859375 77.601562 158.667969 C 76.167969 153.3125 74.976562 147.839844 74.945312 142.296875 C 74.917969 137.445312 75.828125 132.503906 78.089844 128.238281 C 78.410156 127.625 78.761719 127.03125 79.140625 126.453125 C 82.171875 121.8125 87.183594 118.316406 92.703125 117.886719 C 94.859375 117.714844 96.996094 118.011719 99.039062 118.671875 C 102.484375 119.773438 105.660156 121.898438 108.183594 124.527344 C 112.203125 128.710938 114.792969 134.066406 116.921875 139.464844 C 119.050781 144.871094 120.792969 150.445312 123.460938 155.601562 C 123.234375 150.988281 124.933594 146.277344 127.851562 142.699219 C 129.027344 141.261719 130.550781 139.9375 132.394531 139.734375 C 134.261719 139.53125 136.101562 140.566406 137.292969 142.023438 C 138.480469 143.476562 139.113281 145.308594 139.582031 147.128906 C 142.105469 156.902344 140.589844 167.210938 139.066406 177.1875 Z M 139.066406 177.1875 " clip-rule="nonzero"/></clipPath><clipPath id="c7f57c86af"><path d="M 82 135 L 93 135 L 93 144 L 82 144 Z M 82 135 " clip-rule="nonzero"/></clipPath><clipPath id="45275b82b5"><path d="M 139.066406 177.1875 C 138.648438 179.902344 139.390625 183.164062 137.644531 185.28125 C 136.765625 186.34375 135.5 187 134.257812 187.601562 C 123.574219 192.796875 111.964844 196.078125 100.140625 197.242188 C 98.722656 197.382812 97.253906 197.488281 95.890625 197.078125 C 92.871094 196.167969 91.570312 193.8125 90.09375 191.027344 C 84.671875 180.789062 80.597656 169.859375 77.601562 158.667969 C 76.167969 153.3125 74.976562 147.839844 74.945312 142.296875 C 74.917969 137.445312 75.828125 132.503906 78.089844 128.238281 C 78.410156 127.625 78.761719 127.03125 79.140625 126.453125 C 82.171875 121.8125 87.183594 118.316406 92.703125 117.886719 C 94.859375 117.714844 96.996094 118.011719 99.039062 118.671875 C 102.484375 119.773438 105.660156 121.898438 108.183594 124.527344 C 112.203125 128.710938 114.792969 134.066406 116.921875 139.464844 C 119.050781 144.871094 120.792969 150.445312 123.460938 155.601562 C 123.234375 150.988281 124.933594 146.277344 127.851562 142.699219 C 129.027344 141.261719 130.550781 139.9375 132.394531 139.734375 C 134.261719 139.53125 136.101562 140.566406 137.292969 142.023438 C 138.480469 143.476562 139.113281 145.308594 139.582031 147.128906 C 142.105469 156.902344 140.589844 167.210938 139.066406 177.1875 Z M 139.066406 177.1875 " clip-rule="nonzero"/></clipPath><clipPath id="1e1f68b250"><path d="M 92 130 L 102 130 L 102 140 L 92 140 Z M 92 130 " clip-rule="nonzero"/></clipPath><clipPath id="fb04c4a47a"><path d="M 139.066406 177.1875 C 138.648438 179.902344 139.390625 183.164062 137.644531 185.28125 C 136.765625 186.34375 135.5 187 134.257812 187.601562 C 123.574219 192.796875 111.964844 196.078125 100.140625 197.242188 C 98.722656 197.382812 97.253906 197.488281 95.890625 197.078125 C 92.871094 196.167969 91.570312 193.8125 90.09375 191.027344 C 84.671875 180.789062 80.597656 169.859375 77.601562 158.667969 C 76.167969 153.3125 74.976562 147.839844 74.945312 142.296875 C 74.917969 137.445312 75.828125 132.503906 78.089844 128.238281 C 78.410156 127.625 78.761719 127.03125 79.140625 126.453125 C 82.171875 121.8125 87.183594 118.316406 92.703125 117.886719 C 94.859375 117.714844 96.996094 118.011719 99.039062 118.671875 C 102.484375 119.773438 105.660156 121.898438 108.183594 124.527344 C 112.203125 128.710938 114.792969 134.066406 116.921875 139.464844 C 119.050781 144.871094 120.792969 150.445312 123.460938 155.601562 C 123.234375 150.988281 124.933594 146.277344 127.851562 142.699219 C 129.027344 141.261719 130.550781 139.9375 132.394531 139.734375 C 134.261719 139.53125 136.101562 140.566406 137.292969 142.023438 C 138.480469 143.476562 139.113281 145.308594 139.582031 147.128906 C 142.105469 156.902344 140.589844 167.210938 139.066406 177.1875 Z M 139.066406 177.1875 " clip-rule="nonzero"/></clipPath><clipPath id="dba34e0ca5"><path d="M 100 124 L 110 124 L 110 135 L 100 135 Z M 100 124 " clip-rule="nonzero"/></clipPath><clipPath id="6fff495b3d"><path d="M 139.066406 177.1875 C 138.648438 179.902344 139.390625 183.164062 137.644531 185.28125 C 136.765625 186.34375 135.5 187 134.257812 187.601562 C 123.574219 192.796875 111.964844 196.078125 100.140625 197.242188 C 98.722656 197.382812 97.253906 197.488281 95.890625 197.078125 C 92.871094 196.167969 91.570312 193.8125 90.09375 191.027344 C 84.671875 180.789062 80.597656 169.859375 77.601562 158.667969 C 76.167969 153.3125 74.976562 147.839844 74.945312 142.296875 C 74.917969 137.445312 75.828125 132.503906 78.089844 128.238281 C 78.410156 127.625 78.761719 127.03125 79.140625 126.453125 C 82.171875 121.8125 87.183594 118.316406 92.703125 117.886719 C 94.859375 117.714844 96.996094 118.011719 99.039062 118.671875 C 102.484375 119.773438 105.660156 121.898438 108.183594 124.527344 C 112.203125 128.710938 114.792969 134.066406 116.921875 139.464844 C 119.050781 144.871094 120.792969 150.445312 123.460938 155.601562 C 123.234375 150.988281 124.933594 146.277344 127.851562 142.699219 C 129.027344 141.261719 130.550781 139.9375 132.394531 139.734375 C 134.261719 139.53125 136.101562 140.566406 137.292969 142.023438 C 138.480469 143.476562 139.113281 145.308594 139.582031 147.128906 C 142.105469 156.902344 140.589844 167.210938 139.066406 177.1875 Z M 139.066406 177.1875 " clip-rule="nonzero"/></clipPath><clipPath id="f17b24686c"><path d="M 74.90625 125 L 141 125 L 141 198 L 74.90625 198 Z M 74.90625 125 " clip-rule="nonzero"/></clipPath><clipPath id="b70ec61406"><path d="M 158 75 L 224.90625 75 L 224.90625 155 L 158 155 Z M 158 75 " clip-rule="nonzero"/></clipPath><clipPath id="c41121b297"><path d="M 189 80 L 224.90625 80 L 224.90625 97 L 189 97 Z M 189 80 " clip-rule="nonzero"/></clipPath><clipPath id="3ad72e12cf"><path d="M 160.730469 134.480469 C 161.148438 137.195312 160.40625 140.457031 162.15625 142.574219 C 163.035156 143.636719 164.296875 144.292969 165.539062 144.894531 C 176.222656 150.089844 187.832031 153.371094 199.65625 154.535156 C 201.078125 154.675781 202.542969 154.78125 203.910156 154.371094 C 206.929688 153.460938 208.230469 151.105469 209.703125 148.320312 C 215.125 138.082031 219.203125 127.152344 222.195312 115.960938 C 223.628906 110.605469 224.820312 105.132812 224.855469 99.589844 C 224.878906 94.738281 223.96875 89.796875 221.707031 85.53125 C 221.386719 84.917969 221.035156 84.324219 220.65625 83.746094 C 217.625 79.105469 212.613281 75.609375 207.09375 75.179688 C 204.9375 75.007812 202.800781 75.304688 200.757812 75.964844 C 197.3125 77.066406 194.136719 79.191406 191.613281 81.820312 C 187.59375 86.003906 185.007812 91.359375 182.878906 96.757812 C 180.75 102.164062 179.003906 107.738281 176.335938 112.894531 C 176.5625 108.28125 174.867188 103.570312 171.945312 99.992188 C 170.769531 98.554688 169.246094 97.230469 167.402344 97.027344 C 165.535156 96.824219 163.695312 97.859375 162.503906 99.316406 C 161.320312 100.773438 160.683594 102.601562 160.214844 104.421875 C 157.691406 114.195312 159.207031 124.503906 160.730469 134.480469 Z M 160.730469 134.480469 " clip-rule="nonzero"/></clipPath><clipPath id="dbba2016ac"><path d="M 216 94 L 224.90625 94 L 224.90625 103 L 216 103 Z M 216 94 " clip-rule="nonzero"/></clipPath><clipPath id="28af016681"><path d="M 160.730469 134.480469 C 161.148438 137.195312 160.40625 140.457031 162.15625 142.574219 C 163.035156 143.636719 164.296875 144.292969 165.539062 144.894531 C 176.222656 150.089844 187.832031 153.371094 199.65625 154.535156 C 201.078125 154.675781 202.542969 154.78125 203.910156 154.371094 C 206.929688 153.460938 208.230469 151.105469 209.703125 148.320312 C 215.125 138.082031 219.203125 127.152344 222.195312 115.960938 C 223.628906 110.605469 224.820312 105.132812 224.855469 99.589844 C 224.878906 94.738281 223.96875 89.796875 221.707031 85.53125 C 221.386719 84.917969 221.035156 84.324219 220.65625 83.746094 C 217.625 79.105469 212.613281 75.609375 207.09375 75.179688 C 204.9375 75.007812 202.800781 75.304688 200.757812 75.964844 C 197.3125 77.066406 194.136719 79.191406 191.613281 81.820312 C 187.59375 86.003906 185.007812 91.359375 182.878906 96.757812 C 180.75 102.164062 179.003906 107.738281 176.335938 112.894531 C 176.5625 108.28125 174.867188 103.570312 171.945312 99.992188 C 170.769531 98.554688 169.246094 97.230469 167.402344 97.027344 C 165.535156 96.824219 163.695312 97.859375 162.503906 99.316406 C 161.320312 100.773438 160.683594 102.601562 160.214844 104.421875 C 157.691406 114.195312 159.207031 124.503906 160.730469 134.480469 Z M 160.730469 134.480469 " clip-rule="nonzero"/></clipPath><clipPath id="0a2816783b"><path d="M 206 92 L 218 92 L 218 101 L 206 101 Z M 206 92 " clip-rule="nonzero"/></clipPath><clipPath id="890ea29a55"><path d="M 160.730469 134.480469 C 161.148438 137.195312 160.40625 140.457031 162.15625 142.574219 C 163.035156 143.636719 164.296875 144.292969 165.539062 144.894531 C 176.222656 150.089844 187.832031 153.371094 199.65625 154.535156 C 201.078125 154.675781 202.542969 154.78125 203.910156 154.371094 C 206.929688 153.460938 208.230469 151.105469 209.703125 148.320312 C 215.125 138.082031 219.203125 127.152344 222.195312 115.960938 C 223.628906 110.605469 224.820312 105.132812 224.855469 99.589844 C 224.878906 94.738281 223.96875 89.796875 221.707031 85.53125 C 221.386719 84.917969 221.035156 84.324219 220.65625 83.746094 C 217.625 79.105469 212.613281 75.609375 207.09375 75.179688 C 204.9375 75.007812 202.800781 75.304688 200.757812 75.964844 C 197.3125 77.066406 194.136719 79.191406 191.613281 81.820312 C 187.59375 86.003906 185.007812 91.359375 182.878906 96.757812 C 180.75 102.164062 179.003906 107.738281 176.335938 112.894531 C 176.5625 108.28125 174.867188 103.570312 171.945312 99.992188 C 170.769531 98.554688 169.246094 97.230469 167.402344 97.027344 C 165.535156 96.824219 163.695312 97.859375 162.503906 99.316406 C 161.320312 100.773438 160.683594 102.601562 160.214844 104.421875 C 157.691406 114.195312 159.207031 124.503906 160.730469 134.480469 Z M 160.730469 134.480469 " clip-rule="nonzero"/></clipPath><clipPath id="edee1873ff"><path d="M 198 88 L 208 88 L 208 97 L 198 97 Z M 198 88 " clip-rule="nonzero"/></clipPath><clipPath id="8bd85f8b1c"><path d="M 160.730469 134.480469 C 161.148438 137.195312 160.40625 140.457031 162.15625 142.574219 C 163.035156 143.636719 164.296875 144.292969 165.539062 144.894531 C 176.222656 150.089844 187.832031 153.371094 199.65625 154.535156 C 201.078125 154.675781 202.542969 154.78125 203.910156 154.371094 C 206.929688 153.460938 208.230469 151.105469 209.703125 148.320312 C 215.125 138.082031 219.203125 127.152344 222.195312 115.960938 C 223.628906 110.605469 224.820312 105.132812 224.855469 99.589844 C 224.878906 94.738281 223.96875 89.796875 221.707031 85.53125 C 221.386719 84.917969 221.035156 84.324219 220.65625 83.746094 C 217.625 79.105469 212.613281 75.609375 207.09375 75.179688 C 204.9375 75.007812 202.800781 75.304688 200.757812 75.964844 C 197.3125 77.066406 194.136719 79.191406 191.613281 81.820312 C 187.59375 86.003906 185.007812 91.359375 182.878906 96.757812 C 180.75 102.164062 179.003906 107.738281 176.335938 112.894531 C 176.5625 108.28125 174.867188 103.570312 171.945312 99.992188 C 170.769531 98.554688 169.246094 97.230469 167.402344 97.027344 C 165.535156 96.824219 163.695312 97.859375 162.503906 99.316406 C 161.320312 100.773438 160.683594 102.601562 160.214844 104.421875 C 157.691406 114.195312 159.207031 124.503906 160.730469 134.480469 Z M 160.730469 134.480469 " clip-rule="nonzero"/></clipPath><clipPath id="3823c2b51b"><path d="M 190 82 L 199 82 L 199 92 L 190 92 Z M 190 82 " clip-rule="nonzero"/></clipPath><clipPath id="58ed117691"><path d="M 160.730469 134.480469 C 161.148438 137.195312 160.40625 140.457031 162.15625 142.574219 C 163.035156 143.636719 164.296875 144.292969 165.539062 144.894531 C 176.222656 150.089844 187.832031 153.371094 199.65625 154.535156 C 201.078125 154.675781 202.542969 154.78125 203.910156 154.371094 C 206.929688 153.460938 208.230469 151.105469 209.703125 148.320312 C 215.125 138.082031 219.203125 127.152344 222.195312 115.960938 C 223.628906 110.605469 224.820312 105.132812 224.855469 99.589844 C 224.878906 94.738281 223.96875 89.796875 221.707031 85.53125 C 221.386719 84.917969 221.035156 84.324219 220.65625 83.746094 C 217.625 79.105469 212.613281 75.609375 207.09375 75.179688 C 204.9375 75.007812 202.800781 75.304688 200.757812 75.964844 C 197.3125 77.066406 194.136719 79.191406 191.613281 81.820312 C 187.59375 86.003906 185.007812 91.359375 182.878906 96.757812 C 180.75 102.164062 179.003906 107.738281 176.335938 112.894531 C 176.5625 108.28125 174.867188 103.570312 171.945312 99.992188 C 170.769531 98.554688 169.246094 97.230469 167.402344 97.027344 C 165.535156 96.824219 163.695312 97.859375 162.503906 99.316406 C 161.320312 100.773438 160.683594 102.601562 160.214844 104.421875 C 157.691406 114.195312 159.207031 124.503906 160.730469 134.480469 Z M 160.730469 134.480469 " clip-rule="nonzero"/></clipPath><clipPath id="89b4f05e03"><path d="M 159 82 L 224.90625 82 L 224.90625 155 L 159 155 Z M 159 82 " clip-rule="nonzero"/></clipPath></defs><rect x="-30" width="360" fill="#ffffff" y="-29.999999" height="359.999986" fill-opacity="1"/><rect x="-30" width="360" fill="#52bf90" y="-29.999999" height="359.999986" fill-opacity="1"/><path fill="#802221" d="M 145.507812 225 C 139.707031 225 133.792969 223.394531 128.707031 220.324219 C 121.582031 216.019531 115.910156 208.789062 113.140625 200.480469 C 112.976562 199.992188 113.242188 199.460938 113.734375 199.296875 C 114.222656 199.132812 114.75 199.398438 114.914062 199.890625 C 117.542969 207.78125 122.921875 214.644531 129.675781 218.722656 C 136.734375 222.988281 145.480469 224.25 153.066406 222.105469 C 158.1875 220.65625 162.785156 217.636719 166.152344 213.683594 C 163.640625 213.234375 161.261719 212.324219 159.339844 210.957031 C 155.957031 208.546875 153.488281 204.621094 152.570312 200.1875 C 151.765625 196.296875 152.226562 191.054688 155.933594 188.019531 C 158.851562 185.628906 163.375 185.296875 166.941406 187.210938 C 170.132812 188.929688 172.527344 192.304688 173.339844 196.238281 C 174.039062 199.601562 173.640625 203.382812 172.195312 207.175781 C 171.527344 208.921875 170.660156 210.597656 169.621094 212.171875 C 172.921875 212.21875 176.203125 211.410156 178.644531 209.742188 C 181.375 207.878906 183.3125 204.949219 183.964844 201.707031 C 184.554688 198.769531 184.167969 195.472656 182.785156 191.632812 C 182.042969 189.570312 181.085938 187.53125 180.160156 185.5625 C 179.589844 184.347656 179 183.089844 178.460938 181.828125 C 176.136719 176.402344 175.101562 171.609375 175.300781 167.183594 C 175.554688 161.578125 177.878906 156.621094 181.679688 153.582031 C 182.082031 153.257812 182.671875 153.324219 182.992188 153.730469 C 183.3125 154.132812 183.246094 154.722656 182.84375 155.042969 C 179.515625 157.707031 177.394531 162.273438 177.167969 167.265625 C 176.980469 171.40625 177.964844 175.929688 180.179688 181.09375 C 180.707031 182.324219 181.289062 183.566406 181.851562 184.765625 C 182.796875 186.773438 183.773438 188.855469 184.546875 191 C 186.046875 195.167969 186.453125 198.792969 185.796875 202.074219 C 185.050781 205.792969 182.828125 209.152344 179.699219 211.289062 C 176.652344 213.367188 172.4375 214.25 168.339844 213.953125 C 164.675781 218.648438 159.445312 222.246094 153.574219 223.90625 C 150.980469 224.640625 148.257812 225 145.507812 225 Z M 161.957031 187.835938 C 160.171875 187.835938 158.4375 188.386719 157.117188 189.46875 C 155.113281 191.113281 153.34375 194.691406 154.402344 199.808594 C 155.222656 203.785156 157.417969 207.292969 160.421875 209.429688 C 162.378906 210.824219 164.867188 211.6875 167.460938 212.019531 C 168.691406 210.308594 169.703125 208.457031 170.449219 206.507812 C 171.765625 203.050781 172.132812 199.632812 171.511719 196.617188 C 170.808594 193.21875 168.769531 190.320312 166.054688 188.863281 C 164.777344 188.175781 163.351562 187.835938 161.957031 187.835938 Z M 161.957031 187.835938 " fill-opacity="1" fill-rule="nonzero"/><g clip-path="url(#0206e37c6c)"><path fill="#cc261a" d="M 140.625 165.214844 C 140.273438 169.222656 139.671875 173.230469 139.066406 177.1875 C 138.648438 179.902344 139.390625 183.164062 137.644531 185.28125 C 136.765625 186.339844 135.5 187 134.257812 187.601562 C 123.574219 192.796875 111.964844 196.078125 100.140625 197.242188 C 98.722656 197.382812 97.253906 197.488281 95.890625 197.078125 C 92.871094 196.167969 91.570312 193.8125 90.09375 191.023438 C 84.671875 180.789062 80.597656 169.859375 77.601562 158.667969 C 76.167969 153.3125 74.976562 147.839844 74.945312 142.296875 C 74.917969 137.445312 75.828125 132.503906 78.089844 128.238281 C 78.410156 127.625 78.761719 127.03125 79.140625 126.453125 C 79.355469 126.125 79.578125 125.800781 79.8125 125.484375 C 82.882812 121.332031 87.574219 118.289062 92.703125 117.886719 C 94.859375 117.714844 96.996094 118.011719 99.039062 118.671875 C 102.484375 119.773438 105.660156 121.898438 108.183594 124.527344 C 112.203125 128.710938 114.792969 134.066406 116.921875 139.464844 C 119.050781 144.871094 120.792969 150.445312 123.460938 155.601562 C 123.234375 150.988281 124.933594 146.277344 127.851562 142.699219 C 129.027344 141.261719 130.550781 139.9375 132.394531 139.734375 C 134.261719 139.53125 136.101562 140.566406 137.292969 142.023438 C 138.480469 143.476562 139.113281 145.308594 139.582031 147.128906 C 141.105469 153.027344 141.15625 159.121094 140.625 165.214844 Z M 140.625 165.214844 " fill-opacity="1" fill-rule="nonzero"/></g><path fill="#ffead9" d="M 99.039062 118.671875 C 96.863281 122.351562 93.488281 125.320312 89.546875 126.988281 C 85.957031 128.503906 81.921875 128.929688 78.089844 128.238281 C 78.410156 127.625 78.761719 127.03125 79.140625 126.453125 C 82.171875 121.8125 87.183594 118.316406 92.703125 117.886719 C 94.859375 117.714844 96.996094 118.011719 99.039062 118.671875 Z M 99.039062 118.671875 " fill-opacity="1" fill-rule="nonzero"/><path fill="#ffead9" d="M 117.386719 167.21875 C 116.878906 167.09375 116.371094 167.308594 116.09375 167.71875 L 114.867188 167.410156 L 118.039062 165.511719 C 118.234375 165.398438 118.296875 165.148438 118.179688 164.957031 C 118.066406 164.765625 117.816406 164.703125 117.625 164.816406 L 113.757812 167.128906 L 109.757812 166.121094 L 114.523438 163.273438 C 114.714844 163.15625 114.777344 162.910156 114.660156 162.714844 C 114.546875 162.523438 114.300781 162.460938 114.105469 162.578125 L 108.648438 165.839844 L 106.324219 165.253906 C 106.382812 164.808594 106.351562 164.359375 106.226562 163.914062 C 106.101562 163.472656 105.890625 163.070312 105.609375 162.726562 L 107.277344 161.003906 L 113.636719 160.910156 C 113.859375 160.910156 114.039062 160.722656 114.035156 160.5 C 114.03125 160.277344 113.847656 160.097656 113.625 160.101562 L 108.078125 160.183594 L 110.949219 157.222656 L 115.457031 157.15625 C 115.679688 157.152344 115.855469 156.96875 115.855469 156.746094 C 115.851562 156.519531 115.667969 156.332031 115.445312 156.34375 L 111.746094 156.398438 L 112.628906 155.488281 C 113.078125 155.695312 113.625 155.613281 113.992188 155.234375 C 114.453125 154.757812 114.445312 153.992188 113.964844 153.53125 C 113.488281 153.066406 112.726562 153.078125 112.261719 153.554688 C 111.898438 153.929688 111.832031 154.480469 112.046875 154.925781 L 111.167969 155.835938 L 111.113281 152.132812 C 111.109375 151.910156 110.925781 151.726562 110.703125 151.734375 C 110.476562 151.738281 110.300781 151.921875 110.304688 152.144531 L 110.371094 156.65625 L 107.496094 159.617188 L 107.414062 154.0625 C 107.410156 153.839844 107.234375 153.65625 107.003906 153.664062 C 106.78125 153.667969 106.601562 153.851562 106.605469 154.074219 L 106.699219 160.441406 L 105.027344 162.164062 C 104.902344 162.070312 104.773438 161.980469 104.636719 161.902344 C 103.972656 161.535156 103.222656 161.402344 102.488281 161.519531 L 101.832031 159.210938 L 104.929688 153.652344 C 105.039062 153.457031 104.96875 153.210938 104.773438 153.101562 C 104.578125 152.992188 104.332031 153.0625 104.222656 153.257812 L 101.519531 158.109375 L 100.394531 154.136719 L 102.589844 150.195312 C 102.699219 150 102.628906 149.753906 102.433594 149.644531 C 102.238281 149.535156 101.992188 149.605469 101.882812 149.800781 L 100.082031 153.035156 L 99.738281 151.8125 C 100.140625 151.527344 100.339844 151.007812 100.199219 150.507812 C 100.015625 149.863281 99.351562 149.492188 98.710938 149.675781 C 98.070312 149.855469 97.699219 150.523438 97.878906 151.164062 C 98.023438 151.667969 98.464844 152 98.957031 152.035156 L 99.304688 153.253906 L 96.074219 151.449219 C 95.878906 151.34375 95.632812 151.410156 95.523438 151.605469 C 95.414062 151.800781 95.484375 152.050781 95.679688 152.160156 L 99.617188 154.355469 L 100.742188 158.328125 L 95.898438 155.621094 C 95.703125 155.511719 95.457031 155.582031 95.347656 155.777344 C 95.238281 155.972656 95.308594 156.222656 95.503906 156.328125 L 101.054688 159.429688 L 101.707031 161.742188 C 101.019531 162.03125 100.449219 162.535156 100.082031 163.195312 C 100.003906 163.335938 99.941406 163.480469 99.882812 163.625 L 97.558594 163.035156 L 94.296875 157.570312 C 94.183594 157.378906 93.9375 157.316406 93.742188 157.429688 C 93.550781 157.546875 93.488281 157.792969 93.605469 157.988281 L 96.449219 162.757812 L 92.449219 161.746094 L 90.136719 157.871094 C 90.023438 157.679688 89.777344 157.617188 89.582031 157.730469 C 89.390625 157.847656 89.328125 158.09375 89.445312 158.285156 L 91.339844 161.464844 L 90.109375 161.15625 C 90.0625 160.664062 89.71875 160.230469 89.210938 160.101562 C 88.566406 159.9375 87.910156 160.328125 87.746094 160.976562 C 87.585938 161.621094 87.976562 162.277344 88.621094 162.441406 C 89.128906 162.570312 89.636719 162.351562 89.914062 161.941406 L 91.140625 162.25 L 87.964844 164.148438 C 87.773438 164.261719 87.710938 164.511719 87.828125 164.703125 C 87.902344 164.832031 88.035156 164.902344 88.175781 164.902344 C 88.246094 164.902344 88.316406 164.882812 88.382812 164.84375 L 92.25 162.53125 L 96.25 163.542969 L 91.484375 166.390625 C 91.292969 166.503906 91.230469 166.753906 91.34375 166.945312 C 91.421875 167.070312 91.554688 167.140625 91.691406 167.140625 C 91.761719 167.140625 91.835938 167.125 91.898438 167.085938 L 97.359375 163.820312 L 99.679688 164.410156 C 99.625 164.851562 99.65625 165.304688 99.78125 165.746094 C 99.910156 166.195312 100.121094 166.59375 100.398438 166.933594 L 98.726562 168.65625 L 92.371094 168.75 C 92.148438 168.753906 91.96875 168.9375 91.972656 169.160156 C 91.976562 169.382812 92.15625 169.558594 92.378906 169.558594 C 92.378906 169.558594 92.382812 169.558594 92.382812 169.558594 L 97.929688 169.480469 L 95.058594 172.441406 L 90.550781 172.507812 C 90.328125 172.507812 90.148438 172.695312 90.152344 172.917969 C 90.15625 173.140625 90.335938 173.316406 90.558594 173.316406 C 90.558594 173.316406 90.5625 173.316406 90.5625 173.316406 L 94.261719 173.261719 L 93.378906 174.171875 C 92.925781 173.96875 92.378906 174.050781 92.015625 174.425781 C 91.550781 174.902344 91.5625 175.667969 92.039062 176.132812 C 92.519531 176.597656 93.28125 176.585938 93.746094 176.105469 C 94.109375 175.730469 94.175781 175.179688 93.957031 174.738281 L 94.839844 173.828125 L 94.894531 177.527344 C 94.898438 177.75 95.078125 177.929688 95.300781 177.929688 C 95.300781 177.929688 95.304688 177.929688 95.304688 177.925781 C 95.527344 177.925781 95.707031 177.742188 95.703125 177.515625 L 95.636719 173.003906 L 98.511719 170.042969 L 98.59375 175.597656 C 98.59375 175.820312 98.777344 175.996094 98.996094 175.996094 C 99 175.996094 99 175.996094 99.003906 175.996094 C 99.226562 175.992188 99.402344 175.808594 99.402344 175.585938 L 99.308594 169.222656 L 100.980469 167.5 C 101.554688 167.933594 102.265625 168.183594 103.003906 168.183594 C 103.175781 168.183594 103.347656 168.167969 103.519531 168.140625 L 104.175781 170.453125 L 101.078125 176.007812 C 100.96875 176.203125 101.039062 176.453125 101.234375 176.558594 C 101.296875 176.59375 101.363281 176.613281 101.429688 176.613281 C 101.570312 176.613281 101.710938 176.535156 101.785156 176.402344 L 104.488281 171.554688 L 105.613281 175.523438 L 103.414062 179.464844 C 103.308594 179.660156 103.378906 179.90625 103.570312 180.015625 C 103.632812 180.050781 103.703125 180.066406 103.769531 180.066406 C 103.910156 180.066406 104.046875 179.992188 104.121094 179.859375 L 105.925781 176.628906 L 106.269531 177.847656 C 105.867188 178.136719 105.667969 178.652344 105.808594 179.15625 C 105.992188 179.796875 106.65625 180.167969 107.296875 179.988281 C 107.9375 179.804688 108.308594 179.136719 108.128906 178.496094 C 107.984375 177.992188 107.542969 177.660156 107.050781 177.628906 L 106.703125 176.40625 L 109.933594 178.210938 C 109.996094 178.246094 110.0625 178.261719 110.128906 178.261719 C 110.269531 178.261719 110.410156 178.1875 110.484375 178.054688 C 110.589844 177.859375 110.523438 177.613281 110.328125 177.503906 L 106.390625 175.304688 L 105.265625 171.332031 L 110.109375 174.039062 C 110.171875 174.074219 110.242188 174.089844 110.308594 174.089844 C 110.449219 174.089844 110.585938 174.015625 110.660156 173.882812 C 110.769531 173.6875 110.699219 173.441406 110.503906 173.332031 L 104.953125 170.230469 L 104.300781 167.917969 C 104.988281 167.632812 105.558594 167.128906 105.925781 166.464844 C 106.003906 166.324219 106.066406 166.183594 106.125 166.035156 L 108.449219 166.625 L 111.710938 172.089844 C 111.785156 172.21875 111.917969 172.289062 112.058594 172.289062 C 112.128906 172.289062 112.199219 172.269531 112.261719 172.230469 C 112.457031 172.117188 112.519531 171.867188 112.402344 171.675781 L 109.558594 166.90625 L 113.558594 167.914062 L 115.867188 171.789062 C 115.945312 171.917969 116.078125 171.988281 116.214844 171.988281 C 116.285156 171.988281 116.359375 171.96875 116.421875 171.929688 C 116.613281 171.816406 116.675781 171.566406 116.5625 171.375 L 114.667969 168.195312 L 115.894531 168.503906 C 115.941406 169 116.289062 169.433594 116.796875 169.558594 C 117.441406 169.722656 118.097656 169.332031 118.257812 168.683594 C 118.421875 168.039062 118.03125 167.382812 117.386719 167.21875 Z M 105.445312 164.136719 C 105.53125 164.4375 105.558594 164.746094 105.53125 165.050781 L 103.78125 164.609375 L 105.039062 163.3125 C 105.21875 163.554688 105.359375 163.832031 105.445312 164.136719 Z M 103.003906 162.289062 C 103.53125 162.289062 104.035156 162.457031 104.457031 162.75 L 103.203125 164.046875 L 102.710938 162.308594 C 102.808594 162.296875 102.90625 162.289062 103.003906 162.289062 Z M 100.785156 163.589844 C 101.050781 163.117188 101.449219 162.753906 101.929688 162.527344 L 102.421875 164.265625 L 100.671875 163.824219 C 100.707031 163.746094 100.742188 163.667969 100.785156 163.589844 Z M 100.5625 165.523438 C 100.476562 165.222656 100.449219 164.914062 100.476562 164.609375 L 102.226562 165.050781 L 100.96875 166.347656 C 100.789062 166.105469 100.648438 165.832031 100.5625 165.523438 Z M 101.546875 166.914062 L 102.804688 165.617188 L 103.296875 167.351562 C 102.667969 167.425781 102.046875 167.261719 101.546875 166.914062 Z M 105.222656 166.070312 C 104.957031 166.542969 104.558594 166.910156 104.078125 167.132812 L 103.585938 165.394531 L 105.335938 165.835938 C 105.300781 165.917969 105.261719 165.992188 105.222656 166.070312 Z M 105.222656 166.070312 " fill-opacity="1" fill-rule="nonzero"/><g clip-path="url(#4081326ff5)"><g clip-path="url(#8d34e9a435)"><path fill="#ffead9" d="M 109.722656 123.167969 C 105.910156 127.238281 101.363281 130.566406 96.382812 133.0625 C 91.414062 135.554688 86.015625 137.171875 80.503906 137.855469 C 77.386719 138.242188 74.230469 138.304688 71.09375 138.234375 C 70.824219 138.226562 70.75 138.671875 71.027344 138.714844 C 76.628906 139.554688 82.449219 138.882812 87.886719 137.390625 C 93.371094 135.890625 98.605469 133.449219 103.25 130.167969 C 105.855469 128.328125 108.28125 126.234375 110.460938 123.90625 C 110.921875 123.417969 110.183594 122.675781 109.722656 123.167969 Z M 109.722656 123.167969 " fill-opacity="1" fill-rule="nonzero"/></g></g><g clip-path="url(#f671a77b55)"><g clip-path="url(#51a4cb4949)"><path fill="#ffead9" d="M 82.664062 137.933594 C 82.140625 139.007812 81.613281 140.085938 81.09375 141.160156 C 80.824219 141.71875 80.554688 142.273438 80.285156 142.832031 C 80.164062 143.074219 80.046875 143.316406 79.929688 143.558594 C 79.863281 143.699219 79.796875 143.839844 79.726562 143.976562 C 79.707031 144.019531 79.640625 144.101562 79.605469 144.167969 C 79.601562 144.164062 79.597656 144.160156 79.59375 144.15625 C 79.511719 144.070312 79.449219 143.964844 79.378906 143.867188 C 79.222656 143.644531 79.066406 143.421875 78.90625 143.199219 L 77.832031 141.671875 C 77.136719 140.679688 76.40625 139.722656 75.679688 138.753906 C 75.433594 138.425781 74.886719 138.71875 75.117188 139.082031 C 75.683594 139.988281 76.230469 140.898438 76.824219 141.789062 C 77.40625 142.660156 77.988281 143.535156 78.570312 144.40625 C 78.8125 144.773438 79.097656 145.179688 79.582031 145.207031 C 80.058594 145.230469 80.382812 144.871094 80.582031 144.476562 C 81.054688 143.550781 81.5 142.605469 81.960938 141.667969 C 82.488281 140.59375 83.011719 139.519531 83.535156 138.441406 C 83.816406 137.859375 82.953125 137.347656 82.664062 137.933594 Z M 82.664062 137.933594 " fill-opacity="1" fill-rule="nonzero"/></g></g><g clip-path="url(#c7f57c86af)"><g clip-path="url(#45275b82b5)"><path fill="#ffead9" d="M 92 135.742188 C 91.746094 136.8125 91.492188 137.882812 91.242188 138.953125 C 91.117188 139.5 90.988281 140.042969 90.859375 140.589844 C 90.765625 140.996094 90.71875 141.492188 90.519531 141.863281 C 90.316406 142.246094 89.855469 141.984375 89.550781 141.859375 C 89.109375 141.675781 88.671875 141.480469 88.242188 141.269531 C 87.386719 140.847656 86.558594 140.371094 85.765625 139.835938 C 84.867188 139.230469 83.988281 138.5625 83.152344 137.871094 C 82.859375 137.628906 82.46875 138.003906 82.730469 138.292969 C 84.152344 139.890625 85.917969 141.128906 87.8125 142.105469 C 88.296875 142.355469 88.792969 142.582031 89.292969 142.789062 C 89.78125 142.992188 90.316406 143.15625 90.820312 142.902344 C 91.246094 142.6875 91.457031 142.230469 91.574219 141.789062 C 91.730469 141.21875 91.851562 140.636719 91.988281 140.058594 C 92.308594 138.707031 92.628906 137.355469 92.945312 136.003906 C 93.089844 135.390625 92.148438 135.128906 92 135.742188 Z M 92 135.742188 " fill-opacity="1" fill-rule="nonzero"/></g></g><g clip-path="url(#1e1f68b250)"><g clip-path="url(#fb04c4a47a)"><path fill="#ffead9" d="M 101.207031 130.816406 C 100.917969 130.816406 100.757812 131.039062 100.726562 131.296875 C 100.453125 133.4375 100.210938 135.582031 99.914062 137.71875 C 99.894531 137.859375 99.886719 138.0625 99.796875 138.179688 C 99.707031 138.300781 99.566406 138.269531 99.429688 138.25 C 98.96875 138.179688 98.511719 138.054688 98.0625 137.933594 C 97.164062 137.6875 96.285156 137.359375 95.445312 136.957031 C 94.496094 136.496094 93.636719 135.863281 92.6875 135.414062 C 92.402344 135.277344 92.140625 135.605469 92.351562 135.851562 C 93.011719 136.628906 93.980469 137.167969 94.878906 137.628906 C 95.816406 138.117188 96.804688 138.515625 97.820312 138.816406 C 98.308594 138.957031 98.8125 139.09375 99.316406 139.167969 C 99.828125 139.246094 100.328125 139.125 100.609375 138.65625 C 100.863281 138.226562 100.867188 137.675781 100.929688 137.195312 C 101.007812 136.597656 101.085938 136 101.160156 135.402344 L 101.6875 131.296875 C 101.722656 131.039062 101.441406 130.816406 101.207031 130.816406 Z M 101.207031 130.816406 " fill-opacity="1" fill-rule="nonzero"/></g></g><g clip-path="url(#dba34e0ca5)"><g clip-path="url(#6fff495b3d)"><path fill="#ffead9" d="M 109.277344 126.085938 C 109.261719 125.730469 109.265625 125.394531 109.117188 125.066406 C 108.953125 124.691406 108.40625 124.839844 108.304688 125.171875 C 108.21875 125.4375 108.253906 125.699219 108.265625 125.972656 C 108.277344 126.238281 108.285156 126.503906 108.292969 126.769531 C 108.300781 127.300781 108.300781 127.832031 108.292969 128.363281 C 108.269531 129.421875 108.199219 130.484375 108.085938 131.539062 C 108.03125 132.058594 107.964844 132.582031 107.882812 133.097656 C 107.867188 133.203125 107.863281 133.441406 107.785156 133.546875 C 107.789062 133.535156 107.769531 133.527344 107.734375 133.519531 C 107.597656 133.488281 107.46875 133.445312 107.335938 133.402344 C 106.378906 133.117188 105.441406 132.78125 104.519531 132.402344 C 103.464844 131.96875 102.433594 131.480469 101.402344 130.992188 C 101.027344 130.816406 100.726562 131.320312 101.078125 131.550781 C 102.941406 132.792969 105.054688 133.675781 107.179688 134.363281 C 107.683594 134.527344 108.21875 134.609375 108.570312 134.125 C 108.863281 133.726562 108.875 133.160156 108.9375 132.6875 C 109.105469 131.496094 109.21875 130.300781 109.269531 129.101562 C 109.296875 128.4375 109.308594 127.773438 109.300781 127.109375 C 109.296875 126.769531 109.289062 126.425781 109.277344 126.085938 Z M 109.277344 126.085938 " fill-opacity="1" fill-rule="nonzero"/></g></g><g clip-path="url(#f17b24686c)"><path fill="#99244f" d="M 140.625 165.214844 C 140.273438 169.222656 139.671875 173.230469 139.066406 177.1875 C 138.648438 179.902344 139.390625 183.164062 137.644531 185.28125 C 136.765625 186.339844 135.5 187 134.257812 187.601562 C 123.574219 192.796875 111.964844 196.078125 100.140625 197.242188 C 98.722656 197.382812 97.253906 197.488281 95.890625 197.078125 C 92.871094 196.167969 91.570312 193.8125 90.09375 191.023438 C 84.671875 180.789062 80.597656 169.859375 77.601562 158.667969 C 76.167969 153.3125 74.976562 147.839844 74.945312 142.296875 C 74.917969 137.445312 75.828125 132.503906 78.089844 128.238281 C 78.410156 127.625 78.761719 127.03125 79.140625 126.453125 C 79.355469 126.125 79.578125 125.800781 79.8125 125.484375 C 79.78125 125.621094 79.75 125.757812 79.71875 125.898438 C 78.125 132.984375 78.40625 140.363281 78.871094 147.566406 C 79.363281 155.132812 80.160156 163.144531 84.730469 169.195312 C 87.921875 173.417969 92.722656 176.257812 97.820312 177.667969 C 102.921875 179.082031 108.316406 179.148438 113.570312 178.546875 C 119.765625 177.835938 125.910156 176.1875 131.324219 173.097656 C 134.871094 171.078125 138.09375 168.410156 140.625 165.214844 Z M 140.625 165.214844 " fill-opacity="0.25" fill-rule="nonzero"/></g><path fill="#ffead9" d="M 132.9375 201.234375 C 96.519531 215.507812 94.222656 212.488281 90.425781 203.148438 C 87.914062 196.96875 87.78125 193.625 90.453125 191.089844 C 92.683594 188.964844 96.882812 187.410156 103.292969 185.234375 C 138.515625 173.28125 140.640625 174.398438 144.429688 185.425781 C 144.660156 186.105469 144.859375 186.753906 145.015625 187.363281 C 147.550781 197.242188 140.332031 198.339844 132.9375 201.234375 Z M 132.9375 201.234375 " fill-opacity="1" fill-rule="nonzero"/><path fill="#99244f" d="M 132.9375 201.234375 C 96.519531 215.507812 94.222656 212.488281 90.425781 203.148438 C 87.914062 196.96875 87.78125 193.625 90.453125 191.089844 C 91.703125 194.394531 93.449219 196.820312 96.945312 198.703125 C 100.535156 200.636719 104.6875 201.300781 108.761719 201.34375 C 116.355469 201.417969 123.851562 199.4375 130.886719 196.582031 C 136.125 194.457031 141.410156 191.578125 145.015625 187.363281 C 147.550781 197.242188 140.332031 198.339844 132.9375 201.234375 Z M 132.9375 201.234375 " fill-opacity="0.25" fill-rule="nonzero"/><path fill="#99244f" d="M 129.589844 194.183594 C 127.546875 194.925781 125.535156 195.746094 123.453125 196.378906 C 121.363281 197.007812 119.234375 197.484375 117.078125 197.816406 C 112.765625 198.476562 108.351562 198.507812 104.027344 197.941406 C 101.574219 197.617188 99.140625 197.09375 96.769531 196.378906 C 96.535156 196.3125 96.441406 196.664062 96.667969 196.742188 C 100.863281 198.128906 105.265625 198.859375 109.683594 198.925781 C 114.105469 198.996094 118.539062 198.433594 122.792969 197.238281 C 125.179688 196.566406 127.578125 195.75 129.71875 194.488281 C 129.875 194.394531 129.773438 194.117188 129.589844 194.183594 Z M 129.589844 194.183594 " fill-opacity="0.25" fill-rule="nonzero"/><path fill="#99244f" d="M 125.539062 193.613281 C 124.390625 193.847656 123.269531 194.28125 122.132812 194.585938 C 120.992188 194.894531 119.835938 195.148438 118.667969 195.347656 C 116.304688 195.746094 113.90625 195.894531 111.507812 195.851562 C 110.167969 195.828125 108.828125 195.726562 107.496094 195.554688 C 107.308594 195.53125 107.265625 195.855469 107.449219 195.886719 C 112.230469 196.648438 117.113281 196.414062 121.808594 195.234375 C 122.46875 195.066406 123.128906 194.886719 123.773438 194.671875 C 124.414062 194.457031 125.070312 194.234375 125.660156 193.898438 C 125.816406 193.808594 125.707031 193.578125 125.539062 193.613281 Z M 125.539062 193.613281 " fill-opacity="0.25" fill-rule="nonzero"/><path fill="#99244f" d="M 89.265625 169.910156 C 88.839844 169.078125 88.324219 168.289062 87.847656 167.484375 C 87.363281 166.660156 86.90625 165.824219 86.476562 164.972656 C 85.617188 163.277344 84.871094 161.527344 84.238281 159.734375 C 82.980469 156.167969 82.148438 152.457031 81.792969 148.695312 C 81.59375 146.574219 81.550781 144.445312 81.65625 142.320312 C 81.667969 142.070312 81.285156 142.074219 81.269531 142.320312 C 81.019531 146.136719 81.265625 149.984375 82.003906 153.738281 C 82.746094 157.511719 83.972656 161.179688 85.648438 164.640625 C 86.117188 165.605469 86.621094 166.554688 87.15625 167.480469 C 87.6875 168.40625 88.25 169.347656 88.957031 170.148438 C 89.109375 170.324219 89.363281 170.101562 89.265625 169.910156 Z M 89.265625 169.910156 " fill-opacity="0.25" fill-rule="nonzero"/><path fill="#99244f" d="M 88.496094 158.933594 C 88.179688 157.851562 87.726562 156.8125 87.34375 155.753906 C 86.960938 154.6875 86.609375 153.609375 86.304688 152.519531 C 85.683594 150.328125 85.222656 148.089844 84.941406 145.828125 C 84.785156 144.542969 84.667969 143.253906 84.613281 141.957031 C 84.597656 141.671875 84.160156 141.667969 84.167969 141.957031 C 84.246094 146.554688 85.070312 151.175781 86.644531 155.5 C 87.085938 156.710938 87.546875 157.953125 88.25 159.039062 C 88.328125 159.164062 88.539062 159.085938 88.496094 158.933594 Z M 88.496094 158.933594 " fill-opacity="0.25" fill-rule="nonzero"/><path fill="#f2d057" d="M 115.65625 145.214844 C 114.167969 133.78125 105.644531 123.570312 94.675781 120.070312 C 104.398438 125.714844 111.921875 134.601562 115.65625 145.214844 Z M 115.65625 145.214844 " fill-opacity="0.25" fill-rule="nonzero"/><path fill="#f2d057" d="M 136.859375 162.453125 C 137.535156 158.785156 138.179688 155.070312 137.917969 151.347656 C 137.65625 147.628906 136.398438 143.855469 133.753906 141.234375 C 136.949219 147.921875 138.199219 155.160156 136.859375 162.453125 Z M 136.859375 162.453125 " fill-opacity="0.25" fill-rule="nonzero"/><path fill="#f2d057" d="M 134.875 151.5625 C 134.816406 150.804688 134.71875 150.050781 134.578125 149.300781 C 134.292969 147.792969 133.824219 146.332031 133.226562 144.921875 C 133.15625 144.757812 132.871094 144.875 132.9375 145.042969 C 133.476562 146.421875 133.867188 147.855469 134.128906 149.3125 C 134.257812 150.039062 134.351562 150.773438 134.414062 151.507812 C 134.472656 152.265625 134.476562 153.03125 134.566406 153.78125 C 134.582031 153.917969 134.804688 153.984375 134.832031 153.816406 C 134.953125 153.082031 134.929688 152.308594 134.875 151.5625 Z M 134.875 151.5625 " fill-opacity="0.25" fill-rule="nonzero"/><path fill="#f2d057" d="M 109.375 137.375 C 108.996094 136.226562 108.390625 135.121094 107.765625 134.089844 C 107.121094 133.023438 106.398438 132.007812 105.621094 131.03125 C 104.078125 129.085938 102.300781 127.335938 100.332031 125.816406 C 99.230469 124.964844 98.074219 124.191406 96.867188 123.492188 C 96.605469 123.34375 96.367188 123.746094 96.628906 123.902344 C 100.847656 126.363281 104.429688 129.847656 107.078125 133.953125 C 107.816406 135.097656 108.445312 136.304688 109.160156 137.464844 C 109.226562 137.574219 109.417969 137.503906 109.375 137.375 Z M 109.375 137.375 " fill-opacity="0.25" fill-rule="nonzero"/><path fill="#f2d057" d="M 141.632812 186.980469 L 141.46875 185.964844 C 141.164062 184.070312 139.058594 181.816406 134.070312 181.175781 C 131.246094 180.8125 128.394531 181.558594 125.636719 182.28125 L 125.027344 182.441406 C 122.296875 183.148438 118.765625 183.847656 115.640625 182.988281 L 114.828125 182.765625 L 115.671875 182.757812 C 118.644531 182.734375 121.527344 181.6875 124.316406 180.679688 C 124.6875 180.542969 125.0625 180.40625 125.433594 180.273438 C 128.660156 179.125 132.105469 178.15625 135.429688 178.851562 C 139.589844 179.726562 141.886719 183.148438 141.703125 185.953125 Z M 132.542969 180.847656 C 133.0625 180.847656 133.582031 180.878906 134.101562 180.945312 C 138.496094 181.507812 140.710938 183.320312 141.453125 185.074219 C 141.140625 182.070312 138.214844 179.675781 135.378906 179.082031 C 132.113281 178.398438 128.707031 179.355469 125.511719 180.496094 C 125.140625 180.628906 124.769531 180.761719 124.394531 180.898438 C 121.863281 181.816406 119.253906 182.761719 116.554688 182.957031 C 119.40625 183.480469 122.515625 182.847656 124.96875 182.214844 L 125.578125 182.054688 C 127.851562 181.460938 130.195312 180.847656 132.542969 180.847656 Z M 132.542969 180.847656 " fill-opacity="0.25" fill-rule="nonzero"/><g clip-path="url(#b70ec61406)"><path fill="#cc261a" d="M 159.171875 122.507812 C 159.523438 126.515625 160.128906 130.523438 160.730469 134.480469 C 161.148438 137.195312 160.40625 140.457031 162.15625 142.574219 C 163.035156 143.632812 164.296875 144.292969 165.539062 144.894531 C 176.222656 150.089844 187.832031 153.371094 199.65625 154.535156 C 201.078125 154.675781 202.542969 154.78125 203.910156 154.371094 C 206.929688 153.460938 208.230469 151.105469 209.703125 148.316406 C 215.125 138.082031 219.203125 127.152344 222.195312 115.957031 C 223.628906 110.605469 224.820312 105.132812 224.855469 99.589844 C 224.878906 94.738281 223.96875 89.796875 221.707031 85.53125 C 221.386719 84.917969 221.035156 84.324219 220.65625 83.746094 C 220.441406 83.417969 220.21875 83.09375 219.984375 82.777344 C 216.914062 78.625 212.222656 75.578125 207.09375 75.175781 C 204.9375 75.007812 202.800781 75.304688 200.757812 75.964844 C 197.3125 77.066406 194.136719 79.191406 191.613281 81.820312 C 187.59375 86.003906 185.007812 91.355469 182.878906 96.757812 C 180.75 102.164062 179.003906 107.738281 176.335938 112.894531 C 176.5625 108.28125 174.867188 103.570312 171.945312 99.992188 C 170.769531 98.554688 169.246094 97.230469 167.402344 97.027344 C 165.535156 96.824219 163.695312 97.859375 162.503906 99.316406 C 161.320312 100.769531 160.683594 102.601562 160.214844 104.421875 C 158.691406 110.320312 158.640625 116.414062 159.171875 122.507812 Z M 159.171875 122.507812 " fill-opacity="1" fill-rule="nonzero"/></g><path fill="#ffead9" d="M 200.757812 75.964844 C 202.933594 79.644531 206.3125 82.613281 210.25 84.28125 C 213.839844 85.796875 217.878906 86.222656 221.707031 85.53125 C 221.386719 84.917969 221.035156 84.324219 220.65625 83.746094 C 217.625 79.105469 212.613281 75.609375 207.09375 75.175781 C 204.9375 75.007812 202.800781 75.304688 200.757812 75.964844 Z M 200.757812 75.964844 " fill-opacity="1" fill-rule="nonzero"/><path fill="#ffead9" d="M 181.539062 125.976562 C 181.699219 126.625 182.355469 127.015625 183 126.851562 C 183.507812 126.726562 183.855469 126.292969 183.902344 125.796875 L 185.128906 125.488281 L 183.234375 128.667969 C 183.121094 128.859375 183.183594 129.109375 183.375 129.222656 C 183.441406 129.261719 183.511719 129.28125 183.582031 129.28125 C 183.71875 129.28125 183.855469 129.210938 183.929688 129.082031 L 186.238281 125.207031 L 190.238281 124.199219 L 187.394531 128.96875 C 187.277344 129.160156 187.339844 129.40625 187.535156 129.523438 C 187.597656 129.5625 187.667969 129.582031 187.742188 129.582031 C 187.878906 129.582031 188.011719 129.507812 188.089844 129.382812 L 191.347656 123.917969 L 193.671875 123.328125 C 193.730469 123.476562 193.792969 123.617188 193.871094 123.757812 C 194.238281 124.417969 194.808594 124.925781 195.5 125.210938 L 194.84375 127.523438 L 189.292969 130.625 C 189.097656 130.734375 189.027344 130.980469 189.136719 131.175781 C 189.210938 131.308594 189.347656 131.382812 189.488281 131.382812 C 189.554688 131.382812 189.625 131.367188 189.6875 131.332031 L 194.53125 128.625 L 193.40625 132.597656 L 189.46875 134.796875 C 189.273438 134.90625 189.207031 135.152344 189.3125 135.347656 C 189.386719 135.480469 189.527344 135.554688 189.667969 135.554688 C 189.734375 135.554688 189.800781 135.539062 189.863281 135.503906 L 193.09375 133.699219 L 192.746094 134.917969 C 192.253906 134.953125 191.8125 135.285156 191.667969 135.789062 C 191.488281 136.429688 191.859375 137.097656 192.5 137.28125 C 193.140625 137.460938 193.804688 137.089844 193.988281 136.449219 C 194.128906 135.945312 193.929688 135.429688 193.527344 135.140625 L 193.871094 133.917969 L 195.675781 137.152344 C 195.75 137.285156 195.886719 137.359375 196.027344 137.359375 C 196.09375 137.359375 196.160156 137.34375 196.222656 137.308594 C 196.417969 137.199219 196.488281 136.953125 196.378906 136.757812 L 194.183594 132.816406 L 195.308594 128.847656 L 198.011719 133.695312 C 198.085938 133.828125 198.226562 133.902344 198.367188 133.902344 C 198.433594 133.902344 198.5 133.886719 198.5625 133.851562 C 198.757812 133.742188 198.828125 133.496094 198.71875 133.300781 L 195.621094 127.742188 L 196.277344 125.433594 C 196.449219 125.460938 196.621094 125.476562 196.792969 125.476562 C 197.53125 125.476562 198.242188 125.226562 198.816406 124.792969 L 200.488281 126.515625 L 200.394531 132.878906 C 200.394531 133.101562 200.570312 133.285156 200.792969 133.289062 C 200.796875 133.289062 200.796875 133.289062 200.800781 133.289062 C 201.019531 133.289062 201.203125 133.113281 201.203125 132.890625 L 201.285156 127.335938 L 204.160156 130.296875 L 204.09375 134.808594 C 204.089844 135.03125 204.269531 135.21875 204.492188 135.21875 C 204.492188 135.21875 204.496094 135.21875 204.496094 135.21875 C 204.71875 135.21875 204.898438 135.042969 204.902344 134.820312 L 204.957031 131.121094 L 205.839844 132.03125 C 205.621094 132.472656 205.6875 133.023438 206.050781 133.398438 C 206.515625 133.878906 207.277344 133.890625 207.757812 133.425781 C 208.234375 132.960938 208.246094 132.195312 207.78125 131.71875 C 207.417969 131.34375 206.871094 131.261719 206.417969 131.464844 L 205.535156 130.554688 L 209.234375 130.609375 C 209.234375 130.609375 209.238281 130.609375 209.238281 130.609375 C 209.460938 130.609375 209.640625 130.429688 209.644531 130.210938 C 209.648438 129.984375 209.46875 129.800781 209.246094 129.800781 L 204.738281 129.734375 L 201.867188 126.769531 L 207.414062 126.851562 C 207.414062 126.851562 207.417969 126.851562 207.417969 126.851562 C 207.640625 126.851562 207.820312 126.675781 207.824219 126.453125 C 207.828125 126.230469 207.648438 126.046875 207.425781 126.042969 L 201.070312 125.949219 L 199.398438 124.226562 C 199.675781 123.886719 199.886719 123.484375 200.015625 123.039062 C 200.140625 122.597656 200.171875 122.144531 200.117188 121.703125 L 202.4375 121.113281 L 207.898438 124.378906 C 207.960938 124.417969 208.035156 124.433594 208.105469 124.433594 C 208.242188 124.433594 208.375 124.363281 208.453125 124.238281 C 208.566406 124.046875 208.503906 123.796875 208.3125 123.683594 L 203.546875 120.835938 L 207.546875 119.824219 L 211.417969 122.136719 C 211.480469 122.175781 211.554688 122.195312 211.625 122.195312 C 211.761719 122.195312 211.894531 122.125 211.972656 121.996094 C 212.085938 121.804688 212.023438 121.554688 211.832031 121.441406 L 208.65625 119.542969 L 209.882812 119.234375 C 210.160156 119.644531 210.667969 119.863281 211.175781 119.734375 C 211.820312 119.570312 212.210938 118.914062 212.050781 118.269531 C 211.886719 117.621094 211.230469 117.230469 210.585938 117.394531 C 210.078125 117.523438 209.734375 117.953125 209.6875 118.449219 L 208.457031 118.757812 L 210.351562 115.578125 C 210.46875 115.386719 210.40625 115.136719 210.214844 115.023438 C 210.023438 114.910156 209.773438 114.972656 209.660156 115.164062 L 207.347656 119.039062 L 203.351562 120.050781 L 206.195312 115.28125 C 206.308594 115.085938 206.246094 114.839844 206.054688 114.722656 C 205.863281 114.609375 205.613281 114.671875 205.5 114.863281 L 202.242188 120.328125 L 199.914062 120.917969 C 199.859375 120.773438 199.796875 120.628906 199.71875 120.488281 C 199.347656 119.828125 198.777344 119.324219 198.089844 119.035156 L 198.742188 116.722656 L 204.296875 113.621094 C 204.492188 113.511719 204.558594 113.265625 204.453125 113.070312 C 204.34375 112.875 204.097656 112.804688 203.902344 112.914062 L 199.054688 115.621094 L 200.183594 111.648438 L 204.117188 109.449219 C 204.3125 109.34375 204.382812 109.09375 204.273438 108.898438 C 204.164062 108.703125 203.917969 108.632812 203.722656 108.742188 L 200.492188 110.546875 L 200.839844 109.328125 C 201.332031 109.292969 201.777344 108.960938 201.917969 108.457031 C 202.101562 107.816406 201.726562 107.148438 201.085938 106.964844 C 200.449219 106.785156 199.78125 107.15625 199.601562 107.796875 C 199.457031 108.300781 199.660156 108.816406 200.0625 109.105469 L 199.714844 110.324219 L 197.914062 107.09375 C 197.804688 106.898438 197.558594 106.828125 197.363281 106.9375 C 197.167969 107.046875 197.097656 107.292969 197.207031 107.488281 L 199.402344 111.429688 L 198.277344 115.398438 L 195.574219 110.550781 C 195.464844 110.355469 195.21875 110.285156 195.023438 110.394531 C 194.828125 110.5 194.757812 110.75 194.867188 110.945312 L 197.964844 116.503906 L 197.3125 118.8125 C 196.574219 118.695312 195.824219 118.824219 195.160156 119.195312 C 195.023438 119.273438 194.894531 119.359375 194.769531 119.457031 L 193.097656 117.730469 L 193.191406 111.367188 C 193.195312 111.144531 193.015625 110.960938 192.792969 110.957031 C 192.566406 110.949219 192.386719 111.132812 192.382812 111.355469 L 192.300781 116.910156 L 189.429688 113.949219 L 189.496094 109.4375 C 189.496094 109.210938 189.320312 109.027344 189.097656 109.027344 C 188.871094 109.019531 188.6875 109.199219 188.6875 109.425781 L 188.632812 113.125 L 187.75 112.214844 C 187.964844 111.773438 187.898438 111.222656 187.535156 110.847656 C 187.070312 110.367188 186.308594 110.355469 185.832031 110.820312 C 185.355469 111.285156 185.34375 112.050781 185.804688 112.527344 C 186.171875 112.902344 186.71875 112.984375 187.167969 112.78125 L 188.050781 113.691406 L 184.355469 113.636719 C 184.128906 113.625 183.945312 113.8125 183.945312 114.035156 C 183.941406 114.257812 184.117188 114.445312 184.34375 114.445312 L 188.847656 114.511719 L 191.722656 117.472656 L 186.171875 117.394531 C 185.949219 117.386719 185.765625 117.570312 185.761719 117.792969 C 185.761719 118.015625 185.9375 118.199219 186.160156 118.203125 L 192.519531 118.296875 L 194.1875 120.015625 C 193.910156 120.363281 193.699219 120.765625 193.574219 121.207031 C 193.449219 121.648438 193.414062 122.101562 193.472656 122.542969 L 191.148438 123.132812 L 185.691406 119.867188 C 185.5 119.753906 185.25 119.816406 185.136719 120.007812 C 185.019531 120.199219 185.082031 120.449219 185.277344 120.5625 L 190.039062 123.410156 L 186.039062 124.421875 L 182.171875 122.109375 C 181.980469 121.996094 181.730469 122.058594 181.617188 122.25 C 181.503906 122.441406 181.566406 122.691406 181.757812 122.804688 L 184.933594 124.703125 L 183.703125 125.011719 C 183.429688 124.601562 182.917969 124.386719 182.410156 124.511719 C 181.765625 124.675781 181.375 125.332031 181.539062 125.976562 Z M 194.757812 120.605469 L 196.015625 121.902344 L 194.265625 122.34375 C 194.238281 122.039062 194.265625 121.730469 194.351562 121.429688 C 194.4375 121.125 194.578125 120.847656 194.757812 120.605469 Z M 197.089844 119.601562 L 196.597656 121.335938 L 195.339844 120.042969 C 195.761719 119.75 196.269531 119.582031 196.796875 119.582031 C 196.890625 119.582031 196.992188 119.589844 197.089844 119.601562 Z M 199.125 121.117188 L 197.375 121.558594 L 197.867188 119.820312 C 198.347656 120.046875 198.746094 120.410156 199.011719 120.882812 C 199.054688 120.960938 199.089844 121.039062 199.125 121.117188 Z M 198.828125 123.640625 L 197.574219 122.34375 L 199.324219 121.902344 C 199.347656 122.207031 199.324219 122.515625 199.238281 122.816406 C 199.148438 123.125 199.007812 123.398438 198.828125 123.640625 Z M 196.5 124.644531 L 196.992188 122.910156 L 198.25 124.203125 C 197.75 124.554688 197.128906 124.71875 196.5 124.644531 Z M 194.460938 123.128906 L 196.214844 122.6875 L 195.722656 124.425781 C 195.238281 124.203125 194.839844 123.835938 194.578125 123.363281 C 194.535156 123.285156 194.496094 123.210938 194.460938 123.128906 Z M 194.460938 123.128906 " fill-opacity="1" fill-rule="nonzero"/><g clip-path="url(#c41121b297)"><g clip-path="url(#3ad72e12cf)"><path fill="#ffead9" d="M 190.074219 80.460938 C 193.890625 84.53125 198.433594 87.859375 203.417969 90.355469 C 208.382812 92.847656 213.78125 94.464844 219.292969 95.148438 C 222.410156 95.535156 225.566406 95.597656 228.703125 95.527344 C 228.972656 95.519531 229.046875 95.964844 228.769531 96.007812 C 223.167969 96.847656 217.347656 96.175781 211.910156 94.683594 C 206.429688 93.183594 201.191406 90.742188 196.546875 87.460938 C 193.941406 85.621094 191.519531 83.527344 189.335938 81.199219 C 188.875 80.710938 189.613281 79.96875 190.074219 80.460938 Z M 190.074219 80.460938 " fill-opacity="1" fill-rule="nonzero"/></g></g><g clip-path="url(#dbba2016ac)"><g clip-path="url(#28af016681)"><path fill="#ffead9" d="M 217.132812 95.226562 C 217.660156 96.300781 218.183594 97.378906 218.707031 98.453125 C 218.976562 99.011719 219.246094 99.566406 219.515625 100.125 C 219.632812 100.367188 219.75 100.609375 219.867188 100.851562 C 219.9375 100.992188 220 101.132812 220.070312 101.269531 C 220.089844 101.3125 220.15625 101.394531 220.191406 101.460938 C 220.199219 101.457031 220.199219 101.453125 220.203125 101.449219 C 220.289062 101.363281 220.351562 101.257812 220.417969 101.160156 C 220.574219 100.9375 220.734375 100.714844 220.890625 100.492188 L 221.964844 98.964844 C 222.664062 97.972656 223.394531 97.015625 224.117188 96.046875 C 224.363281 95.71875 224.910156 96.011719 224.679688 96.375 C 224.113281 97.28125 223.566406 98.191406 222.972656 99.082031 C 222.390625 99.953125 221.808594 100.828125 221.226562 101.699219 C 220.984375 102.066406 220.699219 102.472656 220.21875 102.5 C 219.738281 102.523438 219.414062 102.164062 219.214844 101.769531 C 218.742188 100.84375 218.296875 99.898438 217.835938 98.964844 C 217.308594 97.886719 216.785156 96.8125 216.261719 95.734375 C 215.980469 95.152344 216.847656 94.640625 217.132812 95.226562 Z M 217.132812 95.226562 " fill-opacity="1" fill-rule="nonzero"/></g></g><g clip-path="url(#0a2816783b)"><g clip-path="url(#890ea29a55)"><path fill="#ffead9" d="M 207.796875 93.035156 C 208.050781 94.105469 208.304688 95.175781 208.554688 96.246094 C 208.683594 96.792969 208.808594 97.335938 208.9375 97.882812 C 209.035156 98.289062 209.078125 98.785156 209.277344 99.15625 C 209.480469 99.539062 209.941406 99.277344 210.246094 99.152344 C 210.6875 98.96875 211.125 98.773438 211.554688 98.5625 C 212.410156 98.140625 213.242188 97.664062 214.03125 97.128906 C 214.933594 96.523438 215.808594 95.851562 216.644531 95.164062 C 216.941406 94.921875 217.328125 95.296875 217.066406 95.585938 C 215.644531 97.183594 213.878906 98.421875 211.984375 99.398438 C 211.5 99.648438 211.007812 99.875 210.503906 100.082031 C 210.015625 100.285156 209.480469 100.449219 208.976562 100.195312 C 208.554688 99.980469 208.34375 99.523438 208.222656 99.082031 C 208.070312 98.511719 207.949219 97.929688 207.808594 97.351562 C 207.488281 96 207.167969 94.648438 206.851562 93.296875 C 206.707031 92.683594 207.652344 92.421875 207.796875 93.035156 Z M 207.796875 93.035156 " fill-opacity="1" fill-rule="nonzero"/></g></g><g clip-path="url(#edee1873ff)"><g clip-path="url(#8bd85f8b1c)"><path fill="#ffead9" d="M 198.589844 88.105469 C 198.878906 88.105469 199.039062 88.328125 199.074219 88.589844 C 199.34375 90.730469 199.589844 92.875 199.882812 95.011719 C 199.902344 95.152344 199.910156 95.355469 200 95.472656 C 200.089844 95.59375 200.230469 95.5625 200.367188 95.542969 C 200.828125 95.472656 201.285156 95.347656 201.734375 95.226562 C 202.632812 94.976562 203.511719 94.652344 204.351562 94.246094 C 205.300781 93.789062 206.160156 93.15625 207.109375 92.707031 C 207.398438 92.570312 207.65625 92.898438 207.445312 93.144531 C 206.785156 93.921875 205.816406 94.457031 204.917969 94.921875 C 203.980469 95.410156 202.992188 95.808594 201.976562 96.105469 C 201.488281 96.25 200.984375 96.386719 200.480469 96.460938 C 199.96875 96.539062 199.46875 96.417969 199.1875 95.949219 C 198.9375 95.519531 198.929688 94.96875 198.867188 94.488281 C 198.789062 93.890625 198.714844 93.292969 198.636719 92.695312 L 198.109375 88.589844 C 198.074219 88.332031 198.355469 88.105469 198.589844 88.105469 Z M 198.589844 88.105469 " fill-opacity="1" fill-rule="nonzero"/></g></g><g clip-path="url(#3823c2b51b)"><g clip-path="url(#58ed117691)"><path fill="#ffead9" d="M 190.519531 83.378906 C 190.535156 83.023438 190.53125 82.6875 190.679688 82.359375 C 190.84375 81.984375 191.390625 82.128906 191.496094 82.464844 C 191.578125 82.730469 191.542969 82.992188 191.53125 83.265625 C 191.519531 83.53125 191.511719 83.796875 191.507812 84.0625 C 191.496094 84.59375 191.496094 85.125 191.507812 85.65625 C 191.527344 86.714844 191.597656 87.777344 191.710938 88.832031 C 191.765625 89.351562 191.832031 89.875 191.914062 90.390625 C 191.929688 90.496094 191.9375 90.734375 192.011719 90.839844 C 192.007812 90.828125 192.027344 90.820312 192.0625 90.8125 C 192.199219 90.78125 192.332031 90.738281 192.464844 90.695312 C 193.417969 90.410156 194.355469 90.074219 195.277344 89.695312 C 196.332031 89.261719 197.363281 88.773438 198.394531 88.285156 C 198.769531 88.109375 199.070312 88.609375 198.722656 88.84375 C 196.855469 90.085938 194.746094 90.96875 192.617188 91.65625 C 192.113281 91.820312 191.578125 91.902344 191.226562 91.417969 C 190.933594 91.019531 190.921875 90.453125 190.859375 89.980469 C 190.695312 88.789062 190.582031 87.59375 190.527344 86.394531 C 190.5 85.730469 190.488281 85.066406 190.496094 84.402344 C 190.5 84.0625 190.507812 83.71875 190.519531 83.378906 Z M 190.519531 83.378906 " fill-opacity="1" fill-rule="nonzero"/></g></g><g clip-path="url(#89b4f05e03)"><path fill="#99244f" d="M 159.171875 122.507812 C 159.523438 126.515625 160.128906 130.523438 160.730469 134.480469 C 161.148438 137.195312 160.40625 140.457031 162.15625 142.574219 C 163.035156 143.632812 164.296875 144.292969 165.539062 144.894531 C 176.222656 150.089844 187.832031 153.371094 199.65625 154.535156 C 201.078125 154.675781 202.542969 154.78125 203.910156 154.371094 C 206.929688 153.460938 208.230469 151.105469 209.703125 148.316406 C 215.125 138.082031 219.203125 127.152344 222.195312 115.957031 C 223.628906 110.605469 224.820312 105.132812 224.855469 99.589844 C 224.878906 94.738281 223.96875 89.796875 221.707031 85.53125 C 221.386719 84.917969 221.035156 84.324219 220.65625 83.746094 C 220.441406 83.417969 220.21875 83.09375 219.984375 82.777344 C 220.015625 82.914062 220.050781 83.050781 220.078125 83.191406 C 221.671875 90.277344 221.394531 97.65625 220.925781 104.859375 C 220.433594 112.425781 219.636719 120.4375 215.066406 126.488281 C 211.875 130.710938 207.074219 133.550781 201.976562 134.960938 C 196.875 136.375 191.480469 136.441406 186.226562 135.839844 C 180.035156 135.128906 173.890625 133.480469 168.472656 130.390625 C 164.925781 128.371094 161.703125 125.703125 159.171875 122.507812 Z M 159.171875 122.507812 " fill-opacity="0.25" fill-rule="nonzero"/></g><path fill="#ffead9" d="M 166.859375 158.527344 C 203.277344 172.800781 205.574219 169.78125 209.371094 160.441406 C 211.882812 154.261719 212.015625 150.917969 209.347656 148.382812 C 207.113281 146.257812 202.914062 144.703125 196.507812 142.527344 C 161.285156 130.574219 159.15625 131.691406 155.371094 142.71875 C 155.136719 143.398438 154.941406 144.046875 154.785156 144.65625 C 152.25 154.535156 159.464844 155.632812 166.859375 158.527344 Z M 166.859375 158.527344 " fill-opacity="1" fill-rule="nonzero"/><path fill="#99244f" d="M 166.859375 158.527344 C 203.277344 172.800781 205.574219 169.78125 209.371094 160.441406 C 211.882812 154.261719 212.015625 150.917969 209.347656 148.382812 C 208.09375 151.6875 206.351562 154.113281 202.851562 155.996094 C 199.265625 157.929688 195.109375 158.59375 191.035156 158.636719 C 183.441406 158.710938 175.949219 156.730469 168.910156 153.875 C 163.675781 151.75 158.386719 148.871094 154.785156 144.65625 C 152.25 154.535156 159.464844 155.632812 166.859375 158.527344 Z M 166.859375 158.527344 " fill-opacity="0.25" fill-rule="nonzero"/><path fill="#99244f" d="M 170.207031 151.476562 C 172.25 152.21875 174.261719 153.039062 176.347656 153.671875 C 178.433594 154.300781 180.566406 154.777344 182.71875 155.109375 C 187.03125 155.769531 191.445312 155.800781 195.769531 155.234375 C 198.226562 154.910156 200.660156 154.386719 203.03125 153.671875 C 203.261719 153.605469 203.355469 153.957031 203.128906 154.03125 C 198.933594 155.421875 194.53125 156.152344 190.113281 156.21875 C 185.691406 156.289062 181.261719 155.726562 177.003906 154.53125 C 174.617188 153.859375 172.222656 153.042969 170.078125 151.78125 C 169.921875 151.6875 170.023438 151.410156 170.207031 151.476562 Z M 170.207031 151.476562 " fill-opacity="0.25" fill-rule="nonzero"/><path fill="#99244f" d="M 174.257812 150.90625 C 175.410156 151.140625 176.53125 151.574219 177.664062 151.878906 C 178.808594 152.1875 179.964844 152.441406 181.128906 152.640625 C 183.496094 153.039062 185.890625 153.1875 188.289062 153.144531 C 189.628906 153.121094 190.96875 153.019531 192.300781 152.847656 C 192.488281 152.824219 192.535156 153.148438 192.347656 153.179688 C 187.566406 153.941406 182.683594 153.707031 177.988281 152.523438 C 177.328125 152.359375 176.671875 152.179688 176.027344 151.964844 C 175.382812 151.75 174.726562 151.527344 174.136719 151.191406 C 173.980469 151.101562 174.089844 150.871094 174.257812 150.90625 Z M 174.257812 150.90625 " fill-opacity="0.25" fill-rule="nonzero"/><path fill="#99244f" d="M 210.53125 127.203125 C 210.957031 126.371094 211.472656 125.582031 211.949219 124.777344 C 212.433594 123.953125 212.890625 123.117188 213.324219 122.265625 C 214.179688 120.570312 214.925781 118.820312 215.558594 117.027344 C 216.816406 113.460938 217.648438 109.75 218.003906 105.988281 C 218.203125 103.867188 218.25 101.738281 218.140625 99.613281 C 218.128906 99.363281 218.511719 99.363281 218.527344 99.613281 C 218.78125 103.429688 218.535156 107.277344 217.796875 111.03125 C 217.054688 114.804688 215.824219 118.472656 214.148438 121.933594 C 213.679688 122.898438 213.179688 123.847656 212.644531 124.773438 C 212.109375 125.699219 211.546875 126.640625 210.84375 127.441406 C 210.6875 127.617188 210.4375 127.394531 210.53125 127.203125 Z M 210.53125 127.203125 " fill-opacity="0.25" fill-rule="nonzero"/><path fill="#99244f" d="M 211.300781 116.226562 C 211.617188 115.144531 212.070312 114.105469 212.453125 113.046875 C 212.835938 111.980469 213.1875 110.902344 213.496094 109.8125 C 214.113281 107.621094 214.574219 105.382812 214.855469 103.121094 C 215.015625 101.835938 215.128906 100.546875 215.1875 99.25 C 215.199219 98.964844 215.636719 98.960938 215.632812 99.25 C 215.550781 103.847656 214.726562 108.46875 213.152344 112.792969 C 212.710938 114.003906 212.25 115.246094 211.550781 116.332031 C 211.46875 116.457031 211.257812 116.378906 211.300781 116.226562 Z M 211.300781 116.226562 " fill-opacity="0.25" fill-rule="nonzero"/><path fill="#f2d057" d="M 184.140625 102.507812 C 185.628906 91.074219 194.152344 80.863281 205.121094 77.363281 C 195.398438 83.003906 187.875 91.894531 184.140625 102.507812 Z M 184.140625 102.507812 " fill-opacity="0.25" fill-rule="nonzero"/><path fill="#f2d057" d="M 162.941406 119.746094 C 162.261719 116.078125 161.617188 112.363281 161.878906 108.640625 C 162.140625 104.921875 163.398438 101.148438 166.042969 98.523438 C 162.847656 105.214844 161.601562 112.453125 162.941406 119.746094 Z M 162.941406 119.746094 " fill-opacity="0.25" fill-rule="nonzero"/><path fill="#f2d057" d="M 164.925781 108.855469 C 164.980469 108.097656 165.082031 107.34375 165.222656 106.59375 C 165.503906 105.085938 165.972656 103.625 166.570312 102.214844 C 166.640625 102.050781 166.925781 102.167969 166.859375 102.335938 C 166.320312 103.714844 165.929688 105.148438 165.667969 106.605469 C 165.539062 107.332031 165.445312 108.066406 165.386719 108.800781 C 165.324219 109.558594 165.320312 110.320312 165.230469 111.074219 C 165.214844 111.210938 164.996094 111.277344 164.96875 111.109375 C 164.84375 110.375 164.867188 109.601562 164.925781 108.855469 Z M 164.925781 108.855469 " fill-opacity="0.25" fill-rule="nonzero"/><path fill="#f2d057" d="M 190.421875 94.664062 C 190.800781 93.519531 191.410156 92.414062 192.03125 91.382812 C 192.675781 90.316406 193.402344 89.300781 194.175781 88.324219 C 195.722656 86.378906 197.5 84.628906 199.464844 83.109375 C 200.566406 82.257812 201.726562 81.480469 202.929688 80.785156 C 203.195312 80.636719 203.429688 81.039062 203.167969 81.195312 C 198.949219 83.65625 195.367188 87.140625 192.71875 91.246094 C 191.980469 92.390625 191.351562 93.597656 190.640625 94.757812 C 190.570312 94.867188 190.378906 94.796875 190.421875 94.664062 Z M 190.421875 94.664062 " fill-opacity="0.25" fill-rule="nonzero"/><path fill="#f2d057" d="M 158.164062 144.273438 L 158.097656 143.246094 C 157.914062 140.441406 160.207031 137.019531 164.371094 136.144531 C 167.691406 135.449219 171.136719 136.417969 174.363281 137.566406 C 174.738281 137.699219 175.109375 137.835938 175.480469 137.972656 C 178.269531 138.980469 181.152344 140.027344 184.125 140.050781 L 184.96875 140.058594 L 184.15625 140.28125 C 181.03125 141.140625 177.5 140.441406 174.773438 139.734375 L 174.160156 139.574219 C 171.402344 138.851562 168.550781 138.105469 165.726562 138.46875 C 160.738281 139.109375 158.632812 141.363281 158.328125 143.257812 Z M 166.710938 136.144531 C 165.941406 136.144531 165.175781 136.214844 164.417969 136.375 C 161.582031 136.96875 158.660156 139.363281 158.347656 142.367188 C 159.085938 140.613281 161.300781 138.800781 165.695312 138.238281 C 168.566406 137.871094 171.441406 138.621094 174.21875 139.347656 L 174.832031 139.507812 C 177.285156 140.140625 180.390625 140.773438 183.242188 140.25 C 180.542969 140.054688 177.933594 139.109375 175.402344 138.191406 C 175.03125 138.054688 174.65625 137.921875 174.285156 137.789062 C 171.832031 136.914062 169.253906 136.144531 166.710938 136.144531 Z M 166.710938 136.144531 " fill-opacity="0.25" fill-rule="nonzero"/></svg>