<?xml version="1.0" encoding="UTF-8"?>
<svg id="Layer_1" data-name="Layer 1" xmlns="http://www.w3.org/2000/svg" viewBox="0 0 309.18 200">
  <defs>
    <style>
      .cls-1 {
        fill: #f7b7d3;
      }

      .cls-2 {
        fill: #00bff3;
      }

      .cls-3 {
        fill: #6a6357;
      }

      .cls-4 {
        fill: #edebe0;
      }

      .cls-5 {
        fill: #fff200;
      }

      .cls-6 {
        fill: #fff8b8;
      }

      .cls-7 {
        fill: #fbb040;
      }

      .cls-8 {
        fill: #c1c0c0;
      }

      .cls-9 {
        fill: #9ddcf9;
      }

      .cls-10 {
        fill: #b9ac98;
      }

      .cls-11 {
        fill: #44403a;
      }

      .cls-12 {
        fill: #727272;
      }

      .cls-13 {
        fill: #787877;
      }

      .cls-14 {
        fill: #4e4c49;
      }
    </style>
  </defs>
  <path class="cls-11" d="M161.11,68.36c-.24-.13-.29-.35-.26-.6,0-.77-.19-1.4-1.06-1.51-.11-.02-.15-.09-.13-.2-.07-.5,.02-1.13-.78-1.04,0,0,.01,.02,.01,.02,.09-.48-.11-.83-.47-1.1l-.08-.03s0-.09,0-.09c-.07-.52,.1-1.19-.75-1.16,0,0,0,.02,0,.02-.04-.7-.12-1.38-1.04-1.36-.59-.45-1.5-.45-1.8-1.32-.02-.81,.03-1.6,.2-2.42,.2-.92,.22-1.97-.96-2.39-.07-.14-.14-.29-.21-.43-.06-.5,.16-1.17-.66-1.24-.05-.14-.09-.29-.14-.43,.11-.36,.13-.69-.24-.92-.27-.79-1.11-1.32-.97-2.3,.15-.83-.54-1.58-.22-2.43,.29,.12,.58,.25,.86,.37,.55,1.48,1.12,2.96,1.66,4.45,1.35,3.76,1.37,3.8,4.49,1.8,.9-.58,2.3-.5,2.68-1.63,.38-1.12-.61-2.2-.66-3.37-.01-.45-.02-.9-.62-.93-.14-.53-.28-1.06-.42-1.59,.03-.37,.06-.74,.1-1.2,.4,.28,.74,.52,1.08,.76,.15,.55,.29,1.1,.44,1.65-.14,1.55,.91,2.68,1.39,4.01,.23,.64,1.05,.68,1.58,0,.21-.09,.41-.17,.62-.26,.76,.34,1.57-.62,2.32,.08-.03,.07-.04,.14-.04,.21-.25,.1-.48,.25-.74,.31-3.49,.8-6.63,2.39-9.48,4.57-1.7,1.3-1.73,2.99-.11,3.53,4.8,1.6,9.61,1.24,14.61-.19-.87-.71-1.51-1.29-2.21-1.78-.57-.41-1.34-.63-1.22-1.56,.12-.95,1.02-1.01,1.62-1.15,2.05-.48,4.14-.77,6.2-1.21,.52-.11,1.44,.18,1.48-.63,.05-.94,.42-2.2-.45-2.79-.77-.52-.33-.95-.23-1.65-1.52,.45-2.9,.86-4.28,1.27-1.6-.09-2.99,.81-4.54,.98,0-.3,0-.59,0-.89,1.53-.49,3.05-1.01,4.66-1.18,1.24,.02,2.4-.26,3.46-.95,.13-.03,.27-.07,.4-.1,1.47,.16,1.2-.87,1.14-1.77,.03-.27,.05-.54,.08-.8,.98-.18,.54-1.01,.67-1.58,.17-.61,.15-1.28,.61-1.79,.59,0,.69-.4,.7-.89l.06-.08c.41-.08,.55-.35,.51-.76,0,0-.01,.02-.01,.02,.37,.02,.66-.08,.71-.52,0-.11,.06-.17,.17-.18,.39,.04,.72-.03,.81-.51,.19-.16,.38-.31,.58-.47,.69-.26,1.6,.03,2.02-.89,.22-.21,.46-.31,.76-.18,.37,.1,.7,.09,.87-.35,.48-.3,1.01-.34,1.55-.26,1.42-.05,2.85,.27,4.25-.21,.22,.03,.44,.05,.66,.08,.02,.45-.48,.47-.62,.79-.98,0-1.96,0-2.93,.01-.41-.45-.74-.41-.98,.18-.15,.06-.3,.15-.45,.17-5.87,.89-8.97,4.74-8.99,10.93,0,2.76,.56,5.39,1.03,8.08,.93,5.43,4.46,8.26,8.86,10.37,.65,.31,1.18,.45,1.14-.98-.09-3.54-1.03-6.91-1.42-10.38-.38-3.43-.85-6.89-.31-10.37,.25-1.62,1.21-2.45,2.67-2.24,2.97,.43,5.57-.95,8.33-1.56,1.11-.24,.67-.64,.13-1.14-1.13-1.04-2.42-1.79-3.83-2.34-.17-.35-.46-.38-.78-.32-.27-.05-.55-.1-.82-.16-.98-1.24,.9-.15,.62-.82,.22,.05,.44,.1,.66,.15,.24,.58,.7,.42,1.13,.38,.16,.09,.33,.18,.49,.27,.18,.56,.63,.44,1.03,.44,.09,.07,.18,.15,.26,.22,.11,.44,.43,.47,.78,.42,.11-.02,.17,.03,.2,.14,.07,.49,.39,.58,.79,.52l.49,.67c-.02,.63,.38,.75,.87,.77,2.39-.08,4.61-1.01,6.89-1.61,9.95-2.64,19.87-5.4,29.79-8.12,7.52-2.07,15.04-4.16,22.57-6.24,.58-.16,1.28-.68,1.53,.44-.18,.12-.34,.3-.53,.35-6.03,1.67-12.07,3.34-18.1,5-10.98,3.01-21.96,6.01-32.94,9.02-3.88,1.06-7.76,2.15-11.63,3.23-2.69,.66-5.39,1.29-8.07,2.01-.41,.11-1.29-.02-1.06,.97,.22,.21,.44,.41,.66,.62-.67,.11-1.07,.44-1.03,1.23,.04,.89,.07,1.79,.03,2.69-.03,.91,.45,1.04,1.14,.9,5.97-1.17,12-1.97,17.91-3.51,4.7-1.23,9.4-2.42,14.11-3.62,.1,.27,.2,.55,.3,.82-5.97,1.9-12.05,3.39-18.15,4.77-1.19,.27-1.48,.76-1.49,1.88-.04,3.47-.27,6.92-1.59,10.18-.32,.79,.01,1.16,.73,1.53,3.68,1.89,7.12,4.21,10.2,7.01,2.51,2.29,4.84,4.83,6.11,8.14,.28,.73,.81,.98,1.41,1.23,3.88,1.55,6.85,4.33,8.8,8.02,.75,1.42,1.37,3.12,1.6,4.94,.25,1.93,.93,3.84,1.27,5.81,.11,.64,1.1,1.13,1.71,1.66,2.68,2.35,4.28,5.37,5.45,8.76,1.11,3.22,1.41,6.41,.59,9.71-.19,.77,.29,1.31,.6,1.85,2.43,4.16,3.27,8.7,2.82,13.46-.18,1.97-.39,4.01-1.24,5.87-.2,.43-.18,.83-.02,1.28,1.35,3.78,.93,7.5-.15,11.29-1.12,3.97-3.23,7.14-6.28,9.71-1.04,.88-2.22,1.53-3.53,1.88-1.6-.25-2.7,1.37-4.28,1.21-.49,.06-.98,.12-1.47,.17-.93,.07-1.95-.46-2.77,.42-.53,.07-1.06,.14-1.6,.21-3.69,.41-7.3-.67-10.97-.72-.35-.03-.71-.05-1.06-.08v-1.12c2.77-1.2,4.53-3.42,5.78-6.15,.33-.26,.7-.48,.98-.78,.73-.8,.36-1.72,.16-2.59-.16-.7-.63-.6-1.1-.33l-1.22,.19c-.02-.3-.04-.6-.06-.91,.2-.07,.4-.15,.61-.2,.56-.13,1.38,0,1.53-.66,.23-1.01,.19-2.09,.22-3.13,0-.27-.31-.24-.52-.21-1.41,.2-2.95,2.84-2.48,4.24-.03,.77-.48,1.13-1.14,.94-.87-.26-.28-1.13-.51-1.68,.25-2.46,1.96-3.65,3.81-4.72,.4-.23,.85-.27,1.08-.87,.73-1.86,.85-3.96,2.12-5.62,.43-.56,.33-1.34,.24-2.1-.31-2.62-.46-5.25,1.47-7.39,.38-.42,.16-.47-.06-.85-1.05-1.84-2.65-3.55-2.73-5.71-.1-2.8-1.68-4.78-2.79-7.04-1.08-2.2-1.3-4.38-.07-6.58,.29-.52,.29-.77-.19-1.23-1.46-1.37-2.75-2.89-3.27-4.97-.38-1.51-1.3-2.59-2.63-3.42-.88-.55-1.69-1.38-1.84-2.59-.12-.6,.39-1.48-.67-1.68h0c-.01-.16-.02-.33-.03-.49-.14-.34-.15-.68,0-1.02,0-.21,.01-.41,.02-.62,.11-.33,.49-.66-.02-.97-1.42-.88-2.6-2.06-3.77-3.25-.46-.47-3.11-.24-3.55,.22-.6,.64-.82,3.09-.38,3.79,1.85,2.96,2.27,7.11-.2,10.19-.51,.64-.34,1.03,.1,1.71,2.24,3.49,2.24,7.21,.94,11.09-.73,2.19-2.95,3.34-3.41,5.77-.15,.78-.18,.99,.32,1.54,1.71,1.89,2.8,4.17,2.33,6.78-.23,1.28-.39,2.76-1.45,3.79-.36,.35-.28,.79-.04,1.21,1.04,1.86,1.34,3.96,1.61,6.02,.43,3.31-.56,6.34-2.2,9.17-.28,.49-.87,1.07-.22,1.62,.52,.44,1.23,.39,1.8,.04,.64-.4,1.31-.44,2.01-.4-.08,.19-.12,.45-.26,.56-.31,.24-1,.22-.85,.76,.18,.62,.78,.29,1.22,.23,0,0,.01,.01,.01,.01-.15,.26-.3,.52-.45,.78-10.38-.48-19.57,3.4-28.69,8.48,8.08,2.32,15.71,1.75,23.12-1.92,2.99-1.48,5.72-3.38,8.52-5.19,.75-.06,.57-.71,.7-1.16,.4,.02,.8,.04,1.2,.06,.06,.33,.14,.65,.44,.84-.66,.86-1.86,.95-2.47,1.89-.11,.11-.21,.22-.32,.33-.45-.07-.8,.06-1,.51l-.1,.1c-.41,.15-.92,.15-1.07,.72-.13,.1-.25,.2-.38,.3-.26,.06-.53,.12-.79,.18-.55-.07-.93,.13-1.12,.69l-.09,.06c-.44-.13-.79-.07-.88,.49-.16,.13-.32,.26-.49,.39l-.12,.09c-.23,.08-.45,.16-.68,.25-.43-.31-.27,.14-.34,.29-.04,.18-.07,.37-.11,.55-.97,.59-2.33-.46-3.13,.82h-.02c-.1,.08-.2,.14-.29,.21l-.66,.16c-.22-.3-.27-.11-.3,.12l-.1,.03c-.98-.4-1.18,1.12-2.08,.92-1.2-.13-2.36,.22-3.54,.37-4.55,.56-9.08,.62-13.46-.92-1.58-.56-3.04-.97-4.65-.38-.32,.12-.86-.11-.89,.47-.02,.44,.39,.58,.69,.82,3.98,3.07,8.34,5.18,13.3,5.83,.13,.03,.26,.05,.4,.08,4.98,.55,9.92,.29,14.84-.62,.54-.08,1.2,.29,1.58-.44,.61-.59,1.84-.08,2.12-1.27,.55,.08,.82-.19,.86-.74,.42,.04,.85,.08,1.27,.12,.24,.71-.5,.95-.66,1.47-.38,.4-.8,.7-1.38,.64-.37-.11-.72-.14-.89,.33-.19,.09-.39,.17-.58,.26-.85-.13-1.6,.14-2.32,.57-.29,.04-.58,.08-.87,.12-.6-.08-1.19-.12-1.68,.36-1.46,.24-2.91,.46-4.39,.37-.16,0-.33,.02-.49,.03-.24,.01-.48,.03-.71,.04-.21-.22-.41-.21-.6,.02-.23,0-.46,0-.69,0-.26-.23-.55-.19-.85-.09-.29,.15-.58,.16-.87-.03-.24,0-.48-.01-.72-.02-.15,0-.29,.01-.44,.02-.78-.73-1.67-.34-2.53-.29-.21-.02-.41-.04-.62-.06-1.05-.43-2.13-.73-3.28-.61-.53,.08-.98-.14-1.44-.38-.12-.02-.24-.03-.35-.05-.26,0-.53,0-.79,0-.14,.03-.29,.07-.43,.1-2.24,1.04-4.66,1.32-7.06,1.5-4.97,.38-9.93,.28-14.71-1.43-1.48-.53-2.71,.54-4.1,.5-.4-.03-.82-.14-1.08,.32-.44,.07-.88,.14-1.32,.22-.37-.35-.69-.3-.96,.13-.14,.01-.28,.03-.41,.04-2.67,0-5.34-.35-8,.2-.34-.03-.67-.06-1.01-.09-.17-.03-.34-.06-.51-.09-.27,.16-.51,.05-.75-.07-.28-.43-.6-.48-.97-.11-.24-.04-.48-.08-.72-.12-.76-.26-1.51-.6-2.35-.42-.73,.04-1.45-.01-2.14-.33-1.4-.89-2.51-.15-3.6,.69-.58,.14-1.13,.47-1.77,.33-.16,.06-.33,.12-.49,.19-1.01,.06-2.02,.12-3.03,.18-2.42-.14-4.84-.16-7.26,0-.14,0-.28,0-.41,0,.1-.25,.21-.5,.31-.74,4.34,0,8.69,.24,12.92-1.12-.09-.47-.37-.48-.62-.57-2.96-1.14-5.85-2.53-8.27-4.6-1.38-1.18-2.5-1.27-4.09-.84-2.93,.78-5.94,1.22-8.97,1.25-2.22,.02-4.54-.08-6.39-1.44-1.77-1.3-3.25-.36-4.86,.05-.51,.13-.66,.46-.15,.77,.51,.31,.9,.77,1.38,1.11,2.93,2.11,6.29,3.05,9.66,3.99,.06,.19,.15,.27,.31,.09,2.36,.47,4.73,.89,7.13,1.09,0,.19,.8,.4,.08,.53-.92,.16-1.88,.06-2.82,.07-.71-.05-1.41-.09-2.12-.14-.36-.58-.9-.57-1.46-.47-.27-.04-.54-.09-.81-.13-.08-.18-.19-.22-.33-.06-.92,0-1.76-.35-2.61-.64-.87-.66-1.71-.15-2.55,.08-.54,.15-1.11,.56-1.46-.29,.28-.14,.75-.22,.81-.44,.19-.59-.43-.51-.72-.64-2-.94-3.91-2.06-5.63-3.45-.73-.59-1.3-.74-2.17-.55-4.75,1-9.5,1.35-14.27,.02-1.72-.48-3.34-1.19-4.94-1.96-.69-.33-1.33-.32-1.72,.31-.36,.58,.21,1.1,.58,1.4,.87,.71,1.71,1.44,2.65,2.07,2.77,1.85,5.98,2.36,9,3.44-.15,.5-.74,.3-.98,.67l-.65-.18c-.21-.45-.54-.42-.91-.27-.86-.21-1.53,.48-2.34,.52-.11,.07-.21,.15-.32,.22-.2,.06-.39,.11-.59,.17-.41-.02-.84-.15-1.1,.34-.87,.41-1.81,.58-2.74,.72-.72-.11-1.43-.23-2.08,.27-.17,.02-.34,.04-.51,.07-1.29-.18-2.58-.21-3.86,.06-.48-.05-.97-.1-1.45-.15-.19-.3-.4-.36-.65-.08-.21-.02-.42-.03-.64-.05-.15-.05-.3-.09-.44-.14-.29-.05-.57-.11-.86-.16-.1-.2-.25-.25-.45-.17-.29-.04-.58-.08-.87-.12-.26-.35-.63-.33-1-.3-.42-.13-.84-.25-1.26-.38-.07-.21-.2-.3-.41-.25-2.54-1.44-5.09-.96-7.68-.12-.81,.26-1.68,.35-2.53,.46-.52,.07-1.15,.17-1.07-.74,1.82-.4,3.65-.78,5.47-1.2,.7-.16,1.14-.47,.32-1.14-1.5-1.24-2.98-2.5-4.47-3.75,.01-.11-.03-.2-.11-.27-.1-.63-.37-1.1-1.02-1.24-.47-2.45-.35-2.69,1.8-3.59,1.09-.46,2.19-.88,3.27-1.36,.41-.18,1.14-.19,1.03-.82-.09-.54-.78-.46-1.24-.55-1.42-.27-2.85-.55-4.27-.82-.4-.07-.8-.15-.66-.7,.1-.4,.49-.43,.8-.33,2.02,.67,3.92-.13,5.86-.48,.47,.04,.93,.06,1.33-.26,.54-.04,1.08-.08,1.62-.12,1.09,0,2.18,0,3.27,0,.75,.05,1.51,.1,2.26,.14,.38,.38,.86,.31,1.32,.29,.32,.03,.63,.06,.95,.1,.3,.41,.72,.47,1.17,.48,1.23,.22,2.46,0,3.69-.02,.12,0,.24,0,.35,0,.2-.01,.39-.03,.59-.04,.46,.16,.91,.18,1.36-.02,.86,.09,1.73,.27,2.58-.09,.72,0,1.34-.32,1.96-.65,.74-.15,1.49-.3,2.23-.45,.46,.03,.93,.07,1.33-.24,2.06,0,4.11,0,6.17,0,.65,.25,1.27,.59,2,.4,.52,.21,1.04,.43,1.56,.64,.13,.33,.41,.28,.67,.29,.82,.52,1.69,.21,2.54,.14,2.47,0,4.95,.34,7.4-.22,3.15-.55,6.23-1.41,9.48-1.37,1.77,.02,3.42,.47,5.03,.98,.91,.28,1.76,.24,2.63,.37,4.01,.61,7.52-1.5,11.31-2.04,4.29-.61,8.4-.3,12.5,1.52,2.22,.98,5.05,.82,7.28-.18,3.89-1.75,7.83-1.92,11.88-1.49,1.97,.21,3.94,.71,5.72,1.67,1.33,.72,2.09,.15,2.49-1.08,1.05-3.18,3.33-5.04,6.19-6.24,1.03-.43,1.31-1,1.3-2.12-.06-3.75-.13-7.51,.16-11.26,.08-1.05-.36-2.02-.71-3.03-1.2-3.51-2.29-7.03-1.3-10.9,.63-2.49,1.34-4.87,2.73-7.04,.51-.8,1.13-1.49,1.73-2.16,1.31-1.47,1.32-2.75,0-4.17-2.88-3.14-4.27-8.43-2.52-12.56,.57-1.34,.85-2.48,.82-3.87-.05-2.35,1.29-4.07,2.84-5.53,.83-.78,.77-1.26,.17-2.06-.78-1.05-1.51-2.13-1.83-3.48-.25-1.05-.96-1.78-1.85-2.4-3.32-2.3-6.37-4.91-8.73-8.31,0-.46-.25-.64-.67-.64-.2-.35-.41-.69-.61-1.04,0-.55-.09-1.02-.79-.93Zm20.59,81.41h0c-.58,.02-.66,.43-.66,.91,0,.93,0,1.86,0,2.79,0,.73-.03,1.46,.01,2.18,.11,1.77,1.29,2.49,2.83,1.8,1.33-.59,2.23-1.68,3.18-2.73,1.62-1.79,2.5-3.77,1.99-6.29-.21-1.03-.86-1.79-1.33-2.62-.99-1.71-2.03-3.42-3.62-5-1.1,2.92-1.86,5.7-2.26,8.58-.04,.12-.09,.25-.13,.37Zm26.03-49.19c.5,.57,.98,1.16,1.5,1.7,.28,.29,.96,.65,.98,.16,.06-1.29,1-2.4,.75-3.66-.2-.99-1.36-.9-2.04-1.38-.58-.42-1.37-1.11-1.97-.49-.52,.53-.11,1.49,.12,2.22,.09,.29,.32,.54,.48,.8-.2,.03-.43,.1-.4,.34,.04,.34,.35,.29,.59,.31Zm8.37,65.31c2.85-.26,5.72-.31,8.54-.86,2.58-.51,5.25-.72,7.59-2.13,3.1-1.86,4.95-4.73,6.47-8.06,1.63-3.56,2.1-7.15,1.68-10.97-.04-.33-.02-.71-.38-.86-.41-.17-.54,.24-.74,.48-1.71,1.98-3.75,3.54-6.16,4.32-1.9,.62-2.7,1.8-2.76,3.69-.07,2.04-.89,3.88-2,5.36-3.15,4.18-7.41,6.3-12.57,6.16-1.56-.04-2.84,.26-3.93,1.41-.17,.18-.54,.18-.48,.55,.06,.32,.33,.41,.61,.45,1.07,.15,2.13,.3,3.2,.45,.3,.67,.62,.29,.94,.02Zm-18.44-48.06c.89-1.17,1.08-3.29,.41-4.46-.31-1.62-.43-3.3-1.41-4.71-2.05-2.98-4.69-5.41-7.14-8-3.83-4.04-7.97-7.77-11.42-12.19-.33-.42-.8-1.22-1.58-.73-1.4,.88-2.92,4.66-2.44,6.3,.57,1.94,1.37,3.84,2.5,5.49,2.68,3.88,6.13,7.03,9.51,10.22,3.67,3.46,7.64,6.6,9.97,11.32,1.18-.8,1.35-2.03,1.59-3.24Zm-1.26,29.46c.16-3.41,.13-6.03-.84-8.32-1.91-4.52-5.16-7.96-9.07-10.8-3.65-2.66-7.19-5.51-9.15-9.91-.48-1.08-1.05-.5-1.42,.08-1.15,1.8-1.45,3.87-.86,5.86,1.03,3.52,2.92,6.66,5.14,9.47,2.86,3.62,5.73,7.21,8.46,10.93,1.12,1.52,2.13,3.39,2.12,5.1,0,1.89,1.07,2.19,2.03,2.93,.17,.13,.41,.17,.57,.3,.76,.61,1.11,.29,1.65-.45,1.36-1.84,1.26-3.96,1.37-5.18Zm3.12-62.94c.85,3.73,2.94,7.55,6.8,10.14,4.95,3.33,10.67,5.14,15.59,8.55,.96,.66,1.27,.09,1.18-.85-.16-1.58-.42-3.09-1.11-4.6-1.6-3.48-3.66-6.48-6.68-8.79-4.2-3.22-8.98-5.09-13.88-6.73-1.9-.64-1.92-.6-1.9,2.27Zm11.74-.65c-.02-.67-.57-2.09-1.38-2.94-3.93-4.13-8.56-7.16-13.87-8.99-5.52-1.91-11.22-3.4-15.42-8.02-.33-.36-.71-.69-1.16-.02-1.36,2-.99,6.5,.83,8.16,2.01,1.84,4.22,3.43,6.81,4.29,5.48,1.82,11,3.51,16.47,5.36,2.24,.76,4.39,1.8,6.58,2.72,.59,.25,1.19,.54,1.14-.56Zm17.84,65.19c.46-3.91-1.99-6.96-4.01-10.18-.27-.43-.71-.73-1.36-.28-2.25,1.56-4.24,3.47-5.2,6.07-1.05,2.85-1.68,5.87-1.49,9.01,.16,2.62-.52,5.06-1.95,7.25-.54,.83-.31,1.17,.65,1.22,6.76,.36,13.82-5.38,13.36-13.09Zm-17.06-45.4c-.45,2.36,.63,4.54,2.56,6.51,2.08,2.12,4.24,4.15,6.42,6.14,1.99,1.82,3.99,3.64,5.84,5.62,.37,.4,.94,1.27,1.6,.58,.65-.69,1.36-1.35,1.6-2.43,1.11-5-1.27-8.63-4.31-11.99-2.89-3.19-6.49-5.34-10.24-7.25q-3.55-1.81-3.47,2.82Zm6.05,19.31c-.15,2.33,1.6,6.64,3.26,8.86,2.62,3.5,5.62,6.72,7.49,10.78,.33,.71,.7,.99,1.34,.39,1.94-1.81,3.25-4.06,3.16-6.76-.09-2.94-1.39-5.5-2.99-7.97-2.7-4.15-6.25-7.42-9.76-10.76-.49-.46-.81-.26-1.21,.18-1.26,1.4-1.23,3.13-1.3,5.27Zm-29.89-32.14c.19-1.53-.07-3.48-.77-5.09-1.86-4.29-3.81-8.57-7.27-11.88-.77-.74-1.51-1.69-1.93-2.81-.43-1.15-1.17-1.21-1.94-.22-2.73,3.51-2.56,7.37-.97,11.19,1.24,2.98,3.23,5.53,5.43,7.87,1.71,1.82,3.36,3.71,5.09,5.52,.39,.41,.8,1.04,1.45,.88,.59-.15,.33-.86,.51-1.3,.51-1.22,.39-2.53,.41-4.16Zm-15.33,53.05c.72,3.07,.5,6.48,.7,9.86,.04,.61,.21,1.21,.37,1.8,.44,1.61,1.43,2.27,3.19,2.06,1.45-.17,2.36-.95,2.47-2.56,.08-1.12,.18-2.23,.29-3.34,.37-3.76,1.84-7.25,2.6-10.93,.31-1.49-.2-2.37-.88-3.14-2.1-2.36-3.77-5.03-5.48-7.67-.33-.51-.79-.9-1.03-.21-.32,.87-.99,1.56-1.08,2.55-.34,3.76-.74,7.52-1.14,11.57Zm-104.42,21.42c3.48,1.86,6.82,2.67,10.3,2.68,7.15,.03,13.75-2.29,20.15-5.37,1.11-.53,2.33-.86,3.56-1.91-12.14-3.93-22.95-.15-34.01,4.6Zm84.11-5.13c-3.61-1.86-11.81-1.79-14.96-1.18-5.99,1.15-11.65,3.4-17.28,5.74-.29,.12-.69,.14-.67,.58,.02,.41,.4,.51,.69,.61,1.21,.44,2.42,.87,3.7,1.1,4.85,.87,9.57,.03,14.27-1.06,5.04-1.16,9.84-2.94,14.24-5.79Zm-109.18,4.26c.55,.4,.79,.66,1.08,.77,4.19,1.57,8.45,2.5,12.97,1.98,4.33-.5,8.36-1.94,12.35-3.64,2.2-.94,4.46-1.74,6.69-2.6-11.41-3.13-22.3-1.69-33.09,3.5Zm103.41,.37c11.37,2.83,22.24,1.79,32.66-5.02-11.69-2.98-22.45-1.1-32.66,5.02Zm70.6-81.1c.2-2.01-.39-4.06-1.5-5.82-3.6-5.71-8.77-9.53-14.52-12.63-.7-.38-.85-.17-1.15,.41-.71,1.36-1.31,2.84-2.29,3.95-1.09,1.24-.66,1.58,.51,2.07,4.61,1.93,8.76,4.62,12.23,8.3,1.14,1.2,2.13,2.68,1.92,4.59-.05,.49-.17,1.14,.38,1.35,1.31,.48,2.49,2.3,3.57,1.83,1.04-.46,.88-2.46,.84-4.05Zm-45.27,89.09c-2.58-1.25-4.73-2.37-6.52-3.95-1.7-1.51-3.43-1.82-5.58-1.68-5.08,.32-10.14,.09-15.03-1.63-1.25-.44-2.28,.46-3.41,.72-.44,.1-.21,.57,.17,.85,.78,.57,1.46,1.28,2.26,1.82,6.19,4.25,13.06,5.76,20.4,5.25,2.45-.17,4.88-.43,7.71-1.38Zm-57.53-6.24c5.15,6.32,25.45,10.04,33.76,6.06-3.09-1.33-5.76-3.09-8.12-5.32-.51-.48-1.01-.46-1.64-.32-1.74,.39-3.48,.78-5.24,1.01-4.92,.66-9.83,.79-14.42-1.54-1.58-.8-2.91-.74-4.34,.1Zm126.17-33.79c0-1.01,.07-2.02-.01-3.02-.2-2.49-.74-4.84-2.05-7.03-.78-1.31-1.08-.74-1.65,0-1.23,1.59-2.28,3.38-3.95,4.51-1.1,.75-.99,1.5-.38,2.36,.86,1.22,1.44,2.63,1.74,4.02,.89,4.2-.22,7.82-3.65,10.42-1.33,1.01-.74,2.22-.33,3.13,.43,.97,1.37,.27,2.08-.07,.48-.23,.98-.46,1.45-.7,3.36-1.73,5.42-4.54,6.4-8.27,.46-1.76,.37-3.55,.36-5.34Zm-2.75-17.31c-.07-1.33-.29-2.58-.66-3.88-.98-3.55-2.36-6.78-4.9-9.43-.38-.39-.7-1.06-1.25-.9-.55,.16-.81,.83-.93,1.45-.33,1.73-1.11,3.19-2.37,4.39-.47,.45-.55,.94-.09,1.45,1.16,1.3,2.01,2.8,2.75,4.38,1.82,3.86,2.33,6.76-1.29,10.41-.24,.24-.61,.55-.36,.81,.83,.85,1.19,2.21,2.28,2.71,.97,.44,1.38-.76,1.87-1.27,2.68-2.8,5.02-5.84,4.94-10.11Zm-112.09,45.68c-.73-.85-1.62-.76-2.36-.96-3.61-.97-7.27-1.77-11.01-1.13-5.88,.99-11.21,3.66-16.59,6.14-.28,.13-.68,.17-.63,.61,.04,.36,.34,.5,.65,.66,1.23,.63,2.52,.93,3.87,1.03,4.81,.36,9.43-.83,14.02-2.01,4.09-1.05,8.2-2.11,12.05-4.33Zm98.46-58.6c-.04,.61-.1,1.22-.12,1.84-.04,1.25,1.03,1.63,1.77,2.09,.78,.49,1.25-.47,1.59-.99,.5-.75,.96-1.55,1.26-2.46,.66-1.98,.3-3.96,.27-5.95-.07-3.96-1.53-7.37-3.75-10.48-1.35-1.89-3.08-3.35-5.08-4.46-1.04-.58-1.77-.18-1.45,.84,.55,1.75-.22,3.27-.63,4.77-.38,1.4,.01,2.06,.83,3.03,2.81,3.38,5.35,6.95,5.31,11.75Zm-23.39-47.12c0-1.01-.02-2.01,0-3.02,.03-.93-.36-1.14-1.2-.97-1.79,.36-3.6,.69-5.41,.94-1.18,.16-1.79,.54-1.71,1.98,.11,1.99,.06,4.02-.64,5.93-.65,1.78-2.07,3.39-1.11,5.53,.1,.23,.1,.58,.02,.83-.71,2.06,.42,2.74,2.08,3.1,.57,.12,1.14,.31,1.68,.55,.69,.3,1.05,.05,1.45-.56,2.87-4.31,4.77-8.96,4.83-14.3Zm-3.77,31.82c-.31-2.16,.16-4.21-.88-6.09-.55-1.01-2.92-1.81-3.53-.96-1.07,1.49-2.53,2.37-4.09,3.1-.82,.38-.61,.72-.34,1.4,1.64,4.09,2.28,8.22,.11,12.34-.2,.38-.45,.75-.09,1.02,1.22,.9,1.86,2.76,3.34,2.94,1.24,.16,1.8-1.51,2.6-2.45,.21-.24,.41-.51,.54-.81,1.49-3.39,2.25-6.96,2.34-10.49Zm-10.5,28.54c.35-2.21-.31-4.29-2.39-5.94-1.6-1.27-3.02-2.8-4.46-4.27-.46-.47-.94-1.28-1.45-1.15-.6,.15-.8,1.07-.92,1.77-.63,3.55-.75,7.02,.52,10.53,1.17,3.24,3.34,5.62,5.65,7.9,.84,.83,1.48,.61,1.84-.64,.74-2.57,1.49-5.12,1.2-8.2ZM45.26,166.57c5.83,7.43,17.9,10.63,27.54,6.42-.35-.37-.78-.53-1.22-.71-2.48-1.06-4.82-2.36-6.6-4.49-.71-.84-1.38-1-2.39-.7-3.25,.94-6.57,1.15-9.93,.99-2.47-.12-4.82-.83-7.39-1.51ZM158.57,61.93c2.35,3.93,4.61,7.54,7.51,10.69,1.64,1.79,3.39,3.44,5.32,4.88,.77,.58,1.32,.81,1.31-.63-.02-1.54,0-3.1,.97-4.46,.41-.57,.23-1.16-.36-1.74-2.12-2.07-4.02-4.32-5.59-6.89-.42-.68-.72-1.9-1.89-1.76-2.32,.27-4.63,0-7.25-.08Zm10.71-5.34c.88,1.09,1.8,1.64,2.63,2.32,1.05,.86,.95,1.69-.3,2.12-.86,.29-1.77,.48-2.67,.64-.91,.16-.94,.55-.43,1.22,1.74,2.27,3.36,4.64,5.34,6.71,.31,.33,.53,.72,1.05,.6,.84-.18,2.31-2.11,2.27-3.02-.09-1.92,.44-3.6,1.85-4.89,.33-.3,.6-.65,.37-.97-.97-1.37-.9-3.06-1.38-4.57-.37-1.17-.97-1.78-2.36-1.41-2.03,.54-4.12,.82-6.38,1.24Zm18.64,61.6c-.11,1.66,.16,3.83-1.01,5.86-.39,.67-1.47,1.25-1.12,2,.32,.7,1.29,1.08,1.97,1.61,1.02,.78,2.03,2.17,3.07,2.19,1.22,.02,1.52-1.86,2.19-2.93,.03-.04,.11-.05,.13-.09,.91-1.66,1.45-3.62,1.13-5.34-.59-3.21-3.22-5.18-5.29-7.43-.23-.25-.5-.48-.84-.27-.34,.21-.22,.59-.22,.91-.01,1.01,0,2.01,0,3.51Zm-16.72,6.88c.02,2.38-.02,4.16,.46,5.92,.14,.5,.4,.91,.79,.93,.43,.03,.66-.42,.77-.91,.25-1.14,.55-2.26,1.39-3.12,.23-.23,.24-.5,.13-.77-1.49-3.78-2.05-7.42,1.17-10.69,.53-.54,.47-1.67-.1-2.16-.74-.63-1.2,.51-1.43,.86-2.04,3.17-3.66,6.52-3.18,9.94Zm-36.03,32.85c-2.71-2.04-11.96-2.03-14.68,0,4.86,2.03,9.81,3.09,14.68,0Zm34.57-.91s0,.1,0,.15c.81,0,1.62-.06,2.42,.02,.69,.07,.95-.17,.72-.83-.54-1.55-.67-3.15-.76-4.77-.05-.81-.51-1.13-1.19-.84-2.52,1.07-4.36,2.88-5.39,5.52-.33,.84,.01,1.12,.82,1.04,1.12-.12,2.25-.19,3.37-.28Zm3.62-60.08c-.47,.05-.54,.53-.6,.95-.28,1.88-.48,3.85,.06,5.64,.46,1.52,.86,3.19,2.1,4.38,.64,.62,.9,.43,1.03-.36,.18-1.15,.07-2.5,.62-3.41,.94-1.56,.03-2.45-.67-3.46-.74-1.06-1.69-1.97-2.05-3.29-.06-.21-.1-.44-.49-.46Zm-13.44,60.86c-4.35-1.71-8.73-1.83-13.16-.57,1.66,.56,3.43,.69,4.97,1.38,2.93,1.33,5.51,.12,8.19-.81Zm37.73-56.35c.05-1.32,.03-2.48-.41-3.59-.1-.26-.13-.55-.47-.57-.32-.02-.49,.22-.58,.48-.59,1.61-1.84,2.67-3,3.78-.37,.36-.66,.54-.21,1.01,.97,1.01,1.93,2.03,2.9,3.04,.62,.65,1.04,.41,1.26-.36,.36-1.28,.7-2.57,.52-3.79Zm-1.26,31.37c.04-2.86-.35-4.07-1.31-4.95-.49-.45-.79-.48-1.16,.05-2.08,2.92-2.16,2.99,.09,5.67,.59,.7,.76,2.39,1.79,2,.97-.36,.39-1.92,.6-2.78Zm-7.47,24.18c1.47-.26,3.04-.66,4.66-.79,.64-.05,.9-.45,.32-1.12-.95-1.09-2.05-2.13-3.37-2.4-1.05-.22-1.22,1.33-1.85,2.02-.26,.28-.56,.54-.74,.87-.54,.97-.27,1.48,.97,1.42Zm-116.75,1.21c4.09,1.49,7.93,2.41,12.03-.08-4.1-1.02-7.94-.91-12.03,.08Zm26.72-.15c3.62,2.22,7.11,2.34,10.63,.09-3.5-1.42-7-1.01-10.63-.09Zm115.9-42.52c-.3,1.71,.98,2.9,1.33,4.38,.06,.24,.22,.44,.45,.34,.17-.07,.37-.3,.39-.48,.13-1.15,.7-2.06,1.38-2.93,.34-.44,.72-1.05,.08-1.44-1.04-.63-1.43-2.14-2.83-2.22-.39-.02-.52,.38-.58,.7-.1,.54-.14,1.1-.21,1.65Zm8.98,21.35c-.7-.9-1.37-1.69-1.95-2.53-.54-.79-.79-1-1.43,.04-.97,1.57-.68,3.2-.64,4.83,.02,.76,.53,.65,.84,.24,.84-1.11,2.09-1.66,3.18-2.58Zm-33.69-76.41c.67-.49,.94-.92,1.05-1.58,.27-1.6,.29-3.21,.27-4.82,0-.61,.23-1.53-.85-1.33-.72,.13-1.54,.17-1.48,1.47,.09,2.11,1.11,3.99,1,6.25Zm1.49,18.74c-.15-.56-.73-.49-1.13-.72-.91-.51-1.63-.12-1.99,.69-.38,.86-2.09,1.38-1.18,2.46,1.1,1.31,2.07-.2,2.97-.81,.55-.37,1.28-.68,1.34-1.61ZM48.9,158.76c3.4,1.72,6.2,.02,9.08-.39-2.92-.3-5.83-.62-9.08,.39ZM198.27,89.53c.12,.47-.49,1.39,.49,1.69,.59,.18,1.37,.21,1.8-.33,.65-.81-.56-.99-.67-1.59-.05-.26-.2-.51-.3-.76-.16-.45-.18-1.1-.83-1.02-.7,.09-.44,.75-.49,1.2-.02,.22,0,.44,0,.82Zm-14.27-13.38c.64,1.41,1.5,2.04,1.72,3.05,.07,.29,.41,.52,.63,.34,.45-.36,.86-.81,1.18-1.3,.17-.26,.08-.68-.29-.83-.93-.38-1.87-.73-3.23-1.26Zm-2.02,82.73c-1.22-.59-1.96-2.34-3.38-.52,1.06,.39,1.92,1.15,3.38,.52Z"/>
  <path class="cls-6" d="M221.94,44.78c-4.7,1.21-9.41,2.39-14.11,3.62-5.9,1.55-11.94,2.34-17.91,3.51-.69,.13-1.17,0-1.14-.9,.03-.89,0-1.79-.03-2.69-.04-.78,.36-1.11,1.03-1.23,5.91-1.56,11.82-3.13,17.73-4.69,7.82-2.07,15.65-4.1,23.46-6.24,10.29-2.83,20.55-5.75,30.82-8.63,.23,0,.46,.02,.69,.03,.28,1.87,1.81,3.42,1.35,5.48-9.57,2.66-19.15,5.29-28.72,7.98-4.4,1.24-8.86,2.23-13.17,3.75Z"/>
  <path class="cls-9" d="M159.56,46.52c.14,.53,.28,1.06,.42,1.59-.15,.56,.19,.78,.62,.93,.05,1.17,1.05,2.25,.66,3.37-.39,1.12-1.79,1.05-2.68,1.63-3.12,2-3.14,1.96-4.49-1.8-.54-1.49-1.1-2.97-1.66-4.45-.35-2.01-1.47-3.72-1.91-5.72-.57-2.62-1.53-5.16-2.13-7.78-.69-3-1.82-5.91-1.82-9.05,.48-.61,1.12-.71,1.85-.69,1.54,.04,3.08,0,4.63,0,1.08,1.89,1.25,4.12,1.68,6.16,1.07,5.09,2.8,9.94,4.24,14.9,.11,.39,.2,.74,.6,.9Z"/>
  <path class="cls-14" d="M221.94,44.78c4.32-1.52,8.78-2.52,13.17-3.75,9.56-2.69,19.14-5.32,28.72-7.98,.46-.03,1.07-.33,1.23,.36,.18,.78-.55,.67-.96,.78-6.43,1.78-12.86,3.53-19.28,5.3-6.9,1.9-13.8,3.81-20.7,5.7-.62,.17-1.25,.27-1.87,.41-.1-.27-.2-.55-.3-.82Z"/>
  <path class="cls-6" d="M262.48,27.57c-.23,0-.46-.02-.69-.03,.1-1.14-.69-.64-1.07-.54-4.59,1.22-9.17,2.47-13.74,3.74-6.39,1.78-12.77,3.61-19.16,5.37-6.49,1.79-12.98,3.59-19.5,5.28-3.22,.84-6.37,1.95-9.67,2.45-.13-.12-.26-.24-.39-.35,3.88-1.08,7.75-2.16,11.63-3.23,10.98-3.01,21.96-6.01,32.94-9.02,6.04-1.66,12.07-3.32,18.1-5,.19-.05,.36-.23,.53-.35,.4,.52,1.15,.81,1.01,1.67Z"/>
  <path class="cls-14" d="M146.57,25.24c0,3.15,1.13,6.05,1.82,9.05,.6,2.62,1.56,5.15,2.13,7.78,.44,2,1.56,3.71,1.91,5.72-.28-.12-.57-.24-.86-.37-.33,.85,.36,1.6,.22,2.43-1.29-1.6-1.5-3.69-2.08-5.54-1.81-5.85-3.41-11.78-4.77-17.77-.05-.22-.12-.44-.13-.66-.03-.62-.57-1.46,.26-1.78,.79-.3,1.2,.45,1.5,1.14Z"/>
  <path class="cls-14" d="M159.56,46.52c-.4-.16-.49-.51-.6-.9-1.44-4.95-3.17-9.81-4.24-14.9-.43-2.04-.6-4.27-1.68-6.16,.07-.09,.09-.2,.07-.31,.54-.02,1.07-.05,1.61-.07,.16,.83,.32,1.65,.48,2.48,.2,.73-.14,1.66,.75,2.13,.17,2.79,1.16,5.37,1.87,8.02,.84,3.14,1.91,6.2,2.92,9.28-.34-.24-.68-.48-1.08-.76-.04,.46-.07,.83-.1,1.2Z"/>
  <path class="cls-14" d="M226.82,165.78c1.57,.16,2.68-1.45,4.28-1.21-1.72,.48-2.64,2.13-4.12,3.03-3.37,2.04-7.03,2.96-10.79,3.61-1.2,.21-2.41,.64-3.67,.41-.18-.11-.35-.32-.53-.32-3.32-.02-6.64-.03-9.96-.01-.35,0-.24,.24-.1,.42-.7,.13-1.39,.26-2.09,.39,.16-.52,.9-.76,.66-1.47,7.07,.79,14.06,.24,20.89-1.78,1.98-.59,4.14-1.06,5.43-3.07Z"/>
  <path class="cls-14" d="M77.14,173.9c.23-.37,.83-.16,.98-.67,.64,.06,1.3,.03,1.92,.18,4.87,1.24,9.69,1.06,14.49-.38,.35,.85,.92,.44,1.46,.29,.84-.24,1.68-.74,2.55-.08-1.08,0-2.1,.24-3.13,.61-6.08,2.17-12.17,1.69-18.26,.04Z"/>
  <path class="cls-9" d="M44.03,167.54c1.49,1.25,2.97,2.51,4.47,3.75,.82,.68,.38,.98-.32,1.14-1.82,.42-3.64,.8-5.47,1.2,.46-2.02,.3-4.19,1.31-6.09Z"/>
  <path class="cls-14" d="M135.26,174.92c2.65-.54,5.33-.2,8-.2-2.65,.59-5.33,.36-8,.2Z"/>
  <path class="cls-8" d="M95.84,157.72c-2.45,.56-4.93,.22-7.4,.22,.7-.8,1.62-.38,2.43-.39,1.66-.04,3.32-.21,4.97,.17Z"/>
  <path class="cls-14" d="M110.67,175.07c2.42-.15,4.84-.14,7.26,0-2.42,.53-4.84,.49-7.26,0Z"/>
  <path class="cls-14" d="M209.22,171.8c-2.15,.39-4.29,.38-6.44-.02,2.15-.23,4.29-.32,6.44,.02Z"/>
  <path class="cls-14" d="M154,55.16c1.18,.42,1.16,1.47,.96,2.39-.18,.82-.23,1.6-.2,2.42-.72-.13-.83-.73-.63-1.24,.48-1.23,.14-2.39-.12-3.57Z"/>
  <path class="cls-11" d="M209.22,171.8c-2.14-.34-4.29-.25-6.44-.02-.28-.03-.57-.05-.85-.08-.15-.19-.25-.42,.1-.42,3.32-.01,6.64,0,9.96,.01,.18,0,.35,.21,.53,.32-1.1,.1-2.19,.33-3.3,.19Z"/>
  <path class="cls-14" d="M164.15,51.74c-.54,.68-1.35,.65-1.58,0-.48-1.32-1.53-2.46-1.39-4.01,.84,.61,.77,1.64,1.06,2.5,.33,.96,.72,1.75,1.91,1.51Z"/>
  <path class="cls-14" d="M110.57,174.32c-.1,.25-.21,.5-.31,.74-1.48,.04-2.96,.12-4.39-.37,.94-.01,1.9,.09,2.82-.07,.72-.13-.08-.33-.08-.53,.67-.13,1.33-.05,1.96,.22Z"/>
  <path class="cls-14" d="M191.71,37.12c-1.4,.48-2.83,.16-4.25,.21,1.4-.5,2.82-.52,4.25-.21Z"/>
  <path class="cls-12" d="M62.03,175.82c1.28-.27,2.57-.24,3.86-.06-1.28,.5-2.57,.41-3.86,.06Z"/>
  <path class="cls-14" d="M123.22,174.37c1.09-.84,2.2-1.58,3.6-.69-1.28-.21-2.41,.38-3.6,.69Z"/>
  <path class="cls-14" d="M193.99,37.43c.28,.67-1.6-.42-.62,.82-.57,.11-1.1-.05-1.63-.27,.14-.32,.64-.34,.62-.79,.55-.03,1.11-.06,1.62,.24Z"/>
  <path class="cls-14" d="M175.84,48.44c-1.06,.69-2.22,.96-3.46,.95,1.09-.58,2.27-.79,3.46-.95Z"/>
  <path class="cls-14" d="M167.1,51.56c-.75-.7-1.56,.26-2.32-.08,.94-.44,1.92-.77,2.95-.91,0,.3,0,.59,0,.89-.21,.03-.42,.07-.62,.1Z"/>
  <path class="cls-14" d="M175.91,173.76c1.15-.12,2.23,.18,3.28,.61-1.15,.15-2.22-.22-3.28-.61Z"/>
  <path class="cls-14" d="M179.82,174.42c.86-.06,1.76-.44,2.53,.29-.86,.04-1.72,.12-2.53-.29Z"/>
  <path class="cls-14" d="M177.38,46.57c.07,.9,.33,1.93-1.14,1.77,.38-.59,.76-1.18,1.14-1.77Z"/>
  <path class="cls-4" d="M155.95,28.78c-.88-.47-.54-1.4-.75-2.13,1.47,.25,.64,1.36,.75,2.13Z"/>
  <path class="cls-14" d="M159.78,66.24c.88,.11,1.06,.75,1.06,1.51-.41-.46-1.07-.74-1.06-1.51Z"/>
  <path class="cls-8" d="M83.67,156.88c-.73,.19-1.36-.15-2-.4,.8-.6,1.41-.15,2,.4Z"/>
  <path class="cls-14" d="M184.28,38.12c-.42,.92-1.33,.63-2.02,.89,.57-.55,1.32-.67,2.02-.89Z"/>
  <path class="cls-8" d="M71.94,157.16c-.62,.34-1.23,.66-1.96,.65,.44-.89,1.16-.9,1.96-.65Z"/>
  <path class="cls-14" d="M178.14,44.18c-.14,.57,.3,1.4-.67,1.58-.07-.66-.01-1.27,.67-1.58Z"/>
  <path class="cls-14" d="M156.55,61.29c.93-.03,1,.65,1.04,1.36-.47-.35-.78-.84-1.04-1.36Z"/>
  <path class="cls-14" d="M128.95,174.02c.84-.17,1.59,.17,2.35,.42-.82,.06-1.63,.08-2.35-.42Z"/>
  <path class="cls-8" d="M55.7,156.98c-1.09,0-2.18,0-3.27,0,1.09-.35,2.18-.36,3.27,0Z"/>
  <path class="cls-8" d="M42.89,166.03c.65,.15,.92,.62,1.02,1.24-.71-.09-1.31-.27-1.02-1.24Z"/>
  <path class="cls-12" d="M66.4,175.69c.64-.51,1.36-.38,2.08-.27-.67,.27-1.35,.48-2.08,.27Z"/>
  <path class="cls-4" d="M154.73,24.18c-.54,.02-1.07,.05-1.61,.07,.49-1.1,1.03-1.05,1.61-.07Z"/>
  <path class="cls-14" d="M194.67,173.89c.72-.43,1.47-.7,2.32-.57-.76,.24-1.47,.74-2.32,.57Z"/>
  <path class="cls-14" d="M192.12,174.38c.49-.49,1.08-.44,1.68-.36-.48,.51-1.09,.38-1.68,.36Z"/>
  <path class="cls-8" d="M61.41,157.99c-.45,0-.88-.07-1.17-.48,.59-.37,1.17-.7,1.17,.48Z"/>
  <path class="cls-14" d="M157.59,62.64c.85-.03,.69,.64,.75,1.16-.45-.25-.75-.6-.75-1.16Z"/>
  <path class="cls-8" d="M59.29,157.41c-.46,.02-.94,.09-1.32-.29,.55-.42,1.02-.49,1.32,.29Z"/>
  <path class="cls-8" d="M67.4,157.91c-.45,.21-.91,.18-1.36,.02,.45-.56,.9-.55,1.36-.02Z"/>
  <path class="cls-14" d="M158.88,65c.8-.09,.71,.54,.78,1.04-.5-.15-.74-.52-.78-1.04Z"/>
  <path class="cls-8" d="M75.5,156.47c-.4,.31-.87,.28-1.33,.24,.33-.73,.8-.67,1.33-.24Z"/>
  <path class="cls-8" d="M50.82,157.11c-.4,.33-.86,.3-1.33,.26,.33-.7,.79-.71,1.33-.26Z"/>
  <path class="cls-14" d="M161.11,68.36c.7-.09,.79,.38,.79,.93-.6,0-.68-.48-.79-.93Z"/>
  <path class="cls-14" d="M153.13,53.5c.82,.07,.6,.73,.66,1.24-.46-.28-.7-.67-.66-1.24Z"/>
  <path class="cls-14" d="M200.7,41.43c-.49-.02-.89-.14-.87-.77,.48,.02,.79,.27,.87,.77Z"/>
  <path class="cls-3" d="M102.29,174.08c.56-.09,1.1-.11,1.46,.47-.47-.23-1.09,.08-1.46-.47Z"/>
  <path class="cls-14" d="M145.95,174.33c.26-.47,.68-.35,1.08-.32-.27,.42-.66,.42-1.08,.32Z"/>
  <path class="cls-14" d="M143.67,174.68c.27-.43,.59-.48,.96-.13-.29,.26-.62,.27-.96,.13Z"/>
  <path class="cls-14" d="M179.44,41.51c-.01,.49-.11,.89-.7,.89-.08-.56,.29-.74,.7-.89Z"/>
  <path class="cls-14" d="M195.78,37.96c-.43,.04-.9,.2-1.13-.38,.39,.08,.84-.02,1.13,.38Z"/>
  <path class="cls-14" d="M197.31,38.68c-.4,0-.85,.11-1.03-.44,.42-.05,.81-.01,1.03,.44Z"/>
  <path class="cls-14" d="M132.02,174.56c.36-.37,.68-.32,.97,.11-.33,.08-.66,.09-.97-.11Z"/>
  <path class="cls-12" d="M71.22,174.7c.26-.48,.7-.36,1.1-.34-.29,.4-.69,.39-1.1,.34Z"/>
  <path class="cls-14" d="M158.42,63.92c.36,.27,.56,.62,.47,1.1-.44-.24-.31-.73-.47-1.1Z"/>
  <path class="cls-12" d="M55.67,174.66c.37-.03,.74-.05,1,.3-.42,.22-.75,.09-1-.3Z"/>
  <path class="cls-14" d="M75.57,173.45c.37-.15,.71-.18,.91,.27-.35,.09-.68,.06-.91-.27Z"/>
  <path class="cls-14" d="M198.35,39.32c-.36,.05-.67,.02-.78-.42,.31,.04,.66,0,.78,.42Z"/>
  <path class="cls-14" d="M197.57,173.06c.17-.47,.52-.44,.89-.33-.22,.35-.55,.34-.89,.33Z"/>
  <path class="cls-14" d="M181.68,39.47c-.08,.48-.41,.55-.81,.51,.09-.47,.48-.44,.81-.51Z"/>
  <path class="cls-12" d="M59.92,175.59c.25-.28,.46-.22,.65,.08-.24,.16-.45,.11-.65-.08Z"/>
  <path class="cls-14" d="M199.34,39.98c-.41,.05-.73-.03-.79-.52,.37,0,.7,.08,.79,.52Z"/>
  <path class="cls-14" d="M152.76,52.15c.37,.23,.35,.56,.24,.92-.26-.26-.29-.58-.24-.92Z"/>
  <path class="cls-14" d="M180.71,40.16c-.05,.44-.34,.54-.71,.52,.03-.48,.4-.46,.71-.52Z"/>
  <path class="cls-14" d="M185.91,37.58c-.17,.44-.5,.45-.87,.35,.29-.12,.58-.23,.87-.35Z"/>
  <path class="cls-14" d="M162.51,70.33c.41,0,.67,.18,.67,.64-.25-.19-.68-.16-.67-.64Z"/>
  <path class="cls-8" d="M85.9,157.8c-.26,0-.54,.04-.67-.29,.44-.46,.6-.21,.67,.29Z"/>
  <path class="cls-14" d="M180.01,40.67c.04,.41-.1,.68-.51,.76,.08-.32,.18-.63,.51-.76Z"/>
  <path class="cls-14" d="M184.37,174.75c.29-.1,.58-.14,.85,.09-.3,.12-.58,.14-.85-.09Z"/>
  <path class="cls-14" d="M185.91,174.84c.19-.23,.4-.24,.6-.02-.2,0-.4,.01-.6,.02Z"/>
  <path class="cls-12" d="M58.84,175.41c.15,.05,.3,.09,.44,.14-.19,.09-.33,.04-.44-.14Z"/>
  <path class="cls-12" d="M57.54,175.07c.2-.07,.35-.03,.45,.17-.15-.06-.3-.12-.45-.17Z"/>
  <path class="cls-14" d="M187.23,174.77c.16-.01,.33-.02,.49-.03-.16,.14-.32,.16-.49,.03Z"/>
  <path class="cls-14" d="M182.79,174.69c.24,0,.48,.01,.72,.02-.25,.22-.49,.16-.72-.02Z"/>
  <path class="cls-14" d="M133.74,174.74c.17,.03,.34,.06,.51,.09-.17-.03-.34-.06-.51-.09Z"/>
  <path class="cls-14" d="M120.96,174.89c.16-.06,.32-.12,.49-.19-.16,.06-.32,.12-.49,.19Z"/>
  <path class="cls-14" d="M72.91,174.19c.11-.07,.21-.15,.32-.22-.11,.07-.21,.15-.32,.22Z"/>
  <path class="cls-12" d="M54,174.03c.21-.05,.35,.04,.41,.25-.14-.08-.27-.17-.41-.25Z"/>
  <path class="cls-3" d="M101.15,173.89c.14-.16,.25-.12,.33,.06-.11-.02-.22-.04-.33-.06Z"/>
  <path class="cls-14" d="M174.12,173.33c.12,.02,.24,.03,.35,.05-.12-.02-.23-.03-.35-.05Z"/>
  <path class="cls-14" d="M172.9,173.44c.14-.03,.29-.07,.43-.1-.14,.03-.29,.07-.43,.1Z"/>
  <path class="cls-8" d="M65.45,157.97c-.12,0-.24,0-.35,0,.12-.16,.24-.16,.35,0Z"/>
  <path class="cls-7" d="M196.39,147.29c-.1,1.22-.01,3.34-1.37,5.18-.54,.74-.89,1.06-1.65,.45-.17-.13-.4-.17-.57-.3-.96-.74-2.04-1.04-2.03-2.93,0-1.7-1-3.57-2.12-5.1-2.73-3.72-5.61-7.32-8.46-10.93-2.22-2.8-4.11-5.95-5.14-9.47-.58-1.99-.28-4.06,.86-5.86,.37-.58,.94-1.16,1.42-.08,1.95,4.39,5.49,7.25,9.15,9.91,3.91,2.85,7.15,6.28,9.07,10.8,.97,2.29,1,4.91,.84,8.32Z"/>
  <path class="cls-7" d="M197.65,117.83c-.23,1.2-.41,2.43-1.59,3.24-2.34-4.71-6.3-7.86-9.97-11.32-3.38-3.19-6.84-6.34-9.51-10.22-1.13-1.65-1.94-3.54-2.5-5.49-.48-1.64,1.05-5.43,2.44-6.3,.78-.49,1.25,.31,1.58,.73,3.46,4.43,7.6,8.15,11.42,12.19,2.45,2.59,5.08,5.02,7.14,8,.97,1.41,1.1,3.09,1.41,4.71-.84,1.42-.3,2.97-.41,4.46Z"/>
  <path class="cls-9" d="M191.74,37.99c.52,.22,1.05,.37,1.63,.27,.27,.05,.55,.1,.83,.16,.26,.11,.52,.21,.78,.32,1.41,.55,2.7,1.3,3.83,2.34,.54,.5,.98,.9-.13,1.14-2.76,.61-5.36,1.99-8.33,1.56-1.46-.21-2.41,.62-2.67,2.24-.55,3.48-.07,6.93,.31,10.37,.39,3.46,1.33,6.83,1.42,10.38,.04,1.43-.49,1.29-1.14,.98-4.39-2.11-7.93-4.95-8.86-10.37-.46-2.69-1.03-5.32-1.03-8.08,.02-6.19,3.12-10.04,8.99-10.93,.15-.02,.3-.11,.45-.17,.35,.06,.68,.04,.98-.18,.98,0,1.96,0,2.93-.01Z"/>
  <path class="cls-2" d="M199.52,84.35c-.02-2.87,0-2.91,1.9-2.27,4.89,1.64,9.68,3.51,13.88,6.73,3.02,2.31,5.08,5.31,6.68,8.79,.69,1.5,.95,3.02,1.11,4.6,.1,.94-.22,1.52-1.18,.85-4.92-3.41-10.64-5.22-15.59-8.55-3.86-2.6-5.94-6.41-6.8-10.14Z"/>
  <path class="cls-7" d="M211.26,83.69c.04,1.1-.55,.81-1.14,.56-2.19-.92-4.34-1.96-6.58-2.72-5.47-1.85-10.99-3.54-16.47-5.36-2.59-.86-4.79-2.45-6.81-4.29-1.82-1.66-2.19-6.15-.83-8.16,.46-.67,.84-.34,1.16,.02,4.2,4.62,9.9,6.11,15.42,8.02,5.31,1.83,9.94,4.86,13.87,8.99,.81,.85,1.36,2.27,1.38,2.94Z"/>
  <path class="cls-2" d="M229.1,148.88c.45,7.7-6.61,13.45-13.36,13.09-.96-.05-1.19-.39-.65-1.22,1.43-2.19,2.1-4.63,1.95-7.25-.19-3.14,.44-6.16,1.49-9.01,.96-2.59,2.95-4.5,5.2-6.07,.65-.45,1.09-.14,1.36,.28,2.02,3.22,4.48,6.27,4.01,10.18Z"/>
  <path class="cls-2" d="M215.15,165.88c-1.07-.15-2.13-.3-3.2-.45-.27-.04-.55-.13-.61-.45-.06-.37,.31-.37,.48-.55,1.1-1.15,2.38-1.46,3.93-1.41,5.16,.14,9.42-1.98,12.57-6.16,1.12-1.48,1.94-3.32,2-5.36,.06-1.89,.86-3.07,2.76-3.69,2.41-.78,4.45-2.35,6.16-4.32,.2-.24,.33-.65,.74-.48,.36,.15,.34,.53,.38,.86,.42,3.82-.06,7.41-1.68,10.97-1.52,3.33-3.37,6.19-6.47,8.06-2.34,1.41-5,1.62-7.59,2.13-2.82,.56-5.69,.61-8.54,.86-.31,0-.63-.01-.94-.02Z"/>
  <path class="cls-2" d="M212.04,103.48q-.08-4.63,3.47-2.82c3.74,1.91,7.35,4.05,10.24,7.25,3.04,3.36,5.41,6.99,4.31,11.99-.24,1.08-.95,1.75-1.6,2.43-.66,.69-1.22-.18-1.6-.58-1.85-1.98-3.85-3.8-5.84-5.62-2.18-1.99-4.34-4.02-6.42-6.14-1.93-1.97-3.01-4.15-2.56-6.51Z"/>
  <path class="cls-2" d="M218.09,122.8c.07-2.15,.04-3.88,1.3-5.27,.4-.44,.72-.65,1.21-.18,3.51,3.33,7.05,6.6,9.76,10.76,1.61,2.47,2.9,5.03,2.99,7.97,.09,2.7-1.22,4.95-3.16,6.76-.64,.6-1.01,.32-1.34-.39-1.87-4.06-4.87-7.28-7.49-10.78-1.66-2.22-3.41-6.54-3.26-8.86Z"/>
  <path class="cls-7" d="M188.2,90.66c-.02,1.63,.1,2.94-.41,4.16-.18,.44,.08,1.16-.51,1.3-.65,.16-1.06-.48-1.45-.88-1.72-1.81-3.37-3.69-5.09-5.52-2.2-2.34-4.19-4.88-5.43-7.87-1.59-3.82-1.76-7.69,.97-11.19,.77-.99,1.51-.93,1.94,.22,.42,1.11,1.15,2.07,1.93,2.81,3.46,3.3,5.41,7.59,7.27,11.88,.7,1.61,.96,3.56,.77,5.09Z"/>
  <path class="cls-7" d="M172.87,143.71c.4-4.05,.8-7.81,1.14-11.57,.09-.99,.76-1.68,1.08-2.55,.25-.69,.7-.3,1.03,.21,1.72,2.64,3.38,5.31,5.48,7.67,.68,.77,1.19,1.65,.88,3.14-.76,3.68-2.23,7.16-2.6,10.93-.11,1.11-.21,2.23-.29,3.34-.11,1.61-1.02,2.39-2.47,2.56-1.76,.21-2.75-.45-3.19-2.06-.16-.59-.33-1.2-.37-1.8-.21-3.38,.02-6.79-.7-9.86Z"/>
  <path class="cls-9" d="M68.44,165.13c11.06-4.75,21.87-8.53,34.01-4.6-1.22,1.05-2.45,1.38-3.56,1.91-6.39,3.08-12.99,5.4-20.15,5.37-3.48-.01-6.82-.83-10.3-2.68Z"/>
  <path class="cls-9" d="M152.55,160c-4.41,2.85-9.21,4.62-14.24,5.79-4.71,1.09-9.42,1.93-14.27,1.06-1.28-.23-2.49-.66-3.7-1.1-.29-.11-.67-.2-.69-.61-.02-.44,.38-.46,.67-.58,5.63-2.34,11.29-4.59,17.28-5.74,3.15-.6,11.35-.68,14.96,1.18Z"/>
  <path class="cls-9" d="M43.37,164.26c10.8-5.19,21.68-6.63,33.09-3.5-2.23,.86-4.49,1.66-6.69,2.6-3.99,1.7-8.02,3.14-12.35,3.64-4.52,.53-8.78-.41-12.97-1.98-.29-.11-.53-.37-1.08-.77Z"/>
  <path class="cls-9" d="M146.78,164.63c10.21-6.12,20.98-8,32.66-5.02-10.42,6.81-21.29,7.85-32.66,5.02Z"/>
  <path class="cls-9" d="M202.15,158.5c-2.79,1.81-5.53,3.71-8.52,5.19-7.41,3.66-15.04,4.24-23.12,1.92,9.12-5.07,18.31-8.96,28.69-8.48,.38,.36,.83,.4,1.31,.31l.14,.07,.15-.02c.43,.37,1.3,.09,1.34,1.01Z"/>
  <path class="cls-2" d="M217.38,83.53c.04,1.59,.2,3.59-.84,4.05-1.08,.47-2.25-1.34-3.57-1.83-.55-.2-.44-.86-.38-1.35,.2-1.92-.78-3.39-1.92-4.59-3.48-3.68-7.63-6.38-12.23-8.3-1.17-.49-1.6-.84-.51-2.07,.98-1.11,1.59-2.6,2.29-3.95,.3-.58,.45-.79,1.15-.41,5.75,3.1,10.92,6.92,14.52,12.63,1.11,1.76,1.71,3.81,1.5,5.82Z"/>
  <path class="cls-9" d="M172.11,172.61c-2.83,.94-5.26,1.21-7.71,1.38-7.34,.51-14.2-1-20.4-5.25-.79-.54-1.48-1.25-2.26-1.82-.38-.28-.62-.75-.17-.85,1.13-.25,2.15-1.16,3.41-.72,4.89,1.72,9.95,1.94,15.03,1.63,2.15-.13,3.89,.18,5.58,1.68,1.79,1.59,3.94,2.71,6.52,3.95Z"/>
  <path class="cls-9" d="M110.57,174.32c-.63-.27-1.28-.36-1.96-.22-2.4-.2-4.77-.62-7.13-1.09-.1-.03-.21-.06-.31-.09-3.37-.95-6.72-1.89-9.66-3.99-.48-.35-.87-.8-1.38-1.11-.51-.31-.36-.64,.15-.77,1.6-.4,3.09-1.35,4.86-.05,1.85,1.36,4.18,1.46,6.39,1.44,3.03-.02,6.04-.46,8.97-1.25,1.59-.42,2.72-.33,4.09,.84,2.42,2.07,5.31,3.46,8.27,4.6,.25,.1,.53,.1,.62,.57-4.23,1.36-8.59,1.13-12.92,1.12Z"/>
  <path class="cls-9" d="M114.59,166.37c1.43-.84,2.75-.9,4.34-.1,4.59,2.33,9.5,2.2,14.42,1.54,1.76-.24,3.5-.62,5.24-1.01,.63-.14,1.13-.16,1.64,.32,2.36,2.24,5.03,3.99,8.12,5.32-8.31,3.98-28.6,.25-33.76-6.06Z"/>
  <path class="cls-2" d="M240.75,132.58c0,1.79,.1,3.58-.36,5.34-.97,3.73-3.03,6.54-6.4,8.27-.48,.25-.97,.47-1.45,.7-.7,.34-1.65,1.05-2.08,.07-.4-.91-1-2.12,.33-3.13,3.43-2.6,4.54-6.22,3.65-10.42-.3-1.4-.88-2.8-1.74-4.02-.61-.86-.72-1.61,.38-2.36,1.67-1.13,2.72-2.92,3.95-4.51,.57-.74,.88-1.31,1.65,0,1.3,2.19,1.84,4.55,2.05,7.03,.08,1,.01,2.01,.01,3.02Z"/>
  <path class="cls-2" d="M238,115.27c.07,4.27-2.26,7.31-4.94,10.11-.48,.51-.9,1.71-1.87,1.27-1.09-.5-1.45-1.85-2.28-2.71-.25-.26,.12-.57,.36-.81,3.62-3.64,3.11-6.54,1.29-10.41-.75-1.58-1.59-3.09-2.75-4.38-.46-.51-.38-1,.09-1.45,1.26-1.19,2.04-2.66,2.37-4.39,.12-.62,.38-1.29,.93-1.45,.55-.16,.87,.51,1.25,.9,2.54,2.64,3.92,5.88,4.9,9.43,.36,1.31,.59,2.55,.66,3.88Z"/>
  <path class="cls-9" d="M125.91,160.95c-3.84,2.22-7.95,3.28-12.05,4.33-4.6,1.18-9.21,2.38-14.02,2.01-1.35-.1-2.65-.4-3.87-1.03-.31-.16-.61-.29-.65-.66-.05-.44,.35-.48,.63-.61,5.38-2.48,10.71-5.15,16.59-6.14,3.74-.63,7.4,.16,11.01,1.13,.74,.2,1.63,.11,2.36,.96Z"/>
  <path class="cls-2" d="M224.38,102.35c.04-4.8-2.5-8.37-5.31-11.75-.81-.98-1.21-1.64-.83-3.03,.41-1.5,1.18-3.02,.63-4.77-.32-1.02,.41-1.42,1.45-.84,1.99,1.11,3.73,2.58,5.08,4.46,2.22,3.11,3.69,6.51,3.75,10.48,.03,1.99,.39,3.97-.27,5.95-.3,.91-.76,1.71-1.26,2.46-.34,.51-.81,1.48-1.59,.99-.74-.47-1.82-.84-1.77-2.09,.02-.61,.08-1.23,.12-1.84Z"/>
  <path class="cls-9" d="M179.44,173.51c-4.96-.65-9.32-2.76-13.3-5.83-.31-.24-.72-.38-.69-.82,.03-.58,.57-.35,.89-.47,1.61-.59,3.06-.18,4.65,.38,4.38,1.55,8.91,1.49,13.46,.92,1.18-.15,2.33-.5,3.54-.37,3.09,2.37,6.67,3.37,10.4,3.93-.28,1.19-1.5,.68-2.12,1.27-.53,.15-1.05,.29-1.58,.44-4.92,.91-9.86,1.17-14.84,.62-.13-.03-.26-.05-.4-.08Z"/>
  <path class="cls-9" d="M200.99,55.23c-.06,5.34-1.96,9.99-4.83,14.3-.41,.61-.76,.86-1.45,.56-.54-.24-1.11-.42-1.68-.55-1.66-.35-2.79-1.04-2.08-3.1,.08-.25,.08-.6-.02-.83-.96-2.14,.46-3.75,1.11-5.53,.7-1.92,.76-3.94,.64-5.93-.08-1.44,.53-1.82,1.71-1.98,1.81-.25,3.61-.58,5.41-.94,.84-.17,1.23,.04,1.2,.97-.03,1.01,0,2.01,0,3.02Z"/>
  <path class="cls-7" d="M197.22,87.04c-.09,3.54-.85,7.1-2.34,10.49-.13,.29-.33,.56-.54,.81-.8,.93-1.36,2.6-2.6,2.45-1.47-.18-2.12-2.04-3.34-2.94-.36-.26-.11-.64,.09-1.02,2.16-4.12,1.52-8.26-.11-12.34-.27-.67-.48-1.01,.34-1.4,1.56-.73,3.01-1.62,4.09-3.1,.61-.84,2.98-.04,3.53,.96,1.03,1.88,.56,3.93,.88,6.09Z"/>
  <path class="cls-7" d="M186.72,115.58c.29,3.08-.46,5.63-1.2,8.2-.36,1.24-1,1.47-1.84,.64-2.32-2.29-4.48-4.66-5.65-7.9-1.27-3.5-1.15-6.98-.52-10.53,.12-.7,.32-1.61,.92-1.77,.51-.13,.99,.68,1.45,1.15,1.44,1.48,2.86,3,4.46,4.27,2.07,1.65,2.74,3.73,2.39,5.94Z"/>
  <path class="cls-9" d="M45.26,166.57c2.58,.68,4.92,1.4,7.39,1.51,3.37,.16,6.69-.05,9.93-.99,1.01-.29,1.69-.14,2.39,.7,1.78,2.13,4.13,3.43,6.6,4.49,.44,.19,.87,.34,1.22,.71-9.65,4.21-21.71,1.01-27.54-6.42Z"/>
  <path class="cls-9" d="M94.53,173.04c-4.8,1.44-9.62,1.62-14.49,.38-.62-.16-1.28-.13-1.92-.18-3.02-1.08-6.23-1.58-9-3.44-.94-.63-1.78-1.36-2.65-2.07-.37-.3-.94-.83-.58-1.4,.39-.63,1.04-.64,1.72-.31,1.6,.78,3.23,1.48,4.94,1.96,4.76,1.33,9.52,.98,14.27-.02,.87-.18,1.45-.04,2.17,.55,1.72,1.39,3.63,2.52,5.63,3.45,.29,.13,.9,.05,.72,.64-.07,.21-.53,.29-.81,.44Z"/>
  <path class="cls-1" d="M213.55,154.99c.41-.06,.82-.13,1.22-.19,1.08,1.25-.32,2.47-.04,3.71-1.25,2.73-3.01,4.95-5.78,6.15-1.03,.33-2.04,.71-3.08,.98-3.83,1.01-7.61,.57-11.34-.58,.04-.18,.07-.37,.11-.55,.11-.1,.23-.19,.34-.29,.23-.08,.45-.16,.68-.25,0,0,.1,.01,.1,.01l.02-.1c.16-.13,.32-.26,.49-.39,.4,.05,.7-.11,.88-.49,0,0,.09-.06,.09-.06,.37-.15,.74-.3,1.1-.45,.32-.02,.73,.13,.81-.41,.13-.1,.25-.2,.38-.3,.46-.07,1.24,.35,1.07-.72,0,0,.1-.1,.1-.1,.51,.19,.99,.34,1-.51,.11-.11,.21-.22,.31-.33,1.16,.05,1.89-1.11,3.05-1.16,.31-.01,.23-.54,.17-.86,.2-.18,.37-.4,.6-.53,2.42-1.34,5.07-1.96,7.71-2.58Z"/>
  <path class="cls-1" d="M226.82,165.78c-1.28,2.01-3.45,2.48-5.43,3.07-6.84,2.02-13.82,2.57-20.89,1.78-.42-.04-.85-.08-1.27-.12-2.51-.75-5.03-1.45-7.5-2.29-.76-.26-2.02-.33-1.68-1.81,0,0,.1-.03,.1-.03,.1-.04,.2-.08,.3-.12,.22-.05,.44-.11,.66-.16,.1-.07,.2-.13,.29-.2,0,0,.02,0,.02,0,.96-.29,1.84-.17,2.82,.16,4.92,1.65,9.84,1.71,14.72-.26,.35,.03,.71,.05,1.06,.08,3.57,1.61,7.27,1.12,10.97,.72,.53-.07,1.06-.14,1.6-.21,.92-.14,1.9,.11,2.77-.42,.49-.06,.98-.12,1.47-.17Z"/>
  <path class="cls-6" d="M172.26,50.47c1.38-.41,2.76-.82,4.28-1.27-.11,.71-.54,1.13,.23,1.65,.87,.59,.5,1.85,.45,2.79-.04,.81-.96,.52-1.48,.63-2.06,.44-4.15,.73-6.2,1.21-.6,.14-1.49,.2-1.62,1.15-.12,.93,.65,1.15,1.22,1.56,.69,.5,1.34,1.07,2.21,1.78-5,1.43-9.8,1.79-14.61,.19-1.62-.54-1.59-2.22,.11-3.53,2.85-2.19,5.99-3.78,9.48-4.57,.25-.06,.49-.2,.74-.31,0,.23,0,.46,0,.69-.28,.15-.54,.34-.84,.44-2.45,.79-4.73,1.92-6.8,3.52-.62,.48-.99,1.04-.82,1.81,.18,.76,.9,.89,1.52,1.03,.68,.15,1.38,.19,2.07,.28,.58,.07,1.17,.18,1.75,.2,.3,.01,.74-.02,.79-.41,.06-.44-.36-.5-.68-.49-.64,.01-1.27-.34-1.91-.03-.26-.07-.52-.12-.77-.21-.57-.2-1.45,.17-1.66-.66-.2-.82,.65-1.09,1.15-1.42,3.15-2.15,6.69-3.36,10.31-4.33,.62-.17,1.39-.08,1.42-1.07-.11-.21-.23-.43-.34-.64Z"/>
  <path class="cls-9" d="M158.57,61.93c2.62,.07,4.93,.35,7.25,.08,1.17-.14,1.48,1.08,1.89,1.76,1.57,2.57,3.48,4.82,5.59,6.89,.59,.58,.77,1.18,.36,1.74-.97,1.36-.99,2.92-.97,4.46,.01,1.44-.54,1.21-1.31,.63-1.93-1.45-3.68-3.09-5.32-4.88-2.89-3.15-5.16-6.76-7.51-10.69Z"/>
  <path class="cls-7" d="M181.83,149.39c.4-2.89,1.17-5.66,2.26-8.58,1.59,1.58,2.64,3.29,3.62,5,.48,.83,1.13,1.59,1.33,2.62,.51,2.52-.37,4.5-1.99,6.29-.95,1.05-1.85,2.14-3.18,2.73-1.54,.69-2.72-.03-2.83-1.8-.05-.72-.01-1.45-.01-2.18,1.19-1.04,.33-2.49,.67-3.7,0,0,0,0,0,0,.04-.12,.09-.25,.13-.37Z"/>
  <path class="cls-7" d="M187.91,118.19c0-1.49,0-2.5,0-3.51,0-.32-.12-.7,.22-.91,.35-.21,.61,.02,.84,.27,2.08,2.25,4.7,4.22,5.29,7.43,.32,1.72-.23,3.68-1.13,5.34-.02,.04-.11,.05-.13,.09-.67,1.08-.96,2.96-2.19,2.93-1.03-.02-2.05-1.4-3.07-2.19-.68-.52-1.65-.91-1.97-1.61-.34-.75,.73-1.32,1.12-2,1.17-2.03,.9-4.2,1.01-5.86Z"/>
  <path class="cls-3" d="M198.65,43.85c3.3-.5,6.45-1.62,9.67-2.45,6.52-1.69,13.01-3.49,19.5-5.28,6.39-1.77,12.77-3.59,19.16-5.37,4.57-1.27,9.15-2.52,13.74-3.74,.39-.1,1.17-.6,1.07,.54-10.27,2.88-20.53,5.8-30.82,8.63-7.8,2.14-15.64,4.17-23.46,6.24-5.91,1.57-11.82,3.13-17.73,4.69-.22-.21-.44-.41-.66-.62,.68-.14,1.37-.23,2.02-.44,2.47-.82,5.09-1.11,7.5-2.19Z"/>
  <path class="cls-7" d="M171.19,125.07c-.48-3.42,1.14-6.77,3.18-9.94,.23-.36,.69-1.5,1.43-.86,.56,.48,.63,1.62,.1,2.16-3.22,3.27-2.66,6.91-1.17,10.69,.1,.26,.09,.53-.13,.77-.84,.86-1.14,1.99-1.39,3.12-.11,.49-.34,.94-.77,.91-.38-.02-.65-.43-.79-.93-.48-1.75-.43-3.54-.46-5.92Z"/>
  <path class="cls-9" d="M135.16,157.92c-4.87,3.1-9.82,2.03-14.68,0,2.72-2.03,11.98-2.04,14.68,0Z"/>
  <path class="cls-5" d="M169.73,157.02c-1.13,.09-2.25,.16-3.37,.28-.81,.08-1.16-.19-.82-1.04,1.03-2.64,2.87-4.45,5.39-5.52,.68-.29,1.14,.03,1.19,.84,.09,1.62,.22,3.23,.76,4.77,.23,.65-.03,.89-.72,.83-.8-.08-1.61-.02-2.42-.02,0-.05,0-.1,0-.15Z"/>
  <path class="cls-7" d="M173.35,96.94c.39,.01,.43,.24,.49,.46,.36,1.32,1.3,2.23,2.05,3.29,.7,1.01,1.61,1.9,.67,3.46-.55,.91-.44,2.26-.62,3.41-.13,.79-.39,.97-1.03,.36-1.24-1.19-1.64-2.86-2.1-4.38-.54-1.79-.33-3.76-.06-5.64,.06-.42,.14-.9,.6-.95Z"/>
  <path class="cls-9" d="M159.91,157.8c-2.68,.93-5.26,2.14-8.19,.81-1.54-.7-3.31-.83-4.97-1.38,4.43-1.26,8.81-1.14,13.16,.57Z"/>
  <path class="cls-7" d="M197.64,101.46c.18,1.21-.16,2.51-.52,3.79-.22,.77-.64,1.01-1.26,.36-.97-1.01-1.93-2.03-2.9-3.04-.45-.47-.16-.65,.21-1.01,1.16-1.12,2.41-2.17,3-3.78,.09-.26,.26-.5,.58-.48,.34,.02,.37,.32,.47,.57,.43,1.11,.46,2.28,.41,3.59Z"/>
  <path class="cls-7" d="M196.37,132.82c-.2,.86,.37,2.42-.6,2.78-1.03,.39-1.2-1.3-1.79-2-2.24-2.69-2.16-2.75-.09-5.67,.37-.53,.67-.5,1.16-.05,.96,.88,1.35,2.09,1.31,4.95Z"/>
  <path class="cls-5" d="M188.91,157.01c-1.24,.06-1.51-.45-.97-1.42,.18-.33,.48-.59,.74-.87,.63-.69,.8-2.24,1.85-2.02,1.32,.28,2.41,1.31,3.37,2.4,.58,.67,.32,1.07-.32,1.12-1.62,.12-3.19,.52-4.66,.79Z"/>
  <path class="cls-14" d="M213.55,154.99c-2.65,.62-5.29,1.24-7.71,2.58-.22,.12-.4,.35-.59,.53-.25,.04-.5,.09-.75,.14-.3-.19-.39-.51-.44-.84,.5-.67,1.53-.57,1.92-1.46-1.8-.57-3.61-.51-5.42-.28-.38,.05-.94-.02-.9,.68-.44,.06-1.05,.39-1.22-.23-.15-.53,.54-.51,.85-.76,.14-.11,.17-.37,.26-.56,2.62-.53,5.22-.37,7.81,.29,1.56,.39,3.35-.43,3.86-1.7,.22,.55-.36,1.42,.51,1.68,.66,.19,1.11-.17,1.14-.94,.22-.01,.43-.03,.65-.04,.02,.3,.04,.6,.06,.91Z"/>
  <path class="cls-14" d="M208.96,165.78c-4.87,1.98-9.8,1.92-14.72,.26-.98-.33-1.86-.46-2.82-.16,.8-1.28,2.16-.23,3.13-.82,3.74,1.15,7.51,1.59,11.34,.58,1.04-.27,2.05-.65,3.08-.98,0,.37,0,.75,0,1.12Z"/>
  <path class="cls-9" d="M72.16,158.22c4.09-.99,7.92-1.1,12.03-.08-4.1,2.49-7.93,1.57-12.03,.08Z"/>
  <path class="cls-9" d="M98.88,158.07c3.63-.91,7.12-1.32,10.63,.09-3.51,2.24-7,2.12-10.63-.09Z"/>
  <path class="cls-2" d="M214.77,115.55c.07-.55,.11-1.11,.21-1.65,.06-.32,.2-.73,.58-.7,1.4,.08,1.79,1.59,2.83,2.22,.64,.39,.26,1.01-.08,1.44-.68,.87-1.25,1.78-1.38,2.93-.02,.18-.22,.41-.39,.48-.23,.1-.39-.1-.45-.34-.35-1.48-1.63-2.67-1.33-4.38Z"/>
  <path class="cls-2" d="M207.54,99.93c-.16-.27-.39-.51-.48-.8-.23-.74-.63-1.69-.12-2.22,.6-.62,1.39,.08,1.97,.49,.68,.49,1.84,.4,2.04,1.38,.25,1.26-.69,2.37-.75,3.66-.02,.48-.7,.13-.98-.16-.52-.54-1-1.13-1.5-1.7-.06-.22-.12-.43-.19-.65Z"/>
  <path class="cls-2" d="M223.76,136.9c-1.09,.93-2.33,1.48-3.18,2.58-.31,.4-.82,.51-.84-.24-.04-1.63-.33-3.26,.64-4.83,.64-1.04,.88-.83,1.43-.04,.58,.84,1.24,1.63,1.95,2.53Z"/>
  <path class="cls-14" d="M190.05,166.41c-.34,1.48,.92,1.55,1.68,1.81,2.48,.85,5,1.54,7.5,2.29-.04,.56-.31,.83-.86,.74-3.73-.56-7.3-1.56-10.4-3.93,.9,.19,1.09-1.32,2.08-.92Z"/>
  <path class="cls-7" d="M191.56,79.23c-.06,.93-.79,1.24-1.34,1.61-.9,.61-1.87,2.12-2.97,.81-.91-1.08,.8-1.6,1.18-2.46,.36-.81,1.08-1.2,1.99-.69,.4,.23,.98,.16,1.13,.72Z"/>
  <path class="cls-2" d="M213.49,154.08c-.22,.01-.43,.03-.65,.04-.47-1.4,1.07-4.04,2.48-4.24,.21-.03,.53-.06,.52,.21-.02,1.05,.01,2.13-.22,3.13-.15,.65-.97,.53-1.53,.66-.21,.05-.41,.13-.61,.2Z"/>
  <path class="cls-9" d="M48.9,158.76c3.25-1.01,6.17-.7,9.08-.39-2.88,.41-5.68,2.11-9.08,.39Z"/>
  <path class="cls-1" d="M199.65,156.34c-.04-.7,.52-.63,.9-.68,1.81-.24,3.62-.29,5.42,.28-.39,.89-1.42,.79-1.92,1.46-.4-.02-.8-.04-1.2-.06-.35-.76-1.04-.74-1.7-.8-.22-.04-.43-.08-.65-.11-.28-.02-.56-.05-.84-.07h-.01Z"/>
  <path class="cls-6" d="M198.65,43.85c-2.4,1.07-5.02,1.37-7.5,2.19-.65,.22-1.35,.3-2.02,.44-.22-.99,.65-.86,1.06-.97,2.68-.72,5.38-1.35,8.07-2.01,.13,.12,.26,.24,.38,.35Z"/>
  <path class="cls-7" d="M198.27,89.53c0-.38-.02-.6,0-.82,.05-.45-.21-1.11,.49-1.2,.65-.08,.67,.57,.83,1.02,.09,.26,.25,.5,.3,.76,.11,.6,1.31,.78,.67,1.59-.43,.54-1.21,.51-1.8,.33-.98-.3-.37-1.22-.49-1.69Z"/>
  <path class="cls-7" d="M184,76.15c1.37,.53,2.31,.89,3.23,1.26,.38,.15,.46,.58,.29,.83-.32,.49-.73,.93-1.18,1.3-.22,.18-.56-.05-.63-.34-.23-1.01-1.08-1.64-1.72-3.05Z"/>
  <path class="cls-14" d="M220.98,166.58c-3.69,.4-7.39,.89-10.97-.72,3.67,.05,7.27,1.13,10.97,.72Z"/>
  <path class="cls-6" d="M172.26,50.47c.11,.21,.23,.43,.34,.64-1.93,.09-3.61,1.27-5.54,1.34,0-.23,0-.46,0-.69,0-.07,.02-.14,.04-.21,.21-.03,.42-.07,.62-.1,1.54-.17,2.94-1.07,4.54-.98Z"/>
  <path class="cls-2" d="M214.74,158.51c-.28-1.24,1.12-2.46,.04-3.71,.48-.27,.94-.37,1.1,.33,.2,.87,.57,1.79-.16,2.59-.28,.31-.65,.53-.98,.78Z"/>
  <path class="cls-13" d="M197.65,117.83c.11-1.49-.43-3.04,.41-4.46,.67,1.17,.48,3.29-.41,4.46Z"/>
  <path class="cls-8" d="M181.99,158.88c-1.46,.63-2.32-.14-3.38-.52,1.41-1.82,2.16-.07,3.38,.52Z"/>
  <path class="cls-1" d="M204.5,158.23c.25-.05,.5-.09,.75-.14,.06,.32,.14,.85-.17,.86-1.15,.05-1.89,1.21-3.05,1.16,.61-.93,1.81-1.03,2.47-1.89Z"/>
  <path class="cls-3" d="M181.7,149.76c-.33,1.21,.52,2.65-.67,3.7,0-.93,0-1.86,0-2.79,0-.47,.08-.88,.66-.91Z"/>
  <path class="cls-14" d="M201.15,156.54c.66,.06,1.35,.04,1.7,.8-.13,.45,.05,1.11-.7,1.17-.04-.92-.92-.64-1.34-1.01,1.24,.11,.37-.58,.34-.96Z"/>
  <path class="cls-14" d="M199.66,156.35c.28,.02,.56,.05,.84,.07,0,.34,0,.68,.01,1.02-.48,.09-.93,.06-1.31-.31,.15-.26,.3-.52,.45-.78Z"/>
  <path class="cls-14" d="M206.35,100.29c-.83-.3-.68-1.02-.67-1.68,1.06,.2,.54,1.08,.67,1.68Z"/>
  <path class="cls-14" d="M225.35,165.96c-.87,.52-1.85,.27-2.77,.42,.82-.87,1.84-.35,2.77-.42Z"/>
  <path class="cls-10" d="M200.62,161.06c.16,1.07-.61,.65-1.07,.72,.15-.57,.66-.57,1.07-.72Z"/>
  <path class="cls-10" d="M201.71,160.45c0,.85-.49,.7-1,.51,.2-.45,.55-.58,1-.51Z"/>
  <path class="cls-14" d="M160.6,49.05c-.42-.15-.77-.37-.62-.93,.6,.03,.61,.48,.62,.93Z"/>
  <path class="cls-14" d="M188.81,38c-.3,.22-.63,.24-.98,.18,.24-.59,.57-.63,.98-.18Z"/>
  <path class="cls-10" d="M199.17,162.08c-.08,.54-.48,.39-.81,.41-.01-.08,0-.16,.02-.23,.26-.06,.53-.12,.79-.18Z"/>
  <path class="cls-14" d="M198.38,162.26c-.03,.08-.03,.15-.02,.23-.37,.15-.73,.3-1.1,.45,.19-.56,.57-.76,1.12-.69Z"/>
  <path class="cls-14" d="M194.67,172.97c.53-.15,1.05-.29,1.58-.44-.38,.73-1.04,.35-1.58,.44Z"/>
  <path class="cls-14" d="M215.15,165.88c.31,0,.63,.01,.94,.02-.32,.27-.64,.65-.94-.02Z"/>
  <path class="cls-2" d="M207.54,99.93c.06,.22,.12,.43,.19,.65-.24-.02-.54,.04-.59-.31-.03-.24,.2-.31,.4-.34Z"/>
  <path class="cls-14" d="M197.16,163c-.19,.38-.48,.53-.88,.49,.1-.55,.44-.61,.88-.49Z"/>
  <path class="cls-14" d="M194.98,38.73c-.26-.11-.52-.21-.78-.32,.32-.06,.61-.03,.78,.32Z"/>
  <path class="cls-14" d="M194.99,164.22c-.11,.1-.23,.19-.34,.29,.07-.15-.09-.6,.34-.29Z"/>
  <path class="cls-14" d="M179.44,173.51c.13,.03,.26,.05,.4,.08-.13-.03-.26-.05-.4-.08Z"/>
  <path class="cls-3" d="M181.83,149.39c-.04,.12-.09,.25-.13,.37,.04-.12,.09-.25,.13-.37Z"/>
  <path class="cls-3" d="M101.17,172.92c.1,.03,.21,.06,.31,.09-.16,.18-.25,.1-.31-.09Z"/>
  <path class="cls-14" d="M191.4,165.89c-.1,.07-.2,.13-.29,.2,.1-.07,.2-.13,.29-.2Z"/>
  <path class="cls-14" d="M190.44,166.26c-.1,.04-.2,.08-.3,.12,.03-.23,.08-.42,.3-.12Z"/>
  <path class="cls-14" d="M205.65,97.09c-.17-.21-.14-.41,.02-.62,0,.21-.01,.41-.02,.62Z"/>
  <path class="cls-14" d="M205.68,98.61c-.15-.16-.15-.32-.03-.5,.01,.17,.02,.33,.03,.5Z"/>
  <polygon class="cls-14" points="195.79 163.88 195.77 163.99 195.67 163.97 195.79 163.88"/>
  <path class="cls-11" d="M200.51,157.44c0-.34,0-.68-.01-1.02,.22,.04,.43,.08,.65,.11,.03,.37,.9,1.07-.34,.96l-.15,.02-.14-.07Z"/>
  <path class="cls-3" d="M167.05,52.46c1.93-.07,3.62-1.25,5.54-1.34-.03,.99-.8,.9-1.42,1.07-3.62,.97-7.15,2.19-10.31,4.33-.49,.34-1.35,.6-1.15,1.42,.2,.82,1.09,.46,1.66,.66,.25,.09,.51,.14,.77,.21,.01,.25,.03,.49,.04,.74-.69-.09-1.39-.13-2.07-.28-.62-.13-1.35-.27-1.52-1.03-.18-.77,.2-1.33,.82-1.81,2.07-1.6,4.35-2.73,6.8-3.52,.29-.1,.56-.29,.84-.44Z"/>
  <path class="cls-13" d="M162.2,59.54c-.01-.25-.03-.49-.04-.74,.64-.31,1.27,.05,1.91,.03,.32,0,.73,.05,.68,.49-.05,.39-.49,.43-.79,.41-.59-.02-1.17-.13-1.75-.2Z"/>
</svg>