<svg width="56" height="56" viewBox="0 0 56 56" fill="none" xmlns="http://www.w3.org/2000/svg">
<rect width="56" height="56" fill="#F2C0BC"/>
<g clip-path="url(#clip0_75_18)">
<path d="M28.5 40C26.2255 40 24.0021 39.3255 22.1109 38.0619C20.2198 36.7983 18.7458 35.0022 17.8754 32.9009C17.005 30.7995 16.7772 28.4872 17.221 26.2565C17.6647 24.0257 18.76 21.9766 20.3683 20.3683C21.9766 18.76 24.0257 17.6647 26.2565 17.221C28.4872 16.7772 30.7995 17.005 32.9009 17.8754C35.0022 18.7458 36.7983 20.2198 38.0619 22.1109C39.3255 24.0021 40 26.2255 40 28.5C39.9967 31.549 38.784 34.4721 36.6281 36.6281C34.4721 38.784 31.549 39.9967 28.5 40ZM28.5 18.9167C26.6046 18.9167 24.7518 19.4787 23.1758 20.5318C21.5998 21.5848 20.3715 23.0815 19.6462 24.8326C18.9208 26.5837 18.731 28.5106 19.1008 30.3696C19.4706 32.2286 20.3833 33.9362 21.7236 35.2764C23.0638 36.6167 24.7714 37.5294 26.6304 37.8992C28.4894 38.269 30.4163 38.0792 32.1674 37.3539C33.9185 36.6285 35.4152 35.4002 36.4683 33.8242C37.5213 32.2482 38.0833 30.3954 38.0833 28.5C38.0805 25.9592 37.07 23.5233 35.2734 21.7266C33.4767 19.93 31.0408 18.9195 28.5 18.9167Z" fill="#D62D20"/>
<path d="M30.4167 35.2083H28.5V28.5H26.5833V26.5833H28.5C29.0083 26.5833 29.4959 26.7853 29.8553 27.1447C30.2147 27.5042 30.4167 27.9917 30.4167 28.5V35.2083Z" fill="#D62D20"/>
<path d="M28.5 24.6667C29.2939 24.6667 29.9375 24.0231 29.9375 23.2292C29.9375 22.4353 29.2939 21.7917 28.5 21.7917C27.7061 21.7917 27.0625 22.4353 27.0625 23.2292C27.0625 24.0231 27.7061 24.6667 28.5 24.6667Z" fill="#D62D20"/>
</g>
<defs>
<clipPath id="clip0_75_18">
<rect width="23" height="23" fill="white" transform="translate(17 17)"/>
</clipPath>
</defs>
</svg>
