<?xml version="1.0" encoding="utf-8"?>
<!-- Generator: Adobe Illustrator 28.1.0, SVG Export Plug-In . SVG Version: 6.00 Build 0)  -->
<svg version="1.1" id="Layer_1" xmlns="http://www.w3.org/2000/svg" xmlns:xlink="http://www.w3.org/1999/xlink" x="0px" y="0px"
	 viewBox="0 0 24 24" style="enable-background:new 0 0 24 24;" xml:space="preserve">
<style type="text/css">
	.st0{fill:#868686;}
</style>
<g>
	<path class="st0" d="M19.9,5.6l-6-3.5c-1-0.6-2.5-0.6-3.5,0l-6,3.5c-1,0.6-1.8,1.9-1.8,3.1v6.9c0,1.1,0.8,2.5,1.8,3.1l6,3.5
		c0.5,0.3,1.1,0.4,1.8,0.4c0.6,0,1.3-0.1,1.8-0.4l6-3.5c1-0.6,1.8-1.9,1.8-3.1V8.7C21.7,7.5,20.9,6.2,19.9,5.6z M20.3,15.6
		c0,0.7-0.5,1.6-1.1,1.9l-6,3.5c-0.6,0.3-1.6,0.3-2.2,0l-6-3.5c-0.6-0.3-1.1-1.3-1.1-1.9V8.7c0-0.7,0.5-1.6,1.1-1.9l6-3.5
		C11.2,3.1,11.6,3,12.1,3c0.4,0,0.8,0.1,1.1,0.3l6,3.5c0.6,0.3,1.1,1.3,1.1,1.9V15.6z"/>
	<path class="st0" d="M14.1,12.9l-3.5-2c-0.2-0.1-0.5-0.1-0.7,0.1L6,14.8l0.8,0.8l3.5-3.5l3.5,2c0.2,0.1,0.5,0.1,0.7-0.1l3.9-3.9
		l-0.8-0.9L14.1,12.9z"/>
</g>
</svg>
