<?xml version="1.0" encoding="utf-8"?>
<!-- Generator: Adobe Illustrator 28.1.0, SVG Export Plug-In . SVG Version: 6.00 Build 0)  -->
<svg version="1.1" id="Layer_1" xmlns="http://www.w3.org/2000/svg" xmlns:xlink="http://www.w3.org/1999/xlink" x="0px" y="0px"
	 viewBox="0 0 24 24" style="enable-background:new 0 0 24 24;" xml:space="preserve">
<style type="text/css">
	.st0{fill:#B6B6B6;}
</style>
<path class="st0" d="M12.1,22.6c-0.6,0-1.3-0.1-1.8-0.4l-6-3.5c-1-0.6-1.8-1.9-1.8-3.1V8.7c0-1.1,0.8-2.5,1.8-3.1l6-3.5
	c1-0.6,2.5-0.6,3.5,0l6,3.5c1,0.6,1.8,1.9,1.8,3.1v6.9c0,1.1-0.8,2.5-1.8,3.1l-6,3.5C13.3,22.4,12.7,22.6,12.1,22.6z M12.1,3
	c-0.4,0-0.8,0.1-1.1,0.3l-6,3.5C4.3,7.1,3.8,8,3.8,8.7v6.9c0,0.7,0.5,1.6,1.1,1.9l6,3.5c0.6,0.3,1.6,0.3,2.2,0l6-3.5
	c0.6-0.3,1.1-1.3,1.1-1.9V8.7c0-0.7-0.5-1.6-1.1-1.9l0,0l-6-3.5C12.9,3.1,12.5,3,12.1,3z"/>
<path class="st0" d="M6.9,15.7L6,14.8L9.9,11c0.2-0.2,0.5-0.2,0.7-0.1l3.5,2l3.6-3.5l0.8,0.9l-3.9,3.9c-0.2,0.2-0.5,0.2-0.7,0.1
	l-3.5-2L6.9,15.7z"/>
</svg>
