<?xml version="1.0" encoding="UTF-8"?>
<svg id="Layer_1" data-name="Layer 1" xmlns="http://www.w3.org/2000/svg" viewBox="0 0 414 200">
  <defs>
    <style>
      .cls-1 {
        fill: #f7b7d3;
      }

      .cls-2 {
        fill: #00bff3;
      }

      .cls-3 {
        fill: #eae7de;
      }

      .cls-4 {
        fill: #fff9b8;
      }

      .cls-5 {
        fill: #fff000;
      }

      .cls-6 {
        fill: #fbb040;
      }

      .cls-7 {
        fill: #6c675d;
      }

      .cls-8 {
        fill: #9ed2f1;
      }

      .cls-9 {
        fill: #b5ccb9;
      }

      .cls-10 {
        fill: #737272;
      }

      .cls-11 {
        fill: #baac98;
      }

      .cls-12 {
        fill: #aabad3;
      }

      .cls-13 {
        fill: #443d34;
      }

      .cls-14 {
        fill: #534f4e;
      }

      .cls-15 {
        fill: #4b4642;
      }

      .cls-16 {
        fill: #231f20;
        font-family: MyriadPro-Regular, 'Myriad Pro';
        font-size: 12px;
      }
    </style>
  </defs>
  <path class="cls-15" d="M228.77,176.11c-2.48-.85-4.89,.1-7.28,.44-5.44,.76-10.75,.25-16.03-1.02-.8-.19-1.47-.31-2.4-.05-9.54,2.7-19.11,4.32-28.93,1.11-2.76-.9-5.45,1.03-8.29,1.23-4.81,.35-9.44,0-13.94-1.69-1.13-.43-2.18-.4-3.32-.17-6.76,1.38-13.51,1.65-20.21-.33-2.73-.81-5.2,.62-7.78,.95-5.78,.74-11.47,.87-17.17-.5-.99-.24-2.05-.23-3.08-.33-.37-.56-.43-1.35-1.19-1.62-2.28-.62-4.09-2.02-5.39-3.89-1.1-1.57-2.22-1.57-3.84-1.05-3.61,1.15-7.29,1.96-11.12,1.43,.19-.34,.37-.67,.56-1.01,1.69-.14,3.39-.19,5.07-.43,7.39-1.06,13.83-4.69,20.48-7.74,.44-.2,1.24-.34,1.1-1.07-.15-.72-.92-.89-1.51-1.12-5.29-2.1-10.61-2.28-16.02-.33-5.6,2.02-10.39,5.68-15.95,7.78-.18-.32-.36-.64-.54-.96,2.67-2.04,6.29-2.46,8.83-5.14-2.34-1.23-4.55-2.17-7.1-1.92,0,0,0-.07,0-.07-.5-.5-1.12-.44-1.74-.38-.84-1.35,.58-1.4,1.12-1.96,.19-.13,.38-.25,.57-.38,.18-.08,.36-.15,.54-.23,.19-.11,.39-.22,.58-.33,.57-.11,1.14-.23,1.71-.34,.18-.08,.36-.15,.54-.23,4.4-.91,8.61-.23,12.8,1.26,3.16,1.12,6.39,.45,9.41-.62,5.23-1.86,9.94-1.33,14.95,1.26,3.19,1.65,7.17,.96,10.55-.61,4.05-1.87,7.99-3.87,12.64-3.39,2.34,.24,4.32,1.19,6.06,2.79,2.96,2.7,4.25,2.46,6.39-.75,.76-1.15,1.71-2.36,2.88-3.02,2.2-1.23,2.15-2.88,1.83-5.01-1.32-8.86-1.42-17.79-.9-26.71,.13-2.21-.27-3.89-2.21-5.03-3.59-2.11-5.46-5.86-8.26-8.73,.12-1.58,1.21-.8,1.97-.81,1.51,3.93,4.73,6.39,7.72,9.04,.36,.32,.98,.64,1.14,.07,.59-2.17,1.21-4.36,1.43-6.58,.14-1.46-1.28-2.37-2.24-3.36,.27-.22,.54-.43,.81-.65,2.42,3.08,4.25,.77,6.24-.63,.42-.3,1.07-.26,1.59-.46,.59-.23,1.26-.47,1.07-1.35l1.64-.57c1.83,4.29,3.65,8.58,5.51,12.86,.27,.62,.24,1.71,1.25,1.58,.82-.11,.92-1.06,1.23-1.74,.68-1.49-.08-3.47,1.55-4.63,.24,.8-.21,1.79,.64,2.43,.15,2-.63,3.54-2.11,4.9-1.68,1.55-.5,3.25,.39,4.57,.81,1.2,1.7,.04,2.22-.63,4.29-5.64,6.75-11.96,6.85-19.12,.46-.77-.11-2.54,1.25-2.25,1.11,.24,.3,1.73,.26,2.66-.02,.63-.24,1.26-.37,1.89-.75,.73-.5,1.61-.39,2.48,.12,2.42-1.87,4.83-.04,7.35,.36-.5,.68-.93,1-1.36-.21,1.37,1.96,1.05,1.72,2.45-.85-.47-1.52-.68-1.79,.66-.25,1.29-.71,2.54-1.07,3.8-.39-.19-.79-.39-1.18-.58-.15-1.26,.24-2.59-.37-4.07-2.33,2.9-3.7,6.16-6.36,8.43-.49,.42-.44,.95-.22,1.56,.82,2.22,1.6,4.45,2.35,6.69,.7,2.06,1.06,.15,1.57-.11,.96,.02,1.91,.04,2.87,.05-.02,.39-.04,.79-.05,1.18-.33,0-.66-.02-.98-.03-3.67,.73-1.61,3.25-1.59,5.14-.32,.03-.65,.07-.97,.1-1.68-5.91-4.63-11.34-6.57-17.15-1.94-5.78-5.31-10.91-7.09-16.94-4.59,4.8-5.06,9.27-2.06,14.6,1.1,1.96,1.78,4.17,2.64,6.26-.35,.03-.7,.07-1.04,.1-3.7-5.51-6.05-11.31-3.91-18.09,.03-.21,.07-.42,.1-.63-.16,.09-.32,.19-.48,.28-1.71,1.19-1.82,3.22-2.55,4.92-2.08,4.82-1.88,9.94-1.98,15.01-.18,9.64,.04,19.23,3.37,28.48,.95,2.62,2.11,4.41,5.24,3.56,.25,.23,.5,.46,.74,.69-1.05,1.18-3.21,.16-4.06,2.11,2.35,.2,4.13-1.2,6.16-1.63,.46,.7,1.22,.49,1.87,.64-6.22,2.05-12.33,4.4-18.19,7.39,3.8,3.59,8.43,3.91,13.16,3.39,8.44-.92,15.93-4.62,23.44-8.26-.39-1.17-1.48-.94-2.11-1.46,.8-.01,1.59-.03,2.39-.04,.82,.49,1.67,.61,2.58,.28,.06,.32,.12,.64,.18,.97-4.13,2.65-8.71,4.35-13.18,6.39,.6,1.22,1.64,1.7,2.65,2.19,5.15,2.5,10.19,1.94,15.25-.4,4.82-2.23,8.95-5.52,13.41-8.31,.01,.42,.03,.83,.04,1.25-1.75,1.38-3.5,2.76-5.45,4.31,4.32,2.95,8.73,3.88,13.59,2.91,6.54-1.3,11.03-5.92,16.26-9.86-1.27-.59-2.34-1.09-3.42-1.59,.19-.28,.38-.55,.57-.83,4.2,2.35,6.99-.47,10.79-2.67-4.32-.63-7.52,.57-10.78,1.39-.55-.71-1.3-1.02-2.16-1.11,4.26-10.39,2.77-20.65-1.28-30.59-2.64-6.47-6.12-12.61-9.23-18.89-1.82-3.68-3.67-7.35-5.5-11.02,.53-.74,.62-1.62,.72-2.49,2.13,4.57,4.22,9.17,6.42,13.71,.44,.9,.31,2.58,1.86,2.42,1.59-.16,1.7-1.83,2.19-2.99,.24-.57,.12-1.3,.17-1.96,.34-4.27-.59-8.43-1.11-12.62,.38,0,.77,0,1.15,0,.5,3.27,1.2,6.52,1.43,9.81,.23,3.21,.13,6.5-2.58,8.91-.64,.57-.53,1.08-.19,1.74,.68,1.33,1.28,2.69,2,4.23,1.27-1.24,2.64-1.91,3.47-3.22,4.6-7.22,6.67-15.08,5.73-23.62-.41-3.73-.55-3.71-4.35-2.82-.25-1.87,1.42-1.57,2.3-1.82,1.97-.55,4.03-.77,6.05-1.11,.88-.15,1.74-.28,1.3-1.53,.03-.64,.07-1.29,.1-1.93,2.92,6.43,8.03,10.26,14.64,12.21,1.69,.5,3.86,2.4,5.02,.95,1.2-1.5-.32-3.87-1.5-5.4-2.28-2.95-4.66-5.85-7.56-8.25-1.24-1.02-2.52-1.97-2.64-3.76,.79,.3,1.41,.74,2.03,1.38,2.37,2.4,4.75,4.39,8.71,3.34,4.07-1.09,8.35-1.41,12.53-2.07,0,.34,0,.68,.01,1.02-.17,.09-.33,.17-.5,.27-1.61,.93-4.89-.56-4.97,1.77-.09,2.53,.28,5.34,3.58,7.23,5.92,3.38,9.16,9.09,9.71,16.04,.15,1.88,.77,3.24,1.99,4.71,4.97,6,7.27,12.98,6.07,20.75-.63,4.09-.08,8.14-.42,12.19-.51,5.97-2.88,11.11-8.02,14.4-2.62,1.68-3.47,4.54-5.54,6.57-5.9,5.83-12.57,9.84-21.04,10.15-3,.11-5.23,2.43-8.15,2.68-.56-.3-1.12-.61-1.68-.91,1.77-.92,4.04-.65,5.77-2.35-1.49-.79-2.99-1.27-4.06-2.23-1.4-1.26-2.62-1.69-4.49-1.07-3.85,1.27-7.82,1.33-11.71,.13-2.73-.84-4.85,.38-7.26,1.62,2.85,1.78,5.78,2.75,8.72,3.72,.8,1.11,1.94,.53,2.95,.58l.22-.04,.2,.1c-.3,.77-1.2,.41-1.65,.88Zm4.53-62.44c.37,0,.74,0,1.11,0,.42,4.88-.47,9.7-3.03,13.67-1.6,2.48-2.03,4.41-1.18,6.96,.35,1.06,.6,2.16,.89,3.22,.87,3.12,.84,6.38,.04,9.55-.65,2.59-1.5,5.12-2.37,8.08,4.27-1.12,8.12-2.1,12.12-1.36,1.02,.19,1.79-.52,2.2-1.04,2.57-3.25,6.16-4.23,9.95-4.78,1.23-.18,1.63-.59,1.83-1.9,.56-3.7,2.04-6.87,5.92-8.32,1.53-.57,2.4-1.89,1.35-3.38-2.46-3.49-2.03-7.22-1.08-10.93,.68-2.67-.15-4.09-2.64-5-3.67-1.35-6.16-3.89-6.78-7.88-.29-1.86-.32-3.78-.3-5.68,.02-1.68-.3-2.53-2.27-2.03-4.82,1.22-9.74,1.33-14.66,.86-1.62-.16-1.85,.35-1.36,1.7,.19,.52,.28,1.09,.41,1.63l-.78,.95c-1.27-2.7-1.86-.48-2.3,.42-1.29,2.63-2.41,5.47-4.87,7.16-1.65,1.13-1.71,2.3-.75,3.5,1.72,2.14,2.15,4.75,3.12,7.17,.25,.63,.16,1.57,1.17,1.7,3.28-4.22,4.23-9.11,4.28-14.28Zm-100.49,47.07c-6.07-5.02-17.64-3.14-34.98,5.69,4.79,3.36,10.07,3.75,15.65,2.64,7.04-1.41,13.12-5,19.33-8.33Zm137.58-46.47c1.01-5.51-1.3-11.79-5.31-15.11-4.93-4.07-11.17-5.16-16.84-7.55-1.62-.68-1.63,.36-1.49,1.59,.48,4.42,3.42,7.38,6.52,9.81,5.35,4.2,11.6,7.08,17.12,11.25Zm6.92,16.78c-.39-5.04-1.94-9.51-4.96-13.04-3.03-3.55-7.36-5.72-11.19-8.4-1.56-1.09-2.17-.38-2.3,1.27-.24,2.98,.48,5.3,2.58,7.82,4.04,4.87,7.26,10.42,10.86,15.67,.56,.81,.37,2.52,1.55,2.4,1.46-.15,2.26-1.62,2.79-2.96,.38-.95,.5-2,.68-2.76Zm-152.5,35.78c7.64,6.04,23.11-.06,33.76-5.88-6.58-4.95-24.49-1.83-33.76,5.88Zm138.38-19.27c0,1.8,0,3.6,0,5.41-.01,3.04,.31,3.3,3.14,2.24,.68-.26,1.49-.65,1.85-1.23,2.81-4.44,6.1-8.83,4.41-14.58-.6-2.03-1.7-3.94-2.73-5.82-.68-1.24-1-3.51-2.51-3.27-1.47,.24-2.62,1.99-3.08,3.73-.1,.36-.22,.72-.31,1.09-1.05,4.09-1.11,8.25-.77,12.43Zm-1.46,3.66s-.01,0-.02,0c0-1.42-.11-2.85,.03-4.26,.22-2.27-.94-2.15-2.28-1.32-2.87,1.78-5.05,4.42-6.29,7.39-1.86,4.44-4.39,8.26-7.7,11.66-.42,.44-1.35,.74-1.03,1.49,.33,.77,1.29,.74,2.01,.74,4.58-.02,8.66-1.49,12.15-4.5,2.29-1.97,3.14-4.57,3.13-7.51,0-1.23,0-2.46,0-3.69Zm-37,16.42c.57,.24,.82,.39,1.09,.46,9.46,2.43,19.3-2.02,23.88-10.7,.8-1.51,.15-1.85-1.1-1.98-3.48-.38-6.76,.27-9.85,1.91-5.09,2.71-9.18,6.76-14.02,10.31Zm52.46-58.09c-.41,2.35-.43,4.52-1.2,6.36-1.23,2.92-.33,5.33,.97,7.78,3.42,6.43,3.08,9.2-2.14,14.25-1.01,.98-.86,1.88-.46,2.76,.53,1.18,1.44,.34,2.16,.06,5.86-2.28,6.31-7.84,7.11-12.8,.88-5.46-1.25-10.54-3.81-15.33-.57-1.06-1.12-2.18-2.62-3.1Zm5.15,27.55c-1.66,3.29-3.93,4.72-6.67,5.49-.79,.22-1.18,.59-1.4,1.49-1.49,6.06-3.13,12.05-10.74,13.11-1.11,.16-1.05,1.31-1.02,2.07,.02,.79,.85,.51,1.35,.45,11.66-1.41,20.09-8.45,18.48-22.61Zm-8.09-19.54c1.2-4.2,1.65-8.11,1.47-12.09-.3-6.81-3.65-11.92-8.83-16.02-.71-.56-2.21-1.7-2.14,.06,.13,3.19-1.05,6.43,2.11,9.53,3.8,3.72,5.99,8.84,5.65,14.53-.09,1.53,.22,2.77,1.72,3.99Zm-72.97,56.9c-3.2-2.22-5.65-4.03-9.89-2.29-5.22,2.15-10.78,1.32-15.45-2.43-1.01-.81-1.99-1-3.13-.62-1.51,.51-3,1.06-4.52,1.6,4.08,7.29,21.27,7.77,32.99,3.74Zm-76.8,.05c-2.24-2-4.72-2.56-6.07-4.64-.44-.67-1.19-.23-1.83-.12-2.22,.4-4.44,.9-6.68,1.09-4.43,.37-8.63-.61-12.46-2.9-1.08-.65-2.27-1.15-3.04-.1-.94,1.28,.71,1.84,1.33,2.62,.46,.58,1.07,1.09,1.71,1.47,8.42,5.04,17.37,4.5,27.04,2.58Zm146.9-15.16c-2.75,.47-5.07,1.67-7.61,1.72-1.29,.03-2.12,.68-3.14,1.49-5.05,4.01-10.42,7.28-17.31,4.78-.62-.23-1.43-.42-1.82,.23-.48,.79,.35,1.25,.86,1.53,2.4,1.31,4.77,2.59,7.67,2.61,3.72,.04,7.12-1.12,10.3-2.74,4.34-2.21,8.62-4.65,11.06-9.62Zm-100.45,16.14c-2.77-2.92-5.26-4.78-9.43-4.01-3.69,.68-7.71,.36-10.81-2.45-2.75-2.5-5.18-.85-8.1,.3,8.53,6.75,17.71,8.82,28.34,6.17Zm-23.06-.55c-1.31-1.64-2.71-2.22-4.04-2.88-1.32-.65-1.95-2.6-3.73-2.26-5.79,1.12-11.4,1.4-16.69-2.01-1.11-.72-2.94,.02-3.57,.95-.6,.89,.9,1.44,1.73,2.05,7.92,5.82,16.78,5.31,26.28,4.15Zm101.55-73.65c-2.38-2.04-3.34-4.37-3.72-6.92-.21-1.39-.66-1.64-2.03-1.37-2.84,.55-5.82,.66-8.6,1.13-2.84,.48-.88,4.28-1.86,6.42-.45,.99-.12,1.79,1.27,1.81,4.86,.08,9.73,.48,14.94-1.07Zm-26.82,73.43c-3.26-1.55-6.21-4-10.18-3.01-.61,.15-1.31-.1-1.96-.14-3.1-.18-5.85-1.47-8.47-2.97-2.01-1.15-3.51,0-4.25,1.27-.61,1.06,1.23,1.6,2.12,2.04,7.22,3.57,14.81,4.46,22.74,2.8Zm30.68-92.77c3.08,2.89,5.43,5.98,5.65,10.24,.09,1.69,2.24,3.85,3.74,3.4,1.66-.49,.63-2.07,.75-3.14,.14-1.21,.02-2.47-.15-3.68-1.5-10.68-.07-8.43-9.63-7.11-.08,.01-.14,.12-.36,.31Zm-16.25,10.63c2.69,.08,4.88-.45,7.06-1.04,1.5-.41,1.65-1.12,.34-2-1.96-1.32-3.79-2.75-5.08-4.78-.39-.62-1.01-.68-1.73-.69-3.73-.08-4.27,.57-4.03,4.29,.16,2.55-.14,5.28,3.44,4.22Zm-94.24,64.58c-2.81-4.26-10.09-4.46-15.57-.52,4.93,2.3,10.24,4.13,15.57,.52Zm109.8-52.31c-.44,5.09,.77,9.2,5.69,12.34-1.05-3.03-.96-5.56-.46-8.09,.18-.88-.08-1.46-.82-1.9-1.36-.81-2.53-1.96-4.41-2.35Zm-93.17,54.32c-1.16-1.82-2.17-3.16-2.59-4.8-.29-1.12-.74-2.36-1.9-2.51-1.19-.15-1.88,1.1-2.57,1.96-.46,.57-.69,1.32-1.03,1.99-.51,1-.33,1.64,.91,1.67,2.34,.06,4.55,.76,7.19,1.68Zm-84.52-2.16c4.66,1.43,9.02,4.47,13.56-.12-4.54-1.5-8.9-2.03-13.56,.12Zm25.24-.62c2.18,.75,3.85,.89,4.91,1.76,2.84,2.34,5.26,1.02,8.23-.38-4.1-2.65-8.06-2.93-13.13-1.38Zm162.54-33.46c-1.61,4.7-1.42,7.83,.49,9.91,.95-1.22,1.21-2.94,2.9-3.64,.91-.38,.74-1.33,.07-1.85-1.44-1.12-2.09-2.83-3.45-4.43Zm-18.07,30.86q6.76,.81,8.23-4.09c-3.89-.22-6.84,1.25-8.23,4.09Zm16.79-14.75c-3.41,1.17-4.66,3.73-5,6.95,1.92-2.14,6.98-1.89,5-6.95Z"/>
  <path class="cls-15" d="M141.24,101.32c-2.01-3.66-5.02-4.09-8.54-1.35-1.09,.85-1.89,2.11-3.32,2.52-.22,.05-.45,.09-.67,.14-.16,.01-.32,.02-.47,.03-.76-.96,.23-1.01,.69-1.32,2.17-1.44,4-3.37,4.81-5.73,1.77-5.2,5.17-7.93,10.56-8.33,.68-.05,1.68,.27,1.86-.77,.12-.68-.48-1.2-.97-1.65-3.17-2.86-6.74-3.25-10.7-1.37-4.48,2.12-7.26,5.95-9.7,9.96-1.71,2.8-3.34,5.39-6.85,6.13,1.01,1.85,2.14,3.03,3.97,3.36-.34,.66-1.13,.3-1.58,.71-.35,.12-.71,.24-1.06,.37-.11,.11-.14,.23-.08,.37-.07,.78-.7,.77-1.24,.88-5.07,.99-9.96,.28-14.61-1.84-2.8-1.28-2.68-4.79,.19-6.6,1.58-1,3.25-1.88,4.96-2.64,1.11-.49,1.54-.96,.72-2.03-4.48-5.8-7.78-12.36-11.64-18.55-.59-.95-.94-2.06-1.38-3.11-2.83-6.67-5.92-13.22-8.59-19.98-2.15-5.44-3.89-10.99-5.86-16.47-.56-1.55-1.27-3.05-1.9-4.58-.84-2.03-.2-2.59,1.79-1.82-.28,.99,.18,1.87,.47,2.76,1.66,5.1,3.3,10.2,5.23,15.22,3.61,9.41,7.47,18.66,12.02,27.66,2.86,5.67,6.33,10.94,9.65,16.32,1.46,2.36,3.44,3.43,6.38,2.73,3.09-.73,3.39-.96,1.09-3.3-3.23-3.29-5.21-7.4-7.36-11.27-4.99-8.96-9.28-18.33-12.82-27.96-2.47-6.71-5.4-13.27-7.25-20.21-.34-1.28-.82-2.51-1.24-3.77,1.27-.99,1.63-.02,1.83,.94,.92,4.26,3.1,8.07,4.32,12.21,2.33,7.89,5.63,15.41,8.87,22.9,3.38,7.82,7.35,15.42,11.91,22.65,1,1.58,2.34,2.94,3.41,4.48,2.05,2.93,5.23,2.94,7.62,.3,2.62-2.88,4.95-6.08,8.96-7.47,4.32-1.5,10.05-.97,12.71,3.7,.55,.97,1.19,1.31,2.3,1.07,1.48-.32,2.98-.56,4.48-.67,3.3-.23,5.17-1.17,6.26-5.07,1.84-6.6,10.41-8.76,16.18-5.68,2.06,1.1,4.06,2.44,5.13,4.68,.54,1.11,1.22,1.43,2.48,1.17,1.3-.27,1.28-1.07,1.41-2.04,1.34-9.89,10.65-11.17,17-8.55,2.19,.9,3.26,3.06,4.58,5.3,.78-1.53,1.52-2.82,2.11-4.17,1.93-4.38,5.65-5.99,10.01-6.25,4.28-.25,8,1.06,10.35,5.04,.93,1.58,1.68,3.48,4.13,2.87-.4,1.25,1.32,1.82,.99,3.05-.91-.4-1.8,.08-2.7,.07-.33-.38,1.19-2.75-1.12-1.04-.32,.24-.86,.17-1.3,.25-.92,.03-1.97-.65-2.71,.46l.03-.02c-1.55,.03-3.1,.03-4.65,.11-.66,.03-1.56,.02-1.08,1.18-.15,.38-.3,.76-.45,1.14-.17,1.89,.16,3.72,.58,5.54l-1.26,.05c-2.03-1.93-1.01-4.4-1.03-6.63-.02-2.05,1.44-3.02,3.4-2.85,1.72,.14,3.37-.18,5.06-.35,2.21-.21,2.19-1.14,1.21-2.76-2.21-3.62-5.5-5.08-9.57-4.72-4.07,.36-7.43,1.85-8.91,6.19-1,2.95-1.22,5.91-.76,8.94,.31,2.05,.67,4.1,1.01,6.15-.35,0-.69,0-1.04,.01-.21-.59-.43-1.18-.64-1.76,0-1.94-1.8-3.47-1.28-5.53-.14-.41-.28-.82-.42-1.23,.27-1.42-.93-.32-1.24-.73-.46-.22-.91-.45-1.37-.67,1.56-.34,1.56-1.19,.97-2.48-1.69-3.71-5.35-5.52-10.11-4.9-4.68,.61-7.36,3.27-8.24,7.59-1.04,5.1,.44,9.91,1.2,14.82-.33,.19-.66,.39-.99,.58-.14-.85-.66-1.01-1.48-1.19-1.55-.34-1.83,1.44-3.03,1.54-.16-.72,.04-1.99-1.3-.82l-1.04,.19c-2.28-.43-4.42,.41-6.55,.89-1.6,.36,.19,.68,.19,1.07-.22,.39-.43,.78-.65,1.17-.14,0-.28,0-.42-.02-1.96-1.86-3.52-10.53-2.36-12.71,.54-1.01,1.4-1.16,2.35-1.27,1.87-.22,3.74-.42,5.61-.69,.69-.1,1.72,.36,1.98-.54,.25-.88-.55-1.52-1.2-2.07-.36-.3-.75-.56-1.09-.88-3.57-3.36-7.89-4.08-12.17-2.03-3.47,1.67-5.65,5.9-5.35,10.36,.3,4.38,2.59,8.24,3.23,12.53-.51,.01-1.02,.02-1.53,.03,.07-2.4-.75-3.55-3.39-2.81-1.53,.43-3.18,.41-4.76,.64-1.45,.22-3.72-.36-2.59,2.58,.13,.34-.6,.26-.93,.34-.38-.2-.75-.41-1.13-.61-.03-1.45-.95-1.68-2.13-1.54-1.03,.12-2.09,.44-3.09,.29-2.49-.37-3.31,.58-2.69,2.96-.21,.06-.41,.12-.62,.18Zm-26.71-7.34h-.02c-4.03,.41-7.58,1.99-10.73,4.5-1.71,1.37-1.56,2.43,.29,3.57,3.28,2.03,6.88,2.41,10.6,2.31,1.03-.03,2.37,.34,2.93-.52,.69-1.06-.68-1.76-1.22-2.55-1.38-2.05-1.14-2.68,1.33-3.25,2.65-.6,4.42-2.29,5.48-4.74,.38-.88,.32-.91-1.25-.68-2.55,.04-5.07,.21-7.42,1.34Zm61.94-9.98c-1.5,.44-3.5-1.13-4.53,1.15-.02,.32-.04,.64-.06,.96-.8,5.72,.52,7.09,5.86,6.1,.64-.12,1.3-.18,1.95-.25q7.29-.72,5.65-7.87c-.08-.8,.51-2.16-1.15-1.81-2.59,.53-5.26,.71-7.75,1.73l.03-.02Zm-36.9,6.27l-.06,1.02c-2.5-.06-3.18,1.8-4.05,3.65-.86,1.85-.37,2.26,1.52,2.15,6.58-.37,13.17-.58,19.71-1.52,4.23-.61,4.22-.59,3.36-4.94-.13-.65-.17-1.31-.25-1.97-.24-1.03-.93-.59-1.52-.47-.39,0-.78-.02-1.17-.03,.18-1.26,2.18-.08,2.17-1.92-4.01,.71-7.98,1.34-11.91,2.13-2.62,.53-5.52-.07-7.79,1.9Z"/>
  <path class="cls-4" d="M257.02,68.08c-1.51,.07-3.43-.81-3.86,1.72-.65,.5-1.68,.64-1.72,1.74-.1,.1-.12,.21-.06,.34,0,0-.15,.11-.15,.11-.14,.14-.29,.27-.43,.41-.38,.2-1.04,.17-1,.75,.04,.62,.66,.64,1.07,.49,1.67-.58,3.53-.24,5.13-1.1,.38-.04,.75-.08,1.13-.11,.19,.03,.38,.07,.56,.1,9.08-1.49,18.16-2.99,27.24-4.48,.8,.06,1.63,.25,2.29-.46,2.77-.39,5.57-.65,8.31-1.2,5.08-1,10.32-1.15,15.27-2.84,.5-.04,.99-.07,1.49-.11,1.22,.03,2.54,.36,3.66,.03,6.45-1.86,13.17-2.15,19.7-3.5,.66-.14,1.68,.07,1.62-1.16,.02-.16,0-.31-.07-.46,1.38-.74,2.92-.6,4.4-.78,.02,1.8,.3,3.49-.61,5.35-.38,.78-.07,2.33-.91,3.35-.44,.16-.87,.39-1.33,.46-14.86,2.34-29.73,4.65-44.59,7.01-8.38,1.33-16.74,2.76-25.11,4.15-4.19,.66-8.46,.98-12.53,2.07-3.96,1.06-6.34-.93-8.71-3.34-.62-.63-1.25-1.08-2.03-1.38,.08-.11,.08-.23,0-.34"/>
  <path class="cls-6" d="M87.78,25.83c.42,1.25,.9,2.49,1.24,3.77,1.85,6.94,4.78,13.5,7.25,20.21,3.55,9.63,7.84,19,12.82,27.96,2.15,3.87,4.13,7.98,7.36,11.27,2.3,2.35,2,2.57-1.09,3.3-2.93,.7-4.92-.37-6.38-2.73-3.32-5.38-6.78-10.65-9.65-16.32-4.54-9-8.41-18.25-12.02-27.66-1.93-5.03-3.57-10.12-5.23-15.22-.29-.88-.75-1.76-.47-2.76,1.75-1.62,3.92-1.84,6.16-1.81Z"/>
  <path class="cls-6" d="M121.9,102.95c-1.83-.33-2.96-1.51-3.97-3.36,3.51-.74,5.15-3.33,6.85-6.13,2.44-4.01,5.21-7.84,9.7-9.96,3.96-1.88,7.53-1.49,10.7,1.37,.49,.45,1.09,.97,.97,1.65-.18,1.04-1.18,.72-1.86,.77-5.4,.4-8.79,3.13-10.56,8.33-.8,2.36-2.64,4.3-4.81,5.73-.46,.3-1.45,.36-.69,1.32-.19,.27-.38,.54-.57,.8l.03-.03c-.44-.06-.88-.11-1.33-.17-1.35-1.99-3.02,.42-4.46-.33Z"/>
  <path class="cls-13" d="M255.92,63.47c-2.98,4.18-5.98,8.34-10.16,11.44-1.95-.32-1.16-1.7-1.07-2.81,4.11-2.1,6.81-5.43,8.4-9.72,2.98-3.4,4.3-7.62,5.81-11.77,.54-1.49,.28-2.09-1.32-2.12-2.14-.05-2.48-.91-1.15-2.59,1.85-2.35,3.64-4.75,5.43-7.14,.71-.95,1.47-1.09,1.76,.17,.69,2.96,2.36,5.49,3.33,8.32,.66,1.95,.17,2.85-1.87,2.19-2.34-.77-2.93,.43-3.71,2.36-1.6,3.98-3.61,7.79-5.44,11.67Z"/>
  <path class="cls-8" d="M78.8,170.61c3.84,.53,7.52-.28,11.12-1.43,1.62-.52,2.74-.52,3.84,1.05,1.31,1.87,3.11,3.27,5.39,3.89-.1,.93-.89,.84-1.49,.97-3.14,.65-6.32,.98-9.52,1.14-5.83,.29-11.32-1.19-16.69-3.24-1.23-1.62,.51-3.19,.07-4.8,2.17,1.59,4.61,2.33,7.27,2.41Z"/>
  <path class="cls-14" d="M269.03,77.9c8.37-1.39,16.73-2.81,25.11-4.15,14.86-2.36,29.73-4.67,44.59-7.01,.45-.07,.88-.3,1.33-.46,.5,.32,1.5-.4,1.6,.66,.08,.86-.79,.66-1.25,.74-6.02,1.03-12.04,2.03-18.08,3-16.73,2.69-33.46,5.36-50.2,8.01-1.02,.16-2.06,.15-3.09,.22,0-.34,0-.68-.01-1.02Z"/>
  <path class="cls-13" d="M158.01,75.28c-.32-3.37,.15-6.33,.44-9.26,.67-6.9,2.25-13.56,5.59-19.73,2.79-5.16,6.46-9.21,12.26-10.91,.96-.28,1.91-.77,2.9,.13-.27,.2-.46,.44-.7,.49-7.72,1.6-11.9,6.89-14.69,13.84-3.02,7.54-4.5,15.34-4.76,23.43-.02,.54,.16,1.15-1.04,2.01Z"/>
  <path class="cls-13" d="M200.42,35.07c9.63-1.12,30.47,20.13,31.64,31.72-1.4,.16-1.63-.8-1.91-1.84-2.69-9.83-9.04-16.81-17.11-22.61-3.84-2.76-7.95-4.94-12.62-7.27Z"/>
  <path class="cls-15" d="M341.59,57.59c-1.48,.18-3.02,.04-4.4,.78-1.04,.02-2.09-.08-3.11,.08-7.64,1.21-15.28,2.41-22.9,3.76-4.59,.81-9.32,.88-13.78,2.43l.03-.02c-1.68,.14-3.35,.29-5.03,.43-.03-.33-.06-.66-.09-.99,7.63-1.26,15.26-2.53,22.89-3.77,7.92-1.28,15.85-2.55,23.78-3.74,.9-.13,2.53-1.27,2.59,1.04Z"/>
  <path class="cls-13" d="M220.16,84.05c.42-.02,.84-.03,1.26-.05,4.34-1.23,8.33-3.32,12.47-5.06,1.44-.61,1.5-1.45,.94-2.64,.33-1.23-1.38-1.8-.99-3.05,0,0,.04-.04,.04-.04,1.02-1.09,.42-2.39,.45-3.6,.2-.57,.41-1.15,.61-1.72,0,0,.06-.19,.06-.19,0,0,.06-.13,.06-.13,.24,.28,.48,.57,.73,.85-.17,.67-.33,1.33-.49,2-.52,1.33-.64,2.64,.16,3.92,.51,1.85,1.05,3.68,2.33,5.18-.03,.64-.07,1.29-.1,1.93-1.12-1.13-2.17-.92-3.55-.24-3.01,1.47-6.09,2.82-9.26,3.88-2.51,.84-3.65,1.99-2.34,4.6-.01,.4-.03,.8-.04,1.19-.38,0-.77,0-1.15,0-.11-.78-.23-1.55-.34-2.33,.43-.49,.26-.84-.27-1.1-.2-1.13-.39-2.27-.59-3.4Z"/>
  <path class="cls-15" d="M257.02,68.08c-.29-1.02-1.6-1.67-1.07-2.99,1.06-.06,1.53,.75,1.84,1.5,.93,2.27,2.41,2.53,4.72,2.13,8.41-1.48,16.86-2.69,25.29-4,0,.34-.01,.68-.02,1.02-4.25,.71-8.51,1.44-12.77,2.11-7.86,1.25-15.72,2.46-23.58,3.68,.04-1.11,1.07-1.24,1.72-1.74,1.05,.24,2.05-.06,3.04-.34,.68-.19,1.65-.26,.82-1.38Z"/>
  <path class="cls-14" d="M71.45,173c5.38,2.05,10.86,3.53,16.69,3.24,3.2-.16,6.38-.49,9.52-1.14,.6-.12,1.39-.04,1.49-.97,.77,.27,.82,1.06,1.19,1.62-7.09,2.09-14.29,2.39-21.52,1.03-1.98-.37-3.83-.85-5.8-.13-1.14,.42-2,.38-1.06-1.18,1.57-1.06-.32-.94-.48-1.4-.01-.36-.02-.71-.03-1.07Z"/>
  <path class="cls-13" d="M162.59,99.29c.51-.01,1.02-.02,1.53-.03,0,0-.04,.07-.04,.07,.04,.32,.08,.65,.12,.97,.12,.2,.24,.4,.36,.6-.55,.19-1.09,.38-1.64,.57-6.65,1.02-13.31,2.04-19.96,3.05-1.3-.13-1.97-.74-1.63-2.13,3.96-.59,7.92-1.18,11.88-1.77,3.18-.03,6.24-.93,9.37-1.33Z"/>
  <path class="cls-8" d="M73.71,158.67c2.55-.24,4.77,.69,7.1,1.92-2.54,2.68-6.17,3.1-8.83,5.14-.15,.01-.3,.02-.45,.03,.75-2.36-.75-5.42,2.18-7.1Z"/>
  <path class="cls-15" d="M235.79,68.42c-.24-.28-.48-.57-.73-.85,3.24-5.48,10.61-7.8,16.86-5.13-.99,1.89-2.61,.15-3.83,.67-5.43-1.34-8.97,1.75-12.3,5.31Z"/>
  <path class="cls-6" d="M244.68,72.11c-.2-.21-1.14,0-.29-.76,1.31-1.19,2.35-2.71,3.75-3.76,2.17-1.64,1.99-3.01-.04-4.48,1.23-.52,2.84,1.22,3.83-.67"/>
  <path class="cls-14" d="M240.09,174.77c.56,.3,1.12,.61,1.68,.91-4.31,.92-8.63,1.23-12.99,.42,.46-.47,1.35-.11,1.65-.88,3.23,.12,6.45-.1,9.66-.46Z"/>
  <path class="cls-14" d="M71.53,165.77c.15-.01,.3-.02,.45-.03,.18,.32,.36,.64,.54,.96,1.59,2.61,4.53,1.99,6.83,2.91-.19,.34-.37,.67-.56,1.01-2.66-.09-5.11-.83-7.27-2.41,0-.81,0-1.62,0-2.43Z"/>
  <path class="cls-15" d="M136.07,105.17c-.71,.11-1.17-.4-1.21-1.27-.06-1.29,.95-1.1,1.76-1.21,1.07-.15,1.73,.47,1.67,1.36-.07,1.06-1.14,1.01-2.22,1.12Z"/>
  <path class="cls-15" d="M127.66,103.47c.28-.01,.56-.07,.83-.03,.99,.15,2.43-.66,2.67,1.13,.14,1.06-.64,1.09-1.45,1.2-1.94,.27-2.21-.8-2.03-2.33,0,0-.03,.03-.03,.03Z"/>
  <path class="cls-14" d="M121.9,102.95c1.44,.75,3.11-1.67,4.46,.33-1.94,1.34-3.97,1.16-6.04,.38,.45-.4,1.25-.04,1.58-.71Z"/>
  <path class="cls-14" d="M287.78,65.74c0-.34,.01-.68,.02-1.02,1.51-.22,3.02-.44,4.53-.66,.03,.33,.06,.66,.09,.99-.36,.33-1.12-.01-1.24,.73h.03c-1.14-.02-2.28-.03-3.42-.04Z"/>
  <path class="cls-15" d="M234.33,69.61c-.04,1.21,.57,2.51-.45,3.6,.15-1.2,.3-2.4,.45-3.6Z"/>
  <path class="cls-3" d="M71.48,174.06c.16,.47,2.05,.34,.48,1.4-.69-.28-1.39-.57-.48-1.4Z"/>
  <path class="cls-9" d="M71.97,158.22c.62-.06,1.24-.12,1.74,.38-.64,.17-1.28,.27-1.74-.38Z"/>
  <path class="cls-9" d="M74.78,155.33c-.19,.11-.39,.22-.58,.33,.07-.33,.07-.78,.58-.33Z"/>
  <polygon class="cls-15" points="235.01 67.69 234.95 67.88 234.87 67.77 235.01 67.69"/>
  <path class="cls-11" d="M128.71,102.64c.22-.05,.45-.09,.67-.14-.16,.37-.38,.44-.67,.14Z"/>
  <path class="cls-14" d="M119.18,104.4c-.06-.14-.03-.26,.08-.37,.12,.15,.09,.28-.08,.37Z"/>
  <path class="cls-9" d="M77.04,154.75c-.18,.08-.36,.16-.54,.23,.18-.08,.36-.16,.54-.23Z"/>
  <path class="cls-9" d="M73.66,155.89c-.19,.13-.38,.25-.57,.38,.19-.13,.38-.25,.57-.38Z"/>
  <path class="cls-6" d="M182.68,118.8c.36-1.27,.82-2.51,1.07-3.8,.27-1.34,.94-1.13,1.79-.66,.42,.26,.65,.14,.69-.35,.32-.35,.12-.67-.06-.98-.17-4.38-1.08-8.82,1.09-13,.41-.55,.83-1.11,1.24-1.66,1.59,2.57,2.2,5.7,4.44,7.91v.02c.14,2.95,1.72,5.38,2.81,7.99,.01,.75,.57,.98,1.14,1.19,.45,1,.48,2.27,1.73,2.78h.01c-.52,1.12,.18,2.03,.54,2.96,1.14,2.97,2.61,5.84,3.65,8.82,1.96,5.56,1.2,11.38,.55,17.11-.25,2.18-1.02,4.13-2.33,5.93-.75,1.03-1.06,1.27-2.03,.2-.81-.89-.98-1.72-.8-2.81,.81-4.78-.12-9.4-1.42-13.97,.16-.8-.39-1-.98-1.16-.27-.65,.18-1.79-1.16-1.69l-.02-.03c.8-.71,.11-1.42-.08-2.06-1.79-6-5.91-10.87-8.1-16.69-.02-.05-.31,0-.83,.03,.99,4.14,2.69,7.94,5.08,11.25,1.74,2.4,1.85,4.52,.38,6.71-.76,1.14-1.19,2.31-1.58,3.55-1.99,6.32-2.82,12.75-1.82,19.36,.17,1.11,.09,2.24-1.04,2.68-1.1,.43-2.22,.1-3.01-.92-.29-.37-.55-.76-.83-1.15-.43-1.36-.87-2.71-1.3-4.07-.14-.42-.27-.85-.41-1.27,.48-.9,.38-1.8-.02-2.7,.08-5.46,.15-10.93,.23-16.39,.02-.39,.04-.79,.05-1.18,.86-2.43-.43-5.1,.81-7.5l.22-.13-.04-.25c.48-1.33,.33-2.71,.34-4.08Z"/>
  <path class="cls-13" d="M181.08,151.03c.14,.42,.27,.85,.41,1.27-.33,.04-.66,.08-.99,.12-2.63-.57-3.29,1.53-3.59,3.21-.43,2.37,1.81,1.05,2.78,1.53,.42,.21,.88,.31,1.33,.45,.17,.29,.36,.32,.57,.05,0,0,.21-.06,.21-.06,.33-.41,.66-.83,.99-1.24,.28,.38,.54,.77,.83,1.15,.79,1.02,1.91,1.35,3.01,.92,1.13-.44,1.2-1.57,1.04-2.68-1-6.6-.17-13.04,1.82-19.36,.39-1.24,.82-2.41,1.58-3.55,1.47-2.19,1.35-4.31-.38-6.71-2.39-3.31-4.09-7.1-5.08-11.25,.52-.02,.81-.08,.83-.03,2.19,5.81,6.31,10.69,8.1,16.69,.19,.64,.88,1.35,.08,2.06-1.14-.04-.55-1.49-1.49-1.76-1.23,1.78-1.37,4.02-2.27,5.96-2.87,6.15-2.92,12.56-1.52,19.05,.22,1.04,.91,1.84,2.04,2.13,1.29,.34,2.1-.52,2.5-1.39,2.2-4.79,3.86-9.73,2.84-15.15-.56-2.97-2.42-5.63-2.08-8.81,1.34-.1,.9,1.04,1.16,1.69-.04,.7,.27,1.11,.98,1.16,1.3,4.57,2.23,9.18,1.42,13.97-.18,1.08,0,1.91,.8,2.81,.97,1.07,1.28,.82,2.03-.2,1.31-1.8,2.08-3.76,2.33-5.93,.65-5.74,1.41-11.56-.55-17.11-1.05-2.97-2.51-5.84-3.65-8.82-.36-.93-1.06-1.84-.54-2.95,.76-.12,1.52-.46,2.29-.02-.72,1.32-.7,2.61-.01,3.97,1.15,2.29,2.58,4.45,3.35,6.97,.23-1.94,.46-3.88,.68-5.81,.95-1.29,.36-2.74,.41-4.12,.04-.33,.07-.66,.11-.99,.35,0,.69,.01,1.04,.02,.1,1.01,.08,2.01-.33,2.97-.06,.52-.11,1.04-.17,1.56-.24,7.36-1.03,14.72,0,22.09,.6,4.36,.94,8.79,3.44,12.63,.4,.61,.68,1.59,1.6,1.25,1.22-.45,.19-1.21,.05-1.84-.19-.83-.5-1.65-.54-2.49-.34-7.99,1.01-15.77,3.61-23.27,.83-2.39,2.01-4.61,2.09-7.2,1.43,1.19,1.77,2.79,1.7,4.55-.84-.05-1.51,.04-1.71,1.11-.22,1.21-.54,2.4-.94,3.56-2.25,6.55-3.8,13.22-3.59,20.21,.04,1.15,.08,2.28,.63,3.31,.72,1.36,2.01,1.67,3.36,1.6,.86-.05,1.91,.1,2.29-1.18,.59-1.98,1.71-3.71,2.74-5.5,3.1-5.41,.7-10.63-.95-15.79-.77-2.42-2.26-4.63-1.84-7.34,1.18,.1,.69,1.25,1.13,1.81,.01,.59,.25,1,.89,1.06,1.88,5.95,3.72,11.9,3.46,18.25-.05,.05-.15,.1-.14,.14,.01,.13,.07,.25,.1,.37-.24,1.72,1.07,2.94,1.46,4.45-.24,.26-.48,.53-.73,.79-.79-.77-.82-2.13-2.06-2.64-1.19,1.17-1.17,2.95-2.08,4.24-.44,.09-.9,.25-.61,.81,.2,.38,.57,.23,.84-.06,1.37-.24,2.73-.47,4.1-.71,.53-.41,.74-1.28,1.64-1.17,.54,.13,.88-.21,1.21-.54,.86,.09,1.61,.4,2.16,1.11-.92,.42-.97,.85,0,1.28-.19,.28-.38,.55-.57,.83-.38-.02-.77-.04-1.15-.06-.17,0-.34,0-.51,0-.42-.03-.84-.07-1.26-.1-.94-.31-1.87-.47-2.73,.24-5.28,.79-10.59,1.45-15.34,4.16-.01-.42-.03-.83-.04-1.25-.56-1.6-2.05-1.46-3.27-1.63-4.55-.61-9.01-.09-13.38,1.24-.3,.08-.6,.17-.91,.25-.19,.09-.38,.18-.56,.26-.06-.32-.12-.64-.18-.97,1.04-.84,.03-1.48-.41-1.64-1.13-.43-1.7,.49-2.17,1.37-.8,.01-1.59,.03-2.39,.04-1.6-.44-2.88-1.51-4.66-1.78-3.98-.6-7.81-.28-11.64,.71-.65-.14-1.41,.06-1.87-.64,.17-1.55-.84-1.16-1.69-1.05,.16-1.66,.32-3.32,.47-4.99,0-1.5,0-3,0-4.49,.04-2.39,.08-4.78,.12-7.17,1.02-1.46,.38-3.1,.48-4.66l.24-4.47c.1-.26,.19-.52,.29-.78,.13-1.07-.85-2.16,.07-3.21,.39-.01,.52,.25,.59,.57-.01,.76,.38,1.12,1.12,1.16,.72,1.66,1.97,3.14,1.7,5.12-1.11,.33-.87-.65-1.13-1.16-.03-.7-.23-1.36-1.02-1.44-.65-.07-.62,.54-.65,.99-.15,2.29-.29,4.57-.44,6.86-.02,.22-.05,.44-.07,.66-.14,1.68-.27,3.35-.41,5.03-.46,2.19-.39,4.39-.07,6.59,.1,.56,.16,1.13,.32,1.67,.35,1.2-.42,2.96,1.91,3.11,2.13,.13,2.42-1.17,2.86-2.72,1.53-5.49,.97-10.85-.75-16.18-.35-1.1-1.27-2.12-.54-3.39,.17,.03,.45,0,.49,.1,1.99,4.5,3.29,9.23,3.97,14.08,.23,1.64,.86,3.49,2.02,3.65,1.45,.2,1.78-1.8,2.12-3.16,1.06-4.15,.8-8.25-.53-12.29,.32-.03,.65-.07,.97-.1,.95,.72,1.13-.04,1.21-.7,.18-1.48,.26-2.96,.39-4.44,.33,0,.66,.02,.98,.03-.08,5.46-.15,10.93-.23,16.4,0,.9,.02,1.8,.02,2.7Zm26.99,8.08c-.96-2.24-1.73-3.84-1.94-5.63-.05-.43-.17-.94-.79-.99-.99-.08-4.71,3.95-4.56,4.92,.15,.96,.89,.83,1.51,.83,1.76,0,3.49,.18,5.78,.86Zm-35.15-2.27c.72-.53,2.62,.59,2.5-1.53-.07-1.32-.56-3.25-1.75-3.14-1.94,.18-1.22,2.58-1.88,3.92-.36,.74,.33,.91,1.14,.75Zm24.93-3.05c-.68,1.09-1.32,2-1.84,2.98-.23,.44-.76,.95-.22,1.52,.38,.4,.87,.22,1.33,.18,2.57-.27,2.75-1.2,.73-4.67Zm6.85-6.62c-.03,1.49-1.28,2.84-.73,4.57,2.4-1.28,1.32-2.98,.73-4.57Z"/>
  <path class="cls-6" d="M223.4,149.62c.26-6.35-1.58-12.31-3.46-18.25,.21-.78-.44-.84-.89-1.06-.44-.57,.05-1.72-1.13-1.81h0c.07-1.75-.27-3.35-1.7-4.54l-.02-.03c-.12-3.11-1.57-5.5-3.96-7.39v-.02c.38-.66,.27-1.07-.57-1.12v-.02c-.04-.23-.07-.46-.1-.69-.16,.05-.31,.09-.47,.14,0,0,0,0,0,0,1.02-.6,.11-1.13-.07-1.68-1.42-4.28-3.7-8.33-3.25-13.08v.02c.92-.24,1.13-.94,1.1-1.79,.5-1.32,1.16-2.54,2.23-3.49,1.83,3.67,3.68,7.34,5.5,11.02,3.11,6.28,6.59,12.41,9.23,18.89,4.06,9.94,5.54,20.2,1.28,30.59-.34,.34-.67,.67-1.21,.54,0-.74-.34-1.18-1.09-1.26-.39-1.52-1.7-2.73-1.46-4.45,.13-.16,.14-.33,.04-.51Z"/>
  <path class="cls-6" d="M221.01,88.55c.11,.78,.23,1.55,.34,2.33,.53,4.19,1.45,8.35,1.11,12.62-.05,.66,.07,1.38-.17,1.96-.49,1.16-.59,2.83-2.19,2.99-1.54,.15-1.42-1.52-1.86-2.42-2.2-4.54-4.29-9.13-6.42-13.71-.43-1.43-.85-2.86-1.28-4.29-.34-2.05-.7-4.1-1.01-6.15-.46-3.04-.24-5.99,.76-8.94,1.47-4.33,4.84-5.82,8.91-6.19,4.07-.36,7.36,1.1,9.57,4.72,.99,1.61,1,2.54-1.21,2.76-1.68,.16-3.33,.49-5.06,.35-1.96-.16-3.42,.81-3.4,2.85,.02,2.23-.99,4.69,1.03,6.63,.2,1.13,.39,2.27,.59,3.4,.09,.37,.18,.73,.27,1.1Z"/>
  <path class="cls-6" d="M165.14,141.03c-.04,2.39-.08,4.78-.12,7.17-.51,1.5-.51,3,0,4.49-.16,1.66-.32,3.32-.47,4.99v-.07c-.34-.77-.75-.26-1.15-.05-3.13,.86-4.3-.93-5.24-3.56-3.33-9.25-3.55-18.84-3.37-28.48,.09-5.07-.1-10.19,1.98-15.01,.73-1.71,.84-3.73,2.55-4.92,.12,.13,.24,.24,.38,.35-2.14,6.78,.2,12.58,3.91,18.09,.19,.45,.14,1.13,.93,1.05h0c-.26,1.09-.04,1.92,1.12,2.28l.02,.02c0,.2-.01,.41-.02,.61,.2-.01,.4-.03,.59-.04l-.03-.03c-.92,1.05,.06,2.14-.07,3.21-.1,.26-.19,.52-.29,.78-.08,1.49-.16,2.98-.24,4.47-.53,1.52-.57,3.08-.48,4.66Z"/>
  <path class="cls-6" d="M164.57,100.9c-.12-.2-.24-.4-.36-.6,.43-.38,.22-.68-.12-.97,0,0,.04-.07,.04-.07-.63-4.29-2.93-8.15-3.23-12.53-.31-4.46,1.87-8.69,5.35-10.36,4.27-2.06,8.6-1.33,12.17,2.03,.34,.32,.73,.58,1.09,.88,.65,.55,1.45,1.19,1.2,2.07-.26,.91-1.3,.44-1.98,.54-1.86,.27-3.74,.47-5.61,.69-.95,.11-1.82,.26-2.35,1.27-1.17,2.19,.4,10.86,2.36,12.71-.9,.76-.57,1.67-.29,2.55,1.02,3.21,1.52,6.47,1.28,9.84-1.63,1.16-.87,3.14-1.55,4.63-.31,.68-.41,1.63-1.23,1.74-1.01,.13-.98-.96-1.25-1.58-1.86-4.28-3.68-8.57-5.51-12.86Z"/>
  <path class="cls-6" d="M169.64,134.76c.26-1.99-.99-3.46-1.7-5.12,0-.75-.59-.93-1.12-1.16-.07-.33-.2-.59-.59-.57,0,0,.03,.03,.03,.03,0-.38,.11-.88-.57-.57,0,0-.02-.02-.02-.02,.47-1.18,.27-2.02-1.12-2.26,0,0,0-.01,0-.01,.7-.32,.34-.74,.11-1.15-.87-2.1-1.54-4.3-2.64-6.26-3-5.33-2.53-9.8,2.06-14.6,1.78,6.03,5.15,11.16,7.09,16.94,1.95,5.81,4.89,11.24,6.57,17.15,1.33,4.05,1.59,8.14,.53,12.29-.35,1.36-.68,3.36-2.12,3.16-1.16-.16-1.79-2.01-2.02-3.65-.69-4.85-1.98-9.58-3.97-14.08-.04-.09-.32-.07-.49-.1,0,0-.01-.02-.01-.02Z"/>
  <path class="cls-6" d="M248.09,63.1c2.03,1.48,2.21,2.84,.04,4.48-1.4,1.06-2.43,2.58-3.75,3.76-.85,.77,.1,.55,.29,.76-.08,1.11-.88,2.49,1.07,2.81,.08,.11,.09,.23,0,.34,.11,1.8,1.4,2.74,2.64,3.76,2.89,2.4,5.28,5.3,7.56,8.25,1.18,1.53,2.69,3.9,1.5,5.4-1.16,1.45-3.33-.45-5.02-.95-6.61-1.95-11.71-5.77-14.64-12.21-1.28-1.5-1.82-3.33-2.33-5.18-.05-1.31-.11-2.61-.17-3.92,.16-.67,.33-1.33,.49-2,3.33-3.56,6.87-6.65,12.3-5.31Z"/>
  <path class="cls-8" d="M168.18,159.38c3.82-.99,7.63-1.3,11.6-.71,1.77,.27,3.04,1.34,4.64,1.77,.62,.51,1.71,.28,2.1,1.45-7.48,3.63-14.94,7.31-23.34,8.23-4.71,.51-9.33,.2-13.11-3.38,5.84-2.97,11.92-5.32,18.12-7.36Z"/>
  <path class="cls-8" d="M132.81,160.75c-6.21,3.32-12.29,6.92-19.33,8.33-5.57,1.11-10.85,.72-15.65-2.64,17.34-8.82,28.91-10.71,34.98-5.69Z"/>
  <path class="cls-8" d="M270.39,114.27c-5.52-4.17-11.78-7.05-17.12-11.25-3.1-2.43-6.04-5.39-6.52-9.81-.13-1.24-.12-2.27,1.49-1.59,5.67,2.38,11.91,3.47,16.84,7.55,4.01,3.31,6.31,9.6,5.31,15.11Z"/>
  <path class="cls-2" d="M277.31,131.05c-.18,.76-.31,1.81-.68,2.76-.53,1.34-1.33,2.81-2.79,2.96-1.18,.12-.99-1.58-1.55-2.4-3.59-5.25-6.81-10.8-10.86-15.67-2.1-2.53-2.81-4.84-2.58-7.82,.13-1.65,.75-2.36,2.3-1.27,3.83,2.68,8.16,4.86,11.19,8.4,3.02,3.53,4.57,8,4.96,13.04Z"/>
  <path class="cls-6" d="M222.5,90.88c.01-.4,.03-.8,.04-1.19,.36-3.42,3.04-3.42,5.49-3.78,3.8-.89,3.94-.91,4.35,2.82,.94,8.54-1.13,16.4-5.73,23.62-.83,1.31-2.2,1.98-3.47,3.22-.72-1.54-1.33-2.91-2-4.23-.34-.66-.45-1.17,.19-1.74,2.71-2.41,2.82-5.7,2.58-8.91-.24-3.29-.94-6.54-1.43-9.81Z"/>
  <path class="cls-8" d="M79.35,169.6c-2.3-.92-5.25-.31-6.83-2.91,5.55-2.1,10.34-5.77,15.95-7.78,5.41-1.95,10.72-1.77,16.02,.33,.59,.23,1.37,.4,1.51,1.12,.15,.73-.65,.87-1.1,1.07-6.65,3.06-13.09,6.69-20.48,7.74-1.68,.24-3.38,.29-5.07,.43Z"/>
  <path class="cls-8" d="M125.06,166.82c9.24-7.68,27.07-10.79,33.63-5.86-10.61,5.8-26.02,11.87-33.63,5.86Z"/>
  <path class="cls-8" d="M189.55,161.63c.19-.09,.38-.18,.56-.26,.3-.08,.6-.17,.91-.25,4.38-1.33,8.84-1.86,13.38-1.24,1.22,.16,2.71,.03,3.27,1.63-4.46,2.79-8.59,6.08-13.41,8.31-5.06,2.34-10.1,2.9-15.25,.4-1.01-.49-2.05-.97-2.65-2.19,4.47-2.03,9.06-3.74,13.18-6.39Z"/>
  <path class="cls-8" d="M227.55,158.46c.38,.02,.77,.04,1.15,.06,1.07,.5,2.15,1,3.42,1.59-5.23,3.94-9.72,8.56-16.26,9.86-4.87,.97-9.28,.04-13.59-2.91,1.95-1.54,3.7-2.93,5.45-4.31,4.76-2.72,10.07-3.38,15.34-4.16,.91-.08,1.82-.16,2.73-.24,.42,.03,.84,.07,1.26,.1,0,0,.25,.1,.25,.1l.26-.09Z"/>
  <path class="cls-2" d="M263.2,147.56c-.34-4.18-.28-8.35,.77-12.43,.09-.36,.21-.72,.31-1.09,.47-1.74,1.62-3.49,3.08-3.73,1.51-.24,1.83,2.02,2.51,3.27,1.03,1.88,2.13,3.78,2.73,5.82,1.7,5.75-1.6,10.14-4.41,14.58-.36,.58-1.17,.97-1.85,1.23-2.83,1.07-3.15,.81-3.14-2.24,0-1.8,0-3.6,0-5.41Z"/>
  <path class="cls-2" d="M261.74,151.23c0,1.23,0,2.46,0,3.69,0,2.94-.83,5.54-3.13,7.51-3.49,3.01-7.57,4.47-12.15,4.5-.72,0-1.68,.03-2.01-.74-.32-.75,.6-1.05,1.03-1.49,3.31-3.4,5.84-7.23,7.7-11.66,1.25-2.98,3.42-5.62,6.29-7.39,1.34-.83,2.49-.94,2.28,1.32-.13,1.41-.03,2.84-.03,4.26,0,0,.01,0,.02,0Z"/>
  <path class="cls-1" d="M224.74,167.64c4.84-3.55,8.93-7.6,14.02-10.31,3.09-1.65,6.37-2.29,9.85-1.91,1.25,.14,1.9,.47,1.1,1.98-4.57,8.67-14.42,13.13-23.88,10.7-.27-.07-.52-.21-1.09-.46Z"/>
  <path class="cls-2" d="M277.21,109.55c1.5,.91,2.05,2.03,2.62,3.1,2.56,4.79,4.69,9.87,3.81,15.33-.79,4.95-1.24,10.51-7.11,12.8-.72,.28-1.63,1.12-2.16-.06-.4-.88-.55-1.78,.46-2.76,5.21-5.06,5.55-7.82,2.14-14.25-1.3-2.46-2.2-4.87-.97-7.78,.78-1.84,.79-4.01,1.2-6.36Z"/>
  <path class="cls-2" d="M282.35,137.1c1.61,14.15-6.82,21.19-18.48,22.61-.5,.06-1.33,.34-1.35-.45-.02-.76-.08-1.91,1.02-2.07,7.61-1.07,9.25-7.05,10.74-13.11,.22-.9,.61-1.27,1.4-1.49,2.74-.76,5.01-2.2,6.67-5.49Z"/>
  <path class="cls-8" d="M274.27,117.56c-1.51-1.22-1.82-2.46-1.72-3.99,.34-5.7-1.85-10.81-5.65-14.53-3.17-3.1-1.99-6.34-2.11-9.53-.07-1.76,1.43-.62,2.14-.06,5.17,4.09,8.53,9.21,8.83,16.02,.17,3.99-.27,7.89-1.47,12.09Z"/>
  <path class="cls-8" d="M201.3,174.45c-11.72,4.03-28.91,3.56-32.99-3.74,1.52-.54,3.01-1.1,4.52-1.6,1.14-.38,2.11-.19,3.13,.62,4.67,3.75,10.23,4.58,15.45,2.43,4.24-1.75,6.69,.07,9.89,2.29Z"/>
  <path class="cls-8" d="M124.5,174.51c-9.67,1.93-18.62,2.46-27.04-2.58-.64-.38-1.25-.89-1.71-1.47-.62-.78-2.26-1.34-1.33-2.62,.77-1.06,1.96-.55,3.04,.1,3.83,2.29,8.02,3.27,12.46,2.9,2.24-.19,4.46-.69,6.68-1.09,.64-.11,1.4-.55,1.83,.12,1.35,2.08,3.83,2.64,6.07,4.64Z"/>
  <path class="cls-2" d="M271.4,159.35c-2.44,4.97-6.73,7.41-11.06,9.62-3.18,1.62-6.57,2.78-10.3,2.74-2.9-.03-5.27-1.31-7.67-2.61-.51-.28-1.34-.74-.86-1.53,.4-.65,1.2-.46,1.82-.23,6.89,2.51,12.26-.76,17.31-4.78,1.02-.81,1.85-1.47,3.14-1.49,2.55-.05,4.86-1.25,7.61-1.72Z"/>
  <path class="cls-8" d="M171.01,175.45c-10.6,2.64-19.74,.58-28.23-6.15,2.91-1.14,5.33-2.78,8.07-.29,3.08,2.8,7.09,3.12,10.76,2.44,4.16-.76,6.64,1.09,9.4,4Z"/>
  <path class="cls-8" d="M148.05,174.91c-9.47,1.16-18.29,1.67-26.18-4.13-.83-.61-2.32-1.15-1.73-2.04,.62-.92,2.44-1.66,3.55-.94,5.27,3.39,10.86,3.11,16.62,2,1.77-.34,2.4,1.6,3.71,2.25,1.33,.66,2.72,1.23,4.02,2.86Z"/>
  <path class="cls-6" d="M249.44,101.29c-5.2,1.54-10.08,1.15-14.94,1.07-1.39-.02-1.72-.82-1.27-1.81,.97-2.14-.99-5.94,1.86-6.42,2.78-.47,5.75-.58,8.6-1.13,1.37-.27,1.82-.02,2.03,1.37,.38,2.55,1.34,4.88,3.72,6.92Z"/>
  <path class="cls-1" d="M240.09,174.77c-3.21,.35-6.43,.58-9.66,.46l-.2-.1s-.22,.04-.22,.04c-.98-.19-1.97-.39-2.95-.58-2.93-.96-5.87-1.93-8.72-3.72,2.41-1.24,4.53-2.46,7.26-1.62,3.89,1.2,7.86,1.13,11.71-.13,1.88-.62,3.09-.19,4.49,1.07,1.07,.96,2.57,1.44,4.06,2.23-1.73,1.69-4,1.42-5.77,2.35Z"/>
  <path class="cls-6" d="M182.11,101.11c-.1,7.16-2.56,13.48-6.85,19.12-.51,.68-1.41,1.83-2.22,.63-.89-1.32-2.07-3.02-.39-4.57,1.48-1.37,2.25-2.9,2.11-4.9,1.17-3.27,.35-6.65,.55-9.98,1.73-2.04,4.91-2.18,6.81-.3Z"/>
  <path class="cls-6" d="M233.3,113.67c-.05,5.17-1,10.06-4.28,14.28-1.01-.13-.91-1.07-1.17-1.7-.97-2.42-1.4-5.03-3.12-7.17-.96-1.2-.9-2.37,.75-3.5,2.46-1.69,3.58-4.53,4.87-7.16,.45-.91,1.03-3.13,2.3-.42,.21,1.89,.43,3.78,.64,5.67Z"/>
  <path class="cls-13" d="M210.56,88.02c.43,1.43,.85,2.86,1.28,4.29-.11,.87-.19,1.74-.72,2.49-1.07,.95-1.73,2.17-2.23,3.49-1.18,.09-1.23,.89-1.11,1.79,0,0,.01-.02,.01-.02-.42-.02-.84-.03-1.26-.04,.18-1.53,.36-3.07,.54-4.6,.93,.52,1.79,.75,2.34-.51,.96-.95,1.92-1.97,1.03-3.42-.9-1.47-2.12-.49-3.2-.19-2.25,.61-4.49,1.3-6.73,1.93-.63,.18-1.42,.15-.91,1.18,.23,4.77,1.55,9.58-.55,14.25,.39-3.89,.03-7.74-.53-11.57-.69-4.64-.75-9.39-2.46-13.87-.65-1.69,1.48-5.36,2.91-5.02,1.94,.46,3.75-.21,5.61-.09,.46,.22,.91,.45,1.37,.67-2.51,1.05-5.42,.35-7.85,1.78,.02,.43,.04,.85,.05,1.28-.26,2.26-.45,4.77,.83,6.49,.61,.82,3.09,.23,4.73,.28-1.06,1.11-2.58,.87-3.87,1.31-.43,.15-.98,.28-.88,.89,.1,.64,.69,.6,1.11,.47,3.18-.98,6.53-1.5,9.45-3.25,.35,0,.69,0,1.04-.01Z"/>
  <path class="cls-8" d="M222.62,174.72c-7.93,1.66-15.52,.76-22.74-2.8-.89-.44-2.73-.98-2.12-2.04,.73-1.27,2.23-2.42,4.25-1.27,2.62,1.49,5.36,2.79,8.47,2.97,.66,.04,1.36,.29,1.96,.14,3.97-.99,6.92,1.46,10.18,3.01Z"/>
  <path class="cls-6" d="M253.31,81.95c.22-.19,.28-.3,.36-.31,9.56-1.31,8.13-3.56,9.63,7.11,.17,1.21,.28,2.48,.15,3.68-.12,1.07,.91,2.65-.75,3.14-1.5,.45-3.65-1.71-3.74-3.4-.22-4.25-2.57-7.34-5.65-10.24Z"/>
  <path class="cls-13" d="M175.3,101.41c-.19,3.32,.62,6.71-.55,9.98-.86-.64-.4-1.62-.64-2.43,.24-3.37-.27-6.64-1.28-9.84-.28-.88-.61-1.79,.29-2.55,.14,.02,.28,.02,.42,.02,4.92,.52,9.4-1.16,13.87-2.85,.33-.19,.66-.39,.99-.58,.95,2.41,1.72,4.87,2.91,7.21,.89,1.75,2.28,3.61,1.63,5.89-2.23-2.21-2.85-5.34-4.44-7.91-.24-.24-.48-.48-.71-.72,.02-.45,.14-1.08-.59-.93-3.76,.78-7.51,1.62-11.26,2.44-1.65,.36-1.19,1.31-.63,2.28Z"/>
  <path class="cls-6" d="M178.48,130.7c-.5,.26-.87,2.17-1.57,.11-.76-2.24-1.54-4.47-2.35-6.69-.22-.6-.26-1.14,.22-1.56,2.66-2.27,4.03-5.54,6.36-8.43,.61,1.48,.22,2.81,.37,4.07-1.28,4.1-.31,8.74-3.03,12.49Z"/>
  <path class="cls-6" d="M145.16,105.38c2.56-1.51,5.37-.53,8.06-.83,.96,.99,2.38,1.9,2.24,3.36-.22,2.22-.84,4.41-1.43,6.58-.16,.57-.78,.24-1.14-.07-2.99-2.66-6.22-5.11-7.72-9.04Z"/>
  <path class="cls-8" d="M142.99,157.2c-5.31,3.6-10.6,1.77-15.51-.51,5.46-3.93,12.7-3.73,15.51,.51Z"/>
  <path class="cls-8" d="M252.62,104.86c1.88,.39,3.05,1.54,4.41,2.35,.74,.44,1,1.02,.82,1.9-.5,2.52-.59,5.06,.46,8.09-4.93-3.13-6.14-7.25-5.69-12.34Z"/>
  <path class="cls-5" d="M159.45,159.18c-2.63-.92-4.85-1.62-7.19-1.68-1.24-.03-1.42-.67-.91-1.67,.34-.67,.57-1.42,1.03-1.99,.69-.86,1.39-2.11,2.57-1.96,1.16,.15,1.62,1.39,1.9,2.51,.42,1.64,1.44,2.98,2.59,4.8Z"/>
  <path class="cls-8" d="M74.93,157.03c4.66-2.16,9.02-1.62,13.56-.12-4.54,4.59-8.9,1.56-13.56,.12Z"/>
  <path class="cls-8" d="M100.17,156.4c5.07-1.55,9.04-1.27,13.13,1.38-2.96,1.4-5.39,2.72-8.23,.38-1.06-.88-2.73-1.01-4.91-1.76Z"/>
  <path class="cls-4" d="M224.88,85.09c3.17-1.06,6.25-2.42,9.26-3.88,1.38-.67,2.44-.88,3.55,.24,.43,1.26-.42,1.39-1.3,1.53-2.02,.34-4.08,.56-6.05,1.11-.88,.24-2.55-.05-2.3,1.82"/>
  <path class="cls-2" d="M262.71,122.94c1.36,1.6,2.02,3.31,3.45,4.43,.67,.52,.84,1.47-.07,1.85-1.69,.69-1.95,2.42-2.9,3.64-1.91-2.08-2.1-5.21-.49-9.91Z"/>
  <path class="cls-2" d="M244.64,153.8c1.39-2.84,4.34-4.31,8.23-4.09q-1.47,4.9-8.23,4.09Z"/>
  <path class="cls-1" d="M229.27,157.69c-.96-.43-.91-.86,0-1.28,3.26-.82,6.46-2.02,10.78-1.39-3.8,2.2-6.59,5.03-10.79,2.67Z"/>
  <path class="cls-13" d="M185.5,101.58c.21-.53,.42-1.05,.63-1.58,.38,0,.75,0,1.13,0-2.17,4.18-1.26,8.62-1.09,13,.02,.33,.04,.65,.06,.98-.04,.49-.27,.61-.69,.35,.24-1.39-1.93-1.08-1.72-2.45,.18-1.19,.36-2.39,.53-3.58,0-1.17-.01-2.34-.02-3.51-.39-.68-.02-1.3,.16-1.93,.77-.08,1.1-.52,1.01-1.28Z"/>
  <path class="cls-2" d="M261.43,139.05c1.99,5.06-3.08,4.82-5,6.95,.33-3.22,1.59-5.78,5-6.95Z"/>
  <path class="cls-13" d="M178.48,130.7c2.71-3.75,1.74-8.39,3.03-12.49,.39,.19,.79,.39,1.18,.58-.01,1.37,.13,2.75-.34,4.08-.11,.11-.17,.23-.19,.38-1.24,2.39,.05,5.06-.81,7.5-.96-.02-1.91-.04-2.87-.05Z"/>
  <path class="cls-14" d="M233.3,113.67c-.21-1.89-.43-3.78-.64-5.67,.26-.32,.52-.63,.78-.95,.97,2.11,1.15,4.34,.97,6.62-.37,0-.74,0-1.11,0Z"/>
  <path class="cls-12" d="M164.55,157.68c.85-.12,1.87-.51,1.69,1.05-2.03,.43-3.81,1.83-6.16,1.63,.85-1.95,3.01-.94,4.06-2.11,.28-.12,.58-.23,.42-.64v.07Z"/>
  <path class="cls-14" d="M227.05,174.59c.98,.19,1.97,.39,2.95,.58-1.01-.05-2.15,.53-2.95-.58Z"/>
  <path class="cls-7" d="M183.25,103.42c.11,.86,.03,1.7-.39,2.48-.1-.86-.36-1.75,.39-2.48Z"/>
  <path class="cls-13" d="M164.65,123.92c.23,.41,.58,.83-.11,1.15-.79,.08-.74-.59-.93-1.05,.35-.03,.7-.07,1.04-.1Z"/>
  <path class="cls-13" d="M164.56,157.61c.17,.41-.13,.52-.42,.64-.25-.23-.5-.46-.74-.69,.4-.21,.81-.72,1.16,.05Z"/>
  <path class="cls-11" d="M159.32,105.58c.16-.09,.32-.19,.48-.28-.04,.21-.07,.42-.1,.63-.13-.11-.26-.22-.38-.35Z"/>
  <path class="cls-6" d="M192.93,106.26c.66-2.28-.73-4.14-1.63-5.89-1.19-2.34-1.96-4.8-2.91-7.21-.76-4.91-2.23-9.72-1.2-14.82,.88-4.32,3.56-6.98,8.24-7.59,4.76-.62,8.41,1.19,10.11,4.9,.59,1.28,.59,2.14-.97,2.48-1.87-.13-3.67,.55-5.61,.09-1.43-.34-3.56,3.33-2.91,5.02,1.72,4.48,1.77,9.22,2.46,13.87,.57,3.83,.93,7.67,.53,11.57,2.1-4.67,.78-9.49,.55-14.25,2.48-.2,4.93-.56,7.32-1.3,.05,.77,.1,1.53,.15,2.3-.18,1.53-.36,3.07-.54,4.6-.31,4.06-1.33,7.99-2.32,11.92-.83,1.59-1.34,3.37-2.88,4.54-.45,.34-1.15,.98-.45,1.78l.03-.04c-.77-.44-1.53-.09-2.29,.02,0,0-.01-.01-.01-.01,.77-1.2-.24-2.09-.61-3.03-.4-1.01-.76-1.9-.09-2.89,1.03-.89,1.61-1.92,1.16-3.45-1.27,.66-1.21,1.98-1.87,2.83-1.6,.53-1.48-.94-2-1.7-.82-1.2-.34-3.18-2.24-3.72v-.02Z"/>
  <path class="cls-4" d="M159.8,88.67c.08,.66,.12,1.32,.25,1.97,.87,4.35,.87,4.34-3.36,4.94-6.54,.94-13.13,1.15-19.71,1.52-1.89,.11-2.38-.3-1.52-2.15,.86-1.85,1.54-3.71,4.05-3.65,1.1-.16,2.23-.22,3.3-.5,3.54-.92,7.37-.43,10.74-2.17,1.17-.24,2.48,.56,3.55-.46,.39,0,.78,.02,1.17,.03,.51,.16,1.01,.31,1.52,.47Z"/>
  <path class="cls-4" d="M121.95,92.65c1.57-.23,1.63-.21,1.25,.68-1.06,2.45-2.83,4.14-5.48,4.74-2.47,.56-2.72,1.2-1.33,3.25,.53,.79,1.91,1.49,1.22,2.55-.56,.86-1.9,.49-2.93,.52-3.73,.09-7.32-.28-10.6-2.31-1.85-1.14-2-2.2-.29-3.57,3.15-2.52,6.7-4.1,10.73-4.51-.17,.29-.34,.58-.51,.87-1.79,.64-3.69,1.01-5.32,2.08-.54,.24-1.5,.43-1.02,1.16,.44,.67,1.05-.12,1.52-.48,3.78-1.41,7.65-2.51,11.6-3.33,1.26,.08,1.11-.84,1.16-1.63Zm-14.59,5.56c-2.27,1.78-1.15,2.75,.59,3.62,.49,.24,.98,.83,1.4,.16,.44-.71-.27-.95-.79-1.11-1.34-.39-1.74-1.23-1.2-2.67Z"/>
  <path class="cls-4" d="M185.33,84.11q1.64,7.15-5.65,7.87c-.65,.06-1.31,.13-1.95,.25-5.33,.99-6.66-.38-5.86-6.1,3.43-.55,6.86-1.09,10.29-1.64,.88,.18,1.74,.25,2.48-.42,.23,.01,.45,.03,.68,.04Z"/>
  <path class="cls-4" d="M203.71,88.61c-1.64-.05-4.12,.54-4.73-.28-1.28-1.73-1.09-4.24-.83-6.49,3.18-.08,6.24-1.31,9.46-1.1-.52,2.06,1.28,3.59,1.28,5.53-.2,1.39-1.28,1.17-2.17,1.13-1.21-.05-2.2,.29-3,1.21Z"/>
  <path class="cls-4" d="M234.83,76.3c.56,1.19,.5,2.03-.94,2.64-4.13,1.74-8.12,3.83-12.47,5.06-.41-1.82-.75-3.65-.58-5.54,3.76-.69,7.52-1.39,11.28-2.08,.9,0,1.79-.48,2.7-.07Z"/>
  <path class="cls-4" d="M157.11,88.17c-1.07,1.02-2.38,.22-3.55,.46-1.84,.03-3.66-.03-5.51,.39-2.78,.63-5.64,.86-8.47,1.26,2.27-1.97,5.18-1.37,7.79-1.9,3.93-.79,7.9-1.42,11.91-2.13,.01,1.84-1.99,.65-2.17,1.92Z"/>
  <path class="cls-6" d="M149.77,99.44c-2.35,1.89-5.39,.59-7.91,1.7-.62-2.38,.2-3.32,2.69-2.96,.99,.15,2.06-.18,3.09-.29,1.18-.13,2.1,.09,2.13,1.54Z"/>
  <path class="cls-7" d="M139.57,90.28c2.83-.4,5.69-.63,8.47-1.26,1.86-.42,3.67-.37,5.51-.39-3.37,1.74-7.2,1.25-10.74,2.17-1.07,.28-2.2,.34-3.3,.5,.02-.34,.04-.68,.06-1.02Z"/>
  <path class="cls-7" d="M232.12,76.38c-3.76,.69-7.52,1.39-11.28,2.08,.15-.38,.3-.76,.45-1.14,1.86-.66,3.95-.3,5.73-1.29,0,0-.03,.02-.03,.02,.93-.01,1.91,.31,2.71-.46,.44-.07,.98,0,1.3-.25,2.31-1.71,.79,.66,1.12,1.04Z"/>
  <path class="cls-6" d="M180.55,93.45c.18,.76,.36,1.32-.84,1.52-1.84,.3-3.65,.68-5.52,.45,0-.39-1.79-.71-.19-1.07,2.14-.48,4.28-1.32,6.55-.89Z"/>
  <path class="cls-7" d="M182.17,84.48c-3.43,.55-6.86,1.09-10.29,1.64,.02-.32,.04-.64,.06-.96,1.48-.52,3.18-.15,4.53-1.15,0,0-.03,.02-.03,.02,1.84-.05,3.68-.1,5.53-.15,.07,.2,.14,.4,.2,.61Z"/>
  <path class="cls-10" d="M207.6,80.75c-3.22-.21-6.27,1.01-9.46,1.1-.02-.43-.03-.85-.05-1.28,3.12,.4,6.04-.9,9.09-1.05,.14,.41,.28,.82,.42,1.23Z"/>
  <path class="cls-4" d="M181.97,83.88c-1.84,.05-3.68,.1-5.53,.15,2.48-1.01,5.16-1.19,7.75-1.73,1.66-.34,1.06,1.01,1.14,1.81-.23-.01-.45-.03-.68-.04-.83-.92-1.75-.71-2.68-.19Z"/>
  <path class="cls-4" d="M121.95,92.65c-.05,.78,.1,1.71-1.16,1.63-2.08-1.42-4.01,.7-6.05,.25-.07-.18-.14-.36-.21-.54,2.35-1.13,4.87-1.3,7.42-1.34Z"/>
  <path class="cls-4" d="M207.18,79.52c-3.05,.15-5.97,1.45-9.09,1.05,2.43-1.43,5.33-.73,7.85-1.78,.32,.41,1.51-.69,1.24,.73Z"/>
  <path class="cls-4" d="M227.02,76.03c-1.78,.99-3.87,.63-5.73,1.29-.48-1.16,.41-1.15,1.08-1.18,1.55-.08,3.1-.08,4.65-.11Z"/>
  <path class="cls-4" d="M176.47,84.01c-1.36,1-3.06,.64-4.53,1.15,1.03-2.28,3.04-.71,4.53-1.15Z"/>
  <path class="cls-6" d="M182.89,94.09c-.74,.22-1.31,.17-1.3-.82,1.34-1.17,1.15,.1,1.3,.82Z"/>
  <path class="cls-4" d="M229.7,75.58c-.8,.77-1.78,.45-2.71,.46,.74-1.11,1.79-.43,2.71-.46Z"/>
  <path class="cls-11" d="M159.8,88.67c-.51-.16-1.01-.31-1.52-.47,.59-.12,1.28-.57,1.52,.47Z"/>
  <path class="cls-11" d="M114.01,94.85c.17-.29,.34-.58,.51-.87,0,0,.02,0,.02,0,.07,.18,.14,.36,.21,.54-.24,.11-.49,.22-.73,.32Z"/>
  <path class="cls-4" d="M287.78,65.74c1.14,.01,2.28,.02,3.42,.03-1.07,1.18-3.18,.06-3.99,1.82-.65,.71-1.48,.51-2.29,.45-.92-1.07-2.13-.6-3.17-.46-3.53,.48-7.09,.93-10.56,1.71-5.04,1.12-10.26,1.21-15.22,2.72l-4.59-.14c-.06-.13-.04-.24,.06-.33,7.86-1.23,15.72-2.44,23.58-3.68,4.26-.68,8.51-1.41,12.77-2.11Z"/>
  <path class="cls-4" d="M297.41,64.64c4.46-1.55,9.19-1.62,13.78-2.43,7.62-1.35,15.26-2.54,22.9-3.76,1.01-.16,2.07-.06,3.11-.08,.06,.15,.08,.3,.07,.46-5.93,.95-11.87,1.81-17.78,2.87-2.42,.44-5.1-.05-7.2,1.75-.5,.04-.99,.07-1.49,.11-.8-.05-1.58-.17-2.4-.14-3.7,.12-7.22,1.79-10.98,1.21Z"/>
  <path class="cls-7" d="M255.96,72.02c4.97-1.51,10.18-1.59,15.22-2.72,3.48-.77,7.03-1.23,10.56-1.71,1.04-.14,2.25-.61,3.17,.46-9.08,1.49-18.16,2.99-27.24,4.48-.15-.26-.33-.34-.56-.1-.38,.04-.75,.08-1.13,.11,0-.18,0-.35-.03-.53Z"/>
  <path class="cls-7" d="M312.28,63.45c2.1-1.8,4.78-1.31,7.2-1.75,5.91-1.07,11.85-1.93,17.78-2.87,.06,1.22-.96,1.02-1.62,1.16-6.53,1.36-13.25,1.64-19.7,3.5-1.12,.32-2.43,0-3.66-.03Z"/>
  <path class="cls-7" d="M297.41,64.64c3.76,.58,7.28-1.09,10.98-1.21,.83-.03,1.6,.09,2.4,.14-4.95,1.69-10.19,1.83-15.27,2.84-2.74,.54-5.54,.81-8.31,1.2,.81-1.76,2.92-.64,3.99-1.82,0,0-.03,.01-.03,.01,2.16,0,4.35,.14,6.27-1.16l-.03,.02Z"/>
  <path class="cls-10" d="M255.96,72.02c.02,.17,.03,.35,.03,.53-1.6,.86-3.46,.52-5.13,1.1-.41,.14-1.03,.12-1.07-.49-.03-.58,.63-.55,1-.75,.29,.02,.5-.06,.43-.41,0,0,.15-.11,.15-.11,1.53,.05,3.06,.09,4.59,.14Z"/>
  <path class="cls-6" d="M257.02,68.08c.83,1.12-.13,1.18-.82,1.38-.99,.28-1.99,.58-3.04,.34,.43-2.52,2.35-1.65,3.86-1.72Z"/>
  <path class="cls-11" d="M251.23,71.99c.06,.36-.14,.43-.43,.41,.15-.14,.29-.28,.43-.41Z"/>
  <path class="cls-10" d="M257.12,72.43c.24-.24,.42-.15,.56,.1-.19-.03-.38-.07-.56-.1Z"/>
  <path class="cls-4" d="M297.44,64.62c-1.92,1.3-4.11,1.16-6.27,1.16,.12-.75,.88-.4,1.24-.73,1.68-.14,3.35-.28,5.03-.43Z"/>
  <path class="cls-15" d="M235.3,70.41c.06,1.31,.11,2.61,.17,3.92-.81-1.27-.69-2.59-.17-3.92Z"/>
  <path class="cls-15" d="M221.01,88.55c-.09-.37-.18-.73-.27-1.1,.53,.26,.69,.61,.27,1.1Z"/>
  <path class="cls-15" d="M164.09,99.33c.34,.29,.55,.59,.12,.97-.04-.32-.08-.65-.12-.97Z"/>
  <path class="cls-13" d="M192.94,106.27c1.9,.53,1.42,2.52,2.24,3.72,.52,.76,.4,2.23,2,1.7,.24,.21,.48,.41,.72,.62-.67,.99-.31,1.89,.09,2.89,.37,.94,1.39,1.83,.61,3.03-1.25-.5-1.28-1.77-1.73-2.78,.04-.8-.37-1.17-1.14-1.19-1.1-2.61-2.68-5.04-2.8-7.99Z"/>
  <path class="cls-15" d="M180.5,152.43c.33-.04,.66-.08,.99-.12,.43,1.36,.87,2.71,1.3,4.07-.33,.41-.66,.83-.99,1.24-.27-1.77-1.39-3.32-1.3-5.18Z"/>
  <path class="cls-15" d="M187.25,100.01c-.38,0-.75,0-1.13,0,.36-.92,.72-1.86,1.65-2.38,.24,.24,.48,.48,.71,.72-.41,.55-.83,1.11-1.24,1.66Z"/>
  <path class="cls-15" d="M181.08,151.03c0-.9-.02-1.8-.02-2.7,.41,.89,.5,1.79,.02,2.7Z"/>
  <path class="cls-14" d="M196.79,136.49c-.72-.05-1.03-.46-.98-1.16,.59,.16,1.14,.36,.98,1.16Z"/>
  <path class="cls-15" d="M195.75,114.26c.77,.02,1.18,.39,1.14,1.19-.57-.22-1.13-.44-1.14-1.19Z"/>
  <path class="cls-15" d="M186.23,113.99c-.02-.33-.04-.65-.06-.98,.19,.32,.38,.63,.06,.98Z"/>
  <path class="cls-15" d="M182.15,123.26c.02-.15,.08-.28,.19-.38,0,0,.04,.25,.04,.25l-.22,.13Z"/>
  <path class="cls-6" d="M216.23,123.96c-.07,2.59-1.26,4.82-2.09,7.2-2.59,7.49-3.95,15.27-3.61,23.27,.04,.83,.35,1.66,.54,2.49,.14,.63,1.17,1.39-.05,1.84-.92,.34-1.2-.64-1.6-1.25-2.49-3.84-2.84-8.26-3.44-12.63-1.02-7.37-.23-14.73,0-22.09,.31-.49,.37-1.01,.17-1.56,.41-.96,.42-1.96,.33-2.97,.19-1.02,.47-2.03,.54-3.06,.11-1.52-.24-3.87,1.07-4.15,1.49-.32,1.31,2.34,2.37,3.34,.11,.3,.17,.66,.63,.43,0,0,0,0,0,0-.1,.47-.15,.89,.56,.56,0,0,.01,.02,.01,.02-.6,.76-.4,1.13,.56,1.12,0,0,.01,.02,.01,.02-.63,1.64,.75,2.67,1.21,3.98-.03,.76,.62,.81,1.08,1.05,.68,.7-.04,2.39,1.67,2.36l.02,.03Z"/>
  <path class="cls-6" d="M217.92,128.49c-.42,2.71,1.06,4.92,1.84,7.34,1.65,5.16,4.05,10.38,.95,15.79-1.02,1.79-2.15,3.51-2.74,5.5-.38,1.28-1.43,1.14-2.29,1.18-1.35,.07-2.65-.24-3.36-1.6-.54-1.04-.59-2.16-.63-3.31-.22-6.99,1.34-13.66,3.59-20.21,.4-1.16,.72-2.36,.94-3.56,.2-1.07,.87-1.16,1.71-1.11,0,0,0,0,0,0Z"/>
  <path class="cls-6" d="M194.64,133.64c-.34,3.18,1.52,5.84,2.08,8.81,1.02,5.42-.64,10.35-2.84,15.15-.4,.87-1.22,1.73-2.5,1.39-1.13-.29-1.82-1.09-2.04-2.13-1.39-6.5-1.34-12.9,1.52-19.05,.9-1.94,1.04-4.17,2.27-5.96,.94,.27,.35,1.72,1.49,1.76,0,0,.02,.03,.02,.03Z"/>
  <path class="cls-6" d="M168.52,133.6c.25,.51,.02,1.49,1.13,1.16,0,0,.01,.02,.01,.02-.73,1.27,.19,2.29,.54,3.39,1.72,5.33,2.28,10.69,.75,16.18-.43,1.55-.72,2.85-2.86,2.72-2.34-.15-1.57-1.91-1.91-3.11-.16-.54-.21-1.11-.32-1.67,.2-2.2,.35-4.39,.07-6.59,.14-1.68,.27-3.35,.41-5.03,.02-.22,.05-.44,.08-.66,.15-2.29,.29-4.57,.44-6.86,.66-.25,1.17,.09,1.67,.45Z"/>
  <path class="cls-15" d="M210.48,114.38c-1.07-1-.88-3.66-2.37-3.34-1.31,.28-.96,2.63-1.07,4.15-.07,1.03-.35,2.04-.54,3.06-.35,0-.69-.01-1.04-.02,.2-1.84,.42-3.68,.59-5.53,.04-.51,.37-1.64-.84-.65-.33-.04-.66-.08-.98-.12,.98-3.93,2-7.86,2.32-11.92,.42,.02,.84,.03,1.26,.05-.45,4.74,1.84,8.8,3.25,13.08-.48,.28-.49,.78-.57,1.25Z"/>
  <path class="cls-6" d="M205.2,112.05c1.2-.99,.88,.15,.84,.65-.16,1.84-.39,3.68-.59,5.53-.04,.33-.07,.66-.11,.99-.71,1.32-.37,2.74-.41,4.12-.23,1.94-.46,3.88-.68,5.81-.77-2.52-2.2-4.68-3.35-6.97-.69-1.36-.71-2.65,.01-3.97,0,0-.03,.04-.03,.04,2.98-.99,3.45-3.73,4.32-6.2Z"/>
  <path class="cls-5" d="M208.07,159.11c-2.29-.68-4.02-.86-5.78-.86-.62,0-1.36,.14-1.51-.83-.15-.97,3.56-5,4.56-4.92,.62,.05,.74,.56,.79,.99,.2,1.79,.98,3.39,1.94,5.63Z"/>
  <path class="cls-5" d="M180.5,152.43c-.09,1.86,1.03,3.41,1.3,5.18,0,0-.21,.06-.21,.06-.19-.02-.38-.03-.57-.05-.44-.15-.91-.25-1.33-.45-.97-.48-3.22,.84-2.78-1.53,.31-1.68,.96-3.77,3.59-3.21Z"/>
  <path class="cls-5" d="M172.92,156.85c-.8,.16-1.5,0-1.14-.75,.66-1.34-.05-3.74,1.88-3.92,1.2-.11,1.68,1.82,1.75,3.14,.12,2.12-1.78,1-2.5,1.53Z"/>
  <path class="cls-5" d="M224.27,157.01c-1.37,.24-2.73,.47-4.1,.71-.07-.25-.15-.5-.22-.75,.91-1.29,.89-3.07,2.08-4.24,1.24,.51,1.28,1.87,2.06,2.64,.06,.55,.12,1.09,.18,1.64Z"/>
  <path class="cls-5" d="M197.86,153.79c2.02,3.47,1.84,4.4-.73,4.67-.46,.05-.95,.23-1.33-.18-.53-.57-.01-1.08,.22-1.52,.52-.97,1.15-1.88,1.84-2.98Z"/>
  <path class="cls-15" d="M165.93,145.7c.27,2.2,.13,4.4-.07,6.59-.32-2.2-.39-4.4,.07-6.59Z"/>
  <path class="cls-15" d="M165.14,141.03c-.09-1.58-.05-3.15,.48-4.66-.1,1.56,.54,3.2-.48,4.66Z"/>
  <path class="cls-15" d="M224.27,157.01c-.06-.55-.12-1.09-.18-1.64,.24-.26,.49-.53,.73-.79,.75,.08,1.1,.51,1.09,1.26-.9-.11-1.11,.76-1.64,1.17Z"/>
  <path class="cls-15" d="M165.02,152.69c-.51-1.5-.51-2.99,0-4.49,0,1.5,0,2.99,0,4.49Z"/>
  <path class="cls-15" d="M204.93,123.35c.04-1.38-.3-2.81,.41-4.12-.05,1.38,.54,2.83-.41,4.12Z"/>
  <path class="cls-15" d="M168.52,133.6c-.5-.36-1-.7-1.67-.45,.03-.46,0-1.06,.65-.99,.78,.08,.98,.74,1.02,1.44Z"/>
  <path class="cls-15" d="M225.79,158.35c-.91,.08-1.82,.16-2.73,.24,.86-.71,1.79-.54,2.73-.24Z"/>
  <path class="cls-15" d="M219.06,130.3c.45,.22,1.1,.28,.89,1.06-.64-.06-.88-.46-.89-1.06Z"/>
  <path class="cls-15" d="M219.95,156.97c.07,.25,.15,.5,.22,.75-.26,.29-.64,.44-.84,.06-.29-.55,.17-.72,.61-.81Z"/>
  <path class="cls-15" d="M166.82,128.48c.53,.23,1.12,.41,1.12,1.16-.73-.03-1.13-.4-1.12-1.16Z"/>
  <path class="cls-15" d="M206.16,121.22c.2,.55,.15,1.07-.17,1.56,.06-.52,.11-1.04,.17-1.56Z"/>
  <path class="cls-15" d="M227.55,158.46l-.26,.09s-.25-.1-.25-.1c.17,0,.34,0,.51,0Z"/>
  <path class="cls-15" d="M166.41,140.01c-.03,.22-.05,.44-.08,.66,.03-.22,.05-.44,.08-.66Z"/>
  <path class="cls-15" d="M223.4,149.62c.1,.18,.09,.35-.04,.51-.04-.12-.09-.24-.1-.37,0-.04,.09-.1,.14-.14Z"/>
  <path class="cls-5" d="M181.02,157.63c.19,.02,.38,.03,.57,.05-.22,.27-.41,.24-.57-.05Z"/>
  <path class="cls-15" d="M165.87,131.89c.1-.26,.19-.52,.29-.78-.1,.26-.19,.52-.29,.78Z"/>
  <path class="cls-15" d="M191.02,161.12c-.3,.08-.6,.17-.91,.25,.3-.08,.6-.17,.91-.25Z"/>
  <path class="cls-13" d="M216.21,123.93c-1.7,.03-.99-1.66-1.67-2.36-.04-.68-.42-1.02-1.08-1.05-.46-1.31-1.85-2.33-1.21-3.98,2.39,1.89,3.84,4.28,3.96,7.39Z"/>
  <path class="cls-15" d="M207.78,100.08c-.12-.9-.07-1.7,1.11-1.79,.03,.85-.17,1.55-1.11,1.79Z"/>
  <path class="cls-13" d="M210.48,114.38c.08-.47,.09-.97,.57-1.25,.18,.55,1.09,1.08,.07,1.68-.47,.23-.53-.13-.63-.43Z"/>
  <path class="cls-13" d="M212.24,116.52c-.96,.01-1.15-.35-.56-1.12,.84,.05,.94,.46,.56,1.12Z"/>
  <path class="cls-13" d="M211.67,115.38c-.7,.33-.65-.09-.56-.56,.16-.05,.31-.09,.47-.14,.03,.23,.06,.46,.09,.69Z"/>
  <path class="cls-13" d="M164.55,125.08c1.39,.25,1.59,1.09,1.12,2.26-1.16-.36-1.38-1.19-1.12-2.26Z"/>
  <path class="cls-13" d="M165.69,127.37c.69-.31,.57,.19,.57,.57-.2,.01-.4,.03-.59,.04,0-.2,.01-.41,.02-.61Z"/>
  <path class="cls-15" d="M206.92,93.11c.26-.65,.65-1.17,1.42-.99,.74,.17,.48,.86,.53,1.36,.05,.53-.12,1.12,.54,1.42-.54,1.26-1.41,1.03-2.34,.51-.05-.77-.1-1.53-.15-2.3Z"/>
  <path class="cls-15" d="M184.33,104.79c0,1.17,.01,2.34,.02,3.51-.49-1.17-.64-2.34-.02-3.51Z"/>
  <path class="cls-15" d="M185.5,101.58c.09,.77-.24,1.2-1.01,1.28-.16-.82,.43-1.05,1.01-1.28Z"/>
  <path class="cls-13" d="M205.2,112.05c-.86,2.47-1.33,5.22-4.32,6.2-.7-.8,0-1.44,.45-1.78,1.55-1.18,2.05-2.95,2.88-4.54,.33,.04,.66,.08,.98,.11Z"/>
  <path class="cls-13" d="M197.19,111.69c.66-.85,.6-2.17,1.87-2.83,.46,1.53-.12,2.56-1.16,3.45-.24-.21-.48-.41-.72-.62Z"/>
  <path class="cls-7" d="M114.01,94.85c.24-.11,.49-.22,.73-.32,2.04,.45,3.97-1.68,6.05-.25-3.95,.82-7.82,1.92-11.6,3.33-.17-.23-.33-.45-.5-.68,1.63-1.07,3.52-1.44,5.32-2.08Z"/>
  <path class="cls-7" d="M107.36,98.21c-.54,1.45-.14,2.28,1.2,2.67,.52,.15,1.23,.4,.79,1.11-.42,.67-.92,.08-1.4-.16-1.75-.87-2.86-1.84-.59-3.62Z"/>
  <path class="cls-7" d="M109.19,97.61c-.47,.36-1.08,1.14-1.52,.48-.48-.73,.48-.92,1.02-1.16,.17,.23,.33,.45,.5,.68Z"/>
  <path class="cls-15" d="M181.97,83.88c.94-.52,1.85-.73,2.68,.19-.74,.67-1.6,.6-2.48,.42-.07-.2-.14-.4-.2-.61Z"/>
  <path class="cls-15" d="M213.46,120.51c.66,.04,1.04,.38,1.08,1.05-.47-.24-1.11-.3-1.08-1.05Z"/>
  <text class="cls-16" transform="translate(126.34 30.81)"><tspan x="0" y="0">3 mi kp cha hon chnh</tspan></text>
</svg>