<svg width="50" height="50" viewBox="0 0 50 50" fill="none" xmlns="http://www.w3.org/2000/svg">
<path d="M29.1172 12.8109C32.231 13.9442 35.0616 14.0216 35.4394 12.9836C35.8172 11.9457 33.5991 10.1855 30.4853 9.05212C27.3714 7.91878 24.5408 7.84144 24.1631 8.87939C23.7853 9.91733 26.0033 11.6775 29.1172 12.8109Z" stroke="#484848" stroke-width="0.5"/>
<path d="M34.4641 20.1962C36.1209 17.3264 36.6886 14.5523 35.7321 14C34.7755 13.4477 32.6568 15.3264 31 18.1962C29.3432 21.0659 28.7755 23.84 29.7321 24.3923C30.6886 24.9446 32.8073 23.0659 34.4641 20.1962Z" stroke="#484848" stroke-width="0.5"/>
<path d="M18.5133 30.7962C20.4171 29.1987 21.5288 27.3892 20.9963 26.7546C20.4638 26.12 18.4887 26.9006 16.5849 28.4981C14.6811 30.0955 13.5694 31.9051 14.1019 32.5397C14.6344 33.1743 16.6094 32.3937 18.5133 30.7962Z" stroke="#484848" stroke-width="0.5"/>
<path d="M13.3582 37.2547C14.2082 34.9193 14.2662 32.7964 13.4877 32.513C12.7093 32.2297 11.3891 33.8932 10.5391 36.2286C9.68908 38.564 9.63108 40.6869 10.4095 40.9703C11.188 41.2536 12.5082 39.5901 13.3582 37.2547Z" stroke="#484848" stroke-width="0.5"/>
<path d="M26.4618 15.6742C26.173 12.3731 25.0469 9.77508 23.9465 9.87135C22.8462 9.96762 22.1883 12.7218 22.4771 16.0228C22.7659 19.3239 23.892 21.922 24.9924 21.8257C26.0927 21.7294 26.7507 18.9753 26.4618 15.6742Z" stroke="#484848" stroke-width="0.5"/>
<path d="M33.2472 26.2498C31.7665 25.0073 30.1344 24.5145 29.6019 25.1491C29.0694 25.7837 29.8381 27.3054 31.3188 28.5479C32.7996 29.7904 34.4317 30.2832 34.9642 29.6486C35.4967 29.014 34.728 27.4923 33.2472 26.2498Z" stroke="#484848" stroke-width="0.5"/>
<path d="M37.8481 32.0311C36.8816 30.3571 35.5165 29.3358 34.799 29.75C34.0816 30.1642 34.2835 31.8571 35.25 33.5311C36.2165 35.2051 37.5816 36.2264 38.299 35.8122C39.0165 35.398 38.8146 33.7051 37.8481 32.0311Z" stroke="#484848" stroke-width="0.5"/>
<path d="M40.622 38.685C39.9609 36.8686 38.7939 35.6258 38.0154 35.9091C37.2369 36.1925 37.1418 37.8947 37.8029 39.7111C38.464 41.5275 39.6311 42.7703 40.4095 42.487C41.188 42.2036 41.2831 40.5014 40.622 38.685Z" stroke="#484848" stroke-width="0.5"/>
<path d="M24.4754 26.4754C26.1071 26.1877 27.3132 25.2931 27.1693 24.4772C27.0255 23.6614 25.5861 23.2332 23.9544 23.5209C22.3227 23.8087 21.1166 24.7033 21.2605 25.5191C21.4043 26.3349 22.8437 26.7631 24.4754 26.4754Z" fill="#484848"/>
</svg>
