<svg width="50" height="50" viewBox="0 0 50 50" fill="none" xmlns="http://www.w3.org/2000/svg">
<mask id="mask0_56_73" style="mask-type:luminance" maskUnits="userSpaceOnUse" x="13" y="13" width="24" height="24">
<path d="M37 13H13V37H37V13Z" fill="white"/>
</mask>
<g mask="url(#mask0_56_73)">
<path d="M19.25 13.9792C19.25 13.7147 19.4647 13.5 19.7292 13.5H30.2708C30.5353 13.5 30.75 13.7147 30.75 13.9792C30.75 14.2437 30.5353 14.4583 30.2708 14.4583H19.7292C19.4647 14.4583 19.25 14.2437 19.25 13.9792ZM16.8542 19.25H33.1458C33.4103 19.25 33.625 19.0353 33.625 18.7708C33.625 18.5063 33.4103 18.2917 33.1458 18.2917H16.8542C16.5897 18.2917 16.375 18.5063 16.375 18.7708C16.375 19.0353 16.5897 19.25 16.8542 19.25ZM36.5 30.2708C36.5 33.7055 33.7055 36.5 30.2708 36.5C26.8362 36.5 24.0417 33.7055 24.0417 30.2708C24.0417 26.8362 26.8362 24.0417 30.2708 24.0417C33.7055 24.0417 36.5 26.8362 36.5 30.2708ZM35.5417 30.2708C35.5417 27.3652 33.1775 25 30.2708 25C27.3642 25 25 27.3652 25 30.2708C25 33.1765 27.3642 35.5417 30.2708 35.5417C33.1775 35.5417 35.5417 33.1765 35.5417 30.2708ZM33.1458 29.7917H30.75V27.3958C30.75 27.1313 30.5353 26.9167 30.2708 26.9167C30.0063 26.9167 29.7917 27.1313 29.7917 27.3958V29.7917H27.3958C27.1313 29.7917 26.9167 30.0063 26.9167 30.2708C26.9167 30.5353 27.1313 30.75 27.3958 30.75H29.7917V33.1458C29.7917 33.4103 30.0063 33.625 30.2708 33.625C30.5353 33.625 30.75 33.4103 30.75 33.1458V30.75H33.1458C33.4103 30.75 33.625 30.5353 33.625 30.2708C33.625 30.0063 33.4103 29.7917 33.1458 29.7917ZM23.5625 35.5417H17.8125C15.9629 35.5417 14.4583 34.0371 14.4583 32.1875V27.3958C14.4583 25.5462 15.9629 24.0417 17.8125 24.0417H24.5208C24.7853 24.0417 25 23.827 25 23.5625C25 23.298 24.7853 23.0833 24.5208 23.0833H17.8125C15.4349 23.0833 13.5 25.0182 13.5 27.3958V32.1875C13.5 34.5651 15.4349 36.5 17.8125 36.5H23.5625C23.827 36.5 24.0417 36.2853 24.0417 36.0208C24.0417 35.7563 23.827 35.5417 23.5625 35.5417Z" fill="#F76A89" stroke="#F76A89" stroke-width="0.958333"/>
</g>
</svg>
