<?xml version="1.0" encoding="UTF-8"?>
<svg id="Layer_1" data-name="Layer 1" xmlns="http://www.w3.org/2000/svg" viewBox="0 0 414 200">
  <defs>
    <style>
      .cls-1 {
        fill: #f7b7d3;
      }

      .cls-2 {
        fill: #6a6258;
      }

      .cls-3 {
        fill: #00bff3;
      }

      .cls-4 {
        fill: #fff9b8;
      }

      .cls-5 {
        fill: #fff200;
      }

      .cls-6 {
        fill: #fbb040;
      }

      .cls-7 {
        fill: #fdfdfd;
      }

      .cls-8 {
        fill: #9ed2f1;
      }

      .cls-9 {
        fill: #aea8a1;
      }

      .cls-10 {
        fill: #b2c5b3;
      }

      .cls-11 {
        fill: #48443f;
      }

      .cls-12 {
        fill: #35312e;
      }

      .cls-13 {
        fill: #524d4b;
      }
    </style>
  </defs>
  <path class="cls-11" d="M285.92,154.91c-1.56,6.86-5.05,12.26-11.43,15.67-1.27,.68-2.25,2.08-3.12,3.33-5.62,8.03-13.57,10.15-22.42,10.19-4.21,.02-11.1,.27-15.31,.41-2.75,.1-5.49,.19-8.24,.28,.51-.28,1.01-.75,1.54-.8,4.1-.4,8.21-.72,13.03-1.12-2.1-1.51-3.68-2.41-4.95-3.59-1.05-.98-2.55-1.31-3.89-.8-6.21,2.38-12.14,2.5-17.16-2.86-.47-.5-1.59-.37-2.41-.53,3.33,3.75,10.76,7.69,15.44,8.91,.29,.08-.42,.27-.81,.55-.29,.2-.19,.45-.97,.1-4.57-2.09-10.79-1.38-15.33-.62l-1.37,.18-1.03,.09c-.02-.35-.04-.7-.06-1.06,2.85-.51,5.69-1.02,9.15-1.64-2.28-1.78-3.97-3.24-5.81-4.48-.68-.46-1.9-.68-2.7-.51-2.58,.56-5.09,1.54-7.68,1.97-4.19,.7-8.05-.09-10.98-3.55-1.88-2.22-2.26-2.22-4.9,.17,.84,.72,1.7,1.4,2.5,2.14,3.97,3.64,8.87,5.08,14.02,5.94l-.12,1.04-10.7-.62c-.32,.07-.64,.13-.96,.2-.49,.06-.98,.12-1.47,.18-.01-.38-.02-.76-.03-1.14,1.15-.25,2.31-.51,3.52-.77-2.36-1.87-4.62-3.36-6.49-5.25-1.44-1.45-2.55-1.56-4.38-.8-6.56,2.73-12.9,3.23-18.38-2.52-.38-.4-1.3-.29-1.97-.41-.09,.21-.18,.42-.26,.64,.73,.78,1.4,1.62,2.19,2.34,4.11,3.77,8.93,5.98,14.46,6.78,1.33,.19,2.58,1.02,3.87,1.55-1.6-.16-3.19-.31-4.79-.47-.18-.03-.37-.06-.55-.09l-.21,.04s-.18-.11-.18-.11c-.58-.14-1.16-.28-1.74-.42-4.37-2.25-8.71-.81-13.14-.09-5.94,.96-11.85,.71-17.74-1.01-1.9-.55-4.27,.23-6.37,.69-6.86,1.5-13.64,1.89-20.39-.58-.81-.29-1.84-.17-2.72,0-7.32,1.41-14.62,2.02-22.05,.56-2.02-.4-4.28,.45-6.44,.7-.51,.06-1.04,0-1.55,0-.06-.24-.11-.49-.17-.73,1.31-.41,2.61-.83,3.97-1.26-.56-2.05-4.22-1.48-3.72-4.38,9.02,6.71,18.99,5.78,29.57,3.76-1.86-1.43-3.57-2.4-4.83-3.79-2.08-2.3-4.02-1.89-6.6-.83-6.03,2.46-11.99,2.7-17.17-2.23-.22-.21-.62-.21-.94-.31,0-.14-.07-.21-.21-.2,.66-.65,1.22-1.53,2.01-1.92,3.04-1.48,6.16-2.81,9.58-4.35-3.04-1.6-5.81-2.73-8.99-2.31-.67-.07-1.33-.14-2-.21,.51-.3,1.02-.59,1.52-.89,.56-.34,1.11-.69,1.66-1.03l2.42,.08c.66,.5,1.29,1.07,2.02,1.45,1.7,.86,3.5,2.32,5.18,2.22,2.24-.14,4.4-1.53,6.98-2.53-4.43-2.44-8.55-1.68-12.68-1.01-.51,.08-1.07-.18-1.61-.29,.75-.46,1.48-1.25,2.27-1.32,4.22-.36,8.47-.99,12.48,1.23,.89,.49,2.03,.51,3.05,.75l.02,1.17c-7.48,2.02-14.57,4.99-21.7,8.47,3.79,3.7,7.97,4.32,12.3,3.01,4.65-1.41,9.15-3.31,13.69-5.08,3-1.17,5.94-2.48,9.53-3.98-2-1.02-3.38-1.73-4.77-2.45-.16-.05-.32-.11-.48-.16h.01c1-2.56,2.06,.5,3.08-.03,1.39,.66,2.8,1.9,4.15,1.83,1.99-.11,3.93-1.16,5.9-1.81,1.02-.26,2.05-.52,3.07-.78l.52,.41v1.14c-6.78,1.54-13.32,3.76-19.64,7.21,1.84,1.11,3.7,2.41,5.64,2.54,3.47,.23,7.14,.32,10.46-.57,6-1.61,11.81-3.98,17.69-6.04l.07-.86c-1.14-.58-2.22-1.6-3.42-1.78-2.89-.45-5.83-.55-8.75-.8,0-.38,.02-.76,.02-1.14,1.17-.12,2.35-.23,3.52-.35,.74-.2,1.47-.4,2.21-.59h.12c.59,.17,1.17,.34,1.76,.51-.09,.13-.19,.25-.27,.39-.02,.04,.03,.16,.08,.18,1.92,.95,3.84,1.91,5.78,2.82,.34,.16,.84,.26,1.18,.14,1.98-.7,3.94-1.47,5.91-2.21l-.02-.53c-1.88-.54-3.77-1.07-5.65-1.61,.02-.38,.03-.76,.05-1.13,1.93,.5,3.85,1.03,5.8,1.48,1.48,.34,2.98,.57,4.47,.85,.48,.12,.95,.24,1.58,.39-.54,.3-.88,.49-1.22,.67-7.49,2.72-14.98,5.44-22.87,8.3,5.37,3.49,8.37,4.13,13.59,2.36,6.98-2.36,13.86-5.04,20.77-7.6,.26-.1,.44-.4,1.18-1.08-2.31-.88-4.2-1.6-6.09-2.31l6.93-3.28c1.8,2.48-.59-.81,1.21,1.67l-.04,.04c-1.24,.34-2.48,.67-4.41,1.2,1.79,1.19,3.07,2.74,4.15,2.6,2.07-.26,4.03-1.47,6.03-2.28l1.32-.49c1.03,.17,2.05,.35,3.08,.52,.33-.15,.65-.29,.98-.44,0,0,.08-.07,.08-.07,.14-.12,.27-.25,.41-.37,.27-.23,.55-.46,.82-.69,.1-.04,.18-.11,.22-.21,2.2-1.04,4.41-2.06,6.59-3.14,.62-.31,1.15-.8,1.72-1.2,0,0-.08,0-.08,0,.64,.21,1.27,.43,1.91,.64,.33-.03,.66-.06,1-.1,1.35,.15,2.7,.31,4.05,.46-1.72,.14-3.45,.19-5.16,.45-1.34,.2-2.64,.66-3.96,1-1.86,.95-3.72,1.89-5.75,2.93,2.78,1.03,5.02,1.86,7.26,2.69,.59,.22,1.18,.44,1.77,.66-.26,.37-.51,.73-.77,1.1-4.69-2.65-9.68-3.28-14.83-1.87-3.89,1.06-7.69,2.44-11.52,3.7-1.85,.61-3.69,1.3-5.8,2.05,3.53,4.16,7.88,5.64,12.32,4.21,6.76-2.18,13.22-5.28,19.81-8l.08,1.79c-1.82,.73-3.64,1.46-5.6,2.24,1.93,3.2,4.31,5.07,7.61,4.86,3.15-.21,6.38-.61,9.37-1.58,5.59-1.81,11.04-4.09,16.91-6.31-5.38-5.08-11.35-3.9-17.01-3.18l1.35-3.65c3.47,2.69,7.62,2.32,11.21,1.31,5.73-1.61,10.94-2.08,16.25,1.16,1.14,.69,3.44,.57,4.64-.14,4.86-2.85,9.76-4.08,15.1-1.69,1.77,.79,2.37,.11,2.96-1.57,1.32-3.77,3.99-6.88,7.5-8.78,2.14-1.16,2.7-2.93,3.09-5.12,.51-2.87,1.19-5.76,2.24-8.47,.53-1.36,2.17-2.25,3.06-3.53,.37-.52,.43-1.85,.06-2.21-3.35-3.2-4.21-7.12-3.75-11.54,.17-1.64-.56-2.41-2.3-2.58-6.9-.66-12.8-3.44-17.24-8.9-1.14-1.4-2.23-1.7-3.76-1-.96,.44-1.95,.83-2.99,1.02-2.26,.42-3.93,1.26-4.93,3.66-.96,2.28-3.27,3.03-5.71,2.97-.82-.02-1.63-.15-2.37-.23-.15,.4-.31,.63-.25,.71,1.92,3.06,1.89,3.66-1.66,4.5-3.47,.82-7.14,1.39-10.68,1.21-4.54-.23-5.77-3.3-3.08-6.99,1.47-2.02,3.38-3.73,5.21-5.71-12.18-12.14-17.2-28.18-22.43-44.29-4.57-14.08-6.72-28.6-9.43-43.03-.14-.75-1.3-2.36,1-2.09,.28,1.49,.56,2.98,.84,4.48,2.14,11.28,3.36,22.75,7.25,33.68,2.2,6.18,3.64,12.63,5.67,18.88,3.15,9.68,7.52,18.75,13.91,26.75,1.16,1.45,2.34,2.9,3.65,4.21,.42,.43,1.41,.77,1.9,.56,1.99-.81,3.88-1.85,5.92-2.86-1.45-1.28-2.92-2.28-4.04-3.59-7.74-9.04-12.85-19.61-16.13-30.88-3.74-12.86-6.49-26.01-9.57-39.07-.96-4.06-1.56-8.21-2.33-12.32,1.71-.47,1.71,.83,1.91,1.89,1.55,8.05,2.79,16.17,4.71,24.12,2.44,10.08,4.8,20.25,8.38,29.94,3,8.13,6.37,16.36,12.11,23.16,1.66,1.96,3.7,3.61,5.66,5.29,1.25,1.07,2.19,.44,2.63-.96,.56-1.77,.97-3.59,1.53-5.35,3.03-9.48,12.94-9.82,17.53-4.39,.32,.38,.75,.67,1.15,1.02,2.04-.82,4.04-1.68,6.07-2.43,2.34-.86,3.47-2.21,3.63-4.97,.41-6.9,6.18-11.4,12.94-10.15,1.71,.32,3.36,1.77,4.69,3.06,1.01,.97,1.6,1.29,2.94,.66,10.35-4.84,20.74-9.59,31.13-14.35,7.95-3.64,15.91-7.27,23.89-10.83,.67-.3,1.59,0,2.4,.02-1.12,.56-2.25,1.11-3.36,1.7-1.76,.94-3.5,1.91-5.25,2.87,0,0,.01,0,.01,0-.51,.17-1.02,.34-1.53,.51,0,0,0,0,0,0l-1.01,.51h0c-1.01,.51-2.02,1.02-3.04,1.53,0,0,0,0,0,0-.51,.17-1.02,.35-1.53,.52h.01c-.77,.51-1.53,1.02-2.3,1.54l.04-.02c-.43,.17-.86,.34-1.29,.51,0,0,0,0,0,0-3.21,1.36-6.42,2.71-9.63,4.07h-.01c-3.01,1.25-6.08,2.38-9.02,3.77-4.29,2.03-8.5,4.25-12.74,6.39h0c-3.71,1.7-7.43,3.4-11.14,5.1h.02c-1.53,.87-3.05,1.75-4.58,2.63,0,.31,.02,.62,.03,.92-1.99,2.81-.05,5.21,.63,7.93,4.73-2.09,9.28-4.03,13.78-6.1,12.37-5.7,24.72-11.44,37.06-17.19,5.32-2.48,10.61-5.03,15.91-7.55,.53,.04,1.05,.08,2.3,.18-1.07,.75-1.53,1.19-2.08,1.44-12.59,5.84-25.19,11.67-37.8,17.47-5.72,2.63-11.5,5.14-17.18,7.84-.63,.3-1.2,1.47-1.21,2.24-.02,3.54,.12,7.08,.34,10.62,.06,.95,.32,2.09,.91,2.77,3.57,4.06,4.77,8.94,5.13,14.14,0,1.89,0,3.78,0,5.67l.93,5.75c.03,.08,.06,.17,.08,.25l-.13,.32-1.03,.57,.02-.02c-.08-.35-.17-.7-.25-1.05-.14-.29-.27-.59-.39-.84-.88,1.18-1.5,2.86-2.63,3.35-2.58,1.12-2.12,3-2.17,5.08-.14,6.08-1.79,11.34-8.28,13.6-.37,.13-.55,.8-.82,1.21,.18,.26,.36,.52,.55,.78,2.55-1.29,5.11-2.57,7.67-3.86l1.26,.99Zm-37.43-55.42s.01,0,.01,0c-1.36,.69-2.71,1.37-4.07,2.06l.04-.03c-.14,.13-.28,.27-.42,.4-.03,.38-.06,.76-.09,1.14-2.2,1.63-3.06,3.95-3.58,7.15,8.14-2.77,15.85-5.4,23.79-8.11-.96-2.48-1.71-4.5-2.54-6.49-.09-.21-.61-.25-.93-.37,0-.23,0-.46,0-.69,.26-.3,.52-.59,.78-.89-3.51,.98-6.74,2.43-9.94,3.97-.59,.28-1.03,.89-1.54,1.35l.03-.02-1.54,.52Zm-21.28,10.26c-3.31-.19-5.4,2.06-7.71,3.88-1.23,1.24-2.63,2.36-3.67,3.75-1.72,2.3-1.09,4.06,1.67,4.61,4.4,.87,8.59-.06,12.99-2.02-1-.87-1.7-1.58-2.5-2.15-1.62-1.16-1.65-2.03-.13-3.53,1.16-1.14,1.61-3.01,2.37-4.55,.41-.81,.75-1.77-.69-1.48-.85,.17-1.57,.97-2.34,1.49Zm49.11,30.98h-.04c.42,4.48,.84,8.96,1.29,13.68,3.7-1.62,5.65-4.63,6.31-8.67,.05-.32,.09-.64,.14-.96,1.24-5.12-2.37-12.48-8.35-16.13,.23,4.3,.44,8.19,.66,12.08Zm-9.58,27.76c2.62-1.13,5-2.54,6.03-5.45,.05-.14,.08-.28,.09-.42,.17-.2,.35-.4,.52-.6,.08-.1,.09-.2,.03-.31,2.86-5.44,2.67-11.22,2.13-17.37-4.17,1.74-6.17,4.88-7.58,8.54-1.62,5.27-3.24,10.55-5.02,16.31,1.46-.27,2.63-.48,3.8-.7Zm12.2-85.27c-1.11-2.41-2.94-3.69-5.35-3.92-5.03-.47-9.36,3.04-10.48,7.97-2.32,10.21,5.59,21.38,14.49,26.33-.33-2.77-.19-5.2-.96-7.27-1.38-3.68-3.2-7.22-5.05-10.7-1.38-2.6-1.22-6.68,1.04-8.52,1.85-1.51,4.09-2.54,6.32-3.88Zm-48.88,31.9c4.5,1.79,7.14,.52,8.56-4.32,.29-.97,.57-1.94,.8-2.93,1.09-4.63,3.48-8.12,8.16-9.73,.97-.33,1.83-.96,2.79-1.48-4.45-5.8-12.06-5.09-14.99,1.17-.89,1.89-1.4,3.96-2.01,5.98-1.11,3.68-2.16,7.38-3.31,11.31Zm-15.05,59.23c2.75,4.02,7.84,5.75,13.52,3.54,5.75-2.23,11.16-5.36,16.85-8.16-5.12-5.75-20.07-.75-30.37,4.62Zm52.13-67.23c.17,1.84,.12,3.1,.42,4.27,.98,3.93,2.4,7.61,5.2,10.72,3.69,4.1,7.14,8.42,11.17,13.21,.27-1.61,.63-2.62,.56-3.61-.36-5.64-1.98-10.83-6.21-14.79-3.42-3.2-7.03-6.2-11.14-9.8Zm-32.37,69.8c4.14,5.32,12.65,7.15,22.58,4.95,6.12-1.36,12.18-5.92,12.98-9.71-2.73,.2-5.49,.3-8.22,.64-1.06,.13-2.27,.54-3.04,1.24-6.13,5.5-15.25,6.14-21.51,1.33-.9,.5-1.83,1.02-2.78,1.55Zm28.13-12.7c-9.44,.28-16.08,6.29-24,10.34,4.36,4.14,8.84,3.15,13.18,1.75,5.77-1.86,9.58-5.72,10.82-12.09Zm-156.64,10.24c8.46,9.3,20.24,10.13,31.65,6.33-1.87-1.37-3.9-2.67-5.7-4.24-1.08-.94-1.89-1.15-3.32-.79-5.47,1.38-11.12,2.23-16.12-1.13-2.37-1.59-4.17-1.53-6.5-.17Zm58.97,6.38c-2.12-1.98-4.07-3.58-5.73-5.43-.99-1.11-1.8-1.13-3.05-.66-2.36,.87-4.78,1.59-7.19,2.33-4.83,1.48-9.27,.54-13.51-2.09-.79-.49-1.93-.42-2.9-.61-.06,.32-.12,.65-.18,.97,9.63,8.15,20.64,8.4,32.57,5.5Zm119.37-70.43c-.98,2.35-1.84,4.25-2.56,6.2-.26,.7-.52,1.68-.23,2.24,2.99,5.72,5.64,11.45,2.53,18.3,4.02-.98,5.06-4.04,5.33-7.06,.65-7.07,.71-14.14-5.07-19.68Zm-34.33-2.05c4.68,6.13,10.69,8.91,18.28,9.88-1.97-3.57-2.17-7.08-6.04-9.5-3.64-2.27-6.4-2.97-10.03-1.16-.59,.3-1.26,.44-2.22,.77Zm32.87-13.56c-7.18,2.02-7.86,3.28-5.62,9.81,.3,.88,.78,1.73,.87,2.63,.18,1.83,.65,3.85,.1,5.49-.76,2.26,.41,2.94,1.95,4.08,3.77-7.1,4.15-14.32,2.71-22.01Zm-21.41,75.67c-.06,.32-.13,.64-.19,.96,1.02,.17,2.05,.55,3.04,.47,1.21-.1,2.38-.66,3.59-.88,6.78-1.22,11.78-4.76,14.62-11.15,.51-1.16,.93-2.36,1.59-4.03-2.03,.94-3.35,1.99-4.75,2.11-3.09,.26-4.05,2.2-4.98,4.7-1.83,4.98-6.35,7.81-11.55,7.61-.46-.02-.92,.14-1.38,.22Zm-41.74-5.48c4.23,5.6,8.78,2.01,13.79,.95-4.86-2.74-9.31-2.76-13.79-.95Zm34.13-.39c-4.16-2.25-9.72-1.57-12.89,1.37,.54,.09,1.17,0,1.49,.29,3.36,2.97,6.34,1.34,9.33-.67,.54-.36,1.17-.57,2.06-.99Zm11.71-10.28c-3.68,1.72-6.42,5.23-7.05,8.92,1.09-.13,2.17-.17,3.2-.41,.66-.15,1.66-.44,1.81-.9,.79-2.44,1.35-4.95,2.04-7.62Zm8.8-17.14c-3.54,2.62-4.97,5.56-4.6,8.84,1.53-.98,3.68-1.64,4.43-3.04,.77-1.44,.17-3.63,.17-5.8Zm-9.13-27.69c.94-2.74,1.33-4.86-1.03-6.5-1.51,.69-2.97,1.37-4.93,2.27,2.23,1.58,3.97,2.81,5.97,4.23Zm6.31,13.77c-1.28,2.65-.42,5.47,2.42,8.38q1.18-4.34-2.42-8.38Zm-41.71-5.22c.11-.36,.27-.6,.23-.81-.03-.16-.3-.37-.46-.37-.16,0-.33,.23-.49,.36,.13,.15,.27,.31,.72,.82Z"/>
  <path class="cls-6" d="M196.33,21.1c.77,4.11,1.38,8.25,2.33,12.32,3.07,13.05,5.82,26.21,9.57,39.07,3.28,11.26,8.39,21.84,16.13,30.88,1.12,1.31,2.59,2.32,4.04,3.59-2.04,1.01-3.93,2.05-5.92,2.86-.49,.2-1.48-.14-1.9-.56-1.31-1.31-2.49-2.76-3.65-4.21-6.39-8-10.77-17.07-13.91-26.75-2.03-6.25-3.47-12.7-5.67-18.88-3.89-10.93-5.11-22.39-7.25-33.68-.28-1.49-.56-2.98-.84-4.48,2.36-.05,4.72-.1,7.08-.15Z"/>
  <path class="cls-4" d="M340.7,66.41c-5.3,2.52-10.59,5.07-15.91,7.55-12.34,5.75-24.7,11.49-37.06,17.19-4.49,2.07-9.05,4.01-13.78,6.1-.67-2.72-2.61-5.12-.63-7.93,4.9-2.16,9.82-4.27,14.69-6.5,11.09-5.09,22.15-10.25,33.24-15.35,6.02-2.77,12.07-5.49,18.11-8.23,2.2,2.06,2.15,4.54,1.34,7.17Z"/>
  <path class="cls-8" d="M206,166c-.42,1.13,.52-1.39,0,0,5.67-.72,11.78-1.7,17.16,3.38-5.87,2.22-11.32,4.5-16.91,6.31-2.99,.97-6.22,1.37-9.37,1.58-3.3,.22-5.68-1.65-7.61-4.86,1.96-.78,3.78-1.51,5.6-2.24,.9-.04,1.8-.08,2.7-.12,1.88,1.63,3.55,1.21,4.9-.66,.82-1.13,.9-1.15,1.54-2.4"/>
  <path class="cls-12" d="M192.84,157.95c-1.34-6.95-2.67-13.9-4.06-21.09-1.23,.08-2.61,.16-4.64,.29,1.49-4.28,2.85-8.21,4.21-12.14,.26-.02,.52-.03,.78-.05,2.24,3.46,4.47,6.93,6.7,10.39-.48,.41-.59,.59-.73,.61q-3.82,.6-3.18,4.56c.53,3.33,1.05,6.66,1.57,10,.11,.45,.23,.9,.34,1.35,.06,.15,.13,.3,.17,.46,.02,.07-.03,.16-.05,.24,.25,1.12,.5,2.24,.74,3.35,.06,.67,.12,1.34,.17,2.01-.68,0-1.36,0-2.04,.01Z"/>
  <path class="cls-8" d="M180.29,184.49c-1.29-.53-2.53-1.36-3.87-1.55-5.53-.8-10.35-3.01-14.46-6.78-.78-.72-1.46-1.56-2.19-2.34,.09-.21,.18-.42,.26-.64,.67,.13,1.59,.01,1.97,.41,5.48,5.75,11.82,5.25,18.38,2.52,1.83-.76,2.94-.64,4.38,.8,1.87,1.88,4.13,3.37,6.49,5.25-1.21,.27-2.37,.52-3.52,.77-1.25,.15-2.51,.31-3.76,.46-1.18,.43-2.94-1.22-3.6,1.03,0,0-.09,.07-.09,.07Z"/>
  <path class="cls-8" d="M82.53,173.92c.32,.1,.72,.11,.94,.31,5.19,4.93,11.14,4.7,17.17,2.23,2.58-1.05,4.52-1.47,6.6,.83,1.25,1.39,2.97,2.36,4.83,3.79-10.58,2.02-20.55,2.94-29.57-3.76,.01-1.13,.02-2.27,.03-3.4Z"/>
  <path class="cls-12" d="M207.95,158.91c-1.12,2.28-2.22,4.58-3.38,6.84-.64,1.25-1.29,2.52-2.11,3.65-1.35,1.86-3.02,2.29-4.9,.66-.41-.52-.81-1.03-1.17-1.49,1.6-.19,3.04-.37,4.49-.55,1.28-2.52,2.56-5.04,3.84-7.56,2.08-6.49,4.14-12.99,6.25-19.47,.74-2.29,1.54-4.57,2.48-6.77,.22-.53,1.14-.75,1.74-1.12,.27,.23,.55,.47,.82,.7-2.69,8.37-5.37,16.74-8.06,25.12Z"/>
  <path class="cls-8" d="M223.22,182.9c-4.68-1.22-8.33-4.06-11.67-7.81,.82,.16,1.95,.04,2.41,.53,5.03,5.36,10.95,5.24,17.16,2.86,1.59-.61,2.54-.5,3.76,.68,1.29,1.25,2.9,2.15,5.08,3.71-4.81,.4-8.92,.72-13.03,1.12-.53,.05-1.43-.27-1.94,.01"/>
  <path class="cls-4" d="M339.36,59.24c-6.04,2.74-12.09,5.46-18.11,8.23-11.08,5.1-22.14,10.27-33.24,15.35-4.87,2.23-9.79,4.34-14.69,6.5,0-.31-.02-.62-.03-.92,1.53-.88,3.05-1.76,4.58-2.65,0,0-.02,.01-.02,.01,3.73-1.62,7.46-3.23,11.19-4.86,.01,0-.03-.15-.05-.24,0,0,0,0,0,0,.55-.06,1.16,0,1.65-.21,6.48-2.94,12.95-5.92,19.4-8.93,.33-.15,.48-.67,.72-1.02,0,0,.01,0,.01,0,3.21-1.36,6.42-2.71,9.63-4.07h0c.43-.16,.86-.33,1.29-.5,0,0-.04,.02-.04,.02,.77-.52,1.53-1.03,2.3-1.55,0,0-.01,0-.01,0,.51-.17,1.02-.35,1.53-.52,0,0,0,0,0,0,1.01-.51,2.02-1.02,3.04-1.53,0,0,0,0,0,0,.34-.17,.67-.34,1.01-.51,0,0,0,0,0,0,.51-.17,1.02-.34,1.53-.51,0,0-.01,0-.01,0,.94-.23,1.91-.37,2.81-.71,2-.77,3.97-1.65,5.94-2.48-.14,.36-.29,.72-.43,1.08Z"/>
  <path class="cls-8" d="M84.91,165.14c3.19-.42,5.96,.71,8.99,2.31-3.43,1.54-6.54,2.87-9.58,4.35-.79,.39-1.35,1.26-2.01,1.92-.25-1.6-.55-3.19-.69-4.8-.01-.14,.96-.37,1.4-.53,.59-1.02,1.24-2.13,1.89-3.24Z"/>
  <path class="cls-13" d="M285.95,154.78c-.43-.29-.86-.58-1.29-.86,1.48-1.79,3.26-3.41,4.37-5.41,2.2-3.97,2.28-8.4,1.93-12.84,.34-.19,.69-.38,1.03-.57,1.04,7.5,.05,14.39-6.05,19.68Z"/>
  <path class="cls-13" d="M106.27,164.75c-.02-.39-.05-.77-.07-1.16,4.99-.49,9.98-1.3,14.98-1.35,2.94-.03,5.89,1.16,8.84,1.8-.7,.18-1.41,.36-2.11,.53-3.06-.31-6.12-.64-9.18-.88-.26-.02-.57,.56-.86,.86-1.02,.53-2.08-2.54-3.08,.03-.51-.1-1.01-.2-1.52-.3-1.34,0-2.68,0-4.02,0-.99,.16-1.99,.32-2.98,.47Z"/>
  <path class="cls-13" d="M158.86,164.92c.34-.19,.68-.38,1.22-.67-.63-.16-1.1-.27-1.58-.39,2.99-.08,5.98-.15,8.97-.22-.68,.32-1.35,.64-2.03,.96-2.2,.11-4.39,.22-6.59,.34Z"/>
  <path class="cls-13" d="M148.23,161.53c-.02,.38-.03,.76-.05,1.13-2.16,.18-4.32,.37-6.48,.55-.32-.2-.64-.4-.97-.6l-.16-.14c2.55-.31,5.1-.63,7.65-.94Z"/>
  <path class="cls-13" d="M200.91,184.31c.01-.35,.02-.7,.03-1.06,2.17,0,4.33-.02,6.5-.03,.02,.35,.04,.7,.06,1.06-2.2,0-4.39,.02-6.59,.03Z"/>
  <path class="cls-13" d="M203.68,160.47c-.25,.29-.5,.58-.74,.87-3.49-1.5-7.06-1.08-10.64-.42,1.32-.34,2.62-.8,3.96-1,1.7-.26,3.44-.31,5.16-.45,.76,.33,1.51,.66,2.27,1Z"/>
  <path class="cls-13" d="M180.65,164.05c-.44,.16-.88,.32-1.32,.49-1.92-.51-3.85-1.01-5.77-1.52,.33-.35,.67-.71,1-1.06,2.03,.7,4.06,1.4,6.09,2.1Z"/>
  <path class="cls-4" d="M339.79,58.16c-1.98,.83-3.94,1.71-5.94,2.48-.89,.35-1.87,.48-2.81,.71,1.75-.96,3.49-1.93,5.25-2.87,1.11-.59,2.24-1.13,3.36-1.7,.05,.46,.1,.91,.15,1.37Z"/>
  <path class="cls-13" d="M183.98,183.39c1.25-.15,2.51-.31,3.76-.46,.01,.38,.02,.76,.03,1.14-1.2,.1-2.39,.21-3.59,.31-.07-.33-.14-.66-.21-.99Z"/>
  <path class="cls-13" d="M85.94,163.11c-.5,.31-1,.63-1.51,.94-.5,.3-1.01,.6-1.52,.89-.17-.37-.34-.74-.51-1.11,1.18-.24,2.36-.48,3.55-.72Z"/>
  <path class="cls-13" d="M133.57,163.9c0,.38-.02,.76-.02,1.14-.68,.1-1.36,.2-2.04,.3,0-.38,0-.76,0-1.14,.69-.1,1.38-.2,2.06-.3Z"/>
  <path class="cls-13" d="M291.11,128.77c0-1.89,0-3.78,0-5.67,0,1.89,0,3.78,0,5.67Z"/>
  <path class="cls-13" d="M194.71,155.93c-.25-1.12-.5-2.24-.74-3.35,.25,1.12,.5,2.24,.74,3.35Z"/>
  <path class="cls-13" d="M192.84,157.95c.68,0,1.36,0,2.04-.01-.14,.18-.28,.35-.43,.53,0,0,.08,0,.08,0-.57-.17-1.13-.34-1.7-.51Z"/>
  <path class="cls-11" d="M183.98,183.39c.07,.33,.14,.66,.21,.99-1.27,.01-2.54,.02-3.81,.03,.66-2.24,2.43-.6,3.6-1.03Z"/>
  <path class="cls-13" d="M138.62,163.14c-.51,.14-1.02,.27-1.53,.41,.51-.14,1.02-.27,1.53-.41Z"/>
  <path class="cls-13" d="M189.25,183.89c.32-.07,.64-.13,.96-.2-.32,.07-.64,.13-.96,.2Z"/>
  <path class="cls-13" d="M193.85,151.86c-.11-.45-.23-.9-.34-1.35,.11,.45,.23,.9,.34,1.35Z"/>
  <path class="cls-13" d="M208.52,184.2c.46-.06,.93-.12,1.39-.18-.46,.06-.93,.12-1.39,.18Z"/>
  <path class="cls-13" d="M172.83,183.44c.58,.14,1.16,.28,1.74,.42-.58-.14-1.16-.28-1.74-.42Z"/>
  <path class="cls-13" d="M197.36,159.01c-.33,.03-.66,.06-1,.1,.33-.03,.66-.06,1-.1Z"/>
  <path class="cls-13" d="M184.7,164.13c-.33,.15-.65,.29-.98,.44,.33-.15,.65-.29,.98-.44Z"/>
  <path class="cls-13" d="M141.18,163.47c-.59-.17-1.17-.34-1.76-.51,.39-.16,.77-.33,1.16-.49,0,0,.16,.14,.16,.14,.19,.26,.37,.51,.56,.77l-.12,.09Z"/>
  <path class="cls-13" d="M186.23,162.8c-.04,.1-.12,.17-.22,.21,0,0,.04-.17,.04-.17l.17-.04Z"/>
  <path class="cls-13" d="M174.95,183.93c.18,.03,.37,.06,.55,.09-.18-.03-.37-.06-.55-.09Z"/>
  <path class="cls-13" d="M291.88,134.05c-.08-.23-.16-.47-.23-.7,.08,.23,.16,.47,.23,.7Z"/>
  <path class="cls-13" d="M185.19,163.7c-.14,.12-.27,.25-.41,.37,.14-.12,.27-.25,.41-.37Z"/>
  <path class="cls-6" d="M278.94,83.22c-2.23,1.34-4.47,2.37-6.32,3.88-2.26,1.85-2.41,5.92-1.04,8.52,1.85,3.48,3.67,7.02,5.05,10.7,.78,2.08,.63,4.5,.96,7.27-8.9-4.95-16.81-16.12-14.49-26.33,1.12-4.92,5.45-8.44,10.48-7.97,2.41,.23,4.24,1.5,5.35,3.92Z"/>
  <path class="cls-8" d="M106.27,164.75c.99-.16,1.99-.32,2.98-.47,1.34,0,2.68,0,4.02,0,.51,.1,1.01,.2,1.52,.3,0,0-.01,0-.01,0,.16,.05,.32,.11,.48,.16,1.39,.71,2.78,1.42,4.77,2.45-3.59,1.5-6.53,2.81-9.53,3.98-4.54,1.77-9.04,3.67-13.69,5.08-4.32,1.31-8.51,.69-12.3-3.01,7.15-3.49,14.26-6.46,21.76-8.48Z"/>
  <path class="cls-8" d="M131.51,165.34c.68-.1,1.36-.2,2.04-.3,2.92,.24,5.86,.35,8.75,.8,1.15,.18,2.18,1.11,3.26,1.7,.03,.31,.07,.63,.1,.94-5.89,2.05-11.69,4.43-17.69,6.04-3.31,.89-6.98,.79-10.46,.57-1.94-.13-3.8-1.43-5.64-2.54,6.32-3.44,12.86-5.67,19.64-7.21Z"/>
  <path class="cls-8" d="M158.86,164.92c2.2-.11,4.39-.22,6.59-.34,1.89,.72,3.78,1.44,6.09,2.31-.73,.69-.92,.99-1.18,1.08-6.91,2.56-13.79,5.24-20.77,7.6-5.23,1.77-8.22,1.13-13.59-2.36,7.89-2.86,15.38-5.58,22.87-8.3Z"/>
  <path class="cls-6" d="M230.06,115.12c1.15-3.93,2.2-7.63,3.31-11.31,.61-2.01,1.13-4.09,2.01-5.98,2.93-6.25,10.54-6.96,14.99-1.17-.96,.52-1.82,1.15-2.79,1.48-4.69,1.61-7.08,5.1-8.16,9.73-.23,.98-.52,1.96-.8,2.93-1.42,4.84-4.06,6.11-8.56,4.32Z"/>
  <path class="cls-8" d="M215,174.35c10.3-5.37,25.24-10.37,30.37-4.62-5.68,2.8-11.09,5.93-16.85,8.16-5.68,2.21-10.77,.48-13.52-3.54Z"/>
  <path class="cls-8" d="M194.78,168.39c-6.59,2.71-13.05,5.82-19.81,8-4.44,1.43-8.79-.05-12.32-4.21,2.11-.75,3.95-1.44,5.8-2.05,3.83-1.27,7.63-2.64,11.52-3.7,5.15-1.41,10.14-.77,14.83,1.87,0,0-.03,.09-.03,.09Z"/>
  <path class="cls-3" d="M267.13,107.13c4.11,3.6,7.72,6.6,11.14,9.8,4.24,3.97,5.85,9.16,6.21,14.79,.06,.99-.3,2-.56,3.61-4.03-4.79-7.47-9.11-11.17-13.21-2.81-3.11-4.22-6.79-5.2-10.72-.29-1.17-.25-2.43-.42-4.27Z"/>
  <path class="cls-1" d="M234.77,176.93c.95-.53,1.88-1.05,2.78-1.55,6.26,4.81,15.38,4.17,21.51-1.33,.77-.7,1.99-1.11,3.04-1.24,2.73-.34,5.49-.44,8.22-.64-.8,3.79-6.86,8.35-12.98,9.71-9.93,2.2-18.44,.38-22.58-4.95Z"/>
  <path class="cls-1" d="M262.9,164.23c-1.24,6.38-5.05,10.23-10.82,12.09-4.34,1.4-8.82,2.39-13.18-1.75,7.92-4.05,14.55-10.07,24-10.34Z"/>
  <path class="cls-8" d="M106.26,174.47c2.33-1.36,4.13-1.42,6.5,.17,5,3.36,10.65,2.51,16.12,1.13,1.43-.36,2.25-.15,3.32,.79,1.8,1.57,3.84,2.88,5.7,4.24-11.41,3.8-23.19,2.97-31.65-6.33Z"/>
  <path class="cls-4" d="M260.7,95.25c.32,.12,.84,.15,.93,.37,.83,1.99,1.58,4.01,2.54,6.49-7.94,2.71-15.65,5.33-23.79,8.11,.52-3.2,1.38-5.52,3.58-7.15,5.58-2.6,11.16-5.2,16.74-7.81Z"/>
  <path class="cls-8" d="M165.24,180.85c-11.93,2.9-22.94,2.65-32.57-5.5,.06-.32,.12-.65,.18-.97,.98,.19,2.11,.12,2.9,.61,4.23,2.63,8.68,3.57,13.51,2.09,2.41-.74,4.83-1.46,7.19-2.33,1.25-.46,2.05-.44,3.05,.66,1.67,1.86,3.62,3.46,5.73,5.43Z"/>
  <path class="cls-8" d="M207.44,183.23c-2.17,0-4.33,.02-6.5,.03-5.11-.86-9.98-2.3-13.93-5.92-.8-.74-1.66-1.42-2.5-2.14,2.64-2.4,3.02-2.39,4.9-.17,2.93,3.46,6.79,4.26,10.98,3.55,2.64-.44,5.17-1.44,7.8-2,.8-.17,1.9,.07,2.59,.54,1.84,1.24,3.53,2.69,5.81,4.48-3.46,.62-6.3,1.13-9.15,1.64Z"/>
  <path class="cls-3" d="M284.61,110.42c5.78,5.54,5.72,12.61,5.07,19.68-.28,3.03-1.31,6.09-5.33,7.06,3.11-6.85,.46-12.58-2.53-18.3-.29-.56-.03-1.55,.23-2.24,.72-1.95,1.57-3.85,2.56-6.2Z"/>
  <path class="cls-3" d="M273.41,161.71c.06,.11,.06,.21-.03,.31-.17,.2-.35,.4-.52,.6,0,.14-.04,.28-.09,.42-1.44,.19-5.27,3.65-6.03,5.45-1.17,.22-2.34,.43-3.8,.7,1.77-5.76,3.4-11.03,5.02-16.31,2.26,.46,1.57-1.96,2.61-2.68,1.17-.81,2.4-1.55,3.6-2.32,.07,1.22,.59,2.65,.13,3.62-1.57,3.35-1.21,6.75-.9,10.2Z"/>
  <path class="cls-6" d="M250.28,108.37c.96-.33,1.63-.48,2.22-.77,3.63-1.82,6.39-1.11,10.03,1.16,3.86,2.41,4.06,5.93,6.04,9.5-7.6-.98-13.61-3.75-18.28-9.88Z"/>
  <path class="cls-6" d="M283.15,94.81c1.45,7.69,1.06,14.91-2.71,22.01-1.55-1.14-2.71-1.82-1.95-4.08,.55-1.64,.08-3.66-.1-5.49-.09-.9-.56-1.76-.87-2.63-2.24-6.52-1.56-7.79,5.62-9.81Z"/>
  <path class="cls-4" d="M230.24,109.74c-.77,1.54-1.22,3.41-2.37,4.55-1.52,1.5-1.5,2.37,.13,3.53,.8,.57,1.5,1.28,2.5,2.15-4.4,1.96-8.59,2.89-12.99,2.02-2.77-.54-3.39-2.31-1.67-4.61,1.04-1.39,2.43-2.51,3.67-3.75,.23,.22,.47,.44,.7,.67-.77,.99-1.81,1.88-2.22,3.01-.25,.71,.25,2.4,.76,2.55,1.52,.47,3.21,.4,4.83,.55,.02-.33,.05-.66,.07-1-.75-.04-1.52-.02-2.26-.14-.87-.14-1.71-.42-2.57-.63,.42-.86,.62-2.05,1.3-2.52,3.3-2.23,6.73-4.27,10.12-6.38Z"/>
  <path class="cls-3" d="M290.96,135.67c.35,4.43,.26,8.87-1.93,12.84-1.11,2-2.89,3.62-4.37,5.41-2.55,1.29-5.11,2.57-7.66,3.86-.18-.26-.36-.52-.55-.78,.27-.42,.45-1.08,.82-1.21,6.49-2.27,8.14-7.53,8.28-13.6,.05-2.08-.41-3.96,2.17-5.08,1.13-.49,1.75-2.17,2.63-3.35,.12,.26,.25,.55,.39,.84,.08,.35,.17,.7,.25,1.05,0,0-.02,.02-.02,.02Z"/>
  <path class="cls-3" d="M261.74,170.48c.46-.08,.93-.23,1.38-.22,5.2,.2,9.72-2.63,11.55-7.61,.92-2.51,1.89-4.45,4.98-4.7,1.4-.12,2.72-1.17,4.75-2.11-.66,1.68-1.08,2.88-1.59,4.03-2.84,6.39-7.84,9.93-14.62,11.15-1.21,.22-2.38,.78-3.59,.88-1,.08-2.03-.3-3.04-.47,.06-.32,.13-.64,.19-.96Z"/>
  <path class="cls-3" d="M284.01,144.77c-.05,.32-.09,.64-.14,.96-.83-.37-1.66-.73-2.86-1.27,.85,4.61,.37,5.78-2.63,6.51,0-2.51,.21-4.95-.1-7.32-.13-1.04-1.31-1.95-2.02-2.92,0,0,.04,0,.04,0,0-3.03,0-6.07,0-9.24,.89,.17,1.24,.13,1.35,.28,3.09,3.85,4.74,8.42,6.34,13.01Z"/>
  <path class="cls-5" d="M192.3,160.93c3.58-.66,7.15-1.08,10.64,.42-.92,1.85-.77,4.5-3.63,4.89-1.83,.1-3.67,.2-5.5,.3-2.24-.83-4.48-1.66-7.26-2.69,2.03-1.03,3.89-1.98,5.75-2.93Z"/>
  <path class="cls-3" d="M273.41,161.71c-.31-3.45-.67-6.86,.9-10.2,.46-.97-.06-2.4-.13-3.62-1.2,.77-2.43,1.5-3.6,2.32-1.04,.72-.35,3.14-2.61,2.68,1.41-3.66,3.41-6.8,7.58-8.54,.54,6.15,.73,11.93-2.13,17.37Z"/>
  <path class="cls-8" d="M220,165.01c4.48-1.81,8.93-1.8,13.79,.95-5.01,1.07-9.56,4.66-13.79-.95Z"/>
  <path class="cls-1" d="M254.13,164.62c-.89,.42-1.53,.63-2.06,.99-2.99,2.01-5.97,3.64-9.33,.67-.32-.28-.95-.19-1.49-.29,3.17-2.94,8.72-3.62,12.89-1.37Z"/>
  <path class="cls-3" d="M276.27,140.73c.7,.97,1.88,1.88,2.02,2.92,.3,2.38,.1,4.82,.1,7.32,2.99-.73,3.47-1.9,2.63-6.51,1.2,.53,2.03,.9,2.86,1.27-.65,4.04-2.61,7.05-6.31,8.67-.44-4.72-.87-9.2-1.29-13.67Z"/>
  <path class="cls-8" d="M88.41,162.93c.54,.1,1.1,.37,1.61,.29,4.13-.68,8.25-1.43,12.68,1.01-2.58,1-4.74,2.4-6.98,2.53-1.68,.1-3.48-1.36-5.18-2.22-.79-.4-1.45-1.03-2.18-1.56,0,0,.05-.05,.05-.05Z"/>
  <path class="cls-8" d="M141.7,163.21c2.16-.18,4.32-.37,6.48-.55,1.88,.54,3.77,1.07,5.65,1.61,0,.18,0,.36-.01,.54-1.96,.74-3.9,1.51-5.87,2.2-.34,.12-.83,.02-1.18-.14-1.94-.91-3.86-1.87-5.78-2.82-.05-.02-.1-.15-.08-.18,.07-.14,.18-.26,.27-.39,0,0,.12-.09,.12-.09,.17,.04,.31-.01,.41-.17Z"/>
  <path class="cls-3" d="M265.84,154.33c-.69,2.67-1.25,5.18-2.04,7.62-.15,.46-1.15,.75-1.81,.9-1.03,.23-2.11,.28-3.2,.41,.63-3.69,3.37-7.2,7.05-8.92Z"/>
  <path class="cls-3" d="M284.01,144.77c-1.6-4.59-3.25-9.16-6.34-13.01-.12-.15-.46-.11-1.35-.28,0,3.18,0,6.21,0,9.24-.21-3.89-.42-7.78-.66-12.08,5.98,3.65,9.59,11.01,8.35,16.13Z"/>
  <path class="cls-2" d="M230.24,109.74c-3.39,2.11-6.82,4.14-10.12,6.38-.69,.46-.88,1.66-1.3,2.52,.86,.22,1.7,.49,2.57,.63,.74,.12,1.5,.1,2.26,.14-.02,.33-.05,.66-.07,1-1.62-.14-3.31-.08-4.83-.55-.5-.15-1.01-1.84-.76-2.55,.4-1.12,1.44-2.02,2.22-3.01,2.34-1.52,4.67-3.03,7.01-4.55,.78-.52,1.5-1.32,2.34-1.49,1.43-.29,1.1,.67,.69,1.48Z"/>
  <path class="cls-3" d="M274.64,137.19c0,2.17,.6,4.35-.17,5.8-.75,1.41-2.9,2.06-4.43,3.04-.37-3.28,1.07-6.22,4.6-8.84Z"/>
  <path class="cls-8" d="M173.55,163.02c1.92,.51,3.85,1.01,5.77,1.52-2,.81-3.96,2.02-6.03,2.28-1.08,.13-2.36-1.42-4.15-2.6,1.93-.52,3.17-.86,4.41-1.2Z"/>
  <path class="cls-4" d="M310.78,70.51c-.24,.35-.39,.87-.72,1.02-6.45,3.01-12.92,5.98-19.4,8.93-.48,.22-1.09,.15-1.65,.21,4.24-2.14,8.45-4.36,12.74-6.39,2.94-1.39,6.01-2.52,9.02-3.76Z"/>
  <path class="cls-8" d="M117.87,164.55c.29-.3,.6-.88,.86-.86,3.06,.24,6.12,.57,9.18,.88-1.96,.65-3.9,1.7-5.9,1.81-1.34,.07-2.76-1.17-4.15-1.83Z"/>
  <path class="cls-3" d="M271.83,123.27q3.6,4.05,2.42,8.38c-2.84-2.91-3.7-5.74-2.42-8.38Z"/>
  <path class="cls-2" d="M260.7,95.25c-5.58,2.6-11.16,5.2-16.74,7.81,.03-.38,.06-.76,.09-1.14,.14-.13,.28-.27,.42-.4,0,0-.04,.03-.04,.03,1.36-.69,2.71-1.37,4.07-2.06,0,0-.01,0-.01,0,.51-.17,1.03-.35,1.54-.52,0,0-.03,.02-.03,.02,3.57-1.47,7.13-2.95,10.7-4.42v.69Z"/>
  <path class="cls-4" d="M260.7,94.56l-10.7,4.42c.51-.46,.95-1.06,1.54-1.35,3.19-1.53,6.42-2.99,9.94-3.97-.26,.3-.52,.59-.78,.89Z"/>
  <path class="cls-4" d="M289,80.68c.02,.08,.06,.23,.05,.24-3.73,1.63-7.46,3.24-11.19,4.86,3.71-1.7,7.43-3.4,11.14-5.09Z"/>
  <path class="cls-8" d="M194.78,168.39s.03-.09,.03-.09c.26-.37,.51-.73,.77-1.1,1.61-.02,3.22-.04,4.83-.06,.16,.29,.32,.59,.47,.88-1.45,.18-2.9,.35-4.49,.55,.36,.46,.77,.97,1.17,1.49-.9,.04-1.8,.08-2.7,.12-.03-.6-.05-1.19-.08-1.79Z"/>
  <path class="cls-3" d="M266.74,168.49c.76-1.8,4.59-5.26,6.03-5.45-1.03,2.91-3.41,4.32-6.03,5.45Z"/>
  <path class="cls-9" d="M320.42,66.44c-3.21,1.36-6.42,2.71-9.63,4.07,3.21-1.36,6.42-2.71,9.63-4.07Z"/>
  <path class="cls-4" d="M227.21,109.75c-2.34,1.52-4.67,3.03-7.01,4.55-.23-.22-.47-.44-.7-.67,2.31-1.82,4.4-4.07,7.71-3.88Z"/>
  <path class="cls-13" d="M200.41,167.13c-1.61,.02-3.22,.04-4.83,.06-.59-.22-1.18-.44-1.77-.66,1.83-.1,3.67-.2,5.5-.3,.37,.3,.73,.6,1.1,.89Z"/>
  <path class="cls-9" d="M277.88,85.75c-1.53,.88-3.05,1.76-4.58,2.65,1.53-.88,3.05-1.76,4.58-2.65Z"/>
  <path class="cls-4" d="M248.5,99.48c-1.36,.69-2.71,1.37-4.07,2.06,1.36-.69,2.71-1.37,4.07-2.06Z"/>
  <path class="cls-9" d="M328.51,62.38c-1.01,.51-2.02,1.02-3.04,1.53,1.01-.51,2.02-1.02,3.04-1.53Z"/>
  <path class="cls-9" d="M323.96,64.41c-.77,.52-1.53,1.03-2.3,1.55,.77-.52,1.53-1.03,2.3-1.55Z"/>
  <path class="cls-4" d="M250.03,98.97c-.51,.17-1.03,.35-1.54,.52,.51-.17,1.03-.35,1.54-.52Z"/>
  <path class="cls-9" d="M331.05,61.35c-.51,.17-1.02,.34-1.53,.51,.51-.17,1.02-.34,1.53-.51Z"/>
  <path class="cls-9" d="M325.48,63.9c-.51,.17-1.02,.35-1.53,.52,.51-.17,1.02-.35,1.53-.52Z"/>
  <path class="cls-7" d="M230.12,118.06c-.45-.52-.59-.67-.72-.82,.16-.13,.33-.36,.49-.36,.17,0,.43,.22,.46,.37,.04,.2-.11,.44-.23,.81Z"/>
  <path class="cls-13" d="M290.99,135.65c-.08-.35-.17-.7-.25-1.05,.08,.35,.17,.7,.25,1.05Z"/>
  <path class="cls-9" d="M329.53,61.87c-.34,.17-.67,.34-1.01,.51,.34-.17,.67-.34,1.01-.51Z"/>
  <path class="cls-9" d="M321.7,65.93c-.43,.17-.86,.34-1.29,.51,.43-.17,.86-.34,1.29-.51Z"/>
  <path class="cls-9" d="M244.47,101.51c-.14,.13-.28,.27-.42,.4,.14-.13,.28-.27,.42-.4Z"/>
  <path class="cls-13" d="M115.26,164.74c-.16-.05-.32-.11-.48-.16,.16,.05,.32,.11,.48,.16Z"/>
  <path class="cls-10" d="M272.86,162.61c.17-.2,.35-.4,.52-.6-.17,.2-.35,.4-.52,.6Z"/>
  <path class="cls-11" d="M113.27,164.29c-1.34,0-2.68,0-4.02,0,1.34,0,2.68,0,4.02,0Z"/>
  <path class="cls-11" d="M141.7,163.21c-.1,.16-.23,.21-.41,.17-.18-.26-.37-.51-.56-.77,.32,.2,.64,.4,.97,.6Z"/>
</svg>