<?xml version="1.0" encoding="utf-8"?>
<!-- Generator: Adobe Illustrator 27.0.0, SVG Export Plug-In . SVG Version: 6.00 Build 0)  -->
<svg version="1.1" id="Layer_1" xmlns="http://www.w3.org/2000/svg" xmlns:xlink="http://www.w3.org/1999/xlink" x="0px" y="0px"
	 viewBox="0 0 414 200" style="enable-background:new 0 0 414 200;" xml:space="preserve">
<style type="text/css">
	.st0{fill:#47413F;}
	.st1{fill:#322C27;}
	.st2{fill:#FBB040;}
	.st3{fill:#FFF8B8;}
	.st4{fill:#A3CEDA;}
	.st5{fill:#655F55;}
	.st6{fill:#737171;}
	.st7{fill:#BDB5B3;}
	.st8{fill:#BBAC97;}
	.st9{fill:#E8E0CB;}
	.st10{fill:#E9E5DD;}
	.st11{fill:#B5D3DA;}
	.st12{fill:#F7B7D3;}
	.st13{fill:#00BFF3;}
	.st14{fill:#ECEAEA;}
	.st15{fill:#FFF200;}
	.st16{fill:#101010;}
	.st17{fill:#4F4A48;}
	.st18{fill:#433E3A;}
	.st19{fill:#E6E2DA;}
	.st20{fill:#6C635C;}
	.st21{fill:#BAB8B9;}
	.st22{fill:#EDE9E0;}
	.st23{fill:#E7E0CC;}
	.st24{fill:#BAAD98;}
	.st25{fill:#EBEAEA;}
	.st26{fill:#B0D2DA;}
	.st27{fill:#FDFDFD;}
</style>
<path class="st0" d="M192.8,188.38c-0.68,0.04-1.36,0.08-2.04,0.11c-2.47-0.21-4.93-0.22-7.4,0.01l-0.12,0.02
	c0,0-0.07-0.09-0.07-0.09c0-0.34,0-0.67,0.01-1.01c0.15-0.14,0.29-0.27,0.44-0.41c1.67,0.08,3.34,0.15,5.02,0.23
	c1.1,0.87,1.97,0.26,2.83-0.42c2.94-0.38,5.77-1.18,8.49-2.36c0.54-0.23,1.34-0.36,1.43-0.99c0.11-0.78-0.84-0.95-1.31-1.3
	c-1.51-1.12-3.14-2.06-4.73-3.07c-0.46-0.29-0.92-0.46-1.5-0.31c-1.47,0.37-2.94,0.76-4.44,0.99c-4.67,0.72-9.35,1.28-14.05,0.24
	c0.01-0.45,0.03-0.91,0.04-1.36c0.77-0.01,1.53-0.02,2.3-0.02c0.45,0.04,0.9,0.07,1.34,0.11c1.38,0.44,2.76,0.45,4.14,0.02
	c0.45-0.04,0.89-0.08,1.34-0.12c0.96,0.1,1.9,0.09,2.79-0.37c0.92-0.14,1.85-0.29,2.77-0.43c0.54,0.12,1.02,0.05,1.37-0.44
	c1.72,0.08,3.08-0.89,4.55-1.55c0.29,0.05,0.42-0.1,0.46-0.37l0.02-0.01c0.52,0.05,1.06,0.15,1.37-0.44
	c0.92-0.63,1.83-1.26,2.75-1.89c0.15-0.13,0.3-0.27,0.45-0.4c1.31-0.43,2.3-1.33,3.25-2.28c0.31,0.01,0.45-0.16,0.47-0.45
	c0.75-0.64,1.49-1.28,2.24-1.92c0.65,0.02,1.17-0.17,1.42-0.84c0.82-0.86,0.22-1.13-0.55-1.25c-0.58-0.09-1.17-0.09-1.75-0.13
	c-0.36-0.46-0.84-0.56-1.39-0.45c-0.12-0.08-0.24-0.1-0.38-0.08c-0.13-0.24-0.31-0.3-0.54-0.14c-3.34-0.26-6.68-0.25-10.03-0.06
	c-1.11-0.28-2.2,0.03-3.29,0.14c-0.01-0.33-0.01-0.66-0.02-0.99c1.08-0.45,1.54-1.05,0.38-1.9c-1.42-1.05-2.96-1.77-4.75-2.02
	c-3.19-0.44-6.37,0.36-9.54,0.01c-0.86-0.09-1.12-0.12-1.91-0.56c-1.89-1.03-0.47-1.16-0.31-1.89c1.22-0.07,3.92,0.41,5.13,0.34
	c1.09,0.15,2.18,0.17,3.26-0.11c1.52,0.13,3.04,0.25,4.56,0.38c0.33,0.43,0.78,0.57,1.31,0.53c0,0-0.01-0.02-0.01-0.02
	c0.64,0.28,1.28,0.55,1.91,0.83c0.31,0.16,0.62,0.32,0.92,0.49c0.15,0.49,0.56,0.39,0.92,0.41c1.29,2.48,3.48,2.6,5.85,2.25
	c0.3,0,0.49-0.15,0.56-0.44c0.16-0.14,0.31-0.28,0.47-0.42c0.56,0.02,0.88-0.24,0.95-0.8c6.59-4.93,13.74-5.26,21.24-2.55
	c0.29,0.1,0.54,0.28,0.82,0.4c2.15,0.98,3.41,1.18,4.82-1.69c1.78-3.63,5.74-4.96,9.81-5.2c0.84-0.05,1.68-0.09,2.52-0.09
	c2.52-0.02,3.3-1.27,2.4-3.7c-1.6-4.34-1.31-8.76-0.05-13.07c0.81-2.78,2.87-4.83,5.52-6.01c1.55-0.69,1.42-1.37,0.44-2.29
	c-2.46-2.31-3.79-5.34-5-8.34c-0.7-1.74-0.72-3.73,0.31-5.7c1.05-2.01,1.87-4.16,3.11-6.08c0.49-0.97,0.11-1.57-0.83-1.92
	c0,0-0.08-0.03-0.08-0.03c-0.14-0.25-0.33-0.29-0.56-0.13c-0.45-0.09-0.89-0.17-1.34-0.26c-0.7-0.53-1.48-0.75-2.35-0.59
	c-2.33-0.92-4.72-1.71-6.86-3.05c-0.02-0.27-0.15-0.39-0.43-0.31c-0.49-0.19-0.99-0.39-1.48-0.58c0.01-0.25-0.1-0.36-0.36-0.3
	c-0.59-0.41-1.18-0.81-1.78-1.21c-0.12-0.5-0.5-0.67-0.96-0.72c-0.28-0.22-0.57-0.43-0.85-0.65c-0.1-0.66-0.59-0.6-1.07-0.58
	c-4.72-3.83-9.42-7.68-13.39-12.33c-0.24-0.29-0.49-0.62-0.81-0.78c-1.69-0.85-8.53,1.68-9.64,3.21c-2.07,2.84-3.71,5.98-6.87,8.01
	c-3.34,2.15-6.78,2.53-10.5,1.89c-1.1-0.19-2.11-0.48-2.22,1.24c-0.06,0.83-0.93,1.16-1.67,1.39c-5.3,1.62-10.7,2.49-16.26,1.91
	c-2.21-0.23-4.38-0.68-6.3-1.83c-1.96-1.17-2.43-2.95-1.78-5.13c1.17-3.94,4.54-5.81,7.5-7.99c1.37-1.01,1.62-1.46,0.37-2.83
	c-6.29-6.9-12.79-13.59-18.68-20.85c-3.34-4.11-6.74-8.17-10.05-12.31c-3.53-4.43-6.9-8.99-10.26-13.55
	c-3.64-4.94-7.18-9.92-10.37-15.15c-0.32-0.52-0.69-0.94-1.16-1.36c-0.92-0.83-0.62-1.45,0.61-1.6c0.69,0.16,1.14,0.53,1.57,1.16
	c3.2,4.68,6.22,9.47,9.61,14.04c3.24,4.38,6.52,8.72,9.82,13.06c4.98,6.54,10.24,12.82,15.62,19.02
	c5.03,5.79,10.13,11.51,15.5,16.99c0.94,0.96,1.6,1.14,2.89,0.47c2-1.06,4.2-1.76,6.34-2.53c2.15-0.77,2.3-1.13,0.56-2.58
	c-3.28-2.73-6.05-5.94-8.95-9.05c-6.56-7.03-12.33-14.72-18.26-22.26c-3.64-4.63-7.04-9.46-10.26-14.39
	c-4.52-6.91-9.46-13.54-13.61-20.7c0.71-1.29,1.43-1.22,2.14,0c1.85,3.21,4.03,6.23,6.06,9.31c5.08,7.72,10.5,15.21,15.89,22.71
	c2.77,3.86,5.75,7.57,8.71,11.29c5.28,6.65,10.86,13.04,16.73,19.17c0.41,0.42,0.97,0.69,1.43,1.08c1.43,1.19,2.3,3.78,4.3,3.38
	c3.23-0.64,6.36-2,9.41-3.34c1.15-0.51,1.56-2.03,1.84-3.3c1.65-7.56,11.43-13.25,18.51-10.58c2.42,0.91,4.8,1.85,7.08,3.03
	c0.88,0.46,1.56,0.61,2.54,0.23c2.26-0.88,4.6-1.56,6.9-2.32c1.15-0.38,1.34-1.31,1.44-2.36c0.41-4.65,2.07-8.61,6.51-10.77
	c5.49-2.67,10.96-3.1,16.17,0.71c0.85,0.62,1.93,0.92,2.59,1.83c0.42,0.58,1.05,0.55,1.67,0.34c1.29-0.43,2.58-0.87,3.87-1.31
	c0.16-0.06,0.32-0.12,0.47-0.18c3.43-1.22,6.87-2.44,10.3-3.66c0.51,0.19,0.95,0.17,1.22-0.38c1.06-0.85,2.45-0.79,3.64-1.28
	c0.15-0.09,0.31-0.18,0.46-0.26c1.29-0.5,2.53-1.13,3.95-1.19c0.3,0.07,0.52-0.02,0.64-0.31c0.05-0.15,0.15-0.2,0.29-0.15
	c0.38,0.12,0.75,0.21,1.02-0.21c0.12-0.32,0.37-0.39,0.67-0.37c0.52,0.19,0.99,0.22,1.26-0.39c0.62-0.56,1.45-0.57,2.18-0.83
	c1.34-0.21,2.8-0.08,3.75-1.35c0.45-0.15,0.9-0.3,1.34-0.45c0.41,0.06,0.74-0.03,0.94-0.43c0.08-0.12,0.19-0.15,0.33-0.09
	c0.73,0.02,1.55,0.38,2.01-0.57c2.29-1.2,4.74-1.95,7.23-2.61c0.46,0.08,0.82-0.06,1.02-0.5c0.2-0.05,0.39-0.1,0.59-0.15
	c0.49,0.22,0.95,0.27,1.26-0.29c0.41-0.41,0.91-0.62,1.49-0.63c0.95,0.27,1.68-0.02,2.17-0.89c0.3-0.06,0.6-0.11,0.9-0.17
	c0.2,0.25,0.34,0.18,0.45-0.08c3.93-1.99,8.22-3.02,12.31-4.58c2.61-1,5.27-1.89,7.92-2.77c0.54-0.18,1.33-0.45,1.69,0.16
	c0.48,0.8-0.31,1.19-0.85,1.61c-0.75,0.12-1.53,0.13-2.24,0.38c-5.79,2.05-11.57,4.18-17.36,6.23
	c-11.44,4.06-22.89,8.07-34.32,12.16c-8.2,2.93-16.48,5.63-24.55,8.9c-2.43,1.05-5.18,1.35-7.28,3.16
	c-0.81,0.84,0.26,1.76-0.13,2.62c0.06,0.29,0.11,0.59,0.17,0.88c-0.11,0.57-0.16,1.13,0.36,1.56c0.63,1.21,1.13,2.53,1.94,3.61
	c0.9,1.2,2,2.32,3.82,1.61c1.55-0.6,3.12-1.14,4.69-1.67c9.47-3.23,18.97-6.38,28.41-9.68c9.35-3.27,18.65-6.68,27.98-10.02
	c6.93-2.48,13.87-4.94,20.81-7.41c1.78,1.1,0.64,1.62-0.45,2.03c-4.13,1.54-8.27,3.08-12.42,4.55c-6.57,2.34-13.16,4.62-19.74,6.94
	c-9.31,3.28-18.62,6.57-27.93,9.85c-2.01,0.71-4.03,1.4-6.04,2.1c-1.15,0.4-1.33,1-1,2.27c1.85,7.23,4.04,14.42,3.69,22.01
	c-0.04,0.88,0.2,1.59,0.69,2.34c6.29,9.72,7.48,20.26,4.96,31.37c-0.36,1.57,0.45,2.83,0.84,4.18c1.95,6.62,1.83,13.09-1.06,19.45
	c-0.42,0.93-1.13,1.56-1.68,2.35c-1.43,2.07-2.52,4.19-3.2,6.72c-1.61,5.99-4.48,11.43-9.3,15.55c-2.25,1.92-4.73,3.71-7.68,4.3
	c-4.35,0.87-7.93,3.36-11.86,5.13c-3.83,1.73-7.78,3-12.01,3.25c0.31-0.88-1.12-0.45-0.92-1.24c0.9-0.47,1.89-0.54,2.86-0.75
	c3.99-0.86,7.92-1.89,11.52-4.15c-0.94-0.88-1.92-1.01-2.89-1.2c-1.42-0.29-2.87-0.61-4-1.57c-1.24-1.06-2.31-0.85-3.59-0.02
	c-4.97,3.24-10.49,3.93-16.26,3.28c0.07-0.7-1.08-0.51-0.97-1.23c2.31-0.39,4.67,0.54,6.9-0.5c2.5-0.24,4.93-0.75,7.25-1.78
	c3.96-1.76,5.84-5.31,7.7-8.87c1.29-2.47,1.14-2.71-1.61-3.53c-0.01-0.45-0.02-0.9-0.02-1.35c0.3-0.02,0.64-0.15,0.89-0.05
	c2.36,0.88,3.48-0.18,3.97-2.41c0.29-1.33,0.67-2.65,1.02-3.97c0.27-1.01-0.16-1.35-1.15-1.4c-2.09-0.11-4.05,0.34-6.06,0.85
	c-3.25,0.83-5.15,2.9-5.5,6.34c-0.48,0.74-1.13,0.54-1.81,0.34c-1.62-0.46-1.89,0.28-1.44,1.65c-0.8,0.22-1.59,0.5-2.41,0.63
	c-6.76,1.08-12.63,3.89-17.53,8.73c-1.84,1.82-1.92,1.78,0.63,2.78c0.61,0.75,1.3,1.24,2.3,0.69c1.68,0.35,3.37,0.71,5.05,1.06
	c-0.94,1.72-2.57,0.39-3.79,0.87c-0.88-0.2-1.76-0.4-2.64-0.6c-0.22-0.07-0.45-0.14-0.67-0.21c-0.46-0.06-0.93-0.13-1.24-0.54
	c-0.5-0.88-1.37-0.46-2.09-0.59c-2.1-1.01-3.95,0.29-4.68,1.62c-0.69,1.26,1.56,1.75,2.53,2.55c0.53,0.44,1.21,0.6,1.83,0.86
	c2.73,1.16,5.69,1.46,8.45,2.47c-1.51,0.21-3.01-0.52-4.56-0.03c0.45,0.66,1.59-0.07,1.83,0.92c-3.09-1.18-5.43,0.83-8,1.87
	c-0.56-0.15-1.02-0.09-1.22,0.55c-0.25,0.09-0.49,0.19-0.74,0.28c-0.2,0.11-0.4,0.21-0.6,0.32c-0.16,0.02-0.32,0.04-0.48,0.06
	c-0.18,0.02-0.36,0.04-0.54,0.06c-0.19,0.03-0.39,0.05-0.58,0.08C194.67,187.36,193.69,187.72,192.8,188.38z M161.65,91.9
	l-0.05,0.06c-0.67-0.05-1.07,0.27-1.23,0.91c-2.04,3.49-1.52,4.9,2.04,5.55c0.73,1,1.78,0.92,2.84,0.83
	c4.28,0.8,8.48,0.32,12.65-0.75c1.16-0.3,2.89-0.21,3.18-1.36c0.3-1.19-1.36-1.83-2.24-2.61c-3.91-3.44-3.96-3.49,1.08-5.45
	c3.64-1.41,6.55-3.64,8.77-6.82c0.28-0.45,1.39-0.93-0.04-1.34c-0.21-0.17-0.42-0.34-0.63-0.5c0.47-1.09,2.33-0.73,2.44-2.54
	c-2.3,0.75-4.53,1.18-6.49,2.44c-0.43,0.16-0.87,0.31-1.3,0.47c-2.22-0.02-4.06,1.24-6.02,1.96c-3.03,1.11-6.22,2.04-8.73,4.26
	c-0.27,0.13-0.53,0.26-0.8,0.39c-0.55-0.1-0.98,0.03-1.17,0.61c-1.32,0.77-2.51,1.71-3.47,2.91
	C161.97,91.06,161.72,91.4,161.65,91.9z M259.31,155.67c-0.65,0.28-1.41,0.35-1.88,0.97c-1.01,0.41-1.78,1.29-1.28,2.2
	c0.53,0.96,1.4-0.2,2.15-0.3c0.75-0.1,1.45-0.32,1.96-0.94c0.34-0.29,0.68-0.58,1.02-0.87c0.35-0.05,0.72-0.06,0.9-0.45
	c1.39-0.08,2.51-0.68,3.37-1.76c4.99-2.83,7.53-7.46,9.12-12.7c1.21-3.99,0.79-8.02-0.24-12c-0.16-0.62,0.13-1.49-0.79-1.7
	c-0.82-0.19-1.23,0.41-1.59,1.03c-1.43,2.43-3.77,3.82-6.23,4.82c-1.4,0.57-1.76,1.19-1.51,2.5c0.13,0.67,0.12,1.38,0.26,2.05
	c1.19,5.74,0.06,10.94-3.53,15.59C260.3,154.45,259.8,155.06,259.31,155.67z M229.31,65.58c0.17-0.49,0.75-0.94,0.43-1.46
	c-0.38-0.61-0.94-0.15-1.41,0.02c-4.49,1.6-8.99,3.17-13.46,4.83c-0.93,0.34-2.12,0.39-2.57,1.52c0.53,0.38,1.05,0.76,1.58,1.15
	c-4.82,1.15-6.67,4.95-8.14,9.1c-0.2,0.57-0.63,1.21-0.31,1.75c0.42,0.72,1.11,0.12,1.65,0.01c1.57-0.31,3.11-0.8,4.69-1.04
	c7.56-1.13,14.68-3.86,21.98-5.93c1.23-0.35,1.82-0.88,0.79-2.25c-1.58-2.09-3.44-4.05-4.08-6.72
	C230.27,66,229.81,65.77,229.31,65.58z M244.1,49.03c-7.84,0.73-12.57,4.42-12.81,12.27c-0.17,5.43,3.28,9.35,6.43,13.16
	c4.64,5.61,10.42,10.2,14.79,16.1c1.16,1.57,2.55,2.98,3.59,4.66c0.23,0.38,0.55,0.77,1.1,0.61c0.4-0.12,0.28-0.5,0.3-0.78
	c0.21-2.9,0.18-5.74-0.57-8.63c-1.33-5.12-4.37-9.28-7.1-13.63c-0.49-0.78-1.11-1.41-1.78-2.05c-3.22-3.11-4.95-6.89-4.73-11.46
	c0.05-1.12,0.25-1.88,1.5-2.48c2.05-0.99,4.19-1.74,6.27-2.63c1.45-0.62,1.5-1.31,0.34-2.31C249.23,49.96,246.53,49.5,244.1,49.03z
	 M207.27,62.9c-5.17-0.51-11.94,5.04-13.07,11.28c-0.39,2.18-0.99,4.37-2.11,6.26c-2.79,4.73-6.43,8.58-11.72,10.6
	c-1.38,0.53-1.11,1.28,0.06,1.82c1.03,0.48,2.06,0.97,3.13,1.34c6.74,2.33,10.62,0.94,14.38-3.11c2.9-3.13,4.98-7.02,6.27-11.2
	c1.83-5.97,5.05-10.83,10.95-13.43c1.58-0.7,0.81-1.17-0.01-1.57C212.67,63.69,210.09,62.78,207.27,62.9z M246.74,87.33
	c-0.24,1-0.43,1.49-0.47,2c-0.53,6.48-0.19,12.81,2.9,18.76c1.22,2.36,1.8,5.07,3.51,7.16c2.95,3.59,4.71,7.9,7.22,11.75
	c0.97,1.49,1.36,1.42,2.41,0.25c2.98-3.28,3.28-7.2,2.22-11.11c-1.48-5.5-3.31-10.84-6.93-15.51
	C254.19,96.22,250.84,91.79,246.74,87.33z M254.64,153.35c0.95-4.07-1.74-7.45-2.59-11.26c-0.21-0.94-0.96-0.66-1.38-0.14
	c-1.32,1.64-3.27,2.73-4.18,4.75c-1.94,4.34-3.92,8.67-5.03,13.32c-0.85,3.55-1.75,7.06-4.3,9.89c-0.43,0.48-1.24,1.25-0.66,2.01
	c0.44,0.58,1.28,0.17,1.94,0.04c0.97-0.2,1.97-0.31,2.92-0.57c3.75-1,7.29-2.52,9.57-5.8C253.43,161.99,255.38,158.11,254.64,153.35
	z M274.25,113.03c0.75-3.27-0.68-6.41-1.49-9.62c-0.67-2.66-1.62-5.24-2.94-7.67c-0.25-0.46-0.46-1.04-1.09-1.06
	c-0.78-0.03-0.65,0.68-0.82,1.15c-0.88,2.51-2.14,4.7-4.81,5.73c-1.58,0.61-1.71,1.63-0.88,3.02c1.52,2.53,2.8,5.16,3.39,8.1
	c1.22,6.06,2.6,12.11-3.16,16.85c-0.77,0.63-0.71,1.46-0.19,2.27c0.54,0.84,1.24,1,2.17,0.62c3.34-1.37,6.3-3.23,7.57-6.79
	C273.43,121.63,274.86,117.59,274.25,113.03z M266.84,90.85c0.09-0.96,0.22-1.65,0.2-2.33c-0.2-6.41-1.03-12.7-2.77-18.91
	c-0.66-2.34-1.49-2.6-3.43-1.91c-2.78,0.98-5.61,1.86-8.41,2.79c-0.9,0.3-1.26,0.88-0.72,1.75c0.48,0.77,1,1.52,1.56,2.24
	c2.79,3.64,4.35,7.92,5.96,12.12c1.3,3.39,1.29,6.98,0,10.54c-0.7,1.91,0.64,3.69,2.11,3.15c2.12-0.78,3.86-2.01,4.62-4.35
	C266.52,94.19,266.99,92.44,266.84,90.85z M243.64,102.95c0.9-0.01,1.81,0.07,1.41-1.18c-0.72-2.22-0.69-4.52-0.85-6.8
	c-0.07-0.99-0.52-1.56-1.5-2.03c-5.03-2.39-9.83-5.14-13.8-9.17c-2.05-2.08-4.09-3.99-7.49-2.28c-1.04,0.53-2.42,0.78-3.67,1.1
	c-0.68,0.18-1.73-0.36-1.98,0.62c-0.24,0.93,0.69,1.48,1.3,2c2.59,2.21,4.86,4.76,7.49,6.95c3.98,3.31,8.17,6.28,12.77,8.57
	C239.3,101.71,241.43,102.72,243.64,102.95z M251.91,118.19c-0.46,1.37-0.99,2.4-1.14,3.48c-0.81,5.83,0.82,11.41,2.37,16.87
	c1.28,4.51,2.99,8.89,3.46,13.6c0.07,0.72-0.35,1.82,0.4,2.08c0.83,0.29,1.65-0.5,2.35-1.07c0.23-0.19,0.38-0.47,0.55-0.72
	c3.91-5.46,3.31-11.43,1.66-17.37c-1.48-5.32-5.04-9.63-7.57-14.44C253.56,119.81,252.77,119.18,251.91,118.19z M267.84,155.36
	c-3.86,2.46-7.21,4.38-10.94,5.55c-1.07,0.34-1.6,1.15-2.14,2.17c-2.62,4.9-6.53,8.26-12.01,9.74c-1.91,0.52-3.85,0.9-5.82,1.26
	c5.95,3.41,11.97,2.43,17.51-0.25C261.81,170.28,265.98,163.92,267.84,155.36z M235.96,76.59c-2.04,0.67-4.1,1.5-6.23,2.01
	c-2.16,0.51-2.01,1.21-0.74,2.68c3.1,3.58,7.17,5.83,11.08,8.31c3.64,2.3,3.9,2.16,4.58-1.92c0.27-1.61,0.84-3.17-0.84-4.34
	c-2.08-1.45-3.57-3.48-5.31-5.28C237.83,77.36,237.09,76.69,235.96,76.59z M244.05,147.53c1.54-3.37,3.79-5.88,6.56-7.92
	c0.58-0.43,0.65-1.03,0.51-1.64c-0.43-1.93-0.95-3.84-1.36-5.77c-0.23-1.1-0.83-1.3-1.82-1.04c-1.1,0.29-2.01,0.9-2.5,1.85
	C243.11,137.53,240.89,142.09,244.05,147.53z M201.27,162.89c2.43,0.39,4.5,0.71,6.57,1.07c1.55,0.27,3,1.63,4.58,0.95
	c3.4-1.47,7-2.21,10.81-3.29C215.64,158.05,208.51,157.57,201.27,162.89z M246.97,109.3c-3.45,4.71-2.81,9.49-0.31,13.74
	c0.29,0.49,0.61,1.14,1.34,1.07c0.92-0.09,0.66-0.87,0.7-1.43c0.13-1.71,0.76-3.27,1.47-4.77c0.45-0.96,0.74-1.89,0.23-2.84
	C249.39,113.14,248.69,111.03,246.97,109.3z M227.02,159.26c-0.08,0.14-0.2,0.26-0.21,0.38c0,0.12,0.11,0.25,0.18,0.38
	c0.07-0.12,0.2-0.24,0.21-0.36C227.2,159.53,227.09,159.4,227.02,159.26z"/>
<path class="st1" d="M136.41,135.35c0.27,0.96,1.15,1.97,1.53,2.52c0.12,0.23,0.25,0.45,0.37,0.68c-0.2,0.57-0.07,0.98,0.55,1.16
	c0.12,0.22,0.25,0.44,0.37,0.66c-0.18,0.57-0.09,1.01,0.56,1.18c0.15,0.08,0.23,0.2,0.23,0.37c0.11,1.82,1.35,2.98,2.45,4.23
	c0.6,1.26,1.19,2.53,1.79,3.79c-0.14,0.51-0.16,0.98,0.44,1.23c0.11,0.17,0.21,0.33,0.32,0.5c0.09,1.27,0.27,2.46,2.03,2.16
	c0.41,0.03,0.81,0.07,1.22,0.1c1.95,0.91,4.04,0.96,6.13,0.97c0.24,0.08,0.47,0.17,0.71,0.25c0.02,0.5,0.03,1,0.05,1.49
	c-0.31-0.05-0.62-0.1-0.92-0.15c-0.68-1.07-1.65-1.14-2.74-0.8c-0.32-0.01-0.64-0.03-0.95-0.04c-1.06-0.26-2.12-0.74-3.18-0.74
	c-1.23,0-2.66-0.74-3.71,0.58c-0.46,0.03-0.91,0.07-1.37,0.1c-1.19-0.42-2.37-0.79-3.18,0.66c-0.05,0.11-0.12,0.14-0.23,0.08
	c-0.23,0.1-0.47,0.2-0.7,0.29c-0.05,0.11-0.14,0.16-0.26,0.12c-0.33,0.01-0.52,0.17-0.56,0.5l-0.07-0.11l0.09,0.1
	c-0.18,0.12-0.36,0.25-0.54,0.37l-0.01,0.01c-0.61,0.37-1.57,0.22-1.84,1.11c-0.21,0.68-0.93,1.63-0.09,2.04
	c1.1,0.54,2.37,1.27,3.71,0.43c0.46,0.08,0.92,0.16,1.38,0.24c0.37,1.05,1.23,0.65,1.95,0.66c0.48,0,0.95,0.05,1.33,0.4
	c0.21,0.63,0.73,0.6,1.25,0.59c0.17,0.04,0.35,0.09,0.52,0.13c0.11,0.39,0.35,0.78,0.74,0.72c3.02-0.47,5.77,1.45,8.78,0.98
	c0.34,0.96,0.76,1.71,1.97,1.86c2.67,0.33,6.84-2.22,7.85-4.93c1.14-0.36,1.53-1.3,1.85-2.32c0.75,0.11,1.04-0.28,1.04-0.97
	c0.44-0.62,1.03-1.16,0.99-2.01c0.34-0.37,0.72-0.71,0.66-1.29c0.3-0.8,0.6-1.6,0.9-2.39c0.06-0.01,0.17-0.01,0.17-0.02
	c0-0.1-0.01-0.19-0.02-0.29c0.1-0.48,0.21-0.96,0.31-1.44c0.68-0.62,0.93-1.4,0.79-2.3c0.08-0.4,0.15-0.8,0.23-1.2
	c1.43-0.34,1.07-1.51,1.14-2.48c0.09-0.69,0.19-1.37,0.28-2.06c0.26-0.16,0.31-0.38,0.18-0.65c0.06-0.47,0.13-0.94,0.19-1.41
	c0.37-0.23,0.36-0.56,0.24-0.93c0.09-1.22,0.17-2.44,0.26-3.66c0.45-1.04,0.53-2.12,0.3-3.23c0.26-0.44,0.27-0.9,0.12-1.37
	c0.6-2.28,0.31-4.6,0.27-6.9c1.6-0.73,3.3-0.31,4.95-0.38c1.06-0.05,1.16,0.73,1.15,1.57c-0.02,2.05-0.01,4.11-0.01,6.16
	c-0.49,1.04-0.45,2.13-0.31,3.23c-0.05,0.45-0.1,0.91-0.15,1.36c-0.36,0.45-0.28,0.93-0.09,1.41c-0.36,1.04-0.38,2.12-0.31,3.2
	c-0.47,0.37-0.54,0.84-0.37,1.38c-0.54,1.17-0.49,2.43-0.57,3.67c-0.59,0.66-0.81,1.44-0.69,2.31c-0.03,0.3-0.06,0.61-0.1,0.91
	c-0.36,0.54-0.76,1.07-0.64,1.78c0,0,0.01-0.02,0.01-0.02c-1.41,0.23-0.79,1.49-1.14,2.26c-0.41,1.1-0.82,2.19-1.23,3.29
	c-1.22,2.32-2.47,4.59-4.03,6.74c-3.05,4.19-6.84,7.03-11.89,8.24c-4,0.96-8.25-1.03-9.69-4.87c-0.56-1.5-0.71-2.84-2.71-1.44
	c-0.54,0.38-1.07-0.38-1.59-0.66c-5.39-2.79-10.87-3.39-16.73-1.29c-4.44,1.59-8.86,3.24-13.24,4.99c-3.8,1.52-7.48,3.37-11.47,5.19
	c1.89,1.39,3.8,2.01,5.7,2.19c9.86,0.92,19.44-0.12,28.54-4.4c2.88-1.35,5.96-2.29,8.92-3.48c0.72-0.29,2.74-0.84,3.03-0.15
	c0.32,0.76-1.89,1.48-2.36,1.67c-0.56,0.23-1.17,0.36-1.72,0.62c-2.52,1.2-5.34,1.73-7.98,3.47c3.07,1.79,6.2,2.44,9.35,2.76
	c12.12,1.21,23.83,0.67,33.36-8.58c-0.93-1.16-2.49-1.23-3.83-1.8c-1.26-0.54-5.45-0.67-5.86-2.91c1.25-0.65,4.76,0.7,5.69,1.2
	c0.31,0.07,0.62,0.13,0.93,0.2c0.16,0.04,0.32,0.09,0.47,0.13c0.83-0.1,1.45,0.43,2.06,0.82c2.02,1.3,3.92,1.44,6.1,0.16
	c1.38-0.82,3.09-1.09,4.65-1.6c0.01,0.33,0.01,0.66,0.02,0.99c-0.29,0.35-0.59,0.69-0.88,1.04l-0.01,0.01
	c-1.38,0.36-2.83,0.53-3.97,1.51c-1.28,0.31-2.23,1.21-3.34,1.83c-0.97-0.19-1.63,0.24-2.14,1.02c-1.14,0.49-2.06,1.27-2.93,2.13
	c-0.93,0-1.53,0.46-1.86,1.31c-0.76,0.49-1.52,0.98-2.27,1.47c-0.97,0.34-2.14,0.26-3,1.35c1.12,0.5,2,0.99,3.06,0.93
	c0.73,0.14,1.47,0.28,2.2,0.42c-0.04,0.13-0.02,0.25,0.04,0.36c-0.01,0.45-0.03,0.91-0.04,1.36c-2.03-0.27-4.06-0.6-5.83-1.67
	c-1.65-0.99-3.25-0.96-5.01-0.35c-1.03,0.36-1.21,0.56-0.47,1.49c1.21,1.53,2.79,2.53,4.42,3.5c0.14,0.66,0.57,0.8,1.16,0.67
	c0.4,0.15,0.8,0.29,1.2,0.44c-0.2,1.78-1.47,0.25-2.1,0.68c-0.48,0-0.95,0-1.43-0.01c-1.54,0.16-3.02,0.52-4.35,1.35
	c-0.31,0.09-0.62,0.18-0.94,0.27c-0.36-0.39-0.84-0.37-1.28-0.31c-1.62,0.22-0.67-0.63-0.5-1.16c0.6-0.08,1.2-0.17,1.81-0.24
	c1.14-0.15,2.6-0.24,3.03-1.23c0.4-0.91-1.17-1.38-1.66-2.21c-1.3-2.2-3.09-2.86-5.72-2.63c-5.16,0.45-10.32,0.1-15.41-1.14
	c-2.11-0.51-4.05-1.23-5.86-2.4c-1.35-0.87-2.72-0.2-3.52,0.64c-0.95,0.99,0.5,1.65,1.08,2.33c1.62,1.9,4.17,2.44,6.04,3.98
	c-0.1,0.3,1,0.82-0.22,0.94c-0.86,0.08-1.71-1.07-2.55,0c-0.23,0.14-0.46,0.29-0.69,0.43c-1.65-0.2-2.93,0.72-4.28,1.41
	c-0.28,0.16-0.55,0.31-0.83,0.47c-0.57-0.18-1.1-0.2-1.51,0.34c-0.39,0.07-0.79,0.14-1.18,0.21c-1.2-0.1-2.33,0.16-3.41,0.69
	c-0.43,0.03-0.86,0.06-1.3,0.09c-0.21-0.17-0.4-0.16-0.57,0.06c-0.46,0.04-0.91,0.08-1.37,0.12c-1.43-0.5-2.86-0.4-4.3-0.06
	c-1.47-0.15-2.97,0.02-4.38-0.55c-0.25-0.48-0.63-0.59-1.12-0.38c-0.24-0.05-0.49-0.1-0.73-0.15c-0.28-0.37-0.63-0.51-1.08-0.35
	c-0.52-0.17-1.04-0.35-1.56-0.52c-0.25-0.46-0.65-0.57-1.14-0.46c-0.7-0.41-1.4-0.81-2.1-1.22c-0.73-0.61-1.36-1.61-2.5-0.66
	c-0.54,0.31-1.09,0.63-1.63,0.94c-0.45-0.08-0.8,0.06-1.02,0.48c-0.89,0.3-1.77,0.61-2.66,0.91c-0.26-0.13-0.46-0.08-0.59,0.18
	c-1.01,0.84-2.27,0.67-3.45,0.83c-0.73-0.18-1.46-0.32-2.02,0.4c-0.92,0.05-1.85,0.1-2.77,0.15c-0.51-0.44-1.03-0.36-1.55-0.01
	c-0.54-0.05-1.08-0.1-1.62-0.15c-1.71-0.99-3.71-0.49-5.51-1.04c-0.35-0.5-0.3-1.02-0.09-1.55c6.77,1.72,13.4,1.56,19.84-1.42
	c0.61-0.28,1.46-0.32,1.55-1.15c0.11-0.92-0.75-1.37-1.37-1.63c-0.9-0.38-1.5-1.05-2.1-1.7c-0.86-0.93-1.66-1.24-2.99-0.81
	c-3.63,1.17-7.39,1.85-11.21,2.07c-1.33,0.08-2.75,0.42-3.98-0.49c-0.01-0.3-0.02-0.6-0.03-0.9c0.35-0.11,0.71-0.33,1.06-0.31
	c7.24,0.33,13.93-1.79,20.55-4.42c4.6-1.82,9.03-4.01,13.59-5.89c0.7-0.29,1.69-0.29,1.7-1.2c0.01-0.76-0.96-0.86-1.54-1.15
	c-7.49-3.73-15.01-2.34-22.43,0.11c-4.3,1.42-8.42,3.39-12.63,5.12c-0.3-0.54-0.25-1.1-0.14-1.67c0.22-0.14,0.44-0.27,0.66-0.41
	c0.31-0.15,0.62-0.31,0.92-0.46c0.58,0.02,1.22-0.15,1.25-0.73c0.04-0.65-0.62-0.74-1.18-0.74c0,0-0.02-0.01-0.02-0.01
	c-0.25-0.76-0.86-0.74-1.49-0.68c-0.41-0.8-0.5-1.53,0.48-2c1.77,0.91,3.31,2.74,5.44,2.26c2.09-0.47,4.05-1.57,6.06-2.4
	c0,0,0.15-0.03,0.15-0.03c0.26-0.01,0.52-0.02,0.77-0.03c0.27,0.22,0.57,0.21,0.7-0.09c0.18-0.43-0.09-0.64-0.51-0.67
	c-0.15-0.01-0.3-0.02-0.46-0.03c-0.54-1.05-1.59-0.77-2.46-0.94c-3.23-1.11-6.45-1.34-9.67,0.05c-0.97-0.81-1.32-1.52,0.32-1.9
	c0.72,0.16,1.44,0.31,1.99-0.4c1.52-0.39,3.04-0.31,4.57-0.06c2.64,0.78,5.28,1.55,7.92,2.33c0.74,0.05,1.47,0.1,2.21,0.15
	c3.69-0.45,7.4-0.63,11.11-0.7c0.14,0,0.27-0.32,0.41-0.49c0.11-0.11,0.22-0.21,0.33-0.32c0.65,0.1,1.18-0.05,1.47-0.71
	c0.3-0.43,0.71-0.67,1.25-0.69c2.48-0.59,4.97-1.18,7.45-1.77c0.46,0,0.92,0.01,1.38,0.01c1.69,0.53,3.41,0.93,5.2,0.8
	c0.26,0.04,0.51,0.09,0.77,0.13c0.8,0.73,1.7,1.25,2.81,1.3c0,0-0.01-0.01-0.01-0.01c0.16,0.79,0.7,1,1.42,0.92
	c0.16,0.04,0.26,0.14,0.31,0.29c1.57,1.28,1.68,1.2,2.29-1.67c0,0-0.01,0.01-0.01,0.01c0.48-0.11,0.56-0.46,0.52-0.88c0,0,0,0,0,0
	c0.29-0.04,0.46-0.19,0.43-0.5c0.15-0.15,0.3-0.29,0.45-0.44c0.75,0.19,1.16-0.21,1.45-0.83c0,0,0.04-0.02,0.04-0.02
	c0.14-0.08,0.29-0.15,0.43-0.23c0.04-0.12,0.12-0.17,0.24-0.16c0.65,0.02,1.15-0.27,1.58-0.73c0.11-0.1,0.23-0.2,0.34-0.3
	c0.39-0.51,0.33-0.97-0.16-1.37c-0.09-0.14-0.17-0.28-0.26-0.41c0.12-0.48-0.07-0.82-0.49-1.04c-0.13-0.27-0.26-0.55-0.4-0.82
	c-0.23-0.87-0.11-1.92-1.18-2.38c-0.1-0.23-0.2-0.46-0.31-0.69c0.17-0.98-0.16-1.56-1.23-1.57c-0.34-0.72-0.68-1.45-1.03-2.17
	c0.17-0.56,0.05-0.97-0.59-1.1c-0.11-0.24-0.22-0.48-0.33-0.72c-0.61-2.04-1.05-4.18-3.21-5.27c-0.13-0.28-0.25-0.55-0.38-0.83
	c0.04-0.28-0.08-0.44-0.36-0.49c-0.32-0.55-0.63-1.09-0.95-1.64c-0.56-0.97-1.05-0.88-1.5,0.09c-2.12,1.45-2.41,1.47-3.09,0.17
	c0.4-2.37,0.28-4.7-0.69-6.93c-0.31-0.89-0.25-1.8-0.19-2.71c-0.04-0.7-0.13-1.1-0.1-1.82c-0.04-0.41,0.01-2.09-0.03-2.5
	c0.36-0.21-0.36,0.21,0,0c0.51,0.13,2.43,1.19,2.73,1.63c0.97,0.35,0.54,0.2,0.74,0.22c0.51,0.33,1.02,0.65,1.53,0.98
	c1.32,1.65,3.26,2.2,5.11,2.89c0.59,0.38,1.19,0.76,1.78,1.15c0.1,0.93,1.63,0.57,1.52,1.68c0,0-0.01,0.01-0.01,0.01
	c-0.46-0.13-0.86-0.11-1.06,0.42c-0.81,0.65-2,1.13-1.19,2.54c0.73,1.06,0.73,1.28,0.91,1.62c0.09,0.2,0.17,0.39,0.26,0.59
	 M116.52,185.05c0.24,0.48,0.53,0.75,0.97,0.18c1.85,0,3.7-0.01,5.54-0.01c0.43,0.58,0.73,0.32,0.98-0.17
	c0.44-0.11,0.88-0.29,1.33-0.31c2.93-0.17,5.66-1.11,8.39-2.07c1.29-0.46,2.17-0.97,0.48-2.21c-1.03-0.76-1.84-1.83-2.77-2.73
	c-0.97-0.93-1.93-1.22-3.44-0.93c-7.15,1.38-14.36,2.23-21.6,0.45c-1.57-0.39-2.98-1.09-4.33-2.01c-1.03-0.7-2.14-0.14-2.96,0.46
	c-0.44,0.32,0.24,0.93,0.64,1.25C104.77,180.84,109.92,184.45,116.52,185.05z M120.1,158.36c-2.35,0.05-5.13,0.2-7.67,1.78
	c-1.07,0.67-0.98,1.12-0.02,1.5c2.26,0.91,4.59,1.61,6.55,3.17c0.52,0.42,1.36,0.25,1.99-0.05c2.42-1.14,4.95-1.95,7.5-2.71
	c0.53-0.16,1.09-0.43,1.16-0.99c0.08-0.64-0.59-0.83-1.04-1.07C126.08,158.64,123.35,158.41,120.1,158.36z"/>
<path class="st2" d="M126.47,11.85c4.14,7.16,9.09,13.79,13.61,20.7c3.22,4.93,6.63,9.76,10.26,14.39
	c5.93,7.55,11.7,15.23,18.26,22.26c2.89,3.1,5.67,6.32,8.95,9.05c1.73,1.44,1.58,1.8-0.56,2.58c-2.14,0.77-4.34,1.48-6.34,2.53
	c-1.28,0.68-1.94,0.49-2.89-0.47c-5.37-5.48-10.47-11.19-15.5-16.99c-5.38-6.2-10.64-12.48-15.62-19.02
	c-3.3-4.33-6.58-8.68-9.82-13.06c-3.38-4.57-6.41-9.36-9.61-14.04c-0.43-0.63-0.87-1-1.57-1.16c2.55-2.38,5.85-3.67,8.51-5.92
	C124.75,12.21,125.69,12.13,126.47,11.85z"/>
<path class="st3" d="M245.24,62.3c-0.06-0.29-0.11-0.59-0.17-0.88c0.52-0.65,1.1-1.11,1.96-1.39c4.4-1.45,8.76-3.02,13.13-4.54
	c1.16,0.18,1.85-0.9,2.87-1.09c3.6-1.08,6.99-2.71,10.68-3.6c1.33-0.32,3.74-0.12,4.04-2.55c2.43,0.92,4.29-1.44,6.61-1.18
	c0.07,0.01,0.18-0.38,0.27-0.58c8-2.51,15.9-5.29,23.67-8.44c0.54-0.01,0.68,1.04,1.27,0.61c0.5-0.36-0.02-0.76-0.29-1.09
	c0.17-0.11,0.35-0.21,0.52-0.32c0.6-0.06,1.21-0.05,1.79-0.2c4.17-1.08,8.14-2.8,12.19-4.21c2.54-0.88,5.48-1.02,7.61-3.01
	c0.61,3.49,1.22,6.98,1.84,10.47c-6.94,2.47-13.88,4.93-20.81,7.41c-9.33,3.34-18.63,6.75-27.98,10.02
	c-9.45,3.3-18.94,6.45-28.41,9.68c-1.57,0.54-3.15,1.07-4.69,1.67c-1.82,0.71-2.92-0.41-3.82-1.61c-0.81-1.08-1.3-2.39-1.94-3.61
	C245.68,63.29,245.63,62.76,245.24,62.3z"/>
<path class="st4" d="M175.01,160.01c0.99,0.48,0.93,0.41,1.55,0.37c3.18-0.19,6.35-0.45,9.54-0.01c1.79,0.25,3.33,0.97,4.75,2.02
	c1.16,0.86,0.7,1.46-0.38,1.9c-1.56,0.52-3.27,0.79-4.65,1.6c-2.17,1.28-4.07,1.14-6.1-0.16c-0.61-0.39-1.23-0.92-2.06-0.82
	c-0.11-0.22-0.25-0.33-0.47-0.13c-0.31-0.07-0.62-0.13-0.93-0.2c-1.17-0.66-4.1-1.59-5.33-1.01c0.41,2.25,4.25,2.18,5.51,2.72
	c1.34,0.58,2.9,0.65,3.83,1.8c-9.53,9.26-21.25,9.8-33.36,8.58c-3.16-0.32-6.28-0.97-9.35-2.76c2.64-1.73,5.46-2.26,7.98-3.47
	c0.55-0.26,1.15-0.39,1.72-0.62c0.47-0.19,2.68-0.91,2.36-1.67c-0.29-0.69-2.31-0.14-3.03,0.15c-2.96,1.19-6.04,2.12-8.92,3.48
	c-9.1,4.28-18.68,5.32-28.54,4.4c-1.91-0.18-3.82-0.8-5.7-2.19c3.99-1.82,7.67-3.67,11.47-5.19c4.37-1.75,8.79-3.4,13.24-4.99
	c5.86-2.1,11.34-1.5,16.73,1.29c0.53,0.27,1.05,1.04,1.59,0.66c2-1.41,2.15-0.07,2.71,1.44c1.44,3.84,5.69,5.83,9.69,4.87
	c5.05-1.21,8.84-4.04,11.89-8.24c1.57-2.15,1.68-2.33,2.91-4.65"/>
<path class="st4" d="M80.27,169.78c4.2-1.72,8.32-3.7,12.63-5.12c7.41-2.45,14.94-3.84,22.43-0.11c0.59,0.29,1.55,0.39,1.54,1.15
	c-0.01,0.92-1,0.91-1.7,1.2c-4.56,1.88-8.99,4.07-13.59,5.89c-6.63,2.63-13.31,4.75-20.55,4.42c-0.35-0.02-0.71,0.2-1.06,0.31
	C79.6,174.93,80.1,172.37,80.27,169.78z"/>
<path class="st4" d="M79.98,178.44c1.23,0.91,2.65,0.57,3.98,0.49c3.82-0.22,7.57-0.9,11.21-2.07c1.33-0.43,2.13-0.11,2.99,0.81
	c0.61,0.65,1.2,1.32,2.1,1.7c0.62,0.26,1.48,0.71,1.37,1.63c-0.09,0.82-0.94,0.86-1.55,1.15c-6.43,2.99-13.07,3.15-19.84,1.42
	C79.57,181.9,79.91,180.16,79.98,178.44z"/>
<path class="st3" d="M263.03,54.39c-1.02,0.19-1.71,1.27-2.87,1.09c-0.38-1.28-1.25-0.95-2.16-0.7c-1.83,0.51-3.5,1.5-5.41,1.71
	c-0.04-0.29-0.08-0.57-0.12-0.86c8.08-3.27,16.36-5.97,24.56-8.9c11.43-4.08,22.89-8.09,34.32-12.16
	c5.79-2.06,11.56-4.18,17.36-6.23c0.7-0.25,1.49-0.26,2.24-0.38c0.02,0.47,0.04,0.93,0.06,1.4c-0.77-0.18-1.45,0.03-2.18,0.29
	c-4.98,1.76-10.02,3.38-14.96,5.25c-1.42,0.54-3.29,0.55-4.04,2.33c-0.17,0.11-0.35,0.21-0.52,0.32c0.27,0.33,0.79,0.73,0.29,1.09
	c-0.59,0.43-0.74-0.61-1.27-0.61c-0.91-0.54-1.77-0.49-2.79-0.09c-2.11,0.83-4.3,1.44-6.44,2.2c-4.65,1.64-9.29,3.3-13.91,5.02
	c-0.39,0.14-1.71,0.33-0.54,1.31c-0.09,0.2-0.2,0.59-0.27,0.58c-2.33-0.26-4.18,2.1-6.61,1.18c-4.96,1.1-9.65,3.05-14.43,4.68
	C262.41,53.23,262.86,53.85,263.03,54.39z"/>
<path class="st0" d="M137.22,182.96c0.84-1.08,1.69,0.08,2.55,0c1.22-0.12,0.12-0.64,0.22-0.94c0.44,0.1,0.92,0.12,1.32,0.3
	c6.05,2.69,12.34,3.68,18.9,2.6c-0.17,0.53-1.12,1.38,0.5,1.16c0.44-0.06,0.92-0.08,1.28,0.31c-7.94,1.55-15.55,0.45-22.84-2.96
	C138.51,183.13,137.91,182.93,137.22,182.96z"/>
<path class="st4" d="M92.26,162.95c-2.02,0.82-3.97,1.92-6.06,2.4c-2.13,0.48-3.68-1.36-5.44-2.26c0.49-0.62,0.43-1.24,0.03-1.87
	c3.22-1.38,6.44-1.15,9.67-0.05c-0.23,0.55-0.8,0.64-1.23,0.91c-0.43,0.27-1.13,0.45-0.86,1.09c0.29,0.67,0.9,0.26,1.35,0.06
	C90.54,162.84,91.34,162.43,92.26,162.95z"/>
<path class="st5" d="M309.82,37.24c0.75-1.79,2.62-1.8,4.04-2.33c4.94-1.87,9.98-3.49,14.96-5.25c0.73-0.26,1.42-0.47,2.18-0.29
	c0.13,0.15,0.27,0.3,0.4,0.45c-2.13,1.99-5.07,2.13-7.61,3.01c-4.06,1.41-8.02,3.13-12.19,4.21
	C311.03,37.18,310.41,37.17,309.82,37.24z"/>
<path class="st1" d="M155.18,156.92c-0.02-0.59-0.04-1.18-0.06-1.77c3.54,0.31,6.28,2.31,8.83,4.63c0.69,0.62,1.38,1.42,1.1,2.57
	c-0.48,0.23-0.49,0.64-0.98,0.86c-0.39-0.91-1.51-1.7-2.25-2.36C159.82,159.1,157.5,158.04,155.18,156.92z"/>
<path class="st0" d="M228.13,183.46c-0.19,0.79,1.24,0.36,0.92,1.24c-0.51,0.18-1.03,0.32-1.56,0.1c-1.19,0.01-2.48-0.67-3.51,0.49
	c-0.76,0.33-1.54,0.3-2.32,0.14c-0.89-0.49-1.77-0.49-2.65,0.01c-1.39,0.11-2.78,0.27-4.15-0.19c-1.05-1.14-2.33-0.44-3.53-0.44
	c-0.52-0.05-1.04-0.1-1.56-0.15c-0.25-0.43-0.53-0.52-0.88-0.1c-0.31-0.07-0.63-0.14-0.94-0.21c-0.25-0.99-1.38-0.26-1.83-0.92
	c1.55-0.49,3.05,0.24,4.56,0.03c0.3,0.04,0.6,0.09,0.9,0.13c0.18,0.52,0.6,0.63,1.09,0.63c4.33,0,8.66,0,13,0
	c0.48,0,0.91-0.09,1.12-0.59C227.22,183.35,227.67,183.34,228.13,183.46z"/>
<path class="st0" d="M168.72,184.78c0.64-0.43,1.91,1.1,2.1-0.68c1.6,0.24,3.13,0.69,4.54,1.5c0.3,1.76,2.03,0.33,2.72,1.21
	c0.45,1.06,1.77,0.25,2.32,1.09c-0.02,0.14-0.02,0.27,0.01,0.4C176.41,187.48,172.34,186.86,168.72,184.78z"/>
<path class="st5" d="M109.31,160.14c-0.14,0.17-0.27,0.49-0.41,0.49c-3.71,0.06-7.42,0.24-11.11,0.7
	C101.49,159.59,105.47,160.53,109.31,160.14z"/>
<path class="st5" d="M95.58,161.18c-2.64-0.78-5.28-1.55-7.92-2.33C90.56,158.74,93.16,159.64,95.58,161.18z"/>
<path class="st5" d="M119.81,156.66c-2.48,0.59-4.97,1.18-7.45,1.77C114.58,156.76,117.12,156.4,119.81,156.66z"/>
<path class="st0" d="M183.36,188.5c2.46-0.23,4.93-0.22,7.4-0.01C188.29,189.3,185.83,189.27,183.36,188.5z"/>
<path class="st1" d="M123.32,127.19c0.97,2.24,1.09,4.56,0.69,6.93C123.71,131.82,123.08,129.55,123.32,127.19z"/>
<path class="st1" d="M130.28,136.83c2.16,1.09,2.6,3.23,3.21,5.27C132.42,140.34,131.35,138.58,130.28,136.83z"/>
<path class="st1" d="M133.11,125.88c-1.86-0.69-3.8-1.24-5.11-2.89C129.75,123.87,131.7,124.41,133.11,125.88z"/>
<path class="st1" d="M154.41,154.9c-2.09-0.01-4.18-0.06-6.13-0.97C150.41,153.67,152.4,154.33,154.41,154.9z"/>
<path class="st1" d="M180.41,187.89c-0.55-0.84-1.88-0.02-2.32-1.09c0.5,0.09,1.01,0.27,1.4-0.26c0.6,0.04,1.2,0.09,1.79,0.13
	c0.37,0.92,1.23,0.58,1.9,0.73c0,0.34,0,0.67-0.01,1.01c-0.62-0.02-1.23-0.04-1.85-0.06C181.02,188.21,180.71,188.05,180.41,187.89z
	"/>
<path class="st6" d="M80.34,185.13c1.8,0.55,3.8,0.05,5.51,1.04C83.91,186.4,82.03,186.24,80.34,185.13z"/>
<path class="st1" d="M126.39,157.47c-1.79,0.13-3.51-0.27-5.2-0.8C123.01,156.39,124.75,156.6,126.39,157.47z"/>
<path class="st1" d="M142.48,146.15c-1.1-1.24-2.34-2.41-2.45-4.23C141.31,143.07,142.16,144.45,142.48,146.15z"/>
<path class="st6" d="M117.78,186.73c1.44-0.34,2.87-0.44,4.3,0.06C120.64,187.33,119.2,187.42,117.78,186.73z"/>
<path class="st5" d="M290.13,40.4c-0.95,1.27-2.41,1.14-3.75,1.35C287.54,41.06,288.71,40.4,290.13,40.4z"/>
<path class="st0" d="M132.25,184.81c1.35-0.7,2.63-1.62,4.28-1.41C135.13,183.94,133.87,184.91,132.25,184.81z"/>
<path class="st0" d="M162.94,186.12c1.33-0.83,2.81-1.19,4.35-1.35C165.96,185.64,164.49,186,162.94,186.12z"/>
<path class="st0" d="M211.34,184.81c1.19-0.01,2.47-0.7,3.53,0.44C213.64,185.48,212.45,185.45,211.34,184.81z"/>
<path class="st0" d="M223.99,185.29c1.03-1.16,2.32-0.48,3.51-0.49C226.39,185.4,225.21,185.49,223.99,185.29z"/>
<path class="st6" d="M125.32,186.51c1.08-0.53,2.2-0.79,3.41-0.69C127.72,186.7,126.57,186.88,125.32,186.51z"/>
<path class="st1" d="M147.06,153.83c-1.76,0.3-1.94-0.88-2.03-2.16C145.7,152.39,146.38,153.11,147.06,153.83z"/>
<path class="st1" d="M133.98,158.43c-0.62,2.87-0.72,2.95-2.29,1.67C133.52,161.02,132.95,158.62,133.98,158.43z"/>
<path class="st0" d="M219.01,185.44c0.88-0.5,1.77-0.5,2.65-0.01C220.78,185.75,219.9,185.73,219.01,185.44z"/>
<path class="st1" d="M129.97,158.9c-1.11-0.05-2.01-0.57-2.81-1.3C128.36,157.47,129.2,158.09,129.97,158.9z"/>
<path class="st1" d="M136.42,128.71c0.1-1.11-1.43-0.75-1.52-1.68C137.15,127.53,137.15,127.53,136.42,128.71z"/>
<path class="st0" d="M192.8,188.38c0.9-0.66,1.87-1.02,3-0.81C194.91,188.25,193.91,188.52,192.8,188.38z"/>
<path class="st8" d="M240.93,104.11c0.87-0.16,1.65,0.06,2.35,0.59C242.23,105.59,241.63,104.65,240.93,104.11z"/>
<path class="st1" d="M136.97,148.34c1.07,0.46,0.94,1.51,1.18,2.38C137.34,150.13,137.18,149.23,136.97,148.34z"/>
<path class="st6" d="M103.17,182.44c1.14-0.95,1.77,0.05,2.5,0.66C104.74,183.25,104.02,182.57,103.17,182.44z"/>
<path class="st5" d="M83.09,158.92c-0.55,0.7-1.27,0.56-1.99,0.4C81.66,158.66,82.35,158.67,83.09,158.92z"/>
<path class="st6" d="M91.79,186.18c0.56-0.72,1.29-0.57,2.02-0.4C93.23,186.36,92.56,186.53,91.79,186.18z"/>
<path class="st5" d="M308.51,33.8c-0.49,0.87-1.22,1.16-2.17,0.89C307.04,34.34,307.63,33.7,308.51,33.8z"/>
<path class="st1" d="M135.44,146.09c1.07,0,1.4,0.59,1.23,1.57C136.28,147.12,135.35,147,135.44,146.09z"/>
<path class="st7" d="M81.78,165.78c0.56-0.01,1.22,0.08,1.18,0.74c-0.03,0.58-0.67,0.75-1.25,0.73
	C81.74,166.75,81.76,166.26,81.78,165.78z"/>
<path class="st5" d="M294.75,38.86c-0.45,0.95-1.28,0.59-2.01,0.57C293.33,38.98,293.99,38.75,294.75,38.86z"/>
<path class="st8" d="M245.27,105.12c0.94,0.35,1.33,0.95,0.83,1.92C245.82,106.4,245.54,105.76,245.27,105.12z"/>
<path class="st6" d="M129.91,185.61c0.41-0.54,0.94-0.52,1.51-0.34C131.04,185.92,130.49,185.83,129.91,185.61z"/>
<path class="st1" d="M127.1,133.96c0.44-0.97,0.94-1.06,1.5-0.09"/>
<path class="st1" d="M139.12,154.67c-0.43,0.46-0.93,0.75-1.58,0.73C137.84,154.67,138.45,154.6,139.12,154.67z"/>
<path class="st6" d="M87.47,186.32c0.52-0.34,1.03-0.43,1.55,0.01C88.5,186.8,87.99,186.71,87.47,186.32z"/>
<path class="st5" d="M111.11,159.11c-0.29,0.66-0.82,0.81-1.47,0.71C109.88,159.07,110.59,159.3,111.11,159.11z"/>
<path class="st7" d="M80.27,165.08c0.62-0.05,1.24-0.07,1.49,0.68C81.12,165.85,80.48,165.93,80.27,165.08z"/>
<path class="st1" d="M131.38,159.81c-0.72,0.08-1.26-0.13-1.42-0.92C130.47,159.13,131.18,159.07,131.38,159.81z"/>
<path class="st1" d="M136.82,155.8c-0.29,0.62-0.7,1.02-1.45,0.83C135.63,155.95,136.26,155.95,136.82,155.8z"/>
<path class="st0" d="M198.74,186.78c0.2-0.64,0.66-0.7,1.22-0.55C199.67,186.68,199.25,186.82,198.74,186.78z"/>
<path class="st5" d="M180.41,187.89c0.31,0.16,0.61,0.32,0.92,0.47c-0.32,0.22-0.63,0.21-0.91-0.07
	C180.39,188.16,180.38,188.03,180.41,187.89z"/>
<path class="st6" d="M112.28,185.8c0.49-0.21,0.86-0.1,1.12,0.38C112.85,186.56,112.55,186.22,112.28,185.8z"/>
<path class="st6" d="M110.47,185.3c0.45-0.16,0.81-0.02,1.08,0.35C111.06,185.94,110.69,185.85,110.47,185.3z"/>
<path class="st8" d="M227.15,96.7c0.47-0.02,0.96-0.07,1.07,0.58C227.72,97.36,227.28,97.32,227.15,96.7z"/>
<path class="st0" d="M208.9,184.56c0.35-0.42,0.63-0.32,0.88,0.1C209.46,184.85,209.16,184.83,208.9,184.56z"/>
<path class="st1" d="M133.82,142.82c0.64,0.13,0.76,0.53,0.59,1.1C133.98,143.68,133.87,143.26,133.82,142.82z"/>
<path class="st6" d="M107.77,184.31c0.48-0.1,0.88,0,1.14,0.46C108.4,184.93,107.97,184.89,107.77,184.31z"/>
<path class="st6" d="M100.51,183.86c0.22-0.42,0.57-0.56,1.02-0.48C101.37,183.92,101.05,184.12,100.51,183.86z"/>
<path class="st0" d="M144.71,151.18c-0.61-0.24-0.58-0.72-0.44-1.23C144.76,150.23,144.71,150.71,144.71,151.18z"/>
<path class="st1" d="M138.55,151.54c0.43,0.22,0.62,0.55,0.49,1.04C138.51,152.41,138.41,152.03,138.55,151.54z"/>
<path class="st5" d="M304.85,35.31c-0.31,0.56-0.77,0.51-1.26,0.29C303.94,35.21,304.39,35.24,304.85,35.31z"/>
<path class="st7" d="M80.79,167.7c-0.22,0.14-0.44,0.27-0.66,0.41c-0.23-0.18-0.23-0.42-0.05-0.59
	C80.36,167.27,80.63,167.33,80.79,167.7z"/>
<path class="st8" d="M229.07,97.93c0.46,0.05,0.84,0.22,0.96,0.72C229.47,98.73,229.13,98.51,229.07,97.93z"/>
<path class="st1" d="M135.35,129.14c0.2-0.53,0.6-0.55,1.06-0.42"/>
<path class="st5" d="M284.19,42.59c-0.27,0.61-0.74,0.58-1.26,0.39C283.24,42.5,283.71,42.51,284.19,42.59z"/>
<path class="st5" d="M303,35.75c-0.21,0.44-0.56,0.58-1.02,0.5C302.21,35.87,302.48,35.56,303,35.75z"/>
<path class="st5" d="M272.25,46.75c-0.28,0.55-0.72,0.57-1.22,0.38C271.34,46.71,271.78,46.68,272.25,46.75z"/>
<path class="st5" d="M200.17,161.37c-0.06,0.56-0.39,0.82-0.95,0.8C199.38,161.72,199.63,161.37,200.17,161.37z"/>
<path class="st1" d="M138.86,139.72c-0.61-0.19-0.75-0.6-0.55-1.16C138.7,138.84,138.92,139.22,138.86,139.72z"/>
<path class="st1" d="M139.79,141.56c-0.66-0.17-0.74-0.61-0.56-1.18C139.67,140.65,139.78,141.08,139.79,141.56z"/>
<path class="st5" d="M282.26,43.35c-0.27,0.42-0.64,0.33-1.02,0.21C281.62,43.67,281.8,42.82,282.26,43.35z"/>
<path class="st1" d="M139.3,152.99c0.49,0.41,0.55,0.86,0.16,1.37C139.41,153.91,139.35,153.45,139.3,152.99z"/>
<path class="st1" d="M134.49,157.57c0.04,0.42-0.04,0.77-0.52,0.88C133.95,158.04,134.06,157.71,134.49,157.57z"/>
<path class="st5" d="M292.41,39.52c-0.2,0.4-0.54,0.49-0.94,0.43C291.69,39.61,292,39.44,292.41,39.52z"/>
<path class="st10" d="M169.97,152.58c0.01,0.1,0.02,0.19,0.02,0.29c0,0.01-0.11,0.01-0.17,0.02
	C169.8,152.75,169.84,152.65,169.97,152.58z"/>
<path class="st5" d="M280.94,43.7c-0.12,0.29-0.35,0.38-0.64,0.31C280.51,43.91,280.73,43.81,280.94,43.7z"/>
<path class="st5" d="M276.35,45.21c-0.15,0.09-0.31,0.18-0.46,0.26C275.95,45.23,276.09,45.12,276.35,45.21z"/>
<path class="st5" d="M198.75,162.59c-0.07,0.29-0.26,0.44-0.56,0.44C198.37,162.89,198.56,162.74,198.75,162.59z"/>
<path class="st5" d="M129.54,135.5c0.27,0.05,0.4,0.21,0.36,0.49C129.78,135.83,129.66,135.67,129.54,135.5z"/>
<path class="st5" d="M260.72,50.79c-0.16,0.06-0.32,0.12-0.47,0.18C260.34,50.75,260.48,50.63,260.72,50.79z"/>
<path class="st5" d="M137.29,155.55c-0.14,0.08-0.29,0.15-0.43,0.23C136.92,155.54,137.05,155.44,137.29,155.55z"/>
<path class="st10" d="M172.89,142.45c0.13,0.27,0.08,0.49-0.18,0.65C172.77,142.88,172.83,142.66,172.89,142.45z"/>
<path class="st5" d="M309.86,33.55c-0.11,0.26-0.25,0.33-0.45,0.08C309.56,33.6,309.71,33.58,309.86,33.55z"/>
<path class="st6" d="M97.26,184.95c0.14-0.26,0.34-0.31,0.59-0.18C97.71,185,97.52,185.1,97.26,184.95z"/>
<path class="st1" d="M134.92,157.07c0.02,0.31-0.14,0.46-0.43,0.5C134.49,157.28,134.62,157.1,134.92,157.07z"/>
<path class="st8" d="M244.62,104.96c0.24-0.17,0.42-0.13,0.56,0.13C244.96,105.23,244.77,105.19,244.62,104.96z"/>
<path class="st5" d="M196.38,187.5c0.18-0.02,0.36-0.04,0.54-0.06C196.74,187.46,196.56,187.48,196.38,187.5z"/>
<path class="st5" d="M197.39,187.38c0.2-0.11,0.4-0.21,0.6-0.32C197.88,187.32,197.69,187.45,197.39,187.38z"/>
<path class="st8" d="M233.64,100.75c0.28-0.08,0.41,0.04,0.43,0.31C233.82,101.11,233.67,101.01,233.64,100.75z"/>
<path class="st6" d="M123.45,186.66c0.17-0.22,0.36-0.23,0.57-0.06C123.85,186.83,123.67,186.9,123.45,186.66z"/>
<path class="st8" d="M231.81,99.86c0.25-0.06,0.37,0.05,0.36,0.3C231.91,100.22,231.8,100.11,231.81,99.86z"/>
<path class="st2" d="M244.1,49.03c2.43,0.47,5.13,0.93,7.32,2.82c1.15,1,1.11,1.7-0.34,2.31c-2.08,0.88-4.22,1.64-6.27,2.63
	c-1.25,0.6-1.44,1.37-1.5,2.48c-0.22,4.57,1.51,8.34,4.73,11.46c0.66,0.64,1.29,1.27,1.78,2.05c2.73,4.35,5.77,8.51,7.1,13.63
	c0.75,2.89,0.77,5.73,0.57,8.63c-0.02,0.28,0.1,0.66-0.3,0.78c-0.55,0.16-0.86-0.23-1.1-0.61c-1.04-1.68-2.43-3.09-3.59-4.66
	c-4.37-5.9-10.15-10.49-14.79-16.1c-3.15-3.81-6.59-7.74-6.43-13.16C231.53,53.45,236.25,49.76,244.1,49.03z"/>
<path class="st2" d="M207.27,62.9c2.82-0.11,5.4,0.79,7.88,1.99c0.81,0.39,1.59,0.87,0.01,1.57c-5.9,2.6-9.12,7.46-10.95,13.43
	c-1.29,4.18-3.36,8.07-6.27,11.2c-3.76,4.05-7.64,5.44-14.38,3.11c-1.07-0.37-2.1-0.86-3.13-1.34c-1.18-0.55-1.44-1.3-0.06-1.82
	c5.29-2.02,8.94-5.87,11.72-10.6c1.11-1.89,1.72-4.08,2.11-6.26C195.32,67.94,202.09,62.38,207.27,62.9z"/>
<path class="st11" d="M246.74,87.33c4.1,4.46,7.45,8.89,10.86,13.29c3.62,4.67,5.45,10.02,6.93,15.51
	c1.06,3.92,0.76,7.83-2.22,11.11c-1.06,1.16-1.44,1.24-2.41-0.25c-2.51-3.85-4.27-8.16-7.22-11.75c-1.71-2.09-2.29-4.8-3.51-7.16
	c-3.09-5.94-3.43-12.28-2.9-18.76C246.31,88.83,246.5,88.33,246.74,87.33z"/>
<path class="st12" d="M235.05,163.13c2.75,0.82,2.9,1.06,1.61,3.53c-1.86,3.56-3.74,7.11-7.7,8.87c-2.32,1.03-4.75,1.54-7.25,1.78
	c-2.91-0.1-5.81-0.2-8.72-0.29c-1.68-0.35-3.37-0.71-5.05-1.06c-0.71-0.42-1.44-0.77-2.3-0.69c-2.55-1-2.47-0.97-0.63-2.78
	c4.91-4.84,10.78-7.65,17.53-8.73c0.82-0.13,1.61-0.42,2.41-0.63C228.32,163.13,231.68,163.13,235.05,163.13z"/>
<path class="st13" d="M254.64,153.35c0.74,4.76-1.2,8.65-3.7,12.23c-2.28,3.28-5.82,4.8-9.57,5.8c-0.96,0.26-1.95,0.38-2.92,0.57
	c-0.66,0.13-1.5,0.55-1.94-0.04c-0.58-0.76,0.23-1.53,0.66-2.01c2.55-2.83,3.45-6.33,4.3-9.89c1.11-4.65,3.09-8.98,5.03-13.32
	c0.9-2.02,2.85-3.11,4.18-4.75c0.42-0.52,1.17-0.8,1.38,0.14C252.9,145.9,255.59,149.27,254.64,153.35z"/>
<path class="st11" d="M274.25,113.03c0.61,4.57-0.82,8.61-2.25,12.61c-1.27,3.57-4.23,5.43-7.57,6.79
	c-0.93,0.38-1.63,0.21-2.17-0.62c-0.52-0.81-0.58-1.64,0.19-2.27c5.77-4.74,4.39-10.8,3.16-16.85c-0.59-2.94-1.88-5.57-3.39-8.1
	c-0.83-1.39-0.7-2.41,0.88-3.02c2.66-1.03,3.92-3.22,4.81-5.73c0.16-0.47,0.04-1.18,0.82-1.15c0.63,0.02,0.84,0.6,1.09,1.06
	c1.32,2.43,2.27,5.01,2.94,7.67C273.57,106.62,275,109.75,274.25,113.03z"/>
<path class="st2" d="M266.84,90.85c0.15,1.59-0.32,3.34-0.89,5.1c-0.76,2.33-2.5,3.57-4.62,4.35c-1.48,0.54-2.81-1.24-2.11-3.15
	c1.29-3.56,1.3-7.16,0-10.54c-1.61-4.2-3.17-8.48-5.96-12.12c-0.55-0.72-1.08-1.47-1.56-2.24c-0.54-0.87-0.18-1.45,0.72-1.75
	c2.8-0.93,5.62-1.81,8.41-2.79c1.95-0.69,2.78-0.43,3.43,1.91c1.75,6.21,2.57,12.5,2.77,18.91
	C267.05,89.2,266.92,89.89,266.84,90.85z"/>
<path class="st2" d="M243.64,102.95c-2.2-0.23-4.34-1.24-6.31-2.22c-4.6-2.29-8.79-5.26-12.77-8.57c-2.63-2.19-4.9-4.74-7.49-6.95
	c-0.61-0.52-1.54-1.07-1.3-2c0.25-0.98,1.3-0.45,1.98-0.62c1.24-0.32,2.62-0.57,3.67-1.1c3.4-1.71,5.44,0.2,7.49,2.28
	c3.96,4.02,8.76,6.78,13.8,9.17c0.99,0.47,1.44,1.05,1.5,2.03c0.16,2.28,0.13,4.58,0.85,6.8
	C245.45,103.02,244.54,102.94,243.64,102.95z"/>
<path class="st3" d="M230.45,66.56c0.64,2.67,2.5,4.63,4.08,6.72c1.03,1.37,0.44,1.9-0.79,2.25c-7.3,2.07-14.42,4.8-21.98,5.93
	c-1.58,0.24-3.12,0.72-4.69,1.04c-0.54,0.11-1.23,0.71-1.65-0.01c-0.32-0.54,0.11-1.18,0.31-1.75c1.47-4.15,3.32-7.95,8.14-9.1
	c2.4,0.05,4.41-1.11,6.46-2.11c2.25-1.05,4.96-0.92,6.93-2.7c0.59-0.12,1.18-0.24,1.77-0.36C229.51,66.5,229.98,66.53,230.45,66.56z
	"/>
<path class="st13" d="M251.91,118.19c0.86,0.98,1.65,1.61,2.08,2.43c2.53,4.81,6.1,9.13,7.57,14.44c1.65,5.93,2.25,11.9-1.66,17.37
	c-0.18,0.25-0.33,0.53-0.55,0.72c-0.69,0.57-1.51,1.36-2.35,1.07c-0.74-0.26-0.33-1.36-0.4-2.08c-0.47-4.72-2.18-9.09-3.46-13.6
	c-1.55-5.46-3.19-11.04-2.37-16.87C250.92,120.59,251.45,119.56,251.91,118.19z"/>
<path class="st12" d="M228.13,183.46c-0.47-0.12-0.92-0.11-1.33,0.17c-5.07-0.01-10.14-0.03-15.21-0.04c-0.3-0.04-0.6-0.09-0.9-0.13
	c-2.76-1.01-5.72-1.31-8.45-2.47c-0.62-0.27-1.3-0.43-1.83-0.86c-0.97-0.8-3.22-1.29-2.53-2.55c0.73-1.34,2.58-2.63,4.68-1.62
	c0.59,0.59,1.35,0.55,2.09,0.59c0.31,0.41,0.78,0.47,1.24,0.54c0.22,0.07,0.45,0.14,0.67,0.21c0.88,0.2,1.76,0.4,2.64,0.6
	c2.13,0.76,4.35,0.94,6.57,1.15c5.77,0.64,11.29-0.04,16.26-3.28c1.28-0.83,2.35-1.04,3.59,0.02c1.13,0.96,2.57,1.29,4,1.57
	c0.97,0.2,1.95,0.33,2.89,1.2c-3.6,2.26-7.53,3.29-11.52,4.15C230.03,182.91,229.03,182.98,228.13,183.46z"/>
<path class="st13" d="M262.18,156.29c-0.18,0.39-0.55,0.4-0.9,0.45l-0.09-0.1c-0.05-0.84-0.1-1.69-0.14-2.53
	c3.59-4.65,4.72-9.85,3.53-15.59c-0.14-0.67-0.14-1.37-0.26-2.05c-0.25-1.31,0.11-1.93,1.51-2.5c2.46-1,4.8-2.39,6.23-4.82
	c0.37-0.62,0.77-1.22,1.59-1.03c0.92,0.21,0.63,1.08,0.79,1.7c1.03,3.98,1.46,8,0.24,12c-1.59,5.24-4.12,9.87-9.12,12.7
	C264.22,154.71,262.93,154.98,262.18,156.29z"/>
<path class="st4" d="M181.27,186.68c-0.6-0.04-1.2-0.09-1.79-0.13c-1.25-0.86-2.66-1.03-4.12-0.96c-1.41-0.81-2.94-1.26-4.54-1.5
	c-0.4-0.15-0.8-0.29-1.2-0.43c-0.24-0.49-0.6-0.76-1.16-0.67c-1.62-0.97-3.2-1.97-4.42-3.5c-0.74-0.93-0.55-1.13,0.47-1.49
	c1.76-0.62,3.36-0.64,5.01,0.35c1.78,1.06,3.81,1.4,5.83,1.67c4.7,1.04,9.38,0.48,14.05-0.24c1.5-0.23,2.97-0.61,4.44-0.99
	c0.59-0.15,1.05,0.02,1.5,0.31c1.59,1.01,3.22,1.95,4.73,3.07c0.47,0.35,1.42,0.52,1.31,1.3c-0.09,0.63-0.89,0.76-1.43,0.99
	c-2.72,1.18-5.55,1.98-8.49,2.36c-0.99-0.15-1.93,0.01-2.83,0.42c-1.67-0.08-3.34-0.15-5.02-0.23
	C182.89,186.53,182.1,186.48,181.27,186.68z"/>
<path class="st13" d="M267.84,155.36c-1.86,8.56-6.04,14.92-13.4,18.48c-5.54,2.68-11.56,3.66-17.51,0.25
	c1.97-0.36,3.91-0.75,5.82-1.26c5.47-1.48,9.39-4.84,12.01-9.74c0.55-1.02,1.07-1.83,2.14-2.17
	C260.63,159.73,263.99,157.82,267.84,155.36z"/>
<path class="st3" d="M188.68,82.27c-2.22,3.18-5.14,5.41-8.77,6.82c-5.04,1.95-4.99,2-1.08,5.45c0.88,0.78,2.54,1.41,2.24,2.61
	c-0.28,1.14-2.02,1.06-3.18,1.36c-4.17,1.07-8.37,1.55-12.65,0.75c-1.55-1.77-1.47-1.97,0.95-2.55c0.3,0.02,0.59,0.03,0.89,0.05
	c0.2,0.03,0.4,0.06,0.6,0.09c1.22,0.02,2.44,0.06,3.65,0.05c0.59,0,1.4,0.06,1.38-0.77c-0.02-0.69-0.77-0.58-1.29-0.6
	c-1.29-0.05-2.59-0.08-3.88-0.13c-1-0.04-2.13,0.01-2.4-1.24c-0.24-1.11,0.59-1.73,1.39-2.4c4.65-3.86,9.96-6.43,15.64-8.35
	c0.54-0.18,2.07-0.63,0.52-1.72c-0.01-0.3-0.02-0.6-0.03-0.9c0.43-0.16,0.87-0.31,1.3-0.47c1.35,0.03,2.7,0.07,4.04,0.1
	c0.21,0.17,0.42,0.34,0.63,0.5C188.66,81.38,188.67,81.82,188.68,82.27z"/>
<path class="st14" d="M235.96,76.59c1.13,0.1,1.87,0.77,2.54,1.46c1.73,1.8,3.23,3.83,5.31,5.28c1.67,1.17,1.11,2.73,0.84,4.34
	c-0.68,4.08-0.94,4.23-4.58,1.92c-3.91-2.48-7.97-4.73-11.08-8.31c-1.28-1.47-1.42-2.17,0.74-2.68
	C231.86,78.1,233.92,77.27,235.96,76.59z"/>
<path class="st13" d="M244.05,147.53c-3.16-5.44-0.94-10,1.4-14.51c0.49-0.95,1.4-1.56,2.5-1.85c0.99-0.26,1.58-0.07,1.82,1.04
	c0.41,1.93,0.92,3.84,1.36,5.77c0.14,0.61,0.07,1.21-0.51,1.64C247.84,141.66,245.59,144.16,244.05,147.53z"/>
<path class="st12" d="M201.27,162.89c7.24-5.32,14.37-4.83,21.97-1.28c-3.81,1.08-7.42,1.82-10.81,3.29
	c-1.59,0.69-3.04-0.68-4.58-0.95C205.78,163.6,203.7,163.28,201.27,162.89z"/>
<path class="st13" d="M228.2,161.14c0.34-3.44,2.25-5.51,5.5-6.34c2-0.51,3.97-0.96,6.06-0.85c0.99,0.05,1.42,0.39,1.15,1.4
	c-0.35,1.32-0.73,2.64-1.02,3.97c-0.48,2.23-1.61,3.29-3.97,2.41c-0.26-0.1-0.59,0.03-0.89,0.05c-0.3-0.05-0.6-0.09-0.89-0.14
	c-0.58-0.51-1.22-0.37-1.87-0.19c-0.9-0.27-1.82-0.28-2.74-0.14c-0.15,0-0.3,0.01-0.45,0.01
	C228.78,161.27,228.49,161.2,228.2,161.14z"/>
<path class="st11" d="M246.97,109.3c1.72,1.73,2.42,3.84,3.44,5.76c0.5,0.95,0.22,1.88-0.23,2.84c-0.72,1.51-1.34,3.07-1.47,4.77
	c-0.04,0.56,0.21,1.34-0.7,1.43c-0.73,0.07-1.05-0.57-1.34-1.07C244.16,118.79,243.52,114.02,246.97,109.3z"/>
<path class="st3" d="M220.34,69.53c-2.06,1.01-4.06,2.16-6.46,2.11c-0.53-0.38-1.06-0.77-1.58-1.15c0.46-1.14,1.64-1.18,2.57-1.52
	c4.47-1.66,8.97-3.23,13.46-4.83c0.48-0.17,1.03-0.63,1.41-0.02c0.32,0.52-0.26,0.97-0.43,1.46c0,0-0.17,0-0.17,0
	c-0.63,0.07-1.26,0.15-1.89,0.22c-1.5,0.75-3.11,1.19-4.71,1.69C221.55,67.81,220.23,67.94,220.34,69.53z"/>
<path class="st3" d="M162.47,90.95c0.96-1.2,2.15-2.14,3.47-2.91c0.59,0.17,1.04,0.08,1.17-0.61c0.27-0.13,0.53-0.26,0.8-0.39
	c0.21,0.5,0.68,0.61,1.13,0.74c-1.25,0.92-2.5,1.83-3.75,2.75c-1.86,0.87-2.39,2.28-1.72,4.19c0.14,0.27,0.27,0.55,0.41,0.82
	c-1.08,0.66,0.28,2.65-1.57,2.89c-3.56-0.66-4.08-2.06-2.04-5.55c0.57-0.08,1.2-0.09,1.23-0.91c0,0,0.05-0.06,0.05-0.06
	C162.24,91.85,162.5,91.52,162.47,90.95z"/>
<path class="st5" d="M252.59,56.49c1.92-0.21,3.59-1.2,5.41-1.71c0.91-0.25,1.78-0.58,2.16,0.7c-4.37,1.53-8.73,3.1-13.13,4.54
	c-0.86,0.28-1.44,0.74-1.96,1.39c0.39-0.86-0.68-1.78,0.13-2.62C247.94,58.94,250.24,57.66,252.59,56.49z"/>
<path class="st3" d="M169.05,87.77c-0.45-0.13-0.92-0.24-1.13-0.74c2.51-2.23,5.7-3.15,8.73-4.26c1.96-0.72,3.8-1.98,6.02-1.96
	c0.01,0.3,0.02,0.6,0.03,0.9C178.04,83.47,173.57,85.67,169.05,87.77z"/>
<path class="st0" d="M234.13,161.65c0.3,0.05,0.6,0.09,0.89,0.14c0.01,0.45,0.02,0.9,0.02,1.35c-3.37,0-6.73,0-10.1,0
	c-0.45-1.37-0.18-2.11,1.44-1.65c0.67,0.19,1.32,0.4,1.81-0.34c0.29,0.06,0.58,0.13,0.87,0.19c0.16,0.23,0.31,0.22,0.45-0.01
	c0.92-0.14,1.84-0.13,2.74,0.14C232.79,162.44,233.43,162.35,234.13,161.65z"/>
<path class="st0" d="M215.77,179.04c-2.22-0.22-4.45-0.4-6.57-1.15c1.22-0.48,2.85,0.85,3.79-0.87c2.91,0.1,5.81,0.2,8.72,0.29
	c-2.23,1.04-4.59,0.11-6.9,0.5C214.7,178.53,215.84,178.34,215.77,179.04z"/>
<path class="st3" d="M252.59,56.49c-2.34,1.17-4.65,2.45-7.39,2.3c2.1-1.81,4.85-2.11,7.28-3.16
	C252.51,55.92,252.55,56.21,252.59,56.49z"/>
<path class="st3" d="M188.01,80.43c-1.35-0.03-2.7-0.07-4.04-0.1c1.95-1.26,4.19-1.7,6.49-2.44
	C190.35,79.69,188.49,79.34,188.01,80.43z"/>
<path class="st13" d="M260.26,157.61c-0.51,0.62-1.21,0.84-1.96,0.94c-0.74,0.1-1.61,1.26-2.15,0.3c-0.51-0.91,0.27-1.79,1.28-2.2
	C258.13,157.68,259.18,157.7,260.26,157.61z"/>
<path class="st3" d="M162.41,98.42c1.85-0.24,0.49-2.23,1.57-2.89c0.74,0.39,1.48,0.78,2.22,1.17c-2.43,0.58-2.5,0.77-0.95,2.55
	C164.19,99.34,163.14,99.42,162.41,98.42z"/>
<path class="st13" d="M260.26,157.61c-1.08,0.09-2.13,0.07-2.83-0.96c0.47-0.63,1.23-0.69,1.88-0.97c0.63,0.32,1.25,0.65,1.88,0.97
	c0,0,0.09,0.1,0.09,0.1C260.94,157.03,260.6,157.32,260.26,157.61z"/>
<path class="st7" d="M193.78,165.14c-1.06,1.56-2.71,1.04-4.17,1.18c0.29-0.35,0.59-0.69,0.88-1.04
	C191.58,165.17,192.66,164.86,193.78,165.14z"/>
<path class="st7" d="M179.02,178.73c1.39-0.69,2.77-0.69,4.14,0.02C181.78,179.18,180.4,179.17,179.02,178.73z"/>
<path class="st13" d="M261.19,156.65c-0.63-0.32-1.25-0.65-1.88-0.97c0.5-0.61,0.99-1.22,1.74-1.56
	C261.09,154.96,261.14,155.8,261.19,156.65z"/>
<path class="st13" d="M262.18,156.29c0.74-1.32,2.03-1.58,3.37-1.76C264.69,155.62,263.57,156.21,262.18,156.29z"/>
<path class="st7" d="M184.51,178.64c0.77-1.32,1.77-0.89,2.79-0.37C186.41,178.72,185.47,178.73,184.51,178.64z"/>
<path class="st0" d="M188.63,187.23c0.9-0.41,1.85-0.58,2.83-0.42C190.6,187.5,189.72,188.11,188.63,187.23z"/>
<path class="st0" d="M181.27,186.68c0.82-0.2,1.61-0.15,2.34,0.33c-0.15,0.14-0.29,0.27-0.44,0.41
	C182.51,187.26,181.65,187.6,181.27,186.68z"/>
<path class="st7" d="M175.34,178.29c0.89-0.63,1.71-0.83,2.34,0.34c-0.77,0.01-1.53,0.02-2.3,0.02
	C175.32,178.53,175.31,178.41,175.34,178.29z"/>
<path class="st0" d="M205.63,175.28c0.86-0.08,1.59,0.27,2.3,0.69C206.93,176.52,206.24,176.03,205.63,175.28z"/>
<path class="st7" d="M206.11,165.86c-0.7,0.6-1.17,0.47-1.39-0.45C205.27,165.3,205.75,165.4,206.11,165.86z"/>
<path class="st7" d="M190.07,177.84c0.18-1,0.63-1.17,1.37-0.44C191.09,177.88,190.61,177.96,190.07,177.84z"/>
<path class="st5" d="M229.14,65.58c0,0,0.17,0,0.17,0c0.5,0.19,0.96,0.42,1.14,0.98c-0.47-0.03-0.94-0.06-1.41-0.09
	C229.07,66.17,229.11,65.88,229.14,65.58z"/>
<path class="st7" d="M206.99,168.07c0.13-0.86,0.81-0.8,1.42-0.84C208.17,167.9,207.64,168.09,206.99,168.07z"/>
<path class="st3" d="M161.6,91.96c-0.03,0.82-0.66,0.82-1.23,0.91C160.53,92.23,160.93,91.91,161.6,91.96z"/>
<path class="st0" d="M204.65,176.54c-0.74-0.03-1.5,0-2.09-0.59C203.27,176.07,204.14,175.65,204.65,176.54z"/>
<path class="st3" d="M167.12,87.42c-0.14,0.69-0.58,0.79-1.17,0.61C166.14,87.45,166.57,87.32,167.12,87.42z"/>
<path class="st1" d="M227.02,159.26c0.07,0.14,0.18,0.27,0.18,0.4c-0.01,0.12-0.13,0.24-0.21,0.36c-0.06-0.13-0.18-0.25-0.18-0.38
	C226.82,159.51,226.94,159.39,227.02,159.26z"/>
<path class="st3" d="M188.68,82.27c-0.01-0.45-0.02-0.89-0.04-1.34C190.07,81.34,188.96,81.81,188.68,82.27z"/>
<path class="st7" d="M196.46,175.47c0.33-0.53,0.86-0.45,1.37-0.44C197.52,175.62,196.98,175.52,196.46,175.47z"/>
<path class="st3" d="M162.47,90.95c0.03,0.58-0.23,0.91-0.82,0.95C161.72,91.4,161.97,91.06,162.47,90.95z"/>
<path class="st5" d="M245.24,62.3c0.4,0.46,0.45,0.99,0.36,1.56C245.08,63.43,245.12,62.87,245.24,62.3z"/>
<path class="st7" d="M204.35,165.34c-0.18-0.05-0.36-0.09-0.54-0.14C204.04,165.04,204.21,165.1,204.35,165.34z"/>
<path class="st7" d="M204.28,170.45c0.16-0.15,0.31-0.3,0.47-0.45C204.73,170.29,204.59,170.46,204.28,170.45z"/>
<path class="st7" d="M200.58,173.13c0.15-0.13,0.3-0.27,0.45-0.4C200.88,172.86,200.73,173,200.58,173.13z"/>
<path class="st7" d="M195.99,175.85c0.15-0.12,0.3-0.25,0.46-0.37C196.41,175.75,196.28,175.9,195.99,175.85z"/>
<path class="st5" d="M206.56,177.29c-0.22-0.07-0.45-0.14-0.67-0.21C206.11,177.15,206.34,177.22,206.56,177.29z"/>
<path class="st4" d="M123.04,185.23c-1.85,0-3.7,0.01-5.54,0.01c-0.26-0.39-0.59-0.44-0.97-0.18c-6.6-0.6-11.75-4.21-16.77-8.1
	c-0.41-0.32-1.08-0.93-0.64-1.25c0.82-0.6,1.93-1.16,2.96-0.46c1.35,0.92,2.76,1.62,4.33,2.01c7.24,1.77,14.44,0.93,21.6-0.45
	c1.51-0.29,2.47,0,3.44,0.93c0.94,0.9,1.74,1.97,2.77,2.73c1.69,1.24,0.81,1.75-0.48,2.21c-2.73,0.96-5.46,1.9-8.39,2.07
	c-0.45,0.03-0.89,0.21-1.33,0.31C123.63,184.81,123.3,184.82,123.04,185.23z"/>
<path class="st4" d="M160.22,184.92c-6.57,1.08-12.85,0.09-18.9-2.6c-0.41-0.18-0.88-0.2-1.32-0.3c-1.87-1.54-4.42-2.08-6.04-3.98
	c-0.58-0.67-2.02-1.34-1.08-2.33c0.8-0.84,2.18-1.51,3.52-0.64c1.81,1.16,3.75,1.88,5.86,2.4c5.09,1.24,10.25,1.59,15.41,1.14
	c2.64-0.23,4.42,0.43,5.72,2.63c0.49,0.83,2.06,1.3,1.66,2.21c-0.43,0.98-1.89,1.08-3.03,1.23
	C161.42,184.76,160.82,184.84,160.22,184.92z"/>
<path class="st15" d="M156.49,164.13c-0.65,0.02-1.31,0.04-1.96,0.05c-3.14-0.52-6.27-1.1-9.48-0.94c-0.17-0.04-0.35-0.09-0.52-0.13
	c-0.31-0.42-0.73-0.6-1.25-0.59c-0.38-0.36-0.85-0.4-1.33-0.4c-0.5-0.65-1.19-0.75-1.95-0.66c-0.46-0.08-0.92-0.16-1.38-0.24
	c-3.55-1.08-3.55-1.08-1.79-3.57c0,0,0.01-0.01,0.01-0.01c0.18-0.12,0.36-0.25,0.54-0.37c0,0-0.09-0.1-0.09-0.1s0.07,0.11,0.07,0.11
	c0.19-0.17,0.37-0.34,0.56-0.5c0.12,0.03,0.21-0.01,0.26-0.12c0.23-0.1,0.47-0.2,0.7-0.29c0.11,0.05,0.18,0.02,0.23-0.08
	c1.06-0.22,2.22,0.07,3.18-0.66c0.46-0.03,0.91-0.07,1.37-0.1c2.3,0.05,4.59,0.11,6.89,0.16c0.32,0.01,0.64,0.03,0.95,0.04
	c0.86,0.46,1.75,0.8,2.74,0.8c0.31,0.05,0.62,0.1,0.92,0.15c2.03,0.94,4.08,1.84,5.83,3.32c0.65,0.55,1.91,1.35,2.25,2.12
	c1.52,2.37-0.31,2.02-2.7,2.02C159.44,164.13,157.59,164.11,156.49,164.13z"/>
<path class="st4" d="M120.1,158.36c3.25,0.05,5.98,0.28,8.47,1.63c0.44,0.24,1.12,0.44,1.04,1.07c-0.07,0.56-0.63,0.83-1.16,0.99
	c-2.55,0.77-5.08,1.57-7.5,2.71c-0.63,0.3-1.47,0.46-1.99,0.05c-1.96-1.56-4.29-2.26-6.55-3.17c-0.96-0.38-1.05-0.83,0.02-1.5
	C114.97,158.55,117.75,158.41,120.1,158.36z"/>
<path class="st15" d="M145.04,163.24c3.21-0.16,6.34,0.42,9.48,0.94c0.01,0.25,0.03,0.51,0.04,0.76c-3.01,0.47-5.76-1.45-8.78-0.98
	C145.4,164.02,145.15,163.63,145.04,163.24z"/>
<path class="st4" d="M92.26,162.95c-0.91-0.52-1.72-0.11-2.54,0.27c-0.45,0.21-1.06,0.61-1.35-0.06c-0.28-0.64,0.43-0.82,0.86-1.09
	c0.43-0.27,1-0.36,1.23-0.91c0.88,0.17,1.92-0.12,2.46,0.94c-0.37,0.15-0.55,0.42-0.5,0.82L92.26,162.95z"/>
<path class="st15" d="M136.83,157.63c-1.77,2.49-1.77,2.49,1.79,3.57c-1.34,0.84-2.61,0.11-3.71-0.43
	c-0.84-0.41-0.11-1.36,0.09-2.04C135.27,157.85,136.22,158,136.83,157.63z"/>
<path class="st1" d="M150.55,155.66c-2.3-0.05-4.59-0.11-6.89-0.16c1.05-1.32,2.48-0.58,3.71-0.58
	C148.43,154.92,149.49,155.39,150.55,155.66z"/>
<path class="st4" d="M192.34,164.8c15.37,0.56,21.37-0.42,11.74,6.27l-4.95,3.25c-1.46,1.5-15.56,8.2-29.04,2.61
	C180.39,170,187.29,165.67,192.34,164.8z"/>
<path class="st1" d="M142.29,155.6c-0.95,0.73-2.12,0.44-3.18,0.66C139.91,154.81,141.09,155.18,142.29,155.6z"/>
<path class="st1" d="M154.24,156.5c-0.99,0.01-1.89-0.33-2.74-0.8C152.59,155.36,153.56,155.43,154.24,156.5z"/>
<path class="st1" d="M140,161.45c0.75-0.09,1.44,0.01,1.95,0.66C141.23,162.09,140.37,162.5,140,161.45z"/>
<path class="st5" d="M123.04,185.23c0.27-0.4,0.6-0.42,0.98-0.17C123.76,185.55,123.47,185.81,123.04,185.23z"/>
<path class="st5" d="M116.52,185.05c0.38-0.25,0.71-0.2,0.97,0.18C117.05,185.81,116.77,185.53,116.52,185.05z"/>
<path class="st5" d="M93.37,162.13c0.43,0.03,0.7,0.24,0.51,0.67c-0.13,0.3-0.43,0.31-0.7,0.09
	C93.25,162.64,93.31,162.39,93.37,162.13z"/>
<path class="st0" d="M168.45,182.99c0.57-0.09,0.93,0.18,1.16,0.67C169.03,183.79,168.59,183.65,168.45,182.99z"/>
<path class="st1" d="M143.27,162.51c0.52-0.01,0.94,0.18,1.25,0.59C144.01,163.12,143.49,163.14,143.27,162.51z"/>
<path class="st9" d="M93.37,162.13c-0.06,0.25-0.12,0.5-0.19,0.76c-0.26,0.01-0.52,0.02-0.77,0.03c-0.04-0.4,0.13-0.67,0.5-0.82
	C93.07,162.11,93.22,162.12,93.37,162.13z"/>
<path class="st5" d="M177.19,164.79c0.23-0.2,0.37-0.09,0.47,0.13C177.5,164.88,177.34,164.83,177.19,164.79z"/>
<path class="st0" d="M138.88,156.34c-0.23,0.1-0.47,0.2-0.7,0.29C138.41,156.54,138.65,156.44,138.88,156.34z"/>
<path class="st0" d="M137.92,156.76c-0.19,0.17-0.37,0.33-0.56,0.5C137.4,156.93,137.6,156.77,137.92,156.76z"/>
<path class="st0" d="M137.38,157.25c-0.18,0.12-0.36,0.25-0.54,0.37C137.03,157.5,137.2,157.37,137.38,157.25z"/>
<path class="st5" d="M284.63,46.48c-1.17-0.97,0.15-1.16,0.54-1.31c4.62-1.72,9.26-3.38,13.91-5.02c2.14-0.76,4.34-1.36,6.44-2.2
	c1.01-0.4,1.87-0.45,2.79,0.09C300.54,41.19,292.63,43.97,284.63,46.48z"/>
<path class="st5" d="M263.03,54.39c-0.17-0.54-0.62-1.16,0.29-1.47c4.79-1.63,9.47-3.59,14.43-4.68c-0.3,2.43-2.71,2.23-4.04,2.55
	C270.02,51.69,266.63,53.31,263.03,54.39z"/>
<path class="st0" d="M211.59,183.58c5.07,0.01,10.14,0.03,15.21,0.04c-0.21,0.51-0.64,0.59-1.12,0.59c-4.33,0-8.66,0-13,0
	C212.2,184.21,211.78,184.11,211.59,183.58z"/>
<path class="st15" d="M154.52,164.18c1.1-0.02,6.93-0.05,8.03-0.06C157.98,168.95,153.66,166.32,154.52,164.18z"/>
<path class="st0" d="M175.36,185.59c1.46-0.07,2.87,0.1,4.12,0.96c-0.38,0.53-0.9,0.35-1.4,0.26
	C177.39,185.92,175.67,187.35,175.36,185.59z"/>
<path class="st5" d="M220.34,69.53c-0.11-1.59,1.21-1.72,2.21-2.03c1.6-0.5,3.21-0.94,4.71-1.69c0,0.34,0.01,0.68,0.01,1.02
	C225.3,68.61,222.59,68.47,220.34,69.53z"/>
<path class="st0" d="M227.27,66.83c0-0.34-0.01-0.68-0.01-1.02c0.63-0.07,1.26-0.14,1.89-0.22c-0.03,0.29-0.07,0.59-0.1,0.88
	C228.45,66.59,227.86,66.71,227.27,66.83z"/>
<path class="st5" d="M166.2,96.7c-0.74-0.39-1.48-0.78-2.22-1.17c-0.14-0.27-0.27-0.55-0.4-0.82c0.15-1.57,1.1-2.81,1.72-4.19
	c1.25-0.92,2.5-1.83,3.75-2.75c4.52-2.1,8.99-4.3,13.65-6.07c1.55,1.08,0.02,1.53-0.52,1.72c-5.68,1.92-10.99,4.49-15.64,8.35
	c-0.8,0.66-1.63,1.29-1.39,2.4c0.27,1.25,1.41,1.2,2.4,1.24c1.29,0.05,2.59,0.08,3.88,0.13c0.51,0.02,1.27-0.09,1.29,0.6
	c0.02,0.83-0.79,0.76-1.38,0.77c-1.22,0.01-2.44-0.03-3.65-0.05c-0.2-0.03-0.4-0.06-0.6-0.09C166.79,96.73,166.5,96.72,166.2,96.7z"
	/>
<path class="st7" d="M167.09,96.75c0.2,0.03,0.4,0.06,0.6,0.09C167.49,96.81,167.29,96.78,167.09,96.75z"/>
<path class="st0" d="M234.13,161.65c-0.7,0.7-1.34,0.79-1.87-0.19C232.91,161.28,233.56,161.14,234.13,161.65z"/>
<path class="st0" d="M229.52,161.32c-0.14,0.24-0.29,0.24-0.45,0.01C229.22,161.32,229.37,161.32,229.52,161.32z"/>
<path class="st3" d="M165.3,90.51c-0.62,1.38-1.57,2.62-1.72,4.19C162.9,92.8,163.44,91.38,165.3,90.51z"/>
</svg>
