<?xml version="1.0" encoding="UTF-8"?>
<svg id="Layer_1" data-name="Layer 1" xmlns="http://www.w3.org/2000/svg" viewBox="0 0 414 200">
  <defs>
    <style>
      .cls-1 {
        fill: #f7b7d3;
      }

      .cls-2 {
        fill: #00bff3;
      }

      .cls-3 {
        fill: #fff200;
      }

      .cls-4 {
        fill: #fff8b8;
      }

      .cls-5 {
        fill: #fbb040;
      }

      .cls-6 {
        fill: #fdfdfc;
      }

      .cls-7 {
        fill: #9ddcf9;
      }

      .cls-8 {
        fill: #b9ac99;
      }

      .cls-9 {
        fill: #d2cdc7;
      }

      .cls-10 {
        fill: #767475;
      }

      .cls-11 {
        fill: #504e49;
      }
    </style>
  </defs>
  <path class="cls-11" d="M59.93,126.35c-.02-.47-.21-1.08,.35-1.28,6.35-2.34,12.3-5.38,19.78-3.03,3.51,1.1,8.14-.23,11.94-2.11,4.51-2.23,8.95-2.98,14.19-1.58,3.13,.84,7.17-.24,10.4-1.9,4.76-2.45,9.58-3.48,14.71-1.4,.99,.4,1.67,.17,2.45-.28,1.53-.88,3.12-1.64,4.85-2.06,.96-.22,2.51,.18,2.53-1.18,.02-1.28-1.25-.69-2.05-.59-1.39-.05-2.78-.11-4.16-.16-.54-.35-1.1-.44-1.7-.19-1.23-.31-2.46-.63-3.69-.94-.15-.06-.31-.12-.46-.18-.08-.06-.15-.13-.23-.18-2.08-1.06-4.67-1.87-4.76-4.61-.1-3.11,2.49-4.58,4.79-6.11,1.41-.94,4.03-.83,4.22-2.46,.14-1.2-1.77-2.6-2.71-3.95-8.66-12.38-14.87-26.01-21.02-39.67-4.68-10.4-9-20.94-13.15-31.55-.43-1.09-1.85-2.88,1.21-2.18,5.51,15.04,11.96,29.69,18.74,44.21,4.3,9.2,9,18.19,14.58,26.72,4.22,6.45,4.28,6.45,11.41,5.15,1.89-.35,1.88-.86,.78-2.11-3.43-3.87-6.18-8.21-8.74-12.66-8.45-14.69-15.35-30.12-21.98-45.65-2.49-5.83-5.36-11.54-7.04-17.69,1.98-1.07,1.87,.85,2.22,1.66,4.51,10.35,8.78,20.81,13.44,31.1,6.13,13.55,12.44,27.04,21.11,39.29,.67,.95,1.41,1.86,2.19,2.72,3.35,3.71,7.64,3.39,10.19-.89,4.07-6.81,9.02-12.57,16.96-15.27,6.35-2.16,12.52-1.95,18.65,.67,.21,.11,.41,.21,.62,.32,.3,.14,.6,.28,.91,.43,.28,.15,.55,.29,.83,.44,0,0-.01,0-.01,0,.21,.18,.42,.36,.63,.54,0,0,0,.01,0,.01-.06,.64,.22,1.38-.61,1.76-8.85-5.97-21.16-4.83-29.19,2.65-3.61,3.36-6.19,7.42-8.6,11.61-2.6,4.53-5.08,9.17-11.18,10.16,2.07,2.59,4.96,2.87,7.37,4.04,1.01,4.23-3.62,2.69-5.18,4.65,1.28,.5,2.35,.89,3.39,1.32,3.36,1.41,7.13,1.28,8.68-1.58,1.24-2.29,2.4-1.61,3.93-1.59,.88,0,1.93,0,2.38-.82,.45-.81,.03-1.59-.78-2.2-.81-.61-.76-1.41-.28-2.31,.83-1.57,.26-2.32-1.56-2.33-1.4,0-2.42,.53-3.29,1.56-1.23,1.46-2.69,2.51-4.78,2.29,3.16-2.5,5.41-5.73,7.52-9.08,1.59-2.53,3.31-5,5.08-7.42,4.56-6.2,11.48-8.67,19.11-6.92,.95,.36,1.93,.67,2.86,1.09,1.76,.78,1.44,1.51-.12,2.15-8-4.01-16.99-1.4-21.05,6.09-1.88,3.47-1.95,7.2-1.72,10.99q.34,5.65,5.95,5.69c4.06,.03,4,.03,3.84-3.98-.17-4.62-.51-9.29,1.17-13.73,.81-2.15,2.24-4.3,4.96-3.46,1.95,.6,3.63,.39,5.45,0,.08,1.51-1.38,1.77-2.18,2.56-2.13-.27-4.2-.19-6.09,.96,1.71-.13,3.4-.29,5.1-.27-.1,.48-.28,1.05-.83,1.03-3.85-.15-6.17,1.41-6.39,5.38-.02,.37-.87,.6,.12,1.33,8.4-5.31,14.98-12.24,18.89-21.48,1.86-3.64,2.9-7.54,4.01-11.44,.48-1.7,.2-2.64-1.73-2.68-2.13-.04-2.05-.98-.99-2.31,1.82-2.27,3.66-4.53,5.47-6.8,.37-.46,.68-1.04,1.36-.91,.76,.14,.61,.86,.74,1.39,.72,2.8,1.37,5.62,2.21,8.39,.51,1.67,.12,2.28-1.58,1.7-2.2-.75-2.8,.11-3.22,2.19-.89,4.34-2.5,8.49-4.39,12.52-1.99,3.22-4.17,6.34-5.73,9.81-1.16,.1-1.48,1.17-2.14,1.84-3.61,3.69-7.2,7.38-12.02,9.6-2.12,2.04-.1,4.3-.31,6.46-.25,2.58,1.56,3.62,3.86,3.56,2.39-.06,2.49-1.85,2.51-3.74,.07-5.07,.13-5.07-4.8-4.84,.65-1.26,1.83-1.67,3.13-1.85,3.77-.53,7.54-1.14,11.33-1.52,5.52-.56,8.02-2.66,9.12-7.91,.16-.75,.07-1.7-.79-1.23-1.33,.74-2.77-.32-3.96,.57-.16-1.53,1-1.32,1.94-1.45,.98-.13,2.1,.3,3.23-.69-2.46-.6-4.46-.2-6.51,.51-.78,.27-2.21,.75-2.47-.51-.2-.97,1.09-1.1,1.96-1.26,1.6-.29,3.19-.64,4.84-.97-.37-1.49-1.57-1.97-2.3-2.83-.79-.93-1.16-1.71,.59-1.84,0,0,.11,.07,.11,.07,.16,.16,.33,.31,.49,.47,.25,.22,.5,.44,.75,.66,.15,.16,.3,.32,.44,.48,.23,.25,.45,.5,.68,.74-.01,.3,.13,.45,.45,.42,0,0,.18,.15,.18,.15,.15,.15,.29,.3,.44,.46,.42,.58,.96,.85,1.69,.63,.37,0,.53-.18,.48-.53,.88-1.83,1.82-3.63,3.08-5.25,5.87-7.56,15.4-7.91,21.8-.78,2.83,3.15,2.81,3.14,5.26-.5,2.65-3.93,6.01-6.96,11.03-7.42,4.2-.38,7.43,1.38,9.66,4.88,1.92,3.01,4.83,2.9,6.57-.31,2.62-4.85,6.29-8.14,12.25-8.01,3.84,.08,7.04,1.67,9.57,4.47,2.34,2.59,2.54,2.6,4.46-.41,4.54-7.14,9.92-8.99,17.3-6.92,2.11,.59,3.72,1.95,4.74,3.68,1.17,1.98,2.69,1.72,4.5,1.52,1.94-.22,3.09-.89,3.83-2.86,2.79-7.42,10.76-10.59,17.45-7.14,1.79,.92,3.38,2.17,4.24,3.9,1.06,2.14,2.61,2.16,4.59,1.84,3.29-.53,6.6-.92,9.9-1.37,.19,.16,.38,.31,.58,.47,0,.18,0,.37,0,.55-.36,.14-.71,.39-1.08,.42-7.09,.54-13.98,2.38-21.04,3.08-1.86,.18-2.8,.57-.95,2.2-1.47,.02-2.38,.57-2.39,2.18,0,1.24-.17,2.48-.23,3.72-.09,1.84,.48,2.39,2.6,2.08,7.62-1.15,15.29-1.99,22.95-2.95,.74,1.75-.65,1.68-1.67,1.83-3.3,.5-6.6,1.01-9.92,1.41-1.52,.18-2.24,.72-2.27,2.34-.04,3.01-.54,6.02-1.74,8.76-2.01,4.6-2.46,9.25-2.38,14.26,.13,8.17-2.13,15.84-7.82,22.19-.6,.67-.87,1.43-1,2.34-1.18,7.89-4.73,14.63-10.45,20.28-.28,.27-.52,.63-.85,.79-5.45,2.59-9.12,7.13-13.28,11.23-5.41,5.34-12.4,8.04-19.99,9.12-1.04,.15-2.03,.2-2.98,.99-8.92,7.4-19.13,8.84-30.14,5.89-1.84-.49-3.6-.74-5.49-.73-9.43,.04-17.86-2.46-24.39-9.57-.75-.81-1.69-1.21-2.76-1.54-8.19-2.52-14.8-7.08-19.03-14.59-.69-1.22-1.7-2.13-2.72-3.03-4.28-3.78-8-8-10.53-13.11-.66-1.32-1.52-1.92-2.98-1.67-.1,.02-.2,.02-.29,0-4.57-1.27-8.67-.08-12.98,1.62-5.37,2.11-11.13,2.32-16.84,.81-.92-.25-1.8-.64-2.81,0-6.6,4.11-13.94,4.37-21.38,3.62-2.15-.22-3.91,.13-5.88,1.04-8.18,3.79-16.8,3.48-25.45,2.01-1.01-.17-1.87-.41-2.78,.23-5.81,4.1-12.32,4.95-19.13,3.49-2.89-.62-5.13,.08-7.35,1.72-.76,.56-1.78,.78-2.68,1.16-.41-.15-.56,.07-.63,.41-.37,.1-.74,.2-1.1,.3-.36-.12-1-.19-1.03-.36-.14-.89,.55-1.25,1.27-1.52,1.79-.66,3.66-1.19,5.22-3.07-2.96-.91-5.31-2.53-7.69-4.09-.61-.67-1.1-1.38-.59-2.36,10.07,6.69,20.58,9.23,32.55,3.31-3.11-1.75-5.97-3.03-8.23-5.17-.79-.75-1.6-.28-2.43,.1-7.18,3.26-14.27,2.51-21.32-.46-1.38-.58-.76-1.25-.22-1.98,3.14-2.13,6.28-4.26,9.68-6.57-3.55-1.62-6.92-1.04-10.17-1.38Zm220.38-48.02c.81-2.32,3.53,.01,4.84-2.15-3.4-.26-6.21,.79-9.17,1.92,.9,.43,1.95-.1,2.55,.73-6.41-.2-8.47,3.94-9.58,9.44,3.08-.49,6.05-.93,8.99-1.46,1.12-.2,2.59,.23,3.26-.91,1.38-2.34,2.61-4.78,3.2-7.57h-4.09Zm-31.27,4.64c-1.14,.5-2.36,.48-3.57,.5-.16-.42,.35-1.23-.5-1.19-.6,.03-.69,.72-.66,1.28-2.39,2.36-2.54,5.69-4.47,8.97,4.92-.76,9.16-1.37,13.38-2.07,2.75-.45,5.58-5.84,4.66-8.72-.41-1.26,1.86-.73,1.4-2.1-.37-.04-.75-.12-1.13-.12-3.06,0-5.64,2.11-8.94,1.67-2.08-.28-.28,1.13-.18,1.78Zm-104.06,13.3c-3.19,.48-6.45,.57-9.53,1.66-3.08,.75-5.97,1.91-8.31,4.07-2,1.85-1.9,3.18,.39,4.62,3.7,2.34,7.88,2.73,12.15,2.6,1.93-.06,2.17-.74,1.15-2.3-2.47-3.76-2.03-4.59,2.43-4.98,3.6-.32,6.73-2.96,7.84-6.78-2.11,.38-4.12,.74-6.12,1.1Zm50.62,4.49c0,2.49-.01,4.69,0,6.89,0,.59,.13,1.28,.69,1.52,4.37,1.89,5.54,7.08,10,9.08,2.3,1.03,3.18,3.81,3.76,6.33,.24,1.03,.41,2.1,.83,3.07,2.86,6.51,10.07,9.13,13.91,14.78,.09,.13,.35,.16,.54,.22,5,1.44,8.65,5.51,13.82,6.71,1.9,.44,3.35,2.02,4.44,3.66,.64,.96,1.43,1.38,2.57,1.67,6.45,1.59,12.45-2.33,18.84-1.42,.51,.07,1.15-.66,1.71-1.04,2.8-1.86,5.77-3.39,9.23-3.46,1.63-.04,2.73-.65,3.83-1.74,2.19-2.18,4.84-3.67,7.95-4.15,1.39-.21,2.26-.9,3.15-1.87,3.12-3.37,7.43-5.54,9.93-9.58,.51-.82,1.74-1.21,2.64-1.78,.75-.48,1.43-.94,1.6-1.94,.77-4.56,4-8.29,4.45-13.01,.16-1.69,1.48-3.1,2.76-4.36,2.46-2.42,2.17-6.19-.55-8.4-4.72-3.83-9.55-7.71-11.46-13.66-.82-2.56-2.02-2.47-4.02-2.19-1.65,.23-2.19,1.36-2.89,2.54-4.82,8.15-14.84,9.67-21.53,3.3-2.88-2.74-3.21-2.7-5.39,.65-4.74,7.28-13.33,8.24-19.57,2.18-2.03-1.97-6.81-1.2-8.25,1.32-4.96,8.69-14.57,10.2-22.04,3.48-2.63-2.37-4.85-2.08-6.85,.9-2.6,3.86-6.01,4.76-10.17,2.61-1.29-.66-2.51-1.45-3.95-2.3Zm131.91-23.49c.05-2.5-.26-5.04,.9-7.41,.71-1.46,1.6-2.83,3.5-2.56,1.73,.24,3.31-.45,4.97-.46,2.36-.01,2.23-.93,.98-2.35-2.37-2.7-5.23-4.54-8.99-3.92-4.72,.78-8.26,3.3-9.48,8.01-2.8,10.84,.57,20.74,5.17,30.4,.61,1.29,1.23,.49,1.65-.15,1.36-2.08,1.91-4.38,2.1-6.84,.38-4.95-.9-9.8-.79-14.72Zm-54.92,12.26c4.25,6.46,14.14,5.66,18.35-.57,2.68-3.96,3.98-8.56,5.96-12.85,1.22-2.65,2.54-4.7,6.03-4.28,1.31,.15,2.7-.44,4.06-.6,1.92-.23,1.75-1.03,.78-2.23-2.13-2.62-6.51-4.05-9.85-3.15-4.84,1.31-7.81,4.64-9.81,8.93-1.8,3.85-3.44,7.77-5.18,11.64-.52,1.17-1.11,2.14-2.73,2.22-2.44,.13-4.85,.55-7.6,.88Zm-26.32-10.06c2.47,.33,4.33-.53,6.29-.63,1.51-.08,1.17-.83,.68-1.74-1.95-3.6-6.92-5.11-11.02-3.32-4.34,1.88-6.8,5.41-8.59,9.48-1.67,3.8-3.22,7.64-4.9,11.44-.46,1.04-1.18,2.51-2.47,2.05-2.36-.83-4.43,.48-6.66,.38-.55-.03-1.53-.09-1.66,.82-.1,.69,.66,.87,1.09,1.22,6.16,5.02,14.79,3.05,18.18-4.3,1.9-4.12,3.5-8.38,5.15-12.6,.8-2.05,1.92-3.38,3.93-2.8Zm28.2,83.29c5.55,2.19,10.33,1.45,14.58-1.76,7.28-5.49,10.53-13.48,13.37-21.66,.59-1.69-.75-1.41-1.67-1.4-4.2,.03-7.15,2.12-9.44,5.44-4.79,6.95-9.88,13.66-16.84,19.39Zm-19.32-65.83c6.08-.04,8.93-3.31,10.97-7.55,1.76-3.66,3.33-7.4,5.04-11.08,.88-1.89,2.14-3.06,4.58-2.82,1.62,.16,3.31-.37,4.97-.57,1.87-.23,1.53-.97,.56-2-4.43-4.7-12.3-4.29-16.35,.74-2.76,3.43-4.19,7.48-5.43,11.48-1.55,5-3.93,8.21-9.73,7.69-.44-.04-1.05-.11-1.24,.49-.18,.56,.29,.89,.65,1.18,1.97,1.56,4.19,2.5,6,2.44Zm-34.19-13.5c2.17-.32,4.21-.62,6.24-.92,1.27-.19,1.47-.7,.63-1.69-2.35-2.78-5.23-4.67-8.98-4.91-5.1-.33-9.64,2.83-12.36,8.22-2.59,5.14-3.54,11.02-7.44,15.56-.84,.98,.31,1.32,.89,1.68,3.49,2.17,6.97,1.04,8.87-2.95,1.75-3.65,2.97-7.53,5.06-11.03,1.62-2.72,3.09-5.68,7.09-3.96Zm8.73,70.74c4.39,.25,4.76-.27,3.44-3.57-1.83-4.57-6.06-5.93-10.27-6.65-5.91-1.02-11.65-2.53-17.3-4.44-.78-.26-1.51-1.34-2.36-.61-.81,.71-.42,1.84-.17,2.75,1.1,4.13,4.14,6.68,7.8,8.52,6.17,3.11,12.99,3.43,18.87,4.01Zm-166.85-19.35c4.33,2.51,9.03,3.31,13.23,2.17,6.38-1.74,12.34-4.85,17.27-9.45,1.16-1.08,3.72-2,3.17-3.24-.66-1.48-3.22-1.37-5.08-1.43-.1,0-.19,.04-.29,.04-11.2-.32-19.61,5.67-28.29,11.91Zm53.64-6.76c2.77,1.73,5.7,2.08,8.61,1.66,9.46-1.37,17.43-5.7,24.25-12.2,.75-.72,.8-1.15-.26-1.69-4.09-2.08-8.24-2.44-12.46-.51-7.24,3.32-13.6,7.96-20.13,12.74Zm52.78-7.2c4.79,2.45,9.11,1.95,13.32,1.04,5.91-1.28,11.77-2.12,17.74-.6,1.9,.49,1.7-.59,1.47-1.74-1.52-7.56-7.61-10.96-15.22-8.72-6.48,1.91-11.15,6.6-17.31,10.01Zm87.54,47.82c3.47-.19,6.62-1.13,9.6-2.72,5.7-3.03,10.31-7.32,14.53-12.05,.52-.59,1.67-1.07,1.06-2.11-.45-.78-1.43-.93-2.31-1.08-5.14-.87-9.51,.73-13.25,4.09-4.57,4.12-9.35,7.93-15.14,10.31-.53,.22-1.35,.27-1.24,.96,.08,.46,.67,.95,1.15,1.2,1.76,.92,3.67,1.31,5.58,1.39Zm21.63,2.37c-2.58-.75-4.88-.96-6.61-2.03-2.81-1.75-5.06-1.17-7.89,0-4.54,1.87-9.66,2.81-13.77-.49-2.81-2.25-5.41-1.4-8.21-1.4-1.55,0-1.3,.75-.7,1.63,1.79,2.6,3.98,4.78,6.86,6.2,6.21,3.08,12.72,2.96,19.25,1.38,3.88-.93,7.74-2.09,11.05-5.29Zm38.79-41.97c9.52-10.28,10.12-23.52,1.41-37.77-5.55,12.45-1.69,24.83-1.41,37.77Zm-122.58-6.59c-.98,0-1.97,0-2.95,0-1.1,0-1.52,.53-.88,1.44,1.83,2.61,3.39,5.53,5.69,7.69,4.22,3.96,9.4,6.49,15.12,7.82,1.29,.3,2.87,1.6,3.81,.49,.89-1.04-.62-2.42-1.16-3.56-3.86-8.23-9.39-14.29-19.64-13.87Zm47.97,42.9c1.95-.09,5.04-.73,7.92-2.01,2.25-.99,6.39-1.94,5.9-3.72-.65-2.36-4.45-2.93-7.38-3.06-7.65-.32-15.29-.64-22.94-.96-1.77-.08-1.49,.6-.76,1.68,3.83,5.61,9.28,8.08,17.26,8.07Zm-97.21-41.75c9.44,3.52,24.09-3.4,32.29-10.98-9.11-4.05-22.72,.57-32.29,10.98Zm27.44,7.86c-3.68-2.06-6.86-3.96-9.68-6.36-.64-.55-1.26-.82-2.13-.54-5.81,1.81-11.65,2.51-17.62,.6-1.19-.38-2.48,.45-3.04,1.36-.66,1.08,.76,1.61,1.44,2.13,5.72,4.33,12,7.11,19.45,6.24,3.88-.45,7.7-1.14,11.58-3.42Zm-49.53-10.79c-6.01-2.13-11.49-2.05-16.94,.36-5.36,2.36-9.7,6.15-14.24,9.65-1.77,1.37-.44,2.01,.65,2.31,2.86,.79,5.75,.57,8.57-.32,4.87-1.55,9.37-3.92,13.86-6.28,2.84-1.49,5.38-3.38,8.12-5.72Zm177.29,28.13c7.21-2.44,11.91-6.28,13.71-12.76,1.49-5.37,1.19-10.88,.37-16.37-.23-1.52-.75-1.41-1.9-.84-3.06,1.52-4.81,4.11-5.46,7.19-1.58,7.52-2.91,15.08-6.72,22.78Zm-179.14-10.21c-3.58-1.69-7.03-3.37-9.88-5.88-1.54-1.36-2.7-1.17-4.4-.46-5.62,2.36-11.25,4.91-17.38,1.17-1.45-.88-2.79,.49-3.56,1.35-.94,1.05,.69,1.52,1.35,2.02,3.79,2.85,8.23,4,12.87,4.56,7.21,.88,14.24,.42,20.99-2.76Zm26.32-4.17c-3.49-1.76-6.51-3.55-8.94-6.11-.66-.7-1.23-.66-2.07-.29-7.16,3.16-14.39,5.33-22.02,1.34-1.01-.53-2.11,.08-2.6,.84-.57,.9,.63,1.23,1.19,1.65,8.61,6.5,18.34,7.22,28.55,5.15,1.98-.4,3.98-.96,5.89-2.58Zm96.94,40.52c-2.81-2.23-4.61-4.47-6.01-7.01-.42-.76-1.12-.93-1.93-1.1-6.22-1.32-10.97-4.69-13.92-10.23-1.25-2.35-3.63-2.24-5.33-2-1.15,.16-.09,2.33,.19,3.59,.15,.66,.39,1.29,.56,1.94,2.33,8.84,14.81,15.77,26.45,14.82Zm80.9-44.41c-2.56,1.63-5.05,3.12-7.97,3.71-1.13,.23-1.31,1.12-1.52,1.92-1.82,7.1-6.71,11.28-13.41,13.82-1.16,.44-2.54,.52-3.42,1.56-.61,.72-.87,1.4,.48,1.52,4.55,.41,9.14,.51,13.08-2.15,7.25-4.89,10.85-12.11,12.77-20.38Zm-107.99,33.31c-.49-1.42-1.09-2.47-1.19-3.57-.43-4.69-2.76-7.35-7.36-9.26-4.68-1.95-8.32-5.8-8.02-11.44,.13-2.48-1.1-3.07-2.9-3.82-2.81,14.6,7.71,24.75,19.47,28.09Zm117.1-63.07c-1.88,2.05-3.28,4.08-5.16,5.5-2.09,1.57-2.8,3.39-2.97,5.83-.29,4.06-1.4,7.96-3.06,11.71-1.43,3.24-3.83,5.72-6.81,8.19,9.74-.75,19.7-15.06,18.01-31.22Zm-28.5,54.46c-5.47-1.09-9.61-.28-13.32,4.49-4.37,5.62-11,7.38-18.08,5.08-2.15-.7-3.29-.17-4.55,1.22,9.97,6.71,30.51,.55,35.95-10.79Zm20.63-49.08c7.16-5.87,10.48-13.42,11.85-21.88,.66-4.05,.41-4.09-3.77-3.64-.59,.06-1.18,.06-1.77,.1-3.67,.24-3.6,.23-3.32,3.92,.19,2.5,.22,5.01,.19,7.51-.03,2.76-.68,5.51-2.51,7.57-1.78,2.01-1.83,3.86-.67,6.41Zm-10.29-26.24c0-1.63-.04-3.26,.01-4.89,.05-1.53-.7-1.69-2.04-1.48-3.28,.52-6.63,.69-9.85,1.4-2.02,.45-4.64-.22-5.98,1.73-1.29,1.88-2.04,4.14-2.93,6.27-.42,.99-.23,1.74,1.19,1.43,6.03-1.35,12.18-1.87,18.29-2.66,1.1-.14,1.94-.46,1.33-1.8Zm-120.56,66.14c0-4.44,.03-8.06-.03-11.67,0-.53-.28-1.16-.64-1.56-2.5-2.85-4.85-5.8-6.66-9.13-.7-1.28-1.83-.81-2.86-.57-.96,.23-1.47,.74-1.42,1.84,.44,8.53,4.98,14.84,11.61,21.09Zm112.56-61.83c-1.44,.29-2.89,.84-4.33,.81-2.85-.06-3.15,1.09-2.15,3.33,2.25,5.03,6.29,8.53,10.48,11.91,1.26,1.02,1.36-.02,1.58-.93,.95-3.84,2.45-7.7-1.9-10.72-.94-.66-1.41-2.05-1.93-3.18-.38-.8-.82-1.28-1.75-1.22Zm-77.81,1.46c-5.08,.69-9.69,1.3-14.3,1.94-.88,.12-1.33,.81-1.67,1.51-.88,1.83-1.67,3.7-2.57,5.52-.76,1.54-.29,1.86,1.31,1.58,3.97-.69,7.94-1.33,11.93-1.86,1.14-.15,1.79-.62,2.21-1.59,.94-2.2,1.9-4.39,3.08-7.11Zm-49.15,46c1.74,.37,2.16-.47,1.43-2.55-.41-1.15-.28-2.48-.41-3.72-.1-1-.57-1.58-1.72-1.47-4.54,.43-8.98,.53-13.16-1.9-1-.58-2.39,.49-3.35,1.34-.42,.38,.03,.69,.31,.89,4.89,3.61,9.9,7,16.89,7.42Zm3.05-26.23c.03,3.69,.03,3.68,3.56,3.09,.87-.15,1.78-.36,2.63-.23,2.7,.4,3.37-.76,3.17-3.22-.34-4.23-.36-4.32-4.79-3.48-.26,.05-.55-.08-.82-.07q-3.77,.1-3.74,3.93Zm133.82-17.14c-.32-1.29-.68-2.5-.89-3.73-.21-1.23-.84-1.69-2.03-1.36-1.2,.33-2.92-.12-3.49,1.09-.57,1.2,.71,2.28,1.39,3.3,.48,.72,1.09,1.36,1.69,1.99,.51,.53,1.01,1.53,1.85,.97,.73-.49,1.54-1.22,1.48-2.26Zm-200.42,29.2c4.12,.71,7.42,3.35,10.7-.06,.31-.32,.96-.39,.81-1.01-.13-.57-.69-.64-1.15-.7-3.33-.46-6.54-.15-10.37,1.77Zm-51.57,7.04c3.89,1.82,7.54,1.99,10.97-1.33-4.09-1.52-7.53-.03-10.97,1.33Zm37.65-4.83c-3.5-1.3-6.91-.82-10.11,1.34,3.61,2.27,6.97,2.14,10.11-1.34Zm138.34,34.87c-1.49-2.92-3.9-3.81-6.19-4.82-.67-.29-1.31-.34-1.32,.8-.04,3.03,.91,4.02,4.08,4.02,.97,0,1.95,0,3.44,0Zm45.7-9.87c-2.65-.24-4.21,1.13-5.84,2.22-.67,.45-1.74,.86-1.45,1.92,.22,.84,1.31,.68,1.95,1.11,1.05,.72,1.59-.17,2.1-.86,1.03-1.36,2.02-2.74,3.24-4.4Zm-145.42-38.6c0,1.69,1.87,3.46-.76,4.35-.53,.18-1.33,.32-.99,1.06,.4,.88,1.14,.38,1.71,.08,1.98-1.06,4.15-1.65,6.61-2.4-2.61-.5-4.34-1.92-6.57-3.08Zm167.96,11.59q4.26-1.47,2.88-6.04c-2.19,1.8-2.87,3.21-2.88,6.04Zm-47.93,37.49c-3.59-.66-5.22-.31-6.96,1.35,3.56,2.46,3.81,2.42,6.96-1.35Zm41.28-24.03c-2.18,1.11-3.82,2.53-4.72,4.83,4.57,.1,4.83-.16,4.72-4.83Zm-95.95-6.71c-.49-2.9-1.88-4.75-4.33-6.01-.5,3.29,1.04,5.02,4.33,6.01Zm13.8,17.2c-1.54-2.1-2.84-3.76-5.08-4.61,.34,3.92,.96,4.51,5.08,4.61Zm94.4-70.38c-1.92,.33-3.85,.66-5.77,1,2.11,.7,4.15,.97,5.77-1Zm-153.21,26.22c-1.34,1.33-2.25,2.27-2.2,3.67,.02,.46,.84,.56,1.24,.34,1.52-.84,.93-2.19,.97-4Z"/>
  <path class="cls-5" d="M105.15,16.73c1.68,6.15,4.55,11.86,7.04,17.69,6.64,15.53,13.53,30.96,21.98,45.65,2.56,4.45,5.31,8.79,8.74,12.66,1.1,1.25,1.12,1.77-.78,2.11-7.13,1.3-7.19,1.3-11.41-5.15-5.58-8.53-10.28-17.52-14.58-26.72-6.79-14.52-13.23-29.17-18.74-44.21,2.44-1.19,5.01-1.92,7.74-2.04Z"/>
  <path class="cls-4" d="M354.61,76.29c-7.65,.96-15.32,1.8-22.95,2.95-2.12,.32-2.7-.23-2.6-2.08,.06-1.24,.23-2.48,.23-3.72,.01-1.61,.92-2.17,2.39-2.18,7.73-.94,15.46-1.9,23.12-3.37,.1,2.8,.78,5.62-.19,8.4Z"/>
  <path class="cls-10" d="M354.8,67.88c-7.65,1.46-15.38,2.43-23.12,3.37-1.85-1.63-.91-2.02,.95-2.2,7.06-.7,13.95-2.54,21.04-3.08,.37-.03,.72-.27,1.08-.42,.02,.78,.03,1.56,.05,2.33Z"/>
  <path class="cls-7" d="M59.93,126.35c3.25,.34,6.63-.24,10.17,1.38-3.4,2.31-6.54,4.44-9.68,6.57,.15-2.67-.86-5.27-.49-7.95Z"/>
  <path class="cls-7" d="M60.68,140.85c2.39,1.56,4.74,3.18,7.69,4.09-1.56,1.88-3.43,2.41-5.22,3.07-.72,.27-1.41,.63-1.27,1.52,.03,.17,.67,.24,1.03,.36-.58,1.08-1.59,1.62-2.67,1.15-1.28-.56-.75-1.7-.56-2.78,.44-2.45,.68-4.94,1-7.41Z"/>
  <path class="cls-5" d="M198.23,81.65c-1.75,.14-1.38,.91-.59,1.84,.73,.86,1.93,1.34,2.3,2.83-1.65,.33-3.24,.68-4.84,.97-.88,.16-2.16,.29-1.96,1.26,.26,1.26,1.69,.78,2.47,.51,2.05-.71,4.05-1.11,6.51-.51-1.12,.99-2.25,.55-3.23,.69-.95,.13-2.1-.08-1.94,1.45-.3,.48-.75,.42-1.21,.32-1.01-2.27-2.98-.5-4.41-1.01-.16-.02-.26-.1-.31-.25,1.55-3.47,3.74-6.59,5.73-9.81,.49,.57,.99,1.15,1.48,1.72Z"/>
  <path class="cls-9" d="M133.21,110.59c.6-.25,1.17-.17,1.7,.19-.59,.14-1.17,.17-1.7-.19Z"/>
  <path class="cls-8" d="M201.77,85.11c-.15-.15-.29-.3-.44-.46,.15,.15,.29,.3,.44,.46Z"/>
  <path class="cls-8" d="M203.94,85.21c.04,.36-.11,.54-.48,.53,.16-.18,.32-.36,.48-.53Z"/>
  <path class="cls-9" d="M190.52,76.32c-.21-.11-.41-.21-.62-.32,.21,.11,.41,.21,.62,.32Z"/>
  <path class="cls-8" d="M201.15,84.51c-.32,.03-.46-.12-.45-.42,.15,.14,.3,.28,.45,.42Z"/>
  <path class="cls-8" d="M200.03,83.34c-.15-.16-.3-.32-.44-.48,.15,.16,.3,.32,.44,.48Z"/>
  <path class="cls-8" d="M198.84,82.2c-.16-.16-.33-.31-.49-.47,.17,.16,.33,.31,.49,.47Z"/>
  <path class="cls-9" d="M64.01,149.59c.07-.34,.22-.57,.63-.41-.21,.14-.42,.28-.63,.41Z"/>
  <path class="cls-10" d="M354.75,65c-.19-.16-.38-.31-.58-.47,.4-.09,.62,.04,.58,.47Z"/>
  <path class="cls-9" d="M129.06,109.47c.15,.06,.31,.12,.46,.18,0,0-.27,0-.27,0l-.19-.19Z"/>
  <path class="cls-9" d="M192.25,77.19c-.28-.15-.55-.29-.83-.44,.4-.07,.66,.09,.83,.44Z"/>
  <path class="cls-9" d="M192.87,77.71c-.21-.18-.42-.36-.63-.54,.37,0,.58,.18,.63,.54Z"/>
  <path class="cls-6" d="M195.6,100.75c1.45,.85,2.66,1.64,3.95,2.3,4.15,2.14,7.56,1.25,10.17-2.61,2.01-2.98,4.22-3.27,6.85-.9,7.47,6.72,17.08,5.21,22.04-3.48,1.44-2.52,6.22-3.29,8.25-1.32,6.24,6.06,14.83,5.1,19.57-2.18,2.18-3.35,2.5-3.39,5.39-.65,6.7,6.37,16.72,4.85,21.53-3.3,.7-1.18,1.23-2.31,2.89-2.54,2.01-.28,3.2-.37,4.02,2.19,1.91,5.94,6.74,9.82,11.46,13.66,2.72,2.21,3,5.98,.55,8.4-1.28,1.26-2.6,2.67-2.76,4.36-.45,4.72-3.68,8.45-4.45,13.01-.17,1-.85,1.46-1.6,1.94-.9,.58-2.13,.97-2.64,1.78-2.51,4.03-6.81,6.21-9.93,9.58-.89,.97-1.76,1.66-3.15,1.87-3.11,.47-5.76,1.97-7.95,4.15-1.1,1.1-2.2,1.71-3.83,1.74-3.46,.08-6.43,1.6-9.23,3.46-.57,.38-1.2,1.11-1.71,1.04-6.39-.91-12.39,3.02-18.84,1.42-1.14-.28-1.93-.7-2.57-1.67-1.1-1.65-2.54-3.22-4.44-3.66-5.17-1.2-8.82-5.27-13.82-6.71-.19-.05-.45-.09-.54-.22-3.84-5.65-11.05-8.27-13.91-14.78-.42-.96-.59-2.03-.83-3.07-.58-2.52-1.46-5.3-3.76-6.33-4.46-1.99-5.63-7.18-10-9.08-.56-.24-.69-.93-.69-1.52-.02-2.2,0-4.4,0-6.89Z"/>
  <path class="cls-5" d="M192.26,79.49c-.19,.21-.51,.39-.55,.63-.81,3.97-3.8,3.69-6.8,3.4-7.63-1.75-14.55,.72-19.11,6.92-1.78,2.41-3.49,4.88-5.08,7.42-2.11,3.36-4.35,6.58-7.52,9.08-.54,1.07-1.57,.95-2.53,1.01-2.41-1.16-5.3-1.45-7.37-4.04,6.1-.99,8.58-5.63,11.18-10.16,2.41-4.19,4.99-8.26,8.6-11.61,8.03-7.47,20.34-8.62,29.19-2.65Z"/>
  <path class="cls-5" d="M327.52,77.26c-.11,4.92,1.18,9.77,.79,14.72-.19,2.46-.75,4.76-2.1,6.84-.42,.65-1.04,1.44-1.65,.15-4.6-9.66-7.97-19.57-5.17-30.4,1.22-4.71,4.76-7.23,9.48-8.01,3.76-.62,6.62,1.21,8.99,3.92,1.25,1.42,1.38,2.34-.98,2.35-1.66,0-3.24,.7-4.97,.46-1.9-.27-2.79,1.11-3.5,2.56-1.15,2.37-.84,4.91-.9,7.41Z"/>
  <path class="cls-5" d="M272.59,89.52c2.74-.33,5.16-.76,7.6-.88,1.62-.09,2.21-1.06,2.73-2.22,1.74-3.88,3.39-7.79,5.18-11.64,2-4.28,4.97-7.61,9.81-8.93,3.34-.91,7.72,.52,9.85,3.15,.97,1.2,1.14,2-.78,2.23-1.36,.16-2.75,.76-4.06,.6-3.5-.41-4.81,1.64-6.03,4.28-1.98,4.28-3.27,8.88-5.96,12.85-4.21,6.22-14.1,7.03-18.35,.57Z"/>
  <path class="cls-5" d="M246.27,79.47c-2.02-.59-3.13,.74-3.93,2.8-1.65,4.23-3.25,8.48-5.15,12.6-3.39,7.35-12.02,9.32-18.18,4.3-.43-.35-1.19-.54-1.09-1.22,.14-.91,1.12-.84,1.66-.82,2.23,.1,4.3-1.21,6.66-.38,1.29,.46,2.01-1.01,2.47-2.05,1.68-3.79,3.23-7.64,4.9-11.44,1.79-4.08,4.25-7.6,8.59-9.48,4.11-1.78,9.07-.27,11.02,3.32,.49,.9,.83,1.66-.68,1.74-1.96,.1-3.83,.96-6.29,.63Z"/>
  <path class="cls-2" d="M274.46,162.75c6.96-5.72,12.05-12.44,16.84-19.39,2.29-3.32,5.23-5.4,9.44-5.44,.92,0,2.25-.29,1.67,1.4-2.84,8.18-6.08,16.17-13.37,21.66-4.25,3.21-9.04,3.95-14.58,1.76Z"/>
  <path class="cls-5" d="M255.14,96.92c-1.81,.06-4.03-.87-6-2.44-.36-.28-.83-.61-.65-1.18,.2-.6,.8-.53,1.24-.49,5.8,.52,8.18-2.7,9.73-7.69,1.24-4,2.67-8.06,5.43-11.48,4.05-5.03,11.92-5.44,16.35-.74,.97,1.03,1.32,1.77-.56,2-1.66,.2-3.35,.73-4.97,.57-2.44-.24-3.7,.93-4.58,2.82-1.71,3.68-3.28,7.42-5.04,11.08-2.03,4.23-4.88,7.51-10.97,7.55Z"/>
  <path class="cls-5" d="M220.95,83.42c-4-1.71-5.47,1.24-7.09,3.96-2.08,3.5-3.31,7.38-5.06,11.03-1.9,3.98-5.39,5.12-8.87,2.95-.58-.36-1.73-.7-.89-1.68,3.9-4.54,4.85-10.43,7.44-15.56,2.72-5.39,7.26-8.55,12.36-8.22,3.75,.24,6.63,2.12,8.98,4.91,.84,1,.65,1.51-.63,1.69-2.03,.3-4.07,.6-6.24,.92Z"/>
  <path class="cls-2" d="M229.68,154.17c-5.88-.57-12.69-.9-18.87-4.01-3.66-1.84-6.69-4.39-7.8-8.52-.24-.9-.64-2.04,.17-2.75,.84-.73,1.57,.35,2.36,.61,5.65,1.9,11.39,3.42,17.3,4.44,4.21,.73,8.44,2.08,10.27,6.65,1.32,3.3,.95,3.82-3.44,3.57Z"/>
  <path class="cls-7" d="M62.83,134.82c8.68-6.25,17.09-12.23,28.29-11.91,.1,0,.19-.04,.29-.04,1.87,.07,4.42-.05,5.08,1.43,.56,1.24-2.01,2.16-3.17,3.24-4.93,4.6-10.89,7.71-17.27,9.45-4.2,1.15-8.9,.34-13.23-2.17Z"/>
  <path class="cls-7" d="M116.47,128.06c6.53-4.77,12.9-9.42,20.13-12.74,4.22-1.94,8.37-1.57,12.46,.51,1.06,.54,1.01,.97,.26,1.69-6.81,6.5-14.79,10.83-24.25,12.2-2.91,.42-5.84,.07-8.61-1.66Z"/>
  <path class="cls-7" d="M169.25,120.86c6.16-3.42,10.83-8.1,17.31-10.01,7.61-2.25,13.7,1.15,15.22,8.72,.23,1.15,.43,2.23-1.47,1.74-5.97-1.52-11.83-.68-17.74,.6-4.21,.91-8.53,1.41-13.32-1.04Z"/>
  <path class="cls-2" d="M256.8,168.69c-1.91-.07-3.83-.47-5.58-1.39-.48-.25-1.08-.74-1.15-1.2-.12-.69,.71-.74,1.24-.96,5.79-2.39,10.56-6.19,15.14-10.31,3.74-3.37,8.11-4.97,13.25-4.09,.89,.15,1.86,.31,2.31,1.08,.6,1.03-.54,1.52-1.06,2.11-4.22,4.73-8.83,9.02-14.53,12.05-2.98,1.59-6.13,2.53-9.6,2.72Z"/>
  <path class="cls-3" d="M187.65,86.76c-.13,.82-.57,1.38-1.4,1.61-1.81,.38-3.49,.59-5.45,0-2.72-.84-4.15,1.31-4.96,3.46-1.67,4.44-1.34,9.12-1.17,13.73,.15,4.01,.21,4.01-3.84,3.98q-5.61-.04-5.95-5.69c-.23-3.78-.16-7.51,1.72-10.99,4.06-7.49,13.05-10.1,21.05-6.09Z"/>
  <path class="cls-2" d="M278.43,171.06c-3.31,3.2-7.18,4.35-11.05,5.29-6.53,1.57-13.03,1.7-19.25-1.38-2.88-1.43-5.07-3.61-6.86-6.2-.61-.88-.85-1.63,.7-1.63,2.8,0,5.4-.85,8.21,1.4,4.11,3.3,9.23,2.35,13.77,.49,2.82-1.16,5.08-1.74,7.89,0,1.73,1.08,4.03,1.28,6.61,2.03Z"/>
  <path class="cls-2" d="M317.22,129.09c-.28-12.94-4.14-25.32,1.41-37.77,8.71,14.25,8.11,27.49-1.41,37.77Z"/>
  <path class="cls-1" d="M194.64,122.5c10.25-.42,15.78,5.64,19.64,13.87,.53,1.14,2.04,2.52,1.16,3.56-.95,1.11-2.53-.19-3.81-.49-5.72-1.34-10.9-3.87-15.12-7.82-2.3-2.15-3.86-5.07-5.69-7.69-.64-.91-.22-1.43,.88-1.44,.98,0,1.97,0,2.95,0Z"/>
  <path class="cls-2" d="M242.62,165.41c-7.97,.01-13.43-2.45-17.26-8.07-.73-1.08-1.01-1.76,.76-1.68,7.65,.33,15.29,.64,22.94,.96,2.93,.12,6.73,.7,7.38,3.06,.49,1.78-3.66,2.73-5.9,3.72-2.88,1.27-5.96,1.92-7.92,2.01Z"/>
  <path class="cls-7" d="M145.4,123.66c9.58-10.4,23.18-15.03,32.29-10.98-8.2,7.57-22.86,14.5-32.29,10.98Z"/>
  <path class="cls-7" d="M172.84,131.52c-3.87,2.28-7.7,2.97-11.58,3.42-7.45,.87-13.73-1.91-19.45-6.24-.68-.52-2.1-1.05-1.44-2.13,.56-.91,1.84-1.74,3.04-1.36,5.97,1.9,11.81,1.21,17.62-.6,.87-.27,1.49,0,2.13,.54,2.82,2.41,6.01,4.3,9.68,6.36Z"/>
  <path class="cls-7" d="M123.31,120.73c-2.74,2.34-5.28,4.23-8.12,5.72-4.49,2.36-8.98,4.73-13.86,6.28-2.82,.9-5.71,1.12-8.57,.32-1.08-.3-2.42-.95-.65-2.31,4.55-3.5,8.89-7.28,14.24-9.65,5.46-2.41,10.93-2.49,16.94-.36Z"/>
  <path class="cls-2" d="M300.6,148.87c3.81-7.7,5.14-15.26,6.72-22.78,.65-3.08,2.4-5.67,5.46-7.19,1.15-.57,1.67-.68,1.9,.84,.82,5.49,1.12,11-.37,16.37-1.79,6.48-6.5,10.32-13.71,12.76Z"/>
  <path class="cls-7" d="M121.47,138.66c-6.75,3.18-13.79,3.64-20.99,2.76-4.64-.56-9.09-1.71-12.87-4.56-.66-.5-2.29-.97-1.35-2.02,.77-.86,2.11-2.24,3.56-1.35,6.12,3.74,11.76,1.19,17.38-1.17,1.7-.72,2.86-.9,4.4,.46,2.85,2.51,6.3,4.19,9.88,5.88Z"/>
  <path class="cls-7" d="M147.79,134.49c-1.92,1.63-3.92,2.18-5.89,2.58-10.21,2.07-19.93,1.35-28.55-5.15-.56-.42-1.76-.75-1.19-1.65,.48-.76,1.59-1.37,2.6-.84,7.64,3.99,14.86,1.82,22.02-1.34,.84-.37,1.41-.4,2.07,.29,2.44,2.56,5.45,4.34,8.94,6.11Z"/>
  <path class="cls-2" d="M244.72,175.01c-11.64,.94-24.12-5.99-26.45-14.82-.17-.65-.41-1.29-.56-1.94-.28-1.25-1.34-3.43-.19-3.59,1.7-.23,4.08-.34,5.33,2,2.95,5.55,7.69,8.91,13.92,10.23,.82,.17,1.51,.34,1.93,1.1,1.41,2.54,3.2,4.78,6.01,7.01Z"/>
  <path class="cls-2" d="M325.62,130.6c-1.92,8.27-5.52,15.48-12.77,20.38-3.94,2.66-8.52,2.56-13.08,2.15-1.35-.12-1.09-.8-.48-1.52,.88-1.04,2.26-1.11,3.42-1.56,6.71-2.54,11.59-6.72,13.41-13.82,.2-.8,.39-1.69,1.52-1.92,2.92-.59,5.42-2.08,7.97-3.71Z"/>
  <path class="cls-2" d="M217.64,163.91c-11.76-3.34-22.28-13.49-19.47-28.09,1.8,.74,3.03,1.33,2.9,3.82-.3,5.64,3.34,9.5,8.02,11.44,4.61,1.92,6.94,4.57,7.36,9.26,.1,1.1,.7,2.15,1.19,3.57Z"/>
  <path class="cls-2" d="M334.74,100.84c1.69,16.16-8.28,30.47-18.01,31.22,2.98-2.47,5.38-4.95,6.81-8.19,1.66-3.75,2.77-7.65,3.06-11.71,.17-2.44,.89-4.26,2.97-5.83,1.88-1.42,3.29-3.45,5.16-5.5Z"/>
  <path class="cls-2" d="M306.24,155.29c-5.44,11.34-25.98,17.5-35.95,10.79,1.26-1.39,2.4-1.92,4.55-1.22,7.08,2.3,13.71,.54,18.08-5.08,3.71-4.77,7.84-5.58,13.32-4.49Z"/>
  <path class="cls-5" d="M326.86,106.21c-1.17-2.55-1.12-4.4,.67-6.41,1.83-2.06,2.47-4.81,2.51-7.57,.03-2.5,0-5.02-.19-7.51-.28-3.69-.35-3.69,3.32-3.92,.59-.04,1.18-.04,1.77-.1,4.19-.45,4.43-.41,3.77,3.64-1.37,8.46-4.69,16.01-11.85,21.88Z"/>
  <path class="cls-4" d="M316.58,79.98c.61,1.35-.23,1.66-1.33,1.8-6.11,.78-12.26,1.31-18.29,2.66-1.41,.32-1.6-.44-1.19-1.43,.89-2.13,1.64-4.39,2.93-6.27,1.34-1.95,3.96-1.28,5.98-1.73,3.23-.72,6.58-.89,9.85-1.4,1.34-.21,2.09-.05,2.04,1.48-.05,1.63-.01,3.26-.01,4.89Z"/>
  <path class="cls-4" d="M144.98,96.26c2.01-.36,4.01-.72,6.12-1.1-1.11,3.82-4.24,6.46-7.84,6.78-4.47,.4-4.9,1.22-2.43,4.98,1.03,1.57,.78,2.25-1.15,2.3-4.28,.12-8.45-.27-12.15-2.6-2.28-1.44-2.39-2.77-.39-4.62,2.34-2.16,5.23-3.32,8.31-4.07,.56,.14,1.2,.16,1.42,.85-1.91,.75-3.91,1.32-5.57,2.55-1,.74-2.31,1.6-1.8,3,.54,1.48,1.9,2.23,3.56,2.25,.55-1.96-3.93-1.34-1.77-3.64,1.07-1.15,2.83-1.68,4.27-2.5,1.28-.73,3.16-.19,4.02-1.81,.58,.02,1.17,.03,1.75,.05,1.33-.19,2.74-.19,3.98-.63,1.56-.54,1.24-1.12-.24-1.32-.01-.16-.04-.31-.08-.46Z"/>
  <path class="cls-1" d="M196.02,146.12c-6.63-6.24-11.17-12.56-11.61-21.09-.06-1.1,.46-1.61,1.42-1.84,1.03-.25,2.16-.72,2.86,.57,1.81,3.33,4.16,6.28,6.66,9.13,.36,.41,.63,1.03,.64,1.56,.05,3.61,.03,7.22,.03,11.67Z"/>
  <path class="cls-4" d="M195.73,91c.46,.1,.91,.17,1.21-.32,1.19-.88,2.63,.17,3.96-.57,.87-.48,.95,.48,.79,1.23-1.1,5.25-3.6,7.35-9.12,7.91-3.79,.39-7.55,.99-11.33,1.52-1.3,.18-2.48,.6-3.13,1.85-1.1,.09-1.42-.48-1.26-1.45,4.82-2.22,8.42-5.91,12.02-9.6,.65-.67,.97-1.73,2.14-1.84,.05,.15,.15,.23,.31,.25-.46,1.31,.15,1.62,1.39,1.64,1.09,.02,1.89-1.02,3.02-.63Z"/>
  <path class="cls-5" d="M308.58,84.29c.93-.06,1.37,.42,1.74,1.22,.53,1.13,.99,2.52,1.93,3.18,4.35,3.03,2.85,6.88,1.9,10.72-.22,.9-.32,1.95-1.58,.93-4.18-3.38-8.23-6.88-10.48-11.91-1-2.24-.69-3.39,2.15-3.33,1.44,.03,2.88-.52,4.33-.81Z"/>
  <path class="cls-4" d="M230.77,85.75c-1.18,2.72-2.13,4.92-3.08,7.11-.42,.97-1.07,1.43-2.21,1.59-3.99,.53-7.97,1.17-11.93,1.86-1.6,.28-2.07-.04-1.31-1.58,.9-1.82,1.69-3.69,2.57-5.52,.34-.7,.79-1.39,1.67-1.51,4.61-.64,9.22-1.26,14.3-1.94Z"/>
  <path class="cls-4" d="M245.47,83.47c1.21-.02,2.43,0,3.57-.5,2.99-.15,5.94-.53,8.85-1.23,.92,2.88-1.91,8.26-4.66,8.72-4.22,.7-8.46,1.31-13.38,2.07,1.93-3.27,2.08-6.6,4.47-8.97,.38-.03,.77-.06,1.16-.08Z"/>
  <path class="cls-7" d="M181.62,131.75c-7-.42-12-3.8-16.89-7.42-.28-.2-.73-.52-.31-.89,.95-.85,2.34-1.92,3.35-1.34,4.18,2.44,8.62,2.33,13.16,1.9,1.15-.11,1.61,.47,1.72,1.47,.13,1.25,0,2.57,.41,3.72,.73,2.08,.31,2.92-1.43,2.55Z"/>
  <path class="cls-4" d="M280.31,78.33h4.09c-.59,2.79-1.82,5.23-3.2,7.57-.67,1.14-2.15,.71-3.26,.91-2.95,.53-5.91,.97-8.99,1.46,1.11-5.5,3.17-9.64,9.58-9.44,.69,.15,1.27-.06,1.78-.5Z"/>
  <path class="cls-3" d="M184.68,105.52q-.03-3.83,3.74-3.93c.27,0,.56,.12,.82,.07,4.44-.84,4.45-.74,4.79,3.48,.2,2.47-.46,3.62-3.17,3.22-.85-.13-1.76,.09-2.63,.23-3.53,.59-3.53,.61-3.56-3.09Z"/>
  <path class="cls-6" d="M176.85,101.19c-.16,.97,.16,1.54,1.26,1.45,4.93-.23,4.87-.23,4.8,4.84-.03,1.89-.13,3.67-2.51,3.74-2.3,.06-4.11-.98-3.86-3.56,.21-2.16-1.81-4.41,.31-6.46Z"/>
  <path class="cls-9" d="M318.5,88.38c.06,1.04-.74,1.77-1.48,2.26-.84,.56-1.35-.45-1.85-.97-.6-.63-1.21-1.27-1.69-1.99-.68-1.02-1.97-2.1-1.39-3.3,.58-1.21,2.3-.75,3.49-1.09,1.19-.33,1.83,.13,2.03,1.36,.21,1.23,.57,2.44,.89,3.73Z"/>
  <path class="cls-7" d="M118.08,117.57c3.83-1.92,7.04-2.23,10.37-1.77,.46,.06,1.02,.14,1.15,.7,.14,.62-.51,.69-.81,1.01-3.29,3.41-6.58,.77-10.7,.06Z"/>
  <path class="cls-7" d="M66.51,124.62c3.45-1.36,6.89-2.85,10.97-1.33-3.44,3.32-7.09,3.15-10.97,1.33Z"/>
  <path class="cls-7" d="M104.17,119.79c-3.15,3.48-6.51,3.61-10.11,1.34,3.2-2.16,6.61-2.64,10.11-1.34Z"/>
  <path class="cls-2" d="M242.51,154.66c-1.49,0-2.46,0-3.44,0-3.17,0-4.11-.98-4.08-4.02,.01-1.14,.65-1.09,1.32-.8,2.29,1,4.7,1.9,6.19,4.82Z"/>
  <path class="cls-10" d="M257.89,81.74c-2.91,.7-5.86,1.08-8.85,1.23-.11-.65-1.91-2.06,.18-1.78,3.3,.44,5.87-1.67,8.94-1.67,.38,0,.76,.08,1.13,.12,.46,1.37-1.81,.84-1.4,2.1Z"/>
  <path class="cls-2" d="M288.21,144.79c-1.22,1.66-2.21,3.04-3.24,4.4-.52,.69-1.05,1.58-2.1,.86-.63-.43-1.72-.28-1.95-1.11-.28-1.06,.78-1.47,1.45-1.92,1.63-1.09,3.18-2.46,5.84-2.22Z"/>
  <path class="cls-2" d="M310.76,117.77c.01-2.82,.68-4.24,2.88-6.04q1.38,4.57-2.88,6.04Z"/>
  <path class="cls-2" d="M262.83,155.26c-3.15,3.77-3.39,3.81-6.96,1.35,1.74-1.66,3.37-2.01,6.96-1.35Z"/>
  <path class="cls-2" d="M304.1,131.23c.11,4.67-.15,4.94-4.72,4.83,.9-2.3,2.54-3.72,4.72-4.83Z"/>
  <path class="cls-1" d="M208.15,124.52c-3.29-.99-4.83-2.72-4.33-6.01,2.45,1.26,3.84,3.11,4.33,6.01Z"/>
  <path class="cls-2" d="M221.95,141.72c-4.13-.1-4.74-.69-5.08-4.61,2.25,.86,3.54,2.52,5.08,4.61Z"/>
  <path class="cls-4" d="M136.87,98.78c-.22-.69-.86-.71-1.42-.85,3.08-1.09,6.34-1.18,9.53-1.66,.04,.15,.07,.3,.08,.46-1.13,.87-3.21-.02-3.74,1.94-.58-.02-1.17-.03-1.75-.05-.9,.05-1.8,.1-2.7,.16Z"/>
  <path class="cls-10" d="M280.31,78.33c-.51,.44-1.1,.65-1.78,.5-.6-.83-1.65-.31-2.55-.73,2.97-1.12,5.77-2.18,9.17-1.92-1.31,2.16-4.03-.17-4.84,2.15Z"/>
  <path class="cls-8" d="M316.36,71.34c-1.63,1.97-3.66,1.69-5.77,1,1.92-.33,3.85-.66,5.77-1Z"/>
  <path class="cls-8" d="M184.06,90.93c-.16,.46-.42,.79-.98,.69-1.7-.02-3.39,.14-5.1,.27,1.89-1.16,3.96-1.23,6.09-.96Z"/>
  <path class="cls-10" d="M245.47,83.47c-.39,.03-.77,.06-1.16,.08-.03-.56,.06-1.25,.66-1.28,.85-.04,.34,.78,.5,1.19Z"/>
  <path class="cls-11" d="M195.73,91c-1.13-.39-1.93,.65-3.02,.63-1.24-.02-1.85-.33-1.39-1.64,1.43,.51,3.4-1.26,4.41,1.01Z"/>
  <path class="cls-11" d="M136.87,98.78c.9-.05,1.8-.1,2.7-.16-.86,1.62-2.74,1.09-4.02,1.81-1.44,.82-3.2,1.35-4.27,2.5-2.15,2.31,2.32,1.69,1.77,3.64-1.66-.03-3.02-.77-3.56-2.25-.51-1.4,.8-2.26,1.8-3,1.66-1.22,3.67-1.8,5.57-2.55Z"/>
  <path class="cls-10" d="M141.32,98.67c.53-1.97,2.61-1.08,3.74-1.94,1.49,.2,1.8,.78,.24,1.32-1.25,.43-2.65,.43-3.98,.63Z"/>
  <path class="cls-11" d="M155.43,109.45c-.16,1.32-1.31,1.12-2.19,1.19-.78,.07-1.8-.17-1.66-1.09,.2-1.32,1.65-1.05,2.59-1.33,.92-.28,1.08,.52,1.26,1.23Z"/>
  <path class="cls-11" d="M160.68,107.95c.03,1.1-1.11,.97-1.82,1.29-.76,.35-1.34,.07-1.52-.75-.27-1.23,.73-1.34,1.55-1.6,.91-.29,1.51-.04,1.79,1.05Z"/>
  <path class="cls-7" d="M92.6,141.99c-13.93,5.77-25.47,2.86-31.68-2.96-.74-.62-1.93,.08-1.11-2.24,.43-1.23,3.68-.15,5.17,.72,4.35,1.85,11.76,.6,13.88,.6,6.66-4.35,5.31-.35,10.82,1.73,.94,.35,1.58,1.22,2.93,2.17Z"/>
</svg>