<?xml version="1.0" encoding="utf-8"?>
<!-- Generator: Adobe Illustrator 28.1.0, SVG Export Plug-In . SVG Version: 6.00 Build 0)  -->
<svg version="1.1" id="Layer_1" xmlns="http://www.w3.org/2000/svg" xmlns:xlink="http://www.w3.org/1999/xlink" x="0px" y="0px"
	 viewBox="0 0 24 24" style="enable-background:new 0 0 24 24;" xml:space="preserve">
<style type="text/css">
	.st0{fill:#868686;}
</style>
<path class="st0" d="M18.2,3.3H5.7C3.6,3.3,2,5,2,7V17c0,2.1,1.7,3.8,3.7,3.8h12.5c2.1,0,3.8-1.7,3.8-3.8V7
	C21.9,5,20.2,3.3,18.2,3.3z M18.2,19.4H5.7c-1.4,0-2.4-1.1-2.4-2.5V7c0-1.4,1.1-2.5,2.4-2.5h12.5c1.4,0,2.4,1.1,2.4,2.5v1.2h-3
	c-2.1,0-3.7,1.7-3.7,3.7v0.2c0,2.1,1.7,3.7,3.7,3.7h3V17C20.6,18.3,19.5,19.4,18.2,19.4z M20.6,9.4v5.3h-3c-1.4,0-2.5-1.1-2.5-2.5
	v-0.2c0-1.4,1.1-2.5,2.5-2.5H20.6z"/>
</svg>
