<?xml version="1.0" encoding="UTF-8"?>
<svg id="Layer_1" data-name="Layer 1" xmlns="http://www.w3.org/2000/svg" viewBox="0 0 414 200">
  <defs>
    <style>
      .cls-1 {
        fill: #f3b6d3;
      }

      .cls-2 {
        fill: #00bff3;
      }

      .cls-3 {
        fill: #f5ae41;
      }

      .cls-4 {
        fill: #e7e2d9;
      }

      .cls-5 {
        fill: #ece3cc;
      }

      .cls-6 {
        fill: #fff9b8;
      }

      .cls-7 {
        fill: #fff200;
      }

      .cls-8 {
        fill: #fdfdfd;
      }

      .cls-9 {
        fill: #9ed2f1;
      }

      .cls-10 {
        fill: #bbad98;
      }

      .cls-11 {
        fill: #c7c3c1;
      }

      .cls-12 {
        fill: #444039;
      }

      .cls-13 {
        fill: #717070;
      }

      .cls-14 {
        fill: #56504f;
      }

      .cls-15 {
        fill: #494441;
      }

      .cls-16 {
        fill: #231f20;
        font-family: MyriadPro-Regular, 'Myriad Pro';
        font-size: 14px;
      }
    </style>
  </defs>
  <path class="cls-12" d="M272.24,84.11c.18,2.15,1.17,3.37,3.13,4.68,5.09,3.43,10.13,7.23,10.99,14.08,.13,1.07,.94,1.41,1.64,1.81,4.97,2.84,6.6,7.59,6.66,12.81,.05,4.35,1.66,8.03,3.16,11.91,1.41,3.66,1.56,7.8,.04,11.34-1.03,2.41-1.16,4.77-1.6,7.17-.98,5.27-3.13,9.77-7.96,12.57-.77,.45-1.33,1.06-1.82,1.78-.43,.47-.84,.2-1.25-.04-.2-.09-.4-.19-.6-.28-.55-.31-1.06-.32-1.49,.2-1.38,.24-2.76,.13-4.14-.06-.21-.25-.38-.18-.52,.07-.35,.37-.69,.74-1.04,1.11-.19-.19-.37-.38-.56-.57,.26-.71,.5-1.43,.78-2.13,1.21-2.98,1.56-6.12,1.59-9.29,0-.73-.07-2.4-1.54-1.33-1.81,1.33-3.92,2.39-5.06,4.51-2.52,4.69-4.13,9.9-7.89,13.89-.29,.31-.46,.72-.26,1.17,.12,.7-.39,1.7,.89,1.84,2.7-.12,5.35,1.41,8.08,.2,4.45-1.97,8.72-4.19,11.56-8.39,.35,.03,.71,.05,1.06,.08-2.85,5.69-8.11,8.03-13.71,9.88-.5-.09-.92,0-1.11,.54-.16,.16-.32,.32-.47,.48-.42-.33-.84-.65-1.26-.98-4.98-1.32-9.97-1.86-14.96,0-.22,.08-.51,0-.76-.02-.53-.07-1.05-.17-1.16-.83,6.05-.31,10.92-2.47,13.41-8.47,.17-.42,.83-.63,1-1.05,.55-1.37,2.28-2.85,1.41-4.04-.67-.93-2.7-.29-4.08,.26-.62,.25-1.28,.41-1.92,.62-.42-.03-.82-.1-1.04-.53,.27-.67,.54-1.35,.81-2.02,.37,0,.74-.01,1.11-.02,.17,.67,.7,.55,1.18,.54,.27,.28,.39,.14,.46-.17,1.32-.51,2.7-.28,4.06-.32,1.85-.06,1.77-1.87,2.47-2.92,.62-.93-.35-1.06-1.04-1.16-.49-.14-1.04-.17-1.32-.7,.4-.14,.81-.44,1.19-.4,2.35,.22,3.15-.67,3.5-3.15,.3-2.13,1.23-4.45,2.94-6.1,2.83-2.74,3.1-3.79,1.76-7.39-.58-1.55-.91-3.18-.2-4.78,.62-1.41,.27-2.19-.98-3.16-3.1-2.41-3.81-5.53-2.58-9.4,.24-.76,1.08-1.79,.11-2.33-1.69-.94-2.5-2.84-4.7-3.34-3.72-.84-6.57-2.96-6.84-7.28-.08-1.21-.9-1.91-1.88-2.24-1.15-.39-1.9,.77-2.62,1.31-2.37,1.75-5.9,2.28-5.86,6.61,.03,3.23-.02,6.72-2.09,9.64-.33,.46,.13,1.02,.29,1.56,1.32,4.48,2.07,9.06-.45,13.37-1.16,1.99-.89,3.87,.09,5.56,.72,1.24,1.08,2.46,1.32,3.79-.06,.56-.13,1.12,.37,1.54,.04,.19,.08,.38,.13,.57-.18,1.33,.38,2.71-.31,4-.06-.5-.12-1-.18-1.5,.01-.13-.02-.25-.09-.36-.41-1.28-1.05-2.55-1.34-3.77-2.1-8.71-6.21-16.63-9.39-24.92-1.18-3.07-2.78-5.9-4.39-8.74-.47-.83-1.47-2.08-1.99-.4-2.07,6.64-2.72,13.36,.87,19.74,1.05,1.87,2.04,3.69,2.46,5.8-.02,.66-.27,1.4,.57,1.78l.3,1.09c-1.13-.1-1.62,.42-1.49,1.54-.56,3.78-1.02,7.56-1.08,11.39-1.55,.81-1.5,1.67-.1,2.59,0,.69,0,1.37,0,2.06-1.3,.91-1.37,1.78,.09,2.59,.05,1.33,.09,2.67,.14,4-.49,.78-2.06,.84-1.49,2.31h-.02c-.2,.11-.41,.22-.61,.34-.58,.4-1.1,.97-1.92,.75-.16-.31-.02-.84-.62-.8-.06,0-.15,.1-.16,.16-.09,.59,.47,.48,.75,.67-.57,1.09-1.66,1.44-2.68,1.89-.46-.03-.88-.13-1.09-.62-.8-1.38-2.34-1.7-3.57-2.47-.43-.67-1.08-.54-1.71-.49-4.45-.74-8.85,.12-13.26,.47-1.09,.08-1.7-.35-1.56-1.53,2.02,.25,2.53-.81,1.9-2.47-1.09-2.89-1.18-5.87-1.15-8.89,.01-1.54,.4-3.24-.1-4.6-2.24-6.08-2.44-12.66-5.05-18.7-2-4.63-1.66-9.78-.28-14.78-1.5-.05-2.69,.35-3.57,1.36-2.96,3.41-5.33,7.11-5.31,11.86,0,2.23,.08,4.47,.13,6.7-.31-.02-.61-.03-.92-.05-.07-.6-.24-1.2-.2-1.79,.33-4.12-1.61-6.62-4.81-9.23-3.46-2.82-5.49-7.16-6.04-11.87,1.3-.1,1.02,1.2,1.57,1.78,1.19,4.53,3.7,8.18,7.39,11.04,.53,.41,1.03,1.01,1.79,.76,.5-.17,1.91-6.23,1.56-6.73-2.28-3.15-3.63-6.76-5.05-10.33,.2-.35,.4-.69,.6-1.04,1.05,.56,.98,1.73,1.33,2.64,.89,2.32,1.81,4.6,3.15,6.71,.84,1.33,1.64,1.73,2.65,.21,1.19-1.79,2.9-2.85,5.02-3.42-1.21-2.84-3.1-5.23-3.89-8.14,.05-.53-.1-1.11,.39-1.53,3.45,8.61,10.05,15.06,15.31,22.5,.34-4.55-1.09-8.78-1.81-13.1,.07-.47,.14-.95,.64-1.19,1.5,5.09,2.92,10.21,2.32,15.61-.14,1.23,.46,2.15,.93,3.14,.43,.9,1.14,.76,1.64,.19,1.55-1.76,3.15-3.37,3.66-5.95,1.03-5.15-.2-10.06-.88-15.04,.37,0,.75-.02,1.12-.03,2.01-.34,4.03-.62,6.02-1.02,1.61-.32,3.61-3.74,3.03-5.22-1.6-4.1-3.32-8.15-4.89-12.26-.38-1-1.01-.66-1.63-.66,0-.31,0-.62,0-.93,1.51-.56,1.45-1.93,1.65-3.17h.13s.13,0,.13,0c.59,4.98,3.13,9.32,4.64,14.01,.82,2.55,1.92,5.06,3.72,7.01,2.26,2.45,3.61,5.37,5.11,8.24,.65,1.24,1.21,2.52,1.86,3.87,2.09-2.75,2.37-5.67,2.08-8.72-.28-2.94-1.69-5.53-2.55-8.29-1.88-6.04-4.1-11.98-5.46-18.17,.16,0,.32,0,.47,0,.35,.35,.61,.97,1.19,.81,3.25-.9,6.5-1.82,9.73-2.81,1.24-.38-.13-1.08,.09-1.62,.29-.17,.58-.34,.88-.51,3.69,4.77,7.98,8.85,13.32,11.73,.83,.45,1.69,1.69,2.65,.86,.83-.73,.69-2.01,.37-3.15-1.02-3.66-3.17-6.67-5.63-9.4-1.59-1.77-2.59-3.76-3.37-5.92-1.41-3.9-.84-4.8,3.11-5.07,.36,.78-.11,1.03-.74,1.21-2.31,.66-2.26,2.15-1.48,4.01,.47,1.12,1.04,2.07,2.19,2.58,.24,1.36,.97,1.5,2.19,1.06,2.04-.73,4.04-1.65,6.27-1.68,.17,.81-.35,1.02-.98,1.21-1.47,.46-2.9,1.07-4.39,1.44-1.31,.32-1.56,.68-.67,1.84,1.79,2.31,3.13,4.89,4.49,7.48,1.05,2,1.18,3.55-.17,5.27,3.51,1.36,3.55,1.37,4.52-1.98,.33-1.15,.34-2.4,.73-3.52,.64-1.84-.91-3.71,.18-5.5,.23,.38,.45,.76,.68,1.15Zm-37.99,80.2c.11-.17,.21-.33,.32-.5,.53-1.15,.36-2.36,.28-3.56-.51-7.55-.83-15.11-.63-22.69,.1-3.87,.1-7.67-1.4-11.39-.89-2.21-.8-4.72-.58-7.14,.29-3.17,.77-6.31,1.8-9.33,.41-1.19,.27-2.48-.72-3.03-1.21-.67-1.46,.91-1.88,1.55-3.06,4.7-4.02,10.04-4.57,15.51-.41,3.98-.25,8.02-1.08,11.96,.11-.53,.19-1.05-.4-1.38,.33-1.48-.94-2.82-.51-4.22,.94-3.07,.61-6.27,1.2-9.37,.09-.46,.55-1.3-.43-1.44-.62-.09-1.27,.25-1.37,.91-.56,3.36-1.55,6.74-1.41,10.08,.13,3.04,.77,6.05,.37,9.14-.19,1.46,.14,1.77,1.42,2.33,1.51-.35,1.22,.96,1.32,1.62,.64,4.12,1.31,8.21,3.04,12.06,1.39,3.09,1.57,6.73,4.17,9.27,.29-.04,.58-.08,.87-.11,.02-.13,.09-.22,.21-.27Zm48.45-28.99c.3-.17,.61-.34,.91-.51,1.25,3.34,2.55,6.66,3.18,10.19-.11,.58,.08,1.25-.5,1.69-.88-2.77-1.83-5.51-2.6-8.31-.36-1.29-.95-1.15-1.77-.63-1.72,1.09-2.14,2.72-2,4.66,.37,5.43,1.41,10.85-.21,16.29-.54,1.8,.78,.45,1.29,.41,.21,.22,.42,.44,.63,.66-.2,.36-.4,.71-.59,1.07,.16,.03,.33,.06,.49,.08,.37-.02,.74-.03,1.11-.05,.69,.46,1.36,.49,2.01-.06,4.83-2,8.33-5.29,9.65-10.48,.29-1.16,1.36-2.45,.16-3.73,0-.49-.02-.99-.03-1.48,3.43-6.74,3.07-13.44-.01-20.66-1.09,1.86-1.95,3.37-3.34,4.19-2.03,1.19-2.23,2.41-.73,4.09,0,.16,.05,.3,.14,.43,.11,.38,.22,.75,.33,1.13-.5,0-.99,0-1.49,0-1.54-3.92-2.87-7.96-5.92-11.07-.46-.47-.71-1.36-1.53-1.21-1.04,.2-.56,1.29-.89,1.92-.33,0-.66,0-.98,.01,.68-2.69-.32-4.65-2.62-6.05-.55-.34-.99-.63-1.4,.25-1.15,2.47,.05,6.9,2.25,8.44,.9,.63,1.35,.58,1.53-.54,.31,0,.62-.02,.93-.02-.01,.61-.03,1.22-.04,1.82,.05,.24,.1,.48,.15,.73,.11,.35,.22,.69,.32,1.04-.37,.14-.74,.28-1.11,.42-1.24,1.41-.85,2.98-.4,4.52,.57,1.93,1.54,2.55,3.06,.76Zm-62.43,25.84c-.17-.37-.34-.73-.51-1.1-.28-.97-.67-1.86-1.67-2.43-.73,1.55-.6,3.1-.69,4.61-.04,.76-.11,1.68,1.06,1.56,1.06-.11,2.42,.95,3.07-.13,.46-.76,.13-2.15-1.25-2.51Zm31.84-64.12c-.49,0-.97,0-1.46,0-1.02-2.92-1.94-5.87-3.07-8.74-1.48-3.77-1.55-3.74-5.33-2.64-3.87,1.13-3.93,1.14-2.74,4.98,1.41,4.56,2.87,9.08,4.67,13.53,2.25,5.53,2.97,11.49-.5,17.06-.37,.6-.52,1.17-.06,1.62,.46,.45,1.09,.9,1.83,.44,1.82-1.14,3.86-2.21,4.55-4.36,1.6-4.98,2.7-10.06,1.96-15.36-.11-.78-.51-1.63,.33-2.47,.88,.92,.92,2.02,.89,3.11-.04,1.43,.28,1.97,1.71,1.03,1.43-.93,2.63-2.21,4.32-2.74,.6-.19,.73-.64,.37-1.21-2.18-3.45-4.82-3.73-7.6-.79,0,.01-.24-.19-.37-.3,.15-.93-.41-2.04,.7-2.72,1.06,.14,1.98-.24,2.94-.7-.86-1.93-1.86-3.86-1.23-5.95,.61-2.02,.02-3.41-1.51-4.63-.79-.63-1.65-1.21-2.27-1.98-.83-1.03-1.62-.7-2.46-.2-1.17,.69-.07,1.32,.14,1.9,1.32,3.74,3.22,7.26,4.19,11.12Zm-37.15,50.65c-1.01-1.27-1.24-3.19-3.33-3.8-1.05,5.2-1.1,10.4-.37,15.61,.14,1,.56,2,1,2.92,.49,1.02,1.21,1.87,2.53,1.75,1.53-.13,1.26-1.36,1.4-2.33,.44-2.97,.87-5.94,1.3-8.91,.37,0,.73-.02,1.1-.03,.74,1.98,1.77,3.82,2.74,5.7,.78,1.5,1.27,1.34,2.05,.15,2.27-3.45,2.59-7.22,1.71-11.15-.91-4.03-3.67-7.07-5.61-10.55-4-7.18-8.45-14.04-13.39-20.76-2.33,3.36-2.28,7.17-1.26,10.4,1.68,5.34,4.09,10.53,7.61,15.01,1.22,1.56,2.34,3.13,3.1,4.95-.42,.21-.57,.57-.59,1.02Zm65.4-40.41c-.3-5.32-4.25-9.53-10.34-10.7-4.6-.88-8.4-3.33-12.33-5.59-.74-.43-1.31-1.79-2.28-1.04-.83,.64-.61,1.92-.41,2.94,.73,3.81,6.5,9.65,10.31,10.3,5.12,.88,10.27,1.65,15.05,4.08Zm-9.55-1.56c.02,2.84,1.08,5.13,2.97,7.15,3.85,4.12,8.69,7.18,12.24,11.61,.75,.94,1.16,.75,1.58-.24,.87-2.05,.59-4.07-.19-6.03-2.97-7.47-8.56-11.49-16.61-12.49Zm14.4-2.22c.11-.96-.2-2.05-.61-3.08-1.76-4.5-5.38-7.38-9.07-10.14-2.54-1.9-2.67-1.78-3.48,1.09-.26,.91-.41,1.87-.84,2.69-.56,1.06-.26,1.5,.76,1.9,1.35,.52,2.75,1.02,3.94,1.8,3.25,2.14,5.16,5.22,5.7,9.08,.16,1.14,.73,2.15,1.69,2.29,1.13,.17,.87-1.26,1.15-1.94,.44-1.09,.87-2.25,.76-3.67Zm8.4,16.37c-.07-1.12-.07-2.24-.21-3.35-.51-4.02-1.77-7.68-5.33-10.09-.54-.36-1.07-1.35-1.86-.3-1.42,1.87-1.38,5.23-.05,7.26,2.58,3.94,4.54,8,1.8,12.7-.53,.9-.32,1.76,.38,2.33,.76,.62,1.5-.22,1.98-.6,2.54-2.01,3.71-4.67,3.3-7.96Zm-63.34,47.38c1.21-3.14-.4-5.55-1.22-8.12-.3-.95-.85-2.17-1.67-1.73-2.1,1.13-3.3,3.16-3.93,5.49-.23,.83-.09,1.35,.85,1.44,.08,0,.17,.03,.25,.06,2,.72,3.93,1.57,5.71,2.86Zm18.82-31.27c1.65-3.31,1.63-6.44,1.46-9.55-.24-4.5-.41-4.56-4.21-2.32-.64,.38-1.74,.41-1.17,1.78,1.33,3.2,2.53,6.46,3.93,10.08Zm-20.35-25.64c-5.44,.12-5.6,.29-4.97,5.27,.03,.26,.02,.52,.07,.77,.16,.74-.34,1.96,1.08,1.85,1.11-.09,1.79-.66,1.88-1.98,.14-2.08,.56-4.13,1.94-5.91Zm42,1.08c-.32-1.11-.52-1.74-.69-2.38-.18-.65-.4-1.3-.51-1.97-.28-1.7-2.75-3.21-4.45-2.71-.87,.25-.64,.8-.52,1.4,.63,3.21,3.11,4.4,6.18,5.66Zm-49.03,18.93c-3.42,2.61-4.73,1.87,.51,7.85,.48-2.67,0-5.12-.51-7.85Zm53.7,19.07c4.17-2.05,4.33-2.41,2.97-6.27-2.26,1.39-2.36,3.71-2.97,6.27Zm-39.35-6.75c.39-2.71,2.22-5.48-.17-8.7-.58,3.27-.44,5.98,.17,8.7Zm-26.22,2.86c2.01-3.62,0-5.87-2.17-8.83,.82,3.33,1.46,5.94,2.17,8.83Z"/>
  <path class="cls-15" d="M228.85,168.35c.21,.48,.63,.58,1.09,.62-2.39,1.17-4.79,2.34-7.54,3.68,4.8,2.29,9.35,3.28,14.16,2.88,1.55-.13,3.09-.61,4.27-1.63,3.25-2.79,6.95-4.9,10.53-7.18,.96-.61,.98-1.07,0-1.64-2.52-1.46-5.13-2.12-8.1-1.62-2.81,.48-5.19,2.25-8.05,2.49-.57-1.46,1.01-1.53,1.49-2.31,2.97,.44,7.45-4.89,6.35-7.71-1.69-4.32-2.88-8.79-4.17-13.23-.2-.7-.13-1.62-1.21-1.7-.13-1.12,.36-1.64,1.49-1.54,2.06,7.15,4.05,14.31,7.93,20.8,1.05,1.76,1.05,1.89,2.8,.65,2.27-1.59,2.63-3.6,2.87-5.91,.3,0,.61-.01,.91-.02,.02,.42,.19,.92,.02,1.25-.94,1.96-.92,3.05,1.78,2.52,1.07-.21,2.19,.24,3.18,.76,1.03,.54,1.94,.33,2.77-.41,.22,.43,.62,.5,1.04,.53-5.41,4.63-11.34,8.57-17.68,12.81,3.01,.27,5.44,.06,7.87-.12,.11,.66,.63,.76,1.16,.83-2.66,.83-5.49,.22-8.35,.87,2.7,2.66,6.03,3.07,9.26,3.71,0,.32,0,.64-.01,.96-.53-.06-1.05-.12-1.58-.18-.24-.05-.47-.1-.71-.16-.27-.06-.54-.12-.81-.18-.43-.57-.94-.52-1.49-.21-3.22,1.18-6.17,3.14-9.69,3.48-.21,.04-.43,.09-.64,.13-2.45,.56-4.89,.56-7.34,.03-.48-.37-1.02-.27-1.55-.21-2.2-.37-4.37-.88-6.35-1.94-.88-.47-1.68-.49-2.66-.09-6.69,2.66-13.49,3.09-20.35,.63-1.89-.68-3.53,.41-5.22,.83-6.26,1.55-12.48,2.43-18.78,.28-1.56-.53-2.83,.51-4.12,1.03-6.18,2.45-12.23,2.27-18.2-.57-.85-.41-1.55-.43-2.43-.14-.61,.2-1.34,1.08-2.02,.04-.25-.02-.49-.05-.74-.07,.27-1.36,1.83-.47,2.51-1.59-1.2-.6-2.39-1.37-2.95-2.6-.87-1.91-2.12-1.63-3.78-1.25-4.96,1.13-9.99,2.28-14.5-1.4-.92-.75-1.71-.14-2.3,.35-.76,.64,.1,1.25,.46,1.74,1.03,1.41,2.46,2.29,3.96,3.18,1.42,.84,3.79,.26,4.25,2.63-4.18-2-7.9,.75-11.82,1.25-3.79,.48-7.51,.83-11-1.08-1.7-.93-3.14,.36-4.72,.29,0-.33,0-.67,0-1,1.06-.38,1.96-.71,.46-1.83-.66-.49-1.21-1.23-1.59-1.97-.62-1.22-1.25-1.43-2.62-.95-3.58,1.26-7.35,1.71-11.08,.93-1.48-.31-1.44,.5-1.79,1.27-1.32-.35-1.7-1.26-1.48-2.52,.78-1.23,1.7-.17,2.42-.01,5.09,1.05,9.86,.25,14.46-2.08,4.3-2.18,8.43-4.59,12.08-7.87-3-1.41-6.12-1.52-9.3-1.14,0-.31-.01-.62-.02-.93,1.21-.16,2.41-.32,3.62-.48,.73,.15,1.47,.3,2.2,.45,2.83-.08,5.51,2.58,8.46,.47,.46,.14,.91,.27,1.37,.41-4.98,2.09-9.56,4.8-13.7,8.41,1.17,.8,2.44,.89,3.71,1.05,8.48,1.09,15.29-3.47,22.51-6.66,1.21-.54,.44-1-.1-1.42-1.57-1.23-3.54-1.16-5.36-1.59-1.35-1.11,.4-1.43,.54-2.16,4.86-1.94,9.56-2.67,14.35,.57,1.73,1.17,4.01,.78,5.93-.77,3.6-2.91,7.57-3.94,11.9-1.48,.22,.13,.45,.24,.67,.36,1.04,.55,1.44,2.35,2.74,2.07,2.3-.49,4.71-.47,6.83-1.95,5.41-3.76,10.1-3.34,15.13,.99,1.24,1.07,2.58,1.46,3.49-.48,.82-1.76,2.56-2.67,3.76-4.08,.6-.7,.96-1.14,.5-2.19-2.19-4.99-4.15-10.08-5.24-15.44-.4-1.99-.39-4.07-.56-6.11,.31,.02,.61,.03,.92,.05,.99,3.84,1.43,7.77,2.67,11.59,2.24,6.85,3.88,13.93,10.76,17.93-.14,1.19,.47,1.61,1.56,1.53-5.39,1.04-9.74,4.14-14.69,7.45,3.49,.35,6.45,.8,9.41,.91,4.89,.18,9.69-.05,14.43-1.82,3.21-1.2,6.12-3.03,9.39-4.05Zm-24.28-3.54c.96,1.76,2.11,1.24,3.19,.52-.82-2.36-2.12-.01-3.17-.54,.1-2.59-1.6-4.51-3.36-5.59-.97-.6-2.26,1.82-3.24,3.04-.34,.42-1.2,.47-.95,1.5,2.41,.59,4.95,.96,7.53,1.08Zm-19.74,1.81c-2.5-1.96-5.28-2.45-8.22-2.3-8.46,.43-15.43,4.73-22.53,8.68-.08,.04-.04,.3-.06,.59,6.32,2.35,12.54,2.05,18.79-.43,4.24-1.69,7.5-5.12,12.03-6.54Zm-22.51,.68c-4.77-1.56-9.17-2.85-13.39-1.43-5.31,1.78-10.32,4.49-15.45,6.82-.44,.2-1.1,.28-1.13,.88-.03,.73,.67,.92,1.2,1.18,2.92,1.43,6.02,1.16,9.06,.73,7.02-.98,12.82-4.96,19.71-8.18Zm13.72,6.02c7.19,4.07,18.59,.64,27.48-6.84-8.23-4.03-19.76,1.04-27.48,6.84Zm-1.21,6.79c-1.43-.85-2.61-1.98-3.39-3.42-.59-1.09-1.2-1.36-2.44-1.02-2.32,.63-4.73,.74-7.14,.65-3.11-.12-6.12-.66-8.96-1.99-1.15-.54-2.42-.45-3.01,.55-.5,.85,.53,1.73,1.18,2.34,.99,.92,2.07,1.78,3.22,2.47,6.73,3.99,13.58,4.02,20.53,.42Zm-42.79,.6c-1.7-1.45-3.29-2.43-4.32-3.82-.91-1.24-1.79-1.33-3.03-1.06-3.84,.84-7.63,.78-11.4-.43-1.28-.41-2.92-1.05-3.68,.51-.64,1.31,.82,2.25,1.59,3.21,.21,.26,.51,.47,.79,.66,6.39,4.44,13.02,3.6,20.05,.93Zm66.53-1.84c-1.51-.78-2.81-1.34-4-2.08-2.12-1.33-4.2-1.94-6.78-1.15-2.45,.75-5.06,.83-7.65,.36-1.62-.29-3.2-.69-4.61-1.52-1.22-.72-2.53-.65-3.26,.33-.74,.99,.45,1.93,1.13,2.51,2.3,1.98,5.03,3.12,8.05,3.56,5.78,.85,11.32-.18,17.12-2.02Zm23.32-.91c-1.4-.92-2.53-1.64-3.62-2.41-.71-.5-1.33-.96-2.32-.79-5.8,1.01-11.59,.8-17.42,.06-1.69-.22-3.39-.96-5.36-.54,7.81,5.57,17.84,8.5,28.72,3.69Zm-2.84-3.67c7.4,7.22,21.45,8.84,28.65,2.77-.67-.41-1.36-.76-1.97-1.21-1.74-1.29-3.36-2.06-5.44-.37-1.25,1.01-3.02,1.16-4.66,1.23-4.36,.17-8.54-.65-12.5-2.45-1.4-.64-2.72-1.05-4.07,.03Zm-63.28-9.94c4.26,.52,8.27,3.94,12.38,.03-2.46-3.83-8.56-3.95-12.38-.03Zm22.53-1.33c2.12,.42,4.22,.29,5.69,1.46,2.09,1.67,4.02,1.31,6.14,.4,.47-.2,1.16-.25,1.24-.79,.09-.63-.52-1.05-.99-1.42-3.27-2.62-8.12-2.55-12.08,.34Zm-30.51,1.59c-3.12-2.66-8.72-2.7-11.33-.09,1.8,.4,3.49,.96,4.79,2.3,.38,.39,.77,.63,1.36,.39,1.79-.73,3.71-1.19,5.18-2.6Zm110.39-3.31c-.14-.89-.67-.96-1.14-1.14-1.79-.68-3.34-.05-4.84,.88-2.63,1.64-2.62,1.62-.03,3.25,.65,.41,1.2,1.02,2.02,.33,1.36-1.14,2.72-2.27,3.98-3.33Zm-15.92,.97c1.42-.25,3.13,.59,3.96-.8,.29-.49-.47-2.55-1.24-2.54-1.68,.03-2.13,1.81-2.72,3.33Z"/>
  <path class="cls-15" d="M227.2,86.69h-.13s-.13,0-.13,0c-.15-.54,.11-1.23-.55-1.59-.11-.26-.22-.53-.33-.79,.18-.46,.34-.91-.16-1.28l-.06-.04c0-.31,0-.61-.01-.92,.27-.28,.26-.86-.02-.76-3.62,1.31-7.62,1.51-10.88,3.81h.02c-2.57-.29-4.72,1.19-7.11,1.67-1.73,.11-.38,1.3-.66,1.91-.97,.27-1.07,1-.88,1.8,.3,1.31,.66,2.62,.99,3.92,.5,1.99,1.16,3.91,2.49,6.26-.07-1.33-.05-2.01-.16-2.67-.11-.66-.45-1.33,.56-1.85,.39,1.28,.76,2.52,1.14,3.76-.45,.83-.01,1.66-.02,2.48-.06,3.48,2.5,6.22,2.67,9.63-.5,.24-.56,.72-.64,1.19-.83-.21-.91-.94-1.08-1.6-1.8-6.91-4.88-13.33-7.43-19.96-1.03-2.68-.21-6.11,1.68-6.13,2.4-.02,4.35-1.25,6.76-1.62-3.18-3.02-6.58-4.81-10.63-2.94-4.19,1.94-5.14,6.01-5.73,10.16-.44,3.17,1.65,5.9,1.49,9.02,0,0,.03-.02,.03-.02-1.65-.66-7.26,.89-8.13,2.3-.2,.33-.13,.83-.19,1.25-.47,0-.94-.02-1.41-.02-2.01-2.35-3.83,.1-5.59,.46-1.79,.37-.27,2.11-.2,3.26-1.07,1.38-1.52,.27-2.05-.51,.07-1.86-.8-2.4-2.53-1.89-1.06,.31-2.15,.58-3.25,.69-3.79,.39-7.08,1.38-9.77,4.54-2.76,3.24-6.64,2.96-10.43,1.46,.11,3.61-.19,3.86-4.4,4.04-2.04-.52-4.36,.96-6.23-.85,.22,.07,.44,.14,.67,.21,.35,0,.71,0,1.06,0,2.61-.11,5.21-.28,7.74-1.2-.29-1.2-1.14-1.89-1.94-2.41-1.78-1.16-1-1.77,.34-2.37,.54-.24,1.1-.59,1.67-.62,3.23-.16,4.38-2.93,6.43-4.61-1.92-.85-3.63-1.69-5.38-.3-2.04,.53-4.15,.81-6.02,1.87-3.29,1.73-7.11,2.75-8.81,6.61l-.55-1.24c1.15-3.07,4.02-4.05,6.58-5.33,1.37-.69,1.72-1.18,.71-2.58-6-8.29-11.94-16.64-17.8-25.03-4.88-6.99-10.03-13.79-14.7-20.92-1.35-2.06-3.26-3.71-4.36-5.96-.31-.64-1.2-1.3,.2-1.73,1.25,1.62,2.59,3.17,3.74,4.86,5.03,7.44,10.35,14.68,15.47,22.05,5.77,8.31,11.89,16.36,17.45,24.79,1.72,2.6,3.31,3.08,5.98,2.12,1.75-.63,2.58-1.32,1.08-2.99-4.12-4.6-7.24-9.94-10.86-14.9-5.53-7.6-10.81-15.39-16.32-23.02-3.77-5.21-7.31-10.58-10.96-15.88,.55-1.39,1.2-.69,1.55,.04,1.33,2.73,3.67,4.71,5.21,7.28,3.8,6.33,8.38,12.12,12.56,18.18,5.04,7.31,10.3,14.48,15.45,21.73,1.67,2.35,3.47,4.63,5.1,7.03,.57,.84,1.07,1.05,2.11,.82,2.95-.66,5.11-1.79,6.67-4.83,2.72-5.3,10.78-9.96,17.58-6.82,.38,.18,.79,.32,1.18,.48,1.25,.51,1.85,2.45,3.36,2.09,2.99-.72,5.91-1.78,8.83-2.76,.29-.1,.55-.66,.61-1.04,.66-4,2.9-6.81,6.41-8.68,1.47-.78,1.12-2.17,1.24-3.42,.27,0,.55,.01,.82,.02,.08,.71,.17,1.43-.18,2.1-.26,.53-.17,.89,.49,.94,3.73-.73,6.62,1.15,9.41,3.16,.78,.56,1.35,.78,2.3,.46,2.76-.94,5.55-1.75,8.34-2.6,.96-.29,1.75-.7,1.92-1.82,.43-2.81,2.41-4.59,4.27-6.45,.61-.26,.52-.87,.67-1.36,.15,.09,.31,.19,.46,.28,.12,.39,.26,.45,.44,.03,0,0,0,0,0,0,.2-.08,.4-.17,.59-.25,.8-.46,1.64-.75,2.57-.66,0,.32-.01,.63-.02,.95-3.03,.84-4.98,2.73-6.64,5.48-1.97,3.26-1.6,6.65-1.76,10.07Zm-66.98,15.54c-.45-.39-.92-.25-1.36,0-.04,.03,0,.37,.06,.38,.51,.14,.99,.14,1.27-.42,.28-.08,.57-.17,.85-.25-.06-.06-.13-.16-.19-.16-.29,.02-.7-.09-.63,.45Zm25.74-8.37c-.54,.09-1.12,.06-1.52,.55-1.54,.56-3.31,.43-4.65,1.58l.03-.02c-2.14,.37-4.39,.41-6.12,2.03l-.11,1.01c-2.35,1.37-2.67,4.05-4.3,6.23,7.86-.57,14.91-3.04,22.07-4.95,4.88-1.31,4.83-1.49,4.42-6.57-.02-.26,0-.52,0-.77l-.09-1.71c-.52-.77-.99-.59-1.43,.08h0c-1.03-.19-1.88,.3-2.75,.72-1.24,.35-2.48,.7-3.72,1.04-.61,.27-1.36,.19-1.83,.79Zm-31.26,15.87c2.95,2.41,7.12,2.35,9.74-.33,1.66-1.69,3.27-3.44,4.39-5.62,1.18-2.29,2.59-4.45,3.91-6.67,.9-1.52,2.46-2.5,3.99-2.37,2.81,.24,4.99-1.24,7.66-1.66-2.7-3.73-9.62-3.81-13.23-1.52-3.65,2.32-6.16,5.48-7.94,9.46-1.73,3.86-4.24,7.22-8.51,8.7Zm-.27,2.11c-.05-.1-.12-.21-.18-.32-.06,.06-.17,.13-.16,.17,.03,.12,.1,.23,.16,.34,.05-.06,.11-.12,.18-.19Z"/>
  <path class="cls-6" d="M267.84,76.7c-2.23,.02-4.24,.94-6.27,1.68-1.22,.44-1.94,.31-2.19-1.06,0-1.03-.01-2.07-.02-3.1,1.36-1.2,2.73-2.39,4.09-3.59,.57-.03,1.14-.06,1.71-.09,.98-.33,2.13-.12,2.94-.96h.03c3.96-1.21,7.91-2.41,11.87-3.61,.43-.03,.88-.03,1.07-.54,4.91-1.3,9.88-2.44,14.55-4.53,.37-.14,.73-.28,1.1-.42,4.65-1.01,9.22-2.3,13.56-4.3l-.06,.02c.69,.07,1.38,.16,1.86-.54,0,0-.03,.02-.03,.02,2.55-.03,4.78-1.19,7.08-2.08,1.48,.09,2.95,.16,2.77-2.03,.8-.26,1.61-.53,2.41-.79,0,2.72,.42,5.37,1.17,7.98-1.97,.55-3.96,1.05-5.92,1.65-15.18,4.72-30.36,9.46-45.53,14.2-1.15,.39-2.31,.78-3.46,1.17l-.16-.06-.14,.12c-.77,.34-1.76,.15-2.34,.96l-.08-.1Z"/>
  <path class="cls-3" d="M115.67,46.26c3.65,5.3,7.19,10.67,10.96,15.88,5.51,7.62,10.79,15.42,16.32,23.02,3.61,4.96,6.74,10.31,10.86,14.9,1.5,1.68,.67,2.36-1.08,2.99-2.66,.96-4.26,.49-5.98-2.12-5.56-8.44-11.69-16.49-17.45-24.79-5.12-7.37-10.44-14.61-15.47-22.05-1.14-1.69-2.49-3.24-3.74-4.86,1.53-1.61,3.6-2.21,5.58-2.97Z"/>
  <path class="cls-9" d="M111.67,165.71c3.18-.38,6.31-.27,9.3,1.14-3.65,3.28-7.78,5.69-12.08,7.87-4.6,2.33-9.36,3.14-14.46,2.08-.73-.15-1.65-1.22-2.42,.01,0,0,0-.07,0-.07,.5-.69-.16-.68-.52-.85-.07-.09-.16-.14-.27-.14-.07-.09-.13-.17-.2-.26,0-.49,.02-.99,.03-1.48,.33-.07,.73-.05,.98-.24,5.88-4.32,12.37-7.13,19.64-8.07Z"/>
  <path class="cls-12" d="M263.45,70.63c-1.36,1.2-2.73,2.39-4.09,3.59-.65-.02-1.44,.2-1.56-.8-.08-.66,.24-1.05,.84-1.39,2.31-1.31,4.07-3.21,5.47-5.44,5.8-6.09,7.1-13.61,6.94-21.64-.03-1.67-.67-2.12-2.18-1.84-1.87,.34-2.31-.25-1.49-2.06,.99-2.19,1.73-4.49,2.56-6.74,.2-.55,.2-1.3,.97-1.35,.61-.05,.76,.58,1.06,.99,1.48,2.07,2.99,4.12,4.47,6.19,1.01,1.41,1.03,2.48-1.1,2.32-1.98-.15-2.34,.65-2.26,2.53,.31,7.27-.99,14.2-4.97,20.45-.66,.32-1.09,.79-1.02,1.59,0,0,0-.01,0-.01-1.01,.61-2.24,1.04-2.11,2.59l.02-.02c-1.07-.45-1.08,.66-1.57,1.07Z"/>
  <path class="cls-12" d="M231.56,70.8c-.15,.49-.05,1.1-.67,1.36,.13-1.04-.68-1.6-1.3-2.09-3.7-2.93-6.53-6.73-9.88-10.01-5.82-5.69-11.74-11.24-18-16.45-3.45-2.88-7.25-5.19-11.08-7.44-1.54-.9-3.32-1.64-5.51-1.71,.62,1.21,1.1,2.21,1.64,3.18,2.51,4.47,5.56,8.63,7.67,13.33,.81,1.8,1.55,3.66,2.59,5.33,3.82,6.2,6.35,12.84,7.33,20.07-.27,0-.55-.01-.82-.02-1.08-5.69-2.82-11.22-5.58-16.25-3.94-7.17-7.19-14.73-11.9-21.48-.83-1.19-1.47-2.53-2.14-3.83-.26-.5-.93-1.03-.48-1.62,.49-.64,1.27-.33,1.91-.12,2.69,.88,5.37,1.7,7.82,3.22,6.56,4.09,12.56,8.86,18.19,14.16,5.36,5.04,10.68,10.1,15.63,15.56,1.48,1.63,3.4,2.86,4.58,4.79Z"/>
  <path class="cls-9" d="M137.64,182.44c-.46-2.37-2.82-1.79-4.25-2.63-1.51-.89-2.94-1.77-3.96-3.18-.35-.49-1.22-1.1-.46-1.74,.58-.49,1.38-1.1,2.3-.35,4.51,3.69,9.54,2.53,14.5,1.4,1.66-.38,2.91-.65,3.78,1.25,.56,1.23,1.75,2,2.95,2.6-.68,1.13-2.24,.24-2.51,1.59-3.63-.13-7.23,.96-10.89,.33-.39-.07-.88,.44-1.32,.69l-.15,.03Z"/>
  <path class="cls-3" d="M267.84,76.7s.08,.1,.08,.1c-.42,1.26,.13,1.89,1.35,2.06,0,0,0,0,0,0-.02,.19-.11,.42-.04,.57,.18,.36,.35-.03,.54-.06,0,0,.03,.04,.03,.04-.37,.15-.47,.4-.28,.75,.18,.34,.45,.43,.79,.27,0,0,0,0,0,0-.3,1.5-.07,1.91,1.1,1.92,.14-.08,.25-.18,.33-.32,.03,.26,.05,.52,.08,.78-.13-.02-.21,.03-.24,.16-1.09,1.79,.46,3.66-.18,5.5-.39,1.12-.4,2.37-.73,3.52-.97,3.34-1.01,3.34-4.52,1.98,1.35-1.72,1.22-3.27,.17-5.27-1.37-2.59-2.71-5.17-4.49-7.48-.89-1.16-.64-1.52,.67-1.84,1.49-.37,2.92-.98,4.39-1.44,.63-.2,1.15-.41,.98-1.21Z"/>
  <path class="cls-15" d="M274.01,74.61c15.18-4.73,30.35-9.48,45.53-14.2,1.96-.61,3.95-1.11,5.92-1.65,.34,1.78-1.22,1.55-2.09,1.82-9.86,3.07-19.75,6.09-29.63,9.11-6.12,1.88-12.25,3.74-18.38,5.61-.32-.5-.87-.54-1.36-.69Z"/>
  <path class="cls-15" d="M324.3,50.78c-.8,.26-1.61,.53-2.41,.79-2.12,.56-4.34,.79-6.24,2l.02-.03c-.58,.03-1.24-.19-1.58,.53h.03c-3.45,.5-6.72,1.55-9.84,3.11l.04-.02c-.79-.19-1.54-.19-2.1,.53l.03-.02c-.58,.02-1.23-.17-1.58,.54l.03-.02c-.59,0-1.23-.15-1.58,.54,0,0,.03-.02,.03-.02-3.66,.34-6.96,1.89-10.36,3.11h.01c-1.17-.07-2.25,.18-3.11,1.04h.02c-1.68,.13-3.32,.42-4.67,1.56,0,0,.01-.02,.01-.02-1.91-.11-3.62,.49-5.17,1.57h.02c-1.33,.06-2.72-.1-3.67,1.16-1.39,.77-3.76-.11-4.09,2.44,0,0-.03,0-.03,0-.32-.13-.63-.26-.95-.38,.87-.75,.17-1.47-.05-2.19,0,0,0,.01,0,.01,.41,.7,.7-.03,1.04-.1,11.03-3.43,22.06-6.86,33.09-10.28,7.02-2.18,14.05-4.34,21.08-6.49,.72-.22,1.45-.63,2.23-.17-.06,.16-.06,.32,0,.47-.15,.06-.23,.17-.23,.33Z"/>
  <path class="cls-15" d="M248.96,80.49c-.29,.17-.58,.34-.88,.51-.44-1.27-.87-2.55-1.31-3.82-.26-.75-.76-.85-1.41-.51,.15-.1,.17-.22,.07-.36,.06-.53,1.07-.36,.78-1.29-1.32,.41-2.76,.36-3.92,1.31l.04-.02c-1.6,.08-3.07,.7-4.55,1.2-.54,.18-.86,.57-.17,1.04-.02,.16,.02,.31,.11,.45-1.82,1.69-1.06,3.68-.64,5.63-.16,0-.32,0-.47,0-2.41-1.41-1.41-3.76-1.42-5.73-.01-2.25,1.47-3.47,3.64-3.42,1.81,.05,3.26-1,4.96-1.2-.17-.31-.34-.62-.51-.92,.23-.54,.69-.67,1.22-.7,1.24,.96,1.92,.94,2.28-.89,.62-3.16,1.87-5.86,4.97-7.63,3.43-1.95,6.49-1.56,9.64,.33,.38,.3,.76,.6,1.14,.89,0,0,.05,.05,.05,.05,.15,.17,.29,.34,.44,.51,0,0,.02,.03,.02,.03,.04,.74-.28,1.14-1.06,1.07-1.75-2.29-5.06-3.72-7.39-2.91-3.56,1.24-5.91,3.66-6.6,7.51-.54,3.05-.16,5.99,.97,8.85Z"/>
  <path class="cls-9" d="M93.48,179.34c.35-.76,.31-1.57,1.79-1.27,3.73,.77,7.5,.33,11.08-.93,1.37-.48,1.99-.27,2.62,.95,.38,.74,.93,1.48,1.59,1.97,1.5,1.11,.6,1.45-.46,1.83-4.35,.96-8.66,.86-12.91-.52-.36-.21-.73-.68-1.06,.03h0c.32-1.01-.37-1.02-1.04-1.05,0,0,0,0,0,0,.16-.48-.19-.64-.51-.82l-.19-.02s-.02-.19-.02-.2c-.28-.34-.56-.34-.83,.01h-.07Z"/>
  <path class="cls-14" d="M111.67,165.71c-7.26,.94-13.76,3.75-19.64,8.07-.25,.18-.65,.16-.98,.24-.02-.32-.05-.65-.07-.97,1.33-.89,2.67-1.78,4.13-2.75-1.44-1-2.37-2.36-4.07-2.45-.15-.95-1.72-.24-1.63-1.26,.09-.94,1.18-.83,1.82-1.16,3.71-1.98,7.46-2.55,11.13,.13,.9,.66,1.79,.35,2.71,.27,2.22-.2,4.32-1.15,6.59-1.04,0,.31,.01,.62,.02,.93Zm-19.31,.57c3.25,3.59,4.63,3.72,8.22,1.09,1.01-.74,.86-1.1-.11-1.58-2.79-1.39-5.44-.91-8.12,.49Z"/>
  <path class="cls-12" d="M182.12,111.68c-1.74,.28-2.96,1.62-4.53,2.26-.65,.26-1.33,1.05-1.95-.04-.57-1.01,.19-1.33,.87-1.73,1.47-.86,2.92-1.75,4.37-2.63,1.69-.3,3.17-.98,4.17-2.46,0,0,0-.1,0-.1,2.1-.12,3.44-1.71,5.1-2.67,1.77-.44,3.15-1.63,4.61-2.61,1.35-.91,2.31-.98,3.16,.49-2.24,1.42-4.48,2.83-6.72,4.25-3.27,1.32-6.19,3.26-9.09,5.23Z"/>
  <path class="cls-14" d="M134.89,163.26c-.14,.73-1.89,1.06-.54,2.16-1.87,0-3.74,.02-5.62,.03-.57-.81-1.09-1.14-1.44,.16v.02c-.46-.14-.92-.27-1.37-.41,.15-.27,.55-.62,.19-.84-2.22-1.34-4.59-2.19-7.18-1.38-.68,.21-2.01,.32-1.47,1.75-.73-.15-1.47-.3-2.2-.45,2.62-3.26,6.14-3.87,10.6-1.39,3.06,1.7,5.95,1.8,9.02,.35Z"/>
  <path class="cls-14" d="M254.71,178.7c0-.32,0-.64,.01-.96,4.15,.21,8.21-.18,12.01-2.04,1.15-.56,2.58-.88,2.81-2.51,.42,.33,.84,.65,1.26,.98-4.53,4.46-10.13,5.16-16.09,4.53Z"/>
  <path class="cls-14" d="M97.2,181.37c4.25,1.38,8.56,1.48,12.91,.52,0,.33,0,.67,0,1-4.78,1.26-9.48,1.36-14.01-.99,.43-.04,.89-.04,1.11-.53Z"/>
  <path class="cls-15" d="M162.77,120.38c-.78,.11-1.1-.09-1.25-.57-.17-.54-.14-1.09,.43-1.32,1.42-.58,2.86-1.14,4.32-1.59,.75-.23,1.36,.24,1.59,.95,.28,.85-.43,.92-1.01,1.11-1.46,.48-2.9,1.01-4.08,1.42Z"/>
  <path class="cls-14" d="M137.78,182.41c.44-.24,.93-.75,1.32-.69,3.66,.63,7.26-.46,10.89-.33,.25,.02,.49,.05,.74,.07-1.81,1.58-4.08,1.42-6.23,1.52-2.25,.1-4.56,.43-6.73-.57Z"/>
  <path class="cls-14" d="M139.46,110.79c.18,.41,.37,.83,.55,1.24,.5,2.32,2.67,2.13,4.25,2.82,1.87,1.81,4.19,.33,6.23,.85-3.23,1-6.4,.53-9.45-.66-1.9-.74-2.82-2.18-1.59-4.25Z"/>
  <path class="cls-14" d="M244.49,72.67c-.52,.03-.99,.16-1.22,.7-2.27-1.73-4.85-2.38-7.67-2.22,0-.32,.01-.63,.02-.95,3.37-.66,6.28,.31,8.87,2.47Z"/>
  <path class="cls-9" d="M91.03,167.85c1.71,.09,2.63,1.44,4.07,2.45-1.46,.97-2.79,1.86-4.13,2.75,.02-1.73,.04-3.47,.06-5.2Z"/>
  <path class="cls-12" d="M274.01,74.61c.49,.16,1.04,.19,1.36,.69,0,0,0,0,0,0-.54,0-1.1-.1-1.53,.37-.96,.36-1.9,.93-2.89,1.04-1.44,.16-1.5,1.14-1.68,2.15-1.23-.17-1.78-.8-1.35-2.06,.58-.81,1.56-.63,2.34-.96,.1,0,.21-.01,.3-.06,1.15-.39,2.31-.78,3.46-1.17Z"/>
  <path class="cls-15" d="M172.97,115.71c-.37,1-1.27,1.27-2.04,1.41-.63,.11-1.08-.64-1-1.23,.14-1.04,1.17-1.2,1.95-1.35,.75-.14,.85,.68,1.1,1.17Z"/>
  <path class="cls-12" d="M271.4,82.34c-1.17-.01-1.4-.42-1.1-1.92,.86-.3,.77,.39,.88,.86,.07,.35,.15,.71,.22,1.06Z"/>
  <path class="cls-11" d="M145.13,4.66c.09-1.03,.19-2.06,.28-3.09,.28,1.23,.51,2.46-.19,3.64-.03-.18-.06-.36-.09-.55Z"/>
  <path class="cls-14" d="M90.99,176.78c-.52-.13-1.12-.12-1.35-.76,.29-.1,.57-.19,.86-.29,.23,.29,.47,.31,.72,.03,.11,0,.21,.05,.27,.14-.17,.29-.33,.59-.5,.88Z"/>
  <path class="cls-14" d="M285.23,162.22c.41,.23,.82,.5,1.25,.04,.07,.41-.04,.76-.39,1-.35-.03-.71-.05-1.06-.08,.07-.32,.13-.64,.2-.96Z"/>
  <path class="cls-4" d="M133.62,4.1c.16-.52,.05-1.27,.97-1.14,.18,.81-.25,1.1-.97,1.14Z"/>
  <path class="cls-15" d="M95.1,180.35c.67,.03,1.36,.04,1.04,1.05-1.07,.37-1.46,.06-1.04-1.05Z"/>
  <path class="cls-14" d="M250.12,177.98c.55-.31,1.06-.36,1.49,.21-.52,.08-1.03,.12-1.49-.21Z"/>
  <path class="cls-14" d="M230.89,181.41c.54-.06,1.08-.16,1.55,.21-.55,.14-1.06,.06-1.55-.21Z"/>
  <path class="cls-11" d="M262.52,65.37c-.38-.3-.76-.6-1.14-.89,.64-.03,1.05,.23,1.14,.89Z"/>
  <path class="cls-15" d="M273.84,75.67c.42-.47,.99-.37,1.53-.37-.44,.42-.95,.54-1.53,.37Z"/>
  <path class="cls-14" d="M145.13,4.66c.03,.18,.06,.36,.09,.55-.23,.09-.47,.18-.7,.26-.18-.1-.35-.2-.53-.3,.03-.18,.05-.37,.08-.55,.35,.01,.71,.02,1.06,.04Z"/>
  <path class="cls-14" d="M271.27,173.69c.19-.54,.61-.63,1.11-.54-.37,.18-.74,.36-1.11,.54Z"/>
  <path class="cls-15" d="M90.99,176.78c.17-.29,.33-.59,.5-.88,.36,.17,1.02,.15,.52,.85-.32,.59-.67,.2-1.02,.03Z"/>
  <path class="cls-15" d="M97.2,181.37c-.22,.49-.67,.49-1.11,.53-.03-.11-.08-.23-.09-.35,0-.05,.09-.1,.13-.15,.33-.71,.7-.24,1.06-.03Z"/>
  <path class="cls-15" d="M271.56,82.96c.03-.13,.11-.19,.24-.16,.35,.37,.52,.8,.44,1.31-.23-.38-.45-.76-.68-1.15Z"/>
  <path class="cls-15" d="M271.4,82.34c-.07-.35-.15-.71-.22-1.06,.18,.25,.36,.49,.55,.74-.08,.14-.19,.25-.33,.32Z"/>
  <path class="cls-12" d="M270.3,80.43c-.35,.16-.61,.07-.79-.27-.19-.35-.09-.6,.28-.75,.79,.03,.99,.35,.52,1.02Z"/>
  <path class="cls-11" d="M263.01,65.94c-.15-.17-.29-.34-.44-.51,.15,.17,.29,.34,.44,.51Z"/>
  <path class="cls-14" d="M218.06,2.06c.06,.1,.14,.2,.19,.31,.01,.03-.07,.1-.1,.16-.12-.14-.14-.29-.08-.47Z"/>
  <path class="cls-13" d="M233.05,70.86c-.2,.08-.4,.17-.59,.25,.2-.08,.4-.17,.59-.25Z"/>
  <path class="cls-13" d="M232.46,71.1c-.17,.42-.31,.37-.44-.03,.15-.05,.29-.04,.44,.03Z"/>
  <path class="cls-14" d="M217.76,4.67c.2,.16,.4,.31,.6,.47-.2-.16-.4-.31-.6-.47Z"/>
  <path class="cls-11" d="M143.98,5.17c.18,.1,.35,.2,.53,.3-.37,.25-.52,.1-.53-.3Z"/>
  <path class="cls-5" d="M324.53,50.45c-.06-.16-.06-.32,0-.47,.07,.12,.15,.23,.2,.35,0,0-.13,.08-.2,.12Z"/>
  <path class="cls-12" d="M269.75,79.37c-.18,.02-.35,.42-.54,.06-.07-.15,.02-.38,.04-.57,.52-.17,.69,0,.49,.51Z"/>
  <path class="cls-14" d="M239.79,181.59c.21-.04,.43-.09,.64-.13-.21,.04-.43,.09-.64,.13Z"/>
  <path class="cls-14" d="M219.75,4.11c-.05-.12-.12-.24-.15-.36,0-.03,.1-.09,.16-.14,0,.17,0,.33,0,.5Z"/>
  <path class="cls-14" d="M94.59,179.53c.32,.18,.67,.35,.51,.82-.21,0-.5,.07-.63-.04-.35-.28-.09-.54,.12-.78Z"/>
  <path class="cls-14" d="M94.54,179.57c.11,.3,.21,.64-.16,.79-.46,.18-.66-.21-.87-.53,.34-.09,.69-.17,1.03-.26Z"/>
  <path class="cls-15" d="M94.54,179.57c-.34,.09-.69,.17-1.03,.26-.03-.11-.09-.23-.09-.34,0-.05,.09-.1,.13-.16,.27-.35,.54-.36,.83-.01,.11,.05,.16,.14,.16,.25Z"/>
  <path class="cls-14" d="M252.42,178.37c.24,.05,.47,.1,.71,.16-.24-.05-.47-.1-.71-.16Z"/>
  <path class="cls-14" d="M218.58,5.25c.29-.03,.58-.05,.88-.08-.27,.31-.56,.31-.88,.08Z"/>
  <path class="cls-15" d="M91.21,175.76c-.25,.27-.49,.25-.72-.03,.18-.08,.35-.15,.53-.23,.07,.09,.13,.17,.2,.26Z"/>
  <path class="cls-3" d="M252.76,155.01c-.25,2.31-.61,4.32-2.87,5.91-1.76,1.23-1.75,1.11-2.8-.65-3.88-6.5-5.87-13.65-7.93-20.8-.1-.36-.2-.73-.3-1.09-.09-.63-.09-1.28-.57-1.78-.42-2.11-1.41-3.93-2.46-5.8-3.59-6.38-2.94-13.1-.87-19.74,.52-1.68,1.52-.43,1.99,.4,1.61,2.83,3.21,5.67,4.39,8.74,3.18,8.29,7.29,16.21,9.39,24.92,.29,1.22,.93,2.49,1.34,3.77-.11,.15-.08,.27,.09,.36,.06,.5,.12,1,.18,1.5,.14,1.42,.29,2.84,.43,4.26Z"/>
  <path class="cls-3" d="M208.75,164.33c-6.88-4-8.53-11.09-10.76-17.93-1.25-3.81-1.68-7.75-2.67-11.59-.05-2.23-.12-4.47-.13-6.7-.01-4.75,2.36-8.45,5.31-11.86,.88-1.01,2.08-1.41,3.57-1.36-1.38,5-1.73,10.15,.28,14.78,2.61,6.04,2.81,12.62,5.05,18.7,.5,1.36,.12,3.06,.1,4.6-.03,3.02,.06,6,1.15,8.89,.63,1.66,.12,2.71-1.9,2.47Z"/>
  <path class="cls-3" d="M235.6,71.15c2.82-.16,5.4,.49,7.67,2.22,.17,.31,.34,.61,.51,.92-1.7,.2-3.15,1.25-4.96,1.2-2.17-.06-3.65,1.17-3.64,3.42,.01,1.97-.99,4.32,1.42,5.73,1.36,6.2,3.58,12.13,5.46,18.17,.86,2.76,2.27,5.35,2.55,8.29,.29,3.05,0,5.97-2.08,8.72-.65-1.35-1.22-2.63-1.86-3.87-1.5-2.87-2.85-5.79-5.11-8.24-1.8-1.95-2.9-4.46-3.72-7.01-1.51-4.68-4.05-9.02-4.64-14.01,.16-3.42-.21-6.81,1.76-10.07,1.66-2.75,3.61-4.64,6.64-5.48Z"/>
  <path class="cls-3" d="M198.4,100.15c.16-3.12-1.93-5.85-1.49-9.02,.58-4.15,1.54-8.23,5.73-10.16,4.05-1.87,7.45-.08,10.63,2.94-2.42,.37-4.37,1.6-6.76,1.62-1.89,.02-2.72,3.44-1.68,6.13,2.55,6.62,5.63,13.05,7.43,19.96,.17,.66,.25,1.38,1.08,1.6,.72,4.33,2.15,8.55,1.81,13.1-5.26-7.45-11.86-13.89-15.31-22.5-.35-1.27-.65-2.56-1.44-3.66Z"/>
  <path class="cls-3" d="M233.18,164.69c-2.6-2.55-2.78-6.18-4.17-9.27-1.73-3.85-2.4-7.94-3.04-12.06-.1-.66,.19-1.97-1.32-1.62,.02-.2,.05-.41,.07-.61,.84,.4,1.04-.14,1.06-.79,.03-1.16,0-2.32,0-3.47,0-.39-.01-.78-.02-1.17,.82-3.94,.67-7.98,1.08-11.96,.56-5.47,1.51-10.81,4.57-15.51,.42-.64,.67-2.22,1.88-1.55,.99,.55,1.13,1.83,.72,3.03-1.03,3.02-1.51,6.16-1.8,9.33-.22,2.42-.31,4.93,.58,7.14,1.5,3.73,1.51,7.52,1.4,11.39-.2,7.57,.12,15.13,.63,22.69,.08,1.19,.25,2.41-.28,3.56-.11,.17-.21,.33-.32,.5-.12,.05-.19,.14-.21,.27-.29,.04-.58,.08-.87,.11Z"/>
  <path class="cls-3" d="M215.54,146.67c-.76-1.82-1.88-3.39-3.1-4.95-3.52-4.48-5.93-9.67-7.61-15.01-1.02-3.24-1.07-7.04,1.26-10.4,4.94,6.72,9.39,13.58,13.39,20.76,1.94,3.48,4.7,6.52,5.61,10.55,.89,3.93,.56,7.69-1.71,11.15-.78,1.19-1.28,1.35-2.05-.15-.97-1.88-2-3.71-2.74-5.7-.69-2.24-1.59-4.37-3.05-6.24Z"/>
  <path class="cls-3" d="M251.61,100.18c.13,.1,.36,.31,.37,.3,2.79-2.93,5.42-2.66,7.6,.79,.36,.57,.23,1.02-.37,1.21-1.69,.53-2.9,1.81-4.32,2.74-1.43,.94-1.75,.4-1.71-1.03,.03-1.08-.01-2.19-.89-3.11-.85,.84-.44,1.69-.33,2.47,.74,5.3-.36,10.38-1.96,15.36-.69,2.15-2.73,3.22-4.55,4.36-.74,.46-1.37,.01-1.83-.44-.46-.45-.31-1.03,.06-1.62,3.47-5.57,2.74-11.53,.5-17.06-1.81-4.45-3.27-8.97-4.67-13.53-1.18-3.83-1.13-3.85,2.74-4.98,3.79-1.1,3.85-1.13,5.33,2.64,1.13,2.87,2.05,5.83,3.07,8.74,.03,1.14-.49,2.45,.96,3.15Z"/>
  <path class="cls-3" d="M213.96,112.03c-.17-3.41-2.73-6.15-2.67-9.63,.01-.83-.43-1.66,.02-2.48q-.05-4.62,3.12-5.49c1.94-1.3,2.86-.86,3.41,1.51,1.1,4.72,2.51,9.36,3.78,14.03,.67,4.99,1.91,9.89,.88,15.04-.52,2.58-2.12,4.18-3.66,5.95-.5,.57-1.21,.7-1.64-.19-.47-.99-1.07-1.91-.93-3.14,.6-5.4-.82-10.51-2.32-15.61Z"/>
  <path class="cls-3" d="M261.97,67.04c-.12,1.59-1.49,1.89-2.56,2.49-3.95,.27-4.52,1.17-3.11,5.07,.78,2.16,1.78,4.14,3.37,5.92,2.46,2.74,4.61,5.74,5.63,9.4,.32,1.15,.46,2.43-.37,3.15-.96,.84-1.82-.41-2.65-.86-5.34-2.88-9.63-6.96-13.32-11.73-1.13-2.86-1.52-5.8-.97-8.85,.68-3.85,3.04-6.27,6.6-7.51,2.33-.81,5.64,.62,7.39,2.91Z"/>
  <path class="cls-9" d="M235.22,165.95c2.86-.25,5.24-2.01,8.05-2.49,2.96-.5,5.58,.16,8.1,1.62,.98,.57,.96,1.03,0,1.64-3.59,2.28-7.28,4.39-10.53,7.18-1.18,1.01-2.71,1.5-4.27,1.63-4.81,.4-9.36-.59-14.16-2.88,2.75-1.34,5.15-2.51,7.54-3.68,1.02-.45,2.12-.79,2.68-1.89l.03-.03c.82,.22,1.34-.35,1.92-.75,.2-.12,.41-.23,.61-.35h.02Z"/>
  <path class="cls-9" d="M228.85,168.35c-3.27,1.02-6.17,2.84-9.39,4.05-4.74,1.78-9.54,2.01-14.43,1.82-2.97-.11-5.93-.56-9.41-.91,4.95-3.31,9.29-6.41,14.69-7.45,4.41-.36,8.81-1.21,13.26-.47,.57,.16,1.14,.33,1.71,.49,1.23,.77,2.76,1.09,3.57,2.47Z"/>
  <path class="cls-9" d="M280.36,107.28c-4.78-2.43-9.93-3.2-15.05-4.08-3.8-.66-9.57-6.5-10.31-10.3-.2-1.02-.41-2.3,.41-2.94,.97-.75,1.53,.62,2.28,1.04,3.93,2.26,7.72,4.7,12.33,5.59,6.09,1.17,10.04,5.38,10.34,10.7Z"/>
  <path class="cls-2" d="M270.81,105.72c8.05,1,13.64,5.02,16.61,12.49,.78,1.96,1.06,3.98,.19,6.03-.42,.99-.83,1.18-1.58,.24-3.55-4.43-8.39-7.49-12.24-11.61-1.89-2.02-2.95-4.31-2.97-7.15Z"/>
  <path class="cls-9" d="M252.65,172.33c-2.43,.18-4.86,.4-7.87,.12,6.34-4.24,12.26-8.18,17.68-12.81,.64-.2,1.3-.37,1.92-.62,1.38-.55,3.41-1.18,4.08-.26,.86,1.19-.86,2.67-1.41,4.04-.17,.42-.83,.63-1,1.05-2.48,6-7.36,8.15-13.41,8.47Z"/>
  <path class="cls-1" d="M264.51,169.53c-.2-.46-.03-.86,.26-1.17,3.76-3.99,5.37-9.2,7.89-13.89,1.14-2.12,3.25-3.18,5.06-4.51,1.46-1.08,1.54,.59,1.54,1.33-.03,3.17-.38,6.31-1.59,9.29-.28,.7-.52,1.42-.78,2.13-3.38,3.62-7.36,6.16-12.37,6.84Z"/>
  <path class="cls-2" d="M286.8,144.99c-.64-3.53-1.93-6.85-3.18-10.19-.45-1.91-1.14-3.7-2.47-5.19-.11-.35-.22-.69-.32-1.04-.05-.24-.1-.48-.15-.73,.01-.61,.03-1.22,.04-1.82,.1-.7,.19-1.39,.29-2.09,.34-.63-.15-1.72,.89-1.92,.82-.15,1.07,.74,1.53,1.21,3.05,3.11,4.38,7.14,5.92,11.07,0,.52,.29,.92,.48,1.38,1.54,3.77,1.85,8.87-2.29,11.49-.24-.72-.48-1.44-.73-2.16Z"/>
  <path class="cls-9" d="M285.21,103.5c.12,1.42-.31,2.58-.76,3.67-.28,.69-.02,2.11-1.15,1.94-.96-.14-1.53-1.14-1.69-2.29-.54-3.86-2.45-6.94-5.7-9.08-1.19-.79-2.6-1.28-3.94-1.8-1.02-.39-1.31-.84-.76-1.9,.43-.82,.58-1.78,.84-2.69,.81-2.87,.95-2.99,3.48-1.09,3.68,2.76,7.31,5.64,9.07,10.14,.41,1.04,.71,2.12,.61,3.08Z"/>
  <path class="cls-2" d="M293.61,119.87c.42,3.29-.76,5.95-3.3,7.96-.48,.38-1.22,1.21-1.98,.6-.7-.57-.9-1.42-.38-2.33,2.74-4.7,.77-8.77-1.8-12.7-1.33-2.03-1.36-5.39,.05-7.26,.8-1.06,1.33-.07,1.86,.3,3.55,2.41,4.81,6.06,5.33,10.09,.14,1.11,.15,2.23,.21,3.35Z"/>
  <path class="cls-2" d="M281,159.11c-.51,.04-1.82,1.4-1.29-.41,1.62-5.45,.59-10.86,.21-16.29-.13-1.94,.28-3.57,2-4.66,.82-.52,1.41-.66,1.77,.63,.77,2.8,1.72,5.54,2.6,8.31,1.11,5.37-.32,9.66-5.3,12.42Z"/>
  <path class="cls-3" d="M184.91,113.65c.35-3.43,2.81-4.57,5.68-5.26,1.42,3.57,2.77,7.18,5.05,10.33,.36,.5-1.05,6.56-1.56,6.73-.76,.25-1.25-.34-1.79-.76-3.68-2.86-6.19-6.51-7.39-11.04Z"/>
  <path class="cls-2" d="M290.83,134.29c-.11-.38-.22-.75-.33-1.13,.06-.18,.02-.32-.14-.43-1.5-1.68-1.3-2.9,.73-4.09,1.39-.82,2.25-2.33,3.34-4.19,3.08,7.22,3.44,13.92,.01,20.66-3.4,3.21-3.88,3.49-6.58,3.88,5.39-4.11,4.58-9.33,2.97-14.7Z"/>
  <path class="cls-3" d="M217.49,152.93c-.43,2.97-.87,5.94-1.3,8.91-.14,.97,.13,2.2-1.4,2.33-1.33,.12-2.05-.73-2.53-1.75-.44-.93-.86-1.92-1-2.92-.73-5.21-.68-10.41,.37-15.61,2.09,.61,2.32,2.53,3.33,3.8,.85,1.75,1.69,3.5,2.54,5.24Z"/>
  <path class="cls-3" d="M237.67,141.01c1.08,.08,1.01,1,1.21,1.7,1.3,4.44,2.48,8.91,4.17,13.23,1.1,2.81-3.37,8.14-6.35,7.71-.05-1.33-.09-2.67-.14-4-.03-.86-.06-1.73-.09-2.59,0-.69,0-1.37,0-2.06,.03-.86,.07-1.73,.1-2.59,.06-3.83,.52-7.61,1.08-11.39Z"/>
  <path class="cls-9" d="M269.53,173.19c-.23,1.63-1.67,1.95-2.81,2.51-3.79,1.86-7.85,2.25-12.01,2.04-3.23-.65-6.55-1.05-9.26-3.71,2.86-.64,5.7-.04,8.35-.87,.26,.01,.54,.1,.76,.02,4.99-1.86,9.97-1.31,14.96,0Z"/>
  <path class="cls-1" d="M285.23,162.22c-.07,.32-.13,.64-.2,.96-2.84,4.19-7.11,6.41-11.56,8.39-2.73,1.21-5.38-.32-8.08-.2,0-1.52,1.35-.94,2.06-1.21,3.87-1.53,7.87-2.83,9.98-6.9,.35-.37,.69-.74,1.04-1.11,.17-.02,.35-.05,.52-.07,1.38,.18,2.76,.3,4.14,.06,.53,.18,1.02,.05,1.49-.2,.2,.09,.4,.19,.6,.28Z"/>
  <path class="cls-2" d="M282.64,160.87c-.37,.02-.74,.03-1.11,.05-.16-.03-.33-.06-.49-.08,.2-.36,.4-.71,.59-1.07,3.62-1.23,5.17-4.22,6.07-7.57,.31-1.16,.78-1.87,1.79-2.19,2.02-.64,3.54-1.95,4.97-3.42,1.2,1.28,.13,2.57-.16,3.73-1.32,5.19-4.82,8.48-9.65,10.48-.67,.02-1.34,.04-2.01,.06Z"/>
  <path class="cls-6" d="M237.08,84.62c-.42-1.95-1.18-3.93,.64-5.63,2.69-.31,5.12-1.45,7.64-2.33,.66-.34,1.15-.24,1.41,.51,.44,1.27,.87,2.55,1.31,3.82-.22,.54,1.16,1.24-.09,1.62-3.23,.99-6.47,1.91-9.73,2.81-.58,.16-.84-.46-1.19-.81Zm1.92-.85c2.2-.89,4.83-1.92,7.43-3.02,.34-.14,.74-.55,.4-1.04-.27-.4-.49-.85-1.21-.58-2.4,.92-4.84,1.74-7.25,2.63-.68,.25-.84,.81-.68,1.48,.11,.46,.31,.8,1.31,.54Z"/>
  <path class="cls-12" d="M294.46,146.59c-1.43,1.47-2.95,2.78-4.97,3.42-1.01,.32-1.48,1.02-1.79,2.19-.9,3.35-2.45,6.34-6.07,7.57-.21-.22-.42-.44-.63-.66,4.98-2.76,6.41-7.05,5.3-12.42,.58-.44,.39-1.11,.5-1.69,.24,.72,.48,1.44,.73,2.16,4.15-2.62,3.83-7.71,2.29-11.49-.19-.46-.48-.86-.48-1.38,.5,0,.99,0,1.49,0,1.61,5.37,2.41,10.59-2.97,14.7,2.71-.39,3.18-.67,6.58-3.88,0,.49,.02,.99,.03,1.48Z"/>
  <path class="cls-7" d="M230.27,167.25c-1.78-1.29-3.72-2.14-5.71-2.86-.08-.03-.16-.05-.25-.06-.95-.09-1.08-.61-.85-1.44,.64-2.33,1.83-4.36,3.93-5.49,.82-.44,1.37,.78,1.67,1.73,.82,2.57,2.43,4.97,1.22,8.12Z"/>
  <path class="cls-3" d="M249.08,135.98c-1.4-3.62-2.59-6.88-3.93-10.08-.57-1.37,.53-1.4,1.17-1.78,3.8-2.25,3.97-2.19,4.21,2.32,.17,3.11,.19,6.24-1.46,9.55Z"/>
  <path class="cls-14" d="M225.28,90.79c-1.61,.78-3.27,1.4-5.05,1.67-1.51,.23-1.88,.97-1.45,2.51,1.4,4.97,3.58,9.73,3.97,14.97-.37,0-.75,.02-1.12,.03-1.28-4.67-2.68-9.32-3.78-14.03-.55-2.37-1.48-2.81-3.41-1.51,.07-1.19,1.04-1.41,1.89-1.77,2.89-1.25,5.96-1.9,8.96-2.79,0,.31,0,.62,0,.93Z"/>
  <path class="cls-6" d="M225.29,89.86c-3,.9-6.07,1.55-8.96,2.79-.85,.37-1.81,.59-1.89,1.77q-3.18,.87-3.12,5.49c-.38-1.24-.75-2.48-1.14-3.76-1.01,.52-.67,1.19-.56,1.85,.11,.66,.09,1.34,.16,2.67-1.33-2.35-1.99-4.27-2.49-6.26,.31-.17,.63-.33,.94-.5,.18,.79-.23,2.26,1.46,1.3,4.85-2.74,9.77-5.32,15.11-7.03,1.4-.45,1.63-1.45-.04-2.13,.54-.32,1.09-.64,1.63-.96,.66,.36,.4,1.05,.55,1.59-.2,1.24-.14,2.61-1.65,3.17Z"/>
  <path class="cls-2" d="M279.77,126.05c-.18,1.12-.63,1.17-1.53,.54-2.2-1.54-3.39-5.98-2.25-8.44,.41-.88,.85-.59,1.4-.25,2.29,1.4,3.3,3.36,2.62,6.05-.08,.7-.16,1.4-.24,2.1Z"/>
  <path class="cls-3" d="M228.74,110.34c-1.39,1.78-1.81,3.83-1.94,5.91-.09,1.32-.77,1.9-1.88,1.98-1.42,.11-.92-1.11-1.08-1.85-.05-.25-.04-.51-.07-.77-.63-4.97-.47-5.14,4.97-5.27Z"/>
  <path class="cls-9" d="M270.73,111.42c-3.07-1.26-5.55-2.45-6.18-5.66-.12-.6-.35-1.15,.52-1.4,1.7-.49,4.17,1.01,4.45,2.71,.11,.67,.33,1.32,.51,1.97,.18,.64,.37,1.27,.69,2.38Z"/>
  <path class="cls-1" d="M270.48,153.05c.69,.1,1.66,.23,1.04,1.16-.7,1.04-.62,2.86-2.47,2.92-1.36,.04-2.74-.18-4.06,.32-.15,.05-.31,.11-.46,.17-.48,.01-1.01,.13-1.18-.54,1.48-2.93,4.46-3.21,7.13-4.02Z"/>
  <path class="cls-14" d="M277.43,163.26c-2.11,4.07-6.11,5.37-9.98,6.9-.7,.28-2.05-.31-2.06,1.21-1.27-.14-.77-1.14-.89-1.84,5.01-.67,8.99-3.21,12.37-6.84,.19,.19,.37,.38,.56,.57Z"/>
  <path class="cls-3" d="M221.7,130.35c.51,2.73,1,5.17,.51,7.85-5.24-5.98-3.93-5.24-.51-7.85Z"/>
  <path class="cls-2" d="M275.41,149.42c.6-2.56,.71-4.88,2.97-6.27,1.36,3.86,1.21,4.22-2.97,6.27Z"/>
  <path class="cls-7" d="M220.27,161.16c1.39,.36,1.71,1.75,1.25,2.51-.64,1.08-2.01,.01-3.07,.13-1.17,.12-1.1-.8-1.06-1.56,.09-1.51-.04-3.06,.69-4.61,1,.57,1.39,1.46,1.67,2.43-1.5-.09-1.92,.71-1.77,2.06,.07,.69,.31,1.16,1.07,1.14,1.52-.04,.94-1.32,1.21-2.1Z"/>
  <path class="cls-3" d="M209.84,145.54c-.71-2.89-1.35-5.51-2.17-8.83,2.17,2.97,4.18,5.21,2.17,8.83Z"/>
  <path class="cls-14" d="M270.48,153.05c-2.67,.81-5.65,1.09-7.13,4.02-.37,0-.74,.01-1.11,.02,1.08-3.37,3.71-4.49,6.92-4.74,.28,.53,.83,.56,1.32,.7Z"/>
  <path class="cls-2" d="M282.7,135.32c-1.53,1.79-2.49,1.17-3.06-.76-.45-1.54-.85-3.11,.4-4.52,1.1,1.66,.93,3.95,2.67,5.28Z"/>
  <path class="cls-14" d="M282.7,135.32c-1.74-1.33-1.57-3.63-2.67-5.28,.37-.14,.74-.28,1.11-.42,1.33,1.49,2.02,3.28,2.47,5.19-.3,.17-.61,.34-.91,.51Z"/>
  <path class="cls-15" d="M217.49,152.93c-.85-1.75-1.69-3.5-2.54-5.24,.01-.45,.17-.81,.59-1.02,1.46,1.86,2.35,4,3.05,6.24-.37,0-.73,.02-1.1,.03Z"/>
  <path class="cls-14" d="M252.76,155.01c-.14-1.42-.29-2.84-.43-4.26,.69-1.29,.13-2.67,.31-4,.87,2.68,1.27,5.42,1.03,8.25-.3,0-.61,.01-.91,.02Z"/>
  <path class="cls-7" d="M220.27,161.16c-.27,.78,.31,2.06-1.21,2.1-.76,.02-.99-.45-1.07-1.14-.15-1.35,.27-2.16,1.77-2.06,.17,.37,.34,.73,.51,1.1Z"/>
  <path class="cls-15" d="M199.44,105.34c-.78-.89-.78-2-.83-3.09-.06-.71-.12-1.41-.18-2.12,0,0-.03,.02-.03,.02,.79,1.1,1.09,2.39,1.44,3.66-.49,.42-.34,1-.39,1.53Z"/>
  <path class="cls-15" d="M252.11,97.04c.13,.11,.2,.26,.21,.43-1.11,.68-.55,1.79-.7,2.72-1.45-.71-.92-2.01-.96-3.15,.49,0,.97,0,1.46,0Z"/>
  <path class="cls-15" d="M236.48,157.05c.03,.86,.06,1.73,.09,2.59-1.46-.82-1.39-1.69-.09-2.59Z"/>
  <path class="cls-15" d="M236.59,152.4c-.03,.86-.06,1.73-.1,2.59-1.4-.92-1.45-1.79,.1-2.59Z"/>
  <path class="cls-14" d="M224.88,136.89c.04-.88-.47-1.87,.49-2.57,.58,.33,.51,.85,.4,1.38,0,.39,.01,.78,.02,1.17-.3,0-.6,.01-.9,.02Z"/>
  <path class="cls-14" d="M279.77,126.05c.08-.7,.16-1.4,.24-2.1,.33,0,.66,0,.98-.01-.1,.7-.19,1.39-.29,2.09-.31,0-.62,.02-.93,.02Z"/>
  <path class="cls-15" d="M282.64,160.87c.67-.02,1.34-.04,2.01-.06-.65,.56-1.32,.53-2.01,.06Z"/>
  <path class="cls-15" d="M225.28,165.88c-.57-.16-1.14-.33-1.71-.49,.63-.05,1.28-.18,1.71,.49Z"/>
  <path class="cls-14" d="M252.14,144.63c.33,.46,.49,.97,.37,1.54-.5-.42-.43-.98-.37-1.54Z"/>
  <path class="cls-15" d="M232.62,167.08c-.28-.19-.83-.08-.75-.67,0-.06,.1-.15,.16-.16,.59-.04,.46,.49,.62,.8,0,0-.03,.03-.03,.03Z"/>
  <path class="cls-14" d="M284.62,161.95c-.47,.25-.96,.38-1.49,.2,.44-.52,.95-.51,1.49-.2Z"/>
  <path class="cls-15" d="M238.28,136.6c.49,.5,.48,1.15,.57,1.78-.85-.38-.6-1.11-.57-1.78Z"/>
  <path class="cls-15" d="M233.18,164.69c.29-.04,.58-.08,.87-.11-.29,.04-.58,.08-.87,.11Z"/>
  <path class="cls-14" d="M280.67,127.85c.05,.24,.1,.48,.15,.73-.05-.24-.1-.48-.15-.73Z"/>
  <path class="cls-15" d="M290.36,132.73c.16,.11,.2,.25,.14,.43-.09-.13-.14-.27-.14-.43Z"/>
  <path class="cls-15" d="M235.19,165.95c-.2,.12-.41,.23-.61,.35,.2-.12,.41-.23,.61-.35Z"/>
  <path class="cls-14" d="M252.15,149.24c-.17-.09-.2-.21-.09-.36,.07,.11,.1,.23,.09,.36Z"/>
  <path class="cls-15" d="M234.25,164.31c.11-.17,.21-.33,.32-.5-.11,.17-.21,.33-.32,.5Z"/>
  <path class="cls-14" d="M278.99,162.09c-.17,.02-.35,.05-.52,.07,.14-.25,.31-.32,.52-.07Z"/>
  <path class="cls-15" d="M281.04,160.83c.16,.03,.33,.06,.49,.08-.16-.03-.33-.06-.49-.08Z"/>
  <path class="cls-14" d="M264.53,157.62c.15-.05,.31-.11,.46-.17-.06,.3-.19,.45-.46,.17Z"/>
  <path class="cls-9" d="M184.84,166.61c-4.53,1.42-7.8,4.86-12.03,6.54-6.25,2.49-12.47,2.78-18.79,.43,.03-.29-.01-.55,.06-.59,7.1-3.95,14.08-8.25,22.53-8.68,2.95-.15,5.73,.34,8.22,2.3Z"/>
  <path class="cls-9" d="M162.33,167.29c-6.89,3.22-12.69,7.2-19.71,8.18-3.05,.43-6.14,.7-9.06-.73-.52-.26-1.23-.45-1.2-1.18,.03-.6,.69-.68,1.13-.88,5.13-2.32,10.13-5.04,15.45-6.82,4.23-1.42,8.62-.12,13.39,1.43Z"/>
  <path class="cls-9" d="M176.04,173.32c7.72-5.8,19.25-10.87,27.48-6.84-8.89,7.48-20.3,10.91-27.48,6.84Z"/>
  <path class="cls-9" d="M128.73,165.45c1.87,0,3.74-.02,5.62-.03,1.82,.43,3.78,.35,5.36,1.59,.54,.42,1.3,.89,.1,1.42-7.21,3.19-14.02,7.76-22.51,6.66-1.27-.16-2.54-.25-3.71-1.05,4.14-3.61,8.73-6.32,13.7-8.41,0,0,0-.02,0-.02,.48-.05,.96-.1,1.44-.16Z"/>
  <path class="cls-9" d="M174.84,180.11c-6.94,3.59-13.8,3.56-20.53-.42-1.16-.69-2.24-1.55-3.22-2.47-.65-.61-1.68-1.49-1.18-2.34,.59-.99,1.85-1.09,3.01-.55,2.83,1.34,5.85,1.87,8.96,1.99,2.41,.09,4.82-.02,7.14-.65,1.24-.34,1.85-.08,2.44,1.02,.78,1.44,1.96,2.57,3.39,3.42Z"/>
  <path class="cls-9" d="M132.05,180.71c-7.03,2.67-13.66,3.51-20.05-.93-.28-.19-.58-.4-.79-.66-.77-.97-2.23-1.9-1.59-3.21,.76-1.55,2.39-.92,3.68-.51,3.77,1.21,7.57,1.27,11.4,.43,1.24-.27,2.12-.18,3.03,1.06,1.03,1.39,2.62,2.37,4.32,3.82Z"/>
  <path class="cls-9" d="M198.58,178.87c-5.8,1.84-11.34,2.87-17.12,2.02-3.02-.45-5.75-1.59-8.05-3.56-.68-.58-1.87-1.52-1.13-2.51,.73-.98,2.03-1.05,3.26-.33,1.41,.83,2.99,1.23,4.61,1.52,2.59,.46,5.2,.39,7.65-.36,2.58-.79,4.66-.18,6.78,1.15,1.19,.74,2.49,1.3,4,2.08Z"/>
  <path class="cls-9" d="M221.9,177.95c-10.88,4.82-20.91,1.88-28.72-3.69,1.97-.42,3.67,.33,5.36,.54,5.82,.74,11.62,.95,17.42-.06,.99-.17,1.61,.29,2.32,.79,1.09,.77,2.22,1.49,3.62,2.41Z"/>
  <path class="cls-9" d="M219.06,174.29c1.36-1.08,2.68-.67,4.07-.03,3.97,1.81,8.14,2.62,12.5,2.45,1.64-.06,3.42-.21,4.66-1.23,2.08-1.69,3.7-.91,5.44,.37,.61,.45,1.29,.8,1.97,1.21-7.19,6.07-21.24,4.45-28.65-2.77Z"/>
  <path class="cls-9" d="M155.78,164.35c3.82-3.92,9.92-3.8,12.38,.03-4.12,3.91-8.12,.49-12.38-.03Z"/>
  <path class="cls-9" d="M178.31,163.02c3.96-2.89,8.81-2.96,12.08-.34,.47,.37,1.07,.79,.99,1.42-.07,.54-.76,.58-1.24,.79-2.12,.9-4.05,1.27-6.14-.4-1.47-1.18-3.57-1.04-5.69-1.46Z"/>
  <path class="cls-9" d="M147.8,164.6c-1.47,1.41-3.39,1.88-5.18,2.6-.58,.24-.98,0-1.36-.39-1.3-1.34-2.99-1.9-4.79-2.3,2.61-2.62,8.21-2.57,11.33,.09Z"/>
  <path class="cls-7" d="M204.57,164.8c-2.58-.12-5.11-.49-7.53-1.08-.25-1.03,.6-1.07,.95-1.5,.98-1.22,2.27-3.63,3.24-3.04,1.76,1.09,3.46,3,3.36,5.59l-.02,.02Z"/>
  <path class="cls-9" d="M258.2,161.29c-1.26,1.05-2.63,2.18-3.98,3.33-.82,.69-1.37,.07-2.02-.33-2.59-1.63-2.6-1.62,.03-3.25,1.5-.93,3.04-1.56,4.84-.88,.47,.18,.99,.26,1.14,1.14Z"/>
  <path class="cls-9" d="M117.47,164.75c-.55-1.43,.79-1.54,1.47-1.75,2.59-.81,4.97,.04,7.18,1.38,.36,.22-.04,.57-.19,.84-2.95,2.11-5.62-.56-8.46-.47Z"/>
  <path class="cls-3" d="M154.71,109.73c4.27-1.49,6.78-4.85,8.51-8.7,1.78-3.97,4.29-7.14,7.94-9.46,3.61-2.29,10.53-2.21,13.23,1.52-2.67,.42-4.85,1.9-7.66,1.66-1.53-.13-3.09,.84-3.99,2.37-1.31,2.22-2.73,4.38-3.91,6.67-1.12,2.17-2.73,3.92-4.39,5.62-2.63,2.68-6.79,2.74-9.74,.33Z"/>
  <path class="cls-6" d="M195.79,92.95c0,.26-.02,.52,0,.77,.41,5.08,.46,5.27-4.42,6.57-7.16,1.92-14.21,4.39-22.07,4.95,1.64-2.19,1.95-4.87,4.3-6.23,3.09-.57,6.08-1.48,8.87-2.95,0,0-.05-.03-.05-.03,3.99-.58,7.89-1.44,11.37-3.63l.03,.05c.61,.35,1.45-.26,1.97,.49Z"/>
  <path class="cls-6" d="M144.26,114.85c-1.58-.69-3.75-.5-4.25-2.82,1.69-3.86,5.51-4.89,8.81-6.61,0,.29-.01,.57-.02,.86-1.73,.79-3.26,1.86-4.77,3.03-.96,.74-1.92,1.46-1.26,2.68,.6,1.12,1.83,1.02,3.35,.82-3.24-1.18-1.75-2.39-.44-3.39,1.7-1.31,3.58-2.34,5.6-3.11,.97-.37,2.24-.25,2.76-1.48h-.01c.65,.21,1.33,.47,1.09-.7-.09-.19-.18-.39-.27-.58,1.75-1.38,3.46-.54,5.38,.3-2.05,1.68-3.21,4.45-6.43,4.61-.57,.03-1.12,.38-1.67,.62-1.33,.6-2.12,1.2-.34,2.37,.8,.52,1.65,1.21,1.94,2.41-2.53,.92-5.13,1.09-7.74,1.2-.35-.19-.71-.27-1.06,0-.22-.07-.44-.14-.67-.21Z"/>
  <path class="cls-6" d="M226.39,85.1c-.54,.32-1.09,.64-1.63,.96-5.8,2.01-11.33,4.6-16.53,7.86-.31,.17-.63,.33-.94,.5-.33-1.31-.69-2.61-.99-3.92-.18-.81-.09-1.54,.88-1.8,3.8-1.39,7.97-1.7,11.46-4l-.05-.04c1.54,.31,2.89-.14,4.13-1.04h0c1.16,.36,2.06-.56,3.13-.63,0,0,.06,.04,.06,.04,.05,.43,.11,.85,.16,1.28,.11,.26,.22,.53,.33,.79Z"/>
  <path class="cls-3" d="M185.07,107.09c-.79-.44-1.42,.3-2.15,.28-.07-1.14-1.6-2.89,.2-3.26,1.75-.36,3.58-2.81,5.59-.46-.9,1.46-3.13,1.45-3.64,3.33v.1Z"/>
  <path class="cls-12" d="M218.63,84.7c-3.48,2.3-7.66,2.6-11.46,4,.28-.62-1.07-1.8,.66-1.91,2.7,.86,4.82-.77,7.11-1.68h-.02c1.29,.35,2.41-.84,3.71-.4Z"/>
  <path class="cls-6" d="M218.63,84.7c-1.3-.44-2.42,.75-3.71,.41,3.26-2.3,7.27-2.5,10.88-3.81,.28-.1,.29,.48,.02,.76-1.05,.49-2.54,.1-3.12,1.55,0,0,0,0,0,0-1.52-.2-2.95-.08-4.13,1.04l.05,.04Z"/>
  <path class="cls-12" d="M182.48,96.07c-2.8,1.46-5.78,2.38-8.87,2.95,.04-.34,.07-.68,.11-1.01,2.16-.3,4.26-.81,6.12-2.03,0,0-.03,.02-.03,.02,.89,.03,1.79,.05,2.68,.08Z"/>
  <path class="cls-6" d="M214.94,85.1c-2.29,.91-4.4,2.54-7.11,1.68,2.39-.48,4.54-1.96,7.11-1.68Z"/>
  <path class="cls-6" d="M148.79,106.28c0-.29,.01-.57,.02-.86,1.87-1.06,3.99-1.34,6.02-1.87,.09,.19,.18,.38,.27,.58-.43,.13-.99,.06-1.09,.71,0,0,.01,0,.01,0-1.89-.05-3.52,.85-5.24,1.45Z"/>
  <path class="cls-6" d="M179.84,95.97c-1.86,1.21-3.95,1.73-6.12,2.03,1.73-1.61,3.98-1.66,6.12-2.03Z"/>
  <path class="cls-6" d="M182.48,96.07c-.89-.03-1.79-.05-2.68-.08,1.34-1.15,3.11-1.02,4.65-1.58v.02c-.12,1.23-1.73,.57-2.02,1.6l.05,.03Z"/>
  <path class="cls-12" d="M222.71,83.62c.58-1.45,2.06-1.07,3.12-1.55,0,.31,0,.61,.01,.92-1.07,.07-1.97,.99-3.13,.63Z"/>
  <path class="cls-6" d="M187.79,93.08c1.24-.35,2.48-.7,3.72-1.04,.1,.17,.2,.33,.3,.49-1.15,.61-2.38,.93-3.68,.94l-.34-.4Z"/>
  <path class="cls-12" d="M195.79,92.95c-.51-.75-1.36-.13-1.97-.49,.15-.38,.29-.76,.44-1.15,0,0,0,0,0,0,.48-.03,.95-.05,1.43-.08l.09,1.71Z"/>
  <path class="cls-6" d="M194.27,91.31c-.15,.38-.29,.76-.44,1.15,0,0-.03-.05-.03-.05-.66,.04-1.32,.08-1.99,.12-.1-.16-.2-.33-.3-.49,.87-.42,1.72-.92,2.75-.72Z"/>
  <path class="cls-6" d="M185.97,93.86c.47-.6,1.22-.52,1.83-.79,.11,.13,.22,.26,.34,.39-.59,.69-1.37,.51-2.12,.44l-.05-.05Z"/>
  <path class="cls-5" d="M160.19,102.2c-.28,.56-.77,.57-1.27,.42-.05-.02-.1-.36-.06-.38,.44-.26,.91-.39,1.36,0l-.03-.04Z"/>
  <path class="cls-10" d="M184.45,94.41c.39-.49,.98-.46,1.52-.55,0,0,.05,.05,.05,.05-.31,.79-.99,.47-1.55,.52v-.02Z"/>
  <path class="cls-10" d="M195.7,91.24c-.48,.03-.95,.05-1.43,.08,.44-.67,.91-.84,1.43-.08Z"/>
  <path class="cls-5" d="M160.22,102.23c-.07-.54,.33-.43,.63-.45,.06,0,.12,.1,.19,.16-.28,.08-.57,.17-.85,.25,0,0,.03,.04,.03,.04Z"/>
  <path class="cls-13" d="M226.06,84.31c-.05-.43-.11-.85-.16-1.28,.5,.37,.34,.83,.16,1.28Z"/>
  <path class="cls-13" d="M204.17,78.47c.16,.31,.33,.63,.49,.94-.66-.05-.75-.41-.49-.94Z"/>
  <path class="cls-8" d="M154.44,111.84c-.07,.07-.12,.13-.18,.19-.06-.11-.13-.22-.16-.34,0-.04,.1-.11,.16-.17,.06,.11,.12,.22,.18,.32Z"/>
  <path class="cls-14" d="M144.93,115.06c.36-.26,.71-.19,1.06,0-.35,0-.71,0-1.06,0Z"/>
  <path class="cls-13" d="M295.61,60.9c-4.67,2.09-9.63,3.23-14.55,4.53,0-.34-.02-.69-.02-1.03,0,0-.01,.02-.01,.02,1.67-.18,3.42-.11,4.67-1.57,0,0-.02,.01-.02,.01,1.21,.16,2.28-.09,3.11-1.05,0,0-.01,0-.01,.01,2.28,.35,4.15-1.09,6.28-1.4,.18,.16,.37,.32,.55,.48Z"/>
  <path class="cls-14" d="M310.28,56.17c-4.34,2-8.91,3.29-13.56,4.3,0,0-.16-.17-.16-.17,.44-1.22,2.27-.16,2.59-1.58,0,0-.03,.02-.03,.02,.67,.25,1.3,.38,1.58-.54,0,0-.03,.02-.03,.02,.64,.14,1.3,.38,1.58-.54,0,0-.03,.02-.03,.02,.79,.16,1.56,.28,2.1-.53,0,0-.04,.02-.04,.02,2.12,.37,3.9-1.31,6.01-1.02Z"/>
  <path class="cls-13" d="M268.12,69.57c.32-2.56,2.7-1.67,4.09-2.44,1.29-.2,2.72,.08,3.67-1.17,0,0-.02,.01-.02,.01,1.37,.67,2.75-1.55,4.12,0-3.96,1.2-7.91,2.4-11.87,3.6Z"/>
  <path class="cls-6" d="M310.28,56.17c-2.11-.28-3.88,1.4-6.01,1.02,3.12-1.56,6.39-2.62,9.84-3.13-.06,1.35-1.9,.4-2.07,1.61,0,0,.03-.02,.03-.02-.72-.17-1.41-.23-1.86,.54l.06-.02Z"/>
  <path class="cls-6" d="M315.64,53.58c1.91-1.21,4.13-1.44,6.24-2,.18,2.18-1.29,2.12-2.77,2.03-1.16,0-2.32-.02-3.47-.03Z"/>
  <path class="cls-14" d="M315.64,53.58c1.16,0,2.32,.02,3.47,.03-2.3,.89-4.53,2.05-7.08,2.08,.17-1.21,2.01-.26,2.07-1.61,0,0-.03,.01-.03,.01,.67,.24,1.29,.35,1.58-.53l-.02,.03Z"/>
  <path class="cls-6" d="M279.99,65.97c-1.37-1.55-2.75,.67-4.12,0,1.56-1.08,3.26-1.67,5.17-1.57,0,.34,.02,.69,.02,1.03-.19,.51-.64,.5-1.07,.54Z"/>
  <path class="cls-13" d="M267.15,69.2c.32,.13,.63,.26,.95,.38-.81,.85-1.96,.63-2.94,.96-.05-.33-.1-.65-.14-.98,0,0-.02,.02-.02,.02,.72-.13,1.44-.26,2.15-.39Z"/>
  <path class="cls-14" d="M310.22,56.19c.45-.76,1.14-.71,1.86-.54-.47,.69-1.17,.61-1.86,.54Z"/>
  <path class="cls-14" d="M295.61,60.9c-.18-.16-.37-.32-.56-.48,.5-.04,1-.08,1.5-.12,0,0,.16,.17,.16,.17-.37,.14-.73,.28-1.1,.43Z"/>
  <path class="cls-15" d="M270.55,75.78c-.1,.04-.2,.06-.3,.06,0,0,.14-.12,.14-.12l.16,.06Z"/>
  <path class="cls-6" d="M296.55,60.31c-.5,.04-1,.08-1.5,.12-2.13,.31-4,1.76-6.28,1.41,3.4-1.21,6.7-2.77,10.36-3.11-.31,1.43-2.14,.37-2.59,1.58Z"/>
  <path class="cls-6" d="M285.7,62.86c-1.24,1.46-3,1.39-4.67,1.57,1.35-1.13,2.98-1.43,4.67-1.57Z"/>
  <path class="cls-6" d="M275.88,65.96c-.95,1.25-2.39,.97-3.67,1.17,.95-1.26,2.35-1.1,3.67-1.17Z"/>
  <path class="cls-6" d="M288.79,61.82c-.84,.95-1.91,1.2-3.11,1.05,.87-.86,1.94-1.1,3.11-1.05Z"/>
  <path class="cls-6" d="M304.31,57.17c-.54,.81-1.32,.69-2.1,.53,.56-.72,1.31-.72,2.1-.53Z"/>
  <path class="cls-6" d="M315.67,53.55c-.29,.89-.92,.78-1.58,.53,.34-.73,1.01-.5,1.58-.53Z"/>
  <path class="cls-6" d="M302.24,57.69c-.28,.92-.95,.68-1.58,.54,.35-.71,1-.52,1.58-.54Z"/>
  <path class="cls-6" d="M300.69,58.21c-.28,.92-.91,.78-1.58,.54,.36-.69,.99-.54,1.58-.54Z"/>
  <path class="cls-13" d="M245.36,76.67c-2.51,.88-4.95,2.02-7.64,2.33-.09-.13-.13-.28-.11-.45,1.37-1.17,3.49-.76,4.72-2.24,0,0-.04,.02-.04,.02,1.05,0,2.09-.02,3.14-.02,.1,.14,.07,.26-.07,.36Z"/>
  <path class="cls-6" d="M242.33,76.31c-1.23,1.48-3.34,1.07-4.72,2.24-.69-.46-.38-.85,.16-1.03,1.49-.5,2.95-1.13,4.55-1.2Z"/>
  <path class="cls-6" d="M245.43,76.31c-1.05,0-2.09,.02-3.14,.02,1.16-.95,2.6-.91,3.92-1.31,.29,.93-.72,.76-.78,1.29Z"/>
  <path class="cls-9" d="M92.36,166.28c2.68-1.4,5.32-1.89,8.12-.49,.96,.48,1.11,.84,.11,1.58-3.6,2.63-4.97,2.51-8.22-1.09Z"/>
  <path class="cls-15" d="M128.73,165.45c-.48,.05-.96,.1-1.44,.16,.34-1.3,.86-.97,1.44-.16Z"/>
  <path class="cls-14" d="M144.14,2.05c0-.18,0-.35-.01-.53,.06,.12,.13,.24,.16,.37,0,.04-.09,.1-.15,.16Z"/>
  <path class="cls-12" d="M224.88,136.89c.3,0,.6-.01,.9-.02,0,1.16,.03,2.32,0,3.47-.02,.65-.22,1.19-1.06,.79,.05-1.41,.11-2.83,.16-4.25Z"/>
  <path class="cls-12" d="M239,83.77c-1,.26-1.2-.07-1.31-.54-.15-.67,0-1.23,.68-1.48,2.41-.89,4.85-1.71,7.25-2.63,.72-.27,.93,.18,1.21,.58,.34,.5-.06,.9-.4,1.04-2.6,1.09-5.23,2.13-7.43,3.02Z"/>
  <path class="cls-12" d="M208.22,93.92c5.21-3.26,10.73-5.85,16.53-7.86,1.67,.68,1.44,1.68,.04,2.13-5.34,1.71-10.26,4.29-15.11,7.03-1.7,.96-1.29-.51-1.46-1.3Z"/>
  <path class="cls-15" d="M184.46,94.43c.56-.05,1.24,.27,1.55-.52,.75,.06,1.52,.25,2.12-.44,1.3-.02,2.53-.34,3.68-.94,.66-.04,1.32-.08,1.99-.12-3.48,2.19-7.38,3.05-11.37,3.63,.29-1.03,1.91-.37,2.04-1.6Z"/>
  <path class="cls-13" d="M148.79,106.28c1.71-.6,3.34-1.5,5.24-1.45-.52,1.23-1.79,1.11-2.76,1.48-2.03,.76-3.9,1.8-5.6,3.11-1.3,1-2.79,2.21,.44,3.39-1.52,.21-2.75,.31-3.35-.82-.66-1.22,.3-1.93,1.26-2.68,1.5-1.17,3.04-2.24,4.77-3.03Z"/>
  <path class="cls-13" d="M154.02,104.84c.1-.64,.66-.57,1.09-.71,.23,1.16-.45,.91-1.09,.71Z"/>
  <path class="cls-12" d="M218.58,84.66c1.18-1.12,2.62-1.24,4.13-1.04-1.24,.9-2.59,1.36-4.13,1.04Z"/>
  <text class="cls-16" transform="translate(113.45 29.04)"><tspan x="0" y="0">2 mi kp cha hon chnh</tspan></text>
</svg>