<svg xmlns="http://www.w3.org/2000/svg" xmlns:xlink="http://www.w3.org/1999/xlink" width="414" zoomAndPan="magnify" viewBox="0 0 310.5 225" height="300" preserveAspectRatio="xMidYMid meet" version="1.0"><defs><clipPath id="d48f420f98"><path d="M 21.539062 71.667969 L 62.804688 71.667969 L 62.804688 102.941406 L 21.539062 102.941406 Z M 21.539062 71.667969 " clip-rule="nonzero"/></clipPath><clipPath id="556e3e39b8"><path d="M 21.640625 102.390625 C 23.660156 99.320312 27.179688 96.925781 30.175781 94.753906 C 34.292969 91.832031 40.507812 88.390625 45.078125 85.019531 C 49.421875 81.800781 53.914062 77.382812 57.132812 75.058594 C 59.15625 73.5625 61.550781 71.539062 62.300781 71.765625 C 62.523438 71.839844 62.597656 72.441406 62.597656 72.441406 C 62.597656 72.441406 62.226562 71.765625 62.226562 71.765625 C 62.300781 71.765625 62.75 71.914062 62.75 72.140625 C 62.75 73.5625 50.617188 81.949219 44.851562 86.140625 C 39.535156 89.886719 33.394531 93.40625 29.425781 96.25 C 26.808594 98.125 24.035156 99.996094 22.988281 101.34375 C 22.464844 101.867188 22.539062 102.765625 22.238281 102.839844 C 22.015625 102.839844 21.640625 102.390625 21.640625 102.390625 " clip-rule="nonzero"/></clipPath><clipPath id="4f0a146eac"><path d="M 62 58.949219 L 90.109375 58.949219 L 90.109375 72.226562 L 62 72.226562 Z M 62 58.949219 " clip-rule="nonzero"/></clipPath><clipPath id="a8abde0f43"><path d="M 62 71.539062 C 83.414062 61.507812 88.808594 58.585938 89.78125 59.035156 C 90.003906 59.1875 90.003906 59.785156 89.929688 59.785156 C 89.929688 59.785156 89.707031 59.109375 89.707031 59.035156 C 89.707031 59.035156 90.15625 59.410156 90.078125 59.710938 C 89.554688 61.355469 64.320312 72.738281 62.375 72.140625 C 62.074219 72.066406 62 71.539062 62 71.539062 " clip-rule="nonzero"/></clipPath><clipPath id="96b1abfd3b"><path d="M 88.335938 55 L 104.328125 55 L 104.328125 60.675781 L 88.335938 60.675781 Z M 88.335938 55 " clip-rule="nonzero"/></clipPath><clipPath id="6cbba24841"><path d="M 88.359375 59.859375 C 102.808594 55.292969 103.707031 54.84375 104.082031 55.066406 C 104.230469 55.21875 104.15625 55.816406 104.15625 55.816406 C 104.15625 55.816406 104.15625 55.066406 104.15625 55.066406 C 104.15625 55.066406 104.382812 55.589844 104.230469 55.816406 C 103.410156 57.015625 89.855469 61.207031 88.65625 60.609375 C 88.359375 60.457031 88.359375 59.859375 88.359375 59.859375 " clip-rule="nonzero"/></clipPath><clipPath id="f6b70596eb"><path d="M 103.789062 54.570312 L 108.867188 54.570312 L 108.867188 55.78125 L 103.789062 55.78125 Z M 103.789062 54.570312 " clip-rule="nonzero"/></clipPath><clipPath id="a7bc62c32b"><path d="M 103.859375 54.917969 C 108.949219 54.320312 108.949219 54.691406 108.800781 54.84375 C 108.574219 55.21875 107.152344 55.21875 106.328125 55.367188 C 105.503906 55.515625 104.15625 55.964844 103.859375 55.667969 C 103.707031 55.515625 103.859375 54.917969 103.859375 54.917969 " clip-rule="nonzero"/></clipPath><clipPath id="5a76ed8cdf"><path d="M 117.285156 52.394531 L 131.394531 52.394531 L 131.394531 65.753906 L 117.285156 65.753906 Z M 117.285156 52.394531 " clip-rule="nonzero"/></clipPath><clipPath id="81d41c2463"><path d="M 117.335938 52.445312 C 129.542969 52.597656 130.214844 52.746094 130.664062 53.34375 C 131.1875 54.019531 131.488281 55.292969 131.339844 56.339844 C 131.1875 57.6875 130.289062 59.335938 129.167969 60.683594 C 127.820312 62.332031 124.898438 64.277344 123.402344 65.027344 C 122.652344 65.402344 121.753906 65.851562 121.453125 65.625 C 121.304688 65.550781 121.230469 65.027344 121.230469 65.027344 C 121.304688 64.953125 121.753906 65.625 121.753906 65.550781 C 121.753906 65.550781 121.230469 65.25 121.304688 64.953125 C 121.453125 64.128906 126.847656 62.105469 128.492188 60.457031 C 129.617188 59.261719 130.441406 57.761719 130.589844 56.566406 C 130.8125 55.589844 130.589844 54.46875 130.140625 53.871094 C 129.765625 53.421875 129.167969 53.34375 128.269531 53.121094 C 126.171875 52.746094 118.460938 53.871094 117.5625 53.121094 C 117.261719 52.972656 117.335938 52.445312 117.335938 52.445312 " clip-rule="nonzero"/></clipPath><clipPath id="9272e77ee0"><path d="M 116.859375 53.46875 L 129.5625 53.46875 L 129.5625 58.210938 L 116.859375 58.210938 Z M 116.859375 53.46875 " clip-rule="nonzero"/></clipPath><clipPath id="7f39cc7116"><path d="M 117.484375 53.496094 C 122.277344 58.0625 129.390625 55.066406 129.542969 55.441406 C 129.617188 55.589844 128.269531 56.488281 127.21875 56.863281 C 125.574219 57.464844 121.902344 58.660156 120.105469 57.988281 C 118.609375 57.390625 116.8125 54.617188 116.886719 53.945312 C 116.960938 53.71875 117.484375 53.496094 117.484375 53.496094 " clip-rule="nonzero"/></clipPath><clipPath id="e1132f8176"><path d="M 117.113281 52.207031 L 118.191406 52.207031 L 118.191406 53.765625 L 117.113281 53.765625 Z M 117.113281 52.207031 " clip-rule="nonzero"/></clipPath><clipPath id="9ad59d332f"><path d="M 118.160156 52.894531 C 118.308594 53.71875 117.484375 53.871094 117.261719 53.644531 C 117.035156 53.496094 117.1875 52.222656 117.1875 52.222656 " clip-rule="nonzero"/></clipPath><clipPath id="3fa1010063"><path d="M 127.652344 54.75 L 129.109375 54.75 L 129.109375 55.835938 L 127.652344 55.835938 Z M 127.652344 54.75 " clip-rule="nonzero"/></clipPath><clipPath id="c9f9ea6ae8"><path d="M 127.667969 55.140625 C 130.441406 53.945312 128.417969 55.890625 127.96875 55.816406 C 127.820312 55.742188 127.667969 55.140625 127.667969 55.140625 " clip-rule="nonzero"/></clipPath><clipPath id="05c92ede4c"><path d="M 127.421875 54.296875 L 130.300781 54.296875 L 130.300781 56.300781 L 127.421875 56.300781 Z M 127.421875 54.296875 " clip-rule="nonzero"/></clipPath><clipPath id="9c30977a36"><path d="M 127.445312 55.589844 C 129.167969 54.320312 129.316406 54.992188 129.316406 54.992188 C 129.316406 54.992188 128.941406 54.394531 129.015625 54.320312 C 129.09375 54.242188 130.289062 54.617188 130.289062 54.917969 C 130.289062 55.292969 128.195312 56.414062 127.820312 56.265625 C 127.59375 56.191406 127.445312 55.589844 127.445312 55.589844 " clip-rule="nonzero"/></clipPath><clipPath id="f462bb0c2b"><path d="M 104.28125 67.097656 L 117.738281 67.097656 L 117.738281 71.488281 L 104.28125 71.488281 Z M 104.28125 67.097656 " clip-rule="nonzero"/></clipPath><clipPath id="14b674c400"><path d="M 104.980469 68.546875 C 109.699219 71.167969 117.636719 67.046875 117.710938 67.125 C 117.710938 67.199219 109.625 71.691406 107.378906 71.464844 C 106.253906 71.390625 105.429688 70.492188 104.90625 69.96875 C 104.605469 69.59375 104.230469 68.996094 104.308594 68.769531 C 104.382812 68.546875 104.980469 68.546875 104.980469 68.546875 " clip-rule="nonzero"/></clipPath><clipPath id="faf800a79a"><path d="M 83.679688 78.054688 L 94 78.054688 L 94 81.6875 L 83.679688 81.6875 Z M 83.679688 78.054688 " clip-rule="nonzero"/></clipPath><clipPath id="0343903ec8"><path d="M 84.464844 78.730469 C 85.363281 80.453125 86.484375 80.976562 87.308594 80.902344 C 88.433594 80.824219 89.78125 79.179688 90.976562 78.730469 C 92.027344 78.355469 93.898438 77.90625 93.972656 78.128906 C 94.046875 78.355469 89.105469 81.574219 87.308594 81.648438 C 86.1875 81.722656 84.988281 81.050781 84.390625 80.453125 C 83.941406 80.003906 83.566406 78.953125 83.714844 78.730469 C 83.863281 78.578125 84.464844 78.730469 84.464844 78.730469 " clip-rule="nonzero"/></clipPath><clipPath id="8bcbc61f48"><path d="M 91.6875 70.75 L 106.726562 70.75 L 106.726562 78.847656 L 91.6875 78.847656 Z M 91.6875 70.75 " clip-rule="nonzero"/></clipPath><clipPath id="b187c05af3"><path d="M 91.726562 78.128906 C 104.308594 72.441406 105.878906 70.640625 106.328125 70.792969 C 106.554688 70.867188 106.628906 71.464844 106.628906 71.464844 C 106.628906 71.464844 106.328125 70.792969 106.328125 70.792969 C 106.328125 70.792969 106.777344 71.167969 106.703125 71.390625 C 106.628906 71.992188 104.832031 73.039062 103.257812 73.9375 C 100.636719 75.433594 93.148438 79.179688 92.027344 78.804688 C 91.800781 78.65625 91.726562 78.128906 91.726562 78.128906 " clip-rule="nonzero"/></clipPath><clipPath id="32aacc4c4b"><path d="M 65.621094 95.929688 L 71.453125 95.929688 L 71.453125 97.125 L 65.621094 97.125 Z M 65.621094 95.929688 " clip-rule="nonzero"/></clipPath><clipPath id="4f9534083e"><path d="M 65.667969 96.25 C 71.359375 96.101562 71.210938 96.699219 71.136719 96.699219 C 71.136719 96.699219 71.0625 95.953125 71.136719 95.953125 C 71.136719 95.953125 71.511719 96.402344 71.433594 96.550781 C 71.210938 96.851562 69.636719 96.773438 68.664062 96.851562 C 67.691406 96.925781 66.042969 97.300781 65.742188 97 C 65.519531 96.851562 65.667969 96.25 65.667969 96.25 " clip-rule="nonzero"/></clipPath><clipPath id="33e93996a6"><path d="M 58.753906 81.53125 L 86.605469 81.53125 L 86.605469 135 L 58.753906 135 Z M 58.753906 81.53125 " clip-rule="nonzero"/></clipPath><clipPath id="a07436d20a"><path d="M 86.484375 82.175781 C 67.390625 101.566406 64.84375 105.609375 62.898438 109.128906 C 61.476562 111.902344 60.277344 113.699219 59.753906 116.769531 C 59.078125 120.8125 60.652344 128.449219 60.726562 131.59375 C 60.800781 133.015625 61.027344 134.441406 60.726562 134.738281 C 60.578125 134.890625 59.976562 134.664062 59.976562 134.664062 C 59.976562 134.738281 60.652344 134.890625 60.652344 134.890625 C 60.652344 134.890625 60.203125 134.964844 59.976562 134.738281 C 59.453125 134.140625 59.527344 130.695312 59.378906 128.226562 C 59.15625 124.929688 58.40625 120.289062 59.003906 116.769531 C 59.605469 113.546875 61.027344 110.925781 62.75 107.859375 C 64.84375 104.039062 67.765625 99.921875 71.136719 95.953125 C 75.253906 91.234375 84.390625 81.648438 85.960938 81.648438 C 86.261719 81.648438 86.484375 82.175781 86.484375 82.175781 " clip-rule="nonzero"/></clipPath><clipPath id="3550452e17"><path d="M 80.875 87.53125 L 92.542969 87.53125 L 92.542969 90.816406 L 80.875 90.816406 Z M 80.875 87.53125 " clip-rule="nonzero"/></clipPath><clipPath id="088fea1d3e"><path d="M 80.945312 87.566406 C 92.625 90.1875 92.402344 90.710938 92.402344 90.710938 C 92.402344 90.710938 92.476562 89.960938 92.476562 89.960938 C 92.476562 89.960938 92.625 90.558594 92.476562 90.710938 C 92.101562 91.007812 90.378906 90.484375 89.03125 90.261719 C 86.859375 89.886719 81.695312 89.289062 81.019531 88.464844 C 80.792969 88.164062 80.945312 87.566406 80.945312 87.566406 " clip-rule="nonzero"/></clipPath><clipPath id="bf15a74f6c"><path d="M 96.734375 90.921875 L 119.332031 90.921875 L 119.332031 103.976562 L 96.734375 103.976562 Z M 96.734375 90.921875 " clip-rule="nonzero"/></clipPath><clipPath id="eed7832d51"><path d="M 97.042969 90.933594 C 111.121094 96.550781 111.421875 97.523438 112.394531 98.125 C 113.367188 98.796875 114.714844 98.722656 115.761719 99.394531 C 117.035156 100.292969 119.359375 102.839844 119.28125 103.441406 C 119.28125 103.664062 118.683594 103.890625 118.683594 103.890625 C 118.683594 103.890625 119.207031 103.363281 119.28125 103.363281 C 119.28125 103.441406 119.058594 103.964844 118.832031 103.964844 C 118.234375 103.964844 116.511719 100.820312 115.238281 99.996094 C 114.191406 99.246094 112.917969 99.394531 111.945312 98.796875 C 110.972656 98.199219 110.671875 97.148438 109.324219 96.324219 C 106.777344 94.753906 97.34375 92.730469 96.820312 91.609375 C 96.667969 91.382812 97.042969 90.933594 97.042969 90.933594 " clip-rule="nonzero"/></clipPath><clipPath id="c866fc1a9b"><path d="M 73 100.925781 L 78.292969 100.925781 L 78.292969 106.878906 L 73 106.878906 Z M 73 100.925781 " clip-rule="nonzero"/></clipPath><clipPath id="cb433c29ad"><path d="M 73.53125 100.96875 C 78.472656 106.507812 78.097656 106.882812 78.097656 106.808594 C 78.023438 106.808594 78.25 106.136719 78.25 106.136719 C 78.25 106.136719 78.25 106.808594 78.097656 106.808594 C 77.875 106.957031 77.277344 106.585938 76.828125 106.136719 C 75.777344 105.3125 72.933594 102.167969 73.007812 101.417969 C 73.007812 101.117188 73.53125 100.96875 73.53125 100.96875 " clip-rule="nonzero"/></clipPath><clipPath id="f4a153fc6a"><path d="M 78.050781 106.6875 L 90.921875 106.6875 L 90.921875 108.652344 L 78.050781 108.652344 Z M 78.050781 106.6875 " clip-rule="nonzero"/></clipPath><clipPath id="b61a86f673"><path d="M 78.324219 106.734375 C 88.808594 107.707031 90.378906 106.507812 90.753906 106.734375 C 90.976562 106.882812 90.828125 107.484375 90.828125 107.484375 C 90.828125 107.484375 90.976562 106.808594 90.828125 106.734375 C 90.453125 106.507812 88.507812 108.308594 87.011719 108.53125 C 85.210938 108.90625 82.292969 108.308594 80.71875 108.082031 C 79.597656 107.933594 78.25 107.78125 78.097656 107.410156 C 77.949219 107.257812 78.324219 106.734375 78.324219 106.734375 " clip-rule="nonzero"/></clipPath><clipPath id="ca6b24520f"><path d="M 95.449219 104.839844 L 97.671875 104.839844 L 97.671875 106.84375 L 95.449219 106.84375 Z M 95.449219 104.839844 " clip-rule="nonzero"/></clipPath><clipPath id="4d000009e3"><path d="M 95.472656 106.136719 C 97.566406 104.863281 97.71875 105.460938 97.644531 105.460938 C 97.644531 105.460938 97.34375 104.863281 97.269531 104.863281 C 97.269531 104.863281 97.644531 105.3125 97.644531 105.535156 C 97.492188 105.910156 96.144531 106.882812 95.84375 106.808594 C 95.621094 106.734375 95.472656 106.136719 95.472656 106.136719 " clip-rule="nonzero"/></clipPath><clipPath id="b6ac83ace2"><path d="M 97 102.167969 L 111.585938 102.167969 L 111.585938 116.09375 L 97 116.09375 Z M 97 102.167969 " clip-rule="nonzero"/></clipPath><clipPath id="2b108a0787"><path d="M 97.941406 102.617188 C 98.839844 107.78125 99.890625 107.707031 100.710938 108.457031 C 102.0625 109.65625 103.332031 112.574219 105.207031 113.847656 C 106.929688 115.046875 111.570312 115.644531 111.570312 115.871094 C 111.570312 116.09375 110.074219 116.09375 109.175781 115.945312 C 107.828125 115.71875 106.105469 115.269531 104.457031 114.222656 C 102.285156 112.800781 98.691406 109.28125 97.644531 107.183594 C 96.96875 105.835938 97.042969 104.261719 97.042969 103.363281 C 97.042969 102.914062 97.117188 102.316406 97.269531 102.242188 C 97.417969 102.167969 97.941406 102.617188 97.941406 102.617188 " clip-rule="nonzero"/></clipPath><clipPath id="9a24df020f"><path d="M 109.460938 113.882812 L 115.804688 113.882812 L 115.804688 131.332031 L 109.460938 131.332031 Z M 109.460938 113.882812 " clip-rule="nonzero"/></clipPath><clipPath id="b2f3f919c0"><path d="M 112.769531 114.523438 C 110.148438 116.992188 110.222656 117.21875 110.296875 117.816406 C 110.523438 119.464844 111.796875 124.257812 112.84375 126.652344 C 113.667969 128.523438 115.914062 131.144531 115.761719 131.292969 C 115.613281 131.371094 113.667969 129.722656 112.769531 128.226562 C 111.421875 125.902344 109.773438 119.988281 109.546875 117.964844 C 109.472656 117.140625 109.472656 116.769531 109.773438 116.242188 C 110.222656 115.421875 111.796875 113.847656 112.246094 113.921875 C 112.46875 113.921875 112.769531 114.523438 112.769531 114.523438 " clip-rule="nonzero"/></clipPath><clipPath id="7222925b96"><path d="M 118.855469 113.796875 L 126.566406 113.796875 L 126.566406 137.9375 L 118.855469 137.9375 Z M 118.855469 113.796875 " clip-rule="nonzero"/></clipPath><clipPath id="cbae094f9d"><path d="M 124.226562 113.847656 C 126.695312 127.027344 126.695312 127.550781 126.472656 128.898438 C 126.023438 130.996094 124.675781 135.488281 123.550781 136.835938 C 123.027344 137.507812 122.503906 137.808594 121.753906 137.882812 C 120.929688 137.960938 118.910156 136.984375 118.910156 136.835938 C 118.984375 136.6875 121.230469 137.285156 122.054688 137.058594 C 122.578125 136.910156 122.953125 136.6875 123.328125 136.085938 C 124.300781 134.890625 125.347656 130.621094 125.722656 128.75 C 125.945312 127.550781 126.023438 127.101562 125.945312 125.828125 C 125.796875 123.207031 122.878906 114.972656 123.476562 113.996094 C 123.625 113.773438 124.226562 113.847656 124.226562 113.847656 " clip-rule="nonzero"/></clipPath><clipPath id="fbdcfee0d2"><path d="M 122.027344 121.765625 L 125.140625 121.765625 L 125.140625 135.148438 L 122.027344 135.148438 Z M 122.027344 121.765625 " clip-rule="nonzero"/></clipPath><clipPath id="d05e1b3761"><path d="M 125.125 122.382812 C 122.652344 126.128906 122.726562 129.796875 122.953125 131.742188 C 123.175781 133.09375 124.226562 135.039062 124.074219 135.113281 C 124 135.1875 122.726562 133.765625 122.351562 132.640625 C 121.828125 130.84375 122.054688 126.503906 122.578125 124.707031 C 122.800781 123.730469 123.328125 123.058594 123.777344 122.535156 C 124.074219 122.160156 124.597656 121.710938 124.824219 121.785156 C 124.972656 121.785156 125.125 122.382812 125.125 122.382812 " clip-rule="nonzero"/></clipPath><clipPath id="80ed2f52de"><path d="M 76.519531 112.640625 L 80.054688 112.640625 L 80.054688 119.273438 L 76.519531 119.273438 Z M 76.519531 112.640625 " clip-rule="nonzero"/></clipPath><clipPath id="dbdd63e4c7"><path d="M 77.351562 112.648438 C 78.699219 118.117188 79.972656 118.492188 79.972656 118.789062 C 79.972656 119.015625 79.371094 119.238281 79.371094 119.238281 C 79.445312 119.238281 80.046875 119.089844 80.046875 119.015625 C 80.046875 118.714844 78.25 118.566406 77.648438 117.816406 C 76.902344 116.84375 76.300781 113.699219 76.601562 113.023438 C 76.75 112.726562 77.351562 112.648438 77.351562 112.648438 " clip-rule="nonzero"/></clipPath><clipPath id="1dd9c84435"><path d="M 80.03125 119.523438 L 90.253906 119.523438 L 90.253906 122.078125 L 80.03125 122.078125 Z M 80.03125 119.523438 " clip-rule="nonzero"/></clipPath><clipPath id="ec3651767f"><path d="M 80.570312 119.539062 C 83.863281 120.960938 89.628906 120.511719 90.078125 121.1875 C 90.230469 121.335938 89.929688 121.859375 89.929688 121.859375 C 89.929688 121.933594 90.230469 121.261719 90.230469 121.261719 C 90.230469 121.261719 90.15625 121.710938 89.929688 121.859375 C 89.105469 122.382812 83.863281 121.785156 82.144531 121.1875 C 81.167969 120.886719 80.121094 120.363281 80.046875 120.0625 C 80.046875 119.839844 80.570312 119.539062 80.570312 119.539062 " clip-rule="nonzero"/></clipPath><clipPath id="05ce1babf1"><path d="M 95.304688 116.355469 L 105.621094 116.355469 L 105.621094 130.1875 L 95.304688 130.1875 Z M 95.304688 116.355469 " clip-rule="nonzero"/></clipPath><clipPath id="e0c8c1c273"><path d="M 96.519531 116.691406 C 96.371094 122.382812 96.667969 122.910156 97.117188 123.359375 C 97.644531 123.882812 98.691406 123.882812 99.363281 124.480469 C 100.414062 125.230469 101.160156 127.25 102.285156 128.226562 C 103.257812 129.046875 105.578125 130.023438 105.578125 130.171875 C 105.503906 130.246094 102.960938 129.574219 101.910156 128.824219 C 100.789062 128 100.113281 126.054688 99.140625 125.15625 C 98.242188 124.480469 97.042969 124.332031 96.371094 123.65625 C 95.921875 123.132812 95.621094 122.609375 95.472656 121.859375 C 95.246094 120.8125 95.320312 119.015625 95.472656 118.042969 C 95.546875 117.367188 95.621094 116.46875 95.84375 116.394531 C 96.070312 116.320312 96.519531 116.691406 96.519531 116.691406 " clip-rule="nonzero"/></clipPath><clipPath id="7609078e1e"><path d="M 79.375 124.035156 L 81.183594 124.035156 L 81.183594 129.304688 L 79.375 129.304688 Z M 79.375 124.035156 " clip-rule="nonzero"/></clipPath><clipPath id="df12d2db74"><path d="M 80.195312 124.105469 C 81.019531 129.125 80.421875 129.046875 80.421875 129.046875 C 80.421875 129.046875 81.167969 128.972656 81.167969 129.046875 C 81.167969 129.046875 80.71875 129.347656 80.570312 129.273438 C 80.195312 129.125 79.972656 127.101562 79.746094 126.128906 C 79.597656 125.378906 79.222656 124.332031 79.445312 124.105469 C 79.597656 123.957031 80.195312 124.105469 80.195312 124.105469 " clip-rule="nonzero"/></clipPath><clipPath id="42e87d1c6b"><path d="M 82.207031 131.511719 L 86.886719 131.511719 L 86.886719 134.785156 L 82.207031 134.785156 Z M 82.207031 131.511719 " clip-rule="nonzero"/></clipPath><clipPath id="78747f2282"><path d="M 82.742188 131.519531 C 87.011719 134.363281 86.636719 134.738281 86.5625 134.738281 C 86.5625 134.738281 86.859375 134.066406 86.859375 134.066406 C 86.859375 134.066406 86.859375 134.664062 86.636719 134.738281 C 86.1875 134.890625 84.539062 133.914062 83.714844 133.390625 C 83.117188 132.941406 82.21875 132.34375 82.21875 131.96875 C 82.21875 131.742188 82.742188 131.519531 82.742188 131.519531 " clip-rule="nonzero"/></clipPath><clipPath id="0bfa11cf67"><path d="M 46.355469 132.242188 L 62.050781 132.242188 L 62.050781 136.632812 L 46.355469 136.632812 Z M 46.355469 132.242188 " clip-rule="nonzero"/></clipPath><clipPath id="65ab1ffe39"><path d="M 46.5 132.269531 C 59.902344 134.589844 61.777344 135.414062 62 135.9375 C 62.148438 136.160156 61.851562 136.609375 61.851562 136.609375 C 61.851562 136.609375 62 135.9375 62 135.9375 C 61.925781 135.9375 61.851562 136.535156 61.625 136.609375 C 61.101562 136.761719 59.453125 135.261719 57.730469 134.738281 C 55.035156 133.839844 47.175781 133.839844 46.425781 132.941406 C 46.277344 132.71875 46.5 132.269531 46.5 132.269531 " clip-rule="nonzero"/></clipPath><clipPath id="1dde8d72ae"><path d="M 56.523438 130.25 L 117.046875 130.25 L 117.046875 137.949219 L 56.523438 137.949219 Z M 56.523438 130.25 " clip-rule="nonzero"/></clipPath><clipPath id="ebc53a38a9"><path d="M 56.832031 136.984375 C 67.464844 135.5625 72.035156 137.359375 76.902344 136.984375 C 83.117188 136.535156 91.429688 132.867188 97.941406 131.820312 C 103.484375 130.921875 110.222656 129.796875 113.515625 130.472656 C 115.164062 130.84375 116.886719 131.894531 117.035156 132.34375 C 117.035156 132.566406 116.511719 132.941406 116.511719 132.941406 C 116.511719 132.941406 116.960938 132.269531 116.960938 132.34375 C 117.035156 132.34375 116.960938 132.867188 116.8125 132.941406 C 116.363281 133.167969 115.089844 131.59375 113.515625 131.21875 C 110.296875 130.621094 103.484375 131.667969 97.867188 132.566406 C 91.277344 133.617188 80.792969 137.136719 76.601562 137.734375 C 74.878906 137.960938 74.28125 137.960938 72.933594 137.882812 C 71.136719 137.660156 68.664062 136.6875 66.792969 136.460938 C 65.144531 136.3125 63.722656 136.3125 62.226562 136.535156 C 60.652344 136.761719 58.480469 137.660156 57.507812 137.734375 C 57.058594 137.734375 56.609375 137.734375 56.535156 137.585938 C 56.460938 137.433594 56.832031 136.984375 56.832031 136.984375 " clip-rule="nonzero"/></clipPath><clipPath id="248468ed4f"><path d="M 100.8125 132.382812 L 120.539062 132.382812 L 120.539062 147.503906 L 100.8125 147.503906 Z M 100.8125 132.382812 " clip-rule="nonzero"/></clipPath><clipPath id="104be61a44"><path d="M 105.128906 137.210938 C 114.714844 132.640625 115.839844 132.34375 116.960938 132.417969 C 118.011719 132.417969 119.28125 132.566406 119.808594 133.09375 C 120.332031 133.617188 120.480469 134.589844 120.480469 135.339844 C 120.40625 136.085938 120.105469 136.6875 119.65625 137.507812 C 118.984375 138.632812 117.5625 140.207031 116.289062 141.328125 C 115.015625 142.453125 113.742188 143.425781 112.019531 144.324219 C 109.921875 145.523438 105.878906 147.992188 104.230469 147.394531 C 103.035156 147.019531 102.511719 145.074219 101.984375 143.800781 C 101.460938 142.675781 100.5625 141.179688 101.011719 140.128906 C 101.535156 138.78125 106.253906 136.761719 106.253906 136.835938 C 106.328125 136.910156 101.984375 138.933594 101.613281 140.503906 C 101.160156 142.078125 103.183594 145.445312 104.082031 146.195312 C 104.605469 146.644531 104.90625 146.644531 105.578125 146.570312 C 107.527344 146.269531 113.964844 142.375 116.363281 140.429688 C 117.785156 139.15625 118.832031 138.035156 119.28125 136.761719 C 119.65625 135.710938 119.957031 134.140625 119.28125 133.542969 C 118.460938 132.71875 115.539062 133.316406 113.515625 133.839844 C 110.972656 134.515625 106.328125 138.183594 105.429688 137.882812 C 105.207031 137.808594 105.128906 137.210938 105.128906 137.210938 " clip-rule="nonzero"/></clipPath><clipPath id="76913347cf"><path d="M 32.777344 145.878906 L 107.386719 145.878906 L 107.386719 180.277344 L 32.777344 180.277344 Z M 32.777344 145.878906 " clip-rule="nonzero"/></clipPath><clipPath id="850069e946"><path d="M 33.171875 179.292969 C 45.453125 176.746094 50.46875 171.503906 56.910156 168.433594 C 65.667969 164.167969 82.742188 159.972656 89.480469 156.902344 C 92.625 155.480469 93.898438 154.65625 96.21875 153.085938 C 98.914062 151.210938 102.585938 147.320312 104.605469 146.421875 C 105.65625 145.972656 106.777344 145.746094 107.152344 146.046875 C 107.300781 146.121094 107.378906 146.496094 107.226562 146.71875 C 107.003906 147.09375 105.730469 146.792969 104.679688 147.242188 C 102.585938 148.21875 98.992188 152.109375 96.296875 153.910156 C 93.972656 155.40625 92.851562 156.15625 89.78125 157.578125 C 83.191406 160.574219 66.269531 164.765625 57.433594 168.960938 C 50.917969 172.105469 45.375 177.496094 41.035156 179.066406 C 38.636719 180.042969 36.316406 180.117188 34.820312 180.191406 C 34.070312 180.191406 33.097656 180.265625 32.945312 179.964844 C 32.871094 179.816406 33.171875 179.292969 33.171875 179.292969 " clip-rule="nonzero"/></clipPath><clipPath id="d85d5c6165"><path d="M 95.140625 147.59375 L 114.125 147.59375 L 114.125 162.394531 L 95.140625 162.394531 Z M 95.140625 147.59375 " clip-rule="nonzero"/></clipPath><clipPath id="8e7bcca543"><path d="M 96.070312 154.957031 C 96.820312 160.722656 97.195312 161.320312 97.71875 161.546875 C 98.09375 161.695312 98.464844 161.621094 99.140625 161.320312 C 101.613281 160.199219 112.09375 147.542969 113.515625 147.691406 C 113.816406 147.691406 113.964844 148.21875 113.964844 148.21875 C 113.964844 148.21875 113.441406 147.691406 113.515625 147.691406 C 113.515625 147.617188 114.042969 147.769531 114.117188 147.992188 C 114.265625 149.117188 102.210938 160.722656 99.515625 161.996094 C 98.691406 162.371094 98.167969 162.445312 97.644531 162.21875 C 97.042969 162.070312 96.445312 161.472656 96.070312 160.796875 C 95.546875 159.898438 95.394531 158.25 95.320312 157.203125 C 95.246094 156.304688 95.023438 155.105469 95.320312 154.882812 C 95.472656 154.730469 96.070312 154.957031 96.070312 154.957031 " clip-rule="nonzero"/></clipPath><clipPath id="9a0f274338"><path d="M 96.542969 150.496094 L 109.6875 150.496094 L 109.6875 160.699219 L 96.542969 160.699219 Z M 96.542969 150.496094 " clip-rule="nonzero"/></clipPath><clipPath id="ce405ee715"><path d="M 96.59375 160.199219 C 100.9375 154.65625 104.457031 151.660156 105.953125 150.914062 C 106.628906 150.613281 107.003906 150.464844 107.453125 150.613281 C 108.199219 150.839844 109.773438 152.558594 109.625 152.710938 C 109.546875 152.933594 107.601562 151.363281 106.402344 151.511719 C 104.457031 151.886719 101.3125 155.257812 99.664062 157.054688 C 98.542969 158.25 97.71875 160.574219 97.195312 160.648438 C 96.96875 160.648438 96.59375 160.125 96.59375 160.125 " clip-rule="nonzero"/></clipPath><clipPath id="b5c2583ef1"><path d="M 147.640625 78.785156 L 148.140625 78.785156 L 148.140625 79.257812 L 147.640625 79.257812 Z M 147.640625 78.785156 " clip-rule="nonzero"/></clipPath><clipPath id="8f349f4d85"><path d="M 148.035156 78.804688 C 148.410156 79.554688 147.664062 79.105469 147.664062 79.105469 " clip-rule="nonzero"/></clipPath><clipPath id="334afd7f70"><path d="M 148.074219 63.621094 L 192.371094 63.621094 L 192.371094 79.429688 L 148.074219 79.429688 Z M 148.074219 63.621094 " clip-rule="nonzero"/></clipPath><clipPath id="ead9789049"><path d="M 148.113281 78.878906 C 159.867188 70.71875 163.6875 68.996094 166.605469 67.871094 C 168.851562 67.046875 170.199219 66.671875 172.671875 66.148438 C 176.265625 65.324219 182.78125 64.503906 186.375 64.128906 C 188.621094 63.902344 191.242188 63.378906 191.992188 63.828125 C 192.214844 63.976562 192.289062 64.425781 192.289062 64.425781 C 192.289062 64.425781 191.992188 63.753906 191.914062 63.828125 C 191.914062 63.828125 192.214844 64.351562 191.992188 64.578125 C 191.015625 65.699219 177.464844 65.925781 172.898438 66.824219 C 170.351562 67.347656 168.929688 67.871094 166.90625 68.546875 C 164.808594 69.292969 162.9375 69.820312 160.542969 71.089844 C 157.097656 72.890625 149.910156 79.554688 148.5625 79.402344 C 148.261719 79.328125 148.113281 78.878906 148.113281 78.878906 " clip-rule="nonzero"/></clipPath><clipPath id="ae34fcd22e"><path d="M 144.03125 83.960938 L 144.378906 83.960938 L 144.378906 84.28125 L 144.03125 84.28125 Z M 144.03125 83.960938 " clip-rule="nonzero"/></clipPath><clipPath id="c1a228220c"><path d="M 144.367188 84.269531 C 143.617188 84.046875 144.367188 83.972656 144.367188 83.972656 " clip-rule="nonzero"/></clipPath><clipPath id="3b858c32d2"><path d="M 143.835938 75.722656 L 174.117188 75.722656 L 174.117188 88 L 143.835938 88 Z M 143.835938 75.722656 " clip-rule="nonzero"/></clipPath><clipPath id="130d7f7c87"><path d="M 145.714844 82.25 C 144.816406 85.019531 146.164062 85.917969 147.4375 86.441406 C 149.234375 87.191406 152.828125 87.191406 155.074219 87.117188 C 156.722656 86.964844 157.621094 86.742188 159.492188 86.21875 C 162.5625 85.242188 169.527344 82.996094 171.625 81.351562 C 172.597656 80.527344 172.972656 79.851562 173.269531 78.953125 C 173.570312 77.980469 173.195312 75.734375 173.347656 75.734375 C 173.496094 75.660156 174.167969 77.605469 174.09375 78.429688 C 174.09375 79.105469 173.871094 79.777344 173.421875 80.453125 C 172.820312 81.199219 172.148438 81.875 170.875 82.625 C 167.953125 84.269531 159.644531 87.339844 155.226562 87.863281 C 152.082031 88.164062 149.011719 87.863281 146.988281 87.039062 C 145.566406 86.441406 144.144531 85.394531 143.917969 84.496094 C 143.769531 83.671875 144.742188 81.949219 145.117188 81.800781 C 145.339844 81.800781 145.714844 82.25 145.714844 82.25 " clip-rule="nonzero"/></clipPath><clipPath id="fb48787b08"><path d="M 147.644531 75.527344 L 155.898438 75.527344 L 155.898438 84.570312 L 147.644531 84.570312 Z M 147.644531 75.527344 " clip-rule="nonzero"/></clipPath><clipPath id="9586556b85"><path d="M 154.777344 75.546875 C 156.125 77.644531 156.046875 78.316406 155.597656 78.992188 C 154.550781 80.5625 147.738281 84.683594 147.664062 84.53125 C 147.585938 84.457031 154.175781 79.890625 155 78.542969 C 155.300781 78.019531 155.375 77.644531 155.300781 77.269531 C 155.148438 76.746094 154.101562 76.144531 154.175781 75.847656 C 154.25 75.695312 154.777344 75.621094 154.777344 75.621094 " clip-rule="nonzero"/></clipPath><clipPath id="7238bae57a"><path d="M 146.148438 84.332031 L 147.171875 84.332031 L 147.171875 85.183594 L 146.148438 85.183594 Z M 146.148438 84.332031 " clip-rule="nonzero"/></clipPath><clipPath id="99b887cb3e"><path d="M 146.164062 84.421875 C 148.1875 84.046875 146.539062 85.242188 146.3125 85.167969 C 146.089844 85.09375 146.164062 84.421875 146.164062 84.421875 " clip-rule="nonzero"/></clipPath><clipPath id="719325caee"><path d="M 169.433594 62.824219 L 193.730469 62.824219 L 193.730469 86 L 169.433594 86 Z M 169.433594 62.824219 " clip-rule="nonzero"/></clipPath><clipPath id="2f48add0be"><path d="M 169.675781 85.992188 C 168.929688 82.625 170.199219 81.5 171.847656 79.851562 C 175.667969 76.035156 193.414062 62.554688 193.714844 62.855469 C 193.863281 63.003906 189.445312 67.347656 186.523438 69.820312 C 182.707031 73.113281 175.144531 77.679688 172.371094 80.375 C 170.949219 81.722656 169.828125 82.699219 169.675781 83.746094 C 169.527344 84.421875 170.5 85.320312 170.351562 85.691406 C 170.277344 85.917969 169.675781 85.992188 169.675781 85.992188 " clip-rule="nonzero"/></clipPath><clipPath id="4b07be4fc7"><path d="M 168.6875 71.765625 L 205.402344 71.765625 L 205.402344 88.757812 L 168.6875 88.757812 Z M 168.6875 71.765625 " clip-rule="nonzero"/></clipPath><clipPath id="ecb67e103a"><path d="M 170.648438 82.546875 C 169.675781 86.21875 170.277344 87.039062 171.398438 87.492188 C 173.796875 88.539062 181.808594 87.265625 185.550781 86.589844 C 188.097656 86.21875 189.519531 85.992188 191.839844 84.871094 C 195.210938 83.222656 201.726562 78.207031 203.449219 76.40625 C 204.121094 75.660156 204.347656 75.359375 204.570312 74.6875 C 204.871094 73.863281 204.570312 71.765625 204.644531 71.765625 C 204.796875 71.765625 205.46875 73.9375 205.320312 74.835938 C 205.167969 75.660156 204.796875 76.109375 203.972656 76.933594 C 202.097656 78.953125 194.910156 84.121094 191.914062 85.617188 C 190.417969 86.441406 189.96875 86.515625 188.320312 86.890625 C 184.726562 87.640625 174.320312 89.511719 171.324219 88.238281 C 169.902344 87.640625 169.078125 86.21875 168.777344 85.242188 C 168.628906 84.570312 168.777344 83.820312 169.003906 83.222656 C 169.300781 82.699219 170.050781 81.875 170.277344 81.875 C 170.5 81.875 170.648438 82.546875 170.648438 82.546875 " clip-rule="nonzero"/></clipPath><clipPath id="e3a1cf404a"><path d="M 204.546875 71.367188 L 227.117188 71.367188 L 227.117188 77.179688 L 204.546875 77.179688 Z M 204.546875 71.367188 " clip-rule="nonzero"/></clipPath><clipPath id="bf87f72739"><path d="M 204.871094 76.035156 C 224.636719 75.808594 225.085938 75.660156 225.6875 75.136719 C 226.359375 74.386719 226.882812 71.390625 227.035156 71.390625 C 227.183594 71.464844 227.035156 74.386719 226.433594 75.285156 C 225.984375 75.957031 225.535156 76.257812 224.414062 76.632812 C 221.417969 77.53125 208.839844 77.082031 206.144531 76.855469 C 205.320312 76.855469 204.71875 76.855469 204.570312 76.707031 C 204.496094 76.484375 204.871094 76.035156 204.871094 76.035156 " clip-rule="nonzero"/></clipPath><clipPath id="a1b87a4a8d"><path d="M 226.484375 75.410156 L 235.746094 75.410156 L 235.746094 86.988281 L 226.484375 86.988281 Z M 226.484375 75.410156 " clip-rule="nonzero"/></clipPath><clipPath id="aee8d783a1"><path d="M 227.035156 75.433594 C 230.480469 77.757812 231.003906 80.226562 232.050781 81.875 C 233.101562 83.523438 235.871094 85.84375 235.71875 86.515625 C 235.71875 86.742188 235.121094 86.890625 235.121094 86.890625 C 235.121094 86.890625 235.71875 86.441406 235.71875 86.441406 C 235.71875 86.515625 235.421875 87.039062 235.195312 86.964844 C 234.523438 86.964844 232.425781 83.820312 231.378906 82.097656 C 230.328125 80.453125 229.804688 77.980469 228.757812 76.933594 C 228.082031 76.332031 226.585938 76.332031 226.511719 75.957031 C 226.511719 75.808594 227.035156 75.433594 227.035156 75.433594 " clip-rule="nonzero"/></clipPath><clipPath id="8a4c0af33b"><path d="M 190.902344 54 L 266.234375 54 L 266.234375 86.183594 L 190.902344 86.183594 Z M 190.902344 54 " clip-rule="nonzero"/></clipPath><clipPath id="b711e197e5"><path d="M 190.941406 64.351562 C 206.21875 57.839844 211.609375 56.265625 216.328125 55.441406 C 220.667969 54.691406 225.011719 53.421875 229.132812 54.320312 C 233.625 55.292969 238.265625 59.1875 242.234375 61.804688 C 245.828125 64.128906 249.871094 66.824219 252.195312 69.070312 C 253.691406 70.566406 254.066406 71.765625 255.488281 73.1875 C 257.359375 75.285156 261.253906 77.679688 263.050781 80.078125 C 264.550781 82.023438 266.195312 86.066406 266.121094 86.140625 C 265.972656 86.140625 264.25 82.699219 262.601562 80.601562 C 259.980469 77.382812 254.890625 72.289062 251.21875 69.21875 C 248.300781 66.671875 245.828125 65.027344 242.609375 62.929688 C 238.714844 60.382812 233.921875 56.191406 229.355469 55.140625 C 225.011719 54.167969 220.371094 55.515625 215.953125 56.265625 C 211.535156 57.015625 207.042969 58.289062 202.847656 59.785156 C 198.804688 61.28125 192.441406 65.402344 191.316406 65.027344 C 191.015625 64.953125 190.941406 64.351562 190.941406 64.351562 " clip-rule="nonzero"/></clipPath><clipPath id="ae18698c4b"><path d="M 264.554688 81.171875 L 270.566406 81.171875 L 270.566406 85.5 L 264.554688 85.5 Z M 264.554688 81.171875 " clip-rule="nonzero"/></clipPath><clipPath id="f50a039a17"><path d="M 264.847656 81.199219 C 268.816406 82.625 270.464844 84.269531 270.539062 84.871094 C 270.613281 85.09375 270.238281 85.46875 270.238281 85.46875 C 270.238281 85.46875 270.539062 84.871094 270.539062 84.792969 C 270.464844 84.792969 270.238281 85.394531 270.015625 85.394531 C 269.417969 85.394531 268.144531 82.996094 267.09375 82.398438 C 266.347656 81.949219 264.773438 82.25 264.625 81.875 C 264.472656 81.722656 264.847656 81.199219 264.847656 81.199219 " clip-rule="nonzero"/></clipPath><clipPath id="532f4dbf93"><path d="M 198.582031 79.148438 L 213.289062 79.148438 L 213.289062 84.4375 L 198.582031 84.4375 Z M 198.582031 79.148438 " clip-rule="nonzero"/></clipPath><clipPath id="c3e867ffc1"><path d="M 198.953125 81.273438 C 207.867188 83.523438 210.5625 84.195312 211.757812 83.371094 C 212.808594 82.625 212.882812 79.179688 213.105469 79.179688 C 213.257812 79.253906 213.40625 81.5 213.105469 82.398438 C 212.808594 83.148438 212.433594 83.820312 211.535156 84.195312 C 209.960938 84.871094 205.542969 83.972656 203.222656 83.445312 C 201.425781 83.074219 198.878906 82.472656 198.65625 81.949219 C 198.503906 81.722656 198.953125 81.273438 198.953125 81.273438 " clip-rule="nonzero"/></clipPath><clipPath id="4c3ab98963"><path d="M 211.496094 83.820312 L 216.027344 83.820312 L 216.027344 87.378906 L 211.496094 87.378906 Z M 211.496094 83.820312 " clip-rule="nonzero"/></clipPath><clipPath id="f4b9b790c4"><path d="M 211.910156 83.820312 C 216.101562 87.039062 215.503906 87.265625 215.503906 87.265625 C 215.503906 87.265625 216.027344 86.742188 216.027344 86.742188 C 216.027344 86.742188 215.800781 87.265625 215.578125 87.339844 C 214.902344 87.414062 211.609375 85.019531 211.535156 84.34375 C 211.460938 84.121094 211.910156 83.820312 211.910156 83.820312 " clip-rule="nonzero"/></clipPath><clipPath id="e3cf68565a"><path d="M 221.761719 92.925781 L 232.394531 92.925781 L 232.394531 98.632812 L 221.761719 98.632812 Z M 221.761719 92.925781 " clip-rule="nonzero"/></clipPath><clipPath id="e458e1b82b"><path d="M 222.242188 92.957031 C 226.210938 95.652344 226.511719 97.449219 227.558594 97.75 C 228.757812 98.125 232.277344 96.101562 232.351562 96.25 C 232.425781 96.402344 228.757812 98.871094 227.484375 98.574219 C 226.359375 98.347656 225.910156 96.25 224.9375 95.425781 C 223.964844 94.605469 221.867188 94.078125 221.792969 93.554688 C 221.71875 93.332031 222.242188 92.957031 222.242188 92.957031 " clip-rule="nonzero"/></clipPath><clipPath id="68dd8e7329"><path d="M 202.589844 94.269531 L 225.085938 94.269531 L 225.085938 107.589844 L 202.589844 107.589844 Z M 202.589844 94.269531 " clip-rule="nonzero"/></clipPath><clipPath id="4afe4a3506"><path d="M 203.449219 94.304688 C 207.941406 100.667969 216.101562 105.238281 219.320312 106.210938 C 220.820312 106.734375 222.167969 107.035156 222.992188 106.433594 C 223.890625 105.835938 223.738281 102.839844 224.265625 102.542969 C 224.488281 102.390625 224.863281 102.390625 225.011719 102.617188 C 225.3125 103.066406 224.414062 106.285156 223.441406 107.035156 C 222.617188 107.632812 221.492188 107.632812 219.921875 107.257812 C 216.625 106.507812 207.566406 101.042969 205.019531 98.722656 C 203.820312 97.675781 203.296875 96.699219 203 95.875 C 202.773438 95.277344 202.550781 94.527344 202.699219 94.378906 C 202.847656 94.230469 203.449219 94.304688 203.449219 94.304688 " clip-rule="nonzero"/></clipPath><clipPath id="88a20a131a"><path d="M 198.191406 96.085938 L 203.71875 96.085938 L 203.71875 98.082031 L 198.191406 98.082031 Z M 198.191406 96.085938 " clip-rule="nonzero"/></clipPath><clipPath id="5630b28315"><path d="M 198.207031 97.222656 C 203.746094 96.25 203.671875 96.851562 203.597656 96.851562 C 203.597656 96.851562 203.523438 96.101562 203.523438 96.101562 C 203.523438 96.101562 203.820312 96.625 203.671875 96.851562 C 203.296875 97.449219 198.953125 98.347656 198.355469 97.972656 C 198.132812 97.824219 198.207031 97.222656 198.207031 97.222656 " clip-rule="nonzero"/></clipPath><clipPath id="0024f4ff81"><path d="M 216.832031 110.3125 L 219.570312 110.3125 L 219.570312 113.871094 L 216.832031 113.871094 Z M 216.832031 110.3125 " clip-rule="nonzero"/></clipPath><clipPath id="eecda6c2c9"><path d="M 219.546875 110.703125 C 217.226562 113.921875 216.851562 113.472656 216.851562 113.472656 C 216.851562 113.472656 217.449219 113.847656 217.449219 113.847656 C 217.449219 113.847656 216.925781 113.625 216.851562 113.398438 C 216.777344 112.875 218.421875 110.402344 219.023438 110.328125 C 219.246094 110.253906 219.546875 110.703125 219.546875 110.703125 " clip-rule="nonzero"/></clipPath><clipPath id="576025ed13"><path d="M 180.800781 89.914062 L 238.808594 89.914062 L 238.808594 118.3125 L 180.800781 118.3125 Z M 180.800781 89.914062 " clip-rule="nonzero"/></clipPath><clipPath id="f1678aef91"><path d="M 180.984375 89.960938 C 189.59375 92.132812 194.984375 95.425781 197.757812 97.375 C 199.554688 98.574219 200.527344 99.394531 201.800781 100.894531 C 203.296875 102.617188 204.046875 105.3125 205.992188 107.257812 C 208.464844 109.65625 212.734375 111.601562 216.027344 113.398438 C 219.023438 114.972656 222.617188 117.742188 224.863281 117.515625 C 226.359375 117.292969 227.558594 115.871094 228.457031 114.746094 C 229.355469 113.625 229.429688 111.902344 230.253906 110.628906 C 231.226562 109.207031 232.800781 108.457031 233.921875 106.660156 C 235.71875 103.738281 238.640625 93.929688 238.714844 93.929688 C 238.867188 94.003906 236.320312 103.8125 234.597656 106.882812 C 233.472656 108.832031 231.75 109.65625 230.851562 111.078125 C 230.03125 112.351562 230.03125 113.773438 229.207031 114.972656 C 228.308594 116.167969 227.183594 117.964844 225.6875 118.191406 C 223.515625 118.566406 220.070312 116.167969 217.148438 114.746094 C 213.78125 113.097656 209.886719 111.300781 206.816406 108.679688 C 203.523438 105.910156 201.574219 101.34375 198.207031 98.574219 C 194.835938 95.726562 189.746094 93.105469 186.523438 91.90625 C 184.429688 91.085938 181.433594 91.308594 180.984375 90.710938 C 180.757812 90.484375 180.984375 89.960938 180.984375 89.960938 " clip-rule="nonzero"/></clipPath><clipPath id="3c84b22f35"><path d="M 228.371094 114.816406 L 233.71875 114.816406 L 233.71875 115.882812 L 228.371094 115.882812 Z M 228.371094 114.816406 " clip-rule="nonzero"/></clipPath><clipPath id="815121b05a"><path d="M 228.382812 115.195312 C 232.726562 114.445312 233.625 115.570312 233.699219 115.496094 C 233.773438 115.421875 233.472656 114.820312 233.472656 114.820312 C 233.472656 114.820312 233.699219 115.421875 233.550781 115.570312 C 233.25 115.871094 230.929688 114.972656 229.953125 115.121094 C 229.355469 115.195312 228.832031 115.945312 228.53125 115.871094 C 228.382812 115.792969 228.382812 115.195312 228.382812 115.195312 " clip-rule="nonzero"/></clipPath><clipPath id="9ef07df502"><path d="M 172.371094 90 L 189 90 L 189 107.378906 L 172.371094 107.378906 Z M 172.371094 90 " clip-rule="nonzero"/></clipPath><clipPath id="48a7ad2ed2"><path d="M 172.371094 93.179688 C 175.816406 90.558594 177.238281 90.109375 178.511719 90.035156 C 179.859375 89.960938 181.28125 90.035156 182.632812 90.859375 C 184.652344 92.207031 187.421875 96.851562 188.320312 99.097656 C 188.921875 100.519531 189.070312 101.867188 188.847656 102.691406 C 188.769531 103.214844 188.621094 103.363281 188.246094 103.738281 C 187.421875 104.5625 184.578125 106.136719 183.15625 106.734375 C 182.105469 107.109375 180.683594 107.484375 180.382812 107.257812 C 180.234375 107.183594 180.382812 106.585938 180.460938 106.585938 C 180.460938 106.585938 180.757812 107.257812 180.757812 107.257812 C 180.757812 107.257812 180.308594 106.882812 180.308594 106.660156 C 180.609375 105.835938 186.75 104.863281 187.722656 103.214844 C 188.398438 102.089844 188.023438 100.519531 187.5 99.023438 C 186.597656 96.625 183.679688 91.984375 181.433594 90.933594 C 179.785156 90.261719 177.6875 90.785156 176.265625 91.382812 C 174.917969 91.832031 173.421875 93.855469 172.820312 93.78125 C 172.597656 93.78125 172.371094 93.179688 172.371094 93.179688 " clip-rule="nonzero"/></clipPath><clipPath id="d0264afba6"><path d="M 172.628906 93.699219 L 214.683594 93.699219 L 214.683594 141.546875 L 172.628906 141.546875 Z M 172.628906 93.699219 " clip-rule="nonzero"/></clipPath><clipPath id="c7258eca38"><path d="M 173.421875 93.707031 C 190.34375 122.457031 191.242188 124.628906 194.011719 126.953125 C 197.457031 129.945312 204.347656 131.742188 207.941406 134.441406 C 210.785156 136.535156 214.679688 140.054688 214.605469 140.953125 C 214.605469 141.179688 214.082031 141.402344 214.082031 141.402344 C 214.082031 141.402344 214.605469 140.878906 214.605469 140.953125 C 214.605469 140.953125 214.378906 141.476562 214.230469 141.476562 C 213.78125 141.554688 213.03125 140.730469 212.207031 140.054688 C 210.710938 138.78125 208.839844 136.011719 206.292969 134.214844 C 203 131.820312 197.007812 130.546875 193.636719 127.699219 C 190.644531 125.078125 189.21875 122.007812 186.75 118.265625 C 183.304688 113.023438 177.6875 103.289062 175.292969 98.945312 C 174.09375 96.851562 172.597656 94.753906 172.820312 94.078125 C 172.898438 93.855469 173.421875 93.707031 173.421875 93.707031 " clip-rule="nonzero"/></clipPath><clipPath id="0df6bc3872"><path d="M 169.050781 74.058594 L 182.304688 74.058594 L 182.304688 85.933594 L 169.050781 85.933594 Z M 169.050781 74.058594 " clip-rule="nonzero"/></clipPath><clipPath id="4ffb3c4538"><path d="M 181.359375 74.085938 C 182.480469 78.953125 174.917969 84.496094 172.296875 85.542969 C 171.023438 86.066406 169.152344 85.84375 169.078125 85.691406 C 169.078125 85.46875 171.625 85.09375 173.195312 84.195312 C 175.742188 82.699219 182.105469 78.128906 182.257812 76.332031 C 182.332031 75.507812 180.609375 74.835938 180.683594 74.460938 C 180.757812 74.238281 181.359375 74.085938 181.359375 74.085938 " clip-rule="nonzero"/></clipPath><clipPath id="12d79111d5"><path d="M 167.824219 99.9375 L 183.4375 99.9375 L 183.4375 127.304688 L 167.824219 127.304688 Z M 167.824219 99.9375 " clip-rule="nonzero"/></clipPath><clipPath id="4339da8377"><path d="M 175.21875 100.445312 C 168.628906 120.4375 168.328125 122.535156 168.703125 124.03125 C 169.003906 125.078125 169.675781 126.277344 170.425781 126.503906 C 171.097656 126.800781 171.921875 126.425781 172.820312 125.828125 C 174.695312 124.707031 178.0625 121.035156 179.710938 118.492188 C 181.132812 116.394531 181.957031 112.273438 182.707031 112.050781 C 182.929688 112.050781 183.304688 112.5 183.304688 112.5 C 183.304688 112.5 182.632812 112.125 182.707031 112.050781 C 182.707031 112.050781 183.230469 112.125 183.304688 112.351562 C 183.53125 112.726562 183.003906 113.699219 182.632812 114.597656 C 182.03125 116.019531 181.058594 117.964844 179.785156 119.6875 C 178.289062 121.785156 175.816406 124.78125 173.945312 125.976562 C 172.671875 126.800781 171.175781 127.476562 170.199219 127.175781 C 169.378906 126.953125 168.703125 125.828125 168.328125 124.855469 C 167.804688 123.65625 167.804688 121.785156 167.878906 120.363281 C 167.953125 119.089844 168.253906 118.339844 168.703125 116.691406 C 169.601562 113.398438 172.972656 104.113281 173.945312 101.640625 C 174.246094 100.820312 174.320312 100.070312 174.617188 99.996094 C 174.84375 99.996094 175.21875 100.445312 175.21875 100.445312 " clip-rule="nonzero"/></clipPath><clipPath id="eb46573b90"><path d="M 168.601562 110.226562 L 175.109375 110.226562 L 175.109375 126.523438 L 168.601562 126.523438 Z M 168.601562 110.226562 " clip-rule="nonzero"/></clipPath><clipPath id="5a6e615264"><path d="M 172.296875 110.253906 C 176.640625 114.074219 174.09375 119.613281 172.597656 122.160156 C 171.472656 124.03125 168.703125 126.578125 168.628906 126.503906 C 168.480469 126.351562 171.324219 123.058594 172.371094 120.960938 C 173.496094 118.566406 174.769531 114.148438 174.992188 112.800781 C 175.066406 112.351562 175.144531 112.199219 174.992188 111.902344 C 174.617188 111.453125 172.074219 111.300781 171.921875 110.851562 C 171.847656 110.703125 172.296875 110.253906 172.296875 110.253906 " clip-rule="nonzero"/></clipPath><clipPath id="c3eae71f06"><path d="M 178.796875 119 L 189.902344 119 L 189.902344 131.289062 L 178.796875 131.289062 Z M 178.796875 119 " clip-rule="nonzero"/></clipPath><clipPath id="3b6b9e99e6"><path d="M 180.460938 119.164062 C 180.382812 129.496094 181.359375 130.320312 182.03125 130.472656 C 182.632812 130.546875 183.15625 130.246094 183.753906 129.871094 C 184.652344 129.199219 185.851562 127.699219 186.675781 126.277344 C 187.722656 124.628906 188.398438 120.585938 189.070312 120.289062 C 189.371094 120.210938 189.820312 120.585938 189.820312 120.585938 C 189.820312 120.585938 189.144531 120.210938 189.144531 120.210938 C 189.144531 120.210938 189.746094 120.210938 189.820312 120.4375 C 190.117188 121.035156 188.695312 124.480469 187.722656 126.128906 C 186.824219 127.777344 185.476562 129.496094 184.351562 130.320312 C 183.53125 130.84375 182.707031 131.371094 181.882812 131.21875 C 180.984375 130.996094 179.785156 129.796875 179.261719 128.449219 C 178.4375 126.351562 179.035156 119.6875 179.710938 119.089844 C 179.933594 118.863281 180.460938 119.164062 180.460938 119.164062 " clip-rule="nonzero"/></clipPath><clipPath id="0f7f5cb464"><path d="M 180.714844 116.085938 L 183.855469 116.085938 L 183.855469 130.113281 L 180.714844 130.113281 Z M 180.714844 116.085938 " clip-rule="nonzero"/></clipPath><clipPath id="2108f59306"><path d="M 181.730469 116.09375 C 185.101562 120.289062 183.605469 124.855469 182.707031 126.953125 C 182.179688 128.300781 180.984375 130.171875 180.757812 130.097656 C 180.308594 129.945312 184.503906 120.511719 183.753906 118.492188 C 183.378906 117.441406 181.359375 117.140625 181.28125 116.691406 C 181.207031 116.46875 181.730469 116.09375 181.730469 116.09375 " clip-rule="nonzero"/></clipPath><clipPath id="0d2a2158a7"><path d="M 90.203125 76.382812 L 98.34375 76.382812 L 98.34375 124.441406 L 90.203125 124.441406 Z M 90.203125 76.382812 " clip-rule="nonzero"/></clipPath><clipPath id="40b68cf7e6"><path d="M 98.316406 78.28125 C 93.824219 116.320312 93.824219 116.691406 94.125 117.816406 C 94.496094 119.390625 96.59375 121.933594 96.371094 123.058594 C 96.144531 123.730469 95.246094 124.40625 94.648438 124.40625 C 94.125 124.480469 93.300781 124.179688 93.074219 123.730469 C 92.851562 123.132812 93.148438 121.558594 93.597656 121.109375 C 93.972656 120.738281 94.796875 120.738281 95.246094 120.960938 C 95.695312 121.109375 96.296875 121.785156 96.371094 122.234375 C 96.445312 122.832031 95.921875 123.957031 95.394531 124.257812 C 94.871094 124.480469 93.898438 124.332031 93.226562 123.882812 C 92.25 123.132812 91.277344 120.886719 90.753906 119.3125 C 90.230469 117.667969 90.230469 116.617188 90.230469 114.074219 C 90.378906 107.484375 93.300781 82.921875 95.097656 78.429688 C 95.546875 77.230469 95.996094 76.632812 96.59375 76.40625 C 96.96875 76.332031 97.644531 76.632812 97.941406 76.933594 C 98.167969 77.230469 98.316406 78.28125 98.316406 78.28125 " clip-rule="nonzero"/></clipPath><clipPath id="91da1092dd"><path d="M 103.136719 49.929688 L 124.089844 49.929688 L 124.089844 131.535156 L 103.136719 131.535156 Z M 103.136719 49.929688 " clip-rule="nonzero"/></clipPath><clipPath id="7eb04fd116"><path d="M 103.632812 53.269531 C 106.777344 51.023438 108.875 49.824219 110.371094 49.976562 C 111.796875 50.125 113.21875 51.472656 114.414062 52.523438 C 115.6875 53.570312 116.664062 54.46875 117.710938 56.117188 C 119.207031 58.660156 120.628906 62.480469 121.605469 66.824219 C 123.101562 73.261719 124.226562 85.019531 124.074219 91.457031 C 124.074219 95.503906 123.027344 97.972656 122.800781 101.417969 C 122.578125 105.085938 123.027344 108.679688 122.652344 112.949219 C 122.277344 118.265625 121.527344 129.046875 119.957031 130.84375 C 119.507812 131.445312 118.832031 131.519531 118.308594 131.371094 C 117.785156 131.292969 116.960938 130.546875 116.886719 129.945312 C 116.738281 129.347656 117.5625 128.148438 118.085938 127.851562 C 118.382812 127.699219 118.832031 127.699219 119.207031 127.851562 C 119.65625 128.074219 120.332031 128.597656 120.40625 129.125 C 120.480469 129.648438 120.03125 130.84375 119.582031 131.144531 C 119.207031 131.445312 118.382812 131.445312 117.859375 131.292969 C 117.410156 131.070312 116.960938 130.394531 116.8125 129.871094 C 116.738281 129.421875 116.960938 128.597656 117.410156 128.300781 C 117.859375 127.925781 119.058594 127.777344 119.582031 128 C 120.03125 128.226562 120.480469 128.972656 120.480469 129.496094 C 120.480469 130.023438 120.03125 130.84375 119.582031 131.144531 C 119.207031 131.445312 118.382812 131.519531 117.933594 131.292969 C 117.410156 130.996094 117.035156 130.472656 116.8125 129.496094 C 116.136719 126.351562 119.582031 112.425781 119.65625 107.484375 C 119.730469 105.011719 119.207031 104.039062 119.207031 101.867188 C 119.28125 98.722656 120.480469 94.828125 120.480469 90.335938 C 120.480469 83.894531 119.433594 72.890625 118.085938 66.972656 C 117.1875 63.230469 115.914062 59.933594 114.789062 57.914062 C 114.117188 56.789062 113.59375 56.191406 112.84375 55.367188 C 111.945312 54.617188 111.046875 53.421875 109.921875 53.269531 C 108.351562 53.121094 105.578125 56.039062 104.457031 55.890625 C 103.859375 55.742188 103.332031 55.066406 103.183594 54.617188 C 103.109375 54.242188 103.632812 53.269531 103.632812 53.269531 " clip-rule="nonzero"/></clipPath><clipPath id="6cbf77068c"><path d="M 114.546875 144.570312 L 117.414062 144.570312 L 117.414062 147.039062 L 114.546875 147.039062 Z M 114.546875 144.570312 " clip-rule="nonzero"/></clipPath><clipPath id="cb59051256"><path d="M 117.410156 145.445312 C 116.136719 147.46875 114.941406 147.09375 114.640625 146.71875 C 114.414062 146.269531 114.640625 145.074219 115.015625 144.699219 C 115.390625 144.398438 117.035156 144.847656 117.035156 144.847656 " clip-rule="nonzero"/></clipPath><clipPath id="6143b604b4"><path d="M 113.867188 141.835938 L 119.867188 141.835938 L 119.867188 178 L 113.867188 178 Z M 113.867188 141.835938 " clip-rule="nonzero"/></clipPath><clipPath id="8eab77cc23"><path d="M 117.484375 143.574219 C 118.609375 168.058594 120.179688 174.050781 119.808594 176.148438 C 119.65625 176.972656 119.433594 177.34375 119.058594 177.644531 C 118.683594 177.871094 118.234375 178.09375 117.785156 177.945312 C 117.261719 177.792969 116.289062 176.148438 116.210938 176.148438 C 116.136719 176.222656 116.738281 177.570312 116.8125 177.496094 C 116.886719 177.496094 116.210938 175.921875 116.363281 175.398438 C 116.585938 174.949219 117.261719 174.425781 117.710938 174.425781 C 118.308594 174.351562 119.359375 174.949219 119.65625 175.398438 C 119.882812 175.847656 119.808594 176.671875 119.507812 177.121094 C 119.207031 177.570312 118.085938 178.019531 117.484375 177.871094 C 117.035156 177.792969 116.363281 177.195312 116.289062 176.746094 C 116.210938 176.148438 117.035156 174.726562 117.5625 174.425781 C 117.859375 174.277344 118.382812 174.277344 118.683594 174.5 C 119.132812 174.726562 119.882812 175.625 119.808594 176.148438 C 119.808594 176.746094 118.832031 177.871094 118.234375 177.945312 C 117.710938 178.09375 116.886719 177.71875 116.4375 176.972656 C 115.089844 175.097656 115.015625 167.984375 114.640625 162.894531 C 114.265625 156.902344 113.292969 145.894531 114.414062 143.199219 C 114.789062 142.375 115.464844 141.851562 115.914062 141.851562 C 116.4375 141.851562 117.484375 143.574219 117.484375 143.574219 " clip-rule="nonzero"/></clipPath><clipPath id="99da80c1d5"><path d="M 88.917969 156.578125 L 93.957031 156.578125 L 93.957031 184.996094 L 88.917969 184.996094 Z M 88.917969 156.578125 " clip-rule="nonzero"/></clipPath><clipPath id="55ebb06c5a"><path d="M 92.101562 157.953125 C 93.75 171.28125 94.496094 180.492188 93.523438 183.109375 C 93.148438 184.160156 92.476562 184.757812 91.953125 184.910156 C 91.503906 185.058594 91.054688 184.832031 90.679688 184.609375 C 90.304688 184.308594 89.855469 183.636719 89.929688 183.109375 C 90.003906 182.511719 91.277344 181.3125 91.878906 181.390625 C 92.402344 181.390625 93.449219 182.738281 93.449219 183.335938 C 93.523438 183.859375 92.925781 184.535156 92.550781 184.757812 C 92.101562 184.984375 91.277344 184.910156 90.828125 184.683594 C 90.453125 184.460938 90.003906 183.785156 89.929688 183.335938 C 89.929688 182.8125 90.230469 182.0625 90.605469 181.761719 C 90.976562 181.464844 91.726562 181.3125 92.25 181.464844 C 92.699219 181.539062 93.300781 182.136719 93.449219 182.585938 C 93.597656 183.109375 93.375 183.933594 93.074219 184.308594 C 92.699219 184.683594 91.578125 185.058594 91.054688 184.832031 C 90.378906 184.460938 89.929688 182.886719 89.628906 181.238281 C 89.03125 178.167969 90.304688 171.28125 90.15625 167.011719 C 90.003906 163.644531 88.433594 159.523438 89.105469 157.875 C 89.40625 157.128906 90.078125 156.605469 90.605469 156.605469 C 91.128906 156.605469 92.101562 157.953125 92.101562 157.953125 " clip-rule="nonzero"/></clipPath><clipPath id="ef0a7d8773"><path d="M 33.734375 113.753906 L 34.089844 113.753906 L 34.089844 114.085938 L 33.734375 114.085938 Z M 33.734375 113.753906 " clip-rule="nonzero"/></clipPath><clipPath id="d853bae844"><path d="M 34.070312 113.996094 C 33.394531 114.222656 33.996094 113.773438 33.996094 113.773438 " clip-rule="nonzero"/></clipPath><clipPath id="dfae4b171a"><path d="M 113.742188 91.816406 L 119.957031 91.816406 L 119.957031 93.121094 L 113.742188 93.121094 Z M 113.742188 91.816406 " clip-rule="nonzero"/></clipPath><clipPath id="2efcb1c6b2"><path d="M 113.890625 91.832031 C 120.03125 92.359375 119.730469 92.882812 119.730469 92.882812 C 119.730469 92.882812 119.808594 92.207031 119.882812 92.207031 C 119.882812 92.207031 120.03125 92.730469 119.882812 92.882812 C 119.65625 93.179688 118.234375 93.105469 117.335938 93.03125 C 116.210938 93.03125 114.117188 93.03125 113.816406 92.582031 C 113.667969 92.359375 113.890625 91.832031 113.890625 91.832031 " clip-rule="nonzero"/></clipPath><clipPath id="487d3176cd"><path d="M 106.945312 87.644531 L 119.566406 87.644531 L 119.566406 95.914062 L 106.945312 95.914062 Z M 106.945312 87.644531 " clip-rule="nonzero"/></clipPath><clipPath id="64f65fc29c"><path d="M 113.667969 92.730469 C 115.539062 94.902344 115.390625 95.503906 115.015625 95.726562 C 114.117188 96.25 109.996094 95.425781 108.648438 94.527344 C 107.675781 93.855469 107.078125 92.65625 107.003906 91.757812 C 106.851562 91.007812 107.078125 90.109375 107.601562 89.511719 C 108.5 88.6875 111.046875 88.464844 112.917969 88.238281 C 114.941406 87.941406 118.757812 87.339844 119.28125 87.863281 C 119.433594 88.089844 119.207031 88.613281 119.28125 88.613281 C 119.359375 88.613281 119.507812 87.941406 119.507812 88.015625 C 119.507812 88.015625 119.582031 88.464844 119.359375 88.613281 C 118.683594 89.136719 114.863281 88.6875 112.84375 88.988281 C 111.046875 89.289062 108.425781 89.363281 107.828125 90.261719 C 107.378906 90.933594 107.828125 92.207031 108.125 92.882812 C 108.351562 93.332031 108.574219 93.628906 109.097656 93.929688 C 110.148438 94.527344 114.191406 95.578125 114.492188 95.128906 C 114.714844 94.828125 112.992188 93.480469 113.066406 93.105469 C 113.066406 92.882812 113.667969 92.730469 113.667969 92.730469 " clip-rule="nonzero"/></clipPath><clipPath id="57cf4a398d"><path d="M 118.761719 87.695312 L 119.839844 87.695312 L 119.839844 88.535156 L 118.761719 88.535156 Z M 118.761719 87.695312 " clip-rule="nonzero"/></clipPath><clipPath id="d9190ea704"><path d="M 118.832031 87.714844 C 120.929688 88.164062 119.058594 88.6875 118.832031 88.464844 C 118.683594 88.3125 118.832031 87.714844 118.832031 87.714844 " clip-rule="nonzero"/></clipPath><clipPath id="bb78ad06fb"><path d="M 124.867188 88.535156 L 154.878906 88.535156 L 154.878906 89.589844 L 124.867188 89.589844 Z M 124.867188 88.535156 " clip-rule="nonzero"/></clipPath><clipPath id="bbcca1931b"><path d="M 124.972656 88.539062 C 155 88.539062 155 88.914062 154.851562 89.0625 C 154.550781 89.4375 153.203125 89.363281 152.003906 89.4375 C 149.609375 89.4375 145.566406 88.839844 141.746094 88.761719 C 136.878906 88.6875 125.945312 90.1875 124.972656 89.289062 C 124.75 89.0625 124.972656 88.539062 124.972656 88.539062 " clip-rule="nonzero"/></clipPath><clipPath id="2de79044b5"><path d="M 155.550781 88 L 170.6875 88 L 170.6875 89.398438 L 155.550781 89.398438 Z M 155.550781 88 " clip-rule="nonzero"/></clipPath><clipPath id="3ad41e5b1f"><path d="M 155.75 88.390625 C 170.648438 88.238281 170.5 88.761719 170.5 88.761719 C 170.5 88.761719 170.425781 88.015625 170.425781 88.015625 C 170.425781 88.015625 170.800781 88.539062 170.648438 88.6875 C 170.199219 89.363281 164.734375 89.210938 162.113281 89.210938 C 159.792969 89.289062 156.125 89.660156 155.597656 89.0625 C 155.449219 88.914062 155.75 88.390625 155.75 88.390625 " clip-rule="nonzero"/></clipPath><clipPath id="42af4f6ea6"><path d="M 124.078125 93.09375 L 172.550781 93.09375 L 172.550781 94.871094 L 124.078125 94.871094 Z M 124.078125 93.09375 " clip-rule="nonzero"/></clipPath><clipPath id="7a7bc9f593"><path d="M 124.226562 93.105469 C 167.730469 93.929688 171.546875 92.730469 172.222656 93.257812 C 172.449219 93.40625 172.371094 94.003906 172.296875 94.003906 C 172.296875 94.003906 172.074219 93.332031 172.074219 93.257812 C 172.148438 93.257812 172.597656 93.554688 172.523438 93.707031 C 172.523438 94.003906 170.5 94.453125 169.226562 94.679688 C 167.65625 94.902344 166.457031 94.753906 163.984375 94.828125 C 157.472656 94.902344 135.757812 94.828125 129.316406 94.453125 C 126.769531 94.304688 124.523438 94.378906 124.148438 93.855469 C 124 93.628906 124.226562 93.105469 124.226562 93.105469 " clip-rule="nonzero"/></clipPath><clipPath id="abb32ee9ae"><path d="M 169.359375 88.21875 L 173.824219 88.21875 L 173.824219 89.457031 L 169.359375 89.457031 Z M 169.359375 88.21875 " clip-rule="nonzero"/></clipPath><clipPath id="22fe7f0458"><path d="M 169.828125 88.238281 C 173.871094 88.390625 173.570312 88.914062 173.570312 88.914062 C 173.570312 88.914062 173.796875 88.238281 173.796875 88.238281 C 173.796875 88.238281 173.871094 88.761719 173.71875 88.914062 C 173.421875 89.289062 171.921875 89.4375 171.097656 89.4375 C 170.5 89.363281 169.453125 89.0625 169.378906 88.839844 C 169.300781 88.6875 169.828125 88.238281 169.828125 88.238281 " clip-rule="nonzero"/></clipPath><clipPath id="316a579574"><path d="M 182.480469 85.914062 L 284.574219 85.914062 L 284.574219 88.800781 L 182.480469 88.800781 Z M 182.480469 85.914062 " clip-rule="nonzero"/></clipPath><clipPath id="72be902b79"><path d="M 182.554688 87.863281 C 204.871094 86.140625 240.664062 87.339844 256.910156 87.265625 C 266.796875 87.191406 276.304688 87.265625 280.722656 86.742188 C 282.445312 86.589844 283.867188 85.691406 284.316406 85.992188 C 284.542969 86.140625 284.542969 86.667969 284.46875 86.667969 C 284.46875 86.667969 284.242188 85.992188 284.242188 85.992188 C 284.242188 85.992188 284.617188 86.515625 284.542969 86.667969 C 284.316406 87.117188 283.042969 87.265625 281.171875 87.492188 C 273.085938 88.390625 231.152344 88.3125 214.980469 88.164062 C 205.617188 88.089844 198.730469 87.265625 192.738281 87.492188 C 188.695312 87.714844 183.378906 89.289062 182.632812 88.613281 C 182.40625 88.464844 182.554688 87.863281 182.554688 87.863281 " clip-rule="nonzero"/></clipPath><clipPath id="7aed101e25"><path d="M 191.671875 91.699219 L 284.582031 91.699219 L 284.582031 94.574219 L 191.671875 94.574219 Z M 191.671875 91.699219 " clip-rule="nonzero"/></clipPath><clipPath id="11b7055bae"><path d="M 192.066406 93.40625 C 246.203125 92.132812 258.410156 93.105469 267.542969 92.957031 C 274.132812 92.808594 283.34375 91.085938 284.316406 91.984375 C 284.542969 92.207031 284.316406 92.730469 284.316406 92.730469 C 284.316406 92.730469 284.390625 91.984375 284.390625 91.984375 C 284.46875 91.984375 284.617188 92.507812 284.542969 92.730469 C 284.242188 93.03125 283.269531 92.957031 282.144531 93.03125 C 279.375 93.332031 273.382812 93.628906 267.542969 93.707031 C 258.859375 93.78125 246.429688 92.808594 234.820312 92.882812 C 221.71875 92.957031 197.082031 95.054688 192.964844 94.453125 C 192.214844 94.304688 191.765625 94.230469 191.691406 94.003906 C 191.617188 93.855469 192.066406 93.40625 192.066406 93.40625 " clip-rule="nonzero"/></clipPath><clipPath id="10fde64048"><path d="M 123 68 L 145 68 L 145 89 L 123 89 Z M 123 68 " clip-rule="nonzero"/></clipPath><clipPath id="d81b40ca70"><path d="M 139.558594 92.195312 L 122.363281 70.472656 L 131.171875 63.5 L 148.363281 85.226562 Z M 139.558594 92.195312 " clip-rule="nonzero"/></clipPath><clipPath id="a5fb71774b"><path d="M 148.097656 85.4375 L 130.90625 63.710938 L 122.097656 70.683594 L 139.292969 92.40625 Z M 148.097656 85.4375 " clip-rule="nonzero"/></clipPath><clipPath id="1e6e417183"><path d="M 148.097656 85.4375 L 130.90625 63.710938 L 122.097656 70.683594 L 139.292969 92.40625 Z M 148.097656 85.4375 " clip-rule="nonzero"/></clipPath><clipPath id="173bedc25b"><path d="M 102.695312 94.375 L 143.746094 94.375 L 143.746094 114.199219 L 102.695312 114.199219 Z M 102.695312 94.375 " clip-rule="nonzero"/></clipPath><clipPath id="c6631632ff"><path d="M 143.65625 94.605469 C 143.355469 97.449219 141.933594 99.621094 140.8125 101.417969 C 139.386719 103.589844 137.441406 106.285156 135.644531 107.933594 C 134.222656 109.28125 133.023438 110.027344 131.226562 110.925781 C 128.828125 112.125 125.535156 113.996094 122.390625 114.148438 C 118.945312 114.371094 113.929688 112.875 111.234375 111.601562 C 109.4375 110.703125 108.386719 109.65625 107.339844 108.457031 C 106.441406 107.484375 105.992188 105.835938 105.242188 105.160156 C 104.71875 104.710938 103.746094 104.789062 103.519531 104.414062 C 103.296875 104.039062 103.746094 103.214844 103.519531 102.992188 C 103.445312 102.839844 102.847656 103.066406 102.847656 103.066406 C 102.773438 102.992188 103.445312 102.765625 103.445312 102.765625 C 103.445312 102.765625 102.847656 102.839844 102.773438 102.914062 C 102.773438 103.214844 104.34375 103.589844 105.167969 104.339844 C 106.589844 105.535156 107.789062 108.53125 110.035156 110.027344 C 112.730469 111.902344 117.296875 113.847656 120.894531 113.773438 C 124.5625 113.773438 129.203125 111.453125 131.824219 109.953125 C 133.472656 109.054688 134.222656 108.308594 135.496094 107.035156 C 137.292969 105.238281 139.761719 101.941406 141.109375 99.84375 C 142.082031 98.347656 143.132812 96.925781 143.207031 95.875 C 143.355469 95.277344 142.757812 94.605469 142.90625 94.453125 C 143.058594 94.378906 143.65625 94.605469 143.65625 94.605469 " clip-rule="nonzero"/></clipPath><clipPath id="e7b03a681a"><path d="M 116.566406 128.621094 L 119.609375 128.621094 L 119.609375 132.796875 L 116.566406 132.796875 Z M 116.566406 128.621094 " clip-rule="nonzero"/></clipPath><clipPath id="f3a6a9f94a"><path d="M 119.582031 130.171875 C 119.28125 132.191406 118.832031 132.640625 118.460938 132.71875 C 118.085938 132.867188 117.410156 132.71875 117.113281 132.417969 C 116.738281 132.117188 116.511719 131.070312 116.664062 130.621094 C 116.8125 130.246094 117.410156 129.871094 117.785156 129.796875 C 118.234375 129.722656 118.910156 129.945312 119.132812 130.246094 C 119.433594 130.546875 119.65625 131.21875 119.507812 131.59375 C 119.433594 132.042969 118.984375 132.492188 118.609375 132.71875 C 118.234375 132.867188 117.5625 132.792969 117.1875 132.492188 C 116.886719 132.269531 116.585938 131.742188 116.585938 131.292969 C 116.511719 130.621094 117.035156 129.046875 117.5625 128.75 C 117.859375 128.523438 118.609375 128.675781 118.910156 128.898438 C 119.28125 129.125 119.582031 130.171875 119.582031 130.171875 " clip-rule="nonzero"/></clipPath><clipPath id="3a86f4dbf6"><path d="M 114.769531 141.351562 L 117.570312 141.351562 L 117.570312 143.785156 L 114.769531 143.785156 Z M 114.769531 141.351562 " clip-rule="nonzero"/></clipPath><clipPath id="a521e4b0f0"><path d="M 117.5625 142.226562 C 116.363281 144.25 115.164062 143.875 114.863281 143.425781 C 114.640625 142.976562 114.863281 141.777344 115.238281 141.476562 C 115.613281 141.179688 117.261719 141.554688 117.261719 141.554688 " clip-rule="nonzero"/></clipPath><clipPath id="e92f4515de"><path d="M 115.519531 140.601562 L 118.386719 140.601562 L 118.386719 143 L 115.519531 143 Z M 115.519531 140.601562 " clip-rule="nonzero"/></clipPath><clipPath id="e9bdb101fa"><path d="M 118.382812 141.476562 C 117.113281 143.425781 115.914062 143.050781 115.613281 142.675781 C 115.390625 142.226562 115.613281 141.027344 115.988281 140.730469 C 116.363281 140.429688 118.011719 140.804688 118.011719 140.804688 " clip-rule="nonzero"/></clipPath></defs><g clip-path="url(#d48f420f98)"><g clip-path="url(#556e3e39b8)"><path fill="#000000" d="M 18.644531 68.769531 L 65.84375 68.769531 L 65.84375 105.835938 L 18.644531 105.835938 Z M 18.644531 68.769531 " fill-opacity="1" fill-rule="nonzero"/></g></g><g clip-path="url(#4f0a146eac)"><g clip-path="url(#a8abde0f43)"><path fill="#000000" d="M 59.003906 56.039062 L 93.164062 56.039062 L 93.164062 75.136719 L 59.003906 75.136719 Z M 59.003906 56.039062 " fill-opacity="1" fill-rule="nonzero"/></g></g><g clip-path="url(#96b1abfd3b)"><g clip-path="url(#6cbba24841)"><path fill="#000000" d="M 85.363281 52.074219 L 107.210938 52.074219 L 107.210938 63.605469 L 85.363281 63.605469 Z M 85.363281 52.074219 " fill-opacity="1" fill-rule="nonzero"/></g></g><g clip-path="url(#f6b70596eb)"><g clip-path="url(#a7bc62c32b)"><path fill="#000000" d="M 100.863281 51.171875 L 111.882812 51.171875 L 111.882812 58.738281 L 100.863281 58.738281 Z M 100.863281 51.171875 " fill-opacity="1" fill-rule="nonzero"/></g></g><g clip-path="url(#5a76ed8cdf)"><g clip-path="url(#81d41c2463)"><path fill="#000000" d="M 114.339844 49.375 L 134.339844 49.375 L 134.339844 68.695312 L 114.339844 68.695312 Z M 114.339844 49.375 " fill-opacity="1" fill-rule="nonzero"/></g></g><g clip-path="url(#9272e77ee0)"><g clip-path="url(#7f39cc7116)"><path fill="#000000" d="M 113.890625 50.5 L 132.53125 50.5 L 132.53125 61.058594 L 113.890625 61.058594 Z M 113.890625 50.5 " fill-opacity="1" fill-rule="nonzero"/></g></g><g clip-path="url(#e1132f8176)"><g clip-path="url(#9ad59d332f)"><path fill="#000000" d="M 114.191406 49.226562 L 121.453125 49.226562 L 121.453125 56.632812 L 114.191406 56.632812 Z M 114.191406 49.226562 " fill-opacity="1" fill-rule="nonzero"/></g></g><g clip-path="url(#3fa1010063)"><g clip-path="url(#c9f9ea6ae8)"><path fill="#000000" d="M 124.675781 50.875 L 133.449219 50.875 L 133.449219 58.8125 L 124.675781 58.8125 Z M 124.675781 50.875 " fill-opacity="1" fill-rule="nonzero"/></g></g><g clip-path="url(#05c92ede4c)"><g clip-path="url(#9c30977a36)"><path fill="#000000" d="M 124.449219 51.324219 L 133.277344 51.324219 L 133.277344 59.335938 L 124.449219 59.335938 Z M 124.449219 51.324219 " fill-opacity="1" fill-rule="nonzero"/></g></g><g clip-path="url(#f462bb0c2b)"><g clip-path="url(#14b674c400)"><path fill="#000000" d="M 101.3125 64.128906 L 120.707031 64.128906 L 120.707031 74.535156 L 101.3125 74.535156 Z M 101.3125 64.128906 " fill-opacity="1" fill-rule="nonzero"/></g></g><g clip-path="url(#faf800a79a)"><g clip-path="url(#0343903ec8)"><path fill="#000000" d="M 80.71875 75.136719 L 96.96875 75.136719 L 96.96875 84.71875 L 80.71875 84.71875 Z M 80.71875 75.136719 " fill-opacity="1" fill-rule="nonzero"/></g></g><g clip-path="url(#8bcbc61f48)"><g clip-path="url(#b187c05af3)"><path fill="#000000" d="M 88.730469 67.796875 L 109.789062 67.796875 L 109.789062 81.800781 L 88.730469 81.800781 Z M 88.730469 67.796875 " fill-opacity="1" fill-rule="nonzero"/></g></g><g clip-path="url(#32aacc4c4b)"><g clip-path="url(#4f9534083e)"><path fill="#000000" d="M 62.675781 92.957031 L 74.429688 92.957031 L 74.429688 100.070312 L 62.675781 100.070312 Z M 62.675781 92.957031 " fill-opacity="1" fill-rule="nonzero"/></g></g><g clip-path="url(#33e93996a6)"><g clip-path="url(#a07436d20a)"><path fill="#000000" d="M 56.011719 78.65625 L 89.480469 78.65625 L 89.480469 138.011719 L 56.011719 138.011719 Z M 56.011719 78.65625 " fill-opacity="1" fill-rule="nonzero"/></g></g><g clip-path="url(#3550452e17)"><g clip-path="url(#088fea1d3e)"><path fill="#000000" d="M 77.949219 84.570312 L 95.542969 84.570312 L 95.542969 93.707031 L 77.949219 93.707031 Z M 77.949219 84.570312 " fill-opacity="1" fill-rule="nonzero"/></g></g><g clip-path="url(#bf15a74f6c)"><g clip-path="url(#eed7832d51)"><path fill="#000000" d="M 93.824219 87.941406 L 122.316406 87.941406 L 122.316406 107.035156 L 93.824219 107.035156 Z M 93.824219 87.941406 " fill-opacity="1" fill-rule="nonzero"/></g></g><g clip-path="url(#c866fc1a9b)"><g clip-path="url(#cb433c29ad)"><path fill="#000000" d="M 70.011719 97.972656 L 81.46875 97.972656 L 81.46875 109.878906 L 70.011719 109.878906 Z M 70.011719 97.972656 " fill-opacity="1" fill-rule="nonzero"/></g></g><g clip-path="url(#f4a153fc6a)"><g clip-path="url(#b61a86f673)"><path fill="#000000" d="M 75.105469 103.738281 L 93.898438 103.738281 L 93.898438 111.601562 L 75.105469 111.601562 Z M 75.105469 103.738281 " fill-opacity="1" fill-rule="nonzero"/></g></g><g clip-path="url(#ca6b24520f)"><g clip-path="url(#4d000009e3)"><path fill="#000000" d="M 92.476562 101.867188 L 100.707031 101.867188 L 100.707031 109.878906 L 92.476562 109.878906 Z M 92.476562 101.867188 " fill-opacity="1" fill-rule="nonzero"/></g></g><g clip-path="url(#b6ac83ace2)"><g clip-path="url(#2b108a0787)"><path fill="#000000" d="M 94.046875 99.246094 L 114.589844 99.246094 L 114.589844 118.941406 L 94.046875 118.941406 Z M 94.046875 99.246094 " fill-opacity="1" fill-rule="nonzero"/></g></g><g clip-path="url(#9a24df020f)"><g clip-path="url(#b2f3f919c0)"><path fill="#000000" d="M 106.554688 110.925781 L 118.757812 110.925781 L 118.757812 134.382812 L 106.554688 134.382812 Z M 106.554688 110.925781 " fill-opacity="1" fill-rule="nonzero"/></g></g><g clip-path="url(#7222925b96)"><g clip-path="url(#cbae094f9d)"><path fill="#000000" d="M 115.914062 110.851562 L 129.617188 110.851562 L 129.617188 140.933594 L 115.914062 140.933594 Z M 115.914062 110.851562 " fill-opacity="1" fill-rule="nonzero"/></g></g><g clip-path="url(#fbdcfee0d2)"><g clip-path="url(#d05e1b3761)"><path fill="#000000" d="M 119.359375 118.789062 L 128.117188 118.789062 L 128.117188 138.195312 L 119.359375 138.195312 Z M 119.359375 118.789062 " fill-opacity="1" fill-rule="nonzero"/></g></g><g clip-path="url(#80ed2f52de)"><g clip-path="url(#dbdd63e4c7)"><path fill="#000000" d="M 73.605469 109.65625 L 83.042969 109.65625 L 83.042969 122.296875 L 73.605469 122.296875 Z M 73.605469 109.65625 " fill-opacity="1" fill-rule="nonzero"/></g></g><g clip-path="url(#1dd9c84435)"><g clip-path="url(#ec3651767f)"><path fill="#000000" d="M 77.050781 116.542969 L 93.300781 116.542969 L 93.300781 124.929688 L 77.050781 124.929688 Z M 77.050781 116.542969 " fill-opacity="1" fill-rule="nonzero"/></g></g><g clip-path="url(#05ce1babf1)"><g clip-path="url(#e0c8c1c273)"><path fill="#000000" d="M 92.476562 113.398438 L 108.574219 113.398438 L 108.574219 133.269531 L 92.476562 133.269531 Z M 92.476562 113.398438 " fill-opacity="1" fill-rule="nonzero"/></g></g><g clip-path="url(#7609078e1e)"><g clip-path="url(#df12d2db74)"><path fill="#000000" d="M 76.453125 121.109375 L 84.164062 121.109375 L 84.164062 132.347656 L 76.453125 132.347656 Z M 76.453125 121.109375 " fill-opacity="1" fill-rule="nonzero"/></g></g><g clip-path="url(#42e87d1c6b)"><g clip-path="url(#78747f2282)"><path fill="#000000" d="M 79.222656 128.523438 L 90.015625 128.523438 L 90.015625 137.734375 L 79.222656 137.734375 Z M 79.222656 128.523438 " fill-opacity="1" fill-rule="nonzero"/></g></g><g clip-path="url(#0bfa11cf67)"><g clip-path="url(#65ab1ffe39)"><path fill="#000000" d="M 43.429688 129.273438 L 64.976562 129.273438 L 64.976562 139.679688 L 43.429688 139.679688 Z M 43.429688 129.273438 " fill-opacity="1" fill-rule="nonzero"/></g></g><g clip-path="url(#1dde8d72ae)"><g clip-path="url(#ebc53a38a9)"><path fill="#000000" d="M 53.539062 127.476562 L 120.03125 127.476562 L 120.03125 140.878906 L 53.539062 140.878906 Z M 53.539062 127.476562 " fill-opacity="1" fill-rule="nonzero"/></g></g><g clip-path="url(#248468ed4f)"><g clip-path="url(#104be61a44)"><path fill="#000000" d="M 98.015625 129.421875 L 123.496094 129.421875 L 123.496094 150.464844 L 98.015625 150.464844 Z M 98.015625 129.421875 " fill-opacity="1" fill-rule="nonzero"/></g></g><g clip-path="url(#76913347cf)"><g clip-path="url(#850069e946)"><path fill="#000000" d="M 29.953125 143.050781 L 110.371094 143.050781 L 110.371094 183.261719 L 29.953125 183.261719 Z M 29.953125 143.050781 " fill-opacity="1" fill-rule="nonzero"/></g></g><g clip-path="url(#d85d5c6165)"><g clip-path="url(#8e7bcca543)"><path fill="#000000" d="M 92.328125 144.699219 L 117.179688 144.699219 L 117.179688 165.289062 L 92.328125 165.289062 Z M 92.328125 144.699219 " fill-opacity="1" fill-rule="nonzero"/></g></g><g clip-path="url(#9a0f274338)"><g clip-path="url(#ce405ee715)"><path fill="#000000" d="M 93.597656 147.617188 L 112.691406 147.617188 L 112.691406 163.644531 L 93.597656 163.644531 Z M 93.597656 147.617188 " fill-opacity="1" fill-rule="nonzero"/></g></g><g clip-path="url(#b5c2583ef1)"><g clip-path="url(#8f349f4d85)"><path fill="#000000" d="M 144.667969 75.808594 L 151.40625 75.808594 L 151.40625 82.546875 L 144.667969 82.546875 Z M 144.667969 75.808594 " fill-opacity="1" fill-rule="nonzero"/></g></g><g clip-path="url(#334afd7f70)"><g clip-path="url(#ead9789049)"><path fill="#000000" d="M 145.117188 60.832031 L 195.242188 60.832031 L 195.242188 82.472656 L 145.117188 82.472656 Z M 145.117188 60.832031 " fill-opacity="1" fill-rule="nonzero"/></g></g><g clip-path="url(#ae34fcd22e)"><g clip-path="url(#c1a228220c)"><path fill="#000000" d="M 140.625 80.976562 L 147.4375 80.976562 L 147.4375 87.339844 L 140.625 87.339844 Z M 140.625 80.976562 " fill-opacity="1" fill-rule="nonzero"/></g></g><g clip-path="url(#3b858c32d2)"><g clip-path="url(#130d7f7c87)"><path fill="#000000" d="M 140.921875 72.738281 L 177.171875 72.738281 L 177.171875 90.933594 L 140.921875 90.933594 Z M 140.921875 72.738281 " fill-opacity="1" fill-rule="nonzero"/></g></g><g clip-path="url(#fb48787b08)"><g clip-path="url(#9586556b85)"><path fill="#000000" d="M 144.667969 72.550781 L 159.042969 72.550781 L 159.042969 87.546875 L 144.667969 87.546875 Z M 144.667969 72.550781 " fill-opacity="1" fill-rule="nonzero"/></g></g><g clip-path="url(#7238bae57a)"><g clip-path="url(#99b887cb3e)"><path fill="#000000" d="M 143.167969 80.902344 L 151.253906 80.902344 L 151.253906 88.164062 L 143.167969 88.164062 Z M 143.167969 80.902344 " fill-opacity="1" fill-rule="nonzero"/></g></g><g clip-path="url(#719325caee)"><g clip-path="url(#2f48add0be)"><path fill="#000000" d="M 165.78125 59.859375 L 196.695312 59.859375 L 196.695312 89.0625 L 165.78125 89.0625 Z M 165.78125 59.859375 " fill-opacity="1" fill-rule="nonzero"/></g></g><g clip-path="url(#4b07be4fc7)"><g clip-path="url(#ecb67e103a)"><path fill="#000000" d="M 165.78125 68.769531 L 208.308594 68.769531 L 208.308594 91.308594 L 165.78125 91.308594 Z M 165.78125 68.769531 " fill-opacity="1" fill-rule="nonzero"/></g></g><g clip-path="url(#e3a1cf404a)"><g clip-path="url(#bf87f72739)"><path fill="#000000" d="M 201.574219 68.394531 L 230.042969 68.394531 L 230.042969 79.925781 L 201.574219 79.925781 Z M 201.574219 68.394531 " fill-opacity="1" fill-rule="nonzero"/></g></g><g clip-path="url(#a1b87a4a8d)"><g clip-path="url(#aee8d783a1)"><path fill="#000000" d="M 223.515625 72.441406 L 238.714844 72.441406 L 238.714844 90.015625 L 223.515625 90.015625 Z M 223.515625 72.441406 " fill-opacity="1" fill-rule="nonzero"/></g></g><g clip-path="url(#8a4c0af33b)"><g clip-path="url(#b711e197e5)"><path fill="#000000" d="M 187.949219 51.324219 L 269.1875 51.324219 L 269.1875 89.136719 L 187.949219 89.136719 Z M 187.949219 51.324219 " fill-opacity="1" fill-rule="nonzero"/></g></g><g clip-path="url(#ae18698c4b)"><g clip-path="url(#f50a039a17)"><path fill="#000000" d="M 261.628906 78.207031 L 273.609375 78.207031 L 273.609375 88.464844 L 261.628906 88.464844 Z M 261.628906 78.207031 " fill-opacity="1" fill-rule="nonzero"/></g></g><g clip-path="url(#532f4dbf93)"><g clip-path="url(#c3e867ffc1)"><path fill="#000000" d="M 195.660156 76.183594 L 216.167969 76.183594 L 216.167969 87.191406 L 195.660156 87.191406 Z M 195.660156 76.183594 " fill-opacity="1" fill-rule="nonzero"/></g></g><g clip-path="url(#4c3ab98963)"><g clip-path="url(#f4b9b790c4)"><path fill="#000000" d="M 208.539062 80.824219 L 219.171875 80.824219 L 219.171875 90.410156 L 208.539062 90.410156 Z M 208.539062 80.824219 " fill-opacity="1" fill-rule="nonzero"/></g></g><g clip-path="url(#e3cf68565a)"><g clip-path="url(#e458e1b82b)"><path fill="#000000" d="M 218.796875 89.960938 L 235.359375 89.960938 L 235.359375 101.640625 L 218.796875 101.640625 Z M 218.796875 89.960938 " fill-opacity="1" fill-rule="nonzero"/></g></g><g clip-path="url(#68dd8e7329)"><g clip-path="url(#4afe4a3506)"><path fill="#000000" d="M 199.703125 91.308594 L 227.972656 91.308594 L 227.972656 110.253906 L 199.703125 110.253906 Z M 199.703125 91.308594 " fill-opacity="1" fill-rule="nonzero"/></g></g><g clip-path="url(#88a20a131a)"><g clip-path="url(#5630b28315)"><path fill="#000000" d="M 195.210938 93.105469 L 206.726562 93.105469 L 206.726562 100.96875 L 195.210938 100.96875 Z M 195.210938 93.105469 " fill-opacity="1" fill-rule="nonzero"/></g></g><g clip-path="url(#0024f4ff81)"><g clip-path="url(#eecda6c2c9)"><path fill="#000000" d="M 213.855469 107.332031 L 222.617188 107.332031 L 222.617188 116.914062 L 213.855469 116.914062 Z M 213.855469 107.332031 " fill-opacity="1" fill-rule="nonzero"/></g></g><g clip-path="url(#576025ed13)"><g clip-path="url(#f1678aef91)"><path fill="#000000" d="M 177.988281 86.964844 L 241.753906 86.964844 L 241.753906 121.261719 L 177.988281 121.261719 Z M 177.988281 86.964844 " fill-opacity="1" fill-rule="nonzero"/></g></g><g clip-path="url(#3c84b22f35)"><g clip-path="url(#815121b05a)"><path fill="#000000" d="M 225.386719 111.300781 L 236.761719 111.300781 L 236.761719 118.863281 L 225.386719 118.863281 Z M 225.386719 111.300781 " fill-opacity="1" fill-rule="nonzero"/></g></g><g clip-path="url(#9ef07df502)"><g clip-path="url(#48a7ad2ed2)"><path fill="#000000" d="M 169.378906 87.039062 L 191.914062 87.039062 L 191.914062 110.371094 L 169.378906 110.371094 Z M 169.378906 87.039062 " fill-opacity="1" fill-rule="nonzero"/></g></g><g clip-path="url(#d0264afba6)"><g clip-path="url(#c7258eca38)"><path fill="#000000" d="M 169.828125 90.710938 L 217.675781 90.710938 L 217.675781 144.539062 L 169.828125 144.539062 Z M 169.828125 90.710938 " fill-opacity="1" fill-rule="nonzero"/></g></g><g clip-path="url(#0df6bc3872)"><g clip-path="url(#4ffb3c4538)"><path fill="#000000" d="M 166.082031 71.089844 L 185.894531 71.089844 L 185.894531 88.761719 L 166.082031 88.761719 Z M 166.082031 71.089844 " fill-opacity="1" fill-rule="nonzero"/></g></g><g clip-path="url(#12d79111d5)"><g clip-path="url(#4339da8377)"><path fill="#000000" d="M 164.882812 97 L 186.375 97 L 186.375 130.242188 L 164.882812 130.242188 Z M 164.882812 97 " fill-opacity="1" fill-rule="nonzero"/></g></g><g clip-path="url(#eb46573b90)"><g clip-path="url(#5a6e615264)"><path fill="#000000" d="M 165.632812 107.257812 L 178.960938 107.257812 L 178.960938 129.488281 L 165.632812 129.488281 Z M 165.632812 107.257812 " fill-opacity="1" fill-rule="nonzero"/></g></g><g clip-path="url(#c3eae71f06)"><g clip-path="url(#3b6b9e99e6)"><path fill="#000000" d="M 176.265625 116.09375 L 192.890625 116.09375 L 192.890625 134.277344 L 176.265625 134.277344 Z M 176.265625 116.09375 " fill-opacity="1" fill-rule="nonzero"/></g></g><g clip-path="url(#0f7f5cb464)"><g clip-path="url(#2108f59306)"><path fill="#000000" d="M 177.765625 113.097656 L 187.574219 113.097656 L 187.574219 133.101562 L 177.765625 133.101562 Z M 177.765625 113.097656 " fill-opacity="1" fill-rule="nonzero"/></g></g><g clip-path="url(#0d2a2158a7)"><g clip-path="url(#40b68cf7e6)"><path fill="#e7191f" d="M 87.234375 73.414062 L 101.3125 73.414062 L 101.3125 127.46875 L 87.234375 127.46875 Z M 87.234375 73.414062 " fill-opacity="1" fill-rule="nonzero"/></g></g><g clip-path="url(#91da1092dd)"><g clip-path="url(#7eb04fd116)"><path fill="#e7191f" d="M 100.1875 46.980469 L 127.144531 46.980469 L 127.144531 134.484375 L 100.1875 134.484375 Z M 100.1875 46.980469 " fill-opacity="1" fill-rule="nonzero"/></g></g><g clip-path="url(#6cbf77068c)"><g clip-path="url(#cb59051256)"><path fill="#e7191f" d="M 111.644531 141.703125 L 120.414062 141.703125 L 120.414062 150.238281 L 111.644531 150.238281 Z M 111.644531 141.703125 " fill-opacity="1" fill-rule="nonzero"/></g></g><g clip-path="url(#6143b604b4)"><g clip-path="url(#8eab77cc23)"><path fill="#e7191f" d="M 111.421875 138.859375 L 122.800781 138.859375 L 122.800781 181.003906 L 111.421875 181.003906 Z M 111.421875 138.859375 " fill-opacity="1" fill-rule="nonzero"/></g></g><g clip-path="url(#99da80c1d5)"><g clip-path="url(#55ebb06c5a)"><path fill="#e7191f" d="M 86.113281 153.609375 L 96.519531 153.609375 L 96.519531 187.964844 L 86.113281 187.964844 Z M 86.113281 153.609375 " fill-opacity="1" fill-rule="nonzero"/></g></g><g clip-path="url(#ef0a7d8773)"><g clip-path="url(#d853bae844)"><path fill="#0adb57" d="M 30.402344 110.777344 L 37.144531 110.777344 L 37.144531 117.292969 L 30.402344 117.292969 Z M 30.402344 110.777344 " fill-opacity="1" fill-rule="nonzero"/></g></g><g clip-path="url(#dfae4b171a)"><g clip-path="url(#2efcb1c6b2)"><path fill="#07891c" d="M 110.820312 88.839844 L 122.964844 88.839844 L 122.964844 96.101562 L 110.820312 96.101562 Z M 110.820312 88.839844 " fill-opacity="1" fill-rule="nonzero"/></g></g><g clip-path="url(#487d3176cd)"><g clip-path="url(#64f65fc29c)"><path fill="#07891c" d="M 104.007812 84.871094 L 122.558594 84.871094 L 122.558594 98.796875 L 104.007812 98.796875 Z M 104.007812 84.871094 " fill-opacity="1" fill-rule="nonzero"/></g></g><g clip-path="url(#57cf4a398d)"><g clip-path="url(#d9190ea704)"><path fill="#07891c" d="M 115.839844 84.71875 L 124 84.71875 L 124 91.457031 L 115.839844 91.457031 Z M 115.839844 84.71875 " fill-opacity="1" fill-rule="nonzero"/></g></g><g clip-path="url(#bb78ad06fb)"><g clip-path="url(#bbcca1931b)"><path fill="#07891c" d="M 121.980469 85.394531 L 157.90625 85.394531 L 157.90625 92.507812 L 121.980469 92.507812 Z M 121.980469 85.394531 " fill-opacity="1" fill-rule="nonzero"/></g></g><g clip-path="url(#2de79044b5)"><g clip-path="url(#3ad41e5b1f)"><path fill="#07891c" d="M 152.605469 85.019531 L 173.636719 85.019531 L 173.636719 92.207031 L 152.605469 92.207031 Z M 152.605469 85.019531 " fill-opacity="1" fill-rule="nonzero"/></g></g><g clip-path="url(#42af4f6ea6)"><g clip-path="url(#7a7bc9f593)"><path fill="#07891c" d="M 121.15625 90.109375 L 175.59375 90.109375 L 175.59375 97.824219 L 121.15625 97.824219 Z M 121.15625 90.109375 " fill-opacity="1" fill-rule="nonzero"/></g></g><g clip-path="url(#abb32ee9ae)"><g clip-path="url(#22fe7f0458)"><path fill="#07891c" d="M 166.382812 85.242188 L 176.800781 85.242188 L 176.800781 92.433594 L 166.382812 92.433594 Z M 166.382812 85.242188 " fill-opacity="1" fill-rule="nonzero"/></g></g><g clip-path="url(#316a579574)"><g clip-path="url(#72be902b79)"><path fill="#07891c" d="M 179.5625 82.996094 L 287.523438 82.996094 L 287.523438 91.683594 L 179.5625 91.683594 Z M 179.5625 82.996094 " fill-opacity="1" fill-rule="nonzero"/></g></g><g clip-path="url(#7aed101e25)"><g clip-path="url(#11b7055bae)"><path fill="#07891c" d="M 188.695312 88.988281 L 287.523438 88.988281 L 287.523438 97.449219 L 188.695312 97.449219 Z M 188.695312 88.988281 " fill-opacity="1" fill-rule="nonzero"/></g></g><g clip-path="url(#10fde64048)"><g clip-path="url(#d81b40ca70)"><g clip-path="url(#a5fb71774b)"><g clip-path="url(#1e6e417183)"><path fill="#000000" d="M 124.226562 69 C 124.457031 69.71875 124.078125 70.445312 123.636719 71.121094 L 123.628906 71.136719 C 123.519531 71.3125 123.402344 71.460938 123.285156 71.632812 C 123.226562 71.71875 123.164062 71.804688 123.097656 71.886719 L 123.550781 72.503906 C 123.800781 72.40625 124.058594 72.351562 124.320312 72.339844 C 125.027344 72.316406 125.570312 72.726562 125.792969 73.390625 L 126.554688 73.113281 C 126.3125 72.40625 125.765625 71.820312 125.042969 71.625 C 125.8125 71.273438 126.738281 71.046875 127.632812 70.9375 C 127.898438 70.917969 128.175781 70.886719 128.433594 70.882812 L 128.449219 70.882812 C 128.707031 70.867188 128.984375 70.878906 129.25 70.878906 C 129.515625 70.898438 129.796875 70.90625 130.050781 70.9375 L 130.363281 70.96875 C 130.914062 71.042969 131.523438 71.160156 132.054688 71.300781 L 132.640625 71.464844 L 133.21875 71.65625 L 133.789062 71.875 L 134.347656 72.113281 C 134.9375 72.386719 135.578125 72.722656 136.121094 73.066406 C 136.628906 73.382812 137.152344 73.761719 137.617188 74.132812 C 137.921875 74.378906 138.320312 74.734375 138.601562 75 C 138.871094 75.261719 139.265625 75.675781 139.511719 75.957031 C 139.820312 76.308594 140.234375 76.851562 140.515625 77.230469 C 140.875 77.75 141.308594 78.390625 141.609375 78.941406 C 141.863281 79.386719 142.105469 79.859375 142.347656 80.386719 C 142.503906 80.730469 142.6875 81.160156 142.8125 81.515625 C 142.945312 81.859375 143.089844 82.304688 143.191406 82.65625 L 143.355469 83.265625 C 143.386719 83.398438 143.492188 83.910156 143.523438 84.050781 C 143.652344 84.789062 143.730469 85.507812 143.746094 86.257812 L 143.738281 86.679688 C 143.730469 87.195312 143.65625 87.761719 143.574219 88.28125 L 144.371094 88.386719 C 144.40625 88.121094 144.472656 87.789062 144.488281 87.523438 C 144.511719 87.234375 144.546875 86.960938 144.542969 86.664062 L 144.550781 86.238281 C 144.546875 86.09375 144.539062 85.957031 144.535156 85.8125 C 144.53125 85.566406 144.5 85.210938 144.46875 84.960938 C 144.4375 84.589844 144.371094 84.242188 144.316406 83.882812 C 144.277344 83.710938 144.175781 83.207031 144.132812 83.046875 C 144.132812 83.046875 143.972656 82.449219 143.972656 82.449219 C 143.917969 82.226562 143.785156 81.855469 143.71875 81.632812 C 143.640625 81.390625 143.511719 81.078125 143.421875 80.835938 C 143.332031 80.59375 143.183594 80.28125 143.085938 80.042969 C 142.832031 79.496094 142.582031 79.003906 142.316406 78.539062 C 141.992188 77.953125 141.550781 77.300781 141.167969 76.746094 C 140.867188 76.34375 140.449219 75.792969 140.121094 75.421875 C 139.859375 75.125 139.445312 74.691406 139.164062 74.414062 C 138.867188 74.132812 138.445312 73.761719 138.125 73.5 C 137.644531 73.117188 137.09375 72.71875 136.578125 72.398438 C 135.992188 72.023438 135.320312 71.671875 134.6875 71.378906 L 134.09375 71.125 L 133.496094 70.898438 L 132.886719 70.695312 L 132.265625 70.519531 C 131.691406 70.375 131.058594 70.25 130.46875 70.171875 L 130.160156 70.140625 C 129.871094 70.105469 129.59375 70.097656 129.304688 70.078125 L 129.28125 70.078125 C 128.996094 70.074219 128.71875 70.0625 128.425781 70.082031 C 128.128906 70.085938 127.855469 70.117188 127.570312 70.140625 L 127.546875 70.144531 C 126.566406 70.261719 125.539062 70.515625 124.691406 70.910156 C 125.050781 70.214844 125.242188 69.445312 124.988281 68.71875 Z M 124.226562 69 " fill-opacity="1" fill-rule="nonzero"/></g></g></g></g><g clip-path="url(#173bedc25b)"><g clip-path="url(#c6631632ff)"><path fill="#000000" d="M 99.777344 91.457031 L 146.664062 91.457031 L 146.664062 117.21875 L 99.777344 117.21875 Z M 99.777344 91.457031 " fill-opacity="1" fill-rule="nonzero"/></g></g><g clip-path="url(#e7b03a681a)"><g clip-path="url(#f3a6a9f94a)"><path fill="#e7191f" d="M 113.59375 125.753906 L 122.652344 125.753906 L 122.652344 135.804688 L 113.59375 135.804688 Z M 113.59375 125.753906 " fill-opacity="1" fill-rule="nonzero"/></g></g><g clip-path="url(#3a86f4dbf6)"><g clip-path="url(#a521e4b0f0)"><path fill="#e7191f" d="M 111.871094 138.484375 L 120.640625 138.484375 L 120.640625 147.019531 L 111.871094 147.019531 Z M 111.871094 138.484375 " fill-opacity="1" fill-rule="nonzero"/></g></g><g clip-path="url(#e92f4515de)"><g clip-path="url(#e9bdb101fa)"><path fill="#e7191f" d="M 112.617188 137.734375 L 121.386719 137.734375 L 121.386719 146.269531 L 112.617188 146.269531 Z M 112.617188 137.734375 " fill-opacity="1" fill-rule="nonzero"/></g></g></svg>