<?xml version="1.0" encoding="UTF-8"?>
<svg id="Layer_1" data-name="Layer 1" xmlns="http://www.w3.org/2000/svg" viewBox="0 0 414 200">
  <defs>
    <style>
      .cls-1 {
        fill: #fff9b8;
      }

      .cls-2 {
        fill: #fff200;
      }

      .cls-3, .cls-4 {
        fill: #fbb040;
      }

      .cls-5 {
        fill: #9ed2f1;
      }

      .cls-6 {
        fill: #8fc9e3;
      }

      .cls-7 {
        fill: #bdb6b1;
      }

      .cls-8 {
        fill: #cbc5c0;
      }

      .cls-9 {
        fill: #dbd5d1;
      }

      .cls-10 {
        fill: #423d39;
      }

      .cls-11 {
        fill: #57524d;
      }

      .cls-12 {
        fill: #757474;
      }

      .cls-13 {
        fill: #4e4945;
      }

      .cls-4 {
        stroke: #231f20;
        stroke-miterlimit: 10;
      }
    </style>
  </defs>
  <path d="M244.82,123.46c0,.18,.02,.36,.03,.55-.36,.46,.94,1.16-.29,1.5-.35-.56-.74-1.11-1.05-1.69-1.92-3.61-5.35-5.72-9.47-7.18-.35-.12-.71-.49-1.06-.14-.16,.16-.11,.55-.03,.81,.75,2.22,1.31,4.48,2.58,6.57,1.84,3.02,3.94,5.96,5.1,9.25,.67,1.89,.57,1.92,2.52,.78,.15,.27,.3,.54,.44,.81-.26,.36-.64,.57-1.11,.67-.87-.06-1.34,.27-1.36,1.03l-.49,1.03c-.06,.2-.12,.39-.17,.59,0,0-.03,.12-.03,.12-.33,0-.66-.01-.99-.02,.06-.24,.13-.48,.19-.72,.06-.17,.12-.35,.18-.52-.09-1.71,.07-3.46-1.22-5.03-1.73,2.41-2.8,5.03-5.49,6.73-1.95,1.23-3.18,2.8-2.36,5.06,.32,.89,.37,1.83,.28,2.77,.07,.91-.34,.99-1.1,.48l-.28-3.03c.02-.28,.1-.65-.34-.68-.36-.03-.4,.23-.2,.47-.88,.96-1.64,2.03-2.66,2.86-2.68,2.16-4.59,4.65-5.2,7.8-.08,.08-.11,.17-.1,.27-.88,2.74-2.03,5.38-3.73,8.08,3.08-.22,5.06-1.59,6.85-3.32,1.17-1.14,1.56-2.7,2.9-3.73,.51,.14,.49,.51,.49,.87-.12,.19-.23,.38-.35,.57-.53,.89-1.22,1.75-.48,2.8-.02,.24-.04,.47-.05,.71-.33-.12-.67-.24-1-.36-.85-.46-1.03,.31-1.38,.62-1.3,1.14-2.74,2.2-4.54,2.51-2.17,.37-3.74,1.05-5.17,2.67-1.94,2.19-4.98,3.01-8.45,2.94,1.09,1.1,2.51,.85,3.63,1.25-.04,.32-.09,.63-.13,.95-.54,.31-1.13,.44-1.77,.39-.47-.08-.97-.14-1.01-.68-2.12-.99-4.39-1.78-6.13-3.31-.41-.36-1.04-.18-1.57-.16-4.86,.17-8.86-1.22-11.71-4.72-.39-.48-.69-1.07-1.58-.69-.04,.03-.12,.07-.12,.09,0,.08,.05,.17,.08,.25,.33,.71,.67,1.42,1,2.12-.02,.11,.02,.2,.09,.29,.85,1.99,2.78,3.27,4.33,4.8-1.01,.74-1.6-.06-2.14-.53-.87-.76-1.81-1.31-3.08-1.36-.47-.52-1.01-.51-1.6-.16-.28-.04-.55-.08-.83-.12,.47-.86,1.43-.24,2.1-.51,.76-.09,.81-.4,.52-.97-.47-.9-.91-1.82-1.2-2.77-.29-.96-.84-1.24-2-1.26-4.35-.1-7.84-1.57-9.93-5.03-.34-.57-.68-1.15-1.08-1.68-.41-.55-1.06-.46-1.64-.25-.58,.21-.22,.59-.09,.88,1.83,4.13,4.72,7.53,9.2,9.83-.03,.28-.05,.55-.08,.83-2.91-.55-4.5-2.6-6.34-4.3-.92-.85-1.75-1.41-3.17-1.57-3.42-.39-6.72-1.16-9.24-3.4-1.46-1.3-3.06-1.71-5.09-1.11-.93,.27-1.99,.22-2.99,.31-.13-.27-.26-.55-.38-.82,.53-.07,1.07-.17,1.6-.22,3.53-.34,3.41-.27,1.62-2.82-.88-1.26-1.65-1.3-3.05-.78-3.59,1.34-7.15,1.74-10.48-.64-.98-.7-1.65,.18-2.2,.63-.6,.49,.2,.78,.58,1.04,2.53,1.76,5.47,2.62,8.67,2.92-.18,.52-.94,.29-1.22,.69-2.76-.4-5.07,.62-7.51,1.55-2.36,.91-4.99,1.08-7.59,.88-1.24-.1-2.21,.19-3.19,.81-3.82,2.43-8.13,3.71-12.89,3.77-1.2,.01-2.19,.32-2.83,1.11-.93,1.14-2.21,1.83-3.59,2.45-.11,.06-.22,.13-.33,.19-.13,.06-.26,.13-.39,.19-.14,.06-.28,.11-.42,.17-.12,.06-.24,.13-.36,.19-.16,.08-.31,.16-.47,.24-.1,.09-.22,.12-.37,.1-.15,.07-.3,.15-.44,.22-.87,.37-1.69,.83-2.7,.87-.31,0-.63-.02-.94-.03-.15-.13-.31-.27-.46-.4,3.35-1.18,6.83-2.15,9.32-4.64,.61-.61,.79-.91-.36-1.08-1.13-.17-2.35-.29-3.32-.76-2.32-1.13-3.85-.51-5.51,1.08-2.98,2.85-6.47,4.91-11.31,4.17-.89-.14-1.18,.49-1.33,1.06-.22,.82,.61,.79,1.16,.84,2.56,.26,5.14,.07,7.71,.05,0,.25,0,.5,0,.75-.18,.02-.35,.05-.53,.07-.67-.09-1.36-.29-1.93,.24-.34,.26-.67,.51-1.01,.77-.34-.02-.67-.04-1.01-.06l-.07-.05c-.05-.31-.2-.59-.61-.57-1.5,.06-2.95-.19-4.4-.47-4.01-.77-5.57-2.29-5.77-5.74-.04-.7-.4-.75-.99-.72-.06-.43,.16-.92-.41-1.22-1.43-1.38-1.32-3.16-1.55-4.82-.12-.85-.43-1.35-1.34-1.71-1.64-.65-3.24-1.37-4.46-2.58,0-.37-.01-.74-.02-1.11,2.65,1.99,5.73,3.31,9.11,4.04,2.83,.62,5.08,2.04,7.31,3.51,2.21,1.46,2.15,1.46,3.78-.48,1.03-1.23,.18-2.17-.51-3.01-3.27-4.04-7.8-6.7-13.06-8.48-.88-.3-1.75-.74-2.73-.47-1.85,.5-3.75,.5-5.65,.45-1.49-.04-1.11,.52-.72,1.25,.37,.7,1.57,1.2,.78,2.21-.45,.46-.61,.07-.81-.2,.07-.36,.08-.69-.38-.88-1.17-1.72-2.41-3.31-4.49-4.44-2.04-1.11-2.64-3.18-3.1-5.11-.25-1.03-.57-2.01-.95-3,.15-.33,.46-.42,.84-.41,1.06,2.08,3.33,3.26,5.78,2.99,0-.75-.72-1.23-1-1.88-.71-1.65-1.43-3.3-.63-5.06,.56-1.23,.75-2.43,.3-3.69-.02-.12-.03-.24-.05-.36-.24-1.21-.4-2.41-.04-3.62,.02-.15,.04-.3,.06-.45-.15-.59,.29-1.08,.39-1.63,.18-.93-.48-.49-.92-.38-.55-.31-.5-.64-.04-.98,.65,0,1.02-.24,.99-.83,.2-.37,.63-.32,.98-.42,.3,.26,.61,.52,.91,.79-1.1,2.73-1.91,5.49-.85,8.71,1.17-1.19,2.01-2.43,3.48-2.87,3.29-.99,5.31-3.34,7.71-5.24,1.35-1.07,2.74-2.04,4.31-2.8,1.82-.88,3.76-1.59,5.67-2.32,3.48-1.33,7.04-2.07,10.78-.79,.75,.26,1.1-.06,1.43-.58,.83-1.3,.52-3.03-.82-3.95-1.47-1-3.12-1.53-5.03-1.63-3.31-.18-6.43,.62-9.6,1.14-.9-.04-.76-.51-.57-1,3.16-2.22,6.13-4.68,10.16-5.75,.14-.06,.28-.12,.42-.19,.59-.28,1.18-.57,1.77-.85,.14,0,.23-.07,.26-.18,.12-.07,.25-.13,.37-.2,.46,.02,.78-.11,.88-.53,.11-.06,.22-.12,.33-.17,.76-.2,1.21,1.39,2.14,.28,2.21-.15,4.35-.74,6.6-.62,3.09,.16,4.95-1.76,7.53-3.15-1.75-.38-3.05,.04-4.35,.03-.22,.02-.43,.05-.65,.07-.56,.09-1.12,.18-1.68,.27-.18-.75,.82-.62,1.07-1.05,.24-.02,.49-.03,.73-.05,.14,0,.28-.02,.42-.03,.44-.06,.89-.12,1.33-.18,1.61,.58,3.41-.07,5.02,.55,.57,.22,1.4-.71,1.67,.09,.21,.6-1,.11-1.28,.64-.12,.22-.5,.34-.76,.51h0c-.26-.1-.46-.02-.64,.15-.79,.12-1.13,.75-1.68,1.14-.52-.03-1.04-.06-1.26,.54,.56,.13,1.13,.4,1.29-.4,.57-.11,1.15-.22,1.72-.33,.26-.08,.51-.15,.77-.23l1.05-.03c.62,.12,.95-.1,.99-.64,4.2-.9,8.53-1,12.78-1.58,.99-.13,1.85-.38,1.81-1.27-.04-.84-1.05-.51-1.65-.54-3.85-.17-7.57,.45-11.11,1.7-1.17,.41-1.49,.32-1.41-.73,4.14-1.15,8.29-2.2,12.72-1.9,.07,0,.15,.02,.2,0,2.04-1.05,.63-2.86,1.23-4.27,.47-1.11-.81-.63-1.45-.61-5.66,.2-10.38-1.5-14.34-5.01-1.84-1.63-3.9-3.08-5.51-4.89-.51-.57-1.19-.44-1.85-.47,.05-.27-.59-.6-.19-.7,1.01-.24,1.45-1.12,2.46-1.37,.7-.17,1.86-.22,1.91-.97,.04-.69-1.05-.95-1.66-1.39-.05-.04-.11-.07-.16-.1-1.67-1.07-1.57-2.02,.34-2.71,1.27-.46,2.59-.8,3.89-1.2,.41,.05,.88-.09,1.15,.32-2.19,.86-2.21,.87-.69,2.45,.9,.95,1.88,1.83,2.78,2.78,2.02,2.14,4.26,4.05,7.28,5.11,.59,.21,1.5,.91,1.89,.07,.32-.7,.5-1.63-.7-2.28-2.91-1.57-4.08-3.97-3.62-6.86,.24-1.5-.08-2.63-1.61-3.42-.02-.29-.12-.53-.45-.66-.44-1.28-.97-2.51-2.19-3.43-.38-.4,.22-.7,.15-1.07-.02-.27,.05-.62-.41-.6-.14,0-.26,.31-.39,.48-.25,.1-.5,.21-.74,.31-.04-.33-.08-.67-.11-1,0,0-.01,0-.01,0,.16-.08,.32-.16,.48-.24,.85-.47,.49-1.2,.53-1.84,.41-.46,.41-.91-.04-1.35,.71-5.94,6.49-9.11,12.11-6.66,.98,.43,1.86,.96,2.47,1.77,.17,.09,.34,.18,.51,.28,.36,0,.7-.28,1.07-.04,.23,.67-.99,.76-.78,1.42-1.21,.72-2.9,.85-3.67,2.14h.02c-.6-.36-.93-.04-1.24,.35h0c-1-.04-1.64,.48-2.24,1.07-.19,.51,.27,.59,.66,.71-.56,1.37,.84,2.21,1.26,3.31,.42,1.09,1.31,1.29,2.73,.91,2.19-.6,3.81-2.1,6.07-2.51,1.37,.15-.02,1.44,.98,1.74,.39,1.29,1.23,1.83,2.89,1.8,2.57-.05,5.13,.22,7.59,.97,1.06,.32,2.18,.2,3.22,.04,5.4-.84,10.64-.05,15.02,2.47,2.69,1.54,5.47,2.28,8.36,3.07,1.04,.28,1.89,.82,2.85,1.21,0,0,.18,.02,.18,.02,.47,.15,1.24,.1,.77,.87-.83,.48-1.38-.2-2-.41-1.74-.59-3.46-1.2-5.67-1.48,1.3,1.59,2.17,3.06,2.8,4.65,.13,.34,.34,.69,.88,.87,5.03,1.72,9.06,4.32,10.87,8.98,.39,1,1.76,.94,2.67,.8,.99-.15,.51-1.08,.41-1.62-.28-1.49-.79-2.93-1.65-4.26,.36,0,.72,0,1.08,0,.1,.16,.19,.32,.29,.47,.09,.19,.18,.37,.27,.56,.59,.8,1.61,.88,2.53,1.13,.04,.43,1.77,.28,.54,1.15-.73,.22-1.28-.51-2.01-.36q-.31,3.33,3.11,4.4c2.78,.87,5.25,2.16,6.99,4.26,1.09,1.3,2.27,2.24,4.44,1.92-1.19-1.99-2.42-3.88-4.23-5.48-2.36-2.09-5.32-3.36-8.22-4.74,.83-.3,1.62,.21,2.44,.11,2.05,.73,3.84,1.82,5.51,3.06,.61,.45,1.2,.9,2.02,1.04,.34,.29,.62,.77,1.18,.23,.54,.09,1.09,.19,1.63,.28,.29,.47,.78,.39,1.26,.36,.76-.04,1.4,.23,2.04,.53,.17,.05,.33,.09,.5,.14,.37,.13,.73,.26,1.1,.39,.18,.29,.48,.36,.83,.34,0,0,0,0,0,0,.07,.41,.14,.82,.21,1.22-.54,.02-1-.16-1.42-.44-.02-.75-.59-.83-1.27-.76-1.67-.35-3.27-1.03-5.24-1.03,.89,1.35,1.8,2.51,2.45,3.76,.58,1.12,1.38,1.69,2.81,1.97,3.95,.77,7.42,2.41,9.32,5.57,.91,1.51,2.01,2.17,3.77,2.33,.5,.04,1.09,.51,1.49,0,.35-.44-.18-.88-.39-1.29-1.23-2.27-3.06-4.21-4.74-6.24,.08-.33,.37-.59,.68-.36,1.32,.96,3.1,1.06,4.52,1.8-.27,.29-.53,.58-.8,.88-1.14-.09-.99,.53-.51,.92,1.37,1.12,2.02,2.57,2.6,4.04,.24,.6,.6,1.12,1.25,1.28,1.36,.33,2.22,1.26,3.31,1.89,3.43,2,4.98,4.78,4.75,8.32-.45,.32-.55,.8,0,.93,.94,.23,.8-.48,.83-.97,0-1.51,.02-3.02,.03-4.53,.57-.43,.23-.59-.27-.71-.19-.65-.39-1.29-.58-1.94,.42-.13,.78,.05,1.14,.19,.44,.69,.64,1.5,1.36,2.05-.01,.37-.02,.74-.03,1.11-.44,1.47-.7,2.97-.76,4.49-.03,.68-.38,1.34,.47,1.89,1.16,.76,1.98,1.79,2.65,2.89,.72-.28,.38-.93,.85-1.21,.71,.41,.35,1.08,.54,1.62-.1,.18-.19,.35-.29,.53-.05,.12-.11,.25-.16,.37Zm-91.75-18.29c.16,.14,.32,.28,.49,.42,.32,.64,2.15,1.45,2.98,1.32,.13-.02,.28,.03,.4,0,1.8-.55,3.68-.29,5.52-.36,0,.25,0,.49,0,.74-2.03-.14-3.95,.15-5.82,.91-2.63,1.06-4.1,2.79-4.42,5.25-.1,.74,.63,1.41,1.21,1.2,6.4-2.25,11.86-.15,17.15,2.73,.53,.29,.76,1.12,1.57,.88,.87-.26,.97-1.06,1.1-1.74,.62-3.37-1.06-5.99-4.87-7.43-1.69-.64-3.46-1.13-5.19-1.69,.3-.24,.6-.49,.89-.73,.49-.08,1.07,.22,1.48-.24-.93-1.24-1.74-2.53-3.58-3.02-.67-.18-1.23-.74-1.38-1.41-.2-.86-.48-.9-1.48-.55-1.74,.63-3.64,1.01-5.48,1.33-.93,.16-1.11,.44-1.4,.96-.54,.62-.8-.02-1.05-.22-2.41-1.99-5.56-2.87-8.56-3.72-4.7-1.34-9.57-.37-14.36,.13-1,.12-2.26-.59-2.92,.67-1.5,.3-2.99,.61-4.49,.91-.17-.15-.3-.11-.4,.06-.11,.08-.23,.11-.37,.1-.47,0-1.06,.09-.98,.54,.09,.56,.71,.49,1.23,.36l.17-.02,.14,.09c.39,0,.78,.02,1.17,.03,2,.34,3.98,.78,5.58,1.92,.87,.62,1.74,.76,2.8,.69,4.47-.27,8.94-.17,13.38,.36,2.39,.28,4.74,.76,6.37,2.6,.47,.53,.86,1.65,1.8,1.39,1.18-.33,1.08-1.49,1.13-2.42,.02-.29,.04-.58,.06-.87,.05-.39,.1-.77,.15-1.16Zm62.78,5.63c.56-.23,.65-.67,.72-1.13,.59-1.17,.95-2.27-1.04-2.7-.32,0-.64-.01-.96-.02-.81-1.47-2.81-1.98-3.45-.81-1.36,2.47-4,4.36-3.83,7.57,.17,3.21-1.49,6.15-3.85,9,2.73-.12,4.19-1.58,5.84-2.68,3.12-2.06,4.26-5.12,5.27-8.21,.29,.12,.57,.25,.86,.37,.14,.06,.02,.76,.35,.18,.25-.44,.08-1.06,.09-1.6,0,0-.02,.03-.02,.03Zm-84.02,19.47s-.08-.09-.12-.14c-.41-.58,.05-1.61-1.2-1.75-.28-.03-.54,.08-.6,.34-.18,.84,.88,1.07,1.15,1.69-.06,.15-.12,.3-.18,.45-2.29-1.67-5.2-.66-8.13-1.59,1.14,1.69,.5,3.53,1.82,4.68,1.29,1.13,2.31,2.41,3.52,3.58,2.46,2.39,4.21,5.13,4.96,8.3,.1,.42-.1,1.15,.62,1.11,.68-.04,1.49-.34,1.64-1.11,.19-.92,.32-1.84,.48-2.76,.32,0,.64-.01,.96-.02-.03,.69-.07,1.37-.1,2.06-.03,.76,.51,.68,1.05,.5,.54-.18,1.78,0,1.3-.8-.45-.75-.8-1.88-2.18-1.99-.18-.43-.78-.88,.1-1.25,.59,.03,1.06,.98,1.69,.3,.49-.53,.7-1.22,0-1.85-.3-.27-.93-.59-.13-1.01,.69-.1,.85,.4,1.15,.74,.05,.32,.28,.47,.64,.51,1.76,1.32,2.97,2.98,4,4.76,.39,.67,1,1.3,1.84,1.13,1.07-.23,.67-1.17,.57-1.78-.85-5.76-2.19-11.37-7.4-15.6-.98-.8-2.06-1.6-3.36-1.91-1-.24-1.52,.83-2.41,1.08-.13,.03-.26,.03-.4,.05-.15,.07-.3,.14-.45,.2-.21,.75-.06,1.46,.14,2.21,.67,2.53,2.58,4.49,3.97,6.69-1.06,.24-1.13,1.16-1.64,1.77h0c.02-.12-.02-.22-.12-.31-.1-.25-.19-.49-.29-.74l-.16-.33c-.9-2.08-2.01-4.06-3.6-5.82-.21-.23-.41-.48,0-.72,.38-.13,.83-.18,.88-.65Zm19.35,.43c.86-.98,.8-2-.39-2.62-1.68-.88-.34,1.15-1.28,1.1-.07,0-.13,0-.2,.01-1.14-2.19-4.04-2.04-5.92-3.27-.45-.29-1.16,.07-1.03,.45,.52,1.51-.39,3.24,.72,4.57,3.24,3.89,3.81,8.47,4.87,12.95,.12,.49-.45,1.56,.8,1.34,.86-.15,2.59,.17,2.12-1.57-.13-.47,.09-1.04,.25-1.54,1.14-3.59,1.08-7.12-.5-10.61,.06-.34,.14-.66,.57-.8Zm79.8-2.99c1.05-.66,1.7-1.61,2.46-2.48,.32-.37,1.34-.87,.31-1.33-.68-.31-1.69-.12-1.99,.69-.38,1.02-1.17,1.91-1.22,3.03-.64,.54-1.05,1.14-.62,2.06,.71-.57,1-1.22,1.07-1.97Zm-52.8-13.61c-.29-.03-.58-.06-.87-.09-.76-.13-1.35-.5-1.89-.95-.23-.19-.49-.45-.87-.32-.41,.14-.31,.47-.25,.74,.34,1.4,.26,2.77-.3,4.12-.19,.46-.2,.96,.53,1.12,.61,.14,.98-.09,1.26-.59,.38-.67,.9-1.28,1.36-1.92,1.4,.69,.13,1.31-.17,1.82-.74,1.29-.02,1.81,1.27,1.86,5.83,.26,10.68,2.31,14.78,5.8,1.11,.94,1.78,.84,2.35-.4,1.38-3,.19-5.99-3.19-7.85-2.36-1.3-5.03-1.93-7.73-2.46-.82-1.07-1.64-1.06-2.45,0-1.29,.3-2.53,.69-3.57,1.46-.49,.36-1.04,.62-1.31-.21,.18-.77,2.71-.68,1.05-2.12Zm35.61,37.55c-.14-.06-.28-.13-.42-.19-.32-.08-.56-.2-.44-.54,.31-.06,.62-.11,.93-.17,1.89,.76,3.78,.57,5.67,0,.53,.01,.78-.23,.81-.67,4.23-2.51,6.95-6.12,9.54-9.82,.23-.33,.99-.84,.15-1.13-1.48-.51-2.1-1.67-2.98-2.74-2.51,2.16-4.72,4.38-6.69,6.73-1.22,1.46-2.49,2.5-4.66,2.66-1.88,.14-3.4,2.63-2.62,4.1-.07,.33-.13,.66-.2,.98-1.18,.17-.53-1.23-1.61-1.26-.25,1.17-.43,2.41-.8,3.6-.76,2.41-.79,2.41,1.73,2.82,.06,.09,.2,.23,.17,.28-2.14,3.39-4.72,6.51-7.88,9.23-1.14,.98-.66,1.25,.33,1.69,2.59,1.16,6.77,.43,8.86-1.81,3.52-3.75,5.54-8.13,6.87-12.93-1.98,.12-3.49,.88-5.03,1.58-.46,.21-.85,.87-1.53,.28,.2-1.02,1.27-1.18,2.11-1.57,.3,0,.65,.09,.78-.24,.12-.3-.2-.32-.42-.39-.95,.05-1.86-.02-2.66-.52Zm-117.26-5c1.18,.98,1.92,2.23,2.8,3.39,.53,.7,1.49,1.25,1.98,.35,.4-.73,.69-2.04-.51-2.69-3.46-1.86-6.58-3.95-7.58-7.63-1.41,.71-1.57,1.69-1.77,2.64-.98-.01-1.96,.03-2.81,.52-.74,.43-1.47,.56-2.26,.13-.42-.23-.91-.38-1.25,.01-.31,.36-.08,.73,.17,1.12,.52,.81,1.09,1.64,1.36,2.52,.34,1.1,1.09,1.71,2.15,2.36,3.07,1.88,6.12,3.82,7.93,6.81,.17,.28,.18,.72,.74,.7,.83-.04,2.54-2.21,2.22-2.89-.9-1.92-1.61-3.92-2.89-5.71-.02-.33-.16-.59-.58-.67,0,0-.07-.07-.07-.07,.12-.3,.24-.59,.36-.89Zm96.11-7.48c3.23,.61,5.45-.96,7.56-2.67,.87-.71,1.6-1.55,2.43-2.29,2.91-2.62,2.83-3.02-1.01-4.31-2.54-.85-3.23-.71-4.9,1.08-1.4,1.5-2.85,2.95-4.55,4.22-1.26,.94-1.19,1.96-.22,3.05,.25,.28,.96,.34,.67,.91-.68,.98-1.15-.56-1.96,.02,.38,2.19,.24,4.5-.05,6.81-.1,.78,.47,1.44,.8,2.13,.13,.28,.29,.59,.65,.59,.51,0,.58-.42,.64-.76,.28-1.67,.46-3.36,.83-5.02,.29-1.32,1.01-2.65-1.09-3.39-.21-.07,.06-.27,.21-.37Zm-82.45-6.34c.83,.4-.21,.88,.07,1.3-1.08,.56-2.15-.19-3.28,0-.87,.14-1.77,.54-1.51,1.05,.98,1.91,.54,4.25,2.74,5.81,3.03,2.15,5.61,4.68,7.69,7.58,.33,.46,.07,1.68,1.47,1.05,.92-.41,2.07-.62,1.67-1.97-.84-2.84-1.87-5.56-3.98-7.96-1.27-1.44-3.12-2.43-4.01-4.13,1.13-.4,1.34-.95,.99-2.04-.36-1.13-1.58,.1-1.83-.74,.04-1.52-.08-3.11-1.15-4.28-1.34-1.47-2.59-2.97-3.76-4.53-.73-.98-1.82-1.31-3.15-1.16-1.56,.18-2.98,.73-4.41,1.25-.54,.19-.93,.47-.55,1.06,1.1,1.72,2,3.55,3.29,5.16,2.4,3,5.92,3.23,9.71,2.53Zm68.21-19.39c.45,.24,.86,.23,1.17-.19,1.91-1.34,3.6-2.86,4.59-4.82,1.97-3.88,2.79-7.98,3.01-12.19,.04-.71-.19-1.23-.99-1.55-2.42-.95-3.86-2.83-5.62-4.4-.33-.3-.41-.9-1.16-.8-.53,1.77-.83,3.55-.58,5.35,.67,4.81-1.52,9.41-1.4,14.18,.01,.5-.28,1.02-.51,1.5-.95,2.07-.96,2.07,1.48,2.91Zm-86.81-4.07c.19,.1,.31,.22,.39,.2,3.83-.76,7.62-1.1,11.26,.66,.22,.1,.55,.15,.79,.09,3.16-.75,6.44-.66,9.66-1.06,3.91-.49,7.85-.81,11.38,1.3,.73,.44,1.41,.92,2.37,.35,.91-.54,1.38-1.21,1.32-2.2-.13-2.18-1.77-3.68-5.1-4.57-4.95-1.32-10.04-1.43-15.11-.96-6.32,.58-12.18,2.26-16.95,6.19Zm64.22-10.08c-.08-2.72-1.63-5-3.08-7.28-1.47-2.31-3.56-4.21-5.92-5.93-3.27-2.39-6.29-5.02-11.14-4.81-1.32,.06-1.52,.38-1.38,1.26,.3,1.85,.87,3.63,2.04,5.24,1.97,2.71,5.01,4.49,7.65,6.63,2.73,2.21,6.87,3.16,8.05,6.82,.24,.75,1.56,1.03,2.63,.37,.95-.58,1.15-1.39,1.15-2.31Zm43.33,.26c-.22,.65-.3,.92-.4,1.19-1.41,4.06-.66,8.21-.72,12.33-.03,2.31,.27,4.6-1.06,6.83-.56,.94-.25,2.47,.8,3.18,1.04,.71,2.46,.36,3.59-.35,.33-.21,.73-.37,.95-.65,1.47-1.87,2.93-3.72,3.43-6.04,.77-3.52,.71-7.07,.76-10.62,0-.69-.2-1.12-1.07-1.45-2.42-.91-4.53-2.24-6.29-4.43Zm-63.35-25.98c3.59,.03,3.6,.02,2.31-2.09-.9-1.46-2.25-2.62-3.42-3.9-1.69-1.85-3.07-3.85-3.7-6.15-.43-1.59,.6-2.83,2.46-2.91,1.24-.05,2.21-.48,3.17-1.03,1.01-.58,1.16-1.13,.08-1.88-4.12-2.84-10.01-1.18-11.39,3.36-1.35,4.43,.96,8.02,3.83,11.48,1.89,2.28,4.46,3.05,6.66,3.12Zm-3.9,73.09c-.09-.57-.15-1.14-.37-1.71-1.96-5.25-6.23-9.02-10.85-12.57-1.01-.78-2.12-1.25-3.51-1.03-1.61,.26-2.63,1.59-4.28,1.8-.07,0-.21,.63-.06,.79,.84,.94,.99,2.15,1.95,3.09,2.1,2.04,4.83,3.41,7.08,5.24,2.41,1.95,5.38,3.59,6.4,6.57,.12,.35,.26,.64,.81,.59,1.1-.11,2.87-1.82,2.81-2.76Zm-32.68-9.08c-.97,.19-1.49,.99-1.99,1.58-.69,.83-3.24,.16-2.37,2.04,.48,1.05,1.37,1.98,2.18,2.89,.44,.49,1.12,.84,1.71,1.22,3.61,2.31,8,3.63,11.14,6.55,1.17,1.09,2.31,1.46,3.99,.3,1.7-1.18,1.7-2.25,.6-3.53-3.74-4.39-7.9-8.39-13.9-10.58-.43-.16-.88-.3-1.38-.47Zm72.09-51.73c.09-.8-.11-1.5-.85-2.05-.99-.73-1.7-1.65-2.43-2.56-1.03-1.28-2.76-1.23-3.39,.2-1.1,2.46-1.59,5.04-1.27,7.7,.27,2.31,.61,4.63,.73,6.95,.08,1.63-.14,3.39-1.66,4.51-1.57,1.16-.58,1.64,.47,2.15,1.61,.78,2.84-.04,3.64-1.06,1.5-1.92,2.97-3.88,3.71-6.14,1.04-3.17,.67-6.47,1.05-9.7Zm52.8,31.98c.66-2.76,.34-5.81-4.07-7.33-.24-.08-.42-.29-.6-.47-1.28-1.23-1.85-.54-2.22,.61-.91,2.87-.82,5.79-.25,8.67,.61,3.05,1.13,6.09,.91,9.2-.11,1.53-1.42,2.69-1.34,4.33,.07,1.48,.68,1.27,1.66,.82,2.21-1.01,3.58-2.6,4.32-4.64,1.24-3.44,1.46-6.98,1.59-11.2Zm-94.04-4.44c0,.27-.04,.45,0,.62,.14,.53-.35,1.26,.46,1.56,.76,.28,1.35-.26,1.71-.69,.44-.53,1.01-.81,1.64-.93,4.57-.87,9.13-1.67,13.71,.1,2.09,.81,3.18,.07,3.13-1.92-.04-1.59-.99-2.69-2.41-3.64-3.22-2.15-6.96-2.21-10.74-2.1-4.94,.14-7.78,3.52-7.5,7Zm51.91,30.26c-.15-3.37-.52-6.73-1.74-9.97-.43-1.14-1.08-2.06-2.78-1.2-.82,.41-1.77,.63-2.74,.46-1.51-.26-1.87,.34-1.81,1.52,.29,5.78,1.08,11.42,5.11,16.34,.88,1.08,1.38,.61,1.88-.15,1.41-2.17,2.21-4.48,2.08-7Zm-42.97-63.15c2.42,.14,4.07-.17,5.67-.65,3.92-1.18,6.87-3.8,10.58-5.31,.8-.32,.47-.77-.18-.94-.77-.2-1.57-.37-2.37-.42-3.35-.2-6.6,.42-9.86,.91-4.08,.61-8.16,1.16-12.06-.71-.93-.44-1.16,.04-1.26,.75-.29,2.13,1.91,4.97,4.36,5.69,1.89,.55,3.86,.52,5.1,.67Zm24.71,62.26c-.27-5.44-1.91-9.95-4.35-14.26-.46-.81-1.49-1.27-2.56-1.16-3.67,.37-4.64,1.6-3.73,4.7,.26,.9,.72,1.75,1.09,2.62,1.16,2.67,2.71,5.19,4.1,7.77,.76,1.41,1.18,2.96,2.51,4.12,1.07,.93,1.88,.83,2.22-.44,.35-1.3,.82-2.59,.71-3.36Zm-45.95-32.83c-1.05,.1-2.35,.14-3.61,.34-6.14,.97-8.4,3.82-7.02,8.58,.38,1.3,1.29,1.45,2.14,.73,1.68-1.42,3.77-2.04,5.89-2.62,2.96-.81,5.95-1.77,9.11-1.1,1,.21,1.9,.51,2.6-.18,.74-.73,.08-1.52-.36-2.18-1.87-2.87-5.07-3.44-8.75-3.57Zm76.06,41.8c.13,1.31-.57,3.65,1.19,5.68,.45,.52,.4,1.5,1.5,1.34,1.12-.16,2.27-.03,3.11-1.2,2.62-3.68,3.02-7.64,2.48-11.77-.07-.51,0-1.08-.8-1.26-2.21-.49-3.3-2.07-4.52-3.51-.26-.31-.27-.85-.91-.78-.71,.08-.7,.64-.81,1.07-.78,3.14-1.41,6.29-1.23,10.43Zm-107.65-27.05c.08,1.4-.08,2.62,1.06,3.21,.73,.38,1.63-.17,2.33-.71,4.05-3.1,8.82-4.95,14.11-5.81,1.37-.22,1.99-.69,1.23-1.89-.96-1.52-2.29-2.58-4.39-2.76-4.52-.4-8.38,.97-11.82,3.36-1.81,1.25-2.35,3.05-2.53,4.59Zm47.92-34.85c.44-.42,1.99,.48,1.25-.91-.76-1.42-1.65-2.98-2.15-4.5-.17-.51-.32-.33-.78-.44-2.74-.66-5.16-1.87-7.09-3.61-2.14-1.93-4.07-4.03-6.05-6.09-.43-.44-.79-.81-1.5-.55-.43,.16-1.04,.29-1.07,.72-.04,.52,.61,.7,1.04,.97,.39,.24,.76,.49,1.12,.76,1.01,.79,1.52,1.58-.09,2.28-.48,.21-.62,.72-1.24,.85-1.5,.3-.98,.88-.25,1.54,1.82,1.65,3.84,3.14,5.7,4.75,3.09,2.68,6.85,3.79,11.12,4.24Zm25.94,7.33c-.07-.52-.1-1.05-.23-1.56-.93-3.82-2.74-7.43-3.78-11.21-.76-2.73-2.71-4-5.48-4.95-1.16-.4-1.83,.14-2.6,.49-.79,.36-.32,.99-.14,1.55,.18,.55,.41,1.16,.31,1.71-.31,1.69,.64,2.77,1.87,3.98,3.81,3.7,7.04,7.7,7.08,12.95,0,.36,0,.73,.54,.79,.49,.05,.96-.03,1.22-.46,.63-1.03,1.41-2.02,1.21-3.28Zm22.34,56.57c-2.46-.25-5.16,.59-7.94,.6-.94,0-1.18,.43-.75,1.15,1.6,2.63,3.76,4.59,7.39,5.14,3.52,.53,6.84-.2,10.21-.83,1.04-.19,2.72-.26,2.86-.88,.22-1-.82-1.99-1.79-2.74-.45-.35-.96-.64-1.47-.92-2.5-1.39-5.3-1.62-8.52-1.53Zm-7.51-75.93c-2.15-3.19-5.28-4.28-8.95-4.54-4.96-.35-9.04,1.63-13.07,3.7-.55,.28-1.51,.5-1.38,1.12,.14,.65,.95,1.02,1.74,1.28,3.14,1.04,6.33,.93,9.6,.61,3.09-.3,5.76-1.89,8.91-1.94,.94-.01,1.87-.14,3.14-.23Zm23.76,19.18c2.48,3.22,5.07,5.58,9.14,6.69,4.58,1.25,9.27,.68,13.89,1.07,1.29,.11,.84-.5,.49-1.07-1.11-1.84-3.09-3.02-5.05-3.86-5.68-2.43-11.93-2.48-18.48-2.83Zm-16.46,15.83c1.85,.24,3.15-.22,4.38-.84,5.42-2.72,8.62-6.92,10.41-11.95,1.06-2.98,.58-3.41-3.04-3.53-.76-.02-1.26,.13-1.69,.69-.75,.98-1.76,1.75-2.86,2.45-.69,.43-1.39,.94-1.55,1.72-.81,4.11-2.18,8.01-5.66,11.47Zm7.92-24.46c-.42-1.25-1.37-2.92-2.04-3.56-4.83-4.55-10.77-6.19-17.82-5.16-1.71,.25-1.47,.78-.65,1.64,2.63,2.74,5.68,4.81,9.88,5.59,3.5,.66,7.02,.98,10.63,1.49Zm38.66,26.18c-3.53,2.59-3.52,6.05-3.86,9.54-.41,4.19-1.33,8.37-6.35,10.72,.83,.58,1.55,.5,2.28,.31,2.69-.68,5.01-1.83,6.47-3.96,2.07-3.02,3.23-6.35,4.29-9.71,.94-2.97,.96-5.6-2.82-6.9Zm-12.15-8.87c2.15,2.66,4.54,4.57,7.49,5.9,4.15,1.87,8.69,2.99,12.76,5.02,.95,.47,1.13-.1,1.09-.82-.14-2.83-1.71-4.96-4.36-6.55-5.04-3.04-10.77-3.57-16.98-3.55Zm-105.58,48.17c-1.58-.53-3.16-.82-4.99-.33-3.22,.86-5.8,2.35-7.79,4.7-1.95,2.3-4.23,4.38-5.59,7.04-.54,1.05-.16,1.23,.89,1.26,2.11,.07,4.09-.42,5.74-1.49,4.69-3.07,8.36-6.99,11.75-11.18Zm104.38-21.84c-.07-.63-.14-1.24-.37-1.87-1.33-3.54-4.57-4.95-8.37-5.9-3.45-.86-6.06,.24-8.43,2.25-.98,.83-.45,1.38,.49,1.39,3.19,.04,5.37,1.96,7.98,3.04,2,.83,4.01,1.73,5.49,3.24,1.31,1.33,2.04,1.21,2.9-.45,.29-.56,.29-1.13,.3-1.71Zm-34.75-43.57c1.76,2.59,4.08,4.42,6.86,5.57,5.63,2.32,11.84,1.7,18,2.35-3.1-4.51-13.63-7.83-24.86-7.91Zm-.86,64.21c1.39,0,2.52-.09,3.62,.02,1.32,.14,2.24-.3,2.91-1.19,2.92-3.85,4.26-8,3.16-12.6-.08-.34-.04-.73-.54-.85-1.8-.43-3.36-1.12-4.27-2.78-.3,1.89-2.1,3.18-1.74,5.15,.8,4.31,.23,8.43-3.14,12.24Zm-109.74-18.4c.05,2.22,.93,3.83,2.07,5.37,.45,.61,.99,.45,1.57,.27,2.05-.63,3.04-2.07,3.69-3.7,.64-1.6,1.29-3.19,2.51-4.53,.71-.78,1.56-1.56,2.9-1.14,.58,.18,.99,.26,1.4-.2,.46-.51,0-.89-.23-1.27-.82-1.38-3.23-2.22-5.25-1.95-3.91,.51-6.14,2.87-8.09,5.49-.42,.56-.47,1.32-.59,1.66Zm138.13,25.77c-1.17-.48-2.3-.73-3.53-.79-5.37-.24-10.43,1.16-15.57,2.1-.89,.16-.7,.48-.35,.95,.86,1.16,2.28,1.78,3.45,2.64,2.48,1.82,8.43,2.12,10.72,.38,1.99-1.51,3.92-3.15,5.29-5.29Zm-46.66-43.01c.05-1.55-.06-1.65-1.9-1.77-.74-.05-1.49-.09-2.23-.1-2.99-.04-3.93,.64-4.63,3.17-.66,2.36-1,4.8-2.73,6.86-.61,.73-.31,1.43,.7,1.85,1.16,.48,2.3,.48,3.54,.17,4.28-1.05,6.48-6.3,7.26-10.18Zm1.08,1.36c.17,1.36,.31,3.16,.63,4.94,.42,2.31,1.78,4.23,3.62,5.92,1.03,.95,3.74,1.27,3.94,.48,.26-1,.98-1.94,.63-3.04-.67-2.1-.72-4.27-.8-6.42-.05-1.3-.71-2.23-1.94-2.88-1.04-.56-2.17-.93-3.36-1.21-2.66-.62-2.69-.62-2.72,2.21Zm6.63,35.43c1.22-.08,2.44-.14,3.65-.25,1.28-.12,2.55-.28,3.83-.42,.59-.07,1.29,.04,.96-.87-.84-2.28-3.8-4.32-6.56-4.64-3.86-.45-7.53,.38-11.2,1.15-.69,.15-1.79,.42-1.89,.79-.18,.72,.57,1.33,1.27,1.84,2.89,2.1,6.32,2.52,9.93,2.4Zm-1.24-47.93c2.83-.36,4.6-2.06,5.87-4.08,2.52-4.01,3.88-8.36,4.34-12.91,.1-.99-1.03-1.74-2.07-1.41-.87,.28-3.82,3.94-3.89,4.77-.34,4.21-2.34,7.8-5.58,10.93-.44,.43-1.6,.47-1.21,1.37,.41,.93,1.43,1.16,2.54,1.33Zm-45.8,10.9c-1.43-.14-2.72,.3-4.04,.54-.68,.12-1.17,.36-.88,1.07,1.29,3.13,2.43,6.31,5.3,8.73,1.5,1.26,3.28,1.56,5.25,1.22,.5-.09,1.41-.36,1.23-.7-.66-1.24,.27-2.62-.5-3.74-1.18-1.71-1.95-3.58-2.92-5.37-.7-1.3-1.69-2.11-3.45-1.76Zm-23.44,16.08c.3-2.73-1.24-4.96-2.61-7.22-.17-.29-.39-.54-.94-.46-3.02,.42-5.52,3.06-4.76,5.46,.7,2.2,1.05,4.43,1.6,6.64,.5,2.02,2.04,2.5,4,1.31,2.33-1.42,2.49-3.59,2.7-5.72Zm-11.56,9.44c2.05-.08,3.52-.89,4.27-2.26,.58-1.05-.37-2.12-1.3-2.7-2.48-1.53-4.71-3.28-6.75-5.21-1.09-1.02-1.89-.65-2.63,.23-1.25,1.49-1.78,3.25-2.49,4.94-.13,.31-.05,.6,.19,.81,2.5,2.12,5.2,3.93,8.71,4.18Zm124.96-4.79c.09-2.74-2.18-3.73-4.22-4.87-.92-.52-1.4-.25-1.73,.62-1.35,3.57-1.37,7.15,.2,10.62,.64,1.42,1.68,2.78,3.53,3.46,1.24,.46,2.03,.08,2.85-.68,.84-.79,.67-1.34-.2-2.03-.67-.52-.79-1.32-.79-2.11,0-1.75-.17-3.5,.37-5.03Zm-42.26-1.04c-.17-1.39-.31-2.78-.51-4.17-.08-.6-.32-1.13-1.14-1.29-1.66-.34-2.91-1.12-3.71-2.46-.28-.47-1.33-.83-1.26-.16,.17,1.74-.84,3.38-.2,5.16,1.37,3.81,2.28,7.68,1.43,11.71-.09,.44-.65,1.16,.21,1.33,.72,.14,1.66,.23,2.27-.41,.25-.27,.44-.59,.61-.91,1.51-2.78,2.27-5.71,2.29-8.79Zm-103.76,3.76c.84,2.13,1.5,3.87,3.33,5.06,2.93,1.9,10.07,1.76,12.87-.28,.4-.29,.71-.69,.99-1.08,.49-.69,.49-1.28-.52-1.7-1.72-.71-3.27-1.66-4.56-2.88-.49-.46-.92-.6-1.51-.07-3.04,2.73-6.53,2.55-10.6,.96Zm73.06-23.51c.02-2.12-.82-2.91-2.36-2.27-1.21,.5-2.54,.67-3.68,1.3-.96,.53-1.72,1.22-1.89,2.17-.46,2.59-.66,5.2-1.24,7.79-.33,1.51,.88,2.16,2.53,1.47,.78-.33,1.5-.79,2.15-1.3,3.29-2.53,3.68-6.09,4.49-9.15Zm3.22-2.63c-2.22-.06-2.53,.23-2.01,2.12,.51,1.86,1.05,3.72,1.68,5.56,.51,1.47,1.39,2.79,2.88,3.71,1.75,1.08,2.86,.73,4.01-.72,1.09-1.38,.74-2.61,.19-3.95-.36-.88-.76-1.75-.99-2.65-.81-3.17-1.89-3.96-5.76-4.07Zm-29.47,44.47c.82-.15,1.86-.15,2.65-.52,3.9-1.85,7.54-4.05,10.98-6.49,1.31-.93,1.15-1.49-.37-1.88-2.77-.72-5.31-.6-7.81,.96-2.81,1.75-5.63,3.44-7.95,5.68-1.12,1.08-.9,1.63,.77,1.99,.52,.11,1.06,.17,1.73,.27Zm3.84-34.76c0-1.05,.08-2.11-.02-3.15-.23-2.57-.93-2.93-3.67-1.89-1.47,.56-3.28,1-3.12,2.78,.25,2.91,.6,5.81,1.12,8.69,.33,1.82,2.11,2.24,3.73,1,.77-.59,1.23-1.35,1.49-2.23,.51-1.72,.58-3.46,.47-5.21Zm58.42,8.11c.74,.05,1.56-.13,2.21-.53,3.14-1.92,5.16-4.68,7.28-7.35,.32-.41,.54-1.17-.27-1.55-1.09-.51-2.19-1.05-3.35-1.41-1.39-.42-2.53-.24-3.33,1.11-1.29,2.17-2.65,4.32-4.8,6.01-.83,.66-1.15,1.65-.61,2.57,.53,.91,1.62,1.17,2.88,1.15Zm9.71-1.68c-.14,2.18,.38,4.17,2.21,5.78,.76,.67,2.12,1.52,2.64,.61,.57-1.01,1.65-1.95,1.56-3.29-.13-1.81,.26-3.59,.69-5.36,.32-1.29-.11-2.31-1.4-3.01-.97-.53-1.98-1-2.99-1.47-.93-.43-1.44-.25-1.71,.71-.56,1.99-.85,4-1,6.02Zm-55.6,28.28c-2.07-.85-3.94-1.55-5.71-2.38-.85-.4-1.45-.38-2.2,.12-1.15,.77-2.32,1.55-3.59,2.14-2.61,1.22-5.36,1.57-8.19,.52-1.39-.51-1.97,.4-2.32,1.13-.42,.88,.75,.71,1.27,.92,1.93,.78,4.03,.99,6.1,1.23,5.39,.62,10.09-.88,14.64-3.68Zm105.58-33.14c-2.66,2.75-4.69,5.67-6.08,8.87-.55,1.25-.6,2.76,1.04,3.59,1.52,.77,2.86,0,3.73-.99,1.63-1.84,3.09-3.8,4.13-5.95,.16-.33,.24-.66,.05-1.01-.81-1.52-1.63-3.02-2.87-4.51Zm-81.43,19.92c-.67,0-1.48-.22-1.98,.04-2.49,1.27-5.31,2-7.62,3.55-1.25,.84-1.23,1.46,.19,2.14,1.9,.91,3.99,.91,5.93,.31,3.21-.99,6.12-2.63,9.41-3.5,.95-.25,.48-.61,.05-.97-1.68-1.41-3.74-1.78-5.99-1.57Zm49.87,12.88c.79-.17,1.74,.35,2.47-.3,2.57-2.3,4.19-4.97,4.24-8.23,0-.5-2.64-2.96-3.21-2.97-.12,0-.31,.03-.35,.1-.81,1.27-2.75,1.94-2.93,3.45-.29,2.47-.86,4.82-2.35,6.97-.43,.61-.25,1,.67,.98,.47-.01,.95,0,1.47,0Zm-58.48-11.17c-2.23-.95-4.08-.94-6.07-.53-4.5,.92-7.91,3.33-11.31,5.79-.67,.49-.34,.75,.22,1,1.54,.71,3.12,.5,4.71,.17,4.84-1,8.21-4.07,12.45-6.43Zm49.18-39.44c-1.34,1.62-2.95,3.05-4.79,4.24-.99,.64-.77,1-.35,1.81,.65,1.28,1.71,1.95,3.08,2.54,1.07,.46,1.96,1.23,2.93,1.85,.4,.26,.52,.99,1.2,.72,.5-.2,.51-.77,.62-1.24,.83-3.64-.12-6.93-2.69-9.93Zm-36.52-38.57c1.11,1.13,2.71,1.81,3.26,3.26,.14,.37,.67,.31,1.08,.25,5.97-.84,11.07,.15,14.33,5.04,.37,.56,1.11,.92,1.72,.61,.71-.35-.03-.9-.17-1.35-.09-.27-.29-.53-.46-.78-4.02-5.77-11.73-8.21-19.76-7.03Zm-13.95,86.62c-1.96-.79-3.4-1.55-4.6-2.59-.58-.51-1.1-.47-1.8-.17-3.62,1.6-7.28,2.83-11.35,1.05-.81-.35-1.48,.28-1.8,.81-.38,.63,.55,.67,.93,.84,6.02,2.63,12.07,2.35,18.63,.06Zm3.48-87.77c-2.22-.4-2.17,.54-1.67,1.86,.23,.6,.37,1.25,.35,1.88-.02,.92,.39,1.07,1.35,.92,3.42-.56,6.82-.87,10.03,.78,.71,.36,1.57,.09,2.07-.32,.68-.55-.34-.84-.57-1.26-.65-1.18-1.94-1.73-3.19-2.3-2.65-1.2-5.6-1.16-8.38-1.55Zm72.71,69.92s0-.02,0-.03c-.94,.08-1.88,.16-2.82,.25-4.16,.42-4.31,.59-3.92,4.33,.11,1.09,.31,2.06,1.86,2.35,1.5,.28,2.64-.09,3.57-1.1,1.09-1.18,2.21-2.33,3.25-3.53,.5-.58,1.73-1.06,1.3-1.77-.43-.7-1.71-.45-2.64-.53-.2-.02-.4,.02-.61,.03Zm-3.44-8.28c.46-3.52,.98-6.98-1.34-10.13-1.33-1.81-1.38-1.76-3.02-.06-.52,.54-1.05,1.1-1.71,1.48-1.36,.78-1.3,1.45-.29,2.51,2.01,2.12,5.4,3.2,6.36,6.2Zm-60.08,20.62c-.43,.57-.51,.93-.13,1.4,2.92,3.61,6.62,6.35,11.57,7.66,.93,.25,2.33,.84,2.84,.29,.62-.66-.38-1.67-.8-2.47-.54-1.04-.76-2.31-2.78-2.25-4.4,.12-7.91-1.55-10.7-4.64Zm-11.82-78.87c.09-1-.49-2.08-.72-3.22-.13-.68-.45-1.33-.68-1.99-.3-.84-.83-1.07-1.82-.64-1.26,.54-2.58,.98-3.91,1.39-.98,.31-1.1,.69-.46,1.38,1.29,1.4,2.54,2.82,3.49,4.44,.75,1.27,2.15,.38,3.25,.32,1.09-.06,.84-.87,.85-1.67Zm31.84,36.04c.27-1.28-.33-2.48-.67-3.72-.09-.34-.24-.74-.67-.8-.48-.07-.62,.38-.84,.66-.85,1.08-1.95,1.94-3.19,2.66-1.54,.89-1.69,1.9-.26,2.95,.93,.68,1.91,1.3,2.58,2.2,.73,.99,1.38,.65,2.01-.1,.97-1.15,1.22-2.43,1.04-3.85Zm-84.98,54.1c-2.91-.05-5.14,1.3-5.68,3.1-.46,1.52,.36,2.82,2.23,3.71,1.04,.5,1.66,.47,2.15-.61,.61-1.34,1.43-2.61,2.18-3.91,.32-.55,1.25-1.07,.92-1.62-.41-.69-1.49-.66-1.8-.67Zm50.95-64.16c-.17,.71-.91,1.47,.5,1.64,2.31,.27,4.3,1.19,6.26,2.22,.37,.19,.84,.86,1.36,.33,.5-.51,.16-1.2-.29-1.58-1-.85-2.04-1.78-3.23-2.38-2.12-1.08-2.6-1.58-4.1-.38-.03,.02-.21-.11-.4-.21,.1-.19,.15-.43,.32-.58,.46-.42,1.12-.73,.2-1.35-.74-.5-1.28-.48-1.88,.13-.7,.71-1.44,1.38-2.17,2.07-.28,.26-.65,.6-.35,.89,.21,.21,.74,.18,1.13,.25,1.11,.2,1.39-1.04,2.66-1.05Zm62.64,46.15c-.36-1.6-1.03-3.02-.9-4.57,.04-.53,.25-1.16-.73-1.4-.85-.21-1.6-.59-2.43,.08-.78,.63-1.63,1.22-2.54,1.72-.76,.42-.74,.74-.35,1.39,1.25,2.06,3.63,2.58,5.86,3.3,.5,.16,1.12,.05,1.08-.53Zm-33.07-21.95c.19,1.48,.35,2.92,.57,4.36,.04,.26,.21,.61,.44,.71,.33,.13,.59-.17,.79-.41,1.2-1.4,2.23-2.9,3.01-4.51,.12-.25,.27-.67,.14-.81-1.09-1.12-2.78-1.29-4.21-1.31-1.34-.01-.38,1.32-.74,1.97Zm-81.25,38.46c-2.19-.96-4.37-1.93-6.57-2.86-.96-.4-1.49-.25-1.4,.84,.12,1.37,.64,2.61,1.38,3.8,.49,.79,1.25,1.01,1.97,.37,1.25-1.12,2.83-1.54,4.62-2.15Zm-.25-24.17c.19-2.2-1.07-4.04-1.31-6.04-.06-.55-.73-.38-1.17-.25-.97,.3-1.77,.84-2.51,1.45-.59,.49-.65,.96-.04,1.48,1.47,1.27,2.94,2.54,5.03,3.35Zm69.66-48.74c.17-1.86-.26-3.37-.9-4.85-.5-1.16-1.8-.95-2.57-.73-.94,.26,.02,.97,.17,1.44,.45,1.39,1.01,2.75,1.56,4.11,.29,.71,.21,1.97,1.38,1.78,.96-.16,.2-1.32,.36-1.75Zm-41.64,37.16c-.49,1.8-.18,3.26-.68,4.65-.58,1.59-.17,1.87,1.71,1.42,.7-.17,1.43-.4,2.01-.76,.5-.31,1.1-.93,.49-1.44-1.27-1.04-2.09-2.38-3.52-3.87Zm44.72-28.47c-.07-.81-.08-1.62-.21-2.42-.17-1.09-1.26-1.25-2.15-1.11-1.15,.19-.27,.95-.19,1.41,.32,1.7,1.13,3.35,.52,5.12-.12,.36-.46,.83,.27,.97,.51,.1,.89-.19,1.13-.57,.68-1.07,.6-2.24,.62-3.39Zm-23.14,24.06c-.94,1.83-1.15,3.38-2.16,4.6-1.03,1.24-.24,1.45,1.02,1.56,.98,.08,1.87-.11,2.72-.49,.51-.23,1-.58,.61-1.08-.97-1.25-1.21-2.77-2.19-4.59Zm52.91,13.69c1.42-1.43,2.64-2.67,3.88-3.89,.35-.35,.56-.81,.23-1.1-.77-.69-1.86-.9-2.92-1.07-.49-.08-.75,.2-.79,.6-.15,1.71-1.02,3.38-.4,5.46Zm-92.64-1.67c-.35,1.33,.02,2.48-.55,3.51-.28,.5-.37,1.03,.24,1.42,.52,.34,1.1,.35,1.74,.18,1.19-.32,1.66-1.3,2.49-1.95,.67-.53,.43-.87-.32-1.1-1.29-.4-2.32-1.15-3.59-2.06Zm89.89,16.08c-1.19,1.54-1.68,3.14-2.87,4.4-.41,.43-.1,.74,.47,.87,.71,.16,1.44,.3,2.13,.53,.7,.23,1.05,.02,1.12-.56,.21-1.72,.22-3.43-.85-5.24Zm-61.02-25.36c.13,0,.26,0,.38,0,.24-1.6,.47-3.2,.72-4.8,.06-.4,.29-.8-.4-.98-1.03-.26-2.01-.05-2.92,.33-.51,.21-.35,.69-.14,1.08,.79,1.46,1.57,2.91,2.35,4.37Zm32.52-.38c-1.28,.77-1.33,2.07-2.13,2.97-1.36,1.54-1.17,1.85,1.12,2.03,.66,.05,1.33-.04,2-.11,.47-.05,.7-.25,.53-.71-.51-1.36-.99-2.73-1.51-4.18Zm22.33,11.12c-.07-.75-.08-1.49-.2-2.22-.16-.96,.76-2.42-.18-2.76-1.48-.54-1.4,1.36-2.39,1.9-1.88,1.02-.94,1.8,.42,2.46,.7,.34,1.38,.75,2.36,.63Zm-12.03,2.13c-.16-1.15,.52-2.32-.06-3.43-.17-.33-.39-.84-.98-.74-.67,.12-.48,.62-.39,.99,.61,2.59,.66,5.19,.21,7.8-.1,.59-.09,1.41,.63,1.47,.93,.08,1.07-.75,1.03-1.4-.11-1.56-.28-3.12-.43-4.69Zm-69.12,13.47c-.32,3.19,1.45,4.29,5.24,3.18-1.73-1.16-3.12-2.57-5.24-3.18Zm6.31-22.32c.12-1.71-.06-3.12-.28-4.53-.12-.76-.42-1.05-1.31-.76-.88,.28-2.16,.76-1.64,1.51,.83,1.23,1.54,2.65,3.23,3.78Zm41.73-5.45c.51-1.72,.84-3.06,1.3-4.36,.25-.72,0-1.07-.79-.94-.77,.13-2.21-.65-2.18,.66,.03,1.47,.48,2.95,1.66,4.64Zm77.06,11.5c-1.24,1.28-2.76,2.18-4.47,2.85-.65,.25-1.76,.47-1.28,1.21,.43,.67,1.9,.96,2.47,.43,1.38-1.27,3.31-2.33,3.28-4.49Zm-141.96-3.49c-.31-1.53-.57-2.77-.81-4.02-.05-.25-.21-.54-.47-.42-.89,.41-2.02,.74-2.5,1.4-.53,.73,.81,.75,1.27,1.13,.73,.6,1.5,1.15,2.51,1.92Zm32.03,11.82c-.09,.09-.17,.18-.26,.27,.4,.9,.77,1.81,1.2,2.7,.42,.85,1.45,.96,2.3,1.26,.23,.08,.45-.18,.5-.44,.18-.87-.06-1.56-.99-2.07-.95-.52-1.83-1.15-2.75-1.72Zm-38.06-14.88c1.8-.97,3.57-1.93,5.37-2.85,.37-.19,.49-.8,.64-1.23,.06-.19,0-.53-.16-.61-.15-.09-.59-.03-.72,.1-1.55,1.65-4,2.5-5.13,4.59Zm73.3,9.14c-.64,1.36,.1,2.64-.23,3.86-.16,.57,.06,1.03,.66,1.34,.42,.21,.82,.15,1.04-.21,.29-.49,.76-.91,.32-1.59-.66-1.04-1.14-2.15-1.78-3.4Zm16.58,11.4c2.68,.17,1.63-1.27,1.44-2.16-.12-.58,.01-1.58-.76-1.65-1.08-.1-.45,1-.84,1.47-.27,.32-.35,.75-.59,1.09-.78,1.07-.19,1.31,.76,1.25Zm49.55-9.79q-4.05-1.9-5.33,.49c1.81-.23,3.56-.02,5.33-.49Zm-58.46-53.15c.15,1.73,.3,3.39,.45,5.05,.03,.31,.19,.58,.57,.63,.12,.02,.34-.16,.43-.3,.78-1.14-.05-4.42-1.44-5.38Zm-22.23,8.24c-.98,.89-.51,1.9-.56,2.8-.02,.36-.2,1.26,.57,.91,.85-.38,1.95-1.02,1.94-2-.01-.87-1.14-1.17-1.94-1.72Zm14.52,52.51c.51-.41,2.01,.43,1.85-.85-.12-.94-.92-2.19-2-2.06-1.07,.13-.74,1.56-.99,2.42-.25,.85,.59,.48,1.14,.49Zm-26.15,4.4c-.85-1.79-2.22-2.72-3.46-3.75-.21-.17-.45-.31-.7-.17-.32,.19-.36,.56-.14,.77,1.16,1.1,1.84,2.67,4.3,3.15Zm12.63-5.71c.23,1.08,.67,2.04,2.28,2.15,.43,.03,.82,.01,.76-.52-.07-.64-2-2.94-2.48-2.86-.82,.14-.33,.76-.56,1.23Zm70.79,14.12c-.09-.57-.6-1.02-1.04-.91-1.06,.28-1.7,1.06-1.91,1.98-.16,.7,.68,.6,1.13,.63,1.41,.08,1.3-1.07,1.82-1.7Zm-90.36-11.38c.02,2.8,.31,2.98,3.26,2.15-.79-1.07-1.87-1.72-3.26-2.15Zm83.32,.57c.21,.41-.32,1.42,.65,1.25,.96-.17,1.54-1.15,1.72-2,.17-.78-.74-.64-1.31-.7-1.42-.15-1.03,.74-1.06,1.44Zm4.57-37.73c.97-.62,1.12-1.47,1.62-2.13,.24-.32,.92-.76,.27-1.15-.45-.27-1.15-.44-1.69-.37-.73,.1-.4,.75-.39,1.15,.03,.78-.25,1.57,.2,2.5Zm-35.15,33.63c-.19,.02-.37,.04-.56,.06-.42,1.5,.49,2.91,.59,4.37,.02,.36,.52,.53,.95,.46,.64-.11,.34-.5,.25-.81-.4-1.36-.82-2.72-1.22-4.08Zm-68.92,10.74c-1.34-.51-2.15-1.49-3.48-.93-.13,.06,.14,1.51,.64,1.82,1.04,.66,1.68-.41,2.84-.89Zm28.92-46.54c-3.77-.41-3.84-.34-2.47,2.4,.97-.73,1.36-1.85,2.47-2.4Zm-50.44,39.96c1.06,.51,2.03,1.53,3.14,.92,.42-.23-.34-1.49-.95-1.88-1.08-.69-1.33,.73-2.19,.96Zm26.24-35.52c-1.5-.15-2.82-.2-3.42,.5-.39,.45,.52,1.36,1.03,2.07,.82-.88,1.51-1.62,2.39-2.56Zm20.35,.6c-2.02,.72-2.03,1.64,0,3.99v-3.99Zm28.7,32.23c-.36-.7-.83-1.65-1.34-2.59-.13-.24-.32-.58-.73-.44-.45,.15-.52,.56-.37,.88,.44,.9,.94,1.78,1.47,2.64,.09,.15,.43,.26,.66,.27,.34,.02,.4-.22,.31-.75Zm2.99-53.76c-.46,.06-1.17-.17-1.05,.48,.18,1.04,1.36,.69,2.1,.91,.59,.18,.93-.08,.83-.6-.19-1.03-1.25-.59-1.88-.79Zm-13.75-6.88c-.17-.81,.23-1.82-.97-2.25-.34-.12-.58,.31-.39,.58,.59,.85-.33,2.18,.87,2.66,.72,.28,.32-.63,.49-.99Zm29.73,20.09c.84-.83,.83-1.6,.9-2.33,.03-.38,.01-.85-.67-.89-.62-.04-.77,.34-.93,.74-.34,.89,.43,1.52,.71,2.48Zm20.17,5.97c0-1.12,0-1.91,0-2.7,0-.61-.36-.85-1.01-.74-.68,.12-.88,.55-.56,1.04,.45,.68,.49,1.55,1.57,2.4Zm-.53,17.58c.87-.66,1.76-1.34,2.73-2.09-2.15-.69-2.53-.35-2.73,2.09Zm-7.49-27.92c.34-.01,2.44-1.83,2.54-2.17,.11-.4-.15-.53-.52-.56-.51-.04-2.53,1.86-2.5,2.31,.02,.27,.16,.42,.48,.42Zm-5.94,38.26c.23-.84,.49-1.51,.57-2.18,.08-.68-.5-.93-1.19-.86-.74,.08-.57,.6-.36,.94,.38,.61,.04,1.42,.97,2.11Zm-19.63-56c-.75,.32-2-.42-2.11,.67-.04,.43,.65,1.39,1.32,1.29,1.02-.15,.56-1.21,.8-1.96Zm-57.72,58.3c-.05-1.35-.2-2.23-1.16-2.61-.34-.13-1.44,.43-1.34,.8,.22,.89,1.49,.91,2.51,1.81Zm67.1-50.15c.9-.83,2.06-1.23,2-2.39,0-.17-.43-.41-.64-.22-.75,.65-1.98,1.11-1.36,2.61Zm52.77,25.6c.14,.46-.38,1.27,.46,1.27,.77,0,.98-.83,1.1-1.45,.1-.53-.2-.92-.86-.94-1.07-.03-.5,.73-.7,1.12Zm-84.13,14.16c.55-.68,.5-1.4-.15-1.89-.56-.42-1.32-.26-2.06,.12,.8,.64,1.48,1.19,2.21,1.77Zm-35.49-13.06q-1.48,1.47,.25,2.58c-.08-.86-.16-1.64-.25-2.58Zm86.62,34.26c-.58,1-.69,1.99,.06,3.32,.38-1.34,.33-2.33-.06-3.32Zm12.14-16.01c-.9,.67-1.83,1.03-1.49,2.05,.04,.13,.52,.28,.69,.22,1.12-.43,.83-1.25,.8-2.27Zm-62.11-52.63c.48,.65,.98,1.17,1.84,1.14,.37-.01,.28-.47,.18-.73-.34-.88-1.1-.6-2.02-.42Zm19.39,48.93c.31-1.1,.56-1.78-.29-2.28-.11-.06-.48,.02-.51,.1-.31,.74,.17,1.27,.8,2.18Zm53.81-12.49c-.23-1.08,.22-1.75-.51-2.22-.34-.22-.64,.07-.76,.33-.33,.73,.2,1.13,1.27,1.89Zm4.96,33.17c-.14,.13-.34,.24-.34,.35,0,.1,.2,.27,.34,.28,.26,.03,.53-.07,.46-.35-.03-.11-.27-.17-.45-.28Zm-39.85-37.53c-.2,.14-.34,.24-.48,.34,.12,.11,.24,.29,.37,.3,.14,0,.3-.15,.45-.23-.1-.12-.21-.24-.35-.41Zm34.41,.63c.41-.08,.44-.31,.38-.52-.03-.11-.23-.29-.33-.28-.3,.03-.42,.25-.35,.48,.04,.13,.21,.23,.29,.31Zm-9.93,54.82c.42-.04,.7-.13,.52-.41-.1-.15-.41-.25-.64-.28-.3-.04-.54,.14-.39,.39,.09,.16,.39,.23,.51,.29Zm-2.99-2.06c.2,.29,.26,.48,.4,.54,.17,.08,.5,.65,.59-.01,.03-.23-.31-.48-.98-.53Zm26.65-35.63c.1-.04,.26-.06,.3-.12,.03-.07-.06-.18-.1-.27-.1,.04-.26,.06-.29,.12-.03,.07,.06,.18,.09,.27Zm-24.94,36.69c-.06,.04-.1,.07-.15,.1,.04,.04,.08,.1,.13,.1,.04,0,.09-.05,.14-.09-.04-.04-.08-.08-.12-.11Z"/>
  <path class="cls-5" d="M83.37,10.44c1.91-.67,3.9-1.09,5.91-1.45,.75,2.45,1.46,4.92,2.25,7.36,3.02,9.37,6.56,18.6,10.52,27.68,3.13,7.18,6.73,14.19,10.77,21.02,.6,1.01,2.05,2.07,1.62,2.97-.45,.94-2.1,1.4-3.17,2.14-1.04,.72-1.54,.49-2.18-.52-4.29-6.7-7.75-13.73-11.03-20.86-4.18-9.08-7.67-18.37-10.97-27.72-1.25-3.54-2.03-7.2-3.71-10.62Z"/>
  <path class="cls-1" d="M140.17,63.47c-2.16,.41-3.71,1.91-5.81,2.51-1.36,.38-2.21,.18-2.61-.9-.41-1.1-1.74-1.94-1.21-3.3,3.37-1.17,6.5-2.78,9.48-4.55,1.01-.6,2.53-.79,2.99-2.08h0c.45,.22,.86,.07,1.27-.11,5.16-2.29,9.96-5.16,15.01-7.62,.08-.04,.07-.21,.11-.31h0c2.31-.69,4.53-1.52,6.25-3.15h0c1.5,.26,2.2-.92,3.28-1.44,5.6-2.68,11.18-5.39,16.65-8.29,.77,1.85,1.54,3.69,2.31,5.54-3.1,1.63-6.2,3.28-9.31,4.9-4.02,2.09-8.23,3.86-12.17,6.11-4.68,2.66-9.77,4.69-14.52,7.29-3.74,2.05-7.8,3.64-11.71,5.43Z"/>
  <path d="M83.53,10.44c1.68,3.41,2.46,7.08,3.71,10.62,3.3,9.36,6.79,18.64,10.97,27.72,3.28,7.13,6.75,14.16,11.03,20.86,.64,1.01,1.14,1.24,2.18,.52,1.07-.74,2.72-1.2,3.17-2.14,.43-.91-1.03-1.97-1.62-2.97-4.04-6.82-7.64-13.83-10.77-21.02-3.96-9.08-7.5-18.3-10.52-27.68-.79-2.44-1.5-4.91-2.25-7.36,1.12-.63,1.13,.22,1.32,.81,1.48,4.45,2.91,8.92,4.46,13.36,3.06,8.76,6.57,17.37,10.54,25.83,2.61,5.57,5.59,10.96,8.68,16.31,.5,.87,.79,2.01,2.1,2.34,.18,.14,.37,.28,.55,.42-3.13,1.83-6.49,3.38-9,5.95-.24,.24-.47,.49-.71,.73-.17-.17-.34-.33-.51-.5,.02-.05,.03-.13,.07-.16,2.61-1.86,1.56-3.61,.2-5.77-6.04-9.64-10.62-19.88-14.79-30.26-3.43-8.53-6.5-17.16-9.18-25.9-.16-.51-1-1.35,.35-1.7Z"/>
  <path class="cls-5" d="M73.92,151.11c.79-1-.41-1.51-.78-2.21-.39-.74-.77-1.3,.72-1.25,1.9,.05,3.8,.05,5.65-.45,.98-.27,1.86,.18,2.73,.47,5.27,1.79,9.79,4.45,13.06,8.48,.69,.85,1.53,1.78,.51,3.01-1.63,1.95-1.57,1.94-3.78,.48-2.23-1.47-4.48-2.89-7.31-3.51-3.38-.74-6.46-2.05-9.11-4.04-.53-.21-.74-.09-.58,.42-.27,0-.41-.13-.44-.36,.5-.16,.55-.46,.28-.8-.2-.25-.42-.63-.9-.25h-.06Z"/>
  <path class="cls-13" d="M91.52,174.53c-1.18,.75-2.61,.72-3.89,.59-1.42-.14-2.26,.29-3.16,1.12-5.08,4.69-11.58,7.36-18.52,9.31-1.99,.56-3.79,1.51-5.88,1.85-2.45,.4-2.74,.1-3.07-2-.17-1.09-.67-2.26-1.11-3.3-.77-1.8,.54-1.88,1.71-2.21,6.24-1.76,12.56-3.37,17.89-6.86,1.06-.7,2.01-1.52,3.01-2.28,.71-.54,.3-1.19,.25-1.8-.18-2.33,.35-4.38,2.95-5.64,0,0,.14,.12,.14,.11,.05,.21,.1,.42,.15,.64-1.71,1.92-2.96,3.86-1.49,6.38,1.51,2.6,3.98,3.71,7.19,3.72,1.27,0,2.54-.31,3.81-.48,.01,.28,.02,.56,.03,.85Zm-30.47,6.79c.4-.09,.88-.2,1.04,.23,.22,.59-.41,.65-.84,.74-.79,.16-1.61,.23-2.4,.39-.61,.13-1.6,.09-1.42,.89,.16,.69,1.02,.37,1.57,.28,.93-.15,1.85-.38,2.76-.6,.43-.1,.86-.14,1,.3,.16,.48-.31,.56-.71,.65-.85,.19-1.69,.44-2.55,.57-.7,.1-1.33,.42-1.25,.94,.12,.77,.99,.42,1.48,.32,8.49-1.84,16.5-4.51,23.07-9.75,1.22-.98,1.68-1.59-.29-2.17-.55-.16-1.19-.52-1.44-.94-1.1-1.9-1.99-1.22-3.51-.19-5.09,3.45-10.93,5.72-17.09,7.4-.58,.16-1.24,.13-1.78,.34-.52,.2-1.64-.06-1.43,.78,.18,.7,1.03,.25,1.58,.18,.74-.09,1.47-.23,2.2-.35Z"/>
  <path class="cls-1" d="M107.39,74.74c.24-.24,.47-.49,.71-.73,.55,0,1.11,0,1.66,.01-.42,.58-.87,1.15-1.26,1.75-.4,.63-.27,1.24,.31,1.73,.78,.66,3.55,.54,4.57-.19-.83-.32-1.67-.05-2.49-.11-.56-.04-1.22,.16-1.54-.44-.29-.55,.05-1.04,.43-1.42,.68-.69,1.4-1.36,2.16-1.99,1.44-1.19,2.93-2.35,4.4-3.52h0c.9-.1,1.82-.18,1.96-1.24,.31-.26,.36-.59,.33-.94,.49-.56,1.2-.79,1.91-1.02,.31,.02,.62,.04,.93,.06-.31,.74,.21,.85,.72,.59,.74-.38,1.61-.62,2.15-1.28v.04c1.17,.91,1.69,2.14,2.11,3.42-1.92,.83-4.2,.97-5.76,2.48-1.24,.39-2.51,.74-3.73,1.2-1.83,.69-1.92,1.63-.32,2.7,.05,.03,.11,.06,.16,.1,.58,.44,1.63,.7,1.59,1.39-.05,.75-1.16,.8-1.83,.97-.97,.25-1.39,1.13-2.36,1.37-.39,.1,.23,.43,.18,.69-.21,.33-.53,.33-.88,.25-.22-.95-1.16-.59-1.76-.69-.94-.17-1.94-.02-2.89-.12-2.77-.31-3.52-1.77-2.1-3.99,.22-.35,.44-.7,.66-1.05Z"/>
  <path class="cls-3" d="M192.98,83.08c.86,1.33,1.37,2.77,1.65,4.26,.1,.55,.58,1.47-.41,1.62-.91,.14-2.28,.2-2.67-.8-1.8-4.65-5.84-7.26-10.87-8.98-.54-.18-.75-.53-.88-.87-.63-1.59-1.5-3.06-2.8-4.65,2.2,.28,3.92,.88,5.67,1.48,.62,.21,1.17,.89,2,.41,0,0,.04,.07,.04,.07,.51,1.11,1.76,1.44,2.82,1.93,.4,.18,.54-.16,.39-.5,.65-.21,.87,.16,1.06,.57-.93,.55-.77,1,.6,1.7l.04-.09-.02,.1c-.11,.1-.1,.2,.02,.28,1.12,1.16,2.23,2.31,3.35,3.47Z"/>
  <path class="cls-5" d="M223.27,97.97c1.68,2.02,3.51,3.97,4.74,6.24,.22,.4,.74,.84,.39,1.29-.39,.5-.99,.04-1.49,0-1.76-.16-2.87-.82-3.77-2.33-1.9-3.16-5.38-4.8-9.32-5.57-1.43-.28-2.23-.85-2.81-1.97-.65-1.26-1.55-2.41-2.45-3.76,1.97,0,3.56,.68,5.24,1.03,.25,.46,.6,.8,1.27,.76,.42,.28,.88,.46,1.42,.44,0,0,.03,0,.03,0,.1,.28,.37,.32,.65,.36h-.04c1.11,.58,2.21,1.15,3.32,1.72,.64,.32,.89,1.26,1.95,.9,0,0-.01,0-.01,0-.43,.78,.4,.7,.83,.91h.04Z"/>
  <path d="M140.17,63.47c3.92-1.79,7.97-3.38,11.71-5.43,4.75-2.6,9.84-4.63,14.52-7.29,3.95-2.24,8.15-4.02,12.17-6.11,3.12-1.61,6.21-3.26,9.31-4.9,1.57,.88-.07,1.08-.44,1.27-3.61,1.89-7.16,3.88-10.88,5.62-6.76,3.16-13.34,6.63-19.96,10-4.71,2.4-9.46,4.71-14.32,6.86-.87,.38-1.33,.84-1.18,1.71-.96-.3,.37-1.59-.94-1.74Z"/>
  <path class="cls-5" d="M68.92,123c.44-.11,1.09-.56,.92,.38-.1,.54-.55,1.03-.39,1.63-.02,.15-.04,.3-.06,.45-.36,1.21-.2,2.42,.04,3.62-.03,.04-.08,.09-.07,.12,.03,.08,.08,.16,.12,.24,.45,1.26,.26,2.46-.3,3.69-.8,1.75-.08,3.41,.63,5.06,.28,.65,.99,1.12,1,1.88-2.45,.28-4.72-.9-5.78-2.99-1.21-4.43-.6-8.63,2.22-12.54,.56-.5,1.12-1,1.69-1.5v-.04Z"/>
  <path class="cls-5" d="M191.34,169.51c-1.55-1.53-3.48-2.81-4.33-4.8,.03-.03,.09-.08,.08-.1-.05-.07-.11-.12-.17-.19-.33-.71-.67-1.42-1-2.12,.05-.11,.07-.23,.04-.34,.88-.38,1.19,.21,1.58,.69,2.86,3.49,6.86,4.89,11.71,4.72,.53-.02,1.16-.2,1.57,.16,1.74,1.53,4,2.32,6.13,3.31-1.24,.22-2.48,.43-3.72,.65-1.36,0-2.71,0-4.07,.01-2.51-.42-4.99-.95-7.31-1.91-.16-.02-.31-.04-.47-.06,0,0-.03,0-.03,0Z"/>
  <path d="M137.99,55.44c8.25-3.77,16.14-8.12,24.25-12.12,4.16-2.06,8.46-3.94,12.49-6.22,2.84-1.6,5.72-3.12,8.7-4.5,.89-.41,.91-.39,1.48,.27-2.92,1.24-5.52,3.01-8.38,4.31-7.31,3.35-14.2,7.37-21.52,10.71-1.33,.61-2.73,1.14-3.93,1.91-3.75,2.41-7.93,4.1-11.99,6-.22-.12-.44-.24-.67-.35-.15,0-.29,0-.44,0Z"/>
  <path class="cls-1" d="M139.09,55.81c4.06-1.9,8.24-3.59,11.99-6,1.2-.77,2.61-1.3,3.93-1.91,7.31-3.34,14.2-7.36,21.52-10.71,2.86-1.31,5.46-3.07,8.38-4.31,.08,.19,.17,.38,.25,.56-3.87,1.93-7.57,4.11-11.49,5.99-2.77,1.33-6,2.1-8.02,4.52,0,0,0,0,0,0-1.89,.19-3.34,1.25-4.91,2.04-.51,.26-1.48,.19-1.34,1.11,0,0,0,0,0,0-.94-.41-1.61,.24-2.27,.58-3.34,1.68-6.65,3.42-9.94,5.18-1.4,.75-3.1,1.07-4.18,2.29,0,0,0,0,0,0-.79-.23-1.33,.29-1.9,.58-1.47,.75-2.89,1.58-4.33,2.37-.02-.19-.04-.38-.06-.57-.2-.66,.96-.75,.75-1.42,0,0,.02,.05,.02,.05,.59,.18,.94,.14,.6-.53-.06-.05-.11-.1-.16-.16,0,0,.05-.02,.05-.02,.15,0,.29,0,.44,0-.06,.14-.35,.2-.15,.43,.32,.35,.55,.05,.81-.07Z"/>
  <path class="cls-6" d="M120.27,99.68c.26-.17,.64-.28,.76-.51,.29-.53,1.49-.04,1.28-.64-.27-.79-1.1,.13-1.67-.09-.1-.19-.19-.38-.29-.58,.94,.23,1.56-1,2.58-.41-.08,1.04,.25,1.14,1.41,.73,3.54-1.25,7.26-1.87,11.11-1.7,.6,.03,1.61-.3,1.65,.54,.04,.89-.82,1.13-1.81,1.27-4.25,.57-8.59,.68-12.78,1.58-.25,.02-.5,.04-.75,.06-.5-.08-.99-.17-1.49-.25Z"/>
  <path class="cls-13" d="M239.46,138.12c.33,0,.66,.01,.99,.02-1.67,3.81-3.87,7.29-8.17,9.38-.8,.39-1.17,.82-1.26,1.61-.3,2.72-1.6,5.12-3.36,7.35,0-.36,.02-.72-.49-.87,1.51-2.77,3.02-5.55,2.77-8.73,.76,.52,1.17,.43,1.1-.48,1.05,.51,1.61-.28,2.26-.68,2.58-1.6,3.72-4.14,5.5-6.27,.13-.05,.25-.09,.38-.14-.08-.06-.16-.12-.24-.18,.18-.34,.35-.68,.53-1.01Z"/>
  <path class="cls-13" d="M88.28,110.2c-.19,.49-.34,.97,.57,1-.63,.2-1.26,.4-1.89,.6-6.13,2.01-11.55,4.85-15.2,9.74-.3-.26-.61-.52-.91-.79,3.62-4.62,8.71-7.59,14.64-9.6,.93-.32,1.86-.64,2.79-.96Z"/>
  <path class="cls-13" d="M240.22,109.71c-.37-.14-.72-.32-1.14-.19-1.25-2.11-2.54-4.18-4.76-5.72-2.05-1.42-4.37-2.42-6.64-3.52,.27-.29,.53-.58,.8-.88,5.2,2.35,9.98,5.05,11.74,10.3Z"/>
  <path class="cls-13" d="M67.25,124.53c-2.82,3.91-3.43,8.1-2.22,12.54-.37,0-.68,.09-.84,.41-1.79-4.85-1.18-9.38,2.4-13.52,.22,.19,.44,.38,.67,.57Z"/>
  <path class="cls-12" d="M165.49,43.91c1.92-2.35,4.99-3.1,7.63-4.39,3.72-1.82,7.24-3.94,10.92-5.8,.26-.1,.51-.19,.77-.29,.12,.09,.23,.18,.35,.27,0,.45-.45,.54-.73,.77-5.19,2.81-10.5,5.44-15.82,8.04-1.02,.5-1.69,1.64-3.12,1.4Z"/>
  <path d="M107.39,74.74c-.22,.35-.43,.71-.66,1.05-1.43,2.22-.68,3.68,2.1,3.99,.96,.11,1.96-.04,2.89,.12,.59,.11,1.54-.25,1.76,.69-1.67,.24-3.35,.34-5.02,.14-3.25-.4-4.26-2.11-2.92-4.84,.31-.64,.69-1.24,1.34-1.65,.17,.17,.34,.33,.51,.5Z"/>
  <path class="cls-13" d="M225.77,160.19c.33,.12,.67,.24,1,.36,.02,.22,.03,.45,.05,.67-.84,1.64-1.21,3.43-2.34,4.97-1.52,1.95-3.66,3.18-6.18,3.98,0-.31-.01-.62-.02-.93,4.49-1.8,6.81-4.92,7.49-9.05Z"/>
  <path class="cls-11" d="M104.61,102.6c-.92,1.11-1.37-.48-2.14-.28,3.18-2.1,6.58-3.78,10.65-4.17-.25,.43-1.25,.29-1.07,1.05-1.94,.76-3.9,1.48-5.81,2.3-.6,.26-1.49,.31-1.64,1.1Z"/>
  <path class="cls-13" d="M241.55,112.86c.01-.37,.02-.74,.03-1.11,4.03,2.5,5.32,6.26,3.71,10.78-.19-.54,.17-1.21-.54-1.62,.4-3.12-.64-5.81-3.2-8.06Z"/>
  <path class="cls-13" d="M244.56,125.49c1.24-.33-.06-1.04,.29-1.5,1.75,2.86,2.51,5.77,.5,8.79-.21-.22-.42-.43-.64-.65,.92-2.23,.58-4.44-.16-6.64Z"/>
  <path class="cls-13" d="M191.84,169.58c2.33,.95,4.8,1.49,7.31,1.91-.07,.44,.02,.84,.37,1.18-3.18,.03-5.84-1.19-8.42-2.59,.25-.17,.49-.33,.74-.5Z"/>
  <path class="cls-11" d="M120.52,66.62c-.71,.23-1.42,.46-1.91,1.02-.51,.14-1.01,.27-1.52,.41-.18-.14-.37-.28-.55-.42,2.12-1.16,4.24-2.32,6.36-3.48,.04,.33,.07,.67,.11,1-.83,.49-1.66,.97-2.48,1.46Z"/>
  <path class="cls-13" d="M192.98,83.08c-1.12-1.16-2.23-2.31-3.35-3.47,.11-.07,.21-.13,.32-.2-.11-.03-.23-.06-.34-.09l.02-.1s-.04,.09-.04,.09c.09-.32,.17-.63,.25-.95,1.47,1.53,3.27,2.84,4.22,4.71-.36,0-.72,0-1.08,0Z"/>
  <path class="cls-13" d="M203.22,171.48c1.24-.22,2.48-.43,3.72-.65,.04,.55,.54,.6,1.01,.68-1.33,1.13-3.06,1.06-4.73,1.15,0-.39,0-.79,0-1.18Z"/>
  <path class="cls-10" d="M218.28,169.24c0,.31,.01,.62,.02,.93-1.15,.54-2.36,.88-3.69,.83-.31-.32-.57-.24-.79,.08-1.09,.23-2.17,.15-3.26,0,0-.26,0-.51,0-.77,2.65,.05,5.25-.19,7.73-1.07Z"/>
  <path class="cls-10" d="M203.22,171.48c0,.39,0,.79,0,1.18-1.23,.16-2.46,.26-3.69,0-.35-.34-.44-.74-.37-1.18,1.36,0,2.71,0,4.07-.01Z"/>
  <path class="cls-7" d="M224.48,166.2c1.13-1.54,1.5-3.33,2.34-4.97,.16,.16,.32,.33,.48,.49,.26,.49,.31,.88-.2,1.38-.87,.86-.67,2.23-1.74,3.04-.29,.02-.59,.04-.88,.06Z"/>
  <path class="cls-11" d="M147.8,156.3c.28-.4,1.03-.17,1.22-.69,1.09-.04,2.17-.09,3.26-.13,.13,.27,.26,.55,.38,.82-1.62,.22-3.24,.34-4.86,0Z"/>
  <path class="cls-13" d="M179.5,166.38c.03-.28,.05-.55,.08-.83,.68,.21,1.37,.43,2.05,.64,.23,.86,.7,.85,1.32,.26,.97,.01,1.94,.04,2.85,.38-.67,.26-1.63-.36-2.1,.51-1.52,.07-2.89-.33-4.19-.96Z"/>
  <path class="cls-11" d="M120.35,97.87c.1,.19,.19,.38,.29,.58-1.61-.62-3.4,.03-5.02-.55,1.57-.39,3.15-.1,4.73-.03Z"/>
  <path class="cls-10" d="M94.38,173.18c-.16,.12-.33,.24-.49,.35-.14,0-.24,.07-.31,.18-.33,.15-.67,.31-1.01,.46-.21-.21-.42-.43-.64-.64,.27-.12,.54-.24,.81-.36,.13-.08,.26-.17,.39-.25,.76-.55,1.02-1.49,1.99-1.88,0,0,.07,.05,.07,.05,0,.48,0,.96,0,1.44-.13,.1-.26,.19-.38,.29-.15,.12-.29,.24-.44,.35Z"/>
  <path class="cls-10" d="M220.46,96.17c-1.11-.57-2.21-1.14-3.32-1.72,.34-.15,.67-.31,1-.46,.19,.1,.38,.19,.57,.29,.22,.09,.43,.18,.65,.27,.77,.35,1.6,.63,2.15,1.26-.35,.12-.7,.24-1.06,.36Z"/>
  <path class="cls-13" d="M197.68,86.39c1.24-.87-.49-.72-.53-1.15,1.27-.04,2.24,.48,3.06,1.25-.82,.11-1.61-.4-2.44-.11h-.09Z"/>
  <path class="cls-10" d="M187.93,77.06c.15,.33,0,.68-.39,.5-1.07-.49-2.32-.82-2.82-1.93,.23-.43,.57-.34,.93-.14,.12,.41,.46,.54,.9,.55,.53,.27,1.13,.47,1.38,1.02Z"/>
  <path class="cls-13" d="M99.69,170.08c0-.25,0-.5,0-.75,.49-.32,1.04-.4,1.63-.33,0,.48,.35,.65,.84,.7-.76,.41-1.61,.41-2.46,.39Z"/>
  <path class="cls-13" d="M243.61,134.69c-.15-.27-.3-.54-.44-.81,.36-.36,.72-.71,1.08-1.07l1.06,.05c-.28,.8-.88,1.39-1.69,1.83Z"/>
  <path class="cls-10" d="M67.25,124.53c-.22-.19-.44-.38-.67-.57,.7-.46,.8-2.06,2.35-.93-.56,.5-1.12,1-1.69,1.5Z"/>
  <path class="cls-13" d="M226.82,159.85c-.73-1.05-.04-1.91,.48-2.8-.16,.93-.32,1.87-.48,2.8Z"/>
  <path class="cls-13" d="M218.15,94c-.33,.15-.67,.31-1,.46,0,0,.03,0,.03,0-.13-.23-.3-.41-.65-.36,0,0-.03,0-.03,0-.07-.41-.14-.81-.21-1.22,.93,0,1.13,.89,1.86,1.12Z"/>
  <path class="cls-10" d="M102.15,169.69c-.49-.04-.84-.21-.84-.7,.67-.13,1.34-.26,2.01-.39,.15,.13,.31,.27,.46,.4-.02,.11-.03,.22-.03,.34-.53,.12-1.07,.23-1.6,.35Z"/>
  <path class="cls-10" d="M189.84,78.37c-.08,.32-.16,.63-.25,.95-1.38-.69-1.54-1.14-.6-1.7,.28,.25,.57,.5,.85,.74Z"/>
  <path class="cls-13" d="M82.97,162.32c.57,.3,.35,.8,.41,1.22-.14,.05-.28,.1-.42,.15-.28-.4-.71-.34-1.14-.27l-.14-.12c.43-.33,.86-.66,1.29-1Z"/>
  <path class="cls-13" d="M241.14,136.4c.03-.76,.5-1.09,1.36-1.03-.45,.34-.91,.69-1.36,1.03Z"/>
  <path class="cls-13" d="M95.21,172.54c0-.48,0-.96,0-1.44,.34,.02,.67,.04,1.01,.06-.33,.47-.45,1.05-1.02,1.39Z"/>
  <path class="cls-13" d="M97.23,170.39c.57-.53,1.26-.33,1.93-.24-.59,.41-1.26,.33-1.93,.24Z"/>
  <path class="cls-13" d="M184.52,167.45c.59-.35,1.13-.36,1.6,.16-.56,.13-1.1,.1-1.6-.16Z"/>
  <path class="cls-11" d="M122,60.74c.43,.44,.43,.89,.04,1.35-.29-.44-.26-.89-.04-1.35Z"/>
  <path class="cls-13" d="M220.46,96.17c.35-.12,.7-.24,1.06-.36,.46,.34,1.52,.36,.9,1.26-1.06,.35-1.31-.58-1.95-.9Z"/>
  <path class="cls-13" d="M210.55,170.31c0,.26,0,.51,0,.77-.28,.01-.56,.03-.84,.04,.04-.32,.09-.63,.13-.95,.23,.05,.47,.09,.7,.14Z"/>
  <path class="cls-13" d="M69.87,121.18c.03,.59-.34,.84-.99,.83,.07-.5,.4-.78,.99-.83Z"/>
  <path class="cls-13" d="M223.23,97.97c-.42-.2-1.26-.13-.83-.91,.67-.77,1.07-.03,1.35,.27,.37,.4-.11,.56-.52,.63Z"/>
  <path class="cls-13" d="M208.92,90.83c-.56,.54-.85,.06-1.18-.23,.39,.08,.79,.15,1.18,.23Z"/>
  <path class="cls-13" d="M211.81,91.47c-.48,.03-.98,.11-1.26-.36,.5-.09,.89,.12,1.26,.36Z"/>
  <path class="cls-10" d="M91.52,174.53c-.01-.28-.02-.56-.03-.85,.15-.05,.31-.09,.46-.14,.21,.21,.42,.43,.64,.64-.28,.29-.66,.35-1.07,.35Z"/>
  <path class="cls-13" d="M213.82,171.09c.22-.33,.47-.41,.79-.08-.24,.18-.5,.22-.79,.08Z"/>
  <path class="cls-13" d="M72.73,150.03c.46,.18,.45,.52,.38,.88-.45-.19-.39-.54-.38-.88Z"/>
  <path class="cls-13" d="M103.75,169.34c0-.11,.02-.23,.03-.34,.31,.01,.63,.02,.94,.03-.24,.31-.56,.42-.98,.31Z"/>
  <path class="cls-10" d="M73.98,151.11c.47-.38,.69,0,.9,.25,.27,.33,.21,.64-.28,.8-.59-.19-1.15-.38-.62-1.05Z"/>
  <path class="cls-13" d="M186.55,76.04c-.45,0-.79-.14-.9-.55,.38,.08,.73,.21,.9,.55Z"/>
  <path class="cls-10" d="M245.31,132.87l-1.06-.05c.16-.23,.32-.46,.48-.69,.21,.22,.42,.43,.64,.65,0,0-.05,.09-.05,.09Z"/>
  <path class="cls-11" d="M102.15,102.5c-.09,.42-.42,.55-.88,.53,.14-.37,.48-.48,.88-.53Z"/>
  <path class="cls-13" d="M75.03,152.52c-.16-.5,.05-.63,.58-.42,0,.37,.01,.74,.02,1.11-.39-.11-.65-.3-.6-.7Z"/>
  <path class="cls-13" d="M216.28,92.87c-.35,.02-.65-.05-.83-.34,.37-.05,.63,.09,.83,.34Z"/>
  <path class="cls-13" d="M194.62,84.12c-.09-.19-.18-.37-.27-.56,.09,.19,.18,.37,.27,.56Z"/>
  <path class="cls-13" d="M214.35,92.14c-.17-.05-.33-.09-.5-.14,.17,.05,.33,.09,.5,.14Z"/>
  <path class="cls-13" d="M219.37,94.56c-.22-.09-.43-.18-.65-.27,.22,.09,.43,.18,.65,.27Z"/>
  <polygon class="cls-13" points="183.89 74.69 183.71 74.67 183.83 74.57 183.89 74.69"/>
  <path class="cls-11" d="M114.28,98.08c-.14,0-.28,.02-.42,.03,.14,0,.28-.02,.42-.03Z"/>
  <path class="cls-13" d="M240.47,138.02c.06-.2,.12-.39,.17-.59-.06,.2-.12,.39-.17,.59Z"/>
  <path class="cls-11" d="M121.53,63.92c-.15,.08-.31,.16-.46,.24,.15-.08,.31-.16,.46-.24Z"/>
  <path class="cls-10" d="M138.1,55.62c.34,.67-.02,.71-.6,.53-.02-.08-.05-.15-.06-.23,0-.03,.07-.06,.11-.1,.18-.07,.37-.14,.55-.21Z"/>
  <path class="cls-11" d="M136.45,56.14c-.16-.09-.32-.18-.49-.28,.16,.09,.32,.18,.49,.28Z"/>
  <path class="cls-11" d="M138.1,55.62c-.18,.07-.37,.14-.55,.21,.13-.12,.26-.24,.39-.36,.05,.06,.1,.11,.16,.16Z"/>
  <path class="cls-11" d="M100.89,103.23c-.04,.12-.12,.18-.26,.18,.09-.06,.18-.12,.26-.18Z"/>
  <path class="cls-13" d="M109.89,167.05c.11-.06,.22-.13,.33-.19-.11,.06-.22,.13-.33,.19Z"/>
  <path class="cls-11" d="M98.86,104.26c-.14,.06-.28,.12-.42,.19,.14-.06,.28-.12,.42-.19Z"/>
  <path class="cls-13" d="M109.08,167.41c.14-.06,.28-.11,.42-.17-.14,.06-.28,.11-.42,.17Z"/>
  <path class="cls-13" d="M108.25,167.84c.16-.08,.31-.16,.47-.24-.16,.08-.31,.16-.47,.24Z"/>
  <path class="cls-13" d="M107.44,168.17c.15-.07,.3-.15,.44-.22-.15,.07-.3,.15-.44,.22Z"/>
  <path class="cls-10" d="M191.84,169.58c-.25,.17-.49,.33-.74,.5-.12-.26-.03-.45,.27-.57,.16,.02,.31,.04,.47,.06Z"/>
  <path class="cls-13" d="M94.38,173.18c.15-.12,.29-.23,.44-.35-.15,.12-.29,.23-.44,.35Z"/>
  <path class="cls-13" d="M93.59,173.72c.06-.11,.16-.17,.31-.18-.1,.06-.2,.12-.31,.18Z"/>
  <path class="cls-13" d="M244.83,123.44c.05-.12,.11-.25,.16-.37-.05,.12-.11,.25-.16,.37Z"/>
  <path class="cls-8" d="M191.01,33.26c-.13-.09-.26-.19-.39-.28,.3-.08,.4,.04,.39,.28Z"/>
  <path class="cls-5" d="M71.76,121.55c3.65-4.88,9.07-7.72,15.2-9.74,.63-.21,1.26-.4,1.89-.6,3.18-.52,6.3-1.31,9.6-1.14,1.91,.1,3.56,.63,5.03,1.63,1.34,.92,1.66,2.65,.82,3.95-.34,.53-.69,.84-1.43,.58-3.74-1.28-7.3-.55-10.78,.79-1.91,.73-3.85,1.44-5.67,2.32-1.56,.76-2.96,1.73-4.31,2.8-2.4,1.9-4.42,4.25-7.71,5.24-1.47,.44-2.31,1.68-3.48,2.87-1.06-3.22-.25-5.97,.85-8.71Z"/>
  <path class="cls-5" d="M91.6,109.36c4.77-3.92,10.63-5.6,16.95-6.19,5.07-.47,10.16-.36,15.11,.96,3.33,.89,4.97,2.39,5.1,4.57,.06,.99-.41,1.66-1.32,2.2-.95,.57-1.63,.09-2.37-.35-3.53-2.12-7.47-1.79-11.38-1.3-3.21,.4-6.5,.31-9.66,1.06-.24,.06-.57,.01-.79-.09-3.64-1.75-7.43-1.41-11.26-.66-.08,.02-.2-.1-.39-.2Z"/>
  <path class="cls-5" d="M199.15,99.55c1.76,2.2,3.86,3.52,6.29,4.43,.86,.33,1.08,.76,1.07,1.45-.05,3.55,0,7.09-.76,10.62-.51,2.32-1.96,4.16-3.43,6.04-.22,.27-.62,.44-.95,.65-1.13,.71-2.55,1.06-3.59,.35-1.05-.72-1.35-2.24-.8-3.18,1.32-2.23,1.03-4.53,1.06-6.83,.06-4.12-.69-8.27,.72-12.33,.09-.27,.18-.54,.4-1.19Z"/>
  <path class="cls-5" d="M120.65,102.63l-.14-.09s-.17,.02-.17,.02c-.33-.25-.49-.53-.24-.9,.14,.01,.26-.02,.37-.1,.13-.02,.27-.04,.4-.06,1.5-.3,2.99-.61,4.49-.91,1.01-.11,2.13,.15,2.92-.67,4.79-.5,9.66-1.47,14.36-.13,3,.85,6.15,1.73,8.56,3.72,.25,.21,.51,.85,1.05,.22,0,0,0,.02,.01,.02-.71,.62,.25,.97,.33,1.45,.11,.37,.22,.74,.33,1.11-.02,.29-.04,.58-.06,.87-.05,.93,.05,2.09-1.13,2.42-.94,.27-1.33-.85-1.8-1.39-1.63-1.84-3.98-2.32-6.37-2.6-4.44-.53-8.91-.63-13.38-.36-1.06,.06-1.93-.08-2.8-.69-1.6-1.14-3.58-1.58-5.58-1.92-.38-.18-.77-.2-1.17-.03Z"/>
  <path class="cls-5" d="M178.41,113.43c-2.44-.85-2.43-.84-1.48-2.91,.22-.49,.52-1.01,.51-1.5-.12-4.77,2.07-9.37,1.4-14.18-.25-1.8,.05-3.58,.58-5.35,.74-.1,.82,.5,1.16,.8,1.76,1.58,3.2,3.45,5.62,4.4,.8,.32,1.03,.84,.99,1.55-.22,4.21-1.03,8.31-3.01,12.19-1,1.96-2.69,3.48-4.59,4.82-.39,.06-.78,.12-1.17,.19Z"/>
  <path class="cls-5" d="M135.62,73.38c-2.22-.07-4.82-.84-6.73-3.12-2.9-3.46-5.24-7.05-3.87-11.47,1.4-4.54,7.35-6.19,11.52-3.36,1.09,.74,.95,1.29-.08,1.88-.97,.55-1.95,.98-3.21,1.03-1.89,.08-2.93,1.32-2.49,2.9,.63,2.3,2.03,4.3,3.74,6.15,1.18,1.28,2.55,2.44,3.46,3.9,1.31,2.11,1.3,2.12-2.33,2.09Z"/>
  <path class="cls-5" d="M131.91,146.65c.06,.94-1.71,2.66-2.81,2.76-.56,.06-.69-.24-.81-.59-1.03-2.98-3.99-4.62-6.4-6.57-2.26-1.82-4.99-3.19-7.08-5.24-.96-.94-1.11-2.15-1.95-3.09-.15-.16-.01-.78,.06-.79,1.66-.21,2.68-1.54,4.28-1.8,1.39-.23,2.49,.25,3.51,1.03,4.62,3.55,8.88,7.31,10.85,12.57,.21,.57,.28,1.13,.37,1.71Z"/>
  <path class="cls-5" d="M99.23,137.57c.5,.17,.94,.31,1.38,.47,6,2.19,10.16,6.19,13.9,10.58,1.1,1.29,1.1,2.36-.6,3.53-1.68,1.16-2.81,.79-3.99-.3-3.14-2.92-7.53-4.24-11.14-6.55-.6-.38-1.27-.73-1.71-1.22-.82-.91-1.7-1.84-2.18-2.89-.87-1.88,1.68-1.21,2.37-2.04,.49-.59,1.02-1.39,1.99-1.58Z"/>
  <path class="cls-5" d="M224.12,117.82c-.14,4.22-.35,7.77-1.59,11.2-.74,2.04-2.11,3.63-4.32,4.64-.98,.45-1.59,.66-1.66-.82-.08-1.64,1.23-2.79,1.34-4.33,.23-3.12-.3-6.15-.91-9.2-.57-2.88-.66-5.8,.25-8.67,.37-1.16,.93-1.85,2.22-.61,.18,.17,.37,.38,.6,.47,4.41,1.52,4.72,4.57,4.07,7.33Z"/>
  <path class="cls-5" d="M163.19,107.39c1.73,.56,3.5,1.05,5.19,1.69,3.81,1.44,5.49,4.05,4.87,7.43-.12,.68-.22,1.48-1.1,1.74-.82,.25-1.04-.59-1.57-.88-5.28-2.89-10.75-4.99-17.15-2.73-.58,.2-1.31-.47-1.21-1.2,.32-2.46,1.79-4.19,4.42-5.25,1.87-.75,3.79-1.05,5.82-.91,.24,.04,.48,.08,.72,.13Z"/>
  <path class="cls-6" d="M130.07,113.38c-.28-3.48,2.57-6.86,7.5-7,3.78-.11,7.52-.05,10.74,2.1,1.42,.95,2.37,2.05,2.41,3.64,.06,1.99-1.04,2.73-3.13,1.92-4.57-1.77-9.14-.98-13.71-.1-.62,.12-1.2,.4-1.64,.93-.36,.43-.95,.97-1.71,.69-.81-.3-.33-1.03-.46-1.56-.04-.17,0-.35,0-.62Z"/>
  <path class="cls-5" d="M181.98,143.64c.13,2.52-.67,4.83-2.08,7-.5,.76-1,1.22-1.88,.15-4.02-4.92-4.82-10.56-5.11-16.34-.06-1.17,.3-1.77,1.81-1.52,.96,.16,1.92-.05,2.74-.46,1.71-.86,2.35,.06,2.78,1.2,1.22,3.24,1.59,6.6,1.74,9.97Z"/>
  <path class="cls-3" d="M138.85,80.31c-1.24-.15-3.2-.12-5.09-.67-2.45-.72-4.64-3.55-4.35-5.68,.1-.71,.33-1.19,1.25-.75,3.89,1.87,7.96,1.32,12.03,.71,3.26-.49,6.5-1.11,9.84-.91,.8,.05,1.6,.21,2.37,.42,.65,.17,.97,.61,.17,.94-3.7,1.51-6.65,4.12-10.56,5.3-1.59,.48-3.24,.78-5.66,.65Z"/>
  <path class="cls-5" d="M163.72,142.74c.11,.76-.36,2.06-.71,3.36-.34,1.27-1.16,1.37-2.22,.44-1.33-1.16-1.75-2.71-2.51-4.12-1.39-2.58-2.94-5.1-4.1-7.77-.38-.87-.83-1.73-1.09-2.62-.91-3.1,.06-4.33,3.73-4.7,1.07-.11,2.1,.35,2.56,1.16,2.44,4.31,4.08,8.82,4.35,14.26Z"/>
  <path class="cls-5" d="M133.13,127.96c.13-.02,.27-.02,.4-.05,.89-.24,1.41-1.32,2.41-1.08,1.3,.32,2.38,1.11,3.36,1.91,5.21,4.23,6.55,9.84,7.4,15.6,.09,.62,.5,1.56-.57,1.78-.84,.18-1.46-.46-1.84-1.13-1.03-1.77-2.24-3.44-4-4.76-.21-.17-.42-.34-.64-.51-.3-.34-.46-.84-1.15-.74,0,0-.06,0-.06,0,.19-.37-.02-.5-.41-.53h0c-.1-.67-.7-1.01-1.23-1.39-1.39-2.2-3.3-4.16-3.97-6.69-.2-.75-.34-1.46-.14-2.21,.15-.07,.3-.14,.45-.2Z"/>
  <path class="cls-5" d="M117.77,109.92c3.68,.13,6.88,.7,8.75,3.57,.43,.66,1.1,1.45,.36,2.18-.7,.69-1.6,.4-2.6,.18-3.16-.68-6.15,.29-9.11,1.1-2.12,.58-4.21,1.19-5.89,2.62-.85,.72-1.76,.57-2.14-.73-1.38-4.77,.88-7.61,7.02-8.58,1.26-.2,2.56-.24,3.61-.34Z"/>
  <path class="cls-5" d="M193.83,151.72c-.18-4.14,.45-7.29,1.23-10.43,.11-.44,.1-1,.81-1.07,.64-.07,.65,.47,.91,.78,1.22,1.44,2.31,3.01,4.52,3.51,.8,.18,.73,.75,.8,1.26,.54,4.13,.14,8.09-2.48,11.77-.84,1.17-1.99,1.05-3.11,1.2-1.09,.16-1.05-.82-1.5-1.34-1.76-2.04-1.06-4.37-1.19-5.68Z"/>
  <path class="cls-5" d="M86.18,124.67c.18-1.54,.72-3.34,2.53-4.59,3.44-2.38,7.3-3.75,11.82-3.36,2.1,.18,3.43,1.25,4.39,2.76,.76,1.2,.14,1.66-1.23,1.89-5.29,.86-10.06,2.71-14.11,5.81-.7,.54-1.6,1.09-2.33,.71-1.14-.59-.98-1.81-1.06-3.21Z"/>
  <path class="cls-5" d="M134.17,89.78c-.09,0-.17,.07-.25,.06-4.27-.48-8.03-1.64-11.12-4.4-1.88-1.68-3.92-3.23-5.77-4.95-.74-.69-1.27-1.29,.25-1.61,.63-.13,.76-.66,1.25-.88,1.63-.73,.91-1.3-.11-2.12-.36-.29-.59-.36-.98-.61-.44-.28-1.02-.47-.97-1.01,.04-.45,.81-.84,1.25-1.01,.73-.27,.95,.13,1.38,.59,2,2.14,3.91,4.15,6.08,6.16,1.96,1.82,4.41,3.08,7.18,3.77,.47,.12,.92,.14,1.09,.67,.51,1.58,1.39,3.01,2.15,4.5,.69,1.35-.68,.91-1.42,.85Z"/>
  <path class="cls-5" d="M214,154.36c.68,.59,1.07-.07,1.53-.28,1.54-.7,3.05-1.46,5.03-1.58-1.33,4.8-3.35,9.18-6.87,12.93-2.1,2.23-6.27,2.96-8.86,1.81-.99-.44-1.47-.71-.33-1.69,3.16-2.72,5.74-5.84,7.88-9.23,.03-.05-.11-.18-.17-.28,0,0,0-.03,0-.03,.23,.09,.46,.14,.63-.09,.2-.27,.1-.48-.22-.62l-.02,.02c.17,.28,.41,.38,.73,.2,.27-.15,.2-.35,.09-.55l.02-.02c.16,0,.36,.06,.47,0,.27-.17,.08-.34-.07-.5l.17-.08Z"/>
  <path class="cls-5" d="M184.48,114.95c2.7,.53,5.37,1.16,7.73,2.46,3.38,1.86,4.57,4.85,3.19,7.85-.57,1.24-1.25,1.34-2.35,.4-4.1-3.49-8.95-5.54-14.78-5.8-1.29-.06-2.01-.57-1.27-1.86,.29-.51,1.57-1.14,.17-1.82,0,0-.02,.02-.02,.02,.27,.83,.82,.57,1.31,.21,1.04-.77,2.28-1.15,3.57-1.46,.82,0,1.64,0,2.45,0Z"/>
  <path class="cls-5" d="M182.38,153.72c3.22-.09,6.02,.13,8.52,1.53,.51,.28,1.02,.58,1.47,.92,.97,.74,2.01,1.74,1.79,2.74-.14,.62-1.82,.68-2.86,.88-3.36,.63-6.69,1.35-10.21,.83-3.63-.54-5.79-2.5-7.39-5.14-.44-.72-.19-1.14,.75-1.15,2.78-.02,5.48-.85,7.94-.6Z"/>
  <path class="cls-5" d="M244.72,132.13c-.16,.23-.32,.46-.48,.69-.36,.36-.72,.71-1.08,1.07-1.95,1.13-1.85,1.11-2.52-.78-1.16-3.29-3.26-6.23-5.1-9.25-1.27-2.09-1.83-4.35-2.58-6.57-.09-.25-.13-.65,.03-.81,.34-.34,.71,.02,1.06,.14,4.12,1.46,7.55,3.57,9.47,7.18,.31,.58,.7,1.13,1.05,1.69,.73,2.2,1.08,4.41,.16,6.64Z"/>
  <path class="cls-3" d="M175.15,77.75c-1.28,.11-2.23,.24-3.18,.25-3.19,.05-5.91,1.77-9.04,2.1-3.32,.35-6.56,.46-9.75-.66-.8-.28-1.62-.68-1.77-1.38-.14-.67,.84-.9,1.4-1.21,4.09-2.24,8.23-4.39,13.26-4.01,3.73,.28,6.9,1.45,9.08,4.91Z"/>
  <path class="cls-5" d="M198.63,96.97c6.55,.35,12.8,.4,18.48,2.83,1.96,.84,3.93,2.02,5.05,3.86,.35,.57,.8,1.18-.49,1.07-4.62-.39-9.31,.18-13.89-1.07-4.07-1.11-6.66-3.47-9.14-6.69Z"/>
  <path class="cls-5" d="M182.17,112.81c3.48-3.45,4.85-7.36,5.66-11.47,.15-.78,.86-1.28,1.55-1.72,1.1-.7,2.11-1.47,2.86-2.45,.43-.56,.93-.71,1.69-.69,3.62,.12,4.1,.55,3.04,3.53-1.79,5.04-4.99,9.23-10.41,11.95-1.23,.62-2.54,1.08-4.38,.84Z"/>
  <path class="cls-3" d="M189.89,88.45c-3.61-.52-7.13-.84-10.63-1.51-4.2-.8-7.25-2.91-9.88-5.69-.82-.87-1.06-1.41,.65-1.67,7.04-1.05,12.99,.62,17.82,5.25,.67,.65,1.63,2.35,2.04,3.62Z"/>
  <path class="cls-5" d="M228.75,114.53c3.78,1.3,3.76,3.93,2.82,6.9-1.06,3.36-2.22,6.69-4.29,9.71-1.45,2.12-3.78,3.28-6.47,3.96-.73,.18-1.45,.27-2.28-.31,5.02-2.34,5.94-6.52,6.35-10.72,.34-3.49,.33-6.95,3.86-9.54Z"/>
  <path class="cls-5" d="M219.54,150.75c-1.89,.56-3.78,.75-5.67,0-.12-.38-.28-.74-.79-.84-.78-1.47,.75-3.96,2.62-4.1,2.17-.16,3.44-1.21,4.66-2.66,1.97-2.35,4.18-4.57,6.69-6.73,.87,1.08,1.49,2.23,2.98,2.74,.84,.29,.08,.79-.15,1.13-2.58,3.7-5.3,7.3-9.54,9.82-.61-.09-.58,.4-.81,.67Z"/>
  <path class="cls-5" d="M216.6,105.66c6.21-.02,11.94,.51,16.98,3.55,2.65,1.6,4.22,3.72,4.36,6.55,.04,.71-.14,1.29-1.09,.82-4.07-2.03-8.61-3.16-12.76-5.02-2.95-1.33-5.34-3.24-7.49-5.9Z"/>
  <path class="cls-5" d="M111.01,153.83c-3.4,4.19-7.06,8.11-11.75,11.18-1.64,1.07-3.62,1.56-5.74,1.49-1.05-.03-1.43-.22-.89-1.26,1.36-2.66,3.64-4.74,5.59-7.04,1.99-2.35,4.57-3.84,7.79-4.7,1.83-.49,3.42-.2,4.99,.33Z"/>
  <path class="cls-5" d="M150.62,131.48c1.58,3.49,1.64,7.03,.5,10.61-.16,.5-.38,1.07-.25,1.54,.47,1.74-1.26,1.42-2.12,1.57-1.25,.21-.68-.85-.8-1.34-1.06-4.47-1.63-9.06-4.87-12.95-1.11-1.33-.2-3.06-.72-4.57-.13-.37,.58-.74,1.03-.45,1.87,1.23,4.77,1.08,5.92,3.27,0,0,.07,.03,.07,.03-.09,.96,.84,1.51,1.23,2.28Z"/>
  <path class="cls-5" d="M215.39,131.99c-.01,.58,0,1.15-.3,1.71-.86,1.65-1.59,1.78-2.9,.45-1.49-1.51-3.49-2.41-5.49-3.24-2.61-1.08-4.79-3-7.98-3.04-.94-.01-1.47-.56-.49-1.39,2.37-2.01,4.98-3.11,8.43-2.25,3.8,.95,7.05,2.36,8.37,5.9,.24,.63,.3,1.24,.37,1.87Z"/>
  <path class="cls-5" d="M180.64,88.42c11.22,.09,21.76,3.4,24.86,7.91-6.15-.64-12.37-.03-18-2.35-2.78-1.14-5.1-2.98-6.86-5.57Z"/>
  <path class="cls-5" d="M179.78,152.63c3.37-3.81,3.94-7.93,3.14-12.24-.37-1.97,1.44-3.26,1.74-5.15,.91,1.66,2.47,2.35,4.27,2.78,.5,.12,.46,.51,.54,.85,1.1,4.6-.24,8.75-3.16,12.6-.67,.89-1.59,1.33-2.91,1.19-1.1-.12-2.22-.02-3.62-.02Z"/>
  <path class="cls-5" d="M134.73,137.78c.1,.25,.19,.49,.29,.74-.02,.04-.06,.09-.05,.12,.04,.07,.11,.13,.17,.19h0c.22,1.41,.44,2.81,.66,4.22-.16,.92-.3,1.84-.48,2.76-.16,.77-.96,1.07-1.64,1.11-.72,.04-.52-.68-.62-1.11-.75-3.17-2.5-5.91-4.96-8.3-1.2-1.17-2.23-2.45-3.52-3.58-1.32-1.15-.68-2.99-1.82-4.68,2.92,.94,5.83-.07,8.13,1.59,0,0,.06,.05,.06,.05-.4,.24-.21,.48,0,.72,1.59,1.76,2.7,3.75,3.6,5.82,.05,.11,.11,.22,.16,.33Z"/>
  <path class="cls-5" d="M70.04,134.23c.12-.35,.17-1.1,.59-1.66,1.95-2.62,4.18-4.97,8.09-5.49,2.02-.27,4.43,.58,5.25,1.95,.23,.38,.69,.76,.23,1.27-.42,.46-.82,.38-1.4,.2-1.34-.42-2.19,.36-2.9,1.14-1.22,1.34-1.86,2.94-2.51,4.53-.66,1.63-1.65,3.07-3.69,3.7-.59,.18-1.12,.34-1.57-.27-1.14-1.54-2.02-3.16-2.07-5.37Z"/>
  <path class="cls-5" d="M208.17,159.99c-1.37,2.14-3.3,3.78-5.29,5.29-2.29,1.74-8.24,1.44-10.72-.38-1.16-.86-2.59-1.48-3.45-2.64-.35-.47-.54-.79,.35-.95,5.15-.94,10.2-2.34,15.57-2.1,1.24,.05,2.36,.3,3.53,.79Z"/>
  <path class="cls-5" d="M229.94,146.88c.25,3.19-1.26,5.96-2.77,8.73-1.34,1.03-1.72,2.6-2.9,3.73-1.79,1.73-3.77,3.1-6.85,3.32,1.7-2.7,2.86-5.34,3.73-8.08,.03-.09,.06-.18,.1-.27,.62-3.15,2.52-5.65,5.2-7.8,1.03-.83,1.78-1.9,2.66-2.86,.18,.07,.36,.14,.54,.21,.09,1.01,.18,2.02,.28,3.03Z"/>
  <path class="cls-5" d="M161.51,116.98c-.78,3.88-2.98,9.13-7.26,10.18-1.24,.3-2.38,.31-3.54-.17-1.01-.42-1.31-1.12-.7-1.85,1.73-2.06,2.07-4.51,2.73-6.86,.7-2.53,1.64-3.21,4.63-3.17,.74,.01,1.49,.05,2.23,.1,1.84,.12,1.95,.23,1.9,1.77Z"/>
  <path class="cls-5" d="M162.59,118.34c.03-2.83,.06-2.83,2.72-2.21,1.19,.28,2.32,.65,3.36,1.21,1.23,.66,1.89,1.59,1.94,2.88,.08,2.15,.13,4.32,.8,6.42,.35,1.1-.37,2.05-.63,3.04-.21,.79-2.91,.47-3.94-.48-1.83-1.68-3.2-3.61-3.62-5.92-.32-1.78-.46-3.59-.63-4.94Z"/>
  <path class="cls-5" d="M169.22,153.77c-3.61,.12-7.04-.3-9.93-2.4-.69-.5-1.45-1.12-1.27-1.84,.09-.37,1.19-.65,1.89-.79,3.67-.77,7.33-1.61,11.2-1.15,2.76,.32,5.72,2.36,6.56,4.64,.33,.91-.37,.8-.96,.87-1.28,.14-2.55,.31-3.83,.42-1.21,.11-2.44,.17-3.65,.25Z"/>
  <path class="cls-5" d="M96.84,148.26c1.27,1.79,1.99,3.78,2.89,5.71,.32,.69-1.39,2.86-2.22,2.89-.56,.02-.57-.42-.74-.7-1.81-2.99-4.86-4.93-7.93-6.81-1.06-.65-1.81-1.26-2.15-2.36-.27-.88-.84-1.71-1.36-2.52-.25-.39-.48-.76-.17-1.12,.34-.4,.83-.24,1.25-.01,.79,.43,1.52,.3,2.26-.13,.85-.49,1.83-.53,2.81-.52,0,0,.05,0,.05,0-.04,.73,.05,1.37,1.21,1.22-.16,.25-.04,.41,.22,.53,.59,.45,.85,1.64,2.07,.69-.03,.59,.33,.85,.99,.85l-.07,.06c-.55-.07-.72,.14-.59,.58,.09,.42,.45,.67,.82,.9,0,0,.07,.07,.07,.07,.19,.22,.39,.44,.58,.67Z"/>
  <path class="cls-5" d="M111.07,135.56c.89,1.69,2.75,2.69,4.01,4.13,2.11,2.4,3.14,5.12,3.98,7.96,.4,1.35-.75,1.55-1.67,1.97-1.41,.63-1.15-.59-1.47-1.05-2.08-2.89-4.66-5.43-7.69-7.58-2.2-1.56-1.76-3.91-2.74-5.81-.26-.51,.64-.91,1.51-1.05,1.13-.19,2.2,.57,3.28,0,0,0-.03-.04-.03-.04-.27-.09-.61-.03-.61,.19-.01,.58,.54,.81,1.05,1.04,.13,.06,.25,.13,.38,.19v.06Z"/>
  <path class="cls-5" d="M122.18,116.74c1.76-.35,2.75,.46,3.45,1.76,.96,1.79,1.73,3.66,2.92,5.37,.77,1.12-.16,2.5,.5,3.74,.18,.33-.73,.61-1.23,.7-1.97,.34-3.75,.04-5.25-1.22-2.88-2.42-4.01-5.61-5.3-8.73-.29-.71,.2-.95,.88-1.07,1.32-.24,2.61-.68,4.04-.54Z"/>
  <path class="cls-5" d="M214.57,111.8c-1.01,3.09-2.15,6.15-5.27,8.21-1.65,1.09-3.12,2.56-5.84,2.68,2.36-2.84,4.02-5.79,3.85-9-.17-3.22,2.47-5.1,3.83-7.57,.64-1.17,2.64-.66,3.45,.81,0,1.63,0,3.25-.01,4.88Z"/>
  <path class="cls-5" d="M98.74,132.82c-.21,2.14-.37,4.31-2.7,5.72-1.96,1.19-3.5,.71-4-1.31-.55-2.21-.9-4.45-1.6-6.64-.76-2.39,1.74-5.03,4.76-5.46,.55-.08,.76,.17,.94,.46,1.37,2.27,2.9,4.49,2.61,7.22Z"/>
  <path class="cls-5" d="M110.2,132.82c-3.78,.7-7.31,.46-9.71-2.53-1.29-1.61-2.19-3.44-3.29-5.16-.38-.6,.01-.87,.55-1.06,1.43-.51,2.84-1.07,4.41-1.25,1.34-.15,2.42,.18,3.15,1.16,1.17,1.56,2.43,3.06,3.76,4.53,1.07,1.17,1.19,2.76,1.15,4.28,0,0-.04,.03-.04,.03Z"/>
  <path class="cls-5" d="M87.18,142.25c-3.51-.25-6.22-2.05-8.71-4.18-.25-.21-.32-.51-.19-.81,.72-1.69,1.25-3.46,2.49-4.94,.73-.88,1.54-1.25,2.63-.23,2.04,1.93,4.27,3.67,6.75,5.21,.94,.58,1.88,1.65,1.3,2.7-.75,1.37-2.21,2.18-4.27,2.26Z"/>
  <path class="cls-5" d="M212.14,137.47c-.54,1.52-.38,3.28-.37,5.03,0,.78,.12,1.58,.79,2.11,.87,.68,1.04,1.24,.2,2.03-.82,.77-1.61,1.14-2.85,.68-1.84-.68-2.89-2.05-3.53-3.46-1.57-3.47-1.55-7.05-.2-10.62,.33-.87,.81-1.14,1.73-.62,2.04,1.14,4.31,2.13,4.22,4.87Z"/>
  <path class="cls-5" d="M169.88,136.42c-.02,3.08-.78,6.01-2.29,8.79-.17,.32-.35,.64-.61,.91-.61,.64-1.55,.56-2.27,.41-.86-.17-.3-.89-.21-1.33,.85-4.03-.06-7.91-1.43-11.71-.64-1.78,.36-3.42,.2-5.16-.06-.67,.98-.31,1.26,.16,.8,1.34,2.05,2.12,3.71,2.46,.82,.16,1.05,.7,1.14,1.29,.19,1.39,.34,2.78,.51,4.17Z"/>
  <path class="cls-5" d="M66.12,140.19c4.07,1.59,7.57,1.77,10.6-.96,.59-.53,1.02-.39,1.51,.07,1.29,1.23,2.84,2.17,4.56,2.88,1.01,.42,1,1.01,.52,1.7-.27,.39-.59,.79-.99,1.08-2.8,2.04-9.94,2.18-12.87,.28-1.84-1.19-2.49-2.94-3.33-5.06Z"/>
  <path class="cls-5" d="M139.18,116.68c-.81,3.06-1.2,6.62-4.49,9.15-.65,.5-1.38,.97-2.15,1.3-1.64,.69-2.86,.04-2.53-1.47,.57-2.58,.78-5.2,1.24-7.79,.17-.95,.92-1.64,1.89-2.17,1.14-.63,2.48-.8,3.68-1.3,1.54-.64,2.38,.15,2.36,2.27Z"/>
  <path class="cls-5" d="M142.4,114.05c3.87,.11,4.95,.9,5.76,4.07,.23,.9,.64,1.77,.99,2.65,.54,1.34,.9,2.57-.19,3.95-1.15,1.45-2.26,1.8-4.01,.72-1.49-.92-2.38-2.24-2.88-3.71-.63-1.83-1.17-3.69-1.68-5.56-.52-1.89-.21-2.18,2.01-2.12Z"/>
  <path class="cls-5" d="M91.95,173.54c-.15,.05-.31,.09-.46,.14-1.27,.17-2.54,.48-3.81,.48-3.21,0-5.68-1.11-7.19-3.72-1.47-2.53-.22-4.47,1.49-6.38,.33-.12,.66-.25,.99-.37,.14-.05,.28-.1,.42-.15,.59-.02,.95,.02,.99,.72,.2,3.46,1.76,4.97,5.77,5.74,1.45,.28,2.9,.53,4.4,.47,.41-.02,.55,.26,.61,.57-.97,.39-1.23,1.33-1.99,1.88-.13,.08-.26,.17-.39,.25-.27,.12-.54,.24-.81,.36Z"/>
  <path class="cls-5" d="M112.93,158.52c-.67-.1-1.21-.16-1.73-.27-1.67-.36-1.89-.91-.77-1.99,2.32-2.23,5.14-3.93,7.95-5.68,2.5-1.56,5.04-1.68,7.81-.96,1.52,.4,1.68,.95,.37,1.88-3.44,2.44-7.08,4.64-10.98,6.49-.79,.38-1.83,.37-2.65,.52Z"/>
  <path class="cls-5" d="M116.77,123.76c.11,1.75,.05,3.49-.47,5.21-.26,.89-.73,1.64-1.49,2.23-1.62,1.24-3.4,.82-3.73-1-.51-2.88-.86-5.79-1.12-8.69-.16-1.79,1.66-2.22,3.12-2.78,2.73-1.04,3.44-.69,3.67,1.89,.09,1.04,.02,2.1,.02,3.15Z"/>
  <path class="cls-5" d="M175.19,131.87c-1.26,.02-2.34-.24-2.88-1.15-.53-.91-.22-1.91,.61-2.57,2.15-1.69,3.51-3.84,4.8-6.01,.8-1.35,1.94-1.53,3.33-1.11,1.17,.35,2.26,.89,3.35,1.41,.81,.38,.59,1.14,.27,1.55-2.12,2.67-4.14,5.44-7.28,7.35-.65,.4-1.48,.58-2.21,.53Z"/>
  <path class="cls-5" d="M103.33,168.61c-.67,.13-1.34,.26-2.01,.39-.59-.07-1.15,.01-1.63,.33-2.57,.02-5.14,.21-7.71-.05-.55-.06-1.38-.03-1.16-.84,.15-.57,.44-1.19,1.33-1.06,4.84,.75,8.34-1.32,11.31-4.17,1.66-1.58,3.2-2.2,5.51-1.08,.97,.47,2.19,.6,3.32,.76,1.15,.17,.98,.46,.36,1.08-2.49,2.48-5.97,3.46-9.32,4.64Z"/>
  <path class="cls-5" d="M192.64,139.15c.28-.57-.42-.63-.67-.91-.97-1.09-1.03-2.11,.22-3.05,1.7-1.27,3.15-2.72,4.55-4.22,1.66-1.79,2.35-1.93,4.9-1.08,3.83,1.28,3.92,1.69,1.01,4.31-.83,.75-1.56,1.59-2.43,2.29-2.11,1.71-4.32,3.28-7.56,2.67h-.02Z"/>
  <path class="cls-5" d="M184.9,130.2c.15-2.03,.44-4.04,1-6.02,.27-.96,.79-1.14,1.71-.71,1.01,.47,2.02,.94,2.99,1.47,1.29,.7,1.72,1.72,1.4,3.01-.44,1.76-.82,3.55-.69,5.36,.09,1.33-.99,2.27-1.56,3.29-.51,.92-1.87,.07-2.64-.61-1.83-1.61-2.35-3.6-2.21-5.78Z"/>
  <path class="cls-5" d="M129.29,158.48c-4.55,2.79-9.25,4.29-14.64,3.68-2.07-.24-4.17-.45-6.1-1.23-.52-.21-1.69-.03-1.27-.92,.35-.73,.93-1.64,2.32-1.13,2.82,1.04,5.58,.69,8.19-.52,1.27-.59,2.44-1.38,3.59-2.14,.75-.5,1.35-.52,2.2-.12,1.78,.83,3.64,1.53,5.71,2.38Z"/>
  <path class="cls-5" d="M210.55,170.31c-.23-.05-.47-.09-.7-.14-1.13-.39-2.54-.15-3.63-1.25,3.47,.07,6.51-.75,8.45-2.94,1.43-1.61,3-2.3,5.17-2.67,1.79-.3,3.24-1.37,4.54-2.51,.35-.31,.53-1.08,1.38-.62-.67,4.13-3,7.25-7.49,9.05-2.48,.88-5.08,1.12-7.73,1.07Z"/>
  <path class="cls-5" d="M234.88,125.33c1.24,1.48,2.06,2.99,2.87,4.51,.19,.35,.11,.68-.05,1.01-1.05,2.15-2.51,4.11-4.13,5.95-.87,.98-2.21,1.75-3.73,.99-1.64-.83-1.59-2.33-1.04-3.59,1.39-3.2,3.43-6.12,6.08-8.87Z"/>
  <path class="cls-5" d="M153.44,145.25c2.25-.21,4.31,.16,5.99,1.57,.43,.36,.9,.72-.05,.97-3.29,.87-6.19,2.51-9.41,3.5-1.94,.6-4.03,.6-5.93-.31-1.42-.68-1.44-1.3-.19-2.14,2.31-1.55,5.13-2.28,7.62-3.55,.49-.25,1.31-.04,1.98-.04Z"/>
  <path class="cls-5" d="M239.46,138.12c-.18,.34-.35,.68-.53,1.01-.05,.11-.09,.21-.14,.32-1.78,2.13-2.92,4.67-5.5,6.27-.65,.4-1.21,1.19-2.26,.68,.09-.94,.04-1.88-.28-2.77-.82-2.26,.41-3.83,2.36-5.06,2.69-1.69,3.76-4.31,5.49-6.73,1.28,1.57,1.13,3.33,1.22,5.03-.06,.17-.12,.35-.18,.52-.06,.24-.13,.48-.19,.72Z"/>
  <path class="cls-5" d="M203.32,158.14c-.52,0-.99,0-1.47,0-.92,.02-1.1-.36-.67-.98,1.49-2.15,2.06-4.5,2.35-6.97,.18-1.51,2.12-2.18,2.93-3.45,.05-.07,.23-.1,.35-.1,.57,0,3.22,2.46,3.21,2.97-.05,3.26-1.67,5.93-4.24,8.23-.72,.65-1.68,.12-2.47,.3Z"/>
  <path class="cls-5" d="M144.84,146.97c-4.24,2.37-7.61,5.43-12.45,6.43-1.59,.33-3.17,.54-4.71-.17-.56-.26-.9-.52-.22-1,3.4-2.46,6.81-4.87,11.31-5.79,1.99-.41,3.84-.42,6.07,.53Z"/>
  <path class="cls-5" d="M185.79,166.83c-.91-.34-1.88-.36-2.85-.38,0,0-.02,0-.02,0-.15-.04-.3-.07-.45-.11-.28-.05-.56-.1-.85-.15-.68-.21-1.37-.43-2.05-.64-4.48-2.3-7.37-5.7-9.2-9.83-.13-.29-.49-.67,.09-.88,.58-.21,1.23-.29,1.64,.25,.41,.54,.74,1.11,1.08,1.68,2.08,3.47,5.57,4.94,9.93,5.03,1.16,.03,1.71,.31,2,1.26,.29,.95,.73,1.87,1.2,2.77,.3,.57,.24,.88-.52,.97Z"/>
  <path class="cls-5" d="M194.02,107.52c2.57,3,3.52,6.29,2.69,9.93-.11,.46-.11,1.04-.62,1.24-.68,.27-.8-.46-1.2-.72-.97-.63-1.86-1.39-2.93-1.85-1.37-.6-2.43-1.26-3.08-2.54-.41-.82-.63-1.18,.35-1.81,1.84-1.19,3.45-2.62,4.79-4.24Z"/>
  <path class="cls-3" d="M157.07,68.54c8.2-1.26,16.07,1.35,20.17,7.54,.18,.27,.38,.54,.47,.83,.15,.48,.9,1.07,.18,1.45-.62,.33-1.38-.06-1.75-.65-3.32-5.24-8.53-6.3-14.63-5.4-.43,.06-.96,.12-1.11-.27-.56-1.55-2.2-2.28-3.33-3.49Z"/>
  <path class="cls-5" d="M227.67,100.29c2.26,1.1,4.59,2.1,6.64,3.52,2.22,1.53,3.51,3.6,4.76,5.72,.19,.65,.39,1.29,.58,1.94l.27,.71c0,1.51-.02,3.02-.03,4.53-.27,.01-.55,.02-.82,.04,.23-3.54-1.32-6.32-4.75-8.32-1.1-.64-1.95-1.56-3.31-1.89-.65-.16-1.01-.67-1.25-1.28-.58-1.47-1.23-2.91-2.6-4.04-.49-.4-.64-1.01,.51-.92Z"/>
  <path class="cls-5" d="M143.55,155.58c-6.56,2.29-12.61,2.57-18.63-.06-.38-.17-1.3-.21-.93-.84,.31-.52,.99-1.16,1.8-.81,4.07,1.78,7.74,.55,11.35-1.05,.7-.31,1.22-.34,1.8,.17,1.2,1.04,2.64,1.8,4.6,2.59Z"/>
  <path class="cls-3" d="M147.09,67.66c2.76,.39,5.7,.35,8.34,1.55,1.25,.57,2.53,1.12,3.17,2.3,.23,.42,1.24,.7,.57,1.25-.5,.4-1.36,.68-2.06,.31-3.19-1.65-6.58-1.33-9.98-.77-.95,.16-1.37,0-1.34-.91,.02-.62-.12-1.28-.35-1.87-.5-1.32-.55-2.26,1.66-1.86Z"/>
  <path class="cls-5" d="M197.77,86.39c2.89,1.38,5.86,2.66,8.22,4.74,1.81,1.6,3.05,3.49,4.23,5.48-2.17,.31-3.36-.62-4.44-1.92-1.74-2.09-4.21-3.38-6.99-4.26q-3.42-1.07-3.11-4.4c.73-.15,1.28,.58,2.01,.36,0,0,.08,0,.08,0Z"/>
  <path class="cls-5" d="M219.74,137.73c.2-.01,.41-.04,.61-.03,.93,.08,2.21-.17,2.64,.53,.43,.7-.8,1.19-1.3,1.77-1.04,1.2-2.17,2.35-3.25,3.53-.93,1-2.07,1.38-3.57,1.1-1.55-.29-1.75-1.26-1.86-2.35-.39-3.73-.24-3.91,3.92-4.33,.94-.09,1.88-.17,2.82-.25,0,0,0,.02,0,.03Z"/>
  <path class="cls-5" d="M152.28,155.48c-1.09,.04-2.17,.08-3.26,.13-3.2-.3-6.14-1.16-8.67-2.92-.38-.26-1.18-.55-.58-1.04,.55-.45,1.22-1.33,2.2-.63,3.33,2.38,6.89,1.98,10.48,.64,1.4-.52,2.16-.48,3.05,.78,1.79,2.55,1.91,2.49-1.62,2.82-.54,.05-1.07,.14-1.6,.22Z"/>
  <path class="cls-5" d="M216.3,129.44c-.97-3-4.35-4.08-6.36-6.2-1.01-1.06-1.06-1.73,.29-2.51,.66-.38,1.2-.95,1.71-1.48,1.64-1.7,1.68-1.74,3.02,.06,2.32,3.15,1.8,6.61,1.34,10.13Z"/>
  <path class="cls-5" d="M156.22,150.07c2.79,3.09,6.3,4.75,10.7,4.64,2.02-.05,2.23,1.22,2.78,2.25,.42,.8,1.42,1.81,.8,2.47-.52,.55-1.91-.05-2.84-.29-4.95-1.31-8.65-4.05-11.57-7.66-.38-.47-.3-.83,.13-1.4Z"/>
  <path class="cls-5" d="M144.31,71.03c0,.81,.24,1.61-.81,1.67-1.05,.06-2.4,.95-3.11-.32-.91-1.62-2.11-3.03-3.35-4.43-.61-.69-.5-1.07,.44-1.38,1.27-.41,2.54-.85,3.74-1.39,.95-.42,1.45-.2,1.74,.64,.23,.66,.53,1.31,.66,1.99,.22,1.14,.78,2.22,.69,3.21Z"/>
  <path class="cls-2" d="M176.23,107.27c.18,1.41-.07,2.69-1.04,3.83-.63,.75-1.28,1.09-2.01,.1-.67-.9-1.65-1.51-2.58-2.19-1.43-1.05-1.28-2.05,.26-2.94,1.24-.72,2.34-1.57,3.19-2.65,.22-.27,.35-.72,.84-.66,.43,.06,.57,.45,.67,.79,.34,1.23,.94,2.43,.67,3.71Z"/>
  <path class="cls-5" d="M91.26,161.34c.31,0,1.39-.03,1.8,.67,.32,.55-.6,1.07-.92,1.62-.74,1.29-1.57,2.56-2.18,3.91-.49,1.08-1.11,1.11-2.15,.61-1.87-.89-2.69-2.19-2.23-3.71,.54-1.79,2.77-3.15,5.68-3.1Z"/>
  <path class="cls-2" d="M142.15,97.19c-1.22,0-1.49,1.24-2.55,1.05-.37-.07-.98-.04-1.18-.25-.29-.3-.03-.66,.24-.92,.7-.69,1.61-1.33,2.28-2.04,.57-.6,1.17-.63,1.89-.13,.89,.62,.43,.93-.2,1.35-.18,.12-.28,.39-.38,.58,.18,.1,.36,.23,.38,.21,1.47-1.19,2.72-.55,4.06,.32,.82,.53,1.73,1.95,2.69,2.8,.43,.38,1.81,.42,.95,1.22-.49,.53-1.35-.14-1.7-.33-1.87-1.03-3.79-1.95-5.99-2.22-1.35-.17-.63-.92-.48-1.63Z"/>
  <path class="cls-5" d="M204.85,143.32c.04,.57-.58,.69-1.08,.53-2.23-.72-4.61-1.24-5.86-3.3-.39-.65-.41-.98,.35-1.39,.9-.5,1.75-1.09,2.54-1.72,.83-.67,1.58-.3,2.43-.08,.97,.25,.77,.87,.73,1.4-.13,1.55,.54,2.97,.9,4.57Z"/>
  <path class="cls-6" d="M104.61,102.6c.15-.79,1.04-.84,1.64-1.1,1.9-.82,3.87-1.54,5.81-2.3,.56-.09,1.12-.18,1.68-.27,.24,.13,.46,.12,.65-.07,1.31,0,2.61-.41,4.35-.03-2.58,1.39-4.44,3.32-7.53,3.15-2.25-.12-4.39,.47-6.6,.62Z"/>
  <path class="cls-6" d="M96.01,145.99c-.66,0-1.01-.26-.99-.85-.48-.39-.91-.85-1.46-1.15-.43-.24-.75-.03-.61,.46-.27-.12-.38-.28-.22-.53,.79-.25,.43-.67,.08-.92-.33-.24-.63-1-1.29-.3,0,0-.05,0-.05,0,.2-.95,.36-1.92,1.77-2.64,1,3.68,4.12,5.77,7.58,7.63,1.2,.65,.91,1.95,.51,2.69-.49,.89-1.44,.35-1.98-.35-.89-1.16-1.63-2.41-2.8-3.39-.18-.22-.35-.43-.53-.65Z"/>
  <path class="cls-6" d="M171.79,121.37c.35-.65-.6-1.98,.74-1.97,1.43,.01,3.12,.19,4.21,1.31,.14,.14-.01,.56-.14,.81-.78,1.61-1.81,3.1-3.01,4.51-.2,.24-.47,.54-.79,.41-.23-.09-.4-.45-.44-.71-.21-1.44-.38-2.88-.57-4.36Z"/>
  <path class="cls-5" d="M90.54,159.83c-1.79,.61-3.37,1.03-4.62,2.15-.72,.64-1.48,.42-1.97-.37-.74-1.19-1.27-2.43-1.38-3.8-.09-1.09,.44-1.24,1.4-.84,2.2,.93,4.38,1.9,6.57,2.86Z"/>
  <path class="cls-5" d="M241.55,112.86c2.56,2.25,3.6,4.94,3.2,8.06-.46,.28-.13,.94-.85,1.21-.66-1.1-1.49-2.13-2.65-2.89-.85-.55-.5-1.21-.47-1.89,.07-1.52,.32-3.02,.76-4.49Z"/>
  <path class="cls-5" d="M192.65,139.16c-.15,.1-.42,.3-.21,.37,2.1,.74,1.38,2.07,1.09,3.39-.36,1.66-.55,3.35-.83,5.02-.06,.34-.13,.75-.64,.76-.36,0-.52-.3-.65-.59-.33-.7-.9-1.35-.8-2.13,.29-2.31,.44-4.62,.05-6.81,.82-.58,1.28,.95,1.96-.02,0,0,.02,.01,.02,.01Z"/>
  <path class="cls-6" d="M214,154.36s-.17,.08-.17,.08c-.56-.08-.71,.08-.39,.51,0,0-.02,.02-.02,.02-.62-.48-.74-.1-.82,.35,0,0,.02-.02,.02-.02-.52,.07-.97,.17-.41,.71,0,0,0,.03,0,.03-2.53-.41-2.49-.41-1.73-2.82,.37-1.19,.55-2.42,.8-3.6,1.09,.02,.43,1.43,1.61,1.26,0,0,.05,.03,.05,.03-.12,.34,.12,.46,.44,.54,.14,.06,.28,.13,.42,.19,.8,.5,1.71,.57,2.66,.52-.12,.21-.24,.42-.36,.64-.84,.38-1.91,.54-2.11,1.57Z"/>
  <path class="cls-5" d="M90.29,135.66c-2.09-.82-3.56-2.09-5.03-3.35-.61-.52-.55-.99,.04-1.48,.74-.61,1.53-1.15,2.51-1.45,.44-.14,1.11-.3,1.17,.25,.23,2,1.5,3.84,1.31,6.04Z"/>
  <path class="cls-6" d="M177.14,116.2s.02-.02,.02-.02c-.46,.64-.98,1.25-1.36,1.92-.29,.51-.65,.73-1.26,.59-.72-.16-.72-.66-.53-1.12,.56-1.35,.64-2.72,.3-4.12-.07-.28-.17-.6,.25-.74,.38-.13,.64,.13,.87,.32,.54,.46,1.13,.83,1.89,.96,.26,.21,.53,.39,.87,.09,1.66,1.44-.87,1.35-1.05,2.12Z"/>
  <path class="cls-5" d="M118.3,124.08c1.44,1.49,2.26,2.82,3.52,3.87,.62,.51,.02,1.12-.49,1.44-.58,.36-1.31,.59-2.01,.76-1.88,.45-2.29,.17-1.71-1.42,.5-1.39,.19-2.84,.68-4.65Z"/>
  <path class="cls-6" d="M139.88,119.67c.98,1.82,1.22,3.34,2.19,4.59,.39,.51-.1,.85-.61,1.08-.85,.38-1.74,.57-2.72,.49-1.26-.11-2.05-.32-1.02-1.56,1.02-1.22,1.22-2.78,2.16-4.6Z"/>
  <path class="cls-6" d="M192.79,133.36c-.62-2.08,.25-3.74,.4-5.46,.04-.4,.3-.68,.79-.6,1.06,.17,2.15,.38,2.92,1.07,.33,.29,.12,.76-.23,1.1-1.24,1.22-2.45,2.46-3.88,3.89Z"/>
  <path class="cls-5" d="M100.15,131.7c1.27,.91,2.3,1.66,3.59,2.06,.75,.23,.99,.57,.32,1.1-.83,.65-1.3,1.63-2.49,1.95-.63,.17-1.21,.16-1.74-.18-.61-.39-.51-.91-.24-1.42,.57-1.04,.21-2.18,.55-3.51Z"/>
  <path class="cls-5" d="M190.03,147.78c1.06,1.81,1.05,3.52,.85,5.24-.07,.58-.41,.79-1.12,.56-.69-.23-1.42-.37-2.13-.53-.58-.13-.88-.44-.47-.87,1.19-1.26,1.68-2.86,2.87-4.4Z"/>
  <path class="cls-6" d="M129.01,122.42c-.78-1.46-1.56-2.92-2.35-4.37-.21-.39-.37-.87,.14-1.08,.9-.38,1.88-.59,2.92-.33,.69,.17,.46,.58,.4,.98-.26,1.6-.48,3.2-.72,4.8-.13,0-.26,0-.38,0Z"/>
  <path class="cls-6" d="M161.53,122.04c.52,1.45,1,2.82,1.51,4.18,.17,.46-.05,.67-.53,.71-.66,.07-1.34,.16-2,.11-2.28-.18-2.48-.49-1.12-2.03,.8-.91,.85-2.2,2.13-2.97Z"/>
  <path class="cls-6" d="M183.86,133.16c-.98,.12-1.66-.29-2.36-.63-1.36-.66-2.3-1.43-.42-2.46,.99-.54,.92-2.44,2.39-1.9,.94,.34,.02,1.8,.18,2.76,.12,.73,.14,1.47,.2,2.22Z"/>
  <path d="M136.78,58.09c1.44-.79,2.86-1.62,4.33-2.37,.57-.29,1.11-.81,1.9-.58-.45,1.29-1.98,1.48-2.99,2.08-2.98,1.77-6.12,3.38-9.48,4.55-.38-.12-.81-.19-.63-.7,.94,0,1.87,0,2.14-1.07,0,0,0,0,0,0,.49,.13,.96,.19,1.19-.37,0,0-.02,.01-.02,.01,1.39-.17,2.46-.89,3.57-1.56Z"/>
  <path class="cls-6" d="M171.83,135.29c.15,1.56,.32,3.12,.43,4.69,.05,.66-.1,1.48-1.03,1.4-.72-.06-.74-.88-.63-1.47,.45-2.61,.4-5.21-.21-7.8-.09-.38-.28-.88,.39-.99,.59-.1,.81,.41,.98,.74,.58,1.11-.1,2.29,.06,3.43Z"/>
  <path class="cls-6" d="M102.71,148.76c2.12,.61,3.51,2.02,5.24,3.18-3.79,1.11-5.57,.01-5.24-3.18Z"/>
  <path class="cls-6" d="M109.02,126.44c-1.69-1.14-2.4-2.55-3.23-3.78-.51-.75,.77-1.23,1.64-1.51,.89-.29,1.19,0,1.31,.76,.22,1.41,.4,2.82,.28,4.53Z"/>
  <path class="cls-6" d="M150.75,120.99c-1.18-1.69-1.63-3.17-1.66-4.64-.03-1.31,1.41-.53,2.18-.66,.79-.13,1.04,.22,.79,.94-.46,1.31-.8,2.64-1.3,4.36Z"/>
  <path class="cls-6" d="M227.81,132.49c.03,2.17-1.9,3.22-3.28,4.49-.57,.53-2.04,.24-2.47-.43-.48-.74,.63-.96,1.28-1.21,1.71-.67,3.23-1.58,4.47-2.85Z"/>
  <path class="cls-6" d="M85.85,129c-1.01-.76-1.78-1.32-2.51-1.92-.46-.38-1.8-.4-1.27-1.13,.48-.66,1.61-.99,2.5-1.4,.25-.12,.42,.17,.47,.42,.25,1.25,.5,2.49,.81,4.02Z"/>
  <path class="cls-6" d="M117.88,140.82c.91,.58,1.79,1.2,2.75,1.72,.94,.51,1.18,1.2,.99,2.07-.05,.25-.27,.52-.5,.44-.84-.3-1.88-.41-2.3-1.26-.44-.89-.8-1.8-1.2-2.7,.09-.09,.17-.18,.26-.27Z"/>
  <path class="cls-6" d="M79.82,125.94c1.12-2.09,3.58-2.94,5.13-4.59,.12-.13,.56-.19,.72-.1,.15,.09,.23,.43,.16,.61-.15,.44-.27,1.04-.64,1.23-1.8,.92-3.57,1.88-5.37,2.85Z"/>
  <path class="cls-6" d="M138.44,138.98s.06,.01,.06,0c-.8,.41-.17,.74,.13,1.01,.7,.64,.49,1.33,0,1.85-.63,.68-1.1-.27-1.69-.3-.33-1.15-.66-2.29-.96-3.32,.94-.5,1.07,1.33,2.03,.22,0,0,0,0,0,0-.05,.13-.17,.27-.14,.38,.08,.26,.33,.2,.55,.15Z"/>
  <path class="cls-6" d="M153.12,135.08c.64,1.24,1.12,2.36,1.78,3.4,.43,.68-.03,1.11-.32,1.59-.21,.35-.62,.42-1.04,.21-.6-.31-.81-.77-.66-1.34,.34-1.22-.41-2.5,.23-3.86Z"/>
  <path class="cls-6" d="M169.7,146.48c-.95,.06-1.53-.18-.76-1.25,.25-.34,.32-.77,.59-1.09,.4-.48-.23-1.57,.84-1.47,.77,.07,.64,1.08,.76,1.65,.19,.89,1.24,2.33-1.44,2.16Z"/>
  <path class="cls-6" d="M219.25,136.69c-1.78,.47-3.52,.26-5.33,.49q1.28-2.39,5.33-.49Z"/>
  <path class="cls-3" d="M138.53,91.8c.77,.55,1.96,.85,1.97,1.71,.02,.97-1.15,1.61-1.96,1.99-.74,.35-.56-.55-.54-.91,.05-.9-.4-1.91,.54-2.8Z"/>
  <path class="cls-6" d="M153.09,144.3c-.55-.01-1.39,.36-1.14-.49,.25-.85-.08-2.29,.99-2.42,1.09-.13,1.89,1.12,2,2.06,.16,1.27-1.34,.43-1.85,.85Z"/>
  <path class="cls-13" d="M138.01,138.44c-.95,1.11-1.08-.71-2.03-.22,.3,1.03,.63,2.18,.96,3.32-.88,.37-.28,.82-.1,1.25,.04,.09,.02,.17-.08,.23-.32,0-.64,.01-.96,.02-.22-1.41-.44-2.82-.66-4.22,.51-.61,.59-1.53,1.64-1.77,.53,.38,1.12,.72,1.23,1.39Z"/>
  <path class="cls-6" d="M230.55,127.6c.05-1.11,.84-2.01,1.22-3.03,.3-.82,1.31-1,1.99-.69,1.02,.46,.01,.95-.31,1.33-.76,.87-1.41,1.82-2.46,2.48-.15-.03-.29-.06-.44-.09Z"/>
  <path class="cls-6" d="M126.94,148.7c-2.46-.47-3.14-2.05-4.3-3.15-.22-.21-.18-.58,.14-.77,.25-.14,.5,0,.7,.17,1.24,1.03,2.61,1.96,3.46,3.75Z"/>
  <path d="M125.05,70.11c-1.7,.71-3.39,1.42-5.09,2.14-.26-.41-.71-.27-1.11-.32,1.56-1.5,3.84-1.65,5.76-2.48,.32,.13,.42,.37,.43,.66Z"/>
  <path class="cls-6" d="M139.57,142.99c.23-.47-.27-1.09,.56-1.23,.48-.08,2.41,2.22,2.48,2.86,.06,.53-.33,.55-.76,.52-1.61-.11-2.05-1.08-2.28-2.15Z"/>
  <path class="cls-6" d="M210.36,157.1c-.52,.62-.41,1.78-1.82,1.7-.45-.03-1.29,.07-1.13-.63,.2-.91,.85-1.7,1.91-1.98,.44-.11,.95,.34,1.04,.91Z"/>
  <path class="cls-6" d="M120,145.72c1.39,.43,2.48,1.08,3.26,2.15-2.95,.83-3.24,.65-3.26-2.15Z"/>
  <path class="cls-6" d="M203.32,146.29c.02-.71-.37-1.59,1.06-1.44,.56,.06,1.48-.08,1.31,.7-.18,.85-.76,1.83-1.72,2-.97,.17-.44-.84-.65-1.25Z"/>
  <path class="cls-6" d="M207.88,108.56c-.44-.93-.17-1.73-.2-2.5-.01-.4-.34-1.05,.39-1.15,.54-.07,1.24,.09,1.69,.37,.65,.4-.03,.83-.27,1.15-.5,.66-.64,1.51-1.62,2.13Z"/>
  <path class="cls-6" d="M172.74,142.2c.41,1.36,.82,2.72,1.22,4.08,.09,.31,.39,.7-.25,.81-.43,.07-.93-.1-.95-.46-.09-1.47-1-2.87-.59-4.37,.19-.02,.37-.04,.56-.06Z"/>
  <path class="cls-6" d="M103.82,152.93c-1.17,.48-1.8,1.55-2.84,.89-.5-.32-.77-1.77-.64-1.82,1.33-.56,2.14,.42,3.48,.93Z"/>
  <path class="cls-6" d="M136.77,143.03c.1-.06,.12-.14,.08-.23,1.38,.12,1.73,1.24,2.18,1.99,.48,.79-.77,.62-1.3,.8-.54,.18-1.08,.26-1.05-.5,.03-.69,.06-1.37,.1-2.06Z"/>
  <path class="cls-6" d="M132.75,106.39c-1.11,.55-1.5,1.67-2.47,2.4-1.37-2.74-1.3-2.81,2.47-2.4Z"/>
  <path class="cls-13" d="M214.57,111.8c0-1.63,0-3.25,.01-4.88,.32,0,.64,.01,.96,.02-.32,1.07,.23,2.06,.34,3.1,0,.25-.02,.49-.03,.74,0,0,.02-.03,.02-.03-.61,.37-.28,.95-.44,1.42-.29-.12-.57-.25-.86-.37Z"/>
  <path class="cls-6" d="M82.3,146.35c.86-.23,1.11-1.65,2.19-.96,.61,.39,1.37,1.65,.95,1.88-1.11,.61-2.08-.42-3.14-.92Z"/>
  <path class="cls-6" d="M108.54,110.83c-.88,.95-1.57,1.69-2.39,2.56-.52-.71-1.42-1.61-1.03-2.07,.6-.7,1.92-.65,3.42-.5Z"/>
  <path class="cls-8" d="M128.89,111.43v3.99c-2.03-2.35-2.02-3.27,0-3.99Z"/>
  <path class="cls-6" d="M157.6,143.67c.09,.53,.03,.77-.31,.75-.23-.01-.57-.12-.66-.27-.53-.86-1.02-1.74-1.47-2.64-.16-.32-.08-.72,.37-.88,.41-.14,.59,.2,.73,.44,.51,.94,.98,1.89,1.34,2.59Z"/>
  <path class="cls-3" d="M146.79,83.04c-.16,.36,.22,1.27-.46,.99-1.13-.47-.27-1.8-.82-2.65-.18-.27,.05-.7,.37-.58,1.13,.42,.75,1.43,.91,2.24Z"/>
  <path class="cls-6" d="M176.44,103.23c-.33-.97-1.29-1.61-.87-2.51,.19-.41,.38-.79,1.14-.75,.84,.04,.87,.52,.83,.9-.08,.74-.07,1.52-1.1,2.36Z"/>
  <path class="cls-6" d="M196.74,109.09c-1.08-.86-1.11-1.72-1.57-2.4-.33-.49-.12-.92,.56-1.04,.65-.12,1.02,.13,1.01,.74,0,.79,0,1.58,0,2.7Z"/>
  <path class="cls-6" d="M196.21,126.67c.2-2.43,.58-2.77,2.73-2.09-.97,.74-1.86,1.42-2.73,2.09Z"/>
  <path class="cls-6" d="M110.25,134.08s.03,.04,.03,.04c-.28-.42,.76-.9-.07-1.3,0,0,.04-.03,.03-.03,.24,.84,1.46-.4,1.83,.73,.35,1.09,.14,1.64-.99,2.04,0,0,0-.06,0-.06,1.26-.73-.04-.84-.38-1.18-.14-.08-.29-.16-.43-.24Z"/>
  <path class="cls-6" d="M188.72,98.75c-.32,0-.47-.15-.48-.42-.03-.45,1.99-2.34,2.5-2.31,.37,.03,.63,.16,.52,.56-.1,.34-2.2,2.16-2.54,2.17Z"/>
  <path class="cls-6" d="M182.78,137.01c-.93-.68-.59-1.49-.97-2.11-.21-.34-.38-.85,.36-.94,.69-.08,1.27,.18,1.19,.86-.08,.68-.34,1.34-.57,2.18Z"/>
  <path class="cls-3" d="M163.27,80.99c-.27,.78,.25,1.89-.89,2.05-.75,.1-1.53-.9-1.48-1.35,.13-1.14,1.53-.37,2.38-.7Z"/>
  <path class="cls-6" d="M149.4,129.2s-.07-.03-.07-.03c.07,0,.13-.02,.2-.01,.94,.05-.4-1.99,1.28-1.1,1.18,.62,1.24,1.64,.39,2.62-.3-.76-.41-1.69-1.79-1.48Z"/>
  <path class="cls-7" d="M105.43,139.31c-1.02-.9-2.28-.92-2.51-1.81-.09-.37,1-.93,1.34-.8,.96,.38,1.11,1.26,1.16,2.61Z"/>
  <path class="cls-3" d="M172.52,89.11c-.62-1.5,.61-1.96,1.36-2.61,.22-.19,.63,.05,.64,.22,.06,1.16-1.1,1.55-2,2.39Z"/>
  <path class="cls-6" d="M225.3,114.76c.2-.39-.37-1.15,.7-1.12,.66,.02,.96,.41,.86,.94-.12,.62-.32,1.45-1.1,1.45-.84,0-.33-.81-.46-1.27Z"/>
  <path class="cls-6" d="M215.88,110.04c-.12-1.03-.66-2.03-.34-3.1,1.99,.44,1.63,1.54,1.04,2.7-.23,.13-.46,.26-.7,.39Z"/>
  <path class="cls-6" d="M141.18,128.91c-.72-.58-1.4-1.12-2.21-1.77,.73-.38,1.5-.54,2.06-.12,.65,.49,.7,1.21,.15,1.89Z"/>
  <path d="M118.71,66.62c.83-.49,1.66-.97,2.48-1.46,.24-.1,.48-.21,.71-.31,.26,.04,.51,.08,.77,.12,.06,.37-.51,.67-.15,1.07,0,0-.02-.04-.01-.04-1.16-.43-1.85,.68-2.87,.69-.31-.02-.62-.04-.93-.06Z"/>
  <path class="cls-8" d="M131.07,130.4c-.27-.62-1.32-.86-1.15-1.69,.06-.26,.32-.38,.6-.34,1.25,.14,.79,1.17,1.2,1.75,.03,.05,.08,.09,.12,.14-.26,.05-.51,.1-.77,.15Z"/>
  <path class="cls-7" d="M105.69,115.85c.09,.93,.17,1.72,.25,2.58q-1.73-1.11-.25-2.58Z"/>
  <path class="cls-1" d="M136.78,58.09c-1.11,.67-2.19,1.4-3.57,1.56,.74-1.28,2.35-1.41,3.52-2.13,.02,.19,.04,.38,.06,.57Z"/>
  <path class="cls-6" d="M192.31,150.11c.39,.99,.44,1.98,.06,3.32-.75-1.33-.64-2.32-.06-3.32Z"/>
  <path class="cls-6" d="M204.45,134.1c.03,1.02,.32,1.84-.8,2.27-.17,.07-.65-.09-.69-.22-.34-1.02,.59-1.38,1.49-2.05Z"/>
  <path class="cls-3" d="M142.38,81.54c.88-.19,1.61-.46,1.94,.42,.09,.25,.18,.71-.18,.73-.82,.02-1.3-.49-1.76-1.14Z"/>
  <path class="cls-6" d="M161.73,130.41c-.63-.91-1.12-1.45-.8-2.18,.03-.08,.4-.16,.51-.1,.86,.5,.6,1.18,.29,2.28Z"/>
  <path class="cls-11" d="M149.4,129.2c1.38-.21,1.49,.72,1.79,1.48-.43,.14-.51,.46-.57,.8-.39-.77-1.31-1.32-1.23-2.28Z"/>
  <path class="cls-11" d="M128.28,99.92c-.79,.82-1.91,.55-2.92,.67,.65-1.25,1.91-.54,2.92-.67Z"/>
  <path class="cls-6" d="M215.54,117.91c-1.07-.76-1.6-1.16-1.27-1.89,.12-.26,.42-.55,.76-.33,.73,.47,.28,1.14,.51,2.22Z"/>
  <path class="cls-12" d="M230.55,127.6c.15,.03,.29,.06,.44,.09-.06,.75-.35,1.4-1.07,1.97-.43-.91-.02-1.51,.62-2.06Z"/>
  <path class="cls-11" d="M184.48,114.95c-.82,0-1.64,0-2.45,0,.81-1.06,1.63-1.07,2.45,0Z"/>
  <path class="cls-7" d="M132.06,60c-.27,1.07-1.21,1.07-2.14,1.07,.58-.58,1.19-1.1,2.14-1.07Z"/>
  <path class="cls-13" d="M239.08,116.74c.27-.01,.55-.02,.82-.04-.03,.49,.12,1.2-.83,.97-.55-.13-.44-.62,0-.93Z"/>
  <path class="cls-7" d="M119.69,100.77c-.57,.11-1.15,.22-1.72,.33l.07-.08-.1-.06c.55-.39,.89-1.01,1.68-1.14,.02,.32,.04,.63,.06,.95Z"/>
  <path class="cls-13" d="M215.07,93.65c-.66,.04-1.01-.3-1.27-.76,.68-.07,1.25,.01,1.27,.76Z"/>
  <path class="cls-11" d="M120.1,101.66c-.25,.36-.09,.65,.24,.9-.51,.13-1.13,.2-1.23-.36-.07-.45,.51-.54,.98-.54Z"/>
  <path class="cls-12" d="M215.44,112.18c.16-.47-.17-1.05,.44-1.42-.01,.54,.16,1.16-.09,1.6-.33,.57-.21-.12-.35-.18Z"/>
  <path class="cls-11" d="M117.97,101.1c-.15,.8-.73,.53-1.29,.4,.21-.6,.74-.57,1.26-.54,0,0,.1,.06,.1,.06l-.07,.08Z"/>
  <path class="cls-11" d="M162.47,106.52c.56-.12,1.09-.07,1.61,.14-.3,.24-.6,.49-.89,.73-.24-.04-.48-.08-.72-.13,0-.25,0-.49,0-.74Z"/>
  <path class="cls-13" d="M220.5,151.09c.19,.11,.42,.17,.45,.28,.08,.29-.2,.38-.46,.35-.13-.01-.34-.18-.34-.28,0-.11,.2-.22,.34-.35Z"/>
  <path class="cls-13" d="M180.65,113.56c.14,.16,.24,.28,.35,.41-.15,.09-.31,.24-.45,.23-.13,0-.25-.19-.37-.3,.14-.1,.28-.2,.48-.34Z"/>
  <path class="cls-12" d="M215.07,114.19c-.09-.09-.26-.19-.29-.31-.07-.23,.04-.46,.35-.48,.1,0,.3,.16,.33,.28,.06,.21,.02,.44-.38,.52Z"/>
  <path class="cls-7" d="M120.27,99.68c.5,.08,.99,.17,1.49,.25-.08,.19-.16,.39-.24,.58-.35,.01-.7,.02-1.05,.03l-.19-.85s0-.01,0-.01Z"/>
  <path class="cls-12" d="M205.13,169.01c-.12-.06-.42-.13-.51-.29-.15-.26,.09-.43,.39-.39,.23,.03,.54,.13,.64,.28,.18,.28-.1,.36-.52,.41Z"/>
  <path class="cls-13" d="M96.01,145.99c.18,.22,.35,.43,.53,.65-.12,.3-.24,.59-.36,.89-.37-.23-.73-.48-.82-.9,.33-.1,.55-.27,.58-.58l.07-.06Z"/>
  <path class="cls-12" d="M202.14,166.95c.67,.06,1.01,.3,.98,.53-.09,.66-.42,.09-.59,.01-.14-.07-.2-.26-.4-.54Z"/>
  <path class="cls-12" d="M153.1,104.08c.53,.41,.84,.87,.47,1.49-.16-.14-.32-.28-.49-.41h0c0-.36,0-.71,0-1.07Z"/>
  <path class="cls-13" d="M229.66,143.85c-.18-.07-.36-.14-.54-.21-.2-.24-.16-.5,.2-.47,.45,.03,.36,.4,.34,.68Z"/>
  <path class="cls-13" d="M239.93,112.17l-.27-.71c.51,.12,.85,.28,.27,.71Z"/>
  <path class="cls-13" d="M213.08,149.89c.51,.11,.67,.46,.79,.84-.31,.06-.62,.11-.94,.17,0,0-.05-.03-.05-.03,.07-.33,.13-.66,.2-.98Z"/>
  <path class="cls-13" d="M219.54,150.75c.22-.26,.19-.75,.81-.67-.03,.44-.28,.68-.81,.67Z"/>
  <path class="cls-12" d="M228.8,131.32c-.04-.09-.13-.21-.09-.27,.03-.06,.19-.08,.29-.12,.04,.09,.13,.21,.1,.27-.03,.07-.19,.08-.3,.12Z"/>
  <path class="cls-11" d="M122.67,64.97c-.26-.04-.51-.08-.77-.12,.12-.17,.24-.48,.37-.48,.44-.01,.38,.33,.39,.6Z"/>
  <path class="cls-12" d="M215.88,110.04c.23-.13,.46-.26,.7-.39-.07,.46-.16,.91-.72,1.13,0-.25,.02-.49,.03-.74Z"/>
  <path class="cls-9" d="M120.27,99.69l.19,.85c-.26,.08-.51,.15-.77,.23-.02-.32-.04-.63-.06-.95,.18-.16,.38-.25,.64-.13Z"/>
  <path class="cls-11" d="M121.51,100.51c.08-.19,.16-.39,.24-.58,.25-.02,.5-.04,.75-.06-.04,.54-.37,.76-.99,.64Z"/>
  <path class="cls-13" d="M178.41,113.43c.39-.06,.78-.12,1.17-.19-.31,.42-.71,.43-1.17,.19Z"/>
  <path class="cls-13" d="M216.11,152.79c.12-.21,.24-.42,.36-.64,.22,.07,.54,.1,.42,.39-.13,.33-.48,.25-.78,.24Z"/>
  <path class="cls-7" d="M133.23,59.64c-.23,.55-.69,.49-1.19,.37,.29-.39,.61-.72,1.19-.37Z"/>
  <path class="cls-12" d="M152.93,106.31c-.11-.37-.22-.74-.33-1.1,.16-.02,.32-.03,.49-.05h0c-.05,.38-.1,.77-.15,1.15Z"/>
  <path class="cls-13" d="M139.65,139.73c.21,.17,.42,.34,.64,.51-.36-.04-.59-.19-.64-.51Z"/>
  <path class="cls-6" d="M131.07,130.4c.26-.05,.51-.1,.77-.15-.05,.46-.5,.52-.88,.65,0,0-.06-.05-.07-.05,.06-.15,.12-.3,.18-.45Z"/>
  <path class="cls-13" d="M96.84,148.26c-.19-.22-.39-.44-.58-.67,.42,.08,.56,.33,.58,.67Z"/>
  <path class="cls-11" d="M120.65,102.63c.39-.17,.78-.15,1.17,.03-.39,0-.78-.02-1.17-.03Z"/>
  <path class="cls-13" d="M213.8,151.63c-.14-.06-.28-.13-.42-.19,.14,.06,.28,.13,.42,.19Z"/>
  <path class="cls-13" d="M135.14,138.83c-.06-.06-.13-.12-.17-.19-.02-.02,.03-.08,.05-.12,.1,.09,.14,.19,.12,.31Z"/>
  <path class="cls-13" d="M221.25,154.31c-.03,.09-.06,.18-.1,.27-.02-.1,.02-.2,.1-.27Z"/>
  <path class="cls-13" d="M134.73,137.78c-.05-.11-.11-.22-.16-.33,.05,.11,.11,.22,.16,.33Z"/>
  <path class="cls-13" d="M239.65,137.4c.06-.17,.12-.35,.18-.52-.06,.17-.12,.35-.18,.52Z"/>
  <path class="cls-13" d="M185.96,161.95c.02,.12,0,.23-.04,.34-.03-.08-.07-.17-.08-.25,0-.03,.08-.06,.12-.09Z"/>
  <path class="cls-11" d="M114.39,98.86c-.19,.19-.41,.2-.65,.07,.22-.02,.43-.05,.65-.07Z"/>
  <path class="cls-11" d="M120.87,101.51c-.13,.02-.27,.04-.4,.06,.1-.17,.23-.21,.4-.06Z"/>
  <path class="cls-13" d="M186.92,164.42c.06,.06,.12,.12,.17,.19,.01,.02-.05,.07-.08,.1-.08-.08-.11-.18-.09-.29Z"/>
  <path class="cls-12" d="M203.85,168.01s.08,.07,.12,.11c-.05,.03-.1,.09-.14,.09-.04,0-.09-.06-.13-.1,.05-.03,.09-.06,.15-.1Z"/>
  <path class="cls-13" d="M69.47,129.43c-.04-.08-.1-.16-.12-.24,0-.03,.05-.08,.07-.12,.02,.12,.03,.24,.05,.36Z"/>
  <path class="cls-13" d="M178.19,114.08c-.34,.29-.6,.12-.87-.09,.29,.03,.58,.06,.87,.09Z"/>
  <path class="cls-13" d="M133.13,127.96c-.15,.07-.3,.14-.45,.2,.15-.07,.3-.14,.45-.2Z"/>
  <path class="cls-13" d="M69.38,125.45c.02-.15,.04-.3,.06-.45-.02,.15-.04,.3-.06,.45Z"/>
  <path class="cls-12" d="M143.01,55.14c1.08-1.22,2.78-1.54,4.18-2.29,3.29-1.76,6.6-3.5,9.94-5.18,.67-.34,1.33-.99,2.27-.58-.03,.11-.03,.28-.11,.31-5.05,2.46-9.85,5.34-15.01,7.62-.41,.18-.82,.34-1.27,.11Z"/>
  <path class="cls-12" d="M159.32,46.96c-.15-.93,.87-.86,1.4-1.12,1.64-.79,3.16-1.85,5.13-2.04-1.8,1.63-4.11,2.47-6.53,3.16Z"/>
  <path class="cls-1" d="M117.41,67.97c.51-.14,1.2-.17,1.71-.31,.03,.35-.36,1.42-.67,1.67-.79,.25-.16,.14-1.62,.52,0,0,0,0,0,0-.75-.32-1.27,.18-1.73,.51-1.65,1.19-3.23,2.45-4.84,3.68-.55,0-1.62-.03-2.17-.03,2.51-2.58,5.78-4.28,9.32-6.04Z"/>
  <path class="cls-5" d="M61.05,181.32c-.73,.12-1.46,.26-2.2,.35-.55,.07-1.41,.52-1.58-.18-.21-.84,.91-.58,1.43-.78,.55-.21,1.2-.18,1.78-.34,6.16-1.68,12-3.95,17.09-7.4,1.51-1.03,2.4-1.71,3.51,.19,.24,.42,.89,.78,1.44,.94,1.97,.58,1.52,1.2,.29,2.17-6.57,5.24-14.58,7.91-23.07,9.75-.49,.11-1.36,.45-1.48-.32-.08-.51,.55-.84,1.25-.94,.86-.13,1.7-.38,2.55-.57,.4-.09,.87-.17,.71-.65-.14-.44-.57-.39-1-.3-.92,.21-1.83,.44-2.76,.6-.55,.09-1.41,.41-1.57-.28-.19-.8,.81-.76,1.42-.89,.79-.17,1.61-.23,2.4-.39,.43-.09,1.06-.15,.84-.74-.16-.43-.64-.32-1.04-.23Z"/>
  <path class="cls-5" d="M82.96,163.69c-.33,.12-.66,.24-.99,.37-.05-.21-.1-.42-.15-.64,.43-.07,.86-.13,1.14,.27Z"/>
  <path class="cls-12" d="M109.76,74.02c1.61-1.23,3.19-2.5,4.84-3.68,.46-.33,.98-.82,1.73-.51-1.47,1.17-2.95,2.33-4.4,3.52-.76,.63-1.47,1.3-2.16,1.99-.38,.39-.73,.87-.43,1.42,.32,.6,.99,.4,1.54,.44,.82,.06,1.66-.2,2.49,.11-1.01,.72-3.78,.84-4.57,.19-.58-.49-.71-1.1-.31-1.73,.38-.6,.83-1.17,1.26-1.75Z"/>
  <path class="cls-1" d="M120.61,66.66c1.15-.5,4.44-4.58,3.85-.9,.2,.46-1.62,1.42-2.37,1.8-.51,.26-1.79-.16-1.48-.9Z"/>
  <path class="cls-12" d="M114.51,69.83c.18-1.02,1.17-1,1.96-1.25-.14,1.06-1.06,1.15-1.96,1.25Z"/>
  <path class="cls-10" d="M189.61,79.33c.11,.03,.23,.06,.34,.09-.11,.07-.21,.13-.32,.2-.12-.09-.13-.18-.02-.28Z"/>
  <path class="cls-10" d="M216.53,94.09c.34-.05,.51,.13,.65,.36-.28-.04-.55-.08-.65-.36Z"/>
  <path class="cls-10" d="M139.09,55.81c-.26,.12-.49,.42-.81,.07-.2-.22,.09-.29,.15-.43,.22,.12,.44,.24,.67,.35Z"/>
  <path class="cls-10" d="M238.8,139.45c.05-.11,.09-.21,.14-.32,.08,.06,.16,.12,.24,.18-.13,.05-.25,.09-.38,.14Z"/>
  <path class="cls-10" d="M181.62,166.2c.28,.05,.56,.1,.85,.15,.15,.04,.3,.07,.45,.11,0,0,.02,0,.02,0-.62,.59-1.08,.61-1.32-.26Z"/>
  <path class="cls-13" d="M92.76,173.18c.13-.08,.26-.17,.39-.25-.13,.08-.26,.17-.39,.25Z"/>
  <path class="cls-10" d="M153.09,105.16c-.16,.02-.32,.03-.49,.05-.09-.49-1.04-.83-.33-1.45,.54-.38,.6,.13,.83,.33,0,.36,0,.72-.01,1.08Z"/>
  <path class="cls-10" d="M138.44,138.98c-.22,.05-.48,.11-.55-.15-.03-.11,.09-.25,.14-.38,.4,.03,.61,.16,.41,.53Z"/>
  <path class="cls-10" d="M212.21,156.01c-.57-.53-.11-.63,.41-.71,.32,.14,.42,.35,.22,.62-.17,.23-.4,.18-.63,.09Z"/>
  <path class="cls-10" d="M212.6,155.32c.08-.45,.2-.83,.82-.35,.11,.2,.18,.4-.09,.55-.33,.18-.56,.08-.73-.2Z"/>
  <path class="cls-6" d="M213.44,154.95c-.32-.43-.16-.58,.39-.51,.15,.16,.34,.33,.07,.5-.1,.06-.31,0-.47,0Z"/>
  <path class="cls-10" d="M91.51,142.7c.66-.7,.96,.06,1.29,.3,.35,.25,.71,.67-.08,.92-1.16,.15-1.25-.49-1.21-1.22Z"/>
  <path class="cls-10" d="M92.95,144.45c-.14-.5,.18-.7,.61-.46,.55,.3,.98,.76,1.46,1.15-1.22,.95-1.48-.23-2.07-.69Z"/>
  <path class="cls-10" d="M95.94,146.05c-.04,.31-.26,.48-.58,.58-.14-.44,.04-.65,.58-.58Z"/>
  <path class="cls-10" d="M110.25,134.08c.14,.08,.29,.16,.43,.24,0,.33,0,.66,0,.99-.51-.23-1.07-.46-1.05-1.04,0-.22,.34-.28,.61-.19Z"/>
  <path class="cls-13" d="M110.69,135.3c0-.33,0-.66,0-.99,.35,.34,1.65,.45,.38,1.18-.13-.06-.25-.13-.38-.19Z"/>
  <path class="cls-13" d="M182.91,166.45c-.15-.04-.3-.07-.45-.11,.15,.04,.3,.07,.45,.11Z"/>
  <path class="cls-4" d="M152.6,99.61c-.16,.66-.37,1.23-1.41,.85s-2.81-1.21-3.19-1.79c-1.58-2.43-4.86-4.05-6.87-6.2-1.94-2.08-5.01-3.86-6.28-6.21,0,0-.61-1.4-.82-3.71-.02-.18,.18-.75,.18-.75,.02-.17,.51-.32,.69-.45,.2-.13,.55-.05,1.19,0,4.41,.31,8.94,3.19,11.4,5.58,1.76,1.72,1.7,3.97,2.79,5.82,1.21,2.05,2.71,4.9,2.32,6.87Z"/>
  <path class="cls-4" d="M161.47,94.69c-.27,2.03-.76,4.8-2.07,6.31-.46,.49-.9,.9-1.41,.29-.49-.59-1.41-1.36-1.16-1.87,1.25-2.48-1.22-5.21-1.45-7.56-.22-2.26-1.36-4.6-.98-6.88,0,0,.33-1.33,1.42-3.29,.08-.15,.52-.57,.52-.57,.1-.14,.51-.13,.7-.18,.21-.05,.4,.12,.81,.33,2.84,1.5,4.38,5.16,4.79,7.82,.29,1.9-.95,3.74-1.19,5.59Z"/>
  <path class="cls-4" d="M166.88,105.84c-.5-.03-1.96-.04-2.23-.88-.31-.95-1.5-1.39-1.07-1.57,2.07-.91,5.39-4.61,6.74-6.92,1.3-2.23,2.26-5.47,3.84-7.1,0,0,.65-.98,2.33-1.6,.13-.05,.9,.18,.9,.18,.13-.01,.3,.42,.42,.58,.12,.16,.81,.52,.85,1.14,.3,4.25-2.37,7.72-3.85,10.49-1.06,1.99-2.26,2.78-3.6,3.99-1.32,1.19-2.81,1.72-4.31,1.7Z"/>
  <path class="cls-4" d="M165.07,102.57c-.55,.11-2.34,.93-2.4,.1s.96-2.8,1.38-3.05c2.05-1.22,1.67-5.06,2.63-7.13,.93-1.99,1.27-4.65,2.63-6.27,0,0,.49-.78,2.18-1.68,.13-.07,.51,.02,.51,.02,.14-.04,.77,.44,.93,.53,.17,.09,.5,.3,.75,.72,1.88,3.13,.34,6.69-.66,9.13-.72,1.75-2.45,2.45-3.5,3.8-1.16,1.49-2.83,3.44-4.45,3.83Z"/>
  <path class="cls-4" d="M154.82,101.07c-.45,.55-.54,.62-1.48,.43-1.06-.21-1.05-.56-.85-1.15,.99-2.86-1.38-5.77-2.17-8.64-.76-2.77-2.68-5.74-2.7-8.49,0,0-.22-1.63,.69-3.88,.07-.17,.85-.58,.85-.58,.1-.15,.61-.09,.84-.13,.24-.04,.51,.19,1.07,.5,3.82,2.16,5.08,6.4,6.15,9.69,.77,2.36,.41,4.17,.29,6.39-.12,2.18-1.41,4.18-2.69,5.85Z"/>
  <path class="cls-4" d="M161.38,102.45c-.72,.37-2.07-.3-2.88-.74-.91-.49-.72-.81-.23-1.29,2.42-2.33,1.63-5.65,2.34-8.49,.69-2.74,.37-6,1.75-8.51,0,0,.91-1.4,2.94-3.2,.15-.14,.82-.43,.82-.43,.18-.11,.63,.09,.87,.12,.25,.03,.06,.4,.43,.85,2.56,3.06,1.2,7.51,.15,10.73-.77,2.37-1,3.53-2.25,5.51-1.24,1.96-1.85,4.29-3.94,5.45Z"/>
  <path class="cls-3" d="M171.1,84.32c-.44,.67-.86,.66-1.61,1.11-.55,.33-.76-3.27-.46-2.96,.34,.36,1.65,1.64,2.07,1.85Z"/>
</svg>