<?xml version="1.0" encoding="UTF-8"?>
<svg id="Layer_1" data-name="Layer 1" xmlns="http://www.w3.org/2000/svg" viewBox="0 0 414 200">
  <defs>
    <style>
      .cls-1 {
        fill: #f7b7d3;
      }

      .cls-2 {
        fill: #00bff3;
      }

      .cls-3 {
        fill: #fff9b8;
      }

      .cls-4 {
        fill: #ecebea;
      }

      .cls-5 {
        fill: #fefdfd;
      }

      .cls-6 {
        fill: #fbb040;
      }

      .cls-7 {
        fill: #9ed2f1;
      }

      .cls-8 {
        fill: #b6aea8;
      }

      .cls-9 {
        fill: #baae99;
      }

      .cls-10 {
        fill: #dedad4;
      }

      .cls-11 {
        fill: #444139;
      }

      .cls-12 {
        fill: #6e665b;
      }

      .cls-13 {
        fill: #4c4742;
      }

      .cls-14 {
        fill: #504c47;
      }
    </style>
  </defs>
  <path class="cls-11" d="M84.15,180.19c-.42-.06-.84-.12-1.26-.18-.24-.09-.48-.18-.72-.27-.88-.26-1.87-.34-2.62-.81-2.92-1.86-5.85-2.59-9.06-.75-.59,.34-1.45,.74-1.72-.34-.19-.77,.6-.91,1.16-1.16,3.27-1.47,3.3-1.51,.83-4.33-1.56-1.79-2.63-3.65-1.84-6.12,11.81,6.63,21.21,.01,31.32-5.58-3.17-1.38-5.99-2.01-8.96-2.05-8.08-.13-15.56,1.88-22.41,6.21-.5-1.47,.52-2,1.54-2.57,.96-.54,1.9-1.12,3.13-1.84-1.26-1.31-2.85-1.02-4.01-1.68-.31-.18-.63-.56-.69-.89-.08-.48,.36-.57,.79-.66,5.4-1.17,10.66-1.82,16.26-.24,3.04,.86,6.64,.42,9.94-.71,4.46-1.52,8.78-1.56,13.43,.33,3.48,1.42,7.64,.76,11.38-.37,4.32-1.31,8.35-1.8,12.82,.12,2.57,1.1,5.86,.98,8.84-.54,5.39-2.75,10.82-3.15,16.34,.18,2.47,1.49,5.36,.74,7.86-.5,5.29-2.64,10.63-2.52,16.08-.64,1.06,.37,2.39,2.06,3.13,.84,.89-1.47,1.83-3.33,.58-5.45-2.18-3.69-4.14-7.53-5.47-11.64-.13-.26-.25-.52-.38-.78-.07-.19-.13-.38-.2-.57,.04-.53-.07-1-.56-1.29-.4-.94-.79-1.88-1.19-2.82,.38-.27,.76-.54,1.14-.81,2.21,4.83,4.32,9.7,6.64,14.47,1.97,4.05,3.07,4.06,6.01,.51,.65-.79,.38-1.48,.27-2.29-.46-3.48-1.67-6.73-3-9.95-.16-1.66,1.04-1.92,2.24-2.18,.24,.89,.51,1.76,.7,2.66,1.32,6.31,2.71,12.61,3.87,18.95,.52,2.85,2.97,3.38,4.74,3.5,1.86,.13,1.29-2.32,1.47-3.73,.1-.81,.06-1.64,.04-2.46-.38-13.75-2.47-27.34-3.69-41.01-.42-4.69-.86-9.42,.41-14.06,.79-2.89,1.9-5.38,5.71-5.17,1.58,.09,3.22-.5,4.81-.88,3.08-.74,3.25-1.42,1.09-3.87-3.11-3.54-7.63-4.29-13.29-2.21-.04-.46-.08-.91-.13-1.37,5.12-2.59,13.8-.95,16.09,4.79,.64,1.62,1.62,1.86,3.1,1.38,.77-.25,1.58-.43,2.39-.53,5.38-.71,9.79-2.54,12.24-8.04,1.26-2.83,3.86-5,6.98-6.16,.62,.2,1.33,.24,1.71,.89-2.75,.85-4.71,2.77-6.5,4.89-4.25,5.04-6.24,11.18-8.37,17.25-.61,.44-1.21,.89-1.82,1.33-2.46,.42-4.69,1.48-7,2.35-.64,.19-1.37,.26-1.7,1.04,.84,.51,2.09-.18,2.64,.98-.04,.36-.08,.72-.12,1.08-.42,.01-.85,.03-1.27,.04-2.03-1.43-3.83,.35-5.75,.4-2.17,.06-2.62,1.34-2.73,3.22-.21,3.58-.44,7.16-.96,10.72-1.27,8.62-2.53,17.26-1.71,26.02,.3,3.17,.68,6.33,2.12,9.23,.61,1.24,1.45,1.88,2.95,1.18,1.03-.48,2.37-.15,2.39-2.08,.15-15.51,3.31-30.77,3.79-46.25,.4-.41,.81-.82,1.22-1.23,.1,3.7,.27,7.41-.46,11.08-1.6,2.21-.47,4.7-.71,7.05-.39,4.22-.78,8.44-1.17,12.66-.11,.49-.14,1-.33,1.45-.36,.86-1.12,2.19,.57,1.84,.96-.2,.81-2.07,.8-3.27,.21-1,.44-1.99,.64-2.99,1.98-10.32,3.59-20.71,6.16-30.92,.37,.4,.73,.81,1.1,1.21-1.49,7.43-2.97,14.86-4.46,22.29-.08,.23-.17,.46-.25,.7,.12,2.5-.79,4.84-1.19,7.25-1.07,6.36-3.59,12.8,1.24,18.87,1.34-1.2,4.06-.83,4.52-3.66,.98-6.05,2.05-12.09,3.14-18.13,.18-1.01-.05-2.35,1.49-2.63,.09,1.22,.23,2.39-.01,3.65-1.18,5.94-2.23,11.9-3.38,18.2,3.07-.62,5.83-1.14,8.73-.3,1.2,.35,2.81-.38,3.67-1.75,2.06-3.3,5.21-5.42,8.41-7.35,3.74-2.26,5.51-5.56,6.02-9.7,.5-4.03,1.27-7.91,4.47-10.81,2.47-2.24,2.46-4.2,.05-6.54,.32-1.03,.89-.57,1.44-.25l.82-.48c.08-.23,.16-.46,.23-.68,.56-.22,1.13-.44,1.69-.65-2.95,9.58,.97,19.08,.03,28.71,5.09-1.34,8.55-5.55,9.02-11.04,.23-2.64,.18-5.33-.02-7.98-.47-6.42-1.8-12.69-3.4-19.07-3.1,1.62-3.79,4.52-5.07,7.01-.26-.55-.76-.66-1.3-.7,.16-.43,.31-.86,.47-1.29,.45-.16,.64-.48,.64-.94-.04-.45-.07-.91-.11-1.36,.68-.22,.88-.76,.88-1.41q4.33-2.84,3.29-7.39c-.11-.5-.15-1.01-.24-1.51-.2-1.16-.09-2.75-2-2.14-1.65,.52-4.51-.44-4.09,2.98-.1,.75,.07,1.61-.81,2.05-.85-.98,0-2.54-1.16-3.41-.69-.52-1.28-.46-1.78,.27-.4,.03-.8,.06-1.21,.1-.06-.5-.11-.99-.17-1.49l.04,.03c.9,.07,1.84,.39,2.56-.48,1.08-.69,2.29-.73,3.51-.72,.76,.07,1.53,.2,2.04-.59,2.78-.28,2.22-2.29,1.8-3.91-.47-1.81-1.77-.6-2.7-.39-7,1.57-13.78,3.9-20.64,5.98-1.24,.38-1.9,1.07-2.46,2.07-.4-.06-.81-.11-1.21-.17,.56-1.62,1.08-3.25,1.68-4.86,1.84-4.9,4.97-8.08,10.59-7.93,0,.44,0,.88,.01,1.32-1.96,.86-4.44,.26-6,2.2-.25,.49-.51,.98-.76,1.47-.61,.88-1.48,1.66-1.19,3.06,7.06-2.01,14.05-4,21.05-5.97,1.08-.3,1.11-1.02,.93-1.89,0-.32,0-.63,.01-.95,.22-.38,.51-.75,.12-1.2l.57-2.45c.18-1.29,.34-2.58,1.07-3.71,1.41,.76,.39,1.75,.24,2.65-1.47,13.84,4.61,26.5,5.87,40.13,2.87-1.25,4.22-3.31,5.03-5.63,1.16-3.32,1.19-6.81,1.17-10.32-.04-6.66-1.52-13.24-1.02-19.93,.11-1.48-.09-3.16,1.86-3.74,2.39,1.66,3.05-.83,4.35-1.81l-.02,.04c1.67-.97,2.71-2.57,3.95-3.98,.37-.42,1.03-1.15-.27-1.35l.02-.03c3.03-.63,4.03-3.51,5.47-5.54,3.92-5.53,6.5-11.83,9.14-18.07,.81-1.91-.31-2.11-1.46-2.49-2.16-.7-2.7-1.49-.59-3.13,2.65-2.06,5.12-4.37,8.22-7.04,.31,4.44,.61,8.34,.85,12.24,.08,1.35-.76,1.33-1.57,.77-2.26-1.54-2.85-.16-3.63,1.71-3.16,7.65-6.78,15.08-11.57,21.88-2.76,1.62-4.02,4.63-6.21,6.77-1.61,1.42-3.15,3.05-5.2,3.72-3.22,1.04-2.39,3.7-1.89,5.5,.5,1.81,2.39,.33,3.67,.16,.5-.07,1.01-.1,1.51-.15,.21-.02,.42-.04,.63-.06,.71-.38,1.42-.77,2.28-.62,.29-.05,.58-.1,.87-.15,1.6-.64,3.25-1.04,4.99-.94,0,.43,0,.85,0,1.28-.72,.18-1.43,.36-2.15,.54-1.17,.44-1.15,1.09-.32,1.87,0,.82-.02,1.65-.03,2.47-1.29,.89,.26,2.93-1.47,3.64,.01-.51,.06-1.03,.03-1.54-.11-1.83,.79-4.17-.39-5.35-1.19-1.18-3.21,.46-4.9,.7-4.63,.66-4.63,.68-4.08,5.47,.1,.92,.27,1.83,.31,2.75,.29,8.06,1.49,16.35-6.55,22.03-1.51,1.07-.66,3.4,.05,4.53,.84,1.34,2.2-.27,3.05-.9,2.85-2.09,4.98-4.82,6.38-8.11,2.37-5.54,4.53-11.15,5.67-17.1,.44,0,.87,.02,1.31,.02-.49,4.27-1.38,8.53-3.41,12.26-2.48,4.55-2.23,9.46-2.88,14.27-.83,.9-.44,1.99-.5,3.02-.32,1.06-.63,2.12-.95,3.18-.09,.19-.17,.39-.26,.58,.02,.49,.03,.99-.49,1.28-.24,0-.48-.02-.72-.03-.16-.13-.32-.26-.48-.39,.61-2.15,1.23-4.3,1.84-6.46,.1-.32,.2-.64,.3-.96,.05-1.52,.1-3.04,.15-4.55-.17-.48-.37-.51-.62-.06-1.77,2.6-3.96,4.79-6.94,5.84-1.47,.52-1.7,1.24-1.81,2.63-.49,6.6-3.11,11.85-9.65,14.45-.47,.19-1.08,.33-1.34,.69-.65,.91-1.32,2.05-.93,3.1,.41,1.11,1.63,.44,2.46,.36,3.65-.33,6.5-2.3,9.16-4.63,.39,.23,.78,.46,1.17,.69-1.44,1.49-2.27,3.25-2.96,5.22-2.94,8.4-8.57,14.28-16.98,17.37-.78,.28-1.55,.52-2.12,1.16-.69,0-1.38,.01-2.06,.02-1.89-.34-3.66-1-5.4-1.81-1.52-.71-3.03-1.68-4.87-1.14l-.94-.9c3.99-2.34,5.28-6.35,6.49-10.44,.51-1.7,.63-2.59-1.65-1.89-2.1,.65-4.3,.98-6.46,1.45-1.35,0-2.7,0-4.04,.01-4-.15-7.75,.46-10.68,3.53-.49,.17-.74,.53-.82,1.03-10.86-.73-19.12,4.94-27.57,11.09,6.89,3.5,13.27,2.86,19.55-.63,0,.73,0,1.46,0,2.2-.3,.05-.63,.04-.9,.16-6.66,2.74-13.24,3.14-19.71-.57-.64-.37-1.32-.48-2.06-.31-.88,.2-2.1-.04-2.5,.82-.43,.94,.59,1.68,1.24,2.25,2.65,2.34,5.03,5.07,8.54,6.22-.3,.83-1.12,.49-1.68,.74-2.28-.27-4.12,1.65-6.42,1.3-.18-.15-.33-.12-.46,.08-4.85,1.23-9.52,.44-14.11-1.29-1.01-.38-1.87-.9-3.16-.34-5.56,2.43-11.37,2.38-17.16,1.09-3.04-.68-5.93-1.29-8.88,.35-.83,.46-1.99,.33-3,.46-.2-.4-.4-.8-.6-1.2,1.47-.75,3.43-.21,4.97-1.73-3.63-2.4-7.1-4.53-9.97-7.43-.82-.83-1.74-.25-2.6-.02-5.47,1.47-10.91,3.26-16.1-.93-1.14-.92-2.54,.18-3.29,.92-.91,.9,.52,1.49,1.05,2.04,1.73,1.78,3.83,3.04,6.09,4.08,3.78,1.76,7.87,2.19,11.87,3.04-.2,.4-.41,.79-.61,1.19-.3,0-.62,.08-.91,.01-6.15-1.35-12.22-3.04-18.49,0-1.88,.91-4.41,.41-6.6-.28-.41-.07-.82-.14-1.22-.21-3.95-1.66-7.79-1.27-11.55,.64-.23,.09-.47,.18-.7,.27-1.94,.43-3.88,.82-5.88,.49-.9-.15-1.72-1.07-2.72-.3ZM225.91,89.8c.78-2.1-.81-.96-1.3-.85-6.36,1.45-12.71,2.94-19.05,4.5-1.37,.34-2.95,.25-4.28,1.65,.77,.1,1.25,.16,1.74,.22-.2,.33-.39,.66-.59,.99-3.32,1.27-1.87,4.32-2.38,6.6-.44,1.96,.24,2.55,2.34,1.67,6.13-2.59,12.3-5.12,18.57-7.34,2.41-.85,3.87-2.07,4.35-4.51,.98-.81,.45-1.94,.62-2.93Zm-36.5,87.98c.2-.04,.4-.09,.6-.13,1.28-.61,1.79-1.31,.26-2.24-2.13-1.3-3.76-3.1-5.09-5.16-.82-1.26-1.89-1.27-3.19-1.18-5.04,.37-10.05,.16-14.74-1.96-1.42-.64-2.63-.1-3.33,.66-.93,1.01,.48,1.78,1.1,2.43,5.61,5.93,12.57,8.5,20.67,8.18l.61-.09c.98-.53,2.03-.67,3.12-.51Zm69.71-41.03c-.12-1.76-.21-3.29-.33-4.83-.12-1.48-.66-1.74-1.92-.79-2.33,1.76-4.23,3.85-5.71,6.37-3.09,5.25-5.24,10.89-6.76,16.77-.34,1.31-1.99,2.96-.87,3.81,1.32,1,3.36,.24,4.97-.55,2.07-1.01,3.73-2.51,5.12-4.34,3.73-4.93,5.24-10.58,5.51-16.45Zm-166.09,29.66c3.56,2.92,7.29,3.66,11.26,3.38,6.2-.44,11.61-3.03,16.7-6.38,1.24-.82,3.74-1.43,3.38-2.62-.5-1.71-2.93-1.79-4.73-2.08-.2-.03-.41,0-.61-.03-9.71-1.41-17.63,3.13-26.01,7.74Zm106.37-6.72c-6.67-4.86-23.21-1.53-30.65,6.18,7.9,3.43,22.54,2.43,30.65-6.18Zm-25.77-.05c-12.18-4.92-21.54,1.3-31.22,6.68,5.44,6.11,24.19,.71,31.22-6.68Zm-25.52,1.03c-5.58-2.41-11.03-3.59-16.84-1.08-3.1,1.34-6.08,2.9-8.85,4.82-1.26,.87-3.85,1.34-3.38,2.89,.57,1.91,3.1,1.94,5.06,2,.71,.02,1.44,.03,2.14-.1,6.35-1.16,12.5-2.99,18.28-5.87,1.21-.6,2.7-.97,3.59-2.66Zm21.52,15.52c-2.32-1.9-4.71-3.24-6.18-5.41-1.35-2-2.77-2.04-4.88-1.45-5.94,1.64-11.89,2.38-17.35-1.61-.81-.59-1.76-.48-2.66-.24-.36,.1-.85,.28-.99,.56-.26,.53,.2,.84,.6,1.2,4.72,4.29,10.06,7.4,16.45,8.25,4.92,.65,9.89,1.12,15.01-1.3Zm98.01-29.94c-2.84,.9-5.29,2.05-8.04,1.81-1.17-.11-1.61,.73-2.03,1.56-3.06,6.14-7.15,10.8-14.81,10.35-.67-.04-1.2,.3-1.43,.94-.22,.6,.19,.98,.67,1.19,2.33,1,4.52,2.46,7.27,2.05,7.89-1.18,16.71-9.62,18.36-17.91Zm-197.28,22.49c5.94,10.59,19.98,12.65,26.34,7.67-3.25-1.61-5.87-3.82-7.76-6.81-.53-.83-1.38-.8-2.2-.5-5.28,1.97-10.57,1.93-16.37-.36Zm48.11,7.46c-1.83-1.51-3.58-2.52-4.74-4.01-1.6-2.06-3.3-2.1-5.54-1.46-5.31,1.52-10.34,.66-15.09-2.14-.77-.45-1.64-1.85-2.57-.54-.73,1.03,.47,1.85,1.1,2.58,3.85,4.46,9.15,5.95,14.62,7.17,4.16,.93,8.1,.57,12.22-1.6Zm84.11-45.98c.28,0,.55,0,.83-.01,.82-8.08,2.61-16.07,2.56-24.41-5.88,2.13-5.9,2.13-5.28,7.74,.61,5.57,1.26,11.13,1.89,16.69Zm-45.13,26.73c-4.86-2.6-9.38-2.09-14.21-.13,4.84,3.3,9.38,3.8,14.21,.13Zm33.68-1.03c1.52-.46,4.77,1.37,3.42-2.69-.47-1.41-.13-3.78-1.26-4.12-1.59-.48-2.39,1.79-3.6,2.79-1.12,.92-2.51,1.92-1.89,3.41,.56,1.33,2.23,.28,3.32,.61Zm-22.86,.16c4.97,2.09,9.36,4.06,14.04,.28-4.66-1.83-9.05-1.76-14.04-.28Zm89.15-34.57c-2.99,2.86-3.73,6.15-3.94,9.73,5.22-1.48,5.26-5.1,3.94-9.73Zm-150.04,36.04c-3.49-1.39-6.68-1.13-10.43-.06,3.79,2.16,6.98,2.7,10.43,.06Zm15.33-.28c4.04,3.23,4.99,3.22,8.79,0-2.96-1.36-5.78-1.02-8.79,0Zm123.83-14.74c-3.84,1.87-5.55,3.55-6.28,6.03,3.85,.03,5.75-2.08,6.28-6.03Zm-33,4.33c0,2.56,.04,4.26-.01,5.95-.04,1.24,.57,1.57,1.69,1.53,1.27-.04,1.53-.73,1.42-1.81-.2-1.95-.79-3.71-3.1-5.68Zm-132.49,10.97c-2.42-.91-4.81-.37-7.74-.12,2.97,2.91,5.33,.6,7.74,.12Zm123.56-3.99c-.62,1.25-1.25,2.42-.38,3.47,.35,.42,1.58-.14,1.82-.71,.53-1.26-.47-1.96-1.44-2.76Z"/>
  <path class="cls-13" d="M197.54,83.18c.04,.46,.08,.91,.12,1.37-3.96,2.6-6.16,6.29-7.06,10.92-1.1,5.64-.99,11.31-.72,17-1.14,.23-1.56-.84-2.33-1.28-.54-2.62-2.17-.8-3.23-.68-1.71,.19-1.34,1.47-.96,2.6h.02c-.44-.95-1.22-.07-1.78-.34-.73-3.32-2.93-1.07-4.32-.96-4.32,.34-4.31,.47-2.49,4.51-.5,.45-.82,1.21-1.7,1.02-1.59-5.24-1.58-5.19-7.03-4.58-3.06,.34-5.68,.79-7.91,3.63-2.54,3.22-6.47,4.17-10.62,2.73-.85-.29-1.68-.76-2.78-.35,1.04,2.33,.49,3.64-2.3,3.93-5.07,.51-10.05,.57-14.72-1.8-3.34-1.69-3.86-4.34-1.51-7.26,1.37-1.7,3.08-3.01,5.08-3.9,1.46-.65,1.91-1.15,.47-2.51-15.04-14.3-27.57-30.85-41.41-46.22-6.91-7.67-13.55-15.58-20.33-23.35-.75-.86-1.62-1.62-1.32-2.93,1.17-.2,1.59,.77,2.18,1.43,6.25,7.04,12.1,14.42,18.63,21.25,5.8,6.07,10.94,12.77,16.4,19.17,8.74,10.22,17.41,20.5,27.23,29.73,.81,.76,1.48,1.72,2.87,1.35,2.73-.73,5.48-1.38,8.56-2.15-3.4-3.66-7.37-6.05-10.57-9.34-17.39-17.88-32.49-37.77-49.42-56.05-5.36-5.78-10.38-11.88-15.55-17.83-.26-.68-.45-1.36-.03-2.64,2.13,2.4,4.01,4.56,5.94,6.68,19.64,21.63,37.76,44.59,57.67,66,3.85,4.15,8.35,7.5,12.54,11.24,2.53,2.27,5.71,1.49,7.27-1.56,2.6-5.09,5.86-9.38,11.83-10.81,5.87-1.41,11.1,.29,14.62,5.16,.75,1.03,1.34,1.06,2.51,.95,4.62-.46,7.9-2.16,9.34-7.07,.96-3.29,3.38-5.83,6.84-7.02Zm-54.9,24.95l.03-.02c-2.18-.15-4.24,.37-6.22,1.23-2.88,.85-5.56,2.12-7.84,4.09-3.29,2.83-3.03,4.99,.96,6.51,3.57,1.36,7.31,2.11,11.17,1.21,.95-.22,2.35,.41,2.75-.68,.36-.99-.84-1.74-1.44-2.54-1.99-2.67-1.81-3.5,1.47-4.44,3.76-1.07,5.57-3.8,6.99-7.3-1.78-.33-3.12,.61-4.57,.83-.26,.06-.52,.11-.79,.17-.74,.56-1.98-.19-2.51,.94Zm31.51-5.51c-8.07,.91-10.61,2.81-11.52,8.77,5.87-.29,11.67-.93,17.41-1.95,2.47-.44,5.92,.36,7.15-1.73,1.13-1.92,.3-4.99,.34-7.55,.06-.41-.09-.6-.52-.51-.47,.14-.94,.28-1.41,.43,.06-1.23,1.61-1.18,2.04-2.54-5.67,.74-10.88,2.53-16.44,3.88,1.08,.96,2.47-.26,2.95,1.21Zm-23.63,15.43c3.02,.02,4.95-1.28,6.68-2.95,2.25-2.17,3.75-4.89,4.96-7.7,1.67-3.88,4.49-6.24,8.47-7.38,1.67-.48,3.29-1.2,4.99-1.48,2.55-.42,2.01-1.67,.79-2.81-3.19-3-7.01-4.1-11.33-3.1-6.39,1.47-9.56,6.23-11.93,11.8-1.4,3.3-2.77,6.61-5.67,8.98-.87,.71-2.82,.68-2.46,2.19,.31,1.33,2.09,1.49,3.28,1.99,.83,.35,1.79,.37,2.22,.46Z"/>
  <path class="cls-3" d="M291.19,84.73c-1.74-.1-3.39,.31-4.99,.94-.29,.05-.58,.1-.87,.15-.86-.15-1.57,.24-2.28,.62-.21,.02-.42,.04-.63,.06-.5,.05-1.01,.08-1.51,.15-1.29,.17-3.17,1.65-3.67-.16-.5-1.8-1.33-4.46,1.89-5.5,2.05-.66,3.59-2.3,5.2-3.72,1.04,.29,1.97,.24,2.63-.76,.38-.06,.76-.12,1.14-.19,.58,1.21,.94,.58,1.28-.15,13.51-3.14,27.02-6.28,40.52-9.43,.53,.12,1.03,.13,1.33-.45,4.17-.9,8.34-1.77,12.5-2.7,9.99-2.23,19.98-4.48,29.97-6.72,2.07,.88,2,2.66,1.91,4.47-.06,1.2-.01,2.4-.02,3.61-20.4,4.72-40.81,9.42-61.2,14.17-7.75,1.81-15.47,3.73-23.21,5.61Z"/>
  <path class="cls-6" d="M69.01,22.26c5.17,5.95,10.19,12.05,15.55,17.83,16.93,18.28,32.03,38.17,49.42,56.05,3.2,3.29,7.17,5.68,10.57,9.34-3.07,.77-5.83,1.42-8.56,2.15-1.39,.37-2.06-.59-2.87-1.35-9.82-9.23-18.49-19.51-27.23-29.73-5.47-6.39-10.6-13.1-16.4-19.17-6.52-6.83-12.38-14.2-18.63-21.25-.59-.66-1.01-1.63-2.18-1.43,.27-4.14-.33-8.31,.33-12.44Z"/>
  <path class="cls-7" d="M68.86,164.8c6.84-4.33,14.33-6.34,22.41-6.21,2.98,.05,5.8,.67,8.96,2.05-10.1,5.59-19.51,12.2-31.32,5.58-.79-.44-.89-.91-.06-1.42Z"/>
  <path class="cls-13" d="M194.6,177.93c.56-.25,1.38,.09,1.68-.74,10.54,2.01,20.96,.79,24.05-2.94-3.42-1.11-6.28-3.01-8.65-5.64,0-.73,0-1.46,0-2.2,4.6-1.88,8.25-5.02,11.83-8.59-1.44-.71-2.63-1.29-3.81-1.87,.08-.5,.34-.86,.82-1.03,1.94-.22,3.21,2.29,5.33,1.31,0,.56-.01,1.12-.02,1.68-2.23,1.95-4.41,3.95-6.69,5.84-1.4,1.16-1.06,1.71,.45,2.2,3.13,1.02,6.27,.58,9.42,.14,.7,.03,1.46-.07,1.85,.73-1.67,.8-3.44,1.14-5.28,1.31-3.04,.29-5.89-.34-8.64-1.57-1.22-.54-2.38-.22-3.04,.71-.89,1.27,.64,1.71,1.29,2.3,2.01,1.84,4.46,2.77,7.13,3.28,5.37,1.03,10.61,.09,15.76-1.12,3.79-.89,7.89-1.61,10-5.65,.69,0,1.38-.01,2.06-.02-1.79,4.44-5.8,5.77-9.85,6.9-5.25,1.47-10.61,2.26-16.08,1.74-.76-.07-1.31,.2-1.96,.62-8.75,5.72-18.08,5.46-27.65,2.59Z"/>
  <path class="cls-14" d="M291.19,84.73c7.73-1.87,15.46-3.8,23.21-5.61,20.39-4.75,40.8-9.45,61.2-14.17,1.59,1.96-.25,1.86-1.31,2.11-10.45,2.43-20.91,4.84-31.37,7.25-15.94,3.67-31.87,7.33-47.81,10.98-1.29,.3-2.61,.48-3.91,.72,0-.43,0-.85,0-1.28Z"/>
  <path class="cls-11" d="M187.55,111.18c.77,.44,1.2,1.51,2.33,1.28,.03,1.02,.06,2.04,.09,3.06-.61,.02-1.23,.05-1.84,.07-.19-1.16-.48-1.88-1.91-1.03-3.8,2.27-7.66,4.42-11.5,6.62-1.04,.49-2.07,.98-3.11,1.47-.19,.1-.38,.19-.56,.29-5.28,2.16-10.48,4.55-16.03,5.99-1.02,.26-2.53,1.41-3.03-.5-.44-1.67,1.22-1.52,2.22-1.82,6.07-1.83,11.99-4.03,17.57-7.07,4.12-1.68,8.08-3.65,11.58-6.46,0,0-.02,.01-.02,.01,1.66-.07,2.77-1.34,4.2-1.92Z"/>
  <path class="cls-3" d="M286.95,76.5c-.66,1-1.59,1.06-2.63,.76,2.19-2.14,3.45-5.15,6.21-6.77,.22,.53,.43,1.07,.65,1.6-.47,.42-.93,.84-1.4,1.26,.08,.16,.17,.33,.25,.49,6.77-1.62,13.54-3.24,20.31-4.87,21.1-4.83,42.2-9.67,63.3-14.5,.3,.61,1.7,1.12,.18,1.9-.53-1.12-1.35-.54-2.1-.37-12.54,2.83-25.09,5.64-37.62,8.56-1.01,.24-2.66-.07-2.87,1.72-.3,.58-.8,.57-1.33,.45,.19-1.29-.56-.9-1.3-.8-5.43,.72-10.5,2.87-15.92,3.75-5.73,.93-11.41,2.32-16.99,3.95-2.93,.86-6.44,.11-8.74,2.87Z"/>
  <path class="cls-13" d="M373.64,54.48c-21.1,4.83-42.2,9.67-63.3,14.5-.02-.41-.03-.82-.05-1.23,9.78-2.4,19.61-4.56,29.43-6.77,10.33-2.33,20.68-4.74,30.96-7.34,1.15-.29,2.42-1.02,2.95,.85Z"/>
  <path class="cls-13" d="M240.05,75.51c-.39-.65-1.09-.69-1.71-.89,5.49-2.54,10.24-1.12,14.02,3.18,1.91,2.18,3.71,2.84,6.27,1.78,1.57-.65,3.51-.3,4.79-1.74-.19,.82-.38,1.63-.57,2.45-4.86,.5-9.4,2.41-14.18,3.27v-1.32c.45-.22,.9-.44,1.36-.66,.75-.37,2.09,.13,2.22-1.09,.1-.96-.92-1.5-1.56-2.14-3-3-6.54-3.96-10.64-2.84Z"/>
  <path class="cls-12" d="M331.23,66.29c.22-1.78,1.86-1.48,2.87-1.72,12.52-2.92,25.08-5.72,37.62-8.56,.75-.17,1.58-.75,2.1,.37-.06,.16-.1,.32-.12,.49-9.99,2.24-19.98,4.49-29.97,6.72-4.16,.93-8.33,1.8-12.5,2.7Z"/>
  <path class="cls-14" d="M264.73,76.78c.15-.91,1.16-1.89-.24-2.65,3.28-8.28,11.81-11.02,19.35-6.2,.83,.53,1.76,1.05,1.82,2.24,0,0-.02,.03-.02,.03-.41,.13-.82,.25-1.22,.38-6.92-5.7-14.93-3.89-18.43,4.19-.33,.75-.59,1.5-1.25,2.02Z"/>
  <path class="cls-14" d="M310.3,67.75c.02,.41,.03,.82,.05,1.23-6.77,1.62-13.54,3.24-20.31,4.87-.08-.16-.17-.33-.25-.49,.47-.42,.93-.84,1.4-1.26,6.37-1.45,12.75-2.9,19.12-4.35Z"/>
  <path class="cls-14" d="M140.81,178.38c.2,.4,.4,.8,.6,1.2-3.07,.62-6.13,.55-9.19-.04,.2-.4,.41-.79,.61-1.19,2.66,0,5.32,.02,7.98,.02Z"/>
  <path class="cls-14" d="M147.62,130.72c-1.12,.26-1.68-.3-1.7-1.21-.04-1.64,1.45-1.37,2.4-1.67,1.19-.37,1.72,.39,1.72,1.42,0,1.78-1.75,.84-2.42,1.46Z"/>
  <path class="cls-11" d="M177.95,131.59c-.45-.72-.9-1.45-.82-2.36-.11-.24-.23-.48-.34-.71-.07-.23-.14-.46-.22-.69-.16-.41-.31-.81-.47-1.22,0,0-.09-.17-.09-.17-.11-.79,.19-1.7-.67-2.27-.16-.1-.2-.23-.11-.39,0-.51,.02-1.03,.03-1.54-.04-.15-.01-.28,.1-.4,2.31,3.11,2.81,6.96,4.25,10.42-.38,.27-.76,.54-1.14,.81,0,0-.07-.17-.07-.18,.02-.5-.02-.97-.47-1.31Z"/>
  <path class="cls-14" d="M278.38,134.11c-.85,2.53-2.53,4.47-4.37,6.31-.3-.29-.61-.58-.91-.87,1.45-2.12,2.91-4.25,4.36-6.37,.31,.31,.61,.62,.92,.94Z"/>
  <path class="cls-13" d="M142.27,131.22c-1.11,.14-1.97,.15-2.05-1.02-.11-1.48,.97-1.58,2.05-1.64,.96-.05,1.92-.11,1.97,1.26,.05,1.69-1.32,1.17-1.96,1.39Z"/>
  <path class="cls-14" d="M287.23,94.52c1.73-.71,.18-2.75,1.47-3.64,.39,2.11-.1,4.13-.59,6.16-.44,0-.87-.02-1.31-.02,0-.86-.05-1.72,.43-2.49Z"/>
  <path class="cls-11" d="M278.38,134.11c-.31-.31-.61-.62-.92-.94,.32-.65,.63-1.3,.94-1.95,.16,.13,.32,.26,.48,.38-.02,.58-.04,1.16-.06,1.74l-.45,.77Z"/>
  <path class="cls-14" d="M288.72,88.41c-.83-.78-.85-1.43,.32-1.87-.11,.62-.21,1.25-.32,1.87Z"/>
  <path class="cls-12" d="M84.15,180.19c1-.77,1.82,.15,2.72,.3-.96,.42-1.84,.05-2.72-.3Z"/>
  <path class="cls-14" d="M281.31,126.59c.06-1.02-.33-2.12,.5-3.02,.1,1.05-.09,2.05-.5,3.02Z"/>
  <path class="cls-13" d="M175.35,124.18c.86,.57,.55,1.48,.67,2.27-.22-.76-.44-1.51-.67-2.27Z"/>
  <path class="cls-14" d="M278.83,133.34c.02-.58,.04-1.16,.06-1.74,.24,.01,.48,.02,.72,.03-.05,.67-.24,1.27-.78,1.71Z"/>
  <path class="cls-11" d="M273.37,141.13c-.39,.4-.78,.8-1.17,1.2-.39-.23-.78-.46-1.17-.69,.42-.43,.83-.86,1.25-1.28,.36,.26,.73,.52,1.09,.77Z"/>
  <path class="cls-13" d="M175.27,122.24c0,.51-.02,1.03-.03,1.54-.17-.47-.34-.94-.51-1.42,.17-.09,.35-.13,.53-.12Z"/>
  <path class="cls-13" d="M176.11,126.61c.16,.41,.31,.81,.47,1.22-.16-.41-.31-.81-.47-1.22Z"/>
  <path class="cls-13" d="M177.95,131.59c.44,.33,.48,.81,.47,1.31-.15-.44-.31-.87-.47-1.31Z"/>
  <path class="cls-13" d="M179.67,135.89c.49,.3,.6,.76,.56,1.29-.19-.43-.37-.86-.56-1.29Z"/>
  <path class="cls-14" d="M105,179.08c.41,.07,.82,.14,1.22,.21-.41-.07-.82-.14-1.22-.21Z"/>
  <path class="cls-12" d="M92.75,180c.23-.09,.47-.18,.7-.27-.23,.09-.47,.18-.7,.27Z"/>
  <path class="cls-12" d="M82.17,179.74c.24,.09,.48,.18,.72,.27-.24-.09-.48-.18-.72-.27Z"/>
  <path class="cls-13" d="M187.71,179.3c.12-.2,.28-.23,.46-.08,0,0-.21,.17-.21,.17l-.25-.09Z"/>
  <path class="cls-11" d="M273.93,140.48c-.19,.22-.37,.43-.56,.65-.36-.26-.72-.52-1.09-.77,.19-.19,.38-.37,.57-.56,.36,.23,.72,.46,1.08,.69Z"/>
  <path class="cls-11" d="M273.1,139.54c.3,.29,.61,.58,.91,.87,0,0-.08,.07-.08,.07-.36-.23-.72-.46-1.08-.69,.05-.12,.13-.2,.25-.25Z"/>
  <path class="cls-13" d="M180.43,137.76c.13,.26,.25,.52,.38,.78-.13-.26-.25-.52-.38-.78Z"/>
  <path class="cls-14" d="M280.1,130.36c.09-.19,.17-.39,.26-.58-.09,.19-.17,.39-.26,.58Z"/>
  <path class="cls-13" d="M176.79,128.52c.11,.24,.23,.48,.34,.71-.11-.24-.23-.48-.34-.71Z"/>
  <path class="cls-10" d="M171.05,122.95c.19-.1,.38-.19,.56-.29-.19,.1-.38,.19-.56,.29Z"/>
  <path class="cls-5" d="M256.28,113.88c2.42,2.34,2.43,4.3-.05,6.54-3.21,2.91-3.97,6.79-4.47,10.81-.51,4.14-2.28,7.44-6.02,9.7-3.2,1.93-6.35,4.05-8.41,7.35-.86,1.37-2.47,2.09-3.67,1.75-2.9-.84-5.66-.32-8.73,.3,1.16-6.3,2.21-12.26,3.38-18.2,.25-1.26,.11-2.43,.01-3.65,.37-.53,.77-1.04,.66-1.75,.96-.8,.92-2.03,1.13-3.07,1.25-6.24,3.43-12.29,4.5-18.53,.96-5.64,4.05-7.62,9.17-8.08,1.8-.16,2.66-.08,3.29,1.94,1.58,5.09,3.43,10.12,7.6,13.82,.37,.58,.71,1.23,1.59,.94v.13Z"/>
  <path class="cls-6" d="M228.99,126.74c.11,.71-.29,1.22-.66,1.75-1.54,.28-1.31,1.62-1.49,2.63-1.08,6.03-2.16,12.07-3.14,18.13-.46,2.83-3.17,2.46-4.52,3.66-4.84-6.07-2.32-12.51-1.24-18.87,.41-2.42,1.31-4.75,1.19-7.25,.08-.23,.17-.46,.25-.7,1.49-7.43,2.97-14.86,4.46-22.29,.45-2.05,.89-4.1,1.34-6.15,2.13-6.07,4.12-12.21,8.37-17.25,1.79-2.12,3.74-4.05,6.5-4.89,4.1-1.12,7.64-.17,10.64,2.84,.64,.64,1.66,1.18,1.56,2.14-.13,1.23-1.46,.72-2.22,1.09-.45,.22-.91,.44-1.37,.66-5.62-.15-8.75,3.03-10.59,7.93-.6,1.6-1.12,3.24-1.68,4.86-3.68,9.63-5.95,19.65-8.21,29.67-.2,.91-.07,1.6,.81,2.04Z"/>
  <path class="cls-6" d="M189.97,115.53c-.03-1.02-.06-2.04-.09-3.06-.27-5.69-.38-11.36,.72-17,.9-4.63,3.1-8.32,7.06-10.92,5.66-2.08,10.18-1.32,13.29,2.21,2.16,2.46,1.99,3.13-1.09,3.87-1.59,.38-3.23,.97-4.81,.88-3.81-.22-4.93,2.28-5.71,5.17-1.26,4.64-.82,9.37-.41,14.06,1.21,13.67,3.31,27.26,3.69,41.01,.02,.82,.06,1.65-.04,2.46-.18,1.42,.39,3.87-1.47,3.73-1.76-.12-4.22-.65-4.74-3.5-1.16-6.34-2.55-12.64-3.87-18.95-.19-.9-.47-1.77-.7-2.66,.16-.74,.11-1.46-.22-2.14-.45-3.83-.91-7.66-1.36-11.49-.08-1.22-.16-2.44-.24-3.66Z"/>
  <path class="cls-6" d="M264.73,76.78c.66-.53,.93-1.27,1.25-2.02,3.5-8.08,11.51-9.89,18.43-4.19-.09,2.01-3.02,2.62-2.45,4.96,0,0,.02-.04,.02-.04-1.78-.2-3.32,.18-4.35,1.81-1.95,.58-1.75,2.26-1.86,3.74-.5,6.68,.98,13.26,1.02,19.93,.02,3.51-.01,7-1.17,10.32-.81,2.33-2.16,4.39-5.03,5.63-1.26-13.63-7.34-26.29-5.87-40.13Z"/>
  <path class="cls-6" d="M216.04,106.9c-.48,15.48-3.64,30.75-3.79,46.25-.02,1.92-1.37,1.6-2.39,2.08-1.5,.7-2.34,.06-2.95-1.18-1.44-2.9-1.83-6.06-2.12-9.23-.82-8.76,.44-17.4,1.71-26.02,.53-3.57,.75-7.14,.96-10.72,.11-1.88,.56-3.16,2.73-3.22,1.92-.05,3.72-1.82,5.75-.4,0,.81-.35,1.64,.11,2.43Z"/>
  <path class="cls-2" d="M261.02,109.45c1.27-2.49,1.97-5.39,5.07-7.01,1.6,6.38,2.93,12.65,3.4,19.07,.19,2.65,.24,5.34,.02,7.98-.47,5.49-3.93,9.69-9.02,11.04,.94-9.63-2.99-19.13-.03-28.71,.15-.16,.19-.33,.11-.54,.08-.4,.16-.8,.25-1.2,.07-.21,.14-.43,.21-.64Z"/>
  <path class="cls-6" d="M287.23,94.52c-.48,.77-.43,1.64-.43,2.49-1.14,5.95-3.31,11.56-5.67,17.1-1.4,3.28-3.53,6.01-6.38,8.11-.85,.62-2.21,2.24-3.05,.9-.7-1.13-1.56-3.46-.05-4.53,8.04-5.68,6.84-13.96,6.55-22.03-.03-.92-.2-1.83-.31-2.75-.55-4.79-.55-4.81,4.08-5.47,1.69-.24,3.71-1.89,4.9-.7,1.18,1.17,.28,3.52,.39,5.35,.03,.51-.02,1.02-.03,1.54Z"/>
  <path class="cls-6" d="M179.62,132.26c-1.45-3.46-1.94-7.31-4.25-10.42,1.34-.28,2.67-.28,3.72-1.56,1.07-1.3,2.69-1.19,4.18-.46,1.66,4.57,3.35,9.14,4.97,13.72,.25,.71,.44,1.35,1.3,1.46,1.33,3.22,2.54,6.46,3,9.95,.11,.8,.38,1.5-.27,2.29-2.94,3.54-4.05,3.53-6.01-.51-2.32-4.77-4.44-9.64-6.64-14.47Z"/>
  <path class="cls-2" d="M259.12,136.75c-.27,5.87-1.78,11.52-5.51,16.45-1.38,1.83-3.05,3.33-5.12,4.34-1.61,.79-3.65,1.55-4.97,.55-1.12-.85,.53-2.5,.87-3.81,1.52-5.88,3.67-11.51,6.76-16.77,1.48-2.52,3.38-4.61,5.71-6.37,1.26-.95,1.8-.69,1.92,.79,.13,1.53,.21,3.07,.33,4.83Z"/>
  <path class="cls-7" d="M219.69,155.95c1.18,.58,2.37,1.16,3.81,1.87-3.58,3.57-7.24,6.71-11.83,8.59-6.28,3.49-12.66,4.13-19.55,.63,8.45-6.15,16.71-11.82,27.57-11.09Z"/>
  <path class="cls-7" d="M211.68,168.6c2.37,2.63,5.23,4.54,8.65,5.64-3.08,3.73-13.5,4.95-24.05,2.94-3.51-1.15-5.89-3.89-8.54-6.22-.64-.57-1.67-1.31-1.24-2.25,.4-.87,1.62-.62,2.5-.82,.74-.17,1.42-.06,2.06,.31,6.47,3.7,13.06,3.31,19.71,.57,.28-.11,.6-.11,.9-.16Z"/>
  <path class="cls-7" d="M93.04,166.41c8.37-4.61,16.3-9.14,26.01-7.74,.2,.03,.41,0,.61,.03,1.8,.29,4.23,.38,4.73,2.08,.35,1.19-2.14,1.8-3.38,2.62-5.09,3.35-10.5,5.94-16.7,6.38-3.98,.28-7.7-.46-11.26-3.38Z"/>
  <path class="cls-1" d="M229,166.1c-3.15,.44-6.29,.88-9.42-.14-1.51-.49-1.85-1.05-.45-2.2,2.28-1.88,4.47-3.88,6.69-5.84,3.05-2.32,5.91-4.89,9.42-6.54,2.16-.47,4.36-.8,6.46-1.45,2.28-.7,2.16,.19,1.65,1.89-1.22,4.09-2.5,8.1-6.49,10.44-2.62,1.28-5.25,2.56-7.87,3.85Z"/>
  <path class="cls-7" d="M199.41,159.7c-8.11,8.6-22.75,9.6-30.65,6.18,7.44-7.71,23.98-11.04,30.65-6.18Z"/>
  <path class="cls-7" d="M173.64,159.65c-7.03,7.39-25.78,12.79-31.22,6.68,9.68-5.38,19.04-11.6,31.22-6.68Z"/>
  <path class="cls-1" d="M248.07,166.1c-2.11,4.03-6.21,4.76-10,5.65-5.16,1.21-10.4,2.15-15.76,1.12-2.67-.51-5.12-1.44-7.13-3.28-.64-.59-2.18-1.04-1.29-2.3,.65-.93,1.82-1.25,3.04-.71,2.75,1.23,5.6,1.86,8.64,1.57,1.84-.17,3.61-.51,5.28-1.31,2.64-.62,4.86-2.04,6.95-3.68,1.84-.55,3.34,.43,4.87,1.14,1.74,.81,3.51,1.47,5.4,1.81Z"/>
  <path class="cls-7" d="M140.81,178.38c-2.66,0-5.32-.02-7.98-.02-4-.85-8.09-1.28-11.87-3.04-2.26-1.05-4.36-2.31-6.09-4.08-.54-.55-1.96-1.14-1.05-2.04,.75-.74,2.15-1.84,3.29-.92,5.2,4.19,10.64,2.39,16.1,.93,.86-.23,1.77-.81,2.6,.02,2.88,2.9,6.34,5.03,9.97,7.43-1.54,1.52-3.5,.99-4.97,1.73Z"/>
  <path class="cls-2" d="M273.1,139.54c-.12,.05-.2,.13-.25,.25-.19,.19-.38,.37-.57,.56-.42,.43-.83,.86-1.25,1.28-2.65,2.33-5.51,4.31-9.16,4.63-.83,.07-2.05,.75-2.46-.36-.39-1.05,.27-2.19,.93-3.1,.26-.36,.87-.5,1.34-.69,6.54-2.6,9.16-7.85,9.65-14.45,.1-1.39,.34-2.12,1.81-2.63,2.99-1.05,5.17-3.24,6.94-5.84,.21,.02,.42,.04,.62,.06-.05,1.52-.1,3.04-.15,4.55-.1,.32-.2,.64-.3,.96-.61,2.15-1.23,4.3-1.84,6.46-.32,.65-.63,1.3-.94,1.95-1.45,2.12-2.91,4.25-4.36,6.37Z"/>
  <path class="cls-7" d="M148.12,160.67c-.88,1.7-2.38,2.06-3.59,2.66-5.79,2.89-11.94,4.71-18.28,5.87-.7,.13-1.43,.12-2.14,.1-1.96-.06-4.49-.09-5.06-2-.46-1.55,2.12-2.02,3.38-2.89,2.77-1.92,5.75-3.48,8.85-4.82,5.8-2.51,11.26-1.33,16.84,1.08Z"/>
  <path class="cls-7" d="M185.69,178.38c-8.09,.32-15.06-2.25-20.67-8.18-.62-.66-2.03-1.42-1.1-2.43,.7-.76,1.91-1.3,3.33-.66,4.69,2.11,9.7,2.32,14.74,1.96,1.29-.09,2.37-.08,3.19,1.18,1.33,2.06,2.96,3.87,5.09,5.16,1.53,.93,1.02,1.63-.26,2.24-.2,.04-.4,.09-.6,.13-1.09-.15-2.14-.02-3.12,.51-.2,.03-.41,.06-.61,.09Z"/>
  <path class="cls-7" d="M169.64,176.19c-5.12,2.43-10.09,1.95-15.01,1.3-6.39-.84-11.73-3.95-16.45-8.25-.4-.36-.85-.68-.6-1.2,.14-.29,.62-.47,.99-.56,.9-.24,1.85-.36,2.66,.24,5.47,3.99,11.41,3.25,17.35,1.61,2.11-.58,3.53-.55,4.88,1.45,1.47,2.17,3.86,3.51,6.18,5.41Z"/>
  <path class="cls-2" d="M267.65,146.25c-1.65,8.29-10.48,16.73-18.36,17.91-2.75,.41-4.94-1.05-7.27-2.05-.49-.21-.89-.6-.67-1.19,.23-.63,.77-.97,1.43-.94,7.67,.45,11.75-4.22,14.81-10.35,.42-.83,.86-1.67,2.03-1.56,2.75,.25,5.2-.9,8.04-1.81Z"/>
  <path class="cls-3" d="M225.3,92.73c-.48,2.44-1.93,3.65-4.35,4.51-6.27,2.22-12.44,4.75-18.57,7.34-2.1,.89-2.77,.29-2.34-1.67,.51-2.28-.94-5.33,2.38-6.6,6.52-1.5,13.04-3.06,19.59-4.43,1.02-.21,2.85-1.85,3.28,.85Z"/>
  <path class="cls-7" d="M70.37,168.74c5.8,2.3,11.09,2.33,16.37,.36,.82-.31,1.67-.33,2.2,.5,1.9,2.98,4.51,5.19,7.76,6.81-6.36,4.99-20.4,2.92-26.34-7.67Z"/>
  <path class="cls-7" d="M118.48,176.19c-4.12,2.16-8.06,2.52-12.22,1.6-5.46-1.22-10.77-2.7-14.62-7.17-.63-.73-1.82-1.55-1.1-2.58,.92-1.31,1.8,.09,2.57,.54,4.75,2.8,9.78,3.66,15.09,2.14,2.24-.64,3.94-.6,5.54,1.46,1.16,1.48,2.91,2.5,4.74,4.01Z"/>
  <path class="cls-6" d="M256.28,113.88s0-.13,0-.13c.83-1.5-.65-1.68-1.33-2.32-2.02-3.19-4.04-6.37-5.33-9.97-1.76-4.91-1.83-4.88,3.2-6.33,.29-.08,.54-.29,.8-.44,.4-.03,.8-.06,1.21-.1,.59-.09,1.19-.18,1.78-.27,1.16,.87,.31,2.43,1.16,3.41,.63,2.61,1.46,5.15,2.96,7.42,.04,.45,.07,.91,.11,1.37-.21,.31-.43,.63-.64,.94-.16,.43-.31,.86-.47,1.29-.72,1.14-.91,2.41-.96,3.72-.08,.23-.16,.46-.23,.68-.27,.16-.54,.32-.82,.48-.55-.33-1.12-.78-1.44,.25Z"/>
  <path class="cls-13" d="M253.62,94.69c-.27,.15-.52,.36-.8,.44-5.02,1.45-4.96,1.42-3.2,6.33,1.29,3.6,3.31,6.78,5.33,9.97-.09,.46-.17,.92-.26,1.38-4.17-3.7-6.03-8.73-7.6-13.82-.63-2.03-1.49-2.1-3.29-1.94-5.12,.47-8.21,2.45-9.17,8.08-1.07,6.24-3.24,12.28-4.5,18.53-.21,1.05-.17,2.27-1.13,3.07-.88-.44-1.02-1.13-.81-2.04,2.26-10.02,4.54-20.04,8.21-29.67,.4,.06,.81,.11,1.21,.17-.16,1.71,.92,1.42,1.94,1.19,4.64-1.06,9.27-2.12,13.91-3.18,.06,.5,.11,.99,.17,1.49Z"/>
  <path class="cls-3" d="M253.45,93.2c-4.63,1.06-9.27,2.13-13.91,3.18-1.02,.23-2.1,.52-1.94-1.19,.56-1,1.22-1.7,2.46-2.07,6.86-2.08,13.64-4.41,20.64-5.98,.94-.21,2.24-1.43,2.7,.39,.42,1.62,.98,3.63-1.8,3.91-.74-.02-1.46,.04-2.04,.59-1.22,0-2.44,.03-3.51,.72-.88,0-1.78-.09-2.56,.48l-.04-.03Z"/>
  <path class="cls-4" d="M258.57,95.68c-.42-3.42,2.44-2.46,4.09-2.98,1.92-.61,1.8,.98,2,2.14,.09,.5,.13,1.01,.24,1.51q1.04,4.55-3.29,7.39c-1.01-2.69-2.03-5.38-3.04-8.06Z"/>
  <path class="cls-3" d="M262.71,82.43c.18,.87,.15,1.58-.93,1.89-7,1.97-13.99,3.97-21.05,5.97-.3-1.4,.58-2.17,1.19-3.06,1.09-.22,2.22-.31,3.26-.68,2.79-1,5.99-.53,8.52-2.42,.39-.02,.78-.04,1.18-.07,2.62-.55,5.23-1.09,7.85-1.64Z"/>
  <path class="cls-7" d="M157.46,156.94c-4.83,3.67-9.37,3.17-14.21-.13,4.83-1.96,9.35-2.47,14.21,.13Z"/>
  <path class="cls-6" d="M191.14,155.91c-1.1-.33-2.77,.71-3.32-.61-.62-1.49,.77-2.49,1.89-3.41,1.21-1,2.01-3.27,3.6-2.79,1.13,.34,.78,2.71,1.26,4.12,1.35,4.06-1.9,2.23-3.42,2.69Z"/>
  <path class="cls-7" d="M168.29,156.06c4.99-1.48,9.38-1.55,14.04,.28-4.68,3.78-9.07,1.81-14.04-.28Z"/>
  <path class="cls-14" d="M189.54,135.01c-.86-.12-1.05-.75-1.3-1.46-1.63-4.59-3.31-9.15-4.97-13.72,.16-.81-.74-2.11,.57-2.32,1.23-.2,1.06,1.28,1.32,2.03,1.05,2.98,2.01,5.99,2.89,9.02,.34,1.18,.94,1.95,2.05,2.38,.54,.21,1.11,.56,1.47-.26,.33,.69,.38,1.41,.22,2.14-1.2,.26-2.41,.52-2.24,2.18Z"/>
  <path class="cls-12" d="M225.3,92.73c-.43-2.7-2.27-1.06-3.28-.85-6.55,1.37-13.06,2.93-19.59,4.43,.2-.33,.39-.66,.59-.99,7.63-1.84,15.27-3.68,22.9-5.52-.16,.99,.36,2.12-.62,2.93Z"/>
  <path class="cls-2" d="M257.44,121.5c1.31,4.63,1.28,8.25-3.94,9.73,.21-3.58,.96-6.87,3.94-9.73Z"/>
  <path class="cls-3" d="M225.91,89.8c-7.63,1.84-15.27,3.68-22.9,5.52-.49-.06-.97-.12-1.74-.22,1.33-1.4,2.91-1.31,4.28-1.65,6.34-1.56,12.69-3.05,19.05-4.5,.49-.11,2.08-1.25,1.3,.85Z"/>
  <path class="cls-1" d="M225.85,156.23c-2.13,.98-3.39-1.54-5.33-1.31,2.94-3.07,6.68-3.69,10.68-3.53-1.78,1.62-3.57,3.23-5.35,4.85Z"/>
  <path class="cls-3" d="M254.87,84.06c-.39,.02-.78,.04-1.18,.07-.41-.74-1-.4-1.58-.28-3.14,.65-6.29,1.27-9.44,1.91,1.56-1.94,4.04-1.35,6-2.2,4.78-.86,9.31-2.77,14.18-3.27,.39,.44,.1,.82-.12,1.2-2.7,.61-5.76,.13-7.86,2.58Z"/>
  <path class="cls-7" d="M107.4,157.53c-3.45,2.64-6.64,2.1-10.43-.06,3.75-1.07,6.94-1.33,10.43,.06Z"/>
  <path class="cls-7" d="M122.73,157.25c3.01-1.03,5.83-1.37,8.79,0-3.8,3.23-4.75,3.24-8.79,0Z"/>
  <path class="cls-2" d="M246.56,142.51c-.53,3.95-2.43,6.06-6.28,6.03,.73-2.48,2.44-4.16,6.28-6.03Z"/>
  <path class="cls-6" d="M213.55,146.85c2.31,1.97,2.89,3.72,3.1,5.68,.11,1.08-.15,1.77-1.42,1.81-1.13,.04-1.73-.29-1.69-1.53,.05-1.7,.01-3.4,.01-5.95Z"/>
  <path class="cls-14" d="M225.85,156.23c1.78-1.62,3.57-3.23,5.35-4.85,1.35,0,2.7,0,4.04-.01-3.5,1.66-6.37,4.23-9.42,6.54,0-.56,.01-1.12,.02-1.68Z"/>
  <path class="cls-14" d="M237.8,163.15c-2.1,1.64-4.31,3.07-6.95,3.68-.4-.8-1.15-.7-1.85-.73,2.62-1.28,5.25-2.56,7.87-3.85,.31,.3,.62,.6,.94,.9Z"/>
  <path class="cls-11" d="M242.67,85.76c3.15-.63,6.29-1.26,9.44-1.91,.58-.12,1.16-.46,1.58,.28-2.53,1.88-5.73,1.42-8.52,2.42-1.04,.37-2.17,.46-3.26,.68,.25-.49,.51-.98,.76-1.47Z"/>
  <path class="cls-13" d="M258.57,95.68c1.01,2.69,2.03,5.38,3.04,8.06,0,.65-.2,1.18-.88,1.41-1.51-2.26-2.33-4.8-2.96-7.42,.88-.45,.71-1.3,.81-2.05Z"/>
  <path class="cls-13" d="M222.75,102.58c-.38-.68-1.06-.42-1.62-.52-.27-.23-.54-.47-.81-.7,1.22-.53,2.94-.43,3.05-2.38,.61-.44,1.21-.89,1.82-1.33-.45,2.05-.89,4.1-1.34,6.15-.37-.4-.73-.81-1.1-1.21Z"/>
  <path class="cls-3" d="M223.36,98.98c-.11,1.95-1.83,1.85-3.05,2.38-1.32,.11-2.64,1.71-3.95-.03,2.3-.87,4.54-1.94,7-2.35Z"/>
  <path class="cls-7" d="M81.06,157.81c-2.41,.47-4.77,2.79-7.74-.12,2.93-.24,5.32-.78,7.74,.12Z"/>
  <path class="cls-12" d="M254.87,84.06c2.1-2.46,5.16-1.97,7.86-2.58,0,.32,0,.63-.01,.95-2.62,.55-5.23,1.09-7.85,1.64Z"/>
  <path class="cls-6" d="M204.63,153.82c.97,.8,1.97,1.5,1.44,2.76-.24,.57-1.47,1.13-1.82,.71-.88-1.05-.24-2.22,.38-3.47Z"/>
  <path class="cls-14" d="M216.37,101.34c1.3,1.73,2.63,.14,3.95,.03,.27,.23,.54,.47,.81,.7-1.27,.43-2.54,.86-3.81,1.29-.55-1.16-1.8-.47-2.64-.98,.33-.78,1.05-.85,1.7-1.04Z"/>
  <path class="cls-13" d="M258.77,112.47c.05-1.31,.24-2.58,.96-3.72,.54,.04,1.03,.15,1.3,.7-.07,.21-.14,.43-.21,.64-.39,.05-.85,.09-.8,.6,.02,.21,.36,.4,.55,.59,.07,.2,.04,.38-.11,.54-.56,.22-1.13,.44-1.69,.65Z"/>
  <path class="cls-14" d="M216.79,116.75c-.14,2.36,.02,4.75-.71,7.05,.23-2.35-.89-4.84,.71-7.05Z"/>
  <path class="cls-14" d="M217.2,104.43c.02,.41,.04,.83,.05,1.24-.41,.41-.81,.82-1.22,1.23-.46-.79-.12-1.62-.11-2.43,.42-.01,.85-.03,1.27-.04Z"/>
  <path class="cls-13" d="M253.49,93.23c.78-.57,1.68-.47,2.56-.48-.72,.86-1.66,.55-2.56,.48Z"/>
  <path class="cls-13" d="M259.56,92.03c.58-.55,1.3-.61,2.04-.59-.51,.8-1.28,.66-2.04,.59Z"/>
  <path class="cls-13" d="M256.6,94.33c-.59,.09-1.19,.18-1.78,.27,.5-.72,1.1-.79,1.78-.27Z"/>
  <path class="cls-13" d="M185.69,178.38c.2-.03,.41-.06,.61-.09-.2,.03-.41,.06-.61,.09Z"/>
  <path class="cls-13" d="M189.41,177.78c.2-.04,.4-.09,.6-.13-.2,.04-.4,.09-.6,.13Z"/>
  <path class="cls-13" d="M219.39,126.09c-.08,.23-.17,.46-.25,.7,.08-.23,.17-.46,.25-.7Z"/>
  <path class="cls-14" d="M280.25,124.77c.1-.32,.2-.64,.3-.96-.1,.32-.2,.64-.3,.96Z"/>
  <path class="cls-14" d="M280.7,119.25c-.21-.02-.42-.04-.62-.06,.25-.45,.46-.42,.62,.06Z"/>
  <path class="cls-13" d="M257.72,113.64c.27-.16,.54-.32,.82-.48-.27,.16-.54,.32-.82,.48Z"/>
  <path class="cls-13" d="M260.19,107.46c.21-.31,.43-.63,.64-.94,0,.46-.2,.79-.64,.94Z"/>
  <path class="cls-14" d="M282.41,86.49c.21-.02,.42-.04,.63-.06-.21,.02-.42,.04-.63,.06Z"/>
  <path class="cls-14" d="M285.32,85.82c.29-.05,.58-.1,.87-.15-.29,.05-.58,.1-.87,.15Z"/>
  <path class="cls-6" d="M150.52,118.04c-.44-.08-1.4-.11-2.22-.46-1.2-.5-2.97-.66-3.28-1.99-.35-1.52,1.59-1.48,2.46-2.19,2.9-2.37,4.27-5.69,5.67-8.98,2.37-5.57,5.54-10.33,11.93-11.8,4.32-1,8.14,.11,11.33,3.1,1.22,1.14,1.76,2.39-.79,2.81-1.7,.28-3.32,1-4.99,1.48-3.98,1.14-6.8,3.5-8.47,7.38-1.21,2.81-2.71,5.52-4.96,7.7-1.73,1.67-3.66,2.96-6.68,2.95Z"/>
  <path class="cls-3" d="M187.53,100.16c-.04,2.56,.79,5.63-.34,7.55-1.23,2.09-4.68,1.29-7.15,1.73-5.74,1.02-11.54,1.66-17.41,1.95,.92-5.96,3.45-7.86,11.52-8.77,1.18,.43,1.71-1.09,2.68-.98,3.09,.35,5.91-.65,8.76-1.56,.47-.14,.94-.28,1.41-.43,.17,.17,.35,.34,.52,.51Z"/>
  <path class="cls-3" d="M145.93,107.02c1.45-.22,2.79-1.16,4.57-.83-1.42,3.5-3.23,6.23-6.99,7.3-3.28,.94-3.46,1.77-1.47,4.44,.6,.8,1.81,1.56,1.44,2.54-.4,1.09-1.81,.46-2.75,.68-3.86,.89-7.59,.14-11.17-1.21-3.99-1.52-4.25-3.68-.96-6.51,2.29-1.97,4.96-3.24,7.84-4.09,.41,.19,.82,.37,1.22,.56-2.48,1.18-5.17,2.04-7.03,4.24-.82,.96-1.68,2.13-.34,3.19,1.74,1.37,3.74,2.08,6.01,1.48-.04-.87-.52-.84-.88-.92-1.56-.35-3.94-.24-4.15-1.87-.23-1.78,2.15-2.41,3.56-3.34,.34-.22,.74-.34,1.11-.52,3.06-1.44,6.34-2.19,9.56-3.12,1.45-.42,2-1,.41-2.02Z"/>
  <path class="cls-12" d="M145.93,107.02c1.59,1.02,1.04,1.6-.41,2.02-3.22,.93-6.51,1.67-9.56,3.12-.37,.17-.77,.3-1.11,.52-1.42,.93-3.79,1.55-3.56,3.34,.21,1.63,2.59,1.52,4.15,1.87,.35,.08,.84,.05,.88,.92-2.27,.6-4.28-.12-6.01-1.48-1.34-1.05-.47-2.22,.34-3.19,1.86-2.2,4.54-3.06,7.03-4.24,1.88,.01,3.54-.61,5-1.79,0,0-.03,.02-.03,.02,.94-.04,2.09,.49,2.51-.94,.26-.06,.52-.11,.79-.17Z"/>
  <path class="cls-3" d="M185.59,100.07c-2.85,.91-5.67,1.91-8.76,1.56-.98-.11-1.5,1.41-2.68,.98-.48-1.47-1.87-.24-2.95-1.21,5.56-1.35,10.76-3.14,16.44-3.88-.44,1.36-1.98,1.31-2.04,2.54Z"/>
  <path class="cls-3" d="M142.67,108.11c-1.46,1.18-3.11,1.8-5,1.79-.41-.19-.82-.37-1.22-.56,1.98-.87,4.04-1.38,6.22-1.23Z"/>
  <path class="cls-3" d="M145.14,107.18c-.42,1.43-1.57,.9-2.51,.94,.53-1.13,1.76-.38,2.51-.94Z"/>
  <path class="cls-9" d="M187.53,100.16c-.17-.17-.35-.34-.52-.51,.43-.1,.58,.1,.52,.51Z"/>
  <path class="cls-12" d="M286.95,76.5c2.3-2.76,5.82-2.01,8.74-2.87,5.57-1.63,11.26-3.03,16.99-3.95,5.41-.88,10.49-3.03,15.92-3.75,.73-.1,1.49-.49,1.3,.8-13.51,3.14-27.02,6.28-40.52,9.43-.43,.05-.85,.1-1.28,.15-.38,.06-.76,.12-1.14,.19Z"/>
  <path class="cls-8" d="M288.09,76.31c.43-.05,.85-.1,1.28-.15-.35,.73-.71,1.36-1.28,.15Z"/>
  <path class="cls-13" d="M189.97,115.53c.08,1.22,.16,2.44,.24,3.66-1.05,.7-.54,1.89-.87,2.81-1.72-1.89-.96-4.24-1.21-6.4,.61-.02,1.23-.05,1.84-.07Z"/>
  <path class="cls-11" d="M189.34,122c.33-.92-.18-2.11,.87-2.81,.45,3.83,.91,7.66,1.36,11.49-.36,.82-.93,.47-1.47,.26-.25-2.98-.51-5.96-.76-8.94Z"/>
  <path class="cls-11" d="M254.69,112.81c.09-.46,.17-.92,.26-1.38,.68,.64,2.16,.81,1.33,2.32-.89,.29-1.22-.36-1.59-.94Z"/>
  <path class="cls-11" d="M260.57,111.29c-.19-.2-.54-.38-.55-.59-.05-.51,.41-.55,.8-.6-.08,.4-.16,.8-.24,1.2Z"/>
</svg>