<svg width="24" height="24" viewBox="0 0 24 24" fill="none" xmlns="http://www.w3.org/2000/svg">
<g clip-path="url(#clip0_81_53)">
<path d="M20.5196 4.14216L14.049 0.475495C13.402 0.151966 12.6471 -0.0637207 11.7843 -0.0637207C11.0294 -0.0637207 10.1667 0.151966 9.51961 0.475495L3.04902 4.14216C1.97059 4.89706 1 6.51471 1 7.91667V15.25C1 16.7598 1.97059 18.3775 3.26471 19.1324L9.73529 22.799C10.3824 23.1226 11.1373 23.3382 12 23.3382C12.7549 23.3382 13.6176 23.1226 14.2647 22.799L20.7353 19.1324C22.0294 18.3775 23 16.7598 23 15.25V7.91667C22.7843 6.51471 21.8137 4.89706 20.5196 4.14216Z" fill="#F76A89"/>
<mask id="mask0_81_53" style="mask-type:luminance" maskUnits="userSpaceOnUse" x="5" y="4" width="15" height="17">
<path d="M13.7231 4L20 8.40486L11.2773 20.8345L5 16.4296L13.7231 4Z" fill="white"/>
</mask>
<g mask="url(#mask0_81_53)">
<mask id="mask1_81_53" style="mask-type:luminance" maskUnits="userSpaceOnUse" x="5" y="4" width="15" height="17">
<path d="M13.7231 4L20 8.40486L11.2773 20.8345L5 16.4296L13.7231 4Z" fill="white"/>
</mask>
<g mask="url(#mask1_81_53)">
<mask id="mask2_81_53" style="mask-type:luminance" maskUnits="userSpaceOnUse" x="5" y="4" width="15" height="17">
<path d="M13.7231 4L20 8.40486L11.2773 20.8345L5 16.4296L13.7231 4Z" fill="white"/>
</mask>
<g mask="url(#mask2_81_53)">
<path d="M6.46703 16.6571C6.93484 16.5108 7.43903 16.23 7.60353 16.1414C8.36239 15.7333 9.06431 15.2299 9.79351 14.7751C10.5223 14.32 11.2756 13.9151 12.0195 13.4919C13.3683 12.7252 14.7168 11.958 16.0653 11.1908C16.3962 11.0038 16.7284 10.8179 17.0653 10.6424C17.3635 10.4862 17.6664 10.3454 17.9681 10.1987C18.47 9.95507 18.984 9.68419 19.3597 9.26265C19.5361 9.06374 19.7192 8.80275 19.7571 8.53345C19.7733 8.41323 19.7536 8.28353 19.6567 8.20167C19.5507 8.11151 19.3902 8.09371 19.2569 8.08185C18.9386 8.05377 18.6206 8.13089 18.3256 8.2424C18.1722 8.30132 18.0223 8.37053 17.8752 8.44408C17.7475 8.50814 17.5992 8.56667 17.49 8.66118C17.4173 8.72366 17.3603 8.81303 17.4125 8.90675C17.4169 8.91387 17.4236 8.91743 17.4319 8.91782C17.8823 8.92138 18.3276 8.97081 18.7681 9.06611C18.5621 9.49438 18.0278 9.545 17.6071 9.57386C17.1215 9.6051 16.6513 9.70594 16.1961 9.87677C15.2795 10.22 14.4641 10.7752 13.6301 11.2774C11.9317 12.3024 10.1629 13.204 8.43594 14.1788C7.87125 14.4983 7.32949 14.8582 6.75293 15.1564C6.25546 15.4134 5.51361 15.6957 5.55355 16.3767C5.57886 16.8137 6.00515 16.8014 6.46703 16.6571Z" fill="white"/>
</g>
</g>
</g>
</g>
<defs>
<clipPath id="clip0_81_53">
<rect width="24" height="24" fill="white"/>
</clipPath>
</defs>
</svg>
