<svg width="24" height="24" viewBox="0 0 24 24" fill="none" xmlns="http://www.w3.org/2000/svg">
<g clip-path="url(#clip0_81_53)">
<path d="M20.5196 4.14216L14.049 0.475495C13.402 0.151966 12.6471 -0.0637207 11.7843 -0.0637207C11.0294 -0.0637207 10.1667 0.151966 9.51961 0.475495L3.04902 4.14216C1.97059 4.89706 1 6.51471 1 7.91667V15.25C1 16.7598 1.97059 18.3775 3.26471 19.1324L9.73529 22.799C10.3824 23.1226 11.1373 23.3382 12 23.3382C12.7549 23.3382 13.6176 23.1226 14.2647 22.799L20.7353 19.1324C22.0294 18.3775 23 16.7598 23 15.25V7.91667C22.7843 6.51471 21.8137 4.89706 20.5196 4.14216Z" fill="#F76A89"/>
<mask id="mask0_81_53" style="mask-type:luminance" maskUnits="userSpaceOnUse" x="12" y="6" width="6" height="6">
<path d="M12.6349 7H17V11.0021H12.6349V7Z" fill="white" stroke="white"/>
</mask>
<g mask="url(#mask0_81_53)">
<path d="M13.2906 10.9867C13.2771 10.9867 13.2635 10.9815 13.2531 10.9711C13.2326 10.9503 13.2326 10.9167 13.2534 10.8961C13.5274 10.6237 13.856 10.2976 14.1346 10.0216C14.4495 9.70963 14.6982 9.46301 14.7359 9.42447L14.8172 9.34192C15.1357 9.01848 15.281 8.87109 15.449 8.57499C15.4997 8.48541 15.5466 8.38775 15.5919 8.29322C15.7237 8.01744 15.8602 7.73254 16.1274 7.57265C16.2099 7.52343 16.2836 7.5026 16.3531 7.50885C16.4378 7.51588 16.5318 7.57525 16.5477 7.67447C16.5628 7.7703 16.5013 7.84088 16.4471 7.90286C16.4073 7.94869 16.3698 7.99192 16.3656 8.03801C16.3607 8.09895 16.4247 8.15338 16.4854 8.16119C16.5716 8.17213 16.6526 8.11822 16.693 8.08515C16.8727 7.93984 16.9435 7.66822 16.8583 7.45364C16.7729 7.23905 16.5349 7.09036 16.305 7.10754C16.0544 7.12629 15.8406 7.30442 15.6466 7.49426L15.5893 7.55025C14.2867 8.82239 13.2734 9.8289 12.7362 10.3841C12.7156 10.4052 12.6823 10.4057 12.6612 10.3854C12.6401 10.3651 12.6396 10.3315 12.6599 10.3104C13.1979 9.75442 14.212 8.74713 15.5154 7.47447L15.5724 7.41848C15.7807 7.21484 16.0128 7.02317 16.2969 7.00181C16.5758 6.98098 16.8534 7.15442 16.9568 7.41458C17.0602 7.67447 16.9774 7.99114 16.7599 8.16744C16.6675 8.24296 16.5649 8.27812 16.4719 8.2664C16.3612 8.25234 16.2497 8.15364 16.2602 8.0289C16.2672 7.94843 16.3203 7.88723 16.3672 7.83333C16.4188 7.77395 16.4497 7.73489 16.4427 7.69114C16.4359 7.64765 16.387 7.61796 16.344 7.61431C16.2971 7.61015 16.2443 7.62655 16.1818 7.66379C15.9419 7.80702 15.8185 8.06536 15.6875 8.33905C15.6414 8.43515 15.5938 8.53463 15.5412 8.6276C15.3662 8.93541 15.2081 9.09609 14.8927 9.4164L14.8115 9.49895C14.7734 9.53775 14.5245 9.78437 14.2094 10.0969C13.9307 10.3732 13.6021 10.699 13.3281 10.9713C13.3177 10.9815 13.3042 10.9867 13.2906 10.9867Z" fill="white" stroke="white"/>
</g>
<mask id="mask1_81_53" style="mask-type:luminance" maskUnits="userSpaceOnUse" x="6" y="9" width="8" height="9">
<path d="M7 10.2041H13.4333V16.5458H7V10.2041Z" fill="white" stroke="white"/>
</mask>
<g mask="url(#mask1_81_53)">
<path d="M12.524 10.3486C12.4852 10.3574 12.3386 10.4694 12.1295 10.6689C10.3274 12.3879 8.85498 13.8397 7.49613 15.2384C7.30993 15.4298 7.13597 15.6405 7.12269 15.884C7.10915 16.1311 7.30316 16.3788 7.54613 16.4254C7.87477 16.4884 8.17816 16.241 8.45733 15.9645C9.22998 15.1988 9.98493 14.4522 10.7151 13.7304C11.4451 13.0085 12.2 12.2619 12.9727 11.4962L12.98 11.4892C13.0685 11.4015 13.2526 11.2189 13.2756 11.1028C13.2883 11.0376 13.2396 10.9241 13.1459 10.7988C12.9933 10.5949 12.724 10.3689 12.524 10.3486ZM7.65186 16.5416C7.61045 16.5416 7.56878 16.5376 7.52634 16.5296C7.22868 16.4728 7.00029 16.1806 7.0167 15.8783C7.03207 15.5999 7.21957 15.3707 7.41983 15.1645C8.77998 13.765 10.2532 12.3121 12.0563 10.5921C12.4323 10.2335 12.5039 10.24 12.5308 10.2426C12.7641 10.264 13.0594 10.5067 13.2308 10.7353C13.2972 10.8241 13.405 10.9926 13.3797 11.1231C13.3526 11.2598 13.1977 11.4225 13.0545 11.5645L13.0474 11.5715C12.2745 12.3371 11.5196 13.0837 10.7896 13.8056C10.0594 14.5278 9.30446 15.2741 8.5318 16.04C8.26618 16.3033 7.97686 16.5416 7.65186 16.5416Z" fill="white" stroke="white"/>
</g>
</g>
<defs>
<clipPath id="clip0_81_53">
<rect width="24" height="24" fill="white"/>
</clipPath>
</defs>
</svg>
