<?xml version="1.0" encoding="UTF-8"?>
<svg id="Layer_1" data-name="Layer 1" xmlns="http://www.w3.org/2000/svg" viewBox="0 0 414 200">
  <defs>
    <style>
      .cls-1 {
        fill: #f7b7d3;
      }

      .cls-2 {
        fill: #00bff3;
      }

      .cls-3 {
        fill: #fff9b8;
      }

      .cls-4 {
        fill: #fff200;
      }

      .cls-5 {
        fill: #fefefe;
      }

      .cls-6 {
        fill: #fbb040;
      }

      .cls-7 {
        fill: #c2bfbf;
      }

      .cls-8 {
        fill: #baac96;
      }

      .cls-9 {
        fill: #6e665f;
      }

      .cls-10 {
        fill: #99d0f1;
      }

      .cls-11 {
        fill: #342e2c;
      }

      .cls-12 {
        fill: #7c7677;
      }

      .cls-13 {
        fill: #514a46;
      }
    </style>
  </defs>
  <path class="cls-6" d="M135.68,18.03c1.55,3.69,3.58,7.18,5.43,10.74,4.16,7.99,8.72,15.79,13.67,23.4,5.49,8.43,11.48,16.59,18.48,24.12,4.9,5.27,10.28,10.12,16.27,14.35-.08,.66-.64,.68-1.08,.82-1.85,.6-3.75,1.12-5.56,1.81-1.4,.54-2.39,.35-3.57-.55-2.76-2.11-5.2-4.5-7.91-6.65-.28-.77-.78-1.32-1.76-1.38-.06-.37-.31-.57-.73-.6,.17-1.18-.91-1.5-1.74-2-.21-.51-.45-1-1.23-.89h0c.34-.58-.11-.97-.44-1.34-1.11-1.22-2.26-2.41-3.4-3.62-.18-.81-.7-1.4-1.49-1.82-5.09-6.21-9.72-12.7-14.08-19.33-4.64-7.05-8.82-14.33-12.92-21.65-.57-1.84-1.29-3.61-2.77-5.05-.66-.83-.74-1.87-1.28-2.77-1.17-1.95-2.08-4.03-3.09-6.06,2.95-1.1,6.04-1.52,9.21-1.54Z"/>
  <path class="cls-3" d="M346.99,53.26c-2.36,1.22-5.03,1.76-7.57,2.56-14.55,4.55-29.12,9.06-43.69,13.57-10.75,3.33-21.5,6.64-32.25,9.96-1.71,.53-1.74,.52-2.5-1.01-.92-1.83-1.63-3.7-1.32-5.75,4.51-1.4,9.03-2.8,13.54-4.19,10.35-3.2,20.71-6.38,31.06-9.59,10.12-3.14,20.25-6.26,30.35-9.46,3.17-1,6.45-1.77,9.48-3.11,.96,.57,1.9,1.14,1.54,2.39-.04,.13,0,.29,.02,.44,.13,.82,.56,1.55,1.2,2.11,.83,.71-.99,1.47,.14,2.09Z"/>
  <path class="cls-11" d="M206.2,121.99c2.12-.95,2.16-.94,3.39,.62,1,1.26,2,2.51,3,3.77,.41,.92,.95,1.74,1.91,2.29,.17,.28,.35,.55,.52,.83,.19,.8,.64,1.42,1.47,1.81h0c0,.53,.19,.94,.85,1.07,.12,.2,.24,.4,.36,.61-.03,.56,.44,.72,.88,.91,.33,1.07,1.17,1.85,1.91,2.69-.04,.57,.3,.89,.88,1.05,.17,.9,1.02,1.4,1.54,2.09,.11,.59,.27,1.15,1.03,1.34,.18,.27,.36,.55,.54,.82-.06,.58,.33,.86,.87,1.05-.02,.12,.03,.21,.14,.28-.07,.56,.28,.88,.81,1.08,.09,.45,.41,.78,.74,1.1-.1,.71,.41,1.04,1.01,1.33,.48,1.14,1.33,2.08,2.07,3.08,1.38,2.39,2.79,4.77,4.12,7.19,1.24,2.25,2.18,4.59,1.86,7.17-.07,.57-.12,1.33-1.01,1.25-.79-.07-1.79-.39-1.71-1.29,.23-2.93-1.21-5.4-2.65-7.83-1.07-1.79-1.92-3.73-3.68-5.14-.02-.36-.13-.68-.46-.92-.01-.52-.29-.88-.82-1.1,0-.11-.05-.18-.17-.22-.11-.85-.62-1.48-1.4-1.95,.02-.11-.03-.19-.15-.24,.04-.57-.35-.87-.88-1.06,.02-.11-.03-.2-.14-.25,.06-.29-.06-.5-.39-.59,.01-.12-.04-.21-.15-.28,.08-.59-.23-.92-.86-1.04,0-.12-.05-.21-.17-.28,.05-.55-.19-.93-.84-1.03-.17-.26-.34-.53-.51-.79,0-.56-.4-.84-.9-1.06,.02-.11-.03-.19-.14-.24,.05-.3-.09-.49-.41-.59,0-.12-.04-.22-.16-.28,.06-.57-.3-.86-.85-1.03,.02-.12-.03-.22-.14-.3,.06-.58-.32-.85-.89-.99,0-.14-.06-.25-.17-.34,.1-.29-.04-.44-.36-.48,0,0,0,0,0,0-.04-.5-.26-.87-.84-1l-.11,.07s.1-.09,.1-.09c.02-.27-.12-.44-.4-.53-.1-.21-.21-.42-.31-.63,.06-.31-.08-.46-.43-.46-.37-.42-.45-1.03-1.05-1.3-.77-1.6-1.82-3.02-3.24-4.23,.01-.11-.04-.19-.16-.23-.1-.59-.42-1.05-1.02-1.33-.13-.16-.26-.33-.38-.49,.03-.64-.62-.95-.89-1.43-.45-.79-1.4-1.41-1.14-2.45Z"/>
  <path class="cls-10" d="M60.8,174.97c5.59,1.64,11.2,1.3,16.76-.04,1.82-.44,3.26-.39,4.73,.8,1.82,1.48,4.03,2.5,6.19,3.56,.43,.21,.94,.3,1.22,.92-.88,.81-2.32,.29-3.28,.92-1.81,.13-3.66,0-5.42,.52-1.65,0-3.3,0-4.95,0-.33-.2-.68-.22-1.04-.08-1.12-.31-2.28-.28-3.43-.35-.31-.22-.65-.33-1.05-.25-4.14-.85-8.13-2.08-11.9-3.84-.65-.3-1.28-.67-2.05-.33-.3-.22-.37-.55-.08-.72,.83-.5,.67-1.24,.71-1.94,.46,.01,.91,.03,1.37,.04,0,0,.1,.05,.1,.05,.09,.23,.27,.34,.55,.31,0,0,0,0,0,0,.35,.63,.98,.51,1.58,.45Z"/>
  <path class="cls-11" d="M212.55,149.94c.24,1.12,1.36,1.61,2.12,2.36,1,.98,2.12,1.85,3.13,2.82,1.2,1.16,1,1.6-.84,2.18-.14-.14-.28-.27-.41-.4,.02-.31-.17-.45-.49-.47-.44-.18-.83-.4-.99-.84-.27-1.26-1.14-1.99-2.52-2.26-.14-.15-.29-.31-.43-.46-.01-.59-.39-.83-1.01-.82-.15-.15-.29-.29-.44-.44-.29-.96-.94-1.58-2.07-1.76-.14-.12-.28-.23-.42-.35-.05-.35-.24-.54-.65-.51-.41-.11-.61-.42-.85-.7-.09-.44-.4-.66-.87-.5-.77,.26-1.55,.55-1.71,1.41l-.06,.12s-.14-.01-.14-.01c-.24,.03-.51,.01-.72,.1-2,.85-1.89,.82-2.63-1.02-1.26-3.13-2.3-6.35-3.95-9.35l-.02-.17s.17-.09,.17-.09c.4-.04,.81-.08,1.21-.11,.25,.04,.5,.07,.76,.11,.62,.63,1.35,.97,2.31,.71,.26-.08,.48-.03,.66,.15,2.5,1.36,5.35,1.88,8.09,2.68,.28,.08,.64-.03,.96-.05,.54-.02,1,.17,1.38,.5,.07,.54-.4,.92-.53,1.41-.29,.28-.58,.55-.87,.83,0,0,.11-.03,.11-.03-.38,.15-.75,.31-1.13,.46-.56-.02-.97,.16-1.07,.69-.11,.59,.13,1,.85,1.1,0,0,.09,.1,.09,.1,.11,.75,.65,1.1,1.43,1.22l.06,.08c.13,.74,.63,1.13,1.44,1.24l.08,.08Z"/>
  <path class="cls-9" d="M344.09,46.23c-3.04,1.34-6.31,2.11-9.48,3.11-10.1,3.19-20.23,6.32-30.35,9.46-10.35,3.21-20.7,6.39-31.06,9.59-4.51,1.39-9.03,2.79-13.54,4.19,.27-.63-.26-1.47,.65-1.93,.76,.74,1.51,.22,2.25-.01,6.54-2.02,13.08-4.05,19.62-6.09,9.19-2.86,18.37-5.73,27.56-8.58,9.57-2.98,19.14-5.97,28.73-8.91,1.7-.52,3.35-1.29,5.22-1.3,.13,.16,.26,.31,.39,.47Z"/>
  <path class="cls-3" d="M343.7,45.76c-1.87,0-3.52,.78-5.22,1.3-9.59,2.94-19.16,5.93-28.73,8.91-9.19,2.86-18.37,5.73-27.56,8.58-6.54,2.03-13.08,4.06-19.62,6.09-.74,.23-1.5,.75-2.25,.01,2.73-1.41,5.82-2,8.75-2.95,10.7-3.45,21.45-6.79,32.2-10.13,9.89-3.07,19.8-6.09,29.69-9.15,3.66-1.13,7.31-2.31,10.97-3.44,.49-.15,.93-.29,1.18-.72,.01-.11,.03-.21,.06-.32,.67,.49,.19,1.24,.51,1.81Z"/>
  <path class="cls-13" d="M133.62,33.46c4.09,7.32,8.28,14.6,12.92,21.65,4.36,6.63,8.99,13.11,14.08,19.33-.19,.37-.04,1.23-.95,.61-.63-.43-1.1-1.02-1.46-1.67-.35-.64-.7-1.3-1.62-1.43,0,0-.08-.13-.08-.13,0-.46-.26-.72-.78-.78-.08-.14-.17-.28-.25-.43,.04-.49-.17-.81-.74-.91-.4-.32-.72-.69-.81-1.19,.1-.62-.22-.93-.89-1-.13-.05-.17-.13-.15-.25-.05-1.32-.77-2.26-2.06-2.87-.11-.13-.22-.27-.33-.4,.02-.22-.07-.37-.31-.45-.06-.14-.13-.27-.19-.41,.05-.54-.2-.87-.83-.94-.2-.35-.4-.69-.6-1.04-.04-1.37-.71-2.38-2.13-2.96-.28-.22-.39-.51-.42-.82-.09-.8-.36-1.49-1.29-1.81-.16-.08-.23-.2-.21-.36,.07-.48-.05-.85-.65-.98-.28-.17-.39-.41-.41-.69,.18-.79-.26-1.23-1.02-1.51-.14-.27-.27-.54-.41-.81-.02-.74-.22-1.39-1.07-1.72l.11-.08s-.11,.08-.11,.08c-.23-1.84-1.27-3.28-2.73-4.52-.15-.08-.21-.19-.19-.34,.1-.66-.18-1.14-.87-1.42,0,0-.04-.05-.04-.05-.07-.12-.14-.24-.21-.37-.12-.28-.24-.55-.36-.83-.04-.78-.33-1.44-1.11-1.88-.83-.65-1.11-1.56-1.43-2.44,.18-.55-.24-.92-.44-1.38-.48-1.11-1.5-2.09-1.32-3.59,.59,.35,.97,.58,1.36,.81Z"/>
  <path class="cls-10" d="M57.18,163.98c2.99,.47,5.98,.95,8.55,3.07-2.19,.97-4.38,1.2-6.45,1.76-.55,.15-1.14,.19-1.67,.37-.38,.13-.73,.41-.61,.84,.14,.48,.6,.45,1.01,.36,1.52-.33,3.03-.73,4.56-1.03,1.84-.36,3.59-1.11,5.54-.97-.25,.32-.66,.37-1.04,.5-2.8,.98-5.82,1.22-8.66,2.07-.56,.17-1.12,.18-1.2,.84-.17,.05-.33,.1-.5,.15-.81-.82-.84-1.97-.32-2.66,1.32-1.72,.74-3.52,.8-5.31Z"/>
  <path class="cls-9" d="M190.2,103.82c.42-.1,1.06,0,.87-.69-.15-.54-1-.72-.96-1.39,.77-.41,1.38,.04,2.03,.25,.01,.09,.04,.17,.07,.25-.3,.11-.65,.28-.44,.59,.2,.3,.56,.56,.95,.11h-.03c-.07,2.53-.15,2.65-3.27,3.37-2.35,.54-4.68,1.21-7.16,1.11,.21-.22,.58-.43,.61-.67,.04-.39-.42-.32-.72-.32-1.98,0-3.97,.03-5.95,0-.79-.01-1.68,.22-2.32-.46,.49,.02,.99,.04,1.48,.06,4.56,.2,9.08,.12,13.47-1.2,.62-.19,1.34-.21,1.38-1.01Z"/>
  <path class="cls-13" d="M126.47,19.57c1.02,2.03,1.92,4.11,3.09,6.06,.54,.9,.62,1.94,1.28,2.77-.2,.8-.47,1.32-1.22,.28-.16-.22-.44-.38-.66-.57-.1-.14-.21-.28-.31-.42,.06-.41-.05-.75-.53-.92-.33-.32-.49-.7-.56-1.13,.19-.89-.02-1.62-1.08-1.97-.11-.27-.22-.55-.32-.82,.07-.46-.07-.8-.61-.95-.26-.24-.36-.53-.37-.86,.01-.53,.02-1.06,.03-1.59,.44-.2,.84-.07,1.24,.12Z"/>
  <path class="cls-9" d="M169.65,84.69c.98,.06,1.48,.61,1.76,1.38-1.93,.13-.37,1.06-.47,1.6-3.09-2.41-5.72-5.17-8.06-8.16,.76,.16,1.1,.76,1.61,1.19,.42,.35,.81,.68,1.45,.5,0,0,0,0,0,0-.1,.86,.46,.99,1.23,.89,.83,.49,1.91,.82,1.74,2-.06,.28-.17,.61,.14,.79,.1,.06,.39-.12,.59-.2Z"/>
  <path class="cls-9" d="M128.97,28.12c.22,.19,.5,.35,.66,.57,.75,1.04,1.02,.52,1.22-.28,1.48,1.44,2.2,3.22,2.77,5.05-.38-.23-.77-.46-1.36-.81-.18,1.5,.84,2.48,1.32,3.59,.2,.46,.61,.83,.44,1.38-2.16-2.96-3.83-6.13-5.05-9.5Zm2.12,2.06c-.33-.05-.45,.14-.41,.36,.03,.2,.13,.44,.3,.55,.21,.13,.47,0,.53-.23,.09-.32-.1-.54-.42-.68Zm.8,1.82l.08-.1h-.12s.05,.1,.05,.1Z"/>
  <path class="cls-13" d="M196.57,139.03c1.65,3,2.69,6.22,3.95,9.35,.74,1.84,.63,1.87,2.63,1.02,.21-.09,.48-.07,.72-.1-.35,.3-.65,.67-1.05,.9-1.35,.78-1.99,.63-2.56-.7-1.24-2.91-2.43-5.84-3.59-8.78-.21-.52-.46-1.11-.11-1.69Z"/>
  <path class="cls-10" d="M256.22,179.31c0-.1,0-.19,.03-.29,1.01-.4,2.04-.51,3.14-.27,4.74,1,9.48,.89,14.21-.07,.72-.15,1.47-.15,2.21-.22-3.88,1.37-7.9,1.74-12.02,1.39-2.52-.21-5-.92-7.57-.54Z"/>
  <path class="cls-10" d="M57.19,178.15c1.71,.67,3.41,1.35,5.3,2.09-.92,1.02-2.17,1.11-3.25,1.47-.84,.28-1.78,.37-2.04,1.34-.48-.08-1.19-.27-.76-.75,1.16-1.3,.59-2.76,.75-4.15Z"/>
  <path class="cls-13" d="M173.87,105.97c.64,.68,1.53,.45,2.32,.46,1.98,.03,3.97,0,5.95,0,.3,0,.76-.07,.72,.32-.02,.24-.39,.45-.61,.67-2.14,.31-4.29,.42-6.45,.08-.7-.66-1.64-.54-2.52-.65-.98-.13-2.02-.25-1.99-1.48,.87,.16,1.77,.21,2.57,.59Z"/>
  <path class="cls-13" d="M165.94,81.21c-.63,.18-1.03-.15-1.45-.5-.51-.43-.85-1.03-1.61-1.19,0,0,0-.01,0-.01-.03-.25-.19-.41-.47-.47-.34-.43-.67-.86-1.01-1.29-.28-.69-.74-1.44,.7-1.49,1.14,1.2,2.29,2.4,3.4,3.62,.34,.37,.79,.76,.44,1.33Z"/>
  <path class="cls-7" d="M232.03,136.12c-.07,.3-.15,.61-.22,.91-.2-.12-.57-.22-.57-.35-.19-2.67-1.03-5.3-.67-8.01,.03-.19,.26-.35,.39-.53,.8,2.61,.68,5.32,1.07,7.98Z"/>
  <path class="cls-9" d="M162.1,76.26c-1.44,.05-.98,.8-.7,1.49-1.94-1.72-3.65-3.59-4.83-5.8,.93,.13,1.28,.79,1.63,1.43,.35,.65,.82,1.24,1.46,1.67,.91,.62,.76-.24,.95-.61,.78,.42,1.31,1.01,1.49,1.82Z"/>
  <path class="cls-9" d="M171.29,105.38c-.02,1.23,1.01,1.35,1.99,1.48,.88,.12,1.82-.01,2.52,.65-2.69-.13-5.38-.28-7.23-2.41,.62,.06,1.22,.07,1.47-.6,.49,.21,.94,.46,1.25,.88Z"/>
  <path class="cls-13" d="M210.69,142.25c-.32,.02-.68,.13-.96,.05-2.73-.8-5.59-1.31-8.09-2.68,3.14,.55,6.08,1.63,9.05,2.63Z"/>
  <path class="cls-12" d="M192.21,102.24c-.04-.08-.06-.16-.07-.25,3.7,1.01,7.32,.55,10.92-.44-1.44,1.13-3.23,1.34-5.02,1.41-1.78,.07-3.57,0-5.36-.02,0,0,.03,.01,.03,.01,.11-.39-.28-.5-.5-.71Z"/>
  <path class="cls-7" d="M209.78,127.92c1.42,1.2,2.47,2.63,3.24,4.23-1.24-.18-2.06-.84-2.29-1.91-.18-.84-1.35-1.32-.95-2.32Z"/>
  <path class="cls-9" d="M245.19,71.27c.55,2.31,.12,2.96-3.83,3.77,.42-.22,.82-.51,1.28-.64,1.32-.37,2.08-1.08,2.13-2.36,.01-.26,.27-.51,.42-.77Z"/>
  <path class="cls-9" d="M138.23,44.94c1.46,1.24,2.5,2.69,2.73,4.52-1.26-1.34-2.14-2.86-2.73-4.52Z"/>
  <path class="cls-7" d="M206.2,121.99c-.26,1.05,.69,1.67,1.14,2.45,.27,.48,.92,.78,.89,1.43-.53,.03-1-.11-1.29-.52-.56-.8-1.06-1.63-1.62-2.43-.79-1.14,.2-.91,.88-.93Z"/>
  <path class="cls-9" d="M146.45,58.18c1.41,.59,2.09,1.59,2.13,2.96-1.05-.79-1.61-1.87-2.13-2.96Z"/>
  <path class="cls-9" d="M150.83,64.39c1.28,.62,2,1.56,2.06,2.87-.99-.78-1.64-1.76-2.06-2.87Z"/>
  <path class="cls-9" d="M287.12,98.1c-1.43-.72-1.43-2.13-1.98-3.27,1.24,.81,1.45,2.12,1.98,3.27Z"/>
  <path class="cls-13" d="M212.53,153.32c1.39,.27,2.25,1,2.52,2.26-1.04-.57-1.9-1.31-2.52-2.26Z"/>
  <path class="cls-10" d="M57.7,183.49c1.32-.3,2.63-.6,3.95-.9-1.17,1.28-2.05,1.48-3.95,.9Z"/>
  <path class="cls-7" d="M214.5,128.66c-.96-.55-1.51-1.37-1.91-2.29,1.52,.18,2.14,.95,1.91,2.29Z"/>
  <path class="cls-7" d="M230.49,106.4c1.32,.74,1.09,1.7,.48,2.71-.88-.8-.32-1.81-.48-2.71Z"/>
  <path class="cls-13" d="M204.07,149.19c.16-.86,.94-1.15,1.71-1.41,.47-.16,.78,.06,.87,.5-1.07-.18-1.65,.76-2.58,.91Z"/>
  <path class="cls-13" d="M232.16,144.04c1.2,.67,.96,1.45,.2,2.26-.13-.03-.27-.04-.4-.03,.07-.74,.14-1.49,.2-2.23Z"/>
  <path class="cls-13" d="M208.58,149.84c1.12,.18,1.78,.8,2.07,1.76-.92-.37-1.61-.96-2.07-1.76Z"/>
  <path class="cls-13" d="M211.55,144.16c.12-.49,.59-.87,.53-1.41,.96,.69,.87,.92-.53,1.41Z"/>
  <path class="cls-9" d="M126.5,23.68c1.06,.35,1.26,1.08,1.08,1.97-.63-.54-1.03-1.18-1.08-1.97Z"/>
  <path class="cls-10" d="M58.58,174.17c-.46-.01-.91-.02-1.37-.04-.52-.32-1.39-.51-.58-1.3,.65,.45,1.3,.89,1.95,1.34Z"/>
  <path class="cls-10" d="M125.21,162.67c-1.1,.47-2.22,.91-3.49,.83,1-.82,2.19-1,3.49-.83Z"/>
  <path class="cls-7" d="M343.18,43.95c-.03,.1-.05,.21-.06,.32-.57-.54-1.31-.38-2.01-.39,1-.91,1.17-.91,2.07,.07Z"/>
  <path class="cls-7" d="M216.48,131.29c-.82-.39-1.28-1.01-1.47-1.81,1.25,.11,1.58,.81,1.47,1.81Z"/>
  <path class="cls-7" d="M224.18,146.95c.78,.47,1.29,1.09,1.4,1.95-1.29-.18-1.5-.97-1.4-1.95Z"/>
  <path class="cls-13" d="M200.98,139.47c-.96,.26-1.69-.08-2.31-.71,.9-.1,1.58,.37,2.31,.71Z"/>
  <path class="cls-9" d="M176.25,92.23c.85,.13,1.47,.48,1.6,1.3-.76-.21-1.35-.6-1.6-1.3Z"/>
  <path class="cls-13" d="M209.44,147.21c-.72-.1-.95-.51-.85-1.1,.09-.53,.51-.71,1.07-.69-.44,.56-.64,1.15-.22,1.79Z"/>
  <path class="cls-9" d="M144.74,55.54c.93,.32,1.2,1.02,1.29,1.81-.77-.41-1.13-1.05-1.29-1.81Z"/>
  <path class="cls-9" d="M135.45,40.05c.77,.44,1.06,1.11,1.11,1.88-.9-.38-1.1-1.09-1.11-1.88Z"/>
  <path class="cls-13" d="M212.47,149.86c-.81-.11-1.31-.5-1.44-1.24,.64,.27,1.23,.58,1.44,1.24Z"/>
  <path class="cls-9" d="M142.45,52c.77,.27,1.21,.72,1.02,1.51-.43-.46-1.08-.79-1.02-1.51Z"/>
  <path class="cls-13" d="M210.97,148.54c-.78-.12-1.32-.47-1.43-1.22,.63,.27,1.27,.52,1.43,1.22Z"/>
  <path class="cls-10" d="M64.18,181.34c.83-.84,1.6-.29,2.38,.07-.79-.02-1.59-.05-2.38-.07Z"/>
  <path class="cls-7" d="M228.04,146.71c-.6-.28-1.11-.62-1.01-1.33,.78,.17,1.53,.37,1.01,1.33Z"/>
  <path class="cls-9" d="M140.97,49.47c.85,.33,1.05,.98,1.07,1.72-.73-.39-.9-1.06-1.07-1.72Z"/>
  <path class="cls-10" d="M118.78,163.84c-.51,.19-1.03,.21-1.55,.03,.49-.97,1.01-.98,1.55-.03Z"/>
  <path class="cls-9" d="M125.23,19.46c-.01,.53-.02,1.06-.03,1.59-.52-.54-1.09-1.08,.03-1.59Z"/>
  <path class="cls-7" d="M223.93,141.05c-.76-.19-.91-.75-1.03-1.34,1.07,0,1.11,.64,1.03,1.34Z"/>
  <path class="cls-9" d="M215.08,164.58c-.8,.48-1.61,.47-2.45,.09,.82-.03,1.63-.06,2.45-.09Z"/>
  <path class="cls-7" d="M208.61,126.36c.6,.28,.92,.74,1.02,1.33-.99-.05-1.13-.61-1.02-1.33Z"/>
  <path class="cls-7" d="M218.57,133.88c-.44-.19-.92-.36-.88-.91,.5,.14,1.53-.11,.88,.91Z"/>
  <path class="cls-9" d="M137.17,43.18c.69,.28,.97,.75,.87,1.42-.55-.35-.78-.85-.87-1.42Z"/>
  <path class="cls-7" d="M225.74,149.11c.53,.22,.81,.58,.82,1.1-.83-.04-1.12-.39-.82-1.1Z"/>
  <path class="cls-7" d="M223.15,145.65c.53,.2,.92,.49,.88,1.06-.75-.06-1.09-.38-.88-1.06Z"/>
  <path class="cls-8" d="M149.74,40.26c-.6-.18-.76-.57-.67-1.08,.67,.14,.89,.5,.67,1.08Z"/>
  <path class="cls-13" d="M211.09,152.03c.62,0,1,.23,1.01,.82-.43-.18-.94-.29-1.01-.82Z"/>
  <path class="cls-7" d="M221.61,143.48c.63,.12,.94,.45,.86,1.04-.7-.07-.98-.42-.86-1.04Z"/>
  <path class="cls-7" d="M226.28,144.28c-.53-.2-.88-.52-.81-1.08,.76,.07,1.05,.42,.81,1.08Z"/>
  <path class="cls-8" d="M148.18,37.61c-.48-.22-.73-.55-.65-1.04,.63,.14,.97,.43,.65,1.04Z"/>
  <path class="cls-7" d="M220.6,142.18c.65,.1,.89,.48,.84,1.03-.69-.08-.94-.44-.84-1.03Z"/>
  <path class="cls-7" d="M225.33,142.92c-.54-.19-.92-.47-.87-1.05,.72,.07,1.09,.37,.87,1.05Z"/>
  <path class="cls-10" d="M66.1,161.95c-.65,.25-1.31,.23-1.99,.09,.64-.46,1.3-.41,1.99-.09Z"/>
  <path class="cls-9" d="M143.88,54.21c.6,.12,.72,.5,.65,.98-.41-.22-.66-.53-.65-.98Z"/>
  <path class="cls-10" d="M127.68,162.26c-.28,.32-.65,.34-1.05,.23,.21-.58,.51-.84,1.05-.23Z"/>
  <path class="cls-10" d="M136.17,162.47c-.41,.13-.76,.03-1.05-.25,.55-.58,.84-.3,1.05,.25Z"/>
  <path class="cls-7" d="M219.2,140.32c.5,.22,.9,.51,.9,1.06-.76-.04-1.13-.35-.9-1.06Z"/>
  <path class="cls-9" d="M149.17,62.19c.63,.07,.87,.4,.83,.94-.38-.24-.83-.43-.83-.94Z"/>
  <path class="cls-9" d="M153.03,67.51c.67,.07,.99,.38,.89,1-.4-.26-.86-.48-.89-1Z"/>
  <path class="cls-7" d="M217.63,138.19c.55,.17,.91,.46,.85,1.03-.69-.07-1.01-.4-.85-1.03Z"/>
  <path class="cls-10" d="M57.14,163.08c.01,.3,.02,.59,.03,.89-.4,0-.79-.08-.73-.52,.04-.29,.38-.37,.69-.36Z"/>
  <path class="cls-13" d="M197.92,138.65c-.4,.04-.81,.08-1.21,.11,.33-.67,.75-.57,1.21-.11Z"/>
  <path class="cls-7" d="M216.6,136.9c.57,.13,.95,.4,.89,.99-.65-.08-1-.36-.89-.99Z"/>
  <path class="cls-7" d="M221.36,137.61c-.58-.16-.92-.48-.88-1.05,.71,.07,1.08,.37,.88,1.05Z"/>
  <path class="cls-9" d="M128.13,26.78c.48,.17,.59,.5,.53,.92-.45-.18-.75-.43-.53-.92Z"/>
  <path class="cls-9" d="M210.64,163.94c-.31,.11-.6,.14-.88-.06,.35-.61,.58,.1,.88,.06Z"/>
  <path class="cls-7" d="M215.22,135.09c.59,.13,.81,.5,.84,1-.75-.01-1.04-.34-.84-1Z"/>
  <path class="cls-7" d="M217.33,132.36c-.65-.13-.85-.54-.85-1.07,.82,.02,1.08,.39,.85,1.07Z"/>
  <path class="cls-9" d="M154.73,69.7c.57,.09,.78,.42,.74,.91-.41-.2-.77-.43-.74-.91Z"/>
  <path class="cls-9" d="M155.72,71.03c.51,.06,.77,.32,.78,.78-.36-.19-.83-.28-.78-.78Z"/>
  <path class="cls-9" d="M169.29,101.01c.08,.51-.07,.9-.69,1.05,.02-.46,.14-.87,.69-1.05Z"/>
  <path class="cls-9" d="M125.57,21.91c.54,.15,.68,.5,.61,.95-.33-.25-.78-.44-.61-.95Z"/>
  <path class="cls-9" d="M170.89,99.47c-.05,.52-.39,.76-.94,.8,.06-.51,.51-.65,.94-.8Z"/>
  <path class="cls-9" d="M172.4,98.26c-.09,.49-.45,.68-.97,.68,.13-.44,.49-.63,.97-.68Z"/>
  <path class="cls-9" d="M173.88,97.3c-.11,.55-.52,.73-1.1,.7,.17-.47,.63-.6,1.1-.7Z"/>
  <path class="cls-9" d="M178.59,94c.79,.36,.79,.7-.03,1.03,.01-.34,.02-.68,.03-1.03Z"/>
  <path class="cls-10" d="M194.16,163.35c-.43,.31-.92,.25-1.4,.19,.44-.22,.91-.29,1.4-.19Z"/>
  <path class="cls-9" d="M173.76,90.14c.55,.1,.94,.36,1.04,.88-.55-.1-.94-.36-1.04-.88Z"/>
  <path class="cls-9" d="M292.05,100.76c-.25,0-.44-.08-.52-.31,.23,.02,.48,.03,.52,.31Z"/>
  <path class="cls-12" d="M276.11,178.32c.24-.28,.56-.32,.92-.24-.25,.27-.56,.34-.92,.24Z"/>
  <path class="cls-10" d="M61.7,182.57c.18-.39,.54-.4,.93-.35-.21,.33-.54,.4-.93,.35Z"/>
  <path class="cls-13" d="M216.04,156.42c.32,.02,.52,.16,.49,.47-.31-.04-.51-.17-.49-.47Z"/>
  <path class="cls-13" d="M207.5,148.98c.42-.03,.61,.17,.65,.51-.35-.04-.59-.18-.65-.51Z"/>
  <path class="cls-9" d="M136.92,42.76c.07,.12,.14,.24,.21,.37-.24-.04-.33-.16-.21-.37Z"/>
  <path class="cls-9" d="M150.2,63.54c.23,.08,.33,.23,.31,.45-.27-.06-.4-.19-.31-.45Z"/>
  <path class="cls-10" d="M56.69,177.7c.29,.02,.43,.18,.47,.42-.28-.03-.43-.17-.47-.42Z"/>
  <path class="cls-9" d="M162.41,79.04c.27,.07,.44,.22,.47,.47-.32-.03-.46-.2-.47-.47Z"/>
  <path class="cls-9" d="M171.09,87.84c.18,.04,.28,.14,.29,.3-.23,0-.34-.09-.29-.3Z"/>
  <path class="cls-9" d="M172.14,88.75c.14,.01,.22,.08,.23,.21,0,0-.2-.04-.2-.04l-.03-.18Z"/>
  <path class="cls-9" d="M173.07,89.63c.15-.01,.25,.05,.28,.18,0,0-.22,0-.22,0l-.07-.18Z"/>
  <polygon class="cls-9" points="175.26 91.45 175.36 91.56 175.21 91.57 175.26 91.45"/>
  <polygon class="cls-9" points="175.68 91.84 175.79 91.9 175.67 91.97 175.68 91.84"/>
  <path class="cls-9" d="M177.94,93.6c.14,.08,.27,.16,.41,.24-.26,.09-.38-.02-.41-.24Z"/>
  <path class="cls-9" d="M175.34,96.5c-.14,.08-.29,.15-.43,.23,.06-.2,.21-.26,.43-.23Z"/>
  <path class="cls-9" d="M291.11,100.21c-.27,.05-.47-.02-.58-.25,.26-.04,.45,.05,.58,.25Z"/>
  <path class="cls-7" d="M214.07,133.45c.35,0,.49,.15,.43,.46-.29-.04-.44-.19-.43-.46Z"/>
  <path class="cls-7" d="M214.81,134.54c.27,.1,.42,.26,.4,.53-.38-.03-.51-.21-.4-.53Z"/>
  <path class="cls-7" d="M216.07,136.09c.32,.04,.46,.19,.36,.48-.28-.06-.4-.23-.36-.48Z"/>
  <path class="cls-7" d="M218.65,139.5c.32,.09,.47,.28,.41,.59-.31-.1-.47-.28-.41-.59Z"/>
  <path class="cls-10" d="M70.61,162.01c-.18-.01-.36-.02-.54-.04,.2-.22,.38-.2,.54,.04Z"/>
  <path class="cls-13" d="M210.79,144.96s-.11,.03-.11,.03c.03,0,.07-.01,.11-.03Z"/>
  <path class="cls-7" d="M222.62,144.81c.32,.09,.45,.29,.39,.59-.31-.1-.46-.29-.39-.59Z"/>
  <path class="cls-6" d="M266.19,144.89c-.06,3.78-.47,7.11-2.32,10.19-.92,1.53-2.22,2.73-3.6,3.9-.75,.63-1.26,.54-1.57-.4-.33-1-1.02-1.88-1.82-2.6-1.09-.98-1.18-2-.79-3.23,.98-3.04,.66-6.09,.13-9.18-1.3-7.62-4.45-14.68-7.71-21.74-2.19-4.74-4.9-9.3-6.45-14.25-1.14-3.67-1.17-7.28,1.67-10.49,.25-.29,.52-.58,.83-.82,1.43-1.11,1.68-1.04,2.87,.26,.97,1.07,1.48,2.15,1.41,3.6-.12,2.14,1.27,3.92,2.36,5.72,2.04,3.35,4.49,6.49,6.52,9.85,3.63,5.99,6.11,12.3,7.28,19.06,.61,3.5,1.07,6.99,1.19,10.14Z"/>
  <path class="cls-6" d="M233.79,142.31c.15-.75,.15-1.5,0-2.24,.13-.25,.06-.46-.15-.65-.01-.37-.02-.73-.03-1.1,.65-1.1-.09-2.16-.15-3.24-.3-5.74-.95-11.48-.87-17.22,.07-5.12-.03-10.34,2.27-15.24,.94-2,2.09-3.85,4.43-4.82,.22-.09,.46-.17,.7-.21,.15-.03,.33,0,.65,.02,.18,.75-.43,1.34-.65,1.97-1.47,4.31-.07,8.31,1.69,12.24,.67,1.5,1.23,3.03,1.84,4.54,.14,.35,.22,.69,.22,1.07,.07,7.15,.04,14.29,.27,21.43,.11,3.36-.75,6.57-1.3,9.83-.76,4.44-1.64,8.86,.05,13.29,.28,.73-.16,1.09-.74,1.45-1.27,.77-2.71,.51-4.1,.57,.47-2.57-.17-5.12-1.65-7.13-1.52-2.06-1.34-4.09-1.38-6.23,0-.53,.03-1.05-.73-1.21-.35-.77-.34-1.54-.01-2.31,1.05-1.24,1.07-3.07,.04-4.37-.13-.15-.25-.3-.38-.45Z"/>
  <path class="cls-6" d="M246.6,74.7c-.1-2.49,.61-4.87,1.82-7.04,1.07-1.92,2.79-3.38,5.23-4.13,2.68-.83,5.34-1.47,8.22-1.26,2.55,.19,4.53,1.26,6.16,2.91,.83,.84,.71,1.16-.5,1.55-2.02,.66-4.06,1.25-6.08,1.87-3.8,1.17-4.95,3.28-3.61,6.72,1.32,3.4,2.8,6.75,3.97,10.18,.67,1.95,1.03,4.01,.89,6.09-.05,.84-.35,1.27-1.38,.94-.47-.15-.97-.22-1.41-.41-7.85-3.38-12.98-9.21-13.31-17.42Z"/>
  <path class="cls-6" d="M225.26,79.52c-1.45,1.02-3,1.39-4.47,1.74-5.71,1.34-9.05,4.78-11.17,9.48-1.07,2.38-2.15,4.77-3.92,6.85-2.08,2.44-4.78,3.8-8.27,3.73-1.57-.03-3.13-.17-4.7-.22-.78-.02-1.41-.38-2-.73-.39-.23-.59-.73,0-1.09,.14-.08,.27-.17,.42-.24,4.53-2.15,7.13-5.77,9.39-9.68,1.32-2.26,2.51-4.58,3.92-6.81,3.1-4.9,11.09-7.08,16.4-5.71,1.68,.43,3.16,1.21,4.39,2.67Z"/>
  <path class="cls-1" d="M281.43,167.49c-.58-.04-1.16-.04-1.72-.14-1.76-.3-1.93-.57-1.29-2.17,1.39-3.49,1.77-7.13,2.26-10.78,.68-5.03,1.67-10.02,5.31-14.19,.35-.4,.73-.8,1.15-1.14,.64-.53,1.21-.39,1.58,.28,3.45,6.13,6.14,12.42,3.81,19.41-1.13,3.41-3.47,6.15-7.05,7.88-1.23,.6-2.6,.94-4.05,.84Z"/>
  <path class="cls-10" d="M151.63,174.08c3.44-.94,6.33-1.79,9.25-2.52,5.4-1.36,10.7-3.02,16.15-4.22,3.14-.69,6.3-1.23,9.51-1.48,3.69-.29,7.25,.2,10.56,1.79,.22,.1,.44,.21,.62,.35,.11,.09,.16,.24,.37,.56-2.64,.82-5.22,1.65-7.83,2.44-5,1.51-9.98,3.1-15.04,4.46-5.32,1.43-10.75,2.37-16.37,1.72-2.59-.3-4.9-1.14-7.24-3.11Z"/>
  <path class="cls-10" d="M162.11,169.53c-.93,.84-2.26,.78-3.39,1.09-6.29,1.73-12.54,3.6-18.98,4.87-3.65,.72-7.31,1.13-11.04,.89-3.38-.22-6.34-1.37-8.88-3.27,.05-.34,.14-.54,.4-.61,7.65-2,15.1-4.65,23.01-5.82,5.69-.85,11.35-.83,16.73,1.43,.78,.33,1.78,.45,2.15,1.43Z"/>
  <path class="cls-3" d="M244.36,77.22c.2,.13,.54,.23,.56,.39,.37,1.97,1.16,3.82,2.02,5.64,.4,.85,.06,1.2-.8,1.45-3.83,1.13-7.63,2.32-11.47,3.41-7.69,2.19-15.55,3.78-23.43,5.31-.13,.03-.3-.07-.73-.17,.86-2.2,1.84-4.34,3.5-6.14,.84-.91,2.26-1.14,3.49-1.52,2.1-.49,4.21-.96,6.01-2.13l-.03,.02c1.71,.11,3.17-.64,4.7-1.12,5.4-1.69,10.78-3.42,16.16-5.13Z"/>
  <path class="cls-10" d="M209.57,174.9c-.48,.08-.96,.15-1.44,.23-.2-.25-.48-.46-.8-.31-1.17,.55-2.42,.7-3.73,.71-.73,0-1.41,.26-1.96,.72-1.66,.18-3.31,.17-4.97,.05-.57-.54-1.29-.43-2-.36,0,0,0,0,0,0-.53-.67-1.29-.45-2.01-.43-1.51-.42-2.94-.95-4.01-2,.11-.71,.74-.82,1.26-.97,8.22-2.43,16.35-5.12,24.89-6.56,4.64-.78,9.31-1.36,14.02-.36,1.27,.27,2.54,.55,3.68,1.24-1.36,1.19-6.81,3.31-11.89,4.7-.27-.05-.48,.03-.61,.25-.27,.08-.55,.16-.82,.24-.28-.06-.5,.03-.65,.25-2.22,.75-4.44,1.5-6.76,1.99-.85-.12-1.76-.39-2.22,.61Z"/>
  <path class="cls-2" d="M297.87,123.21c-.04,.4-.04,.7-.11,.99-.22,.91-.09,2.18-1.1,2.54-1.09,.39-1.54-.9-2.17-1.48-3.78-3.48-8.46-5.79-13.06-8.22-3.33-1.77-6.44-3.79-8.6-6.8-.93-1.3-1.2-2.72-1.57-4.14-.22-.84,.28-1.27,1.25-1.11,7.61,1.27,14.95,2.98,20.32,8.56,2.36,2.45,4.18,5.04,4.76,8.26,.09,.51,.2,1.01,.28,1.41Z"/>
  <path class="cls-10" d="M238.38,167.01c4.24-1.71,8.72-2.68,13.27-3.42,2.44-.39,4.89-.78,7.38-.74,.8,.01,1.64-.2,2.4,.23,.11,.68-.53,.85-.95,1.16-2.8,2.06-5.63,4.09-8.69,5.85-6.7,3.85-14,5.88-22.01,5.72-3.39-.07-6.63-.9-9.49-2.52,5.35-1.79,10.33-3.86,15.58-5.35,.44,.04,.8-.06,1.03-.42,.08-.09,.18-.12,.3-.1,.48,.08,.91,.03,1.17-.41Z"/>
  <path class="cls-10" d="M130.15,168.24c-8.94,2.53-17.67,5.29-26.82,6.62-4.32,.62-8.74,.72-12.9-1.03-.81-.34-1.63-.63-2.16-1.52,2.1-.92,4.2-1.5,6.3-2.06,5.45-1.45,10.74-3.36,16.37-4.27,5.94-.96,11.83-1.21,17.53,1.05,.58,.23,1.28,.32,1.68,1.21Z"/>
  <path class="cls-6" d="M281.72,105.44c-3.34-.73-6.36-1.37-9.38-2.04-4-.89-8.17-1.06-12.13-2.14-3.63-.99-7.27-1.96-10.12-4.39-2.05-1.75-2.6-4.35-1.33-6.6,.07-.13,.2-.24,.27-.37,1.23-2.13,1.24-2.14,3.15-.55,4.06,3.39,9.05,4.99,14.36,6.05,3.54,.71,7.02,1.64,10.09,3.49,2.53,1.53,4.44,3.46,5.1,6.54Z"/>
  <path class="cls-6" d="M249.82,130.74c1.65,1.65,1.87,3.43,2.42,5.07,.7,2.1,1.45,4.22,1.82,6.38,.5,2.96,.91,5.92-.37,8.9-1.14,2.66-1.69,5.51-3.05,8.11-.71,1.35-1.64,2.56-3.38,3.04-1.41,.38-2.44-.04-2.92-1.27-.24-.62-.47-1.28-.51-1.93-.26-3.91,.12-7.75,1.11-11.59,1.04-4,2.13-7.98,3.31-11.94,.45-1.51,.98-3.01,1.57-4.78Z"/>
  <path class="cls-10" d="M57.21,171.79c.08-.65,.64-.67,1.2-.84,2.84-.85,5.86-1.09,8.66-2.07,.38-.13,.78-.18,1.04-.5,.1-.08,.21-.1,.34-.06,.29,.07,.51,0,.67-.24,.11-.11,.25-.16,.41-.16,.57,.06,1.15,.15,1.57-.33,.25-.06,.5-.13,.75-.19,3.58,.74,6.66-1.02,9.98-1.61,.09-.02,.14-.24,.21-.37,.44-.06,.89-.13,1.33-.19,4.04,.22,8.16-.33,12.1,.94,.14,.04,.32-.02,.48-.03,0,0,0,0,0,0,.21,.45,.6,.48,1.05,.37,0,0,.02,.01,.02,.01,.16,.51,.25,1.02-.09,1.51-6.06,1.85-12.07,3.84-18.28,5.29-1.99,.46-4,.87-6.03,1.14-5.47,.74-10.67,.03-15.42-2.65Z"/>
  <path class="cls-2" d="M299.24,139.48c.05,2.66-.63,5.05-2.33,7.16-.34,.42-.68,.82-1.17,1.12-.75,.45-1.25,.32-1.47-.44-.96-3.29-2.59-6.33-4.18-9.39-.35-.68-.84-1.25-1.24-1.88-2.39-3.68-4.17-7.5-3.7-11.89,.07-.66,.09-1.33,.45-1.93,.38-.63,.93-.83,1.63-.39,4.5,2.84,8.63,6,10.48,10.83,.84,2.21,1.65,4.49,1.54,6.81Z"/>
  <path class="cls-10" d="M110.12,182.31c-.87-.22-1.74-.21-2.61-.02-.39-.02-.79-.04-1.18-.07-.32-.15-.66-.15-1-.05-8.41-.68-15.99-3.2-22.9-8.18,1.71-.77,3.03-1.25,4.57-.29,4.79,2.98,10.19,3.2,15.71,2.59,2.79-.3,5.56-.75,8.24-1.52,1.11-.32,2.07-.22,2.97,.53,2.3,1.93,4.88,3.5,7.73,4.73,.21,.09,.48,.18,.32,.73-2.88,.85-6.02,1.2-9.19,1.41-.78-.1-1.55-.18-2.28,.19l-.18-.08-.2,.02Z"/>
  <path class="cls-10" d="M254.6,170.21c3.54-2.42,6.99-4.64,10.28-7.04,2.63-1.92,5.38-3.61,8.59-4.66,1.16-.38,2.33-.74,3.5-1.06,.73-.2,1.48-.1,1.32,.74-.82,4.33-1.25,8.96-6.22,11.38-4.26,2.08-8.9,3.04-13.82,2.19-1.21-.21-2.4-.51-3.66-1.56Z"/>
  <path class="cls-1" d="M305.68,147.57c1.48,9.91-5.35,17.92-14.49,21.2-4.41,1.58-8.93,1.94-13.56,.88-.4-.09-.79-.2-1.17-.34-.22-.08-.37-.25-.34-.51,.03-.29,.29-.35,.51-.4,.74-.16,1.47,0,2.2,.14,5.21,.92,9.85-.85,12.86-4.77,1.8-2.34,3.01-4.86,3.34-7.69,.18-1.51,.89-2.51,2.62-3.06,3.16-1,5.56-3.03,8.02-5.46Z"/>
  <path class="cls-10" d="M271.54,178.01c-8.14,1.33-15.47-.52-22.48-4.42,.92-1.03,2.12-1.38,3.1-1.98,.66-.4,1.29-.11,1.85,.19,4.07,2.14,8.39,1.85,12.73,1,2.25-.44,4.49-.97,6.49-2.06,.52-.28,1.09-.4,1.66-.25,3.74,.97,7.54,1.37,11.52,1.14-4.07,3.41-9.01,5.13-14.26,6.31-.24-.14-.44-.09-.62,.09Z"/>
  <path class="cls-2" d="M304.55,123.07c1.41,1.22,1.91,2.7,2.32,4.15,1.84,6.44,1.28,12.72-2.23,18.62-1.67,2.81-4.46,4.69-7.72,5.97-.61,.24-1.33,.57-1.72-.15-.31-.58-.4-1.31,.27-1.84,.43-.34,.93-.61,1.38-.94,2.29-1.65,3.64-3.79,4-6.38,.45-3.25,.24-6.45-1.09-9.56-.55-1.27-.76-2.42,.79-3.52,2.17-1.55,3.09-3.92,4.02-6.34Z"/>
  <path class="cls-2" d="M297.43,128.83c2.45-2.34,2.56-4.93,2.02-7.48-.61-2.91-2.17-5.52-4.29-7.83-1.79-1.95-3.91-3.57-6.21-5.01-.7-.44-1.42-.82-1.24-1.71,.43-2.09,.35-4.2-.06-6.66,3.35,1.49,5.95,3.24,8.28,5.3,4.67,4.13,6.92,9.21,6.96,15.02,.02,2.61-1.07,5.03-2.77,7.16-.46,.58-.93,1.43-2.7,1.21Z"/>
  <path class="cls-10" d="M165,182.94c-1.19-.26-2.38-.52-3.58-.78-1.95-.51-3.85-1.13-5.59-2.1,.04-.29,.01-.49-.34-.18-2.57-.87-4.65-2.45-6.82-3.87-.4-.26-.85-.56-.18-1,.52,0,1.03,.01,1.55,.02,1.06,.35,1.36,1.51,2.46,1.81,.17,.22,.39,.35,.7,.31,.12-.02,.22,.02,.29,.11,.18,.35,.52,.45,.92,.46,.25,.35,.66,.39,1.07,.42,.74,.58,1.63,.46,2.51,.41h0c.19,.13,.38,.36,.58,.37,3.12,.15,6.25,.35,9.34-.16,1.18-.19,2.5-.08,3.48-.92,.17-.04,.34-.09,.52-.13,.84-.03,1.76,.23,2.44-.48,0,0,0,0,0,0,.74,.06,1.5,.17,2-.52,.69-.24,1.36-.54,2.07-.7,.72-.16,1.42-.14,2.06,.4,2.23,1.9,4.87,3.22,7.75,4.18,.21,.07,.36,.27,.83,.63-8.07,1.85-15.94,2.83-24.02,1.72Z"/>
  <path class="cls-10" d="M196.18,181.2c-.27-.06-.55-.13-.82-.19-3.53-.74-7.02-1.58-10.19-3.25-1.2-.63-2.32-1.35-3.4-2.43,1.19-.82,2.59-.98,3.84-1.41,.57-.19,1.08,.04,1.55,.43,3.24,2.66,7.25,3.36,11.46,3.37,3.81,0,7.56-.54,11.22-1.5,1.69-.44,3.12-.36,4.68,.51,2,1.12,4.21,1.94,6.45,2.94-1.96,1.05-4.13,.72-6.05,1.33-.47-.05-.92,0-1.34,.21-1.48,.1-2.96,.21-4.45,.31-.37-.21-.71-.17-1.03,.08-2.31,0-4.62,0-6.93-.01-.33-.24-.67-.28-1.04-.08-1.32-.11-2.64-.22-3.95-.33Z"/>
  <path class="cls-3" d="M171.29,105.38c-.31-.42-.76-.67-1.25-.88-.44-2.23,1.27-3.42,2.84-4.67,.82-.02,1.11,.46,1.25,1.07-.17,.37-.35,.74-.52,1.11-.43,.51-.46,.97,.19,1.36,2.44,1.56,5.22,.96,7.9,.97,.4,0,.89-.08,.85-.58-.04-.43-.48-.57-.91-.58-1.15-.01-2.32,.11-3.45-.03-.93-.11-2.28,.06-2.63-.85-.38-.99,.89-1.49,1.63-1.98,4.04-2.73,8.59-4.59,13.38-6.01,.65,.11,1.23,.11,1.4-.63,.1-.35-.07-.65-.26-.94,.2-.33,.4-.66,.6-1,.33-.11,.65-.21,.97-.32,.52,0,1.05,.06,1.42-.38,.76-.46,1.64-.6,2.66-.72-1.38,.67-.96,2.02-1.6,2.94-1.51,2.15-3.48,3.84-6.19,4.76-.91,.31-1.87,.57-2.69,1.03-1.28,.72-1.26,1.47-.23,2.45,1.03,.98,2.5,1.37,3.55,2.3-.04,.8-.76,.82-1.38,1.01-4.39,1.32-8.91,1.41-13.47,1.2-.49-.02-.99-.04-1.48-.06-.8-.38-1.7-.44-2.57-.59Z"/>
  <path class="cls-10" d="M144.57,182.16c-2.21-.09-4.41,.22-6.64,.11-3.37-.17-6.69-.58-9.94-1.39-4.77-1.46-9.18-3.47-12.94-6.71,1.13-.77,2.09-1.17,3.2-.31,4.94,3.84,10.78,4.41,16.97,3.69,2.78-.32,5.54-.76,8.23-1.47,1.26-.33,2.35-.22,3.46,.57,1.83,1.31,3.81,2.47,5.96,3.85-1.97,1-4.01,.91-5.82,1.47-.22-.16-.41-.09-.59,.06-.63,.05-1.26,.09-1.88,.14Z"/>
  <path class="cls-10" d="M214.99,175.04c1.71-.74,3.11-1.21,5.03-.19,4.03,2.15,8.57,2.56,13.18,2.26,4.06-.27,8.03-1.01,11.81-2.37,1.34-.48,2.43-.55,3.66,.29,1.75,1.19,3.87,1.84,6.11,2.87-1.45,.88-2.8,.89-4.01,1.11-7.47,1.38-14.97,2.28-22.62,.95-4.53-.79-8.66-2.37-12.67-4.28-.18-.09-.26-.34-.49-.65Z"/>
  <path class="cls-6" d="M264.32,90.16c.06-2.37-.39-4.65-1.38-6.86-.8-1.77-.5-2.24,1.6-2.87,2.18-.66,4.37-1.3,6.56-1.93,1.51-.44,1.49-.4,1.8,1.07,.42,2.01-.09,3.98-.47,5.89-.54,2.72-1.56,5.37-2.78,7.93-.41,.87-.96,1.1-1.92,.79-.62-.2-1.25-.42-1.9-.47-1.15-.09-1.59-.58-1.52-1.58,.05-.66,0-1.32,0-1.98Z"/>
  <path class="cls-6" d="M230.34,90.78c.26-.04,.57,.47,.84,.89,1.18,1.87,2.61,3.56,4.36,5.03,.66,.56,.64,1.15,.06,1.75-1.58,1.63-2.74,3.44-3.37,5.54-.27,.9-.76,.97-1.61,.27-3.65-3.03-6.53-6.58-8.82-10.52-.26-.45-.24-.87,.42-1.03,2.55-.61,5.1-1.21,8.11-1.93Z"/>
  <path class="cls-6" d="M286,103.29c0,.73,.04,1.25-.01,1.76-.06,.55,.24,1.4-.58,1.51-.84,.11-1.66-.41-1.74-1.25-.35-3.4-2.92-5.47-5.64-7.37-1.48-1.03-3.27-1.69-5.05-2.29-1.87-.64-1.86-.68-1.23-2.32,.47-1.24,.96-2.48,1.41-3.73,.25-.71,.73-.96,1.49-.65,4.89,1.98,8.78,4.79,10.47,9.6,.58,1.64,.94,3.26,.88,4.75Z"/>
  <path class="cls-4" d="M226.33,153.63c.65,.15,1.32,.32,1.61,.92,1.3,2.68,3.29,5.09,3.76,8.08-2.03,1.5-2.02,1.47-5.17,1.33-1.81-.08-3.63-.02-5.44-.04-.8,0-1.63,.25-2.64-.27,1.12-4.26,3.43-7.78,7.88-10.01Z"/>
  <path class="cls-6" d="M264.58,125.31c-1.07-2.43-1.77-4.63-3.11-6.53-1.44-2.04-1.46-3.7,.71-5.33,.79-.59,1.26-1.52,1.88-2.3,.65-.82,1.23-.86,1.55,0,1.53,4.15,1.76,8.35,.23,12.55-.17,.46-.64,.83-1.26,1.61Z"/>
  <path class="cls-10" d="M175.83,165.75c-.74,.89-1.63,.85-2.41,1.06-.87,.23-1.77,.39-2.61,.68-3.48,1.21-6.88,1.99-10.08-.62-.45-.37-1.2-.47-1.82-.66-.63-.18-1.27-.32-1.87-1.01,6.39-1.2,12.55-1.37,18.8,.55Z"/>
  <path class="cls-6" d="M259,113.95c-.65-.5-.97-1.26-1.41-1.94-.43-.65-.33-1.27,.16-1.84,1.53-1.78,2.25-3.86,2.75-6,.24-1.06,.79-1.24,1.91-1.03,3.52,.68,3.58,.9,2.09,3.93-1.13,2.31-2.66,4.35-4.44,6.27-.26,.28-.5,.58-1.06,.61Z"/>
  <path class="cls-2" d="M279.79,147.04c-1.14-5.54,1.21-10.23,4.71-14.91,.82,1.44,1.52,2.71,2.26,3.97,.43,.73,.14,1.23-.49,1.72-2.72,2.13-4.49,4.78-5.37,7.91-.1,.34-.33,.67-.55,.97-.11,.16-.19,.43-.56,.34Z"/>
  <path class="cls-6" d="M272.23,116.46c-3.57,.14-3.56,.14-4.04-3.08-.21-1.39-.75-2.7-1.4-3.98-.57-1.13-.37-1.34,1.01-1.5,1.13-.14,1.87,.14,2.36,1.12,1.14,2.32,2.73,4.34,5.06,5.86,.39,.25,.91,.53,.73,1.04-.17,.49-.76,.52-1.23,.54-.82,.04-1.65,.01-2.47,.01Z"/>
  <path class="cls-6" d="M255.89,109.63c-1.88-3.28-4.8-5.89-5.15-10.17,2.67,1.18,4.98,2.09,7.37,2.81,.53,.16,.78,.56,.66,1.05-.52,2.14-1.04,4.28-2.88,6.31Z"/>
  <path class="cls-10" d="M140.18,165.77c-2.06,.51-4.21,.76-6.21,1.48-.77,.28-1.43,.15-2.1-.23-1.96-1.12-4.13-1.82-6.38-2.4,2.6-1.66,8.86-1.51,14.49,.31,.07,.28,.13,.56,.2,.85Z"/>
  <path class="cls-10" d="M199.16,163.76c1.66,.14,3.33,.12,4.99,0,.63,.1,1.26,.19,1.89,.29,.49,.3,1.03,.39,1.61,.27,.74,.28,1.48,.56,2.31,.88-.79,.65-1.79,.74-2.72,.98-1.5,.38-3,.78-4.49,1.2-1.33,.38-2.57,.39-3.73-.44-1.29-.93-3.06-1.01-4.38-1.87,.21-.89,1.08-.61,1.6-.87,.64,.13,1.26,.14,1.81-.25,.37-.06,.75-.11,1.12-.17Z"/>
  <path class="cls-2" d="M282.83,125.84c-3-2.01-4.68-4.44-5.59-7.32-.3-.93,.32-1.48,1.33-1.17,.84,.25,1.6,.72,2.39,1.12,.79,.4,1.55,.83,2.33,1.25,.73,.4,.93,.94,.7,1.69-.4,1.34-.71,2.7-1.16,4.44Z"/>
  <path class="cls-10" d="M107.56,165.14c-1.92,.53-3.79,1.04-5.66,1.56-.68,.19-1.29,.09-1.87-.29-2.02-1.32-4.32-2.1-6.85-2.6,2.81-1.6,11.14-.8,14.38,1.33Z"/>
  <path class="cls-6" d="M245.96,120.63c.88,1.89,1.76,3.77,2.64,5.66,.26,.56,.36,1.18,.12,1.73-1.01,2.23-1.15,4.68-2.52,6.86-.49-4.73-.97-9.45-.72-14.21,.16-.02,.32-.03,.48-.05Z"/>
  <path class="cls-3" d="M217.53,84.8c-.29-.06-.85-.12-.65-.38,.3-.39,.85-.71,1.37-.88,8.12-2.6,16.25-5.16,24.37-7.74,.54-.17,1.07-.5,1.65-.32,.66,.2,.19,.56,.06,.86-2.65,.78-5.3,1.52-7.93,2.34-4.04,1.26-8.07,2.57-12.11,3.84-.55,.17-.82,.44-.8,.95,0,0,.03-.02,.03-.02-.43-.22-.83-.35-1.39-.21-1.59,.41-3.18,.77-4.61,1.55Z"/>
  <path class="cls-4" d="M250.54,162.27c1.88-2.07,2.48-4.19,3.53-6.29,1.97,1.18,2.58,2.93,3.29,4.58,.3,.69-.34,1.05-1.09,1.12-1.7,.17-3.4,.35-5.73,.58Z"/>
  <path class="cls-9" d="M223.5,83.48c-.02-.51,.25-.77,.8-.95,4.04-1.27,8.06-2.58,12.11-3.84,2.63-.82,5.29-1.56,7.93-2.34,0,.29,.01,.58,.02,.87-5.39,1.71-10.77,3.44-16.16,5.13-1.53,.48-2.99,1.23-4.7,1.12Z"/>
  <path class="cls-1" d="M279.02,150.8c.4,1.43-.04,2.64-.24,3.86-.12,.75-.63,1.14-1.45,1.31-1.27,.27-2.52,.6-3.85,.92,.47-2.39,2.52-4.66,5.54-6.09Z"/>
  <path class="cls-3" d="M192.31,91.75c-.2,.33-.4,.66-.6,1-4.81,1.05-9.17,3.03-13.45,5.18-.56,.28-1.01,.78-1.77,.6l-1.23-.11c.1-.5,.57-.69,.99-.9,5.07-2.56,10.39-4.55,16.06-5.76Z"/>
  <path class="cls-10" d="M269.51,158.47c-1.57,.94-3.14,1.88-4.73,2.8-.34,.2-.74,.4-1.13,.42-.8,.04-1.92,.31-2.29-.35-.51-.92,.78-1.12,1.38-1.48,1.99-1.21,4.2-1.85,6.77-1.39Z"/>
  <path class="cls-10" d="M171.37,177.84c-.98,.84-2.3,.73-3.48,.92-3.09,.51-6.22,.31-9.34,.16-.2,0-.39-.24-.58-.37,4.51,.42,8.96-.12,13.4-.71Z"/>
  <path class="cls-10" d="M95.95,166.13c-.16,.01-.34,.08-.48,.03-3.94-1.27-8.06-.72-12.1-.94,.21-.13,.42-.27,.62-.4,2.47-.01,4.95-.03,7.42-.04,1.52,.44,3.21,.41,4.53,1.35Z"/>
  <path class="cls-9" d="M217.53,84.8c1.43-.78,3.02-1.14,4.61-1.55,.56-.14,.96,0,1.39,.21-1.8,1.17-3.91,1.63-6.01,2.13,0-.26,0-.53,.01-.79Z"/>
  <path class="cls-7" d="M269.31,105.42c.04,1.1-.57,1.43-1.52,1.4-.52-.02-.95-.15-.91-.75,.06-.97,.89-1.93,1.64-1.84,.93,.11,.76,.79,.8,1.18Z"/>
  <path class="cls-10" d="M201.65,176.26c.55-.46,1.23-.72,1.96-.72,1.31-.01,2.55-.16,3.73-.71,.32-.15,.6,.05,.8,.31-2.04,.91-4.28,.95-6.48,1.13Z"/>
  <path class="cls-8" d="M174.14,100.9c-.14-.62-.43-1.09-1.25-1.07,.19-.52,.73-.68,1.19-.92,.47,.21,.94,.41,1.42,.62-.3,.58-.65,1.11-1.36,1.37Z"/>
  <path class="cls-10" d="M96.93,168.01c.35-.49,.26-1,.09-1.51,.54,.2,1.41,.21,1.29,.93-.09,.54-.84,.52-1.38,.57Z"/>
  <path class="cls-7" d="M209.57,174.9c.46-1,1.37-.73,2.22-.61-.72,.27-1.38,.68-2.22,.61Z"/>
  <path class="cls-3" d="M175.5,99.53c-.47-.21-.94-.41-1.42-.62,.27-.41,.76-.4,1.18-.5,.41,.04,.82,.08,1.23,.11l-1,1.01Z"/>
  <path class="cls-10" d="M157.98,178.55c-.87,.05-1.76,.17-2.51-.41,.91-.23,1.74-.05,2.51,.41Z"/>
  <path class="cls-10" d="M174.33,177.23c-.68,.71-1.59,.45-2.44,.48,.72-.54,1.58-.49,2.44-.48Z"/>
  <path class="cls-10" d="M198.04,163.93c-.55,.39-1.17,.38-1.81,.25,.56-.34,1.19-.26,1.81-.25Z"/>
  <path class="cls-10" d="M110.51,182.37c.73-.37,1.5-.29,2.28-.19-.71,.54-1.49,.39-2.28,.19Z"/>
  <path class="cls-10" d="M176.33,176.71c-.5,.68-1.26,.58-2,.52,.58-.43,1.25-.58,2-.52Z"/>
  <path class="cls-10" d="M194.68,175.95c.71-.07,1.43-.18,2,.36-.72,.1-1.42,.12-2-.36Z"/>
  <path class="cls-10" d="M192.68,175.52c.71-.02,1.48-.24,2.01,.43-.73,.07-1.42,.04-2.01-.43Z"/>
  <path class="cls-10" d="M207.64,164.31c-.58,.13-1.12,.04-1.61-.27,.57-.09,1.14-.13,1.61,.27Z"/>
  <path class="cls-8" d="M194.7,91.06c-.37,.44-.9,.39-1.42,.38,.31-.59,.9-.39,1.42-.38Z"/>
  <path class="cls-10" d="M60.8,174.97c-.6,.06-1.23,.18-1.58-.45,.59-.03,1.14,.05,1.58,.45Z"/>
  <path class="cls-10" d="M150.03,175.03c-.52,0-1.03-.01-1.55-.02,.52-.51,1.04-.62,1.55,.02Z"/>
  <path class="cls-7" d="M238.38,167.01c-.26,.43-.68,.49-1.17,.41,.28-.39,.7-.45,1.17-.41Z"/>
  <path class="cls-10" d="M97,166.49c-.45,.11-.85,.08-1.05-.37,.42-.03,.81,.01,1.05,.37Z"/>
  <path class="cls-7" d="M236.92,167.52c-.22,.37-.59,.47-1.03,.42,.23-.35,.58-.48,1.03-.42Z"/>
  <path class="cls-10" d="M140.18,165.77c-.07-.28-.13-.56-.2-.85,.78,.15,.93,.42,.2,.85Z"/>
  <path class="cls-10" d="M154.4,177.72c-.4,0-.74-.11-.92-.46,.42-.03,.79,.03,.92,.46Z"/>
  <path class="cls-10" d="M105.33,182.17c.34-.1,.67-.1,1,.05-.36,.36-.69,.34-1-.05Z"/>
  <path class="cls-10" d="M146.46,182.02c.18-.15,.37-.21,.59-.06-.18,.15-.38,.17-.59,.06Z"/>
  <path class="cls-10" d="M155.49,179.88c.36-.31,.38-.1,.34,.18-.17,.03-.29-.03-.34-.18Z"/>
  <path class="cls-12" d="M271.54,178.01c.18-.18,.38-.23,.62-.09-.18,.17-.39,.2-.62,.09Z"/>
  <path class="cls-10" d="M153.19,177.15c-.31,.04-.53-.09-.7-.31,.34-.09,.55,.05,.7,.31Z"/>
  <path class="cls-10" d="M59.23,174.52c-.28,.04-.46-.07-.55-.31,.27-.02,.47,.06,.55,.31Z"/>
  <path class="cls-7" d="M218.55,172.3c.15-.21,.37-.3,.65-.25-.15,.23-.36,.31-.65,.25Z"/>
  <path class="cls-7" d="M220.02,171.82c.13-.22,.33-.31,.61-.25-.13,.22-.33,.31-.61,.25Z"/>
  <path class="cls-13" d="M167.18,82.1c-.78,.11-1.33-.03-1.23-.89,.78-.12,1.02,.37,1.23,.89Z"/>
  <path class="cls-13" d="M169.65,84.69c-.2,.07-.49,.26-.59,.2-.3-.19-.2-.51-.14-.79,.42,.03,.67,.22,.73,.6Z"/>
  <path class="cls-10" d="M76.05,181.64c-.4,.54-.73,.37-1.04-.08,.36-.14,.71-.12,1.04,.08Z"/>
  <path class="cls-10" d="M75.96,164.62c-1.25,1.02-2.68,.79-3.86,1.19-.91,.31-1.89,.48-2.83,.71-.66,.16-1.35,.2-1.88-.22-1.22-.95-2.69-1.58-4.46-2.56,4.67-.72,8.76-.5,13.03,.88Z"/>
  <path class="cls-10" d="M82.04,165.42c-.07,.13-.12,.35-.21,.37-3.32,.59-6.4,2.34-9.98,1.61,3.29-1.09,6.7-1.72,10.19-1.98Z"/>
  <path class="cls-10" d="M71.09,167.59c-.43,.48-1,.39-1.57,.33,.43-.45,1-.41,1.57-.33Z"/>
  <path class="cls-10" d="M69.11,168.08c-.16,.23-.38,.31-.67,.24,.16-.21,.39-.28,.67-.24Z"/>
  <path class="cls-13" d="M233.84,149.82c-.34-.15-.33-.31,0-.46,0,.15,0,.31,0,.46Z"/>
  <path class="cls-5" d="M192.21,102.24c.22,.21,.62,.31,.5,.71-.39,.45-.75,.19-.95-.11-.21-.32,.14-.48,.44-.59Z"/>
  <path class="cls-7" d="M234.17,142.76c1.03,1.29,1.02,3.13-.04,4.37-.41-1.34-.12-2.74-.36-4.09,.13-.09,.26-.18,.4-.28Z"/>
  <path class="cls-13" d="M233.64,139.42c.21,.19,.28,.4,.15,.65-.23-.18-.27-.4-.15-.65Z"/>
  <path class="cls-13" d="M234.17,142.76c-.13,.09-.27,.18-.4,.28-.22-.25-.22-.49,.02-.73,.13,.15,.25,.3,.38,.45Z"/>
  <path class="cls-13" d="M131.09,30.18c.32,.14,.52,.35,.42,.68-.07,.23-.32,.36-.53,.23-.17-.1-.27-.35-.3-.55-.04-.22,.08-.41,.41-.36Z"/>
  <polygon class="cls-13" points="131.89 32 131.84 31.88 131.96 31.89 131.89 32"/>
  <g>
    <path class="cls-11" d="M233.61,149.33c.18,.44,.19,.88,.06,1.32-.46,0-.91-.01-1.37-.02-.38-.31-.77-.71-.56-1.14,.59-1.2,.13-2.47,.39-3.68,.76-.81,1-1.59-.2-2.26-.12-2.34-.24-4.68-.36-7.02,.07-.3,.15-.61,.22-.91,.69,.04,.92,.42,.93,.98,.01,.49,.03,.99,.65,1.23,.01,.37,.02,.73,.03,1.1-.12,.25-.09,.46,.15,.65,.15,.75,.15,1.5,0,2.24-.24,.24-.24,.48-.02,.73,.23,1.36-.06,2.75,.36,4.09-.33,.77-.34,1.54,.01,2.31-.1-.03-.2-.06-.3-.08-.33,.15-.34,.31,0,.46Z"/>
    <g>
      <path class="cls-13" d="M172.14,88.75c-.34-.11-.59-.32-.76-.61-.01-.17-.11-.27-.29-.3-.12,0-.17-.06-.14-.16,.1-.55-1.46-1.48,.47-1.6,2.7,2.15,5.15,4.54,7.91,6.65,1.18,.9,2.17,1.08,3.57,.55,1.81-.7,3.7-1.21,5.56-1.81,.44-.14,1-.16,1.08-.82-5.99-4.23-11.37-9.08-16.27-14.35-6.99-7.53-12.99-15.68-18.48-24.12-4.95-7.61-9.51-15.41-13.67-23.4-1.86-3.56-3.89-7.06-5.43-10.74,1.3-.71,1.94-.1,2.45,.92,1.17,2.33,2.36,4.66,3.59,6.97,1.91,3.56,3.87,7.1,5.81,10.65-.08,.49,.17,.82,.65,1.04l.88,1.57c-.08,.51,.08,.9,.67,1.08,2.17,4.12,4.76,8.04,7.32,11.96,4.73,7.23,9.86,14.23,15.65,20.82,4.99,5.68,10.5,10.9,16.7,15.56,1.82,1.36,3.38,1.54,5.56,.86,2.78-.86,4.95-2.05,5.98-4.67,.45-1.16,1.36-2.18,2.1-3.24,4.13-5.93,13.77-7.86,19.42-5.74,1.54,.58,3.03,1.21,4.12,2.37,.7,.74,1.36,.84,2.36,.51,3.32-1.09,6.68-2.09,10.02-3.12,.77-.24,1.51-.62,2.37-.55,3.95-.81,4.37-1.46,3.83-3.77,.3-3.75,2.43-6.51,6-8.35,2.38-1.22,5.07-1.8,7.78-2.09,3.9-.43,7.47,.46,10.15,3.08,1.48,1.45,2.84,1.5,4.74,.9,12.82-4.04,25.68-8.01,38.52-12,9.58-2.98,19.15-5.95,28.73-8.93,.7,0,1.44-.15,2.01,.39-.25,.42-.7,.57-1.18,.72-3.66,1.13-7.31,2.31-10.97,3.44-9.89,3.06-19.8,6.07-29.69,9.15-10.75,3.34-21.5,6.68-32.2,10.13-2.93,.95-6.02,1.53-8.75,2.95-.91,.45-.39,1.3-.65,1.93-.31,2.05,.4,3.93,1.32,5.75,.77,1.53,.79,1.54,2.5,1.01,10.75-3.31,21.5-6.63,32.25-9.96,14.57-4.51,29.14-9.02,43.69-13.57,2.54-.8,5.2-1.34,7.57-2.56,.08,0,.16-.02,.25-.02,.76,.02,1.89-.45,2.1,.49,.15,.71-.95,.84-1.65,1.06-5.77,1.78-11.53,3.56-17.29,5.35-17.45,5.41-34.89,10.82-52.34,16.23-.47,.14-.95,.26-1.42,.4-1.78,.55-1.89,.69-1.87,2.37,.03,2.21,.16,4.43-.41,6.6-.26,.97,.13,1.48,1.13,1.88,2.04,.81,3.96,1.81,5.72,3.06,1.63,1.16,3,2.48,3.94,4.15,.54,1.15,.55,2.55,1.98,3.27,1.04,.76,2.45,.97,3.41,1.86,.11,.23,.31,.31,.58,.25,.14,.08,.28,.16,.43,.24,.08,.23,.26,.31,.52,.31,7.22,4.11,11.71,9.78,12.64,17.49,.14,1.19,.51,2.24,1.27,3.28,3.84,5.28,4.64,11.05,3.34,17.16-.42,1.95-.71,3.92-1.67,5.75-.36,.69-.21,1.45-.07,2.18,1.84,9.62-3.69,17.97-12.88,22.32-2.43,1.15-4.63,2.51-6.79,3.99-3.29,2.25-6.84,4.1-10.86,5.16-.36-.08-.68-.04-.92,.24-.07,.09-.17,.13-.29,.13-.74,.07-1.49,.08-2.21,.22-4.74,.96-9.47,1.07-14.21,.07-1.1-.23-2.13-.12-3.14,.27-.56,.1-1.13,.17-1.69,.31-6.47,1.55-13.06,2.32-19.75,2.34-.66,0-1.32-.04-1.97-.09-4.28-.29-8.5-1.72-12.87-.38-.81,.25-1.76,.34-2.65,.44-.86,.09-1.85,.38-2.39-.61,1.92-.6,4.09-.28,6.05-1.33-2.24-1-4.45-1.83-6.45-2.94-1.56-.87-2.99-.95-4.68-.51-3.66,.95-7.41,1.5-11.22,1.5-4.2,0-8.22-.71-11.46-3.37-.47-.39-.98-.63-1.55-.43-1.25,.42-2.65,.59-3.84,1.41,1.08,1.08,2.2,1.8,3.4,2.43,3.16,1.66,6.66,2.5,10.19,3.25-.19,.35-.46,.64-.91,.65-3.31,.12-6.47,.95-9.67,1.58-5.75,1.12-11.58,1.36-17.42,1.01-1.54-.09-3.23-.07-4.83-1.17,1.02-.06,1.75-.1,2.47-.14,8.08,1.11,15.95,.12,24.02-1.72-.46-.36-.62-.56-.83-.63-2.88-.96-5.51-2.28-7.75-4.18-.63-.54-1.34-.56-2.06-.4-.71,.16-1.38,.46-2.07,.7-.74-.07-1.42,.08-2,.52h0c-.85,0-1.72-.06-2.44,.48-.17,.04-.34,.09-.52,.13-4.44,.59-8.89,1.13-13.4,.71h0c-.77-.47-1.59-.65-2.51-.41-.41-.03-.82-.06-1.07-.42-.13-.43-.5-.49-.92-.46-.07-.09-.17-.13-.29-.11-.14-.26-.36-.4-.7-.31-1.1-.3-1.4-1.46-2.46-1.81-.51-.64-1.02-.53-1.55-.02-.67,.44-.22,.74,.18,1,2.18,1.42,4.25,3,6.82,3.87,.06,.15,.17,.21,.34,.18,1.74,.97,3.64,1.59,5.59,2.1,.01,.67-.36,.99-1.08,.76-1.16-.37-2.3-.78-3.42-1.22-.77-.3-1.53-.6-2.36-.27-1.45,.58-3.02,.69-4.54,.94-1.69,.27-3.34,.78-5.09,.69-.88-.04-.57-.49-.36-.89,.63-.05,1.26-.09,1.88-.14,.21,.11,.41,.09,.59-.06,1.81-.56,3.85-.47,5.82-1.47-2.15-1.37-4.13-2.53-5.96-3.85-1.11-.79-2.2-.9-3.46-.57-2.69,.71-5.45,1.14-8.23,1.47-6.19,.72-12.03,.15-16.97-3.69-1.11-.86-2.07-.46-3.2,.31,3.77,3.24,8.17,5.25,12.94,6.71-.31,.63-.83,.92-1.57,.63-1.16-.46-2.21-.13-3.33,.16-3.46,.9-7.02,1.3-10.62,1.39-.87,.02-1.85,.19-2.36-.75l.2-.02,.18,.08c.79,.2,1.57,.35,2.28-.19,3.17-.21,6.31-.56,9.19-1.41,.16-.55-.11-.64-.32-.73-2.85-1.22-5.43-2.8-7.73-4.73-.9-.75-1.86-.85-2.97-.53-2.68,.77-5.45,1.21-8.24,1.52-5.53,.6-10.92,.38-15.71-2.59-1.55-.96-2.86-.48-4.57,.29,6.91,4.98,14.49,7.5,22.9,8.18,.31,.39,.64,.41,1,.05l1.18,.07c-.26,.53-.73,.76-1.37,.76-1.23,0-2.46-.04-3.69-.18-2.53-.27-4.9-1.3-7.49-1.21-.19-.06-.38-.12-.57-.18-1.42-.62-2.86-.31-4.29-.06-.88,.15-1.73,.4-2.61,.55-.72,.13-1.06-.21-1.06-.84,.95-.63,2.39-.1,3.28-.92-.28-.61-.79-.71-1.22-.92-2.16-1.06-4.37-2.07-6.19-3.56-1.46-1.19-2.91-1.24-4.73-.8-5.56,1.33-11.17,1.67-16.76,.04-.44-.4-.99-.49-1.58-.45h0c-.09-.24-.28-.32-.55-.3l-.1-.05c-.65-.45-1.3-.89-1.95-1.34,.03-.29,.06-.59,.08-.88,.17-.05,.33-.1,.5-.15,4.75,2.68,9.94,3.39,15.42,2.65,2.03-.27,4.04-.68,6.03-1.14,6.21-1.44,12.22-3.43,18.28-5.29,.54-.05,1.29-.03,1.38-.57,.12-.72-.74-.73-1.29-.93h-.02c-.25-.37-.63-.41-1.05-.38h0c-1.33-.94-3.02-.91-4.53-1.35-.05-.28-.24-.62-.13-.84,.42-.91,.33-1.38-.93-1.01-.63,.18-1.26,.25-1.91,.15,5.9-2.11,12.01-2.09,17.79-.18,3.73,1.24,7.24,1.41,10.99,.97,.52,.17,1.04,.15,1.55-.03,1.02,.15,2.01,.1,2.95-.34,1.27,.09,2.39-.35,3.49-.83,.47-.06,.95-.12,1.42-.19,.4,.11,.77,.09,1.05-.23,2.48-.18,4.96-.21,7.44-.03,.29,.28,.64,.37,1.05,.25,2.13,.34,4.16,.94,6.04,1.88,1.07,.54,2.12,.74,3.31,.59,.65-.08,1.32-.14,1.98-.11,3.42,.18,6.68-.6,10-1.15,6.98-1.13,13.96-1.33,20.63,1.46,.64,.27,1.28,.32,1.93,.16,2.66-.63,5.4-.65,8.1-.89,1.57-.14,3.08-.49,4.59-.88,.49,.06,.98,.12,1.4-.19,.42-.24,.89-.34,1.38-.34,.79,.02,1.58,.05,2.37,.04,.6,0,1.11,.07,1.25,.7-.37,.06-.75,.11-1.12,.17-.62-.01-1.25-.09-1.81,.25-.53,.27-1.4-.01-1.6,.87,1.31,.86,3.09,.95,4.38,1.87,1.16,.84,2.4,.82,3.73,.44,1.49-.42,2.99-.82,4.49-1.2,.93-.24,1.92-.33,2.72-.98-.83-.32-1.57-.6-2.31-.88-.47-.4-1.03-.36-1.61-.27-.63-.1-1.26-.19-1.89-.29,.53-1.22,1.65-.68,2.5-.56,.7,.1,1.34,.52,2.11,.26,.45-.07,.79,.05,1,.43,.28,.2,.58,.17,.88,.06,.77,0,1.45,.22,1.99,.73,.83,.39,1.65,.39,2.45-.09,.43-.31,1.07-.49,1.2-1.02,.41-1.73,1.28-3.24,2.44-4.65,.45-.55,.2-.94-.59-1-.49-.04-.97-.12-1.17-.61,1.85-.58,2.04-1.02,.84-2.18-1-.97-2.13-1.85-3.13-2.82-.76-.74-1.88-1.24-2.12-2.36,2.61,1.77,4.86,3.85,6.89,6.13,.2,.22,.31,.51,.79,.58,1.81-1.76,2.98-4.31,6.24-4.55,.43,.55,.25,1.05-.14,1.54-4.45,2.23-6.76,5.75-7.88,10.01,1.01,.52,1.84,.27,2.64,.27,1.81,.01,3.63-.04,5.44,.04,3.14,.14,3.14,.18,5.17-1.33,.07,.35,.3,.77,.17,1.05-.58,1.15,0,1.69,1.11,2.2,1.24,.57,2.27,1.31,3.79,.42,1.06-.61,.43-1.66,1.14-2.28,1.39-.07,2.83,.2,4.1-.57,.58-.35,1.02-.72,.74-1.45-1.69-4.42-.8-8.84-.05-13.29,.55-3.26,1.41-6.47,1.3-9.83-.22-7.14-.2-14.29-.27-21.43,0-.38-.08-.71-.22-1.07-.61-1.52-1.17-3.04-1.84-4.54-1.76-3.93-3.16-7.92-1.69-12.24,.21-.63,.83-1.23,.65-1.97-.32-.01-.49-.05-.65-.02-.24,.05-.48,.12-.7,.21-2.34,.98-3.49,2.82-4.43,4.82-2.29,4.89-2.19,10.12-2.27,15.24-.08,5.73,.57,11.48,.87,17.22,.06,1.08,.8,2.14,.15,3.24-.62-.24-.64-.74-.65-1.23-.02-.56-.24-.94-.93-.98-.39-2.66-.26-5.37-1.07-7.98-.26-6.34-.38-12.68,.01-19.02,.61-1.01,.83-1.97-.48-2.71-4.15-3.41-7.71-7.24-10.22-11.77-.63-1.14-1.44-1.46-2.79-1.02-.84,.28-1.77,.39-2.67,.49-3.43,.4-6.24,1.48-7.8,4.56-.71,1.4-2.34,2.24-3.96,2.88-3.6,1-7.22,1.46-10.92,.44-.65-.22-1.27-.66-2.03-.25-.03,.67,.81,.84,.96,1.39,.19,.69-.45,.59-.87,.69-1.05-.93-2.53-1.32-3.55-2.3-1.03-.98-1.05-1.73,.23-2.45,.81-.46,1.77-.73,2.69-1.03,2.72-.92,4.68-2.61,6.19-4.76,.64-.92,.22-2.27,1.6-2.94-1.02,.12-1.89,.27-2.66,.72-.52,0-1.1-.22-1.42,.38-.33,.11-.65,.21-.98,.32-5.67,1.21-10.99,3.2-16.06,5.76-.42,.21-.88,.4-.99,.9-.43,.11-.92,.1-1.18,.5-.46,.24-1,.4-1.19,.92-1.58,1.25-3.28,2.44-2.84,4.67-.25,.67-.85,.66-1.47,.6-.69-1.02-.57-2.03,.03-3.03,.62-.15,.77-.54,.69-1.05,.22-.25,.43-.49,.65-.74,.55-.05,.9-.29,.94-.8,.18-.18,.36-.35,.54-.53,.52,0,.87-.2,.97-.68,.08-.15,.2-.23,.38-.25,.58,.03,.99-.15,1.1-.7,.34-.19,.69-.38,1.03-.57,.14-.08,.29-.15,.43-.23,.97-.68,2.05-1.14,3.22-1.48,.82-.32,.82-.66,.03-1.03-.14,.02-.22-.03-.24-.15-.14-.08-.27-.16-.41-.24,0,0-.08-.07-.08-.07-.13-.83-.76-1.17-1.6-1.3-.15-.11-.31-.22-.46-.33,0,0-.11-.06-.11-.06-.18-.03-.29-.12-.32-.28,0,0-.11-.11-.11-.11-.15-.14-.3-.29-.46-.43-.1-.52-.49-.78-1.04-.88-.14-.11-.27-.22-.41-.32-.04-.13-.13-.19-.28-.18-.23-.22-.47-.45-.7-.67,0-.13-.08-.2-.23-.21Zm22.54,87.2h0c.59,.48,1.28,.46,2,.36,1.66,.12,3.32,.13,4.97-.05,2.2-.18,4.44-.22,6.48-1.13,.48-.08,.96-.15,1.44-.23,.83,.07,1.5-.34,2.22-.61,2.32-.49,4.54-1.24,6.76-1.99,.29,.07,.5-.01,.65-.25,.27-.08,.55-.16,.82-.24,.28,.06,.48-.03,.61-.25,5.08-1.38,10.52-3.51,11.89-4.7-1.14-.69-2.4-.97-3.68-1.24-4.71-.99-9.39-.42-14.02,.36-8.54,1.44-16.67,4.13-24.89,6.56-.52,.15-1.15,.26-1.26,.97,1.07,1.05,2.5,1.58,4.01,2,.58,.47,1.28,.5,2.01,.43Zm49.66-99.6c.13-.3,.6-.67-.06-.86-.58-.17-1.12,.15-1.65,.32-8.13,2.57-16.26,5.14-24.37,7.74-.52,.17-1.07,.48-1.37,.88-.2,.26,.36,.32,.65,.38,0,.26,0,.53-.01,.79-1.24,.39-2.66,.62-3.49,1.52-1.66,1.8-2.64,3.93-3.5,6.14,.43,.11,.59,.2,.73,.17,7.88-1.53,15.74-3.12,23.43-5.31,3.84-1.09,7.64-2.28,11.47-3.41,.86-.25,1.2-.6,.8-1.45-.87-1.82-1.65-3.67-2.02-5.64-.03-.15-.37-.26-.56-.39l-.02-.87Zm-104.36,88.57c-5.63-1.82-11.89-1.97-14.49-.31,2.25,.58,4.42,1.28,6.38,2.4,.67,.38,1.34,.51,2.1,.23,2-.72,4.14-.97,6.21-1.48,.73-.43,.58-.7-.2-.85Zm132.18,12.99c5.25-1.18,10.19-2.9,14.26-6.31-3.98,.23-7.78-.17-11.52-1.14-.57-.15-1.14-.03-1.66,.25-2,1.09-4.24,1.63-6.49,2.06-4.34,.85-8.66,1.14-12.73-1-.56-.3-1.19-.59-1.85-.19-.99,.6-2.18,.95-3.1,1.98,7.01,3.9,14.34,5.75,22.48,4.42,.23,.11,.44,.09,.62-.09Zm-36.27-9.97c-5.25,1.49-10.23,3.55-15.58,5.35,2.85,1.61,6.1,2.45,9.49,2.52,8.01,.16,15.31-1.87,22.01-5.72,3.06-1.76,5.89-3.79,8.69-5.85,.41-.31,1.06-.48,.95-1.16-.76-.42-1.6-.22-2.4-.23-2.49-.04-4.95,.35-7.38,.74-4.55,.73-9.04,1.7-13.27,3.42-.47-.05-.89,.01-1.17,.41-.12-.02-.22,.01-.3,.1-.45-.06-.79,.08-1.03,.42Zm30.29-23.06c-.11-3.16-.58-6.64-1.19-10.14-1.17-6.76-3.65-13.06-7.28-19.06-2.04-3.36-4.49-6.5-6.52-9.85-1.09-1.8-2.48-3.57-2.36-5.72,.08-1.44-.43-2.53-1.41-3.6-1.19-1.3-1.44-1.37-2.87-.26-.31,.24-.57,.53-.83,.82-2.84,3.2-2.81,6.82-1.67,10.49,1.55,4.96,4.26,9.52,6.45,14.25,3.26,7.06,6.41,14.13,7.71,21.74,.53,3.09,.85,6.14-.13,9.18-.39,1.23-.3,2.25,.79,3.23,.8,.72,1.49,1.59,1.82,2.6,.31,.94,.82,1.03,1.57,.4,1.38-1.16,2.68-2.37,3.6-3.9,1.85-3.08,2.26-6.41,2.32-10.19Zm-1.28,12.38c1.95-.16,3.69-.7,5.53-.51,.76,.08,1.03-.52,1.29-1.12,1.02-2.34,2.82-4.17,5.21-5.44,1.35-.72,1.56-1.48,1.02-2.69-.76-1.7-.65-3.48-.27-5.23,.81-3.79,2.43-7.3,4.87-10.51,1.74-2.29,1.59-3.08-.86-4.76-2.53-1.74-4.46-3.88-5.77-6.49-.42-.84,.1-2.08-1.16-2.51-1.02-.35-2.13,.05-3.2,0-.33-.01-.66,.03-.99,0-1.12-.07-1.54,.37-1.72,1.38-.51,2.77-1.22,5.5-3.24,7.78-.41,.47-.32,.95-.15,1.46,1.48,4.62,2.34,9.33,2.55,14.12,.17,3.97,.24,7.96-1.68,11.73-.44,.86-1.35,1.52-1.42,2.79Zm-18.31-82.57c.33,8.21,5.47,14.04,13.31,17.42,.44,.19,.94,.26,1.41,.41,1.02,.33,1.32-.11,1.38-.94,.13-2.08-.22-4.14-.89-6.09-1.18-3.43-2.65-6.79-3.97-10.18-1.34-3.44-.19-5.55,3.61-6.72,2.03-.62,4.07-1.22,6.08-1.87,1.21-.39,1.33-.71,.5-1.55-1.63-1.65-3.61-2.73-6.16-2.91-2.88-.21-5.54,.44-8.22,1.26-2.44,.75-4.17,2.21-5.23,4.13-1.21,2.17-1.92,4.55-1.82,7.04Zm-21.34,4.83c-1.23-1.46-2.71-2.24-4.39-2.67-5.3-1.37-13.3,.81-16.4,5.71-1.41,2.23-2.6,4.55-3.92,6.81-2.27,3.9-4.86,7.53-9.39,9.68-.15,.07-.28,.15-.42,.24-.6,.36-.39,.86,0,1.09,.59,.35,1.21,.7,2,.73,1.57,.05,3.13,.19,4.7,.22,3.49,.07,6.19-1.29,8.27-3.73,1.77-2.07,2.85-4.47,3.92-6.85,2.12-4.7,5.46-8.14,11.17-9.48,1.48-.35,3.02-.72,4.47-1.74Zm56.17,87.97c1.45,.1,2.82-.24,4.05-.84,3.57-1.74,5.91-4.47,7.05-7.88,2.32-6.99-.37-13.28-3.81-19.41-.38-.67-.95-.81-1.58-.28-.42,.35-.8,.74-1.15,1.14-3.64,4.17-4.63,9.16-5.31,14.19-.49,3.65-.86,7.29-2.26,10.78-.64,1.59-.47,1.87,1.29,2.17,.56,.1,1.15,.09,1.72,.14Zm-129.8,6.59c2.34,1.97,4.65,2.81,7.24,3.11,5.61,.65,11.05-.29,16.37-1.72,5.05-1.36,10.03-2.95,15.04-4.46,2.6-.79,5.19-1.61,7.83-2.44-.21-.33-.25-.48-.37-.56-.19-.14-.41-.25-.62-.35-3.31-1.59-6.87-2.07-10.56-1.79-3.21,.25-6.38,.79-9.51,1.48-5.45,1.2-10.75,2.86-16.15,4.22-2.92,.74-5.81,1.58-9.25,2.52Zm10.48-4.55c-.37-.98-1.37-1.1-2.15-1.43-5.38-2.26-11.04-2.28-16.73-1.43-7.9,1.18-15.36,3.82-23.01,5.82-.26,.07-.36,.27-.4,.61,2.54,1.9,5.5,3.05,8.88,3.27,3.73,.24,7.39-.17,11.04-.89,6.44-1.27,12.69-3.14,18.98-4.87,1.13-.31,2.45-.25,3.39-1.09Zm135.76-46.32c-.08-.4-.19-.91-.28-1.41-.59-3.21-2.4-5.81-4.76-8.26-5.38-5.58-12.72-7.29-20.32-8.56-.97-.16-1.47,.27-1.25,1.11,.37,1.42,.64,2.84,1.57,4.14,2.16,3.01,5.26,5.04,8.6,6.8,4.6,2.44,9.28,4.74,13.06,8.22,.63,.58,1.08,1.87,2.17,1.48,1.02-.36,.88-1.63,1.1-2.54,.07-.28,.07-.58,.11-.99Zm-167.72,45.03c-.39-.89-1.1-.98-1.68-1.21-5.7-2.26-11.58-2-17.53-1.05-5.63,.91-10.92,2.82-16.37,4.27-2.1,.56-4.2,1.14-6.3,2.06,.53,.89,1.35,1.17,2.16,1.52,4.16,1.76,8.58,1.66,12.9,1.03,9.15-1.32,17.88-4.09,26.82-6.62Zm151.57-62.8c-.66-3.08-2.56-5.01-5.1-6.54-3.06-1.85-6.54-2.78-10.09-3.49-5.31-1.07-10.3-2.66-14.36-6.05-1.91-1.6-1.92-1.59-3.15,.55-.07,.13-.2,.24-.27,.37-1.27,2.25-.72,4.85,1.33,6.6,2.85,2.43,6.49,3.4,10.12,4.39,3.96,1.08,8.12,1.25,12.13,2.14,3.02,.67,6.04,1.32,9.38,2.04Zm-31.9,25.3c-.58,1.77-1.11,3.26-1.57,4.78-1.18,3.96-2.27,7.94-3.31,11.94-.99,3.84-1.37,7.68-1.11,11.59,.04,.65,.27,1.3,.51,1.93,.48,1.23,1.5,1.65,2.92,1.27,1.74-.47,2.68-1.69,3.38-3.04,1.36-2.6,1.91-5.45,3.05-8.11,1.28-2.98,.86-5.95,.37-8.9-.36-2.16-1.11-4.28-1.82-6.38-.55-1.64-.77-3.42-2.42-5.07Zm49.42,8.74c.11-2.32-.69-4.59-1.54-6.81-1.84-4.83-5.97-7.99-10.48-10.83-.7-.44-1.24-.23-1.63,.39-.37,.6-.38,1.27-.45,1.93-.47,4.39,1.31,8.21,3.7,11.89,.41,.63,.89,1.2,1.24,1.88,1.6,3.06,3.22,6.1,4.18,9.39,.22,.76,.73,.9,1.47,.44,.49-.3,.84-.7,1.17-1.12,1.7-2.12,2.38-4.5,2.33-7.16Zm-44.63,30.73c1.25,1.05,2.44,1.35,3.66,1.56,4.92,.85,9.55-.11,13.82-2.19,4.97-2.42,5.4-7.05,6.22-11.38,.16-.84-.59-.95-1.32-.74-1.18,.33-2.35,.68-3.5,1.06-3.21,1.05-5.95,2.74-8.59,4.66-3.29,2.4-6.74,4.63-10.28,7.04Zm51.08-22.64c-2.46,2.43-4.86,4.46-8.02,5.46-1.73,.55-2.45,1.55-2.62,3.06-.33,2.83-1.55,5.34-3.34,7.69-3.01,3.92-7.65,5.68-12.86,4.77-.73-.13-1.46-.3-2.2-.14-.22,.05-.48,.11-.51,.4-.03,.26,.12,.42,.34,.51,.38,.14,.77,.25,1.17,.34,4.63,1.06,9.14,.7,13.56-.88,9.14-3.27,15.96-11.28,14.49-21.2Zm-1.13-24.5c-.93,2.42-1.85,4.78-4.02,6.34-1.54,1.1-1.33,2.25-.79,3.52,1.34,3.11,1.54,6.31,1.09,9.56-.36,2.59-1.71,4.73-4,6.38-.45,.32-.95,.59-1.38,.94-.66,.53-.58,1.26-.27,1.84,.39,.73,1.12,.39,1.72,.15,3.27-1.28,6.05-3.16,7.72-5.97,3.51-5.9,4.07-12.18,2.23-18.62-.41-1.45-.91-2.93-2.32-4.15Zm-7.13,5.76c1.77,.22,2.24-.63,2.7-1.21,1.7-2.13,2.79-4.55,2.77-7.16-.04-5.81-2.29-10.89-6.96-15.02-2.33-2.06-4.94-3.81-8.28-5.3,.41,2.46,.49,4.56,.06,6.66-.18,.89,.54,1.28,1.24,1.71,2.3,1.44,4.42,3.06,6.21,5.01,2.12,2.32,3.67,4.92,4.29,7.83,.54,2.54,.42,5.14-2.02,7.48Zm-82.43,46.21c.23,.31,.31,.56,.49,.65,4.02,1.91,8.15,3.5,12.67,4.28,7.65,1.33,15.15,.43,22.62-.95,1.21-.22,2.56-.23,4.01-1.11-2.23-1.03-4.36-1.69-6.11-2.87-1.23-.84-2.32-.77-3.66-.29-3.78,1.36-7.75,2.1-11.81,2.37-4.61,.31-9.15-.11-13.18-2.26-1.91-1.02-3.32-.55-5.03,.19Zm49.33-84.88c0,.66,.04,1.32,0,1.98-.08,.99,.37,1.49,1.52,1.58,.64,.05,1.28,.28,1.9,.47,.95,.3,1.5,.07,1.92-.79,1.22-2.57,2.25-5.21,2.78-7.93,.38-1.92,.89-3.89,.47-5.89-.31-1.47-.29-1.51-1.8-1.07-2.19,.63-4.38,1.27-6.56,1.93-2.09,.63-2.4,1.1-1.6,2.87,1,2.21,1.44,4.49,1.38,6.86Zm-33.98,.62c-3.01,.72-5.56,1.32-8.11,1.93-.66,.16-.68,.58-.42,1.03,2.29,3.94,5.17,7.49,8.82,10.52,.85,.71,1.34,.63,1.61-.27,.63-2.1,1.79-3.91,3.37-5.54,.58-.59,.6-1.19-.06-1.75-1.75-1.47-3.18-3.16-4.36-5.03-.27-.42-.58-.93-.84-.89Zm55.65,12.5c.06-1.49-.3-3.11-.88-4.75-1.69-4.8-5.58-7.61-10.47-9.6-.77-.31-1.24-.05-1.49,.65-.45,1.25-.94,2.49-1.41,3.73-.63,1.64-.64,1.68,1.23,2.32,1.78,.61,3.57,1.26,5.05,2.29,2.72,1.9,5.29,3.97,5.64,7.37,.09,.84,.9,1.36,1.74,1.25,.82-.11,.52-.96,.58-1.51,.05-.51,.01-1.03,.01-1.76Zm-38.19-17.58c-.16,.02-.34,.02-.49,.07-4.56,1.49-9.18,2.79-13.82,4.07-.83,.23-.95,.74-.48,1.36,.73,.98,1.42,1.98,2.2,2.91,1.37,1.62,2.73,2.91,5.5,2,1.32-.43,2.47-.98,3.68-1.55,1.61-.76,1.73-1.9,1.91-3.24,.13-.92,.55-1.84,1.18-2.63,.42-.54,.84-1.09,1.18-1.68,.45-.78,.05-1.34-.87-1.32Zm16.77,39.6c.62-.78,1.09-1.15,1.26-1.61,1.53-4.2,1.3-8.4-.23-12.55-.31-.85-.9-.81-1.55,0-.62,.78-1.09,1.71-1.88,2.3-2.17,1.63-2.15,3.28-.71,5.33,1.34,1.9,2.04,4.1,3.11,6.53Zm-88.75,40.44c-6.25-1.92-12.41-1.76-18.8-.55,.6,.7,1.24,.83,1.87,1.01,.63,.18,1.37,.29,1.82,.66,3.2,2.61,6.61,1.83,10.08,.62,.84-.29,1.74-.45,2.61-.68,.78-.21,1.67-.16,2.41-1.06Zm83.17-51.8c.56-.03,.8-.33,1.06-.61,1.78-1.92,3.3-3.96,4.44-6.27,1.49-3.03,1.43-3.25-2.09-3.93-1.12-.22-1.67-.03-1.91,1.03-.5,2.14-1.22,4.23-2.75,6-.5,.57-.59,1.19-.16,1.84,.45,.68,.77,1.43,1.41,1.94Zm20.79,33.09c.37,.1,.45-.17,.56-.34,.22-.31,.45-.63,.55-.97,.88-3.13,2.65-5.78,5.37-7.91,.63-.49,.92-.99,.49-1.72-.74-1.25-1.44-2.53-2.26-3.97-3.5,4.68-5.85,9.37-4.71,14.91Zm-7.56-30.58c.83,0,1.65,.03,2.47-.01,.48-.02,1.06-.05,1.23-.54,.18-.51-.34-.79-.73-1.04-2.33-1.52-3.92-3.54-5.06-5.86-.48-.98-1.22-1.25-2.36-1.12-1.38,.17-1.58,.38-1.01,1.5,.65,1.28,1.19,2.59,1.4,3.98,.48,3.22,.47,3.22,4.04,3.08Zm-16.34-6.83c1.84-2.03,2.36-4.17,2.88-6.31,.12-.49-.13-.89-.66-1.05-2.39-.72-4.7-1.63-7.37-2.81,.34,4.28,3.27,6.88,5.15,10.17Zm26.94,16.22c.45-1.73,.76-3.09,1.16-4.44,.22-.75,.03-1.29-.7-1.69-.77-.42-1.54-.85-2.33-1.25-.78-.4-1.55-.86-2.39-1.12-1.01-.3-1.63,.24-1.33,1.17,.91,2.88,2.59,5.3,5.59,7.32Zm-175.26,39.29c-3.25-2.13-11.57-2.93-14.38-1.33,2.53,.5,4.83,1.28,6.85,2.6,.58,.38,1.19,.48,1.87,.29,1.87-.52,3.74-1.03,5.66-1.56Zm138.4-44.51c-.16,.02-.32,.03-.48,.05-.25,4.75,.23,9.48,.72,14.21,1.36-2.18,1.51-4.64,2.52-6.86,.25-.55,.14-1.17-.12-1.73-.88-1.89-1.76-3.77-2.64-5.66Zm4.58,41.63c2.32-.24,4.02-.41,5.73-.58,.76-.08,1.39-.44,1.09-1.12-.71-1.65-1.32-3.4-3.29-4.58-1.05,2.1-1.65,4.22-3.53,6.29Zm28.48-11.46c-3.02,1.43-5.07,3.7-5.54,6.09,1.33-.32,2.58-.65,3.85-.92,.82-.17,1.32-.56,1.45-1.31,.2-1.22,.64-2.43,.24-3.86Zm-9.51,7.67c-2.56-.46-4.77,.18-6.77,1.39-.59,.36-1.89,.55-1.38,1.48,.37,.66,1.49,.39,2.29,.35,.38-.02,.79-.22,1.13-.42,1.59-.92,3.15-1.87,4.73-2.8Zm-.2-53.05c-.04-.4,.14-1.07-.8-1.18-.75-.09-1.58,.86-1.64,1.84-.04,.59,.4,.73,.91,.75,.95,.03,1.57-.3,1.52-1.4Z"/>
      <path class="cls-13" d="M164.75,182.92c-.73,.04-1.45,.09-2.47,.14,1.6,1.1,3.29,1.07,4.83,1.17,5.85,.35,11.67,.11,17.42-1.01,3.2-.63,6.36-1.46,9.67-1.58,.45-.02,.72-.31,.91-.65,.27,.06,.55,.13,.82,.19,.04,.48,.22,.84,.83,.92,5.24,.67,10.47,.66,15.71,0,.6-.08,.83-.39,.85-.89,.42-.2,.87-.26,1.34-.21,.54,.98,1.54,.7,2.39,.61,.89-.1,1.84-.19,2.65-.44,4.37-1.33,8.59,.1,12.87,.38,.66,.04,1.32,.09,1.97,.09,6.7-.02,13.28-.79,19.75-2.34,.55-.13,1.12-.2,1.69-.31-.03,.1-.04,.19-.03,.29-9.06,2.25-18.25,3.77-27.62,2.15-3.32-.57-6.34-.18-9.49,.35-7.11,1.19-14.26,1.61-21.47,.92-1.23-.12-2.44-.37-3.66-.53-2.2-.28-4.26,.47-6.33,.88-5.5,1.1-11.03,1.9-16.68,1.8-4.75-.08-9.36-.78-13.73-2.52-1.16-.46-2.24-.6-3.56-.26-6.67,1.7-13.5,2.1-20.37,1.38-2.28-.24-4.51-.88-6.72-1.46-.92-.24-1.72-.28-2.64-.04-6.6,1.7-13.36,1.98-20.15,1.51-3-.21-6.05-.6-8.83-1.83,2.59-.09,4.96,.94,7.49,1.21,1.24,.13,2.46,.17,3.69,.18,.64,0,1.11-.23,1.37-.76,.87-.19,1.74-.2,2.61,.02,.51,.94,1.49,.77,2.36,.75,3.6-.08,7.15-.49,10.62-1.39,1.11-.29,2.17-.62,3.33-.16,.74,.29,1.25,0,1.57-.63,3.25,.81,6.57,1.22,9.94,1.39,2.23,.11,4.43-.2,6.64-.11-.21,.4-.52,.85,.36,.89,1.75,.09,3.4-.42,5.09-.69,1.53-.24,3.1-.36,4.54-.94,.83-.33,1.59-.03,2.36,.27,1.13,.44,2.27,.85,3.42,1.22,.72,.23,1.09-.08,1.08-.76,1.19,.26,2.38,.52,3.58,.78Z"/>
      <path class="cls-13" d="M80.06,164.16c.82-.06,1.64-.12,2.45-.19,.5,.01,.99,.03,1.49,.04,.01,.3,.03,.61,.04,.91-.21,.13-.42,.27-.62,.4-.44,.06-.89,.13-1.33,.19-3.5,.26-6.9,.89-10.19,1.98-.25,.06-.5,.13-.75,.19-.58-.08-1.14-.12-1.57,.33-.16,0-.3,.05-.41,.16-.28-.05-.51,.02-.67,.24-.13-.04-.24-.01-.34,.06-1.95-.14-3.7,.6-5.54,.97-1.53,.3-3.04,.7-4.56,1.03-.4,.09-.87,.12-1.01-.36-.13-.43,.23-.71,.61-.84,.53-.18,1.12-.22,1.67-.37,2.07-.56,4.26-.8,6.45-1.76-2.56-2.12-5.55-2.59-8.55-3.07,0,0-.01-.01-.01-.01-.01-.3-.02-.59-.03-.89,2.32-.35,4.65-.69,6.97-1.04,.67,.14,1.34,.16,1.99-.09,1.32,0,2.64,.02,3.96,.02,.18,.01,.36,.02,.54,.04,1.72,.32,3.44,.64,5.16,.96,1.33,.64,2.59,1.48,4.25,1.09Zm-4.06,.56c-4.26-1.38-8.35-1.6-13.03-.88,1.77,.99,3.23,1.61,4.46,2.56,.53,.41,1.21,.38,1.88,.22,.95-.23,1.92-.4,2.83-.71,1.18-.41,2.61-.17,3.86-1.19Z"/>
      <path class="cls-13" d="M56.62,176.9c.78-.35,1.4,.03,2.05,.33,3.77,1.76,7.76,2.99,11.9,3.84-.05,.48-.32,.77-.89,.75-.78-.03-1.55-.07-2.33-.1-.25-.07-.5-.13-.75-.2-.78-.36-1.56-.91-2.38-.07-.52,.29-1.03,.59-1.55,.88-.39-.05-.75-.04-.93,.35,0,0-.05,.03-.05,.03-1.32,.3-2.63,.6-3.95,.9-.17-.15-.33-.3-.5-.45,.25-.96,1.2-1.06,2.04-1.34,1.08-.36,2.33-.45,3.25-1.47-1.89-.74-3.59-1.42-5.3-2.09,0,0-.03-.03-.03-.03-.04-.24-.17-.4-.47-.42-.03-.3-.07-.61-.1-.91Z"/>
      <path class="cls-9" d="M67.35,181.71c.78,.03,1.55,.07,2.33,.1,.57,.02,.84-.27,.89-.75,.4-.09,.74,.03,1.05,.25-.03,.65,.38,.85,1.04,.96,3.41,.59,6.84,.52,10.26,.21,.85-.08,1.84,0,2.79-.51-1.67-.68-3.2,.35-4.67-.22,1.77-.52,3.61-.38,5.42-.52,0,.63,.34,.97,1.06,.84,.88-.16,1.73-.4,2.61-.55,1.43-.25,2.87-.55,4.29,.06-2.77-.28-5.35,.68-8.02,1.03-6.19,.83-12.32,.71-18.42-.59-.23-.05-.42-.21-.63-.32Z"/>
      <path class="cls-9" d="M199.26,164.13c-.13-.64-.64-.71-1.25-.7-.79,0-1.58-.03-2.37-.04,3.88-.97,7.79-.81,11.7-.22,.53,.08,1.01,.43,1.52,.66-.76,.26-1.41-.16-2.1-.26-.86-.12-1.97-.66-2.5,.56-1.66,.13-3.33,.15-4.99,0Z"/>
      <path class="cls-11" d="M84.04,164.93c-.01-.3-.03-.61-.04-.91,1.14-.55,2.55,0,3.64-.72,.28-.04,.56-.08,.84-.12,.65,.09,1.28,.03,1.91-.15,1.25-.37,1.34,.11,.93,1.01-.1,.23,.08,.56,.13,.84-2.47,.01-4.95,.03-7.42,.04Z"/>
      <path class="cls-7" d="M80.06,164.16c-1.66,.39-2.93-.44-4.25-1.09,1.59-.18,2.95,.36,4.25,1.09Z"/>
      <path class="cls-7" d="M87.64,163.3c-1.1,.72-2.51,.17-3.64,.72-.5-.01-.99-.03-1.49-.04,.17-.61,.69-.73,1.29-.72,1.28,.01,2.56,.03,3.84,.05Z"/>
      <path class="cls-13" d="M200.64,181.65c2.31,0,4.62,0,6.93,.01,.39,.45,.73,.37,1.03-.08,1.48-.1,2.96-.21,4.45-.31-.02,.5-.25,.81-.85,.89-5.24,.66-10.47,.67-15.71,0-.61-.08-.79-.44-.83-.92,1.32,.11,2.64,.22,3.95,.33,.3,.46,.64,.55,1.04,.08Z"/>
      <path class="cls-13" d="M81.04,181.75c1.47,.57,3-.46,4.67,.22-.95,.51-1.94,.43-2.79,.51-3.42,.31-6.85,.38-10.26-.21-.65-.11-1.07-.32-1.04-.96,1.15,.07,2.31,.04,3.43,.35,.3,.46,.64,.62,1.04,.08,1.65,0,3.3,0,4.95,0Z"/>
      <path class="cls-9" d="M201.09,181.63c-.4,.46-.74,.38-1.04-.08,.37-.2,.71-.16,1.04,.08Z"/>
      <path class="cls-9" d="M209.05,181.57c-.3,.45-.64,.53-1.03,.08,.32-.25,.66-.29,1.03-.08Z"/>
    </g>
  </g>
  <path class="cls-13" d="M175.5,99.53l1-1.01c.75,.18,1.21-.32,1.77-.6,4.28-2.14,8.64-4.13,13.45-5.18,.2,.29,.36,.59,.26,.94-.53,.09-1,.29-1.4,.63-4.79,1.41-9.34,3.28-13.38,6.01-.74,.5-2.01,.99-1.63,1.98,.35,.92,1.7,.74,2.63,.85,1.13,.14,2.3,.01,3.45,.03,.43,0,.87,.15,.91,.58,.05,.49-.45,.58-.85,.58-2.68,0-5.46,.6-7.9-.97-.06-.45-.13-.91-.19-1.36,.17-.37,.35-.74,.52-1.11,.7-.26,1.06-.79,1.36-1.37Z"/>
  <path class="cls-8" d="M190.58,94.31c.4-.33,.86-.54,1.4-.63-.17,.74-.75,.74-1.4,.63Z"/>
  <path class="cls-8" d="M173.62,102.01c.06,.45,.13,.91,.19,1.36-.65-.39-.62-.85-.19-1.36Z"/>
</svg>