<?xml version="1.0" encoding="UTF-8"?>
<svg id="Layer_1" data-name="Layer 1" xmlns="http://www.w3.org/2000/svg" viewBox="0 0 414 200">
  <defs>
    <style>
      .cls-1 {
        fill: #f7b7d3;
      }

      .cls-2 {
        fill: #00bef2;
      }

      .cls-3 {
        fill: #edeae0;
      }

      .cls-4 {
        fill: #fff9b8;
      }

      .cls-5 {
        fill: #fff200;
      }

      .cls-6 {
        fill: #e8e5dc;
      }

      .cls-7 {
        fill: #fbb040;
      }

      .cls-8 {
        fill: #fdfdfd;
      }

      .cls-9 {
        fill: #9ed2f1;
      }

      .cls-10 {
        fill: #b9ac97;
      }

      .cls-11 {
        fill: #c2c0bc;
      }

      .cls-12 {
        fill: #45413c;
      }

      .cls-13 {
        fill: #70675c;
      }

      .cls-14 {
        fill: #35302e;
      }

      .cls-15 {
        fill: #767474;
      }

      .cls-16 {
        fill: #4b4642;
      }

      .cls-17 {
        fill: #514c4c;
      }
    </style>
  </defs>
  <path class="cls-4" d="M291.83,57.09c-2.5,.24-4.92,.9-7.29,1.75-.22,.02-.44,.05-.65,.07-7.01,1.61-14.03,3.2-21.04,4.84-8.18,1.91-16.37,3.82-24.53,5.84-2.05,.51-2.97-.23-3.26-2.24-.17-1.16-.33-2.32-.54-3.47-.31-1.66,.29-2.52,1.94-2.52,3.4-.79,6.81-1.55,10.2-2.37,6.73-1.63,13.42-3.41,20.24-4.67,2.7-.5,5.53-.92,8.02-2.4,1.14,.11,2.26,.13,3.21-.71,.94-.16,1.9-.28,2.83-.5,9.27-2.16,18.55-4.25,27.79-6.55,5.76-1.43,11.61-2.44,17.27-4.31,.33,.02,.66,.03,.98,.05,1.52,.4,1.93,1.55,1.89,3.03-.05,1.74-.06,3.47-.1,5.21-5.9,1.45-11.81,2.9-17.71,4.35-.49,.09-.99,.18-1.48,.27-.16,.06-.33,.12-.49,.18-5.44,1.26-10.89,2.51-16.33,3.77-.17,.08-.34,.17-.51,.25,0,0,.02-.01,.02-.01-.15,.05-.3,.09-.45,.14Z"/>
  <path class="cls-9" d="M164.47,7.73c1.8,5.23,3.05,10.63,5.15,15.78,2.42,5.94,4.42,12.06,6.78,18.05,2.79,7.08,6.41,13.73,9.32,20.73,.25,.59,.63,.92,1.2,1.08,.6,1.32,1.18,2.66,1.81,3.96,.35,.73,.91,1.41,.08,2.17-1.71-.03-3.39,.43-4.92,1.06-2.13,.87-3.14-.31-3.96-1.88-2.17-4.16-3.8-8.59-6.05-12.72-2.24-4.11-3.44-8.73-5.48-12.98-2.41-5.03-3.65-10.6-5.83-15.78-2.34-5.53-3.43-11.55-5.61-17.19"/>
  <path class="cls-9" d="M92.57,181.26c2-.2,3.99-.41,5.83-1.34,.18-.04,.37-.08,.55-.13,1.27,0,2.18,.77,3.14,1.49,1.73,1.29,3.64,2.22,5.68,2.85-.04,.35-.09,.71-.13,1.06-.87,.11-1.77,.09-2.6,.35-4.18,1.27-8.47,1.74-12.77,1.91-6.53,.25-12.89-.56-18.53-4.47,.62-1.78-.92-3.11-.89-4.76,.17-.21,.35-.43,.52-.64,.55-.26,1.1-.52,1.65-.78,.17,.64,.26,1.31,.94,1.65,5.28,2.6,10.73,4.13,16.62,2.81Z"/>
  <path class="cls-9" d="M275.38,184.72c-5.75,.99-11.47,1.13-17.09-.8-2.48-.85-5.01-1.6-7.17-3.32,2.21-2.18,4.16-2.35,6.94-.95,6.32,3.2,12.61,2.4,18.38-1.86,1.03-.76,1.94-1.46,3.26-1.02,.47,.28,.94,.56,1.42,.84,.2,.04,.4,.08,.61,.12,1.11,1.14,2.74,.54,4.36,1.49-2.66,1.83-5.27,3.24-7.93,4.55-.5,.17-1.01,.33-1.51,.5,0,0,.07,0,.07,0-.44,.16-.88,.31-1.32,.47Z"/>
  <g>
    <path class="cls-12" d="M196.05,150.56c-.08-.7-.16-1.41-.24-2.12,.34-.88,.27-1.68-.43-2.35-.39-.84-.3-1.72-.24-2.6,.59-.7,.6-1.37-.11-2-.3-1.86-.47-3.72-.23-5.6,.38-.45,.38-.89,.01-1.35-.15-1.21-.17-2.42,.14-3.61,.35,0,.69,0,1.04,.01,.17,8.05-.08,16.11,2.73,23.88,1.18,3.26,2.43,6.48,3.67,9.71,.49,1.27,1.72,1.48,2.62,1.26,1.24-.3,.47-1.54,.33-2.31-1.56-8.37-1.46-16.77-.8-25.23,.38-4.84,1.87-9.59,1.5-14.43-.4-5.29-.41-10.53,.27-15.76,.51-3.94,1.21-7.75,3.96-11,2.1-2.49,4.38-4.35,8.09-5.42-2.12-.75-3.49-1.12-4.92-.63-3.21,1.12-6.03,2.7-8.16,5.72-2.19,3.12-3.71,6.49-4.98,10.05-.53,.44-.41,1.05-.38,1.64-.84,3.65-1.8,7.27-2.49,10.95-.6,3.15-.9,6.37-1.33,9.56-.88-.37-.27-1.53-.97-2-.08-1.07-.19-2.13,.28-3.15,.08-.62,.94-1.13,.25-1.87,.18-1.36,.36-2.73,.53-4.09,.07-.25,.15-.51,.22-.76,.04-1.67,.13-3.33,.91-4.84,.04-.31,.08-.63,.13-.94-.09-.17-.06-.32,.06-.46,1.18-.14,.86-1.11,.96-1.86-.02-1.34,.64-2.48,1.02-3.69,.34-.24,.4-.6,.38-.99,.04-.18,.09-.35,.13-.53,.4-.25,.35-.69,.41-1.08,1.26-2.33,1.07-3.99-1.32-5.69-4.27-3.04-7.8-7.02-10.53-11.62-1.57-2.64-3.37-4.01-6.41-3.18-.83,.23-1.74,.11-2.61,.15-.49-.16-.95-.2-1.32,.28-.4,.03-.79,.06-1.19,.09-.57-.02-1.16-.19-1.67,.25-.35,.03-.69,.05-1.04,.08-.37-.47-.66-.36-.92,.12-.66,.13-1.32,.25-1.97,.38-1.11-.38-2.13,.27-3.21,.27-.55,.11-1.09,.22-1.64,.34-.76,.07-1.56-.2-2.28,.3-.65,.08-1.31,.16-1.96,.23-.13-.02-.25,0-.37,.06-.27,.14-.54,.28-.81,.42-.33,.4-.31,.75,.15,1.02,.67,.41,1.11,1.02,1.44,1.75,.12,.55,.49,.74,.98,.76,.17,.35,.34,.7,.51,1.05,.02,.18,.03,.36,.05,.54-.15,1.87-1.72,1.06-2.63,1.52-.25,.07-.5,.15-.75,.22-3.39,.58-6.78,.55-10.17-.03-.55-.86-1.35-.85-2.2-.7-1.72-.67-3.8-.76-4.53-3.04-.04-.16-.09-.33-.13-.49-.52-1.72,.17-3.23,1.31-4.16,1.82-1.49,3.51-3.28,5.81-4.05,.65,.04,1.39,.33,1.71-.62,.26-.12,.53-.24,.79-.36,.2-.08,.41-.16,.61-.24,.6-.31,1.12-.83,1.87-.74,.16-.04,.33-.09,.49-.13,.39-.43,.86-.52,1.4-.39,.4,.06,.77,.04,1.06-.31,1.01-.3,1.92-1.02,3.06-.76,.65,.07,1.35,.37,1.78-.46,1.12-.31,2.23-.62,3.35-.94,.5,.01,1.01,.11,1.42-.31,2.41-.6,4.73-1.61,7.25-1.63,0,.33,.01,.66,.02,1-.52,.55-1.21,.42-1.84,.49-.16,.03-.32,.07-.48,.1-1.66,.49-3.31,.99-4.97,1.48-.95,.28-1.9,.57-2.84,.85-4.15,.62-8.24,1.48-12.04,3.44-1.96,.72-3.88,1.54-5.45,3-3.78,3.51-4.99,4.46,.75,7.06,.08,.07,.16,.1,.26,.11,3.67,.89,7.36,1.25,11.09,.45,.67-.14,1.62,.22,1.89-.66,.25-.8-.64-1.25-.99-1.87-.6-1.08-2.28-1.64-1.64-3.29,.63-1.63,2.28-1.22,3.52-1.59,.37-.11,.79-.06,1.18-.08l2.31-.19c1.34-.27,2.66-.61,4.01-.8,12.53-1.76,25.19-2.5,37.55-5.56,4.74-1.18,9.53-2.13,14.28-3.25,.85-.2,2.06-.32,1.46-1.91-.81-2.17-1.55-4.37-2.33-6.55,0-.44,0-.87,0-1.31-.67-1-1.47-.55-2.33-.34-10.09,2.45-20.18,4.85-30.27,7.27-.05-.33-.1-.67-.14-1,.83-.76,.27-1.44-.08-2.17-.63-1.31-1.21-2.64-1.81-3.96,0-.56,.04-1.11,.61-1.4,.27,.53,.54,1.05,.81,1.58,.08,.15,.16,.3,.24,.45,.24,.51,.48,1.02,.72,1.53,.07,.16,.14,.32,.21,.47,.97,2.6,2.78,2.75,5,1.94,.97-.36,2.02-.48,3.03-.71,.56,.51,1.03,.47,1.39-.24,1.73-.66,3.46-1.27,5.33-1.3,.47,.54,.74,.27,.93-.27,.33-.1,.65-.2,.98-.29,1.12,.58,1.92-.18,2.78-.71,.52-.08,1.05-.16,1.57-.25,.49,.56,.74,.26,.93-.28,2.59-.68,5.17-1.38,7.76-2.02,.99-.24,1.39-.7,1.5-1.85,.53-5.77,2.77-10.5,8.43-12.28,5.28-1.67,9.91-.08,13.68,4.15,.86,.96,1.64,2.01,2.6,2.83,1.33,1.15,2.69-.23,4.06-.18,.24-.02,.49-.03,.74-.05,.56-.13,1.12-.25,1.67-.38,0,.43,.15,.76,.55,.93-.05,.11-.11,.21-.17,.32-5.78,1.41-11.56,2.81-17.81,4.33,1.15,1.05,1.85,.63,2.51,.63-.17,.35-.34,.7-.51,1.05-1.65,0-2.25,.85-1.94,2.52,.21,1.15,.37,2.31,.54,3.47,.3,2.01,1.22,2.75,3.26,2.24,8.16-2.02,16.35-3.93,24.53-5.84,7.01-1.64,14.03-3.23,21.04-4.84,.22-.02,.44-.05,.65-.07,2.37-.85,4.79-1.5,7.29-1.75,.24,.26,.37,.15,.45-.14,0,0-.02,.01-.02,.01,.17-.08,.34-.17,.51-.25,5.44-1.26,10.89-2.51,16.33-3.77,.16-.06,.33-.12,.49-.18,.49-.09,.99-.18,1.48-.27,.32,1.71-1.38,.93-1.86,1.66-1.29,.8-2.73,.83-4.16,.93-.81-.17-1.46,.24-2.12,.63-2.71,.62-5.33,1.65-8.13,1.83-.18,.05-.36,.1-.54,.15-.43,.34-.91,.4-1.43,.34-.15,.03-.31,.06-.46,.08-.38,.4-.87,.47-1.38,.46-.2,.04-.39,.09-.59,.13-.75,.13-1.49,.27-2.24,.4-.45-.09-.87-.06-1.16,.38-.26,.04-.53,.07-.79,.11-.21,.07-.42,.13-.64,.2-.4,.12-.8,.23-1.2,.35-.23,.03-.47,.05-.7,.08-.49,.1-.98,.21-1.48,.31-.15,.05-.29,.09-.44,.14-.63,.54-1.39,.52-2.14,.51-1.16-.14-2.21,.24-3.23,.76-7.08,1.72-14.15,3.44-21.23,5.16-1.64,.4-3.28,.78-4.92,1.13-.4,.09-.8,.12-.87,.65-.07,.53,.27,.69,.69,.83,1.21,.4,2.39,.95,3.63,1.26,3.82,.95,7.49,2.3,10.89,4.37,.5,.3,1.03,.39,1.61,.37,10.77-.28,19.62,3.97,27.02,12.09,2.16,2.37,5.13,3.87,7.62,5.96,6.44,5.4,9.85,12.3,10.18,20.83,.15,3.8,1.4,7.24,2.26,10.85,1.3,5.42,1.82,11.03,.85,16.64-.5,.5-.74,1.08-.49,1.8-.06,.39-.12,.77-.18,1.16-.87,.03-1,.65-.98,1.38-.16,.38-.32,.77-.47,1.15-.67,.88-.69,1.72,.11,2.53,.24,.81,.28,1.63,.08,2.45-.64,.04-1.11-.21-1.07-.94,.09-1.65-.99-1.55-2.02-1.55,5.82-9.3,3.19-18.95,1.43-29.31-1.6,2.28-2.23,4.32-3.99,5.49-.81,.54-.35,1.37,.09,1.97,3.1,4.24,2.96,9.11,1.9,13.84-.89,4.02-2.9,7.54-7.27,8.65-1,.25-1.8,3.27-1.11,4.57,.79,1.46,1.82,.41,2.64-.04,2.2-1.21,4.04-2.93,5.89-4.64,.46,.25,.5,.73,.58,1.18-2.12,2.54-4.73,4.43-7.69,5.65-1.3,.53-1.82,1.07-2.01,2.57-1.17,9.54-7.87,15-16.77,13.69-1.01-.15-1.66,.21-2.43,.57-.76,.43-.82,.92-.11,1.47h0c.01,.48-.11,.87-.58,1.06-1.31-.44-2.23,.27-3.26,1.02-5.77,4.26-12.06,5.06-18.38,1.86-2.78-1.41-4.73-1.23-6.94,.95,2.16,1.72,4.69,2.47,7.17,3.32,5.62,1.93,11.34,1.79,17.09,.8,.51,.04,.97-.09,1.36-.44,.43,.4,.36,.78-.04,1.15-.76-.29-1.29,.05-1.7,.69-.83,.3-1.67,.42-2.55,.3-.79-.09-1.62-.42-2.28,.37-1.61,.29-3.21,.28-4.81-.02-.51-.65-1.16-.47-1.8-.33-3.3-.55-6.2,1.66-9.45,1.47-1.99,.64-4.21-.23-6.12,1-.93,.36-1.89,.43-2.88,.29-1.75-.62-3.5-.63-5.24,0-1.15,.12-2.28,.03-3.38-.37-.26-.48-.56-.62-.95-.15-.64-.12-1.29-.23-1.93-.35-1.12-.84-2.37-1.08-3.72-.91-.41,.02-.83,.03-1.24,.05-.5-.18-.95-.19-1.31,.29-.7,.06-1.39,.11-2.09,.17-.63-.14-1.27-.3-1.76,.34-.26,.03-.52,.05-.78,.08-.32,0-.64,0-.96,.01-.13,0-.26-.02-.39-.03-1.49-.55-3.38,.93-4.6-.99,3.12-.39,6.32-.02,9.63-1.07-2.33-1.75-4.5-3.16-6.38-4.91-1.03-.96-1.83-1.18-3.16-.98-6.06,.91-12.21,2.56-17.56-2.54-1.19-1.14-3.02,0-3.91,.92-1.04,1.08,.63,1.77,1.28,2.35,3.29,2.93,7.25,4.41,11.4,5.42,0,.67-.68,.73-.93,1.17-.99-.2-1.97-.39-2.96-.59-1.02-.69-1.67,.04-2.35,.66-.24,.04-.48,.07-.73,.11-.8-.19-1.43,.27-2.1,.59-.48,.3-1.01,.3-1.54,.2-.4-.47-.7-.31-.94,.17-.62,.3-1.26,.46-1.94,.34-.36-.47-.66-.36-.93,.09-.76,.02-1.52,.05-2.29,.07-.28,0-.55,.02-.83,.03-2.5,.18-4.99,.25-7.45-.33,0-.42-.01-.84-.02-1.25,3.12,.03,6.24,.16,9.36,.07,3.02-.09,6.04-.35,9.25-1.74-2.81-1.69-5.51-2.76-7.2-5.19-.93-1.35-1.96-1.48-3.31-.97-2.43,.92-4.97,1.29-7.51,1.59-4.31,.51-8.5-.27-11.67-3.35-2.17-2.11-3.87-1.99-6.05-.67,1.71,3.26,5.14,5.99,10.39,8.26,.22,.14,.44,.28,.65,.42l.77,.17c.46,1.78-.93,.51-1.33,.88-.21-.1-.42-.19-.63-.29-.42-.52-.94-.74-1.59-.59-1-.49-2-.19-3,0-.45-.09-.86-.06-1.14,.4-1.08,.19-2.16,.39-3.24,.58-.68-.01-1.38,.07-2.04-.05-1.32-.24,.03-.61,0-.92,1.98-.43,3.96-.87,5.95-1.3-2.16-1.8-4.04-3.54-5.48-5.71-.88-1.32-1.74-1.54-3.21-1.14-5.37,1.45-10.84,2.11-16.39,1.59-2.31-.22-4.91-.36-6.53-2.03-1.66-1.7-3-1.25-4.66-.65-.36,.13-.86,.05-.94,.57-.1,.57,.34,.85,.71,1.18,4.39,3.96,9.47,6.36,15.15,7.47,1.42,1.7-.83,.6-.84,1.21-1.88-.39-3.77-.78-5.65-1.17-.49-.12-.93-.08-1.21,.44-.62,.31-1.28,.41-1.96,.3-.38-.45-.89-.3-1.36-.29,0,0-.08-.11-.08-.1,.02-.15,.04-.31,.04-.47,.77-.57,1.89-.28,2.59-1.12-3.16-1.33-5.77-3.46-8.22-5.76-.96-.9-1.72-1.15-2.96-.81-2.69,.75-5.41,1.41-8.16,1.9-5.78,1.01-11.58,1.87-16.9-1.86-.13-.09-.27-.21-.41-.25-.76-.2-1.6-.05-1.95,.57-.46,.81,.49,1.1,.97,1.39,1.57,.96,3.18,1.83,4.78,2.73-.08,.36-.17,.73-.25,1.09-2.04-.63-3.95-1.56-5.68-2.85-.96-.72-1.87-1.49-3.14-1.49-.18,.04-.37,.08-.55,.13-1.84,.93-3.84,1.14-5.83,1.34,0-.4,0-.81,0-1.21,7.27-1.49,14.03-4.5,20.78-7.55,.54-.24,1.44-.26,1.41-1.11-.02-.73-.8-1.01-1.33-1.33-5.53-3.28-11.4-3.69-17.42-1.99-7.11,2-13.62,5.6-20.33,8.65-.22,.03-.45,.05-.67,.08-.55,.26-1.1,.52-1.65,.78-.33-.38-.57-.8-.5-1.35,.31-.19,.61-.38,.92-.57,3.5-1.48,6.99-2.96,10.66-4.51-.77-.94-1.48-1.41-2.14-1.98-2.33-1.99-5.34-2.46-7.81-4.1-.55-1.92,1.13-1.86,1.96-2.03,5.46-1.15,10.7-.38,15.44,2.75,1.52,1,2.86,1.3,4.48,.65,.44-.18,.93-.36,1.4-.35,5.33,.11,10.27-1.73,15.33-3.13,6.18-1.71,12.17-1.12,18.26,1.47,3.04,1.29,6.87,.67,10.28-.35,.42,.06,.74-.11,.98-.45,.79-.24,1.58-.48,2.38-.73,.51,.05,1.04,.18,1.48-.24,.3-.06,.61-.11,.91-.17,.39,.13,.75,.09,1.03-.26,.31-.04,.62-.09,.94-.13l.5-.03c2.24,.04,4.48,.08,6.72,.12,.42,.5,.94,.45,1.49,.33,.97,.39,2.11,.57,2.87,1.22,3.12,2.67,6.8,2.44,10.45,2.49,1.87,.02,3.2-1.37,4.82-2.02,5.24-2.11,10.23-2.45,14.96,1.38,1.79,1.45,3.55,.58,3.85-1.73,.1-.74,.22-1.49,.45-2.19,.91-2.75,1.31-6.07,1.03-9.02,0-.73,.26-1.52-.44-2.1Zm54.52,9.42v-.02c-.26-.99-1.28-1.03-1.87-1.72,.09,2.42,.34,4.75,.64,7.06,.07,.57,.53,.77,1.04,.8,1.08,1.52,2.49,.57,3.66,.34,.98-.19,1.51-1,.32-2.04-1.14-.99-2.07-2.24-3.09-3.38-.07-.46-.29-.82-.7-1.04Zm27.74,.14c.02,.47,.04,.94,.06,1.41,.56,.92,1.55,.43,2.28,.76-2.59,1.44-5.21,2.83-7.78,4.33-5.06,2.97-10.26,5.71-14.97,9.31-.62,.48-2.13,1.03-.33,1.99,3.85,2.03,7.91,2.83,12.1,1.63,5.75-1.64,9.69-5.73,13.06-10.7,1.8-2.66,3.19-5.51,4.63-8.36,.4-1.27-1.56-.61-1.31-1.76,.51-.56,1.24-.53,1.88-.71,0,1.36,.02,2.72,.03,4.09-1.07,2.78-2.03,5.61-4.21,7.75-.49,.48-1.06,1.36-.94,1.89,.2,.89,1.22,.42,1.88,.5,6.9,.87,12.11-4.93,13.34-11.25,.7-3.59,.67-7.16,.54-10.75-.1-2.61-.38-5.24-1.27-7.8-3.02,1.79-3.92,4.93-5.43,7.61-1.33,.96-2.36,0-3.45-.58,.66-.97,4.13-.21,1.86-2.93-2.24-2.68-2.91-5.7-2.77-9.08,.43-.09,.86-.18,1.3-.27-.2,3.44,1.47,6.13,3.16,8.99,1.23-1.65,2.13-3.44,3.52-4.57,1.3-1.07,1.53-2.12,.98-3.41-1.44-3.36-2.09-6.97-3.02-11.01-.76,1.14-1.19,1.93-1.76,2.6-.94,1.11-.84,2.9-2.24,3.69-.64,.37-.54,.98-.47,1.58-.04,.59-.09,1.18-.13,1.76-.43-.12-.85-.24-1.28-.37-.14-.97,.09-1.85,.58-2.67,.1-.45,.19-.9,.29-1.35,.3-2.12,1.83-3.49,3.07-4.9,1.53-1.75,1.01-2.54-.71-3.29-2.21-.95-3.59-2.82-4.46-4.99-1.5-3.73-2.96-7.51-2.9-11.69,.01-.99,.21-2.04-1.27-2.17-7.26-.64-12.59-4.64-16.74-10.65-.45-.66-.8-1.14-1.34-.16-1.86,3.31-5.07,4.95-7.95,6.99-.55,.39-1.18,.35-.57,1.34,1.65,2.68,2.54,5.68,3.07,8.8,.06,.18,.13,.37,.19,.55,.07,.35,.14,.7,.21,1.05-.44,0-.89,0-1.33,0-1.03-5.52-4.11-10.13-6.05-15.71-.49,1.15-.78,1.83-1.08,2.51-.61,1.41-2.38,2.29-2.18,3.96,.21,1.77,2.2,2.27,3.16,3.6,2.05,2.84,4.17,5.61,6.27,8.43,.54-.53,.26-1.16,.37-1.71,.32-.03,.64-.05,.96-.08,.14,.97,.16,1.95,.31,2.94,.37,2.48,1.73,4.3,2.91,6.35,1.72,2.99,2.89,6.32,4.46,9.41,3.42,6.73,5.56,13.75,4.92,21.47-.06,.74-.02,1.41,.63,1.73,1.83,.92,2.82,2.52,3.73,4.34,.77,1.53,.64-.29,.99-.44,.4,0,.8-.01,1.2-.01Zm-30.2,6.19c-1.71-3.71-4.79-5.95-8.2-8.57,0,2.63,0,4.78,0,6.92,0,4.79,1.16,5.73,5.41,4.34,.83,.16,1.49-.42,2.26-.57,1.67-.31,1.4-1.13,.53-2.13Zm26.81-72.57c1.9,.75,3.9,.66,5.88,.7,.94,.11,1.88,.22,2.83,.33,.43,.43,.96,.37,1.49,.33,1.07,.34,1.83,.33,1.26-1.21-1.31-3.53-3.7-6.21-6.98-7.46-7.8-2.95-15.54-.94-23.31,1.04,5.77,3.85,12.17,5.48,18.84,6.26Zm-23.63,93.48c.17-.03,.33-.05,.5-.08,1.89-.44,3.78-.88,5.67-1.32-1.99-1.41-4.17-2.03-6.08-3.29-1.12-.73-2.34-1.37-3.75-1.26-.39-.07-.75-.03-1.03,.31l-1.45,.14c-.73-1.25,.8-.79,.95-1.37,6.64-1.41,11.38-6.48,17.08-9.7,.56-.32,1.54-.63,1.36-1.51-.18-.86-1.2-1-1.88-1.36-.4-.21-.94-.1-1.42-.13-3.85-.27-7.56,.26-11.29,1.45-6.41,2.05-12.59,4.72-18.89,7.05-.37,.14-.85,.19-.83,.72,.02,.46,.42,.67,.8,.82,2.72,1.1,5.42,2.27,8.26,3,.59,.09,1.05,.31,1.02,1.05-.64-.05-1.28-.11-1.92-.16-.56-.52-1.23-.35-1.88-.36-2.57-.64-5.1-1.4-7.33-2.94-.86-.59-1.79-.81-2.74-.52-1.94,.59-3.86,1.3-5.88,2,6.41,6.4,14.09,8.11,22.38,8.05,2.8-.02,5.57-.3,8.35-.58Zm-43.67-77.41c-.38,4.37-.33,8.74-.05,13.11,.43,5.35,.58,10.69,2.3,15.91,1.13,3.42,1.57,7.14,2.49,10.69,1.11,4.33,2,8.73,5.88,11.58,1.35,.99,1.82,2.9,3.29,3.92,.72,.5,1.35,1.04,2.12,.43,.86-.68,.06-1.37-.23-1.97-.95-1.99-2.1-3.88-2.96-5.91-2.94-6.91-3.94-14.4-5.41-21.69-1.83-9.09-1.87-18.44-1.57-27.75,.15-4.51,1.29-8.68,3.79-12.41,.47-.7,1.34-1.2,1.26-2.52-2.25,.66-4.28,1.43-5.81,3.27-3.18,3.83-5.06,8.2-5.1,13.34Zm62.88,42.13c-.04-4.55-.85-8.88-2.6-12.8-2.65-5.91-5.09-11.94-8.5-17.49-2.76-4.5-5.55-9.03-8.99-12.91-4.8-5.42-10.22-10.22-15.83-14.76-1.06-.86-2.28-2.28-3.48-1.64-1.38,.74-1.32,2.72-1.39,4.31-.01,.24,.11,.49,.11,.74,.16,5.87,4.09,9.39,7.87,12.59,6.86,5.8,12.56,12.47,16.74,20.57,.23,.44,.46,.88,.71,1.31,3.91,6.52,8.54,12.64,10.33,20.35,.53,2.28,2.74,1.94,4.14,2.19,1.33,.24,.5-1.71,.88-2.46Zm-22.86,9.88c-.73-4.22-.73-8.69-3.37-12.37-.49-.69-.84-1.38-1.17-2.12-2.02-4.41-3.52-9.05-5.15-13.61-2.47-6.9-4.14-14.12-6.07-21.22-1.03-3.76-1.39-7.69-2.77-11.38-1.01-2.7-1.33-5.5-.11-8.28,.49-1.12-.08-1.41-.99-1.15-1.89,.53-3.22,1.76-3.9,3.72-3.76,10.98-1.29,21.43,2.85,31.57,2.1,5.15,4.2,10.33,6.51,15.41,3.43,7.54,6.42,15.2,14.18,19.44Zm-23.79-68.8c-3.83,.84-5.41,3.14-6.57,5.89-1.7,4.02-2.07,8.4-2.4,12.64-.55,7.16,1.01,14.25,1.68,21.36,.94,9.93,3.08,19.53,7.42,28.51,1.81,3.73,1.75,3.66,5.8,3.31,1.73-.15,1.71-.82,1.29-2.22-2.87-9.64-4.53-19.53-5.66-29.53-.41-3.63-.54-7.3-1.87-10.8-1.34-3.54-2.23-7.35-2.73-11.04-.82-5.99-.88-12.18,3.03-18.11Zm35.67,71.66c-1.52-2.52-3.36-4.88-4.51-7.58-2.55-6.01-4.3-12.34-5.98-18.66-1.48-5.55-2.43-11.24-3.02-16.99-.11-1.09-.64-2.06-1.36-2.89-3.4-3.89-7.74-6.71-11.08-10.65-.28-.32-.67-.43-1.21,.01,.58,.82,.9,1.8,1.13,2.81,1.61,6.93,2.93,13.9,5.56,20.59,2.19,5.57,3.74,11.38,6.36,16.84,2.29,4.75,5.02,9.07,8.28,13.07,1.44,1.76,3.33,2.98,5.83,3.45Zm-26.39-100.53c-.14-5.5,.82-6.5,4.97-6.83,1.56-.12,3.09-.78,4.6-1.27,.76-.24,.86-.69,.4-1.51-2.42-4.37-9.13-7.09-13.63-5.45-4.84,1.77-7.47,6.6-6.78,12.36,.39,3.26,1.35,6.35,2.43,9.4,1.84,5.19,4.8,7.23,10.12,7.28,1.88,.02,2.45-.31,1.45-2.33-1.95-3.95-3.37-8.12-3.58-11.66Zm-8.23,10.14c-8.78,1.97-17.29,3.89-25.89,5.82,2.21,4.31,5.8,7.06,8.76,10.4,.81,.91,1.74,.56,2.62,.06,2.73-1.54,5.7-1.5,8.37-.37,3.04,1.28,5.84,1.16,8.79,.12,.6-.21,1.23-.33,1.86-.46,.45-.09,1.02,.06,1.17-.58,.18-.75-.42-1.01-.88-1.32-1.33-.9-2.89-1.55-3.96-2.71-2.79-3.02-3.98-4.92-.84-10.96Zm14.53,14.39c.24-.03,.88-.11,1.51-.18,6.86-.72,13.5-2.64,20.22-4.09,1.04-.23,2.88,.33,2.98-.71,.13-1.41-1.58-2.04-2.8-2.65-6.56-3.27-13.46-3.15-20.43-2.19-4.6,.63-9.2,1.71-13.35-1.69-1.53-1.26-3.18-.27-3.19,1.97,0,1.08,.08,2.24,.88,3.27,3.59,4.55,8.42,6.01,14.17,6.27Zm-28.76,91.17c8.2-.53,16.92-3.77,25.53-7.34,1.39-.58,3.99-.45,3.92-2.08-.08-2.08-2.67-2.5-4.34-3.41-.21-.11-.45-.17-.68-.23-5.86-1.67-11.4,.02-16.87,1.9-5.53,1.89-10.66,4.83-16.04,7.12-.53,.23-1.5,.29-1.37,1.1,.08,.54,.72,1.13,1.25,1.42,2.31,1.28,4.84,1.59,8.6,1.52Zm-104.83-2.48c.93,.65,1.23,.9,1.57,1.08,3.47,1.88,7.17,1.57,10.82,1.08,9.82-1.33,19.06-4.9,28.34-8.28,.38-.14,.83-.27,.87-.74,.05-.58-.45-.87-.84-1.12-4.24-2.77-8.84-3.88-13.77-2.91-9.46,1.86-17.59,7.27-27,10.89Zm65.65-1.52c3.43,3.51,7.42,4.58,11.9,4.2,5.56-.47,10.75-2.42,15.85-4.56,3.71-1.56,7.48-3.02,10.96-5.28-3.73-2.82-6.07-3.52-10.82-3.4-7.44,.19-14.15,3.16-20.85,6.07-2.26,.98-4.76,1.36-7.04,2.97Zm76.3-52.88c.19,1.82,.27,2.88,.42,3.92,.49,3.43,1.49,6.73,2.26,10.09,1.98,8.62,4.45,17,8.85,24.65,1.49,2.58,3.49,4.56,6.49,5.65-.51-4.63-2.45-8.68-1.95-13.11,.3-2.63-.44-5.06-1.63-7.22-3.45-6.27-7.04-12.45-10.66-18.62-.97-1.66-2.21-3.16-3.78-5.35Zm59.97,14c.54-2.02-.78-3.49-1.27-5.2-1.79-6.22-6.1-10.63-10.08-15.27-.16-.18-.34-.37-.55-.47-.89-.41-1.47-.37-1.58,.91-.34,4.04,.03,8.05,1.16,11.88,1.79,6.05,3.34,12.13,4.2,18.39,.31,2.21,.76,2.58,2.74,1.63,.97-.46,1.77-1.18,2.34-2.11,1.83-2.98,2.73-6.3,3.05-9.77Zm-127.19,33.45c-3.2-1.97-6.22-2.41-9.22-2.7-11.25-1.07-21.23,3.87-31.48,7.49-.25,.09-.58,.43-.59,.67-.03,.44,.35,.71,.73,.87,1.94,.77,3.88,1.46,6,1.59,12.07,.71,23.14-3.2,34.55-7.92Zm123.13-53.13c0-2.92-.5-5.45-1.76-7.57-4.67-7.84-11.18-12.84-20.26-13.57-1.23-.1-2.91-1.16-3.56-.05-.67,1.13,1.25,1.79,1.89,2.78,2.49,3.83,5.83,6.86,9.24,9.71,3.72,3.12,7.66,5.95,10.72,9.86,.79,1.01,1.73,2.61,2.86,2.14,1.13-.47,.78-2.35,.87-3.31Zm-8.56-17.78c.24-3.59-.62-6.75-2.4-9.44-4.76-7.21-11.86-10.6-19.75-12.46-1.52-.36-3.16-.86-5.05-.34,1.16,1.69,2.51,2.87,3.06,4.52,.49,1.46,1.36,1.74,2.71,1.85,6.94,.56,12.19,3.65,14.42,11,.22,.73,.32,1.6,1.11,1.81,2.11,.55,3.78,2.03,5.88,3.06Zm.97-7.12c.31,1.79,1,3.62,.85,5.36-.23,2.59,.94,4.18,2.41,5.91,4.5,5.34,7.76,11.05,4.5,18.51-.46,1.06,.44,2,1.13,2.56,.86,.68,1.08-.57,1.58-.98,1.79-1.5,2.41-3.57,2.76-5.85,.95-6.28-.96-11.75-4.07-16.95-2.24-3.75-5.66-6.14-9.15-8.55Zm-89.22,40.11c-.24,.76-.48,1.21-.53,1.69-.92,8.59-1.27,17.19-.16,25.78,.46,3.58,.66,7.41,4.82,8.87,.47,.17,.76,.95,1.42,.5,.57-.39,.43-1.03,.4-1.6-.13-2.34-.4-4.72,.24-6.98,.44-1.56,.33-2.88-.2-4.35-1.58-4.35-2.5-8.92-3.96-13.32-1.08-3.27-1.34-6.83-2.03-10.58Zm-11.14-51.9c-2.14,.25-4.28,.54-6.42,.74-1.31,.12-1.2,.67-.63,1.59,2.62,4.29,5.87,8.01,9.57,11.29,1.36,1.2,2.58,3.56,4.25,3.12,1.47-.38,2.44-2.64,3.78-3.9,1.06-1,1.01-1.63-.07-2.54-2.91-2.47-5.38-5.38-7.64-8.51-.67-.93-1.48-1.94-2.84-1.79Zm31.7,52.2c-.41,1.72,.28,3.29,.44,4.89,.78,7.63,1.87,15.23,3.9,22.61,.7,2.54,2.02,4.85,4.86,5.53,.64,.15,1.42,.52,1.36-.59-.2-3.62,.63-7.28-.77-10.88-2.55-6.54-6.29-12.49-8.56-19.17-.27-.8-.27-1.85-1.23-2.4Zm22.03-58.1c-.59,1.57,.25,2.08,1.76,2.17,1.2,.07,2.4,.23,3.57,.47,4.11,.82,8.13,1.79,10.89,5.57,1.09,1.49,2.75,.76,3.7,.06,.98-.72-.39-1.65-.77-2.46-.18-.36-.45-.72-.76-.97-4.62-3.72-9.84-6.07-15.5-7.5-2.23-.56-3.22,.01-2.89,2.66Zm-120.05,90.93c-4.76-3.64-17.95-2.15-20.69,.81,2.36,.83,4.77,1.52,6.62,3.31,1.12,1.08,2.12,1,3.44,.3,3.32-1.76,6.78-3.18,10.63-4.42Zm121.46-74.29c.03-2.93-.26-3.18-3.06-2.39-1.3,.37-2.99-.05-3.87,.99-.89,1.05-.12,2.74-.34,4.13-.04,.25-.01,.54-.13,.73-1.94,3.27-.34,5.26,2.27,6.89,.07,.04,.13,.1,.18,.16,.87,.99,1.55,.63,2.02-.4,1.48-3.21,2.99-6.41,2.94-10.11Zm14.34,65.53c.42,2.17,.69,4.58,1.38,6.85,1.05,3.46,1.65,3.61,4.72,1.95,.77-.42,1.58-.78,2.37-1.14,1.39-.64,1.78-1.55,1.32-3.18-.76-2.73-6.75-6.09-8.79-6.19-1.26-.06-.86,.86-1,1.71Zm-103.06,9.7c-2.89-4.05-15.02-3.71-19.4-.88,2.11,1.2,4.43,1.95,6.06,3.86,.33,.39,.83,.45,1.33,.26,3.87-1.48,7.9-2.39,12.01-3.24Zm123.43-59.56c-.4,3.54,.22,6.18,.93,8.79,.8,2.94,2.18,5.51,4.86,7.07,.41,.24,.81,.69,1.29,.4,.49-.29,.28-.87,.29-1.36,.03-2.16-.1-4.35,.17-6.48,.15-1.19-.13-1.85-.89-2.58-1.99-1.9-4.52-3.05-6.65-5.84Zm-37.52-33.61c0-1.06-.01-1.56,0-2.06,.05-1.75-.21-2.58-2.31-1.86-2.55,.88-5.28,1.18-7.94,1.71-.74,.15-1.38,.13-1.06,1.36,.86,3.34,2.77,4.85,5.99,4.49,.56-.06,1.12-.1,1.68-.14q3.59-.27,3.65-3.49Zm14.96,19.99c-.08-.27-.1-.44-.18-.58-.3-.55-5.61-2.35-6.18-2.04-1.81,.96-3.49,2.29-4.43,4.07-.72,1.37,.99,2.63,1.43,4.03,.54,1.68,1.62,1.51,2.8,.78,2.13-1.33,3.92-3.13,5.74-4.86,.39-.37,.58-.97,.82-1.39Zm18.79,10.49c-3.83-5.53-7.3-10.75-14.54-9.55,3.34,5.27,7.97,8.57,14.54,9.55Zm-106.5,62.5c4.44,2.5,8.67,3.54,13.13,1.1,.41-.22,1.03-.41,1.14-.77,.24-.74-.55-.92-.99-1.15-4.47-2.35-8.79-1.72-13.29,.82Zm-97.84-1.63c2.82,1.61,5.7,2.51,7.67,4.94,.43,.53,.97,.49,1.53,.26,1.33-.55,2.64-1.13,3.97-1.66,1.3-.51,1.02-1.04,.05-1.59-2.83-1.61-5.85-2.57-9.07-2.73-1.31-.06-2.7-.32-4.14,.78ZM242,93.41c-.19-1.07,1.04-3.1-1.32-3.26-2.46-.17-4.93,.07-7.31-.86-.39-.15-1.02-.19-1.21,.44-.19,.61,.31,.77,.71,1.08,2.29,1.77,4.55,3.6,6.82,5.41,.42,.34,.72,1.08,1.35,.82,.63-.26,.8-.98,.86-1.67,.05-.58,.07-1.16,.11-1.95Zm-28.02,71.11c0,3.92,.13,4.05,3.06,3.09,3.5-1.15,3.53-1.18,1.1-4.34-.87-1.13-1.72-3.2-3.06-2.72-1.42,.52-.93,2.73-1.09,3.98Zm-15.3,.98c.38-.8,2.31,.65,1.87-1.07-.37-1.47-.4-4.11-2.29-4.07-1.86,.04-1.73,2.54-1.88,4.06-.17,1.69,1.31,.86,2.29,1.08Zm53.04-72.96c1.82-1.05,3.14-1.78,3.32-3.15,.08-.65-1.41-1.82-2.2-1.46-1.76,.81-.32,2.65-1.12,4.61Z"/>
    <path class="cls-16" d="M156.96,10c2.19,5.64,3.28,11.66,5.61,17.19,2.19,5.19,3.42,10.76,5.83,15.78,2.04,4.25,3.24,8.87,5.48,12.98,2.25,4.13,3.88,8.56,6.05,12.72,.82,1.57,1.83,2.75,3.96,1.88,1.53-.63,3.2-1.09,4.92-1.06,.05,.33,.1,.67,.14,1-4.33,1.23-8.68,2.39-13.11,3.15,0-.33-.01-.66-.02-1,.07-.04,.13-.09,.21-.13q3.43-1.47,1.6-5.25c-2.71-5.56-5.25-11.2-7.74-16.88-2.17-4.95-3.62-10.17-5.83-15.05-2.56-5.62-6.48-18.87-8.78-24.53"/>
    <path class="cls-16" d="M165.96,7.96c2.3,9.97,4.84,14.24,8.24,23.81,1.67,4.71,3.21,9.62,5.61,14,2.64,4.83,3.91,10.36,7.22,14.81,.28,.38,.34,.93,.51,1.4-.58,.29-.61,.84-.61,1.4-.57-.16-.95-.49-1.2-1.08-2.91-7-6.53-13.65-9.32-20.73-2.36-5.99-4.36-12.11-6.78-18.05-2.1-5.16-3.35-10.56-5.15-15.78"/>
  </g>
  <path class="cls-16" d="M258.16,52.56c4.8-1.25,9.59-2.57,14.41-3.75,9.11-2.22,18.24-4.33,27.35-6.52,9.03-2.17,18.05-4.39,27.08-6.59,.91-.22,1.82-.52,1.79,1.03-6.75,1.68-13.5,3.39-20.26,5.03-10.47,2.54-20.95,5.05-31.44,7.54-6.14,1.46-12.3,2.84-18.45,4.26-.16-.33-.32-.67-.49-1Z"/>
  <path class="cls-4" d="M258.65,53.56c6.15-1.42,12.31-2.8,18.45-4.26,10.48-2.49,20.96-5,31.44-7.54,6.76-1.64,13.51-3.35,20.26-5.03,.04,.53,.09,1.07,.13,1.6-.99,.07-2.03-.13-2.92,.52-1.18,.24-2.36,.43-3.53,.71-7.8,1.9-15.58,3.84-23.38,5.71-6.77,1.63-13.56,3.2-20.35,4.74-.81,.18-.89,.52-.61,1.19-.95,.84-2.07,.82-3.21,.71,.13-1.32-.62-.75-1.2-.62-7.11,1.69-14.21,3.36-21.32,5.05-.04-.34-.08-.67-.13-1.01,.06-.1,.12-.21,.17-.32,0,0,.21,.03,.21,.03l.19-.09c2.1,.26,3.88-.89,5.81-1.41Z"/>
  <path class="cls-17" d="M278.14,183.77c2.66-1.31,5.27-2.72,7.93-4.55-1.61-.95-3.25-.35-4.36-1.49,0-.33,0-.67,0-1,.07-.08,.14-.16,.21-.24,4.26,1.2,8.41,1.72,12.56-.72,6.11-3.59,10.63-8.84,14.66-14.65,.51-.16,1.02-.33,1.53-.49-1.5,5.25-5.67,8.32-9.13,11.91-2.41,2.5-5.2,5.03-8.59,5.59-4.08,.67-6.97,3.42-10.42,5.15-1.35,.68-2.57,1.76-4.21,1.63-.06-.37-.11-.75-.17-1.12Z"/>
  <path class="cls-17" d="M73.73,182.97c5.64,3.91,12,4.72,18.53,4.47,4.3-.17,8.6-.64,12.77-1.91,.83-.25,1.73-.24,2.6-.35,.53,.11,.74,.5,.79,1.02-4.96,1.47-9.99,2.52-15.16,2.73-2.81,.12-5.63,.23-8.37-.32-3.12-.63-6.12-.83-9.12,.4-.53,.22-1.1,.52-1.41-.25-.24-.59,.15-.93,.65-1.1,1.95-.68,1.09-1.31-.02-1.97-.76-.45-1.5-.95-2.25-1.42,.03-.34,.05-.68,.08-1.02,.3-.09,.6-.19,.9-.28Z"/>
  <path class="cls-9" d="M74.48,165.07c2.47,1.63,5.48,2.1,7.81,4.1,.66,.57,1.37,1.03,2.14,1.98-3.66,1.55-7.16,3.03-10.66,4.51,0-2.72,0-5.43,.03-8.15,.01-.86-.31-1.86,.67-2.44Z"/>
  <path class="cls-17" d="M311.08,52.49c5.9-1.45,11.81-2.9,17.71-4.35,.69,1.53-.5,1.73-1.37,1.94-4.81,1.17-9.62,2.35-14.47,3.35-1.23,.26-2.4,1.02-3.73,.72,.48-.73,2.18,.04,1.86-1.66Z"/>
  <path class="cls-17" d="M148.5,187.54c.01-.61,2.26,.49,.84-1.21,1.62,.23,3.23,.45,4.85,.68,1.52,1.16,4.81,1.13,6.21-.06,1.46-.2,2.91-.4,4.37-.6,.04,.31-1.31,.68,0,.92,.66,.12,1.36,.04,2.04,.05-6.09,1.46-12.19,1.58-18.31,.21Z"/>
  <path class="cls-17" d="M133.4,188.05c-5.64,.92-11.21,.44-16.74-.87,.54-.63,1.1-.19,1.69-.07,.77,.15,1.69,.66,2.12-.6,1.13,.15,2.27,.3,3.4,.45,1.42,1.21,6.15,1.23,7.65,.04,.33-.02,.67-.03,1-.05,.05,.58,.42,.87,.87,1.1Z"/>
  <path class="cls-17" d="M207.13,187.7c.25-.44,.94-.5,.93-1.17,.33,.1,.66,.2,.99,.3,.95,1.65,2.61,1.35,3.97,1.27,.83-.05-.04-.6-.25-.9,1.33,.05,2.66,.09,3.98,.14,1.22,1.92,3.11,.44,4.6,.99-4.78,.82-9.52,.5-14.22-.64Z"/>
  <path class="cls-17" d="M176.41,187.24c.4-.37,1.79,.9,1.33-.88,1.77,.47,3.54,.95,5.31,1.42,0,.42,.01,.84,.02,1.25-2.3-.26-4.6-.54-6.66-1.8Z"/>
  <path class="cls-17" d="M309.27,151.74c-.08-.45-.12-.93-.58-1.18,.14-.17,.27-.35,.41-.52,1.03,0,2.11-.1,2.02,1.55-.04,.73,.43,.98,1.07,.94,.24,1.62,.04,3.18-.57,4.69-.22-.49,.2-1.16-.43-1.62-.18,1-.23,2.01-.97,2.72,0,0-.02-.07-.02-.07,.12-2.04,.81-4.02,.54-6.1-.06-.45,.22-1.16-.39-1.23-.32-.04-.72,.53-1.08,.83Z"/>
  <path class="cls-14" d="M108.43,186.21c-.05-.52-.26-.91-.79-1.02,.04-.36,.09-.71,.13-1.06,.08-.36,.17-.73,.25-1.09,1.74,.62,3.48,1.23,5.23,1.85,.15,.16,.29,.33,.44,.49-.14,.28-.29,.57-.43,.85-.47-.16-.94-.32-1.41-.49-.25-.52-.56-.69-.96-.15-.82,.21-1.64,.42-2.46,.62Z"/>
  <path class="cls-12" d="M113.26,186.22c.14-.28,.29-.57,.43-.85,.16-.03,.33-.06,.49-.09,2.09,.41,4.19,.82,6.28,1.23-.43,1.26-1.36,.75-2.12,.6-.59-.12-1.14-.56-1.69,.07-1.19-.08-2.34-.34-3.4-.96Z"/>
  <path class="cls-12" d="M258.65,53.56c-1.92,.52-3.71,1.67-5.81,1.41,.82-2,3.02-1.05,4.25-2.17,.36-.08,.72-.16,1.07-.24,.16,.33,.32,.67,.49,1Z"/>
  <path class="cls-17" d="M239.87,189.2c1.75-.63,3.5-.63,5.24,0-1.75,.32-3.5,.29-5.24,0Z"/>
  <path class="cls-16" d="M257.09,52.8c-1.23,1.13-3.43,.17-4.25,2.17l-.19,.09s-.21-.03-.21-.03c-.4-.17-.54-.51-.55-.93,1.65-.8,3.41-1.09,5.19-1.3Z"/>
  <path class="cls-17" d="M247.99,188.9c1.9-1.24,4.12-.36,6.12-1-1.97,.8-4.03,.98-6.12,1Z"/>
  <path class="cls-16" d="M196.01,130.94c-.35,0-.69,0-1.04-.01-.19-1.34-.03-2.67,.18-3.99,.7,.47,.1,1.63,.97,2-.04,.67-.08,1.34-.11,2.01Z"/>
  <path class="cls-15" d="M326,38.85c.9-.65,1.93-.45,2.92-.52,.08,1.49-1.2,1.16-1.93,1.58-.33-.02-.66-.03-.98-.05,0-.34,0-.67-.01-1.01Z"/>
  <path class="cls-17" d="M136.82,187.72c-.63,.25-1.28,.33-1.95,.19,.01-.39,.02-.77,.03-1.16,.33-.08,.65-.16,.98-.24-.01,.68,.68,.76,.94,1.21Z"/>
  <path class="cls-17" d="M229.89,187.42c1.35-.16,2.6,.08,3.72,.91-1.32,.04-2.53-.41-3.72-.91Z"/>
  <path class="cls-12" d="M136.82,187.72c-.25-.45-.95-.53-.94-1.21,.61-.3,1.25-.36,1.91-.23,.15,.14,.29,.28,.44,.43,0,0,.08,.11,.08,.1-.17,.25-.33,.5-.5,.75-.33,.05-.66,.1-.99,.15Z"/>
  <path class="cls-17" d="M201.82,187.77c.68-.62,1.33-1.36,2.35-.66-.74,.38-1.48,.79-2.35,.66Z"/>
  <path class="cls-12" d="M134.91,186.75c-.01,.39-.02,.77-.03,1.16-.49,.05-.99,.09-1.48,.14-.45-.23-.82-.52-.87-1.1,.79-.07,1.59-.13,2.38-.2Z"/>
  <path class="cls-16" d="M208.96,64.42c-.86,.53-1.66,1.29-2.78,.71,.92-.26,1.76-.85,2.78-.71Z"/>
  <path class="cls-12" d="M310.22,158.32c.74-.71,.79-1.72,.97-2.72,.63,.46,.21,1.13,.43,1.62-.04,.3-.08,.59-.12,.89-.11,.26-.21,.52-.32,.78-.09,.3-.19,.61-.28,.91-.25-.54-.51-1.07-.76-1.61,0,0,.08,.14,.08,.14Z"/>
  <path class="cls-16" d="M168.24,83.8c1.08,0,2.1-.66,3.21-.27-1.05,.37-2.13,.36-3.21,.27Z"/>
  <path class="cls-16" d="M198.49,108.96c-.09,.75,.22,1.72-.96,1.86-.22-.92,.46-1.34,.96-1.86Z"/>
  <path class="cls-17" d="M276.41,61.93c1.02-.51,2.07-.89,3.23-.76-1.02,.51-2.09,.8-3.23,.76Z"/>
  <path class="cls-6" d="M73.36,177.57c-.17,.21-.35,.43-.52,.64-.37-.67-1.69-1.34,.02-1.99-.07,.54,.17,.97,.5,1.35Z"/>
  <path class="cls-16" d="M195.04,141.49c.71,.63,.69,1.3,.11,2l-.11-2Z"/>
  <path class="cls-17" d="M312.12,150.07c-.8-.81-.78-1.66-.11-2.53,.04,.84,.07,1.69,.11,2.53Z"/>
  <path class="cls-16" d="M270.16,186.78c.66-.79,1.49-.46,2.28-.37-.7,.56-1.47,.58-2.28,.37Z"/>
  <path class="cls-12" d="M310.66,160.61c-.51,.16-1.02,.33-1.53,.49,.11-.33,.22-.66,.33-.98,.11-.15,.21-.3,.32-.45,.13-.53,.25-1.07,.38-1.6l-.03,.1c.25,.54,.51,1.07,.76,1.61-.08,.27-.16,.55-.24,.82Z"/>
  <path class="cls-17" d="M137.82,187.57c.17-.25,.33-.5,.5-.75,.48,0,.98-.16,1.36,.29-.57,.38-1.19,.55-1.86,.46Z"/>
  <path class="cls-16" d="M195.39,146.09c.7,.67,.77,1.47,.43,2.35-.48-.72-.51-1.52-.43-2.35Z"/>
  <path class="cls-11" d="M158.05,162.52c-.54,.12-1.07,.17-1.49-.33,.66-.71,1.17-.65,1.49,.33Z"/>
  <path class="cls-16" d="M198.94,66.98c-.36,.71-.84,.75-1.39,.24,.46-.08,.93-.16,1.39-.24Z"/>
  <path class="cls-17" d="M198.99,188.47c.67-.32,1.3-.78,2.1-.59-.6,.59-1.33,.69-2.1,.59Z"/>
  <path class="cls-17" d="M223.48,188.27c.5-.64,1.13-.48,1.76-.34-.52,.51-1.13,.5-1.76,.34Z"/>
  <path class="cls-16" d="M148.56,91.29c.84-.15,1.65-.15,2.2,.7-.8,0-1.53-.24-2.2-.7Z"/>
  <path class="cls-16" d="M195.68,121.92c.69,.73-.17,1.24-.25,1.87-.08-.65-.08-1.28,.25-1.87Z"/>
  <path class="cls-16" d="M163.8,75.53c-.43,.83-1.14,.53-1.78,.46,.52-.46,1.12-.62,1.78-.46Z"/>
  <path class="cls-16" d="M152.73,78.92c-.32,.95-1.06,.66-1.71,.62,.44-.61,1.12-.47,1.71-.62Z"/>
  <path class="cls-17" d="M302.94,55.72c.66-.39,1.31-.79,2.12-.63-.58,.66-1.34,.67-2.12,.63Z"/>
  <path class="cls-16" d="M196.05,150.56c.7,.57,.43,1.37,.44,2.1-.38-.65-.62-1.32-.44-2.1Z"/>
  <path class="cls-16" d="M194.82,134.54c.36,.45,.37,.9-.01,1.35-.33-.45-.32-.9,.01-1.35Z"/>
  <path class="cls-16" d="M263.55,186.43c.64-.14,1.29-.31,1.8,.33-.65,.2-1.27,.19-1.8-.33Z"/>
  <path class="cls-17" d="M312.48,146.39c-.01-.73,.11-1.34,.98-1.38,.23,.89-.56,.99-.98,1.38Z"/>
  <path class="cls-17" d="M313.64,143.85c-.25-.72,0-1.3,.49-1.8,.02,.65,.03,1.3-.49,1.8Z"/>
  <path class="cls-16" d="M164.32,84.43c.71-.49,1.51-.22,2.28-.3-.73,.34-1.49,.44-2.28,.3Z"/>
  <path class="cls-11" d="M146.47,162.67c-.44,.42-.97,.29-1.48,.24,.43-.48,.87-.97,1.48-.24Z"/>
  <path class="cls-17" d="M274.99,186.12c.42-.64,.94-.98,1.7-.69-.47,.48-1.06,.66-1.7,.69Z"/>
  <path class="cls-17" d="M174.19,186.36c.65-.15,1.17,.08,1.59,.59-.58-.04-1.23,.1-1.59-.59Z"/>
  <path class="cls-17" d="M235.54,188.69c.39-.48,.7-.34,.95,.15-.35,.17-.66,.11-.95-.15Z"/>
  <path class="cls-3" d="M72.82,183.25c-.03,.34-.05,.68-.08,1.02-.23-.15-.63-.27-.66-.45-.07-.52,.37-.54,.74-.57Z"/>
  <path class="cls-16" d="M211.45,63.89c-.19,.54-.44,.84-.93,.28,.31-.09,.62-.19,.93-.28Z"/>
  <path class="cls-17" d="M141.64,186.81c.28-.52,.72-.56,1.21-.44-.31,.43-.71,.58-1.21,.44Z"/>
  <path class="cls-16" d="M178.25,82.6c.36-.48,.83-.44,1.32-.28-.38,.39-.82,.47-1.32,.28Z"/>
  <path class="cls-17" d="M170.06,186.75c.27-.46,.68-.49,1.14-.4-.29,.4-.65,.61-1.14,.4Z"/>
  <path class="cls-16" d="M205.2,65.42c-.19,.54-.45,.8-.93,.27,.31-.09,.62-.18,.93-.27Z"/>
  <path class="cls-16" d="M173.42,83.14c.25-.48,.55-.59,.92-.12-.28,.29-.59,.3-.92,.12Z"/>
  <path class="cls-11" d="M148.41,162.23c-.28,.35-.63,.4-1.03,.26,.2-.68,.49-1.01,1.03-.26Z"/>
  <path class="cls-17" d="M287.02,59.48c.29-.44,.71-.47,1.16-.38-.28,.48-.69,.54-1.16,.38Z"/>
  <path class="cls-17" d="M227.33,187.76c.36-.48,.82-.48,1.31-.29-.37,.41-.82,.46-1.31,.29Z"/>
  <path class="cls-11" d="M142.62,163.64c-.25,.34-.57,.51-.98,.45,.12-.64,.32-1.1,.98-.45Z"/>
  <path class="cls-17" d="M110.89,185.58c.4-.55,.7-.37,.96,.15-.34,.09-.68,.17-.96-.15Z"/>
  <path class="cls-17" d="M196.51,188.83c.25-.48,.54-.64,.94-.17-.28,.27-.59,.33-.94,.17Z"/>
  <path class="cls-17" d="M193.64,189.27c.27-.45,.57-.57,.93-.09-.29,.27-.6,.26-.93,.09Z"/>
  <path class="cls-16" d="M163.75,88.69c-.49-.03-.86-.22-.98-.76,.37,.19,1.03-.01,.98,.76Z"/>
  <path class="cls-16" d="M168.57,74.29c-.41,.42-.92,.32-1.42,.31,.47-.1,.95-.21,1.42-.31Z"/>
  <path class="cls-16" d="M175.38,82.95c.51-.44,1.1-.27,1.67-.25-.53,.29-1.08,.4-1.67,.25Z"/>
  <path class="cls-16" d="M250.23,54.48c-.25,.02-.49,.03-.74,.05,.22-.37,.48-.18,.74-.05Z"/>
  <path class="cls-12" d="M278.14,183.77c.06,.37,.11,.75,.17,1.12-.77,.42-1.62,1.06-1.68-.62,.5-.16,1.01-.33,1.51-.5Z"/>
  <path class="cls-16" d="M200.44,102.67c-.06,.39-.01,.83-.41,1.08-.06-.44,.02-.83,.41-1.08Z"/>
  <path class="cls-17" d="M275.38,184.72c.44-.15,.88-.31,1.32-.47,0,0,.03,.03,.04,.03-.39,.35-.85,.48-1.36,.44Z"/>
  <path class="cls-16" d="M158.96,76.75c-.29,.35-.67,.37-1.06,.31,.35-.1,.71-.21,1.06-.31Z"/>
  <path class="cls-16" d="M161.33,86.18c-.46-.28-.48-.62-.15-1.02,.05,.34,.1,.68,.15,1.02Z"/>
  <path class="cls-16" d="M199.89,104.28c.02,.39-.04,.75-.38,.99,.13-.33,.25-.66,.38-.99Z"/>
  <path class="cls-16" d="M197.47,111.28c-.04,.31-.08,.63-.13,.94,.04-.31,.08-.63,.13-.94Z"/>
  <path class="cls-17" d="M311.19,158.88c.11-.26,.21-.52,.32-.78-.11,.26-.21,.52-.32,.78Z"/>
  <path class="cls-16" d="M196.43,117.06c-.07,.25-.15,.51-.22,.76,.07-.25,.15-.51,.22-.76Z"/>
  <path class="cls-16" d="M160.93,92.02c.25-.07,.5-.15,.75-.22-.25,.07-.5,.15-.75,.22Z"/>
  <path class="cls-16" d="M164.31,90.28c-.02-.18-.03-.36-.05-.54,.06,.12,.13,.24,.17,.37,.01,.04-.08,.12-.12,.18Z"/>
  <path class="cls-17" d="M221.74,188.36c.32,0,.64,0,.96-.01-.32,.2-.64,.25-.96,.01Z"/>
  <path class="cls-16" d="M143.9,87.75c.04,.16,.09,.33,.13,.49-.07-.1-.15-.2-.2-.32-.02-.04,.04-.12,.07-.18Z"/>
  <path class="cls-17" d="M190.52,189.37c.28,0,.55-.02,.83-.03-.27,.21-.55,.24-.83,.03Z"/>
  <path class="cls-16" d="M162,84.73c.12-.06,.24-.08,.37-.06,0,0-.17,.13-.17,.13l-.2-.07Z"/>
  <path class="cls-16" d="M154.14,78.32c-.2,.08-.41,.16-.61,.24,.2-.08,.41-.16,.61-.24Z"/>
  <path class="cls-16" d="M156.5,77.45c-.16,.04-.33,.09-.49,.13,.16-.04,.33-.09,.49-.13Z"/>
  <path class="cls-16" d="M189.51,66c-.07-.16-.14-.32-.21-.47,.07,.16,.14,.32,.21,.47Z"/>
  <path class="cls-16" d="M188.58,64c-.08-.15-.16-.3-.24-.45,.08,.15,.16,.3,.24,.45Z"/>
  <path class="cls-11" d="M149.85,162.07l-.5,.03c.15-.28,.31-.29,.5-.03Z"/>
  <path class="cls-17" d="M281.78,60.67c.15-.05,.29-.09,.44-.14-.15,.05-.29,.09-.44,.14Z"/>
  <path class="cls-17" d="M283.69,60.22c.23-.03,.47-.05,.7-.08-.23,.03-.47,.05-.7,.08Z"/>
  <path class="cls-17" d="M285.6,59.79c.21-.07,.42-.13,.64-.2-.21,.07-.42,.13-.64,.2Z"/>
  <path class="cls-17" d="M290.43,58.7c.2-.04,.39-.09,.59-.13-.2,.04-.39,.09-.59,.13Z"/>
  <path class="cls-17" d="M292.39,58.11c.15-.03,.31-.06,.46-.08-.15,.03-.31,.06-.46,.08Z"/>
  <path class="cls-17" d="M294.28,57.69c.18-.05,.36-.1,.54-.15-.18,.05-.36,.1-.54,.15Z"/>
  <path class="cls-7" d="M270.5,151.95c-.37,.75,.45,2.69-.88,2.46-1.39-.25-3.61,.1-4.14-2.19-1.78-7.71-6.42-13.82-10.33-20.35-.25-.43-.49-.87-.71-1.31-4.18-8.11-9.88-14.78-16.74-20.57-3.78-3.2-7.72-6.71-7.87-12.59,0-.25-.13-.5-.11-.74,.08-1.6,.01-3.57,1.39-4.31,1.2-.64,2.42,.78,3.48,1.64,5.61,4.53,11.03,9.34,15.83,14.76,3.44,3.88,6.23,8.41,8.99,12.91,3.41,5.56,5.85,11.58,8.5,17.49,1.76,3.92,2.56,8.25,2.6,12.8Z"/>
  <path class="cls-4" d="M165.71,76.58c.95-.28,1.9-.57,2.84-.85,.34,3.05,1.95,1.85,3.43,1.12,3.73-.87,7.46-1.72,11.18-2.61,9.07-2.18,18.14-4.33,27.18-6.63,2.65-.67,5.44-.89,7.93-2.2,1.1-.18,2.2-.35,3.3-.53,.77,2.19,1.51,4.38,2.33,6.55,.6,1.59-.61,1.71-1.46,1.91-4.75,1.12-9.54,2.07-14.28,3.25-12.36,3.07-25.02,3.8-37.55,5.56-1.35,.19-2.67,.53-4.01,.8-.8-.28-1.56-.16-2.31,.19-.4,.02-.81-.04-1.18,.08-1.24,.38-2.89-.04-3.52,1.59-.64,1.65,1.04,2.21,1.64,3.29,.35,.63,1.24,1.08,.99,1.87-.28,.88-1.23,.51-1.89,.66-3.73,.8-7.42,.45-11.08-.45,0,0-.09-.17-.09-.17l-.17,.06c-5.74-2.6-4.53-3.55-.75-7.06,1.57-1.45,3.49-2.28,5.45-3,.02,.4,.05,.8,.07,1.2q-4.06,2.66-4.65,4.4c.24,0,.55,.1,.68-.01,4.03-3.59,8.86-5.3,13.89-6.59,.74-.19,1.84-.18,2.05-1.39,0-.35,0-.7,0-1.05Z"/>
  <path class="cls-7" d="M247.64,161.82c-7.76-4.23-10.74-11.9-14.18-19.44-2.32-5.08-4.41-10.25-6.51-15.41-4.14-10.14-6.6-20.58-2.85-31.57,.67-1.97,2-3.19,3.9-3.72,.91-.26,1.48,.03,.99,1.15-1.21,2.78-.9,5.58,.11,8.28,1.38,3.68,1.74,7.62,2.77,11.38,1.94,7.1,3.61,14.32,6.07,21.22,1.63,4.55,3.13,9.2,5.15,13.61,.34,.74,.68,1.43,1.17,2.12,2.64,3.69,2.64,8.15,3.37,12.37Z"/>
  <path class="cls-7" d="M196.01,130.94c.04-.67,.08-1.34,.11-2.01,.43-3.19,.73-6.4,1.33-9.56,.7-3.68,1.65-7.3,2.49-10.95,.13-.55,.25-1.09,.38-1.64,1.27-3.56,2.78-6.93,4.98-10.05,2.13-3.03,4.94-4.61,8.16-5.72,1.42-.5,2.8-.13,4.92,.63-3.71,1.07-5.99,2.94-8.09,5.42-2.75,3.25-3.45,7.06-3.96,11-.67,5.23-.67,10.47-.27,15.76,.37,4.84-1.12,9.59-1.5,14.43-.66,8.46-.76,16.86,.8,25.23,.14,.77,.91,2-.33,2.31-.89,.22-2.13,0-2.62-1.26-1.24-3.23-2.49-6.45-3.67-9.71-2.81-7.77-2.56-15.83-2.73-23.88Z"/>
  <path class="cls-7" d="M223.85,93.03c-3.92,5.92-3.86,12.12-3.03,18.11,.51,3.69,1.39,7.5,2.73,11.04,1.33,3.5,1.46,7.17,1.87,10.8,1.13,10.01,2.79,19.9,5.66,29.53,.42,1.41,.44,2.07-1.29,2.22-4.05,.35-3.99,.43-5.8-3.31-4.34-8.98-6.48-18.58-7.42-28.51-.67-7.12-2.23-14.2-1.68-21.36,.33-4.25,.7-8.62,2.4-12.64,1.16-2.75,2.74-5.05,6.57-5.89Z"/>
  <path class="cls-7" d="M207.62,109.82c.04-5.14,1.92-9.51,5.1-13.34,1.53-1.85,3.57-2.62,5.81-3.27,.08,1.32-.79,1.82-1.26,2.52-2.5,3.73-3.64,7.9-3.79,12.41-.3,9.3-.26,18.66,1.57,27.75,1.46,7.29,2.46,14.78,5.41,21.69,.86,2.03,2.01,3.92,2.96,5.91,.29,.59,1.09,1.29,.23,1.97-.77,.61-1.4,.07-2.12-.43-1.47-1.02-1.94-2.93-3.29-3.92-3.88-2.85-4.76-7.24-5.88-11.58-.91-3.55-1.35-7.26-2.49-10.69-1.72-5.22-1.87-10.56-2.3-15.91,.89-4.37,.75-8.73,.05-13.11Z"/>
  <path class="cls-7" d="M259.52,164.69c-2.5-.47-4.39-1.69-5.83-3.45-3.26-4-5.99-8.32-8.28-13.07-2.63-5.45-4.17-11.26-6.36-16.84-2.63-6.69-3.95-13.65-5.56-20.59-.23-1.01-.55-1.99-1.13-2.81,.54-.44,.93-.34,1.21-.01,3.35,3.95,7.69,6.76,11.08,10.65,.72,.83,1.25,1.8,1.36,2.89,.58,5.75,1.54,11.44,3.02,16.99,1.68,6.32,3.43,12.65,5.98,18.66,1.14,2.69,2.98,5.06,4.51,7.58Z"/>
  <path class="cls-9" d="M233.13,64.16c.21,3.54,1.62,7.71,3.58,11.66,1,2.02,.43,2.35-1.45,2.33-5.32-.05-8.28-2.09-10.12-7.28-1.08-3.05-2.05-6.14-2.43-9.4-.68-5.76,1.94-10.6,6.78-12.36,4.49-1.64,11.2,1.08,13.63,5.45,.46,.82,.35,1.26-.4,1.51-1.52,.49-3.05,1.15-4.6,1.27-4.16,.33-5.11,1.33-4.97,6.83Z"/>
  <path class="cls-7" d="M239.42,88.69c-5.75-.27-10.57-1.72-14.17-6.27-.81-1.02-.89-2.18-.88-3.27,0-2.24,1.66-3.22,3.19-1.97,4.15,3.4,8.76,2.32,13.35,1.69,6.97-.96,13.87-1.08,20.43,2.19,1.22,.61,2.93,1.24,2.8,2.65-.09,1.04-1.93,.48-2.98,.71-6.72,1.46-13.36,3.37-20.22,4.09-.63,.07-1.27,.15-1.51,.18Z"/>
  <path class="cls-9" d="M75.68,176.72c6.71-3.06,13.22-6.65,20.33-8.65,6.03-1.7,11.89-1.29,17.42,1.99,.54,.32,1.31,.59,1.33,1.33,.02,.85-.87,.87-1.41,1.11-6.75,3.06-13.51,6.06-20.78,7.55-.59-.12-1.15-.09-1.66,.28h-.06c-5.36,.19-10.37-1.21-15.17-3.61Z"/>
  <path class="cls-9" d="M210.66,179.86c-3.76,.07-6.29-.24-8.6-1.52-.53-.29-1.17-.88-1.25-1.42-.13-.82,.84-.88,1.37-1.1,5.38-2.29,10.51-5.22,16.04-7.12,5.48-1.88,11.01-3.57,16.87-1.9,.23,.07,.47,.12,.68,.23,1.66,.91,4.26,1.33,4.34,3.41,.06,1.63-2.53,1.5-3.92,2.08-8.61,3.57-17.33,6.82-25.53,7.34Z"/>
  <path class="cls-9" d="M105.82,177.38c9.4-3.62,17.53-9.03,27-10.89,4.93-.97,9.53,.14,13.77,2.91,.39,.26,.89,.55,.84,1.12-.04,.47-.49,.6-.87,.74-9.28,3.38-18.52,6.95-28.34,8.28-3.66,.5-7.36,.8-10.82-1.08-.34-.18-.64-.44-1.57-1.08Z"/>
  <path class="cls-9" d="M171.48,175.86c2.28-1.6,4.78-1.99,7.04-2.97,6.7-2.91,13.41-5.88,20.85-6.07,4.75-.12,7.1,.57,10.82,3.4-3.48,2.26-7.26,3.73-10.96,5.28-5.11,2.15-10.29,4.1-15.85,4.56-4.48,.38-8.48-.7-11.9-4.2Z"/>
  <path class="cls-7" d="M247.78,122.99c1.56,2.2,2.8,3.69,3.78,5.35,3.61,6.17,7.21,12.35,10.66,18.62,1.19,2.17,1.93,4.59,1.63,7.22-.5,4.43,1.44,8.48,1.95,13.11-3-1.09-5-3.07-6.49-5.65-4.4-7.64-6.87-16.03-8.85-24.65-.77-3.36-1.76-6.66-2.26-10.09-.15-1.04-.23-2.1-.42-3.92Z"/>
  <path class="cls-2" d="M307.75,136.99c-.32,3.47-1.22,6.78-3.05,9.77-.57,.92-1.37,1.64-2.34,2.11-1.98,.95-2.43,.58-2.74-1.63-.87-6.26-2.41-12.35-4.2-18.39-1.13-3.82-1.5-7.83-1.16-11.88,.11-1.28,.69-1.33,1.58-.91,.21,.1,.39,.28,.55,.47,3.98,4.64,8.29,9.05,10.08,15.27,.49,1.7,1.81,3.18,1.27,5.2Z"/>
  <path class="cls-9" d="M180.56,170.43c-11.41,4.72-22.48,8.63-34.55,7.92-2.12-.12-4.06-.82-6-1.59-.39-.15-.77-.43-.73-.87,.02-.24,.34-.59,.59-.67,10.25-3.62,20.23-8.56,31.48-7.49,3,.28,6.02,.72,9.22,2.7Z"/>
  <path class="cls-9" d="M287.38,160.5c-1.44,2.84-2.83,5.7-4.63,8.36-3.37,4.96-7.31,9.05-13.06,10.7-4.2,1.2-8.26,.39-12.1-1.63-1.81-.95-.3-1.51,.33-1.99,4.71-3.59,9.91-6.34,14.97-9.31,2.56-1.5,5.18-2.89,7.78-4.33,.47-.05,.91-.14,1.2-.59,.14,.04,.24,0,.33-.13,1.78-.13,3.19-2.16,5.2-1.08Z"/>
  <path class="cls-9" d="M239.28,180.7c-2.84-.73-5.54-1.9-8.26-3-.38-.15-.78-.36-.8-.82-.02-.53,.46-.58,.83-.72,6.3-2.33,12.48-5,18.89-7.05,3.73-1.19,7.44-1.72,11.29-1.45,.48,.03,1.02-.07,1.42,.13,.69,.36,1.7,.5,1.88,1.36,.18,.88-.8,1.19-1.36,1.51-5.7,3.23-10.44,8.29-17.08,9.7-2.27,.12-4.54,.23-6.81,.35Z"/>
  <path class="cls-2" d="M303.69,117.3c-.09,.96,.26,2.84-.87,3.31-1.13,.47-2.07-1.14-2.86-2.14-3.06-3.91-7-6.73-10.72-9.86-3.41-2.86-6.75-5.89-9.24-9.71-.64-.99-2.56-1.65-1.89-2.78,.65-1.11,2.33-.05,3.56,.05,9.08,.73,15.59,5.73,20.26,13.57,1.26,2.12,1.75,4.65,1.76,7.57Z"/>
  <path class="cls-1" d="M291.88,150.07c1.51-2.68,2.4-5.82,5.43-7.61,.89,2.55,1.18,5.19,1.27,7.8,.13,3.58,.16,7.16-.54,10.75-1.23,6.33-6.44,12.12-13.34,11.25-.66-.08-1.68,.39-1.88-.5-.12-.54,.46-1.42,.94-1.89,2.18-2.14,3.14-4.97,4.21-7.75,1.88-3.81,2.95-7.91,3.9-12.04Z"/>
  <path class="cls-9" d="M154.19,187.02c-1.62-.23-3.23-.45-4.85-.68-5.67-1.11-10.76-3.5-15.15-7.47-.37-.33-.8-.61-.71-1.18,.09-.52,.58-.44,.94-.57,1.65-.6,3-1.05,4.66,.65,1.63,1.68,4.23,1.82,6.53,2.03,5.55,.53,11.02-.13,16.39-1.59,1.47-.4,2.33-.17,3.21,1.14,1.44,2.16,3.33,3.91,5.48,5.71-1.98,.43-3.96,.87-5.95,1.3-1.46,.2-2.91,.4-4.37,.6-2.07,.02-4.14,.04-6.21,.06Z"/>
  <path class="cls-1" d="M310.17,158.07c-.13,.53-.25,1.07-.38,1.6-.38-.06-.4,.15-.32,.45-.11,.33-.22,.66-.33,.98-4.03,5.82-8.55,11.06-14.66,14.65-4.15,2.44-8.3,1.92-12.56,.72-.55-.26-1.1-.51-1.65-.77,0,0,0,0,0,0-.3-.52-.04-.99,.11-1.47,.77-.36,1.41-.72,2.43-.57,8.9,1.31,15.6-4.15,16.77-13.69,.18-1.5,.71-2.04,2.01-2.57,2.97-1.22,5.57-3.11,7.69-5.66,.36-.3,.76-.87,1.08-.83,.61,.08,.33,.78,.39,1.23,.27,2.08-.42,4.06-.54,6.1,0,0-.04-.17-.04-.17Z"/>
  <path class="cls-9" d="M245.14,181.72c.48-.05,.97-.09,1.45-.14,.34-.1,.68-.21,1.03-.31,1.41-.1,2.64,.53,3.75,1.26,1.91,1.26,4.1,1.88,6.08,3.29-1.89,.44-3.78,.88-5.67,1.32-.17,.03-.33,.05-.5,.08-2.78,.28-5.55,.56-8.35,.58-8.29,.07-15.97-1.65-22.38-8.05,2.03-.7,3.94-1.4,5.88-2,.95-.29,1.88-.07,2.74,.52,2.23,1.54,4.76,2.3,7.33,2.94,.58,.4,1.2,.55,1.88,.36,.64,.05,1.28,.11,1.92,.16,1.62,.48,3.23,.45,4.84-.03Z"/>
  <path class="cls-9" d="M183.05,187.78c-1.77-.47-3.54-.95-5.31-1.42-.26-.06-.51-.12-.77-.17-.22-.14-.44-.28-.65-.42-5.25-2.27-8.68-5-10.39-8.26,2.17-1.32,3.88-1.43,6.05,.67,3.17,3.08,7.36,3.86,11.67,3.35,2.54-.3,5.09-.68,7.51-1.59,1.35-.51,2.38-.37,3.31,.97,1.69,2.44,4.39,3.5,7.2,5.19-3.21,1.39-6.23,1.66-9.25,1.74-3.12,.09-6.24-.04-9.36-.07Z"/>
  <path class="cls-9" d="M283.63,94.78c-.94-.11-1.88-.22-2.83-.33-1.84-1.37-3.91-.52-5.88-.7-6.67-.78-13.07-2.41-18.84-6.26,7.76-1.98,15.51-4,23.31-1.04,3.28,1.24,5.67,3.93,6.98,7.46,.57,1.54-.19,1.55-1.26,1.21-.33-.93-.8-1.14-1.49-.33Z"/>
  <path class="cls-9" d="M134.91,186.75c-.79,.07-1.59,.13-2.38,.2-.33,.02-.67,.03-1,.05-2.55-.01-5.1-.03-7.65-.04-1.13-.15-2.27-.3-3.4-.45-2.09-.41-4.19-.82-6.28-1.23-.25-.3-.53-.49-.93-.4-1.74-.62-3.48-1.23-5.23-1.85-1.6-.9-3.21-1.77-4.78-2.73-.48-.29-1.43-.58-.97-1.39,.35-.62,1.2-.77,1.95-.57,.15,.04,.28,.15,.41,.25,5.32,3.73,11.12,2.87,16.9,1.86,2.75-.48,5.47-1.15,8.16-1.9,1.24-.34,2-.09,2.96,.81,2.45,2.3,5.06,4.42,8.22,5.76-.7,.85-1.83,.55-2.59,1.12-.16,.01-.32,.03-.48,.04-.66-.13-1.3-.07-1.91,.23-.33,.08-.65,.16-.98,.24Z"/>
  <path class="cls-9" d="M295.13,99.52c-2.1-1.03-3.77-2.51-5.88-3.06-.79-.21-.89-1.08-1.11-1.81-2.23-7.35-7.48-10.44-14.42-11-1.35-.11-2.22-.38-2.71-1.85-.55-1.66-1.9-2.83-3.06-4.52,1.88-.52,3.52-.02,5.05,.34,7.89,1.86,14.99,5.26,19.75,12.46,1.78,2.69,2.64,5.84,2.4,9.44Z"/>
  <path class="cls-2" d="M296.1,92.4c3.49,2.41,6.91,4.8,9.15,8.55,3.11,5.2,5.02,10.68,4.07,16.95-.35,2.28-.97,4.35-2.76,5.85-.5,.42-.72,1.67-1.58,.98-.7-.56-1.6-1.5-1.13-2.56,3.26-7.46,0-13.17-4.5-18.51-1.46-1.74-2.64-3.33-2.41-5.91,.16-1.74-.53-3.57-.85-5.36Z"/>
  <path class="cls-7" d="M206.88,132.51c.68,3.75,.94,7.31,2.03,10.58,1.46,4.4,2.38,8.97,3.96,13.32,.53,1.47,.64,2.79,.2,4.35-.64,2.26-.37,4.64-.24,6.98,.03,.57,.17,1.21-.4,1.6-.66,.45-.95-.33-1.42-.5-4.16-1.46-4.36-5.29-4.82-8.87-1.11-8.59-.76-17.19,.16-25.78,.05-.48,.29-.93,.53-1.69Z"/>
  <path class="cls-9" d="M195.75,80.61c1.36-.15,2.17,.87,2.84,1.79,2.26,3.13,4.73,6.04,7.64,8.51,1.08,.91,1.13,1.54,.07,2.54-1.34,1.26-2.31,3.52-3.78,3.9-1.68,.44-2.89-1.92-4.25-3.12-3.7-3.28-6.95-6.99-9.57-11.29-.56-.92-.68-1.47,.63-1.59,2.15-.2,4.28-.49,6.42-.74Z"/>
  <path class="cls-9" d="M216.76,187.34c-1.33-.05-2.66-.09-3.98-.14-1.24-.12-2.48-.25-3.72-.37-.33-.1-.66-.2-.99-.3-4.15-1.01-8.11-2.49-11.4-5.42-.65-.58-2.32-1.27-1.28-2.35,.88-.92,2.71-2.05,3.91-.92,5.35,5.11,11.5,3.45,17.56,2.54,1.33-.2,2.13,.02,3.16,.98,1.88,1.75,4.06,3.15,6.38,4.91-3.31,1.05-6.52,.68-9.63,1.07Z"/>
  <path class="cls-7" d="M227.45,132.8c.96,.55,.96,1.59,1.23,2.4,2.27,6.68,6.01,12.63,8.56,19.17,1.4,3.6,.57,7.25,.77,10.88,.06,1.11-.72,.74-1.36,.59-2.84-.68-4.16-2.99-4.86-5.53-2.04-7.39-3.12-14.98-3.9-22.61-.16-1.6-.86-3.17-.44-4.89Z"/>
  <path class="cls-2" d="M309.1,150.04c-.14,.17-.27,.35-.41,.52-1.85,1.71-3.7,3.43-5.89,4.64-.82,.45-1.85,1.51-2.64,.04-.7-1.3,.11-4.31,1.11-4.57,4.37-1.11,6.38-4.64,7.27-8.65,1.05-4.73,1.19-9.59-1.9-13.84-.44-.6-.9-1.44-.09-1.97,1.76-1.17,2.39-3.21,3.99-5.49,1.76,10.36,4.39,20.01-1.43,29.31Z"/>
  <path class="cls-2" d="M288.86,136.82c.04-.59,.09-1.18,.13-1.76,.16-.53,.31-1.05,.47-1.58,1.4-.79,1.3-2.57,2.24-3.69,.56-.67,.99-1.46,1.76-2.6,.93,4.04,1.57,7.65,3.02,11.01,.55,1.28,.33,2.34-.98,3.41-1.39,1.14-2.3,2.92-3.52,4.57-1.68-2.86-3.36-5.55-3.16-8.98,.01-.13,.03-.26,.04-.39Z"/>
  <path class="cls-7" d="M249.48,74.71c-.33-2.64,.66-3.22,2.89-2.66,5.66,1.43,10.87,3.78,15.5,7.5,.31,.25,.58,.6,.76,.97,.39,.81,1.76,1.73,.77,2.46-.95,.7-2.61,1.43-3.7-.06-2.76-3.78-6.79-4.75-10.89-5.57-1.18-.23-2.38-.4-3.57-.47-1.5-.08-2.35-.6-1.76-2.17Z"/>
  <path class="cls-9" d="M129.43,165.64c-3.84,1.25-7.31,2.66-10.63,4.42-1.32,.7-2.32,.78-3.44-.3-1.85-1.8-4.26-2.49-6.62-3.31,2.74-2.95,15.92-4.45,20.69-.81Z"/>
  <path class="cls-7" d="M250.89,91.35c.05,3.7-1.46,6.9-2.94,10.11-.47,1.03-1.15,1.38-2.02,.4-.05-.06-.11-.12-.18-.16-2.61-1.63-4.21-3.61-2.27-6.89,.12-.2,.09-.49,.13-.73,.22-1.39-.55-3.08,.34-4.13,.88-1.03,2.56-.62,3.87-.99,2.81-.79,3.09-.54,3.06,2.39Z"/>
  <path class="cls-5" d="M265.23,156.87c.13-.85-.27-1.77,1-1.71,2.04,.1,8.03,3.46,8.79,6.19,.46,1.63,.07,2.54-1.32,3.18-.8,.37-1.6,.72-2.37,1.14-3.07,1.66-3.67,1.51-4.72-1.95-.69-2.27-.96-4.68-1.38-6.85Z"/>
  <path class="cls-9" d="M162.17,166.58c-4.11,.85-8.13,1.76-12.01,3.24-.5,.19-1.01,.13-1.33-.26-1.63-1.91-3.94-2.66-6.06-3.86,4.38-2.82,16.51-3.17,19.4,.88Z"/>
  <path class="cls-2" d="M285.61,107.02c2.13,2.79,4.66,3.94,6.65,5.84,.76,.73,1.04,1.39,.89,2.58-.27,2.13-.14,4.32-.17,6.48,0,.48,.2,1.06-.29,1.36-.49,.29-.88-.16-1.29-.4-2.68-1.56-4.05-4.13-4.86-7.07-.71-2.6-1.33-5.24-.93-8.79Z"/>
  <path class="cls-9" d="M248.08,73.41q-.06,3.22-3.65,3.49c-.56,.04-1.12,.08-1.68,.14-3.21,.36-5.13-1.14-5.99-4.49-.32-1.23,.32-1.21,1.06-1.36,2.66-.53,5.39-.83,7.94-1.71,2.1-.72,2.37,.11,2.31,1.86-.02,.5,0,1,0,2.06Z"/>
  <path class="cls-4" d="M171.98,76.85c-1.47,.73-3.09,1.93-3.43-1.12,1.66-.49,3.32-.99,4.97-1.48,.16-.03,.32-.07,.48-.1,.64-.06,1.32,.07,1.84-.49,4.44-.76,8.78-1.93,13.11-3.15,10.09-2.42,20.19-4.82,30.27-7.27,.87-.21,1.67-.66,2.33,.34-1.11,.38-2.22,.76-3.33,1.13-1.26,1.08-2.83,.6-4.24,.89-5.9,1.19-11.69,2.86-17.56,4.2-7.43,1.7-14.83,3.63-22.25,5.4-.81,.19-2.28-.05-2.21,1.65Z"/>
  <path class="cls-7" d="M263.04,93.41c-.24,.43-.43,1.03-.82,1.39-1.83,1.73-3.61,3.52-5.74,4.86-1.18,.73-2.26,.91-2.8-.78-.44-1.39-2.16-2.66-1.43-4.03,.94-1.77,2.62-3.11,4.43-4.07,.58-.31,5.89,1.49,6.18,2.04,.07,.14,.1,.31,.18,.58Z"/>
  <path class="cls-5" d="M245.32,169.01c-4.25,1.39-5.42,.45-5.41-4.34,0-2.14,0-4.29,0-6.92,3.41,2.62,6.48,4.86,8.19,8.57-.49,1.39-2.05,1.58-2.79,2.69Z"/>
  <path class="cls-7" d="M258.21,114.41c-.11,.55,.17,1.18-.37,1.71-2.1-2.82-4.23-5.59-6.27-8.43-.96-1.33-2.94-1.82-3.16-3.6-.2-1.67,1.57-2.55,2.18-3.96,.29-.68,.58-1.36,1.08-2.51,1.94,5.58,5.02,10.19,6.05,15.71,.16,.36,.33,.72,.49,1.08Z"/>
  <path class="cls-9" d="M281.83,103.9c-6.57-.97-11.2-4.27-14.54-9.55,7.24-1.21,10.71,4.02,14.54,9.55Z"/>
  <path class="cls-1" d="M287.96,158.03c-.65,.19-1.37,.15-1.88,.71-2.79,.25-4.96,2.36-7.7,2.79-.02-.47-.04-.94-.06-1.41,.72-1.09,1.5-2.13,2.15-3.26,2.05-3.54,5.5-4.68,9.26-6.39-.68,2.9-1.22,5.24-1.77,7.57Z"/>
  <path class="cls-13" d="M252.4,56.35c7.11-1.68,14.21-3.36,21.32-5.05,.58-.14,1.32-.71,1.2,.62-2.48,1.48-5.31,1.9-8.02,2.4-6.82,1.26-13.51,3.04-20.24,4.67-3.39,.82-6.8,1.58-10.2,2.37,.17-.35,.34-.7,.51-1.05,.49-.49,1.12-.58,1.75-.73,4.56-1.06,9.12-2.15,13.67-3.23Z"/>
  <path class="cls-17" d="M287.96,158.03c.54-2.33,1.09-4.66,1.77-7.57-3.75,1.72-7.21,2.86-9.26,6.39-.65,1.13-1.43,2.18-2.15,3.26-.4,0-.8,.01-1.2,.02,1.59-6.08,6.09-8.79,11.31-10.64,1.09,.58,2.12,1.54,3.45,.58-.95,4.14-2.02,8.24-3.9,12.04,0-1.36-.02-2.73-.03-4.09Z"/>
  <path class="cls-9" d="M175.32,166.4c4.49-2.54,8.82-3.17,13.29-.82,.44,.23,1.23,.41,.99,1.15-.11,.35-.73,.54-1.14,.77-4.46,2.44-8.69,1.4-13.13-1.1Z"/>
  <path class="cls-9" d="M77.48,164.77c1.44-1.1,2.83-.84,4.14-.78,3.22,.15,6.24,1.12,9.07,2.73,.97,.55,1.25,1.07-.05,1.59-1.33,.53-2.65,1.11-3.97,1.66-.55,.23-1.1,.27-1.53-.26-1.96-2.43-4.85-3.33-7.67-4.94Z"/>
  <path class="cls-7" d="M242,93.41c-.04,.79-.06,1.37-.11,1.95-.06,.68-.22,1.4-.86,1.67-.63,.26-.93-.48-1.35-.82-2.27-1.81-4.52-3.64-6.82-5.41-.39-.3-.89-.47-.71-1.08,.19-.63,.82-.59,1.21-.44,2.38,.93,4.85,.69,7.31,.86,2.36,.16,1.13,2.19,1.32,3.26Z"/>
  <path class="cls-5" d="M213.98,164.51c.17-1.24-.33-3.46,1.09-3.98,1.34-.49,2.2,1.59,3.06,2.72,2.43,3.17,2.4,3.19-1.1,4.34-2.93,.96-3.06,.84-3.06-3.09Z"/>
  <path class="cls-16" d="M75.68,176.72c4.8,2.4,9.81,3.8,15.17,3.6-.02,.16-.22,.36,.1,.42-.01-.14-.02-.27-.04-.41,.51-.37,1.07-.4,1.66-.28,0,.4,0,.81,0,1.21-5.89,1.32-11.34-.21-16.62-2.81-.68-.33-.77-1.01-.94-1.65,.22-.03,.45-.05,.67-.08Z"/>
  <path class="cls-5" d="M251.27,161.02c1.02,1.14,1.95,2.39,3.09,3.38,1.2,1.04,.66,1.85-.32,2.04-1.17,.23-2.58,1.18-3.66-.34,.06-.84-.37-1.51-.6-2.24-.4-1.3-1.28-3.02,.78-3.9,0,0,0,.02,0,.02-.1,.59,0,1.04,.7,1.04Z"/>
  <path class="cls-5" d="M198.67,165.49c-.99-.23-2.46,.6-2.29-1.08,.15-1.52,.02-4.02,1.88-4.06,1.89-.04,1.92,2.6,2.29,4.07,.43,1.72-1.49,.27-1.87,1.07Z"/>
  <path class="cls-4" d="M252.4,56.35c-4.56,1.08-9.11,2.17-13.67,3.23-.63,.15-1.26,.24-1.75,.73-.65,0-1.35,.42-2.5-.63,6.25-1.52,12.03-2.93,17.81-4.33,.04,.34,.08,.67,.13,1.01Z"/>
  <path class="cls-4" d="M165.71,76.58c0,.35,0,.7,0,1.05-4.27,.2-8.03,2.21-11.97,3.59-.02-.4-.05-.8-.07-1.2,3.8-1.96,7.89-2.82,12.04-3.44Z"/>
  <path class="cls-17" d="M278.38,161.53c2.73-.42,4.91-2.54,7.7-2.79-.24,1.14,1.71,.49,1.31,1.76-2.01-1.08-3.42,.95-5.2,1.08-.22-.35-.52-.53-.92-.38-.04,.02-.06,.3-.03,.31,.2,.09,.41,.13,.62,.19-.29,.44-.74,.54-1.2,.59-.74-.34-1.73,.15-2.28-.76Z"/>
  <path class="cls-17" d="M245.14,181.72c-1.61,.49-3.22,.52-4.84,.03,.03-.74-.43-.97-1.02-1.05,2.27-.12,4.54-.23,6.81-.35-.15,.58-1.68,.12-.95,1.37Z"/>
  <path class="cls-5" d="M250.57,159.96c-2.06,.89-1.18,2.6-.78,3.9,.23,.74,.66,1.41,.6,2.24-.51-.04-.97-.23-1.04-.8-.3-2.32-.55-4.64-.64-7.06,.59,.68,1.62,.72,1.87,1.72Z"/>
  <path class="cls-7" d="M207.62,109.82c.7,4.37,.84,8.74-.05,13.11-.28-4.37-.33-8.74,.05-13.11Z"/>
  <path class="cls-5" d="M245.32,169.01c.74-1.12,2.3-1.3,2.79-2.69,.87,.99,1.14,1.81-.53,2.13-.76,.14-1.42,.73-2.26,.57Z"/>
  <path class="cls-9" d="M274.92,93.75c1.97,.18,4.04-.67,5.88,.7-1.98-.04-3.98,.05-5.88-.7Z"/>
  <path class="cls-17" d="M218.23,64.71c1.11-.38,2.22-.76,3.33-1.13,0,.44,0,.87,0,1.31-1.1,.18-2.2,.35-3.3,.53-.01-.23-.02-.47-.03-.7Z"/>
  <path class="cls-17" d="M280.27,175.71c.55,.26,1.1,.52,1.65,.77-.07,.08-.14,.16-.21,.24-.2,.29-.4,.59-.6,.88-.47-.28-.94-.56-1.42-.84,.46-.19,.59-.58,.58-1.06Z"/>
  <path class="cls-9" d="M283.63,94.78c.68-.81,1.16-.6,1.49,.33-.53,.04-1.06,.1-1.49-.33Z"/>
  <path class="cls-16" d="M164.28,83.15c.75-.35,1.51-.47,2.31-.19-.77,.06-1.54,.13-2.31,.19Z"/>
  <path class="cls-16" d="M258.21,114.41c-.16-.36-.33-.72-.49-1.08,.44,0,.89,0,1.33,0,.04,.33,.08,.67,.12,1-.32,.03-.64,.05-.96,.08Z"/>
  <path class="cls-17" d="M238.39,181.59c-.68,.18-1.3,.03-1.88-.36,.65,.01,1.32-.15,1.88,.36Z"/>
  <path class="cls-17" d="M288.86,136.82c-.01,.13-.03,.26-.04,.39-.43,.09-.86,.18-1.29,.27,.02-.34,.04-.68,.06-1.02,.42,.12,.85,.24,1.27,.37Z"/>
  <path class="cls-10" d="M251.27,161.02c-.71,0-.8-.44-.7-1.04,.41,.22,.63,.57,.7,1.04Z"/>
  <path class="cls-17" d="M280.38,174.23c-.15,.48-.4,.95-.11,1.47-.71-.55-.65-1.04,.11-1.47Z"/>
  <path class="cls-17" d="M289.46,133.48c-.16,.53-.31,1.05-.47,1.58-.07-.6-.17-1.21,.47-1.58Z"/>
  <path class="cls-16" d="M200.32,106.79c-.13,.55-.25,1.09-.38,1.64-.04-.59-.16-1.19,.38-1.64Z"/>
  <path class="cls-17" d="M247.62,181.27c-.34,.1-.68,.21-1.03,.31,.28-.34,.64-.38,1.03-.31Z"/>
  <path class="cls-17" d="M288.17,133.79c-.3-.54-.08-.96,.29-1.35-.1,.45-.19,.9-.29,1.35Z"/>
  <path class="cls-16" d="M258.65,111.72c.06,.18,.13,.37,.19,.55-.06-.18-.13-.37-.19-.55Z"/>
  <path class="cls-17" d="M137.8,186.29c.16-.01,.32-.03,.48-.04,0,.16-.02,.31-.04,.47-.15-.14-.29-.28-.44-.43Z"/>
  <path class="cls-16" d="M251.29,187.23c.17-.03,.33-.05,.5-.08-.17,.03-.33,.05-.5,.08Z"/>
  <path class="cls-16" d="M148.96,90.08l.17-.06s.09,.17,.09,.17c-.1,0-.19-.05-.26-.11Z"/>
  <path class="cls-17" d="M176.32,185.77c.22,.14,.44,.28,.65,.42-.22-.14-.44-.28-.65-.42Z"/>
  <path class="cls-16" d="M174,74.14c-.16,.03-.32,.07-.48,.1,.16-.03,.32-.07,.48-.1Z"/>
  <path class="cls-17" d="M283.89,58.91c.22-.02,.44-.05,.65-.07-.22,.02-.44,.05-.65,.07Z"/>
  <path class="cls-17" d="M291.83,57.09c.15-.05,.3-.09,.45-.14-.08,.29-.21,.4-.45,.14Z"/>
  <path class="cls-17" d="M292.26,56.96c.17-.08,.34-.17,.51-.25-.17,.08-.34,.17-.51,.25Z"/>
  <path class="cls-17" d="M309.11,52.95c.16-.06,.33-.12,.49-.18-.16,.06-.33,.12-.49,.18Z"/>
  <path class="cls-16" d="M98.95,179.79c-.18,.04-.37,.08-.55,.13,.18-.04,.37-.08,.55-.13Z"/>
  <path class="cls-13" d="M326,38.85c0,.34,0,.67,.01,1.01-5.66,1.86-11.52,2.87-17.27,4.31-9.24,2.3-18.52,4.39-27.79,6.55-.93,.22-1.89,.34-2.83,.5-.29-.67-.2-1.01,.61-1.19,6.79-1.55,13.58-3.12,20.35-4.74,7.8-1.87,15.59-3.82,23.38-5.71,1.17-.28,2.35-.48,3.53-.71Z"/>
  <path class="cls-12" d="M281.11,177.6c.2-.29,.4-.59,.6-.88,0,.33,0,.67,0,1-.2-.04-.4-.08-.61-.12Z"/>
  <path class="cls-12" d="M154.19,187.02c2.07-.02,4.14-.04,6.21-.06-1.4,1.18-4.69,1.21-6.21,.06Z"/>
  <path class="cls-12" d="M123.87,186.95c2.55,.01,5.1,.03,7.65,.04-1.5,1.19-6.23,1.16-7.65-.04Z"/>
  <path class="cls-12" d="M209.05,186.83c1.24,.13,2.48,.25,3.72,.37,.21,.3,1.07,.85,.25,.9-1.36,.08-3.02,.37-3.97-1.27Z"/>
  <polygon class="cls-8" points="310.17 158.07 310.2 158.24 310.22 158.32 310.14 158.18 310.17 158.07"/>
  <path class="cls-17" d="M113.25,184.87c.4-.09,.68,.11,.93,.4-.16,.03-.33,.06-.49,.09-.15-.16-.3-.33-.44-.49Z"/>
  <path class="cls-17" d="M309.47,160.12c-.08-.3-.06-.51,.32-.45-.11,.15-.21,.3-.32,.45Z"/>
  <path class="cls-13" d="M218.23,64.71c.01,.23,.02,.47,.03,.7-2.49,1.31-5.28,1.53-7.93,2.2-9.04,2.29-18.11,4.44-27.18,6.63-3.72,.9-7.45,1.74-11.18,2.61-.08-1.7,1.4-1.46,2.21-1.65,7.42-1.77,14.82-3.7,22.25-5.4,5.87-1.34,11.66-3.01,17.56-4.2,1.41-.28,2.98,.19,4.24-.89Z"/>
  <path class="cls-13" d="M153.73,81.22c3.94-1.38,7.71-3.39,11.97-3.59-.21,1.21-1.31,1.2-2.05,1.39-5.04,1.29-9.86,3-13.89,6.59-.13,.12-.44,.01-.68,.01q.58-1.74,4.65-4.4Z"/>
  <path class="cls-12" d="M90.92,180.33c.01,.14,.02,.27,.04,.41-.32-.06-.13-.26-.1-.42,0,0,.07,.01,.07,.01Z"/>
  <path class="cls-12" d="M281.86,161.7c-.21-.06-.42-.1-.62-.19-.03-.01-.02-.3,.03-.31,.4-.15,.7,.02,.92,.38-.08,.12-.19,.16-.33,.13Z"/>
</svg>