<?xml version="1.0" encoding="UTF-8"?>
<svg id="Layer_1" data-name="Layer 1" xmlns="http://www.w3.org/2000/svg" viewBox="0 0 414 200">
  <defs>
    <style>
      .cls-1 {
        fill: #f7b7d3;
      }

      .cls-2 {
        fill: #00bff3;
      }

      .cls-3 {
        fill: #eae1cc;
      }

      .cls-4 {
        fill: #fff9b8;
      }

      .cls-5 {
        fill: #fff200;
      }

      .cls-6 {
        fill: #eceae0;
      }

      .cls-7 {
        fill: #fbb040;
      }

      .cls-8 {
        fill: #fdfdfd;
      }

      .cls-9 {
        fill: #665e54;
      }

      .cls-10 {
        fill: #9ed2f1;
      }

      .cls-11 {
        fill: #b4ceb8;
      }

      .cls-12 {
        fill: #d1cdc5;
      }

      .cls-13 {
        fill: #45403c;
      }

      .cls-14 {
        fill: #757374;
      }

      .cls-15 {
        fill: #504b48;
      }
    </style>
  </defs>
  <path class="cls-13" d="M71.69,181.69c.02-.36,.04-.71,.05-1.07,1.7-.49,3.41-.97,5.1-1.48,3.61-1.1,7.01-2.69,10.24-4.62,.4-.24,.94-.47,.78-1.06-.14-.51-.7-.27-1.06-.39-1.67-.6-3.37-1.15-4.98-1.88-.97-.44-1.63-.49-2.63,.08-2.36,1.34-4.7,2.83-7.47,3.28l-.04-1.07c.33-.04,.69,0,.82-.42,.33-.06,.63-.17,.79-.5,.21,0,.44,.06,.61,0,5.39-2.17,9.76-5.71,13.74-10.41-5.06,.23-9.96-.82-14.35,2.09-.56-.22-1.13,1.1-1.6,.08-.42-.9,.44-1.13,1.06-1.39,3.74-1.58,6.32-4.83,9.88-6.73,4.07-2.17,8.37-3.95,12.89-3.07,3.64,.71,6.67-.64,9.95-1.21,1.11-.19,1.67-1.01,2.38-1.77,4.38-4.77,9.94-5.88,16.08-5,1.83,.26,3.58,.74,5.46,.02,1.7-.65,3.34-.99,4.42-2.87,.83-1.44,2.65-2.24,4.25-2.99,.48-.32,1.29,.07,1.54-.73,.24-.04,.49-.08,.74-.12,.62,.21,1.06-.1,1.47-.49,.55-.17,1.6,.36,1.35-.95-.26-1.49-1.52-2.45-1.95-3.92-.87-2.97-1.14-2.97-3.93-1.59-.43,.22-.96,.39-.99,.9-.03,.59,.62,.61,1.01,.85,.54,.33,1.68,.03,1.35,1.28-1.3,.45-2.33-.43-3.39-.84-1.34-.52-1.58-1.48-.17-2.37,.34-.22,.72-.37,1.08-.56,3.66-1.85,3.63-1.85,3.3-6.03-.1-1.31-.35-1.95-1.67-.94-.37,.28-.82,.45-1.24,.68-1.35,.48-2.61,1.1-3.66,2.11-.82,.05-1.28,.62-1.75,1.19-4.24,1.97-7.7,4.85-10.01,8.95-.4,.7-.43,1.65,.58,2.31,.94,.62,1.93,.7,2.94,.73,4.68,.11,9.04-1.23,13.25-3.12,1.51-.68,1.51-.8,.77-2.07,.81-1.12,1.21-.15,1.7,.33,.03,.68-.6,1.23-.38,1.95,0,.11-.05,.21-.12,.3-.7,.29-1.52,.35-2.01,1.04-.93,.29-1.86,.59-2.8,.88-.63,.06-1.41-.3-1.76,.59-.27,.05-.55,.11-.82,.16-.18-.22-.31-.16-.41,.07-3.17,1.18-6.5,1.63-9.71,.76-4.19-1.13-3.7-3.68-.98-7.11,3.82-4.8,9.3-7.37,14.51-10.25,2.25-1.24,3.61-2.58,4.22-5.4,1.06-4.88,3.76-7.09,10.21-8.11,1.7-.27,3.54-.37,5.11,.28,1.89,.79,3.38,.4,4.98-.57,3.09-1.86,6.19-3.7,9.36-5.41,1.27-.69,1.01-.85-.03-1.48-5.68-3.44-11.38-6.88-16.96-10.49-5.31-3.43-9.89-7.77-14.44-12.12-5.79-5.54-11.53-11.15-17.23-16.79-1.1-1.09-2.05-2.32-3.23-3.34-.77-.66-.52-1.17,.43-1.38,1.39,.46,2.05,1.76,3.01,2.7,5.16,5.11,10.24,10.3,15.46,15.35,3.94,3.81,7.88,7.65,12.13,11.09,5.67,4.59,12.29,7.8,18.28,11.92,3.86,2.66,7.01,3.02,10.77-.02,1.51-1.22,.93-1.22-.15-1.87-8.15-4.94-16.64-9.36-23.98-15.54-6.67-5.6-12.76-11.82-18.97-17.92-3.69-3.62-6.97-7.64-11-10.91-.03-1.53,.52-1.81,1.63-.73,1.92,1.88,3.84,3.77,5.73,5.68,4.03,4.07,7.98,8.23,12.09,12.23,4.39,4.28,8.87,8.47,13.71,12.27,5.69,4.47,11.97,7.97,18.08,11.77,.06,.04,.13,.04,.19,.07,6,3.36,5.96,3.3,11.94-.28,4.03-2.41,8.16-4.64,12.28-6.88,1.11-.61,1.63-1.33,1.89-2.65,.53-2.73,.57-5.52,1.73-8.21,2.57-5.94,7.23-8.44,13.25-9.02,4.07-.39,7.92,.61,11.48,2.58,.98,.54,1.69,.55,2.63,.02,4.2-2.39,8.41-4.77,12.68-7.04,.91-.48,.9-1.07,.9-1.83-.02-2-.24-4.01,.23-5.98,1.53-6.35,6.38-10.3,12.98-10.74,4.11-.27,7.85,1.02,11.43,2.82,1.06,.53,1.89,.51,2.87-.04,12.95-7.23,25.92-14.44,38.87-21.67,4.57-2.55,9.1-5.17,13.65-7.75,.78,.13,1.12,.53,.51,1.17-.39,.41-.96,.64-1.45,.96-1.26,.46-2.43,1.08-3.5,1.9-.7,.38-1.61,.41-2.05,1.23-2.31,1.01-4.56,2.14-6.59,3.65-4.47,2.25-8.87,4.62-13.06,7.39h0c-2.42,.86-4.67,2.02-6.63,3.73h0c-1.57,.62-3.39,.84-4.15,2.71l-.16,.03v.16c-3.54,.42-6.2,2.57-8.93,4.55h0c-1.73,.16-2.95,1.35-4.35,2.17-1.89,.8-3.55,1.98-5.2,3.17-.6-.09-1.04,.19-1.4,.64-1.67,.77-3.34,1.54-4.8,2.7-.61,.31-1.37,.3-1.84,.91-.78,.23-1.61,.44-2.01,1.21-.32,.62,.38,.29,.56,.48,.01,.26,.02,.52,.03,.78-.98,2.39,1.22,3.53,2.11,5.14,.71,1.3,1.9,1.85,3.31,.55,.58-.53,1.41-.78,2.12-1.18,11.07-6.12,22.15-12.24,33.22-18.38,8.75-4.86,17.49-9.73,26.22-14.63,3.36-1.89,6.92-3.44,10-5.82,.7,.12,1.13-.4,1.66-.7,.42-.23,1.02-.42,1.32,.04,.44,.69-.26,.93-.72,1.19-3.56,1.99-7.12,3.96-10.68,5.95-10.27,5.72-20.54,11.44-30.81,17.16-6.18,3.44-12.37,6.88-18.55,10.31-.88-.02-1.77,.38-1.1,1.23,1.17,1.49,.93,3.32,1.6,4.89,0,.7,0,1.41,.01,2.11-.32,1.46-.66,2.92-.55,4.43,.14,.47,.08,.92-.14,1.35-.6,.03-.84,.37-.83,.95,.01,.54,.36,.69,.81,.73,.27,.38,.55,.76,.82,1.14,.09,.43,.41,.51,.78,.5,.13,.02,.17,.1,.14,.22-.05,.58-.28,1.01-.94,1.03-.25-.34-.5-.69-.74-1.03-.13-.47-.36-.72-.84-.34-1.81,1.87-1.96,4.57-3.36,6.66-.23,.34-.14,.86,.22,1.13,1.48,1.1,2.52,2.59,3.44,4.13,1.42,2.39,2.71,4.92,2.18,7.8-.37,2.04-1.18,3.99-1.79,5.99-.43-.02-.92,.04-.58,.59,.27,.45,.67,.11,.94-.19,.73-.49,1.42-1,2.05-1.65,1.88-1.97,2.73-4.43,3.54-6.92,1.15-1.2,1.16-5,.01-6.22-.05-.48-.1-.96-.15-1.44-.07-.2-.13-.41-.2-.61-.08-.33-.16-.67-.24-1-.05-.22-.09-.43-.14-.65-.06-.14-.11-.28-.17-.42,.02-.54-.24-.82-.78-.85-.28-.71-.57-1.42-.85-2.13-.03-.55-.36-.76-.86-.77l-.42-.77c.28-.56,.82-.45,1.3-.5,0,0,0-.01,0-.01-.03,.41,.08,.74,.52,.87,.09,.18,.18,.37,.27,.55,.02,.5,.31,.69,.77,.69,.29,.67,.57,1.33,.86,2,.09,.7-.29,1.65,.93,1.75,.07,.27,.15,.55,.22,.82-.04,.05-.12,.11-.11,.13,.05,.1,.12,.18,.19,.27,.04,.23,.08,.46,.12,.68,.21,2.47,.6,4.92,.01,7.44-.19,.84-.14,2.19,1.19,2.65,.47,.79,.34,1.66,.34,2.51-.64,.56,.2,1.1,.03,1.66-.16,0-.32,0-.48,0-.25,0-.51-.01-.76-.02-.17-.74-.29-1.49-.53-2.21-.17-.51-.71-.96-.97-.22-1.08,3.15-3.62,4.85-6.19,6.54-.56,.37-.44,.62-.23,1.15,2.72,6.72,1.88,12.37-3.63,16.95-.36,.3-1,.58-.73,1.09,.35,.67,.88,.17,1.39,0,4.17-1.46,6.51-4.84,8.59-8.38,.86-1.47,1.87-3.06,1.57-4.97,.87-.14,.77-.77,.69-1.39,.03-.37,.06-.73,.08-1.1,.25-.01,.5-.02,.75-.03,.06,.33,.09,.67,.44,.84,.08,.08,.17,.15,.27,.21-.35,4.95-2.87,8.86-6.07,12.39-1.04,1.15-1.34,2.64-1.89,3.93-2.77,6.4-6.87,11.55-12.95,15-.9,.51-1.03,1.47-1.39,2.14-3,5.58-8.17,7.93-13.78,9.74-.2,.06-.38,.17-.56,.25-.3-.04-.62-.13-.82,.23-.56,.1-1.12,.19-1.68,.28-.21-.11-.3,0-.33,.2,0,0-2.76,.04-1.41,.04-.69-.05,.07-.28-.4-1.03,6.92-1.77,13.73-3.53,17.34-10.58-1.46,.61-3.21-.38-4.48,1.58-3.58,5.5-8.9,7.78-15.32,6.82-2.38-.35-3.84,.61-5.78,1.94,2.3,1.04,4.39,.84,6.45,.42,1.09-.22,2.55-.62,2.2,.84-3.38,.02-6.72,2.46-9.67,3.64-7.74,3.13-15.61,3.84-23.75,1.88-1.66-.4-3.29-.83-4.9-1.39-.78-.27-1.61-.3-2.43-.03-6.63,2.16-13.21,1.14-19.75-.42-.89-.21-1.77-.48-2.63-.27-4.96,1.2-9.88,.28-14.8-.23-1.06-.11-2.03-.11-3.02,.24-5.69,2.03-11.65,2.68-17.61,3.07-2.05,.14-3.88,.61-5.66,1.53-7.68,3.95-15.87,5.72-24.47,5.47-2.28-.07-3.42,1.56-4.88,2.61-5.77,4.12-12.19,6.14-19.2,6.41-1.73,.07-3.2,.33-4.76,1.38-4.62,3.13-9.78,5.15-15.23,6.41-.33,.08-.63,.27-.94,.41-.27-.05-.55-.09-.82-.14Zm83.15-65.86l-.41,.35c-1.55,.79-2.12,4.87-.88,6.14,.37,.38,.71,.22,1.11,.04,4.94-2.15,9.98-4.12,14.82-6.47,8.89-4.31,17.35-9.45,26-14.23,2.11-1.16,3.92-2.39,4.56-4.81,.3-1.12,.47-2.28,.69-3.42,1.54-.39,.74-1.64,.84-2.5,.14-1.14-1.14-.59-1.59-1.09l1.36-1.22c-.12-.18-.25-.36-.37-.54-3.5,2.09-7.33,3.57-10.55,6.18h-.02c-.74-.08-1.27,.36-1.87,.7-8.97,5.05-17.96,10.04-26.92,15.11-2.74,1.55-5.37,3.29-8.15,5,.71,.53,1.04,.18,1.4,.03,0,.24-.01,.49-.02,.73l-.02,.02Zm67.87-39.39c-1.57,0-2.67,1.11-3.89,1.81-.82,.47,.01,.77,.57,.82,0,.23,0,.45,.01,.68l-.87,.43c-.65,.94-.44,1.91-.11,2.89,.06,1.45,.16,2.89,.17,4.34,0,.97,.29,1.3,1.21,.82,.42-.22,.87-.4,1.28-.65,8.87-5.34,18.02-10.19,27.09-15.19,1.99-1.1,2.05-1.49,.31-2.99-1.25-1.07-2.33-2.25-2.99-3.78-.1-.24-.24-.29-.42-.07-.27,.08-.53,.16-.8,.24-.03-.21-.07-.42-.1-.63,.45-1.05,.4-1.18-.03-1.02-1.09,.4-2.32,.64-2.81,1.94h-.06c-.57-.43-1.02-.05-1.48,.21-4.12,2.37-8.26,4.7-12.33,7.15-1.61,.97-3.58,1.38-4.77,3h.02Zm48.96,51.01c-1.78,5.63-5.96,8.81-11.29,10.83,5.91-.34,9.51-4.09,12.86-8.24,1.74-2.38,3.61-4.68,4.19-7.93-1.1,.49-1.87,1.06-2.71,1.17-2.53,.35-3.15,1.96-3.05,4.17Zm-43.57,13.24c-4.54-1.14-8.92-.77-13.19,1.3,2.78,.61,5.17,2.64,8.2,1.92,0,.45,.02,.9,.03,1.34-.01,.1-.07,.13-.16,.11-.89-.08-1.65,.07-1.91,1.09-2.92,1.91-6.08,3.4-9.55,5.2,2.33,.66,4.12,1.3,6.07,1.47,5.92,.54,11.51-.62,16.79-3.22,4.06-2,7.6-4.67,9.79-8.8,.79-1.49,.65-2.13-1.29-2.21-4.11-.17-8.1,.18-11.92,1.77-.48-.02-.96-.04-1.2,.51-.03,.15-.12,.23-.26,.26-.23-.67-.78-.76-1.38-.76Zm-110.89,20.43c0-.31-.01-.63-.02-.94,5.88,.17,11.46-1.21,16.8-3.49,4.24-1.81,7.53-5.01,10.65-8.32,.7-.74,2.28-1.36,1.88-2.42-.43-1.15-2.05-.68-3.14-.83-4.56-.63-9.12-.43-13.42,1.19-2.57,.97-4.97,2.48-7.32,3.97-3.89,2.46-7.81,4.89-11.47,7.7-.39,.3-.87,.58-.72,1.12,.18,.64,.81,.3,1.24,.4,.86,.22,1.8-.04,2.63,.4,.37,.39,1.28,.16,1.2,1.06-.27,0-.55-.01-.82-.02-.13-.22-.27-.23-.41-.01-1.67,.09-3.26-.45-4.9-.58-.65-.05-1.59,.04-1.7,.8-.13,.89,.9,.67,1.39,.8,7.27,1.97,14.55,1.91,21.83,0,3.45-.9,6.78-2.15,10.01-3.66,.5-.24,1.12-.43,1.06-1.09-.06-.74-.77-.69-1.29-.71-1.76-.09-3.43-.23-5.14,.8-3.71,2.21-7.98,2.8-12.15,3.62-.16-.21-.29-.18-.41,.04-.24,.03-.48,.05-.73,.08-.25,.01-.51,.02-.76,.03-1.42,.41-2.85,.36-4.28,.05Zm99.51-21.47c.73,.21,1.31-.11,1.88-.5,1.04-.09,2.09-.19,3.13-.28,.25-.01,.49-.02,.74-.04,.73,.01,1.46,.02,2.19,.03,.51,.49,1.08,.8,1.82,.54,1.3-.07,2.65,.04,3.9-.26,1.97-.46,4.56-.4,5.64-2.02,2.27-3.41,5.63-4.64,9.16-5.46,1.78-.41,2.86-1.29,3.6-2.65,.79-1.44,1.9-2.63,2.6-4.15,1.12-2.45,2.93-4.37,5.36-5.65,1.69-.89,3.09-4.57,1.52-6.19-.54-.56-.52-1.24-.62-1.91-.41-2.77,1.07-5.01,2.19-7.31,.24-.49,.7-.8,.31-1.34-1.29-1.76-1.56-3.73-1.14-5.8,.17-.87-.09-1.28-.73-1.89-1.88-1.8-4.12-3.43-4.33-6.38-.07-1.02-.73-1.05-1.45-.9-7.6,1.5-14.91,.09-22.11-2.23-1.06-.34-1.86-.4-2.87,.22-2.6,1.6-5.3,3.05-7.98,4.54-.56,.31-1.07,.58-1.11,1.31-.11,2.24-1.14,4.19-2.13,6.11-2.04,3.96-4.8,7.28-8.83,9.42-3.1,1.65-6.36,2.59-9.83,3.17-3.33,.56-6.53,.73-9.79-.21-1.14-.33-2.28-1.05-3.56-.33-4.87,2.73-9.75,5.42-14.78,7.86-1.05,.51-1.07,1.11-.15,1.8,1.14,.85,2.28,1.7,3.39,2.59,5.8,4.66,11.26,9.66,15.21,16.07,.71,1.16,1.36,1.24,2.64,.81,3.72-1.27,7.7-1.4,10.91,.89,2.59,1.85,5.16,1.99,8.01,2.16,2.01,.12,3.54-.86,5.26-1.45,.64-.22,1.31-.38,1.96-.57Zm-29.78-31.56c3.91,1.55,7.93,1.55,13.14,.34,11.1-2.59,18.34-12.85,16.77-24.15-.25-1.78-.29-3.58-.14-5.37,.1-1.23,.64-2.13,1.97-2.52,3.28-.95,5.95-3.05,9.09-4.72-3.85-2.57-7.83-3.12-12.05-2.74-6.08,.54-10.61,4.63-11.81,10.62-.91,4.52-.52,9.17-1.56,13.68-.34,1.47-.21,3.14-.87,4.42-.83,1.59-1.13,3.56-3.32,4.4-3.87,1.48-7.27,3.93-11.23,6.05Zm58.8-48.59c-.1,2.86,.67,5.59,2.93,8.07,1.73,1.89,3.71,3.39,5.74,4.82,3.73,2.63,7.98,4.16,12.33,5.43,.69,.2,1.28,.28,1.26-.68-.05-2-.26-4-1.32-5.75-1.9-3.12-4.79-5.44-6.95-8.35-1.25-1.69-2.47-3.41-2.78-5.62-.27-1.94,.54-3.97,2.01-4.04,3.3-.16,5.55-2.47,8.28-3.77,.83-.4,.99-.98,.04-1.47-4.78-2.44-9.78-3.51-14.79-1.06-4.89,2.4-6.87,6.74-6.76,12.41Zm-104.64,64.1c-.29,6.78,2.12,12.36,7.16,16.88,1.21,1.09,2.02,1,2.96-.18,1.57-1.97,3.42-3.76,5.49-5.07,1.96-1.25,1.76-2.37,.47-3.53-.96-.87-1.45-1.98-2.12-2.96-2.53-3.7-4.51-7.63-3.55-12.41,.29-1.42,1.12-2.3,2.1-3.15,.68-.59,2.36-.59,2.14-1.44-.32-1.18-1.94-.45-2.93-.83-.06-.02-.14-.02-.2-.02-4.06,.21-7.82,.77-10.05,4.97-1.34,2.52-1.32,5.11-1.48,7.73Zm1.57,31.7c.86,0,1.55,.06,2.23,0,5.93-.56,11.22-3.02,16.29-5.89,4.66-2.64,7.82-6.96,11.27-10.92,.77-.89,.41-1.66-.25-2.37-3.35-3.6-9.15-4-13.03-.79-3.08,2.56-6.2,4.89-8.53,8.46-2.25,3.44-5.41,6.48-8.73,9.18-.68,.55-2.21,.95-1.88,1.87,.41,1.15,1.84,.23,2.62,.46Zm135.61-61.89c.34-2.67-.8-4.92-2-6.85-2.46-3.97-6.19-6.44-10.77-7.71-3.95-1.1-7.8-2.56-11.34-4.69-1.04-.62-1.39-.25-1.73,.78-1.25,3.76,.41,7.99,4.37,10.7,6.29,4.31,13.14,7.86,18.46,13.51,.69,.73,1.21,.63,1.5-.27,.59-1.84,1.95-3.48,1.52-5.46Zm-103.75,54.08c15.4,6.35,30.51,6.88,45.65-2.1-5.24-1.97-10.08-2.91-15.14-2.55-5.02,.36-9.94,1.41-14.9,2.17-5.21,.8-10.41,1.65-15.61,2.48Zm103.02-36.38c-.02-4.27-.83-7.77-2.99-10.48-2.82-3.55-6.78-5.97-10.46-8.61-.49-.35-.92-.58-1.46-.1-2.17,1.94-2.57,7.69-.81,10.08,1.35,1.84,2.63,3.74,3.79,5.71,2.25,3.8,4.86,7.42,6.31,11.67,.32,.95,.92,.67,1.4,.18,2.48-2.55,4.48-5.34,4.22-8.45Zm-91.68,26.44c-.26-.51-.48-1.2-.9-1.72-4.96-6.06-10.61-11.39-16.98-15.98-1.15-.83-2.06-.9-3.19-.42-2.14,.91-4.26,1.85-6.4,2.74-1.1,.46-1.42,1.01-.4,1.91,1.94,1.71,3.68,3.6,5.4,5.53,.87,.99,1.6,2.4,3.4,2.33,2.55-.09,4.5,1.23,6.3,2.95,.59,.56,.89,1.63,1.98,1.61,3.42-.05,6.65,.92,9.91,1.75,.57,.15,.96,.17,.89-.71Zm59.69,9.26c5.54-.14,9.69-2.3,12.21-7.59,1.06-2.23,1.31-4.58,2.15-6.77,.93-2.4-.48-4.42-.48-6.63,0-.19-.3-.44-.52-.55-.89-.45-5.46,.35-6.14,1.15-1.79,2.12-3.46,4.25-3.91,7.2-.63,4.1-2.78,7.6-5.06,10.99-.4,.59-1.45,.97-1.14,1.74,.33,.8,1.36,.31,2.08,.44,.27,.05,.55,0,.83,0Zm25.14-25.11s-.05-.47-.14-.95c-.72-4.13-3.6-7.22-5.27-10.9-.33-.73-.92-.37-1.27,.15-2.42,3.61-5.15,6.96-3.65,11.97,1.24,4.14,1.65,8.51,.73,12.87-.08,.39-.4,.86,0,1.16,.44,.34,.89-.02,1.33-.22,5.98-2.57,8.03-7.55,8.28-14.09Zm-153.69,30.42c-12.93-1.09-22.48,4.43-30.53,13.66,2.24,.27,4.41,.24,6.56,0,5.03-.56,10.14-1,13.61-5.51,.44-.57,.93-1.12,1.53-1.61,2.72-2.27,5.71-4.2,8.84-6.54Zm160.23-87.53c-.22-1.48-.04-3-.48-4.49-.38-1.29-.68-1.73-2.06-.93-3.25,1.88-6.59,3.58-9.91,5.33-1.13,.6-.8,1.26-.17,1.96,2.94,3.3,5.78,6.65,5.35,11.51-.13,1.45,1.12,1.74,1.93,2.07,1.01,.41,1.26-.68,1.51-1.46,.21-.65,.39-1.33,.68-1.94,1.83-3.81,3.61-7.62,3.15-12.04ZM114.05,164.37c-2.62-.83-4.96-1.36-7.33-1.53-1.2-.08-1.99,1.29-3.1,1.8-.18,.08-.4,.1-.59,.18-5.11,2.26-10.56,2.36-15.99,2.26-1.79-.03-2.93,.74-4.12,1.78-.88,.77-.58,1.31,.33,1.65,2.18,.82,4.37,1.62,6.73,1.78,8.94,.61,16.84-1.96,24.05-7.93ZM246.09,86.89c2.33-.07,4.66-.12,6.93-.81,.82-.25,1.12-.48,.49-1.2-1.31-1.49-2.59-2.95-2.8-5.08-.1-.96-1.02-1.14-1.89-1.26-1.49-.21-3.02-.34-4.44-.8-1.36-.44-2.48-.37-3.72,.33-2.9,1.65-5.87,3.2-8.79,4.82-.34,.19-.8,.58-.78,.86,.02,.49,.56,.76,1.03,.87,4.6,1.11,9.2,2.22,13.98,2.26Zm-54.36,56.61c-4.95-4.06-10.34-5.11-15.92-5.6-.75-.07-1.22,.32-1.72,.89-2.01,2.27-3.77,4.75-6.03,6.79-.33,.3-.82,.71-.51,1.23,.29,.48,.88,.24,1.32,.19,3.89-.51,7.78-1.01,11.65-1.6,3.59-.55,7.17-1.2,11.22-1.89Zm-7.55,8.74c-3.93-.82-7.46-2.25-11.05-3.5-3.24-1.13-6.53-1.16-9.59,.79-.47,.3-1.09,.52-1.08,1.12,.01,.63,.67,.76,1.18,.96,5.84,2.27,11.89,2.56,18.03,1.94,.84-.08,1.71-.34,2.52-1.31Zm38.77,4.16c1.89,.19,4.57-.5,7.27-.95,2.51-.42,4.81-1.51,7.16-2.43,.48-.19,1.13-.43,1.08-1.08-.05-.64-.75-.41-1.15-.6-1.47-.68-2.76-.09-4.1,.47-7.42,3.08-14.94,3.83-22.57,.78-.72-.29-1.43-.5-2.2-.4-.57,.08-1.47-.31-1.61,.42-.15,.76,.68,.98,1.34,1.23,4.49,1.64,9.11,2.46,14.78,2.56Zm-125.83-1.86c-4.84-1.94-15.55,2.45-18.24,6.36,3.14,0,6.3,0,9.46,0,.56,0,1.04-.1,1.51-.49,2.34-1.93,4.72-3.82,7.27-5.87Zm12.32-3.54c2.94-.41,5.55-.27,8.15,.09,.74,.1,1.36-.1,1.96-.44,1.77-1,3.54-2.01,5.31-3.02,.3-.17,.6-.4,.47-.81-.13-.43-.55-.32-.87-.37-2.4-.37-4.82-.54-7.21-.11-3.01,.54-5.76,1.67-7.81,4.66Zm37.67-6.6c.97,.1,1.64-.24,1.64-1.31,0-.71-4-4.35-4.73-4.21-3.18,.59-6.2,1.62-8.69,3.79-.27,.23-.45,.6-.23,.91,.11,.16,.49,.23,.73,.2,3.8-.49,7.54,.13,11.29,.62Zm47.87-5.29c-1.29-.09-2.67,.28-4.05,.67-.5,.14-1.12,.44-.51,.9,1.3,.98,2.29,2.63,4.29,2.35,2.1-.3,4.19-.62,6.28-.94,.37-.06,.91,.03,.95-.53,.03-.47-.42-.61-.77-.82-1.85-1.13-3.85-1.7-6.19-1.62Zm47.21-1.47v.03c.55,0,1.11,.03,1.65,0,.72-.05,1.82,.45,2.08-.34,.45-1.35,1.44-2.52,1.46-4,.01-.72-.65-.65-1.09-.56-2.84,.61-5.49,1.63-7.72,3.57-.27,.24-.49,.55-.36,.9,.13,.36,.52,.41,.87,.41,1.03,0,2.07,0,3.1,0Zm-81.76-4.7c1.01-.33,2.07-.17,2.62-.97,.38-.56-.28-1.01-.62-1.37-2.01-2.17-3.95-4.42-6.28-6.28-.46-.37-.91-.78-1.42-.37-.55,.45-.12,1.03,.15,1.48,1.02,1.74,1.92,3.59,3.19,5.13,.7,.84,1.06,2.28,2.36,2.38Zm25.53,20.5c2.15,.93,4.22,1.13,6.24,1.41,3.9,.55,7.82,.66,11.67-.44,.36-.1,.89,0,.98-.56,.11-.68-.53-.78-.91-.94-.42-.17-.95-.19-1.4-.1-4.72,.88-9.45,.8-14.18,.1-.81-.12-1.49,.08-2.41,.54Zm-21.49,.06c-1.89-.64-3-2.61-4.64-1.83-3.66,1.74-7.39,3.26-11.25,4.54,5.24-.36,10.42-.9,15.89-2.71Zm91.94-66.52c-1.22,.03-.93,.75-.92,1.2,.03,1.95,1.48,3.18,2.58,4.52,.38,.46,1.27,1.72,1.94,.85,.67-.87,1.8-2.4,.98-3.31-1.28-1.41-3.15-2.29-4.58-3.27Zm-12.34-10.8c1.75,.86,3.34,.93,4.89,1.16,1,.15,1.5-.15,1.66-1.24,.12-.85,.07-1.82,.72-2.54,.28-.31,1.03-.47,.5-1.06-.36-.4-.83-.17-1.3,.09-2.04,1.17-4.12,2.3-6.47,3.59Zm15.36,33.45c0,.6-.04,.88,0,1.15,.11,.56-.25,1.37,.53,1.58,.65,.17,.83-.54,1.13-.98,.65-.93,1.34-1.83,2.02-2.73,.43-.57-.68-3.78-1.4-3.94-.39-.08-.69,.14-.79,.49-.47,1.6-1.76,2.94-1.51,4.43Zm-5.53,14.83c1.49-.17,2.84-.36,4.2-.45,.96-.06,1.26-.56,.9-1.34-.33-.71,.05-1.86-.94-2.11-.92-.23-1.66,.46-2.26,1.11-.72,.77-1.81,1.27-1.9,2.79Z"/>
  <path class="cls-4" d="M323.22,20.02c.49-.31,1.06-.55,1.45-.96,.61-.64,.28-1.04-.51-1.17,.33-.37,.87-.42,1.12-.16,2.48,2.58,5.97,2.6,9.06,3.6,.98,.32,1.9,.48,1.79,1.79-3.08,2.38-6.64,3.94-10,5.82-8.73,4.9-17.47,9.77-26.22,14.63-11.06,6.14-22.14,12.25-33.22,18.38-.71,.39-1.55,.64-2.12,1.18-1.41,1.3-2.59,.75-3.31-.55-.88-1.61-3.08-2.75-2.11-5.14,.66-.27,1.63-.14,1.67-1.25,0,0,0,0,0,0,.41,.22,.82,.1,1.16-.09,4.86-2.69,9.72-5.4,14.57-8.12,.27-.15,.82-.36,.41-.91l.06,.03c.76,.4,1.28-.17,1.85-.49,5.97-3.35,11.94-6.71,17.91-10.05,3.78-2.11,7.71-3.95,11.25-6.46,0,0-.05-.02-.05-.02,1.6-.25,2.82-1.33,4.18-2.06,3.76-2.05,7.45-4.23,11.2-6.32,.78-.43,1.19-.67-.04-.93-.04-.25-.08-.5-.11-.75Z"/>
  <path class="cls-7" d="M123.91,53.28c4.03,3.27,7.31,7.3,11,10.91,6.21,6.09,12.3,12.31,18.97,17.92,7.35,6.17,15.83,10.6,23.98,15.54,1.07,.65,1.66,.64,.15,1.87-3.76,3.04-6.91,2.68-10.77,.02-5.99-4.12-12.61-7.33-18.28-11.92-4.25-3.44-8.19-7.29-12.13-11.09-5.22-5.05-10.3-10.24-15.46-15.35-.96-.95-1.62-2.24-3.01-2.7,1.46-1.65,2.91-3.32,4.42-4.92,.22-.24,.75-.19,1.14-.27Z"/>
  <path class="cls-10" d="M73.31,164.22c4.39-2.91,9.29-1.86,14.35-2.09-3.98,4.7-8.35,8.23-13.74,10.41-.18,.07-.41,0-.61,0-1.08-2.15-1.93-4.32-.34-6.58,.4-.57,.32-1.14,.35-1.74Z"/>
  <path class="cls-10" d="M71.73,174.54c2.77-.45,5.11-1.93,7.47-3.28,1-.57,1.66-.52,2.63-.08,1.61,.74,3.31,1.28,4.98,1.88,.36,.13,.92-.11,1.06,.39,.16,.59-.38,.82-.78,1.06-3.24,1.93-6.63,3.52-10.24,4.62-1.69,.52-3.4,.99-5.1,1.48,.31-1.53-1.22-2.18-1.58-3.31-.37-1.15,2.22-1.13,1.56-2.77Z"/>
  <path class="cls-2" d="M245.82,150.08c1.57-.4-.71-.04-1.8,.19-2.06,.42-4.15,.62-6.45-.42,1.94-1.33,3.4-2.29,5.78-1.94,6.42,.95,11.74-1.32,15.32-6.82,1.27-1.96,3.03-.97,4.48-1.58-3.61,7.04-10.41,8.81-17.34,10.58"/>
  <path class="cls-13" d="M286.84,98.45c.18-.56-.67-1.1-.03-1.66,1,3.35,1.43,6.71,.3,10.12-.1-.06-.19-.13-.27-.21,0-2.75,0-5.5,0-8.25Z"/>
  <path class="cls-13" d="M286.47,94.28c-1.33-.46-1.38-1.81-1.19-2.65,.59-2.52,.2-4.96-.01-7.44,1.25,1.89,1.14,4.06,.85,6.1-.2,1.43-.03,2.68,.35,3.99Z"/>
  <path class="cls-15" d="M278.86,63.19c-.67-1.57-.43-3.4-1.6-4.89-.67-.85,.22-1.26,1.1-1.23-.41,.46-.65,.8-.32,1.56,.62,1.42,.94,2.97,.82,4.56Z"/>
  <path class="cls-15" d="M278.97,75.65c.67-.02,.89-.45,.94-1.03,.44,.7,1.38,.94,1.62,1.82-.48,.04-1.02-.06-1.3,.5-.42-.43-.84-.86-1.26-1.28Z"/>
  <path class="cls-15" d="M278.33,69.73c-.12-1.51,.23-2.97,.55-4.43,.17,1.52,.05,3-.55,4.43Z"/>
  <path class="cls-15" d="M284.86,82.29c-1.22-.1-.84-1.05-.93-1.75,.75,.35,.95,.99,.93,1.75Z"/>
  <path class="cls-15" d="M278.17,72.76c-.45-.05-.79-.19-.81-.73-.02-.58,.23-.92,.83-.95,0,.56-.01,1.12-.02,1.68Z"/>
  <path class="cls-15" d="M133.32,139.63c.35-.89,1.13-.53,1.76-.59-.5,.47-1.15,.46-1.76,.59Z"/>
  <path class="cls-6" d="M71.69,181.69c.27,.05,.55,.09,.82,.14-.13,.18-.25,.52-.39,.52-.42,.02-.42-.35-.43-.66Z"/>
  <path class="cls-15" d="M279.77,74.4c-.38,.02-.69-.06-.78-.5,.31,.08,.75-.03,.78,.5Z"/>
  <path class="cls-6" d="M72.51,173.04c-.13,.42-.49,.39-.82,.42,.05-.58,.14-1.08,.82-.42Z"/>
  <path class="cls-15" d="M283.07,78.55c-.46,0-.75-.19-.77-.69,.23,.25,.77,.17,.77,.69Z"/>
  <path class="cls-15" d="M282.04,77.3c-.44-.13-.55-.46-.52-.87,.17,.29,.34,.58,.52,.87Z"/>
  <path class="cls-15" d="M285.16,83.51c-.06-.09-.14-.17-.19-.27-.01-.02,.07-.09,.11-.13,.02,.13,.05,.27,.07,.4Z"/>
  <path class="cls-11" d="M247.63,151.07c.03-.2,.12-.31,.33-.2-.11,.07-.22,.13-.33,.2Z"/>
  <path class="cls-12" d="M330.78,1.93c-.08,.05-.15,.1-.23,.15,.05-.08,.1-.15,.15-.23,0,0,.09,.09,.09,.09Z"/>
  <path class="cls-15" d="M132.1,139.86c.1-.23,.23-.29,.41-.07-.14,.02-.27,.05-.41,.07Z"/>
  <path class="cls-7" d="M186.95,108.1c3.96-2.12,7.36-4.57,11.23-6.05,2.19-.84,2.49-2.81,3.32-4.4,.66-1.28,.53-2.95,.87-4.42,1.04-4.5,.65-9.16,1.56-13.68,1.2-5.98,5.73-10.07,11.81-10.62,4.22-.38,8.19,.17,12.05,2.74-3.14,1.67-5.81,3.77-9.09,4.72-1.32,.39-1.87,1.28-1.97,2.52-.15,1.79-.1,3.58,.14,5.37,1.57,11.3-5.67,21.57-16.77,24.15-5.21,1.21-9.23,1.21-13.14-.34Z"/>
  <path class="cls-7" d="M245.75,59.51c-.1-5.67,1.87-10.01,6.76-12.41,5.01-2.45,10.01-1.38,14.79,1.06,.95,.48,.79,1.07-.04,1.47-2.74,1.3-4.99,3.61-8.28,3.77-1.47,.07-2.28,2.1-2.01,4.04,.31,2.21,1.52,3.92,2.78,5.62,2.16,2.92,5.05,5.23,6.95,8.35,1.07,1.75,1.28,3.74,1.32,5.75,.02,.96-.57,.88-1.26,.68-4.35-1.27-8.6-2.8-12.33-5.43-2.03-1.43-4.01-2.93-5.74-4.82-2.26-2.47-3.04-5.21-2.93-8.07Z"/>
  <path class="cls-4" d="M200.74,93.43c-.23,1.14-.4,2.3-.69,3.42-.64,2.42-2.46,3.65-4.56,4.81-8.65,4.78-17.1,9.92-26,14.23-4.85,2.35-9.88,4.32-14.82,6.47-.4,.17-.74,.33-1.11-.04-1.25-1.27-.67-5.35,.88-6.14,.14-.12,.28-.23,.41-.35,0,0,.02-.02,.02-.02,1.22-.32,2.5-.56,2.92-2.04l.05,.03c.75,.3,1.28-.17,1.87-.5,11.34-6.39,22.68-12.79,34.05-19.12,2.26-1.26,4.44-2.74,6.99-3.7,0,1.16,0,2.05,0,2.94Z"/>
  <path class="cls-5" d="M141.11,123.62c.16-2.63,.14-5.21,1.48-7.73,2.23-4.21,5.99-4.76,10.05-4.97,.07,0,.14,0,.2,.02,.99,.38,2.61-.34,2.93,.83,.23,.85-1.46,.85-2.14,1.44-.98,.85-1.82,1.72-2.1,3.15-.96,4.78,1.01,8.71,3.55,12.41,.67,.98,1.16,2.09,2.12,2.96,1.29,1.16,1.49,2.28-.47,3.53-2.07,1.32-3.92,3.1-5.49,5.07-.94,1.18-1.74,1.26-2.96,.18-5.05-4.52-7.46-10.1-7.16-16.88Z"/>
  <path class="cls-10" d="M142.68,155.32c-.78-.23-2.21,.7-2.62-.46-.32-.92,1.2-1.32,1.88-1.87,3.31-2.69,6.48-5.74,8.73-9.18,2.33-3.57,5.45-5.91,8.53-8.46,3.87-3.22,9.67-2.82,13.03,.79,.66,.71,1.02,1.48,.25,2.37-3.45,3.96-6.6,8.28-11.27,10.92-5.07,2.87-10.36,5.32-16.29,5.89-.68,.06-1.37,0-2.23,0Z"/>
  <path class="cls-10" d="M278.29,93.43c.43,1.98-.93,3.62-1.52,5.46-.29,.9-.81,1-1.5,.27-5.31-5.65-12.16-9.2-18.46-13.51-3.96-2.71-5.62-6.94-4.37-10.7,.34-1.03,.69-1.4,1.73-.78,3.54,2.13,7.39,3.59,11.34,4.69,4.58,1.28,8.3,3.75,10.77,7.71,1.2,1.93,2.34,4.18,2,6.85Z"/>
  <path class="cls-10" d="M114.34,159.92c-.83-.44-1.77-.18-2.63-.4-.43-.11-1.06,.23-1.24-.4-.15-.54,.33-.83,.72-1.12,3.66-2.81,7.58-5.24,11.47-7.7,2.34-1.48,4.74-3,7.32-3.97,4.31-1.62,8.87-1.82,13.42-1.19,1.09,.15,2.71-.32,3.14,.83,.4,1.06-1.18,1.67-1.88,2.42-3.12,3.3-6.42,6.51-10.65,8.32-5.34,2.27-10.93,3.65-16.8,3.49-.95-.09-1.91-.17-2.86-.26Z"/>
  <path class="cls-10" d="M174.54,147.51c5.2-.83,10.41-1.68,15.61-2.48,4.96-.76,9.88-1.82,14.9-2.17,5.06-.36,9.9,.58,15.14,2.55-15.14,8.97-30.25,8.45-45.65,2.1Z"/>
  <path class="cls-2" d="M277.56,111.13c.26,3.11-1.74,5.9-4.22,8.45-.48,.49-1.07,.78-1.4-.18-1.44-4.25-4.05-7.87-6.31-11.67-1.16-1.96-2.44-3.87-3.79-5.71-1.77-2.39-1.36-8.14,.81-10.08,.54-.48,.97-.25,1.46,.1,3.69,2.63,7.64,5.06,10.46,8.61,2.16,2.71,2.97,6.21,2.99,10.48Z"/>
  <path class="cls-4" d="M218.54,80.19c.29-.14,.58-.29,.87-.43,.89-.47,1.82-.88,2.67-1.42,1.61-1.02,3.59-1.47,4.81-3.09h0c1.51,.13,2.45-1.02,3.6-1.66,4.6-2.58,9.34-4.92,13.79-7.79,.27-.08,.53-.16,.8-.24,.14,.02,.28,.05,.42,.07,.65,1.53,1.74,2.71,2.99,3.78,1.74,1.49,1.68,1.89-.31,2.99-9.07,5-18.21,9.85-27.09,15.19-.41,.25-.85,.43-1.28,.65-.92,.49-1.21,.15-1.21-.82,0-1.45-.11-2.89-.17-4.34,.04-.96,.07-1.93,.11-2.89Z"/>
  <path class="cls-5" d="M185.88,137.57c.08,.88-.32,.86-.89,.71-3.26-.84-6.49-1.8-9.91-1.75-1.08,.02-1.38-1.05-1.98-1.61-1.8-1.71-3.75-3.03-6.3-2.95-1.79,.06-2.52-1.35-3.4-2.33-1.71-1.94-3.46-3.83-5.4-5.53-1.02-.9-.7-1.45,.4-1.91,2.14-.9,4.26-1.84,6.4-2.74,1.14-.48,2.04-.41,3.19,.42,6.36,4.59,12.01,9.92,16.98,15.98,.43,.52,.64,1.21,.9,1.72Z"/>
  <path class="cls-1" d="M230.95,140.68c3.83-1.6,7.81-1.94,11.92-1.77,1.94,.08,2.08,.71,1.29,2.21-2.19,4.13-5.73,6.8-9.79,8.8-5.28,2.6-10.87,3.76-16.79,3.22-1.95-.18-3.74-.82-6.07-1.47,3.48-1.8,6.64-3.29,9.55-5.2,.65-.34,1.45-.41,1.91-1.09,.1,.02,.15-.02,.16-.11,2.17-1.17,4.34-2.35,6.34-3.8,.15-.03,.23-.12,.27-.26,.4-.17,.8-.34,1.2-.51Z"/>
  <path class="cls-2" d="M245.56,146.83c-.28,0-.56,.04-.83,0-.71-.14-1.75,.36-2.08-.44-.31-.77,.74-1.15,1.14-1.74,2.28-3.38,4.43-6.89,5.06-10.99,.45-2.96,2.12-5.08,3.91-7.2,.68-.8,5.25-1.6,6.14-1.15,.22,.11,.52,.36,.52,.55,0,2.21,1.41,4.23,.48,6.63-.84,2.19-1.09,4.54-2.15,6.77-2.52,5.28-6.67,7.44-12.21,7.59Z"/>
  <path class="cls-2" d="M270.7,121.72c-.25,6.55-2.3,11.52-8.28,14.09-.44,.19-.89,.55-1.33,.22-.39-.3-.08-.77,0-1.16,.92-4.36,.51-8.74-.73-12.87-1.51-5.01,1.23-8.36,3.65-11.97,.35-.52,.94-.88,1.27-.15,1.67,3.67,4.56,6.76,5.27,10.9,.08,.48,.14,.96,.14,.95Z"/>
  <path class="cls-10" d="M117.01,152.13c-3.13,2.34-6.12,4.27-8.84,6.54-.59,.49-1.09,1.04-1.53,1.61-3.47,4.51-8.57,4.95-13.61,5.51-2.14,.24-4.32,.26-6.56,0,8.06-9.23,17.61-14.75,30.53-13.66Z"/>
  <path class="cls-7" d="M277.24,64.6c.46,4.42-1.32,8.23-3.15,12.04-.3,.61-.47,1.29-.68,1.94-.25,.78-.5,1.88-1.51,1.46-.8-.33-2.05-.62-1.93-2.07,.43-4.85-2.41-8.21-5.35-11.51-.63-.7-.96-1.36,.17-1.96,3.32-1.75,6.67-3.45,9.91-5.33,1.38-.8,1.68-.36,2.06,.93,.44,1.49,.26,3.01,.48,4.49Z"/>
  <path class="cls-10" d="M114.05,164.37c-7.21,5.97-15.11,8.54-24.05,7.93-2.37-.16-4.55-.96-6.73-1.78-.92-.34-1.21-.88-.33-1.65,1.18-1.04,2.33-1.81,4.12-1.78,5.43,.1,10.87,0,15.99-2.26,.19-.08,.4-.09,.59-.18,1.1-.51,1.9-1.88,3.1-1.8,2.37,.16,4.71,.7,7.33,1.53Z"/>
  <path class="cls-7" d="M246.09,86.89c-4.78-.04-9.38-1.15-13.98-2.26-.47-.11-1.01-.38-1.03-.87-.01-.28,.45-.68,.78-.86,2.92-1.62,5.88-3.17,8.79-4.82,1.23-.7,2.36-.77,3.72-.33,1.42,.46,2.95,.59,4.44,.8,.87,.12,1.79,.3,1.89,1.26,.21,2.13,1.5,3.59,2.8,5.08,.63,.72,.34,.95-.49,1.2-2.27,.69-4.6,.74-6.93,.81Z"/>
  <path class="cls-4" d="M138.69,134.54c.74,1.28,.74,1.4-.77,2.07-4.21,1.89-8.57,3.23-13.25,3.12-1.01-.02-2-.11-2.94-.73-1.01-.67-.98-1.61-.58-2.31,2.32-4.1,5.77-6.98,10.01-8.95,.14,.15,.29,.3,.43,.45-2.49,1.85-4.93,3.75-6.87,6.23-.75,.95-.95,1.9-.13,2.71,1.16,1.15,6.23,.46,7.38-.88-.92-.42-1.74,.26-2.61,.25-1.26,0-3.08,.86-3.63-.33-.59-1.3,1.04-2.37,2.02-3.34,2.47-2.47,5.31-4.42,8.32-6.16,.47-.27,1.69-.5,.58-1.5-.03-.24-.05-.49-.08-.73,.41-.22,.87-.4,1.24-.68,1.33-1.01,1.57-.37,1.67,.94,.32,4.19,.36,4.18-3.3,6.03-.36,.18-.74,.34-1.08,.56-1.41,.89-1.17,1.85,.17,2.37,1.06,.41,2.09,1.29,3.39,.84l.03,.03Z"/>
  <path class="cls-10" d="M278.97,75.65c.42,.43,.84,.86,1.26,1.28l.42,.77c-.03,.62,.54,.55,.86,.77,.28,.71,.57,1.42,.85,2.13-.11,.62,.38,.7,.78,.85,.06,.14,.11,.28,.17,.42,.05,.22,.1,.43,.14,.65,.08,.33,.16,.67,.24,1,.07,.2,.13,.41,.2,.61,.05,.48,.1,.96,.15,1.44,0,2.07,0,4.15-.01,6.22-.81,2.49-1.66,4.95-3.54,6.92-.63,.66-1.31,1.17-2.05,1.65-.12-.13-.23-.27-.35-.4,.61-1.99,1.41-3.95,1.79-5.99,.53-2.88-.76-5.41-2.18-7.8-.92-1.54-1.96-3.03-3.44-4.13-.36-.27-.45-.79-.22-1.13,1.39-2.09,1.54-4.79,3.36-6.66,.17,.38,.55,.25,.84,.34,.25,.34,.5,.69,.74,1.03Z"/>
  <path class="cls-2" d="M285.65,105.89c-.03,.37-.06,.73-.08,1.1-.68,.24-.76,.78-.69,1.39,.3,1.91-.71,3.5-1.57,4.97-2.08,3.54-4.42,6.92-8.59,8.38-.5,.18-1.04,.67-1.39,0-.27-.52,.37-.8,.73-1.09,5.51-4.58,6.35-10.23,3.63-16.95-.21-.53-.34-.78,.23-1.15,2.57-1.69,5.11-3.39,6.19-6.54,.26-.74,.8-.29,.97,.22,.23,.72,.36,1.47,.53,2.21,.02,2.49,.03,4.97,.05,7.46Z"/>
  <path class="cls-10" d="M191.73,143.5c-4.05,.69-7.62,1.34-11.22,1.89-3.88,.59-7.77,1.08-11.65,1.6-.44,.06-1.03,.29-1.32-.19-.31-.51,.18-.93,.51-1.23,2.26-2.04,4.03-4.52,6.03-6.79,.5-.57,.98-.96,1.72-.89,5.58,.49,10.97,1.54,15.92,5.6Z"/>
  <path class="cls-10" d="M114.72,160.97c.27,0,.55,.01,.82,.02,.56,.05,1.12,.1,1.68,.14,1.43,.31,2.86,.35,4.28-.05,.26,.22,.51,.16,.76-.03,.24-.03,.48-.05,.73-.08,.14-.01,.27-.02,.41-.04,4.17-.82,8.44-1.41,12.15-3.62,1.72-1.02,3.38-.89,5.14-.8,.52,.03,1.22-.03,1.29,.71,.06,.66-.56,.86-1.06,1.09-3.23,1.52-6.55,2.76-10.01,3.66-7.28,1.9-14.56,1.96-21.83,0-.49-.13-1.52,.08-1.39-.8,.11-.76,1.05-.85,1.7-.8,1.64,.13,3.23,.68,4.9,.58,.14,0,.28,0,.41,.01Z"/>
  <path class="cls-10" d="M184.18,152.24c-.8,.97-1.68,1.23-2.52,1.31-6.14,.62-12.19,.33-18.03-1.94-.51-.2-1.16-.33-1.18-.96-.01-.6,.62-.83,1.08-1.12,3.06-1.94,6.35-1.92,9.59-.79,3.59,1.25,7.11,2.68,11.05,3.5Z"/>
  <path class="cls-1" d="M222.94,156.4c-5.66-.1-10.29-.93-14.78-2.56-.67-.24-1.49-.47-1.34-1.23,.14-.73,1.05-.35,1.61-.42,.77-.1,1.48,.11,2.2,.4,7.63,3.05,15.15,2.3,22.57-.78,1.34-.55,2.63-1.15,4.1-.47,.4,.19,1.1-.04,1.15,.6,.05,.65-.6,.9-1.08,1.08-2.35,.92-4.66,2.01-7.16,2.43-2.7,.45-5.38,1.15-7.27,.95Z"/>
  <path class="cls-10" d="M97.12,154.54c-2.55,2.05-4.93,3.94-7.27,5.87-.47,.39-.95,.49-1.51,.49-3.16,0-6.33,0-9.46,0,2.7-3.9,13.4-8.3,18.24-6.36Z"/>
  <path class="cls-9" d="M200.74,93.43v-2.94c-2.55,.96-4.73,2.44-6.99,3.7-11.37,6.34-22.71,12.73-34.05,19.12-.59,.33-1.12,.81-1.87,.5-.08-.32,.1-.54,.34-.67,3.5-1.98,7.01-3.95,10.51-5.92,6.96-3.9,13.92-7.8,20.87-11.72,.43-.24,1.32-.31,.86-1.23,0,0,.02-.01,.02-.01,.73,.51,1.25-.02,1.84-.34,2.57-1.37,5.15-2.73,7.72-4.08,.45,.5,1.73-.04,1.59,1.09-.1,.86,.69,2.11-.84,2.5Z"/>
  <path class="cls-10" d="M109.44,151.01c2.05-2.99,4.8-4.11,7.81-4.66,2.39-.43,4.81-.26,7.21,.11,.32,.05,.74-.06,.87,.37,.13,.41-.17,.63-.47,.81-1.77,1.01-3.53,2.02-5.31,3.02-.6,.34-1.22,.54-1.96,.44-2.6-.36-5.21-.49-8.15-.09Z"/>
  <path class="cls-10" d="M147.11,144.4c-3.75-.5-7.49-1.11-11.29-.62-.24,.03-.62-.03-.73-.2-.21-.31-.04-.68,.23-.91,2.5-2.17,5.51-3.2,8.69-3.79,.72-.13,4.72,3.5,4.73,4.21,0,1.06-.67,1.41-1.64,1.31Z"/>
  <path class="cls-4" d="M190.42,94.27c.45,.92-.43,.99-.86,1.23-6.95,3.92-13.91,7.82-20.87,11.72-3.51,1.97-7.01,3.94-10.51,5.92-.24,.13-.42,.35-.34,.67,0,0-.05-.03-.05-.03-1.28-.26-1.86,1.04-2.9,1.31-.36,.15-.7,.5-1.4-.03,2.78-1.71,5.41-3.45,8.15-5,8.95-5.07,17.95-10.06,26.92-15.11,.6-.34,1.13-.78,1.87-.69Z"/>
  <path class="cls-1" d="M223.12,143.92c-3.03,.72-5.42-1.31-8.2-1.92,4.26-2.07,8.65-2.44,13.19-1.3-1.66,1.07-3.33,2.15-4.99,3.22Z"/>
  <path class="cls-9" d="M308.05,30.1c-3.55,2.51-7.48,4.35-11.25,6.46-5.98,3.34-11.94,6.7-17.91,10.05-.57,.32-1.09,.89-1.85,.49-.36-1.06,1.62-.59,1.13-1.73,0,0,0,0,0,0,.57,.39,1.11,.03,1.53-.2,2.49-1.41,4.93-2.89,7.39-4.35v-.16s.17-.03,.17-.03c1.49-.73,3.3-.99,4.15-2.71,0,0,0,0,0,0,2.22,.08,3.68-1.54,5.41-2.5,.42-.23,1.6-.08,1.21-1.23,0,0,0,0,0,0,.82,.44,1.44-.1,2.08-.46,1.66-.93,3.28-1.94,4.97-2.81,.91-.46,1.74-1.43,2.97-.82Z"/>
  <path class="cls-10" d="M194.97,139.12c2.34-.07,4.34,.49,6.19,1.62,.35,.22,.81,.35,.77,.82-.04,.56-.58,.47-.95,.53-2.09,.33-4.19,.64-6.28,.94-1.99,.28-2.99-1.36-4.29-2.35-.61-.46,.01-.76,.51-.9,1.38-.39,2.77-.76,4.05-.67Z"/>
  <path class="cls-2" d="M242.19,137.65c-1.03,0-2.07,0-3.1,0-.36,0-.74-.05-.87-.41-.13-.35,.09-.66,.36-.9,2.23-1.94,4.89-2.96,7.72-3.57,.44-.1,1.1-.16,1.09,.56-.02,1.48-1.01,2.64-1.46,4-.26,.79-1.36,.29-2.08,.34-.55,.04-1.1,0-1.65,0v-.03Z"/>
  <path class="cls-10" d="M185.96,153.45c.92-.45,1.6-.66,2.41-.54,4.73,.7,9.45,.78,14.18-.1,.45-.08,.99-.06,1.4,.1,.38,.15,1.02,.26,.91,.94-.09,.55-.62,.46-.98,.56-3.85,1.1-7.78,.99-11.67,.44-2.01-.28-4.09-.48-6.24-1.41Z"/>
  <path class="cls-10" d="M164.46,153.51c-5.47,1.81-10.66,2.35-15.89,2.71,3.86-1.28,7.59-2.8,11.25-4.54,1.64-.78,2.76,1.18,4.64,1.83Z"/>
  <path class="cls-2" d="M273.24,130.05c-3.35,4.15-6.96,7.9-12.86,8.24,5.33-2.02,9.51-5.2,11.29-10.83,.3,1,1.75,1.3,1.57,2.59Z"/>
  <path class="cls-2" d="M273.24,130.05c.18-1.29-1.27-1.59-1.57-2.59-.1-2.21,.52-3.82,3.05-4.17,.84-.12,1.61-.68,2.71-1.17-.58,3.25-2.45,5.56-4.19,7.93Z"/>
  <path class="cls-10" d="M256.41,86.98c1.43,.98,3.3,1.85,4.58,3.27,.82,.9-.31,2.44-.98,3.31-.67,.86-1.56-.39-1.94-.85-1.09-1.34-2.54-2.56-2.58-4.52,0-.45-.3-1.18,.92-1.2Z"/>
  <path class="cls-2" d="M259.43,109.63c-.25-1.49,1.04-2.83,1.51-4.43,.1-.35,.4-.57,.79-.49,.72,.16,1.83,3.37,1.4,3.94-.69,.9-1.38,1.8-2.02,2.73-.31,.44-.49,1.15-1.13,.98-.78-.21-.43-1.02-.53-1.58-.05-.26,0-.54,0-1.15Z"/>
  <path class="cls-4" d="M222.69,76.45c1.2-1.62,3.17-2.03,4.77-3,4.07-2.45,8.22-4.78,12.33-7.15,.46-.26,.91-.65,1.48-.22,.09,.54-.32,.66-.69,.86-3.99,2.22-8.01,4.41-11.95,6.72-.63,.37-1.84,.34-1.75,1.58,0,0,0,0,0,0-.8-.36-1.42,.05-2.01,.49-.65,.49-1.29,.96-2.18,.7Z"/>
  <path class="cls-9" d="M226.89,75.25c-.09-1.25,1.12-1.21,1.75-1.58,3.94-2.31,7.95-4.5,11.95-6.72,.36-.2,.77-.32,.69-.86,0,0,.06,0,.06,0,1.18,.42,1.78-.95,2.84-.92,.03,.21,.07,.42,.1,.63-4.44,2.87-9.18,5.21-13.79,7.79-1.14,.64-2.09,1.79-3.6,1.66Z"/>
  <path class="cls-2" d="M253.9,124.46c.09-1.52,1.19-2.02,1.9-2.79,.6-.65,1.34-1.34,2.26-1.11,.99,.25,.6,1.4,.94,2.11,.36,.78,.06,1.27-.9,1.34-1.36,.09-2.71,.29-4.2,.45Z"/>
  <path class="cls-4" d="M308.05,30.1c-1.23-.61-2.06,.36-2.97,.82-1.69,.87-3.31,1.88-4.97,2.81-.64,.35-1.26,.9-2.08,.46,4.18-2.76,8.58-5.14,13.06-7.39,.1,.16,.2,.31,.29,.47-.53,.78-1.53,.81-2.19,1.4-.47,.42-1.54,.3-1.18,1.41l.05,.02Z"/>
  <path class="cls-4" d="M199.99,89.84c-2.57,1.36-5.15,2.71-7.72,4.08-.59,.31-1.11,.85-1.84,.34,3.22-2.61,7.05-4.09,10.55-6.18,.12,.18,.25,.36,.37,.54l-1.36,1.22Z"/>
  <path class="cls-15" d="M223.12,143.92c1.66-1.07,3.33-2.15,4.99-3.22,.6,0,1.15,.09,1.38,.76-2.01,1.45-4.17,2.63-6.34,3.8,0-.45-.02-.9-.03-1.34Z"/>
  <path class="cls-4" d="M287.09,40.81c-2.46,1.46-4.91,2.94-7.39,4.35-.42,.24-.96,.59-1.53,.2,2.74-1.98,5.39-4.13,8.92-4.55Z"/>
  <path class="cls-9" d="M222.69,76.45c.89,.26,1.53-.21,2.18-.7,.6-.45,1.22-.85,2.01-.49-1.22,1.62-3.2,2.07-4.81,3.09-.85,.54-1.78,.95-2.67,1.42,0-.23,0-.45-.01-.68,.8-1.26,2.78-1.03,3.32-2.63h-.02Z"/>
  <path class="cls-4" d="M298.03,34.18c.38,1.15-.79,1-1.21,1.23-1.74,.96-3.2,2.59-5.41,2.5,1.95-1.7,4.2-2.87,6.63-3.73Z"/>
  <path class="cls-15" d="M285.65,105.89c-.02-2.49-.03-4.97-.05-7.46,.25,0,.51,.01,.76,.02,.01,2.47,.03,4.94,.04,7.41-.25,.01-.5,.02-.75,.03Z"/>
  <path class="cls-4" d="M311.08,26.8c2.04-1.51,4.28-2.64,6.59-3.65,.11,.13,.21,.25,.32,.38-2.07,1.48-4.36,2.58-6.62,3.74-.1-.16-.2-.31-.29-.47Z"/>
  <path class="cls-13" d="M284.03,91.8c0-2.07,0-4.15,.01-6.22,1.15,1.23,1.14,5.02-.01,6.22Z"/>
  <path class="cls-4" d="M268.61,50.72c1.65-1.19,3.31-2.38,5.2-3.17,.12,.17,.24,.33,.36,.5-1.7,1.14-3.36,2.35-5.39,2.86-.06-.06-.11-.12-.17-.18Z"/>
  <path class="cls-4" d="M278.16,45.37c.49,1.14-1.49,.67-1.13,1.73,0,0-.06-.03-.06-.03-1.17-.37-1.75,.97-2.8,.97-.12-.17-.24-.33-.36-.5,1.4-.83,2.61-2.02,4.35-2.17Z"/>
  <path class="cls-4" d="M291.41,37.91c-.85,1.72-2.65,1.98-4.15,2.71,.75-1.87,2.58-2.09,4.15-2.71Z"/>
  <path class="cls-4" d="M262.41,54.05c1.45-1.16,3.12-1.94,4.8-2.7,.1,.12,.2,.24,.3,.36-1.58,.99-3.01,2.29-5.01,2.42l-.08-.08Z"/>
  <path class="cls-4" d="M136.57,124.44c.03,.24,.05,.49,.08,.73-1.24,.76-2.47,1.51-3.71,2.27l-.03-.89c1.05-1.01,2.31-1.63,3.66-2.11Z"/>
  <path class="cls-4" d="M222.71,76.45c-.54,1.6-2.52,1.37-3.32,2.63-.56-.05-1.39-.35-.57-.82,1.22-.7,2.32-1.81,3.89-1.81Z"/>
  <path class="cls-8" d="M141.15,136.52c.83-.52,1.27,.69,2.03,.47,.25,1.31-.8,.78-1.35,.95-.59-.13-1.16-.22-1.47,.49-.25,.04-.49,.08-.74,.12,.09-.47,.19-.95,.28-1.43,.08-.09,.12-.19,.12-.3,.38-.1,.75-.2,1.13-.3Z"/>
  <path class="cls-13" d="M286.4,105.86c-.01-2.47-.03-4.94-.04-7.41,.16,0,.32,0,.48,0,0,2.75,0,5.5,0,8.25-.35-.17-.38-.51-.44-.84Z"/>
  <path class="cls-4" d="M244.17,65.17c-1.06-.04-1.66,1.34-2.84,.92,.48-1.3,1.72-1.54,2.81-1.94,.44-.16,.48-.03,.03,1.02Z"/>
  <path class="cls-9" d="M154.88,115.09c1.04-.27,1.62-1.57,2.9-1.31-.42,1.48-1.7,1.72-2.92,2.04,0-.24,.01-.49,.02-.73Z"/>
  <path class="cls-4" d="M323.22,20.02c.04,.25,.08,.5,.11,.75-1.18,.32-2.01,1.4-3.28,1.51-.11-.12-.22-.24-.33-.36,1.07-.82,2.24-1.44,3.5-1.9Z"/>
  <path class="cls-15" d="M117.22,161.12c-.56-.05-1.12-.1-1.68-.14,.08-.9-.83-.67-1.2-1.06,.95,.09,1.91,.17,2.86,.26,0,.31,.01,.63,.02,.94Z"/>
  <path class="cls-15" d="M141.15,136.52c-.38,.1-.75,.2-1.13,.3-.23-.72,.41-1.27,.38-1.95,1.16,.13,.89,.92,.76,1.65Z"/>
  <path class="cls-4" d="M259.13,56.65c-.17-.18-.88,.14-.56-.48,.4-.77,1.23-.98,2.01-1.21,.11,.16,.22,.33,.34,.49-.03,.25-.06,.49-.09,.74h0c-.67-.24-1.2,.05-1.7,.46Z"/>
  <path class="cls-4" d="M317.67,23.15c.44-.81,1.35-.85,2.05-1.23,.11,.12,.22,.24,.33,.35-.47,.77-1.26,1.01-2.05,1.25-.11-.13-.21-.25-.32-.38Z"/>
  <path class="cls-9" d="M259.13,56.65c.5-.42,1.03-.7,1.7-.46-.04,1.11-1,.98-1.67,1.25-.01-.26-.02-.52-.03-.78Z"/>
  <path class="cls-3" d="M132.91,126.55c0,.3,.02,.59,.03,.89-.45,.25-.9,.5-1.35,.74-.14-.15-.29-.3-.43-.45,.47-.56,.93-1.14,1.75-1.19Z"/>
  <path class="cls-15" d="M222.98,145.37c-.45,.68-1.26,.75-1.91,1.09,.26-1.02,1.02-1.17,1.91-1.09Z"/>
  <path class="cls-4" d="M260.58,54.96c.46-.6,1.23-.6,1.84-.91,0,0,.08,.08,.08,.08,.06,1.14-.99,.96-1.58,1.32-.11-.16-.22-.33-.34-.49Z"/>
  <path class="cls-14" d="M224.67,138.87c.76-.31,1.36-.13,1.82,.54-.74,.26-1.31-.05-1.82-.54Z"/>
  <path class="cls-9" d="M218.54,80.19c-.04,.96-.07,1.93-.11,2.89-.34-.98-.54-1.95,.11-2.89Z"/>
  <path class="cls-14" d="M216.73,139.66c.53-.54,1.18-.63,1.88-.5-.57,.39-1.15,.71-1.88,.5Z"/>
  <path class="cls-15" d="M284.87,108.38c-.07-.61,.02-1.15,.69-1.39,.08,.62,.18,1.25-.69,1.39Z"/>
  <path class="cls-4" d="M267.21,51.35c.36-.44,.8-.72,1.4-.64,.06,.06,.11,.12,.17,.18-.14,.71-.82,.58-1.27,.82-.1-.12-.2-.24-.3-.36Z"/>
  <path class="cls-12" d="M140.35,138.43c.31-.71,.88-.62,1.47-.49-.42,.39-.86,.7-1.47,.49Z"/>
  <path class="cls-10" d="M278.44,100.38c-.27,.31-.66,.64-.94,.19-.33-.55,.16-.61,.58-.59,.12,.13,.23,.27,.35,.4Z"/>
  <path class="cls-15" d="M283.14,81.45c-.4-.15-.88-.23-.78-.85,.54,.03,.8,.31,.78,.85Z"/>
  <path class="cls-15" d="M278.22,74.62c-.29-.1-.67,.04-.84-.34,.48-.38,.7-.13,.84,.34Z"/>
  <path class="cls-15" d="M281.51,78.48c-.32-.22-.9-.15-.86-.77,.51,0,.84,.22,.86,.77Z"/>
  <path class="cls-15" d="M230.95,140.68c-.4,.17-.8,.34-1.2,.51,.24-.55,.72-.53,1.2-.51Z"/>
  <path class="cls-15" d="M283.45,82.53c-.05-.22-.1-.43-.14-.65,.05,.22,.1,.43,.14,.65Z"/>
  <path class="cls-15" d="M283.89,84.14c-.07-.2-.13-.41-.2-.61,.07,.2,.13,.41,.2,.61Z"/>
  <path class="cls-15" d="M122.26,161.04c-.25,.19-.5,.25-.76,.03,.25-.01,.51-.02,.76-.03Z"/>
  <path class="cls-15" d="M123.4,160.93c-.14,.01-.27,.02-.41,.04,.12-.22,.26-.24,.41-.04Z"/>
  <path class="cls-9" d="M245.49,65.63c-.14-.02-.28-.05-.42-.07,.18-.21,.32-.16,.42,.07Z"/>
  <path class="cls-9" d="M154.84,115.84c-.14,.12-.28,.23-.41,.35,.14-.12,.28-.23,.41-.35Z"/>
  <path class="cls-14" d="M221.74,138.87c.23-.26,.48-.28,.74-.04-.25,.01-.49,.02-.74,.04Z"/>
  <path class="cls-15" d="M114.72,160.97c-.14,0-.28,0-.41-.01,.15-.21,.28-.2,.41,.01Z"/>
  <path class="cls-9" d="M267.51,51.71c.44-.24,1.13-.11,1.27-.82,2.03-.51,3.69-1.72,5.39-2.86,1.05,0,1.63-1.33,2.8-.97,.41,.55-.14,.75-.41,.91-4.84,2.73-9.7,5.43-14.57,8.12-.35,.19-.76,.31-1.16,.09,.03-.25,.06-.49,.09-.74,.59-.37,1.64-.18,1.58-1.32,2-.13,3.43-1.43,5.01-2.42Z"/>
  <path class="cls-9" d="M317.99,23.53c.79-.24,1.58-.49,2.05-1.25,1.28-.11,2.1-1.19,3.28-1.51,1.23,.26,.82,.5,.04,.93-3.74,2.09-7.43,4.27-11.2,6.32-1.36,.74-2.57,1.81-4.18,2.06-.35-1.11,.72-.99,1.18-1.41,.66-.59,1.66-.62,2.19-1.4,2.26-1.16,4.55-2.25,6.62-3.74Z"/>
  <path class="cls-9" d="M131.59,128.19c.45-.25,.9-.5,1.35-.74,1.24-.76,2.47-1.51,3.71-2.27,1.11,.99-.11,1.22-.58,1.5-3.01,1.74-5.85,3.7-8.32,6.16-.98,.98-2.61,2.04-2.02,3.34,.54,1.19,2.36,.32,3.63,.33,.88,0,1.69-.67,2.61-.25-1.15,1.34-6.22,2.03-7.38,.88-.82-.81-.61-1.75,.13-2.71,1.94-2.48,4.38-4.38,6.87-6.23Z"/>
</svg>