<?xml version="1.0" encoding="UTF-8"?>
<svg id="Layer_1" data-name="Layer 1" xmlns="http://www.w3.org/2000/svg" viewBox="0 0 414 200">
  <defs>
    <style>
      .cls-1 {
        fill: #f7b7d3;
      }

      .cls-2 {
        fill: #00bef2;
      }

      .cls-3 {
        fill: #eae0cd;
      }

      .cls-4 {
        fill: #fff9b8;
      }

      .cls-5 {
        fill: #fff200;
      }

      .cls-6 {
        fill: #fbb040;
      }

      .cls-7 {
        fill: #6c6259;
      }

      .cls-8 {
        fill: #9ed2f1;
      }

      .cls-9 {
        fill: #baad98;
      }

      .cls-10 {
        fill: #cec4c1;
      }

      .cls-11 {
        fill: #363030;
      }

      .cls-12 {
        fill: #47443d;
      }

      .cls-13 {
        fill: #4e4b46;
      }
    </style>
  </defs>
  <path class="cls-12" d="M112.12,32.94c1.26-1.75,1.7,.16,2.07,.63,3.49,4.52,6.82,9.16,10.31,13.68,7.55,9.79,15.23,19.47,23.27,28.87,3.84,4.5,8,8.59,12.44,12.44,2.77,2.4,7.18,1.16,8.45-2.38,1.22-3.39,2.84-6.44,5.3-9.16,3.55-3.92,11.88-3.99,15.02,.25,1.49,2.01,3,3.12,5.41,1.54,.34-.22,.77-.34,1.17-.41,2.62-.46,3.72-1.86,3.95-4.65,.37-4.47,2.98-7.44,7.46-8.57,4.36-1.1,8.28-.71,11.05,3.34,.6,.88,1.16,.93,2.08,.6,4.43-1.62,8.88-3.2,13.33-4.77,1.02-.36,1.54-1.04,1.93-2.06,1.29-3.32,2.64-6.63,4.99-9.4,1.61-1.88,3.53-3.25,6.06-3.59,.1,.92,1.12,.56,1.5,1.09-3.78,.2-6.17,2.43-8.02,5.48-2.99,4.93-4.45,10.48-6.41,15.82-1.96,5.36-3.62,10.96-7.51,15.24-2.18,2.4-2.62,4.63-2.03,7.54,.49,2.43,.59,2.53,2.74,1.09,4.08-2.73,6.38-6.86,8.66-11.01,3.01-5.46,4.55-11.53,7.23-17.13,.5,.02,1,.04,1.5,.06-1.59,1.04-1.02,2.89-1.85,4.18,.67,.31,1.01,.03,1.4-.1,7.54-2.46,14.8-5.67,22.38-8.02,3.9-1.21,3.85-1.36,3.22-5.56-.15-.98-.25-1.97-.37-2.96-.05-.42-.11-.83-.16-1.25-1.22-1.63-2.16,.5-3.27,.25-.03-.23-.05-.46-.08-.7,.21-.24,.39-.66,.63-.69,2.18-.29,2.55-1.76,2.85-3.65,1.28-8.23,8.1-12.39,15.26-9.49,1.68,.68,2.91,1.76,3.76,3.36,.39,.73,.75,1.82,2.02,1.19,1.12,.66-.83,1.3-.01,1.96h0c-.62-.74-.96,.21-1.45,.24-.56-.19-.98,0-1.32,.46-1.73,.51-3.48,.99-5.19,1.56-.8,.26-1.55,.69-1.36,1.77-1.04,2.29,.13,4.47,.33,6.7-.06,.64-.5,.97-1.02,1.23-.72-1.62-.83-3.36-.94-5.09-.28-4.6,.3-5.38,4.72-6.7,.95-.28,1.9-.56,2.84-.87,.81-.27,.93-.7,.48-1.49-2.36-4.12-9.85-5.23-13-1.88-3.39,3.62-4.77,7.81-3.73,12.75,.64,3.06,1.17,6.15,1.76,9.23-.34,0-.69,.01-1.03,.02-1.76-1.02-3.07,.62-4.63,.81-1.26,.15-.91,1.27-1.09,2.08-.04,.18-.55,.24-.84,.36-.29-1.11-.94-1.39-2.01-.98-1.59,.62-3.17,1.26-4.81,1.72-1.7,.47-1.58,1.3-.73,2.44-.41,.22-.38,.61-.39,.99-1.65-2.3-3.6-1.9-5.84-.89-2.18,.99-4.48,1.77-6.79,2.4-1.93,.53-2.91,1.72-3.42,3.51-.88,3.14-2.4,6-3.88,8.87-2.65,5.15-5.79,9.9-11.14,12.69-.63,.33-1.04,.8-1,1.57,.21,4.46-.81,8.95,.31,13.39,.62,2.45,.97,5.16,.24,7.4-1.59,4.89-.42,9.18,1.62,13.49,0,.16,.05,.29,.16,.4,1.04,2.56,1.57,5.14,.4,7.81,.05,.94,1.2,.57,1.47,1.25h0c-.58,0-1.21-.11-1.44,.66q-1.81,2.61,1.33,3.46c.87,.24,1.71,.57,2.54,.91,.64,.26,1.17,.48,1.78-.16,1.31-1.36,2.72-2.62,4.05-3.96,.41-.41,.04-.73-.3-1,.02-.42,.04-.83,.06-1.25,3.24,1.06,3.79,.84,5.53-2.16,1.66-2.86,4.23-4.35,7.44-4.77,.99-.13,1.88-.15,2.54-1.17,2.29-3.55,2.17-8.41,6.02-11.11,.05-.03,.05-.16,.04-.24-.33-3.73,1.49-6.87,2.77-10.15,.2-.71-.37-1.76,.9-1.99,1.68,.54,3.19-.69,3.5-1.63,.41-1.29,.17-3.13-1.21-4.27l-.77-.81c1.54-3.5,1.62-7.25,1.18-10.88-.46-3.86-1.61-7.62,1.26-11.07-3.29-1.71-6.19-3.65-7.42-7.27,.51,.02,1.02,.03,1.54,.05,1.04,2.11,2.51,3.82,4.58,5,1.09,.62,1.85,.83,1.79-.9-.07-2.23-.05-4.46-.07-6.69,.52-.86,.87-1.91,2.16-1.89-1.24,4.58-1.33,9.28,0,13.72,1.52,5.1,3.81,9.96,5.84,15.09,2.11-2.01,1.8-4.69,2.63-6.94,.36,0,.71,.01,1.07,.02,0,2.27-.27,4.66-1.67,6.36-1.84,2.24-1.22,4.32-.62,6.65,1.17-.18,1.72-1.05,2.4-1.73,5.95-5.92,9.58-12.95,10.27-21.4,.34,.71,.67,1.41,1.01,2.12-.33,3.85-1.59,7.43-3.29,10.86-.37,.74-.87,1.45-.62,2.33,1.59,5.6-.5,10.65-2.57,15.59-.92,2.21-1.36,4.33-1.46,6.68-.25,6.29-1.22,12.52-5.06,17.66-2.59,3.47-4.92,6.91-6.87,10.84-2.75,5.54-7.98,8.94-13.62,11.48-.9,.41-1.77,.89-2.65,1.34-.77,.03-1.54,.06-2.31,.08-3.85,.47-7.38-.33-10.54-2.65-.52-.38-1.18-.57-1.77-.84,0-.49,0-.99-.01-1.48l.03-.08c.73,.03,1.41-.02,1.44-1.01h0c1.31,.1,1.94-.72,2.41-1.77,2.82-3.39,4.14-7.55,6.26-11.66-.87,.07-1.36,.06-1.83,.17-4.56,1.09-8.62,2.84-11.96,6.47-3.39,3.69-7.38,6.83-11.42,9.87,.75,1.01,1.84,.69,2.56,1.23-.35,1.09-1.3,.52-1.97,.7-.48-.13-1.01-.16-1.42-.4-1.55-.9-2.84,.19-3.38,1.09-.59,.98,.97,1.48,1.74,1.94,2.95,1.75,6.27,2.49,9.58,3.25-.33,.98-1.85,.17-2.04,1.35-.13,.09-.27,.18-.4,.26-.2,.15-.39,.3-.59,.44,0,0-.02,.01-.02,.01-.15,.1-.3,.19-.45,.29-6.85,3.28-13.92,3.32-21.09,1.3-1.25-.35-2.32-.5-3.59-.05-6.32,2.26-12.66,2.35-18.95-.17-.78-.31-1.56-.56-2.4-.18-6.67,3.05-13.43,2.1-20.21,.46-.7-.17-1.32-.56-2.14-.2-7.69,3.4-15.42,2.09-23.1-.03-1.64-.45-3-.61-4.66,.21-4.87,2.41-9.99,2.17-15.03,.57-2.47-.79-4.74-1.32-7.01,.41-.42,.32-1.08,.33-1.63,.48-.26,.08-.53,.15-.79,.23-.45,.33-.93,.53-1.5,.43,0-.4,0-.79,0-1.19,1.66-.64,3.51-.86,5.22-2.26-3.31-1.71-6.02-3.81-7.84-6.87-.45-.76-1.2-.47-1.79-.24-3.56,1.43-7.25,1.54-11,1.15-.73-.49-2.05-.29-1.98-1.71,4.45,.7,8.84,.89,13.17-.87,3.77-1.54,7.19-3.73,10.79-5.57,2.91-1.58,6.08-2.52,9.15-3.72-.07-.14-.13-.29-.2-.43-.87-.28-1.74-.57-2.61-.85,.02-.37,.03-.73,.05-1.1,.34,.04,.68,.08,1.03,.12,.22,.09,.43,.18,.65,.27,.28,.09,.57,.18,.85,.26,.18,.09,.35,.17,.53,.26,0,0-.03-.02-.03-.02,.16,.43,.52,.55,.93,.55,.35,.17,.69,.34,1.04,.52,.65,.86,1.34-.2,2.01,.05-.05,.28-.09,.56-.14,.84-6.74,1.09-12.54,4.41-18.52,7.59,7.75,6.95,21.15,2.47,31.08-5.35-.93-1.07-2.33-1.2-3.49-1.8,.58-.82-.17-1.61-.03-2.42,0,0-.03,.04-.03,.04,.19-.14,.38-.27,.57-.41,3.87-.88,7.52-.74,11.44,.6,2.95,1.01,6.39,.4,9.44-1.48,4.27-2.62,8.79-2.55,13.01,.31,3.08,2.09,6.26,1.77,8.99-.04,2.96-1.95,5.99-2.07,9.23-1.94,2.36,.09,4.14,1.53,6.01,2.64,1.58,.94,2.34,.48,2.78-.99,.76-2.53,2.45-4.28,4.57-5.67,1.04-.68,1.3-1.38,1.04-2.66-1.28-6.1-1.87-12.3-2.22-18.52-.17-3.05,.12-5.9-2.45-8.63-2.83-2.99-4.62-6.98-6.87-10.53,.65,.19,1.22-.54,1.88-.15,1.64,4.18,4.37,7.64,7.38,11.44,.26-1.61,.13-3,.71-3.97,2.48-4.15,.52-7.37-1.88-10.58-.46-.84-.08-1.27,.73-1.5,1.14,1.35,1.47,3.23,2.94,4.62,.53-1.88,.76-3.77,1.94-5.15,1.24-1.44,1.3-2.87,.63-4.5,.01-.75,.02-1.51,.03-2.26,3.09,6.43,6.16,12.86,10.22,18.88,.77-.91,.68-1.76,.76-2.58,.67-7.04-1.24-13.64-3.45-20.19-1.14-3.37-2.41-6.71-2.62-10.32-.12-2.02,.36-3.46,2.88-3.19,1.45,.16,2.7-.68,4-1.18,2.03-.79,2.1-1.34,.47-2.85-4.09-3.78-12.32-1.75-14.47,3.59-1.16,2.88-1.1,5.86-.39,8.8,.74,3.05,1.73,6.04,2.61,9.05-.34,.01-.68,.03-1.02,.04-.08-.39-.14-.99-.63-.85-1.95,.54-3.9,1.09-5.78,1.83-1.32,.53,.54,1.78-.35,2.54-.12,.1-.2,.25-.3,.38-.12,.01-.24,.02-.36,.03-.54-3.42-2.69-1.89-4.44-1.41-4.2,1.16-4.19,1.18-2.01,4.99-.23,.3-.46,.6-.69,.89-.33-.36-.74-.67-.96-1.08q-1.94-3.52-5.96-2.57c-.56,.13-1.13,.29-1.7,.34-3,.27-5.15,1.47-6.47,4.46-1.26,2.85-3.71,4.62-7.02,3.87-1.7-.39-1.36,1.82-2.67,1.56-.17-.03-.32,0-.46,.1-.46,.15-.92,.3-1.37,.45-.23,.07-.45,.14-.68,.21l-1.05,.15c-.39-.49-.72-.38-.99,.12-1.13,.42-2.28,.47-3.46,.28,0-.38,0-.76,0-1.14,1.71-.24,3.47-.11,5.15-.65,.84-.27,2.1-.07,2.37-.99,.28-.96-.91-1.42-1.55-2.01-1.96-1.83-1.83-3.03,.77-3.77,3.52-1.01,3.62-4.15,5.42-7.03-1.55,.42-2.34,.63-3.13,.84-1.07,.19-1.72,1.06-2.6,1.56-.34,.09-.93-.42-.99,.39l.05-.03c-3.35,.27-5.98,2.11-8.61,3.96-1.72,1.22-3.46,2.59-3.4,4.86,.04,1.68,1.89,1.83,3.15,2.38-.38,.3-.77,.6-1.15,.9-3.97-1.49-4.47-3.98-1.58-7.38,.97-1.14,3.21-1.68,2.88-3.23-.25-1.19-2.04-2.04-3.12-3.05-9.95-9.33-17.69-20.53-26.17-31.1-4.4-5.49-8.63-11.12-12.91-16.7-1.05-1.37-1.94-2.85-2.97-4.22-.61-.8-.16-1.16,.44-1.55,1.36,1.87,2.67,3.77,4.08,5.59,5.11,6.63,10.17,13.3,15.4,19.84,7.28,9.12,14.09,18.64,22.6,26.72,4.32,4.1,4.29,4.14,9.6,1.69,.07-.03,.16-.05,.23-.08,1.32-.47,1.24-.99,.22-1.84-5.16-4.29-9.68-9.15-14.07-14.26-11.73-13.65-22.49-28.02-33.24-42.43Zm74.5,50.47h.02c-2.68,.36-5.22,1.19-7.61,2.47-.54,.45-.24,1.07-.34,1.62-1.64,1.64-2.68,3.89-2.56,5.92,.05,.86,2.9-.27,4.45-.57,6.51-1.25,12.88-3.04,19.17-5.13,.69-.23,1.88-.19,1.45-1.49-.66-2.01-.73-4.23-2.07-6.01-.14-.18-.29-.37-.43-.55,.84-1.33,.1-1.21-.81-.87-2.45,.9-4.94,1.73-7.33,2.78-.66,.29-1.93,0-1.95,1.33l.03-.02c-.8-.34-1.51-.3-2.02,.51Zm27.59-10.82c-1.14-.15-1.53,1.26-2.53,1.25-.6,0-1.19-.22-1.32,.57-.15,.9,.99,.35,1.17,.94-1.53,.28-2.53,.76-1.39,2.58,.46,.74,.7,1.71,.75,2.6,.1,1.98,.76,1.68,2.04,.81,3.51-2.4,6.53-5.47,10.34-7.48,2.71-1.43,5.49-2.63,8.34-3.73,1.4-.54,2.03-1.35,.92-2.73,0-.87,1.42-.71,1.31-1.97-5.11,2.02-10.26,3.42-15.09,5.7-1.51,.49-3.02,.97-4.53,1.46Zm4.32,7.29c-2.14,1.07-3.89,2.68-5.8,4.08-.98,.72-.79,1.32,.27,1.77-.2,1.38,.48,2.58,.84,3.84,1.65,5.85,3.31,11.74,1.73,17.83-.71,2.73,.19,4.71,1.47,6.89,1.08,1.85,1.82,1.4,2.86,.09,1.88-2.37,2.57-5.16,2.88-8.07,.73-6.84-.24-13.58-1.44-20.28-.69-3.84-.79-3.82-4.55-3.07-.24,.05-.49-.01-.74-.02,.46-1.14,1.8-1.19,2.5-2.03,2.59-.86,5.13-1.88,7.77-2.55,3.16-.8,4.71-2.88,5.55-6.02-5.19,1.48-9.33,4.4-13.34,7.55Zm5.83,65.2c2.24-3.83,2.31-7.38,.88-11.21-4.91-13.11-12.99-24.53-19.42-36.84-.81-1.56-1.42-.94-2,.14-.96,1.79-1.48,3.69-1.27,5.73,.48,4.62,2.61,8.67,4.56,12.75,3.88,8.1,8.85,15.67,11.96,24.16,.28,.78,.88,1.21,1.49,1.6,1.4,.9,2.6,2,3.8,3.66Zm-22.7-38.81c-1.24,2.05-1.49,3.78-1.58,5.57-.51,10.34,.54,20.55,2.79,30.63,.59,2.65,1.78,5.17,4.29,6.73,.74,.46,1.51,.84,2.32,.38,.9-.51,.72-1.4,.49-2.22-1.03-3.66-.8-7.4-.67-11.13,.18-4.99,.21-10.17-1.1-14.83-1.42-5.04-4.54-9.63-6.54-15.12Zm-40.22-7.54c3.93,4.1,7.78,3.81,10.48-.52,.7-1.12,1.27-2.33,1.84-3.53,1.64-3.44,2.65-7.15,4.77-10.37,.74-1.13,1.68-2.01,3.04-1.74,2.59,.51,4.62-1.05,6.91-1.61,.71-.17,1.15-.52,.7-1.43-1.82-3.66-9.07-5.46-12.27-3-3.07,2.37-5.42,5.24-6.6,9.04-.78,2.53-1.81,4.98-2.83,7.43-1.1,2.66-2.5,5.1-6.04,5.73Zm99.22,35.44s.05,0,.08,0c0,1.24,.18,2.51-.04,3.71-.45,2.56,.78,2.13,2.31,1.49,4.38-1.85,6.55-5.93,6.25-11.58-.29-5.32-1.59-10.44-2.78-15.6-.51-2.24-1.52-1.71-2.41-.74-2.99,3.25-5.02,6.92-4.47,11.61,.43,3.69,.72,7.41,1.07,11.11Zm-59.52,24.77c2.53,1.15,4.81,1.69,7.26,1.81,7.59,.36,13.55-3.08,18.96-7.89,1.08-.96,3.24-1.99,2.74-3.11-.57-1.29-2.79-1.33-4.48-1.29-9.43,.21-16.91,4.97-24.48,10.48Zm-16.78-6.59c-6.83-4.57-22.1-1.35-31.26,6.56,12.05,4.87,21.57-.36,31.26-6.56Zm-5.57,5.33c.59,.76,1.34,.82,2.04,.98,9.34,2.08,18.1,1.1,25.83-5.04,.73-.58,2.23-.81,1.91-1.9-.18-.61-1.63-.85-2.51-1.23-.22-.1-.48-.1-.73-.14-9.99-1.74-18.72,.99-26.54,7.33Zm64.45-3.64c2.88,.64,5.15,.2,8.05-1.46,7.73-4.41,8.92-13.54,7.81-20.99-.18-1.22-.97-.88-1.67-.61-2.11,.81-3.53,2.32-4.6,4.31-3.32,6.16-4.64,13.31-9.58,18.75Zm-40.98,13.65c-2.81-1.98-5.25-3.96-7.37-6.29-.43-.47-.88-.71-1.51-.68-5.57,.34-11.08,.3-16.35-1.97-1.01-.43-2.13,.3-2.88,1.02-.43,.41,.23,1.02,.57,1.47,5.81,7.5,18.83,10.65,27.55,6.45Zm-44.66,.64c-3.36-1.84-6.29-3.57-8.48-6.13-1.28-1.5-2.37-1.65-4.25-1.14-5.07,1.38-10.24,3.08-15.07-1.01-1.2-1.02-2.7,.26-3.54,.98-.82,.7,.6,1.45,1.16,2.01,4.38,4.27,10,5.69,15.78,6.45,4.63,.61,9.33,.87,14.39-1.15Zm22.6-.71c-2.4-1.81-4.92-3.35-6.54-5.76-.99-1.48-2.04-1.49-3.55-1.03-6.21,1.89-12.36,2.63-18.06-1.58-1.03-.76-2.09-.08-2.68,.5-.71,.7,.4,1.24,.85,1.7,7.02,7.04,15.73,8.72,25.2,7.74,1.58-.16,3.26-.4,4.78-1.58Zm-20.56-14.66c-4.82-1.91-9.31-3.45-14.36-1.82-4.96,1.61-9.19,4.49-13.61,7.07-1.33,.78-.5,1.31,.18,1.76,2.39,1.58,5.07,1.49,7.69,1.03,5.24-.91,10.21-2.79,15.08-4.88,1.71-.73,3.35-1.67,5.01-3.16Zm110.19-32.37c2.35-2.1,3.27-4.55,3.93-7.12,1.76-6.82-.38-13.1-2.81-19.31-.39-1.01-.41-2.76-1.68-2.75-1.19,0-1.84,1.52-2.4,2.62-.52,1.02-.91,2.1-1.07,3.28-.28,2.07-.42,4.12,.05,6.17,1.3,5.61,2.61,11.22,3.98,17.11Zm.12,22.37c-3.61,1.81-6.98,2.79-10.52,3.08-.41,.03-.69,.3-.92,.71-3.55,6.39-8.82,9.65-16.28,8.88-.51-.05-1.05,0-1.27,.53-.25,.6,.25,.86,.67,1.13,2.58,1.67,5.38,2.57,8.47,2.16,7.26-.96,12.56-5.18,17.11-10.54,1.32-1.56,2.1-3.42,2.73-5.96Zm-42.91,23.35c-3.18-1.04-6.33-1.93-8.78-4.15-.98-.89-1.9-1.04-3.15-.75-4.63,1.08-9.3,1.18-13.64-.93-1.93-.94-3.48-1.02-5.25-.04,5.74,8.74,21.83,11.87,30.82,5.87Zm52.65-47.34c-2.23,2.64-4.4,5.26-7.29,7.04-1.47,.91-1.89,1.97-1.91,3.62-.07,4.4-1.66,8.07-5.69,10.35-1.09,.62-2.23,1.05-3.46,1.33-1.36,.31-1.58,1.56-1.41,2.56,.21,1.24,1.38,.57,2.05,.44,4.22-.81,8.13-2.34,11.16-5.53,5.24-5.52,6.51-12.44,6.55-19.81Zm-148.29,48.54c-2.39-1.34-4.27-2.72-5.79-4.46-.92-1.06-1.69-1.34-3.16-.93-5.82,1.62-11.47,1.34-16.65-2.21-.65-.45-1.33-.87-2.01-.22-.82,.78,.05,1.34,.44,1.9,.42,.61,.92,1.17,1.44,1.7,3.87,3.93,8.97,5.19,14.1,6.19,3.88,.76,7.71,.38,11.62-1.95Zm152.9-69.64c-2.5,3.07-4.5,5.7-7.03,7.78-1.14,.93-1.64,1.93-1.64,3.38-.01,3.37-.68,6.6-2.47,9.5-.69,1.12-1.53,2.15-2.36,3.18-.94,1.15-.82,2.6-.06,3.41,.65,.7,1.52-.56,2.19-1.09,3.71-2.95,6.37-6.77,8.27-11.03,2.02-4.51,3.94-9.14,3.11-15.13Zm-72.35,30.17c-.93,4.88-1.53,9.7-1.32,14.57,.06,1.31,.39,2.62,.71,3.9,.53,2.08,2.06,2.73,4,2.42,1.79-.29,2.51-1.44,2.74-3.29,.88-6.94-3.51-11.92-6.13-17.6Zm-57.64,21.47c7.48,3.02,9.3,3.01,13.85,0-3.14-2.53-9.83-2.58-13.85,0Zm74.66-70.73c-2.19,.75-4.26,1.45-6.31,2.19-.66,.24-1.08,.65-.85,1.51,.48,1.8,.86,3.62,1.3,5.53,2.6-2.08,5.15-6.08,5.86-9.23Zm-5.65,33.12c-1.54,1.99-2.46,3.67-3.93,4.89-.44,.37-.45,.88-.12,1.34,1.31,1.85,1.96,4.12,3.63,6.01,1.18-3.98,.74-7.75,.42-12.24Zm-19.45,36.57c-.37-.86-.6-1.83-1.15-2.56-.77-1.01-.26-3.19-1.96-3.07-1.28,.09-2.25,1.55-3.08,2.71-.28,.39-.48,.85-.71,1.28-.63,1.18-.57,1.79,1.05,1.68,1.88-.13,3.78-.03,5.84-.03Zm-12.57,.66c-4.16-1.89-8.24-2.32-12.4-.38,4.1,.65,8.03,4.45,12.4,.38Zm74.64-56.67c3.27-3.25,3.29-4.36,.29-9.07-1.84,2.96-1.18,5.87-.29,9.07Zm-121.83,57.12c-3.26-1.2-6.26-1.02-9.55,.06,4.65,2.93,5.91,2.92,9.55-.06Zm106.37-13.01c-3.11-.31-5.85,1.31-7,4.36,2.6-1.33,6.54,.13,7-4.36Zm-30.83,6.24c.81,1.67-1.63,3.51,.22,4.79,.59,.41,2.66,.29,2.92-1.01,.41-2.04-1.46-2.86-3.13-3.78Zm35.42-12.38c2.25-.8,4.59-1.05,3.48-4.1-.13-.36,.01-.88-.49-1.02-.48-.14-.74,.27-.99,.58-1.01,1.21-1.65,2.59-2,4.55Z"/>
  <path class="cls-6" d="M112.12,32.94c10.74,14.4,21.51,28.78,33.24,42.43,4.39,5.11,8.91,9.97,14.07,14.26,1.02,.85,1.1,1.38-.22,1.84-.08,.03-.16,.05-.23,.08-5.32,2.45-5.29,2.42-9.6-1.69-8.51-8.08-15.32-17.6-22.6-26.72-5.22-6.54-10.29-13.21-15.4-19.84-1.41-1.83-2.72-3.73-4.08-5.59,1.37-1.83,3.14-3.26,4.82-4.77Z"/>
  <path class="cls-4" d="M334.54,31.01c2.45,1.67,1.48,4.44,2.13,6.68-14.59,5.94-29.41,11.25-44.3,16.36-.41-.1-.74-.6-1.21-.27-.08,.05,.07,.41,.11,.63-.43,.34-.88,.6-1.46,.52-.24-1.19-.49-2.38-.73-3.56l.05-.04c1.59-.28,2.94-.74,2.15-2.82,.33-.5,.67-1,1-1.5,1.53,.62,1.11-1.43,2.1-1.55,3.8-1.02,7.35-2.7,11-4.12,9.61-3.73,19.42-6.92,29.15-10.33Z"/>
  <path class="cls-11" d="M292.3,47.01c-.33,.5-.67,1-1,1.5-.72,.94-1.43,1.88-2.15,2.82,0,0-.05,.04-.05,.04-2.41,2.5-4.59,5.22-7.29,7.43-.55,.45-.79,.94-.67,1.72,.5,3.29,.2,6.62,.26,9.93-.65,.77-.45,1.73-.59,2.61-.33,2.05-.73,4.14-2.03,5.77-.9,1.12-.9,2.22-.84,3.46,.08,1.63,.69,1.87,1.93,.82,2.53-2.15,4.55-4.7,6.06-7.65h.21s.21-.01,.21-.01c.45,3.52-2.02,5.8-4.29,7.31-3.55,2.36-4.38,5.37-4.18,9.14-.36,0-.71-.01-1.07-.02,.02-.33,.05-.66,.07-.98,.75-1.67,.79-3.33-.03-4.99-.32-6.53-2.67-12.5-5.12-18.43-.56-1.66-1.03-.14-1.54,.04-.11,0-.2,.06-.26,.16-4.08,2.53-8.56,4.26-12.82,6.43-.56,.21-1.12,.41-1.68,.62-.17-.05-.34-.09-.52-.14-.32-.66-1-1.32,.02-1.96,.26,.19,.39,.07,.47-.19,.35-.15,.69-.31,1.04-.46,4.9-1.48,9.3-3.96,13.61-6.64,.51-.32,.91-.7,.87-1.37,.34,0,.69-.01,1.03-.02,1.85,4.78,3.71,9.55,5.7,14.69,1.17-2.65,1.84-4.98,2.21-7.45,.66-4.41-.13-8.79-.04-13.18,.52-.26,.96-.58,1.02-1.23,3.83-2.71,6.63-6.36,9.25-10.18,.06-.09-.15-.36-.24-.55,0,0,0,0,0,0,1.57-.07,1.46-1.57,2.09-2.45,1.95-3.73,3.79-7.51,5.28-11.46,.65-1.73,.61-2.81-1.51-3.13-1.6-.24-1.7-.91-.51-2.02,1.88-1.76,3.65-3.62,5.46-5.44,.35-.35,.69-.84,1.23-.64,.59,.21,.35,.84,.41,1.3,.32,2.55,.58,5.11,.96,7.66,.21,1.42-.12,2.01-1.52,1.23-1.59-.89-2.15-.14-2.58,1.32-.52,1.74-1.23,3.43-1.86,5.14-.09,.17-.19,.35-.28,.52-.07,.17-.13,.34-.2,.52-.09,.16-.17,.32-.26,.48-.08,.17-.16,.35-.23,.52l-4.01,7.44Z"/>
  <path class="cls-4" d="M268.84,55.06c.12,.99,.23,1.97,.37,2.96,.63,4.21,.68,4.36-3.22,5.56-7.58,2.35-14.84,5.56-22.38,8.02-.39,.13-.73,.41-1.4,.1,.83-1.29,.26-3.14,1.85-4.18,2.85-1.41,5.12-3.53,7.23-5.86,2.7-2.99,4.33-6.64,6.25-10.12,.45,.31,.39,.77,.35,1.22,.05,1.13-.73,2.82-1.68,3.71-.28,.27-.47,.64-.71,.96-.04,.33-.09,.66-.13,.99-.34,.47-1.29,.52-.99,1.58,4.9-1.47,9.5-3.74,14.46-4.93Z"/>
  <path class="cls-8" d="M111.48,153.9c-3.6,1.84-7.02,4.03-10.79,5.57-4.33,1.76-8.71,1.58-13.17,.87,.03-2.11,.06-4.22,.09-6.34,.5,.12,.94,.03,1.43-.18,6.71-2.82,13.66-3.71,20.85-2.38,.53,.82,1.06,1.64,1.59,2.46Z"/>
  <path class="cls-11" d="M257.54,51.53c-1.92,3.48-3.55,7.13-6.25,10.12-2.11,2.33-4.38,4.45-7.23,5.86-.5-.02-1-.04-1.5-.06,.27-.67,.54-1.35,.81-2.02,.61-.03,1.35,.25,1.55-.7,5.05-3.58,8.63-8.27,10.62-14.14,2.97-6.32,3.85-13.14,4.67-19.96,.19-1.6,.03-1.62-3.34-2.18,1.98-3.09,3.89-6.07,6.07-9.49,1.27,3.48,2.42,6.46,3.45,9.49,.46,1.35-.54,1.34-1.41,1.12-1.98-.51-2.63,.15-2.86,2.24-.66,6-1.75,11.95-3.74,17.69-.23,.09-.31,.24-.17,.47-.32,.48-.8,.9-.67,1.57Z"/>
  <path class="cls-8" d="M89.5,162.05c3.75,.39,7.43,.28,11-1.15,.59-.24,1.34-.52,1.79,.24,1.83,3.06,4.53,5.16,7.84,6.87-1.71,1.4-3.55,1.62-5.22,2.26-5.66,.74-10.8-.47-15.34-4.03-.52-.41-1.09-.87-1.79-.57-.86,.36,.72,1.15-.21,1.57-1.02-1.42-1.1-2.71,.77-3.38,.99-.35,1.17-.95,1.16-1.81Z"/>
  <path class="cls-13" d="M286.33,75.45l-.21,.02s-.21,0-.21,0c1.9-4.2,2.69-8.65,3.12-13.21,.54-5.76,.6-5.75-4.71-3.74,.82-2.75,3.58-2.52,5.51-3.58,.57,.08,1.03-.18,1.46-.52,.37-.12,.73-.24,1.1-.36,14.89-5.11,29.71-10.42,44.3-16.36,1.32,1.01,1.36,1.26-.35,1.76-4.22,1.22-8.03,3.43-12.17,4.86-10.63,3.68-21.2,7.56-31.8,11.31-1.03,.36-1.72,.69-1.75,1.98-.14,5.48-.52,10.93-2.43,16.15-.13,.35,.06,.81,.11,1.22,0,0-.09,.09-.09,.09-.49-.14-.97-.17-1.33,.28-.17,.03-.34,.06-.51,.09Z"/>
  <path class="cls-11" d="M203.63,89.36c-.01,.75-.02,1.51-.03,2.26-2.39,1.09-4.28,2.93-6.46,4.34l-8.8,5.12c-5.43,2.59-10.82,5.27-16.51,7.28-.85,.3-1.77,.95-2.24-.38-.46-1.27,.74-1.25,1.43-1.51,5.87-2.2,11.61-4.68,17.08-7.75,2.92-1.22,5.61-2.83,8.12-4.76,2.31-1.27,4.39-2.86,6.41-4.55,.34-.01,.68-.03,1.02-.04h0Z"/>
  <path class="cls-13" d="M109.89,151.45c-7.19-1.33-14.13-.44-20.85,2.38-.49,.2-.93,.3-1.43,.18,.15-.75,.8-1.44,.23-2.26,.1-.42,.31-.95,.77-.72,2.71,1.38,4.93-.65,7.41-.81-2.72-1.24-5.51-.08-8.23-.5,.1-1.02,.99-1.05,1.68-1.33,.21,.19,.4,.14,.56-.07,3.23-.01,6.35,.27,9.56,1.07,2.83,.7,6.09,.64,9.02-.57,3-1.24,6.08-1.51,9.25-1.01-.02,.37-.03,.73-.05,1.1-.82-.02-1.63-.07-2.45-.06-3.27,.02-3.81,.29-5.05,2.39-.07,.12-.28,.15-.43,.22Z"/>
  <path class="cls-13" d="M296.3,41.13c8.16-2.86,16.31-5.71,24.47-8.57,3.81-1.34,7.6-2.71,11.42-4.02,.71-.25,1.73-1.16,1.96,.53-.73,.66-2.09,.24-2.49,1.47h.01c-.85-.49-1.62,.05-2.34,.3-8.39,2.96-16.78,5.94-25.14,8.99-.67,.24-1.76,.03-1.93,1.18h0c-2.3-.21-4.05,.8-5.48,2.5,0,0,0,0,0,0-.04-.18-.14-.24-.32-.19-1.17-.65-.56-1.42-.16-2.18Z"/>
  <path class="cls-13" d="M245.15,24.57c2.15,0,3.93,0,5.71,0,.59,0,1.26-.03,1.19,.83-.05,.63-.6,.68-1.13,.68-2.24,0-4.48-.01-6.71,0-1.2,0-1.42-.59-1.05-1.6,.42-1.13,1.16-2.02,2.15-2.67,1.17-.78,2.39-1.47,3.58-2.23,.93-.6,1.77-1.27,1.54-2.58-.18-1.04-.88-1.6-1.83-1.78-1.19-.22-2.32-.03-3.09,1.06-.5,.71-.59,2.48-1.86,1.48-.93-.73,.11-2.02,.85-2.74,1.43-1.4,3.2-1.65,5.08-1.01,1.46,.49,2.4,1.44,2.53,3.05,.16,1.95-1.05,3.01-2.54,3.91-1.5,.9-3.28,1.46-4.41,3.6Z"/>
  <path class="cls-13" d="M285.42,11.63c3.5,.07,5.02,2.41,3.6,5.05-.37,.7-.46,.95,.05,1.61,1.68,2.19,1.09,4.19-1.41,5.31-2.08,.93-5,.22-6.03-1.48-.38-.63-.87-1.48-.07-1.98,.79-.49,1.07,.41,1.38,.98,.82,1.54,2.21,1.6,3.66,1.3,1.07-.22,1.86-.93,1.81-2.06-.04-1.1-.72-1.76-1.92-1.89-.58-.06-1.55,.31-1.69-.6-.16-1.05,.82-.73,1.41-.85,.97-.2,1.72-.72,1.85-1.74,.12-.92-.4-1.65-1.25-1.94-.96-.32-1.99-.42-2.75,.47-.31,.37-.5,.85-.72,1.29-.21,.41-.49,.69-.97,.53-.62-.2-.67-.74-.49-1.22,.68-1.82,2.04-2.74,3.54-2.78Z"/>
  <path class="cls-7" d="M334.54,31.01c-9.73,3.41-19.54,6.6-29.15,10.33-3.65,1.42-7.2,3.1-11,4.12,.42-.76,.98-1.34,1.87-1.52,.29,0,.51-.11,.5-.45,0,0,0,0,0,0,2.22,.03,4.02-.87,5.48-2.49h0c.76,.15,1.46-.08,2.16-.34,6.84-2.43,13.71-4.76,20.5-7.33,2.27-.86,4.8-1.17,6.75-2.81,0,0-.01,0-.01,0,1.09,.4,1.94-.67,3-.47-.03,.32-.07,.63-.1,.95Z"/>
  <path class="cls-13" d="M250.8,160.79c.77-.03,1.54-.06,2.31-.08-3.44,4.41-8.45,5.34-13.54,6.17-3.7,.6-7.39-.14-11.08,.1,.19-1.18,1.71-.38,2.04-1.35,4.46,.39,8.89,.21,13.21-.97,2.62-.71,5.48-1.18,7.06-3.86Z"/>
  <path class="cls-13" d="M87.57,167.23c.94-.41-.64-1.21,.21-1.57,.7-.29,1.27,.17,1.79,.57,4.53,3.55,9.68,4.77,15.34,4.03,0,.4,0,.79,0,1.19-4.59,1.01-8.88,.04-12.98-2.03-1.22-.62-2.24-1.61-3.9-1.05-.94,.32-.51-.65-.47-1.14Z"/>
  <path class="cls-13" d="M255.5,57.42c.23-.32,.42-.69,.71-.96,.95-.89,1.74-2.58,1.68-3.71,2.28,2.62,4.92,.81,7.43,.62,.03,.23,.05,.46,.08,.7-1.52,1.13-3.75,.76-5.02,2.42h.02c-1.48,.12-2.98,.18-4.01,1.51l.03-.02-.92-.54Z"/>
  <path class="cls-8" d="M87.8,149.72c2.72,.42,5.51-.75,8.23,.5-2.48,.16-4.71,2.19-7.41,.81-.46-.24-.67,.3-.77,.72-1.24-.65-1.12-1.33-.05-2.03Z"/>
  <path class="cls-11" d="M124.72,150.67c.05-.28,.09-.56,.14-.84,0,0,.02-.18,.02-.18,.64-.27,1.31-.28,1.98-.12,.17,.22,.32,.2,.47-.02,1.64-.1,3.27-.19,4.91-.29,.19-.09,.39-.17,.58-.26,.32-.09,.64-.18,.96-.27-.14,.81,.61,1.61,.03,2.42-.17-.03-.33-.06-.5-.09-.73-.79-1.53-1.1-2.47-.33-2.04,0-4.08-.01-6.11-.02Z"/>
  <path class="cls-13" d="M161.3,112.33c-1.05-.32-1.12-1.2-1.08-1.81,.09-1.36,1.37-1.15,2.27-1.28,.93-.14,1.12,.7,1.03,1.3-.2,1.25-1.68,.97-2.21,1.79Z"/>
  <path class="cls-13" d="M289.25,83.9c-.34-.71-.67-1.41-1.01-2.12,0-.22,.02-.45,.03-.67l-.1-6.04,.09-.09c1.4,2.85,1.32,5.87,.99,8.92Z"/>
  <path class="cls-13" d="M168.26,109.09c-.3,1.29-1.52,1.14-2.39,1.33-.86,.19-1.19-.81-1.07-1.33,.24-1.05,1.34-1.09,2.21-1.24,.9-.16,1.06,.57,1.25,1.24Z"/>
  <path class="cls-7" d="M250.93,49.01c.02,1.54,2.67,.66,2.34,2.53-1.58-1.37-3.55-.86-5.36-1.14-.37-.54-1.4-.18-1.5-1.09,1.47-.7,3.01-.29,4.52-.3Z"/>
  <path class="cls-13" d="M155.25,104.55c0,.38,0,.76,0,1.14-1.57,.11-3.08-.14-4.53-.75,.38-.3,.77-.6,1.15-.9,1.13,.17,2.25,.33,3.38,.5Z"/>
  <path class="cls-3" d="M291.92,43.59c-.63,.88-.51,2.38-2.09,2.45-.81-.66,1.13-1.3,.01-1.96,.53-.85,1.35-.47,2.07-.49Z"/>
  <path class="cls-9" d="M334.64,30.06c-1.05-.19-1.91,.88-3,.47,.4-1.22,1.76-.81,2.49-1.47,.17,.33,.34,.66,.5,.99Z"/>
  <path class="cls-13" d="M124.88,149.64s-.02,.18-.02,.18c-.66-.25-1.36,.81-2.01-.05,.67-.04,1.35-.09,2.02-.13Z"/>
  <path class="cls-13" d="M158.72,105.42c.27-.5,.6-.61,.99-.12-.31,.24-.63,.3-.99,.12Z"/>
  <path class="cls-13" d="M121.82,149.26c-.42,0-.77-.12-.93-.55,.43-.01,.71,.22,.93,.55Z"/>
  <path class="cls-13" d="M106.43,171.03c.26-.08,.53-.15,.79-.23-.26,.08-.53,.15-.79,.23Z"/>
  <path class="cls-13" d="M227.04,167.99c.15-.1,.3-.19,.45-.29-.15,.1-.3,.19-.45,.29Z"/>
  <path class="cls-13" d="M227.5,167.68c.2-.15,.39-.3,.59-.44-.2,.15-.39,.3-.59,.44Z"/>
  <path class="cls-13" d="M127.32,149.5c-.15,.22-.3,.24-.47,.02,.16,0,.31-.01,.47-.02Z"/>
  <path class="cls-13" d="M132.81,148.95c-.19,.09-.39,.17-.58,.26,.19-.09,.39-.17,.58-.26Z"/>
  <path class="cls-11" d="M134.3,148.31c-.19,.14-.38,.27-.57,.41,.1-.26,.21-.5,.57-.41Z"/>
  <path class="cls-13" d="M120.91,148.72c-.18-.09-.35-.17-.53-.26,.18,.09,.35,.17,.53,.26Z"/>
  <path class="cls-10" d="M90.04,148.32c-.16,.21-.34,.26-.56,.07,.19-.02,.37-.05,.56-.07Z"/>
  <path class="cls-13" d="M119.53,148.19c-.22-.09-.43-.18-.65-.27,.22,.09,.43,.18,.65,.27Z"/>
  <path class="cls-13" d="M160.75,105.15c.23-.07,.45-.14,.68-.21-.23,.07-.45,.14-.68,.21Z"/>
  <path class="cls-13" d="M162.81,104.49c.14-.1,.29-.13,.46-.1-.15,.03-.31,.07-.46,.1Z"/>
  <path class="cls-3" d="M258.21,49.96c-.14-.23-.06-.38,.17-.47-.06,.16-.11,.31-.17,.47Z"/>
  <path class="cls-10" d="M296.54,39.05c.09-.16,.17-.32,.26-.48-.09,.16-.17,.32-.26,.48Z"/>
  <path class="cls-10" d="M296.99,38.05c.09-.17,.19-.35,.28-.52-.09,.17-.19,.35-.28,.52Z"/>
  <path class="cls-6" d="M224.35,145.08c-1.2-1.65-2.39-2.76-3.8-3.66-.61-.39-1.2-.83-1.49-1.6-3.11-8.49-8.08-16.05-11.96-24.16-1.95-4.08-4.08-8.14-4.56-12.75-.21-2.04,.31-3.94,1.27-5.73,.58-1.07,1.18-1.7,2-.14,6.42,12.3,14.51,23.72,19.42,36.84,1.43,3.83,1.36,7.38-.88,11.21Z"/>
  <path class="cls-6" d="M247.91,50.4c1.81,.29,3.78-.22,5.36,1.14-.16,2.43-1.56,4.2-3.07,5.93-2.18-.32-3.59,.69-4.57,2.55-.91,1.74-1.83,3.47-2.26,5.41-.27,.67-.54,1.35-.81,2.02-2.68,5.59-4.22,11.67-7.23,17.13-2.28,4.14-4.58,8.27-8.66,11.01-2.15,1.44-2.25,1.34-2.74-1.09-.58-2.91-.15-5.14,2.03-7.54,3.89-4.28,5.56-9.88,7.51-15.24,1.95-5.35,3.41-10.89,6.41-15.82,1.85-3.05,4.24-5.28,8.02-5.48Z"/>
  <path class="cls-6" d="M203.64,89.37c-.88-3.01-1.87-6-2.61-9.05-.72-2.93-.77-5.92,.39-8.8,2.15-5.34,10.38-7.38,14.47-3.59,1.62,1.5,1.56,2.06-.47,2.85-1.3,.5-2.55,1.33-4,1.18-2.52-.27-3,1.17-2.88,3.19,.21,3.61,1.48,6.95,2.62,10.32,2.21,6.55,4.12,13.15,3.45,20.19-.08,.82,.02,1.67-.76,2.58-4.05-6.01-7.13-12.45-10.22-18.88,0,0,0,0,0,0Z"/>
  <path class="cls-6" d="M279.8,57.99c-.08,4.39,.7,8.77,.04,13.18-.37,2.48-1.05,4.8-2.21,7.45-1.99-5.13-3.85-9.91-5.7-14.69-.58-3.08-1.11-6.16-1.76-9.23-1.04-4.94,.34-9.13,3.73-12.75,3.14-3.35,10.64-2.25,13,1.88,.46,.8,.34,1.22-.48,1.49-.94,.31-1.89,.59-2.84,.87-4.42,1.32-5.01,2.11-4.72,6.7,.11,1.73,.22,3.47,.94,5.09Z"/>
  <path class="cls-6" d="M201.65,106.27c2,5.49,5.13,10.08,6.54,15.12,1.31,4.66,1.28,9.84,1.1,14.83-.14,3.74-.37,7.47,.67,11.13,.23,.82,.41,1.71-.49,2.22-.81,.46-1.58,.08-2.32-.38-2.51-1.56-3.69-4.08-4.29-6.73-2.26-10.08-3.3-20.29-2.79-30.63,.09-1.79,.34-3.53,1.58-5.57Z"/>
  <path class="cls-6" d="M161.42,98.73c3.54-.62,4.93-3.06,6.04-5.73,1.01-2.45,2.05-4.9,2.83-7.43,1.18-3.8,3.52-6.67,6.6-9.04,3.2-2.47,10.46-.66,12.27,3,.45,.91,.02,1.26-.7,1.43-2.3,.55-4.32,2.12-6.91,1.61-1.36-.27-2.29,.6-3.04,1.74-2.11,3.22-3.13,6.94-4.77,10.37-.57,1.2-1.14,2.41-1.84,3.53-2.71,4.33-6.55,4.63-10.48,.52Z"/>
  <path class="cls-6" d="M216.03,82.93c.25,0,.51,.07,.74,.02,3.76-.75,3.85-.77,4.55,3.07,1.21,6.7,2.18,13.44,1.44,20.28-.31,2.91-1,5.7-2.88,8.07-1.04,1.31-1.78,1.76-2.86-.09-1.28-2.19-2.18-4.17-1.47-6.89,1.58-6.09-.08-11.98-1.73-17.83-.35-1.26-1.04-2.45-.84-3.84,.48-1.17,1.57-1.66,2.54-2.28,.18-.18,.35-.37,.53-.55l-.03,.04Z"/>
  <path class="cls-2" d="M260.64,134.16c-.35-3.7-.64-7.42-1.07-11.11-.55-4.68,1.49-8.35,4.47-11.61,.9-.98,1.9-1.5,2.41,.74,1.18,5.16,2.49,10.28,2.78,15.6,.3,5.66-1.86,9.73-6.25,11.58-1.52,.64-2.76,1.07-2.31-1.49,.21-1.2,.04-2.47,.04-3.71-.03,0-.05,0-.08,0Z"/>
  <path class="cls-8" d="M124.72,150.67c2.04,0,4.08,.01,6.11,.02,.82,.11,1.65,.22,2.47,.33,.17,.03,.33,.06,.5,.09,1.16,.61,2.56,.73,3.49,1.8-9.94,7.82-23.34,12.3-31.08,5.35,5.98-3.18,11.78-6.5,18.52-7.59Z"/>
  <path class="cls-8" d="M201.12,158.94c7.57-5.51,15.05-10.27,24.48-10.48,1.69-.04,3.9,0,4.48,1.29,.5,1.12-1.66,2.15-2.74,3.11-5.41,4.81-11.37,8.25-18.96,7.89-2.46-.12-4.74-.65-7.26-1.81Z"/>
  <path class="cls-8" d="M184.34,152.34c-9.68,6.2-19.21,11.43-31.26,6.56,9.15-7.91,24.43-11.13,31.26-6.56Z"/>
  <path class="cls-8" d="M178.77,157.68c7.82-6.34,16.55-9.07,26.54-7.33,.24,.04,.51,.05,.73,.14,.89,.38,2.34,.63,2.51,1.23,.32,1.08-1.18,1.32-1.91,1.9-7.73,6.14-16.49,7.11-25.83,5.04-.7-.16-1.45-.22-2.04-.98Z"/>
  <path class="cls-2" d="M271.71,67.48c2.45,5.94,4.8,11.9,5.12,18.43,0,1.66,.02,3.33,.03,4.99-.02,.33-.05,.66-.07,.98-.83,2.25-.52,4.94-2.63,6.94-2.02-5.13-4.32-10-5.84-15.09-1.33-4.45-1.23-9.15,0-13.72,.4-.87,2.98-.25,1.59-2.34,.06-.1,.15-.15,.26-.15,.53,.6,1.03,.27,1.54-.04Z"/>
  <path class="cls-1" d="M225.98,159.04c-.72-.54-1.82-.23-2.56-1.23,4.04-3.05,8.03-6.19,11.42-9.87,3.34-3.64,7.4-5.38,11.96-6.47,.46-.11,.96-.09,1.83-.17-2.11,4.11-3.44,8.27-6.26,11.66-.93,.41-1.9,.78-2.41,1.77,0,0,0,0,0,0-.68,.05-1.23,.29-1.44,1.01,0,0-.03,.08-.03,.08-2.4,1.68-5.2,2.32-7.97,3.03-.54,.09-1.09,.19-1.63,.28-.16,.02-.33,.03-.49,.05-.3,0-.6,0-.9,0-.5-.05-1.01-.09-1.51-.14Z"/>
  <path class="cls-2" d="M243.22,154.04c4.94-5.44,6.26-12.59,9.58-18.75,1.07-1.99,2.49-3.5,4.6-4.31,.71-.27,1.49-.61,1.67,.61,1.12,7.45-.08,16.58-7.81,20.99-2.9,1.66-5.17,2.1-8.05,1.46Z"/>
  <path class="cls-8" d="M202.24,167.69c-8.72,4.2-21.74,1.05-27.55-6.45-.34-.44-1-1.06-.57-1.47,.75-.71,1.88-1.45,2.88-1.02,5.28,2.27,10.78,2.31,16.35,1.97,.63-.04,1.08,.21,1.51,.68,2.13,2.33,4.56,4.31,7.37,6.29Z"/>
  <path class="cls-8" d="M157.58,168.33c-5.06,2.02-9.76,1.76-14.39,1.15-5.78-.76-11.4-2.18-15.78-6.45-.57-.55-1.99-1.3-1.16-2.01,.83-.71,2.34-1.99,3.54-.98,4.83,4.09,10,2.39,15.07,1.01,1.88-.51,2.97-.36,4.25,1.14,2.19,2.57,5.12,4.3,8.48,6.13Z"/>
  <path class="cls-8" d="M180.18,167.62c-1.52,1.18-3.2,1.42-4.78,1.58-9.47,.97-18.18-.71-25.2-7.74-.46-.46-1.56-.99-.85-1.7,.59-.59,1.65-1.26,2.68-.5,5.7,4.21,11.85,3.47,18.06,1.58,1.51-.46,2.55-.45,3.55,1.03,1.62,2.42,4.14,3.95,6.54,5.76Z"/>
  <path class="cls-8" d="M159.62,152.96c-1.65,1.49-3.3,2.43-5.01,3.16-4.87,2.1-9.84,3.97-15.08,4.88-2.62,.46-5.31,.55-7.69-1.03-.68-.45-1.51-.98-.18-1.76,4.42-2.58,8.65-5.47,13.61-7.07,5.05-1.64,9.53-.09,14.36,1.82Z"/>
  <path class="cls-2" d="M288.27,81.11c0,.22-.02,.45-.03,.67-.68,8.45-4.32,15.48-10.27,21.4-.68,.68-1.23,1.55-2.4,1.73-.6-2.33-1.23-4.41,.62-6.65,1.4-1.71,1.66-4.09,1.67-6.36-.21-3.78,.63-6.78,4.18-9.14,2.27-1.51,4.74-3.79,4.29-7.31,.17-.03,.34-.06,.51-.09,1.66,1.63,.66,3.91,1.43,5.76Z"/>
  <path class="cls-2" d="M269.81,120.6c-1.37-5.89-2.68-11.5-3.98-17.11-.48-2.05-.33-4.1-.05-6.17,.16-1.18,.55-2.26,1.07-3.28,.56-1.09,1.21-2.61,2.4-2.62,1.27,0,1.29,1.75,1.68,2.75,2.43,6.21,4.57,12.49,2.81,19.31-.66,2.57-1.59,5.02-3.93,7.12Z"/>
  <path class="cls-2" d="M269.93,142.96c-.63,2.53-1.41,4.4-2.73,5.96-4.55,5.36-9.85,9.58-17.11,10.54-3.09,.41-5.89-.49-8.47-2.16-.42-.27-.92-.54-.67-1.13,.22-.54,.76-.59,1.27-.53,7.46,.77,12.73-2.5,16.28-8.88,.23-.41,.5-.67,.92-.71,3.54-.29,6.91-1.27,10.52-3.08Z"/>
  <path class="cls-8" d="M227.02,166.31c-8.99,6-25.08,2.86-30.82-5.87,1.77-.97,3.32-.9,5.25,.04,4.34,2.12,9.01,2.01,13.64,.93,1.25-.29,2.18-.14,3.15,.75,2.45,2.22,5.6,3.1,8.78,4.15Z"/>
  <path class="cls-4" d="M199.13,80.22c1.34,1.78,1.41,3.99,2.07,6.01,.43,1.3-.76,1.26-1.45,1.49-6.29,2.09-12.66,3.88-19.17,5.13-1.54,.3-4.39,1.43-4.45,.57-.12-2.03,.92-4.27,2.56-5.92,4.2-1.29,8.41-2.55,12.34-4.56,1.19-.31,2.38-.63,3.57-.94,1.51-.59,3.01-1.19,4.52-1.78Z"/>
  <path class="cls-2" d="M279.67,118.97c-.04,7.38-1.3,14.29-6.55,19.81-3.03,3.19-6.94,4.72-11.16,5.53-.67,.13-1.84,.8-2.05-.44-.17-1,.06-2.25,1.41-2.56,1.23-.28,2.37-.71,3.46-1.33,4.03-2.28,5.62-5.95,5.69-10.35,.03-1.65,.45-2.71,1.91-3.62,2.89-1.79,5.06-4.4,7.29-7.04Z"/>
  <path class="cls-1" d="M250.8,160.79c-1.58,2.69-4.45,3.15-7.06,3.86-4.32,1.18-8.75,1.37-13.21,.97-3.3-.76-6.62-1.5-9.58-3.25-.77-.46-2.33-.95-1.74-1.94,.54-.9,1.82-1.99,3.38-1.09,.41,.24,.94,.27,1.42,.4,1.44,.71,2.97,.54,4.49,.41,.68-.03,1.36-.06,2.03-.09,2.83-.41,5.51-1.26,7.97-2.76,.59,.28,1.25,.46,1.77,.84,3.16,2.32,6.69,3.12,10.54,2.65Z"/>
  <path class="cls-8" d="M131.38,167.51c-3.91,2.33-7.74,2.71-11.62,1.95-5.13-1-10.22-2.25-14.1-6.19-.52-.53-1.02-1.09-1.44-1.7-.39-.56-1.25-1.12-.44-1.9,.68-.65,1.36-.22,2.01,.22,5.17,3.55,10.83,3.83,16.65,2.21,1.46-.41,2.24-.12,3.16,.93,1.52,1.75,3.4,3.12,5.79,4.46Z"/>
  <path class="cls-2" d="M284.28,97.87c.83,5.99-1.09,10.61-3.11,15.13-1.9,4.26-4.56,8.08-8.27,11.03-.67,.53-1.54,1.78-2.19,1.09-.75-.81-.88-2.26,.06-3.41,.83-1.02,1.67-2.06,2.36-3.18,1.79-2.9,2.46-6.13,2.47-9.5,0-1.44,.51-2.45,1.64-3.38,2.54-2.08,4.54-4.71,7.03-7.78Z"/>
  <path class="cls-6" d="M211.93,128.05c2.63,5.67,7.01,10.66,6.13,17.6-.23,1.85-.95,3-2.74,3.29-1.94,.31-3.48-.34-4-2.42-.32-1.28-.65-2.59-.71-3.9-.21-4.87,.39-9.69,1.32-14.57Z"/>
  <path class="cls-4" d="M155.25,104.55c-1.13-.17-2.25-.33-3.38-.5-1.25-.55-3.11-.7-3.15-2.38-.06-2.26,1.68-3.64,3.4-4.86,.44,.06,.89,.09,1.12,.56-.77,1.23-2.69,2.08-1.5,3.98,.76,1.21,3.92,1.51,5.52,.64-.56-.72-1.38-.36-2.07-.51-.93-.21-2.23-.08-2.5-1.16-.27-1.05,.8-1.73,1.57-2.32,2.62-2.04,5.53-3.61,8.67-4.64,1.48-.49,1.65-1.21,1.35-2.44,.79-.21,1.57-.42,3.13-.84-1.79,2.89-1.89,6.03-5.42,7.03-2.6,.74-2.73,1.94-.77,3.77,.63,.59,1.83,1.05,1.55,2.01-.27,.92-1.53,.72-2.37,.99-1.68,.54-3.44,.41-5.15,.65Z"/>
  <path class="cls-4" d="M232.51,67.4c1.1,1.39,.48,2.2-.92,2.73-2.84,1.1-5.63,2.3-8.34,3.73-3.81,2.01-6.83,5.08-10.34,7.48-1.28,.87-1.94,1.17-2.04-.81-.04-.88-.28-1.86-.75-2.6-1.14-1.82-.14-2.3,1.39-2.58,1.36-.46,2.72-.92,4.09-1.38,.66-.36,1.33-.72,1.99-1.08,3.22-.35,6.04-1.93,9.04-2.94,1.37-.46,3.09-.43,3.94-1.99,.67-.11,1.7,1.07,1.93-.56Z"/>
  <path class="cls-6" d="M191.15,101.26c1.78-1.62,3.55-3.24,6.21-3.11,2.41,3.2,4.36,6.42,1.88,10.58-.58,.97-.45,2.36-.71,3.97-3.01-3.79-5.74-7.25-7.38-11.44Z"/>
  <path class="cls-1" d="M236.48,143.2c.34,.26,.71,.58,.3,1-1.33,1.34-2.74,2.61-4.05,3.96-.61,.63-1.14,.42-1.78,.16-.83-.34-1.68-.67-2.54-.91q-3.13-.86-1.33-3.46c.52-.12,1.09-.15,1.44-.65,0,0,0,0,0,0,2.64-.96,5.3-.93,7.96-.09Z"/>
  <path class="cls-8" d="M154.3,149.51c4.03-2.59,10.71-2.54,13.85,0-4.55,3.02-6.37,3.03-13.85,0Z"/>
  <path class="cls-4" d="M218.52,79.88c4.01-3.15,8.15-6.07,13.34-7.55-.85,3.14-2.4,5.22-5.55,6.02-2.64,.67-5.18,1.68-7.77,2.55,0-.34,0-.68-.01-1.02Z"/>
  <path class="cls-4" d="M289.83,46.04c.09,.19,.3,.46,.24,.55-2.62,3.81-5.42,7.47-9.25,10.18-.2-2.23-1.36-4.41-.33-6.7,.95,.35,1.79,.3,2.41-.63,1.63-.28,3.41-.22,4.44-1.91,0,0-.03,.03-.03,.03,.7,.51,.86,.06,.95-.52,.04-.25,.07-.5,.11-.75,.49-.03,.84-.98,1.45-.24Z"/>
  <path class="cls-6" d="M266.17,71.9c.02,2.23,0,4.46,.07,6.69,.06,1.73-.7,1.52-1.79,.9-2.07-1.18-3.54-2.89-4.58-5,1.75-1.71,3.96-2.32,6.3-2.59Z"/>
  <path class="cls-8" d="M109.89,151.45c.15-.07,.36-.1,.43-.22,1.23-2.1,1.77-2.37,5.05-2.39,.82,0,1.63,.04,2.45,.06,.87,.28,1.74,.57,2.61,.85,.05,.15,.12,.29,.2,.43-3.07,1.2-6.24,2.14-9.15,3.72-.53-.82-1.06-1.64-1.59-2.46Z"/>
  <path class="cls-6" d="M223.3,111.9c.33,4.5,.76,8.26-.42,12.24-1.67-1.89-2.31-4.16-3.63-6.01-.33-.46-.32-.97,.12-1.34,1.47-1.22,2.39-2.9,3.93-4.89Z"/>
  <path class="cls-5" d="M203.84,148.47c-2.06,0-3.96-.1-5.84,.03-1.62,.11-1.69-.5-1.05-1.68,.23-.43,.43-.88,.71-1.28,.83-1.15,1.8-2.62,3.08-2.71,1.7-.12,1.19,2.06,1.96,3.07,.55,.72,.78,1.7,1.15,2.56Z"/>
  <path class="cls-8" d="M191.28,149.13c-4.37,4.08-8.3,.27-12.4-.38,4.16-1.94,8.24-1.52,12.4,.38Z"/>
  <path class="cls-6" d="M195.2,93.36c-2.21,1.1-4.08,2.82-6.45,3.64-2.18-3.87-2.19-3.89,2.01-5.07,1.75-.49,3.9-2.04,4.44,1.43Z"/>
  <path class="cls-7" d="M164.28,90.94c.3,1.23,.13,1.96-1.35,2.44-3.13,1.03-6.05,2.6-8.67,4.64-.77,.6-1.84,1.28-1.57,2.32,.28,1.07,1.57,.95,2.5,1.16,.69,.16,1.52-.21,2.07,.51-1.6,.87-4.77,.57-5.52-.64-1.19-1.9,.73-2.75,1.5-3.98,2.5-1.51,4.99-3.02,7.49-4.52l-.05,.03c.4,.04,.77,.02,.99-.39,.88-.5,1.54-1.37,2.6-1.56Z"/>
  <path class="cls-2" d="M265.92,92.45c-.9-3.21-1.55-6.11,.29-9.07,3.01,4.71,2.98,5.82-.29,9.07Z"/>
  <path class="cls-8" d="M144.08,149.57c-3.64,2.98-4.9,2.99-9.55,.06,3.28-1.09,6.29-1.26,9.55-.06Z"/>
  <path class="cls-2" d="M250.45,136.57c-.46,4.49-4.4,3.03-7,4.36,1.16-3.05,3.9-4.67,7-4.36Z"/>
  <path class="cls-4" d="M232.51,67.4c-.23,1.63-1.27,.45-1.93,.56-1.05-.27-1.91,.32-2.83,.64-2.87,.99-5.74,1.99-8.61,2.98-.14-.15-.27-.31-.41-.46,4.83-2.28,9.98-3.67,15.09-5.69,.11,1.26-1.32,1.1-1.31,1.97Z"/>
  <path class="cls-6" d="M264.34,67.21c-1.84,.29-3.07,1.79-4.76,2.39-.92,.33-1.73,.97-2.79,.79-.85-1.14-.97-1.97,.73-2.44,1.64-.45,3.22-1.1,4.81-1.72,1.07-.42,1.72-.13,2.01,.98Z"/>
  <path class="cls-7" d="M268.84,55.06c-4.96,1.19-9.56,3.46-14.46,4.93-.29-1.05,.65-1.11,.99-1.58,.41-.01,.87,.1,1.05-.45l-.03,.02c1.47-.14,2.91-.38,4.01-1.52h-.02c2.98-.2,5.55-1.7,8.29-2.66,.05,.42,.11,.83,.16,1.25Z"/>
  <path class="cls-5" d="M219.62,142.81c1.68,.92,3.54,1.74,3.13,3.78-.26,1.3-2.33,1.42-2.92,1.01-1.85-1.28,.59-3.12-.22-4.79Z"/>
  <path class="cls-2" d="M264.07,104.46c1.38,1.15,1.63,2.98,1.21,4.27-.3,.94-1.82,2.18-3.5,1.63,.32-2.14,.49-4.34,2.29-5.9Z"/>
  <path class="cls-4" d="M194.61,82c-1.19,.31-2.38,.63-3.57,.94-.81,0-1.62-.02-2.43-.03,.02-1.33,1.29-1.04,1.95-1.33,2.39-1.05,4.88-1.88,7.33-2.78,.91-.33,1.65-.46,.81,.87-1.45,.62-3.5,.19-4.09,2.33Z"/>
  <path class="cls-13" d="M236.48,143.2c-2.66-.84-5.31-.87-7.96,.09-.26-.68-1.42-.31-1.47-1.25,.98,.65,1.71-.27,2.5-.51,2.41-.71,4.7-.43,6.99,.42-.02,.42-.04,.83-.06,1.25Z"/>
  <path class="cls-7" d="M188.61,82.91c.81,0,1.62,.02,2.43,.03-3.93,2.01-8.14,3.27-12.34,4.56,.1-.54-.2-1.17,.34-1.62,2.87,.2,5.29-.98,7.61-2.49,0,0-.02,.01-.02,.01,.74,.1,1.49,.22,2.02-.51l-.03,.02Z"/>
  <path class="cls-2" d="M255.04,130.44c.34-1.96,.99-3.34,2-4.55,.25-.31,.51-.72,.99-.58,.5,.14,.35,.66,.49,1.02,1.11,3.05-1.22,3.31-3.48,4.1Z"/>
  <path class="cls-13" d="M238.49,157.3c-2.46,1.5-5.13,2.35-7.97,2.76,.37-.41,.3-.81-.01-1.21,2.77-.72,5.57-1.36,7.97-3.03,0,.49,0,.99,.01,1.48Z"/>
  <path class="cls-13" d="M264.07,104.46c-1.8,1.57-1.97,3.76-2.29,5.9-1.26,.23-.7,1.28-.9,1.99-.25-3.19-.76-6.45,2.41-8.7,.26,.27,.52,.54,.77,.81Z"/>
  <path class="cls-4" d="M160.74,92.86c-2.5,1.51-4.99,3.02-7.49,4.52-.23-.47-.69-.5-1.12-.56,2.63-1.85,5.26-3.69,8.61-3.96Z"/>
  <path class="cls-4" d="M268.68,53.81c-2.74,.96-5.31,2.45-8.29,2.67,1.27-1.65,3.5-1.29,5.02-2.42,1.12,.25,2.05-1.88,3.27-.25Z"/>
  <path class="cls-4" d="M282.91,49.43c-.62,.93-1.46,.98-2.41,.63-.19-1.08,.56-1.51,1.36-1.77,1.72-.57,3.46-1.04,5.2-1.56,.1,.12,.21,.24,.33,.34-.03,.16-.05,.31-.06,.47,0,0,.03-.03,.03-.03-1.63,.29-3.37,.33-4.44,1.91Z"/>
  <path class="cls-7" d="M215.6,73.98c-1.36,.46-2.72,.92-4.09,1.38-.17-.59-1.31-.05-1.17-.94,.13-.79,.73-.58,1.32-.57,1,.01,1.39-1.4,2.53-1.25-.19,1.13,1.43,.42,1.4,1.39Z"/>
  <path class="cls-4" d="M186.64,83.39c-2.32,1.5-4.73,2.69-7.61,2.49,2.39-1.28,4.92-2.11,7.61-2.49Z"/>
  <path class="cls-4" d="M215.6,73.98c.03-.97-1.59-.26-1.4-1.39,1.51-.49,3.02-.97,4.53-1.46,.13,.15,.27,.3,.4,.46-.29,.69-1.58,.23-1.54,1.31-.66,.36-1.33,.72-1.99,1.08Z"/>
  <path class="cls-7" d="M194.61,82c.59-2.14,2.64-1.71,4.09-2.33,.14,.18,.29,.37,.43,.55-1.51,.59-3.01,1.19-4.52,1.78Z"/>
  <path class="cls-13" d="M228.49,160.15c-1.52,.13-3.04,.3-4.49-.41,.68-.18,1.62,.39,1.97-.7,.5,.05,1.01,.09,1.51,.14l1,.97Z"/>
  <path class="cls-13" d="M239.95,154.72c.51-.99,1.48-1.35,2.41-1.77-.47,1.05-1.11,1.87-2.41,1.77Z"/>
  <path class="cls-13" d="M238.51,155.73c.21-.72,.76-.96,1.44-1.01-.02,.99-.7,1.03-1.44,1.01Z"/>
  <path class="cls-9" d="M188.64,82.89c-.53,.73-1.28,.61-2.02,.51,.51-.82,1.22-.86,2.02-.51Z"/>
  <path class="cls-9" d="M288.37,46.28c-.04,.25-.07,.5-.11,.75-.3,.02-.59,.03-.89,.05-.12-.11-.23-.22-.33-.34,.34-.45,.76-.65,1.32-.46Z"/>
  <path class="cls-13" d="M228.52,143.29c-.35,.51-.92,.53-1.44,.65,.23-.76,.87-.65,1.44-.65Z"/>
  <path class="cls-10" d="M161.68,92.5c-.22,.42-.59,.43-.99,.39,.06-.81,.64-.3,.99-.39Z"/>
  <path class="cls-13" d="M120.62,150.19c-.08-.14-.15-.28-.2-.43,.07,.14,.13,.29,.2,.43Z"/>
  <path class="cls-13" d="M226.5,133.82c.05,.13,.11,.27,.16,.4-.11-.11-.16-.25-.16-.4Z"/>
  <path class="cls-4" d="M289.14,51.33c.72-.94,1.43-1.88,2.15-2.82,.79,2.09-.56,2.55-2.15,2.82Z"/>
  <path class="cls-10" d="M292.38,54.05c-.37,.12-.73,.24-1.1,.36-.04-.22-.18-.58-.11-.63,.47-.33,.8,.17,1.21,.27Z"/>
  <path class="cls-6" d="M281.39,70.45c1.2-.22,.92-1.18,.93-1.95,.02-1.88,.12-3.78-.03-5.65-.15-1.82,.1-3.3,1.97-4.07-.07-.14-.04-.24,.09-.32,0,0-.03,.05-.03,.05,5.31-2.01,5.25-2.02,4.71,3.74-.43,4.56-1.22,9.01-3.12,13.21-1.51,2.95-3.53,5.5-6.06,7.65-1.24,1.05-1.85,.81-1.93-.82-.06-1.24-.06-2.34,.84-3.46,1.3-1.63,1.7-3.72,2.03-5.77,.14-.88-.06-1.84,.59-2.61Z"/>
  <path class="cls-12" d="M276.86,90.9c0-1.66-.02-3.33-.03-4.99,.82,1.66,.78,3.32,.03,4.99Z"/>
  <path class="cls-10" d="M271.71,67.48c-.5,.31-1.01,.65-1.54,.04,.51-.18,.98-1.7,1.54-.04Z"/>
  <path class="cls-10" d="M255.42,74.72c-.27,.3-.43,.22-.52-.14,.17,.05,.35,.09,.52,.14Z"/>
  <path class="cls-10" d="M254.92,72.62c.16-.06,.31-.13,.47-.19-.07,.26-.21,.38-.47,.19Z"/>
  <path class="cls-9" d="M256.42,57.96c-.18,.55-.64,.43-1.05,.45,.04-.33,.09-.66,.13-.99,.31,.18,.61,.36,.92,.54Z"/>
  <path class="cls-12" d="M243.37,65.42c.44-1.94,1.35-3.67,2.26-5.41,.97-1.85,2.39-2.87,4.57-2.55-.24,1.51-1.29,2.31-2.48,3.11-1.46,.97-2.54,2.31-2.79,4.15-.2,.94-.94,.67-1.55,.7Z"/>
  <path class="cls-12" d="M288.27,81.11c-.78-1.85,.22-4.13-1.43-5.76,.37-.45,.84-.42,1.33-.28,.03,2.01,.07,4.03,.1,6.04Z"/>
  <path class="cls-4" d="M331.66,30.53c-1.95,1.64-4.48,1.95-6.75,2.81-6.78,2.57-13.66,4.9-20.5,7.33-.71,.25-1.4,.49-2.16,.34,.16-1.15,1.26-.94,1.93-1.18,8.36-3.05,16.75-6.03,25.14-8.99,.73-.26,1.49-.79,2.34-.31Z"/>
  <path class="cls-4" d="M302.25,41c-1.47,1.63-3.26,2.52-5.48,2.49,1.44-1.69,3.18-2.7,5.48-2.49Z"/>
  <path class="cls-9" d="M296.27,43.94c.06-.21,.12-.42,.19-.63,.18-.06,.28,0,.32,.18,0,.34-.21,.44-.5,.45Z"/>
  <path class="cls-4" d="M260.4,56.47c-1.1,1.14-2.54,1.37-4.01,1.52,1.03-1.32,2.53-1.39,4.01-1.52Z"/>
  <path class="cls-13" d="M133.3,151.02c-.82-.11-1.65-.22-2.47-.33,.94-.77,1.74-.46,2.47,.33Z"/>
  <path class="cls-12" d="M215.53,83.45c.18-.18,.35-.37,.53-.55-.18,.18-.35,.37-.53,.55Z"/>
  <path class="cls-12" d="M228.49,160.15l-1-.97c.3,0,.6,0,.9,0,.16-.02,.33-.03,.49-.05,.54-.09,1.09-.19,1.63-.28,.31,.4,.39,.8,.01,1.21-.68,.03-1.36,.06-2.03,.09Z"/>
  <path class="cls-13" d="M228.89,159.13c-.16,.02-.33,.03-.49,.05,.16-.02,.33-.03,.49-.05Z"/>
  <path class="cls-7" d="M217.6,72.9c-.04-1.08,1.25-.62,1.54-1.31,2.87-1,5.74-2,8.61-2.98,.92-.32,1.78-.91,2.83-.64-.85,1.57-2.56,1.53-3.94,1.99-3,1.01-5.83,2.59-9.04,2.94Z"/>
  <path class="cls-7" d="M282.91,49.43c1.08-1.58,2.81-1.62,4.44-1.91-1.03,1.69-2.81,1.62-4.44,1.91Z"/>
  <path class="cls-7" d="M287.38,47.08c.3-.02,.59-.03,.89-.05-.09,.59-.25,1.04-.95,.52,0-.16,.03-.32,.06-.47Z"/>
  <path class="cls-13" d="M284.35,58.46c-.13,.08-.16,.18-.09,.32,0,0-.11-.19-.11-.19l.2-.13Z"/>
</svg>