<svg xmlns="http://www.w3.org/2000/svg" xmlns:xlink="http://www.w3.org/1999/xlink" width="414" zoomAndPan="magnify" viewBox="0 0 310.5 149.999998" height="200" preserveAspectRatio="xMidYMid meet" version="1.0"><defs><clipPath id="08469fed1c"><path d="M 42.003906 40.40625 L 76.835938 40.40625 L 76.835938 66.800781 L 42.003906 66.800781 Z M 42.003906 40.40625 " clip-rule="nonzero"/></clipPath><clipPath id="5e8080d701"><path d="M 42.089844 66.335938 C 43.796875 63.742188 46.765625 61.722656 49.296875 59.890625 C 52.769531 57.421875 58.015625 54.519531 61.875 51.671875 C 65.539062 48.957031 69.332031 45.226562 72.046875 43.265625 C 73.757812 42.003906 75.777344 40.296875 76.410156 40.488281 C 76.597656 40.550781 76.660156 41.058594 76.660156 41.058594 C 76.660156 41.058594 76.347656 40.488281 76.347656 40.488281 C 76.410156 40.488281 76.789062 40.613281 76.789062 40.804688 C 76.789062 42.003906 66.546875 49.082031 61.683594 52.621094 C 57.195312 55.78125 52.011719 58.75 48.660156 61.152344 C 46.453125 62.734375 44.113281 64.3125 43.226562 65.449219 C 42.785156 65.894531 42.847656 66.652344 42.59375 66.714844 C 42.40625 66.714844 42.089844 66.335938 42.089844 66.335938 " clip-rule="nonzero"/></clipPath><clipPath id="a8f486c3ea"><path d="M 76.15625 29.671875 L 99.882812 29.671875 L 99.882812 40.875 L 76.15625 40.875 Z M 76.15625 29.671875 " clip-rule="nonzero"/></clipPath><clipPath id="3fb50ec844"><path d="M 76.15625 40.296875 C 94.230469 31.828125 98.785156 29.363281 99.605469 29.742188 C 99.792969 29.871094 99.792969 30.375 99.730469 30.375 C 99.730469 30.375 99.542969 29.804688 99.542969 29.742188 C 99.542969 29.742188 99.921875 30.058594 99.855469 30.3125 C 99.414062 31.703125 78.113281 41.308594 76.472656 40.804688 C 76.21875 40.742188 76.15625 40.296875 76.15625 40.296875 " clip-rule="nonzero"/></clipPath><clipPath id="47fb5e3db9"><path d="M 98.386719 26.335938 L 111.882812 26.335938 L 111.882812 31.128906 L 98.386719 31.128906 Z M 98.386719 26.335938 " clip-rule="nonzero"/></clipPath><clipPath id="ac0c25a469"><path d="M 98.40625 30.4375 C 110.601562 26.585938 111.359375 26.207031 111.675781 26.394531 C 111.800781 26.523438 111.738281 27.027344 111.738281 27.027344 C 111.738281 27.027344 111.738281 26.394531 111.738281 26.394531 C 111.738281 26.394531 111.929688 26.835938 111.800781 27.027344 C 111.109375 28.039062 99.667969 31.578125 98.65625 31.070312 C 98.40625 30.941406 98.40625 30.4375 98.40625 30.4375 " clip-rule="nonzero"/></clipPath><clipPath id="7ee287b03b"><path d="M 111.429688 25.976562 L 115.714844 25.976562 L 115.714844 26.996094 L 111.429688 26.996094 Z M 111.429688 25.976562 " clip-rule="nonzero"/></clipPath><clipPath id="e0a2b1dec9"><path d="M 111.488281 26.269531 C 115.785156 25.765625 115.785156 26.078125 115.660156 26.207031 C 115.46875 26.523438 114.265625 26.523438 113.570312 26.648438 C 112.875 26.773438 111.738281 27.152344 111.488281 26.902344 C 111.359375 26.773438 111.488281 26.269531 111.488281 26.269531 " clip-rule="nonzero"/></clipPath><clipPath id="2bbe683af3"><path d="M 122.820312 24.136719 L 134.730469 24.136719 L 134.730469 35.414062 L 122.820312 35.414062 Z M 122.820312 24.136719 " clip-rule="nonzero"/></clipPath><clipPath id="0fc8b56997"><path d="M 122.863281 24.179688 C 133.167969 24.308594 133.734375 24.433594 134.113281 24.941406 C 134.554688 25.511719 134.808594 26.585938 134.683594 27.46875 C 134.554688 28.605469 133.796875 29.996094 132.847656 31.132812 C 131.710938 32.527344 129.246094 34.167969 127.984375 34.800781 C 127.351562 35.117188 126.589844 35.496094 126.335938 35.304688 C 126.210938 35.242188 126.148438 34.800781 126.148438 34.800781 C 126.210938 34.738281 126.589844 35.304688 126.589844 35.242188 C 126.589844 35.242188 126.148438 34.988281 126.210938 34.738281 C 126.335938 34.042969 130.890625 32.335938 132.277344 30.941406 C 133.230469 29.933594 133.925781 28.667969 134.050781 27.660156 C 134.238281 26.835938 134.050781 25.890625 133.671875 25.386719 C 133.355469 25.003906 132.847656 24.941406 132.089844 24.75 C 130.320312 24.433594 123.8125 25.386719 123.054688 24.75 C 122.800781 24.625 122.863281 24.179688 122.863281 24.179688 " clip-rule="nonzero"/></clipPath><clipPath id="a968c3e59e"><path d="M 122.460938 25.046875 L 133.183594 25.046875 L 133.183594 29.046875 L 122.460938 29.046875 Z M 122.460938 25.046875 " clip-rule="nonzero"/></clipPath><clipPath id="45db88e7c4"><path d="M 122.988281 25.066406 C 127.035156 28.921875 133.039062 26.394531 133.167969 26.710938 C 133.230469 26.835938 132.089844 27.59375 131.203125 27.910156 C 129.816406 28.417969 126.71875 29.425781 125.199219 28.859375 C 123.9375 28.355469 122.421875 26.015625 122.484375 25.449219 C 122.546875 25.257812 122.988281 25.066406 122.988281 25.066406 " clip-rule="nonzero"/></clipPath><clipPath id="b84d5b0215"><path d="M 122.675781 23.980469 L 123.585938 23.980469 L 123.585938 25.296875 L 122.675781 25.296875 Z M 122.675781 23.980469 " clip-rule="nonzero"/></clipPath><clipPath id="e3eaef4188"><path d="M 123.558594 24.5625 C 123.683594 25.257812 122.988281 25.386719 122.800781 25.195312 C 122.609375 25.066406 122.738281 23.992188 122.738281 23.992188 " clip-rule="nonzero"/></clipPath><clipPath id="a1e1f877de"><path d="M 131.570312 26.125 L 132.800781 26.125 L 132.800781 27.042969 L 131.570312 27.042969 Z M 131.570312 26.125 " clip-rule="nonzero"/></clipPath><clipPath id="ead2fb3e85"><path d="M 131.582031 26.457031 C 133.925781 25.449219 132.214844 27.089844 131.835938 27.027344 C 131.710938 26.964844 131.582031 26.457031 131.582031 26.457031 " clip-rule="nonzero"/></clipPath><clipPath id="b184fda690"><path d="M 131.375 25.746094 L 133.804688 25.746094 L 133.804688 27.433594 L 131.375 27.433594 Z M 131.375 25.746094 " clip-rule="nonzero"/></clipPath><clipPath id="325ae41a5b"><path d="M 131.394531 26.835938 C 132.847656 25.765625 132.976562 26.332031 132.976562 26.332031 C 132.976562 26.332031 132.660156 25.828125 132.722656 25.765625 C 132.785156 25.699219 133.796875 26.015625 133.796875 26.269531 C 133.796875 26.585938 132.027344 27.53125 131.710938 27.40625 C 131.519531 27.34375 131.394531 26.835938 131.394531 26.835938 " clip-rule="nonzero"/></clipPath><clipPath id="8dca61e062"><path d="M 111.84375 36.546875 L 123.203125 36.546875 L 123.203125 40.253906 L 111.84375 40.253906 Z M 111.84375 36.546875 " clip-rule="nonzero"/></clipPath><clipPath id="6e2d2b0c92"><path d="M 112.433594 37.769531 C 116.417969 39.984375 123.117188 36.503906 123.179688 36.570312 C 123.179688 36.632812 116.355469 40.425781 114.457031 40.234375 C 113.507812 40.171875 112.8125 39.414062 112.371094 38.972656 C 112.117188 38.65625 111.800781 38.148438 111.867188 37.957031 C 111.929688 37.769531 112.433594 37.769531 112.433594 37.769531 " clip-rule="nonzero"/></clipPath><clipPath id="9814fd2e52"><path d="M 94.457031 45.796875 L 103.164062 45.796875 L 103.164062 48.863281 L 94.457031 48.863281 Z M 94.457031 45.796875 " clip-rule="nonzero"/></clipPath><clipPath id="b4d785a8af"><path d="M 95.117188 46.367188 C 95.875 47.820312 96.824219 48.261719 97.519531 48.199219 C 98.46875 48.132812 99.605469 46.746094 100.613281 46.367188 C 101.5 46.050781 103.082031 45.671875 103.144531 45.859375 C 103.207031 46.050781 99.035156 48.765625 97.519531 48.828125 C 96.570312 48.890625 95.558594 48.324219 95.054688 47.820312 C 94.675781 47.441406 94.359375 46.554688 94.484375 46.367188 C 94.609375 46.238281 95.117188 46.367188 95.117188 46.367188 " clip-rule="nonzero"/></clipPath><clipPath id="86e7807e23"><path d="M 101.214844 39.628906 L 113.90625 39.628906 L 113.90625 46.464844 L 101.214844 46.464844 Z M 101.214844 39.628906 " clip-rule="nonzero"/></clipPath><clipPath id="0149d3b05f"><path d="M 101.246094 45.859375 C 111.867188 41.058594 113.191406 39.539062 113.570312 39.667969 C 113.761719 39.730469 113.824219 40.234375 113.824219 40.234375 C 113.824219 40.234375 113.570312 39.667969 113.570312 39.667969 C 113.570312 39.667969 113.949219 39.984375 113.886719 40.171875 C 113.824219 40.679688 112.308594 41.5625 110.980469 42.320312 C 108.769531 43.582031 102.445312 46.746094 101.5 46.429688 C 101.308594 46.304688 101.246094 45.859375 101.246094 45.859375 " clip-rule="nonzero"/></clipPath><clipPath id="5619aa40de"><path d="M 79.210938 60.882812 L 84.136719 60.882812 L 84.136719 61.890625 L 79.210938 61.890625 Z M 79.210938 60.882812 " clip-rule="nonzero"/></clipPath><clipPath id="f1c9b8fac9"><path d="M 79.253906 61.152344 C 84.054688 61.027344 83.929688 61.53125 83.867188 61.53125 C 83.867188 61.53125 83.804688 60.902344 83.867188 60.902344 C 83.867188 60.902344 84.183594 61.28125 84.117188 61.40625 C 83.929688 61.660156 82.601562 61.59375 81.78125 61.660156 C 80.960938 61.722656 79.570312 62.039062 79.316406 61.785156 C 79.128906 61.660156 79.253906 61.152344 79.253906 61.152344 " clip-rule="nonzero"/></clipPath><clipPath id="0fa79bdbda"><path d="M 73.417969 48.730469 L 96.925781 48.730469 L 96.925781 93.855469 L 73.417969 93.855469 Z M 73.417969 48.730469 " clip-rule="nonzero"/></clipPath><clipPath id="56fb061251"><path d="M 96.824219 49.273438 C 80.707031 65.640625 78.554688 69.050781 76.914062 72.023438 C 75.714844 74.363281 74.703125 75.878906 74.261719 78.46875 C 73.691406 81.882812 75.019531 88.328125 75.082031 90.980469 C 75.144531 92.179688 75.335938 93.386719 75.082031 93.636719 C 74.957031 93.765625 74.449219 93.574219 74.449219 93.574219 C 74.449219 93.636719 75.019531 93.765625 75.019531 93.765625 C 75.019531 93.765625 74.640625 93.828125 74.449219 93.636719 C 74.007812 93.132812 74.070312 90.222656 73.945312 88.140625 C 73.757812 85.355469 73.121094 81.441406 73.628906 78.46875 C 74.136719 75.75 75.335938 73.539062 76.789062 70.949219 C 78.554688 67.726562 81.023438 64.25 83.867188 60.902344 C 87.34375 56.917969 95.054688 48.828125 96.378906 48.828125 C 96.632812 48.828125 96.824219 49.273438 96.824219 49.273438 " clip-rule="nonzero"/></clipPath><clipPath id="5a19da3ae7"><path d="M 92.085938 53.792969 L 101.9375 53.792969 L 101.9375 56.566406 L 92.085938 56.566406 Z M 92.085938 53.792969 " clip-rule="nonzero"/></clipPath><clipPath id="0ae6035415"><path d="M 92.148438 53.824219 C 102.003906 56.035156 101.816406 56.476562 101.816406 56.476562 C 101.816406 56.476562 101.878906 55.84375 101.878906 55.84375 C 101.878906 55.84375 102.003906 56.347656 101.878906 56.476562 C 101.5625 56.726562 100.109375 56.285156 98.972656 56.097656 C 97.140625 55.78125 92.78125 55.277344 92.210938 54.582031 C 92.019531 54.328125 92.148438 53.824219 92.148438 53.824219 " clip-rule="nonzero"/></clipPath><clipPath id="e1e3d92f8b"><path d="M 105.472656 56.65625 L 124.546875 56.65625 L 124.546875 67.671875 L 105.472656 67.671875 Z M 105.472656 56.65625 " clip-rule="nonzero"/></clipPath><clipPath id="6a866b78f7"><path d="M 105.734375 56.664062 C 117.617188 61.40625 117.871094 62.226562 118.691406 62.734375 C 119.511719 63.300781 120.648438 63.238281 121.535156 63.804688 C 122.609375 64.5625 124.570312 66.714844 124.503906 67.222656 C 124.503906 67.410156 124 67.601562 124 67.601562 C 124 67.601562 124.441406 67.15625 124.503906 67.15625 C 124.503906 67.222656 124.316406 67.664062 124.125 67.664062 C 123.621094 67.664062 122.167969 65.007812 121.09375 64.3125 C 120.207031 63.679688 119.132812 63.804688 118.3125 63.300781 C 117.492188 62.796875 117.238281 61.910156 116.101562 61.214844 C 113.949219 59.890625 105.988281 58.179688 105.546875 57.234375 C 105.417969 57.042969 105.734375 56.664062 105.734375 56.664062 " clip-rule="nonzero"/></clipPath><clipPath id="504304aeb5"><path d="M 85.441406 65.097656 L 89.910156 65.097656 L 89.910156 70.121094 L 85.441406 70.121094 Z M 85.441406 65.097656 " clip-rule="nonzero"/></clipPath><clipPath id="774b0257a8"><path d="M 85.890625 65.132812 C 90.058594 69.808594 89.742188 70.125 89.742188 70.0625 C 89.679688 70.0625 89.871094 69.496094 89.871094 69.496094 C 89.871094 69.496094 89.871094 70.0625 89.742188 70.0625 C 89.554688 70.1875 89.050781 69.875 88.671875 69.496094 C 87.785156 68.800781 85.386719 66.148438 85.449219 65.511719 C 85.449219 65.257812 85.890625 65.132812 85.890625 65.132812 " clip-rule="nonzero"/></clipPath><clipPath id="d3d208a28c"><path d="M 89.703125 69.960938 L 100.566406 69.960938 L 100.566406 71.621094 L 89.703125 71.621094 Z M 89.703125 69.960938 " clip-rule="nonzero"/></clipPath><clipPath id="6bb25e1333"><path d="M 89.933594 70 C 98.785156 70.820312 100.109375 69.808594 100.425781 70 C 100.613281 70.125 100.488281 70.632812 100.488281 70.632812 C 100.488281 70.632812 100.613281 70.0625 100.488281 70 C 100.171875 69.808594 98.53125 71.328125 97.265625 71.515625 C 95.746094 71.832031 93.285156 71.328125 91.957031 71.136719 C 91.007812 71.011719 89.871094 70.882812 89.742188 70.570312 C 89.617188 70.441406 89.933594 70 89.933594 70 " clip-rule="nonzero"/></clipPath><clipPath id="817e702b24"><path d="M 104.390625 68.402344 L 106.265625 68.402344 L 106.265625 70.09375 L 104.390625 70.09375 Z M 104.390625 68.402344 " clip-rule="nonzero"/></clipPath><clipPath id="f619047f99"><path d="M 104.410156 69.496094 C 106.175781 68.421875 106.304688 68.925781 106.242188 68.925781 C 106.242188 68.925781 105.988281 68.421875 105.925781 68.421875 C 105.925781 68.421875 106.242188 68.800781 106.242188 68.988281 C 106.113281 69.304688 104.976562 70.125 104.722656 70.0625 C 104.535156 70 104.410156 69.496094 104.410156 69.496094 " clip-rule="nonzero"/></clipPath><clipPath id="e0ac4d01c9"><path d="M 105.699219 66.148438 L 118 66.148438 L 118 77.898438 L 105.699219 77.898438 Z M 105.699219 66.148438 " clip-rule="nonzero"/></clipPath><clipPath id="d83aaa59d7"><path d="M 106.492188 66.527344 C 107.25 70.882812 108.136719 70.820312 108.832031 71.453125 C 109.972656 72.464844 111.042969 74.929688 112.625 76.003906 C 114.078125 77.015625 117.996094 77.519531 117.996094 77.710938 C 117.996094 77.898438 116.734375 77.898438 115.976562 77.773438 C 114.835938 77.582031 113.382812 77.203125 111.992188 76.320312 C 110.160156 75.121094 107.125 72.148438 106.242188 70.378906 C 105.671875 69.242188 105.734375 67.914062 105.734375 67.15625 C 105.734375 66.777344 105.796875 66.273438 105.925781 66.210938 C 106.050781 66.148438 106.492188 66.527344 106.492188 66.527344 " clip-rule="nonzero"/></clipPath><clipPath id="462b04f196"><path d="M 116.214844 76.035156 L 121.570312 76.035156 L 121.570312 90.761719 L 116.214844 90.761719 Z M 116.214844 76.035156 " clip-rule="nonzero"/></clipPath><clipPath id="13218f462d"><path d="M 119.007812 76.574219 C 116.796875 78.65625 116.859375 78.847656 116.921875 79.355469 C 117.113281 80.746094 118.1875 84.789062 119.070312 86.8125 C 119.765625 88.390625 121.664062 90.601562 121.535156 90.726562 C 121.410156 90.792969 119.765625 89.402344 119.007812 88.140625 C 117.871094 86.179688 116.480469 81.1875 116.289062 79.480469 C 116.226562 78.785156 116.226562 78.46875 116.480469 78.023438 C 116.859375 77.332031 118.1875 76.003906 118.566406 76.066406 C 118.753906 76.066406 119.007812 76.574219 119.007812 76.574219 " clip-rule="nonzero"/></clipPath><clipPath id="656c1c7221"><path d="M 124.144531 75.960938 L 130.652344 75.960938 L 130.652344 96.335938 L 124.144531 96.335938 Z M 124.144531 75.960938 " clip-rule="nonzero"/></clipPath><clipPath id="eed06f7cb5"><path d="M 128.679688 76.003906 C 130.761719 87.128906 130.761719 87.570312 130.574219 88.707031 C 130.195312 90.476562 129.058594 94.269531 128.109375 95.40625 C 127.667969 95.972656 127.226562 96.226562 126.589844 96.289062 C 125.894531 96.355469 124.191406 95.53125 124.191406 95.40625 C 124.253906 95.28125 126.148438 95.785156 126.84375 95.59375 C 127.289062 95.46875 127.605469 95.28125 127.921875 94.773438 C 128.742188 93.765625 129.625 90.160156 129.941406 88.582031 C 130.128906 87.570312 130.195312 87.191406 130.128906 86.117188 C 130.003906 83.902344 127.542969 76.953125 128.046875 76.128906 C 128.171875 75.941406 128.679688 76.003906 128.679688 76.003906 " clip-rule="nonzero"/></clipPath><clipPath id="d6a04e1774"><path d="M 126.824219 82.6875 L 129.449219 82.6875 L 129.449219 93.980469 L 126.824219 93.980469 Z M 126.824219 82.6875 " clip-rule="nonzero"/></clipPath><clipPath id="ba41eb2fbf"><path d="M 129.4375 83.207031 C 127.351562 86.371094 127.414062 89.464844 127.605469 91.105469 C 127.792969 92.246094 128.679688 93.890625 128.550781 93.953125 C 128.488281 94.015625 127.414062 92.816406 127.097656 91.863281 C 126.65625 90.347656 126.84375 86.6875 127.289062 85.167969 C 127.476562 84.34375 127.921875 83.777344 128.300781 83.335938 C 128.550781 83.019531 128.992188 82.640625 129.183594 82.703125 C 129.308594 82.703125 129.4375 83.207031 129.4375 83.207031 " clip-rule="nonzero"/></clipPath><clipPath id="b589d206d4"><path d="M 88.410156 74.984375 L 91.394531 74.984375 L 91.394531 80.582031 L 88.410156 80.582031 Z M 88.410156 74.984375 " clip-rule="nonzero"/></clipPath><clipPath id="96830008e7"><path d="M 89.113281 74.992188 C 90.25 79.609375 91.328125 79.925781 91.328125 80.175781 C 91.328125 80.367188 90.820312 80.554688 90.820312 80.554688 C 90.882812 80.554688 91.390625 80.429688 91.390625 80.367188 C 91.390625 80.113281 89.871094 79.988281 89.363281 79.355469 C 88.734375 78.53125 88.226562 75.878906 88.480469 75.308594 C 88.605469 75.058594 89.113281 74.992188 89.113281 74.992188 " clip-rule="nonzero"/></clipPath><clipPath id="71b2d8aee1"><path d="M 91.375 80.792969 L 100 80.792969 L 100 82.949219 L 91.375 82.949219 Z M 91.375 80.792969 " clip-rule="nonzero"/></clipPath><clipPath id="6c68ac01b3"><path d="M 91.832031 80.808594 C 94.609375 82.007812 99.476562 81.628906 99.855469 82.199219 C 99.984375 82.324219 99.730469 82.765625 99.730469 82.765625 C 99.730469 82.828125 99.984375 82.261719 99.984375 82.261719 C 99.984375 82.261719 99.921875 82.640625 99.730469 82.765625 C 99.035156 83.207031 94.609375 82.703125 93.160156 82.199219 C 92.335938 81.945312 91.453125 81.503906 91.390625 81.25 C 91.390625 81.0625 91.832031 80.808594 91.832031 80.808594 " clip-rule="nonzero"/></clipPath><clipPath id="bd5126f01f"><path d="M 104.265625 78.121094 L 112.976562 78.121094 L 112.976562 89.792969 L 104.265625 89.792969 Z M 104.265625 78.121094 " clip-rule="nonzero"/></clipPath><clipPath id="0d3177e5a3"><path d="M 105.292969 78.402344 C 105.167969 83.207031 105.417969 83.652344 105.796875 84.03125 C 106.242188 84.472656 107.125 84.472656 107.691406 84.976562 C 108.578125 85.609375 109.210938 87.316406 110.160156 88.140625 C 110.980469 88.832031 112.9375 89.65625 112.9375 89.78125 C 112.875 89.84375 110.730469 89.277344 109.84375 88.644531 C 108.894531 87.949219 108.324219 86.304688 107.503906 85.546875 C 106.746094 84.976562 105.734375 84.851562 105.167969 84.28125 C 104.789062 83.839844 104.535156 83.398438 104.410156 82.765625 C 104.21875 81.882812 104.28125 80.367188 104.410156 79.542969 C 104.472656 78.972656 104.535156 78.214844 104.722656 78.152344 C 104.914062 78.089844 105.292969 78.402344 105.292969 78.402344 " clip-rule="nonzero"/></clipPath><clipPath id="0fa15166a0"><path d="M 90.820312 84.601562 L 92.347656 84.601562 L 92.347656 89.050781 L 90.820312 89.050781 Z M 90.820312 84.601562 " clip-rule="nonzero"/></clipPath><clipPath id="58e345a94c"><path d="M 91.515625 84.660156 C 92.210938 88.898438 91.707031 88.832031 91.707031 88.832031 C 91.707031 88.832031 92.335938 88.769531 92.335938 88.832031 C 92.335938 88.832031 91.957031 89.085938 91.832031 89.023438 C 91.515625 88.898438 91.328125 87.191406 91.136719 86.371094 C 91.007812 85.734375 90.691406 84.851562 90.882812 84.660156 C 91.007812 84.535156 91.515625 84.660156 91.515625 84.660156 " clip-rule="nonzero"/></clipPath><clipPath id="cd78b31108"><path d="M 93.210938 90.914062 L 97.160156 90.914062 L 97.160156 93.675781 L 93.210938 93.675781 Z M 93.210938 90.914062 " clip-rule="nonzero"/></clipPath><clipPath id="b4bbebc5a4"><path d="M 93.664062 90.917969 C 97.265625 93.320312 96.949219 93.636719 96.886719 93.636719 C 96.886719 93.636719 97.140625 93.066406 97.140625 93.066406 C 97.140625 93.066406 97.140625 93.574219 96.949219 93.636719 C 96.570312 93.765625 95.179688 92.941406 94.484375 92.496094 C 93.980469 92.117188 93.222656 91.613281 93.222656 91.296875 C 93.222656 91.105469 93.664062 90.917969 93.664062 90.917969 " clip-rule="nonzero"/></clipPath><clipPath id="54fe4543fb"><path d="M 62.953125 91.527344 L 76.199219 91.527344 L 76.199219 95.234375 L 62.953125 95.234375 Z M 62.953125 91.527344 " clip-rule="nonzero"/></clipPath><clipPath id="301ddfe6cb"><path d="M 63.074219 91.550781 C 74.386719 93.511719 75.96875 94.207031 76.15625 94.648438 C 76.28125 94.835938 76.03125 95.214844 76.03125 95.214844 C 76.03125 95.214844 76.15625 94.648438 76.15625 94.648438 C 76.09375 94.648438 76.03125 95.152344 75.839844 95.214844 C 75.398438 95.34375 74.007812 94.078125 72.550781 93.636719 C 70.277344 92.878906 63.644531 92.878906 63.011719 92.117188 C 62.886719 91.929688 63.074219 91.550781 63.074219 91.550781 " clip-rule="nonzero"/></clipPath><clipPath id="786b947c97"><path d="M 71.535156 89.847656 L 122.617188 89.847656 L 122.617188 96.34375 L 71.535156 96.34375 Z M 71.535156 89.847656 " clip-rule="nonzero"/></clipPath><clipPath id="6d1fa288fe"><path d="M 71.792969 95.53125 C 80.769531 94.332031 84.625 95.847656 88.734375 95.53125 C 93.980469 95.152344 100.996094 92.054688 106.492188 91.171875 C 111.171875 90.414062 116.859375 89.464844 119.636719 90.035156 C 121.03125 90.347656 122.484375 91.234375 122.609375 91.613281 C 122.609375 91.800781 122.167969 92.117188 122.167969 92.117188 C 122.167969 92.117188 122.546875 91.550781 122.546875 91.613281 C 122.609375 91.613281 122.546875 92.054688 122.421875 92.117188 C 122.042969 92.308594 120.96875 90.980469 119.636719 90.664062 C 116.921875 90.160156 111.171875 91.042969 106.429688 91.800781 C 100.867188 92.6875 92.019531 95.660156 88.480469 96.164062 C 87.027344 96.355469 86.523438 96.355469 85.386719 96.289062 C 83.867188 96.101562 81.78125 95.28125 80.203125 95.089844 C 78.808594 94.964844 77.609375 94.964844 76.347656 95.152344 C 75.019531 95.34375 73.1875 96.101562 72.363281 96.164062 C 71.984375 96.164062 71.605469 96.164062 71.542969 96.039062 C 71.480469 95.910156 71.792969 95.53125 71.792969 95.53125 " clip-rule="nonzero"/></clipPath><clipPath id="20662f4798"><path d="M 108.917969 91.648438 L 125.566406 91.648438 L 125.566406 104.410156 L 108.917969 104.410156 Z M 108.917969 91.648438 " clip-rule="nonzero"/></clipPath><clipPath id="28a82a69d4"><path d="M 112.558594 95.722656 C 120.648438 91.863281 121.601562 91.613281 122.546875 91.675781 C 123.433594 91.675781 124.503906 91.800781 124.949219 92.246094 C 125.390625 92.6875 125.515625 93.511719 125.515625 94.144531 C 125.453125 94.773438 125.199219 95.28125 124.820312 95.972656 C 124.253906 96.921875 123.054688 98.25 121.980469 99.195312 C 120.902344 100.148438 119.828125 100.96875 118.375 101.726562 C 116.605469 102.738281 113.191406 104.820312 111.800781 104.316406 C 110.792969 104 110.351562 102.359375 109.90625 101.285156 C 109.464844 100.335938 108.703125 99.070312 109.085938 98.183594 C 109.527344 97.046875 113.507812 95.34375 113.507812 95.40625 C 113.570312 95.46875 109.90625 97.175781 109.59375 98.5 C 109.210938 99.828125 110.917969 102.671875 111.675781 103.304688 C 112.117188 103.683594 112.371094 103.683594 112.9375 103.621094 C 114.582031 103.367188 120.015625 100.082031 122.042969 98.4375 C 123.242188 97.363281 124.125 96.417969 124.503906 95.34375 C 124.820312 94.457031 125.074219 93.132812 124.503906 92.625 C 123.8125 91.929688 121.347656 92.433594 119.636719 92.878906 C 117.492188 93.449219 113.570312 96.542969 112.8125 96.289062 C 112.625 96.226562 112.558594 95.722656 112.558594 95.722656 " clip-rule="nonzero"/></clipPath><clipPath id="9801dd310f"><path d="M 51.492188 103.039062 L 114.464844 103.039062 L 114.464844 132.070312 L 51.492188 132.070312 Z M 51.492188 103.039062 " clip-rule="nonzero"/></clipPath><clipPath id="9f9767a37f"><path d="M 51.824219 131.238281 C 62.191406 129.089844 66.421875 124.664062 71.859375 122.074219 C 79.253906 118.472656 93.664062 114.933594 99.351562 112.339844 C 102.003906 111.140625 103.082031 110.445312 105.039062 109.121094 C 107.3125 107.539062 110.414062 104.253906 112.117188 103.496094 C 113.003906 103.117188 113.949219 102.925781 114.265625 103.179688 C 114.390625 103.242188 114.457031 103.558594 114.328125 103.746094 C 114.140625 104.0625 113.066406 103.808594 112.179688 104.1875 C 110.414062 105.011719 107.378906 108.296875 105.105469 109.816406 C 103.144531 111.078125 102.195312 111.710938 99.605469 112.910156 C 94.042969 115.441406 79.761719 118.976562 72.300781 122.519531 C 66.800781 125.171875 62.125 129.722656 58.460938 131.046875 C 56.4375 131.871094 54.476562 131.933594 53.214844 131.996094 C 52.582031 131.996094 51.761719 132.058594 51.632812 131.804688 C 51.570312 131.679688 51.824219 131.238281 51.824219 131.238281 " clip-rule="nonzero"/></clipPath><clipPath id="72fa41f4e4"><path d="M 104.128906 104.484375 L 120.152344 104.484375 L 120.152344 116.976562 L 104.128906 116.976562 Z M 104.128906 104.484375 " clip-rule="nonzero"/></clipPath><clipPath id="fb25d080ff"><path d="M 104.914062 110.699219 C 105.546875 115.566406 105.863281 116.070312 106.304688 116.261719 C 106.621094 116.386719 106.933594 116.324219 107.503906 116.070312 C 109.59375 115.125 118.4375 104.441406 119.636719 104.566406 C 119.890625 104.566406 120.015625 105.011719 120.015625 105.011719 C 120.015625 105.011719 119.574219 104.566406 119.636719 104.566406 C 119.636719 104.503906 120.082031 104.632812 120.144531 104.820312 C 120.269531 105.769531 110.097656 115.566406 107.820312 116.640625 C 107.125 116.957031 106.683594 117.019531 106.242188 116.828125 C 105.734375 116.703125 105.230469 116.199219 104.914062 115.628906 C 104.472656 114.871094 104.34375 113.480469 104.28125 112.59375 C 104.21875 111.835938 104.03125 110.824219 104.28125 110.636719 C 104.410156 110.507812 104.914062 110.699219 104.914062 110.699219 " clip-rule="nonzero"/></clipPath><clipPath id="9bc9eb4e59"><path d="M 105.3125 106.933594 L 116.40625 106.933594 L 116.40625 115.546875 L 105.3125 115.546875 Z M 105.3125 106.933594 " clip-rule="nonzero"/></clipPath><clipPath id="f1f617820f"><path d="M 105.355469 115.125 C 109.023438 110.445312 111.992188 107.917969 113.253906 107.289062 C 113.824219 107.035156 114.140625 106.910156 114.519531 107.035156 C 115.152344 107.226562 116.480469 108.675781 116.355469 108.804688 C 116.289062 108.992188 114.644531 107.667969 113.632812 107.792969 C 111.992188 108.109375 109.339844 110.953125 107.945312 112.46875 C 107 113.480469 106.304688 115.441406 105.863281 115.503906 C 105.671875 115.503906 105.355469 115.0625 105.355469 115.0625 " clip-rule="nonzero"/></clipPath><clipPath id="2d0f1627ee"><path d="M 148.441406 46.410156 L 148.863281 46.410156 L 148.863281 46.8125 L 148.441406 46.8125 Z M 148.441406 46.410156 " clip-rule="nonzero"/></clipPath><clipPath id="b64cc1d5d3"><path d="M 148.773438 46.429688 C 149.089844 47.0625 148.460938 46.683594 148.460938 46.683594 " clip-rule="nonzero"/></clipPath><clipPath id="de21ed391e"><path d="M 148.808594 33.613281 L 186.195312 33.613281 L 186.195312 46.957031 L 148.808594 46.957031 Z M 148.808594 33.613281 " clip-rule="nonzero"/></clipPath><clipPath id="5a3f8582d6"><path d="M 148.839844 46.492188 C 158.761719 39.605469 161.984375 38.148438 164.449219 37.199219 C 166.34375 36.503906 167.480469 36.1875 169.570312 35.746094 C 172.601562 35.050781 178.101562 34.359375 181.136719 34.042969 C 183.03125 33.851562 185.242188 33.410156 185.875 33.789062 C 186.0625 33.914062 186.128906 34.292969 186.128906 34.292969 C 186.128906 34.292969 185.875 33.726562 185.808594 33.789062 C 185.808594 33.789062 186.0625 34.230469 185.875 34.421875 C 185.050781 35.367188 173.613281 35.558594 169.761719 36.316406 C 167.609375 36.757812 166.410156 37.199219 164.703125 37.769531 C 162.933594 38.402344 161.351562 38.84375 159.332031 39.917969 C 156.421875 41.4375 150.355469 47.0625 149.21875 46.933594 C 148.964844 46.871094 148.839844 46.492188 148.839844 46.492188 " clip-rule="nonzero"/></clipPath><clipPath id="015db7fdbc"><path d="M 145.394531 50.78125 L 145.6875 50.78125 L 145.6875 51.050781 L 145.394531 51.050781 Z M 145.394531 50.78125 " clip-rule="nonzero"/></clipPath><clipPath id="1df157aeb0"><path d="M 145.679688 51.039062 C 145.046875 50.851562 145.679688 50.789062 145.679688 50.789062 " clip-rule="nonzero"/></clipPath><clipPath id="74a9a836a0"><path d="M 145.230469 43.828125 L 170.789062 43.828125 L 170.789062 54.1875 L 145.230469 54.1875 Z M 145.230469 43.828125 " clip-rule="nonzero"/></clipPath><clipPath id="b355bf8b16"><path d="M 146.816406 49.335938 C 146.058594 51.671875 147.195312 52.433594 148.269531 52.875 C 149.785156 53.507812 152.820312 53.507812 154.714844 53.445312 C 156.105469 53.316406 156.867188 53.128906 158.445312 52.6875 C 161.035156 51.863281 166.914062 49.964844 168.683594 48.578125 C 169.507812 47.882812 169.824219 47.3125 170.074219 46.554688 C 170.328125 45.734375 170.011719 43.835938 170.140625 43.835938 C 170.265625 43.773438 170.832031 45.417969 170.769531 46.113281 C 170.769531 46.683594 170.582031 47.25 170.203125 47.820312 C 169.695312 48.449219 169.128906 49.019531 168.050781 49.652344 C 165.585938 51.039062 158.574219 53.632812 154.84375 54.074219 C 152.191406 54.328125 149.597656 54.074219 147.890625 53.378906 C 146.691406 52.875 145.492188 51.988281 145.300781 51.230469 C 145.175781 50.535156 145.996094 49.082031 146.3125 48.957031 C 146.5 48.957031 146.816406 49.335938 146.816406 49.335938 " clip-rule="nonzero"/></clipPath><clipPath id="a827ad6753"><path d="M 148.445312 43.664062 L 155.410156 43.664062 L 155.410156 51.292969 L 148.445312 51.292969 Z M 148.445312 43.664062 " clip-rule="nonzero"/></clipPath><clipPath id="3057353e8a"><path d="M 154.464844 43.679688 C 155.601562 45.449219 155.535156 46.015625 155.15625 46.585938 C 154.273438 47.910156 148.523438 51.390625 148.460938 51.261719 C 148.394531 51.199219 153.957031 47.34375 154.652344 46.207031 C 154.90625 45.765625 154.96875 45.449219 154.90625 45.132812 C 154.777344 44.691406 153.894531 44.183594 153.957031 43.933594 C 154.019531 43.804688 154.464844 43.742188 154.464844 43.742188 " clip-rule="nonzero"/></clipPath><clipPath id="23ba526b31"><path d="M 147.183594 51.09375 L 148.046875 51.09375 L 148.046875 51.8125 L 147.183594 51.8125 Z M 147.183594 51.09375 " clip-rule="nonzero"/></clipPath><clipPath id="6dbea4786d"><path d="M 147.195312 51.167969 C 148.902344 50.851562 147.511719 51.863281 147.320312 51.800781 C 147.132812 51.734375 147.195312 51.167969 147.195312 51.167969 " clip-rule="nonzero"/></clipPath><clipPath id="dcfd09e3df"><path d="M 166.835938 32.941406 L 187.34375 32.941406 L 187.34375 52.5 L 166.835938 52.5 Z M 166.835938 32.941406 " clip-rule="nonzero"/></clipPath><clipPath id="4c4f75d148"><path d="M 167.039062 52.496094 C 166.410156 49.652344 167.480469 48.703125 168.875 47.3125 C 172.097656 44.089844 187.078125 32.714844 187.332031 32.96875 C 187.457031 33.09375 183.726562 36.757812 181.261719 38.84375 C 178.039062 41.625 171.65625 45.480469 169.316406 47.753906 C 168.113281 48.890625 167.167969 49.714844 167.039062 50.597656 C 166.914062 51.167969 167.734375 51.925781 167.609375 52.242188 C 167.546875 52.433594 167.039062 52.496094 167.039062 52.496094 " clip-rule="nonzero"/></clipPath><clipPath id="18aceb2b36"><path d="M 166.207031 40.488281 L 197.195312 40.488281 L 197.195312 54.828125 L 166.207031 54.828125 Z M 166.207031 40.488281 " clip-rule="nonzero"/></clipPath><clipPath id="f657ce13e2"><path d="M 167.859375 49.585938 C 167.039062 52.6875 167.546875 53.378906 168.496094 53.761719 C 170.519531 54.644531 177.28125 53.570312 180.441406 53 C 182.589844 52.6875 183.789062 52.496094 185.746094 51.546875 C 188.59375 50.15625 194.09375 45.925781 195.546875 44.402344 C 196.113281 43.773438 196.304688 43.519531 196.492188 42.953125 C 196.746094 42.257812 196.492188 40.488281 196.554688 40.488281 C 196.683594 40.488281 197.25 42.320312 197.125 43.078125 C 196.996094 43.773438 196.683594 44.152344 195.988281 44.847656 C 194.40625 46.554688 188.339844 50.914062 185.808594 52.179688 C 184.546875 52.875 184.167969 52.9375 182.777344 53.253906 C 179.742188 53.886719 170.960938 55.464844 168.429688 54.390625 C 167.230469 53.886719 166.535156 52.6875 166.28125 51.863281 C 166.15625 51.292969 166.28125 50.660156 166.472656 50.15625 C 166.722656 49.714844 167.355469 49.019531 167.546875 49.019531 C 167.734375 49.019531 167.859375 49.585938 167.859375 49.585938 " clip-rule="nonzero"/></clipPath><clipPath id="8b23807fbe"><path d="M 196.472656 40.152344 L 215.523438 40.152344 L 215.523438 45.058594 L 196.472656 45.058594 Z M 196.472656 40.152344 " clip-rule="nonzero"/></clipPath><clipPath id="2cc9227721"><path d="M 196.746094 44.089844 C 213.429688 43.898438 213.808594 43.773438 214.316406 43.332031 C 214.882812 42.699219 215.324219 40.171875 215.453125 40.171875 C 215.578125 40.234375 215.453125 42.699219 214.945312 43.457031 C 214.566406 44.023438 214.1875 44.277344 213.242188 44.59375 C 210.714844 45.355469 200.097656 44.972656 197.820312 44.785156 C 197.125 44.785156 196.617188 44.785156 196.492188 44.65625 C 196.429688 44.46875 196.746094 44.089844 196.746094 44.089844 " clip-rule="nonzero"/></clipPath><clipPath id="c6c70a00ee"><path d="M 215 43.5625 L 222.808594 43.5625 L 222.808594 53.335938 L 215 53.335938 Z M 215 43.5625 " clip-rule="nonzero"/></clipPath><clipPath id="8a2b2f30c2"><path d="M 215.453125 43.582031 C 218.363281 45.542969 218.804688 47.628906 219.6875 49.019531 C 220.574219 50.410156 222.914062 52.371094 222.785156 52.9375 C 222.785156 53.128906 222.28125 53.253906 222.28125 53.253906 C 222.28125 53.253906 222.785156 52.875 222.785156 52.875 C 222.785156 52.9375 222.535156 53.378906 222.34375 53.316406 C 221.773438 53.316406 220.003906 50.660156 219.121094 49.207031 C 218.234375 47.820312 217.792969 45.734375 216.910156 44.847656 C 216.339844 44.339844 215.074219 44.339844 215.011719 44.023438 C 215.011719 43.898438 215.453125 43.582031 215.453125 43.582031 " clip-rule="nonzero"/></clipPath><clipPath id="3034a2f5b7"><path d="M 184.957031 25.492188 L 248.539062 25.492188 L 248.539062 52.65625 L 184.957031 52.65625 Z M 184.957031 25.492188 " clip-rule="nonzero"/></clipPath><clipPath id="ceb0ea1c85"><path d="M 184.988281 34.230469 C 197.882812 28.734375 202.433594 27.40625 206.417969 26.710938 C 210.082031 26.078125 213.746094 25.003906 217.226562 25.765625 C 221.015625 26.585938 224.933594 29.871094 228.285156 32.082031 C 231.316406 34.042969 234.730469 36.316406 236.691406 38.210938 C 237.953125 39.476562 238.269531 40.488281 239.46875 41.6875 C 241.050781 43.457031 244.335938 45.480469 245.855469 47.503906 C 247.121094 49.144531 248.507812 52.558594 248.445312 52.621094 C 248.320312 52.621094 246.867188 49.714844 245.472656 47.945312 C 243.261719 45.226562 238.964844 40.929688 235.867188 38.339844 C 233.402344 36.1875 231.316406 34.800781 228.601562 33.03125 C 225.3125 30.878906 221.265625 27.34375 217.414062 26.457031 C 213.746094 25.636719 209.828125 26.773438 206.101562 27.40625 C 202.371094 28.039062 198.578125 29.113281 195.039062 30.375 C 191.625 31.640625 186.253906 35.117188 185.304688 34.800781 C 185.050781 34.738281 184.988281 34.230469 184.988281 34.230469 " clip-rule="nonzero"/></clipPath><clipPath id="80a1855e22"><path d="M 247.121094 48.425781 L 252.195312 48.425781 L 252.195312 52.078125 L 247.121094 52.078125 Z M 247.121094 48.425781 " clip-rule="nonzero"/></clipPath><clipPath id="74807ed1cb"><path d="M 247.371094 48.449219 C 250.71875 49.652344 252.113281 51.039062 252.175781 51.546875 C 252.238281 51.734375 251.921875 52.050781 251.921875 52.050781 C 251.921875 52.050781 252.175781 51.546875 252.175781 51.480469 C 252.113281 51.480469 251.921875 51.988281 251.730469 51.988281 C 251.226562 51.988281 250.152344 49.964844 249.265625 49.460938 C 248.636719 49.082031 247.308594 49.335938 247.183594 49.019531 C 247.054688 48.890625 247.371094 48.449219 247.371094 48.449219 " clip-rule="nonzero"/></clipPath><clipPath id="569bd12cbf"><path d="M 191.4375 46.71875 L 203.851562 46.71875 L 203.851562 51.183594 L 191.4375 51.183594 Z M 191.4375 46.71875 " clip-rule="nonzero"/></clipPath><clipPath id="44d37cf234"><path d="M 191.75 48.511719 C 199.277344 50.410156 201.550781 50.976562 202.558594 50.28125 C 203.445312 49.652344 203.507812 46.746094 203.695312 46.746094 C 203.824219 46.808594 203.949219 48.703125 203.695312 49.460938 C 203.445312 50.09375 203.128906 50.660156 202.371094 50.976562 C 201.042969 51.546875 197.3125 50.789062 195.355469 50.34375 C 193.839844 50.03125 191.6875 49.523438 191.5 49.082031 C 191.371094 48.890625 191.75 48.511719 191.75 48.511719 " clip-rule="nonzero"/></clipPath><clipPath id="874ff445ed"><path d="M 202.339844 50.660156 L 206.164062 50.660156 L 206.164062 53.664062 L 202.339844 53.664062 Z M 202.339844 50.660156 " clip-rule="nonzero"/></clipPath><clipPath id="b8387efda8"><path d="M 202.6875 50.660156 C 206.226562 53.378906 205.722656 53.570312 205.722656 53.570312 C 205.722656 53.570312 206.164062 53.128906 206.164062 53.128906 C 206.164062 53.128906 205.972656 53.570312 205.785156 53.632812 C 205.214844 53.695312 202.433594 51.671875 202.371094 51.101562 C 202.308594 50.914062 202.6875 50.660156 202.6875 50.660156 " clip-rule="nonzero"/></clipPath><clipPath id="db224e45d8"><path d="M 211.003906 58.347656 L 219.976562 58.347656 L 219.976562 63.164062 L 211.003906 63.164062 Z M 211.003906 58.347656 " clip-rule="nonzero"/></clipPath><clipPath id="24c89bd57b"><path d="M 211.410156 58.371094 C 214.757812 60.648438 215.011719 62.164062 215.894531 62.417969 C 216.910156 62.734375 219.878906 61.027344 219.941406 61.152344 C 220.003906 61.28125 216.910156 63.363281 215.832031 63.113281 C 214.882812 62.921875 214.503906 61.152344 213.683594 60.457031 C 212.863281 59.765625 211.09375 59.320312 211.03125 58.878906 C 210.96875 58.6875 211.410156 58.371094 211.410156 58.371094 " clip-rule="nonzero"/></clipPath><clipPath id="d2c33df977"><path d="M 194.820312 59.480469 L 213.808594 59.480469 L 213.808594 70.722656 L 194.820312 70.722656 Z M 194.820312 59.480469 " clip-rule="nonzero"/></clipPath><clipPath id="ed7a89c383"><path d="M 195.546875 59.511719 C 199.339844 64.878906 206.226562 68.738281 208.941406 69.558594 C 210.207031 70 211.347656 70.253906 212.042969 69.746094 C 212.800781 69.242188 212.671875 66.714844 213.117188 66.464844 C 213.304688 66.335938 213.621094 66.335938 213.746094 66.527344 C 214 66.90625 213.242188 69.621094 212.421875 70.253906 C 211.726562 70.757812 210.777344 70.757812 209.449219 70.441406 C 206.667969 69.808594 199.023438 65.195312 196.871094 63.238281 C 195.859375 62.355469 195.417969 61.53125 195.167969 60.835938 C 194.976562 60.332031 194.789062 59.699219 194.914062 59.574219 C 195.039062 59.449219 195.546875 59.511719 195.546875 59.511719 " clip-rule="nonzero"/></clipPath><clipPath id="9d7ee78ccb"><path d="M 191.109375 61.011719 L 195.773438 61.011719 L 195.773438 62.699219 L 191.109375 62.699219 Z M 191.109375 61.011719 " clip-rule="nonzero"/></clipPath><clipPath id="a35e5e4381"><path d="M 191.121094 61.972656 C 195.796875 61.152344 195.734375 61.660156 195.671875 61.660156 C 195.671875 61.660156 195.609375 61.027344 195.609375 61.027344 C 195.609375 61.027344 195.859375 61.46875 195.734375 61.660156 C 195.417969 62.164062 191.75 62.921875 191.246094 62.605469 C 191.058594 62.480469 191.121094 61.972656 191.121094 61.972656 " clip-rule="nonzero"/></clipPath><clipPath id="24571d5a3f"><path d="M 206.84375 73.019531 L 209.152344 73.019531 L 209.152344 76.023438 L 206.84375 76.023438 Z M 206.84375 73.019531 " clip-rule="nonzero"/></clipPath><clipPath id="890ffc6a77"><path d="M 209.132812 73.351562 C 207.175781 76.066406 206.859375 75.6875 206.859375 75.6875 C 206.859375 75.6875 207.363281 76.003906 207.363281 76.003906 C 207.363281 76.003906 206.921875 75.816406 206.859375 75.625 C 206.796875 75.183594 208.183594 73.097656 208.691406 73.035156 C 208.878906 72.972656 209.132812 73.351562 209.132812 73.351562 " clip-rule="nonzero"/></clipPath><clipPath id="747dcf3422"><path d="M 176.429688 55.804688 L 225.390625 55.804688 L 225.390625 79.773438 L 176.429688 79.773438 Z M 176.429688 55.804688 " clip-rule="nonzero"/></clipPath><clipPath id="b5c388dd7d"><path d="M 176.585938 55.84375 C 183.851562 57.675781 188.402344 60.457031 190.742188 62.101562 C 192.257812 63.113281 193.082031 63.804688 194.15625 65.070312 C 195.417969 66.527344 196.050781 68.800781 197.691406 70.441406 C 199.78125 72.464844 203.382812 74.109375 206.164062 75.625 C 208.691406 76.953125 211.726562 79.289062 213.621094 79.101562 C 214.882812 78.910156 215.894531 77.710938 216.65625 76.761719 C 217.414062 75.816406 217.476562 74.363281 218.171875 73.289062 C 218.992188 72.085938 220.320312 71.453125 221.265625 69.9375 C 222.785156 67.472656 225.25 59.195312 225.3125 59.195312 C 225.441406 59.257812 223.292969 67.535156 221.835938 70.125 C 220.886719 71.769531 219.433594 72.464844 218.675781 73.667969 C 217.984375 74.742188 217.984375 75.941406 217.289062 76.953125 C 216.53125 77.960938 215.578125 79.480469 214.316406 79.671875 C 212.484375 79.988281 209.574219 77.960938 207.109375 76.761719 C 204.265625 75.371094 200.980469 73.855469 198.390625 71.640625 C 195.609375 69.304688 193.964844 65.449219 191.121094 63.113281 C 188.277344 60.710938 183.980469 58.496094 181.261719 57.484375 C 179.492188 56.792969 176.964844 56.980469 176.585938 56.476562 C 176.394531 56.285156 176.585938 55.84375 176.585938 55.84375 " clip-rule="nonzero"/></clipPath><clipPath id="fded2df5d1"><path d="M 216.582031 76.820312 L 221.097656 76.820312 L 221.097656 77.722656 L 216.582031 77.722656 Z M 216.582031 76.820312 " clip-rule="nonzero"/></clipPath><clipPath id="4265a3b70f"><path d="M 216.59375 77.140625 C 220.257812 76.507812 221.015625 77.457031 221.078125 77.394531 C 221.140625 77.332031 220.886719 76.824219 220.886719 76.824219 C 220.886719 76.824219 221.078125 77.332031 220.953125 77.457031 C 220.699219 77.710938 218.742188 76.953125 217.917969 77.078125 C 217.414062 77.140625 216.972656 77.773438 216.71875 77.710938 C 216.59375 77.644531 216.59375 77.140625 216.59375 77.140625 " clip-rule="nonzero"/></clipPath><clipPath id="17b5d7a05f"><path d="M 169.316406 55.878906 L 183.351562 55.878906 L 183.351562 70.542969 L 169.316406 70.542969 Z M 169.316406 55.878906 " clip-rule="nonzero"/></clipPath><clipPath id="fbf695f802"><path d="M 169.316406 58.5625 C 172.222656 56.347656 173.421875 55.96875 174.5 55.90625 C 175.636719 55.84375 176.835938 55.90625 177.976562 56.601562 C 179.679688 57.738281 182.019531 61.660156 182.777344 63.554688 C 183.285156 64.753906 183.410156 65.894531 183.222656 66.589844 C 183.15625 67.03125 183.03125 67.15625 182.714844 67.472656 C 182.019531 68.167969 179.617188 69.496094 178.417969 70 C 177.53125 70.316406 176.332031 70.632812 176.078125 70.441406 C 175.953125 70.378906 176.078125 69.875 176.144531 69.875 C 176.144531 69.875 176.394531 70.441406 176.394531 70.441406 C 176.394531 70.441406 176.015625 70.125 176.015625 69.9375 C 176.269531 69.242188 181.453125 68.421875 182.273438 67.03125 C 182.84375 66.082031 182.527344 64.753906 182.085938 63.492188 C 181.324219 61.46875 178.859375 57.550781 176.964844 56.664062 C 175.574219 56.097656 173.800781 56.539062 172.601562 57.042969 C 171.464844 57.421875 170.203125 59.132812 169.695312 59.066406 C 169.507812 59.066406 169.316406 58.5625 169.316406 58.5625 " clip-rule="nonzero"/></clipPath><clipPath id="45d67e6901"><path d="M 169.53125 59 L 205 59 L 205 99.382812 L 169.53125 99.382812 Z M 169.53125 59 " clip-rule="nonzero"/></clipPath><clipPath id="96448b4ce1"><path d="M 170.203125 59.003906 C 184.484375 83.269531 185.242188 85.101562 187.582031 87.066406 C 190.488281 89.589844 196.304688 91.105469 199.339844 93.386719 C 201.738281 95.152344 205.027344 98.121094 204.964844 98.878906 C 204.964844 99.070312 204.519531 99.257812 204.519531 99.257812 C 204.519531 99.257812 204.964844 98.816406 204.964844 98.878906 C 204.964844 98.878906 204.773438 99.324219 204.648438 99.324219 C 204.265625 99.386719 203.632812 98.691406 202.9375 98.121094 C 201.675781 97.046875 200.097656 94.710938 197.945312 93.195312 C 195.167969 91.171875 190.109375 90.097656 187.265625 87.695312 C 184.738281 85.480469 183.535156 82.890625 181.453125 79.734375 C 178.542969 75.308594 173.800781 67.09375 171.78125 63.425781 C 170.769531 61.660156 169.507812 59.890625 169.695312 59.320312 C 169.761719 59.132812 170.203125 59.003906 170.203125 59.003906 " clip-rule="nonzero"/></clipPath><clipPath id="8a210cd4ea"><path d="M 166.511719 42.421875 L 177.699219 42.421875 L 177.699219 52.445312 L 166.511719 52.445312 Z M 166.511719 42.421875 " clip-rule="nonzero"/></clipPath><clipPath id="827faafcdb"><path d="M 176.902344 42.445312 C 177.847656 46.554688 171.464844 51.230469 169.253906 52.117188 C 168.175781 52.558594 166.597656 52.371094 166.535156 52.242188 C 166.535156 52.050781 168.683594 51.734375 170.011719 50.976562 C 172.160156 49.714844 177.53125 45.859375 177.660156 44.339844 C 177.722656 43.644531 176.269531 43.078125 176.332031 42.761719 C 176.394531 42.574219 176.902344 42.445312 176.902344 42.445312 " clip-rule="nonzero"/></clipPath><clipPath id="327e0cab95"><path d="M 165.476562 64.265625 L 178.65625 64.265625 L 178.65625 87.363281 L 165.476562 87.363281 Z M 165.476562 64.265625 " clip-rule="nonzero"/></clipPath><clipPath id="129d54bbc5"><path d="M 171.71875 64.691406 C 166.15625 81.566406 165.902344 83.335938 166.21875 84.597656 C 166.472656 85.480469 167.039062 86.496094 167.671875 86.6875 C 168.242188 86.9375 168.9375 86.621094 169.695312 86.117188 C 171.277344 85.167969 174.117188 82.070312 175.511719 79.925781 C 176.710938 78.152344 177.40625 74.675781 178.039062 74.488281 C 178.226562 74.488281 178.542969 74.867188 178.542969 74.867188 C 178.542969 74.867188 177.976562 74.550781 178.039062 74.488281 C 178.039062 74.488281 178.480469 74.550781 178.542969 74.742188 C 178.734375 75.058594 178.289062 75.878906 177.976562 76.636719 C 177.46875 77.835938 176.648438 79.480469 175.574219 80.933594 C 174.308594 82.703125 172.222656 85.230469 170.644531 86.242188 C 169.570312 86.9375 168.304688 87.507812 167.480469 87.253906 C 166.789062 87.066406 166.21875 86.117188 165.902344 85.292969 C 165.460938 84.28125 165.460938 82.703125 165.523438 81.503906 C 165.585938 80.429688 165.839844 79.796875 166.21875 78.402344 C 166.976562 75.625 169.824219 67.789062 170.644531 65.703125 C 170.898438 65.007812 170.960938 64.375 171.210938 64.3125 C 171.402344 64.3125 171.71875 64.691406 171.71875 64.691406 " clip-rule="nonzero"/></clipPath><clipPath id="1baa34b948"><path d="M 166.132812 72.949219 L 171.625 72.949219 L 171.625 86.703125 L 166.132812 86.703125 Z M 166.132812 72.949219 " clip-rule="nonzero"/></clipPath><clipPath id="94c387fe5b"><path d="M 169.253906 72.972656 C 172.917969 76.195312 170.769531 80.871094 169.507812 83.019531 C 168.558594 84.597656 166.21875 86.75 166.15625 86.6875 C 166.03125 86.558594 168.429688 83.777344 169.316406 82.007812 C 170.265625 79.988281 171.339844 76.257812 171.527344 75.121094 C 171.589844 74.742188 171.65625 74.613281 171.527344 74.363281 C 171.210938 73.984375 169.066406 73.855469 168.9375 73.476562 C 168.875 73.351562 169.253906 72.972656 169.253906 72.972656 " clip-rule="nonzero"/></clipPath><clipPath id="94a25fd23f"><path d="M 174.738281 80.351562 L 184.113281 80.351562 L 184.113281 90.722656 L 174.738281 90.722656 Z M 174.738281 80.351562 " clip-rule="nonzero"/></clipPath><clipPath id="fe72cb203e"><path d="M 176.144531 80.492188 C 176.078125 89.210938 176.902344 89.90625 177.46875 90.035156 C 177.976562 90.097656 178.417969 89.84375 178.921875 89.527344 C 179.679688 88.960938 180.695312 87.695312 181.390625 86.496094 C 182.273438 85.101562 182.84375 81.691406 183.410156 81.441406 C 183.664062 81.375 184.042969 81.691406 184.042969 81.691406 C 184.042969 81.691406 183.472656 81.375 183.472656 81.375 C 183.472656 81.375 183.980469 81.375 184.042969 81.566406 C 184.292969 82.070312 183.09375 84.976562 182.273438 86.371094 C 181.515625 87.761719 180.375 89.210938 179.425781 89.90625 C 178.734375 90.347656 178.039062 90.792969 177.34375 90.664062 C 176.585938 90.476562 175.574219 89.464844 175.132812 88.328125 C 174.4375 86.558594 174.941406 80.933594 175.511719 80.429688 C 175.699219 80.238281 176.144531 80.492188 176.144531 80.492188 " clip-rule="nonzero"/></clipPath><clipPath id="50583491b7"><path d="M 176.359375 77.894531 L 179 77.894531 L 179 89.730469 L 176.359375 89.730469 Z M 176.359375 77.894531 " clip-rule="nonzero"/></clipPath><clipPath id="ff8fc3b3af"><path d="M 177.214844 77.898438 C 180.058594 81.441406 178.796875 85.292969 178.039062 87.066406 C 177.59375 88.203125 176.585938 89.78125 176.394531 89.71875 C 176.015625 89.589844 179.554688 81.628906 178.921875 79.925781 C 178.605469 79.035156 176.902344 78.785156 176.835938 78.402344 C 176.773438 78.214844 177.214844 77.898438 177.214844 77.898438 " clip-rule="nonzero"/></clipPath><clipPath id="d435bbd6d1"><path d="M 99.960938 44.382812 L 106.832031 44.382812 L 106.832031 84.945312 L 99.960938 84.945312 Z M 99.960938 44.382812 " clip-rule="nonzero"/></clipPath><clipPath id="6acc85fcd1"><path d="M 106.808594 45.988281 C 103.019531 78.089844 103.019531 78.402344 103.273438 79.355469 C 103.585938 80.683594 105.355469 82.828125 105.167969 83.777344 C 104.976562 84.34375 104.21875 84.914062 103.714844 84.914062 C 103.273438 84.976562 102.574219 84.722656 102.382812 84.34375 C 102.195312 83.839844 102.445312 82.511719 102.828125 82.132812 C 103.144531 81.820312 103.839844 81.820312 104.21875 82.007812 C 104.597656 82.132812 105.105469 82.703125 105.167969 83.082031 C 105.230469 83.585938 104.789062 84.535156 104.34375 84.789062 C 103.902344 84.976562 103.082031 84.851562 102.511719 84.472656 C 101.6875 83.839844 100.867188 81.945312 100.425781 80.617188 C 99.984375 79.226562 99.984375 78.339844 99.984375 76.195312 C 100.109375 70.632812 102.574219 49.902344 104.09375 46.113281 C 104.472656 45.101562 104.851562 44.59375 105.355469 44.402344 C 105.671875 44.339844 106.242188 44.59375 106.492188 44.847656 C 106.683594 45.101562 106.808594 45.988281 106.808594 45.988281 " clip-rule="nonzero"/></clipPath><clipPath id="8c462dc563"><path d="M 110.878906 22.058594 L 128.5625 22.058594 L 128.5625 90.933594 L 110.878906 90.933594 Z M 110.878906 22.058594 " clip-rule="nonzero"/></clipPath><clipPath id="2dd910e6d6"><path d="M 111.296875 24.878906 C 113.949219 22.980469 115.722656 21.96875 116.984375 22.097656 C 118.1875 22.222656 119.386719 23.359375 120.398438 24.246094 C 121.472656 25.132812 122.296875 25.890625 123.179688 27.28125 C 124.441406 29.425781 125.640625 32.652344 126.464844 36.316406 C 127.730469 41.75 128.679688 51.671875 128.550781 57.105469 C 128.550781 60.523438 127.667969 62.605469 127.476562 65.511719 C 127.289062 68.609375 127.667969 71.640625 127.351562 75.246094 C 127.035156 79.734375 126.402344 88.832031 125.074219 90.347656 C 124.695312 90.855469 124.125 90.917969 123.683594 90.792969 C 123.242188 90.726562 122.546875 90.097656 122.484375 89.589844 C 122.359375 89.085938 123.054688 88.074219 123.496094 87.824219 C 123.746094 87.695312 124.125 87.695312 124.441406 87.824219 C 124.820312 88.011719 125.390625 88.453125 125.453125 88.898438 C 125.515625 89.339844 125.136719 90.347656 124.757812 90.601562 C 124.441406 90.855469 123.746094 90.855469 123.304688 90.726562 C 122.925781 90.539062 122.546875 89.96875 122.421875 89.527344 C 122.359375 89.148438 122.546875 88.453125 122.925781 88.203125 C 123.304688 87.886719 124.316406 87.761719 124.757812 87.949219 C 125.136719 88.140625 125.515625 88.769531 125.515625 89.210938 C 125.515625 89.65625 125.136719 90.347656 124.757812 90.601562 C 124.441406 90.855469 123.746094 90.917969 123.367188 90.726562 C 122.925781 90.476562 122.609375 90.035156 122.421875 89.210938 C 121.851562 86.558594 124.757812 74.804688 124.820312 70.632812 C 124.882812 68.546875 124.441406 67.726562 124.441406 65.894531 C 124.503906 63.238281 125.515625 59.953125 125.515625 56.160156 C 125.515625 50.722656 124.632812 41.4375 123.496094 36.441406 C 122.738281 33.285156 121.664062 30.5 120.714844 28.796875 C 120.144531 27.847656 119.703125 27.34375 119.070312 26.648438 C 118.3125 26.015625 117.554688 25.003906 116.605469 24.878906 C 115.28125 24.75 112.9375 27.214844 111.992188 27.089844 C 111.488281 26.964844 111.042969 26.394531 110.917969 26.015625 C 110.855469 25.699219 111.296875 24.878906 111.296875 24.878906 " clip-rule="nonzero"/></clipPath><clipPath id="b5f9eb0bc1"><path d="M 120.507812 101.933594 L 122.929688 101.933594 L 122.929688 104 L 120.507812 104 Z M 120.507812 101.933594 " clip-rule="nonzero"/></clipPath><clipPath id="5b8f6851ee"><path d="M 122.925781 102.671875 C 121.851562 104.378906 120.839844 104.0625 120.585938 103.746094 C 120.398438 103.367188 120.585938 102.359375 120.902344 102.042969 C 121.222656 101.789062 122.609375 102.167969 122.609375 102.167969 " clip-rule="nonzero"/></clipPath><clipPath id="fcdb3859ec"><path d="M 119.933594 99.625 L 125 99.625 L 125 130.148438 L 119.933594 130.148438 Z M 119.933594 99.625 " clip-rule="nonzero"/></clipPath><clipPath id="0a7c615677"><path d="M 122.988281 101.09375 C 123.9375 121.757812 125.261719 126.816406 124.949219 128.585938 C 124.820312 129.28125 124.632812 129.59375 124.316406 129.847656 C 124 130.039062 123.621094 130.226562 123.242188 130.101562 C 122.800781 129.972656 121.980469 128.585938 121.914062 128.585938 C 121.851562 128.648438 122.359375 129.785156 122.421875 129.722656 C 122.484375 129.722656 121.914062 128.394531 122.042969 127.953125 C 122.230469 127.574219 122.800781 127.132812 123.179688 127.132812 C 123.683594 127.066406 124.570312 127.574219 124.820312 127.953125 C 125.011719 128.332031 124.949219 129.027344 124.695312 129.40625 C 124.441406 129.785156 123.496094 130.164062 122.988281 130.039062 C 122.609375 129.972656 122.042969 129.46875 121.980469 129.089844 C 121.914062 128.585938 122.609375 127.386719 123.054688 127.132812 C 123.304688 127.003906 123.746094 127.003906 124 127.195312 C 124.378906 127.386719 125.011719 128.144531 124.949219 128.585938 C 124.949219 129.089844 124.125 130.039062 123.621094 130.101562 C 123.179688 130.226562 122.484375 129.910156 122.105469 129.28125 C 120.96875 127.699219 120.902344 121.695312 120.585938 117.398438 C 120.269531 112.339844 119.449219 103.050781 120.398438 100.777344 C 120.714844 100.082031 121.285156 99.640625 121.664062 99.640625 C 122.105469 99.640625 122.988281 101.09375 122.988281 101.09375 " clip-rule="nonzero"/></clipPath><clipPath id="7c24b7147e"><path d="M 98.875 112.066406 L 103.128906 112.066406 L 103.128906 136.050781 L 98.875 136.050781 Z M 98.875 112.066406 " clip-rule="nonzero"/></clipPath><clipPath id="33052098a8"><path d="M 101.5625 113.226562 C 102.953125 124.476562 103.585938 132.25 102.765625 134.460938 C 102.445312 135.347656 101.878906 135.851562 101.4375 135.980469 C 101.058594 136.105469 100.679688 135.914062 100.363281 135.726562 C 100.046875 135.472656 99.667969 134.90625 99.730469 134.460938 C 99.792969 133.957031 100.867188 132.941406 101.375 133.007812 C 101.816406 133.007812 102.699219 134.148438 102.699219 134.652344 C 102.765625 135.09375 102.257812 135.664062 101.941406 135.851562 C 101.5625 136.042969 100.867188 135.980469 100.488281 135.789062 C 100.171875 135.601562 99.792969 135.03125 99.730469 134.652344 C 99.730469 134.210938 99.984375 133.578125 100.300781 133.324219 C 100.613281 133.070312 101.246094 132.941406 101.6875 133.070312 C 102.066406 133.132812 102.574219 133.640625 102.699219 134.019531 C 102.828125 134.460938 102.636719 135.15625 102.382812 135.472656 C 102.066406 135.789062 101.121094 136.105469 100.679688 135.914062 C 100.109375 135.601562 99.730469 134.273438 99.476562 132.878906 C 98.972656 130.289062 100.046875 124.476562 99.921875 120.875 C 99.792969 118.03125 98.46875 114.554688 99.035156 113.164062 C 99.289062 112.53125 99.855469 112.089844 100.300781 112.089844 C 100.742188 112.089844 101.5625 113.226562 101.5625 113.226562 " clip-rule="nonzero"/></clipPath><clipPath id="5556eb0d53"><path d="M 52.296875 75.925781 L 52.597656 75.925781 L 52.597656 76.207031 L 52.296875 76.207031 Z M 52.296875 75.925781 " clip-rule="nonzero"/></clipPath><clipPath id="eed1b3634e"><path d="M 52.582031 76.128906 C 52.011719 76.320312 52.519531 75.941406 52.519531 75.941406 " clip-rule="nonzero"/></clipPath><clipPath id="36ffabb609"><path d="M 119.828125 57.410156 L 125.074219 57.410156 L 125.074219 58.511719 L 119.828125 58.511719 Z M 119.828125 57.410156 " clip-rule="nonzero"/></clipPath><clipPath id="c0baef431b"><path d="M 119.953125 57.421875 C 125.136719 57.867188 124.882812 58.308594 124.882812 58.308594 C 124.882812 58.308594 124.949219 57.738281 125.011719 57.738281 C 125.011719 57.738281 125.136719 58.179688 125.011719 58.308594 C 124.820312 58.5625 123.621094 58.496094 122.863281 58.433594 C 121.914062 58.433594 120.144531 58.433594 119.890625 58.054688 C 119.765625 57.867188 119.953125 57.421875 119.953125 57.421875 " clip-rule="nonzero"/></clipPath><clipPath id="7ae0e300db"><path d="M 114.09375 53.890625 L 124.746094 53.890625 L 124.746094 60.867188 L 114.09375 60.867188 Z M 114.09375 53.890625 " clip-rule="nonzero"/></clipPath><clipPath id="8b6478da59"><path d="M 119.765625 58.179688 C 121.347656 60.015625 121.222656 60.523438 120.902344 60.710938 C 120.144531 61.152344 116.667969 60.457031 115.53125 59.699219 C 114.710938 59.132812 114.203125 58.117188 114.140625 57.359375 C 114.011719 56.726562 114.203125 55.96875 114.644531 55.464844 C 115.40625 54.769531 117.554688 54.582031 119.132812 54.390625 C 120.839844 54.140625 124.0625 53.632812 124.503906 54.074219 C 124.632812 54.265625 124.441406 54.707031 124.503906 54.707031 C 124.570312 54.707031 124.695312 54.140625 124.695312 54.203125 C 124.695312 54.203125 124.757812 54.582031 124.570312 54.707031 C 124 55.148438 120.777344 54.769531 119.070312 55.023438 C 117.554688 55.277344 115.34375 55.339844 114.835938 56.097656 C 114.457031 56.664062 114.835938 57.738281 115.089844 58.308594 C 115.28125 58.6875 115.46875 58.941406 115.910156 59.195312 C 116.796875 59.699219 120.207031 60.585938 120.460938 60.207031 C 120.648438 59.953125 119.195312 58.816406 119.257812 58.496094 C 119.257812 58.308594 119.765625 58.179688 119.765625 58.179688 " clip-rule="nonzero"/></clipPath><clipPath id="b0e7c4807b"><path d="M 124.066406 53.933594 L 124.976562 53.933594 L 124.976562 54.640625 L 124.066406 54.640625 Z M 124.066406 53.933594 " clip-rule="nonzero"/></clipPath><clipPath id="f64a1bfafb"><path d="M 124.125 53.949219 C 125.894531 54.328125 124.316406 54.769531 124.125 54.582031 C 124 54.453125 124.125 53.949219 124.125 53.949219 " clip-rule="nonzero"/></clipPath><clipPath id="94c1dd746b"><path d="M 129.21875 54.640625 L 154.550781 54.640625 L 154.550781 55.53125 L 129.21875 55.53125 Z M 129.21875 54.640625 " clip-rule="nonzero"/></clipPath><clipPath id="25078d4cd2"><path d="M 129.308594 54.644531 C 154.652344 54.644531 154.652344 54.960938 154.527344 55.085938 C 154.273438 55.402344 153.136719 55.339844 152.125 55.402344 C 150.101562 55.402344 146.691406 54.898438 143.464844 54.832031 C 139.359375 54.769531 130.128906 56.035156 129.308594 55.277344 C 129.121094 55.085938 129.308594 54.644531 129.308594 54.644531 " clip-rule="nonzero"/></clipPath><clipPath id="11dbc8709f"><path d="M 155.117188 54.1875 L 167.894531 54.1875 L 167.894531 55.371094 L 155.117188 55.371094 Z M 155.117188 54.1875 " clip-rule="nonzero"/></clipPath><clipPath id="f50f32b2db"><path d="M 155.285156 54.519531 C 167.859375 54.390625 167.734375 54.832031 167.734375 54.832031 C 167.734375 54.832031 167.671875 54.203125 167.671875 54.203125 C 167.671875 54.203125 167.988281 54.644531 167.859375 54.769531 C 167.480469 55.339844 162.871094 55.210938 160.65625 55.210938 C 158.699219 55.277344 155.601562 55.589844 155.15625 55.085938 C 155.03125 54.960938 155.285156 54.519531 155.285156 54.519531 " clip-rule="nonzero"/></clipPath><clipPath id="381e60698b"><path d="M 128.554688 58.488281 L 169.46875 58.488281 L 169.46875 59.988281 L 128.554688 59.988281 Z M 128.554688 58.488281 " clip-rule="nonzero"/></clipPath><clipPath id="15a8300943"><path d="M 128.679688 58.496094 C 165.398438 59.195312 168.621094 58.179688 169.191406 58.625 C 169.382812 58.75 169.316406 59.257812 169.253906 59.257812 C 169.253906 59.257812 169.066406 58.6875 169.066406 58.625 C 169.128906 58.625 169.507812 58.878906 169.445312 59.003906 C 169.445312 59.257812 167.734375 59.636719 166.660156 59.828125 C 165.335938 60.015625 164.324219 59.890625 162.238281 59.953125 C 156.738281 60.015625 138.410156 59.953125 132.976562 59.636719 C 130.824219 59.511719 128.929688 59.574219 128.613281 59.132812 C 128.488281 58.941406 128.679688 58.496094 128.679688 58.496094 " clip-rule="nonzero"/></clipPath><clipPath id="70b7580b1b"><path d="M 166.773438 54.375 L 170.542969 54.375 L 170.542969 55.417969 L 166.773438 55.417969 Z M 166.773438 54.375 " clip-rule="nonzero"/></clipPath><clipPath id="0ba5d2bbbf"><path d="M 167.167969 54.390625 C 170.582031 54.519531 170.328125 54.960938 170.328125 54.960938 C 170.328125 54.960938 170.519531 54.390625 170.519531 54.390625 C 170.519531 54.390625 170.582031 54.832031 170.453125 54.960938 C 170.203125 55.277344 168.9375 55.402344 168.242188 55.402344 C 167.734375 55.339844 166.851562 55.085938 166.789062 54.898438 C 166.722656 54.769531 167.167969 54.390625 167.167969 54.390625 " clip-rule="nonzero"/></clipPath><clipPath id="4dc32186a2"><path d="M 177.847656 52.429688 L 264 52.429688 L 264 54.863281 L 177.847656 54.863281 Z M 177.847656 52.429688 " clip-rule="nonzero"/></clipPath><clipPath id="01625d7823"><path d="M 177.910156 54.074219 C 196.746094 52.621094 226.957031 53.632812 240.671875 53.570312 C 249.015625 53.507812 257.039062 53.570312 260.769531 53.128906 C 262.222656 53 263.421875 52.242188 263.804688 52.496094 C 263.992188 52.621094 263.992188 53.066406 263.929688 53.066406 C 263.929688 53.066406 263.738281 52.496094 263.738281 52.496094 C 263.738281 52.496094 264.058594 52.9375 263.992188 53.066406 C 263.804688 53.445312 262.726562 53.570312 261.148438 53.761719 C 254.324219 54.519531 218.929688 54.453125 205.28125 54.328125 C 197.375 54.265625 191.5625 53.570312 186.507812 53.761719 C 183.09375 53.949219 178.605469 55.277344 177.976562 54.707031 C 177.785156 54.582031 177.910156 54.074219 177.910156 54.074219 " clip-rule="nonzero"/></clipPath><clipPath id="78b5134156"><path d="M 185.605469 57.3125 L 264.027344 57.3125 L 264.027344 59.738281 L 185.605469 59.738281 Z M 185.605469 57.3125 " clip-rule="nonzero"/></clipPath><clipPath id="4256411898"><path d="M 185.9375 58.75 C 231.632812 57.675781 241.9375 58.496094 249.644531 58.371094 C 255.207031 58.246094 262.980469 56.792969 263.804688 57.550781 C 263.992188 57.738281 263.804688 58.179688 263.804688 58.179688 C 263.804688 58.179688 263.867188 57.550781 263.867188 57.550781 C 263.929688 57.550781 264.058594 57.992188 263.992188 58.179688 C 263.738281 58.433594 262.917969 58.371094 261.96875 58.433594 C 259.632812 58.6875 254.574219 58.941406 249.644531 59.003906 C 242.316406 59.066406 231.824219 58.246094 222.027344 58.308594 C 210.96875 58.371094 190.171875 60.144531 186.699219 59.636719 C 186.0625 59.511719 185.683594 59.449219 185.621094 59.257812 C 185.558594 59.132812 185.9375 58.75 185.9375 58.75 " clip-rule="nonzero"/></clipPath><clipPath id="2af257d398"><path d="M 127.644531 37.308594 L 146 37.308594 L 146 55 L 127.644531 55 Z M 127.644531 37.308594 " clip-rule="nonzero"/></clipPath><clipPath id="44ea37ea1a"><path d="M 141.621094 57.730469 L 127.105469 39.394531 L 134.539062 33.511719 L 149.050781 51.847656 Z M 141.621094 57.730469 " clip-rule="nonzero"/></clipPath><clipPath id="9e369a8ea7"><path d="M 148.828125 52.027344 L 134.316406 33.691406 L 126.882812 39.574219 L 141.394531 57.90625 Z M 148.828125 52.027344 " clip-rule="nonzero"/></clipPath><clipPath id="8b72ac8b71"><path d="M 148.828125 52.027344 L 134.316406 33.691406 L 126.882812 39.574219 L 141.394531 57.90625 Z M 148.828125 52.027344 " clip-rule="nonzero"/></clipPath><clipPath id="cf6ed4e751"><path d="M 110.503906 59.570312 L 145.152344 59.570312 L 145.152344 76.300781 L 110.503906 76.300781 Z M 110.503906 59.570312 " clip-rule="nonzero"/></clipPath><clipPath id="65740bd5ab"><path d="M 145.078125 59.765625 C 144.824219 62.164062 143.625 63.996094 142.679688 65.511719 C 141.476562 67.347656 139.832031 69.621094 138.316406 71.011719 C 137.117188 72.148438 136.105469 72.78125 134.585938 73.539062 C 132.5625 74.550781 129.785156 76.128906 127.128906 76.257812 C 124.222656 76.445312 119.988281 75.183594 117.710938 74.109375 C 116.195312 73.351562 115.308594 72.464844 114.425781 71.453125 C 113.667969 70.632812 113.289062 69.242188 112.65625 68.671875 C 112.214844 68.292969 111.390625 68.359375 111.199219 68.042969 C 111.011719 67.726562 111.390625 67.03125 111.199219 66.84375 C 111.136719 66.714844 110.632812 66.90625 110.632812 66.90625 C 110.570312 66.84375 111.136719 66.652344 111.136719 66.652344 C 111.136719 66.652344 110.632812 66.714844 110.570312 66.777344 C 110.570312 67.03125 111.898438 67.347656 112.59375 67.980469 C 113.792969 68.988281 114.804688 71.515625 116.699219 72.78125 C 118.976562 74.363281 122.828125 76.003906 125.867188 75.941406 C 128.960938 75.941406 132.878906 73.984375 135.089844 72.71875 C 136.484375 71.957031 137.117188 71.328125 138.191406 70.253906 C 139.707031 68.738281 141.792969 65.957031 142.929688 64.183594 C 143.75 62.921875 144.636719 61.722656 144.699219 60.835938 C 144.824219 60.332031 144.320312 59.765625 144.445312 59.636719 C 144.574219 59.574219 145.078125 59.765625 145.078125 59.765625 " clip-rule="nonzero"/></clipPath><clipPath id="0165c5b6aa"><path d="M 122.214844 88.472656 L 124.78125 88.472656 L 124.78125 91.996094 L 122.214844 91.996094 Z M 122.214844 88.472656 " clip-rule="nonzero"/></clipPath><clipPath id="4bb8ab4edd"><path d="M 124.757812 89.78125 C 124.503906 91.484375 124.125 91.863281 123.8125 91.929688 C 123.496094 92.054688 122.925781 91.929688 122.675781 91.675781 C 122.359375 91.421875 122.167969 90.539062 122.296875 90.160156 C 122.421875 89.84375 122.925781 89.527344 123.242188 89.464844 C 123.621094 89.402344 124.191406 89.589844 124.378906 89.84375 C 124.632812 90.097656 124.820312 90.664062 124.695312 90.980469 C 124.632812 91.359375 124.253906 91.738281 123.9375 91.929688 C 123.621094 92.054688 123.054688 91.992188 122.738281 91.738281 C 122.484375 91.550781 122.230469 91.105469 122.230469 90.726562 C 122.167969 90.160156 122.609375 88.832031 123.054688 88.582031 C 123.304688 88.390625 123.9375 88.519531 124.191406 88.707031 C 124.503906 88.898438 124.757812 89.78125 124.757812 89.78125 " clip-rule="nonzero"/></clipPath><clipPath id="e7a29b4847"><path d="M 120.695312 99.21875 L 123.0625 99.21875 L 123.0625 101.269531 L 120.695312 101.269531 Z M 120.695312 99.21875 " clip-rule="nonzero"/></clipPath><clipPath id="fdcdb52f47"><path d="M 123.054688 99.957031 C 122.042969 101.664062 121.03125 101.347656 120.777344 100.96875 C 120.585938 100.589844 120.777344 99.578125 121.09375 99.324219 C 121.410156 99.070312 122.800781 99.386719 122.800781 99.386719 " clip-rule="nonzero"/></clipPath><clipPath id="9bd8620a98"><path d="M 121.328125 98.582031 L 123.75 98.582031 L 123.75 100.609375 L 121.328125 100.609375 Z M 121.328125 98.582031 " clip-rule="nonzero"/></clipPath><clipPath id="0aaf2ca320"><path d="M 123.746094 99.324219 C 122.675781 100.96875 121.664062 100.652344 121.410156 100.335938 C 121.222656 99.957031 121.410156 98.941406 121.726562 98.691406 C 122.042969 98.4375 123.433594 98.753906 123.433594 98.753906 " clip-rule="nonzero"/></clipPath></defs><g clip-path="url(#08469fed1c)"><g clip-path="url(#5e8080d701)"><path fill="#000000" d="M 39.5625 37.957031 L 79.402344 37.957031 L 79.402344 69.242188 L 39.5625 69.242188 Z M 39.5625 37.957031 " fill-opacity="1" fill-rule="nonzero"/></g></g><g clip-path="url(#a8f486c3ea)"><g clip-path="url(#3fb50ec844)"><path fill="#000000" d="M 73.628906 27.214844 L 102.460938 27.214844 L 102.460938 43.332031 L 73.628906 43.332031 Z M 73.628906 27.214844 " fill-opacity="1" fill-rule="nonzero"/></g></g><g clip-path="url(#47fb5e3db9)"><g clip-path="url(#ac0c25a469)"><path fill="#000000" d="M 95.875 23.867188 L 114.316406 23.867188 L 114.316406 33.601562 L 95.875 33.601562 Z M 95.875 23.867188 " fill-opacity="1" fill-rule="nonzero"/></g></g><g clip-path="url(#7ee287b03b)"><g clip-path="url(#e0a2b1dec9)"><path fill="#000000" d="M 108.957031 23.105469 L 118.261719 23.105469 L 118.261719 29.492188 L 108.957031 29.492188 Z M 108.957031 23.105469 " fill-opacity="1" fill-rule="nonzero"/></g></g><g clip-path="url(#2bbe683af3)"><g clip-path="url(#0fc8b56997)"><path fill="#000000" d="M 120.332031 21.589844 L 137.214844 21.589844 L 137.214844 37.894531 L 120.332031 37.894531 Z M 120.332031 21.589844 " fill-opacity="1" fill-rule="nonzero"/></g></g><g clip-path="url(#a968c3e59e)"><g clip-path="url(#45db88e7c4)"><path fill="#000000" d="M 119.953125 22.539062 L 135.6875 22.539062 L 135.6875 31.449219 L 119.953125 31.449219 Z M 119.953125 22.539062 " fill-opacity="1" fill-rule="nonzero"/></g></g><g clip-path="url(#b84d5b0215)"><g clip-path="url(#e3eaef4188)"><path fill="#000000" d="M 120.207031 21.464844 L 126.335938 21.464844 L 126.335938 27.714844 L 120.207031 27.714844 Z M 120.207031 21.464844 " fill-opacity="1" fill-rule="nonzero"/></g></g><g clip-path="url(#a1e1f877de)"><g clip-path="url(#ead2fb3e85)"><path fill="#000000" d="M 129.058594 22.855469 L 136.464844 22.855469 L 136.464844 29.554688 L 129.058594 29.554688 Z M 129.058594 22.855469 " fill-opacity="1" fill-rule="nonzero"/></g></g><g clip-path="url(#b184fda690)"><g clip-path="url(#325ae41a5b)"><path fill="#000000" d="M 128.867188 23.234375 L 136.316406 23.234375 L 136.316406 29.996094 L 128.867188 29.996094 Z M 128.867188 23.234375 " fill-opacity="1" fill-rule="nonzero"/></g></g><g clip-path="url(#8dca61e062)"><g clip-path="url(#6e2d2b0c92)"><path fill="#000000" d="M 109.339844 34.042969 L 125.707031 34.042969 L 125.707031 42.824219 L 109.339844 42.824219 Z M 109.339844 34.042969 " fill-opacity="1" fill-rule="nonzero"/></g></g><g clip-path="url(#9814fd2e52)"><g clip-path="url(#b4d785a8af)"><path fill="#000000" d="M 91.957031 43.332031 L 105.671875 43.332031 L 105.671875 51.417969 L 91.957031 51.417969 Z M 91.957031 43.332031 " fill-opacity="1" fill-rule="nonzero"/></g></g><g clip-path="url(#86e7807e23)"><g clip-path="url(#0149d3b05f)"><path fill="#000000" d="M 98.71875 37.136719 L 116.492188 37.136719 L 116.492188 48.957031 L 98.71875 48.957031 Z M 98.71875 37.136719 " fill-opacity="1" fill-rule="nonzero"/></g></g><g clip-path="url(#5619aa40de)"><g clip-path="url(#f1c9b8fac9)"><path fill="#000000" d="M 76.726562 58.371094 L 86.648438 58.371094 L 86.648438 64.375 L 76.726562 64.375 Z M 76.726562 58.371094 " fill-opacity="1" fill-rule="nonzero"/></g></g><g clip-path="url(#0fa79bdbda)"><g clip-path="url(#56fb061251)"><path fill="#000000" d="M 71.101562 46.304688 L 99.351562 46.304688 L 99.351562 96.398438 L 71.101562 96.398438 Z M 71.101562 46.304688 " fill-opacity="1" fill-rule="nonzero"/></g></g><g clip-path="url(#5a19da3ae7)"><g clip-path="url(#0ae6035415)"><path fill="#000000" d="M 89.617188 51.292969 L 104.46875 51.292969 L 104.46875 59.003906 L 89.617188 59.003906 Z M 89.617188 51.292969 " fill-opacity="1" fill-rule="nonzero"/></g></g><g clip-path="url(#e1e3d92f8b)"><g clip-path="url(#6a866b78f7)"><path fill="#000000" d="M 103.019531 54.140625 L 127.066406 54.140625 L 127.066406 70.253906 L 103.019531 70.253906 Z M 103.019531 54.140625 " fill-opacity="1" fill-rule="nonzero"/></g></g><g clip-path="url(#504304aeb5)"><g clip-path="url(#774b0257a8)"><path fill="#000000" d="M 82.917969 62.605469 L 92.589844 62.605469 L 92.589844 72.65625 L 82.917969 72.65625 Z M 82.917969 62.605469 " fill-opacity="1" fill-rule="nonzero"/></g></g><g clip-path="url(#d3d208a28c)"><g clip-path="url(#6bb25e1333)"><path fill="#000000" d="M 87.21875 67.472656 L 103.082031 67.472656 L 103.082031 74.109375 L 87.21875 74.109375 Z M 87.21875 67.472656 " fill-opacity="1" fill-rule="nonzero"/></g></g><g clip-path="url(#817e702b24)"><g clip-path="url(#f619047f99)"><path fill="#000000" d="M 101.878906 65.894531 L 108.828125 65.894531 L 108.828125 72.65625 L 101.878906 72.65625 Z M 101.878906 65.894531 " fill-opacity="1" fill-rule="nonzero"/></g></g><g clip-path="url(#e0ac4d01c9)"><g clip-path="url(#d83aaa59d7)"><path fill="#000000" d="M 103.207031 63.679688 L 120.542969 63.679688 L 120.542969 80.304688 L 103.207031 80.304688 Z M 103.207031 63.679688 " fill-opacity="1" fill-rule="nonzero"/></g></g><g clip-path="url(#462b04f196)"><g clip-path="url(#13218f462d)"><path fill="#000000" d="M 113.761719 73.539062 L 124.0625 73.539062 L 124.0625 93.335938 L 113.761719 93.335938 Z M 113.761719 73.539062 " fill-opacity="1" fill-rule="nonzero"/></g></g><g clip-path="url(#656c1c7221)"><g clip-path="url(#eed06f7cb5)"><path fill="#000000" d="M 121.664062 73.476562 L 133.230469 73.476562 L 133.230469 98.863281 L 121.664062 98.863281 Z M 121.664062 73.476562 " fill-opacity="1" fill-rule="nonzero"/></g></g><g clip-path="url(#d6a04e1774)"><g clip-path="url(#ba41eb2fbf)"><path fill="#000000" d="M 124.570312 80.175781 L 131.960938 80.175781 L 131.960938 96.554688 L 124.570312 96.554688 Z M 124.570312 80.175781 " fill-opacity="1" fill-rule="nonzero"/></g></g><g clip-path="url(#b589d206d4)"><g clip-path="url(#96830008e7)"><path fill="#000000" d="M 85.953125 72.464844 L 93.917969 72.464844 L 93.917969 83.136719 L 85.953125 83.136719 Z M 85.953125 72.464844 " fill-opacity="1" fill-rule="nonzero"/></g></g><g clip-path="url(#71b2d8aee1)"><g clip-path="url(#6c68ac01b3)"><path fill="#000000" d="M 88.859375 78.277344 L 102.574219 78.277344 L 102.574219 85.355469 L 88.859375 85.355469 Z M 88.859375 78.277344 " fill-opacity="1" fill-rule="nonzero"/></g></g><g clip-path="url(#bd5126f01f)"><g clip-path="url(#0d3177e5a3)"><path fill="#000000" d="M 101.878906 75.625 L 115.46875 75.625 L 115.46875 92.394531 L 101.878906 92.394531 Z M 101.878906 75.625 " fill-opacity="1" fill-rule="nonzero"/></g></g><g clip-path="url(#0fa15166a0)"><g clip-path="url(#58e345a94c)"><path fill="#000000" d="M 88.355469 82.132812 L 94.863281 82.132812 L 94.863281 91.617188 L 88.355469 91.617188 Z M 88.355469 82.132812 " fill-opacity="1" fill-rule="nonzero"/></g></g><g clip-path="url(#cd78b31108)"><g clip-path="url(#b4bbebc5a4)"><path fill="#000000" d="M 90.691406 88.390625 L 99.804688 88.390625 L 99.804688 96.164062 L 90.691406 96.164062 Z M 90.691406 88.390625 " fill-opacity="1" fill-rule="nonzero"/></g></g><g clip-path="url(#54fe4543fb)"><g clip-path="url(#301ddfe6cb)"><path fill="#000000" d="M 60.480469 89.023438 L 78.667969 89.023438 L 78.667969 97.804688 L 60.480469 97.804688 Z M 60.480469 89.023438 " fill-opacity="1" fill-rule="nonzero"/></g></g><g clip-path="url(#786b947c97)"><g clip-path="url(#6d1fa288fe)"><path fill="#000000" d="M 69.015625 87.507812 L 125.136719 87.507812 L 125.136719 98.816406 L 69.015625 98.816406 Z M 69.015625 87.507812 " fill-opacity="1" fill-rule="nonzero"/></g></g><g clip-path="url(#20662f4798)"><g clip-path="url(#28a82a69d4)"><path fill="#000000" d="M 106.554688 89.148438 L 128.0625 89.148438 L 128.0625 106.910156 L 106.554688 106.910156 Z M 106.554688 89.148438 " fill-opacity="1" fill-rule="nonzero"/></g></g><g clip-path="url(#9801dd310f)"><g clip-path="url(#9f9767a37f)"><path fill="#000000" d="M 49.105469 100.652344 L 116.984375 100.652344 L 116.984375 134.589844 L 49.105469 134.589844 Z M 49.105469 100.652344 " fill-opacity="1" fill-rule="nonzero"/></g></g><g clip-path="url(#72fa41f4e4)"><g clip-path="url(#fb25d080ff)"><path fill="#000000" d="M 101.753906 102.042969 L 122.730469 102.042969 L 122.730469 119.417969 L 101.753906 119.417969 Z M 101.753906 102.042969 " fill-opacity="1" fill-rule="nonzero"/></g></g><g clip-path="url(#9bc9eb4e59)"><g clip-path="url(#f1f617820f)"><path fill="#000000" d="M 102.828125 104.503906 L 118.941406 104.503906 L 118.941406 118.03125 L 102.828125 118.03125 Z M 102.828125 104.503906 " fill-opacity="1" fill-rule="nonzero"/></g></g><g clip-path="url(#2d0f1627ee)"><g clip-path="url(#b64cc1d5d3)"><path fill="#000000" d="M 145.933594 43.898438 L 151.621094 43.898438 L 151.621094 49.585938 L 145.933594 49.585938 Z M 145.933594 43.898438 " fill-opacity="1" fill-rule="nonzero"/></g></g><g clip-path="url(#de21ed391e)"><g clip-path="url(#5a3f8582d6)"><path fill="#000000" d="M 146.3125 31.257812 L 188.621094 31.257812 L 188.621094 49.523438 L 146.3125 49.523438 Z M 146.3125 31.257812 " fill-opacity="1" fill-rule="nonzero"/></g></g><g clip-path="url(#015db7fdbc)"><g clip-path="url(#1df157aeb0)"><path fill="#000000" d="M 142.519531 48.261719 L 148.269531 48.261719 L 148.269531 53.632812 L 142.519531 53.632812 Z M 142.519531 48.261719 " fill-opacity="1" fill-rule="nonzero"/></g></g><g clip-path="url(#74a9a836a0)"><g clip-path="url(#b355bf8b16)"><path fill="#000000" d="M 142.769531 41.308594 L 173.367188 41.308594 L 173.367188 56.664062 L 142.769531 56.664062 Z M 142.769531 41.308594 " fill-opacity="1" fill-rule="nonzero"/></g></g><g clip-path="url(#a827ad6753)"><g clip-path="url(#3057353e8a)"><path fill="#000000" d="M 145.933594 41.148438 L 158.066406 41.148438 L 158.066406 53.804688 L 145.933594 53.804688 Z M 145.933594 41.148438 " fill-opacity="1" fill-rule="nonzero"/></g></g><g clip-path="url(#23ba526b31)"><g clip-path="url(#6dbea4786d)"><path fill="#000000" d="M 144.667969 48.199219 L 151.492188 48.199219 L 151.492188 54.328125 L 144.667969 54.328125 Z M 144.667969 48.199219 " fill-opacity="1" fill-rule="nonzero"/></g></g><g clip-path="url(#dcfd09e3df)"><g clip-path="url(#4c4f75d148)"><path fill="#000000" d="M 163.753906 30.4375 L 189.847656 30.4375 L 189.847656 55.085938 L 163.753906 55.085938 Z M 163.753906 30.4375 " fill-opacity="1" fill-rule="nonzero"/></g></g><g clip-path="url(#18aceb2b36)"><g clip-path="url(#f657ce13e2)"><path fill="#000000" d="M 163.753906 37.957031 L 199.648438 37.957031 L 199.648438 56.980469 L 163.753906 56.980469 Z M 163.753906 37.957031 " fill-opacity="1" fill-rule="nonzero"/></g></g><g clip-path="url(#8b23807fbe)"><g clip-path="url(#2cc9227721)"><path fill="#000000" d="M 193.964844 37.640625 L 217.992188 37.640625 L 217.992188 47.375 L 193.964844 47.375 Z M 193.964844 37.640625 " fill-opacity="1" fill-rule="nonzero"/></g></g><g clip-path="url(#c6c70a00ee)"><g clip-path="url(#8a2b2f30c2)"><path fill="#000000" d="M 212.484375 41.058594 L 225.3125 41.058594 L 225.3125 55.890625 L 212.484375 55.890625 Z M 212.484375 41.058594 " fill-opacity="1" fill-rule="nonzero"/></g></g><g clip-path="url(#3034a2f5b7)"><g clip-path="url(#ceb0ea1c85)"><path fill="#000000" d="M 182.464844 23.234375 L 251.035156 23.234375 L 251.035156 55.148438 L 182.464844 55.148438 Z M 182.464844 23.234375 " fill-opacity="1" fill-rule="nonzero"/></g></g><g clip-path="url(#80a1855e22)"><g clip-path="url(#74807ed1cb)"><path fill="#000000" d="M 244.652344 45.925781 L 254.765625 45.925781 L 254.765625 54.582031 L 244.652344 54.582031 Z M 244.652344 45.925781 " fill-opacity="1" fill-rule="nonzero"/></g></g><g clip-path="url(#569bd12cbf)"><g clip-path="url(#44d37cf234)"><path fill="#000000" d="M 188.972656 44.214844 L 206.28125 44.214844 L 206.28125 53.507812 L 188.972656 53.507812 Z M 188.972656 44.214844 " fill-opacity="1" fill-rule="nonzero"/></g></g><g clip-path="url(#874ff445ed)"><g clip-path="url(#b8387efda8)"><path fill="#000000" d="M 199.84375 48.132812 L 208.816406 48.132812 L 208.816406 56.222656 L 199.84375 56.222656 Z M 199.84375 48.132812 " fill-opacity="1" fill-rule="nonzero"/></g></g><g clip-path="url(#db224e45d8)"><g clip-path="url(#24c89bd57b)"><path fill="#000000" d="M 208.5 55.84375 L 222.480469 55.84375 L 222.480469 65.703125 L 208.5 65.703125 Z M 208.5 55.84375 " fill-opacity="1" fill-rule="nonzero"/></g></g><g clip-path="url(#d2c33df977)"><g clip-path="url(#ed7a89c383)"><path fill="#000000" d="M 192.386719 56.980469 L 216.246094 56.980469 L 216.246094 72.972656 L 192.386719 72.972656 Z M 192.386719 56.980469 " fill-opacity="1" fill-rule="nonzero"/></g></g><g clip-path="url(#9d7ee78ccb)"><g clip-path="url(#a35e5e4381)"><path fill="#000000" d="M 188.59375 58.496094 L 198.3125 58.496094 L 198.3125 65.132812 L 188.59375 65.132812 Z M 188.59375 58.496094 " fill-opacity="1" fill-rule="nonzero"/></g></g><g clip-path="url(#24571d5a3f)"><g clip-path="url(#890ffc6a77)"><path fill="#000000" d="M 204.332031 70.503906 L 211.726562 70.503906 L 211.726562 78.59375 L 204.332031 78.59375 Z M 204.332031 70.503906 " fill-opacity="1" fill-rule="nonzero"/></g></g><g clip-path="url(#747dcf3422)"><g clip-path="url(#b5c388dd7d)"><path fill="#000000" d="M 174.054688 53.316406 L 227.878906 53.316406 L 227.878906 82.261719 L 174.054688 82.261719 Z M 174.054688 53.316406 " fill-opacity="1" fill-rule="nonzero"/></g></g><g clip-path="url(#fded2df5d1)"><g clip-path="url(#4265a3b70f)"><path fill="#000000" d="M 214.0625 73.855469 L 223.664062 73.855469 L 223.664062 80.238281 L 214.0625 80.238281 Z M 214.0625 73.855469 " fill-opacity="1" fill-rule="nonzero"/></g></g><g clip-path="url(#17b5d7a05f)"><g clip-path="url(#fbf695f802)"><path fill="#000000" d="M 166.789062 53.378906 L 185.808594 53.378906 L 185.808594 73.070312 L 166.789062 73.070312 Z M 166.789062 53.378906 " fill-opacity="1" fill-rule="nonzero"/></g></g><g clip-path="url(#45d67e6901)"><g clip-path="url(#96448b4ce1)"><path fill="#000000" d="M 167.167969 56.476562 L 207.554688 56.476562 L 207.554688 101.90625 L 167.167969 101.90625 Z M 167.167969 56.476562 " fill-opacity="1" fill-rule="nonzero"/></g></g><g clip-path="url(#8a210cd4ea)"><g clip-path="url(#827faafcdb)"><path fill="#000000" d="M 164.007812 39.917969 L 180.730469 39.917969 L 180.730469 54.832031 L 164.007812 54.832031 Z M 164.007812 39.917969 " fill-opacity="1" fill-rule="nonzero"/></g></g><g clip-path="url(#327e0cab95)"><g clip-path="url(#129d54bbc5)"><path fill="#000000" d="M 162.996094 61.785156 L 181.136719 61.785156 L 181.136719 89.839844 L 162.996094 89.839844 Z M 162.996094 61.785156 " fill-opacity="1" fill-rule="nonzero"/></g></g><g clip-path="url(#1baa34b948)"><g clip-path="url(#94c387fe5b)"><path fill="#000000" d="M 163.628906 70.441406 L 174.878906 70.441406 L 174.878906 89.203125 L 163.628906 89.203125 Z M 163.628906 70.441406 " fill-opacity="1" fill-rule="nonzero"/></g></g><g clip-path="url(#94a25fd23f)"><g clip-path="url(#fe72cb203e)"><path fill="#000000" d="M 172.601562 77.898438 L 186.636719 77.898438 L 186.636719 93.246094 L 172.601562 93.246094 Z M 172.601562 77.898438 " fill-opacity="1" fill-rule="nonzero"/></g></g><g clip-path="url(#50583491b7)"><g clip-path="url(#ff8fc3b3af)"><path fill="#000000" d="M 173.867188 75.371094 L 182.148438 75.371094 L 182.148438 92.253906 L 173.867188 92.253906 Z M 173.867188 75.371094 " fill-opacity="1" fill-rule="nonzero"/></g></g><g clip-path="url(#d435bbd6d1)"><g clip-path="url(#6acc85fcd1)"><path fill="#e7191f" d="M 97.457031 41.878906 L 109.339844 41.878906 L 109.339844 87.5 L 97.457031 87.5 Z M 97.457031 41.878906 " fill-opacity="1" fill-rule="nonzero"/></g></g><g clip-path="url(#8c462dc563)"><g clip-path="url(#2dd910e6d6)"><path fill="#e7191f" d="M 108.386719 19.570312 L 131.140625 19.570312 L 131.140625 93.421875 L 108.386719 93.421875 Z M 108.386719 19.570312 " fill-opacity="1" fill-rule="nonzero"/></g></g><g clip-path="url(#b5f9eb0bc1)"><g clip-path="url(#5b8f6851ee)"><path fill="#e7191f" d="M 118.058594 99.511719 L 125.460938 99.511719 L 125.460938 106.71875 L 118.058594 106.71875 Z M 118.058594 99.511719 " fill-opacity="1" fill-rule="nonzero"/></g></g><g clip-path="url(#fcdb3859ec)"><g clip-path="url(#0a7c615677)"><path fill="#e7191f" d="M 117.871094 97.113281 L 127.476562 97.113281 L 127.476562 132.683594 L 117.871094 132.683594 Z M 117.871094 97.113281 " fill-opacity="1" fill-rule="nonzero"/></g></g><g clip-path="url(#7c24b7147e)"><g clip-path="url(#33052098a8)"><path fill="#e7191f" d="M 96.507812 109.5625 L 105.292969 109.5625 L 105.292969 138.558594 L 96.507812 138.558594 Z M 96.507812 109.5625 " fill-opacity="1" fill-rule="nonzero"/></g></g><g clip-path="url(#5556eb0d53)"><g clip-path="url(#eed1b3634e)"><path fill="#0adb57" d="M 49.484375 73.414062 L 55.175781 73.414062 L 55.175781 78.910156 L 49.484375 78.910156 Z M 49.484375 73.414062 " fill-opacity="1" fill-rule="nonzero"/></g></g><g clip-path="url(#36ffabb609)"><g clip-path="url(#c0baef431b)"><path fill="#07891c" d="M 117.363281 54.898438 L 127.613281 54.898438 L 127.613281 61.027344 L 117.363281 61.027344 Z M 117.363281 54.898438 " fill-opacity="1" fill-rule="nonzero"/></g></g><g clip-path="url(#7ae0e300db)"><g clip-path="url(#8b6478da59)"><path fill="#07891c" d="M 111.613281 51.546875 L 127.269531 51.546875 L 127.269531 63.300781 L 111.613281 63.300781 Z M 111.613281 51.546875 " fill-opacity="1" fill-rule="nonzero"/></g></g><g clip-path="url(#b0e7c4807b)"><g clip-path="url(#f64a1bfafb)"><path fill="#07891c" d="M 121.601562 51.417969 L 128.488281 51.417969 L 128.488281 57.105469 L 121.601562 57.105469 Z M 121.601562 51.417969 " fill-opacity="1" fill-rule="nonzero"/></g></g><g clip-path="url(#94c1dd746b)"><g clip-path="url(#25078d4cd2)"><path fill="#07891c" d="M 126.78125 51.988281 L 157.105469 51.988281 L 157.105469 57.992188 L 126.78125 57.992188 Z M 126.78125 51.988281 " fill-opacity="1" fill-rule="nonzero"/></g></g><g clip-path="url(#11dbc8709f)"><g clip-path="url(#f50f32b2db)"><path fill="#07891c" d="M 152.632812 51.671875 L 170.382812 51.671875 L 170.382812 57.738281 L 152.632812 57.738281 Z M 152.632812 51.671875 " fill-opacity="1" fill-rule="nonzero"/></g></g><g clip-path="url(#381e60698b)"><g clip-path="url(#15a8300943)"><path fill="#07891c" d="M 126.085938 55.96875 L 172.035156 55.96875 L 172.035156 62.480469 L 126.085938 62.480469 Z M 126.085938 55.96875 " fill-opacity="1" fill-rule="nonzero"/></g></g><g clip-path="url(#70b7580b1b)"><g clip-path="url(#0ba5d2bbbf)"><path fill="#07891c" d="M 164.261719 51.863281 L 173.054688 51.863281 L 173.054688 57.929688 L 164.261719 57.929688 Z M 164.261719 51.863281 " fill-opacity="1" fill-rule="nonzero"/></g></g><g clip-path="url(#4dc32186a2)"><g clip-path="url(#01625d7823)"><path fill="#07891c" d="M 175.386719 49.964844 L 266.507812 49.964844 L 266.507812 57.296875 L 175.386719 57.296875 Z M 175.386719 49.964844 " fill-opacity="1" fill-rule="nonzero"/></g></g><g clip-path="url(#78b5134156)"><g clip-path="url(#4256411898)"><path fill="#07891c" d="M 183.09375 55.023438 L 266.507812 55.023438 L 266.507812 62.164062 L 183.09375 62.164062 Z M 183.09375 55.023438 " fill-opacity="1" fill-rule="nonzero"/></g></g><g clip-path="url(#2af257d398)"><g clip-path="url(#44ea37ea1a)"><g clip-path="url(#9e369a8ea7)"><g clip-path="url(#8b72ac8b71)"><path fill="#000000" d="M 128.679688 38.152344 C 128.875 38.761719 128.554688 39.375 128.179688 39.945312 L 128.175781 39.957031 C 128.082031 40.105469 127.984375 40.230469 127.882812 40.375 C 127.835938 40.449219 127.78125 40.519531 127.726562 40.589844 L 128.109375 41.109375 C 128.320312 41.027344 128.535156 40.980469 128.757812 40.972656 C 129.355469 40.953125 129.8125 41.296875 130 41.859375 L 130.644531 41.625 C 130.4375 41.027344 129.976562 40.535156 129.367188 40.367188 C 130.015625 40.070312 130.796875 39.882812 131.554688 39.789062 C 131.777344 39.773438 132.011719 39.746094 132.230469 39.742188 L 132.242188 39.742188 C 132.460938 39.730469 132.695312 39.738281 132.917969 39.738281 C 133.144531 39.753906 133.378906 39.761719 133.59375 39.789062 L 133.859375 39.816406 C 134.324219 39.878906 134.835938 39.976562 135.285156 40.09375 L 135.78125 40.234375 L 136.269531 40.394531 L 136.75 40.578125 L 137.222656 40.78125 C 137.71875 41.011719 138.261719 41.296875 138.71875 41.585938 C 139.148438 41.851562 139.589844 42.171875 139.980469 42.484375 C 140.238281 42.691406 140.574219 42.992188 140.8125 43.21875 C 141.039062 43.4375 141.371094 43.789062 141.582031 44.023438 C 141.839844 44.320312 142.191406 44.78125 142.425781 45.101562 C 142.730469 45.539062 143.097656 46.078125 143.351562 46.542969 C 143.566406 46.917969 143.769531 47.320312 143.972656 47.761719 C 144.105469 48.054688 144.261719 48.417969 144.367188 48.714844 C 144.476562 49.007812 144.601562 49.382812 144.6875 49.679688 L 144.824219 50.191406 C 144.851562 50.304688 144.941406 50.738281 144.964844 50.855469 C 145.074219 51.480469 145.140625 52.085938 145.152344 52.71875 L 145.148438 53.074219 C 145.140625 53.511719 145.078125 53.988281 145.007812 54.425781 L 145.683594 54.515625 C 145.710938 54.292969 145.765625 54.011719 145.78125 53.785156 C 145.800781 53.542969 145.832031 53.3125 145.828125 53.0625 L 145.832031 52.703125 C 145.832031 52.582031 145.824219 52.464844 145.820312 52.34375 C 145.816406 52.136719 145.789062 51.835938 145.765625 51.625 C 145.738281 51.3125 145.683594 51.015625 145.636719 50.714844 C 145.601562 50.570312 145.515625 50.144531 145.480469 50.007812 C 145.480469 50.007812 145.34375 49.503906 145.34375 49.503906 C 145.300781 49.316406 145.1875 49.003906 145.132812 48.816406 C 145.066406 48.609375 144.957031 48.347656 144.878906 48.144531 C 144.804688 47.9375 144.679688 47.675781 144.597656 47.472656 C 144.382812 47.011719 144.171875 46.597656 143.949219 46.203125 C 143.675781 45.710938 143.300781 45.160156 142.976562 44.691406 C 142.722656 44.351562 142.371094 43.886719 142.09375 43.574219 C 141.875 43.324219 141.523438 42.957031 141.285156 42.722656 C 141.035156 42.484375 140.679688 42.171875 140.410156 41.953125 C 140.003906 41.628906 139.539062 41.292969 139.105469 41.023438 C 138.609375 40.707031 138.042969 40.410156 137.507812 40.160156 L 137.007812 39.945312 L 136.503906 39.753906 L 135.988281 39.585938 L 135.464844 39.4375 C 134.980469 39.3125 134.445312 39.207031 133.949219 39.140625 L 133.6875 39.117188 C 133.441406 39.085938 133.207031 39.078125 132.964844 39.0625 L 132.945312 39.0625 C 132.703125 39.058594 132.46875 39.050781 132.222656 39.066406 C 131.972656 39.070312 131.742188 39.097656 131.5 39.117188 L 131.480469 39.121094 C 130.652344 39.21875 129.785156 39.433594 129.070312 39.765625 C 129.375 39.179688 129.535156 38.527344 129.320312 37.914062 Z M 128.679688 38.152344 " fill-opacity="1" fill-rule="nonzero"/></g></g></g></g><g clip-path="url(#cf6ed4e751)"><g clip-path="url(#65740bd5ab)"><path fill="#000000" d="M 108.042969 57.105469 L 147.617188 57.105469 L 147.617188 78.847656 L 108.042969 78.847656 Z M 108.042969 57.105469 " fill-opacity="1" fill-rule="nonzero"/></g></g><g clip-path="url(#0165c5b6aa)"><g clip-path="url(#4bb8ab4edd)"><path fill="#e7191f" d="M 119.703125 86.050781 L 127.351562 86.050781 L 127.351562 94.535156 L 119.703125 94.535156 Z M 119.703125 86.050781 " fill-opacity="1" fill-rule="nonzero"/></g></g><g clip-path="url(#e7a29b4847)"><g clip-path="url(#fdcdb52f47)"><path fill="#e7191f" d="M 118.25 96.796875 L 125.652344 96.796875 L 125.652344 104 L 118.25 104 Z M 118.25 96.796875 " fill-opacity="1" fill-rule="nonzero"/></g></g><g clip-path="url(#9bd8620a98)"><g clip-path="url(#0aaf2ca320)"><path fill="#e7191f" d="M 118.878906 96.164062 L 126.28125 96.164062 L 126.28125 103.367188 L 118.878906 103.367188 Z M 118.878906 96.164062 " fill-opacity="1" fill-rule="nonzero"/></g></g></svg>