<?xml version="1.0" encoding="UTF-8"?>
<svg id="Layer_1" data-name="Layer 1" xmlns="http://www.w3.org/2000/svg" viewBox="0 0 414 200">
  <defs>
    <style>
      .cls-1 {
        fill: #eeebe2;
      }

      .cls-2 {
        fill: #e6e1da;
      }

      .cls-3 {
        fill: #fff9b8;
      }

      .cls-4 {
        fill: #fff000;
      }

      .cls-5 {
        fill: #ecebea;
      }

      .cls-6 {
        fill: #fbb040;
      }

      .cls-7 {
        fill: #fdfdfd;
      }

      .cls-8 {
        fill: #9ed2f1;
      }

      .cls-9 {
        fill: #c2bbb7;
      }

      .cls-10 {
        fill: #bbad98;
      }

      .cls-11 {
        fill: #45403b;
      }

      .cls-12 {
        fill: #6e675d;
      }

      .cls-13 {
        fill: #534e49;
      }

      .cls-14 {
        fill: #757474;
      }

      .cls-15 {
        fill: #4b4642;
      }
    </style>
  </defs>
  <path class="cls-11" d="M72.01,87.28c-1.08-.38-.97-1.26-.78-2.07,.26-1.06,1.15-.61,1.83-.63,8.21-.23,15.88,2.03,23.4,5.01,1.81,1.1,3.68,.36,5.53,.19,2.49,.08,4.96,.34,7.32,1.2,.24,.07,.49,.14,.73,.21,.31,.11,.63,.22,.94,.33,.25,.07,.49,.15,.74,.22,.13-.08,.25-.06,.34,.07,.28,.5,.73,.6,1.25,.52,.59,0,1.15,.1,1.54,.6,.29,.15,.57,.3,.86,.45,.27,.1,.55,.21,.82,.31,.2,.11,.4,.23,.6,.34,.17,.08,.35,.16,.52,.24,.19,.12,.39,.23,.58,.35,1.67,.93,3.36,1,5.27,.71,4.45-.67,8.74,.12,12.77,2.19-.11,.4-.22,.81-.33,1.21-4.24-1.33-8.46-2.94-13.68-1.63,4.41,3.11,7.66,6.51,10.76,10.07,3.34,3.84,7.08,6.81,12.42,7.49,2.01,.25,2.28,0,1.82-1.81-1.13-4.53-3.4-8.35-6.82-11.5,.23-.54,.72-.57,1.2-.6,.49,.17,.97,.35,1.46,.52,.38-.07,.59-.3,.62-.69,.92-4.96,3.86-8.77,7.37-12.06,2.73-2.57,4.55-4.92,1.62-8.4,.03-.5,.16-.94,.69-1.14,.76,.92,1.52,1.84,2.32,2.8,1.12-2.76,2.97-4.74,4.94-6.64,.36-.4,.73-.79,1.09-1.19,2.8-.73,5.45-2.18,8.51-1.67,.67,.11,1.51-.33,1.28-1.05-.66-2.09-1.42-4.16-2.39-6.12-.55-1.11-1.89-.11-2.81-.48-.44,.07-.88,.13-1.32,.2-.76,.1-1.51,.19-2.27,.29-.77-.06-1.64,.05-1.69-1.1,1.08-.13,2.17-.19,3.22-.4,1.81-.37,4.13,.09,4.56-2.66,1.23,.26,.98,1.37,1.28,2.19,1.84,5.03,3.6,10.12,9.02,12.58,2.49,1.13,5.28,.66,6.26-1.1,.46-.03,.92-.07,1.38-.1,3.39,1.57,4.81,.82,4.87-2.67,.04-2.74-.04-5.48-.06-8.22-.02-.21-.05-.42-.07-.64-.39-.9-.45-2.16-1.99-1.75-.19,.06-.38,.11-.57,.17-.77,.12-1.53,.24-2.3,.36,0-.37,0-.75,0-1.12,2.42-.54,4.83-1.08,7.25-1.63,.31,.46,.44,.18,.55-.13,3.13-.79,6.24-1.7,9.46-2.08,.01,.39,.03,.79,.04,1.18-2.33,.72-4.67,1.34-7.1,1.62-.66-.06-1.35-.2-1.85,.43-1.14,.42-2.66,.45-2.37,2.33-.52,.41-.41,.76,.11,1.06,.17,.83,.34,1.66,.52,2.48,.03,.67,.05,1.34,.08,2.01-.22,2.07,.26,4.18-.43,6.21,.09,.15,.18,.31,.28,.46,1.75-.01,3.49-.03,5.24-.04,3.31-.02,6.66-.18,9.75,1.26,3.35,1.55,4.03,1.33,4.79-1.9,1.52,1.42,3.09,1.32,5.07,.77,4.95-1.39,10.03-1.35,14.53,1.35,2.58,1.55,4.49,1.21,6.77-.3-1.76-1.91-3.89-2.99-6.06-4.01-5.85-2.73-12.05-2.45-18.25-2.18,0-.4,.02-.81,.03-1.21,4.69-.82,9.34-.71,13.96,.48,.19,.05,.38,.1,.57,.14,.39,.15,.77,.29,1.16,.44,1.66,.58,3.14-.13,4.65-.63,.31-.36,.69-.51,1.16-.41,.67,.09,1.34,.22,1.84-.43,.83-.06,1.65-.13,2.48-.19,.28-.05,.56-.1,.84-.15,.4-.05,.79-.1,1.19-.15,.57,.58,1.1,.56,1.62-.07,.94,0,1.88,0,2.81,0,.52,.64,1.06,.65,1.63,.05,.6,.09,1.19,.18,1.79,.26,.54,.06,1.07,.12,1.61,.18,.55,.07,1.11,.13,1.66,.2,.25,.09,.51,.18,.76,.28,.9,.06,1.81,.06,2.56,.67,.3,.51,.76,.56,1.28,.46,.31,.12,.61,.24,.92,.36,.02,.27,.03,.53,.05,.8-.13,.13-.25,.26-.38,.39-8.09-2.9-16.24-2.93-25.33-.65,2.89,1.31,4.79,2.61,6.51,4.13,.71,.63,1.48,.63,2.33,.38,8.05-2.41,15.7-2.24,22.53,3.43,.66,.54,1.56,.43,2.01-.14,.47-.59-.18-1.19-.63-1.66-.84-.87-1.7-1.7-2.56-2.55,.27-.29,.55-.58,.82-.87,.65,.51,1.5,.9,1.9,1.56,1.65,2.72,3.84,2.87,6.75,2.27,4.62-.95,9.58-.95,12.88,2.85,2.02,2.33,3.95,2.73,6.52,2.55,0,.39,0,.79,0,1.18-2.98,.47-6.02,.72-8.88,1.77-.64,.23-1.67,.03-1.77,.95-.09,.85,.86,1.09,1.46,1.45,3.44,2.05,7.31,2.91,11.11,3.96,.73,.2,2.33-.24,1.65,1.56-.5-.07-1-.13-1.49-.2-.54-.16-1.09-.31-1.63-.47-.19-.03-.38-.07-.57-.1-.72-.14-1.44-.26-2.15-.44-.85-.21-1.3,.05-1.11,.95,1.1,5.14,1.89,10.4,4.85,14.93,.67,1.02,1.42,1.99,2.88,1.75,1.49-.24,2.28-1.32,2.58-2.61,1.02-4.35-.29-8.43-1.66-12.48-.26-.77-2.21-.67-1.34-1.84,.74-.99,1.8,.28,2.73,.5,.62,.14,1.25,.43,1.74,.83,.86,.69,2.93,.89,2.27,2.19-.59,1.17-1.74-.65-2.76-.75-.14-.01-.29,.1-.6,.22,1.21,4.07,1.84,8.24,1.23,12.51-.45,.43-.89,.85-1.34,1.28-1.69,2.16-3.73,2.02-5.87,.76-.61,1.13-.51,2.26-.6,3.36-.4,4.52-.74,9.07-2.23,13.39-.62,1.78-.38,3.12,1.18,3.9,1.52,.76,3.19,.94,4.39-.84,.28-.41,.64-.96,1.31-.53,.18,.37,.12,.91,.68,.99,.09,.01,.32-.18,.32-.27-.01-.57-.59-.55-.91-.8-.12-1.65,1.44-2.37,2-3.64,.85-.21,.88-.81,.73-1.51,0,0,.07-.19,.07-.19,.56,.3,.81,.9,.56,1.36-1.42,2.72,.3,2.24,1.9,1.93,.57,.89,1.18,1.78-.21,2.51-.5-1.51-1.33-1.07-1.96-.21-2.52,3.4-4.47,7.09-4.45,11.43,.03,7.76-.29,15.46-2.89,23.09,1.18-.22,2.07-.39,2.96-.56,.09,.37,.18,.74,.26,1.11-1.73,1.39-4.82,.36-5.95,3.41h4.29c0,.38,0,.76,0,1.14-.82,.12-1.68,.47-2.44,.32-2.85-.58-5.02,.6-7.36,2.07-6.08,3.81-12.7,4.87-19.64,2.74-1.56-.48-2.43,.02-3.37,1.2,1.96,1.63,4.45,1.75,6.65,2.6,0,.62,.06,1.26-.62,1.61l-.25,.06-.23-.12c-.09-.24-.19-.48-.28-.71-.09,.24-.18,.48-.27,.72-6.57,2.94-13.29,5.39-20.59,5.5-2.25,.03-4.25,1.08-6.43,1.26-.87,0-1.81-.37-2.49,.53-2.56,.68-5.15,1.12-7.82,.95-.7-.62-1.41-.61-2.13-.04-1.17,.2-2.3,.04-3.39-.4v-1.14c5.47,.27,10.89,.29,16.54-1.67-1.71-1-3.24-1.49-4.03-2.78-1-1.63-2.09-1.52-3.71-1-4.65,1.48-9.31,1.31-13.84-.66-.42-.18-.82-.49-1.25-.57-1.45-.29-2.77,.55-3.36,1.51-.7,1.14,.97,1.48,1.68,2,2.19,1.62,4.76,2.4,7.41,2.94-.39,1.24-1.46,.66-2.25,.84-.39-.14-.77-.27-1.16-.41-.07-.04-.17-.06-.2-.12-.03-.05,.02-.15,.03-.22,.05,.13,.11,.27,.16,.4-.82,.14-1.63,.28-2.45,.42-.57-.08-1.14-.19-1.42-.8,.16-.22,.51-.53,.45-.63-1.04-1.96-4.6-3.26-6.65-2.47-.86,.33-1.72,.69-2.62,.91-6.07,1.49-11.73,.74-16.07-4.07-1.33-1.47-2.23-2.14-4-1.37-.68,0-1.07,.32-1.1,1.02-.96,.29-1.29,.86-.88,1.84,.22,.53-.37,1.08-.59,.81-2-2.46-4.13-.22-6.17-.26-.46-.06-.89-.05-1.23,.33-.31,.08-.62,.16-.93,.24-.56,.01-1.11,.03-1.67,.04-.3,.5-.8,.44-1.27,.43-.02-.37-.04-.74-.05-1.11,2.93-.75,5.86-1.5,8.78-2.26,.71,.07,1.18-.17,1.24-.95,3.78-1.45,7.56-2.91,11.34-4.36,.5-.19,1.23-.21,1.33-.84,.13-.83-.74-.95-1.24-1.26-3.59-2.23-7.55-3.01-11.7-2.55-8.42,.92-16.2,4.27-24.24,6.59-1.34,.39-.78,1.04-.29,1.84,1.74,2.88,4.69,3.31,7.57,3.92,.2,.25,.61,.69,.58,.73-.54,.57-1.28,.1-1.91,.33-.14,.09-.26,.07-.36-.07-.49-.7-1.2-.54-1.89-.48-2.4-.59-4.43-1.66-5.57-4.03-.57-1.19-1.69-1.63-2.75-.85-.96,.7-.25,1.7,.22,2.43,1.73,2.62,4.09,4.51,7,5.66,8.33,3.3,16.78,2.38,25.23,.59,2.32-.49,.08-1.38,.05-2.08,.42-.1,.85-.2,1.27-.3,1.27,.72,2.54,1.44,3.82,2.16-.75,1.49-2.51,.2-3.42,1.25-3.47,1.01-7.02,1.55-10.64,1.64-.94-.63-1.86-.69-2.73,.13-.35,.01-.69,.03-1.04,.04-.63,0-1.27,.02-1.9,.03-.52-.03-1.03-.05-1.55-.08-.51-.18-.97-.82-1.58-.19-.61-.08-1.22-.15-1.83-.23-.19-.02-.39-.05-.58-.07,0,0-.23,.05-.23,.05,0,0-.2-.12-.2-.12-.61-.8-1.46-.54-2.26-.52-2.55-.17-4.47-2.35-7.12-2.21-.81,.01-1.68-.3-2.31,.52-.33,.02-.66,.04-.99,.06-.66-.07-1.19-.29-1.23-1.07,1.2-.22,2.89,.14,3.45-.9,.56-1.03-1.18-1.61-1.68-2.55-.39-.73-1.13-1.37-1.26-2.13-.3-1.71-1.43-1.66-2.45-1.16-4.64,2.29-9.62,2.31-14.58,2.19-2.74-.07-5.21-.89-7.77-2.26-3.04-1.63-4.26-5.3-7.79-6.12-.47-.11,.02-.6,.19-.88,.24-.06,.48-.12,.72-.18,.37-.06,.74-.13,1.12-.19,1.25-.15,2.49-.3,3.74-.46,.62,.08,1.25,.21,1.78-.28l1.58-.28c.46,.09,.9,.06,1.23-.33,.38-.04,.75-.08,1.13-.12,.02,.4,.04,.8,.06,1.2-2.07,.43-4.14,.92-6.23,1.27-1.38,.23-1.54,.82-.75,1.8,1.36,1.69,3.01,3.04,5.13,3.62,4.1,1.11,8,2.19,12.57,1.21,7.61-1.62,15.05-3.7,22.48-5.92,1.82-.55,1.42-1.33,.37-2.24-1.71-1.49-3.74-2.35-5.91-2.89,.04-.47,.08-.94,.12-1.42-1.67-2.63-3.77-4.98-5-8.48-1.26,2.32-.34,3.78,.11,5.3,.31,1.04,1.56,2.44-.72,2.87-.38-3.1-2.04-5.5-4.16-8.2-.58,3.17-.72,5.86-2.22,8.19-.4,.62,.28,.69,.69,.8,.79,.27,1.91-.4,2.37,.83-5.15,.88-10.29,1.75-15.44,2.63-.83-.2-1.87,.25-2.44-.79,.94-1.05,2.58,.09,3.48-1.09-2.41-3.62-6.35-3.99-10.06-4.82,0-.36,0-.71,0-1.07,1.61,.14,3.22,.27,5.28,.45-1.82-3.05-3.06-5.96-4.41-9.17-2.08,2.58-1.17,5.45-1.93,7.93-.03,.6-.07,1.2-.1,1.81-.8-.03-1.87,.39-1.85-1.06,1.28-2.65,.09-7.99-2.45-10.76-1.11,3.33-1.82,6.78-3.86,9.69-.97,.86-1.95,1.73-2.92,2.59-6.41,.75-12.82,1.5-19.22,2.28-.58,.07-1.49-.2-1.58,.68-.04,.43,.43,.98,.79,1.36,1.83,1.95,4.18,2.96,6.72,3.62,5.48,1.43,11,.88,16.51,.32,.21,.12,.43,.25,.64,.37v.89c-1.23,.5,.8,1.83-.58,2.29-1.21,.1-1.12-1.09-1.64-1.67-.18-.48-.51-.6-.97-.41-4.87,.97-9.68,.58-14.51-.42-4.25-.89-7.05-3.67-9.68-6.79-.26-.01-.52-.02-.79-.04-1.54-.11-1.46,1.26-1.94,2.12-1.61-1.82-3.82-1.86-5.99-2.15-1.54-.21-3.04-.75-4.55-1.17-.58-.16-1.14-.58-.72-1.17,.55-.76,1.1-.21,1.52,.33,.53,.1,1.07,.2,1.6,.3,6,1.12,11.98,.31,17.97-.11,.64,.05,1.3,.21,1.87-.26,.84-.51,2.4,.32,2.65-.82,.27-1.28-1.08-2.03-2.05-2.7-2.59-1.79-5.59-2.31-8.63-2.74-7.09-1.02-14.23-.25-21.33-.68,.15-.38,.31-.76,.46-1.14,1.38-.02,2.76-.04,4.14-.07,1.82-.04,1.71-.92,.91-2.1-.25-1.26-1.11-2.08-2.02-2.88-.52-.38-1.04-.76-1.55-1.14-.59-.64-1.6-.88-1.8-1.89,.27-.23,.54-.47,.81-.7,.67,.43,1.35,.87,2.02,1.3-.51-1.28,.09-3.23-2.01-3.1-.2-.02-.41-.04-.61-.06-.07-2.16-.15-4.32-.22-6.48,.34-.06,.69-.11,1.03-.17,1.45,4.5,2.87,9.01,5.87,12.79,2.12,2.68,3,2.55,4.25-.57,4.14-10.36,.56-19.38-4.86-28.08-.08-.13-.35-.29-.46-.25-2.06,.8-3.85-1.18-5.88-.58,.24-4.43,1.56-8.82,.44-13.29,.36-.19,.72-.37,1.07-.56,.29,1.26,.58,2.51,1.02,4.43,1.02-1.94,1.71-3.22,2.37-4.52,2.48-4.83,2.38-4.99-3.35-5.48-.74,0-1.14-.36-1.13-1.13,1.12-.9,2.65,.68,3.71-.62-.01-.33-.02-.66-.03-.99,.16-.48,.05-.88-.38-1.18-.06-.79-.07-1.61-1.04-1.91,.11-.38,.15-.73-.3-.92-.73-1.13-1.92-1.94-2.36-3.28,1.88-1.45,2.61,.59,3.14,1.43,1.08,1.72,2.38,1.88,4.17,1.83,3.58-.09,7.25-.53,10.7,.92,5.46,2.31,11.54,3.99,12.16,11.58,1.67-1.05,2.71-2.08,3.04-3.95,.96-5.52-.68-9.39-5.77-12.33-5.75-3.32-12.09-4.88-18.57-5.97-1.93-.4-3.81-.13-5.68,.39-.83-.37-1.51,.08-2.21,.41Zm216.4,5.86l-.21-.7c-.97-2.26-2.98-2.46-5.66-3.08,2.23,2.51,2.99,4.94,3.94,7.47,1.09-1.29,1.79-2.35,1.93-3.7Zm-141.87,4.8c1.68-.28,3.75-.43,4.45-2,.77-1.74,1.51-3.73,1.12-5.8,.11-.04,.21-.08,.32-.11-.05-.01-.12-.05-.14-.03-.06,.05-.11,.12-.16,.18-2.45,2.17-4.54,4.61-5.55,7.81-.08,.03-.17,.05-.23,.1-.03,.02,0,.11,0,.17,.07-.1,.13-.2,.19-.3Zm151.72,33.51c-1.5,1.03-3.12,1.49-4.97,1.24-.61-.08-1.48-.84-1.88,.18-.29,.74-.34,1.6,.29,2.35,1.21,1.46,2.38,2.96,3.76,4.7,.87-2.97,1.3-5.81,2.91-8.19,.06-.13,.02-.22-.11-.29Zm-201.85,13.87c-1.16-2.48-1.03-5.16-1.23-7.79,.78-2.43,.56-4.74-.87-6.96v6.94c-.3,2.1-.57,4.21-.91,6.3-.14,.85-.18,1.61,.44,2.33,2.68,3.12,4.46,6.7,5.08,10.9,1.8-.67,1.51-1.65,.93-2.9-1-2.17-1.85-4.41-2.76-6.62,.39-.02,.77-.03,1.16-.05,1.65,3.29,2.78,6.86,5.02,9.84,1.17,1.56,2.15,4.09,4.48,3.46,2.33-.63,2.79-3.21,3.19-5.43,.05-.27,.05-.55,.07-.83,.48-6.07-1.64-11.46-4.51-16.59-.93-1.66-2.35-2.88-4.58-1.66-.57,.31-1.44,.08-2.18,.09-.95,.01-1.78-1.52-2.68-.54-.75,.81-.5,2.11-.5,3.22,0,.55-.01,1.11-.02,1.66,.02,.19,.04,.39,.06,.58,.5,.98,.61,2.03,.6,3.11-.26,.31-.53,.62-.79,.93Zm26.4-11.56c.02,.55-.65,1.39,.3,1.53,.58,.08,.57-.77,.55-1.31,1.24-2.46,2.54-4.89,3.72-7.38,1.46-3.07,1.19-2.38-1.5-3.27-4.34-1.44-2.9,1.46-3.13,3.29-.09,.73-.2,1.46-.3,2.18-2-.97-.92-2.75-.92-4.11,0-2.03-.24-3.6-2.5-4.2-.53-.14-1.57-.28-.86-1.35,1.74-.53,2.8,1,4.22,1.42,1.1,.32,2.33,1.62,3.24,.79,.9-.83,.62-2.44,.2-3.71-.2-.61-.43-1.22-.71-1.81-2.41-5.06-7.1-7.05-11.95-8.75-4.5-1.57-9.02,.08-11.64,3.99-.87,1.3-.79,1.89,.84,2.24,2.35,.5,4.66,1.17,6.98,1.76,.18,.05,.35,.09,.53,.14,2.87,1.08,6.02,1.55,8.28,3.92-1.27,1.28-2.16-.28-3.22-.48-.83-.16-1.64-.96-2.13,.4-1.36,.49,0,3.34-2.47,2.86,.15-.4,.3-.81,.45-1.21,.09-.11,.14-.24,.15-.38,.04-.21,.07-.43,.11-.64,.06-.05,.18-.1,.17-.14,0-.13-.06-.26-.1-.39,.23-1.29,.12-2.31-1.52-2.6-1.36-.24-2.69-.66-4.01-1.08-1.11-.35-1.75,.07-2.21,1.05-1.88,3.92-4.1,7.66-6.4,11.35-1.12,1.8-1.23,3.59,.44,5.3,2.89,2.96,6.6,2,8.84-2.42,1.2-2.38,2.32-4.8,3.47-7.2,.29,.33,.57,.67,.86,1-1.01,3.08-2.36,6-4.24,8.65-.41,.58-1.3,1.08-.57,1.86,1.5,1.6,3.31,1.17,5.16,.67,1.73-.46,1.8-1.53,1.36-2.95-.47-1.52-.53-3.09-.48-4.67l1.21-.05c.16,1.18,.29,2.37,.48,3.54,.46,2.86,1.21,5.45,4.02,7.13,2.17,1.29,3.51,1.36,4.27-1.29,.52-.97,.2-2.01,.24-3.02-.14-1.83-1.74-3.78,.42-5.43,.34,1.57,.47,3.16,.35,4.77Zm113.34,6.02c-.02,.62,.09,1.3-.62,1.66-1.86-3.42-3.87-6.87-4.26-10.75-.31-3.14-2.05-3.79-4.53-3.99-1.01-.08-2.03-.02-3.05-.1-1.64-.12-2.09,.66-1.87,2.18,.59,4.05,1.54,8,3.64,11.55,1.23,2.09,2.74,3.93,5.13,4.87,3.91,1.53,5.04,.85,5.09-3.24,.86,.29,2.19-.53,2.48,1.07,1.27,2.01,2.79,1.43,4.22,.29,2.4-1.92,3.95-4.38,4.4-7.47,.39-.31,.42-.72,.32-1.16,.07-.91,.14-1.83,.22-2.74,.43-1.31,.54-2.63,.15-3.98-.03-3.49-.04-3.55-3.34-2.66-2.24,.61-5.04,.51-5.55,3.75-.02,.11-.47,.15-.73,.22-.38-3.69-2.59-.69-3.88-.99-1.49-.35-1.4,.73-1.3,1.9,.31,3.52,2.28,6.4,3.46,9.58Zm28.45-37.98c-.11-.11-.29-.33-.31-.32-.29,.2-.19,.42,.01,.62,.38,2.28,.89,4.54,1.11,6.84,.18,1.94,1.26,2.77,2.96,3.11,1.46,.28,2.91,.24,4.4,.02,1.97-.29,2.21-1.17,1.1-2.56-2.56-3.19-5.54-5.91-9.27-7.7Zm-53.38,14.19c3.45,1.55,6.92,1.32,10.41,.12,.44-.56,2.82-.61,.98-1.75-4.19-2.6-8.62-4.83-12.58-8.59,.75,3.74,1.58,6.92,1.19,10.23Zm26.92,42.41c.26-.69,.36-1.36-.21-1.97-.52-2.54-1.03-5.08-1.57-7.61-.15-.72-.37-1.7-1.29-1.5-2.52,.54-4.64-.75-7-1.47-1.27,7.59,3.5,13.31,5.43,19.8,.05,.16,.22,.3,.36,.41,.7,.54,1.22,1.58,2.31,1.18,.94-.35,1.42-1.26,1.51-2.19,.22-2.21,.3-4.43,.44-6.65Zm-119.33-2.92c1.83-3.53,1.68-7.32,1.48-11.12-.09-1.68-4.28-5.99-5.87-6.12-.59-.05-.83,.36-1.02,.75-1.21,2.46-2.69,4.76-1.71,7.83,1.18,3.75,1.55,7.69-.05,11.44-.72,1.69-1.13,2.83,.89,3.78,1.94,.92,3.19,.23,4.16-1.42,.88-1.51,1.82-3.01,2.03-4.81l.15-.14-.07-.19Zm50.52,6.1c.08-.48,.16-.97,.24-1.45,1.14-.02,1,.82,1.03,1.54,.05,.28,.1,.55,.16,.83,.14,.66,.27,1.31,.41,1.97,.06,.28,.11,.55,.17,.83,.08,2.22,.35,4.32,3.2,4.58,2.94,.27,3.79-1.92,4.45-4.07,1.18-3.91,1.01-7.87-.02-11.79-.63-2.38-1.32-4.74-4.64-4.32-.48,.06-1.04-.32-1.54-.56-.49-.23-1.11-.51-.78-1.2,.24-.52,.74-.27,1.2-.18,5.44,1.07,7.9-1.6,6.29-6.94-1.04-3.45-2.38-6.81-3.41-10.26-.33-1.1-.86-1.53-1.86-1.68-1.65-.25-3.29-.49-4.93-.77-1.25-.21-1.96,.08-1.84,1.54,.43,5.18,1.18,10.27,3.2,15.12,.53,1.28,3.2,2.93-.4,3.88-.18,.05-.2,.67-.29,1.03-.44,1.7-.87,3.4-1.31,5.11-.5,.63-.48,1.18,.23,1.64,.29,1.19,1.79,2.18,.62,3.63-.17,.09-.35,.17-.52,.26-2.44-5.34-3.57-11.45-8.97-15.09-1.23,.96-2.52,2.22-4.35,2.49-1.15,.17-1.31,.91-1.11,1.81,1.48,6.58,3.33,12.99,9.09,17.29,1.52,1.13,3.18,2.87,5.18,2,2.19-.95,.74-3.32,1.1-5.02-.04-.2-.08-.39-.12-.59-.15-.54-.29-1.09-.44-1.63ZM100.69,90.82c-.41-.06-.91-.23-1.12,.26-.26,.59,.27,.67,.67,.79,2.87,1.81,5.26,4.28,5.37,7.67,.1,3.35,1.87,4,4.45,4.73,5.8,1.62,11.59,3.35,15.22,8.8,1.09,1.63,4.5,1.89,6.37,.56,2-1.42,1.05-3.07,.27-4.66-.28-.58-.67-1.11-1.06-1.62-5.07-6.64-11.59-11.33-19.35-14.33-.21-.36-.53-.52-.94-.45-3.29-.58-6.59-1.16-9.88-1.74Zm51.24,24.21c1.51-.07,3.28-1.16,4.73-2.83,2.8-3.22,4.22-7.15,5.38-11.13,2.52-8.67,4.8-17.42,7.29-26.1,.52-1.82-.46-1.37-1.38-1.26-4.53,.5-7.82,3.04-9.88,6.85-5.44,10.08-6.49,21.43-8.84,32.39-.34,1.57,.38,2.27,2.7,2.08Zm30.97-26.47c3.92,.05,7.25-.47,10.59-1.39,5.59-1.55,9.87-5.19,14.39-8.48,.71-.52,.85-1.02-.09-1.36-.95-.35-1.93-.63-2.91-.86-6.2-1.41-12.35-.32-18.45,.65-4.92,.78-9.43,.74-12.73-3.7-.66-.88-1.12-.63-1.74,.02-2.73,2.86-2.76,8.11-.19,11.23,3.09,3.76,7.31,3.92,11.14,3.88Zm-8.63,.33c.74,2.81,1.75,5.08,2.9,7.3,5.23,10.04,12.39,18.11,23.01,22.66,2.27,.97,3.37,.25,3.14-2.17-.07-.73-.2-1.5-.5-2.16-3.79-8.34-8.7-15.89-15.66-21.97-1.33-1.16-2.87-2.17-4.68-2.26-2.68-.14-5.27-.71-8.23-1.4Zm83.87,23.54c-.3-2.34-.79-4.51-1.97-6.24-5.76-8.42-11.61-16.73-23.16-17.72-2.76-.24-2.09,.93-1.72,2.47,2.45,10.1,11.6,14.53,18.16,21.08,1.15,1.14,4.12,1.69,6.35,2.23,1.86,.45,2.33-.45,2.34-1.82Zm-50.91-21.37c.07,0-.59,.08-1.22-.01-2.53-.39-2.45,.67-1.6,2.53,3.03,6.63,7.04,12.4,13.6,16.03,2.35,1.3,4.67,2.66,6.99,4,.91,.53,1.73,1.83,2.9,.94,1.22-.93,.88-2.3,.35-3.56-1.97-4.72-4.16-9.36-7.43-13.3-3.29-3.97-6.97-7.57-13.6-6.62Zm56.68-11.96c-5.16-3.89-10.6-4.81-16.48-3.87-5.26,.84-10.2,2.8-14.77,5.35-2.26,1.26-4.97,2.13-7.06,4.4,13.97,5.44,25.9-.24,38.31-5.88Zm-45.75,90.01c-1.28,.17-2.57,.26-3.83,.54-6.79,1.49-13.02,4.6-19.58,6.75-2.55,.84-2.02,1.9-.86,3.36,.34,.42,.82,.74,1.28,1.06,4.4,3.05,9.12,3.17,14.04,1.53,5.95-1.98,10.28-6.7,15.79-9.45,1.34-.67,.44-1.35-.27-1.8-1.99-1.25-4.15-1.99-6.57-1.99Zm15.25-90.88c-1.12-.99-2.3-1.5-3.54-1.89-6.73-2.1-13.06-.73-18.97,2.6-3.59,2.03-6.82,4.69-10.34,6.86-1.98,1.22-1.25,1.81,.19,2.55,3.44,1.77,7.03,1.52,10.58,.6,8.04-2.09,14.88-6.67,22.08-10.72Zm57.69,79.23c-1.01,.16-2.19,.06-3.38,.46-7.8,2.64-14.14,7.49-19.98,13.11-.5,.48-1.52,.88-1.23,1.66,.29,.79,1.34,.78,2.13,.94,5.4,1.11,10.55,.22,15.29-2.42,4.39-2.44,8.59-5.18,9.87-10.63,.75-3.18,.77-3.25-2.71-3.13Zm-122.13-73.81c-1.81,6.68-2.22,13.38-1.78,20.12,.28,4.31,1.46,8.39,4.61,11.61,.8,.82,1.51,1.89,3.03,1.34,1.36-.49,1.64-1.51,1.92-2.75,2.62-11.45-1.63-21.11-7.77-30.32Zm40.97,31.46c0-.99,.03-1.45,0-1.91-.77-9.91-6.5-17.27-12.57-24.44-.51-.6-1.14-.85-1.97-.71-4.54,.73-5.78,3.93-2.91,7.52,5.19,6.49,10.45,12.94,12.57,21.27,.08,.32,.36,.64,.63,.84,.89,.67,1.89,1.46,3.02,.88,1.64-.84,1.12-2.55,1.24-3.44Zm21.17,49.77c-.54-4.86-3.62-9.52-6.05-14.48-1.05-2.15-3.18-.85-4.12-1.9-1.7-1.9-2.98-.77-4.47,.02-.57,.3-1.19,.54-1.81,.65-1.48,.26-1.75,1.01-1.2,2.33,1.93,4.61,4,9.14,7.11,13.1,1.39,1.77,2.99,3.32,5.08,4.19,3.14,1.3,5.43-.04,5.45-3.91Zm-41.06-17.13c-5.84,2.05-4.26,6.01-2.86,9.92,.22,.61,.4,1.23,.65,1.83,2.38,5.65,5.72,10.35,11.98,12.22,2.04,.61,2.82-.13,2.69-2.1-.05-.73-.12-1.5-.36-2.18-2.61-7.6-5.24-15.21-12.09-19.69Zm68.21-58.62c2.98,4.33,4.97,8.33,8.67,11.21,3.85,3,7.33,6.49,11.01,9.72,1.04,.91,1.97,2.54,3.73,1.28,1.64-1.17,1.53-2.86,.98-4.52-.34-1.04-.86-2.05-1.44-2.99-3.09-5.02-7.26-9.07-11.64-12.94-.49-.43-1.02-.85-1.71-.79-3.02,.24-6.02,.16-9.59-.97Zm-9.04,89.66c6.34-.06,10.91-2.65,14.98-6.4,2.45-2.25,4.92-4.48,7.37-6.74,.44-.41,1.24-.73,.94-1.49-.23-.58-.96-.45-1.49-.52-4.47-.58-8.61,.59-12.58,2.5-3.84,1.84-7.46,4.09-10.88,6.61-1.78,1.31-3.95,2.21-5.13,4.26,2.27,1.43,4.83,1.65,6.79,1.78Zm37.58-95.83c-1.65-3.4-4.4-4.53-7.52-4.92-1.92-.24-3.86-.03-5.81,.24-6.03,.82-11.28,3.85-16.91,5.76-1.86,.63-1.24,1.4-.17,2.23,2.81,2.17,6.09,2.42,9.48,2.42,7.45-.02,13.77-3.97,20.94-5.73Zm-52.16,27.84c-.66-6.29-1.81-12.62-4.6-18.54-1.39-2.96-3.93-4.65-6.82-5.75-1.48-.56-3.56,.09-3.42,1.65,.25,2.81-.09,5.76,1.94,8.41,3.83,4.97,7.29,10.24,8.39,16.63,.27,1.54,1.44,1.89,2.6,2.03,1.37,.16,1.58-1.02,1.74-2.04,.11-.73,.11-1.47,.16-2.39Zm52.5,43.52c-.07-.32-.12-.79-.26-1.23-1.71-5.52-5.29-9.76-9.73-13.18-1.63-1.25-4.16-3.01-5.9,.47-.28,.57-1.14,.99-1.81,1.19-1.64,.47-1.34,1.26-.69,2.4,1.59,2.83,3.23,5.64,5.33,8.12,1.97,2.33,4.05,4.62,7.13,5.55,2.78,.84,5.89-.84,5.94-3.32Zm-107.85-28.55c-.16-2.73-1.76-4.54-3.99-5.91-3.18-1.95-6.77-2.21-10.35-2.62-7.42-.85-9.63,2.15-11,8.1-.31,1.37-.02,1.86,1.49,1.61,7.22-1.21,14.38-.63,21.48,.97,1.92,.43,2.61-.25,2.37-2.15Zm84.77-15.77c-.37-4.35-1.39-8.57-2.76-12.69-1.52-4.56-4.79-7.84-8.43-10.75-1.63-1.3-3.36-.4-4.36,.85-1.13,1.4,.24,7.16,1.64,8.53,4.84,4.74,8.9,9.92,9.41,17.05,.05,.77,.31,1.27,1.1,1.27,1.02,0,2.08-.03,2.69-1.06,.59-.98,.77-2.07,.72-3.21Zm-5.64,50.8c-.24-4.43-2.39-8.22-4.6-11.97-1.28-2.16-2.24-4.76-5.62-4.33-.6,.08-1.44-.47-1.93-.96-1.01-1.01-1.73-.39-2.26,.36-.66,.94-2.83,.95-1.94,2.82,2.82,5.92,5.46,11.97,10.07,16.82,1.07,1.12,2.2,2.46,4.04,1.73,1.97-.78,2.14-2.6,2.24-4.48Zm-38.6,17.06c4.39,3.57,9.15,3.36,13.57,1.7,5.97-2.24,10.99-6.31,16.15-10.02,.41-.3,1.2-.41,.99-1.13-.17-.56-.82-.66-1.36-.79-2.55-.62-5.11-.91-7.7-.3-7.86,1.88-14.65,5.97-21.66,10.54Zm-79.54-16.15c-.43-4.89-.36-9.74-2.82-14.11-2.5-4.43-4.54-5.46-9.4-4.91-1.33,.15-1.49,.54-1.14,1.73,.79,2.65,1.3,5.39,2.18,8.01,1.35,4.02,2.78,8.07,5.68,11.28,1.18,1.3,2.63,3.55,4.3,2.92,1.8-.68,.98-3.27,1.2-4.93Zm107.51-47.11c-3.04,.22-6.1,.31-8.91,1.75-3.11,1.6-4.17,3.45-3.89,6.9,.25,3.06,.39,3.2,3.34,2.17,5.74-2.01,11.59-3.04,17.69-2.3,1.13,.14,2.68,1,3.34-.12,.69-1.19-.25-2.67-.88-3.88-.79-1.52-2.1-2.55-3.67-3.24-2.24-1-4.61-1.26-7.02-1.28Zm-51.23,14.16c-.71-.15-1.33,.19-1.24,1.32,.49,6.06,1.63,11.94,5.86,16.64,1.52,1.69,3.61,2.9,5.93,1.51,2.29-1.38,2.41-3.83,2.08-6.16-.16-1.14-.87-2.22-1.41-3.29-.74-1.48-1.82-2.84-2.29-4.39-1.33-4.36-4.91-4.98-8.92-5.62Zm28.2-11.29c-2.84,.65-6.53,.96-10.1,1.69-3.54,.73-5.8,3.36-6.52,7.13-.32,1.66,.29,2,1.71,1.71,.27-.05,.54-.11,.81-.17,7.14-1.53,14.18-4.52,21.64-1.25,1.37,.6,1.13-.67,1.11-1.46-.13-4.96-2.78-7.53-8.65-7.66Zm-87.74-3.06c-3.48,.14-6.46,.87-8.31,3.93-1.29,2.13-.97,2.8,1.45,2.81,3.48,0,6.74,.74,9.97,2.06,3.07,1.25,6.3,2.1,9.48,3.07,1.41,.43,2.38,.22,2.76-1.61,.55-2.61-.55-5.21-3.61-7.03-3.67-2.19-7.79-2.77-11.74-3.22Zm158.32,32.43c.49-4.23-1.99-7.17-4.25-10.21-.51-.69-1.1-1-1.9-.67-1.53,.63-3.05,.59-4.59,.04-1.03-.37-1.62-.06-1.54,1.13,.21,3.28-.17,6.63,2.26,9.46,1.56,1.82,2.76,4.04,3.06,6.43,.24,1.91,1.19,2.56,2.82,2.7,1.88,.16,2.96-.91,3.37-2.62,.49-2.06,.97-4.15,.76-6.26Zm-101.19-27.38c-4.27,.43-8.95,1.01-12.13,5.21-.85,1.13-1.79,2.53-.96,3.76,.74,1.1,2.36,.75,3.6,.41,2.85-.77,5.69-1.49,8.69-1.59,3.2-.1,6.24,.5,9.28,1.31,1.13,.3,2.62,.93,3.42,0,.9-1.06-.4-2.18-.91-3.18-2.18-4.29-6.02-5.7-10.98-5.93Zm-31.55,8.42c-3.94-.77-6.47,1.12-8.05,5.06-1.06,2.65-2.45,5.17-2.84,8.04-.28,2.05,.12,3.99,2.01,5.07,1.75,1.01,3.24-.18,4.46-1.29,4.31-3.89,6.21-9.01,7.22-14.57,.38-2.11-.26-3.03-2.78-2.31Zm58.46,9.59c0-1.76,.12-3.58-.53-5.22-.64-1.62,.9-4.25-1.26-4.78-1.66-.41-3.72,.75-5.6,1.2-.86,.2-1.23,.74-1.21,1.59,.1,4.93-1,9.73-1.5,14.6-.31,3.01,.92,3.83,3.83,2.78,4.61-1.66,6.3-4.39,6.28-10.17Zm46.76,19.56c-.23-4.37-1.74-8.02-3.34-11.65-.76-1.72-1.35-3.44-3.89-2.4-.82,.33-1.81-.28-2.54-.86-1.36-1.08-1.6-.35-1.83,.92-.59,3.31-.95,6.5,1.26,9.5,.84,1.14,1.19,2.69,1.62,4.09,.53,1.73,1.42,3.2,2.68,4.46,2,1.99,4.43,1.51,5.43-1.13,.38-1.02,.46-2.16,.61-2.93Zm-128.97-26.82c-.06,3.54,.23,7.04,1.8,10.28,1.11,2.28,4.83,4.11,6.73,3.3,2.65-1.13,2.27-3.52,2.07-5.74-.2-2.21-.67-4.4-.73-6.61-.08-2.99-1.26-4.44-4.33-5.24-5.63-1.47-5.56-1.73-5.54,4.01Zm-51.3-1.62c-1.61,3.42-2.76,6.24-2.34,9.52,.6,4.65,.05,9.23-1.62,13.61-.47,1.24-.18,1.86,.77,2.54,2.07,1.47,3.44,1.15,4.77-1.56,2.96-6.01,3.86-12.47,3.78-19.1,0-.88-.14-1.74-1.36-1.57-2.16,.29-3.11-1.1-4.01-3.44Zm54.03,31.58c0,1.39,.13,2.79-.04,4.16-.16,1.37,.51,2.05,1.54,2.64,1.16,.67,2.17,.27,3.05-.47,1.09-.9,1.73-2.11,2.12-3.48,1.06-3.74,.78-7.51,.3-11.29-.44-3.44-.57-6.78-5.46-7.42-2.24-.29-2.2-.06-2.41,1.77-.55,4.77,.94,9.38,.89,14.09Zm50.33-31.48c-1.62,.35-3.25,.69-4.87,1.04-1.06,.23-2,1.01-2.05,1.92-.32,5.08-3.13,9.48-3.82,14.44-.14,1.02-.46,2.13,.47,2.85,1,.77,2.21,.84,3.42,.33,1.23-.51,2.24-1.3,3-2.39,3.51-5.03,4.52-10.85,5.28-16.75,.13-1.02-.23-1.64-1.43-1.45Zm18.19,32.76c-.05-2.14-1-5.98-2.31-9.75-.26-.75-6.37-2.92-6.95-2.49-.14,.1-.28,.3-.28,.46-.16,2.7-1.9,5.3-.56,8.1,1.67,3.51,3.14,7.1,3.94,10.91,.33,1.58,1.16,1.9,2.59,1.53,2.68-.69,3.66-2.52,3.58-8.77Zm-77.72-38.69c-.86,.01-2.02-.55-2.36,.73-1.14,4.25-3.44,7.92-5.41,11.78-.88,1.72-1.31,3.92,.75,5.24,2.04,1.31,4.26,1.19,6.16-.47,1.12-.98,1.91-2.26,2.53-3.62,1.15-2.52,2.06-5.11,2.67-7.84,1.2-5.34,1.19-5.46-4.35-5.83Zm-32.99-14.18c.23-1.4-.46-2.62-1.4-3.66-3.32-3.7-7.55-5.87-12.33-6.96-3.21-.73-5.43,1.13-7.47,3.28-.58,.61-.62,1.17,.23,1.47,6.06,2.12,11.42,5.57,16.95,8.73,2.16,1.24,3.91-.15,4.01-2.86Zm177.91,4.38c-2.92,.4-6.51,.74-10.04,1.44-3.3,.66-5.48,3.27-5.84,6.28-.24,1.97,.06,2.88,2.47,2.26,6.35-1.63,12.78-2.97,19.16-4.51,.79-.19,2.07,.03,2.23-1.19,.15-1.17-.53-2.14-1.47-2.81-1.74-1.26-3.8-1.3-6.51-1.47Zm-189.61,4.34c-.04,2.87-.04,5.75,.52,8.58,.39,1.93,1.11,4.44,2.95,4.52,1.67,.07,2.92-2.18,3.64-4.07,1.44-3.82,1.04-7.86,1.48-11.79,.08-.67-.04-1.32-.86-1.52-1.94-.49-3.45-1.77-5.03-2.87-1.56-1.09-2.26-1-2.32,1.07-.06,2.03-.25,4.06-.38,6.09Zm164.8,7.04c-.14,0-.6,0-1.06,0-2.79,0-2.89,.18-1.68,2.78,.54,1.16,1.02,2.36,1.59,3.5,1.74,3.48,3.7,6.83,6.55,9.54,.94,.89,2.01,1.84,3.42,1.16,1.45-.7,1.74-2.09,1.54-3.56-.21-1.55-.36-3.15-.84-4.62-2.28-6.95-4.08-8.62-9.52-8.8Zm21.09,4.1c-.1-1.47-.15-2.95-.33-4.42-.06-.51-.29-1.17-.67-1.43-.92-.62-6.48,1.39-6.87,2.45-1.55,4.16-1.84,8.47-1.07,12.81,.43,2.44,3.19,3.31,5.24,1.81,1.14-.84,1.89-1.99,2.39-3.32,.97-2.55,1.34-5.18,1.31-7.9Zm12.53,6.39c3.45,.05,4.09-1.02,3.35-3.97-.8-3.18-3.2-5.33-4.69-8.04-2.27-4.13-5.35-1.59-8.17-1.41-.18,.01-.36,.06-.55,.09-1.31,.24-1.78,.82-.94,2.08,1.72,2.6,3.21,5.38,5.14,7.81,1.55,1.95,3.75,3.22,5.86,3.44Zm-210.55-13.24c.27-.07,.72-.19,1.16-.32,4.54-1.37,9.36-7.83,9.4-12.49,0-.93-.5-1.24-1.17-1.64-5.05-3.03-5.14-3.01-7.79,2.17-1.31,2.55-2.82,5.01-3.95,7.63-1.04,2.41,.15,4.64,2.36,4.66Zm208.39-15.8c2.96-6.67,.61-11.89-3.14-16.82-1.22-1.6-4.84-1.98-6.4-.21-1.28,1.45-.98,3.48,.48,4.98,3.48,3.56,6.81,7.24,9.05,12.04Zm5.01-8.88c-1.3,.67-1.34,1.49-1.52,2.15-1.27,4.52-2.99,9.03-1.63,13.83,.53,1.87,1.71,3.48,3.96,3.15,2.2-.32,2.29-2.21,2.58-4.02,.89-5.49-2.97-9.76-3.38-15.1Zm-42.52,86.91c5.73,.03,10.79-1.42,15.75-3.29,1.01-.38,3-.25,2.72-1.6-.29-1.39-2.28-1.62-3.68-1.94-.52-.12-1.21,.34-1.77,.63-1.44,.74-2.78,1.83-4.3,2.26-4.53,1.29-9.05,1.66-13.17-1.41-1.32-.98-2.75-.77-3.65,.47-1.1,1.5,.3,2.3,1.33,3.08,2.13,1.6,4.63,1.74,6.78,1.8Zm-67.63-81.35c0,2.6,.03,4.79,0,6.97-.04,2.21,.03,4.49-1.05,6.48-.88,1.63-.31,2.66,1.04,3.38,1.42,.76,2.59,.28,3.55-1.05,1.49-2.07,2.04-4.51,2.91-6.82,.34-.91-.27-1.54-.82-2.19-1.78-2.1-3.52-4.23-5.62-6.77Zm-24.27,13.38c3.99,.82,10.42-2.28,11.84-5.34,.15-.32,.3-.74,.22-1.06-.67-2.71-.73-5.49-.99-8.24-.03-.35-.01-.77-.45-.89-.51-.14-.87,.16-1.21,.49-.56,.55-.6,1.32-.86,2-1.84,4.82-3.43,9.81-8.55,13.03Zm80.74-12.04c.25,3.21,1.12,6.01,.72,8.86-.33,2.34,.95,2.56,2.64,2.04,2.22-.68,4.41-1.4,6.76-1.41,1.93-.01,1.78-1.03,.77-2.01-3.1-3.06-6.58-5.57-10.9-7.48Zm36.77,48.32c-1.65,2.84-1.49,5.59-1.19,8.34,.13,1.16,.86,1.68,1.94,2.03,3.57,1.13,4.96-2.28,7.61-3.37-3.6-1.44-5.82-4.32-8.37-7Zm-22.71-21.4c-.39,2.07-.67,3.41-.88,4.75-.24,1.57-.75,3.05-1.49,4.45-.54,1.02-.66,1.95,.48,2.64,2.58,1.57,4.58,.04,6.59-1.3,.76-.51,1.61-1.06,.84-2.22-1.73-2.58-3.44-5.17-5.53-8.32Zm-12.27,14.27c.59,4.27,2.21,8.15,2.1,12.34-.03,1.27,2.01,1.28,2.84,2.21,.02,.03,.7-.32,.75-.55,.47-2.28,2.57-4.43,.31-6.94-.89-.98-1.39-2.4-1.8-3.71-.62-2-1.96-2.91-4.2-3.36Zm-150.57-30.17c-.23-.08-.46-.15-.68-.23-1.5,2.71-3.33,5.05-5.92,6.85-1.86,1.29-1.2,3.69,.99,4.52,1.48,.56,2.91,.15,4.37-.07,1.05-.16,1.3-.66,1.27-1.69-.08-3.12-.03-6.25-.03-9.37Zm98.66,47.98c1.98-3.94-.5-7.24-.9-10.73-.22-1.87-2.39-.94-3.39-1.82-.27-.24-.54-.5-.75-.8-.3-.43-.51-1.13-1.19-.58-.56,.45-.2,1,.09,1.48,.84,1.36,1.51,2.91,1.53,4.41,.05,3.54,2.19,5.69,4.61,8.04Zm-59.7-7.73c1.64-1.93,2.16-3.9,1.11-6.31-1.05-2.4-.5-5.39-2.59-7.42-.52-.51-.78-1.75-1.88-1.11-.81,.47-.66,1.37-.64,2.24,.12,4.52,1.42,8.66,3.99,12.61Zm40.74-20.63c-1.1,2.36-1.97,4.44-3.04,6.4-.63,1.16-1.17,2.28-1.05,3.63,.15,1.72,1.37,2.31,2.7,1.84,1.43-.51,4.07-.1,3.76-2.55-.39-3.02-1.48-5.95-2.37-9.31Zm-77.88,21.94c2.89,.06,5.23,.37,7.53,.9,1.43,.32,1.46-.45,1.31-1.58-.44-3.23-2.03-5.82-4.24-8.46-1.32,3.18-2.03,6.33-4.6,9.15Zm65.15,2.24c1.66-5.82-.3-10.48-3.34-15.04-2.09,2.72-.09,11.68,3.34,15.04Zm91.93-1.87c-1.21,2.5-1.54,4.74-1.32,7.08,.08,.91,.29,1.67,1.36,1.73,2.41,.15,4.74,.57,6.91,1.7,.24,.12,.76,0,.97-.2,.32-.3,.09-.69-.24-.9-3.45-2.21-5.22-5.81-7.67-9.41Zm29.88-29.93c-.37,3.26-.73,5.71-.9,8.16-.1,1.5,.45,2.77,2.23,2.9,1.36,.1,5.07-2.16,5.01-3.02-.02-.24-.23-.53-.43-.67-2.53-1.66-3.79-4.39-5.9-7.38Zm-79.89,12.57c-1.9,2.53-4.61,4.75-3.69,7.42,.75,2.19,3.96,.95,6.1,1.09,.18,.01,.37-.03,.55-.04,1.13-.06,1.27-.69,.66-1.44-1.58-1.96-2.41-4.32-3.62-7.04Zm18.84,21.69c.77-2.02-2.2-11.4-3.84-12.52-1.12-.76-1.89,.16-1.62,.84,1.54,3.91,1,8.81,5.46,11.68Zm-4.21-21.17c.8-2.46,.87-4.29,.96-6.12,.22-4.93,.24-4.85-4.21-2.98-1.21,.51-1.06,.93-.6,1.79,1.21,2.26,2.39,4.53,3.86,7.31Zm79.91-12.75c.89-2.68,1.33-5.11,1.55-7.58,.06-.75,.88-2.14-.49-2.14-1.26,0-3.16-.89-3.75,1.6-.75,3.15,.24,5.57,2.69,8.12Zm-139.55-28.21c-6.31,2.18-6.51,3.2-2.07,9.92,.7-3.38,1.35-6.47,2.07-9.92Zm-53.28,24.87c.19,.07,.38,.15,.57,.22,1.01-1.8,1.96-3.63,3.05-5.38,1.37-2.22,2.49-3.99-1.36-5.09-1.57-.45-1.62-.38-1.7,.94-.17,3.11-.37,6.21-.56,9.32Zm40.29,19c1.46-.19,2.92-.16,1.71-2.4-.72-1.34-.86-2.99-1.27-4.49-.13-.49,.02-1.21-.8-1.2-.52,0-.78,.41-.95,.87-.57,1.58-1.44,2.99-2.5,4.28-.75,.91-.44,1.47,.42,1.98,1.06,.64,2.23,.84,3.39,.96Zm131.97,11.63c.52-1.63,2.1-3,1.1-4.86-1.35-2.52-2.78-5.01-4.23-7.47-.44-.74-1.02-1.45-2.47-1.39,2.38,4.58,4.3,9,5.6,13.73Zm-46.63-16.03c-.44,2.62-.97,4.7-1.93,6.68-.72,1.49,.33,2.35,1.75,2.22,1.62-.14,2.95-1.23,3.79-2.49,.7-1.03-.82-1.63-1.25-2.46-.62-1.19-1.37-2.31-2.35-3.94Zm-43.3,30.37c2.07-.23,3.79-.45,5.52-.61,.83-.08,1.24-.34,.79-1.21-1.12-2.17-2.17-4.41-4.58-5.86-.13,2.67-.61,5.02-1.73,7.67Zm-28.65-32.49c1.44-2.57,3.42-4.74,4.06-7.6-.81-.16-1.55-.21-2.22-.47-2.16-.82-3.15-.34-2.71,2.14,.35,1.96,.58,3.95,.87,5.93Zm30.07,3.61c.21,.01,.41,.02,.62,.03,.59-2.11,1.23-4.21,1.74-6.34,.17-.73,.7-1.76-.3-2.23-1.01-.47-1.95,.26-2.82,.74-.69,.38-1.57,.72-1.19,1.85,.67,1.98,1.31,3.96,1.97,5.94Zm6.32-21.32c1.38-1.4,3.92,.37,4.98-1.88,.16-.34-3.9-3.32-4.41-3.31-2.17,.08-2.27,2-2.62,3.35-.28,1.08,.98,1.53,2.05,1.83Zm24.56,42.7c-.17,2.12,.1,3.98-.49,5.77-.47,1.42,.06,1.71,1.5,1.44,4.07-.77,4.21-1.01,1.74-4.48-.68-.96-1.28-2-2.75-2.72Zm-2.5-40.92c-1.49-.17-2.67-.34-3.71-1.01-.73-.47-1.14-.04-1.61,.49-.56,.64-.36,1.03,.15,1.6,.96,1.07,1.79,2.26,2.75,3.51,.8-1.52,1.53-2.93,2.4-4.59Zm-17.83,48.12c-1.38-2.14-2.7-4.18-4.04-6.27-1.55,4.23-.28,6.27,4.04,6.27Zm48.5-8.37c-.31,1.81-.59,3.32-.81,4.84-.07,.51-.18,1.08,.64,1.24,2.12,.42,3.22-.81,2.61-2.91-.37-1.28-.95-2.36-2.44-3.18Zm-23.93,.49c-.02,5.24,1.58,7.29,5.47,7.32-1.75-2.34-3.43-4.58-5.47-7.32Zm43.58-35.6c.68,1.15,1.19,2.01,1.69,2.88,.49,.84,.96,1.7,1.5,2.66,.23-.66,.45-1.17,.58-1.71q1.07-4.34-3.77-3.83Zm-23.74-9.54c-2.35,2.07-4.66,.41-6.98,.37,.96,.93,2.23,1.33,2.89,2.2,1.63,2.14,2.52,1.22,3.42-.51,.25-.47,.86-.74,.67-2.05Zm-68.2,36.8c.54-1.58,1.1-3.13,1.59-4.7,.19-.59,.08-1.07-.77-1.02-2.36,.14-3.27,1.55-2.23,3.63,.36,.72,.45,1.62,1.4,2.09Zm-81.14-25.01c-1.68,.18-2.97,.32-4.68,.5,1.38,1.58,.95,3.55,2.59,4.61,.69-1.69,1.31-3.2,2.1-5.11Zm21.67,10.33c.67,1.49,1.25,2.76,1.99,4.4,1.06-2,1.9-3.59,2.75-5.17-1.57,.41-2.88,.63-4.74,.77Zm139.03-47.71c-.34-.78,.33-2.23-1.2-2.3-.6-.02-2.15-.24-1.86,1.32,.25,1.33,.37,3.1,1.99,3.29,1.25,.14,.56-1.48,1.07-2.31Zm-49.42,63.85c.24-.03,.49-.06,.73-.09-.19-1.45,1.2-3,.12-4.16-.74-.8-2.32-.25-3.64,.28,1.02,1.45,1.9,2.71,2.79,3.96Zm-47.37-37.09c.97,1.22,1.81,2.23,2.61,3.28,.49,.65,1.02,.89,1.41,.02,.28-.62,1.58-1.4,.45-1.95-1.27-.63-2.6-1.57-4.47-1.34Zm18.52-1.11c-.7-.95-.35-2.85-2.03-2.6-.66,.1-1.8,1.58-1.64,1.9,.74,1.48,2.32,.49,3.67,.71Zm49.85-22.63c-.09-1.7,.4-3.34-.96-4.45-.48-.39-1.21,.07-1.43,.82-.55,1.86,.29,2.92,2.39,3.63Zm-113.5,68.97c.03-.35-3.93-4.5-4.22-4.38-.32,.14-.63,.37-.84,.65-.33,.41,.02,.7,.33,.86,1.43,.73,2.51,1.84,3.5,3.08,.24,.3,.56,.49,.93,.23,.14-.09,.21-.29,.3-.44Zm79.82-42.05c-5.1,1.06-5.77,1.72-4.31,3.88,1.32-1.19,2.63-2.37,4.31-3.88Zm96.63,17.75c-1.26,.1-2.54,.54-2.53,1.47,.03,1.24,1.21,2,2.7,2.31-.06-1.37-.12-2.54-.18-3.77Zm-23.69-21.53c.73,.94,1.43,1.83,2.27,2.9,.52-1.18,.93-2.08,1.5-3.37-1.47,.44-2.53-.3-3.77,.47Zm-176.79,40.22c.77-.27,2.32,.6,2.29-.48-.04-1.54-1.42-1.19-2.52-.7-.3,.13-.72,.05-1.07,0-.45-.05-1.09-.71-1.21,.28-.09,.71,.49,.88,1.1,.89,.46,0,.92,0,1.42,0Zm24.75,7.34c1.91-.06,3.39,.29,4.63-.74,.33-.28,0-.76-.32-.87-1.56-.52-2.75,.24-4.3,1.61Zm-25.63-66.3c-1.51,.09-2.32,.11-3.13,.19-.62,.06-1.05,.39-.95,1.07,.08,.51,.15,1.2,.49,1.46,.54,.42,.96-.27,1.35-.59,.62-.51,1.17-1.09,2.24-2.12Zm174.51,45.39q-2.71,1.39-.64,3.36c.45-1,.67-2.01,.64-3.36Zm-82.89,27.99c-.28-.74-.79-1.17-1.51-.92-.73,.25-1.81,.3-1.85,1.31-.02,.59,.79,.81,1.31,.55,.67-.33,1.75,.15,2.04-.93Zm14.59-80.48c1.24,.72,1.76,1.89,2.93,1.41,.28-.11,.51-1.2,.29-1.49-.8-1.09-1.76-.33-3.23,.08Zm-47.25,57.39c-.02-1.69,.78-2.76-.47-3.42-.31-.16-1.22,.08-1.24,.22-.15,1.11,.74,1.72,1.71,3.19Z"/>
  <path class="cls-3" d="M203.9,56.79c-3.22,.37-6.33,1.29-9.46,2.08-.18,.04-.37,.09-.55,.13-2.42,.54-4.83,1.08-7.25,1.63-1.49-.16-2.87,.4-4.3,.64-.63,.11-1.28,.3-1.83-.18-1.1-.96-1.22-5.89-.2-7.35,1.25-.08,2.57,.13,3.56-.95,2.71-.59,5.43-1.18,8.14-1.76,2.11-.78,4.13-1.8,6.39-2.14,.32,.11,.69,.39,.96,.32,5.87-1.69,11.85-2.95,17.81-4.24,1.56,.33,2.82-.42,4.1-1.13,7.38-1.69,14.76-3.38,22.14-5.07,2.99-.59,6.04-.94,8.9-2.07,8.51-1.4,16.69-4.12,25.02-6.25,.62,.84,.94,.49,1.13-.3,2.19-.45,4.39-.9,6.58-1.36,.82,.05,1.7,.33,2.31-.55,13.53-3.14,27.07-6.29,40.6-9.43,.22,.04,.44,.08,.66,.11,1.53,1.25,1.31,3.13,1.55,4.76,.17,1.17,.4,2.32,.63,3.48-.55,.05-1.12,.02-1.64,.15-8.11,2.11-16.39,3.43-24.41,6.02-5.96,1.93-12.25,2.85-18.38,4.26-21.1,4.85-42.21,9.68-63.3,14.58-6.39,1.48-12.86,2.65-19.14,4.58Z"/>
  <path class="cls-15" d="M180.31,53.74c-1.02,1.46-.9,6.39,.2,7.35,.54,.48,1.2,.29,1.83,.18,1.43-.25,2.81-.8,4.3-.64,0,.37,0,.75,0,1.12-.78,.23-1.55,.53-2.35,.67-3.45,.62-3.4,.59-2.01,3.94,1.2,2.89,2.8,5.54,4.49,8.15-.46,.03-.92,.07-1.38,.1-4.4-5.52-6.75-11.89-7.39-18.84-.37-3.99,1.23-5.71,5.2-6.54,1.18-.25,2.34-.54,3.52-.76,.96-.18,1.22-.53,.77-1.5-1.49-3.2-5.3-5.51-9.06-5.4-3.86,.11-6.99,2.32-8.36,5.84-.82,2.1-.89,4.35-1.33,6.52-.23,.11-.46,.22-.7,.32l.73,.27c.4,2.01,.03,4.02,.01,6.03-1.6-.57-.95-2-1.16-3.09-.19-.48-.38-.96-.58-1.43,.06-.13,.14-.25,.23-.37,.23-.11,.46-.23,.69-.34-.24-.09-.49-.19-.73-.28-4.58,.64-9.04,1.79-13.44,3.19-.73,.27-1.47,.54-2.2,.81-2.77-.16-5.28,.87-7.83,1.69-4.23,1.18-8.27,2.77-11.34,6.08-1.91,2.05-1.64,3.48,.83,4.82,3.58,1.95,7.48,1.87,11.38,1.56,.99-.08,2.32,.1,2.7-.96,.3-.87-.77-1.57-1.36-2.26-2.21-2.6-1.88-3.68,1.59-4.23,4.47-.7,8.99-1.17,13.48-1.73,.05,1.15,.92,1.05,1.69,1.1-.81,.16-1.62,.45-2.42,.44-1.95,0-2.48,.59-1.46,2.43,1.07,1.93,1.93,3.97,2.88,5.97-.36,.4-.73,.79-1.09,1.19-.52-1.08-1.01-2.17-1.56-3.23-3.13-6.14-3.12-6.08-9.78-4.97-1.74,.29-1.96,.87-1.16,2.32,1.79,3.22,3.5,6.48,5.24,9.73-.53,.2-.66,.64-.69,1.14-2.08-5.34-6-6.34-11.27-5.35-2.98,.56-6.09-.33-8.89-1.71-3.26-1.61-3.77-4.15-1.49-7,2.42-3.02,5.8-4.62,9.31-5.8,1.89-.63,1.98-1.44,1.4-3.03-3.9-10.72-6.69-21.77-9.29-32.86-.23-.97-1.14-2.39,1.11-2.07,2.38,10.38,4.96,20.69,8.38,30.79,2.04,6.05,2,6,8.13,4.56,2-.47,2.42-1.15,1.65-3.19-4.2-11.2-7.47-22.68-10.01-34.37,.46,.15,.93,.3,1.39,.45,3.01,11,5.84,22.04,9.71,32.79,.89,2.48,1.86,3.39,4.5,2.45,2.43-.86,4.99-1.41,7.54-1.84,1.89-.32,2.57-1.16,2.78-3.07,.65-5.74,3.48-9.22,8.14-10.41,5.27-1.35,9.39,.37,12.76,5.46,.77,1.16,1.3,1.93,3.02,1.52,19.42-4.64,38.98-8.73,58.26-13.86,24.97-6.64,50.28-11.8,75.32-18.08,1.15-.29,2.35-.4,3.53-.59,.09,.2,.18,.41,.27,.61-.21,.3-.42,.6-.63,.9-2.35,.48-4.73,.86-7.06,1.45-21.63,5.53-43.55,9.87-65.12,15.71-18.03,4.88-36.39,8.5-54.58,12.83-4.2,1-8.56,1.52-12.5,3.51-2.15-.09-4.14,.76-6.23,1.03-1.71,.22-2.49,1.16-2.56,2.82Z"/>
  <path class="cls-8" d="M141.74,20.07c2.53,11.69,5.8,23.17,10.01,34.37,.77,2.04,.35,2.72-1.65,3.19-6.13,1.45-6.09,1.49-8.13-4.56-3.41-10.1-6-20.41-8.38-30.79,2.26,.38,3.61-1.46,4.26-2.8,.9-1.84,1.93-1.83,3.42-1.61-.04,.77-.13,1.56,.48,2.19Z"/>
  <path class="cls-8" d="M78.89,164.55c-.42-.55-.96-1.09-1.52-.33-.43,.59,.14,1.01,.72,1.17,1.51,.42,3.01,.97,4.55,1.17,2.18,.29,4.39,.33,6,2.15,0,0,.04,.02,.04,.02-.64,1.28-.06,2.02,1.11,2.49h0c0,.78-.04,1.6,1.11,.85,0,0,0,0,0,0,.15,2.61-1.46,2.25-3.14,1.93-.97-.18-1.97-.18-2.96-.27-2.83-1.08-5.82-1.67-8.57-3.02-1.71-.84-3.05-2.42-5.09-2.57-1.47-.81-.98-2.17-.49-3.1,.75-1.43,1.07-2.49,.02-3.99-.68-.96-.77-2.43,.31-3.52,7.1,.43,14.24-.34,21.33,.68,3.04,.44,6.04,.95,8.63,2.74,.97,.67,2.32,1.43,2.05,2.7-.24,1.14-1.8,.31-2.65,.82-.62,.09-1.25,.17-1.87,.26-5.99,.42-11.97,1.24-17.97,.11-.5-.27-.95-.83-1.6-.29Zm-7.49-4.75l.28,.82c.29,.93,1.04,1.45,1.75,2.02,.37,.3,.83,.41,1.12-.12,.29-.53-.13-.8-.48-1.08-.12-.11-.24-.22-.37-.33-.48-.47-.96-.93-1.44-1.39v-.03c-.08-.42-.37-.57-.74-.46-.28,.09-.35,.33-.11,.58Zm4.77,3.33c-.06,.06-.18,.14-.17,.18,.03,.13,.11,.25,.17,.37,.06-.06,.18-.14,.17-.18-.03-.13-.11-.25-.17-.37Zm-.91-.2c-.06-.12-.13-.24-.2-.36-.06,.06-.18,.14-.17,.18,.03,.13,.11,.25,.17,.37,.06-.06,.12-.12,.2-.2Z"/>
  <path class="cls-8" d="M79.91,86.47c6.48,1.1,12.82,2.66,18.57,5.97,5.1,2.94,6.74,6.81,5.77,12.33-.33,1.87-1.37,2.9-3.04,3.95-.62-7.59-6.7-9.27-12.16-11.58-3.44-1.46-7.11-1.02-10.7-.92-1.8,.05-3.09-.11-4.17-1.83-.53-.84-1.25-2.88-3.14-1.43-1.6-1.09-.09-2.17,.16-3.13,.22-.84,.94-1.56,.81-2.56,.7-.33,1.38-.78,2.21-.41,.12,.56-.01,1.77,.77,1.33,1.57-.87,4.12,1.12,4.9-1.72Z"/>
  <path class="cls-8" d="M71.03,122.39c2.03-.6,3.82,1.38,5.88,.58,.11-.04,.37,.11,.46,.25,5.42,8.7,9,17.72,4.86,28.08-1.25,3.12-2.13,3.25-4.25,.57-3-3.78-4.42-8.3-5.87-12.79,.08-1.09-1.05-1.88-.76-3.03,.02-.46,.05-.92,.07-1.37-.35-3.55,.92-7.24-.99-10.67-.31-.56-.09-1.26,.6-1.62Z"/>
  <path class="cls-15" d="M203.9,56.79c6.28-1.93,12.75-3.1,19.14-4.58,21.09-4.9,42.2-9.73,63.3-14.58,6.13-1.41,12.42-2.33,18.38-4.26,8.02-2.59,16.3-3.92,24.41-6.02,.53-.14,1.1-.11,1.64-.15,.18,1.54-1.09,1.55-2,1.77-19.44,4.92-38.94,9.62-58.52,14-21.31,4.77-42.57,9.77-63.85,14.65-.81,.19-1.64,.24-2.47,.35-.01-.39-.03-.79-.04-1.18Z"/>
  <path class="cls-15" d="M300.14,109.49c.45-.43,.89-.85,1.34-1.28,.49,.87,1,1.74,1.48,2.62,.56,1.04,.08,2.62,1.22,3.26,3.04,1.71,5.22,4.23,6.93,7.35,1.48-1.23,1.03-2.77,1.49-3.99,1.22,.23,.86,1.31,1.09,2.06-2.86,5.54,.31,10.83,.86,16.18,.95,9.26,.74,18.11-5.25,25.87-1.42,1.84-3.07,3.47-5.03,4.73-7.47,4.81-14.57,10.29-23.1,13.25-1.19,.41-2.54,.36-3.81,.52,0-.58,0-1.17,0-1.75,6.97-1.3,13.23-4.2,18.86-8.49,.09-.13,.17-.26,.26-.38-.17-.03-.33-.05-.5-.08l-.13,.07-.12-.08c0-.38,0-.76,0-1.14,14.71-2.88,19.8-18.82,17.26-30.37-3.63,3.32-5.87,7.32-5.59,12.56,.09,1.6-.53,3.29-1.08,4.85-1.57,4.46-4.19,8.01-8.92,9.55-.09-.37-.18-.74-.26-1.11,4.8-2.53,7.76-6.46,8.55-11.82,.98-6.69,1.5-13.4-1.32-19.86,.61-.15,.79-.61,.83-1.17,1.89,3.02,2.36,6.46,2.93,9.95,1.19-.31,1.65-1.23,2.2-2.04,2.36-3.47,2.5-7.29,1.38-11.14-1.39-4.81-3.01-9.54-8.16-11.78-.23-.46-.66-.56-1.12-.59-.54-2-.27-4.32-2.27-5.74Z"/>
  <path class="cls-8" d="M118.16,175.92c1.38-.46-.65-1.79,.58-2.29,.5-.07,1.36,.2,1.35-.47,0-.69-.85-.37-1.36-.43-.21-.12-.43-.25-.64-.37,.63-2.48,2.2-.35,3.27-.67-.17,.29-.66,.77-.19,.88,3.53,.83,4.75,4.5,7.79,6.12,2.55,1.37,5.03,2.19,7.77,2.26,4.97,.12,9.94,.1,14.58-2.19,1.02-.5,2.15-.56,2.45,1.16,.13,.76,.88,1.39,1.26,2.13,.5,.94,2.24,1.52,1.68,2.55-.57,1.05-2.25,.69-3.45,.9-9.38,1.04-18.61,.88-27.37-3.28-.7,0-1.04,.25-.76,.99l-.23-.06s-.06-.22-.06-.22c1.2-.55,.57-1.21-.06-1.53-2.02-1.04-2.99-3.13-4.66-4.49-.56-.46-.7-1.84-1.94-.97l-.03-.03Z"/>
  <path class="cls-8" d="M140.43,101.33c3.41,3.16,5.69,6.97,6.82,11.5,.45,1.82,.18,2.06-1.82,1.81-5.34-.67-9.07-3.65-12.42-7.49-3.09-3.56-6.34-6.96-10.76-10.07,5.22-1.32,9.44,.3,13.68,1.63,.36,.18,.72,.35,1.08,.53,.41,.23,.82,.45,1.23,.68l.22,.04s0,.22,0,.22c.27,.11,.53,.22,.8,.32,.26,.46,.65,.73,1.17,.81Z"/>
  <path class="cls-3" d="M189.1,49.9c3.94-1.98,8.3-2.5,12.5-3.5,18.18-4.33,36.55-7.95,54.58-12.83,21.58-5.84,43.49-10.17,65.12-15.71,2.32-.59,4.7-.97,7.06-1.45,.26,.83,2.75,1.45,.24,2.54-.22-.04-.44-.08-.66-.11-1.23-.98-2.57-.59-3.89-.28-7.52,1.74-15.04,3.47-22.57,5.21-4.84,1.12-9.68,2.23-14.51,3.38-.4,.1-1.33,0-.89,.88,.11,.23,.82,.17,1.26,.24-.61,.87-1.48,.59-2.3,.55-2.39-1.63-4.54-.2-6.72,.58-.04,.01,.09,.5,.14,.77-.2,.79-.51,1.13-1.13,.3-.18-1.81-1.37-.74-2.01-.58-7.67,1.9-15.33,3.87-22.99,5.83-.9,.06-1.49,.75-2.61,.73-2.13-.02-4.5,.2-6.27,1.87-.22-.38-.56-.43-.94-.34-6.46,1.45-12.93,2.9-19.39,4.38-.81,.19-1.55,.61-1.85,1.5-1.27,.71-2.53,1.46-4.1,1.13-.93-1.18-2.13-.79-3.29-.53-3.33,.75-6.72,1.35-9.97,2.37-1.85,.58-4.11,.27-5.51,2.08-2.26,.33-4.28,1.35-6.39,2.14-.65-.9-1.56-1.08-2.59-.96-.08-.1-.19-.16-.32-.17Z"/>
  <path class="cls-8" d="M89.8,171.22s0-.01,0-.01c.96-1.42,.02-2-1.11-2.49,0,0-.04-.02-.04-.02,.48-.86,.4-2.23,1.94-2.12,.26,.01,.52,.02,.79,.04,2.62,3.12,5.43,5.9,9.68,6.79,4.83,1.01,9.64,1.4,14.51,.42,.32,.14,.64,.28,.97,.41,.52,.58,.43,1.77,1.64,1.67,0,0,.03,.03,.03,.03-.51,.46-.05,.79,.19,1.1q1.96,2.62-1.31,3.29c-7.23,.58-14.05-.86-20.55-4.03-.54-.3-1.11-.73-1.45,.23,0,0,0,0,0,0-.33-2.48-2.44-3.3-4.16-4.48,0,0,0,0,0,0,.13-.95-.13-1.36-1.11-.83Z"/>
  <path class="cls-15" d="M313.57,110.22c.16,1.25,.31,2.5,.47,3.75-.39,.04-.79,.07-1.18,.11-.58-6.53-2.9-12.16-8.26-16.26-.4-.3-1.05-.67-.47-1.3,.5-.54,1.04-.11,1.44,.23,1.12,.94,2.19,1.92,3.55,3.12,.95-4.53,.2-8.3-2.76-11.54-2.56-2.8-5.9-4.01-9.54-4.59,.18-.45,.36-.9,.54-1.35,1.22-.04,2.34,.3,3.42,.84,.21,.06,.42,.12,.63,.18,7.57,2.83,10.91,8.93,9.14,16.86-.2,.91-.12,1.57,.39,2.31,.99,1.45,1.74,3.03,2.05,4.79,.06,.98-.4,2.06,.58,2.86Z"/>
  <path class="cls-15" d="M125.89,182.22c8.76,4.16,17.99,4.32,27.37,3.28,.05,.78,.57,1,1.23,1.07-9.18,1.75-18.2,1.5-26.96-2.12-.58-.24-1.1-.64-1.64-.97,0-.42,0-.85,0-1.27Z"/>
  <path class="cls-13" d="M215.05,68.33c0,.4-.02,.81-.03,1.21-1.46,.35-2.93,.71-5.34,1.29,1.31,.94,2.03,1.46,2.76,1.99-.29,.28-.58,.56-.87,.83-5.49-3.78-11.59-5.64-18.24-5.74-.03-.67-.05-1.34-.08-2.01,4.64,.73,9.31,1.35,13.67,3.28,1.59,.71,3.06-.15,4.58-.43,1.17-.21,2.36-.29,3.54-.43Z"/>
  <path class="cls-15" d="M96.53,176.3c6.49,3.17,13.32,4.61,20.55,4.03,0,.37,0,.74,0,1.11-7.57,.66-15.02,.69-21.48-4.26,.31-.29,.62-.59,.93-.88Z"/>
  <path class="cls-15" d="M71.14,168.12c2.04,.16,3.38,1.73,5.09,2.57,2.75,1.35,5.74,1.94,8.57,3.02,0,.39,.02,.78,.02,1.17-4.38-.51-8.34-2.12-12.06-4.43-.9-.56-1.71-1.12-1.63-2.34Z"/>
  <path class="cls-11" d="M216.12,187.88c-.43,.42-.95,.44-1.5,.37-.21,.04-.42,.08-.63,.12-1.59,.74-3.31,.84-5.02,.96-.58-.04-1.17-.15-1.68,.27-2.26,.44-4.52,.34-6.78,.03-.47-.35-1.13-.63-.51-1.39,5.41,.25,10.75-.29,16.01-1.57,.04,.4,.07,.8,.11,1.2Z"/>
  <path class="cls-8" d="M72.9,150.18c.52,.38,1.04,.76,1.55,1.14-1.27,1.12-1.17,2.64-.32,3.67,.74,.91,1.52-.55,2.35-.79,.79,1.18,.9,2.06-.91,2.1-1.38,.03-2.76,.05-4.14,.07-.18-1.26-.4-2.52-.53-3.79-.15-1.44,.53-2.27,2-2.4Z"/>
  <path class="cls-11" d="M261.19,70.67c1.6,.52,3.18-.22,4.77-.1,.67,.1,1.35,.24,1.91-.32,.56-.03,1.13-.06,1.69-.08,.19,.29,.38,.27,.55-.02,.38,0,.75,0,1.13,0,.19,.39,.37,.79,.56,1.18-1.83,.17-3.66,.31-5.48,.52-.73,.08-1.88-.2-1.44,1.26-.27,.29-.55,.58-.82,.87-1.62-.98-3.25-1.96-4.87-2.94,.13-.13,.25-.26,.38-.39,.54,.01,1.08,.02,1.62,.03Z"/>
  <path class="cls-11" d="M117.08,181.45c0-.37,0-.74,0-1.11q3.27-.68,1.31-3.29c-.23-.31-.7-.64-.19-1.1,1.24-.88,1.38,.51,1.94,.97,1.67,1.36,2.64,3.45,4.66,4.49,.63,.32,1.25,.98,.06,1.53-2.33-1.87-5.06-1.63-7.77-1.49Z"/>
  <path class="cls-11" d="M84.82,174.89c0-.39-.02-.78-.02-1.17,.99,.08,1.99,.08,2.96,.27,1.68,.32,3.3,.68,3.14-1.93,1.72,1.18,3.83,2,4.16,4.48-1.6-.32-3.2-.64-4.8-.96-.25-.03-.49-.06-.74-.09-.47-.04-.94-.08-1.41-.12-.32-.54-.67-.6-1.07-.08-.79,.11-1.53-.04-2.23-.38Z"/>
  <path class="cls-15" d="M200,188.25c-.62,.75,.03,1.04,.51,1.39-2.39-.06-4.66-.71-6.84-1.56-1.41-.55-2.77-.75-4.23-.55,.91-1.06,2.67,.24,3.42-1.25,2.38,.66,4.76,1.32,7.14,1.98Z"/>
  <path class="cls-13" d="M297.37,82.39c-.18,.45-.36,.9-.54,1.35-1.3-.08-2.6-.15-3.9-.23,0-.39,0-.79,0-1.18,1.35-.19,2.09-.65,1.02-2.06-.43-.57-.79-1.19-1.19-1.79,.29-.29,.58-.59,.87-.88,1.95,1.05,1.74,3.78,3.74,4.79Z"/>
  <path class="cls-11" d="M278.82,70.55c1.07-.15,2.07,.09,3.05,.48,.21,.04,.43,.08,.64,.12,1.15,.16,2.25,.43,3.23,1.09,0,.2,0,.4,.01,.59-.17,.18-.33,.36-.5,.53-3.65-1.33-7.48-1.6-11.3-2.01,1.43-1.43,3.28-.32,4.86-.81Z"/>
  <path class="cls-11" d="M277.34,178.31c0,.58,0,1.17,0,1.75-.71,.43-1.47,.38-2.24,.27-.82-.81-1.85-.45-2.79-.46-1.06-.02-1.73-.3-1.64-1.51,2.22-.02,4.44-.03,6.67-.05Z"/>
  <path class="cls-13" d="M312.86,114.08c.39-.04,.79-.07,1.18-.11,.3,1.88,.44,3.74-.36,5.54-.23-.75,.13-1.83-1.09-2.06,.09-1.12,.18-2.25,.27-3.37Z"/>
  <path class="cls-13" d="M278.82,70.55c-1.58,.49-3.43-.63-4.86,.81-.72-.01-1.44-.02-2.16-.03-.19-.39-.37-.79-.56-1.18,2.55-.22,5.09-.43,7.58,.41Z"/>
  <path class="cls-15" d="M270.68,178.36c-.1,1.2,.57,1.49,1.64,1.51,.94,.02,1.97-.35,2.79,.46-2.09,.32-4.16,.29-6.17-.46,.68-.35,.62-.99,.62-1.61,.37,.03,.75,.07,1.12,.1Z"/>
  <path class="cls-13" d="M102,89.78c-1.85,.16-3.72,.91-5.53-.19,1.85-.03,3.7-.34,5.53,.19Z"/>
  <path class="cls-11" d="M287.13,72.77c.15-.03,.23,.03,.24,.18,.26,.14,.52,.28,.78,.41,.15-.07,.26-.02,.33,.13,.24,.15,.48,.29,.72,.44,.86,.18,1.42,.81,2.02,1.39-.32,.28-.65,.56-.97,.84-1.66-.93-3.33-1.86-4.99-2.79,.17-.18,.33-.36,.5-.53,.46-.02,.92-.04,1.38-.07Z"/>
  <path class="cls-13" d="M141.74,20.07c-.61-.63-.52-1.42-.48-2.19,1.69-.76,1.41,.81,1.84,1.55,.05,.18,.1,.36,.14,.54-.04,.18-.08,.37-.12,.55-.46-.15-.93-.3-1.39-.45Z"/>
  <path class="cls-13" d="M140.43,101.33c-.52-.09-.91-.35-1.17-.81-.05-.45-.09-.91-.14-1.36,1.11,.09,1.84,.79,2.51,1.58-.49,.03-.97,.06-1.2,.6Z"/>
  <path class="cls-13" d="M235.38,68.77c-1.51,.5-2.99,1.21-4.65,.63,1.6,.15,2.99-1.26,4.65-.63Z"/>
  <path class="cls-13" d="M176.07,189.3c.87-.83,1.79-.76,2.73-.13-.89,.41-1.81,.33-2.73,.13Z"/>
  <path class="cls-14" d="M70.89,137.51c.15-.48,.31-.97,.46-1.45-.29,1.15,.84,1.93,.76,3.03-.34,.06-.69,.11-1.03,.17-.06-.58-.13-1.17-.19-1.75Z"/>
  <path class="cls-15" d="M216.12,187.88c-.04-.4-.07-.8-.11-1.2,.39-.11,.79-.21,1.18-.32,.28,.61,.85,.71,1.42,.8-.74,.56-1.63,.6-2.49,.72Z"/>
  <path class="cls-15" d="M228.43,188.03c.72-.56,1.43-.58,2.13,.04-.71,.25-1.43,.32-2.13-.04Z"/>
  <path class="cls-15" d="M222.23,187.09c.79-.18,1.86,.41,2.25-.84,.19,.08,.38,.16,.57,.24v1.14c-1,.08-1.96,.04-2.82-.54Z"/>
  <path class="cls-13" d="M313.57,110.22c-.98-.79-.51-1.88-.58-2.86,.35,.92,.73,1.83,.58,2.86Z"/>
  <path class="cls-14" d="M71.31,145.74c.2,.02,.41,.04,.61,.06,0,.6,0,1.2-.01,1.8-.27,.23-.54,.47-.81,.7-.51-.9-.29-1.74,.2-2.56Z"/>
  <path class="cls-11" d="M291.22,75.32c.2,.17,.41,.34,.61,.5,.16,.14,.32,.27,.48,.41,.29,.3,.57,.59,.86,.89-.29,.27-.57,.55-.86,.82-.69-.6-1.37-1.19-2.06-1.79,.32-.28,.65-.56,.97-.84Z"/>
  <path class="cls-15" d="M155.48,186.52c.63-.81,1.5-.51,2.31-.52-.71,.42-1.46,.72-2.31,.52Z"/>
  <path class="cls-13" d="M248.94,67.42c-.56,.6-1.1,.59-1.63-.05,.55-.2,1.09-.25,1.63,.05Z"/>
  <path class="cls-13" d="M244.5,67.37c-.51,.63-1.05,.65-1.62,.07,.53-.32,1.07-.26,1.62-.07Z"/>
  <path class="cls-15" d="M238.38,187.12c.67-.9,1.62-.54,2.49-.53-.79,.35-1.59,.67-2.49,.53Z"/>
  <path class="cls-13" d="M137.02,99.25c-.36-.18-.72-.35-1.08-.53,.11-.4,.22-.81,.33-1.21,.64,.14,1.26,.32,1.69,.86-.31,.29-.63,.59-.94,.88Z"/>
  <path class="cls-13" d="M238.38,67.93c-.5,.64-1.17,.51-1.84,.43,.56-.39,1.13-.71,1.84-.43Z"/>
  <path class="cls-13" d="M261.19,70.67c-.54-.01-1.08-.02-1.62-.03-.02-.27-.03-.53-.05-.8,.64,.1,1.27,.25,1.68,.83Z"/>
  <path class="cls-13" d="M170,189.1c.61-.64,1.07,0,1.58,.19-.56,.23-1.09,.2-1.58-.19Z"/>
  <path class="cls-11" d="M137.02,99.25c.31-.29,.63-.59,.94-.88,.76,.4,1.48,.8,.29,1.56-.41-.23-.82-.45-1.23-.68Z"/>
  <path class="cls-15" d="M192.74,63.41c-.53-.3-.63-.65-.11-1.06,.33,.32,.28,.69,.11,1.06Z"/>
  <path class="cls-15" d="M87.06,175.27c.4-.52,.75-.46,1.07,.08-.37,.19-.73,.19-1.07-.08Z"/>
  <path class="cls-13" d="M164.9,188.21c.8-.02,1.65-.27,2.26,.52-.75-.17-1.5-.35-2.26-.52Z"/>
  <path class="cls-13" d="M252.33,67.87c-.54-.06-1.07-.12-1.61-.18,.57-.24,1.09-.02,1.61,.18Z"/>
  <path class="cls-15" d="M194.99,60.02c.5-.63,1.18-.49,1.85-.43-.56,.39-1.17,.53-1.85,.43Z"/>
  <path class="cls-15" d="M207.29,189.6c.51-.42,1.1-.31,1.68-.27-.52,.34-1.08,.43-1.68,.27Z"/>
  <path class="cls-13" d="M267.87,70.25c-.56,.57-1.24,.42-1.91,.32,.59-.37,1.24-.44,1.91-.32Z"/>
  <path class="cls-13" d="M173.13,189.37c.63,0,1.26-.02,1.9-.03-.63,.3-1.26,.32-1.9,.03Z"/>
  <path class="cls-13" d="M287.13,72.77c-.46,.02-.92,.04-1.38,.07,0-.2,0-.4-.01-.6,.46,.18,.93,.35,1.39,.53Z"/>
  <path class="cls-11" d="M293.63,77.61c-.29,.29-.58,.59-.87,.88-.15-.18-.3-.36-.45-.55,.29-.27,.57-.55,.86-.82,.15,.16,.31,.32,.46,.48Z"/>
  <path class="cls-13" d="M258.6,69.48c-.52,.1-.98,.05-1.28-.46,.43,.15,.85,.31,1.28,.46Z"/>
  <path class="cls-11" d="M96.53,176.3c-.31,.29-.62,.59-.93,.88-.32-.11-.63-.21-.52-.66,.35-.96,.91-.53,1.45-.23Z"/>
  <path class="cls-13" d="M113.31,92.33c-.52,.08-.97-.02-1.25-.52,.52-.07,.91,.17,1.25,.52Z"/>
  <path class="cls-15" d="M267.89,179.83c.09-.24,.18-.48,.27-.72,.09,.24,.19,.48,.28,.71-.19,0-.37,0-.56,.01Z"/>
  <path class="cls-9" d="M328.98,15.5c-.09-.2-.18-.41-.27-.61,.42,.05,.54,.25,.27,.61Z"/>
  <path class="cls-13" d="M117.13,94.03c-.2-.11-.4-.23-.6-.34,.2,.11,.4,.23,.6,.34Z"/>
  <path class="cls-1" d="M143.25,19.97c-.05-.18-.1-.36-.14-.54,.39,.09,.57,.24,.14,.54Z"/>
  <path class="cls-15" d="M89.53,175.47c.25,.03,.49,.06,.74,.09-.25-.03-.49-.06-.74-.09Z"/>
  <path class="cls-13" d="M241.7,67.59c-.28,.05-.56,.1-.84,.15,.28-.05,.56-.1,.84-.15Z"/>
  <path class="cls-13" d="M254.76,68.34c-.25-.09-.51-.18-.76-.28,.25,.09,.51,.18,.76,.28Z"/>
  <path class="cls-13" d="M229.57,68.96c-.19-.05-.38-.1-.57-.14,.19,.05,.38,.1,.57,.14Z"/>
  <path class="cls-13" d="M270.12,70.15c-.18,.29-.36,.31-.55,.02,.18,0,.37-.01,.55-.02Z"/>
  <path class="cls-11" d="M125.89,182.22c0,.42,0,.85,0,1.27-.25-.09-.5-.18-.75-.28-.29-.74,.06-1,.76-.99Z"/>
  <path class="cls-13" d="M282.51,71.15c-.21-.04-.43-.08-.64-.12,.21,.04,.43,.08,.64,.12Z"/>
  <path class="cls-13" d="M288.16,73.36c-.26-.14-.52-.28-.78-.41,.26,.14,.52,.28,.78,.41Z"/>
  <path class="cls-2" d="M221.06,186.74c-.05-.13-.11-.27-.16-.4-.01,.08-.06,.17-.03,.22,.03,.06,.13,.08,.2,.12,0,0,0,.06,0,.06Z"/>
  <path class="cls-13" d="M289.2,73.93c-.24-.15-.48-.29-.72-.44,.24,.15,.48,.29,.72,.44Z"/>
  <path class="cls-15" d="M213.99,188.37c.21-.04,.42-.08,.63-.12-.21,.04-.42,.08-.63,.12Z"/>
  <path class="cls-13" d="M167.59,188.81c.19,.02,.39,.05,.58,.07-.19-.02-.39-.05-.58-.07Z"/>
  <path class="cls-13" d="M292.31,76.23c-.16-.14-.32-.27-.48-.41,.16,.14,.32,.27,.48,.41Z"/>
  <path class="cls-13" d="M301.42,83.42c-.21-.06-.42-.12-.63-.18,.21,.06,.42,.12,.63,.18Z"/>
  <path class="cls-13" d="M110.05,91.18c-.24-.07-.49-.14-.73-.21,.24,.07,.49,.14,.73,.21Z"/>
  <path class="cls-13" d="M111.73,91.74c-.25-.07-.49-.15-.74-.22,.25,.07,.49,.15,.74,.22Z"/>
  <path class="cls-13" d="M118.23,94.61c-.19-.12-.39-.23-.58-.35,.19,.12,.39,.23,.58,.35Z"/>
  <path class="cls-13" d="M143.72,100.56c-.04,.38-.24,.62-.62,.69,.21-.23,.41-.46,.62-.69Z"/>
  <path class="cls-11" d="M139.12,99.15c.05,.45,.09,.91,.14,1.36-.27-.11-.53-.22-.8-.32-.29-.67,.01-.96,.66-1.04Z"/>
  <path class="cls-13" d="M115.72,93.38c-.29-.15-.57-.3-.86-.45,.29,.15,.57,.3,.86,.45Z"/>
  <path class="cls-8" d="M312.86,114.08c-.09,1.12-.18,2.25-.27,3.37-.45,1.22,0,2.75-1.49,3.99-1.71-3.12-3.89-5.64-6.93-7.35-1.14-.64-.66-2.22-1.22-3.26-.47-.88-.98-1.75-1.48-2.62,.61-4.27-.02-8.44-1.23-12.51,.31-.12,.46-.23,.6-.22,1.01,.1,2.17,1.92,2.76,.75,.65-1.3-1.41-1.5-2.27-2.19-.49-.4-1.13-.69-1.74-.83-.92-.21-1.99-1.48-2.73-.5-.87,1.17,1.08,1.07,1.34,1.84,1.37,4.05,2.68,8.13,1.66,12.48-.3,1.29-1.1,2.36-2.58,2.61-1.46,.24-2.21-.73-2.88-1.75-2.96-4.54-3.75-9.79-4.85-14.93-.19-.9,.26-1.16,1.11-.95,.71,.18,1.43,.29,2.15,.44,.19,.03,.38,.07,.57,.1,.54,.16,1.09,.31,1.63,.47,.48,.21,.93,.6,1.49,.2,.68-1.8-.92-1.36-1.65-1.56-3.8-1.05-7.67-1.91-11.11-3.96-.61-.36-1.55-.6-1.46-1.45,.1-.91,1.13-.71,1.77-.95,2.87-1.05,5.9-1.29,8.88-1.77,1.3,.08,2.6,.15,3.9,.23,3.64,.58,6.98,1.79,9.54,4.59,2.96,3.24,3.71,7,2.76,11.54-1.36-1.2-2.44-2.18-3.55-3.12-.41-.34-.94-.77-1.44-.23-.59,.63,.07,1,.47,1.3,5.35,4.1,7.68,9.74,8.26,16.26Z"/>
  <path class="cls-6" d="M151.93,115.04c-2.32,.19-3.04-.51-2.7-2.08,2.35-10.96,3.4-22.31,8.84-32.39,2.06-3.82,5.36-6.35,9.88-6.85,.92-.1,1.9-.56,1.38,1.26-2.49,8.68-4.77,17.43-7.29,26.1-1.16,3.98-2.58,7.91-5.38,11.13-1.45,1.67-3.22,2.76-4.73,2.83Z"/>
  <path class="cls-6" d="M182.9,88.57c-3.83,.04-8.05-.13-11.14-3.88-2.57-3.13-2.54-8.37,.19-11.23,.63-.66,1.09-.9,1.74-.02,3.31,4.44,7.81,4.48,12.73,3.7,6.1-.97,12.25-2.06,18.45-.65,.98,.22,1.96,.51,2.91,.86,.94,.34,.8,.84,.09,1.36-4.52,3.29-8.79,6.93-14.39,8.48-3.34,.92-6.67,1.45-10.59,1.39Z"/>
  <path class="cls-6" d="M174.27,88.9c2.96,.69,5.55,1.27,8.23,1.4,1.8,.09,3.34,1.09,4.68,2.26,6.96,6.07,11.87,13.63,15.66,21.97,.3,.66,.43,1.43,.5,2.16,.22,2.41-.87,3.14-3.14,2.17-10.62-4.55-17.79-12.62-23.01-22.66-1.15-2.22-2.16-4.49-2.9-7.3Z"/>
  <path class="cls-8" d="M170.6,161.68c-.03-.73,.12-1.56-1.03-1.54,0,0-.09-.06-.09-.06,1.17-1.45-.33-2.43-.62-3.63-.08-.55-.15-1.09-.23-1.64,.44-1.7,.87-3.4,1.31-5.11,.09-.36,.12-.98,.29-1.03,3.6-.95,.93-2.6,.4-3.88-2.02-4.85-2.77-9.94-3.2-15.12-.12-1.47,.59-1.76,1.84-1.54,1.64,.28,3.29,.52,4.93,.77,1,.15,1.53,.58,1.86,1.68,1.03,3.45,2.37,6.81,3.41,10.26,1.61,5.34-.85,8-6.29,6.94-.46-.09-.96-.35-1.2,.18-.32,.7,.29,.97,.78,1.2,.5,.23,1.06,.62,1.54,.56,3.32-.42,4.01,1.94,4.64,4.32,1.04,3.92,1.21,7.88,.02,11.79-.65,2.15-1.51,4.33-4.45,4.07-2.85-.26-3.12-2.36-3.2-4.58-.06-.28-.11-.55-.17-.83-.14-.66-.27-1.31-.41-1.96-.05-.28-.1-.55-.16-.83Z"/>
  <path class="cls-8" d="M168.74,53.93c.44-2.17,.5-4.42,1.33-6.52,1.37-3.52,4.51-5.72,8.36-5.84,3.76-.11,7.57,2.2,9.06,5.4,.45,.97,.2,1.32-.77,1.5-1.18,.22-2.35,.52-3.52,.76-3.98,.83-5.57,2.55-5.2,6.54,.64,6.95,2.99,13.32,7.39,18.84-.98,1.76-3.77,2.24-6.26,1.1-5.42-2.46-7.18-7.56-9.02-12.58-.3-.82-.05-1.93-1.28-2.19,.03-.13,.01-.26-.05-.39,.02-2.01,.39-4.02-.01-6.03,0-.2-.02-.39-.03-.59Z"/>
  <path class="cls-8" d="M258.15,112.43c0,1.37-.48,2.27-2.34,1.82-2.23-.54-5.2-1.09-6.35-2.23-6.56-6.54-15.71-10.98-18.16-21.08-.37-1.55-1.04-2.71,1.72-2.47,11.55,.99,17.4,9.3,23.16,17.72,1.18,1.73,1.67,3.9,1.97,6.24Z"/>
  <path class="cls-8" d="M160.37,167.9c2.18,.54,4.2,1.4,5.91,2.89,1.05,.91,1.45,1.7-.37,2.24-7.43,2.22-14.87,4.3-22.48,5.92-4.57,.97-8.46-.1-12.57-1.21-2.12-.57-3.77-1.93-5.13-3.62-.79-.98-.63-1.58,.75-1.8,2.09-.34,4.15-.84,6.23-1.27,1.13-.21,2.26-.42,3.4-.63,5.15-.88,10.29-1.75,15.44-2.63,1.12-.08,2.25-.15,3.37-.23,.37,0,.74-.01,1.11-.02,1.45,.12,2.89,.24,4.34,.35Z"/>
  <path class="cls-8" d="M111.52,93.02c7.76,3.01,14.28,7.69,19.35,14.33,.39,.51,.78,1.05,1.06,1.62,.78,1.59,1.73,3.24-.27,4.66-1.87,1.32-5.28,1.07-6.37-.56-3.64-5.45-9.43-7.19-15.22-8.8-2.58-.72-4.35-1.38-4.45-4.73-.1-3.39-2.5-5.86-5.37-7.67-.26-.53,.05-.81,.45-1.05,3.29,.58,6.59,1.16,9.88,1.74,.32,.15,.63,.3,.94,.45Z"/>
  <path class="cls-8" d="M121.37,171.68c-1.07,.32-2.64-1.81-3.27,.67-5.52,.56-11.03,1.11-16.51-.32-2.54-.66-4.89-1.68-6.72-3.62-.36-.38-.84-.94-.79-1.36,.09-.88,1-.61,1.58-.68,6.4-.78,12.81-1.52,19.22-2.28,2.04-.15,4.07-.3,6.11-.44,1.04-.34,2.72,1.12,3.09-1.1l.03,.03c-.02,1.46,1.05,1.04,1.85,1.06,.38,.02,.77,.04,1.15,.07,3.72,.84,7.66,1.21,10.06,4.82-.9,1.19-2.54,.05-3.48,1.09-.34,.08-.68,.15-1.02,.23-.38,.04-.75,.08-1.13,.12-.41,.11-.82,.22-1.23,.33-.53,.09-1.05,.19-1.57,.28-.59,.09-1.19,.18-1.78,.28-1.25,.15-2.49,.3-3.74,.46-.07-.36-.19-.82-.63-.67-.23,.08-.33,.56-.49,.86-.24,.06-.48,.12-.72,.18Z"/>
  <path class="cls-8" d="M183.18,179.79c-2.93,.75-5.86,1.5-8.78,2.26-2.4,.05-4.81,.09-7.21,.14-2.88-.62-5.83-1.05-7.57-3.92-.48-.8-1.05-1.45,.29-1.84,8.05-2.33,15.83-5.67,24.24-6.59,4.15-.46,8.11,.32,11.7,2.55,.5,.31,1.37,.43,1.24,1.26-.1,.63-.83,.65-1.33,.84-3.78,1.46-7.56,2.91-11.34,4.36-.74-.11-.93,.49-1.24,.95Z"/>
  <path class="cls-8" d="M217.19,186.36l-1.18,.32c-5.26,1.28-10.6,1.81-16.01,1.57-2.38-.66-4.76-1.32-7.14-1.98-1.27-.72-2.54-1.44-3.82-2.16-.35-.4-.67-.96-1.29-.6-.31,.18-.33,.61,.03,.9,.03,.7,2.28,1.58-.05,2.08-8.45,1.79-16.9,2.71-25.23-.59-2.91-1.15-5.27-3.04-7-5.66-.48-.72-1.18-1.73-.22-2.43,1.07-.78,2.18-.33,2.75,.85,1.15,2.37,3.17,3.44,5.57,4.03,.63,.16,1.26,.32,1.89,.48,.1,.13,.22,.16,.36,.07,2.87,.81,5.74,.64,8.6-.08,.48,.01,.97,.07,1.27-.43,.57,.53,1.12,.17,1.67-.04,.31-.08,.62-.16,.93-.24,.41-.11,.82-.22,1.23-.33,2.04,.05,4.17-2.2,6.17,.26,.22,.27,.81-.27,.59-.81-.41-.98-.08-1.55,.88-1.84,.82,.16,.74-.67,1.1-1.02,1.77-.77,2.67-.1,4,1.37,4.34,4.81,10,5.55,16.07,4.07,.89-.22,1.75-.58,2.62-.91,2.05-.78,5.61,.51,6.65,2.47,.05,.1-.29,.42-.45,.63Z"/>
  <path class="cls-8" d="M207.23,91.06c6.62-.95,10.3,2.65,13.6,6.62,3.27,3.94,5.47,8.58,7.43,13.3,.53,1.26,.87,2.64-.35,3.56-1.17,.89-1.99-.41-2.9-.94-2.33-1.34-4.64-2.7-6.99-4-6.56-3.63-10.57-9.39-13.6-16.03-.85-1.86-.93-2.92,1.6-2.53,.63,.1,1.29,.01,1.22,.01Z"/>
  <path class="cls-8" d="M263.92,79.1c-12.41,5.64-24.34,11.33-38.31,5.88,2.09-2.28,4.8-3.14,7.06-4.4,4.57-2.54,9.51-4.5,14.77-5.35,5.88-.94,11.32-.01,16.48,3.87Z"/>
  <path class="cls-8" d="M304.34,132c2.82,6.46,2.3,13.17,1.32,19.86-.78,5.36-3.75,9.29-8.55,11.82-.89,.17-1.78,.34-2.96,.56,2.61-7.63,2.92-15.33,2.89-23.09-.01-4.34,1.94-8.04,4.45-11.43,.64-.86,1.46-1.3,1.96,.21,0,0,0,.05,0,.05,.15,.58,.06,1.48,1.13,.85h0c-.71,.25-.55,.7-.27,1.17Z"/>
  <path class="cls-8" d="M218.16,169.11c2.41,0,4.57,.74,6.57,1.99,.71,.45,1.61,1.13,.27,1.8-5.51,2.74-9.83,7.46-15.79,9.45-4.91,1.64-9.64,1.52-14.04-1.53-.45-.31-.94-.63-1.28-1.06-1.16-1.46-1.69-2.52,.86-3.36,6.56-2.15,12.79-5.27,19.58-6.75,1.26-.27,2.55-.36,3.83-.54Z"/>
  <path class="cls-8" d="M233.42,78.23c-7.2,4.05-14.04,8.63-22.08,10.72-3.55,.92-7.14,1.17-10.58-.6-1.44-.74-2.17-1.33-.19-2.55,3.52-2.17,6.75-4.83,10.34-6.86,5.92-3.34,12.24-4.7,18.97-2.6,1.24,.39,2.42,.9,3.54,1.89Z"/>
  <path class="cls-8" d="M97.21,144.39c0-1.08-.1-2.13-.6-3.11,.04-.06,.11-.14,.1-.19-.03-.14-.11-.26-.17-.39,0-.55,.02-1.11,.02-1.66,0-1.11-.25-2.41,.5-3.22,.9-.98,1.73,.55,2.68,.54,.73,0,1.61,.22,2.18-.09,2.23-1.22,3.65,0,4.58,1.66,2.88,5.13,4.99,10.52,4.51,16.59-.02,.28-.02,.56-.07,.83-.39,2.23-.85,4.8-3.19,5.43-2.33,.63-3.3-1.9-4.48-3.46-2.24-2.98-3.37-6.55-5.02-9.84-.22-1.08-.36-2.18-1.06-3.1Z"/>
  <path class="cls-8" d="M291.1,157.45c3.47-.12,3.45-.05,2.71,3.13-1.28,5.45-5.49,8.19-9.87,10.63-4.74,2.64-9.89,3.52-15.29,2.42-.8-.16-1.84-.16-2.13-.94-.29-.78,.73-1.18,1.23-1.66,5.84-5.62,12.18-10.47,19.98-13.11,1.19-.4,2.37-.31,3.38-.46Z"/>
  <path class="cls-6" d="M168.97,83.65c6.15,9.21,10.39,18.87,7.77,30.32-.28,1.23-.56,2.26-1.92,2.75-1.52,.55-2.22-.52-3.03-1.34-3.15-3.22-4.32-7.3-4.61-11.61-.44-6.74-.03-13.44,1.78-20.12Z"/>
  <path class="cls-3" d="M168.78,60.56c.06,.12,.07,.25,.05,.39-.44,2.74-2.76,2.29-4.56,2.66-1.06,.21-2.15,.27-3.22,.4-4.5,.57-9.01,1.03-13.48,1.73-3.47,.54-3.8,1.63-1.59,4.23,.59,.69,1.66,1.39,1.36,2.26-.37,1.06-1.71,.89-2.7,.96-3.9,.31-7.79,.39-11.38-1.56-2.47-1.34-2.74-2.77-.83-4.82,3.07-3.31,7.1-4.9,11.34-6.08,0,.31,0,.63,0,.94-2.8,1.19-5.72,2.18-7.96,4.37-.84,.82-1.83,1.72-1.1,3.12,.85,1.66,4.67,2.41,6.48,1.28-.72-.82-1.77-.29-2.59-.64-.96-.42-2.48-.15-2.67-1.55-.16-1.15,1.04-1.68,1.86-2.23,3.1-2.07,6.54-3.33,10.11-4.37,.91-.27,2.67,.24,2.64-1.69,.36-.31,.72-.61,1.08-.92,.73-.27,1.47-.54,2.2-.81,.2,.28,.41,.56,.61,.83,1.17,1.14,2.41,.33,3.61,.1,3.19-.61,6.22-2.18,9.6-1.7,.21,1.1-.44,2.52,1.16,3.09Z"/>
  <path class="cls-6" d="M209.94,115.11c-.13,.89,.4,2.6-1.24,3.44-1.14,.58-2.13-.21-3.02-.88-.27-.21-.55-.52-.63-.84-2.11-8.32-7.37-14.77-12.57-21.27-2.87-3.59-1.63-6.79,2.91-7.52,.83-.13,1.46,.11,1.97,.71,6.08,7.18,11.8,14.53,12.57,24.44,.04,.46,0,.93,0,1.91Z"/>
  <path class="cls-8" d="M231.11,164.88c-.02,3.88-2.31,5.21-5.45,3.91-2.1-.87-3.7-2.42-5.08-4.19-3.11-3.97-5.18-8.49-7.11-13.1-.55-1.32-.28-2.07,1.2-2.33,.62-.11,1.25-.36,1.81-.65,1.49-.78,2.77-1.91,4.47-.02,.94,1.05,3.06-.25,4.12,1.9,2.43,4.96,5.51,9.62,6.05,14.48Z"/>
  <path class="cls-8" d="M190.05,147.74c6.86,4.48,9.48,12.08,12.09,19.69,.24,.69,.32,1.45,.36,2.18,.12,1.97-.66,2.71-2.69,2.1-6.26-1.88-9.59-6.57-11.98-12.22-.25-.59-.43-1.22-.65-1.83-1.4-3.91-2.97-7.87,2.86-9.92Z"/>
  <path class="cls-8" d="M258.26,89.12c3.57,1.13,6.57,1.21,9.59,.97,.7-.06,1.22,.36,1.71,.79,4.38,3.86,8.55,7.92,11.64,12.94,.58,.94,1.09,1.95,1.44,2.99,.54,1.65,.66,3.35-.98,4.52-1.76,1.26-2.69-.37-3.73-1.28-3.68-3.23-7.15-6.72-11.01-9.72-3.7-2.88-5.69-6.88-8.67-11.21Z"/>
  <path class="cls-8" d="M249.22,178.78c-1.95-.13-4.51-.36-6.79-1.78,1.18-2.05,3.34-2.95,5.13-4.26,3.42-2.52,7.05-4.76,10.88-6.61,3.97-1.9,8.11-3.07,12.58-2.5,.53,.07,1.26-.06,1.49,.52,.3,.77-.5,1.08-.94,1.49-2.45,2.26-4.92,4.49-7.37,6.74-4.07,3.74-8.64,6.34-14.98,6.4Z"/>
  <path class="cls-8" d="M169.9,163.8c-.35,1.7,1.1,4.07-1.1,5.02-2,.87-3.66-.87-5.18-2-5.77-4.3-7.62-10.71-9.09-17.29-.2-.89-.04-1.64,1.11-1.81,1.83-.27,3.12-1.53,4.35-2.49,5.4,3.64,6.53,9.75,8.97,15.09l.38,1.26c.15,.54,.29,1.09,.44,1.63-.02,.07-.08,.15-.06,.21,.04,.13,.12,.26,.19,.38Z"/>
  <path class="cls-8" d="M286.8,82.96c-7.16,1.76-13.49,5.71-20.94,5.73-3.39,0-6.67-.25-9.48-2.42-1.07-.82-1.69-1.6,.17-2.23,5.64-1.91,10.89-4.94,16.91-5.76,1.95-.27,3.88-.47,5.81-.24,3.12,.38,5.88,1.51,7.52,4.92Z"/>
  <path class="cls-8" d="M234.65,110.8c-.06,.91-.05,1.66-.16,2.39-.15,1.02-.36,2.2-1.74,2.04-1.17-.14-2.34-.49-2.6-2.03-1.1-6.39-4.56-11.66-8.39-16.63-2.04-2.65-1.7-5.6-1.94-8.41-.14-1.56,1.94-2.21,3.42-1.65,2.89,1.1,5.42,2.79,6.82,5.75,2.79,5.93,3.94,12.26,4.6,18.54Z"/>
  <path class="cls-8" d="M287.15,154.32c-.05,2.48-3.16,4.16-5.94,3.32-3.08-.93-5.16-3.21-7.13-5.55-2.1-2.48-3.73-5.29-5.33-8.12-.64-1.14-.94-1.93,.69-2.4,.68-.19,1.53-.62,1.81-1.19,1.74-3.48,4.27-1.72,5.9-.47,4.45,3.41,8.02,7.65,9.73,13.18,.14,.44,.19,.9,.26,1.23Z"/>
  <path class="cls-8" d="M179.3,125.77c.24,1.9-.45,2.59-2.37,2.15-7.1-1.6-14.26-2.18-21.48-.97-1.51,.25-1.81-.24-1.49-1.61,1.36-5.95,3.58-8.94,11-8.1,3.58,.41,7.18,.67,10.35,2.62,2.23,1.37,3.83,3.18,3.99,5.91Z"/>
  <path class="cls-8" d="M264.08,110.01c.06,1.14-.13,2.23-.72,3.21-.61,1.02-1.67,1.06-2.69,1.06-.79,0-1.05-.5-1.1-1.27-.51-7.13-4.57-12.31-9.41-17.05-1.4-1.37-2.77-7.14-1.64-8.53,1.01-1.25,2.74-2.14,4.36-.85,3.64,2.91,6.92,6.19,8.43,10.75,1.37,4.12,2.39,8.34,2.76,12.69Z"/>
  <path class="cls-8" d="M258.43,160.81c-.1,1.88-.27,3.7-2.24,4.48-1.83,.73-2.97-.61-4.04-1.73-4.61-4.84-7.25-10.89-10.07-16.82-.89-1.88,1.28-1.89,1.94-2.82,.53-.75,1.24-1.38,2.26-.36,.49,.49,1.33,1.04,1.93,.96,3.38-.43,4.35,2.17,5.62,4.33,2.21,3.75,4.36,7.54,4.6,11.97Z"/>
  <path class="cls-8" d="M219.83,177.87c7.01-4.57,13.8-8.66,21.66-10.54,2.59-.62,5.15-.32,7.7,.3,.54,.13,1.19,.23,1.36,.79,.21,.72-.58,.83-.99,1.13-5.16,3.71-10.19,7.78-16.15,10.02-4.42,1.66-9.19,1.87-13.57-1.7Z"/>
  <path class="cls-8" d="M140.29,161.72c-.22,1.66,.61,4.26-1.2,4.93-1.67,.62-3.12-1.62-4.3-2.92-2.9-3.21-4.34-7.26-5.68-11.28-.88-2.62-1.39-5.36-2.18-8.01-.35-1.19-.19-1.58,1.14-1.73,4.85-.55,6.9,.48,9.4,4.91,2.46,4.36,2.39,9.22,2.82,14.11Z"/>
  <path class="cls-8" d="M118.19,119.12c-2.26-2.37-5.41-2.85-8.28-3.92-.18-.05-.35-.09-.53-.14-2.32-.6-4.63-1.27-6.98-1.76-1.63-.35-1.71-.94-.84-2.24,2.62-3.91,7.14-5.56,11.64-3.99,4.86,1.69,9.54,3.69,11.95,8.75,.28,.58,.51,1.19,.71,1.81,.42,1.28,.7,2.89-.2,3.71-.91,.84-2.14-.47-3.24-.79-1.43-.42-2.48-1.95-4.22-1.42,0,0,0,0,0,0Z"/>
  <path class="cls-8" d="M247.8,114.6c2.42,.02,4.79,.28,7.02,1.28,1.56,.7,2.88,1.73,3.67,3.24,.63,1.21,1.57,2.69,.88,3.88-.65,1.13-2.21,.26-3.34,.12-6.1-.75-11.95,.29-17.69,2.3-2.95,1.03-3.08,.89-3.34-2.17-.29-3.46,.77-5.31,3.89-6.9,2.81-1.44,5.87-1.52,8.91-1.75Z"/>
  <path class="cls-8" d="M196.57,128.76c4.01,.63,7.59,1.25,8.92,5.62,.47,1.55,1.55,2.92,2.29,4.39,.54,1.07,1.25,2.15,1.41,3.29,.33,2.33,.22,4.78-2.08,6.16-2.32,1.39-4.4,.19-5.93-1.51-4.22-4.7-5.37-10.57-5.86-16.64-.09-1.14,.53-1.47,1.24-1.32Z"/>
  <path class="cls-8" d="M224.76,117.48c5.87,.13,8.52,2.7,8.65,7.66,.02,.78,.26,2.06-1.11,1.46-7.45-3.26-14.49-.27-21.64,1.25-.27,.06-.54,.11-.81,.17-1.43,.29-2.03-.05-1.71-1.71,.72-3.77,2.99-6.4,6.52-7.13,3.57-.74,7.26-1.04,10.1-1.69Z"/>
  <path class="cls-8" d="M137.02,114.42c3.94,.44,8.07,1.03,11.74,3.22,3.06,1.82,4.16,4.43,3.61,7.03-.38,1.83-1.35,2.04-2.76,1.61-3.18-.96-6.41-1.81-9.48-3.07-3.23-1.32-6.49-2.06-9.97-2.06-2.42,0-2.74-.68-1.45-2.81,1.85-3.06,4.82-3.79,8.31-3.93Z"/>
  <path class="cls-8" d="M300.14,109.49c2,1.42,1.73,3.74,2.27,5.74,0,1.3,0,2.6,0,3.9-.4,1.66-.8,3.33-1.2,4.99,0,0-.07,.19-.07,.19-.24,.5-.49,1-.73,1.5-.56,1.27-2.12,1.99-2,3.64l-.09,.07c-.68-.42-1.04,.12-1.31,.53-1.2,1.78-2.87,1.6-4.39,.84-1.56-.78-1.8-2.12-1.18-3.9,1.49-4.31,1.83-8.87,2.23-13.39,.1-1.1,0-2.23,.6-3.36,2.14,1.26,4.18,1.4,5.87-.76Z"/>
  <path class="cls-8" d="M295.35,146.85c.21,2.11-.27,4.2-.76,6.26-.41,1.71-1.48,2.77-3.37,2.62-1.63-.14-2.58-.78-2.82-2.7-.3-2.39-1.5-4.61-3.06-6.43-2.43-2.83-2.05-6.18-2.26-9.46-.08-1.19,.51-1.49,1.54-1.13,1.54,.55,3.06,.58,4.59-.04,.8-.33,1.39-.01,1.9,.67,2.25,3.05,4.74,5.98,4.25,10.21Z"/>
  <path class="cls-8" d="M109.75,123.54c-1.15,2.4-2.27,4.83-3.47,7.2-2.23,4.42-5.95,5.38-8.84,2.42-1.66-1.71-1.56-3.49-.44-5.3,2.3-3.69,4.52-7.42,6.4-11.35,.47-.97,1.1-1.4,2.21-1.05,1.32,.42,2.65,.84,4.01,1.08,1.63,.29,1.74,1.31,1.52,2.6-.02,.18-.05,.35-.07,.53-.04,.21-.07,.43-.11,.64-.19,.08-.24,.2-.15,.38-.15,.4-.3,.81-.45,1.21-.2,.55-.41,1.09-.61,1.64Z"/>
  <path class="cls-8" d="M194.16,119.48c4.96,.23,8.8,1.64,10.98,5.93,.51,1,1.82,2.13,.91,3.18-.79,.93-2.29,.31-3.42,0-3.05-.82-6.09-1.41-9.28-1.31-3,.09-5.83,.81-8.69,1.59-1.24,.34-2.86,.69-3.6-.41-.83-1.23,.1-2.64,.96-3.76,3.18-4.2,7.86-4.78,12.13-5.21Z"/>
  <path class="cls-8" d="M162.61,127.89c2.53-.72,3.17,.2,2.78,2.31-1.01,5.56-2.91,10.68-7.22,14.57-1.22,1.1-2.71,2.29-4.46,1.29-1.88-1.08-2.29-3.02-2.01-5.07,.4-2.87,1.78-5.39,2.84-8.04,1.58-3.94,4.11-5.83,8.05-5.06Z"/>
  <path class="cls-8" d="M221.07,137.48c.02,5.78-1.67,8.5-6.28,10.17-2.91,1.05-4.14,.24-3.83-2.78,.5-4.87,1.6-9.67,1.5-14.6-.02-.85,.36-1.39,1.21-1.59,1.88-.45,3.94-1.61,5.6-1.2,2.15,.54,.62,3.17,1.26,4.78,.65,1.64,.53,3.46,.53,5.22Z"/>
  <path class="cls-8" d="M235.7,141.96c-.05,4.09-1.17,4.78-5.09,3.24-2.4-.94-3.9-2.78-5.13-4.87-2.1-3.56-3.05-7.5-3.64-11.55-.22-1.52,.22-2.3,1.87-2.18,1.01,.07,2.04,.01,3.05,.1,2.48,.2,4.22,.85,4.53,3.99,.39,3.88,2.4,7.34,4.26,10.75,.05,.18,.11,.35,.16,.53Z"/>
  <path class="cls-8" d="M118.73,155.82c-.21,1.8-1.16,3.29-2.03,4.81-.96,1.66-2.21,2.34-4.16,1.42-2.02-.95-1.61-2.09-.89-3.78,1.59-3.74,1.23-7.68,.05-11.44-.97-3.08,.5-5.37,1.71-7.83,.2-.4,.43-.8,1.02-.75,1.59,.14,5.78,4.44,5.87,6.12,.2,3.8,.35,7.59-1.48,11.12-.05,.11-.08,.22-.09,.33Z"/>
  <path class="cls-8" d="M121.81,137.43c-.76,2.64-2.1,2.58-4.27,1.29-2.81-1.68-3.56-4.27-4.02-7.13-.19-1.18-.32-2.36-.48-3.54-.07-3-.14-6-.2-9,.5-1.37,1.3-.56,2.13-.4,1.06,.2,1.95,1.76,3.22,.48,0,0,0,0,0,0-.71,1.08,.33,1.21,.86,1.35,2.26,.6,2.5,2.17,2.5,4.2,0,1.36-1.08,3.14,.92,4.11-.01,.06-.01,.13,0,.19-2.16,1.65-.56,3.6-.42,5.43-.39,.98-.35,2-.24,3.02Z"/>
  <path class="cls-8" d="M267.83,157.04c-.15,.77-.23,1.91-.61,2.93-1,2.64-3.43,3.12-5.43,1.13-1.26-1.25-2.15-2.73-2.68-4.46-.43-1.41-.77-2.95-1.62-4.09-2.22-3-1.85-6.19-1.26-9.5,.22-1.27,.47-2.01,1.83-.92,.73,.58,1.72,1.19,2.54,.86,2.54-1.03,3.13,.68,3.89,2.4,1.6,3.63,3.12,7.29,3.34,11.65Z"/>
  <path class="cls-8" d="M138.86,130.22c-.01-5.73-.08-5.47,5.55-4.01,3.06,.8,4.25,2.25,4.33,5.24,.06,2.21,.53,4.4,.73,6.61,.2,2.21,.58,4.6-2.07,5.74-1.9,.81-5.62-1.02-6.73-3.3-1.57-3.24-1.86-6.73-1.8-10.27Z"/>
  <path class="cls-8" d="M87.56,128.61c.9,2.34,1.85,3.73,4.01,3.44,1.22-.17,1.35,.7,1.36,1.57,.07,6.63-.82,13.09-3.78,19.1-1.33,2.7-2.7,3.03-4.77,1.56-.95-.67-1.25-1.29-.77-2.54,1.67-4.38,2.22-8.95,1.62-13.61-.42-3.28,.73-6.1,2.34-9.52Z"/>
  <path class="cls-8" d="M141.59,160.19c.06-4.71-1.43-9.32-.89-14.09,.21-1.83,.17-2.06,2.41-1.77,4.89,.64,5.02,3.98,5.46,7.42,.48,3.77,.76,7.54-.3,11.29-.39,1.37-1.03,2.58-2.12,3.48-.89,.74-1.89,1.14-3.05,.47-1.03-.59-1.7-1.27-1.54-2.64,.16-1.37,.04-2.77,.04-4.16Z"/>
  <path class="cls-8" d="M191.92,128.7c1.2-.19,1.56,.43,1.43,1.45-.76,5.9-1.77,11.72-5.28,16.75-.76,1.09-1.77,1.87-3,2.39-1.21,.51-2.42,.44-3.42-.33-.93-.71-.61-1.83-.47-2.85,.7-4.96,3.5-9.36,3.82-14.44,.06-.91,.99-1.69,2.05-1.92,1.62-.36,3.24-.7,4.87-1.04Z"/>
  <path class="cls-8" d="M210.11,161.46c.08,6.25-.9,8.07-3.58,8.77-1.43,.37-2.26,.05-2.59-1.53-.8-3.81-2.27-7.4-3.94-10.91-1.34-2.8,.41-5.4,.56-8.1,0-.16,.15-.36,.28-.46,.58-.43,6.69,1.75,6.95,2.49,1.32,3.76,2.26,7.61,2.31,9.75Z"/>
  <path class="cls-8" d="M132.39,122.78c5.54,.37,5.54,.48,4.35,5.82-.61,2.73-1.52,5.32-2.67,7.84-.62,1.35-1.41,2.64-2.53,3.62-1.9,1.66-4.12,1.78-6.16,.47-2.06-1.32-1.63-3.52-.75-5.24,1.97-3.86,4.27-7.54,5.41-11.78,.34-1.28,1.5-.72,2.36-.72Z"/>
  <path class="cls-8" d="M99.4,108.6c-.1,2.7-1.85,4.1-4.01,2.86-5.53-3.17-10.89-6.61-16.95-8.73-.86-.3-.81-.86-.23-1.47,2.03-2.14,4.26-4,7.47-3.28,4.78,1.08,9.01,3.25,12.33,6.96,.93,1.04,1.62,2.27,1.4,3.66Z"/>
  <path class="cls-8" d="M277.31,112.97c2.71,.17,4.77,.21,6.51,1.47,.94,.68,1.62,1.64,1.47,2.81-.16,1.22-1.44,.99-2.23,1.19-6.38,1.54-12.8,2.88-19.16,4.51-2.41,.62-2.71-.29-2.47-2.26,.36-3.01,2.54-5.62,5.84-6.28,3.53-.7,7.12-1.03,10.04-1.44Z"/>
  <path class="cls-8" d="M297.38,164.78c4.73-1.53,7.35-5.09,8.92-9.55,.55-1.56,1.17-3.25,1.08-4.85-.28-5.24,1.96-9.24,5.59-12.56,2.54,11.56-2.55,27.49-17.26,30.37h-4.29c1.13-3.06,4.22-2.02,5.95-3.41Z"/>
  <path class="cls-8" d="M292.31,77.94c.15,.18,.3,.36,.45,.55,.39,.6,.75,1.22,1.19,1.79,1.07,1.4,.33,1.87-1.02,2.06-2.58,.18-4.5-.23-6.52-2.55-3.3-3.79-8.25-3.8-12.88-2.85-2.91,.6-5.1,.45-6.75-2.27-.4-.66-1.26-1.05-1.9-1.56-.44-1.46,.71-1.18,1.44-1.26,1.82-.2,3.65-.35,5.48-.52,.72,.01,1.44,.02,2.16,.03,3.81,.41,7.65,.68,11.3,2.01,1.66,.93,3.33,1.86,4.99,2.79,.69,.6,1.37,1.19,2.06,1.79Z"/>
  <path class="cls-8" d="M238.15,158.4c-.14,2.22-.22,4.44-.44,6.65-.09,.93-.58,1.84-1.51,2.19-1.09,.4-1.61-.64-2.31-1.18-.14-.11-.32-.25-.36-.41-1.93-6.49-6.71-12.21-5.43-19.8,2.36,.72,4.48,2.01,7,1.47,.92-.2,1.14,.78,1.29,1.5,.54,2.53,1.05,5.07,1.57,7.61,.07,.66,.14,1.31,.21,1.97Z"/>
  <path class="cls-8" d="M303.48,129.97s0-.05,0-.05c1.38-.73,.78-1.62,.21-2.51-2.04-2.73-.41-5.52-.14-8.29l-.02-3.31c5.15,2.24,6.78,6.97,8.16,11.78,1.11,3.85,.97,7.67-1.38,11.14-.55,.81-1.02,1.73-2.2,2.04-.56-3.48-1.04-6.93-2.93-9.95-.19,0-.38,0-.57,0,0,0,0,0,0,0,.2-.31,.33-.62,0-.92-.39-.36-.77-.27-1.13,.06Z"/>
  <path class="cls-8" d="M87.7,117.31c.13-2.03,.33-4.06,.38-6.09,.06-2.07,.76-2.15,2.32-1.07,1.58,1.1,3.09,2.39,5.03,2.87,.82,.2,.93,.85,.86,1.52-.44,3.94-.04,7.97-1.48,11.79-.71,1.89-1.96,4.14-3.64,4.07-1.84-.07-2.56-2.58-2.95-4.52-.57-2.83-.56-5.7-.52-8.58Z"/>
  <path class="cls-8" d="M252.5,124.35c5.44,.18,7.24,1.85,9.52,8.8,.48,1.47,.63,3.07,.84,4.62,.2,1.46-.08,2.86-1.54,3.56-1.42,.68-2.48-.27-3.42-1.16-2.86-2.71-4.81-6.06-6.55-9.54-.57-1.15-1.05-2.34-1.59-3.5-1.21-2.6-1.11-2.78,1.68-2.78,.46,0,.92,0,1.06,0Z"/>
  <path class="cls-8" d="M247.35,131.95c-.07,.91-.14,1.83-.22,2.74-.75,.21-1.17,.51-.32,1.16-.45,3.09-2,5.55-4.4,7.47-1.43,1.14-2.95,1.72-4.22-.29,.13-1.29,.25-2.58,.38-3.87,.74-2.92,.35-5.89,.48-8.84,.03-.77-.06-1.63-1.22-.92l.06-.11c.25-.07,.71-.11,.73-.22,.52-3.24,3.31-3.14,5.55-3.75,3.3-.89,3.32-.83,3.34,2.66-1.18,1.28-1.01,2.62-.15,3.98Z"/>
  <path class="cls-8" d="M273.59,128.45c.03,2.72-.34,5.35-1.31,7.9-.51,1.33-1.25,2.48-2.39,3.32-2.04,1.5-4.8,.63-5.24-1.81-.77-4.34-.48-8.65,1.07-12.81,.4-1.07,5.96-3.07,6.87-2.45,.38,.26,.61,.92,.67,1.43,.17,1.47,.23,2.95,.33,4.42Z"/>
  <path class="cls-8" d="M259.19,71.03l4.87,2.94c.85,.85,1.72,1.68,2.56,2.55,.44,.46,1.1,1.07,.63,1.66-.45,.57-1.36,.68-2.01,.14-6.83-5.67-14.48-5.84-22.53-3.43-.85,.26-1.62,.26-2.33-.38-1.72-1.53-3.62-2.83-6.51-4.13,9.08-2.28,17.23-2.25,25.33,.65Z"/>
  <path class="cls-8" d="M286.12,134.85c-2.1-.22-4.31-1.49-5.86-3.44-1.93-2.43-3.42-5.21-5.14-7.81-.83-1.26-.37-1.84,.94-2.08,.18-.03,.36-.08,.55-.09,2.82-.18,5.9-2.72,8.17,1.41,1.49,2.71,3.88,4.86,4.69,8.04,.74,2.94,.1,4.02-3.35,3.97Z"/>
  <path class="cls-8" d="M75.57,121.61c-2.21-.02-3.4-2.25-2.36-4.66,1.13-2.62,2.64-5.08,3.95-7.63,2.65-5.17,2.74-5.2,7.79-2.17,.68,.41,1.18,.71,1.17,1.64-.04,4.67-4.86,11.13-9.4,12.49-.44,.13-.89,.25-1.16,.32Z"/>
  <path class="cls-8" d="M212.44,72.82c-.73-.52-1.45-1.05-2.76-1.98,2.41-.58,3.88-.94,5.34-1.29,6.2-.27,12.4-.56,18.25,2.18,2.17,1.02,4.3,2.1,6.06,4.01-2.28,1.51-4.19,1.85-6.77,.3-4.5-2.7-9.57-2.74-14.53-1.35-1.97,.55-3.55,.65-5.07-.77,0,0-.13,.03-.13,.03,.22-.58,.04-.76-.54-.54v-.02c.04-.19,.09-.38,.13-.56Z"/>
  <path class="cls-8" d="M153.39,78.96c-1.74-3.25-3.45-6.51-5.24-9.73-.8-1.45-.58-2.03,1.16-2.32,6.65-1.11,6.65-1.17,9.78,4.97,.54,1.07,1.04,2.16,1.56,3.23-1.96,1.9-3.82,3.88-4.94,6.64-.8-.97-1.56-1.89-2.32-2.8Z"/>
  <path class="cls-8" d="M225.05,186.49c-.19-.08-.38-.16-.57-.24-2.64-.54-5.21-1.32-7.41-2.94-.7-.52-2.38-.86-1.68-2,.59-.95,1.91-1.8,3.36-1.51,.44,.09,.83,.39,1.25,.57,4.53,1.96,9.18,2.14,13.84,.66,1.63-.52,2.72-.63,3.71,1,.79,1.29,2.32,1.78,4.03,2.78-5.65,1.96-11.08,1.94-16.54,1.67Z"/>
  <path class="cls-8" d="M283.96,105.81c-2.24-4.8-5.56-8.48-9.05-12.04-1.47-1.5-1.76-3.53-.48-4.98,1.56-1.78,5.18-1.4,6.4,.21,3.75,4.93,6.1,10.15,3.14,16.82Z"/>
  <path class="cls-8" d="M186.77,74.51c-1.69-2.61-3.29-5.26-4.49-8.15-1.39-3.35-1.44-3.32,2.01-3.94,.8-.14,1.57-.44,2.35-.67,.77-.12,1.53-.24,2.3-.36,.19-.06,.38-.11,.57-.17,1.54-.42,1.61,.85,1.99,1.75-.03,.07-.11,.15-.09,.21,.03,.15,.11,.28,.16,.43,.03,2.74,.1,5.48,.06,8.22-.05,3.49-1.48,4.25-4.87,2.67Z"/>
  <path class="cls-8" d="M270.68,178.36c-.37-.03-.75-.07-1.12-.1-2.2-.84-4.69-.96-6.65-2.6,.93-1.18,1.8-1.68,3.37-1.2,6.94,2.13,13.56,1.06,19.64-2.74,2.34-1.46,4.51-2.65,7.36-2.07,.76,.15,1.62-.2,2.44-.32,0,0,.12,.08,.12,.08,0,0,.13-.07,.13-.07,.01,.19,.09,.34,.23,.47-5.63,4.29-11.88,7.19-18.86,8.49-2.22,.02-4.44,.03-6.67,.05Z"/>
  <path class="cls-6" d="M193.33,67.91c6.65,.1,12.74,1.96,18.24,5.74,.34,.18,.59,.1,.73-.27,0,0,0,.02,0,.02-.03,.2-.38,.32-.08,.62,.3,.3,.42-.05,.62-.08,0,0,.13-.03,.13-.03-.77,3.23-1.44,3.45-4.79,1.9-3.1-1.43-6.45-1.28-9.75-1.26-1.75,.01-3.49,.02-5.24,.04-.07-.17-.16-.33-.28-.46,.68-2.03,.21-4.15,.43-6.21Z"/>
  <path class="cls-8" d="M288.97,96.93c.42,5.35,4.27,9.62,3.38,15.1-.29,1.81-.38,3.7-2.58,4.02-2.24,.33-3.43-1.28-3.96-3.15-1.35-4.8,.36-9.31,1.63-13.83,.19-.66,.23-1.48,1.52-2.15Z"/>
  <path class="cls-8" d="M246.44,183.85c-2.15-.06-4.65-.2-6.78-1.8-1.03-.78-2.43-1.57-1.33-3.08,.9-1.24,2.33-1.45,3.65-.47,4.12,3.06,8.64,2.7,13.17,1.41,1.52-.43,2.86-1.52,4.3-2.26,.56-.29,1.25-.75,1.77-.63,1.4,.32,3.38,.55,3.68,1.94,.29,1.36-1.71,1.22-2.72,1.6-4.96,1.87-10.02,3.31-15.75,3.29Z"/>
  <path class="cls-5" d="M161.73,73.94c-.95-1.99-1.81-4.04-2.88-5.97-1.02-1.84-.49-2.44,1.46-2.43,.81,0,1.61-.29,2.42-.44,.76-.1,1.51-.19,2.27-.29,.44-.07,.88-.13,1.32-.2,.92,.37,2.25-.63,2.81,.48,.97,1.96,1.73,4.03,2.39,6.12,.23,.73-.61,1.17-1.28,1.05-3.06-.51-5.71,.94-8.51,1.67Z"/>
  <path class="cls-6" d="M178.81,102.5c2.1,2.54,3.84,4.67,5.62,6.77,.56,.65,1.17,1.29,.82,2.19-.87,2.31-1.43,4.75-2.91,6.82-.96,1.34-2.13,1.81-3.55,1.05-1.35-.72-1.92-1.75-1.04-3.38,1.08-1.99,1.02-4.27,1.05-6.48,.04-2.19,0-4.37,0-6.97Z"/>
  <path class="cls-6" d="M154.54,115.88c5.12-3.22,6.71-8.21,8.55-13.03,.26-.68,.31-1.45,.86-2,.34-.33,.69-.64,1.21-.49,.44,.12,.42,.54,.45,.89,.26,2.76,.32,5.53,.99,8.24,.08,.32-.07,.73-.22,1.06-1.42,3.06-7.85,6.16-11.84,5.34Z"/>
  <path class="cls-8" d="M235.28,103.84c4.31,1.91,7.8,4.42,10.9,7.48,1,.99,1.16,2-.77,2.01-2.35,.01-4.54,.73-6.76,1.41-1.69,.52-2.97,.3-2.64-2.04,.4-2.85-.47-5.65-.72-8.86Z"/>
  <path class="cls-4" d="M211.22,115.99c.38-3.31-.44-6.49-1.19-10.23,3.96,3.77,8.39,5.99,12.58,8.59,1.84,1.14-.55,1.19-.98,1.75-3.47,.29-6.95,.66-10.41-.12Z"/>
  <path class="cls-8" d="M264.61,101.79c3.73,1.79,6.71,4.51,9.27,7.7,1.11,1.39,.87,2.26-1.1,2.56-1.49,.22-2.94,.27-4.4-.02-1.7-.33-2.78-1.17-2.96-3.11-.22-2.29-.73-4.56-1.11-6.84,.1-.1,.2-.2,.3-.3Z"/>
  <path class="cls-8" d="M272.05,152.16c2.55,2.68,4.76,5.57,8.37,7-2.65,1.09-4.05,4.5-7.61,3.37-1.09-.35-1.82-.86-1.94-2.03-.3-2.76-.46-5.5,1.19-8.34Z"/>
  <path class="cls-8" d="M249.34,130.76c2.09,3.15,3.8,5.74,5.53,8.32,.78,1.16-.08,1.71-.84,2.22-2,1.35-4,2.88-6.59,1.3-1.13-.69-1.02-1.61-.48-2.64,.74-1.4,1.25-2.88,1.49-4.45,.21-1.34,.49-2.68,.88-4.75Z"/>
  <path class="cls-8" d="M237.07,145.03c2.24,.45,3.58,1.36,4.2,3.36,.41,1.31,.91,2.72,1.8,3.71,2.26,2.51,.16,4.66-.31,6.94-.05,.24-.73,.58-.75,.55-.83-.94-2.87-.95-2.84-2.21,.1-4.19-1.51-8.08-2.1-12.34Z"/>
  <path class="cls-8" d="M86.5,114.86c0,3.12-.05,6.25,.03,9.37,.03,1.03-.22,1.53-1.27,1.69-1.46,.23-2.89,.64-4.37,.07-2.19-.83-2.85-3.23-.99-4.52,2.59-1.8,4.42-4.14,5.92-6.85,.23,.08,.46,.15,.68,.23Z"/>
  <path class="cls-8" d="M185.16,162.84c-2.42-2.35-4.56-4.49-4.61-8.04-.02-1.5-.69-3.05-1.53-4.41-.3-.48-.65-1.03-.09-1.48,.68-.55,.89,.15,1.19,.58,.21,.3,.47,.56,.75,.8,1,.87,3.17-.06,3.39,1.82,.41,3.49,2.88,6.79,.9,10.73Z"/>
  <path class="cls-8" d="M125.45,155.12c-2.57-3.95-3.88-8.09-3.99-12.61-.02-.87-.17-1.77,.64-2.24,1.09-.63,1.36,.61,1.88,1.11,2.09,2.03,1.54,5.02,2.59,7.42,1.05,2.42,.53,4.39-1.11,6.31Z"/>
  <path class="cls-8" d="M166.19,134.49c.89,3.37,1.98,6.3,2.37,9.31,.32,2.45-2.33,2.05-3.76,2.55-1.34,.47-2.55-.12-2.7-1.84-.12-1.35,.42-2.46,1.05-3.63,1.07-1.97,1.93-4.04,3.04-6.4Z"/>
  <path class="cls-8" d="M124.09,162.58s-.03-.03-.03-.03c-1.02-.42-2.06-.24-3.09-.06-.91-.82-2.69,1.18-3.18-.99,2.04-2.91,2.76-6.36,3.86-9.69,2.53,2.77,3.73,8.12,2.45,10.76Z"/>
  <path class="cls-8" d="M111.83,128.09c-.05,1.58,.01,3.15,.48,4.67,.44,1.42,.37,2.48-1.36,2.95-1.84,.5-3.66,.93-5.16-.67-.73-.78,.16-1.28,.57-1.86,1.88-2.65,3.23-5.57,4.24-8.65,.72-.36,.93,0,.98,.66,.07,.97,.16,1.93,.24,2.9Z"/>
  <path class="cls-8" d="M237.87,129.29s-.06,.11-.06,.11c-.12,2.71-.24,5.43-.37,8.14-.07,.73-.1,1.46-.22,2.18-.26,1.59-.71,.08-1.07,.05-1.19-3.18-3.15-6.06-3.46-9.58-.1-1.17-.19-2.24,1.3-1.9,1.29,.3,3.5-2.7,3.88,.99Z"/>
  <path class="cls-8" d="M88.31,156.42c2.57-2.82,3.28-5.97,4.6-9.15,2.21,2.64,3.81,5.24,4.24,8.46,.15,1.13,.11,1.91-1.31,1.58-2.3-.52-4.64-.83-7.53-.9Z"/>
  <path class="cls-8" d="M153.46,158.67c-3.43-3.36-5.43-12.31-3.34-15.04,3.04,4.55,5,9.22,3.34,15.04Z"/>
  <path class="cls-8" d="M245.39,156.8c2.45,3.59,4.23,7.2,7.67,9.41,.32,.21,.56,.6,.24,.9-.21,.2-.73,.33-.97,.2-2.17-1.13-4.5-1.55-6.91-1.7-1.07-.07-1.27-.83-1.36-1.73-.22-2.34,.11-4.57,1.32-7.08Z"/>
  <path class="cls-8" d="M122.47,128.98c-.01-.06-.01-.13,0-.19,.1-.73,.21-1.45,.3-2.18,.23-1.83-1.21-4.72,3.13-3.29,2.68,.89,2.95,.2,1.5,3.27-1.18,2.49-2.48,4.92-3.72,7.38-.29-.07-.57-.14-.86-.22,.12-1.61-.01-3.2-.35-4.77Z"/>
  <path class="cls-8" d="M275.27,126.87c2.11,2.99,3.38,5.72,5.9,7.38,.21,.14,.42,.43,.43,.67,.07,.85-3.64,3.11-5.01,3.02-1.79-.13-2.33-1.41-2.23-2.9,.17-2.46,.53-4.9,.9-8.16Z"/>
  <path class="cls-8" d="M195.38,139.44c1.21,2.73,2.04,5.08,3.62,7.04,.61,.75,.47,1.38-.66,1.44-.18,.01-.37,.05-.55,.04-2.14-.14-5.34,1.1-6.1-1.09-.92-2.68,1.79-4.89,3.69-7.42Z"/>
  <path class="cls-8" d="M214.22,161.13c-4.46-2.87-3.92-7.77-5.46-11.68-.27-.68,.5-1.6,1.62-.84,1.64,1.12,4.6,10.5,3.84,12.52Z"/>
  <path class="cls-8" d="M97.11,147.54c.91,2.21,1.76,4.45,2.76,6.62,.58,1.25,.87,2.23-.93,2.9-.62-4.21-2.4-7.78-5.08-10.9-.62-.73-.58-1.48-.44-2.33,.33-2.1,.61-4.2,.91-6.3,.29,0,.58,.01,.87,.02,.2,2.63,.07,5.31,1.23,7.79-.08,.83,.25,1.54,.69,2.22Z"/>
  <path class="cls-8" d="M210.01,139.96c-1.47-2.78-2.65-5.06-3.86-7.31-.46-.85-.61-1.28,.6-1.79,4.45-1.87,4.43-1.95,4.21,2.98-.08,1.82-.15,3.65-.96,6.12Z"/>
  <path class="cls-8" d="M289.92,127.21c-2.45-2.55-3.45-4.97-2.69-8.12,.59-2.49,2.49-1.59,3.75-1.6,1.37,0,.55,1.39,.49,2.14-.21,2.47-.65,4.89-1.55,7.58Z"/>
  <path class="cls-4" d="M150.37,99c-.72,3.45-1.36,6.54-2.07,9.92-4.44-6.72-4.25-7.74,2.07-9.92Z"/>
  <path class="cls-8" d="M97.09,123.87c.19-3.11,.38-6.21,.56-9.32,.07-1.31,.12-1.39,1.7-.94,3.85,1.1,2.74,2.87,1.36,5.09-1.08,1.75-2.04,3.59-3.05,5.38-.19-.07-.38-.15-.57-.22Z"/>
  <path class="cls-8" d="M149.18,166.97c-.42-.11-1.09-.18-.69-.8,1.5-2.33,1.64-5.02,2.22-8.19,2.12,2.71,3.78,5.1,4.16,8.2,0,0,.04,.04,.04,.04-1.91,.25-3.82,.49-5.73,.74Z"/>
  <path class="cls-8" d="M298.38,131.73c-1.61,2.38-2.04,5.22-2.91,8.19-1.39-1.74-2.55-3.24-3.76-4.7-.63-.75-.58-1.61-.29-2.35,.4-1.02,1.27-.26,1.88-.18,1.84,.25,3.47-.21,4.97-1.24l-.14,.22,.25,.07Z"/>
  <path class="cls-8" d="M137.38,142.87c-1.16-.12-2.33-.32-3.39-.96-.86-.52-1.17-1.07-.42-1.98,1.05-1.29,1.93-2.7,2.5-4.28,.16-.45,.42-.86,.95-.87,.82-.01,.67,.71,.8,1.2,.41,1.51,.55,3.16,1.27,4.49,1.21,2.24-.25,2.21-1.71,2.4Z"/>
  <path class="cls-8" d="M126.05,161.84c.76-2.47-.15-5.35,1.93-7.93,1.35,3.21,2.58,6.13,4.41,9.17-2.06-.17-3.67-.31-5.28-.45-.35-.27-.7-.53-1.05-.8Z"/>
  <path class="cls-8" d="M269.35,154.5c-1.3-4.73-3.22-9.15-5.6-13.73,1.45-.05,2.04,.65,2.47,1.39,1.45,2.47,2.88,4.95,4.23,7.47,1,1.87-.58,3.23-1.1,4.86Z"/>
  <path class="cls-8" d="M222.73,138.47c.99,1.63,1.73,2.76,2.35,3.94,.44,.84,1.95,1.43,1.25,2.46-.85,1.26-2.18,2.35-3.79,2.49-1.42,.12-2.47-.74-1.75-2.22,.96-1.98,1.49-4.06,1.93-6.68Z"/>
  <path class="cls-8" d="M179.43,168.84c1.13-2.66,1.6-5,1.73-7.67,2.41,1.45,3.45,3.69,4.58,5.86,.45,.87,.05,1.13-.79,1.21-1.73,.16-3.45,.38-5.52,.61Z"/>
  <path class="cls-8" d="M150.77,136.35c-.29-1.98-.52-3.96-.87-5.93-.44-2.49,.56-2.97,2.71-2.14,.67,.25,1.41,.3,2.22,.47-.64,2.86-2.62,5.03-4.06,7.6Z"/>
  <path class="cls-8" d="M180.85,139.96c-.65-1.98-1.3-3.97-1.97-5.94-.38-1.13,.5-1.47,1.19-1.85,.87-.48,1.81-1.21,2.82-.74,1,.46,.47,1.5,.3,2.23-.51,2.13-1.15,4.23-1.74,6.34-.21-.01-.41-.02-.62-.03Z"/>
  <path class="cls-4" d="M187.16,118.64c-1.07-.3-2.33-.75-2.05-1.83,.35-1.35,.45-3.28,2.62-3.35,.51-.02,4.57,2.97,4.41,3.31-1.06,2.25-3.6,.48-4.98,1.88Z"/>
  <path class="cls-8" d="M211.72,161.34c1.46,.72,2.07,1.76,2.75,2.72,2.47,3.47,2.33,3.71-1.74,4.48-1.44,.27-1.97-.01-1.5-1.44,.59-1.79,.32-3.64,.49-5.77Z"/>
  <path class="cls-8" d="M154.92,166.22s-.04-.04-.04-.04c2.28-.43,1.03-1.83,.72-2.87-.46-1.52-1.37-2.98-.11-5.3,1.24,3.5,3.34,5.84,5,8.48-1.55-.16-3.09-.33-4.64-.49-.17-.03-.33-.01-.49,.04-.15,.06-.29,.13-.44,.19Z"/>
  <path class="cls-6" d="M152.11,90.13c.39,2.08-.35,4.06-1.12,5.8-.69,1.57-2.77,1.73-4.45,2l.04,.04c1.01-3.2,3.1-5.63,5.55-7.81l-.02-.03Z"/>
  <path class="cls-8" d="M288.41,93.13c-.14,1.35-.84,2.41-1.93,3.7-.94-2.53-1.7-4.96-3.94-7.47,2.68,.62,4.68,.81,5.66,3.08,.07,.23,.14,.47,.21,.7Z"/>
  <path class="cls-8" d="M209.22,120.42c-.87,1.66-1.61,3.07-2.4,4.59-.96-1.24-1.79-2.43-2.75-3.51-.51-.57-.72-.96-.15-1.6,.46-.53,.88-.96,1.61-.49,1.03,.67,2.21,.84,3.71,1.01Z"/>
  <path class="cls-8" d="M191.39,168.54c-4.33,0-5.59-2.04-4.04-6.27,1.35,2.09,2.66,4.13,4.04,6.27Z"/>
  <path class="cls-8" d="M239.89,160.16c1.49,.81,2.07,1.9,2.44,3.18,.61,2.1-.5,3.32-2.61,2.91-.82-.16-.71-.74-.64-1.24,.22-1.52,.5-3.03,.81-4.84Z"/>
  <path class="cls-8" d="M215.96,160.65c2.05,2.74,3.72,4.98,5.47,7.32-3.89-.04-5.49-2.08-5.47-7.32Z"/>
  <path class="cls-8" d="M259.54,125.05q4.84-.51,3.77,3.83c-.13,.54-.35,1.05-.58,1.71-.54-.96-1.01-1.81-1.5-2.66-.5-.87-1.01-1.73-1.69-2.88Z"/>
  <path class="cls-15" d="M111.83,128.09c-.08-.97-.18-1.93-.24-2.9-.05-.66-.26-1.02-.98-.66-.29-.33-.57-.67-.86-1,.2-.55,.41-1.09,.61-1.64,2.48,.48,1.11-2.37,2.47-2.86,.07,3,.14,6,.2,9l-1.21,.05Z"/>
  <path class="cls-8" d="M235.8,115.51c.19,1.31-.42,1.58-.67,2.05-.91,1.73-1.79,2.66-3.42,.51-.66-.87-1.93-1.27-2.89-2.2,2.32,.05,4.63,1.7,6.98-.37Z"/>
  <path class="cls-8" d="M167.6,152.31c-.95-.47-1.04-1.38-1.4-2.09-1.04-2.07-.14-3.49,2.23-3.63,.85-.05,.95,.43,.77,1.02-.49,1.57-1.05,3.11-1.59,4.7Z"/>
  <path class="cls-8" d="M86.46,127.3c-.78,1.91-1.4,3.41-2.1,5.11-1.64-1.06-1.21-3.03-2.59-4.61,1.71-.18,3-.32,4.68-.5Z"/>
  <path class="cls-8" d="M108.13,137.63c1.85-.14,3.17-.36,4.74-.77-.84,1.59-1.68,3.17-2.75,5.17-.74-1.64-1.32-2.91-1.99-4.4Z"/>
  <path class="cls-8" d="M247.16,89.92c-.52,.83,.18,2.45-1.07,2.31-1.62-.18-1.74-1.95-1.99-3.29-.29-1.56,1.25-1.35,1.86-1.32,1.53,.06,.86,1.51,1.2,2.3Z"/>
  <path class="cls-8" d="M197.74,153.77c-.88-1.26-1.77-2.52-2.79-3.96,1.32-.54,2.9-1.08,3.64-.28,1.08,1.16-.31,2.71-.12,4.16-.24,.03-.49,.06-.73,.09Z"/>
  <path class="cls-15" d="M174.45,183.16c-2.86,.72-5.72,.9-8.6,.08,.62-.23,1.37,.24,1.9-.33,.03-.03-.37-.48-.58-.73,2.4-.05,4.81-.09,7.21-.14,.02,.37,.04,.74,.05,1.11Z"/>
  <path class="cls-15" d="M303.54,119.12c-.27,2.77-1.9,5.56,.14,8.29-1.6,.31-3.32,.79-1.9-1.93,.24-.47,0-1.06-.56-1.36,.4-1.66,.8-3.33,1.2-4.99,.38,0,.75,0,1.13,0Z"/>
  <path class="cls-8" d="M150.37,116.69c1.87-.22,3.19,.72,4.47,1.34,1.13,.56-.17,1.33-.45,1.95-.39,.87-.92,.63-1.41-.02-.8-1.04-1.63-2.06-2.61-3.28Z"/>
  <path class="cls-6" d="M168.9,115.58c-1.35-.22-2.93,.78-3.67-.71-.16-.31,.98-1.8,1.64-1.9,1.69-.25,1.34,1.65,2.03,2.6Z"/>
  <path class="cls-8" d="M218.74,92.95c-2.1-.71-2.94-1.77-2.39-3.63,.22-.75,.95-1.2,1.43-.82,1.36,1.11,.87,2.74,.96,4.45Z"/>
  <path class="cls-8" d="M105.24,161.93c-.1,.15-.17,.34-.3,.44-.38,.26-.69,.07-.93-.23-.98-1.23-2.07-2.35-3.5-3.08-.31-.16-.66-.45-.33-.86,.22-.27,.53-.51,.84-.65,.29-.12,4.25,4.03,4.22,4.38Z"/>
  <path class="cls-8" d="M185.06,119.87c-1.68,1.52-2.99,2.69-4.31,3.88-1.46-2.17-.79-2.82,4.31-3.88Z"/>
  <path class="cls-7" d="M79.91,86.47c-.79,2.85-3.33,.86-4.9,1.72-.79,.43-.66-.77-.77-1.33,1.87-.51,3.75-.79,5.68-.39Z"/>
  <path class="cls-8" d="M95.19,137.53c-.29,0-.58-.01-.87-.02v-6.94c1.44,2.22,1.66,4.53,.87,6.96Z"/>
  <path class="cls-8" d="M76.48,154.2c-.83,.24-1.6,1.7-2.35,.79-.84-1.03-.95-2.55,.32-3.67,.91,.8,1.77,1.62,2.02,2.88Z"/>
  <path class="cls-15" d="M117.79,161.51c.49,2.17,2.28,.16,3.18,.99,0,.39,0,.77,0,1.16-2.04,.15-4.07,.3-6.11,.44,.97-.86,1.95-1.73,2.92-2.59Z"/>
  <path class="cls-8" d="M281.69,137.62c.06,1.24,.11,2.4,.18,3.77-1.49-.31-2.67-1.06-2.7-2.31-.02-.93,1.26-1.37,2.53-1.47Z"/>
  <path class="cls-15" d="M236.16,139.78c.36,.02,.82,1.54,1.07-.05,.12-.72,.15-1.45,.22-2.18,.59,.39,.15,1.49,1.11,1.62-.13,1.29-.25,2.58-.38,3.87-.29-1.6-1.63-.78-2.48-1.07-.05-.18-.11-.35-.16-.53,.71-.37,.6-1.04,.62-1.66Z"/>
  <path class="cls-8" d="M258,116.1c1.24-.78,2.31-.03,3.77-.47-.58,1.29-.98,2.2-1.5,3.37-.84-1.08-1.54-1.96-2.27-2.9Z"/>
  <path class="cls-8" d="M81.21,156.32c-.5,0-.96,0-1.42,0-.6,0-1.19-.18-1.1-.89,.12-.99,.76-.33,1.21-.28,.36,.04,.77,.13,1.07,0,1.1-.49,2.48-.84,2.52,.7,.03,1.08-1.53,.21-2.29,.48Z"/>
  <path class="cls-8" d="M105.96,163.66c1.55-1.37,2.74-2.13,4.3-1.61,.32,.11,.65,.59,.32,.87-1.23,1.03-2.72,.68-4.63,.74Z"/>
  <path class="cls-8" d="M80.33,97.36c-1.07,1.02-1.62,1.61-2.24,2.12-.39,.32-.81,1.01-1.35,.59-.34-.26-.41-.94-.49-1.46-.1-.67,.33-1.01,.95-1.07,.81-.08,1.63-.1,3.13-.19Z"/>
  <path class="cls-8" d="M254.84,142.75c.04,1.35-.19,2.36-.64,3.36q-2.07-1.97,.64-3.36Z"/>
  <path class="cls-8" d="M171.95,170.74c-.28,1.08-1.37,.6-2.04,.93-.52,.26-1.33,.05-1.31-.55,.03-1.01,1.12-1.06,1.85-1.31,.71-.24,1.22,.18,1.51,.92Z"/>
  <path class="cls-13" d="M211.22,115.99c3.46,.78,6.94,.41,10.41,.12-3.48,1.2-6.96,1.43-10.41-.12Z"/>
  <path class="cls-6" d="M186.54,90.27c1.47-.4,2.43-1.16,3.23-.08,.21,.29-.02,1.37-.29,1.49-1.17,.48-1.69-.69-2.93-1.41Z"/>
  <path class="cls-15" d="M149.18,166.97c1.91-.25,3.82-.5,5.73-.74,.15-.06,.29-.13,.43-.18-.15,.51-.29,1.02-.43,1.52-1.12,.08-2.25,.15-3.37,.23-.46-1.23-1.57-.56-2.37-.83Z"/>
  <path class="cls-8" d="M71.91,147.59c0-.6,0-1.2,.01-1.8,2.1-.13,1.5,1.82,2.01,3.1-.67-.43-1.35-.87-2.02-1.3Z"/>
  <path class="cls-8" d="M139.29,147.66c-.96-1.47-1.85-2.09-1.71-3.19,.02-.14,.93-.39,1.24-.22,1.24,.66,.45,1.73,.47,3.42Z"/>
  <path class="cls-15" d="M155.84,165.99c1.55,.16,3.09,.33,4.64,.49-.04,.47-.08,.94-.12,1.42-1.45-.12-2.89-.24-4.34-.35-.06-.52-.12-1.04-.18-1.56Z"/>
  <path class="cls-8" d="M247.35,131.95c-.86-1.36-1.02-2.69,.15-3.98,.39,1.34,.28,2.67-.15,3.98Z"/>
  <path class="cls-15" d="M97.11,147.54c-.43-.68-.76-1.38-.69-2.22,.26-.31,.53-.62,.79-.93,.7,.91,.83,2.02,1.06,3.1-.39,.02-.77,.03-1.16,.05Z"/>
  <path class="cls-8" d="M132.65,169.86c.34-.08,.68-.15,1.02-.23,.56,1.04,1.6,.59,2.44,.79-1.13,.21-2.26,.42-3.4,.63-.02-.4-.04-.8-.06-1.2Z"/>
  <path class="cls-15" d="M118.74,172.73c.5,.05,1.35-.27,1.36,.43,0,.67-.85,.4-1.35,.47,0-.3,0-.6,0-.89Z"/>
  <path class="cls-15" d="M121.81,137.43c-.11-1.02-.15-2.04,.24-3.02-.04,1.01,.29,2.05-.24,3.02Z"/>
  <path class="cls-15" d="M122.82,133.75c.29,.07,.57,.14,.86,.22,.02,.55,.02,1.4-.55,1.31-.95-.14-.28-.98-.3-1.53Z"/>
  <path class="cls-15" d="M126.05,161.84c.35,.27,.7,.53,1.05,.8,0,.36,0,.71,0,1.07-.38-.02-.77-.04-1.15-.07,.03-.6,.07-1.2,.1-1.8Z"/>
  <path class="cls-15" d="M298.41,129.45c.32,.25,.89,.23,.91,.8,0,.09-.22,.28-.32,.27-.56-.08-.49-.63-.68-.99,0,0,.09-.07,.09-.07Z"/>
  <path class="cls-13" d="M100.69,90.82c-.4,.24-.72,.52-.45,1.05-.4-.12-.93-.2-.67-.79,.21-.49,.71-.32,1.12-.26Z"/>
  <path class="cls-9" d="M75.12,100.25c-.69-.21-1.01-.54-.38-1.18,.43,.29,.54,.69,.38,1.18Z"/>
  <path class="cls-15" d="M188.3,178.72c-.36,.34-.28,1.17-1.1,1.02,.04-.7,.42-1.02,1.1-1.02Z"/>
  <path class="cls-2" d="M122.09,171.51c.16-.3,.25-.78,.49-.86,.44-.15,.56,.31,.63,.67-.37,.06-.74,.13-1.12,.19Z"/>
  <path class="cls-8" d="M246.81,135.85c-.84-.65-.43-.95,.32-1.16,.1,.44,.06,.85-.32,1.16Z"/>
  <path class="cls-15" d="M183.18,179.79c.3-.46,.49-1.06,1.24-.95-.06,.78-.53,1.02-1.24,.95Z"/>
  <path class="cls-15" d="M98.46,164.73c.62-.09,1.25-.17,1.87-.26-.57,.47-1.23,.31-1.87,.26Z"/>
  <path class="cls-12" d="M238.15,158.4c-.07-.66-.14-1.31-.21-1.97,.56,.61,.47,1.28,.21,1.97Z"/>
  <path class="cls-15" d="M168.63,154.81c.08,.55,.15,1.09,.23,1.64-.71-.45-.73-1.01-.23-1.64Z"/>
  <path class="cls-13" d="M126.94,170.86c.59-.09,1.19-.18,1.78-.28-.53,.49-1.16,.36-1.78,.28Z"/>
  <path class="cls-15" d="M300.41,125.81c.24-.5,.49-1,.73-1.5,.15,.69,.11,1.3-.73,1.5Z"/>
  <path class="cls-15" d="M165.49,183.18c-.63-.16-1.26-.32-1.89-.48,.69-.06,1.4-.21,1.89,.48Z"/>
  <path class="cls-15" d="M116.52,174.24c-.32-.14-.64-.28-.97-.41,.46-.19,.79-.07,.97,.41Z"/>
  <path class="cls-15" d="M177.39,182.69c-.55,.21-1.1,.57-1.67,.04,.56-.01,1.11-.03,1.67-.04Z"/>
  <path class="cls-15" d="M179.55,182.12c-.41,.11-.82,.22-1.23,.33,.34-.38,.77-.39,1.23-.33Z"/>
  <path class="cls-15" d="M166.32,64.61c-.44,.07-.88,.13-1.32,.2,.44-.07,.88-.13,1.32-.2Z"/>
  <path class="cls-13" d="M130.29,170.3c.41-.11,.82-.22,1.23-.33-.34,.39-.77,.41-1.23,.33Z"/>
  <path class="cls-15" d="M169.34,161.59l-.38-1.26c.17-.09,.35-.17,.53-.26,0,0,.09,.06,.09,.06-.08,.48-.16,.97-.24,1.45Z"/>
  <path class="cls-15" d="M193.89,59c.18-.04,.37-.09,.55-.13-.12,.32-.25,.6-.55,.13Z"/>
  <path class="cls-15" d="M78.89,164.55c.65-.53,1.1,.02,1.6,.29-.53-.1-1.07-.2-1.6-.29Z"/>
  <path class="cls-15" d="M296.51,93.2c-.56,.4-1.02,.02-1.49-.2,.5,.07,1,.13,1.49,.2Z"/>
  <path class="cls-15" d="M169.9,163.8c-.06-.13-.14-.25-.19-.38-.02-.06,.04-.14,.06-.21,.04,.2,.08,.39,.12,.59Z"/>
  <path class="cls-15" d="M170.6,161.68c.05,.28,.1,.55,.16,.83-.05-.28-.1-.55-.16-.83Z"/>
  <path class="cls-15" d="M171.16,164.47c.06,.28,.11,.55,.17,.83-.06-.28-.11-.55-.17-.83Z"/>
  <path class="cls-15" d="M91.36,166.62c-.26-.01-.52-.02-.79-.04,.26,.01,.52,.02,.79,.04Z"/>
  <path class="cls-2" d="M118.73,155.82c0-.12,.04-.23,.09-.33,0,0,.07,.19,.07,.19l-.15,.14Z"/>
  <path class="cls-15" d="M96.54,140.7c.06,.13,.13,.25,.17,.39,.01,.05-.06,.13-.1,.19-.02-.19-.04-.39-.06-.58Z"/>
  <path class="cls-15" d="M189.51,61.23c-.19,.06-.38,.11-.57,.17,.19-.06,.38-.11,.57-.17Z"/>
  <path class="cls-15" d="M191.57,63.61c-.06-.14-.13-.28-.16-.43-.01-.06,.06-.14,.09-.21,.02,.21,.05,.42,.07,.64Z"/>
  <path class="cls-15" d="M298.27,131.44c.13,.07,.17,.16,.11,.29,0,0-.25-.07-.25-.07l.14-.22Z"/>
  <path class="cls-15" d="M110.82,120.69c-.09-.18-.04-.3,.15-.38,0,.14-.06,.27-.15,.38Z"/>
  <path class="cls-13" d="M192.91,74.12c.12,.14,.21,.29,.28,.46-.09-.15-.19-.31-.28-.46Z"/>
  <path class="cls-15" d="M111.08,119.67c.02-.18,.05-.35,.07-.53,.04,.13,.09,.26,.1,.39,0,.04-.11,.09-.17,.14Z"/>
  <path class="cls-15" d="M109.38,115.06c.18,.05,.35,.09,.53,.14-.18-.05-.35-.09-.53-.14Z"/>
  <path class="cls-10" d="M152.14,90.16c.05-.06,.09-.13,.16-.18,.02-.02,.09,.02,.14,.03-.11,.04-.21,.08-.32,.11,0,0,.02,.03,.02,.03Z"/>
  <path class="cls-13" d="M111.52,93.02c-.31-.15-.63-.3-.94-.45,.42-.07,.73,.09,.94,.45Z"/>
  <path class="cls-2" d="M264.31,102.1c-.2-.21-.3-.43-.01-.62,.02-.01,.2,.21,.31,.32-.1,.1-.2,.21-.3,.3Z"/>
  <path class="cls-15" d="M288.41,93.13c-.07-.23-.14-.47-.21-.7,.07,.23,.14,.47,.21,.7Z"/>
  <path class="cls-10" d="M146.55,97.93c-.06,.1-.13,.2-.2,.3,0-.06-.02-.15,0-.17,.06-.05,.15-.07,.23-.1,0,0-.04-.04-.04-.04Z"/>
  <path class="cls-15" d="M293.38,92.53c-.19-.03-.38-.07-.57-.1,.19,.03,.38,.07,.57,.1Z"/>
  <path class="cls-12" d="M287.34,28.27c-.44-.07-1.14-.01-1.26-.24-.43-.89,.49-.78,.89-.88,4.83-1.15,9.67-2.26,14.51-3.38,7.52-1.74,15.04-3.48,22.57-5.21,1.33-.31,2.66-.7,3.89,.28-13.53,3.14-27.07,6.29-40.6,9.43Z"/>
  <path class="cls-12" d="M252.32,35.7c7.66-1.95,15.32-3.93,22.99-5.83,.63-.16,1.83-1.23,2.01,.58-8.33,2.12-16.51,4.85-25.02,6.25,0-.33,.02-.67,.02-1Z"/>
  <path class="cls-12" d="M221.26,43.84c.3-.89,1.04-1.31,1.85-1.5,6.46-1.48,12.92-2.92,19.39-4.38,.38-.09,.72-.03,.94,.34-.04,.16-.05,.31-.04,.47-7.38,1.69-14.76,3.38-22.14,5.07Z"/>
  <path class="cls-12" d="M198.39,48.89c1.4-1.81,3.66-1.5,5.51-2.08,3.25-1.02,6.64-1.61,9.97-2.37,1.16-.26,2.35-.65,3.29,.53-5.97,1.28-11.94,2.55-17.81,4.24-.27,.08-.63-.2-.96-.32Z"/>
  <path class="cls-3" d="M180.31,53.74c.07-1.66,.85-2.6,2.56-2.82,2.09-.27,4.08-1.12,6.23-1.03,.13,.01,.24,.07,.32,.17-1.07,.41-2.18,.72-3.18,1.25-.81,.43-2.44-.38-2.37,1.47-.98,1.07-2.31,.87-3.56,.95Z"/>
  <path class="cls-14" d="M243.4,38.78c-.01-.16,0-.32,.04-.47,1.77-1.66,4.14-1.89,6.27-1.87,1.12,.01,1.72-.67,2.61-.73,0,.33-.02,.67-.02,1-2.87,1.13-5.91,1.48-8.9,2.07Z"/>
  <path class="cls-12" d="M183.86,52.8c-.07-1.85,1.56-1.04,2.37-1.47,1-.53,2.11-.85,3.18-1.25,1.03-.12,1.94,.06,2.59,.96-2.71,.59-5.43,1.18-8.14,1.76Z"/>
  <path class="cls-14" d="M278.45,30.17c-.05-.27-.18-.76-.14-.77,2.19-.78,4.33-2.22,6.72-.58-2.19,.45-4.39,.9-6.58,1.36Z"/>
  <path class="cls-12" d="M167.62,57.47c-3.39-.48-6.41,1.1-9.6,1.7-1.2,.23-2.44,1.04-3.61-.1,4.16-1.22,8.32-2.46,12.64-3.03,.19,.48,.38,.96,.58,1.43Z"/>
  <path class="cls-3" d="M167.04,56.03c-4.32,.57-8.48,1.81-12.64,3.03-.2-.28-.41-.56-.61-.83,4.4-1.4,8.86-2.55,13.44-3.19,.01,.21,.03,.41,.04,.62-.09,.11-.17,.24-.23,.37Z"/>
  <path class="cls-3" d="M151.59,59.04c-.36,.31-.72,.61-1.08,.92-2.38,.09-4.43,1.43-6.76,1.71,0-.31,0-.63,0-.94,2.56-.82,5.07-1.85,7.83-1.69Z"/>
  <path class="cls-12" d="M168.74,53.93c0,.2,.02,.39,.03,.59-.24-.09-.48-.18-.73-.27,.23-.11,.46-.22,.7-.32Z"/>
  <path class="cls-12" d="M167.27,55.66c-.01-.21-.03-.41-.04-.62,.24,.09,.49,.19,.73,.28-.23,.11-.46,.23-.69,.34Z"/>
  <path class="cls-11" d="M72.25,159.71c.48,.47,.96,.93,1.44,1.4,.07,.17,.19,.28,.37,.33,.35,.28,.77,.55,.48,1.08-.29,.53-.75,.42-1.12,.12-.7-.56-1.46-1.09-1.74-2.02,.19-.3,.38-.61,.57-.91Z"/>
  <path class="cls-11" d="M88.68,168.72c1.13,.49,2.06,1.07,1.11,2.49-1.17-.48-1.75-1.21-1.11-2.49Z"/>
  <path class="cls-11" d="M89.8,171.22c.98-.53,1.25-.12,1.11,.83-1.15,.76-1.11-.07-1.11-.83Z"/>
  <path class="cls-15" d="M71.4,159.8c-.24-.24-.18-.49,.11-.58,.37-.11,.66,.04,.74,.46-.28,.04-.56,.08-.85,.11Z"/>
  <path class="cls-11" d="M76.18,163.13c.06,.12,.14,.24,.17,.37,0,.05-.11,.12-.17,.18-.06-.12-.14-.24-.17-.37-.01-.05,.11-.12,.18-.18Z"/>
  <path class="cls-11" d="M75.26,162.93c-.07,.07-.14,.14-.2,.2-.06-.12-.14-.24-.17-.37-.01-.05,.11-.12,.17-.18,.07,.12,.13,.24,.2,.36Z"/>
  <path class="cls-15" d="M74.06,161.44c-.18-.05-.3-.16-.37-.33,.12,.11,.24,.22,.37,.33Z"/>
  <path class="cls-11" d="M71.4,159.8c.28-.04,.56-.07,.85-.11,0,0,0,.03,0,.02-.19,.3-.38,.61-.57,.91-.09-.27-.18-.55-.28-.82Z"/>
  <path class="cls-13" d="M303.54,119.12c-.38,0-.75,0-1.13,0,0-1.3,0-2.6,0-3.9,.46,.03,.88,.13,1.12,.59,0,1.1,.01,2.21,.02,3.31Z"/>
  <path class="cls-11" d="M304.61,130.83c.19,0,.38,0,.57,0-.04,.56-.22,1.02-.83,1.17-.28-.47-.44-.92,.27-1.17Z"/>
  <path class="cls-13" d="M296.2,169.82c-.14-.12-.22-.28-.23-.47,.16,.03,.33,.06,.5,.08-.09,.13-.17,.26-.26,.38Z"/>
  <path class="cls-11" d="M212.3,73.38c-.14,.36-.39,.45-.73,.27,.29-.28,.58-.55,.87-.83-.05,.19-.09,.38-.14,.56Z"/>
  <path class="cls-11" d="M155.84,165.99c.06,.52,.12,1.04,.18,1.56-.37,0-.74,.01-1.11,.02,.14-.51,.28-1.01,.43-1.52,.17-.06,.33-.08,.5-.05Z"/>
  <path class="cls-11" d="M120.98,163.66c0-.39,0-.77,0-1.16,1.03-.19,2.07-.36,3.09,.06-.37,2.22-2.05,.76-3.09,1.1Z"/>
  <path class="cls-11" d="M187.77,184.41c-.36-.29-.34-.72-.03-.9,.62-.36,.95,.21,1.29,.6-.42,.1-.85,.2-1.27,.3Z"/>
  <path class="cls-11" d="M303.48,129.97c.36-.33,.74-.42,1.13-.06,.32,.3,.19,.61,0,.92-1.07,.63-.98-.27-1.13-.85Z"/>
  <path class="cls-12" d="M143.75,61.67c2.33-.28,4.39-1.62,6.76-1.71,.03,1.93-1.72,1.42-2.64,1.69-3.57,1.04-7.01,2.29-10.11,4.37-.82,.55-2.01,1.08-1.86,2.23,.19,1.4,1.71,1.14,2.67,1.55,.82,.35,1.87-.18,2.59,.64-1.81,1.13-5.63,.37-6.48-1.28-.73-1.41,.26-2.3,1.1-3.12,2.24-2.19,5.16-3.18,7.96-4.37Z"/>
  <path class="cls-11" d="M238.56,139.16c-.97-.13-.52-1.24-1.11-1.62,.12-2.71,.24-5.43,.37-8.14,1.16-.71,1.25,.14,1.22,.92-.12,2.95,.27,5.93-.48,8.84Z"/>
  <path class="cls-11" d="M212.85,73.94c-.2,.03-.32,.38-.62,.08-.3-.3,.05-.42,.08-.62,.58-.21,.76-.04,.54,.54Z"/>
</svg>