<?xml version="1.0" encoding="UTF-8"?>
<svg id="Layer_1" data-name="Layer 1" xmlns="http://www.w3.org/2000/svg" viewBox="0 0 414 200">
  <defs>
    <style>
      .cls-1 {
        fill: #e9e5dd;
      }

      .cls-2 {
        fill: #fff9b8;
      }

      .cls-3 {
        fill: #fff200;
      }

      .cls-4 {
        fill: #fbb040;
      }

      .cls-5 {
        fill: #9ed2f1;
      }

      .cls-6 {
        fill: #b9ac98;
      }

      .cls-7 {
        fill: #8fc9e3;
      }

      .cls-8 {
        fill: #bdb6b1;
      }

      .cls-9 {
        fill: #cbc5c0;
      }

      .cls-10 {
        fill: #dbd5d1;
      }

      .cls-11 {
        fill: #423d39;
      }

      .cls-12 {
        fill: #57524d;
      }

      .cls-13 {
        fill: #757474;
      }

      .cls-14 {
        fill: #4e4945;
      }
    </style>
  </defs>
  <path class="cls-11" d="M124.73,118c1.62,.95,2.8-.86,4.32-.55,.66,.45,.07,.65-.24,.83-4.2,2.35-4.87,6.08-5.1,10.1,1.6,.06,2.18-1.18,3.35-1.61,3.47-1.26,7.04-2.21,10.54-3.35,6.24-2.04,12.01-1.54,17.42,1.88,.83,.53,1.29,.4,1.9-.06,1.49-1.13,2.01-2.44,1.04-4.09-.96-1.63-2.19-2.97-4.02-3.9-2.58-1.31-5.36-2-8.24-2.45-.63-.1-1.68,.16-1.44-1,.67,.04,1.33,.08,2,.12,.31,.4,.6,.33,.87-.04,.68-.34,1.41-.52,2.19-.46,.16-.04,.32-.08,.48-.12,1.18-.4,2.42-.52,3.67-.55,.29,.24,.57,.49,.86,.73-.23,.02-.46,.04-.7,.06-.21,.05-.42,.1-.63,.14-.65,.25-1.32,.35-2.02,.27-.34-.06-.75-.19-.93,.17-.22,.44,.22,.5,.55,.58,2.69,.74,5.28,1.84,7.01,3.79,1.19,1.34,2.54,1.6,4.14,1.88,5.35,.94,10.37,2.7,14.76,5.59,1.53,1.01,2.16,.69,2.94-.48,.71-1.07,.65-2.15,.08-3.27-1.29-2.51-3.25-4.44-5.93-5.79,.33-.82,1.33-.3,1.84-.74,.32-.04,.64-.08,.95-.12,.03,.28,.05,.57,.08,.85,1.09,1.52,2.98,2.51,3.62,4.34,.47,1.31,1.48,1.51,2.93,1.52,2.39,.03,4.77-.1,7.15-.1,4.28,.01,8.38,.63,11.04,4.18,.41,.55,.83,.75,1.45,.31,.57-.4,1.37-.7,.98-1.58-.34-.74-.71-1.47-1.02-2.22-.15-.36-.44-.85,0-1.11,.66-.39,.8,.38,1.21,.59,2.18,4.88,4.35,9.77,6.53,14.65,.31,.7,.84,1.09,1.39,.29,1.19-1.73,3.16-2.79,4.45-4.42,0,0,.11,.06,.11,.06l.1-.08c1.42-.59,.37-1.36,.1-1.98-1.3-2.98-2.67-5.94-4.01-8.91,.27-.02,.54-.03,.81-.05,1.95,.01,4.26-2.09,3.41-3.19-1.05-1.37-2.21-2.75-3.62-3.79-.64-.47-2.33-1.69-2.91,.43-.17,.17-.33,.33-.5,.5-.65-.5-.33-1.9-1.83-1.62-.29-.05-.58-.09-.86-.14l-.02-.69h3.45c-3.8-2.88-7.85-4.97-12.9-4.79-.06-.37-.16-.71-.59-.87-3.56-1.92-5.96-4.48-5.86-8.45,.34-1.51,.67-3.03,1.48-4.41,.36-.3,.72-.6,1.09-.9,1.4,2.8,3.14,5.32,6.65,6.32,.3,.05,.61,.09,.91,.14,1.23,1.47,.99-.94,1.81-.55,.41,1.08,1.2,1.78,2.48,2.02,3,.56,5.52,2.1,8.24,3.24,.12,.07,.25,.15,.37,.22,.77,.16,1.53,.33,2.3,.49,.03,.5,0,1.04,.77,1.13,.69,.6,1.66,.38,2.44,.7,1.03,.42,2.41,.16,3.09,1.28q-2.61,.62-.94,2.79c.21,.28,.41,.57,.68,.79,.64,.52,.98,1.91,1.7,1.57,.96-.45,1.12-1.76,1.25-2.83,.11-.94-.91-.92-1.42-1.34-.41-.33-1.45-.01-1.25-.98,.69-.61,1.33-.03,1.75,.23,1.47,.92,2.11,.28,2.59-.9,.05-.2,.1-.39,.15-.59,.44,.03,.8,.16,.98,.56-2.11,4.63-3.88,9.36-4.69,14.34-.24,.21-.33,.44-.11,.71,.16-.12,.32-.24,.49-.35,1.46-.8,2.83-1.82,4.4-2.35,2-.67,2.65-1.96,2.99-3.62,1.09-5.43,2.2-10.85,5.78-15.58-.99-.29-1.5,.31-2.17,.33-.02-.3-.04-.6-.06-.91,0,0-.02,.01-.02,.01,.17-.09,.34-.18,.52-.28,2.6-.53,4.85-1.75,7.1-2.95,.18-.11,.37-.21,.55-.32,.38-.14,.77-.28,1.15-.42,1.05,0,2.07-.03,2.89-.75,1.18-.04,2.36-.08,3.54-.12,.17-.13,.34-.27,.5-.4,.24-.25,.49-.5,.73-.76,.55-.12,.62-.49,.59-.91,.38-.29,.76-.58,1.14-.86,.25,.21,.5,.41,.74,.62-1.08,1.78-3.3,2.89-3.81,5.23,1.66-.27,3.19-.71,4.71-.71,2.32,0,4.32-.27,5.98-1.97,.79-.81,2.01-1.38,3.35-1.46,.66,.04,1.33,.08,1.42-.75,1.05,0,2.1,0,3.14,0,.07,.78,.68,.81,1.33,.78,.51,.1,1.01,.27,1.52,.29,.94,.04,1.81-.23,2.17-1.07,.4-.94-.67-1-1.2-1.32-1.97-1.21-4.26-1.55-6.54-1.89,.3-.27,.6-.54,.9-.81,2.25,.46,4.33-.1,6.37-.86,.52,.06,1.17-.08,1.28,.64-.85,.44-2.06,.26-2.76,1.33,2.04,.3,2.78,2.56,5,2.41,3.7-.26,6.99,.55,9.78,2.87,.23-.63,.09-1.12-.1-1.65-.88-2.51-3.25-3.52-5.58-4.6l1.83-.21c.41,.16,.9,.24,1.2,.5,1.56,1.33,3.39,1.91,5.5,2.31,3.95,.74,5.59,3.67,6.22,6.84,.5,2.51,1.06,4.82,2.5,7.12,1.97,3.16,1.74,6.62-.45,9.79-.63,.91-.79,1.62-.34,2.75,2.72,6.75,.96,12.76-4.16,18.1-.42,.44-.76,.83-.51,1.42,1.47,3.52,1.56,7.07,.46,10.69-.15,.49,.01,1.07,.03,1.6-.17,.44-.15,.84,.33,1.13,.1,.95,.21,1.89,.31,2.84-.29,.26-.57,.52-.86,.79-.16-.99-.32-1.99-.48-2.98-.06-.37,.14-.9-.4-1.04-.53-.13-.74,.29-.89,.69-.38,1.02-1.29,1.67-2.22,2.18-1.43,.8-1.81,1.8-1.83,3.31-.05,5.42-1.86,10.1-7.62,12.83-1.59-.07-3.18-.13-4.77-.2,1.51,1.11,3.13,1.06,4.76,.92,1.24,.2,2.43-.04,3.61-.37,.15,0,.28-.04,.38-.14,.31-.1,.63-.19,.94-.29,.02,.3,.04,.6,.07,.9,0,0,.02-.01,.02-.01-.17,.08-.35,.16-.52,.25-.26,.05-.52,.1-.79,.14-.18,.05-.36,.11-.54,.16-.82,.51-1.65,1.01-2.47,1.52-.39-.1-.78-.19-1.18-.29,.06-.18,.12-.37,.18-.55-2.82-.11-5.5-1.4-8.5-.29-4.91,1.82-9.95,3.09-14.92-.02-.66-.41-1.39-.2-1.84,.25-.63,.64,.21,.92,.62,1.22,3.69,2.66,7.75,4.4,12.65,3.95,.75,.3,1.75-.33,2.34,.52-.3,.07-.61,.15-.91,.22-.48-.39-.91-.34-1.3,.12-1.5,.24-3,.21-4.5,0-.53-.58-1.24-.39-1.92-.35-1.99,.27-3.99,.55-5.98,.82-.46,.02-.92,.03-1.39,.05-.73,.4-1.53,.26-2.31,.26-.03-.28-.05-.55-.08-.83,1.78-.22,3.55-.42,5.33-.66,.41-.06,.94-.06,.96-.64,.01-.41-.31-.55-.65-.72-1.53-.73-2.95-1.6-4.1-2.77-.54-.55-1.15-.52-1.83-.34-4.09,1.08-8.1,1.46-11.68-1.25-.63-.48-1.14-.06-1.61,.19-.53,.28-.21,.7-.04,1.06,.57,1.17,1.36,2.08,2.55,2.93,2.39,1.71,5.17,1.84,7.94,2.21-.21,.58-1.04,.32-1.34,.78-.63,.05-1.26,.08-1.86-.19-.17-.03-.35-.07-.52-.1-.59-.13-1.18-.26-1.77-.39-.56-.34-1.11-.8-1.72-.07-.26,.21-.53,.42-.79,.63-.17,.19-.34,.38-.5,.58-.22-.24-.43-.47-.65-.7-1.03-2.14-1.64-4.44-3.12-6.4-1.12-2.55-2.22-5.1-3.38-7.64-2-4.39-4.01-8.79-6.06-13.16-1.59-3.4-3.23-6.77-4.86-10.15-.15-.32-.17-.88-.81-.65-.13,.05-.1,.47-.15,.71-.15,0-.3,.02-.44,.07-3.28,1.38-5.14,4.93-3.9,7.58,3.81,8.14,7.66,16.27,11.45,24.42,1.03,2.22,1.92,4.49,2.87,6.74-.32,0-.64,.01-.95,.02-.13-.11-.25-.23-.38-.34-.21-.47-.5-.6-.91-.16-1.66,.06-3.3-.13-4.83-.7-1.58-.58-3.14-.74-4.77-.26-.47-.16-.9-.16-1.23,.25-1.02,.49-2.16,.44-3.26,.59-.47-.2-.89-.19-1.24,.2-3.16,.4-6.31,.46-9.45-.09-.37-.44-.88-.38-1.39-.3-.89-.21-1.79-.43-2.68-.64-.24-.07-.48-.14-.72-.21-.78-.56-1.52-.01-2.28,.07-.71-.08-1.42-.15-2.13-.23,.64-.29,1.28-.59,2.02-.93-.53-.59-.92-1.16-1.45-1.59-1.6-1.29-2.57-3-5.71-1.96-6.03,2-12.2,2.35-17.04-2.73-.64-.67-1.2-.17-1.79,.07-.98,.4-.47,.97-.19,1.49,2.38,4.43,6.38,6.72,11.77,7.17,.28,.32,.57,.32,.88,.03,.91,0,1.82-.01,2.73-.02,.78,.36,1.55,.5,2.23-.17,2.16-.46,4.33-.91,6.49-1.37,.26,.23,.52,.46,.78,.69-.25,.3-.6,.36-.98,.31-.34-.06-.65-.03-.87,.25-1.33,.4-2.66,.79-4.07,.87-.34-.35-.63-.3-.89,.07-4.62,.87-9.08,.51-13.3-1.46-.91-.42-1.68-.37-2.55-.08-1.33,.44-2.65,.9-4.11,.89-.59-.14-1.18-.25-1.63,.27-4.56,.59-9.11,.91-13.54-.67-.15-.04-.31-.07-.46-.11-1.79-.58-3.3,.67-5.01,.59-.46-.19-.88-.2-1.23,.19-2.4,.45-4.8,.41-7.2,0-.74-.66-1.63-.38-2.49-.32-.22-.02-.44-.05-.65-.07-.32-.39-.74-.42-1.2-.27-.69,0-1.37-.05-1.98-.4-.14-.05-.29-.1-.43-.15-.31-.07-.61-.15-.92-.22-.18-.04-.37-.09-.55-.13-.24-.01-.48-.02-.72-.03-.16,.04-.31,.08-.47,.12-.47,.06-.94,.12-1.41,.18-.59-.48-1.18-.47-1.76,.03-.46-.03-.92-.05-1.39-.08-.6-.42-1.24-.72-2.03-.59-.29-.05-.59-.11-.88-.16,.09-.29,.19-.57,.28-.86,1.9,.37,3.77,1.09,5.97,.59-2.15-2.38-4.87-4.2-5.62-7.22,.05-.63,.1-1.26,.15-1.9,.12,.05,.23,.1,.35,.16-.02,.45-.07,.91,.41,1.22,1.34,2.46,1.36,2.49,4.16,1.33,1.07-.44,2.03-1.09,3.04-1.64,.48-.26,.92-.59,.76-1.11-.61-1.98-2.71-2.09-4.38-2.58-1.19-.34-2.67-.82-3.63,.51-.26,.36-.24,.89-.34,1.34-.06,.28,.18,.69-.41,.74-.19,.07-.37,.14-.55,.2-.08-.58-.41-1.26-.19-1.73,.76-1.65-.27-2.08-1.72-2.34,.06-.28,.13-.56,.19-.84,.27-.17,.54-.33,.8-.5,0-.31-.01-.62-.02-.93-.3-.92,.08-1.81,.23-2.7,.11-.64,.42-1.28-.37-1.76,.28-.47,.77-.82,1.25-.45,2.02,1.54,3.67,3.37,4.88,5.51-.56,.66-.87,.04-1.16-.23-1.02-.97-1.99-1.98-3.15-3.15-1.6,4.65-.61,5.54,4.5,4.87-.05-.49-.11-.97-.16-1.46,2.18,.45,3.03,2.26,4.4,3.54,.68,.63,1.12,1.37,2.38,.69,1.09-.59,2.01-.96,1.61-2.41-.76-2.73-1.51-5.46-2.68-8.08-.12-.28-.24-.56-.36-.85,1.19-.83,1.31,.24,1.61,.79,1.15,2.05,1.74,4.27,2.29,6.49,.68,2.73,.6,2.6,3.57,2.13,1.73-.28,2-.91,1.74-2.27-.52-2.63-.88-5.29-2.04-7.78,1.41-.51,1.34,.62,1.67,1.25,.55,1.04,.43,2.39,1.91,3,.51,.21,.77,1.23,1.51,.57,.54-.48,.35-1.19-.08-1.84-.33-.49-1.57-.88-.48-1.71,2.86,2.83,5.76,5.65,8.56,8.51,2.32,2.36,3.7,.13,5.37-.21,1.79-.37,.94-1.92,.67-2.9-1.2-4.34-3.85-7.99-7.38-11.05-1.87-1.61-3.53-3.9-6.9-3.16-.72,.16-1.52-.47-2.17-.94-.32-.45-1.16-.15-1.36-.76,1.1-1.04,1.8-2.24,2.25-3.64,.73-2.28,1.08-4.58,1.21-6.94,.24-4.51,.16-4.59-4.77-3.88-1.98,.28-3.31,1.1-3.51,3.05-.17,1.67-.68,3.34-.6,5,.11,2.39-.48,5.09,2.33,6.77,.09,.31,.19,.61,.28,.92-.73,.23-1.27-.67-1.86-.39-.84,.71,1.44,1.44-.26,2.01-1.56-2.02-4.19-.49-6.02-1.72-.1,2.5-.1,4.73,2,6.43,.52,.42,.38,.97-.31,1.28-.82-.88-1.64-1.76-2.46-2.64,.05-.48-.06-.87-.69-.95-1.66-1.43-3.68-2.54-4.87-4.39,.4-.02,.8-.03,1.2-.05,1.32,.8,2.19,2.1,3.82,2.83,.27-1.07,.05-1.95-.27-2.81-.57-1.55-2.58-1.77-3.97-.45-.27,.15-.53,.31-.8,.46-1.28-1.36-3.19-1.17-4.85-1.58-2.79-.68-2.8-.67-2.97,1.88,.05,.28,.1,.56,.15,.83,.46,1.03,.99,2.05,1.36,3.11,.2,.57,1.12,1.16,.16,1.83-.77,.24-.75-.31-.88-.71,.05-.54,.23-1.12-.58-1.36-.48-.45-.69-1-.7-1.61,.03-.31-.02-.6-.34-.79-.36-1.21-.33-2.43-.1-3.65,.73-.82-.4-1.64,0-2.46,.3,.15,.59,.3,.89,.44,.02,.59,.38,.83,1.02,.76,2.76,1.03,5.71,.97,8.61,1.22,.36-.03,.61-.17,.67-.51-.7-1.32-1.84-2.6-1.97-3.96-.15-1.57-1.01-1.94-2.32-2.41-1.79-.63-3.72-1.21-4.96-2.6-.7-.78-1.42-1.96-2.3-1.89-1.06,.09-.79,1.54-1.19,2.37-.03,.06-.09,.11-.13,.16-.3-.04-.6-.07-.9-.11,1.64-3.02,.13-6.2,.62-9.28,.25-1.59,.78-3.11,1.86-4.43,.07-.05,.1-.11,.09-.19-.04-.14,.01-.23,.16-.29,.26,.21,.53,.43,.79,.64-.47,.98-1.05,1.93-1.39,2.94-.75,2.23-1.02,4.42,.65,6.52,1.76,2.22,1.91,2.26,3.6,0,.33-.44,.66-.9,1.08-1.28,1.26-1.12,1.85-2.37,1.99-4.04,.21-2.51,.55-5.08,2.28-7.25,.35-.44,.43-.85-.14-1.2,.03-.31,.06-.63,.09-.94Zm124.96,8.76c-.06,.28,.13,.39,.39,.46,.28,1.27,1.42,2.05,2.08,3.21q1.56-2.97-1.58-3.42c-.07-.01-.14-.03-.22-.05-.21-.14-.38-.42-.7-.15,0-.1-.01-.2-.02-.29-.07,.01-.14,.02-.2,.04,.09,.07,.17,.15,.26,.22Zm-16.51,23.78c-.29,.06-.58,.12-.87,.18-.93-1.92-1.97-3.71-4.53-4.29-.57-.13-1.05-.58-1.55,.02-.39,.47-.78,.88-.43,1.61,2.34,4.91,4.62,9.85,6.92,14.78,.16,.35,.26,.84,.86,.68,.46-.12,.34-.55,.35-.86,.07-1.87,.13-3.75,.19-5.62,.32-.3,.28-.55-.1-.78-.33-1.35-.65-2.71-.98-4.06,.16-1.08,1.04-.21,1.51-.45,1.85-.13,1.16,1.44,1.73,2.15,3.15,3.99,6.2,8.04,9.28,12.07,.26,.34,.58,.63,1.1,.57,1.73-.18,3.42-2.24,3.16-3.93-.81-5.24-3.21-9.86-6.75-14.05-.92-1.09-1.84-1.9-3.56-1.29-.79,.28-1.57-.19-2.35-.43-.76-.24-.83-1.84-2.26-.84-1.15,.8-.62,1.65-.45,2.54,.08,.4,.07,.8,.11,1.2-.23,.29-.54,.56-.8,.09-.21-.4-.22-.87-.34-1.31-.14-.49-.12-1.08-.73-1.35-.15-.06-.48,0-.59,.12-.55,.55,.08,.95,.27,1.41,.26,.61,.54,1.22,.81,1.82Zm44.66-.61c.31-.42-.42-1.71,1.14-1.1-.5,5.03,.68,10.09-.26,15.12-.07,.29-.14,.57-.21,.86-.18,1.22-.59,2.36-1.35,3.38-.96,1.29-.33,1.69,1.09,1.61,.79-.05,1.45-.25,2.21-.7,4.77-2.84,5.71-7.07,5.78-11.75,.07-4.04-2.14-7.64-2.63-11.57-.03-.21-.3-.5-.52-.56-1.54-.46-3.41,.59-3.74,2.04-.12,.53-.25,1.05-.37,1.58-.78,.23-.94-.23-.86-.73,.13-.79,.35-1.57,.56-2.34,.12-.45-.02-.81-.43-1.04-.15-.08-.43-.1-.58-.03-1.16,.55-1.81,2.76-1.12,3.8,.34,.51,.75,.98,1.13,1.47,.02,.1,.05,.19,.07,.29,.03-.11,.06-.21,.1-.32Zm-.69-19.52c-1.08,.34-1.95,.98-2.74,1.69-.5,.45-1.2,.87-.72,1.7,.96,1.69,1.89,3.39,2.84,5.09,.81-2.84,1.9-5.49,2.94-8.17,.43-1.12-.2-.99-.99-.7-.51-.04-.96,.04-1.32,.39Zm-93.03,17.95c-.21,.22-.42,.43-.63,.65-.43-.54-.81-1.12-1.3-1.62-.69-.7-1.53-1.39-2.62-1.3-2.86,.23-4.59,3.55-2.99,5.81,2.88,4.08,5.71,8.16,6.1,13.16,.07,.84,.51,.93,1.35,.77,4.27-.79,4.28-.77,3.95-4.75-.08-.93-.26-1.85-.39-2.78,.12-.55-.22-1.21,.45-1.64,.54,.7,.46,1.72,1.37,2.23,.64,.35,1.09,1.49,1.93,.93,.87-.58-.25-1.26-.44-1.91-.26-.89-1.81-1.57-.57-2.71,2.98,3.97,5.94,7.96,8.97,11.91,.5,.64,.46,1.98,2.14,1.47,3.75-1.14,4.24-1.52,3.96-3.55-.96-6.99-4.49-12.85-9.78-17.94-1.08-1.03-4.32-1.76-5.64-1.03-1.23,.68-.37,1.95-.56,2.94-.02,.13-.03,.27-.04,.4-.29,.13-.58,.27-.88,.4-.07-1.38-.14-2.76-.22-4.36-1.39,.76-2.47,1.72-4.01,1.9-.59,.07-.19,.66-.14,1.03Zm70.41-30.84c-.08-.26-.14-.52-.24-.77-.22-.58,.34-1.57-.66-1.7-1.07-.14-1.04,.92-1.38,1.54-.79,1.43-1.51,2.89-2.4,4.27-1.02,1.6-.7,4.02,1.03,5.05,1.94,1.16,2.41-.8,3.45-1.53,.06-.04,.14-.05,.21-.07,.18,.01,.35,.02,.53,.03,1.59,.49,2.87-.48,3.35-1.37,1.76-3.28,2.48-6.83,2.68-10.73-1.21,.66-2.02,1.41-2.95,1.56-2.48,.4-3.05,1.7-2.64,3.67-.33,.02-.66,.03-.99,.05Zm-124.08,60.2c6.23,2.64,12.67,2.96,19.37,1.44-1.74-.88-2.69-2.36-3.96-3.53-.88-.82-1.49-.92-2.66-.45-3.72,1.5-7.63,2.24-11.74,1.63-1.82-.66-3.29-1.83-4.91-2.82,.58,1.91,2.51,2.59,3.9,3.74Zm84.96,1.54c.17-.04,.33-.08,.5-.12,1.19-.29,2.37-.57,3.81-.92-1.18-1.26-2.37-2.29-3.2-3.51-.79-1.16-1.41-.95-2.48-.38-7.07,3.79-11.34,3.48-17.54-1.29-.94-.73-1.59-.15-2.18,.19-.79,.46,0,.97,.33,1.28,2.46,2.27,5.13,4.26,8.72,4.92,.21,.05,.43,.1,.64,.16,3.81,.17,7.62,.23,11.4-.33Zm-47.03-46.91c1.02,4.21,2.8,8.16,5.17,11.9,.8,1.26,2.13,1.39,3.47,1.34,.67-.02,1.75,0,1.81-.85,.13-1.92,1.31-3.84-.19-5.8-.73-.96-1.1-2.2-1.37-3.36-.48-2.05-2.06-2.78-4.09-3.12-.95-.16-1.91-.3-2.87-.44,.03-1.04,.88-.96,1.6-.85,1.32,.21,2.66,.41,3.92,.8,.79,.24,1.45,.29,2.09-.13,.83-.54,.32-1.28,.1-1.84-1.1-2.79-3.47-4.33-6.49-5.31-4.65-1.51-11.56-.7-13.65,3.76-.5,1.08-.8,2.3-.07,3.03,.71,.71,2.07,.76,3.34,.31,2.78-.98,5.72-.73,8.62-.59,.54,.03,.79,.3,.74,.79-.6,0-1.21,.01-1.81,.02-.11,.11-.21,.22-.32,.33Zm107.38,28.91c.79-.31,2.07,.04,2.1-1.3,.09-4.2-.06-8.34-2.88-11.97-.3-.38-.49-.92-1.07-.96-1.96-.12-3.54-1.11-4.92-1.78-1.45,4.09,.44,7.72,1.73,11.44,.29,.83,.47,1.69,.61,2.55,.44,2.77,.43,2.77,3.5,2.23,.35,.07,.68,.06,.93-.22Zm-41.17-43.99c1.4-.03,2.51-.82,3.77-1.2,2.1-.63,3.77-1.62,4.8-3.57,2.1-3.98,5.49-6.9,9.7-9.2,1.66-.91,4.2-1.32,4.37-3.8-.75-.42-1.58-.21-2.34-.1-3.94,.57-7.41,1.87-10.7,4.09-5.2,3.51-7.97,8.2-9.85,13.52-.07,.08-.13,.17-.2,.25,.15,0,.31,0,.46,0Zm33.96-21.8c-.23-.03-.47-.07-.7-.1-4.21,.07-7.22,1.97-9.38,5.05-2.64,3.75-3.63,8.04-4.79,12.26-.22,.81,.1,1,1.06,.92,4.67-.4,6.6-3.59,8.39-6.74,2.13-3.73,3.71-7.74,7.33-10.55-.53-.78-1.32-.6-1.91-.84Zm-14.01,8.58c-2.56,.76-4.67,2.19-6.33,4.01-4.74,5.21-8.02,11.12-9.97,17.62-.22,.72,.25,1.11,.92,.93,4.14-1.13,7.6-3.23,9.83-6.57,3.23-4.83,4.05-10.44,5.86-15.73,.15-.14,.28-.3,.02-.43-.05-.03-.21,.11-.32,.17Zm-61.08-7.74c-2.31,3.8-.85,8.16,3.16,9.86,1.27,.54,2.65,.88,3.97,1.33,3.6,1.23,7.42,1.92,10.46,4.35,3.02,2.42,5.92,4.82,7.78,8.16,.84,1.51,1.29,3.29,2.65,4.84,.7-2.69,1.32-5.04,1.93-7.39,.16-.59,.29-1.19-.11-1.75-2.73-3.78-5.5-7.5-10.14-9.67-3.57-1.67-7.4-2.72-11.18-3.88-3.57-1.09-6.49-2.87-8.53-5.85Zm-29.63,52.55c.63,3.91,2.75,7.32,4.96,10.58,1.88,2.77,4.57,5.1,6.91,7.62,1.6,1.72,2.93-.19,4.39-.29,1.07-.07,1.46-.63,1.33-1.66-.86-7-5.14-12.28-10.54-17.01-.4-.35-.88-.54-1.43-.31-1.75,.73-3.15,.25-4.46-.9-.85-.76-1.12-.19-1.16,.56-.02,.47,0,.94,0,1.41Zm43.98-.93c.01,3.75,1.84,6.18,4.83,6.87,1.45,.33,3.13,.4,4.07-.44,.76-.68-.3-1.96-.74-2.9-1.87-4-1.3-6.57,2.32-9.5,2.9-2.35,5.56-4.87,7.48-7.95,.25-.4,1.09-1.39,0-1.32-3.28,.21-6.93-.46-9.6,1.92-2.58,2.3-5.28,4.56-6.76,7.67-.92,1.94-1.39,3.95-1.6,5.65Zm-17.68,18.04c-1.04,.09-2.09,.1-3.11,.29-4.44,.82-8.65,2.2-12.62,4.19-1.12,.56-.93,.95-.17,1.59,2.91,2.47,6.41,3.01,10.2,2.55,4.49-.55,8.67-1.96,12.68-3.81,.78-.36,2.19-.37,1.87-1.61-.29-1.12-1.01-2.19-2.42-2.39-2.13-.29-4.22-.94-6.43-.79Zm80.15-4.78c-.28-4.07-1.94-7.87-3.77-11.62-.64-1.32-1.3-2.8-3.56-2.05-.37,.12-1.02-.19-1.43-.44-1.73-1.07-2.84,.63-4.3,.82-.75,.09-.19,1.3-.1,2,.7,5.29,4.15,9.36,7.51,13.45,.49,.59,.93,1.97,2.14,1.13,1.31-.91,3.97-.74,3.52-3.29Zm4.85-40.8c-.48-5.21-2.24-10.1-4.59-14.84-.68-1.37-3.99-2.21-4.58-1.22-1.7,2.85-3.9,5.7-1.25,9.06,.17,.21,.28,.48,.37,.73,1.17,3.2,4.14,5.6,4.93,8.94,.26,1.11,.85,1.6,2.07,1.72,1.34,.14,2.15-.45,2.68-1.42,.51-.93,.4-1.96,.37-2.98Zm-130.71,2.86c-5.24,0-8.06,1.64-9.37,4.98-.51,1.3-.1,2.54,.57,3.4,.57,.75,2.01,.2,3.13,.02,4.77-.78,9.55-1.61,14.31,.16,2.1,.78,3.21-.1,3.09-2.13-.12-2.01-1.34-3.33-3.13-4.34-2.76-1.56-5.89-1.8-8.6-2.08Zm46.01,7.48q5.12-.02,8.97,1.42c1.41,.53,1.72-.12,1.79-1.19,.2-2.78-1.57-5.53-4.44-6.63-3.33-1.27-6.77-1.41-10.32-.76-4.26,.78-6.14,2.91-5.96,6.77,.07,1.51,1.2,1.89,2.19,1.39,2.61-1.3,5.38-.83,7.77-1.01Zm-55.95,45.26c6.78-.66,12.65-3.24,17.89-7.07,.49-.36,1.61-.54,1.06-1.47-.44-.75-1.21-1.1-2.23-1.1-3.9,.01-7.72,.43-11.54,1.2-4.27,.86-7.02,3.92-10.69,5.61-.93,.43-.14,.91,.26,1.22,1.49,1.17,3.29,1.54,5.25,1.61Zm80.91-9.37c-6.53-.63-11.68,2.52-17.11,4.89-.99,.43-.92,.87-.23,1.5,2.42,2.22,5.35,3.17,8.75,2.64,5.49-.85,9.59-4.04,13.91-6.85,.99-.64,.5-.99-.05-1.54-1.57-1.58-3.55-.39-5.28-.65Zm82.97-55.56c-.11-.75,.03-1.75-.38-2.73-1.94-4.67-6.33-7.72-12.57-6.85-1.43,.2-3.61-.3-4.08,.94-.53,1.39,1.34,2.49,2.47,3.47,3.96,3.43,8.58,6.24,11.96,10.22,.56,.66,.91,.38,1.32-.19,1.02-1.41,1.33-2.97,1.28-4.86Zm-144.15,38.37c-.55,1.6,.11,2.87,1.26,4.01,2.47,2.43,3.98,5.33,5.04,8.44,1.06,3.12,1.07,3.01,4.68,3.09,1.79,.04,2.18-.56,2.07-1.98-.43-5.98-3.56-10.76-7.89-15.15-1.54-1.56-3.17-1.08-4.67-.83-1.39,.23-.05,1.64-.51,2.42Zm-4.1,22.96c3.11,2.12,6.87,2.1,10.67,1.44,4.36-.75,8.29-2.6,12.36-4.11,.85-.32,1.87-.83,1.76-1.48-.16-.94-.98-1.7-2.31-1.87-8.51-1.11-16.37-.25-22.48,6.01Zm90.37-55.57c-7.52,2.1-19.89,7.42-20.78,14.8,5.09,.36,9.49-.49,12.96-4.35,2.94-3.27,6.17-6.29,7.82-10.45Zm48.02,11.91c.25-1.22-.16-1.82-1.65-1.6-1.02,.15-1.9-.24-2.69-.8-1.59-1.15-1.98-1.03-2.42,.9-.49,2.17-1.23,4.26-2.04,6.34-.99,2.52-1.72,5.11-1.68,7.84,.03,1.71,1,2.38,2.77,2.5,1.83,.12,3.01-.68,3.69-2.09,2-4.2,3.01-8.65,4.02-13.08Zm-42.45,44.77c1.38-.24,2.85-.48,4.31-.77,4.96-.97,8.61-4.07,12.76-6.36,.52-.29,1.58-.47,1.29-1.16-.31-.75-.81-1.62-1.88-1.84-.43-.09-.89-.07-1.34-.07-3.56,.02-6.95,.69-10.12,2.19-2.76,1.3-5.38,2.8-7.76,4.61-.81,.62-2.68,.69-2.38,1.7,.3,.99,1.97,1.26,3.26,1.41,.59,.07,1.17,.18,1.87,.29Zm-84.6,6.75c3.53-.17,6.82-.26,9.98-1.25,.96-.3,1.21-.54,.53-1.37-.97-1.17-1.9-2.4-2.61-3.71-.57-1.06-1.21-1.08-2.26-.7-2.92,1.04-5.88,1.91-9.07,2.08-3.09,.16-5.99-.32-8.55-1.9-1.28-.79-2.38-.14-3.01,.46-.69,.66,.5,1.29,1.06,1.69,1.27,.9,2.26,2.07,3.72,2.8,3.28,1.64,6.82,1.86,10.2,1.89Zm101.33-6.96c.73-.06,1.57-.06,2.36-.22,4.56-.91,9.09-1.93,11.35-6.22,.73-1.38,1.81-3.19,.72-4.33-1-1.04-2.92,.12-4.33,.59-5.57,1.84-10.31,4.99-15.17,7.96-.99,.6-.44,.92,.21,1.27,1.47,.79,3.1,.92,4.86,.95Zm30.35-58.24c-.76,2.79-1.39,5.12-2.03,7.46-1.21,4.4-3.37,8.82,.52,13.06,.09,.1,.09,.25,.14,.38,.3,.87,.78,.92,1.37,.22,2.16-2.53,3.86-5.25,4.42-8.45,.83-4.71-.53-8.82-4.41-12.68Zm-26.36,16.94c-.67,0-1.35,.04-2.02,0-1.13-.07-1.54,.37-1.21,1.32,.92,2.67,1.34,5.55,3.41,7.78,1.68,1.81,3.12,3.92,5.91,4.63,2.15,.54,3.16-.2,3.37-2.19,.31-2.88-1.53-5.11-2.64-7.55-1.51-3.32-2.77-4.02-6.82-3.98Zm6.3-1.36c-.11-.29-.25-.81-.5-1.29-1.99-3.91-7.89-6.42-12.55-5.35-3.75,.85-6.3,3.56-6.52,6.82-.07,1,.29,1.51,1.38,1.04,2.05-.87,4.25-.82,6.38-.83,3.6-.01,7.3-.91,10.78,.77,1.03,.5,1.05-.28,1.03-1.16Zm-61.21,30.5c.03-1.81,.61-4.17-.89-5.22-2.87-2.01-4.13-4.44-4.48-7.5-.11-.93-1.08-.98-1.7-1.01-.9-.03-2.53-.06-2.55,.63-.06,1.7-1.18,3.5-.12,5.1,2.54,3.82,4.18,7.86,4.56,12.3,.04,.48,.07,.88,.86,.9,2.98,.07,4.26-1.02,4.32-3.79,0-.47,0-.94,0-1.41Zm58.8-57.78c.82-.19,1.75-.28,2.67-.48,3.76-.79,7.33-2.25,11.25-2.46,.99-.05,2.51,.3,2.82-.58,.38-1.1-.68-2.11-1.68-2.87-.57-.43-1.18-.77-1.9-1.03-6.25-2.29-12.07-.54-15.9,4.71-.89,1.22-.65,1.79,.7,2.39,.66,.29,1.3,.21,2.03,.32Zm18.09,30.38c-.92,2.64-1.49,5.29-2.76,7.64-1.4,2.6-1.19,5.04-.38,7.6,.41,1.29,1.02,2.52,1.17,3.87,.06,.49,.06,1.22,.68,1.39,.75,.21,1.17-.46,1.6-.88,6-5.9,4.54-13.28-.32-19.63Zm-26.47,2.75c.3-1.08,.12-2.28-.08-3.48-.1-.62-.32-1.03-1.11-.95-1.63,.17-3.27,.28-4.89,.53-.64,.1-1.31,.48-1.29,1.22,.11,3.74-.91,7.29-2.09,10.83-.23,.69-.09,1.33,.67,1.75,1.98,1.1,6.23-.18,7.04-2.16,1.01-2.46,1.72-4.98,1.75-7.75Zm-59.86,5.7c.82-2.16-1.04-3.67-1.64-5.49-1.23-3.79-2.81-4.71-7.21-4.86-2.06-.07-2.11,.6-1.71,2.12,1,3.76,2.87,7.15,5.1,10.4,.89,1.3,2.26,2.13,4.08,2.12,1.24-.01,3.08,.53,1.68-1.72-.43-.7-.23-1.71-.32-2.57Zm-11.75-7.95c-.16-1.41-.44-2.85-2.84-2.33-.42,.09-.89,.06-1.34,.03-2.2-.13-3.3,.76-3.47,2.76-.21,2.48-.67,4.9-2.13,7.11-.84,1.27-1.28,2.61,.57,3.64,2.07,1.15,4.23,1.1,5.35-.57,2.16-3.22,3.53-6.73,3.85-10.63Zm53.01-1.84c-4.13-.05-4.07-.07-3.06,3.54,.94,3.34,3.51,5.66,5.85,8.18,1.03,1.1,2.12,1.53,3.67,1.32,1.82-.25,1.44-1.64,1.8-2.65,.25-.71-.2-1.3-.45-1.92-.9-2.16-1.94-4.29-2.63-6.51-.37-1.2-1.05-1.71-2.26-1.83-.96-.09-1.94-.09-2.91-.13Zm11.6,24.69c-.06-3.75-1.36-6.96-3.87-9.78-.6-.67-4.42-1.04-4.35-.57,.27,1.69-1.22,3.22-.11,5.04,1.97,3.22,3.57,6.61,4.07,10.34,.08,.6-.45,1.75,.8,1.68,.92-.05,1.98-.39,2.35-1.55,.56-1.75,.97-3.5,1.11-5.17Zm-87.6-21.09c.08-3.51-.32-3.84-3.78-3.6-.52,.04-1.06,0-1.56,.11-.92,.2-1.76,.65-1.74,1.59,.06,2.83-1.2,5.37-1.94,8.03-.35,1.25-.71,2.72,1.15,3.49,1.67,.69,4.06,.15,4.97-1.28,1.73-2.72,2.42-5.73,2.92-8.34Zm-10.47,7.52c.4-1.31-.25-2.35-.93-3.42-.76-1.22-1.52-2.47-2.01-3.79-1.41-3.85-2.32-4.43-6.67-4.4-1.51,.01-1.57,.6-1.32,1.58,1.03,4.03,3.01,7.67,5.79,10.93,1.04,1.22,2.69,1.68,4.44,1.28,1.52-.34,.4-1.49,.69-2.18Zm129.66-17.5c1.13,.11,1.79-.41,2.19-1.33,.78-1.75,1.11-3.6,1.64-5.4,.92-3.13,2.02-6.2-2.34-8.07-.22-.1-.29-.45-.5-.62-.91-.71-1.6-1.06-1.78,.54-.13,1.12-.66,2.19-.95,3.3-.77,2.93-1.62,5.86-1.25,8.92,.19,1.58,.99,2.67,2.98,2.66Zm-11.31-1.11c1.96-.64,2.67-2,3.09-3.31,1.81-5.63,2.17-11.31,.04-16.97-.23-.62-.43-1.51-1.43-1.12-.97,.37-2.36-.08-2.82,1.47-.82,2.79-.65,5.37,.38,8.12,1.4,3.72,2.28,7.58,.74,11.8Zm-146.25,3.04c-3.07,.27-5.39,1.82-7.42,3.73-3.76,3.55-3.43,4.57,1.62,6.32,1.19,.41,1.72,.17,2.3-.74,1.36-2.11,3.51-3.37,6.04-4.13,2.56-.76,2.95-2.39,.95-4.06-.98-.81-2.17-1.14-3.5-1.13Zm-3.37,12.35c.2,2.26,3.09,6.61,6.85,7.21,.83,.13,1.65,.11,2.41-.23,.47-.21,.83-.45,.66-1.09-.97-3.49-1.86-7-2.86-10.49-.16-.54-.26-1.39-1.38-1.29-1.99,.17-5.72,4.01-5.68,5.88Zm105.43,6.09c1.36-.37,2.74-.95,3.64-2.37,2-3.14,2.65-6.63,3.41-10.09,.1-.47,.94-1.18-.24-1.43-.8-.17-1.49-.09-1.97,.82-.76,1.44-1.51,3.09-2.99,3.91-2.38,1.33-3.56,3.25-4.64,5.4-1.18,2.36-.37,3.66,2.8,3.75Zm18.15-49.32c-9.21,.68-16.43,7.96-14.23,14.7,.17-.4,.24-.58,.32-.75,2.27-4.49,6.02-7.81,10.64-10.28,1.7-.91,2.75-1.89,3.27-3.67Zm-11.91,33.14c-.27,.81,.02,1.09,1.07,1.14,3.67,.15,7.39-.64,11.01,.97,1.44,.64,1.53-.8,1.17-1.76-1.25-3.39-5.02-5.01-8.73-3.81-.63,.2-1.27,.37-1.91,.52-1.68,.39-2.4,1.45-2.61,2.95Zm-33.9,12.58c.1,1.06,.05,2.39,1.33,3.28,.91,.62,1.69,.95,1.92-.59,.31-2.01,1.16-3.86,2.39-5.58,.3-.42,.76-.84,.46-1.46-.7-1.47-1.38-2.96-2.03-4.45-.33-.75-.86-1.04-1.74-.88-.8,.15-1.42,.44-1.5,1.26-.28,2.74-.55,5.48-.84,8.42Zm26.78-11.63c-1.44,.11-2.09,.7-2.59,1.62-.94,1.74-1.77,3.63-3.36,4.92-2.05,1.65-2.61,3.27-.99,5.34,.63,.81,.35,2.47,1.42,2.51,1.24,.04,1.32-1.58,1.9-2.46,2.4-3.64,3.2-7.68,3.61-11.92Zm7.9,33.65c-.82,.03-2.15,.09-3.49,.14-.79,.03-1.04,.29-.68,1.02,.74,1.52,1.43,3.07,2.07,4.63,.38,.91,.89,.97,1.88,.66,2.36-.74,4.06-2.36,6.16-3.45,.73-.38,.52-.73,.18-1.28-1.32-2.13-3.63-1.39-6.11-1.72Zm41.71-38.12c.46-.03,.54-.39,.74-.66,1.13-1.58,1.83-3.19,1.84-5.19,.02-3.71,1.47-7.22,2.45-10.8,.17-.6,.5-1.26-.2-1.65-.91-.52-1.31,.32-1.77,.78-1.08,1.07-1.81,2.28-1.84,3.77-.08,3.85-.4,7.64-2.6,11.09-.44,.69,.66,2.61,1.38,2.65Zm-52.79,52.63c.42,.03,.94,.18,1.22-.21,.5-.67-1.61-4.35-2.6-4.46-2.69-.28-5.32-.66-7.49-2.29-.52-.39-.99-.15-1.39,.17-.43,.35-.21,.73,.06,1.07,2.53,3.14,5.6,5.51,10.19,5.7Zm35.18-63.51c-.83-.05-.64,.62-.75,.99-.42,1.42-.7,2.87-1.17,4.28-.39,1.18,.04,1.64,1.34,1.65,1.96,.01,3.86,.3,5.68,1.01,.37,.14,.82,.54,1.19,.07,.28-.35,.06-.76-.14-1.13-.69-1.25-1.24-2.6-2.11-3.74-1.01-1.32-2.3-2.48-4.03-3.13Zm-39.21,51.42c-1.46-3.17-3.06-6.29-4.34-9.52-.74-1.88-1.85-2.19-3.85-1.8-1.46,.29-1.3,.71-.69,1.57,1.31,1.85,2.5,3.77,3.9,5.57,1.29,1.65,2.72,3.24,4.98,4.19Zm7.89-29.79c4.29-3.68,5.92-8,6.25-12.96-4.89,3.19-6.5,7.54-6.25,12.96Zm7.93,8.7c1.88-.12,3.82-.55,4.81-1.87,.94-1.25-.96-2.03-1.72-2.9-.8-.92-.94-2.81-2.53-2.62-1.86,.22-1.65,2.14-2.2,3.4-.3,.69-.57,1.37-.5,2.13,.12,1.2,.85,1.79,2.14,1.85Zm55.88-44.1c.3-3.35-1.68-6.76-4.65-8.09-.68-.3-1.54-.67-2.11-.26-.73,.52,.03,1.22,.32,1.76,.62,1.15,1.1,2.33,1.4,3.58,.15,.63,.24,1.3,1.14,1.58,1.32,.41,2.59,.94,3.9,1.44Zm-148.74,45.49c1.55-.18,3.1-.97,4.04-2.25,.7-.94-.52-1.8-1.04-2.64-.47-.76-.95-1.51-1.46-2.25-.29-.41-.28-1.19-1.13-1-.71,.15-.69,.81-.79,1.32-.31,1.58-.71,3.13-1.44,4.59-.74,1.5-.24,2.22,1.82,2.23Zm21.71-.55c3.02-.04,4.45-2.08,3.17-4.5-.48-.91-.94-1.83-1.41-2.74-.18-.36-.23-.9-.76-.9-.63,0-.84,.57-.92,1-.3,1.68-1.17,3.18-1.87,4.72-.64,1.42,.07,2.44,1.79,2.41Zm95.67-8.51c-.68,2.29-1.22,4.22-1.85,6.13-.19,.57-.34,1.01,.2,1.45,.57,.47,1.22,.57,1.85,.21,.88-.5,1.8-1,2.5-1.68,.48-.47,1.05-1.11,.37-1.94-1.01-1.23-1.89-2.55-3.06-4.17Zm-45.58-7.01c.62-1.27,1-2.05,1.39-2.83,1.55-3.04-.45-5.53-4.18-5.26-.87,.06-.75,.49-.54,.95,1.04,2.26,2.1,4.51,3.32,7.14Zm61.71-2.9c-2.21-3.51-3.22-3.81-7.64-2.36,.61,1.13,1.27,2.25,1.81,3.42,.29,.63,.6,.96,1.29,.52,1.36-.88,2.99-1.11,4.54-1.57Zm-88.43,16.3c.83,0,1.72,.02,2.34-.49,.5-.41,1.53-.67,.84-1.69-.81-1.2-1.45-2.48-2.18-3.72-.16-.27-.15-.71-.68-.64-.43,.06-.5,.41-.63,.74-.44,1.13-.88,2.27-1.41,3.37-.89,1.86-.49,2.46,1.71,2.44Zm-32.09-10.1c-.16-.45,.68-1.53-.67-1.78-1.22-.22-2.52-.3-3.72,.14-.45,.17-.18,.59-.06,.87,.73,1.67,1.47,3.33,2.23,4.98,.16,.35,.31,.81,.88,.71,.43-.07,.44-.48,.54-.79,.41-1.28,.92-2.54,.8-4.14Zm21.39,5.06c.86-1.8,1.06-3.39,1.12-4.97,.02-.63,.75-1.58-.4-1.91-1.06-.3-2.21-.12-3.3,.12-.34,.08-.4,.39-.27,.64,.95,1.91,1.21,4.08,2.85,6.11Zm45.53,33.51c-.66-1.41-1.35-2.79-1.94-4.2-.29-.69-.72-.58-1.17-.3-.47,.29-.86,.68-1.28,1.04-.72,.61-2.43,.68-2.16,1.67,.26,.96,1.8,1.31,2.93,1.49,1.12,.18,2.23,.86,3.62,.3Zm26.52-33.01c1.11-2.11,1.02-4.27,.99-6.38-.02-1.34-1.29-.76-2.05-.68-.62,.07-1.69,.03-1.21,1.14,.82,1.91,1.1,3.98,2.27,5.92Zm.52,7.48c2.21,2.86,3.05,5.87,3.18,9.06,.02,.59-.14,1.26,.63,1.58,.38,.16,.69-.1,.96-.36,.58-.56,.67-1.1,.21-1.8-1.39-2.11-1.99-4.47-2.21-6.88-.14-1.53-.92-1.96-2.76-1.6Zm-48.74-20.67c-.85,1.16-1.18,2.22-1.24,3.37-.11,2.1,.32,2.34,2.46,1.56,.9-.33,.93-.68,.59-1.33-.59-1.14-1.15-2.28-1.81-3.6Zm75.39-23.92c-.17,.12-.33,.23-.5,.35,1.06,1.8,1.08,3.9,2.15,6.13,.5-1.25,2.26-1.71,1.73-2.66-.79-1.42-2.23-2.56-3.39-3.82Zm-127.06,47.2c.2-1.76,.16-2.86-.13-3.52-.22-.51-.37-1.05-1.24-.78-1.92,.58-2.23,1.72-.75,2.93,.59,.48,1.07,1.11,2.12,1.37Zm82.5,11.48c.21,.51-.81,1.53,.51,1.85,.74,.18,1.72,.15,2.38-.16,.58-.27,.14-1.04-.24-1.4-.78-.76-.79-2.09-2.16-2.37-.32-.07-.48,.24-.49,.53,0,.47,0,.93,0,1.56Zm-92.14-.34c.19,1.06,.34,1.84,.47,2.62,.1,.57-.1,1.35,.91,1.32,.79-.02,1.84,.36,2.32-.27,.49-.64-.37-1.2-.84-1.68-.72-.74-1.42-1.53-2.86-2Zm46.22-1.43c0,1.6-.02,2.85,0,4.1,.01,.63,.56,.73,1.11,.73,.58,0,1.26,.27,1.72-.15,.5-.46-.06-.86-.32-1.23-.75-1.07-1.54-2.11-2.52-3.45Zm-14.31-9.99c0-1.3,.08-2.14-.02-2.97-.11-.89-1.04-1.1-1.8-1.27-.64-.15-1.18,.4-1.46,.78-.54,.72,.43,.98,.83,1.36,.64,.61,1.35,1.16,2.45,2.09Zm17.57,10.51c-.69,1.12-.55,1.59,1.05,3.93,.65,.95,1.54,.98,2.84,.85-1.41-1.74-2.66-3.27-3.89-4.78Zm49.62,3.11c-.98-1.43-1.8-2.66-2.67-3.86-.18-.25-.54-.47-.86-.53-.22-.04-.47,.21-.52,.53-.22,1.35,2.3,3.94,4.05,3.86Zm-107.42-25.8c.89-1.4,.88-2.58,1.11-3.7,.09-.41,.71-.91,.03-1.2-.64-.28-1.25,.23-1.86,.43-.72,.23-.56,.69-.27,1.11,.61,.9,.6,1.97,.99,3.36Zm110.63,6.89c-.97,.81-2.58,.9-2.34,1.9,.21,.92,1.18,1.86,2.46,2.39,.08-1.42,.24-2.67-.12-4.28Zm-81.45-22.42c-.04-.51-.52-.65-.92-.74-.72-.16-1.47-.22-2.2-.34-.48-.08-1.09-.5-1.34,.12-.22,.54,.19,1.04,.82,1.26,.69,.24,1.39,.56,2.11,.64,.69,.08,1.3-.26,1.54-.93Zm70.96,32.04c-.15,1.66-.31,3.01,1,4.05,.41,.33,.88,.84,1.53,.34,.59-.46,.33-.95-.04-1.41-.76-.92-1.53-1.84-2.48-2.98Zm-37.98-7.61c1.16,1.19,2.31,2.39,3.54,3.66q.69-2.66-3.54-3.66Zm62.19,11.68c-.2,.13-.44,.2-.55,.35-.7,1.01,.43,1.72,.59,2.6,.14,.74,.91,.81,1.62,.73,.21-.02,.53-.09,.59-.22,.29-.67-.39-1.13-.67-1.58-.41-.65-.68-1.49-1.58-1.89Zm-55.84-20.19c0-1.66-.02-2.83,0-4,.02-.88-.73-.91-1.37-1.01-.48-.07-1.07,.16-.81,.62,.71,1.26,.62,2.84,2.17,4.39Zm52.91,21.09c-.26,.9-.47,1.6-.67,2.29-.12,.39-.26,.87,.36,.94,.72,.07,1.86,.1,1.97-.51,.18-1.01-.37-2-1.66-2.72Zm-110.07,1.76c.45,1.83,1.68,2.74,2.49,3.86,.28,.39,.96,.3,1.47,.15,.37-.1,.42-.4,.19-.61-1.19-1.1-2.23-2.38-4.15-3.4Zm67.31-3.24c-.15,.07-.3,.13-.45,.2,.08,1,.08,2.01,.27,2.99,.1,.52,.63,1,1.3,.87,.81-.16,.72-.84,.49-1.31-.46-.95-1.07-1.84-1.61-2.75Zm-.27,4.78c.13,1.07-1.04,1.97,.11,2.67,.45,.27,1.81,.39,1.91-.25,.15-1.01-.94-1.63-2.02-2.42Zm-81.75-36.23q2.36,1.65,3.26-.98c-1.25-.03-2.3,.26-3.26,.98Zm116.35-.68c.69-.04,1-.46,.88-.93-.14-.59-.27-1.47-1.17-1.37-.54,.06-1.27,.61-1.29,1.21-.02,.85,1.03,.76,1.57,1.1Zm-28.96-2.85c-.35-.83-.11-2-1.48-2.05-.52-.02-1.32,.58-1.22,1,.33,1.28,1.83,.52,2.69,1.05Zm-1.21,42.41c.35,0,.67-.26,.56-.46-.48-.96-1.19-1.8-2.1-2.47-.06-.05-.45,.12-.51,.25-.31,.69,.39,1.06,.7,1.55,.31,.5,.5,1.13,1.34,1.13Zm-57.33-18.32c.48,.96,1.3,1.54,2.18,2.2q.5-2.41-2.18-2.2Zm107.1,1.02c.13-.81,.68-1.67-.29-2.29-.13-.09-.77,.18-.89,.4-.52,.95,.48,1.34,1.18,1.89Zm-97.7,14.56q.86,2.01,2.27,2.32c-.46-.97-1.24-1.6-2.27-2.32Zm65.01-9.09c.17-.06,.29-.1,.41-.15-.15-.12-.29-.28-.46-.35-.09-.04-.26,.07-.4,.12,.15,.13,.31,.26,.45,.38Z"/>
  <path class="cls-4" d="M218.03,8.65c2.05,.24,4.16,.18,6.04,1.14-.09,1.14-.07,2.29-.29,3.4-1.32,6.66-2.68,13.31-4.06,19.95-2.05,9.89-4.74,19.64-7.65,29.35-1.92,6.4-4.25,12.71-6.58,19.01-1.49,4.03-2.92,8.11-5.18,12.24-1.04-2.03-1.87-3.82-2.85-5.54-.53-.93-.51-1.81-.13-2.71,2.62-6.14,4.81-12.4,6.92-18.69,2.47-7.32,4.59-14.73,6.52-22.17,2.31-8.88,4.32-17.82,5.88-26.84,.52-3.04,1.6-6.02,1.37-9.15Z"/>
  <path class="cls-2" d="M230.8,180.89c-.95-2.25-1.84-4.52-2.87-6.74-3.79-8.15-7.64-16.27-11.45-24.42-1.24-2.65,.62-6.2,3.9-7.58,.8,2.71,1.88,5.32,3.65,7.65h0c.84,3.25,2.54,6.2,4.09,9.2,.89,1.71,.98,3.77,2.67,5.14,0,0-.01-.02-.01-.02-.16,.49,.08,.9,.29,1.34,3.53,7.55,7.05,15.11,10.57,22.67,0,.78,1.14,1.14,.9,2.01-2.26,1.4-4.82,.63-7.25,.82-1.07-3.51-2.73-6.81-4.46-10.08Z"/>
  <path class="cls-14" d="M218.03,8.65c.23,3.13-.85,6.11-1.37,9.15-1.56,9.02-3.57,17.96-5.88,26.84-1.94,7.44-4.05,14.85-6.52,22.17-2.12,6.29-4.3,12.55-6.92,18.69-.39,.9-.4,1.78,.13,2.71,.98,1.72,1.81,3.5,2.85,5.54,2.26-4.13,3.69-8.21,5.18-12.24,2.33-6.3,4.66-12.6,6.58-19.01,2.91-9.7,5.6-19.46,7.65-29.35,1.38-6.65,2.74-13.3,4.06-19.95,.22-1.11,.2-2.27,.29-3.4,1.53-.55,1.46,.38,1.32,1.22-.39,2.32-.83,4.64-1.27,6.96-3.12,16.36-6.89,32.58-12.06,48.52-2.92,9.01-6.14,17.94-10,26.67-.52,1.18-.93,2.37-.87,3.65-.98,.57-.8-.73-1.44-.72-.42-.96-.85-1.93-1.27-2.89-.58-1.89-1.48-3.66-2.71-5.29-.44-.96-.88-1.91-1.32-2.87,.19-.21,.39-.41,.58-.62,.74,.81,1.06,.85,1.54-.3,3.12-7.34,5.59-14.87,8-22.4,1.92-6,3.61-12.05,5.12-18.15,2.74-11.03,5.26-22.1,7.07-33.29,.1-.63-.33-1.82,1.25-1.63Z"/>
  <path class="cls-5" d="M144.24,113.79c-.24,1.16,.82,.9,1.44,1,2.88,.46,5.66,1.15,8.24,2.45,1.83,.93,3.07,2.27,4.02,3.9,.97,1.65,.45,2.96-1.04,4.09-.62,.47-1.07,.59-1.9,.06-5.4-3.42-11.17-3.93-17.42-1.88-3.5,1.15-7.07,2.1-10.54,3.35-1.16,.42-1.74,1.67-3.35,1.61,.23-4.02,.9-7.75,5.1-10.1,.32-.18,.91-.38,.24-.83,0,0,.06,.01,.06,.01,.77,.88,1.28-.05,1.9-.22,.36,0,.68-.08,.86-.39,.74-.22,1.48-.43,2.21-.65,.38-.11,.77-.22,1.15-.33v-.15s.17-.04,.17-.03c2.78-.27,5.49-.98,8.31-.98,.63,0,1-.26,.5-.86l.04-.03Z"/>
  <path class="cls-5" d="M133.55,157.63c1.17,2.62,1.92,5.35,2.68,8.08,.4,1.44-.51,1.82-1.61,2.41-1.26,.68-1.69-.05-2.38-.69-1.37-1.27-2.22-3.08-4.4-3.54l-.04-.03c-1.21-2.13-2.85-3.97-4.88-5.51-.48-.37-.97-.02-1.25,.45-.08-.24-.15-.48-.23-.71,.28-.03,.4-.16,.35-.41,.39-.39,0-.55-.27-.74-.26-.3-.27-.9-.99-.67,0,0,.02,.01,.02,.01,.05-.41-.03-.77-.59-.78-.59-.01-.62,.36-.54,.76-.08-.2-.16-.4-.24-.61,.47,.07,.95,.05,.7-.52-.17-.38-.36-1.13-1.15-.47,0,0,0-.01,0-.01,.4-.15,.49-.4,.26-.73-.2-.28-.45-.2-.71-.08,0,0-.06,.02-.06,.02,.95-.67,.04-1.26-.16-1.83-.38-1.06-.9-2.07-1.36-3.1-.05-.28-.1-.56-.16-.83,.17-2.55,.18-2.56,2.97-1.88,1.66,.41,3.57,.22,4.85,1.58,0,0,.02,.02,.02,.02,1.18,1.86,3.21,2.96,4.87,4.39,.15,.37,.11,.84,.69,.95,.82,.88,1.64,1.76,2.46,2.64,0,0,.07,.06,.07,.06,.23,.34,.45,.68,.68,1.02,0,0-.01-.02-.01-.02,.14,.26,.27,.52,.41,.78Z"/>
  <path class="cls-14" d="M122.87,177.94c-.09,.29-.19,.57-.28,.86-1.12-.47-2.35-.72-3.12-1.78-.64-.88-1.74-.85-2.61-.37-3.26,1.81-6.99,1.87-10.58,2.23-6.46,.65-12.97,.68-19.47,.51-3.15-.08-2.99-.54-2.76-3.33,.13-1.61,1.37-2.91,.93-4.66-.37-1.45,1.32-1.22,2.23-1.03,2.85,.61,5.72,.95,8.64,.86,2.14,.18,4.26,.12,6.35-.38,.86-.07,1.73-.13,2.59-.2,.36,.1,.69,.08,.96-.19,.89-.11,1.79-.21,2.68-.32,.22,.13,.38,.07,.49-.12,.28-.05,.56-.1,.84-.15,.22-.04,.43-.08,.65-.13,.25-.03,.5-.06,.75-.09,.75-.04,1.64,.19,1.85-.82,.94-.13,2.01,.05,2.6-.9,.24-.04,.35-.16,.29-.38,1.15-1.79,2.58-3.15,5.16-2.86-.06,.28-.13,.56-.19,.84-3.62,.96-5.15,3.43-4.11,6.6,.63,1.91,2.15,3.17,3.94,4.2,.81,.47,1.64,.88,2.19,1.62Zm-27.05,.39c6.55,.09,12.49-.72,18.35-2.08,2.77-.64,2.78-.61,1.64-3.02-.12-.24-.27-.5-.27-.76-.02-2.37-1.42-2.29-3.5-1.9-8,1.5-16.05,2.6-24.23,1.05-.46-.09-1.27-.61-1.43,.27-.12,.66,.39,1.11,1.19,1.2,.89,.11,1.78,.21,2.66,.38,.24,.05,.59,.3,.6,.47,.03,.44-.41,.51-.78,.48-1.19-.1-2.38-.24-3.57-.34-.45-.04-.99-.03-.99,.52,0,.36,.41,.53,.8,.57,1.04,.11,2.08,.19,3.12,.31,.53,.06,1.44-.21,1.36,.58-.07,.75-.96,.39-1.48,.41-.82,.04-1.65-.01-2.47-.08-.92-.07-1.75,.07-1.81,1.02-.07,1.04,.98,.87,1.64,.88,3.22,.05,6.44,.02,9.18,.02Z"/>
  <path class="cls-11" d="M186.32,114.14c-1.71-1.38-3.27-2.88-4.61-4.56-.85-1.07-1.71-1.34-2.79-.24-1.47,1.5-2.05,.83-2.41-.76-.55-2.49-1.22-4.96-1.84-7.43-.28-1.11,.12-1.34,1.27-.89,2.85,1.11,5.65,2.27,8.29,3.77,1.31,.74,.42,1.24-.23,1.56-1.94,.95-1.56,1.87-.22,3.02,1.49,1.28,2.87,2.67,4.3,4.02,2.53,2.16,5.3,4,8.53,5.26,.11,.11,.24,.15,.4,.12,0,0-.02-.08-.02-.08,1.4,.81,2.82,1.55,4.55,.74,.94-.72,.66-1.4-.06-2.08-.13-.28-.26-.56-.39-.84,.11-.1,.22-.2,.32-.3,.66-.12,1.32-.48,1.98,.02,1.72,2.85,.82,5.59-2.76,6.08-2.23,.3-4.14-.9-5.9-1.97-2.34-1.42-4.57-2.99-7.12-4.13l.04,.04c.21-.47-.09-.49-.48-.44h.02c.18-.64-.44-.69-.85-.89Z"/>
  <path class="cls-12" d="M193.6,93.98c-.36,.3-.72,.6-1.09,.9-.03-.27-.02-.54-.08-.8-.19-.84-.23-2.02-1.05-2.29-.86-.29-1.31,.87-1.89,1.42-1.86,1.79-2.42,1.72-3.38-.61-1.38-3.33-1.92-6.78-.95-10.25,.8-2.86,3.01-3.5,5.76-1.86,1.18,.7,2.3,1.49,2.98,2.66-.34-.06-.73-.42-.96,.13-.86-.64-1.66-1.36-2.58-1.92-2.34-1.43-3.45-1.05-4.19,1.38-.99,3.26-.22,6.38,.93,9.47,.51,1.38,1.15,.79,1.85,.14,2.83-2.63,2.97-2.6,4.43,.87,.1,.25,.15,.52,.22,.78Z"/>
  <path class="cls-12" d="M154.3,113.47c-.29-.24-.57-.49-.86-.73,6.11-1,12.01-.24,17.8,1.62,1.38,.45,2.61,1.3,4.16,1.31-.52,.45-1.52-.08-1.84,.74-1.25-.44-2.5-.89-3.76-1.31-5.02-1.68-10.26-1.71-15.51-1.64Z"/>
  <path class="cls-11" d="M192.19,108.87c-2.16-2.54-3.91-5.3-5.62-8.09-.47-.76-.43-1.1,.33-1.63,1.05-.72,1.24,.11,1.65,.59,.31,.37,.58,.77,.87,1.16,.99,2.08,2.17,4.07,3.83,5.77,1.48,1.51,.68,2-1.06,2.19Z"/>
  <path class="cls-14" d="M269.89,178.52c-.59-.85-1.6-.22-2.34-.52,4.12-1.13,8.21-2.33,11.8-4.56,.39,.1,.78,.19,1.18,.29-3.27,2.09-6.35,4.52-10.64,4.79Z"/>
  <path class="cls-14" d="M284.83,171.68c-.02-.3-.04-.6-.07-.9,3.28-1.95,5.39-4.77,7.23-7.8,.3,.06,.61,.12,.91,.18-1.71,3.59-3.64,7.01-8.07,8.52Z"/>
  <path class="cls-12" d="M176.45,116.41c-.03-.28-.05-.57-.08-.85,3.23-.95,6.56-.47,9.85-.59,.31,.1,.6,.47,.95,.07,0,0-.02,0-.02,0-.14,.41,.13,.46,.48,.44,0,0-.04-.04-.04-.04,.04,.73-.38,.89-1.1,.79-3.36-.46-6.7,.01-10.04,.18Z"/>
  <path class="cls-14" d="M124.73,118c-.03,.31-.06,.63-.09,.94-1.29,.02-2.58-.32-3.81,.55-1.58,1.11-3.12,2.23-4.25,3.75-.26-.21-.53-.43-.79-.64,2.83-3.96,5.07-5.42,8.94-4.59Z"/>
  <path class="cls-12" d="M230.8,180.89c1.73,3.27,3.39,6.57,4.46,10.08-.68,.16-.9-.23-1.11-.69-1.43-3.13-2.87-6.25-4.3-9.37,.32,0,.64-.01,.95-.02Z"/>
  <path class="cls-12" d="M239.84,180.08c.17-.19,.34-.38,.5-.58,2.15,3.3,3.3,6.99,5.09,10.43,.26,.51,.43,1.11-.63,1.01-1.65-3.62-3.31-7.24-4.96-10.86Z"/>
  <path class="cls-14" d="M228.16,108.3c-.18-.4-.55-.53-.98-.56,0-.14,.02-.28,.03-.43,1.68-1.84,3.26-3.76,5.26-5.33,.66-.52,1.4-1.01,2.32-1.13,.02,.3,.04,.6,.06,.91-2.39,2.05-5.05,3.87-6.68,6.54Z"/>
  <path class="cls-8" d="M239.84,180.08c1.65,3.62,3.31,7.24,4.96,10.86-.89,.04-1.83,.18-2.29-.78,.24-.87-.9-1.23-.9-2.01,.89-.53,.39-1.15,.12-1.74-1-2.2-2.02-4.4-3.03-6.59,.16-.15,.33-.29,.49-.44,.22,.24,.43,.47,.65,.71Z"/>
  <path class="cls-14" d="M113.05,136.77c.3,.04,.6,.07,.9,.11-.25,2.31-.5,4.62,1.69,6.41-.4,.82,.73,1.64,0,2.46-.1-1-.95-1.62-1.53-2.36-1.61-2.05-2.14-4.23-1.05-6.62Z"/>
  <path class="cls-12" d="M227.21,107.32c0,.14-.02,.28-.03,.43-.05,.2-.1,.39-.15,.59-3.18-1.13-6.45-1.74-9.88-1.33-.77-.1-.74-.63-.77-1.13,3.71-.11,7.33,.33,10.83,1.45Z"/>
  <path class="cls-12" d="M191.02,112.48c-.49,.37-.96,.9-1.6,.17,0,0,0,0,0,0,.09-.15,.18-.31,.26-.46,.82-.78,1.63-1.55,2.45-2.33,1.73-.45,3.2-1.37,4.76-2.12,.43,.17,.53,.51,.59,.87-2.49,.84-4.86,1.83-6.47,3.86Z"/>
  <path class="cls-14" d="M274.86,89.85c-.11-.72-.76-.58-1.28-.64,3.27-.93,6.43-.76,9.45,.78-.61,.07-1.22,.14-1.83,.21-2.09-.43-4.19-.72-6.34-.35Z"/>
  <path class="cls-11" d="M144.2,113.82c.5,.6,.13,.86-.5,.86-2.82,0-5.53,.72-8.31,.98-.77-.52-.23-.81,.28-.93,.92-.23,1.88-.35,2.82-.51,.32-.06,.63-.13,.95-.19,1.58-.26,3.16-.42,4.76-.21Z"/>
  <path class="cls-12" d="M254.22,93.73c-.25-.21-.5-.41-.74-.62,1.25-1,2.65-1.75,4.32-2.03,0,.31-.02,.62-.03,.93-1.18,.57-2.37,1.14-3.55,1.72Z"/>
  <path class="cls-2" d="M199.76,96.08c.64-.01,.46,1.29,1.44,.72,0,0-.05,.05-.05,.05-.92,.69,0,1.02,.34,1.47,.23,.7-.11,1.84,1.44,1.56,0,0,.06,0,.06,0-.82-.39-.58,2.02-1.81,.55-.19-.53-.04-1.27-.99-1.35v.02c.46-.91-.51-1.57-.51-2.39,.03-.21,.06-.43,.09-.64Z"/>
  <path class="cls-11" d="M257.77,92.02c0-.31,.02-.62,.03-.93,.33-.32,.76-.34,1.2-.32,.39,.09,.75,.09,1.02-.24,.26-.06,.52-.11,.79-.17,.36,.09,.71,.08,1-.16,.47-.04,.93-.07,1.4-.11,.43,.57,1.45,.03,1.78,.77-2.44,.22-4.86,.52-7.21,1.15Z"/>
  <path class="cls-12" d="M251.49,178.82c.03,.28,.05,.55,.08,.83-1.53,.23-3.05,.26-4.58-.03,.3-.46,1.13-.2,1.34-.78,1.05,0,2.1-.01,3.16-.02Z"/>
  <path class="cls-11" d="M292.9,163.16c-.3-.06-.61-.12-.91-.18,.1-.14,.2-.27,.3-.41,.04-.23,.08-.46,.12-.68,.29-1.48,.58-2.95,.87-4.43,.3,0,.59,0,.89,0,.08,.96,.06,1.91-.36,2.82-.61,.39-.47,.93-.38,1.47-.09,.33-.17,.65-.26,.98-.09,.14-.18,.29-.26,.43h0Z"/>
  <path class="cls-12" d="M264.98,90.87c-.33-.74-1.36-.2-1.78-.77,1.33-.24,2.67-.28,4.01-.02-.3,.27-.6,.54-.9,.81h-1.33Z"/>
  <path class="cls-14" d="M294.16,157.46c-.3,0-.59,0-.89,0,0-.54,0-1.07,0-1.61,.29-.26,.57-.52,.86-.79,.29,.79,.25,1.59,.03,2.39Z"/>
  <path class="cls-9" d="M102.2,170.85c-2.09,.5-4.21,.56-6.35,.38,2.07-.73,4.22-.4,6.35-.38Z"/>
  <path class="cls-12" d="M202.92,99.89c-1.55,.27-1.2-.86-1.44-1.56,.06-.29,.13-.58,.19-.86,.68,.7,1,1.54,1.24,2.42Z"/>
  <path class="cls-11" d="M134.08,116.19c-.74,.22-1.48,.43-2.21,.65,.13-.34,.25-.68,.38-1.01,0,0-.01,0-.01,0,.15-.05,.31-.1,.46-.15,.86-.05,1.82-1.52,2.55,.15-.45-.04-.84,.06-1.16,.36Z"/>
  <path class="cls-12" d="M246.98,96.17c-.81,.71-1.84,.75-2.89,.75,.86-.56,1.88-.66,2.89-.75Z"/>
  <path class="cls-14" d="M126.89,179.64c.58-.5,1.16-.5,1.76-.03-.58,.23-1.17,.19-1.76,.03Z"/>
  <path class="cls-9" d="M113,168.82c-.21,1.01-1.1,.79-1.85,.82,.18-1.06,1.04-.9,1.85-.82Z"/>
  <path class="cls-12" d="M136.98,180.58c.86-.06,1.75-.34,2.49,.32-.87,.16-1.69,0-2.49-.32Z"/>
  <path class="cls-11" d="M131,117.23c-.62,.17-1.13,1.1-1.9,.22-.02-.58,.02-.62,1.18-.87,.24,.21,.48,.43,.72,.64Z"/>
  <path class="cls-14" d="M131,117.23c-.24-.21-.48-.43-.72-.64,.52-.53,1.24-.65,1.96-.76-.13,.34-.25,.68-.38,1.01-.19,.31-.5,.4-.86,.39Z"/>
  <path class="cls-12" d="M241.13,178.87c.61-.73,1.16-.27,1.72,.07-.57-.02-1.15-.04-1.72-.07Z"/>
  <path class="cls-14" d="M192.94,83.27c.24-.55,.62-.19,.96-.13,.3,.35,.6,.69,.9,1.04-.23,.14-.46,.27-.69,.41-.39-.44-.79-.88-1.18-1.32Z"/>
  <path class="cls-11" d="M120.55,156.27c.71-.23,.72,.37,.99,.67,.09,.25,.18,.5,.27,.74,.04,.25-.08,.38-.35,.41-.6-.49-1.76-.75-.9-1.82Z"/>
  <path class="cls-14" d="M123.47,178.96c.8-.13,1.44,.17,2.03,.59-.75,0-1.45-.14-2.03-.59Z"/>
  <path class="cls-14" d="M116.78,151.8c.82,.24,.63,.83,.58,1.36-.58-.32-.44-.89-.58-1.36Z"/>
  <path class="cls-14" d="M267.68,178.86c.39-.46,.82-.51,1.3-.12-.41,.26-.85,.23-1.3,.12Z"/>
  <path class="cls-14" d="M261.25,178.52c.67-.04,1.38-.23,1.92,.35-.7,.15-1.32-.07-1.92-.35Z"/>
  <path class="cls-14" d="M293.42,161.75c-.09-.54-.23-1.08,.38-1.47,.11,.54,.1,1.05-.38,1.47Z"/>
  <path class="cls-12" d="M166.91,180.89c.46-.52,1.04-.41,1.63-.27-.51,.28-1.04,.43-1.63,.27Z"/>
  <path class="cls-9" d="M105.74,170.46c-.27,.27-.6,.29-.96,.19,.2-.55,.48-.77,.96-.19Z"/>
  <path class="cls-12" d="M146.67,180.89c.35-.39,.77-.38,1.23-.19-.37,.27-.78,.35-1.23,.19Z"/>
  <path class="cls-12" d="M228.56,180.42c.41-.44,.7-.32,.91,.16-.3-.05-.61-.1-.91-.16Z"/>
  <path class="cls-14" d="M293.81,152.23c-.47-.29-.49-.69-.33-1.13,.35,.32,.44,.7,.33,1.13Z"/>
  <path class="cls-12" d="M213.24,180.5c.35-.39,.77-.41,1.24-.2-.37,.29-.78,.33-1.24,.2Z"/>
  <path class="cls-12" d="M147.11,113.87c-.27,.37-.56,.44-.87,.04,.29-.01,.58-.03,.87-.04Z"/>
  <path class="cls-12" d="M135.12,180.24c.47-.15,.89-.12,1.2,.27-.46,.11-.86,.04-1.2-.27Z"/>
  <path class="cls-12" d="M252.34,93.98c.02,.42-.04,.8-.59,.91,.12-.34-.03-.83,.59-.91Z"/>
  <path class="cls-12" d="M217.73,179.71c.33-.41,.76-.41,1.23-.25-.35,.31-.76,.39-1.23,.25Z"/>
  <path class="cls-1" d="M187.17,115.04c-.36,.4-.64,.04-.95-.07,.03-.28,.07-.55,.1-.83,.41,.2,1.03,.25,.85,.9Z"/>
  <path class="cls-11" d="M118.75,154.66c.79-.66,.99,.09,1.15,.47,.25,.57-.24,.59-.7,.52-.33-.27-.91-.44-.45-1Z"/>
  <path class="cls-12" d="M202.4,180.11c.51-.08,1.02-.13,1.39,.3-.51,.08-.97-.06-1.39-.3Z"/>
  <path class="cls-14" d="M201.68,97.47c-.06,.29-.13,.58-.19,.86-.34-.45-1.27-.79-.34-1.47,.67-.14,.44,.35,.54,.61Z"/>
  <path class="cls-12" d="M194.59,179.1c.71,.08,1.42,.15,2.13,.23-.36,.41-.91,.37-1.4,.44-.26-.23-.52-.46-.77-.69,0,0,.04,.01,.04,.01Z"/>
  <path class="cls-12" d="M199,179.26c.24,.07,.48,.14,.72,.21-.29,.07-.67,.37-.72-.21Z"/>
  <path class="cls-12" d="M261.8,90.2c-.3,.24-.64,.25-1,.16,.31-.2,.63-.3,1-.16Z"/>
  <path class="cls-14" d="M134.08,116.19c.32-.3,.71-.4,1.16-.36,0,0-.01,.03-.01,.03-.38,.11-.77,.22-1.15,.33Z"/>
  <path class="cls-14" d="M115.74,149.4c.32,.19,.36,.48,.34,.79-.31-.19-.42-.46-.34-.79Z"/>
  <path class="cls-14" d="M253.89,179.39c.46-.02,.92-.03,1.39-.05-.45,.19-.91,.33-1.39,.05Z"/>
  <path class="cls-12" d="M188.5,181.27c.26-.37,.56-.43,.89-.07-.3,.02-.59,.05-.89,.07Z"/>
  <path class="cls-12" d="M193.46,180.33c.22-.27,.53-.31,.87-.25-.29,.08-.58,.16-.87,.25Z"/>
  <path class="cls-14" d="M139.44,114.03c-.32,.06-.63,.13-.95,.19,.32-.06,.63-.13,.95-.19Z"/>
  <path class="cls-12" d="M260.02,90.53c-.27,.33-.63,.33-1.02,.24,.34-.08,.68-.16,1.02-.24Z"/>
  <path class="cls-11" d="M119.44,156.27c-.08-.4-.05-.77,.54-.76,.56,0,.64,.37,.59,.78-.39,.62-.76,.27-1.13-.02Z"/>
  <path class="cls-11" d="M118.3,153.85c.26-.13,.51-.21,.71,.08,.23,.33,.14,.57-.26,.73-.69-.02-.95-.24-.45-.8Z"/>
  <path class="cls-9" d="M108.92,170.02c-.12,.19-.27,.26-.49,.12,.16-.04,.33-.08,.49-.12Z"/>
  <path class="cls-14" d="M284.32,171.91c.17-.08,.35-.16,.52-.25-.17,.08-.35,.16-.52,.25Z"/>
  <path class="cls-12" d="M149.78,113.29c-.16,.04-.32,.08-.48,.12,.16-.04,.32-.08,.48-.12Z"/>
  <path class="cls-8" d="M189.68,112.19c-.09,.15-.18,.31-.26,.46-.09-.24,.01-.38,.26-.46Z"/>
  <path class="cls-14" d="M132.69,115.68c-.15,.05-.31,.1-.46,.15,.15-.05,.31-.1,.46-.15Z"/>
  <path class="cls-12" d="M214.07,105.38c-.12-.07-.25-.15-.37-.22,.12,.07,.25,.15,.37,.22Z"/>
  <path class="cls-14" d="M283,172.22c.18-.05,.36-.11,.54-.16-.18,.05-.36,.11-.54,.16Z"/>
  <path class="cls-9" d="M110.41,169.74c-.22,.04-.43,.08-.65,.13,.18-.2,.39-.25,.65-.13Z"/>
  <path class="cls-9" d="M115.89,167.54c.06,.22-.04,.34-.29,.38,.1-.13,.19-.25,.29-.38Z"/>
  <path class="cls-14" d="M235.28,100.6c-.17,.09-.34,.18-.52,.28,.17-.09,.34-.18,.52-.28Z"/>
  <path class="cls-14" d="M121.83,163.26c0,.31,.01,.62,.02,.93-.28-.3-.31-.61-.02-.93Z"/>
  <path class="cls-12" d="M242.93,97.33c-.18,.11-.37,.21-.55,.32,.18-.11,.37-.21,.55-.32Z"/>
  <path class="cls-12" d="M130.06,179.43c.16-.04,.31-.08,.47-.12-.16,.04-.31,.08-.47,.12Z"/>
  <path class="cls-12" d="M131.24,179.34c.18,.04,.37,.09,.55,.13-.18-.04-.37-.09-.55-.13Z"/>
  <path class="cls-14" d="M292.9,163.16c.09-.14,.18-.29,.26-.43-.09,.14-.18,.29-.26,.43Z"/>
  <path class="cls-14" d="M194.8,84.19c.09,.07,.17,.15,.23,.23-.19,.21-.39,.41-.58,.62-.11-.15-.23-.3-.34-.45,.23-.14,.46-.27,.69-.41Z"/>
  <path class="cls-12" d="M251.02,95.64c-.17,.13-.34,.27-.5,.4,.17-.13,.34-.27,.5-.4Z"/>
  <path class="cls-14" d="M115.63,122.88c.01,.08-.02,.14-.09,.19,0,0-.04-.13-.04-.13l.13-.06Z"/>
  <path class="cls-12" d="M244.62,179.33c.17,.03,.35,.07,.52,.1-.17-.03-.35-.07-.52-.1Z"/>
  <path class="cls-12" d="M132.71,179.69c.14,.05,.29,.1,.43,.15-.14-.05-.29-.1-.43-.15Z"/>
  <path class="cls-12" d="M152.91,180.11c.15,.04,.31,.07,.46,.11-.15-.04-.31-.07-.46-.11Z"/>
  <path class="cls-4" d="M193.45,96.32c2.04,2.98,4.95,4.76,8.53,5.85,3.78,1.16,7.61,2.21,11.18,3.88,4.64,2.18,7.41,5.9,10.14,9.67,.41,.56,.27,1.16,.11,1.75-.61,2.35-1.23,4.7-1.93,7.39-1.36-1.55-1.8-3.32-2.65-4.84-1.86-3.35-4.76-5.75-7.78-8.16-3.04-2.43-6.87-3.12-10.46-4.35-1.32-.45-2.7-.79-3.97-1.33-4.02-1.7-5.48-6.06-3.16-9.86Z"/>
  <path class="cls-5" d="M189.38,149.4c.01-.13,.02-.27,.04-.4,.19-.99-.67-2.27,.56-2.94,1.33-.73,4.57,0,5.64,1.03,5.29,5.09,8.82,10.95,9.78,17.94,.28,2.04-.21,2.41-3.96,3.55-1.68,.51-1.65-.83-2.14-1.47-3.03-3.94-5.99-7.93-8.97-11.91,0,0-.01,.05-.01,.05,.44-.84-.25-1.49-.45-2.22,.12-1.24-.18-2.43-.49-3.63Z"/>
  <path class="cls-5" d="M163.82,148.88c0-.47-.02-.94,0-1.41,.04-.75,.31-1.32,1.16-.56,1.3,1.16,2.7,1.63,4.46,.9,.55-.23,1.03-.04,1.43,.31,5.4,4.72,9.67,10,10.54,17.01,.13,1.03-.26,1.59-1.33,1.66-1.46,.1-2.79,2.01-4.39,.29-2.34-2.52-5.03-4.85-6.91-7.62-2.21-3.26-4.33-6.68-4.96-10.58Z"/>
  <path class="cls-5" d="M143.04,147.66c.64,.48,1.44,1.1,2.17,.94,3.37-.75,5.03,1.54,6.9,3.16,3.54,3.06,6.18,6.71,7.38,11.05,.27,.98,1.13,2.53-.67,2.9-1.66,.35-3.05,2.57-5.37,.21-2.81-2.86-5.7-5.68-8.56-8.51,0,0-.01,.04-.01,.04,.07-.6,0-1.07-.89-.81h0c.53-.91,.06-1.37-.9-1.61,0,0,0,0,0,0,.45-1.11-.67-1.87-.77-2.86-.26-.75-.5-1.5-.78-2.24-.48-1.29-.27-2.19,1.5-2.27Z"/>
  <path class="cls-4" d="M207.8,147.95c.21-1.7,.68-3.72,1.6-5.65,1.48-3.11,4.18-5.37,6.76-7.67,2.67-2.38,6.32-1.71,9.6-1.92,1.1-.07,.26,.92,0,1.32-1.92,3.08-4.58,5.6-7.48,7.95-3.62,2.93-4.19,5.51-2.32,9.5,.44,.94,1.5,2.22,.74,2.9-.94,.84-2.62,.77-4.07,.44-2.99-.69-4.82-3.12-4.83-6.87Z"/>
  <path class="cls-5" d="M154.3,113.47c5.25-.07,10.49-.04,15.51,1.64,1.26,.42,2.51,.87,3.76,1.31,2.68,1.35,4.64,3.29,5.93,5.79,.57,1.11,.63,2.2-.08,3.27-.77,1.17-1.4,1.48-2.94,.48-4.39-2.89-9.41-4.65-14.76-5.59-1.6-.28-2.96-.54-4.14-1.88-1.73-1.96-4.32-3.05-7.01-3.79-.14-.36,.17-.53,.38-.75,.7,.08,1.38-.02,2.02-.27,.21-.05,.42-.1,.63-.14,.23-.02,.46-.04,.7-.06Z"/>
  <path class="cls-5" d="M234.56,149.76c-.03-.4-.03-.81-.11-1.2-.17-.89-.71-1.74,.45-2.54,1.43-.99,1.49,.6,2.26,.84,.78,.25,1.56,.72,2.35,.43,1.71-.61,2.64,.2,3.56,1.29,3.54,4.19,5.94,8.81,6.75,14.05,.26,1.69-1.43,3.75-3.16,3.93-.51,.05-.84-.23-1.1-.57-3.08-4.03-6.13-8.08-9.28-12.07-.57-.72,.12-2.29-1.73-2.15l-.02-.72c.37-.02,.71-.09,.75-.5,.04-.46-.23-.7-.71-.78Z"/>
  <path class="cls-5" d="M190.12,165.99c2.21-.14,4.3,.5,6.43,.79,1.41,.19,2.13,1.27,2.42,2.39,.32,1.24-1.1,1.25-1.87,1.61-4.01,1.85-8.19,3.26-12.68,3.81-3.79,.47-7.3-.08-10.2-2.55-.75-.64-.95-1.02,.17-1.59,3.97-1.99,8.19-3.36,12.62-4.19,1.01-.19,2.07-.2,3.11-.29Z"/>
  <path class="cls-5" d="M270.27,161.2c.45,2.55-2.22,2.38-3.52,3.29-1.2,.84-1.65-.54-2.14-1.13-3.36-4.09-6.81-8.16-7.51-13.45-.09-.7-.65-1.9,.1-2,1.46-.18,2.57-1.88,4.3-.82,.41,.25,1.06,.56,1.43,.44,2.27-.76,2.92,.73,3.56,2.05,1.83,3.74,3.49,7.54,3.77,11.62Z"/>
  <path class="cls-5" d="M278.72,163.95c.94-5.03-.24-10.08,.26-15.12,0,0,0,0,0,0,.12-.53,.25-1.05,.37-1.58,.33-1.46,2.21-2.5,3.74-2.04,.22,.07,.49,.36,.52,.56,.49,3.93,2.69,7.52,2.63,11.57-.08,4.68-1.02,8.91-5.78,11.75-.75,.45-1.42,.65-2.21,.7-1.43,.08-2.06-.32-1.09-1.61,.76-1.02,1.17-2.17,1.35-3.38,.23-.25,.34-.53,.21-.86Z"/>
  <path class="cls-4" d="M254.83,104.32c-1.81,5.29-2.63,10.89-5.86,15.73-2.23,3.34-5.68,5.44-9.83,6.57-.66,.18-1.13-.21-.92-.93,1.95-6.5,5.23-12.41,9.97-17.62,1.65-1.81,3.77-3.25,6.33-4.01,.1,.09,.2,.18,.3,.26Z"/>
  <path class="cls-5" d="M275.12,120.4c.04,1.01,.14,2.04-.37,2.98-.53,.97-1.34,1.56-2.68,1.42-1.21-.12-1.81-.61-2.07-1.72-.79-3.35-3.76-5.75-4.93-8.94-.09-.25-.2-.52-.37-.73-2.65-3.36-.46-6.21,1.25-9.06,.59-.99,3.91-.15,4.58,1.22,2.35,4.74,4.1,9.64,4.59,14.84Z"/>
  <path class="cls-5" d="M144.41,123.26c2.71,.28,5.85,.53,8.6,2.08,1.79,1.01,3.01,2.33,3.13,4.34,.12,2.03-.99,2.91-3.09,2.13-4.77-1.77-9.55-.93-14.31-.16-1.12,.18-2.55,.72-3.13-.02-.66-.86-1.08-2.1-.57-3.4,1.31-3.34,4.13-4.97,9.37-4.98Z"/>
  <path class="cls-5" d="M190.42,130.74c-2.39,.18-5.16-.3-7.77,1.01-1,.5-2.12,.12-2.19-1.39-.18-3.86,1.7-5.99,5.96-6.77,3.55-.65,6.99-.51,10.32,.76,2.87,1.09,4.64,3.85,4.44,6.63-.08,1.06-.38,1.72-1.79,1.19q-3.84-1.45-8.97-1.42Z"/>
  <path class="cls-5" d="M134.47,176c-1.96-.06-3.76-.44-5.25-1.61-.4-.32-1.19-.79-.26-1.22,3.68-1.69,6.42-4.75,10.69-5.61,3.82-.77,7.64-1.18,11.54-1.2,1.02,0,1.79,.35,2.23,1.1,.55,.92-.58,1.11-1.06,1.47-5.25,3.83-11.11,6.41-17.89,7.07Z"/>
  <path class="cls-5" d="M215.38,166.63c1.72,.25,3.7-.94,5.28,.65,.55,.55,1.04,.9,.05,1.54-4.32,2.81-8.42,5.99-13.91,6.85-3.4,.53-6.33-.42-8.75-2.64-.69-.63-.76-1.07,.23-1.5,5.44-2.37,10.59-5.53,17.11-4.89Z"/>
  <path class="cls-5" d="M298.35,111.07c.05,1.89-.26,3.45-1.28,4.86-.41,.56-.76,.85-1.32,.19-3.38-3.98-8-6.79-11.96-10.22-1.13-.98-2.99-2.08-2.47-3.47,.47-1.24,2.65-.74,4.08-.94,6.24-.87,10.63,2.18,12.57,6.85,.41,.99,.27,1.99,.38,2.73Z"/>
  <path class="cls-5" d="M268.54,95.48c.59,.24,1.38,.06,1.91,.84-3.62,2.81-5.2,6.81-7.33,10.55-1.8,3.16-3.72,6.34-8.39,6.74-.96,.08-1.28-.11-1.06-.92,1.16-4.22,2.15-8.51,4.79-12.26,2.17-3.07,5.18-4.98,9.38-5.05,.23,.03,.47,.07,.7,.1Z"/>
  <path class="cls-5" d="M187.59,158.3c.13,.93,.31,1.85,.39,2.78,.34,3.98,.32,3.96-3.95,4.75-.84,.16-1.29,.07-1.35-.77-.39-5-3.21-9.08-6.1-13.16-1.6-2.26,.13-5.58,2.99-5.81,1.09-.09,1.93,.6,2.62,1.3,.49,.5,.87,1.08,1.3,1.62,1.64,3,2.9,6.13,4.1,9.29Z"/>
  <path class="cls-5" d="M176.45,116.41c3.35-.17,6.69-.64,10.04-.18,.72,.1,1.15-.06,1.1-.79,2.55,1.14,4.78,2.71,7.12,4.13,1.77,1.07,3.67,2.27,5.9,1.97,3.58-.49,4.48-3.23,2.76-6.08,.43-.36,.85-.72,1.28-1.08,.31-.03,.62-.06,.92-.09,0,.39,.01,.77,.02,1.16-.24,.18-.39,.39-.29,.69,.75,2.31-.5,4.23-1.52,6.19-.4-.21-.55-.98-1.21-.59-.45,.26-.16,.75,0,1.11,.32,.75,.69,1.48,1.02,2.22,.4,.88-.41,1.17-.98,1.58-.62,.44-1.04,.24-1.45-.31-2.65-3.55-6.75-4.17-11.04-4.18-2.38,0-4.76,.13-7.15,.1-1.44-.02-2.46-.21-2.93-1.52-.65-1.82-2.53-2.81-3.62-4.34Z"/>
  <path class="cls-5" d="M154.2,149.45c.46-.78-.88-2.19,.51-2.42,1.5-.25,3.13-.73,4.67,.83,4.33,4.39,7.45,9.16,7.89,15.15,.1,1.42-.29,2.02-2.07,1.98-3.62-.08-3.62,.02-4.68-3.09-1.06-3.11-2.57-6.01-5.04-8.44-1.16-1.14-1.81-2.41-1.26-4.01Z"/>
  <path class="cls-5" d="M150.11,172.41c6.11-6.26,13.97-7.12,22.48-6.01,1.33,.17,2.15,.93,2.31,1.87,.11,.65-.91,1.16-1.76,1.48-4.06,1.51-8,3.36-12.36,4.11-3.8,.65-7.55,.68-10.67-1.44Z"/>
  <path class="cls-4" d="M240.48,116.84c-1.65,4.16-4.89,7.18-7.82,10.45-3.47,3.86-7.87,4.71-12.96,4.35,.9-7.37,13.26-12.69,20.78-14.8Z"/>
  <path class="cls-5" d="M170.5,132c.05-.49-.2-.76-.74-.79-2.9-.14-5.84-.4-8.62,.59-1.27,.45-2.63,.4-3.34-.31-.72-.73-.43-1.95,.07-3.03,2.09-4.46,9-5.27,13.65-3.76,3.02,.98,5.4,2.52,6.49,5.31,.22,.56,.73,1.29-.1,1.84-.64,.42-1.3,.37-2.09,.13-1.26-.39-2.6-.6-3.92-.8-.72-.11-1.57-.19-1.6,.85,0,0,.19-.03,.19-.03Z"/>
  <path class="cls-2" d="M203.8,122.33c1.02-1.96,2.27-3.88,1.52-6.19-.1-.3,.05-.51,.29-.69,.59,0,1.17,0,1.76,0,.54,.49,.4,1.43,1.35,1.64h0c.51,3.35,2.58,6.17,3.97,9.22,.83,1.81,1.2,3.83,2.79,5.32h0c-.12,.57-.07,1.06,.7,1.22-1.29,1.62-3.26,2.69-4.45,4.42-.55,.8-1.08,.41-1.39-.29-2.18-4.88-4.35-9.77-6.53-14.65Z"/>
  <path class="cls-4" d="M234.32,117.03c1.89-5.33,4.66-10.01,9.85-13.52,3.29-2.22,6.76-3.52,10.7-4.09,.76-.11,1.59-.32,2.34,.1-.17,2.48-2.7,2.89-4.37,3.8-4.21,2.3-7.6,5.22-9.7,9.2-1.03,1.95-2.7,2.94-4.8,3.57-1.27,.38-2.37,1.16-3.77,1.2-.08-.09-.16-.17-.26-.25Z"/>
  <path class="cls-5" d="M288.5,128.75c-1.02,4.43-2.03,8.88-4.02,13.08-.67,1.42-1.86,2.21-3.69,2.09-1.76-.11-2.74-.78-2.77-2.5-.04-2.73,.7-5.31,1.68-7.84,.81-2.09,1.56-4.18,2.04-6.34,.43-1.93,.83-2.05,2.42-.9,.78,.56,1.66,.95,2.69,.8,1.49-.22,1.89,.38,1.65,1.6Z"/>
  <path class="cls-5" d="M246.06,173.52c-.69-.11-1.28-.22-1.87-.29-1.29-.15-2.96-.42-3.26-1.41-.3-1.01,1.57-1.08,2.38-1.7,2.38-1.81,5-3.31,7.76-4.61,3.17-1.5,6.56-2.17,10.12-2.19,.45,0,.91-.02,1.34,.07,1.07,.22,1.57,1.09,1.88,1.84,.28,.69-.77,.87-1.29,1.16-4.14,2.29-7.8,5.39-12.76,6.36-1.46,.29-2.92,.52-4.31,.77Z"/>
  <path class="cls-5" d="M161.45,180.27c-3.37-.04-6.92-.25-10.2-1.89-1.46-.73-2.45-1.9-3.72-2.8-.56-.4-1.75-1.03-1.06-1.69,.62-.6,1.73-1.25,3.01-.46,2.56,1.58,5.45,2.06,8.55,1.9,3.19-.17,6.15-1.04,9.07-2.08,1.06-.38,1.69-.36,2.26,.7,.71,1.31,1.64,2.54,2.61,3.71,.68,.83,.43,1.07-.53,1.37-3.16,.99-6.46,1.08-9.98,1.25Z"/>
  <path class="cls-5" d="M185.82,180.63c-.91,0-1.82,.01-2.73,.02-.29,0-.58-.02-.88-.03-5.39-.45-9.39-2.74-11.77-7.17-.28-.53-.79-1.09,.19-1.49,.58-.24,1.14-.74,1.79-.07,4.84,5.07,11.01,4.72,17.04,2.73,3.14-1.04,4.11,.67,5.71,1.96,.53,.43,.92,1,1.45,1.59-.74,.34-1.37,.63-2.02,.93,0,0-.04-.01-.04-.01-2.17,.46-4.33,.91-6.5,1.37-.74,.06-1.49,.11-2.23,.17Z"/>
  <path class="cls-5" d="M262.78,173.31c-1.75-.03-3.38-.16-4.86-.95-.65-.35-1.2-.67-.21-1.27,4.85-2.97,9.59-6.12,15.17-7.96,1.41-.47,3.33-1.63,4.33-.59,1.09,1.14,0,2.95-.72,4.33-2.25,4.28-6.78,5.3-11.35,6.22-.8,.16-1.64,.16-2.36,.22Z"/>
  <path class="cls-5" d="M293.14,115.07c3.88,3.85,5.23,7.96,4.41,12.68-.56,3.2-2.26,5.92-4.42,8.45-.59,.7-1.07,.64-1.37-.22-.04-.13-.05-.29-.14-.38-3.89-4.24-1.72-8.66-.52-13.06,.64-2.34,1.27-4.67,2.03-7.46Z"/>
  <path class="cls-5" d="M132.48,155.86s-.07-.06-.07-.06c.68-.32,.83-.86,.31-1.28-2.1-1.71-2.1-3.93-2-6.43,1.84,1.23,4.47-.3,6.02,1.72,0,0,0,0,0,0,.35,.49,.37,1.29,1.35,1.22h0c-.53,.59,.07,.76,.46,1.02h0c-.14,.75,.15,1.35,.79,1.84,.33,.73,.67,1.46,1,2.18l.02,.08c1.16,2.49,1.52,5.15,2.04,7.78,.27,1.36,0,1.99-1.74,2.27-2.97,.47-2.89,.61-3.57-2.13-.55-2.22-1.15-4.44-2.29-6.49-.31-.55-.42-1.62-1.61-.79,0,0-.05,.07-.05,.07,0,0,.01,.02,.01,.02,.49,.22,.74,.06,.77-.42,.3-.38-.04-.55-.3-.74-.16-.39-.46-.62-.93-.47-.29,.09-.34,.34-.22,.6Z"/>
  <path class="cls-5" d="M266.78,132.02c4.05-.04,5.31,.66,6.82,3.98,1.11,2.44,2.95,4.67,2.64,7.55-.21,1.99-1.22,2.74-3.37,2.19-2.78-.7-4.22-2.82-5.91-4.63-2.07-2.23-2.49-5.11-3.41-7.78-.33-.95,.08-1.39,1.21-1.32,.67,.04,1.34,0,2.02,0Z"/>
  <path class="cls-5" d="M138.58,147.26c-2.81-1.68-2.22-4.37-2.33-6.77-.08-1.66,.43-3.33,.6-5,.2-1.95,1.53-2.77,3.51-3.05,4.93-.71,5.01-.63,4.77,3.88-.13,2.35-.48,4.66-1.21,6.94-.45,1.4-1.14,2.6-2.25,3.64-1.03,.14-2.02,.57-3.09,.36Z"/>
  <path class="cls-5" d="M273.08,130.66c.02,.89,0,1.66-1.03,1.16-3.48-1.68-7.18-.79-10.78-.77-2.13,0-4.34-.04-6.38,.83-1.09,.47-1.45-.04-1.38-1.04,.22-3.26,2.78-5.97,6.52-6.82,4.66-1.06,10.56,1.45,12.55,5.35,.24,.48,.39,1,.5,1.29Z"/>
  <path class="cls-5" d="M274.82,161.48c-3.07,.54-3.06,.54-3.5-2.23-.14-.86-.32-1.73-.61-2.55-1.29-3.73-3.18-7.36-1.73-11.44,1.38,.67,2.96,1.66,4.92,1.78,.57,.04,.77,.57,1.07,.96,2.82,3.63,2.97,7.78,2.88,11.97-.03,1.34-1.31,.99-2.1,1.3-.31,.07-.62,.15-.93,.22Z"/>
  <path class="cls-5" d="M211.87,161.16c0,.47,0,.94,0,1.41-.06,2.77-1.34,3.86-4.32,3.79-.79-.02-.82-.42-.86-.9-.38-4.44-2.02-8.49-4.56-12.3-1.07-1.6,.05-3.4,.12-5.1,.03-.69,1.65-.66,2.55-.63,.63,.02,1.6,.08,1.7,1.01,.35,3.05,1.61,5.49,4.48,7.5,1.5,1.05,.92,3.41,.89,5.22Z"/>
  <path class="cls-5" d="M270.67,103.38c-.74-.11-1.37-.03-2.03-.32-1.35-.6-1.59-1.17-.7-2.39,3.83-5.25,9.65-7,15.9-4.71,.71,.26,1.33,.6,1.9,1.03,1,.76,2.06,1.77,1.68,2.87-.31,.88-1.83,.53-2.82,.58-3.91,.22-7.49,1.67-11.25,2.46-.92,.19-1.85,.29-2.67,.48Z"/>
  <path class="cls-5" d="M288.76,133.76c4.86,6.35,6.32,13.73,.32,19.63-.43,.42-.86,1.09-1.6,.88-.62-.18-.63-.9-.68-1.39-.16-1.36-.77-2.59-1.17-3.87-.81-2.57-1.03-5,.38-7.6,1.27-2.35,1.84-5,2.76-7.64Z"/>
  <path class="cls-2" d="M194.12,84.59c.11,.15,.23,.3,.34,.45,.44,.96,.88,1.91,1.32,2.87-.16,.16-.33,.32-.49,.48-1.44-1.59-2.12-3.69-4.18-4.86-1.09-.62-2.35-1.14-3.02,.19-.71,1.41-.65,3-.01,4.63,.78-.56,.42-1.12,.5-1.61,.18-.98-.51-2.46,.92-2.77,1.33-.28,2.11,1.03,2.88,1.92,.54,.63,.93,1.36,1.46,2,.4,.49,.38,1.36,1.4,1.33h0c-.05,.94,.17,1.75,1.36,2.02v-.02c-.04,1.71,.27,2.14,1.42,2.03,.16-.02,.31-.04,.47-.07,.42,.96,.85,1.93,1.27,2.89-.03,.21-.06,.43-.09,.64-.52-.17-.99-.03-.79,.48,.28,.7,.42,1.53,1.31,1.92,0,0-.01-.02-.01-.02,.03,.4,.06,.8,.08,1.21-3.52-1.01-5.25-3.52-6.65-6.32-.07-.26-.12-.53-.22-.78-1.46-3.47-1.6-3.49-4.43-.87-.7,.65-1.34,1.24-1.85-.14-1.15-3.09-1.92-6.21-.93-9.47,.73-2.42,1.85-2.81,4.19-1.38,.92,.56,1.72,1.28,2.58,1.92,.39,.44,.79,.88,1.18,1.32Z"/>
  <path class="cls-5" d="M262.29,136.51c-.02,2.77-.74,5.29-1.75,7.75-.81,1.98-5.06,3.25-7.04,2.16-.76-.42-.9-1.06-.67-1.75,1.18-3.53,2.2-7.09,2.09-10.83-.02-.74,.66-1.12,1.29-1.22,1.62-.25,3.26-.37,4.89-.53,.79-.08,1.01,.33,1.11,.95,.2,1.2,.38,2.4,.08,3.48Z"/>
  <path class="cls-4" d="M228.16,108.3c1.63-2.67,4.29-4.49,6.68-6.54,.66-.02,1.18-.62,2.17-.33-3.57,4.73-4.68,10.16-5.78,15.58-.34,1.67-.99,2.95-2.99,3.62-1.57,.53-2.94,1.55-4.4,2.35l-.37-.35c.8-4.98,2.57-9.7,4.69-14.34Z"/>
  <path class="cls-5" d="M202.43,142.21c.09,.87-.11,1.88,.32,2.57,1.39,2.25-.45,1.71-1.68,1.72-1.82,.02-3.19-.82-4.08-2.12-2.23-3.25-4.1-6.64-5.1-10.4-.41-1.52-.36-2.2,1.71-2.12,4.4,.15,5.97,1.07,7.21,4.86,.59,1.82,2.45,3.33,1.64,5.49Z"/>
  <path class="cls-5" d="M190.68,134.26c-.32,3.9-1.7,7.41-3.85,10.63-1.12,1.67-3.28,1.73-5.35,.57-1.85-1.03-1.41-2.36-.57-3.64,1.45-2.21,1.92-4.63,2.13-7.11,.17-2,1.27-2.89,3.47-2.76,.45,.03,.91,.06,1.34-.03,2.4-.52,2.68,.92,2.84,2.33Z"/>
  <path class="cls-5" d="M243.69,132.41c.97,.04,1.95,.04,2.91,.13,1.22,.12,1.89,.63,2.26,1.83,.69,2.22,1.73,4.34,2.63,6.51,.26,.62,.7,1.21,.45,1.92-.35,1.01,.03,2.4-1.8,2.65-1.55,.21-2.64-.22-3.67-1.32-2.34-2.51-4.91-4.84-5.85-8.18-1.01-3.6-1.07-3.59,3.06-3.54Z"/>
  <path class="cls-5" d="M170.5,132s-.19,.03-.19,.03c.95,.15,1.91,.28,2.86,.44,2.02,.33,3.6,1.07,4.09,3.12,.27,1.16,.64,2.4,1.37,3.36,1.5,1.96,.33,3.88,.19,5.8-.06,.84-1.13,.83-1.81,.85-1.34,.04-2.67-.09-3.47-1.34-2.37-3.74-4.15-7.69-5.17-11.9,.11-.11,.21-.22,.32-.33,.6,0,1.21-.01,1.81-.02Z"/>
  <path class="cls-5" d="M255.29,157.11c-.14,1.67-.55,3.43-1.11,5.17-.37,1.15-1.43,1.49-2.35,1.55-1.25,.07-.72-1.09-.8-1.68-.49-3.73-2.1-7.12-4.07-10.34-1.12-1.82,.38-3.35,.11-5.04-.08-.47,3.75-.1,4.35,.57,2.51,2.82,3.81,6.03,3.87,9.78Z"/>
  <path class="cls-5" d="M116.58,123.24c1.13-1.51,2.66-2.63,4.25-3.75,1.23-.86,2.52-.53,3.81-.55,.57,.35,.49,.76,.14,1.2-1.73,2.17-2.07,4.74-2.28,7.25-.14,1.67-.74,2.92-1.99,4.04-.42,.37-.75,.83-1.08,1.28-1.68,2.26-1.84,2.22-3.6,0-1.66-2.1-1.4-4.29-.65-6.52,.34-1.01,.92-1.96,1.39-2.94Z"/>
  <path class="cls-5" d="M167.69,136.02c-.49,2.61-1.19,5.63-2.92,8.34-.91,1.43-3.3,1.97-4.97,1.28-1.86-.77-1.49-2.24-1.15-3.49,.74-2.66,2-5.2,1.94-8.03-.02-.94,.82-1.39,1.74-1.59,.5-.11,1.04-.07,1.56-.11,3.46-.25,3.86,.09,3.78,3.6Z"/>
  <path class="cls-5" d="M264.98,90.87h1.33c2.29,.35,4.58,.69,6.54,1.9,.53,.33,1.6,.38,1.2,1.32-.36,.84-1.23,1.11-2.17,1.07-.51-.02-1.02-.19-1.52-.29-.3-.46-.52-1.02-1.33-.78-1.05,0-2.1,0-3.14,0-.73-.14-1.3-.03-1.42,.75-1.34,.08-2.56,.65-3.35,1.46-1.66,1.7-3.66,1.97-5.98,1.97-1.52,0-3.05,.44-4.71,.71,.5-2.34,2.72-3.45,3.81-5.23,1.18-.57,2.37-1.14,3.55-1.72,2.35-.63,4.77-.93,7.21-1.15Z"/>
  <path class="cls-5" d="M157.22,143.53c-.3,.69,.83,1.83-.69,2.18-1.75,.4-3.4-.06-4.44-1.28-2.78-3.26-4.76-6.9-5.79-10.93-.25-.98-.19-1.57,1.32-1.58,4.35-.04,5.26,.55,6.67,4.4,.48,1.32,1.24,2.57,2.01,3.79,.67,1.08,1.33,2.11,.93,3.42Z"/>
  <path class="cls-5" d="M293.27,155.86c0,.54,0,1.07,0,1.61-.29,1.48-.58,2.95-.87,4.43-.21,.2-.37,.42-.12,.68-.1,.14-.2,.27-.3,.41-1.84,3.03-3.95,5.85-7.23,7.8-.31,.1-.63,.19-.94,.29-.13,.05-.25,.09-.38,.14-1.18,.33-2.36,.57-3.61,.37,0-.24,0-.48,0-.72,5.75-2.74,7.56-7.42,7.62-12.83,.02-1.51,.4-2.52,1.83-3.31,.93-.52,1.84-1.16,2.22-2.18,.15-.4,.36-.82,.89-.69,.54,.14,.34,.67,.4,1.04,.16,.99,.32,1.99,.48,2.98Z"/>
  <path class="cls-5" d="M286.89,126.04c-1.99,0-2.79-1.08-2.98-2.66-.36-3.06,.48-5.99,1.25-8.92,.29-1.11,.82-2.18,.95-3.3,.18-1.6,.87-1.25,1.78-.54,.21,.16,.28,.52,.5,.62,4.36,1.87,3.26,4.94,2.34,8.07-.53,1.8-.87,3.65-1.64,5.4-.41,.91-1.06,1.44-2.19,1.33Z"/>
  <path class="cls-5" d="M275.57,124.92c1.53-4.23,.65-8.09-.74-11.8-1.03-2.75-1.21-5.33-.38-8.12,.46-1.55,1.85-1.1,2.82-1.47,1-.39,1.2,.5,1.43,1.12,2.13,5.66,1.77,11.33-.04,16.97-.42,1.31-1.12,2.67-3.09,3.31Z"/>
  <path class="cls-5" d="M129.32,127.96c1.33,0,2.52,.32,3.5,1.13,2,1.66,1.61,3.29-.95,4.06-2.54,.76-4.68,2.01-6.04,4.13-.58,.9-1.11,1.15-2.3,.74-5.05-1.75-5.37-2.78-1.62-6.32,2.02-1.91,4.34-3.46,7.42-3.73Z"/>
  <path class="cls-5" d="M125.95,140.31c-.04-1.88,3.69-5.71,5.68-5.88,1.12-.1,1.22,.75,1.38,1.29,1,3.49,1.89,7,2.86,10.49,.18,.63-.19,.88-.66,1.09-.76,.34-1.58,.36-2.41,.23-3.75-.61-6.65-4.95-6.85-7.21Z"/>
  <path class="cls-5" d="M115.64,143.29c-2.19-1.79-1.94-4.1-1.69-6.41,.04-.05,.1-.1,.13-.16,.4-.83,.13-2.28,1.19-2.37,.88-.07,1.6,1.11,2.3,1.89,1.24,1.39,3.17,1.96,4.96,2.6,1.32,.47,2.17,.83,2.32,2.41,.13,1.36,1.27,2.64,1.97,3.96-.22,.17-.45,.34-.67,.51-2.9-.25-5.85-.19-8.61-1.22-.09-.52-.42-.78-1.02-.76-.3-.15-.59-.3-.89-.44Z"/>
  <path class="cls-3" d="M191.02,112.48c1.61-2.03,3.98-3.02,6.47-3.86,5.05-.18,9.1,1.91,12.9,4.79h-3.45c-3.89-.32-7.34,.6-10.3,2.91-2.77-.14-5.04-1.69-5.62-3.84Z"/>
  <path class="cls-5" d="M279.35,173.44c-3.59,2.23-7.68,3.43-11.8,4.56-4.9,.45-8.96-1.29-12.65-3.95-.41-.29-1.25-.58-.62-1.22,.45-.45,1.18-.66,1.84-.25,4.97,3.11,10.01,1.84,14.92,.02,3-1.12,5.68,.18,8.5,.29-.06,.18-.12,.37-.18,.55Z"/>
  <path class="cls-5" d="M203.36,179.44c-3.59-.66-6.26-2.65-8.72-4.92-.33-.3-1.12-.82-.33-1.28,.59-.34,1.23-.92,2.18-.19,6.2,4.77,10.48,5.08,17.54,1.29,1.07-.58,1.69-.78,2.48,.38,.83,1.22,2.02,2.25,3.2,3.51-1.43,.35-2.62,.63-3.81,.92-.17,.04-.33,.08-.5,.12-3.79,.56-7.59,.5-11.4,.33-.21-.05-.43-.1-.64-.16Z"/>
  <path class="cls-5" d="M122.87,177.94c-.55-.74-1.38-1.15-2.19-1.62-1.78-1.03-3.3-2.28-3.94-4.2-1.05-3.17,.49-5.64,4.11-6.6,1.45,.25,2.48,.68,1.72,2.34-.22,.47,.11,1.15,.19,1.73-.02,.61-.01,1.21,.45,1.72,.75,3.02,3.46,4.84,5.62,7.22-2.2,.5-4.07-.22-5.97-.59Z"/>
  <path class="cls-5" d="M251.49,178.82c-1.05,0-2.1,.01-3.16,.02-2.77-.37-5.54-.5-7.94-2.21-1.18-.85-1.98-1.75-2.55-2.93-.17-.36-.49-.78,.04-1.06,.48-.25,.99-.67,1.61-.19,3.59,2.72,7.59,2.34,11.68,1.25,.69-.18,1.3-.21,1.83,.34,1.15,1.17,2.57,2.04,4.1,2.77,.34,.16,.66,.31,.65,.72-.02,.57-.55,.58-.96,.64-1.77,.24-3.55,.44-5.33,.66Z"/>
  <path class="cls-5" d="M231.38,146.41c-3.17-.09-3.98-1.39-2.8-3.75,1.08-2.16,2.26-4.08,4.64-5.4,1.49-.83,2.23-2.48,2.99-3.91,.48-.91,1.17-.99,1.97-.82,1.19,.25,.34,.96,.24,1.43-.76,3.46-1.41,6.95-3.41,10.09-.9,1.42-2.27,2-3.64,2.37Z"/>
  <path class="cls-5" d="M234.12,157.04c-.06,1.87-.11,3.75-.19,5.62-.01,.31,.11,.74-.35,.86-.6,.16-.7-.33-.86-.68-2.3-4.93-4.58-9.87-6.92-14.78-.35-.73,.04-1.14,.43-1.61,.5-.59,.98-.15,1.55-.02,2.56,.57,3.59,2.37,4.53,4.29,.24,.49,.49,.99,.73,1.48,.33,1.35,.65,2.71,.98,4.06,.03,.26,.07,.52,.1,.78Z"/>
  <path class="cls-5" d="M131.45,176.81c4.11,.61,8.02-.12,11.74-1.63,1.17-.47,1.77-.37,2.66,.45,1.27,1.18,2.22,2.66,3.96,3.53-6.7,1.51-13.14,1.2-19.37-1.44-.05-.65,.37-.88,1.01-.91Z"/>
  <path class="cls-4" d="M249.54,97.09c-.52,1.77-1.58,2.76-3.27,3.67-4.61,2.46-8.37,5.78-10.64,10.28-.09,.17-.15,.35-.32,.75-2.2-6.74,5.02-14.01,14.23-14.7Z"/>
  <path class="cls-5" d="M237.62,130.23c.2-1.5,.93-2.56,2.61-2.95,.64-.15,1.29-.31,1.91-.52,3.72-1.2,7.48,.41,8.73,3.81,.36,.96,.26,2.4-1.17,1.76-3.61-1.61-7.33-.82-11.01-.97-1.06-.04-1.34-.33-1.07-1.14Z"/>
  <path class="cls-5" d="M203.72,142.81c.29-2.94,.56-5.68,.84-8.42,.08-.81,.7-1.11,1.5-1.26,.88-.16,1.41,.13,1.74,.88,.65,1.49,1.33,2.97,2.03,4.45,.3,.63-.16,1.04-.46,1.46-1.23,1.72-2.08,3.57-2.39,5.58-.24,1.54-1.01,1.21-1.92,.59-1.29-.88-1.23-2.22-1.33-3.28Z"/>
  <path class="cls-4" d="M230.51,131.18c-.42,4.24-1.21,8.28-3.61,11.92-.58,.88-.66,2.51-1.9,2.46-1.07-.04-.78-1.7-1.42-2.51-1.63-2.07-1.06-3.68,.99-5.34,1.59-1.29,2.42-3.18,3.36-4.92,.5-.92,1.15-1.52,2.59-1.62Z"/>
  <path class="cls-5" d="M238.4,164.83c2.49,.33,4.8-.41,6.11,1.72,.34,.56,.55,.9-.18,1.28-2.09,1.08-3.79,2.71-6.16,3.45-1,.31-1.5,.25-1.88-.66-.65-1.56-1.33-3.1-2.07-4.63-.36-.73-.11-.98,.68-1.02,1.34-.06,2.68-.11,3.49-.14Z"/>
  <path class="cls-5" d="M280.11,126.71c-.72-.04-1.82-1.96-1.38-2.65,2.2-3.46,2.52-7.25,2.6-11.09,.03-1.48,.76-2.7,1.84-3.77,.47-.46,.86-1.3,1.77-.78,.69,.39,.36,1.04,.2,1.65-.98,3.57-2.43,7.09-2.45,10.8-.01,2-.71,3.6-1.84,5.19-.2,.27-.27,.63-.74,.66Z"/>
  <path class="cls-5" d="M255.52,117.48c-.41-1.97,.16-3.27,2.64-3.67,.93-.15,1.74-.9,2.95-1.56-.21,3.9-.92,7.45-2.68,10.73-.48,.89-1.76,1.86-3.35,1.37,1-2.25,.7-4.56,.44-6.87Z"/>
  <path class="cls-5" d="M274.86,89.85c2.15-.36,4.25-.08,6.34,.35,2.33,1.07,4.69,2.09,5.58,4.6,.19,.53,.33,1.02,.1,1.65-2.79-2.32-6.08-3.12-9.78-2.87-2.21,.15-2.96-2.11-5-2.41,.7-1.07,1.91-.89,2.76-1.33Z"/>
  <path class="cls-5" d="M254.55,124.32c-.07,.02-.15,.03-.21,.07-1.04,.73-1.51,2.69-3.45,1.53-1.73-1.03-2.06-3.45-1.03-5.05,.88-1.38,1.61-2.84,2.4-4.27,.34-.62,.31-1.68,1.38-1.54,.99,.13,.43,1.12,.66,1.7,.1,.25,.16,.51,.24,.77,0,2.26,.01,4.53,.02,6.79Z"/>
  <path class="cls-5" d="M227.32,179.34c-4.59-.19-7.66-2.56-10.19-5.7-.27-.34-.49-.72-.06-1.07,.4-.33,.86-.57,1.39-.17,2.17,1.63,4.8,2.01,7.49,2.29,.99,.1,3.1,3.78,2.6,4.46-.29,.39-.8,.24-1.22,.21Z"/>
  <path class="cls-5" d="M262.5,115.83c1.73,.66,3.02,1.81,4.03,3.13,.88,1.14,1.42,2.49,2.11,3.74,.2,.36,.43,.77,.14,1.13-.37,.46-.82,.07-1.19-.07-1.81-.71-3.72-1-5.68-1.01-1.3,0-1.73-.47-1.34-1.65,.46-1.41,.74-2.86,1.17-4.28,.11-.37-.08-1.04,.75-.99Z"/>
  <path class="cls-5" d="M123.32,169.39c.59-.04,.35-.45,.41-.74,.09-.45,.08-.98,.34-1.34,.96-1.33,2.45-.85,3.63-.51,1.68,.48,3.78,.59,4.38,2.58,.16,.52-.28,.85-.76,1.11-1.02,.54-1.98,1.19-3.04,1.64-2.8,1.16-2.82,1.13-4.16-1.33,.06-.46-.08-.87-.41-1.22-.12-.05-.23-.1-.35-.16,0,0-.04-.02-.04-.02Z"/>
  <path class="cls-7" d="M190.32,155.24s.01-.05,.01-.05c-1.24,1.14,.31,1.83,.57,2.71,.19,.65,1.31,1.33,.44,1.91-.84,.56-1.29-.58-1.93-.93-.91-.5-.83-1.53-1.37-2.23-.82-2.95-1.93-5.79-3.92-8.3-.05-.37-.45-.96,.14-1.03,1.55-.18,2.62-1.14,4.01-1.9,.08,1.6,.15,2.98,.22,4.36-.08,1.1,0,2.19,.43,3.24,.11,.41,.21,.83,.32,1.24-.02,.05-.08,.11-.06,.15,.04,.09,.12,.18,.18,.26,.17,.38,.15,1.02,.95,.56Z"/>
  <path class="cls-5" d="M223.29,167.26c-2.26-.94-3.69-2.53-4.98-4.19-1.4-1.79-2.59-3.72-3.9-5.57-.6-.85-.76-1.28,.69-1.57,2-.39,3.11-.08,3.85,1.8,1.28,3.23,2.87,6.35,4.34,9.52Z"/>
  <path class="cls-4" d="M231.17,137.47c-.25-5.42,1.35-9.77,6.25-12.96-.33,4.95-1.96,9.28-6.25,12.96Z"/>
  <path class="cls-5" d="M239.1,146.17c-1.29-.05-2.01-.64-2.14-1.85-.08-.76,.19-1.44,.5-2.13,.56-1.26,.35-3.18,2.2-3.4,1.59-.19,1.72,1.69,2.53,2.62,.75,.86,2.66,1.65,1.72,2.9-.99,1.32-2.92,1.74-4.81,1.87Z"/>
  <path class="cls-5" d="M294.98,102.07c-1.32-.49-2.59-1.02-3.9-1.44-.9-.28-.99-.95-1.14-1.58-.29-1.25-.78-2.43-1.4-3.58-.29-.54-1.05-1.23-.32-1.76,.57-.4,1.43-.04,2.11,.26,2.97,1.32,4.95,4.73,4.65,8.09Z"/>
  <path class="cls-5" d="M146.24,147.56c-2.06-.01-2.56-.73-1.82-2.23,.73-1.47,1.13-3.02,1.44-4.59,.1-.51,.08-1.16,.79-1.32,.85-.18,.84,.6,1.13,1,.52,.73,.99,1.49,1.46,2.25,.52,.84,1.74,1.71,1.04,2.64-.95,1.28-2.49,2.07-4.04,2.25Z"/>
  <path class="cls-5" d="M167.95,147.01c-1.72,.03-2.44-1-1.79-2.41,.7-1.54,1.57-3.04,1.87-4.72,.08-.43,.28-1.01,.92-1,.53,0,.58,.54,.76,.9,.47,.92,.93,1.83,1.41,2.74,1.28,2.41-.15,4.45-3.17,4.5Z"/>
  <path class="cls-7" d="M140.37,156.14s-.02-.08-.02-.08c.65,.44,1.05,.17,.89-.43-.19-.68-.67-1.29-1.03-1.93-.24-.62-.4-1.28-.74-1.85-.42-.72-.75-.45-.9,.18,0,0,0,0,0,0,.39-.13,.57-.39,.41-.74-.16-.35-.48-.43-.87-.28,0,0,0,0,0,0,.89-.68-.07-.99-.38-1.38-.34-.42-.73-.31-.97,.16,0,0,0,0,0,0,1.7-.57-.59-1.3,.26-2.01,.59-.28,1.13,.62,1.86,.39,2.09,.72,1.31,2.85,2.44,4.04,.05,.27,.11,.55,.16,.82,.08,.14,.15,.29,.23,.43q.54,1.51,1.39,1.55s0,0,0,0c-.52,.91-.16,1.41,.9,1.61,0,0,0,0,0,0-.5,.43-.04,.73,.22,.99,.24,.24,.52,.1,.68-.18,0,0,.01-.04,.01-.04-1.09,.84,.15,1.22,.48,1.71,.43,.65,.62,1.36,.08,1.84-.75,.66-1-.37-1.51-.57-1.49-.6-1.37-1.95-1.91-3-.33-.63-.26-1.76-1.67-1.25Z"/>
  <path class="cls-2" d="M230.76,164.13s.01,.02,.01,.02c-.03-.39,.05-.82-.1-1.17-1.9-4.19-3.83-8.37-5.75-12.56-.18-.38-.31-.77-.91-.63,0,0,0,.01,0,.01-.34-2.82-2.03-5.19-3.21-7.72,.04-.25,.01-.67,.15-.71,.64-.23,.66,.33,.81,.65,1.63,3.38,3.27,6.75,4.86,10.15,2.05,4.38,4.06,8.77,6.06,13.16,1.15,2.54,2.25,5.09,3.38,7.64-.12,.08-.23,.17-.35,.25-.94-1.49-1.66-3.06-2.36-4.66-.67-1.54-.96-3.33-2.6-4.44Z"/>
  <path class="cls-5" d="M210.16,115.36c.58-2.12,2.27-.91,2.91-.43,1.41,1.04,2.57,2.42,3.62,3.79,.84,1.1-1.46,3.2-3.41,3.19-.86-2.25-1.67-4.52-3.12-6.55Z"/>
  <path class="cls-5" d="M278.47,130.03c.79-.29,1.42-.41,.99,.7-1.04,2.67-2.13,5.33-2.94,8.17-.94-1.7-1.88-3.4-2.84-5.09-.47-.83,.22-1.25,.72-1.7,.79-.71,1.66-1.35,2.74-1.69,.5,.03,1,.06,1.32-.39Z"/>
  <path class="cls-5" d="M263.62,138.5c1.18,1.62,2.06,2.94,3.06,4.17,.68,.83,.12,1.48-.37,1.94-.7,.67-1.62,1.17-2.5,1.68-.63,.36-1.28,.25-1.85-.21-.54-.44-.39-.88-.2-1.45,.64-1.9,1.17-3.84,1.85-6.13Z"/>
  <path class="cls-5" d="M218.04,131.49c-1.23-2.63-2.29-4.88-3.32-7.14-.21-.46-.34-.88,.54-.95,3.73-.28,5.72,2.21,4.18,5.26-.39,.77-.77,1.56-1.39,2.83Z"/>
  <path class="cls-5" d="M279.75,128.59c-1.55,.46-3.19,.7-4.54,1.57-.69,.45-1,.11-1.29-.52-.53-1.17-1.2-2.28-1.81-3.42,4.42-1.45,5.43-1.15,7.64,2.36Z"/>
  <path class="cls-5" d="M191.32,144.89c-2.2,.02-2.6-.58-1.71-2.44,.52-1.1,.96-2.24,1.41-3.37,.13-.32,.2-.67,.63-.74,.52-.08,.52,.37,.68,.64,.73,1.24,1.37,2.53,2.18,3.72,.69,1.02-.35,1.28-.84,1.69-.62,.51-1.51,.49-2.34,.5Z"/>
  <path class="cls-5" d="M159.22,134.79c.13,1.6-.38,2.86-.8,4.14-.1,.31-.11,.72-.54,.79-.57,.1-.72-.36-.88-.71-.76-1.66-1.5-3.32-2.23-4.98-.12-.28-.4-.7,.06-.87,1.2-.44,2.5-.36,3.72-.14,1.34,.24,.51,1.32,.67,1.78Z"/>
  <path class="cls-5" d="M180.61,139.85c-1.64-2.03-1.9-4.21-2.85-6.11-.13-.26-.08-.57,.27-.64,1.09-.24,2.24-.42,3.3-.12,1.16,.33,.43,1.28,.4,1.91-.06,1.58-.26,3.17-1.12,4.97Z"/>
  <path class="cls-5" d="M226.14,173.36c-1.39,.55-2.49-.12-3.62-.3-1.13-.18-2.67-.53-2.93-1.49-.27-.99,1.44-1.05,2.16-1.67,.42-.36,.81-.75,1.28-1.04,.45-.28,.89-.39,1.17,.3,.59,1.41,1.28,2.79,1.94,4.2Z"/>
  <path class="cls-2" d="M207.83,114.24c1.51-.28,1.18,1.12,1.83,1.62,.94,2.03,1.87,4.06,2.81,6.09,1.34,2.97,2.71,5.92,4.01,8.91,.27,.62,1.32,1.38-.1,1.98-.11-.52,.18-1.28-.91-1.2,0,0,0,0,0,0,.23-.55,.03-1.04-.21-1.55-1.29-2.71-2.38-5.51-3.89-8.12-.93-1.61-.78-3.7-2.65-4.88,0,0,0,0,0,0,.46-1.14-.79-1.85-.9-2.86Z"/>
  <path class="cls-5" d="M127.84,163.9c.05,.48,.1,.97,.16,1.46-5.11,.68-6.1-.22-4.5-4.87,1.16,1.17,2.13,2.18,3.15,3.15,.28,.27,.6,.89,1.16,.23,0,0,.04,.03,.04,.03Z"/>
  <path class="cls-3" d="M222.69,109c-.2,.96,.84,.64,1.25,.98,.51,.42,1.53,.39,1.42,1.34-.13,1.06-.29,2.37-1.25,2.83-.72,.34-1.06-1.05-1.7-1.57-.27-.22-.47-.52-.68-.79q-1.67-2.17,.94-2.79s.02,.01,.02,.01Z"/>
  <path class="cls-5" d="M252.67,140.34c-1.17-1.93-1.45-4.01-2.27-5.92-.48-1.12,.58-1.07,1.21-1.14,.76-.08,2.04-.66,2.05,.68,.02,2.11,.12,4.27-.99,6.38Z"/>
  <path class="cls-7" d="M253.19,147.83c1.84-.36,2.62,.07,2.76,1.6,.22,2.41,.82,4.76,2.21,6.88,.46,.7,.37,1.24-.21,1.8-.27,.26-.58,.52-.96,.36-.77-.32-.61-.99-.63-1.58-.13-3.19-.97-6.2-3.18-9.06Z"/>
  <path class="cls-3" d="M217.14,107.01c3.44-.41,6.7,.2,9.88,1.33-.48,1.17-1.12,1.82-2.59,.9-.42-.26-1.06-.85-1.75-.23,0,0-.02-.01-.02-.01-.67-1.12-2.05-.86-3.09-1.28-.78-.32-1.76-.1-2.44-.7Z"/>
  <path class="cls-5" d="M125.19,147.33c1.38-1.32,3.4-1.1,3.97,.45,.32,.86,.53,1.74,.27,2.81-1.63-.72-2.5-2.02-3.82-2.83-.14-.14-.27-.29-.41-.43Z"/>
  <path class="cls-11" d="M184.12,148.37c1.99,2.5,3.1,5.35,3.92,8.3-.67,.43-.34,1.08-.45,1.64-1.19-3.16-2.46-6.29-4.1-9.29,.21-.22,.42-.43,.63-.65Z"/>
  <path class="cls-5" d="M204.45,127.16c.66,1.32,1.22,2.47,1.81,3.6,.34,.65,.31,1-.59,1.33-2.14,.78-2.58,.54-2.46-1.56,.06-1.16,.39-2.21,1.24-3.37Z"/>
  <path class="cls-7" d="M279.84,103.24c1.16,1.26,2.59,2.4,3.39,3.82,.53,.95-1.23,1.41-1.73,2.66-1.08-2.23-1.09-4.33-2.15-6.13,.17-.12,.33-.23,.5-.35Z"/>
  <path class="cls-7" d="M278.98,148.84s0,0,0,0c-1.56-.61-.82,.68-1.14,1.1,0,0-.17,.03-.17,.03-.38-.49-.79-.96-1.13-1.47-.69-1.05-.04-3.26,1.12-3.8,.15-.07,.43-.06,.58,.03,.42,.24,.55,.6,.43,1.04-.2,.78-.43,1.56-.56,2.34-.08,.5,.08,.96,.86,.73Z"/>
  <path class="cls-12" d="M196.64,116.32c2.97-2.31,6.41-3.23,10.3-2.91,0,.23,.01,.46,.02,.69,0,0-.03,.19-.03,.19-.45-.16-.89-.17-1.34,0-.31,.03-.62,.06-.92,.09-2.77-.03-5.22,.6-6.94,2.72-.71,.12-1.64,.5-1.08-.79Z"/>
  <path class="cls-7" d="M152.77,150.44c-1.04-.26-1.53-.89-2.12-1.37-1.48-1.21-1.17-2.35,.75-2.93,.87-.26,1.02,.28,1.24,.78,.29,.66,.34,1.76,.13,3.52Z"/>
  <path class="cls-7" d="M235.28,161.92c0-.63,0-1.1,0-1.56,0-.29,.16-.6,.49-.53,1.37,.28,1.39,1.62,2.16,2.37,.38,.37,.81,1.13,.24,1.4-.66,.31-1.64,.34-2.38,.16-1.32-.32-.3-1.34-.51-1.85Z"/>
  <path class="cls-5" d="M143.13,161.58c1.44,.47,2.14,1.26,2.86,2,.47,.48,1.33,1.04,.84,1.68-.49,.63-1.53,.24-2.32,.27-1.01,.03-.81-.76-.91-1.32-.13-.78-.28-1.56-.47-2.62Z"/>
  <path class="cls-7" d="M189.35,160.14c.98,1.33,1.76,2.38,2.52,3.45,.26,.37,.82,.77,.32,1.23-.46,.42-1.14,.15-1.72,.15-.54,0-1.09-.09-1.11-.73-.02-1.25,0-2.49,0-4.1Z"/>
  <path class="cls-14" d="M141.31,152.22c-1.13-1.19-.35-3.32-2.44-4.04-.09-.31-.19-.61-.28-.92,1.08,.2,2.07-.23,3.09-.36,.21,.61,1.04,.31,1.36,.76-1.77,.08-1.98,.98-1.5,2.27,.28,.74,.52,1.49,.78,2.24-.34,.02-.67,.04-1.01,.06Z"/>
  <path class="cls-7" d="M175.05,150.15c-1.1-.93-1.81-1.48-2.45-2.09-.4-.39-1.37-.64-.83-1.36,.29-.38,.82-.93,1.46-.78,.76,.17,1.69,.38,1.8,1.27,.1,.83,.02,1.67,.02,2.97Z"/>
  <path class="cls-7" d="M192.62,160.66c1.22,1.5,2.47,3.04,3.89,4.78-1.29,.12-2.18,.1-2.84-.85-1.6-2.34-1.74-2.8-1.05-3.93Z"/>
  <path class="cls-7" d="M242.24,163.77c-1.76,.08-4.27-2.51-4.05-3.86,.05-.32,.3-.57,.52-.53,.32,.06,.68,.28,.86,.53,.87,1.2,1.69,2.44,2.67,3.86Z"/>
  <path class="cls-5" d="M134.82,137.97c-.39-1.39-.38-2.46-.99-3.36-.28-.42-.45-.88,.27-1.11,.61-.2,1.22-.71,1.86-.43,.68,.3,.06,.8-.03,1.2-.23,1.12-.23,2.31-1.11,3.7Z"/>
  <path class="cls-5" d="M245.44,144.86c.36,1.61,.2,2.86,.12,4.28-1.29-.53-2.25-1.47-2.46-2.39-.23-1,1.38-1.09,2.34-1.9Z"/>
  <path class="cls-7" d="M164,122.44c-.25,.67-.86,1.01-1.54,.93-.72-.08-1.41-.39-2.11-.64-.63-.22-1.04-.72-.82-1.26,.25-.62,.87-.2,1.34-.12,.73,.12,1.48,.18,2.2,.34,.41,.09,.88,.23,.92,.75Z"/>
  <path class="cls-7" d="M234.96,154.49c.95,1.14,1.72,2.06,2.48,2.98,.38,.46,.63,.95,.04,1.41-.64,.5-1.11-.01-1.53-.34-1.3-1.03-1.15-2.39-1-4.05Z"/>
  <path class="cls-7" d="M196.98,146.88q4.23,1,3.54,3.66c-1.23-1.27-2.39-2.46-3.54-3.66Z"/>
  <path class="cls-7" d="M259.17,158.55c.89,.4,1.16,1.24,1.58,1.89,.29,.45,.96,.92,.67,1.58-.05,.12-.38,.2-.59,.22-.71,.07-1.48,0-1.62-.73-.16-.88-1.29-1.59-.59-2.6,.1-.15,.34-.23,.55-.35Z"/>
  <path class="cls-7" d="M203.33,138.37c-1.55-1.55-1.46-3.12-2.17-4.39-.26-.46,.33-.69,.81-.62,.64,.1,1.39,.13,1.37,1.01-.02,1.17,0,2.34,0,4Z"/>
  <path class="cls-12" d="M212.47,121.95c-.94-2.03-1.87-4.06-2.81-6.09,.17-.17,.33-.33,.5-.5,1.45,2.03,2.26,4.3,3.12,6.55-.27,.02-.54,.03-.81,.05Z"/>
  <path class="cls-13" d="M220.82,142.09c1.18,2.54,2.87,4.91,3.21,7.72-1.77-2.34-2.85-4.94-3.65-7.65,.14-.05,.29-.07,.44-.07Z"/>
  <path class="cls-14" d="M254.55,124.32c0-2.26-.01-4.53-.02-6.79,.33-.02,.66-.03,.99-.05,.25,2.31,.55,4.62-.44,6.87-.18-.01-.35-.02-.53-.03Z"/>
  <path class="cls-7" d="M250.36,126.95c.07,.02,.14,.04,.22,.05q3.14,.45,1.58,3.42c-.66-1.16-1.8-1.94-2.08-3.21,.1-.08,.2-.17,.29-.27Z"/>
  <path class="cls-7" d="M256.24,159.45c1.29,.72,1.84,1.71,1.66,2.72-.11,.61-1.25,.58-1.97,.51-.62-.06-.47-.54-.36-.94,.21-.69,.41-1.38,.67-2.29Z"/>
  <path class="cls-5" d="M146.17,161.22c1.92,1.02,2.96,2.29,4.15,3.4,.23,.21,.18,.51-.19,.61-.51,.14-1.19,.23-1.47-.15-.81-1.11-2.04-2.03-2.49-3.86Z"/>
  <path class="cls-7" d="M213.48,157.98c.54,.91,1.15,1.8,1.61,2.75,.23,.47,.32,1.16-.49,1.31-.67,.13-1.19-.35-1.3-.87-.19-.98-.19-1.99-.27-2.99,.15-.07,.3-.13,.45-.2Z"/>
  <path class="cls-7" d="M234.56,149.76c.48,.08,.75,.33,.71,.78-.04,.41-.37,.48-.75,.5-.23-.65-.83-.47-1.35-.49-.27-.61-.55-1.21-.81-1.82-.19-.46-.82-.86-.27-1.41,.11-.11,.45-.19,.59-.12,.61,.27,.59,.86,.73,1.35,.12,.44,.13,.92,.34,1.31,.25,.47,.56,.2,.8-.09Z"/>
  <path class="cls-8" d="M236.07,172.98c1.49,1.96,2.1,4.26,3.12,6.4-.16,.15-.33,.29-.49,.44-.99-2.19-1.99-4.39-2.98-6.58,.12-.08,.23-.17,.35-.25Z"/>
  <path class="cls-7" d="M131.45,176.81c-.64,.04-1.06,.26-1.01,.91-1.39-1.14-3.32-1.83-3.9-3.74,1.62,.99,3.09,2.16,4.91,2.82Z"/>
  <path class="cls-7" d="M213.21,162.76c1.08,.79,2.17,1.41,2.02,2.42-.1,.63-1.46,.52-1.91,.25-1.15-.7,.02-1.59-.11-2.67Z"/>
  <path class="cls-7" d="M131.45,126.53c.95-.71,2.01-1.01,3.26-.98q-.89,2.63-3.26,.98Z"/>
  <path class="cls-12" d="M188.93,153.03c-.44-1.05-.52-2.13-.43-3.24,.29-.13,.58-.27,.88-.4,.32,1.19,.61,2.39,.49,3.63-.31,0-.62,0-.94,.01Z"/>
  <path class="cls-7" d="M247.81,125.85c-.54-.34-1.59-.26-1.57-1.1,.01-.6,.74-1.15,1.29-1.21,.9-.09,1.03,.78,1.17,1.37,.11,.48-.19,.89-.88,.93Z"/>
  <path class="cls-7" d="M218.85,123c-.87-.53-2.36,.23-2.69-1.05-.11-.42,.7-1.02,1.22-1,1.37,.05,1.13,1.23,1.48,2.05Z"/>
  <path class="cls-7" d="M217.64,165.41c-.84,0-1.03-.64-1.34-1.13-.31-.49-1.01-.86-.7-1.55,.06-.13,.45-.29,.51-.25,.92,.67,1.62,1.51,2.1,2.47,.1,.2-.22,.46-.57,.47Z"/>
  <path class="cls-7" d="M279.84,170.85c0,.24,0,.48,0,.72-1.63,.14-3.25,.19-4.76-.92,1.59,.07,3.18,.13,4.77,.2Z"/>
  <path class="cls-7" d="M160.31,147.08q2.68-.21,2.18,2.2c-.88-.67-1.7-1.25-2.18-2.2Z"/>
  <path class="cls-7" d="M267.41,148.11c-.69-.55-1.7-.94-1.18-1.89,.12-.22,.76-.49,.89-.4,.97,.62,.41,1.48,.29,2.29Z"/>
  <path class="cls-6" d="M169.72,162.67c1.02,.72,1.81,1.35,2.27,2.32q-1.41-.31-2.27-2.32Z"/>
  <path class="cls-13" d="M207.83,114.24c.11,1,1.35,1.71,.9,2.86-.95-.21-.81-1.15-1.35-1.64-.15-.39-.29-.78-.44-1.16,0,0,.03-.19,.03-.19,.29,.05,.58,.09,.86,.14Z"/>
  <path class="cls-14" d="M233.18,150.54c.51,.02,1.12-.16,1.35,.49l.02,.72c-.47,.25-1.35-.62-1.51,.45-.24-.49-.49-.99-.73-1.48,.29-.06,.58-.12,.87-.18Z"/>
  <path class="cls-14" d="M269.02,94.08c.81-.24,1.03,.33,1.33,.78-.65,.02-1.27,0-1.33-.78Z"/>
  <path class="cls-14" d="M264.45,94.83c.13-.78,.69-.89,1.42-.75-.09,.83-.76,.79-1.42,.75Z"/>
  <path class="cls-13" d="M215.47,131.63c1.09-.08,.8,.68,.91,1.2,0,0-.1,.08-.1,.08,0,0-.11-.06-.11-.06-.77-.16-.81-.65-.7-1.22Z"/>
  <path class="cls-13" d="M200.26,100.31c-.03-.4-.06-.8-.08-1.21,.95,.08,.8,.82,.99,1.35-.3-.05-.61-.1-.91-.14Z"/>
  <path class="cls-12" d="M185.82,180.63c.74-.06,1.49-.11,2.23-.17-.69,.67-1.45,.53-2.23,.17Z"/>
  <path class="cls-14" d="M129.96,153.16c-.58-.11-.54-.59-.69-.95,.63,.08,.74,.47,.69,.95Z"/>
  <path class="cls-14" d="M234.73,153.58c-.14-.12-.29-.25-.45-.38,.13-.04,.3-.15,.4-.12,.18,.07,.31,.23,.46,.35-.12,.04-.24,.09-.41,.15Z"/>
  <path class="cls-14" d="M116.53,143.74c.59-.02,.92,.24,1.02,.76-.64,.07-.99-.17-1.02-.76Z"/>
  <path class="cls-14" d="M123.22,171.31c-.47-.51-.47-1.11-.45-1.72,.18-.07,.37-.14,.55-.2,0,0,.04,.02,.04,.02-.05,.63-.1,1.27-.15,1.9Z"/>
  <path class="cls-12" d="M150.95,113.95c-.21,.22-.52,.39-.38,.75-.33-.08-.78-.13-.55-.58,.18-.36,.59-.23,.93-.17Z"/>
  <path class="cls-14" d="M123.72,169.57c.32,.36,.46,.76,.41,1.22-.48-.32-.42-.78-.41-1.22Z"/>
  <path class="cls-8" d="M278.47,130.03c-.32,.46-.82,.43-1.32,.39,.36-.35,.82-.44,1.32-.39Z"/>
  <path class="cls-6" d="M223.85,123c-.16,.12-.32,.24-.49,.35-.21-.27-.12-.5,.11-.71,.12,.12,.25,.24,.37,.35Z"/>
  <path class="cls-12" d="M278.72,163.95c.13,.33,.03,.6-.21,.86,.07-.29,.14-.57,.21-.86Z"/>
  <path class="cls-12" d="M182.21,180.63c.29,0,.58,.02,.88,.03-.3,.29-.6,.29-.88-.03Z"/>
  <path class="cls-14" d="M234.12,157.04c-.03-.26-.07-.52-.1-.78,.38,.22,.42,.48,.1,.78Z"/>
  <path class="cls-14" d="M125.19,147.33c.14,.14,.27,.29,.41,.43-.4,.02-.8,.03-1.2,.05,0,0-.02-.02-.02-.02,.27-.15,.53-.31,.8-.46Z"/>
  <path class="cls-14" d="M116.56,148.1c.05,.28,.1,.56,.16,.83-.05-.28-.1-.56-.16-.83Z"/>
  <path class="cls-12" d="M274.82,161.48c.31-.07,.62-.15,.93-.22-.25,.28-.58,.29-.93,.22Z"/>
  <path class="cls-12" d="M277.67,149.97s.17-.03,.17-.03c-.03,.11-.06,.21-.1,.32-.02-.1-.05-.19-.07-.29Z"/>
  <path class="cls-14" d="M283.44,171.21c.13-.05,.25-.09,.38-.14-.1,.1-.23,.15-.38,.14Z"/>
  <path class="cls-12" d="M153.61,113.53c-.21,.05-.42,.1-.63,.14,.21-.05,.42-.1,.63-.14Z"/>
  <path class="cls-6" d="M254.53,104.06c.11-.06,.27-.2,.32-.17,.26,.13,.13,.29-.02,.43-.1-.08-.2-.17-.3-.26Z"/>
  <path class="cls-12" d="M215.4,179.26c.17-.04,.33-.08,.5-.12-.17,.04-.33,.08-.5,.12Z"/>
  <path class="cls-6" d="M234.58,117.28c-.15,0-.31,0-.46,0,.07-.08,.13-.17,.2-.25,.09,.08,.18,.16,.26,.25Z"/>
  <path class="cls-12" d="M203.36,179.44c.21,.05,.43,.1,.64,.16-.21-.05-.43-.1-.64-.16Z"/>
  <path class="cls-14" d="M268.54,95.48c-.23-.03-.47-.07-.7-.1,.23,.03,.47,.07,.7,.1Z"/>
  <path class="cls-9" d="M249.69,126.76c-.09-.07-.17-.15-.26-.22,.07-.01,.14-.02,.2-.04,0,.1,.01,.2,.02,.29l.03-.04Z"/>
  <path class="cls-9" d="M249.66,126.8c.32-.27,.49,.01,.7,.15-.09,.1-.18,.18-.28,.27-.26-.07-.45-.18-.39-.46,0,0-.03,.04-.03,.04Z"/>
  <path class="cls-14" d="M133.14,156.86s.05-.07,.05-.07c.12,.28,.24,.56,.36,.85-.14-.26-.27-.52-.41-.78Z"/>
  <path class="cls-14" d="M168.69,132.02c-.11,.11-.21,.22-.32,.33,.11-.11,.21-.22,.32-.33Z"/>
  <path class="cls-14" d="M126.15,145.71c.22-.17,.45-.34,.67-.51-.06,.34-.31,.49-.67,.51Z"/>
  <path class="cls-2" d="M235.72,173.23c.99,2.19,1.99,4.39,2.98,6.58,1.01,2.2,2.03,4.39,3.03,6.59,.27,.59,.77,1.21-.12,1.74-3.52-7.56-7.04-15.12-10.57-22.67-.2-.44-.45-.85-.29-1.34,1.64,1.11,1.93,2.9,2.6,4.44,.7,1.6,1.42,3.17,2.36,4.66Z"/>
  <path class="cls-2" d="M224.02,149.8c.61-.15,.74,.24,.91,.63,1.92,4.19,3.85,8.37,5.75,12.56,.16,.34,.07,.78,.1,1.17-1.69-1.37-1.78-3.43-2.67-5.14-1.55-2.99-3.25-5.95-4.09-9.21Z"/>
  <path class="cls-2" d="M198.48,93.19c-.16,.02-.31,.04-.47,.07-.48-.68-.96-1.36-1.44-2.03,0,0,.01,.02,.01,.02-.16-.84-.37-1.65-1.36-2.03h0c.02-.27,.04-.55,.06-.83,.16-.16,.33-.32,.49-.48,1.23,1.63,2.12,3.39,2.71,5.29Z"/>
  <path class="cls-11" d="M132.48,155.86c-.12-.26-.07-.51,.22-.6,.47-.15,.76,.08,.93,.47,.1,.25,.2,.49,.3,.74-.04,.47-.28,.63-.77,.42-.23-.34-.45-.68-.68-1.02Z"/>
  <path class="cls-14" d="M121.81,157.69c-.09-.25-.18-.5-.27-.74,.28,.19,.66,.35,.27,.74Z"/>
  <path class="cls-5" d="M95.82,178.33c-2.74,0-5.96,.03-9.18-.02-.66,0-1.71,.15-1.64-.88,.06-.95,.89-1.09,1.81-1.02,.82,.07,1.65,.12,2.47,.08,.52-.02,1.41,.34,1.48-.41,.07-.79-.84-.52-1.36-.58-1.04-.12-2.08-.2-3.12-.31-.39-.04-.8-.22-.8-.57,0-.55,.55-.56,.99-.52,1.19,.1,2.38,.24,3.57,.34,.38,.03,.82-.04,.78-.48-.01-.17-.36-.42-.6-.47-.88-.17-1.77-.28-2.66-.38-.8-.09-1.31-.55-1.19-1.2,.16-.89,.97-.36,1.43-.27,8.18,1.54,16.23,.45,24.23-1.05,2.07-.39,3.48-.47,3.5,1.9,0,.25,.16,.51,.27,.76,1.14,2.42,1.14,2.38-1.64,3.02-5.86,1.36-11.8,2.17-18.35,2.08Z"/>
  <path class="cls-1" d="M187.63,115.47c-.35,.02-.62-.03-.48-.44,.39-.05,.69-.03,.48,.44Z"/>
  <path class="cls-8" d="M201.08,115.74c.11-.1,.22-.2,.32-.3-.11,.1-.22,.2-.32,.3Z"/>
  <path class="cls-10" d="M196.6,117.88c.28-.35,.35-.13,.4,.12-.16,.03-.29-.01-.4-.12Z"/>
  <path class="cls-13" d="M200.19,99.12c-.89-.39-1.03-1.22-1.31-1.92-.2-.51,.27-.65,.79-.48,0,.83,.97,1.49,.52,2.4Z"/>
  <path class="cls-14" d="M292.29,162.58c-.25-.27-.09-.48,.12-.68-.04,.23-.08,.46-.12,.68Z"/>
  <path class="cls-7" d="M188.93,153.03c.31,0,.62,0,.94-.01,.2,.73,.89,1.39,.45,2.22-.79,.46-.77-.18-.95-.56-.04-.14-.08-.27-.12-.41-.11-.41-.21-.83-.32-1.24Z"/>
  <path class="cls-11" d="M141.31,152.22c.34-.02,.67-.04,1.01-.06,.1,.99,1.22,1.75,.77,2.86q-.85-.04-1.39-1.55c-.08-.14-.15-.29-.23-.43-.05-.27-.11-.55-.16-.82Z"/>
  <path class="cls-11" d="M143.99,156.64c-1.06-.2-1.42-.71-.9-1.61,.96,.24,1.43,.7,.9,1.61Z"/>
  <path class="cls-11" d="M144.88,157.45c-.15,.29-.44,.42-.68,.18-.26-.26-.72-.56-.22-.99,.9-.27,.96,.21,.89,.81Z"/>
  <path class="cls-10" d="M206.93,114.29c.15,.39,.3,.78,.44,1.16-.59,0-1.17,0-1.76,0,0-.39-.01-.77-.02-1.16,.45-.17,.89-.16,1.34,0Z"/>
  <path class="cls-13" d="M208.72,117.09c1.87,1.18,1.72,3.27,2.65,4.88,1.51,2.61,2.61,5.4,3.89,8.12,.24,.51,.44,1,.21,1.55-1.59-1.49-1.96-3.51-2.79-5.32-1.39-3.05-3.46-5.87-3.97-9.22Z"/>
  <path class="cls-14" d="M138.56,152.04c.16-.64,.48-.91,.9-.18,.34,.57,.5,1.23,.74,1.85-.29,.06-.57,.11-.86,.17-.64-.48-.93-1.09-.79-1.84Z"/>
  <path class="cls-11" d="M139.35,153.87c.29-.06,.57-.11,.86-.17,.36,.64,.84,1.25,1.03,1.93,.17,.6-.24,.87-.89,.43-.33-.73-.67-1.46-1-2.18Z"/>
  <path class="cls-11" d="M136.74,149.8c.24-.47,.63-.58,.97-.16,.31,.38,1.27,.7,.38,1.38-.98,.07-1-.72-1.35-1.22Z"/>
  <path class="cls-11" d="M138.1,151.02c.39-.16,.71-.07,.87,.28,.16,.35-.02,.61-.41,.74-.39-.26-.99-.43-.46-1.02Z"/>
  <path class="cls-14" d="M133.93,156.46c-.1-.25-.2-.49-.3-.74,.27,.19,.6,.36,.3,.74Z"/>
  <path class="cls-13" d="M195.28,88.39c-.02,.28-.04,.56-.06,.83-1.02,.03-.99-.84-1.4-1.33-.53-.64-.92-1.37-1.46-2-.76-.89-1.55-2.2-2.88-1.92-1.43,.31-.75,1.79-.92,2.77-.09,.49,.28,1.05-.5,1.61-.63-1.62-.7-3.21,.01-4.63,.67-1.33,1.93-.81,3.02-.19,2.06,1.16,2.74,3.27,4.18,4.86Z"/>
  <path class="cls-13" d="M195.22,89.22c1,.38,1.21,1.19,1.36,2.03-1.2-.27-1.41-1.08-1.36-2.03Z"/>
  <path class="cls-13" d="M196.57,91.23c.48,.68,.96,1.36,1.44,2.03-1.16,.11-1.47-.33-1.44-2.03Z"/>
  <path class="cls-7" d="M189.25,154.28c.04,.14,.08,.27,.12,.41-.06-.09-.14-.17-.18-.26-.02-.03,.04-.1,.06-.15Z"/>
  <path class="cls-5" d="M141.47,153.04c.08,.14,.15,.29,.23,.43-.08-.14-.15-.29-.23-.43Z"/>
</svg>