<?xml version="1.0" encoding="UTF-8"?>
<svg id="Layer_1" data-name="Layer 1" xmlns="http://www.w3.org/2000/svg" viewBox="0 0 414 200">
  <defs>
    <style>
      .cls-1 {
        fill: #f7b7d3;
      }

      .cls-2 {
        fill: #00bff3;
      }

      .cls-3 {
        fill: #fff9b8;
      }

      .cls-4 {
        fill: #fff200;
      }

      .cls-5 {
        fill: #eceadf;
      }

      .cls-6 {
        fill: #fbb040;
      }

      .cls-7 {
        fill: #baac98;
      }

      .cls-8 {
        fill: #cec9c7;
      }

      .cls-9 {
        fill: #a4d3f2;
      }

      .cls-10 {
        fill: #bebdbd;
      }

      .cls-11 {
        fill: #413e38;
      }

      .cls-12 {
        fill: #727171;
      }

      .cls-13 {
        fill: #615d59;
      }
    </style>
  </defs>
  <path class="cls-8" d="M328.93,133.84c-.1,.06-.19,.12-.29,.19,.06-.1,.12-.19,.18-.29,0,0,.11,.11,.11,.11Z"/>
  <path class="cls-11" d="M173.96,35.73c-.19-.82-.21-1.69-.77-2.4,.02-.39-.03-.76-.32-1.06,.03-.52-.05-1-.44-1.4-.16-1.02-.07-2.15-1.25-2.75-.02-1.38-.74-2.6-1.02-3.92-.49-1.05-.02-2.48-1.38-3.19,0-.36-.01-.72-.02-1.08,1.05-.18,1.61,.16,2.04,1.19,1.54,3.69,2.47,7.57,3.98,11.28,1.75,4.29,3.25,8.68,5.01,12.98,1.9,4.63,3.85,9.22,5.97,13.77,1.66,3.56,3.59,6.96,5.61,10.33,.48,.8,1.11,.98,1.69,.2,1.04-1.42,2.49-2.4,3.91-3.37,1.09-.75,.98-1.43,.43-2.4-2.94-5.19-5.58-10.52-7.87-15.99-1.46-3.5-2.81-7.06-4.23-10.58-1.44-3.55-2.29-7.27-3.9-10.77-.78-1.69-.85-3.69-1.68-5.35-.93-1.86,.22-1.27,1.14-1.15-.03,.12,.02,.2,.14,.25,.4,1.2,.09,2.68,1.5,3.48,.1,.48,.2,.97,.31,1.45-.06,.29-.05,.56,.28,.71,.17,1.46,.76,2.82,1.22,4.2,.19,.69,.06,1.53,.97,1.88,.28,.9,.56,1.8,.85,2.69-.06,.41,.08,.75,.44,1-.06,.56,.06,1.09,.37,1.57,.22,.54,0,1.32,.91,1.47,.05,.18,.1,.35,.15,.53-.07,.31,0,.55,.32,.7,.06,.89,.31,1.72,.83,2.46,.16,1.08,.21,2.2,1.32,2.88,.51,1.39,1.01,2.78,1.52,4.16,.14,.71,.15,1.49,1.06,1.79,1.53,4.35,3.78,8.37,6.11,12.35,.34,.59,.66,.79,1.44,.4,2.49-1.22,5.05-2.31,7.6-3.42,.81-.35,1.02-.88,.94-1.68-.15-1.52-.15-3.05,.3-4.53,1.23-4.04,4.26-6.44,8.29-7.59,5.54-1.58,10.9-1.16,15.7,2.24,.73,.52,1.34,.41,2.03,.11,8.43-3.61,16.84-7.26,25.3-10.81,6.33-2.66,12.68-5.29,18.91-8.16,.48,.14,.84,0,1.07-.42,.49-.07,.98-.15,1.45,.07-.03,1.17-1.12,1.29-1.9,1.63-2.2,.97-4.44,1.86-6.65,2.81-6.82,2.92-13.63,5.84-20.44,8.79-6.79,2.94-13.78,5.47-20.36,8.86-3.5,1.38-7.01,2.73-10.48,4.17-.4,.17-1.31,.2-1.15,.88,.16,.7,.98,.51,1.56,.58-1.52,1.52,.05,2.82,.38,4.18,.29,1.21,1.17,1.39,2.4,.96,2.69-.95,5.37-1.93,8.14-2.61,8-1.97,15.61-4.96,23.18-8.01,7.84-3.16,15.56-6.59,23.28-10.01,2.91-1.29,5.96-2.31,8.71-3.93,1.28,.45,1.67,.92,.12,1.59-4.71,2.03-9.4,4.11-14.11,6.14-3.77,1.62-7.59,3.13-11.34,4.79-7.29,3.23-14.71,6.16-22.28,8.74-.59,.2-1.01,.29-.66,.97,.33,1.27,.79,2.48,1.65,3.52,.08,.33,.15,.66,.23,.98,.2,1.45,.53,2.86,1.64,3.97,.41,.23,.82,.45,1.23,.68,1.35,.9,2.9,1.34,4.46,1.75,.13,.07,.25,.15,.38,.22,.56,.47,1.16,.81,1.94,.78,.77,.51,1.78,.62,2.43,1.33,.09,.37,.36,.52,.74,.51,.12,.09,.24,.17,.36,.26,.14,.42,.48,.44,.85,.39,.75,.5,1.54,.96,2.1,1.68,.12,.44,.46,.47,.84,.43,.47,.48,.94,.96,1.42,1.44,.13,.55,.52,.74,1.08,.71,.38,.46,.76,.92,1.14,1.38,.11,.13,.21,.26,.32,.38,.12,.17,.23,.35,.35,.52,.06,.43,.34,.58,.77,.53,.72,.92,1.48,1.82,1.81,2.96,.1,.9,.91,1.34,1.44,1.95,.91,1.03,2.35,1.17,3.48,1.87,3.76,2.32,6.59,5.21,8.23,9.35,1.45,3.65,1.69,7.28,1.24,11-.18,1.51,.11,2.6,1.17,3.63,2.2,2.13,3.46,4.78,4.07,7.64,.84,3.94,.91,8.01-.59,11.77-.62,1.56-.43,2.44,.14,3.84,2.46,5.99,1.83,12.05-.08,18.05-.24,.74-1.03,1.29-1.24,2.1-.39,.13-.52,.4-.46,.77-.08,.21-.16,.42-.24,.64-.69,.52-1.44,1.01-1.52,1.97-.22,.77-.75,1.35-1.3,1.91-.61,.03-1.1,.18-1.04,.91-.15,.17-.3,.33-.45,.5-.42,.06-.63,.3-.63,.7,0,0-.01,.02-.01,.02-.12,.11-.23,.23-.35,.34-.12,.12-.24,.25-.36,.37-1.42,.36-1.65,1.25-1.21,2.44l-.18,.69c-.63,.53-.82,1.21-.71,1.98-.17,.29-.33,.58-.5,.86-.59-.03-.78,.3-.78,.8-2.4,3.94-6.17,6.06-10.6,7.31-.13,.07-.27,.14-.4,.21-.29,.1-.57,.19-.86,.29-.68-.2-1.29-.2-1.72,.47-.47,.25-.97,.34-1.5,.31-1.64-.42-3.19,.07-4.75,.44-.63-.03-1.25-.05-1.88-.08-.25-.29-.56-.26-.88-.14-.31-.04-.62-.07-.93-.11-1.16-.72-2.09-.21-2.98,.51-.32,.09-.64,.17-.96,.26-.48-.13-.84,.08-1.18,.36-.39,.06-.78,.12-1.17,.18-.86-.39-1.52,.02-2.19,.47-.85,.23-1.72,.35-2.6,.23-1.21-.37-2.42-.38-3.63,0-.88,.1-1.75,0-2.6-.23-.23-.33-.55-.37-.92-.26-.18-.02-.36-.03-.54-.05-.17-.33-.39-.47-.72-.18-.24-.06-.48-.11-.72-.17-1.62-.96-2.88-.13-4.13,.76-.34,.09-.67,.18-1.01,.27-2,.33-4.1,.17-5.97,1.1-3.19,.33-6.38,.33-9.58,.07-.17-.01-.34-.02-.51-.03-.43-.02-.86-.05-1.3-.07-1.69-.81-3.49-.81-5.32-.67-.2-.02-.39-.05-.59-.07-.3-.43-.73-.4-1.18-.32-.47-.06-.94-.11-1.41-.17-1.21-.37-2.32-1.65-3.71-.38-.32,.36-.77,.33-1.2,.34-.8-.13-1.55-.09-2.1,.59-.16,.03-.33,.06-.49,.09-1.38-.17-2.69,.04-3.94,.63-3.3,.39-6.6,.32-9.9,.11-.16-.17-.33-.18-.53-.05-.44-.03-.89-.07-1.33-.1-1.88-1.06-4.04-.58-6.03-1.02-.18-.01-.36-.02-.54-.03-1.67,.23-3.39,.23-4.89,1.11-.37,.05-.73,.1-1.1,.15-1.8-.49-3.48,.04-5.15,.57-3.17,.25-6.34,.26-9.51,.02-1.68-.6-3.38-.94-5.17-.57-.36-.06-.72-.13-1.08-.19-2.56-1.66-4.78-.16-7.08,.7-.37,.05-.73,.11-1.1,.16-1.33-.44-2.52,.02-3.69,.56-3.04,.26-6.09,.32-9.13-.03-1.3-.56-2.63-.92-4.07-.53-.36-.04-.73-.08-1.09-.12-.85-.65-1.81-.85-2.87-.61-.4-.05-.8-.1-1.2-.15-1.14-.9-2.27-1.31-3.37,.04-.24,.06-.48,.11-.72,.17-.9-.43-1.58-.03-2.23,.53-.47,.22-.97,.2-1.47,.14-1.31-.46-2.61-.15-3.9,.09,0-.22,0-.43,0-.65,.35-.01,.72,.03,.98-.28,.49-.04,.97-.08,1.46-.12,.5,.52,.88,.42,1.14-.21,.36-.04,.72-.08,1.07-.12,.73-.01,1.46-.02,2.19-.04,.41-.01,.69-.21,.76-.61,.09-.52-.17-.76-.71-.76-.55-.35-1.08-.74-1.66-1.04-1.94-.97-2.94-3.24-5.37-3.51,.02-.32,.04-.64,.05-.96,8.25-1.68,16.14-4.28,23.91-8.23-7.86-4.04-15.52-3.34-23.24-1.11-1.05-.28-.79-1.11-.67-1.73,.18-.91,.87-.19,1.32-.25,1.69-.23,3.38-.62,5.08-.71,3.43-.19,6.71-.91,10.03-1.76,4.62-1.17,9.23-.44,13.62,1.34,.58,.23,1.17,.53,1.76,.33,2.86-.96,5.94-1.05,8.69-2.57,2.92-1.61,6.28-1.36,9.51-.8,2.82,.49,5.5,1.55,8.27,2.22,3.44,.83,7.15,.71,10.19-.96,5.71-3.13,11.28-2.8,17.09-.64,1.57,.58,2.83,1.87,4.66,1.85,.64,.34,1.26,.41,1.83-.13,.19-.02,.39-.03,.58-.05,1.06,.04,2.17,.44,3.12-.36,.16-.03,.31-.05,.47-.08,1.65,.21,2.85-.97,4.33-1.26,.11-.02,.21-.01,.31,.02,1.04-.07,2.08-.1,2.97-.72,.59-.33,1.23-.26,1.86-.22,1.09,.37,2.18,.37,3.26-.02,.63,.05,1.26,.1,1.9,.14,.59,.29,1.17,.59,1.87,.43,1.22-.17,2.11,.72,3.21,.93,.04,.46,.33,.57,.76,.52,.77,0,1.54,.02,2.3,.02,.73-.06,.64-.49,.57-1.01-.4-2.88-.9-5.74-.33-8.69,.19-.96,.9-1.82,.63-2.86,.11-.27,.22-.53,.34-.8,1.34-.73,1.4-2.32,.11-3.25-.33-.47-.41-1-.38-1.56,.11-.54,.28-1.1-.24-1.55-.05-.29-.1-.59-.15-.88-.08-3.94-.89-7.82-1.18-11.75-.12-1.58-.19-3.4-.96-4.97-.2-2.8-.22-5.61,.01-8.41,.81-.75,.42-1.82,.84-2.74,.89-1.94,1.14-4.14,.06-6.14-.43-.79-.42-1.52-.57-2.3-.28-1.4,.58-2.52,.88-3.78,.14-.17,.27-.34,.41-.5,.21-.1,.28-.25,.22-.46,0-.18,0-.36,.01-.55,.11-.45-.08-.72-.55-.82,0,0-.09-.1-.09-.1-.14-.52-.53-.55-.98-.44-.09,.03-.15,0-.18-.1-.15-.11-.3-.22-.44-.33-.33-.2-.66-.41-.99-.61-.18-.48-.56-.46-.98-.36l-1.6-1.06c-.15-.48-.52-.48-.93-.38-5.57-3.55-10.65-7.6-14.85-12.64-.95-1.14-1.85-2.27-2.64-3.51-.72-1.13-1.72-1.98-3.04-2.38-1.54-.46-2.23-1.49-2.07-2.91,.17-1.47-.19-2.56-1.11-3.83-1.54-2.13-2.61-4.58-3.89-6.88-2.63-4.75-4.45-9.84-6.86-14.68-.78-1.57-1.23-3.3-1.83-4.95-.06-.46,.19-1.12-.72-1.06-.1-.24-.2-.49-.3-.73,.03-.04,.08-.1,.07-.13-.04-.08-.11-.15-.17-.23,.05-.66-.28-1.2-.62-1.74,.02-.05,.08-.11,.06-.14-.05-.09-.12-.16-.18-.24,.09-.64-.22-1.17-.54-1.69-.12-.7,.2-1.6-.93-1.83Zm54.5,123.75c-.1-.11-.2-.21-.3-.32l-.02-.02c-2.1-2.56-4.01-5.23-5-8.4-.1-.33-.35-.76-.74-.64-.37,.11-.69,.44-.81,.88-.78,2.82-.86,5.66-.08,8.49,.44,1.59,1.43,2.35,3.2,1.58,.42-.03,.84-.06,1.26-.09,.87,.29,1.78,.15,2.65,.07,1.05-.09,1.09-.54,.28-1.12l-.12-.12c-.01-.12-.09-.19-.21-.21,0,0-.11-.11-.11-.11Zm30.18-12.23h0c.47-.03,.77-.22,.74-.72,.69-1.08,.3-2.27,.33-3.41,0-.18-.02-.36-.03-.54-.26-1.5-.33-3-.26-4.51,.02-.6,.11-1.25-.81-1.33-.23-.47-.46-.95-.69-1.42,.01-.04,.04-.09,.03-.12-.03-.07-.08-.14-.12-.21-.77-1.2-.9-2.54-.98-3.9,.44-.42,.35-.77-.15-1.07-.13-.69-.14-1.38,.04-2.07,.49-.32,.52-.68,.09-1.07,.12-1.15,.33-2.28,.65-3.4,.78-2.74,.98-5.4-1.69-7.47-.26-.2-.4-.58-.56-.89-1.3-2.68-1.58-5.5-1.28-8.4,.07-.67,.41-1.43-.79-1.56-1.12-.12-1.21,.48-1.41,1.33-.78,3.24,.97,6.04,1.61,9.02,.56,2.6,.89,5.12-.11,7.64-.98,2.48-1.33,4.95,.07,7.36,.31,.53,.48,1.03,.6,1.6,.93,4.2,1.29,8.46,1.08,12.73-.2,4.18-.22,8.39-1.76,12.42-.48,1.25,.74,1.13,1.45,.99,1.49-.28,3.27-2.72,3.25-4.21-.03-1.92-.42-3.85,.33-5.73,.44-.26,.41-.66,.36-1.07Zm-17.97-84.02l-.03-.08c.05-.56-.14-.94-.81-.94h0c-.04-.13-.08-.25-.12-.38-.44-1.41-1.23-1.77-2.75-1.17-1.68,.67-3.49,1.08-5.26,1.53-.94,.24-1.05,.57-.76,1.49,.85,2.68,2.45,5.22,1.97,8.2-.09,.54,.31,.97,.62,1.42,1.34,1.99,2.73,3.97,2.98,6.43,.04,.36,.15,.66,.53,.85,2.19,1.11,3.89,.37,4.57-1.98,1.44-4.93,.91-9.78-.7-14.57,.08-.31,.09-.6-.24-.8Zm-33.31,.55c.38-.46,.81-.84,1.49-.88,.48-.03,.86-.31,.76-.78-.14-.64-.69-.34-1.01-.2-1.14,.49-2.24,1.05-3.36,1.58-4.81,2.22-9.52,4.56-12.31,9.25-.9,1.51-.66,2.38,1.06,2.88,5.44,1.56,10.65,.37,15.82-1.26,.94-.3,.91-.73,.28-1.4-.73-.77-1.78-1-2.6-1.6-1.41-1.04-1.42-1.98,.11-2.85,.93-.53,1.97-.99,3.03-1.2,1.82-.35,1.27-1.18,.57-2.02-.23-.28-.48-.5-.52-.86-.05-.16-.1-.33-.15-.49-.28-.49-.73-.49-1.21-.35-.12,.07-.25,.13-.37,.2-.32,.09-.63,.17-.95,.26-.2-.08-.41-.17-.61-.25Zm37.99,90.33c-.29,.2-.46,.44-.26,.79-.05,.23-.11,.45-.16,.68-.21,.2-.44,.39-.3,.71-.5,.55-.41,1.2-.34,1.84,.08,.72,.19,1.54,1.27,1.25,1.72-.46,3.49-.58,5.24-.84,.65-.1,.99-.35,.78-1.07-.71-2.49-1.71-4.87-2.97-7.15,.12-.67-.34-.94-.87-1.1-.43-.13-.64,.18-.77,.53-.5,1.39-1.01,2.77-1.51,4.16-.08,.04-.11,.11-.1,.19Zm12.63-22.74c-.03,.52-.29,1.11,.49,1.37,.3,.5,0,1.22,.57,1.6,.33,.22,.88,.85,1.13,.07,.45-1.4,1.57-2.29,2.46-3.35,.52-.63,.35-1.17-.07-1.74-1.02-1.41-2.24-2.71-2.86-4.36-.12-.32-.22-.75-.67-.72-.56,.04-.37,.66-.64,.95-.24,.03-.4,.09-.09,.28-.59,1.95-.32,3.93-.33,5.91Zm-49.02,29.47c-.4-.74-.79-.73-1.17,0-2.65,.23-5.29,.49-7.79,1.39,2.53,.59,5.14,.91,7.47,2.17,.34,.19,.87,.28,1.23,.17,2.36-.71,4.7-1.49,7.2-2.29-2.27-1.26-4.65-1.15-6.94-1.45Zm54.11,8.18c-.14,.13-.29,.26-.43,.39-.74,.04-1.49,.08-1.38,1.1-1.22,1.5-3,2.2-4.75,2.81-4.04,1.41-7.99,1.38-11.73-1.03-1.14-.73-2.34-.02-3.05,.78-.66,.74,.44,1.25,.94,1.6,2.78,1.91,5.69,3.58,9.22,3.9,5.4,.48,10.51-.56,15.23-3,3.89-2.01,6.8-5.02,8.17-9.4-3.82,1.29-7.67,2.39-11.7,2.66-.16,.07-.33,.14-.49,.22Zm-110.88,13.46c1.48,0,2.95-.02,4.43-.03,2.32-.05,4.64-.09,6.97-.17,.14,0,.28-.33,.42-.5,1-.18,2.01-.35,3-.53,.02-.4-.13-.7-.41-.81-2.97-1.15-5.56-2.82-7.78-5.05-.72-.72-1.6-1.02-2.78-.8-5.22,.96-10.52,1.31-15.63-.31-2.33-.74-4.17,.03-6.16,.59-.69,.19-1.23,.68-.38,1.39,1.09,.91,2.22,1.79,3.27,2.74,2.16,1.94,4.97,2.31,7.67,2.96,2.43,.7,4.9,.82,7.4,.5Zm46.79-19.05c-4.67-.1-9.31,.11-13.75,1.7-5.48,1.96-10.95,3.96-16.42,5.94-.28,.1-.65,.15-.67,.5-.03,.54,.47,.62,.85,.76,3.51,1.32,7.15,1.62,10.85,1.15,8.75-1.11,16.79-4.43,24.94-7.42,.33-.12,.77-.17,.81-.6,.06-.56-.46-.65-.85-.75-1.66-.4-3.32-.77-4.98-1.15-.2-.41-.44-.55-.78-.12Zm-6.22,17.53c.4-.32,1.28-.05,1.3-.76,.02-.61-.72-.73-1.17-.99-1.73-1-3.36-2.11-4.5-3.73-.97-1.39-2.12-2.13-3.94-1.52-2.23,.74-4.58,.77-6.9,.89-3.27,.17-6.57-.04-9.47-1.56-1.74-.91-3.21-.97-5.01-.34-3.57,1.26-3.66,1.26-.72,3.58,2.16,1.7,4.65,2.89,7.37,3.67,3.07,.88,6.21,1.29,9.38,1.57,.12,.24,.24,.26,.38,.01,.85,.03,1.7,.06,2.54,.09,.76,.8,1.52,.82,2.26-.01,2.52-.41,5.11,.03,7.63-.53,.39,.09,.72,.08,.86-.37Zm59.36-27.55c.76-.85,.35-1.58,.51-2.23,1.15-4.57,.7-9.21,.42-13.8-.25-4.12-1.36-8.16-3.41-11.82-1.7-3.03-4.33-5.38-6.96-7.74-3.34-2.99-7.03-5.54-10.65-8.18-3.24-2.35-6.65-4.52-9.45-7.38-.39-.4-.79-.9-1.35-.71-.59,.2-.9,.81-.91,1.42-.05,1.69-.31,3.42,.43,5.03,1.16,2.52,2.44,4.94,4.16,7.22,2.27,3.02,4.71,5.92,7.27,8.67,3.47,3.72,6.77,7.55,9.82,11.57,2.12,2.8,4.56,5.48,5.49,8.89,.91,3.32,3.51,5.72,4.62,9.06Zm-18.5-8.74c.76-5.23-.83-11.14-.65-17.12,.01-.34-.04-.66-.32-.96-2.67-2.77-4.96-5.85-7.52-8.7-1.16-1.29-1.95-2.8-3.14-4.01-.34-.35-.41-1.36-1.22-.98-.58,.27-.44,1.04-.45,1.61-.12,8.28-.38,16.53,1.69,24.71,.96,3.81,1.27,7.75,2.76,11.48,1.36,3.43,3.09,6.52,6.12,8.86,.94,.72,2.03,1.13,3.06,.64,1.09-.52,.63-1.73,.42-2.54-1.07-4.04-.65-8.15-.74-12.99Zm29.71-50.1c-.42-1.45-.67-3.06-2-4.51-3.59-3.88-8.48-5.16-13.35-6.33-4.71-1.14-9.66-1.18-14.4-2.3-3.66-.86-7.3-1.78-10.61-3.58-1.02-.56-2.38-1.84-3.06-1.35-1.03,.73-.45,2.38-.34,3.65,.03,.39,.2,.79,.37,1.16,1.39,3.02,4.08,4.62,7.04,5.99,4.01,1.86,8.25,3.13,12.48,4.41,3.24,.98,6.52,1.83,9.92,2.38,3.95,.63,7.99,.99,11.79,2.41,1.72,.65,2.17,.24,2.17-1.92Zm-52.82-36.72c.13,1.16,.42,2.5,.89,3.9,1.74,5.23,4.97,9.35,9.28,12.81,3.75,3.01,8.32,4.25,12.94,5.35,.63,.15,1.16-.02,.96-.8-.44-1.74-.92-3.41-2.26-4.83-2.43-2.58-5.51-4.52-7.65-7.42-.99-1.34-1.66-2.82-2.62-4.14-1.65-2.27-2.16-4.79-1.96-7.45,.13-1.72,1.36-2.7,3-2.13,1.89,.65,3.3-.11,4.86-.72,.73-.29,1.37-.72,2.15-.96,.7-.21,1.84-.37,1.86-1.16,.02-.82-.99-1.23-1.77-1.58-3.35-1.5-6.87-1.55-10.43-.99-5.32,.84-9.39,5.26-9.25,10.12Zm50.22,81.88c.27,2.16,.66,4.31,1.08,6.47,1.01,5.3,3.54,10.33,3.21,15.86-.04,.71,.19,1.1,1.02,1.08,2.49-.08,7.03-1.86,7.95-5.18,1.37-4.89,.21-9.51-1.81-13.83-1.87-4.02-4.54-7.7-7.1-11.39-.78-1.13-1.28-1.09-1.98-.11-1.53,2.14-2.88,4.34-2.37,7.11Zm-41.21-48.9c-.16,4.25,1.52,7.94,4.38,10.78,3.87,3.84,8.74,6.62,13.19,9.85,.76,.55,1.38,.77,1.81-.55,1.7-5.18-.63-9.29-3.68-13.2-1.51-1.94-3.38-3.6-4.81-5.62-.84-1.19-1.27-2.68-3.03-3.19-1.87-.54-3.59-1.44-5.15-2.61-.85-.64-1.49-.53-1.99,.52-.63,1.32-.82,2.68-.73,4.02Zm40.04,27.08c-.1,2.64,.4,5.1,1.79,7.19,3.02,4.52,6.29,8.88,9.34,13.37,.74,1.09,1.31,1.04,2.16,.33,2.44-2.06,3.31-6.41,2.22-9.4-1.57-4.3-3.67-8.24-6.82-11.72-2-2.21-4.31-4.09-6.41-6.19-1.06-1.06-1.79-.76-1.96,.79-.21,1.91-.75,3.81-.32,5.63Zm-32.31,61.97c-2.22-1.23-4.7-1.96-6.32-3.67-2.02-2.14-4.22-2.87-7.06-2.17-.35,.09-.73,.12-1.09,.14-5.85,.31-11.63,.23-17.02-2.44-.57-.28-1.19-.5-1.92-.25-1.38,.46-2.81,.79-4.2,1.2-1.04,.3-1.23,.81-.47,1.64,1.74,1.89,3.61,3.68,6.09,4.57,7.41,2.69,15.14,3.04,22.96,2.72,3.07-.12,6.06-.6,9.04-1.74Zm-114.94-5.79c6.13,1.89,11.85,1.93,17.62,.65,7.5-1.67,14.07-5.46,20.97-8.49,.28-.12,.61-.25,.57-.59-.05-.41-.47-.53-.8-.63-6.88-2.07-13.62-2.47-20.19,1.12-3.91,2.13-7.94,4.06-12.16,5.59-1.89,.69-3.75,1.47-5.99,2.35Zm155.68-79.95c.22-2.58-.45-4.87-1.87-7.11-2.05-3.25-4.38-6.19-7.39-8.72-3.49-2.94-7.44-5-11.66-6.72-2.85-1.16-2.88-1.24-2.79,1.76,.06,2.02-.14,4.03-1,5.83-1.08,2.25-1.19,2.34,1.37,2.66,3.96,.49,7.81,1.4,11.41,3.01,5.35,2.4,9.6,5.66,8.85,12.17-.02,.17-.05,.36-.01,.53,.2,.9,.91,1.5,1.73,1.63,.94,.15,.8-.85,1.02-1.4,.49-1.18,.27-2.43,.33-3.64Zm-71.23,76.46c.46,.55,.99,.69,1.51,.86,5.39,1.75,10.94,1.92,16.51,1.25,3.19-.38,6.23-1.18,9.07-2.89,2.3-1.38,4.57-2.81,6.77-4.31,1.3-.89,3.06-1.21,3.98-2.74-13.66-1.87-25.73,2.75-37.84,7.83Zm-56.67,2.05c.25,.27,.35,.48,.49,.51,4.78,1.01,9.59,1.09,14.41,.31,8.07-1.31,15.54-4.41,23.09-7.24,.41-.15,1.1-.1,1.08-.74-.03-.58-.64-.64-1.09-.78-3.4-1.12-6.88-1.56-10.49-1.29-6.03,.45-11.77,1.63-17.15,4.51-3.3,1.76-6.69,3.45-10.33,4.74Zm95.19-25.22c-.01,3.7-.05,7.25,1.14,10.72,.52,1.51,1.79,1.88,3.04,2.09,1.25,.21,2.02-.77,2.43-1.78,.89-2.22,2.16-4.31,2.71-6.64,.31-1.33,.82-2.52,1.6-3.66,.74-1.06,.51-2.26-.02-3.36-2.01-4.18-4.83-7.88-7.72-11.52-.34-.43-.56-.97-1.25-.78-.69,.19-.57,.82-.68,1.31-1.06,4.54-.97,9.17-1.25,13.64Zm34.25-57.96c.08,.6,.1,.82,.14,1.05,.42,2.59,.8,5.11-.5,7.67-.51,1-1.06,2.39-.21,3.7,2.95,4.5,4.44,9.35,3.76,14.7-.09,.7-.2,1.37-.69,1.96-.38,.46,1.42,4.2,2.02,4.17,.32-.01,.74-.23,.92-.48,.35-.47,.64-1.01,.8-1.57,.91-3.19,2.35-6.19,2.82-9.55,.77-5.39,.99-10.54-2.03-15.43-1.66-2.68-3.8-4.76-7.04-6.22Zm-19.65,13.61c.13-2.37-.19-4.5-.65-6.62-.13-.6-.35-.9-.98-1.06-2.52-.65-5.07-1.19-7.58-1.89-2.63-.73-1.7,2.53-3.37,3.09-.45,.15-.55,1-.09,1.4,1.59,1.4,2.13,3.33,2.95,5.11,1.34,2.94,1.39,5.95-.02,8.9-.27,.57-.61,1.17-.13,1.6,1.06,.94,2.25,1.75,3.38,2.61,.49,.37,.93,.38,1.49,.04,2.21-1.31,3.49-3.47,4.1-5.59,.7-2.47,1.34-5.12,.89-7.59Zm35.74,40.78c-.17-1.78,.13-3.69-.99-5.37-.45-.68-.06-2.05-.95-2.08-.91-.04-.94,1.39-1.62,2-.12,.1-.1,.33-.17,.49-1.09,2.43-2.63,4.55-4.86,6.15-1.52,1.09-2.04,2.28-1.39,4.19,.82,2.39,.82,4.94,.44,7.48-.42,2.75-2.12,4.55-4.4,6.03-1.73,1.12-3.68,1.57-5.69,1.82-1.48,.18-1.16,1.36-1.31,2.15-.11,.59,.65,.51,1.13,.46,6.22-.64,11.33-3.24,14.85-8.19,3.21-4.51,4.91-9.57,4.96-15.14Zm-.9-18.08c0-4.35-.81-8.35-3.52-11.84-.3-.39-.54-.83-1.12-.76-.65,.09-.64,.66-.69,1.09-.36,3.49-1.9,6.58-3.68,9.57-.44,.75-.53,1.35-.19,2.13,1.25,2.82,1.52,5.79,1.18,8.78-.18,1.61-.65,3.18-2.19,4.25-1.6,1.12-2.57,2.49-1.1,4.37,.1,.13,.11,.33,.17,.5,.69,1.65,.94,1.63,2.38,.42,3.95-3.3,5.31-8.06,7.61-12.27,1.06-1.94,.89-4.22,1.13-6.25Zm-14.33-8.03c.83-.96,.84-2.02,.86-3.05,.05-2.77-.49-5.48-1.43-8.07-.56-1.56-1.23-3.24-2.35-4.44-3.78-4.04-8.94-5.32-14.35-5.95-1.49-.17-1.61,.44-1.1,1.45,1.68,3.33,3.51,6.65,6.45,9.1,4.14,3.45,8.15,7.02,11.92,10.96ZM126.52,182.98c3.28,.08,6.82-.15,10.3-.92,.43-.09,.91-.11,1.01-.59,.11-.51-.39-.6-.74-.83-1.39-.93-2.94-1.79-3.86-3.14-1.14-1.66-2.55-1.72-4.28-1.34-4.8,1.05-9.63,1.09-14.37-.17-3.12-.83-6.12-1.39-9.23-.1-.57,.24-1.5,.34-.62,1.03,1.85,1.48,3.61,3.15,5.98,3.91,5.04,1.61,10.24,2.18,15.81,2.15Zm108.76-10.5c1.8,.07,4.07-.24,6.13-1.09,5.25-2.16,8.61-6.26,11.53-10.74,.56-.87,.25-1.02-.62-.93-5.56,.55-10.9,1.88-15.94,4.21-3.46,1.59-6.38,3.99-9.62,5.91-.7,.42-.66,.85,.18,1.24,2.49,1.16,5.14,1.44,8.35,1.39Zm-17.71-82.45c-.29-.95,.86-2.15-.46-3.03-3.91-2.6-7.18-5.83-10.14-9.36-.56-.67-1.14-.72-1.93-.58-2.11,.38-4.23,.72-6.39,.64-.5-.02-1.22-.34-1.45,.34-.17,.52,.34,.99,.68,1.38,2.92,3.3,5.75,6.67,9.26,9.45,3.18,2.51,6.39,4.97,10.05,6.83,.31,.16,.58,.54,.95,.25,.33-.27,.14-.66,.03-.99-.51-1.58-.74-3.2-.6-4.92Zm45.56,71.16c-.19-1.64,.07-3.66-.67-5.57-.31-.81-.68-1.03-1.46-.44-1.51,1.15-3.12,2.15-4.38,3.65-1.73,2.07-3.23,4.3-4.94,6.36-1.1,1.33-2.16,2.76-3.69,3.8-.75,.51-2.06,1.12-1.81,2.17,.21,.9,1.45,1.1,2.42,1.31,.53,.11,1.04,.38,1.57,.44,7.48,.78,13.21-4.26,12.95-11.73Zm-24.78,19.19c2.52-.05,4.99-.41,7.44-.96,.33-.07,.81,.02,.8-.48,0-.38-.34-.57-.69-.72-1.85-.77-3.51-1.79-4.97-3.15-1.1-1.02-2.35-1.52-4.08-1.35-3.98,.37-7.96,.25-11.46-2.08-.61-.41-1.29-.27-1.92,.08-.58,.32-1.16,.6-1.81,.81-1.62,.52-1.73,1.1-.37,2.1,5.02,3.71,10.64,5.85,17.07,5.76Zm-26.1-112.07c-1.36,.13-2.59,.7-3.81,1.19-.61,.24-.18,.58,.25,.83,.98,.57,1.95,1.17,2.87,1.83,.65,.46,1.15,1.07,1.01,1.94-.12,.77-.72,.97-1.41,1.18-.87,.26-1.7,.65-2.55,.97-.66,.25-.64,.56-.19,1.01,2.82,2.83,5.51,5.78,8.82,8.16,1.04,.75,1.57,.48,2.3-.15,.84-.72,.4-1.37-.15-1.96-1.97-2.12-2.29-4.61-1.44-7.17,.38-1.15,.3-1.94-.62-2.6-1.74-1.24-2.71-3.09-4.11-4.59-.28-.3-.44-.72-.96-.62Zm39.97,51.05c-.32-2.11-.28-4.39-.96-6.59-.13-.42-.23-.81-.71-.9-.48-.09-.6,.4-.7,.65-.82,2.09-2.41,3.56-4.21,4.87-.5,.36-.38,.62-.04,.98,1.66,1.75,3.54,3.33,4.66,5.5,.17,.33,.45,.56,.87,.53,.61-.04,.57-.53,.62-.91,.17-1.33,.3-2.66,.46-4.13Zm-64.28,43.5c-4.64-2.48-9.84-3.31-13.75-2.17-.63,.18-1.78,.12-1.73,.98,.05,.87,1.14,.6,1.8,.71,2.23,.37,4.4,.95,6.42,1.93,.71,.34,1.36,.51,2.1,.27,1.67-.55,3.34-1.11,5.15-1.71Zm-45.79-.56c3.36,.01,6.26,.23,8.72,1.52,1.97,1.03,3.6,.99,5.43,.13,.35-.16,.99,.01,.97-.57-.02-.46-.51-.62-.92-.73-1.87-.49-3.73-1.17-5.64-1.38-2.72-.29-5.56-.85-8.56,1.04Zm-20.33,.18c-.85,.04-1.71,.04-2.56,.13-.43,.04-1.14-.22-1.2,.43-.06,.61,.62,.58,1.08,.68,2.37,.55,4.72,1.13,6.67,2.65,.39,.3,.82,.27,1.2,.08,.97-.46,1.93-.96,2.87-1.49,.24-.13,.5-.44,.51-.67,.01-.3-.39-.38-.68-.46-2.58-.74-5.17-1.36-7.89-1.35Zm109.44-92.66c-.23-1.96-.74-3.83-1.85-5.54-.32-.5-.48-1.3-1.2-1.01-.99,.39-2.27,.15-2.95,1.16-.12,.18-.05,.6,.1,.81,1.34,1.93,2.9,3.68,4.83,5.11,.23,.17,.42,.51,.74,.38,.41-.16,.36-.56,.33-.92Zm26.28,45.6c.64-1.89,.19-4.01,1.65-5.62,.24-.26-.1-.49-.32-.7-.72-.7-1.42-1.43-2.13-2.15-.3-.31-.64-.58-1.11-.39-.43,.17-.31,.59-.32,.91-.15,2.81-.01,5.56,2.24,7.95Zm2.14,35.6c0,.6-.03,1.07,.01,1.53,.04,.43-.22,1.08,.33,1.24,.69,.21,1.2-.45,1.73-.76,.47-.27,.19-.85-.2-1.19-.3-.26-.29-.62-.42-.94-.36-.85,.2-2.47-.99-2.41-.8,.04-.22,1.74-.46,2.53Zm-25.25-58.56c-.02-.76-1.3-1.71-2.31-1.77-.33-.02-.61,0-.65,.39-.05,.44,2.12,2.65,2.51,2.53,.63-.2,.33-.78,.45-1.15Zm2.23-.13c-.16,.11-.45,.21-.53,.38-.38,.92-.55,1.89-.56,2.88,0,.11,.31,.33,.39,.3,.83-.35,.79-1.24,1.24-1.84,.14-.19,.33-.37,.39-.58,.19-.68-.3-.92-.93-1.13Zm-1.53,41.02c.7-1.07,.83-2.01,.7-3-.06-.45-.34-.77-.86-.71-.45,.06-.56,.41-.55,.78,.01,.92-.11,1.87,.72,2.93Zm18.74-30.04c-1.3-.12-.8-1.82-2.01-1.6-.54,.1-.33,1.07-.14,1.57,.36,.94,1.07,.74,2.15,.03Zm-16.67,58.6c.52,0,1.22-.05,1.15-.39-.21-.93-1.38-.6-2.02-1.09-.28-.21-.69,.27-.67,.6,.06,1.05,1.11,.55,1.55,.88Z"/>
  <path class="cls-3" d="M288.87,38.17c-2.75,1.62-5.8,2.64-8.71,3.93-7.72,3.42-15.44,6.85-23.28,10.01-7.57,3.06-15.18,6.04-23.18,8.01-2.76,.68-5.45,1.66-8.14,2.61-1.23,.43-2.11,.25-2.4-.96-.33-1.36-1.9-2.66-.38-4.18,.16,0,.32,0,.48,.01,.72-.14,1.38-.37,2.06-.67,3.98-1.76,7.98-3.47,12-5.15,6.91-2.91,13.83-5.78,20.75-8.67,3.72-1.56,7.44-3.11,11.15-4.7,4.82-2.07,9.62-4.19,14.43-6.29,.19,.42,.57,.47,.98,.44,1.54,.9,2.19,2.69,3.92,3.48,.67,.3,.19,1.41,.32,2.14Z"/>
  <path class="cls-9" d="M180.88,20.06c-.92-.12-2.07-.71-1.14,1.15,.83,1.66,.9,3.66,1.68,5.35,1.61,3.49,2.46,7.22,3.9,10.77,1.42,3.51,2.77,7.08,4.23,10.58,2.29,5.47,4.93,10.81,7.87,15.99,.55,.97,.66,1.65-.43,2.4-1.42,.98-2.87,1.96-3.91,3.37-.58,.78-1.21,.6-1.69-.2-2.02-3.37-3.95-6.77-5.61-10.33-2.12-4.54-4.07-9.14-5.97-13.77-1.77-4.3-3.27-8.68-5.01-12.98-1.51-3.71-2.45-7.59-3.98-11.28-.43-1.03-.99-1.37-2.04-1.19,1.14-1.29,2.81-.86,4.15-.84,2.34,.04,4.7,.52,7.04,.06,1.06-.21,.98,.28,.93,.92Z"/>
  <path class="cls-9" d="M101.7,166.15c7.73-2.23,15.38-2.93,23.24,1.11-7.77,3.95-15.66,6.55-23.91,8.23-.01-1.82,0-3.65-.06-5.47-.05-1.35,.13-2.64,.72-3.87Z"/>
  <path class="cls-3" d="M232.85,51.95c6.58-3.39,13.57-5.92,20.36-8.86,6.81-2.94,13.62-5.87,20.44-8.79,2.21-.95,4.45-1.84,6.65-2.81,.78-.35,1.86-.46,1.9-1.63,.34-.42,.7-.3,.71,.14,.02,.69,.65,.93,.91,1.43-.04,.05-.09,.1-.13,.14-.85-.27-1.55,.16-2.26,.47-4.74,2.05-9.45,4.13-14.2,6.15-6.72,2.85-13.47,5.65-20.21,8.47-4.7,1.97-9.39,3.94-14.09,5.9-.03-.2-.05-.41-.08-.61Z"/>
  <path class="cls-9" d="M103.56,182.74c-.49,.04-.97,.08-1.46,.12-.25-.06-.5-.13-.75-.19-.4-2.06-.37-4.14-.36-6.23,2.44,.27,3.43,2.54,5.37,3.51,.58,.29,1.11,.69,1.66,1.04,.03,1.59-1.58,.81-2.24,1.42-.36,.04-.72,.08-1.07,.12-.42-.13-.81-.11-1.14,.21Z"/>
  <path class="cls-13" d="M219.66,101.01c-.3,1.26-1.16,2.38-.88,3.78,.15,.78,.14,1.51,.57,2.3,1.08,1.99,.82,4.2-.06,6.14-.42,.92-.03,2-.84,2.74,.71-4.12,.48-8.22-.09-12.33-.14-.99,.05-2.12,1.3-2.62Z"/>
  <path class="cls-13" d="M218.45,124.38c.77,1.57,.85,3.39,.96,4.97,.29,3.93,1.11,7.81,1.18,11.75-1.19-5.52-2.4-11.03-2.15-16.72Z"/>
  <path class="cls-13" d="M220.92,149.14c.27,1.04-.45,1.9-.63,2.86-.57,2.95-.07,5.81,.33,8.69,.07,.52,.16,.95-.57,1.01,.52-1.3,.08-2.6-.3-3.77-1.02-3.15,.13-5.94,1.17-8.79Z"/>
  <path class="cls-13" d="M135.94,183.54c2.29-.85,4.51-2.36,7.08-.7-2.49-.99-4.7,.6-7.08,.7Z"/>
  <path class="cls-13" d="M158.79,183.58c1.68-.53,3.35-1.06,5.15-.57-1.69,.4-3.39,.79-5.15,.57Z"/>
  <path class="cls-13" d="M219.58,182.84c1.88-.93,3.97-.77,5.97-1.1-1.89,.87-3.92,1.04-5.97,1.1Z"/>
  <path class="cls-13" d="M144.11,183.03c1.79-.37,3.5-.04,5.17,.57-1.77,.18-3.49-.06-5.17-.57Z"/>
  <path class="cls-13" d="M202.88,182.14c1.82-.15,3.63-.15,5.32,.67-1.83,.19-3.56-.34-5.32-.67Z"/>
  <path class="cls-13" d="M170.48,181.78c1.99,.44,4.15-.04,6.03,1.02-2.05-.11-4.1-.26-6.03-1.02Z"/>
  <path class="cls-13" d="M101.11,183.79c1.3-.24,2.59-.55,3.9-.09-1.3,.1-2.57,1.31-3.9,.09Z"/>
  <path class="cls-13" d="M254.6,179.92c1.56-.37,3.11-.87,4.75-.44-1.56,.34-3.12,.78-4.75,.44Z"/>
  <path class="cls-13" d="M165.05,182.86c1.5-.89,3.23-.88,4.89-1.11-1.57,.62-3.16,1.17-4.89,1.11Z"/>
  <path class="cls-13" d="M244.12,68.87c-1.11-1.11-1.44-2.52-1.64-3.97,1.38,1.01,1.16,2.62,1.64,3.97Z"/>
  <path class="cls-13" d="M117.96,183.71c1.44-.39,2.76-.03,4.07,.53-1.43,.33-2.74-.13-4.07-.53Z"/>
  <path class="cls-13" d="M221.36,145.1c1.29,.93,1.24,2.52-.11,3.25,.56-1.07,.1-2.16,.11-3.25Z"/>
  <path class="cls-5" d="M182.52,23.79c-1.41-.8-1.1-2.28-1.5-3.48,1.63,.71,1.61,2.08,1.5,3.48Z"/>
  <path class="cls-13" d="M201.59,160.59c-1.49,.29-2.69,1.47-4.33,1.26,1.39-.6,2.66-1.55,4.33-1.26Z"/>
  <path class="cls-13" d="M131.16,184.27c1.17-.54,2.35-1,3.69-.56-1.19,.42-2.37,.88-3.69,.56Z"/>
  <path class="cls-13" d="M249.81,71.3c-1.56-.42-3.11-.86-4.46-1.75,1.64,.22,3.12,.83,4.46,1.75Z"/>
  <path class="cls-13" d="M226.56,181.47c1.25-.89,2.51-1.72,4.13-.76-1.51-.38-2.7,.77-4.13,.76Z"/>
  <path class="cls-5" d="M168.78,21.01c1.35,.71,.89,2.14,1.38,3.19-1.66-.59-1.42-1.93-1.38-3.19Z"/>
  <path class="cls-13" d="M188.27,182.84c1.24-.59,2.56-.8,3.94-.63-1.26,.49-2.55,.85-3.94,.63Z"/>
  <path class="cls-13" d="M236.2,181.61c1.21-.38,2.42-.37,3.63,0-1.21,.29-2.42,.27-3.63,0Z"/>
  <path class="cls-13" d="M109.42,182.87c1.11-1.34,2.24-.94,3.37-.04-1.13-.25-2.25-.26-3.37,.04Z"/>
  <path class="cls-5" d="M171.18,28.11c1.18,.6,1.09,1.73,1.25,2.75-1.79-.35-1.1-1.72-1.25-2.75Z"/>
  <path class="cls-13" d="M195.99,181.2c1.4-1.27,2.5,.01,3.71,.38-1.28,.23-2.41-.84-3.71-.38Z"/>
  <path class="cls-13" d="M242.25,63.92c-.86-1.04-1.32-2.25-1.65-3.52,.94,1.01,1.47,2.19,1.65,3.52Z"/>
  <path class="cls-13" d="M210,159.65c-1.09,.39-2.17,.39-3.26,.02,1.09-.25,2.17-.27,3.26-.02Z"/>
  <path class="cls-13" d="M247.93,180.11c.89-.72,1.82-1.22,2.98-.51-1.05-.11-1.92,.71-2.98,.51Z"/>
  <path class="cls-5" d="M190.47,45.34c-1.11-.68-1.16-1.8-1.32-2.88,1.01,.72,1.56,1.64,1.32,2.88Z"/>
  <path class="cls-13" d="M204.88,159.89c-.89,.61-1.93,.65-2.97,.72,.89-.6,1.87-.88,2.97-.72Z"/>
  <path class="cls-13" d="M276.6,166.57c-.44-1.19-.21-2.08,1.21-2.44-.35,.84-1.12,1.49-1.21,2.44Z"/>
  <path class="cls-13" d="M196.79,161.93c-.95,.81-2.06,.4-3.12,.36,.99-.55,2.07-.33,3.12-.36Z"/>
  <path class="cls-13" d="M113.99,182.98c1.06-.24,2.02-.04,2.87,.61-1.04,.15-1.98-.14-2.87-.61Z"/>
  <path class="cls-13" d="M267.76,86.77c-.53-.61-1.34-1.05-1.44-1.95,1.11,.23,1.18,1.15,1.44,1.95Z"/>
  <path class="cls-13" d="M281.95,159.38c.09-.95,.83-1.44,1.52-1.97-.17,.9-.61,1.6-1.52,1.97Z"/>
  <path class="cls-5" d="M173.96,35.73c1.13,.23,.81,1.13,.93,1.83-1.48-.07-.84-1.12-.93-1.83Z"/>
  <path class="cls-5" d="M193.05,51.3c-.91-.3-.92-1.08-1.06-1.79,1.52-.03,1.03,1.02,1.06,1.79Z"/>
  <path class="cls-13" d="M242.44,181.37c.66-.44,1.33-.85,2.19-.47-.67,.42-1.38,.65-2.19,.47Z"/>
  <path class="cls-5" d="M185.29,32.04c-.91-.35-.78-1.19-.97-1.88,1.54,.06,.95,1.12,.97,1.88Z"/>
  <path class="cls-13" d="M106.48,183.57c.64-.55,1.33-.96,2.23-.53-.73,.23-1.41,.63-2.23,.53Z"/>
  <path class="cls-13" d="M192.69,182.12c.55-.68,1.3-.72,2.1-.59-.65,.36-1.25,.87-2.1,.59Z"/>
  <path class="cls-13" d="M193.09,162.34c-.57,.54-1.19,.47-1.83,.13,.59-.24,1.2-.31,1.83-.13Z"/>
  <path class="cls-13" d="M252.13,72.3c-.78,.04-1.39-.31-1.94-.78,.8-.08,1.41,.24,1.94,.78Z"/>
  <path class="cls-13" d="M275.71,169.24c-.1-.77,.09-1.45,.71-1.98,.05,.75-.32,1.37-.71,1.98Z"/>
  <path class="cls-5" d="M187.85,38.77c-.91-.15-.69-.93-.91-1.47,1.34-.1,.93,.8,.91,1.47Z"/>
  <path class="cls-5" d="M176.56,42.45c.9-.06,.66,.6,.72,1.06-.56-.16-1.51-.07-.72-1.06Z"/>
  <path class="cls-13" d="M279.61,162.2c-.06-.73,.44-.87,1.04-.91-.07,.6-.5,.81-1.04,.91Z"/>
  <path class="cls-10" d="M284.63,32.56c-.42,.04-.79-.02-.98-.44,.02-.18,.03-.36,.05-.54,.05-.05,.09-.09,.13-.14,.45,.25,.67,.66,.8,1.12Z"/>
  <path class="cls-13" d="M260.85,179.17c.42-.66,1.04-.67,1.72-.47-.5,.4-1.1,.44-1.72,.47Z"/>
  <path class="cls-13" d="M213.77,160.23c-.7,.16-1.28-.14-1.87-.43,.7-.18,1.33-.02,1.87,.43Z"/>
  <path class="cls-13" d="M274.43,170.9c0-.5,.18-.83,.78-.8,.13,.61-.27,.75-.78,.8Z"/>
  <path class="cls-13" d="M201.11,181.75c.45-.09,.88-.12,1.18,.32-.48,.18-.87,.08-1.18-.32Z"/>
  <path class="cls-13" d="M220.74,141.99c.52,.46,.35,1.01,.24,1.55-.27-.49-.4-1-.24-1.55Z"/>
  <path class="cls-10" d="M280.75,29.8c-.23,.42-.59,.57-1.07,.42,.09-.76,.45-.89,1.07-.42Z"/>
  <path class="cls-5" d="M172.87,32.26c.29,.3,.34,.67,.32,1.06-.84-.15-.97-.5-.32-1.06Z"/>
  <path class="cls-13" d="M245.79,180.73c.34-.28,.71-.49,1.18-.36-.29,.42-.69,.54-1.18,.36Z"/>
  <path class="cls-13" d="M261.94,79.05c-.55,.03-.94-.17-1.08-.71,.34,.27,.93,.18,1.08,.71Z"/>
  <path class="cls-13" d="M264.51,81.86c-.42,.05-.7-.1-.77-.53,.31,.1,.77,0,.77,.53Z"/>
  <path class="cls-13" d="M278.53,163.4c0-.4,.2-.64,.63-.7,0,.4-.3,.57-.63,.7Z"/>
  <path class="cls-5" d="M183.1,25.95c-.33-.15-.34-.42-.28-.71,.53,.08,.86,.24,.28,.71Z"/>
  <path class="cls-13" d="M283.72,156.78c-.06-.37,.07-.64,.46-.77,.09,.39-.15,.6-.46,.77Z"/>
  <path class="cls-13" d="M259.45,76.9c-.38,.04-.73,0-.84-.43,.34,.04,.76-.06,.84,.43Z"/>
  <path class="cls-13" d="M216.08,96.74c.42-.1,.8-.12,.98,.36-.36-.04-.77,.06-.98-.36Z"/>
  <path class="cls-13" d="M213.56,95.29c.41-.09,.78-.09,.93,.38-.36-.02-.75,.03-.93-.38Z"/>
  <path class="cls-13" d="M256.51,74.78c-.37,.05-.71,.03-.85-.39,.35,0,.74-.08,.85,.39Z"/>
  <path class="cls-13" d="M218.68,98.13c.45-.1,.84-.08,.98,.44-.35-.1-.8-.01-.98-.44Z"/>
  <path class="cls-13" d="M255.3,74.13c-.38,.01-.65-.13-.74-.51,.39-.02,.62,.17,.74,.51Z"/>
  <path class="cls-13" d="M251.84,179.7c.32-.13,.63-.16,.88,.14-.35,.3-.63,.14-.88-.14Z"/>
  <path class="cls-13" d="M217.74,161.68c-.42,.05-.72-.06-.76-.52,.46-.1,.56,.28,.76,.52Z"/>
  <path class="cls-13" d="M231.42,180.88c.34-.29,.56-.15,.72,.18-.29,.13-.53,.06-.72-.18Z"/>
  <path class="cls-13" d="M232.68,181.11c.37-.11,.69-.07,.92,.26-.39,.18-.69,.08-.92-.26Z"/>
  <path class="cls-5" d="M186.57,35.73c-.35-.25-.49-.59-.44-1,.66,.13,.73,.49,.44,1Z"/>
  <path class="cls-13" d="M219.75,98.68c.47,.1,.66,.37,.55,.82-.18-.27-.36-.55-.55-.82Z"/>
  <path class="cls-5" d="M188.32,40c-.32-.14-.39-.39-.32-.7,.48,.08,.84,.2,.32,.7Z"/>
  <path class="cls-13" d="M101.34,182.67c.25,.06,.5,.13,.75,.19-.26,.32-.63,.27-.98,.28,.08-.16,.15-.32,.23-.47Z"/>
  <path class="cls-13" d="M209.49,182.87c.17,.01,.34,.02,.51,.03-.17-.01-.34-.02-.51-.03Z"/>
  <path class="cls-12" d="M177.84,182.9c.19-.12,.37-.11,.53,.05-.19,.13-.37,.1-.53-.05Z"/>
  <path class="cls-5" d="M175.43,39.25c.06,.08,.14,.15,.18,.24,.02,.03-.04,.09-.06,.14-.04-.13-.08-.25-.12-.38Z"/>
  <path class="cls-5" d="M176.16,41.37c.06,.08,.12,.15,.17,.23,.01,.03-.05,.08-.07,.13-.03-.12-.06-.24-.09-.36Z"/>
  <path class="cls-13" d="M263.43,178.42c.13-.07,.27-.14,.4-.21-.07,.18-.18,.29-.4,.21Z"/>
  <path class="cls-13" d="M278.17,163.76c.12-.11,.23-.23,.35-.34,0,.21-.12,.33-.35,.34Z"/>
  <path class="cls-13" d="M263.4,80.81c-.11-.13-.21-.26-.32-.38,.11,.13,.21,.26,.32,.38Z"/>
  <path class="cls-13" d="M218.05,97.71c.15,.11,.3,.22,.44,.33-.25,.02-.38-.12-.44-.33Z"/>
  <path class="cls-13" d="M220.29,100.05c.06,.21,0,.37-.22,.46,.07-.15,.14-.31,.22-.46Z"/>
  <path class="cls-6" d="M252.11,153.4c-1.11-3.34-3.72-5.74-4.62-9.06-.94-3.42-3.37-6.1-5.49-8.89-3.05-4.02-6.36-7.85-9.82-11.57-2.56-2.75-5-5.65-7.27-8.67-1.71-2.28-2.99-4.7-4.16-7.22-.74-1.61-.48-3.34-.43-5.03,.02-.61,.33-1.22,.91-1.42,.56-.19,.96,.31,1.35,.71,2.8,2.87,6.21,5.03,9.45,7.38,3.63,2.64,7.31,5.18,10.65,8.18,2.63,2.36,5.26,4.71,6.96,7.74,2.05,3.66,3.16,7.7,3.41,11.82,.28,4.59,.72,9.23-.42,13.8-.16,.65,.24,1.39-.51,2.23Z"/>
  <path class="cls-6" d="M233.62,144.66c.09,4.84-.33,8.94,.74,12.99,.22,.82,.67,2.02-.42,2.54-1.02,.49-2.12,.08-3.06-.64-3.04-2.33-4.76-5.43-6.12-8.86-1.49-3.73-1.8-7.67-2.76-11.48-2.07-8.17-1.82-16.43-1.69-24.71,0-.57-.13-1.34,.45-1.61,.81-.38,.88,.64,1.22,.98,1.19,1.22,1.98,2.73,3.14,4.01,2.56,2.85,4.85,5.93,7.52,8.7,.29,.3,.33,.62,.32,.96-.18,5.97,1.42,11.88,.65,17.12Z"/>
  <path class="cls-6" d="M263.33,94.56c0,2.16-.45,2.56-2.17,1.92-3.79-1.43-7.84-1.78-11.79-2.41-3.4-.54-6.67-1.4-9.92-2.38-4.23-1.28-8.47-2.55-12.48-4.41-2.96-1.37-5.65-2.97-7.04-5.99-.17-.37-.34-.76-.37-1.16-.11-1.27-.69-2.91,.34-3.65,.69-.49,2.04,.79,3.06,1.35,3.31,1.8,6.96,2.72,10.61,3.58,4.74,1.11,9.69,1.16,14.4,2.3,4.86,1.17,9.76,2.45,13.35,6.33,1.34,1.44,1.58,3.06,2,4.51Z"/>
  <path class="cls-9" d="M210.5,57.85c-.14-4.86,3.93-9.28,9.25-10.12,3.55-.56,7.07-.51,10.43,.99,.78,.35,1.79,.75,1.77,1.58-.02,.79-1.16,.95-1.86,1.16-.78,.24-1.42,.67-2.15,.96-1.55,.61-2.97,1.38-4.86,.72-1.64-.57-2.87,.41-3,2.13-.2,2.67,.31,5.18,1.96,7.45,.96,1.32,1.63,2.8,2.62,4.14,2.14,2.9,5.22,4.84,7.65,7.42,1.34,1.42,1.82,3.09,2.26,4.83,.2,.78-.33,.95-.96,.8-4.62-1.1-9.19-2.34-12.94-5.35-4.31-3.46-7.54-7.58-9.28-12.81-.47-1.4-.76-2.74-.89-3.9Z"/>
  <path class="cls-2" d="M260.73,139.72c-.5-2.77,.84-4.97,2.37-7.11,.7-.98,1.2-1.01,1.98,.11,2.56,3.7,5.23,7.37,7.1,11.39,2.01,4.32,3.17,8.94,1.81,13.83-.93,3.32-5.47,5.1-7.95,5.18-.84,.03-1.06-.37-1.02-1.08,.33-5.54-2.2-10.56-3.21-15.86-.41-2.16-.81-4.31-1.08-6.47Z"/>
  <path class="cls-6" d="M219.51,90.82c-.08-1.34,.11-2.7,.73-4.02,.49-1.04,1.13-1.16,1.99-.52,1.56,1.17,3.28,2.07,5.15,2.61,1.76,.51,2.19,2,3.03,3.19,1.43,2.02,3.3,3.69,4.81,5.62,3.05,3.91,5.38,8.02,3.68,13.2-.43,1.32-1.05,1.1-1.81,.55-4.45-3.23-9.32-6.01-13.19-9.85-2.87-2.84-4.55-6.53-4.38-10.78Z"/>
  <path class="cls-2" d="M259.56,117.9c-.43-1.81,.12-3.72,.32-5.63,.17-1.55,.9-1.85,1.96-.79,2.1,2.1,4.41,3.98,6.41,6.19,3.15,3.47,5.25,7.42,6.82,11.72,1.09,2.99,.22,7.34-2.22,9.4-.84,.71-1.42,.75-2.16-.33-3.06-4.49-6.33-8.85-9.34-13.37-1.4-2.09-1.89-4.54-1.79-7.19Z"/>
  <path class="cls-9" d="M227.25,179.87c-2.98,1.14-5.97,1.62-9.04,1.74-7.81,.32-15.55-.03-22.96-2.72-2.48-.9-4.35-2.69-6.09-4.57-.76-.83-.57-1.34,.47-1.64,1.4-.41,2.83-.73,4.2-1.2,.74-.25,1.35-.03,1.92,.25,5.39,2.67,11.17,2.74,17.02,2.44,.37-.02,.74-.05,1.09-.14,2.84-.7,5.04,.02,7.06,2.17,1.61,1.71,4.1,2.44,6.32,3.67Z"/>
  <path class="cls-9" d="M112.3,174.07c2.24-.88,4.1-1.66,5.99-2.35,4.22-1.54,8.25-3.46,12.16-5.59,6.57-3.59,13.32-3.19,20.19-1.12,.33,.1,.75,.23,.8,.63,.04,.34-.29,.47-.57,.59-6.9,3.03-13.47,6.82-20.97,8.49-5.76,1.28-11.49,1.24-17.62-.65Z"/>
  <path class="cls-6" d="M267.99,94.12c-.05,1.22,.17,2.47-.33,3.64-.23,.54-.09,1.55-1.02,1.4-.82-.13-1.53-.73-1.73-1.63-.04-.17,0-.35,.01-.53,.75-6.5-3.5-9.77-8.85-12.17-3.6-1.61-7.45-2.52-11.41-3.01-2.56-.32-2.45-.42-1.37-2.66,.86-1.8,1.06-3.8,1-5.83-.1-3-.06-2.92,2.79-1.76,4.23,1.72,8.17,3.78,11.66,6.72,3.01,2.53,5.33,5.47,7.39,8.72,1.42,2.24,2.09,4.54,1.87,7.11Z"/>
  <path class="cls-9" d="M196.76,170.57c12.11-5.07,24.18-9.7,37.84-7.83-.92,1.53-2.68,1.85-3.98,2.74-2.2,1.51-4.48,2.93-6.77,4.31-2.84,1.71-5.87,2.51-9.07,2.89-5.58,.67-11.12,.5-16.51-1.25-.52-.17-1.05-.32-1.51-.86Z"/>
  <path class="cls-9" d="M140.09,172.63c3.64-1.28,7.03-2.97,10.33-4.74,5.38-2.88,11.12-4.05,17.15-4.51,3.61-.27,7.09,.17,10.49,1.29,.45,.15,1.07,.21,1.09,.78,.03,.64-.66,.59-1.08,.74-7.55,2.83-15.01,5.93-23.09,7.24-4.82,.79-9.63,.71-14.41-.31-.14-.03-.24-.24-.49-.51Z"/>
  <path class="cls-6" d="M235.28,147.41c.28-4.47,.19-9.1,1.25-13.64,.12-.49,0-1.12,.68-1.31,.69-.19,.91,.36,1.25,.78,2.9,3.65,5.71,7.34,7.72,11.52,.53,1.1,.75,2.3,.02,3.36-.79,1.14-1.29,2.33-1.6,3.66-.55,2.33-1.82,4.42-2.71,6.64-.41,1.02-1.17,1.99-2.43,1.78-1.26-.21-2.52-.58-3.04-2.09-1.19-3.46-1.15-7.01-1.14-10.72Z"/>
  <path class="cls-2" d="M269.53,89.45c3.24,1.46,5.38,3.54,7.04,6.22,3.02,4.89,2.8,10.05,2.03,15.43-.48,3.36-1.92,6.36-2.82,9.55-.16,.55-.46,1.09-.8,1.57-.18,.25-.6,.47-.92,.48-.6,.03-2.4-3.72-2.02-4.17,.49-.58,.6-1.26,.69-1.96,.68-5.35-.81-10.2-3.76-14.7-.86-1.31-.3-2.69,.21-3.7,1.31-2.57,.92-5.08,.5-7.67-.04-.22-.06-.45-.14-1.05Z"/>
  <path class="cls-6" d="M249.87,103.06c.45,2.47-.19,5.12-.89,7.59-.61,2.13-1.89,4.28-4.1,5.59-.56,.34-1.01,.33-1.49-.04-1.13-.86-2.33-1.67-3.38-2.61-.48-.43-.14-1.03,.13-1.6,1.41-2.95,1.36-5.96,.02-8.9-.81-1.78-1.36-3.71-2.95-5.11-.46-.4-.36-1.25,.09-1.4,1.67-.56,.74-3.82,3.37-3.09,2.51,.7,5.06,1.23,7.58,1.89,.63,.16,.85,.46,.98,1.06,.45,2.12,.78,4.25,.65,6.62Z"/>
  <path class="cls-2" d="M285.61,143.85c-.05,5.56-1.75,10.63-4.96,15.14-3.53,4.95-8.64,7.55-14.85,8.19-.48,.05-1.25,.13-1.13-.46,.15-.79-.17-1.97,1.31-2.15,2.01-.25,3.96-.7,5.69-1.82,2.29-1.48,3.98-3.28,4.4-6.03,.39-2.54,.38-5.09-.44-7.48-.66-1.92-.13-3.1,1.39-4.19,2.23-1.61,3.76-3.72,4.86-6.15,.07-.16,.06-.39,.17-.49,.68-.61,.71-2.04,1.62-2,.9,.04,.5,1.41,.95,2.08,1.12,1.68,.82,3.59,.99,5.37Z"/>
  <path class="cls-9" d="M191.89,181.31c-2.51,.55-5.1,.11-7.63,.53-.76-.17-1.51-.21-2.26,.01-.85-.03-1.7-.06-2.54-.09-.13,0-.25,0-.38-.01-3.17-.28-6.3-.69-9.38-1.57-2.73-.78-5.21-1.97-7.37-3.67-2.94-2.31-2.84-2.32,.72-3.58,1.79-.63,3.26-.57,5.01,.34,2.91,1.52,6.2,1.73,9.47,1.56,2.32-.12,4.67-.15,6.9-.89,1.82-.6,2.97,.13,3.94,1.52,1.14,1.62,2.77,2.74,4.5,3.73,.45,.26,1.19,.38,1.17,.99-.02,.7-.9,.43-1.3,.76-.51-.36-.63,.13-.86,.37Z"/>
  <path class="cls-9" d="M199.75,163.53c1.66,.38,3.33,.75,4.98,1.15,.39,.1,.9,.19,.85,.75-.04,.43-.48,.48-.81,.6-8.15,2.98-16.19,6.31-24.94,7.42-3.7,.47-7.34,.17-10.85-1.15-.38-.14-.89-.21-.85-.76,.02-.36,.39-.4,.67-.5,5.47-1.98,10.94-3.98,16.42-5.94,4.44-1.58,9.08-1.8,13.75-1.7,.23,.23,.48,.28,.78,.12Z"/>
  <path class="cls-2" d="M284.71,125.76c-.24,2.03-.07,4.31-1.13,6.25-2.3,4.21-3.67,8.97-7.61,12.27-1.44,1.21-1.69,1.23-2.38-.42-.07-.16-.07-.36-.17-.5-1.47-1.88-.51-3.25,1.1-4.37,1.55-1.08,2.01-2.64,2.19-4.25,.34-3,.07-5.97-1.18-8.78-.34-.78-.26-1.38,.19-2.13,1.78-2.99,3.31-6.07,3.68-9.57,.05-.44,.04-1.01,.69-1.09,.58-.08,.81,.37,1.12,.76,2.71,3.49,3.52,7.49,3.52,11.84Z"/>
  <path class="cls-9" d="M144.79,181.96c-2.7-.65-5.51-1.02-7.67-2.96-1.06-.95-2.18-1.83-3.27-2.74-.85-.71-.31-1.2,.38-1.39,2-.56,3.83-1.33,6.16-.59,5.11,1.62,10.41,1.27,15.63,.31,1.19-.22,2.07,.08,2.78,.8,2.21,2.23,4.8,3.89,7.78,5.05,.29,.11,.43,.4,.41,.81-.99,.17-1.99,.35-3,.53-2.46,.22-4.92,.45-7.38,.67-1.48,0-2.95,.02-4.43,.03-2.47-.17-4.93-.34-7.4-.5Z"/>
  <path class="cls-2" d="M270.37,117.73c-3.77-3.94-7.78-7.51-11.92-10.96-2.94-2.45-4.77-5.76-6.45-9.1-.51-1.02-.39-1.62,1.1-1.45,5.41,.63,10.57,1.9,14.35,5.95,1.12,1.2,1.78,2.88,2.35,4.44,.94,2.6,1.48,5.3,1.43,8.07-.02,1.03-.03,2.09-.86,3.05Z"/>
  <path class="cls-9" d="M126.52,182.98c-5.57,.04-10.77-.54-15.81-2.15-2.37-.76-4.12-2.43-5.98-3.91-.88-.7,.05-.8,.62-1.03,3.11-1.28,6.11-.73,9.23,.1,4.73,1.26,9.57,1.22,14.37,.17,1.73-.38,3.14-.32,4.28,1.34,.92,1.35,2.47,2.21,3.86,3.14,.35,.23,.85,.32,.74,.83-.1,.48-.58,.5-1.01,.59-3.49,.77-7.02,1-10.3,.92Z"/>
  <path class="cls-9" d="M235.28,172.49c-3.21,.05-5.85-.23-8.35-1.39-.84-.39-.88-.82-.18-1.24,3.24-1.92,6.17-4.32,9.62-5.91,5.04-2.32,10.38-3.66,15.94-4.21,.87-.09,1.19,.06,.62,.93-2.93,4.49-6.29,8.58-11.53,10.74-2.07,.85-4.34,1.16-6.13,1.09Z"/>
  <path class="cls-1" d="M263.56,168.79c4.03-.27,7.88-1.37,11.7-2.66-1.37,4.38-4.27,7.39-8.17,9.4-4.71,2.44-9.83,3.48-15.23,3-3.53-.31-6.44-1.98-9.22-3.9-.5-.35-1.6-.86-.94-1.6,.71-.8,1.91-1.51,3.05-.78,3.74,2.41,7.69,2.44,11.73,1.03,1.75-.61,3.54-1.31,4.75-2.81,.73-.06,1.13-.5,1.38-1.1,.14-.13,.29-.26,.43-.39,.16-.07,.33-.14,.49-.22Z"/>
  <path class="cls-9" d="M217.57,90.04c-.14,1.72,.08,3.34,.6,4.92,.1,.32,.3,.72-.03,.99-.37,.29-.64-.09-.95-.25-3.66-1.86-6.87-4.32-10.05-6.83-3.51-2.78-6.35-6.15-9.26-9.45-.34-.38-.85-.85-.68-1.38,.22-.68,.95-.36,1.45-.34,2.17,.08,4.28-.26,6.39-.64,.79-.14,1.37-.09,1.93,.58,2.96,3.53,6.23,6.76,10.14,9.36,1.32,.88,.17,2.08,.46,3.03Z"/>
  <path class="cls-1" d="M263.15,161.26c.2,7.47-5.56,12.47-13.04,11.63-.53-.06-1.04-.33-1.56-.45-.97-.22-2.2-.43-2.41-1.33-.24-1.06,1.08-1.66,1.83-2.16,1.54-1.03,2.61-2.46,3.72-3.78,1.72-2.05,3.23-4.27,4.98-6.32,1.27-1.49,2.88-2.47,4.4-3.62,.79-.59,1.15-.36,1.45,.45,.73,1.92,.45,3.94,.63,5.58Z"/>
  <path class="cls-9" d="M240.9,64.02c1.61,4.8,2.14,9.64,.7,14.57-.68,2.35-2.38,3.09-4.57,1.98-.38-.19-.49-.48-.53-.85-.24-2.46-1.64-4.44-2.98-6.43-.3-.45-.7-.88-.62-1.42,.48-2.99-1.12-5.52-1.97-8.2-.29-.92-.17-1.25,.76-1.49,1.77-.46,3.57-.87,5.26-1.53,1.51-.6,2.31-.24,2.75,1.17-.02,.05-.07,.11-.06,.14,.05,.09,.12,.16,.18,.24,0,0,0,0,0,0-.06,.57,.22,.88,.81,.94,0,0,.03,.08,.03,.08-.11,.32,0,.58,.24,.8Z"/>
  <path class="cls-3" d="M210.65,64.41c.04,.36,.29,.58,.52,.86,.71,.84,1.26,1.67-.57,2.02-1.05,.2-2.09,.67-3.03,1.2-1.54,.87-1.53,1.81-.11,2.85,.82,.6,1.87,.83,2.6,1.6,.63,.67,.66,1.1-.28,1.4-5.16,1.64-10.38,2.82-15.82,1.26-1.72-.49-1.96-1.37-1.06-2.88,2.79-4.69,7.5-7.03,12.31-9.25,.01,.27,.03,.55,.04,.82-1.53,.89-3.12,1.69-4.56,2.7-1.65,1.15-3.46,2.18-4.36,4.07-.44,.91-.82,1.9,.28,2.67,1.41,.99,5.26,.9,6.86-.19-1.39-.76-2.8,.03-4.15-.16-.83-.12-1.87,.13-2.19-.87-.31-.96,.46-1.57,1.14-2.2,2.49-2.32,5.56-3.82,8.45-5.59l.77-.37,.46-.33c.32-.09,.63-.17,.95-.26,.2,.06,.32,0,.37-.2,.49-.14,.93-.14,1.21,.35,.05,.16,.1,.33,.15,.49Z"/>
  <path class="cls-9" d="M238.34,180.39c-6.43,.09-12.05-2.05-17.07-5.76-1.35-1-1.24-1.58,.37-2.1,.65-.21,1.23-.49,1.81-.81,.62-.34,1.31-.48,1.92-.08,3.5,2.33,7.47,2.45,11.46,2.08,1.73-.16,2.99,.33,4.08,1.35,1.46,1.36,3.12,2.38,4.97,3.15,.36,.15,.69,.34,.69,.72,.01,.5-.47,.41-.8,.48-2.45,.55-4.92,.91-7.44,.96Z"/>
  <path class="cls-4" d="M248.6,150.32c1.27,2.28,2.26,4.66,2.97,7.15,.2,.71-.13,.97-.78,1.07-1.75,.26-3.52,.38-5.24,.84-1.08,.29-1.19-.53-1.27-1.25-.07-.64-.16-1.29,.34-1.84,.24-.18,.41-.4,.3-.71,.05-.23,.11-.45,.16-.68,.35-.18,.31-.49,.26-.8,0-.08,.03-.15,.1-.19,1.1-.25,.99-1.3,1.31-1.99,.4-.85,.84-1.46,1.84-1.6Z"/>
  <path class="cls-6" d="M252.21,119.37c-.16,1.47-.3,2.81-.46,4.13-.05,.38,0,.87-.62,.91-.42,.03-.7-.2-.87-.53-1.12-2.17-3-3.75-4.66-5.5-.34-.36-.46-.62,.04-.98,1.8-1.3,3.39-2.78,4.21-4.87,.1-.26,.22-.74,.7-.65,.48,.09,.58,.47,.71,.9,.69,2.2,.65,4.48,.96,6.59Z"/>
  <path class="cls-9" d="M187.92,162.87c-1.81,.6-3.48,1.16-5.15,1.71-.74,.24-1.4,.07-2.1-.27-2.02-.98-4.19-1.56-6.42-1.93-.66-.11-1.75,.16-1.8-.71-.05-.86,1.1-.79,1.73-.98,3.92-1.14,9.11-.31,13.75,2.17Z"/>
  <path class="cls-9" d="M208.95,160.82c2.29,.3,4.67,.19,6.94,1.45-2.5,.81-4.84,1.58-7.2,2.29-.36,.11-.89,.01-1.23-.17-2.33-1.26-4.94-1.58-7.47-2.17,2.5-.9,5.14-1.16,7.79-1.39,.39,.14,.78,.14,1.17,0Z"/>
  <path class="cls-2" d="M258.39,125.17c.27-.29,.08-.9,.64-.95,.45-.03,.55,.4,.67,.72,.61,1.66,1.84,2.95,2.86,4.36,.42,.57,.59,1.11,.07,1.74-.89,1.07-2.01,1.95-2.46,3.35-.25,.78-.8,.14-1.13-.07-.57-.37-.28-1.09-.58-1.6-.02-.51-.12-.98-.49-1.37,.01-1.98-.25-3.96,.33-5.91,.1-.07,.13-.17,.09-.28Z"/>
  <path class="cls-9" d="M142.14,162.31c3-1.89,5.84-1.32,8.56-1.04,1.91,.2,3.76,.89,5.64,1.38,.41,.11,.9,.28,.92,.73,.02,.58-.62,.41-.97,.57-1.83,.86-3.46,.91-5.43-.13-2.46-1.29-5.36-1.5-8.72-1.52Z"/>
  <path class="cls-9" d="M121.81,162.5c2.72,0,5.32,.61,7.89,1.35,.29,.08,.69,.16,.68,.46,0,.23-.27,.54-.51,.67-.94,.53-1.9,1.02-2.87,1.49-.38,.18-.81,.22-1.2-.08-1.94-1.52-4.3-2.1-6.67-2.65-.46-.11-1.14-.07-1.08-.68,.06-.65,.77-.38,1.2-.43,.85-.08,1.71-.09,2.56-.13Z"/>
  <path class="cls-4" d="M225.97,160.96c-.42,.03-.84,.06-1.26,.08-1.23-.02-2.43-.19-2.48-1.68-.07-2.19-.02-4.38-.02-6.56,.28,.73,1.32,.42,1.51,1.17,.59,2.4,1.87,4.29,4.42,5.17,0,0,.02,.02,.02,.02-.02,.21,.07,.33,.3,.32,0,0,.11,.11,.11,.11,.07,.07,.14,.14,.22,.21,0,0,.12,.12,.12,.12-.52,1.51-2.17,.14-2.93,1.05Z"/>
  <path class="cls-4" d="M228.14,159.13c-2.55-.88-3.84-2.78-4.42-5.17-.18-.75-1.23-.44-1.51-1.17,0,2.19-.05,4.38,.02,6.56,.05,1.49,1.25,1.67,2.48,1.68-1.77,.77-2.77,0-3.2-1.58-.78-2.83-.7-5.67,.08-8.49,.12-.43,.44-.77,.81-.88,.4-.11,.64,.32,.74,.64,.99,3.17,2.9,5.84,5,8.4Z"/>
  <path class="cls-2" d="M257.53,115.43c-2.25-2.39-2.39-5.14-2.24-7.95,.02-.32-.1-.74,.32-.91,.47-.19,.81,.08,1.11,.39,.71,.72,1.41,1.45,2.13,2.15,.22,.21,.56,.44,.32,.7-1.45,1.61-1.01,3.73-1.65,5.62Z"/>
  <path class="cls-3" d="M232.85,51.95c.03,.2,.05,.41,.08,.61-2.89,1.24-5.78,2.5-8.68,3.72-.64,.27-1.3,.43-.99,1.32-.16,0-.32,0-.48-.01-.58-.08-1.4,.12-1.56-.58-.16-.68,.75-.72,1.15-.88,3.47-1.44,6.98-2.79,10.48-4.17Z"/>
  <path class="cls-2" d="M259.67,151.03c.24-.79-.34-2.49,.46-2.53,1.2-.06,.64,1.56,.99,2.41,.13,.32,.12,.67,.42,.94,.39,.34,.66,.92,.2,1.19-.53,.31-1.04,.97-1.73,.76-.55-.16-.29-.81-.33-1.24-.04-.46-.01-.93-.01-1.53Z"/>
  <path class="cls-4" d="M248.6,150.32c-1,.14-1.45,.75-1.84,1.6-.32,.69-.22,1.74-1.31,1.99,.5-1.39,1.01-2.77,1.51-4.16,.13-.35,.35-.66,.77-.53,.53,.16,1,.44,.87,1.1Z"/>
  <path class="cls-9" d="M234.42,92.47c-.13,.37,.18,.95-.45,1.15-.39,.12-2.56-2.1-2.51-2.53,.04-.38,.32-.4,.65-.39,1.01,.05,2.29,1,2.31,1.77Z"/>
  <path class="cls-3" d="M205.26,64.3c-.01-.27-.03-.55-.04-.82,1.12-.53,2.23-1.09,3.36-1.58,.32-.14,.87-.43,1.01,.2,.1,.47-.27,.75-.76,.78-.67,.04-1.1,.42-1.49,.88,0,0,.02,.04,.02,.04-.22,.04-.44,.07-.66,.11-.48,.13-.96,.25-1.45,.38Z"/>
  <path class="cls-9" d="M236.65,92.34c.62,.21,1.11,.45,.93,1.13-.06,.21-.25,.39-.39,.58-.44,.6-.41,1.49-1.24,1.84-.07,.03-.39-.2-.39-.3,.01-.99,.18-1.96,.56-2.88,.07-.18,.36-.27,.53-.38Z"/>
  <path class="cls-13" d="M144.79,181.96c2.47,.17,4.93,.34,7.4,.5-2.5,.31-4.97,.19-7.4-.5Z"/>
  <path class="cls-13" d="M156.61,182.43c2.46-.22,4.92-.45,7.38-.67-.14,.18-.27,.5-.42,.5-2.32,.08-4.64,.12-6.97,.17Z"/>
  <path class="cls-2" d="M253.86,103.32c-1.08,.71-1.79,.91-2.15-.03-.19-.5-.39-1.48,.14-1.57,1.21-.22,.7,1.48,2.01,1.6Z"/>
  <path class="cls-7" d="M225.97,160.96c.76-.9,2.41,.46,2.93-1.05,.81,.58,.77,1.03-.28,1.12-.88,.07-1.78,.21-2.65-.07Z"/>
  <path class="cls-13" d="M105.77,182.41c.66-.6,2.27,.18,2.24-1.42,.53,0,.79,.24,.71,.76-.07,.41-.35,.6-.76,.61-.73,.02-1.46,.03-2.19,.04Z"/>
  <path class="cls-13" d="M182,181.85c.75-.23,1.51-.18,2.26-.01-.75,.84-1.5,.81-2.26,.01Z"/>
  <path class="cls-13" d="M262.64,169.39c-.26,.6-.65,1.04-1.38,1.1-.1-1.01,.64-1.06,1.38-1.1Z"/>
  <path class="cls-13" d="M259.41,138.05c-.68-.22-.88-.7-.81-1.33,.93,.08,.83,.73,.81,1.33Z"/>
  <path class="cls-13" d="M240.63,63.13c-.59-.06-.87-.37-.81-.94,.67,0,.86,.38,.81,.94Z"/>
  <path class="cls-13" d="M256.73,127.93c-.21-.38-.21-.73,.09-1.07,.43,.39,.4,.75-.09,1.07Z"/>
  <path class="cls-13" d="M103.56,182.74c.33-.32,.72-.35,1.14-.21-.27,.64-.64,.73-1.14,.21Z"/>
  <path class="cls-13" d="M208.95,160.82c-.39,.15-.78,.15-1.17,0,.38-.74,.77-.74,1.17,0Z"/>
  <path class="cls-13" d="M256.85,131.07c-.28-.33-.38-.68-.15-1.07,.5,.3,.59,.65,.15,1.07Z"/>
  <path class="cls-7" d="M245.34,154.1c.05,.31,.09,.61-.26,.8-.2-.35-.03-.59,.26-.8Z"/>
  <path class="cls-13" d="M199.75,163.53c-.29,.16-.55,.12-.78-.12,.34-.43,.58-.29,.78,.12Z"/>
  <path class="cls-13" d="M257.97,131.36c.37,.39,.47,.87,.49,1.37-.78-.26-.52-.85-.49-1.37Z"/>
  <path class="cls-13" d="M191.89,181.31c.23-.24,.35-.72,.86-.37-.14,.44-.48,.46-.86,.37Z"/>
  <path class="cls-13" d="M258.63,147.24c-.08-.54,.25-.71,.74-.72,.04,.5-.27,.69-.74,.72Z"/>
  <path class="cls-7" d="M244.92,155.57c.11,.32-.06,.53-.3,.71-.14-.33,.09-.52,.3-.71Z"/>
  <path class="cls-13" d="M258.28,148.31c-.05-.41,.09-.76,.36-1.07,.06,.41,.09,.81-.36,1.07Z"/>
  <path class="cls-13" d="M240.9,64.02c-.24-.22-.35-.48-.24-.8,.33,.2,.32,.49,.24,.8Z"/>
  <path class="cls-13" d="M179.08,181.75c.13,0,.25,0,.38,.01-.14,.24-.26,.22-.38-.01Z"/>
  <path class="cls-13" d="M239.82,62.19c-.06-.08-.14-.15-.18-.24-.02-.03,.04-.09,.06-.14,.04,.13,.08,.25,.12,.38Z"/>
  <path class="cls-13" d="M209.28,63.56c-.05,.2-.18,.26-.37,.2,.12-.07,.25-.13,.37-.2Z"/>
  <path class="cls-13" d="M257.91,135.3c-.05-.07-.11-.13-.14-.21-.01-.03,.03-.08,.05-.12,.04,.07,.09,.13,.12,.21,.01,.03-.02,.08-.03,.12Z"/>
  <path class="cls-13" d="M210.65,64.41c-.05-.16-.1-.33-.15-.49,.05,.16,.1,.33,.15,.49Z"/>
  <path class="cls-13" d="M263.56,168.79c-.16,.07-.33,.14-.49,.22,.16-.07,.33-.14,.49-.22Z"/>
  <path class="cls-7" d="M228.78,159.79c-.07-.07-.15-.14-.22-.21,.13,.02,.2,.08,.22,.21Z"/>
  <path class="cls-7" d="M228.45,159.47c-.23,0-.32-.11-.3-.32,.1,.11,.2,.21,.3,.32Z"/>
  <path class="cls-13" d="M258.39,125.17c.05,.11,.02,.21-.09,.28-.31-.19-.16-.25,.09-.28Z"/>
  <path class="cls-13" d="M259.7,143.11c-.19-.17-.2-.35-.03-.54,0,.18,.02,.36,.03,.54Z"/>
  <path class="cls-13" d="M207.96,64.02c-.15,.11-.31,.22-.46,.33-.04-.18-.09-.36-.13-.54,0,0-.02-.04-.02-.04,.2,.08,.41,.17,.61,.25Z"/>
  <path class="cls-13" d="M223.26,57.6c-.31-.88,.35-1.05,.99-1.32,2.9-1.22,5.79-2.48,8.68-3.72,4.7-1.97,9.39-3.94,14.09-5.9,6.74-2.82,13.49-5.62,20.21-8.47,4.75-2.01,9.47-4.1,14.2-6.15,.71-.31,1.41-.74,2.26-.47-.02,.18-.03,.36-.05,.54-4.81,2.1-9.61,4.21-14.43,6.29-3.7,1.59-7.43,3.14-11.15,4.7-6.91,2.89-13.84,5.77-20.75,8.67-4.01,1.69-8.02,3.39-12,5.15-.68,.3-1.34,.53-2.06,.67Z"/>
  <path class="cls-13" d="M205.26,64.3c.48-.13,.96-.25,1.45-.38,0,.27,.01,.53,.02,.8-2.89,1.77-5.96,3.27-8.45,5.59-.68,.63-1.44,1.24-1.14,2.2,.32,1,1.35,.75,2.19,.87,1.35,.19,2.76-.6,4.15,.16-1.6,1.09-5.45,1.19-6.86,.19-1.1-.77-.71-1.76-.28-2.67,.9-1.88,2.71-2.92,4.36-4.07,1.44-1,3.04-1.81,4.56-2.7Z"/>
  <path class="cls-11" d="M206.73,64.72c0-.27-.01-.53-.02-.8,.22-.04,.44-.07,.66-.11,.04,.18,.09,.36,.13,.54-.26,.12-.51,.25-.77,.37Z"/>
</svg>