<svg width="50" height="50" viewBox="0 0 50 50" fill="none" xmlns="http://www.w3.org/2000/svg">
<path d="M25.1172 14.8109C28.231 15.9442 31.0616 16.0216 31.4394 14.9836C31.8172 13.9457 29.5991 12.1855 26.4853 11.0521C23.3714 9.91878 20.5408 9.84144 20.1631 10.8794C19.7853 11.9173 22.0033 13.6775 25.1172 14.8109Z" stroke="#484848" stroke-width="0.5"/>
<path d="M30.9641 21.8038C32.6209 18.9341 33.1886 16.16 32.2321 15.6077C31.2755 15.0554 29.1568 16.9341 27.5 19.8038C25.8432 22.6736 25.2755 25.4477 26.2321 26C27.1886 26.5523 29.3073 24.6736 30.9641 21.8038Z" stroke="#484848" stroke-width="0.5"/>
<path d="M21.9618 17.6742C21.673 14.3731 20.5469 11.7751 19.4465 11.8714C18.3462 11.9676 17.6883 14.7218 17.9771 18.0228C18.2659 21.3239 19.392 23.922 20.4924 23.8257C21.5927 23.7294 22.2507 20.9753 21.9618 17.6742Z" stroke="#484848" stroke-width="0.5"/>
<path d="M28 28H34" stroke="#484848" stroke-width="0.5"/>
<path d="M33.5963 33.8567L29 30" stroke="#484848" stroke-width="0.5"/>
<path d="M31 28V42" stroke="#484848" stroke-width="0.5"/>
<path d="M21.0981 28.0981C21.9265 26.6632 22.0165 25.1642 21.299 24.75C20.5816 24.3358 19.3284 25.1632 18.5 26.5981C17.6716 28.033 17.5816 29.5319 18.299 29.9462C19.0165 30.3604 20.2696 29.533 21.0981 28.0981Z" fill="#484848"/>
</svg>
