<?xml version="1.0" encoding="UTF-8"?>
<svg id="Layer_1" data-name="Layer 1" xmlns="http://www.w3.org/2000/svg" viewBox="0 0 414 200">
  <defs>
    <style>
      .cls-1 {
        fill: #f3b6d3;
      }

      .cls-2 {
        fill: #00bff3;
      }

      .cls-3 {
        fill: #eae1cd;
      }

      .cls-4 {
        fill: #f5ae41;
      }

      .cls-5 {
        fill: #e6e1da;
      }

      .cls-6 {
        fill: #edeaea;
      }

      .cls-7 {
        fill: #fff9b8;
      }

      .cls-8 {
        fill: #fdfcfc;
      }

      .cls-9 {
        fill: #6b645a;
      }

      .cls-10 {
        fill: #747373;
      }

      .cls-11 {
        fill: #9ed2f1;
      }

      .cls-12 {
        fill: #b4ada4;
      }

      .cls-13 {
        fill: #35302e;
      }

      .cls-14 {
        fill: #4b4642;
      }

      .cls-15 {
        fill: #787677;
      }
    </style>
  </defs>
  <path class="cls-14" d="M171.98,109.81c-1.42-8.45-1.37-8.2-8.85-6.41-3.04,.73-4.29,2.83-5.91,5.12-2.88,4.09-6.65,4.08-10.66,2.11-.2-.1-.45-.12-.67-.14-.15,0-.31,.06-.47,.09,2.88,4.19,2.89,4.23-2.16,5.74-3.13,.94-6.3,1.34-9.52,.53-1.7-.43-3.7-.51-4.16-2.88-.49-2.52,.8-4.41,2.43-5.92,1.46-1.34,3.03-2.57,4.68-3.62,1.37-.88,1.33-1.55,.35-2.77-4.79-5.93-9.66-11.79-14.06-18.09-5.27-7.55-10.51-15.12-15.6-22.83-3.25-4.92-6.22-10.07-9.68-14.83-.4-.55-1.97-1.83,.21-2.36,3.42,4.8,6.32,10,9.65,14.89,4.33,6.35,8.64,12.71,12.94,19.08,5.17,7.66,10.9,14.8,16.53,22.03,2.28,2.93,2.82,3.07,5.96,1.61,.66-.31,1.34-.58,2.03-.79,1.31-.4,1.66-1.13,.47-2.07-3.35-2.64-5.71-6.34-8.3-9.7-6.47-8.39-12.6-17.1-18.67-25.84-3.62-5.21-6.84-10.74-10.3-16.08-1.41-2.17-2.98-4.21-4.48-6.31,.14-1.24,.59-1.7,1.47-.6,.88,1.09,1.82,2.18,2.49,3.42,3.23,5.93,7.28,11.25,10.84,16.93,4,6.38,8.4,12.47,12.83,18.52,3.82,5.23,7.88,10.25,11.91,15.29,1.19,1.5,2.59,2.81,3.95,4.14,1.08,1.06,4.04-.04,4.71-1.73,.38-.96,.66-1.97,.95-2.97,1.5-5.25,4.87-8.83,9.42-10.44,4.16-1.47,8.6-1.17,12.21,2.27,1.3,1.24,2.4,1.31,3.9,.54,2.17-1.12,4.44-2.02,6.69-2.93,1.14-.46,1.6-1.15,1.57-2.53-.04-1.65,.27-3.31,.34-4.97,.34-7.33,8.99-13.69,14.51-13.44,2.02,.09,3.74,.85,5.4,1.96,.72,.49,1.33,1.2,2.12-.18,4.05-7.02,11.36-7.93,16.85-2.2,.54,1.16,1.5,2.21,.81,3.7-.41,0-.81,.01-1.22,.02,.31-.44,.43-.84,.17-1.43-1.51-3.37-5.62-5.21-9.56-4.23-4.46,1.1-6.28,3.26-6.2,7.84,.14,8.06,.28,16.13,.7,24.17,.72,13.73,1.89,27.44,2.09,41.2,.05,3.61-.08,7.03,3.82,8.48,.87,.32,1.15,2.11,2.53,1.24,.32,.56,.63,1.13,.94,1.69,.07,.54,.21,.97,.86,.9,.59-.06,.85-.43,.84-.99-.01-1.02-.1-2.03-.16-3.05,.59-.42,.39-1.02,.31-1.59,.06-4.92,.12-9.83,.18-14.75-.03-1.09-.05-2.18-.08-3.27,.68-3.8,1.16-7.66,2.11-11.38,.6-2.33,.34-4.26-.3-6.5-1.24-4.36-3.79-8.3-3.66-13.11,0,0-.05,.05-.05,.05,.5-.03,1-.05,1.49-.08,.8,4.53,1.83,8.98,3.86,13.74,.67-2.26,.83-4.05,1.65-5.35,2.53-4,2.81-8.13,1.26-12.55-.05-.95-.09-1.89-.14-2.84-.09-1.85-.5-3.78,1.2-5.14,.07,1.46,.15,2.92,.22,4.38-.23,.54-.21,1.06,.08,1.57,.14,1.3,.34,2.59,.42,3.89,.11,1.96,.43,2.48,2.15,1.04,1.64-1.37,3.46-2.93,5.86-2.06,.45,.16,.72-.02,1.07-.27,3.41-2.39,3.97-3.92,3.1-8.47-.26-1.37-.59-2.75-.64-4.13-.1-2.74-1.32-2.51-3.06-1.68-2.93,1.39-5.91,2.65-8.87,3.97-.41-1.12,.27-1.6,1.03-1.97,.94-.45,1.9-.85,2.86-1.27,2.34-1.04,5.17-1.54,6.87-3.31,1.32-1.38-.34-4.27-.18-6.52,0-.09,.02-.17,.03-.26,.29-1.29-.93-1-1.35-1.54,.36-.36,1.1-.14,1.19-1.01-.75-.11-1.59-.57-1.73,.82h.02c-2.5-.23-4.38,1.89-6.75,2.13-.18-.52,.02-.97,.23-1.42,1.65-.67,3.25-1.55,4.95-1.98,3.07-.77,3.63-3.05,4.03-6.07,1.05-7.9,5.31-12.29,12.64-10.32,.84,.23,1.83,.78,1.75-.97-.44-8.68,8.3-11.23,13.92-8.98,3.22,1.29,6.09,3.03,8.17,6.14,.93,1.4,2.08,1.66,3.72,.93,13.33-5.91,26.71-11.7,40.07-17.52,1.55-.68,3.11-1.35,4.67-2.02,.18-.08,.36-.17,.53-.25,1.19,.05,1.2,.57,.46,1.39-2.96,1.3-6.11,2.09-8.84,3.98-.52,.07-1.05,.07-1.43,.57-1.33,0-2.42,.68-3.48,1.45-1.61,.67-3.22,1.33-4.83,2-2.21,.97-4.42,1.95-6.63,2.92-2.65,1.15-5.29,2.3-7.94,3.45-1.27,.53-2.54,1.06-3.82,1.59-3.61,1.74-7.55,2.64-10.89,5.07l.02-.02c-1.29,.13-2.52,.45-3.4,1.61l.03-.03c-.6-.16-1.1,0-1.48,.55l.02-.02c-1.61,.59-3.4,.7-4.74,2.03-.04,.53,.1,.97,.56,1.22-.3,2.85,1.23,4.88,3,6.41,1.27,1.11,2.53-.89,3.89-1.14,.23-.04,.43-.23,.65-.32,12.62-4.97,24.98-10.64,37.45-16.04,4.74-2.06,9.51-4.05,14.27-6.07,1.49,.82,.52,1.29-.25,1.62-6.1,2.67-12.2,5.32-18.31,7.94-5.35,2.3-10.72,4.55-16.07,6.85-3.5,1.5-6.97,3.1-10.48,4.56-.99,.41-1.52,.9-1.28,2.09,.02,.09,.03,.17,.03,.26-.13,3.49,.58,6.13,3.95,7.86,4.16,2.14,7.2,6,10.06,9.92,.77,1.06,1.16,2.3,1.34,3.5,.41,2.63,1.52,4.38,3.69,5.75,3.8,2.4,5.83,6.42,6.01,11.03,.25,6.17,2.14,11.73,3.89,17.44,1.57,5.1,1.37,10.38-.28,15.48-.48,1.49-.48,2.85-.3,4.36,.88,7.42-.49,13.98-6.06,19.03-1.04,.94-1.75,2.46-2.31,3.86-3.93,9.87-11.02,15.36-20.6,15.9-7.3,.41-14.19,2.65-21.31,3.75-3.39,.52-6.78,.66-10.06-.27-2.18-.62-4.09-.19-6.07,.45-6.63,2.15-13.4,3.16-20.3,3.25-3.92,.05-7.68-.71-11.21-2.59-.99-.53-1.85-.3-2.8-.13-4.67,.84-9.28,1.02-13.71-1.26-.85-.44-1.68-.36-2.57-.06-6.94,2.4-13.89,2.67-20.81-.02-.88-.34-1.51,0-2.27,.35-7.82,3.69-15.63,4.1-23.54,.14-2.11-1.06-4.16,.67-6.24,1.07-.38-.1-.72-.03-1,.3-.79,.08-1.59,.16-2.38,.24-.67-.05-1.34-.07-1.95,.34-.65,.03-1.29,.06-1.94,.09-.16,0-.31,0-.47,0-1.13-.05-2.25-.1-3.38-.14-.29-.34-.63-.34-1-.2-1.7-.62-3.48-.69-5.22-1.48-1.9-.86-3.89,1.05-5.91,1.53-4.43,1.06-9.06,2.57-13.27,.71-4.03-1.78-7.56-.87-11.36-.18-3.84,.7-7.63,.52-11.41-.81-2.59-.92-4.54-2.56-6.14-4.8-.55-.77-1.1-1.46-1.85-1.96-.51-.34-1.52-.42-1.26-1.29,.34-1.17,1.21-.18,1.84-.2,4.93,2.16,9.99,2.36,15.06,.83,4.56-1.38,8.66-3.98,12.74-6.53,2.18-1.36,4.16-3.1,6.25-4.69-.67-.9-1.46-1.07-2.23-1.2-8.08-1.4-15.72,.32-22.98,4.16-3.01,1.59-5.86,3.53-8.78,5.31-.17-.03-.32,0-.46,.1-.74-.5-.43-1.04-.06-1.59,1.73-.48,4.13-1.48,4.23-2.79,.11-1.56-2.28-2.45-3.83-3.25-.35-.18-.72-.29-1.08-.44-1.42-.64-.99-1.39,.01-1.89,4.33-2.18,8.72-3.56,13.18-.41,1.09,.77,2.15,.89,3.4,.65,3.54-.67,7.1-1.25,10.65-1.86,.37,.15,.72,.14,1-.21,4.63-4.61,9.42-3.39,14.41-.68,2.53,1.37,5.26,1.12,7.89-.2,4.74-2.39,9.64-3.49,14.66-1.16,1.88,.87,3.41,2.5,5.74,2.13,1.23-.19,2.3-.39,3.3-1.28,3.54-3.14,7.58-3.85,11.98-2.74,.82,.21,1.5,.6,2.14,1.12,1.6,1.31,2.78,3.34,5.39,2.35,1.93-.73,4.05-.63,5.89-2.01,3.28-2.46,7.01-3.37,10.99-2.89,.45,.05,.99,.47,1.31-.13,.3-.56-.18-.98-.49-1.35-3.83-4.57-5.47-10.34-7.7-15.85-1.78-4.42-2.59-9.11-4.24-13.51-.29-.78,.16-1.29-.01-1.92,0,0-.05,.06-.05,.06,.51,.1,1.02,.19,1.52,.29,.73,6.75,3.9,12.65,5.66,19.04,1.05,3.82,3.31,6.93,5.28,10.19,.34,.56,.69,1.78,1.54,.69,.92-1.17,2.12-1.84,3.25-2.63,1.08-.76,.97-1.44,.4-2.56-1-1.95-2.3-3.66-3.15-5.77-2.06-5.12-2.88-10.72-5.32-15.65-.44-.89,.02-1.48,.27-2.18,.76,.33,1.36,.7,1.57,1.75,.34,1.79,.93,3.53,1.37,5.31,1.36,5.59,3.58,10.77,6.3,15.7,.33,.59,.52,1.61,1.54,1.27,1.04-.34,.98-1.23,.87-2.14-.06-.52-.07-1.05-.16-1.57-.82-4.92-1.72-9.82-2.46-14.75-.69-4.55-1.73-9.01-2.16-13.63-.25-2.66-1.4-5.32-1.54-8.13q-.22-4.37-3.85-2.84c-.74,.31-1.5,.6-2.28,.78-1.76,.43-2.38,1.38-1.78,3.39,.49,1.64,.63,3.41,.93,5.12,.22,1.28-.47,1.25-1.27,1.06-.04-.87,0-1.75-.14-2.6-.95-5.89-1.11-5.95-6.22-3.74-1.13,.49-1.43,1.08-1.13,2.35,.41,1.77,.58,3.6,.96,5.38,.22,1.03,.34,1.78-.99,1.55Zm.3-19.39c-.39,.04-.94-.27-.99,.53h.02c-3.15,.15-5.76,2-8.59,3.2-.11,.05-.1,.45-.15,.69,.03,.31,.06,.63,.08,.94-2.16,1.79-2.08,4.62-3.21,7.33,1.98-.54,3.51-.98,5.04-1.37,7.26-1.83,14.23-4.64,21.18-7.53,.86-.36,1.78-.7,1.51-1.95-.48-2.16,.77-4.61-.91-6.55-.07-.08-.31,.02-.47,.04-.02-.22-.03-.43-.05-.65,.19-.45,1.08-.35,.83-1.05-.19-.54-.67-.19-1.02-.04-2.22,.96-4.47,1.86-6.66,2.91-.52,.25-1.57,.2-1.34,1.41l.03-.02c-.5,0-1,0-1.49,0-.15,.09-.31,.18-.46,.28-1.14,.56-2.59,.43-3.35,1.82h0Zm-29.93,12.69c-.22,.1-.45,.21-.67,.31-3.8,1.37-7.01,3.82-9.79,6.86-1.67,1.82-1.91,4.26,1.15,5,3.83,.93,7.48,.6,11.13-.72,.61-.22,1.65,.13,1.67-1,.01-.72-.68-1.01-1.27-1.38-.93-.57-2.24-1.19-1.96-2.63,.25-1.27,1.41-1.92,2.59-2,3.06-.2,4.2-2.4,4.73-5.24,.17-.9,.19-1.83,.29-2.89-1.46,.75-2.75,1.41-4.04,2.07-1.35,.34-2.72,.61-3.83,1.61Zm56.93-24.08c.01,.29,.03,.58,.04,.87-1.46,2.44-.39,5.09-.47,7.64-.03,1.02,.76,.53,1.25,.31,2.58-1.17,5.16-2.36,7.75-3.51,.55-.24,1.06-.37,.83-1.25-.48-1.79-.23-3.64-.21-5.46,.01-1.31-.55-1.45-1.48-1.26,.01-.23,.02-.47,.04-.7,.37-.32,1.19,.1,1.19-1.38-3.13,1.34-6.1,2.59-9.05,3.9-.31,.14-.18,.6,.12,.84Zm63.87-9.69c.17,2.26,.33,4.52,.51,6.94,2.11-1.54,2.21-1.63,1.73-2.22-1.11-1.38-1.25-3.11-1.61-4.77,.2-1.19,.2-2.48,.65-3.55,.57-1.36-.08-2.11-.7-3-.25-.36-.53-.78-.94-.65-.6,.19-.47,.79-.4,1.31,.25,1.98,.5,3.96,.75,5.94Zm-62.33,28.41c-.3-2.38,.26-4.71,.29-7.07,0-.55,.29-1.48-.49-1.49-.52,0-1.17,.59-1.53,1.11-.23,.33-.08,1.01-.06,1.53,.1,2.71,.21,5.42,.31,8.12-.39,2.16,.02,3.57,2.44,3.08,.15-.03,.31,.03,.47,.05-.69,.42-.97,1.02-1,1.92-.22,7.82-1.13,15.56,.99,23.38,1.9,7.03,3.44,14.23,4.21,21.57,.27,2.63,2.31,1.9,3.78,2.13,1.17,.18,1.49-.53,1.5-1.73,.04-14.04-.46-28.05-1.52-42.04-.17-2.41-.31-4.82-.51-7.23-.25-3.04,.88-6.22-.72-9.13,.02-1.65,.05-3.31,.04-4.96,0-.39,.11-.87-.44-1.05-.7-.23-5.37,2.02-5.46,2.82-.27,2.48-.84,4.95-.44,7.48-.25,1.04-.95,1.43-1.85,1.53Zm55.96-43.62c.21-.33,.42-.66,.65-1.02-.93-.3-1.48,.23-2.13,.98h1.52c-.09,1.66-1.61,1.01-2.33,1.7-.62,.59-1.75,.64-1.68,1.92,.11,1.74,.24,3.48,.41,5.21,.11,1.06,.54,1.53,1.62,1.02,2.04-.97,4.13-1.81,6.2-2.71,.47-.21,1.38-.31,.83-1.13-1.48-2.2-2.02-5.39-5.09-5.97Zm10.01,110.09c1.56,1.88,3.51,2.86,5.78,3.44,4.17,1.07,8.28,.68,12.41-.17,7.22-1.47,15.24-7.97,16.82-16.05-3.3,1.34-6.55,2.52-9.92,3.11-1.94,.34-3.02,1.61-4.22,3.07-5.36,6.51-12.09,9.16-19.39,5.95-1.12-.54-2.01-1.89-3.86-1.22,.94,.74,1.66,1.3,2.38,1.87Zm2.46-5.32c-.94,.44-2.19,1.13-2.11,2.08,.1,1.23,1.55,1.38,2.59,1.66,1.86,1.04,3.89,1.05,5.86,.79,5.92-.76,10-4.45,13.16-9.78,1.59-2.69,.82-5.17,.21-7.76-.18-.77-.75-.88-1.33-.59-2.32,1.15-4.98,1.53-7.01,3.31-3.84,3.36-7.58,6.85-11.36,10.29Zm16.71-63.79c-.15-.27-.27-.73-.56-.97-1.61-1.34-2.83-3.2-5.08-3.64-2.47-.49-4.74-1.61-6.19-4.07-.52-.87-1.01-.99-1.97-.52-2.1,1.03-4.03,2.71-6.34,2.91-2,.17-2.43,1.24-2.78,3.07-1.03,5.35-1.64,11.02-4.96,15.35-2.57,3.35-3.47,7.02-3.81,11.13-.12,1.44-.45,3.02-1.73,3.88-1.12,.76-1.26,1.92-1.45,3.14-.49,3.11-.84,6.26-1.53,9.31-1.15,5.05-2.11,10.36-6.27,13.68-1.76,1.41-.49,2.45-.15,3.56,.5,1.61,1.4,.39,2.12,.12,1.51-.58,2.98-1.33,4.52-1.79,4.26-1.28,8.42-2.37,12.9-.17,1.77,.87,4.75,.52,6.2-1.38,2.69-3.56,5.87-4.06,9.48-2.78,1.56,.55,1.86,.03,2.33-1.37,1.25-3.68,3.28-6.76,6.38-8.9,2.94-2.03,3.3-3.88,1.5-7.3-1.95-3.68-1.19-10.57,1.46-13.3,2.07-2.13,1.95-4.2-.47-5.78-3.71-2.41-4.99-6-4.5-10.48,.13-1.2,.57-2.36,.91-3.7Zm-88.44-7.91c-.07-2.6-.37-5.68,.13-8.72,.27-1.63,.79-4.01,2.51-3.54,2.76,.75,4.63-.87,6.78-1.81,1.98-.87,2.19-5.62,.49-7.12-4.85-4.26-9.12-2.98-13.69,.43-3.93,2.93-5.82,7.4-5.71,12.6,.14,6.61,.27,13.2,1.41,19.77,.84,4.88,1.21,9.89,1.97,14.81,1.68,10.91,4.15,21.66,5.28,32.67,.54,5.27,.5,5.28,5.26,6.11,2.78,.49,3.62-.28,3.16-3.32-.57-3.71-1.32-7.39-2.05-11.07-1.06-5.34-3.06-10.41-3.36-15.98-.61-11.46-1.43-22.91-2.19-34.83Zm52.65,35.19c-.12-3.12-.7-6.03-1.41-8.9-1.03-4.18-2.29-8.31-3.08-12.55-.87-4.63-1.31-9.35-1.94-14.03-.08-.6,.04-1.36-.56-1.63-.75-.33-1.25,.41-1.55,.94-1.03,1.85-2.46,3.34-3.27,5.43-2.85,7.35-1.95,14.75-.82,22.24,1.18,7.83,2.29,15.68,2.56,23.62,.08,2.45-.86,4.75-.85,7.22,0,1.7,1.07,2.3,1.96,2.93,.91,.65,1.7-.45,2.14-1.19,1.29-2.19,2.78-4.36,3.54-6.78,1.79-5.63,2.67-11.51,3.27-17.32Zm.73-65.02c.1-1.44-.16-3.17,.82-4.62,.92-1.34,2.26-.3,3.37-.63,.61-.19,1.31-.23,1.57-1.01,.27-.79-1.31-4.9-2.08-5.28-4.33-2.13-9.05-1.34-11.1,3.9-2.19,5.6-2.42,11.48-1.59,17.3,1.57,11.1,3.55,22.14,5.33,33.21,.26,1.64,1.06,1.57,2.03,.85,.81-.59,1.49-1.37,1.78-2.42,.69-2.57,1.57-5.12,1.94-7.75,.72-5.04,.53-10.15,.15-15.22-.45-6.07-1.95-12-2.23-18.31Zm-28.12,79.66c-.02,4.74,.2,9.47,.83,14.15,.16,1.17,.39,3.18,1.93,2.76,1.36-.37,3.15-1.12,3.16-3.38,0-1.23-.06-2.46,.02-3.68,.43-5.81-.2-11.82,2.65-17.17,1.01-1.9,1.27-3.88,1.19-6.04-.09-2.53,.47-4.88,1.45-7.28,1.02-2.49,2.12-5.21,1.51-8.12-1.34-6.36-.04-12.34,2.06-18.2,.57-1.59,.04-2.1-1.19-1.65-2.22,.8-4.57,1.88-5.48,4.36-2.46,6.69-4.99,13.41-6.31,20.48-1.46,7.81-1.69,15.81-1.82,23.78Zm55.64-67.6c-.78-.95-1.08-2.03-1.57-2.99-1.51-2.98-2.77-6.18-4.65-8.86-2.06-2.93-3.27-6.12-4.04-9.59-.29-1.3-.2-2.98,1.5-2.88,2.24,.13,3.99-1.18,5.95-1.83,1.59-.53,1.51-1.41,.59-2.68-2.02-2.79-4.76-4.35-7.74-5.46-3.69-1.38-7.28-.83-10.08,2.09-2.53,2.65-1.98,6.2-1.32,9.64,.78,4.05,3.11,7.19,4.86,10.67,1.95,3.86,4.76,6.82,8.23,8.9,2.52,1.52,5.13,3.11,8.25,2.97Zm-15.79,13.11c-.51-4.25-.16-9.1-.88-13.88-.9-5.99-.82-5.92-6.05-3.58-1.54,.69-2.02,1.46-1.83,3.29,.81,7.95,1.19,15.92,.36,23.9-.46,4.42-1.25,8.73-5.64,10.71-.73,.33-.69,.91-.56,1.5,.42,1.96,.92,3.89,1.34,5.85,.26,1.22,.85,1.54,1.92,1.17,1.94-.67,3.87-1.42,4.92-3.48,1.27-2.5,2.67-5,3.5-7.68,1.73-5.57,2.86-11.31,2.92-17.8Zm-51.15,80.38c.9,1.34,1.94,1.67,2.88,2.1,12.18,5.7,22.99,1.75,33.29-5.68,.42-.31,1.05-.51,.49-1.38-1.12-1.74-9.4-4.86-11.33-4.17-.22,.08-.42,.25-.59,.43-1.62,1.74-3.48,2.05-5.53,1.08-.67-.32-1.22-.13-1.84,.14-5.69,2.52-11.18,5.55-17.37,7.47Zm-65.38,.21c6.48,2.8,12.76,2.68,19.16,.83,6.11-1.77,10.91-6.41,17.27-8.84-3.84-2.71-7.52-3.19-11.43-2.73-5.41,.63-10.46,2.53-15.25,5.22-3.16,1.77-6.65,2.91-9.75,5.52Zm1.22-54.21c4.13,2.77,7.42,1.73,9.43-2.73,1.38-3.06,2.36-6.26,3.41-9.45,.55-1.66,1.19-3.26,2.07-4.73,1-1.68,2.6-2.74,4.26-2.34,2.53,.61,4.51-.7,6.68-1.4,1.71-.55,1.29-1.37,.19-2.26-2.59-2.1-5.51-2.98-8.64-2.29-4.48,1-7.8,3.83-9.87,8.33-1.13,2.45-1.63,5.12-2.39,7.71-1.02,3.5-1.88,7.16-5.17,9.16Zm8.52,47.04c-4.93-2.27-9.91-3.42-14.44-1.95-6.45,2.09-12.51,5.64-18.74,8.54-1.34,.62-1.12,1.18-.08,1.87,2.22,1.46,4.71,1.82,7.19,1.7,9.51-.44,17.5-5.51,26.07-10.16Zm136.41-71.7c.07-5.44-6.17-11.65-12.2-12.7-4.72-.82-8.94-2.47-12.8-5.4-.38-.29-.73-.73-1.18-.07-.95,1.38-1.62,3.07-.87,4.56,2.37,4.74,5.58,8.41,10.88,9.21,2.13,.32,4.27,.61,6.39,1.11,3.34,.79,6.46,2.34,9.79,3.29Zm-46.81,86.71c-1.43-1.26-2.93-2.41-4.25-3.78-1.15-1.19-2.15-1.23-3.59-.59-7.11,3.14-14.31,3.34-21.59,.53-1.98-.76-3.89-1.63-5.6-2.94-1.07-.82-2.22-.39-2.84,.32-.69,.8,.69,1.06,.99,1.68,.19,.39,.42,.74,.63,1.12,2.74,4.92,6.98,6.94,12.03,7.44,7.46,.74,14.7-.66,21.89-2.61,.81-.22,1.79-.13,2.33-1.17Zm-74.14-8.11c4.83,2.83,9.31,2.53,13.75,1.8,5.37-.88,16.93-7.19,18.79-10.06-12.12-4.19-21.96,1.94-32.54,8.26Zm-71.91,1.19c5.63,1.92,11.07,1.74,16.44-.12,5.3-1.83,10.23-4.61,15.77-7.39-5.27-3.64-10.43-3.43-15.55-2.31-6.34,1.39-11.07,6.25-16.67,9.82Zm201.44-62.44c-.07-.96-.07-1.76-.21-2.53-.12-.68-.36-1.35-.62-1.98-3.46-8.58-9.72-13.05-18-14.52-1.67-.3-1.17,.8-1,1.74,1.06,5.86,5.49,8.91,9.15,12.35,2.71,2.55,5.17,5.39,7.99,7.8,.48,.41,.68,1.46,1.4,1.24,.72-.22,.92-1.17,1.08-1.93,.16-.76,.16-1.56,.22-2.18Zm-63.7,20.65c-1.65,2.84-3.28,5.61-4.7,8.46-3.12,6.29-2.1,13.33-2.26,20.12-.04,1.57,.17,3.17,1.88,3.48,1.59,.29,3-.29,3.9-1.95,.83-1.54,1.33-3.19,1.59-4.93,1.25-8.38,.85-16.74-.42-25.18Zm7.42,40.81c4.32,1.59,8.33,2.31,12.54,1.12,5.21-1.46,9.35-4.82,13.21-8.66,1.07-1.07,3.67-1.81,3.01-3.11-.77-1.52-3.29-1.31-5.13-1.47-.31-.03-.64,.05-.95,.11-8.57,1.47-15.3,7.03-22.67,12Zm50.59-40.29c-3.59,5.7-4.63,12.01-4.77,18.45-.06,2.88,1.03,5.77,1.5,8.68,.19,1.18,.47,1.62,1.49,.82,2.55-2.02,4.86-4.17,5.47-7.85,1.16-7.07,.13-13.64-3.69-20.09Zm-124.5,48.18c-1.68-.79-2.89-1.93-3.53-3.41-.92-2.09-2.26-2.02-3.92-1.61-5.8,1.43-11.47,.94-17.04-1.3-.67-.27-1.38-.49-2.08-.55-.8-.07-1.75,.02-2.17,.82-.42,.82,.4,1.44,.83,2,3.07,4.03,7.29,5.93,11.82,6.82,5.55,1.09,10.98,.56,16.1-2.78Zm122.56-69.39c-.52,5-1.05,9.27,.62,13.65,2.05,5.37,5.12,10.28,6.17,16.12,.29,1.58,1.04,.47,1.41-.11,1.55-2.45,2.33-5.09,1.95-8.15-1.04-8.26-3.53-15.68-10.16-21.5ZM122,171.78c-2.99-1.36-4.82-3.09-6.09-5.5-.36-.68-.89-.58-1.47-.44-5.51,1.34-10.97,1.32-16.33-.84-1.03-.42-1.75,.35-2.35,.95-.84,.84,.05,1.59,.46,2.26,2.15,3.53,5.63,4.85,9.06,5.84,5.5,1.58,10.77-.31,16.71-2.27Zm71.55-7.91c11.53,2.01,20.72-3.81,30.28-7.94-11.3-4.27-20.78,.22-30.28,7.94Zm107.15-29.65c12.24-4.2,13.09-19.88,7.16-29.16-1.43,2.19-2.64,4.55-5.08,5.68-.93,.43-.62,1.59-.36,2.58,.53,2.01,1.85,3.63,2.22,5.72,1.01,5.75,.88,11.14-3.94,15.17Zm.67-24.1c4.5-2.55,6.41-6.57,5.76-12.05-.09-.78,0-1.58-.06-2.36-.43-5.28-2.21-9.77-6.36-12.86-.39-.29-1.09-.82-1.22-.7-1.68,1.58-1.14,4.46-2.92,6.07-.4,.36,.02,.8,.41,1.23,1.92,2.04,3.26,4.54,4.22,7.26,1.13,3.2,1.58,6.39-.33,9.49-.91,1.47-.55,2.78,.5,3.94Zm-3.67-29.92c-.06-.61-.11-1.22-.2-1.82-.05-.34-.11-.7-.24-1.01-2.53-6.21-6.94-10.51-12.04-14.11-1.47-1.04-2.5-.94-2.63,1.38-.05,.93-.28,1.99-.76,2.73-1.6,2.48-.34,3.21,1.64,4.05,5.45,2.32,9.4,6.16,10.28,12.89,.09,.67,.36,1.33,.65,1.94,.27,.56,.97,.71,1.12,.13,.56-2.13,2.4-3.73,2.19-6.18Zm-27.46,88.91c-2.1-1.41-4.03-2.94-5.81-4.61-1.02-.96-1.64-1.1-2.88-.51-3.8,1.8-7.78,2.7-11.97,1.9-1.83-.35-3.63-.77-5.32-1.58-1.06-.51-2.04-.25-2.61,.61-.72,1.1,.56,1.44,1.07,1.91,1.1,.99,2.18,1.97,3.53,2.67,8.04,4.15,15.98,2.21,23.99-.39Zm-136.54,4.2c2.16,.08,4.39-.3,6.61-.72,4.35-.83,4.2-.71,1.74-4.52-1.39-2.16-2.66-2.45-4.95-1.86-5.73,1.48-11.56,2.7-16.82-1.87-.93-.81-2.13-.05-2.89,.64-.99,.9,.36,1.44,.65,2.11,.25,.6,.77,1.17,1.3,1.52,4.39,2.86,9,4.95,14.36,4.7Zm59.87-2.24c-2.57-4.11-5.45-7.02-10.27-4.72-.14,.07-.32,.02-.48,.03-4.13,.24-8.19,.17-11.95-2.14-1.18-.73-2.55-.38-3.3,.61-.74,.99,.51,1.81,1.02,2.6,.49,.77,1.13,1.38,1.97,1.85,2.52,1.4,5.08,2.63,7.89,3.04,5.12,.75,10.18,.58,15.11-1.27Zm115.51-40.86c-2.25,2.59-4.87,4.33-7.69,5.75-1,.5-.81,1.6-.82,2.54-.05,3.47-.69,6.75-2.46,9.72-.9,1.51-2.74,1.98-3.51,3.76,12.09-2.75,17.34-10.53,14.48-21.77Zm-103.49,42.56c1.01-.07,2.37-.12,3.73-.25,1.12-.11,1.67-.44,.74-1.76-1.25-1.78-2.96-3.15-3.88-5.22-.44-.99-1.24-.47-1.92-.34-3.9,.77-7.78,1.3-11.52-.8-.63-.35-1.35-.31-1.8,.21-.66,.74,.14,1.27,.5,1.75,3.56,4.78,8.34,6.49,14.16,6.42Zm-107.64-.24c-.07-.29-.89-1.44-.93-1.51-2.41-4.21-4.62-4.38-9.12-2.45-3.28,1.41-7,.56-10.66-.03,.8,1.46,1.76,2.33,2.37,2.8,1.09,.84,2.12,1.21,3.41,1.67,0,0,1.59,.57,3.2,.85,4.6,.8,11.43-1.25,11.73-1.34Zm165.93-89.97c0,1.07,.09,2.05-.02,3-.22,1.87,.48,2.34,2.04,1.87,2.19-.66,4.06-2.04,6.1-3.04,.24-.12,.54-.55,.52-.8-.11-1.11-.03-2.92-.56-3.19-2.07-1.05-3.36-3.23-5.43-4.12-.33-.14-.98,.49-1.44,.83-1.95,1.45-.94,3.67-1.21,5.46Zm15.99-13.84c1.98-4.38,2.32-8.81,1.76-13.38-.13-1.04-.65-1.25-1.54-.83-1.68,.79-3.39,1.51-5.11,2.21-.98,.4-1.16,.85-.57,1.89,1.83,3.25,3.56,6.58,5.46,10.11Zm-83.93,80.73c-1.6-2.6-.97-5.42-1.49-8.01-.19-.95-.9-.48-1.33-.16-1.64,1.22-3.36,2.34-4.84,3.77-1.86,1.79-1.77,2.46,.31,3.73,1.02,.62,1.79,1.4,2.46,2.39,.55,.82,1.38,1.09,2.12,.62,1-.64,1.85-1.54,2.78-2.34Zm23.05,3.28c.61-.37,2.37,.82,1.94-1.33-.72-3.58-2.25-6.71-5.1-8.89-.84-.64-1.83-1.61-2.72-1.22-.78,.34-.16,1.74-.27,2.66-.08,.69-.01,1.4-.01,2.1,0,3.74,2.61,6.65,6.16,6.68Zm42.03-1.64c-5.82-2.32-10.8,.63-16.25,2.77,1.73,1.27,3.2,2.38,4.71,3.44,.22,.15,.65,.16,.88,.03,3.57-2.01,6.85-4.6,10.66-6.24Zm-98.11,1.5c-2.83-5.51-11.6-3.95-14.16-.14,1.79,.43,3.79,.42,5.3,1.37,2.8,1.76,5.15,1.04,7.59-.56,.34-.22,.71-.38,1.27-.68Zm11.47-1.79c2.58,.45,4.89,.42,6.64,1.88,3.16,2.64,5.87,.94,8.8-.51-4.08-4.72-8.64-5.64-15.44-1.37Zm-49.07,1.68c1.72,.25,3.61,.31,4.67,1.48,2.52,2.76,4.82,1.69,7.28,.21,.41-.25,.88-.39,1.33-.55,.46-.16,1.07-.3,1.11-.83,.05-.72-.63-.88-1.14-1.14-4.51-2.31-8.86-1.61-13.25,.84Zm161.09-52.24c-.04,3.3,1.28,6,3.34,7.26,.65,.4,1.46,.88,1.64-.39,.3-2.16,.61-4.35,.56-6.51-.03-1.6-1.8-1.79-2.7-2.73-1.85-1.91-2.26-1.71-2.71,.95-.1,.6-.11,1.22-.13,1.41Zm5.93,15.08c-3,2.73-3.98,6.11-3.24,10.08,.19,1.02,.26,2.57,1.46,2.71,1.06,.12,.9-1.43,1.39-2.17,.33-.49,.45-1.16,.82-1.58,2.25-2.56,1.68-5.16,.19-7.81-.17-.3-.31-.61-.63-1.22Zm-10.09,30.25c1-.78,2.18-.66,3.21-1.12,3.75-1.7,3.78-1.63,3.6-6.05,0-.09,0-.18,0-.26-.05-.49,.15-1.14-.41-1.37-.49-.2-.95,.16-1.27,.53-2.11,2.41-4.58,4.55-5.12,8.28Zm-195.94,9.67c-2.67-2.39-7.47-2.75-9.89-.97-.69,.51-.56,.82-.09,1.39,2.49,3,4.05,3.29,7.28,1.28,.82-.51,1.65-1.03,2.7-1.69Zm194.34-66.45c-.52-1.99-1.32-3.88-1.32-5.97,0-.84-.43-1.28-1.2-1.26-1.41,.04-2.75-.96-4.17-.39-.14,.06-.14,.79-.08,1.19,.57,3.69,3.08,6.09,6.77,6.43Zm-165.57,63.93c-4.19-2.95-8.94-3.02-10.85-.12,3.64,.34,7.12,3.8,10.85,.12Zm163.45-4.61c-.06-.88-.59-.67-.9-.84-2.18-1.19-4.2-.64-6.15,.64-.55,.36-1.2,.81-1.06,1.58,.14,.74,.93,.43,1.42,.61,.76,.28,1.49,.63,2.25,.91,.85,.3,4.51-2.3,4.44-2.88Zm-27.18-27.62c2.02-1.6,1.77-3.84,2.15-5.89,.44-2.35-.51-2.29-1.99-1.72-.91,.35-1.42,.8-1.09,2.09,.45,1.71,.6,3.51,.93,5.52Zm-15.1-6.2c-1.35,3.23-1.99,6.83-1.73,9.34,2.73-4.01,2.88-4.78,1.73-9.34Zm4.12,38.56c.78,.11,1.68,.42,1.41-.76-.35-1.5-.89-3.32-2.45-3.47-1.38-.14-1.23,1.82-1.34,2.73-.26,2.26,1.73,.89,2.38,1.5Zm14.67-98.58c-1.04-.17-1.78-.18-2.12,1.05,.88,.16,1.4-.26,2.12-1.05Z"/>
  <path class="cls-4" d="M103.76,40.4c1.5,2.1,3.07,4.14,4.48,6.31,3.46,5.34,6.68,10.87,10.3,16.08,6.07,8.74,12.21,17.44,18.67,25.84,2.59,3.36,4.95,7.06,8.3,9.7,1.2,.94,.84,1.67-.47,2.07-.69,.21-1.37,.48-2.03,.79-3.14,1.46-3.68,1.32-5.96-1.61-5.63-7.24-11.35-14.37-16.53-22.03-4.3-6.37-8.61-12.73-12.94-19.08-3.33-4.88-6.23-10.09-9.65-14.89,1.71-1.58,3.5-2.97,5.84-3.17Z"/>
  <path class="cls-7" d="M329.22,31.74c-4.76,2.02-9.52,4.01-14.27,6.07-12.46,5.41-24.83,11.07-37.45,16.04-.22,.09-.43,.28-.65,.32-1.36,.25-2.62,2.25-3.89,1.14-1.76-1.54-3.3-3.56-3-6.41,3.71-1.04,7.16-2.87,10.66-4.49,2.38-1.1,5.11-1.41,7.1-3.46,0,0-.04,0-.04,0,3.85-.62,7.18-2.8,10.75-4.26,8.21-3.36,16.32-7,24.47-10.53,.66-.28,1.4-.51,1.42-1.53,.14-.4,.39-.62,.79-.61,1.82-.23,2.99,.32,2.62,2.65-.31,1.97,1.05,3.35,1.47,5.06Z"/>
  <path class="cls-11" d="M74.74,163.88c2.92-1.78,5.78-3.72,8.78-5.31,7.27-3.85,14.9-5.56,22.98-4.16,.77,.13,1.56,.3,2.23,1.2-2.1,1.59-4.08,3.33-6.25,4.69-4.07,2.55-8.17,5.14-12.74,6.53-5.07,1.54-10.13,1.33-15.06-.83,0-.57,0-1.13,0-1.7,.04-.14,.06-.28,.06-.42Z"/>
  <path class="cls-13" d="M228.47,60.39c.39-2.97,.26-5.94,.09-8.92,.13-1.08,.15-2.14-.31-3.15-.12-1.44-.24-2.87-.36-4.31-.1-1.15,.29-2.48-1.01-3.18,.15-1.6-.25-2.18-1.89-1.71-2.77,.79-2.91,.5-2.19-2.54,.63-2.61,1.13-5.26,1.77-7.87,.33-1.35,.54-2.52,2.23-.8,2.59,2.63,4.34,5.97,6.78,8.7,.03,.48-.4,.45-.62,.64-1,.86-2.93-.06-3.32,1.48-.31,1.22,.29,2.72,.47,4.1,.14,1.12,.26,2.24,.38,3.36-.19,.56-.07,1.08,.2,1.56,.03,4.75,.07,9.5,.1,14.25-.9,6.51-1.41,13.1-4.39,19.09-1.54,3.11-2.97,6.18-5.85,8.07-.5,.33-.64,.74-.53,1.31l.05-.05c-2.03-1.04-2.03-2.01,0-4.2,1.3-.58,2.32-1.61,2.89-2.94,3.14-7.25,5.54-14.72,5.49-22.89Z"/>
  <path class="cls-7" d="M220.04,90.47c-.11-.57,.03-.98,.53-1.31,2.88-1.89,4.31-4.96,5.85-8.07,2.98-5.99,3.49-12.58,4.39-19.09,.36,.05,.72,.11,1.08,.16-.21,.45-.41,.9-.23,1.42,0,.37,.02,.74,.03,1.11-.37,.75-.38,1.26,.59,.86,1.79-.74,3.58-1.49,5.33-2.32,.92-.44,1.77-.78,2.68-.05-.01,.09-.02,.17-.03,.26-.16,2.25,1.5,5.14,.18,6.52-1.7,1.78-4.53,2.27-6.87,3.31-.95,.42-1.92,.82-2.86,1.27-.77,.37-1.44,.84-1.03,1.97,.02,.62,.23,1.27-.32,1.76-1.69,1.35-1.29,3.29-1.2,5.14,.05,.95,.09,1.89,.14,2.84-1.1-1.3-1.95-2.61-3.24,.08-.75,1.57-2.06,3.02-3.54,4.07-.5,.03-1,.05-1.49,.08Z"/>
  <path class="cls-7" d="M228.47,60.39c.05,8.17-2.35,15.64-5.49,22.89-.57,1.33-1.59,2.35-2.89,2.94-.02-.38-.03-.77-.04-1.15,.22-.64,.44-1.28,.65-1.93,2.25-.06,1.89-2.13,2.32-3.59,.56-.38,1.24-.92,.89-1.62-.32-.64-.97-.06-1.47,.18-1.09,.53-2.32,.65-3.32,1.45-.44,.35-1.08,.31-.99-.44,.34-2.69-.81-5.61,1.05-8.05,1.37-.11,2.66-.66,3.81-1.38,1.15-.71,3-.37,3.34-2.42,0-.34,.02-.68,.03-1.03,.12-.36,.23-.71,.35-1.07,.7-1.48-.27-2.54-.81-3.7,1.09,.29,1.7-.79,2.58-1.09Z"/>
  <path class="cls-4" d="M171.98,109.81c1.33,.24,1.21-.51,.99-1.55-.38-1.78-.55-3.61-.96-5.38-.3-1.28,0-1.86,1.13-2.35,5.12-2.21,5.27-2.16,6.22,3.74,.14,.85,.1,1.73,.14,2.6,.26,.51-1.84,1.16,.08,1.56-2.13,1.28-4.47,1.88-6.79,2.57-.09-.54-.9-.51-.81-1.2Z"/>
  <path class="cls-13" d="M172.79,111.01c2.32-.69,4.66-1.29,6.79-2.57,2.02-.8,4.02-1.67,6.07-2.36,.65-.22,1.49-1.63,2.12-.08,.5,1.26-.28,1.9-1.32,2.28-2.38,.88-4.83,1.61-7.1,2.76-2.11,1.07-4.73,.91-6.37,3.1,0,0,.05-.06,.05-.06-.15-.31-.38-.42-.69-.33-.71-.29-1.1,.12-1.39,.75-2.56,.2-2.86-.12-2.01-2.21,.24,.13,.39,.06,.47-.22,1.2-.08,2.33-.45,3.39-1.06Z"/>
  <path class="cls-11" d="M73.53,155.9c.36,.14,.74,.26,1.08,.44,1.55,.81,3.94,1.7,3.83,3.25-.1,1.32-2.5,2.32-4.23,2.79,.23-2.22-1.4-4.21-.69-6.49Z"/>
  <path class="cls-13" d="M157.81,116.22c1.29-.35,1.74,.35,1.56,1.01-.65,2.39-2.92,1.35-4.34,2.2-.69,.42-.96-.69-.87-1.14,.5-2.48,2.82-1.17,3.64-2.08Z"/>
  <path class="cls-14" d="M163.73,116.71c-1.33,.37-1.7-.54-1.65-1.24,.11-1.62,1.51-1.15,2.42-1.45,.85-.28,1.23,.26,1.23,1.09-.01,1.71-1.38,1.34-1.99,1.6Z"/>
  <path class="cls-7" d="M325.13,24.03c-.4,0-.65,.21-.79,.61-2.2,.23-4.03,1.64-6.11,2.26-.09-.13-.18-.26-.27-.4,2.73-1.9,5.88-2.68,8.84-3.98-.09,1.12-1.27,.8-1.68,1.5Z"/>
  <path class="cls-6" d="M170.93,114.49c.3-.62,.69-1.04,1.39-.75-.23,.78-.73,.93-1.39,.75Z"/>
  <path class="cls-5" d="M74.74,163.88c0,.14-.02,.28-.06,.42-.14-.11-.27-.22-.41-.32,.14-.09,.3-.12,.46-.1Z"/>
  <path class="cls-12" d="M326.34,21.14c-.18,.08-.36,.17-.53,.25,.08-.34,.21-.53,.53-.25Z"/>
  <path class="cls-6" d="M169.39,112.06c-.08,.27-.23,.35-.47,.22,.16-.07,.31-.15,.47-.22Z"/>
  <path class="cls-8" d="M285.95,95.11c-.34,1.34-.78,2.5-.91,3.7-.49,4.48,.79,8.07,4.5,10.48,2.43,1.57,2.54,3.65,.47,5.78-2.65,2.73-3.41,9.62-1.46,13.3,1.81,3.42,1.45,5.27-1.5,7.3-3.11,2.14-5.14,5.22-6.38,8.9-.47,1.4-.77,1.92-2.33,1.37-3.61-1.28-6.78-.78-9.48,2.78-1.44,1.9-4.43,2.25-6.2,1.38-4.48-2.2-8.64-1.11-12.9,.17-1.54,.46-3.01,1.21-4.52,1.79-.72,.28-1.62,1.5-2.12-.12-.34-1.11-1.61-2.15,.15-3.56,4.16-3.32,5.12-8.63,6.27-13.68,.69-3.05,1.04-6.2,1.53-9.31,.19-1.22,.33-2.38,1.45-3.14,1.27-.86,1.6-2.44,1.73-3.88,.35-4.11,1.24-7.78,3.81-11.13,3.33-4.33,3.93-10,4.96-15.35,.35-1.83,.78-2.9,2.78-3.07,2.32-.2,4.25-1.89,6.34-2.91,.96-.47,1.46-.35,1.97,.52,1.45,2.46,3.72,3.58,6.19,4.07,2.24,.44,3.47,2.3,5.08,3.64,.28,.24,.41,.7,.56,.97Z"/>
  <path class="cls-4" d="M197.51,87.2c.76,11.92,1.57,23.37,2.19,34.83,.3,5.56,2.29,10.64,3.36,15.98,.73,3.68,1.48,7.36,2.05,11.07,.46,3.03-.38,3.81-3.16,3.32-4.75-.84-4.72-.84-5.26-6.11-1.13-11.01-3.59-21.77-5.28-32.67-.76-4.92-1.13-9.93-1.97-14.81-1.14-6.58-1.27-13.16-1.41-19.77-.11-5.2,1.78-9.67,5.71-12.6,4.58-3.41,8.84-4.69,13.69-.43,1.7,1.5,1.49,6.25-.49,7.12-2.15,.95-4.02,2.57-6.78,1.81-1.72-.47-2.24,1.92-2.51,3.54-.5,3.04-.21,6.12-.13,8.72Z"/>
  <path class="cls-4" d="M219.04,142.47c-1.38,.87-1.66-.92-2.53-1.24-3.9-1.45-3.77-4.87-3.82-8.48-.19-13.76-1.36-27.47-2.09-41.2-.42-8.05-.56-16.11-.7-24.17-.08-4.58,1.75-6.74,6.2-7.84,3.94-.98,8.04,.86,9.56,4.23,.26,.59,.14,.99-.17,1.43-1.26,.57-2.5,1.2-3.78,1.7-.58,.23-1.54,.57-1.8,.28-1.9-2.04-1.75,.07-2.04,1.14-.25,.92-.45,1.87-.57,2.82-1.45,11.96,.6,23.74,1.51,35.58,.54,7.06,1.14,14.11,1.01,21.19-.08,4.72-.45,9.44-.69,14.16-.1,.12-.12,.25-.08,.4Z"/>
  <path class="cls-4" d="M250.17,122.39c-.6,5.81-1.48,11.69-3.27,17.32-.77,2.42-2.26,4.59-3.54,6.78-.44,.74-1.22,1.84-2.14,1.19-.88-.63-1.95-1.23-1.96-2.93,0-2.48,.94-4.77,.85-7.22-.27-7.95-1.38-15.8-2.56-23.62-1.13-7.49-2.04-14.89,.82-22.24,.81-2.09,2.24-3.58,3.27-5.43,.3-.53,.79-1.27,1.55-.94,.6,.27,.48,1.03,.56,1.63,.62,4.68,1.07,9.4,1.94,14.03,.79,4.24,2.06,8.36,3.08,12.55,.71,2.87,1.28,5.78,1.41,8.9Z"/>
  <path class="cls-4" d="M250.89,57.37c.28,6.31,1.78,12.24,2.23,18.31,.37,5.06,.56,10.18-.15,15.22-.37,2.63-1.25,5.18-1.94,7.75-.28,1.05-.97,1.83-1.78,2.42-.98,.72-1.77,.79-2.03-.85-1.78-11.07-3.76-22.1-5.33-33.21-.82-5.82-.6-11.7,1.59-17.3,2.05-5.24,6.78-6.03,11.1-3.9,.77,.38,2.35,4.49,2.08,5.28-.27,.78-.96,.82-1.57,1.01-1.11,.34-2.45-.71-3.37,.63-.99,1.45-.72,3.18-.82,4.62Z"/>
  <path class="cls-4" d="M222.77,137.03c.13-7.97,.36-15.97,1.82-23.78,1.32-7.07,3.85-13.79,6.31-20.48,.91-2.48,3.26-3.56,5.48-4.36,1.23-.44,1.76,.07,1.19,1.65-2.1,5.86-3.4,11.85-2.06,18.2,.61,2.9-.48,5.63-1.51,8.12-.98,2.39-1.54,4.75-1.45,7.28,.08,2.16-.18,4.14-1.19,6.04-2.85,5.35-2.22,11.36-2.65,17.17-.09,1.22-.02,2.45-.02,3.68,0,2.27-1.79,3.01-3.16,3.38-1.54,.42-1.78-1.59-1.93-2.76-.63-4.68-.85-9.41-.83-14.15Z"/>
  <path class="cls-4" d="M210.2,108.29c1.06,13.99,1.56,28.01,1.52,42.04,0,1.2-.33,1.91-1.5,1.73-1.47-.23-3.5,.5-3.78-2.13-.76-7.34-2.3-14.54-4.21-21.57-2.12-7.82-1.21-15.57-.99-23.38,.03-.9,.3-1.5,1-1.92,1.79-.65,2.86-2.49,4.65-3.23,1.54-.63,2.34-.82,2.16,1.45-.13,1.73,0,3.48-.03,5.23,0,.92-.03,1.81,1.16,1.78Z"/>
  <path class="cls-4" d="M278.42,69.43c-3.12,.14-5.73-1.45-8.25-2.97-3.47-2.08-6.28-5.04-8.23-8.9-1.76-3.48-4.09-6.62-4.86-10.67-.66-3.45-1.22-7,1.32-9.64,2.8-2.93,6.39-3.47,10.08-2.09,2.97,1.11,5.72,2.67,7.74,5.46,.92,1.26,1,2.15-.59,2.68-1.97,.65-3.71,1.96-5.95,1.83-1.69-.1-1.79,1.58-1.5,2.88,.77,3.46,1.98,6.66,4.04,9.59,1.88,2.68,3.14,5.88,4.65,8.86,.49,.96,.79,2.04,1.57,2.99Z"/>
  <path class="cls-4" d="M262.62,82.53c-.06,6.48-1.18,12.23-2.92,17.8-.84,2.68-2.23,5.18-3.5,7.68-1.05,2.06-2.98,2.81-4.92,3.48-1.08,.37-1.66,.05-1.92-1.17-.42-1.96-.92-3.9-1.34-5.85-.13-.59-.17-1.17,.56-1.5,4.39-1.98,5.18-6.29,5.64-10.71,.83-7.98,.45-15.95-.36-23.9-.19-1.83,.3-2.6,1.83-3.29,5.22-2.33,5.15-2.4,6.05,3.58,.72,4.79,.37,9.63,.88,13.88Z"/>
  <path class="cls-11" d="M211.47,162.92c6.19-1.92,11.69-4.95,17.37-7.47,.62-.27,1.17-.45,1.84-.14,2.05,.97,3.91,.66,5.53-1.08,.17-.18,.37-.35,.59-.43,1.93-.7,10.21,2.42,11.33,4.17,.56,.87-.07,1.07-.49,1.38-10.3,7.44-21.11,11.39-33.29,5.68-.93-.44-1.97-.76-2.88-2.1Z"/>
  <path class="cls-11" d="M146.1,163.13c3.1-2.61,6.58-3.75,9.75-5.52,4.79-2.69,9.84-4.58,15.25-5.22,3.92-.46,7.59,.02,11.43,2.73-6.36,2.43-11.16,7.08-17.27,8.84-6.4,1.85-12.68,1.97-19.16-.83Z"/>
  <path class="cls-4" d="M174.49,114.42c1.73-1.96,4.31-1.52,6.37-2.66,1.07-.6,1.09,1.52,2.13,2.03,1.01,.49-.71,1-.58,1.76-.25,.7-.71,1.29-.27,2.18,2.44,4.94,3.26,10.54,5.32,15.65,.85,2.11,2.15,3.82,3.15,5.77,.57,1.12,.68,1.79-.4,2.56-1.13,.79-2.33,1.46-3.25,2.63-.85,1.09-1.2-.13-1.54-.69-1.97-3.27-4.23-6.37-5.28-10.19-1.76-6.39-4.93-12.28-5.66-19.04Z"/>
  <path class="cls-4" d="M147.31,108.92c3.29-2,4.15-5.66,5.17-9.16,.75-2.59,1.26-5.26,2.39-7.71,2.07-4.5,5.38-7.33,9.87-8.33,3.13-.7,6.05,.19,8.64,2.29,1.1,.89,1.52,1.7-.19,2.26-2.17,.7-4.16,2.01-6.68,1.4-1.66-.4-3.26,.66-4.26,2.34-.88,1.47-1.52,3.07-2.07,4.73-1.06,3.18-2.03,6.39-3.41,9.45-2.01,4.46-5.3,5.5-9.44,2.73Z"/>
  <path class="cls-11" d="M155.83,155.96c-8.57,4.65-16.57,9.72-26.07,10.16-2.48,.12-4.97-.24-7.19-1.7-1.04-.69-1.26-1.25,.08-1.87,6.24-2.9,12.29-6.44,18.74-8.54,4.53-1.47,9.51-.32,14.44,1.95Z"/>
  <path class="cls-11" d="M292.25,84.26c-3.33-.95-6.45-2.5-9.79-3.29-2.12-.5-4.26-.79-6.39-1.11-5.3-.8-8.51-4.47-10.88-9.21-.75-1.49-.08-3.18,.87-4.56,.45-.66,.8-.22,1.18,.07,3.87,2.93,8.08,4.59,12.8,5.4,6.03,1.04,12.28,7.25,12.2,12.7Z"/>
  <path class="cls-1" d="M269.24,158.89c3.78-3.44,7.52-6.94,11.36-10.29,2.03-1.77,4.69-2.16,7.01-3.31,.58-.29,1.16-.18,1.33,.59,.61,2.6,1.38,5.08-.21,7.76-3.16,5.33-7.24,9.02-13.16,9.78-1.98,.26-4,.25-5.86-.79-.16-1.25-.32-2.49-.48-3.74Z"/>
  <path class="cls-11" d="M245.44,170.96c-.54,1.04-1.52,.95-2.33,1.17-7.19,1.95-14.43,3.34-21.89,2.61-5.05-.5-9.28-2.52-12.03-7.44-.21-.37-.45-.73-.63-1.12-.3-.62-1.68-.88-.99-1.68,.61-.71,1.77-1.14,2.84-.32,1.71,1.31,3.62,2.18,5.6,2.94,7.28,2.81,14.48,2.61,21.59-.53,1.44-.64,2.44-.6,3.59,.59,1.31,1.37,2.81,2.52,4.25,3.78Z"/>
  <path class="cls-11" d="M171.3,162.86c10.58-6.32,20.42-12.45,32.54-8.26-1.85,2.87-13.41,9.18-18.79,10.06-4.44,.73-8.92,1.03-13.75-1.8Z"/>
  <path class="cls-11" d="M99.39,164.04c5.59-3.57,10.33-8.43,16.67-9.82,5.12-1.12,10.28-1.33,15.55,2.31-5.54,2.78-10.47,5.56-15.77,7.39-5.38,1.85-10.81,2.04-16.44,.12Z"/>
  <path class="cls-1" d="M268.27,163.57c7.29,3.21,14.03,.56,19.39-5.95,1.2-1.45,2.28-2.73,4.22-3.07,3.37-.59,6.62-1.77,9.92-3.11-1.59,8.08-9.6,14.58-16.82,16.05-4.13,.84-8.23,1.23-12.41,.17-2.27-.58-4.22-1.57-5.78-3.44,.5-.22,.99-.43,1.49-.65Z"/>
  <path class="cls-7" d="M185.8,85.75c.16-.02,.4-.12,.47-.04,1.68,1.95,.43,4.39,.91,6.55,.28,1.26-.65,1.6-1.51,1.95-6.95,2.89-13.92,5.69-21.18,7.53-1.54,.39-3.06,.83-5.04,1.37,1.12-2.71,1.05-5.54,3.21-7.33,4.09-1.23,7.98-3.01,11.75-5.12,3.96-1.2,7.72-2.95,11.4-4.91Z"/>
  <path class="cls-2" d="M300.83,101.6c-.06,.62-.05,1.42-.22,2.18-.16,.75-.36,1.71-1.08,1.93-.72,.22-.91-.83-1.4-1.24-2.81-2.41-5.28-5.25-7.99-7.8-3.66-3.44-8.1-6.5-9.15-12.35-.17-.94-.67-2.04,1-1.74,8.29,1.47,14.54,5.94,18,14.52,.26,.64,.5,1.3,.62,1.98,.14,.77,.14,1.57,.21,2.53Z"/>
  <path class="cls-4" d="M237.13,122.25c1.27,8.44,1.67,16.8,.42,25.18-.26,1.74-.76,3.39-1.59,4.93-.9,1.66-2.31,2.24-3.9,1.95-1.71-.31-1.92-1.91-1.88-3.48,.16-6.79-.86-13.83,2.26-20.12,1.41-2.85,3.05-5.62,4.7-8.46Z"/>
  <path class="cls-11" d="M244.55,163.06c7.37-4.97,14.1-10.53,22.67-12,.32-.05,.64-.13,.95-.11,1.84,.16,4.36-.05,5.13,1.47,.66,1.3-1.93,2.04-3.01,3.11-3.86,3.83-8.01,7.19-13.21,8.66-4.21,1.19-8.22,.47-12.54-1.12Z"/>
  <path class="cls-2" d="M295.15,122.76c3.81,6.44,4.84,13.02,3.69,20.09-.6,3.69-2.92,5.84-5.47,7.85-1.01,.8-1.3,.36-1.49-.82-.47-2.91-1.56-5.8-1.5-8.68,.13-6.44,1.18-12.75,4.77-18.45Z"/>
  <path class="cls-11" d="M170.65,170.95c-5.12,3.35-10.55,3.88-16.1,2.78-4.53-.89-8.74-2.79-11.82-6.82-.43-.56-1.25-1.18-.83-2,.41-.8,1.37-.89,2.17-.82,.7,.06,1.41,.28,2.08,.55,5.57,2.23,11.25,2.73,17.04,1.3,1.66-.41,3-.48,3.92,1.61,.64,1.47,1.85,2.62,3.53,3.41Z"/>
  <path class="cls-2" d="M293.21,101.56c6.62,5.82,9.11,13.24,10.16,21.5,.39,3.06-.39,5.7-1.95,8.15-.37,.59-1.13,1.69-1.41,.11-1.06-5.84-4.12-10.75-6.17-16.12-1.67-4.38-1.14-8.65-.62-13.65Z"/>
  <path class="cls-11" d="M122,171.78c-5.94,1.96-11.21,3.85-16.71,2.27-3.43-.98-6.91-2.31-9.06-5.84-.41-.67-1.31-1.42-.46-2.26,.6-.6,1.32-1.36,2.35-.95,5.36,2.17,10.82,2.18,16.33,.84,.58-.14,1.11-.24,1.47,.44,1.26,2.41,3.1,4.14,6.09,5.5Z"/>
  <path class="cls-11" d="M193.55,163.87c9.49-7.72,18.97-12.21,30.28-7.94-9.55,4.14-18.75,9.95-30.28,7.94Z"/>
  <path class="cls-2" d="M300.7,134.22c4.82-4.04,4.95-9.42,3.94-15.17-.37-2.09-1.69-3.71-2.22-5.72-.26-.99-.57-2.15,.36-2.58,2.44-1.14,3.64-3.49,5.08-5.68,5.92,9.28,5.08,24.95-7.16,29.16Z"/>
  <path class="cls-2" d="M301.36,110.12c-1.05-1.16-1.41-2.47-.5-3.94,1.91-3.1,1.46-6.29,.33-9.49-.96-2.72-2.3-5.21-4.22-7.26-.4-.42-.82-.86-.41-1.23,1.79-1.61,1.24-4.49,2.92-6.07,.13-.12,.83,.41,1.22,.7,4.14,3.09,5.93,7.59,6.36,12.86,.06,.78-.03,1.59,.06,2.36,.65,5.48-1.26,9.5-5.76,12.05Z"/>
  <path class="cls-11" d="M297.69,80.2c.21,2.45-1.62,4.05-2.19,6.18-.15,.58-.86,.42-1.12-.13-.29-.61-.56-1.27-.65-1.94-.88-6.72-4.83-10.57-10.28-12.89-1.97-.84-3.24-1.57-1.64-4.05,.48-.74,.7-1.8,.76-2.73,.13-2.32,1.16-2.42,2.63-1.38,5.1,3.59,9.51,7.9,12.04,14.11,.13,.32,.2,.67,.24,1.01,.08,.6,.13,1.22,.2,1.82Z"/>
  <path class="cls-11" d="M270.23,169.1c-8.02,2.59-15.95,4.54-23.99,.39-1.35-.7-2.43-1.68-3.53-2.67-.51-.47-1.79-.8-1.07-1.91,.56-.86,1.54-1.12,2.61-.61,1.7,.81,3.5,1.23,5.32,1.58,4.19,.8,8.17-.1,11.97-1.9,1.24-.59,1.86-.45,2.88,.51,1.78,1.68,3.71,3.2,5.81,4.61Z"/>
  <path class="cls-11" d="M133.69,173.3c-5.36,.25-9.97-1.83-14.36-4.7-.53-.35-1.04-.92-1.3-1.52-.29-.68-1.64-1.21-.65-2.11,.76-.69,1.96-1.45,2.89-.64,5.26,4.56,11.09,3.35,16.82,1.87,2.28-.59,3.56-.3,4.95,1.86,2.46,3.81,2.61,3.7-1.74,4.52-2.22,.42-4.44,.8-6.61,.72Z"/>
  <path class="cls-11" d="M193.56,171.06c-4.93,1.85-9.99,2.02-15.11,1.27-2.82-.41-5.38-1.64-7.89-3.04-.83-.46-1.47-1.07-1.97-1.85-.5-.79-1.76-1.61-1.02-2.6,.74-1,2.11-1.34,3.3-.61,3.75,2.31,7.82,2.38,11.95,2.14,.16,0,.34,.04,.48-.03,4.82-2.31,7.7,.61,10.27,4.72Z"/>
  <path class="cls-2" d="M309.06,130.2c2.87,11.24-2.38,19.02-14.48,21.77,.77-1.79,2.6-2.25,3.51-3.76,1.78-2.96,2.41-6.25,2.46-9.72,.01-.95-.18-2.04,.82-2.54,2.82-1.41,5.44-3.16,7.69-5.75Z"/>
  <path class="cls-7" d="M146.18,101.49c1.29-.66,2.59-1.33,4.04-2.07-.1,1.06-.12,1.99-.29,2.89-.54,2.84-1.68,5.03-4.73,5.24-1.18,.08-2.34,.73-2.59,2-.28,1.44,1.04,2.06,1.96,2.63,.59,.36,1.28,.66,1.27,1.38-.02,1.13-1.06,.78-1.67,1-3.65,1.32-7.29,1.64-11.13,.72-3.06-.74-2.82-3.18-1.15-5,2.78-3.04,5.98-5.49,9.79-6.86,.15,.18,.3,.35,.45,.53q-7.52,5.09-7.32,6.85c1-.94,1.83-2.1,2.92-2.69,2.64-1.42,4.9-3.6,7.79-4.5,.96-.3,.93-.43,.68-1.53,0-.19-.01-.39-.02-.58Zm-11.75,8.95c-.75,1.05-.86,1.87-.28,2.42,1.83,1.74,3.83,.43,5.77,.36-1.75-1.08-4.5,.79-5.5-2.78Z"/>
  <path class="cls-13" d="M219.13,142.07c.24-4.72,.61-9.43,.69-14.16,.12-7.08-.47-14.13-1.01-21.19-.91-11.84-2.96-23.62-1.51-35.58,.12-.95,.31-1.9,.57-2.82,.3-1.07,.14-3.19,2.04-1.14,.27,.29,1.23-.05,1.8-.28,1.28-.51,2.52-1.13,3.78-1.7,.41,0,.81-.01,1.22-.02-.12,.36-.23,.71-.35,1.07-2.19,.91-4.39,1.8-6.57,2.74-.56,.24-1.65,.32-.69,1.46,.03,.2,.06,.41,.09,.61-1.86,2.44-.71,5.37-1.05,8.05-.09,.76,.55,.79,.99,.44,1-.81,2.24-.92,3.32-1.45,.49-.24,1.15-.82,1.47-.18,.35,.7-.33,1.24-.89,1.62-1.75,.45-3.21,1.11-2.32,3.59-.22,.64-.44,1.28-.65,1.93-.17,.02-.34,.05-.51,.07-.12-.75-.24-1.5-.36-2.26,.1-.59,.39-1.39-.36-1.53-.84-.16-.67,.74-.7,1.29-.42,6.52,.62,12.96,1.18,19.41,.37,4.34,1.15,8.65,1.43,13.02-.02,3.73-.04,7.47-.06,11.2-.37,3.93,.4,7.92-.57,11.82-.17,.67,.37,1.08,.84,1.42,.04,.31,.09,.62,.13,.93-.71,.28-.98,.88-1.01,1.65l-.9-.03Z"/>
  <path class="cls-11" d="M205.57,172.75c-5.82,.08-10.6-1.64-14.16-6.42-.36-.48-1.16-1-.5-1.75,.46-.52,1.18-.56,1.8-.21,3.74,2.1,7.62,1.56,11.52,.8,.67-.13,1.47-.66,1.92,.34,.93,2.08,2.63,3.44,3.88,5.22,.93,1.33,.38,1.65-.74,1.76-1.36,.13-2.72,.19-3.73,.25Z"/>
  <path class="cls-4" d="M221.53,90.39c1.48-1.05,2.78-2.5,3.54-4.07,1.29-2.69,2.14-1.38,3.24-.08,1.55,4.42,1.27,8.55-1.26,12.55-.82,1.3-.98,3.09-1.65,5.35-2.03-4.76-3.06-9.21-3.86-13.74Z"/>
  <path class="cls-7" d="M206.98,76.37c.93-.19,1.49-.04,1.48,1.26-.01,1.82-.26,3.67,.21,5.46,.23,.88-.28,1-.83,1.25-2.59,1.15-5.17,2.34-7.75,3.51-.49,.22-1.28,.71-1.25-.31,.09-2.55-.99-5.2,.47-7.64,2.47-1.11,5.31-1.32,7.26-3.66,0,0-.02,.02-.02,.02,.14,.03,.28,.07,.42,.1Z"/>
  <path class="cls-4" d="M263.86,82.54c.27-1.78-.74-4.01,1.21-5.46,.46-.34,1.11-.97,1.44-.83,2.08,.89,3.36,3.07,5.43,4.12,.53,.27,.45,2.08,.56,3.19,.02,.25-.27,.68-.52,.8-2.04,1-3.91,2.39-6.1,3.04-1.56,.47-2.26,0-2.04-1.87,.11-.95,.02-1.92,.02-3Z"/>
  <path class="cls-4" d="M279.85,68.7c-1.9-3.54-3.63-6.86-5.46-10.11-.59-1.04-.41-1.5,.57-1.89,1.72-.7,3.43-1.42,5.11-2.21,.89-.42,1.41-.21,1.54,.83,.56,4.57,.22,9-1.76,13.38Z"/>
  <path class="cls-4" d="M195.92,149.43c-.92,.8-1.78,1.7-2.78,2.34-.74,.47-1.57,.2-2.12-.62-.66-.99-1.44-1.77-2.46-2.39-2.08-1.27-2.17-1.94-.31-3.73,1.48-1.42,3.2-2.55,4.84-3.77,.43-.32,1.14-.79,1.33,.16,.53,2.59-.11,5.41,1.49,8.01Z"/>
  <path class="cls-4" d="M218.97,152.71c-3.55-.03-6.17-2.94-6.16-6.68,0-.7-.06-1.41,.01-2.1,.11-.92-.51-2.31,.27-2.66,.89-.39,1.88,.58,2.72,1.22,2.85,2.18,4.37,5.31,5.1,8.89,.44,2.16-1.33,.96-1.94,1.33Z"/>
  <path class="cls-7" d="M256.77,54.13c3.07,.58,3.61,3.78,5.09,5.97,.55,.82-.36,.92-.83,1.13-2.07,.9-4.16,1.74-6.2,2.71-1.08,.51-1.51,.05-1.62-1.02-.18-1.73-.31-3.47-.41-5.21-.08-1.28,1.05-1.33,1.68-1.92,.72-.69,2.24-.03,2.33-1.7l-.04,.04Z"/>
  <path class="cls-11" d="M261,151.07c-3.8,1.64-7.09,4.22-10.66,6.24-.23,.13-.67,.12-.88-.03-1.5-1.05-2.98-2.16-4.71-3.44,5.45-2.14,10.43-5.09,16.25-2.77Z"/>
  <path class="cls-11" d="M162.89,152.57c-.56,.3-.93,.46-1.27,.68-2.44,1.6-4.79,2.31-7.59,.56-1.51-.95-3.51-.94-5.3-1.37,2.55-3.81,11.33-5.37,14.16,.14Z"/>
  <path class="cls-11" d="M174.36,150.78c6.8-4.27,11.36-3.35,15.44,1.37-2.93,1.45-5.64,3.15-8.8,.51-1.75-1.46-4.06-1.43-6.64-1.88Z"/>
  <path class="cls-4" d="M202.66,96.22c-.4-2.53,.17-5,.44-7.48,.09-.8,4.76-3.06,5.46-2.82,.55,.18,.44,.67,.44,1.05,.01,1.65-.02,3.31-.04,4.96-.01,.41,.08,1.14-.05,1.19-2.17,.83-3.67,3.3-6.25,3.1Z"/>
  <path class="cls-11" d="M125.29,152.46c4.4-2.44,8.75-3.14,13.25-.84,.51,.26,1.19,.42,1.14,1.14-.04,.53-.65,.67-1.11,.83-.45,.16-.92,.3-1.33,.55-2.46,1.48-4.76,2.55-7.28-.21-1.06-1.16-2.95-1.23-4.67-1.48Z"/>
  <path class="cls-2" d="M286.39,100.22c.02-.2,.03-.81,.13-1.41,.45-2.66,.86-2.86,2.71-.95,.9,.93,2.67,1.13,2.7,2.73,.04,2.17-.26,4.36-.56,6.51-.18,1.27-.99,.79-1.64,.39-2.06-1.27-3.38-3.96-3.34-7.26Z"/>
  <path class="cls-3" d="M202.66,96.22c2.59,.2,4.08-2.27,6.25-3.1,.13-.05,.04-.78,.05-1.19,1.6,2.91,.47,6.09,.72,9.13,.2,2.41,.34,4.82,.51,7.23-1.19,.03-1.17-.86-1.16-1.78,.02-1.74-.11-3.5,.03-5.23,.17-2.27-.62-2.08-2.16-1.45-1.79,.74-2.86,2.58-4.65,3.23-.16-.02-.32-.08-.47-.05-2.42,.49-2.82-.92-2.44-3.08,.26,0,.52,0,.79,0,.08,1.18,.29,2.06,1.69,1.27,1.97-1.11,3.96-2.2,6-3.14,.94-.44,1.34-1.14,1-2-.45-1.18-1.29-.49-2-.15-2.02,.98-3.78,2.61-6.05,2.97,.01-.39,.03-.77,.04-1.16,.9-.1,1.6-.49,1.85-1.53Z"/>
  <path class="cls-2" d="M292.32,115.3c.31,.62,.46,.93,.63,1.22,1.49,2.65,2.06,5.25-.19,7.81-.37,.42-.5,1.1-.82,1.58-.49,.74-.33,2.29-1.39,2.17-1.2-.14-1.27-1.69-1.46-2.71-.74-3.96,.24-7.34,3.24-10.08Z"/>
  <path class="cls-2" d="M282.23,145.55c.54-3.72,3-5.87,5.12-8.28,.32-.37,.78-.73,1.27-.53,.57,.23,.37,.88,.41,1.37,0,.09,0,.17,0,.26,.18,4.43,.15,4.36-3.6,6.05-1.03,.47-2.21,.35-3.21,1.12Z"/>
  <path class="cls-11" d="M86.3,155.23c-1.05,.66-1.87,1.18-2.7,1.69-3.23,2.02-4.79,1.72-7.28-1.28-.47-.57-.61-.88,.09-1.39,2.42-1.78,7.22-1.42,9.89,.97Z"/>
  <path class="cls-11" d="M280.64,88.78c-3.69-.34-6.21-2.75-6.77-6.43-.06-.4-.06-1.13,.08-1.19,1.42-.56,2.76,.44,4.17,.39,.77-.02,1.2,.41,1.2,1.26,0,2.09,.81,3.98,1.32,5.97Z"/>
  <path class="cls-11" d="M115.07,152.7c-3.73,3.68-7.21,.23-10.85-.12,1.92-2.9,6.67-2.83,10.85,.12Z"/>
  <path class="cls-1" d="M278.52,148.09c.06,.58-3.6,3.19-4.44,2.88-.76-.27-1.49-.63-2.25-.91-.49-.18-1.28,.13-1.42-.61-.14-.76,.51-1.22,1.06-1.58,1.95-1.27,3.98-1.83,6.15-.64,.31,.17,.84-.03,.9,.84Z"/>
  <path class="cls-9" d="M287.73,40.95c-1.99,2.05-4.72,2.36-7.1,3.46-3.5,1.61-6.95,3.45-10.66,4.49-.46-.26-.6-.69-.56-1.22,1.77-.15,3.58-.19,4.74-2.03,0,0-.02,.02-.02,.02,.58,.1,1.19,.3,1.48-.55l-.03,.03c1.21-.35,2.7,.02,3.4-1.61,0,0-.02,.02-.02,.02,1.46,.36,2.56-.74,3.85-1.11,1.65-.47,3.06-1.88,4.92-1.49Z"/>
  <path class="cls-4" d="M251.33,120.47c-.32-2.01-.48-3.81-.93-5.52-.34-1.29,.18-1.74,1.09-2.09,1.48-.57,2.44-.62,1.99,1.72-.39,2.04-.13,4.28-2.15,5.89Z"/>
  <path class="cls-4" d="M236.23,114.28c1.16,4.56,1.01,5.33-1.73,9.34-.26-2.51,.38-6.11,1.73-9.34Z"/>
  <path class="cls-4" d="M240.35,152.84c-.64-.61-2.64,.76-2.38-1.5,.11-.91-.05-2.87,1.34-2.73,1.56,.15,2.1,1.98,2.45,3.47,.27,1.17-.62,.86-1.41,.76Z"/>
  <path class="cls-9" d="M185.8,85.75c-3.68,1.97-7.44,3.72-11.4,4.91-.07-.07-.13-.15-.2-.22,.36-.73,1.47-.75,1.43-1.85,.15-.09,.31-.18,.46-.28,.5,.92,1,.65,1.49,0,0,0-.03,.02-.03,.02,2.73-1.08,5.46-2.16,8.2-3.23,.02,.22,.03,.43,.05,.65Z"/>
  <path class="cls-9" d="M174.4,90.67c-3.77,2.1-7.66,3.88-11.75,5.12-.03-.31-.06-.63-.08-.95,3.07-.88,5.94-2.29,8.74-3.89h-.02c.45,.1,.9,.17,.99-.53,0,0,0,0,0,0,.64,.01,1.28,.02,1.92,.03,.07,.07,.13,.15,.2,.22Z"/>
  <path class="cls-7" d="M287.73,40.95c-1.87-.39-3.28,1.02-4.92,1.49-1.28,.37-2.39,1.47-3.85,1.11,3.34-2.43,7.28-3.33,10.89-5.07,.12,.17,.24,.34,.36,.51-.76,.78-2.21,.49-2.52,1.97h.04Z"/>
  <path class="cls-7" d="M199.28,79.03c-.29-.25-.43-.7-.12-.84,2.95-1.31,5.92-2.56,9.05-3.9,0,1.48-.82,1.06-1.19,1.38-.31,.06-.48,.24-.46,.6l.02-.02c-2.62,.34-4.87,1.87-7.31,2.78Z"/>
  <path class="cls-7" d="M185.75,85.1c-2.73,1.08-5.46,2.16-8.2,3.23-.23-1.22,.82-1.16,1.34-1.41,2.19-1.05,4.43-1.96,6.66-2.91,.35-.15,.83-.5,1.02,.04,.25,.71-.64,.61-.83,1.05Z"/>
  <path class="cls-9" d="M240.29,63.17c-.91-.73-1.76-.39-2.68,.05-1.75,.84-3.54,1.58-5.33,2.32-.97,.4-.96-.11-.59-.86,2.3-.94,4.72-1.57,6.72-3.24,0,0-.02,0-.02,0,.18,.06,.36,.12,.54,.18,.42,.54,1.65,.25,1.35,1.54Z"/>
  <path class="cls-7" d="M171.3,90.95c-2.8,1.61-5.67,3.01-8.74,3.89,.05-.24,.03-.64,.15-.69,2.82-1.19,5.44-3.05,8.59-3.2Z"/>
  <path class="cls-7" d="M293.66,36.89c2.65-1.15,5.29-2.3,7.94-3.45,.09,.12,.18,.25,.27,.37-2.39,1.8-5.16,2.57-7.88,3.48-.11-.13-.22-.27-.33-.4Z"/>
  <path class="cls-9" d="M199.28,79.03c2.44-.91,4.68-2.44,7.31-2.78-1.95,2.33-4.79,2.55-7.26,3.66-.01-.29-.03-.58-.04-.87Z"/>
  <path class="cls-1" d="M269.24,158.89c.16,1.25,.32,2.49,.48,3.74-1.04-.27-2.49-.42-2.59-1.66-.08-.96,1.17-1.64,2.11-2.08Z"/>
  <path class="cls-5" d="M220.03,142.1c.04-.77,.3-1.37,1.01-1.65,0,.36,.16,.55,.49,.57,.06,1.02,.15,2.03,.16,3.05,0,.55-.25,.93-.84,.99-.65,.06-.79-.36-.86-.9,.01-.69,.02-1.38,.04-2.06Z"/>
  <path class="cls-7" d="M238.41,61.44c-2,1.68-4.42,2.3-6.72,3.24,0-.37-.02-.74-.03-1.11,2.37-.24,4.25-2.35,6.75-2.13Z"/>
  <path class="cls-7" d="M301.59,33.44l6.63-2.92c.1,.17,.19,.34,.29,.51-2.08,1.33-4.28,2.29-6.65,2.78-.09-.12-.18-.25-.27-.37Z"/>
  <path class="cls-7" d="M308.23,30.52c1.61-.67,3.22-1.33,4.83-2,.1,.14,.21,.28,.31,.42-1.5,1-3.1,1.74-4.85,2.08-.1-.17-.19-.34-.29-.51Z"/>
  <path class="cls-7" d="M274.15,45.64c-1.16,1.84-2.97,1.88-4.74,2.03,1.34-1.33,3.13-1.44,4.74-2.03Z"/>
  <path class="cls-1" d="M268.27,163.57c-.5,.22-.99,.43-1.49,.65-.72-.56-1.44-1.13-2.38-1.87,1.86-.67,2.74,.67,3.86,1.22Z"/>
  <path class="cls-7" d="M146.18,101.49c0,.19,.01,.39,.02,.58-.94,1-2.29,.94-3.38,1.55-.16-.17-.31-.35-.47-.52,1.11-1,2.49-1.27,3.83-1.61Z"/>
  <path class="cls-7" d="M289.84,38.48c1.27-.53,2.54-1.06,3.82-1.59,.11,.13,.22,.26,.33,.4-1.15,.86-2.37,1.53-3.78,1.71-.12-.17-.24-.34-.36-.51Z"/>
  <path class="cls-15" d="M174.2,90.45c-.64-.01-1.28-.02-1.92-.03,.76-1.39,2.21-1.26,3.35-1.82,.04,1.1-1.07,1.12-1.43,1.85Z"/>
  <path class="cls-7" d="M278.98,43.53c-.7,1.63-2.19,1.26-3.4,1.61,.89-1.16,2.11-1.48,3.4-1.61Z"/>
  <path class="cls-7" d="M313.06,28.53c1.06-.78,2.14-1.46,3.48-1.45,.1,.15,.21,.3,.31,.46-1.16,.47-2.32,.95-3.48,1.42-.1-.14-.21-.28-.31-.42Z"/>
  <path class="cls-7" d="M238.94,61.63c-.18-.06-.36-.12-.54-.18,.14-1.4,.98-.93,1.73-.82-.09,.86-.83,.65-1.19,1.01Z"/>
  <path class="cls-7" d="M255.02,54.26c-.72,.79-1.24,1.21-2.12,1.05,.35-1.23,1.08-1.22,2.12-1.05Z"/>
  <path class="cls-9" d="M220.03,142.1c-.01,.69-.02,1.38-.04,2.06-.31-.56-.63-1.13-.94-1.69-.04-.15-.01-.28,.08-.4,.3,0,.6,.02,.9,.03Z"/>
  <path class="cls-7" d="M256.81,54.09h-1.52c.65-.75,1.2-1.28,2.13-.98-.23,.36-.44,.69-.65,1.02,0,0,.04-.04,.04-.04Z"/>
  <path class="cls-10" d="M221.53,141.02c-.33-.02-.49-.22-.49-.57-.04-.31-.09-.62-.13-.93,.31-.03,.62-.06,.94-.09,.08,.57,.27,1.17-.31,1.59Z"/>
  <path class="cls-7" d="M275.61,45.11c-.29,.85-.9,.65-1.48,.55,.38-.55,.88-.71,1.48-.55Z"/>
  <path class="cls-3" d="M229.58,82.64c.03,.52,.05,1.05,.08,1.57-.28-.51-.31-1.03-.08-1.57Z"/>
  <path class="cls-7" d="M177.59,88.31c-.5,.65-.99,.93-1.49,0,.5,0,1,0,1.49,0Z"/>
  <path class="cls-7" d="M316.53,27.07c.38-.49,.91-.5,1.43-.57,.09,.13,.18,.26,.26,.39-.46,.21-.92,.42-1.38,.63-.1-.15-.21-.3-.31-.46Z"/>
  <path class="cls-3" d="M142.34,103.1c.16,.17,.31,.35,.47,.52-.23,.11-.46,.21-.69,.32-.15-.18-.3-.35-.45-.53,.22-.1,.45-.21,.67-.31Z"/>
  <path class="cls-12" d="M172.27,90.42c-.1,.7-.54,.62-.99,.53,.05-.8,.6-.49,.99-.53Z"/>
  <path class="cls-9" d="M206.56,76.26c-.02-.35,.15-.54,.46-.6-.01,.23-.02,.47-.04,.7-.14-.03-.28-.07-.42-.1Z"/>
  <path class="cls-9" d="M316.85,27.53c.46-.21,.92-.42,1.38-.63,2.08-.62,3.91-2.04,6.11-2.26-.02,1.01-.77,1.24-1.42,1.53-8.15,3.54-16.26,7.17-24.47,10.53-3.57,1.46-6.9,3.64-10.75,4.26,.3-1.47,1.76-1.19,2.52-1.97,1.41-.17,2.63-.85,3.78-1.7,2.72-.91,5.49-1.68,7.88-3.48,2.38-.48,4.58-1.45,6.66-2.78,1.74-.34,3.34-1.08,4.85-2.08,1.16-.47,2.32-.95,3.48-1.42Z"/>
  <path class="cls-9" d="M219.18,71.07c-.03-.2-.06-.41-.09-.61,2.41-1.06,4.82-2.12,7.23-3.18-.34,2.05-2.19,1.7-3.34,2.42-1.15,.71-2.43,1.26-3.81,1.38Z"/>
  <path class="cls-7" d="M226.32,67.28c-2.41,1.06-4.82,2.12-7.23,3.18-.96-1.15,.13-1.22,.69-1.46,2.18-.94,4.38-1.83,6.57-2.74,0,.34-.02,.68-.03,1.03Z"/>
  <path class="cls-12" d="M220.7,83.14c-.88-2.48,.58-3.14,2.32-3.59-.44,1.46-.07,3.53-2.32,3.59Z"/>
  <path class="cls-9" d="M142.12,103.94c.23-.11,.46-.21,.69-.32,1.09-.6,2.44-.55,3.38-1.55,.25,1.1,.28,1.23-.68,1.53-2.9,.89-5.16,3.08-7.79,4.5-1.09,.59-1.92,1.75-2.92,2.69q-.21-1.75,7.32-6.85Z"/>
  <path class="cls-9" d="M134.42,110.44c1,3.57,3.75,1.7,5.5,2.78-1.95,.08-3.95,1.38-5.77-.36-.58-.56-.48-1.37,.28-2.42Z"/>
  <path class="cls-3" d="M219.53,85.14c-.68-.64-.37-1.48-.36-2.26,.12,.75,.24,1.5,.36,2.26Z"/>
  <path class="cls-13" d="M200.13,99.95c.21-.35,.43-.7,.64-1.05,2.28-.36,4.03-1.99,6.05-2.97,.7-.34,1.54-1.03,2,.15,.33,.86-.06,1.56-1,2-2.04,.94-4.03,2.03-6,3.14-1.4,.79-1.6-.1-1.69-1.27Z"/>
  <path class="cls-11" d="M76.85,168.38c4.86,.81,9.15,.62,14.15-1.38,2,0,3,0,5.24,2.46,.87,.96,1.76,2.54,1.76,3.54-8.66,2.03-17,2-21.15-4.62Z"/>
</svg>