<?xml version="1.0" encoding="UTF-8"?>
<svg id="Layer_1" data-name="Layer 1" xmlns="http://www.w3.org/2000/svg" viewBox="0 0 414 200">
  <defs>
    <style>
      .cls-1 {
        fill: #f7b7d3;
      }

      .cls-2 {
        fill: #f9ae3f;
      }

      .cls-3 {
        fill: #00bff3;
      }

      .cls-4 {
        fill: #686156;
      }

      .cls-5 {
        fill: #ece3cd;
      }

      .cls-6 {
        fill: #fff9b8;
      }

      .cls-7 {
        fill: #fff200;
      }

      .cls-8 {
        fill: #9ed2f1;
      }

      .cls-9 {
        fill: #332e2c;
      }

      .cls-10 {
        fill: #cac7c1;
      }

      .cls-11 {
        fill: #454039;
      }

      .cls-12 {
        fill: #494541;
      }

      .cls-13 {
        fill: #767575;
      }
    </style>
  </defs>
  <path class="cls-2" d="M149.47,14.11c2.34,0,4.68,0,7.02,0,.07,.68,.04,1.38,.21,2.02,3.96,14.79,7.09,29.8,12.64,44.17,2.85,7.39,5.05,15.05,8.08,22.39,2.05,4.96,4.02,9.97,6.8,14.59,.14,.21,.28,.43,.42,.64,.15,.33,.3,.66,.45,.99,.41,.72,.82,1.44,1.23,2.17,.16,.25,.32,.5,.48,.75,.26,.41,.37,1.1,1.12,.59,0,0,.02,.03,.02,.03-.66,.26-.4,.73-.16,1.06,1.07,1.49,1.82,3.23,3.23,4.48,.08,.3,.18,.58,.55,.62,.19,1.17,2.3,1.46,1.42,3.11-1.69,.48-3.22,1.31-4.68,2.26-.26,.07-.52,.14-.79,.21-.28-.28-.57-.56-.85-.84-.26-.31-.51-.63-.77-.94-.68-.89-1.36-1.79-2.04-2.68-7.08-10.39-11.54-22.09-16.31-33.58-4.49-10.82-7.61-22.17-10.69-33.49-2.58-9.49-4.93-19.03-7.39-28.55Z"/>
  <path class="cls-6" d="M346.96,52.12c-3.52,1.57-7.06,3.13-10.57,4.73-18.53,8.44-37.06,16.9-55.59,25.35-2.52,1.15-2.52,1.14-3.37-1.54,.8-1.89,2.79-3.27,2.39-5.66,1.47,.45,1.95-.49,2.29-1.62,1.21,.1,2.17-.61,3.19-1.07,8.34-3.77,16.66-7.57,24.99-11.38,11.42-5.23,22.83-10.47,34.24-15.7,.81,2.3,1.62,4.6,2.43,6.9Z"/>
  <path class="cls-8" d="M117.19,165.83c1.52-.56,3.05-1.12,4.57-1.67,.22,.23,.35,.13,.43-.12,.36-.25,.72-.5,1.09-.74,.25,.05,.5,.11,.74,.16,.09,.09,.18,.18,.27,.27,.03-.13,.06-.26,.09-.39,0,0,.03-.2,.03-.2,4.94-1.18,9.88-2.42,15.02-1.27,1.55,.35,3.78,.51,4.05,1.95,.21,1.11-2.18,1.37-3.43,1.86-6.1,2.44-12.1,5.2-18.64,6.35-1.19,.21-2.41,.25-3.61,.36-.5,.05-1.23-.14-1.17,.65,.05,.7,.76,.61,1.28,.6,2.82-.07,5.61-.47,8.25-1.44,1.71-.63,3-.44,4.31,.83,1.71,1.67,3.84,2.78,6.34,4.01-2.8,1.17-5.4,1.25-7.8,2.02-3.82,.08-7.65,.25-11.35-1.07-1.08-.39-1.07,.39-.93,1.14-.45-.08-1.08,.24-1.03-.72,.21-4.15,.36-8.3,.53-12.46,.14-.02,.27-.02,.41-.03,.18-.03,.37-.06,.55-.08Z"/>
  <path class="cls-12" d="M149.47,14.11c2.45,9.52,4.81,19.07,7.39,28.55,3.08,11.32,6.19,22.66,10.69,33.49,4.77,11.49,9.23,23.19,16.31,33.58-.23,.28-.46,.55-.69,.83-4.74-6.2-7.86-13.27-11.11-20.29-9.76-21.08-15.64-43.41-21.31-65.81-.76-3.02-1.45-6.05-2.2-9.07-.21-.86-.41-1.6,.93-1.27Z"/>
  <path class="cls-9" d="M259.32,71.43c.11-.51,.23-1.02,.34-1.53,.41-.31,.62-.7,.44-1.23,.16-.51,.31-1.01,.47-1.52,.93-3.03,.94-3.05-2.05-4.25-.94-.38-1.24-.89-.54-1.69,2.16-2.45,4.32-4.89,6.53-7.29,.8-.87,1.53-.72,1.69,.53,.38,2.94,1.72,5.64,2.07,8.59,.28,2.3,.14,2.73-1.91,1.93-2.47-.96-3.01,.05-3.52,2.19-.79,3.31-1.95,6.53-2.95,9.78-.38,.21-.4,.54-.29,.91-.08,.12-.15,.25-.21,.38-.93,1.83-1.86,3.67-2.79,5.5-1.79,2.29-3.59,4.57-5.38,6.86-.53,.13-.96,.06-.79-.62,.33-1.32,.77-2.55,1.66-3.67,2.44-3.09,4.64-6.33,5.56-10.26,.6-1.16,1.11-2.36,1.26-3.68,.32-.23,.53-.51,.41-.93Z"/>
  <path class="cls-9" d="M281.93,66.12c1.84-3.75,2.84-7.77,3.79-11.82,.4-1.73-.05-2.47-1.93-2.55-2.31-.09-2.37-.34-1.11-2.34,1.49-2.37,3-4.73,4.5-7.09,.32-.5,.55-1.18,1.28-1.11,.69,.07,.59,.79,.76,1.26,1.03,2.76,2.03,5.53,3.08,8.28,.63,1.63,.02,2.13-1.54,1.79-1.49-.32-2.6-.31-2.86,1.67-.64,4.91-2.48,9.47-4.25,14.05-1.75,1.97-2.27,4.64-3.82,6.72-1.06,.52-1.05,2.2-2.46,2.39-.67-1.35-.17-2.35,.55-3.43,1.64-2.45,3.18-4.97,4.02-7.83Z"/>
  <path class="cls-12" d="M184.22,97.27c-2.79-4.62-4.75-9.63-6.8-14.59-3.04-7.34-5.23-15-8.08-22.39-5.55-14.37-8.68-29.37-12.64-44.17-.17-.65-.14-1.35-.21-2.02,1.75-.18,1.41,1.31,1.62,2.18,2.66,11.3,5.3,22.63,9.03,33.6,5.16,15.17,9.79,30.56,17.14,44.91,.2,.4,.32,.84,.48,1.26-.56,.24-.54,.73-.54,1.22Z"/>
  <path class="cls-12" d="M278.89,176.92c.41-.07,.83-.12,1.06-.54,8.92,4.13,20.54-3.02,24.21-7.7-2.11,.2-4.1-.07-5.92-.65-1.51-.49-2.14,.04-2.99,1.03-2.13,2.5-4.43,4.81-7.96,5.18-.02-.3-.04-.61-.06-.91,7.33-2.89,10.4-9.06,12.36-16.08,.34-1.22-.14-1.56-1.27-1.13-1.27,.49-2.53,.98-3.8,1.47,0-.32-.02-.63-.03-.95,.81-1.09,2.12-1.19,3.26-1.62,1.13,.69,2.7,.15,3.66,1.31-.25,1.69-.09,3.53-1.81,4.65-.1-.21-.11-.75-.33-.54-.39,.37-.23,.92,.17,1.32-.05,.51-.6,1.05,.11,1.5-.06,.68,.67,.8,.9,1.28-.23,0-.48,.07-.68,0-1.27-.5-1.98,.2-2.17,1.26-.23,1.29,1.11,1.06,1.74,1.2,5.3,1.16,9.73-.37,13.24-4.52,3.33-3.93,5.08-8.55,6.07-13.53,.07,.62-.06,1.36,.89,1.43-1.47,7.18-4.52,13.28-11.18,17.12-1.68,.97-2.96,2.6-4.53,3.78-4.99,3.76-10.16,7.16-16.67,7.6-2.42,.16-4.82-.64-7.25-.12-.21-.57-.76-.55-1.21-.7,.48-.31,.72-.66,.17-1.12Z"/>
  <path class="cls-8" d="M278.89,176.92c.56,.46,.32,.81-.17,1.12-1.87,.32-3.74,.64-5.6,.97-.57,.1-1.36,.11-.69,1.05-.16,0-.31,0-.47,0,.57-.97-.15-.94-.75-.95-1.5-.01-2.99,0-4.49,0-.6-.28-1.21-.2-1.82,0-.78-.82-1.91-.83-2.88-1.15-3-.98-5.26-2.91-7.23-5.26-.32-.39-1.15-.86-.41-1.47,.6-.5,1.47-1.23,2.19-.37,4.43,5.24,9.8,4.34,15.34,2.49,.88-.29,1.53-.06,2.26,.54,1.45,1.18,2.82,2.54,4.72,3.03Z"/>
  <path class="cls-12" d="M284.51,69.27c.3-.1,.59-.2,.89-.29,.15-.08,.3-.17,.45-.25,.15-.06,.3-.12,.45-.19,.16-.09,.31-.18,.47-.27,11.83-5.37,23.65-10.75,35.48-16.11,7.15-3.24,14.31-6.47,21.47-9.7,1.23,.95,.11,1.16-.49,1.44-3.28,1.52-6.56,3.03-9.86,4.51-4.03,1.8-8.18,3.34-11.95,5.7h-.01c-.75-.14-1.3,.36-1.9,.63-7.47,3.34-14.81,6.95-22.35,10.14-2.61,1.11-5.31,2.12-7.64,3.82,0,0-.02,.01-.02,.01-1.36-.08-2.27,1.05-3.49,1.28-.86,.16-1.44,1.53-2.53,.59,0-.71,.65-.91,1.03-1.31Z"/>
  <path class="cls-4" d="M344.53,45.22c-11.41,5.23-22.82,10.47-34.24,15.7-8.32,3.81-16.65,7.61-24.99,11.38-1.02,.46-1.98,1.16-3.19,1.07,.08-.71,.54-1.09,1.18-1.3,1.31-.58,2.68-1.06,3.92-1.77,.79-.45,2.16-.17,2.29-1.59,0,0,.02-.01,.02-.01,.69,.46,1.31,.04,1.89-.23,9.66-4.41,19.32-8.82,28.96-13.27,.42-.19,1.38-.08,1.04-1.09,0,0,.01,0,.01,0,.7,.47,1.29,.02,1.89-.25,4.06-1.8,8.09-3.71,12.19-5.4,3.05-1.26,5.79-3.26,9.11-3.85-.03,.2-.06,.41-.09,.61Z"/>
  <path class="cls-12" d="M277.29,46.38c.76,0,1.51,0,2.27,0,.5,0,.91,.14,.89,.75-.03,.63-.5,.67-.97,.67-2.27,0-4.55-.02-6.82,0-.99,0-1.14-.45-.92-1.29,.43-1.59,1.62-2.52,2.89-3.35,.88-.58,1.82-1.08,2.73-1.62,.97-.59,1.68-1.35,1.42-2.58-.21-1-.89-1.59-1.9-1.68-1.18-.11-2.29,.06-2.95,1.23-.22,.39-.3,.87-.56,1.23-.22,.31-.63,.45-1.01,.28-.41-.18-.46-.58-.38-.97,.41-1.87,1.74-2.82,3.49-3.12,1.94-.34,3.67,.17,4.64,2.03,.86,1.67,.27,3.14-1.13,4.2-1.27,.95-2.7,1.68-4.02,2.55-.47,.31-1.22,.6-.92,1.35,.25,.63,.94,.26,1.42,.31,.6,.06,1.21,.01,1.82,.02Z"/>
  <path class="cls-12" d="M269.73,84.12l-.67,.12c-.73-.93-.43-2.19-1-3.17l-.33-.48s-.1-.06-.1-.06c-.02-.46-.04-.92-.07-1.38-.32-.38-.64-.6-.88,.07l.04-.02c-2.98,.37-5.29,2.41-8.11,3.34-.01-.86,.41-1.46,.84-2.06,.28-.04,.57-.07,.85-.11,.13-.09,.27-.19,.4-.28,.07-.01,.15-.01,.22-.03,4.35-1.13,6.57-3.68,7.14-8.41,.71-5.97,5.17-8.14,11.76-6.5,.33,.61,2.07,1.11,.13,1.88-3.17-1.75-7.53-1.39-9.05,1.02-2.59,4.1-2.64,8.64-1.76,13.26-.14,.42-.11,.8,.26,1.1,.1,.57,.21,1.14,.31,1.71Z"/>
  <path class="cls-8" d="M116.54,157.67c.78,1.02,1.84,.41,2.73,.37,3.31-.16,6.41,.3,9.36,2.63-2.83,.9-5.38,1.82-8,2.49-.99,.25-1.51-1.15-2.48-1.39-.56-.58-1.11-.71-1.65,.04-.38-1.38-.95-2.76,.04-4.13Z"/>
  <path class="cls-9" d="M212.91,122.18c-1.5,.71-3.01,1.39-4.5,2.13-.82,.4-1.43,.39-1.83-.55-.39-.91,.19-1.18,.86-1.5,1.56-.75,3.1-1.55,4.65-2.33,2.12-.76,4.06-1.85,5.89-3.15,.73-.39,1.44-.86,2.21-1.16,.65-.25,1.22-1.53,2.02-.49,.68,.87,.21,1.71-.69,2.27-2.87,1.59-5.74,3.18-8.62,4.78Z"/>
  <path class="cls-11" d="M249.91,55.31c0,1.52-.02,3.04,0,4.56,.01,.61-.11,1.1-.8,1.11-.76,0-.75-.6-.76-1.14,0-1.52-.01-3.04,0-4.56,0-1.19,.33-2.59-1.66-2.42-.18,.02-.48-.15-.56-.32-.14-.28-.03-.72,.29-.73,1.76-.05,1.56-2.5,3.03-2.57,.83-.04,.45,1.12,.47,1.74,.06,1.44,.02,2.89,.02,4.33,0,0-.02,0-.03,0Z"/>
  <path class="cls-12" d="M242.54,83.33c-.34,0-.68,0-1.01,.01,1.44-5.95,6.57-8.94,13.34-7.77,.07,.24,.22,.37,.49,.3l.44,.15c.53,.72,.91,1.4-.41,1.66-1.53-1.4-3.35-1.48-5.23-1.06-3.75,.85-6.12,3.27-7.6,6.71Z"/>
  <path class="cls-12" d="M251.23,178.91c1.15,1.63,2.55-.44,3.77,.26-6.19,1.52-12.38,2.91-18.68,.53,.44-.11,.92-.12,1.22-.54,4.58,.8,9.13,.41,13.69-.25Z"/>
  <path class="cls-6" d="M344.62,44.61c-3.33,.59-6.06,2.59-9.11,3.85-4.11,1.69-8.13,3.6-12.19,5.4-.6,.26-1.19,.72-1.89,.25,3.77-2.35,7.92-3.89,11.95-5.7,3.3-1.48,6.58-2.99,9.86-4.51,.6-.28,1.72-.49,.49-1.44,2.39-.15,.28,1.56,.89,2.15Z"/>
  <g>
    <path class="cls-11" d="M225.23,180.43c-2.12,0-4.24,0-6.37,.01-.29-.28-.61-.34-.97-.16-1.35-.24-2.7-.47-4.05-.71-.26-.3-.57-.41-.95-.29-1.61-1.05-3.25-.44-4.89-.11-.4-.1-.75-.06-.99,.33l-.19,.12s-.23,0-.23,0c-.31,.06-.61,.12-.92,.18-.32,.04-.65,.09-.97,.13-.18-.32-.36-.65-.54-.97,1.28-.78,3.03-.13,4.34-1.54-2.65-1.26-4.82-3.12-7.03-4.94-.77-.64-1.74-.74-2.78-.4-5.95,1.96-11.8,2.95-17.1-1.76-.88-.78-2.06,.05-2.62,.62-.68,.68,.49,1.06,.93,1.42,3.97,3.27,8.47,5.53,13.47,6.74-.3,.29-.61,.58-.91,.87-.32-.06-.64-.12-.96-.18-.53-.51-1.15-.74-1.89-.59-1.95-.94-3.84-.22-5.73,.22-6.87,1.58-13.68,1.65-20.35-.94-2.09-.81-3.77,.84-5.72,.67-1.28-.17-2.46,.2-3.62,.65-.49,.05-.97,.1-1.46,.16-.29-.29-.59-.58-.88-.86,2.77-.72,5.73-.66,8.58-2-1.72-1.22-3.4-2.06-4.61-3.36-1.97-2.11-3.87-2.26-6.57-1.39-4.94,1.58-10.07,1.86-14.66-1.1-1.65-1.07-2.77-1.42-4.4,0,5.09,4.19,10.68,6.92,17.13,7.84-.3,.3-.61,.6-.91,.89-.32-.04-.65-.08-.97-.12-.35-.37-.77-.31-1.2-.19-3.58-1.28-7.19-1.68-10.87-.46-.21,.09-.43,.17-.64,.26-.16,.04-.33,.08-.49,.13-.23,.02-.46,.03-.7,.05-.49,.31-1.03,.37-1.59,.31-.3-.29-.61-.58-.91-.88,2.4-.77,5-.85,7.8-2.02-2.5-1.23-4.63-2.35-6.34-4.01-1.31-1.27-2.6-1.46-4.31-.83-2.64,.97-5.43,1.37-8.25,1.44-.52,.01-1.23,.1-1.28-.6-.06-.79,.67-.6,1.17-.65,1.21-.11,2.42-.15,3.61-.36,6.54-1.15,12.54-3.91,18.64-6.35,1.25-.5,3.64-.76,3.43-1.86-.27-1.43-2.5-1.6-4.05-1.95-5.14-1.16-10.08,.09-15.02,1.27-.38,.05-.76,.11-1.14,.16-.36,.25-.72,.5-1.08,.74-.14,.04-.29,.08-.43,.12-1.52,.56-3.05,1.12-4.57,1.67,0-.39,0-.77,0-1.16,2.39-.84,.93-1.57-.06-2.31,.19-.46,.59-.56,1.02-.6,.97,.24,1.48,1.64,2.48,1.39,2.62-.67,5.17-1.59,8-2.49-2.94-2.33-6.05-2.79-9.36-2.63-.9,.04-1.95,.65-2.73-.37,2.16-1.76,4.65-.71,7-.81,.25,.33,.6,.3,.95,.26,1.8,.6,3.6,1.28,5.04,2.53,1.21,1.05,2.35,.92,3.52,.17,2-1.29,4.24-1.96,6.46-2.67,.52,.06,1.03,.09,1.44-.32,1.19,0,2.38,0,3.57,0,.41,.37,.9,.39,1.4,.3,1.65,.48,3.45,.92,4.59,2.2,2.16,2.45,4.39,1.76,6.76,.63,.16-.11,.31-.22,.47-.32,.29-.19,.58-.39,.87-.58,.4,0,.77-.07,.95-.5,1.06-.75,2.21-1.29,3.54-1.37,.18-.05,.35-.1,.53-.14,1.85-.58,3.7-.43,5.56-.04,.15,.07,.31,.15,.46,.22,.15-.01,.29-.05,.43-.13,2.13,.81,4.25,1.63,5.94,3.23,.43,.37,.86,.84,1.35,.07,3.66-.07,6.6-2.36,9.99-3.25,.31,.03,.63,.05,.94,.08,0,.3,0,.61,0,.91-1.18,.58-2.66,.45-3.92,1.64,3.3,.59,6.46,1.03,8.89,3.3,.35,.33,.84,.13,1.28-.02,1.21-.42,2.43-.79,3.65-1.17,.41-.13,1.02-.1,.99-.69-.01-.26-.45-.54-.74-.75-1.54-1.14-3.4-1.55-5.15-2.21v-.99c2.14,.04,4.09,.87,5.67,2.11,2.9,2.28,5.88,1.56,8.52,.17,5.95-3.14,11.51-3.17,17.07,.74,1.9,1.34,3,.56,4-1.55,1.91-4.04,.8-7.29-1.38-10.86-4.1-6.72-7.75-13.71-11.61-20.57-.79-1.41-1.7-2.75-2.56-4.12,.67-.06,1.34-.94,2.02-.02,.02,.15,0,.32,.06,.45,4.98,9,9.97,17.99,14.97,26.98,.23,.42,.4,1.17,1.07,.9,.81-.32,.99-1.08,.75-1.91-.65-2.25-1.29-4.5-1.94-6.75-2.34-8.12-4.27-16.4-9.28-23.46,.31-.16,.62-.32,.93-.48,.98,1.56,1.95,3.11,3.26,5.2-.32-3.53-1.75-6.27-1.46-9.26,.28,0,.57,0,.85,0,.35,1.75,.71,3.49,1.06,5.24,.07,.22,.15,.43,.22,.65,1.66,7.3,3.41,14.58,5.61,21.75,1.71,5.54,3.34,11.11,5.42,16.52,.47,1.22,.91,2.77,2.79,2.33,1.65-.39,2.23-1.64,2.35-3.21,.16-2.13,.15-4.23-.52-6.3-2.57-7.96-4.45-16.12-7.16-24.06-1.71-4.98-2.54-10.27-3.76-15.42-.06-.21-.12-.41-.18-.62-.07-.34-.15-.68-.22-1.02,.17-.25,.34-.49,.51-.74,.7,1.95,1.4,3.9,2.1,5.85,.2,.92,0,1.95,.8,2.81,.12-1.04,.43-1.99-.25-2.86-.16-1.25-.35-2.49-.48-3.74-.1-.95,.03-1.73,1.32-1.24-.44,1.3,.73,2.19,.84,3.41,.82,9.36,1.96,18.65,4.84,27.68,1.71,5.37,4.11,10.66,3.56,16.55-.08,.82,.29,1.53,1.24,1.61,.96,.08,1.62-.48,1.93-1.3,.63-1.67,.66-3.4,.34-5.16-.57-3.05-1.18-6.1-1.59-9.17-1.42-10.75-2.71-21.51-4.16-32.25-.29-2.15-.14-4.39-1.03-6.45,.72-1.61,1.56-3.2,.58-5,1.22,.31,.53,1.65,1.21,2.25,.93,15.43,3.42,30.65,5.85,45.93,.75-3.78,1.1-7.58,2.14-11.25,.4-.76,.33-1.52-.03-2.26-.17-3.95-.88-7.86-.68-11.83,0-.94,.4-1.93-.33-2.78-.03-.91-.05-1.82-.08-2.73,.38,0,.75,0,1.13,0,.33,4.81,.66,9.62,1,14.65,1.53-1.16,.86-3.47,2.84-3.88,.4,1.06-.27,1.91-.59,2.81-2.65,7.42-3.89,15.07-3.78,22.94,.02,1.42,.3,2.79,1.62,4.08,.31-2.36-.17-4.46,.36-6.51,1.47-5.66,3.37-11.17,6.3-16.23,2-3.45,2.63-6.95,1.94-10.82-.35-1.95-.47-3.94-.75-6.42-1.6,2.87-2.75,5.32-3.73,7.85-.31,.79-.43,1.89-1.77,1.55,.66-1.82,.61-3.69,.37-5.57-.67-5.4-1.03-10.82-1.12-16.26,.26-.18,.27-.36,0-.54-.03-2.1-.06-4.2-.08-6.31,.26-.18,.26-.35,0-.53-.16-1.02-.12-1.9,1.26-1.89,.02,8.52-.19,17.06,1.5,25.56,1.14-2.75,3.24-4.98,3.82-7.93,1.27-6.45,1.07-12.99,1.22-19.51,.03-1.54-.62-1.81-1.87-1.66,.46-.43,.92-.87,1.39-1.3,2.15-1.1,4.2-2.54,6.48-3.2,2.61-.76,3.83-1.9,3.02-4.64,.22-.04,.45-.08,.67-.12,.8,1.96,1.62,3.91,3.06,5.52,1.1,1.22,5.32,2.72,5.97,1.88,1.12-1.43,.1-3.05-.34-4.57-.13-.43-.33-.84-.44-1.28-.62-2.49-2.18-4.66-2.4-7.28,.2-.03,.4-.05,.6-.08,.06,.97,.97,1.49,1.24,2.35,.85,2.68,.85,2.69,3.37,1.54,18.53-8.45,37.06-16.91,55.59-25.35,3.51-1.6,7.05-3.15,10.57-4.73,.96,1.25-.22,1.32-.91,1.64-7.56,3.46-15.13,6.91-22.68,10.38-7.22,3.32-14.41,6.7-21.64,10-4.19,1.91-8.42,3.76-12.65,5.58-1.29,.55-1.84,1.32-1.71,2.78,.1,1.1,.39,1.59,1.57,1.7,5.56,.5,9.71,3.43,12.97,7.78,.53,.71,1.24,1.05,1.96,1.48,7.18,4.32,11.63,10.49,12.58,18.95,.12,1.06,.57,1.86,1.11,2.67,5.29,7.86,6.18,16.25,3.22,25.18-.94,2.83-.18,5.9-.92,8.79-.11,.44-.19,.88-.29,1.33-.95-.07-.82-.81-.89-1.43-.04-.16,0-.29,.11-.4,.66-.73,.32-1.6,.33-2.42-.21-.76,.31-1.65-.49-2.46-1.38,1.45-2.85,2.84-4.65,3.55-1.86,.74-2.1,1.95-2.09,3.68,0,3.25-.88,6.31-2.79,8.97-2.1,2.93-4.57,5.32-8.64,4.67-.23-.47-.95-.6-.9-1.28,.32,.03,.63,.06,.95,.09,.9,.41,1.78,.45,2.66-.05,1.69-.62,2.98-1.73,4.13-3.1,3.73-4.44,3.74-9.66,2.95-14.92-.52-3.45-1.44-6.86-3.31-10.26-1.88,3.17-2.32,6.43-3.41,9.46-.88,.62-1.41,.26-1.76-.62,1.52-1.06,1.25-2.38,.62-3.82-2.1-4.83-2.57-9.66,.3-14.39,.67-1.11,.11-1.65-.7-2.21-2.38-1.65-4.44-3.55-5.83-6.19-1.07-2.04-1.4-4.26-2.13-6.63-2.93,1.99-5.96,3.28-9.37,3.43-.62,.03-1.01,.24-1.06,.91-.32,4.9-1.7,9.51-3.79,13.95-.27,.58-.15,1.34-.2,2.02-.34,5.1-1.63,9.9-4.78,14-2.32,3.01-6.03,4.89-7.18,8.86-.06,.22-.56,.29-.7,.52-.95,1.63-2.71,2.65-3.41,4.45-.34,.87-.68,1.83,1,1.26,3.29-1.12,6.25-.36,9.18,1.42,1.55,.94,3.56,1.05,5.17-.03,3.52-2.36,7.31-3.5,11.53-3.25,1.49,.09,2.18-.57,2.16-2.11-.02-1.21,.24-2.4,1-3.41,.46,.27,.51,.75,.57,1.21,.02,.94-1.27,2.03,.32,2.79,0,.32,.02,.63,.03,.95-5.97,3.73-10.41,9.43-16.6,12.87-1.05,.59-.84,1.01,.13,1.5,2.92,1.48,5.95,2.09,9.19,1.36,.02,.3,.04,.61,.06,.91-.27,.5-.77,.38-1.2,.44-3.59,.47-6.87-.39-9.9-2.32-.42-.27-.95-.69-1.34,.01-.3,.56,.29,.74,.58,1.04,1.29,1.31,3.06,1.89,4.5,2.97-.23,.42-.66,.46-1.06,.54-1.9-.49-3.27-1.84-4.72-3.03-.73-.6-1.38-.83-2.26-.54-5.55,1.86-10.92,2.75-15.34-2.49-.73-.86-1.6-.13-2.19,.37-.74,.61,.09,1.08,.41,1.47,1.97,2.35,4.23,4.27,7.23,5.26,.97,.32,2.1,.33,2.88,1.15-.34,.64-1.02,.36-1.53,.56h-.17s-.14-.08-.14-.08c-.24-.41-.59-.51-1.03-.39-1.59-.28-3.11-1.05-4.8-.61-.32,.11-.64,.22-.96,.33-.43,.08-.86,.16-1.28,.25-1.21-.7-2.62,1.37-3.77-.26,.42-.09,.84-.19,1.25-.28,.16-.02,.31-.04,.47-.06,1.48-.42,2.95-.84,3.98-1.14-.93-1.17-2.01-2.26-2.77-3.55-1.08-1.83-2.24-1.68-4.07-1.03-7.2,2.59-14.42,4.6-20.71-2.23-.83-.91-2.12,0-2.81,.64-.75,.69,.4,1.07,.78,1.51,2.75,3.15,6.32,5.03,10.2,6.4-.3,.42-.78,.43-1.22,.54-.41,.09-.78,0-1.08-.3-.18-.08-.36-.15-.55-.23-.69,0-1.39,0-2.08-.01-.15,.02-.29,.04-.44,.06-1.9,.81-3.99,.61-5.96,1.09-.36-.18-.69-.15-.99,.13Zm26.31-19.35c.27,.13,.46,.02,.6-.21,.63-.19,1.26-.38,1.97-.59-1.35-1.24-3.02-.28-4.33-.92-1.21-.6-2-.49-2.87,.67-.9,1.21-2.22,1.91-3.75,.9-.59-.39-1.04-.28-1.35,.21-.57,.91-1.72,1.09-2.41,1.81,.97,1.44,2.12,1.42,3.45,.88,1.81-.74,3.62-1.49,5.58-1.79,.21,.24,.42,.48,.63,.72-5.53,2.01-11.07,4.01-16.59,6.04-2.2,.81-2.31,1.25-.44,2.71,3.58,2.79,7.7,2.89,11.91,1.98,7.05-1.52,13.24-5.12,19.58-8.32,.63-.32,1.73-.38,1.77-1.2,.04-.93-1.04-1.18-1.73-1.58-.52-.3-1.11-.51-1.69-.66-3.16-.82-6.3-.36-9.44,.19-.35-.26-.69-.52-1.04-.77l.16-.06Zm-91.62-1.61c-.29,.07-.65,.19-.57,.53,.11,.5,.57,.34,.93,.34,2.43-.2,4.65,.39,6.65,1.77,.83,.58,1.64,1.04,2.71,.62,1.56-.61,3.15-1.17,5.06-1.88-4.9-3.62-9.74-3.58-14.78-1.39Zm103.45-54.37c-.91,.24-.97,.87-1.22,1.41-3.35,7.1-1.99,14.57-1.52,21.9,.19,2.98,.75,6.02,.96,9.01,.27,3.91,.56,7.88-.36,11.78-.06,.27-.04,.67,.12,.87,1.35,1.66,1.66,3.79,2.47,6.04,1.84-2.04,3.32-3.98,4.26-6.11,2.95-6.66,3.5-13.47,1.24-20.57-1.02-3.21-2.57-6.21-3.41-9.47-1.25-4.87-2.63-9.71-2.54-14.86Zm11.35,11.09c-.06-3.94-.36-7.34-1.72-10.53-.95-2.24-1.87-4.45-2.14-6.9-.17-1.54-1.2-2.66-2.18-3.78-1.08,1.02-2.3,1.87-2.92,3.33-1.83,4.34-1.2,8.74-.55,13.17,.72,4.89,2.91,9.32,4.24,14.02,.2,.7,.18,1.74,.89,1.95,.92,.27,1.39-.76,1.87-1.38,2.38-3.08,2.31-6.78,2.51-9.88Zm-82.64,47.71c-.48-.41-.73-.69-1.04-.87-4.5-2.65-9.28-2.39-14.13-1.33-6.35,1.38-11.98,4.59-17.84,7.2-1.61,.72-.33,1.28,.26,1.65,3.54,2.28,7.41,2.48,11.39,1.59,7.45-1.68,14.07-5.48,21.36-8.23Zm47.57,1.1c-3.62-3.24-7.48-3.68-11.47-3.07-7.63,1.17-14.61,4.38-21.68,7.28-1.29,.53-.71,1.02-.08,1.56,3.04,2.59,6.59,2.96,10.29,2.11,7.77-1.77,14.9-5.41,22.93-7.88Zm-31.35-3.59c-1.59-.03-3.01,.15-4.43,.41-6.99,1.26-13.44,4.03-19.9,6.83-1.64,.71-1.14,1.18-.07,1.89,2.97,1.97,6.23,2.25,9.6,1.6,7.42-1.41,14.11-4.91,21.08-7.58,1.22-.47,.58-1,.01-1.41-1.92-1.38-4.09-1.92-6.29-1.75Zm77.15-61.48c3.9-.29,7.73,.08,11.5,1.09,1.58,.42,1.87-.31,1.63-1.67-.42-2.44-1.76-4.15-3.98-5.18-3.32-1.54-6.77-1.91-10.42-1.58-3.73,.33-7.59,1.13-11.12-1.01-1.78-1.08-2.45-.84-2.95,1.19-.17,.7-.03,1.3,.29,1.96,1.48,3.11,4.01,4.69,7.33,5.03,2.56,.26,5.14,.58,7.72,.17Zm26.1,16.87c-.16-3.15-1.3-5.91-3.46-8.19-4.64-4.9-10.57-6.79-17.1-7.29-1.47-.11-1.73,.39-1.21,1.69,1.23,3.12,3.65,5.22,6.25,7.05,4.26,3,8.94,5.4,12.91,8.84,.54,.47,1.12,1.33,1.9,.89,.66-.37,.61-1.33,.71-2.08,.04-.3,0-.61,0-.91Zm-177.18,52.65c3.28,2.46,6.67,3.04,10.36,2.55,7.5-1.01,14.16-4.33,20.86-7.54,1.4-.67,1.01-1.19-.1-1.76-2.77-1.42-5.68-1.51-8.66-1.01-7.84,1.33-14.99,4.66-22.46,7.76Zm169-53.19c-.13,3.18,.38,5.69,1.02,8.18,1.3,5.07,4.02,9.59,5.58,14.57,.28,.89,.15,2.29,1.25,2.42,1.12,.13,2.08-.81,2.78-1.74,.41-.54,.85-1.12,1.02-1.75,1.26-4.64,1.24-9.2-1.75-13.22-2.55-3.42-6.19-5.63-9.9-8.47Zm-38.74,57.33c6.17-.17,11.14-3.07,15.91-6.37,1.07-.74,3.03-1.41,2.75-2.61-.23-.99-2.33-.87-3.64-1.12-8.09-1.54-14.75,2.22-21.46,5.79-1.07,.57-.37,1.05,.06,1.56,1.71,2.01,4,2.62,6.38,2.74Zm17.53-65.26c-1.3,1.23-2.17,2.51-3.38,3.12-2.71,1.36-2.96,3.52-2.91,6.18,.07,4.21-.86,8.15-4.45,10.94-.44,.34-.84,.8-.6,1.36,.73,1.72,.47,3.72,1.55,5.54,8.36-7.17,10.58-16.4,9.8-27.14Zm-96.6,69.33c-2.93-1.76-5.5-3.49-7.9-5.46-.78-.64-1.56-.35-2.36-.08-6.27,2.1-12.44,3.05-18.08-1.67-.85-.71-1.68-.37-2.23,.24-.73,.83,.37,1.14,.77,1.49,4.42,3.81,9.48,6.29,15.32,6.83,4.78,.45,9.53,.12,14.47-1.36Zm130.99-61.58c-.7,2.24-.79,4.33-1.74,6.14-.56,1.08-.35,1.98,.27,2.97,1.88,2.97,2.03,6.32,1.87,9.67-.17,3.59-1.72,6.27-5.1,7.97-1.37,.69-.54,2.43-.07,3.47,.46,1.03,1.34,0,1.89-.32,3-1.68,5.29-4.01,6.38-7.38,1.27-3.92,1.15-7.96,.79-11.95-.35-3.78-1.81-7.25-4.28-10.57Zm-84.95,62.13c-1.89-1.68-3.7-3.06-5.22-4.7-1.26-1.36-2.29-1.59-4.11-.95-6.07,2.14-12.21,3.69-17.59-1.75-.68-.69-1.58-.43-2.05,.08-.73,.8,.34,1.13,.76,1.51,8.19,7.43,17.85,7.63,28.22,5.8Zm71.77-83.38c-.06,.15-.11,.22-.11,.29,.07,.67,.31,1.37,.21,2.01-.78,4.64,1.49,7.44,4.98,10.25,3.78,3.05,5.31,7.5,3.8,12.48-.31,1.01-.49,1.92,.56,2.27,1.27,.42,1.11-.95,1.29-1.56,2.84-9.26-.15-16.85-6.84-23.16-1.12-1.06-2.26-2.22-3.89-2.58Zm-43.42,39.14c-.53,.63-.77,.82-.89,1.06-2.36,4.74-4.56,9.55-6,14.66-.62,2.19-1.18,4.39-1.05,6.69,.06,1.05,.44,1.93,1.61,2.18,1.01,.21,1.95-.08,2.3-1.01,1.41-3.74,3.58-7.22,4.37-11.14,.79-3.94,.09-7.95-.35-12.44Zm42.47-34.4c.27-7.05-5.09-11.79-10.68-13.52-4.15-1.28-4.46-.95-4.6,3.3-.04,1.37,.33,1.77,1.73,1.89,2.57,.22,5.11,.84,7.27,2.35,2.54,1.77,4.11,4.04,3.68,7.39-.1,.8,.98,1.28,1.78,1.42,.97,.17,.76-.7,.82-1.25,.05-.53,.01-1.06,0-1.59Zm-41.15,5.44c1.31-1.53,2.19-2.97,2.54-4.73,.41-2.03,1.01-4.24,2.73-5.33,1.99-1.27,2.42-3.33,3.59-5.01,.22-.32,.51-.67,.27-1.01-.34-.48-.81-.16-1.21,.01-2.21,.96-4.41,1.95-6.63,2.87-.76,.32-1.3,.69-1.3,1.61,.02,3.75,0,7.51,0,11.59Zm24.87-19.72s.07,0,.1,0c0-.98-.02-1.96,0-2.94,.02-.9-.45-.96-1.17-.8-4.71,1.05-5.71,2.62-4.74,7.44,.1,.52,.13,1.05,.18,1.57,.08,.75,.49,.97,1.23,.96,3.53-.01,4.05-.45,4.38-3.98,.07-.75,.01-1.51,.01-2.26Zm2.34,19.55c-1.4,.78-2.88,1.72-4.64,1.97-.14,.02-.35,.36-.34,.54,.05,1.66,.05,3.33,.25,4.97,.1,.78,.9,.62,1.51,.52,2.03-.32,3.97-.9,5.78-1.9,2.24-1.24,2.23-1.2,.43-3.14-.67-.72-1.22-1.54-1.81-2.32-.27-.36-.46-.81-1.17-.64Zm-7.54-3.44c-.6,.12-1.71-.5-2.18,.19-1.3,1.92-2.55,3.92-3.43,6.05-.37,.9,.22,2.2,.41,3.32,.13,.76,.56,.79,1.13,.4,3.18-2.23,5.5-5.14,6.87-8.8,.3-.79,.06-1.15-.76-1.16-.61,0-1.21,0-2.02,0Zm-10.25,45.71c4.39-3.19,7.93-10.9,7.31-15.61-1.82,1.95-3.37,4.01-5.44,5.53-.41,.3-.5,.74-.52,1.21-.06,2.88-.69,5.69-1.35,8.87Zm-119.71,14.59c-3.3-4.11-11.5-4.94-14.74-1.51,3.27,.29,6.37,.82,8.94,2.92,.44,.36,1.02,.2,1.53,.03,1.36-.45,2.71-.91,4.27-1.44Zm72.95-.36c-4.72-3.24-9.18-3.57-13.95-1.48,2.48,.71,4.88,1.49,6.68,3.43,.27,.29,.69,.24,1.06,.12,1.9-.64,3.8-1.27,6.2-2.07Zm36.23-10.22c-1.24,1.56-1.79,3.32-2.21,5.02-.32,1.3-2.32,2.52-1.13,3.63,.81,.76,2.75,.3,4.18,.41,.63,.05,1.06-.14,1.09-.82,.12-2.87,.3-5.75-1.93-8.24Zm35.47-39.64c.85,4.67,2.73,8.01,6.47,10.14,0-1.94,.02-3.74,0-5.54-.01-.79-.57-1.24-1.22-1.49-1.76-.7-3.21-1.92-5.25-3.11Zm-63.06,40.47c-1.35,1.98-1.94,3.74-2.43,5.54-.79,2.84-.79,2.82,2.01,3.05,1.17,.1,2.33,.32,3.78,.52-.94-3.15-2.78-5.68-3.35-9.1Zm71.03-12.98c.68-2.15,2.7-3.88,2.53-5.95-.18-2.08-1.58-4.05-2.6-6.44-2.18,4.45-1.8,8.41,.07,12.39Zm-14.34,20.57c-3.36-.45-6.05,.82-8.93,2.48,5.51,1.8,3.98,2.3,8.93-2.48Zm-17-60.24c.02,1.71,.73,3.04,1.35,4.37,.28,.61,.1,1.77,1.09,1.71,.77-.05,1.07-.99,1.43-1.64,.33-.59,.61-1.21,.87-1.84,.21-.49,.1-1.02-.44-1.06-1.52-.12-2.7-1.19-4.3-1.54Zm-.42,62.56c-1.91-1.41-3.99-1.28-6.07-.94-.91,.15-1.16,.54-.34,1.33,1.53,1.46,3.29,1.42,6.41-.39Zm12.17-56.54c1.59-.15,2.58-.81,3.6-1.43,.73-.44,.68-1.09,.59-1.79-.11-.83-.73-.84-1.34-.87-.7-.04-1.38-.05-1.68,.79-.35,.99-.7,1.98-1.17,3.31Z"/>
    <path class="cls-12" d="M116.58,179.12c-.13-.75-.15-1.53,.93-1.14,3.7,1.32,7.52,1.15,11.35,1.07,.3,.29,.61,.58,.91,.88-4.48,1.1-8.85,.39-13.19-.81Z"/>
  </g>
  <path class="cls-4" d="M192.44,179.95c.3-.29,.61-.58,.91-.87,3.6,.22,7.2,.23,10.8-.13,.18,.32,.36,.65,.54,.97-4.08,1.04-8.17,1.13-12.25,.03Z"/>
  <path class="cls-11" d="M183.74,126.21c-.15-.04-.31-.08-.46-.11-.09-.41-.18-.81-.27-1.22,.15,.11,.3,.22,.45,.32,.33,.01,.66,.02,1,.04,1.85,.28,3.69,.13,5.54,0,.51,.05,1.04,.15,1.47-.26,1.45-.53,2.91-1.06,4.36-1.59,.31-.4,.19-.66-.25-.83-.17-.16-.34-.31-.51-.47,.42,0,.81-.1,1.02-.52,.15,.16,.3,.32,.45,.47,.12,.17,.24,.34,.36,.5,.76,.93,.31,1.51-.57,1.94-1.22,.59-2.45,1.17-3.83,1.29-.16,.04-.33,.09-.49,.13-.79,.41-1.63,.52-2.51,.38-.23,.03-.46,.07-.69,.1-.63,.25-1.26,.28-1.91,.1-1.01-.59-2.11-.21-3.16-.29Z"/>
  <path class="cls-6" d="M259.46,80.48c-.43,.6-.85,1.19-.84,2.06,2.83-.93,5.13-2.97,8.11-3.34-.13,1.01-1.11,.92-1.71,1.24-2.58,1.34-5.4,2.22-7.84,3.86l-.58-.54c.93-1.83,1.86-3.67,2.79-5.5,.02,.74,.04,1.49,.06,2.23Z"/>
  <path class="cls-11" d="M200.41,127.54c-1.02,.14-1.35-.6-1.25-1.24,.29-1.85,2.15-1.28,3.27-1.82,.93-.45,1.48,.9,1.33,1.31-.54,1.5-2.23,1.19-3.35,1.75Z"/>
  <path class="cls-11" d="M196.37,128.42c-.66,1.39-2.11,1.29-3.23,1.66-.72,.24-1.09-.64-1.01-1.17,.25-1.69,1.93-1.36,3-1.79,.96-.39,.85,.75,1.24,1.31Z"/>
  <path class="cls-12" d="M200.17,118.54c0,.4-.01,.81-.02,1.21-1.17,.67-2.43,.65-3.7,.52-.74-.08-1.21,0-.82,.9,0,0-.12,.12-.12,.12-.11,.11-.23,.23-.34,.34-.1,.11-.2,.21-.31,.32-.27-.23-.54-.45-.81-.68,.21-.97,1.07-1.48,1.55-2.26,1.52-.24,3.1,.18,4.57-.47Z"/>
  <path class="cls-11" d="M188.29,113.97c1.47-.95,2.99-1.78,4.68-2.26,.2,.22,.4,.43,.6,.65-1.15,.65-2.29,1.3-3.44,1.95l-3.29,1.89c-.16-.43-.31-.85-.47-1.28-.14-.28-.28-.57-.42-.85,.24-.24,.47-.49,.71-.73,.28,.28,.57,.56,.85,.84,.34,.21,.59,.12,.79-.21Z"/>
  <path class="cls-12" d="M151.83,179.08c.29,.29,.59,.58,.88,.86-2.11,.43-4.22,.5-6.33,.02,.3-.3,.61-.6,.91-.89,1.51,0,3.03,0,4.54,0Z"/>
  <path class="cls-11" d="M181.19,124.96c-1.18-.94-1.01-2.11-.55-3.33,.1-.22,.21-.44,.31-.66,.34-1.26,1.01-2.28,2.17-2.94,.22-.24,.44-.48,.65-.72,.02-.18,.12-.27,.3-.28,.08,.4,.17,.81,.25,1.21-1.29,1.81-3.61,3.22-2.38,6.03-.25,.23-.5,.46-.75,.69Z"/>
  <path class="cls-11" d="M272.43,180.07c-.66-.94,.12-.95,.69-1.05,1.87-.33,3.73-.65,5.6-.97,.45,.15,1,.13,1.21,.7-.51,.42-1.11,.46-1.74,.43-.39-.11-.73-.06-.98,.3-.28,.05-.56,.11-.85,.16-.5-.08-.99-.17-1.42,.22-.83,.22-1.66,.4-2.52,.22Z"/>
  <path class="cls-11" d="M266.72,179.12c1.5,0,2.99-.02,4.49,0,.6,0,1.32-.02,.75,.95-1.89,.7-3.78,.38-5.68,.07,.15-.34,.3-.68,.45-1.01Z"/>
  <path class="cls-12" d="M188.31,158.13c0-.3,0-.61,0-.91,.16-.13,.31-.25,.47-.38,1.21,0,2.41,0,3.62,0,.27,.31,.61,.34,.98,.24,0,0-.06,.16-.06,.16,0,.33,0,.66,0,.99-1.67-.03-3.34-.07-5.01-.1Z"/>
  <path class="cls-8" d="M116.64,165.92c-.14,0-.27,.01-.41,.03-1.27-1.39,1.08-2.29,.47-3.59,0,0,.21,0,.21,0h.21c.99,.76,2.45,1.49,.06,2.32-.81,.13-.5,.77-.55,1.24Z"/>
  <path class="cls-11" d="M184.22,97.27c0-.49-.03-.98,.54-1.22,.27,.5,.54,1,.81,1.5,0,.36,.12,.66,.47,.81,0,0,0,0,0,0,.06,.14,.12,.28,.19,.42,.09,.16,.18,.31,.28,.47-.06,.6-.12,1.21-.18,1.81-.41-.72-.82-1.44-1.23-2.17,.03-.41-.04-.78-.45-.99-.14-.21-.28-.43-.42-.64Z"/>
  <path class="cls-11" d="M183.16,110.55c.23-.28,.46-.55,.69-.83,.68,.89,1.36,1.79,2.04,2.68-.6,.18-1.11-.06-1.62-.34,0,0-.05-.08-.05-.08-.03-.15-.12-.27-.26-.34-.09-.12-.17-.24-.26-.36-.14-.19-.29-.39-.43-.58l-.11-.14Z"/>
  <path class="cls-11" d="M266.72,179.12c-.15,.34-.3,.68-.45,1.01-1,.09-1.98,0-2.9-.46,.51-.2,1.19,.08,1.53-.56,.61-.19,1.21-.27,1.82,0Z"/>
  <path class="cls-12" d="M184.27,112.06c.5,.29,1.01,.52,1.62,.34,.26,.31,.51,.63,.77,.94-.24,.24-.47,.49-.71,.73-.72-.53-1.3-1.19-1.67-2.01Z"/>
  <path class="cls-12" d="M181.19,124.96c.25-.23,.5-.46,.75-.69,.36,.2,.71,.4,1.07,.6,.09,.41,.18,.81,.27,1.22-.79-.21-1.63-.31-2.09-1.13Z"/>
  <path class="cls-12" d="M154.17,179.79c1.16-.46,2.34-.82,3.62-.65-1.17,.41-2.34,.82-3.62,.65Z"/>
  <path class="cls-12" d="M184.32,118.24c-.08-.4-.17-.81-.25-1.21,.22-.44,.52-.77,1.01-.89,0,0,.16,.08,.15,.08,.24,.2,.47,.4,.71,.6l-1.63,1.43Z"/>
  <path class="cls-12" d="M186.32,101.07c.06-.6,.12-1.21,.18-1.81,.43,.51,.89,1.01,1,1.71-.23,.29-.46,.57-.7,.86-.16-.25-.32-.5-.48-.75Z"/>
  <path class="cls-12" d="M183.74,126.21c1.06,.08,2.15-.29,3.16,.29-1.09,.27-2.12-.05-3.16-.29Z"/>
  <path class="cls-4" d="M189.59,179.18c.74-.16,1.36,.08,1.89,.59-.73,.12-1.34-.14-1.89-.59Z"/>
  <path class="cls-10" d="M225.23,180.43c.3-.28,.63-.31,.99-.13-.27,.55-.58,.73-.99,.13Z"/>
  <path class="cls-8" d="M117.13,162.36h-.21s-.21-.01-.21-.01c-.06-.19-.13-.37-.19-.56,.53-.75,1.09-.62,1.65-.04-.43,.04-.83,.14-1.02,.6Z"/>
  <path class="cls-10" d="M260.1,68.67c.17,.53-.03,.91-.44,1.23-.3-.57-.16-.98,.44-1.23Z"/>
  <path class="cls-11" d="M186.8,101.82c.23-.29,.46-.57,.7-.86,0,0,0,.02,0,.02,.12,.2,.25,.39,.37,.58,.26,.27,.52,.53,.05,.84-.75,.51-.86-.18-1.12-.59Z"/>
  <path class="cls-10" d="M259.32,71.43c.13,.43-.09,.7-.41,.93-.57-.62-.18-.82,.41-.93Z"/>
  <path class="cls-12" d="M196.03,110.15c-.31,.67-.76,.66-1.29,.27,.43-.09,.86-.18,1.29-.27Z"/>
  <path class="cls-12" d="M186.37,114.92c.16,.43,.31,.85,.47,1.28,0,0-.11,.06-.11,.06-.27-.38-.66-.49-1.1-.45l-.02-.05c.25-.28,.51-.56,.76-.84Z"/>
  <path class="cls-12" d="M198.31,106.05c.02,.53,.14,1.09-.43,1.44,0-.53,.06-1.03,.43-1.44Z"/>
  <path class="cls-12" d="M144.21,179.65c.43-.12,.85-.18,1.2,.19-.4-.06-.8-.13-1.2-.19Z"/>
  <path class="cls-4" d="M274.95,179.85c.42-.39,.92-.3,1.42-.22-.43,.36-.91,.36-1.42,.22Z"/>
  <path class="cls-12" d="M196.09,121.57c-.21,.42-.59,.52-1.02,.52-.11,0-.19-.04-.22-.15,.1-.11,.2-.21,.31-.32,.11-.11,.23-.23,.34-.34,0,0,.12-.12,.12-.12,.16,.13,.31,.27,.47,.4Z"/>
  <path class="cls-12" d="M241.18,84.66c.03,.49,.12,.99-.31,1.38,.1-.46,.21-.92,.31-1.38Z"/>
  <path class="cls-12" d="M256.28,178.92c.32-.11,.64-.22,.96-.33-.32,.11-.64,.22-.96,.33Z"/>
  <path class="cls-4" d="M277.22,179.47c.25-.36,.59-.41,.98-.3-.33,.1-.65,.2-.98,.3Z"/>
  <path class="cls-10" d="M259.6,77.86c-.1-.37-.09-.7,.29-.91,.07,.36,.07,.69-.29,.91Z"/>
  <path class="cls-12" d="M186.04,98.37c-.36-.16-.47-.45-.47-.81,.16,.27,.31,.54,.47,.81Z"/>
  <path class="cls-12" d="M193.52,109.33c-.43-.09-.62-.38-.66-.79,.22,.26,.44,.53,.66,.79Z"/>
  <path class="cls-8" d="M159.57,158.55c-.17,.44-.54,.5-.95,.5,.32-.17,.63-.34,.95-.5Z"/>
  <path class="cls-8" d="M205.66,179.79c.31-.06,.61-.12,.92-.18-.28,.18-.57,.37-.92,.18Z"/>
  <path class="cls-4" d="M262.04,179.2c.44-.11,.79-.02,1.03,.39-.34-.13-.69-.26-1.03-.39Z"/>
  <path class="cls-8" d="M207,179.5c.24-.38,.59-.42,.99-.33-.33,.11-.66,.22-.99,.33Z"/>
  <path class="cls-12" d="M232.17,179.22c.15-.02,.29-.04,.44-.06-.15,.02-.29,.04-.44,.06Z"/>
  <path class="cls-12" d="M234.69,179.17c.18,.08,.36,.15,.55,.23-.18-.08-.36-.15-.55-.23Z"/>
  <path class="cls-8" d="M132.7,179.45c.21-.09,.43-.17,.64-.26-.21,.09-.43,.17-.64,.26Z"/>
  <path class="cls-8" d="M157.75,159.63c-.16,.11-.31,.22-.47,.32,.16-.11,.31-.22,.47-.32Z"/>
  <path class="cls-8" d="M170.09,157.08c-.13,.07-.28,.11-.43,.13-.09-.1-.14-.22-.15-.35,.26-.11,.46-.03,.58,.23Z"/>
  <path class="cls-8" d="M169.51,156.86c.01,.13,.06,.25,.15,.35-.15-.07-.31-.15-.46-.22,.09-.08,.19-.12,.31-.13Z"/>
  <path class="cls-8" d="M163.64,157.04c-.18,.05-.35,.1-.53,.14,.18-.05,.35-.1,.53-.14Z"/>
  <path class="cls-12" d="M188.82,126.4c.23-.03,.46-.07,.69-.1-.23,.03-.46,.07-.69,.1Z"/>
  <path class="cls-12" d="M192.01,125.92c.16-.04,.33-.09,.49-.13-.16,.04-.33,.09-.49,.13Z"/>
  <path class="cls-12" d="M196.9,122.55c-.12-.17-.24-.34-.36-.5,.12,.17,.24,.34,.36,.5Z"/>
  <path class="cls-12" d="M180.94,120.97c-.1,.22-.21,.44-.31,.66,.1-.22,.21-.44,.31-.66Z"/>
  <path class="cls-12" d="M201.52,119.34c.2-.13,.4-.26,.59-.38-.2,.13-.4,.26-.59,.38Z"/>
  <path class="cls-12" d="M183.76,117.31c-.22,.24-.44,.48-.65,.72,.22-.24,.44-.48,.65-.72Z"/>
  <path class="cls-10" d="M210.17,117.12c.06,.14,.12,.28,.18,.42-.06-.14-.12-.28-.18-.42Z"/>
  <path class="cls-12" d="M185.08,116.14c.18-.13,.35-.25,.53-.38,0,0,.02,.05,.02,.05-.13,.14-.26,.27-.39,.41,0,0-.16-.08-.16-.08Z"/>
  <path class="cls-12" d="M183.97,111.64c.14,.08,.22,.19,.26,.34-.09-.11-.17-.23-.26-.34Z"/>
  <path class="cls-12" d="M183.28,110.69c.14,.19,.29,.39,.43,.58-.14-.19-.29-.39-.43-.58Z"/>
  <path class="cls-12" d="M197.43,108.9c0,.16-.07,.28-.19,.38,.06-.13,.13-.25,.19-.38Z"/>
  <path class="cls-12" d="M197.88,107.5c-.07,.14-.14,.28-.2,.42,.07-.14,.14-.28,.2-.42Z"/>
  <path class="cls-12" d="M192.34,107.95c-.13-.15-.26-.31-.39-.46,.13,.15,.26,.31,.39,.46Z"/>
  <path class="cls-12" d="M191.57,107.06c-.16-.21-.32-.42-.48-.62,.16,.21,.32,.42,.48,.62Z"/>
  <path class="cls-12" d="M190.56,105.68c-.15-.2-.3-.4-.46-.61,.15,.2,.3,.4,.46,.61Z"/>
  <path class="cls-12" d="M189.6,104.3c-.13-.19-.26-.38-.4-.57,.13,.19,.26,.38,.4,.57Z"/>
  <path class="cls-12" d="M187.87,101.57c-.12-.19-.25-.39-.37-.58,.12,.19,.25,.39,.37,.58Z"/>
  <path class="cls-12" d="M186.22,98.79c-.06-.14-.12-.28-.19-.42,.06,.14,.12,.28,.19,.42Z"/>
  <path class="cls-10" d="M260.72,80.09c-.13,.09-.27,.19-.4,.28,.13-.09,.27-.19,.4-.28Z"/>
  <path class="cls-10" d="M255.35,75.87c-.27,.07-.41-.05-.49-.3,.16,.1,.32,.2,.49,.3Z"/>
  <path class="cls-10" d="M285.85,68.72c-.15,.08-.3,.17-.45,.25,.15-.08,.3-.17,.45-.25Z"/>
  <path class="cls-10" d="M286.78,68.27c-.16,.09-.31,.18-.47,.27,.16-.09,.31-.18,.47-.27Z"/>
  <path class="cls-8" d="M131.51,179.63c.23-.02,.46-.03,.7-.05-.22,.18-.45,.26-.7,.05Z"/>
  <path class="cls-2" d="M228.35,98.17c-.04,.15-.07,.31-.1,.46-.84,4.2,.55,8.1,1.63,12.04,.07,.34,.15,.68,.22,1.02-.12,.26-.11,.48,.18,.62,1.22,5.15,2.05,10.44,3.76,15.42,2.72,7.93,4.59,16.1,7.16,24.06,.67,2.07,.68,4.17,.52,6.3-.12,1.58-.7,2.83-2.35,3.21-1.88,.44-2.32-1.1-2.79-2.33-2.08-5.42-3.72-10.98-5.42-16.52-2.2-7.17-3.95-14.45-5.61-21.75-.07-.22-.15-.43-.22-.65-.35-1.75-.71-3.49-1.06-5.24,.02-.52,0-1.02-.47-1.37-.81-4.23-1.61-8.46-2.44-12.68-.65-3.3-.35-6.49,1.15-9.51,2.6-5.2,9.17-5.43,13.12-1.14,.83,.9,.76,1.57-.51,1.97-1.14,.36-2.25,.83-3.4,1.18-1.27,.39-2.42,.89-2.86,2.29-.61,.79-1.29,1.56-.5,2.62Z"/>
  <path class="cls-2" d="M255.38,77.68c-.27,2.47-2.06,4.28-2.83,6.53-1.03-1.27-1.55,0-2.06,.51-1.88,1.9-1.97,4.44-2.25,6.89-.01,.83-.05,1.67-.04,2.5,.04,3.92,.08,7.83,.17,11.74,.01,.56-.12,1.57,1.06,.95,.33,.77,.37,1.54,0,2.31-1.62-.5-1.04,.84-1.05,1.41-.03,2.49,.07,4.98,.12,7.46,.03,.91,.05,1.82,.08,2.73,.1,.93-.16,1.9,.33,2.78-.2,3.97,.52,7.88,.68,11.83,.01,.75,.02,1.51,.03,2.26-1.04,3.67-1.39,7.47-2.14,11.25-2.43-15.28-4.92-30.51-5.85-45.93,.2-1.1,.11-2.17-.33-3.2,.21-3.83,.02-7.67,.43-11.51,.18-1.66,.81-3.22,.8-4.89,1.48-3.44,3.85-5.86,7.6-6.71,1.89-.43,3.7-.34,5.23,1.06Z"/>
  <path class="cls-2" d="M263.37,105.1c-.08,5.15,1.29,9.99,2.54,14.86,.84,3.26,2.39,6.26,3.41,9.47,2.26,7.1,1.71,13.91-1.24,20.57-.94,2.13-2.42,4.08-4.26,6.11-.81-2.25-1.12-4.38-2.47-6.04-.16-.2-.18-.6-.12-.87,.92-3.9,.63-7.87,.36-11.78-.21-3-.77-6.03-.96-9.01-.47-7.33-1.83-14.8,1.52-21.9,.25-.54,.31-1.17,1.22-1.41Z"/>
  <path class="cls-2" d="M239.84,105.67c.89,2.06,.74,4.3,1.03,6.45,1.45,10.74,2.74,21.5,4.16,32.25,.41,3.07,1.02,6.12,1.59,9.17,.33,1.76,.3,3.49-.34,5.16-.31,.82-.97,1.38-1.93,1.3-.95-.08-1.32-.79-1.24-1.61,.55-5.89-1.85-11.18-3.56-16.55-2.88-9.03-4.02-18.32-4.84-27.68-.11-1.23-1.28-2.11-.84-3.41,2.06-1.6,3.45-4.01,5.96-5.08Z"/>
  <path class="cls-8" d="M252.42,161.92c3.14-.55,6.28-1.01,9.44-.19,.58,.15,1.17,.36,1.69,.66,.69,.4,1.78,.64,1.73,1.58-.04,.82-1.13,.88-1.77,1.2-6.35,3.2-12.53,6.8-19.58,8.32-4.21,.91-8.33,.81-11.91-1.98-1.88-1.46-1.76-1.91,.44-2.71,5.52-2.03,11.06-4.03,16.59-6.04,1.2,.01,2.27-.45,3.37-.84Z"/>
  <path class="cls-2" d="M274.73,116.19c-.2,3.11-.13,6.8-2.51,9.88-.48,.62-.95,1.65-1.87,1.38-.71-.21-.7-1.25-.89-1.95-1.33-4.7-3.52-9.13-4.24-14.02-.65-4.43-1.28-8.84,.55-13.17,.62-1.46,1.84-2.32,2.92-3.33,.98,1.12,2.01,2.24,2.18,3.78,.28,2.45,1.19,4.67,2.14,6.9,1.35,3.19,1.65,6.58,1.72,10.53Z"/>
  <path class="cls-8" d="M192.09,163.9c-7.28,2.76-13.91,6.56-21.36,8.23-3.98,.89-7.85,.69-11.39-1.59-.58-.37-1.86-.93-.26-1.65,5.86-2.61,11.49-5.81,17.84-7.2,4.84-1.06,9.63-1.32,14.13,1.33,.31,.18,.56,.46,1.04,.87Z"/>
  <path class="cls-8" d="M239.66,165c-8.03,2.47-15.16,6.11-22.93,7.88-3.7,.84-7.25,.48-10.29-2.11-.64-.54-1.22-1.04,.08-1.56,7.07-2.9,14.04-6.11,21.68-7.28,3.99-.61,7.85-.17,11.47,3.07Z"/>
  <path class="cls-8" d="M208.32,161.41c2.2-.18,4.37,.36,6.29,1.75,.57,.41,1.21,.94-.01,1.41-6.98,2.67-13.66,6.17-21.08,7.58-3.38,.64-6.63,.36-9.6-1.6-1.07-.71-1.56-1.19,.07-1.89,6.46-2.8,12.91-5.57,19.9-6.83,1.43-.26,2.84-.43,4.43-.41Z"/>
  <path class="cls-2" d="M285.47,99.92c-2.59,.41-5.16,.09-7.72-.17-3.32-.34-5.85-1.92-7.33-5.03-.31-.66-.46-1.27-.29-1.96,.5-2.03,1.17-2.27,2.95-1.19,3.53,2.15,7.39,1.34,11.12,1.01,3.65-.32,7.1,.04,10.42,1.58,2.22,1.03,3.56,2.75,3.98,5.18,.23,1.36-.06,2.09-1.63,1.67-3.77-1.01-7.6-1.39-11.5-1.09Z"/>
  <path class="cls-2" d="M279.97,67.03c.22,2.41-1.73,3.75-2.74,5.55-2.47,1.38-2.93,3.01-1.65,5.81,.22,2.62,1.78,4.79,2.4,7.28,.11,.44,.31,.85,.44,1.28,.44,1.51,1.46,3.14,.34,4.57-.66,.84-4.87-.65-5.97-1.88-1.45-1.6-2.26-3.56-3.06-5.52-.1-.57-.21-1.14-.31-1.71,.07-.4,.03-.78-.26-1.1-.88-4.62-.84-9.16,1.76-13.26,1.53-2.42,5.89-2.78,9.05-1.02Z"/>
  <path class="cls-3" d="M311.57,116.79c0,.3,.03,.61,0,.91-.1,.75-.05,1.71-.71,2.08-.78,.44-1.36-.42-1.9-.89-3.97-3.44-8.65-5.83-12.91-8.84-2.6-1.83-5.01-3.94-6.25-7.05-.51-1.29-.26-1.8,1.21-1.69,6.53,.5,12.46,2.39,17.1,7.29,2.16,2.29,3.3,5.04,3.46,8.19Z"/>
  <path class="cls-8" d="M134.39,169.45c7.48-3.1,14.62-6.44,22.46-7.76,2.98-.5,5.89-.41,8.66,1.01,1.11,.57,1.5,1.09,.1,1.76-6.7,3.22-13.36,6.53-20.86,7.54-3.69,.5-7.08-.09-10.36-2.55Z"/>
  <path class="cls-3" d="M299.56,163.26c-.72-.45-.17-1-.11-1.5,.05-.26,.1-.52,.15-.78,1.72-1.12,1.56-2.96,1.81-4.65,.14-.33,.27-.65,.41-.98,.57-3.62,1.14-7.25,1.71-10.87,1.09-3.03,1.53-6.29,3.41-9.46,1.87,3.4,2.8,6.81,3.31,10.26,.79,5.26,.78,10.48-2.95,14.92-1.15,1.37-2.45,2.48-4.13,3.1-.89,.02-1.77,.03-2.66,.05l-.95-.09Z"/>
  <path class="cls-1" d="M294.52,157.6c1.27-.49,2.53-.98,3.8-1.47,1.14-.44,1.62-.1,1.27,1.13-1.95,7.02-5.03,13.19-12.36,16.08-3.24,.73-6.27,.12-9.19-1.36-.97-.49-1.18-.92-.13-1.5,6.19-3.45,10.63-9.14,16.6-12.87Z"/>
  <path class="cls-2" d="M215.04,123.14c1.55-1.74,3.46-2.95,5.62-3.78,5.02,7.06,6.95,15.34,9.28,23.46,.65,2.25,1.29,4.5,1.94,6.75,.24,.83,.07,1.58-.75,1.91-.67,.27-.84-.48-1.07-.9-5-8.99-9.99-17.98-14.97-26.98-.07-.12-.04-.3-.06-.45Z"/>
  <path class="cls-3" d="M303.39,116.26c3.7,2.83,7.35,5.04,9.9,8.47,2.99,4.02,3.01,8.58,1.75,13.22-.17,.63-.61,1.21-1.02,1.75-.7,.93-1.67,1.87-2.78,1.74-1.09-.13-.97-1.54-1.25-2.42-1.56-4.97-4.27-9.5-5.58-14.57-.64-2.49-1.16-5-1.02-8.18Z"/>
  <path class="cls-8" d="M264.65,173.59c-2.38-.11-4.67-.73-6.38-2.74-.44-.51-1.13-1-.06-1.56,6.71-3.58,13.37-7.33,21.46-5.79,1.31,.25,3.42,.13,3.64,1.12,.28,1.2-1.68,1.87-2.75,2.61-4.78,3.3-9.75,6.2-15.91,6.37Z"/>
  <path class="cls-2" d="M253.07,128.01c1.34,.35,1.47-.76,1.77-1.55,.98-2.54,2.13-4.99,3.73-7.85,.28,2.48,.4,4.47,.75,6.42,.69,3.87,.05,7.37-1.94,10.82-2.93,5.06-4.82,10.57-6.3,16.23-.53,2.05-.05,4.14-.36,6.51-1.32-1.29-1.6-2.66-1.62-4.08-.11-7.87,1.13-15.52,3.78-22.94,.32-.9,1-1.75,.59-2.81-.29-.17-.46-.4-.4-.75Z"/>
  <path class="cls-2" d="M258.18,93.38c1.25-.15,1.91,.12,1.87,1.66-.15,6.52,.05,13.06-1.22,19.51-.58,2.95-2.68,5.19-3.82,7.93-1.7-8.51-1.48-17.04-1.5-25.56-.08-.14-.1-.28-.05-.43,.76,0,1.09-.36,.75-1.08-.29-.61-.26-1.09,.34-1.46,.91,1.9,2.12,.18,3.18,.27,.09-.27,.18-.53,.27-.8l.18-.03Z"/>
  <path class="cls-3" d="M318.67,148.94c-.99,4.97-2.74,9.6-6.07,13.53-3.52,4.15-7.95,5.68-13.24,4.52-.63-.14-1.97,.1-1.74-1.2,.19-1.06,.9-1.76,2.17-1.26,.2,.08,.45,0,.68,0,4.07,.65,6.54-1.74,8.64-4.67,1.9-2.66,2.79-5.72,2.79-8.97,0-1.73,.23-2.95,2.09-3.68,1.8-.72,3.26-2.1,4.65-3.55,.79,.81,.27,1.7,.49,2.46-.11,.81-.22,1.61-.33,2.42-.12,.11-.15,.25-.11,.4Z"/>
  <path class="cls-8" d="M151.83,179.08c-1.51,0-3.03,0-4.54,0-6.45-.92-12.04-3.65-17.13-7.84,1.63-1.43,2.75-1.07,4.4,0,4.59,2.97,9.73,2.69,14.66,1.1,2.7-.87,4.6-.71,6.57,1.39,1.21,1.29,2.9,2.14,4.61,3.36-2.84,1.34-5.81,1.28-8.58,2Z"/>
  <path class="cls-2" d="M282.17,108.33c.78,10.74-1.44,19.97-9.8,27.14-1.08-1.82-.82-3.82-1.55-5.54-.24-.56,.16-1.02,.6-1.36,3.59-2.79,4.52-6.74,4.45-10.94-.04-2.66,.2-4.82,2.91-6.18,1.21-.61,2.09-1.89,3.38-3.12Z"/>
  <path class="cls-8" d="M251.23,178.91c-4.55,.67-9.11,1.05-13.69,.25-3.88-1.36-7.44-3.25-10.2-6.4-.38-.44-1.53-.82-.78-1.51,.69-.64,1.98-1.55,2.81-.64,6.28,6.83,13.5,4.82,20.71,2.23,1.82-.65,2.98-.81,4.07,1.03,.76,1.29,1.85,2.39,2.77,3.55-1.02,.29-2.5,.71-3.98,1.14-.16,.02-.31,.04-.47,.06-.42,.09-.84,.19-1.25,.28Z"/>
  <path class="cls-8" d="M204.15,178.95c-3.6,.36-7.19,.35-10.8,.13-5.01-1.22-9.5-3.47-13.47-6.74-.44-.36-1.61-.73-.93-1.42,.56-.56,1.74-1.4,2.62-.62,5.31,4.71,11.15,3.72,17.1,1.76,1.04-.34,2.01-.23,2.78,.4,2.21,1.82,4.38,3.68,7.03,4.94-1.3,1.41-3.05,.76-4.34,1.54Z"/>
  <path class="cls-8" d="M185.57,177.66c-4.95,1.48-9.69,1.81-14.47,1.36-5.85-.55-10.91-3.02-15.32-6.83-.4-.35-1.5-.66-.77-1.49,.54-.61,1.38-.95,2.23-.24,5.64,4.72,11.81,3.76,18.08,1.67,.8-.27,1.59-.56,2.36,.08,2.4,1.97,4.97,3.69,7.9,5.46Z"/>
  <path class="cls-3" d="M316.57,116.08c2.48,3.33,3.94,6.8,4.28,10.57,.37,3.99,.49,8.03-.79,11.95-1.09,3.37-3.38,5.7-6.38,7.38-.55,.31-1.43,1.34-1.89,.32-.46-1.04-1.3-2.78,.07-3.47,3.38-1.7,4.93-4.38,5.1-7.97,.16-3.36,.01-6.71-1.87-9.67-.62-.98-.84-1.89-.27-2.97,.95-1.81,1.04-3.9,1.74-6.14Z"/>
  <path class="cls-8" d="M231.62,178.21c-10.36,1.83-20.03,1.63-28.22-5.8-.42-.38-1.49-.71-.76-1.51,.47-.51,1.37-.77,2.05-.08,5.38,5.44,11.52,3.89,17.59,1.75,1.82-.64,2.85-.42,4.11,.95,1.52,1.65,3.33,3.02,5.22,4.7Z"/>
  <path class="cls-3" d="M303.39,94.84c1.63,.36,2.77,1.52,3.89,2.58,6.69,6.31,9.68,13.9,6.84,23.16-.19,.61-.03,1.99-1.29,1.56-1.05-.35-.87-1.26-.56-2.27,1.51-4.97-.02-9.43-3.8-12.48-3.49-2.81-5.77-5.61-4.98-10.25,.11-.64-.14-1.34-.21-2.01,0-.07,.05-.14,.11-.29Z"/>
  <path class="cls-6" d="M254.55,93.93c-.6,.37-.63,.85-.34,1.46,.34,.72,.01,1.07-.75,1.08-.2-.16-.4-.32-.6-.47,.33-1.83-.18-2.57-2.03-1.57-.39-.87-.92-.33-1.42-.16-.08-.92-.15-1.83-.23-2.75l.11,.06,.11-.05c.69-.16,1.69,.31,1.83-.93,1.79-2.29,3.59-4.57,5.38-6.86,.19,.18,.39,.36,.58,.54-.02,.14-.03,.27-.05,.41-.11,.16-.22,.33-.34,.49,.06,.04,.12,.08,.18,.12,.05-.2,.11-.4,.16-.6,2.25-.03,3.82-1.85,5.94-2.25,.08,.47,.21,.86,.83,.64,.7-.25,1.07-.7,.99-1.47,.85-.52,1.69-1.08,2.74-1.11,0,0,.1,.06,.1,.06,.11,.16,.22,.32,.33,.48,.57,.98,.27,2.24,1,3.17,.81,2.74-.4,3.88-3.02,4.64-2.28,.66-4.33,2.11-6.48,3.2-.2-.17-.39-.35-.59-.52,.25-1.73-.29-2.37-1.94-1.37-.64,.39-1.22,.88-1.82,1.32-.45,.37-.36,.67,.11,.93,.21,.28,.42,.56,.62,.84-.47,.22-.93,.43-1.4,.65Zm13.38-9.69c-.21-1.26-.71-1.99-1.81-1.19-1.52,1.1-2.91,2.38-4.38,3.54-.75,.59-.54,1.13-.06,1.72,.53,.65,.91,.32,1.49-.07,1.49-1,2.6-2.48,4.27-3.25,.27-.12,.39-.58,.49-.76Z"/>
  <path class="cls-2" d="M259.96,133.97c.44,4.5,1.14,8.51,.35,12.44-.79,3.92-2.96,7.4-4.37,11.14-.35,.93-1.3,1.22-2.3,1.01-1.18-.25-1.55-1.13-1.61-2.18-.14-2.3,.43-4.5,1.05-6.69,1.44-5.12,3.64-9.92,6-14.66,.12-.25,.36-.43,.89-1.06Z"/>
  <path class="cls-1" d="M287.3,174.24c3.53-.37,5.83-2.68,7.96-5.18,.85-.99,1.47-1.52,2.99-1.03,1.82,.59,3.81,.85,5.92,.65-3.66,4.68-15.29,11.83-24.21,7.7-1.44-1.08-3.21-1.66-4.5-2.97-.3-.3-.89-.49-.58-1.04,.38-.71,.91-.28,1.34-.01,3.03,1.93,6.31,2.79,9.9,2.32,.43-.06,.93,.06,1.2-.44Z"/>
  <path class="cls-2" d="M302.44,99.57c0,.53,.04,1.07,0,1.59-.05,.54,.15,1.42-.82,1.25-.79-.14-1.88-.62-1.78-1.42,.43-3.35-1.14-5.62-3.68-7.39-2.17-1.51-4.7-2.14-7.27-2.35-1.4-.12-1.77-.52-1.73-1.89,.14-4.25,.45-4.58,4.6-3.3,5.59,1.73,10.95,6.47,10.68,13.52Z"/>
  <path class="cls-2" d="M286.16,85.3c0,.75,.06,1.51-.01,2.26-.33,3.53-.85,3.96-4.38,3.98-.74,0-1.15-.21-1.23-.96-.05-.53-.08-1.06-.18-1.57-.97-4.82,.03-6.39,4.74-7.44,.72-.16,1.19-.1,1.17,.8-.02,.98,0,1.96,0,2.94-.03,0-.07,0-.1,0Z"/>
  <path class="cls-2" d="M288.51,104.85c.71-.17,.9,.28,1.17,.64,.59,.78,1.14,1.61,1.81,2.32,1.8,1.94,1.81,1.9-.43,3.14-1.81,1-3.75,1.58-5.78,1.9-.6,.09-1.41,.26-1.51-.52-.2-1.64-.2-3.31-.25-4.97,0-.18,.2-.52,.34-.54,1.77-.25,3.24-1.19,4.64-1.97Z"/>
  <path class="cls-2" d="M280.97,101.41c.81,0,1.42,0,2.02,0,.83,0,1.06,.37,.76,1.16-1.37,3.65-3.68,6.56-6.87,8.8-.56,.4-1,.36-1.13-.4-.19-1.11-.78-2.42-.41-3.32,.88-2.13,2.13-4.13,3.43-6.05,.47-.69,1.58-.07,2.18-.19Z"/>
  <path class="cls-3" d="M297.75,155.02c-1.14,.44-2.45,.53-3.26,1.62-1.6-.76-.3-1.85-.32-2.79,1.74-3.6,3.69-7.01,7.89-8.63-.09,1.11-.16,1.99-.23,2.88-.41,.86-.52,1.78-.48,2.72-.1,.62-.2,1.23-.3,1.85-.08,2.22-2.1,1.69-3.29,2.34Z"/>
  <path class="cls-2" d="M270.72,147.12c.66-3.19,1.28-5.99,1.35-8.87,.01-.47,.11-.91,.52-1.21,2.07-1.52,3.62-3.58,5.44-5.53,.63,4.71-2.92,12.42-7.31,15.61Z"/>
  <path class="cls-8" d="M151.01,161.71c-1.56,.53-2.91,.99-4.27,1.44-.51,.17-1.09,.33-1.53-.03-2.57-2.1-5.67-2.63-8.94-2.92,3.23-3.43,11.43-2.6,14.74,1.51Z"/>
  <path class="cls-8" d="M159.92,159.47c5.04-2.19,9.87-2.23,14.78,1.39-1.91,.71-3.5,1.27-5.06,1.88-1.07,.42-1.88-.05-2.71-.62-2-1.38-4.22-1.97-6.65-1.77-.12-.29-.24-.58-.36-.87Z"/>
  <path class="cls-8" d="M188.31,158.13c1.67,.03,3.34,.07,5.01,.1,1.75,.67,3.6,1.08,5.15,2.21,.29,.21,.73,.49,.74,.75,.03,.58-.58,.55-.99,.69-1.22,.39-2.44,.76-3.65,1.17-.45,.15-.93,.35-1.28,.02-2.44-2.27-5.59-2.71-8.89-3.3,1.27-1.19,2.74-1.06,3.92-1.64Z"/>
  <path class="cls-8" d="M223.96,161.35c-2.41,.8-4.3,1.43-6.2,2.07-.38,.13-.79,.18-1.06-.12-1.8-1.94-4.2-2.72-6.68-3.43,4.77-2.1,9.23-1.77,13.95,1.48Z"/>
  <path class="cls-7" d="M260.19,151.14c2.23,2.5,2.06,5.38,1.93,8.24-.03,.68-.46,.87-1.09,.82-1.43-.11-3.37,.35-4.18-.41-1.19-1.11,.81-2.33,1.13-3.63,.42-1.7,.97-3.46,2.21-5.02Z"/>
  <path class="cls-3" d="M295.66,111.5c2.04,1.19,3.49,2.41,5.25,3.11,.65,.26,1.21,.7,1.22,1.49,.02,1.8,0,3.6,0,5.54-3.74-2.13-5.63-5.47-6.47-10.14Z"/>
  <path class="cls-7" d="M232.6,151.96c.57,3.42,2.41,5.95,3.35,9.1-1.45-.2-2.61-.42-3.78-.52-2.8-.23-2.79-.2-2.01-3.05,.5-1.8,1.08-3.55,2.43-5.54Z"/>
  <path class="cls-3" d="M303.62,138.98c-1.87-3.98-2.25-7.94-.07-12.39,1.02,2.39,2.42,4.36,2.6,6.44,.18,2.06-1.85,3.8-2.53,5.95Z"/>
  <path class="cls-12" d="M301.04,152.68c.1-.62,.2-1.23,.3-1.85,1.52-.67,1.11-1.68,.48-2.72,.07-.88,.14-1.77,.23-2.88-4.2,1.62-6.15,5.03-7.89,8.63-.07-.46-.11-.93-.57-1.21,1.43-4.13,3.97-7.24,8.18-8.8,.35,.89,.88,1.25,1.76,.62-.57,3.62-1.14,7.25-1.71,10.87-.26-.89,.66-2.12-.77-2.67Z"/>
  <path class="cls-12" d="M234.34,103.88c-.65,.61-1.24,1.61-1.98,1.74-2.88,.53-2.33,2.42-1.98,4.31-.17,.25-.34,.49-.51,.74-1.07-3.94-2.47-7.84-1.63-12.04,.29-.08,.6-.17,.9-.26,.11,1.65,.27,3.3,.31,4.96,.06,2.22,1.23,1.88,2.4,.98,.83-.64,1.47-1.33,2.49-.43Z"/>
  <path class="cls-1" d="M289.29,159.55c-4.95,4.78-3.42,4.28-8.93,2.48,2.88-1.66,5.57-2.93,8.93-2.48Z"/>
  <path class="cls-2" d="M272.29,99.31c1.6,.35,2.78,1.43,4.3,1.54,.54,.04,.65,.58,.44,1.06-.27,.62-.54,1.24-.87,1.84-.36,.65-.67,1.59-1.43,1.64-1,.06-.81-1.1-1.09-1.71-.62-1.33-1.33-2.66-1.35-4.37Z"/>
  <path class="cls-8" d="M271.87,161.86c-3.12,1.81-4.88,1.85-6.41,.39-.82-.79-.58-1.18,.34-1.33,2.08-.34,4.16-.48,6.07,.94Z"/>
  <path class="cls-9" d="M249.59,113.89c.01,1.37,.02,2.73,.03,4.1-.38,0-.75,0-1.13,0-.05-2.49-.15-4.98-.12-7.46,0-.57-.57-1.91,1.05-1.41,.03,1.39,.06,2.78,.1,4.17-.03,.07-.1,.14-.09,.2,.03,.14,.1,.27,.16,.4Z"/>
  <path class="cls-10" d="M258.98,91.56c.2,.17,.39,.35,.59,.52-.46,.43-.92,.87-1.39,1.3,0,0-.18,.03-.18,.03-.09,.27-.18,.53-.27,.8-1.06-.09-2.28,1.63-3.18-.27,.47-.22,.94-.44,1.4-.65,1.23-.19,1.91-1.35,3.03-1.73Z"/>
  <path class="cls-12" d="M275.59,78.39c-1.29-2.79-.82-4.43,1.65-5.81-.74,1.84-2.25,3.53-1.04,5.73-.2,.03-.4,.05-.6,.08Z"/>
  <path class="cls-12" d="M248.42,162.03c.86-.7,1.95-.68,2.96-.89,.35,.26,.69,.52,1.04,.77-1.1,.39-2.17,.85-3.37,.84-.21-.24-.42-.48-.63-.72Z"/>
  <path class="cls-12" d="M240.42,100.67c.02-.31,.04-.62,.05-.94,.28,0,.55,0,.83-.01,.44,1.03,.53,2.1,.33,3.2-.68-.6,0-1.94-1.21-2.25Z"/>
  <path class="cls-12" d="M223.4,114.81c-.54-.34-.32-.91-.42-1.39,.27,0,.54,0,.81,.01,.48,.35,.49,.85,.47,1.37-.28,0-.57,0-.85,0Z"/>
  <path class="cls-12" d="M300.51,163.35c.89-.02,1.77-.03,2.66-.05-.88,.5-1.77,.47-2.66,.05Z"/>
  <path class="cls-4" d="M248.91,123.5c-.49-.88-.23-1.85-.33-2.78,.73,.85,.33,1.84,.33,2.78Z"/>
  <path class="cls-12" d="M318.78,148.54c.11-.81,.22-1.61,.33-2.42-.02,.82,.33,1.69-.33,2.42Z"/>
  <path class="cls-2" d="M249.63,137.6c-.01-.75-.02-1.51-.03-2.26,.37,.75,.43,1.5,.03,2.26Z"/>
  <path class="cls-8" d="M159.92,159.47c.12,.29,.24,.58,.36,.87-.36,0-.82,.16-.93-.34-.08-.34,.28-.46,.57-.53Z"/>
  <path class="cls-8" d="M116.64,165.92c.05-.47-.25-1.11,.55-1.24,0,.39,0,.77,0,1.16-.18,.03-.37,.06-.55,.08Z"/>
  <path class="cls-12" d="M230.27,112.31c-.29-.14-.3-.36-.18-.62,.06,.21,.12,.41,.18,.62Z"/>
  <path class="cls-8" d="M124.02,163.46c-.25-.05-.49-.11-.74-.16,.38-.05,.76-.11,1.14-.16,0,0-.03,.2-.03,.2-.15-.05-.27-.01-.36,.12Z"/>
  <path class="cls-12" d="M252.48,178.62c.16-.02,.31-.04,.47-.06-.16,.02-.31,.04-.47,.06Z"/>
  <path class="cls-8" d="M122.19,164.04c-.09,.25-.22,.35-.43,.12,.14-.04,.29-.08,.43-.12Z"/>
  <path class="cls-12" d="M251.54,161.08c.2-.07,.4-.14,.6-.21-.14,.23-.33,.34-.6,.21Z"/>
  <path class="cls-12" d="M225.32,120.05c.07,.22,.15,.43,.22,.65-.07-.22-.15-.43-.22-.65Z"/>
  <path class="cls-13" d="M252.32,106.18c0-.18,0-.36,0-.54,.26,.18,.25,.37,0,.54Z"/>
  <path class="cls-13" d="M252.25,99.33c0-.18,0-.35,0-.53,.26,.18,.26,.35,0,.53Z"/>
  <path class="cls-12" d="M184.64,97.91c.41,.21,.48,.58,.45,.99-.15-.33-.3-.66-.45-.99Z"/>
  <path class="cls-12" d="M191,107.98c.18,.21,.37,.41,.55,.62-.37-.04-.47-.32-.55-.62Z"/>
  <path class="cls-12" d="M188.29,113.97c-.19,.33-.45,.42-.79,.21,.26-.07,.53-.14,.79-.21Z"/>
  <path class="cls-8" d="M124.02,163.46c.09-.13,.21-.17,.36-.12-.03,.13-.06,.26-.09,.39-.09-.09-.18-.18-.27-.27Z"/>
  <path class="cls-2" d="M200.17,118.54c-1.47,.65-3.06,.23-4.57,.47-1.07-.24-.81-.79-.39-1.47,1.29-2.05,2.11-4.31,2.74-6.64,.13-.53,.27-1.05,.4-1.58,1.18-2.57,1.65-5.4,3.47-7.76,2.43-3.14,7.46-3.32,9.79-.08,.46,.63,.77,1.24-.26,1.55-4.99,1.51-5.73,5.98-7.03,10.06-.74,2.31-1.34,4.72-4.16,5.44Z"/>
  <path class="cls-6" d="M194.86,121.95c.03,.11,.1,.16,.22,.15,.17,.16,.34,.31,.51,.47,.08,.28,.17,.56,.25,.83-1.45,.53-2.91,1.06-4.36,1.59-.52-.1-1.02-.04-1.47,.26-1.85,.13-3.69,.28-5.54,0-.32-.23-.65-.41-1-.04-.15-.11-.3-.22-.45-.32-.36-.2-.71-.4-1.07-.6-1.22-2.81,1.09-4.22,2.38-6.03,.54-.48,1.08-.95,1.63-1.43,.26-.18,.52-.37,.79-.55,0,0,.11-.06,.11-.06,1.1-.63,2.2-1.26,3.29-1.89,.01,.33,.03,.65,.04,.98-1.7,1.12-3.42,2.24-4.72,3.83-.74,.9-1.75,1.9-1.08,3.22,.61,1.2,1.86,1.07,3,1.02,.9,.26,1.78,.29,2.6-.23,.11-.07,.14-.52,.05-.58-.86-.61-1.74,0-2.61,0-2.67-.6-2.88-1.07-.98-2.96,2.51-2.48,5.31-4.58,8.73-5.7,.31,2.24-1.72,3.39-2.42,5.17-.41,.36-.33,.7,.05,1.03,.23,.6,.7,.94,1.25,1.2,.27,.23,.54,.45,.81,.68Z"/>
  <path class="cls-6" d="M219.78,102.15c1.51,1.78,1.17,4.08,1.66,6.14,.11,.48-.45,.72-.89,.87-4.65,1.52-9.31,3.04-13.97,4.54-.57,.18-1.19,.12-.87-.71,.67-1.73,.71-3.74,2.16-5.15,4-1.84,8.07-3.51,11.91-5.68Z"/>
  <path class="cls-6" d="M234.34,103.88c-1.02-.9-1.66-.21-2.49,.43-1.17,.9-2.34,1.24-2.4-.98-.05-1.65-.2-3.31-.31-4.96,.13-.91,1.05-.89,1.58-1.31,2.69-1.11,5.38-2.22,8.07-3.34,.46,.19,.92,.38,1.39,.56,.02,1.21,.03,2.42,.05,3.63-.96,1.5-2.52,2.65-2.65,4.62h0c-1.38-.28-2.46,.19-3.25,1.34Z"/>
  <path class="cls-2" d="M218,115c-.03,.23-.06,.46-.09,.69-2.05,.34-3.23,2.77-5.6,2.33q-2.53-4.16,1.85-5.48c2.82-.85,2.9-.8,3.85,2.46Z"/>
  <path class="cls-4" d="M187.37,123.34c-1.14,.05-2.4,.19-3-1.02-.67-1.32,.35-2.31,1.08-3.22,1.3-1.59,3.02-2.7,4.72-3.83,1.72-.86,3.43-1.72,5.15-2.58,.09,.25,.19,.49,.28,.74-.16,.16-.31,.32-.47,.48,0,0,.03-.04,.03-.04-3.41,1.13-6.22,3.22-8.73,5.7-1.91,1.89-1.7,2.35,.98,2.96-.01,.27-.03,.54-.04,.81Z"/>
  <path class="cls-4" d="M219.78,102.15c-3.84,2.17-7.91,3.85-11.91,5.68,.06-.49,.05-1.01,.59-1.27,1.67-.84,3.68-1.09,4.9-2.73,0,0,0,0,0,0,2.41,.03,4.14-1.77,6.33-2.35,.03,.22,.06,.44,.09,.67Z"/>
  <path class="cls-4" d="M238.8,93.72c-2.69,1.11-5.38,2.22-8.07,3.34,0-.2-.01-.4-.02-.61,1.1-.58,2.19-1.19,3.32-1.72,.78-.37,1.98-.07,2.14-1.39,0,0,0,0,0,0,1.25,.44,2.1-.76,3.24-.8,0,.23,.01,.46,.02,.69-.21,.16-.41,.33-.62,.49Z"/>
  <path class="cls-6" d="M195.32,112.7c-1.72,.86-3.43,1.72-5.15,2.58-.01-.33-.03-.65-.04-.98,1.15-.65,2.29-1.3,3.44-1.95,.95-.29,1.77-.99,2.83-1.01,.29,1.04-.62,1.01-1.08,1.35Z"/>
  <path class="cls-6" d="M236.16,93.34c-.16,1.32-1.35,1.02-2.14,1.39-1.13,.53-2.21,1.15-3.32,1.72-.36-.01-.92,.11-1.04-.06-.26-.37,.24-.63,.5-.77,1.9-1.02,3.84-1.94,6-2.28Z"/>
  <path class="cls-6" d="M219.7,101.48c-2.19,.58-3.92,2.38-6.33,2.35,1.63-1.73,3.91-2.25,5.98-3.12,.66-.28,.62,.32,.35,.77Z"/>
  <path class="cls-6" d="M213.37,103.83c-1.22,1.64-3.23,1.89-4.9,2.73,1.11-1.86,3.03-2.24,4.9-2.73Z"/>
  <path class="cls-6" d="M239.4,92.54c-1.14,.03-1.99,1.23-3.24,.8,1.06-1.24,2.59-1.53,3.96-2.29,.26,.99-.35,1.16-.72,1.49Z"/>
  <path class="cls-6" d="M238.8,93.72c.21-.16,.41-.33,.62-.49,1.08-.25,.89,.43,.77,1.05-.46-.19-.92-.38-1.39-.56Z"/>
  <path class="cls-12" d="M228.35,98.17c-.8-1.06-.11-1.83,.5-2.62-.17,.87-.33,1.74-.5,2.62Z"/>
  <path class="cls-12" d="M198.35,109.33c-.13,.53-.27,1.05-.4,1.58-.04-.57-.21-1.17,.4-1.58Z"/>
  <path class="cls-12" d="M192.8,120.07c-.38-.33-.46-.67-.05-1.03,.02,.34,.03,.69,.05,1.03Z"/>
  <path class="cls-10" d="M219.1,113.55l.34,.06c-.06,.09-.12,.18-.18,.27-.15-.07-.2-.18-.16-.34Z"/>
  <path class="cls-5" d="M195.13,113.92c.16-.16,.31-.32,.47-.48-.03,.28,.06,.69-.47,.48Z"/>
  <path class="cls-11" d="M301.04,152.68c1.43,.55,.5,1.78,.77,2.67-.14,.33-.27,.65-.41,.98-.96-1.16-2.53-.61-3.66-1.31,1.19-.65,3.22-.12,3.29-2.34Z"/>
  <path class="cls-11" d="M299.6,160.98c-.05,.26-.1,.52-.15,.78-.4-.4-.56-.95-.17-1.32,.22-.21,.23,.33,.33,.54Z"/>
  <path class="cls-6" d="M321.41,54.11c.34,1-.63,.9-1.04,1.09-9.64,4.45-19.3,8.87-28.96,13.27-.59,.27-1.2,.69-1.89,.23,2.33-1.71,5.03-2.72,7.64-3.82,7.54-3.19,14.88-6.8,22.35-10.14,.6-.27,1.15-.77,1.9-.62Z"/>
  <path class="cls-6" d="M283.29,72.07c-.09-.52-.38-1.06,.19-1.49,1.09,.94,1.67-.43,2.53-.59,1.21-.23,2.13-1.36,3.49-1.28-.13,1.42-1.49,1.14-2.29,1.59-1.24,.71-2.61,1.19-3.92,1.77Z"/>
  <path class="cls-4" d="M257.14,84.7c.01-.14,.03-.27,.05-.41,2.44-1.64,5.26-2.51,7.84-3.86,.6-.31,1.58-.23,1.71-1.24,0,0-.04,.02-.04,.02,.29-.02,.58-.05,.88-.07,.02,.46,.04,.92,.07,1.38-1.05,.03-1.89,.58-2.74,1.11-.61,.28-1.22,.55-1.82,.83-2.11,.39-3.68,2.22-5.94,2.25v-.02Z"/>
  <path class="cls-10" d="M267.57,79.15c-.29,.02-.58,.05-.88,.07,.24-.67,.55-.45,.88-.07Z"/>
  <path class="cls-4" d="M269.16,81.32c.29,.32,.33,.7,.26,1.1-.36-.3-.4-.68-.26-1.1Z"/>
  <path class="cls-4" d="M268.06,81.06c-.11-.16-.22-.32-.33-.48,.11,.16,.22,.32,.33,.48Z"/>
  <g>
    <path class="cls-11" d="M191,107.98c-1.41-1.25-2.15-2.98-3.23-4.48-.24-.33-.5-.8,.16-1.06,1.05-.19,.84,.86,1.26,1.29,.13,.19,.27,.38,.4,.57,.17,.26,.34,.51,.51,.77,.15,.2,.31,.4,.46,.61,.18,.25,.36,.51,.54,.76,.16,.21,.32,.42,.48,.62,.13,.14,.25,.29,.38,.43,.13,.15,.26,.31,.39,.46,.17,.2,.35,.39,.52,.59,.04,.42,.23,.71,.66,.79,.4,.36,.81,.73,1.21,1.09,.53,.39,.98,.41,1.29-.27,.4-.29,.81-.58,1.21-.88,.12-.1,.18-.22,.19-.38,.08-.33,.16-.65,.24-.98,.07-.14,.14-.28,.2-.42,0,0,0,0,0,0,.57-.35,.45-.91,.43-1.44,1.09-5.87,4.71-8.13,8.39-8.24,2.5-.07,4.42,1.03,5.85,2.93,.82,1.1,1.44,.87,2.62,.57,3.8-.96,4.7-3.47,5.07-7.04,.6-5.84,4.87-9.06,10.36-8.3,2.43,.34,4.65,1.28,6.12,3.47,.39,.58,.67,1.54,1.68,1.11,.93-.4,2.05-.64,2.07-2.06,.01-.82,.26-1.64,.4-2.45,.43-.39,.34-.89,.31-1.38-.07-.49-.04-.95,.35-1.32,.34,0,.68,0,1.01-.01,.01,1.67-.62,3.23-.8,4.89-.41,3.84-.22,7.68-.43,11.51-.28,0-.55,0-.83,.01-.08-.61-.16-1.21-.25-1.82-.02-1.21-.03-2.42-.05-3.63,.12-.63,.31-1.3-.77-1.05,0-.23-.01-.46-.02-.69,.37-.33,.98-.5,.72-1.49-1.37,.76-2.9,1.05-3.96,2.29h0c-2.16,.34-4.1,1.27-6,2.28-.26,.14-.76,.39-.5,.77,.12,.18,.68,.05,1.04,.06,0,.2,.01,.4,.02,.61-.54,.43-1.45,.4-1.58,1.31-.3,.09-.6,.17-.9,.26,.04-.15,.07-.31,.11-.46l.5-2.62c.44-1.4,1.59-1.9,2.86-2.29,1.15-.35,2.26-.82,3.4-1.18,1.27-.4,1.34-1.07,.51-1.97-3.95-4.3-10.52-4.07-13.12,1.14-1.51,3.02-1.8,6.21-1.15,9.51,.83,4.22,1.63,8.46,2.44,12.68-.27,0-.54,0-.81-.01-.61-.66-.56-1.54-.78-2.32-.12-.43-.21-1.03-.8-.87-1.08,.3-2.36,.49-3.12,1.2-.6,.56,.4,1.43,.82,2.11-.04,.16,.02,.27,.16,.34,.26,1.14-.05,1.64-1.26,1.11-.94-3.26-1.02-3.31-3.85-2.46q-4.38,1.32-1.85,5.48c.2,1.09-.49,1.03-1.2,.92-.25-.46-.5-.92-.76-1.38-.06-.14-.12-.28-.18-.42-.64-.9-.55-2.74-2.03-2.54-1.51,.21-3.29,.49-4.02,2.37-.35,.91-1.04,1.63-2,2-.2,.13-.4,.26-.59,.38-.37,.43-.89,.38-1.38,.42,0-.4,.01-.81,.02-1.21,2.82-.72,3.41-3.13,4.16-5.44,1.31-4.08,2.04-8.55,7.03-10.06,1.04-.31,.72-.92,.26-1.55-2.33-3.23-7.36-3.06-9.79,.08-1.82,2.36-2.29,5.19-3.47,7.76-.61,.4-.44,1.01-.4,1.58-.64,2.33-1.45,4.58-2.74,6.64-.42,.68-.68,1.22,.39,1.47-.48,.78-1.34,1.3-1.55,2.26-.55-.26-1.02-.6-1.25-1.2-.02-.34-.03-.69-.05-1.03,.69-1.77,2.72-2.92,2.42-5.17,0,0-.03,.04-.03,.04,.53,.21,.44-.2,.47-.48-.09-.25-.19-.49-.28-.74,.47-.34,1.38-.3,1.08-1.35-1.07,.02-1.88,.72-2.83,1.01-.2-.22-.4-.43-.6-.65,.88-1.66-1.23-1.94-1.42-3.11-.18-.21-.37-.41-.55-.62Zm22.36-4.15c-1.87,.49-3.79,.87-4.9,2.73-.54,.27-.53,.78-.59,1.27-1.45,1.41-1.49,3.41-2.16,5.15-.32,.83,.3,.9,.87,.71,4.66-1.5,9.31-3.02,13.97-4.54,.44-.14,1.01-.38,.89-.87-.49-2.06-.15-4.36-1.66-6.14l-.09-.67c.27-.45,.31-1.05-.35-.77-2.07,.87-4.35,1.39-5.98,3.12h0Z"/>
    <path class="cls-9" d="M248.24,91.61c.27-2.45,.36-4.99,2.25-6.89,.51-.51,1.03-1.78,2.06-.51-2.01,2.03-3.38,4.33-3.16,7.32,0,0-.11,.05-.11,.05,0,0-.11-.06-.11-.06-.31,.03-.62,.05-.94,.08Z"/>
  </g>
  <path class="cls-12" d="M190,125.24c.45-.3,.95-.35,1.47-.26-.43,.41-.96,.3-1.47,.26Z"/>
  <path class="cls-12" d="M195.83,123.4c-.08-.28-.17-.56-.25-.83,.44,.17,.56,.44,.25,.83Z"/>
  <path class="cls-12" d="M183.46,125.2c.35-.37,.67-.19,1,.04-.33-.01-.66-.02-1-.04Z"/>
  <path class="cls-11" d="M195.5,121.29c-.11,.11-.23,.23-.34,.34,.11-.11,.23-.23,.34-.34Z"/>
  <path class="cls-6" d="M186.73,116.26c-.26,.18-.52,.37-.79,.55-.24-.2-.47-.4-.71-.6,.13-.14,.26-.27,.39-.41,.44-.04,.83,.07,1.1,.45Z"/>
  <path class="cls-9" d="M248.24,91.61c.31-.03,.62-.05,.94-.08,.08,.92,.15,1.83,.23,2.75-.69,1.2-.46,2.53-.25,3.74,.49,2.93,.28,5.86,.28,8.79-1.19,.62-1.05-.39-1.06-.95-.09-3.91-.12-7.83-.17-11.74,0-.83,.02-1.67,.04-2.5Z"/>
  <path class="cls-11" d="M257.73,94.21c.09-.27,.18-.53,.27-.8-.09,.27-.18,.53-.27,.8Z"/>
  <path class="cls-9" d="M267.93,84.25c-.11,.17-.22,.63-.49,.76-1.67,.76-2.79,2.24-4.27,3.25-.58,.39-.96,.72-1.49,.07-.48-.59-.69-1.13,.06-1.72,1.47-1.16,2.87-2.43,4.38-3.54,1.1-.8,1.6-.07,1.81,1.19Z"/>
  <path class="cls-9" d="M258.98,91.56c-1.12,.38-1.8,1.54-3.03,1.73-.21-.28-.42-.56-.62-.84-.04-.31-.07-.62-.11-.93,.61-.44,1.18-.93,1.82-1.32,1.65-1.01,2.19-.36,1.94,1.37Z"/>
  <path class="cls-12" d="M252.86,96c-.27,.11-.55,.33-.81,.3-.79-.08-1.1,1.72-1.9,.66-.6-.79-.13-1.84,.68-2.53,1.85-.99,2.37-.26,2.03,1.57Z"/>
  <path class="cls-6" d="M263.08,82.47c.61-.28,1.22-.55,1.82-.83,.08,.77-.29,1.23-.99,1.47-.62,.22-.75-.18-.83-.64Z"/>
  <path class="cls-10" d="M257.14,84.72c-.05,.2-.11,.4-.16,.6-.06-.04-.12-.08-.18-.12,.11-.16,.22-.33,.34-.49,0,0,0,.02,0,.02Z"/>
  <path class="cls-10" d="M255.22,91.51c.04,.31,.07,.62,.11,.93-.47-.26-.56-.56-.11-.93Z"/>
  <path class="cls-4" d="M249.59,113.89c-.05-.13-.12-.26-.16-.4-.01-.06,.06-.13,.09-.2,.19,.18,.24,.38,.06,.6Z"/>
  <path class="cls-11" d="M301.82,148.1c.63,1.05,1.05,2.06-.48,2.72-.04-.94,.07-1.86,.48-2.72Z"/>
  <path class="cls-9" d="M237.59,102.53c.57-.47,1.14-.94,1.71-1.41,1,2.62-.73,4.65-7.49,8.83-.87-1.28-.46-2.15,.72-3.03,1.79-1.35,3.83-2.42,5.07-4.4,0,0,0,0,0,0Z"/>
  <path class="cls-13" d="M187.37,123.34c.01-.27,.03-.54,.04-.81,.88,0,1.76-.61,2.61,0,.09,.06,.05,.51-.05,.58-.82,.52-1.7,.49-2.6,.23Z"/>
</svg>