<?xml version="1.0" encoding="UTF-8"?>
<svg id="Layer_1" data-name="Layer 1" xmlns="http://www.w3.org/2000/svg" viewBox="0 0 414 200">
  <defs>
    <style>
      .cls-1 {
        fill: #f7b7d3;
      }

      .cls-2 {
        fill: #00bef2;
      }

      .cls-3 {
        fill: #fff9b8;
      }

      .cls-4 {
        fill: #fff200;
      }

      .cls-5 {
        fill: #ece9e1;
      }

      .cls-6 {
        fill: #fbb040;
      }

      .cls-7 {
        fill: #9ed2f1;
      }

      .cls-8 {
        fill: #b5cfb9;
      }

      .cls-9 {
        fill: #bbac98;
      }

      .cls-10 {
        fill: #c9c2bb;
      }

      .cls-11 {
        fill: #6f675e;
      }

      .cls-12 {
        fill: #563626;
      }

      .cls-13 {
        fill: #47433d;
      }
    </style>
  </defs>
  <path class="cls-13" d="M182.48,73.98c3.07,.49,4.2,3.43,5.75,5.62,1.28,1.81,2.65,2.72,4.68,3.09,5.46,.99,10.94,1.96,16.33,3.34,3.39,.86,6.38,.43,9.46-1.1,3.69-1.82,7.48-3.36,11.51-4.23,10.01-2.17,18.55,1.07,24.25,9.72,3.98,6.03,9.29,6.5,14.86,7.64,1.53,.31,1.85-.84,2.41-1.93,5.03-9.79,18.28-11.03,24.75-2.23,1.48,2.01,2.02,4.68,1.98,7.23-.04,2.36,.89,3.05,2.87,3.45,14.12,2.79,28.22,5.7,42.33,8.58,9.77,1.99,19.54,3.97,29.29,6.03,.87,.18,2.7-.16,1.84,2.03-1-.13-2.01-.19-3-.4-10.64-2.18-21.28-4.42-31.92-6.58-16.52-3.35-33.05-6.71-49.6-9.91-1.75-.34-3.71-1.78-5.64-.11,.65,1.17,1.73,.77,2.51,1.19,0,.31,.01,.63,.02,.94-3.95-.34-4.75,2.3-4.69,5.73,0,.12,.01,.25-.03,.36-1.26,3.66,.41,4.68,3.55,5.31,18.1,3.65,36.17,7.53,54.25,11.29,11.31,2.35,22.63,4.62,33.94,6.92,.44,.34,.88,.68,1.49,1.16-5.87,1.12-11.18-1.22-16.58-2.3-21.01-4.19-41.99-8.58-62.97-12.99-2.13-.45-3.21-.09-4.03,2.26-2.14,6.18-5.25,11.8-9.48,16.66-.86,.99-1.31,2.16-1.64,3.51-3.12,12.94-9.75,22.69-21.93,27.29-1.76,.66-3.1,2.06-4.29,3.38-7.72,8.59-17.34,9.98-27.26,7.11-7.89-2.28-15.75-4.61-23.68-6.78-9.56-2.62-17.8-8.15-22.2-18.16-1.78-4.05-4.05-6.68-7.63-8.97-5.91-3.77-10.09-9.52-12.39-16.58-.7-2.16-1.55-3.33-3.91-3.58-3.59-.38-7.11-1.47-10.3-3.41-1.56-.95-2.67-.54-3.87,.71-5.16,5.37-11.56,8.33-18.26,10.66-1.09,.38-2.11,.69-2.9,1.69-7.36,9.4-17.04,13.47-28.25,13.95-.37-.2-.62-.08-.76,.33-2.5,2.26-4.96,4.57-7.51,6.76-6.14,5.28-13.3,8.08-20.97,9.43-1.7,.3-2.83,1.16-4.01,2.37-5.72,5.87-11.96,10.99-19.1,14.76-.76,.4-1.7,1.21-2.48,.44-.74-.74,.16-1.5,.49-2.22,8.13-2.4,13.4-9.14,20.41-14.64-3.9-.74-7-.66-9.85-1.92-1.33-.59-1.81,.29-2.41,1.24-1.83,2.93-3.87,5.69-6.32,8.05-.65,.63-1.28,2.06-2.4,.53,.62-.98,1.23-1.96,1.85-2.94,7.53-7.31,10.8-17.87,17.73-25.99-2.72-1.24-5.01-1.12-7.31-.3-3.72,1.33-6.7,3.89-9.57,6.63-.79,.75-1.36,2.11-2.79,1.32,.81-3.71,3.99-5,6.44-6.89,1.87-1.45,3.42-2.75,4.29-5.26,1.59-4.6,5.6-6,9.61-7.12,1.09-.3,2.24-.74,3.33-.65,5.59,.48,10.51-2.4,15.8-3.38,1.6-.3,2.26-1.3,2.8-2.75,2.37-6.44,7.12-9.1,13.28-9.37,3.55-.15,7.13,.56,10.35-2.14,1.54-1.28,2.91-2.37,3.86-4.31,1.92-3.95,4.64-7.14,8.88-8.36,.28-.13,.55-.27,.83-.4,.13-.22,.31-.33,.55-.32,.27-.11,.53-.22,.8-.33,1.62-.78,3.28-1.31,5.08-1.16,.87,2.5-1.21,1.91-2.15,2.19-5.15,1.52-9.71,3.8-12.5,9.7,1.93-.37,3.39-1.04,4.75-.84,4.56,.66,7.66-1.4,10.08-5.32,1.07-1.72,3.84-2.9,1.04-5.42,0,0,.13-.18,.2-.27,5.92,.07,13.76-6.18,15.14-12.1-1.61-1.28-4.5,2.56-5.26-1.17-.5-2.46,2.33-1.54,3.38-2.58,2.95-.5,6.84-5.13,7.12-8.44,.11-1.34-.72-1.44-1.51-1.15-2.55,.93-4.2,3.16-6.08,5.06-1.74,1.77,1.15,1.86,.87,3.04-.05,.2-.3,.34-.47,.5-3.96-1.75-6.43,2-9.65,3.01-1.07,.34-.37,1.31-.21,1.79,.64,2.04-1.21,2.41-1.97,2.7-1.35,.51-1.17-1.14-1.09-1.93,.13-1.36-.4-1.73-1.5-1.68-5.16,.23-8.4-3.42-12.09-6.93-.31,4.02-2.47,3.73-5.14,2.88-5.38-1.72-10.36-4.26-14.27-8.59-3.59-3.97-2.47-7.98,2.36-9.7,.96-.34,1.95-.61,2.91-.98,1.75-.66,4.45,.22,5.16-1.54,.51-1.28-1-3.51-1.64-5.3-2.44-6.82-4.02-13.9-5.13-21.08-.55-3.57-2.23-6.81-2.38-10.48-.07-1.8-.67-3.58-.14-5.39,.26-.08,.51-.16,.77-.24,.56,.11,1.12,.21,1.69,.32-.13,3.52,.4,6.98,.99,10.42,1.71,10.12,3.46,20.24,7.39,29.73,.55,1.33,1,2.68,2.7,2.86,2.9,.3,5.78,.74,8.56,1.11,.51-.84,.18-1.39-.15-1.84-4.62-6.29-5.34-14.13-7.44-21.42-.36-1.24-1.3-3.17,1.44-2.49,1.14,4.68,1.75,9.54,3.56,13.99,1.55,3.8,3.52,7.41,5.22,11.14,.66,1.45,1.93,1.55,3.08,1.93,.64,.21,1.37,.17,1.99,.42,4.82,1.99,8.87,.51,13.17-2.29,12.24-7.97,24.79-7.83,37.29-.38,.38,.23,.85,.3,1.27,.45,.24,.2,.47,.4,.71,.6,0,0,.1,.07,.1,.07,.2,.2,.4,.39,.6,.59,0,0,.11,.15,.11,.15-.66,2.29-1.87,2.04-3.29,.81-2.9-3.32-6.44-4.23-10.48-3.14-5.33,1.44-9.61,4.54-12.9,9.26-3.28,4.7-5.57,9.95-7.39,15.45-1.54,4.68-1.52,4.65,3.21,4.76,1.34,.03,2.71,.23,4.01,.58,1.67,.45,2.51,.05,2.76-1.91,.48-3.7,1.74-7.09,3.98-10,.42,.81,1.16,1.02,1.92,1.21-1.79,.54-2.41,1.58-2.3,3.75,.12,2.45,1.72,1.81,2.83,2.16,6.92,2.15,14.05,3.29,21.11,4.72,3.62,.73,7.22,1.99,11,1,4.92-1.29,9.61-3.18,13.96-5.98,1.4-.08,.71-1.01,.6-1.7,1.23-.08,2.57,.59,4.56-.97-7.54-1.46-14.3-2.55-20.97-4.14-4.92-1.17-10.07-1.23-14.78-3.41,2.35-.39,3.54-2.32,4.79-4.16,.48,2.37,1.82,3.98,3.95,4.72,.59,.21,1.43,.17,1.82-.52,.38-.67-.37-1.02-.64-1.51-.96-1.71-3.05-2.61-3.12-4.97l-.04-.14Zm87.24,27.13c.47-.46,.39-.71-.25-.74-.18-.18-.39-.23-.63-.16-.22-.07-.44-.15-.65-.22-.46-.13-.93-.25-1.39-.38-8.89-1.97-17.73-4.31-26.85-4.81-.37-.07-.74-.13-1.12-.2,.06,.61,.48,.51,.85,.49-.03,.25-.06,.5-.09,.75-.12,.15-.13,.31-.02,.47-8.4-2.15-15.08,1.85-22.25,6.89,1.27,.36,1.78,.55,2.31,.65,8.75,1.69,17.52,3.28,26.26,5.08,6.64,1.37,13.23,2.99,19.84,4.5,.72,.17,1.87,.9,2.05-.19,.57-3.57,2.27-7.08,.92-10.84,.67-.1,.88-.62,1.01-1.23v-.07Zm-60.66,68.35c-.75-3.91-2.29-6.3-6.57-7.21-6.89-1.47-12.29-5.9-15.51-12.88-.9-1.95-1.72-3.95-2.36-6-.56-1.78-1.85-2.8-3.25-2.62-1.39,.17-.81,2.01-.83,3.1-.04,1.68,.04,3.41,.36,5.05,2.67,13.55,11.51,20.41,23.07,24.29,2.76,1.42,5.67,1.96,9.21,1.99-1.56-2.16-2.84-3.94-4.13-5.71Zm-21.63-26.45l-.71-.23c.03,.26,.05,.52,.08,.78,.14,1.74,.87,3.24,1.61,4.74,6.96,14.06,22.48,15.13,33.9,11.74,1.68-.5,1.52-1.55,.68-2.69-1.94-2.59-4.29-4.52-7.24-5.76-9.18-3.87-18.87-5.77-28.32-8.59Zm-100.25-10.13c-1.45,.11-2.92,.07-4.34,.34-6.48,1.22-12.86,2.61-17.66,8.19-4.23,4.91-6.77,11.08-10.8,16.12-1.42,1.77-.17,2.48,1.39,2.83,4.44,1,8.32-.52,11.76-3.31,8.08-6.55,14.34-14.89,19.94-23.84,.36-.17,.47-.4,.11-.67-.04-.03-.27,.22-.41,.33Zm165.23,3.72c-.24-.24-.55-.56-.88-.87-6.78-6.4-10.51-14.45-11.22-24.08-.13-1.75-1.23-1.8-2.32-2.03-4.11-.86-8.3-1.38-12.31-2.6-7.09-2.15-13.66-2.09-20.61,1.42-9.91,5-19.06,1.4-23.13-8.94-.61-1.54-1.66-2.19-3.16-2.26-1.31-.06-1.49,1.01-1.55,1.93-.11,1.66-1.87,3.57,.15,4.95,2.53,1.73,4.17,4.52,6.6,6.24,6.78,4.78,10.92,11.27,12.61,19.81,.48,2.43,1.58,5.15,4.58,5.67,6.65,1.15,11.46,4.69,13.92,11.71,.61,1.73,2.23,3.93,4.42,2.47,6.91-4.62,13.38-2.81,19.81,1.06,1.07,.64,1.67,.93,2.15-.75,1.59-5.49,5.04-9.38,9.67-12.11,.57-.34,1.31-.47,1.27-1.61Zm-64.73-37.24c-1.04,.2-2.47-.97-3.07,.45-.52,1.24,.78,2.16,1.4,3.1,3.36,5.08,8.97,6.72,15.85,4.75,6.06-1.74,11.44-5.12,17.04-7.98,4.48-2.29,8.71-5.13,13.72-6.12,6.22-1.22,12.38-.67,18.57,.21,.85,.12,2.01,.75,2.55-.15,.67-1.11-.37-2.07-1.02-2.82-6.08-6.93-13.39-10.35-22.29-8.06-10.4,2.68-19.77,8.16-29.35,13.05-4.24,2.17-8.77,3.1-13.41,3.56Zm81.17,38.97c4.46-2.42,6.47-6.09,8.21-9.77,2.53-5.37,3.21-11.31,3.65-17.24,.7-9.34,2.87-11.07,11.11-8.76,4.28,1.2,4.72,.7,3.8-3.83-.84-4.14-2.96-7.45-6.72-8.36-6.69-1.63-15.11,2.1-16.91,10.47-2.1,9.73-3.04,19.56-3.14,29.52-.02,2.48,0,4.97,0,7.98Zm-101.2-20.7c-2.18-.45-2.16,1.15-1.55,3.04,1.07,3.33,2.34,6.59,4.56,9.26,7.59,9.16,18.02,11.84,28.58,14.09,1.91,.41,1.22-1.19,.92-2.11-1.23-3.81-3.36-6.94-5.87-9.97-7.03-8.47-15.81-12.98-26.63-14.32Zm78.47,46.99c1.06,.82,1.85,.7,2.62,.66,9.5-.48,17.86-9.67,18.38-20.71,.3-6.28-.07-12.58-.07-18.88,0-2.45-.99-1.85-2.26-1.04-3.25,2.09-5.16,5.31-6.72,8.88-4.45,10.21-5.72,21.76-11.96,31.1ZM162.82,63.51c-11.3-2.14-20.94,1.11-29.09,8.43-5.16,4.64-9.87,8.83-17.12,6.33-.79-.27-2.19-.89-2.75,.37-.53,1.2,.41,2.39,1.05,3.27,5.36,7.34,12.97,8.62,19.43,2.27,6.35-6.24,14.24-10,20.67-16.05,2.08-1.96,4.94-2.96,7.81-4.61Zm-4.75,38.35c-8.42-5.86-13.41-5.9-20.74-1.63-5.53,3.22-9.38,8.26-13.48,13.04-3.45,4.02-6.42,8.5-10.4,12.44,2.27,.78,3.92,.28,5.56-.11,5.58-1.33,10.19-4.49,14.32-8.61,6.95-6.93,13.77-14.09,24.74-15.14Zm26.81,19.55c-.49-2.11-.67-3.04-.92-3.95-1.77-6.53-4.77-11.74-11.81-12.61-2.69-.33-5.37-.72-8.06-1.05-6.38-.79-12.27,.86-17.84,4.14-1.54,.91-1.69,1.74,0,2.68,3.32,1.84,6.65,3.58,10.41,4.14,9.3,1.4,19.01,.58,28.21,6.65Zm-65-5.54c-5.66-.35-9.92,1-13.81,3.5-8.82,5.69-16.02,13.27-22.07,22.16-1.06,1.56-.65,2.3,.78,3.01,3.14,1.57,5.95,.33,8.75-1.06,11.64-5.76,16.57-18.63,26.35-27.62Zm94.15,48.1c3.98,3.29,7.84,6.68,12.73,7.93,5.32,1.36,10.38,.62,14.39-3.8,3.25-3.58,5.59-7.86,7.54-12.4,.81-1.89,.25-2.28-1.47-2.19-5.55,.3-11.02,1.05-15.93,4.07-5.34,3.3-10.88,5.85-17.25,6.39Zm40.02,8.7c-4.4-.14-8.14-.08-11.62-1.69-.87-.4-1.55,.06-2.21,.51-7.26,4.89-14.23,3.33-21.04-1.1-2.69-1.75-5.46-3.38-7.72-5.8-.46-.49-.98-1.27-1.71-.84-1.07,.64-.16,1.54,.07,2.19,1.03,2.99,2.49,5.81,4.88,7.73,5.34,4.28,11.33,6.94,18.06,7.48,8.03,.63,15.26-1.1,21.29-8.48Zm-123.62-100.51c-4.55-1.01-8.62-2.14-12.76-2.79-7-1.11-14.04-2.68-21.02,.39-3.8,1.67-4.4,4.25-1.15,6.88,3.31,2.68,6.6,5.5,10.69,6.79,1.47,.46,3.2,1.91,4.38,.89,1.19-1.03-.18-2.93-.56-4.35-.73-2.79,.18-3.87,2.69-3.98,2.61-.12,5.19,.06,7.74,.73,2.81,.74,5.38,.39,7.34-2.19-.22-1.03-1.99-.4-1.84-1.86,1.37-.57,2.67,.95,4.49-.52Zm-13.87,63.07c8.08,.27,14.92-3.53,21.53-7.74,6.39-4.07,6.28-4.27,.41-9.09-.09-.07-.18-.15-.26-.24-1.16-1.33-2.16-1.23-3.44,.04-6.16,6.11-13.14,10.09-21.86,9.99-2.49-.03-4.08,2.8-4.46,4.85-.37,1.97,2.39,1.27,3.72,1.74,1.36,.48,2.9,.32,4.37,.45Zm125.6-23.54c.93,9.42,4.32,16.85,10.69,22.63,.93,.84,1.51,1.31,2.56-.35,2.6-4.11,5.66-7.9,1.93-13.03-.4-.55-.33-1.51-.76-1.99-1.63-1.82-.95-5.32-3.44-6.24-2.97-1.09-6.15-1.57-9.25-2.27-1.35-.3-1.93,.33-1.72,1.24Zm-151.84,39.81c-1.16-.06-1.87,.07-2.46-.16-7.27-2.82-12.55-.03-17.69,5.76-4.35,4.9-10.2,7.09-16.77,4.5-1.93-.76-2.27,1.33-2.72,2.47-.6,1.5,.94,1.28,1.67,1.51,11.28,3.61,29.96-3.17,37.97-14.09Zm188.41-6.73c-2.56,1.07-4.8,2.29-7.17,2.92-2.31,.61-3.43,1.81-4.26,4.25-3.37,9.91-11.02,15.32-21.21,15.32-1.21,0-2.59,0-2.64,1.43-.04,1.12,1.42,1.24,2.38,1.45,17.15,3.69,29.22-10.02,32.9-25.37Zm-9.42-1.67c-.89,3.69,.63,3.35,2.97,2.42,9.96-3.95,14.39-13.02,18.41-22.52,.55-1.29,.33-2.11-1-2.42-1.87-.44-3.75-.83-5.63-1.27-1.96-.46-2.7,.24-3.06,2.5-1.09,6.85-3.59,13.02-9.28,16.95-1.69,1.17-3,2.1-2.41,4.33Zm-149.24-6.05c-1.67,0-2.91,.13-4.13-.02-3.33-.41-7.04-2.14-9.86-1.08-2.87,1.08-4.74,5.08-7.65,6.93-4.85,3.08-9.77,6.28-15.77,2.68-1.7-1.02-2.05,.99-2.76,2.18,15.95,4.8,32.12,.14,40.17-10.69Zm58.79,7.01c.1-4.58,.05-4.5-3.81-7.06-1.51-1-2.85-2.38-4.11-3.76-3.58-3.89-5.66-8.67-7.01-13.88-.19-.74-.27-1.9-1.35-1.77-1.26,.14-1.11,1.36-1.1,2.27,.16,11.38,4.76,20.28,13.44,26.66,3.67,2.7,3.83,2.45,3.94-2.47Zm-19-22.4c-.94-1.2,1.7-4.11-1.68-4.63-5.1-.78-9.69-2.89-14.16-5.6-2.66-1.61-3.63,1.62-4.97,3.08-1.47,1.59,.53,2.24,1.31,2.93,4.48,3.99,9.55,6.84,15.26,8.2,4.33,1.03,4.35,.96,4.25-3.99Zm77.65,30.89c-4.08-2.39-8.2-4.23-12.87-2.94-4.09,1.14-4.28,1.81-1.55,5.03,.53,.63,1.17,1.22,1.49,1.96,.78,1.83,1.73,1.73,3.17,.82,3.06-1.94,6.19-3.77,9.76-4.87Zm22.01-38.5c-.79,.22-1.96-.82-2.1,.93-.11,1.28,2.78,9,3.64,9.17,2.09,.41,3.16-2,5.03-2.33,.2-.04,.4-.22,.56-.38,1.57-1.56,1.21-5.46-.61-5.95-2.17-.59-4.39-.97-6.52-1.43Zm-5.8,25.05c-5.88,2.87-9.15,6.76-10.82,12.53,2.17,0,3.95-.06,5.72,.02,1.21,.05,1.92-.49,2.23-1.69,.88-3.32,1.75-6.64,2.86-10.86Zm-155.47-16.61c-8.04-1.36-13.31,1.67-15.08,8.19,7.36,2.19,10.29-4.94,15.08-8.19Zm-32,15.23c-7.09-.98-13.43,2.26-14.81,7.4,2.48,.19,4.97-.45,7.4,.32,.78,.25,1.29-.27,1.69-.88,1.61-2.44,3.43-4.69,5.72-6.84Zm108.99-39.21c-1.7-3.86-5.16-3.04-7.73-3.53-2.89-.55-2.66,2.94-2.45,4.28,.72,4.7,4.76,2.12,7.22,2.99,3.13,1.1,1.32-2.73,2.96-3.74Zm25.68,39.6c2.2,7.73,4.23,9.34,12.03,9.7-1.86-5.85-6.07-9.33-12.03-9.7Zm-39.01-36.65c1.56-1.33,2.08-4.07,1.87-5.96-.37-3.42-3.9-2.33-5.98-2.87-1.84-.48-2.29,2.03-2.48,3.78-.1,.95,4.91,5.08,6.58,5.05Zm32.07,27.09c-1.11-6.45-3.74-10.88-8.2-14.09-1.04,7.12,3.41,10.24,8.2,14.09Z"/>
  <path class="cls-3" d="M374.17,135.96c-11.31-2.3-22.63-4.57-33.94-6.92-18.08-3.76-36.15-7.63-54.25-11.29-3.14-.63-4.81-1.66-3.55-5.31,.04-.11,.03-.24,.03-.36-.05-3.43,.74-6.07,4.69-5.73,.2,.88,.81,.94,1.53,1.06,2.64,.44,5.34,.62,7.95,1.11,8.65,1.62,17.21,3.76,25.85,5.41,5.39,1.03,10.61,3.13,16.19,2.95,1.87,.27,3.64,1.39,5.62,.82,6.54,2.46,13.18,4.31,20.18,4.23,.77,.06,1.53,.11,2.3,.17,2.18,2.44,4.96,2.2,7.72,1.96,.07,0,.08-.66,.13-1.01,.56-.07,1.58,.15,1.35,.51-2.52,3.85-.03,8.48-1.79,12.41Z"/>
  <path class="cls-6" d="M110.79,41.45c-2.74-.68-1.79,1.25-1.44,2.49,2.1,7.29,2.82,15.13,7.44,21.42,.33,.45,.66,1,.15,1.84-2.78-.37-5.66-.81-8.56-1.11-1.71-.18-2.15-1.53-2.7-2.86-3.92-9.49-5.68-19.61-7.39-29.73-.58-3.45-1.12-6.9-.99-10.42,2.12-2.67,5.09-3.23,8.08-3.77,.98,6.28,1.95,12.57,2.96,18.85,.12,.75-.28,2.21,1.34,1.62,.89,.16,1.51,.51,1.1,1.66Z"/>
  <path class="cls-12" d="M159.71,85.13c-.76-.19-1.5-.4-1.92-1.21,.5-1.85,1.5-3.29,3.01-4.32,.9,1.21,1.93,.8,3.04,.37,3.62-1.4,6.89-3.51,9.92-5.99,1.89-1.55,4.64-2.05,5.42-4.99,5.77-4.6,9.3-11.03,12.46-17.71,.99-2.09-1.15-1.87-2.15-2.16-3.6-1.03-3.69-1.19-1.43-4.23,2.32-3.12,4.56-6.32,7.04-9.28,2.22-2.64,3.25-2.32,4.04,1.01,1.01,4.21,1.83,8.48,2.86,12.68,.52,2.12-.23,3.04-1.96,2.22-3.8-1.81-4.94,.22-6.1,3.7-2.28,6.86-6.79,12.17-11.53,17.22-3.2,2.44-6.4,4.87-9.6,7.31-4.25,2.11-8.32,4.72-13.09,5.38Z"/>
  <path class="cls-7" d="M39.1,155.44c1.43,.79,2-.57,2.79-1.32,2.88-2.74,5.86-5.3,9.57-6.63,2.3-.82,4.6-.94,7.31,.3-6.93,8.13-10.2,18.68-17.73,25.99-1.68-5.99-.91-12.27-1.95-18.34Z"/>
  <path class="cls-3" d="M366.77,122.11c-.77-.06-1.53-.11-2.3-.17-.13-.31-.21-.86-.39-.9-6.36-1.36-12.72-2.68-19.1-3.95-.19-.04-.46,.4-.69,.62-1.98,.57-3.74-.55-5.62-.82-.48-1.18-1.43-1.23-2.48-1.45-8.28-1.69-16.54-3.53-24.82-5.23-8.07-1.66-16.15-3.2-24.23-4.79-.77-.42-1.85-.02-2.51-1.19,1.93-1.68,3.89-.23,5.64,.11,16.55,3.2,33.07,6.55,49.6,9.91,10.65,2.16,21.28,4.4,31.92,6.58,.99,.2,2,.27,3,.4-.42,.52-.85,1.05-1.27,1.57-2.27,.04-4.45-1.07-6.76-.68Z"/>
  <path class="cls-7" d="M39.2,176.72c1.12,1.53,1.75,.1,2.4-.53,2.46-2.36,4.49-5.12,6.32-8.05,.59-.95,1.08-1.83,2.41-1.24,2.85,1.26,5.95,1.18,9.85,1.92-7.01,5.49-12.28,12.24-20.41,14.64,.23-2.29-1.15-4.41-.57-6.73Z"/>
  <path class="cls-7" d="M126.43,103.07c-.07,.09-.21,.27-.2,.27,2.8,2.53,.02,3.7-1.04,5.42-2.43,3.92-5.52,5.98-10.08,5.32-1.36-.2-2.82,.47-4.75,.84,2.79-5.9,7.36-8.18,12.5-9.7,.95-.28,3.03,.31,2.15-2.19,0,0-.02,.09-.02,.09,.48,.65,.96,.65,1.44,0v-.07Z"/>
  <path class="cls-13" d="M109.69,39.79c-1.62,.58-1.22-.88-1.34-1.62-1.02-6.28-1.98-12.56-2.96-18.85,.69-1.17,1.94-2.22,2.09-.08,.47,6.89,2.7,13.56,2.21,20.56Z"/>
  <path class="cls-13" d="M118.93,91.58c1.42-.08,1.61,.92,1.57,2.09-.05,1.25-.8,1.52-1.81,1.48-1.13-.05-1.97-.34-1.8-1.84,.15-1.32,.87-1.82,2.05-1.72Z"/>
  <path class="cls-11" d="M366.77,122.11c2.31-.4,4.48,.72,6.76,.68,.36,.09,.73,.18,1.09,.27-.04,.35-.06,1.01-.12,1.01-2.76,.24-5.55,.48-7.72-1.96Z"/>
  <path class="cls-10" d="M177.08,67.3c-.24-.2-.47-.4-.71-.6,.24,.2,.47,.4,.71,.6Z"/>
  <path class="cls-9" d="M95.62,22.77c-.26,.08-.51,.16-.77,.24,.15-.47,.41-.56,.77-.24Z"/>
  <path class="cls-11" d="M118.57,104.84c-.28,.13-.55,.27-.83,.4,.28-.13,.55-.27,.83-.4Z"/>
  <path class="cls-11" d="M119.93,104.19c-.27,.11-.53,.22-.8,.33,.27-.11,.53-.22,.8-.33Z"/>
  <path class="cls-10" d="M93.35,151.92c.14-.41,.39-.53,.76-.33-.26,.11-.51,.22-.76,.33Z"/>
  <path class="cls-10" d="M177.78,67.96c-.2-.2-.4-.39-.6-.59,.2,.2,.4,.39,.6,.59Z"/>
  <path class="cls-11" d="M126.43,103.13c-.48,.65-.97,.64-1.44,0,.48-.49,.96-.26,1.44,0Z"/>
  <path class="cls-6" d="M187.66,99.36c4.63-.46,9.17-1.39,13.41-3.56,9.57-4.89,18.94-10.37,29.35-13.05,8.9-2.29,16.21,1.12,22.29,8.06,.66,.75,1.69,1.71,1.02,2.82-.54,.9-1.71,.27-2.55,.15-6.19-.88-12.35-1.43-18.57-.21-5.01,.98-9.24,3.83-13.72,6.12-5.6,2.86-10.98,6.24-17.04,7.98-6.88,1.97-12.49,.33-15.85-4.75-.62-.94-1.92-1.86-1.4-3.1,.6-1.42,2.03-.25,3.07-.45Z"/>
  <path class="cls-6" d="M268.83,138.34c0-3.02-.02-5.5,0-7.98,.1-9.95,1.05-19.79,3.14-29.52,1.8-8.36,10.22-12.1,16.91-10.47,3.75,.91,5.88,4.23,6.72,8.36,.92,4.53,.47,5.03-3.8,3.83-8.24-2.31-10.41-.58-11.11,8.76-.45,5.93-1.12,11.88-3.65,17.24-1.74,3.68-3.74,7.35-8.21,9.77Z"/>
  <path class="cls-3" d="M268.7,102.42c1.35,3.76-.35,7.27-.92,10.84-.17,1.09-1.32,.35-2.05,.19-6.61-1.51-13.2-3.13-19.84-4.5-8.73-1.8-17.51-3.39-26.26-5.08-.53-.1-1.05-.29-2.31-.65,7.16-5.05,13.84-9.04,22.25-6.89,.24,.24,.45,.64,.72,.7,8.14,1.64,16.2,3.76,24.46,4.71l-.05-.04c.44,.96,.89,.84,1.35,.02,.24,0,.48,0,.72,0,.15,1.78,1.02,1.32,1.94,.72Z"/>
  <path class="cls-1" d="M167.63,117.64c10.82,1.33,19.6,5.85,26.63,14.32,2.51,3.03,4.64,6.16,5.87,9.97,.3,.92,.98,2.51-.92,2.11-10.56-2.25-20.98-4.93-28.58-14.09-2.21-2.67-3.49-5.93-4.56-9.26-.61-1.89-.63-3.49,1.55-3.04Z"/>
  <path class="cls-7" d="M246.1,164.63c6.24-9.33,7.52-20.89,11.96-31.1,1.55-3.56,3.46-6.79,6.72-8.88,1.26-.81,2.26-1.41,2.26,1.04,0,6.29,.37,12.6,.07,18.88-.53,11.04-8.89,20.23-18.38,20.71-.78,.04-1.56,.16-2.62-.66Z"/>
  <path class="cls-3" d="M172.8,79.75c.27,.04,.55,.07,.82,.11,.11,.52,.21,1.04,.32,1.56-.64,.81-2.06-.22-2.59,1.51,8.75,1.72,17.42,3.43,26.09,5.14,.37,.5,.87,.55,1.4,.44,2.61,.31,5.07,1.18,7.47,2.26-4.35,2.81-9.04,4.7-13.96,5.98-3.78,.99-7.38-.27-11-1-7.06-1.43-14.19-2.57-21.11-4.72-1.11-.35-2.71,.29-2.83-2.16-.11-2.17,.51-3.21,2.3-3.75,4.77-.66,8.84-3.26,13.09-5.38Z"/>
  <path class="cls-6" d="M162.82,63.51c-2.87,1.65-5.73,2.66-7.81,4.61-6.42,6.05-14.31,9.81-20.67,16.05-6.46,6.35-14.07,5.07-19.43-2.27-.64-.88-1.59-2.07-1.05-3.27,.56-1.26,1.96-.64,2.75-.37,7.25,2.5,11.95-1.68,17.12-6.33,8.15-7.33,17.79-10.57,29.09-8.43Z"/>
  <path class="cls-4" d="M174.6,68.93c-.14,3.04-2.5,3.82-4.41,5.2-2.98,2.16-6.92,2.36-9.39,5.47-1.51,1.04-2.51,2.48-3.01,4.32-2.24,2.92-3.5,6.31-3.98,10-.25,1.96-1.09,2.36-2.76,1.91-1.3-.35-2.67-.54-4.01-.58-4.73-.12-4.75-.09-3.21-4.76,1.81-5.5,4.11-10.74,7.39-15.45,3.28-4.72,7.57-7.82,12.9-9.26,4.05-1.09,7.58-.18,10.48,3.14Z"/>
  <path class="cls-7" d="M87.47,133.22c-5.61,8.95-11.87,17.29-19.95,23.84-3.44,2.79-7.33,4.3-11.76,3.31-1.55-.35-2.81-1.06-1.39-2.83,4.03-5.05,6.57-11.21,10.8-16.12,4.8-5.58,11.17-6.97,17.66-8.19,1.42-.27,2.89-.23,4.34-.34,.1,.11,.2,.23,.3,.34Z"/>
  <path class="cls-7" d="M158.07,101.86c-10.97,1.04-17.79,8.21-24.74,15.14-4.13,4.12-8.75,7.28-14.32,8.61-1.64,.39-3.28,.89-5.56,.11,3.99-3.95,6.96-8.42,10.4-12.44,4.1-4.78,7.95-9.82,13.48-13.04,7.33-4.27,12.32-4.23,20.74,1.63Z"/>
  <path class="cls-7" d="M184.88,121.4c-9.2-6.07-18.91-5.25-28.21-6.65-3.75-.56-7.09-2.31-10.41-4.14-1.7-.94-1.55-1.77,0-2.68,5.56-3.28,11.45-4.93,17.84-4.14,2.69,.33,5.37,.72,8.06,1.05,7.04,.87,10.04,6.08,11.81,12.61,.25,.91,.43,1.85,.92,3.95Z"/>
  <path class="cls-7" d="M119.88,115.86c-9.78,8.99-14.7,21.86-26.35,27.62-2.81,1.39-5.62,2.63-8.75,1.06-1.43-.71-1.84-1.45-.78-3.01,6.05-8.89,13.25-16.47,22.07-22.16,3.89-2.51,8.15-3.86,13.81-3.5Z"/>
  <path class="cls-2" d="M187.41,143.01c9.45,2.83,19.14,4.72,28.32,8.59,2.95,1.24,5.31,3.17,7.24,5.76,.84,1.13,1,2.19-.68,2.69-11.41,3.39-26.94,2.32-33.9-11.74-.74-1.5-1.48-3-1.61-4.74,.21-.19,.42-.37,.63-.56Z"/>
  <path class="cls-2" d="M214.02,163.96c6.37-.54,11.91-3.09,17.25-6.39,4.9-3.03,10.37-3.77,15.93-4.07,1.73-.09,2.28,.3,1.47,2.19-1.94,4.54-4.28,8.82-7.54,12.4-4.01,4.42-9.07,5.15-14.39,3.8-4.89-1.25-8.75-4.64-12.73-7.93Z"/>
  <path class="cls-2" d="M203.96,173.19c-11.55-3.88-20.4-10.74-23.07-24.29-.32-1.64-.4-3.37-.36-5.05,.03-1.09-.56-2.93,.83-3.1,1.39-.17,2.69,.84,3.25,2.62,.64,2.05,1.47,4.06,2.36,6,3.21,6.98,8.61,11.42,15.51,12.88,4.28,.91,5.82,3.3,6.57,7.21-.56,3.03-2.21,4.33-5.09,3.72Z"/>
  <path class="cls-2" d="M254.04,172.67c-6.03,7.38-13.25,9.12-21.29,8.48-6.73-.53-12.72-3.19-18.06-7.48-2.4-1.92-3.85-4.74-4.88-7.73-.23-.65-1.13-1.55-.07-2.19,.73-.44,1.25,.35,1.71,.84,2.26,2.41,5.04,4.05,7.72,5.8,6.81,4.44,13.78,5.99,21.04,1.1,.66-.44,1.34-.91,2.21-.51,3.48,1.61,7.22,1.54,11.62,1.69Z"/>
  <path class="cls-3" d="M130.42,72.16c-1.82,1.47-3.12-.05-4.49,.52-.15,1.46,1.62,.83,1.84,1.86-1.96,2.58-4.54,2.93-7.34,2.19-2.55-.67-5.12-.86-7.74-.73-2.51,.12-3.42,1.19-2.69,3.98,.37,1.41,1.75,3.32,.56,4.35-1.18,1.02-2.92-.43-4.38-.89-4.09-1.29-7.39-4.11-10.69-6.79-3.25-2.63-2.65-5.21,1.15-6.88,6.98-3.07,14.02-1.5,21.02-.39,4.14,.66,8.21,1.78,12.76,2.79Zm-15.95-.94c2.09,.79,4.18,1.63,7.08,.33-2.75-1.01-4.87-1.3-7.07-1.19-3.36-1.03-6.78-.6-10.18-.52-.76,.12-1.56,.15-2.29,.39-1.82,.6-3.94,1.11-3.78,3.78,.14,2.2,4.24,4.98,6.37,4.58-.02-.95-.87-1.01-1.37-1.41-1.32-1.06-3.39-1.84-3.2-3.78,.16-1.64,2.44-1.3,3.59-2.22,3.61,.01,7.23,.02,10.84,.03Z"/>
  <path class="cls-7" d="M116.55,135.22c-1.46-.12-3.01,.03-4.37-.45-1.33-.47-4.09,.23-3.72-1.74,.38-2.05,1.97-4.88,4.46-4.85,8.73,.1,15.7-3.88,21.86-9.99,1.28-1.27,2.28-1.37,3.44-.04,.08,.09,.17,.17,.26,.24,5.88,4.82,5.99,5.02-.41,9.09-6.61,4.21-13.45,8-21.53,7.74Z"/>
  <path class="cls-6" d="M242.15,111.69c-.21-.91,.38-1.54,1.72-1.24,3.1,.69,6.27,1.17,9.25,2.27,2.5,.92,1.81,4.42,3.44,6.24,.43,.48,.37,1.44,.76,1.99,3.73,5.13,.67,8.92-1.93,13.03-1.05,1.65-1.63,1.19-2.56,.35-6.37-5.78-9.76-13.21-10.69-22.63Z"/>
  <path class="cls-7" d="M90.3,151.5c-8.01,10.91-26.69,17.69-37.97,14.09-.73-.23-2.26-.01-1.67-1.51,.45-1.14,.79-3.22,2.72-2.47,6.58,2.58,12.42,.4,16.77-4.5,5.14-5.79,10.43-8.58,17.69-5.76,.59,.23,1.3,.09,2.46,.16Z"/>
  <path class="cls-7" d="M278.72,144.76c-3.67,15.36-15.74,29.07-32.9,25.37-.96-.21-2.42-.32-2.38-1.45,.05-1.43,1.43-1.43,2.64-1.43,10.19,0,17.84-5.42,21.21-15.32,.83-2.44,1.96-3.64,4.26-4.25,2.37-.63,4.6-1.85,7.17-2.92Z"/>
  <path class="cls-6" d="M269.3,143.09c-.58-2.23,.72-3.16,2.41-4.33,5.69-3.93,8.19-10.11,9.28-16.95,.36-2.26,1.09-2.96,3.06-2.5,1.87,.44,3.75,.83,5.63,1.27,1.33,.31,1.55,1.13,1,2.42-4.02,9.5-8.45,18.56-18.41,22.52-2.34,.93-3.86,1.26-2.97-2.42Z"/>
  <path class="cls-7" d="M120.06,137.05c-8.05,10.84-24.21,15.49-40.17,10.69,.71-1.19,1.06-3.2,2.76-2.18,6,3.6,10.91,.4,15.77-2.68,2.91-1.85,4.78-5.85,7.65-6.93,2.82-1.06,6.53,.67,9.86,1.08,1.22,.15,2.46,.02,4.13,.02Z"/>
  <path class="cls-1" d="M178.85,144.06c-.11,4.91-.27,5.16-3.94,2.47-8.68-6.38-13.28-15.28-13.44-26.66-.01-.92-.16-2.13,1.1-2.27,1.08-.12,1.16,1.03,1.35,1.77,1.35,5.21,3.44,9.99,7.01,13.88,1.26,1.37,2.59,2.75,4.11,3.76,3.87,2.56,3.91,2.48,3.81,7.06Z"/>
  <path class="cls-7" d="M159.85,121.67c.1,4.94,.09,5.02-4.25,3.99-5.71-1.36-10.78-4.21-15.26-8.2-.78-.69-2.77-1.34-1.31-2.93,1.35-1.46,2.31-4.69,4.97-3.08,4.47,2.7,9.06,4.81,14.16,5.6,3.38,.52,.74,3.43,1.68,4.63Z"/>
  <path class="cls-2" d="M237.5,152.56c-3.57,1.1-6.7,2.93-9.76,4.87-1.44,.91-2.39,1.02-3.17-.82-.31-.74-.96-1.34-1.49-1.96-2.73-3.22-2.54-3.89,1.55-5.03,4.68-1.3,8.79,.55,12.87,2.94Z"/>
  <path class="cls-11" d="M287.14,105.41c8.08,1.59,16.16,3.14,24.23,4.79,8.28,1.7,16.54,3.54,24.82,5.23,1.05,.21,2,.26,2.48,1.45-5.58,.18-10.8-1.92-16.19-2.95-8.64-1.65-17.21-3.79-25.85-5.41-2.61-.49-5.3-.68-7.95-1.11-.72-.12-1.33-.18-1.53-1.06,0-.31-.01-.63-.02-.94Z"/>
  <path class="cls-7" d="M253.71,139.11c-1.11,4.22-1.99,7.54-2.86,10.86-.32,1.2-1.02,1.74-2.23,1.69-1.77-.08-3.55-.02-5.72-.02,1.67-5.77,4.94-9.66,10.82-12.53Z"/>
  <path class="cls-7" d="M98.23,122.5c-4.79,3.26-7.72,10.38-15.08,8.19,1.77-6.52,7.04-9.55,15.08-8.19Z"/>
  <path class="cls-7" d="M66.23,137.73c-2.29,2.15-4.11,4.4-5.72,6.84-.41,.62-.91,1.13-1.69,.88-2.43-.77-4.93-.13-7.4-.32,1.38-5.14,7.72-8.39,14.81-7.4Z"/>
  <path class="cls-4" d="M175.22,98.52c-1.63,1.01,.17,4.84-2.96,3.74-2.47-.87-6.5,1.71-7.22-2.99-.21-1.34-.43-4.84,2.45-4.28,2.57,.49,6.03-.33,7.73,3.53Z"/>
  <path class="cls-2" d="M200.91,138.12c5.95,.37,10.16,3.85,12.03,9.7-7.79-.36-9.82-1.97-12.03-9.7Z"/>
  <path class="cls-3" d="M198.84,88.52c-.54,.11-1.03,.05-1.4-.44-.16-1.75-1.55-1.51-2.57-1.74-6.62-1.48-13.25-2.91-19.87-4.35l-1.05-.66v.1c-.11-.52-.22-1.04-.32-1.56,.7,.23,1.4,.47,2.1,.7,4.71,2.17,9.86,2.24,14.78,3.41,6.66,1.58,13.43,2.68,20.97,4.14-1.99,1.56-3.33,.88-4.56,.97-1.98-1.22-4.29-1.11-6.41-1.77-.85-.27-1.9-.43-1.66,1.21Z"/>
  <path class="cls-1" d="M193.97,128.56c-4.79-3.85-9.24-6.97-8.2-14.09,4.46,3.21,7.09,7.64,8.2,14.09Z"/>
  <path class="cls-11" d="M266.76,101.7c-.24,0-.48,0-.72,0-.45,0-.9-.01-1.35-.02,0,0,.05,.04,.05,.04-.01-1.37-1.01-1.41-1.89-1.59-3.65-.73-7.29-1.55-10.96-2.14-4.11-.66-8.06-2.42-12.31-2.15,.03-.25,.06-.5,.09-.75,.16-.01,.25-.11,.27-.29,9.12,.5,17.96,2.83,26.85,4.81,0,.69,0,1.37-.01,2.06l-.02,.02Z"/>
  <path class="cls-3" d="M239.58,95.86c4.25-.27,8.2,1.49,12.31,2.15,3.67,.59,7.31,1.41,10.96,2.14,.88,.18,1.88,.21,1.89,1.59-8.26-.95-16.32-3.07-24.46-4.71-.27-.05-.48-.46-.72-.7-.11-.16-.1-.32,.02-.47Z"/>
  <path class="cls-2" d="M203.96,173.19c2.87,.61,4.53-.7,5.09-3.72,1.28,1.78,2.57,3.56,4.13,5.71-3.54-.03-6.45-.57-9.21-1.99Z"/>
  <path class="cls-6" d="M180.51,76.4c.67-.76,1.34-1.52,2.01-2.28,.07,2.35,2.15,3.26,3.12,4.97,.27,.48,1.01,.84,.64,1.51-.39,.7-1.23,.73-1.82,.52-2.13-.74-3.47-2.34-3.95-4.72Z"/>
  <path class="cls-11" d="M198.84,88.52c-.24-1.64,.81-1.48,1.66-1.21,2.12,.66,4.43,.55,6.41,1.77,.11,.69,.8,1.62-.6,1.7-2.4-1.09-4.86-1.95-7.47-2.26Z"/>
  <path class="cls-10" d="M268.7,102.42c-.92,.6-1.79,1.06-1.94-.72,0,0,.02-.02,.02-.02,.91-.63,1.86-.98,2.93-.49-.12,.61-.34,1.13-1.01,1.23Z"/>
  <path class="cls-11" d="M269.7,101.19c-1.07-.48-2.02-.14-2.93,.49,0-.69,0-1.37,.01-2.06,.46,.13,.93,.25,1.39,.38,.22,.07,.44,.15,.66,.22,.24-.07,.45-.02,.63,.16l.25,.74v.07Z"/>
  <path class="cls-11" d="M239.94,94.82c-.01,.18-.1,.27-.27,.29-.37,.02-.79,.13-.85-.49,.37,.07,.74,.13,1.12,.2Z"/>
  <path class="cls-10" d="M268.84,100.22c-.22-.07-.44-.15-.66-.22,.22,.07,.44,.15,.66,.22Z"/>
  <path class="cls-10" d="M269.71,101.12l-.25-.74c.64,.03,.72,.28,.25,.74Z"/>
  <path class="cls-8" d="M186.79,143.57c-.03-.26-.05-.52-.08-.78,.24,.08,.47,.15,.71,.23-.21,.18-.42,.37-.63,.56Z"/>
  <path class="cls-5" d="M87.17,132.89c.14-.12,.36-.37,.41-.33,.36,.27,.25,.5-.1,.67-.1-.11-.2-.23-.3-.34Z"/>
  <path class="cls-11" d="M344.29,117.7c.23-.22,.5-.66,.69-.62,6.37,1.28,12.74,2.6,19.1,3.95,.18,.04,.27,.59,.39,.9-7,.08-13.65-1.77-20.18-4.23Z"/>
  <path class="cls-11" d="M264.69,101.69c.45,0,.9,.01,1.35,.02-.46,.82-.91,.94-1.35-.02Z"/>
  <path class="cls-11" d="M174.99,81.98c6.63,1.45,13.25,2.88,19.87,4.35,1.02,.23,2.41-.02,2.57,1.74-8.67-1.71-17.34-3.42-26.09-5.14,.53-1.73,1.95-.7,2.59-1.51,0,0,0-.1,0-.1,.12,.64,.6,.62,1.05,.66Z"/>
  <path class="cls-11" d="M103.63,71.19c-1.15,.91-3.43,.58-3.59,2.22-.19,1.94,1.88,2.72,3.2,3.78,.5,.4,1.36,.46,1.37,1.41-2.13,.39-6.23-2.39-6.36-4.59-.16-2.68,1.96-3.19,3.78-3.78,.73-.24,1.52-.27,2.29-.39-.22,.45-.45,.9-.67,1.35Z"/>
  <path class="cls-13" d="M103.63,71.19c.22-.45,.45-.9,.67-1.35,3.41-.09,6.83-.51,10.18,.52,0,.29,0,.58-.01,.86-3.61-.01-7.23-.02-10.84-.03Z"/>
  <path class="cls-11" d="M114.47,71.22c0-.29,0-.58,.01-.86,2.19-.11,4.32,.17,7.07,1.19-2.9,1.3-4.99,.46-7.08-.33Z"/>
  <path class="cls-10" d="M174.99,81.98c-.45-.04-.93-.02-1.05-.66,.35,.22,.7,.44,1.05,.66Z"/>
</svg>