<?xml version="1.0" encoding="utf-8"?>
<!-- Generator: Adobe Illustrator 28.1.0, SVG Export Plug-In . SVG Version: 6.00 Build 0)  -->
<svg version="1.1" id="Layer_1" xmlns="http://www.w3.org/2000/svg" xmlns:xlink="http://www.w3.org/1999/xlink" x="0px" y="0px"
	 viewBox="0 0 24 24" style="enable-background:new 0 0 24 24;" xml:space="preserve">
<style type="text/css">
	.st0{fill:#8282F8;}
	.st1{fill:#DCDCFF;}
</style>
<path class="st0" d="M23.2,11.9C23.2,11.9,23.2,11.9,23.2,11.9c0-0.6-0.1-1.1-0.2-1.6c-0.2-0.7-0.6-1-0.9-1l-1.9-0.7l-0.6-0.9
	c0,0,0,0,0,0l-0.5-1l0.3-2c0.1-0.3,0.1-0.7-0.4-1.3c-0.3-0.3-0.7-0.7-1.2-1l-0.1-0.1c-0.7-0.4-1.4-0.6-2-0.6c-0.4,0-0.7,0.2-0.8,0.3
	l-1.5,1.3l-0.9,0.1c-0.1,0-0.1,0-0.2,0L11,3.4L9.4,2.1C9.3,2,9,1.8,8.6,1.8C8.1,1.8,7.4,2,6.6,2.4l-0.1,0c-0.5,0.3-0.9,0.6-1.2,1
	C4.8,4,4.8,4.4,4.9,4.7l0.3,2l-0.5,1C4.6,7.8,4.2,8.3,4,8.6L2.2,9.3c-0.3,0-0.7,0.3-0.9,1c-0.1,0.4-0.2,1-0.3,1.6v0.1
	c0,0.6,0.1,1.1,0.2,1.6c0.2,0.7,0.6,1,0.9,1l1.8,0.7l0.6,0.9c0.1,0.1,0.3,0.7,0.5,1l-0.4,1.9c-0.1,0.3-0.1,0.7,0.4,1.3
	c0.3,0.3,0.7,0.7,1.2,1l0.1,0.1c0.7,0.4,1.5,0.7,2,0.7c0.4,0,0.7-0.2,0.8-0.3l1.6-1.2l1.1,0l1.7,0l1.6,1.2c0.1,0.1,0.4,0.3,0.8,0.3
	c0.5,0,1.2-0.3,2-0.7l0.1-0.1c0.5-0.3,0.9-0.7,1.2-1c0.5-0.6,0.5-1,0.4-1.3l-0.4-1.9l0.5-1c0,0,0,0,0,0l0.6-0.9l1.8-0.7
	c0.3-0.1,0.7-0.3,0.9-1c0.1-0.4,0.2-1,0.2-1.6L23.2,11.9L23.2,11.9z"/>
<path class="st1" d="M12.1,15.7c2,0,3.7-1.7,3.7-3.7c0-2-1.7-3.7-3.7-3.7c-2,0-3.7,1.7-3.7,3.7C8.4,14.1,10,15.7,12.1,15.7z"/>
</svg>
