<svg width="24" height="24" viewBox="0 0 24 24" fill="none" xmlns="http://www.w3.org/2000/svg">
<path d="M12.1639 7.26002C14.8515 7.26002 17.0388 9.4371 17.0388 12.1131C17.0388 14.7892 14.8515 16.9662 12.1639 16.9662C9.47481 16.9662 7.28757 14.7892 7.28757 12.1131C7.28757 9.4371 9.47481 7.26002 12.1639 7.26002ZM12.1639 3.88489C7.59796 3.88489 3.89648 7.56896 3.89648 12.1131C3.89648 16.6588 7.59796 20.3428 12.1639 20.3428C16.7284 20.3428 20.4298 16.6588 20.4298 12.1131C20.4298 7.56896 16.7284 3.88489 12.1639 3.88489Z" fill="#F76A89"/>
<path d="M13.7535 5.02057C13.7535 5.6283 13.2604 6.11854 12.6512 6.11854H11.4111C10.8019 6.11854 10.3088 5.6283 10.3088 5.02057V2.09942C10.3088 1.49314 10.8019 1 11.4111 1H12.6512C13.2604 1 13.7535 1.49314 13.7535 2.09942V5.02057Z" fill="#F76A89"/>
<path d="M13.7535 22.1284C13.7535 22.7347 13.2604 23.2264 12.6512 23.2264H11.4111C10.8019 23.2264 10.3088 22.7361 10.3088 22.1284V19.2072C10.3088 18.5995 10.8019 18.1107 11.4111 18.1107H12.6512C13.2604 18.1107 13.7535 18.5995 13.7535 19.2072V22.1284Z" fill="#F76A89"/>
<path d="M8.2115 5.82561C8.64083 6.25348 8.64083 6.94824 8.2115 7.37611L7.334 8.24781C6.90322 8.67714 6.20557 8.67714 5.7748 8.24781L3.69924 6.18241C3.26847 5.75309 3.26847 5.05979 3.69924 4.63191L4.5753 3.75731C5.00607 3.32943 5.70372 3.32943 6.1345 3.75731L8.2115 5.82561Z" fill="#F76A89"/>
<path d="M20.3631 17.9222C20.7954 18.3515 20.7939 19.0448 20.3631 19.4712L19.4856 20.3458C19.0548 20.7752 18.3586 20.7752 17.9279 20.3458L15.8523 18.2804C15.4215 17.8496 15.4215 17.1563 15.8523 16.727L16.7298 15.8553C17.1591 15.426 17.8554 15.426 18.2861 15.8553L20.3631 17.9222Z" fill="#F76A89"/>
<path d="M5.90676 15.8537C6.33898 15.4259 7.03664 15.4259 7.46596 15.8537L8.34347 16.7269C8.77424 17.1562 8.77424 17.8481 8.34347 18.2803L6.26646 20.3442C5.83569 20.7736 5.13949 20.7736 4.70871 20.3442L3.8312 19.4711C3.40188 19.0432 3.40043 18.3499 3.8312 17.9206L5.90676 15.8537Z" fill="#F76A89"/>
<path d="M18.0599 3.75724C18.4907 3.32792 19.1869 3.32937 19.6176 3.75724L20.4951 4.6304C20.9259 5.05972 20.9259 5.75302 20.4951 6.18235L18.4196 8.24775C17.9874 8.67707 17.2912 8.67707 16.8604 8.24775L15.9843 7.37604C15.5536 6.94817 15.5521 6.25342 15.9843 5.82409L18.0599 3.75724Z" fill="#F76A89"/>
<mask id="mask0_38_1234" style="mask-type:luminance" maskUnits="userSpaceOnUse" x="17" y="10" width="6" height="4">
<path d="M17.5217 10.2566H23V13.9697H17.5217V10.2566Z" fill="white"/>
</mask>
<g mask="url(#mask0_38_1234)">
<path d="M18.962 13.8275C18.3528 13.8275 17.8597 13.3358 17.8597 12.7295V11.4952C17.8597 10.8904 18.3514 10.3987 18.962 10.3987H21.8977C22.5068 10.3987 23 10.8904 23 11.4952V12.731C23 13.3358 22.5068 13.8289 21.8977 13.8289L18.962 13.8275Z" fill="#F76A89"/>
</g>
<mask id="mask1_38_1234" style="mask-type:luminance" maskUnits="userSpaceOnUse" x="1" y="10" width="6" height="4">
<path d="M1 10.2566H6.38252V13.9697H1V10.2566Z" fill="white"/>
</mask>
<g mask="url(#mask1_38_1234)">
<path d="M2.10232 13.8275C1.49314 13.8275 1 13.3358 1 12.7295V11.4952C1 10.8904 1.49314 10.3987 2.10232 10.3987H5.03943C5.6486 10.3987 6.1403 10.8904 6.1403 11.4952V12.731C6.1403 13.3358 5.6486 13.8289 5.03943 13.8289L2.10232 13.8275Z" fill="#F76A89"/>
</g>
</svg>
