<svg width="24" height="24" viewBox="0 0 24 24" fill="none" xmlns="http://www.w3.org/2000/svg">
<g clip-path="url(#clip0_38_1234)">
<path d="M12.1788 6.82918C15.1107 6.82918 17.4968 9.20418 17.4968 12.1235C17.4968 15.0428 15.1107 17.4178 12.1788 17.4178C9.24523 17.4178 6.85916 15.0428 6.85916 12.1235C6.85916 9.20418 9.24523 6.82918 12.1788 6.82918ZM12.1788 3.14722C7.19777 3.14722 3.15979 7.1662 3.15979 12.1235C3.15979 17.0823 7.19777 21.1013 12.1788 21.1013C17.1582 21.1013 21.1962 17.0823 21.1962 12.1235C21.1962 7.1662 17.1582 3.14722 12.1788 3.14722Z" fill="#F76A89"/>
<path d="M13.9129 4.38608C13.9129 5.04905 13.375 5.58386 12.7104 5.58386H11.3576C10.693 5.58386 10.155 5.04905 10.155 4.38608V1.19937C10.155 0.537975 10.693 0 11.3576 0H12.7104C13.375 0 13.9129 0.537975 13.9129 1.19937V4.38608Z" fill="#F76A89"/>
<path d="M13.9129 23.049C13.9129 23.7104 13.375 24.2468 12.7104 24.2468H11.3576C10.693 24.2468 10.155 23.712 10.155 23.049V19.8623C10.155 19.1994 10.693 18.6661 11.3576 18.6661H12.7104C13.375 18.6661 13.9129 19.1994 13.9129 19.8623V23.049Z" fill="#F76A89"/>
<path d="M7.86708 5.26425C8.33544 5.73102 8.33544 6.48893 7.86708 6.9557L6.90981 7.90665C6.43987 8.375 5.67879 8.375 5.20886 7.90665L2.94462 5.65349C2.47468 5.18513 2.47468 4.4288 2.94462 3.96203L3.90031 3.00792C4.37025 2.54114 5.13132 2.54114 5.60126 3.00792L7.86708 5.26425Z" fill="#F76A89"/>
<path d="M21.1234 18.4605C21.595 18.9289 21.5934 19.6852 21.1234 20.1504L20.1662 21.1045C19.6962 21.5728 18.9367 21.5728 18.4668 21.1045L16.2026 18.8513C15.7326 18.3814 15.7326 17.6251 16.2026 17.1567L17.1598 16.2058C17.6282 15.7374 18.3877 15.7374 18.8576 16.2058L21.1234 18.4605Z" fill="#F76A89"/>
<path d="M5.35286 16.2041C5.82437 15.7373 6.58545 15.7373 7.0538 16.2041L8.01108 17.1566C8.48102 17.625 8.48102 18.3797 8.01108 18.8512L5.74526 21.1028C5.27532 21.5712 4.51583 21.5712 4.04589 21.1028L3.08861 20.1503C2.62026 19.6835 2.61868 18.9272 3.08861 18.4588L5.35286 16.2041Z" fill="#F76A89"/>
<path d="M18.6108 3.0079C19.0807 2.53954 19.8402 2.54113 20.3101 3.0079L21.2674 3.96043C21.7373 4.42879 21.7373 5.18511 21.2674 5.65347L19.0032 7.90663C18.5316 8.37499 17.7721 8.37499 17.3022 7.90663L16.3465 6.95568C15.8766 6.48891 15.875 5.731 16.3465 5.26265L18.6108 3.0079Z" fill="#F76A89"/>
<mask id="mask0_38_1234" style="mask-type:luminance" maskUnits="userSpaceOnUse" x="18" y="10" width="6" height="5">
<path d="M18.0237 10.0981H24V14.1488H18.0237V10.0981Z" fill="white"/>
</mask>
<g mask="url(#mask0_38_1234)">
<path d="M19.5949 13.9937C18.9304 13.9937 18.3924 13.4573 18.3924 12.7959V11.4494C18.3924 10.7896 18.9288 10.2532 19.5949 10.2532H22.7975C23.462 10.2532 24 10.7896 24 11.4494V12.7975C24 13.4573 23.462 13.9953 22.7975 13.9953L19.5949 13.9937Z" fill="#F76A89"/>
</g>
<mask id="mask1_38_1234" style="mask-type:luminance" maskUnits="userSpaceOnUse" x="0" y="10" width="6" height="5">
<path d="M0 10.0981H5.87184V14.1488H0V10.0981Z" fill="white"/>
</mask>
<g mask="url(#mask1_38_1234)">
<path d="M1.20253 13.9937C0.537975 13.9937 0 13.4573 0 12.7959V11.4494C0 10.7896 0.537975 10.2532 1.20253 10.2532H4.40665C5.0712 10.2532 5.6076 10.7896 5.6076 11.4494V12.7975C5.6076 13.4573 5.0712 13.9953 4.40665 13.9953L1.20253 13.9937Z" fill="#F76A89"/>
</g>
</g>
<defs>
<clipPath id="clip0_38_1234">
<rect width="24" height="24" fill="white"/>
</clipPath>
</defs>
</svg>
