<?xml version="1.0" encoding="UTF-8"?>
<svg id="Layer_1" data-name="Layer 1" xmlns="http://www.w3.org/2000/svg" viewBox="0 0 414 200">
  <defs>
    <style>
      .cls-1 {
        fill: #f7b7d3;
      }

      .cls-2 {
        fill: #00bff3;
      }

      .cls-3 {
        fill: #ebe2cc;
      }

      .cls-4 {
        fill: #eae6de;
      }

      .cls-5 {
        fill: #fff9b8;
      }

      .cls-6 {
        fill: #fff000;
      }

      .cls-7 {
        fill: #fbb040;
      }

      .cls-8 {
        fill: #fdfcfc;
      }

      .cls-9 {
        fill: #6c635b;
      }

      .cls-10 {
        fill: #9ed2f1;
      }

      .cls-11 {
        fill: #b4cdb7;
      }

      .cls-12 {
        fill: #bcad99;
      }

      .cls-13 {
        fill: #38312f;
      }

      .cls-14 {
        fill: #49443e;
      }

      .cls-15 {
        fill: #524d49;
      }
    </style>
  </defs>
  <path class="cls-14" d="M237.96,184.59c-3.02,.43-6.03,.5-9-.37-.23-.03-.47-.07-.7-.1-1.12,.12-2.14-.12-3.03-.85-.67-.72-1.3-.66-1.88,.12-3.89,1.48-7.9,2.5-12.04,2.95,.19-.38,.38-.76,.56-1.13,2.81-1.87,6.5-1.08,9.42-3.1-1.45-1.11-2.99-1.93-4.04-3.17-1.58-1.86-2.98-1.88-5.11-.88-5.33,2.51-10.92,2.9-16.59,1.08-.79-.25-1.76-.29-1.41-1.57l-.06,.06c1.39-.16,2.73,.04,4.07,.41,2.48,.69,4.95,.8,7.53,.31,8-1.51,14.19-6.36,20.55-10.98,2.16-1.57,1.64-2.47-.37-3.38,0-.3,0-.6,0-.9,6.33,3.11,10.03-2.79,15.55-4.16-7.7-4.24-10.96-3.67-16.89,2.56-1.07-.05-1.3-.73-1.2-1.65,6.41-6.06,10.12-6.68,18.14-3,3.53,1.62,6.18,1,8.83-2.08,1.27-1.48,2.77-2.53,4.68-3.13,3.06-.95,6.02-.6,9.04,.14,3.24,.8,4.26,.03,5.14-3.14,1.39-5,3.28-9.74,7.78-12.82,1.87-1.28,1.63-2.92,1-4.82-2.14-6.49-1.97-12.87,1.51-18.87,.85-1.47,.51-2.16-.6-3.18-3.21-2.96-4.7-6.74-4.65-11.14,.42,0,.84,0,1.26-.01,.87,3.39,1.14,7.07,4.65,9.83-.32-4.24-.57-7.93-.23-11.65,.18-2-2.75-4.02-4.39-3.32-.41-.22-.83-.43-1.24-.65-.23-.97,.65-2.88-1.85-1.62-7.44,3.75-15.4,4.08-23.47,3.12-5.46-.65-5.42-.7-7.45,4.27-.68,1.67-1.41,3.37-2.4,4.86-1.51,2.26-2.56,4.6-2.43,7.38-.5-.21-1.01-.43-1.51-.64-1.91-.63-2.9,2.64-4.99,1.24-.13-.85,.45-1.23,.98-1.54,2.75-1.59,4.63-4.04,6.18-6.72,4.57-7.87,5.98-16.58,6.24-25.52,.21-7.16,.11-7.16-6.59-5.49-.51,.13-1.03,.27-1.55,.33-2.78,.29-3.01,1.93-2.45,4.28,1.25,5.23,1.58,10.57,1.35,15.93-.14,3.27-.87,6.39-4.1,8.09-2.69,1.42-3.75,3.5-2.9,6.5l.22,.92c.6,1.22-.55,3.46,2,3.55-.3,1.5-2.18,2.38-1.64,4.22-.27,.01-.53,.02-.8,.03-.16,0-.32-.01-.47-.02-.14-1.7-.27-3.41-.42-5.11-.82-9.35-4.36-18.03-6.44-27.07-.2-.85,.33-2.25-.91-2.45-1.08-.17-1.93,.86-2.53,1.69-.61,.84-1,1.88-1.34,2.89-1.62,4.83-1.8,9.82-1.94,14.87-.15,5.22,1.84,10.07,2.02,15.2-.82,.68-.42,1.43-.15,2.2,.34,.96,.07,1.59-1.04,1.64-.07-.87-.15-1.74-.28-3.33-2.53,6.62-3.62,12.89-5.24,19.4-1.7-1.95-.98-3.82-.54-5.36,2.57-8.92,2.14-18.22,3.2-27.31,.83-7.12,.33-14.39,3.63-21.18-1.63-.53-2.73,.59-3.98,.47l-.24-1.26c2.03-1.54,4.83-.34,6.84-1.99,.47-.39,1.27-.67,.97-1.43-.33-.82-1.02-.33-1.6-.18-2.84,.74-5.68,1.45-8.52,2.18-.51-.24-1.01-.48-1.52-.72,1.95-1.13,4.15-1.44,6.27-2.02,5.08-1.38,5.1-1.37,4.29-6.58-.21-1.36-.53-2.71-.8-4.06-.12-.35-.23-.7-.35-1.04,.57-1.01,.14-1.34-.83-1.15-1.08,.21-2.15,.51-3.23,.77,0-.37,0-.75,0-1.12,.66-.28,1.31-.69,2-.83,1.87-.36,2.53-1.39,2.39-3.33-.19-2.58,.25-5.13,1.16-7.55,1.8-4.79,4.79-8.26,10.09-9.1,5.81-.92,10.9,.85,13.51,6.08,2.41,4.81,5.14,5.74,9.59,3.6,.84-.41,1.8-.65,2.73-.78,3.33-.49,4.77-1.95,4.87-5.77,.23-8.38,10.77-14.27,19.43-11.26,2.76,.96,5.4,2.34,6.75,4.98,1.35,2.65,2.99,2.84,5.34,1.8,.66-.29,1.44-.3,2.17-.43,.2-.09,.4-.18,.6-.26,1.44-.37,2.88-.73,4.32-1.1,.25-.06,.5-.12,.75-.18,.39-.15,.77-.3,1.16-.46,.72,.16,1.58-.11,2.08,.71-3.74,1.11-7.5,2.13-11.2,3.37-1.19,.4-2.88,.06-3.44,1.78l.05-.03c-.82,.03-1.65,.05-2.47,.08-.23,.15-.47,.3-.7,.46-.82,.4-1.93-.18-2.59,.78l.04-.03c-2.34,.54-4.71,1-7.02,1.64-.99,.28-2.25,.95,.02,1.38,0,.27,0,.54,0,.81-1.48,.48-1.26,1.47-.69,2.5,.66,1.21,1.48,2.33,2.06,3.57,1.07,2.28,2.38,2.94,4.96,2.02,4.13-1.48,8.45-2.4,12.69-3.55,.48,.33,2.08-.63,1.3,1.15-3.18,.45-3.55,2.28-3.53,5.35,.04,5.91,.86,10.93,5.39,15.45,4.09,4.08,5.35,10.01,5.02,15.82-.22,3.82,.43,7.18,2.43,10.31,3.06,4.79,3.76,10.15,3.36,15.62-.74,10.24-2.47,20.35-4.62,30.39-1.35,6.34-4.86,11.08-10.29,14.41-1.49,.92-2.47,2.08-3.17,3.77-3.51,8.5-10.72,11.94-18.97,13.84,0,0-.06,.02-.06,.02-1.49,.77-3.13,.67-4.72,.8,0-.44-.02-.87-.03-1.31,3.86-1.01,7.79-1.82,11.48-3.42,5-2.17,8.92-5.4,10.95-11.28-3.75,1.14-7.1,2.03-10.55,1.9-1.98-.07-3.34,.68-4.75,1.97-3.02,2.77-6.58,4.48-10.66,5.1-4.1,.63-8,.06-11.7-1.72-2.22-1.07-3.75,.43-5.01,1.56-1.15,1.03,1.35,.76,1.24,1.78-.06,.4-.12,.79-.18,1.19-2.41-1.78-4.8-1.47-7.63-.74-5.14,1.32-10.59,1.9-15.45-.92-2.33-1.35-4.26-.7-5.01,.87-.63,1.34,1.37,2.8,2.85,3.6,2.8,1.51,5.76,2.6,8.85,3.33,3.77,1.02,7.55,.73,11.34,.15,3.18-.74,6.36-1.49,9.54-2.23h.29s.27-.09,.27-.09c.33-.15,.67-.3,1-.45,1.45-.75,3.02-.78,4.6-.84,.72,.08,1.43,.16,2.15,.24,0,.86-.54,1.12-1.26,1.2-.44-.08-.87-.15-1.31-.23-.47-.52-.87-.44-1.23,.13l-.22,.18s-.28-.03-.28-.03c-.25,.11-.5,.23-.75,.34-1.58,.49-3.16,.97-4.74,1.46-.76,.09-1.6-.16-2.24,.5-2.09,.96-4.31,1.13-6.56,1.12-.64-.27-1.24-.35-1.73,.29Zm19.77-131.72c.92-1.92-.47-1.24-1.2-1.02-4.85,1.42-9.69,2.9-14.53,4.36-.55-.18-1.07-.24-1.51,.25-3.01,1.41-6.58,1.17-9.37,3.25-.02,.53-.03,1.05-.05,1.58-1.12,2.53-.16,5.05,.26,7.5,.21,1.25,1.11,2.14,3.03,1.55,7.93-2.44,15.92-4.68,23.94-6.78,2.38-.62,3.18-1.37,2.06-3.83-.78-1.71-1.02-3.68-1.51-5.53,.01-.77-.87-.77-1.11-1.32Zm19.64,88.06c.76-.6,.77-1.24,.11-1.91-.21-.38-.24-1.39-.87-.76-3.14,3.09-4.98,6.88-5.71,11.42q5.98-1.32,6.28-6.84c.03-.64,.12-1.27,.19-1.9Zm24.14-2.55c-2.43,2.15-4.11,5.2-7.28,6.44-1.76,.69-2.48,1.82-2.98,3.69-1.86,6.87-5.72,11.93-13.17,13.09-2.1,.33-2.25,1.82-2.61,3.4,15.6,.29,26.36-9.47,26.01-26.67,.48,.1,.48-.1,.27-.43l-.23,.47Zm-23.2,13.45c-.17,1.91-.11,3.88-.57,5.72-.66,2.6,.63,2.47,2.26,1.93,3.32-1.11,5.96-3.13,7.65-6.31,5.12-9.67,3.14-18.97-1.44-28.13-.79-1.58-1.39-.7-1.98,.13-1.68,2.36-2.88,4.95-3.83,7.69-2.08,5.98-1.46,12.25-1.98,18.39-.06,.05-.17,.1-.17,.15,0,.14,.05,.28,.08,.42Zm-47.91-108.08c-5.22-.16-9.58,2.9-11.29,8.1-1.82,5.54-1.3,11.21-.44,16.82,1.5,9.71,4.09,19.18,6.68,28.64,.96,3.52,1.57,3.68,4.19,1,.44-.45,.82-.97,1.19-1.49,3.84-5.4,2.32-11.48,1.08-16.95-1.36-6.03-2.76-11.95-2.71-18.13,.03-3.77,1.44-5.13,5.17-5.49,2.23-.21,4.3-1.04,6.44-1.57,1.01-.25,1.43-.54,1.15-1.71-1.09-4.55-6.65-9.06-11.46-9.21Zm29.22,4.73c.68,6.33,2.12,13.06,6.5,18.78,.45,.59,.92,1.21,1.51,1.63,3.81,2.68,7.69,5.25,11.47,7.98,1.88,1.36,2.58,.95,2.64-1.3,.1-3.79-1.25-7.14-3.03-10.32-2.45-4.37-5.18-8.58-7.51-13.01-2.04-3.88-.37-6.6,3.93-7.28,2.49-.39,4.9-1.24,7.38-1.7,2.2-.4,1.97-1.32,.95-2.8-3.27-4.72-8.97-6.3-15.63-4.26-5.11,1.57-8.14,5.86-8.19,12.29Zm-27.73,126.73c8.26,.49,15.05-4.82,21.89-9.86,1.59-1.18,4.68-2.5,3.93-4.35-1.04-2.58-4.4-2.44-7.05-2.54-.62-.02-1.26,.15-1.88,.25-9.96,1.6-17.93,7.15-25.69,13.16-1.61,1.24-.66,1.58,.45,2.05,2.38,1.01,4.87,1.4,8.36,1.28Zm22.93-83.12c5.16,.41,10.12-.55,14.94-2.24,1.87-.66,3.58-1.5,1.57-4.07-1.55-1.98-3.02-4.23-3.74-6.61-.81-2.66-1.79-1.77-3.31-.99-3.53,1.81-7.34,2.51-11.28,2.87-2.65,.25-5.77-1.98-7.58-.22-1.68,1.64-.39,5.13-1.4,7.67-.73,1.84,.07,2.65,1.97,2.99,2.94,.53,5.9,.41,8.84,.6Zm-5.3,78.2c7.09,3.63,13.43,2.8,19.28-1.21,6.13-4.2,8-10.65,7.93-17.84-.01-1.13-.61-1.12-1.48-.89-3.51,.93-7.09,2.18-9.47,4.86-4.86,5.48-9.36,11.27-16.27,15.08Zm31.9-74.16c-.31,5.84-.08,10.68,1.35,15.45,2.24,7.48,5.98,14.35,8.49,21.71,.61,1.78,1.3,.9,1.94,.19,2.03-2.27,2.63-5.05,2.64-8.02,.03-6.48-2.39-12.28-4.74-18.14-1.88-4.69-5.8-7.34-9.68-11.19Zm9.6,7.22c2.48-6.82-.12-16.05-5.43-19.86-4.3-3.09-8.73-6-13.13-8.94-.98-.65-1.81-1.74-3.24-1.6-.66,5.95,2.05,10.45,5.56,14.59,4.82,5.69,11.17,9.74,16.24,15.81Zm9.04-3.33c-.59,1.81-.82,3.21-1.46,4.36-3.14,5.68-3.18,11.37-1.42,17.63,1.4,4.99,.15,9.99-3.89,13.81-.37,.35-.88,.83-.87,1.23,.07,2.1-.99,5.15,.42,6.05,1.5,.96,3.37-1.5,4.72-2.93,4.72-4.97,5.52-11.66,6.89-17.88,1.67-7.58-.23-14.92-4.39-22.27Zm-46.57-20.86c2.82,.21,6.34-.77,9.78-2.33,2.28-1.03,4.02-2.35,3.81-5.18-.05-.65-4.99-7.2-5.49-7.24-.41-.03-.85,.04-1.25,.16-4.57,1.33-9.12,2.7-13.7,4-.92,.26-1.38,.62-1.52,1.69-1,7.85-.16,8.88,8.36,8.9Zm37.12-6.25c-.53,2.88-.98,5.68-1.59,8.45-.37,1.66-.23,2.97,.8,4.46,3.56,5.14,5.17,10.9,3.22,17-.94,2.93-.23,4.95,1.26,7.28,7.62-12.31,5.83-30.46-3.69-37.18Zm-1.92-5.98c0-2.56-.02-5.12,0-7.68,.02-1.5-.54-2.25-2.1-1.81-2.43,.68-4.85,1.36-7.27,2.05-1.18,.34-1.4,.84-.72,2.06,2.95,5.2,5.76,10.39,4.42,16.86-.44,2.11,2.07,2.97,3.61,3.36,1.37,.34,.83-1.55,1.11-2.45,1.26-4.04,.91-8.25,.95-12.39Zm-7.61,45.87c-3.39,5.68-3.07,11.13-1.75,17.19q5.5-8.54,1.75-17.19Zm-29.8,43.98c2.81,.13,5.15,.54,7.02,2.31,.73,.7,1.53,.85,2.1-.11,1.05-1.78,2.93-2.99,3.4-5.13,.03-.12-.43-.41-.7-.54-3.36-1.66-9.28-.09-11.82,3.47Zm-39.74-41.64c.88-1.9,2.68-3.73,.55-6.1-1.08,2.06-.73,4.09-.55,6.1Z"/>
  <path class="cls-5" d="M292.54,54.01c-4.24,1.16-8.56,2.07-12.69,3.55-2.58,.93-3.89,.26-4.96-2.02-.58-1.24-1.4-2.37-2.06-3.57-.57-1.03-.79-2.02,.69-2.5,13.89-3.86,27.79-7.71,41.68-11.57,14.69-4.09,29.38-8.19,44.08-12.29,3.21,1.76,3.52,3.92,1.29,9.05-1.05,.44-2.11,.88-3.16,1.33-.81-.05-1.57,.09-2.24,.57-2.25,.62-4.5,1.24-6.74,1.86-.17,.06-.35,.12-.52,.18-10.68,2.72-21.33,5.5-31.8,8.98-7.93,1.86-15.8,3.92-23.56,6.43Z"/>
  <path class="cls-14" d="M178.85,69.26c-.61,.16-1.22,.31-1.83,.47-2.37-2.91-5.19-5.11-9.13-4.88-9.33,.56-16.9,6.77-15.28,17.91,.47,3.26,.64,6.57,.95,9.85-.36,.02-.73,.03-1.09,.05-.33-1.49-.66-2.97-.99-4.46-.16-1.11-.31-2.23-.47-3.34,.11-.22,.08-.42-.07-.6-.07-.49-.15-.98-.22-1.47,0-.44-.14-1.07-.58-.92-5.04,1.65-10.4,2.32-15.12,4.97h.03c-1.06-.22-2.06-.16-2.88,.67-1.66,.38-.42,1.23-.31,1.91-3.79,.58-3.98,3.92-4.93,6.66-.48,1.39-.03,1.87,1.53,1.59,4.97-.88,9.96-1.6,14.94-2.39,.67,.13,1.51-.22,1.89,.71-3.36,1.81-7.07,2.06-10.74,2.43-2.23,.22-4.56,.01-3.84,3.51,.11,.54-.7,.67-1.16,.87-.68-1.12-.19-3.13-1.83-3.4-1.73-.28-2.15,1.66-3.16,2.67-2.11,2.12-4.44,4.02-6.67,6.01h.02c-.92-.6-1.61-.52-1.95,.64h0c-2.63,.38-5.17,.47-7.87,1.42-6.49,2.3-13.29,2.63-19.43-1.69-2-1.4-2.37-3.62-.77-5.32,1.88-2,3.67-4.18,6.19-5.4,1.67-.81,1.92-1.61,.68-3.1-14.13-17-22.66-37.19-31.71-57.1-.93-2.05,.6-1.39,1.48-1.48,8.26,19.44,16.82,38.71,29.97,55.45,3.19,4.06,2.99,3.99,8.07,2.41,2.51-.78,2.14-1.53,.85-3.12-6.65-8.18-11.28-17.69-16.75-26.64-4.31-7.05-7.51-14.79-10.68-22.47-1.09-2.63-2.82-5.03-3-8.01,1.73-.46,1.89,1.04,2.29,2.03,2.91,7.24,5.97,14.44,9.69,21.27,6.11,11.19,12.03,22.53,19.76,32.74,2.49,3.29,7.65,2.95,9.74-.72,1.32-2.32,2.66-4.62,4.37-6.68,3.25-3.89,7.56-5.34,12.41-5.25,2.98,.06,5.26,1.79,6.69,4.29,1.04,1.83,2.09,2.16,3.81,1.23,.36-.19,.82-.2,1.23-.28,4.6-.85,7.86-2.35,8.87-8.12,1.65-9.45,19.12-16.74,27.01-4.91Zm-68.56,26.32c2.15,.22,1.76-1.47,2.55-3.23-5.83,2.08-11.38,2.77-16.11,5.89-2.44,1.11-4.61,2.62-6.3,4.73-2.02,2.52-1.6,4.16,1.32,5.45,3.58,1.59,7.33,1.91,11.17,1.33q4.85-.72,1.87-4.58c-1.4-1.82-1.73-3.26,1.15-3.78,.81-.15,1.78-.4,2.31-.96,1.26-1.32,3.38-2.38,2.12-4.87l-.09,.02Zm1.31,11.81c5.54,.01,12.09-5.41,13.35-10.65,1.24-5.16,3.25-9.75,8.66-11.79,1.14-.43,3.06-.37,3.19-1.52,.18-1.61-1.43-2.7-2.69-3.67-1.43-1.1-3.08-1.42-4.81-1.1-4.91,.89-8.94,3.15-11.36,7.77-1.73,3.3-3.51,6.59-5.02,9.99-1.2,2.7-2.4,5.24-5.28,6.47-.64,.28-1.61,.62-.72,1.56,1.4,1.48,3.01,2.67,4.68,2.93Z"/>
  <path class="cls-7" d="M72.97,33.67c.19,2.98,1.92,5.38,3,8.01,3.17,7.68,6.37,15.42,10.68,22.47,5.47,8.95,10.1,18.45,16.75,26.64,1.29,1.59,1.66,2.34-.85,3.12-5.08,1.59-4.88,1.66-8.07-2.41-13.15-16.74-21.71-36.01-29.97-55.45,2.74-1.07,5.45-2.26,8.44-2.38Z"/>
  <path class="cls-13" d="M201.89,61.1c-.15,.16-.24,.35-.27,.56-2.23,3.48-4.47,6.94-7.71,9.59-1.8,1.69-4.05,2.92-5.15,5.3,0,0,.12,0,.12,0-.16-1.25-.31-2.49-.47-3.74,.54-.29,.55-.8,.53-1.33,.23-.14,.27-.32,.13-.55,3.71-2.3,6.67-5.33,8.88-9.13,3.48-6.01,6.35-12.3,8.58-18.89,.8-2.35,.54-3.55-2.3-3.67-3.21-.14-3.32-.58-1.52-3.35,1.97-3.04,3.97-6.07,5.98-9.09,.39-.59,.73-1.46,1.64-1.24,.68,.16,.82,.88,1.03,1.5,1.23,3.75,2.42,7.53,3.78,11.23,.88,2.39-.26,2.77-2.05,2.23-2.39-.72-3.05,.3-3.61,2.48-1.35,5.18-3.76,9.97-5.92,14.84-.88,.92-1.46,2-1.66,3.27Z"/>
  <path class="cls-10" d="M56.45,164.27c6.64-3.36,14.73-3.14,21.74,.73-2.06,2.08-4.58,3.28-7,4.56-5.01,2.66-9.87,5.69-15.57,6.72-2.43-4.2-.05-8.05,.84-12.02Z"/>
  <path class="cls-9" d="M359.27,25.61c-14.69,4.1-29.38,8.2-44.08,12.29-13.89,3.87-27.78,7.72-41.68,11.57,0-.27,0-.54,0-.81,1.24-1.07,2.89-1.01,4.31-1.59,.95-.39,2.44,.3,2.69-1.43,0,0-.04,.03-.04,.03,.95,.03,2.04,.53,2.59-.78,.23-.15,.47-.3,.7-.46,.86,1.04,1.67,.75,2.47-.08l-.05,.03c8.05-2.13,16.12-4.18,24.14-6.42,11.88-3.31,23.71-6.81,35.59-10.14,5.27-1.48,10.6-2.73,15.91-4.08-.16,1.61-1.6,1.4-2.57,1.86Z"/>
  <path class="cls-5" d="M361.84,23.75c-5.3,1.35-10.64,2.6-15.91,4.08-11.88,3.33-23.71,6.82-35.59,10.14-8.02,2.24-16.09,4.29-24.14,6.42,.56-1.72,2.25-1.38,3.44-1.78,3.7-1.24,7.46-2.26,11.2-3.37,6.82-1.14,13.31-3.61,20-5.27,.7-.17,.75-.6,.37-1.15,.88-2.04,2.74-1.74,4.41-1.89,0,.41,0,.82,.01,1.23,0,0-.07,.07-.07,.07l.06-.09c1.3,.2,2.47-.31,3.69-.65,10.82-3.01,21.65-6,32.47-8.99,.02,.42,.04,.84,.06,1.26Z"/>
  <path class="cls-13" d="M152.47,92.67c.36-.02,.73-.03,1.09-.05,.43,1.93,.99,3.84,.84,5.86-.05,.06-.14,.13-.14,.18,.02,.14,.09,.27,.14,.4,.26,1.29,.52,2.58,.78,3.87-.67,.79-.38,1.75-.46,2.65-.2-.03-.39-.05-.59-.06-.12-.18-.14-.37-.07-.58,.14-.47,.12-.92-.24-1.3-.21-1.26-.47-2.51-.61-3.78-.2-1.81-.59-2.76-2.69-1.59-2.75,1.54-5.68,2.76-8.54,4.12-3.59,1.54-7.18,3.07-10.77,4.61-.26-.06-.53-.11-.79-.17-.13-.24-.27-.48-.4-.73,.06-.63-.63-1.28,.03-1.91,6.96-2.65,13.72-5.76,20.45-8.96,1.1-.52,2.04-1.13,1.95-2.56Z"/>
  <path class="cls-10" d="M54.47,177.97c.1,.04,.19,.11,.29,.13,2.49,.41,5.27-2.55,7.56,1.09,1.43,2.27,4.29,3.2,6.92,5.23-4.96,1.16-9.3,2.5-13.93,2.04-1.82-2.68,.05-5.72-.83-8.49Z"/>
  <path class="cls-14" d="M357.4,35.98c1.05-.44,2.11-.88,3.16-1.33,.49,.04,1.23-.15,1.27,.53,.08,1.36-1.36,.87-1.96,1.45-.16-.02-.3,.02-.42,.12-.4,.45-.92,.56-1.49,.52-.88,.03-1.84-.23-2.46,.7l-.16,.13s-.2-.05-.2-.05c-.29,.08-.58,.16-.88,.23-10.46,3.22-21.03,6.06-31.64,8.74-.26,.12-.52,.25-.78,.37-.4,.08-.8,.16-1.21,.24-.21,.05-.42,.11-.62,.16-.44,.16-.88,.32-1.31,.47-.88-.19-1.93,.32-2.6-.69,10.46-3.48,21.12-6.27,31.8-8.98,.2,0,.37-.05,.52-.18,2.25-.62,4.5-1.24,6.74-1.86,.82,.09,1.66,.28,2.24-.57Z"/>
  <path class="cls-14" d="M325.64,32.15c0-.41,0-.82-.01-1.23,11.46-3.2,22.92-6.4,34.38-9.61,1.08-.3,2.25-.86,1.78,1.18-10.83,2.99-21.65,5.98-32.47,8.99-1.21,.34-2.39,.85-3.69,.65v.02Z"/>
  <path class="cls-15" d="M316.1,47.58c.67,1,1.72,.5,2.6,.69-8.17,2.74-16.54,4.7-24.86,6.9,.78-1.79-.82-.82-1.3-1.15,7.76-2.5,15.63-4.57,23.56-6.43Z"/>
  <path class="cls-15" d="M321.21,32.81c.39,.55,.33,.98-.37,1.15-6.69,1.65-13.17,4.13-20,5.27-.5-.82-1.36-.54-2.08-.71,6.75-1.91,13.51-3.84,20.27-5.71,.68-.19,1.45-.01,2.18,0Z"/>
  <path class="cls-7" d="M131.22,106.99c3.59-1.54,7.18-3.07,10.77-4.61,0,.35,0,.7,0,1.05-.25,.47-.51,.93-.76,1.4-5.12,.56-6.26,1.62-7.06,6.51-.03,.16-.28,.28-.43,.43-.36-1.02-.72-2.04-1.08-3.05-.19-.88-.88-.55-1.41-.6-.01-.37-.02-.74-.03-1.12Z"/>
  <path class="cls-15" d="M110.27,185.91c0-.51-.02-1.02-.02-1.53,3.8,.57,7.62,.31,11.43,.18,0,.45,0,.91,0,1.36-3.81,.77-7.61,.86-11.42,0Z"/>
  <path class="cls-15" d="M211.92,63.12c0,.37,0,.75,0,1.12-3.91,1.77-8.32,2.04-12.13,4.12q-.91-.91,1.32-2.79c3.6-.82,7.2-1.63,10.81-2.45Z"/>
  <path class="cls-13" d="M195.68,61.76c-.11,1.04-.91,.96-1.62,1.02-2.12-2.07-4.78-1.39-7.29-1.44-.31,.09-.61,.18-.92,.26-.51,.2-1.02,.41-1.53,.61-.35-.23-.7-.47-1.05-.7,.35-.76,1.04-.97,1.76-1.13,.57,.14,1.07,.05,1.45-.46,2.35-.13,4.74-.61,6.99,.57,.28,.55,.75,.69,1.31,.61,.3,.22,.59,.44,.89,.66Z"/>
  <path class="cls-15" d="M257.02,180.84c.71-.08,1.26-.34,1.26-1.2,2.13,0,4.25,0,6.38,0,0,.44,.02,.87,.03,1.31-2.56,.79-5.12,.68-7.66-.11Z"/>
  <path class="cls-15" d="M126.27,108.09c-.02,.89-.47,1.55-1.33,1.35-.95-.22-2.16-.5-2.08-1.9,.07-1.23,1.25-1,1.94-1.1,1.05-.15,1.37,.73,1.46,1.65Z"/>
  <path class="cls-15" d="M117.88,109.08c.51,.43,1.1,.79,1.5,1.31,.37,.47,.65,1.13,.13,1.7-.49,.54-1.09,1-1.87,.85-.73-.14-.8-.84-1.04-1.41-.26-.6,.44-1.53-.63-1.82,0,0,0,0,0,0,1.03,.96,1.58,.41,1.95-.65h-.02Z"/>
  <path class="cls-14" d="M173.23,187.03c2.51-.82,5.08-.33,7.62-.38-2.51,.77-5.04,.99-7.62,.38Z"/>
  <path class="cls-15" d="M131.57,110.73c.73,.62,1.07,1.37,.72,2.33-.53-.69-.71-1.48-.72-2.33Z"/>
  <path class="cls-15" d="M126.13,185.36c.63-.86,1.5-.65,2.35-.52-.71,.51-1.49,.7-2.35,.52Z"/>
  <path class="cls-15" d="M355.49,37.98c.63-.93,1.59-.67,2.46-.7-.82,.23-1.64,.47-2.46,.7Z"/>
  <path class="cls-15" d="M84.35,157.59c-.72,.06-1.47,.23-2.02-.48,.75-.16,1.41,.05,2.02,.48Z"/>
  <path class="cls-15" d="M246.26,183.18c.64-.66,1.48-.41,2.24-.5-.66,.55-1.43,.62-2.24,.5Z"/>
  <path class="cls-15" d="M237.96,184.59c.49-.63,1.1-.55,1.73-.29-.51,.52-1.11,.49-1.73,.29Z"/>
  <path class="cls-15" d="M223.35,183.39c.58-.78,1.21-.84,1.88-.12-.63,.04-1.25,.08-1.88,.12Z"/>
  <path class="cls-15" d="M78.24,156.92c-.77,.03-1.54,.07-2.32,.1,.76-.41,1.52-.58,2.32-.1Z"/>
  <path class="cls-15" d="M105.01,184.76c.52-.09,1.01-.07,1.4,.37-.47-.12-.93-.24-1.4-.37Z"/>
  <path class="cls-15" d="M131.25,108.11c.53,.06,1.22-.28,1.41,.6-.47,.01-.94,.02-1.41,.03,0-.21,0-.43,0-.64Z"/>
  <path class="cls-15" d="M186.5,59.92c-.38,.5-.88,.6-1.45,.46,.38-.5,.86-.65,1.45-.46Z"/>
  <path class="cls-15" d="M194.8,61.1c-.57,.08-1.03-.06-1.31-.61,.55-.04,.98,.17,1.31,.61Z"/>
  <path class="cls-15" d="M254.48,180.74c.36-.57,.76-.65,1.23-.13-.41,.04-.82,.08-1.23,.13Z"/>
  <path class="cls-15" d="M88.76,158.9c-.44-.09-.87-.19-1.31-.28,.44,.09,.87,.19,1.31,.28Z"/>
  <path class="cls-15" d="M228.26,184.12c.23,.03,.47,.07,.7,.1-.23-.03-.47-.07-.7-.1Z"/>
  <path class="cls-14" d="M190.59,184.84c.33,.16,.66,.32,.98,.47-.44,.08-.76-.09-.98-.47Z"/>
  <path class="cls-14" d="M185.27,185.62c.22-.09,.44-.17,.66-.26-.22,.09-.44,.17-.66,.26Z"/>
  <path class="cls-4" d="M54.83,186.63c-.15,.24-.3,.47-.45,.71,.15-.24,.3-.47,.45-.71Z"/>
  <path class="cls-15" d="M253.23,181.23c.25-.11,.5-.23,.75-.34-.25,.11-.5,.23-.75,.34Z"/>
  <polygon class="cls-15" points="269.4 180.15 269.46 180.13 269.37 180.26 269.4 180.15"/>
  <path class="cls-14" d="M179.43,68.03c-.1,.28-.19,.55-.29,.83,.1-.28,.19-.55,.29-.83Z"/>
  <path class="cls-13" d="M196.59,61.96c-.16,.09-.32,.19-.48,.28-.03-.15-.06-.31-.09-.46,.18,.08,.37,.14,.57,.17Z"/>
  <path class="cls-13" d="M183.17,61.65s.12-.14,.12-.14c.35,.24,.7,.47,1.05,.7-.23,.17-.45,.33-.68,.5-.16-.35-.32-.71-.49-1.06Z"/>
  <path class="cls-15" d="M320.01,47.8c.21-.05,.42-.11,.62-.16-.21,.05-.42,.11-.62,.16Z"/>
  <path class="cls-15" d="M321.84,47.4c.26-.12,.52-.25,.79-.37-.26,.12-.52,.25-.79,.37Z"/>
  <path class="cls-15" d="M292.54,40.26c-.2,.09-.4,.18-.6,.26,.2-.09,.4-.18,.6-.26Z"/>
  <path class="cls-3" d="M130.03,106.1c.13,.24,.27,.48,.4,.73-.36-.12-.49-.36-.4-.73Z"/>
  <path class="cls-15" d="M297.61,38.98c-.25,.06-.5,.12-.75,.18,.25-.06,.5-.12,.75-.18Z"/>
  <path class="cls-15" d="M354.26,38.29c.29-.08,.58-.16,.88-.23-.29,.08-.58,.16-.88,.23Z"/>
  <path class="cls-15" d="M359.45,36.76c.12-.1,.27-.14,.42-.12l-.18,.19-.24-.07Z"/>
  <path class="cls-7" d="M215.64,139.8c.42,6.1,.1,12.15-1.29,18.1-.48,2.07-.54,5.02-3.43,5.02-2.73,0-3.72-2.48-4.22-4.91-1.26-6.11-.05-12.14,.72-18.18,.15-1.16,.43-2.28-.5-3.64-1.39,2.31-1.32,4.84-1.63,7.1-.71,5.07-1.16,10.23-.04,15.32,.33,1.5,.11,2.7-.74,3.91-1.48,2.11-2.95,2.23-4.48,.1-.79-1.1-1.18-2.48-1.78-3.72-1.5-3.1-.93-6.89-3.3-9.77-.58-.7-.27-2.31-.09-3.45,.26-1.62,.12-3.2-.12-4.78,.01-.86,.03-1.72,.04-2.59,.84-4.83,.37-9.69,1.51-14.67,1.89-8.25,2.6-16.85,4.19-25.23,.49-1.38,.91-2.8,1.5-4.14,2.08-4.75,3.92-9.7,8.67-12.58,1.25,.12,2.34-1,3.98-.47-3.3,6.78-2.8,14.05-3.63,21.18-1.06,9.09-.63,18.39-3.2,27.31-.44,1.54-1.16,3.41,.54,5.36,1.62-6.51,2.71-12.78,5.24-19.4,.13,1.59,.21,2.46,.28,3.33,.2,2.15,.4,4.3,.59,6.45-.24,3.5,.09,6.95,.9,10.35-.2,1.35-.2,2.68,.3,3.97Z"/>
  <path class="cls-7" d="M226.5,142.2c-.81,3.31-1.24,6.72-2.75,9.82-1.59,3.27-1.92,3.32-4.32,.47-.67-.79-1.19-1.71-1.77-2.57-.35-3.63,.35-7.32-.67-10.91-.43-4.51-.86-9.02-1.3-13.53,.01-3.45,.57-6.94-.66-10.31-.17-5.13-2.17-9.98-2.02-15.2,.14-5.05,.32-10.05,1.94-14.87,.34-1,.73-2.04,1.34-2.89,.6-.83,1.46-1.86,2.53-1.69,1.24,.2,.72,1.6,.91,2.45,2.08,9.04,5.63,17.72,6.44,27.07,.15,1.7,.28,3.41,.42,5.11-.04,9.01-.07,18.02-.11,27.03Z"/>
  <path class="cls-7" d="M230.39,43.74c4.82,.15,10.37,4.66,11.46,9.21,.28,1.17-.14,1.46-1.15,1.71-2.15,.53-4.21,1.36-6.44,1.57-3.72,.35-5.14,1.72-5.17,5.49-.05,6.18,1.35,12.11,2.71,18.13,1.24,5.47,2.76,11.56-1.08,16.95-.37,.52-.75,1.04-1.19,1.49-2.62,2.68-3.23,2.52-4.19-1-2.58-9.46-5.18-18.93-6.68-28.64-.87-5.6-1.38-11.28,.44-16.82,1.71-5.2,6.07-8.26,11.29-8.1Z"/>
  <path class="cls-7" d="M259.6,48.47c.05-6.42,3.07-10.72,8.19-12.29,6.66-2.04,12.36-.45,15.63,4.26,1.03,1.48,1.26,2.4-.95,2.8-2.48,.45-4.89,1.3-7.38,1.7-4.29,.68-5.97,3.4-3.93,7.28,2.33,4.43,5.06,8.65,7.51,13.01,1.79,3.18,3.14,6.53,3.03,10.32-.06,2.25-.76,2.66-2.64,1.3-3.78-2.73-7.66-5.3-11.47-7.98-.59-.42-1.06-1.04-1.51-1.63-4.37-5.72-5.81-12.45-6.5-18.78Z"/>
  <path class="cls-7" d="M227.91,115.64c.05-.16,.04-.32-.04-.47-.54-1.84,1.34-2.71,1.64-4.22-2.55-.09-1.41-2.32-2-3.55-.07-.31-.14-.61-.22-.92-.85-3,.21-5.08,2.9-6.5,3.23-1.7,3.96-4.82,4.1-8.09,.23-5.36-.1-10.7-1.35-15.93-.56-2.35-.33-3.99,2.45-4.28,.52-.05,1.04-.2,1.55-.33,6.7-1.67,6.8-1.67,6.59,5.49-.26,8.95-1.67,17.65-6.24,25.52-1.56,2.68-3.43,5.12-6.18,6.72-.52,.3-1.1,.69-.98,1.54,2.09,1.4,3.09-1.88,4.99-1.24-.08,1.08-.16,2.15-.23,3.23-.06,.21-.11,.41-.17,.62-.98,3.52-2.88,6.39-6.1,8.78-.18-1.97-.35-3.77-.52-5.56,.03-.1,.11-.21,.09-.28-.07-.18-.18-.35-.28-.53Z"/>
  <path class="cls-2" d="M278.4,151.24c.53-6.14-.09-12.41,1.98-18.39,.95-2.74,2.15-5.33,3.83-7.69,.59-.83,1.19-1.72,1.98-.13,4.58,9.16,6.56,18.46,1.44,28.13-1.68,3.18-4.32,5.2-7.65,6.31-1.63,.54-2.92,.67-2.26-1.93,.46-1.84,.4-3.81,.57-5.72,.15-.17,.18-.36,.1-.57Z"/>
  <path class="cls-1" d="M231.87,175.19c-3.49,.12-5.98-.27-8.36-1.28-1.11-.47-2.05-.81-.45-2.05,7.76-6.01,15.73-11.56,25.69-13.16,.63-.1,1.26-.27,1.88-.25,2.65,.1,6.01-.04,7.05,2.54,.74,1.85-2.34,3.18-3.93,4.35-6.84,5.04-13.63,10.35-21.89,9.86Z"/>
  <g>
    <path class="cls-14" d="M126.13,185.36c-1.43,.58-2.94,.6-4.44,.56,0-.45,0-.91,0-1.36,2.81-.78,5.84-.55,8.82-2.01-2.51-1.97-4.9-3.81-7.23-5.72-.85-.7-1.7-.73-2.65-.4-8.04,2.77-15.76,2.62-22.99-2.49-1.21-.85-2.62-.58-3.4,.54-.84,1.19,.57,1.88,1.22,2.57,4.02,4.29,9.13,6.4,14.8,7.32,0,.51,.02,1.02,.02,1.53-1.37,.17-2.62-.27-3.86-.79-.39-.44-.88-.45-1.4-.37-1.27-.35-2.46-.06-3.72,.25-9.26,2.27-18.57,3.21-27.92,.57-1.71-.48-3.13,.24-4.6,.65-3.79,1.06-7.62,1.81-11.52,2.19-1.03,.1-2.42,.65-2.88-1.07,.15-.24,.3-.47,.45-.71,.19,.03,.34-.02,.47-.17,4.64,.45,8.98-.88,13.93-2.04-2.63-2.03-5.49-2.95-6.92-5.23-2.29-3.64-5.07-.68-7.56-1.09-.1-.02-.19-.09-.29-.13,.07-.78,.6-1.24,1.15-1.69,5.7-1.03,10.56-4.06,15.57-6.72,2.42-1.29,4.94-2.48,7-4.56-7.01-3.87-15.1-4.1-21.74-.73-.6-.09-1.3,.7-1.76,.06-.37-.51-.23-1.17,.53-1.54,1.61-.79,1.13-1.75,.11-2.68-.48-.44-1.07-.87-.54-1.57,.56-.74,1.15-.14,1.65,.16,4.98,2.97,9.78,2.12,14.62-.49,1.46-.79,3.11-1.36,4.87-1.2,.77-.03,1.54-.07,2.32-.1,1.39-.47,2.74-.16,4.09,.2,.55,.71,1.29,.54,2.02,.48,1.11,.11,2.17,.35,3.1,1.02,.44,.09,.87,.19,1.31,.28,3.46,1.23,7.03,.62,10.11-.63,6.78-2.75,12.82-2.63,19.31,1.26,3.18,1.91,7.59,.97,11.04-1,4.46-2.55,8.91-4.86,14.22-4.75,2.54,.05,4.77,1.26,7.55,2.26-9.95-13.09-14.77-27.84-18.7-42.97,.34-.96,0-1.71-.72-2.33-.41-.61-.59-1.26-.32-1.98,.47-.01,.94-.02,1.42-.03,.36,1.02,.72,2.04,1.08,3.05-.91,1.99,.85,3.34,1.29,4.98,2.64,9.67,5.96,19.12,10.62,28.01,2.05,3.91,4.27,7.72,8.16,10.93,.53-3.14,.87-5.76,1.89-8.19,.35-.84-.19-1.42-.57-2.05-4.13-6.67-6.54-14.05-8.69-21.53-1.82-6.33-3.48-12.71-5.21-19.08,.25-.47,.51-.93,.76-1.4,.29,.05,.57,.11,.86,.16,.13,.22,.26,.44,.39,.66,.99,6.24,2.8,12.29,4.52,18.34,1.96,6.88,4.23,13.67,7.6,20.02,.78,1.47,1.2,2.07,2.48,.28,1.04-1.44,1.4-2.7,.99-4.4-.3-1.23-.27-2.54-.38-3.82,.09-.75,.23-1.52-.43-2.11-.29-2.07-.58-4.13-.87-6.2-.02-.26-.05-.53-.07-.79-.63-2.55-1.17-5.12-1.12-7.78,.06-.69,.17-1.4-.43-1.95-.08-.82-.17-1.64-.25-2.46-.02-.21-.03-.43-.05-.64-.18-.89-.36-1.79-.53-2.68,0-1.5,0-2.99,.01-4.49,.08-.9-.21-1.86,.46-2.65,.49,3.43,.97,6.86,1.46,10.3,0,.2,.05,.39,.16,.55,.08,.48,.16,.96,.23,1.44-.45,.43-.44,.83,.05,1.22,1.06,4.52,1.46,9.13,2.03,13.73,.06,.77-.02,1.64,1.07,1.77,.3,2.22,.59,4.44,.91,6.65,.86,5.91,1.7,11.83,2.64,17.73,.3,1.91,1.22,3.57,3.43,3.53,2.21-.03,2.25-1.94,2.38-3.51,.75-8.77-.07-17.51-.58-26.26-.42-7.14-2.06-14.16-2.18-21.34,.77-.48,.58-1.3,.69-2.02,1.03,.31,1.23-.29,1.21-1.14-.04-1.96-.07-3.92-.11-5.88,.2-2.14,.27-4.28-.09-6.41,.39-1.04-.49-2.45,.92-3.19,.36,.17,.73,.34,1.09,.51-.63,1.29-.05,2.56,.08,3.83-.52,1.37-.43,2.75,0,4.12-.9,2.19-.13,4.42-.14,6.62-.06,13.24,.27,26.48,.96,39.71,.28,5.44,.86,10.85,3.2,15.88-.31,.31-.61,.61-.92,.92-.55-.74-1.08-1.5-1.64-2.23-.35-.45-.81-.72-1.29-.22-.27,.28-.63,.97-.56,1.03,1.34,1.19,1.88,3.54,4.32,3.17,.85,.23,1.7,.45,2.55,.68-5.55,2.73-11.11,5.46-16.66,8.18-.7,.34-1.97,.1-1.93,1.18,.03,.92,1.24,.96,1.94,1.4,3.91,2.43,8.16,2.6,12.54,2.09,1.46-.17,2.99-.6,4.36,.74-8.41,2.24-13.24,1.56-20.2-2.98-1.76-1.15-3.37-.28-4.25,.7-.91,1.02,.91,1.58,1.6,2.21,3.92,3.57,8.93,5.09,13.63,7.18,0,.42,0,.85,0,1.27-5.79-2.82-11.66-.93-17.52-.36-3.79,.36-7.63,.42-11.31-.59-3.62-.99-7.15-1.39-10.79-.31-.85-.14-1.71-.34-2.35,.52Zm-44.08-26.95c-3.75-.12-7.51-.29-11.44,1.98,5.84,1.57,11.08,5.79,16.26-.21-1.08-.84-2.58-.97-3.94-1.45l-.87-.32Zm58.25,6.25c-6.85-6.97-31.44-2.13-41.47,8.03,4.11,3.08,8.72,4.18,13.72,3.74,10.47-.93,19-6.51,27.75-11.77Zm-31.46-.2c-5.55-3.66-11.02-4.29-16.87-3.27-9.19,1.6-15.71,8.37-24.29,12.11,3.89,3.19,7.87,3.77,12.04,3.31,10.7-1.16,19.7-6.53,29.12-12.15Zm21.9,8.12c3.71,2.92,7.81,3.59,12.09,3.13,10.18-1.09,19.04-5.9,28.02-10.38,2-1,.52-1.7-.26-2.14-3.58-2-7.49-2.97-11.51-2.25-10.12,1.81-19.72,5.06-28.33,11.64Zm-46.5,12.95c5.53-.02,9.8-.63,14.04-1.54,.59-.13,1.41,0,1.56-.77,.15-.77-.63-1.04-1.14-1.36-2.26-1.43-4.29-3.12-5.84-5.33-.66-.94-1.38-1.09-2.45-.76-8.07,2.5-16.09,4.71-23.9-1.02-1.4-1.03-3.24,.37-4.18,1.42-.69,.78,.86,1.72,1.61,2.38,6.17,5.42,13.61,6.89,20.3,6.98Zm73.9-2.9c-1.95-1.51-3.94-2.73-5.51-4.36-1.8-1.85-3.55-2.02-5.97-1.46-5.25,1.21-10.59,1.24-15.3-1.85-2.37-1.55-4.21-1.44-6.21,.3,4.39,7.97,20.59,11.04,32.99,7.37Zm-5.79-22.31c-3.56-4.2-14.05-5.55-18.26-2.57-.35,.25-1.07,.44-.73,1.13,.29,.6,.82,.95,1.48,1.09,2.51,.51,4.9,1.33,6.85,3.1,.66,.6,1.36,.43,2.08,.18,2.76-.94,5.53-1.89,8.57-2.93Zm3-3.1c.22,.94-.65,2.45,1.24,2.34,1.58-.09,3.15-.32,4.73-.48,1.31-.13,1.05-.99,.92-1.88-.49-3.27-.95-6.55-1.39-9.83-.13-.98-.31-2.21-1.31-2.31-.94-.1-1.5,1.06-1.87,1.93-1.4,3.28-1.78,6.8-2.32,10.22Zm-54.06,2.04c3.05,1.03,5.58,1.98,7.92,3.41,2.92,1.79,4.79-1.2,8.03-1.55-5.4-3.56-10.26-4.16-15.95-1.86Z"/>
    <path class="cls-13" d="M173.68,161.72c.31-.31,.61-.61,.92-.92,.85,.99,1.68,1.97,3.2,1.18,1.69-.87,2.36-2.17,2.38-4.13,.19-22.67-1.1-45.29-1.89-67.93-.1-2.8-1.67-1.68-2.98-1.54-.29-.28-.58-.56-.86-.83,1.02-.47,2.02-.98,3.06-1.39,.87-.34,1.11-1,.83-1.75-.47-1.26-1.21-.33-1.71-.02-2.67,1.61-5.3,3.29-7.95,4.95-2.36,.7-3.31,1.88-2.65,4.68,.99,4.14,1.58,8.41,1.44,12.72-.11,.71,.08,1.53-.69,2.02-1.13-2.74-.71-5.71-1.25-8.55-1.1-5.78-2.04-11.59-2.93-17.4-.79-5.15,.97-7.86,5.5-8.1,2.71-.14,5.14-1.15,7.7-1.67,2.57-.52,2.17-1.7,1.21-3.31,.61-.16,1.22-.31,1.83-.47-.02-.22,.08-.36,.3-.4,.1-.28,.19-.55,.29-.83,.58-2.52,1.14-5.07,3.73-6.39,.16,.35,.32,.71,.49,1.06-2.05,2.32-2.74,5.21-3.37,8.13-.14,.18-.19,.37-.13,.59-.08,4.07-.16,8.14-.24,12.21-.06,.07-.18,.15-.17,.2,.03,.16,.12,.31,.18,.46,.66,19.03,1.43,38.06,1.86,57.09,.08,3.72,1.38,6.47,3.61,9.3,2.97-3.76,3.48-8.22,4.4-12.54,2.39,1.61,.71,3.53,.39,5.35-.52,.39-.55,.91-.41,1.49-.82,2.34-1.72,4.64-3.21,6.76,.42,.08,.78,.27,1.02,.17,4.63-1.88,5.91-3.81,5.88-8.74,0-.74,.05-1.49,.08-2.23,.4,0,.8,0,1.19,0,.24,1.59,.38,3.16,.12,4.78-.18,1.14-.49,2.75,.09,3.45,2.38,2.88,1.8,6.67,3.3,9.77,.6,1.24,1,2.62,1.78,3.72,1.53,2.13,3,2.01,4.48-.1,.85-1.21,1.07-2.41,.74-3.91-1.12-5.09-.67-10.25,.04-15.32,.32-2.26,.25-4.79,1.63-7.1,.93,1.36,.65,2.47,.5,3.64-.77,6.04-1.98,12.06-.72,18.18,.5,2.43,1.49,4.91,4.22,4.91,2.89,0,2.95-2.96,3.43-5.02,1.38-5.95,1.71-12.01,1.29-18.1,.04-1.34,.43-2.7-.3-3.97-.81-3.41-1.14-6.85-.9-10.35,.41,0,.83,.01,1.24,.02l1.3,13.53c.33,3.63-.76,7.35,.67,10.91,.59,.86,1.11,1.78,1.77,2.57,2.4,2.85,2.73,2.8,4.32-.47,1.51-3.1,1.95-6.52,2.75-9.82,.86-.74,.61-1.76,.61-2.69,0-8.11-.02-16.21-.03-24.32,.27-.01,.53-.02,.8-.03,.08,.15,.09,.31,.04,.47,.06,.27,.13,.54,.19,.81,.17,1.79,.34,3.59,.52,5.56,3.22-2.39,5.12-5.26,6.1-8.78,.09-.04,.27-.08,.27-.12,0-.17-.06-.33-.1-.5,.08-1.08,.16-2.15,.23-3.23,.5,.21,1.01,.43,1.51,.64,.14,.71,.08,1.39-.35,2l-.19,.68c-.52,4.03-1.86,7.59-5.26,10.11-1.43,1.06-2.15,2.49-2.15,4.4,0,3.96-.07,7.92-.27,11.88-.33,6.43-1.15,12.74-5.79,17.72-.61,.66-.46,1.36-.52,2.08l.34,.74c.3,.08,.6,.16,.89,.24-.1,.92,.13,1.6,1.2,1.65-.23,1.11,.64,1.28,1.34,1.59,0,.3,0,.6,0,.9-2.77,.6-5.5-.51-8.26-.18-.25-.27-.45-.2-.61,.1-9.56,.38-17.16,6.42-25.88,9.24-1.63,.53-.54,1.32,.15,2.02,.88,.89,2.74,.63,2.82,2.45l.06-.06c-1.37,.49-2.63-.01-3.43-.97-2.38-2.87-4.8-1.38-7.37-.45-1.43,.52-1.27,1.04-.48,1.96,3.45,4.01,8.11,6.27,13,7,5.23,.77,10.66,.12,16,.09-.19,.38-.38,.76-.56,1.13-6.67,1.38-13.26,1.43-19.74-1.02-.33-.16-.66-.32-.98-.47-1.64-.58-3.13,.15-4.67,.52-.22,.09-.44,.17-.66,.26-1.44,.49-2.83,1.2-4.42,1.04-2.54,.04-5.11-.44-7.62,.38-1.73-.24-3.53-.01-5.14-.92,0-.42,0-.85,0-1.27,.45,.09,.9,.18,1.35,.27,.24,.05,.47,.09,.71,.14,4.97,.89,9.85,.59,14.65-1.1,.93-.33,1.93-.8,.76-1.55-2.71-1.73-4.08-5.05-8.02-6.06,4.78-1.76,8.93-3.2,13.01-4.82,4.11-1.64,8.14-3.46,12.2-5.2-3.19-.43-3.94-4.16-6.94-4.86-4.04-.94-7.86-.66-11.78,.56-2.29,.71-4.47,1.9-6.96,1.92-.85-.23-1.7-.45-2.55-.68-.28-.58-.55-1.16-.83-1.75Zm4.56-85.15l-.04-1.36c-.03-.21-.07-.6-.08-.6-4.67,.29-9.1,1.71-13.38,3.44-1.15,.47,.1,.99,.8,1.09,0,.21,0,.42,0,.63-2.96,1.56-.66,3.93-.83,5.9-.16,1.75,.65,2.3,2.29,1.24,2.91-1.87,6.1-3.29,8.81-5.51,2.55-.71,2.79-2.62,2.45-4.84Zm11.96,83c.41-.02,.75,.02,1.04-.07,1.75-.53,3.91,1.39,5,0,.54-.7-.93-3.09-1.61-4.67-.61-1.41,.31-3.91-1.28-4.19-1.85-.33-3.1,1.85-4.39,3.21-.43,.45-.74,1.03-1.07,1.58-.7,1.18-1.94,2.62-1.36,3.73,.66,1.25,2.47,.18,3.67,.4Zm27.41,2.25c.62-.66,3.22,1.09,3.31-1.46,.08-2.33-1.27-4.43-2.53-6.4-.31-.49-.77-.71-1.34-.64-.56,.07-.6,.5-.54,.93,.32,2.08-.62,3.88-1.18,5.77-.43,1.46-.36,2.64,2.28,1.8Zm-35.94-12.27c0,2.82-.07,5.63,.04,8.45,.03,.91-.83,2.49,.75,2.62,1.5,.13,2.43-1.02,2.49-2.68,.12-3.19-1.4-5.78-3.28-8.39Zm23.25,15.69c1.14-.44,2.62-.14,3-1.63,.07-.27-.63-1.07-.92-1.04-1.43,.11-1.66,1.49-2.08,2.67Z"/>
    <path class="cls-10" d="M194.09,177.63c-.08-1.82-1.94-1.55-2.82-2.45-.7-.71-1.78-1.49-.15-2.02,8.72-2.82,16.32-8.86,25.88-9.24,.2-.03,.41-.07,.61-.1,2.76-.34,5.49,.78,8.26,.18,2.01,.91,2.53,1.82,.37,3.38-6.36,4.62-12.55,9.47-20.55,10.98-2.58,.49-5.05,.38-7.53-.31-1.34-.37-2.68-.58-4.07-.41Z"/>
  </g>
  <path class="cls-7" d="M254.8,92.07c-2.94-.19-5.9-.07-8.84-.6-1.89-.34-2.7-1.15-1.97-2.99,1.01-2.54-.28-6.03,1.4-7.67,1.8-1.76,4.93,.46,7.58,.22,3.94-.36,7.75-1.06,11.28-2.87,1.53-.78,2.51-1.67,3.31,.99,.72,2.38,2.2,4.63,3.74,6.61,2.01,2.57,.31,3.42-1.57,4.07-4.83,1.69-9.79,2.66-14.94,2.24Z"/>
  <path class="cls-2" d="M249.5,170.27c6.91-3.81,11.41-9.6,16.27-15.08,2.38-2.68,5.95-3.93,9.47-4.86,.86-.23,1.47-.24,1.48,.89,.06,7.19-1.8,13.64-7.93,17.84-5.85,4.01-12.19,4.84-19.28,1.21Z"/>
  <path class="cls-5" d="M258.84,54.18c.48,1.85,.73,3.81,1.51,5.53,1.12,2.47,.33,3.21-2.06,3.83-8.02,2.1-16.01,4.34-23.94,6.78-1.92,.59-2.82-.3-3.03-1.55-.42-2.45-1.38-4.97-.26-7.5,3-.08,5.75-1.32,8.54-2.17,4.58-1.39,9.39-2.06,13.68-4.38h-.05c1.95,.62,3.66-1.23,5.61-.54Z"/>
  <path class="cls-2" d="M281.4,96.11c3.88,3.84,7.8,6.5,9.68,11.19,2.35,5.86,4.77,11.66,4.74,18.14-.01,2.96-.61,5.75-2.64,8.02-.64,.71-1.34,1.59-1.94-.19-2.51-7.36-6.25-14.23-8.49-21.71-1.43-4.77-1.65-9.61-1.35-15.45Z"/>
  <path class="cls-10" d="M291.01,103.33c-5.08-6.07-11.42-10.12-16.24-15.81-3.51-4.14-6.22-8.64-5.56-14.59,1.43-.14,2.27,.95,3.24,1.6,4.41,2.94,8.83,5.85,13.13,8.94,5.31,3.81,7.91,13.04,5.43,19.86Z"/>
  <path class="cls-2" d="M300.05,100c4.16,7.35,6.06,14.69,4.39,22.27-1.37,6.22-2.17,12.91-6.89,17.88-1.36,1.43-3.22,3.89-4.72,2.93-1.41-.9-.35-3.95-.42-6.05-.01-.4,.5-.89,.87-1.23,4.04-3.82,5.3-8.82,3.89-13.81-1.76-6.26-1.73-11.94,1.42-17.63,.64-1.16,.87-2.55,1.46-4.36Z"/>
  <path class="cls-5" d="M193.92,71.26c1.84,.34,3.56-.15,5.26-.79,5.72-1.6,11.44-3.2,17.16-4.8,.27,1.35,.59,2.7,.8,4.06,.8,5.21,.79,5.2-4.29,6.58-2.12,.58-4.32,.89-6.27,2.02-1.34,.34-2.67,.68-4.01,1.02-1.78,.5-3.55,.99-5.33,1.49l-.64,.2c-.42,.02-.85-.01-1.25,.08q-5.34,1.27-5.97-3.88c-.2-.23-.41-.45-.61-.68,1.11-2.37,3.36-3.61,5.15-5.3Z"/>
  <path class="cls-2" d="M264.65,179.64c-2.13,0-4.25,0-6.38,0-.72-.08-1.43-.16-2.15-.24-3.49-1.29-6.98-2.58-10.47-3.87,.1-1.02-2.4-.74-1.24-1.78,1.26-1.13,2.79-2.63,5.01-1.56,3.7,1.78,7.6,2.35,11.7,1.72,4.08-.63,7.64-2.33,10.66-5.1,1.41-1.29,2.77-2.04,4.75-1.97,3.45,.13,6.81-.76,10.55-1.9-2.03,5.88-5.95,9.11-10.95,11.28-3.69,1.6-7.62,2.41-11.48,3.42Z"/>
  <path class="cls-10" d="M211.87,185.2c-5.34,.03-10.78,.68-16-.09-4.89-.72-9.54-2.98-13-7-.79-.92-.95-1.45,.48-1.96,2.56-.93,4.99-2.42,7.37,.45,.79,.96,2.06,1.46,3.43,.97-.35,1.28,.62,1.32,1.41,1.57,5.67,1.82,11.26,1.43,16.59-1.08,2.13-1.01,3.53-.98,5.11,.88,1.05,1.24,2.59,2.06,4.04,3.17-2.93,2.02-6.62,1.22-9.42,3.1Z"/>
  <path class="cls-2" d="M301.47,138.32c.35,17.2-10.41,26.96-26.01,26.67,.36-1.58,.51-3.08,2.61-3.4,7.45-1.16,11.31-6.22,13.17-13.09,.51-1.87,1.22-3,2.98-3.69,3.17-1.24,4.85-4.3,7.28-6.44l-.04-.04Z"/>
  <path class="cls-10" d="M290.59,72.89c9.52,6.72,11.31,24.87,3.69,37.18-1.48-2.33-2.19-4.35-1.26-7.28,1.95-6.1,.34-11.86-3.22-17-1.03-1.49-1.17-2.8-.8-4.46,.61-2.77,1.06-5.57,1.59-8.45Z"/>
  <path class="cls-1" d="M229.09,182.86c-3.09-.73-6.06-1.82-8.85-3.33-1.48-.8-3.48-2.26-2.85-3.6,.75-1.57,2.68-2.22,5.01-.87,4.86,2.81,10.31,2.24,15.45,.92,2.83-.73,5.22-1.04,7.63,.74,1.65,1.82,4.41,1.68,6.05,3.52-.33,.15-.67,.3-1,.45-.19,.03-.37,.06-.56,.09-3.18,.74-6.36,1.49-9.54,2.23-3.78-.05-7.56-.1-11.34-.15Z"/>
  <path class="cls-7" d="M288.67,66.91c-.04,4.14,.31,8.35-.95,12.39-.28,.9,.26,2.79-1.11,2.45-1.53-.38-4.04-1.25-3.61-3.36,1.34-6.48-1.47-11.67-4.42-16.86-.69-1.21-.46-1.72,.72-2.06,2.42-.69,4.85-1.37,7.27-2.05,1.57-.44,2.12,.31,2.1,1.81-.03,2.56,0,5.12,0,7.68Z"/>
  <path class="cls-1" d="M225.87,163.09c-.7-.31-1.57-.48-1.34-1.59,5.93-6.23,9.19-6.81,16.89-2.56-5.52,1.37-9.22,7.27-15.55,4.16Z"/>
  <path class="cls-2" d="M281.06,112.79q3.75,8.65-1.75,17.19c-1.32-6.06-1.64-11.51,1.75-17.19Z"/>
  <path class="cls-2" d="M251.25,156.76c2.54-3.56,8.46-5.13,11.82-3.47,.27,.13,.73,.42,.7,.54-.47,2.14-2.35,3.35-3.4,5.13-.57,.96-1.37,.81-2.1,.11-1.86-1.77-4.21-2.18-7.02-2.31Z"/>
  <path class="cls-10" d="M275.49,92.66c1.64-.69,4.57,1.33,4.39,3.32-.34,3.72-.09,7.42,.23,11.65-3.5-2.77-3.78-6.44-4.65-9.83,0-1.72,.02-3.43,.02-5.15Z"/>
  <path class="cls-2" d="M277.36,140.92c-.06,.63-.15,1.27-.19,1.9q-.3,5.52-6.28,6.84c.73-4.54,2.56-8.33,5.71-11.42,.64-.63,.67,.39,.87,.76-.04,.64-.07,1.28-.11,1.91Z"/>
  <path class="cls-13" d="M202.56,79.35c1.34-.34,2.67-.68,4.01-1.02,.51,.24,1.01,.48,1.52,.72-.67,.43-1.64,.84-.85,1.83,1.19,1.5,2.1-.29,3.17-.42l.24,1.26c-4.75,2.88-6.58,7.82-8.67,12.58-.59,1.34-1,2.76-1.5,4.14-.4,0-.8,0-1.2,0,.09-.44,.19-.88,.28-1.32,.09-.22,.19-.43,.28-.65,.69-1.7-.95-2.51-1.41-3.78,.5-.03,1-.05,1.49-.08,.56,.1,1.02,.02,1.3-.57,1.37-2.97,2.89-5.83,4.69-8.59,1.1-1.68,.05-3.23-2.29-3.06-.35-.35-.7-.7-1.05-1.05Z"/>
  <path class="cls-9" d="M253.28,54.72c-4.29,2.32-9.1,2.99-13.68,4.38-2.79,.85-5.54,2.09-8.54,2.17,.02-.53,.03-1.05,.05-1.58,3.16,.41,5.89-1.27,8.83-1.91,.59-.13,.6-.78,.55-1.33,.44-.49,.97-.43,1.51-.25-.13,1.46,.69,.79,1.36,.66,3.33-.62,6.36-2.65,9.92-2.14Z"/>
  <path class="cls-9" d="M216.33,65.67c-5.72,1.6-11.44,3.2-17.16,4.8,.21-.56,.42-1.12,.62-1.69,5.4-1.39,10.79-2.77,16.18-4.16,.12,.35,.23,.7,.35,1.04Z"/>
  <path class="cls-5" d="M253.28,54.72c-3.56-.51-6.59,1.52-9.92,2.14-.67,.13-1.49,.8-1.36-.66,4.84-1.46,9.68-2.93,14.53-4.35,.73-.21,2.12-.9,1.2,1.02-1.61,.34-3.4,.24-4.5,1.86h.05Z"/>
  <path class="cls-5" d="M215.98,64.63c-5.39,1.39-10.79,2.77-16.18,4.16-.04-.14-.04-.28,0-.42,3.81-2.08,8.22-2.35,12.13-4.12,1.08-.26,2.14-.56,3.23-.77,.98-.19,1.41,.14,.83,1.15Z"/>
  <path class="cls-15" d="M226.5,142.2c.03-9.01,.07-18.02,.11-27.03,.16,0,.32,.02,.47,.02,.01,8.11,.04,16.21,.03,24.32,0,.93,.25,1.95-.61,2.69Z"/>
  <path class="cls-15" d="M251.53,180.24c-1.64-1.84-4.4-1.7-6.05-3.52,.06-.4,.12-.79,.18-1.19,3.49,1.29,6.98,2.58,10.47,3.87-1.57,.06-3.15,.09-4.59,.84Z"/>
  <path class="cls-15" d="M215.03,115.19c1.23,3.37,.67,6.86,.66,10.31-.42,0-.83-.01-1.25-.02-.2-2.15-.4-4.3-.59-6.45,1.1-.06,1.37-.69,1.04-1.64-.27-.77-.67-1.52,.15-2.2Z"/>
  <path class="cls-5" d="M240.49,56.45c.06,.55,.05,1.2-.55,1.33-2.94,.64-5.67,2.32-8.83,1.91,2.79-2.07,6.36-1.84,9.37-3.25Z"/>
  <path class="cls-5" d="M280.54,45.64c-.25,1.73-1.74,1.04-2.69,1.43-1.42,.58-3.07,.52-4.31,1.59-2.27-.43-1.01-1.1-.02-1.38,2.31-.65,4.68-1.11,7.02-1.64Z"/>
  <path class="cls-15" d="M229.09,182.86c3.78,.05,7.56,.1,11.34,.15-3.79,.58-7.57,.86-11.34-.15Z"/>
  <path class="cls-15" d="M275.49,92.66c0,1.72-.02,3.43-.02,5.15-.42,0-.84,0-1.26,.01-.43-1.94-.27-3.87,.04-5.81,.41,.22,.83,.43,1.24,.65Z"/>
  <path class="cls-9" d="M253.23,54.73c1.1-1.62,2.89-1.52,4.5-1.86,.25,.55,1.13,.54,1.11,1.31-1.95-.69-3.67,1.16-5.61,.55Z"/>
  <path class="cls-5" d="M286.26,44.35c-.8,.83-1.61,1.12-2.47,.08,.82-.03,1.65-.05,2.47-.08Z"/>
  <path class="cls-5" d="M283.08,44.89c-.56,1.31-1.64,.81-2.59,.78,.66-.95,1.77-.38,2.59-.78Z"/>
  <path class="cls-15" d="M277.36,140.92l.11-1.91c.66,.68,.65,1.32-.11,1.91Z"/>
  <path class="cls-15" d="M278.4,151.24c.09,.21,.05,.4-.1,.57-.03-.14-.08-.28-.08-.42,0-.05,.11-.1,.17-.15Z"/>
  <path class="cls-15" d="M249.96,180.78c.19-.03,.38-.06,.56-.09,0,0-.27,.11-.27,.11,0,0-.29-.01-.29-.01Z"/>
  <path class="cls-11" d="M301.51,138.37l.23-.47c.21,.34,.21,.54-.27,.43,0,0,.04,.04,.04,.04Z"/>
  <path class="cls-15" d="M227.3,106.48c.07,.31,.14,.61,.22,.92-.07-.31-.14-.61-.22-.92Z"/>
  <path class="cls-7" d="M155.19,102.93c-.26-1.29-.52-2.58-.78-3.87,.1-.19,.1-.39,0-.58,.15-2.02-.41-3.93-.84-5.86-.31-3.29-.48-6.59-.95-9.85-1.62-11.15,5.95-17.35,15.28-17.91,3.94-.24,6.75,1.97,9.13,4.88,.96,1.61,1.36,2.79-1.21,3.31-2.57,.52-4.99,1.53-7.7,1.67-4.53,.24-6.29,2.95-5.5,8.1,.89,5.81,1.83,11.62,2.93,17.4,.54,2.84,.12,5.81,1.25,8.55,.12,7.18,1.76,14.2,2.18,21.34,.52,8.74,1.34,17.49,.58,26.26-.14,1.58-.17,3.48-2.38,3.51-2.21,.03-3.13-1.62-3.43-3.53-.94-5.9-1.78-11.82-2.64-17.73-.32-2.22-.61-4.44-.91-6.65,.09-.87,.01-1.63-1.07-1.77-.56-4.59-.96-9.21-2.03-13.73-.02-.41-.03-.82-.05-1.22-.08-.48-.16-.96-.23-1.44,.03-.07,.09-.15,.07-.2-.06-.13-.15-.24-.23-.35-.49-3.43-.97-6.86-1.46-10.3Z"/>
  <path class="cls-7" d="M175.31,88.38c1.31-.13,2.88-1.25,2.98,1.54,.78,22.64,2.07,45.26,1.89,67.93-.02,1.95-.69,3.26-2.38,4.13-1.52,.78-2.35-.2-3.2-1.18-2.35-5.03-2.92-10.44-3.2-15.88-.69-13.22-1.01-26.46-.96-39.71,0-2.21-.75-4.44,.14-6.63,0-1.38,0-2.75,0-4.12-.14-1.27-.72-2.54-.08-3.83,.68-.06,1.01-.58,1.33-1.09,1.16-.39,2.31-.77,3.47-1.16Z"/>
  <path class="cls-10" d="M177.06,164.14c2.48-.02,4.67-1.21,6.96-1.92,3.92-1.22,7.74-1.5,11.78-.56,3,.7,3.76,4.43,6.94,4.86-4.07,1.74-8.1,3.56-12.2,5.2-4.08,1.62-8.23,3.06-13.01,4.82,3.94,1.01,5.31,4.33,8.02,6.06,1.17,.75,.17,1.22-.76,1.55-4.8,1.69-9.68,1.98-14.65,1.1-.24-.05-.47-.09-.71-.14-.45-.09-.9-.18-1.35-.27-4.7-2.09-9.7-3.61-13.63-7.18-.69-.63-2.51-1.19-1.6-2.21,.88-.98,2.49-1.85,4.25-.7,6.96,4.54,11.79,5.22,20.2,2.98-1.38-1.34-2.9-.91-4.36-.74-4.38,.51-8.63,.35-12.54-2.09-.7-.43-1.91-.48-1.94-1.4-.03-1.07,1.23-.83,1.93-1.18,5.56-2.72,11.11-5.45,16.66-8.18Z"/>
  <path class="cls-7" d="M133.74,111.77c.15-.14,.4-.26,.43-.43,.8-4.89,1.94-5.94,7.06-6.51,1.73,6.36,3.39,12.74,5.21,19.08,2.15,7.48,4.56,14.87,8.69,21.53,.39,.62,.92,1.21,.57,2.05-1.02,2.43-1.36,5.05-1.89,8.19-3.9-3.2-6.11-7.02-8.16-10.93-4.67-8.89-7.98-18.33-10.62-28.01-.45-1.64-2.21-2.98-1.29-4.98Z"/>
  <path class="cls-10" d="M140.3,164.66c-8.74,5.26-17.27,10.84-27.75,11.77-5,.44-9.61-.66-13.72-3.74,10.03-10.16,34.62-15,41.47-8.03Z"/>
  <path class="cls-10" d="M108.83,164.46c-9.42,5.62-18.42,10.98-29.12,12.15-4.17,.45-8.15-.13-12.04-3.31,8.58-3.73,15.11-10.51,24.29-12.11,5.85-1.02,11.32-.39,16.87,3.27Z"/>
  <path class="cls-10" d="M130.73,172.58c8.61-6.58,18.21-9.83,28.33-11.64,4.02-.72,7.93,.25,11.51,2.25,.78,.44,2.26,1.14,.26,2.14-8.98,4.47-17.84,9.29-28.02,10.38-4.28,.46-8.38-.21-12.09-3.13Z"/>
  <path class="cls-10" d="M84.24,185.53c-6.69-.08-14.13-1.55-20.3-6.98-.75-.66-2.3-1.6-1.61-2.38,.93-1.05,2.77-2.45,4.18-1.42,7.81,5.72,15.83,3.51,23.9,1.02,1.06-.33,1.78-.18,2.45,.76,1.55,2.21,3.59,3.89,5.84,5.33,.51,.32,1.29,.6,1.14,1.36-.15,.78-.96,.64-1.56,.77-4.24,.91-8.52,1.52-14.04,1.54Z"/>
  <path class="cls-10" d="M121.68,184.56c-3.81,.13-7.63,.39-11.43-.18-5.66-.92-10.77-3.03-14.8-7.32-.65-.69-2.06-1.38-1.22-2.57,.79-1.12,2.19-1.39,3.4-.54,7.23,5.11,14.95,5.26,22.99,2.49,.95-.33,1.79-.3,2.65,.4,2.33,1.91,4.72,3.74,7.23,5.72-2.98,1.46-6.01,1.23-8.82,2.01Z"/>
  <path class="cls-10" d="M158.14,182.63c-12.41,3.67-28.61,.6-32.99-7.37,1.99-1.73,3.84-1.85,6.21-.3,4.71,3.09,10.05,3.06,15.3,1.85,2.42-.55,4.17-.39,5.97,1.46,1.58,1.63,3.56,2.85,5.51,4.36Z"/>
  <path class="cls-6" d="M152.35,160.33c-3.05,1.04-5.81,1.99-8.57,2.93-.72,.25-1.42,.41-2.08-.18-1.96-1.77-4.34-2.58-6.85-3.1-.67-.14-1.2-.49-1.48-1.09-.33-.7,.38-.88,.73-1.13,4.2-2.97,14.7-1.62,18.26,2.57Z"/>
  <path class="cls-6" d="M155.35,157.23c.54-3.42,.92-6.95,2.32-10.22,.37-.87,.92-2.03,1.87-1.93,1,.1,1.18,1.33,1.31,2.31,.45,3.28,.9,6.56,1.39,9.83,.13,.89,.39,1.75-.92,1.88-1.58,.16-3.15,.39-4.73,.48-1.9,.11-1.02-1.4-1.24-2.34Z"/>
  <path class="cls-10" d="M82.92,158.73c1.36,.48,2.86,.61,3.94,1.45-5.18,6-10.42,1.77-16.26,.21,3.94-2.27,7.69-2.1,11.44-1.98,.29,.11,.58,.22,.87,.32Z"/>
  <path class="cls-10" d="M101.29,159.27c5.7-2.29,10.55-1.7,15.95,1.86-3.24,.35-5.11,3.34-8.03,1.55-2.34-1.43-4.87-2.38-7.92-3.41Z"/>
  <path class="cls-15" d="M154.72,110.07c-.19-1.52-.39-3.03-.58-4.55,.2,0,.4,.03,.59,.06,0,1.5,0,2.99-.01,4.49Z"/>
  <path class="cls-11" d="M170.58,94.46c0,1.37,0,2.75,0,4.12-.42-1.37-.52-2.75,0-4.12Z"/>
  <path class="cls-15" d="M159.11,130.17c1.09,.14,1.16,.9,1.07,1.77-1.09-.13-1.01-1-1.07-1.77Z"/>
  <path class="cls-15" d="M158.47,134.69c-.14-.7-.29-1.41-.43-2.11,.66,.6,.52,1.36,.43,2.11Z"/>
  <path class="cls-15" d="M155.98,117.81c-.36-.6-.56-1.24-.43-1.95,.59,.55,.48,1.25,.43,1.95Z"/>
  <path class="cls-15" d="M157.04,115.22c.02,.41,.03,.82,.05,1.22-.48-.39-.49-.8-.05-1.22Z"/>
  <path class="cls-15" d="M82.92,158.73c-.29-.11-.58-.22-.87-.32,.29,.11,.58,.22,.87,.32Z"/>
  <path class="cls-3" d="M142.86,103.6c.13,.22,.26,.44,.39,.66-.13-.22-.26-.44-.39-.66Z"/>
  <path class="cls-15" d="M157.17,126.38c-.06-.18-.13-.35-.16-.53-.01-.08,.06-.18,.09-.27,.02,.27,.05,.53,.07,.8Z"/>
  <path class="cls-15" d="M156.65,113.23c.08,.12,.17,.23,.23,.35,.02,.05-.04,.13-.07,.2-.11-.17-.17-.35-.16-.55Z"/>
  <path class="cls-15" d="M155.3,113.39c-.06-.15-.13-.29-.16-.44-.01-.06,.07-.14,.11-.21,.02,.22,.03,.43,.05,.65Z"/>
  <path class="cls-7" d="M183.65,62.71c.23-.17,.45-.33,.68-.5,.51-.2,1.02-.41,1.53-.61,.31-.09,.61-.18,.92-.26,2.51,.05,5.17-.63,7.29,1.44-.13,1.83-.86,3.33-2.5,4.19-1.63,.85-2.23,2.27-2.49,3.96,.14,.23,.1,.41-.13,.55-.18,.44-.35,.88-.53,1.33,.16,1.25,.31,2.49,.47,3.74-.12,.23-.25,.45-.38,.68-.51,2.26-.28,4.55-.21,6.83,.03,.82,.1,1.82,1.41,1.18,.06,.06,.19,.14,.18,.19-.03,.16-.12,.31-.18,.47-1.07-.57-1.34,.16-1.35,.97-.09,6.89-.11,13.77,1.1,20.59h0c-.56,.62-.43,1.39-.41,2.12,.2,7.14,.42,14.28,.64,21.42,.66,.39,.66,.78,0,1.17,0,1.97,0,3.94,0,5.91l.13,.06c-.92,4.31-1.43,8.78-4.4,12.54-2.23-2.83-3.53-5.58-3.61-9.3-.43-19.04-1.21-38.06-1.86-57.09,0-.22-.01-.44-.02-.65,.08-4.07,.16-8.14,.24-12.21,.07-.05,.18-.1,.19-.15,0-.15-.03-.3-.05-.44,.63-2.92,1.32-5.81,3.37-8.13Z"/>
  <path class="cls-5" d="M175.79,81.4c-2.71,2.21-5.9,3.63-8.81,5.51-1.64,1.06-2.45,.51-2.29-1.24,.18-1.97-2.12-4.35,.83-5.9,2.7-.61,5.53-.8,7.9-2.51,0,0,.25,0,.25,0,.68,.02,1.35,.03,2.03,.05,.03,1.37,.06,2.74,.09,4.11Z"/>
  <path class="cls-6" d="M190.19,159.57c-1.19-.22-3.01,.85-3.67-.4-.59-1.11,.66-2.55,1.36-3.73,.33-.55,.64-1.13,1.07-1.58,1.29-1.36,2.54-3.53,4.39-3.21,1.59,.28,.67,2.78,1.28,4.19,.68,1.58,2.15,3.98,1.61,4.67-1.08,1.38-3.24-.53-5,0-.29,.09-.63,.04-1.04,.07Z"/>
  <path class="cls-6" d="M217.6,161.82c-2.63,.84-2.71-.34-2.28-1.8,.56-1.89,1.49-3.69,1.18-5.77-.06-.42-.03-.86,.54-.93,.57-.07,1.03,.15,1.34,.64,1.26,1.97,2.61,4.07,2.53,6.4-.08,2.55-2.69,.8-3.31,1.46Z"/>
  <path class="cls-6" d="M181.66,149.55c1.88,2.6,3.4,5.19,3.28,8.39-.06,1.66-.99,2.81-2.49,2.68-1.57-.14-.71-1.72-.75-2.62-.11-2.81-.04-5.63-.04-8.45Z"/>
  <path class="cls-5" d="M173.67,77.25s-.25,0-.25,0c-2.92-.62-5.39,.68-7.89,1.88-.69-.11-1.95-.63-.8-1.09,4.28-1.73,8.71-3.15,13.38-3.44,.02,0,.05,.39,.08,.6-1.53,.64-3.43,.43-4.52,2.05Z"/>
  <path class="cls-9" d="M165.53,79.14c2.5-1.2,4.97-2.5,7.89-1.88-2.37,1.7-5.2,1.89-7.9,2.51,0-.21,0-.42,0-.63Z"/>
  <path class="cls-5" d="M175.79,81.4c-.03-1.37-.06-2.74-.09-4.11,.72-.7,1.59-.83,2.53-.73,.35,2.22,.1,4.12-2.45,4.84Z"/>
  <path class="cls-14" d="M216.98,139.02c1.01,3.59,.31,7.28,.67,10.91-1.43-3.56-.34-7.28-.67-10.91Z"/>
  <path class="cls-15" d="M178.24,76.56c-.94-.1-1.82,.03-2.53,.73-.68-.02-1.35-.03-2.03-.05,1.1-1.62,3-1.41,4.52-2.05,.01,.45,.03,.91,.04,1.36Z"/>
  <path class="cls-15" d="M171.83,89.54c.53-1.12,1.49-1.67,2.61-2,.29,.28,.58,.56,.86,.83-1.16,.39-2.31,.77-3.47,1.16Z"/>
  <path class="cls-13" d="M193.54,140.94c-.02-.65-.04-1.3-.06-1.95l1.29-.65c-.01,.86-.03,1.72-.04,2.59-.4,0-.8,0-1.19,0Z"/>
  <path class="cls-14" d="M215.64,139.8c-.5-1.29-.5-2.63-.3-3.97,.74,1.27,.34,2.64,.3,3.97Z"/>
  <path class="cls-15" d="M190.19,143.5c.11,.57,.02,1.07-.41,1.49-.14-.57-.11-1.1,.41-1.49Z"/>
  <path class="cls-14" d="M169.43,185.11c.24,.05,.47,.09,.71,.14-.24-.05-.47-.09-.71-.14Z"/>
  <path class="cls-15" d="M179.91,83.64c0,.22,.01,.44,.02,.65-.06-.15-.15-.3-.18-.46-.01-.05,.11-.13,.17-.2Z"/>
  <path class="cls-15" d="M180.28,70.84c.02,.15,.06,.3,.05,.44,0,.05-.12,.1-.19,.15-.05-.22,0-.42,.13-.59Z"/>
  <path class="cls-14" d="M222.1,158.88c.24,.19,.56,.34,.34,.74-.11-.25-.23-.49-.34-.74Z"/>
  <path class="cls-15" d="M227.91,115.64c.1,.17,.21,.34,.28,.53,.03,.07-.05,.19-.09,.28-.06-.27-.13-.54-.19-.81Z"/>
  <path class="cls-14" d="M234.73,113.23c.06-.21,.11-.41,.17-.62,.04,.17,.09,.33,.1,.5,0,.04-.17,.08-.27,.12Z"/>
  <path class="cls-14" d="M217.6,163.82c-.2,.03-.41,.07-.61,.1,.16-.3,.35-.38,.61-.1Z"/>
  <path class="cls-14" d="M236.29,112.02c-.06,.23-.13,.45-.19,.68,.06-.23,.13-.45,.19-.68Z"/>
  <path class="cls-15" d="M357.4,35.98c-.59,.85-1.43,.65-2.24,.57,.68-.48,1.44-.62,2.24-.57Z"/>
  <path class="cls-15" d="M348.41,38.41c-.15,.13-.32,.19-.52,.18,.17-.06,.35-.12,.52-.18Z"/>
  <path class="cls-7" d="M111.6,107.39c-1.68-.27-3.28-1.46-4.68-2.93-.9-.95,.08-1.29,.72-1.56,2.88-1.24,4.09-3.78,5.28-6.47,1.51-3.41,3.29-6.69,5.02-9.99,2.42-4.62,6.45-6.88,11.36-7.77,1.73-.31,3.38,0,4.81,1.1,1.26,.97,2.88,2.06,2.69,3.67-.13,1.15-2.05,1.09-3.19,1.52-5.41,2.04-7.42,6.63-8.66,11.79-1.26,5.24-7.82,10.66-13.35,10.65Z"/>
  <path class="cls-5" d="M151.48,88.2c-.86,1.04-.34,2.27-.44,3.41-.09,1.06,.05,2.24-1.47,2.39-2.14,.04-4.2,.4-6.17,1.27-4.98,.78-9.98,1.51-14.94,2.39-1.56,.28-2.01-.2-1.53-1.59,.94-2.73,1.14-6.07,4.93-6.66,5.83-1.6,11.67-3.2,17.5-4.81,.55,.09,1.11,.17,1.66,.26,.16,1.11,.31,2.23,.47,3.34Z"/>
  <path class="cls-5" d="M110.38,95.57c1.26,2.49-.86,3.55-2.12,4.87-.53,.56-1.5,.81-2.31,.96-2.89,.52-2.56,1.96-1.15,3.78q2.98,3.85-1.87,4.58c-3.84,.57-7.58,.25-11.17-1.33-2.92-1.29-3.34-2.93-1.32-5.45,1.69-2.1,3.86-3.61,6.3-4.73,.71,.12,1.43,.24,2.14,.36-2.06,1.1-4.04,2.3-5.4,4.29-.92,1.35-1.01,2.7,.59,3.48,1.82,.89,3.78,1.45,6.08,.82-.72-1.27-1.79-.91-2.62-1.15-1.17-.33-2.9-.08-3.18-1.55-.27-1.39,1.29-2.08,2.27-2.79,4.16-3.02,8.9-4.75,13.77-6.14Z"/>
  <path class="cls-9" d="M110.38,95.57c-4.87,1.39-9.61,3.12-13.77,6.14-.98,.71-2.54,1.4-2.27,2.79,.28,1.47,2.01,1.22,3.18,1.55,.83,.24,1.9-.12,2.62,1.15-2.3,.63-4.25,.07-6.08-.82-1.6-.79-1.52-2.13-.59-3.48,1.36-2,3.34-3.19,5.4-4.29,2.97-1.18,5.93-2.38,8.92-3.52,.88-.34,1.96-1.17,2.51,.49l.09-.02Z"/>
  <path class="cls-9" d="M149.35,84.6c-5.83,1.6-11.67,3.2-17.5,4.81-.11-.67-1.36-1.53,.31-1.91,1.03,.08,2.16,.56,2.88-.68,0,0-.03,.01-.03,.01,5.48-.35,10.47-2.69,15.7-4.05,.07,.49,.15,.98,.22,1.47-.53,.12-1.06,.23-1.59,.35Z"/>
  <path class="cls-5" d="M110.29,95.59c-.54-1.66-1.62-.83-2.51-.49-2.98,1.14-5.95,2.34-8.92,3.52-.71-.12-1.43-.24-2.14-.36,4.73-3.12,10.28-3.8,16.11-5.89-.79,1.76-.4,3.45-2.55,3.23Z"/>
  <path class="cls-5" d="M150.71,82.79c-5.23,1.35-10.22,3.69-15.7,4.05,4.72-2.65,10.08-3.32,15.12-4.97,.44-.14,.58,.48,.58,.92Z"/>
  <path class="cls-9" d="M143.39,95.28c1.97-.87,4.04-1.24,6.17-1.27-1.45,.6-2.66,1.76-4.28,1.98-.38-.93-1.22-.57-1.89-.71Z"/>
  <path class="cls-5" d="M135.03,86.83c-.73,1.24-1.85,.76-2.88,.68,.82-.83,1.82-.89,2.88-.68Z"/>
  <path class="cls-8" d="M117.9,108.07c-.37,1.07-.92,1.61-1.95,.65,.34-1.17,1.04-1.25,1.95-.65Z"/>
  <path class="cls-11" d="M149.35,84.6c.53-.12,1.06-.23,1.59-.35,.16,.18,.18,.39,.07,.6-.55-.09-1.11-.17-1.66-.26Z"/>
  <path class="cls-3" d="M188.41,72.81c.18-.44,.35-.88,.53-1.33,.03,.52,.01,1.03-.53,1.33Z"/>
  <path class="cls-14" d="M188.51,77.23c.13-.23,.25-.45,.38-.68,0,0-.12,0-.12,0,.2,.23,.41,.46,.61,.68-.29,0-.58,0-.87,0Z"/>
  <polygon class="cls-14" points="325.62 32.12 325.57 32.21 325.64 32.15 325.62 32.12"/>
  <path class="cls-15" d="M154.06,104.94c-.34-.38-.43-.82-.24-1.3,.36,.38,.38,.83,.24,1.3Z"/>
  <path class="cls-14" d="M154.4,98.48c.11,.19,.11,.38,0,.58-.05-.13-.12-.26-.14-.4,0-.05,.09-.12,.14-.18Z"/>
  <path class="cls-15" d="M186.77,61.34c-.31,.09-.61,.18-.92,.26,.31-.09,.61-.18,.92-.26Z"/>
  <path class="cls-14" d="M194.78,138.35l-1.29,.65c-.41-13.86,2.06-27.3,5.79-40.55,.4,0,.8,0,1.2,0-1.59,8.39-2.3,16.98-4.19,25.23-1.14,4.98-.67,9.83-1.51,14.67Z"/>
  <path class="cls-13" d="M188.51,77.23c.29,0,.58,0,.87,0q.63,5.15,5.97,3.88c.4-.09,.83-.06,1.25-.08,.21-.07,.43-.14,.64-.2,1.78-.5,3.55-.99,5.33-1.49,.35,.35,.7,.7,1.05,1.05-2.5,.73-4.97,1.67-7.52,2.14-2.1,.39-2.01,1.39-1.38,2.88-.42,.06-.84,.11-1.26,.17-.22-.28-.45-.56-.67-.84,0,0,.14-.01,.14-.01l-.17-.07c-1.33-1.51-2.24-.76-3.04,.59-1.31,.64-1.39-.36-1.41-1.18-.07-2.28-.3-4.57,.21-6.83Z"/>
  <path class="cls-14" d="M197.23,80.83c-.21,.07-.43,.14-.64,.2,.21-.07,.43-.14,.64-.2Z"/>
  <path class="cls-7" d="M194.71,85.41c-.63-1.49-.71-2.49,1.38-2.88,2.55-.47,5.02-1.41,7.52-2.14,2.34-.17,3.39,1.37,2.3,3.06-1.8,2.76-3.32,5.62-4.69,8.59-.27,.59-.74,.67-1.3,.57-1.44-2.62-3.29-4.94-5.21-7.2Z"/>
  <path class="cls-14" d="M194.71,85.41c1.92,2.26,3.77,4.58,5.21,7.2-.5,.03-1,.05-1.49,.08-2.03-2.11-4.36-4-4.97-7.12,.42-.06,.84-.11,1.26-.17Z"/>
  <path class="cls-14" d="M199.55,97.12c.09-.22,.19-.43,.28-.65-.09,.22-.19,.43-.28,.65Z"/>
  <path class="cls-13" d="M190.36,110.03c.67,6.47,.56,12.97,.61,19.46,0,.7,.5,2.22-1.29,1.51-.21-7.14-.43-14.28-.64-21.42-.02-.73-.15-1.51,.41-2.13,.24,.88-.01,1.94,.9,2.58Z"/>
  <path class="cls-13" d="M189.71,85.9c.01,1.13,.02,2.26,.03,3.39-.03,4.34-.6,8.7,.42,13.01,.02,.64,.03,1.28,.05,1.92-.17,.21-.34,.43-.52,.64-.08,.86-.16,1.73-.23,2.59-1.21-6.82-1.19-13.7-1.1-20.59,.01-.81,.28-1.53,1.35-.97Z"/>
  <path class="cls-13" d="M189.68,132.18c.47-.35,1.16-.42,1.2,.17,.13,1.86,.14,3.75,0,5.61-.04,.56-.76,.48-1.22,.13,0-1.97,0-3.94,0-5.91Z"/>
  <path class="cls-14" d="M189.46,107.46c.08-.86,.16-1.73,.23-2.59,.19,0,.38,.01,.57,.02,.03,1.72,.06,3.43,.1,5.15-.91-.64-.66-1.7-.9-2.58,0,0,0,0,0,0Z"/>
  <path class="cls-15" d="M190.16,102.31c-1.01-4.31-.45-8.67-.42-13.01,.56,4.32,.55,8.67,.42,13.01Z"/>
  <polygon class="cls-12" points="192.75 84.66 192.92 84.72 192.78 84.74 192.75 84.66"/>
  <path class="cls-15" d="M190.26,104.89c-.19,0-.38,0-.57-.02,.17-.21,.34-.43,.52-.64,.02,.22,.04,.44,.05,.66Z"/>
</svg>