<svg width="24" height="24" viewBox="0 0 24 24" fill="none" xmlns="http://www.w3.org/2000/svg">
<g clip-path="url(#clip0_38_1139)">
<path d="M12.1788 6.8293C15.1107 6.8293 17.4968 9.2043 17.4968 12.1236C17.4968 15.0429 15.1107 17.4179 12.1788 17.4179C9.24523 17.4179 6.85916 15.0429 6.85916 12.1236C6.85916 9.2043 9.24523 6.8293 12.1788 6.8293ZM12.1788 3.14734C7.19777 3.14734 3.15979 7.16633 3.15979 12.1236C3.15979 17.0825 7.19777 21.1015 12.1788 21.1015C17.1582 21.1015 21.1962 17.0825 21.1962 12.1236C21.1962 7.16633 17.1582 3.14734 12.1788 3.14734Z" fill="#B6B6B6"/>
<path d="M13.9129 4.3862C13.9129 5.04917 13.375 5.58398 12.7104 5.58398H11.3576C10.693 5.58398 10.155 5.04917 10.155 4.3862V1.19949C10.155 0.538097 10.693 0.00012207 11.3576 0.00012207H12.7104C13.375 0.00012207 13.9129 0.538097 13.9129 1.19949V4.3862Z" fill="#B6B6B6"/>
<path d="M13.9129 23.0492C13.9129 23.7106 13.375 24.247 12.7104 24.247H11.3576C10.693 24.247 10.155 23.7121 10.155 23.0492V19.8625C10.155 19.1995 10.693 18.6663 11.3576 18.6663H12.7104C13.375 18.6663 13.9129 19.1995 13.9129 19.8625V23.0492Z" fill="#B6B6B6"/>
<path d="M7.86708 5.26437C8.33544 5.73114 8.33544 6.48905 7.86708 6.95582L6.90981 7.90677C6.43987 8.37513 5.67879 8.37513 5.20886 7.90677L2.94462 5.65361C2.47468 5.18525 2.47468 4.42892 2.94462 3.96215L3.90031 3.00804C4.37025 2.54127 5.13132 2.54127 5.60126 3.00804L7.86708 5.26437Z" fill="#B6B6B6"/>
<path d="M21.1234 18.4606C21.595 18.929 21.5934 19.6853 21.1234 20.1505L20.1662 21.1046C19.6962 21.573 18.9367 21.573 18.4668 21.1046L16.2026 18.8514C15.7326 18.3815 15.7326 17.6252 16.2026 17.1568L17.1598 16.2059C17.6282 15.7375 18.3877 15.7375 18.8576 16.2059L21.1234 18.4606Z" fill="#B6B6B6"/>
<path d="M5.35286 16.2042C5.82437 15.7374 6.58545 15.7374 7.0538 16.2042L8.01108 17.1567C8.48102 17.6251 8.48102 18.3798 8.01108 18.8514L5.74526 21.1029C5.27532 21.5713 4.51583 21.5713 4.04589 21.1029L3.08861 20.1504C2.62026 19.6836 2.61868 18.9273 3.08861 18.459L5.35286 16.2042Z" fill="#B6B6B6"/>
<path d="M18.6108 3.00802C19.0807 2.53967 19.8402 2.54125 20.3101 3.00802L21.2674 3.96055C21.7373 4.42891 21.7373 5.18524 21.2674 5.65359L19.0032 7.90676C18.5316 8.37511 17.7721 8.37511 17.3022 7.90676L16.3465 6.95581C15.8766 6.48903 15.875 5.73112 16.3465 5.26277L18.6108 3.00802Z" fill="#B6B6B6"/>
<mask id="mask0_38_1139" style="mask-type:luminance" maskUnits="userSpaceOnUse" x="18" y="10" width="6" height="5">
<path d="M18.0237 10.0983H24V14.1489H18.0237V10.0983Z" fill="white"/>
</mask>
<g mask="url(#mask0_38_1139)">
<path d="M19.5949 13.9938C18.9304 13.9938 18.3924 13.4574 18.3924 12.796V11.4495C18.3924 10.7897 18.9288 10.2533 19.5949 10.2533H22.7975C23.462 10.2533 24 10.7897 24 11.4495V12.7976C24 13.4574 23.462 13.9954 22.7975 13.9954L19.5949 13.9938Z" fill="#B6B6B6"/>
</g>
<mask id="mask1_38_1139" style="mask-type:luminance" maskUnits="userSpaceOnUse" x="0" y="10" width="6" height="5">
<path d="M0 10.0983H5.87184V14.1489H0V10.0983Z" fill="white"/>
</mask>
<g mask="url(#mask1_38_1139)">
<path d="M1.20253 13.9938C0.537975 13.9938 0 13.4574 0 12.796V11.4495C0 10.7897 0.537975 10.2533 1.20253 10.2533H4.40665C5.0712 10.2533 5.6076 10.7897 5.6076 11.4495V12.7976C5.6076 13.4574 5.0712 13.9954 4.40665 13.9954L1.20253 13.9938Z" fill="#B6B6B6"/>
</g>
</g>
<defs>
<clipPath id="clip0_38_1139">
<rect width="24" height="24" fill="white"/>
</clipPath>
</defs>
</svg>
