<?xml version="1.0" encoding="UTF-8"?>
<svg id="Layer_1" data-name="Layer 1" xmlns="http://www.w3.org/2000/svg" viewBox="0 0 414 200">
  <defs>
    <style>
      .cls-1 {
        fill: #00bff3;
      }

      .cls-2 {
        fill: #eae7dd;
      }

      .cls-3 {
        fill: #fff9b8;
      }

      .cls-4 {
        fill: #fbb040;
      }

      .cls-5 {
        fill: #b6c0c4;
      }

      .cls-6 {
        fill: #baac96;
      }

      .cls-7 {
        fill: #99d0f1;
      }

      .cls-8 {
        fill: #494340;
      }

      .cls-9 {
        fill: #7b7576;
      }
    </style>
  </defs>
  <path class="cls-8" d="M263.08,77.18c.06-.94,.31-1.81,.84-2.6,.42-.16,.51-.49,.45-.89,.32-.52,.44-1.16,.96-1.55,.78-.32,1.29-.86,1.41-1.72,3.39-4.06,10.28-5.84,14.61-3.99,.18,.08,.38,.1,.58,.15,.28,.48,.69,.75,1.26,.75,.14,.13,.29,.25,.43,.38,.56,1.2,.49,1.34-.78,1.57-.97-1.22-2.29-1.81-3.78-1.98-3.95-.45-7.45,.48-10.38,3.33-3.29,3.21-4.82,7.12-4.69,11.64,.06,1.97,.45,3.94,1.06,5.87,1.3,4.09,3.64,7,8.05,7.88,1.66,.33,1.87,.27,1.93-1.43,.06-1.74-.33-3.44-.47-5.16-.23-2.73-.76-5.4-1.33-8.06-.76-3.5,1.14-6.19,4.8-6.47-.35,.83-1.12,1.28-1.8,1.72-1.33,.87-2,2-1.85,3.59-.08,.07-.08,.14,0,.2-.06,.65,.18,1.21,.52,1.73,.27,1.17,.75,2.29,.75,3.51,0,.98,.55,1.1,1.33,.86,.25-.08,.5-.19,.75-.28,10.18-3.72,20.36-7.45,30.55-11.17,9.43-3.44,18.87-6.87,28.3-10.3,.09,.13,.2,.17,.35,.12,.07,.22,.2,.34,.45,.27-.03,.95-.79,1.16-1.47,1.4-11.45,4.17-22.91,8.33-34.36,12.5-4.01,1.46-8.01,2.93-12.03,4.35-1.27,.45-2.08,1.07-1.86,2.59,.18,1.24-.82,2.7-.02,3.69,.68,.84,2.11,1.04,3.12,1.66,2.99,1.85,6.03,3.65,7.86,6.85,.33,.58,.77,1.1,.82,1.8,.02,.77,.14,1.48,.98,1.8,.1,.07,.15,.16,.15,.29,.01,.7,.41,.95,1.06,.92,0,0,.04,.03,.04,.03,.21,.53,.56,.84,1.16,.77,.15,.14,.3,.28,.45,.42,1.05,.82,1.56,2.21,2.91,2.7,2.13,2.27,3.49,4.92,3.99,8,.14,1.39,.22,2.79,.75,4.11,.18,2,.22,4,.04,6-.94,1.2-.28,2.47-.03,3.63,.8,3.73,1.18,7.46,.51,11.25-.13,.72-.2,1.45,.05,2.17-.05,.34-.1,.68-.15,1.02-.37,.24-.44,.58-.28,.98-.04,.21-.09,.42-.13,.63-.57,.72-.87,1.52-.82,2.44-.09,.35-.19,.7-.28,1.06-.05,.16-.11,.33-.16,.49-.06,.12-.11,.23-.17,.35-.78,.3-.91,.99-1,1.7-.01,.13-.07,.25-.17,.34-.22,.06-.29,.22-.26,.43-.3,.39-.61,.79-.91,1.18-.23,.05-.34,.18-.29,.42-.12,.67-.24,1.34-.36,2.02-.58,.39-.5,.98-.46,1.56-.1,.42-.21,.83-.31,1.25-.73,.32-.96,.9-.83,1.65-.28,.52-.57,1.04-.85,1.55-.33,0-.47,.19-.48,.5-2.47,3.74-5.96,6.23-10,7.98-1.6,.69-2.96,1.47-4.1,2.94-2.65,3.43-6.33,5.52-10.5,6.56-4.81,1.2-9.7,1.88-14.68,1.42-1.13-.1-2.29-.19-3.36-.52-1.39-.43-2.63-.1-3.91,.3-9.16,2.85-18.45,3.51-27.9,1.77-1.31-.24-2.6-.62-3.87-1.02-.93-.3-1.81-.27-2.74,0-5.09,1.44-10.28,2.32-15.58,2.31-4.18,0-8.23-.77-12.13-2.23-1.01-.38-1.94-.37-2.92-.09-4.25,1.22-8.58,1.96-12.97,2.39-4.73,.46-9.34-.12-13.85-1.48-1.75-.53-3.38-.51-5.11-.15-5.3,1.12-10.64,1.87-16.08,1.85-4.47-.01-8.73-.97-12.89-2.49-1.54-1.51-3.08-.56-4.62,0l-.18-.02s-.13,.12-.13,.12c-.34-.12-.61-.03-.84,.24-.27-.07-.53-.04-.78,.11-.6-.06-1.18-.07-1.68,.35l-.19-.03s-.15,.11-.15,.11c-.93-.11-1.85,.08-2.76,.22-3.89,.61-7.78,.67-11.67-.04-.51-.09-1.05-.08-1.57-.11-.22-.17-.47-.22-.74-.18-.78-.52-1.6-.7-2.51-.41-.28-.09-.54-.04-.79,.11-.38-.12-.72-.08-.96,.28h-.15s-.09,.11-.09,.11c-1.82,.1-3.55,.66-5.3,1.11-.39-.09-.76-.03-1.1,.19-1.17-.19-2.41,.45-3.54-.26,.1-.15,.13-.31,.02-.47,.78-.4,1.6-.53,2.48-.61,2.29-.21,4.52-.72,6.85-1.46-.3-.55-.65-.77-1.08-.95-1.66-.68-3.14-1.7-4.67-2.63-.96-.58-1.73-1.47-2.85-1.77,0,0,0,0,0,0-.05-.46-.12-.92-.72-.99l-.11-.61c.13-1.12,1.04-1.5,1.88-1.84,3.76-1.49,7.55-2.93,11.32-4.38,.43-.17,.92-.25,1.08-.83-.47-.57-1.18-.79-1.84-1.07-3.01-1.28-6.18-1.52-9.39-1.45-.99,.02-2,.17-2.97-.16-.05-.76,.44-1,1.06-1.19,2.83-.86,5.61-1.87,8.52-2.43,.56,.08,1.11,.1,1.59-.28,.42,.08,.83,0,1.22-.14,2.39,.01,4.78,.02,7.18,.03,.27,.04,.54,.08,.81,.12,.21,.29,.5,.33,.82,.24,2.4,.6,4.76,1.28,6.9,2.57,.33,.2,.75,.43,1.1,.41,2.57-.19,5.18,.26,7.68-.89,2.31-1.07,4.84-1.45,7.38-1.64,4.65-.35,9.02,.7,13.13,2.85,1.07,.56,2.08,.64,3.26,.57,2.71-.16,5.16-.97,7.67-2.01,7.03-2.89,14.05-2.81,20.79,1.08,1.03,.59,2.02,.62,3.21,.55,2.3-.12,4.21-1.18,6.26-1.92,5.47-1.97,11.01-2.66,16.67-.87,.32,.1,.69,.28,.93-.02,.32-.43-.1-.69-.35-.97-7-7.79-13.29-16.14-19.39-24.64-2.83-3.95-5.61-7.92-8.32-11.95-.44-.65-.85-1.76-1.94-1.39-1.24,.42-2.86,.11-3.51,1.85-.91,2.45-2.74,4.04-5.15,5.01-1.34,.54-2.73,.55-4.14,.52-.58-.01-1.17-.3-1.73,.04-.04,.14-.14,.29-.1,.37,.88,1.81,.72,2.21-1.18,2.86-4.43,1.51-8.97,2.02-13.62,1.56-1.54-.15-3.02-.53-4.35-1.36-1.34-.83-1.75-1.92-1.29-3.38,.84-2.66,2.92-4.23,5.06-5.74,.81-.57,1.71-1.02,2.56-1.55,.93-.58,.98-.81,.21-1.43-7.71-6.24-13.61-14.04-18.98-22.27-3.5-5.36-6.62-10.96-9.46-16.69-3.91-7.88-7.44-15.94-10.63-24.14-2.12-5.46-4.16-10.95-6-16.51-.92-2.78-1.99-5.51-2.71-8.36,.08-.54,.03-1.03-.54-1.29-.12-.46-.24-.92-.36-1.38-.12-1.23-.02-2.54-1.15-3.44-.08-.38-.15-.76-.23-1.14,.22-.84-.05-1.51-.68-2.07-.77-2.11-1.52-4.23-2.02-6.43-.28-1.27-.31-1.26,1.21-1.28,1.9,5.26,3.36,10.67,5.08,15.99,1.47,4.54,3.01,9.06,4.57,13.57,1.37,3.94,2.92,7.82,4.39,11.72,.84,2.24,1.65,4.51,2.63,6.67,1.85,4.1,3.54,8.28,5.53,12.33,2.62,5.31,5.28,10.58,8.23,15.71,4.03,7,8.48,13.69,13.81,19.77,2.68,3.06,5.49,6,8.74,8.48,.48,.36,.87,.88,1.57,.6,2.33-.94,4.66-1.89,6.93-2.81,.01-.65-.37-.84-.69-1.07-6.69-4.82-11.96-10.99-16.66-17.67-4.25-6.04-7.88-12.46-11.26-19.01-3.05-5.9-5.8-11.94-8.39-18.04-2.36-5.56-4.46-11.23-6.52-16.9-2.59-7.13-5.03-14.32-7.22-21.59-.77-2.55-1.81-5.02-2.14-7.7,1.29-.46,1.67,.45,1.97,1.36,.56,1.71,1.03,3.45,1.58,5.17,1.28,4.06,2.55,8.13,3.9,12.17,1.47,4.42,2.96,8.83,4.55,13.2,1.27,3.49,2.68,6.94,4.1,10.37,1.55,3.74,3.17,7.46,4.81,11.16,1.83,4.13,3.83,8.18,5.91,12.2,2.64,5.08,5.55,10,8.71,14.78,.44,.66,.92,1.3,1.38,1.95,.02,.46,.21,.78,.67,.92,2.27,3.45,4.96,6.58,7.76,9.6,2.27,2.44,4.72,4.69,7.43,6.64,.43,.31,.86,.63,1.32,.9,1.47,.88,2.2,.62,2.57-1.05,.48-2.16,1.18-4.22,2.29-6.14,2.51-4.35,6.67-5.47,10.95-4.74,2.59,.44,4.97,1.51,6.89,3.39,.72,.7,1.44,.86,2.35,.52,1.31-.49,2.64-.91,3.93-1.46,.7-.3,1.45-.57,1.49-1.64,.23-6.84,4.48-10.36,10.43-12.31,3.81-1.25,7.6-1.22,11.21,.84,1,.57,1.92,1.22,2.59,2.15,.67,.94,1.46,1,2.43,.6,1.05-.43,2.08-.96,3.17-1.18,1.87-.36,2.61-1.64,3.06-3.25,.81-2.89,2.3-5.37,4.46-7.45,.43-.02,.75-.19,.85-.64,.18-.16,.36-.32,.54-.49,.41-.02,.82-.04,.93-.56l.07,.08s-.06-.09-.06-.09c1.29-.38,2.63-.66,3.69-1.6,.2-.05,.4-.1,.61-.15,.54,.24,1.04-.03,1.53-.15,1.63-.42,3.25-.41,4.86,.1,.38,.12,.74,.28,1.15,.14,.21,.09,.42,.19,.63,.28,.12,.52,.48,.63,.95,.56,.12,.03,.21,.09,.27,.2,.08,.5,.43,.65,.88,.67,.1,.1,.2,.2,.3,.3,0,0,.03,.15,.03,.15l.15,.04c.51,.32,.93,.73,1.25,1.25,.31,.52,.8,.65,1.36,.64,.57,.17,.95-.13,1.27-.54,1.24-.44,2.49-.88,3.73-1.32,.55,0,1.13,.12,1.43-.53,.25-.22,.55-.27,.86-.29,1.47-.08,2.79-.61,4-1.42,.24-.1,.47-.21,.71-.31,.42,.11,.75,0,.96-.41,.07-.08,.14-.16,.23-.22,.67-.9,.7-1.97,.79-3.02ZM110.44,166.79h-.03c-.46-.07-.91-.1-1.19,.37h-.03c-.47-.06-.87,.05-1.17,.43-3.77,1.24-7.52,2.51-11.35,4.38,1.91,1.68,3.85,2.62,5.97,3.2,4.77,1.31,9.54,.85,14.27-.26,6.56-1.54,12.84-4.01,19.2-6.19,.3-.1,.62-.26,.57-.83-1.73-1.14-3.76-1.76-5.77-2.42-.23-.3-.52-.37-.88-.26-.12,0-.23-.02-.33-.09-.15-.12-.29-.3-.47-.35-3.85-.98-7.72-.78-11.58-.07-.17,.03-.3,.24-.45,.36-.24,.04-.49,.09-.73,.13-.34-.1-.63-.03-.87,.23-.37,.07-.74,.13-1.12,.2-.19-.09-.35-.06-.48,.1-.25,.09-.51,.17-.76,.26-.31-.08-.6-.05-.84,.19-.47,.14-.95,.27-1.42,.41-.24-.09-.41-.01-.55,.19Zm153-63.4c.03-.2-.04-.29-.25-.27-.34-.45-.68-.9-1.02-1.35,.07-.19,0-.29-.19-.31-.06-.47-.29-.87-.55-1.25,.08-.47-.12-.82-.5-1.09l-.18-3.36c.29-.57,.59-1.14,.39-1.91-1.13,.12-2.04,1.01-3.33,.63,1.15-1.53,2.83-1.84,4.23-2.61,.43-.08,.91-.06,1.21-.47,.66-.29,1.03-.7,.77-1.5-.13-.42-.11-.88-.16-1.33,.12-.22,.04-.37-.17-.48-.27-.36-.55-.69-.48-1.2,.18-1.34-.54-2.18-1.6-2.81-.2-.34-.79-.21-.85-.73,.71-.18,1.55-.23,1.29-1.35-.16-.24-.34-.23-.55-.06-6.77,2.47-13.44,5.19-20.27,7.51-.85,.29-1.82,.46-2.16,1.51-.49,.38-.2,1.16-.77,1.5-.46,.37-.98,.68-1.16,1.31-.59,2.1-1.35,4.15-1.55,6.35-.04,.43-.21,.92,.39,1.35,1.16-.3,2.36-.73,3.53-1.28,.2,.01,.35-.05,.44-.24,.4-.06,.8-.11,1.2-.17,0,.56-.42,.76-.82,1.03-1.18,.76-2.45,1.36-3.76,1.83-1.34,.47-1.85,1.45-1.94,2.73-.05,.72-.19,1.47,.13,2.17,0,.17,.01,.34,.02,.52,.02,1.14,.04,2.29,.4,3.39-.07,3.87,.26,7.73,.52,11.59-.14,.71-.17,1.41,.27,2.05,.03,.26,.05,.53,.08,.79-.14,.7-.2,1.4,.28,2.02,.02,.8,.02,1.6,.31,2.36-.2,.32-.16,.6,.14,.84,.08,.52,.16,1.04,.24,1.56-.19,.31-.14,.6,.1,.86,.04,.76,.08,1.53,.12,2.29-.14,.56-.26,1.11,.3,1.64,.47-.45,.91-.81,.81-1.49,.45-1.4,.81-2.82,1.35-4.18,2.22-5.63,4.51-11.23,7.44-16.53,.68-1.22,.66-2.16-.24-3.26-1.59-1.97-2.83-4.17-3.8-6.52-.13-1.2,.58-1.44,1.56-1.35-.21,1.92,1.24,3.17,2,4.67,.54,1.07,1.04,2.34,2.25,2.97,.13-.07,.28-.1,.36-.19,1.55-2,3.1-3.99,5.17-5.5,.6-.43,.32-.84,0-1.35-1.04-1.62-2-3.28-2.99-4.93,.05-.82,.38-1.31,1.3-1.13,.92,1.76,1.88,3.51,2.99,5.16,.42,.63,.9,1.22,1.73,1.15,.9-.08,1.67,.36,2.52,.48,1.39,.6,2.59,.13,3.71-.7h.02c.81-.49,.48-.85-.13-1.17l-.03-.12-.12-.03Zm13.35,27.37c-.33,.13-.41,.38-.33,.7-1.56,2.82-3.42,5.42-5.91,7.48-1.2,.99-1.86,2.13-2.19,3.64-.9,4.12-2.38,8.02-4.69,11.6-.88,1.36-1.97,2.59-2.81,4.11,.35,.02,.57,.1,.73,.04,3.36-1.32,6.72-1.42,10.11-.07,1.29,.51,1.67,.27,2.07-1.26,.62-2.4,2.06-4.16,4.14-5.38,1.48-.87,3.06-1.53,4.83-1.64,1.24-.08,1.41-.44,1.12-1.7-1.18-5.09,.55-9.15,4.41-12.45,1.57-1.34,1.57-1.3,.45-3-2.32-3.51-3.33-7.24-1.82-11.38,.11-.3,.13-.64,.22-1.12-2.76-.23-5.31-1.11-8.13-1.83,.24,3.7-.32,7.03-1.33,10.3-.62,.44-.77,1.11-.83,1.81l-.07,.15Zm-121.62-9.52c-.84,.35-1.71,.66-2.52,1.07-2.5,1.29-5.02,2.57-6.88,4.77-.26,.3-.54,.58-.79,.89-1.93,2.44-1.54,3.73,1.48,4.5,4.88,1.24,9.64,.35,14.34-1.08,.8-.24,.67-.71,.13-1.14-.68-.53-1.37-1.05-2.07-1.55-2-1.43-1.98-2.05,.1-3.46,.22-.15,.49-.23,.69-.4,1.26-1.01,2.13-2.27,2.48-3.88-.25-.05-.39-.12-.48-.09-4.3,1.49-8.32,3.5-11.9,6.35-.31,.25-.59,.55-.81,.88-.66,.99-.37,1.59,.84,1.65,1.33,.07,2.66,.05,4,.08,.4,.01,.89,.06,.88,.58,0,.45-.43,.67-.84,.71-1.8,.18-3.59,.19-5.34-.37-1.46-.46-1.62-.75-1.54-2.5,1.49-2.05,3.5-3.47,5.68-4.7,1.03-.58,2.15-1.01,3.07-1.78,.38-.09,.79-.14,1.15-.29,1.83-.78,3.59-1.72,5.56-2.13,.36-.08,.64-.33,.49-.7-.17-.42-.55-.22-.85-.11-2.3,.86-4.68,1.53-6.86,2.68Zm23.5-7.77c-.01,.27-.02,.54-.03,.81-.21,.25-.48,.37-.81,.39-.34-.1-.65-.11-.86,.24-.26,.17-.53,.35-.79,.52-.26,.04-.38,.19-.34,.46-.06,.55-.02,1.11-.38,1.59-.62,.24-.52,.74-.43,1.23,0,.07,0,.13,0,.2-.22,2.3-.21,2.36,1.92,1.78,4.54-1.25,9.19-2.06,13.7-3.39,4-1.18,3.49-.03,2.33-4.2-.13-.85,.49-1.92-.71-2.46-.13-.29-.27-.59-.4-.88-.11-.3-.22-.59-.33-.89,.18-1.22,.14-1.28-.96-.86-4.09,1.53-8.18,3.09-12.26,4.65-.46,.18-1.03,.32-1.11,1.03,.21,.05,.38,.13,.56,.14,.35,.02,.64-.15,.92-.35Zm29.63,4.75c.08,.26,.17,.51,.25,.77-.02,.05-.08,.11-.06,.15,.04,.1,.1,.19,.15,.28,.24,1.38,1.49,2.11,2.05,3.3,.76,1.63,1.62,3.2,2.45,4.79,.24,.46,.41,1.02,1.14,.77-.29,.52-.03,.92,.29,1.7,.24-.89,.29-1.36-.28-1.71,.12-1.02-.29-1.93-.59-2.86-.4-1.24-.86-2.48-1.2-3.74-.27-1.01-.1-1.14,1.23-1.26,.51,.96,.4,2.11,.87,3.06,1.03,2.11,1.4,4.43,2.1,6.63,1.37,4.3,2.73,8.6,4.5,12.75,1.46,3.41,3.06,6.75,4,10.37,.33,1.26,.68,2.56,1.21,3.78,1.55,3.59,4.71,4.15,7.75,2.82,.93-.4,1.28-1.11,.9-2.12-.21-.56-.56-1.15-.52-1.71,.22-2.61-1.12-4.8-2.04-7.03-1.91-4.65-3.8-9.31-5.39-14.08-1.25-3.76-2.44-7.54-3.46-11.37-.65-2.44-1.42-4.83-1.8-7.33,.83-.69,1.52-1.43,1.11-2.64,.03-.05,.1-.11,.09-.16-.01-.12-.05-.24-.08-.35-.09-1.45-.77-2.81-.63-4.3,.03-.35-.19-.66-.6-.63-.35,.03-.69,.26-.7,.61-.02,.59,0,1.21,.18,1.76,.14,.44,.16,.75-.18,1.06-.15,.04-.3,.08-.44,.12-.17-.01-.33-.03-.5-.04-.14-.58-.31-1.15-.43-1.73-.14-.67-.49-.89-1.14-.65-2.09,.77-4.19,1.52-6.28,2.32-.68,.26-1.14,.74-.74,1.54,.36,.74,.22,1.57,.5,2.31-.31,.57-.8,.61-1.35,.44-.36-.72-.47-1.5-.63-2.27-.15-.7-.54-1.03-1.28-.75-.49,.19-.99,.34-1.48,.54-.45,.18-.61,.64-.38,.97,.65,.93,.56,2.14,1.26,3.03-.22,.33-.17,.61,.17,.83Zm-11.59,3.85c-.34-.71-.7-1.41-1.01-2.13-1.03-2.35-1.08-2.38-3.52-1.69-.25,.07-.49,.19-.75,.26-.85,.27-.98,.66-.45,1.45,.76,1.13,1.66,2.21,1.93,3.61-.45,.05-.9,.1-1.35,.15-.69-1.11-1.46-2.19-2.06-3.35-.47-.91-1.12-1.04-1.97-.85-2.25,.52-4.49,1.05-6.74,1.57-.46,.11-.8,.41-.5,.82,1.08,1.47,1.65,3.32,3.26,4.39,.55,1.66,1.27,3.21,2.66,4.34,1.28,1.78,2.57,3.55,3.84,5.33,4.84,6.75,9.92,13.32,15.26,19.68,.76,.91,1.42,2.05,2.8,2.53,.51-2.33,.79-4.59,2.16-6.47,.47-.64,.04-1.12-.32-1.61-2.64-3.65-5.25-7.32-7.93-10.94-2.36-3.19-4.41-6.61-6.9-9.7-.88-1.48-.87-1.5,.67-1.95,3.75,5.41,7.37,10.91,11.54,16.04-2.8-6.57-6.62-12.62-9.15-19.29,0-.4-.17-.68-.52-.87-.08-.32-.19-.61-.47-.81-.08-.26-.25-.43-.5-.53Zm-85.45,39.34c-.28-.26-.59-.26-.92-.11-4.08-.18-8.16-.24-12.46,1.25,.82,.24,1.26,.43,1.71,.49,2.67,.37,5.18,1.16,7.39,2.76,.59,.43,1.29,.31,1.93,.12,2.74-.83,5.49-1.63,8.37-2.15-1.22-1.18-1.63-1.34-6.01-2.36Zm-18.41,12.21c.91,1.11,2.17,1.77,3.32,2.55,4.57,3.07,9.63,4.82,15.12,5.2,4.84,.34,9.58-.37,14.28-1.46,.59-.14,1.31-.17,1.73-.91-1.05-.82-2.19-1.47-2.99-2.41-1.36-1.6-2.82-1.57-4.65-1.04-3.92,1.15-7.92,1.92-12.03,1.74-4.21-.19-8.2-1.2-11.54-3.92-1.04-.85-1.91-.67-2.92-.16-.28,0-.51,.03-.33,.41Zm217.59-40.93c.57-.41,.36-.66-.17-.86-.07-.24-.15-.48-.22-.72,0-.22-.12-.37-.34-.33-.21,.03-.29,.21-.26,.42-1.17,2.1-2.46,4.15-4.46,5.51-1.46,.99-1.63,2.11-1.19,3.58,.83,2.76,.27,5.46-.62,8.05-.98,2.83-3.04,4.8-5.76,6.05-.8,.37-1.61,.65-1.74,1.69-.08,.66,.08,1.04,.84,.94,1.28-.16,2.43-.7,3.61-1.15,4.58-1.73,7.27-5.13,8.78-9.68,.68-2.04,.94-4.15,1.37-6.23,.55-.2,.73-.46,.15-.86,.3-2.14,.33-4.28,.01-6.42Zm-60.11,39.27c-.03,.29,.13,.5,.32,.69,4.14,4.31,9.23,6.37,15.16,6.62,3.43,.15,6.8-.26,10.15-.82,3.32-.55,6.45-1.71,9.17-3.75,1.2-.9,2.43-1.82,3.14-3.33-.33,0-.53-.03-.72,0-3.39,.63-6.77,.63-10.13-.18-1.39-.34-2.57-.2-3.71,.78-.63,.55-1.5,.87-2.31,1.16-4.61,1.63-9.34,2.26-14.17,1.37-2.07-.38-4.13-1.02-5.79-2.47-.33-.56-.67-.96-1.11-.09Zm45.99-60.77c.15,.13,.31,.27,.45,.02,.03-.06-.11-.21-.17-.31,.04-.48-.04-.93-.28-1.35-1.46-2.6-3.41-4.75-5.9-6.42-3.5-2.34-7.4-3.61-11.48-4.44-2.29-.47-4.61-.8-6.84-1.45-2.44-.71-4.71-1.84-6.34-3.96-.74-.97-1.18-.96-1.9-.09-.72,.88-1.36,1.85-1.36,3.05,0,3.13,1.05,5.7,3.83,7.44,4.47,2.79,9.45,3.87,14.57,4.54,3.16,.41,6.36,.44,9.49,1.2,2.02,.49,3.89,1.37,5.91,1.78Zm-89.44-17.91c-2.97,.28-5.9,1.16-8.59,2.95-3.51,2.33-4.99,5.68-4.93,9.7,.04,2.93,.68,5.82,1.74,8.58,1.37,3.6,3.23,6.98,4.84,10.47,1.23,2.65,2.54,5.27,3.82,7.89,.7,1.43,1.61,2.85,2.38,4.28,2.14,4.04,4.15,8.16,6.33,12.18,1.93,3.56,4.13,6.99,5.18,10.97,.13,.51,.37,1.02,.67,1.45,.8,1.14,1.98,1.58,3.31,1.33,1.35-.26,2.67-.89,2.98-2.32,.33-1.49,.39-3.14-.15-4.57-1.09-2.85-1.85-5.8-3.04-8.63-2.33-5.58-5.01-10.96-7.86-16.28-1.85-3.44-3.79-6.84-5.49-10.35-1.42-2.92-2.71-5.93-3.78-9-.85-2.44-1.41-5.02-1.05-7.67,.28-2.06,1.33-3.2,3.36-3.7,2.46-.6,4.79-1.6,7.16-2.47,1.36-.5,1.42-1,.39-1.99-1.97-1.91-4.42-2.63-7.28-2.82Zm17.31,18.25c-.13,4.59,.2,9.14,1.68,13.57,.82,2.45,1.49,4.95,2.29,7.41,1.06,3.2,2.12,6.41,3.33,9.56,.32,.83,.73,1.21,1.57,1.2,.4,0,.8,.01,1.2,.02,2.11,0,2.98-1.01,2.36-3.05-1.22-4.04-1.5-8.26-2.04-12.39-.59-4.54-1.11-9.13-1.06-13.75,.06-6.59-.41-13.21,1.74-19.6,1.05-3.11,2.48-5.87,6.25-6.5,1.48-.25,2.87-1,4.3-1.55,.62-.24,.8-.7,.37-1.26-1.14-1.45-2.54-2.72-4.33-3.04-5.13-.94-11.24,1.31-14.08,6.57-2.15,4-3.05,8.36-3.47,12.8-.31,3.31-.6,6.66-.12,10.03Zm33.83,22.67c-.11,4.09-.06,7.87-.88,11.65-.65,2.95-1.38,5.83-2.54,8.61-1.23,2.98-1.31,4.11-.51,6.53,.36,1.08,.69,1.2,1.51,.43,1.94-1.83,3.68-3.84,5.3-5.96,1.95-2.56,3.44-5.38,4.52-8.38,.75-2.05,1.33-4.19,1.73-6.34,.42-2.22,.63-4.5,.78-6.76,.36-5.85-.28-11.57-2.29-17.14-1.08-2.99-2.47-5.94-2.41-9.25,0-.59-.31-.85-.9-.72-.52,.11-.99,.31-1.47,.58-2.66,1.52-3.63,4.09-3.91,6.85-.31,3.05-.38,6.18,.28,9.19,.81,3.64,.59,7.31,.78,10.69Zm-21.65,19.54c.03,1.98,.05,3.38,.54,4.73,.27,.74,.73,1.26,1.38,1.64,.81,.47,1.23,.25,1.22-.7-.03-1.85,.5-3.55,1.17-5.23,1.91-4.79,4.69-9.08,7.55-13.32,1.21-1.8,2.1-3.66,2.57-5.76,.79-3.51,1.68-7,2.66-10.44,.92-3.23,1.7-6.39,1.8-9.76,.08-2.64,.88-5.11,2.86-7.05,.3-.29,.9-.57,.59-1.12-.31-.56-.94-.48-1.45-.36-1.27,.3-2.28,1.06-3.23,1.92-3.12,2.84-5.01,6.52-6.81,10.21-1.71,3.51-3.29,7.09-4.76,10.7-1.1,2.71-2.13,5.45-2.93,8.28-.64,2.25-.96,4.58-1.65,6.8-1.02,3.28-1.26,6.65-1.51,9.46Zm-108.81,19.45c.39,.76,.89,.96,1.36,1.21,5.22,2.78,10.76,2.78,16.37,1.77,4.21-.76,8.24-2.17,12.22-3.71,2.98-1.15,5.92-2.38,8.87-3.6,.79-.32,.82-.74,.13-1.27-.26-.2-.58-.33-.87-.5-2.5-1.42-5.23-1.98-8.05-2.08-3.7-.13-7.3,.63-10.85,1.56-4.19,1.09-8.17,2.82-12.28,4.15-2.27,.73-4.5,1.59-6.91,2.45Zm132.77-8.51c-.45-.45-.85-.48-1.24-.54-7.52-1.21-14.86-.26-22.12,1.76-3.28,.91-6.36,2.34-9.53,3.55-2.3,.88-4.6,1.76-6.89,2.67-.39,.15-.96,.14-1.03,.75,1.23,1.04,3.22,1.87,5.21,2.3,4.98,1.07,9.81,.19,14.61-1.08,6.15-1.62,11.87-4.32,17.46-7.28,1.16-.61,2.41-1.12,3.53-2.13Zm-70.49,7.52c2.12,1.82,4.62,2.56,7.18,2.91,3.39,.46,6.79,.24,10.16-.43,5.06-1.01,9.91-2.67,14.7-4.5,1.75-.67,3.66-1.13,5.2-2.35-.39-.79-1-1.18-1.61-1.59-2.5-1.67-5.37-1.95-8.23-1.98-3.22-.03-6.35,.77-9.45,1.59-4.83,1.28-9.49,3.12-14.21,4.73-1.22,.42-2.6,.6-3.74,1.62Zm-6.82-62.91c-.03-.72-.52-1-.94-1.3-2.41-1.75-5.07-2.51-8.08-2.32-3.5,.21-5.71,2.15-7.02,5.11-.85,1.92-1.15,4.08-1.79,6.1-.97,3.09-1.54,6.39-4.15,8.7-.62,.55-.56,.92,.16,1.35,4.71,2.79,10.85,.07,11.78-5.32,.36-2.11,.93-4.15,1.47-6.22,.55-2.14,1.78-3.49,3.83-4.2,1.62-.56,3.24-1.12,4.74-1.9Zm-23.27,64.2c2.37,1.39,4.86,1.98,7.49,2.14,3.78,.23,7.43-.56,11.05-1.5,6.13-1.59,12.04-3.87,18-5.97,.36-.13,.85-.17,.9-.66,.05-.5-.41-.62-.76-.78-2.57-1.21-5.29-1.77-8.12-1.89-4.12-.17-8.09,.67-12.01,1.8-4.81,1.38-9.32,3.56-13.94,5.45-.83,.34-1.89,.29-2.6,1.42Zm96.8-40.22c-.81-.12-.96,.22-1.16,.47-1.05,1.37-2.11,2.73-3.12,4.12-3.63,5.01-7.11,10.12-9.65,15.78-.81,1.79-1.61,3.66-1.43,5.75,.19,2.13,2.11,3.36,4.11,2.69,1.18-.4,2.17-1.07,2.95-1.98,3.17-3.71,5.91-7.63,6.92-12.59,.35-1.71,.28-3.45,.78-5.12,.9-3,.41-6.06,.59-9.12Zm22.02,33.9c.58,.11,.9,.21,1.22,.23,4.01,.3,7.43-1.05,10.43-3.69,2.54-2.24,3.93-4.97,3.95-8.39,.03-4.01-1.25-7.69-2.58-11.38-1.27,.45-1.27,.45-1.95,1.12-2.75,2.69-4.67,5.94-6.41,9.34-.89,1.75-1.16,3.67-1.74,5.5-.77,2.41-1.64,4.78-2.92,7.28Zm-17.31,6.45c3.09-.02,6.15-.41,9.04-1.47,5.25-1.93,7.69-6.3,9.22-11.32,.3-.98-.02-1.27-1.18-1.22-2.41,.1-4.76,.57-7.04,1.38-2.77,.98-5.36,2.3-7.9,3.79-3.22,1.89-6.58,3.53-9.87,5.29-1.14,.61-1.17,.94-.11,1.58,2.4,1.46,5.05,2.01,7.84,1.98Zm42.66-46.91c-.05-.77-.05-1.37-.14-1.96-.5-3.55-1.41-6.92-4.19-9.47-3.28-3.01-7.33-4.2-11.58-4.91-.76-.13-1.26,.27-1.15,.97,.27,1.83,.25,3.71,1.06,5.46,1.26,2.72,3.18,4.9,5.34,6.89,2.85,2.62,5.49,5.41,7.56,8.7,.66,1.05,1.04,1.1,1.68,.08,1.13-1.81,1.35-3.86,1.42-5.77Zm-12.61,7.62c-.02,1.8,.11,3.32,.59,4.8,.63,1.95,1.28,3.9,1.83,5.87,.68,2.43,1.58,4.8,1.78,7.36,.08,1,.45,1.14,1.34,.73,2.21-1.02,3.89-2.67,4.76-4.9,1.44-3.7,1.21-7.54-.14-11.17-1.41-3.76-3.9-6.92-6.67-9.83-.78-.82-1.48-.74-1.83,.26-.8,2.32-1.89,4.58-1.65,6.88Zm-34.79,44.77c-.2-.39-.22-.56-.31-.61-2.67-1.42-5.11-3.13-7.11-5.43-.49-.56-1.07-.62-1.8-.29-1.27,.57-2.59,1.05-3.92,1.49-5.41,1.81-10.92,3.01-16.67,2.52-2.89-.25-5.69-.97-8.08-2.62-1.43-.98-2.49-.59-4.09,.2,13.37,8.76,27.34,8.89,41.97,4.73Zm-101.72-4.02c6.61,6.97,24.78,9.23,36.23,4.6-.13-.51-.59-.7-.98-.91-1.55-.8-3.08-1.7-4.28-2.92-1.74-1.77-3.48-1.55-5.61-.89-4.27,1.33-8.65,2.18-13.19,1.93-2.71-.15-5.37-.62-7.63-2.1-1.75-1.14-3.03-.6-4.53,.28Zm66.44,4.69c-2.73-1.44-5.41-2.74-7.78-4.55-.52-.39-1.06-.42-1.7-.24-2.25,.62-4.54,1.1-6.85,1.41-5.63,.76-11.04,.25-15.96-2.94-1.48-.96-1.88-.88-3.45,.29,10.03,9.21,23.82,10.05,35.74,6.03Zm1.59-81.61c-1.26,.45-2.43,.86-3.59,1.29-4.42,1.63-8.83,3.27-13.25,4.88-.77,.28-1.4,.66-1.29,1.53,.23,1.77,.39,3.56,1.09,5.25,.39,.95,.82,1.11,1.8,.73,4.09-1.57,8.19-3.13,12.34-4.49,1.86-.61,2.81-1.5,2.53-3.52-.07-.51,.17-1.05,.17-1.58,.01-1.31,.49-2.6,.19-4.07Zm78.59,6.58c.69,3.17,.47,6.31,.41,9.43-.02,.83,.13,1.53,.65,2.23,2.24,3.01,2.99,6.56,3.05,10.17,.05,2.64-.37,5.34-2.3,7.47-.27,.29-.54,.62-.68,.98-.15,.39,.02,.81,.33,1.08,.33,.29,.64,0,.87-.19,1.95-1.65,3.76-3.51,4.55-5.94,2.18-6.69,1.71-13.25-1.49-19.55-1.21-2.39-2.87-4.43-5.41-5.67Zm-141.62,75.7c-.11-.69-.47-.77-.75-.93-1.74-.98-3.54-1.87-5.18-2.99-1.02-.69-1.98-.76-3.02-.39-1.95,.71-3.98,1.1-6.01,1.46-6.51,1.16-12.74,.6-18.46-3.08-.38-.25-.79-.54-1.28-.51-.5,.03-.76,.31-.52,.79,.14,.28,.43,.5,.68,.72,4.33,3.83,9.33,6.11,15.12,6.57,3.34,.27,6.68,.23,10-.07,3.17-.29,6.33-.78,9.42-1.57Zm140.06-67.05c.54-.73,.36-1.41,.37-2.05,.03-1.54-.21-3.06-.36-4.59-.72-7.31-4.86-12.01-11.34-14.93-.76-.34-1.22-.13-1.51,.7-.36,1.02-.69,2.03-.63,3.12,.07,1.17-1.33,2.36-.37,3.37,.78,.82,2.1,1.1,3.15,1.67,4.65,2.48,8.08,6.02,9.67,11.17,.17,.57,.35,1.13,1.02,1.56Zm4.74,41.94c-2.48,1.46-5.11,2.41-7.82,3.06-1.03,.25-1.65,.72-2.03,1.66-2.45,5.98-10.39,9.63-15.97,8.61-.78-.14-1.67-.27-1.79,.64-.12,.93,.94,.76,1.51,.84,4.63,.63,9.18,.36,13.58-1.36,4.32-1.7,7.92-4.37,10.53-8.24,1.02-1.51,2.01-3.1,1.99-5.21Zm-23.39-44.92c-.08-.76-.59-.9-1.14-.98-1.31-.2-2.65-.17-3.95-.61-1.32-.45-1.61-.25-2.01,1.09-.83,2.81-2.53,4.95-4.93,6.57-.49,.33-1.14,.5-1.43,1.06-.38,.74,.35,1.22,.5,1.84,.14,.58,.14,1.19,.27,1.78,.3,1.36,.57,1.51,1.9,1.1,4.97-1.51,8.01-5.04,9.98-9.66,.31-.73,.55-1.5,.81-2.19Zm-4.53-17.39c0,.93,.02,1.87,0,2.8-.02,.72,.28,1.06,1.01,1.2,1.56,.3,3.12,.67,4.66,1.06,1.67,.42,1.82,.34,2.15-1.46,.07-.39,.21-.77,.27-1.17,.46-3.16,1.36-6.26,1.28-9.49-.03-1.09-.2-1.24-1.15-.9-2.13,.76-4.22,1.62-6.36,2.33-.96,.32-1.37,.97-1.63,1.84-.37,1.24-.22,2.52-.24,3.78Zm-7.15,44.82c3.17-2.76,5.23-6.1,6.71-9.87,.79-2.02,.69-4.2,1.28-6.24,.12-.41,.2-1-.31-1.26-.53-.27-.85,.28-1.19,.53-1.67,1.26-3.57,2.05-5.5,2.76-1.24,.45-1.46,.68-1.23,2.01,.61,3.59,.54,7.17-.02,10.76-.06,.37-.19,.78,.26,1.32Zm-109.81,25.96c3.31,.63,6.23,1.48,8.71,3.41,.58,.46,1.2,.35,1.88,.07,2.27-.95,4.62-1.64,6.97-2.37,.57-.18,1.35,.1,1.75-.62-4.85-3.54-13.71-3.71-19.3-.48Zm82.06-.72c-.59-.69-1.19-1.16-2.05-1.25-1.06-.12-2.1-.33-2.98-1.02-.47-.37-.92-.26-1.47,.02-2.66,1.38-5.32,1.67-7.9-.22-.47-.34-.9-.31-1.11,.27-.43,1.18-1.23,2.1-2.22,2.91,1.54,1,3.08,1.68,4.28,2.87,.7,.7,1.48,.38,2.22,.05,1.89-.83,3.88-1.37,5.84-2.02,1.76-.58,3.65-.71,5.39-1.61Zm-51.4,.39c.48,.18,.71,.33,.96,.36,2.67,.35,5.17,1.14,7.4,2.7,.72,.5,1.54,.29,2.3,.05,1.64-.52,3.29-1.03,4.91-1.62,1.03-.37,2.25-.24,3.15-1.07-3.06-3.13-14.21-3.44-18.73-.43Zm-61.09,.31c3.41,.56,6.25,1.84,9,3.31,.64,.34,1.17,.52,1.86,.24,2.09-.86,4.25-1.48,6.43-2.05,.33-.09,.63-.21,.68-.62-4.23-3.01-13.39-3.59-17.97-.88Zm135.7-55.07c-.08,2.19,1.1,4.27,1.79,6.48,.22,.69,.69,.76,1.25,.41,2.49-1.57,3.98-3.87,4.77-6.65,.17-.58-.03-.94-.72-1.16-1.39-.44-2.76-.98-4.09-1.59-2.65-1.21-3.14-.9-3.04,2.09,0,.07,.01,.13,.05,.42Zm-52.79,43.53c-.47,.12-.66,.4-.83,.69-1.83,3.17-1.48,6.49-.61,9.83,.18,.7,.71,.85,1.4,.75,1.18-.17,2.37-.26,3.56-.4,1.08-.13,1.3-.4,.82-1.42-.52-1.09-.79-2.25-1.15-3.38-.7-2.22-1.96-4.16-3.2-6.06Zm45.1,10.01c1.28,.64,2.5,.64,3.63,.96,1.08,.3,2.05,.16,3.06-.42,1.85-1.07,3.8-1.93,5.79-2.71,.33-.13,.84-.09,.89-.76-4.98-1.72-9.19,0-13.37,2.93Zm27.94-43.59c1.73,.04,1.73-.05,1.21-1.44-.58-1.55-1.07-3.13-1.21-4.79-.05-.56-.15-1.14-.85-1.1-.73,.04-1.7-.4-2.05,.69-.49,1.52-1.26,2.91-2.03,4.29-.28,.52-.31,.88,.3,1.07,1.64,.51,3.22,1.23,4.63,1.29Zm4.65,18.15c-1.68,.56-2.37,1.93-3.14,3.09-1.28,1.93-1.82,4.12-1.58,6.46,.03,.25,.09,.54,.4,.63,.33,.1,.46-.14,.63-.34,1.22-1.51,2.62-2.84,4.16-4.01,.49-.37,.8-.77,.56-1.34-.6-1.4-.84-2.88-1.03-4.5Zm-7.09,14.77c-1.76-.22-2.98,.54-4.13,1.27-1.65,1.06-2.88,2.53-3.42,4.49-.18,.67-.07,1.04,.68,1.03,1.13-.01,2.26-.03,3.39-.04,.51,0,.91-.15,1.06-.7,.56-2.05,1.63-3.9,2.41-6.05Zm7.11-20.22c.42-1.19,.86-2.23,1.15-3.31,.3-1.13,1.68-2.06,1.2-3.19-.44-1.02-1.59-1.74-2.42-2.6-.27-.28-.44-.75-.91-.65-.55,.11-.64,.67-.73,1.09-.34,1.65-.43,3.36-.02,4.96,.32,1.23,.4,2.67,1.72,3.7Zm-84.92-28.58c.48,.63,.75,.73,1,.64,5.61-2.08,11.22-4.17,16.82-6.27,.31-.12,.6-.3,.47-1.16-6.12,2.16-12.05,4.62-18.29,6.78Zm50.65,21.17c-.91,1.95-2.71,9-2.62,10.27,1.25-1.29,2.22-2.61,3.1-4,.22-.35,.32-.75,.26-1.15-.22-1.63-.47-3.25-.75-5.12Zm-20.66,26.53c.72-1.43,.43-2.88,.82-4.21,.4-1.38,.15-1.57-1.35-1.62-.27-.01-.53-.03-.8-.01-.66,.03-.98,.3-.76,1.02,.5,1.64,1.1,3.23,2.08,4.82Zm12.89,12.06c1.39-.07,2.3-.12,3.22-.17,1.73-.09,1.77-.14,1.42-1.89-.08-.39-.16-.79-.3-1.15-.31-.81-.8-.94-1.25-.22-.74,1.21-1.82,2.08-3.1,3.43Z"/>
  <path class="cls-4" d="M106.96,15.67c.32,2.67,1.37,5.15,2.14,7.7,2.19,7.27,4.63,14.46,7.22,21.59,2.06,5.68,4.17,11.34,6.52,16.9,2.59,6.1,5.34,12.14,8.39,18.04,3.39,6.56,7.01,12.98,11.26,19.01,4.7,6.68,9.98,12.85,16.66,17.67,.32,.23,.7,.41,.69,1.07-2.27,.92-4.59,1.87-6.93,2.81-.7,.28-1.09-.24-1.57-.6-3.25-2.48-6.06-5.42-8.74-8.48-5.33-6.08-9.78-12.77-13.81-19.77-2.95-5.13-5.62-10.4-8.23-15.71-1.99-4.05-3.68-8.22-5.53-12.33-.98-2.16-1.79-4.43-2.63-6.67-1.47-3.91-3.02-7.78-4.39-11.72-1.57-4.51-3.1-9.03-4.57-13.57-1.73-5.32-3.18-10.72-5.08-15.99,2.87-.23,5.73-.37,8.59,.06Z"/>
  <path class="cls-3" d="M336.33,64.61c-9.43,3.43-18.87,6.86-28.3,10.3-10.19,3.72-20.37,7.45-30.55,11.17-.25,.09-.49,.2-.75,.28-.78,.24-1.33,.12-1.33-.86,0-1.22-.48-2.34-.75-3.51,.81-.23,1.51-.87,2.47-.53,.61,.22,.99-.27,1.34-.68,.95-1.11,2.22-1.82,3.32-2.74,.4-.33,.98-.49,1.14-1.07,.24-.88,.76-1.2,1.65-.89,.82,.29,1.07-.23,1.22-.88,.85,.03,1.41-.65,2.16-.92,5.3-1.96,10.62-3.87,15.94-5.78,8.95-3.22,17.86-6.53,26.79-9.8,.37-.01,.75-.02,1.12-.03,1.31,1.43,2.72,2.79,3.45,4.64,.22,.55,1.08,.57,1.08,1.3Z"/>
  <path class="cls-8" d="M292.46,57.86c.11-.19,.21-.38,.32-.57,1-.75,1.35-1.92,1.88-2.97,.26-.55,.53-1.09,.79-1.64,.48-.26,.67-.69,.71-1.21,.33-.85,1.08-1.48,1.25-2.41,.3-.17,.46-.42,.42-.78,.08-.19,.15-.38,.23-.57,1.06-.73,1.09-2.04,1.73-3.02,.76-1.17,.55-1.52-.83-1.92-.37-.11-.77-.1-1.16-.15-.03-.09-.1-.13-.19-.12-.19-.31-.51-.4-.83-.49-1.04-.31-.89-.97-.49-1.69,3-2.21,6.01-4.41,9.01-6.62,.27-.2,.5-.46,.8-.59,.64-.28,1.21-.2,1.42,.57,.16,.58,.28,1.18,.31,1.77,.18,2.93,.35,5.86,.49,8.8,.07,1.58-.2,1.78-1.71,1.35-.83-.23-1.65-.51-2.45-.84-.87-.37-1.3-.09-1.72,.73-1.56,3.08-3.19,6.13-4.82,9.17-.91,1.69-1.87,3.36-2.8,5.04-.61,.43-.96,1.02-1.1,1.75l.08,.06s-.09-.06-.09-.06c-.78,.65-1.34,1.43-1.57,2.43,0,0,0,0,0,0-.88,.57-1.25,1.49-1.59,2.42,0,0,0,0,0,0-.27,.02-.41,.16-.39,.44-.34,.33-.65,.68-.81,1.13-.48,.11-.74,.39-.74,.89,0,0,0,0,0,0-.23,.05-.32,.19-.26,.41-.1,.07-.16,.17-.19,.3-.36,.05-.56,.28-.78,.56-2.12,2.74-4.51,5.22-7.11,7.5-1.25,1.09-2.58,2.08-3.9,3.09-.58,.44-.93,.3-1.06-.49-.22-1.32,.51-2.11,1.43-2.84,3.33-2.65,6.37-5.57,8.8-9.1,0,0,.09-.14,.09-.14,.32-.22,.54-.5,.59-.9,.73-.53,1.08-1.34,1.59-2.04,.56-.21,.68-.69,.74-1.21,0,0,.03-.03,.03-.03,.58-.15,.77-.59,.82-1.13,0,0,.02-.03,.02-.03,.55-.2,.67-.69,.79-1.18,.41-.21,.55-.59,.65-1,.67-.81,1.45-1.56,1.57-2.69Z"/>
  <path class="cls-7" d="M90.98,163.75c.98,.33,1.98,.18,2.97,.16,3.22-.07,6.39,.17,9.39,1.45,.66,.28,1.37,.5,1.84,1.07-.16,.58-.65,.67-1.08,.83-3.78,1.46-7.56,2.89-11.32,4.38-.85,.34-1.75,.72-1.88,1.84-1.2-.38-1.64-1.17-.84-1.84,.95-.79,.77-1.7,.88-2.67,.19-1.74,.23-3.48,.04-5.22Z"/>
  <path class="cls-8" d="M295.14,68.09c1.16-.4,2.33-.81,3.49-1.21,.19,.12,.27,.04,.27-.16,0,0,.11-.07,.11-.07,.31,.05,.57-.06,.77-.29,1.27-.28,2.49-.72,3.65-1.32,.33,.09,.62,.06,.83-.25,7.53-2.71,15.07-5.39,22.58-8.17,.96-.36,1.97-.65,2.9-1.1,.58-.28,1.15-.29,1.72,.01-.18,.76-.75,.96-1.42,1.2-6.63,2.39-13.23,4.83-19.85,7.26-6.99,2.56-13.97,5.13-20.96,7.69-.54,.2-1.12,.58-1.61-.1,.49-.38,.97-.75,1.46-1.13,.47-.68,1.43-.32,1.93-.92,.92-.13,1.84-.3,2.6-.9,.22-.08,.44-.16,.65-.24,.36,.1,.67,.04,.88-.3Z"/>
  <path class="cls-9" d="M330.67,58.7c-8.93,3.27-17.84,6.58-26.79,9.8-5.32,1.91-10.64,3.82-15.94,5.78-.74,.27-1.3,.95-2.16,.92-.43-.45-.82-.89,.04-1.32,.4-.2,.76-.47,1.14-.71,.48,.03,.91-.11,1.35-.27,6.17-2.24,12.35-4.45,18.51-6.71,7.23-2.64,14.43-5.35,21.67-7.96,1.17-.42,2.3-1.06,3.61-1.04,.44,.49-.06,.74-.28,1.06-.44,0-.9-.04-1.16,.44Z"/>
  <path class="cls-3" d="M286.96,73.18c.09-.59,0-1.26,.66-1.61,.5,.68,1.07,.3,1.61,.1,6.99-2.56,13.98-5.13,20.96-7.69,6.61-2.43,13.22-4.87,19.85-7.26,.67-.24,1.25-.44,1.42-1.2,1.01,.26,.62,1.05,.64,1.68-1.31-.02-2.44,.62-3.61,1.04-7.24,2.61-14.44,5.32-21.67,7.96-6.16,2.26-12.35,4.46-18.51,6.71-.45,.16-.88,.3-1.35,.27Z"/>
  <path class="cls-7" d="M91.73,175.08c1.12,.31,1.89,1.19,2.85,1.77,1.53,.93,3.01,1.94,4.67,2.63,.43,.18,.79,.4,1.08,.95-2.33,.74-4.56,1.25-6.85,1.46-.87,.08-1.7,.21-2.48,.61,.64-2.43-.02-4.99,.72-7.42Z"/>
  <path class="cls-8" d="M173.45,133.11c-.05,.35-.37,.52-.67,.62-.94,.34-1.88,.65-2.84,.91-.83,.22-1.92-.63-1.99-1.48-.03-.4,.23-.58,.57-.69,1.14-.37,2.26-.77,3.41-1.1,.6-.17,1.57,.97,1.51,1.75Z"/>
  <path class="cls-8" d="M178.52,132.02c-1.09,.11-1.45-.36-1.63-1.1-.18-.75,.09-1.1,.83-1.28,.84-.21,1.63-.59,2.46-.8,.98-.24,1.74,.31,1.85,1.25,.04,.36-.02,.74-.35,.87-1.12,.42-2.26,.77-3.16,1.07Z"/>
  <path class="cls-9" d="M311.24,141.95c-.25-.72-.17-1.45-.05-2.17,.66-3.79,.29-7.51-.51-11.25-.25-1.16-.91-2.43,.03-3.63,.01,2.27,.83,4.41,1.13,6.63,.44,3.26,.46,6.5-.26,9.72-.05,.25-.23,.46-.35,.7Z"/>
  <path class="cls-7" d="M106.19,182.01c.52,.03,1.06,.02,1.57,.11,3.89,.71,7.78,.65,11.67,.04,.91-.14,1.82-.33,2.76-.22-1.58,1-3.41,1-5.15,1.12-2.32,.17-4.66,.12-6.98,0-1.33-.07-2.78,0-3.88-1.06Z"/>
  <path class="cls-5" d="M297.81,42.62c.39,.05,.79,.04,1.16,.15,1.38,.4,1.59,.74,.83,1.92-.64,.98-.67,2.3-1.73,3.02-.5-.91,.39-1.46,.64-2.14,.49-1.32,.26-2.23-.9-2.95Z"/>
  <path class="cls-9" d="M243.02,81.02c-.41,.14-.77-.03-1.15-.14-1.61-.5-3.23-.52-4.86-.1-.5,.13-1,.39-1.53,.15,2.53-1.06,5.04-1.21,7.54,.09Z"/>
  <path class="cls-9" d="M260.13,81c-1.21,.81-2.52,1.35-4,1.42,1.19-.89,2.59-1.16,4-1.42Z"/>
  <path class="cls-9" d="M310.67,118.9c-.52-1.32-.6-2.72-.75-4.11,1.07,1.22,.91,2.67,.75,4.11Z"/>
  <path class="cls-9" d="M305.94,106.78c-1.34-.5-1.86-1.89-2.91-2.7,1.49,.34,2.33,1.38,2.91,2.7Z"/>
  <path class="cls-2" d="M110.56,159.74c-2.39-.01-4.78-.02-7.18-.03,2.39-.49,4.79-.53,7.18,.03Z"/>
  <path class="cls-5" d="M296.29,40.31c-.4,.73-.55,1.39,.49,1.69,.32,.09,.64,.18,.83,.49-.6,.22-1.14,.04-1.67-.23-.49-.24-.9-.56-.79-1.18,.11-.62,.55-.82,1.14-.78Z"/>
  <path class="cls-9" d="M234.87,81.08c-1.06,.93-2.4,1.21-3.69,1.6,1.03-1,2.34-1.34,3.69-1.6Z"/>
  <path class="cls-7" d="M95.64,183.04c1.75-.46,3.48-1.01,5.3-1.11-1.6,1.16-3.42,1.3-5.3,1.11Z"/>
  <path class="cls-9" d="M100.08,26.52c1.13,.89,1.03,2.2,1.15,3.44-.56-1.09-1.19-2.15-1.15-3.44Z"/>
  <path class="cls-7" d="M126.13,181.05c1.54-.55,3.08-1.51,4.62,0-1.54,0-3.08,0-4.62,0Z"/>
  <path class="cls-7" d="M91,182.97c1.13,.71,2.37,.07,3.54,.26-1.2,1.09-2.92,.97-3.54-.26Z"/>
  <path class="cls-5" d="M294.65,54.32c-.53,1.05-.88,2.21-1.88,2.97,.01-1.38,.61-2.39,1.88-2.97Z"/>
  <path class="cls-9" d="M262.83,77.03c-.1,1.05-.12,2.12-.79,3.02,0-1.07-.25-2.22,.79-3.02Z"/>
  <path class="cls-5" d="M292.46,57.86c-.13,1.13-.9,1.88-1.57,2.69-.18-1.31,.55-2.09,1.57-2.69Z"/>
  <path class="cls-5" d="M292.15,63.87c.23-1,.79-1.79,1.57-2.43,.07,1.19-.42,2.03-1.57,2.43Z"/>
  <path class="cls-5" d="M290.56,66.29c.35-.93,.71-1.84,1.59-2.42,0,1.16-.47,2-1.59,2.42Z"/>
  <path class="cls-5" d="M293.61,68.63c-.76,.6-1.68,.76-2.6,.9,.67-.82,1.05-.95,2.6-.9Z"/>
  <path class="cls-9" d="M309.86,147.02c-.05-.92,.25-1.73,.82-2.44,.15,.96-.03,1.8-.82,2.44Z"/>
  <path class="cls-9" d="M99.17,23.31c.63,.56,.9,1.23,.68,2.07-.61-.56-.98-1.2-.68-2.07Z"/>
  <path class="cls-9" d="M266.49,70.27c-.12,.86-.63,1.4-1.41,1.72,.2-.8,.7-1.34,1.41-1.72Z"/>
  <path class="cls-9" d="M300.16,101.66c-.83-.32-.96-1.03-.98-1.8,.74,.37,1.01,1.01,.98,1.8Z"/>
  <path class="cls-9" d="M304.66,159.47c-.13-.76,.1-1.33,.83-1.65,.19,.78-.31,1.22-.83,1.65Z"/>
  <path class="cls-5" d="M293.73,61.43c.14-.73,.48-1.32,1.1-1.75,.11,.88,.01,1.63-1.1,1.75Z"/>
  <path class="cls-9" d="M308.25,150.62c.09-.71,.22-1.4,1-1.7-.05,.74-.36,1.31-1,1.7Z"/>
  <path class="cls-7" d="M102.94,181.43c.91-.3,1.74-.11,2.51,.41-.86,0-1.78,.41-2.51-.41Z"/>
  <path class="cls-5" d="M296.16,51.47c-.05,.52-.23,.95-.71,1.21-.55-.87,.02-1.08,.71-1.21Z"/>
  <path class="cls-2" d="M102.16,159.85c-.48,.37-1.03,.36-1.59,.28,.44-.59,.91-1.04,1.59-.28Z"/>
  <path class="cls-9" d="M305.8,156.57c-.04-.58-.12-1.17,.46-1.56,.43,.69,0,1.13-.46,1.56Z"/>
  <path class="cls-9" d="M101.6,31.34c.57,.27,.63,.75,.54,1.29-.6-.26-.76-.7-.54-1.29Z"/>
  <path class="cls-9" d="M301.37,102.87c-.65,.03-1.05-.22-1.06-.92,.56,.07,.8,.5,1.06,.92Z"/>
  <path class="cls-5" d="M288.56,63.92c-.06,.52-.19,1-.74,1.21-.03-.57-.03-1.13,.74-1.21Z"/>
  <path class="cls-9" d="M302.58,103.66c-.6,.07-.96-.23-1.16-.77,.58-.04,.95,.25,1.16,.77Z"/>
  <path class="cls-5" d="M290.23,61.55c-.12,.49-.25,.98-.79,1.18-.02-.58-.05-1.18,.79-1.18Z"/>
  <path class="cls-9" d="M250.11,84.56c-.33,.41-.7,.71-1.27,.54,.32-.44,.74-.62,1.27-.54Z"/>
  <path class="cls-5" d="M282.94,67.17c-.57,0-.98-.26-1.26-.75,.62-.09,1.2-.12,1.26,.75Z"/>
  <path class="cls-5" d="M289.42,62.75c-.06,.54-.25,.98-.82,1.13-.01-.59,.04-1.12,.82-1.13Z"/>
  <path class="cls-6" d="M144.53,98.94c-.45-.14-.65-.47-.67-.92,.54,.08,.79,.37,.67,.92Z"/>
  <path class="cls-9" d="M229.7,83.73c-.11,.45-.43,.62-.85,.64,.07-.5,.42-.62,.85-.64Z"/>
  <path class="cls-9" d="M255.27,82.71c-.3,.66-.89,.54-1.43,.53,.41-.36,.91-.47,1.43-.53Z"/>
  <path class="cls-9" d="M245.75,82.72c-.45-.01-.8-.16-.88-.67,.4,.08,.78,.19,.88,.67Z"/>
  <path class="cls-7" d="M91.01,174.08c.6,.07,.66,.53,.72,.99-.63-.05-.85-.39-.72-.99Z"/>
  <path class="cls-5" d="M299.8,66.35c-.21,.23-.46,.34-.77,.29,.09-.55,.29-.8,.77-.29Z"/>
  <path class="cls-9" d="M244.6,81.86c-.47,.08-.83-.04-.95-.56,.39,.05,.77,.13,.95,.56Z"/>
  <path class="cls-9" d="M310.81,143.94c-.15-.4-.09-.73,.28-.98,.25,.43,.12,.74-.28,.98Z"/>
  <path class="cls-9" d="M261.81,80.27c-.21,.4-.54,.52-.96,.41,.19-.44,.56-.47,.96-.41Z"/>
  <path class="cls-7" d="M124.98,181.4c.23-.27,.5-.36,.84-.24-.13,.61-.34,.93-.84,.24Z"/>
  <path class="cls-9" d="M264.12,73.54c.06,.41-.03,.73-.45,.89-.16-.45,.02-.74,.45-.89Z"/>
  <path class="cls-2" d="M112.19,160.1c-.32,.09-.61,.05-.82-.24,.48-.62,.69-.32,.82,.24Z"/>
  <path class="cls-5" d="M297.83,48.28c.04,.36-.12,.61-.42,.78-.51-.61-.07-.71,.42-.78Z"/>
  <path class="cls-7" d="M122.53,181.85c.5-.42,1.08-.42,1.68-.35-.46,.6-1.08,.41-1.68,.35Z"/>
  <path class="cls-2" d="M290.45,68.62c-.05,.11-.07,.28-.15,.32-.08,.03-.28-.06-.31-.14-.03-.08,.06-.28,.14-.31,.08-.03,.22,.08,.33,.13Z"/>
  <path class="cls-5" d="M286.23,67.17c-.04,.4-.27,.68-.59,.9-.26-.6-.03-.88,.59-.9Z"/>
  <path class="cls-5" d="M288.62,68.75c0-.51,.26-.79,.74-.89,.08,.56-.19,.84-.74,.89Z"/>
  <path class="cls-6" d="M330.67,58.7c.26-.48,.72-.44,1.16-.44-.01,.14-.02,.27-.03,.41-.38,.01-.75,.02-1.13,.03Z"/>
  <path class="cls-9" d="M231.17,82.69c-.11,.52-.52,.54-.93,.56,.19-.39,.51-.55,.93-.56Z"/>
  <path class="cls-7" d="M101.18,181.82c.25-.36,.58-.39,.96-.28-.24,.37-.59,.37-.96,.28Z"/>
  <path class="cls-5" d="M295.14,68.09c-.21,.34-.52,.39-.88,.3,.2-.38,.51-.43,.88-.3Z"/>
  <path class="cls-9" d="M303.33,161.53c.01-.31,.15-.5,.48-.5,0,.33-.15,.5-.48,.5Z"/>
  <path class="cls-5" d="M304.27,64.78c-.21,.31-.5,.34-.83,.25,.2-.32,.49-.35,.83-.25Z"/>
  <path class="cls-9" d="M309.43,148.57c.05-.16,.11-.33,.16-.49,.17,.24,.13,.41-.16,.49Z"/>
  <polygon class="cls-9" points="246.23 83.21 246.08 83.17 246.05 83.02 246.22 83.05 246.23 83.21"/>
  <path class="cls-2" d="M337.13,65c-.25,.07-.38-.05-.45-.27,.21-.02,.37,.07,.45,.27Z"/>
  <path class="cls-9" d="M307.83,151.39c-.03-.21,.04-.36,.26-.43,.07,.24-.03,.37-.26,.43Z"/>
  <path class="cls-9" d="M306.63,152.99c-.05-.24,.06-.38,.29-.42,.04,.23-.07,.37-.29,.42Z"/>
  <path class="cls-5" d="M288.35,69.17c-.05-.23,.03-.37,.26-.41,.04,.22-.05,.36-.26,.41Z"/>
  <path class="cls-5" d="M290.17,66.72c-.02-.28,.12-.42,.39-.44,0,.26-.14,.4-.39,.44Z"/>
  <path class="cls-5" d="M298.91,66.72c0,.2-.08,.28-.27,.16,0,0,.09-.16,.09-.16h.18Z"/>
  <path class="cls-4" d="M206.61,93.13c2.86,.19,5.32,.91,7.28,2.82,1.03,1,.96,1.5-.39,1.99-2.37,.87-4.7,1.87-7.16,2.47-2.03,.5-3.08,1.63-3.36,3.7-.36,2.66,.2,5.23,1.05,7.67,1.07,3.07,2.36,6.08,3.78,9,1.71,3.51,3.65,6.91,5.49,10.35,2.85,5.31,5.53,10.7,7.86,16.28,1.18,2.83,1.95,5.78,3.04,8.63,.54,1.42,.48,3.08,.15,4.57-.31,1.43-1.63,2.06-2.98,2.32-1.33,.25-2.51-.19-3.31-1.33-.3-.43-.54-.94-.67-1.45-1.05-3.98-3.26-7.42-5.18-10.97-2.18-4.03-4.19-8.14-6.33-12.18-.76-1.44-1.68-2.86-2.38-4.28-1.28-2.62-2.6-5.24-3.82-7.89-1.61-3.49-3.47-6.87-4.84-10.47-1.05-2.76-1.69-5.65-1.74-8.58-.06-4.01,1.42-7.36,4.93-9.7,2.69-1.79,5.63-2.67,8.59-2.95Z"/>
  <path class="cls-4" d="M223.92,111.38c-.48-3.37-.19-6.72,.12-10.03,.42-4.43,1.31-8.8,3.47-12.8,2.84-5.26,8.95-7.51,14.08-6.57,1.79,.33,3.2,1.59,4.33,3.04,.44,.56,.26,1.02-.37,1.26-1.42,.55-2.82,1.3-4.3,1.55-3.77,.63-5.2,3.39-6.25,6.5-2.15,6.38-1.68,13.01-1.74,19.6-.04,4.62,.47,9.22,1.06,13.75,.54,4.13,.82,8.35,2.04,12.39,.62,2.04-.25,3.06-2.36,3.05-.4,0-.8-.02-1.2-.02-.84,.01-1.25-.36-1.57-1.2-1.21-3.15-2.28-6.35-3.33-9.56-.81-2.45-1.48-4.96-2.29-7.41-1.47-4.43-1.81-8.98-1.68-13.57Z"/>
  <path class="cls-4" d="M257.75,134.05c-.19-3.37,.02-7.05-.78-10.69-.67-3.02-.59-6.14-.28-9.19,.28-2.76,1.25-5.33,3.91-6.85,.48-.27,.95-.47,1.47-.58,.59-.13,.91,.12,.9,.72-.05,3.31,1.34,6.26,2.41,9.25,2.01,5.57,2.66,11.28,2.29,17.14-.14,2.26-.35,4.53-.78,6.76-.41,2.15-.99,4.28-1.73,6.34-1.09,3-2.57,5.82-4.52,8.38-1.62,2.12-3.36,4.13-5.3,5.96-.82,.77-1.15,.65-1.51-.43-.8-2.42-.73-3.56,.51-6.53,1.15-2.78,1.89-5.66,2.54-8.61,.83-3.78,.77-7.56,.88-11.65Z"/>
  <path class="cls-4" d="M236.09,153.6c.25-2.81,.49-6.17,1.51-9.46,.69-2.22,1.01-4.55,1.65-6.8,.8-2.82,1.83-5.57,2.93-8.28,1.47-3.62,3.05-7.2,4.76-10.7,1.81-3.7,3.7-7.37,6.81-10.21,.95-.87,1.96-1.62,3.23-1.92,.51-.12,1.14-.2,1.45,.36,.31,.56-.29,.83-.59,1.12-1.98,1.94-2.78,4.42-2.86,7.05-.1,3.37-.88,6.53-1.8,9.76-.98,3.44-1.87,6.94-2.66,10.44-.47,2.1-1.36,3.96-2.57,5.76-2.86,4.24-5.65,8.53-7.55,13.32-.67,1.68-1.2,3.39-1.17,5.23,.01,.96-.41,1.17-1.22,.7-.65-.38-1.11-.9-1.38-1.64-.49-1.35-.51-2.75-.54-4.73Z"/>
  <path class="cls-4" d="M221.58,116.06c.38,2.5,1.16,4.9,1.8,7.33,1.02,3.83,2.21,7.61,3.46,11.37,1.59,4.77,3.48,9.43,5.39,14.08,.91,2.23,2.25,4.41,2.04,7.03-.05,.55,.3,1.15,.52,1.71,.39,1.01,.03,1.71-.9,2.12-3.05,1.33-6.2,.77-7.75-2.82-.53-1.22-.88-2.52-1.21-3.78-.94-3.62-2.54-6.96-4-10.37-1.78-4.15-3.13-8.45-4.5-12.75-.71-2.21-1.08-4.52-2.1-6.63-.46-.95-.35-2.1-.87-3.06,.65-.46,1.24-1.08,2.04-1.24,2.29-.47,4.16-1.77,6.09-2.97Z"/>
  <path class="cls-4" d="M282.58,69.12c-.48,1.17-1.16,2.14-2.22,2.94-.98,.74-1.73,1.79-2.59,2.7-3.66,.28-5.56,2.96-4.8,6.47,.57,2.66,1.1,5.33,1.33,8.06,.15,1.72,.54,3.42,.47,5.16-.06,1.69-.27,1.76-1.93,1.43-4.42-.89-6.75-3.79-8.05-7.88-.61-1.93-1.01-3.9-1.06-5.87-.14-4.51,1.39-8.43,4.69-11.64,2.93-2.86,6.43-3.78,10.38-3.33,1.5,.17,2.81,.76,3.78,1.98Z"/>
  <path class="cls-4" d="M296.05,111.04c-2.02-.41-3.9-1.3-5.91-1.79-3.14-.76-6.33-.78-9.49-1.2-5.12-.67-10.11-1.74-14.57-4.54-2.77-1.73-3.83-4.31-3.83-7.44,0-1.2,.64-2.17,1.36-3.05,.72-.88,1.16-.88,1.9,.09,1.63,2.13,3.9,3.25,6.34,3.96,2.23,.65,4.56,.99,6.84,1.45,4.08,.83,7.98,2.1,11.48,4.44,2.49,1.67,4.43,3.82,5.9,6.42,.24,.42,.32,.87,.28,1.35-.1,.1-.19,.19-.29,.29Z"/>
  <path class="cls-7" d="M130.66,165.33c2.01,.65,4.04,1.28,5.77,2.42,.05,.57-.27,.73-.57,.83-6.36,2.18-12.64,4.65-19.2,6.19-4.72,1.11-9.49,1.57-14.27,.26-2.12-.58-4.06-1.52-5.97-3.2,3.83-1.87,7.58-3.14,11.35-4.38,.46,.06,.88-.01,1.17-.42,0,0,.03-.01,.03-.01,.45,.06,.85-.08,1.19-.37,0,0,.03,0,.03,0,.23,.07,.42,.02,.55-.19,.47-.14,.95-.27,1.42-.41,.33,.15,.6,.06,.84-.19,.25-.09,.51-.17,.76-.26,.2,.15,.35,.07,.48-.1,.37-.07,.74-.13,1.12-.2,.35,.14,.63,.04,.87-.23,.24-.04,.49-.09,.73-.13,4.17-.42,8.34-.59,12.5,.06,.1,.07,.21,.1,.33,.09,.24,.27,.53,.35,.88,.26Z"/>
  <path class="cls-7" d="M127.28,173.05c2.4-.86,4.64-1.72,6.91-2.45,4.11-1.33,8.09-3.06,12.28-4.15,3.55-.93,7.15-1.69,10.85-1.56,2.82,.1,5.56,.66,8.05,2.08,.29,.16,.6,.3,.87,.5,.69,.53,.66,.94-.13,1.27-2.95,1.22-5.9,2.45-8.87,3.6-3.98,1.54-8.01,2.95-12.22,3.71-5.61,1.01-11.15,1.01-16.37-1.77-.47-.25-.96-.45-1.36-1.21Z"/>
  <path class="cls-7" d="M260.05,164.54c-1.13,1.01-2.37,1.52-3.53,2.13-5.6,2.96-11.31,5.66-17.46,7.28-4.79,1.26-9.63,2.14-14.61,1.08-1.99-.43-3.98-1.26-5.21-2.3,.08-.61,.64-.59,1.03-.75,2.29-.91,4.59-1.79,6.89-2.67,3.17-1.21,6.24-2.64,9.53-3.55,7.27-2.02,14.61-2.97,22.12-1.76,.39,.06,.79,.09,1.24,.54Z"/>
  <path class="cls-4" d="M194.88,129.31c2.49,3.1,4.54,6.51,6.9,9.7,2.68,3.62,5.29,7.29,7.93,10.94,.35,.49,.78,.97,.32,1.61-1.38,1.88-1.65,4.14-2.16,6.47-1.38-.48-2.04-1.62-2.8-2.53-5.34-6.36-10.42-12.93-15.26-19.68-1.28-1.78-2.56-3.55-3.84-5.33,1.84-.2,3.65-.78,5.3-1.43,1.46-.57,2.45-.42,3.62,.25Z"/>
  <path class="cls-7" d="M189.56,172.05c1.14-1.01,2.52-1.2,3.74-1.62,4.72-1.62,9.38-3.45,14.21-4.73,3.1-.82,6.23-1.62,9.45-1.59,2.86,.03,5.73,.31,8.23,1.98,.61,.41,1.22,.8,1.61,1.59-1.54,1.22-3.45,1.68-5.2,2.35-4.79,1.83-9.65,3.49-14.7,4.5-3.38,.67-6.78,.89-10.16,.43-2.56-.35-5.06-1.08-7.18-2.91Z"/>
  <path class="cls-4" d="M182.74,109.14c-1.5,.78-3.12,1.33-4.74,1.9-2.05,.72-3.27,2.06-3.83,4.2-.53,2.06-1.1,4.11-1.47,6.22-.93,5.39-7.07,8.11-11.78,5.32-.72-.43-.79-.8-.16-1.35,2.61-2.31,3.18-5.61,4.15-8.7,.64-2.02,.94-4.18,1.79-6.1,1.31-2.97,3.53-4.9,7.02-5.11,3.01-.18,5.67,.57,8.08,2.32,.42,.31,.92,.58,.94,1.3Z"/>
  <path class="cls-7" d="M159.47,173.34c.71-1.13,1.78-1.08,2.6-1.42,4.62-1.89,9.13-4.07,13.94-5.45,3.92-1.13,7.89-1.97,12.01-1.8,2.83,.12,5.55,.68,8.12,1.89,.35,.17,.81,.28,.76,.78-.05,.49-.53,.53-.9,.66-5.96,2.1-11.87,4.38-18,5.97-3.62,.94-7.27,1.73-11.05,1.5-2.62-.16-5.12-.75-7.49-2.14Z"/>
  <path class="cls-4" d="M256.27,133.12c-.18,3.05,.31,6.12-.59,9.12-.5,1.67-.43,3.41-.78,5.12-1.01,4.96-3.75,8.88-6.92,12.59-.78,.91-1.77,1.58-2.95,1.98-2,.67-3.92-.56-4.11-2.69-.18-2.08,.62-3.96,1.43-5.75,2.54-5.66,6.03-10.77,9.65-15.78,1.01-1.4,2.08-2.75,3.12-4.12,.19-.25,.34-.59,1.16-.47Z"/>
  <path class="cls-1" d="M278.3,167.02c1.29-2.5,2.15-4.87,2.92-7.28,.59-1.83,.85-3.75,1.74-5.5,1.73-3.4,3.65-6.65,6.41-9.34,.68-.67,.69-.66,1.95-1.12,1.33,3.69,2.6,7.38,2.58,11.38-.02,3.42-1.41,6.15-3.95,8.39-2.99,2.64-6.41,3.99-10.43,3.69-.32-.02-.64-.12-1.22-.23Z"/>
  <path class="cls-7" d="M260.98,173.47c-2.79,.03-5.43-.52-7.84-1.98-1.06-.64-1.03-.97,.11-1.58,3.29-1.76,6.66-3.4,9.87-5.29,2.54-1.49,5.13-2.81,7.9-3.79,2.28-.81,4.63-1.27,7.04-1.38,1.16-.05,1.48,.25,1.18,1.22-1.53,5.02-3.98,9.39-9.22,11.32-2.89,1.06-5.95,1.45-9.04,1.47Z"/>
  <path class="cls-1" d="M303.64,126.56c-.07,1.91-.29,3.96-1.42,5.77-.63,1.02-1.02,.97-1.68-.08-2.07-3.29-4.71-6.08-7.56-8.7-2.16-1.99-4.09-4.17-5.34-6.89-.81-1.75-.79-3.63-1.06-5.46-.1-.71,.39-1.1,1.15-.97,4.25,.7,8.3,1.9,11.58,4.91,2.78,2.55,3.69,5.92,4.19,9.47,.08,.59,.09,1.2,.14,1.96Z"/>
  <path class="cls-3" d="M263.61,88.41c.05,.44,.02,.91,.16,1.33,.26,.8-.11,1.21-.77,1.5-.49-.05-.99-.16-1.21,.47-1.4,.77-3.08,1.08-4.23,2.61,1.29,.38,2.2-.51,3.33-.63,.2,.77-.1,1.34-.39,1.91-.36-.61-.69-1.18-1.61-.79-.71,.3-1.54,.33-2.15,.82-.81,.66-1.28,.19-1.76-.39,0-.13-.02-.26-.03-.39,2.01-1.62,4.03-3.25,6.04-4.87,.31-.25,.65-.48,.91-.77,.44-.5,.5-2.09,.04-2.42-.75-.54-1.19,.17-1.69,.57-.83,.67-1.64,1.35-2.47,2-4.81,3.78-9.7,7.46-14.91,10.68-.58,.03-.7-.48-.96-.82-.41-.05-.87-.19-1.03,.4h.04c-.4,.04-.8,.1-1.2,.16-.26-.13-.37,.02-.44,.24-1.16,.56-2.36,.98-3.53,1.28-.6-.43-.43-.92-.39-1.35,.2-2.19,.96-4.25,1.55-6.35,.17-.63,.7-.94,1.16-1.31,.26-.02,.54,.02,.78-.07,7.51-2.76,15.02-5.54,22.52-8.31,1.07,.63,1.79,1.47,1.6,2.81-.07,.52,.22,.85,.48,1.2-.1,.21-.05,.38,.17,.48Z"/>
  <path class="cls-1" d="M291.03,134.18c-.24-2.3,.85-4.57,1.65-6.88,.34-1,1.05-1.08,1.83-.26,2.77,2.9,5.26,6.07,6.67,9.83,1.36,3.62,1.58,7.47,.14,11.17-.87,2.23-2.54,3.88-4.76,4.9-.89,.41-1.26,.27-1.34-.73-.2-2.56-1.1-4.93-1.78-7.36-.55-1.97-1.2-3.92-1.83-5.87-.48-1.48-.61-3-.59-4.8Z"/>
  <path class="cls-7" d="M256.25,178.95c-14.64,4.16-28.6,4.03-41.97-4.73,1.59-.79,2.66-1.19,4.09-.2,2.39,1.65,5.19,2.37,8.08,2.62,5.76,.5,11.26-.7,16.67-2.52,1.32-.44,2.64-.92,3.92-1.49,.73-.33,1.31-.27,1.8,.29,2,2.3,4.44,4.01,7.11,5.43,.09,.05,.12,.22,.31,.61Z"/>
  <path class="cls-7" d="M251.18,171.9c1.66,1.45,3.71,2.09,5.79,2.47,4.83,.89,9.57,.26,14.17-1.37,.81-.29,1.68-.61,2.31-1.16,1.14-.98,2.32-1.12,3.71-.78,3.36,.81,6.74,.82,10.13,.18,.19-.04,.39,0,.72,0-.72,1.51-1.94,2.43-3.14,3.33-2.72,2.04-5.85,3.2-9.17,3.75-3.35,.56-6.73,.96-10.15,.82-5.92-.26-11.02-2.32-15.16-6.62-.19-.2-.34-.4-.32-.69,.37,.03,.74,.06,1.11,.09Z"/>
  <path class="cls-7" d="M154.52,174.93c1.5-.88,2.79-1.42,4.53-.28,2.26,1.48,4.92,1.95,7.63,2.1,4.54,.25,8.92-.6,13.19-1.93,2.13-.66,3.87-.88,5.61,.89,1.2,1.22,2.73,2.11,4.28,2.92,.39,.2,.85,.39,.98,.91-11.45,4.63-29.62,2.37-36.23-4.6Z"/>
  <path class="cls-7" d="M220.96,179.62c-11.92,4.02-25.71,3.18-35.74-6.03,1.57-1.17,1.97-1.25,3.45-.29,4.92,3.19,10.33,3.7,15.96,2.94,2.31-.31,4.6-.79,6.85-1.41,.63-.18,1.18-.15,1.7,.24,2.37,1.81,5.05,3.11,7.78,4.55Z"/>
  <path class="cls-3" d="M222.55,98.01c.3,1.48-.18,2.77-.19,4.07,0,.53-.24,1.07-.17,1.58,.29,2.02-.67,2.91-2.53,3.52-4.16,1.37-8.26,2.92-12.34,4.49-.98,.38-1.41,.22-1.8-.73-.7-1.69-.86-3.48-1.09-5.25-.11-.86,.52-1.25,1.29-1.53,4.42-1.61,8.83-3.25,13.25-4.88,1.16-.43,2.33-.83,3.59-1.29Z"/>
  <path class="cls-1" d="M301.14,104.59c2.54,1.25,4.2,3.29,5.41,5.67,3.2,6.3,3.67,12.86,1.49,19.55-.8,2.44-2.61,4.29-4.55,5.94-.23,.2-.54,.48-.87,.19-.32-.28-.48-.69-.33-1.08,.14-.36,.41-.68,.68-.98,1.93-2.13,2.34-4.83,2.3-7.47-.06-3.61-.81-7.16-3.05-10.17-.52-.7-.67-1.4-.65-2.23,.06-3.12,.28-6.25-.41-9.43Z"/>
  <path class="cls-1" d="M310.01,139.82c-.43,2.08-.69,4.18-1.37,6.23-1.51,4.55-4.21,7.95-8.78,9.68-1.18,.45-2.33,.99-3.61,1.15-.76,.09-.93-.28-.84-.94,.13-1.04,.94-1.33,1.74-1.69,2.72-1.25,4.78-3.22,5.76-6.05,.89-2.59,1.45-5.29,.62-8.05-.44-1.47-.27-2.59,1.19-3.58,2-1.35,3.3-3.41,4.46-5.51,.2-.03,.4-.06,.61-.09,.07,.24,.15,.48,.22,.72-.15,.33-.16,.62,.17,.86,.32,2.14,.29,4.28-.01,6.42-.34,.24-.36,.53-.15,.86Z"/>
  <path class="cls-7" d="M159.52,180.29c-3.1,.79-6.25,1.28-9.42,1.57-3.32,.3-6.66,.34-10,.07-5.79-.46-10.79-2.74-15.12-6.57-.25-.22-.54-.43-.68-.72-.24-.48,.02-.76,.52-.79,.49-.03,.9,.26,1.28,.51,5.71,3.68,11.94,4.24,18.46,3.08,2.03-.36,4.05-.76,6.01-1.46,1.03-.37,2-.3,3.02,.39,1.65,1.11,3.45,2,5.18,2.99,.28,.16,.64,.24,.75,.93Z"/>
  <path class="cls-7" d="M92.91,173.06c1-.51,1.88-.68,2.92,.16,3.34,2.72,7.33,3.73,11.54,3.92,4.11,.18,8.11-.59,12.03-1.74,1.83-.54,3.3-.56,4.65,1.04,.8,.94,1.94,1.58,2.99,2.41-.42,.74-1.14,.77-1.73,.91-4.7,1.09-9.45,1.79-14.28,1.46-5.49-.38-10.55-2.13-15.12-5.2-1.16-.78-2.41-1.44-3.32-2.55,.11-.14,.22-.27,.33-.41Z"/>
  <path class="cls-4" d="M299.59,113.24c-.67-.43-.85-.99-1.02-1.56-1.58-5.14-5.02-8.69-9.67-11.17-1.06-.56-2.38-.85-3.15-1.67-.96-1.01,.44-2.19,.37-3.37-.06-1.08,.27-2.1,.63-3.12,.29-.83,.75-1.04,1.51-.7,6.48,2.92,10.62,7.62,11.34,14.93,.15,1.53,.39,3.05,.36,4.59-.01,.64,.17,1.33-.37,2.05Z"/>
  <path class="cls-1" d="M304.33,155.19c.03,2.11-.97,3.7-1.99,5.21-2.61,3.86-6.21,6.54-10.53,8.24-4.39,1.72-8.95,1.99-13.58,1.36-.57-.08-1.63,.09-1.51-.84,.12-.91,1.01-.79,1.79-.64,5.58,1.02,13.51-2.63,15.97-8.61,.39-.94,1-1.41,2.03-1.66,2.71-.65,5.33-1.59,7.82-3.06Z"/>
  <path class="cls-3" d="M192.71,112.93c1.15,4.17,1.66,3.02-2.33,4.2-4.5,1.33-9.16,2.14-13.7,3.39-2.13,.59-2.15,.53-1.92-1.78,0-.07,0-.13,0-.2,.37-.33,.5-.74,.43-1.23,.36-.47,.32-1.04,.38-1.59,.2-.09,.32-.24,.34-.46,.26-.17,.53-.35,.79-.52,.33,.07,.62,0,.86-.24,.32-.02,.59-.14,.81-.39,1.38,.06,2.51-.74,3.75-1.16,3.18-1.07,6.32-2.24,9.47-3.37,.13,.29,.27,.59,.4,.88-.06,.91,.25,1.71,.71,2.46Z"/>
  <path class="cls-3" d="M146.67,128.12c-.08,1.76,.08,2.04,1.54,2.5,1.75,.55,3.54,.55,5.34,.37,.41-.04,.84-.26,.84-.71,0-.52-.48-.57-.88-.58-1.33-.04-2.67-.02-4-.08-1.21-.06-1.5-.65-.84-1.65,.22-.33,.5-.63,.81-.88,3.57-2.85,7.6-4.86,11.9-6.35,.1-.03,.23,.04,.48,.09-.36,1.61-1.22,2.87-2.48,3.88-.2,.16-.47,.25-.69,.4-2.08,1.41-2.1,2.03-.1,3.46,.7,.5,1.4,1.02,2.07,1.55,.54,.43,.67,.89-.13,1.14-4.7,1.43-9.46,2.32-14.34,1.08-3.02-.77-3.4-2.06-1.48-4.5,.24-.31,.52-.59,.79-.89,.88-.09,.66,.9,1.16,1.18Z"/>
  <path class="cls-4" d="M280.94,110.27c-.25,.69-.49,1.46-.81,2.19-1.97,4.62-5,8.15-9.98,9.66-1.33,.4-1.59,.25-1.9-1.1-.13-.58-.13-1.2-.27-1.78-.15-.62-.88-1.1-.5-1.84,.29-.56,.94-.73,1.43-1.06,2.4-1.63,4.1-3.77,4.93-6.57,.4-1.34,.69-1.53,2.01-1.09,1.29,.44,2.63,.41,3.95,.61,.55,.08,1.05,.22,1.14,.98Z"/>
  <path class="cls-4" d="M276.41,92.88c.02-1.26-.13-2.54,.24-3.78,.26-.87,.67-1.51,1.63-1.84,2.14-.71,4.24-1.57,6.36-2.33,.95-.34,1.12-.2,1.15,.9,.08,3.23-.83,6.33-1.28,9.49-.06,.39-.2,.78-.27,1.17-.33,1.79-.49,1.88-2.15,1.46-1.54-.39-3.1-.76-4.66-1.06-.73-.14-1.03-.48-1.01-1.2,.02-.93,0-1.87,0-2.8Z"/>
  <path class="cls-4" d="M269.26,137.7c-.45-.53-.32-.94-.26-1.32,.57-3.59,.63-7.17,.02-10.76-.23-1.33,0-1.56,1.23-2.01,1.94-.71,3.83-1.51,5.5-2.76,.34-.26,.66-.8,1.19-.53,.51,.26,.43,.85,.31,1.26-.6,2.05-.49,4.22-1.28,6.24-1.47,3.77-3.54,7.11-6.71,9.87Z"/>
  <path class="cls-4" d="M251.19,99.6c.99,1.65,1.96,3.31,2.99,4.93,.33,.51,.6,.91,0,1.35-2.07,1.51-3.62,3.51-5.17,5.5-.07,.09-.22,.12-.36,.19-1.21-.63-1.7-1.9-2.25-2.97-.76-1.49-2.2-2.75-2-4.67,.98-1.45,2.66-1.99,3.95-3.04,.77-.62,1.66-1.36,2.82-1.29Z"/>
  <path class="cls-7" d="M159.45,163.66c5.58-3.23,14.44-3.06,19.3,.48-.4,.73-1.18,.44-1.75,.62-2.34,.74-4.7,1.42-6.97,2.37-.67,.28-1.29,.39-1.88-.07-2.48-1.94-5.39-2.78-8.71-3.41Z"/>
  <path class="cls-7" d="M241.51,162.93c-1.74,.9-3.64,1.03-5.39,1.61-1.96,.65-3.94,1.19-5.84,2.02-.75,.33-1.52,.65-2.22-.05-1.2-1.2-2.74-1.87-4.28-2.87,1-.81,1.79-1.73,2.22-2.91,.21-.58,.64-.61,1.11-.27,2.58,1.89,5.24,1.6,7.9,.22,.54-.28,1-.39,1.47-.02,.88,.69,1.92,.9,2.98,1.02,.86,.1,1.45,.57,2.05,1.25Z"/>
  <path class="cls-7" d="M190.11,163.32c4.52-3.02,15.67-2.7,18.73,.43-.9,.83-2.11,.7-3.15,1.07-1.62,.59-3.27,1.1-4.91,1.62-.77,.24-1.59,.45-2.3-.05-2.23-1.56-4.73-2.36-7.4-2.7-.25-.03-.48-.18-.96-.36Z"/>
  <path class="cls-7" d="M129.01,163.63c4.58-2.71,13.74-2.14,17.97,.88-.04,.41-.35,.53-.68,.62-2.18,.57-4.34,1.2-6.43,2.05-.69,.28-1.22,.1-1.86-.24-2.75-1.47-5.59-2.75-9-3.31Z"/>
  <path class="cls-7" d="M111,161.25c4.39,1.02,4.8,1.18,6.01,2.36-2.88,.52-5.63,1.32-8.37,2.15-.64,.19-1.33,.31-1.93-.12-2.21-1.6-4.72-2.39-7.39-2.76-.45-.06-.88-.25-1.71-.49,4.3-1.5,8.37-1.44,12.46-1.25,.29,.22,.59,.27,.92,.11Z"/>
  <path class="cls-4" d="M264.71,108.56c-.03-.29-.05-.36-.05-.42-.1-2.99,.4-3.3,3.04-2.09,1.33,.61,2.7,1.14,4.09,1.59,.68,.22,.88,.58,.72,1.16-.79,2.79-2.28,5.09-4.77,6.65-.56,.35-1.03,.28-1.25-.41-.7-2.21-1.88-4.29-1.79-6.48Z"/>
  <path class="cls-4" d="M211.92,152.09c1.24,1.9,2.5,3.84,3.2,6.06,.36,1.14,.63,2.29,1.15,3.38,.48,1.01,.26,1.29-.82,1.42-1.19,.14-2.38,.23-3.56,.4-.69,.1-1.22-.05-1.4-.75-.87-3.34-1.22-6.65,.61-9.83,.17-.29,.36-.56,.83-.69Z"/>
  <path class="cls-4" d="M183.29,126.15c-1.6-1.08-2.18-2.92-3.26-4.39-.3-.41,.03-.72,.5-.82,2.25-.52,4.49-1.05,6.74-1.57,.85-.19,1.5-.06,1.97,.85,.6,1.16,1.36,2.24,2.06,3.35-.66,.29-1.31,.62-1.98,.87-1.96,.72-3.86,1.69-6.02,1.72Z"/>
  <path class="cls-7" d="M257.01,162.1c4.18-2.92,8.38-4.64,13.37-2.93-.04,.67-.55,.63-.89,.76-1.99,.78-3.95,1.64-5.79,2.71-1.01,.58-1.98,.72-3.06,.42-1.13-.32-2.35-.32-3.63-.96Z"/>
  <path class="cls-4" d="M284.95,118.51c-1.4-.06-2.99-.77-4.63-1.29-.61-.19-.58-.56-.3-1.07,.77-1.39,1.54-2.77,2.03-4.29,.35-1.09,1.32-.65,2.05-.69,.71-.03,.8,.54,.85,1.1,.15,1.66,.64,3.25,1.21,4.79,.52,1.39,.52,1.48-1.21,1.44Z"/>
  <path class="cls-1" d="M289.6,136.66c.19,1.62,.43,3.1,1.03,4.5,.24,.57-.07,.97-.56,1.34-1.54,1.17-2.94,2.51-4.16,4.01-.17,.21-.3,.44-.63,.34-.31-.1-.37-.38-.4-.63-.24-2.34,.31-4.53,1.58-6.46,.77-1.17,1.45-2.54,3.14-3.09Z"/>
  <path class="cls-1" d="M282.51,151.43c-.78,2.15-1.85,4-2.41,6.05-.15,.55-.55,.7-1.06,.7-1.13,0-2.26,.03-3.39,.04-.76,0-.87-.36-.68-1.03,.54-1.96,1.77-3.42,3.42-4.49,1.15-.74,2.36-1.5,4.13-1.27Z"/>
  <path class="cls-4" d="M219.82,111.49c-2.64,1.37-5.24,2.84-8.08,3.79-.28-.74-.14-1.58-.5-2.31-.4-.8,.07-1.28,.74-1.54,2.08-.8,4.18-1.55,6.28-2.32,.64-.24,1-.02,1.14,.65,.12,.58,.28,1.15,.43,1.73Z"/>
  <path class="cls-1" d="M289.62,131.2c-1.32-1.03-1.4-2.48-1.72-3.7-.41-1.6-.32-3.31,.02-4.96,.09-.43,.17-.99,.73-1.09,.47-.09,.64,.38,.91,.65,.83,.86,1.98,1.58,2.42,2.6,.48,1.13-.9,2.05-1.2,3.19-.29,1.08-.73,2.12-1.15,3.31Z"/>
  <path class="cls-9" d="M261.36,83.91c-7.51,2.77-15.01,5.55-22.52,8.31-.24,.09-.52,.05-.78,.07,.57-.34,.28-1.12,.77-1.5,.46-.06,.95-.03,1.37-.19,3.53-1.31,7.05-2.67,10.58-3.97,3.23-1.18,6.49-2.31,9.73-3.46,.05,.51,.65,.39,.85,.73Z"/>
  <path class="cls-3" d="M260.51,83.19c-3.24,1.15-6.5,2.27-9.73,3.46-3.54,1.3-7.05,2.66-10.58,3.97-.42,.16-.91,.13-1.37,.19,.34-1.04,1.31-1.22,2.16-1.51,6.82-2.32,13.5-5.05,20.27-7.51,.18,.02,.37,.04,.55,.06,.26,1.11-.58,1.17-1.29,1.35Z"/>
  <path class="cls-3" d="M204.69,102.63c6.25-2.16,12.17-4.62,18.29-6.78,.13,.85-.16,1.04-.47,1.16-5.61,2.1-11.21,4.19-16.82,6.27-.25,.09-.52,0-1-.64Z"/>
  <path class="cls-4" d="M255.35,123.8c.28,1.87,.53,3.49,.75,5.12,.05,.4-.04,.8-.26,1.15-.88,1.4-1.85,2.72-3.1,4-.1-1.27,1.71-8.32,2.62-10.27Z"/>
  <path class="cls-2" d="M209.18,118.48c-.24,.12-.47,.24-.71,.36,0,0-.18,0-.18,0-.08-.26-.17-.51-.25-.77,.45-.38,.31-.64-.17-.83-.7-.89-.61-2.1-1.26-3.03-.23-.33-.07-.78,.38-.97,.49-.2,.99-.35,1.48-.54,.74-.28,1.13,.05,1.28,.75,.17,.77,.28,1.55,.63,2.27,.12,.59-.11,1.12-.3,1.65-.25,.41-.83,.55-.91,1.11Z"/>
  <path class="cls-3" d="M178.41,113.32c-.27,.2-.57,.37-.92,.35-.18-.01-.35-.09-.56-.14,.08-.71,.65-.85,1.11-1.03,4.08-1.57,8.17-3.12,12.26-4.65,1.11-.41,1.14-.36,.96,.86-4.41,1.19-8.63,2.9-12.86,4.61Z"/>
  <path class="cls-3" d="M146.67,128.12c-.5-.28-.29-1.27-1.16-1.18,1.87-2.21,4.38-3.48,6.88-4.77,.81-.42,1.68-.72,2.52-1.07,.17,.18,.34,.37,.51,.55-.92,.77-2.04,1.19-3.07,1.78-2.17,1.23-4.19,2.65-5.68,4.7Z"/>
  <path class="cls-9" d="M178.41,113.32c4.22-1.71,8.45-3.43,12.86-4.61,.11,.3,.22,.59,.33,.89-3.16,1.13-6.3,2.3-9.47,3.37-1.24,.42-2.37,1.21-3.75,1.16,.01-.27,.02-.54,.03-.81Z"/>
  <path class="cls-4" d="M234.68,150.33c-.98-1.6-1.58-3.19-2.08-4.82-.22-.72,.1-.99,.76-1.02,.26-.01,.53,0,.8,.01,1.5,.06,1.74,.24,1.35,1.62-.38,1.33-.1,2.78-.82,4.21Z"/>
  <path class="cls-4" d="M247.57,162.39c1.28-1.36,2.36-2.22,3.1-3.43,.44-.72,.93-.59,1.25,.22,.14,.37,.22,.76,.3,1.15,.35,1.76,.31,1.8-1.42,1.89-.91,.05-1.82,.09-3.22,.17Z"/>
  <path class="cls-7" d="M129.45,164.98c-4.16-.64-8.33-.47-12.5-.06,.15-.13,.28-.33,.45-.36,3.86-.71,7.73-.9,11.58,.07,.17,.04,.31,.23,.47,.35Z"/>
  <path class="cls-3" d="M155.42,121.64c-.17-.18-.34-.37-.51-.55,2.19-1.15,4.56-1.82,6.86-2.68,.3-.11,.67-.32,.85,.11,.15,.38-.12,.63-.49,.7-1.97,.41-3.73,1.36-5.56,2.13-.36,.15-.76,.19-1.15,.29Z"/>
  <path class="cls-2" d="M259.72,105.26c1.17-.6,2.44-.65,3.71-.7-1.13,.83-2.32,1.3-3.71,.7Z"/>
  <path class="cls-5" d="M234.53,107.87c.66,1.07,1.16,2.16,.4,3.39-.36-1.1-.38-2.25-.4-3.39Z"/>
  <path class="cls-5" d="M235.45,122.85c.92,.57,.79,1.28,.27,2.05-.44-.64-.41-1.33-.27-2.05Z"/>
  <path class="cls-5" d="M235.79,125.69c1.02,.54,.81,1.26,.28,2.02-.48-.62-.42-1.31-.28-2.02Z"/>
  <path class="cls-9" d="M236.98,135.63c.35,.19,.71,.3,1.11,.14,.1,.68-.34,1.04-.81,1.49-.57-.53-.45-1.08-.3-1.64Z"/>
  <path class="cls-9" d="M192.71,112.93c-.47-.75-.78-1.55-.71-2.46,1.2,.54,.58,1.61,.71,2.46Z"/>
  <path class="cls-5" d="M196.74,123.83c.15-.29,.38-.48,.68-.57,.34,.19,.52,.47,.52,.87-.53,0-.71,.33-.76,.78-.35-.28-.48-.64-.44-1.08Z"/>
  <path class="cls-6" d="M277.43,128.65c0,.73,0,1.46-.83,1.81,.06-.7,.2-1.37,.83-1.81Z"/>
  <path class="cls-2" d="M263.45,104.56c-.04-.39-.09-.78-.13-1.17,.61,.33,.94,.68,.13,1.17Z"/>
  <path class="cls-5" d="M236.39,130.07c.42,.22,.64,.47,.14,.84-.3-.24-.34-.52-.14-.84Z"/>
  <path class="cls-2" d="M261.18,100.05c-.63-.15-.68-.56-.5-1.09,.38,.27,.58,.61,.5,1.09Z"/>
  <path class="cls-9" d="M310.01,139.82c-.21-.33-.19-.63,.15-.86,.58,.4,.4,.66-.15,.86Z"/>
  <path class="cls-5" d="M214.02,128.12c.57,.35,.51,.82,.28,1.71-.32-.78-.58-1.18-.29-1.7,0,0,0,0,0,0Z"/>
  <path class="cls-5" d="M236.76,132.48c.47,.24,.6,.51,.1,.86-.24-.26-.29-.55-.1-.86Z"/>
  <path class="cls-9" d="M310.18,132.54c-.33-.23-.32-.53-.17-.86,.53,.19,.74,.45,.17,.86Z"/>
  <path class="cls-6" d="M207.87,117.23c.48,.19,.62,.45,.17,.83-.34-.22-.39-.5-.17-.83Z"/>
  <path class="cls-7" d="M251.18,171.9c-.37-.03-.74-.06-1.11-.09,.44-.87,.78-.46,1.11,.09Z"/>
  <path class="cls-7" d="M108.94,167.03c-.29,.41-.71,.48-1.17,.42,.3-.38,.7-.5,1.17-.42Z"/>
  <path class="cls-7" d="M110.16,166.65c-.35,.28-.74,.43-1.19,.37,.29-.48,.73-.45,1.19-.37Z"/>
  <path class="cls-9" d="M175.19,117.32c.07,.48-.05,.9-.43,1.23-.09-.49-.2-.98,.43-1.23Z"/>
  <path class="cls-6" d="M261.79,91.71c.22-.63,.72-.53,1.21-.47-.31,.41-.78,.39-1.21,.47Z"/>
  <path class="cls-6" d="M276.53,130.61c.1,.33-.02,.56-.33,.7-.08-.32,0-.57,.33-.7Z"/>
  <path class="cls-9" d="M309.79,130.97c-.2,.03-.4,.06-.61,.09-.03-.22,.05-.39,.26-.42,.22-.04,.34,.11,.34,.33Z"/>
  <path class="cls-7" d="M112.99,165.85c-.24,.25-.51,.33-.84,.19,.24-.24,.53-.27,.84-.19Z"/>
  <path class="cls-7" d="M130.66,165.33c-.34,.09-.64,0-.88-.26,.35-.11,.65-.04,.88,.26Z"/>
  <path class="cls-7" d="M116.22,165.06c-.24,.27-.52,.37-.87,.23,.24-.26,.53-.33,.87-.23Z"/>
  <path class="cls-9" d="M177.57,114.52c-.24,.25-.53,.31-.86,.24,.21-.35,.52-.35,.86-.24Z"/>
  <path class="cls-9" d="M111,161.25c-.33,.16-.64,.11-.92-.11,.33-.14,.64-.15,.92,.11Z"/>
  <path class="cls-6" d="M263.61,88.41c-.22-.1-.27-.26-.17-.48,.21,.1,.29,.26,.17,.48Z"/>
  <path class="cls-7" d="M92.91,173.06c-.11,.14-.22,.27-.33,.41-.19-.37,.05-.41,.33-.41Z"/>
  <path class="cls-9" d="M239.26,100.02c.07-.22,.18-.37,.44-.24-.09,.19-.24,.25-.44,.24Z"/>
  <path class="cls-2" d="M261.92,101.61c-.13-.06-.2-.16-.19-.31,.2,.02,.27,.12,.19,.31Z"/>
  <path class="cls-9" d="M261.8,81.84c-.18-.02-.37-.04-.55-.06,.2-.17,.39-.17,.55,.06Z"/>
  <path class="cls-6" d="M274.13,80.06c.15,0,.21,.05,.14,.17-.02,.03-.09,.03-.14,.04-.08-.07-.08-.14,0-.2Z"/>
  <path class="cls-2" d="M263.18,103.24c-.08-.09-.17-.18-.25-.27,.21-.02,.28,.08,.25,.27Z"/>
  <path class="cls-6" d="M296.34,110.75c.06,.11,.2,.26,.17,.31-.14,.25-.3,.11-.45-.02,.09-.1,.19-.19,.28-.29Z"/>
  <path class="cls-6" d="M220.76,111.41c-.11,.18-.26,.2-.44,.12,.15-.04,.3-.08,.44-.12Z"/>
  <path class="cls-6" d="M222.68,113.42c-.03-.12-.08-.24-.1-.36,0-.05,.07-.1,.11-.16,.03,.12,.07,.23,.08,.35,0,.05-.06,.11-.09,.16Z"/>
  <path class="cls-9" d="M175.91,115.28c-.02,.22-.14,.37-.34,.46-.04-.27,.07-.42,.34-.46Z"/>
  <path class="cls-6" d="M208.29,118.84s.18,0,.18,0c-.03,.14-.06,.28-.09,.42-.05-.09-.12-.18-.15-.28-.01-.04,.04-.1,.06-.15Z"/>
  <path class="cls-7" d="M114.23,165.49c-.13,.17-.28,.25-.48,.1,.13-.17,.29-.2,.48-.1Z"/>
  <path class="cls-7" d="M110.73,166.45c-.13,.21-.32,.26-.55,.19,.13-.2,.31-.28,.55-.19Z"/>
  <path class="cls-5" d="M196.95,122.44c-.32-.03-.49-.2-.5-.53,.25,.1,.42,.27,.5,.53Z"/>
  <path class="cls-8" d="M236.88,106.84c-.42-.08-1.04,.22-1.17-.43-.13-.64-.19-1.37,.36-1.88,.44-.4,.96-.71,1.46-1.03,1.78-1.14,3.71-2.06,5.33-3.46,5.21-3.22,10.1-6.89,14.91-10.68,.83-.66,1.65-1.34,2.47-2,.5-.4,.94-1.11,1.69-.57,.46,.33,.41,1.91-.04,2.42-.26,.3-.6,.52-.91,.77-2.01,1.62-4.03,3.25-6.04,4.87-.45,.06-.82,.21-.94,.71-.11,.02-.19,.08-.24,.18-.23-.02-.39,.05-.42,.31-.15,.11-.3,.22-.44,.33-.25,0-.42,.11-.47,.36,0,0-.01,0-.01,0-2.33,1.03-4.19,2.79-6.32,4.14-1.78,1.13-3.68,2.12-5.26,3.56-.24,.15-.49,.3-.73,.44-.29-.07-.45,.05-.53,.32-.12,.02-.2,.08-.26,.18-.23-.05-.39,.03-.44,.27,0,0,0,0,0,0-.26-.03-.44,.07-.52,.32-.54,.21-1.06,.45-1.48,.86Z"/>
  <path class="cls-5" d="M239.59,105.2c.08-.27,.24-.39,.53-.32-.09,.25-.26,.36-.53,.32Z"/>
  <path class="cls-5" d="M238.88,105.65c.05-.24,.21-.32,.44-.27-.06,.23-.21,.31-.44,.27Z"/>
  <path class="cls-5" d="M238.36,105.98c.09-.25,.26-.36,.52-.32-.08,.26-.25,.38-.52,.32Z"/>
  <path class="cls-5" d="M254,95.56c.12-.49,.49-.65,.94-.71,.01,.13,.03,.26,.03,.39-.28,.25-.59,.4-.98,.32Z"/>
  <path class="cls-9" d="M241.9,99.22c-.26,.36-.56,.6-1.03,.4,.17-.59,.62-.45,1.03-.4Z"/>
  <path class="cls-5" d="M253.34,96.05c.03-.25,.19-.32,.42-.31-.05,.23-.17,.35-.42,.31Z"/>
  <path class="cls-5" d="M252.43,96.74c.05-.26,.22-.36,.47-.36-.05,.25-.2,.38-.47,.36Z"/>
  <path class="cls-8" d="M209.18,118.48c.08-.55,.66-.69,.91-1.11,2.75-.81,5.25-2.2,7.85-3.37,.67-.3,1.3-.66,1.97-.97,.47-.21,1.01-.6,1.39,.07,.31,.55,.33,1.18-.09,1.69-.24,.3-.61,.52-.97,.68-3.07,1.42-6.15,2.82-9.22,4.24-.5,.23-.89,.3-1.11-.32-.14-.4-.4-.68-.73-.93Z"/>
  <path class="cls-8" d="M196.74,123.83c-.03,.43,.09,.8,.44,1.08,0,.14,0,.27,0,.41-.46,.24-.93,.48-1.39,.72-.2,.08-.4,.15-.6,.23-.21-.06-.38-.03-.49,.18,0,0-.01,0-.01,0-2.31,.79-4.61,1.59-6.92,2.37-.68,.23-1.37,.57-1.84-.42-.35-.73-.42-1.18,.49-1.49,1.88-.64,3.72-1.36,5.59-2.02,.31-.11,.64-.16,.83-.48,.79-.2,1.58-.42,2.3-.82,.14-.05,.28-.1,.43-.15,.45-.05,.84,.08,1.17,.4Z"/>
  <path class="cls-5" d="M195.8,126.03c.46-.24,.93-.48,1.39-.72-.11,.92-.76,.81-1.39,.72Z"/>
  <path class="cls-5" d="M194.7,126.44c.11-.21,.28-.24,.49-.18-.11,.2-.27,.26-.49,.18Z"/>
  <path class="cls-6" d="M195.57,123.43c-.14,.05-.29,.1-.43,.15,.08-.21,.22-.27,.43-.15Z"/>
</svg>