<?xml version="1.0" encoding="utf-8"?>
<!-- Generator: Adobe Illustrator 28.1.0, SVG Export Plug-In . SVG Version: 6.00 Build 0)  -->
<svg version="1.1" id="Layer_1" xmlns="http://www.w3.org/2000/svg" xmlns:xlink="http://www.w3.org/1999/xlink" x="0px" y="0px"
	 viewBox="0 0 24 24" style="enable-background:new 0 0 24 24;" xml:space="preserve">
<style type="text/css">
	.st0{fill:#868686;}
</style>
<g>
	<path class="st0" d="M16.4,2.1H7.9c-2.8,0-5.1,2.3-5.1,5.1v9.7c0,2.8,2.3,5.1,5.1,5.1h8.5c2.8,0,5.1-2.3,5.1-5.1V7.2
		C21.5,4.4,19.2,2.1,16.4,2.1z M20.2,16.9c0,2.1-1.7,3.8-3.8,3.8H7.9c-2.1,0-3.8-1.7-3.8-3.8V7.2c0-2.1,1.7-3.8,3.8-3.8h8.5
		c2.1,0,3.8,1.7,3.8,3.8V16.9z"/>
	<rect x="6.9" y="7.8" class="st0" width="3.2" height="1.2"/>
	<rect x="6.9" y="15.8" class="st0" width="5.3" height="1.2"/>
	<rect x="6.9" y="11.8" class="st0" width="8.4" height="1.2"/>
</g>
</svg>
