<?xml version="1.0" encoding="UTF-8"?>
<svg id="Layer_1" data-name="Layer 1" xmlns="http://www.w3.org/2000/svg" viewBox="0 0 414 200">
  <defs>
    <style>
      .cls-1 {
        fill: #e7e2db;
      }

      .cls-2 {
        fill: #fff9b8;
      }

      .cls-3 {
        fill: #fff200;
      }

      .cls-4 {
        fill: #fbb040;
      }

      .cls-5 {
        fill: #fdfdfd;
      }

      .cls-6 {
        fill: #9ed2f1;
      }

      .cls-7 {
        fill: #91bfdc;
      }

      .cls-8 {
        fill: #c6c0ba;
      }

      .cls-9 {
        fill: #45413c;
      }

      .cls-10 {
        fill: #6d655b;
      }

      .cls-11 {
        fill: #5b5552;
      }

      .cls-12 {
        fill: #35302d;
      }

      .cls-13 {
        fill: #4c4743;
      }

      .cls-14 {
        fill: #524e49;
      }
    </style>
  </defs>
  <path class="cls-2" d="M302.52,145.08c-.26-.07-.52-.14-.78-.22-.89-.38-1.78-.76-2.67-1.14-10.07-4.14-20.13-8.29-30.21-12.41-6.06-2.48-12.14-4.89-18.21-7.35-1.57-.63-1.78-4.3-.25-6.25,.45-.57,1.37-.76,2.08-1.12,1.1,.42,2.2,.83,3.31,1.25,.22,.13,.45,.25,.67,.38,.22,.18,.42,.44,.67,.54,9.77,3.93,19.54,7.87,29.32,11.77,13.74,5.49,27.49,10.93,41.23,16.42,12.75,5.1,25.5,10.22,38.22,15.39,5.09,2.07,10.13,4.28,15.19,6.43-.95,1.49-1.88,2.98-2.85,4.45-.41,.62-.9,1.19-1.35,1.78-.47-.09-.98-.11-1.42-.29-12.33-5.03-24.64-10.11-36.98-15.12-11.98-4.87-23.98-9.68-35.98-14.52Z"/>
  <path class="cls-13" d="M296.28,102.32c-.05-.3-.1-.6-.15-.91,7.27-1.81,14.36-4.12,21.41-7.74-4.88-3.45-9.83-3.91-14.9-2.3-3.24,1.03-6.29,2.68-9.43,4.05-.25-.22-.51-.45-.76-.67,.74-.54,1.48-1.09,2.96-2.17-3.41-1.41-6.2-2.8-9.13-3.71-5.08-1.59-10.13-.37-15.14,.72-.38-.23-.76-.46-1.15-.69,3.68-.69,7.41-2.16,11.02-1.9,5.31,.38,10.3-.86,15.43-1.46,7.55-.88,15.06-.93,22.24,2.23,1.05,.46,2.25,.93,2.97,1.76,2.87,3.35,7.29,3.53,10.7,5.72,5.92,3.8,7.92,11.45,4.39,17.97-.38,.7-.7,1.87-.39,2.44,2.86,5.17,1.53,10.06-.93,14.76-1.34,2.56-3.18,4.85-4.83,7.24-1.81,2.62-.63,6.61,2.24,7.76,14.97,5.99,29.93,12,44.9,18,1.79,.72,3.62,1.31,5.36,2.12,.45,.21,.61,1.06,.9,1.62-11.55-4.59-23.09-9.22-34.66-13.77-6.27-2.47-12.58-4.82-18.86-7.22h0c-2.14-.8-4.27-1.6-6.41-2.39h.02c-.32-.31-.59-.78-.98-.94-8.42-3.41-16.83-6.85-25.3-10.13-2.81-1.09-5.77-1.79-8.66-2.66l.03,.02c-1.76-1-3.51-2-5.27-3,.15-.6,.31-1.19,.46-1.79,1.4,.84,2.74,1.82,4.21,2.5,5.56,2.54,11.26,4.5,17.64,4.09-.04-.84-.08-1.61-.12-2.38,.34,0,.67,0,1.01,0,.65,.28,1.4,.93,1.94,.78,1.65-.47,3.23-1.24,5.62-2.22-3.11-1.07-5.59-1.93-8.08-2.78,0-.37,0-.74,0-1.11,.2-1.73,.66-3.47,.54-5.17-.32-4.5-3.46-7.54-5.81-10.97,.76,.39,1.52,.78,2.28,1.17,4.11,4.01,6.24,8.86,6.06,15,1.49-2.12,2.8-4.25,3.27-6.56,1.15-5.66,0-10.92-3.44-15.64-2.05-2.82-4.57-2.89-6.89,.09-.28,0-.57-.01-.85-.02-1.83,.1-3.66,.19-5.49,.29Zm39.36,9.41c1.29-2.74,1.33-6.05,.35-9.52-1.04-3.66-3.39-5.85-6.74-7.07-7.07-2.57-13.1,.75-19.62,3.6,2.76,2.83,5.98,3.49,9.32,3.92,1.9,.24,4.1,.04,5.61,.98,3.83,2.39,7.35,5.31,11.09,8.08Zm-7.26,25.55c7.51-5.27,11.69-19.99,2.23-27.71-1.07,4.91-2.53,10.06-3.23,15.31-.54,4.04-2.51,8.39,1,12.4Zm-7.85-33.59c-.33,.25-.66,.51-.98,.76,.52,6.1,.94,12.21,1.63,18.3,.27,2.39,1.77,2.98,3.7,1.66,.88-.6,1.91-1.68,2.01-2.64,.48-4.62,.72-9.27,.9-13.92,.02-.62-.64-1.58-1.22-1.84-1.96-.9-4.03-1.56-6.05-2.32Zm-8.07,33.63c3.29,1.29,5.95,2.34,8.71,3.42,3.31-4.33,3.29-9.51,4.15-14.54-1.41,0-2.91,.48-3.58-.09-2.43-2.03-3.45-.03-4.32,1.49-1.73,3-3.18,6.17-4.96,9.71Zm11-44.63c-7.45-7.94-25.68-7.32-33.64-4.33,1.06,.57,2.22,1.05,3.23,1.76,2.25,1.59,4.2,1.94,7.04,.7,5.5-2.4,11.42-2.61,16.69,.78,2.19,1.41,4.07,1.82,6.68,1.1Zm-12.4,32.28c1.01,.63,1.7,1.17,2.48,1.53,2.02,.94,6.44-2.06,6.14-4.24-.57-4.1-1.28-8.17-1.95-12.34-5.03,3.65-1.98,11.03-6.66,15.05Zm6.76-21.01c-1.85-.44-3.79-.91-5.72-1.37,.98,2.77,1.87,5.29,2.85,8.06,2.13-1.89,4.1-3.45,2.87-6.68Zm-12.47,30.43c2.25,.94,3.82,1.6,5.84,2.44,.98-2.13,1.95-4.21,2.91-6.3-.27-.29-.53-.58-.8-.86-2.43,1.44-4.86,2.89-7.95,4.72Zm20.47,1.1c-.31,.14-.63,.28-.94,.42-.53,1.77-1.06,3.54-1.68,5.61,1.7,.66,3.29,1.27,5.67,2.2-1.21-3.27-2.13-5.75-3.05-8.24Z"/>
  <path class="cls-4" d="M176.89,97.55c-2.26-2.06-4.97-3.79-5.47-7.63,2.19,.28,4.06,.52,5.92,.76,.04-.3,.08-.59,.12-.89-.4-.15-.8-.31-1.21-.46,1.34,.25,2.68,.5,4.01,.75,1.29,.15,2.64,.61,3.86,.38,3.79-.7,7.52-1.73,11.3-2.53,13.46-2.84,26.97-5.05,40.75-2.5,1.77,.69,3.54,1.38,4.94,1.92-1.37,1.67-2.55,3.3-3.94,4.73-.5,.51-1.64,.93-2.22,.69-6.9-2.9-13.94-1.85-20.87-.63-9.51,1.68-18.93,3.87-28.39,5.79-1.31,.27-2.7,.19-4.01,.44"/>
  <path class="cls-4" d="M163.49,19.76c1.62-.18,3.25-.35,4.87-.53,.28,.76,.77,1.52,.8,2.29,.28,7.74,.29,15.5,.77,23.23,.5,8.11,1.24,16.22,2.22,24.29,.53,4.33,1.77,8.58,2.75,13.15-2.65-.71-4.8-1.22-6.9-1.89-.56-.18-1.25-.75-1.42-1.29-.75-2.41-1.6-4.84-1.94-7.33-1.22-8.8-2.51-17.61-3.29-26.46-.64-7.31-.6-14.69-.85-22.03,2.16-.07,3.02-1.34,3-3.43Z"/>
  <path class="cls-13" d="M160.49,23.18c.26,7.35,.21,14.72,.85,22.03,.78,8.85,2.06,17.66,3.29,26.46,.35,2.49,1.19,4.92,1.94,7.33,.17,.54,.86,1.11,1.42,1.29,2.1,.67,4.25,1.18,6.9,1.89-.98-4.57-2.23-8.82-2.75-13.15-.98-8.07-1.72-16.18-2.22-24.29-.47-7.73-.48-15.49-.77-23.23-.03-.77-.52-1.53-.8-2.29,.56-.07,1.12-.13,1.89-.23,.06,.77,.14,1.42,.17,2.08,.59,12.31,.88,24.64,1.86,36.91,.57,7.17,2.14,14.27,3.49,21.36,.48,2.5,1.61,4.86,4.66,5.21,.55,.06,1.06,.45,1.58,.72,4.27,2.22,8.49,2.31,13.32,1.4,9.67-1.83,19.51-2.83,29.33-3.62,3.81-.31,7.74,.88,11.62,1.38-.03,.33-.06,.65-.09,.98-13.78-2.55-27.28-.34-40.75,2.5-3.78,.8-7.51,1.82-11.3,2.53-1.22,.23-2.57-.24-3.86-.38,.67-.42,1.33-.84,2.09-1.32-.44-2.95-2.81-3-4.91-3.43-1.03-.42-2.06-.85-3.09-1.27-4.03-1.08-8.06-2.17-12.09-3.25-1.04,.11-2.1,.12-3.11,.35-2.5,.57-3.12,2.21-1.44,4.23,2.73,3.29,5.95,5.94,10.25,7.42,.1-1.68,.2-3.19,.32-5.11,1.28,.15,2.38,.19,3.44,.42,1.53,.33,3.02,.81,4.53,1.22,.4,.15,.8,.31,1.21,.46-.04,.3-.08,.59-.12,.89-1.86-.24-3.73-.48-5.92-.76,.5,3.84,8.32,7.02,10.58,9.09-1,2-10.05-3.88-11.76-6.67-.63,2.21-1.81,2.38-3.61,1.5-3.82-1.89-7.59-3.87-9.95-7.64-2.32-3.7-1.21-5.96,3.02-6.55,1.51-.21,3.05-.2,4.95-.3-3.44-16.56-5.05-33.28-5.42-50.13,.05-3.01,.09-6.02,.14-9.03,.2,0,.41,.01,.61,.02,.17,1,.34,1.99,.51,2.99Z"/>
  <path class="cls-13" d="M108.81,162.33c.24-.29,.48-.59,.72-.88,.37,2.24,.75,4.47,1.11,6.65,1.55-.28,3.34-.6,5.14-.92,.32,.26,.65,.51,.97,.77-1.14,.37-2.28,.74-3.42,1.1-4.44,1.64-8.89,3.28-13.33,4.92,.03,.4,.07,.8,.1,1.2,1.61,.47,3.18,1.13,4.82,1.37,5.65,.85,10.83-1.31,16.09-2.87,.36,.19,.73,.39,1.09,.58-2.31,1.68-.63,2.86,.65,3.65,1.85,1.13,3.91,1.88,5.89,2.79-.02,.42-.04,.85-.05,1.27-.98,.01-1.95,.02-2.93,.04-.45-.54-.9-1.09-1.35-1.63-1.29-.96-2.94-1.67-3.77-2.94-1.07-1.63-2.01-1.58-3.59-1.12-6.07,1.73-12.18,3.33-18.1-.67-.34-.23-1.01,.04-1.52,.07-.09,.26-.19,.52-.28,.77,2.66,1.38,5.2,3.47,8.01,3.97,5.35,.95,10.85,1,16.29,1.42,.28,.26,.56,.51,.84,.77-.3,.04-.6,.08-.89,.12-.28,.08-.55,.15-.83,.23-4.95-.26-9.91-.54-14.86-.76-2.42-.11-4.85-.1-7.28-.15,.39-.73,.78-1.47,1.24-2.33,.13,.12-.05-.09-.28-.25-4.03-2.84-7.32-6.1-6.78-11.75,.05-.49-.51-1.29-.99-1.56-2.93-1.6-7,.99-7.02,4.4-.02,4.23,2.64,7.82,6.71,9.4,.95,.37,1.66,1.37,2.49,2.09-1.84-.73-3.65-1.53-5.52-2.15-1.36-.45-2.87-1.1-4.2-.9-10.8,1.62-21.6,1.53-32.39,.19-1.65-.2-3.54-1.28-4.67-2.55-2.19-2.46-.16-6.27,3.57-6.61,2.97-.27,5.99,.1,8.98,.08,6.95-.05,13.9-.11,20.84-.33,.99-.03,2.06-.84,2.91-1.53,1.79-1.45,3.46-3.06,5.62-5,.32-1.52,.91-3.9,1.25-6.32,.11-.76-.35-1.66-.69-2.43-1.09-2.48-2.25-4.92-3.39-7.38,.43-.52,.86-1.03,1.28-1.55,3.13,10.75,11.05,17.21,19.22,23.23,3.64-1.47,2.53-4.12,2.28-6.5Zm-57.02,8.99c-.91,.04-1.81,.09-3.12,.15,.65,.82,1.02,1.29,1.48,1.87-.94,.26-1.67,.46-2.4,.66,0,.31,.02,.63,.02,.94,2.7,.17,5.4,.33,8.09,.5-.44,.41-.86,1.14-1.33,1.19-1.61,.15-3.24,.06-4.98,.06,3.29,2.69,29.04,2.91,35.45,.31-.92-1.99-1.84-3.97-2.68-5.76-5.6,.27-10.99,.7-16.38,.73-4.72,.02-9.43-.41-14.15-.64Zm54.07-1.46c-2.88-2.59-6.09-3.09-9.51-2.3-.91,.21-2.46,1.22-2.39,1.55,.39,1.76,1.05,3.52,2,5.03,.23,.36,1.99,.01,2.87-.41,2.31-1.12,4.51-2.46,7.03-3.87Zm-6.47-4.32c-2.46-2.7-4.81-5.27-7.16-7.84-.31,.08-.61,.16-.92,.23-.23,1.99-1.36,4.61-.53,5.83,1.94,2.83,5.17,3.28,8.6,1.78Z"/>
  <path class="cls-6" d="M260.52,89.09c.51,.88,1.17,1.67,2,2.79-3.36-.22-6.33-.41-9.3-.61,0,.2-.02,.4-.03,.59,6.23,1.28,12.46,2.56,19.16,3.94-1.71,2.57-3.07,2.87-5.19,2.38-6.75-1.58-12.74,.67-18.15,4.69-2.14,1.59-3.93,3.66-5.97,5.4-.25,.22-1.04-.23-1.58-.36-.57-1.18-1.15-2.35-1.72-3.53l-.61-.18c-.02-.35-.04-.69-.06-1.04,6.91-5.16,11.91-9.16,13.91-13.16,1.52-2.6,3.24-4,5-2"/>
  <path class="cls-12" d="M261.24,84.04c-1.76-2-2.94-2.01-4.46,.59-4.44,7.58-10.52,13.63-17.69,18.54-2.58,1.29-5.16,2.57-7.74,3.86-3.23,.51-6.47,1.01-9.7,1.52,0,0,.02,.02,.02,.02,1.54-.98,3.08-1.95,4.61-2.93,4.58,.13,8.17-2.36,11.8-4.72l1.08-1.2c1.74-1.22,3.49-2.44,5.23-3.66,.3-.32,.61-.64,.91-.96,.23-.3,.47-.6,.7-.9,2.19-2.48,4.39-4.94,6.54-7.46,.19-.22-.01-.78-.03-1.18,0,0-.07,0-.07,0,1.29-1.32,2.58-2.64,4.11-4.2-1.72-.96-2.94-1.64-4.91-2.74,4.15-2.4,7.73-4.47,11.31-6.55,.39,.03,.78,.05,1.16,.08-.21,3.41-.47,6.82-.6,10.23-.07,1.72-1.01,1.84-2.28,1.65Z"/>
  <path class="cls-10" d="M381.1,168.78c-5.06-2.15-10.1-4.36-15.19-6.43-12.73-5.17-25.47-10.29-38.22-15.39-13.74-5.5-27.49-10.94-41.23-16.42-9.78-3.9-19.55-7.84-29.32-11.77-.25-.1-.45-.36-.67-.54,.46-.21,.91-.41,1.37-.62,.56,.18,1.12,.35,1.68,.53,0,0-.05-.03-.05-.03,2.54,1,5.07,2,7.61,3,0,0-.03-.02-.03-.02,2.34,1.01,4.68,2.01,7.02,3.02,0,0-.05-.03-.05-.03,.79,.21,1.59,.42,2.38,.63,0,0-.04-.03-.04-.03,.4,.2,.8,.41,1.2,.61,0,0-.03-.02-.03-.02,1.17,.4,2.34,.81,3.52,1.21h-.02c.39,.19,.79,.39,1.18,.59h-.01c2.33,1,4.67,2,7,3,0,0-.03-.02-.03-.02,.09,.16,.15,.42,.28,.47,8.3,3.37,16.58,6.79,24.91,10.06,3.18,1.25,6.49,2.16,9.74,3.22,0,0-.02-.01-.02-.01,2.14,.8,4.27,1.59,6.41,2.39,0,0,0,0,0,0,1.27,.78,2.46,1.75,3.82,2.3,15.1,6.12,30.23,12.15,45.32,18.28,1,.41,1.75,1.47,2.62,2.23-.38-.07-.77-.14-1.15-.21Z"/>
  <path class="cls-14" d="M166.71,117.32c-.33,.52-.66,1.05-.99,1.57-1.07-1.23-1.96-2.73-3.24-3.66-6.22-4.53-12.85-8.32-20.4-9.9-5.28-1.1-10.55-1.18-15.03,2.02v2.48c-8.39-1.97-16.58-1.06-24.66,1.72-.26-.23-.51-.46-.77-.7,6.15-3.14,12.71-3.66,19.45-3.39,1.49,.06,3.19-.38,4.49-1.14,6.03-3.49,12.32-3.43,18.82-1.98,2.52,.56,5.12,.7,7.65,1.2,2.99,.59,5.95,1.37,8.93,2.02,1.02,.22,2.07,.28,3.11,.42,0,.37,0,.74,0,1.11-2.03,.3-4.07,.6-6.12,.9,2.98,2.5,5.87,4.92,8.75,7.34Zm-15.18-10.84c2.63,2.61,4.83,3.08,8.06,1.45-2.87-.51-5.08-.91-8.06-1.45Z"/>
  <path class="cls-6" d="M93.68,182.07c-.82-.71-1.54-1.72-2.49-2.09-4.07-1.57-6.73-5.16-6.71-9.4,.02-3.42,4.08-6.01,7.02-4.4,.48,.26,1.04,1.06,.99,1.56-.55,5.66,2.75,8.91,6.78,11.75,.22,.16,.41,.37,.28,.25-.46,.86-.85,1.6-1.24,2.33-1.54,0-3.09,0-4.63,0Z"/>
  <path class="cls-14" d="M177.03,178.67c.37-.08,.74-.16,1.11-.25,3.78,3.25,8.08,5.41,13,5.83,3.56,.31,7.16,.14,10.74,.19,0,.35-.01,.71-.02,1.07-6.03,.98-11.9,.55-17.7-1.6-1.64-.61-3.6-.64-5.38-.47-7.54,.76-15.04,1.35-22.41-1.2-.79-.27-1.72-.1-2.59-.13-.27-.26-.55-.53-.82-.79-.95-1.15-1.9-2.31-2.86-3.46,.21-.26,.41-.51,.62-.77,8.8,7.43,18.96,5.78,29.16,4.9-1.1-1.28-1.98-2.3-2.85-3.32Z"/>
  <path class="cls-14" d="M87.3,145.59c-.43,.51-.86,1.03-1.28,1.55-.87-3.26-1.35-6.53-3.19-9.62-1.04-1.75,.02-4.89,.33-7.38,.18-1.49,1-2.91,1.09-4.39,.22-3.83,.06-7.6,3.22-10.61,3.17-3.03,6.73-3.99,10.86-3.49-.33,.57-.66,1.15-.98,1.72-3.25-.98-7.1,.43-9.08,3.07-2.8,3.73-3.28,7.79-2.06,12.2-.06,.54-.13,1.08-.19,1.62-.51,.39-1.34,.7-1.48,1.2-1.57,5.64,1.07,10.37,6.82,12.44,0,.36,0,.72,0,1.08-1.3-.35-2.6-.7-4.05-1.09v1.71Z"/>
  <path class="cls-2" d="M382.24,168.99c-.87-.76-1.62-1.82-2.62-2.23-15.09-6.13-30.22-12.16-45.32-18.28-1.36-.55-2.55-1.52-3.82-2.3,6.29,2.4,12.6,4.75,18.86,7.22,11.57,4.55,23.11,9.18,34.66,13.77-.29,.91,.29,2.7-1.76,1.83Z"/>
  <path class="cls-13" d="M152.96,181.32c.27,.26,.55,.53,.82,.79-7.62,1.24-15.26,1.75-22.91,.25-.16-.4-.33-.79-.49-1.19,.71,.06,1.42,.12,2.14,.18-.06,.07-.12,.13-.19,.2,.04-.07,.09-.13,.13-.2,5.31,.1,10.62,.19,15.92,.29l3.47-.28c.37-.02,.74-.03,1.11-.05Z"/>
  <path class="cls-9" d="M97.34,113.37c.33-.57,.66-1.15,.98-1.72,1.1-.26,2.2-.53,3.29-.79,.26,.23,.51,.46,.77,.7-2.83,1.53-5.16,3.51-6.16,6.82-.1,.34-.95,.45-1.45,.67l2.57-5.68Z"/>
  <path class="cls-4" d="M160.49,23.18c-.17-1-.34-1.99-.51-2.99,1.17-.15,2.34-.29,3.5-.44,.03,2.09-.83,3.36-3,3.43Z"/>
  <path class="cls-9" d="M189.56,106.87c.61,.41,1.23,.82,1.84,1.23-2.17,.43-4.39,1.65-6.38-.45,1.51-.26,3.02-.52,4.54-.78Z"/>
  <path class="cls-9" d="M164.07,109.08c0-.37,0-.74,0-1.11,2.13,0,4.26,0,6.4,0,0,.37,0,.74-.01,1.11-2.13,0-4.26,0-6.38,.01Z"/>
  <path class="cls-11" d="M122.17,182.63c-.28-.26-.56-.51-.84-.77,.99-.5,1.98-1,2.97-1.5,.45,.54,.9,1.09,1.35,1.63-1.16,.21-2.32,.43-3.48,.64Z"/>
  <path class="cls-9" d="M181.51,107.43c.32,.35,.65,.7,.97,1.05-.05,.21-.1,.43-.15,.64-.86-.18-1.73-.37-2.59-.55,.25-.93,.15-2.45,1.77-1.14Z"/>
  <path class="cls-11" d="M130.38,181.18c.16,.4,.33,.79,.49,1.19-.76-.14-1.52-.28-2.28-.41,.02-.42,.04-.85,.05-1.27,.58,.16,1.16,.33,1.74,.49Z"/>
  <path class="cls-1" d="M264.12,72.16c-.39-.03-.78-.05-1.16-.08,.16-.29,.33-.58,.49-.87,.22,.32,.45,.64,.67,.95Z"/>
  <path class="cls-13" d="M246.56,185.07c.59,.09,1.19,.18,1.78,.27-.59-.09-1.19-.18-1.78-.27Z"/>
  <path class="cls-14" d="M170.45,109.07c0-.37,0-.74,.01-1.11,.19,0,.38-.01,.58-.02,0,.38,0,.77,.01,1.15-.2,0-.4-.02-.6-.03Z"/>
  <path class="cls-11" d="M120.45,182.98c.27-.08,.55-.15,.83-.23-.27,.08-.55,.15-.83,.23Z"/>
  <path class="cls-13" d="M244.73,184.5c.25,.09,.49,.18,.74,.27-.25-.09-.49-.18-.74-.27Z"/>
  <path class="cls-14" d="M203.09,185.28c.24-.06,.47-.12,.71-.18-.24,.06-.47,.12-.71,.18Z"/>
  <path class="cls-13" d="M237.92,84.7c-.3-.03-.61-.06-.91-.1,.3,.03,.61,.07,.91,.1Z"/>
  <path class="cls-6" d="M94.77,119.05c.5-.22,1.35-.33,1.45-.67,.99-3.31,3.32-5.3,6.16-6.82,8.07-2.78,16.27-3.69,24.66-1.72,0,0-.04-.01-.04-.01,3.13,1.44,6.27,2.86,9.37,4.36,.57,.27,1.22,.79,1.43,1.34,.52,1.42,.8,2.93,1.18,4.41-1.43,.3-2.9,1-4.27,.83-3.42-.44-6.8-1.28-10.19-1.96-4.68,.05-9.36,.03-14.04,.22-.89,.04-1.76,.92-2.63,1.41-.23,.02-.46,.03-.7,.05-3.66,1.11-7.32,2.23-11.39,3.46,.07-1.4,.24-2.55,.12-3.66-.05-.49-.71-.91-1.09-1.36,0,0-.01,.11-.01,.11Z"/>
  <path class="cls-4" d="M259.36,128.67c-4.98,7-12.99,8.24-18.95,3.34-.57-.47-1.17-1.09-1.39-1.77-1.7-5.28-2.05-10.46,1.61-15.15,2.67-3.42,5.28-6.91,8.14-10.16,1.17-1.33,2.91-2.13,4.9-3.53,.16,4.83-1.15,8.66-2.67,12.45-1.01,2.52-2.27,4.98-2.94,7.59-.69,2.67,.6,3.82,3.18,4.43,2.67,.63,5.22,1.78,8.13,2.81Z"/>
  <path class="cls-6" d="M127.01,109.82s.04,.01,.04,.01c0-.72,0-1.44,0-2.48,4.48-3.2,9.75-3.12,15.03-2.02,7.55,1.58,14.18,5.37,20.4,9.9,1.28,.93,2.17,2.43,3.24,3.66-1.34,2.59-3.23,3.49-6.18,2.32-3.18-1.27-6.15-3.09-9.3-4.47-2.37-1.04-4.86-2.45-7.31-2.46-4.39-.02-7.36-3.12-11.15-4.3-1.29-.4-2.58-.82-3.89-1.09-.23-.05-.59,.6-.89,.93Z"/>
  <path class="cls-6" d="M221.74,170.7c-1.92,2.2-3.76,2.33-6.15,.43-5.83-4.64-10.95-9.76-12.74-17.42-.46-1.97-.38-4.08-.52-5.82,5.43-2.95,7.68,1.29,10.49,4.17,.54,.56,.96,1.24,1.44,1.86,3.87,4.95,7.84,9.84,7.48,16.78Z"/>
  <path class="cls-3" d="M222.75,122.87c-1.95,1.66-3.78,1.17-6.09,.37-5.73-2-11.62-3.54-17.51-5.01-2.88-.72-5.74-.92-8.22-3.12-1.89-1.68-4.53-2.46-6.76-4.01,12.08-3.78,23.05-.04,33.79,5.34,.45,.18,.9,.36,1.36,.54,0,0-.03-.02-.03-.02,.21,.2,.41,.39,.62,.59,.71,.84,1.42,1.68,2.13,2.52,.24,.93,.47,1.87,.71,2.8Z"/>
  <path class="cls-6" d="M174.26,146.71c1.88-.37,3.57-1.16,5.03-.85,1.4,.29,2.69,1.6,3.83,2.68,3.98,3.8,7.96,7.68,9.48,13.29,.51,1.87,.66,3.92,.61,5.87-.06,2.24-2.69,3.57-4.38,2.17-1.87-1.55-3.37-3.55-5.14-5.24-1.2-1.14-2.77-1.91-3.85-3.14-3.62-4.13-5.89-8.87-5.58-14.79Z"/>
  <path class="cls-6" d="M145.75,145.89c2.18,0,3.8-.12,5.39,.05,.87,.09,1.84,.48,2.51,1.04,4.97,4.18,8.83,9.33,11.91,15.09,.58,1.08,.78,2.49,.78,3.75,0,1.08-.33,2.94-.86,3.08-1.54,.4-3.66,.76-4.82-.02-5.62-3.8-10.25-8.76-13.23-14.99-1.13-2.36-1.14-5.29-1.68-8.01Z"/>
  <path class="cls-6" d="M118.24,146.15c6.51-2.2,9.2,2.18,11.89,5.39,2.98,3.55,5.12,7.88,7.29,12.06,.52,1,.17,3.36-.62,3.99-1.45,1.15-3.25,2-5.41,.31-5.04-3.95-9.73-8.24-12.4-14.18-1.02-2.27-.56-5.25-.75-7.56Z"/>
  <path class="cls-6" d="M273.96,158.75c1,3.56,2.01,7.12,2.93,10.37-4.49,3.21-6.68-.23-9.25-1.88-1.35-.86-2.44-2.15-3.65-3.25-.32-.42-.63-.85-.95-1.27-3.47-4.06-4.86-8.78-4.27-14.14,.41-.37,1.06-1.14,1.2-1.05,3.56,2.25,8.84,1.42,10.89,6.35l.02-.02c.07,.12,.17,.23,.28,.32h-.02c.94,1.53,1.88,3.05,2.82,4.57Z"/>
  <path class="cls-6" d="M170.45,109.07c.2,0,.4,.02,.6,.03,6.95,.98,13.35,3.57,19.3,7.3,1.6,1,3.5,2.17,2.32,4.64-1.03,2.15-3.27,2.66-5.5,1.25-6.3-3.96-13.27-4.92-20.46-4.97-2.89-2.42-5.77-4.84-8.75-7.34,2.05-.3,4.08-.6,6.12-.9,2.13,0,4.26,0,6.38-.01Z"/>
  <path class="cls-6" d="M235.08,164.03c-1.93-3.56-4.07-7.02-5.69-10.72-.76-1.74-.5-3.94-.69-5.81,2.84,.44,5.15,.78,7.44,1.17,.44,.07,.99,.23,1.24,.56,3.91,5.06,8.34,9.86,8.89,16.78,.15,1.84,.02,3.71,.02,5.56-.31,.24-.62,.49-.93,.73-2.07-1.34-4.13-2.68-6.2-4.02-1.37-1.42-2.74-2.83-4.1-4.25Z"/>
  <path class="cls-6" d="M87.3,145.59v-1.71c1.44,.39,2.75,.74,4.05,1.09,5.64,.64,8.32,5.39,11.65,9.1,2.22,2.48,3.89,5.49,5.81,8.26,.24,2.38,1.35,5.03-2.28,6.5-8.18-6.02-16.09-12.48-19.22-23.23Z"/>
  <path class="cls-6" d="M204.2,169.49c3.68,.59,7.45,.91,10.35,3.89-9.54,4.8-29.3,9.58-33.11,1.26,5.11-1.55,10.15-3.07,15.19-4.59,2.52-.18,5.05-.37,7.57-.55Z"/>
  <path class="cls-6" d="M150.09,174.26c-2.6,.55-5.18,1.27-7.81,1.62-3.99,.53-8,1.02-12.02,1.09-2.2,.04-4.1-1.29-5.98-3.54,11.98-3.18,22.8-10.21,34.88-3.82,.06,.3,.12,.61,.18,.91-2.75,.86-5.52,1.7-8.25,2.62-.41,.14-.68,.73-1.01,1.11,0,0,0,0,0,0Z"/>
  <path class="cls-6" d="M287.99,98.44c-2.21,1.26-4.45,2.47-6.63,3.79-3.6,2.2-6.95,5.05-10.81,6.52-2.66,1.02-5.99,.24-9.02,.11-.46-.02-1.18-.82-1.24-1.32-.06-.51,.42-1.3,.89-1.63,4.49-3.13,8.9-6.42,13.6-9.19,4.32-2.55,9.15-1.95,13.85-1.01,.25,.05,.33,.99,.49,1.52,0,0,.03-.01,.03-.01-.19,.2-.39,.4-.58,.61,0,0-.01,.02-.01,.02-.24,.03-.48,.05-.71,.08,.05,.17,.1,.34,.15,.5v.02Z"/>
  <path class="cls-6" d="M160.69,146c3.46-2.11,6.2,.02,8.49,1.71,2.8,2.06,4.86,5.17,5.22,8.88,.27,2.85,.27,5.77-.05,8.61-.34,3.04-3.31,2.61-5.19,3.02-2.02,.44-1.22-1.82-1.67-2.95-1.36-3.41-2.49-7.05-4.54-10-2.03-2.93-2.42-5.86-2.26-9.27Z"/>
  <path class="cls-6" d="M256.09,166.53c-1.34,3.8-5.1,2.69-7.2,4-.91-3.52-2.03-6.86-2.56-10.29-.32-2.06,.32-4.26,.43-6.41,.08-1.67,.02-3.34,.02-5.01,.7-.66,1.48-1.4,2.27-2.14,.03-.23,.05-.47,.08-.7,1.13,.87,2.25,1.74,3.38,2.61,.38,.6,.77,1.2,1.15,1.8,.68,.82,1.36,1.64,2.04,2.47,.14,.37,.27,.74,.41,1.1,.16,.4,.32,.8,.48,1.2,.18,1.4,.37,2.79,.55,4.19l-1.04,7.18Z"/>
  <path class="cls-6" d="M301.33,108c2.35,3.43,5.49,6.47,5.81,10.97,.12,1.7-.34,3.45-.54,5.17-3.53,.85-4.86-2.24-6.68-4.15-3.26-3.44-6.28-7.11-9.28-10.79-1.37-1.68-2.44-3.62-3.65-5.44,.16-.3,.31-.6,.47-.89,2.85,.34,5.71,.67,8.56,1.01,0,0,.07-.03,.07-.03,.17,.31,.35,.62,.52,.93,1.57,1.08,3.13,2.15,4.7,3.23Z"/>
  <path class="cls-3" d="M226.28,105.63c-1.54,.98-3.07,1.95-4.61,2.93-1.54,1.84-3.08,3.67-4.69,5.59-3.07-1.23-6.07-2.43-8.96-3.59,2.86-5.94,7.24-9.66,13.23-11.21,3.9-1.01,7.85-1.16,11.68,.48,.46,.59,.92,1.18,1.59,2.03-2.42,.91-4.66,1.71-6.85,2.61-.53,.22-.93,.76-1.39,1.16Z"/>
  <path class="cls-6" d="M138.91,167.31c.63-5.64-2.02-9.71-4.91-13.46-2.13-2.77-1.78-5.56-1.77-8.31,1.66-.37,3.26-1.27,4.34-.83,1.63,.67,3.19,2.05,4.27,3.52,3.19,4.39,5.47,9.18,5.33,14.92-.05,2.01-.51,3.13-2.61,3.3-1.42,.12-2.83,.51-4.66,.86Z"/>
  <path class="cls-6" d="M293.21,95.43c3.14-1.37,6.19-3.02,9.43-4.05,5.07-1.61,10.01-1.15,14.9,2.3-7.05,3.62-14.14,5.94-21.41,7.74-3.51,0-7.01,0-10.79,0,.97-1.09,1.81-2.03,2.65-2.97,0,0,0-.02,0-.02,.17,.05,.33,.09,.5,.14,.02-.24,.04-.48,.07-.72,0,0,.01-.02,.01-.02,.21,.01,.41,.02,.62,.03-.01-.21-.03-.43-.04-.64,0,0-.03,.01-.03,.01,1.36-.6,2.72-1.21,4.08-1.81Z"/>
  <path class="cls-6" d="M187.49,171.13c-20.4,7.91-27,8.46-33.56,2.87,8.47-3.8,27.82-8.06,33.56-2.87Z"/>
  <path class="cls-6" d="M301.32,163.53c-.29,1.4,.64,3.03-1.35,4.06-3.12,1.6-4.47,1.49-7.29-3.01-2.7-4.31-4.76-9.05-7.1-13.6-.41-3.13,3.24-1.56,3.48-3.67,5.84,3.18,9.67,7.54,11.19,13.85,.2,.83,.71,1.57,1.07,2.36Z"/>
  <path class="cls-6" d="M115.77,167.18c-1.79,.32-3.59,.64-5.14,.92-.36-2.18-.74-4.42-1.11-6.65-1.46-3.26-2.99-6.5-4.36-9.8-.6-1.45-.91-3.03-1.39-4.69,2.23-.56,3.96-.99,5.76-1.44,6.12,4.77,8.36,11.28,7.3,19.09-.12,.89-.69,1.72-1.06,2.58Z"/>
  <path class="cls-6" d="M163.5,128.43c-1.2-4.69,.47-6.91,5.09-7.61,6.15-.93,12.59-1.48,17.97,2.97,1.33,1.1,2.21,2.79,3.61,4.63h-26.67Z"/>
  <path class="cls-6" d="M191.74,129.04c-.75-4.7,.91-7.38,5.16-7.84,5.92-.64,11.77-.15,17.33,2.42,2.43,1.12,3.39,2.98,3.46,5.42h-25.95Z"/>
  <path class="cls-6" d="M124.5,119.91c2.25,.51,4.57,.83,6.74,1.59,3.19,1.11,3.81,2.42,3.41,6.24h-25.83c0-.62,0-1.57,0-2.52,.03-.13,.02-.24-.05-.36,.37-.24,.96-.39,1.09-.73,1.16-2.95,3.52-3.99,6.33-4.14,2.77-.15,5.54-.06,8.31-.08Z"/>
  <path class="cls-6" d="M217.54,151.58c-.56-2.31,1.25-3.37,2.39-4.78l-.03,.03c3.42,.16,8.52,4.92,8.58,9.5,.05,4.43-.73,8.88-1.22,13.31-.04,.38-.63,.7-.96,1.05-.97,0-1.93-.02-2.9-.03-.04-.38-.07-.75-.11-1.13-.45-1.99-.87-3.99-1.37-5.96-1.05-4.15-5.14-7.13-4.4-11.99Z"/>
  <path class="cls-6" d="M196.64,168.9c-.51-.34-1.49-.71-1.47-1.01,.26-3.49-.48-6.66-2.47-9.5-2.64-3.77-1.65-7.72-.62-11.69,4.19-.54,6.61,1.63,7.72,5.38,1,3.36,1.61,6.85,2.39,10.28-.16,.17-.16,.36-.02,.55-.1,1-.19,2.01-.29,3.01-.91,2.54-3.11,2.69-5.23,2.99Z"/>
  <path class="cls-6" d="M226.32,171.82c5.32-1.01,10.65-2.2,16.11,.69-10.27,5.55-24.91,10.99-31.79,3.99,4.76-1.55,9.36-3.05,13.96-4.55,.57-.04,1.14-.09,1.72-.13Z"/>
  <path class="cls-6" d="M161.06,127.91c-7.88,0-15.39,.01-22.9,0-1.57,0-2.12-.47-1.49-2.33,1.35-4.02,4.21-5.63,7.95-5.34,4.27,.33,8.53,1.07,12.73,1.94,2.98,.61,3.6,3.17,3.71,5.74Z"/>
  <path class="cls-6" d="M282.73,151.58c3.12,3.71,2.18,12.29-.46,15.7-.82,1.06-2.61,1.33-3.47,1.73-1.48-3.91-2.81-7.44-4.15-10.98-.18-1.65-.36-3.3-.54-4.95,.03-.27,.07-.54,.1-.81,.19-1.15,.38-2.3,.58-3.52,2.79,.77,6.36-1.23,7.93,2.83Z"/>
  <path class="cls-6" d="M265.86,169.39c1.59,.62,3.18,1.24,5.42,2.12-7.68,3.67-14.77,6.86-22.86,6.43-2.81-.61-5.62-1.23-8.43-1.84-.06-.34-.11-.68-.17-1.02,5.97-1.88,11.94-3.76,17.91-5.63,1.72-.11,3.43-.21,5.15-.32,.99,.09,1.99,.18,2.98,.27Z"/>
  <path class="cls-6" d="M302.52,147.84c.36,.15,.71,.44,1.07,.43,5.95-.14,6.82,4.2,7.23,8.78,.22,2.51,.04,5.07,.04,7.62-2.83,.55-5.42,1.05-8.14,1.58-.1-.94-.21-1.9-.31-2.86-.55-2.08-1.26-4.14-1.58-6.25-.17-1.13,.32-2.36,.49-3.54,.23-1.66,.42-3.33,.63-5,.15-.15,.2-.33,.15-.54,.18,0,.33-.07,.44-.21Z"/>
  <path class="cls-6" d="M121,173.67c-5.26,1.56-10.44,3.72-16.09,2.87-1.64-.25-3.22-.9-4.82-1.37-.03-.4-.07-.8-.1-1.2,4.44-1.64,8.89-3.28,13.33-4.92,2.56,1.94,5.57,1.41,7.11-1.25,3.67-.48,7.18,0,10.85,1.85-3.69,1.44-6.98,2.73-10.27,4.02Z"/>
  <path class="cls-6" d="M280.41,123.68c-3.29-.35-6.29-.84-7.91-4.63-.81-1.89-2.92-3.17-4.29-4.86-.61-.75-.86-1.81-1.23-2.63,3.36-1.3,6.37-2.46,9.38-3.62,1.14,1.67,2.29,3.32,3.42,5,2.04,3.04,2.36,8.49,.64,10.74Z"/>
  <path class="cls-6" d="M219.93,146.8c-7.41,.73-11.61-5.18-13.8-16.07,3.66,.12,7.78-1.54,9.72,3.53,1.37,2.79,2.73,5.58,4.1,8.36,.06,.4,.11,.8,.17,1.2,0,.2,.02,.39,.03,.59-.08,.81-.16,1.61-.24,2.42,0,0,.03-.03,.03-.03Z"/>
  <path class="cls-6" d="M271.15,89.59c5.01-1.09,10.06-2.31,15.14-.72,2.93,.92,5.72,2.31,9.13,3.71-1.48,1.08-2.22,1.63-2.96,2.17-2.17-.27-4.34-.67-6.51-.77-2.58-.11-5.45-.67-7.68,.26-4.68,1.93-8.44-.31-12.66-2.11,1.85-.85,3.7-1.7,5.55-2.54Z"/>
  <path class="cls-6" d="M278.02,106.18c.09-.04,.18-.07,.27-.12,1.79-.93,4.83-3,5.17-2.6,2.08,2.4,3.91,5.21,5.11,8.19,.8,1.98,.53,4.46,.51,6.71-.02,2.75-1.24,4.49-4.21,4.36-.66-.68-1.87-1.34-1.91-2.06-.27-5.14-1.93-9.59-5.47-13.27,0-.2,.01-.41,.02-.61,.17-.2,.34-.4,.51-.6Z"/>
  <path class="cls-6" d="M123.66,128.5c2.55,.17,4.9-.14,6.88,.6,1.4,.53,2.66,2.3,3.34,3.82,1.02,2.28,1.65,4.79,2.08,7.26,.19,1.1-.17,2.92-.9,3.4-.79,.51-2.48,.15-3.49-.38-4.71-2.47-6.95-6.74-7.74-11.94-.12-.76-.1-1.55-.16-2.76Z"/>
  <path class="cls-6" d="M121.03,141.3c-.99,.99-1.83,2.31-3.01,2.87-1.38,.65-3.09,.92-4.59,.75-.46-.05-1.11-2.12-.99-3.2,.39-3.74,1.04-7.46,1.71-11.16,.11-.6,.78-1.45,1.3-1.54,1.87-.33,3.79-.39,6.15-.58-.2,3.13-.38,5.95-.57,8.76,0,1.37,0,2.74,0,4.1Z"/>
  <path class="cls-6" d="M261.32,140.83c-1.05,2.5-1.2,5.7-4.41,6.6-1.43,.4-2.95,.46-4.43,.68-.06-1.44-.12-2.87-.18-4.31,.48-2.02,.94-4.04,1.45-6.04,1.01-4.02,5.16-6.37,9.31-5.29-.19,1.79-.39,3.59-.58,5.38-.04,.36-.09,.71-.13,1.07-.34,.64-.68,1.28-1.01,1.92Z"/>
  <path class="cls-6" d="M151.57,128.86c3.03,.27,5.55,.06,7.72,.87,1.23,.46,2.27,2.46,2.69,3.98,.74,2.62,1.15,5.39,1.28,8.11,.1,2.14-1.15,2.91-3.29,2.08-3.18-1.24-5.11-3.75-6.32-6.74-.98-2.42-1.31-5.11-2.08-8.3Z"/>
  <path class="cls-6" d="M94.77,119.05s.02-.11,.01-.11q-.84,6-6.42,11.36c-.72-.55-1.44-1.11-2.17-1.66-1.22-4.4-.74-8.46,2.06-12.2,1.98-2.64,5.83-4.05,9.08-3.07-.86,1.89-1.71,3.78-2.57,5.68Z"/>
  <path class="cls-6" d="M248.42,179.01c1.15,.04,2.41,.42,3.43,.07,4.93-1.66,8.14,1.91,11.92,4.54-4.73,.28-9.46,.56-14.19,.84-5.32-1.02-10.42-2.53-14.27-7.47,1.38,0,2.8-.2,4.14,.04,3.01,.54,5.98,1.31,8.97,1.98Z"/>
  <path class="cls-6" d="M130.38,181.18c-.58-.16-1.16-.33-1.74-.49-1.97-.91-4.04-1.66-5.89-2.79-1.29-.78-2.96-1.97-.65-3.65,.62,.12,1.58,.03,1.81,.41,2.2,3.55,5.73,4.05,9.19,3.81,4.12-.29,8.27-1.02,12.24-2.16,2.04-.58,3.44-.78,4.77,.97,0,0-.02-.03-.02-.03-.04,.07-.13,.14-.12,.2,.02,.14,.09,.27,.13,.4,.95,1.15,1.9,2.31,2.86,3.46-.37,.02-.74,.03-1.11,.05-1.16,.09-2.31,.19-3.47,.28-5.31-.1-10.62-.19-15.92-.29,0,0,.05,0,.05,0-.71-.06-1.42-.12-2.14-.18Z"/>
  <path class="cls-6" d="M201.88,184.44c-3.58-.05-7.18,.12-10.74-.19-4.92-.42-9.22-2.59-13-5.83-.12-.19-.25-.39-.37-.58-.12-.16-.23-.33-.35-.49,.76-.69,1.52-1.38,2.41-2.19,2.73,4.63,6.85,5.49,11.04,5.4,3.92-.09,7.87-.77,11.73-1.58,1.74-.36,2.85-.32,4.03,1.13,.76,.93,1.96,1.48,3.39,2.5-2.9,.65-5.52,1.25-8.13,1.84Z"/>
  <path class="cls-6" d="M91.34,143.89c-5.75-2.07-8.38-6.8-6.82-12.44,.14-.5,.97-.8,1.48-1.2,2.21,2.55,4.87,4.24,8.19,4.89,.68,.13,1.55,.81,1.8,1.46,.9,2.27,1.57,4.65,2.42,7.28-1.49,.13-3.32,.28-5.16,.44-.24-.05-.47-.11-.71-.16-.4-.09-.81-.18-1.21-.28Z"/>
  <path class="cls-6" d="M178.76,129.38c2.48,.26,4.96,.49,7.43,.82,.48,.06,1.23,.47,1.31,.84,.82,3.74,1.7,7.49,2.19,11.29,.27,2.08-1.19,2.95-3,1.97-1.65-.89-3.65-1.9-4.47-3.44-1.8-3.36-2.96-7.09-4.38-10.67,.3-.27,.61-.54,.91-.8Z"/>
  <path class="cls-6" d="M203.6,129.91c-.35,5.12-1.76,9.56-4.34,13.58-1.22,1.9-4.36,2.77-6.17,1.61-.57-.36-1.16-1.57-.97-2.13,1.33-4.1,2.8-8.15,4.38-12.16,.19-.49,1.26-.81,1.94-.86,1.61-.12,3.24-.04,5.16-.04Z"/>
  <path class="cls-6" d="M235.02,131.28c-3.05,5.05-2.03,10.99-6.52,14.4-1.17,.89-3.19,.88-4.77,.73-.53-.05-1.52-1.99-1.28-2.71,1.11-3.29,2.89-6.35,3.82-9.68,.76-2.73,2.26-3.02,4.47-2.77,1.04,.12,2.1,.02,4.27,.02Z"/>
  <path class="cls-6" d="M267.6,132.29c.53,.19,1.05,.49,1.6,.57,6.6,.9,8.69,6.13,10.42,11.58,.23,.72-.42,2.27-1.08,2.63-.91,.5-2.28,.49-3.35,.24-1.41-.33-2.72-1.12-4.07-1.71,0,0,0,0,0,0-.07-.57-.01-1.18-.21-1.69-1.28-3.22-2.62-6.42-3.95-9.63-.01-.21-.02-.41-.04-.62,.03-.45,.05-.9,.08-1.36,.2,0,.39,0,.59,0Z"/>
  <path class="cls-6" d="M306.1,129.48c.04,.77,.08,1.54,.12,2.38-6.38,.41-12.09-1.55-17.64-4.09-1.47-.67-2.81-1.66-4.21-2.5,4.98-2.78,15.76-2,20.01,1.57,.76,.64,1.16,1.74,1.72,2.63Z"/>
  <path class="cls-2" d="M221.64,108.54c3.23-.51,6.47-1.01,9.7-1.52,.17,.2,.33,.41,.5,.61,1.06,.53,2.12,1.06,3.18,1.59h-.02c.39,.19,.79,.39,1.18,.6h-.01c1.17,.58,2.34,1.17,3.51,1.75,0,0,0,0,0,0,.04,.41,.09,.81,.13,1.22-.66,1.4-1.24,2.85-2.02,4.19-.32,.56-1.05,.86-1.59,1.29-5.12-2.22-10.24-4.44-15.36-6.66,.26-1.02,.53-2.04,.79-3.07Z"/>
  <path class="cls-6" d="M236.24,121.61c.12,.56,.34,1.12,.35,1.69,.04,2.12,.02,4.24,.02,6.62h-16.25c-.06-3.8,2.18-6.56,5.97-7.5,1.3,1.52,1.79,1.32,2.89-1.18,1.56,0,3.11,0,4.67,0-.3,.62-.6,1.24-.9,1.87,.18,.16,.36,.33,.54,.49,.74-.7,1.47-1.39,2.21-2.09,.16,.08,.33,.11,.5,.1Z"/>
  <path class="cls-6" d="M148.9,128.79c.3,5.21-1.32,9.86-3.85,13.99-.72,1.18-3.56,.99-5.43,1.43-.29-1.4-1.06-2.9-.79-4.17,.73-3.33,1.86-6.58,2.95-9.81,.2-.59,.95-1.33,1.51-1.38,1.8-.18,3.62-.07,5.61-.07Z"/>
  <path class="cls-6" d="M175.81,129.12c-1.17,5.15-.33,10.34-4.06,14.06-.97,.97-2.6,1.5-4,1.68-1.58,.21-2.58-.83-2.19-2.62,.81-3.67,1.34-7.46,2.66-10.93,1.28-3.37,4.55-1.82,7.58-2.19Z"/>
  <path class="cls-3" d="M226.28,96.07c.31,.24,.61,.48,1.47,1.16-9.73,.26-16.92,4.22-21.42,12.98-1.81-.49-3.62-.97-5.41-1.45,3.21-6.02,7.62-10.39,13.74-12.8,3.87,.04,7.75,.07,11.62,.11Z"/>
  <path class="cls-6" d="M249.11,145.99c-.03,.23-.05,.47-.08,.7-4.01,.89-7.11-.71-9.47-3.91-1.73-2.34-3.14-9.45-2.17-11.51,3.01,4.39,9.73,3.65,11.42,9.64,.19,1.69,1.49,3.31,.29,5.08Z"/>
  <path class="cls-6" d="M105.72,130.91c.97,3.53,2.11,7.04,2.87,10.64,.44,2.09-1.38,3.78-3.47,3.58-2.52-.24-4.6-1.28-5.87-3.68-2.93-5.53-.96-8.87,6.47-10.54Z"/>
  <path class="cls-6" d="M177.03,178.67c.88,1.02,1.75,2.04,2.85,3.32-10.21,.88-20.36,2.53-29.16-4.9-.21,.06-.42,.11-.63,.17,0,0,.02,.03,.02,.03,0-1.01-.01-2.02-.02-3.03,0,0,0,0,0,0,1.52,.75,3.1,1.41,4.55,2.27,5.91,3.51,12.07,2.35,18.29,1.3,1.29-.22,2.73,.53,4.11,.84Z"/>
  <path class="cls-6" d="M88.89,132.33c3.72-4.38,7.11-7.57,11.88-8.61,2.51-.54,5.27,1.76,6.17,4.59-3.38,1.88-6.56,4.28-10.12,5.38-2.11,.65-4.82-.75-7.93-1.36Z"/>
  <path class="cls-6" d="M238.98,182.92c-11.49,.99-22.52,3.35-32.22-4.23,.02-.34,.04-.68,.06-1.02,.93,0,2.17-.4,2.74,.06,5.15,4.24,10.95,3.71,16.85,2.7,.66-.11,1.38-.25,1.94-.6,4.21-2.61,7.26-.48,10.63,3.09Z"/>
  <path class="cls-6" d="M252.52,85.56c.02,.4,.22,.96,.03,1.18-2.15,2.52-4.35,4.98-6.54,7.46-.42-.29-.84-.59-1.25-.88-.19,.31-.6,.79-.52,.9,.27,.36,.71,.6,1.08,.88-.3,.32-.61,.64-.91,.96-3.43-.7-4.87,.3-5.23,3.66l-1.08,1.2c-.66-.59-1.32-1.18-1.98-1.77,0,0-.03-.08-.03-.08,.08-.62,2.24-1.24,0-1.85,1.81-5.6,6.09-8.45,11.15-10.32,1.7-.63,3.53-.9,5.3-1.33Z"/>
  <path class="cls-2" d="M196.66,102.04c-1.51-1.21-3.01-2.42-4.84-3.89,4.37-.81,8.34-2.91,12.81-1.5,1.98,.62,2.47,2.01,1.09,3.53-1.22,1.36-2.34,2.97-3.85,3.84-1.06,.61-2.69,.17-4.07,.2,0-.32,.01-.65,.02-.97-.4-.42-.79-.84-1.19-1.25l.03,.04Z"/>
  <path class="cls-6" d="M229.21,121.23c-1.1,2.51-1.59,2.71-2.89,1.18,.35-.27,.7-.53,1.54-1.18h-2.73c-.76-.85-1.53-1.71-2.29-2.56-1.38-1.26-2.77-2.51-4.21-3.82,.36-.48,.82-1.09,1.28-1.7,4.77,1.86,9.57,3.64,14.27,5.67,.75,.32,1.04,1.77,1.54,2.69-.74,.7-1.47,1.39-2.21,2.09-.18-.16-.36-.33-.54-.49,.3-.62,.6-1.24,.9-1.87,.19-.04,.39-.05,.56-.12,.13-.05,.23-.18,.71-.58-2.22,0-4.07,0-5.92,.03,0,0-.01,.44-.02,.67Z"/>
  <path class="cls-6" d="M290.65,141.67c-.58,1.24-1.03,2.17-1.46,3.1-1.14,2.47-3.7,4.13-6.08,3.13-4.09-1.72-.74-4.85-.81-7.32-.06-2.13,1.29-1.99,2.78-1.29,1.82,.86,3.7,1.59,5.56,2.39Z"/>
  <path class="cls-4" d="M256.68,101.57c1.36,4.62,2.72,9.25,4.09,13.87-.33,.24-.65,.48-.98,.72-2.02-.73-4.09-1.34-6.03-2.26-.41-.2-.62-1.55-.45-2.24,.84-3.31,1.84-6.58,2.78-9.87,.19-.07,.39-.14,.58-.22Z"/>
  <path class="cls-7" d="M200.9,144.96c1.37-4.19,2.62-8.01,3.95-12.09,1.45,3.67,2.86,7.27,4.34,11.02-2.99,2.55-5.38,2.83-8.29,1.07Z"/>
  <path class="cls-7" d="M271.13,145.6c-1.66,2.08-6.56,3.24-8.55,1.8-.62-.45-1.2-1.85-.96-2.49,.57-1.51,1.63-2.82,2.5-4.21,.21-.46,.42-.91,.63-1.37,.57-.34,1.13-.67,1.7-1.01,1.19,2.68,1.94,5.65,4.69,7.27h0Z"/>
  <path class="cls-7" d="M146.64,144.16c1.31-3.96,2.51-7.59,3.74-11.28,1.42,3.1,2.91,6.38,4.54,9.95-2.26,1.62-5.04,2.88-8.28,1.33Z"/>
  <path class="cls-6" d="M239.32,145.4c-2.93,2.34-5.62,2.59-8.33,.65,1.38-3.41,2.77-6.84,4.13-10.19,1.34,3.04,2.71,6.16,4.2,9.54Z"/>
  <path class="cls-7" d="M298.7,123.1c-2.9-.6-5.81-1.2-8.05-1.66,.19-3.31,.33-5.78,.51-8.92,2.98,3.32,5.69,6.34,8.39,9.35-.28,.41-.56,.82-.85,1.23Z"/>
  <path class="cls-7" d="M181.58,142.94c-2.64,2.14-5.02,2.6-8.03,1.48,.6-1.73,1.21-3.45,1.78-5.19,.57-1.73,1.09-3.47,1.67-5.32,1.57,3.1,3.08,6.07,4.58,9.04Z"/>
  <path class="cls-7" d="M271.27,120.92c-1.9-.75-3.42-1.33-4.93-1.94q-5.09-2.05-5.01-7.68c3.39,.8,8.84,5.89,9.94,9.61Z"/>
  <path class="cls-6" d="M216.96,134.27c.44-.62,.79-1.66,1.34-1.78,2.11-.46,4.27-.63,7.18-1.02-1.45,3.75-2.65,6.83-3.84,9.91-.31-.1-.79-.1-.91-.31-1.29-2.25-2.52-4.53-3.77-6.8Z"/>
  <path class="cls-7" d="M110.26,142.52c-.83-3.46-1.86-7.71-2.97-12.31,1.64-.33,3.38-.68,5.76-1.15-1.04,5.04-1.99,9.64-2.78,13.46Z"/>
  <path class="cls-7" d="M121.03,141.3c0-1.37,0-2.74,0-4.1,.54-.05,1.08-.06,1.6-.16,.45-.08,1.2-.48,1.27-.37,1.2,1.84,2.32,3.74,3.72,6.08-2.22,.64-4.4,1.27-6.8,1.96,.1-1.56,.16-2.48,.21-3.4Z"/>
  <path class="cls-12" d="M124.5,119.91c-2.77,.02-5.55-.07-8.31,.08-2.81,.15-5.17,1.2-6.33,4.14-.13,.34-.72,.49-1.09,.73,.32-1.37,.64-2.73,.99-4.26-.62-.05-1.27-.1-1.92-.16,.88-.49,1.74-1.38,2.63-1.41,4.68-.19,9.36-.17,14.04-.22,0,.37-.01,.74-.02,1.11Z"/>
  <path class="cls-6" d="M259.86,105.2c-.96-1.86-1.74-3.37-2.92-5.65,3.75-.22,6.97-.41,10.19-.59,.1,.36,.2,.73,.3,1.09-2.48,1.69-4.97,3.39-7.56,5.15Z"/>
  <path class="cls-7" d="M298.8,144.51c.38,.66,.75,1.31,1.48,2.59-2.62,.34-4.84,.82-7.08,.86-1.58,.03-2.47-1.04-1.9-2.82,.49-1.54,.9-3.16,3.14-2.16,1.39,.62,2.88,1.01,4.32,1.5,0,0,.03,.03,.03,.03Z"/>
  <path class="cls-13" d="M277.49,107.39c3.53,3.68,5.2,8.14,5.47,13.27,.04,.72,1.24,1.37,1.91,2.06-1.01,.67-1.98,1.44-3.06,1.94-.27,.12-.92-.63-1.39-.98,1.72-2.24,1.4-7.7-.64-10.74-1.13-1.68-2.28-3.33-3.42-5,.38-.18,.75-.37,1.13-.55Z"/>
  <path class="cls-14" d="M235.73,121.51c-.5-.92-.79-2.37-1.54-2.69-4.7-2.03-9.5-3.81-14.27-5.67,.31-.51,.61-1.03,.92-1.54,5.12,2.22,10.24,4.44,15.36,6.66,.58,1.11,1.47,2.22,.02,3.34-.18,.01-.34-.02-.5-.1Z"/>
  <path class="cls-7" d="M191.7,138.61c-1.04-2.79-1.97-5.28-2.98-8.01,2.29-.19,4.24-.36,6.74-.57-1.31,2.99-2.44,5.58-3.76,8.58Z"/>
  <path class="cls-7" d="M306.6,125.26c2.49,.86,4.97,1.71,8.08,2.78-2.4,.98-3.97,1.75-5.62,2.22-.54,.15-1.29-.5-1.94-.78-.36-.91-.83-1.79-1.03-2.73-.09-.44,.33-.99,.52-1.49Z"/>
  <path class="cls-7" d="M137.9,137.74c-.65-.84-1.34-1.4-1.59-2.12-.52-1.55-1.62-3.88-1.02-4.62,.96-1.16,3.12-1.26,4.99-1.89-.89,3.2-1.61,5.8-2.39,8.62Z"/>
  <g>
    <path class="cls-12" d="M181.51,107.43c1.17,.07,2.34,.15,3.51,.22,1.99,2.1,4.21,.88,6.38,.45h8.16c0-.34,0-.67,.01-1.01-2.94-.64-5.87-1.29-8.81-1.93-2.58-.61-5.16-1.2-7.72-1.87-.44-.11-.77-.63-1.15-.96,.48-.33,.99-.98,1.42-.93,1.94,.24,3.86,.68,5.79,1.06,1.18,.23,2.35,.49,3.53,.74,1.31,.29,2.62,.58,3.93,.87,.41,.06,.82,.11,1.23,.17,1.38-.03,3.01,.41,4.07-.2,1.51-.87,2.63-2.49,3.85-3.84,1.38-1.53,.88-2.92-1.09-3.53-4.48-1.4-8.44,.69-12.81,1.5,2.72,2.17,7.48,5.87,6.17,4.85-.58,0-.42,1.01-1,1-3.38-2.68-9.12-5.77-13.36-4.43-.95,.3-2.1-.07-3.15-.12,.4-.37,.06-1.36,.51-1.44,1.32-.25,3.39,.19,4.7-.08,9.47-1.92,18.88-4.11,28.39-5.79,6.93-1.22,13.98-2.28,20.87,.63,.57,.24,1.72-.18,2.22-.69,1.39-1.42,2.57-3.05,3.94-4.73-1.4-.54-3.17-1.23-4.94-1.92,.03-.33,.06-.66,.09-.98,.24,.05,.49,.11,.73,.16,.3,.03,.61,.07,.91,.1,1.41,.57,2.79,1.28,4.25,1.66,.92,.24,2,.15,2.95-.08,1.67-.39,3.27-1.14,4.95-1.44,.73-.13,1.58,.46,2.38,.73,0,0,.07,0,.07,0-1.77,.43-3.6,.7-5.3,1.33-5.06,1.87-9.33,4.71-11.15,10.32,0,.62,0,1.23,0,1.85l.03,.08v1.75c-1.14-.38-2.16-.72-3.17-1.06-3.84-1.65-7.78-1.49-11.68-.48-5.99,1.54-10.37,5.26-13.23,11.21,2.89,1.16,5.9,2.36,8.96,3.59,1.6-1.91,3.15-3.75,4.69-5.59l-.02-.02c-.26,1.02-.53,2.04-.79,3.07-.31,.51-.61,1.03-.92,1.54-.46,.61-.92,1.22-1.28,1.7,1.44,1.31,2.82,2.56,4.21,3.82-.27,.46-.54,.93-.81,1.39-.71-.84-1.42-1.68-2.13-2.52-.21-.2-.41-.39-.62-.59l.03,.02c-.45-.18-.9-.36-1.36-.54-10.73-5.38-21.71-9.12-33.79-5.34,2.23,1.55,4.87,2.34,6.76,4.01,2.48,2.2,5.34,2.4,8.22,3.12,5.89,1.47,11.78,3.01,17.51,5.01,2.31,.8,4.13,1.29,6.09-.37,.8-.54,1.59-1.09,2.39-1.63h2.73c-.85,.65-1.19,.91-1.54,1.18-3.78,.94-6.03,3.69-5.97,7.5h16.25c0-2.38,.03-4.5-.02-6.62-.01-.56-.23-1.12-.35-1.69,1.45-1.12,.56-2.23-.02-3.34,.54-.42,1.27-.73,1.59-1.29,.77-1.33,1.36-2.78,2.02-4.19,.3-.18,.6-.36,.9-.55-.34-.23-.68-.45-1.02-.68,0,0,0,0,0,0,.02-.19,.02-.39,0-.58,.56-.07,1.12-.14,1.67-.21,0-.2,.01-.4,.02-.6-.95-.15-1.9-.3-2.85-.44,0,0,.03,.02,.03,.02-1.53-.85-3.06-1.69-4.6-2.54h4.61c.16-.86,.37-1.94,.57-3.02l.61,.18c.57,1.18,1.15,2.35,1.72,3.53,.54,.14,1.33,.58,1.58,.36,2.04-1.74,3.83-3.82,5.97-5.4,5.41-4.01,11.41-6.26,18.15-4.69,2.11,.49,3.47,.2,5.19-2.38-6.7-1.38-12.93-2.66-19.16-3.94,0-.2,.02-.4,.03-.59,2.97,.19,5.94,.39,9.3,.61-.83-1.11-6.01-3.99-6.52-4.87-.09-.15,.74-.64,1-1,1.08,.75,6.4,3.53,7.48,4.28-.22,.27-.43,.53-.65,.8,2.06-.73,4.12-1.46,6.17-2.19,.38,.23,.76,.46,1.15,.69-1.85,.85-3.7,1.7-5.55,2.54,4.22,1.81,7.98,4.05,12.66,2.11,2.24-.92,5.11-.36,7.68-.26,2.18,.09,4.34,.5,6.51,.77,.25,.22,.51,.45,.76,.67-1.36,.6-2.72,1.21-4.08,1.81-.16-.53-.24-1.47-.49-1.52-4.7-.94-9.53-1.54-13.85,1.01-4.7,2.77-9.11,6.06-13.6,9.19-.47,.33-.95,1.12-.89,1.63,.06,.51,.78,1.3,1.24,1.32,3.03,.13,6.36,.91,9.02-.11,3.86-1.47,7.21-4.32,10.81-6.52,2.17-1.33,4.42-2.53,6.63-3.79-.84,.94-1.68,1.88-2.65,2.97h10.79c.05,.3,.1,.6,.15,.91-.08,.52-.16,1.03-.24,1.55-2.85-.34-5.71-.67-8.56-1.01-.16,.3-.31,.6-.47,.89,1.21,1.82,2.28,3.76,3.65,5.44,3,3.68,6.02,7.36,9.28,10.79,1.81,1.91,3.15,5,6.67,4.15,0,.37,0,.74,0,1.11-.19,.5-.61,1.06-.52,1.49,.2,.94,.67,1.82,1.03,2.73-.34,0-.67,0-1.01,0-.57-.89-.96-1.99-1.72-2.63-4.25-3.57-15.03-4.35-20.01-1.57-.15,.6-.31,1.19-.46,1.79-.58,0-1.15,0-1.73-.01h.01c-.39-.19-.79-.4-1.18-.6h.02c-1.17-.39-2.34-.79-3.52-1.2l.03,.02c-.4-.2-.8-.41-1.2-.61l.04,.03c-.79-.21-1.59-.42-2.38-.63l.05,.03c-2.34-1.01-4.68-2.01-7.02-3.02l.03,.02c-2.54-1-5.07-2-7.61-3l.05,.03c-.56-.18-1.12-.35-1.68-.53-.46,.21-.91,.41-1.37,.62-.22-.13-.45-.25-.67-.38-1.03-1.1-2.07-2.2-3.58-3.81,.15,1.43,.21,1.99,.27,2.56-.71,.36-1.63,.55-2.08,1.12-1.53,1.95-1.32,5.62,.25,6.25,6.07,2.46,12.15,4.88,18.21,7.35,10.08,4.12,20.14,8.27,30.21,12.41-.1,.25-.21,.5-.31,.75-1.44-.49-2.93-.88-4.32-1.5-2.24-1-2.65,.62-3.14,2.16-.57,1.78,.31,2.85,1.9,2.82,2.24-.04,4.46-.52,7.08-.86-.73-1.27-1.1-1.93-1.48-2.58,.98,.12,1.96,.24,2.94,.35,.26,.07,.52,.14,.78,.22,0,.92,0,1.84,0,2.76-.11,.14-.26,.22-.44,.21h-1.37c-.02,.12-.03,.25-.05,.37,.42,.06,.84,.11,1.26,.17-.21,1.67-.41,3.33-.63,5-.16,1.19-.66,2.42-.49,3.54,.33,2.12,1.03,4.17,1.58,6.25-.36,.05-.71,.09-1.07,.14-.37-.78-.88-1.53-1.07-2.36-1.52-6.32-5.35-10.68-11.19-13.85-.24,2.1-3.89,.54-3.48,3.67-.95,.2-1.9,.4-2.85,.6-1.57-4.06-5.14-2.07-7.93-2.83-.2,1.22-.39,2.37-.58,3.52l-.1,.81c.18,1.65,.36,3.3,.54,4.95-.23,.24-.46,.48-.69,.73-.94-1.52-1.88-3.04-2.82-4.56,.75-.63,1.5-1.26,2.25-1.89-.95-.89,1.04-3.68-1.98-3.31,.04,.82,.17,1.59,.08,2.33-.11,.87-.41,1.71-.63,2.57-2.05-4.93-7.33-4.11-10.89-6.35-.14-.09-.79,.68-1.2,1.05-2.05,2.03-1.49,4.81-.59,6.65,1.08,2.21,.14,2.98-1.05,4.11-.18-1.4-.37-2.79-.55-4.19-.16-.4-.32-.8-.48-1.2-.14-.37-.27-.74-.41-1.1,2.96-.62-.02-2.86,1.36-3.91l-.79-.69c-.87,.71-1.74,1.43-2.61,2.14-.38-.6-.77-1.2-1.15-1.8,.01-.16,0-.32-.02-.48,1.48-.22,3-.27,4.43-.68,3.22-.91,3.36-4.1,4.41-6.6,.34-.64,.68-1.28,1.01-1.92,.04-.36,.09-.71,.13-1.07,.33,0,.67,0,1,0,.22,.95,.43,1.91,.65,2.86-.86,1.39-1.93,2.7-2.5,4.21-.24,.64,.34,2.04,.96,2.49,1.99,1.44,6.89,.28,8.55-1.8,1.35,.59,2.66,1.37,4.07,1.71,1.07,.25,2.44,.26,3.35-.24,.66-.36,1.31-1.91,1.08-2.63-1.73-5.45-3.82-10.68-10.42-11.58-.55-.07-1.07-.37-1.6-.57-.2,0-.39,0-.59,0-.03,.45-.05,.9-.08,1.36-.34,0-.68,0-1.02,0-.58-.39-1.16-.78-1.73-1.17-.38,0-.75-.02-1.13-.02-4.15-1.08-8.3,1.27-9.31,5.29-.5,2.01-.97,4.03-1.45,6.04-.16-.89-.31-1.79-.47-2.68,.34-1.77,.68-3.55,1.05-5.5-1.74,.29-3.17,.54-4.75,.8,.63,1.63,1.16,2.98,1.69,4.34-.33,.05-.66,.09-.99,.14-1.68-6-8.41-5.25-11.42-9.64-.98,2.06,.44,9.17,2.17,11.51,2.36,3.2,5.45,4.8,9.47,3.91-.78,.74-1.57,1.48-2.27,2.14,0,1.66,.07,3.34-.02,5.01-.11,2.14-.75,4.35-.43,6.41,.54,3.43,1.65,6.77,2.56,10.29,2.1-1.31,5.86-.2,7.2-4,.27,.19,.54,.39,.81,.58,.27,.44,.55,.89,.82,1.33,0,.33,0,.67,0,1-5.97,1.88-11.94,3.76-17.91,5.63,.06,.34,.11,.68,.17,1.02,2.81,.61,5.62,1.23,8.43,1.84,0,.36,0,.71,0,1.07-2.99-.67-5.96-1.44-8.97-1.98-1.34-.24-2.76-.04-4.14-.04,3.86,4.94,8.95,6.45,14.27,7.47,0,.36,.01,.72,.02,1.08-.42-.07-.83-.14-1.25-.21-.59-.09-1.19-.18-1.78-.27-.37-.1-.73-.2-1.1-.3-.25-.09-.49-.18-.74-.27-3.41,.05-6.84-.14-10.22,.2-7.31,.73-14.56,1.16-21.75-1.01-1.05-.32-2.38,.33-3.58,.53-1.8,.3-3.59,.59-5.39,.89-.24,.06-.47,.12-.71,.18-.41,.07-.82,.15-1.23,.22,0-.35,.01-.71,.02-1.07,2.62-.59,5.23-1.18,8.13-1.84-1.42-1.02-2.63-1.57-3.39-2.5-1.18-1.45-2.28-1.49-4.03-1.13-3.86,.81-7.8,1.49-11.73,1.58-4.19,.09-8.31-.76-11.04-5.4-.89,.81-1.65,1.5-2.41,2.19,.12,.16,.23,.33,.35,.49,.12,.19,.25,.39,.37,.58-.37,.08-.74,.16-1.11,.25-1.37-.31-2.82-1.06-4.11-.84-6.22,1.06-12.38,2.21-18.29-1.3-1.46-.86-3.03-1.52-4.55-2.27,.33-.38,.6-.97,1.01-1.11,2.73-.93,5.5-1.76,8.25-2.62-.06-.3-.12-.61-.18-.91-12.08-6.39-22.9,.64-34.88,3.82,1.88,2.25,3.78,3.58,5.98,3.54,4.01-.08,8.03-.57,12.02-1.09,2.63-.35,5.21-1.07,7.81-1.62,0,1.01,.01,2.02,.02,3.03-1.33-1.76-2.73-1.56-4.77-.97-3.97,1.14-8.12,1.87-12.24,2.16-3.46,.24-6.99-.26-9.19-3.81-.23-.38-1.19-.28-1.81-.41-.36-.19-.73-.39-1.09-.58,3.29-1.29,6.59-2.58,10.27-4.02-3.67-1.84-7.18-2.32-10.85-1.85-1.23,.05-2.45,.1-3.68,.15-.32-.26-.65-.51-.97-.77,.36-.86,.94-1.68,1.06-2.58,1.06-7.81-1.18-14.32-7.3-19.09-1.8,.45-3.53,.88-5.76,1.44,.48,1.66,.78,3.24,1.39,4.69,1.38,3.3,2.9,6.54,4.36,9.8-.24,.29-.48,.59-.72,.88-1.92-2.77-3.59-5.78-5.81-8.26-3.33-3.71-6.01-8.46-11.65-9.1,0-.36,0-.72,0-1.08,.4,.09,.81,.18,1.21,.28,.24,.05,.47,.11,.71,.16,1.84-.16,3.67-.31,5.16-.44-.85-2.64-1.52-5.01-2.42-7.28-.26-.65-1.12-1.32-1.8-1.46-3.31-.65-5.98-2.35-8.19-4.89,.06-.54,.13-1.08,.19-1.62,.72,.55,1.45,1.11,2.17,1.66q5.57-5.36,6.42-11.36c.38,.45,1.03,.87,1.09,1.36,.12,1.11-.05,2.25-.12,3.66,4.07-1.24,7.73-2.35,11.39-3.46-.77,.91-1.54,1.82-2.3,2.73,1.42,.41,1.75,3.17,3.97,2v2.52h25.83c.41-3.82-.21-5.13-3.41-6.24-2.17-.75-4.49-1.07-6.74-1.59,0-.37,.01-.74,.02-1.11,3.39,.68,6.77,1.52,10.19,1.96,1.37,.18,2.84-.52,4.27-.83-.38-1.48-.66-2.99-1.18-4.41-.2-.56-.86-1.07-1.43-1.34-3.1-1.5-6.24-2.91-9.37-4.36,.3-.33,.66-.98,.89-.93,1.31,.27,2.6,.69,3.89,1.09,3.79,1.18,6.76,4.28,11.15,4.3,2.44,.01,4.94,1.42,7.31,2.46,3.15,1.38,6.12,3.21,9.3,4.47,2.95,1.17,4.84,.27,6.18-2.32,.33-.52,.66-1.05,.99-1.57,7.19,.05,14.16,1.01,20.46,4.97,2.23,1.4,4.47,.9,5.5-1.25,1.18-2.47-.72-3.64-2.32-4.64-5.96-3.73-12.35-6.31-19.3-7.3,0-.38,0-.77-.01-1.15,1.37-.21,2.77-.66,4.12-.55,1.55,.13,3.06,.76,4.59,1.17,.86,.18,1.73,.37,2.59,.55,.05-.21,.1-.43,.15-.64-.32-.35-.65-.7-.97-1.05Zm56.96,61.59c.24-.24,.47-.49,.71-.73l6.2,4.02c.31-.24,.62-.49,.93-.73,0-1.85,.12-3.72-.02-5.56-.55-6.92-4.99-11.71-8.89-16.78-.25-.32-.81-.48-1.24-.56-2.3-.39-4.6-.73-7.44-1.17,.19,1.86-.07,4.07,.69,5.81,1.62,3.7,3.76,7.16,5.69,10.72-.03,.49-.06,.99-.09,1.48-.26,.03-.74,.03-.74,.08-.33,3.01,1.25,4.27,4.23,3.42Zm-21.51-34.74c-.37,0-.74,0-1.1-.01-1.94-5.07-6.06-3.4-9.72-3.53,2.19,10.89,6.39,16.8,13.8,16.07-1.14,1.41-2.95,2.47-2.39,4.78-2.3-1-1.94,1.93-3.28,2.35-.48-.62-.9-1.31-1.44-1.86-2.81-2.89-5.06-7.12-10.49-4.17,.14,1.74,.06,3.85,.52,5.82,1.79,7.66,6.91,12.78,12.74,17.42,2.39,1.9,4.23,1.78,6.15-.43,.52-.39,1.05-.78,1.57-1.17,.04,.38,.07,.75,.11,1.13,.4,.43,.79,.86,1.19,1.29-4.6,1.5-9.21,3-13.96,4.55,6.88,7,21.52,1.56,31.79-3.99-5.46-2.9-10.79-1.71-16.11-.69,0-.38,0-.76,0-1.13,.33-.35,.92-.67,.96-1.05,.49-4.43,1.27-8.88,1.22-13.31-.05-4.58-5.16-9.34-8.58-9.5,.08-.81,.16-1.61,.24-2.42,.06-.06,.18-.14,.17-.17-.04-.15-.13-.28-.2-.41-.06-.4-.11-.8-.17-1.2,.56-.41,1.12-.83,1.68-1.24,1.19-3.08,2.39-6.16,3.84-9.91-2.91,.38-5.08,.55-7.18,1.02-.54,.12-.9,1.16-1.34,1.78Zm10.1-38.92c2.34,1.15,4.67,2.3,7.06,3.48,1.45-4.58,1.5-4.8-2.48-5.73-8.38-1.95-16.53,.15-25.05,1.61,2.37,2.24,4.52,1.51,6.69,.63,.46,.21,.92,.41,1.38,.62-6.13,2.41-10.53,6.78-13.74,12.8,1.8,.48,3.6,.97,5.41,1.45,4.5-8.76,11.7-12.72,21.42-12.98-.86-.68-1.17-.92-1.47-1.16,.26-.24,.52-.48,.78-.72Zm-106.02,45.95c-.06,.92-.12,1.85-.21,3.4,2.4-.69,4.58-1.32,6.8-1.96-1.4-2.33-2.52-4.23-3.72-6.08-.07-.11-.82,.29-1.27,.37-.53,.1-1.07,.11-1.6,.16,.18-2.81,.36-5.63,.57-8.76-2.36,.2-4.28,.25-6.15,.58-.52,.09-1.19,.94-1.3,1.54-.67,3.7-1.31,7.42-1.71,11.16-.11,1.07,.53,3.15,.99,3.2,1.5,.17,3.21-.1,4.59-.75,1.18-.56,2.02-1.88,3.01-2.87Zm156.46-33.91c-.38,.18-.75,.37-1.13,.55-3.01,1.16-6.02,2.32-9.38,3.62,.37,.82,.62,1.88,1.23,2.63,1.37,1.68,3.49,2.96,4.29,4.86,1.62,3.8,4.62,4.29,7.91,4.63,.47,.35,1.12,1.1,1.39,.98,1.08-.5,2.05-1.27,3.06-1.94,2.96,.14,4.19-1.61,4.21-4.36,.02-2.25,.28-4.73-.51-6.71-1.2-2.98-3.02-5.79-5.11-8.19-.34-.4-3.38,1.67-5.17,2.6-.09,.04-.18,.08-.27,.12-.17,.2-.34,.4-.51,.6,0,.2-.01,.41-.02,.61Zm-75.62,58.52c.1-1,.19-2.01,.29-3.01,.05-.05,.16-.11,.15-.15-.02-.13-.08-.26-.13-.39-.78-3.43-1.39-6.92-2.39-10.28-1.11-3.75-3.54-5.93-7.72-5.38-1.02,3.97-2.02,7.92,.62,11.69,1.99,2.85,2.73,6.02,2.47,9.5-.02,.3,.95,.67,1.47,1.01,0,.38,0,.76,0,1.15-5.04,1.52-10.08,3.05-15.19,4.59,3.81,8.32,23.57,3.55,33.11-1.26-2.9-2.98-6.68-3.29-10.35-3.89,2.29-2.51,2.23-2.85-.39-5.04-.76,.57-1.35,1.02-1.94,1.46Zm57.48-37.24c-2.91-1.03-5.46-2.17-8.13-2.81-2.58-.61-3.86-1.76-3.18-4.43,.67-2.61,1.93-5.07,2.94-7.59,1.52-3.79,2.82-7.62,2.67-12.45-1.99,1.4-3.73,2.2-4.9,3.53-2.86,3.26-5.47,6.74-8.14,10.16-3.66,4.69-3.31,9.87-1.61,15.15,.22,.68,.82,1.3,1.39,1.77,5.96,4.9,13.97,3.66,18.95-3.34Zm-85.1,18.04c-.31,5.92,1.97,10.66,5.58,14.79,1.08,1.23,2.65,2,3.85,3.14,1.77,1.69,3.27,3.69,5.14,5.24,1.69,1.4,4.32,.07,4.38-2.17,.05-1.95-.1-4-.61-5.87-1.52-5.61-5.5-9.49-9.48-13.29-1.14-1.09-2.43-2.39-3.83-2.68-1.46-.31-3.15,.48-5.03,.85Zm-28.51-.82c.53,2.72,.55,5.64,1.68,8.01,2.98,6.23,7.61,11.19,13.23,14.99,1.15,.78,3.28,.42,4.82,.02,.53-.14,.86-2,.86-3.08,0-1.26-.2-2.67-.78-3.75-3.07-5.76-6.94-10.9-11.91-15.09-.67-.57-1.64-.95-2.51-1.04-1.59-.17-3.21-.05-5.39-.05Zm-27.51,.26c.19,2.31-.27,5.28,.75,7.56,2.67,5.94,7.36,10.24,12.4,14.18,2.16,1.69,3.96,.84,5.41-.31,.79-.63,1.14-2.99,.62-3.99-2.17-4.18-4.32-8.51-7.29-12.06-2.69-3.21-5.38-7.59-11.89-5.39Zm42.45-.15c-.16,3.41,.22,6.34,2.26,9.27,2.04,2.95,3.18,6.59,4.54,10,.45,1.13-.35,3.39,1.67,2.95,1.88-.41,4.85,.02,5.19-3.02,.31-2.84,.32-5.77,.05-8.61-.36-3.72-2.42-6.82-5.22-8.88-2.29-1.69-5.03-3.82-8.49-1.71Zm-21.77,21.31c1.83-.35,3.23-.74,4.66-.86,2.1-.17,2.56-1.29,2.61-3.3,.15-5.74-2.14-10.53-5.33-14.92-1.07-1.48-2.63-2.86-4.27-3.52-1.08-.44-2.69,.46-4.34,.83-.02,2.75-.36,5.54,1.77,8.31,2.88,3.75,5.54,7.82,4.91,13.46Zm48.57,3.81c-5.74-5.19-25.09-.93-33.56,2.87,6.57,5.59,13.16,5.04,33.56-2.87Zm-23.99-42.7h26.67c-1.4-1.84-2.28-3.53-3.61-4.63-5.38-4.45-11.82-3.91-17.97-2.97-4.61,.7-6.29,2.92-5.09,7.61Zm28.24,.62h25.95c-.07-2.44-1.04-4.3-3.46-5.42-5.56-2.58-11.41-3.07-17.33-2.42-4.25,.46-5.9,3.15-5.16,7.84Zm-30.68-1.13c-.11-2.58-.73-5.13-3.71-5.74-4.2-.87-8.46-1.61-12.73-1.94-3.74-.29-6.6,1.32-7.95,5.34-.62,1.86-.08,2.33,1.49,2.33,7.51,.02,15.03,0,22.9,0Zm-37.4,.59c.07,1.21,.05,1.99,.16,2.76,.79,5.2,3.03,9.47,7.74,11.94,1.02,.53,2.7,.89,3.49,.38,.73-.48,1.09-2.3,.9-3.4-.43-2.48-1.06-4.99-2.08-7.26-.68-1.52-1.94-3.29-3.34-3.82-1.98-.74-4.33-.44-6.88-.6Zm27.91,.36c.77,3.19,1.11,5.88,2.08,8.3,1.2,2.99,3.14,5.51,6.32,6.74,2.14,.83,3.39,.06,3.29-2.08-.12-2.73-.54-5.5-1.28-8.11-.43-1.52-1.46-3.52-2.69-3.98-2.16-.81-4.69-.59-7.72-.87Zm27.2,.52c-.3,.27-.61,.54-.91,.8,1.42,3.58,2.58,7.31,4.38,10.67,.82,1.53,2.82,2.54,4.47,3.44,1.81,.98,3.27,.11,3-1.97-.49-3.8-1.37-7.54-2.19-11.29-.08-.37-.83-.77-1.31-.84-2.47-.33-4.95-.55-7.43-.82Zm24.83,.53c-1.93,0-3.55-.08-5.16,.04-.68,.05-1.75,.37-1.94,.86-1.58,4.01-3.05,8.06-4.38,12.16-.18,.56,.41,1.77,.97,2.13,1.81,1.16,4.95,.28,6.17-1.61,2.58-4.02,3.99-8.45,4.34-13.58Zm31.42,1.36c-2.17,0-3.23,.1-4.27-.02-2.22-.25-3.71,.04-4.47,2.77-.93,3.32-2.71,6.39-3.82,9.68-.24,.71,.74,2.66,1.28,2.71,1.58,.14,3.61,.15,4.77-.73,4.49-3.4,3.47-9.35,6.52-14.4Zm-86.11-2.48c-1.99,0-3.81-.11-5.61,.07-.56,.05-1.31,.79-1.51,1.38-1.09,3.23-2.23,6.48-2.95,9.81-.28,1.27,.49,2.77,.79,4.17,1.87-.44,4.71-.25,5.43-1.43,2.53-4.13,4.15-8.78,3.85-13.99Zm26.9,.33c-3.04,.37-6.3-1.18-7.58,2.19-1.32,3.47-1.85,7.26-2.66,10.93-.4,1.79,.61,2.83,2.19,2.62,1.4-.18,3.03-.71,4-1.68,3.73-3.72,2.89-8.91,4.06-14.06Zm-70.09,1.78c-7.43,1.67-9.4,5.01-6.47,10.54,1.27,2.4,3.35,3.44,5.87,3.68,2.09,.2,3.91-1.5,3.47-3.58-.76-3.6-1.9-7.11-2.87-10.64Zm-16.83,1.42c3.11,.61,5.83,2.01,7.93,1.36,3.56-1.1,6.74-3.5,10.12-5.38-.9-2.83-3.66-5.13-6.17-4.59-4.77,1.04-8.16,4.23-11.88,8.61Zm150.09,50.59c-3.37-3.57-6.41-5.7-10.63-3.09-.56,.35-1.28,.48-1.94,.6-5.9,1.01-11.7,1.54-16.85-2.7-.56-.47-1.81-.06-2.74-.06-.02,.34-.04,.68-.06,1.02,9.7,7.59,20.73,5.23,32.22,4.23Zm51.67-41.25c-1.86-.79-3.74-1.53-5.56-2.39-1.49-.7-2.84-.83-2.78,1.29,.07,2.47-3.28,5.6,.81,7.32,2.38,1,4.93-.65,6.08-3.13,.43-.94,.88-1.87,1.46-3.1Zm-33.97-40.1c-.19,.07-.39,.14-.58,.22-.94,3.29-1.94,6.56-2.78,9.87-.17,.69,.03,2.04,.45,2.24,1.94,.92,4,1.54,6.03,2.26,.33-.24,.65-.48,.98-.72-1.36-4.62-2.72-9.25-4.09-13.87Zm-55.78,43.39c2.9,1.76,5.29,1.48,8.29-1.07-1.47-3.75-2.89-7.34-4.34-11.02-1.33,4.08-2.58,7.9-3.95,12.09Zm-54.27-.8c3.23,1.55,6.02,.29,8.28-1.33-1.63-3.57-3.12-6.84-4.54-9.95-1.22,3.69-2.42,7.32-3.74,11.28Zm92.68,1.24c-1.49-3.38-2.86-6.51-4.2-9.54-1.36,3.35-2.75,6.78-4.13,10.19,2.7,1.94,5.4,1.69,8.33-.65Zm59.38-22.3c.28-.41,.56-.82,.85-1.23-2.71-3.02-5.42-6.04-8.39-9.35-.18,3.14-.32,5.61-.51,8.92,2.25,.46,5.15,1.06,8.05,1.66Zm-117.12,19.84c-1.51-2.97-3.01-5.94-4.59-9.04-.58,1.85-1.1,3.59-1.67,5.32-.57,1.74-1.19,3.47-1.78,5.19,3.02,1.12,5.39,.67,8.04-1.48Zm89.69-22.01c-1.1-3.72-6.54-8.81-9.94-9.61q-.08,5.62,5.01,7.68c1.51,.61,3.03,1.19,4.93,1.94Zm-161.01,21.59c.79-3.82,1.74-8.42,2.78-13.46-2.37,.47-4.11,.82-5.76,1.15,1.11,4.59,2.14,8.85,2.97,12.31Zm149.61-37.31c2.59-1.77,5.08-3.46,7.56-5.15-.1-.36-.2-.73-.3-1.09-3.22,.19-6.43,.37-10.19,.59,1.18,2.28,1.96,3.79,2.92,5.65Zm-68.16,33.41c1.31-3,2.45-5.59,3.76-8.58-2.51,.21-4.46,.37-6.74,.57,1.02,2.73,1.94,5.22,2.98,8.01Zm-53.8-.87c.78-2.82,1.5-5.43,2.39-8.62-1.87,.62-4.03,.73-4.99,1.89-.61,.73,.49,3.07,1.02,4.62,.24,.72,.94,1.28,1.59,2.12Zm27.19-.43c.65-2.25,1.3-4.5,2.03-7.01q-4.65,.87-2.03,7.01Zm-23.43-17.64c1.37-1,2.7-1.97,4.03-2.95-.14-.31-.28-.62-.42-.93-1.9-.3-3.81-.6-6.16-.97,.93,1.76,1.57,2.99,2.55,4.85Zm-23.37,46.89c1.22-.11,2.3-.21,3.57-.33-.49-2.49-.87-4.61-3.57-5.76v6.09Zm122-20.28c1.73,2.58,2.01,5.34,4.86,6.16,1.25-4.17-1.35-5.05-4.86-6.16Zm-65.02,20.96h3.99c-1.05-1.97-1.85-3.48-2.65-4.98-.24,.12-.48,.24-.72,.36-.21,1.52-.42,3.03-.63,4.61Zm53.16,2.82c1.85-.27,3.1-.46,4.81-.71-.78-1.83-1.39-3.25-2.26-5.29-1,2.35-1.67,3.91-2.56,6Zm-111.58-18.29c.11-2.07,.19-3.66,.28-5.21h-4.37c1.45,1.85,2.65,3.37,4.1,5.21Zm27.93-6.47c-1.27,.19-2.35,.36-3.96,.6,1.36,1.88,2.44,3.38,3.96,5.49v-6.09Zm63.67,.88c1.76,1.8,3.11,3.2,4.47,4.59,.04-5.2-.8-6.1-4.47-4.59Zm-22.53,2.9c-.39-4.73-1.53-5.83-4.46-4.1,1.5,1.37,2.94,2.69,4.46,4.1Zm-35.24,16.58c-1.02-1.95-1.75-3.34-2.47-4.74-.26,.11-.52,.23-.78,.34v4.4h3.25Zm127.01-28.94c1.07,1.82,1.97,3.35,3.02,5.13q1.25-4.5-3.02-5.13Zm-110.71-18.37c-.07,.43-.14,.86-.21,1.29,1.98-.12,3.96-.25,5.94-.37,.01-.22,.02-.44,.03-.65-1.92-.09-3.85-.17-5.77-.26Zm49.36,31.38c.24-.15,.47-.31,.71-.46l-.74-1.51c-.28,.18-.57,.36-.85,.54,.29,.48,.59,.95,.88,1.43Zm54.02-.5c-.12-.08-.23-.19-.36-.24-.04-.02-.2,.13-.2,.17,.03,.14,.11,.28,.18,.42,.13-.11,.25-.23,.38-.35Zm-153.18,3.53l.09,.02-.02-.27-.08,.25Z"/>
    <path class="cls-12" d="M302.52,145.08c11.99,4.84,24,9.65,35.98,14.52,12.34,5.02,24.65,10.09,36.98,15.12,.44,.18,.94,.2,1.42,.29,.86,2.61-1.21,1.18-1.62,1.02-4.14-1.6-8.23-3.35-12.34-5.04-10.02-4.1-20.03-8.2-30.06-12.28-.51-.21-1.09-.26-1.57-.37-.25,2.46-.4,4.83-.74,7.17-.91,6.17-6.58,11.44-12.49,12.65-3.8,.78-7.39,2.67-11.08,4.04-5.56,2.07-11.25,2.44-17.14,1.83-2.91-.3-5.92,.45-8.89,.67-2.22,.16-4.52,.63-6.65,.25-5.52-.99-10.88-.49-16.33,.52-2.7,.5-5.57,.07-8.37,.06,0-.36-.01-.72-.02-1.08,4.73-.28,9.46-.56,14.19-.84-3.78-2.64-6.99-6.21-11.92-4.54-1.03,.35-2.28-.03-3.43-.07,0-.36,0-.71,0-1.07,8.09,.43,15.18-2.75,22.86-6.43-2.24-.88-3.83-1.5-5.42-2.12-.65-.64-1.3-1.28-1.95-1.91q-1.59-2.59,.08-3.48c1.21,1.1,2.3,2.39,3.65,3.25,2.58,1.64,4.76,5.08,9.25,1.88-.92-3.25-1.92-6.81-2.93-10.37,.23-.24,.46-.48,.69-.73,1.33,3.53,2.67,7.07,4.15,10.98,.85-.4,2.64-.66,3.47-1.73,2.64-3.41,3.58-11.98,.46-15.7,.95-.2,1.9-.4,2.85-.6,2.34,4.55,4.4,9.28,7.1,13.6,2.82,4.49,4.17,4.61,7.29,3.01,2-1.03,1.06-2.66,1.35-4.06,.36-.05,.71-.09,1.07-.14,.11,.96,.21,1.91,.31,2.86,2.72-.53,5.32-1.03,8.14-1.58,0-2.55,.18-5.1-.04-7.62-.4-4.57-1.28-8.91-7.23-8.78-.35,0-.71-.28-1.07-.43,0-.92,0-1.84,0-2.76Zm7.12,29c8.36,.86,11.82-2.02,12.12-9.77,.11-2.86-.2-5.75-.53-8.61-.09-.82-.74-1.92-1.43-2.26-1.94-.95-4.03-1.58-6.2-2.38-1.88,7.73,1.05,15.88-3.96,23.02Zm-24.62,2.04c2.25,.82,3.65,1.5,5.12,1.83,5.92,1.32,11.26-.79,16.47-3.27,3.36-1.6,4.02-4.66,3.99-8.45-9.33,.84-16.73,6.09-25.58,9.89Zm-20.33-.03c3.64,2.72,5.02,3.59,8.99,2.34,7.24-2.27,14.26-5.27,21.37-7.96-6.48-3.71-13.4-2.25-30.36,5.62Zm43.89,.02c0-.22-.03-.05,0-.03,5.36,2.4,10.52,1.43,14.99-1.9,5.06-3.77,6.52-9.55,6.04-15.68-.07-.94-2.56-2.16-4.05-2.37-1.72-.24-2.21,1.26-2.09,3.06,.18,2.47,.22,4.98-.04,7.43-.38,3.52-2.08,6.47-5.42,7.6-3,1.01-6.23,1.28-9.43,1.89Zm-28.16,2.29c6.48,6.3,22.63,5.88,30.25,.4-3.04-1.31-5.77-2.06-9.21-.6-4.8,2.02-10.11,2.48-14.92-.08-2.31-1.23-4.01-1.37-6.12,.29Zm-21.16-.31c4.96,5.82,19.57,7.13,25.32,4.28-.98-.4-2.17-.64-3.07-1.3-2.19-1.6-4.43-2.03-7.04-1.32-3.31,.91-6.86,.71-9.38-1.51-2.22-1.95-3.72-1.07-5.83-.15Zm33.63-11.06c-1.11-1.28-1.97-2.16-2.7-3.14-.81-1.08-1.5-2.26-2.24-3.39-2.56,.98-3.05,2.77-1.72,6.53h6.66Z"/>
    <path class="cls-12" d="M256.09,166.53l1.04-7.18c1.19-1.13,2.12-1.9,1.05-4.11-.89-1.83-1.46-4.62,.59-6.65-.58,5.35,.8,10.08,4.27,14.14-.8,.66-1.6,1.33-2.4,1.99l-.64,.76c-.64-.43-1.27-.85-1.96-1.32-.45,1.18-.79,2.07-1.13,2.95-.27-.19-.54-.39-.81-.58Z"/>
    <path class="cls-12" d="M217.54,151.58c-.75,4.85,3.35,7.83,4.4,11.99,.5,1.98,.91,3.97,1.37,5.96-.52,.39-1.05,.78-1.57,1.17,.36-6.93-3.61-11.83-7.48-16.78,1.34-.42,.98-3.34,3.28-2.35Z"/>
    <path class="cls-12" d="M196.64,168.9c2.12-.3,4.32-.45,5.23-2.99,.59-.44,1.18-.89,1.94-1.46,2.62,2.19,2.67,2.53,.39,5.04-2.52,.18-5.05,.37-7.57,.55,0-.38,0-.76,0-1.15Z"/>
  </g>
  <path class="cls-7" d="M296.28,102.32c1.83-.1,3.66-.19,5.49-.29,.13,1.52,.25,3.05,.4,4.79-1.92-1.16-3.67-2.22-5.41-3.28-.22,.1-.43,.2-.65,.3,0,0-.07,.03-.07,.03,.08-.52,.16-1.03,.24-1.55Z"/>
  <path class="cls-7" d="M249.82,140.77c-.53-1.36-1.06-2.72-1.69-4.34,1.57-.27,3.01-.51,4.75-.8-.37,1.95-.71,3.72-1.05,5.5-.93,1.46-1.5,.74-2.01-.36Z"/>
  <path class="cls-7" d="M165.08,137.31q-2.62-6.15,2.03-7.01c-.73,2.51-1.38,4.76-2.03,7.01Z"/>
  <path class="cls-7" d="M141.66,119.68c-.98-1.86-1.62-3.08-2.55-4.85,2.35,.37,4.25,.67,6.16,.97,.14,.31,.28,.62,.42,.93-1.33,.97-2.66,1.95-4.03,2.95Z"/>
  <path class="cls-7" d="M118.28,166.57v-6.09c2.69,1.15,3.08,3.28,3.57,5.76-1.27,.12-2.35,.22-3.57,.33Z"/>
  <path class="cls-12" d="M249.82,140.77c.5,1.09,1.07,1.81,2.01,.36,.16,.89,.31,1.79,.47,2.68,.06,1.44,.12,2.87,.18,4.31,.02,.16,.03,.32,.02,.48-1.13-.87-2.25-1.74-3.38-2.61,1.2-1.77-.11-3.39-.29-5.08,.33-.05,.66-.09,.99-.14Z"/>
  <path class="cls-14" d="M213.27,95.34c4.6-1.58,9.19-1.9,13.78,0-.26,.24-.52,.48-.78,.72-3.87-.04-7.75-.07-11.62-.11-.46-.21-.92-.41-1.38-.62Z"/>
  <path class="cls-7" d="M240.28,146.29c3.51,1.1,6.11,1.99,4.86,6.16-2.85-.82-3.13-3.58-4.86-6.16Z"/>
  <path class="cls-12" d="M216.96,134.27c1.25,2.27,2.48,4.55,3.77,6.8,.12,.21,.6,.21,.91,.31-.56,.41-1.12,.83-1.68,1.24-1.37-2.79-2.73-5.58-4.1-8.36,.37,0,.74,0,1.1,.01Z"/>
  <path class="cls-7" d="M107.85,120.44c.65,.05,1.3,.11,1.92,.16-.36,1.53-.67,2.9-.99,4.26,.06,.11,.08,.23,.05,.36-2.22,1.17-2.55-1.6-3.97-2,.76-.9,1.53-1.81,2.3-2.73,.23-.02,.46-.03,.7-.05Z"/>
  <path class="cls-7" d="M264.74,139.34c-.21,.46-.42,.91-.63,1.37-.22-.95-.43-1.91-.65-2.86,.24-1.79,.47-3.57,.71-5.36,.58,.39,1.16,.78,1.73,1.17,.11,.51,.23,1.02,.34,1.54-.13,.66-.26,1.31-.4,1.97-.41,.3-.82,.6-1.23,.91-.08,.37-.16,.74-.23,1.1l.12,.2,.23-.04Z"/>
  <path class="cls-7" d="M175.26,167.25c.22-1.58,.42-3.1,.63-4.61,.24-.12,.48-.24,.72-.36,.8,1.5,1.6,3,2.65,4.98h-3.99Z"/>
  <path class="cls-7" d="M228.42,170.07c.89-2.08,1.56-3.65,2.56-6,.87,2.04,1.48,3.46,2.26,5.29-1.71,.25-2.96,.44-4.81,.71Z"/>
  <path class="cls-7" d="M116.84,151.78c-1.45-1.85-2.64-3.36-4.1-5.21h4.37c-.08,1.56-.17,3.14-.28,5.21Z"/>
  <path class="cls-7" d="M120.43,167.8c-1.53,2.67-4.55,3.2-7.11,1.25,1.14-.37,2.28-.74,3.42-1.1,1.23-.05,2.46-.1,3.68-.15Z"/>
  <path class="cls-7" d="M144.78,145.31v6.09c-1.52-2.11-2.6-3.61-3.96-5.49,1.61-.24,2.68-.41,3.96-.6Z"/>
  <path class="cls-7" d="M256.9,167.11c.34-.88,.68-1.77,1.13-2.95,.69,.46,1.32,.89,1.96,1.32,0,0,.05,.03,.05,.03,.16,1,1.82,2.33-.57,2.78-.58,.05-1.16,.1-1.75,.16-.27-.44-.55-.89-.82-1.33Z"/>
  <path class="cls-7" d="M208.44,146.19c3.66-1.52,4.51-.61,4.47,4.59-1.35-1.39-2.71-2.78-4.47-4.59Z"/>
  <path class="cls-7" d="M185.91,149.1c-1.53-1.4-2.97-2.72-4.46-4.1,2.93-1.73,4.08-.63,4.46,4.1Z"/>
  <path class="cls-12" d="M255.68,152.86c-.68-.82-1.36-1.64-2.04-2.47,.87-.71,1.74-1.43,2.61-2.14l.79,.69c-1.38,1.05,1.61,3.3-1.36,3.91Z"/>
  <path class="cls-7" d="M150.67,165.68h-3.25v-4.4c.26-.11,.52-.23,.78-.34,.73,1.4,1.46,2.79,2.47,4.74Z"/>
  <path class="cls-7" d="M277.67,136.73q4.27,.63,3.02,5.13c-1.05-1.78-1.95-3.31-3.02-5.13Z"/>
  <path class="cls-12" d="M270.85,153.89c.22-.85,.52-1.7,.63-2.57,.09-.74-.04-1.51-.08-2.33,3.03-.38,1.03,2.41,1.98,3.31-.75,.63-1.5,1.26-2.25,1.89,0,0,.02,0,.02,0,.04-.13,.08-.25,.11-.38-.13,.02-.27,.04-.4,.07l-.02,.02Z"/>
  <path class="cls-7" d="M238.47,169.01c-2.97,.86-4.55-.41-4.23-3.42,0-.05,.49-.05,.74-.08,1.16,1.16,2.32,2.33,3.48,3.5Z"/>
  <path class="cls-8" d="M267.07,121.1c-2.54-1-5.07-2-7.61-3,2.54,1,5.07,2,7.61,3Z"/>
  <path class="cls-2" d="M289.18,130.06c-2.33-1-4.67-2.01-7-3.01,.58,0,1.15,0,1.73,.01,1.76,1,3.51,2,5.27,3Z"/>
  <path class="cls-14" d="M166.96,118.37c1.92,.09,3.85,.17,5.77,.26-.01,.22-.02,.44-.03,.65-1.98,.12-3.96,.25-5.94,.37,.07-.43,.14-.86,.21-1.29Z"/>
  <path class="cls-12" d="M238.47,169.01c-1.16-1.17-2.32-2.33-3.48-3.5,.03-.49,.06-.99,.09-1.48,1.37,1.42,2.74,2.83,4.1,4.25-.24,.24-.47,.49-.71,.73Z"/>
  <path class="cls-2" d="M274.06,124.1c-2.34-1.01-4.68-2.01-7.02-3.02,2.34,1.01,4.68,2.01,7.02,3.02Z"/>
  <path class="cls-13" d="M264.18,132.49c-.24,1.79-.47,3.57-.71,5.36-.33,0-.67,0-1,0,.19-1.79,.39-3.59,.58-5.38,.38,0,.75,.02,1.13,.02Z"/>
  <path class="cls-10" d="M255.79,117.84c-1.1-.42-2.2-.83-3.31-1.25-.06-.57-.12-1.13-.27-2.56,1.51,1.61,2.54,2.71,3.58,3.81Z"/>
  <path class="cls-14" d="M222.85,118.68c.76,.85,1.53,1.71,2.29,2.56-.8,.54-1.59,1.09-2.39,1.63-.24-.93-.47-1.87-.71-2.8,.27-.46,.54-.93,.81-1.39Z"/>
  <path class="cls-8" d="M239.75,104.37c.57,1.18,1.15,2.35,1.72,3.53-.57-1.18-1.15-2.35-1.72-3.53Z"/>
  <path class="cls-2" d="M233.88,107.89c.03-.22,.06-.45,.09-.67,1.53,.85,3.06,1.69,4.6,2.54-.8,.02-1.6,.03-2.4,.05,0,0,.01,0,.01,0-.39-.2-.79-.4-1.18-.61,0,0,.02,.01,.02,.01-.38-.44-.76-.89-1.14-1.33Z"/>
  <path class="cls-13" d="M257.72,168.44c.58-.05,1.16-.1,1.75-.16,1.14,.28,2.27,.56,3.41,.84-1.72,.11-3.43,.21-5.15,.32,0-.33,0-.67,0-1Z"/>
  <path class="cls-10" d="M236.17,109.81c.8-.02,1.6-.03,2.4-.05,0,0-.03-.02-.03-.02,.39,.42,.77,.83,1.16,1.25,.01,.19,0,.39,0,.58-1.17-.59-2.34-1.17-3.51-1.76Z"/>
  <path class="cls-12" d="M216.32,149.75c-.29-.48-.59-.95-.88-1.43,.28-.18,.57-.36,.85-.54l.74,1.51c-.24,.15-.47,.31-.71,.46Z"/>
  <path class="cls-8" d="M281.03,126.47c-1.17-.4-2.34-.81-3.52-1.21,1.17,.4,2.34,.81,3.52,1.21Z"/>
  <path class="cls-12" d="M226.32,171.82c-.57,.04-1.14,.09-1.72,.13-.4-.43-.79-.86-1.19-1.29,.97,0,1.93,.02,2.9,.03,0,.38,0,.76,0,1.13Z"/>
  <path class="cls-6" d="M236.07,97.21c2.25,.6,.09,1.23,0,1.85,0-.62,0-1.23,0-1.85Z"/>
  <path class="cls-2" d="M239.69,110.99c-.39-.42-.77-.83-1.16-1.25,.95,.15,1.9,.3,2.85,.44,0,.2-.01,.4-.02,.6-.56,.07-1.12,.14-1.67,.21Z"/>
  <path class="cls-13" d="M299.07,143.73c.89,.38,1.78,.76,2.67,1.14-.98-.12-1.96-.23-2.94-.35,0,0-.03-.03-.03-.03,.1-.25,.2-.5,.31-.75Z"/>
  <path class="cls-13" d="M261.32,140.83c.34-.64,.68-1.28,1.01-1.92-.34,.64-.68,1.28-1.01,1.92Z"/>
  <path class="cls-5" d="M197.83,103.25c0,.32-.01,.65-.02,.97-.41-.06-.82-.11-1.23-.17,0-.29,1.42,.23,1.43-.06,.41,.02-.58-.77-.17-.75Z"/>
  <path class="cls-10" d="M239.82,112.8c-.04-.41-.09-.81-.13-1.22,.34,.23,.68,.45,1.02,.68-.3,.18-.6,.36-.9,.55Z"/>
  <path class="cls-13" d="M256.57,155.16c-.16-.4-.32-.8-.48-1.2,.16,.4,.32,.8,.48,1.2Z"/>
  <path class="cls-8" d="M276.38,124.7c-.79-.21-1.59-.42-2.38-.63,.79,.21,1.59,.42,2.38,.63Z"/>
  <path class="cls-8" d="M259.51,118.13c-.56-.18-1.12-.35-1.68-.53,.56,.18,1.12,.35,1.68,.53Z"/>
  <path class="cls-13" d="M302.08,148.05c.05,.21,0,.39-.15,.54-.42-.06-.84-.11-1.26-.17,.02-.12,.03-.25,.05-.37h1.37Z"/>
  <path class="cls-13" d="M270.34,149.25c-.13,.12-.25,.23-.38,.35-.06-.14-.15-.27-.18-.42,0-.05,.15-.19,.2-.17,.13,.05,.24,.16,.36,.24Z"/>
  <path class="cls-13" d="M266.25,135.2c-.11-.51-.23-1.02-.34-1.54,.34,0,.68,0,1.02,0,.01,.21,.02,.41,.04,.62-.24,.31-.48,.62-.71,.92Z"/>
  <path class="cls-8" d="M282.19,127.06c-.39-.2-.79-.4-1.18-.6,.39,.2,.79,.4,1.18,.6Z"/>
  <path class="cls-8" d="M277.54,125.28c-.4-.2-.8-.41-1.2-.61,.4,.2,.8,.41,1.2,.61Z"/>
  <polygon class="cls-8" points="117.16 152.78 117.24 152.53 117.25 152.79 117.16 152.78"/>
  <path class="cls-14" d="M219.31,116.98c-.45-.18-.9-.36-1.36-.54,.45,.18,.9,.36,1.36,.54Z"/>
  <path class="cls-14" d="M219.91,117.55c-.21-.2-.41-.39-.62-.59,.21,.2,.41,.39,.62,.59Z"/>
  <path class="cls-14" d="M177.42,177.34c.12,.16,.23,.33,.35,.49-.12-.16-.23-.33-.35-.49Z"/>
  <path class="cls-13" d="M274.22,152.27c-.03,.27-.07,.54-.1,.81,.03-.27,.07-.54,.1-.81Z"/>
  <path class="cls-11" d="M220.15,144.41c0-.2-.02-.39-.03-.59,.07,.14,.15,.27,.2,.41,.01,.04-.11,.11-.17,.17Z"/>
  <path class="cls-13" d="M278.02,106.18c-.17,.2-.34,.4-.51,.6,.17-.2,.34-.4,.51-.6Z"/>
  <path class="cls-14" d="M92.55,144.17c.24,.05,.47,.11,.71,.16-.24-.05-.47-.11-.71-.16Z"/>
  <path class="cls-11" d="M202.17,162.91c-.14-.19-.13-.37,.02-.55,.05,.13,.11,.26,.13,.39,0,.04-.1,.1-.15,.15Z"/>
  <path class="cls-13" d="M267.6,132.29c-.2,0-.39,0-.59,0,.2,0,.39,0,.59,0Z"/>
  <path class="cls-6" d="M335.64,111.74c-3.73-2.77-7.25-5.69-11.09-8.08-1.51-.94-3.72-.74-5.61-.98-3.34-.43-6.56-1.09-9.32-3.92,6.52-2.85,12.56-6.17,19.62-3.6,3.36,1.22,5.7,3.41,6.74,7.07,.99,3.47,.95,6.77-.35,9.52Z"/>
  <path class="cls-6" d="M328.38,137.29c-3.52-4.01-1.54-8.37-1-12.4,.7-5.25,2.16-10.4,3.23-15.31,9.46,7.72,5.29,22.45-2.23,27.71Z"/>
  <path class="cls-6" d="M302.62,102.05c2.31-2.98,4.83-2.91,6.89-.09,3.44,4.73,4.59,9.98,3.44,15.64-.47,2.31-1.79,4.45-3.27,6.56,.19-6.14-1.94-10.99-6.06-15-.33-2.37-.66-4.74-.99-7.11Z"/>
  <path class="cls-6" d="M320.53,103.7c2.03,.75,4.09,1.42,6.05,2.32,.58,.27,1.24,1.23,1.22,1.84-.18,4.65-.42,9.3-.9,13.92-.1,.96-1.13,2.04-2.01,2.64-1.94,1.33-3.44,.73-3.7-1.66-.68-6.08-1.1-12.2-1.63-18.3,.33-.25,.66-.51,.98-.76Z"/>
  <path class="cls-6" d="M312.46,137.34c1.78-3.54,3.23-6.71,4.96-9.71,.88-1.52,1.9-3.52,4.32-1.49,.68,.56,2.18,.09,3.58,.09-.86,5.04-.84,10.21-4.15,14.54-2.76-1.09-5.42-2.13-8.71-3.42Z"/>
  <path class="cls-6" d="M323.46,92.71c-2.61,.72-4.49,.31-6.68-1.1-5.28-3.39-11.19-3.19-16.69-.78-2.84,1.24-4.78,.9-7.04-.7-1.01-.71-2.17-1.19-3.23-1.76,7.95-2.99,26.18-3.61,33.64,4.33Z"/>
  <path class="cls-6" d="M311.06,124.99c4.68-4.02,1.62-11.4,6.66-15.05,.67,4.17,1.39,8.25,1.95,12.34,.3,2.18-4.11,5.18-6.14,4.24-.77-.36-1.47-.9-2.48-1.53Z"/>
  <path class="cls-2" d="M324.08,143.79c-3.25-1.06-6.56-1.97-9.74-3.22-8.34-3.27-16.62-6.69-24.91-10.06-.13-.05-.19-.31-.28-.47,2.89,.88,5.85,1.57,8.66,2.66,8.47,3.29,16.88,6.72,25.3,10.13,.39,.16,.66,.63,.98,.96Z"/>
  <path class="cls-7" d="M317.82,103.98c1.23,3.23-.74,4.79-2.87,6.68-.98-2.77-1.87-5.28-2.85-8.06,1.93,.46,3.87,.93,5.72,1.37Z"/>
  <path class="cls-7" d="M305.35,134.41c3.09-1.83,5.52-3.28,7.95-4.72,.27,.29,.53,.58,.8,.86-.96,2.09-1.93,4.17-2.91,6.3-2.02-.84-3.59-1.5-5.84-2.44Z"/>
  <path class="cls-7" d="M325.82,135.51c.92,2.48,1.84,4.97,3.05,8.24-2.39-.93-3.98-1.54-5.67-2.2,.62-2.07,1.15-3.84,1.68-5.61,.31-.14,.63-.28,.94-.42Z"/>
  <path class="cls-13" d="M302.62,102.05c.33,2.37,.66,4.74,.99,7.11-.76-.39-1.52-.78-2.28-1.17-1.57-1.08-3.13-2.15-4.7-3.23,.04-.41,.08-.82,.12-1.22,1.74,1.06,3.49,2.11,5.41,3.28-.14-1.74-.27-3.26-.4-4.79,.28,0,.57,.01,.85,.02Z"/>
  <path class="cls-8" d="M330.47,146.17c-2.14-.8-4.27-1.59-6.41-2.39,2.14,.8,4.27,1.59,6.41,2.39Z"/>
  <path class="cls-6" d="M309.64,174.08c5.01-7.14,2.07-15.29,3.96-23.02,2.17,.8,4.26,1.43,6.2,2.38,.69,.34,1.34,1.44,1.43,2.26,.33,2.85,.64,5.75,.53,8.61-.29,7.76-3.76,10.64-12.12,9.77Z"/>
  <path class="cls-6" d="M285.02,176.12c8.85-3.8,16.25-9.05,25.58-9.89,.03,3.79-.63,6.85-3.99,8.45-5.21,2.48-10.55,4.59-16.47,3.27-1.47-.33-2.87-1.01-5.12-1.83Z"/>
  <path class="cls-6" d="M264.69,176.09c16.97-7.86,23.88-9.33,30.36-5.62-7.11,2.69-14.13,5.69-21.37,7.96-3.97,1.25-5.36,.38-8.99-2.34Z"/>
  <path class="cls-6" d="M308.58,176.11c3.2-.61,6.43-.88,9.43-1.89,3.34-1.13,5.05-4.09,5.42-7.6,.26-2.45,.22-4.96,.04-7.43-.13-1.8,.37-3.3,2.09-3.06,1.49,.21,3.98,1.43,4.05,2.37,.49,6.13-.98,11.91-6.04,15.68-4.47,3.33-9.63,4.3-14.99,1.9-.04-.02,0-.19,0,.03Z"/>
  <path class="cls-6" d="M280.42,178.4c2.11-1.66,3.81-1.51,6.12-.29,4.8,2.55,10.12,2.1,14.92,.08,3.45-1.45,6.18-.7,9.21,.6-7.62,5.49-23.78,5.9-30.25-.4Z"/>
  <path class="cls-6" d="M259.26,178.08c2.11-.92,3.6-1.8,5.83,.15,2.53,2.22,6.07,2.42,9.38,1.51,2.61-.72,4.85-.28,7.04,1.32,.9,.66,2.09,.9,3.07,1.3-5.75,2.85-20.37,1.54-25.32-4.28Z"/>
  <path class="cls-7" d="M292.9,167.03h-6.66c-1.32-3.76-.83-5.55,1.72-6.53,.74,1.13,1.43,2.3,2.24,3.39,.73,.98,1.59,1.86,2.7,3.14Z"/>
  <path class="cls-12" d="M262.88,169.12c-1.14-.28-2.27-.56-3.41-.84,2.4-.45,.74-1.78,.57-2.78,.21-.08,.42-.16,.63-.24,.08-.05,.15-.11,.23-.16-.09-.13-.17-.26-.26-.39h0c.8-.67,1.6-1.33,2.4-2,.32,.42,.63,.85,.95,1.27q-1.67,.89-.08,3.48c.65,.64,1.3,1.28,1.95,1.91-.99-.09-1.99-.18-2.98-.27Z"/>
  <path class="cls-2" d="M177.45,85.31c2.1,.43,4.47,.48,4.91,3.43-.76,.48-1.43,.9-2.09,1.32-1.34-.25-2.68-.5-4.01-.75-1.51-.41-3.01-.89-4.53-1.22-1.06-.23-2.16-.27-3.44-.42-.12,1.92-.21,3.43-.32,5.11-4.3-1.48-7.52-4.13-10.25-7.42-1.67-2.02-1.06-3.66,1.44-4.23,1.01-.23,2.07-.24,3.11-.35,0,.47,.02,.94,.02,1.41-.72,.64-2.13,1.71-2.05,1.86,.94,1.6,2.11,3.05,3.21,4.54,.29-.24,.57-.47,.86-.71-1.04-1.27-2.07-2.54-3.7-4.53,2.8,.13,4.97-.04,7.01,.39,2.89,.61,5.69,1.71,8.55,2.49,.42,.12,2.38,1.52,1.26-.93Z"/>
  <path class="cls-10" d="M177.45,85.31c1.11,2.44-.84,1.04-1.26,.93-2.86-.78-5.66-1.88-8.55-2.49-2.05-.43-4.21-.26-7.01-.39,1.62,1.99,2.66,3.26,3.7,4.53-.29,.24-.57,.47-.86,.71-1.11-1.49-2.28-2.94-3.21-4.54-.08-.14,1.33-1.22,2.05-1.86,4.02,.61,8.04,1.23,12.06,1.84,1.03,.42,2.06,.85,3.09,1.27Z"/>
  <path class="cls-2" d="M174.36,84.04c-4.02-.61-8.04-1.23-12.06-1.84,0-.47-.02-.94-.02-1.41,4.03,1.08,8.06,2.17,12.09,3.25Z"/>
  <path class="cls-6" d="M51.78,171.32c4.72,.23,9.44,.66,14.15,.64,5.39-.03,10.78-.46,16.38-.73,.83,1.8,1.75,3.78,2.68,5.76-6.41,2.6-32.16,2.38-35.45-.31,1.74,0,3.37,.09,4.98-.06,.48-.04,.89-.77,1.33-1.19,.63-2.33-.38-3.33-2.52-2.78-1.45,.37-1.67-.12-1.56-1.34Z"/>
  <path class="cls-6" d="M124.3,180.36c-.99,.5-1.98,1-2.97,1.5-5.44-.42-10.94-.46-16.29-1.42-2.81-.5-5.35-2.6-8.01-3.97,.09-.26,.19-.52,.28-.77,.52-.04,1.18-.31,1.52-.07,5.91,4,12.02,2.4,18.1,.67,1.59-.45,2.52-.51,3.59,1.12,.83,1.27,2.48,1.98,3.77,2.94Z"/>
  <path class="cls-6" d="M105.85,169.86c-2.52,1.41-4.73,2.75-7.03,3.87-.87,.42-2.64,.78-2.87,.41-.94-1.51-1.6-3.27-2-5.03-.07-.33,1.48-1.34,2.39-1.55,3.42-.8,6.63-.29,9.51,2.3Z"/>
  <path class="cls-6" d="M99.38,165.54c-3.43,1.5-6.66,1.05-8.6-1.78-.83-1.22,.29-3.84,.53-5.83,.31-.08,.61-.16,.92-.23,2.35,2.57,4.69,5.14,7.16,7.84Z"/>
  <path class="cls-7" d="M51.78,171.32c-.11,1.22,.11,1.71,1.56,1.34,2.13-.54,3.15,.45,2.52,2.78-2.7-.17-5.4-.33-8.09-.5,0-.31-.02-.63-.02-.94,.73-.2,1.46-.4,2.4-.66-.46-.58-.83-1.04-1.48-1.87,1.31-.06,2.21-.11,3.12-.15Z"/>
  <path class="cls-6" d="M239.16,99.71c.37-3.36,1.8-4.36,5.23-3.66-1.74,1.22-3.49,2.44-5.23,3.66Z"/>
  <path class="cls-6" d="M245.31,95.1c-.37-.28-.81-.52-1.08-.88-.08-.1,.34-.59,.52-.9,.42,.29,.84,.59,1.25,.88-.23,.3-.47,.6-.7,.9Z"/>
  <path class="cls-7" d="M151.52,106.48c2.98,.53,5.19,.93,8.06,1.45-3.23,1.63-5.43,1.16-8.06-1.45Z"/>
  <path class="cls-9" d="M150.09,177.25c.21-.06,.42-.11,.63-.17-.21,.26-.41,.51-.62,.77-.05-.13-.11-.26-.13-.4,0-.06,.08-.13,.12-.2Z"/>
  <path class="cls-14" d="M148.38,181.65c1.16-.09,2.31-.19,3.47-.28-1.16,.09-2.31,.19-3.47,.28Z"/>
  <path class="cls-5" d="M132.51,181.36s-.06,0-.05,0c-.04,.06-.09,.13-.13,.2,.06-.07,.12-.13,.19-.2Z"/>
  <path class="cls-9" d="M197.83,103.25c-.41-.02,.58-.23,.17-.25,.01-.4-1.38-.6-1.37-1,.4,.42,.79,.84,1.19,1.25Z"/>
  <path class="cls-9" d="M270.88,153.86c.13-.02,.27-.04,.4-.07-.04,.13-.07,.25-.11,.38-.12-.08-.21-.19-.29-.31Z"/>
  <path class="cls-9" d="M288.56,97.84c-.02,.24-.04,.48-.07,.72-.17-.05-.33-.09-.5-.14-.05-.17-.1-.34-.15-.5,.24-.03,.48-.05,.71-.08Z"/>
  <path class="cls-9" d="M289.16,97.22c.01,.21,.03,.43,.04,.64-.21-.01-.41-.02-.62-.03,.19-.2,.39-.4,.58-.61Z"/>
  <path class="cls-9" d="M296.75,103.54c-.04,.41-.08,.82-.12,1.22-.17-.31-.35-.62-.52-.93,.22-.1,.43-.2,.65-.3Z"/>
  <path class="cls-9" d="M266.25,135.2c.24-.31,.48-.62,.71-.92,1.32,3.21,2.66,6.41,3.95,9.63,.2,.51,.15,1.12,.21,1.69-2.74-1.62-3.5-4.59-4.69-7.27-.2-.39-.39-.78-.59-1.16,.13-.66,.26-1.31,.4-1.97Z"/>
  <path class="cls-10" d="M233.88,107.89c.38,.44,.76,.89,1.14,1.33-1.06-.53-2.12-1.06-3.18-1.59,.68,.09,1.36,.18,2.04,.27Z"/>
  <path class="cls-10" d="M235.01,109.21c.39,.2,.79,.4,1.18,.61-.39-.2-.79-.4-1.18-.61Z"/>
  <path class="cls-12" d="M229.21,121.23c0-.23,0-.67,.02-.67,1.85-.03,3.7-.03,5.92-.03-.48,.4-.58,.53-.71,.58-.18,.07-.37,.09-.56,.12-1.56,0-3.11,0-4.67,0Z"/>
  <path class="cls-13" d="M265.86,137.17c.2,.39,.39,.78,.59,1.16-.57,.34-1.13,.67-1.7,1.01,0,0-.23,.04-.23,.04,0,0-.12-.2-.11-.2,.08-.37,.15-.74,.23-1.1,.41-.3,.82-.6,1.23-.91Z"/>
  <path class="cls-12" d="M260.04,165.51s-.05-.03-.05-.03c.21-.25,.43-.51,.64-.76,0,0,0,0,0,0,0,.18,.01,.36,.03,.55-.21,.08-.42,.16-.63,.24Z"/>
  <path class="cls-9" d="M264.63,138.07c-.07,.37-.15,.74-.23,1.1,.07-.37,.15-.74,.23-1.1Z"/>
  <path class="cls-13" d="M260.67,165.27c-.02-.18-.03-.36-.03-.55,.09,.13,.17,.26,.26,.39-.08,.05-.15,.11-.23,.16Z"/>
</svg>