<?xml version="1.0" encoding="utf-8"?>
<!-- Generator: Adobe Illustrator 27.0.0, SVG Export Plug-In . SVG Version: 6.00 Build 0)  -->
<svg version="1.1" id="Layer_1" xmlns="http://www.w3.org/2000/svg" xmlns:xlink="http://www.w3.org/1999/xlink" x="0px" y="0px"
	 viewBox="0 0 414 200" style="enable-background:new 0 0 414 200;" xml:space="preserve">
<style type="text/css">
	.st0{fill:#47413F;}
	.st1{fill:#322C27;}
	.st2{fill:#FBB040;}
	.st3{fill:#FFF8B8;}
	.st4{fill:#A3CEDA;}
	.st5{fill:#655F55;}
	.st6{fill:#737171;}
	.st7{fill:#BDB5B3;}
	.st8{fill:#BBAC97;}
	.st9{fill:#E8E0CB;}
	.st10{fill:#E9E5DD;}
	.st11{fill:#B5D3DA;}
	.st12{fill:#F7B7D3;}
	.st13{fill:#00BFF3;}
	.st14{fill:#ECEAEA;}
	.st15{fill:#FFF200;}
	.st16{fill:#101010;}
	.st17{fill:#4F4A48;}
	.st18{fill:#433E3A;}
	.st19{fill:#E6E2DA;}
	.st20{fill:#6C635C;}
	.st21{fill:#BAB8B9;}
	.st22{fill:#EDE9E0;}
	.st23{fill:#E7E0CC;}
	.st24{fill:#BAAD98;}
	.st25{fill:#EBEAEA;}
	.st26{fill:#B0D2DA;}
	.st27{fill:#FDFDFD;}
</style>
<path class="st1" d="M350.47,56.67c0.6-0.11,1.3-0.26,1.41,0.62c0.12,1-0.79,1.1-1.38,1.27c-3.79,1.07-7.6,2.07-11.41,3.09
	c-11.18,2.99-22.35,6.01-33.54,8.95c-2.03,0.53-3.17,1.08-1.97,3.64c0.77,1.63,1.11,3.63,1.08,5.46c-0.03,2.13,0.9,3.23,2.49,4.2
	c8.1,4.96,11.02,12.66,10.61,22.05c-0.05,1.08-0.47,2.22,0.69,2.86c3.36,1.87,3.85,5.32,4.19,8.64c0.49,4.74,0.15,9.52-1.54,13.98
	c-1.32,3.48-2.17,6.93-2.76,10.68c-1.28,8.14-5.79,14.81-12.48,18.99c-5.28,3.3-10.6,6.66-16.16,9.49
	c-5.63,2.86-11.68,3.27-17.58,1.83c-4.14-1.01-7.53-0.23-11.25,1.38c-8.67,3.75-17.49,3.75-26.24,0.08
	c-0.87-0.36-1.62-0.34-2.47-0.04c-9.03,3.16-18.01,2.98-26.9-0.6c-1.06-0.43-1.88-0.35-2.92,0.01c-11.13,3.83-22.26,4.53-33.32-0.35
	c-1-0.44-1.75-0.18-2.66,0.24c-8.8,4.07-17.76,4.34-26.71,0.72c-1.69-0.68-2.72,0.2-3.79,0.73c-7.99,3.89-16.18,3.54-23.93,0.1
	c-4.57-2.03-8.4-1.75-12.62,0.01c-2.16,0.9-4.46,1.23-6.75,1.55c-0.75-0.11-1.5-0.23-2.12,0.4c-2.23-0.03-4.46-0.05-6.69-0.08
	c-0.46-0.55-1.03-0.45-1.61-0.32c-0.49-0.06-0.99-0.12-1.48-0.18c-0.91-0.83-2-0.92-3.13-0.85c-1.96-0.95-3.79-2.38-6.16-1.71
	c-0.06-0.42-0.12-0.83-0.18-1.25c0-0.49-0.01-0.97-0.01-1.46c0.11-0.49,0.18-1,0.73-1.19l0.03,0.03c0.24,0.78,0.79,1.05,1.53,0.99
	c2.67,2.87,6.26,3.42,9.77,4.02c7.13,1.21,13.79-0.75,20.49-3.29c-0.87-1.65-2.37-2.27-3.13-3.45c-1.07-1.67-2.05-1.46-3.65-0.99
	c-2.44,0.72-4.95,1.38-7.53,1.45c-0.17,0.02-0.34,0.04-0.52,0.06c-1.21-0.02-2.41-0.03-3.62-0.05c-0.18-0.02-0.35-0.04-0.53-0.06
	c-0.34-0.01-0.67-0.02-1.01-0.03c-0.52-0.04-1.04-0.08-1.56-0.12c-0.32-0.06-0.64-0.11-0.95-0.17c-0.2-0.07-0.4-0.14-0.59-0.22
	c-3.05-0.81-6.02-2.61-9.27-0.81c0.01-0.53,0.03-1.06,0.04-1.58l-0.04-0.05c5.09-2.15,10.06-4.53,15.24-7.45
	c-5.34-2-10.21-2.83-15.26-1.45c-1.13-1.78,0.16-2.48,1.37-2.4c3.47,0.23,5.81-2.05,8.46-3.69c0.55-0.04,1.13,0.03,1.52-0.51
	c3.91-0.61,7.81-1.14,11.66,0.34c0.64,0.25,1.39,0.36,1.89,0.78c4.32,3.61,8.58,2.33,12.98,0.09c6.17-3.14,12.16-2.05,17.82,1.45
	c1.66,1.03,3.24,1.6,5.06,1.04c2.1-0.64,4.22-0.76,6.36-0.54c1.57,0.16,2.85-0.56,4.1-1.26c5.79-3.21,11.45-3.02,17.04,0.49
	c1.61,1.01,6.04,0.46,7.48-0.87c0.2-0.11,0.39-0.22,0.59-0.32c0.08-0.16,0.21-0.24,0.38-0.24c1.64,0.25,3.15-1.87,4.86-0.28
	c-0.32,0.15-0.64,0.3-0.95,0.45c-0.23,0.07-0.45,0.13-0.68,0.2c-0.77,0.56-2.01,0.22-2.63,1.55c3.51,0.28,6.98,0.61,9.86,2.42
	c2.87,1.81,5.18,1.54,7.57-0.56c0.51,0.26,0.63,0.75,0.7,1.27c-0.53,0.47-1.06,0.95-1.59,1.42c-4.49,2.14-8.97,4.28-13.95,6.65
	c14.09,5.69,26.73,3.75,38.68-4.46c0.56,0.03,1.07-0.07,1.06-0.79c0-0.73-0.53-0.8-1.08-0.79l-0.05-0.05
	c-0.14-0.11-0.27-0.21-0.41-0.32c-0.64-0.46-0.91-1.06-0.65-1.86c1.18-0.48,2.21-0.12,3.17,0.61c0.21,0.74,0.66,1.33,1.42,1.19
	c0.67-0.12,0.7-0.86,0.83-1.47c0.25-1.18,0.11-2.47,0.86-3.51c0.59,0.06,1.19,0.11,1.78,0.17c-0.32,3.94-0.32,3.94,3.34,2.59
	c0.64-0.24,1.29-0.45,1.95-0.62c3.65-0.96,4.04-2.2,1.59-5.13c-0.61-0.73-1.28-1.34-2.18-1.79c-3.2-1.59-3.17-1.65-4.2,1.85
	c-0.92-2.19-1.34,0.46-2.05,0.23c1.07-4.8,2.11-9.6,3.23-14.39c1.48-6.35,2.94-12.71,4.58-19.01c0.86-3.32,0.96-6.82,2.34-10
	c0.33,0,0.66,0.01,0.99,0.01c0.06,0.18,0.13,0.35,0.19,0.53c-0.04,0.34-0.07,0.68-0.11,1.02c-0.28,1.1-0.92,2.14-0.29,3.48
	c-0.46-1.79,2.06-1.72,1.69-3.45c1.94-5.1,3.22-10.47,5.79-15.31c1.08-2.04,0.48-2.67-1.58-2.3c-0.88-1.09-2.09-0.33-3.12-0.59
	c1.21-0.37,2.39-0.87,3.62-1.07c1.41-0.23,2.52-0.55,3.17-2.12c1.14-2.79,1.26-5.95,3.18-8.5c0.69-0.92-0.73-0.72-1.23-0.98
	c0-0.23,0-0.46,0-0.69c0.49-0.75,2.29-0.02,1.91-1.41c-0.23-0.81-1.45-0.12-2.23,0.05c-0.57,0.12-1.14,0.22-1.71,0.32
	c-0.19-0.41-0.38-0.82-0.58-1.23c0.13-0.4,0.43-0.5,0.79-0.51c3.4-0.08,5.38-1.7,6.89-5.09c1.65-3.7,4.05-7.19,8.01-8.89
	c5.66-2.43,10.81-1.06,14.57,4.03c0.8,1.09,1.53,1.83,2.94,1.38c1.44-0.47,1.02-1.69,1.03-2.68c0.05-6.55,3.57-9.53,9.45-11.24
	c5.3-1.54,10.29,0.21,14.06,4.35c1.77,1.94,3.28,1.96,5.42,1.35c7.26-2.07,14.54-4.02,21.82-5.98c9.88-2.67,19.76-5.33,29.66-7.94
	c0.76-0.2,2.43-1.55,2.02,1.04c-7.93,2.08-15.87,4.1-23.79,6.25c-12.85,3.49-25.7,6.99-38.51,10.67c-2.38,0.69-4.98,0.96-7.07,2.58
	c-0.37,0.08-1.05,0.12-1.07,0.25c-0.12,0.86,0.94,0.72,1.17,1.34c-0.29,0.3-0.85,0.63-0.83,0.91c0.19,3.14,6.02,7.69,8.87,6.97
	c2.23-0.57,4.45-1.17,6.67-1.77c9.09-2.46,18.19-4.91,27.27-7.38C333.16,61.44,341.82,59.05,350.47,56.67z M270.2,68.84
	c0,0-0.04-0.02-0.04-0.02c0.01-0.47-0.15-0.84-0.55-1.07c0.43-1.38-0.07-1.53-1.25-1.16c-2.26,0.72-4.54,1.35-6.82,2
	c-1.43,0.4-3.01,0.42-4.36,1.85c2.22,0.5,3.89-1.01,5.76-0.69c0,0.39,0,0.78,0,1.17c-4.44,0.06-7.98,1.37-8.92,6.62
	c-0.23,1.29-0.9,2.49-1.38,3.72c-0.22,0.56-0.75,1.15-0.32,1.71c0.45,0.57,1.12,0.14,1.67-0.01c6.35-1.73,12.68-3.55,19.06-5.17
	c1.78-0.45,1.45-1.42,0.66-2.15c-1.83-1.71-2.42-3.97-3.06-6.25C270.51,69.21,270.36,69.02,270.2,68.84z M245.55,150.53
	c-1.31,0.86-3.24,0.34-4.27,2.02c1.8,1.43,4.17,1.89,5.37,4.04c0.35,0.63,0.91,0.58,1.56,0.27c1.48-0.68,3-1.3,4.54-1.82
	c1.89-0.65,1.46-1.59,0.37-2.61c-2.06-1.93-4.59-2.11-7.19-2c0.02-0.46,0.05-0.93,0.07-1.39c1.94-0.74,3.79-0.14,5.63,0.45
	c0.17,0.1,0.35,0.19,0.52,0.29c0.95,0.27,1.65,0.93,2.3,1.64c2.74,3,6.63,2.71,8.94-0.67c0.87-1.28,2.04-2.1,3.49-2.58
	c3.47-1.14,6.85-0.49,9.87,1.15c2.37,1.29,3.19,0.52,3.98-1.64c1.73-4.71,5.47-7.02,9.87-7.99c2.63-0.58,2.48-2.84,3.42-4.44
	c0.9-1.53-0.84-1.81-1.4-2.67c-1.34-2.05-3.79-3.88-2.56-6.74c1.42-3.32,2.76-6.88,6.89-8.5c-1.35-0.44-2.16-0.71-2.97-0.97
	c-5.3-1.68-7.86-5.45-7.52-11.18c0.07-1.24,0.23-2.51,0.56-3.7c0.56-2.01-0.08-2.42-1.96-2.26c-11.35,0.94-20.12-4.27-27.4-12.8
	c-2.23-2.61-5.28-2.44-7.07,0.52c-3.18,5.25-4.21,11.45-7.04,16.9c-2.29,4.4-3.55,9.34-5.51,13.96c-2.47,5.82-4.72,11.76-7.04,17.65
	c-1.57,4-2.97,8.06-4.83,11.95c-1.07,2.23,0.65,5.75,2.38,5.26c4.66-1.32,9.85,0.11,14.15-2.97c0.47,0.13,0.88,0.08,1.19-0.36
	c0.35-0.03,0.69-0.06,1.04-0.09C245.14,149.69,245.35,150.11,245.55,150.53z M266.45,169.36c5.95,1.86,11.92,2.79,18.13,1.34
	c3.53-0.83,8.62-3.42,10.43-5.88c-2.09-1-4.49-1.08-6.45-2.43c-0.57-0.39-1.11-0.31-1.67,0.07c-6.08,4.12-12.76,5.67-19.95,4.97
	c-1.94-0.43-3.77-1.41-5.92-1.09c1.47,1.1,2.95,2.14,4.75,2.57c0.15,0.09,0.29,0.19,0.44,0.28l0.05,0.2L266.45,169.36z
	 M294.87,160.55c-1.09,0.23-2.19,0.47-3.55,0.76c1.01,1.06,1.91,1.47,3.06,1.24c1.2,0.02,2.41,0.03,3.61,0.05
	c0.73,0.13,1.45,0.23,2.04-0.42c8.78-2.8,18.62-16.71,16.39-23.33c-2.31,2.05-4.81,4.07-7.69,4.6c-2.9,0.53-3.16,2.35-3.5,4.55
	C304.25,154.4,300.71,158.51,294.87,160.55z M310.52,140.77c5.43-2.72,8.76-7.27,9.92-13.3c0.91-4.73,1.12-9.56-0.4-14.3
	c-0.45-1.41-1.57-2.3-2.62-2.7c-0.99-0.38-1.04,1.32-1.61,2.02c-0.5,0.61-0.84,1.52-1.47,1.83c-3.54,1.72-2.89,4.69-2.3,7.7
	c0.14,0.7,0.26,1.41,0.26,2.12c0.03,5.43,0.1,10.88-5.71,13.68c-1.55,1.11-1.04,2.87-0.54,3.97c0.52,1.15,1.96,0.22,2.95-0.08
	C309.57,141.56,310.03,141.1,310.52,140.77z M218.72,142.05c-0.34,1.73-0.04,2.27,0.96,2.74c4.75,2.26,4.8,2.34,6.59-2.84
	c0.45-1.29,1.37-2.21,1.82-3.46c3.45-9.62,7.22-19.1,11.3-28.45c2.11-4.83,3.93-9.82,5.76-14.74c3.1-8.34,7.07-16.3,9.75-24.8
	c0.49-1.56,1.35-2.56,3.03-2.81c1.51-0.23,2.98-0.75,4.48-1.12c1.72-0.43,2.47-1.22,0.93-2.78c-3.01-3.06-7.26-4.89-11.66-2.77
	c-4.65,2.24-6.44,6.91-8.67,11.09c-2.17,4.08-3.09,8.76-4.93,13.05c-1.77,4.12-2.62,8.69-4.47,12.77c-3,6.61-4.97,13.63-7.86,20.28
	c-1.62,3.72-2.38,7.8-3.79,11.56C220.37,134.04,219.96,138.53,218.72,142.05z M294.29,89.33c0.06-0.74,0.14-1.09,0.11-1.43
	c-0.42-5.31-2.96-9.36-6.95-12.48c-3.18-2.49-5.96-5.3-7.52-9.2c-0.94-2.34-0.28-4.01,2.05-4.8c2.83-0.96,5.71-1.79,8.57-2.66
	c0.64-0.2,1.53-0.1,1.73-0.9c0.23-0.93-0.63-1.45-1.19-1.89c-3.57-2.78-7.52-4.03-12.01-3.13c-4.4,0.88-7.81,5.26-7.97,9.92
	c-0.19,5.47,2.72,9.58,5.21,13.88c0.82,1.41,1.79,2.71,3.11,3.83C283.83,84.2,289.03,86.4,294.29,89.33z M234.58,153.55
	c-6.78,0.35-18.55,4.51-27.12,9.59c-2.72,1.61-2.76,2.53,0.06,4.17c3.13,1.83,6.57,1.82,10,1.27c9.67-1.53,18.25-6.23,27.09-10.18
	c1.24-0.55,0.66-1.06-0.03-1.68C241.69,154.12,238.29,153.35,234.58,153.55z M180.09,157.81c-3.11-2.05-6.11-2.74-9.15-3.13
	c-11.78-1.5-21.92,3.48-31.93,8.93c-0.38,0.21-0.86,0.37-0.82,0.9c0.03,0.51,0.5,0.66,0.91,0.77c0.75,0.2,1.49,0.41,2.25,0.58
	c8.12,1.85,16.05,0.58,23.82-1.93C170.11,162.34,175.02,160.58,180.09,157.81z M310.38,110.39c-0.01-3.67-0.9-6.7-3.37-9.5
	c-3.4-3.86-7.03-7.05-11.74-9.08c-4.23-1.83-8.21-4.26-12.32-6.4c-0.69-0.36-1.33-1.59-2.13-0.8c-0.6,0.59-0.03,1.68,0.2,2.53
	c1.39,5.33,5.43,8.42,9.16,11.75c5.36,4.78,12.15,7.54,17.03,13.05c0.63,0.72,1.54,2.3,2.54,1.79
	C310.89,113.16,310.18,111.47,310.38,110.39z M304.2,141.48c-0.11-3.63-0.33-6.92-1.11-10.15c-0.22-0.91-0.11-2.03-1.29-2.38
	c-1.2-0.36-1.81,0.61-2.26,1.36c-2.68,4.39-5.45,8.73-6.78,13.87c-1.19,4.58-0.68,9.59-3.29,13.82c-0.76,1.23-0.09,1.85,1.19,1.67
	c4.27-0.62,7.94-2.05,10.62-6.1C303.84,149.69,304.01,145.49,304.2,141.48z M244.59,168.05c8.65,0.14,17.16-3.82,24.83-10.09
	c0.55-0.45,1.56-0.78,1.25-1.79c-0.26-0.84-1.19-0.53-1.81-0.67c-3.9-0.89-7.83-1.12-11.72-0.06c-7.64,2.09-14.65,5.85-21.82,9.17
	c-1.73,0.8-0.55,1.45,0.24,1.96C237.94,168.12,240.61,168.12,244.59,168.05z M105.78,163.98c8.33,2.58,15.94,3.27,23.8,1.52
	c4.52-1,8.41-3.36,12.48-5.33c1.47-0.71,4.25-1.34,3.91-2.72c-0.4-1.6-3.06-1.69-4.92-1.99c-6.57-1.08-12.72,0.79-18.88,2.72
	C116.85,159.85,111.6,161.66,105.78,163.98z M77.03,164.82c5.69,2.21,10.95,2.48,16.23,1.26c5.91-1.37,11.54-3.71,17.23-5.82
	c2.01-0.75,4.36-0.76,6.07-2.54c-1.18-1.06-2.37-1.74-3.73-2.06c-6.97-1.63-13.78-0.95-20.41,1.73
	C87.29,159.47,82.38,162.02,77.03,164.82z M310.59,125.63c-0.11-1.78-0.17-3.56-0.35-5.33c-0.17-1.7-0.53-3.44-1.85-4.57
	c-3.14-2.69-5.62-6.18-9.26-8.23c-0.71-0.4-1.24-1.59-2.16-1.06c-0.96,0.56-0.55,1.76-0.54,2.7c0.08,5.23,2.96,9.43,5.12,13.77
	c1.81,3.62,3.09,7.24,3.64,11.19c0.25,1.77,0.76,2.12,2.31,1.18c1.06-0.64,1.62-1.51,2.1-2.56
	C310.64,130.45,310.41,128.01,310.59,125.63z M270.56,166.01c3.22,0.06,6.37-0.58,9.28-1.83c3.2-1.37,6.98-2.28,7.91-6.7
	c0.38-1.81,0.76-3.64,1.32-5.4c0.51-1.62-0.14-2.1-1.43-1.68c-4.57,1.48-9.26,2.48-13.26,5.72c-2.39,1.93-4.41,4.42-7.29,5.78
	c-1.13,0.53-3.17,1.42-2.9,2.57c0.33,1.45,2.47,0.98,3.82,1.32C268.82,166,269.7,165.94,270.56,166.01z M185.43,174.57
	c4.86,0.15,9.54-0.87,14.19-2.14c0.62-0.17,1.49-0.14,1.44-1.17c-0.08-1.45-3.6-3.96-4.99-3.58c-8.35,2.33-16.49,1.3-24.43-1.85
	c-2.28-0.91-4.36-1.3-6.58-0.08c-0.43,0.23-1.14,0.07-1.24,0.73c-0.1,0.63,0.54,0.76,0.9,1.1
	C170.63,173.17,177.84,174.5,185.43,174.57z M136.43,172.19c-2.07-0.94-3.67-2.12-4.99-3.62c-0.93-1.06-1.97-1.3-3.23-1.05
	c-5.02,0.98-10.02,0.88-15.05,0.02c-3.06-0.52-6-1.37-8.89-2.48c-0.83-0.32-1.55-0.33-2.14,0.27c-0.83,0.85,0.08,1.5,0.48,2.05
	c0.98,1.37,2.24,2.46,3.73,3.2c3.63,1.78,7.32,3.39,11.28,4.15C124.04,175.95,130.31,175.82,136.43,172.19z M285.07,97.05
	c-1.77-1.36-2.94-3.12-3.92-4.94c-0.8-1.5-1.74-2.28-3.37-2.79c-2.68-0.83-5.61-1.65-7.55-3.81c-2.86-3.19-5.92-4.13-9.73-2.32
	c-0.07,0.03-0.17,0.02-0.25,0.03c-2.06,0.18-2.45,0.98-0.93,2.58c3.26,3.43,6.71,6.61,10.91,8.72
	C274.88,96.85,279.74,98.33,285.07,97.05z M311.85,113.41c2.23-1.37,2.75-2,3.48-4.16c2.61-7.72-0.78-18.07-7.97-23.19
	c-2.41-1.72-2.71-0.75-3.19,1.34c-0.37,1.64-0.86,3.24-2.27,4.32c-1.07,0.82-0.66,1.27,0.28,1.93c2.56,1.8,4.64,4.2,6.66,6.57
	C311.96,103.87,312.23,108.45,311.85,113.41z M132.1,166.95c3.04,3.04,6.57,4.85,10.41,6.13c7.57,2.52,15.01,2.16,22.3-1.16
	c0.47-0.22,1.32-0.14,0.96-1.15c-0.37-1.06-4.91-3.75-6.02-3.55c-7.41,1.36-14.82,2.01-22.05-0.79
	C135.75,165.67,134.12,165.48,132.1,166.95z M264.07,170.59c-3.25-2.23-5.96-3.77-10.01-2.56c-7.24,2.16-14.74,3.65-21.68-1.47
	c-0.99-0.73-2.13-0.19-2.72,0.68c-0.66,0.97,0.39,1.57,0.98,2.13c0.69,0.65,1.41,1.32,2.23,1.77c4.05,2.25,8.41,3.43,12.97,3.68
	C252.18,175.15,258.13,173.58,264.07,170.59z M302.98,81.44c0.76-2.91-0.98-5.19-1.86-7.73c-0.43-1.24-1.26-1.29-2.27-1.04
	c-2.16,0.54-4.3,1.13-6.47,1.61c-1.85,0.41-1.99,1.03-0.78,2.61c2.79,3.63,4.67,7.77,5.14,12.45c0.13,1.28,0.9,1.58,1.77,1.97
	c0.95,0.42,1.5-0.14,1.85-0.91C301.66,87.57,303.7,84.96,302.98,81.44z M231,172.5c-2.07-3.86-4.58-4.64-8.52-3.4
	c-6.76,2.13-13.63,2.87-19.34-3.19c-0.97-1.03-1.98,0.12-2.73,0.62c-0.82,0.55,0.02,1.24,0.38,1.75c0.71,1.01,1.54,1.88,2.72,2.36
	c3.41,1.38,6.81,2.79,10.46,3.34C219.71,174.86,225.32,174.27,231,172.5z M291.91,127.46c0.2,1.94,1.06,3.72,2.88,4.58
	c2.03,0.97,2.11-1.48,3.1-2.34c0.32-0.28,0.5-0.8,0.85-0.98c2.76-1.46,2.17-3.57,0.97-5.68c-0.72-1.26-0.83-3.58-2.13-3.63
	c-1.85-0.07-3.28,1.66-4.25,3.39C292.56,124.19,292.02,125.69,291.91,127.46z M295.02,114.8c-0.78-2.91-1.01-5.53-0.77-8.2
	c0.17-1.86-2.85-5.47-4.66-5.76c-0.58-0.09-0.67,0.13-0.87,0.59C286.33,106.87,289.06,113.02,295.02,114.8z M88.86,151.01
	c-2.89,0.08-5.81,0.07-8.35,1.86c-0.43,0.3-0.91,0.55-0.77,1.21c0.09,0.46,0.51,0.37,0.83,0.44c4.86,1.05,9.71,3.54,14.58,0.06
	c0.06-0.04,0.17-0.03,0.25-0.04c0.52-0.04,1.12-0.11,1.21-0.73c0.1-0.75-0.51-0.98-1.08-1.25C93.4,151.56,91.24,150.81,88.86,151.01
	z M109.98,153.06c2.19,0.66,4.6,0.73,6.21,2.37c2.1,2.13,4.18,2.1,6.44,0.77c1.31-0.77,3.88-0.04,3.9-1.64
	c0.02-1.61-2.53-1.64-3.94-2.28C118.33,150.33,114.07,150.5,109.98,153.06z M278.53,84.33c0.19-3.02-2.39-5.48-4.8-4.93
	c-1.25,0.29-2.47,0.71-3.73,0.94c-1.92,0.35-1.45,1.12-0.55,2.24c1.96,2.44,4.81,3.31,7.37,4.69c0.69,0.37,1.59,0.73,2.19,0.27
	c0.9-0.7-0.02-1.32-0.36-1.99C278.44,85.11,278.55,84.5,278.53,84.33z M270.76,149.39c-2.09-0.08-4.1,0.15-5.66,1.83
	c-0.54,0.59-1.2,1.52-0.05,1.85c2.55,0.75,5.39,0.32,7.75,1.95c0.11,0.08,0.42,0.06,0.49-0.04c1.07-1.54,4.14-1.93,3.93-3.22
	c-0.28-1.73-2.87-1.97-4.69-2.29C271.96,149.38,271.35,149.41,270.76,149.39z M157.99,153.44c-4.88-2.99-9.23-2.67-13.61-0.68
	c-0.56,0.25-1.73,0.84-0.78,1.35c1.92,1.04,4.16,2.23,6.18,2.08C152.39,155.99,154.91,154.54,157.99,153.44z M283.27,149.63
	c4.93-0.29,6.62-1.51,7.82-5.69c0.23-0.8,1.2-1.74,0.33-2.4c-0.75-0.57-1.78,0.01-2.61,0.51c-0.37,0.22-0.83,0.29-1.16,0.55
	c-1.95,1.52-4.31,2.65-5.2,5.28C282.19,148.64,281.71,149.75,283.27,149.63z"/>
<path class="st1" d="M186.79,155.85c-0.07-0.52-0.19-1.01-0.7-1.27c0.13-1-0.23-1.98-1.08-2.19c-3.51-0.85-6.8-2.98-10.62-2.16
	c-0.37-1.95-2.11-2.96-4.64-2.69c-0.32-0.08-0.65-0.16-0.97-0.25c-0.23-0.65-0.68-0.8-1.27-0.58c-1.32-0.39-2.63-0.78-3.95-1.17
	c-0.27-0.46-0.63-0.67-1.15-0.48c-0.45-0.13-0.91-0.27-1.36-0.4c-0.23-0.66-0.68-0.83-1.29-0.61c-0.77-0.18-1.53-0.37-2.3-0.55
	c-0.26-0.64-0.72-0.73-1.3-0.53c-0.94-0.35-1.88-0.7-2.83-1.05c-2.12-1.22-4.27-2.32-6.77-2.35c-0.32-0.1-0.64-0.21-0.96-0.31
	c-0.24-0.58-0.64-0.83-1.25-0.62c-7.95-2.69-15.7-5.93-23.34-9.44c-4.37-2-8.68-4.14-12.93-6.4c-1.62-0.87-2.33-0.31-3.05,1.08
	c-0.47,0.92-0.9,1.85-1.94,0.31c-2.14-3.19-4.47-6.24-6.36-9.61c-0.24-0.43-0.76-0.83-0.45-1.43c0.27-0.52,0.75-0.26,1.15-0.22
	c3.85,0.31,7.7,0.65,11.54,0.94c1.31,0.1,2.44,0.25,1.2,1.97c-1.08,1.52-0.17,2.12,1.04,2.75c7.87,4.06,15.9,7.77,24.1,11.01
	c9.17,3.62,18.46,6.9,27.75,10.17c6.38,2.24,12.78,4.44,19.32,6.16c0.74,0.19,1.5,0.47,2.13,0.89c1.92,1.31,3.11,0.74,3.84-1.56
	c-16.12-6.88-31.97-14.39-47.61-22.38c-6.73-3.43-13.5-6.84-19.83-11.07c-1.69-1.13-3.02-1.63-4.1,0.68
	c-0.52,1.12-1.1,0.93-1.55-0.09c-1.51-3.48-4.22-6.2-5.62-9.75c-0.22-0.55-0.92-1.03-0.45-1.67c0.44-0.61,1.13-0.14,1.68-0.07
	c3.65,0.5,7.29,1.07,10.95,1.56c1.43,0.19,2.24,0.61,0.9,2.01c-1.34,1.41-0.49,2.12,0.69,2.8c15.01,8.65,30.49,16.33,46.1,23.71
	c3.63,1.72,7.34,3.24,11.02,4.85c0.39,0.56,0.92,0.7,1.54,0.54c0.26,0.38,0.61,0.53,1.05,0.49c0.22,0.41,0.55,0.61,1.01,0.55
	c0.79,0.56,1.59,1.09,2.57,1.2c0.39,0.52,0.97,0.44,1.5,0.52c0.27,0.4,0.67,0.47,1.09,0.46c1.54,0.76,3.08,1.51,4.62,2.27
	c-0.06,0.33-0.03,0.89-0.18,0.95c-3.38,1.39-4.51,4.63-5.86,7.67c-0.83,1.85,0.06,3.29,1.96,3.1c2.04-0.2,4.28-0.14,6.02-1.04
	c1.44-0.75,0.31-3.19,1.08-4.71c0.12-0.23,0.11-0.52,0.16-0.78c0.25,0.79,0.07,1.86,1.11,2.17c0.51,0.15,1.04,0.02,1.21-0.62
	c0.26-0.97,0.25-1.92-0.34-2.79c-0.05-0.07-0.08-0.16-0.14-0.22c-2.49-2.93-4.62-6.25-8.05-8.18c-4.55-4.44-9.92-7.74-14.93-11.54
	c-0.89-0.68-1.83-1.29-2.72-1.98c-2.72-2.14-2.69-2.16-0.46-4.83c0.76-0.91,1.27-1.08,2.32-0.35c5.54,3.81,11,7.73,16.27,11.94
	c1.54,1.23,3.06,2.5,4.58,3.75c1.11,1.53,2.32,2.94,4.24,4.11c-0.48-2.89-2.43-4.07-4.12-5.47c-2.24-3.65-5.74-5.97-8.72-8.8
	c-2.55-2.43-5.43-4.49-8.22-6.64c-1.84-1.41,0.15-2.22,0.36-3.3c0.12-0.15,0.23-0.3,0.35-0.45c0.6-0.71,1.21-1.39,2.26-1.09
	c4.73,4.09,9.46,8.19,14.19,12.28c0.37,0.41,0.74,0.83,1.12,1.24c2.84,2.16,4.74,5.26,7.11,7.88c3.12,3.44,4.83,7.89,6.31,12.3
	c1.09,3.25-1.3,5.61-2.66,8.18c-1.64,1.03-3.27,1.63-4.91-0.01c0.59-0.43,1.93-0.55,1.14-1.7c-0.56-0.8-1.48-0.5-2.06,0.37
	c-0.18,0.28-0.43,0.51-0.64,0.77c-0.87,0.32-1.75,0.63-2.62,0.95c-2.57-0.49-5.14-0.69-7.67,0.24c-0.46,0-0.92,0-1.38-0.01
	c-0.61-0.14-1.22-0.25-1.75,0.25c-0.18,0.13-0.36,0.26-0.55,0.39C187.43,155.89,187.11,155.87,186.79,155.85z M205.78,148.22
	c-0.15-0.7-0.3-1.48-0.48-2.24c-0.11-0.48,0.3-1.47-0.82-1.07c-0.72,0.26-0.89,0.89-0.42,1.47c0.48,0.59,0.81,1.15,0.47,1.9
	c-0.14,0.31-0.51,0.52-0.6,0.84c-0.3,1,0.22,1.44,1.03,1.05C205.58,149.87,205.7,149.02,205.78,148.22z"/>
<path class="st2" d="M112.04,19.14c3.06-1.71,6.5-1.71,9.81-2.3c0.76,3.59,1.62,7.09,2.97,10.57c2.24,5.78,4.15,11.67,6.68,17.36
	c2.8,6.27,5.96,12.33,9.31,18.26c4.38,7.75,9.14,15.28,14.49,22.36c1.17,1.54,1.58,3.86,3.82,4.41c0.32,0.51,0.64,1.02,0.96,1.53
	c0.05,0.54,0.35,0.89,0.8,1.12c0.41,1.01,0.52,1.85-0.84,2.16c-2.28,0.53-4.55,1.13-6.82,1.7c-4.75-5.43-8.72-11.5-12.77-17.48
	c-4.01-5.92-7.73-12.08-11.07-18.44c-4.13-7.88-7.97-15.95-11.48-24.14C115.54,30.74,113.96,24.86,112.04,19.14z"/>
<path class="st3" d="M350.47,56.67c-8.66,2.38-17.31,4.77-25.97,7.13c-9.09,2.48-18.18,4.93-27.27,7.38
	c-2.22,0.6-4.44,1.2-6.67,1.77c-2.84,0.73-8.68-3.83-8.87-6.97c-0.02-0.28,0.54-0.61,0.83-0.91c4.8-1.26,9.6-2.52,14.4-3.77
	c1.63,0.06,3.1-0.34,4.23-1.68c2.18,0.19,4.23-0.15,6.03-1.57c0.24-0.02,0.48-0.05,0.72-0.07c2.96-0.2,5.7-1.38,8.54-2.1
	c0.45,0.11,0.84,0.05,1.1-0.4c2.24-0.25,4.36-0.97,6.53-1.59c8.73-2.54,17.55-4.78,26.33-7.13c0.51-0.01,1.02-0.02,1.52-0.03
	c0.04,1.85,0.09,3.7,0.11,5.55c0.01,1.2,0.28,2.46-1.48,2.79C349.72,55.25,350.51,56.13,350.47,56.67z"/>
<path class="st2" d="M208.34,71.23c0.18-0.74,0.61-1.06,1.34-0.82c-0.3,0.45-0.59,0.89,0.08,1.28c0.29,0.24,0.5,0.05,0.72-0.14
	c4.25-1.81,8.57-2.53,13.03-0.84c0.34,0.69,0.94,1.07,1.57,1.41c0.63,0.87,1.26,1.73,1.89,2.6c-0.03,0.54-0.07,1.08-0.1,1.61
	c-1.47,0.39-2.93,0.9-4.43,1.14c-7.49,1.19-9.14,4.54-9.95,12.29c-0.03,0.22-0.06,0.45-0.09,0.67c-0.15,0.49-0.3,0.97-0.44,1.46
	c-0.69,2.98-1.71,5.93-1.99,8.95c-0.67,7.08-0.96,14.2-1.46,21.3c-0.23,3.32,0.45,6.71-0.68,9.97c-1.79,0.54-3.15-0.3-4.29-1.57
	c-1.04-1.15-1.93-2.45-2.88-3.68c-0.14-0.45-0.27-0.91-0.41-1.36c0.35-2.09-0.03-4.17-0.1-6.26c0.49-1.44,0.42-2.88,0.01-4.33
	c0.11-2.85,0.21-5.7,0.32-8.56c0.09-0.17,0.09-0.34-0.01-0.52c0.08-2.46,0.17-4.92,0.25-7.38c0.76-1.36,0.87-2.83,0.66-4.36
	c0.68-6.18,2.17-12.12,4.83-17.72c0.65-0.56,1-1.32,1.27-2.14C207.87,73.28,210.03,72.85,208.34,71.23z"/>
<path class="st0" d="M112.04,19.14c1.93,5.72,3.5,11.6,5.86,17.12c3.51,8.2,7.35,16.27,11.48,24.14
	c3.33,6.35,7.06,12.52,11.07,18.44c4.05,5.97,8.02,12.04,12.77,17.48c-1.04,0.44-1.83,1.04-1.51,2.41l-0.15-0.06
	c0,0,0.03-0.16,0.03-0.16c-0.3-0.06-0.61-0.12-0.91-0.18c-0.14-0.12-0.28-0.24-0.42-0.36c0.58-0.56,1.05-0.98,0.31-1.94
	c-3.26-4.27-6.49-8.57-9.6-12.95c-2.17-3.05-4.08-6.31-5.99-9.51c-3.39-5.7-6.75-11.44-9.77-17.4c-4.59-9.07-8.87-18.23-12.01-27.96
	c-0.82-2.55-2.27-4.83-2.92-7.5C109.72,18.42,110.64,18.66,112.04,19.14z"/>
<path class="st3" d="M151.59,98.51l-0.03,0.16c0,0,0.15,0.06,0.15,0.05c0.52-0.17,1.03-0.33,1.55-0.5c0.17-0.02,0.34-0.04,0.51-0.07
	c0.41,0.02,0.84,0.06,1.01-0.48c0.18-0.01,0.36-0.02,0.54-0.03c0.17,0.02,0.34,0.04,0.51,0.07c0.36,0.08,0.51-0.12,0.56-0.45
	c0.68-0.17,1.35-0.34,2.03-0.51c0.17,0.33,0.33,0.66,0.5,1c-4.01,1.36-7.91,2.91-11.38,5.56c-1.27,0.97-2.39,1.87-2.3,3.47
	c0.12,1.96,1.9,1.95,3.25,2.36c0.66,0.16,1.32,0.4,1.99,0.48c1.03,0.12,2.77,1.05,2.89-0.29c0.14-1.55-1.71-0.93-2.78-1.02
	c-0.58-0.13-1.16-0.3-1.75-0.37c-0.91-0.12-1.77-0.58-2.1-1.32c-0.45-1,0.77-1.21,1.27-1.7c2.91-2.89,6.59-4.31,10.34-5.48
	c0.98-0.3,1.68-0.66,2.04-1.64c0.79,0.1,1.53-0.03,2.16-0.57c0.48,0.32,0.87,0.51,0.71,1.39c-0.48,2.58-1.59,4.4-4.2,5.04
	c-1.87,0.46-2.47,2.17-1.02,3.1c1.38,0.89,1.94,2.39,3.13,3.33c0.05,0.39,0.09,0.77,0.14,1.16c0,0-0.05,0.08-0.05,0.08
	c-0.26,0.11-0.53,0.22-0.79,0.33c-2.44-0.09-4.78,0.61-7.18,0.86c-3.15-0.3-6.28-0.76-9.32-1.72c-1.19-1.14-3.51-1.31-3.06-3.86
	c0.42-0.29,1.1-0.32,1.06-1.09c0.19-0.3,0.38-0.61,0.57-0.91c0.72-0.78,2.08-1.45,0.39-2.62c0-0.19,0.09-0.28,0.27-0.26
	c-0.2,0.33-0.36,0.66-0.01,0.99c1.44,0.75,1.88-0.69,2.68-1.33c0.44,0.24,0.61-0.05,0.74-0.42c0.79-0.12,1.59-0.21,1.89-1.18
	l-0.02,0.14c0.23-0.07,0.46-0.13,0.7-0.2c0.68,0.05,1.08-0.48,1.57-0.83C151.18,99.17,151.54,99.04,151.59,98.51z"/>
<path class="st4" d="M89.41,168.36c2.58-0.07,5.09-0.73,7.53-1.45c1.6-0.47,2.57-0.68,3.65,0.99c0.76,1.18,2.25,1.8,3.13,3.45
	c-6.7,2.54-13.35,4.51-20.49,3.29c-3.51-0.6-7.1-1.15-9.77-4.02c-0.15-0.94-0.86-0.94-1.53-0.99c0,0-0.03-0.03-0.03-0.03
	c-0.08-1.01-0.77-0.98-1.47-0.93c0.01-0.61,0.02-1.23,0.03-1.84c0.3,0.04,0.6,0.08,0.9,0.13c3.26-1.81,6.23,0,9.27,0.81
	c0.2,0.07,0.4,0.14,0.59,0.22c0.32,0.06,0.64,0.11,0.95,0.17c0.48,0.5,1,0.55,1.56,0.12c0.34,0.01,0.67,0.02,1.01,0.03
	c0.15,0.25,0.33,0.26,0.53,0.06c1.21,0.02,2.41,0.03,3.62,0.05C89.07,168.4,89.24,168.38,89.41,168.36z"/>
<path class="st0" d="M159.11,89.8c-2.24-0.55-2.65-2.87-3.82-4.41c-5.35-7.08-10.11-14.61-14.49-22.36
	c-3.35-5.92-6.51-11.99-9.31-18.26c-2.54-5.69-4.44-11.58-6.68-17.36c-1.35-3.48-2.2-6.98-2.97-10.57c1.25-1.26,1.52-0.16,1.83,0.82
	c1.65,5.21,3.09,10.51,5,15.62c3.38,9.08,7.57,17.81,12.19,26.27c3.09,5.67,6.53,11.16,10.13,16.49c2.93,4.32,5.68,8.81,9.16,12.71
	c0.22,0.24,0.29,0.63,0.43,0.95C160.09,89.73,159.6,89.77,159.11,89.8z"/>
<path class="st1" d="M206.21,76.39c-2.65,5.6-4.15,11.54-4.83,17.72c-0.26,1.45-0.99,2.82-0.66,4.36c-0.08,2.46-0.17,4.92-0.25,7.38
	c-0.05,0.05-0.15,0.11-0.14,0.15c0.03,0.13,0.1,0.24,0.15,0.37c-0.11,2.85-0.21,5.7-0.32,8.56c-0.85,1.44-0.82,2.88-0.01,4.33
	c0.07,2.08,0.45,4.16,0.1,6.26c-0.21,0.23-0.41,0.47-0.62,0.7c-1.11-0.8-0.5-1.98-0.62-3c0.19-4.96,0.23-9.93,0-14.89
	c0.1-2.38,0.05-4.78,0.35-7.14c0.25-1.95-0.38-2.41-2.06-2c-0.74,0.18-1.51,0.33-2.27,0.36c-2.2,0.09-3.21,1.08-2.54,3.44
	c0.06,1.08-0.81,2.58,1.17,2.8c0.1,0.74,0.2,1.47,0.3,2.21c-0.57,0.03-1.14,0.06-1.71,0.09c-0.46-2.13-1.04-4.24-1.35-6.39
	c-0.19-1.32-0.71-1.61-1.85-1.43c-2.09,0.33-4.19,0.57-6.28,0.85c-1.23,0.22-2.46,0.44-3.69,0.65c-0.4,0.1-0.79,0.19-1.19,0.29
	c-0.72,0.15-1.63,0.61-1.41-0.88c0.77-3.09,1.51-6.2,1.31-9.43c-0.09-1.47,0.37-2.29,1.86-2.6c2.25-0.47,4.45-1.14,6.68-1.72
	c0.82-0.21,1.8-0.24,1.5-1.58c-0.06-0.63-0.41-0.92-1.01-0.93c-0.2-0.35-0.4-0.69-0.61-1.04c0.18-0.19,0.35-0.37,0.53-0.56
	c0.37-0.01,0.74-0.02,1.11-0.04c0.85,0.68,1.3,1.59,1.49,2.67c0.23,0.66,0.45,1.32,0.68,1.99c-2.2,0.66-4.41,1.31-6.61,1.97
	c-0.81-0.1-1.65-0.38-2.33,0.37c-2.05,0.08-2.09,1.28-1.45,2.85c-0.96,1.96-0.55,4.18-1.06,6.23c-0.18,0.71,0.58,0.71,1.03,0.9
	c1.13,0.37,2.22,0.51,3.02-0.7c3.92-0.52,7.79-1.53,11.79-1.26c0.25-0.02,0.51-0.04,0.76-0.05c0.7-0.2,1.41-0.41,2.11-0.61
	c0.26-0.05,0.52-0.09,0.78-0.14c1.65,0.06,1.53-1.35,1.84-2.4c0.41-0.47,1.1-0.9,0.24-1.58c0.1-0.74,0.2-1.47,0.31-2.21
	c0.04-0.38,0.08-0.77,0.12-1.15c0.54-2.4-0.6-2.78-2.5-2.26c0.02-0.23,0.04-0.46,0.06-0.69c0.87-0.92,3.3,0.42,3-2.22
	c-0.24-0.52-0.3-1.04,0.02-1.56c0.28-0.2,0.56-0.4,0.84-0.61c1.07-0.79,0.84-2.02,0.99-3.12c0.12-0.4,0.25-0.81,0.37-1.21
	c0.11-0.2,0.21-0.4,0.32-0.59c0,0-0.01,0.02-0.01,0.02C204.9,78.09,204.82,75.9,206.21,76.39z"/>
<path class="st0" d="M80.11,125.17c-1.87-0.06-3.95-0.39-5.11-2.74c-0.38-0.77-1.19-1.66-0.13-2.3c1.01-0.62,1.43,0.42,1.89,1.2
	c1.21,2.08,4.47,2.78,6.24,1.3c0.76-0.64,1.81-1.38,1.46-2.61c-0.33-1.14-1.22-1.91-2.42-2.12c-0.59-0.1-1.2-0.1-1.78-0.21
	c-0.35-0.07-0.7-0.33-0.61-0.72c0.06-0.28,0.38-0.52,0.62-0.73c0.12-0.1,0.33-0.11,0.49-0.11c1.65,0.01,2.92-0.65,3.13-2.47
	c0.15-1.27-0.55-2.3-1.77-2.61c-1.76-0.45-3.39-0.14-4.52,1.52c-0.5,0.73-0.7,2.27-1.93,1.39c-1-0.72-0.1-1.84,0.34-2.62
	c1.22-2.15,3.34-2.4,5.42-2.28c1.88,0.11,3.74,0.62,4.74,2.63c1.05,2.12-1.36,3.93-0.97,5.2c0.51,1.65,2.07,2.95,1.28,5.03
	C85.72,123.9,83.4,125.14,80.11,125.17z"/>
<path class="st0" d="M98.03,101.06c-1.46,0-2.92-0.05-4.37,0.01c-1.62,0.07-1.71-0.81-1.24-2.03c0.59-1.53,1.57-2.74,2.93-3.6
	c1.68-1.06,3.31-2.21,5.04-3.17c1.6-0.88,2.37-2.03,1.54-3.84c-0.67-1.46-3.36-2.27-4.75-1.36c-0.97,0.63-2.12,1.22-2.43,2.57
	c-0.17,0.75-0.67,1.08-1.33,0.89c-0.94-0.27-0.7-1.08-0.54-1.77c0.61-2.77,2.8-3.41,5.02-3.8c2.88-0.51,5.63,1.06,6.29,3.38
	c0.7,2.47-0.46,4.41-3.41,6.01c-1.74,0.95-3.45,1.97-4.86,3.46c-0.26,0.28-0.9,0.23-0.76,0.85c0.17,0.73,0.8,0.53,1.27,0.54
	c2.14,0.02,4.29,0,6.43,0c0.69,0,1.5-0.03,1.44,1.02c-0.05,0.83-0.75,0.83-1.37,0.83c-1.63,0-3.26,0-4.89,0
	C98.03,101.06,98.03,101.06,98.03,101.06z"/>
<path class="st3" d="M351.93,46.74c-0.51,0.01-1.02,0.02-1.52,0.03c-1.38-1.37-2.93-0.52-4.31-0.16c-7.42,1.95-14.85,3.92-22.2,6.12
	c-2.17,0.65-4.89,0.25-6.35,2.76c-0.26,0.45-0.65,0.52-1.1,0.4c-0.07-0.48-0.27-0.9-0.8-0.79c-2.72,0.56-5.56,0.76-7.74,2.89
	c-0.24,0.02-0.48,0.05-0.72,0.07c-2.27-0.55-4.25,0.07-6.03,1.57c-1.13,1.33-2.59,1.73-4.23,1.68c-0.94-2.07-2.32-0.43-3.36-0.28
	c-3.76,0.56-7.22,2.63-11.14,2.46c2.1-1.62,4.69-1.89,7.07-2.58c12.8-3.69,25.65-7.18,38.51-10.67c7.91-2.15,15.86-4.17,23.79-6.25
	C352,44.89,352.18,45.8,351.93,46.74z"/>
<path class="st1" d="M153.26,98.23c-0.52,0.16-1.03,0.33-1.55,0.5c-0.33-1.36,0.47-1.97,1.51-2.41c2.27-0.57,4.54-1.17,6.82-1.7
	c1.36-0.32,1.25-1.15,0.84-2.16c1-0.25,1.41,0.88,2.24,1.03c2.33,0.32,3.37-0.91,3.82-3.17c0.27-1.37,0.63-2.78,1.48-3.96
	c0.33,0.32,0.66,0.64,0.98,0.97c-0.39,1.35-0.68,2.75-1.18,4.06c-1.56,4.14-2.25,8.69-5.47,12.05c-0.59,0.61-2.25,0.96-1.38,2.36
	c0.7,1.12,1.9,1.81,3.28,1.64c2.11-0.26,4.27-0.11,6.33-0.78c0.83,0.32,0.47,0.89,0.28,1.43c-0.6,0.44-1.3,0.43-1.99,0.46
	c-0.42-0.09-0.81-0.08-1.06,0.35c-1.39,0.32-2.77,0.43-4.14-0.09c-0.16-0.1-0.33-0.19-0.49-0.29c-0.35,0-0.71,0-1.06,0
	c-0.31,0.07-1.1-0.48-0.65,0.55c0.27,0.25,0.54,0.5,0.82,0.75c-0.05,0.8-0.11,1.61-0.16,2.41c-0.23,0.46-0.61,0.5-1.03,0.41
	c-0.07-0.43-0.14-0.86-0.21-1.29c0,0,0.05-0.08,0.05-0.08c0.87-0.5,0.75-0.88-0.14-1.16c-1.19-0.94-1.75-2.45-3.13-3.33
	c-1.45-0.93-0.85-2.64,1.02-3.1c2.6-0.64,3.72-2.46,4.2-5.04c0.16-0.88-0.23-1.06-0.71-1.39c0.18-0.72,0.78-0.55,1.25-0.61
	c0.81-0.09,1.79-0.32,1.6-1.26c-0.22-1.08-1.17-0.58-1.89-0.33c-1.7,0.59-3.4,1.15-5.1,1.72c-0.68,0.17-1.35,0.34-2.03,0.51
	c-0.19,0.15-0.37,0.3-0.56,0.45c-0.17-0.02-0.34-0.04-0.51-0.07c-0.2-0.34-0.38-0.34-0.54,0.03c-0.18,0.53-0.6,0.49-1.01,0.48
	C153.57,97.91,153.4,97.99,153.26,98.23z"/>
<path class="st4" d="M71.35,156.44c5.05-1.38,9.92-0.55,15.26,1.45c-5.18,2.92-10.16,5.3-15.24,7.45
	C71.36,162.37,71.36,159.41,71.35,156.44z"/>
<path class="st1" d="M212.49,89.76c0.81-7.75,2.46-11.1,9.95-12.29c1.5-0.24,2.95-0.75,4.43-1.14c0.52,0,1-0.1,1.03-0.75
	c0.04-0.64-0.41-0.82-0.93-0.87c-0.63-0.87-1.26-1.73-1.89-2.6c0.58-0.01,1.17-0.01,1.75-0.02c0,0,0.04,0.05,0.04,0.05
	c0.03,0.75,0.48,0.99,1.13,0.96c0.19,0.28,0.38,0.57,0.56,0.85c-0.16,0.68-0.01,1.19,0.71,1.39c0.72-0.04,1.44-0.08,2.16-0.12
	c0.19-0.04,0.39-0.08,0.58-0.12c1.04-0.32,2.08-0.63,3.12-0.95c0.19,0.41,0.38,0.82,0.58,1.23c-5.65,1.6-11.3,3.2-16.95,4.8
	c-1.73,0.19-2.49,0.96-1.52,2.77c-1.8,0.16-2.29,1.61-2.76,3.07c-0.59,0.5-0.47,1.16-0.34,1.81c-0.14,0.48-0.28,0.96-0.42,1.44
	c-0.04,0.21-0.09,0.43-0.13,0.64c0.01,1.04,0.07,2.08-0.44,3.04c-1.27,0.84,0.36,1.85-0.15,2.73c-0.02,0.13-0.09,0.18-0.22,0.16
	c-1.44-1.05-0.49-2.63-0.82-3.93c0.15-0.49,0.3-0.97,0.44-1.46C212.44,90.2,212.46,89.98,212.49,89.76z"/>
<path class="st0" d="M213.84,54.73c0,2.05,0,4.11,0,6.16c0,0.84-0.04,1.7-1.18,1.62c-1.01-0.07-0.88-0.92-0.89-1.61
	c-0.01-2.23-0.06-4.47,0.02-6.7c0.06-1.59,0.04-2.9-2.07-2.58c-0.55,0.08-1.34,0.09-1.48-0.72c-0.16-0.89,0.67-0.85,1.19-1.06
	c1.2-0.5,2.41-0.95,2.62-2.58c0.07-0.53,0.52-0.99,1.13-0.81c0.6,0.18,0.62,0.78,0.62,1.32c0.01,2.32,0,4.64,0,6.96
	C213.83,54.73,213.84,54.73,213.84,54.73z"/>
<path class="st1" d="M185.19,113.34c-1.27,0.16-1.51-1.1-2.19-1.74c-0.3-3.2-2.35-5.83-2.74-9c-0.08-0.66-0.72-0.66-1.17-0.85
	c1.23-0.22,2.46-0.44,3.69-0.65c-0.5,0.96-0.15,1.92,0.07,2.83C183.57,107.08,184.4,110.21,185.19,113.34z"/>
<path class="st0" d="M143.98,110.8c3.04,0.96,6.17,1.43,9.32,1.72c0.01,1.03,1.13,0.57,1.45,1.17c-4.11,0.36-8.17,0.34-11.9-1.91
	c0.37,0,0.73,0,1.1-0.01c0.2,0.11,0.39,0.23,0.59,0.33c0.02,0.01,0.09-0.12,0.14-0.18c-0.21-0.09-0.43-0.17-0.64-0.26
	C144.03,111.38,144.01,111.09,143.98,110.8z"/>
<path class="st1" d="M223.51,70.7c-4.46-1.69-8.78-0.96-13.03,0.84c-0.24,0.05-0.48,0.09-0.72,0.14c-0.67-0.38-0.38-0.83-0.08-1.28
	c0,0,0.11-0.08,0.11-0.08c0.5,0.15,0.94,0.13,1.18-0.44c1.21-0.61,2.39-1.31,3.82-1.17c0.66,0.14,1.32,0.29,1.82-0.4
	c0.84-0.25,1.69-0.39,2.55-0.09c0.5,0.76,1.2,0.61,1.9,0.44c1.23-0.15,2.31,0.22,3.25,1.05C224.04,70.04,223.78,70.37,223.51,70.7z"
	/>
<path class="st1" d="M171.26,108.07c0.19-0.54,0.55-1.11-0.28-1.43c2.73-0.85,3.57-3.76,5.51-5.47c-0.22,1.49,0.68,1.03,1.41,0.88
	C176.41,104.93,174.42,107.2,171.26,108.07z"/>
<path class="st1" d="M177.51,79.95c1.01-0.37,2.01-0.46,3.02,0c0.85,1.24,2.08,0.54,3.16,0.67c0.86-0.02,1.43,0.56,2.02,1.09
	l0.01,0.01c0.18-0.03,0.27,0.04,0.29,0.23c-0.28,0.31-0.57,0.61-0.85,0.92c-3.05-1.98-6.41-1.47-9.72-1.27
	C175.49,80.18,177.21,81.03,177.51,79.95z"/>
<path class="st5" d="M169.76,147.54c2.52-0.26,4.26,0.75,4.64,2.69c-0.49,0.1-0.98,0.2-1.47,0.3c-1.71-1.59-3.22,0.53-4.86,0.28
	c0.93-1.29,2.63-0.95,3.8-1.8C171.43,147.98,170.37,148.12,169.76,147.54z"/>
<path class="st1" d="M143.98,110.8c0.02,0.29,0.04,0.58,0.07,0.87l-0.09,0.11c-0.37,0-0.73,0-1.1,0.01c-0.3-0.16-0.6-0.31-0.9-0.47
	c-0.21-0.65-0.7-0.67-1.23-0.6c-0.67-0.4-1.06-0.98-1.08-1.8c0.17-1.27,0.86-2.43,0.66-3.77c0.2-0.3,0.39-0.61,0.59-0.91
	c0.63,0.03,1.31-0.05,1.65,0.72c-0.19,0.3-0.38,0.61-0.57,0.91c-0.69,0.01-1.13,0.29-1.06,1.09
	C140.48,109.49,142.8,109.66,143.98,110.8z"/>
<path class="st1" d="M154.76,113.7c-0.33-0.6-1.44-0.15-1.45-1.17c2.4-0.25,4.74-0.95,7.18-0.86c-0.16,0.45-0.32,0.9-0.49,1.35
	C158.31,113.71,156.52,113.61,154.76,113.7z"/>
<path class="st1" d="M177.51,79.95c-0.31,1.09-2.02,0.23-2.09,1.64c-0.98,0.65-1.97,1.31-2.95,1.96c-0.19-0.53-0.61-0.71-1.1-0.76
	C172.91,80.66,175.04,79.91,177.51,79.95z"/>
<path class="st5" d="M146.58,139.56c2.5,0.03,4.65,1.13,6.77,2.35C150.91,141.68,148.78,140.49,146.58,139.56z"/>
<path class="st1" d="M191.9,85.97c1.37-0.35,2.74-0.7,4.11-1.05c0.04,0.44,0.08,0.87,0.12,1.31c-1.75,0.43-3.5,0.85-5.26,1.28
	C190.79,86.69,191.63,86.54,191.9,85.97z"/>
<path class="st1" d="M206.21,76.39c-1.39-0.49-1.31,1.7-2.54,1.52c-0.07-1.58,1.55-2,2.03-3.2c0.59-0.15,1.18-0.3,1.77-0.45
	C207.21,75.07,206.86,75.83,206.21,76.39z"/>
<path class="st1" d="M223.51,70.7c0.27-0.33,0.53-0.66,0.8-0.99c1.11,0.48,1.99,1.23,2.52,2.38c-0.58,0.01-1.17,0.01-1.75,0.02
	C224.45,71.77,223.85,71.39,223.51,70.7z"/>
<path class="st0" d="M150.76,99.23c-0.49,0.35-0.89,0.88-1.57,0.83c-0.4-0.57-0.55-0.19-0.7,0.2c0,0,0.02-0.14,0.02-0.14
	c-0.62-0.03-1.23-0.05-1.85-0.08c-0.07-0.08-0.14-0.16-0.21-0.23c1.27-0.61,2.54-1.23,3.81-1.84c0.14,0.12,0.28,0.24,0.42,0.36
	C150.71,98.63,150.74,98.93,150.76,99.23z"/>
<path class="st0" d="M163.11,93.48c-0.83-0.15-1.24-1.27-2.24-1.03c-0.45-0.23-0.75-0.58-0.8-1.12c0.77,0.05,0.89-0.46,0.87-1.09
	C161.98,91.09,162.64,92.22,163.11,93.48z"/>
<path class="st1" d="M207.48,74.25c-0.59,0.15-1.18,0.3-1.77,0.45c0.09-0.17,0.18-0.34,0.27-0.51c0.11-0.17,0.23-0.34,0.34-0.51
	c0.28-0.35,0.55-0.71,0.83-1.06c0.4-0.06,0.64-0.27,0.66-0.71c0.18-0.23,0.36-0.46,0.54-0.69
	C210.03,72.85,207.87,73.28,207.48,74.25z"/>
<path class="st1" d="M171.37,82.79c0.5,0.05,0.91,0.23,1.1,0.76c-0.46,0.63-0.93,1.26-1.39,1.88c-0.7-0.01-1.41-0.03-2.11-0.04
	c0.2-0.35,0.41-0.7,0.61-1.06c0.63,0.01,1.13-0.16,1.22-0.93C170.98,83.2,171.17,83,171.37,82.79z"/>
<path class="st1" d="M168.96,85.4c0.7,0.01,1.41,0.03,2.11,0.04c-0.19,0.99-0.91,1.45-1.68,1.88c-0.33-0.32-0.66-0.64-0.98-0.97
	C168.4,85.91,168.59,85.59,168.96,85.4z"/>
<path class="st1" d="M191.9,85.97c-0.27,0.57-1.11,0.72-1.02,1.54c-0.29,0.14-0.57,0.27-0.86,0.41c-0.23-0.66-0.45-1.32-0.68-1.99
	C190.18,86.57,191.04,85.73,191.9,85.97z"/>
<path class="st1" d="M196.92,84.65c0.33-0.11,0.67-0.22,1-0.34c0.73,0.27,1.67-0.21,2.23,0.68c-0.88,0.85-2.03,0.56-3.06,0.78
	C197.03,85.4,196.98,85.02,196.92,84.65z"/>
<path class="st1" d="M200.15,84.99c-0.56-0.89-1.5-0.4-2.23-0.68c1.08-0.3,2.16-0.6,3.24-0.89c-0.32,0.51-0.27,1.03-0.02,1.56
	C200.81,84.98,200.48,84.98,200.15,84.99z"/>
<path class="st7" d="M70.44,168.68c0.7-0.06,1.39-0.08,1.47,0.93c-0.55,0.19-0.62,0.7-0.73,1.19
	C70.07,170.41,70.51,169.45,70.44,168.68z"/>
<path class="st0" d="M140.32,105.14c0.19,1.33-0.49,2.5-0.66,3.77C138.88,107.46,139.61,106.31,140.32,105.14z"/>
<path class="st0" d="M142.55,104.94c-0.34-0.76-1.02-0.68-1.65-0.72c0.68-0.63,1.36-1.27,2.04-1.9
	C144.63,103.49,143.28,104.17,142.55,104.94z"/>
<path class="st7" d="M77.52,175.22c1.13-0.06,2.22,0.02,3.13,0.85C79.41,176.56,78.46,175.92,77.52,175.22z"/>
<path class="st1" d="M183.68,80.61c-1.07-0.12-2.3,0.57-3.16-0.67C181.67,79.74,182.72,79.94,183.68,80.61z"/>
<path class="st0" d="M202.99,79.69c-0.15,1.1,0.08,2.34-0.99,3.12C202.08,81.68,202.25,80.59,202.99,79.69z"/>
<path class="st0" d="M146.63,101.3c-0.13,0.37-0.3,0.66-0.74,0.42c-0.31-0.3-0.61-0.59-0.92-0.89c0.29-0.67,0.85-0.9,1.49-1.03
	c0.07,0.08,0.14,0.16,0.21,0.23C146.65,100.46,146.64,100.88,146.63,101.3z"/>
<path class="st7" d="M90.44,176.65c0.62-0.62,1.37-0.51,2.12-0.4C92.01,177.3,91.29,177.39,90.44,176.65z"/>
<path class="st0" d="M162.52,112.22c0.05-0.8,0.11-1.61,0.16-2.41C163.52,110.67,163.57,111.49,162.52,112.22z"/>
<path class="st1" d="M160.95,90.24c0.01,0.63-0.1,1.14-0.87,1.09c-0.32-0.51-0.64-1.02-0.96-1.53c0.49-0.03,0.97-0.07,1.46-0.1
	C160.7,89.88,160.83,90.06,160.95,90.24z"/>
<path class="st0" d="M160,113.01c0.16-0.45,0.32-0.9,0.49-1.35c0.26-0.11,0.53-0.22,0.79-0.33c0.07,0.43,0.14,0.86,0.21,1.29
	C161.03,112.94,160.56,113.19,160,113.01z"/>
<path class="st7" d="M71.36,166.97c-0.3-0.04-0.6-0.08-0.9-0.13c-0.11-0.78,0.01-1.4,0.94-1.46
	C71.39,165.91,71.37,166.44,71.36,166.97z"/>
<path class="st1" d="M216.61,68.31c-0.49,0.69-1.16,0.54-1.82,0.4C215.3,68.1,215.91,68.01,216.61,68.31z"/>
<path class="st1" d="M221.06,68.66c-0.7,0.16-1.4,0.31-1.9-0.44C219.87,68.02,220.54,67.99,221.06,68.66z"/>
<path class="st7" d="M71.18,172.26c0.06,0.42,0.12,0.83,0.18,1.25c-0.38,0.49-0.71,0.29-0.85-0.16
	C70.34,172.79,70.63,172.41,71.18,172.26z"/>
<path class="st7" d="M82.13,176.25c0.58-0.13,1.15-0.23,1.61,0.32C83.04,177.38,82.52,177.17,82.13,176.25z"/>
<path class="st9" d="M182.11,136.39c-0.62,0.16-1.15,0.02-1.54-0.54C181.39,135.06,181.9,135.24,182.11,136.39z"/>
<path class="st1" d="M144.96,100.83c0.31,0.3,0.61,0.59,0.92,0.89c-0.8,0.65-1.23,2.09-2.66,1.35c0.77-0.22,0.74-0.88,0.77-1.5
	c0,0,0.01-0.01,0.01-0.01c0.16-0.14,0.33-0.27,0.49-0.41C144.66,101.04,144.81,100.93,144.96,100.83z"/>
<path class="st9" d="M188.24,139.15c-0.53-0.08-1.11,0-1.5-0.52C187.58,137.7,188.07,137.91,188.24,139.15z"/>
<path class="st5" d="M167.52,146.71c0.6-0.21,1.04-0.06,1.27,0.58C168.19,147.51,167.81,147.21,167.52,146.71z"/>
<path class="st5" d="M162.42,145.06c0.52-0.2,0.88,0.01,1.15,0.48C163.03,145.78,162.67,145.57,162.42,145.06z"/>
<path class="st5" d="M159.77,144.04c0.62-0.22,1.06-0.05,1.29,0.61C160.47,144.82,160.04,144.61,159.77,144.04z"/>
<path class="st1" d="M196.92,84.65c0.06,0.37,0.11,0.75,0.17,1.12c-0.32,0.15-0.64,0.31-0.96,0.46c-0.04-0.44-0.08-0.87-0.12-1.31
	C196.31,84.83,196.61,84.74,196.92,84.65z"/>
<path class="st5" d="M156.17,142.97c0.57-0.2,1.04-0.11,1.3,0.53C156.94,143.58,156.47,143.5,156.17,142.97z"/>
<path class="st5" d="M144.37,138.64c0.61-0.21,1,0.04,1.25,0.62C145.04,139.39,144.66,139.11,144.37,138.64z"/>
<path class="st9" d="M184.16,137.43c-0.46,0.06-0.78-0.15-1.01-0.55C183.93,136.18,184.09,136.71,184.16,137.43z"/>
<path class="st0" d="M140.74,110.71c0.53-0.07,1.02-0.04,1.23,0.6C141.46,111.33,140.93,111.4,140.74,110.71z"/>
<path class="st1" d="M210.97,69.88c-0.25,0.57-0.69,0.59-1.18,0.44C210,69.65,210.49,69.77,210.97,69.88z"/>
<path class="st1" d="M228,73.1c-0.65,0.03-1.09-0.21-1.13-0.96C227.37,72.3,228,72.3,228,73.1z"/>
<path class="st1" d="M229.27,75.33c-0.72-0.2-0.87-0.71-0.71-1.39C229.02,74.28,229.18,74.79,229.27,75.33z"/>
<path class="st0" d="M170.79,83.41c-0.08,0.77-0.59,0.94-1.22,0.93C169.65,83.56,170.19,83.44,170.79,83.41z"/>
<path class="st1" d="M186,81.94c0.23,0.23,0.46,0.47,0.69,0.7c0.02,0.22,0.03,0.44,0.05,0.67c-0.18,0.19-0.35,0.37-0.53,0.56
	c-0.35-0.34-0.71-0.67-1.06-1.01C185.43,82.55,185.72,82.25,186,81.94z"/>
<path class="st0" d="M186.74,83.31c-0.02-0.22-0.03-0.44-0.05-0.67c0.43,0.11,1.03-0.09,1.16,0.63
	C187.48,83.29,187.11,83.3,186.74,83.31z"/>
<path class="st0" d="M144,101.57c-0.03,0.62,0,1.28-0.77,1.5c-0.36-0.35-0.2-0.68-0.01-1.01C143.48,101.9,143.74,101.73,144,101.57z
	"/>
<path class="st10" d="M82.7,149.84c-0.39,0.54-0.98,0.47-1.52,0.51C81.53,149.68,82.12,149.77,82.7,149.84z"/>
<path class="st0" d="M168.21,108.89c0.26-0.44,0.64-0.45,1.06-0.35C168.91,108.65,168.56,108.77,168.21,108.89z"/>
<path class="st0" d="M161.86,109.06c-0.45-1.04,0.34-0.49,0.65-0.55C162.29,108.69,162.08,108.88,161.86,109.06z"/>
<path class="st0" d="M207.8,71.92c-0.02,0.44-0.26,0.65-0.66,0.71C207.15,72.18,207.4,71.98,207.8,71.92z"/>
<path class="st0" d="M185.7,81.7c0.03-0.04,0.06-0.08,0.1-0.13C185.77,81.62,185.74,81.67,185.7,81.7
	C185.71,81.71,185.7,81.7,185.7,81.7z"/>
<path class="st0" d="M203.68,77.89c-0.11,0.2-0.21,0.4-0.32,0.59C203.47,78.28,203.58,78.09,203.68,77.89z"/>
<path class="st0" d="M144.51,101.15c-0.16,0.14-0.33,0.27-0.49,0.41C144.04,101.24,144.18,101.07,144.51,101.15z"/>
<path class="st0" d="M232.01,75.09c-0.19,0.04-0.39,0.08-0.58,0.12C231.62,75.17,231.82,75.13,232.01,75.09z"/>
<path class="st0" d="M206.32,73.69c-0.11,0.17-0.23,0.34-0.34,0.51C206.09,74.02,206.2,73.85,206.32,73.69z"/>
<path class="st0" d="M163.58,108.51c0.16,0.1,0.33,0.19,0.49,0.29C163.9,108.71,163.74,108.61,163.58,108.51z"/>
<path class="st9" d="M179.86,113.86c-0.12,0.15-0.23,0.3-0.35,0.45C179.63,114.16,179.75,114.01,179.86,113.86z"/>
<path class="st5" d="M167.69,151.05c-0.2,0.11-0.39,0.22-0.59,0.32C167.29,151.27,167.49,151.16,167.69,151.05z"/>
<path class="st2" d="M218.72,142.05c1.24-3.53,1.65-8.02,3.24-12.28c1.4-3.76,2.17-7.84,3.79-11.56c2.89-6.65,4.86-13.67,7.86-20.28
	c1.85-4.08,2.69-8.64,4.47-12.77c1.84-4.29,2.76-8.97,4.93-13.05c2.23-4.18,4.02-8.86,8.67-11.09c4.41-2.12,8.65-0.29,11.66,2.77
	c1.54,1.56,0.79,2.35-0.93,2.78c-1.49,0.37-2.97,0.89-4.48,1.12c-1.68,0.25-2.54,1.26-3.03,2.81c-2.67,8.51-6.64,16.47-9.75,24.8
	c-1.83,4.92-3.65,9.91-5.76,14.74c-4.08,9.35-7.85,18.83-11.3,28.45c-0.45,1.26-1.37,2.17-1.82,3.46c-1.79,5.17-1.84,5.1-6.59,2.84
	C218.68,144.32,218.38,143.79,218.72,142.05z"/>
<path class="st2" d="M225.45,106.38c-1.38,3.18-1.47,6.68-2.34,10c-1.64,6.31-3.1,12.66-4.58,19.01c-1.12,4.79-2.16,9.59-3.23,14.39
	c-0.08,0.9-0.15,1.8-0.23,2.7c-0.75,1.05-0.61,2.33-0.86,3.51c-0.13,0.61-0.16,1.35-0.83,1.47c-0.76,0.13-1.21-0.45-1.42-1.19
	c-0.06-1.85-0.31-3.74,0.36-5.52c1.32-3.51-0.09-6.77-1.04-9.96c-0.37-1.25,0.06-2.96-1.34-3.84c-0.73-2.73,0.53-5.13,1.08-7.68
	c1.19-5.45,2.34-10.92,3.19-16.43c0.93-6.01,3.3-11.65,3.85-17.74c0.58-1.54,2.28-0.95,3.2-1.85c0.57,0.26,1.05,0.08,1.51-0.29
	c0.58,0.08,1.12,0.01,1.6-0.38c0.72-0.2,1.43-0.41,2.15-0.61c1.7-0.26,2.35,0.31,1.65,2.13c-0.24,0.62-0.19,1.35-0.28,2.03
	c-1.11,0.33-0.99,1.3-1.04,2.18c-0.35,1.76-0.7,3.52-1.05,5.28c-0.25,0.34-0.33,0.69-0.12,1.09
	C225.62,105.25,225.53,105.81,225.45,106.38z"/>
<path class="st2" d="M294.29,89.33c-5.26-2.92-10.46-5.12-14.87-8.86c-1.31-1.11-2.29-2.42-3.11-3.83c-2.5-4.3-5.41-8.41-5.21-13.88
	c0.17-4.66,3.57-9.03,7.97-9.92c4.49-0.9,8.44,0.35,12.01,3.13c0.56,0.44,1.43,0.96,1.19,1.89c-0.2,0.8-1.09,0.71-1.73,0.9
	c-2.86,0.87-5.73,1.7-8.57,2.66c-2.34,0.79-2.99,2.46-2.05,4.8c1.57,3.9,4.34,6.71,7.52,9.2c3.99,3.12,6.53,7.18,6.95,12.48
	C294.42,88.24,294.35,88.59,294.29,89.33z"/>
<path class="st4" d="M234.58,153.55c3.7-0.2,7.11,0.56,10,3.17c0.69,0.62,1.27,1.13,0.03,1.68c-8.84,3.94-17.42,8.64-27.09,10.18
	c-3.44,0.55-6.87,0.56-10-1.27c-2.82-1.65-2.79-2.56-0.06-4.17C216.03,158.07,227.8,153.91,234.58,153.55z"/>
<path class="st4" d="M203.29,154.65c1.63,1.64,3.27,1.04,4.91,0.01c0.2,0.34,0.4,0.67,0.6,1.01c-0.26,0.8,0.01,1.4,0.65,1.86
	c0.14,0.11,0.27,0.21,0.41,0.32c0,0,0.05,0.05,0.05,0.05c0,0.53,0.01,1.05,0.01,1.58c-11.95,8.21-24.59,10.14-38.68,4.46
	c4.97-2.37,9.46-4.51,13.95-6.65c1.67,1.21,1.89-0.52,2.55-1.37c0.18-0.13,0.36-0.26,0.55-0.39c0.34,0.07,0.69,0.14,1.03,0.21
	c0.2,0.3,0.35,0.25,0.45-0.07c0.1-0.12,0.19-0.24,0.27-0.38c0.46,0,0.92,0,1.38,0.01c2.57,0.48,5.14,0.99,7.67-0.24
	c0.87-0.32,1.75-0.63,2.62-0.95C202.24,154.28,202.77,154.46,203.29,154.65z"/>
<path class="st4" d="M180.09,157.81c-5.07,2.77-9.98,4.52-14.92,6.11c-7.77,2.5-15.7,3.77-23.82,1.93c-0.75-0.17-1.5-0.38-2.25-0.58
	c-0.41-0.11-0.88-0.25-0.91-0.77c-0.03-0.53,0.45-0.69,0.82-0.9c10-5.45,20.14-10.43,31.93-8.93
	C173.98,155.07,176.98,155.76,180.09,157.81z"/>
<path class="st11" d="M310.38,110.39c-0.2,1.09,0.51,2.77-0.62,3.34c-1,0.5-1.91-1.08-2.54-1.79c-4.88-5.52-11.67-8.27-17.03-13.05
	c-3.73-3.33-7.77-6.42-9.16-11.75c-0.22-0.85-0.8-1.94-0.2-2.53c0.8-0.79,1.44,0.44,2.13,0.8c4.11,2.14,8.09,4.57,12.32,6.4
	c4.71,2.04,8.34,5.23,11.74,9.08C309.48,103.68,310.37,106.72,310.38,110.39z"/>
<path class="st13" d="M304.2,141.48c-0.19,4-0.36,8.2-2.93,12.09c-2.67,4.04-6.34,5.48-10.62,6.1c-1.28,0.19-1.95-0.44-1.19-1.67
	c2.61-4.23,2.11-9.24,3.29-13.82c1.33-5.13,4.1-9.47,6.78-13.87c0.46-0.75,1.06-1.72,2.26-1.36c1.18,0.35,1.07,1.47,1.29,2.38
	C303.88,134.56,304.1,137.85,304.2,141.48z"/>
<path class="st4" d="M244.59,168.05c-3.98,0.08-6.64,0.07-9.02-1.47c-0.79-0.51-1.98-1.16-0.24-1.96
	c7.17-3.32,14.17-7.09,21.82-9.17c3.89-1.06,7.82-0.83,11.72,0.06c0.62,0.14,1.55-0.17,1.81,0.67c0.31,1.01-0.71,1.35-1.25,1.79
	C261.74,164.22,253.24,168.19,244.59,168.05z"/>
<path class="st4" d="M105.78,163.98c5.83-2.32,11.08-4.13,16.38-5.79c6.16-1.94,12.31-3.8,18.88-2.72c1.86,0.31,4.52,0.39,4.92,1.99
	c0.34,1.38-2.44,2.01-3.91,2.72c-4.07,1.97-7.96,4.32-12.48,5.33C121.72,167.24,114.1,166.56,105.78,163.98z"/>
<path class="st4" d="M77.03,164.82c5.34-2.8,10.25-5.35,15.38-7.42c6.63-2.68,13.44-3.36,20.41-1.73c1.36,0.32,2.56,1,3.73,2.06
	c-1.71,1.78-4.06,1.79-6.07,2.54c-5.69,2.11-11.32,4.46-17.23,5.82C87.98,167.3,82.73,167.03,77.03,164.82z"/>
<path class="st3" d="M214.48,86c0.47-1.46,0.95-2.91,2.76-3.07c3.47-0.85,7.01-1.46,10.38-2.62c3.36-1.16,7.05-1.19,10.14-3.22
	c0.5,0.26,1.92,0.06,1.23,0.98c-1.91,2.54-2.03,5.71-3.18,8.5c-0.65,1.57-1.76,1.9-3.17,2.12c-1.23,0.2-2.42,0.7-3.62,1.07
	c-0.88,0.2-1.75,0.41-2.63,0.61c-0.46-0.11-0.87-0.1-1.16,0.36c-0.99,0.31-1.99,0.62-2.98,0.93c-0.21,0.05-0.42,0.1-0.63,0.15
	c-1.76,0.07-3.36,0.77-4.98,1.42c-1.13-0.46-2.47,1.59-3.48-0.3c0.51-0.96,0.45-2,0.44-3.04c0.04-0.21,0.09-0.43,0.13-0.64
	c0.14-0.48,0.28-0.96,0.42-1.44C214.55,87.27,214.54,86.64,214.48,86z"/>
<path class="st13" d="M306.62,137.82c5.8-2.79,5.74-8.25,5.71-13.68c0-0.71-0.13-1.42-0.26-2.12c-0.59-3.01-1.25-5.98,2.3-7.7
	c0.63-0.3,0.97-1.22,1.47-1.83c0.57-0.7,0.62-2.4,1.61-2.02c1.05,0.4,2.16,1.29,2.62,2.7c1.52,4.73,1.31,9.57,0.4,14.3
	c-1.16,6.03-4.49,10.58-9.92,13.3C308.59,140.7,306.18,141.3,306.62,137.82z"/>
<path class="st13" d="M310.59,125.63c-0.17,2.38,0.05,4.82-0.98,7.08c-0.48,1.05-1.04,1.93-2.1,2.56c-1.55,0.93-2.06,0.59-2.31-1.18
	c-0.56-3.95-1.84-7.58-3.64-11.19c-2.17-4.33-5.04-8.54-5.12-13.77c-0.01-0.93-0.42-2.14,0.54-2.7c0.92-0.53,1.45,0.66,2.16,1.06
	c3.65,2.06,6.13,5.55,9.26,8.23c1.32,1.13,1.68,2.87,1.85,4.57C310.42,122.07,310.48,123.85,310.59,125.63z"/>
<path class="st12" d="M270.56,166.01c-0.85-0.06-1.74-0.01-2.56-0.21c-1.35-0.34-3.48,0.14-3.82-1.32c-0.27-1.15,1.78-2.04,2.9-2.57
	c2.88-1.37,4.9-3.85,7.29-5.78c4-3.24,8.69-4.23,13.26-5.72c1.3-0.42,1.95,0.06,1.43,1.68c-0.56,1.76-0.94,3.59-1.32,5.4
	c-0.93,4.42-4.72,5.32-7.91,6.7C276.93,165.42,273.78,166.06,270.56,166.01z"/>
<path class="st4" d="M185.43,174.57c-7.59-0.07-14.81-1.4-20.71-6.98c-0.36-0.34-1-0.48-0.9-1.1c0.1-0.67,0.81-0.5,1.24-0.73
	c2.22-1.21,4.3-0.82,6.58,0.08c7.94,3.16,16.08,4.19,24.43,1.85c1.39-0.39,4.9,2.13,4.99,3.58c0.06,1.03-0.81,1-1.44,1.17
	C194.97,173.7,190.29,174.72,185.43,174.57z"/>
<path class="st4" d="M136.43,172.19c-6.12,3.63-12.39,3.76-18.8,2.53c-3.96-0.76-7.66-2.37-11.28-4.15
	c-1.49-0.73-2.75-1.83-3.73-3.2c-0.4-0.55-1.31-1.2-0.48-2.05c0.59-0.6,1.31-0.59,2.14-0.27c2.88,1.11,5.83,1.96,8.89,2.48
	c5.04,0.86,10.04,0.96,15.05-0.02c1.25-0.25,2.29-0.01,3.23,1.05C132.76,170.07,134.36,171.25,136.43,172.19z"/>
<path class="st2" d="M285.07,97.05c-5.34,1.28-10.19-0.2-14.85-2.54c-4.2-2.11-7.65-5.29-10.91-8.72c-1.52-1.6-1.13-2.41,0.93-2.58
	c0.09-0.01,0.18,0,0.25-0.03c3.81-1.8,6.87-0.87,9.73,2.32c1.94,2.16,4.87,2.98,7.55,3.81c1.64,0.51,2.57,1.29,3.37,2.79
	C282.13,93.94,283.3,95.7,285.07,97.05z"/>
<path class="st11" d="M311.85,113.41c0.37-4.96,0.1-9.54-3-13.18c-2.02-2.37-4.1-4.78-6.66-6.57c-0.94-0.66-1.35-1.11-0.28-1.93
	c1.4-1.08,1.9-2.68,2.27-4.32c0.48-2.09,0.78-3.05,3.19-1.34c7.19,5.12,10.58,15.47,7.97,23.19
	C314.6,111.41,314.09,112.04,311.85,113.41z"/>
<path class="st3" d="M270.67,69.39c0.63,2.28,1.23,4.54,3.06,6.25c0.78,0.73,1.11,1.7-0.66,2.15c-6.38,1.62-12.71,3.43-19.06,5.17
	c-0.56,0.15-1.22,0.59-1.67,0.01c-0.44-0.56,0.1-1.15,0.32-1.71c0.48-1.23,1.15-2.44,1.38-3.72c0.94-5.25,4.48-6.56,8.92-6.62
	c2.28-1.17,4.72-1.74,7.22-2.1c0,0,0.04,0.02,0.04,0.02C270.36,69.02,270.51,69.21,270.67,69.39z"/>
<path class="st4" d="M132.1,166.95c2.02-1.47,3.66-1.27,5.59-0.52c7.23,2.8,14.65,2.16,22.05,0.79c1.11-0.21,5.65,2.49,6.02,3.55
	c0.36,1.01-0.49,0.94-0.96,1.15c-7.29,3.31-14.73,3.67-22.3,1.16C138.67,171.8,135.13,169.99,132.1,166.95z"/>
<path class="st13" d="M297.98,162.59c-1.2-0.02-2.41-0.03-3.61-0.05c0.16-0.67,0.33-1.33,0.49-2c5.84-2.04,9.38-6.15,10.36-12.55
	c0.34-2.2,0.6-4.03,3.5-4.55c2.88-0.52,5.38-2.55,7.69-4.6c2.23,6.62-7.62,20.53-16.39,23.33
	C299.31,162.14,298.57,161.99,297.98,162.59z"/>
<path class="st4" d="M264.07,170.59c-5.94,2.99-11.89,4.56-18.23,4.22c-4.56-0.24-8.92-1.43-12.97-3.68
	c-0.82-0.45-1.54-1.12-2.23-1.77c-0.59-0.56-1.64-1.16-0.98-2.13c0.59-0.87,1.73-1.41,2.72-0.68c6.94,5.11,14.44,3.63,21.68,1.47
	C258.11,166.82,260.82,168.36,264.07,170.59z"/>
<path class="st2" d="M302.98,81.44c0.72,3.52-1.32,6.13-2.62,8.97c-0.35,0.77-0.9,1.32-1.85,0.91c-0.87-0.38-1.64-0.69-1.77-1.97
	c-0.46-4.69-2.34-8.82-5.14-12.45c-1.21-1.58-1.07-2.19,0.78-2.61c2.17-0.48,4.31-1.07,6.47-1.61c1.01-0.25,1.84-0.2,2.27,1.04
	C302,76.24,303.74,78.53,302.98,81.44z"/>
<path class="st12" d="M266.94,167.43c7.19,0.71,13.87-0.85,19.95-4.97c0.56-0.38,1.1-0.46,1.67-0.07c1.96,1.35,4.36,1.43,6.45,2.43
	c-1.81,2.46-6.9,5.05-10.43,5.88c-6.21,1.45-12.18,0.52-18.13-1.33c-0.01-0.15-0.09-0.21-0.24-0.18c-0.15-0.09-0.29-0.19-0.44-0.28
	C265.92,168.2,266.19,167.61,266.94,167.43z"/>
<path class="st4" d="M231,172.5c-5.67,1.76-11.29,2.36-17.03,1.49c-3.66-0.55-7.05-1.96-10.46-3.34c-1.17-0.48-2.01-1.35-2.72-2.36
	c-0.36-0.51-1.2-1.2-0.38-1.75c0.76-0.51,1.77-1.65,2.73-0.62c5.7,6.05,12.58,5.32,19.34,3.19
	C226.42,167.86,228.93,168.65,231,172.5z"/>
<path class="st13" d="M291.91,127.46c0.11-1.78,0.64-3.27,1.42-4.66c0.97-1.74,2.4-3.46,4.25-3.39c1.3,0.05,1.42,2.37,2.13,3.63
	c1.2,2.11,1.79,4.22-0.97,5.68c-0.35,0.19-0.53,0.7-0.85,0.98c-0.99,0.87-1.07,3.31-3.1,2.34
	C292.98,131.18,292.11,129.4,291.91,127.46z"/>
<path class="st11" d="M295.02,114.8c-5.96-1.78-8.69-7.93-6.29-13.37c0.2-0.46,0.29-0.68,0.87-0.59c1.8,0.29,4.83,3.9,4.66,5.76
	C294.02,109.26,294.25,111.88,295.02,114.8z"/>
<path class="st4" d="M88.86,151.01c2.38-0.2,4.54,0.55,6.66,1.55c0.57,0.27,1.19,0.5,1.08,1.25c-0.09,0.62-0.69,0.69-1.21,0.73
	c-0.08,0.01-0.19-0.01-0.25,0.04c-4.88,3.48-9.73,0.99-14.58-0.06c-0.32-0.07-0.73,0.02-0.83-0.44c-0.13-0.66,0.35-0.91,0.77-1.21
	C83.05,151.08,85.97,151.09,88.86,151.01z"/>
<path class="st4" d="M172.93,150.53c0.49-0.1,0.98-0.2,1.47-0.3c3.82-0.82,7.1,1.32,10.62,2.16c0.85,0.2,1.2,1.19,1.08,2.19
	c-2.39,2.1-4.7,2.37-7.57,0.56c-2.88-1.81-6.36-2.14-9.86-2.42c0.62-1.33,1.86-0.99,2.63-1.55c0.23-0.06,0.45-0.13,0.68-0.2
	C172.29,150.83,172.61,150.68,172.93,150.53z"/>
<path class="st4" d="M109.98,153.06c4.09-2.56,8.35-2.73,12.6-0.78c1.41,0.65,3.96,0.68,3.94,2.28c-0.02,1.6-2.59,0.87-3.9,1.64
	c-2.26,1.33-4.34,1.36-6.44-0.77C114.58,153.79,112.16,153.72,109.98,153.06z"/>
<path class="st15" d="M217.35,149.56c1.03-3.5,1-3.44,4.2-1.85c0.9,0.45,1.57,1.06,2.18,1.79c2.46,2.93,2.06,4.17-1.59,5.13
	c-0.66,0.17-1.31,0.38-1.95,0.62c-3.66,1.35-3.66,1.36-3.34-2.59c0,0,0.05-0.1,0.05-0.1c0.39-0.29,0.41-0.69,0.31-1.13
	C217.26,150.81,217.3,150.18,217.35,149.56z"/>
<path class="st4" d="M245.93,150.44c2.6-0.12,5.13,0.06,7.19,2c1.09,1.02,1.52,1.96-0.37,2.61c-1.54,0.53-3.06,1.14-4.54,1.82
	c-0.66,0.3-1.21,0.36-1.56-0.27c-1.2-2.16-3.57-2.61-5.37-4.04c1.03-1.68,2.96-1.16,4.27-2.02c0,0,0.21,0.05,0.21,0.05
	L245.93,150.44z"/>
<path class="st12" d="M270.76,149.39c0.59,0.03,1.2-0.01,1.78,0.09c1.82,0.32,4.4,0.55,4.69,2.29c0.21,1.28-2.86,1.68-3.93,3.22
	c-0.06,0.09-0.38,0.11-0.49,0.04c-2.37-1.63-5.2-1.2-7.75-1.95c-1.15-0.34-0.5-1.27,0.05-1.85
	C266.66,149.54,268.67,149.31,270.76,149.39z"/>
<path class="st4" d="M157.99,153.44c-3.08,1.1-5.6,2.55-8.21,2.75c-2.02,0.15-4.26-1.04-6.18-2.08c-0.94-0.51,0.23-1.1,0.78-1.35
	C148.76,150.78,153.11,150.45,157.99,153.44z"/>
<path class="st13" d="M283.27,149.63c-1.56,0.11-1.08-0.99-0.82-1.75c0.89-2.63,3.25-3.75,5.2-5.28c0.33-0.26,0.8-0.33,1.16-0.55
	c0.83-0.51,1.86-1.09,2.61-0.51c0.86,0.66-0.1,1.61-0.33,2.4C289.89,148.13,288.2,149.34,283.27,149.63z"/>
<path class="st1" d="M216.64,93.24c1.61-0.64,3.21-1.35,4.98-1.42c0.21-0.05,0.42-0.1,0.63-0.15c0.99-0.31,1.99-0.62,2.98-0.93
	c0.45,0.09,0.87,0.07,1.16-0.36c0.88-0.2,1.75-0.41,2.63-0.61c1.03,0.26,2.24-0.49,3.12,0.59c0,0,0-0.01,0-0.01
	c-0.2,0.1-0.39,0.2-0.59,0.3c-0.93,0.41-1.45,1.11-1.66,2.16c-0.65,3.27-1.36,6.53-2.05,9.79c-1.06,0.16-0.96,0.95-0.86,1.74
	c0.02,0.33,0.03,0.66,0.05,0.99c-0.06,0.3-0.13,0.6-0.19,0.9c-0.15,0.01-0.28,0.06-0.39,0.16c-0.33,0-0.66-0.01-0.99-0.01
	c0.09-0.57,0.18-1.13,0.27-1.7c0.04-0.36,0.08-0.72,0.12-1.09c0.35-1.76,0.7-3.52,1.05-5.28c1.43-0.17,1.03-1.28,1.04-2.18
	c0.08-0.68,0.04-1.41,0.28-2.03c0.7-1.83,0.05-2.39-1.65-2.13c-0.78-0.02-1.66-0.45-2.15,0.61c-0.48,0.38-1.02,0.46-1.6,0.38
	c-0.53-0.05-1.06-0.13-1.51,0.29c-0.92,0.9-2.62,0.31-3.2,1.85c-0.53,0.01-1.07,0.03-1.6,0.04c-0.64,0.01-1.29,0.02-1.93,0.03
	C214.41,93.55,216.49,94.52,216.64,93.24z"/>
<path class="st1" d="M237.75,77.1c-3.09,2.03-6.78,2.06-10.14,3.22c-3.37,1.16-6.91,1.77-10.38,2.62c-0.97-1.8-0.21-2.58,1.52-2.77
	c-0.07,0.98,0.63,0.99,1.2,0.88c2.12-0.4,4.33-0.61,6.32-1.4c3.74-1.48,7.61-2.33,11.47-3.24C237.75,76.64,237.75,76.87,237.75,77.1
	z"/>
<path class="st3" d="M237.74,76.41c-3.87,0.91-7.74,1.76-11.47,3.24c-1.99,0.79-4.2,1-6.32,1.4c-0.56,0.11-1.27,0.1-1.2-0.88
	c5.65-1.6,11.3-3.2,16.95-4.8c0.57-0.11,1.15-0.2,1.71-0.32c0.78-0.16,2-0.86,2.23-0.05C240.04,76.39,238.24,75.67,237.74,76.41z"/>
<path class="st0" d="M282.42,63.48c3.92,0.17,7.39-1.9,11.14-2.46c1.04-0.15,2.43-1.79,3.36,0.28c-4.8,1.26-9.6,2.52-14.4,3.77
	c-0.23-0.62-1.3-0.48-1.17-1.34C281.37,63.59,282.05,63.56,282.42,63.48z"/>
<path class="st3" d="M262.94,69.74c-1.87-0.32-3.54,1.18-5.76,0.69c1.35-1.43,2.93-1.45,4.36-1.85c2.28-0.65,4.56-1.27,6.82-2
	c1.17-0.38,1.68-0.22,1.25,1.16C267.26,67.94,265.03,68.57,262.94,69.74z"/>
<path class="st0" d="M262.94,69.74c2.08-1.17,4.31-1.81,6.67-2c0.41,0.23,0.56,0.61,0.55,1.07c-2.5,0.37-4.94,0.94-7.22,2.1
	C262.94,70.53,262.94,70.14,262.94,69.74z"/>
<path class="st13" d="M306.62,137.82c-0.44,3.48,1.97,2.88,3.9,2.95c-0.5,0.32-0.96,0.78-1.5,0.94c-0.99,0.3-2.44,1.23-2.95,0.08
	C305.58,140.7,305.07,138.93,306.62,137.82z"/>
<path class="st12" d="M266.94,167.43c-0.75,0.18-1.02,0.78-1.17,1.47c-1.8-0.43-3.28-1.46-4.75-2.57
	C263.16,166.01,265,166.99,266.94,167.43z"/>
<path class="st1" d="M217.35,149.56c-0.05,0.62-0.09,1.25-0.14,1.87c-0.47,0.27-0.62,0.63-0.31,1.13c0,0-0.05,0.1-0.05,0.1
	c-0.59-0.06-1.19-0.11-1.78-0.17c0.08-0.9,0.15-1.8,0.23-2.7C216.02,150.02,216.44,147.37,217.35,149.56z"/>
<path class="st13" d="M294.87,160.55c-0.16,0.67-0.33,1.33-0.49,2c-1.15,0.23-2.05-0.18-3.06-1.24
	C292.68,161.02,293.77,160.78,294.87,160.55z"/>
<path class="st4" d="M187.75,155.91c-0.66,0.85-0.88,2.57-2.55,1.37c0.53-0.47,1.06-0.95,1.59-1.42
	C187.11,155.87,187.43,155.89,187.75,155.91z"/>
<path class="st4" d="M209.93,159.47c-0.01-0.53-0.01-1.05-0.01-1.58c0.55-0.02,1.07,0.06,1.08,0.79
	C210.99,159.4,210.49,159.5,209.93,159.47z"/>
<path class="st7" d="M71.93,169.63c0.68,0.05,1.39,0.05,1.53,0.99C72.72,170.69,72.17,170.42,71.93,169.63z"/>
<path class="st5" d="M245.93,150.44l-0.17,0.13c0,0-0.21-0.05-0.21-0.05c-0.2-0.42-0.41-0.84-0.61-1.26
	c0.32-0.25,0.66-0.41,1.07-0.22C245.98,149.51,245.96,149.97,245.93,150.44z"/>
<path class="st13" d="M297.98,162.59c0.59-0.61,1.33-0.45,2.04-0.42C299.44,162.82,298.71,162.72,297.98,162.59z"/>
<path class="st7" d="M83.74,168.29c-0.55,0.43-1.07,0.38-1.56-0.12C82.7,168.2,83.22,168.24,83.74,168.29z"/>
<path class="st5" d="M242.7,149.71c0.33-0.35,0.73-0.48,1.19-0.36C243.59,149.8,243.17,149.84,242.7,149.71z"/>
<path class="st8" d="M266.21,169.18c0.14-0.03,0.22,0.03,0.24,0.18c0,0-0.18,0.02-0.18,0.02L266.21,169.18z"/>
<path class="st7" d="M89.41,168.36c-0.17,0.02-0.34,0.04-0.52,0.06C89.07,168.4,89.24,168.38,89.41,168.36z"/>
<path class="st7" d="M85.28,168.37c-0.2,0.2-0.38,0.19-0.53-0.06C84.93,168.33,85.11,168.35,85.28,168.37z"/>
<path class="st7" d="M226.83,106.23c-0.07,0.23-0.13,0.46-0.2,0.69c-0.06-0.18-0.13-0.35-0.19-0.53
	C226.55,106.29,226.68,106.24,226.83,106.23z"/>
<path class="st7" d="M81.23,167.99c-0.2-0.07-0.4-0.15-0.59-0.22C80.83,167.85,81.03,167.92,81.23,167.99z"/>
<path class="st5" d="M270.67,69.39c-0.16-0.18-0.32-0.37-0.47-0.55C270.36,69.02,270.51,69.21,270.67,69.39z"/>
<path class="st9" d="M209.86,157.84c-0.14-0.11-0.27-0.21-0.41-0.32C209.59,157.63,209.72,157.73,209.86,157.84z"/>
<path class="st5" d="M171.97,150.98c-0.23,0.07-0.45,0.13-0.68,0.2C171.52,151.11,171.75,151.05,171.97,150.98z"/>
<path class="st5" d="M251.64,149.5c0.17,0.1,0.35,0.19,0.52,0.29C251.98,149.69,251.81,149.6,251.64,149.5z"/>
<path class="st15" d="M193.95,141.88c1.17,1.65,2.58,3.15,3.17,5.18c-0.05,0.26-0.04,0.55-0.16,0.78c-0.78,1.52,0.35,3.97-1.08,4.71
	c-1.74,0.91-3.98,0.84-6.02,1.04c-1.9,0.19-2.79-1.25-1.96-3.1c1.35-3.04,2.48-6.28,5.86-7.67
	C193.92,142.77,193.89,142.21,193.95,141.88z"/>
<path class="st4" d="M199.1,155.04c-2.52,1.23-5.09,0.72-7.67,0.24C193.97,154.35,196.53,154.55,199.1,155.04z"/>
<path class="st9" d="M203.29,154.65c-0.52-0.19-1.05-0.37-1.57-0.56c0.22-0.25,0.46-0.49,0.64-0.77c0.58-0.87,1.51-1.18,2.06-0.37
	C205.22,154.1,203.88,154.22,203.29,154.65z"/>
<path class="st0" d="M190.05,155.28c-0.08,0.14-0.16,0.26-0.27,0.38c-0.17-0.11-0.32-0.08-0.46,0.07c-0.34-0.07-0.69-0.14-1.03-0.21
	C188.83,155.03,189.44,155.13,190.05,155.28z"/>
<path class="st0" d="M317.54,55.49c1.47-2.51,4.18-2.11,6.35-2.76c7.36-2.2,14.78-4.18,22.2-6.12c1.38-0.36,2.92-1.21,4.31,0.16
	c-8.78,2.35-17.6,4.59-26.33,7.13C321.9,54.52,319.78,55.24,317.54,55.49z"/>
<path class="st0" d="M307.9,57.99c2.18-2.13,5.03-2.33,7.74-2.89c0.53-0.11,0.73,0.31,0.8,0.79
	C313.6,56.61,310.86,57.79,307.9,57.99z"/>
<path class="st0" d="M301.15,59.62c1.78-1.49,3.76-2.11,6.03-1.57C305.38,59.47,303.33,59.82,301.15,59.62z"/>
<path class="st1" d="M216.48,95.14c0.53-0.01,1.07-0.03,1.6-0.04c-0.55,6.08-2.92,11.73-3.85,17.74c-0.86,5.51-2,10.99-3.19,16.43
	c-0.56,2.54-1.81,4.95-1.08,7.68c-0.14,0.49-0.15,1.3-0.43,1.41c-0.8,0.33-0.87-0.58-1.09-1.07c-0.72-1.65-0.54-3.44-0.6-5.19
	c1.13-3.25,0.45-6.65,0.68-9.97c0.5-7.1,0.79-14.22,1.46-21.3c0.29-3.02,1.31-5.97,1.99-8.95c0.33,1.3-0.62,2.89,0.82,3.93
	c-1.07,7.1-1.97,14.21-1.68,21.42C213.76,110.08,213.94,102.3,216.48,95.14z"/>
<path class="st1" d="M200.15,119.25c-0.81-1.44-0.84-2.89,0.01-4.33C200.57,116.36,200.64,117.81,200.15,119.25z"/>
<path class="st0" d="M200.72,98.47c-0.33-1.54,0.4-2.91,0.66-4.36C201.6,95.63,201.49,97.1,200.72,98.47z"/>
<path class="st1" d="M226.97,74.71c0.52,0.05,0.97,0.23,0.93,0.87c-0.04,0.64-0.52,0.75-1.03,0.75
	C226.9,75.78,226.93,75.25,226.97,74.71z"/>
<path class="st0" d="M200.66,126.87c-0.51,0.06-0.91-0.06-1.03-0.66c0.21-0.23,0.41-0.47,0.62-0.7
	C200.39,125.96,200.52,126.41,200.66,126.87z"/>
<path class="st0" d="M200.48,106.36c-0.05-0.12-0.12-0.24-0.15-0.37c-0.01-0.04,0.09-0.1,0.14-0.15
	C200.57,106.02,200.57,106.19,200.48,106.36z"/>
<path class="st0" d="M209.76,71.68c0.24-0.05,0.48-0.09,0.72-0.14C210.26,71.72,210.05,71.91,209.76,71.68z"/>
<path class="st0" d="M212.49,89.76c-0.03,0.22-0.06,0.45-0.09,0.67C212.44,90.2,212.46,89.98,212.49,89.76z"/>
<path class="st1" d="M150.76,99.23c-0.03-0.3-0.05-0.61-0.08-0.91c0.3,0.06,0.6,0.12,0.91,0.18
	C151.54,99.04,151.18,99.17,150.76,99.23z"/>
<path class="st1" d="M148.48,109.15c-1.35-0.41-3.13-0.41-3.25-2.36c-0.09-1.6,1.03-2.5,2.3-3.47c3.47-2.65,7.37-4.2,11.38-5.56
	c0.49,0.02,0.98,0.03,1.48,0.05c-0.36,0.99-1.06,1.34-2.04,1.64c-3.75,1.17-7.43,2.59-10.34,5.48c-0.5,0.49-1.72,0.7-1.27,1.7
	c0.33,0.74,1.19,1.2,2.1,1.32c0.59,0.08,1.17,0.25,1.75,0.37C150.23,109.54,149.16,108.82,148.48,109.15z"/>
<path class="st3" d="M160.39,97.8c-0.49-0.02-0.98-0.03-1.48-0.05c-0.17-0.33-0.33-0.66-0.5-1c1.7-0.57,3.41-1.14,5.1-1.72
	c0.71-0.25,1.67-0.75,1.89,0.33c0.19,0.94-0.79,1.17-1.6,1.26c-0.47,0.05-1.07-0.12-1.25,0.61C161.92,97.77,161.18,97.9,160.39,97.8
	z"/>
<path class="st1" d="M148.48,109.15c0.68-0.33,1.75,0.4,2.1-0.83c1.07,0.08,2.92-0.53,2.78,1.02c-0.12,1.33-1.87,0.4-2.89,0.29
	C149.8,109.54,149.15,109.31,148.48,109.15z"/>
<path class="st1" d="M146.63,101.3c0.01-0.42,0.02-0.85,0.04-1.27c0.62,0.03,1.23,0.05,1.85,0.08
	C148.22,101.09,147.41,101.18,146.63,101.3z"/>
<path class="st0" d="M161.18,110.1c0.89,0.28,1.01,0.65,0.14,1.16C161.27,110.87,161.23,110.48,161.18,110.1z"/>
<path class="st0" d="M140.92,106.95c-0.07-0.81,0.37-1.09,1.06-1.09C142.02,106.63,141.34,106.66,140.92,106.95z"/>
<path class="st0" d="M155.83,97.72c0.19-0.15,0.37-0.3,0.56-0.45C156.34,97.6,156.19,97.81,155.83,97.72z"/>
<path class="st0" d="M153.26,98.23c0.15-0.24,0.31-0.32,0.51-0.07C153.6,98.19,153.43,98.21,153.26,98.23z"/>
<path class="st1" d="M148.49,100.26c0.15-0.39,0.3-0.77,0.7-0.2C148.96,100.13,148.73,100.19,148.49,100.26z"/>
<path class="st0" d="M154.79,97.69c0.16-0.37,0.34-0.37,0.54-0.03C155.14,97.67,154.97,97.68,154.79,97.69z"/>
<path class="st2" d="M185.15,82.86c0.35,0.34,0.71,0.67,1.06,1.01c0.2,0.35,0.4,0.69,0.61,1.04c-0.03,0.74,0.49,0.83,1.01,0.93
	c0.3,1.35-0.68,1.37-1.5,1.58c-2.23,0.57-4.43,1.25-6.68,1.72c-1.48,0.31-1.95,1.13-1.86,2.6c0.2,3.23-0.54,6.34-1.31,9.43
	c-1.94,1.71-2.78,4.62-5.51,5.47c-2.06,0.67-4.22,0.52-6.33,0.78c-1.38,0.17-2.59-0.52-3.28-1.64c-0.87-1.4,0.8-1.75,1.38-2.36
	c3.22-3.36,3.91-7.91,5.47-12.05c0.49-1.31,0.79-2.7,1.18-4.06c0.77-0.43,1.5-0.89,1.68-1.88c0.46-0.63,0.93-1.26,1.39-1.88
	c0.98-0.65,1.97-1.31,2.95-1.96C178.74,81.39,182.09,80.88,185.15,82.86z"/>
<path class="st3" d="M197.27,97.62c-0.7,0.2-1.41,0.41-2.11,0.61c-0.27-0.22-0.52-0.18-0.76,0.05c-4-0.27-7.87,0.74-11.79,1.26
	c-1.11-0.27-2.07,0.2-3.02,0.7c-0.44-0.19-1.2-0.2-1.03-0.9c0.51-2.05,0.1-4.27,1.06-6.23c0.83-0.24,1.87,0.24,2.47-0.79
	c0.7-0.12,1.4-0.25,2.1-0.37c0.99-0.22,2-0.34,2.95-0.68c3.6-1.27,7.54-1.4,10.93-3.39c1.9-0.53,3.04-0.15,2.5,2.26
	c-0.23,0.36-0.33,0.74-0.12,1.15c-0.1,0.74-0.2,1.47-0.31,2.21c-0.39,0.48-0.34,1.02-0.24,1.58c-0.31,1.05-0.2,2.46-1.84,2.4
	C197.79,97.53,197.53,97.58,197.27,97.62z"/>
<path class="st2" d="M185.19,113.34c-0.79-3.13-1.61-6.26-2.36-9.41c-0.22-0.91-0.57-1.88-0.07-2.83c2.09-0.28,4.19-0.53,6.28-0.85
	c1.14-0.18,1.66,0.11,1.85,1.43c0.31,2.15,0.88,4.26,1.35,6.39c0.07,3.52,2.27,6.56,2.11,10.13c-0.28,2.13-1.31,2.02-2.59,0.9
	c-0.71-0.62-1.61-1.24-1.92-2.07c-0.57-1.55-1.65-1.91-3-2.17C186.07,114.72,185.57,114.06,185.19,113.34z"/>
<path class="st1" d="M194.35,118.2c0.17-3.57-2.03-6.61-2.11-10.13c0.57-0.03,1.14-0.06,1.71-0.09c1.25,3.92,1.78,8.01,2.49,12.05
	c0.18,1.04,0.32,2.06,0.77,3.01c-0.11,0.16-0.09,0.31,0.04,0.45c-0.24,0.16-0.47,0.32-0.71,0.48
	C195.37,122.23,194.42,120.39,194.35,118.2z"/>
<path class="st3" d="M196.13,86.23c0.32-0.15,0.64-0.31,0.96-0.46c1.03-0.22,2.18,0.07,3.06-0.78c0.33-0.01,0.66-0.01,0.98-0.02
	c0.3,2.64-2.12,1.3-3,2.22c-4.87,1.34-9.75,2.68-14.62,4.01c-1.19-0.33-0.12-0.87-0.11-1.31c2.2-0.66,4.41-1.31,6.61-1.97
	c0.29-0.14,0.57-0.27,0.86-0.41C192.63,87.09,194.38,86.66,196.13,86.23z"/>
<path class="st1" d="M198.15,122.84c-0.92-4.09,0.02-8.16,0.12-12.23c0.02-0.81-0.35-1.83,0.73-2.3c0.24,4.96,0.2,9.93,0,14.89
	C198.72,123.08,198.44,122.96,198.15,122.84z"/>
<path class="st1" d="M183.51,91.21c4.87-1.34,9.75-2.68,14.62-4.01c-0.02,0.23-0.04,0.46-0.06,0.69c-3.4,1.99-7.33,2.11-10.93,3.39
	c-0.95,0.34-1.97,0.46-2.95,0.68C183.96,91.71,183.74,91.46,183.51,91.21z"/>
<path class="st3" d="M182.09,92.32c-0.6,1.03-1.64,0.56-2.47,0.79c-0.64-1.57-0.61-2.77,1.45-2.85
	C181.53,90.89,182.43,91.27,182.09,92.32z"/>
<path class="st3" d="M182.09,92.32c0.34-1.05-0.56-1.43-1.02-2.05c0.68-0.75,1.52-0.48,2.33-0.37c-0.01,0.44-1.07,0.98,0.11,1.31
	c0.22,0.25,0.45,0.5,0.67,0.74C183.49,92.08,182.79,92.2,182.09,92.32z"/>
<path class="st1" d="M192.48,102.97c1.32,0.51,0.93,1.8,1.17,2.8C191.68,105.55,192.55,104.05,192.48,102.97z"/>
<path class="st1" d="M179.59,100.25c0.95-0.5,1.9-0.97,3.02-0.7C181.81,100.75,180.72,100.61,179.59,100.25z"/>
<path class="st0" d="M199.9,95.08c-0.1-0.56-0.15-1.11,0.24-1.58C201,94.19,200.31,94.61,199.9,95.08z"/>
<path class="st0" d="M187.82,85.84c-0.52-0.1-1.04-0.19-1.01-0.93C187.41,84.91,187.76,85.21,187.82,85.84z"/>
<path class="st0" d="M200.45,91.29c-0.21-0.41-0.11-0.79,0.12-1.15C200.53,90.53,200.49,90.91,200.45,91.29z"/>
<path class="st0" d="M197.27,97.62c0.26-0.05,0.52-0.09,0.78-0.14C197.79,97.53,197.53,97.58,197.27,97.62z"/>
<path class="st0" d="M194.4,98.29c0.24-0.24,0.49-0.27,0.76-0.05C194.9,98.25,194.65,98.27,194.4,98.29z"/>
<path class="st1" d="M214.54,95.17c-0.41,0.52-0.98,0.49-1.54,0.5c0.51-0.88-1.12-1.89,0.15-2.73c1.02,1.89,2.35-0.16,3.48,0.3
	C216.49,94.52,214.41,93.55,214.54,95.17z"/>
<path class="st0" d="M214.48,86c0.06,0.64,0.07,1.27-0.34,1.81C214.01,87.16,213.89,86.51,214.48,86z"/>
<path class="st0" d="M213.72,89.26c-0.04,0.21-0.09,0.43-0.13,0.64C213.63,89.68,213.68,89.47,213.72,89.26z"/>
<path class="st1" d="M144.05,111.67c0.21,0.09,0.43,0.17,0.64,0.26c-0.05,0.06-0.13,0.19-0.14,0.18c-0.2-0.1-0.4-0.21-0.59-0.33
	C143.96,111.78,144.05,111.67,144.05,111.67z"/>
<path class="st1" d="M227.92,96.14c0,0.9,0.4,2.01-1.04,2.18C226.92,97.44,226.81,96.47,227.92,96.14z"/>
<path class="st1" d="M224.39,92.59c0.49-1.06,1.38-0.63,2.15-0.61C225.82,92.18,225.11,92.39,224.39,92.59z"/>
<path class="st1" d="M221.28,93.25c0.45-0.42,0.98-0.34,1.51-0.29C222.33,93.33,221.85,93.51,221.28,93.25z"/>
<path class="st0" d="M225.83,103.6c-0.04,0.36-0.08,0.72-0.12,1.09C225.5,104.29,225.58,103.93,225.83,103.6z"/>
<path class="st9" d="M189.33,155.73c0.13-0.16,0.28-0.18,0.46-0.07C189.68,155.98,189.53,156.02,189.33,155.73z"/>
<path class="st1" d="M226.38,90.38c-0.3,0.44-0.72,0.45-1.16,0.36C225.51,90.28,225.93,90.27,226.38,90.38z"/>
<path class="st0" d="M222.24,91.67c-0.21,0.05-0.42,0.1-0.63,0.15C221.82,91.77,222.03,91.72,222.24,91.67z"/>
<path class="st0" d="M216.9,152.56c-0.31-0.5-0.16-0.86,0.31-1.13C217.31,151.86,217.29,152.27,216.9,152.56z"/>
<path class="st1" d="M227.83,102.6c0.01,0.5,0.02,1.01,0.04,1.51c-0.3,0.07-0.6,0.15-0.9,0.22
	C226.87,103.55,226.77,102.77,227.83,102.6z"/>
<path class="st0" d="M232.14,90.35c-0.2,0.1-0.39,0.2-0.59,0.3C231.74,90.55,231.94,90.45,232.14,90.35z"/>
<path class="st9" d="M197.25,123.49c-0.13-0.14-0.15-0.29-0.04-0.45c0.06,0.1,0.13,0.2,0.16,0.31
	C197.38,123.37,197.29,123.44,197.25,123.49z"/>
</svg>
