<?xml version="1.0" encoding="utf-8"?>
<!-- Generator: Adobe Illustrator 28.1.0, SVG Export Plug-In . SVG Version: 6.00 Build 0)  -->
<svg version="1.1" id="Layer_1" xmlns="http://www.w3.org/2000/svg" xmlns:xlink="http://www.w3.org/1999/xlink" x="0px" y="0px"
	 viewBox="0 0 24 24" style="enable-background:new 0 0 24 24;" xml:space="preserve">
<style type="text/css">
	.st0{fill:#868686;}
</style>
<g>
	<path class="st0" d="M22.6,11.7c0-0.5-0.1-1-0.2-1.4c-0.3-0.9-0.9-1.2-1.3-1.3l-1.4-0.5l-0.4-0.6l-0.3-0.7l0.2-1.5
		c0.1-0.4,0.1-1-0.5-1.8c-0.3-0.3-0.8-0.7-1.3-1c0,0-0.1-0.1-0.1-0.1c-0.8-0.4-1.5-0.6-2.1-0.6c-0.6,0-1,0.3-1.2,0.5l-1.2,1l-0.6,0
		c-0.1,0-0.1,0-0.1,0l-0.8,0l-1.2-1C9.4,2,8.2,2.1,6.8,2.9c0,0-0.1,0-0.1,0.1c-0.5,0.3-1,0.7-1.3,1C4.8,4.6,4.8,5.2,4.9,5.7l0.2,1.5
		L4.8,7.8L4.3,8.5L2.9,9C2.6,9.1,2,9.3,1.6,10.3c-0.2,0.4-0.2,1-0.3,1.6c0,0,0,0.1,0,0.1c0,0.6,0.1,1.2,0.2,1.6
		c0.3,0.9,0.8,1.3,1.2,1.4l1.4,0.6l0.4,0.6c0,0.1,0.2,0.5,0.3,0.7l-0.3,1.5c-0.1,0.4-0.2,1,0.5,1.8c0.3,0.4,0.7,0.7,1.2,1
		c0,0,0.1,0.1,0.1,0.1c0.8,0.5,1.5,0.7,2.1,0.7c0.6,0,0.9-0.2,1.1-0.4l1.2-0.9l0.8,0l1.3,0l1.2,0.9c0.2,0.2,0.6,0.4,1.2,0.4
		c0.6,0,1.3-0.3,2.1-0.7c0,0,0.1-0.1,0.1-0.1c0.5-0.3,0.9-0.7,1.2-1c0.6-0.7,0.6-1.4,0.5-1.8l-0.3-1.5l0.3-0.6c0,0,0,0,0,0l0.4-0.7
		l1.4-0.6c0.4-0.1,0.9-0.4,1.2-1.4c0.1-0.5,0.2-1,0.2-1.7C22.7,11.8,22.6,11.8,22.6,11.7z M21.2,13.2c-0.1,0.3-0.2,0.5-0.3,0.5
		c0,0-0.1,0-0.1,0l-1.6,0.7c-0.1,0.1-0.2,0.1-0.3,0.3l-0.5,0.9l0,0c0,0,0,0.1,0,0.1l-0.4,0.9c-0.1,0.1-0.1,0.3-0.1,0.4l0.3,1.7
		c0,0,0,0.1,0,0.1c0,0.1-0.1,0.3-0.2,0.5c-0.2,0.3-0.6,0.5-1,0.8c-0.7,0.4-1.2,0.5-1.5,0.5c-0.1,0-0.2,0-0.2-0.1
		c0,0-0.1-0.1-0.1-0.1l-1.4-1.1c-0.1-0.1-0.2-0.1-0.4-0.1l-1.5,0l-1,0c-0.1,0-0.3,0-0.4,0.1l-1.4,1.1c0,0-0.1,0.1-0.1,0.1
		c0,0.1-0.2,0.1-0.2,0.1c-0.3,0-0.8-0.1-1.5-0.6c-0.4-0.2-0.7-0.5-0.9-0.8c-0.2-0.2-0.3-0.4-0.2-0.5c0,0,0-0.1,0-0.1l0.3-1.7
		c0-0.1,0-0.3-0.1-0.4c-0.1-0.3-0.4-0.8-0.5-1l-0.5-0.9c-0.1-0.1-0.2-0.2-0.3-0.3l-1.6-0.7c0,0-0.1,0-0.1,0c-0.1,0-0.2-0.2-0.3-0.5
		c-0.1-0.3-0.1-0.7-0.1-1.3c0-0.5,0.1-0.9,0.2-1.2c0.1-0.3,0.2-0.5,0.3-0.5c0,0,0.1,0,0.1,0L5,9.6c0.1,0,0.2-0.1,0.3-0.2l0.6-0.9
		l0.5-0.9c0.1-0.1,0.1-0.3,0.1-0.4L6.2,5.4c0,0,0-0.1,0-0.1c0-0.1,0.1-0.3,0.3-0.5C6.6,4.5,7,4.3,7.4,4C8.2,3.6,9,3.4,9.1,3.6
		c0,0,0.1,0.1,0.1,0.1l1.4,1.1c0.1,0.1,0.2,0.1,0.4,0.1L12,5c0,0,0.2,0,0.2,0l0.8,0c0.1,0,0.3-0.1,0.4-0.1l1.4-1.1
		c0,0,0.1-0.1,0.1-0.1C15,3.4,15.6,3.5,16.7,4c0.4,0.2,0.7,0.5,1,0.8c0.2,0.2,0.3,0.4,0.3,0.5c0,0,0,0.1,0,0.1l-0.3,1.8
		c0,0.1,0,0.3,0.1,0.4l0.4,0.9c0,0,0,0.1,0.1,0.1l0.5,0.8c0.1,0.1,0.2,0.2,0.3,0.2l1.7,0.6c0,0,0.1,0,0.1,0c0.1,0,0.2,0.2,0.3,0.5
		c0.1,0.3,0.2,0.8,0.2,1.2v0c0,0.1,0,0.1,0,0.2C21.4,12.5,21.3,12.9,21.2,13.2z"/>
	<path class="st0" d="M12,7.9c-2.3,0-4.2,1.9-4.2,4.2c0,2.3,1.9,4.2,4.2,4.2s4.2-1.9,4.2-4.2C16.2,9.8,14.3,7.9,12,7.9z M12,15.1
		c-1.7,0-3-1.3-3-3c0-1.7,1.3-3,3-3s3,1.3,3,3C15,13.7,13.6,15.1,12,15.1z"/>
</g>
</svg>
