<?xml version="1.0" encoding="utf-8"?>
<!-- Generator: Adobe Illustrator 28.1.0, SVG Export Plug-In . SVG Version: 6.00 Build 0)  -->
<svg version="1.1" id="Layer_1" xmlns="http://www.w3.org/2000/svg" xmlns:xlink="http://www.w3.org/1999/xlink" x="0px" y="0px"
	 viewBox="0 0 24 24" style="enable-background:new 0 0 24 24;" xml:space="preserve">
<style type="text/css">
	.st0{fill:#B6B6B6;}
</style>
<path class="st0" d="M15.4,21.9c-0.6,0-0.9-0.2-1.2-0.4l-1.2-0.9l-1.3,0l-0.8,0l-1.2,0.9c-0.2,0.2-0.6,0.4-1.1,0.4
	c-0.6,0-1.3-0.3-2.1-0.7c0,0-0.1-0.1-0.1-0.1c-0.5-0.3-0.9-0.7-1.2-1c-0.6-0.7-0.6-1.4-0.5-1.8l0.3-1.5c-0.1-0.3-0.3-0.6-0.3-0.7
	l-0.4-0.6L2.8,15c-0.4-0.1-0.9-0.4-1.2-1.4c-0.1-0.4-0.2-1-0.2-1.6c0,0,0-0.1,0-0.1c0-0.6,0.1-1.2,0.3-1.6C2,9.3,2.6,9.1,2.9,9
	l1.4-0.5l0.4-0.6l0.3-0.7L4.9,5.7c-0.1-0.4-0.1-1,0.5-1.8c0.3-0.3,0.8-0.7,1.3-1c0,0,0.1,0,0.1-0.1C8.2,2.1,9.4,2,10.1,2.7l1.2,1
	l0.8,0c0,0,0,0,0.1,0l0.6,0l1.2-1c0.2-0.2,0.6-0.5,1.2-0.5c0.6,0,1.3,0.2,2.1,0.6c0,0,0.1,0.1,0.1,0.1c0.5,0.3,1,0.6,1.3,1
	c0.7,0.8,0.6,1.4,0.5,1.8l-0.2,1.5l0.3,0.7l0.4,0.6L21.1,9c0.4,0.1,1,0.4,1.3,1.3c0.1,0.4,0.2,0.9,0.2,1.4c0,0.1,0,0.1,0,0.2
	c0,0.7-0.1,1.2-0.2,1.7c-0.3,1-0.9,1.3-1.2,1.4l-1.4,0.6l-0.4,0.7c0,0,0,0,0,0l-0.3,0.6l0.3,1.5c0.1,0.4,0.2,1-0.5,1.8
	c-0.3,0.4-0.7,0.7-1.2,1c0,0-0.1,0.1-0.1,0.1C16.8,21.7,16,21.9,15.4,21.9z M11.7,19.3l1.5,0c0.1,0,0.3,0,0.4,0.1l1.4,1.1
	c0,0,0.1,0.1,0.1,0.1c0,0.1,0.2,0.1,0.2,0.1c0.3,0,0.8-0.1,1.5-0.5c0.5-0.3,0.8-0.6,1-0.8c0.2-0.2,0.3-0.4,0.2-0.5c0,0,0-0.1,0-0.1
	l-0.3-1.7c0-0.1,0-0.3,0.1-0.4l0.4-0.9c0,0,0-0.1,0-0.1l0,0l0.5-0.9c0.1-0.1,0.2-0.2,0.3-0.3l1.6-0.7c0,0,0.1,0,0.1,0
	c0.1,0,0.2-0.2,0.3-0.5c0.1-0.3,0.1-0.7,0.2-1.1c0-0.1,0-0.1,0-0.2v0c0-0.4-0.1-0.9-0.2-1.2c-0.1-0.3-0.2-0.5-0.3-0.5
	c0,0-0.1,0-0.1,0L19,9.6c-0.1,0-0.2-0.1-0.3-0.2l-0.5-0.8c0,0-0.1-0.1-0.1-0.1l-0.4-0.9c-0.1-0.1-0.1-0.3-0.1-0.4l0.3-1.8
	c0,0,0-0.1,0-0.1c0-0.1,0-0.3-0.3-0.5c-0.2-0.3-0.6-0.5-1-0.8c-1.1-0.6-1.6-0.6-1.8-0.4c0,0-0.1,0.1-0.1,0.1l-1.4,1.1
	c-0.1,0.1-0.2,0.1-0.4,0.1l-0.8,0c0,0-0.2,0-0.2,0l-1-0.1c-0.1,0-0.3-0.1-0.4-0.1L9.2,3.7c0,0-0.1-0.1-0.1-0.1C9,3.4,8.2,3.6,7.4,4
	C7,4.3,6.6,4.5,6.4,4.8C6.2,5,6.1,5.2,6.1,5.3c0,0,0,0.1,0,0.1l0.3,1.8c0,0.1,0,0.3-0.1,0.4L5.9,8.5L5.3,9.4C5.2,9.5,5.1,9.6,5,9.6
	l-1.7,0.6c0,0-0.1,0-0.1,0c-0.1,0-0.2,0.2-0.3,0.5c-0.1,0.3-0.2,0.7-0.2,1.2c0,0.5,0.1,1,0.1,1.3c0.1,0.3,0.2,0.5,0.3,0.5
	c0,0,0.1,0,0.1,0l1.6,0.7c0.1,0.1,0.2,0.1,0.3,0.3l0.5,0.9c0.1,0.2,0.3,0.7,0.5,1c0.1,0.1,0.1,0.3,0.1,0.4l-0.3,1.7c0,0,0,0.1,0,0.1
	c0,0.1,0.1,0.3,0.2,0.5c0.2,0.3,0.6,0.5,0.9,0.8c0.7,0.4,1.2,0.6,1.5,0.6c0.1,0,0.2,0,0.2-0.1c0,0,0.1-0.1,0.1-0.1l1.4-1.1
	c0.1-0.1,0.2-0.1,0.4-0.1L11.7,19.3z"/>
<path class="st0" d="M12,16.3c-2.3,0-4.2-1.9-4.2-4.2c0-2.3,1.9-4.2,4.2-4.2c2.3,0,4.2,1.9,4.2,4.2C16.2,14.4,14.3,16.3,12,16.3z
	 M12,9.1c-1.7,0-3,1.3-3,3c0,1.7,1.3,3,3,3s3-1.3,3-3C15,10.4,13.6,9.1,12,9.1z"/>
</svg>
