<?xml version="1.0" encoding="UTF-8"?>
<svg id="Layer_1" data-name="Layer 1" xmlns="http://www.w3.org/2000/svg" viewBox="0 0 414 200">
  <defs>
    <style>
      .cls-1 {
        fill: #fff9b8;
      }

      .cls-2 {
        fill: #fff100;
      }

      .cls-3 {
        fill: #fbb040;
      }

      .cls-4 {
        fill: #9ed2f1;
      }

      .cls-5 {
        fill: #8fc9e3;
      }

      .cls-6 {
        fill: #cfc8c4;
      }

      .cls-7 {
        fill: #c4bfb9;
      }

      .cls-8 {
        fill: #e0d9a1;
      }

      .cls-9 {
        fill: #433e39;
      }

      .cls-10 {
        fill: #585350;
      }

      .cls-11 {
        fill: #4c4845;
      }

      .cls-12 {
        fill: #81796a;
      }

      .cls-13 {
        fill: #757575;
      }
    </style>
  </defs>
  <path class="cls-9" d="M114.77,183.02c-.83,.23-1.67,.45-2.5,.68-.89,.05-1.86-.34-2.6,.45-.64,.32-1.31,.53-2.05,.41-.33-.3-.67-.6-1-.9,2.81-.71,5.82-.7,8.53-2.01-.6-1.39-1.81-2.54-1.8-4.07,.01-1.89-1.05-1.84-2.59-1.48-4.41,1.02-8.9,1.56-13.42,1.87-.73,.05-1.92,.67-2.18-.73,.37,.04,.64-.09,.81-.4,5.21-.34,10.37-.96,15.47-2.01,1.26-.26,2.12-.62,2.71-1.74,.9-1.71,2.48-2.78,4.55-2.97,1.07-.1,1.27-.51,1.53-1.4,.85-2.87,.04-5.08-2.09-7.33-3.05-3.21-5.23-6.92-4.47-11.47,.15-.9-.55-1.21-1.06-1.7-1.36-1.27-2.21-2.74-1.99-4.59,0-.42,0-.83,.01-1.24-.09-1.31,.2-2.54,.92-3.68,.05-.16,.1-.32,.15-.47,.14,.01,.27,.03,.41,.04,.92,1.21-.13,2.22-.39,3.31-.5,.26-.59,.56-.12,.93,.04,2.88,1.14,5.01,4.34,6.09,2.25,.76,4.56,1.02,6.88,1.28,2.72,.31,2.98-.07,1.76-2.36-.39-.74-.76-1.63-.83-2.29-.16-1.7-1.32-2.11-2.67-2.59-2.28-.82-4.52-1.81-6.14-3.53-.86-.91-1.74-.91-2.79-.86-.17-1.45-.34-2.91-.51-4.36,0-.33,0-.65,0-.98-.04-.1-.1-.19-.12-.3,0-.03,.08-.08,.12-.12,0-.32,0-.63,0-.95-.06-1.11,.33-2.12,.86-3.09,.07-.15,.15-.3,.22-.45,.63-1.9,1.56-3.61,3.46-4.72,.13,.26,.27,.51,.4,.77-1.49,1.81-2.68,3.76-3.43,5.93-1.03,2.98-.21,5.51,2.08,7.7,.49,.46,1.05,1.24,1.73,.12,1.8-2.97,5-5.24,4.69-9.26-.14-1.77,.77-3.65,1.83-5.27,.36-.54,.91-1.04-.08-1.49,0-.29-.01-.58-.02-.87,1.95,.47,3.51-.4,5.14-1.18,1.39-.67,2.76-1.46,4.39-1.61,.21-.06,.41-.12,.62-.18,.57-.18,1.13-.36,1.7-.54,.29,.27,.58,.54,.87,.81-2.35,.85-4.76,1.58-7.04,2.57-4.66,2.02-6.71,5.76-6,10.69,2.34-.9,4.65-1.82,6.98-2.67,.76-.27,1.76-.99,2.13,.47-.55,.15-1.15,.22-1.43,.77,1.1,1.15,2.71,.86,4.07,1.26,.03,.62,.06,1.25,.09,1.87-.03,.06-.1,.14-.08,.17,.06,.11,.15,.2,.23,.3,.21,2.39,1.82,2.06,3.63,1.69,5.3-1.07,10.6-1.67,15.89,.14,2.42,.83,3.75-.24,3.36-2.52-.25-1.48-1.08-2.61-2.33-3.47-4.84-3.31-10.24-3.63-15.85-2.31-1.71,.4-3.28,1.19-4.12,2.79-1.61,.41-.12-1.59-1.35-1.48-.79-.91,.08-1,.7-1.19,1.67-.53,3.31-1.17,5.02-1.53,5.65-1.19,11.04-.59,16.02,2.31,.69,.4,1.15,1.56,2.31,.8,1.05-.7,1.95-1.53,1.98-2.83,.02-1.21-.46-2.26-1.3-3.2-1.83-2.05-4.27-3.22-6.87-4.2-4.19-1.57-8.55-1.38-12.92-1.16-.01-.33-.03-.66-.04-.99,6.01-2.18,12.16-2.73,18.57-1.83,2.96,.41,6.04,.31,9.02-.37,.51,.14,.96,.11,1.3-.32,1.69-.28,3.38-.36,5.07-.03,.35,.44,.81,.48,1.33,.33,1.77,.02,3.22,.85,4.74,1.53,.37,.52,.72,.56,1.06-.03,.42-.16,.83-.47,1.26-.01-.44,1.23-.45,1.99,1.43,1.53,1.75-.44,3.58-.68,5.42-.53,.01,.34,.02,.67,.04,1.01-2.78,.6-5.82,.24-8.53,1.75,1.7,1.43,3.32,2.7,4.27,4.47,.44,.82,1.11,1.03,2.08,.91,4.41-.53,8.75,.28,13.1,.67,2.91,.26,5.27,1.78,7.27,3.7,.39,.37,.35,1.3,1.26,.84,.78-.39,1.68-.77,1.69-1.83,0-1.03-.2-1.98-.73-2.91-1.41-2.44-3.64-4.01-6.18-5.33-3.02-1.57-6.4-1.76-9.7-2.3,0-.34,0-.68,0-1.02,.25,0,.5-.02,.75-.03,.98-.03,1.71-.63,1.6-1.39-.11-.77-1.13-.37-1.71-.37-2.74-.03-5.5-.24-8.2,.44-.17,.04-.33,.07-.5,.11-1.12,0-2.1,1.41-3.33,.27,.87-1.32,2.43-1.04,3.73-1.36,.19-.09,.37-.18,.56-.27,1.2-.54,2.45-.15,3.68-.22,.86-.05,2.06,.49,2.52-.4,.37-.71-.77-1.26-1.1-1.94,.11-.38,.22-.75,.33-1.13,1,.94,1.93,1.95,3.01,2.79,.81,.63,1.93,.75,2.82,.17,.77-.51,.13-1.12-.27-1.59-4.35-5.15-8.1-10.67-12.02-16.09-.25-1.47-.79-3.47-2.09-3.64-1.9-.25-4.06,.45-5.95,1.12-1.55,.55,.84,1.69-.06,2.55-1.65-.7-2.75-2.87-5.19-1.52-.66,.36-1.26,.61-1.66,1.27-2.04,3.29-4.35,4.09-8.37,2.98-.8-.95-2.38-.82-3.09-1.9,1.13-1.06,2.21-2.15,2.58-3.67,.58-.7,.61-1.5,.76-2.6-2.84,.91-5.35,1.72-7.86,2.53-.02-.32-.03-.63-.05-.95-.18-.4-.36-.79-.54-1.19-.17-.19-.34-.39-.51-.58-5.59-6.44-9.56-13.74-13.25-21.18-9.39-18.96-15.8-38.87-21.91-58.87-.19-.62-1.32-2.1,.97-1.59,4.84,16.84,10.41,33.46,17.37,49.66,4.42,10.28,9.33,20.35,16.32,29.42,2.89,3.76,2.93,3.73,7.53,2.05,.16-.06,.32-.1,.48-.15,1.2-.38,1.33-.88,.47-1.82-5.27-5.75-9.18-12.29-12.65-19.06-6.64-12.95-11.75-26.43-16.26-40.12-2.2-6.68-4.54-13.32-6.29-20.12,1.17-.13,1.22,.59,1.49,1.4,3,9.14,5.91,18.3,9.16,27.37,5.11,14.25,10.67,28.34,19.1,41.29,2.02,3.1,4.12,6.17,7.04,8.96,.59-1.46,.97-2.65,1.52-3.76,2.66-5.38,8.42-6.33,12.96-2.23,.58,.53,.85,1.81,2.06,1.31,.95-.39,.5-1.39,.55-2.12,.2-3.19,1.47-5.74,4.86-7.03,3.36-1.28,6.07-.24,8.41,2.08,.21,.21,.5,.35,.79,.55,2.45-9.05,8.67-12.12,15.26-7.62-.1,1.04-.8,.81-1.49,.6-2.75-2.13-5.56-1.69-8.37-.12-2.73,1.53-4.4,5.19-3.74,8.35,.36,1.72,.92,3.41,1.38,5.11-.5-.32-.99-.64-1.49-.96-.26-.7-.27-1.61-1.51-1.44,0,0,0-.15,0-.15,.14-.34,.44-.71,.37-1-.15-.57-.67-.3-.95-.09-.79,.58-2.14,.26-2.57,1.38h.02c-.68-.41-.81,.1-1,.5,0,.31,.01,.63,.02,.94-.85,1.9,.55,3.47,.89,5.19,.4,.84,.62,1.78,1.49,2.37,2.79,4.34,5.79,8.56,8.73,12.81,5.23,7.55,12.68,13.9,14.88,23.51,.65-1.15,.65-2.03,.32-2.89-.64-1.68-1.24-3.39-2.07-4.99-4.48-8.7-9.1-17.34-13.5-26.07-1.21-2.4-1.97-4.89-5.73-3.85,.13-.76,.8-.96,1.44-1.11,1.54-.35,1.82-1.12,1.01-2.32-.21-.32-.49-.67,.05-.97,.98,.31,1.28,1.2,1.85,1.86,2.78,3.24,6.04,5.84,10.49,6.94,1.59,.39,3.73,1.43,4.65,.31,.71-.87-1.08-2.53-1.95-3.76-2.27-3.21-5.59-5.61-7.93-8.77,.21-.2,.41-.4,.62-.61,.47,.36,.93,.73,1.4,1.09,.97,1.81,2.25,1.95,4.24,1.11,2.23-.95,4.46-2.06,7-2.24,.14,.26,.28,.52,.42,.78,.54,1.52,1.08,3.03,1.62,4.55,.44,.49,1.03,.38,1.61,.32,2.07-.04,4.11,.18,6.08,.8,.16,.05,.32,.09,.48,.14,0,0,0,0,0,0-.43,.62-1.18,.48-1.8,.66-.44-.1-.88-.2-1.32-.31-1.41-.53-2.98-.7-4.2,.04-.72,.44-.56,1.64,.14,2.44,.49,2.12,.77,4.08,4.29,3.37,4-.8,8.04-.51,11.5,2.04,.96,.71,2.18,.06,2.76-.45,.84-.74-.42-1.32-.9-1.79-2.23-2.22-5.29-3.24-8.18-4.48,.43-.19,.85-.38,1.28-.58,.99,.17,1.92,.66,2.97,.48,.44,.03,.81-.08,1.04-.46,.11-.12,.23-.14,.38-.07l.68,.79c-.35,.33-1.65,.39-.33,1.17,.99,.59,2.23,1.09,2.81,1.95,1.79,2.64,4.18,2.29,6.95,1.86,3.95-.63,8.19-.68,11.42,1.66,2.36,1.7,3.9,1.12,5.98,.1-1.19-1.67-2.82-2.62-4.43-3.62-3.28-2.04-7.03-2.9-10.78-3.78-.42-.68-.93-.64-1.49-.16-1.53-.02-3.07-.05-4.6-.07-.17-.19-.33-.18-.48,.02-.34,.02-.68,.04-1.02,.06-.33-.26-.67-.53-1-.79,5.26-1.14,10.26-.09,15.21,1.48,.21,.1,.42,.19,.62,.29,.3,.1,.61,.19,.91,.29,.16,.08,.32,.16,.47,.24,.51,.15,1.03,.3,1.54,.45,.36,.48,.7,.47,1.03-.02,.66-.07,1.31-.14,1.97-.22,.01,.32,.02,.65,.03,.97-.2,.25-1.07,.28-.61,.7,1.5,1.36,3.12,2.59,4.7,3.87,.19,.29,.38,.59,.58,.88v-.02c-.19,.09-.38,.17-.58,.26-4.94,1.49-9.58,3.55-14.34,6.12,3.89,2.25,7.75,2.79,11.89,2.29,4.01-.49,7.5-2.23,11.11-3.69,2.09-.85,4.43-1.2,6.38-2.45-1.02-1.39-2.5-1.81-3.85-2.42,.15-.68,.77-.64,1.3-.75,1.32,.38,2.44,1.05,3.31,2.04,.42,.48,.84,1.18,1.59,.72,.81-.5,.11-1.09-.19-1.6-.66-1.11-1.59-2.01-2.64-2.79-2.49-1.85-5.46-2.66-8.51-3.3l.02-.94c.37,.07,.73,.15,1.1,.22,.34,.04,.68,.07,1.02,.11,.16-.06,.3-.04,.43,.06,.5,.64,1.23,.5,1.92,.49,2.19,.92,4.38,.14,6.57,.01,1.07-.06,2.14,0,3.21,0,.48,.5,.97,.51,1.48,.03,1.02,.13,2.05,.26,3.07,.38,0,.33,0,.65,0,.98-3.32-.2-6.64-.5-10.31,.19,2,1.57,3.48,3.04,4.41,4.92,.28,.57,.7,.72,1.43,.55,5.55-1.3,10.97-1.3,16.15,1.98,.05-2.11-2.1-2.67-2.45-4.17,1-.95,1.38,.13,1.98,.51,.48,.51,1.05,.74,1.77,.45,.25,.07,.5,.14,.75,.21,0,.38-.02,.77-.02,1.15-.55-.09-.93,.45-.77,.62,1.92,1.86,1.38,4.59,2.82,6.6-.02,.36-.03,.71-.05,1.07-.52-.13-1.04-.27-1.57-.4-.17-.04-.33-.08-.5-.12-.67-.09-1.34-.19-2.01-.28-.14,0-.28-.02-.42-.03-1.91,.24-3.81,.55-5.72,.69-1.79,.13-1.48,.8-.69,1.72,.99,1.15,2,2.27,3.16,3.29,3.89,3.39,8.76,5.8,11.82,10.01,.52,.72,.96,.31,1.44,0,.39,0,.77,.02,1.16,.03-.09,.16-.17,.32-.26,.47-.1,.15-.21,.31-.31,.46-.21,.46-.42,.93-.63,1.39-.34,.18-.69,.37-1.03,.55-1.05-1.22-1.53-2.87-3.3-3.82-.96,3.39-1.83,6.62-2.8,9.82-1.18,3.89-2.3,7.64,.8,11.39,1.2,1.45,1.62,1.27,2.66,.13,1.37-1.51,2.35-3.21,3.26-4.96,.71,.29,.45,.91,.54,1.4-.51,1.49-1.23,3.03-2.49,3.94-2.27,1.64-2.17,3.39-1.39,5.6,.65,1.83,.51,3.81,.38,5.74-2.03,.21-1.03-1.24-1.07-1.88-.26-4.27-1.73-8.08-4.68-11.7-1.12,3.1-1.86,5.98-3.2,8.6-1.35,2.64-1.05,5.1-.28,7.68,.4,1.34,1.02,2.64,1.28,4.01,.4,2.03,1.22,1.52,2.39,.55,2.02-1.66,3.22-3.73,4.01-6.08,.2-.59-.13-2.1,1.55-1.2-.33,1.26-.67,2.52-1,3.78,.03,.19,.06,.38,.09,.57,.68,1.2,.76,2.51,.8,3.82-.33,0-.66,0-.99,0-.23-.8-.47-1.59-.77-2.61-2.67,2.71-6.39,4.55-5.62,8.97,.19,1.08-.31,2.32-.74,3.41-1.5,3.8-3.69,7.04-8.48,7.86-1.32-.28-2.65-.49-4.5-.19,1.61,1,2.96,.97,4.32,.88,2.23,.33,4.3-.22,6.39-.87,.53-.17,1.23-1.09,1.86-.05,.03,.07,.08,.21,.07,.21-4.84,1.52-8.25,5.4-13.17,6.78-.47-.09-.88,0-1.16,.38l-.17,.09s-.2-.01-.2-.01c-.21,.09-.43,.19-.64,.28-.56,.1-1.12,.21-1.69,.31-1.18-.13-2.27,.2-3.36,.53-2.24,.36-4.46,.27-6.65-.32-.69-.62-1.36-.56-2.01,.07-.24,.04-.49,.09-.73,.13-.47-.14-.92-.18-1.29,.2-2.11,.51-4.26,.72-6.44,.68-.31,0-.62,.02-.93,.02-1.62,.25-3.23,.2-4.83-.12,0-.31,0-.61,0-.92,2.49-.02,4.97-.05,7.46-.07,.21-.03,.41-.06,.62-.08,1.18-.5,2.65,.05,3.89-.84-1.51-1.06-3.05-1.9-4.24-3.04-1.17-1.13-2.22-1.24-3.78-.84-3.94,1.03-7.86,1.12-11.24-1.49-1.09-.85-2.01-.32-2.66,.21-.9,.73,.09,1.41,.59,1.95,1.92,2.11,4.55,3.11,7.34,3.83,.01,.62-.42,.79-.98,.84,0,0-.02,0-.02,0-.48-.57-1.12-.45-1.76-.36-.21,0-.42-.01-.63-.02-.61-.12-1.2-.19-1.68,.3-1.19,.29-2.37,.59-3.56,.88-.24-.16-.39-.06-.5,.15-4.23,.45-8.46,.8-12.7,.02-.27-.32-.6-.47-1.04-.38-.32-.07-.64-.13-.97-.2-.42-.39-.89-.65-1.52-.44-4,.47-7.88,1.58-11.95,1.7-4.08,.12-8.08-.15-11.88-1.63-1.03-.4-1.94-.27-2.92,.05-1.82,.58-3.6,1.3-5.55,1.44-.64-.1-1.28-.21-1.74,.38l-.18,.1s-.2-.03-.2-.03c-.2,.03-.39,.06-.59,.09-.84,.31-1.71,.34-2.59,.27,0-.32,0-.64-.01-.96,1.18-.14,2.35-.27,3.53-.41,.17-.04,.34-.09,.51-.13,2.14-.74,4.5-.94,6.47-2.05-2.41-3.33-5.26-5.23-9.57-2.95-.2,.1-.49,.06-.73,.09-.22,.03-.43,.06-.65,.09-.69,.09-1.38,.18-2.07,.27-.17-.33-.33-.65-.5-.98,4.97-.7,9.63-2.29,14.14-4.26,.83-.36,2.43-.56,2.15-1.58-.31-1.15-1.09-2.2-2.83-2.61-7.49-1.77-14.37,.05-21.17,2.63-1.21,.46-3.22,.65-3.38,1.65-.23,1.46,1.86,1.95,2.92,2.89,.39,.66,.99,.92,1.79,.78,.61,.12,1.21,.23,1.82,.35,.35,.09,.69,.18,1.04,.27-.8,1.65-2.02,.58-3.1,.4-.25-.41-.64-.48-1.1-.4-1.64-.35-2.8-1.39-3.93-2.43-.83-.77-1.54-1.87-2.89-.83-1.28,.99-.07,1.87,.39,2.61,2.55,4.13,6.79,5.84,11.63,6.58-.01,.33-.03,.66-.04,.99-.52-.05-1.03-.1-1.55-.14-.23-.06-.46-.12-.69-.18-.28-.06-.55-.12-.83-.18-.39-.48-.95-.41-1.5-.38-2.45-1.27-4.78-1.22-7.58-.49-5.85,1.53-12,1.78-17.9,.36-2.33-.56-4.19-.28-6.35,.07-5.66,.91-11.27,.37-16.76-1.12-1.08-.29-2.12-.51-3.22-.31-3.98,.72-7.52-.37-10.82-2.29-.87-.5-1.63-1.11-2.75-.85-.2,.08-.41,.15-.61,.23Zm87-32.73c-.29-.43-.7-1.14-1.2-.62-.54,.55,.39,.74,.79,1,.35,.73,.89,1.29,1.64,1.69,.94,1.02,1.87,2.04,2.89,3.15,.9-2.33,0-3.46-2.23-3.87-.63-.46-1.25-.91-1.88-1.36Zm-29.59-62.47c-.3-.08-.5,.03-.61,.29-.97,1.07-1.03,2.42-1.3,3.7-.31,1.5,.47,1.81,1.85,1.34,2.84-.96,5.76-1.68,8.72-2.22,.3-.06,.7-.16,.85-.37,.51-.7-1.89-4.87-2.95-5.19-.03-.14-.04-.27,0-.41,.47-.16,1.06-.33,.89-.89-.21-.69-.74-.32-1.18-.14-1.96,.8-3.93,1.6-5.9,2.39-.72,.37-.4,.96-.36,1.49h-.02Zm90.69,66.48c-.12-.19-.24-.38-.37-.57-.47-.55-.85-1.19-1.41-1.63-1.33-1.05-2.97-.56-4.49-.59,.17,1.83-1.37,3.67-.24,5.43,2.58,4.01,4.23,8.29,4.69,12.91,2.18,.07,3.04-1.12,3.59-2.75,.74-2.19,.87-4.43,.84-6.7,.26-.64-.26-1.44,.52-1.96,.21,1.51,.43,3.02,.62,4.52,.09,.71,.16,1.61,1.21,1.31,.79-.23,1.49-1.09,1.03-1.87-1.6-2.72-2.46-5.6-2.78-8.65-.1-.98-1-.89-1.72-1.03-.93-.18-1.01,.25-.77,.91-.23,.24-.47,.48-.7,.72l-.02-.04Zm-62.34-65.12c-.05-.1-.11-.19-.16-.29-.04,.05-.08,.1-.11,.15,.11,.03,.21,.06,.32,.09,.53,2.43,2.05,4.43,3.27,7.08,.55-5.13,.52-5.18-3.31-7.03Zm41.65,65.96c-.59-.71-.42-1.59-.62-2.39-.12-.47-.33-.86-.99-.76-.62,.09-.82,.41-.65,.96,.11,.36,.25,.75-.36,.86-1.04-1.04-2.2-1.91-3.65-2.48-1.91-.75-3.44,.13-3.31,2.03,.08,1.17,.2,2.35-.21,3.47-.57,1.59-.29,2.98,.61,4.43,1.3,2.1,2.07,4.42,2.59,6.79,.69,3.18,.63,3.12,4.07,2.31,1.6-.38,2.41-.93,2.76-2.63,.65-3.21-.53-6.12-1.02-9.15,.71-.08,1.25,.25,1.77,.63-.44,1.92-.09,3.67,1.36,5.16,.47,.48,.97,.72,.06,1.39-1.23,.9-1.19,2.5-.75,3.56,.34,.83,1.95,.26,2.99,.24,.08,0,.15-.06,.22-.1,.37-.77-.89-1.33-.31-2.12,1.28-.56,1.31,.53,1.43,1.08,.38,1.78,1.37,2.04,3.13,1.12-.99-1.25-1.96-2.48-2.91-3.71-.25-.32-.56-.68-.99-.53-.56,.19-.61,.67-.37,1.15,.19,.38,.26,.73-.32,.87-.95-.36-2.13-1.3-1.33-1.88,2.07-1.49,.43-2.45-.15-3.61,.37-.06,.74-.12,1.11-.18,2.9,2.94,5.29,6.24,7.78,9.47,.53,.69,.9,2.18,2.05,1.55,1.34-.74,3.48-.94,3.31-3.27-.42-5.93-3.32-10.84-7.06-15.46-1.03-1.28-2.07-2.36-4.2-1.69-1.11,.35-2.32-.22-3.14-1.15-.34-.39-.57-1.08-1.34-.56-.52,.36-1.21,.64-1.16,1.41,.03,.54,.1,1.08,.15,1.62,0,.31,0,.61,0,.92,.12,.18,.25,.35,.37,.53-.32,.04-.64,.08-.95,.12Zm-103.74-2.69c-.43,.53-2.09-1.24-1.73,.78-.41,.03-.83,.06-1.24,.08-1.73-.15-3.51,.16-5.37-.61,.3,1.78-.71,3.49,.69,4.87,3.78,3.73,5.32,8.35,6.49,13.17,.15,.6-.54,2.47,1.27,1.72,1.46-.6,4.27,.55,4.21-2.5-.04-1.99-1.12-3.85-.64-5.87,.77-.42,.72,.31,.94,.6,.67,.89,1.51,1.72,2.71,1.69,1.27-.03,.12-1.53,1.07-1.91,2.74,1.63,4.69,4.04,6.78,6.22,2.05,2.14,3.74,2.62,6.5,1.17,1.33-.7,1.63-1.19,1.42-2.44-.49-2.93-1.73-5.68-3.68-7.85-3.3-3.67-5.88-8.52-12.34-8.36-.38,0-.84-.21-1.13-.46-.97-.83-1.85-.42-2.76,.06-.63-.03-1-.3-.98-.92,1.22-.58,2.36-1.27,2.98-2.43,1.93-3.63,2.41-7.54,2.29-11.52-.02-.68-.03-1.61-.98-2.01-2.98-1.26-7.41,.86-8.12,3.84-.54,2.29-.77,4.6-.69,6.95,.07,2.04,.74,3.79,2.52,5.09-.07,.22-.15,.44-.22,.67Zm53.49-2.34c-.24-.22-.48-.44-.71-.67,2.06-2.9,3.12-6.17,4.02-9.48,.41-1.5,.44-3.19-.91-4.07-2.42-1.57-7.07,.66-7.33,3.38-.24,2.52-1.01,4.85-2.26,7.1-1.2,2.16-.44,3.82,2,4.38,.86,.2,1.83-.04,2.76-.08,.44,.13,.87,.26,1.31,.4-.6,1.09-2.55,.21-2.9,1.67-.27,.21-.54,.42-.8,.63-2.34-2.76-4.68-3.39-6.93-1.88-1.01,.68-.58,5.08,.65,6.66,2.89,3.7,5.14,7.66,5.65,12.3,.07,.65,.02,1.4,1.23,1.35,4.23-.16,5.05-.98,4.73-4.88-.03-.31-.02-.62-.03-.93,.24-.8-.34-1.75,.55-2.43,.6,.54,1.18,1.1,1.81,1.61,.34,.28,.72,.8,1.25,.37,.45-.37,.24-.86-.04-1.27-2.65-4.07-3.42-8.53-3.16-13.19,.03-.55,.1-1.16-.87-.96Zm-61.47,34.1c6.52,2.66,13.22,2.95,20.5,1.58-1.69-1.37-3.14-2.32-4.26-3.52-1.07-1.14-2.03-1.27-3.44-.67-4.06,1.73-8.29,2.53-12.76,1.64-1.82-.77-3.28-2.04-5.04-2.94,1.01,2.04,2.79,3.21,5,3.91Zm152.67-.14c.48,.1,.91,.08,1.21-.34,2.46-1.17,5.26-1.84,7.3-3.91-4.18-1.15-7.86-1.24-11.9,.23-4.4,1.6-9.23,2.09-13.49-1.01-.86-.63-1.73-.07-2.21,.45-.62,.69,.36,1.05,.8,1.42,3.4,2.94,7.66,3.76,12.11,4.07,.34,0,.69,0,1.03,.01,1.72-.31,3.43-.61,5.15-.92Zm-8.56-56.5c-6.49,.14-9.58,2.02-10.75,6.54-.17,.67-.59,1.42,.04,1.98,.61,.54,1.23-.18,1.87-.27,5.99-.83,11.99-1.75,17.94,.18,.73,.24,1.42,.18,1.19-.44-.52-1.42-.45-3.13-1.8-4.19-2.31-1.82-4.83-3.31-7.93-3.71-.19-.03-.37-.06-.56-.09Zm-74.52,8.37c-.49-.35-1.02-.34-1.57-.14-1.76-.4-2.49-.16-1.87,1.81,1.21,3.91,2.76,7.63,5.31,10.98,1.02,1.35,2.35,2.25,4.11,2.48,2.58,.34,4.07-1.14,3.68-3.5-.6-3.59-3.18-6.43-4.37-9.8-.27-.77-1.21-1.29-2.23-1.35-.18-.09-.35-.18-.53-.27-.84-.07-1.69-.14-2.53-.21Zm90.05,10.26c.42,1.52,1.13,2.75,3.12,2.87,1.46,.09,2.83-.12,3.49-1.38,2.54-4.84,4.19-9.95,4.92-15.29,.09-.65,0-1.11-.87-1-2.2,.28-3.74-.87-5.41-2.47-1.55,4.38-2.97,8.4-4.4,12.42-.97,.01-1.11-.52-.9-1.22,.26-.9,.6-1.78,.83-2.68,.3-1.16,1.86-2.71,.77-3.33-1.26-.73-2.95,.53-4.24,1.4-.54,.36-1.01,.82-1.49,1.25-.46,.41-.68,.87-.32,1.45,1.04,1.72,2.07,3.45,3.08,5.13,1.35-.3-.24-2.99,2.28-2.06-.25,1.03-.5,2.07-.75,3.1-.05,.04-.14,.08-.14,.11,0,.1,.05,.2,.08,.31-.02,.34-.05,.68-.07,1.02l-.12,.19,.13,.18Zm-95.99,10.27c.78,3.75,2.59,7.03,5.14,10.02,1.88,2.2,3.52,4.56,5.35,6.8,.58,.71,.57,2.53,2.37,1.46,1.61-.95,4.59-.4,4.16-3.62-1.08-8.03-5.46-14.42-11.28-20.15-.4-.39-.8-.76-1.48-.77-4.47-.08-4.54-.02-4.34,4.29,.02,.46,.01,.93,.02,1.4,.03,.19,.05,.39,.08,.58Zm-7.08-82.26c-3.08,.06-5.67,2.13-6.12,4.86-.67,4.01,.42,7.77,2.45,11.23,6.73,11.47,14.81,22.06,24.38,31.68,1.07,1.08,2.19,2.14,2.7,3.62,.2,.58,.23,1.62,1.29,1.38,.92-.2,1.55-.9,1.68-1.86,.26-1.96-.52-3.68-1.49-5.33-1.89-3.22-4.2-6.19-6.49-9.17-5.75-7.48-11.68-14.86-16.02-23.17-.92-1.76-1.67-3.58-1.61-5.59,.04-1.55,.72-2.64,2.35-3.25,2.75-1.04,2.77-1.46,.45-3.15-1.11-.81-2.38-1.12-3.56-1.25Zm78.04,49.82c-.32-5.26-2.34-10.14-3.85-15.15-.83-2.74-2.32-4.5-5.7-4.38-.63,.02-1.29-.33-1.92-.54-3.15-1.06-3.2-1.02-3.24,2.18-.06,5.59,2.22,10.42,5.51,14.97,1.67,2.31,3.58,4.53,4.25,7.34,.17,.73,.34,1.33,1.29,1.48,.95,.15,1.65-.19,2.21-.83,1.3-1.49,1.53-3.24,1.44-5.07Zm-150.29,27.24c.12,4.45,2.47,7.51,5.14,10.32,3.82,4.03,7.87,7.88,11.82,11.81,.66,.65,1.12,1.53,2.44,.73,1.07-.65,2.32-.98,1.86-2.53-.24-.82-.44-1.66-.58-2.5-1.22-7.52-7.29-11.95-12.54-16.96-1.74-1.66-3.95-1.04-5.79-1.9-1.45-.68-2.71-.58-2.37,1.02Zm51.57-.49c-.26,2.18-.73,3.92,.1,5.34,3,5.17,5.36,10.74,10.43,14.66,.32,.25,.69,.52,.86,.85,1.24,2.48,2.95,2.37,5.47,1.41,1.88-.71,2.17-1.39,1.86-3.06-1.29-6.87-5.57-12.05-10.81-16.72-.57-.5-1.16-.93-2.01-.7-2.15,.59-3.95-.06-5.88-1.78Zm68.37,20.25c-.9-6.16-3.61-11.44-7.47-16.27-1.23-1.54-2.27-3.3-5.01-2.6-1.02,.26-2.11-.46-2.95-1.13-.65-.51-1.24-.72-2.04-.28-.91,.49-.61,1.16-.42,1.84,2.16,7.77,6.3,14.53,12.14,20.45,.68,.69,1.41,1.22,2.36,.46,1.1-.88,3.32-.57,3.4-2.46Zm-83.03-54.15c2.75,1.18,5.47,2.31,7.53,4.31,1.15,1.11,2.4,1.53,3.96,1.78,5.89,.92,11.22,3.23,16.37,5.92,.85,.44,1.31,2.02,2.66,1.1,1.31-.89,1.83-2.21,1.4-3.74-.55-1.96-1.78-3.55-3.49-4.75-8.59-6.04-18.32-6.34-28.43-4.62Zm71.22,1.37c-.16-4.61-1.86-8.81-4.01-12.91-.99-1.9-2.1-3.23-4.77-2.82-1.27,.19-2.77-.04-3.98-.51-2.3-.88-2,.42-1.8,1.61,.4,2.35,1.82,4.33,2.86,6.45,2.11,4.31,5,8.3,6,13.05,.16,.75-.25,1.91,1.07,2.1,1.25,.19,2.32-.3,3.13-1.19,1.54-1.69,1.49-3.74,1.49-5.78Zm19.18,1.47c.42-4.82-1.33-9.48-4.74-13.69-.79-.97-1.08-2.18-2.87-2.2-1.38-.02-3.49-1.25-3.99-.78-1.33,1.26-.26,3.15-.16,4.79,.03,.46,.21,.91,.34,1.36,1.6,5.63,3.88,11.06,5.88,16.57,.39,1.07,.45,2.12,2.09,2.12,1.55,0,2.29-.83,2.78-1.97,.79-1.85,.77-3.8,.67-6.21Zm30.71-14.78c.82,4.33,2.14,7.98,3.3,11.69,1.39,4.45,5.77,7.28,6.97,11.76,.17,.65,.79,.45,1.44,.27,2.29-.61,3.16-2.21,2.74-5.43-.68-5.22-2.53-10.11-4.77-14.91-.35-.74-.66-1.35-1.77-1.33-2.66,.06-5.11-.74-7.9-2.06Zm29.22-2.2c-.53-2.85-2.09-4.4-4.66-5.14-2.27-.66-4.58-1.07-6.98-.83-6.46,.65-12.43,2.8-18.37,5.07-.41,.16-.8,.22-.78,.72,.01,.39,.33,.41,.63,.56,4.83,2.55,9.88,3.27,15.33,2,4.81-1.12,9.54-2.7,14.83-2.38Zm-87.5-1.47c6.61-.31,13.05-2.12,19.02-5.38,.42-.23,1.01-.6,1.04-.94,.05-.62-.7-.8-1.24-.98-2.99-1.06-6.05-1.13-9.21-.72-5.91,.76-11.86,1.97-17.65-.59-1.44-.63-1.29,.42-1.3,1.17-.02,4.55,3.41,7.38,9.34,7.44Zm67.36,66.82c-.5-4.41-1.61-8.21-3.54-11.81-1.04-1.94-1.41-4.52-4.91-3.72-.39,.09-.92-.32-1.37-.53-1.73-.78-2.95,.66-4.43,.96-.88,.18-.22,1.39-.12,2.12,.81,5.85,4.57,10.28,8.41,14.66,.46,.53,.83,1.69,1.9,.92,1.36-.98,3.64-.97,4.06-2.6Zm17.29-4.65c-.01-.13-.13-.67-.13-1.21,0-3.42-1.93-6.44-2.35-9.75-.25-1.97-.74-2.53-3.01-2.15-2.46,.41-2.02,2.15-2.09,3.33-.25,3.88-.06,7.78-.21,11.67-.12,3.25-.22,6.56-2.19,9.45-.82,1.2-.04,1.31,.94,1.35,2.21,.09,3.89-.86,5.28-2.34,2.68-2.85,3.54-6.29,3.74-10.35Zm-70.7-63.5c2.03,1.83,4.4,2.54,7.08,2.74,7.82,.6,14.42-2.56,21.01-5.72,1.24-.6,1.06-1.16-.11-1.77-2.2-1.15-4.55-1.64-7.04-1.67-7.71-.09-14.42,2.61-20.95,6.42Zm-44.16,33.32c-.09,2.04,.73,2.78,2.53,2.27,6.02-1.74,12.04-1.7,18.02,.13,1.54,.47,1.98-.03,1.95-1.37-.05-3.03-1.54-5.23-4.5-6.45-4.34-1.8-8.85-1.83-13.32-.52-3.19,.93-4.53,2.82-4.67,5.96Zm62.17,37.84c-7.36-.58-13.28,2.88-19.33,5.98-1.56,.8-.23,1.26,.37,1.54,3.02,1.43,6.25,1.86,9.6,1.46,5.44-.66,10.47-2.36,15.06-5.13,.7-.42,2.16-.53,1.76-1.56-.43-1.1-1.25-2.27-2.9-2.29-1.52-.01-3.04,0-4.56,0Zm-36.16-38.22c-.16,2.28,2.13,3.29,4.48,2.09,1.58-.81,3.15-.97,4.85-.94,4.45,.08,8.91-.24,13.11,1.8,1.66,.81,2.43-.04,2.04-1.77-.46-2.05-1.79-3.55-3.6-4.61-5.08-2.96-10.56-3.58-16.25-1.79-2.79,.88-4.39,2.79-4.63,5.22Zm-60.25,39.49c-8.26-.18-15.03,2.16-21.21,6.39-1.7,1.16-1.05,1.54,.04,2.24,2.9,1.87,6.11,1.6,9.27,.89,4.56-1.01,8.74-2.9,12.66-5.23,1.45-.86,4.29-1.19,3.81-3.07-.56-2.24-3.31-.97-4.58-1.22Zm116.03-44.21c2.22-1.01,4.36-1.38,5.3-3.78,2.73-6.96,2.14-13.53-1.71-19.99-1.04-1.75-2.93-.69-3-.34-.59,2.99-3.15,5.77-2.62,8.6,.95,5.09,3.1,9.99,2.03,15.51Zm-110.57,25.9c-.46,1.88,.35,3.22,1.75,4.57,2.68,2.57,4.53,5.79,5.23,9.19,.59,2.86,1.65,3.11,4.5,2.94,2.75-.17,2.98-1.09,2.79-3.09-.61-6.53-4.53-11.38-9.3-15.8-1.35-1.25-3.13-.54-4.56-.29-1.03,.18-.18,1.64-.42,2.48Zm55.05,28.26c2.55,0,4.58-.43,6.53-1.25,3.54-1.5,6.56-3.8,10.02-5.42,1.79-.84,1.36-1.58,.15-2.48-.63-.46-1.31-.6-2.11-.62-7.69-.14-14.78,1.8-21.52,5.09-1.15,.56-1.08,.99-.33,1.69,2.1,2,4.6,3.14,7.26,2.99Zm36.2-54.65c-4.92-.02-8.14,1.99-9.25,6.13-.19,.71-.96,1.57-.16,2.16,.68,.51,1.29-.51,2.03-.59,1-.11,2.03-.36,3.01-.27,3.88,.36,7.76,.18,11.64,.3,1.25,.04,2.59,.12,3.72,.55,1.2,.45,2.56,1.28,3.42,.23,.81-.99-.43-2.15-1.01-3.15-.23-.4-.64-.72-.99-1.05-3.3-3.05-7.46-4.07-12.41-4.31Zm-77.51,44.28c-7.14-.09-13.2,2-17.56,5.74-1.07,.91-.2,1.1,.45,1.43,2.43,1.27,5.06,1.57,7.81,1.38,5.85-.4,10.94-2.92,16.22-4.91,.7-.26,2.25-.19,1.85-1.39-.32-.97-1.17-1.82-2.62-1.85-2.27-.06-4.53-.29-6.14-.4Zm49.3-4.55c-.21-6.18-2.77-11.22-6.82-15.71-.63-.7-1.11-.89-2.08-.31-1.9,1.14-3.16,5.02-1.93,6.97,2.52,4.01,4.46,8.19,4.75,12.9,.03,.51-.07,1.11,.71,1.33,1.81,.52,4.89-1.34,5.13-3.11,.11-.77,.19-1.54,.25-2.08Zm-48.8-40.13c-4.22,.03-7.57,1.16-9.84,4.3-.81,1.12-.99,2.57-.19,3.49,.68,.79,2.12,1.08,3.45,.43,.72-.35,1.61-.44,2.44-.54,4.62-.55,9.23-.8,13.7,.84,.79,.29,1.73,.36,2.38-.25,.62-.58,.23-1.33,0-1.98-.44-1.29-1.27-2.35-2.4-3.21-2.86-2.18-6.21-3-9.55-3.08Zm101.53,41.96c-1.86,.27-4.2,.39-6.49,1.01-5.36,1.46-9.53,4.91-14.42,7.15-1.09,.5-.78,1.06,.06,1.48,2.06,1.03,4.23,1.42,6.59,1.07,6.35-.94,11.59-4.08,16.86-7.15,.59-.34,1.96-.48,1.4-1.55-.45-.85-.95-1.89-2.26-2-.42-.04-.84,0-1.74,0Zm-95.86,15.7c-1.02-1.27-2.2-2.28-2.76-3.53-1-2.22-2.2-2.25-4.49-1.45-6.04,2.1-12.21,3.16-18.12-.53-1.17-.73-2.02,.04-2.69,.57-1.07,.85,.22,1.31,.7,1.8,6.2,6.36,19.61,6.14,27.36,3.14Zm97.57-5.04c4.61-.14,8.68-1.31,12.44-3.35,1.63-.88,2.8-2.21,3.4-3.91,.52-1.46,1.5-3.3,.49-4.35-.78-.81-2.79,.26-4.19,.69-5.15,1.6-9.61,4.43-14.19,7.02-1.16,.66-3.48,1.17-3.14,2.18,.49,1.45,2.73,1.47,4.4,1.65,.33,.04,.67,.06,.78,.06Zm5.56-43.67q-4.51-.01-3.22,3.59c.32,.88,.52,1.8,.91,2.66,1.53,3.38,3.8,6.19,7.47,7.84,1.28,.58,2.7,.68,3.86-.05,1.2-.76,.92-2.01,.71-3.2-.43-2.5-1.82-4.62-2.96-6.86-1.49-2.94-3.69-4.55-6.78-3.98Zm-29.12-22.37c-.16-3.18-.59-6.34-1.79-9.36-.29-.73-.18-2-1.54-1.72-1.28,.26-3,.12-3.23,2.01-.13,1.09-.67,2.1-1.38,2.98-.59,.74-.43,1.33-.04,2.12,2.39,4.84,2.38,9.95,1.73,15.1-.08,.61-.92,1.44,.18,1.75,.77,.22,1.55-.19,2.04-1.02,2.18-3.71,4.36-7.41,4.02-11.85Zm-85.96-16.24c3.71,.04,5.22-1.01,5.44-4.17,.31-4.45,1.18-8.37,6.76-9.63,.92-.21,1.09-.67,.33-1.49-3.17-3.38-8.15-2.96-10.52,.95-1,1.65-1.41,3.48-1.9,5.28-.63,2.32-.89,4.79-2.46,6.79-1.24,1.58-.29,1.97,1.18,2.19,.5,.07,1.01,.06,1.17,.07Zm79.86,38.81c-1.78,.1-4.51-.81-5.26,1.9-.93,3.37-1.53,6.84-1.93,10.31-.23,1.96,2.18,3.03,4.23,2.27,2.76-1.02,4.3-2.93,5.06-5.45,.52-1.72,.91-3.47,1.37-5.2q.98-3.63-3.49-3.83Zm30.13,4.16c.11-3.92-.29-4.28-3.62-4.13-.76,.03-1.52,.03-2.27,.13-1.4,.18-2.22,.8-2.31,2.26-.22,3.42-.83,6.78-2.23,10-.75,1.74,.19,2.69,2.07,2.89,3.38,.37,5.83-.93,6.77-3.96,.81-2.6,1.2-5.3,1.6-7.18Zm7.05,9.5c-1.48,4.21,0,7.88,1.53,11.56,.27,.65,.29,1.38,.58,2.02,.62,1.36-.44,3.58,1.34,4.08,1.39,.39,3.21-.61,4.86-.9,.78-.14,1.14-.37,1.2-1.17,.32-4.54-.63-8.78-3.31-12.64-.31-.45-.62-.99-1.29-1.02-1.92-.08-3.45-1.05-4.91-1.92Zm-57.84-24.73c3.01-.35,3.9-2.21,4.58-4,2.44-6.4,2.24-12.81-.33-19.15-.26-.64-.26-1.77-1.53-1.45-1.32,.34-3.22,.14-3.69,1.55-.59,1.77-1.02,3.55-.11,5.62,2.45,5.5,4.32,11.18,1.08,17.43Zm2.99,10.04c-2.57-.09-2.59-.08-2.21,1.99,.59,3.24,1.71,6.34,3.22,9.31,.47,.92,1.04,1.77,1.86,2.48,1.64,1.42,3.69,1.6,5.39,.64,1.34-.76,.99-2.51,.66-3.86-.48-1.97-1.37-3.88-1.63-5.86-.41-3.06-2.29-4.3-5.36-4.5-.76-.05-1.51-.15-1.91-.19Zm26.7,1.12c-1.06,.5-3.95-1.12-3.33,1.75,1.02,4.72,3.93,8.56,8.07,11.5,1.21,.86,3.02,.96,3.97-.05,.79-.84,1.45-2.17,.6-3.66-.85-1.49-1.28-3.2-1.88-4.81-1.72-4.56-1.93-4.69-7.44-4.73Zm-33.5-1.3c-1.89-.06-3.94,.48-4.81,2.56-1.11,2.66-1.99,5.42-2.87,8.16-.44,1.38-.06,2.64,1.39,3.42,1.48,.79,3.01,1,4.5,0,.97-.65,1.66-1.54,2.16-2.53,1.38-2.75,2.08-5.69,2.74-8.63,.49-2.2-.37-3.03-3.11-2.99Zm-45.3,.72c-2.16-.4-2.23,.57-1.69,2.35,.94,3.07,2.27,5.97,3.74,8.83,.52,1,1.23,1.86,2.25,2.45,2.31,1.32,4.2,.37,4.97-1.87,.94-2.76-.81-4.73-1.7-6.94-1.66-4.12-2.68-4.72-7.57-4.81Zm-3.04,2.92c.03-2.54-.59-3.16-3.41-2.84-1.64,.19-4.09-.18-4.32,1.97-.32,3-1.48,5.74-2.23,8.61-.66,2.56,.26,3.67,3.12,3.79,2.09,.09,3.28-1.09,4.16-2.58,1.63-2.78,2.07-5.88,2.68-8.93Zm77.93,46.03c-1.23-1.17-2.41-1.99-3.14-3.06-1.05-1.54-2.14-1.56-3.96-1.2-5.34,1.06-10.73,1.58-15.61-1.6-.59-.38-1.14-.71-1.78-.13-.71,.64-.1,1.09,.27,1.6,2.18,3.04,5.32,4.66,9.11,5.41,5.04,1,9.9,0,15.12-1.03Zm-89.53-37.08c.42-1.27-.28-2.4-.95-3.6-.95-1.72-1.81-3.5-2.61-5.28-1.16-2.57-4.78-4.1-7.71-3.26-1.02,.29-.73,.81-.55,1.43,1.04,3.63,2.61,7.04,4.93,10.13,.77,1.03,1.68,1.96,2.93,2.5,2.32,1.01,4,.24,3.96-1.93Zm128.97-19.21c1.41-.23,1.92-1.13,2.32-1.93,3.32-6.53,3.35-13.2,.83-19.95-.35-.94-.93-1.06-1.95-.76-1.94,.58-4.14,4.46-3.43,6.46,1.87,5.24,4.09,10.42,2.22,16.18Zm11.83-15.87c-1.5,4.92-3.37,9.42-2.88,14.38,.17,1.76,1.05,2.78,2.89,3,1.97,.24,2.65-1.08,3.07-2.49,.9-2.99,1.74-6,2.59-9,.26-.89,.16-1.69-.71-2.3-1.59-1.13-3.16-2.28-4.97-3.59Zm-165.75,22.66c.16-2.82-3.43-4.93-6.54-4.17-2.78,.68-5.02,2.18-6.92,4.08-3.64,3.62-2.93,5.56,2.3,6.66,.75,.16,1.22,.06,1.71-.55,1.87-2.31,4.32-3.83,7.35-4.63,.89-.24,1.95-.58,2.1-1.39Zm-.56,16.71c.74-.45,2.66,.19,2.26-1.56-.85-3.63-1.94-7.22-2.96-10.82-.21-.73-.52-1.78-1.6-1.38-2.5,.94-4.65,2.35-6.17,4.5-1.39,1.96,.42,3.17,1.24,4.49,1.55,2.5,3.76,4.38,7.24,4.76Zm93.43,32.85c-.86-.75-1.31-1.1-1.7-1.49-1.07-1.06-1.98-2.83-3.2-3.02-1.27-.2-2.79,1.17-4.24,1.77-5.98,2.46-12.21,1.79-15.9-2.52-.05-.06-.11-.12-.17-.18-.87-.96-1.74-.33-2.44,.13-1.15,.74,.08,1.18,.46,1.59,.92,1.01,2.04,1.84,3.28,2.53,7.6,4.22,15.49,2.87,23.91,1.2Zm-99.25-.26c-.14-.9-1.1-1.08-1.66-1.6-2.86-2.69-4.94-5.7-4.66-9.66,.12-1.74-.69-2.44-2.63-2.11-2.67,.44-4.51,3.13-4.02,5.87,.8,4.53,7.79,8.59,12.97,7.51Zm91.88-94.37c-.35-1.41-.76-3.14-1.24-4.86q-1.39-4.99-6.48-3.22c-.32,.11-.62,.24-.95,.33-1.61,.42-1.47,1.12-.5,2.11,2.06,2.07,3.98,4.29,5.08,6.9,.7,1.66,1.93,1.22,3.07,1.13,1.45-.12,.83-1.25,1.01-2.37Zm39.2,39.47c.13-2.46-3.62-8.45-6.16-10.33-1.57-1.16-2.31-1.04-2.78,.84-.26,1.03-.91,1.98-1.43,2.96-1,1.9-.66,2.93,1.52,3.34,3.15,.58,6.12,1.49,8.85,3.2Zm-23.16-2.15c.02-2.06-3.05-8.43-4.61-9.67-.88-.7-1.17-.24-1.31,.5-.33,1.77-.83,3.52-1.87,5.02-.78,1.12-.39,1.74,.44,2.57,1.3,1.3,3.21,1.68,4.6,2.83,.51,.43,.93,1.35,1.81,.98,.98-.41,.95-1.37,.94-2.24Zm62.77-15.35c.21-.39,.09-.74-.33-.96-.41-.22-.88-.2-1.16,.11-1.18,1.28-2.67,2.37-2.71,4.29-.1,4.13-.49,8.21-2.86,11.89-.78,1.21,.17,2.04,.96,2.85,.44,.44,.95,.38,1.17-.19,.68-1.83,2.63-3.2,2.11-5.52-.23-1,.13-2.16,.39-3.21,.77-3.1,1.62-6.17,2.44-9.26Zm-172.88,59.99c-2.28-.05-3.3,.95-2.78,2.77,1.28,4.52,.87,4.65,5.82,2.57,.83-.35,1.54-.93,2.32-1.39,.98-.57,.91-1.15,.12-1.85-1.62-1.42-3.72-1.66-5.48-2.11Zm122.52-21.29c1.49-.13,2.83-.57,4.13-1.16,1.4-.64,1.69-1.27,.52-2.43-.96-.96-1.71-2.11-2.49-3.22-1.04-1.5-1.97-1.56-2.82,.06-.73,1.38-1.39,2.86-1.66,4.36-.25,1.39,.69,2.33,2.32,2.4Zm26.33-31.05c-.67,1.91-1.23,3.57-1.83,5.22-.25,.69-.37,1.26,.71,1.24,2.87-.06,5.53,.72,8.44,2.15-1.23-4.01-4-6.27-7.32-8.6Zm-127.15,32.1c1.61-.07,3.25-1.01,4.33-2.39,.88-1.12-.88-1.79-1.3-2.72-.42-.93-1.02-1.79-1.55-2.67-.24-.4-.46-.93-1.07-.82-.59,.1-.63,.63-.73,1.1-.37,1.76-.81,3.49-1.69,5.11-.9,1.65-.4,2.34,2.02,2.4Zm75.69-1.14c.94-.05,1.81-.26,2.64-.7,.68-.36,1.49-.57,.85-1.51-1.08-1.59-1.71-3.36-2.43-5.1-.17-.42-.37-.94-1-.89-.6,.04-.75,.55-.93,.98-.5,1.23-.92,2.49-1.51,3.69-1.12,2.28-.32,3.52,2.37,3.53Zm-51-8.24c-1.66,2.06-1.65,4.48-3.08,6.28-1.28,1.62-.1,2.27,1.41,2.5,1.82,.27,3.19-.75,4.52-1.7,.43-.31,.53-.7,.25-1.22-1.01-1.84-1.97-3.71-3.1-5.85Zm38.43,1.34c.72-1.65,1.38-2.91,1.81-4.22,1.08-3.32,.45-3.89-3.41-3.3-.25,.04-.51,.04-.75,.1-.74,.2-1.2,.54-.82,1.35,.93,1.95,1.4,4.1,3.17,6.06Zm-50.38,.42c.55-1.84,1.13-3.38,1.44-4.96,.16-.82,.68-1.93-.5-2.52-1.23-.62-2.61-.53-3.93-.25-.55,.12-.8,.6-.57,1.11,1,2.17,1.72,4.47,3.56,6.62Zm36.1,5.04c3.57,.03,4.15-.82,2.56-3.7-.42-.76-.76-1.55-1.15-2.31-.21-.41-.36-.96-.97-.94-.63,.02-.64,.6-.81,1.01-.46,1.15-.89,2.32-1.4,3.46-.82,1.82-.38,2.46,1.76,2.48Zm77.79,1.86c2.22,.08,4.9-2.44,4.14-3.7-.74-1.21-1.57-2.36-2.34-3.55-.21-.33-.36-.72-.9-.59-.43,.1-.38,.46-.43,.74-.32,1.83-.79,3.63-1.61,5.32-.66,1.37,.36,1.55,1.15,1.77Zm18.59-18.76c-2.63-3.16-4.88-3.71-8.48-2.19,1.08,1.29,1.99,2.66,2.58,4.3,1.82-1.12,3.65-1.84,5.9-2.11Zm-107.98,11.56c1.26-2.19,.98-4.29,1.55-6.22,.15-.5,.07-.91-.57-1.08-1.18-.32-2.33-.2-3.46,.21-.67,.24-.53,.7-.34,1.15,.79,1.93,1.47,3.9,2.82,5.95Zm46.37,12.82c.86-.89,.64-1.7,.74-2.46,.27-2.21-1.17-3.17-3.15-3.83-.71-.24-1.15,.05-1.59,.39-.69,.52-.16,.94,.2,1.37,1.23,1.46,2.45,2.92,3.81,4.54Zm31.8-12.23c1.06-2.12,1.42-4.23,1.39-6.36-.02-1.27-1.1-.9-1.87-.65-.65,.21-2.11-.38-1.75,.95,.57,2.06,1.47,4.05,2.23,6.06Zm-134.41,26.84c-2.01-1.95-3.55-3.44-5.09-4.92-.3-.29-.79-.57-1.06-.2-.75,1.03-.47,2.24-.42,3.38,.04,.96,.88,1.34,1.78,1.27,1.4-.12,2.76,.08,4.8,.48Zm.44-15.94c.56-1.56,.25-2.74-.23-3.87-.41-.97-1.35-1.06-2.31-.81-.59,.15-1.56-.25-1.7,.56-.13,.74,.75,1.13,1.27,1.61,.88,.8,1.82,1.55,2.97,2.52Zm25.44,0c.51-1.61,.25-2.83,.03-4.04-.19-1.02-.56-1.56-1.86-.77-1.66,1-2.53,1.82-.31,3.09,.69,.4,1.25,1,2.14,1.72Zm139.85-43.48c.2,.07,.39,.14,.59,.2,.24-1.1,2.34-1.37,1.49-2.79-.9-1.51-2.29-2.77-3.47-4.14-.13,.06-.25,.12-.38,.18,.59,2.18,1.18,4.36,1.77,6.54Zm-58.62,31.55c1.44-1.95,.64-3.94,1.37-5.68,.43-1.03-.93-.79-1.58-.85-.64-.06-1.55-.1-1.32,.88,.42,1.79,.96,3.56,1.53,5.64Zm-66.91-28.4q7.8,2.04,9.1,1.12c-2.78-1.45-5.07-1.78-9.1-1.12Zm121.52,40.44c.41-1.98,.77-3.61,1.08-5.25,.12-.63-.17-1.12-.96-.94-.83,.18-2.03,2.97-1.63,3.68,.38,.68,.8,1.34,1.51,2.52Zm-111.82-.84c.45-1.32,.48-2.23,.29-3.13-.19-.88-1.04-1.19-1.83-1.36-.84-.17-1.46,.44-1.79,1.02-.42,.75,.58,.96,.97,1.37,.63,.67,1.39,1.24,2.37,2.09Zm-30.36,15.97c-.79-1.95-1.51-2.67-3.71-3.68,.38,4.71-.54,4.4,3.71,3.68Zm53.87,.43c-1.2-1.5-2.34-2.92-3.48-4.33-.24-.29-.45-.73-.98-.48-.19,.09-.38,.34-.4,.54-.17,1.51,2.99,4.4,4.86,4.28Zm-4.55-.54c-.57-2.11-1.67-3.55-3.28-4.32q.54,4.58,3.28,4.32Zm-30.27-45.67c-1.25-.59-2.62-.76-4-.95-.52-.07-1.12-.24-1.14,.44-.04,1.1,1.02,1.27,1.85,1.62,.62,.26,1.2,.58,1.92,.41,.72-.18,1.09-.65,1.37-1.51Zm-14.13,45.78c-1.55-1.28-2.58-2.14-3.61-3-.25-.21-.44-.48-.7-.66-.25-.16-.56-.3-.86-.33-.11-.01-.42,.39-.38,.46,.73,1.11,1.47,2.23,2.29,3.28,.6,.76,1.49,.44,3.26,.25Zm102-16.72c.49-1.41,1.38-2.92,.01-4.09-.48-.41-1.75,.45-2.02,1.02-.75,1.6,1.35,1.95,2,3.07Zm-56.69-36.89c.96-.17,1.59-.78,1.68-1.66,.06-.61-.55-1.41-1.17-1.18-.96,.37-1.8,1.21-1.99,2.18-.11,.54,.88,.49,1.47,.65Zm22.05,45.95c-.51,1.32-.55,2.55,0,3.67,.24,.49,.72,1.18,1.53,.79,.71-.34,.7-.94,.28-1.56-.63-.95-1.21-1.93-1.81-2.9Zm16.17-30.06c.72-1.15,1.35-2.13,1.96-3.12,.19-.31,.61-.65,.1-.97-.43-.27-1.08-.4-1.36,.05-.74,1.19-2.69,2.21-.71,4.04Zm36.03,34.14c-1.03-.7-1.09-2.35-2.61-2.74-.37-.1-.88,.65-.62,1.07,.59,.93,.52,2.42,2.22,2.53,.51,.03,1.05,0,1.02-.86Zm-136.91-25.92c.29-1.31,.5-2.27,.72-3.22,.08-.36,.36-.76-.02-1.06-.54-.44-1.09,.03-1.63,.09-.57,.07-1.01,.48-.75,.95,.54,.97,.39,2.24,1.69,3.24Zm131.54,27.27c.57-.28,1.91,.21,1.67-1.05-.15-.79-.76-1.93-1.66-1.82-1.11,.14-.7,1.54-1.11,2.33-.29,.56,.5,.6,1.09,.53Zm-4.03-59.08c1.68-1.07,1.79-2.62,2.15-4.08,.1-.4-.03-.79-.57-.85-.39-.04-.61,.23-.68,.54-.32,1.46-.61,2.93-.91,4.39Zm-2.43,21.67c.75,1.02,1.4,1.9,2.28,3.11,.43-1.42,.71-2.33,1.13-3.73-1.23,.73-2.22,.35-3.42,.63Zm-96.63,19.88c-.43,.53-1.57,.09-1.42,.79,.19,.87,.92,1.64,1.98,1.82,.71,.12,.7-.47,.71-.94,.01-.86-.51-1.32-1.27-1.67Zm56.15,17.34c-.07,1.42-1.13,2.4,.27,3.08,.48,.23,1.58,.34,1.75-.31,.29-1.14-.96-1.61-2.02-2.77Zm5.38,2.36c-.75-.78-1.12-1.98-2.27-2.51-.41-.19-.82,.37-.6,.7,.62,.92,.84,2.21,2.29,2.45,.35,.06,.6-.18,.58-.64Zm14.6-63.42c1.33-.76,1.76-1.86,1.78-3.13,0-.36-.43-.59-.71-.45-1.2,.61-.77,1.9-1.26,2.82-.08,.15,.09,.43,.18,.76Zm-26.8,43.69c.79,1.31,1.43,2.35,2.79,3.17-.02-1.77-.13-3.19-2.79-3.17Zm-4-19.56c-1.82,1.05-.54,2.45-.5,3.74,.92-1.14,.47-2.45,.5-3.74Zm-21.37-4.98c-.08-.18-.15-.36-.23-.54-1.01,.26-2.81-.5-2.31,2.01,.95-.55,1.75-1.02,2.54-1.48Zm90.91,26.78c.28-.93,.63-1.88-.14-2.76-2.04,1.13-.61,1.93,.14,2.76Zm-100.5-34.99c1.02-.42,2.61,.23,3.29-1.38-1.48-.05-2.55,.26-3.29,1.38Zm-5.52,50.09q1.24,2.26,2.55,2.4c-.65-1.05-1.5-1.81-2.55-2.4Zm-12.67-38.57c-.06-.25-.15-.45-.48-.34-.47,.16-.94,.36-.89,.92,.01,.13,.32,.35,.47,.34,.58-.05,.77-.48,.89-.92Zm.92-1.71c-.1,.19-.21,.36-.28,.55,0,.02,.32,.2,.36,.16,.16-.13,.26-.31,.38-.47-.13-.07-.26-.14-.47-.24Z"/>
  <path class="cls-1" d="M217.28,79.27c-2.55,.18-4.78,1.29-7,2.24-1.98,.84-3.26,.7-4.24-1.11,0-1.05-.01-2.09-.02-3.14,.89-.87,1.77-1.74,2.66-2.6,1.14,.14,1.98-.35,2.71-1.07,1.32,.11,2.57-.34,3.61-.9,2.65-1.43,6.11-1.28,8.27-3.61,.68-.35,1.9,1.13,2.18-.55,3.27-.39,6.21-1.75,9.21-2.88,1.19-.45,2.85-.28,3.49-1.74,0,0-.02,.01-.02,.01,1.17,.43,2.16-.25,3.13-.59,12.73-4.49,25.46-8.95,38.11-13.6,6.21-2.28,12.6-4.15,18.63-6.85,0-.16,.02-.32,.03-.48,1.29,.19,2.46-.18,3.65-.59,4.52-1.56,8.87-3.57,13.61-4.58,1.87,1.6,2.82,3.54,2.57,5.92-.77,.32-1.52,.67-2.3,.95-26.41,9.41-52.83,18.8-79.23,28.24-6.36,2.27-12.83,4.29-19.02,6.94Z"/>
  <path class="cls-3" d="M125.53,8.34c1.75,6.8,4.09,13.44,6.29,20.12,4.51,13.69,9.62,27.17,16.26,40.12,3.47,6.77,7.38,13.31,12.65,19.06,.86,.94,.73,1.44-.47,1.82-.16,.05-.32,.09-.48,.15-4.61,1.69-4.64,1.71-7.53-2.05-6.99-9.08-11.9-19.14-16.32-29.42-6.96-16.2-12.53-32.82-17.37-49.66,2.31-.47,4.64-.3,6.97-.14Z"/>
  <path class="cls-4" d="M95.16,177.22c.26,1.4,1.44,.78,2.18,.73,4.52-.32,9.02-.85,13.42-1.87,1.54-.36,2.6-.41,2.59,1.48-.01,1.53,1.2,2.68,1.8,4.07-2.71,1.32-5.72,1.3-8.53,2.01-.59,.03-1.18,.04-1.76,.09-7.4,.74-14.81,.85-22.24,.68-.84-.02-2.23,.22-2.21-.87,.02-1.05,1.27-.91,2.23-.82,1.09,.09,2.19,.07,3.29,.06,.31,0,.7-.04,.7-.48,0-.4-.32-.54-.64-.57-1-.11-2.02-.11-3.01-.28-.75-.13-2.13,.19-2.04-.8,.09-1.1,1.34-.47,2.09-.43,1.21,.06,2.42,.42,3.84,.04-.89-1.37-2.28-1.15-3.41-1.26-1.03-.1-1.77-.52-1.63-1.35,.2-1.16,1.25-.39,1.81-.27,2.23,.47,4.46,.77,6.75,.67,.17,0,.34,0,.51,0,.88,.15,1.76,.32,2.61-.12,.65,.02,.95-.21,.71-.84,.33,0,.66,0,.99,0,0,0-.03,.13-.03,.13Z"/>
  <path class="cls-10" d="M217.28,79.27c6.19-2.65,12.66-4.67,19.02-6.94,26.4-9.44,52.82-18.83,79.23-28.24,.78-.28,1.54-.63,2.3-.95,2.19,.87,.3,1.2-.3,1.42-2.89,1.09-5.82,2.07-8.73,3.11-30.37,10.79-60.74,21.59-91.11,32.39-.14-.26-.28-.52-.42-.78Z"/>
  <path class="cls-9" d="M208.68,74.65c-.89,.87-1.77,1.74-2.66,2.6-.61,.35-1.24,.62-1.67-.19-.39-.72-.13-1.3,.48-1.86,2.07-1.91,3.82-4.05,5-6.55,.11-.2,.22-.4,.34-.6,.3-.03,.43-.18,.38-.46,.4-.92,.81-1.84,1.21-2.76,.46-.21,.45-.58,.38-.98,.08-.12,.12-.25,.12-.39,.28-.1,.41-.27,.32-.55,.06-.3,.11-.59,.17-.89,.08-.17,.17-.35,.25-.52,.81-2.21,1.26-4.49,1.8-6.77,.35-1.47-.09-1.96-1.67-2-2.23-.05-2.34-.87-1.01-2.4,1.75-1.99,3.31-4.12,4.94-6.2,.95-1.22,1.58-1.26,2.04,.32,.77,2.62,1.55,5.24,2.45,7.83,.59,1.68-.18,2.08-1.66,1.56-1.97-.69-2.46,.11-2.75,1.7-.9,5-2.55,9.8-4.97,14.36-1.17,1.58-2.33,3.16-3.5,4.74Z"/>
  <path class="cls-10" d="M212.8,70.5c33.22-11.84,66.43-23.69,99.68-35.45,.65-.23,2.13-1.98,2.72,.28-9.16,2.83-18.08,6.25-27.05,9.54-.64,.19-1.29,.36-1.92,.58-20.94,7.44-41.88,14.89-62.82,22.35-3.3,1.18-6.59,2.4-9.91,3.54-.31,.11-.89,.74-1.16-.05-.07-.2,.29-.52,.46-.79Z"/>
  <path class="cls-4" d="M307.73,151.65c-1.68-.9-1.35,.6-1.55,1.2-.79,2.34-1.99,4.42-4.01,6.08-1.18,.97-1.99,1.48-2.39-.55-.27-1.36-.88-2.66-1.28-4.01-.77-2.58-1.07-5.05,.28-7.68,1.34-2.62,2.08-5.5,3.2-8.6,2.94,3.62,4.42,7.42,4.68,11.7,.04,.63-.96,2.09,1.07,1.88,0,0,0-.01,0-.01Z"/>
  <path class="cls-4" d="M291.02,177.44c4.79-.81,6.98-4.05,8.48-7.86,.43-1.09,.92-2.33,.74-3.41-.77-4.43,2.95-6.26,5.62-8.97,.3,1.02,.53,1.81,.77,2.61,.19,3.88-.34,7.63-2.32,11.13-.11,.5-1.28,.91-.15,1.52,0,0-.01,.02-.01,.02-.62-.75-.85-.18-1.1,.29-.17,.21-.33,.42-.5,.63-.53,.7-.8,1.28,.58,1.18-.26,.24-.51,.47-.77,.71,.16-.54-.04-1.03-.66-.76-.67,.29-1.83,.55-1.1,1.7,0,0-.01,0-.01,0-1.18-.63-1.49-.04-1.51,.93,0,0,.02,.06,.02,.06-.63-1.03-1.33-.12-1.86,.05-2.08,.65-4.16,1.2-6.39,.87,.06-.23,.12-.46,.18-.69Z"/>
  <path class="cls-11" d="M90.38,178.05c-2.29,.11-4.52-.2-6.75-.67-.56-.12-1.61-.9-1.81,.27-.14,.83,.6,1.25,1.63,1.35,1.14,.11,2.52-.11,3.41,1.26-1.42,.37-2.63,.01-3.84-.04-.75-.03-2-.67-2.09,.43-.08,.98,1.29,.67,2.04,.8,.99,.17,2.01,.17,3.01,.28,.33,.04,.64,.18,.64,.57,0,.45-.39,.48-.7,.48-1.1,0-2.2,.03-3.29-.06-.96-.08-2.21-.23-2.23,.82-.02,1.09,1.37,.85,2.21,.87,7.43,.17,14.85,.06,22.24-.68,.58-.06,1.17-.06,1.76-.09,.33,.3,.67,.6,1,.9-8.39,1.26-16.85,1.22-25.31,1-3.26-.08-2.87-.45-3-3.45-.08-1.86,1.62-3.12,.93-5.1-.47-1.34,1.36-1.31,2.38-1.06,3.55,.86,7.17,.99,10.79,1.19,.02,.26,.05,.53,.07,.79-.85,.44-1.73,.27-2.61,.12-.17-.33-.34-.31-.51,0Z"/>
  <path class="cls-4" d="M299.12,94.07c.34,1.5,2.5,2.06,2.45,4.17-5.18-3.27-10.6-3.27-16.15-1.98-.73,.17-1.15,.02-1.43-.55-.92-1.88-2.41-3.35-4.41-4.92,3.67-.69,6.99-.39,10.31-.19,2.03,.61,4.06,1.22,6.09,1.84,1.03,.54,2.06,1.08,3.09,1.62h.05Z"/>
  <path class="cls-8" d="M212.8,70.5c-.16,.27-.53,.59-.46,.79,.27,.79,.85,.15,1.16,.05,3.32-1.14,6.6-2.36,9.91-3.54,20.94-7.45,41.88-14.9,62.82-22.35,.63-.22,1.28-.39,1.92-.58,.12,.15,.24,.3,.36,.46-.26,.19-.5,.44-.8,.55-13.34,4.74-26.7,9.42-40.01,14.23-3.23,1.17-6.72,1.85-9.59,3.81,0,0,.02-.01,.02-.01-4.49,.94-8.76,2.38-12.69,4.62-.28,1.68-1.51,.2-2.18,.55-3.96,.89-7.62,2.53-11.43,3.79-.37,.12-.45,.41-.45,.73-.73,.73-1.57,1.22-2.71,1.07,1.17-1.58,2.33-3.16,3.5-4.74,.21,.19,.42,.39,.63,.58Z"/>
  <path class="cls-10" d="M158.37,96.57c.71,1.08,2.29,.95,3.09,1.9-.08,0-.17,0-.25-.01-1.12-.02-2.39-1.54-3.15-.42-.58,.85,1.19,1.44,1.88,2.16,1.23,1.3,1.41,2.3-.62,2.94-3.9,1.22-7.88,1.69-11.94,.8-4-.87-4.92-3.07-2.48-6.14,2.26-2.83,5.51-4.5,8.91-5.93,.02,.32,.03,.63,.05,.95-1.56,.96-3.37,1.55-4.74,2.79-1.28,.77-2.39,1.7-3.28,2.86-1.78,2.33-1.36,3.64,1.67,4.37,3.15,.76,6.34,.56,9.47-.22,.85-.21,2.11-.15,2.32-1.05,.18-.74-.93-1.21-1.51-1.74-2.07-1.88-2.03-2.21,.6-3.27Z"/>
  <path class="cls-11" d="M305.61,104.67c.02-.36,.03-.71,.05-1.07,1.65,.16,2.74,1.41,4.26,1.9,.37-4.1-1.74-7.1-6.32-9.12,0-.38,.02-.77,.02-1.15,4.83,1.49,7.59,4.8,7.74,9.5,.05,1.59,.48,2.96,1.22,4.42,1.76,3.45,2.07,7-.29,10.41-.39,0-.77-.02-1.16-.03,2.96-6.82,1.33-11.19-5.52-14.86Z"/>
  <path class="cls-8" d="M288.15,44.86c8.97-3.29,17.88-6.71,27.05-9.54,.59,.17,1.53,.24,.35,.95-6.09,1.44-11.83,3.73-17.53,6.1,0,.16-.02,.32-.03,.48-.77-.64-1.5-.27-2.27,.04-2.34,.96-4.71,1.84-7.2,2.41-.12-.15-.24-.3-.36-.46Z"/>
  <path class="cls-11" d="M191.25,110.43c-.11,.38-.22,.75-.33,1.13-3.78-4.01-7.57-8.01-11.34-12.04-.25-.27-.32-.67-.48-1.02,.56-.2,1.1-.16,1.62,.1,3.02,4.16,7.13,7.5,10.27,11.57-.1,.09-.2,.19-.31,.28,.14,0,.28,.02,.42,.03l.14-.06Z"/>
  <path class="cls-5" d="M185.36,115.37c2.7-.68,5.46-.47,8.2-.44,.59,0,1.6-.4,1.71,.37,.11,.76-.62,1.35-1.6,1.39-.25,0-.5,.02-.75,.03-1.53-.21-3.05-.21-4.57,.04-1.84-.15-3.67,.09-5.42,.53-1.88,.47-1.87-.29-1.43-1.53,0,0,.02,0,.02,0,1.23,1.14,2.21-.28,3.33-.27,.17-.04,.33-.07,.5-.11Z"/>
  <path class="cls-10" d="M311.22,136.39c-.09-.5,.17-1.11-.54-1.4,1.21-4.24,1.82-8.46-.61-12.56,.34-.18,.69-.37,1.03-.55,3.06,4.82,2.48,9.66,.12,14.51Z"/>
  <path class="cls-11" d="M304.3,170.93c1.99-3.49,2.51-7.25,2.32-11.13,.33,0,.66,0,.99,0,.64,3.99,.08,7.78-2.13,11.32-.39-.07-.79-.13-1.18-.2Z"/>
  <path class="cls-12" d="M298.01,42.38c5.71-2.37,11.45-4.66,17.53-6.1-.09,.31-.18,.62-.27,.93-4.74,1.02-9.09,3.02-13.61,4.58-1.19,.41-2.36,.77-3.65,.59Z"/>
  <path class="cls-10" d="M260.94,89.4c-.01-.32-.02-.65-.03-.97,3.39-.68,6.79-.78,10.19-.12,0,.31-.01,.63-.02,.94-3.38,.05-6.76,.1-10.14,.14Z"/>
  <path class="cls-9" d="M168.83,102.85c-.48,1.33-1.94,1.5-3.08,1.94-1.15,.45-1.35-.72-1.3-1.19,.21-1.61,2.03-1.53,3.17-2.08,.62-.3,.85,.72,1.2,1.33Z"/>
  <path class="cls-9" d="M175.56,99.58c-.91,.9-2,1.6-3.29,1.83-.96,.18-1.38-.97-1.21-1.36,.53-1.18,1.94-1.63,3.14-1.98,.78-.22,.99,.81,1.36,1.51Z"/>
  <path class="cls-9" d="M177.44,96.19c1.34-.9,2.68-1.82,4.04-2.7,.44-.28,.92-.78,1.4,.03,.34,.57,.74,1.13-.03,1.59-1.51,.91-2.72,2.3-4.66,2.52-.25-.48-.5-.96-.75-1.44Z"/>
  <path class="cls-10" d="M295.98,92.45c-2.03-.61-4.06-1.22-6.09-1.84,0-.33,0-.65,0-.98,2.55,.08,4.84,.89,6.99,2.11-.3,.24-.61,.47-.91,.71Z"/>
  <path class="cls-10" d="M185.32,188.3c.01-.33,.03-.66,.04-.99,1.84,0,3.68,.02,5.52,.03,0,.32,0,.64,.01,.96-1.86,.41-3.71,.38-5.57,0Z"/>
  <path class="cls-11" d="M231.06,86.79c-.43,.19-.85,.38-1.28,.58-1.37-.29-2.73-.57-4.1-.86,.62-.18,1.37-.04,1.8-.66,1.28,.02,2.48,.31,3.57,.94Z"/>
  <path class="cls-10" d="M136.08,118.2c-.29-.27-.58-.54-.87-.81,1.05-.52,2.17-.72,3.35-.69,.15,.28,.3,.55,.46,.83-.87,.62-1.9,.65-2.94,.67Z"/>
  <path class="cls-11" d="M123.37,120.9c0,.29,.01,.58,.02,.87-1.18,.08-2.35,.16-3.53,.24-.28-.24-.56-.48-.85-.72,1.38-.79,2.93,.05,4.35-.38Z"/>
  <path class="cls-10" d="M255.89,185.53c0,.31,0,.61,0,.92-1.06,.14-2.09,.1-3.02-.46,.55-.06,.99-.23,.98-.84,.73-.09,1.42,0,2.05,.38Z"/>
  <path class="cls-9" d="M295.98,92.45c.3-.24,.61-.47,.91-.71,.76,.75,3.02,.31,2.18,2.33-1.03-.54-2.06-1.08-3.09-1.62Z"/>
  <path class="cls-9" d="M119.01,121.28c.28,.24,.56,.48,.85,.72-.75,.39-1.49,.79-2.24,1.18-.29-.2-.57-.4-.86-.6,.6-.65,1.32-1.14,2.25-1.3Z"/>
  <path class="cls-10" d="M270.1,185.54c.64-.62,1.31-.68,2.01-.07-.67,.02-1.34,.05-2.01,.07Z"/>
  <path class="cls-10" d="M278.76,185.79c1.09-.32,2.18-.66,3.36-.53-1.04,.61-2.19,.63-3.36,.53Z"/>
  <path class="cls-9" d="M300.59,176.21c-.72-1.15,.43-1.41,1.1-1.7,.62-.27,.82,.22,.66,.76-.6,.29-.67,1.43-1.76,.94Z"/>
  <path class="cls-11" d="M239.15,85.92c.33,.26,.67,.53,1,.79-.47,.06-.95,.11-1.42,.17-.37-.56-.96-.54-1.55-.47l-.16-.16c.67-.32,1.38-.45,2.14-.33Z"/>
  <path class="cls-9" d="M303.12,174.56c-1.38,.11-1.11-.48-.58-1.18,.17-.21,.33-.42,.5-.63,.25-.47,.48-1.03,1.1-.29,.61,1.09-.91,1.3-1.01,2.09Z"/>
  <path class="cls-6" d="M228.49,185.95c.63-.21,1.09,.05,1.52,.44-.84,.82-1.29,.53-1.52-.44Z"/>
  <path class="cls-10" d="M286.83,89.25c-.5,.47-1,.47-1.48-.03,.5-.19,.99-.22,1.48,.03Z"/>
  <path class="cls-11" d="M236.13,87.54c-.23-.26-.45-.53-.68-.79l1.57-.49s.16,.16,.16,.16c-.02,.28-.05,.57-.07,.86-.32,.09-.65,.18-.97,.27Z"/>
  <path class="cls-11" d="M109.67,184.14c.74-.79,1.71-.4,2.6-.45-.81,.43-1.7,.48-2.6,.45Z"/>
  <path class="cls-9" d="M299.06,177.15c.02-.97,.33-1.56,1.51-.93-.06,.93-.55,1.25-1.51,.93Z"/>
  <path class="cls-10" d="M302.87,95.02c-.72,.3-1.29,.07-1.77-.45,.61,.07,1.29-.06,1.77,.45Z"/>
  <path class="cls-10" d="M258.94,88.65c-.33,.49-.68,.51-1.03,.02,.34,0,.69-.02,1.03-.02Z"/>
  <path class="cls-10" d="M275.57,89.19c-.69,.01-1.42,.15-1.92-.49,.64,.16,1.28,.32,1.92,.49Z"/>
  <path class="cls-7" d="M212.14,63.85c.07,.39,.08,.76-.38,.98-.73-.61-.22-.81,.38-.98Z"/>
  <path class="cls-5" d="M174.46,114.27c-.52,.15-.98,.11-1.33-.33,.52-.16,.98-.11,1.33,.33Z"/>
  <path class="cls-10" d="M180.25,115.77c-.34,.59-.69,.55-1.06,.03,.35,0,.71-.02,1.06-.03Z"/>
  <path class="cls-6" d="M230.98,186.59c.44-.09,.78,.06,1.04,.38-.66,.62-.89,.2-1.04-.38Z"/>
  <path class="cls-9" d="M304.3,170.93c.39,.07,.79,.13,1.18,.2-.37,.51-.22,1.46-1.34,1.32-1.13-.61,.05-1.02,.15-1.52Z"/>
  <path class="cls-10" d="M168.05,113.96c-.34,.43-.8,.46-1.3,.32,.36-.37,.78-.51,1.3-.32Z"/>
  <path class="cls-10" d="M248.78,185.92c.48-.49,1.07-.43,1.68-.3-.51,.32-1.08,.38-1.68,.3Z"/>
  <path class="cls-10" d="M251.09,185.64c.64-.1,1.28-.22,1.76,.36-.63,.07-1.22-.02-1.76-.36Z"/>
  <path class="cls-11" d="M220.92,84.91c-.58,.06-1.16,.17-1.61-.32,.54,.11,1.07,.21,1.61,.32Z"/>
  <path class="cls-10" d="M194.45,187.88c.46-.59,1.11-.48,1.74-.38-.52,.36-1.12,.43-1.74,.38Z"/>
  <path class="cls-10" d="M180.77,187.41c.55-.03,1.1-.1,1.5,.38-.56,.09-1.06-.04-1.5-.38Z"/>
  <path class="cls-10" d="M273.23,88.64c-.34-.04-.68-.07-1.02-.11,.34,.04,.68,.07,1.02,.11Z"/>
  <path class="cls-10" d="M284.82,184.59c.29-.39,.69-.47,1.16-.38-.31,.33-.69,.47-1.16,.38Z"/>
  <path class="cls-10" d="M268.08,185.87c.37-.38,.82-.34,1.29-.2-.39,.28-.83,.31-1.29,.2Z"/>
  <path class="cls-11" d="M110.63,142.37c0,.41,0,.83-.01,1.24-.26-.42-.27-.83,.01-1.24Z"/>
  <path class="cls-11" d="M235.07,86.81c-.23,.38-.6,.49-1.04,.46,.35-.15,.69-.3,1.04-.46Z"/>
  <path class="cls-10" d="M254.99,87.69c-.21-.1-.42-.19-.62-.29,.21,.1,.42,.19,.62,.29Z"/>
  <path class="cls-10" d="M256.37,88.22c-.16-.08-.32-.16-.47-.24,.16,.08,.32,.16,.47,.24Z"/>
  <path class="cls-10" d="M152.75,90.11c.17,.19,.34,.39,.51,.58-.17-.19-.34-.39-.51-.58Z"/>
  <path class="cls-11" d="M227.49,85.85c-.16-.05-.32-.09-.48-.14,.16,.05,.32,.09,.48,.14Z"/>
  <path class="cls-10" d="M185.82,114.13c-.19,.09-.37,.18-.56,.27,.19-.09,.37-.18,.56-.27Z"/>
  <path class="cls-10" d="M139.15,116.49c.01,.33,.03,.66,.04,.99-.15-.21-.21-.18-.17,.06-.15-.28-.3-.55-.46-.83l.59-.21Z"/>
  <path class="cls-10" d="M133.51,117.93c-.21,.06-.41,.12-.62,.18,.21-.06,.41-.12,.62-.18Z"/>
  <path class="cls-10" d="M311.73,120.5c.1-.15,.21-.31,.31-.46-.1,.15-.21,.31-.31,.46Z"/>
  <path class="cls-7" d="M210.55,67.59c.05,.28-.08,.43-.38,.46,.13-.15,.26-.31,.38-.46Z"/>
  <path class="cls-9" d="M116.21,123.21c-.02-.36,.25-.5,.55-.63,.29,.2,.57,.4,.86,.6-.17,.15-.34,.29-.51,.44-.3-.14-.6-.27-.9-.41Z"/>
  <path class="cls-9" d="M116.17,123.26s.04-.04,.04-.04c.3,.14,.6,.27,.9,.41-.18,.13-.36,.27-.54,.4-.13-.26-.27-.51-.4-.77Z"/>
  <path class="cls-11" d="M112.71,127.97c-.07,.15-.15,.3-.22,.45,.07-.15,.15-.3,.22-.45Z"/>
  <path class="cls-11" d="M111.63,131.51c0,.32,0,.63,0,.95-.24-.31-.21-.63,0-.95Z"/>
  <path class="cls-11" d="M111.64,132.88c0,.32,0,.65,0,.98-.23-.32-.25-.65,0-.98Z"/>
  <path class="cls-10" d="M193.48,188.04c.2-.03,.39-.06,.59-.09-.2,.03-.39,.06-.59,.09Z"/>
  <path class="cls-10" d="M183.09,187.97c.23,.06,.46,.12,.69,.18-.23-.06-.46-.12-.69-.18Z"/>
  <path class="cls-7" d="M212.58,62.92c.09,.28-.04,.45-.32,.55,.11-.18,.21-.36,.32-.55Z"/>
  <path class="cls-10" d="M260.71,186.58c.31,0,.62-.02,.93-.02-.3,.19-.61,.22-.93,.02Z"/>
  <path class="cls-6" d="M244.72,186.95c.11-.21,.26-.3,.5-.15-.17,.05-.33,.1-.5,.15Z"/>
  <path class="cls-10" d="M283.81,184.95c.21-.09,.43-.19,.64-.28-.21,.09-.43,.19-.64,.28Z"/>
  <path class="cls-11" d="M114.77,183.02c.2-.08,.41-.15,.61-.23-.2,.08-.41,.15-.61,.23Z"/>
  <path class="cls-9" d="M93.49,177.93c-.02-.26-.05-.53-.07-.79,.26-.02,.52-.03,.78-.05,.25,.62-.06,.85-.71,.84Z"/>
  <path class="cls-11" d="M95.16,177.22s.03-.13,.03-.13c.26-.09,.52-.18,.78-.27-.17,.3-.44,.44-.81,.4Z"/>
  <path class="cls-11" d="M111.7,138.21c-.05,.16-.1,.32-.15,.47,.05-.16,.1-.32,.15-.47Z"/>
  <path class="cls-7" d="M213,61.51c-.08,.17-.17,.35-.25,.52-.1-.25-.03-.42,.25-.52Z"/>
  <path class="cls-11" d="M306.81,156c-.03-.19-.06-.38-.09-.57,.05,.12,.12,.25,.15,.37,.01,.06-.04,.13-.06,.19Z"/>
  <path class="cls-3" d="M187.02,74.2c1.18,.13,2.45,.43,3.56,1.25,2.32,1.7,2.3,2.11-.45,3.15-1.63,.62-2.31,1.7-2.35,3.25-.05,2.01,.7,3.83,1.61,5.59,4.34,8.31,10.26,15.69,16.02,23.17,2.29,2.98,4.6,5.95,6.49,9.17,.97,1.65,1.75,3.37,1.49,5.33-.13,.96-.76,1.65-1.68,1.86-1.06,.24-1.09-.8-1.29-1.38-.51-1.48-1.62-2.54-2.7-3.62-9.57-9.62-17.65-20.22-24.38-31.68-2.03-3.46-3.12-7.22-2.45-11.23,.45-2.73,3.04-4.81,6.12-4.86Z"/>
  <path class="cls-4" d="M139.02,117.53c-.04-.23,.02-.26,.17-.06,4.37-.21,8.73-.41,12.92,1.17,2.6,.98,5.03,2.15,6.87,4.2,.84,.94,1.33,1.99,1.3,3.2-.03,1.29-.92,2.13-1.98,2.83-1.16,.76-1.62-.4-2.31-.8-4.99-2.9-10.37-3.49-16.02-2.31-1.71,.36-3.35,1.01-5.02,1.53-.61,.19-1.49,.29-.7,1.19,0,0,.08-.02,.08-.02,.17-1.12-.6-.79-1.21-.65-.61,.15-1.44,.11-1.51,.9-.04,.42,.44,.54,.89,.47-.15-.04-.26,0-.34,.08-.38-1.45-1.38-.74-2.14-.46-2.34,.85-4.64,1.77-6.98,2.67-.71-4.93,1.34-8.67,6-10.69,2.28-.99,4.69-1.72,7.04-2.57,1.03-.02,2.06-.05,2.94-.67Z"/>
  <path class="cls-4" d="M194.03,155.88c0-.47,0-.93-.02-1.4-.19-4.31-.12-4.37,4.34-4.29,.69,.01,1.09,.38,1.48,.77,5.83,5.73,10.21,12.12,11.28,20.15,.43,3.23-2.55,2.67-4.16,3.62-1.81,1.07-1.8-.75-2.37-1.46-1.82-2.24-3.47-4.61-5.35-6.8-2.56-2.99-4.37-6.27-5.14-10.02,.03-.07,.09-.14,.07-.19-.03-.13-.1-.26-.15-.39Z"/>
  <path class="cls-4" d="M265.06,124.03c.09,1.83-.15,3.58-1.44,5.07-.56,.64-1.26,.98-2.21,.83-.95-.15-1.12-.75-1.29-1.48-.67-2.8-2.58-5.03-4.25-7.34-3.29-4.55-5.57-9.39-5.51-14.97,.04-3.2,.09-3.24,3.24-2.18,.63,.21,1.29,.56,1.92,.54,3.37-.12,4.87,1.65,5.7,4.38,1.51,5,3.53,9.89,3.85,15.15Z"/>
  <path class="cls-4" d="M114.78,151.27c-.35-1.61,.91-1.7,2.37-1.02,1.84,.86,4.05,.24,5.79,1.9,5.25,5.01,11.32,9.43,12.54,16.96,.14,.84,.33,1.68,.58,2.5,.46,1.56-.79,1.89-1.86,2.53-1.32,.8-1.78-.08-2.44-.73-3.95-3.92-8-7.78-11.82-11.81-2.67-2.81-5.02-5.88-5.14-10.32Z"/>
  <path class="cls-4" d="M166.35,150.78c1.93,1.73,3.73,2.38,5.88,1.78,.85-.23,1.45,.2,2.01,.7,5.24,4.68,9.53,9.85,10.81,16.72,.31,1.68,.02,2.35-1.86,3.06-2.51,.95-4.22,1.07-5.47-1.41-.17-.34-.53-.6-.86-.85-5.07-3.92-7.43-9.49-10.43-14.66-.83-1.43-.37-3.16-.1-5.34Z"/>
  <path class="cls-3" d="M207.23,69.14c-.06,1.44-.54,2.71-1.76,3.67-2.7,.23-3.87,1.7-3.15,4.04,.34,1.11,.73,2.23,1.7,3.06,2.33,3.16,5.66,5.56,7.93,8.77,.87,1.23,2.66,2.89,1.95,3.76-.92,1.13-3.05,.09-4.65-.31-4.45-1.1-7.71-3.7-10.49-6.94-.56-.66-.86-1.55-1.85-1.86-.13-.29-.27-.57-.4-.86-.47-1.7-1.02-3.39-1.38-5.11-.67-3.16,1.01-6.82,3.74-8.35,2.81-1.57,5.61-2.02,8.37,.12Z"/>
  <path class="cls-4" d="M234.72,171.02c-.08,1.89-2.29,1.57-3.4,2.46-.95,.76-1.68,.23-2.36-.46-5.83-5.92-9.98-12.68-12.14-20.45-.19-.68-.48-1.34,.42-1.84,.8-.44,1.39-.23,2.04,.28,.84,.67,1.93,1.39,2.95,1.13,2.74-.69,3.79,1.07,5.01,2.6,3.85,4.83,6.56,10.11,7.47,16.27Z"/>
  <path class="cls-4" d="M141.62,152.78c.9-.48,1.79-.89,2.76-.06,.29,.25,.75,.47,1.13,.46,6.45-.16,9.03,4.7,12.34,8.36,1.95,2.17,3.19,4.92,3.68,7.85,.21,1.25-.09,1.75-1.42,2.44-2.76,1.45-4.45,.98-6.5-1.17-2.09-2.19-4.04-4.6-6.78-6.22,0,0-.07,.01-.07,.01,.04-.17,.08-.34,.13-.51-2.44-3.45-4.82-6.92-5.26-11.17Z"/>
  <path class="cls-4" d="M151.68,116.88c10.11-1.72,19.84-1.42,28.43,4.62,1.71,1.2,2.94,2.79,3.49,4.75,.43,1.53-.09,2.85-1.4,3.74-1.35,.92-1.81-.66-2.66-1.1-5.16-2.69-10.48-5-16.37-5.92-1.56-.24-2.81-.66-3.96-1.78-2.06-2-4.78-3.12-7.53-4.31Z"/>
  <path class="cls-4" d="M242.75,153.55c-.05-.54-.11-1.08-.15-1.62-.05-.76,.64-1.05,1.16-1.41,.77-.53,.99,.17,1.34,.56,.82,.92,2.03,1.5,3.14,1.15,2.12-.67,3.16,.42,4.2,1.69,3.73,4.61,6.63,9.53,7.06,15.46,.17,2.33-1.97,2.54-3.31,3.27-1.15,.63-1.52-.85-2.05-1.55-2.5-3.22-4.88-6.53-7.78-9.47-1.25-2.14-2.37-4.33-3.21-6.63-.12-.18-.25-.35-.37-.53,.28-.31,.15-.62,0-.92Z"/>
  <path class="cls-3" d="M222.9,118.25c0,2.04,.05,4.09-1.49,5.78-.81,.89-1.88,1.38-3.13,1.19-1.33-.2-.91-1.35-1.07-2.1-1-4.75-3.89-8.74-6-13.05-1.04-2.12-2.46-4.1-2.86-6.45-.21-1.2-.5-2.49,1.8-1.61,1.21,.46,2.71,.7,3.98,.51,2.67-.4,3.77,.93,4.77,2.82,2.15,4.1,3.85,8.3,4.01,12.91Z"/>
  <path class="cls-4" d="M242.08,119.71c.1,2.41,.12,4.36-.67,6.21-.49,1.14-1.23,1.98-2.78,1.97-1.64,0-1.7-1.05-2.09-2.12-2-5.51-4.28-10.93-5.88-16.57-.13-.45-.31-.9-.34-1.36-.1-1.64-1.18-3.53,.16-4.79,.49-.47,2.61,.76,3.99,.78,1.79,.02,2.09,1.23,2.87,2.2,3.41,4.21,5.16,8.86,4.74,13.69Z"/>
  <path class="cls-4" d="M192.93,117.74c3.3,.53,6.68,.73,9.7,2.3,2.54,1.32,4.77,2.89,6.18,5.33,.54,.93,.73,1.88,.73,2.91,0,1.06-.9,1.44-1.69,1.83-.92,.45-.88-.47-1.26-.84-2-1.92-4.36-3.44-7.27-3.7-4.35-.38-8.69-1.19-13.1-.67-.96,.12-1.63-.09-2.08-.91-.96-1.77-2.57-3.04-4.27-4.47,2.72-1.51,5.75-1.15,8.53-1.75,1.51,0,3.02-.02,4.53-.03Z"/>
  <path class="cls-4" d="M272.79,104.93c2.8,1.32,5.25,2.11,7.9,2.06,1.1-.02,1.42,.59,1.77,1.33,2.24,4.79,4.09,9.69,4.77,14.91,.42,3.23-.45,4.82-2.74,5.43-.65,.17-1.26,.38-1.44-.27-1.2-4.48-5.58-7.31-6.97-11.76-1.16-3.71-2.47-7.36-3.3-11.69Z"/>
  <path class="cls-4" d="M302.01,102.73c-5.28-.31-10.02,1.26-14.83,2.38-5.45,1.27-10.5,.55-15.33-2-.29-.15-.61-.17-.63-.56-.02-.51,.38-.57,.78-.72,5.94-2.26,11.91-4.42,18.37-5.07,2.4-.24,4.7,.17,6.98,.83,2.57,.74,4.13,2.29,4.66,5.14Z"/>
  <path class="cls-3" d="M214.51,101.26c-5.93-.07-9.36-2.89-9.34-7.44,0-.75-.14-1.8,1.3-1.17,5.8,2.56,11.74,1.36,17.65,.59,3.16-.41,6.22-.34,9.21,.72,.53,.19,1.29,.37,1.24,.98-.03,.34-.62,.71-1.04,.94-5.97,3.26-12.41,5.07-19.02,5.38Z"/>
  <path class="cls-4" d="M281.87,168.08c-.43,1.63-2.7,1.62-4.06,2.6-1.07,.77-1.44-.39-1.9-.92-3.84-4.38-7.6-8.81-8.41-14.66-.1-.73-.76-1.94,.12-2.12,1.48-.3,2.7-1.74,4.43-.96,.45,.2,.98,.62,1.37,.53,3.5-.8,3.87,1.78,4.91,3.72,1.93,3.6,3.04,7.4,3.54,11.81Z"/>
  <path class="cls-4" d="M183.32,181.1c-.61-.12-1.21-.23-1.82-.35-.6-.26-1.19-.52-1.79-.78-1.07-.93-3.15-1.43-2.92-2.89,.16-1,2.17-1.19,3.38-1.65,6.79-2.58,13.68-4.39,21.17-2.63,1.74,.41,2.51,1.46,2.83,2.61,.28,1.03-1.32,1.22-2.15,1.58-4.51,1.97-9.17,3.56-14.14,4.26-1.19,.02-2.38,.04-3.57,.06l.03,.02c-.33-.08-.67-.16-1-.24Z"/>
  <path class="cls-4" d="M299.16,163.43c-.2,4.07-1.06,7.51-3.74,10.35-1.39,1.47-3.07,2.43-5.28,2.34-.98-.04-1.76-.15-.94-1.35,1.97-2.89,2.06-6.2,2.19-9.45,.15-3.89-.05-7.79,.21-11.67,.08-1.18-.37-2.92,2.09-3.33,2.27-.38,2.76,.19,3.01,2.15,.42,3.3,2.35,6.33,2.35,9.75,0,.54,.11,1.08,.13,1.21Z"/>
  <path class="cls-4" d="M228.46,99.93c6.53-3.81,13.24-6.51,20.95-6.42,2.49,.03,4.84,.52,7.04,1.67,1.17,.61,1.35,1.17,.11,1.77-6.6,3.17-13.19,6.33-21.01,5.72-2.68-.21-5.05-.92-7.08-2.74Z"/>
  <path class="cls-4" d="M135.6,129.96c.84-1.6,2.41-2.39,4.12-2.79,5.62-1.31,11.01-1,15.85,2.31,1.26,.86,2.08,1.99,2.33,3.47,.39,2.28-.94,3.34-3.36,2.52-5.29-1.81-10.6-1.2-15.89-.14-1.81,.37-3.42,.7-3.63-1.69-.05-.16-.1-.32-.15-.48-.03-.62-.06-1.25-.09-1.87,.9-.12,.8-.76,.81-1.34Z"/>
  <path class="cls-4" d="M184.29,133.26c.14-3.13,1.48-5.02,4.67-5.96,4.47-1.3,8.98-1.28,13.32,.52,2.96,1.23,4.46,3.43,4.5,6.45,.02,1.35-.41,1.84-1.95,1.37-5.98-1.82-12-1.86-18.02-.13-1.79,.52-2.62-.22-2.53-2.27Z"/>
  <path class="cls-4" d="M246.46,171.1c1.52,0,3.04,0,4.56,0,1.64,.01,2.47,1.18,2.9,2.29,.4,1.03-1.06,1.14-1.76,1.56-4.59,2.77-9.62,4.47-15.06,5.13-3.35,.41-6.58-.03-9.6-1.46-.6-.28-1.93-.74-.37-1.54,6.05-3.1,11.97-6.56,19.33-5.98Z"/>
  <path class="cls-4" d="M210.3,132.87c.24-2.43,1.84-4.34,4.63-5.22,5.69-1.79,11.17-1.17,16.25,1.79,1.81,1.05,3.14,2.56,3.6,4.61,.38,1.73-.38,2.58-2.04,1.77-4.19-2.04-8.66-1.71-13.11-1.8-1.7-.03-3.27,.13-4.85,.94-2.34,1.2-4.64,.19-4.48-2.09Z"/>
  <path class="cls-4" d="M276.22,94.94c1.35,.6,2.83,1.03,3.85,2.42-1.96,1.25-4.29,1.61-6.38,2.45-3.61,1.46-7.1,3.2-11.11,3.69-4.14,.5-8-.03-11.89-2.29,4.76-2.57,9.4-4.63,14.34-6.12,.19-.09,.38-.17,.58-.26,0,0,0,.02,0,.02,3.54-.44,7.09-.73,10.62,.09Z"/>
  <path class="cls-4" d="M150.05,172.37c1.26,.25,4.01-1.02,4.58,1.22,.47,1.88-2.37,2.2-3.81,3.07-3.92,2.33-8.1,4.22-12.66,5.23-3.16,.7-6.37,.98-9.27-.89-1.09-.7-1.74-1.08-.04-2.24,6.18-4.23,12.95-6.57,21.21-6.39Z"/>
  <path class="cls-4" d="M266.07,128.16c1.07-5.53-1.09-10.43-2.03-15.51-.53-2.83,2.03-5.62,2.62-8.6,.07-.35,1.96-1.41,3,.34,3.86,6.46,4.44,13.03,1.71,19.99-.94,2.41-3.08,2.77-5.3,3.78Z"/>
  <path class="cls-4" d="M155.51,154.06c.24-.83-.61-2.3,.42-2.48,1.43-.25,3.21-.96,4.56,.29,4.77,4.42,8.68,9.27,9.3,15.8,.19,2-.05,2.93-2.79,3.09-2.85,.17-3.91-.08-4.5-2.94-.7-3.4-2.55-6.62-5.23-9.19-1.4-1.35-2.21-2.69-1.75-4.57Z"/>
  <path class="cls-4" d="M192.38,165.98c.01,.31,0,.62,.03,.93,.32,3.9-.5,4.71-4.73,4.88-1.21,.05-1.16-.71-1.23-1.35-.51-4.64-2.76-8.59-5.65-12.3-1.23-1.58-1.66-5.98-.65-6.66,2.25-1.51,4.59-.88,6.93,1.88,2.38,3.99,4.23,8.16,5.3,12.62Z"/>
  <path class="cls-4" d="M210.56,182.32c-2.67,.15-5.16-.99-7.26-2.99-.75-.71-.81-1.14,.33-1.69,6.74-3.28,13.83-5.23,21.52-5.09,.8,.01,1.49,.15,2.11,.62,1.21,.9,1.64,1.65-.15,2.48-3.46,1.61-6.48,3.92-10.02,5.42-1.95,.82-3.98,1.26-6.53,1.25Z"/>
  <path class="cls-4" d="M241.39,158.58c.49,3.03,1.67,5.94,1.02,9.15-.35,1.71-1.16,2.26-2.76,2.63-3.44,.81-3.38,.86-4.07-2.31-.52-2.37-1.29-4.69-2.59-6.79-.89-1.45-1.18-2.84-.61-4.43,.4-1.12,.29-2.3,.21-3.47-.13-1.9,1.4-2.78,3.31-2.03,1.45,.57,2.6,1.44,3.65,2.48,0,0,.05-.05,.05-.05-.12,1.23,0,2.34,1.52,2.81h-.01c-.89,.78-.12,1.35,.31,1.97l-.04,.04Z"/>
  <path class="cls-4" d="M305.61,104.67c6.85,3.68,8.48,8.04,5.52,14.86-.48,.32-.92,.73-1.44,0-3.07-4.21-7.94-6.62-11.82-10.01-1.17-1.02-2.18-2.14-3.16-3.29-.79-.93-1.11-1.59,.69-1.72,1.92-.14,3.82-.45,5.72-.69,0,0,.21,.1,.21,.1l.22-.07c.67,.09,1.34,.19,2.01,.28,.17,.04,.33,.08,.5,.12,.52,.13,1.04,.27,1.57,.4Z"/>
  <path class="cls-4" d="M246.75,127.67c4.95,.24,9.11,1.25,12.41,4.31,.36,.33,.76,.65,.99,1.05,.58,1,1.82,2.16,1.01,3.15-.86,1.05-2.22,.23-3.42-.23-1.13-.43-2.47-.51-3.72-.55-3.88-.12-7.77,.06-11.64-.3-.98-.09-2.01,.16-3.01,.27-.74,.08-1.35,1.1-2.03,.59-.8-.59-.03-1.45,.16-2.16,1.11-4.14,4.33-6.15,9.25-6.13Z"/>
  <path class="cls-4" d="M169.24,171.95c1.61,.11,3.87,.34,6.14,.4,1.45,.04,2.3,.89,2.62,1.85,.4,1.2-1.15,1.12-1.85,1.39-5.28,1.99-10.37,4.51-16.22,4.91-2.74,.19-5.37-.11-7.81-1.38-.64-.34-1.51-.52-.45-1.43,4.36-3.73,10.42-5.83,17.56-5.74Z"/>
  <path class="cls-3" d="M194.41,87.75c3.76-1.03,4.52,1.45,5.73,3.85,4.4,8.73,9.02,17.37,13.5,26.07,.83,1.6,1.43,3.31,2.07,4.99,.33,.86,.33,1.74-.32,2.89-2.19-9.6-9.65-15.96-14.88-23.51-2.95-4.25-5.94-8.47-8.73-12.81,.7-.18,1.4-.35,2.1-.53,.23-.3,1.14-.28,.56-.98l-.02,.02Z"/>
  <path class="cls-4" d="M218.54,167.4c-.06,.53-.14,1.3-.25,2.08-.25,1.78-3.32,3.63-5.13,3.11-.77-.22-.67-.83-.71-1.33-.3-4.71-2.23-8.89-4.75-12.9-1.23-1.95,.03-5.83,1.93-6.97,.98-.59,1.45-.4,2.08,.31,4.05,4.49,6.61,9.54,6.82,15.71Z"/>
  <path class="cls-4" d="M290.94,141.34c1.42-4.02,2.85-8.04,4.4-12.42,1.67,1.6,3.22,2.75,5.41,2.47,.86-.11,.96,.35,.87,1-.74,5.35-2.38,10.45-4.92,15.29-.66,1.26-2.03,1.47-3.49,1.38-2-.12-2.7-1.34-3.12-2.87,.13-.13,.13-.25,0-.37,.02-.34,.05-.68,.07-1.02,.13-.13,.15-.27,.05-.42,.25-1.03,.5-2.07,.75-3.1,0,0-.01,.06-.01,.06Z"/>
  <path class="cls-4" d="M169.74,127.28c3.34,.08,6.69,.9,9.55,3.08,1.13,.86,1.95,1.92,2.4,3.21,.23,.65,.61,1.4,0,1.98-.65,.61-1.59,.54-2.38,.25-4.48-1.64-9.08-1.39-13.7-.84-.83,.1-1.72,.19-2.44,.54-1.33,.65-2.77,.36-3.45-.43-.8-.92-.62-2.37,.19-3.49,2.27-3.14,5.62-4.27,9.84-4.3Z"/>
  <path class="cls-4" d="M271.27,169.23c.89,0,1.32-.03,1.74,0,1.31,.11,1.81,1.16,2.26,2,.57,1.07-.81,1.2-1.4,1.55-5.27,3.07-10.51,6.21-16.86,7.15-2.36,.35-4.53-.03-6.59-1.07-.84-.42-1.15-.98-.06-1.48,4.89-2.24,9.06-5.69,14.42-7.15,2.29-.62,4.63-.75,6.49-1.01Z"/>
  <path class="cls-4" d="M175.41,184.93c-7.75,3-21.17,3.21-27.36-3.14-.48-.49-1.76-.96-.7-1.8,.67-.53,1.52-1.3,2.69-.57,5.9,3.69,12.07,2.63,18.12,.53,2.29-.8,3.5-.77,4.49,1.45,.56,1.25,1.74,2.26,2.76,3.53Z"/>
  <path class="cls-4" d="M272.98,179.89c-.11,0-.44-.03-.78-.06-1.68-.18-3.92-.2-4.4-1.65-.34-1.01,1.98-1.52,3.14-2.18,4.58-2.59,9.04-5.42,14.19-7.02,1.39-.43,3.41-1.51,4.19-.69,1.01,1.06,.03,2.9-.49,4.35-.61,1.7-1.78,3.03-3.4,3.91-3.76,2.03-7.83,3.2-12.44,3.35Z"/>
  <path class="cls-4" d="M190.88,187.34c-1.84,0-3.68-.02-5.52-.03-4.85-.74-9.08-2.45-11.63-6.58-.46-.74-1.68-1.63-.39-2.61,1.36-1.04,2.06,.06,2.89,.83,1.13,1.04,2.28,2.08,3.93,2.43,.37,.13,.73,.27,1.1,.4,1.08,.18,2.3,1.25,3.1-.4,0,0-.03-.03-.03-.03,0,0-.03-.02-.03-.02-.94,.55-.56,.95,.23,1.11,1.28,.27,2.58,.24,3.84-.19,.69-.09,1.38-.18,2.07-.27,.22-.03,.43-.06,.65-.09,.25-.03,.54,.02,.73-.09,4.32-2.28,7.16-.39,9.57,2.95-1.97,1.11-4.33,1.31-6.47,2.05-.17,.04-.34,.09-.51,.13-1.18,.14-2.35,.27-3.53,.41Z"/>
  <path class="cls-4" d="M310.07,122.44c2.42,4.09,1.81,8.31,.61,12.56-.91,1.75-1.89,3.45-3.26,4.96-1.04,1.15-1.46,1.32-2.66-.13-3.1-3.74-1.97-7.5-.8-11.39,.97-3.2,1.84-6.43,2.8-9.82,1.77,.95,2.25,2.61,3.3,3.82Z"/>
  <path class="cls-4" d="M138.65,151.77c-1.78-1.3-2.45-3.05-2.52-5.09-.08-2.35,.14-4.65,.69-6.95,.7-2.97,5.14-5.1,8.12-3.84,.94,.4,.96,1.33,.98,2.01,.12,3.98-.36,7.88-2.29,11.52-.62,1.16-1.76,1.86-2.98,2.43-.66-.03-1.33-.06-1.99-.09Z"/>
  <path class="cls-4" d="M278.54,136.23c3.1-.57,5.29,1.04,6.78,3.98,1.14,2.24,2.53,4.36,2.96,6.86,.2,1.19,.49,2.44-.71,3.2-1.16,.73-2.58,.63-3.86,.05-3.67-1.65-5.94-4.46-7.47-7.84-.39-.85-.59-1.77-.91-2.66q-1.29-3.6,3.22-3.59Z"/>
  <path class="cls-4" d="M249.42,113.86c.34,4.45-1.84,8.14-4.02,11.85-.49,.83-1.27,1.24-2.04,1.02-1.1-.31-.26-1.14-.18-1.75,.65-5.15,.66-10.25-1.73-15.1-.39-.79-.56-1.38,.04-2.12,.71-.88,1.25-1.89,1.38-2.98,.22-1.88,1.94-1.75,3.23-2.01,1.37-.28,1.26,.99,1.54,1.72,1.2,3.02,1.63,6.18,1.79,9.36Z"/>
  <path class="cls-4" d="M203.1,136.4c1.02,.07,1.96,.59,2.23,1.35,1.19,3.37,3.77,6.21,4.37,9.8,.39,2.36-1.1,3.84-3.68,3.5-1.76-.23-3.09-1.13-4.11-2.48-2.55-3.35-4.1-7.07-5.31-10.98-.61-1.97,.11-2.21,1.87-1.81,.45,.77,.98,.76,1.57,.14,.84,.07,1.69,.14,2.53,.21,.18,.09,.35,.18,.53,.27Z"/>
  <path class="cls-4" d="M275.12,127.65c3.1,.41,5.63,1.89,7.93,3.71,1.35,1.07,1.28,2.78,1.8,4.19,.23,.62-.46,.67-1.19,.44-5.95-1.93-11.95-1.01-17.94-.18-.63,.09-1.25,.81-1.87,.27-.63-.56-.22-1.31-.04-1.98,1.17-4.52,4.26-6.4,10.75-6.54,.19,.03,.37,.06,.56,.09Z"/>
  <path class="cls-4" d="M142.11,164.08c-.48,2.01,.6,3.88,.64,5.87,.06,3.05-2.75,1.9-4.21,2.5-1.81,.75-1.12-1.12-1.27-1.72-1.17-4.82-2.71-9.44-6.49-13.17-1.4-1.38-.39-3.09-.69-4.87,1.86,.77,3.64,.46,5.37,.61,2.07,2.52,3.93,5.17,5.15,8.14,.22,.52,.44,.79,1.04,.73,0,.22-.02,.44-.03,.65-.1,.49-.48,1.08,.5,1.2l-.02,.06Z"/>
  <path class="cls-3" d="M163.46,97.62c-.16,0-.67,0-1.17-.07-1.47-.22-2.42-.6-1.18-2.19,1.57-2,1.84-4.47,2.46-6.79,.49-1.81,.9-3.63,1.9-5.28,2.37-3.91,7.35-4.33,10.52-.95,.77,.82,.59,1.28-.33,1.49-5.58,1.25-6.45,5.18-6.76,9.63-.22,3.15-1.73,4.2-5.44,4.17Z"/>
  <path class="cls-4" d="M243.31,136.43q4.47,.19,3.49,3.83c-.47,1.73-.85,3.49-1.37,5.2-.76,2.52-2.31,4.43-5.06,5.45-2.05,.76-4.46-.31-4.23-2.27,.4-3.46,1-6.94,1.93-10.31,.75-2.72,3.48-1.8,5.26-1.9Z"/>
  <path class="cls-4" d="M236.13,87.54c.32-.09,.65-.18,.97-.27,.35-.05,.69-.1,1.04-.15,.19-.08,.38-.16,.57-.24,0,0,.02,0,.02,0,.47-.06,.95-.11,1.42-.17,.34-.02,.68-.04,1.02-.06,.16,0,.32-.01,.48-.02,1.53,.02,3.07,.05,4.6,.07,.5,.05,.99,.11,1.49,.16,3.75,.88,7.5,1.74,10.78,3.78,1.61,1,3.24,1.95,4.43,3.62-2.08,1.02-3.62,1.6-5.98-.1-3.24-2.34-7.47-2.29-11.42-1.66-2.77,.44-5.16,.79-6.95-1.86-.58-.86-1.82-1.36-2.81-1.95-1.32-.78-.02-.84,.33-1.17Z"/>
  <path class="cls-4" d="M273.45,140.58c-.41,1.88-.8,4.59-1.6,7.18-.94,3.03-3.38,4.33-6.77,3.96-1.88-.21-2.82-1.16-2.07-2.89,1.4-3.22,2-6.58,2.23-10,.1-1.46,.91-2.08,2.31-2.26,.75-.1,1.51-.09,2.27-.13,3.33-.15,3.73,.22,3.62,4.13Z"/>
  <path class="cls-4" d="M280.5,150.08c1.46,.87,2.99,1.84,4.91,1.92,.67,.03,.97,.57,1.29,1.02,2.68,3.86,3.63,8.1,3.31,12.64-.06,.8-.42,1.03-1.2,1.17-1.65,.29-3.47,1.29-4.86,.9-1.77-.49-.71-2.71-1.34-4.08-.29-.64-.31-1.37-.58-2.02-1.53-3.68-3.01-7.35-1.53-11.56Z"/>
  <path class="cls-3" d="M222.66,125.36c3.24-6.25,1.37-11.93-1.08-17.43-.92-2.06-.48-3.84,.11-5.62,.46-1.4,2.36-1.21,3.69-1.55,1.27-.32,1.27,.81,1.53,1.45,2.58,6.34,2.77,12.75,.33,19.15-.68,1.78-1.57,3.65-4.58,4Z"/>
  <path class="cls-4" d="M225.65,135.4c.4,.04,1.16,.14,1.91,.19,3.08,.2,4.95,1.45,5.36,4.5,.27,1.99,1.15,3.89,1.63,5.86,.33,1.35,.68,3.11-.66,3.86-1.7,.96-3.75,.77-5.39-.64-.82-.71-1.39-1.56-1.86-2.48-1.51-2.97-2.63-6.06-3.22-9.31-.37-2.07-.36-2.07,2.21-1.99Z"/>
  <path class="cls-4" d="M252.34,136.52c5.51,.04,5.72,.18,7.44,4.73,.61,1.61,1.03,3.31,1.88,4.81,.85,1.48,.19,2.82-.6,3.66-.96,1.01-2.76,.92-3.97,.05-4.14-2.94-7.05-6.78-8.07-11.5-.62-2.88,2.27-1.25,3.33-1.75Z"/>
  <path class="cls-4" d="M189.48,150.67c-.92,.04-1.9,.28-2.76,.08-2.44-.56-3.19-2.23-2-4.38,1.25-2.25,2.02-4.58,2.26-7.1,.26-2.72,4.92-4.95,7.33-3.38,1.35,.88,1.32,2.58,.91,4.07-.91,3.32-1.97,6.58-4.02,9.48-.58,.41-1.15,.82-1.73,1.23Z"/>
  <path class="cls-4" d="M218.84,135.22c2.74-.05,3.6,.78,3.11,2.99-.66,2.94-1.36,5.88-2.74,8.63-.5,.99-1.19,1.89-2.16,2.53-1.48,.99-3.02,.79-4.5,0-1.45-.78-1.83-2.04-1.39-3.42,.87-2.74,1.75-5.5,2.87-8.16,.87-2.09,2.92-2.62,4.81-2.56Z"/>
  <path class="cls-4" d="M116.57,124.02c.18-.13,.36-.27,.54-.4,.17-.15,.34-.29,.51-.44,.75-.39,1.49-.79,2.24-1.18,1.18-.08,2.35-.16,3.53-.24,1,.45,.44,.95,.08,1.49-1.07,1.62-1.97,3.51-1.83,5.27,.31,4.02-2.89,6.29-4.69,9.26-.68,1.11-1.24,.34-1.73-.12-2.29-2.19-3.11-4.73-2.08-7.7,.75-2.18,1.95-4.12,3.43-5.93Z"/>
  <path class="cls-4" d="M265.47,160.39c.03,2.27-.1,4.51-.84,6.7-.55,1.63-1.41,2.81-3.59,2.75-.46-4.63-2.1-8.9-4.69-12.91-1.13-1.76,.41-3.6,.24-5.43,1.53,.04,3.16-.46,4.49,.59,.56,.44,.95,1.08,1.41,1.63,.12,.19,.24,.38,.37,.57,0,0,.02,.04,.02,.04,1.09,1.94,1.88,3.98,2.59,6.06Z"/>
  <path class="cls-4" d="M173.54,135.94c4.89,.1,5.92,.69,7.57,4.81,.89,2.22,2.65,4.18,1.7,6.94-.77,2.24-2.66,3.2-4.97,1.87-1.03-.59-1.74-1.44-2.25-2.45-1.47-2.86-2.81-5.76-3.74-8.83-.54-1.78-.48-2.74,1.69-2.35Z"/>
  <path class="cls-4" d="M170.5,138.86c-.61,3.05-1.05,6.15-2.68,8.93-.88,1.5-2.07,2.67-4.16,2.58-2.86-.12-3.78-1.23-3.12-3.79,.74-2.86,1.91-5.61,2.23-8.61,.23-2.15,2.68-1.78,4.32-1.97,2.82-.32,3.44,.3,3.41,2.84Z"/>
  <path class="cls-4" d="M248.44,184.89c-5.22,1.02-10.08,2.03-15.12,1.03-3.79-.75-6.93-2.38-9.11-5.41-.37-.51-.97-.96-.27-1.6,.64-.59,1.19-.26,1.78,.13,4.87,3.18,10.27,2.66,15.61,1.6,1.82-.36,2.91-.34,3.96,1.2,.73,1.08,1.91,1.89,3.14,3.06Z"/>
  <path class="cls-4" d="M158.91,147.81c.04,2.17-1.63,2.95-3.96,1.93-1.25-.54-2.16-1.47-2.93-2.5-2.32-3.1-3.89-6.51-4.93-10.13-.18-.63-.47-1.14,.55-1.43,2.93-.84,6.55,.69,7.71,3.26,.81,1.79,1.66,3.56,2.61,5.28,.66,1.2,1.37,2.33,.95,3.6Z"/>
  <path class="cls-4" d="M287.88,128.6c1.87-5.76-.36-10.94-2.22-16.18-.71-2,1.48-5.88,3.43-6.46,1.02-.3,1.6-.18,1.95,.76,2.52,6.75,2.49,13.42-.83,19.95-.4,.79-.91,1.69-2.32,1.93Z"/>
  <path class="cls-4" d="M299.71,112.73c1.81,1.31,3.38,2.46,4.97,3.59,.87,.62,.96,1.41,.71,2.3-.86,3-1.69,6.01-2.59,9-.43,1.41-1.1,2.73-3.07,2.49-1.84-.22-2.72-1.24-2.89-3-.49-4.96,1.38-9.46,2.88-14.38Z"/>
  <path class="cls-4" d="M133.96,135.4c-.14,.81-1.2,1.15-2.1,1.39-3.03,.8-5.49,2.32-7.35,4.63-.49,.61-.96,.71-1.71,.55-5.23-1.1-5.94-3.04-2.3-6.66,1.91-1.9,4.15-3.4,6.92-4.08,3.11-.76,6.69,1.36,6.54,4.17Z"/>
  <path class="cls-4" d="M133.4,152.1c-3.47-.38-5.68-2.26-7.24-4.76-.82-1.32-2.63-2.53-1.24-4.49,1.53-2.15,3.67-3.57,6.17-4.5,1.08-.41,1.39,.64,1.6,1.38,1.03,3.6,2.12,7.18,2.96,10.82,.41,1.75-1.52,1.11-2.26,1.56Z"/>
  <path class="cls-4" d="M276.93,184.96c-4.45-.31-8.71-1.13-12.11-4.07-.43-.37-1.42-.73-.8-1.42,.48-.53,1.35-1.08,2.21-.45,4.26,3.1,9.09,2.61,13.49,1.01,4.04-1.47,7.72-1.38,11.9-.23-2.04,2.07-4.84,2.74-7.3,3.91-.4,.11-.8,.23-1.21,.34-1.72,.31-3.43,.61-5.15,.92-.34-.22-.69-.24-1.03-.01Z"/>
  <path class="cls-4" d="M112.15,138.22c1.05-.05,1.94-.05,2.79,.86,1.62,1.72,3.86,2.71,6.14,3.53,1.36,.49,2.51,.89,2.67,2.59,.06,.66,.43,1.55,.83,2.29,1.22,2.29,.96,2.67-1.76,2.36-2.32-.26-4.62-.52-6.88-1.28-3.2-1.08-4.31-3.21-4.34-6.09,.04-.31,.08-.62,.12-.93,.26-1.09,1.31-2.1,.39-3.31,0,0,.04-.04,.04-.04Z"/>
  <path class="cls-1" d="M158.37,96.57c-2.63,1.06-2.67,1.4-.6,3.27,.59,.53,1.69,1,1.51,1.74-.21,.89-1.47,.83-2.32,1.05-3.13,.78-6.33,.98-9.47,.22-3.03-.73-3.45-2.04-1.67-4.37,.89-1.16,2-2.09,3.28-2.86,.59,.04,1.17,.07,1.76,.11-.14,.2-.29,.4-.43,.6-.28,.2-.55,.41-.83,.61-.49,.18-.83,.5-.99,.97-.14,.16-.28,.31-.43,.47-.89,2.29-.73,2.5,2.01,2.7-.05-.95-1.96-.85-1.41-2.11,.1-.21,.21-.42,.31-.62,.35-.31,.7-.62,1.05-.93,.27-.21,.53-.41,.8-.62,1.06-.56,2.25-.94,2.9-2h0c1.03-.11,2.08-.2,2.29-1.42l-.04,.02c.61,.27,1.14,.33,1.3-.47h0c1.13,.48,1.94-.5,2.96-.54,.2,.17,.39,.35,.59,.52-.36,1.52-1.45,2.61-2.58,3.67Z"/>
  <path class="cls-4" d="M226.82,184.95c-8.42,1.67-16.31,3.02-23.91-1.2-1.24-.69-2.36-1.52-3.28-2.53-.37-.41-1.61-.85-.46-1.59,.71-.46,1.57-1.09,2.44-.13,.05,.06,.11,.12,.17,.18,3.68,4.31,9.91,4.98,15.9,2.52,1.45-.6,2.98-1.96,4.24-1.77,1.22,.19,2.13,1.96,3.2,3.02,.39,.39,.84,.74,1.7,1.49Z"/>
  <path class="cls-4" d="M127.57,184.69c-5.18,1.08-12.17-2.99-12.97-7.51-.48-2.74,1.36-5.42,4.02-5.87,1.94-.32,2.75,.37,2.63,2.11-.28,3.96,1.8,6.97,4.66,9.66,.55,.52,1.52,.7,1.66,1.6Z"/>
  <path class="cls-3" d="M180.73,98.61c.58-1.89,2.38-2.34,4.07-2.9,3.91,5.42,7.67,10.94,12.02,16.09,.4,.47,1.03,1.08,.27,1.59-.89,.59-2.01,.46-2.82-.17-1.09-.84-2.02-1.85-3.01-2.79,0,0-.14,.06-.14,.06,.07-.14,.03-.24-.11-.31-3.13-4.08-7.24-7.42-10.27-11.57Z"/>
  <path class="cls-4" d="M255.89,185.53c-.63-.38-1.32-.47-2.05-.38-2.78-.73-5.42-1.72-7.34-3.83-.49-.54-1.48-1.22-.59-1.95,.66-.53,1.57-1.06,2.66-.21,3.38,2.61,7.3,2.52,11.24,1.49,1.56-.41,2.61-.29,3.78,.84,1.19,1.15,2.73,1.98,4.24,3.04-1.24,.89-2.71,.35-3.89,.84-.21,.03-.41,.06-.62,.08-2.49,.02-4.97,.05-7.46,.07Z"/>
  <path class="cls-3" d="M225.68,86.5c1.37,.29,2.73,.57,4.1,.86,2.89,1.24,5.94,2.25,8.18,4.48,.48,.48,1.74,1.05,.9,1.79-.58,.51-1.8,1.16-2.76,.45-3.46-2.56-7.5-2.85-11.5-2.04-3.53,.71-3.8-1.24-4.29-3.37-.49-2,.29-2.87,2.56-2.48,.48,.08,1,0,1.5,0,.44,.1,.88,.2,1.32,.31Z"/>
  <path class="cls-4" d="M260.94,89.4c3.38-.05,6.76-.1,10.14-.14,3.05,.64,6.02,1.46,8.51,3.3,1.05,.78,1.98,1.69,2.64,2.79,.3,.51,1.01,1.1,.19,1.6-.75,.46-1.17-.24-1.59-.72-.87-.99-1.99-1.65-3.31-2.04-4.13-1.48-8.3-1.37-12.49-.23-1.58-1.28-3.2-2.51-4.7-3.87-.46-.41,.41-.44,.61-.7Z"/>
  <path class="cls-3" d="M219.45,90.31c-.17,1.12,.44,2.26-1.01,2.37-1.14,.09-2.37,.53-3.07-1.13-1.11-2.61-3.03-4.83-5.08-6.9-.98-.98-1.11-1.69,.5-2.11,.32-.08,.63-.22,.95-.33q5.08-1.77,6.48,3.22c.48,1.72,.88,3.46,1.24,4.86Z"/>
  <path class="cls-4" d="M130.48,183.23c4.47,.89,8.7,.09,12.76-1.64,1.41-.6,2.38-.47,3.44,.67,1.12,1.2,2.57,2.15,4.26,3.52-7.28,1.37-13.98,1.07-20.5-1.58,.01-.32,.02-.65,.03-.97Z"/>
  <path class="cls-4" d="M258.65,129.79c-2.73-1.72-5.7-2.62-8.85-3.2-2.18-.4-2.52-1.44-1.52-3.34,.51-.97,1.17-1.92,1.43-2.96,.47-1.88,1.21-2.01,2.78-.84,2.54,1.88,6.29,7.88,6.16,10.33Z"/>
  <path class="cls-2" d="M235.49,127.64c0,.87,.03,1.83-.94,2.24-.88,.37-1.3-.56-1.81-.98-1.39-1.16-3.3-1.54-4.6-2.83-.83-.83-1.22-1.45-.44-2.57,1.05-1.5,1.54-3.25,1.87-5.02,.14-.73,.44-1.2,1.31-.5,1.56,1.25,4.63,7.61,4.61,9.67Z"/>
  <path class="cls-1" d="M178.74,85.37c1.06,.32,3.46,4.49,2.95,5.19-.15,.21-.55,.31-.85,.37-2.97,.54-5.88,1.26-8.72,2.22-1.38,.47-2.16,.17-1.85-1.34,.26-1.28,.33-2.63,1.3-3.7,.2-.1,.4-.19,.61-.29,0,0,.02,0,.02,0,2.1-.62,4.38-.84,6.04-2.39,0,0-.02,.01-.02,.01,.17-.02,.35-.04,.52-.07Z"/>
  <path class="cls-4" d="M298.26,112.29c-.82,3.09-1.67,6.16-2.44,9.26-.26,1.05-.62,2.2-.39,3.21,.52,2.31-1.42,3.68-2.11,5.52-.21,.57-.73,.63-1.17,.19-.8-.8-1.74-1.63-.96-2.85,2.37-3.68,2.75-7.76,2.86-11.89,.05-1.92,1.54-3.01,2.71-4.29,.29-.31,.75-.33,1.16-.11,.42,.22,.54,.57,.33,.96Z"/>
  <path class="cls-4" d="M187.88,152.74c.36-1.46,2.3-.58,2.9-1.67,.55-.15,.96-.44,1.14-.97,.97-.2,.9,.41,.87,.96-.27,4.67,.5,9.12,3.16,13.19,.27,.42,.49,.9,.04,1.27-.53,.44-.91-.08-1.25-.37-.63-.51-1.21-1.07-1.81-1.61-.91-3.91-2.58-7.52-5.04-10.81Z"/>
  <path class="cls-4" d="M125.38,172.27c1.76,.45,3.86,.7,5.48,2.11,.79,.69,.87,1.27-.12,1.85-.78,.45-1.49,1.04-2.32,1.39-4.95,2.07-4.54,1.95-5.82-2.57-.52-1.83,.5-2.83,2.78-2.77Z"/>
  <path class="cls-4" d="M247.9,150.98c-1.62-.07-2.56-1.01-2.32-2.4,.27-1.5,.93-2.98,1.66-4.36,.85-1.61,1.78-1.56,2.82-.06,.77,1.11,1.52,2.26,2.49,3.22,1.17,1.16,.88,1.79-.52,2.43-1.3,.59-2.64,1.03-4.13,1.16Z"/>
  <path class="cls-5" d="M274.23,119.93c3.32,2.33,6.09,4.59,7.32,8.6-2.91-1.43-5.57-2.21-8.44-2.15-1.08,.02-.96-.55-.71-1.24,.6-1.64,1.16-3.3,1.83-5.22Z"/>
  <path class="cls-4" d="M147.08,152.03c-2.42-.06-2.92-.75-2.02-2.4,.89-1.62,1.33-3.35,1.69-5.11,.1-.46,.14-1,.73-1.1,.61-.1,.83,.42,1.07,.82,.53,.89,1.13,1.74,1.55,2.67,.42,.94,2.18,1.6,1.3,2.72-1.08,1.38-2.72,2.31-4.33,2.39Z"/>
  <path class="cls-4" d="M290.94,141.34s.01-.06,.01-.06c-2.52-.94-.92,1.75-2.28,2.06-1.01-1.68-2.04-3.41-3.08-5.13-.35-.58-.14-1.04,.32-1.45,.48-.43,.95-.89,1.49-1.25,1.29-.87,2.97-2.13,4.24-1.4,1.08,.62-.48,2.17-.77,3.33-.23,.9-.57,1.78-.83,2.68-.2,.7-.07,1.23,.9,1.22Z"/>
  <path class="cls-5" d="M222.78,150.89c-2.69,0-3.49-1.25-2.37-3.53,.59-1.19,1.01-2.46,1.51-3.69,.18-.43,.33-.94,.93-.98,.63-.05,.82,.46,1,.89,.71,1.74,1.35,3.51,2.43,5.1,.64,.94-.17,1.15-.85,1.51-.83,.44-1.7,.65-2.64,.7Z"/>
  <path class="cls-5" d="M171.78,142.65c1.13,2.14,2.08,4.01,3.1,5.85,.29,.52,.18,.92-.25,1.22-1.33,.95-2.71,1.97-4.52,1.7-1.51-.23-2.69-.87-1.41-2.5,1.43-1.8,1.42-4.23,3.08-6.28Z"/>
  <path class="cls-5" d="M141.63,162.83c0-.22,.02-.44,.03-.65-.21-3.66-2.6-6.3-4.95-8.96-.36-2.02,1.29-.25,1.72-.78,0,0,.08-.04,.08-.04-.08,.49,.32,.4,.61,.42,1.31,.21,1.28,1.27,1.53,2.12,1.08,3.6,2.73,6.93,5.45,9.75,.31,.16,.52,.09,.66-.21,0,0,.07-.01,.07-.01-.95,.38,.21,1.88-1.07,1.91-1.2,.03-2.03-.79-2.71-1.69-.22-.29-.17-1.01-.94-.6,0,0,.01-.06,.01-.06,1.05-.83,.27-1.01-.5-1.2Z"/>
  <path class="cls-5" d="M303.6,96.39c4.58,2.02,6.68,5.03,6.32,9.12-1.51-.49-2.61-1.75-4.26-1.9-1.45-2.01-.9-4.74-2.82-6.6-.17-.16,.21-.7,.77-.62Z"/>
  <path class="cls-5" d="M210.21,144c-1.77-1.96-2.24-4.11-3.17-6.06-.38-.81,.08-1.15,.82-1.35,.24-.06,.5-.07,.75-.1,3.86-.6,4.49-.03,3.41,3.3-.43,1.32-1.09,2.57-1.81,4.22Z"/>
  <path class="cls-5" d="M159.83,144.41c-1.84-2.14-2.56-4.45-3.56-6.62-.23-.51,.03-.99,.57-1.11,1.32-.29,2.7-.37,3.93,.25,1.17,.59,.66,1.7,.5,2.52-.31,1.58-.89,3.12-1.44,4.96Z"/>
  <path class="cls-5" d="M195.93,149.45c-2.15-.02-2.58-.66-1.76-2.48,.51-1.14,.94-2.31,1.4-3.46,.17-.41,.18-.99,.81-1.01,.6-.02,.76,.53,.97,.94,.39,.77,.73,1.56,1.15,2.31,1.59,2.88,1.01,3.73-2.56,3.7Z"/>
  <path class="cls-4" d="M273.72,151.31c-.78-.22-1.81-.4-1.15-1.77,.82-1.7,1.29-3.49,1.61-5.32,.05-.29,0-.65,.43-.74,.54-.12,.69,.27,.9,.59,.78,1.19,1.6,2.34,2.34,3.55,.77,1.25-1.92,3.78-4.14,3.7Z"/>
  <path class="cls-5" d="M292.31,132.55c-2.25,.27-4.08,1-5.9,2.11-.59-1.64-1.5-3.02-2.58-4.3,3.6-1.52,5.85-.97,8.48,2.19Z"/>
  <path class="cls-5" d="M245.23,161.82c.58,1.16,2.22,2.12,.15,3.61-.8,.58,.37,1.51,1.33,1.88l.02,.02c-.58,.79,.68,1.35,.31,2.12-.07,.03-.15,.1-.22,.1-1.05,.02-2.65,.59-2.99-.24-.43-1.06-.48-2.66,.75-3.56,.91-.66,.41-.9-.06-1.39-1.45-1.48-1.8-3.24-1.36-5.16,.69,.87,1.38,1.74,2.07,2.61Z"/>
  <path class="cls-5" d="M184.33,144.1c-1.35-2.05-2.03-4.02-2.82-5.95-.19-.45-.33-.91,.34-1.15,1.13-.41,2.28-.53,3.46-.21,.63,.17,.72,.58,.57,1.08-.57,1.93-.29,4.03-1.55,6.22Z"/>
  <path class="cls-1" d="M193.52,80.09c1.24-.17,1.25,.74,1.51,1.44-.03,.47-.07,.94-.1,1.41-.97,.19-1.34,1.09-2.12,1.5-2.18-.38-1.58,1.71-2.53,2.43-.34-1.72-1.74-3.29-.89-5.19,1.47-.32,2.94-.63,4.12-1.59Z"/>
  <path class="cls-5" d="M263.58,153.61c-.24-.66-.16-1.09,.77-.91,.71,.14,1.61,.05,1.72,1.03,.33,3.05,1.19,5.94,2.78,8.65,.46,.78-.24,1.65-1.03,1.87-1.05,.3-1.12-.59-1.21-1.31-.2-1.51-.41-3.02-.62-4.53-.46-1.75-1.01-3.46-2.4-4.82Z"/>
  <path class="cls-10" d="M146.1,164.67c-2.72-2.82-4.36-6.15-5.45-9.75-.25-.84-.22-1.91-1.53-2.12-.2-.14-.41-.28-.61-.42,0,0-.08,.04-.08,.04,.07-.22,.15-.44,.22-.67,.66,.03,1.33,.06,1.99,.09-.02,.62,.35,.89,.98,.92,.44,4.25,2.82,7.72,5.26,11.17-.26,.24-.52,.48-.78,.72Z"/>
  <path class="cls-5" d="M230.7,156.92c-1.36-1.62-2.58-3.08-3.81-4.54-.36-.43-.89-.85-.2-1.37,.45-.34,.89-.62,1.59-.39,1.98,.66,3.42,1.62,3.15,3.83-.09,.76,.12,1.57-.74,2.46Z"/>
  <path class="cls-5" d="M262.51,144.69c-.76-2.02-1.67-4-2.23-6.06-.36-1.33,1.1-.74,1.75-.95,.77-.25,1.85-.62,1.87,.65,.03,2.14-.33,4.24-1.39,6.36Z"/>
  <path class="cls-11" d="M187.88,152.74c2.46,3.3,4.13,6.91,5.04,10.81-.88,.68-.31,1.63-.55,2.43-1.07-4.45-2.92-8.63-5.3-12.62,.27-.21,.54-.42,.8-.63Z"/>
  <path class="cls-5" d="M128.09,171.53c-2.04-.41-3.4-.6-4.8-.48-.89,.08-1.74-.31-1.78-1.27-.05-1.14-.33-2.35,.42-3.38,.28-.38,.76-.09,1.06,.2,1.54,1.49,3.08,2.98,5.09,4.92Z"/>
  <path class="cls-11" d="M265.03,93.96c4.19-1.14,8.36-1.25,12.49,.23-.53,.1-1.16,.07-1.3,.75-3.53-.82-7.07-.53-10.62-.09-.19-.29-.38-.59-.58-.88Z"/>
  <path class="cls-8" d="M156.11,93.38s.04-.02,.04-.02c-.91,.28-2.13,.12-2.29,1.42,0,0,0,0,0,0-1.31-.55-1.89,.89-2.99,.94-.59-.04-1.17-.07-1.76-.11,1.36-1.24,3.18-1.83,4.74-2.79,2.51-.81,5.02-1.62,7.86-2.53-.16,1.1-.18,1.9-.76,2.6-.2-.17-.39-.35-.59-.52-1.3-1.28-2.1-.2-2.96,.54,0,0,0,0,0,0-.57-.16-.99,.03-1.3,.47Z"/>
  <path class="cls-5" d="M128.54,155.59c-1.15-.97-2.09-1.72-2.97-2.52-.52-.47-1.4-.87-1.27-1.61,.15-.8,1.11-.4,1.7-.56,.96-.25,1.9-.16,2.31,.81,.48,1.13,.79,2.32,.23,3.87Z"/>
  <path class="cls-5" d="M153.97,155.6c-.89-.72-1.44-1.32-2.14-1.72-2.22-1.27-1.35-2.08,.31-3.09,1.3-.79,1.67-.25,1.86,.77,.22,1.2,.49,2.42-.03,4.04Z"/>
  <path class="cls-11" d="M136.71,153.22c2.35,2.65,4.74,5.29,4.95,8.96-.6,.06-.83-.21-1.04-.73-1.23-2.97-3.08-5.62-5.15-8.14,.41-.03,.83-.06,1.24-.08Z"/>
  <path class="cls-5" d="M293.83,112.12c-.59-2.18-1.18-4.36-1.77-6.54,.13-.06,.25-.12,.38-.18,1.18,1.37,2.57,2.63,3.47,4.14,.85,1.42-1.25,1.69-1.49,2.79-.2-.07-.39-.14-.59-.2Z"/>
  <path class="cls-5" d="M235.2,143.67c-.57-2.08-1.11-3.85-1.53-5.64-.23-.98,.67-.94,1.32-.88,.65,.06,2.02-.18,1.58,.85-.73,1.74,.07,3.74-1.37,5.68Z"/>
  <path class="cls-5" d="M168.29,115.27c4.02-.66,6.31-.33,9.1,1.12q-1.29,.92-9.1-1.12Z"/>
  <path class="cls-11" d="M245.23,161.82c-.69-.87-1.38-1.74-2.07-2.61-.52-.37-1.06-.7-1.77-.63,0,0,.04-.04,.04-.04,.09-.54,.18-1.07,.27-1.61,.94-.42,.36-1.19,.48-1.8,.32-.04,.64-.08,.95-.12,.84,2.31,1.96,4.5,3.21,6.63-.37,.06-.74,.12-1.11,.18Z"/>
  <path class="cls-5" d="M289.82,155.72c-.71-1.17-1.13-1.84-1.51-2.52-.4-.71,.8-3.5,1.63-3.68,.79-.17,1.08,.32,.96,.94-.3,1.64-.67,3.27-1.08,5.25Z"/>
  <path class="cls-5" d="M177.99,154.87c-.98-.85-1.73-1.42-2.37-2.09-.39-.41-1.39-.62-.97-1.37,.33-.58,.95-1.19,1.79-1.02,.8,.16,1.64,.48,1.83,1.36,.19,.9,.16,1.81-.29,3.13Z"/>
  <path class="cls-5" d="M147.63,170.85c-4.25,.72-3.33,1.03-3.71-3.68,2.19,1.02,2.92,1.74,3.71,3.68Z"/>
  <path class="cls-5" d="M246.71,167.31c.58-.15,.51-.49,.32-.87-.24-.48-.19-.96,.37-1.15,.43-.15,.74,.21,.99,.53,.96,1.23,1.93,2.46,2.91,3.71-1.77,.91-2.75,.65-3.13-1.12-.12-.55-.15-1.64-1.43-1.08,0,0-.02-.02-.02-.02Z"/>
  <path class="cls-5" d="M201.5,171.27c-1.88,.12-5.04-2.78-4.86-4.28,.02-.19,.21-.45,.4-.54,.52-.25,.74,.19,.98,.48,1.15,1.41,2.28,2.84,3.48,4.33Z"/>
  <path class="cls-5" d="M196.95,170.73q-2.74,.26-3.28-4.32c1.61,.77,2.71,2.21,3.28,4.32Z"/>
  <path class="cls-5" d="M166.67,125.06c-.28,.86-.65,1.34-1.37,1.51-.71,.17-1.3-.15-1.92-.41-.83-.35-1.89-.51-1.85-1.62,.02-.68,.62-.51,1.14-.44,1.38,.19,2.75,.36,4,.95Z"/>
  <path class="cls-11" d="M204.02,79.91c-.97-.83-1.36-1.94-1.7-3.06-.71-2.34,.46-3.81,3.15-4.04-2.09,1.97-3.05,4.05-.84,6.49-.21,.2-.41,.4-.62,.61Z"/>
  <path class="cls-5" d="M152.54,170.84c-1.77,.19-2.66,.51-3.26-.25-.82-1.05-1.56-2.17-2.29-3.28-.04-.07,.26-.47,.38-.46,.3,.03,.61,.16,.86,.33,.27,.18,.46,.45,.7,.66,1.03,.87,2.07,1.72,3.61,3Z"/>
  <path class="cls-5" d="M135.6,129.96c-.01,.58,.09,1.22-.81,1.34-1.36-.4-2.98-.12-4.07-1.26,.29-.55,.88-.62,1.43-.77,.09-.1,.2-.13,.35-.09,.61-.24,1.22-.48,1.82-.72,0,0-.08,.02-.08,.02,1.23-.11-.26,1.89,1.35,1.48Z"/>
  <path class="cls-5" d="M254.54,154.12c-.65-1.13-2.75-1.47-2-3.07,.26-.56,1.54-1.43,2.02-1.02,1.36,1.16,.48,2.68-.01,4.09Z"/>
  <path class="cls-2" d="M197.85,117.23c-.59-.16-1.58-.12-1.47-.65,.19-.96,1.03-1.81,1.99-2.18,.62-.24,1.23,.56,1.17,1.18-.09,.87-.72,1.49-1.68,1.66Z"/>
  <path class="cls-5" d="M219.89,163.18c.6,.97,1.18,1.95,1.81,2.9,.42,.63,.43,1.22-.28,1.56-.8,.39-1.28-.3-1.53-.79-.56-1.12-.52-2.35,0-3.67Z"/>
  <path class="cls-5" d="M236.06,133.12c-1.98-1.83-.04-2.85,.71-4.04,.28-.45,.93-.31,1.36-.05,.51,.32,.09,.66-.1,.97-.61,.99-1.24,1.97-1.96,3.12Z"/>
  <path class="cls-5" d="M272.09,167.26c.03,.85-.5,.89-1.02,.86-1.69-.1-1.62-1.59-2.22-2.53-.26-.42,.24-1.16,.62-1.07,1.53,.39,1.59,2.04,2.61,2.74Z"/>
  <path class="cls-5" d="M135.18,141.33c-1.3-1-1.15-2.27-1.69-3.24-.26-.47,.18-.88,.75-.95,.54-.07,1.09-.53,1.63-.09,.38,.31,.1,.7,.02,1.06-.22,.96-.43,1.91-.72,3.22Z"/>
  <path class="cls-5" d="M266.72,168.6c-.59,.07-1.38,.02-1.09-.53,.41-.8,0-2.19,1.11-2.33,.89-.12,1.5,1.02,1.66,1.82,.24,1.26-1.1,.77-1.67,1.05Z"/>
  <path class="cls-5" d="M263.58,153.61c1.39,1.35,1.94,3.07,2.4,4.82-.77,.52-.26,1.33-.52,1.96-.7-2.08-1.49-4.13-2.59-6.06,.23-.24,.47-.48,.7-.72Z"/>
  <path class="cls-5" d="M242.17,155.13c-.12,.61,.47,1.38-.48,1.8-.12-.23-.08-.65-.58-.38,0,0,.01,.01,.01,.01,.03-1.19,.15-2.41-1.52-2.81,0,0-.05,.05-.05,.05,.61-.11,.47-.5,.36-.86-.17-.55,.03-.87,.65-.96,.66-.1,.87,.29,.99,.76,.21,.8,.03,1.68,.62,2.39Z"/>
  <path class="cls-5" d="M130.48,183.23c-.01,.32-.02,.65-.03,.97-2.21-.7-4-1.87-5-3.91,1.76,.9,3.22,2.17,5.04,2.94Z"/>
  <path class="cls-5" d="M203.65,151.65c2.22,.41,3.13,1.54,2.23,3.87-1.02-1.11-1.96-2.13-2.89-3.15,0-.41,.22-.65,.66-.71Z"/>
  <path class="cls-8" d="M172.55,86.32c1.97-.8,3.93-1.59,5.9-2.39,.44-.18,.97-.55,1.18,.14,.17,.57-.42,.73-.89,.89-.34,0-.54,.14-.52,.47,0,0,.02-.01,.02-.01-1.15-.27-2.02,.54-3.06,.68-.87,.11-1.65,1.23-2.62,.22Z"/>
  <path class="cls-5" d="M262.69,109.52c.3-1.46,.59-2.93,.91-4.39,.07-.31,.29-.58,.68-.54,.53,.06,.66,.45,.57,.85-.36,1.46-.48,3.01-2.15,4.08Z"/>
  <path class="cls-5" d="M260.26,131.2c1.2-.27,2.18,.11,3.42-.63-.42,1.4-.7,2.32-1.13,3.73-.89-1.21-1.53-2.09-2.28-3.11Z"/>
  <path class="cls-5" d="M163.63,151.07c.76,.35,1.28,.81,1.27,1.67,0,.47,0,1.06-.71,.94-1.06-.18-1.79-.95-1.98-1.82-.15-.69,.99-.25,1.42-.79Z"/>
  <path class="cls-5" d="M219.78,168.41c1.06,1.15,2.31,1.62,2.02,2.77-.17,.65-1.27,.55-1.75,.31-1.4-.68-.34-1.66-.27-3.08Z"/>
  <path class="cls-10" d="M188.36,182.24c-1.26,.42-2.56,.46-3.84,.19-.78-.17-1.17-.56-.23-1.11,1.19-.02,2.38-.04,3.57-.06,.17,.33,.33,.65,.5,.98Z"/>
  <path class="cls-12" d="M172.55,86.32c.97,1,1.76-.11,2.62-.22,1.03-.14,1.9-.95,3.06-.68-1.66,1.55-3.95,1.77-6.04,2.39-.04-.53-.36-1.12,.36-1.49Z"/>
  <path class="cls-5" d="M225.16,170.77c.02,.46-.22,.7-.58,.64-1.45-.24-1.67-1.53-2.29-2.45-.22-.33,.19-.89,.6-.7,1.15,.53,1.51,1.73,2.27,2.51Z"/>
  <path class="cls-5" d="M239.77,107.35c-.09-.34-.27-.61-.18-.76,.49-.92,.06-2.21,1.26-2.82,.27-.14,.71,.09,.71,.45-.02,1.28-.45,2.37-1.78,3.13Z"/>
  <path class="cls-5" d="M212.97,151.04c2.65-.01,2.76,1.4,2.79,3.17-1.35-.82-2-1.87-2.79-3.17Z"/>
  <path class="cls-11" d="M192.93,117.74c-1.51,0-3.02,.02-4.53,.03-.01-.34-.02-.67-.04-1.01,1.52-.25,3.04-.25,4.57-.04,0,.34,0,.68,0,1.02Z"/>
  <path class="cls-7" d="M208.97,131.48c-.03,1.28,.43,2.6-.5,3.74-.04-1.29-1.32-2.69,.5-3.74Z"/>
  <path class="cls-5" d="M187.59,126.5c-.79,.46-1.59,.92-2.54,1.48-.51-2.52,1.3-1.76,2.31-2.01,.08,.18,.15,.36,.23,.54Z"/>
  <path class="cls-5" d="M278.5,153.28c-.74-.83-2.18-1.62-.14-2.76,.77,.87,.42,1.82,.14,2.76Z"/>
  <path class="cls-12" d="M193.52,80.09c-1.18,.96-2.66,1.27-4.12,1.59,0-.31-.01-.63-.02-.94,.44,0,.93,.09,1-.51,0,0-.02,.01-.02,.01,1.1,.37,2.03-.88,3.15-.29v.15Z"/>
  <path class="cls-5" d="M178.01,118.29c.73-1.12,1.81-1.43,3.29-1.38-.68,1.61-2.26,.96-3.29,1.38Z"/>
  <path class="cls-5" d="M291.02,177.44c-.06,.23-.12,.46-.18,.69-1.36,.09-2.71,.12-4.32-.88,1.85-.31,3.18-.1,4.5,.19Z"/>
  <path class="cls-5" d="M172.48,168.38c1.05,.59,1.9,1.35,2.55,2.4q-1.31-.15-2.55-2.4Z"/>
  <path class="cls-11" d="M224.36,86.2c-.5,0-1.02,.08-1.5,0-2.27-.39-3.05,.48-2.56,2.48-.7-.8-.86-2-.14-2.44,1.22-.74,2.79-.57,4.2-.04Z"/>
  <path class="cls-8" d="M193.51,79.94c-1.12-.59-2.05,.66-3.15,.29,.43-1.13,1.78-.8,2.57-1.38,.28-.2,.8-.48,.95,.09,.07,.29-.23,.66-.37,1Z"/>
  <path class="cls-13" d="M203.65,151.65c-.44,.06-.66,.3-.66,.71-.75-.4-1.29-.96-1.64-1.69,.14-.13,.28-.26,.42-.39,.63,.46,1.25,.91,1.88,1.37Z"/>
  <path class="cls-11" d="M191.92,150.1c-.18,.52-.58,.82-1.14,.97-.44-.13-.87-.26-1.31-.4,.58-.41,1.15-.82,1.73-1.23,.24,.22,.48,.44,.71,.67Z"/>
  <path class="cls-13" d="M159.82,129.81c-.12,.44-.31,.87-.89,.92-.15,.01-.46-.21-.47-.34-.05-.56,.42-.76,.89-.92,.32-.11,.41,.09,.48,.34Z"/>
  <path class="cls-6" d="M200.04,135.93c-.59,.62-1.12,.63-1.57-.14,.55-.21,1.08-.21,1.57,.14Z"/>
  <path class="cls-13" d="M201.34,150.67c-.4-.27-1.33-.45-.79-1,.5-.52,.91,.19,1.21,.62-.14,.13-.28,.26-.42,.39Z"/>
  <path class="cls-13" d="M160.74,128.1c.2,.11,.33,.17,.47,.24-.12,.16-.23,.35-.38,.47-.04,.03-.37-.14-.36-.16,.06-.19,.17-.36,.28-.55Z"/>
  <path class="cls-10" d="M179.72,179.97c.6,.26,1.19,.52,1.79,.78-.8,.14-1.4-.12-1.79-.78Z"/>
  <path class="cls-11" d="M247.74,86.87c-.5-.05-.99-.11-1.49-.16,.56-.48,1.07-.52,1.49,.16Z"/>
  <path class="cls-10" d="M184.32,181.34s.03,.03,.03,.03c-.34-.09-.69-.18-1.04-.27,.33,.08,.67,.16,1,.24Z"/>
  <path class="cls-10" d="M181.25,181.77c-.37-.13-.73-.27-1.1-.4,.46-.08,.85,0,1.1,.4Z"/>
  <path class="cls-10" d="M283.12,184.06c.4-.11,.8-.23,1.21-.34-.3,.42-.73,.45-1.21,.34Z"/>
  <path class="cls-11" d="M111.72,141.56c-.04,.31-.08,.62-.12,.93-.47-.36-.38-.67,.12-.93Z"/>
  <path class="cls-7" d="M190.38,80.22c-.07,.6-.56,.52-1,.51,.19-.4,.33-.91,1-.51Z"/>
  <path class="cls-11" d="M241.65,86.64c-.16,0-.32,.01-.48,.02,.15-.2,.31-.21,.48-.02Z"/>
  <path class="cls-12" d="M172.17,87.82c-.2,.1-.4,.19-.61,.29,.11-.26,.3-.37,.61-.29Z"/>
  <path class="cls-6" d="M200.57,89.12l-.32-.09c.04-.05,.08-.1,.11-.15,.05,.1,.11,.19,.16,.29,0,0,.04-.05,.04-.04Z"/>
  <path class="cls-11" d="M265.61,94.83c-.19,.09-.38,.17-.58,.26,.19-.09,.38-.17,.58-.26Z"/>
  <path class="cls-11" d="M301.54,103.87l-.22,.07s-.21-.1-.21-.1c.14,0,.28,.02,.42,.03Z"/>
  <path class="cls-12" d="M178.22,85.43c-.02-.34,.18-.47,.52-.47-.03,.14-.03,.27,0,.41-.17,.02-.35,.04-.52,.07Z"/>
  <path class="cls-11" d="M304.05,104.27c-.17-.04-.33-.08-.5-.12,.17,.04,.33,.08,.5,.12Z"/>
  <path class="cls-10" d="M185.36,115.37c-.17,.04-.33,.07-.5,.11,.17-.04,.33-.07,.5-.11Z"/>
  <path class="cls-10" d="M275.12,127.65c-.19-.03-.37-.06-.56-.09,.19,.03,.37,.06,.56,.09Z"/>
  <path class="cls-6" d="M134.88,133.17c.05,.16,.1,.32,.15,.48-.08-.1-.17-.19-.23-.3-.02-.04,.05-.11,.08-.17Z"/>
  <path class="cls-10" d="M194.41,186.93c.17-.04,.34-.09,.51-.13-.17,.04-.34,.09-.51,.13Z"/>
  <path class="cls-10" d="M263.34,185.46c.21-.03,.41-.06,.62-.08-.21,.03-.41,.06-.62,.08Z"/>
  <path class="cls-10" d="M276.93,184.96c.35-.23,.69-.21,1.03,.01-.34,0-.69,0-1.03-.01Z"/>
  <path class="cls-10" d="M191.08,181.89c-.22,.03-.43,.06-.65,.09,.22-.03,.43-.06,.65-.09Z"/>
  <path class="cls-6" d="M203.1,136.4c-.18-.09-.35-.18-.53-.27,.18,.09,.35,.18,.53,.27Z"/>
  <path class="cls-11" d="M290.21,144.38c.09,.15,.07,.29-.05,.42-.03-.1-.08-.2-.08-.31,0-.03,.09-.07,.14-.11Z"/>
  <path class="cls-11" d="M194.03,155.88c.05,.13,.12,.25,.15,.39,.01,.06-.05,.13-.07,.19-.03-.19-.05-.39-.08-.58Z"/>
  <path class="cls-10" d="M262.86,154.29c-.12-.19-.24-.38-.37-.57,.12,.19,.24,.38,.37,.57Z"/>
  <path class="cls-11" d="M242.75,153.55c.16,.31,.29,.61,0,.92,0-.31,0-.61,0-.92Z"/>
  <path class="cls-11" d="M290.08,145.82c.14,.12,.14,.24,0,.37,0,0-.13-.18-.13-.18l.12-.19Z"/>
  <path class="cls-12" d="M288.51,45.32c2.49-.57,4.86-1.46,7.2-2.41,.77-.31,1.5-.68,2.27-.04-6.03,2.7-12.42,4.57-18.63,6.85-12.65,4.65-25.39,9.12-38.11,13.6-.96,.34-1.95,1.01-3.13,.59,2.87-1.96,6.35-2.64,9.59-3.81,13.31-4.8,26.67-9.49,40.01-14.23,.3-.11,.53-.36,.8-.55Z"/>
  <path class="cls-12" d="M225.45,68.52c3.93-2.24,8.2-3.68,12.69-4.62-.63,1.45-2.29,1.28-3.49,1.74-2.99,1.13-5.93,2.49-9.21,2.88Z"/>
  <path class="cls-12" d="M211.38,73.58c0-.32,.08-.6,.45-.73,3.81-1.26,7.47-2.9,11.43-3.79-2.16,2.34-5.62,2.19-8.27,3.61-1.04,.56-2.29,1.02-3.61,.9Z"/>
  <path class="cls-10" d="M90.38,178.05c.16-.32,.33-.33,.51,0-.17,0-.34,0-.51,0Z"/>
  <path class="cls-11" d="M303.03,172.76c-.17,.21-.33,.42-.5,.63,.17-.21,.33-.42,.5-.63Z"/>
  <path class="cls-9" d="M190.99,110.18c.15,.07,.19,.18,.11,.31-.14-.01-.28-.02-.42-.03,.1-.09,.2-.19,.31-.28Z"/>
  <path class="cls-9" d="M238.13,87.12c-.35,.05-.69,.1-1.04,.15,.02-.29,.05-.57,.07-.86,.6-.07,1.18-.09,1.56,.47,0,0-.02,0-.02,0-.19,.08-.38,.16-.57,.24Z"/>
  <path class="cls-5" d="M134.33,128.45c-.61,.24-1.22,.48-1.82,.72-.44,.07-.92-.04-.89-.47,.07-.79,.9-.75,1.51-.9,.61-.15,1.38-.47,1.21,.65Z"/>
  <path class="cls-9" d="M146.1,164.67c.26-.24,.52-.48,.78-.72-.04,.17-.08,.34-.13,.51-.13,.3-.35,.37-.66,.21Z"/>
  <path class="cls-5" d="M239.6,153.76c1.68,.4,1.56,1.62,1.52,2.81-1.53-.47-1.65-1.58-1.52-2.81Z"/>
  <path class="cls-9" d="M241.12,156.56c.5-.27,.47,.15,.58,.38-.09,.53-.18,1.07-.27,1.61-.43-.62-1.2-1.19-.31-1.98Z"/>
  <path class="cls-9" d="M193.87,88.7c-.21-.52-.22-.94,.56-.98,.58,.7-.33,.67-.56,.98Z"/>
  <path class="cls-9" d="M141.63,162.83c.76,.19,1.55,.37,.5,1.2-.97-.11-.6-.71-.5-1.2Z"/>
  <path class="cls-11" d="M238.13,87.12c.19-.08,.38-.16,.57-.24-.19,.08-.38,.16-.57,.24Z"/>
  <path class="cls-13" d="M148.79,98.97c-.55,1.26,1.35,1.16,1.41,2.11-2.74-.2-2.89-.41-2.01-2.7,.2,.2,.4,.4,.6,.59Z"/>
  <path class="cls-12" d="M150.87,95.73c1.09-.05,1.67-1.48,2.99-.94-.65,1.06-1.84,1.45-2.9,2-.17-.15-.34-.31-.52-.46,.14-.2,.29-.4,.43-.6Z"/>
  <path class="cls-12" d="M157.4,92.92c.87-.74,1.66-1.83,2.96-.54-1.02,.04-1.83,1.01-2.96,.54Z"/>
  <path class="cls-12" d="M153.86,94.79c.16-1.3,1.38-1.14,2.29-1.42-.21,1.23-1.26,1.32-2.29,1.42Z"/>
  <path class="cls-12" d="M150.15,97.41c-.35,.31-.7,.62-1.05,.93-.16-.15-.32-.29-.48-.43,.16-.47,.5-.79,.99-.97,.18,.16,.36,.32,.55,.47Z"/>
  <path class="cls-12" d="M156.11,93.38c.31-.44,.73-.63,1.3-.47-.16,.8-.69,.74-1.3,.47Z"/>
  <path class="cls-12" d="M150.95,96.79c-.27,.21-.54,.41-.8,.62-.18-.16-.36-.32-.54-.47,.28-.2,.55-.4,.83-.61,.17,.15,.34,.31,.52,.46Z"/>
  <path class="cls-12" d="M148.79,98.97c-.2-.2-.4-.39-.6-.59,.14-.16,.28-.31,.43-.47,.16,.14,.32,.29,.48,.43-.1,.21-.21,.42-.31,.63Z"/>
  <path class="cls-9" d="M138.51,152.39c.2,.14,.41,.28,.61,.42-.3-.02-.69,.07-.61-.42Z"/>
  <path class="cls-9" d="M194.92,82.94c.88,1.5-.89,4.83-2.66,4.81-1.14-.02-1.19-.98-.85-1.7,.29-.61,.91-1.07,1.39-1.6,.78-.41,1.15-1.31,2.12-1.5Z"/>
</svg>