<svg width="401" height="400" viewBox="0 0 401 400" fill="none" xmlns="http://www.w3.org/2000/svg">
<path d="M225.393 304.796C225.393 318.809 214.024 323.827 200.001 323.827C185.978 323.827 174.609 318.809 174.609 304.796L180.957 247.704C180.957 233.699 185.978 235.018 200.001 235.018C214.024 235.018 219.045 233.699 219.045 247.704L225.393 304.796Z" fill="#662113"/>
<path d="M285.098 268.623C240.901 230.787 222.999 176.612 200.001 176.612C177.003 176.612 159.104 230.792 114.904 268.623C96.3303 284.524 105.178 293.722 130.64 291.878C153.337 290.242 174.565 285.098 200.001 285.098C225.437 285.098 246.673 290.242 269.354 291.878C294.826 293.722 303.667 284.517 285.098 268.623Z" fill="#5C913B"/>
<path d="M270.746 253.628C236.778 222.505 217.69 177.932 200.001 177.932C182.325 177.932 163.232 222.505 129.264 253.628C102.269 278.357 164.636 283.907 200.001 253.628C235.353 283.912 297.733 278.357 270.746 253.628Z" fill="#3E721D"/>
<path d="M270.746 228.416C236.778 199.343 217.69 157.702 200.001 157.702C182.325 157.702 163.232 199.343 129.264 228.416C102.269 251.516 164.636 256.702 200.001 228.416C235.353 256.707 297.733 251.516 270.746 228.416Z" fill="#5C913B"/>
<path d="M255.225 207.769C228.717 185.07 213.813 152.557 200.001 152.557C186.201 152.557 171.293 185.062 144.777 207.769C123.708 225.805 172.389 229.853 200.001 207.769C227.6 229.846 276.299 225.805 255.225 207.769Z" fill="#3E721D"/>
<path d="M255.225 188.879C228.717 166.18 213.813 133.675 200.001 133.675C186.201 133.675 171.293 166.18 144.777 188.879C123.708 206.92 172.389 210.963 200.001 188.879C227.6 210.963 276.299 206.92 255.225 188.879Z" fill="#5C913B"/>
<path d="M244.566 172.101C223.168 153.787 211.138 127.548 199.993 127.548C188.856 127.548 176.828 153.787 155.423 172.101C138.413 186.662 177.713 189.926 199.993 172.101C222.284 189.926 261.581 186.662 244.566 172.101Z" fill="#3E721D"/>
<path d="M244.566 157.884C223.168 139.571 211.138 113.332 199.993 113.332C188.856 113.332 176.828 139.571 155.423 157.884C138.413 172.445 177.713 175.709 199.993 157.884C222.284 175.709 261.581 172.445 244.566 157.884Z" fill="#5C913B"/>
<path d="M233.912 136.952C217.636 123.016 208.484 103.051 200.001 103.051C191.526 103.051 182.369 123.016 166.082 136.952C153.141 148.033 183.043 150.518 200.001 136.952C216.954 150.518 246.86 148.033 233.912 136.952Z" fill="#3E721D"/>
<path d="M233.912 129.38C217.636 115.439 208.484 95.4736 200.001 95.4736C191.526 95.4736 182.369 115.439 166.082 129.38C153.141 140.461 183.043 142.945 200.001 129.38C216.954 142.938 246.86 140.453 233.912 129.38Z" fill="#5C913B"/>
<path d="M196.685 158.924C196.685 159.268 196.67 159.613 196.637 159.955C196.603 160.297 196.552 160.639 196.485 160.976C196.418 161.316 196.333 161.647 196.233 161.979C196.132 162.309 196.017 162.633 195.886 162.952C195.752 163.271 195.605 163.582 195.443 163.885C195.281 164.189 195.104 164.485 194.911 164.77C194.72 165.058 194.515 165.333 194.296 165.601C194.077 165.866 193.846 166.123 193.601 166.365C193.357 166.609 193.102 166.841 192.835 167.059C192.567 167.278 192.292 167.484 192.004 167.674C191.719 167.867 191.423 168.044 191.119 168.206C190.813 168.369 190.502 168.515 190.183 168.649C189.864 168.78 189.54 168.896 189.211 168.996C188.882 169.096 188.547 169.179 188.208 169.246C187.871 169.315 187.529 169.364 187.186 169.397C186.842 169.431 186.497 169.449 186.152 169.449C185.808 169.449 185.463 169.431 185.121 169.397C184.776 169.364 184.437 169.315 184.097 169.246C183.76 169.179 183.426 169.096 183.094 168.996C182.765 168.896 182.441 168.78 182.122 168.649C181.803 168.515 181.492 168.369 181.188 168.206C180.882 168.044 180.586 167.867 180.301 167.674C180.013 167.484 179.738 167.278 179.47 167.059C179.203 166.841 178.948 166.609 178.704 166.365C178.462 166.123 178.23 165.866 178.009 165.601C177.79 165.333 177.587 165.058 177.394 164.77C177.204 164.485 177.026 164.189 176.862 163.885C176.7 163.582 176.553 163.271 176.422 162.952C176.288 162.633 176.173 162.309 176.072 161.979C175.972 161.647 175.89 161.316 175.823 160.976C175.753 160.639 175.704 160.297 175.671 159.955C175.635 159.613 175.62 159.268 175.62 158.924C175.62 158.579 175.635 158.234 175.671 157.892C175.704 157.547 175.753 157.208 175.823 156.868C175.89 156.531 175.972 156.197 176.072 155.868C176.173 155.539 176.288 155.215 176.422 154.896C176.553 154.577 176.7 154.265 176.862 153.962C177.026 153.658 177.204 153.363 177.394 153.074C177.587 152.789 177.79 152.511 178.009 152.246C178.23 151.979 178.462 151.724 178.704 151.48C178.948 151.235 179.203 151.006 179.47 150.788C179.738 150.567 180.013 150.363 180.301 150.171C180.586 149.98 180.882 149.803 181.188 149.641C181.492 149.479 181.803 149.329 182.122 149.198C182.441 149.067 182.765 148.951 183.094 148.851C183.426 148.751 183.76 148.666 184.097 148.599C184.437 148.532 184.776 148.481 185.121 148.447C185.463 148.414 185.808 148.398 186.152 148.398C186.497 148.398 186.842 148.414 187.186 148.447C187.529 148.481 187.871 148.532 188.208 148.599C188.547 148.666 188.882 148.751 189.211 148.851C189.54 148.951 189.864 149.067 190.183 149.198C190.502 149.329 190.813 149.479 191.119 149.641C191.423 149.803 191.719 149.98 192.004 150.171C192.292 150.363 192.567 150.567 192.835 150.788C193.102 151.006 193.357 151.235 193.601 151.48C193.846 151.724 194.077 151.979 194.296 152.246C194.515 152.511 194.72 152.789 194.911 153.074C195.104 153.363 195.281 153.658 195.443 153.962C195.605 154.265 195.752 154.577 195.886 154.896C196.017 155.215 196.132 155.539 196.233 155.868C196.333 156.197 196.418 156.531 196.485 156.868C196.552 157.208 196.603 157.547 196.637 157.892C196.67 158.234 196.685 158.579 196.685 158.924Z" fill="#FFCC4D"/>
<path d="M224.776 249.852C224.776 250.312 224.753 250.77 224.709 251.228C224.663 251.686 224.596 252.138 224.506 252.589C224.416 253.041 224.305 253.486 224.171 253.926C224.038 254.366 223.883 254.798 223.706 255.222C223.531 255.647 223.336 256.061 223.117 256.467C222.901 256.874 222.664 257.267 222.41 257.648C222.155 258.031 221.88 258.399 221.589 258.754C221.296 259.112 220.987 259.451 220.663 259.775C220.336 260.102 219.997 260.408 219.642 260.701C219.287 260.992 218.917 261.264 218.533 261.522C218.153 261.776 217.757 262.013 217.353 262.229C216.946 262.445 216.532 262.643 216.105 262.818C215.681 262.993 215.249 263.147 214.809 263.281C214.369 263.415 213.921 263.528 213.471 263.615C213.021 263.705 212.566 263.772 212.108 263.819C211.65 263.865 211.192 263.885 210.732 263.885C210.272 263.885 209.814 263.865 209.356 263.819C208.898 263.772 208.443 263.705 207.99 263.615C207.54 263.528 207.095 263.415 206.655 263.281C206.215 263.147 205.781 262.993 205.356 262.818C204.932 262.643 204.515 262.445 204.111 262.229C203.705 262.013 203.311 261.776 202.928 261.522C202.545 261.264 202.177 260.992 201.822 260.701C201.467 260.408 201.125 260.102 200.801 259.775C200.474 259.451 200.166 259.112 199.875 258.754C199.582 258.399 199.309 258.031 199.054 257.648C198.797 257.267 198.561 256.874 198.344 256.467C198.128 256.061 197.93 255.647 197.755 255.222C197.581 254.798 197.424 254.366 197.292 253.926C197.159 253.486 197.046 253.041 196.956 252.589C196.865 252.138 196.799 251.686 196.755 251.228C196.709 250.77 196.685 250.312 196.685 249.852C196.685 249.391 196.709 248.934 196.755 248.476C196.799 248.018 196.865 247.565 196.956 247.115C197.046 246.662 197.159 246.217 197.292 245.778C197.424 245.338 197.581 244.906 197.755 244.481C197.93 244.057 198.128 243.643 198.344 243.236C198.561 242.83 198.797 242.436 199.054 242.056C199.309 241.672 199.582 241.305 199.875 240.95C200.166 240.592 200.474 240.253 200.801 239.928C201.125 239.602 201.467 239.296 201.822 239.002C202.177 238.712 202.545 238.439 202.928 238.182C203.311 237.927 203.705 237.691 204.111 237.475C204.515 237.259 204.932 237.06 205.356 236.886C205.781 236.711 206.215 236.556 206.655 236.423C207.095 236.289 207.54 236.176 207.99 236.088C208.443 235.998 208.898 235.931 209.356 235.885C209.814 235.839 210.272 235.818 210.732 235.818C211.192 235.818 211.65 235.839 212.108 235.885C212.566 235.931 213.021 235.998 213.471 236.088C213.921 236.176 214.369 236.289 214.809 236.423C215.249 236.556 215.681 236.711 216.105 236.886C216.532 237.06 216.946 237.259 217.353 237.475C217.757 237.691 218.153 237.927 218.533 238.182C218.917 238.439 219.287 238.712 219.642 239.002C219.997 239.296 220.336 239.602 220.663 239.928C220.987 240.253 221.296 240.592 221.589 240.95C221.88 241.305 222.155 241.672 222.41 242.056C222.664 242.436 222.901 242.83 223.117 243.236C223.336 243.643 223.531 244.057 223.706 244.481C223.883 244.906 224.038 245.338 224.171 245.778C224.305 246.217 224.416 246.662 224.506 247.115C224.596 247.565 224.663 248.018 224.709 248.476C224.753 248.934 224.776 249.391 224.776 249.852Z" fill="#FFCC4D"/>
<path d="M245.844 183.189C245.844 183.763 245.816 184.336 245.76 184.907C245.703 185.481 245.618 186.047 245.505 186.61C245.394 187.173 245.255 187.732 245.088 188.282C244.921 188.83 244.728 189.37 244.507 189.902C244.286 190.432 244.041 190.952 243.771 191.459C243.499 191.965 243.203 192.457 242.884 192.935C242.565 193.413 242.223 193.874 241.858 194.316C241.492 194.761 241.109 195.186 240.7 195.592C240.294 195.998 239.869 196.384 239.424 196.749C238.979 197.115 238.519 197.457 238.041 197.776C237.562 198.095 237.071 198.388 236.564 198.661C236.057 198.931 235.538 199.175 235.005 199.396C234.475 199.615 233.933 199.81 233.382 199.975C232.834 200.142 232.276 200.281 231.713 200.394C231.15 200.507 230.581 200.59 230.008 200.646C229.437 200.703 228.863 200.731 228.287 200.731C227.713 200.731 227.14 200.703 226.566 200.646C225.995 200.59 225.427 200.507 224.863 200.394C224.297 200.281 223.742 200.142 223.191 199.975C222.641 199.81 222.101 199.615 221.568 199.396C221.039 199.175 220.519 198.931 220.012 198.661C219.506 198.388 219.012 198.095 218.533 197.776C218.055 197.457 217.594 197.115 217.149 196.749C216.704 196.384 216.28 195.998 215.874 195.592C215.467 195.186 215.081 194.761 214.716 194.316C214.351 193.874 214.009 193.413 213.69 192.935C213.371 192.457 213.075 191.965 212.805 191.459C212.532 190.952 212.288 190.432 212.067 189.902C211.848 189.37 211.655 188.83 211.488 188.282C211.321 187.732 211.182 187.173 211.069 186.61C210.956 186.047 210.873 185.481 210.817 184.907C210.76 184.336 210.732 183.763 210.732 183.189C210.732 182.613 210.76 182.039 210.817 181.468C210.873 180.897 210.956 180.329 211.069 179.766C211.182 179.202 211.321 178.647 211.488 178.096C211.655 177.546 211.848 177.006 212.067 176.476C212.288 175.943 212.532 175.426 212.805 174.92C213.075 174.413 213.371 173.919 213.69 173.443C214.009 172.965 214.351 172.504 214.716 172.059C215.081 171.614 215.467 171.19 215.874 170.784C216.28 170.377 216.704 169.991 217.149 169.629C217.594 169.263 218.055 168.921 218.533 168.602C219.012 168.283 219.506 167.988 220.012 167.718C220.519 167.445 221.039 167.201 221.568 166.982C222.101 166.761 222.641 166.568 223.191 166.401C223.742 166.233 224.297 166.095 224.863 165.981C225.427 165.871 225.995 165.786 226.566 165.729C227.14 165.673 227.713 165.644 228.287 165.644C228.863 165.644 229.437 165.673 230.008 165.729C230.581 165.786 231.15 165.871 231.713 165.981C232.276 166.095 232.834 166.233 233.382 166.401C233.933 166.568 234.475 166.761 235.005 166.982C235.538 167.201 236.057 167.445 236.564 167.718C237.071 167.988 237.562 168.283 238.041 168.602C238.519 168.921 238.979 169.263 239.424 169.629C239.869 169.991 240.294 170.377 240.7 170.784C241.109 171.19 241.492 171.614 241.858 172.059C242.223 172.504 242.565 172.965 242.884 173.443C243.203 173.919 243.499 174.413 243.771 174.92C244.041 175.426 244.286 175.943 244.507 176.476C244.728 177.006 244.921 177.546 245.088 178.096C245.255 178.647 245.394 179.202 245.505 179.766C245.618 180.329 245.703 180.897 245.76 181.468C245.816 182.039 245.844 182.613 245.844 183.189Z" fill="#DD2E44"/>
<path d="M154.551 256.868C154.551 257.329 154.53 257.787 154.484 258.244C154.44 258.702 154.371 259.155 154.281 259.608C154.194 260.058 154.08 260.503 153.947 260.943C153.813 261.383 153.659 261.815 153.484 262.239C153.306 262.663 153.111 263.08 152.895 263.484C152.676 263.89 152.442 264.284 152.185 264.665C151.93 265.048 151.655 265.416 151.364 265.773C151.074 266.128 150.765 266.468 150.438 266.792C150.114 267.118 149.772 267.427 149.417 267.718C149.062 268.008 148.692 268.284 148.311 268.538C147.928 268.793 147.534 269.03 147.128 269.246C146.721 269.462 146.307 269.66 145.883 269.835C145.456 270.01 145.024 270.166 144.584 270.298C144.144 270.431 143.699 270.545 143.246 270.635C142.796 270.722 142.341 270.791 141.883 270.835C141.425 270.881 140.968 270.902 140.507 270.902C140.047 270.902 139.589 270.881 139.131 270.835C138.673 270.791 138.218 270.722 137.768 270.635C137.315 270.545 136.87 270.431 136.43 270.298C135.99 270.166 135.558 270.01 135.131 269.835C134.707 269.66 134.293 269.462 133.886 269.246C133.48 269.03 133.086 268.793 132.703 268.538C132.323 268.284 131.952 268.008 131.597 267.718C131.242 267.427 130.9 267.118 130.576 266.792C130.252 266.468 129.943 266.128 129.65 265.773C129.359 265.416 129.084 265.048 128.83 264.665C128.575 264.284 128.338 263.89 128.12 263.484C127.904 263.08 127.708 262.663 127.531 262.239C127.356 261.815 127.201 261.383 127.068 260.943C126.934 260.503 126.823 260.058 126.733 259.608C126.643 259.155 126.576 258.702 126.53 258.244C126.484 257.787 126.463 257.329 126.463 256.868C126.463 256.408 126.484 255.95 126.53 255.492C126.576 255.034 126.643 254.582 126.733 254.132C126.823 253.679 126.934 253.234 127.068 252.794C127.201 252.354 127.356 251.922 127.531 251.498C127.708 251.073 127.904 250.659 128.12 250.253C128.338 249.846 128.575 249.453 128.83 249.072C129.084 248.689 129.359 248.321 129.65 247.966C129.943 247.611 130.252 247.269 130.576 246.945C130.9 246.621 131.242 246.312 131.597 246.019C131.952 245.728 132.323 245.456 132.703 245.199C133.086 244.944 133.48 244.707 133.886 244.491C134.293 244.275 134.707 244.08 135.131 243.902C135.558 243.727 135.99 243.573 136.43 243.439C136.87 243.305 137.315 243.195 137.768 243.105C138.218 243.015 138.673 242.948 139.131 242.902C139.589 242.858 140.047 242.835 140.507 242.835C140.968 242.835 141.425 242.858 141.883 242.902C142.341 242.948 142.796 243.015 143.246 243.105C143.699 243.195 144.144 243.305 144.584 243.439C145.024 243.573 145.456 243.727 145.883 243.902C146.307 244.08 146.721 244.275 147.128 244.491C147.534 244.707 147.928 244.944 148.311 245.199C148.692 245.456 149.062 245.728 149.417 246.019C149.772 246.312 150.114 246.621 150.438 246.945C150.765 247.269 151.074 247.611 151.364 247.966C151.655 248.321 151.93 248.689 152.185 249.072C152.442 249.453 152.676 249.846 152.895 250.253C153.111 250.659 153.306 251.073 153.484 251.498C153.659 251.922 153.813 252.354 153.947 252.794C154.08 253.234 154.194 253.679 154.281 254.132C154.371 254.582 154.44 255.034 154.484 255.492C154.53 255.95 154.551 256.408 154.551 256.868Z" fill="#DD2E44"/>
<path d="M182.641 207.748C182.641 208.209 182.618 208.667 182.575 209.124C182.528 209.582 182.461 210.035 182.371 210.488C182.281 210.938 182.171 211.383 182.037 211.823C181.903 212.262 181.749 212.695 181.571 213.119C181.396 213.543 181.201 213.96 180.982 214.364C180.766 214.77 180.53 215.164 180.275 215.547C180.018 215.928 179.745 216.296 179.455 216.653C179.161 217.008 178.853 217.348 178.529 217.672C178.202 217.998 177.862 218.307 177.507 218.598C177.152 218.888 176.782 219.164 176.399 219.418C176.018 219.673 175.622 219.909 175.218 220.125C174.812 220.342 174.398 220.54 173.971 220.715C173.546 220.889 173.114 221.046 172.674 221.18C172.234 221.311 171.787 221.424 171.337 221.514C170.887 221.602 170.431 221.671 169.974 221.715C169.516 221.761 169.058 221.782 168.597 221.782C168.137 221.782 167.679 221.761 167.221 221.715C166.763 221.671 166.308 221.602 165.856 221.514C165.405 221.424 164.96 221.311 164.521 221.18C164.081 221.046 163.646 220.889 163.222 220.715C162.797 220.54 162.381 220.342 161.977 220.125C161.57 219.909 161.177 219.673 160.794 219.418C160.41 219.164 160.042 218.888 159.687 218.598C159.33 218.307 158.99 217.998 158.666 217.672C158.34 217.348 158.031 217.008 157.74 216.653C157.447 216.296 157.175 215.928 156.92 215.547C156.663 215.164 156.426 214.77 156.21 214.364C155.994 213.96 155.796 213.543 155.621 213.119C155.446 212.695 155.289 212.262 155.158 211.823C155.024 211.383 154.911 210.938 154.821 210.488C154.731 210.035 154.664 209.582 154.62 209.124C154.574 208.667 154.551 208.209 154.551 207.748C154.551 207.288 154.574 206.83 154.62 206.372C154.664 205.917 154.731 205.462 154.821 205.012C154.911 204.559 155.024 204.114 155.158 203.674C155.289 203.234 155.446 202.802 155.621 202.378C155.796 201.953 155.994 201.539 156.21 201.133C156.426 200.729 156.663 200.333 156.92 199.952C157.175 199.569 157.447 199.201 157.74 198.846C158.031 198.491 158.34 198.149 158.666 197.825C158.99 197.501 159.33 197.192 159.687 196.899C160.042 196.608 160.41 196.336 160.794 196.078C161.177 195.824 161.57 195.587 161.977 195.371C162.381 195.155 162.797 194.96 163.222 194.782C163.646 194.607 164.081 194.453 164.521 194.319C164.96 194.185 165.405 194.075 165.856 193.985C166.308 193.895 166.763 193.828 167.221 193.781C167.679 193.738 168.137 193.715 168.597 193.715C169.058 193.715 169.516 193.738 169.974 193.781C170.431 193.828 170.887 193.895 171.337 193.985C171.787 194.075 172.234 194.185 172.674 194.319C173.114 194.453 173.546 194.607 173.971 194.782C174.398 194.96 174.812 195.155 175.218 195.371C175.622 195.587 176.018 195.824 176.399 196.078C176.782 196.336 177.152 196.608 177.507 196.899C177.862 197.192 178.202 197.501 178.529 197.825C178.853 198.149 179.161 198.491 179.455 198.846C179.745 199.201 180.018 199.569 180.275 199.952C180.53 200.333 180.766 200.729 180.982 201.133C181.201 201.539 181.396 201.953 181.571 202.378C181.749 202.802 181.903 203.234 182.037 203.674C182.171 204.114 182.281 204.559 182.371 205.012C182.461 205.462 182.528 205.917 182.575 206.372C182.618 206.83 182.641 207.288 182.641 207.748Z" fill="#A6D388"/>
<path d="M266.91 235.818C266.91 236.276 266.887 236.736 266.844 237.194C266.797 237.649 266.73 238.105 266.64 238.555C266.55 239.005 266.44 239.453 266.306 239.892C266.172 240.332 266.018 240.764 265.84 241.189C265.666 241.613 265.47 242.027 265.251 242.434C265.035 242.838 264.799 243.231 264.544 243.614C264.289 243.998 264.014 244.365 263.724 244.72C263.43 245.075 263.122 245.417 262.798 245.741C262.471 246.066 262.131 246.374 261.776 246.665C261.421 246.958 261.051 247.231 260.668 247.485C260.287 247.743 259.891 247.977 259.487 248.195C259.081 248.411 258.667 248.607 258.24 248.784C257.815 248.959 257.383 249.114 256.943 249.247C256.504 249.381 256.056 249.492 255.606 249.582C255.156 249.672 254.7 249.739 254.243 249.785C253.785 249.829 253.327 249.852 252.866 249.852C252.406 249.852 251.948 249.829 251.49 249.785C251.033 249.739 250.577 249.672 250.127 249.582C249.674 249.492 249.229 249.381 248.79 249.247C248.35 249.114 247.915 248.959 247.491 248.784C247.066 248.607 246.65 248.411 246.246 248.195C245.839 247.977 245.446 247.743 245.063 247.485C244.679 247.231 244.311 246.958 243.957 246.665C243.602 246.374 243.259 246.066 242.935 245.741C242.609 245.417 242.3 245.075 242.009 244.72C241.716 244.365 241.444 243.998 241.189 243.614C240.932 243.231 240.695 242.838 240.479 242.434C240.263 242.027 240.067 241.613 239.89 241.189C239.715 240.764 239.558 240.332 239.427 239.892C239.293 239.453 239.18 239.005 239.09 238.555C239 238.105 238.933 237.649 238.889 237.194C238.843 236.736 238.82 236.276 238.82 235.818C238.82 235.358 238.843 234.9 238.889 234.442C238.933 233.984 239 233.531 239.09 233.079C239.18 232.629 239.293 232.184 239.427 231.744C239.558 231.304 239.715 230.872 239.89 230.447C240.067 230.023 240.263 229.606 240.479 229.203C240.695 228.796 240.932 228.403 241.189 228.019C241.444 227.639 241.716 227.268 242.009 226.913C242.3 226.558 242.609 226.219 242.935 225.895C243.259 225.568 243.602 225.259 243.957 224.969C244.311 224.678 244.679 224.403 245.063 224.148C245.446 223.894 245.839 223.657 246.246 223.441C246.65 223.222 247.066 223.027 247.491 222.852C247.915 222.674 248.35 222.52 248.79 222.386C249.229 222.255 249.674 222.142 250.127 222.052C250.577 221.962 251.033 221.895 251.49 221.851C251.948 221.805 252.406 221.782 252.866 221.782C253.327 221.782 253.785 221.805 254.243 221.851C254.7 221.895 255.156 221.962 255.606 222.052C256.056 222.142 256.504 222.255 256.943 222.386C257.383 222.52 257.815 222.674 258.24 222.852C258.667 223.027 259.081 223.222 259.487 223.441C259.891 223.657 260.287 223.894 260.668 224.148C261.051 224.403 261.421 224.678 261.776 224.969C262.131 225.259 262.471 225.568 262.798 225.895C263.122 226.219 263.43 226.558 263.724 226.913C264.014 227.268 264.289 227.639 264.544 228.019C264.799 228.403 265.035 228.796 265.251 229.203C265.47 229.606 265.666 230.023 265.84 230.447C266.018 230.872 266.172 231.304 266.306 231.744C266.44 232.184 266.55 232.629 266.64 233.079C266.73 233.531 266.797 233.984 266.844 234.442C266.887 234.9 266.91 235.358 266.91 235.818Z" fill="#A6D388"/>
<path d="M206.37 86.2034C207.375 88.1325 209.966 90.0565 212.108 90.4783L221.792 92.3637C223.932 92.7855 224.439 94.4009 222.909 95.957L216.005 103.002C214.482 104.561 213.443 107.614 213.716 109.775L214.909 119.557C215.177 121.725 213.793 122.7 211.833 121.733L203.008 117.347C201.048 116.377 197.825 116.336 195.844 117.254L186.898 121.424C184.918 122.334 183.555 121.324 183.879 119.163L185.317 109.409C185.633 107.256 184.679 104.183 183.197 102.583L176.463 95.3757C174.974 93.7835 175.514 92.1682 177.67 91.8107L187.395 90.1697C189.553 89.8096 192.179 87.9499 193.239 86.0414L198.02 77.4195C199.08 75.5084 200.788 75.5315 201.791 77.4606L206.37 86.2034Z" fill="#FFAC33"/>
</svg>
