<?xml version="1.0" encoding="UTF-8"?>
<svg id="Layer_1" data-name="Layer 1" xmlns="http://www.w3.org/2000/svg" viewBox="0 0 414 200">
  <defs>
    <style>
      .cls-1 {
        fill: #696667;
      }

      .cls-2 {
        fill: #e9e7de;
      }

      .cls-3 {
        fill: #fff9b8;
      }

      .cls-4 {
        fill: #fff200;
      }

      .cls-5 {
        fill: #eceaea;
      }

      .cls-6 {
        fill: #eceae0;
      }

      .cls-7 {
        fill: #fbb040;
      }

      .cls-8 {
        fill: #fdfdfd;
      }

      .cls-9 {
        fill: #747373;
      }

      .cls-10 {
        fill: #9ed2f1;
      }

      .cls-11 {
        fill: #c1c0c0;
      }

      .cls-12 {
        fill: #b9ac98;
      }

      .cls-13 {
        fill: #53524c;
      }

      .cls-14 {
        fill: #48443e;
      }

      .cls-15 {
        fill: #35302f;
      }

      .cls-16 {
        fill: #7a7878;
      }

      .cls-17 {
        fill: #00bff3;
        stroke: #00aeef;
        stroke-miterlimit: 10;
      }
    </style>
  </defs>
  <path class="cls-14" d="M142.9,138.61c3.49-1.21,7.03-1.32,10.62-.53,.29,.55,.65,.72,1.13,.18,2.51,.28,4.87,.92,6.75,2.69,.2,.53,.65,.55,1.12,.52,.7,.3,.97,.95,1.29,1.56,.43,.21,.77,.11,1-.31,.21-.52,.41-1.04,.62-1.56,.53,.1,1.06,.21,1.6,.31-.39,1.55,.62,1.64,1.74,1.59,2.45-.09,5.11-.51,7.26,.54,3.79,1.86,6.9,.62,10.18-1.02,1.13-.57,2.46-.78,3.7-1.13,.62-.17,1.34-.19,1.32-1.09,.59-.01,1.17-.03,1.76-.04,.89-.91,1.79-1.82,2.68-2.73,.57,0,1.03,.16,1.25,.74-.17,.7-1.53,.92-.87,1.93,.6,.92,1.6,.53,2.46,.58,1.73,.77,3.59,.46,5.39,.65,.11-.02,.2,.02,.26,.11,1.26,1.53,3.09,.55,4.6,.99-.13,.14-.18,.3-.16,.48l-.02,.03c-.83,.24-1.17,1.34-2.2,1.21-4.22-2.19-8.81-2.69-13.35-1.83-8.47,1.6-15.72,5.84-22.92,10.99,8.93,1.82,17.16,.49,25.39-1.92,4.8-1.4,9.08-3.5,12.82-6.73,0,0,.18,.07,.18,.07l.12-.15c.19,.02,.37,.04,.56,.05,.02,.72,.03,1.44,.05,2.16-3.15,1.83-6.3,3.67-9.84,5.73,6.44,.95,12.5,1.43,18.6,.48,4.21-.66,8.52-1.18,11.9-4.12,2.14-1.87,4.28-3.75,6.32-5.72,.81-.79,2.6-1.43,2.12-2.53-.44-1.03-2.25-.93-3.52-1.07-4.15-.43-8.17,.31-12.15,1.37-1.17,.31-2.47,.81-1.69-1.3,.2-.13,.39-.25,.59-.38,.82-.15,1.64-.3,2.46-.45,.52-.1,1.23,0,1.32-.71,.07-.59-.41-.93-.97-1.17-.41-.18-.78-.47-1.16-.71-.74-.94-1.49-1.86-2.75-2.17-.65-.84-1.59-1.51-1.71-2.68,.71-.16,1.27,.23,1.85,.5,.02,.28,.14,.4,.41,.23,.6,.43,1.28,.78,1.8,1.29,1.4,1.37,2.48,1.6,3.64-.36,1.07-1.8,2.97-2.83,4.94-3.44,1.66-.51,1.33-1.12,1.08-2.51-.68-3.86-3.47-5.5-6.56-7.1-6.4-3.32-11.62-8.09-16.75-13.01-2.93-2.81-5.69-5.73-8.26-8.85-.56-.68-1.22-1.14-2.11-1.22-3.91-.37-7.81-.71-11.72-1.07-1.5-.14-1.81,.42-1.27,1.77,2.45,6.14,2.23,6.43-4.41,5.79-4.6-.44-9.01-1.67-12.96-4.04-5.46-3.28-5.29-7.69,.53-10.49,3.39-1.63,7.09-2.66,10.97-2.7,.62,.88-.04,1.18-.7,1.51-.52,.26-1.26,.44-.65,1.27,0,0,0,.07,0,.07,.33-1.06-.44-1.04-1.07-.93-2.87,.5-5.74,1.03-8.21,2.7-.48,.04-.86,.22-1.08,.66-.7,.24-1.15,.7-1.3,1.41-1.61,1.55-.44,2.73,.71,3.65,4.27,3.44,9.36,4.77,14.75,5.14,.97,.07,2.25,.7,2.89-.24,.63-.93-.44-1.87-.87-2.73-1.88-3.79-1.29-4.85,2.92-4.52,8.02,.64,16.04,1.26,24.02,2.2,3.41,.4,6.94,.23,10.22,1.53,0,.45,.01,.9,.02,1.34-1.92,.19-.74,.94-.25,1.47,2.09,2.32,4.81,3.93,7.21,5.89,4.09,3.33,4.13,3.28,7.16-.57,.05-.07,.16-.09,.24-.14,.34,.33,.68,.66,1.02,1-2.07,2.94-2.75,6.46-4.01,9.72-.73,1.89-.88,4.26,0,6.18,1.83,4.03,3.72,8.05,6.19,11.78,.49,.75,.82,1.64,1.03,2.52,.52,2.16,1.36,2.52,3.24,1.21,.52-.36,.93-.87,1.39-1.32,.69,.53,1.38,1.06,2.07,1.59-6.76,2.39-11.18,7.68-16.56,12.35,.75,.23,.99,.38,1.23,.37,9.08-.18,17.99-1.4,26.64-4.18,1.38-.44,2.28-1.39,2.79-2.75,.61-1.64,.96-3.33,1.24-5.05,.5-2.97-.05-3.64-3.17-3.26-2.95,.35-5.88,.9-8.81,1.36,1.01-1.77-1.1-.34-1.12-1.04,.78-.87,1.9-.69,2.88-.83,4.31-.62,8.28-1.53,9.84-6.36,1.19-3.67,1.35-3.59-2.49-5.04-.77-.29-1.44-.83-2.15-1.26,.33-.31,.66-.63,.99-.94,3.35,.54,6.21,2.44,9.44,3.26,3.79,.96,6.7,3.07,9.13,5.95,.71,.85,1.37,1.8,2.74,1.45-.17,1.29-1.89,1.01-2.24,2.11-1.61-2.39-3.45-4.59-5.97-6.1-1.81-1.08-4.14-2.57-5.87-1.72-1.78,.87-1.43,3.57-1.26,5.58,.37,4.45-.15,8.77-1.66,12.98-1.01,2.81,.25,4.4,3.34,3.99,2.52-.34,4.8-1.27,6.62-3.23,1.98-2.13,3.18-4.71,4.68-7.12,.71,.07,1.42,.14,2.13,.21-2.08,3.52-3.86,7.35-7.27,9.81-3.24,2.34-7.01,3.16-10.73,.87-2.1-1.29-4.09-.84-6.19-.34-1.83,.44-2.01,1.2-.74,2.61,2.43,2.7,5.65,3.87,9.07,4.48,7.22,1.3,14.32,1.28,19.89-4.29,4.23-4.23,7.06-9.36,7.66-15.4,.24-2.36,.64-4.79-.52-7.59-1.65,2.69-3.55,4.49-5.95,5.73-.03-.53-.22-.96-.77-1.17,1.87-2.19,4.85-3.68,5.28-6.78,.39-2.78,.45-5.64-.32-8.42-.96-3.47-3.34-6.21-4.99-9.32,.61-.18,.76-.66,.81-1.2,4.78,4.26,6.54,9.74,6.65,15.87,.03,1.39,.4,2.65,.77,3.98,2.39,8.51,.34,16.13-5.1,23.02-1.85,2.34-3.99,4.32-6.57,5.88-1.37,.83-1.72,2.5-2.67,3.71-2.87,3.66-6.64,5.11-11.11,5.49-6.58,.56-12.81-1.05-18.85-3.22-3.23-1.16-6.16-1.94-9.14,.3-1.08-.65-2.46,1.64-3.42-.32,1.45-.89,3.37-.99,4.75-2.6-3.46-1.6-6.81-2.94-9.93-4.67-2.09-1.16-4.11-1.5-6.42-1.28-8.21,.78-16.43,1.27-24.66,.12-.53-.07-1.29-.46-1.65,.4,5.13,3.6,10.96,5.79,16.55,8.44,.29,.1,.58,.21,.87,.31,4.9,1.26,9.88,.98,14.85,.63-.05,1.94-2.3,.57-2.83,1.79-2.8,.46-5.6,.36-8.39-.07-1.03-.63-2.08-1.12-3.34-.7-1.27-.01-2.28-.73-3.39-1.19-.99-1.71-2.59-.56-3.89-.8l-.14-.16c.27-1.32-.46-1.65-1.62-1.56-4.13-1.9-8.33-3.71-11.72-6.81-.93-.85-1.68-.75-2.76-.48-5.77,1.46-11.63,1.72-17.55,1.17-.69-.66-1.43-.61-2.21-.16-.83-.08-1.66-.26-2.48-.22-1.19,.06-2.77,.04-3.23,1.12-.5,1.19,1.08,1.75,1.9,2.35,3.49,2.54,7.65,3.62,11.69,4.93,.63,.46,1.36,.29,2.06,.33,.45,.12,.9,.25,1.36,.37,.19,.03,.39,.05,.58,.08,5.77,.39,11.54,.61,17.31,0-.27,2.18-2.71,.39-3.41,1.79-3.73,.64-7.46,.33-11.19-.04-.48-.66-1.03-.77-1.66-.19-.42-.08-.84-.16-1.26-.23-.69-.17-1.27-1.04-2.11-.35-2.6-.52-4.96,.16-7.27,1.26-1.01,.48-2.08,.84-3.24,.63-.54-.1-1.02-.04-1.33,.47-.41,.21-.84,.38-1.3,.15-.92-.11-1.89-.43-2.64,.44-2.8,.6-5.61,.53-8.41,0-.48-.67-1.03-.73-1.65-.17-.61-.08-1.22-.16-1.84-.24-1-.2-1.99-.4-2.99-.61-.48-.07-.95-.13-1.43-.2-.63-.67-.91-.29-1.12,.35-.53,.75-1.2,1.29-2.16,1.42-.83,0-1.73-.26-2.34,.59-.22,.06-.45,.13-.68,.19-.63-.26-1.2-.3-1.57,.41-.38,.11-.76,.21-1.14,.32-.44-.5-.8-.36-1.09,.15-.95,.12-1.9,.24-2.86,.36-2.72-.78-5.47-.33-8.21-.2-.98-.04-1.96-.07-2.94-.11-.56-.75-1.33-.62-2.09-.46-.24-.04-.48-.08-.72-.12-.59-.74-1.34-.58-2.11-.4l-.7-.16c-.35-.56-.87-.59-1.45-.48-1.78,.22-3.29-.75-4.94-1.07-1.27-.23-2.21,.42-3.12,1.14-1.28,.95-2.81,.87-4.29,1.02-.72-.1-1.45-.23-1.96,.47-.79,.28-1.59,.39-2.41,.13-1.79-.16-3.59-.44-5.36,.14-.62-.04-1.23-.08-1.85-.12-.25-.02-.5-.05-.75-.07-.28-.01-.56-.03-.83-.04-.58-.75-1.34-.61-2.11-.43-.46,.23-.87,.09-1.27-.15-.44-.58-.99-.56-1.58-.28-1.35-.33-2.79-.48-4.03-1.04-2.04-.92-3.77-.29-5.55,.57-.14-.99,.85-2.14-.64-2.93-6.57-3.44-13.03-7.17-20.82-7.24-.45-.42-.9-.83-1.36-1.25,0-.35,.02-.7,.03-1.04,.09-.17,.17-.34,.25-.51,1.02-.12,2.05-.15,3.04-.36,7.35-1.57,13.57-5.74,20.36-8.6,1.62-.69,.6-1.28-.3-1.8-3.42-1.98-7.14-3-11.06-3.5-4.14-.53-8.15,.17-12.13,1.17,0-.09-.02-.18-.02-.27,.17-3.36,.15-3.23,3.43-2.79,1.92,.26,3.91,.05,5.87,.01,2.91-.05,5.78,.22,8.42,1.47,1.32,.63,2.05-.26,3.01-.68,1.08-.47,2.15-.93,3.23-1.4,1.07,.13,2.18,.49,3.11-.42,.73-.01,1.47-.02,2.2-.03,.49,.63,1.05,.77,1.69,.21,.61-.01,1.23-.03,1.69,.47,.06,.35,.27,.51,.63,.47,3.71,1.46,7.53,1.65,11.53,1.65,4.13,0,7.99,.43,11.99-1.6,3.98-2.01,8.46-1.26,12.35,1.02,2.34,1.37,4.75,.5,7.1,.82,2.76,.38,5.36,.22,7.44-1.9,.6,.06,1.06-.12,1.25-.73,.31-.13,.62-.27,.93-.4,.7,.05,1.45,.23,1.87-.58Zm24.63,27.99c2.33-.9,5.11-.56,7.39-2.46-2.75-1.23-5.74-1.63-7.67-3.65-2.18-2.29-4.72-2.62-7.61-2.35-1.77,.16-3.54,.29-5.31,.36-5.04,.2-10.11,.53-15.01-1-2.45-.77-4.39,.02-6.62,1.3,10.85,5.93,21.94,9.52,34.29,7.94,.18-.05,.35-.09,.53-.14Zm-70.74,2.93c3.93-.1,7.8-.62,11.61-1.5,.55-.13,1.23-.26,1.3-.86,.08-.7-.66-.74-1.17-.88-2.99-.83-5.65-2.35-8.34-3.78-4.44-2.35-9.34-3.74-14.18-3.12-6.11,.79-11-.92-15.46-4.55-2.15-1.75-3.68-.15-4.83,.91-1.36,1.26,.46,2.15,1.3,2.99,.45,.45,1.02,.79,1.56,1.15,5.6,3.69,11.76,6.2,18.13,8.26,.25,.06,.49,.11,.74,.17l7.07,1.07c.7,.97,1.46,.88,2.27,.14Zm53.2-20.66c-4.62-2.81-9.36-3.77-14.09-4.58-12.12-2.07-22.16,3.47-32.23,8.73-1.67,.87-.22,1.45,.47,1.87,5.28,3.27,10.99,4.86,17.3,4.38,10.39-.79,19.01-6.05,28.55-10.4Zm-3.72,18.19c-.65-.96-1.39-1.1-2.09-1.29-4.26-1.15-8.08-3.28-11.92-5.3-1.33-.7-2.34-.99-3.87-.58-9.23,2.48-18.01,1.46-25.89-4.08-2.23-1.57-3.98-1.32-6.15-.18-1.69,.88-1.43,1.63-.31,2.65,1.68,1.53,3.87,2.16,5.84,3.16,8.85,4.53,18.2,7.47,28.24,8.03,5.48,.31,10.78-.53,16.15-2.41Zm-74.92-13.9c.91,.63,1.55,.99,2.09,1.46,4.02,3.52,8.65,4,13.63,2.64,8.11-2.2,15.32-6.47,23-9.68,1.74-.73,.7-1.3-.22-1.71-5.74-2.59-11.66-2.96-17.75-1.39-7.25,1.87-13.78,5.38-20.76,8.67Zm158.64,.22c.68,1.45,1.71,1.61,2.5,1.98,4.96,2.32,10,4.47,15.23,6.12,6.66,2.11,13.38,4.11,20.55,2.93,3.61-.6,6.61-2.04,8.27-5.55-.35-.14-.45-.22-.53-.2-.45,.06-.9,.16-1.35,.23-6.44,.92-12.82,.72-18.43-2.77-4.49-2.8-9.03-4.3-14.36-3.63-3.85,.48-7.75,.61-11.88,.91Zm-26.98-56.01c.14,.68,.12,.9,.22,1.01,6.08,6.68,12.61,12.9,19.95,18.24,1.85,1.35,4,2.31,6.01,3.46,.61,.35,1.52,.66,1.59-.15,.22-2.73,.74-5.41,1.19-8.1,.05-.32-.64-.84-1.08-1.15-4.58-3.3-9.2-6.55-12.97-10.79-.57-.65-1.32-1.09-2.17-1.18-4.16-.47-8.33-.88-12.74-1.34Zm-62.35,58.16c6.69,1.82,13.1,1.71,19.58,.16,6.54-1.56,11.26-6.29,17.13-8.97,.69-.32,.66-1.14-.57-1.46-3.2-.83-6.38-1.02-9.66-.72-5.74,.52-10.65,3.2-15.69,5.53-3.66,1.69-7.2,3.63-10.79,5.47Zm20.77-11.99c-4.36-5.17-17.48-5.65-22.68-.82,.34,.19,.61,.44,.94,.53,3.89,.99,7.78,1.96,11.26,4.06,.76,.46,1.73,.39,2.46,.06,2.7-1.2,5.33-2.54,8.02-3.84Zm74.69-5.32c2.31,.42,2.61-.48,2.08-1.59-.83-1.71-1.89-3.33-2.91-4.95-.29-.46-.76-.73-1.39-.77-2.04-.11-6.26,2.65-6.83,4.58-.5,1.68,.11,2.8,1.99,2.63,2.61-.23,5.19-.16,7.06,.1Zm-159.52,4.23c4.66,4.44,9.22,2.79,14.11,.16-4.88-1.81-9.43-2.52-14.11-.16Zm45.82,.23c-4.43-1.76-8.71-2.12-12.91,.74,4.84,4.56,8.74,.04,12.91-.74Zm-63.17,15.06c1.1,.96,2.25,.69,3.29,.79,.56,.05,1.46,.3,1.4-.73-.06-.98-.68-1.46-1.71-1.14-.94,.3-1.86,.67-2.98,1.08Z"/>
  <path class="cls-3" d="M358.13,88.3c-.01,1.94,1.37,3.46,2,5.15,.9,2.41,.82,4.24-.32,6.3-.04,.14-.11,.26-.22,.37-22.61-.11-45.22-.22-67.82-.33-5.62-.54-11.26-.57-16.9-.32-2.1-.64-4.26-.34-6.39-.35-8.04-.05-7.98-.02-7.91-8.09,.01-1.58,.74-1.84,1.97-1.9,2.45,0,4.9,.02,7.35,.03,5.62,.04,11.24,.09,16.86,.13,3.19,.32,6.38,.49,9.59,.35,3.92,.86,7.88,.64,11.84,.32,4.28,.07,8.55,.14,12.83,.22,.57,0,1.15,0,1.72,0,.92,0,1.83,0,2.75,0,.58,.23,1.16,.24,1.74,0,8.42,.02,16.84,.05,25.25,.07,.52,.17,.97,.23,1.03-.5,.06-.14,.07-.28,.04-.42,.02-.38,.04-.77,.06-1.15,1.5,.05,3.01,.09,4.51,.14Z"/>
  <path class="cls-10" d="M204.14,84.59s-.04-.06-.05-.06c.25,1.54-1.11,.94-1.76,1.27-1.35-.3-2.7-.33-4.05,.05-.23,0-.46,0-.69,0-.88-.28-1.77-.31-2.65,0-.24,0-.49,0-.73-.01-.42-.06-.85-.12-1.27-.18-.71-.81-1.41-1.62-2.12-2.43,.02-.33-.08-.59-.44-.67-.25-.35-.5-.7-.75-1.05-.62-.63-1.35-1.18-1.85-1.89-3.88-5.58-8.86-10.25-13.17-15.47-.94-1.13-1.87-2.28-2.88-3.34-5.55-5.82-11.43-11.35-16.57-17.54-.31-2.04,.58-3.19,2.67-3.39,1.71-.17,2.17-2.15,3.79-2.43,.53-.22,.88,.06,1.21,.4,6.18,6.53,12.59,12.87,18.47,19.64,5.23,6.03,10.66,11.9,15.6,18.19,2.35,2.99,4.5,6.2,7.25,8.9Z"/>
  <path class="cls-15" d="M198.48,134.82c-2.35,.45-3.79-1.1-5.41-2.32-6.86-5.17-13.61-10.49-20.67-15.38-6.21-4.3-12.46-8.59-19.32-11.94-1.93-.94-2.7-.42-3.5,1.34-1.48,3.26-1.45,3.07-3.9,.38-2.73-2.99-5.23-6.15-7.7-9.34-.38-.49-1-.96-.61-1.68,.38-.71,1.13-.51,1.76-.51,4.68,0,9.36,.07,14.04,0,2.13-.03,2.35,.65,1.56,2.45-.55,1.26-2.41,2.37-1.54,3.73,.64,1.01,2.37,1.34,3.58,2.03,7.23,4.16,14.29,8.55,20.91,13.62,6.66,5.11,13.39,10.14,20.29,14.94,1.55,1.08,.12,1.86,.53,2.68,0,0,0,0,0,0Z"/>
  <path class="cls-15" d="M262.55,89.12c-1.23,.06-1.96,.32-1.97,1.9-.08,8.07-.14,8.04,7.91,8.09,2.13,.01,4.29-.29,6.39,.35,.71,.7-1.73,2.26,.71,2.49,.36,.25,.71,.51,1.07,.76,.18,.09,.36,.17,.54,.26,.18,.09,.35,.19,.53,.28-.04,.51,.78,1.14-.21,1.52q-3.42-1.69-4.49,2.02c-.2,.7-.27,1.49-.65,2.09-.98,1.57-.39,2.62,.75,3.84,2.19,2.35,4.36,4.75,6.21,7.35,2.69,3.8,2.31,8.14,1.7,12.46-.12,.85-.69,1.99,.22,2.55,.92,.56,1.6-.69,2.47-.91,.54,.21,.74,.64,.77,1.17-.75,.78-1.55,1.5-2.63,1.81-1.31-.1-2.62-.22-2.33,1.73-.1,.19-.19,.38-.29,.58-.71-.07-1.42-.14-2.13-.21,.06-.54,.13-1.08,.19-1.62,.6-.08,1.42,.03,1.44-.83,.01-.87-.8-.78-1.41-.85-.03-.36-.06-.72-.09-1.09,.35-1.1,2.07-.82,2.24-2.11,.02-1.55,.06-3.1,.04-4.65-.02-1.62,.29-3.28-.53-4.83-4.07-7.62-10.65-11.57-19.22-12.64-.56-.7-1.37-.48-2.1-.55-4.85-.43-8.75-2.22-10.51-7.05,.5-.03,1-.07,1.5-.1,1.33,2.48,3.58,3.8,6.16,4.69,1.31,.45,2.63,.87,3.94,1.3l.56,.06c.94-.12,1.95-.09,1.45-1.57-2.12-6.21-2.35-12.66-2.08-19.1,.13-3.24,3.59-5.05,6.48-3.56,2.43,1.26,4.94,.5,7.4,.71,1.09,.09,1.12-.8,.95-1.55-.62-2.71-1.56-5.11-4.37-6.6-2.97-1.57-6.02-2.4-9.36-2.33,.02-.44,.04-.88,.05-1.31,.38-.04,.76-.07,1.14-.11,.91,.56,1.88,.33,2.85,.22,2.23-.09,4.05,1.11,6.01,1.86,.21,.13,.42,.26,.63,.39,1.91,1.38,3.49,3,4.03,5.37-.14,.33-.05,.57,.28,.72,.1,.49,.2,.97,.31,1.46,.04,.24,.07,.48,.11,.73,.64,2.36,2.72,.85,4.03,1.43,.33,0,.66,.01,.99,.02,3.86,.06,7.73,.11,11.59,.17,6.25,.93,12.53,.66,18.81,.34,2.33,.05,4.66,.09,6.99,.14-.22,.84-1.28,.49-1.66,1.11-5.8,.02-11.59,.04-17.39,.06-8.23,0-16.45-.7-24.69-.13-3.75-.24-7.5-.52-11.25-.69-.62-.03-1.71-.11-1.65,.95,.05,.91,1.04,.42,1.58,.64,0,.26,0,.52,.01,.78Zm4.95,11.8q-6-.12-4.85,5.85c.12,.63,.2,1.26,.31,1.89,.08,.46,.25,.79,.72,1.06,3.93,2.33,6.14,1.58,7.58-2.63,.09-.26,.19-.51,.27-.78q1.54-5.28-4.02-5.39Z"/>
  <path class="cls-10" d="M55.15,143.29c3.98-.99,7.99-1.69,12.13-1.17,3.91,.5,7.64,1.52,11.06,3.5,.9,.52,1.92,1.11,.3,1.8-6.79,2.86-13,7.03-20.36,8.6-.99,.21-2.03,.24-3.04,.36-.03-4.36-.06-8.73-.09-13.09Z"/>
  <path class="cls-15" d="M190.82,83.24c.71,.81,1.41,1.62,2.12,2.43,.38,.34,.82,.31,1.27,.18,.24,0,.49,0,.73,.01,.88,0,1.77,0,2.65,0,.23,0,.46,0,.69,0,1.35,.15,2.7,.27,4.05-.05,.66-.33,2.02,.27,1.76-1.27,1.24-1.16,1.73-.16,2.25,.75,.3,.69,.86,.66,1.46,.52,11.71-.36,23.43-.34,35.14-.26,.35,.49,.69,.48,1.03,0,1.5,.05,2.7-.4,3.28-1.88,.14-.12,.18-.27,.14-.45,0,0,0-.01,0-.01,.46,.14,.92,.28,1.38,.41-1.84,4.63-2.42,9.43-1.92,14.36-.02,.06-.06,.13-.04,.18,.03,.12,.08,.23,.13,.35,.18,.69,.36,1.38,.54,2.07-.11,.59-.23,1.17-.87,1.45-1.88-2.17-3.34-1.9-5.77,1.08-.24-.02-.48-.04-.72-.06-.21-.19-.41-.39-.62-.58,.16-.19,.31-.38,.47-.56,.88-.61,1.04-1.17-.1-1.67-2.95,.3-5.88,.04-8.81-.2-1.52-.69-3.11-.33-4.68-.26-1.63,.1-3.25,.1-4.83-.37,0-.45-.01-.9-.02-1.34,7.66,.35,15.32,.7,22.97,1.06,.22-.12,.44-.24,.66-.35,0-3,.02-6,.02-9-.01-.43-.27-.51-.64-.41-1.3,0-2.59,0-3.89,0-.2,0-.4,0-.61,0h-42.59c0-.27-.01-.53-.02-.8,3.13-.69,6.35-.03,9.5-.35,12.44,.02,24.87,.05,37.31,.06,.51,0,1.31,.17,1.35-.58,.05-.98-.89-.77-1.46-.76-12.43,.11-24.87,.25-37.3,.38-1.29,0-2.58,0-3.87,0l-5.43-.16c-.64-.1-1.28-.25-1.84,.23-.77,0-1.53,0-2.3,0-.18-.24-.37-.23-.57-.03v.21c-3.59-.38-7.18-.11-10.76-.06-.87,.01-2.17,.53-2.21-1.13,3.14-.79,6.36-.48,9.55-.65,1.11,.32,1.22-.18,.89-1.04,.16-.48,.33-.95,.49-1.43Z"/>
  <path class="cls-15" d="M210.98,129.84c-.16-2.25-1.92-3.58-3.33-4.95-4.44-4.28-8.07-9.3-12.84-13.27-.96-.8-1.35-1.58-.21-2.71,1.24-1.23,1.71-.17,2.41,.48,5.74,5.32,11.09,10.99,15.95,17.1,1.19,1.5,2.46,2.93,3.7,4.39,.73,1.5,1.47,3.01,2.2,4.52,.17,1.65,.33,3.31,.5,4.96-.44,1.84-1.2,3.48-2.84,4.61-1.93-.15-3.92,.2-5.75-.73,0-.3,0-.59,0-.89,.33-.09,.67-.19,1-.28,3.43-.12,4.82-1.61,4.59-4.88-.18-2.67-2.2-4.29-3.68-6.22-.15-1.06-.27-2.15-1.78-2.09l.06-.05Z"/>
  <path class="cls-10" d="M56.31,159.18c7.79,.07,14.25,3.8,20.82,7.24,1.49,.78,.51,1.94,.64,2.93-.14,.38-.41,.6-.84,.61-.44-.87-.73-1.78-2.15-1.48-6.55,1.4-13.06,1.04-19.53-.52,1.75-2.76,.91-5.82,1.06-8.77Z"/>
  <path class="cls-14" d="M204.14,84.59c-2.75-2.7-4.9-5.91-7.25-8.9-4.94-6.29-10.37-12.16-15.6-18.19-5.88-6.78-12.29-13.11-18.47-19.64-.33-.35-.68-.62-1.21-.4-.07-.34-.13-.69-.2-1.03,.74-.17,1.48-.33,2.23-.5,5.15,6.32,11.15,11.88,16.76,17.79,.57,.6,1.09,1.25,1.62,1.89,4.81,5.79,10.06,11.21,14.79,17.09,2.46,3.06,4.94,6.1,7.23,9.29,.53,.75,1.81,1.69,.1,2.62Z"/>
  <path class="cls-14" d="M155.16,43.27c5.14,6.19,11.01,11.72,16.57,17.54,1.02,1.06,1.94,2.21,2.88,3.34,4.31,5.22,9.3,9.89,13.17,15.47,.49,.71,1.23,1.26,1.85,1.89-.89,.54-1.55-1.56-2.51-.21-4.79-5.53-9.46-11.18-14.41-16.57-6.25-6.8-12.73-13.38-19.11-20.06,.04-.52,.09-1.03,.13-1.55,.48,.05,.96,.1,1.44,.15Z"/>
  <path class="cls-15" d="M291.77,99.78c22.61,.11,45.22,.22,67.82,.33,.34,0,.69-.02,1.03-.02,.28,.06,.56,.12,.84,.18,0,.34,0,.68,0,1.01,0,0-.02,.02-.02,.02-.16,.07-.33,.14-.49,.21-1.39,.3-2.78,.2-4.18,0-.42,0-.84,0-1.26,0-10.17,.31-20.34,.2-30.52-.05-.77-.98-1.88-.61-2.86-.62-6.89-.05-13.77-.09-20.66-.07-5.95,.01-11.9,.09-17.85,.14-.37,0-.73,0-1.1,0-1.1-.29-2.2-.29-3.3-.03-1.05-.02-2.11-.03-3.16-.05,.84-1.1,2.04-.54,3.08-.61,4.2-.28,8.44,.57,12.62-.44Z"/>
  <path class="cls-13" d="M315.94,87.51c.37-.63,1.43-.28,1.66-1.11,0,0-.07-.08-.07-.08,.33,0,.65,.02,.98,.03,13.14,.01,26.27,.02,39.41,.07,.64,0,1.64-.25,1.78,.81,.16,1.2-1.04,.71-1.56,1.07-1.5-.05-3.01-.09-4.51-.14-1.2-.06-2.41-.16-3.61-.16-11.36,.06-22.71-.03-34.06-.49Z"/>
  <path class="cls-13" d="M55.25,167.95c6.47,1.56,12.99,1.92,19.53,.52,1.41-.3,1.71,.61,2.15,1.48-6.62,1.44-13.24,1.71-19.91,.25-1.38-.3-2.37-.61-1.77-2.26Z"/>
  <path class="cls-13" d="M283.63,100.92c5.95-.05,11.9-.13,17.85-.14,6.89-.01,13.77,.02,20.66,.07,.97,0,2.08-.36,2.86,.62-10.17,.45-20.33-.06-30.5-.12-3.62-.02-7.27,.22-10.87-.44Z"/>
  <path class="cls-13" d="M192.99,140.33c-.59,.01-1.17,.03-1.76,.04-5.09-2.9-10.55-3.76-16.34-2.88-.14-1.03-.81-1.08-1.59-.75-.96,.41-1.95,.37-2.95,.32,6.35-2.64,12.68-1.87,18.98,.18,1.63,.53,2.89,1.55,3.65,3.1Z"/>
  <path class="cls-13" d="M196.92,138.33c-.22-.57-.68-.74-1.25-.74,.57-.98,1.68-1.15,2.56-1.68,.43-.25,1.03-.55,.25-1.1,0,0,0,0,0,0,1.01,.98,1.5-.19,1.92-.6,2.8-2.71,6.13-3.99,10.04-3.91,.42,0,.39-.28,.53-.47,0,0-.06,.05-.07,.05-.61,.64,.32,1.1,.21,1.68-4.74,.84-9.02,2.59-12.48,6.01-.41,.41-1.14,.51-1.73,.75Z"/>
  <path class="cls-13" d="M207.56,163.54c1.3,.24,2.9-.92,3.89,.8-2.13-1.03-3.92,.48-5.86,.77-2.74,.41-5.38,1.5-8.23,1.2,.69-1.4,3.14,.39,3.41-1.79,1.34-.36,2.69-.73,4.03-1.09,.84-.23,1.75-.42,1.01-1.61,1.16-.09,1.89,.24,1.62,1.56-.24,.11-.47,.22-.71,.33,.06,.07,.15,.2,.17,.19,.23-.11,.45-.23,.67-.36Z"/>
  <path class="cls-13" d="M291.77,99.78c-4.18,1.01-8.42,.15-12.62,.44-1.04,.07-2.25-.49-3.08,.61-.38,.29-.67,.61-.49,1.12-2.44-.23,0-1.79-.71-2.49,5.64-.24,11.27-.21,16.9,.32Z"/>
  <path class="cls-3" d="M179.9,86.35c.04,1.66,1.34,1.14,2.21,1.13,3.58-.05,7.17-.32,10.75,.06-.01,.39-.02,.78-.04,1.18-1.47-.89-3.04-.42-4.59-.34-3.22,.16-6.39,1.02-9.65,.72-.6-.82,.13-1.01,.65-1.27,.66-.33,1.32-.63,.7-1.51,0,0-.04,.02-.04,.02Z"/>
  <path class="cls-1" d="M310.6,86.25c-6.28,.32-12.55,.59-18.81-.34,6.28-.25,12.55-.49,18.81,.34Z"/>
  <path class="cls-13" d="M235.05,163.16c.95,1.97,2.33-.33,3.42,.32-3.71,1.95-7.76,2.56-11.89,2.82,.53-1.23,2.78,.15,2.83-1.79,1.77-.88,3.75-.95,5.64-1.35Z"/>
  <path class="cls-14" d="M248.79,83.6c-.46-.14-.92-.28-1.38-.41,.59-1.97,1.68-3.64,3.25-5,.59,.05,1.1-.04,1.26-.72,.28-.52,.71-.87,1.29-1.05,.55,.07,1.11,.15,1.66,.22-1.77,2.49-4.62,4.05-6.08,6.81-.15-.08-.3-.17-.44-.25,.14,.08,.27,.17,.41,.25l.04,.14Z"/>
  <path class="cls-13" d="M254.87,76.65c-.55-.07-1.11-.15-1.66-.22,1.84-1.76,3.99-2.8,6.62-2.76-.02,.44-.04,.88-.05,1.31-1.63,.56-3.27,1.12-4.9,1.67Z"/>
  <path class="cls-13" d="M127.86,170.79c2.74-.13,5.49-.58,8.21,.2-2.75,.4-5.5,.65-8.21-.2Z"/>
  <path class="cls-14" d="M170.35,137.05c1,.06,1.99,.09,2.95-.32,.78-.33,1.44-.28,1.59,.75-2.02,.71-4.04,1.42-6.06,2.13-.07-.56-.14-1.11-.21-1.67,.58-.3,1.15-.6,1.73-.89Z"/>
  <path class="cls-13" d="M95.75,170.91c1.77-.58,3.57-.3,5.36-.14-1.77,.67-3.56,.63-5.36,.14Z"/>
  <path class="cls-14" d="M277.51,104.78c.99-.39,.17-1.01,.21-1.52,1.48,.01,2.35,1.02,3.28,1.93-.54,.07-.98,.26-1.17,.81-.77-.42-1.8-.36-2.33-1.22Z"/>
  <path class="cls-13" d="M168.63,137.94c.07,.56,.14,1.11,.21,1.67-.6,.62-1.2,1.24-1.8,1.86-.53-.1-1.06-.21-1.6-.31,.61-1.51,1.69-2.56,3.19-3.21Z"/>
  <path class="cls-14" d="M190.82,83.24c-.16,.48-.33,.95-.49,1.43-.24-.15-.49-.29-.74-.44-.7-.65-1.77-.98-1.85-2.14,.83,.4,1.68,.7,2.63,.49,.37,.08,.47,.34,.44,.67Z"/>
  <path class="cls-13" d="M214.85,165.53c1.26-.42,2.31,.07,3.34,.7-1.22,.26-2.25-.36-3.34-.7Z"/>
  <path class="cls-13" d="M263.82,73.77c-.96,.11-1.94,.34-2.85-.22,.99-.46,1.95-.46,2.85,.22Z"/>
  <path class="cls-15" d="M190.38,82.57c-.95,.21-1.8-.09-2.63-.49-.21-.26-.42-.52-.63-.78,.96-1.34,1.62,.75,2.51,.21,.25,.35,.5,.7,.75,1.05Z"/>
  <path class="cls-13" d="M109.78,169.15c.91-.72,1.84-1.37,3.12-1.14-.97,.57-1.91,1.21-3.12,1.14Z"/>
  <path class="cls-1" d="M82.2,139.22c-.93,.91-2.04,.54-3.11,.42,.98-.56,2.04-.54,3.11-.42Z"/>
  <path class="cls-6" d="M163.65,35.93c-.74,.17-1.48,.33-2.23,.5,0-1.03,.78-1.32,1.58-1.42,.59-.08,.61,.48,.65,.92Z"/>
  <path class="cls-13" d="M150.46,167.42c1,.2,1.99,.4,2.99,.61-1.09,.23-2.09,.08-2.99-.61Z"/>
  <path class="cls-13" d="M90.21,170.25c.77-.19,1.54-.32,2.11,.43-.78,.22-1.49,.08-2.11-.43Z"/>
  <path class="cls-13" d="M103.53,170.64c.52-.7,1.24-.57,1.96-.47-.54,.63-1.23,.63-1.96,.47Z"/>
  <path class="cls-13" d="M122.82,170.23c.77-.16,1.53-.3,2.09,.46-.78,.19-1.49,.11-2.09-.46Z"/>
  <path class="cls-13" d="M181.13,165.5c.84-.7,1.42,.18,2.11,.35-.75,.15-1.45,0-2.11-.35Z"/>
  <path class="cls-13" d="M143.41,169.58c.61-.85,1.51-.58,2.34-.59-.69,.54-1.46,.77-2.34,.59Z"/>
  <path class="cls-12" d="M189.6,84.22c.25,.15,.49,.29,.74,.44,.32,.86,.22,1.36-.89,1.04,.05-.49,.11-.99,.16-1.48Z"/>
  <path class="cls-13" d="M184.5,166.08c.63-.58,1.18-.47,1.66,.19-.58,.16-1.14,.17-1.66-.19Z"/>
  <path class="cls-6" d="M153.73,43.12c-.04,.52-.09,1.03-.13,1.55-.59-.02-1.14-.16-1.09-.86,.06-.7,.64-.74,1.22-.69Z"/>
  <path class="cls-13" d="M119.99,169.72c.77-.19,1.53-.34,2.11,.4-.76,.16-1.48,.11-2.11-.4Z"/>
  <path class="cls-13" d="M155.28,168.26c.62-.56,1.17-.5,1.65,.17-.58,.22-1.13,.15-1.65-.17Z"/>
  <path class="cls-13" d="M142.9,138.61c-.43,.81-1.17,.63-1.87,.58,.45-.74,1.16-.67,1.87-.58Z"/>
  <path class="cls-13" d="M165.34,168.44c.76-.87,1.72-.54,2.64-.44-.82,.48-1.71,.57-2.64,.44Z"/>
  <path class="cls-1" d="M86.09,139.39c-.65,.55-1.2,.42-1.69-.21,.61-.28,1.17-.18,1.69,.21Z"/>
  <path class="cls-15" d="M281.43,105.53c.78,.52,1.95,.73,1.77,2.05-.54-.05-1.08-.11-1.62-.16-.28-.25-.56-.5-.85-.75,.23-.38,.46-.76,.69-1.13Z"/>
  <path class="cls-13" d="M279.23,100.88c1.1-.26,2.2-.26,3.3,.03-1.1,.4-2.2,.32-3.3-.03Z"/>
  <path class="cls-13" d="M162.52,141.48c-.47,.03-.92,0-1.12-.52,.45,.01,.97-.11,1.12,.52Z"/>
  <path class="cls-13" d="M140.09,139.6c-.19,.61-.65,.79-1.25,.73,.26-.5,.68-.74,1.25-.73Z"/>
  <path class="cls-13" d="M117.83,169.08c.58-.12,1.11-.08,1.45,.48-.6,.19-1.05-.1-1.45-.48Z"/>
  <path class="cls-13" d="M361.47,101.29c0-.34,0-.68,0-1.01,.18,.13,.47,.23,.51,.39,.08,.34-.04,.65-.51,.63Z"/>
  <path class="cls-14" d="M207.81,85.79c-.6,.14-1.17,.17-1.46-.52,.55,0,1.12-.06,1.46,.52Z"/>
  <path class="cls-14" d="M243.99,85.53c-.34,.48-.69,.49-1.03,0,.34-.28,.69-.29,1.03,0Z"/>
  <path class="cls-15" d="M284.5,108.45c-.05,.54-.2,1.02-.81,1.2-.33-.37-.66-.74-1-1.11,.16-.3,.31-.6,.47-.9,.64-.04,1.06,.28,1.34,.81Z"/>
  <path class="cls-13" d="M87.35,169.82c.6-.28,1.15-.3,1.58,.28-.57,.13-1.11,.1-1.58-.28Z"/>
  <path class="cls-13" d="M154.65,138.27c-.48,.54-.83,.36-1.13-.18,.42-.19,.8-.16,1.13,.18Z"/>
  <path class="cls-13" d="M169.29,167.86c.32-.51,.8-.56,1.33-.47-.35,.42-.74,.7-1.33,.47Z"/>
  <path class="cls-13" d="M147.91,167.57c.2-.63,.49-1.02,1.12-.35-.37,.12-.75,.23-1.12,.35Z"/>
  <path class="cls-13" d="M251.92,77.47c-.16,.67-.67,.76-1.26,.72,.16-.68,.79-.57,1.26-.72Z"/>
  <path class="cls-13" d="M141.16,170.17c.37-.71,.94-.67,1.57-.41-.45,.42-.99,.48-1.57,.41Z"/>
  <path class="cls-15" d="M279.84,106.01c.18-.55,.63-.75,1.17-.81,.14,.11,.29,.23,.43,.34-.23,.38-.46,.76-.69,1.13-.3-.22-.6-.44-.9-.66Z"/>
  <path class="cls-13" d="M138.93,170.64c.3-.51,.65-.65,1.09-.15-.32,.34-.7,.33-1.09,.15Z"/>
  <path class="cls-14" d="M281.58,107.42c.54,.05,1.08,.11,1.62,.16,0,0-.05,.06-.05,.06-.15,.3-.31,.6-.46,.9-.54-.21-.9-.6-1.11-1.12Z"/>
  <path class="cls-2" d="M54.98,156.89c0,.35-.02,.7-.03,1.04-.43-.36-.42-.71,.03-1.04Z"/>
  <path class="cls-13" d="M164.81,142.72c-.23,.43-.57,.52-1,.31,.33-.1,.67-.21,1-.31Z"/>
  <path class="cls-1" d="M280.21,85.75c-.33,0-.66-.01-.99-.02,.34-.28,.67-.26,.99,.02Z"/>
  <path class="cls-1" d="M318.5,86.34c-.33,0-.65-.02-.98-.03,.33-.28,.66-.24,.98,.03Z"/>
  <path class="cls-13" d="M93.16,170.72c.25,.02,.5,.05,.75,.07-.25-.02-.5-.05-.75-.07Z"/>
  <path class="cls-1" d="M275.19,84.3c-.04-.24-.07-.48-.11-.73,.25,.21,.32,.45,.11,.73Z"/>
  <path class="cls-14" d="M205.45,83.9c.06,.07,.16,.14,.16,.2,0,.06-.12,.12-.19,.17-.06-.07-.16-.14-.16-.2,0-.06,.12-.12,.19-.17Z"/>
  <path class="cls-14" d="M247.41,83.2c.04,.18,0,.33-.14,.45,.05-.15,.09-.3,.14-.45Z"/>
  <path class="cls-1" d="M274.77,82.12c-.34-.15-.42-.39-.28-.72,.29,.17,.42,.39,.28,.72Z"/>
  <path class="cls-1" d="M270.46,76.03c-.21-.13-.42-.26-.63-.39,.33-.06,.54,.08,.63,.39Z"/>
  <path class="cls-13" d="M360.63,100.09c-.34,0-.69,.02-1.03,.02,.11-.1,.18-.22,.22-.37,.27,.11,.54,.23,.81,.34Z"/>
  <path class="cls-1" d="M88.42,140.34c-.36,.04-.57-.13-.63-.47,.21,.16,.42,.32,.63,.47Z"/>
  <path class="cls-13" d="M360.95,101.52c.16-.07,.33-.14,.49-.21-.06,.3-.21,.41-.49,.21Z"/>
  <path class="cls-11" d="M221.01,132.28c-.28,.16-.39,.04-.41-.23,.14,.08,.28,.16,.41,.23Z"/>
  <path class="cls-14" d="M277.19,102.98c-.18-.09-.36-.17-.54-.26,.18,.09,.36,.17,.54,.26Z"/>
  <path class="cls-13" d="M355.51,101.53c.42,0,.84,0,1.26,0-.42,.3-.84,.31-1.26,0Z"/>
  <path class="cls-3" d="M192.82,88.73c.01-.39,.02-.78,.04-1.18,0,0,.01-.21,.01-.21,.19,0,.38,.02,.57,.03,.77,0,1.53,0,2.3,0,.53,.06,1.06,.11,1.59,.17,1.9,.11,3.82,.47,5.68-.24,1.29,0,2.58,0,3.87,0,.03,.3,.07,.6,.1,.9-3.15,.32-6.38-.35-9.5,.35,0,.27,.01,.53,.02,.8h42.59c.2,.26,.4,.26,.61,0,1.3,0,2.59,0,3.89,0,.21,.14,.43,.27,.64,.41,0,3-.02,6-.02,9-.22,.12-.44,.24-.66,.35-7.66-.35-15.32-.7-22.97-1.06-3.28-1.3-6.81-1.13-10.22-1.53-7.98-.94-16-1.57-24.02-2.2-4.2-.33-4.79,.73-2.92,4.52,.43,.86,1.49,1.8,.87,2.73-.63,.94-1.92,.31-2.89,.24-5.4-.37-10.49-1.7-14.75-5.14-1.15-.93-2.32-2.1-.71-3.65,1.04,.07,1.24-.62,1.3-1.41,.22-.44,.61-.62,1.08-.66,1.44,.53,2.9-.57,4.33,.07-.87,.68-1.7,1.41-2.62,2.03-.8,.54-.76,1.25-.42,1.9,.83,1.57,5.17,3.29,7.2,2.95-.16-.64-.75-.67-1.23-.92-1.5-.79-3.92-.93-4.03-2.88-.1-1.69,2.31-1.78,3.46-2.75,5.2-.67,10.36-1.62,15.63-1.7,.54,0,1.09-.24,1.19-.91Z"/>
  <path class="cls-7" d="M240.86,103.08c2.44-2.98,3.89-3.25,5.77-1.08,.17,.34,.34,.68,.51,1.02,1.77,4.83,5.67,6.61,10.51,7.05,.58,.62,1.31,.7,2.1,.55,8.57,1.07,15.15,5.02,19.22,12.64,.83,1.55,.52,3.21,.53,4.83,.02,1.55-.03,3.1-.04,4.65-1.37,.35-2.03-.6-2.74-1.45-2.43-2.88-5.34-4.99-9.13-5.95-3.23-.82-6.09-2.72-9.44-3.26-2.56-1.48-5.14-2.92-7.91-4-.33-.17-.67-.35-1-.52-3.15-2.75-6.88-4.91-9.01-8.68,.19-.5,.16-.96-.2-1.39l-.14-1.3c.32-1.04,.64-2.09,.96-3.13Z"/>
  <path class="cls-10" d="M149.99,148.88c-9.54,4.35-18.16,9.62-28.55,10.4-6.3,.48-12.02-1.11-17.3-4.38-.69-.43-2.14-1-.47-1.87,10.07-5.26,20.11-10.81,32.23-8.73,4.73,.81,9.47,1.78,14.09,4.58Z"/>
  <path class="cls-17" d="M279.23,139.46c.1-.19,.19-.38,.29-.58,.78-.58,1.55-1.16,2.33-1.73,1.09-.31,1.89-1.02,2.63-1.81,2.4-1.25,4.3-3.04,5.95-5.73,1.15,2.8,.75,5.23,.52,7.59-.61,6.04-3.43,11.16-7.66,15.4-5.57,5.57-12.68,5.59-19.89,4.29-3.42-.62-6.64-1.78-9.07-4.48-1.27-1.42-1.09-2.18,.74-2.61,2.09-.5,4.09-.95,6.19,.34,3.71,2.29,7.49,1.46,10.73-.87,3.41-2.46,5.18-6.29,7.27-9.81Z"/>
  <path class="cls-10" d="M146.27,167.06c-5.37,1.88-10.67,2.72-16.15,2.41-10.04-.57-19.39-3.5-28.24-8.03-1.96-1.01-4.16-1.63-5.84-3.16-1.12-1.03-1.39-1.77,.31-2.65,2.17-1.13,3.92-1.38,6.15,.18,7.88,5.55,16.66,6.56,25.89,4.08,1.53-.41,2.54-.12,3.87,.58,3.85,2.02,7.66,4.14,11.92,5.3,.69,.19,1.44,.33,2.09,1.29Z"/>
  <path class="cls-10" d="M71.35,153.16c6.99-3.29,13.51-6.8,20.76-8.67,6.09-1.57,12.01-1.2,17.75,1.39,.91,.41,1.96,.99,.22,1.71-7.68,3.2-14.88,7.47-23,9.68-4.99,1.35-9.62,.88-13.63-2.64-.54-.47-1.18-.83-2.09-1.46Z"/>
  <path class="cls-10" d="M94.52,169.39c-2.36-.36-4.71-.72-7.07-1.07-.25-.06-.49-.11-.74-.17-6.37-2.06-12.54-4.57-18.13-8.26-.54-.36-1.11-.7-1.56-1.15-.84-.85-2.66-1.74-1.3-2.99,1.14-1.06,2.68-2.65,4.83-.91,4.46,3.63,9.35,5.34,15.46,4.55,4.84-.62,9.74,.77,14.18,3.12,2.7,1.43,5.36,2.95,8.34,3.78,.51,.14,1.25,.19,1.17,.88-.07,.6-.76,.74-1.3,.86-3.82,.89-7.69,1.41-11.61,1.5-.73-.38-1.49-.46-2.27-.14Z"/>
  <path class="cls-10" d="M216.53,144.97c1.64-1.13,2.4-2.78,2.84-4.61,.81-.31,.22-1.44,1.07-1.89,.21,.54,.37,.94,.52,1.34-.78,2.11,.52,1.61,1.69,1.3,3.98-1.07,8-1.8,12.15-1.37,1.27,.13,3.08,.04,3.52,1.07,.47,1.1-1.31,1.74-2.12,2.53-2.04,1.97-4.18,3.85-6.32,5.72-3.39,2.95-7.69,3.46-11.9,4.12-6.1,.96-12.16,.47-18.6-.48,3.54-2.06,6.69-3.9,9.84-5.73,1.48-1.48,3.13-2.01,5.23-1.22,.63,.24,1.68,.23,2.09-.78Z"/>
  <path class="cls-7" d="M244.78,137.14c-.46,.44-.87,.95-1.39,1.32-1.87,1.31-2.72,.95-3.24-1.21-.21-.87-.53-1.77-1.03-2.52-2.47-3.72-4.37-7.74-6.19-11.78-.87-1.92-.72-4.29,0-6.18,1.25-3.26,1.94-6.78,4.01-9.72l.05-.07c.45-.27,.9-.49,1.4-.12,.08,2.38,.8,4.66,2.71,6.08,2.68,2,3.65,4.39,4.46,7.62,1.46,5.77,1.44,11.14-.79,16.59Z"/>
  <path class="cls-10" d="M250.21,137.58c2.94-.46,5.86-1.01,8.81-1.36,3.12-.37,3.66,.29,3.17,3.26-.29,1.72-.63,3.41-1.24,5.05-.51,1.36-1.4,2.31-2.79,2.75-8.65,2.77-17.56,3.99-26.64,4.18-.24,0-.48-.14-1.23-.37,5.38-4.67,9.8-9.96,16.56-12.35,1.12-.38,2.24-.77,3.37-1.15Z"/>
  <path class="cls-10" d="M235.05,163.16c-1.89,.41-3.87,.48-5.64,1.35-4.97,.35-9.95,.63-14.85-.63-.29-.1-.58-.21-.87-.31-5.59-2.65-11.42-4.85-16.55-8.44,.36-.86,1.12-.47,1.65-.4,8.23,1.15,16.45,.66,24.66-.12,2.31-.22,4.33,.12,6.42,1.28,3.12,1.73,6.47,3.07,9.93,4.67-1.38,1.61-3.3,1.71-4.75,2.6Z"/>
  <path class="cls-10" d="M229.99,153.38c4.13-.3,8.03-.43,11.88-.91,5.34-.67,9.87,.83,14.36,3.63,5.61,3.49,11.99,3.69,18.43,2.77,.45-.06,.9-.16,1.35-.23,.08-.01,.17,.06,.53,.2-1.66,3.51-4.66,4.96-8.27,5.55-7.17,1.18-13.89-.81-20.55-2.93-5.23-1.66-10.27-3.81-15.23-6.12-.79-.37-1.81-.52-2.5-1.98Z"/>
  <path class="cls-10" d="M205.8,161.82c.74,1.19-.18,1.38-1.01,1.61-1.34,.37-2.69,.73-4.03,1.09-5.77,.6-11.54,.38-17.31,0-.19-.03-.39-.05-.58-.08-.45-.12-.9-.25-1.35-.37-.63-.45-1.32-.53-2.06-.33-4.04-1.32-8.21-2.4-11.69-4.93-.82-.6-2.4-1.16-1.9-2.35,.45-1.08,2.04-1.06,3.23-1.12,.82-.04,1.65,.14,2.48,.22,.74,.05,1.47,.1,2.21,.16,5.92,.54,11.78,.28,17.55-1.17,1.08-.27,1.83-.37,2.76,.48,3.38,3.1,7.58,4.92,11.72,6.81Z"/>
  <path class="cls-10" d="M203.01,97.37c4.4,.46,8.57,.87,12.74,1.34,.85,.1,1.59,.54,2.17,1.18,3.76,4.24,8.39,7.49,12.97,10.79,.43,.31,1.13,.83,1.08,1.15-.45,2.69-.97,5.37-1.19,8.1-.06,.82-.98,.5-1.59,.15-2-1.16-4.15-2.11-6.01-3.46-7.34-5.35-13.87-11.56-19.95-18.24-.1-.11-.08-.33-.22-1.01Z"/>
  <path class="cls-7" d="M281.58,107.42c.21,.53,.56,.91,1.11,1.12,.33,.37,.66,.74,1,1.11,1.66,3.11,4.04,5.85,4.99,9.32,.77,2.79,.71,5.64,.32,8.42-.43,3.1-3.41,4.59-5.28,6.78-.87,.23-1.55,1.47-2.47,.91-.91-.55-.34-1.7-.22-2.55,.61-4.32,.99-8.66-1.7-12.46-1.84-2.61-4.02-5-6.21-7.35-1.14-1.23-1.73-2.28-.75-3.84,.38-.6,.45-1.38,.65-2.09q1.07-3.72,4.49-2.02c.53,.86,1.56,.81,2.33,1.22,.3,.22,.6,.44,.9,.66,.28,.25,.56,.5,.85,.75Z"/>
  <path class="cls-10" d="M208.31,144.83c-3.73,3.23-8.02,5.33-12.82,6.73-8.23,2.41-16.47,3.73-25.39,1.92,7.2-5.14,14.45-9.39,22.92-10.99,4.54-.86,9.13-.36,13.35,1.83,.64,.17,1.29,.34,1.93,.51Z"/>
  <path class="cls-10" d="M166.99,166.74c-12.35,1.57-23.44-2.01-34.29-7.94,2.23-1.29,4.17-2.07,6.62-1.3,4.9,1.53,9.97,1.2,15.01,1,1.77-.07,3.54-.2,5.31-.36,2.88-.27,5.43,.06,7.61,2.35,1.93,2.02,4.92,2.42,7.67,3.65-2.28,1.89-5.06,1.56-7.39,2.46-.18,.05-.35,.09-.53,.14Z"/>
  <path class="cls-17" d="M277.3,137.63c-.06,.54-.13,1.08-.19,1.62-1.5,2.41-2.7,4.99-4.68,7.12-1.82,1.96-4.1,2.89-6.62,3.23-3.09,.41-4.35-1.18-3.34-3.99,1.51-4.21,2.04-8.53,1.66-12.98-.17-2.01-.52-4.72,1.26-5.58,1.73-.84,4.06,.64,5.87,1.72,2.52,1.51,4.36,3.71,5.97,6.1,.03,.36,.06,.72,.09,1.09,0,.56-.02,1.12-.03,1.68Z"/>
  <path class="cls-10" d="M140.66,155.53c3.59-1.83,7.13-3.78,10.79-5.47,5.04-2.33,9.95-5.01,15.69-5.53,3.29-.3,6.47-.11,9.66,.72,1.24,.32,1.27,1.14,.57,1.46-5.88,2.68-10.59,7.4-17.13,8.97-6.48,1.55-12.89,1.66-19.58-.16Z"/>
  <path class="cls-7" d="M257.17,123.04c.71,.43,1.38,.97,2.15,1.26,3.84,1.45,3.68,1.38,2.49,5.04-1.56,4.83-5.54,5.74-9.84,6.36-.99,.14-2.1-.04-2.88,.83-.39,.09-.79,.19-1.18,.28-.15-.11-.32-.14-.5-.09,1.16-4.45,2.26-8.92,3.52-13.34,.52-1.83,1.56-3.03,3.7-1.43,.71,.53,1.68,.73,2.53,1.08Z"/>
  <path class="cls-10" d="M167.03,141.47c.6-.62,1.2-1.24,1.8-1.86,2.02-.71,4.04-1.42,6.06-2.13,5.78-.88,11.25-.02,16.34,2.88,.02,.9-.7,.91-1.32,1.09-1.24,.35-2.57,.56-3.7,1.13-3.28,1.64-6.39,2.88-10.18,1.02-2.15-1.05-4.81-.63-7.26-.54-1.12,.04-2.13-.05-1.74-1.59Z"/>
  <path class="cls-4" d="M196.92,138.33c.58-.24,1.32-.34,1.73-.75,3.46-3.43,7.74-5.17,12.48-6.01,.61,.14,.72,.64,.86,1.12,.03,.81-.02,1.61,.71,2.26,1.87,1.66,2.01,3.52,.51,5.5-1.32-.15-2.69-.02-3.76,.65-1.74,1.08-3.46,.99-5.28,.51-.06-.1-.14-.14-.26-.11-1.74-.64-3.5-1.22-5.39-.65-.86-.05-1.86,.34-2.46-.58-.66-1.01,.69-1.23,.87-1.93Z"/>
  <path class="cls-10" d="M161.44,143.54c-2.68,1.3-5.32,2.63-8.02,3.84-.73,.32-1.7,.4-2.46-.06-3.48-2.1-7.37-3.07-11.26-4.06-.32-.08-.6-.33-.94-.53,5.19-4.84,18.31-4.36,22.68,.82Z"/>
  <path class="cls-15" d="M257.17,123.04c-.85-.35-1.82-.55-2.53-1.08-2.14-1.6-3.17-.41-3.7,1.43-1.26,4.42-2.36,8.89-3.52,13.34,.17,.03,.33,.06,.5,.09,.39-.09,.79-.19,1.18-.28,.02,.71,2.13-.72,1.12,1.04-1.12,.38-2.24,.77-3.37,1.15-.69-.53-1.38-1.06-2.07-1.59,2.23-5.44,2.25-10.81,.79-16.59-.81-3.22-1.79-5.62-4.46-7.62-1.91-1.42-2.63-3.7-2.71-6.08,.01-.95-.43-1.67-1.17-2.25,.77-.72,1.53-1.44,2.3-2.16,.21,.19,.41,.39,.62,.58,.23,1.09-.78,2.08-.24,3.19,.05,.43,.09,.87,.14,1.3,.07,.46,.13,.92,.2,1.39,2.13,3.76,5.86,5.93,9.01,8.68-.3,.29-.59,.59-.89,.88-.49-.18-.88-.81-1.48-.49-.64,.35-.34,.94-.18,1.44,.19,.59,.29,1.4,1.06,1.41,.78,0,1.3-.61,1.57-1.34,.82-.13,.88-.76,.92-1.39,2.77,1.08,5.35,2.51,7.91,4-.33,.31-.66,.63-.99,.94Zm-8.64,2.07c.57-.93,1.2-1.85,.65-2.94-.04-.08-.56-.05-.73,.08-1.15,.9-.53,1.87,.08,2.86Z"/>
  <path class="cls-5" d="M239.52,102.45c-.77,.72-1.53,1.44-2.3,2.16-.63,.28-1.09,.72-1.27,1.4l-.03,.04c-.08,.04-.19,.07-.24,.14-3.03,3.85-3.07,3.9-7.16,.57-2.41-1.96-5.12-3.57-7.21-5.89-.48-.54-1.66-1.29,.25-1.47,1.58,.47,3.2,.47,4.83,.37,1.54,.36,3.1,.46,4.68,.26,2.93,.24,5.87,.5,8.82,.2,.3,.54,.26,1.1,.1,1.67-.16,.19-.31,.38-.47,.56Z"/>
  <path class="cls-10" d="M236.13,138.22c-1.87-.25-4.45-.33-7.06-.1-1.88,.17-2.49-.95-1.99-2.63,.58-1.94,4.79-4.69,6.83-4.58,.63,.03,1.1,.31,1.39,.77,1.01,1.63,2.07,3.24,2.91,4.95,.54,1.1,.23,2.01-2.08,1.59Z"/>
  <path class="cls-10" d="M76.61,142.44c4.68-2.37,9.23-1.66,14.11,.16-4.89,2.64-9.45,4.28-14.11-.16Z"/>
  <path class="cls-10" d="M122.43,142.67c-4.17,.78-8.07,5.3-12.91,.74,4.2-2.86,8.48-2.5,12.91-.74Z"/>
  <path class="cls-9" d="M192.82,88.73c-.1,.68-.65,.91-1.19,.91-5.27,.08-10.43,1.03-15.63,1.7-.17-.23-.35-.45-.52-.68,.71-1.15,2.36-.39,3.1-1.48,0,0,0-.07,0-.07,3.26,.3,6.43-.56,9.65-.72,1.55-.08,3.12-.56,4.59,.34Z"/>
  <path class="cls-4" d="M220.97,139.81c-.16-.4-.31-.81-.52-1.34-.85,.45-.26,1.58-1.07,1.89-.17-1.65-.33-3.31-.5-4.96,1.69,1.11,1.55-.15,1.58-1.17,1.26,.31,2.01,1.24,2.75,2.17-1.26,.64-2.14,1.48-1.64,3.03-.2,.13-.39,.25-.59,.38Z"/>
  <path class="cls-3" d="M178.58,89.18c-.74,1.08-2.4,.32-3.1,1.48-.61,.12-1.23,.24-1.84,.36-1.43-.64-2.9,.46-4.33-.07,2.47-1.66,5.34-2.19,8.21-2.7,.63-.11,1.4-.12,1.07,.93Z"/>
  <path class="cls-4" d="M221.56,139.44c-.5-1.55,.38-2.39,1.64-3.03,.39,.24,.75,.53,1.16,.71,.55,.24,1.04,.57,.97,1.17-.08,.7-.8,.61-1.32,.71-.82,.15-1.64,.3-2.46,.45Z"/>
  <path class="cls-1" d="M204.16,141.6c1.82,.48,3.54,.58,5.28-.51,1.07-.67,2.44-.8,3.75-.65,.39,1.08-.1,1.5-1.17,1.49-.77-.49-1.28,.05-1.84,.42-.17,.05-.32,.12-.46,.22-.33,0-.65,.01-.98,.02-1.51-.43-3.33,.55-4.6-.99Z"/>
  <path class="cls-15" d="M216.53,144.97c-.4,1.01-1.45,1.01-2.09,.78-2.1-.79-3.75-.26-5.23,1.22-.01-.72-.03-1.44-.05-2.16,.54-.19,1.08-.37,1.61-.56,1.82,.93,3.82,.58,5.75,.73Z"/>
  <path class="cls-10" d="M59.25,157.73c1.13-.41,2.04-.79,2.98-1.08,1.03-.32,1.65,.16,1.71,1.14,.06,1.03-.84,.78-1.4,.73-1.04-.1-2.19,.17-3.29-.79Z"/>
  <path class="cls-1" d="M198.51,140.84c1.9-.57,3.65,0,5.39,.65-1.8-.18-3.66,.12-5.39-.65Z"/>
  <path class="cls-13" d="M94.52,169.39c.78-.31,1.53-.24,2.27,.14-.81,.74-1.57,.82-2.27-.14Z"/>
  <path class="cls-11" d="M168.23,91.6c-.07,.79-.27,1.48-1.3,1.41,.16-.72,.61-1.17,1.3-1.41Z"/>
  <path class="cls-13" d="M173.78,155.7c-.74-.05-1.47-.1-2.21-.16,.77-.45,1.52-.51,2.21,.16Z"/>
  <path class="cls-13" d="M179.45,163.73c.74-.2,1.43-.12,2.06,.33-.7-.04-1.43,.13-2.06-.33Z"/>
  <path class="cls-13" d="M86.72,168.15c.24,.06,.49,.11,.74,.17-.24-.06-.49-.11-.74-.17Z"/>
  <path class="cls-13" d="M166.99,166.74c.18-.05,.35-.09,.53-.14-.18,.05-.35,.09-.53,.14Z"/>
  <path class="cls-13" d="M182.87,164.43c.19,.03,.39,.05,.58,.08-.19-.03-.39-.05-.58-.08Z"/>
  <path class="cls-13" d="M213.69,163.58c.29,.1,.58,.21,.87,.31-.29-.1-.58-.21-.87-.31Z"/>
  <path class="cls-15" d="M236.95,107.04c-.34-.33-.68-.66-1.02-1,0,0,.03-.04,.03-.04,.35,.32,.69,.64,1.04,.97l-.05,.07Z"/>
  <path class="cls-3" d="M315.94,87.51c11.35,.47,22.71,.56,34.06,.49,1.2,0,2.41,.1,3.61,.16-.02,.38-.04,.77-.06,1.15-10.65,0-21.3,0-31.94,0-4.45-.09-8.9-.19-13.35-.28-3.25-.63-6.52-.36-9.79-.28l.1-.22c0-.32,0-.64-.01-.96,5.8-.02,11.59-.04,17.39-.06Z"/>
  <path class="cls-15" d="M321.61,89.31c10.65,0,21.3,0,31.94,0,.03,.15,.02,.29-.04,.42-.34,.17-.69,.33-1.03,.5-8.42-.02-16.84-.05-25.25-.07-.58-.48-1.16-.48-1.74,0-.92,0-1.83,0-2.75,0-.37-.15-.74-.3-1.12-.44,0-.14-.01-.28,0-.41Z"/>
  <path class="cls-15" d="M286.76,89.28c-5.62-.04-11.24-.09-16.86-.13,0-.26,0-.53,.01-.79,1.3-.08,2.6-.15,3.9-.23,4.3,.09,8.6,.19,12.91,.28,.01,.29,.03,.58,.04,.87Z"/>
  <path class="cls-16" d="M298.47,88.75c3.27-.08,6.54-.35,9.79,.28-.02,.31-.05,.62-.07,.93-3.96,.32-7.91,.54-11.84-.32,.71-.3,1.41-.59,2.12-.89Z"/>
  <path class="cls-13" d="M308.18,89.95c.02-.31,.05-.62,.07-.93,4.45,.09,8.9,.19,13.35,.28,0,.14,0,.28,0,.41-.2,.15-.4,.3-.61,.45-4.28-.07-8.55-.14-12.83-.22Z"/>
  <path class="cls-13" d="M298.47,88.75c-.71,.3-1.42,.59-2.12,.89-3.21,.14-6.4-.03-9.59-.35-.01-.29-.03-.58-.04-.87,3.95-.29,7.89,.7,11.85,.12l-.1,.22Z"/>
  <path class="cls-13" d="M269.91,88.36c0,.26,0,.53-.01,.79-2.45,0-4.9-.02-7.35-.03,0-.26,0-.52-.01-.78,2.46-.21,4.92-.29,7.38,.03Z"/>
  <path class="cls-16" d="M321.01,90.17c.2-.15,.4-.3,.61-.45,.37,.15,.75,.3,1.12,.44-.57,0-1.15,0-1.72,0Z"/>
  <path class="cls-16" d="M325.49,90.17c.58-.48,1.16-.49,1.74,0-.58,.24-1.16,.24-1.74,0Z"/>
  <path class="cls-16" d="M352.48,90.23c.34-.17,.69-.33,1.03-.5-.06,.72-.52,.67-1.03,.5Z"/>
  <path class="cls-14" d="M202.33,85.81c-1.35,.32-2.7,.2-4.05,.05,1.34-.37,2.69-.34,4.05-.05Z"/>
  <path class="cls-14" d="M197.6,85.85c-.88,0-1.77,0-2.65,0,.88-.31,1.77-.29,2.65,0Z"/>
  <path class="cls-14" d="M194.21,85.85c-.45,.13-.89,.17-1.27-.18,.42,.06,.85,.12,1.27,.18Z"/>
  <path class="cls-10" d="M254.87,76.65c1.63-.56,3.27-1.12,4.9-1.67,3.34-.07,6.38,.76,9.36,2.33,2.81,1.48,3.74,3.88,4.37,6.6,.17,.75,.14,1.64-.95,1.55-2.46-.2-4.97,.55-7.4-.71-2.89-1.49-6.34,.32-6.48,3.56-.27,6.44-.04,12.89,2.08,19.1,.5,1.47-.51,1.45-1.45,1.57-.19-.02-.37-.04-.56-.06-1.31-.43-2.63-.84-3.94-1.3-2.58-.9-4.83-2.22-6.16-4.69-.38-.79-.76-1.58-1.14-2.37-.18-.69-.36-1.38-.54-2.07,.04-.06,.12-.13,.11-.18-.04-.12-.13-.23-.19-.35-.5-4.93,.08-9.73,1.92-14.36,0,0-.04-.14-.04-.14,0,0,.04,0,.04,0,1.45-2.76,4.3-4.33,6.08-6.81Z"/>
  <path class="cls-10" d="M267.5,100.91q5.56,.11,4.02,5.39c-.08,.26-.18,.52-.27,.78-1.44,4.2-3.64,4.95-7.58,2.63-.46-.27-.64-.6-.72-1.06-.11-.63-.19-1.26-.31-1.89q-1.15-5.97,4.85-5.85Z"/>
  <path class="cls-3" d="M298.57,88.53c-3.96,.58-7.9-.41-11.85-.12-4.3-.09-8.6-.19-12.91-.28,.02-.23,.04-.46,.06-.69,8.23-.57,16.46,.14,24.69,.13,0,.32,0,.64,.01,.96Z"/>
  <path class="cls-3" d="M273.87,87.43c-.02,.23-.04,.46-.06,.69-1.3,.08-2.6,.15-3.9,.23-2.46-.31-4.92-.24-7.38-.03-.54-.22-1.52,.27-1.58-.64-.06-1.06,1.03-.98,1.65-.95,3.75,.17,7.5,.45,11.25,.69Z"/>
  <path class="cls-14" d="M277.3,137.63c0-.56,.02-1.12,.03-1.68,.61,.08,1.42-.02,1.41,.85-.01,.86-.83,.75-1.44,.83Z"/>
  <path class="cls-14" d="M247.5,100.55c.38,.79,.76,1.58,1.14,2.37-.5,.03-1,.07-1.5,.1-.17-.34-.34-.68-.51-1.02,.64-.28,.76-.86,.87-1.45Z"/>
  <path class="cls-14" d="M281.85,137.15c-.78,.58-1.55,1.16-2.33,1.73-.29-1.95,1.02-1.84,2.33-1.73Z"/>
  <path class="cls-14" d="M259.76,110.63c-.79,.15-1.52,.06-2.1-.55,.73,.07,1.54-.14,2.1,.55Z"/>
  <path class="cls-14" d="M258.74,108.91c.19,.02,.37,.04,.56,.06-.19-.02-.37-.04-.56-.06Z"/>
  <path class="cls-3" d="M206.97,88.19c-.03-.3-.07-.6-.1-.9,12.43-.13,24.87-.27,37.3-.38,.57,0,1.51-.22,1.46,.76-.04,.75-.83,.58-1.35,.58-12.44-.01-24.87-.04-37.31-.06Z"/>
  <path class="cls-12" d="M203,87.29c-1.87,.72-3.78,.35-5.68,.24,.06-.15,.15-.28,.25-.4l5.43,.16Z"/>
  <path class="cls-14" d="M231.08,100.02c-1.57,.2-3.13,.1-4.68-.26,1.57-.08,3.15-.43,4.68,.26Z"/>
  <path class="cls-14" d="M239.9,106.22c-.54-1.11,.47-2.11,.24-3.19,.24,.02,.48,.04,.72,.06-.32,1.05-.64,2.09-.96,3.13Z"/>
  <path class="cls-14" d="M197.57,87.13c-.1,.12-.19,.26-.25,.4-.53-.06-1.06-.11-1.59-.17,.56-.48,1.2-.33,1.84-.23Z"/>
  <path class="cls-14" d="M239.99,101.88c.16-.57,.2-1.12-.1-1.67,1.14,.49,.98,1.06,.1,1.67Z"/>
  <path class="cls-14" d="M193.44,87.36c-.19,0-.38-.02-.57-.03,.2-.21,.39-.22,.57,.03Z"/>
  <path class="cls-12" d="M240.68,89.34c-.21,.25-.41,.25-.61,0,.2,0,.4,0,.61,0Z"/>
  <path class="cls-12" d="M245.21,89.75c-.21-.14-.43-.27-.64-.41,.37-.1,.62-.02,.64,.41Z"/>
  <path class="cls-14" d="M246.87,97.96c.07,.12,.15,.23,.19,.35,.01,.04-.07,.12-.11,.18-.04-.11-.1-.23-.13-.35-.01-.05,.03-.12,.04-.18Z"/>
  <path class="cls-14" d="M244.53,99.1c.22-.12,.44-.24,.66-.35-.22,.12-.44,.24-.66,.35Z"/>
  <path class="cls-8" d="M212.7,131.97c-.24,.24-.48,.48-.72,.72-.14-.48-.24-.99-.86-1.12,.1-.58-.82-1.04-.21-1.68,1.52-.06,1.64,1.02,1.78,2.09Z"/>
  <path class="cls-12" d="M210.62,143.12c.39-.02,.78-.03,1.16-.05-.34,.09-.67,.19-1,.28-.1-.05-.15-.13-.16-.23Z"/>
  <path class="cls-14" d="M207.56,163.54c-.22,.12-.44,.25-.67,.36-.02,.01-.11-.12-.17-.19,.24-.11,.47-.22,.71-.33,0,0,.14,.16,.14,.16Z"/>
  <path class="cls-15" d="M248.79,83.46s-.05,0-.04,0c-.13-.08-.27-.17-.4-.25,.15,.08,.3,.17,.44,.25Z"/>
  <path class="cls-13" d="M173.64,91.02c.61-.12,1.23-.24,1.84-.36,.17,.23,.35,.45,.52,.68-1.15,.98-3.56,1.06-3.46,2.75,.11,1.95,2.53,2.08,4.03,2.88,.48,.25,1.07,.29,1.23,.92-2.03,.35-6.37-1.38-7.2-2.95-.34-.65-.38-1.36,.42-1.9,.91-.62,1.75-1.35,2.62-2.03Z"/>
  <path class="cls-14" d="M248.36,118.46c.3-.29,.59-.59,.89-.88,.33,.17,.67,.35,1,.52-.04,.63-.09,1.25-.92,1.39-.32-.34-.65-.68-.97-1.02Z"/>
  <path class="cls-14" d="M240.24,108.9c-.07-.46-.13-.92-.2-1.39,.35,.42,.38,.89,.2,1.39Z"/>
  <path class="cls-14" d="M237,106.97c-.35-.32-.69-.64-1.04-.97,.18-.68,.64-1.11,1.27-1.4,.74,.57,1.18,1.3,1.17,2.25-.5-.37-.95-.15-1.4,.12Z"/>
  <path class="cls-14" d="M247.91,136.82c-.17-.03-.33-.06-.5-.09,.18-.05,.35-.02,.5,.09Z"/>
  <path class="cls-7" d="M248.36,118.46c.32,.34,.65,.68,.97,1.02-.27,.74-.79,1.35-1.57,1.34-.77,0-.87-.82-1.06-1.41-.16-.5-.46-1.09,.18-1.44,.6-.32,.99,.31,1.48,.49Z"/>
  <path class="cls-7" d="M248.53,125.11c-.61-.99-1.23-1.96-.08-2.86,.17-.13,.69-.16,.73-.08,.55,1.09-.08,2.01-.65,2.94Z"/>
  <path class="cls-12" d="M212.03,141.93c-.59,.22-1.14,.64-1.84,.42,.56-.38,1.07-.92,1.84-.42Z"/>
</svg>