<?xml version="1.0" encoding="UTF-8"?>
<svg id="Layer_1" data-name="Layer 1" xmlns="http://www.w3.org/2000/svg" viewBox="0 0 414 200">
  <defs>
    <style>
      .cls-1 {
        fill: #f7b7d3;
      }

      .cls-2 {
        fill: #00bff3;
      }

      .cls-3 {
        fill: #ebe2cc;
      }

      .cls-4 {
        fill: #fff9b8;
      }

      .cls-5 {
        fill: #fff200;
      }

      .cls-6 {
        fill: #fbb040;
      }

      .cls-7 {
        fill: #9ed2f1;
      }

      .cls-8 {
        fill: #b7ac97;
      }

      .cls-9 {
        fill: #bbad98;
      }

      .cls-10 {
        fill: #c6c3bf;
      }

      .cls-11 {
        fill: #dfdad5;
      }

      .cls-12 {
        fill: #a7b9d1;
      }

      .cls-13 {
        fill: #433e3a;
      }

      .cls-14 {
        fill: #767575;
      }

      .cls-15 {
        fill: #524d4c;
      }

      .cls-16 {
        fill: #231f20;
        font-family: MyriadPro-Regular, 'Myriad Pro';
        font-size: 12px;
      }
    </style>
  </defs>
  <path class="cls-13" d="M186.1,160.79c.03-.27,.06-.54,.09-.81,.03-.43,.07-.86,.1-1.29,1.67,.29,3.34,.77,5.01,.82,3.21,.11,6.5,.22,9.06-2.3,.58-.57,1.21-1.29,.92-2.09-.26-.72-1.17-.66-1.88-.75-5.67-.77-10.88-2.89-15.79-5.69-7.62-4.35-14.52-10.07-23.45-11.89-.83-.17-1.56-.85-2.34-1.27-.62-.33-1.27-.74-1.79,.15-.27,.24-.54,.47-.81,.71-1.18,.37-2.35,.57-3.52-.04-.41-.7-1.06-.62-1.71-.51,0,0-.2,0-.2,0,.81-1.9,2.02-.23,3.03-.33l.2,.13,.23-.08c.21-.15,.61-.4,.59-.45-1.55-3.41-1.39-7.44-4.1-10.44-2.19-2.43-3.44-5.37-3.83-8.63,.32,0,.65-.01,.97-.02,1.12,2.76,1.5,5.91,4.01,7.86,2.34-3.32,1.68-6.35-.33-9.42-.91-1.39-1.58-2.97-2.08-4.56-.61-1.95-1.42-1.91-2.64-.59-.73,.28-1.45,.44-2.04-.29-.24-.52-.48-1.04-.72-1.56,.57-.81,2.12-.66,2.11-2.17-1.44-.2-2.59,.48-3.76,1.05-4.51,1.25-4.55,1.31-3.02,4.61,.46-1.65,1.86-1.81,3.06-2.28,.6,.82,2.32,1.42,1.02,2.67-.93,.89-2.24,2.33-3.69,.42-.1-.12-.2-.24-.31-.36-.02,.11-.04,.23-.06,.34,.13-.01,.26-.03,.39-.04-.76,.88,.1,1.83-.12,2.73-.59-.02-1.26-.22-1.53,.58-2.63,2.3-3.24,2.33-4.57,.34-.44-.66,.2-.91,.38-1.35,1.76-1.07,5.28-.8,3.52-4.55-.06-.13-.23-.21-.5-.45-.93,1.35-1.65,2.89-3.11,3.76-2.15,1.12-4.34,1.81-6.92,.1,.19,1.55,1.77,2.07,1.22,3.17-.62,1.22-2,1.35-3.2,1.67-.49-.12-1.03-.13-1.31-.66,.91-.75,2.42-.41,3.24-1.83-.43-.33-.81-.71-1.26-.97-2.24-1.32-2.46-2.62-.28-4.34,1.08-.85,1.75-2.19,2.24-3.53,.88-.57,1.14-1.41,1.3-2.47-1.68,.69-3.54,.22-4.68,1.69-.42,.32-1.17,.3-1.11,1.1-.17,0-.24,.08-.22,.25-.74-.58-1.2-.42-1.37,.51h-.02c-1.53-.38-2.34,.71-3.26,1.57-1.22,.6-2.17,1.53-3.08,2.5-3.21,3.42-2.86,4.79,1.52,6.13-.6,.77-1.48,.36-2.22,.52-2.76-1.21-3.32-2.61-1.93-5.17,1.59-2.92,4.22-4.76,7.07-6.34,.85-.47,1.77-.82,.75-2.14-7.15-9.18-12.4-19.45-17.32-29.91-2.91-6.18-5.25-12.59-7.83-18.89,1.62-.37,1.67,.98,2.03,1.89,4.19,10.47,8.61,20.84,14.13,30.71,2.91,5.19,6.07,10.22,9.58,15.02,.52,.71,1.04,1.68,2.34,1.4,5.05-1.11,5.74-2.97,2.69-7.03-4.28-5.71-7.86-11.86-11.29-18.09-6.69-12.16-11.82-25.02-17.03-37.84,1.55-1.93,1.46,.31,1.66,.77,2.17,5.06,4.2,10.18,6.34,15.25,6.15,14.51,13.3,28.49,22.81,41.18,.35,.47,.61,1.01,1.05,1.73,.99-2.39,1.65-4.7,3.12-6.62,3.08-4.01,7.3-4.45,11.11-1.09,.45,.4,.78,1.1,1.49,.95,.65-.14,.53-.82,.63-1.32,1.88-9.14,8.27-11.7,16.27-6.28,.27-1.62,.44-3.15,.79-4.64,1.15-4.9,5.2-8.13,10.23-8.24,2.49-.06,4.79,.69,6.04,2.81,1.11,1.88,2.22,1.46,3.64,.8,.19-.14,.37-.28,.56-.42,.04-.39,.08-.79,.12-1.18,.06-.05,.18-.11,.17-.15-.03-.13-.1-.25-.15-.38-.09-.91-.16-1.83,.3-2.68,.35,0,.71,.02,1.06,.02-.05,.72-.09,1.44-.14,2.16-.05,.25-.11,.5-.16,.75,.35,5.48,1.28,10.88,2.7,16.18,1.38,5.14,4.32,9.52,7.37,14.45,.96-2.63,.74-4.75,.79-6.82,.16-6.74-2.15-13.04-3.53-19.51-1.08-5.08-.49-6.37,4.13-8.47,1.74-.79,2.35-1.63,1.06-3.24,.29-.11,.57-.23,.86-.34,.17,.12,.34,.24,.5,.36,.33,.18,.45,0,.5-.29,.72-5.37,4.51-9.25,9.79-10.08,2.93-.46,5.06,1.05,7.17,3.08,.47-1.52,.8-2.77,1.23-3.98,1.7-4.82,5.38-7,10.4-5.97,1.33,.28,1.85,.11,2.39-1.13,1.96-4.51,5.33-6.53,10.32-6.39,.33,.41,.75,.37,1.19,.25,.19,.06,.38,.12,.58,.18,.25,.95-.29,1.2-1.09,1.23-3.78-1.38-8.88,1.35-10,5.56-.92,3.48-.73,6.98,.27,10.48,1.96,6.84,7.8,9.65,13.57,13.28-.14-5.21-.37-9.83-4.32-13.47-2.37-2.19-3.54-5.05-3.11-8.37,2.58-2.53,4.66-5.41,6.13-8.72,.75-1.69,1.52-3.38,2.26-5.08,.81-1.86,1.29-3.6-1.66-4.01,1.47-2.92,3.95-4.74,5.91-6.98,.29-.33,.59-.76,1.09-.61,.67,.2,.5,.86,.57,1.35,.36,2.45,.64,4.92,1.05,7.36,.22,1.33,.05,1.96-1.44,1.28-1.3-.59-1.78-.18-2.15,1.23-.59,2.21-1.58,4.31-2.39,6.46-2.12,3.32-4.1,6.72-6.62,9.77-.11,.05-.18,.13-.2,.25-.2,.26-.4,.52-.6,.77-.35,3.21,1.75,4.94,4.55,3.76,16.61-7.02,32.89-14.78,49.34-22.17,2.98-1.34,6.16-2.34,8.77-4.42,.09,.32,.18,.63,.28,.95,0,.18,0,.36,0,.54-5.53,3.07-11.44,5.34-17.16,7.99-10.59,4.9-21.24,9.69-31.9,14.44-1.67,.74-2.29,1.6-2.02,3.41,.32,2.1,.37,4.23,.47,6.36,.04,.75,.21,1.36,.75,1.9,5.16,5.19,7.65,11.65,8.89,18.66,.17,.95,.62,1.59,1.16,2.3,5.04,6.73,7.58,14.22,6.58,22.64-.27,2.26,1.07,4.09,1.09,6.21-.16,.51-.16,1.1-.71,1.42-.75-.84-.08-2.29-1.24-3.05-.78,1.41-1.3,2.9-2.51,3.82-1.21,.92-1.22,1.89-.93,3.23,1.31,6.08,1.53,11.96-3.84,16.54-.7,.59-.57,1.29-.09,1.89,.61,.76,1.15,.05,1.56-.28,1.46-1.16,2.85-2.39,4.27-3.6l.07,.06c0,.45,.01,.89,.02,1.34-4.08,4.42-4.97,6.46-6.62,12.66-1.01,3.8-1.91,7.99-7.15,8.4-.78,.06-1.07,.74-.98,1.33,.13,.87,.97,.7,1.52,.56,1.76-.45,3.27-1.37,4.6-2.61,.63-.59,1.13-1.66,2.29-.79-.72,1.12-.12,2.81-1.59,3.61-.39,.02-.79,.05-1.18,.07-.18-.48-.37-.38-.55,0l.03-.03c-1.97,1.04-4.09,1.28-6.28,1.2-.55-.19-.66-.64-.69-1.13,1.12-1.85,1.12-3.9,.99-5.95-.09-1.37,.64-3.33-.62-3.97-1.62-.82-2.75,1.1-4.03,1.96-.39-.2-.78-.4-1.17-.6,.11-.38,.22-.76,.33-1.14,.36-.73,.22-1.49,.11-2.25,.2-2.74,.95-5.43,3.05-7.17,3.06-2.54,3.38-5.78,3.32-9.26-.06-3.57,.58-7.02,1.22-10.53,.65-3.53,1.38-7.25-1.2-10.65-2.08-2.72-2.76-6.12-2.04-9.38,.69-3.12-.67-5.28-2.59-7.07-2.74-2.55-4.81-5.37-5.62-9.03-4.97,1.73-7.93,4.75-8.68,10.04-.32,2.25-.94,4.38-.71,6.73,.44,4.62,.17,9.25-1.59,13.63-.82,2.03-1.04,4.07-1.08,6.22-.1,7.25-1.03,14.34-4.95,20.7-.74,1.2-2,2.25-2.3,3.54-1.07,4.6-2.71,8.94-5.3,12.93,1.54,.86,2.56-.56,3.8-.37,0,.35,0,.71,0,1.06-.21,.25-.66,.64-.6,.74,1.17,2.07,3.65,3.09,5.91,2.06,1.4-.64,3.39,.18,4.25-1.7,.46-.04,.92-.09,1.38-.13,.68,.1,.95-1.15,1.78-.53,.68,1.01,1.62,1.5,2.85,1.43,.14,.96,1.44,.56,1.68,1.41-1.09,3.25-4.19,5-5.9,7.79-.25,.25-.5,.5-.75,.75-3.02,.71-3.3,1.14-1.89,2.9-.07,.36-.15,.72-.22,1.08-1.85-1.93-3.96-1.89-6.44-1.27-3.83,.95-7.5,.2-10.4-2.59-1.53-1.47-2.94-.39-3.71,.28-.97,.83,.67,1.47,1.18,2.17,.46,.63,1.14,1.1,1.72,1.64-.01,.39-.02,.78-.04,1.17-3.09-3.17-6.48-5.36-11.15-3.42-.03-.32-.06-.64-.09-.96,7.03-1.19,13.58-3.72,19.88-6.96,2.03-1.04,2.16-1.84,.39-3.2-1.74-1.34-3.71-2.03-5.98-1.93-4.13,.19-8.14,1.04-12.13,1.98,0-.36,0-.72,0-1.08,1.38-.82,3.43-.19,4.32-2.19,1.04-2.35,2.38-4.57,3.48-6.89,.36-.75,1.42-1.83-.07-2.43-1.23-.49-2.7-1.2-3.77,.44-1.27,1.93-3.42,3.15-4.29,5.45-.36,.96-1.44,1.67-2.49,1.89-2.39,.49-3.17,2.25-3.77,4.23-.55,.48-1.2,.63-1.92,.52-1.46-.56-2.93-1.12-4.39-1.68-.02-.36-.03-.71-.05-1.07,1.53,.13,2.91,.72,4.26,1.37,.53,.25,1.05,.33,1.35-.28,.22-.46,.5-1.01,.44-1.47-.09-.73-.81-.48-1.3-.48-1.51,.02-3-.04-4.48-.41-.67-.17-1.48-.38-1.52,.77-.55,.11-1.07,.11-1.42-.44Zm10.65-89.18c-.44,.01-.87,.06-1.15,.46-.96,.43-1.99,.77-2.87,1.33-1.01,.64,.07,.91,.38,1.29-1.42,1.19-1.43,2.69-.9,4.35,1.69-.35,3.02-1.46,4.55-2.13,1.57-.68,1.06-2.08,.73-2.97-.5-1.37-1.42-.09-2.13,.1-.75,.2-1.37,.83-2.24,.62,.47-1.35,2.05-1.25,2.87-2.14,.34-.21,.68-.41,1.01-.62,.2-.15,.39-.29,.59-.44-.35-.35-.61-.14-.85,.15Zm-36.11,16.45c-.31,.15-1.05,.05-.68,.64,.26,.42,.75,.03,1.06-.27,.06-.18,.12-.36,.18-.54-.18,.05-.37,.11-.55,.16Zm15.23-6.74c-.52-.08-.94,.04-1.18,.55-.5-.07-1.01-.14-1.51-.21,.22-1.05,1.38-.98,1.96-1.59,.81-.84,2.89-.77,2.55-2.2-.36-1.52-1.89-2.52-3.55-2.91-.69-.16-1.42-.22-2.12-.19-5.25,.23-8.82,3.89-9.22,9.21-.5,6.77,1.96,12.87,4.29,18.98,1.55,4.07,4.74,6.87,7.98,9.91,.21-.63,.34-.87,.37-1.12,.8-5.52-.92-10.69-2.3-15.89-.96-3.58-2.57-7.02-2.17-10.84,.15-1.4,.09-3.12,2.2-3.31-.31,.81-.6,1.63-.39,2.52-.79,.78-.59,1.77-.63,2.73-.08,1.88,.34,2.65,2.3,1.37,1.69-1.1,3.51-2.07,5.39-2.82,2.54-1.01,4.11-2.38,3.04-5.33-.26-.49-.7-.49-1.16-.4-.09-.58,.95-.89,.21-1.85-1.9,1.31-4.43,1.45-6.05,3.36h0Zm-18.36,21.43c-.19,2.88,.34,5.62,1.68,8.2,2.43,4.69,4.78,9.42,4.9,15.04,.89-.88,1.04-1.72,1.15-2.61,.68-5.85,0-11.66-.53-17.47-.15-1.65-.15-3.38-1.01-4.9,.08-1.03,.44-2.46-.39-2.92-.91-.51-1.93,.66-2.74,1.26-.76,.56-1.45,1.14-1.99,2.15l-.06-.07c-.61,.69-.38,1.08-.99,1.33m25.92,15.35c.05,.05,.11,.11,.16,.16-.07-.04-.13-.09-.2-.13-.32-.91-.65-1.81-.95-2.72-.31-.9-.59-1.82-.96-2.96-2.13,4.04-2.01,4.34,1.95,5.65Zm10.18-35.16c.96-1.83,3.6-1.3,4.45-3.38-1.79,.62-3.57,1.34-5.1,2.4-.74,.51,.38,.66,.67,.97-.14,1.21,0,2.35,.28,3.56,1.45,6.12,2.77,12.28,1.29,18.59-.31,1.34-.92,3.09,.55,3.41,1.73,.38,1.51-1.79,1.76-2.88,1.69-7.51,.79-15.14,.83-22.73,0-1.37-.75-1.07-1.58-.75-1.01,.4-1.89,1.37-3.15,.8Zm-12.44,7.96c.48-.64-1.69-2.45,.09-2.74,1.31-.22,.97,1.81,1.18,2.45,.81,2.46,.29,5.12,.97,8.08q2.03-5.91,.45-11.98c-1.97,1.09-3.89,2.15-5.8,3.21-.97,.43-1.91,.95-2.91,1.28-1.74,.57-1.83,1.33-1.25,3.1,1.9,5.81,3.63,11.74,2.75,17.97-.18,1.27-.2,2.13,1.05,2.53,1.38,.43,1.55-.82,1.95-1.64,1.42-2.86,1.36-6.04,1.88-9.08,.76-4.41,.8-8.81-.37-13.18Zm24.99,54.22c.2,.51,.17,1.15,.84,1.43,.29-.73,.19-1.37-.27-1.95-1.16-6.41-1.07-12.83-.4-19.3,.21-1.99,1.72-4.11,.65-5.89-2.36-3.91-4.59-7.89-6.75-11.96-.06,3.13,0,6.2,.24,9.26,.31,3.88,.7,7.75,1.19,11.61,.75,5.79,1.78,11.52,4.49,16.81Zm55.48-9.3c3.31-7.8,.51-19.14-6.72-26.32-.55,4.94-1.68,9.58-.25,14.32,1.21,3.98,2.44,7.95,3.67,11.92,.15,.92-.06,2.23,.94,2.51,1.05,.3,1.43-1.04,2.04-1.72,.17-.19,.22-.47,.32-.71Zm-51.98-46.65c-.18-.48-.35-.96-.53-1.44-1.63-5.17-3-10.39-2.55-15.87,.29-3.61,.51-7.32,4.58-9.09l.22,.05c.85-.21,1.97-.3,2.14-1.24,.18-.97-.87-1.44-1.58-1.95-.95-.69-1.94-1.16-3.2-1.12-4.67,.15-9.07,4.52-9.7,9.1-1.16,8.38,.86,16.22,4.04,23.77,1.87,4.45,3.16,9.2,6.03,13.21l-.05,.21c.15,.42,.21,.9,.46,1.23,.5,.66,.41,2.04,1.51,1.89,.9-.12,.71-1.31,.88-2.04,1.33-5.84,.48-11.4-2.25-16.71Zm-18.3,41.84c.09,.1,.18,.2,.28,.28,.02,.01,.12-.08,.18-.12-.12-.09-.23-.18-.35-.26-2.8-4.73-5.45-9.61-10.45-12.52-4.66-2.72-8.97-5.82-12.24-10.19-.3-.4-.68-1.02-1.27-.73-.69,.34-.82,1.12-.88,1.83-.39,5.08,.8,9.63,5.19,12.68,5.95,4.14,12.63,6.87,19.54,9.03Zm38.13-67.91c-.4-1.88-1.44-.69-1.96-.25-.91,.77-3.33,.85-1.73,3.05-.03,1.07,.18,2.09,.45,3.13,1.45,5.49,2.74,11.04,2.6,16.75-.1,4.16-.78,8.2-5,10.48-.65,.35-.93,.8-.73,1.5,.79,2.86,1.2,5.84,2.43,8.64,1.61-1.37,2.99-3.59,3.84-5.44,5.31-11.52,4.07-23.3,1.53-35.14-.21-.99-.5-2.06-1.42-2.74Zm-67.54,58.21c-.08-2.29-1.17-4.22-2.14-6.22-3.08-6.4-5.94-12.91-6.49-20.09-.38-4.9-.12-5.03,4.39-7.13,.52-.24,1.38-.25,1.35-1.05-.03-.68-.76-.94-1.29-1.25-4.95-2.88-11.55,1.03-11.56,7.05-.02,12.09,4.46,22.55,12.28,31.69,1.07,1.23,2.31,3.22,3.78,2.71,1.75-.61-.09-2.59,.16-3.98,.11-.58-.01-1.24-.49-1.72Zm54.13-56.94c.81,9.56,2.91,18.88,5.63,28.07,.27,.93-.07,2.53,1.18,2.67,1.28,.14,2.1-1.15,2.89-2.13,.58-.71,.87-1.53,1.12-2.39,1.03-3.58,.91-7.24,.28-10.82-1.02-5.84-2.4-11.62-3.49-17.45-.81-4.33-.73-4.4,3.17-6.53,1.21-.66,1.26-1.59,1.23-2.67-.03-1.27-1.11-1.27-1.92-1.44-4.02-.8-7.23,1.01-8.75,4.85-1,2.52-1.3,5.14-1.34,7.84Zm2.19,20.82c-1.71,2-2.06,3.98-2.18,6.02-.4,7.17,.81,14.15,2.45,21.08,1.81,7.62,3.38,15.28,2.28,23.16-.45,3.24,1.15,6.11,.76,9.28,1.08-.13,1.16-.75,1.41-1.18,4.08-7.14,5.48-15.05,4.25-22.88-1.86-11.87-5.52-23.4-8.98-35.48Zm-50.38,35.23c1.87,5.75,4.85,10.89,8.56,15.48,5.62,6.95,12.9,11.94,20.92,15.86,1.66,.81,3.39,1.59,5.36,1.5,.72-.03,1.22-.28,1.47-.92,.37-.92-.49-.95-.97-1.25-7.95-4.83-14.33-11.31-20.11-18.49-1.75-2.18-3.2-4.76-5.93-6.02-3.41-1.57-6.66-3.36-9.3-6.17Zm15.81-18.91c-.28,.63-.46,.92-.55,1.24-1.77,6.21-.58,12.13,2.85,17.31,5.77,8.72,11.04,17.78,17.42,26.1,.49,.64,.79,1.64,2.39,1.42-1.87-3.74-3.57-7.51-3.95-11.49-.51-5.4-3.67-9.16-6.69-13.21-4.81-6.45-10.13-12.68-11.47-21.37Zm26.94,49.92c2.28-5.67,5.49-10.48,8.1-15.57,2.69-5.24,1.03-10.87-.07-16.84-5.08,7.32-8.37,14.73-9.77,22.84-.53,3.08-1.03,6.48,1.74,9.57Zm4.53-49.49c-6.07,11.42-10.18,32.85-7.23,38.09,1.77-7.98,5.24-15.04,9.57-21.7,.78-1.21,.53-2.39,.29-3.59-.82-4.14-1.7-8.27-2.63-12.81Zm31.68-9.88c-.1,2.09,.84,3.83,1.99,5.41,4.16,5.77,8.11,11.66,11.51,17.91,.24,.44,.59,1.07,.97,1.13,.74,.13,.96-.7,1.22-1.21,1.41-2.78,.66-5.53-.15-8.29-2.12-7.19-6.9-12.27-13.06-16.24-.62-.4-1.19-1.39-2.03-.92-.79,.45-.28,1.47-.44,2.21Zm-93.24,28.63c-.99,1.52-1.07,2.86-.99,4.19,.24,4.25,2.91,7.12,5.99,9.6,2.18,1.76,4.96,2.42,7.65,3.11,4.01,1.04,7.92,2.48,12.23,2.73-2.14-1.84-2.99-4.89-5.8-5.92-5.13-1.9-9.92-4.28-13.96-8.04-1.82-1.69-3.3-3.65-5.11-5.67Zm102,10.21c-1.69,2.95-2.98,5.29-3.56,7.99-1.27,5.89-1.06,11.82-.68,17.76,.05,.72-.55,1.7,.54,2.09,1,.36,1.93,.02,2.73-.67,1.7-1.49,2.31-3.53,2.95-5.57,2.27-7.2,.17-14.02-1.98-21.59Zm-55.79-4.47c-.49-3.66-.06-7.29-1.78-10.81-3.21-6.55-8.12-12.09-11.02-18.79-.19-.44-.45-1.17-1.08-.91-.38,.16-.75,.8-.78,1.25-.15,2.29-.38,4.6,.31,6.86,2.67,8.78,8.8,15.38,14.36,22.4Zm-70.92-14.18c3.2-.08,4.98-1.22,5.76-3.61,.94-2.86,1.77-5.76,2.63-8.64,.49-1.64,1.04-3.23,2.71-4.09,.75-.39,2.07-.38,1.99-1.4-.07-.94-1.16-1.53-2.06-1.92-1.92-.83-3.8-.83-5.57,.47-2.21,1.62-3.43,3.98-4,6.46-.83,3.6-2.14,6.95-4.15,10.02-.8,1.22-.34,1.74,.75,2.2,.84,.35,1.7,.55,1.93,.53Zm106.68-41.93c-.58,5.16,1.41,8.65,4.68,11.54,2.4,2.11,4.91,4.1,7.42,6.08,1.85,1.46,3.78,2.82,6.25,4.66-.53-12.44-10.45-16.13-18.35-22.28Zm-24.63,91.08c1.33-.43,3.18,.54,4.29-1.18,3.56-5.51,5.75-11.4,4.82-18.08-.15-1.07,.29-2.77-.99-3-1.1-.2-1.6,1.44-2.18,2.39-3.59,5.95-5.47,12.7-8.96,18.7-.5,.85-.33,1.35,.74,1.31,.71-.02,1.43-.08,2.27-.14Zm24.3,3.7c-6.61-1.03-14.12,1.45-22.85,7.57,4.93,6.33,20,.87,22.85-7.57Zm-33.5-73.33c-4.22,6.92-.03,18.41,6.32,26.23,.37-1.07,.6-2.12,1.08-3.05,1.53-2.98,1.01-5.61-.74-8.41-1.34-2.14-2.36-4.52-3.22-6.95-.92-2.61-2.23-5.1-3.44-7.82Zm48.86-22.24c-.39,2.91-.69,5.55-1.1,8.17-.19,1.23,.47,1.97,1.2,2.78,2.7,3.04,4.4,6.58,4.22,10.64-.13,2.88,1.57,3.94,3.65,5.14,1.76-9.55-1.63-21.08-7.96-26.73Zm-36.85,29.8c1.03-.9,1.04-1.73,1.01-2.5-.16-3.37,.11-6.68,.7-10.02,.68-3.84,.31-7.77,.15-11.67-.03-.85-.03-1.56-1.36-1.2-5.95,1.64-6.82,3.04-5.25,8.95,.32,1.19,.71,2.37,1.15,3.53,1.57,4.13,3.24,8.23,3.6,12.91Zm-9.35,50.72c-3.01-4.38-6.21-8.58-8.93-13.07-3-4.96-8.32-5.62-13-7.55,6.05,8.24,12.88,15.59,21.93,20.63Zm56.3-59.5c-.87,4.65-.84,8.82,1.47,13.06,2.44,4.48,4.08,9.4,.07,14.11-.51,.6-.2,1.27,.2,1.69,.7,.75,1.08-.12,1.45-.5,.88-.9,1.47-1.98,1.88-3.17,2.08-6.08,1.28-12.05-.83-17.91-.94-2.6-2.07-5.16-4.22-7.28Zm-12.44-13.17c1.03-4.54,.98-8.97,.96-13.4-.02-6.26-.39-6.47-6.01-3.83-1.13,.53-1.47,.95-.7,2.12,2.01,3.09,2.5,6.66,2.49,10.19,0,2.49,.81,4,3.26,4.92Zm-86.65,12.3c-7.39,2.36-8.53,4.06-6.19,9.3,.99-.6,1.97-1.2,2.95-1.79q4.25-2.54,3.24-7.52Zm-15.92,12.37c-.17-1.22-.39-2.44-.49-3.67-.09-1.01-.5-1.12-1.39-.82-3.39,1.13-6,2.89-6.57,6.77-.21,1.43,0,1.79,1.42,1.29,1.92-.68,3.89-1.25,5.83-1.86,.85-.27,1.42-.73,1.2-1.7Zm88.79-17.3c-.06,.97-.13,1.94-.18,2.91-.04,.66,.02,1.38,.95,1.12,2.11-.59,4.04-1.59,5.05-3.6,.92-1.82-1.14-2.3-1.88-3.36-.35-.5-.82-.93-1.25-1.38-.49-.53-.93-1.06-1.8-.59-.75,.4-.95,.93-.9,1.72,.06,1.06,.02,2.12,.02,3.18Zm-6.21,33.17c2.27-5.07,1.99-9.78,1.5-14.54-1.06,1.5-2,2.97-3.25,4.2-.58,.57-.69,1.16-.48,1.91,.72,2.62,1.39,5.24,2.23,8.43Zm-35.94,33c-5.75-2.88-9.52-9.29-17.7-9.42,5.84,4.3,11.43,7.47,17.7,9.42Zm-25.3-28.48c-2.14,7.17-.99,9.21,5.3,9.78-1.83-3.18-3.94-6.14-5.3-9.78Zm83.2-19.94c-.34,4.1-.21,7.66,2.66,10.71,1.53-4.17,1.38-7.73-2.66-10.71Zm-4.64,49.47c4.47-1.95,5.15-3.53,4.02-8.9-2.9,2.25-3.59,5.29-4.02,8.9Zm-37.43-80.95c2.17-1.14,4.02-2.19,5.94-3.11,1.1-.53,.86-1.41,.87-2.26,0-.36-.12-.83-.53-.76-2.17,.37-3.53,2.21-5.48,3.04-1.16,.49-1.01,1.7-.79,3.08Zm33.89,14.27c-.14,3.37,1.02,6.02,3.33,7.57,.55-5.16,.25-5.84-3.33-7.57Zm10.12,48.68q3.2-5.62,1.16-9.27c-.97,2.94-1.23,5.82-1.16,9.27Zm-19.57-65.23c.48,3.21,.91,6.16,1.36,9.11,.09,.57,.31,1.06,1.03,.8,.54-.19,.53-.63,.36-1.08-.89-2.42-1.44-4.89-1.18-7.51,.06-.63-.43-1.11-1.57-1.32Zm-25.09,6.52c3.83-.62,7.67-2.94,7.83-4.58-3.56,1.31-6.35,2.89-7.83,4.58Zm17.34-13.95c1.41-1.03,3.49-1.2,3.34-3.53-.03-.48-.2-1.09-1-.81-1.97,.7-3.09,1.88-2.34,4.33Zm-25.99,45.45c-1.68,2.58-2.74,4.85,0,7.2v-7.2Zm.82-15.29c2.19-1.92,.94-3.09,0-4.29v4.29Zm-60.28,6.33c.13,.2,.25,.39,.38,.59,1.63-.83,3.25-1.66,4.88-2.48-1.95,.28-3.9,.5-5.26,1.89Zm19.19-8.49c-1.81,.2-2.94,.41-3.96,1.92,1.59-.3,2.51-.73,3.96-1.92Zm47.21,58.5c-.34-.04-.47,.18-.41,.43,.06,.23,.21,.5,.4,.6,.12,.06,.54-.14,.56-.27,.05-.37-.15-.66-.55-.76Zm-46.73-58.76c-.05-.06-.1-.15-.16-.16-.06,0-.12,.08-.18,.13,.08,.05,.17,.11,.25,.16,.03-.05,.06-.1,.08-.13Z"/>
  <path class="cls-15" d="M201.7,163.48c0,.36,0,.72,0,1.08-4.68,1.8-9.36,3.6-14.12,5.42,.88,2.2,2.7,3.13,4.59,3.89,2.36,.96,4.9,.7,7.37,.79,.03,.32,.06,.64,.09,.96-5.04,.64-9.67,.06-12.98-4.35-1.01-1.35-1.73-.19-2.99,.11,1.09,.89,1.82,1.53,2.59,2.1,6.64,4.97,13.9,8,22.43,7,0,.35,0,.69,0,1.04-5.67,.99-11.04,0-16.08-2.63-1.55-.81-2.76-.9-4.44-.11-6.19,2.9-12.55,2.35-18.78,.06-2.03-.75-3.79-.93-5.9-.28-6.03,1.86-12.12,2.12-18.13-.16-.87-.33-1.5-.22-2.23,.22-5.24,3.11-10.74,2.81-16.32,1.11-1.13-.34-2.1-.67-3.31-.04-6.15,3.24-12.54,3.17-18.97,.99-1.87-.63-3.52-.7-5.43-.07-4.82,1.59-9.87,2.22-14.82,1.12-4.41-.98-8.55-.75-12.73,.69-.52-.11-1.05-.21-1.57-.32,0-.18,0-.37-.01-.55,1.96-.99,4.36-.55,6.66-2.08-2.42-.75-3.76-2.68-5.94-3.3-.26-1.17-1.4-2.31-.1-3.52,3.32-1.09,6.25-2.99,9.39-4.45,1.24-.58,3.34-.87,3.15-2.36-.16-1.29-2.27-1.34-3.59-1.8-3.18-1.12-6.37,.46-9.54-.1-.18-1.39,.92-1.38,1.75-1.4,2.14-.07,3.84-1,5.62-2.13,4.85-3.09,9.83-2.86,14.62,.24,1.62,1.04,3.07,1.16,4.68,.12,5.68-3.68,11.48-3.35,17.25-.29,2.33,1.24,4.26,1.52,6.51-.37,3.31-2.79,7.18-2.19,10.94-.88,2.42,.84,4.69,2.08,7.45,1.62,1.76-.3,3.24-.69,4.82-1.79,4.57-3.17,9.73-2.82,14.57-.72,3.24,1.41,6.19,.9,9.22,.05,3.25-.91,6.43-1.45,9.66-.07-.05,.34-.09,.67-.14,1.01-3.05-.73-6.05-.89-9.55,.58,2.56,.81,3.63,3.55,5.74,3.33,2.03-.21,4.37-.7,5.98-2.42,.47-.03,.95-.05,1.42-.08,1.87,.02,3.73,.05,5.6,.07,.34,.55,.86,.55,1.42,.44,.41,.17,.83,.34,1.24,.51,.02,.36,.03,.71,.05,1.07-5.35-1.3-10.36-.2-15.38,1.77-3.06,1.2-5.78,3.05-8.85,4.17-1.48,.54-.93,1.19-.21,1.87,2.43,2.31,5.35,3.19,8.62,2.57,5.64-1.06,10.86-3.46,16.29-5.21,1.43-.46,2.72-1.15,3.97-1.98,.91-.6,.2-1.02-.05-1.51,.72,.12,1.36-.03,1.92-.52,.4,.68,.63,1.29,1.79,.78,1.5-.65,3.2-.87,4.81-1.27Zm-53.7,9.58c2.71-.05,5.39-.51,7.83-1.63,4.74-2.18,9.38-4.57,14.08-6.83,1.06-.51,.78-1.01,.13-1.55-1.97-1.64-4.08-2.85-6.82-2.38-7.78,1.33-14.4,5.45-21.35,8.75-1,.48-.64,1.04-.06,1.62,1.73,1.7,3.91,2.01,6.19,2.03Zm-20.26-7.97c-5.06-1.78-9.6-2.79-14.52-1.38-4.87,1.4-8.65,4.78-13.21,6.69-.59,.25-1.66,.34-1.46,1.2,.12,.53,.96,.99,1.58,1.29,3.46,1.68,7.13,1.49,10.74,.84,6.28-1.13,11.44-4.56,16.88-8.65Zm-43.73,8.75c7.41,.06,13.52-3.6,19.71-6.9,1.44-.77,1.73-2.09-.11-3.09-1.79-.97-3.65-1.29-5.67-1.1-7.49,.69-13.48,5.1-20.09,7.97-1.53,.67-.5,1.41,.24,1.86,1.82,1.09,3.88,1.2,5.93,1.26Zm56.33-11.58c-.98,.16-2.48,.07-4,.4-5.25,1.13-8.9,5.04-13.43,7.4-.91,.47-.67,1.1,.17,1.55,.99,.53,2.07,.49,3.14,.53,7.96,.27,14.54-3.51,21.18-7.12,1.12-.61,.56-1.07-.09-1.51-1.97-1.33-4.21-1.33-6.97-1.25Zm-41.08,16.81c-2.33-1.16-4.62-2.3-6.68-3.81-1.17-.86-2.25-.91-3.71-.71-4.47,.62-8.98,1.42-12.97-2.07-1.29-1.14-3.11,.48-4.14,1.4-.96,.85,.6,1.54,1.26,2.03,8.08,6.05,16.97,5.84,26.23,3.17Zm24-.59c-2.04-1.07-3.64-1.69-4.97-2.66-1.94-1.42-3.78-1.71-6.19-1.11-4.37,1.1-8.88,1.39-13.03-.95-3.14-1.76-3.09-1.84-6.31,.34,9.55,4.95,18.92,9.66,30.51,4.38Zm65.45-1.35c-.55-1.19-1.77-1.39-2.47-2.15-2.69-2.9-5.55-2.99-9.22-1.51-5.1,2.07-10.2,1.83-14.24-2.65-1.01-1.12-1.87-.46-2.52,.13-1.15,1.03,.39,1.36,.79,1.67,4.11,3.23,8.69,5.57,13.91,6.47,4.78,.83,9.36,.29,13.76-1.96Zm-46.26,.14c-1.77-1.2-3.51-2.16-4.97-3.44-1.5-1.31-2.87-1.6-4.84-1.1-3.2,.82-6.76,1.73-9.72,.06-2.47-1.4-4.03-.76-5.9,.52,7.46,5.62,19.2,8.94,25.43,3.97Zm-5.38-5.54c7.48,7.21,18.49,8.74,27.28,5-3.26-2.8-6.4-5.96-11.26-3.09-.51,.3-1.2,.37-1.81,.43-3.67,.33-7.48,.82-10.31-2.17-1.39-1.47-2.39-1.37-3.89-.17Zm6.76-10.96c1.92,.75,4.03,1.04,5.38,2.73,.43,.53,.92,.3,1.44,.09,2.68-1.11,5.36-2.19,8.16-3.33-4.66-2.9-11.88-2.65-14.97,.52Zm-51.9,1.56c-5-3.64-11.22-3.66-14.28-.06,4.73,1.27,9.44,4.57,14.28,.06Zm6.24-1.06c3.42,.21,5.88,.8,7.69,2.91,.43,.5,.84,.85,1.58,.52,2.04-.89,4.1-1.73,6.45-2.71-5.12-2.93-9.96-3.36-15.72-.72Zm22.68,.47c4.32,.23,8.67,4.65,13.04-.2-4.47-1.68-8.78-3.54-13.04,.2Z"/>
  <path class="cls-4" d="M300.94,32.38c-2.61,2.08-5.79,3.07-8.77,4.42-16.44,7.4-32.72,15.15-49.34,22.17-2.8,1.19-4.9-.55-4.55-3.76,.43-.08,.87-.16,.6-.77,.03-.12,.09-.2,.2-.25,1.19,.7,1.78-.15,2.19-.97,.32-.65,.58-1.2,1.38-1.27,1.18-.53,2.37-1.06,3.55-1.6,11.62-5.29,23.34-10.4,34.83-15.96,6.48-3.13,12.87-6.43,19.53-9.16,.24,2.38,1.33,4.72,.37,7.16Z"/>
  <path class="cls-6" d="M96.63,41.77c5.21,12.82,10.34,25.67,17.03,37.84,3.43,6.23,7.01,12.38,11.29,18.09,3.05,4.06,2.36,5.92-2.69,7.03-1.3,.29-1.82-.69-2.34-1.4-3.52-4.8-6.68-9.83-9.58-15.02-5.52-9.87-9.94-20.24-14.13-30.71-.36-.91-.41-2.26-2.03-1.89-.13-.13-.14-.26-.03-.4,.97-.95,.4-1.9,.05-2.9-.78-2.2-2.03-4.25-2.21-6.65,.72-2.28,2.72-3.09,4.64-3.98Z"/>
  <path class="cls-6" d="M152.82,135.49c-1.01,.1-2.22-1.57-3.03,.33,0,0,0-.07,0-.07,.77-.92-.18-1.2-.64-1.64-5.61-5.37-8.55-12.08-10.05-19.52,2.2-.58,4.04-1.73,5.52-3.45,.93,1.49,.24,3.4,1.29,4.87,.39,3.26,1.64,6.2,3.83,8.63,2.7,3,2.54,7.04,4.1,10.44,.02,.05-.38,.3-.59,.45-.12-.18-.27-.19-.43-.05Z"/>
  <path class="cls-15" d="M246.91,46.72c9.35-4.24,18.87-8.15,27.99-12.82,8.02-4.11,16.29-7.6,24.44-11.39,.51-.24,1.03-.98,1.64-.35,.53,.55-.37,1.12-.2,1.73-.23,.13-.46,.26-.68,.39,.05-.47,.02-.97-.64-.69-1.1,.47-2.3,.78-3.1,1.77l-.02,.02c-.36-.01-.56,.13-.52,.51h-.02c-.54-.18-.99-.2-1.06,.54h-.01c-.63-.12-1.29-.33-1.59,.53h-.02c-.47-.06-.98-.2-1.05,.53l-.04,.02c-.63-.15-1.25-.23-1.58,.52l-.03,.02c-1.05-.03-1.92,.39-2.69,1.04-.27,.1-.57,.17-.54,.56l.04-.03c-.52-.11-.92,.02-1.12,.56l.04-.03c-.48-.03-.98-.09-1.12,.56l.04-.03c-.73-.11-1.37,.09-1.94,.55-.25,.08-.51,.16-.76,.24-1.33,.5-2.65,1-3.26,2.44l.04-.03c-.69-.23-1.25-.04-1.66,.55l.05-.03c-.92,0-1.61,.43-2.19,1.1l.05-.03c-.46,.01-.98-.09-1.12,.56l.04-.03c-.52-.11-.96-.05-1.12,.56l.04-.03c-.53-.12-.98-.09-1.12,.56l.04-.03c-.48-.02-1.04-.21-1.12,.56l.04-.03c-.6,.05-1.33-.28-1.66,.56l.05-.03c-.46,.02-.99-.1-1.12,.56l.04-.03c-1.69,.24-3.29,.66-4.34,2.16l.04-.02c-.64-.06-1.33-.28-1.66,.56l.04-.03c-1.65,.32-3.3,.63-4.34,2.16l.04-.03c-.53-.12-1.01-.16-1.11,.56l.04-.03c-.65-.09-1.31-.24-1.66,.56l.04-.03c-.46,.01-1.02-.17-1.11,.56l.04-.03c-.63-.05-1.27-.09-1.66,.55l.05-.03c-1.6,.43-3.23,.79-4.34,2.17l.04-.02c-.68-.19-1.24-.03-1.66,.55,0,0,.05-.03,.05-.03-.86,.23-1.71,.46-2.57,.69,.23-1.47,1.47-1.79,2.59-2.23Z"/>
  <path class="cls-13" d="M144.75,85.02c-9.29-11.55-8.99-50.8,.37-60.05-4.46,9.46-6.59,19.38-6.25,29.77,.34,10.38,2.49,20.44,5.88,30.28Z"/>
  <path class="cls-2" d="M259.31,158.7c-1.16-.86-1.66,.21-2.29,.79-1.33,1.24-2.84,2.15-4.6,2.61-.55,.14-1.39,.31-1.52-.56-.09-.59,.2-1.27,.98-1.33,5.24-.41,6.14-4.6,7.15-8.4,1.65-6.2,2.54-8.24,6.62-12.66,.46,.26,.5,.68,.46,1.14-.5,5.78-1.67,11.31-5.72,15.85-.37,.41-1.8,1.12-.05,1.72l-.03,.24s-.23,.05-.23,.04c-.21-.09-.45-.29-.62-.24-.46,.13-.31,.49-.2,.81h.06Z"/>
  <path class="cls-13" d="M282.37,31.46c.25-.08,.51-.16,.76-.24,.74,.15,1.43,.12,1.94-.55,0,0-.04,.03-.04,.03,.44-.05,.93,0,1.12-.56,0,0-.04,.03-.04,.03,.42-.09,.97,.07,1.12-.56,0,0-.04,.03-.04,.03,.18-.01,.35-.02,.53-.03,1.07-.24,2.26-.26,2.7-1.57,0,0,.03-.02,.03-.02,.67,.27,1.22,.17,1.58-.52,0,0,.04-.02,.04-.02,.48,.1,.92,.1,1.05-.51,0,0,.02-.01,.02-.01,.64,.15,1.2,.07,1.59-.52h.01c.46,.03,.88-.01,1.06-.53,0,0,.02-.01,.02-.01,.32-.03,.55-.14,.52-.51,0,0,.02-.02,.02-.02,1.44,.3,2.49-.71,3.74-1.08,.23-.13,.45-.26,.68-.39,.78,.58-.09,.9-.21,1.35-6.67,2.73-13.06,6.03-19.53,9.16-11.49,5.56-23.21,10.67-34.83,15.96-1.18,.54-2.37,1.07-3.55,1.6-.29-1.27,.92-1.48,1.51-2.13,1.06-.27,2.25-.3,2.73-1.56,0,0-.05,.03-.05,.03,.7,.26,1.28,.14,1.66-.55,0,0-.04,.02-.04,.02,1.61-.4,3.28-.68,4.34-2.17,0,0-.05,.03-.05,.03,.73,.34,1.25,.04,1.66-.55,0,0-.04,.03-.04,.03,.49,.05,.94,0,1.11-.56,0,0-.04,.03-.04,.03,.64,.08,1.23-.02,1.66-.56l-.04,.03c.44-.06,.88-.11,1.11-.56,0,0-.04,.03-.04,.03,1.54-.54,3.17-.89,4.34-2.16,0,0-.04,.03-.04,.03,.65,.1,1.2-.09,1.66-.56,0,0-.04,.02-.04,.02,1.58-.45,3.09-1.05,4.34-2.16,0,0-.04,.03-.04,.03,.49,.05,.95,.02,1.12-.56,0,0-.05,.03-.05,.03,.66,.12,1.21-.08,1.66-.56l-.04,.03c.46-.02,.86-.14,1.12-.56,0,0-.04,.03-.04,.03,.45-.04,.97,.07,1.12-.56,0,0-.04,.03-.04,.03,.46,0,.92-.03,1.12-.56,0,0-.04,.03-.04,.03,.5,.06,.93-.01,1.12-.56,0,0-.05,.03-.05,.03,.89-.05,1.81-.06,2.19-1.1,0,0-.05,.03-.05,.03,.64,.07,1.27,.11,1.66-.55,0,0-.04,.03-.04,.03,1.49-.28,2.85-.74,3.26-2.44Z"/>
  <path class="cls-15" d="M228.49,177.64c.07-.36,.15-.72,.22-1.08,2.18,.81,4.36,1.53,6.76,1.34,7.66-.63,13.81-4.05,18.26-10.18,1.09-1.5,2.56-3.16,2.28-5.37,0,0-.03,.03-.03,.03,.18,0,.37,0,.55,0,.39-.02,.79-.05,1.18-.07-1.44,6.45-5.69,10.71-11.28,13.75-3.6,1.96-7.49,3.27-11.69,3.22-1.06-.01-1.81,.53-2.66,1.03-3.39,1.98-7.03,2.9-10.98,2.22,.34-.31,.69-.62,1.03-.93,2.67-.14,5.32-.37,7.75-1.58,.54-.27,1.9-.39,.69-1.53,.16-.14,.52-.28,.22-.51-.38-.29-.77-.09-1.07,.22-.41-.18-.82-.37-1.23-.55Z"/>
  <path class="cls-7" d="M69.98,163.94c3.17,.56,6.36-1.02,9.54,.1,1.32,.47,3.43,.51,3.59,1.8,.19,1.49-1.91,1.78-3.15,2.36-3.14,1.46-6.07,3.36-9.39,4.45-.16-1.64,.1-3.29-.93-4.86-.76-1.15,.07-2.57,.35-3.86Z"/>
  <path class="cls-13" d="M226.41,47.98c-10.05-14.94-25.64-20.25-42.45-23.93,2.56-1.36,16.23,2.27,24.11,6.58,7.6,4.16,14.65,9.09,18.35,17.35Z"/>
  <path class="cls-15" d="M155.22,136.37c.27-.24,.54-.47,.81-.71,.97,.9,1.96,1.78,2.91,2.7,8.23,7.95,16.33,16.06,27.35,20.32-.03,.43-.07,.86-.1,1.29-8.87-3.03-15.74-8.97-22.43-15.16-2.94-2.72-5.7-5.63-8.54-8.45Z"/>
  <path class="cls-15" d="M139.1,114.59c1.5,7.45,4.44,14.16,10.05,19.52,.46,.44,1.4,.72,.64,1.64-3.86-1.39-5.39-4.95-7.3-8.03-2.1-3.39-3.4-7.17-4.38-11.04-.16-.62,.02-1.49-.95-1.69,.28-.8,.94-.6,1.53-.58,.15,.03,.29,.1,.41,.18Z"/>
  <path class="cls-15" d="M260.34,157.85c-1.75-.6-.33-1.31,.05-1.72,4.05-4.53,5.22-10.07,5.72-15.85,.04-.45,0-.88-.46-1.14,0-.45-.01-.89-.02-1.34,.69,.22,1.16-.29,1.71-.5,.27,6.02-.84,11.72-3.9,16.99-.81,1.39-1.77,2.62-3.11,3.55Z"/>
  <path class="cls-15" d="M183.86,72.28c-.35,0-.71-.02-1.06-.02,.89-6.65,8.64-9.85,13.06-6.46,0,0-.16,.17-.16,.17-.7-.09-.93,.32-.99,.91-1.23-.92-2.67-1.61-4.12-.96-2.95,1.32-5.93,2.74-6.73,6.36Z"/>
  <path class="cls-7" d="M70.68,176.18c2.18,.62,3.52,2.55,5.94,3.3-2.3,1.53-4.7,1.09-6.66,2.08,.14-1.81-1.2-3.81,.72-5.38Z"/>
  <path class="cls-15" d="M268.35,119.2c.56-.32,.56-.91,.71-1.42,1.64,5.81,1.38,11.55-.74,17.21-.45-1.36,1.13-2.68,.08-4.05,.6-3.91,.51-7.82-.05-11.73Z"/>
  <path class="cls-15" d="M91.98,45.76c.17,2.4,1.43,4.45,2.21,6.65,.35,1,.92,1.94-.05,2.9-1.65-2.53-2.27-5.48-3.47-8.2-.55-1.25,.13-1.6,1.31-1.35Z"/>
  <path class="cls-15" d="M122.65,117.02c.28,.53,.82,.54,1.31,.66-3.45,1.28-6.95,1.68-10.52,.48,.74-.17,1.62,.24,2.22-.52,2.33-.2,4.66-.4,6.99-.61Z"/>
  <path class="cls-15" d="M210.79,179.04c.01-.39,.02-.78,.04-1.17,1.66,.86,3.32,1.71,4.98,2.57-.26,.24-.53,.48-.79,.72-1.55-.81-3.11-.25-4.67-.07-.05-.32-.09-.64-.14-.96,.44-.23,.8-.51,.59-1.08Z"/>
  <path class="cls-13" d="M268.4,130.93c1.06,1.37-.52,2.69-.08,4.05,0,0-.09,.18-.09,.18-.12,.21-.23,.42-.35,.62,0,0,.01-.03,.01-.03-.08,.03-.23,.06-.23,.09,0,.14,.05,.27,.08,.41-.14,.35-.27,.7-.41,1.05-.56,.21-1.03,.72-1.71,.5,0,0-.07-.06-.07-.06,1.3-2.13,2.19-4.42,2.84-6.82Z"/>
  <path class="cls-13" d="M215.01,181.15c.26-.24,.53-.48,.79-.72,2.11,.38,4.22,.77,6.32,1.15-.34,.31-.69,.62-1.03,.93-.39-.07-.78-.13-1.17-.2-.24-.04-.49-.07-.73-.11-1.25,.07-2.37-.43-3.52-.78-.21-.09-.43-.19-.64-.28,0,0-.02,0-.02,0Z"/>
  <path class="cls-13" d="M180.5,160.71c-.47,.03-.95,.05-1.42,.08-.72-.5-1.45-.99-2.17-1.49,.05-.34,.09-.67,.14-1.01,1.47,.35,2.58,1.22,3.45,2.42Z"/>
  <path class="cls-13" d="M210.2,180.12c.05,.32,.09,.64,.14,.96,0,0,.01,0,.01,0-.18,.06-.37,.11-.55,.17-.38,.09-.75,.18-1.13,.27,0-.35,0-.69,0-1.04,.51-.12,1.01-.24,1.52-.37Z"/>
  <path class="cls-15" d="M196.94,67.43c-.29,.11-.57,.23-.85,.34,0,0,.16-.19,.16-.19-.18-.54-.37-1.08-.55-1.62l.16-.17c.72,.31,.69,1.11,1.09,1.63Z"/>
  <path class="cls-11" d="M69.97,182.11c.52,.1,1.05,.21,1.57,.32-.62,.39-1.19,.49-1.57-.32Z"/>
  <path class="cls-15" d="M149.99,135.81c.65-.1,1.3-.19,1.71,.51-.64,.07-1.25,0-1.71-.51Z"/>
  <path class="cls-15" d="M110.9,15.37c0-.48,0-.97,.01-1.45,.17,.48,.26,.97-.01,1.45Z"/>
  <path class="cls-15" d="M109.81,16.27c.35,0,.7,0,1.05,.01-.36,.79-.71,.75-1.05-.01Z"/>
  <path class="cls-10" d="M240.43,43.26c-.44,.12-.86,.15-1.19-.25,.45-.14,.86-.16,1.19,.25Z"/>
  <path class="cls-3" d="M301.21,33.87c0-.18,0-.36,0-.54,.37,.18,.36,.37,0,.54Z"/>
  <path class="cls-15" d="M197.94,67.49c-.05,.29-.17,.47-.5,.29,.17-.1,.33-.2,.5-.29Z"/>
  <path class="cls-15" d="M182.5,74.94c.05,.13,.12,.25,.15,.38,0,.03-.11,.1-.17,.15,0-.18,0-.35,.01-.53Z"/>
  <path class="cls-15" d="M182.37,76.64c-.19,.14-.37,.28-.56,.42,.19-.14,.37-.28,.56-.42Z"/>
  <path class="cls-15" d="M219.19,182.22c.24,.04,.49,.07,.73,.11-.24-.04-.49-.07-.73-.11Z"/>
  <path class="cls-15" d="M215.03,181.15c.21,.09,.43,.19,.64,.28-.21-.09-.43-.19-.64-.28Z"/>
  <path class="cls-15" d="M209.8,181.25c.18-.06,.37-.11,.55-.17-.18,.06-.37,.11-.55,.17Z"/>
  <path class="cls-13" d="M259.25,158.69c-.11-.32-.26-.68,.2-.81,.17-.05,.41,.16,.62,.24-.27,.19-.55,.38-.82,.56Z"/>
  <path class="cls-15" d="M267.75,136.25c-.03-.14-.08-.27-.08-.41,0-.03,.15-.06,.23-.09-.05,.17-.1,.33-.14,.5Z"/>
  <path class="cls-15" d="M267.88,135.78c.12-.21,.23-.42,.35-.62-.12,.21-.23,.42-.35,.62Z"/>
  <path class="cls-6" d="M216.09,64.37c.04-2.7,.34-5.32,1.34-7.84,1.53-3.83,4.74-5.65,8.75-4.85,.81,.16,1.89,.16,1.92,1.44,.03,1.09-.03,2.02-1.23,2.67-3.9,2.13-3.98,2.2-3.17,6.53,1.09,5.83,2.47,11.61,3.49,17.45,.63,3.58,.75,7.23-.28,10.82-.25,.86-.54,1.68-1.12,2.39-.79,.98-1.61,2.27-2.89,2.13-1.25-.14-.91-1.74-1.18-2.67-2.72-9.19-4.82-18.51-5.63-28.07Z"/>
  <path class="cls-6" d="M218.29,85.18c3.46,12.08,7.12,23.61,8.98,35.48,1.22,7.83-.17,15.74-4.25,22.88-.25,.43-.33,1.05-1.41,1.18,.39-3.17-1.21-6.04-.76-9.28,1.09-7.88-.47-15.54-2.28-23.16-1.64-6.93-2.86-13.92-2.45-21.08,.11-2.04,.47-4.02,2.18-6.02Z"/>
  <path class="cls-6" d="M186.29,158.69c-11.02-4.26-19.12-12.38-27.35-20.32-.95-.92-1.94-1.8-2.91-2.7,.52-.89,1.17-.48,1.79-.15,.79,.42,1.51,1.1,2.34,1.27,8.93,1.82,15.83,7.54,23.45,11.89,4.91,2.8,10.11,4.92,15.79,5.69,.71,.1,1.62,.03,1.88,.75,.29,.8-.34,1.52-.92,2.09-2.56,2.52-5.85,2.41-9.06,2.3-1.68-.06-3.34-.54-5.01-.82Z"/>
  <path class="cls-6" d="M173.18,81.71c-2.11,.2-2.05,1.91-2.2,3.32-.4,3.82,1.21,7.26,2.17,10.84,1.39,5.19,3.1,10.37,2.3,15.89-.04,.25-.16,.49-.37,1.12-3.23-3.03-6.42-5.84-7.98-9.91-2.34-6.11-4.79-12.21-4.29-18.98,.39-5.32,3.97-8.98,9.22-9.21,.7-.03,1.44,.03,2.12,.19,1.66,.38,3.19,1.38,3.55,2.91,.34,1.43-1.74,1.36-2.55,2.2-.58,.61-1.74,.53-1.96,1.59,0,0,0,.05,0,.05Z"/>
  <path class="cls-6" d="M158.51,124.31c-7.82-9.14-12.3-19.6-12.28-31.69,0-6.02,6.61-9.93,11.56-7.05,.53,.31,1.25,.57,1.29,1.25,.04,.8-.83,.81-1.35,1.05-4.51,2.11-4.76,2.23-4.39,7.13,.55,7.18,3.41,13.69,6.49,20.09,.97,2.01,2.05,3.93,2.14,6.22-2.79-1.38-2.77-1.38-2.94,1.81-.02,.4-.34,.79-.51,1.19Z"/>
  <path class="cls-6" d="M183.86,72.28c.79-3.62,3.78-5.04,6.73-6.36,1.45-.65,2.88,.03,4.12,.96,.46,.35,.79,.97,1.54,.71,0,0-.15,.18-.16,.19,1.29,1.62,.67,2.46-1.07,3.24-4.62,2.1-5.22,3.39-4.13,8.47,1.38,6.47,3.69,12.77,3.53,19.51-.05,2.07,.17,4.19-.79,6.82-3.05-4.93-5.98-9.31-7.37-14.45-1.42-5.3-2.35-10.7-2.7-16.18,.05-.25,.11-.5,.16-.75,.05-.72,.09-1.44,.14-2.16Z"/>
  <path class="cls-6" d="M167.91,120.41c2.65,2.82,5.9,4.61,9.3,6.17,2.73,1.26,4.18,3.84,5.93,6.02,5.77,7.18,12.16,13.66,20.11,18.49,.48,.29,1.35,.33,.97,1.25-.26,.63-.76,.88-1.47,.92-1.96,.09-3.69-.69-5.36-1.5-8.02-3.92-15.3-8.91-20.92-15.86-3.72-4.59-6.69-9.73-8.56-15.48Z"/>
  <path class="cls-7" d="M199.55,174.66c-2.48-.1-5.01,.17-7.37-.79-1.89-.77-3.71-1.69-4.59-3.89,4.76-1.83,9.44-3.63,14.12-5.42,4-.95,8.01-1.79,12.13-1.98,2.27-.1,4.24,.59,5.98,1.93,1.77,1.36,1.64,2.16-.39,3.2-6.3,3.24-12.85,5.77-19.88,6.96Z"/>
  <path class="cls-6" d="M183.72,101.5c1.34,8.69,6.67,14.92,11.47,21.37,3.02,4.05,6.18,7.8,6.69,13.21,.37,3.98,2.07,7.75,3.95,11.49-1.6,.21-1.9-.79-2.39-1.42-6.39-8.32-11.65-17.37-17.42-26.1-3.43-5.18-4.62-11.1-2.85-17.31,.09-.32,.27-.61,.55-1.24Z"/>
  <path class="cls-6" d="M239.92,44.68c-.3,1.89-1.05,3.34-2.95,4.28-1.15,.57-1.67,1.88-.64,3.19-.43,3.33,.74,6.18,3.11,8.37,3.95,3.65,4.18,8.27,4.32,13.47-5.77-3.63-11.61-6.43-13.57-13.28-1-3.51-1.19-7.01-.27-10.48,1.12-4.21,6.22-6.94,10-5.56Z"/>
  <path class="cls-6" d="M229.51,63.1c.92,.68,1.21,1.74,1.42,2.74,2.54,11.84,3.78,23.62-1.53,35.14-.85,1.85-2.22,4.06-3.84,5.44-1.23-2.8-1.63-5.78-2.43-8.64-.2-.7,.08-1.15,.73-1.5,4.22-2.28,4.91-6.32,5-10.48,.13-5.71-1.15-11.26-2.6-16.75-.27-1.04-.48-2.06-.45-3.13,1.49-.6,2.07-2.38,3.69-2.8Z"/>
  <path class="cls-6" d="M191.37,131.02c-6.91-2.16-13.58-4.89-19.54-9.03-4.39-3.05-5.58-7.6-5.19-12.68,.06-.71,.19-1.49,.88-1.83,.59-.29,.97,.33,1.27,.73,3.27,4.36,7.58,7.47,12.24,10.19,5,2.91,7.65,7.79,10.45,12.52l-.12,.11Z"/>
  <path class="cls-7" d="M193.19,164.49c.25,.49,.95,.91,.05,1.51-1.25,.83-2.54,1.52-3.97,1.98-5.43,1.75-10.65,4.16-16.29,5.21-3.27,.61-6.19-.26-8.62-2.57-.72-.69-1.27-1.34,.21-1.87,3.07-1.12,5.78-2.97,8.85-4.17,5.02-1.97,10.03-3.07,15.38-1.77,1.46,.56,2.93,1.12,4.39,1.68Z"/>
  <path class="cls-6" d="M211.39,62.82s-.22-.05-.22-.05c-3.63,.16-5.16,1.67-5.17,5.1-.02,5,.11,10-.12,14.98-.13,2.75,.54,4.17,3.27,4.88,.18,.48,.35,.96,.53,1.44-.34,.1-.86,.1-.99,.32-.54,.91,1.02,2.44-.88,2.99,.21,.11,.45,.19,.64,.33,2.48,1.87,3.52,4.29,2.96,7.38-.14,.77-.1,1.6,0,2.39,.22,1.8-.63,2.42-2.32,2.22,0,0,.05-.21,.05-.21-.04-2.46,1.2-5.67-.64-7.15-2.04-1.64-2.19-3.67-3.18-5.54-.54-1.01,.13-2.38-.73-3.01-3.32-2.46-2.38-6.56-3.59-9.75-1.24-3.28-3.04-7.65,.45-11.52,.46-.19,.22,2.13,1.29,.84,.53-.64,1.64-1.26,.65-2.47-1.77-2.17-.63-4.88,2.29-5.37,1.13-.19,2.33,.02,3.48-.1,1.82-.19,2.45,.62,2.24,2.3Z"/>
  <path class="cls-1" d="M231.35,172.91c1.71-2.78,4.81-4.54,5.9-7.79,2.71-3.56,5.41-7.12,8.12-10.68,1.28-.86,2.41-2.78,4.03-1.96,1.26,.64,.54,2.6,.62,3.97,.13,2.04,.13,4.09-.99,5.95-.86,1.54-1.72,3.08-2.57,4.62-3.21,5.88-9.22,8.22-15.11,5.88Z"/>
  <path class="cls-6" d="M210.66,151.42c-2.77-3.09-2.27-6.49-1.74-9.57,1.39-8.11,4.69-15.52,9.77-22.84,1.1,5.97,2.76,11.59,.07,16.84-2.61,5.09-5.82,9.9-8.1,15.57Z"/>
  <path class="cls-6" d="M215.18,101.92c.94,4.54,1.81,8.67,2.63,12.81,.24,1.2,.49,2.38-.29,3.59-4.33,6.66-7.8,13.71-9.57,21.7-2.95-5.24,1.16-26.67,7.23-38.09Z"/>
  <path class="cls-2" d="M246.87,92.05c.17-.74-.34-1.76,.44-2.21,.84-.48,1.41,.52,2.03,.92,6.16,3.98,10.94,9.06,13.06,16.24,.81,2.76,1.56,5.51,.15,8.29-.26,.52-.48,1.34-1.22,1.21-.38-.06-.73-.69-.97-1.13-3.4-6.25-7.34-12.15-11.51-17.91-1.15-1.59-2.09-3.32-1.99-5.41Z"/>
  <path class="cls-6" d="M153.63,120.68c1.8,2.01,3.29,3.98,5.11,5.67,4.05,3.75,8.83,6.14,13.96,8.04,2.81,1.04,3.66,4.08,5.8,5.92-4.3-.24-8.22-1.68-12.23-2.73-2.68-.7-5.46-1.36-7.65-3.11-3.08-2.48-5.74-5.34-5.99-9.6-.08-1.33,0-2.67,.99-4.19Z"/>
  <path class="cls-2" d="M255.63,130.89c2.16,7.57,4.25,14.39,1.98,21.59-.64,2.04-1.25,4.09-2.95,5.57-.79,.69-1.72,1.03-2.73,.67-1.09-.39-.5-1.37-.54-2.09-.38-5.94-.59-11.87,.68-17.76,.58-2.7,1.87-5.04,3.56-7.99Z"/>
  <path class="cls-6" d="M199.84,126.42c-5.56-7.03-11.69-13.62-14.36-22.4-.69-2.26-.46-4.57-.31-6.86,.03-.45,.4-1.1,.78-1.25,.63-.26,.89,.47,1.08,.91,2.9,6.71,7.82,12.24,11.02,18.79,1.72,3.52,1.29,7.15,1.78,10.81Z"/>
  <path class="cls-2" d="M258.36,135.75c-1.22-3.97-2.46-7.94-3.67-11.92-1.44-4.74-.3-9.38,.25-14.32,7.23,7.18,10.03,18.52,6.72,26.32-1.1-.03-2.2-.05-3.3-.08Z"/>
  <path class="cls-6" d="M128.91,112.23c-.23,.02-1.09-.18-1.93-.53-1.1-.45-1.55-.98-.75-2.2,2.01-3.07,3.31-6.42,4.15-10.02,.57-2.48,1.79-4.84,4-6.46,1.77-1.3,3.65-1.3,5.57-.47,.9,.39,1.99,.98,2.06,1.92,.08,1.03-1.24,1.02-1.99,1.4-1.67,.86-2.22,2.45-2.71,4.09-.86,2.89-1.69,5.78-2.63,8.64-.78,2.39-2.56,3.53-5.76,3.61Z"/>
  <path class="cls-7" d="M235.59,70.3c7.9,6.14,17.82,9.84,18.35,22.28-2.47-1.83-4.4-3.2-6.25-4.66-2.51-1.98-5.02-3.97-7.42-6.08-3.27-2.89-5.26-6.38-4.68-11.54Z"/>
  <path class="cls-5" d="M210.96,161.38c-.84,.05-1.56,.11-2.27,.14-1.07,.03-1.24-.46-.74-1.31,3.5-5.99,5.37-12.75,8.96-18.7,.57-.95,1.08-2.59,2.18-2.39,1.27,.23,.84,1.93,.99,3,.93,6.68-1.26,12.56-4.82,18.08-1.11,1.72-2.96,.75-4.29,1.18Z"/>
  <path class="cls-6" d="M206.17,145.13c-2.71-5.28-3.74-11.02-4.49-16.81-.5-3.86-.88-7.73-1.19-11.61-.25-3.06-.3-6.13-.24-9.26,2.16,4.07,4.39,8.04,6.75,11.96,1.07,1.78-.45,3.9-.65,5.89-.67,6.47-.76,12.89,.4,19.3-.19,.18-.38,.36-.57,.53Z"/>
  <path class="cls-6" d="M181.73,90.76c1.16,4.36,.58,8.75-.18,13.16-.52,3.05-.46,6.22-1.88,9.08-.41,.82-.58,2.07-1.95,1.64-1.25-.39-1.23-1.26-1.05-2.53,.89-6.23-.84-12.15-2.75-17.97-.58-1.77-.49-2.53,1.25-3.1,1-.33,2.62-1.13,3.59-1.56,2.63-2.2,2.44-.45,2.98,1.27Z"/>
  <path class="cls-7" d="M235.26,165.08c-2.84,8.45-17.92,13.9-22.85,7.57,8.73-6.12,16.23-8.6,22.85-7.57Z"/>
  <path class="cls-6" d="M201.77,91.75c1.22,2.72,2.52,5.2,3.44,7.82,.86,2.43,1.88,4.81,3.22,6.95,1.75,2.8,2.26,5.42,.74,8.41-.48,.93-.71,1.98-1.08,3.05-6.35-7.83-10.54-19.31-6.32-26.23Z"/>
  <path class="cls-7" d="M250.63,69.51c6.33,5.65,9.73,17.18,7.96,26.73-2.08-1.2-3.78-2.25-3.65-5.14,.18-4.06-1.52-7.6-4.22-10.64-.73-.82-1.39-1.55-1.2-2.78,.41-2.62,.72-5.26,1.1-8.17Z"/>
  <path class="cls-1" d="M256,162.35c.28,2.21-1.19,3.88-2.28,5.37-4.45,6.13-10.6,9.55-18.26,10.18-2.39,.2-4.58-.53-6.76-1.34-1.4-1.77-1.12-2.2,1.89-2.9,3.13,1.9,6.34,1.99,9.66,.52,4.79-2.13,7.43-6.11,9.46-10.64,2.19,.09,4.31-.15,6.28-1.2Z"/>
  <path class="cls-6" d="M213.78,99.31c-.36-4.68-2.04-8.77-3.6-12.91-.44-1.16-.83-2.33-1.15-3.53-1.57-5.91-.7-7.31,5.25-8.95,1.33-.37,1.32,.34,1.36,1.2,.16,3.89,.52,7.82-.15,11.67-.59,3.34-.86,6.65-.7,10.02,.04,.77,.02,1.6-1.01,2.5Z"/>
  <path class="cls-6" d="M163.7,101c.86,1.53,.86,3.25,1.01,4.9,.53,5.81,1.21,11.62,.53,17.47-.1,.9-.26,1.74-1.15,2.61-.12-5.63-2.47-10.35-4.9-15.04-1.34-2.58-1.86-5.32-1.68-8.2,.36,.14,.4-1.16,.76-1.02-.03-.58,.26,.27,.23-.31,0,0,.06,.07,.06,.07,1.72-.02,3.33-1.27,5.13-.49Z"/>
  <path class="cls-6" d="M204.44,150.03c-9.05-5.04-15.88-12.38-21.93-20.63,4.68,1.94,10,2.6,13,7.55,2.72,4.5,5.92,8.7,8.93,13.07Z"/>
  <path class="cls-6" d="M211.39,62.82c.21-1.68-.42-2.49-2.24-2.3-1.15,.12-2.35-.09-3.48,.1-2.91,.49-4.06,3.2-2.29,5.37,.99,1.21-.13,1.83-.65,2.47-1.07,1.29-.84-1.03-1.29-.84-3.49,3.87-1.69,8.24-.45,11.52,1.21,3.19,.27,7.3,3.59,9.75,.86,.64,.19,2,.73,3.01,1,1.86,1.15,3.89,3.18,5.54,1.84,1.48,.61,4.69,.64,7.15-2.88-4.01-4.16-8.76-6.03-13.21-3.18-7.56-5.2-15.39-4.04-23.77,.63-4.58,5.04-8.95,9.7-9.1,1.26-.04,2.25,.43,3.2,1.12,.71,.52,1.76,.99,1.58,1.95-.18,.94-1.29,1.03-2.14,1.24Z"/>
  <path class="cls-7" d="M222.13,181.59c-2.11-.38-4.22-.77-6.32-1.15-1.66-.86-3.32-1.71-4.98-2.57-.58-.54-1.26-1.01-1.72-1.64-.51-.69-2.15-1.34-1.18-2.17,.78-.66,2.18-1.75,3.71-.28,2.9,2.79,6.57,3.54,10.4,2.59,2.48-.62,4.59-.66,6.44,1.27,.41,.18,.82,.37,1.23,.55,.29,.09,.57,.19,.86,.28,1.21,1.14-.15,1.26-.69,1.53-2.43,1.21-5.09,1.44-7.75,1.58Z"/>
  <path class="cls-2" d="M268.4,130.93c-.65,2.39-1.54,4.69-2.84,6.82-1.42,1.21-2.81,2.44-4.27,3.6-.41,.33-.95,1.04-1.56,.28-.48-.6-.61-1.29,.09-1.89,5.37-4.58,5.16-10.46,3.84-16.54-.29-1.35-.28-2.31,.93-3.23,1.21-.92,1.73-2.42,2.51-3.82,1.17,.76,.49,2.21,1.24,3.05,.56,3.91,.65,7.82,.05,11.73Z"/>
  <path class="cls-2" d="M260.73,90.52c2.15,2.12,3.29,4.68,4.22,7.28,2.11,5.86,2.91,11.83,.83,17.91-.41,1.2-1,2.27-1.88,3.17-.37,.38-.75,1.25-1.45,.5-.4-.42-.71-1.09-.2-1.69,4.01-4.71,2.37-9.63-.07-14.11-2.31-4.24-2.34-8.41-1.47-13.06Z"/>
  <path class="cls-7" d="M210.2,180.12c-.51,.12-1.01,.24-1.52,.37-8.53,1-15.79-2.03-22.43-7-.77-.58-1.5-1.21-2.59-2.1,1.26-.31,1.98-1.46,2.99-.11,3.32,4.41,7.94,4.99,12.98,4.35,4.68-1.94,8.07,.25,11.15,3.42,.21,.58-.15,.85-.59,1.08Z"/>
  <path class="cls-6" d="M193.62,82.94c1.26,.56,2.14-.41,3.15-.8,.83-.33,1.59-.63,1.58,.75-.04,7.59,.86,15.22-.83,22.73-.25,1.09-.03,3.25-1.76,2.88-1.48-.32-.87-2.07-.55-3.41,1.48-6.31,.16-12.47-1.29-18.59-.29-1.21-.42-2.36-.28-3.56l-.02,.02Z"/>
  <path class="cls-6" d="M248.29,77.36c-2.45-.92-3.26-2.43-3.26-4.92,0-3.53-.48-7.1-2.49-10.19-.76-1.17-.43-1.59,.7-2.12,5.62-2.64,5.99-2.43,6.01,3.83,.01,4.43,.07,8.86-.96,13.4Z"/>
  <path class="cls-4" d="M122.65,117.02c-2.33,.2-4.66,.4-6.99,.61-4.38-1.34-4.72-2.71-1.52-6.13,.91-.97,1.86-1.9,3.08-2.5,.19,.18,.39,.37,.58,.55-1.05,.96-2.2,1.83-2.9,3.11-.56,1.01-.8,2.23,.45,2.76,1.68,.71,3.52,1.11,5.32-.11-1.01-1.35-2.26-.5-3.33-.65-1.37-.19-2.24-.67-.98-1.92,2.9-2.89,6.1-5.38,10.23-6.38-.49,1.34-1.16,2.68-2.24,3.53-2.18,1.72-1.95,3.02,.28,4.34,.45,.27,.83,.64,1.26,.97-.82,1.42-2.33,1.08-3.24,1.83Z"/>
  <path class="cls-4" d="M182.89,80.2c1.06,2.95-.5,4.31-3.04,5.33-1.88,.75-3.7,1.72-5.39,2.82-1.97,1.27-2.38,.51-2.3-1.37,.04-.95-.16-1.95,.63-2.73,2.87-1.29,5.73-2.57,8.6-3.86,.19,.03,.34-.03,.45-.18,.35,0,.71,0,1.06,0Z"/>
  <path class="cls-4" d="M161.64,89.66q1.02,4.98-3.24,7.52c-.98,.59-1.96,1.19-2.95,1.79-2.34-5.24-1.2-6.95,6.19-9.3Z"/>
  <path class="cls-4" d="M145.73,102.02c.22,.98-.36,1.44-1.2,1.7-1.95,.61-3.91,1.18-5.83,1.86-1.42,.5-1.63,.15-1.42-1.29,.57-3.88,3.18-5.63,6.57-6.77,.9-.3,1.31-.2,1.39,.82,.1,1.23,.32,2.45,.49,3.67Z"/>
  <path class="cls-6" d="M234.52,84.73c0-1.06,.05-2.12-.02-3.18-.05-.79,.15-1.33,.9-1.72,.88-.46,1.32,.07,1.8,.59,.42,.46,.89,.88,1.25,1.38,.75,1.06,2.8,1.54,1.88,3.36-1.01,2.01-2.95,3.01-5.05,3.6-.93,.26-.98-.46-.95-1.12,.05-.97,.12-1.94,.18-2.91Z"/>
  <path class="cls-6" d="M228.31,117.9c-.84-3.18-1.52-5.81-2.23-8.43-.21-.76-.1-1.34,.48-1.91,1.25-1.23,2.19-2.7,3.25-4.2,.49,4.76,.77,9.47-1.5,14.54Z"/>
  <path class="cls-6" d="M192.37,150.9c-6.27-1.95-11.86-5.12-17.7-9.42,8.18,.12,11.95,6.53,17.7,9.42Z"/>
  <path class="cls-15" d="M126.59,106.35c-4.12,1-7.32,3.5-10.23,6.38-1.26,1.25-.39,1.73,.98,1.92,1.07,.15,2.32-.69,3.33,.65-1.8,1.21-3.64,.82-5.32,.11-1.25-.53-1.01-1.74-.45-2.76,.7-1.27,1.85-2.15,2.9-3.11,.96-.62,2.15-.96,2.68-2.12,0,0,.02,0,.02,0,.61,.22,1-.1,1.37-.51-.02-.17,.05-.25,.22-.25,.63-.1,1.13-.35,1.11-1.1,1.15-1.46,3-1,4.68-1.69-.16,1.07-.42,1.91-1.3,2.47Z"/>
  <path class="cls-15" d="M245.37,154.45c-2.71,3.56-5.41,7.12-8.12,10.68-.24-.84-1.54-.44-1.68-1.41,2.95-.7,3.56-3.46,5.62-5.79-3.61,.75-5.5,2.92-7.68,4.61l-.85-.77c1.94-2.23,4.29-3.97,7.07-4.91,1.84-.62,3.31-1.53,4.48-3.01,.39,.2,.78,.4,1.17,.6Z"/>
  <path class="cls-6" d="M209.14,87.73c-2.73-.71-3.4-2.13-3.27-4.88,.23-4.99,.11-9.99,.12-14.98,.01-3.43,1.54-4.94,5.17-5.1-4.07,1.76-4.29,5.48-4.58,9.09-.44,5.48,.93,10.7,2.55,15.87Z"/>
  <path class="cls-15" d="M249.72,163.55c-2.03,4.53-4.67,8.51-9.46,10.64-3.32,1.47-6.53,1.38-9.66-.52,.25-.25,.5-.5,.75-.75,5.89,2.34,11.91,0,15.11-5.88,.84-1.55,1.71-3.08,2.57-4.62,.04,.5,.15,.95,.69,1.13Z"/>
  <path class="cls-6" d="M209.08,104.8c1.69,.2,2.54-.42,2.32-2.22-.1-.79-.14-1.61,0-2.39,.56-3.09-.48-5.51-2.96-7.38-.19-.14-.43-.22-.64-.33,1.91-.55,.34-2.08,.88-2.99,.13-.22,.65-.22,.99-.32,2.73,5.31,3.58,10.87,2.25,16.71-.17,.73,.02,1.92-.88,2.04-1.11,.14-1.02-1.23-1.51-1.89-.25-.34-.31-.82-.46-1.23Z"/>
  <path class="cls-6" d="M167.06,122.43c1.37,3.64,3.47,6.6,5.3,9.78-6.29-.57-7.44-2.61-5.3-9.78Z"/>
  <path class="cls-7" d="M229.54,162.95c-.86,1.88-2.85,1.06-4.25,1.7-2.26,1.03-4.73,0-5.91-2.06-.06-.1,.39-.49,.6-.74,3.31-.68,6.55-.75,9.56,1.1Z"/>
  <path class="cls-2" d="M250.26,102.49c4.04,2.98,4.2,6.54,2.66,10.71-2.87-3.05-3-6.61-2.66-10.71Z"/>
  <path class="cls-2" d="M245.62,151.96c.42-3.6,1.12-6.65,4.02-8.9,1.13,5.37,.45,6.95-4.02,8.9Z"/>
  <path class="cls-4" d="M193.13,74.66c.87,.2,1.49-.42,2.24-.62,.71-.19,1.63-1.47,2.13-.1,.33,.9,.84,2.29-.73,2.97-1.53,.66-2.85,1.78-4.55,2.13-.53-1.67-.53-3.16,.9-4.36,0,0,.01-.03,.01-.03Z"/>
  <path class="cls-6" d="M158.51,124.31c.18-.4,.49-.78,.51-1.19,.17-3.19,.15-3.19,2.94-1.81,.48,.49,.6,1.14,.49,1.72-.25,1.39,1.59,3.37-.16,3.98-1.47,.51-2.71-1.48-3.78-2.71Z"/>
  <path class="cls-4" d="M208.19,71.01c-.21-1.38-.37-2.59,.79-3.08,1.95-.83,3.31-2.67,5.48-3.04,.42-.07,.54,.4,.53,.76,0,.85,.23,1.73-.87,2.26-1.92,.91-3.77,1.96-5.94,3.11Z"/>
  <path class="cls-6" d="M145.83,109.28c-.03,.3-.05,.6-.08,.9-.57,.1-.89,.48-1.13,.96-1.48,1.71-3.32,2.86-5.52,3.45-.13-.09-.26-.15-.41-.18,.22-.9-.65-1.85,.12-2.73l-.03,.06c1.45,1.91,2.77,.47,3.69-.42,1.3-1.25-.42-1.86-1.02-2.67-.01-.78-.02-1.55-.03-2.33,1.18-.56,2.33-1.24,3.76-1.05,.01,1.51-1.53,1.36-2.11,2.17-.92,1.04-.58,1.52,.72,1.56,.59,.73,1.3,.57,2.04,.29Z"/>
  <path class="cls-7" d="M242.08,85.28c3.58,1.73,3.88,2.41,3.33,7.57-2.31-1.55-3.47-4.2-3.33-7.57Z"/>
  <path class="cls-1" d="M233.5,162.54c2.19-1.69,4.08-3.86,7.68-4.61-2.05,2.33-2.67,5.09-5.62,5.79-1.23,.07-2.18-.41-2.85-1.43,0,0,.12,.03,.12,.03,.14,.33,.36,.41,.67,.22Z"/>
  <path class="cls-2" d="M252.2,133.96c-.07-3.45,.19-6.33,1.16-9.27q2.04,3.65-1.16,9.27Z"/>
  <path class="cls-5" d="M188.75,161.74c-.41-.17-.83-.34-1.24-.51,.04-1.15,.85-.94,1.52-.77,1.48,.38,2.97,.43,4.48,.41,.48,0,1.21-.25,1.3,.48,.06,.47-.22,1.01-.44,1.47-.3,.61-.82,.54-1.35,.28-1.36-.65-2.73-1.24-4.26-1.37Z"/>
  <path class="cls-13" d="M229.54,162.95c-3.01-1.85-6.25-1.77-9.56-1.1,0-.35,0-.71,0-1.06,3.98-1.08,7.77-1.18,10.95,2.03-.46,.04-.92,.09-1.38,.13Z"/>
  <path class="cls-15" d="M181.38,80.39c-2.87,1.29-5.73,2.57-8.6,3.86-.2-.89,.09-1.71,.39-2.53,0,0,0-.05,0-.06,.5,.06,1.01,.14,1.51,.21,.5,.04,1,.09,1.18-.55,0,0,0,0,0,0,1.33,.29,2.24-.7,3.37-1.05,.7-.22,1.5-1.22,2.13,.12Z"/>
  <path class="cls-6" d="M183.44,118.1c-3.96-1.31-4.08-1.61-1.95-5.65,.37,1.14,.65,2.06,.96,2.96,.31,.91,.63,1.81,.95,2.72l.04-.03Z"/>
  <path class="cls-4" d="M224.88,61.31c-.75-2.45,.37-3.63,2.34-4.33,.8-.29,.98,.33,1,.81,.14,2.33-1.93,2.5-3.34,3.53Z"/>
  <path class="cls-6" d="M163.7,101c-1.8-.79-3.47,.4-5.19,.42,.25-1.09,1.29-1.52,2.05-2.08,.81-.6,1.83-1.77,2.74-1.26,.84,.46,.47,1.89,.39,2.92Z"/>
  <path class="cls-6" d="M141.42,106.31c.01,.78,.02,1.55,.03,2.33-1.2,.47-2.6,.63-3.06,2.28-1.53-3.31-1.48-3.37,3.02-4.61Z"/>
  <path class="cls-15" d="M144.62,111.14c.25-.47,.57-.86,1.13-.96,.78,1.86,.91,3.84,1.12,5.8-.32,0-.65,.01-.97,.02-1.04-1.46-.36-3.37-1.28-4.87Z"/>
  <path class="cls-4" d="M229.51,63.1c-1.62,.42-2.2,2.2-3.69,2.8-1.6-2.2,.82-2.29,1.73-3.05,.52-.44,1.56-1.63,1.96,.25Z"/>
  <path class="cls-4" d="M181.38,80.39c-.63-1.34-1.43-.34-2.13-.12-1.12,.35-2.04,1.34-3.37,1.05,1.62-1.92,4.15-2.05,6.05-3.36,.74,.96-.3,1.27-.21,1.85,.04,.13,.08,.27,.1,.41-.11,.15-.26,.21-.45,.18Z"/>
  <path class="cls-2" d="M258.36,135.75c1.1,.03,2.2,.05,3.3,.08-.1,.24-.16,.52-.32,.71-.61,.69-.99,2.02-2.04,1.72-.99-.28-.78-1.59-.94-2.51Z"/>
  <path class="cls-4" d="M139.44,97.79c1.36-1.39,3.31-1.62,5.26-1.89-1.63,.83-3.25,1.66-4.88,2.48-.13-.2-.25-.39-.38-.59Z"/>
  <path class="cls-4" d="M196,72.53c-.82,.89-2.4,.78-2.87,2.13,0,0-.01,.03-.01,.03-.31-.39-1.39-.65-.38-1.29,.88-.56,1.9-.89,2.87-1.33,.13,.15,.26,.31,.4,.46Z"/>
  <path class="cls-4" d="M120.49,107.43c-.53,1.16-1.72,1.49-2.68,2.12-.19-.18-.39-.37-.58-.55,.92-.86,1.73-1.96,3.26-1.56Z"/>
  <path class="cls-4" d="M158.63,89.31c-1.44,1.19-2.37,1.62-3.96,1.92,1.02-1.51,2.14-1.72,3.96-1.92Z"/>
  <path class="cls-6" d="M143.8,108.99c-1.3-.04-1.63-.52-.72-1.56,.24,.52,.48,1.04,.72,1.56Z"/>
  <path class="cls-8" d="M206.75,144.6c.46,.59,.56,1.22,.27,1.95-.67-.28-.64-.92-.84-1.42,.19-.18,.38-.35,.57-.53Z"/>
  <path class="cls-15" d="M244.53,152.71c-.26-.76-.25-1.51,.11-2.25,.11,.76,.25,1.51-.11,2.25Z"/>
  <path class="cls-8" d="M205.85,147.81c.4,.1,.6,.39,.55,.76-.02,.12-.44,.33-.56,.27-.19-.1-.35-.37-.4-.6-.06-.25,.07-.47,.41-.43Z"/>
  <path class="cls-4" d="M121.88,106.91c-.36,.41-.76,.74-1.37,.51,.16-.93,.62-1.09,1.37-.51Z"/>
  <path class="cls-4" d="M123.21,105.56c.02,.75-.48,.99-1.11,1.1-.06-.79,.69-.78,1.11-1.1Z"/>
  <path class="cls-4" d="M161.02,88.43c-.31,.29-.8,.69-1.06,.26-.36-.6,.38-.49,.68-.64,.12,.13,.25,.26,.38,.38Z"/>
  <path class="cls-10" d="M238.88,54.44c.27,.62-.17,.69-.6,.77,.2-.26,.4-.52,.6-.77Z"/>
  <path class="cls-14" d="M175.88,81.32c-.18,.64-.68,.59-1.18,.55,.24-.51,.66-.63,1.18-.55Z"/>
  <path class="cls-15" d="M181.83,80.2c-.03-.14-.06-.27-.1-.41,.46-.08,.9-.08,1.16,.4-.35,0-.71,0-1.06,0Z"/>
  <path class="cls-14" d="M197.01,71.9c-.34,.21-.68,.41-1.01,.62-.13-.15-.26-.3-.4-.46,.28-.4,.71-.45,1.15-.46,.09,.1,.17,.2,.26,.29Z"/>
  <path class="cls-14" d="M196.75,71.61c.24-.29,.49-.49,.85-.15-.2,.15-.39,.29-.59,.44-.08-.1-.17-.2-.26-.29Z"/>
  <path class="cls-15" d="M183.72,74.43c-.05,.25-.11,.5-.16,.75,.05-.25,.11-.5,.16-.75Z"/>
  <path class="cls-14" d="M160.64,88.06l.55-.16c-.06,.18-.12,.36-.18,.54-.13-.12-.25-.25-.37-.38Z"/>
  <path class="cls-14" d="M159.12,89.05s-.05,.08-.08,.13c-.08-.05-.17-.11-.25-.16,.06-.05,.12-.13,.18-.13,.06,0,.1,.1,.16,.16Z"/>
  <path class="cls-12" d="M256.53,162.38c-.18,0-.37,0-.55,0,.18-.38,.37-.48,.55,0Z"/>
  <path class="cls-15" d="M152.82,135.49c.16-.14,.3-.13,.43,.05,0,0-.23,.08-.23,.08l-.2-.13Z"/>
  <path class="cls-8" d="M191.49,130.91c.12,.09,.23,.18,.35,.26-.06,.04-.16,.13-.18,.12-.11-.08-.19-.18-.29-.28,0,0,.12-.11,.12-.11Z"/>
  <path class="cls-9" d="M138.8,111.68c-.13,.01-.26,.03-.39,.04,.02-.11,.04-.23,.06-.34,.1,.12,.2,.24,.31,.36,0,0,.03-.06,.03-.06Z"/>
  <path class="cls-8" d="M183.4,118.13c.07,.04,.13,.09,.2,.13-.05-.05-.11-.11-.16-.16,0,0-.04,.03-.04,.03Z"/>
  <path class="cls-7" d="M148,173.05c-2.28-.01-4.46-.32-6.19-2.02-.59-.58-.95-1.14,.06-1.62,6.96-3.3,13.57-7.42,21.35-8.75,2.74-.47,4.85,.74,6.82,2.38,.65,.54,.93,1.04-.13,1.55-4.7,2.26-9.34,4.66-14.08,6.83-2.44,1.12-5.11,1.58-7.83,1.63Z"/>
  <path class="cls-7" d="M127.74,165.08c-5.45,4.08-10.6,7.52-16.88,8.65-3.61,.65-7.28,.84-10.74-.84-.61-.3-1.45-.76-1.58-1.29-.2-.85,.87-.95,1.46-1.2,4.56-1.92,8.35-5.29,13.21-6.69,4.91-1.41,9.46-.41,14.52,1.38Z"/>
  <path class="cls-7" d="M84.01,173.84c-2.05-.07-4.11-.17-5.93-1.26-.74-.45-1.77-1.19-.24-1.86,6.61-2.88,12.6-7.28,20.09-7.97,2.02-.19,3.89,.14,5.67,1.1,1.85,1,1.55,2.32,.11,3.09-6.19,3.3-12.3,6.96-19.71,6.9Z"/>
  <path class="cls-7" d="M140.34,162.25c2.76-.08,5.01-.08,6.97,1.25,.65,.44,1.21,.9,.09,1.51-6.64,3.6-13.22,7.39-21.18,7.12-1.07-.04-2.15,0-3.14-.53-.84-.45-1.08-1.08-.17-1.55,4.53-2.36,8.17-6.27,13.43-7.4,1.52-.33,3.02-.24,4-.4Z"/>
  <path class="cls-7" d="M99.27,179.07c-9.26,2.67-18.15,2.88-26.23-3.17-.66-.49-2.22-1.18-1.26-2.03,1.03-.91,2.85-2.53,4.14-1.4,3.98,3.5,8.49,2.69,12.97,2.07,1.46-.2,2.53-.14,3.71,.71,2.06,1.51,4.36,2.65,6.68,3.81Z"/>
  <path class="cls-7" d="M123.26,178.48c-11.59,5.28-20.96,.57-30.51-4.38,3.22-2.18,3.17-2.1,6.31-.34,4.16,2.34,8.66,2.05,13.03,.95,2.41-.61,4.25-.32,6.19,1.11,1.33,.97,2.93,1.59,4.97,2.66Z"/>
  <path class="cls-7" d="M188.71,177.12c-4.39,2.25-8.97,2.79-13.76,1.96-5.23-.91-9.8-3.24-13.91-6.47-.4-.31-1.93-.64-.79-1.67,.65-.58,1.51-1.25,2.52-.13,4.04,4.47,9.15,4.71,14.24,2.65,3.66-1.49,6.53-1.39,9.22,1.51,.71,.77,1.92,.96,2.47,2.15Z"/>
  <path class="cls-7" d="M142.45,177.26c-6.23,4.97-17.97,1.65-25.43-3.97,1.87-1.27,3.43-1.91,5.9-.52,2.95,1.67,6.52,.76,9.72-.06,1.97-.5,3.34-.22,4.84,1.1,1.46,1.28,3.2,2.24,4.97,3.44Z"/>
  <path class="cls-7" d="M137.07,171.72c1.5-1.2,2.51-1.3,3.89,.17,2.83,3,6.65,2.5,10.31,2.17,.62-.05,1.3-.13,1.81-.43,4.86-2.87,8.01,.29,11.26,3.09-8.79,3.73-19.8,2.2-27.28-5.01Z"/>
  <path class="cls-7" d="M143.82,160.76c3.09-3.17,10.31-3.41,14.97-.52-2.79,1.14-5.48,2.22-8.16,3.33-.52,.22-1.01,.45-1.44-.09-1.35-1.69-3.46-1.98-5.38-2.73Z"/>
  <path class="cls-7" d="M91.92,162.31c-4.84,4.51-9.55,1.21-14.28-.06,3.06-3.6,9.27-3.58,14.28,.06Z"/>
  <path class="cls-7" d="M98.16,161.25c5.76-2.64,10.6-2.21,15.72,.72-2.35,.98-4.41,1.82-6.45,2.71-.74,.33-1.15-.02-1.58-.52-1.81-2.11-4.27-2.7-7.69-2.91Z"/>
  <path class="cls-7" d="M120.84,161.72c4.26-3.74,8.57-1.88,13.04-.2-4.37,4.85-8.72,.43-13.04,.2Z"/>
  <path class="cls-7" d="M176.91,159.3c.72,.5,1.45,.99,2.17,1.49-1.61,1.73-3.95,2.21-5.98,2.42-2.11,.22-3.18-2.52-5.74-3.33,3.5-1.47,6.51-1.31,9.55-.58Z"/>
  <path class="cls-4" d="M252.8,45.59c-1.06,1.49-2.73,1.77-4.34,2.17,1.11-1.38,2.74-1.74,4.34-2.17Z"/>
  <path class="cls-4" d="M262.48,41.34c-1.17,1.27-2.8,1.62-4.34,2.16,1.04-1.53,2.69-1.84,4.34-2.16Z"/>
  <path class="cls-4" d="M282.37,31.46c-.41,1.7-1.77,2.16-3.26,2.44,.61-1.44,1.94-1.94,3.26-2.44Z"/>
  <path class="cls-4" d="M268.4,38.67c-1.25,1.11-2.75,1.71-4.34,2.16,1.05-1.5,2.65-1.92,4.34-2.16Z"/>
  <path class="cls-4" d="M300.09,24.28c-1.25,.36-2.3,1.38-3.74,1.08,.8-.99,2.01-1.3,3.1-1.77,.65-.28,.68,.23,.64,.69Z"/>
  <path class="cls-14" d="M290.41,28.04c-.44,1.31-1.63,1.33-2.7,1.57,.03-.17,.03-.35,0-.52,.78-.65,1.65-1.07,2.69-1.04Z"/>
  <path class="cls-8" d="M244.16,49.82c.05-.29,.1-.58,.15-.87,.86-.23,1.71-.46,2.57-.69-.47,1.26-1.67,1.3-2.73,1.56Z"/>
  <path class="cls-4" d="M277.54,34.4c-.39,1.04-1.3,1.05-2.19,1.1,.58-.66,1.27-1.11,2.19-1.1Z"/>
  <path class="cls-8" d="M271.09,37.6c-.45,.48-1,.69-1.66,.56,.33-.84,1.06-.51,1.66-.56Z"/>
  <path class="cls-8" d="M279.15,33.87c-.39,.67-1.02,.63-1.66,.55,.42-.59,.97-.78,1.66-.55Z"/>
  <path class="cls-4" d="M285.07,30.67c-.51,.67-1.19,.7-1.94,.55,.57-.45,1.21-.66,1.94-.55Z"/>
  <path class="cls-4" d="M292.02,27.5c-.35,.69-.91,.79-1.58,.52,.33-.75,.94-.67,1.58-.52Z"/>
  <path class="cls-8" d="M264.1,40.81c-.46,.47-1.01,.66-1.66,.56,.33-.84,1.02-.62,1.66-.56Z"/>
  <path class="cls-8" d="M257.11,44c-.43,.54-1.01,.64-1.66,.56,.34-.8,1.01-.64,1.66-.56Z"/>
  <path class="cls-8" d="M254.42,45.07c-.42,.59-.93,.9-1.66,.55,.4-.65,1.03-.6,1.66-.55Z"/>
  <path class="cls-8" d="M248.5,47.74c-.39,.68-.96,.81-1.66,.55,.42-.57,.98-.74,1.66-.55Z"/>
  <path class="cls-14" d="M294.72,26.43c-.39,.59-.95,.67-1.59,.52,.3-.86,.96-.65,1.59-.52Z"/>
  <path class="cls-4" d="M295.79,25.9c-.18,.52-.6,.56-1.06,.52,.07-.74,.52-.72,1.06-.52Z"/>
  <path class="cls-4" d="M293.1,26.97c-.13,.62-.56,.61-1.05,.51,.07-.73,.58-.59,1.05-.51Z"/>
  <path class="cls-8" d="M287.22,29.61c-.15,.63-.7,.46-1.12,.56,.2-.53,.6-.66,1.12-.56Z"/>
  <path class="cls-4" d="M286.14,30.14c-.18,.56-.68,.51-1.12,.56,.13-.65,.64-.59,1.12-.56Z"/>
  <path class="cls-8" d="M275.39,35.47c-.19,.55-.62,.63-1.12,.56,.13-.65,.65-.55,1.12-.56Z"/>
  <path class="cls-4" d="M274.31,36.01c-.2,.53-.65,.55-1.12,.56,.16-.61,.6-.67,1.12-.56Z"/>
  <path class="cls-8" d="M273.24,36.54c-.15,.63-.67,.52-1.12,.56,.14-.65,.59-.68,1.12-.56Z"/>
  <path class="cls-4" d="M272.16,37.07c-.25,.42-.66,.55-1.12,.56,.07-.77,.64-.58,1.12-.56Z"/>
  <path class="cls-4" d="M269.47,38.13c-.17,.58-.62,.61-1.12,.56,.13-.66,.66-.54,1.12-.56Z"/>
  <path class="cls-8" d="M258.18,43.47c-.24,.45-.68,.5-1.11,.56,.1-.71,.59-.67,1.11-.56Z"/>
  <path class="cls-8" d="M255.49,44.53c-.17,.57-.62,.61-1.11,.56,.09-.74,.65-.55,1.11-.56Z"/>
  <path class="cls-14" d="M296.33,25.37c.03,.37-.2,.49-.52,.51-.04-.38,.16-.53,.52-.51Z"/>
  <path class="cls-8" d="M287.72,29.08c.03,.17,.02,.35,0,.52-.18,.01-.35,.02-.53,.03-.03-.39,.27-.46,.54-.56Z"/>
  <path class="cls-13" d="M230.57,178.48c-.29-.09-.57-.19-.86-.28,.31-.32,.7-.51,1.07-.22,.3,.23-.06,.37-.22,.51Z"/>
  <path class="cls-13" d="M196.24,67.58c-.75,.26-1.08-.36-1.54-.71,.06-.59,.29-1,.99-.91,.18,.54,.37,1.08,.55,1.62Z"/>
  <path class="cls-13" d="M233.5,162.54c-.31,.19-.53,.11-.67-.22-.08-.11-.18-.21-.24-.33-.02-.05,.03-.15,.06-.22,.28,.26,.57,.52,.85,.77Z"/>
  <text class="cls-16" transform="translate(99.27 21.9)"><tspan x="0" y="0">5 mi kp cha hon chnh</tspan></text>
</svg>