<?xml version="1.0" encoding="UTF-8"?>
<svg id="Layer_1" data-name="Layer 1" xmlns="http://www.w3.org/2000/svg" viewBox="0 0 414 200">
  <defs>
    <style>
      .cls-1 {
        fill: #fff9b8;
      }

      .cls-2 {
        fill: #fbb040;
      }

      .cls-3 {
        fill: #6b645a;
      }

      .cls-4 {
        fill: #c1c0c0;
      }

      .cls-5 {
        fill: #8accf0;
      }

      .cls-6 {
        fill: #b9b0a8;
      }

      .cls-7 {
        fill: #332f2d;
      }

      .cls-8 {
        fill: #dedcdc;
      }

      .cls-9 {
        fill: #47403a;
      }

      .cls-10 {
        fill: #514c48;
      }

      .cls-11 {
        fill: #231f20;
        font-family: MyriadPro-Regular, 'Myriad Pro';
        font-size: 12px;
      }
    </style>
  </defs>
  <path class="cls-9" d="M188.69,75.87c.06-.41,.55-.86-.17-1.2-.55-.38-1.1-.18-1.65-.01-1.06-.1-1.57,.5-2.2,1.01-2.24,1.86-4.39,3.81-6.8,5.53-8.1,5.8-17.88,5.19-24.77-1.48-1.33-1.29-2.51-2.69-3.71-4.06-.58-.66-1.45-1.1-2.26-.69-1.11,.55,.11,1.07,.4,1.58,.36,.64,.94,1.22,1.21,1.88,.42,1.01,.07,1.83-1.47,1.93-5.39,.37-10.6-.08-15.25-2.45-3.07-1.57-3.29-3.52-.7-5.58,2.87-2.29,6.64-3.16,10.47-3.83,3.58-.63,3.57-.57,1.97-3.24-9.24-15.51-17.71-31.27-25.33-47.32-.36-.77-1.14-1.72,.96-1.53,.04,.19,.04,.39,.13,.57,7.64,15.95,15.95,31.68,25.19,47.1,2.13,3.56,2.18,3.54,7.2,3.24,.41-.02,.81-.03,1.22-.03,1.28-.01,1.78-.21,1.03-1.36-4.7-7.26-8.87-14.72-12.92-22.21-2.67-4.95-5.54-9.84-7.69-14.96,.83-.12,1.01,.59,1.59,.78,.72,.79,1.12,1.68,1.43,2.61-.06,.52-.19,1.06,.69,1.25,5.8,10.68,11.51,21.39,18.03,31.81,.55,.88,.95,1.83,2.54,1.71,.22-.02,.45-.04,.67-.07,.68-.06,1.36-.11,2.05-.17,.8,.54,1.47-.21,2.23-.14,.07-.11,.18-.13,.32-.08,.65,.13,1.3,.25,1.82-.23,.87-.04,1.74-.09,2.61-.13,.48,.11,.94,.14,1.29-.21,.33-.02,.65-.04,.98-.06,.47-.05,.95-.09,1.42-.14,.67-.23,1.36-.25,2.06-.15,.55,.42,1.03,.36,1.45-.14,.37-.03,.73-.06,1.1-.08,1.14-.04,2.47,.68,3.3-.53,.36-.43,.71-.86,1.07-1.28,.12-.15,.24-.29,.36-.44,2.52-3.09,5.31-5.88,10.61-5.78,.39,0,.77,.16,1.15,.24-.16,.32-.31,.63-.47,.95-2.38-.16-4.51,.29-6.3,1.6-2.05,1.49-3.7,3.23-5.04,5.16-2.31,3.33-4.63,6.67-8.77,8.86-2.34,1.23-5,2.3-7.77,1.44-2.78-.86-5.55-.89-8.38-.82-1.49,.04-3.7-.64-4.3,.39-.66,1.11,1.26,2.2,2.21,3.17,7.01,7.09,15.68,7.58,24.08,1.53,6.06-4.36,10.48-9.8,15.73-14.69,.74-.69,1.35-1.69,2.41-1.84,3.16-.45,1.76-1.47,.67-2.5-.52-.49-1.12-.92-1.69-1.38,.21-.42,.67-.5,1.16-.55,1.45,.58,2.47,1.57,2.96,2.7,.67,1.55,2.12,1.65,3.64,1.49,1.65-.17,3.01-.48,3.61-2.22,1.84-5.32,5.77-9.18,13.22-9.93,4.77-.48,8.84,.56,11.78,3.73-.23,.52-.6,.86-1.39,.69l-.03,.05c-.07-.52-.47-.8-1.06-.97,.04-.29-.2-.44-.46-.61-5.2-3.34-14.21-2.02-17.98,2.62-3.3,4.06-4.18,8.59-4.18,13.3-.05,.04-.16,.09-.15,.11,.03,.09,.1,.18,.16,.27-.77,8.09,3.13,15.02,8.64,21.9,1.37-7.22,2.25-14.09,1.03-21.04-.2-1.14-.26-2.32-.14-3.47,.2-2.07,.86-4.05,2.51-5.74,1.36-1.39,3.29-.73,5-.89,.24-.02,.46-.12,.69-.19,.25,.19,.5,.38,.76,.56-.23,.23-.67,.4-.3,.77,0,0,0,0,0,0-.54-.39-.96,.11-1.44,.13-.53-.06-1.06-.09-1.54,.15-.9-.09-1.72,.03-2.41,.53-.13,.05-.26,.09-.39,.14,.13,.06,.25,.13,.38,.19,.03,.65-1.24,.81-.93,1.56-.15,.3-.34,.58-.44,.89-1.47,4.6,.84,9.14,.23,13.75,1.64-1.41,2.15-3.17,2.94-4.8,1.38-2.83,1.32-2.84-2.33-2.62-.1,0-.21-.12-.37-.22,.7-.88,1.75-1.03,2.89-1.1,1.76-.11,3.53-.21,5.16-.83,4.73,.05,9.39-.59,14.07-.98,7.86-.65,15.72-1.34,23.55-2.14,5.81-.59,11.68-.8,17.43-1.73,.61,.12,1.25,.23,.93,.93-.81,.14-1.75-.18-2.44,.42-8.24,.78-16.48,1.55-24.72,2.33-6.23,.59-12.46,1.19-18.7,1.73-1.12,.1-1.51,.41-1.57,1.3-.19,2.89-.46,5.78-1.32,8.61-.24,.78,.18,1.37,.69,1.96,0,.32,.11,.58,.58,.64,3.83,4.76,3.7,10.03,2.86,15.3-.74,4.61-2.62,9-5.05,13.23-.33,.57-.45,.95-.09,1.58,3.95,6.97,1.33,14.75-6.83,18.75-2.83,1.38-4.09,2.78-3.65,5.25-.78,3.97-.59,7.95-.1,11.93-.03,.41-.07,.82-.1,1.22-.04,.2-.08,.39-.12,.59-.01,.3-.02,.59-.03,.89-.95,.99-.72,2.03-.24,3.09-.02,.28-.05,.56-.07,.85-.98,4.76-.8,9.56-.72,14.35,0,.22,.27,.44,.41,.67,.04,.85,.08,1.7,.12,2.55,.01,.16,.02,.32,.04,.48,.07,.68,.13,1.36,.2,2.05-.48,.77-.57,1.53,.11,2.26-.06,1.08-.54,1.89-2.07,2.05-.5-.09-.97-.09-1.3,.29-.78,.27-1.56,.53-2.33,.8-.52-.01-1.04-.03-1.56-.04-.69-.23-1.38-.45-2.06-.68-.16-.02-.33-.04-.49-.06-.29-.1-.58-.2-.87-.29-.17-.42-.56-.52-1.06-.46,0,0,0,0,0,0,.06-.36,.16-.7,.64-.86,1.36,.74,2.03,.63,1.86-.84-.17-1.47-.2-2.95-.29-4.43-.03-.45-.09-1,.71-1,.63,0,.6,.51,.64,.89,.15,1.73,.3,3.46,.44,5.19,.06,.74,.14,1.54,1.38,1.48,1.31-.06,1.42-.87,1.34-1.7-.15-1.6-.31-3.2-.42-4.81-.03-.46-.36-1.19,.58-1.25,1.08-.07,.9,.72,.93,1.27,.08,1.41,.1,2.83,.2,4.24,.04,.52-.21,1.31,.87,1.34,.97,.03,1.36-.63,1.52-1.28,.11-.43,.08-.9,.02-1.34-.99-7.44-.68-14.89-.02-22.33,.55-6.23,.53-12.46,.42-18.69-.02-1.32-.6-1.55-2.03-1.14-1.95,.56-4.01,.72-6.02,.55-2.43-.2-2.34,.94-2.08,2.13,1.32,6.07,.65,12.12-.08,18.17-.74,.33-.75,.72-.15,1.16-.09,1.05-.18,2.11-.27,3.16l-.06,.53c.11,1.87-.03,3.73-.35,5.59-.91-.05-.54-.87-1.1-1.13,.03-.66,.06-1.33,.09-1.99,.49-2.46,1-4.92,.72-7.42,.03-.61,.06-1.22,.09-1.83,.55-.35,.58-.73,.07-1.13,.14-2.72,.28-5.43,.42-8.15,.68-1.16,.75-2.32-.06-3.47-.16-1.93-.31-3.86-.47-5.79-.14-.13-.28-.27-.41-.4-.58-.08-1.16-.14-1.53-.57-.15-.48-.59-.58-1.14-.52-1.42-.84-2.64-1.8-2.93-3.27,.22-.57-.04-1.01-.56-1.38-.39-.64-.32-1.31-.21-1.98,.45-.24,.45-.49,0-.74-.03-.38-.07-.75-.1-1.13,.04-.45-.17-.76-.78-.83-.18-.05-.25-.14-.22-.29,.06-.41-.06-.74-.62-.87-3.49-5.39-3.37-10.69,.77-15.84,.55-.69,.91-1.19,.47-2.07-1.45-2.96-2.06-6.08-1.91-9.23,.08-1.68-.44-2.66-2.41-3.47-2.9-1.2-4.85-3.28-6.74-5.36-.32-.35-.32-.71-.16-1.09,1.8-.49,1.86,1.02,2.81,1.52,.48,1.23,1.64,2.08,2.85,2.81,1.06,.64,2.16,1.91,3.4,1.54,1.12-.34,.6-1.85,.97-2.82,.19-.49,.15-1.05,.44-1.49,1.22-1.86,.84-3.52-.81-5.07l.52-.96c1.24,.75,2.07,2.8,4.17,.62,.55-.57,.87-.95,.77-1.63-.25-1.72-.45-3.45-.66-5.17,.02-.06,.06-.13,.04-.19-.03-.12-.1-.24-.15-.36-.2-1.18-1.22-1.17-2.36-1.01-1.03,.15-1.5,.55-1.38,1.44,.07,.52,.38,1.17-.44,1.58-.33-.04-.67-.08-1-.11,.68-2.04-.52-2.58-2.86-2.26-.8,.11-1.62,.11-2.42,.2q-4.33,.47-4.06,3.99c0,.76-.03,1.52-.02,2.28,.01,.79-.16,1.43-1.47,1.21-.1-.63-.2-1.25-.3-1.88,.28-1.31,.27-2.62,.12-3.93Zm15.91-6.18l-.12,.03c0-.14,.01-.29,.02-.43,.12-1.23,.24-2.46,.36-3.7-.54-.52-.26-.94,.27-1.32,.28-.17,.44-.39,.13-.61-.33-.23-.72-.18-1.09,0-2.33,.22-4.66,.41-6.98,.68-.79,.09-2.12-.04-1.4,1.21l.43,.5c-.78,.14-1.83,.08-2.29,.46-2.47,2.07-4.68,4.3-6.91,7,2,0,3.54,.13,5.04-.03,3.01-.32,5.94-.91,9.05-.88,1.43,.02,4.19-.11,3.49-2.53,.06-.04,.17-.09,.17-.11-.04-.1-.11-.19-.16-.28Zm-27.38-2.61c.22-.17,.66-.37,.64-.51-.12-.71-.88-.41-1.33-.36-6.97,.63-13.93,1.3-20.9,1.96-1.29,.15-2.59,.29-3.88,.44-1.5-.06-2.99-.1-4.43,.31-.86,.44-1.84,.38-2.81,.43-4.33,.24-8.28,1.36-11.71,3.45-2.64,1.61-2.49,2.92,.37,4.32,3.13,1.54,6.61,2.14,10.26,2.14,1.26,0,2.99,.49,3.66-.35,.66-.83-.87-1.65-1.46-2.46-1.29-1.78-1.05-2.34,1.59-2.65,5.11-.6,10.27-.59,15.37-.13,5.9,.53,10.63-.48,13.56-4.87,.15-.22,.35-.43,.53-.64,.55-.24,.47-.68,.54-1.07Zm55.42,15.6c-1.31,2.43-2.44,4.62-3.66,6.77-4.28,7.59-8.81,15.1-11.95,23.06-1.11,2.81-2.14,5.66-1.82,8.67,.23,2.09,1.08,2.47,3.46,1.59,1.04-.39,1.99-.86,2.81-1.5,10.68-8.36,14.93-18.67,14.63-30.31-.07-2.86-1.16-5.54-3.47-8.27Zm-15.83,21.24c-.09-3.2-.71-6.18-2.39-9.05-2.22-3.78-4.7-7.46-7.13-11.16-1.03-1.57-1.73-1.61-2.99-.16-.36,.42-.68,.89-.89,1.37-3.04,7.14-3.16,14.27,.68,21.22,1.94,3.52,5.26,6.47,7.3,9.98,.28,.49,.43,1.3,1.28,1.25,.77-.04,.98-.79,1.28-1.31,2.25-3.89,2.51-8.07,2.86-12.14Zm1.66,1.44c3.05-6.76,7.39-13.01,10.86-19.56,2.33-4.4,3.46-8.93,3.64-13.66,.05-1.22-.4-1.6-1.95-1.39-1.92,.26-3.89,.35-5.83,.5-1.02,.08-2,.25-2.27,1.17-1.6,5.33-6.06,9.96-6.04,15.72,0,2.22-1.58,4.7-.76,6.62,1.49,3.49,2.23,6.93,2.35,10.6Zm12.44,8.31c-2.21,3.57-4.92,6.49-8.61,8.63-5.09,2.96-10.75,4.83-17.29,3.68-1.16-.2-1.39-.1-1.41,.81-.11,3.42,2.54,6.06,6.86,6.69,3.3,.48,6.49-.02,9.59-.87,10.05-2.75,15.26-11.47,10.87-18.94Zm-22.55,11.56c1.53-.09,3.03-.25,4.51-.67,1.51-.42,1.59-.95,.93-2.01-3.03-4.82-6.1-9.6-9.83-14.12-1.18-1.42-1.72-1.15-2.48,.15-2.68,4.54-2.6,9.04,.16,13.52,1.35,2.19,3.61,3.23,6.71,3.12Z"/>
  <path class="cls-2" d="M133.57,28.75c2.15,5.12,5.01,10.01,7.69,14.96,4.05,7.5,8.22,14.95,12.92,22.21,.75,1.16,.25,1.35-1.03,1.36-.41,0-.82,0-1.22,.03-5.02,.29-5.07,.31-7.2-3.24-9.24-15.42-17.55-31.15-25.19-47.1-.08-.18-.09-.38-.13-.57,2.22-.94,4.23-2.28,6.95-2.26,1.96,5,4.36,9.88,7.21,14.6Z"/>
  <path class="cls-1" d="M281,64.9c-5.75,.93-11.62,1.14-17.43,1.73-7.84,.79-15.69,1.49-23.55,2.14-4.68,.38-9.34,1.02-14.07,.98-1.05-.02-2.1-.03-3.16-.06-.42,0-.83-.1-.93-.47-.12-.43,.18-.88,.64-.9,2.88-.09,2.09-1.71,2.1-3.01,.06-.26,.23-.43,.6-.44,.83,.25,1.55,.25,2.09-.45,.53-.69,1.45-.99,2.33-1.31,2.58-.26,5.16-.51,7.75-.77,.39-.04,.78-.07,1.17-.11,5.53-.41,11.01-1.2,16.57-1.44,1.46-.06,2.97-.19,4.33-.75,.51-.01,1.02-.03,1.53-.04,6.21-.22,12.33-1.07,18.49-1.63,.01,.1,.04,.2,.08,.3,0,.62-.02,1.19,.45,1.81,1.02,1.34,1.89,2.78,1.02,4.43Z"/>
  <path class="cls-7" d="M225.2,64.87c-.36,0-.53,.18-.6,.44-2.18,1.38-3.83,3.22-6.35,4.55-.49-1.42-.28-2.46,1.1-3.37,1.11-.73,2.02-1.65,3.02-2.48,0,0-.09-.03-.09-.03,.43-.16,1.06-.24,.55-.8l-.03,.1,.12,.02c.91-.14,1.54-.45,1.26-1.3,0,0,0,0,0,0,1.26,.24,1.38-.71,1.97-1.17,.51-.23,.96-.49,1.07-.99l.11-.09c1.83-1.39,3.52-2.88,4.82-4.62,3.99-3.98,7.46-8.23,10.86-12.53,.88-1.11,.68-1.58-.82-2.14-3.16-1.18-3.12-1.24-.23-2.99,2.38-1.44,4.75-2.91,7.13-4.36,.45-.27,.92-.62,1.53-.44,.68,.21,.49,.76,.49,1.18,.02,2.82-.03,5.65,0,8.47,.02,1.29-.72,1.53-1.92,.85-2.2-1.23-3.41-.7-4.63,1.08-3.31,4.79-7.53,9.12-11.56,13.53-.85,.3-1.17,.98-1.75,1.47-.26,.14-.4,.32-.25,.57-.37,.07-.7,.19-.64,.55,.05,.3,.36,.29,.65,.27,0,.12,0,.24,0,.37-.86-.73-1.41-.16-1.94,.31-1.31,1.17-2.6,2.36-3.89,3.55Z"/>
  <path class="cls-7" d="M189.91,85.14c-5.38,2.3-11.05,4.08-16.7,5.89-2.4,.77-4.87,1.39-7.32,2.04-.78,.21-1.74,1.05-2.27-.32-.44-1.13,.47-1.29,1.45-1.55,5.39-1.4,10.67-3.04,15.82-4.91,2.57-.93,5.06-1.99,7.59-3,3.84-1.33,7.36-3.08,10.77-4.99,.6-.16,1.2-.34,1.56-.8l.04,.02c.35-.15,.77-.24,1.03-.45,.43-.35,.77-.93,1.48-.62,.62,.28,.41,.93,.35,1.39-.18,1.4-1.98,1.58-3.01,2.36-3.59,1.65-7.19,3.3-10.78,4.94Z"/>
  <path class="cls-9" d="M231.01,59.83c-.15-.26-.01-.43,.25-.57-.16,.33-.14,.66,.38,.72,.99,.1,1.13-.54,1.35-1.08h.97c.91,1.7,2.58,.36,3.86,.6,.55,.13,1.08,.14,1.54-.2,9.58-.89,19.15-1.89,28.75-2.59,3.03-.22,6.04-.82,9.13-.59,.44,.03,.81-.06,.7,.44-2.55,.62-5.2,.79-7.84,1.02-7.67,.67-15.34,1.31-22.98,2.1-4.9,.51-9.87,.65-14.68,1.69-.49-.08-1.11,.2-1.41-.34,0-.12,0-.24,0-.37,.43-.28,.43-.55-.02-.82Z"/>
  <path class="cls-1" d="M232.45,61.35c4.8-1.04,9.78-1.18,14.68-1.69,7.65-.79,15.32-1.43,22.98-2.1,2.64-.23,5.28-.39,7.84-1.02q2.01,.95,1.59,2.12c-.04-.1-.07-.2-.08-.3-.89-1.36-2.39-.59-3.52-.48-1.87,.18-3.83,.84-5.57,.85-2.81,.01-5.55,.24-8.31,.52-.54,.05-1.21,.06-1.08,.75-.51,.01-1.02,.03-1.53,.04-1.08,.23-2.01-.44-3.05-.35-5.64,.5-11.23,1.36-16.92,1.57-.87,.03-1.17,.32-.94,.97-.39,.04-.78,.07-1.17,.11,.13-.77-.46-.83-1.16-.69-1.24,.24-2.49,.3-3.76,.22,0-.17,0-.34,0-.52Z"/>
  <path class="cls-10" d="M133.57,28.75c-2.86-4.73-5.25-9.6-7.21-14.6,1.29-.51,1.58,.41,1.84,.95,2.37,4.8,4.65,9.62,6.96,14.43-.59-.19-.76-.9-1.59-.78Z"/>
  <path class="cls-9" d="M151,94.5c.99-.18,1.28,.3,1.43,.94,.14,.6-.06,.93-.9,1.08-2.45,.41-4.88,.88-7.31,1.36-.85,.17-1.41,.12-1.57-.68-.15-.72-.1-1.16,1.06-1.33,2.45-.36,4.87-.9,7.3-1.36Z"/>
  <path class="cls-7" d="M234.45,82.83c-.46-.06-.58-.32-.58-.64,4.05-1.42,6.97,.4,9.77,2.25,1.75,1.15,2.98,2.71,3.93,4.36,.19,.33,.91,.83,.03,1.11-.65,.21-.98-.29-1.21-.72-.67-1.25-1.61-2.39-2.81-3.35-2.5-1.99-5.23-3.63-9.13-2.99Z"/>
  <path class="cls-10" d="M208.14,164.38c.56,.26,.19,1.08,1.1,1.13,.02,3.48,.03,6.96,.05,10.44-.38,.12-.76,.24-1.14,.35-.62-3.97-.52-7.95,0-11.92Z"/>
  <path class="cls-7" d="M235.93,114.28c-.21,.01-.83,.05-.94-.4-.16-.64,.55-.66,1.12-.7,4.28-.28,7.03-2.32,9.27-4.97,.36-.42,.58-1.32,1.5-.82,.62,.34-.08,.94-.41,1.33-2.48,2.92-5.6,5.11-10.53,5.56Z"/>
  <path class="cls-9" d="M160.95,93.5c.01,.64-.29,1-.89,1.15-1.08,.26-2.17,.5-3.25,.74-.95,.21-1.24-.24-1.53-.85-.33-.7,.08-.93,.79-1.11,1.15-.28,2.32-.55,3.46-.86,1.35-.36,1.13,.56,1.43,.93Z"/>
  <path class="cls-10" d="M220.71,170.52c-.14-.22-.4-.44-.41-.67-.08-4.79-.25-9.59,.72-14.35-.1,5.01-.21,10.01-.31,15.02Z"/>
  <path class="cls-10" d="M221.59,148.86c-.49-3.98-.68-7.96,.1-11.93,.19,3.98,.28,7.96-.1,11.93Z"/>
  <path class="cls-10" d="M208.95,154.97c.28,2.5-.23,4.96-.72,7.42,0-2.49-.04-4.98,.72-7.42Z"/>
  <path class="cls-10" d="M195.88,58.85c-.49,.04-.95,.13-1.16,.55-.95-.3-1.9-.61-2.85-.91,.16-.32,.31-.63,.47-.95,1.37,.12,2.62,.43,3.54,1.31Z"/>
  <path class="cls-10" d="M209.47,140.39c.81,1.15,.75,2.31,.06,3.47-.23-1.15-.27-2.31-.06-3.47Z"/>
  <path class="cls-10" d="M221.1,154.66c-.48-1.06-.71-2.1,.24-3.09,.27,1.05,0,2.07-.24,3.09Z"/>
  <path class="cls-9" d="M208.14,176.3c.38-.12,.76-.24,1.14-.35,.14,.75,.28,1.5,.42,2.25-.8,.2-1.1-.26-1.44-.68-.04-.41-.09-.81-.13-1.22Z"/>
  <path class="cls-10" d="M221.18,177.86c-.68-.73-.59-1.49-.11-2.26,.4,.74,.39,1.5,.11,2.26Z"/>
  <path class="cls-10" d="M179.15,64.79c-.83,1.21-2.17,.49-3.3,.53,1.01-.53,2.24-.19,3.3-.53Z"/>
  <path class="cls-10" d="M208.27,177.52c.33,.42,.63,.88,1.44,.68,.12,.14,.24,.28,.37,.42-.49,.16-.58,.5-.64,.86-.94-.44-1.24-1.13-1.16-1.95Z"/>
  <path class="cls-3" d="M279.49,66.25c.69-.6,1.63-.28,2.44-.42-.61,.86-1.6,.38-2.44,.42Z"/>
  <path class="cls-10" d="M209.11,152.01c.51,.4,.47,.77-.07,1.13-.14-.38-.18-.76,.07-1.13Z"/>
  <path class="cls-10" d="M174.75,65.41c-.42,.49-.9,.55-1.45,.14,.46-.21,.94-.29,1.45-.14Z"/>
  <path class="cls-10" d="M164.93,66.24c-.53,.48-1.17,.36-1.82,.23,.55-.35,1.18-.35,1.82-.23Z"/>
  <path class="cls-10" d="M162.79,66.54c-.75-.07-1.42,.68-2.23,.14,.73-.21,1.45-.4,2.23-.14Z"/>
  <path class="cls-10" d="M137.27,33.4c-.87-.2-.75-.74-.69-1.25,.23,.42,.46,.84,.69,1.25Z"/>
  <path class="cls-10" d="M202.43,128.45c.52,.38,.79,.82,.56,1.38-.46-.39-.64-.85-.56-1.38Z"/>
  <path class="cls-10" d="M201.35,123.77c.61,.07,.82,.38,.78,.83-.26-.28-.52-.55-.78-.83Z"/>
  <path class="cls-10" d="M202.22,125.73c.45,.25,.44,.5,0,.74-.2-.25-.21-.49,0-.74Z"/>
  <path class="cls-10" d="M200.5,122.61c.56,.13,.69,.46,.62,.87-.4-.21-.64-.48-.62-.87Z"/>
  <path class="cls-10" d="M217.81,180.2c.33-.38,.8-.38,1.3-.29-.35,.34-.77,.48-1.3,.29Z"/>
  <path class="cls-10" d="M209.42,179.46c.5-.05,.9,.04,1.06,.46-.47,0-.89-.06-1.06-.46Z"/>
  <path class="cls-10" d="M168.83,65.89c-.35,.35-.81,.32-1.29,.21,.37-.29,.79-.39,1.29-.21Z"/>
  <path class="cls-10" d="M205.92,133.11c.55-.05,.99,.04,1.14,.52-.45-.07-.92-.13-1.14-.52Z"/>
  <path class="cls-10" d="M171.24,65.69c-.47,.05-.95,.09-1.42,.14,.45-.19,.92-.25,1.42-.14Z"/>
  <path class="cls-4" d="M186.87,74.66c.55-.16,1.1-.37,1.65,.01-.55,0-1.1,0-1.65-.01Z"/>
  <path class="cls-10" d="M213.91,180.96c.52,.01,1.04,.03,1.56,.04-.53,.28-1.05,.22-1.56-.04Z"/>
  <path class="cls-10" d="M208.59,134.2c.14,.13,.28,.27,.41,.4-.14-.13-.28-.27-.41-.4Z"/>
  <path class="cls-10" d="M221.37,150.68c.04-.2,.08-.39,.12-.59-.04,.2-.08,.39-.12,.59Z"/>
  <path class="cls-10" d="M158.52,66.85c-.22,.02-.44,.04-.67,.07,.22-.02,.45-.04,.67-.07Z"/>
  <path class="cls-10" d="M298.12,104.11c.12-.13,.23-.27,.35-.4,.06,.23-.05,.37-.35,.4Z"/>
  <path class="cls-10" d="M220.87,173.56c-.01-.16-.02-.32-.04-.48,.05,.11,.11,.21,.13,.32,.01,.05-.06,.1-.1,.15Z"/>
  <path class="cls-10" d="M180.57,63.07c-.12,.15-.24,.29-.36,.44,.12-.15,.24-.29,.36-.44Z"/>
  <path class="cls-10" d="M211.36,180.22c.16,.02,.33,.04,.49,.06-.16-.02-.33-.04-.49-.06Z"/>
  <path class="cls-5" d="M210.08,178.61c-.12-.14-.24-.28-.37-.42-.14-.75-.28-1.5-.42-2.25-.02-3.48-.03-6.96-.05-10.44,.32-1.85,.46-3.71,.35-5.59,.02-.18,.04-.36,.06-.53,.09-1.05,.18-2.11,.27-3.16,.36-.36,.33-.75,.15-1.16,.73-6.06,1.39-12.11,.08-18.17-.26-1.2-.35-2.33,2.08-2.13,2.01,.16,4.08,0,6.02-.55,1.42-.41,2-.17,2.03,1.14,.11,6.24,.13,12.47-.42,18.69-.66,7.44-.97,14.89,.02,22.33,.06,.44,.09,.91-.02,1.34-.16,.65-.55,1.31-1.52,1.28-1.08-.03-.83-.82-.87-1.34-.11-1.41-.12-2.83-.2-4.24-.03-.55,.15-1.33-.93-1.27-.94,.06-.61,.79-.58,1.25,.11,1.6,.27,3.21,.42,4.81,.08,.83-.03,1.64-1.34,1.7-1.24,.06-1.32-.74-1.38-1.48-.14-1.73-.29-3.46-.44-5.19-.03-.38,0-.89-.64-.89-.81,0-.74,.54-.71,1,.09,1.48,.12,2.96,.29,4.43,.17,1.47-.5,1.58-1.86,.84Z"/>
  <path class="cls-2" d="M232.64,82.68c2.31,2.73,3.4,5.41,3.47,8.27,.3,11.64-3.95,21.95-14.63,30.31-.82,.64-1.77,1.12-2.81,1.5-2.38,.88-3.23,.5-3.46-1.59-.32-3.01,.71-5.86,1.82-8.67,3.14-7.95,7.68-15.46,11.95-23.06,1.21-2.16,2.35-4.34,3.66-6.77Z"/>
  <path class="cls-2" d="M229.7,55.31c-.73,1.71-1.94,3.04-4.25,3.64-.98,.25-1.16,1.13-1.71,1.71-.23,.07-.45,.17-.69,.19-1.7,.16-3.64-.5-5,.89-1.66,1.69-2.31,3.67-2.51,5.74-.11,1.15-.06,2.33,.14,3.47,1.22,6.95,.34,13.82-1.03,21.04-5.51-6.88-9.41-13.81-8.64-21.9,0-.13,0-.25,0-.38,0-4.71,.88-9.24,4.18-13.3,3.77-4.64,12.78-5.95,17.98-2.62,.26,.17,.5,.32,.46,.61-.02,.57,.19,.99,1.06,.97l.03-.05Z"/>
  <path class="cls-2" d="M191.87,58.48c.95,.3,1.9,.61,2.85,.91,.56,.46,1.17,.89,1.69,1.38,1.1,1.03,2.5,2.05-.67,2.5-1.06,.15-1.67,1.16-2.41,1.84-5.25,4.89-9.67,10.33-15.73,14.69-8.4,6.05-17.07,5.55-24.08-1.53-.96-.97-2.87-2.06-2.21-3.17,.6-1.03,2.81-.35,4.3-.39,2.83-.07,5.6-.03,8.38,.82,2.78,.86,5.43-.21,7.77-1.44,4.14-2.18,6.46-5.53,8.77-8.86,1.34-1.93,2.99-3.67,5.04-5.16,1.79-1.3,3.92-1.76,6.3-1.6Z"/>
  <path class="cls-2" d="M216.81,103.92c-.36,4.07-.62,8.26-2.86,12.14-.3,.52-.51,1.27-1.28,1.31-.84,.04-.99-.76-1.28-1.25-2.04-3.51-5.36-6.46-7.3-9.98-3.84-6.96-3.72-14.09-.68-21.22,.21-.48,.52-.95,.89-1.37,1.26-1.45,1.96-1.41,2.99,.16,2.43,3.7,4.9,7.38,7.13,11.16,1.69,2.87,2.3,5.85,2.39,9.05Z"/>
  <path class="cls-2" d="M218.47,105.37c-.12-3.67-.86-7.11-2.35-10.6-.82-1.92,.77-4.4,.76-6.62-.02-5.76,4.43-10.38,6.04-15.72,.28-.92,1.25-1.09,2.27-1.17,1.95-.15,3.91-.24,5.83-.5,1.55-.21,2,.17,1.95,1.39-.19,4.73-1.31,9.26-3.64,13.66-3.47,6.55-7.82,12.8-10.86,19.56Z"/>
  <path class="cls-5" d="M230.91,113.68c4.39,7.47-.82,16.19-10.87,18.94-3.1,.85-6.29,1.35-9.59,.87-4.31-.62-6.96-3.26-6.86-6.69,.03-.91,.26-1.02,1.41-.81,6.55,1.15,12.2-.72,17.29-3.68,3.69-2.14,6.39-5.07,8.61-8.63Z"/>
  <path class="cls-1" d="M151.74,68.6c1.29-.15,2.59-.29,3.88-.44,.05,.53-.09,1.15,.96,1.16,2.99-.16,6.1,.52,8.94-.76,.16,0,.32-.02,.47-.07,2.03-.05,4.02,.33,6.11-.2,1.37-.35,3.03-.48,4.57-.14-.18,.21-.38,.42-.53,.64-2.93,4.39-7.66,5.4-13.56,4.87-5.09-.46-10.26-.47-15.37,.13-2.64,.31-2.88,.88-1.59,2.65,.58,.81,2.12,1.63,1.46,2.46-.67,.84-2.4,.35-3.66,.35-3.65,0-7.13-.6-10.26-2.14-2.86-1.4-3.01-2.71-.37-4.32,3.42-2.09,7.38-3.22,11.71-3.45,.97-.05,1.94,.01,2.81-.43,.03,1.85,2.12,1.24,3.21,1.41,1.08,.17,1.54-.8,1.23-1.72Zm-10.81,8.58c-.38-.9-1.09-.86-1.68-1.02-1.27-.35-3.18-.46-3.3-1.59-.12-1.12,1.69-1.56,2.89-2.05,.79-.32,1.64-.55,2.49-.77,1.32-.33,2.66-.61,4-.91-3.72-.42-6.91,.46-9.66,2.25-1.17,.76-1.81,1.8-.21,2.7,1.56,.88,3.28,1.54,5.49,1.39Z"/>
  <path class="cls-5" d="M208.35,125.24c-3.1,.1-5.36-.93-6.71-3.12-2.76-4.48-2.85-8.99-.16-13.52,.77-1.3,1.31-1.57,2.48-.15,3.73,4.52,6.8,9.3,9.83,14.12,.66,1.05,.58,1.58-.93,2.01-1.48,.42-2.98,.58-4.51,.67Z"/>
  <path class="cls-1" d="M204.6,70.09c.7,2.42-2.06,2.54-3.49,2.53-3.11-.03-6.04,.56-9.05,.88-1.5,.16-3.04,.03-5.04,.03,2.23-2.7,4.45-4.93,6.91-7,.45-.38,1.51-.32,2.29-.46,1.61-.1,3.23-.2,4.84-.3,1.28,.1,2.55,.2,3.8-.16-.12,1.23-.24,2.46-.36,3.7-.06,.04-.17,.09-.16,.12,.02,.11,.09,.21,.14,.31,0,0,.12-.03,.12-.03,0,.13,0,.26,0,.39Z"/>
  <path class="cls-2" d="M193.33,87.08c-.45-1.46,.03-2.47,1.94-3.12,1.67-.56,2.91-1.85,4.92-1.91,1.65,1.55,2.03,3.21,.81,5.07-.29,.44-.25,1-.44,1.49-.37,.96,.15,2.48-.97,2.82-1.25,.37-2.35-.89-3.4-1.54-1.21-.74-2.37-1.58-2.85-2.81Z"/>
  <path class="cls-2" d="M199.12,77.36c-1.53,.7-3.08,1.38-4.6,2.1-1.62,.77-2.88,.87-3.35-.93-.04-.15-.53-.22-.8-.33q-.27-3.51,4.06-3.99c.8-.09,1.62-.09,2.42-.2,2.34-.32,3.53,.22,2.85,2.26-.54,.25-.46,.7-.58,1.09Z"/>
  <path class="cls-1" d="M156.59,69.32c-1.05,0-.91-.63-.96-1.16,6.97-.66,13.93-1.32,20.9-1.96,.45-.04,1.21-.34,1.33,.36,.03,.14-.41,.34-.64,.51-3.12,.24-6.24,.45-9.35,.73-.66,.06-1.74-.37-1.88,.68-.15,.05-.3,.08-.47,.07-3.07-.41-6.09-.46-8.94,.76Z"/>
  <path class="cls-1" d="M204.86,65.6c-1.25,.36-2.52,.26-3.8,.16,.32-.16,.83-.28,.91-.5,.1-.27-.37-.33-.7-.3-1.83,.2-3.66,.4-5.48,.6-.72-1.25,.61-1.12,1.4-1.21,2.32-.26,4.65-.46,6.98-.68,.41,.11,.9,.14,.95,.61-.54,.38-.82,.8-.27,1.32Z"/>
  <path class="cls-3" d="M166,68.49c.13-1.05,1.22-.62,1.88-.68,3.11-.29,6.23-.5,9.35-.73-.07,.39,.01,.83-.54,1.07-1.54-.34-3.2-.2-4.57,.14-2.09,.53-4.08,.15-6.11,.2Z"/>
  <path class="cls-1" d="M151.74,68.6c.32,.92-.14,1.89-1.23,1.72-1.09-.17-3.17,.44-3.21-1.41,1.44-.4,2.94-.37,4.43-.31Z"/>
  <path class="cls-10" d="M195.79,65.56c1.83-.2,3.66-.41,5.48-.6,.32-.03,.79,.02,.7,.3-.08,.22-.59,.34-.91,.5-1.61,.1-3.23,.2-4.84,.3-.14-.17-.28-.33-.43-.5Z"/>
  <path class="cls-10" d="M210.07,155.07c.18,.41,.2,.8-.15,1.16-.6-.44-.58-.83,.15-1.16Z"/>
  <path class="cls-4" d="M229.67,55.36c-.86,.02-1.07-.4-1.06-.97,.58,.16,.99,.45,1.06,.97Z"/>
  <path class="cls-10" d="M205.13,64.28c-.05-.46-.54-.49-.95-.61,.36-.17,.76-.23,1.09,0,.31,.21,.15,.44-.13,.61Z"/>
  <path class="cls-6" d="M204.48,69.73c-.05-.1-.12-.2-.14-.31,0-.03,.1-.08,.16-.12,0,.14-.01,.29-.02,.43Z"/>
  <path class="cls-6" d="M218.81,62.79c0,.11,0,.22,0,.33-.13-.06-.25-.13-.38-.19,.13-.05,.26-.09,.39-.14Z"/>
  <path class="cls-3" d="M204.6,70.09c0-.13,0-.26,0-.39,.06,.09,.13,.19,.16,.28,0,.02-.11,.07-.17,.11Z"/>
  <path class="cls-10" d="M206,69.7c0,.13,0,.25,0,.38-.06-.09-.13-.17-.16-.27,0-.02,.1-.07,.15-.11Z"/>
  <path class="cls-10" d="M204.98,74.91c-.03-.18-.07-.36-.1-.54,.05,.12,.11,.23,.15,.36,.02,.06-.03,.12-.04,.19Z"/>
  <path class="cls-10" d="M209.65,159.39c-.02,.18-.04,.36-.06,.53,.02-.18,.04-.36,.06-.53Z"/>
  <path class="cls-3" d="M238.53,62.23c-.22-.65,.08-.93,.94-.97,5.68-.21,11.27-1.07,16.92-1.57,1.04-.09,1.97,.57,3.05,.35-1.36,.56-2.88,.69-4.33,.75-5.56,.24-11.04,1.03-16.57,1.44Z"/>
  <path class="cls-3" d="M260.96,60c-.13-.69,.54-.69,1.08-.75,2.76-.27,5.5-.5,8.31-.52,1.74,0,3.7-.66,5.57-.85,1.13-.11,2.63-.88,3.52,.48-6.16,.56-12.28,1.41-18.49,1.63Z"/>
  <path class="cls-3" d="M229.62,63.1c.29-1.35,1.72-1.06,2.83-1.23,1.27,.07,2.52,.02,3.76-.22,.7-.14,1.29-.08,1.16,.69-2.58,.26-5.16,.51-7.75,.77Z"/>
  <path class="cls-8" d="M227.23,59.83c-.04-.12-.51-.11-.19-.35,.1,.09,.2,.17,.3,.26,0,0-.11,.09-.11,.09Z"/>
  <path class="cls-3" d="M140.93,77.18c-2.21,.15-3.93-.51-5.49-1.39-1.6-.91-.95-1.95,.21-2.7,2.75-1.79,5.95-2.67,9.66-2.25-1.33,.3-2.68,.58-4,.91-.85,.21-1.7,.44-2.49,.77-1.2,.49-3.01,.93-2.89,2.05,.12,1.14,2.04,1.24,3.3,1.59,.59,.16,1.3,.12,1.68,1.02Z"/>
  <path class="cls-3" d="M156.59,69.32c2.85-1.21,5.87-1.16,8.94-.76-2.84,1.27-5.95,.6-8.94,.76Z"/>
  <text class="cls-11" transform="translate(245.81 102.98)"><tspan x="0" y="0">1 bính</tspan></text>
</svg>