<svg width="24" height="24" viewBox="0 0 24 24" fill="none" xmlns="http://www.w3.org/2000/svg">
<g clip-path="url(#clip0_3540_3306)">
<path d="M20.3296 19.8398C20.3296 20.5398 19.7496 21.0998 19.0296 21.0998H4.89961C4.17961 21.0998 3.59961 20.5398 3.59961 19.8398C3.59961 16.3598 6.49961 13.5298 10.0696 13.5298H13.8596C17.4296 13.5298 20.3296 16.3598 20.3296 19.8398Z" stroke="#D9D9D9" stroke-width="1.2"/>
<path d="M11.9703 11.4701C14.2803 11.4701 16.1603 9.6001 16.1603 7.2801C16.1603 4.9601 14.2803 3.1001 11.9703 3.1001C9.66027 3.1001 7.78027 4.9701 7.78027 7.2901C7.78027 9.6101 9.65027 11.4801 11.9703 11.4801V11.4701Z" stroke="#D9D9D9" stroke-width="1.2" stroke-linecap="round" stroke-linejoin="round"/>
</g>
<defs>
<clipPath id="clip0_3540_3306">
<rect width="17.93" height="19.2" fill="white" transform="translate(3 2.5)"/>
</clipPath>
</defs>
</svg>
