<svg width="20" height="20" viewBox="0 0 20 20" fill="none" xmlns="http://www.w3.org/2000/svg">
<g clip-path="url(#clip0_59_13)">
<path d="M1.66668 14.5833H3.75C4.67047 14.5833 5.41668 15.3295 5.41668 16.25V18.3333C5.41668 19.2538 4.67047 20 3.75 20H1.66668C0.746211 20 0 19.2538 0 18.3333V16.25C0 15.3295 0.746211 14.5833 1.66668 14.5833Z" fill="#99BDD5"/>
<path d="M16.2501 14.5833H18.3334C19.2539 14.5833 20.0001 15.3295 20.0001 16.25V18.3333C20.0001 19.2538 19.2539 20 18.3334 20H16.2501C15.3296 20 14.5834 19.2538 14.5834 18.3333V16.25C14.5834 15.3295 15.3296 14.5833 16.2501 14.5833Z" fill="#99BDD5"/>
<path d="M1.66668 7.29169H3.75C4.67047 7.29169 5.41668 8.0379 5.41668 8.95837V11.0417C5.41668 11.9622 4.67047 12.7084 3.75 12.7084H1.66668C0.746211 12.7083 0 11.9622 0 11.0417V8.95837C0 8.03786 0.746211 7.29169 1.66668 7.29169Z" fill="#99BDD5"/>
<path d="M16.2501 7.29169H18.3334C19.2538 7.29169 20.0001 8.0379 20.0001 8.95837V11.0417C20.0001 11.9622 19.2539 12.7084 18.3334 12.7084H16.2501C15.3296 12.7084 14.5834 11.9622 14.5834 11.0417V8.95837C14.5834 8.03786 15.3296 7.29169 16.2501 7.29169Z" fill="#99BDD5"/>
<path d="M1.66668 0H3.75C4.67047 0 5.41668 0.746211 5.41668 1.66668V3.75C5.41668 4.67047 4.67047 5.41668 3.75 5.41668H1.66668C0.746211 5.41668 0 4.67047 0 3.75V1.66668C0 0.746211 0.746211 0 1.66668 0Z" fill="#99BDD5"/>
<path d="M8.95831 14.5833H11.0416C11.9621 14.5833 12.7083 15.3295 12.7083 16.25V18.3333C12.7083 19.2538 11.9621 20 11.0416 20H8.95831C8.03784 20 7.29163 19.2538 7.29163 18.3333V16.25C7.29167 15.3295 8.03784 14.5833 8.95831 14.5833Z" fill="#99BDD5"/>
<path d="M8.95831 7.29169H11.0416C11.9621 7.29169 12.7083 8.0379 12.7083 8.95837V11.0417C12.7083 11.9622 11.9621 12.7084 11.0416 12.7084H8.95831C8.03784 12.7084 7.29163 11.9622 7.29163 11.0417V8.95837C7.29167 8.03786 8.03784 7.29169 8.95831 7.29169Z" fill="#99BDD5"/>
<path d="M8.95831 0H11.0416C11.9621 0 12.7083 0.746211 12.7083 1.66668V3.75C12.7083 4.67047 11.9621 5.41668 11.0416 5.41668H8.95831C8.03784 5.41668 7.29163 4.67047 7.29163 3.75V1.66668C7.29167 0.746211 8.03784 0 8.95831 0Z" fill="#99BDD5"/>
<path d="M16.2501 0H18.3334C19.2539 0 20.0001 0.746211 20.0001 1.66668V3.75C20.0001 4.67047 19.2539 5.41668 18.3334 5.41668H16.2501C15.3296 5.41668 14.5834 4.67047 14.5834 3.75V1.66668C14.5834 0.746211 15.3296 0 16.2501 0Z" fill="#99BDD5"/>
</g>
<defs>
<clipPath id="clip0_59_13">
<rect width="20" height="20" fill="white"/>
</clipPath>
</defs>
</svg>
