<?xml version="1.0" encoding="UTF-8"?>
<svg id="Layer_1" data-name="Layer 1" xmlns="http://www.w3.org/2000/svg" viewBox="0 0 414 200">
  <defs>
    <style>
      .cls-1 {
        fill: #f7b7d3;
      }

      .cls-2 {
        fill: #00bff3;
      }

      .cls-3 {
        fill: #eae6de;
      }

      .cls-4 {
        fill: #fff9b8;
      }

      .cls-5 {
        fill: #fff000;
      }

      .cls-6 {
        fill: #fbb040;
      }

      .cls-7 {
        fill: #fdfcfc;
      }

      .cls-8 {
        fill: #6c635b;
      }

      .cls-9 {
        fill: #9ed2f1;
      }

      .cls-10 {
        fill: #b4cfb8;
      }

      .cls-11 {
        fill: #bcad98;
      }

      .cls-12 {
        fill: #c3beb7;
      }

      .cls-13 {
        fill: #373230;
      }

      .cls-14 {
        fill: #48433e;
      }

      .cls-15 {
        fill: #787677;
      }
    </style>
  </defs>
  <path class="cls-14" d="M125.1,17.04c2.09-.3,1.8,1.36,2.17,2.3,5.75,14.59,11.41,29.22,18.74,43.26,2.39,4.57,5.73,8.58,8.57,12.88,1.27,1.92,6.97,1.16,8.66-1.08,2.37-3.13,4.77-6.13,8.81-7.8,5.16-2.14,11.73-2.53,14.81,3.46,1.19,2.32,3.3,.58,4.91,1.01,0,.32,0,.65,0,.97-3.79,1.09-7.89,1.1-11.71,2.52,.74,.86,1.52,.37,2.19,.47v1.06c-3.81-.37-6.08,1.24-7.34,4.4-.69,1.73-.8,2.55,1.82,2.34,6.48-.53,12.99-.81,19.48-1.19,.01,.35,.02,.69,.03,1.04-.99,.71-2.79-.13-3.32,1.22-.56,1.41,2.62,4.84,4.45,5,.06,.43,.11,.86,.17,1.29-4.71,3.46-7.29,8.39-8.92,13.27-4.41,13.2-6.2,26.87-5.9,40.66,.1,4.8,.66,9.7,3.09,14.19,.9,1.65,1.8,3.17,4.33,2.73,1.38-.24,1.2,.66,1.09,1.44,0,.35-.01,.7-.02,1.05-.9-.17-1.81-.33-2.71-.5-.93-.67-2.03-1.21-2.75-2.03-1.94-2.21-4.5-2.65-7.4-2.67-3.95-.02-7.67,.85-11.35,2-.71,.22-1.56,.57-2-.07-.61-.9,1.07-.69,1.09-1.39,6.01-1.26,6.04-1.33,2.06-5.71-.29-.32-.69-.59-.9-.95-.4-.69,.28-.83,.76-1.04,1.85,.96,3.27,2.31,4.33,4.56,1.9-3.87,4.45-6.53,8.07-8.26,1.15-.55,.69-1.45,.68-2.22-.25-14.46,1.59-28.67,6-42.59,.33-1.04,.33-1.87-.55-2.76-3.73-3.8-5.78-8.35-7.26-13.19-.26-.85,.14-2.4-1.35-2.43-1.77-.04-3.78-.5-5.22,1.06-3.97,4.29-8.75,6.88-15.23,5.81-1.16-.19-1.24,1.07-2.25,1.23-5.82,.93-11.53,.77-16.91-1.62-3.99-1.77-4.35-4.57-1.16-7.43,1.47-1.32,3.13-2.39,5.07-3.05,1.44-.49,2.09-.88,.97-2.4-4.54-6.16-7.86-12.92-11.63-19.47-6.89-11.96-10.98-24.84-15.77-37.51-.49-1.29-.58-2.29,1.52-1.67,.07,.58,.03,1.19,.23,1.72,4.39,11.69,8.23,23.55,14.43,34.63,4.05,7.25,7.57,14.74,12.58,21.53,1.02,1.39,1.94,1.95,3.59,1.16,1.03-.49,2.17-.4,3.26-.59,1.59-.28,2.39-.85,1.11-2.33-1.19-1.37-2.4-2.75-3.35-4.26-4.84-7.65-8.8-15.68-12.32-23.88-1.94-4.53-3.46-9.23-5.7-13.62-2.72-5.33-4.47-10.9-6.06-16.54Zm34.29,63.18c.45-.61,.97-1.19,1.34-1.84,.44-.78,.04-1.13-.86-.92-5.24,1.23-10.76,1.43-15.74,3.57-2.3,.74-4.31,1.95-6.02,3.49-2.2,1.99-1.97,3.39,.72,4.75,3.41,1.72,7.14,2.27,11.01,2.12,1.56-.06,3.7,.44,4.45-.74,.74-1.17-1.23-2.19-2-3.27-1.33-1.89-1.13-2.64,1.46-2.94,3.01-.35,4.56-1.95,5.65-4.22Zm19.44-13.49c-5.14,.26-8.69,2.11-11.56,5.24-2.63,2.87-4.51,6.15-6.61,9.32-1.3,1.97-2.61,3.93-5.33,4.49-1.52,.31-1.26,.99-.5,1.75,1.62,1.61,3.45,2.8,6.09,2.42,5.41-.77,9.7-3.05,11.63-7.84,2.1-5.19,4.99-9.41,11.68-10.22,1.21-.15,1.54-.59,.86-1.7-1.48-2.39-3.81-3.63-6.26-3.47Zm8.76,16.93c-2.2,.18-3.78,.39-5.36,.4-1.37,.01-1.93,.46-1.57,1.66,1.36,4.49,3.25,8.76,6.33,12.53,.56,.69,.98,.97,1.91,.08,1.32-1.26,1.63-3.04,2.87-4.21,2.63-2.48,2.46-4.67,.61-7.62-1.4-2.23-2.48-3.62-4.8-2.84Zm-4.41,73.78c-.59-2.66-1.16-4.93-1.59-7.23-.23-1.25-.7-1.33-1.82-.69-2.61,1.49-4.28,3.67-5.58,6.1-.6,1.13,.11,1.45,1.3,1.41,2.48-.09,4.97-.33,7.69,.41Z"/>
  <path class="cls-4" d="M347.78,47.25c1.03,3.28,.7,6.56,0,9.84-1.72,.3-3.44,.61-5.17,.89-14.72,2.38-29.46,4.69-44.16,7.18-5.74,.97-11.57,1.51-17.2,2.98-.96-.07-1.89,0-2.78,.34-.93-.1-1.76,.19-2.57,.52-.88-.18-1.7,0-2.51,.31-.25,.07-.5,.13-.74,.2-1.89,.26-3.81,.38-5.65,.8-2.33,.54-3.9,.05-4.67-2.09,0,0-.06-.08-.06-.08-.81-1.69-2.92-2.91-2.29-5.13,4.87-.8,9.85-1.12,14.59-2.5,.2-.03,.4-.05,.6-.08,2.65,.3,5.06-.92,7.66-1,1.23,0,2.57,.36,3.45-.82,1.53-.26,3.08-.13,4.65-.4,9.77-1.71,19.59-3.24,29.39-4.84,.46,.09,.9,.09,1.21-.31,2.93-.83,6.16-.32,8.98-1.65,1.03,.14,1.9-.36,2.85-.57,2.54-.04,5.08-.23,7.49-.98,1.01-.32,2.78,.5,2.93-1.35,.05-.19,.1-.38,.14-.57,1.26-.35,2.48-.87,3.86-.69Z"/>
  <path class="cls-14" d="M288.51,107.03c4.49,9.03,5.9,18.15,1.46,27.6-.61,1.3-.35,2.99-.23,4.49,.14,1.87-.03,3.67-.46,5.49-1.8,7.56-5.19,14.09-13.71,17.29-.85,.32-.97,.94-1.16,1.59-2.1,7.19-8.24,9.82-15.51,11.17-.01-.36-.02-.73-.04-1.09,2.83-1.04,5.73-1.91,8.35-3.36,3.13-1.72,4.98-4.16,5.8-7.68-3.92,1.06-7.4,1.64-10.93,1.81-1.97,.1-3.48,.68-4.94,1.88-4.55,3.76-9.92,5.03-16.01,4.07-2.05-.32-3.93-.96-5.82-1.66-1.63-.6-3.03,.18-3.58,1.21-.7,1.32,1.18,1.32,1.99,1.78,1.32,.75,2.73,1.35,4.11,2.01-.09,.37-.19,.74-.28,1.11-1.38-.03-2.49-.76-3.55-1.38-3.35-1.94-6.61-2.1-10.54-1.2-5.46,1.25-11.09,1.05-16.08-2.01,.64-.84,1.16-1.82,2.48-1.97-1.4,1.9,.78,2,1.67,2.27,6.34,1.96,12.74,1.12,18.33-1.58,5.09-2.45,9.39-6.24,14.05-9.41,1.37-.93,.9-1.62-.25-2.29-1.82-1.05-3.86-1.23-5.9-.95-6.17,.83-12.11,2.32-17.48,5.34-.84,.47-1.59,1.2-2.73,1.07-.21-.34-.43-.67-.64-1.01,3.46-1.72,6.86-3.54,10.74-4.86-1.62-1.57-3.5-1.81-5.45-1.87-3.34-.11-5.94,1.54-8.66,2.93,0-.46,0-.92,0-1.38,4.48-3.2,9.22-4.01,14.53-1.65,3.89,1.73,6.09,1.18,9.09-1.69,1.21-1.16,2.6-1.95,4.46-2.37,3.05-.69,5.97-.37,8.94,.09,3.72,.58,3.77,.6,4.7-2.77,1.04-3.76,2.75-7.29,6.25-9.54,2.99-1.92,3.25-4.07,2.59-6.96-1.03-4.49-1.35-9.01,1.54-13.18,.42,.11,.84,.21,1.26,.32-.27,.79-.54,1.58-.82,2.37-1.64,3.28-1.17,6.58-.32,10.1,2.23-1.3,3.18-3.22,4.44-4.92,1.35-.75,.71-1.77,.34-2.66-.61-1.47-1.5-2.86-1.79-4.44,.43-.02,.86-.05,1.29-.07,2.03,4.4,3.97,8.84,6.12,13.19,.65,1.32,.62,3.9,1.97,3.73,1.95-.24,2.61-2.58,3.32-4.31,.16-.39,.21-.81,.34-1.22,1.3-4.26-.33-8.27-1.25-12.35,.41-.02,.82-.03,1.23-.05,1.01,1.19,1.24,2.66,1.44,4.03,.72,4.86,1.48,10-2.63,13.87-2.82,2.65-1.86,5.34-2.26,8.65,4.66-2.63,7.14-6.24,9.67-9.75,2.46-3.41,2.54-7.45,2.62-11.29,.1-5.33-.89-10.61-3.13-15.61,.69,0,.96-.37,1-.93Zm-12.17,31.03c-.05-.27-.09-.53-.14-.8-.88-3.5-2.58-6.71-4.23-10.41-4.2,4.89-7.01,9.84-7.35,15.68-.28,4.85-.26,9.72-1.43,14.49-.29,1.2,.09,1.52,1.41,1.26,4.34-.84,7.64-2.84,9.6-6.55,1.08-2.06,1.88-4.16,2.1-6.44l.09-.12-.08-.13c.48-.53,.4-1.13,.27-1.73,.02-1.02,.04-2.03,.06-3.05,.2-.77,.22-1.52-.29-2.22Zm-17.43,6.82c-1.49,1.56-1.98,3.4-2.12,5.58,1.86-.64,3.48-1.19,5.1-1.75,.57-.2,.82-.59,.86-1.15,.16-2.53,.35-5.05,.55-7.94-2.02,.97-2.84,2.36-3.79,3.65-.85,.34-.74,.98-.6,1.62Zm-23.25,22.08c4.4,2.12,9.51,2.73,13.34,1.76,8.12-2.07,14.01-9.51,13.62-17.13-.08-1.53-.98-1.43-2.02-.98-2.34,1.01-4.8,1.86-6.84,3.34-5.91,4.3-11.47,8.99-18.09,13.01Zm25.26-4.09c19.18-.64,25.98-7.89,27.27-24.46-1.11,.55-1.91,1.28-2.62,2.15-1.34,1.62-2.73,3.36-4.71,4.24-2.48,1.1-3.28,2.88-4.05,5.02-1.9,5.35-5.68,9.03-12.12,9.8-2.31,.28-3.42,1.3-3.78,3.26Zm-22.25-8.68c1.77,.79,3.84,.25,5.17,1.39,2.4,2.05,4.15,1.07,5.92-.7,.66-.65,1.48-1.17,2.26-1.77-4.15-2.58-10.21-2.12-13.35,1.09Z"/>
  <path class="cls-6" d="M125.1,17.04c1.59,5.64,3.33,11.21,6.06,16.54,2.24,4.4,3.76,9.1,5.7,13.62,3.52,8.21,7.48,16.23,12.32,23.88,.95,1.51,2.16,2.89,3.35,4.26,1.28,1.48,.48,2.05-1.11,2.33-1.09,.19-2.23,.1-3.26,.59-1.65,.79-2.57,.22-3.59-1.16-5.02-6.8-8.53-14.28-12.58-21.53-6.2-11.09-10.04-22.95-14.43-34.63-.2-.54-.16-1.15-.23-1.72,2.37-1.38,5.03-1.88,7.77-2.18Z"/>
  <path class="cls-13" d="M213.57,156.11c0,.46,0,.92,0,1.38,0,0-.17,.1-.17,.1-.14,.02-.25,.09-.33,.19-.75,.49-1.56,.93-1.45,1.94-.17,.09-.25,.22-.25,.4,0,0-.06,.06-.06,.05-.75,.06-1.59-.24-2.19,.44-5.35-.14-10.58,.43-15.64,2.06l-.88-.78c.36-.9,3.96-.46,1.57-2.17-1.35-.96-1.3-1.65-1.62-2.83-1.86-6.79-.43-13.45,1.4-19.9,2.59-9.16,3.16-18.52,4.62-27.78,.67-4.22,0-8.57,1.56-12.7,.38,0,.76,0,1.13,0-.06,.68-.11,1.36-.17,2.05-.35,.79-1.12,1.52-.49,2.47-.17,2.96-.04,5.92,.23,8.88,.09,.24,.18,.49,.28,.73,.67,4.37,2.27,8.63,1.77,13.13-.38,.01-.75,.03-1.13,.04-.82-1.37,.26-3.14-1.26-4.7-1.06,3.48-2.07,6.68-3.02,9.9-2.09,7.06-3.76,14.19-4.07,21.52-.11,2.52,.08,5.06,1.31,7.39,.64,1.22,1.78,1.84,3.36,1.87,1.63,.04,1.95-1.03,2.39-2.05,1.25-2.92,1.89-5.96,2.14-9.06,.44-5.63-.11-11.23-.66-16.83,1.01-.82-.15-2.26,1.04-3.03,1.02,5.38,1.24,10.83,1.48,16.26,.1,2.35,.55,4.31,2.28,6.19,2.1,2.28,2.4,2.33,4.06-.37,1.9-3.09,2.31-6.54,3.17-9.88l.16-1.13c.08-5.22-.07-10.45,.42-15.66,.13-.15,.11-.28-.05-.4-.13-3.52-.25-7.05-.38-10.57l-.22-1.35c-.74-2.79-.86-5.7-1.97-8.41,0-.12-.04-.22-.12-.31-.9-3.38-1.8-6.77-2.71-10.15,.06-.76,.1-1.5-1.07-1.56-.13-.4-.25-.8-.38-1.2-.26-.75,.05-1.92-1.08-2.09-.95-.14-1.59,.79-2.2,1.38-1.71,1.65-1.92,3.91-2.74,5.92l-1.36,.02c.17-2.28,1.42-4.29,2.19-6.49-1.86-.4-3.36,.32-4.89,.83-.06-.43-.11-.86-.17-1.3,1.92-1.65,4.55-.8,6.75-1.57,2.14-.75,2.25-1.94,1.96-3.72-.3-1.87-1.45-2.04-3.07-1.86-.61-.07-1.23-.16-1.71,.32-.66,.09-1.33,.18-1.99,.27l-1.67,.33-1.42-1.01h0c.62-.36,1.29-.47,2-.45l.85-.03c1.11-.15,2.23-.31,3.34-.46h.25s.22-.1,.22-.1c2.11-.16,2.73-1.14,2.12-2.94-.26-.77-.27-1.61-.39-2.42-.04-1.06,.56-2.2-.52-3.11-.38-.04-.75-.08-1.13-.12,.02-.15,.02-.29,0-.44,.14-.51,1.27-.38,1.02-.96-.38-.85-1.07-.06-1.63-.03-.12-.02-.25-.02-.37-.01-3.39,.49-6.78,.98-10.17,1.47,0-.32,0-.65,0-.97,1.26-.59,2.64-.6,4-.74,.61,.26,1.16,.25,1.6-.29,.24-.04,.48-.08,.72-.12,.37-.06,.74-.12,1.12-.18l1.58-.11c.37,0,.72-.07,1.02-.37,.8-.4,2-.13,2.39-1.2,.07-.04,.2-.09,.2-.12-.02-.13-.09-.24-.14-.37,.03-1.38,.05-2.77,.86-4.02,.4-.01,.8-.02,1.2-.03-.78,3.5-1.1,7.03-.56,10.59l.21,.95,1.01,6.61,.04,.41c.55,1.38,1.04,2.78,.93,4.28,0,.33,.01,.65,.13,.9l2.65,6.99,.23,1.48c.61,1.14,.97,2.33,.98,3.6,.09,.17,.17,.34,.26,.51,.36,1.13,.97,2.24,1.03,3.38,.12,2.46,1.39,2.98,3.73,2.2,.2,.14,.56,.39,.27,.54-2.45,1.35-2.6,3.31-2.01,5.56,.17,.63,.02,1.33,.01,1.99-.77,.68-.63,1.19,.34,1.56,2.27-.17,3.5-1.88,5.22-2.87,.15,.4,.3,.8,.45,1.19-4.09,2.16-6.6,5.03-5.29,9.62,.15,.52-.39,1.3,.45,1.52,.72,.19,1.06-.5,1.5-.92,1.01-.96,1.34-2.51,3.07-2.82,.81,2.09-1.17,3.02-2.29,4.21-1.2,1.28-2.47,2.43-2.58,4.21-.54,.99-.27,2.03-.21,3.06-.15,3.86,.55,7.77-.82,11.55-.65,.76-.32,1.63-.36,2.46-.69,3.15-2.1,6.04-4.35,8.51-1.12,1.23-.95,2.21-.03,3.41,1.11-.6,2.19-1.2,3.28-1.79Zm-9.66-4.95c-.37,1.99-.56,3.47-.92,4.89-.27,1.07-1.85,2.46-.7,3.11,1.14,.65,3.04,.22,4.6,.23,.67,0,1.04-.35,.92-.97-.51-2.54-1.45-4.89-3.89-7.26Zm-4.02-38.11c-.71,1.88-1.38,3.79-1.06,6.17,1.87-2.06,1.55-4.09,1.06-6.17Z"/>
  <path class="cls-14" d="M75.93,170.59c-.54-.85,.13-1.33,.68-1.85,1.66,.14,3.04-.66,4.42-1.23,5.41-2.24,10.76-4.62,16.03-6.91-.29-1-.88-1.14-1.36-1.36-5.51-2.48-11.24-3.14-17.22-1.64-.96,.24-1.88,.78-2.94,.36,.77-2.19,1.3-2.18,4.02-2.28,2.83-.1,5.73-.11,8.5-1.11,6.45-2.33,12.67-2.25,18.45,1.74,2,1.38,8.38,.41,9.86-1.4,1.45-1.76,2.94-3.56,5.06-4.62,2.02-1,2.28-2.12,1.22-3.78-.22-.34-.26-.78-.38-1.17,1.28,.76,1.44,2.05,1.58,3.21,.08,.66-.32,1.29,.81,1.35-2.7,1.81-5.5,3.53-7.13,6.4,2.91,.34,5.64,.66,8.37,.98,.51,.3,1.4-.2,1.66,.63-.92,1.29-2.34,.34-3.49,.63-5.28-.72-10.55-.69-15.85-.03-7.6,.95-13.61,5.2-20.42,7.79-1.68,.64-.42,1.29,.32,1.7,3.24,1.82,6.82,2.6,10.6,2.69,6.21,.14,11.9-1.65,17.37-4.05,3.34-1.47,6.55-3.19,9.82-4.79,.6-.29,1.33-.53,1.68,.16,.31,.6-.45,.82-.9,1.05-2.72,1.42-5.45,2.82-8.46,4.37,3.68,2.58,7.68,3.19,11.94,3.11,.72-.01,2-.48,2.06,.53,.06,.99-1.25,.72-1.99,.75-4.46,.17-8.76-.29-12.41-2.9-1.82-1.3-3.53-.17-4.49,.7-1.21,1.09,.8,1.69,1.51,2.37,2.44,2.31,5.81,3.24,8.84,4.67-.08,.34-.16,.69-.25,1.03-2.73-.61-5.3,.31-7.92,.72-7.55,1.19-15.07,1.6-22.51-.61-1.56-.46-3.11-.07-4.65,.22-.08-.4-.15-.81-.23-1.21,.84-.91-.32-.94-.7-1.14-2.02-1.07-3.97-2.31-5.23-4.03-1.46-1.99-3.01-2.38-5.22-1.28-.31,.15-.71,.16-1.07,.23Zm42.75,5.76c-2.43-1.65-4.62-2.66-6.11-4.36-1.22-1.4-2.56-1.6-4.41-1.1-4.5,1.22-9.06,1.74-13.76,.78-3.04-.62-5.95-1.44-8.35-3.26-1.35-1.02-2.59-.54-3.51,.2-1.16,.93,.26,1.59,.82,2.16,2.45,2.48,5.43,4.19,8.94,5.33,8.5,2.76,17,2.06,26.37,.26Zm-13.73-18.83c-3.49-3.26-10.59-4.11-14.93-1.7,3.14,.7,5.99,1.65,8.46,3.32,.51,.34,1.05,.23,1.59,.05,1.61-.55,3.23-1.1,4.88-1.67Z"/>
  <path class="cls-14" d="M347.78,47.25c-1.38-.18-2.6,.34-3.86,.69-1.2-.29-2.41-.15-3.59,.04-3.92,.64-7.83,1.37-11.75,2-15.43,2.5-30.85,5.08-46.31,7.42-5.38,.81-10.61,2.43-16.11,2.62-.05-.31-.1-.62-.14-.93,1.17-.86,2.65-.65,3.98-.87,1.9-.32,2.1-1.12,1.11-2.42-1.23-1.62-2.86-2.73-4.88-3.55-7.63-3.09-17.5-.33-17.65,9.58-.11,7.36,2.48,13.58,8.02,18.89-.55,.17-1.1,.33-1.65,.5-1.54-1.57-3.22-3.07-4.14-5.02-.71-1.51-1.79-1.63-3.34-1.39-4.19,.67-8.41,1.26-12.61,1.88-.19-.33-.39-.66-.58-.99,4.17-1.15,8.51-1.49,12.75-2.29,.66-.13,2.04-.04,1.64-.79-1.21-2.3-1.52-4.84-2.7-7.11-.11-.21-1.03-.08-1.58-.1,0-.27,0-.54-.01-.81,.54-.21,1.56,.18,1.6-.58,.05-.94-.91-.54-1.46-.49-1.36,.14-2.72,.35-4.08,.53l-.55-.99c.45-.11,.89-.31,1.34-.32,3.39-.12,5.01-1.36,5.92-4.67,1.85-6.75,10.04-10,17.86-7.88,3.57,.97,6.41,2.65,8.04,5.71,.63,1.18,1.31,1.48,2.81,1.23,15.44-2.57,30.91-5.06,46.37-7.55,8.14-1.31,16.28-2.58,24.42-3.85,.8-.13,1.84-.49,2.28,.31,.38,.68-.63,.86-1.13,1.18Z"/>
  <path class="cls-13" d="M237.56,174.46c.09-.37,.19-.74,.28-1.11,.3,.09,.6,.18,.9,.27,.49,1,1.46,.71,2.33,.7,5.97,.19,11.91,.02,17.8-1.02,.01,.36,.02,.73,.04,1.09,0,0,0,0,0,0-.18,.05-.35,.09-.53,.14-.64,.49-1.4,.47-2.17,.39-.2,.03-.41,.05-.61,.08-2.86,.77-5.86,1.05-8.76,.75-5.11-.53-9.49,1.51-14.13,2.68-.61,.15-1.25,.22-1.87,.33-.88-.71-1.52-.21-2.14,.36-.4,.05-.81,.1-1.21,.15-.42-.47-.76-.34-1.06,.11-1.86,.27-3.72,.23-5.59,.05-.2,0-.41,0-.61,0-.37-.01-.73-.03-1.1-.04-.31-.47-.66-.57-1.07-.09-.38-.1-.75-.19-1.13-.29-.25-.55-.58-.78-1.1-.22-1.77,.36-3.15-.89-4.81-.98-.64,.02-1.3-.11-1.86,.29-.59,.1-1.19,.19-1.78,.29-.16-.04-.3,0-.43,.1-.62,.13-1.23,.27-1.85,.4-.59-.04-1.19-.09-1.64,.38l-.09,.11s-.14-.05-.14-.05c-.45,.09-.9,.18-1.35,.27-.41,.06-.82,.12-1.24,.18-.44-.46-.78-.31-1.07,.15-1.9,.57-3.87,.63-5.85,.58-.89-1.53,.63-1.16,1.31-1.25,4.19-.57,8.41-.99,12.82-2.36-2.17-1.67-4.5-2.76-6.02-4.66-.65-.6-1.21-.55-1.66,.2-8.26,3.46-16.23,3.62-23.55-1.9-1.42-1.07-2.54-.44-3.83-.18-.18,.04-.37,.08-.55,.12-1.02,.3-2.05,.59-3.07,.89-.61,.21-1.21,.42-1.82,.63-.24-.04-.48-.08-.72-.12-.8-.03-1.65-.28-2.29,.42-2.77,.81-5.6,1.04-8.48,.75-.55-.31-1.13-.23-1.72-.13-1.71,.19-3.24-.48-4.83-.84-.59-.13-1.4-.37-1-1.16,.31-.6,.93-.27,1.44-.12,2.92,.85,5.94,1.12,8.99,1.13,.21,.27,.39,.24,.56-.04,1.61-.21,3.21-.42,4.82-.63,.24-.03,.47-.07,.71-.1,.51-.14,1.03-.27,1.54-.41,.24-.06,.48-.11,.72-.17,3.29-.99,6.58-1.98,9.87-2.95,.44-.13,1.02-.57,1.35,.18-.9,1.47-.36,2.2,1.23,3.11,5.68,3.26,11.58,2.95,17.66,1.36,.23-.08,.45-.16,.68-.24,5.07-2.51,10.35-4.72,14.86-8.06,.59-.44,1.79-.71,1.5-1.56-.24-.69-1.34-.78-2.14-.97-.26-.06-.52-.14-.78-.21,0-.33-.01-.66-.02-1,0,0,.06-.06,.06-.05,.69,.01,1.39,.03,2.08,.04l.12,.07c.46,1.45,1.79,.74,2.77,.9,.2,.05,.39,.1,.59,.15,.21,.34,.43,.67,.64,1.01-2.01,1.95-4.33,3.54-6.83,4.94-.17,.12-.33,.23-.5,.35-.06,.16-.18,.25-.37,.26-1.32,.15-1.84,1.12-2.48,1.97-1.41-.13-2.85,.4-3.29,1.37-.56,1.23,1.13,1.7,2.02,2.35,.71,.51,1.54,.91,2.35,1.29,9.21,4.34,18.6,3.25,28.05,.79,.67-.17,1.23-.43,1.04-1.21Z"/>
  <path class="cls-13" d="M163.25,147.37c.62-7.19-.7-14.22-2.05-21.26-1.32-6.86-2.56-13.73-3.84-20.6-.19-1.02-.5-2.07,1.14-2.35,2.03-.35,1.42,1.13,1.58,1.95,1.85,9.67,3.71,19.33,5.45,29.02,.98,5.5,.97,11.04,.5,16.58-.44,1.48-.11,3.1-1,4.51-.02,.44-.04,.88-.05,1.32-.19,.26-.37,.52-.56,.78-.41,.74-.66,1.53-1.36,2.16-1.07,.97-2.34,1.14-3.6,.67-1.24-.46-2.72-.95-2.27-2.67,.62-.1,1.46-.48,1.84-.25,2.91,1.79,3.09-.6,3.48-1.97,.72-2.57,1.1-5.21,.74-7.89Z"/>
  <path class="cls-13" d="M124.66,149.9c-1.13-.06-.73-.7-.81-1.35-.14-1.16-.3-2.45-1.58-3.21-.34-.84-.67-1.68-1.01-2.52-.07-.15-.13-.3-.2-.46-1.57-3.3-3.23-6.56-4.66-9.9-.69-1.62-1.39-1.77-3.04-.98-3.37,1.62-3.74,1.36-3.73-2.01,0-3.02,0-6.04,.03-9.06,0-.63-.28-1.42,.63-1.77,.78-.3,1.4,.08,2.02,.5,3.16,2.2,6.33,4.39,9.52,6.56,1.32,.9,1.13,1.58-.29,2.17-.84,.34-1.68,.7-2.51,1.08-.75,.34-.97,.7-.56,1.57,2.66,5.6,5.2,11.24,7.78,16.87,.09,.76,.48,.92,1.17,.47,1.47,.01,2.95,.03,4.42,.04,.6,.5,2.4,.34,1.2,1.81-2.82-1.03-5.61-.6-8.38,.18Z"/>
  <path class="cls-13" d="M134.6,147.83c.4-7.61-1.49-15.03-2.34-22.54-.56-4.93-2.21-9.69-2.47-14.64-.04-.67-.1-1.34-.18-2.01-.18-1.37,.69-1.68,1.99-1.81,1.62-.17,1.31,.89,1.37,1.63,.95,10.63,3.01,21.15,4.26,31.75-.24,.4-.26,.77,.18,1.08,.06,1.01,.12,2.03,.18,3.04-.19,3.22-.38,6.44-.56,9.66-.07,1.59-.42,3.13-.98,4.64-1.62,4.32-4.47,4.99-8.24,1.91,.06-.35,.12-.7,.17-1.05,.19-.07,.38-.15,.57-.22,.2-.09,.4-.19,.6-.28,3.65,1.21,3.99,1.11,4.74-2.4,.61-2.88,.98-5.8,.72-8.76Z"/>
  <path class="cls-9" d="M169.18,171.62c1.02-.3,2.05-.59,3.07-.89,.18-.04,.37-.08,.55-.12,1.29-.26,2.41-.89,3.83,.18,7.32,5.53,15.3,5.36,23.55,1.9,.55-.07,1.1-.13,1.66-.2,1.52,1.9,3.85,2.99,6.02,4.66-4.41,1.38-8.63,1.79-12.82,2.36-.68,.09-2.2-.28-1.31,1.25,0,0,.02-.07,.02-.07-.31-.35-.62-.35-.92,0,0,0,.02,0,.02,0,1.01-.82,.32-1.02-.52-1.03-1.8-.03-3.61,.01-5.41,.02-5.5-.72-10.76-2.04-15.21-5.24-.35-.31-.69-.61-1.04-.92-.21-.83-1.91-.71-1.49-1.93Z"/>
  <path class="cls-13" d="M154,142.28c.28,.93,1.05,1.71,.98,2.74-1.58,3.52,2.02,1.84,3.72,2.84-2.25-.33-4.2,.91-5.67-.9-2.68-5.59-5.39-11.16-8-16.77-.72-1.56-1.47-1.69-3.08-.87-2.95,1.5-3.28,1.27-3.31-1.7-.02-3.02-.03-6.05,.03-9.07,.01-.67-.49-1.58,.61-1.99,.89-.34,1.34,.37,1.92,.73,3.28,2.04,6.16,4.57,9.67,6.34,1.15,.58,1.3,1.42-.13,2.01-.42,.17-.85,.32-1.29,.42-2.52,.58-2.74,1.7-1.7,3.81,1.55,3.17,3.97,5.97,4.84,9.42l.2,.45c.32,.68,.63,1.35,.95,2.03,.09,.17,.18,.35,.27,.52Z"/>
  <path class="cls-9" d="M75.54,157.96c1.06,.42,1.98-.12,2.94-.36,5.98-1.5,11.71-.84,17.22,1.64,.48,.21,1.07,.36,1.36,1.36-5.28,2.29-10.62,4.67-16.03,6.91-1.38,.57-2.76,1.38-4.42,1.23-1.39-2.85-2.1-5.84-.39-8.66,.8-1.32-2.46-.97-.68-2.12Z"/>
  <path class="cls-14" d="M281.26,68.14c5.63-1.47,11.46-2.01,17.2-2.98,14.7-2.49,29.44-4.79,44.16-7.18,1.73-.28,3.45-.59,5.17-.89,.51,.14,1.23,.15,1.18,.83-.06,.83-.93,.7-1.51,.79-5.49,.92-10.97,1.83-16.47,2.72-15.56,2.51-31.13,5.02-46.7,7.51-1,.16-2.03,.17-3.05,.25,0-.35,0-.71,.01-1.06Z"/>
  <path class="cls-14" d="M153.04,146.96c1.47,1.81,3.41,.57,5.67,.9-1.7-1-5.3,.68-3.72-2.84,1.39,2.8,4.6,1.61,6.84,2.56,.14,.51,.4,1.04-.21,1.46-2.15-.53-4.33-.87-6.58-.69-4.91,.39-8.97,1.99-10.99,6.4-.35,.78-1.1,2.11,.8,1.85,3.78-.52,7.54,.3,11.3-.12-.24,.33-.47,.65-.71,.98,0,.36-.01,.72-.02,1.07-.38,.04-.76,.08-1.14,.13-2.53-1.09-5.19-.68-7.83-.58-.47,.06-.93,.11-1.4,.17-2.07,.42-4.25,.24-6.28,1-1.17,.44-1.88,.08-1.19-1.2q3.42-1.38,1.66-4.44c-.44-.77-1.28-1.57,0-2.36,.87,1.07,1.73,2.13,2.96,3.64,1.92-4.69,5.79-7.04,10.85-7.95Z"/>
  <path class="cls-13" d="M281.26,68.14c0,.35,0,.71-.01,1.06-3.58,.13-4.14,2-3.72,4.8,.35,2.31,.22,4.68,.3,7.02,.08,.36,.27,.62,.72,.66,1.08,.5,1.9,1.24,2.52,2.17-.29,.29-.57,.57-.86,.86-.59-.55-1.18-1.1-1.77-1.64-.36-.46-.73-.43-1.12-.03-.28,2.57-.58,5.13-1.38,7.62-.31,.97-.58,1.94,.11,2.88-.25,.31-.5,.62-.76,.92-.68-1.25-3.18-1.62-2.16-3.68,2.01,.25,1.63-1.24,1.83-2.16,1.06-4.95,1.3-9.95,1.26-14.98,.4-.86-.01-1.66-.27-2.46-.75-1-1.87-.63-2.81-.5-1.83,.27-3.61,.89-5.45,1.05-2.73,.25-2.35,1.28-1.32,2.91,.58,.92,2.36,1.34,1.63,2.87-.51,.04-1.01,.08-1.52,.12-1.52-2.43-3.09-4.84-4.52-7.32-.36-.63-1.81-1.71,.37-2.09,.77,2.14,2.34,2.63,4.67,2.09,1.84-.42,3.77-.54,5.65-.8,.25-.07,.49-.13,.74-.2,.8-.31,1.63-.49,2.51-.31,.91,.03,1.92,.46,2.57-.52,.89-.34,1.83-.41,2.78-.34Z"/>
  <path class="cls-9" d="M75.93,170.59c.36-.07,.76-.08,1.07-.23,2.21-1.11,3.76-.72,5.22,1.28,1.26,1.72,3.22,2.96,5.23,4.03,.39,.2,1.55,.24,.7,1.14-2.39,.46-4.78,.91-7.16,1.37-1.69-.47-3.38,.02-5.07-.02-1.15-2.52-.31-5.04,0-7.57Z"/>
  <path class="cls-14" d="M206.3,63.54c-.4,.01-.8,.02-1.2,.03,1.21-5.52,8.57-9.24,15.48-7.83,5.06,1.03,9.01,4.49,9.49,8.31-.4-.42-.57-1.12-1.43-1-1.26,.02-1.32-1.08-1.79-1.7-2.19-2.93-5.09-4.36-9.09-4.37-5.47,0-8.87,2.62-11.46,6.56Z"/>
  <path class="cls-13" d="M123.47,177.37c.08-.34,.16-.69,.25-1.03,.91,.15,1.82,.29,2.72,.46,5.89,1.13,11.79,.92,17.7,.11,.56-.08,1.29-.12,1.43-.61,.21-.73-.95-.63-1.17-1.18l.73-.84,3.42,.97c.09,1.93,1.17,1.59,2.14,1.48,3.46,1.38,7.12,2.03,10.85,2.44-.44,1.18-1.78,.54-2.56,1.03-.63-.08-1.25-.16-1.88-.23-.62-.77-1.48-.69-2.36-.54h-.24s-.21-.09-.21-.09c-.27-.42-.68-.55-1.19-.43-.35-.1-.69-.2-1.04-.3-.2-.08-.4-.15-.6-.23,0,0-.01,0-.01,0-.4-.71-1.07-.58-1.74-.46-.18,.02-.34-.03-.48-.14-.69-.56-1.37-.67-2.03-.4l-3.9,1.05c-3.46,.2-6.96-.57-10.38,.41l-1.58-.06c-1.62-.59-3.32-.74-5.06-.65l-2.4-.72c-.12-.06-.27-.06-.44,0,0,0,.04-.03,.04-.03Z"/>
  <path class="cls-13" d="M288.51,107.03c-.04,.56-.31,.93-1,.93-1.87-2.1-2.05-.14-2.62,.89-.33-.23-.42-.52-.28-.88-.62-.14-.62-.53-.46-.96,2.53-6.39,1.81-12.59-1.27-18.66,.31-.3,.63-.61,.94-.91,.2,.03,.28,.14,.22,.32-.03,.43,.06,.81,.54,1.03,0,0,.01,.02,.01,.02-.02,.4,.06,.75,.47,.98,.73,.97,.96,2.09,1.16,3.22,.06,.23,.11,.45,.17,.68,.87,.62,.41,1.46,.43,2.22,.19,.65,.38,1.31,.57,1.96,0,1.2,0,2.4-.01,3.6,.02,.17,.04,.35,.05,.52-.74,.88-.47,1.93-.57,2.92,.2,.18,.4,.35,.61,.53,.86,.27,.73,1.05,1.03,1.61Z"/>
  <path class="cls-5" d="M164.41,157.33c.19-.26,.37-.52,.56-.78,.43-.06,.95-.02,.97-.59,.01-.53-.5-.59-.91-.72,.89-1.4,.55-3.03,1-4.51,.71-.05,1.63-.85,1.99,.43-.49,.22-1.17,.36-.77,1.04,.21,.36,.61,.62,.9,.95,3.97,4.38,3.95,4.45-2.06,5.71,.08-1.07-.46-1.6-1.66-1.52Z"/>
  <path class="cls-14" d="M171.71,174.46c4.46,3.2,9.71,4.52,15.21,5.24-.06,.34-.13,.68-.19,1.02-3.03,.26-5.81-.66-8.63-1.42-1.04-.28-2.03-.88-3.2-.47-.55-.27-1.43,.06-1.67-.75,.42-1.79-1.99-1.62-2.4-2.83,.29-.26,.59-.52,.88-.78Z"/>
  <path class="cls-8" d="M173.23,178.08c.25,.81,1.13,.48,1.67,.75-5.11,2.11-10.44,2.5-15.93,1.69,.78-.49,2.12,.14,2.56-1.03,3.91-.37,7.86-.5,11.7-1.41Z"/>
  <path class="cls-13" d="M228.64,62.93c.86-.12,1.03,.58,1.43,1,0,0,.16-.03,.16-.03,0,0,.1,.12,.1,.12l.85,.45,.15,.02,1.18-.21c.5-.34,1.06-.47,1.68-.39l3.04-.49h.46c.65,.1,1.24-.09,1.55-1.35l.13-.02c.36,.64,.71,1.29,1.07,1.93-5.06,.85-10.06,2.01-15.26,2.14l-.08-.11c.83-1.2,4.37-1.02,3.55-3.06Z"/>
  <path class="cls-8" d="M75.93,178.16c1.69,.03,3.38-.45,5.07,.02,.97,1.1,2.37,.12,3.47,.58-.08,.12-.15,.24-.2,.37-2.19,.18-4.38,.39-6.57,.54-1.15,.08-2.41,.15-1.77-1.52Z"/>
  <path class="cls-8" d="M133.04,179.12c3-.82,6.06-.33,9.09-.34-3,.72-6.04,.66-9.09,.34Z"/>
  <path class="cls-13" d="M84.47,178.76c-1.1-.46-2.5,.51-3.47-.58,2.39-.46,4.78-.91,7.16-1.37,.08,.4,.15,.81,.23,1.21-1.17,.29-2.34,.59-3.5,.88-.13-.08-.27-.13-.42-.14Z"/>
  <path class="cls-13" d="M281.06,83.85s-.02-.02-.02-.02c.12,.14,.23,.27,.35,.41,1.12,.87,1.87,1.98,2.44,3.2-.31,.3-.63,.61-.94,.91-.9-1.21-1.79-2.43-2.69-3.64,.29-.29,.57-.57,.86-.86Z"/>
  <path class="cls-13" d="M186.73,180.72c.06-.34,.12-.68,.19-1.02,1.8-.01,3.61-.05,5.41-.03,.84,.01,1.52,.21,.52,1.03-2.04,.43-4.08,.34-6.12,.01Z"/>
  <path class="cls-8" d="M126.55,178.43c1.64-.06,3.25,.1,4.79,.66-1.67,.21-3.27,.05-4.79-.66Z"/>
  <path class="cls-8" d="M146.45,178.16c.91-.75,1.83-.84,2.78-.07-.93,.02-1.86,.04-2.78,.07Z"/>
  <path class="cls-14" d="M228.72,179.38c.62-.57,1.26-1.07,2.14-.36-.71,.12-1.43,.24-2.14,.36Z"/>
  <path class="cls-8" d="M154.73,179.75c.88-.15,1.74-.23,2.36,.54-.89,.18-1.65-.11-2.36-.54Z"/>
  <path class="cls-14" d="M287.41,97.86c-.19-.65-.38-1.31-.57-1.96,.36,.61,1.28,1.1,.57,1.96Z"/>
  <path class="cls-14" d="M286.41,93.68c-.06-.23-.11-.45-.17-.68,.31,.17,.77,.32,.17,.68Z"/>
  <path class="cls-14" d="M199.58,180.19c.29-.46,.63-.61,1.07-.15-.32,.3-.68,.32-1.07,.15Z"/>
  <path class="cls-14" d="M215.85,179.05c.52-.56,.85-.34,1.1,.22-.37-.07-.74-.14-1.1-.22Z"/>
  <path class="cls-12" d="M127.42,147.86c-.69,.45-1.08,.29-1.17-.47,.48-.03,.89,.1,1.17,.47Z"/>
  <path class="cls-14" d="M218.08,179.56c.41-.48,.76-.38,1.07,.09-.38,.18-.74,.18-1.07-.09Z"/>
  <path class="cls-14" d="M197.37,70.04c-.44,.54-.99,.55-1.6,.29,.47-.4,1.02-.39,1.6-.29Z"/>
  <path class="cls-14" d="M209.17,178.37c.57-.39,1.23-.27,1.86-.29-.62,.1-1.24,.19-1.86,.29Z"/>
  <path class="cls-14" d="M226.45,179.64c.3-.46,.64-.58,1.06-.11-.32,.31-.68,.29-1.06,.11Z"/>
  <path class="cls-11" d="M137.42,141.29c-.45-.31-.42-.68-.18-1.08,.68,.28,.88,.62,.18,1.08Z"/>
  <path class="cls-14" d="M203.48,179.54c.45-.47,1.04-.43,1.64-.38-.55,.13-1.09,.26-1.64,.38Z"/>
  <path class="cls-14" d="M201.8,69.27c-.46,.45-1.05,.38-1.63,.33,.49-.32,1.03-.44,1.63-.33Z"/>
  <path class="cls-14" d="M201.89,179.86c.45-.09,.9-.18,1.35-.27-.4,.31-.85,.42-1.35,.27Z"/>
  <path class="cls-8" d="M149.7,178.24c.67-.12,1.34-.25,1.74,.46-.61-.06-1.26,.03-1.74-.46Z"/>
  <path class="cls-14" d="M278.54,81.68c-.44-.04-.64-.3-.72-.66,.39,.09,.67,.28,.72,.66Z"/>
  <path class="cls-14" d="M285.08,89.79c-.41-.23-.5-.58-.47-.98,.42,.22,.57,.55,.47,.98Z"/>
  <path class="cls-14" d="M284.59,88.79c-.48-.21-.57-.59-.54-1.03,.18,.34,.36,.68,.54,1.03Z"/>
  <path class="cls-8" d="M153.08,179.23c.51-.12,.91,0,1.19,.43-.5,.1-.89-.06-1.19-.43Z"/>
  <path class="cls-14" d="M238.71,63.25c-.33,.32-.74,.33-1.17,.24,.33-.3,.73-.36,1.17-.24Z"/>
  <path class="cls-14" d="M281.39,84.24c-.12-.14-.23-.27-.35-.41,.12,.14,.23,.27,.35,.41Z"/>
  <path class="cls-14" d="M220.25,179.42c.2,0,.41,0,.61,0-.2,0-.41,0-.61,0Z"/>
  <path class="cls-14" d="M287.48,105.42c-.2-.18-.4-.35-.61-.53,.2,.18,.4,.35,.61,.53Z"/>
  <path class="cls-14" d="M152.79,139.74l-.2-.45,.2,.45Z"/>
  <path class="cls-14" d="M154,142.28c-.09-.17-.18-.35-.27-.52,.09,.17,.18,.35,.27,.52Z"/>
  <path class="cls-14" d="M199.01,69.78c-.31,.05-.61,.1-.92,.15,.31-.05,.61-.1,.92-.15Z"/>
  <path class="cls-14" d="M121.07,142.36c.07,.15,.13,.3,.2,.46-.07-.15-.13-.3-.2-.46Z"/>
  <path class="cls-14" d="M204.24,67.59c.05,.12,.12,.24,.14,.37,0,.03-.13,.08-.2,.12,.02-.16,.04-.32,.06-.49Z"/>
  <path class="cls-14" d="M232.51,64.4c-.19,.03-.39,.07-.58,.1,.19-.03,.39-.07,.58-.1Z"/>
  <path class="cls-14" d="M231.03,64.5c-.23-.12-.47-.25-.7-.37,.23,.12,.47,.25,.7,.37Z"/>
  <path class="cls-14" d="M234.74,63.92c-.18,.03-.36,.06-.55,.09,.18-.03,.36-.06,.55-.09Z"/>
  <path class="cls-14" d="M258.39,174.79c.18-.05,.35-.09,.53-.14-.18,.05-.35,.09-.53,.14Z"/>
  <path class="cls-14" d="M255.61,175.27c.2-.03,.41-.05,.61-.08-.2,.03-.41,.05-.61,.08Z"/>
  <path class="cls-8" d="M123.43,177.73c.3-.1,.52-.05,.66,.23-.32,.17-.51,.03-.66-.23Z"/>
  <path class="cls-3" d="M84.47,178.76c.16,.01,.3,.06,.42,.14-.21,.08-.41,.16-.62,.23,.05-.13,.12-.26,.2-.37Z"/>
  <path class="cls-8" d="M151.45,178.7c.2,.08,.4,.15,.6,.23-.32,.17-.48,.03-.6-.23Z"/>
  <path class="cls-14" d="M206.97,178.76c.12-.1,.26-.14,.43-.1l-.18,.17-.24-.07Z"/>
  <path class="cls-14" d="M192.83,180.7c.31-.35,.62-.35,.92,0-.31,.27-.62,.37-.92,0Z"/>
  <path class="cls-14" d="M287.45,101.98c-.02-.17-.04-.35-.05-.52,.07,.12,.15,.24,.19,.36,.01,.04-.09,.11-.14,.16Z"/>
  <path class="cls-9" d="M137.03,153.99c1.06,1.26,.35,2.72,.54,4.07-.69,1.28,.02,1.64,1.19,1.2,2.03-.77,4.21-.58,6.28-1,.51,.21,.98,.23,1.4-.17,2.64-.1,5.3-.51,7.83,.58,.44,.4,.83,.41,1.14-.13,0-.36,.01-.72,.02-1.07,.58,0,1.17,0,1.75,.01-.44,1.71,1.04,2.21,2.27,2.67,1.26,.47,2.52,.31,3.6-.67,.69-.63,.95-1.41,1.36-2.16,1.21-.07,1.74,.45,1.66,1.52-.02,.71-1.7,.49-1.09,1.39,.44,.64,1.29,.29,2,.07,3.68-1.14,7.4-2.02,11.35-2,2.9,.02,5.47,.46,7.4,2.67,.72,.82,1.82,1.36,2.75,2.03-.34,1.19-2.08,.64-2.55,1.67-.54-.2-.92,.05-1.28,.36-1.48,.93-3.93,.4-4.63,2.5,0,0-.03,.01-.03,.01-.22-.64-.7-.52-1.2-.34-.43,.15-.73,.37-.47,.84h-.01c-.33-.74-.9-.3-1.35-.17-3.3,.97-6.58,1.96-9.87,2.95-.24,.06-.48,.11-.72,.17-.51,.14-1.03,.27-1.54,.41-.24,.03-.47,.07-.71,.1-1.61,.21-3.21,.42-4.82,.63-.19,.01-.37,.02-.56,.04-3.05,0-6.07-.28-8.99-1.13-.51-.15-1.14-.49-1.44,.12-.4,.79,.41,1.02,1,1.16,1.59,.36,3.12,1.03,4.83,.84,.55,.25,1.12,.35,1.72,.13,2.89,.29,5.71,.06,8.48-.75,.76-.14,1.53-.28,2.29-.42,.24,.04,.48,.08,.72,.12,.29,.7,.75,1.26,1.52,1.58,.16,1.02,1.25,.99,1.94,1.41,.42,1.21,2.83,1.04,2.4,2.83-3.83,.91-7.78,1.04-11.7,1.41-3.73-.41-7.39-1.06-10.85-2.44-.67-.24-1.35-.47-2.02-.71-1.18-.58-2.36-1.16-3.54-1.74-.36-.26-.72-.52-1.08-.79-.63-.43-1.26-.85-1.89-1.28-.25-.35-.45-.8-1.04-.37-.5,1.1-.41,1.2,2.17,2.52,.37,.25,.73,.5,1.1,.76,.22,.55,1.38,.45,1.17,1.18-.14,.49-.87,.53-1.43,.61-5.9,.82-11.8,1.02-17.7-.11-.9-.17-1.81-.31-2.72-.46-3.03-1.44-6.4-2.37-8.84-4.67-.71-.68-2.72-1.27-1.51-2.37,.96-.87,2.66-2.01,4.49-.7,3.65,2.61,7.95,3.07,12.41,2.9,.75-.03,2.05,.24,1.99-.75-.06-1-1.34-.54-2.06-.53-4.26,.08-8.27-.52-11.94-3.11,3.01-1.55,5.75-2.95,8.46-4.37,.45-.23,1.21-.45,.9-1.05-.36-.69-1.09-.45-1.68-.16-3.27,1.6-6.47,3.33-9.82,4.79-5.47,2.4-11.16,4.19-17.37,4.05-3.78-.09-7.36-.87-10.6-2.69-.74-.42-2.01-1.06-.32-1.7,6.81-2.59,12.82-6.84,20.42-7.79,5.3-.66,10.57-.68,15.85,.03,1.23,.69,3.33,.04,3.72,1.99,3.77,3.08,6.63,2.4,8.24-1.91,.57-1.51,.91-3.05,.98-4.64Zm3.27,17.1c-.03-.34-.06-.68-.09-1.02,2.2-.79,4.33-1.23,6.12,.76,.29,.32,.81,.45,1.19,.07,.58-.57-.03-.86-.42-1.17-.64-.51-1.78-.87-.63-1.86,.35-.11,.71-.21,1.06-.32,1.14-.42,2.28-.83,3.42-1.25,.21-.08,.42-.17,.63-.25,.72-.31,1.45-.63,2.17-.94,.59-.03,1.11-.22,1.51-.62,1.14-.54,3.53-1.02,3.02-1.8-.93-1.41-2.35,.44-3.63,.69-.41,.08-.76,.43-1.14,.66-1.26,.44-2.51,.88-3.77,1.32-.15,.06-.3,.12-.45,.19-3.77,1.3-7.55,2.6-11.32,3.9-.17,.04-.33,.09-.5,.13-1.61,.3-3.34,.33-4.71,1.49,.8,.7,1.46,.51,2.13,.17,.37,.25,.66,.11,.93-.14,.58-.11,1.15-.22,1.73-.33l.23,.11s.26,0,.26,0c.35,.25,.7,.5,1.05,.75,.52,.47,.91,1.5,1.84,.71,.67-.56-.05-.96-.63-1.23h0Zm18.91-9.18c-.23,.22-.4,.38-.56,.53,.19,.12,.39,.34,.56,.32,.22-.02,.41-.25,.61-.38-.18-.14-.36-.28-.61-.47Z"/>
  <path class="cls-6" d="M200.12,96.86c-1.57,4.12-.9,8.47-1.56,12.7-1.47,9.27-2.03,18.63-4.62,27.78-1.83,6.45-3.26,13.11-1.4,19.9,.32,1.17,.27,1.86,1.62,2.83,2.39,1.71-1.21,1.27-1.57,2.17-.46,.07-.91,.15-1.37,.22,.11-.77,.29-1.67-1.09-1.44-2.53,.44-3.44-1.08-4.33-2.73-2.43-4.48-2.99-9.39-3.09-14.19-.29-13.79,1.49-27.46,5.9-40.66,1.63-4.87,4.21-9.8,8.92-13.27,1.53-.51,3.03-1.23,4.89-.83-.77,2.2-2.02,4.21-2.19,6.49-.04,.34-.08,.68-.12,1.02Z"/>
  <path class="cls-6" d="M178.83,66.72c2.45-.16,4.78,1.09,6.26,3.47,.69,1.11,.36,1.55-.86,1.7-6.69,.81-9.58,5.02-11.68,10.22-1.93,4.79-6.22,7.06-11.63,7.84-2.63,.38-4.46-.8-6.09-2.42-.77-.76-1.02-1.44,.5-1.75,2.73-.56,4.03-2.53,5.33-4.49,2.09-3.17,3.97-6.45,6.61-9.32,2.87-3.13,6.42-4.97,11.56-5.24Z"/>
  <path class="cls-4" d="M202.38,80.7c-1.05,.14-2.1,.29-3.15,.43-.28-.17-.54-.18-.77,.07-.8-.05-1.56,.04-2.25,.43-6.5,.38-13,.66-19.48,1.19-2.62,.22-2.51-.6-1.82-2.34,1.26-3.16,3.53-4.77,7.33-4.4,2.63-1.12,5.51-1.12,8.29-1.53,.47,.12,.91,.08,1.29-.24,2.54-.43,5.09-.86,7.63-1.29,.85,.05,1.75,.32,2.39-.47,.28-.07,.55-.15,.83-.22,.47,.09,.94,.19,1.41,.28,.17,.88,.34,1.75,.51,2.63,.12,.81,.13,1.65,.39,2.42,.61,1.8-.01,2.78-2.12,2.94-.16,.03-.31,.07-.47,.1Z"/>
  <path class="cls-6" d="M187.59,83.66c2.32-.77,3.4,.61,4.8,2.84,1.86,2.95,2.02,5.15-.61,7.62-1.24,1.17-1.55,2.95-2.87,4.21-.93,.89-1.35,.61-1.91-.08-3.08-3.77-4.98-8.05-6.33-12.53-.36-1.2,.2-1.65,1.57-1.66,1.58-.01,3.15-.22,5.36-.4Z"/>
  <path class="cls-4" d="M159.39,80.22c-1.09,2.27-2.64,3.87-5.65,4.22-2.59,.3-2.78,1.05-1.46,2.94,.77,1.09,2.74,2.11,2,3.27-.75,1.18-2.89,.68-4.45,.74-3.87,.15-7.6-.4-11.01-2.12-2.69-1.36-2.92-2.76-.72-4.75,1.71-1.54,3.71-2.75,6.02-3.49,.18,.34,.35,.68,.53,1.02-1.61,.57-2.69,1.72-3.74,2.87-.68,.75-1.05,1.69-.07,2.48,1.84,1.48,4.04,1.71,6.79,1.76-1.35-1.59-2.96-1.17-4.16-1.7-.64-.28-1.55-.41-1.71-1.15-.19-.88,.62-1.32,1.3-1.76,3.61-2.32,7.95-2.89,12.04-4.04,.29-.05,.58-.11,.86-.16v-.13c.92-.18,1.84-.36,2.77-.53,.22,.18,.43,.36,.65,.54Z"/>
  <path class="cls-5" d="M183.18,157.43c-2.72-.74-5.21-.5-7.69-.41-1.19,.04-1.91-.28-1.3-1.41,1.3-2.43,2.98-4.6,5.58-6.1,1.12-.64,1.59-.56,1.82,.69,.43,2.3,1,4.57,1.59,7.23Z"/>
  <path class="cls-4" d="M191.8,74.31c-.37,.32-.81,.36-1.29,.24-2.86-1.33-5.57-.4-8.28,.47-.67-.1-1.45,.39-2.19-.47,3.82-1.42,7.92-1.43,11.71-2.52,3.39-.49,6.78-.98,10.17-1.47,.07,.13,.14,.26,.21,.39,.05-.12,.11-.25,.16-.37,.56-.02,1.25-.81,1.63,.03,.25,.57-.87,.45-1.02,.96-.64,.07-1.68-.21-1.09,.98-.65,.79-1.55,.52-2.39,.47-2.79-1.51-5.36,0-7.97,.55-.38,.08,.09,.53,.34,.74Z"/>
  <path class="cls-4" d="M144.66,82.05c-.18-.34-.35-.68-.53-1.02,4.98-2.14,10.5-2.34,15.74-3.57,.9-.21,1.3,.14,.86,.92-.36,.65-.89,1.23-1.34,1.84-.22-.18-.43-.36-.65-.54-1.04-2.11-2.34-.59-3.55-.21-3.65,.4-7.07,1.57-10.53,2.59Z"/>
  <path class="cls-13" d="M185.93,164.69c.47-1.03,2.21-.48,2.55-1.67,.9,.17,1.81,.33,2.71,.5,.1,.11,.21,.21,.31,.32-3.29,1.26-6.56,2.53-9.87,3.74-.45,.17-1.1,.85-1.61-.03,.7-2.11,3.15-1.57,4.63-2.5,.43-.12,.85-.24,1.28-.36Z"/>
  <path class="cls-8" d="M182.23,75.03c2.71-.88,5.41-1.8,8.28-.47-2.79,.41-5.67,.41-8.29,1.53,0-.35,0-.7,.01-1.06Z"/>
  <path class="cls-13" d="M191.21,162.46c.46-.07,.91-.15,1.37-.22,.29,.26,.58,.52,.88,.78-.65,.27-1.31,.55-1.96,.82-.1-.11-.21-.21-.31-.32,0-.35,.01-.7,.02-1.05Z"/>
  <path class="cls-6" d="M262.33,68.22c-2.17,.38-.73,1.46-.37,2.09,1.43,2.47,3,4.88,4.52,7.32,.14,.74,.4,1.4,1.33,1.59,.36,1.2,.92,2.38,1.02,3.59,.13,1.56,.9,3.35-1.04,4.56-.47-.21-.94-.42-1.4-.62l.07,.04c-1.89-.67-2.91-2.89-5.41-2.48l-.07,.14c.87-.44,.24-.82-.13-1.06-1.18-.77-2.4-1.47-3.61-2.19-.2-.15-.41-.29-.61-.44l-.04-.03c-5.54-5.3-8.14-11.53-8.02-18.89,.15-9.91,10.02-12.67,17.65-9.58,2.02,.82,3.65,1.93,4.88,3.55,.99,1.3,.79,2.1-1.11,2.42-1.33,.22-2.81,0-3.98,.87-1.47,0-2.95-.09-4.42,0-2.61,.17-4.1,1.55-3.84,3.67,.26,2.12,1.66,3.83,2.93,5.55,.45,.61,1.12,.42,1.58-.16l.06,.08Z"/>
  <path class="cls-4" d="M266.16,60.02c5.5-.2,10.72-1.81,16.11-2.62,15.46-2.34,30.88-4.92,46.31-7.42,3.92-.64,7.83-1.36,11.75-2,1.18-.19,2.39-.34,3.59-.04-.05,.19-.1,.38-.14,.57-3.23,.49-6.46,.99-9.69,1.48-.56,.08-.75,.4-.74,.86-.94,.21-1.82,.71-2.85,.57-2.38-.54-4.72-.05-7.05,.28-.87,.12-1.96,.15-1.93,1.37-.31,.4-.74,.4-1.21,.31-.94-.48-1.82-.85-3.04-.64-6.26,1.11-12.52,2.2-18.81,3.1-3.5,.5-6.8,1.9-10.44,1.71-.74-.04-1.81-.14-1.74,1.07-.89,1.18-2.22,.82-3.45,.82-2.79-1-6.15-.56-7.66,1-.2,.03-.4,.05-.6,.08-1.41,.14-2.68-.49-4.25-.14-3.55,.79-7.23,1.11-10.86,1.62,.43-1.37,1.74-1.31,2.91-1.4,1.28-.1,2.61,.12,3.78-.56Z"/>
  <path class="cls-8" d="M286.29,58.61c-.07-1.21,1-1.11,1.74-1.07,3.64,.19,6.95-1.21,10.44-1.71,6.29-.9,12.56-1.99,18.81-3.1,1.22-.22,2.1,.16,3.04,.64-9.8,1.59-19.61,3.13-29.39,4.84-1.57,.27-3.11,.14-4.65,.4Z"/>
  <path class="cls-13" d="M266.16,60.02c-1.17,.68-2.5,.46-3.78,.56-1.17,.09-2.48,.03-2.91,1.4,.17,.34,.35,.69,.52,1.03-.63,2.22,1.48,3.43,2.29,5.13-.46,.58-1.13,.77-1.58,.16-1.27-1.72-2.67-3.43-2.93-5.55-.26-2.12,1.22-3.5,3.84-3.67,1.47-.09,2.95,0,4.42,0,.05,.31,.09,.62,.14,.93Z"/>
  <path class="cls-8" d="M259.99,63.01c-.17-.34-.35-.69-.52-1.03,3.63-.51,7.31-.83,10.86-1.62,1.57-.35,2.84,.28,4.25,.14-4.75,1.38-9.72,1.7-14.59,2.5Z"/>
  <path class="cls-8" d="M333.36,50.85c-.01-.47,.17-.78,.74-.86,3.23-.49,6.46-.98,9.69-1.48-.16,1.86-1.92,1.04-2.93,1.35-2.41,.75-4.95,.94-7.49,.98Z"/>
  <path class="cls-8" d="M321.53,53.06c-.03-1.22,1.06-1.25,1.93-1.37,2.34-.32,4.67-.81,7.05-.28-2.82,1.33-6.05,.82-8.98,1.65Z"/>
  <path class="cls-8" d="M275.18,60.42c1.51-1.56,4.87-2,7.66-1-2.59,.07-5.01,1.29-7.66,1Z"/>
  <path class="cls-14" d="M278.48,68.48c-.66,.98-1.66,.55-2.57,.52,.82-.34,1.65-.62,2.57-.52Z"/>
  <path class="cls-14" d="M273.4,69.31c-.25,.07-.49,.13-.74,.2,.25-.07,.49-.13,.74-.2Z"/>
  <path class="cls-1" d="M209.88,168.18c.19-.01,.31-.1,.36-.26,.16-.12,.33-.23,.5-.35,2.5-1.4,4.82-2.99,6.83-4.94,1.14,.13,1.89-.6,2.73-1.07,5.37-3.02,11.31-4.51,17.48-5.34,2.04-.27,4.08-.1,5.9,.95,1.15,.67,1.62,1.36,.25,2.29-4.67,3.17-8.96,6.96-14.05,9.41-5.59,2.7-11.99,3.54-18.33,1.58-.88-.27-3.07-.37-1.67-2.27Z"/>
  <path class="cls-2" d="M276.3,145.31c-.22,2.28-1.02,4.38-2.1,6.44-1.95,3.71-5.25,5.71-9.6,6.55-1.32,.25-1.7-.06-1.41-1.26,1.17-4.77,1.15-9.64,1.43-14.49,.34-5.84,3.16-10.79,7.35-15.68,1.65,3.7,3.35,6.91,4.23,10.41-.81,2.69-.95,5.37,.09,8.05Z"/>
  <path class="cls-2" d="M280.57,118.12c.92,4.07,2.55,8.09,1.25,12.35-.12,.4-.18,.83-.34,1.22-.71,1.74-1.37,4.08-3.32,4.31-1.35,.16-1.32-2.42-1.97-3.73-2.15-4.35-4.1-8.78-6.12-13.19-.31-1.03-.62-2.06-.92-3.09,.02-.07,.08-.14,.06-.19-.05-.12-.13-.24-.2-.36-.09-.31-.18-.63-.27-.94-.11-.34-.21-.68-.32-1.03-.02-.49-.04-.98-.06-1.47-.03-1.68-.05-3.36-.08-5.03,.04-1.01,.07-2.03,.11-3.04,2.21,0,2.63,2.36,4.51,2.78l.2,.03s.01,.18,.01,.18c.3,.35,.6,.7,.89,1.04,.37,.66,.89,1.18,1.64,1.5,1.4,.97,1.51,2.94,3.4,3.53l.03-.08c-1.45,1.02,.19,1.79,.28,2.68v.23s.21,.11,.21,.11c.33,.73,.66,1.46,.99,2.19Z"/>
  <path class="cls-2" d="M235.66,166.96c6.63-4.02,12.19-8.71,18.09-13.01,2.04-1.48,4.5-2.33,6.84-3.34,1.04-.45,1.94-.55,2.02,.98,.39,7.61-5.49,15.06-13.62,17.13-3.82,.97-8.94,.37-13.34-1.76Z"/>
  <path class="cls-2" d="M284.89,108.85c.57-1.03,.75-2.98,2.62-.89,2.24,5.01,3.23,10.28,3.13,15.61-.08,3.84-.16,7.87-2.62,11.29-2.53,3.52-5.01,7.12-9.67,9.75,.41-3.31-.56-6,2.26-8.65,4.11-3.86,3.35-9.01,2.63-13.87-.2-1.38-.43-2.84-1.44-4.03-.17-1.21,.07-2.36,.62-3.46,.59-.97,1.12-1.95,1.12-3.09,.21-.37,.68-.76-.1-1.05,0,0,0,0,0,0,1.39,.2,.88-1.09,1.47-1.52l-.02-.1Z"/>
  <path class="cls-2" d="M238.75,173.89c-.3-.09-.6-.18-.9-.27-1.37-.66-2.79-1.27-4.11-2.01-.81-.46-2.69-.46-1.99-1.78,.55-1.03,1.95-1.81,3.58-1.21,1.89,.7,3.77,1.34,5.82,1.66,6.1,.96,11.46-.31,16.01-4.07,1.46-1.2,2.98-1.78,4.94-1.88,3.53-.18,7.01-.75,10.93-1.81-.83,3.53-2.68,5.96-5.8,7.68-2.63,1.45-5.53,2.33-8.35,3.36-5.88,1.04-11.83,1.21-17.8,1.02-.78-.23-1.55-.46-2.33-.7Z"/>
  <path class="cls-2" d="M260.92,162.87c.35-1.97,1.46-2.99,3.78-3.26,6.44-.77,10.21-4.45,12.12-9.8,.76-2.14,1.57-3.92,4.05-5.02,1.97-.88,3.37-2.62,4.71-4.24,.71-.86,1.52-1.6,2.62-2.15-1.29,16.57-8.09,23.83-27.27,24.46Z"/>
  <path class="cls-1" d="M237.56,174.74c.2,.78-.37,1.04-1.04,1.21-9.44,2.45-18.84,3.55-28.05-.79-.81-.38-1.64-.78-2.35-1.29-.89-.64-2.58-1.12-2.02-2.35,.45-.97,1.89-1.49,3.29-1.37,4.99,3.06,10.61,3.26,16.08,2.01,3.93-.9,7.19-.74,10.54,1.2,1.06,.61,2.17,1.34,3.55,1.38Z"/>
  <path class="cls-1" d="M216.93,161.63c-.2-.05-.39-.1-.59-.15-.77-.69-1.82-.67-2.77-.9,0,0-.12-.07-.12-.07-.61-.15-1.22-.29-1.83-.44-.11-1.01,.7-1.46,1.45-1.94,0,0,.23,0,.23,0l.11-.18s.17-.1,.17-.1c2.71-1.39,5.32-3.04,8.66-2.93,1.95,.07,3.83,.3,5.45,1.87-3.89,1.32-7.29,3.14-10.74,4.86Z"/>
  <path class="cls-13" d="M268.4,103.93c-.04,1.01-.07,2.03-.11,3.04-.69,1.69-.78,3.37,.08,5.03,.02,.49,.04,.98,.06,1.47-.07,.39-.05,.75,.32,1.03,.09,.31,.18,.63,.27,.94,.04,.18,.09,.37,.13,.55,.31,1.03,.62,2.06,.92,3.09-.43,.02-.86,.05-1.29,.07-.47-.65-1.2-.42-1.85-.46-.42-.11-.84-.21-1.26-.32,1.57-1.54,1.51-2.9-.47-4.15-.83-.53-1.55-1.21-1.87-2.13,.21-.4,.43-.81,.64-1.21,.79,.34,.75,1.56,2.17,1.53,0-2.69-.14-5.34,.05-7.97,.13-1.79-.19-3.24-1.86-4.32,.3-.28,.6-.56,.91-.84,1.09,1.05,2.9,1.2,3.78,2.49-.2,.71-.41,1.43-.61,2.14Z"/>
  <path class="cls-2" d="M238.66,154.19c3.14-3.21,9.2-3.67,13.35-1.09-.78,.6-1.6,1.12-2.26,1.77-1.78,1.77-3.52,2.75-5.92,.7-1.33-1.14-3.4-.6-5.17-1.39Z"/>
  <path class="cls-2" d="M266.93,118.69c.65,.04,1.39-.2,1.85,.46,.29,1.58,1.18,2.96,1.79,4.44,.37,.89,1.01,1.91-.34,2.66-.44,.09-.96,.08-1.31,.3-2.07,1.26-2.85,.64-2.79-1.45,.04-1.34,0-2.68-.01-4.03,.27-.79,.54-1.58,.82-2.37Z"/>
  <path class="cls-2" d="M259.51,143.26c.95-1.29,1.77-2.68,3.79-3.65-.2,2.89-.39,5.41-.55,7.94-.04,.57-.29,.95-.86,1.15-1.62,.56-3.24,1.11-5.1,1.75,.15-2.17,.63-4.02,2.12-5.58,.8,.58,.31,1.16,.06,1.78-.2,.49-.9,1.08-.12,1.53,.72,.41,1.86,.45,2.34-.07,1.02-1.1,.5-2.55,.45-3.84-.05-1.24-1.29-.88-2.13-1.01Z"/>
  <path class="cls-2" d="M266.11,121.07c0,1.34,.05,2.69,.01,4.03-.06,2.08,.72,2.71,2.79,1.45,.35-.21,.87-.2,1.31-.3-1.26,1.69-2.21,3.62-4.44,4.92-.85-3.51-1.32-6.82,.32-10.1Z"/>
  <path class="cls-2" d="M259.51,143.26c.84,.13,2.08-.23,2.13,1.01,.05,1.29,.57,2.74-.45,3.84-.49,.52-1.62,.48-2.34,.07-.78-.44-.09-1.04,.12-1.53,.26-.62,.74-1.21-.06-1.78-.14-.64-.26-1.27,.6-1.62Z"/>
  <path class="cls-13" d="M282.42,114.61c-.55,1.1-.79,2.25-.62,3.46-.41,.02-.82,.03-1.23,.05-.33-.73-.66-1.46-.99-2.19,0-.14-.08-.26-.21-.34-.09-.89-1.73-1.65-.28-2.68,1.09-.14,.87,.66,1.04,1.18,.16,.25,.3,.7,.48,.71,.59,.05,.6-.43,.62-.82,.22-.48,.44-.96,.67-1.44,.76,.57,.35,1.38,.52,2.07Z"/>
  <path class="cls-2" d="M276.3,145.31c-1.05-2.67-.9-5.36-.09-8.05,.05,.27,.09,.53,.14,.8-.12,.76-.39,1.54,.29,2.22-.02,1.02-.04,2.03-.06,3.05-.53,.52-.41,1.13-.27,1.73l.08,.13-.09,.12Z"/>
  <path class="cls-10" d="M276.63,140.29c-.68-.68-.41-1.46-.29-2.22,.5,.7,.49,1.45,.29,2.22Z"/>
  <path class="cls-10" d="M276.31,145.07c-.14-.61-.27-1.21,.27-1.73,.14,.61,.21,1.2-.27,1.73Z"/>
  <path class="cls-6" d="M214.52,124.57c-.49,5.21-.34,10.44-.42,15.66-.27,.22-.29,.46-.05,.71-.94,3.47-1.3,7.08-3.28,10.31-1.66,2.7-1.95,2.66-4.06,.37-1.73-1.87-2.17-3.84-2.28-6.19-.24-5.43-.45-10.88-1.48-16.26-.03-1.68-.06-3.37-.09-5.05,.5-4.5-1.1-8.76-1.77-13.13-.09-.24-.18-.49-.28-.73-.27-2.95-.41-5.91-.23-8.88,.61-.75,.59-1.6,.49-2.47,.06-.68,.11-1.36,.17-2.05,.11-.35,.23-.69,.34-1.04,.82-2.01,1.03-4.27,2.74-5.92,.61-.59,1.25-1.52,2.2-1.38,1.13,.17,.82,1.33,1.08,2.09,.14,.4,.26,.8,.38,1.2-.09,.77,.28,1.28,1.07,1.56,.9,3.38,1.8,6.77,2.71,10.15,0,0-.06,.19-.06,.19l.18,.12c1.2,2.93,1.24,6.08,2.16,9.07,0,.23,.02,.47,.03,.7,.13,3.52,.25,7.05,.38,10.57-.13,.15-.12,.28,.05,.4Z"/>
  <path class="cls-6" d="M228.64,63.04c.41,1.03-.27,1.49-1.16,1.85-1.84,.16-3.68,.31-5.52,.47-.37-.06-.75-.12-1.12-.18-.46-.1-.85-.05-1.07,.38-1.16,.33-1.77,1.14-2.25,2.07-.03,.19-.07,.37-.1,.56-.75,2.3-.71,4.6,.04,6.89-.04,.06-.13,.13-.12,.19,.02,.14,.09,.27,.14,.4,.16,2.73,.65,5.42,1.32,8.08,.08,.24,.16,.49,.25,.73,.1,1.41,.14,2.83,.3,4.24,.65,5.75,1.67,11.54-2.43,16.73h0c-2.34,.77-3.61,.25-3.73-2.21-.06-1.14-.67-2.25-1.03-3.38-.09-.17-.17-.34-.26-.51,0-1.27-.36-2.46-.97-3.6,.19-.34,.11-.65-.15-.94-.6-2.34-1.19-4.69-1.79-7.03,.14-.78-.33-1.18-1.08-1.41,.12-1.5-.38-2.89-.93-4.28,.25-.5,.16-.98-.12-1.44-.31-1.86-.62-3.73-.92-5.59,.18-.36,.1-.68-.21-.95-.54-3.56-.22-7.08,.56-10.59,2.59-3.94,5.99-6.57,11.46-6.56,4,0,6.9,1.44,9.09,4.37,.47,.62,.53,1.71,1.79,1.7Z"/>
  <path class="cls-6" d="M215.21,113.54c0-.67,.15-1.36-.01-1.99-.6-2.25-.44-4.21,2.01-5.56,.29-.16-.06-.4-.27-.54,0,0,0,0,0,0,1.46,.89,1.87-.36,2.38-1.06,1.92-2.59,2.18-5.54,2.05-8.55,.43-.5,.46-1-.03-1.48-.14-3.57-.48-7.13-1.19-10.65,.08-.84,.14-1.68-.45-2.42-.49-1.53,.05-2.33,1.91-2.35,1.09-.01,2.18-.17,3.16-.69,.2-.04,.39-.08,.59-.12l-.07,.03c1.64,.12,3.28-.42,4.91,.03-.08,.18-.02,.3,.19,.37,.04,2.69,.13,5.38,.09,8.07-.08,5.18-.35,10.31-2.93,15.13-.64,1.19-1.64,2.44-1.29,3.96l-.02,.06c-.79-.06-.78,.58-1.04,.99-1.47,1.82-2.94,3.63-4.42,5.45-1.72,.99-2.94,2.71-5.22,2.87,.05-.55,.04-1.09-.34-1.56Z"/>
  <path class="cls-9" d="M191.5,163.84c.65-.27,1.31-.55,1.96-.82,5.06-1.63,10.3-2.2,15.64-2.06,.74,.19,1.48,.37,2.21,.56,.26,.07,.52,.15,.78,.21,.8,.19,1.91,.29,2.14,.97,.29,.85-.91,1.12-1.5,1.56-4.51,3.34-9.79,5.55-14.86,8.06-.23,.08-.45,.16-.68,.24-6.08,1.59-11.97,1.9-17.66-1.36-1.59-.91-2.13-1.65-1.23-3.11,0,0,.01-.01,.01-.01,.22,.65,.73,.49,1.22,.34,.45-.14,.72-.38,.45-.84,0,0,.03-.01,.03-.01,.5,.88,1.15,.19,1.61,.03,3.31-1.21,6.58-2.49,9.87-3.74Z"/>
  <path class="cls-6" d="M201.92,132.2c.55,5.6,1.1,11.2,.66,16.83-.24,3.11-.89,6.15-2.14,9.06-.44,1.02-.76,2.08-2.39,2.05-1.57-.03-2.72-.66-3.36-1.87-1.23-2.33-1.42-4.87-1.31-7.39,.31-7.33,1.98-14.46,4.07-21.52,.95-3.22,1.96-6.42,3.02-9.9,1.52,1.56,.43,3.33,1.26,4.7-.27,2.68-.03,5.36,.18,8.03Z"/>
  <path class="cls-6" d="M220.93,120.82c-1.73,.32-2.07,1.87-3.07,2.82-.44,.41-.78,1.11-1.5,.92-.83-.23-.3-1-.45-1.52-1.31-4.58,1.2-7.45,5.29-9.62,.82-.34,1.22-.22,1,.7-.36,1.45-.68,2.91-1.02,4.37-.31,.71-1.03,1.38-.23,2.18l-.02,.14Z"/>
  <path class="cls-5" d="M203.92,151.16c2.45,2.37,3.38,4.72,3.89,7.26,.12,.61-.25,.97-.92,.97-1.56,0-3.46,.41-4.6-.23-1.14-.65,.43-2.04,.7-3.11,.36-1.42,.56-2.9,.92-4.89Z"/>
  <path class="cls-14" d="M221.18,118.49c.34-1.46,.66-2.92,1.02-4.37,.23-.92-.17-1.04-1-.7-.15-.4-.3-.79-.45-1.19,1.47-1.82,2.94-3.63,4.42-5.45,.36,.25,.72,.51,1.08,.76-3.15,3.15-1.95,7.51-3.76,11.03-.44-.03-.88-.05-1.32-.08Z"/>
  <path class="cls-14" d="M201.92,132.2c-.21-2.68-.45-5.35-.18-8.03,.38-.01,.75-.03,1.13-.04,.03,1.68,.06,3.37,.09,5.05-1.19,.77-.03,2.21-1.04,3.03Z"/>
  <path class="cls-14" d="M201.08,98.91c.1,.87,.13,1.72-.49,2.47-.63-.95,.14-1.68,.49-2.47Z"/>
  <path class="cls-14" d="M211.32,161.51c-.74-.19-1.48-.37-2.21-.56,.6-.68,1.44-.37,2.19-.44,0,.33,.01,.66,.02,1Z"/>
  <path class="cls-14" d="M209.08,93.37c-.79-.27-1.17-.78-1.07-1.56,1.17,.06,1.14,.8,1.07,1.56Z"/>
  <path class="cls-14" d="M215.21,113.54c.38,.47,.39,1.01,.34,1.56-.97-.37-1.11-.89-.34-1.56Z"/>
  <path class="cls-14" d="M204.58,75.24c-.17-.88-.34-1.75-.51-2.63,.08-.16,.07-.33-.01-.49,1.08,.91,.48,2.06,.52,3.11Z"/>
  <path class="cls-14" d="M216.06,129.24c.29,1.04,.14,2.06-.21,3.06-.07-1.03-.33-2.07,.21-3.06Z"/>
  <path class="cls-14" d="M201.59,95.83c-.11,.35-.23,.69-.34,1.04-.38,0-.76,0-1.13,0,.04-.34,.08-.68,.12-1.02,.45,0,.91-.01,1.36-.02Z"/>
  <path class="cls-14" d="M207.93,86.38c.75,.22,1.22,.63,1.08,1.41-1.04-.05-1.07-.72-1.08-1.41Z"/>
  <path class="cls-14" d="M201.83,72.55c-.59-1.19,.45-.91,1.09-.98,.03,.14,.03,.29,0,.44-.11,.1-.2,.2-.27,.32-.28,.07-.55,.15-.83,.22Z"/>
  <path class="cls-14" d="M215.03,143.86c.03,.84,.19,1.69-.36,2.46,.04-.83-.29-1.7,.36-2.46Z"/>
  <path class="cls-14" d="M211.61,160.06c.61,.15,1.22,.29,1.83,.44-.69-.01-1.39-.03-2.08-.04,0-.18,.08-.31,.25-.4Z"/>
  <path class="cls-14" d="M206.88,80.67c.29,.46,.37,.94,.12,1.44-.04-.48-.08-.96-.12-1.44Z"/>
  <path class="cls-14" d="M203,81.74c-.52,.32-1.09,.44-1.71,.32,.49-.48,1.1-.39,1.71-.32Z"/>
  <path class="cls-11" d="M202.66,72.33c.07-.12,.16-.23,.27-.32,.38,.04,.75,.08,1.13,.12,.08,.16,.09,.32,.01,.49-.47-.09-.94-.19-1.41-.28Z"/>
  <path class="cls-14" d="M210.79,94.82c.26,.29,.33,.59,.15,.94-.05-.31-.1-.62-.15-.94Z"/>
  <path class="cls-14" d="M205.74,74.12c.32,.27,.39,.59,.21,.95-.07-.32-.14-.64-.21-.95Z"/>
  <path class="cls-14" d="M199.29,82.32c-.26,.05-.53,.1-.79,.15,.26-.05,.53-.1,.79-.15Z"/>
  <path class="cls-14" d="M202.38,80.36c.16-.03,.31-.07,.47-.1,0,0-.22,.11-.22,.11h-.25Z"/>
  <path class="cls-14" d="M211.91,99.35c.09,.17,.17,.34,.26,.51-.09-.17-.17-.34-.26-.51Z"/>
  <path class="cls-14" d="M211.9,103.83l-.18-.12s.06-.19,.06-.19c.08,.09,.12,.2,.12,.31Z"/>
  <path class="cls-14" d="M200.82,110.26c.09,.25,.18,.49,.28,.73-.09-.25-.18-.49-.28-.73Z"/>
  <path class="cls-14" d="M214.09,113.6c0-.23-.02-.47-.03-.7,0,.23,.02,.47,.03,.7Z"/>
  <path class="cls-14" d="M214.52,124.57c-.16-.12-.18-.25-.05-.4,.16,.12,.17,.25,.05,.4Z"/>
  <path class="cls-14" d="M214.05,140.94c-.24-.25-.22-.49,.05-.71-.02,.24-.03,.47-.05,.71Z"/>
  <path class="cls-14" d="M202.31,70.58c-.05,.12-.11,.25-.16,.37-.07-.13-.14-.26-.21-.39,.12,0,.25,0,.37,.01Z"/>
  <path class="cls-14" d="M213.4,157.93l-.11,.18s-.23,0-.23,0c.08-.1,.19-.17,.33-.19Z"/>
  <path class="cls-9" d="M118.68,176.35c-9.37,1.81-17.87,2.5-26.37-.26-3.51-1.14-6.49-2.86-8.94-5.33-.56-.57-1.98-1.23-.82-2.16,.92-.74,2.16-1.22,3.51-.2,2.4,1.82,5.31,2.64,8.35,3.26,4.7,.97,9.26,.44,13.76-.78,1.84-.5,3.19-.3,4.41,1.1,1.48,1.7,3.67,2.71,6.11,4.36Z"/>
  <path class="cls-5" d="M133.04,149.72c-.02,1.63-.04,3.26-.04,4.9,0,.82,.15,1.69-1.08,1.94-1.86,0-3.72,0-5.58-.03-.76,0-.68,.32-.43,.76-2.73-.32-5.46-.64-8.37-.98,1.63-2.87,4.43-4.59,7.13-6.4,2.77-.78,5.56-1.22,8.38-.18Z"/>
  <path class="cls-9" d="M104.95,157.52c-1.65,.56-3.27,1.11-4.88,1.67-.54,.19-1.08,.29-1.59-.05-2.48-1.67-5.32-2.61-8.46-3.32,4.35-2.41,11.45-1.56,14.93,1.7Z"/>
  <path class="cls-5" d="M125.91,157.28c-.24-.43-.33-.77,.43-.76,1.86,.02,3.72,.02,5.58,.03-1.13,.89-2.16,2.02-3.95,1.45-.12-.06-.26-.09-.4-.09-.27-.83-1.15-.33-1.66-.63Z"/>
  <path class="cls-11" d="M127.57,157.91c.14,0,.27,.03,.4,.09,0,.49,0,.99,.01,1.48-.06,.35-.12,.7-.17,1.05-.39-1.95-2.5-1.31-3.72-1.99,1.14-.29,2.56,.65,3.49-.63Z"/>
  <path class="cls-4" d="M244.38,65.41c.55,.03,1.47-.11,1.58,.1,1.19,2.27,1.49,4.81,2.7,7.11,.4,.75-.97,.67-1.64,.79-4.24,.8-8.59,1.14-12.75,2.29-.57,.04-1.13,.09-1.7,.13-.37,.1-.74,.21-1.11,.31-.58,.12-1.17,.25-1.75,.37-.23,.02-.45,.04-.68,.06-1.31-.21-2.55,.06-3.73,.53-.69,.28-.64,.7-.02,1.07,0,0,.07-.03,.07-.03,0,0,0-.03,0-.03,.2-1.63-1-.81-1.73-.8-.64-.1-1.24-.06-1.78,.31-.54,.12-1.07,.23-1.61,.35-.16-.09-.31-.08-.47,0-1.36-2.73-2.05-5.51-.62-8.41,3.71-.56,7.43-1.06,11.11-1.72,1.52-.27,3.36,.2,4.47-1.28,.79-.02,1.58-.04,2.37-.06,2.48-.03,4.91-.39,7.26-1.11Z"/>
  <path class="cls-13" d="M225.27,78.18c-.62-.37-.67-.79,.02-1.07,1.18-.48,2.42-.74,3.73-.53,.23-.02,.45-.04,.68-.06,.58-.12,1.17-.25,1.75-.37,.43,.07,.82,.01,1.11-.31,.57-.04,1.13-.09,1.7-.13,.19,.33,.39,.66,.58,.99,0,0,0,0,0,0-.19-.05-.35-.02-.5,.1-2.51,.19-3.28,1.36-2.5,3.49,.2,.54,.14,1.17,.18,1.75,.29,5,.56,5.18,6.24,5.72,3.11,.29,6.09-.5,9.14-.58,.27-.05,.54-.1,.8-.15,.18-.09,.36-.18,.55-.27,.19-.07,.38-.13,.57-.2,2.82-.96,5.63-1.93,5.62-5.33,.55-.17,1.1-.33,1.65-.5,0,0,.04,.03,.04,.03,.2,.15,.41,.29,.61,.44,1.21,.73,2.44,1.43,3.61,2.19,.37,.24,1,.62,.13,1.06-1.49,.15-2.43-.81-3.43-1.51-.84-.59-1.25-.4-1.66,.31-.06,.04-.18,.08-.17,.11,0,.12,.05,.23,.08,.34-.06,.34-.11,.68-.17,1.02-1.19,.84-.07,1.39,.32,2.03,.65,3.26,2.38,6.02,4.69,8.55,.36,.39,1.75,.81,.38,1.62-1.69-.11-2.87,1.57-4.67,1.08-.11-.26-.23-.51-.34-.76,2.56-.75,3.23-1.94,1.26-3.93-.6-.61-.98-1.43-1.34-2.2-.7-1.5-1.09-4.16-2.03-4.31-1.63-.27-3.57,.99-5.38,1.6l-.78,.14c-3.87,1.03-7.8,1.16-11.77,.57-.2-.63-.48-1.03-1.14-.31-2.19-.54-3.12,.39-3.23,2.27-.03,.29-.05,.57-.08,.86-.02,.99,.18,2.03-.1,2.95-.63,2.05,.26,3.04,2.41,3.39l1.03,.11c1.16-.03,2.31-.01,3.41,.39,.19,.03,.38,.06,.57,.09,4.27,.23,8.52,.02,12.75-.46,.6,.04,1.2,.13,1.66-.36,.59-.34,1.24-.42,1.93-.33,.37,.13,.74,.25,1.12,.38-1.16,1.51-2.96,1.24-4.62,1.35-.21,.12-.42,.23-.63,.35-.76,.04-1.51,.08-2.27,.12-.19,0-.37,.01-.56,.02-4.31,.5-8.6,.29-12.88-.24-.57-.47-1.27-.31-1.93-.34-.29-.04-.58-.09-.86-.13-.49-.45-1.02-.45-1.57-.09-.99,.52-.87,1.56-1.34,2.32-.5,.32-.46,.81-.49,1.28l.04,.13s-.14,.06-.14,.06c-.1,.25-.19,.5-.29,.75,.09,.12,.07,.22-.08,.28-.74,.03-1.17,.33-1.11,1.05-.06,.16-.12,.32-.18,.48-.39,.09-.77,.18-1.16,.28-.35-1.52,.65-2.77,1.29-3.96,2.58-4.82,2.86-9.95,2.93-15.13,.04-2.69-.06-5.38-.09-8.07-.02-.14-.08-.26-.19-.37-1.63-.45-3.28,.09-4.91-.03Z"/>
  <path class="cls-4" d="M237.11,66.52c-.79,.02-1.58,.04-2.37,.06-5.26,.36-10.42,1.34-15.63,2.08-.23-1.16,.73-1.14,1.54-1.27,2-.34,3.99-.69,5.98-1.03,.3-.09,.61-.18,.91-.26,4.35-.35,8.59-1.3,12.88-2.02,1.36-.18,2.71-.4,4.08-.53,.55-.05,1.5-.45,1.46,.49-.04,.76-1.05,.37-1.6,.58-2.4,.7-5.26-.04-7.25,1.91Z"/>
  <path class="cls-8" d="M237.11,66.52c1.99-1.96,4.86-1.21,7.25-1.91,0,.27,0,.54,.01,.81-2.36,.71-4.78,1.07-7.26,1.11Z"/>
  <path class="cls-14" d="M168.88,173.83c-.77-.32-1.23-.89-1.52-1.58,.61-.21,1.21-.42,1.82-.63-.41,1.22,1.29,1.1,1.49,1.93-.6,.1-1.19,.19-1.79,.29Z"/>
  <path class="cls-14" d="M213.57,160.57c.95,.24,2,.22,2.77,.9-.98-.16-2.31,.55-2.77-.9Z"/>
  <path class="cls-14" d="M238.75,173.89c.78,.23,1.55,.46,2.33,.7-.87,.02-1.83,.3-2.33-.7Z"/>
  <path class="cls-14" d="M166.64,172.13c-.76,.14-1.53,.28-2.29,.42,.64-.69,1.49-.45,2.29-.42Z"/>
  <path class="cls-14" d="M155.87,173.3c-.6,.22-1.17,.12-1.72-.13,.59-.1,1.17-.18,1.72,.13Z"/>
  <path class="cls-14" d="M201.84,172.5c-.55,.07-1.1,.13-1.66,.2,.45-.75,1.01-.8,1.66-.2Z"/>
  <path class="cls-14" d="M210.74,167.57c-.17,.12-.33,.23-.5,.35,.17-.12,.33-.23,.5-.35Z"/>
  <path class="cls-14" d="M166.38,171.01c.24-.06,.48-.11,.72-.17-.24,.06-.48,.11-.72,.17Z"/>
  <path class="cls-14" d="M172.8,170.61c-.18,.04-.37,.08-.55,.12,.18-.04,.37-.08,.55-.12Z"/>
  <path class="cls-14" d="M164.13,171.51c.24-.03,.47-.07,.71-.1-.24,.03-.47,.07-.71,.1Z"/>
  <path class="cls-14" d="M158.75,172.18c.19-.01,.37-.02,.56-.04-.17,.27-.35,.3-.56,.04Z"/>
  <path class="cls-14" d="M197.21,172.55c.23-.08,.45-.16,.68-.24-.23,.08-.45,.16-.68,.24Z"/>
  <path class="cls-7" d="M165.02,155.23c.41,.13,.92,.19,.91,.72-.01,.57-.54,.53-.97,.59,.02-.44,.04-.88,.05-1.32Z"/>
  <path class="cls-11" d="M128.55,159.27c.2-.09,.4-.19,.6-.28-.2,.09-.4,.19-.6,.28Z"/>
  <path class="cls-13" d="M168.88,173.83c.6-.1,1.19-.19,1.79-.29,.35,.31,.69,.61,1.04,.92-.29,.26-.59,.52-.88,.78-.7-.41-1.78-.39-1.94-1.41Z"/>
  <path class="cls-5" d="M161.61,149.05c0,.58-.03,1.16-.02,1.74,.08,4.72,0,4.81-5.45,5.71-3.76,.42-7.52-.4-11.3,.12-1.9,.26-1.15-1.07-.8-1.85,2.01-4.42,6.08-6.01,10.99-6.4,2.25-.18,4.42,.15,6.58,.69Z"/>
  <path class="cls-12" d="M146.45,158.09c-.42,.39-.89,.38-1.4,.17,.47-.06,.93-.11,1.4-.17Z"/>
  <path class="cls-12" d="M155.41,158.55c-.31,.54-.7,.52-1.14,.13,.38-.04,.76-.08,1.14-.13Z"/>
  <path class="cls-9" d="M255.63,84.72c.06-.34,.11-.68,.17-1.02,.15-.13,.18-.28,.09-.45,.42-.71,.83-.9,1.66-.31,1,.7,1.94,1.66,3.43,1.51,0,0,.07-.14,.07-.14,.93,2.1,3.23,2.69,5.16,3.62,.29,.14,.73-.63,.25-1.14,0,0-.07-.04-.07-.04s-.06,.07-.06,.07c-.73,.37-.82,.98-.18,1.32,1.23,.65,2.2,1.82,3.85,1.7l.04,.03c1.52,1.99,2.2,2.2,3.14,.97l-.04-.06c-1.02,2.06,1.48,2.43,2.16,3.68,.54,.69,.76,2.25,1.88,1.66,1.16-.61-.37-1.5-.7-2.27-.06-.14-.27-.22-.42-.32-.69-.94-.42-1.9-.11-2.88,.8-2.49,1.1-5.05,1.38-7.62,.37,0,.74,.02,1.12,.03,.59,.55,1.18,1.1,1.77,1.64,.9,1.21,1.79,2.43,2.69,3.64,3.08,6.07,3.79,12.28,1.27,18.66-.17,.42-.16,.82,.46,.96,0,0,0,0,0,0-1.84,.28-1.69,1.32-1.17,2.5,0,0,0,0,0,0-1.03-.36-.8,.44-.99,.87-.28,.36-.67,.68-.55,1.2-.22,.48-.44,.96-.67,1.44-.37,.04-.73,.07-1.1,.11-.17-.52,.05-1.32-1.04-1.18,0,0-.03,.08-.03,.08-.19-2.45,.7-4.77,1.02-7.16,.4-3.03,0-6-1.72-8.72,.07-.4-.08-.67-.53-.78-1.31,.03-.97,.73-.63,1.35,1.15,2.16,1.36,4.5,1.67,6.83l-.13,.17s.11,.19,.11,.19c-.04,.08-.08,.15-.11,.23-.5,1.16,.2,3-1.08,3.45-1.32,.46-2-1.35-3.03-2.08-.82-.58-1.48-1.04-1.49,.44v-.18s-.21-.03-.21-.03c1.39-.66,.53-1.35-.07-1.88-1.22-1.06-2.55-2.03-3.83-3.04-.88-1.3-2.69-1.45-3.78-2.49-.23-.15-.45-.3-.68-.45-.23-.19-.46-.37-.69-.56l-.09-.02c-.83-.56-1.01-2.17-2.69-1.38,0,0-.07,.03-.07,.03,1.38-.81-.02-1.23-.38-1.62-2.32-2.52-4.04-5.29-4.69-8.55-.11-.68-.21-1.36-.32-2.03Z"/>
  <path class="cls-6" d="M273.13,90.78s.04,.06,.04,.06c-.98-.5-1.59-1.96-3.14-.97,0,0-.04-.03-.04-.03,.82-.35,.26-.71,0-1.06-.08-.31-.15-.63-.23-.94,.93-3.63,1.1-7.16-1.78-10.25v-.08c.75-1.53-1.03-1.95-1.61-2.87-1.02-1.63-1.41-2.66,1.32-2.91,1.84-.17,3.62-.78,5.45-1.05,.94-.14,2.06-.51,2.81,.49-.24,.85-.29,1.68,.27,2.47,.04,5.03-.2,10.03-1.26,14.98-.2,.93,.18,2.41-1.83,2.16Z"/>
  <path class="cls-14" d="M267.82,79.22c-.94-.19-1.19-.86-1.33-1.59,.51-.04,1.01-.08,1.52-.12,0,0-.01,.08-.01,.08-.06,.55-.11,1.09-.17,1.64Z"/>
  <path class="cls-14" d="M276.22,73.64c-.56-.78-.51-1.61-.27-2.47,.25,.81,.67,1.6,.27,2.47Z"/>
  <path class="cls-14" d="M278.44,83.06c-.37,0-.74-.02-1.12-.03,.38-.41,.76-.43,1.12,.03Z"/>
  <path class="cls-14" d="M148.66,176.34c.67,.24,1.35,.47,2.02,.71-.81,.09-1.7,.35-2.02-.71Z"/>
  <path class="cls-3" d="M284.89,108.85s.02,.1,.02,.1c.22-.4,.4-.8-.3-.98,0,0,0,0,0,0-.15,.35-.05,.65,.28,.88Z"/>
  <path class="cls-14" d="M227.55,66.09c-.3,.09-.61,.18-.91,.26-.68-1.14-1.84-.77-2.88-.73-.63,.02-1.36,.75-1.81-.26,1.84-.16,3.68-.31,5.52-.47,.02,.4,.05,.8,.07,1.2Z"/>
  <path class="cls-13" d="M146.47,167.87c-1.15,1,0,1.36,.63,1.86,.39,.31,1,.6,.42,1.17-.39,.38-.9,.25-1.19-.07-1.79-1.99-3.92-1.55-6.12-.76-.63,.39-.51,.72,.09,1.02,0,0,0,0,0,0-.25,.47-.73,.5-1.21,.52-.35-.25-.7-.5-1.05-.75-.16-.03-.32-.06-.48-.1-.58,.11-1.15,.22-1.73,.33-.31,.05-.62,.1-.93,.14-.67,.34-1.32,.53-2.13-.17,1.37-1.16,3.1-1.19,4.71-1.49,.19,.03,.36,0,.5-.13,3.77-1.3,7.55-2.6,11.32-3.9,.19,.01,.34-.05,.45-.19,1.26-.44,2.51-.88,3.77-1.32,.07,.17,.14,.34,.22,.51,0,.19,.02,.38,.02,.57-.72,.31-1.45,.63-2.17,.94-.21,.08-.42,.17-.63,.25-1.14,.42-2.28,.83-3.42,1.25-.35,.11-.71,.21-1.06,.32Z"/>
  <path class="cls-13" d="M153.51,164.03c.38-.23,.73-.57,1.14-.66,1.28-.25,2.7-2.1,3.63-.69,.51,.77-1.88,1.26-3.02,1.8-.51,.02-1.02,.04-1.53,.06-.07-.17-.14-.34-.22-.51Z"/>
  <path class="cls-13" d="M143.29,174.69c-2.59-1.32-2.67-1.42-2.18-2.51,.35,.13,.69,.24,1.04,.36,.63,.43,1.26,.85,1.89,1.28-.25,.29-.5,.58-.76,.87Z"/>
  <path class="cls-14" d="M139.08,171.61c.48-.02,.96-.05,1.21-.52,.58,.27,1.3,.67,.63,1.23-.93,.79-1.33-.24-1.84-.71Z"/>
  <path class="cls-13" d="M144.39,175.44c-.37-.25-.73-.5-1.1-.76,.25-.29,.5-.58,.75-.87,.36,.26,.72,.53,1.08,.79-.24,.28-.49,.56-.73,.84Z"/>
  <path class="cls-13" d="M180,167.56c.27,.46,0,.7-.45,.84-.48,.15-1,.31-1.22-.34-.27-.47,.04-.69,.47-.84,.5-.18,.98-.29,1.2,.34Z"/>
  <path class="cls-14" d="M153.73,164.54c.51-.02,1.02-.04,1.53-.06-.4,.4-.91,.6-1.51,.62,0-.19-.02-.38-.02-.57Z"/>
  <path class="cls-13" d="M159.21,161.9c.25,.2,.43,.34,.61,.47-.2,.14-.39,.36-.61,.38-.17,.02-.37-.21-.56-.32,.17-.16,.33-.31,.56-.53Z"/>
  <path class="cls-14" d="M185.93,164.69c-.43,.12-.86,.24-1.28,.36,.36-.31,.75-.56,1.28-.36Z"/>
  <path class="cls-14" d="M146.47,167.87c.35-.11,.71-.21,1.06-.32-.35,.11-.71,.21-1.06,.32Z"/>
  <path class="cls-14" d="M140.3,171.09c-.6-.3-.72-.63-.09-1.02,.03,.34,.06,.68,.09,1.02Z"/>
  <path class="cls-14" d="M149.75,165.35c-.11,.14-.26,.2-.45,.19,.15-.06,.3-.12,.45-.19Z"/>
  <path class="cls-14" d="M150.95,166.3c.21-.08,.42-.17,.63-.25-.21,.08-.42,.17-.63,.25Z"/>
  <path class="cls-14" d="M137.97,169.44c-.14,.12-.31,.17-.5,.13,.17-.04,.33-.09,.5-.13Z"/>
  <path class="cls-14" d="M137.55,170.77c.16,.03,.32,.06,.48,.1,0,0-.26,0-.26,0,0,0-.23-.11-.23-.11Z"/>
  <path class="cls-14" d="M134.89,171.24c.31-.05,.62-.1,.93-.14-.27,.25-.56,.4-.93,.14Z"/>
  <path class="cls-14" d="M142.16,172.53c-.35-.12-.7-.24-1.04-.36,.59-.43,.79,.02,1.04,.36Z"/>
  <path class="cls-8" d="M191.8,74.31c-.25-.21-.72-.66-.34-.74,2.62-.55,5.18-2.06,7.97-.55-2.54,.43-5.09,.86-7.63,1.29Z"/>
  <path class="cls-8" d="M144.66,82.05c3.46-1.02,6.88-2.19,10.54-2.59,.26,.25,.52,.5,.78,.74,0,0,0,.13,0,.13-.29,.05-.58,.11-.86,.16-4.09,1.15-8.43,1.72-12.04,4.04-.68,.44-1.49,.88-1.3,1.76,.16,.75,1.07,.88,1.71,1.15,1.2,.53,2.81,.11,4.16,1.7-2.75-.04-4.96-.27-6.79-1.76-.98-.79-.61-1.74,.07-2.48,1.05-1.15,2.13-2.3,3.74-2.87Z"/>
  <path class="cls-15" d="M155.97,80.21c-.26-.25-.52-.5-.78-.74,1.22-.38,2.52-1.9,3.55,.21-.92,.18-1.85,.36-2.77,.53Z"/>
  <path class="cls-12" d="M155.11,80.5c.29-.05,.58-.11,.86-.16-.29,.05-.58,.11-.86,.16Z"/>
  <path class="cls-13" d="M267.82,79.22c.06-.55,.11-1.09,.17-1.64,2.88,3.09,2.72,6.62,1.78,10.25-.37,.4-.27,.71,.23,.94,.27,.35,.82,.7,0,1.06-1.65,.12-2.62-1.05-3.85-1.7-.64-.34-.55-.95,.18-1.31,.25,.7,.65,1.09,1.46,.55,1.94-1.21,1.17-3,1.04-4.56-.1-1.21-.66-2.4-1.02-3.59Z"/>
  <path class="cls-13" d="M266.47,86.79c.48,.51,.04,1.28-.25,1.14-1.94-.93-4.23-1.52-5.16-3.62,2.5-.41,3.52,1.81,5.41,2.48Z"/>
  <path class="cls-14" d="M267.8,87.37c-.82,.54-1.21,.15-1.46-.55,0,0,.06-.07,.06-.08,.47,.21,.94,.42,1.4,.62Z"/>
  <path class="cls-14" d="M257.24,81.2c-.2-.15-.41-.29-.61-.44,.2,.15,.41,.29,.61,.44Z"/>
  <path class="cls-14" d="M263.78,98.26s.09,.02,.09,.03c.23,.19,.46,.37,.69,.56,.23,.15,.45,.3,.68,.45-.3,.28-.6,.56-.91,.84-1.35-.84-2.14-1.02-2.19,.96-.1,3.39,.38,6.65,1.83,9.79-.21,.4-.43,.81-.64,1.21-2.94-3.48-2.86-7.55-2.74-11.62,.04-1.19,.25-2.37,.38-3.56,.44,1.3,1.44,1.64,2.82,1.34Z"/>
  <path class="cls-13" d="M221.18,118.49c.44,.03,.88,.05,1.32,.08,.01,1.02-.07,1.98-1.55,2.1-.8-.8-.08-1.48,.23-2.18Z"/>
  <path class="cls-13" d="M263.78,98.26c-1.38,.3-2.38-.04-2.82-1.34,0,0,.12-.03,.12-.03,1.68-.79,1.86,.81,2.69,1.38Z"/>
  <path class="cls-14" d="M226.24,105.74c.39-.09,.77-.18,1.16-.28-.07,.67-.37,1.23-.93,1.68-.08-.45-.16-.9-.24-1.35,0,0,.02-.06,.02-.06Z"/>
  <path class="cls-14" d="M227.57,104.98c-.06-.72,.38-1.01,1.11-1.05,.12,.77-.52,.89-1.11,1.05Z"/>
  <path class="cls-13" d="M226.22,105.79c.08,.45,.16,.9,.24,1.35-.06,.14-.13,.27-.21,.4-.36-.25-.72-.51-1.08-.76,.26-.4,.25-1.04,1.04-.99Z"/>
  <path class="cls-14" d="M233.42,99.33c.66,.03,1.36-.12,1.93,.34-.7,.14-1.35,.07-1.93-.34Z"/>
  <path class="cls-14" d="M230.98,99.11c.55-.36,1.07-.37,1.57,.09-.52-.03-1.05-.06-1.57-.09Z"/>
  <path class="cls-14" d="M229.15,102.71c.03-.47-.02-.96,.49-1.28,.1,.51-.06,.94-.49,1.28Z"/>
  <path class="cls-14" d="M251.06,99.77c.21-.12,.42-.23,.63-.35-.13,.24-.24,.49-.63,.35Z"/>
  <path class="cls-14" d="M248.23,99.91c.19,0,.37-.01,.56-.02-.19,0-.37,.01-.56,.02Z"/>
  <path class="cls-14" d="M228.77,103.65c.1-.25,.19-.5,.29-.75-.1,.25-.19,.5-.29,.75Z"/>
  <path class="cls-13" d="M278.36,97.11c1.72,2.72,2.12,5.69,1.72,8.72-.32,2.39-1.2,4.71-1.02,7.16-1.89-.58-2-2.56-3.4-3.53-.08-.92-.61-1.43-1.64-1.5-.3-.35-.6-.7-.89-1.04,.01-1.48,.67-1.03,1.49-.44,1.03,.73,1.71,2.54,3.03,2.08,1.28-.44,.58-2.29,1.08-3.45,.03-.08,.07-.15,.11-.23,0,0,.14-.17,.14-.17l-.11-.19c-.3-2.33-.52-4.67-1.67-6.83-.34-.63-.67-1.32,.63-1.35,.18,.26,.36,.52,.53,.78Z"/>
  <path class="cls-14" d="M269.02,101.79c1.28,1.01,2.61,1.98,3.83,3.04,.6,.52,1.46,1.21,.07,1.88-1.89-.42-2.3-2.79-4.51-2.78,.2-.71,.41-1.43,.61-2.14Z"/>
  <path class="cls-14" d="M268.37,112.01c-.85-1.67-.77-3.35-.08-5.03,.03,1.68,.05,3.36,.08,5.03Z"/>
  <path class="cls-14" d="M274.02,107.97c1.03,.07,1.56,.58,1.64,1.5-.75-.32-1.28-.83-1.64-1.5Z"/>
  <path class="cls-14" d="M268.74,114.5c-.37-.28-.39-.64-.32-1.03,.11,.34,.21,.68,.32,1.03Z"/>
  <path class="cls-14" d="M269.15,115.99c-.04-.18-.09-.37-.13-.55,.07,.12,.15,.23,.2,.36,.02,.05-.04,.13-.06,.19Z"/>
  <path class="cls-14" d="M279.37,115.59c.13,.08,.2,.2,.21,.34,0,0-.22-.11-.22-.11v-.23Z"/>
  <path class="cls-14" d="M281.9,112.54c-.12-.51,.27-.84,.55-1.2,.36,.06,.73,.12,1.09,.18,0,1.14-.54,2.12-1.12,3.09-.17-.69,.24-1.5-.52-2.07Z"/>
  <path class="cls-13" d="M284.62,107.97c.7,.18,.51,.57,.3,.98-.59,.43-.08,1.72-1.47,1.52-.52-1.18-.67-2.22,1.17-2.5Z"/>
  <path class="cls-13" d="M283.54,111.52c-.36-.06-.73-.12-1.09-.18,.18-.42-.05-1.23,.99-.87,.78,.29,.32,.68,.1,1.05Z"/>
  <path class="cls-9" d="M263.96,110.89c-1.45-3.14-1.93-6.4-1.83-9.79,.06-1.99,.84-1.8,2.19-.96,1.67,1.07,1.99,2.52,1.86,4.32-.19,2.63-.05,5.28-.05,7.97-1.42,.03-1.38-1.19-2.17-1.53Z"/>
  <path class="cls-14" d="M280.13,114.09c.37-.04,.73-.07,1.1-.11-.02,.4-.03,.87-.62,.82-.18-.01-.32-.46-.48-.71Z"/>
  <path class="cls-13" d="M221.95,65.37c.45,1.01,1.18,.28,1.81,.26,1.04-.04,2.2-.41,2.88,.73-1.99,.34-3.99,.69-5.98,1.03-.81,.14-1.77,.11-1.54,1.27,.01,.31,.03,.61,.04,.92-1.43,2.9-.74,5.67,.62,8.41,.16,0,.31,0,.47,0,.54-.12,1.07-.23,1.61-.35,.63,.07,1.27,.17,1.78-.31,.73,0,1.93-.83,1.73,.8-.2,.05-.4,.1-.59,.15-.97,.52-2.07,.68-3.16,.69-1.87,.02-2.41,.81-1.91,2.34,.1,.81-.25,1.69,.45,2.42,.71,3.52,1.05,7.08,1.19,10.65-.63,.5-.62,1,.03,1.48,.13,3.01-.13,5.96-2.05,8.55-.52,.7-.92,1.95-2.38,1.06,4.1-5.19,3.08-10.98,2.43-16.73-.16-1.41-.21-2.83-.3-4.24-.08-.24-.16-.49-.25-.73-.67-2.66-1.16-5.35-1.32-8.08,0-.19-.02-.39-.02-.58-.75-2.29-.79-4.59-.04-6.89,.03-.19,.07-.37,.1-.56,.48-.93,1.09-1.74,2.25-2.07,.36-.13,.71-.26,1.07-.38,.37,.06,.75,.12,1.12,.18Z"/>
  <path class="cls-14" d="M220.83,65.18c-.36,.13-.71,.26-1.07,.38,.22-.44,.61-.48,1.07-.38Z"/>
  <path class="cls-14" d="M218.8,83.75c.08,.24,.16,.48,.25,.73-.08-.24-.16-.48-.25-.73Z"/>
  <path class="cls-14" d="M217.45,75.09c0,.19,.02,.39,.02,.58-.05-.13-.12-.26-.14-.4,0-.05,.08-.12,.12-.19Z"/>
  <path class="cls-14" d="M217.51,67.64c-.03,.19-.07,.37-.1,.56,.03-.19,.07-.37,.1-.56Z"/>
  <path class="cls-14" d="M221.36,95.84c-.65-.48-.66-.97-.03-1.48,.5,.48,.46,.98,.03,1.48Z"/>
  <path class="cls-14" d="M220.14,83.71c-.7-.72-.35-1.6-.45-2.42,.58,.74,.53,1.58,.45,2.42Z"/>
  <path class="cls-14" d="M230.19,78.21c.1,.11,.16,.23,.19,.37-.2-.07-.26-.19-.19-.37Z"/>
  <path class="cls-14" d="M224.76,78.27c.2-.05,.39-.1,.59-.15,0,0,0,.03,0,.03-.2,.04-.39,.08-.59,.12Z"/>
  <path class="cls-14" d="M249.33,86.55c-.19,.07-.38,.13-.57,.2,.19-.07,.38-.13,.57-.2Z"/>
  <path class="cls-14" d="M248.21,87.02c-.27,.05-.54,.1-.8,.15,.27-.05,.54-.1,.8-.15Z"/>
  <path class="cls-14" d="M234.36,76.79c.15-.12,.31-.15,.5-.1-.17,.03-.33,.07-.5,.1Z"/>
  <path class="cls-8" d="M219.15,69.58c-.01-.31-.03-.61-.04-.92,5.2-.74,10.36-1.72,15.63-2.08-1.12,1.48-2.95,1.01-4.48,1.28-3.69,.66-7.41,1.16-11.11,1.72Z"/>
  <path class="cls-14" d="M223.62,77.31c-.51,.48-1.15,.39-1.78,.31,.54-.37,1.14-.42,1.78-.31Z"/>
  <path class="cls-14" d="M232.57,75.84c-.3,.32-.68,.38-1.11,.31,.37-.1,.74-.21,1.11-.31Z"/>
  <path class="cls-14" d="M220.24,77.98c-.16,0-.31,0-.47,0,.15-.09,.31-.09,.47,0Z"/>
  <path class="cls-14" d="M229.7,76.52c-.23,.02-.45,.04-.68,.06,.23-.02,.45-.04,.68-.06Z"/>
  <path class="cls-6" d="M251.6,98.37c-4.24,.49-8.49,.69-12.75,.46-.19-.03-.38-.06-.57-.09-1.1-.4-2.25-.42-3.41-.39-.32-.22-.66-.32-1.03-.11-2.16-.35-3.04-1.34-2.41-3.39,.28-.92,.08-1.96,.1-2.95,.33-.27,.39-.55,.08-.86,.11-1.88,1.03-2.81,3.23-2.27,.31,.31,.68,.44,1.14,.31,3.97,.59,7.9,.47,11.77-.57,.26-.05,.52-.09,.78-.14,1.81-.62,3.75-1.88,5.38-1.6,.94,.16,1.32,2.81,2.03,4.31,.36,.77,.74,1.59,1.34,2.2,1.97,1.99,1.3,3.18-1.26,3.93-.27,.15-.54,.3-.82,.44-.69-.09-1.34,0-1.93,.33-.55,.12-1.11,.24-1.66,.36Z"/>
  <path class="cls-14" d="M255.63,84.72c.11,.68,.21,1.36,.32,2.03-.39-.64-1.51-1.19-.32-2.03Z"/>
  <path class="cls-14" d="M235.97,89.1c-.46,.13-.83,0-1.14-.31,.66-.72,.94-.32,1.14,.31Z"/>
  <path class="cls-14" d="M251.6,98.37c.55-.12,1.11-.24,1.66-.36-.46,.49-1.06,.4-1.66,.36Z"/>
  <path class="cls-14" d="M233.83,98.25c.38-.21,.71-.11,1.03,.11-.34-.04-.69-.07-1.03-.11Z"/>
  <path class="cls-14" d="M255.89,83.25c.09,.17,.06,.32-.09,.45-.03-.11-.08-.23-.08-.34,0-.03,.11-.07,.17-.11Z"/>
  <path class="cls-6" d="M248.52,88.4c-.26,.05-.52,.09-.78,.14,.26-.05,.52-.09,.78-.14Z"/>
  <path class="cls-14" d="M231.6,91.05c.31,.31,.25,.6-.08,.86,.03-.29,.05-.57,.08-.86Z"/>
  <path class="cls-14" d="M255.19,97.68c.27-.15,.54-.3,.82-.44,.11,.25,.23,.51,.34,.76,0,0-.04,.06-.04,.06-.37-.13-.74-.25-1.12-.38Z"/>
  <path class="cls-14" d="M238.28,98.75c.19,.03,.38,.06,.57,.09-.19-.03-.38-.06-.57-.09Z"/>
  <path class="cls-13" d="M270.04,89.86c1.54-.99,2.16,.47,3.14,.97-.94,1.23-1.62,1.02-3.14-.97Z"/>
  <path class="cls-13" d="M276.05,93.53c.14,.11,.36,.19,.42,.32,.33,.77,1.86,1.65,.7,2.27-1.11,.59-1.34-.97-1.88-1.66,.25-.31,.5-.62,.76-.92Z"/>
  <path class="cls-13" d="M277.83,96.34c.46,.1,.6,.38,.53,.78-.18-.26-.35-.52-.53-.78Z"/>
  <path class="cls-13" d="M264.56,98.85c-.23-.19-.46-.37-.69-.56,.23,.19,.46,.37,.69,.56Z"/>
  <polygon class="cls-14" points="278.86 104.52 278.97 104.71 278.84 104.88 278.73 104.69 278.86 104.52"/>
  <path class="cls-14" d="M270,88.78c-.5-.23-.6-.54-.23-.94,.07,.32,.15,.63,.23,.94Z"/>
</svg>