<?xml version="1.0" encoding="UTF-8"?>
<svg id="Layer_1" data-name="Layer 1" xmlns="http://www.w3.org/2000/svg" viewBox="0 0 414 200">
  <defs>
    <style>
      .cls-1 {
        fill: #00bff3;
      }

      .cls-2 {
        fill: #eae1cc;
      }

      .cls-3 {
        fill: #e9e6dc;
      }

      .cls-4 {
        fill: #eeb4d3;
      }

      .cls-5 {
        fill: #fff9b8;
      }

      .cls-6 {
        fill: #fff200;
      }

      .cls-7 {
        fill: #fbb040;
      }

      .cls-8 {
        fill: #fdfdfd;
      }

      .cls-9 {
        fill: #6c6b6b;
      }

      .cls-10 {
        fill: #9ed2f1;
      }

      .cls-11 {
        fill: #baad99;
      }

      .cls-12 {
        fill: #cec9c7;
      }

      .cls-13 {
        fill: #3f3b35;
      }

      .cls-14 {
        fill: #48423c;
      }

      .cls-15 {
        fill: #322c2a;
      }

      .cls-16 {
        fill: #605a55;
      }

      .cls-17 {
        fill: #4d4843;
      }
    </style>
  </defs>
  <path class="cls-13" d="M259.02,101.69c.02,.37,.03,.73,.05,1.1-.18,.47-.21,.94,.11,1.37,0,2.04,0,4.09,0,6.13-.18,.18-.19,.38-.05,.59-.06,.77-.11,1.54-.17,2.31-.36,.25-.43,.57-.27,.97-.13,.84-.27,1.68-.4,2.52-.18,.49-.11,.88,.43,1.07,.53,.53,.59,1.25,.69,1.94-.09,.53-.06,1.01,.45,1.33,.04,.12,.1,.23,.13,.35,.01,.06-.02,.12-.03,.19,.48,3.67,.89,7.34,.28,11.04-.03,.81-.11,1.61-.47,2.36-.59,.5-.84,1.13-.68,1.91-.24,.89-.47,1.78-.71,2.67-.38,.95,.07,1.68,.59,2.4,.02,.36,.04,.72,.06,1.08-.01,.06-.05,.12-.04,.17,.03,.11,.07,.22,.11,.33,.02,.3,.03,.61,.05,.91-.03,.04-.1,.08-.1,.11,.03,.09,.08,.17,.12,.25,.22,1.62,.13,3.23-.15,4.84-.42,1.22-.99,2.42-.56,3.78-.1,.69-.2,1.39-.31,2.08-1.7,1.51-1.46,3.69-1.84,5.65-.06,.31-.12,.62-.18,.92-.34,.19-.41,.5-.37,.86-.26,1.32-1.41,2.29-1.4,3.72-1.3,2.02-2.1,.33-3.02-.43,1.27-1.61,3.09-2.81,3.63-4.98,.1-.2,.2-.4,.3-.61,.15-2.33,.98-4.52,1.37-6.8,.31-.21,.34-.51,.27-.84h0c.82-.68,1.38-4.27,.95-6.08-.03-.97-.06-1.94-.09-2.92,.34-.92,.25-1.68-.77-2.06-2.38,3.4-4.6,6.93-7.94,9.48,0,2.44-.02,4.89-.03,7.33-.28,.9-.62,1.78-.84,2.7-.71,3-3.51,5.37-6.52,5.43-.81,.01-1.58,.05-2.26,.58-.71,.02-1.29-.15-1.45-.98l.03-.03c.72,.14,1.16-.12,1.23-.91-.03-.09,0-.16,.09-.19,1.09-.19,.76-1.03,.76-1.72-.05-.95-.1-1.89-.14-2.84-.07-1.66-.82-2.24-2.33-1.49-1.59,.79-3.21,1.52-4.58,2.75-1.38,1.23-2.92,2.27-4.38,3.39-.7-.04-1.38-.11-1.42-1.06,.22-.13,.48-.22,.67-.39,.56-.52,1.64-.86,1.33-1.77-.23-.66-1.2-.24-1.82-.22-8.2,.32-16.32,1.11-24.13,3.99-1.3,.48-1.17,.9-.33,1.55,1.83,1.42,3.93,2.23,6.17,2.65,3.11,.57,6.23,.28,9.35,.1,.2,.15,.4,.31,.61,.46,.27-.05,.5,0,.61,.3-.92,.38-.81,1.02-.39,1.72,0,.39,.13,.68,.56,.71,.53-.19,.84,.36,1.3,.39,1.19,1.11,2.61,1.78,4.12,2.27,.35,1.14,.99,1.46,2,.74,.45-.06,.89-.13,1.27,.22,.34,.84,1.03,.53,1.63,.52,3.04,0,6.09,.01,9.13,.02,.32,.46,.59,.4,.84-.07,.16-.04,.32-.08,.48-.12,.45,.22,.7,.57,.67,1.1-.41,.07-.81,.14-1.22,.21-.33-.36-.58-.25-.77,.15-.55,.29-1.13,.26-1.71,.11-3.09,.14-6.44-1.33-9.09,1.54,0,0,.01,0,.01,0-1.08,.13-2.16,.26-3.24,.38h0c0-.25,0-.49,0-.74,.45-.24,1.16-.28,1.1-1-.05-.59-.68-.54-1.09-.73-3.08-1.41-6.28-2.65-8.83-4.98-1.15-1.06-2.31-1.27-3.76-1.31-3.21-.09-6.64-.23-9.15-2.36-3.01-2.54-5.95-3.12-9.43-1.61-.18,.08-.39,.09-.58,.16-.36,.13-.89,.05-1.02,.49-.17,.58,.39,.85,.73,1.1,2.71,1.95,5.42,3.89,8.32,5.55,3.45,1.96,7.16,3.25,10.86,4.58-.14,1.01-.8,.84-1.46,.68-.8-.2-1.54-.74-2.43-.52-1,.12-1.66-.71-2.52-.96-.5-.6-1.12-.47-1.75-.33-.16,0-.32,.02-.47,.03-.39-.16-.73-.11-.98,.27-.61,.05-1.22,.09-1.82,.14-1.61-.24-3.13,.12-4.6,.74-.98,.05-1.96,.11-2.94,.16-3.33-.56-6.62,.43-9.96,.24-1.82-.11-3.65-.91-5.5-.16-.81-.09-1.63-.17-2.44-.26-.66-.56-1.39-.82-2.25-.66-.32-.06-.64-.11-.96-.17-1.45-.76-2.9-1.53-4.6-1.53-.14,0-.28,0-.43,0-.53-.14-.89,0-1.02,.59-.13,.04-.25,.08-.38,.12-.77-.63,.16-2.67-1.82-2.3-1.75-.62-3.35-1.58-5.06-2.26-1.97-.78-3.48-2.73-5.73-2.66-5.01,.17-10.02-.02-15.02-.27-5.53-.28-10.99-1.34-16.13-3.56-1.37-.59-2.5-.83-3.75-.03-.49,.31-1.35,.17-1.45,.9-.12,.88,.65,1.34,1.26,1.68,3.08,1.75,6.3,3.18,9.59,4.48,4.17,1.65,8.5,2.69,12.82,3.76,.15,.56,.38,.82,.82,.22,2.03-.03,4.02,.21,5.99,.69,1.88,1.24,3.96,.26,5.93,.53,.59,.08,1.37,.32,1.72-.56,3.05-.54,6.11-1.08,9.16-1.62,.3,1.05-.74,1.2-1.15,1.76-.52,.07-1.03,.14-1.55,.21-.6-.83-.93-.27-1.27,.25-.19,.05-.37,.1-.56,.15-.4-.18-.76-.17-1.04,.22-.5,.03-.99,.06-1.49,.09-.23,.01-.47,.03-.7,.04-.26,.02-.52,.04-.77,.06-2.98-.25-5.95-.26-8.93,0-1,.13-1.98,.07-2.95-.18-1.21-.57-2.46-.93-3.81-.7-1.22,0-2.43-.01-3.65-.02-.65-.07-1.34-.37-1.81,.4-1.06,.5-2.19,.59-3.33,.48-2.68,.07-5.37,.15-8.05,.22-1.76,.05-3.5-.75-5.28-.17-.85-.07-1.69-.13-2.54-.2-.98-.39-1.97-.79-2.95-1.18,.38-.08,.78-.12,.97-.55,1.74,.13,3.5,.16,5.18,.76,.34,.69,.75,.7,1.22,.13h9.22c.77,.55,1.5,.83,2.01-.31l2.09-.3c.55,.2,1.22,.18,1.29-.43,.09-.85-.67-.52-1.14-.53-4.23-.74-8.16-2.42-11.92-4.41-4.64-2.47-9.26-4.46-14.57-2.46-.21,.05-.41,.09-.62,.14-4.8,.73-9.5,.72-13.89-1.83-.02-.44-.03-.88-.05-1.32,.24-.04,.48-.08,.72-.12,.19,.07,.38,.14,.56,.21,.71,.77,1.72,.83,2.63,1.11,.18,.06,.37,.11,.55,.17,.96,.53,1.98,.77,3.07,.61,.93,.23,1.86,.21,2.8,.02,.71,.13,1.41,.16,2.03-.32,.39-.05,.79-.11,1.18-.16,.58,.12,1.12,.06,1.61-.3,.26-.05,.52-.09,.77-.14,.36,.09,.63-.03,.81-.36,.71,.08,1.38-.08,2.01-.42,1.3-.46,2.84-.2,3.91-1.35,.3-.09,.6-.17,.9-.26,.77,0,1.49-.11,2.02-.77,.26-.18,.51-.35,.77-.53,.28-.09,.56-.18,.84-.27,.75,.13,1.42,0,1.97-.57,.28-.09,.56-.17,.83-.26,.62,.07,1.1-.26,1.57-.61,1.04,.19,2.08,.36,2.85-.65,.26-.08,.52-.17,.78-.25,.73-.18,1.54-.15,2.04-.87,.25-.06,.5-.12,.75-.18,.33,.1,.64,.13,.84-.25l3.21-.86c.51-.11,1.34,.05,1.25-.76-.07-.6-.81-.42-1.31-.41l-.46-.08c-.32-.35-.64-.69-1.17-.54-.25-.12-.5-.23-.75-.35,.12-.42-.64-1.15,.42-1.22l1.58,.45c.3,1.25,1.18,.69,1.9,.64,1.99,.77,3.97,1.55,6.11,.56,.13-.06,.25-.11,.38-.17,.79-.15,1.59-.3,2.38-.46,.09,.27,.26,.57,.54,.43,.17-.08,.21-.45,.31-.69,.12-.04,.24-.08,.36-.11,.65,.87,1.22,.97,1.66-.18,.36-.04,.72-.08,1.08-.11,.31,.02,.62,.04,.92,.06,0,.3,0,.6,0,.9-2.31,.86-4.76,1.08-7.14,1.6-.14,.02-.28,.05-.42,.07-2.14,.91-4.38,1.49-6.61,2.08-.22,.06-.44,.12-.65,.18-3.68,1.19-7.36,2.38-11.05,3.57,.04,.19,.09,.38,.13,.57,17.21,5.4,33.89,4.08,50.1-4.38-1.23-1.27-3.12-.92-4.33-2.04,.06-.4,.11-.8,.17-1.2,1.74,.42,3.45,.87,5.03,1.79,.75,.43,1.64,.68,2.5,.43,2.97-.86,5.91-1.81,9.01-2.21-.38-1.65-1.84-1-2.61-1.63-.2-.53-.45-.69-.82-.14-.53-.13-1.06-.25-1.59-.38,0-.29,0-.58,0-.87,.45-.04,.91-.08,1.36-.13,.34,.03,.68,.06,1.03,.09,.78,.54,1.65,.73,2.58,.74,.81-.04,1.52,.2,2.2,.65,1.17,.78,2.46,1.18,3.88,.96,1.43-.06,2.99,.91,4.23-.57,.14-.44,.28-.88,.42-1.32,.24-.09,.33-.27,.26-.53,1.73-3.48,4.59-5.72,7.97-7.27,.93-.42,1.17-.89,1.15-1.81-.18-6.44,.21-12.87,1.53-19.16,.57-2.75-.73-4.04-2.4-5.42-2.15-1.79-4.28-3.58-5.7-6.08,.08-.89-1.05-2.17,.76-2.52,1.4,3.81,4.66,5.98,7.33,8.66,.98,.98,1.49-.1,1.74-.75,.74-1.89,1.3-3.85,1.99-5.76,.21-.58,.13-1.05-.12-1.56-1.08-2.25-2.4-4.33-3.92-6.29,.15-.58,.21-1.36,1.01-1.25,.54,.08,1.02,.42,1.31,1.07,.6,1.36,1.31,2.67,2.04,3.96,.5,.88,.91,1.09,1.74,.06,1.72-2.12,.47-4.1,.07-6.15-.16-.85-.3-1.53-1.44-1.45-1.57,.11-.78-.77-.46-1.4,.61-.15,1.37-.08,1.49-.99,.21-.68,.11-1.36-.02-2.04l.02-2.49c.03-.8,.48-1.76-.77-2.06,0-.4-.01-.8-.02-1.2,.29-.06,.76-.08,.59-.5-.14-.34-.6-.4-.98-.21-.26,.05-.53,.09-.79,.14,0-.21,0-.41,0-.62,.13-.15,.25-.3,.38-.44,.46-.47,1.84-.25,1.41-1.26-.37-.88-1.26,.1-1.94,.14-.13,0-.25,.08-.38,.13-4.47,1.65-8.97,3.24-13.41,4.98-1.61,.63-3.26,1.15-4.88,1.72-.43,.15-.99,.57-.9,1.2,.05,.37,.52,.33,.84,.37l-.02,.83c-1.01,.3-2.06,.46-2.44,1.76-.58,1.99-1.26,3.94-1.98,6.18,4.08-.8,7.89-1.8,11.66-2.99,.32,.25,1.07-.28,1.03,.54-.03,.56-3.13,2.64-3.67,2.39-1.13-.52-2.03-.04-2.98,.41-.4,.09-.8,.17-1.2,.26-.2-.14-.37-.1-.5,.1l-.16-.02-.13,.1c-1.16-.04-2.23,.29-3.27,.78l-.18-.02-.15,.1c-.49-.09-.91-.02-1.2,.45-1.74-.14-2.24,1.46-3.22,2.4-.14,.13-.28,.25-.43,.38,0,0,0,0,0,0-.66-.15-1.04,.17-1.25,.77,0,0,0,0,0,0-.85,.33-1.56,.87-2.17,1.55-.1-.02-.16,.02-.19,.12-1.85,.51-3.71,1.02-5.55,1.56-.07,.02-.05,.32-.08,.49,.28,.85,.98,1.54,.93,2.52-.43,.42-.86,.83-1.29,1.25-.57,.02-1.12,.09-1.58,.49-.32-.06-.65-.15-.85,.24-.8,.12-1.64,.09-2.37,.54-.71-.08-1.4-.09-2.02,.37-1.19,.08-2.38,.16-3.57,.25-.96-.28-1.93-.24-2.9-.04-.79-.07-1.58-.14-2.37-.2-.95-.22-1.9-.45-2.84-.67-1.36-.86-3.13-1.18-3.75-3.01,.01-.71,.03-1.42,.04-2.13,.45-.94,.9-1.89,1.35-2.83,.59,.01,.92-.31,1.09-.87,.19-.23,.38-.46,.57-.68,.6-.23,1.02-.65,1.24-1.27,.36-.32,.71-.64,1.07-.96,.49,.17,.86-.17,1.28-.32,1.83-.16,2.17-1.64,2.58-3.06,.39-.13,.69,.05,.97,.28,.17,.65,.42,.87,.83,.15,3.05-1.85,6.58-2.62,10.05-4.31-11.79-6.13-23.57-11.06-35.91-14.55-7.9-2.23-15.89-4.01-24.11-4.47-.45-.03-.95,.06-1.27-.42-1.48-.52-2.95-1.21-4.53-.33-2.27,0-4.55,0-6.82-.01-.98-.84-2.39,.01-3.35-.89,.1-.08,.15-.19,.13-.33,.66-.05,1.32-.1,1.98-.15,2.97,.22,5.93,.17,8.9,.03,.66,.04,1.32,.08,1.98,.12,.39,.39,.82,.37,1.27,.13,1.45,.11,2.9,.23,4.35,.34,.37,.38,.78,.42,1.23,.15,.39,.06,.78,.13,1.16,.19-.05,.11-.03,.22,.03,.32,1.12,.99,2.44,.31,3.66,.46,.93-.13,1.76,.62,2.7,.34,.28,.02,.56,.04,.83,.06-.06,.07-.06,.14,.01,.2,.25,.27,.56,.26,.87,.21,.47,.04,.94,.07,1.41,.11,1.24,.27,2.47,.55,3.71,.82,.22,.4,.53,.32,.86,.16,.38,.07,.77,.14,1.15,.2,.22,.29,.5,.4,.84,.26,.25,.15,.49,.31,.74,.46,.32,.64,.72,.65,1.19,.17,.27,.06,.54,.13,.82,.19,.39,.59,.8,1.16,1.6,.6,.57-.09,1.13-.12,1.61,.31,.48,.71,1.12,.95,1.93,.71,3.59,.74,6.98,2.15,10.39,3.44,7.46,2.82,14.66,6.25,21.77,9.9,1.83,.94,3.17,.21,4.17-1.95,1.97-4.27,4.76-7.72,9.19-9.58,4.09-1.72,8.18-1.33,11.76,.79,2.55,1.51,4.55,1.06,6.86,.19,1.93-.73,3.83-1.53,5.8-2.14,1.31-.41,2.05-1.19,2.25-2.52,.5-3.21,2.1-5.86,4.33-8.04,3.38-3.3,6.65-3.43,10.83-1.54,1.49,.67,3.01,1.48,3.83,3.09,.5,.99,1.31,.71,2.09,.53,.88-.2,1.47-.7,1.4-1.69-.1-1.46,.27-2.84,.49-4.26,1.05-6.68,10.93-11.5,16.35-8.22,1.47,.89,2.16,2.36,3.03,3.71-.1,.32,0,.58,.26,.78,.04,.14,.07,.29,.11,.43,.34,1.32-.32,2.16-1.29,2.86-.04-.31-.08-.63-.12-.94,0-.56,0-1.13,0-1.69-.13-.19-.26-.39-.39-.58-.37-.72-.74-1.45-1.11-2.17-.08-.7-.59-.74-1.11-.75-.92-.71-1.97-1.31-3.11-1.2-4.21,.44-9.07,2.09-10.61,7.38-1.04,.07-.82,.89-.88,1.54,.01,1.95,.02,3.9,.03,5.85,.12,.74-.49,1.77,.79,2.05,.67,.93,.5,2.09,.77,3.13,1.13,4.36,3.51,8.13,5.18,12.23,.51,1.26,1.33,2.31,1.92,3.5,.4,.8,1.2,.89,1.59,.19,.63-1.14,1.83-1.98,1.83-3.46,.53-.81,.52-1.63,0-2.45-.02-.55-.04-1.1-.06-1.66-.04-.66,.28-1.52-.82-1.63-.66-1-.31-2.25-.75-3.3,.51-.43,.25-.65-.21-.83-.28-1.08-.55-2.16-.83-3.23,.47-.01,.94-.02,1.41-.03,.13,.55,.26,1.09,.39,1.64,.05,.54,.14,1.01,.79,.46,1.59,.46,2.74-1.25,4.31-.91,.17-.12,.34-.25,.51-.37h0c.13-.07,.26-.14,.39-.22,2.68-.88,5.36-1.77,8.04-2.65,1.28,.45,.66,.86-.05,1.18-1.05,.48-2.11,.91-3.17,1.36-.31,.23-.63,.45-.94,.68-.8,.28-.84,.72-.25,1.29,.04,.63,.09,1.27,.13,1.9-.27,1.19-.25,2.37-.02,3.56-.02,.23-.04,.46-.05,.68-.75,2.2-.8,4.4,0,6.59Zm-28.54,36.14c0-.14-.03-.27-.12-.38-.09-.15-.18-.31-.27-.46-.08-.13-.17-.27-.25-.4-.65-1.49-1.16-3.05-1.96-4.44-1.77-3.08-3.76-6.02-5.51-9.11-1.88-3.32-4.08-6.46-5.61-10-.24-.54-.94-1.26-1.38-1.23-.62,.05-.82,.96-1.05,1.6-1.42,4-.77,7.93,.54,11.77,1.5,4.38,3.63,8.45,5.71,12.57,2.2,4.37,4.77,8.61,6.26,13.32,.43,1.35,1.51,2.3,1.65,3.81,.09,1.03,.87,.64,1.48,.18,1.76-1.34,2.58-3.17,2.83-5.33,.8-1.24,.78-2.48,0-3.72-.36-1.78-.72-3.56-1.08-5.33,.54-1.05,.05-1.48-.93-1.61-.05-.13-.11-.26-.16-.38,.26-.07,.57-.21,.48-.5-.05-.17-.41-.24-.63-.36h0Zm1.61,17.55c-.34,.67-1.09,.74-1.63,1.11-1.11,.76-1.38,1.68-1.06,2.97,.23,.91,.71,1.24,1.56,1.19,.88-.06,.83-.74,.81-1.35-.04-1.32,.26-2.56,.68-3.79,.55-.78,1.11-1.56,1.66-2.34,.65-.44,1.27-.96,1.97-1.3,.79-.39,.81-.88,.63-1.66-.78-3.33-1.28-6.7-1-10.15,.07-.9-.1-1.78-.57-2.56-1.42-2.34-1.48-4.77,.02-6.99,2.06-3.07,1.74-5.9-.25-8.78-.93-1.34-1.17-2.85-.97-4.45,.03-.17,.06-.33,.09-.5-.04-.81,.14-1.57,.44-2.3,.31-.12,.88-.12,.6-.65-.19-.35-.64-.28-.94,.06l-1.52,.6c-.27,.01-.42,.16-.47,.42-.51,1.3-.58,2.55-.08,3.93,1.19,3.23,1.53,6.67,1.23,10.05-.17,1.9-.31,3.99-1.49,5.69-1.27,.84-1.27,1.45-.04,2.37,.12,.25,.24,.51,.36,.76,.08,.17,.16,.33,.24,.5,.24,.78,.53,1.54,.73,2.33,1,4.11,1.95,8.24,.28,12.42-.75,.62-1.04,1.51-1.31,2.41Zm4.57-72.03c.43-1.16,.18-1.54-1.05-1.09-2.89,1.06-5.71,2.34-8.66,3.25-.72,.22-2.55-.15-2.42,1.72,.15,.45,.27,.9,0,1.35-1,2.33-.04,4.43,.72,6.55-.15,.42-.08,.81,.1,1.2-.05,.52-.28,1.13,.36,1.41,.41,.18,.73-.14,.93-.52,3.95-.9,7.65-2.59,11.48-3.87,1.52-.04,2.06-.64,1.3-2.17-.26-.52-.13-1.25-.41-1.75-.9-1.61-.76-3.66-2.08-5.09-.09-.33-.18-.66-.28-.99Zm-4.52,45.43c.58-1.36,.55-2.73,.04-4.11-.19-1.19-.37-2.38-.56-3.58,.12-.68-.22-.91-.82-.87-.33-.08-.7-.16-.84,.27-.63,1.98-1.65,3.68-3.21,5.04-.36,.31-.72,.68-.32,1.21,1.52,2,2.75,4.18,3.63,6.52,1.93-1.14,1.5-3.03,2.09-4.48Zm24.42-25.5c-.91,1.96-1.98,3.77-3.64,5.25-1.74,1.55-3.2,3.28-2.66,6.13,.61,3.21-.36,6.27-1.82,9.16-.42,.83-.56,1.81,.27,2.42,.97,.72,1.52-.19,2.13-.82,3.1-3.22,4.92-7.15,6.14-11.42,1.43-1.3,.76-2.98,.78-4.53,0-1.75-.02-3.51-.03-5.26-.05-1.34-.11-1.39-1.17-.92Zm.49,34.13c.54-.04,.74-.35,.69-.88,.19-.43,.38-.87,.57-1.3,.11-.04,.23-.09,.34-.13-.09-.05-.18-.1-.27-.15-.07-.45-.01-.87,.24-1.26,.32-.2,.37-.51,.32-.86,.09-.82,.19-1.65,.28-2.47,.01-.19,.03-.38,.04-.58-.13-2.46-.26-4.91-.39-7.37-.09-.2-.17-.41-.26-.61-.09-.18-.21-.35-.27-.54-.19-.62-.07-1.49-.93-1.62-.92-.14-.94,.75-1.24,1.32-.96,1.78-1.87,3.59-3.48,4.88-2.21,1.79-2.6,3.88-1.99,6.79,.93,4.43,.95,8.9-2.92,12.38-1.27,1.15-.08,2.74,.59,3.67,.64,.89,1.51-.35,2.19-.85,.26-.19,.41-.53,.62-.8,2.36-2.95,4.32-6.16,5.86-9.63Zm-81.93-29.99c.42-.58,.9-1.12,1.25-1.74,.26-.45,.59-1.05,.23-1.53-.4-.54-.95-.19-1.45,0-2.4,.96-4.81,1.89-7.22,2.83-2.32,1.1-4.72,2.06-6.93,3.34-2.64,1.53-5.32,3.1-6.79,6.06-1.06,2.14-.65,3.55,1.58,4.3,5.68,1.9,11.31,1.03,16.87-.67,.94-.29,.89-.89,.2-1.46-.81-.68-1.7-1.29-2.47-2.01-1.78-1.67-1.77-2.81,.43-3.81,2.41-1.09,3.32-3.15,4.29-5.3Zm-1.42,70.96c1.16,.78,2.46,.25,3.68,.43,7.34,1.11,14.64,.2,21.93-.5,.82-.08,1.72-.13,2.35-.84-2.68-1.74-5.6-3.18-7.97-5.29-2.07-1.85-4.16-2.23-6.59-1.8-1.77,.31-3.56,.5-5.33,.77-7.45,1.16-14.83,1.32-22.15-.89-1.04-.31-2.17-.52-3.43,.3,3.96,2.17,7.74,4.13,11.7,5.7,.19,.55,.6,.55,1.05,.41,1.4,.46,2.8,.93,4.2,1.39,.09,.29,.29,.37,.56,.29Zm40.72-80.87c-.44,5.08,1.02,10.31,3.98,15.15,.59,.97,.9,2.21,1.7,2.91,.74,.65,.88,2.41,1.89,2,.93-.38,.89-1.98,1.12-3.1,1.24-5.91,.61-11.81,.12-17.73-.31-3.72-1.01-7.45-.25-11.22,.25-1.24,.8-2.37,2.03-1.89,2.44,.96,4.11-1,6.19-1.31,.63-.1,.64-.68,.3-1.1-2.41-3.02-7.4-4.56-10.54-2.46-2.63,1.75-3.84,4.43-4.99,7.09-1.5,3.46-1.7,7.25-1.56,11.67Zm-5.69,64.7c-.72-.76-1.5-1.08-2.33-1.3-8.35-2.23-16.64-1.65-24.9,.56-4.7,1.26-9.1,3.37-13.7,4.92-1.92,.65-3.76,1.52-6.18,2.51,2.95,.95,5.36,1.14,7.8,1.33,6.26,.48,12.41-.32,18.42-1.91,4.23-1.12,8.46-2.21,12.67-3.4,2.7-.76,5.54-1.24,8.21-2.7Zm2.89-41.59c-1.38,3.27-2.13,6.55-2.72,9.71-1.21,6.43-1.48,13.03-.96,19.6,.27,3.38,.89,6.69,2.62,9.68,.39,.68,.76,1.25,1.66,1.23,.97-.03,1.15-.8,1.42-1.47,.21-.5,.3-1.04,.47-1.55,.93-2.76,.64-5.68,1.15-8.5,.79-4.34-.02-8.86,1.54-13.12,.28-.76,.28-1.68-.22-2.56-2.25-3.98-3.39-8.4-4.97-13.02Zm-16.95-25.13c1.29-.4,2.78-.79,4.2-1.35,.62-.24,.7-.84,0-1.2-3.21-1.63-6.57-2.35-10.06-1.19-5.74,1.91-8.45,6.75-10.32,12.06-1.09,3.11-2.44,5.95-4.4,8.55-.61,.81-2.33,1.26-1.72,2.41,.68,1.27,2.3,.45,3.52,.51,.26,.01,.53-.06,.78-.16,5.65-2.31,9.69-6.19,11.51-12.27,.37-1.24,.71-2.49,1.17-3.69,.98-2.54,2.7-3.73,5.33-3.67Zm52.56,59.48c.36-2.19-.1-4.57-.94-6.64-1.61-3.96-3.75-7.69-5.59-11.56-.6-1.26-1.02-1.24-1.98-.31-1.13,1.1-1.33,2.43-1.48,3.84-.54,5,.87,9.63,2.51,14.24,.99,2.8,2.19,5.58,1.96,8.69-.04,.54-.68,1.24,.09,1.65,.72,.38,1.45,.09,2.04-.41,.51-.43,.99-.9,1.4-1.43,1.81-2.32,2.14-5.05,1.98-8.07Zm1.72-18.82c-.12-4.16-.75-8.02-3.43-11.57-1.96-2.6-3.96-5.24-5.64-8.08-.3-.51-.61-.92-1.22-.88-.74,.05-.65,.74-.83,1.22-1.27,3.41-.62,6.85,.48,10.03,1.82,5.26,4.47,10.18,6.93,15.17,.29,.59,.33,1.41,1.24,1.35,.85-.06,1.25-.78,1.53-1.44,.8-1.83,1.14-3.77,.93-5.79Zm-.82-20.45c.24-3.19-.21-6.27-1.59-9.15-1.61-3.37-3.32-6.68-5.01-10.01-.46-.9-1.04-.88-1.38,.05-.49,1.33-.78,2.74-1.26,4.08-1.61,4.52-1.28,8.91,1.15,12.98,1.61,2.71,3.94,4.92,5.43,7.75,.12,.24,.27,.49,.46,.66,.64,.55,1.13,1.04,1.64-.3,.76-2.01,.48-4.04,.56-6.06Zm-14.45-17.32c.29-1.4-.43-1.51-1.46-1.15-1.51,.52-2.98,1.18-4.51,1.59-1.63,.43-2.13,1.16-1.98,3.01,.47,5.82,.55,11.65-2.24,17.06-.35,.68-.45,1.63,.12,2.12,.73,.62,.97,1.43,1.31,2.2,.54,1.21,.91,1.13,1.71,.1,2.75-3.57,3.57-7.98,4.87-12.09,1.3-4.09,1.83-8.49,2.19-12.83Zm-16.92,60.35c.04,.62-.19,1.58,.65,2.04,.77,.42,1.32-.35,1.95-.7,2.34-1.33,3.22-3.9,4.81-5.86,1.19-1.47,1.48-3.1,.42-4.72-1.49-2.28-2.31-4.87-3.52-7.29-.25-.5-.22-1.4-1.02-1.31-.64,.07-.57,.86-.67,1.35-1.15,5.38-2.12,10.8-2.62,16.49Zm40.28-64.79c0-1.65-.05-2.88,.01-4.1,.06-1.14-.42-1.63-1.4-1.13-1.09,.56-2.25,.82-3.38,1.22-1.05,.38-1.59,.93-1.27,2.28,.52,2.18,1.12,4.38,.87,6.67-.21,1.92-.35,4.23-1.92,5.2-2.1,1.3-1.67,2.55-.96,4.23,.39,.91,.91,1,1.49,.33,1.39-1.62,2.86-3.21,4.05-4.99,2.03-3.03,2.81-6.46,2.51-9.72Zm-54.01,64.56c1.05-.02,2.06-.21,3.02-.76,.87-.51,1.67-.95,1.26-2.16-.47-1.37-.59-2.8-.61-4.22-.02-1.38-.88-1.54-1.71-1.06-2.62,1.49-5.09,3.2-6.21,6.27-.4,1.08-.18,1.68,1.08,1.7,1.06,.01,2.11,.15,3.17,.24Zm33.68-55.83c-1.31,.64-2.22,1.04-2.42,2.55-.26,2.01-.83,3.98-1.25,5.97-.09,.44-.34,.97,.37,1.12,1.45,.31,3.59-1.57,3.35-3.05-.33-2.09-.34-4.17-.05-6.6Zm-3.33,55.08c-.14,1.38,.17,1.75,1.31,1.15,1.12-.58,2.32-1.01,3.49-1.48,.31-.13,.8-.25,.67-.59-.46-1.15-.77-2.64-1.65-3.28-1.1-.8-1.96,.77-2.72,1.44-.76,.66-1.15,1.82-1.11,2.75Zm-7.71-2.92c-.61,1.24-1.13,2.31-2.09,3.08-.48,.39-.61,1-.03,1.37,.95,.6,1.94,1.28,3.09,1.26,.97-.01,1.91-.78,1.27-1.69-.86-1.21-.84-2.85-2.23-4.02Zm10.89-18.37c.65-.83,1.05-1.73,1.73-2.14,1.34-.79,.94-1.6,.24-2.43-.27-.32-.49-.6-.62-.99-.12-.35-.06-.91-.6-.89-.56,.02-.72,.56-.82,1.02-.35,1.72-.73,3.45,.07,5.44Zm-1.06-37.09c.17,.34-.61,1.34,.16,1.55,.81,.22,1.24-.73,1.6-1.48,.54-1.13,.5-2.47,1.48-3.49,.59-.61-.1-.89-.73-.81-2.34,.3-2.49,2.09-2.51,4.22Zm2.21,13.83c-2.21,1.27-2.87,3.21-1.62,5.52-.42-2.37,1.61-3.5,1.62-5.52Zm-19.33,27.28c.7-.89,.65-1.85,.29-2.82-.1-.27-.47-.29-.65-.03-.62,.91-.23,1.8,.14,2.68,.02,.05,.1,.08,.22,.18Z"/>
  <path class="cls-7" d="M161.9,107.54c-.29-.23-.59-.41-.97-.28-1.08-.79-2.25-1.39-3.48-1.92-5.31-2.33-10.7-4.38-16.17-6.28-5.53-1.92-11.16-3.43-16.86-4.62-4.94-1.03-9.96-1.73-15.02-2.03-4.4-.26-8.77-.61-13.16,.14-.99,.17-1.52,.41-1.16,1.52-.34,.09-.8,.09-.83-.29-.28-3.39-1.38-6.59-1.95-9.91-.01-.06,.27-.18,.42-.27,.18,.74,.66,.9,1.35,.8,2.02-.28,4.05-.52,6.07-.78,2.27,0,4.55,0,6.82,.01,1.49,.45,3.01,.39,4.53,.33,.31,.48,.81,.4,1.27,.42,8.22,.46,16.21,2.23,24.11,4.47,12.34,3.49,24.13,8.42,35.91,14.55-3.47,1.69-7,2.46-10.05,4.31-.28-.05-.56-.1-.83-.15Z"/>
  <path class="cls-5" d="M263.38,84.43c-2.68,.88-5.36,1.77-8.04,2.65-.22-.09-.34,0-.39,.22h0c-.15,0-.3,0-.46-.01-.91-.43-1.81,0-2.72,0-.69,0-1.54,.24-1.63-.95-.07-1.01,.25-1.4,1.31-1.54,2.04-.27,3.1-2.68,5.3-2.74-.24-2,1.7-2.03,2.55-3.04,1.44-1.7,2.85-3.3,5.14-3.73,.51-.1,.45-.59,.41-1,.26-.18,.51-.42,.8-.53,3.97-1.45,7.97-2.81,11.9-4.36,2.24-.88,4.68-1.23,6.74-2.6,.77-.24,1.55-.48,2.32-.72,3.05-1.08,6.09-2.17,9.14-3.25,3.3-1.17,6.59-2.34,9.9-3.47,.65-.22,.86-.56,.61-1.2,0-.41,.01-.81,.02-1.22,1.38-.48,2.69-1.21,4.18-1.33,2.43,2.84,4.08,6.14,5.45,9.62-1.95,1.37-4.42,1.44-6.42,2.7-.43-.09-.82-.08-1.08,.37-2.12,.55-4.2,1.22-6.16,2.21-.71,.25-1.53,.15-2.14,.72-2.23,.77-4.47,1.54-6.7,2.31-.14,.07-.27,.13-.41,.2-.12,.06-.24,.11-.36,.17-.34-.07-.58,.12-.78,.37-.27,.08-.55,.17-.82,.25-.65-.18-1.15,.1-1.59,.55-.28,.09-.57,.17-.85,.26-.9,.31-1.8,.61-2.7,.92l-.06,.03c-.45,.03-.82,.23-1.12,.57-.3,.09-.6,.18-.9,.26-.79,.22-1.64,.25-2.34,.76-3.1,1.13-6.2,2.27-9.29,3.4-.32-.06-.64-.12-.8,.28-.53,.18-1.07,.37-1.6,.55-.47-.06-.79,.2-1.06,.55-.16,.03-.32,.05-.48,.08-.15,.01-.31,.03-.46,.04-.67,.27-1.35,.54-2.02,.82-.88,.03-1.69,.28-2.41,.82Z"/>
  <path class="cls-15" d="M273.8,51.19c.04,.45,.16,.87,.5,1.19,.05,.99-.78,.87-1.34,1.1-.65,0-1.31-.01-1.96-.02-.14,0-.27,0-.41,0-2.71-.71-1.86,1.35-1.98,2.66-1.19,1-.95,2.41-1.05,3.73-.06,.53-.11,1.07-.17,1.6-.39,.78-.88,1.54-.7,2.49-.04,.26-.08,.53-.11,.79-.36,.5-.73,1-.64,1.68-.08,.35-.16,.7-.24,1.04-1.53,1.89-2.57,4.07-3.68,6.22-.8,.85-1.63,1.68-2.4,2.57-2.63,3.01-5.91,5.15-9.19,7.29-.76,.5-1.18,.27-1.55-.51-.91-1.94,.74-2.24,1.75-2.96,.96-.59,2.03-1.05,2.84-1.81,1.92-1.8,4.23-3.24,5.45-5.74,.11-.03,.16-.1,.15-.22,.4-.21,.69-.5,.7-1,3.66-4.64,4.5-10.31,5.62-15.89,.32-1.56-.01-2.33-1.76-2.11-1.11,.14-2.26-.03-3.39,.01-1.3,.05-1.78-.3-1.03-1.62,.53-.93,.93-1.94,1.39-2.92,.73,.04,.84-.51,.95-1.05,0,0,.05-.08,.05-.08,.38-.23,.53-.57,.43-1.02,.52-1,1.04-1.99,1.57-2.99,.18-.37,.35-.74,.53-1.11v-.02c1-.08,.99-.94,1.21-1.61,.09-.18,.18-.36,.26-.54,.31-.3,.56-.63,.57-1.09,.11-.13,.21-.27,.32-.4,.5-.03,.75,.34,1.03,.67-.03,.1,0,.18,.09,.23,.59,.93,1.18,1.86,1.77,2.79,.62,1.4,1.24,2.79,1.86,4.19,.33,1,.95,1.8,1.64,2.55,.2,.49,.39,.97,.59,1.46-.07,.27,.06,.4,.3,.45Z"/>
  <path class="cls-10" d="M133.13,178.68l-2.09,.3c-.7-.12-1.37,.04-2.01,.32-3.07,0-6.15,0-9.22,0-.39-.27-.79-.35-1.22-.13-1.68-.6-3.43-.63-5.18-.76-.61-.39-1.31-.38-1.99-.43-.51-.33-1.06-.4-1.64-.31-.36-.28-.78-.3-1.21-.27-5.28-1.57-10.46-3.45-15.62-5.39-.28-.09-.56-.18-.84-.27-.77-.92,.09-1.72,.17-2.58,4.39,2.56,9.09,2.56,13.89,1.83,.21-.05,.41-.09,.62-.14,5.31-2,9.93,0,14.57,2.46,3.76,2,7.69,3.67,11.92,4.41,.35,.38,.15,.68-.14,.96Z"/>
  <path class="cls-17" d="M95.09,94.05c-.36-1.11,.17-1.35,1.16-1.52,4.39-.74,8.76-.39,13.16-.14,5.06,.3,10.08,1,15.02,2.03,5.69,1.19,11.32,2.69,16.86,4.62,5.47,1.9,10.87,3.95,16.17,6.28,1.22,.54,2.4,1.14,3.48,1.92-.41,1.42-.74,2.9-2.58,3.06,.03-.13,.04-.26,.03-.39,.54-.35,1.44-.47,1.36-1.29-.09-.87-1.1-.95-1.7-1.21-6.89-2.99-13.83-5.8-21.03-7.98-10.71-3.25-21.59-5.35-32.77-5.63-3.05-.08-6.1,.15-9.15,.23Z"/>
  <path class="cls-17" d="M92.13,165.74c-.01-.41-.03-.83-.04-1.24,4.08-2.53,8.81-3.77,13.13-6.42-2.3-1.27-4.43-1.54-6.49-1.92-2.01-.38-4.12-.24-6.18-.33-.77-.94-.48-1.52,.64-1.58,1.38-.07,2.77,0,4.15,.02,1.05,.36,2.08,.81,3.22,.39,.94-.26,1.88-.52,2.82-.79,.58,.04,1.14,.02,1.59-.44,2.13,0,4.27,0,6.4,0,.34,.38,.77,.44,1.23,.31,.79,.18,1.58,.36,2.37,.54,.29,.47,.67,.76,1.25,.61,.65,.06,1.31,.13,1.96,.19,.41,.32,.81,.31,1.22,0,.93,0,1.86,0,2.79,0,.92,.4,1.88,.4,2.85,.25,.26,.04,.51,.08,.77,.12,.27,.15,.54,.3,.81,.45-.11,.71,.78,.85,.81,1.48-.27,.03-.54,.07-.81,.1-1.42-.7-2.92-.77-4.45-.59-1.18,0-2.37,0-3.55,0-1.4-.14-2.78-.19-4.05,.58-.65,.08-1.31,.15-1.96,.23-.76-.05-1.46,.08-2.03,.64-.26,.06-.52,.13-.77,.19-.68-.14-1.3-.1-1.73,.57-.38,.13-.76,.26-1.14,.39-.51-.1-.81,.2-1.08,.57-1.76,.01-2.99,1.44-4.61,1.82-.58,0-.99,.34-1.39,.72-.18,.07-.35,.14-.53,.21-.38-.03-.61,.19-.78,.5-.44,0-.87,.02-1.22,.34-1.74,.69-3.47,1.39-5.21,2.08Zm12.01-10.47c1.73,1.95,5.79,2.4,7.71,.97,.19-.14,.43-.42,.42-.62-.02-.41-.41-.47-.75-.48-2.42-.12-4.85-.25-7.38,.14Z"/>
  <path class="cls-17" d="M237.97,166.45c.15,.84,.74,1,1.45,.98-.3,1.24,.58,1.11,1.29,1.14,3.75,.18,7.36-.35,10.65-2.38,.92,.76,1.72,2.45,3.02,.43,.95,3.44-1.1,5.74-3.24,7.65-2.75,2.46-6.09,3.97-9.84,4.26,.03-.53-.21-.88-.67-1.1,.34-.19,.66-.51,1.03-.56,3.02-.48,5.74-1.7,8.14-3.58,1.44-1.13,2.54-2.6,2.72-4.56,.08-.85-.11-1.41-1.1-.79-3.06,1.93-6.51,2.66-9.96,2.26-3.25-.38-5.81,.59-8.19,2.56-3.18,2.62-9.74,1.45-12.05-1.31,.05-.11,.07-.23,.05-.35,1.28-1.35-.64-1.12-.82-1.75,.35-.58,.81-.99,1.5-1.05,.15,.54,.57,.75,1.05,.88-.68,.7-.62,1.32,.24,1.79,2.47,1.35,4.99,2.34,7.81,1.13,2.83-1.21,4.89-3.43,6.93-5.65Z"/>
  <path class="cls-14" d="M266.02,32.33c-1.47,0-2.94,.02-4.41,0-1.67-.02-2.08-.63-1.19-2.09,.91-1.49,2.11-2.8,3.62-3.7,1.49-.88,3.04-1.65,4.54-2.51,1.04-.6,1.44-1.58,1.31-2.77-.13-1.14-.78-1.8-1.84-2.16-2.15-.71-4.28,.12-5.02,2.26-.41,1.18-1.07,1.4-1.95,.98-1.13-.55-.38-1.37,0-2,2.61-4.28,7.9-4.47,10.78-.33,.7,1,.58,2.13-.14,3.34-1.59,2.66-4.58,3.13-6.73,4.89-.2,.17-.56,.17-.71,.36-.39,.51-1.23,.89-.99,1.61,.24,.7,1.05,.35,1.61,.37,1.87,.04,3.74-.02,5.61,.03,.67,.02,1.74-.22,1.76,.8,.03,1.22-1.12,.89-1.84,.92-1.47,.06-2.94,.02-4.4,.02Z"/>
  <path class="cls-15" d="M198.2,113.36c-1.13,.13-1.86,1-2.66,1.64-.97,.77-1.59,.78-2.29-.26-.82-1.21-.21-2,.78-2.44,1.25-.55,2.26-1.38,3.23-2.3,.32-.09,.7-.09,.95-.28,4.49-3.33,8.45-7.26,12.4-11.22,.23-.06,.45-.13,.68-.19,.15,.16,.29,.32,.44,.48-.07,.97-.14,1.94-.21,2.9,0,0,.02,0,.02,0l-5.08,4.96c-2.62,2.12-5.23,4.25-7.85,6.37-.12,.13-.24,.26-.36,.39l-.03-.05Z"/>
  <path class="cls-14" d="M310.48,55.61c-1.49,.12-2.8,.86-4.18,1.33-.33,.04-.68,0-.98,.12-7.9,2.84-15.79,5.72-23.69,8.55-5.12,1.83-10.26,3.59-15.39,5.38-.16-.18-.33-.36-.49-.53,.19-.37,.39-.74,.58-1.11,.37-.03,.73-.06,1.1-.09,.56-.07,1.26,.26,1.58-.55,.31-.33,.7-.35,1.1-.32,1.59-.31,3.19-.61,4.51-1.68,.39-.31,.77-.68,1.33-.43,.78,.1,1.44-.07,1.88-.8,.68-.6,1.57-.54,2.37-.76,.33,.02,.63-.03,.82-.36,.46-.17,.93-.35,1.39-.52,.38,.06,.75,.08,1.01-.3,.48-.17,.95-.34,1.43-.51,.8-.02,1.54-.18,2.18-.7,.32-.32,.69-.53,1.15-.49,.51,.02,1.06,.16,1.27-.55,.4-.4,.87-.45,1.39-.31,.75,.07,1.38-.15,1.82-.8,.37-.13,.75-.26,1.12-.4,.49,.03,.99,.11,1.3-.43,.38-.13,.75-.26,1.13-.39,.37,.03,.69-.05,.87-.42,.53-.13,1.06-.25,1.59-.38,.48,.05,.84-.19,1.14-.54,.36-.12,.71-.23,1.07-.35,.53,.13,.97-.06,1.33-.45,2.28-.88,4.53-1.82,6.84-2.61,1.1-.38,2.11-.29,1.43,1.41Z"/>
  <path class="cls-13" d="M302.28,70.51c1.97-.99,4.05-1.66,6.17-2.21,.44,.12,.85,.15,1.08-.37,1.99-1.26,4.47-1.33,6.42-2.7,.52,.03,1.05,.05,1.57,.08l-.39,1.34c-.31,.24-.65,.34-1.03,.2-.47-.1-.85-.02-.98,.53-.25,.08-.5,.16-.76,.23-.13,.04-.26,.08-.39,.12-.63,.68-1.47,.66-2.28,.75-.45-.1-.83-.04-.99,.48-.29,.29-.64,.37-1.04,.33-.98-.12-1.85,.13-2.57,.83-.23,.13-.46,.25-.69,.38-2.93,.31-5.62,1.37-8.13,2.91-.17,.18-.34,.18-.53,.03-1.38-.03-2.54,.72-3.76,1.19-3.91,1.51-8.04,2.45-11.75,4.51-.38,.12-.77,.25-1.15,.37-.93,.41-2.14,0-2.86,1.02-.32,.39-.73,.56-1.22,.51-.86-.48-1.35,.22-1.93,.63-.55,.23-1.11,.46-1.66,.7-1.84-.04-3.47,.5-4.82,1.81-.27,.04-.55,.09-.82,.13-.64-.52-1.05,.18-1.57,.32-.36,.09-.79,.38-.99-.11-.18-.46,.48-.54,.59-.91,.67-.27,1.35-.54,2.02-.82,.15-.01,.31-.03,.46-.04,.16-.03,.32-.05,.48-.08,.51,.12,.92,.07,1.06-.55,.53-.18,1.07-.37,1.6-.55,.49,.57,.69,.26,.8-.28,3.1-1.13,6.2-2.27,9.29-3.4,.79-.22,1.87,.51,2.34-.76,.3-.09,.6-.18,.9-.26,.57,.2,.98,.1,1.12-.58,0,0,.06-.03,.06-.03,.95-.16,2.14,.42,2.7-.92,.28-.09,.57-.17,.85-.26,.76,.51,1.16-.05,1.59-.55,.27-.08,.55-.17,.82-.25,.53,.47,.67,.1,.78-.37,.12-.06,.24-.11,.36-.17,.14-.07,.27-.13,.41-.2,2.23-.77,4.47-1.54,6.7-2.31,.81,.05,1.66,.25,2.14-.72Z"/>
  <path class="cls-10" d="M92.55,155.84c2.06,.09,4.17-.05,6.18,.33,2.05,.38,4.19,.65,6.49,1.92-4.33,2.65-9.05,3.89-13.13,6.42-.61-.58,.14-1.12,.07-1.71-.05-.46-.71-1.16,.06-1.41,.81-.26,.54,.71,.81,1.09,.53,.75,1.08,.22,1.55-.08,.39-.25,.52-.84,.08-.99-2.51-.88-1.81-3.12-2.09-4.95-.03-.2-.01-.41-.01-.61Z"/>
  <path class="cls-13" d="M109.78,177.66c.58-.09,1.13-.02,1.64,.31,.28,.32,.57,.63,.85,.95-.33,.06-.69,.07-.88,.43-1-.11-1.99-.21-2.99-.32-1.58,.17-3.23,.07-4.63,1.07-.93,.19-1.85,.38-2.78,.57-.4-.02-.81-.05-1.21-.07-.36-.56-.63-.47-.84,.11-1.29,.51-2.67,.14-3.98,.46-.28,0-.56,.02-.83,.02-.84-.24-2.17,.22-1.98-1.47,2.78-.52,5.59-.3,8.39-.47,.43,.62,.67,.39,.83-.19,1.19-.21,2.38-.43,3.57-.64,.28,.43,.61,.46,.92,.07,.1-.12,.15-.41,.08-.52-.32-.49-.8-.23-1.23-.19-3.1-1.04-6.2-2.09-9.3-3.13-.92-.38-1.84-.76-2.77-1.14-.04-.25-.09-.51-.13-.76,.33-.13,.43-.4,.44-.73,5.16,1.94,10.34,3.82,15.62,5.39,.26,.79,.66,.87,1.21,.27Z"/>
  <path class="cls-10" d="M95.4,174.64c3.1,1.04,6.2,2.09,9.31,3.13,.08,.21,.15,.43,.23,.64-1.19,.21-2.38,.43-3.57,.64-.32-.11-.6-.08-.83,.19-2.8,.17-5.61-.05-8.39,.47-.96-2.65-.68-3.24,1.76-3.73,.75-.15,1.39-.44,1.5-1.35Z"/>
  <path class="cls-17" d="M208.55,180.26c.89-.22,1.63,.32,2.43,.52,.66,.17,1.32,.33,1.46-.68,4.28,.48,8.55,.92,12.84,.1,0,.24,0,.49,0,.73-.03,.06-.06,.12-.09,.18,.03-.06,.06-.12,.09-.17,1.08-.13,2.16-.26,3.24-.38-2.2,1.25-4.64,1.52-7.07,1.71-4.44,.35-8.76-.26-12.9-2.01Z"/>
  <path class="cls-14" d="M181,122.18c-1.61,.2-1.9-.56-2.15-1.46-.37-1.31,.69-.97,1.25-1.25,1.23-.63,2.41-1.12,3.4,.39,.53,.81,.79,1.44-.55,1.66-.82,.14-1.6,.54-1.94,.66Z"/>
  <path class="cls-17" d="M132.26,157.11c-1.07,.07-.31,.81-.42,1.22-.4,0-.8-.01-1.19-.02-.21-.29-.49-.39-.83-.31-.14-.14-.27-.28-.41-.42,.3-.62,.68-1.23,.5-1.95-.65-.25-.99,1.1-1.69,.24l.8-.83c.57-.02,1.11-.14,1.58-.51,.45,.06,.89,.09,1.24-.29,.92-.18,1.85-.36,2.77-.53,.41,.05,.83,.1,1.24,.15,0,.41,0,.81-.01,1.22-.97,.23-1.93,.46-2.9,.69-.71,.18-1.34,.41-.68,1.33Z"/>
  <path class="cls-17" d="M149.48,157.53c-.31-.02-.62-.04-.92-.06-.16-1.23-1.11-1.38-2.04-1.5-1.19-.16-2.36-.36-3.46-.88,0-.4,0-.8,0-1.19,.53,0,1.07-.01,1.6-.02,.8,.14,1.61,.27,2.41,.41,.19,.33,.47,.42,.82,.33,.53,.17,1.05,.33,1.58,.5,.17,.4,.51,.33,.83,.32,.13,.17,.26,.33,.4,.5-.05,.82-.02,1.7-1.22,1.6Z"/>
  <path class="cls-16" d="M177.99,180.38c1.85-.75,3.68,.05,5.5,.16,3.34,.19,6.63-.8,9.96-.24-5.15,.85-10.3,1.15-15.46,.08Z"/>
  <path class="cls-17" d="M160.29,156.89c.39-.02,.83-.18,1.17-.04,2.79,1.1,5.42,.25,8.06-.59-.02,.11,0,.21,.05,.3,0,.34-.02,.68-.02,1.02,0,0,.02-.05,.02-.04-.06,.05-.12,.08-.2,.1-.21-.03-.42-.06-.63-.09-.27-.44-.54-.48-.81,0h.01c-1.31,.42-2.66,.41-4.09,.42,.31,.63,1.28,.28,1.28,1.12-1.27,.09-2.43-.43-3.63-.72,.05-.3,1.22-.82-.15-.86-.47-.01-.93-.02-1.06-.62Z"/>
  <path class="cls-17" d="M282.21,79.15c3.71-2.06,7.84-3,11.75-4.51,1.22-.47,2.38-1.23,3.76-1.19-3.45,1.98-7.33,2.78-10.98,4.23-1.46,.58-2.89,1.43-4.53,1.48Z"/>
  <path class="cls-17" d="M188.18,119.17c-.71-.59-1.71-1.31-1.63-2.17,.08-.91,1.43-1.26,2.18-1.29,.86-.04,1.3,1.15,1.28,1.96-.03,.9-.98,1.15-1.82,1.5Z"/>
  <path class="cls-15" d="M160.29,156.89c.13,.61,.6,.61,1.06,.62,1.37,.04,.2,.55,.15,.86-.93-.05-1.86-.1-2.78-.15-1.61-1.06-3.23-1.04-4.85-.02-1.47,.07-2.93,.15-4.4,.22,0-.3,0-.6,0-.9,1.2,.1,1.17-.78,1.22-1.6,.16,0,.32,0,.48-.01,.12,.08,.23,.17,.35,.25,0,0-.06,.17-.06,.17,.06,.36,.25,.71,.59,.71,2.47-.04,4.97,.39,7.42-.23l.81,.07Z"/>
  <path class="cls-16" d="M117.93,180.32c1.78-.58,3.52,.21,5.28,.17,2.68-.07,5.37-.15,8.05-.22-4.44,1.11-8.89,1-13.34,.05Z"/>
  <path class="cls-9" d="M182.53,155.76c-.45,.04-.91,.08-1.36,.13-3.91-.63-7.76-.1-11.59,.68-.05-.1-.07-.2-.05-.31,4.29-1.34,8.61-1.86,13.01-.5Z"/>
  <path class="cls-16" d="M260.23,132.59c.61-3.7,.2-7.37-.28-11.04,1.44,2.82,1.48,5.85,1.24,8.92-.07,.85-.22,1.61-.96,2.12Z"/>
  <path class="cls-14" d="M100.15,83.6c-2.03,.26-4.05,.49-6.07,.78-.69,.1-1.17-.06-1.35-.8,.36-1.63,1.75-.57,2.56-1.03,.51,.05,1.01,.11,1.52,.16,.96,.91,2.38,.05,3.35,.89Z"/>
  <path class="cls-15" d="M143.05,153.89c0,.4,0,.8,0,1.19-2.41,0-4.81,0-7.22,0,0-.41,0-.81,.01-1.22,.26-.03,.52-.05,.78-.08,.49,.6,.91,.59,1.25-.15,.78-.29,1.57-.25,2.36-.04,.47,.88,1.03,.77,1.65,.18,.39,.04,.78,.08,1.17,.12Z"/>
  <path class="cls-17" d="M265.78,83.61c-.11,.38-.78,.46-.59,.91,.2,.49,.63,.2,.99,.11,.52-.13,.93-.84,1.57-.32-2.45,1.13-4.92,2.21-7.6,2.66,1.06-.45,2.13-.88,3.17-1.36,.71-.33,1.33-.73,.05-1.18,.72-.54,1.52-.79,2.41-.82Z"/>
  <path class="cls-11" d="M107.81,82.26c-2.97,.14-5.93,.19-8.9-.03,1.76-1.16,3.71-.46,5.56-.51,1.09-.03,2.39-.64,3.34,.54Z"/>
  <path class="cls-17" d="M228.51,180.56c2.65-2.87,6-1.4,9.09-1.54-.37,.37-.85,.32-1.3,.32-2.66,0-5.37-.39-7.79,1.22Z"/>
  <path class="cls-16" d="M146.82,180.29c2.97-.27,5.95-.26,8.93,0-2.97,.65-5.95,.64-8.93,0Z"/>
  <path class="cls-17" d="M159.48,156.82c-2.46,.63-4.95,.2-7.42,.23-.35,0-.54-.35-.59-.71,2.64,.75,5.37-.11,8.02,.47Z"/>
  <path class="cls-10" d="M92.13,165.74c1.74-.69,3.47-1.39,5.21-2.08-.51,1.82-2.33,1.67-3.56,2.32-.89,.48-1.21,.82-.83,1.74-.24,.04-.48,.08-.72,.12-.64-.67-.4-1.38-.1-2.09Z"/>
  <path class="cls-17" d="M298.25,73.42c2.52-1.54,5.2-2.59,8.13-2.91-2.68,1.07-5.34,2.18-8.13,2.91Z"/>
  <path class="cls-17" d="M256.32,161.13c.38-1.96,.14-4.14,1.84-5.65-.1,2.06-.82,3.9-1.84,5.65Z"/>
  <path class="cls-9" d="M259.02,101.69c-.8-2.2-.75-4.39,0-6.59,0,2.2,0,4.39,0,6.59Z"/>
  <path class="cls-16" d="M163.13,179.26c.41-.57,1.44-.71,1.15-1.76-.06-.44-.11-.88-.17-1.31,1.98-.37,1.05,1.66,1.82,2.3-.9,.4-1.8,.78-2.8,.78Z"/>
  <path class="cls-16" d="M196.4,180.14c1.48-.61,3-.97,4.6-.74-1.47,.69-3.01,.9-4.6,.74Z"/>
  <path class="cls-17" d="M268.58,84.18c1.35-1.31,2.98-1.85,4.82-1.81-1.61,.6-3.21,1.2-4.82,1.81Z"/>
  <path class="cls-9" d="M196.45,157.63c-1.25,1.47-2.81,.51-4.23,.57,1.33-.82,2.86-.09,4.23-.57Z"/>
  <path class="cls-17" d="M274.62,66.7c-1.32,1.08-2.92,1.37-4.51,1.68,1.36-.97,2.95-1.27,4.51-1.68Z"/>
  <path class="cls-16" d="M167.74,177.76c1.69,0,3.14,.77,4.6,1.53-1.69-.02-3.12-.85-4.6-1.53Z"/>
  <path class="cls-16" d="M103.77,180.09c1.4-1,3.04-.9,4.63-1.07-1.51,.51-2.99,1.16-4.63,1.07Z"/>
  <path class="cls-16" d="M111.39,179.34c.2-.35,.55-.36,.88-.43,0,0,.18,.03,.18,.03,.98,.39,1.97,.79,2.95,1.18-1.4,.1-2.72-.28-4.01-.78Z"/>
  <path class="cls-16" d="M140.06,179.41c1.35-.23,2.6,.14,3.81,.7-1.34,.18-2.61-.04-3.81-.7Z"/>
  <path class="cls-17" d="M258.47,153.39c-.43-1.35,.14-2.56,.56-3.78,.16,1.31,.01,2.58-.56,3.78Z"/>
  <path class="cls-12" d="M269.4,42.55c-.59-.93-1.18-1.86-1.77-2.79,1.66,.21,1.78,1.46,1.77,2.79Z"/>
  <path class="cls-12" d="M100.56,154.67c-1.14,.42-2.17-.03-3.22-.39,1.19-.91,2.2-.18,3.22,.39Z"/>
  <path class="cls-12" d="M125.05,155.35c-.97,.15-1.92,.15-2.85-.25,1.01-.6,1.98-.81,2.85,.25Z"/>
  <path class="cls-12" d="M129.03,155.05l-.8,.83c-.53,.01-1.06,.02-1.6,.03-.27-.15-.54-.3-.81-.45,1.08-.05,2.09-.67,3.21-.41Z"/>
  <path class="cls-12" d="M143.05,153.89c-.39-.04-.78-.08-1.17-.12-.03-.11-.04-.23-.03-.35,1.03-.52,2.05-.95,2.8,.45-.53,0-1.07,.01-1.6,.02Z"/>
  <path class="cls-12" d="M272.91,49.28c-.7-.75-1.31-1.56-1.64-2.55,1.71,.07,1.44,1.47,1.64,2.55Z"/>
  <path class="cls-12" d="M272.96,53.48c.56-.23,1.38-.11,1.34-1.1,.77,.14,.88,.67,.45,1.16-.53,.62-1.22,.81-1.79-.06Z"/>
  <path class="cls-17" d="M278.2,80.54c.72-1.03,1.93-.61,2.86-1.02-.72,1.02-1.89,.74-2.86,1.02Z"/>
  <path class="cls-17" d="M258.97,141.93c-.53-.71-.97-1.45-.59-2.4,.34,.76,.81,1.49,.59,2.4Z"/>
  <path class="cls-11" d="M124.21,84.31c-.95,.29-1.77-.47-2.71-.34-.07-.1-.1-.22-.09-.34,1.12-.6,1.96,.02,2.8,.68Z"/>
  <path class="cls-17" d="M307.08,70.13c.73-.7,1.6-.95,2.57-.83-.82,.41-1.6,.94-2.57,.83Z"/>
  <path class="cls-9" d="M186.14,156.58c-.92,0-1.8-.19-2.58-.74,.97-.17,1.85,0,2.58,.74Z"/>
  <path class="cls-16" d="M173.3,179.47c.86-.17,1.6,.09,2.25,.66-.87,.2-1.6-.07-2.25-.66Z"/>
  <path class="cls-12" d="M265.36,40.89c-.23,.67-.22,1.53-1.2,1.61-.05-.89-.03-1.73,1.2-1.61Z"/>
  <path class="cls-12" d="M136.63,153.79c-.26,.03-.52,.05-.78,.08-.41-.05-.83-.1-1.24-.15,.55-1.08,1.27-.86,2.04-.28,.03,.12,.02,.23-.02,.34Z"/>
  <path class="cls-17" d="M275.06,81.68c.58-.41,1.07-1.11,1.93-.63-.58,.41-1.17,.78-1.93,.63Z"/>
  <path class="cls-17" d="M317.11,66.65l.39-1.34c.75,.72,.68,1.18-.39,1.34Z"/>
  <path class="cls-14" d="M121.41,83.63c0,.13,.02,.24,.09,.34-1.22-.15-2.54,.53-3.66-.46,.27-.06,.55-.11,.82-.17,.92,.09,1.83,.19,2.75,.28Z"/>
  <path class="cls-17" d="M287.04,62.31c-.64,.52-1.39,.69-2.18,.7,.63-.55,1.35-.8,2.18-.7Z"/>
  <path class="cls-16" d="M134.6,179.79c.47-.77,1.16-.47,1.81-.4-.52,.53-1.15,.54-1.81,.4Z"/>
  <path class="cls-17" d="M292.66,60.16c-.44,.66-1.07,.88-1.82,.8,.57-.35,1.07-.87,1.82-.8Z"/>
  <path class="cls-16" d="M204.28,178.97c.63-.14,1.26-.27,1.75,.33-.62,.08-1.25,.24-1.75-.33Z"/>
  <path class="cls-16" d="M160.31,179.72c.34-.52,.67-1.08,1.27-.25-.36,.41-.8,.42-1.27,.25Z"/>
  <path class="cls-12" d="M267.54,39.53c-.27-.33-.53-.7-1.03-.67,.05-.42,.16-.87,.68-.65,.58,.25,.64,.76,.35,1.31Z"/>
  <path class="cls-11" d="M96.8,82.71c-.51-.05-1.01-.11-1.52-.16,.5-.62,1.04-.73,1.65-.17,.01,.14-.03,.24-.13,.33Z"/>
  <path class="cls-17" d="M277.83,65.47c-.44,.73-1.1,.9-1.88,.8,.54-.48,1.2-.66,1.88-.8Z"/>
  <path class="cls-11" d="M127.34,84.89c-.47-.04-.94-.07-1.41-.11-.29-.07-.58-.14-.87-.21-.07-.06-.07-.13-.01-.2,.9-.44,1.66-.26,2.3,.52Z"/>
  <path class="cls-14" d="M138.24,87.76c-.8,.56-1.21,0-1.6-.6,.63-.07,1.1,.31,1.6,.6Z"/>
  <path class="cls-17" d="M141.86,153.43c-.02,.12,0,.23,.03,.35-.62,.59-1.18,.71-1.65-.18,.54-.06,1.08-.11,1.62-.17Z"/>
  <path class="cls-14" d="M141.78,88.77c-.81,.24-1.45,0-1.93-.71,.73,0,1.32,.37,1.93,.71Z"/>
  <path class="cls-12" d="M104.97,153.45c-.45,.45-1.01,.48-1.59,.44,.26-1.17,.86-1.04,1.59-.44Z"/>
  <path class="cls-9" d="M259.07,94.42c-.23-1.19-.25-2.38,.02-3.56,.3,1.19,.34,2.38-.02,3.56Z"/>
  <path class="cls-12" d="M116.23,154.9c-.58,.15-.96-.14-1.25-.61,.83-.7,1.01,.02,1.25,.61Z"/>
  <path class="cls-17" d="M269,68.7c-.32,.81-1.02,.47-1.58,.55,.4-.58,1.03-.43,1.58-.55Z"/>
  <path class="cls-17" d="M259.08,136.86c-.17-.78,.09-1.41,.68-1.91,0,.72-.27,1.34-.68,1.91Z"/>
  <path class="cls-12" d="M112.61,153.76c-.47,.12-.89,.07-1.23-.31,.59-.65,1-.52,1.23,.31Z"/>
  <path class="cls-17" d="M136.63,153.79c.04-.11,.05-.23,.02-.34,.41,.06,.81,.13,1.22,.19-.34,.74-.76,.74-1.25,.15Z"/>
  <path class="cls-3" d="M99.78,180.59c.4,.02,.81,.05,1.21,.07-.25,.81-.66,.91-1.23,.29-.02-.12-.02-.24,.02-.36Z"/>
  <path class="cls-12" d="M131.84,154.26c-.35,.38-.79,.34-1.24,.29,.26-.8,.67-.9,1.24-.29Z"/>
  <path class="cls-14" d="M135.82,86.97c-.47,.48-.87,.47-1.19-.17,.41-.04,.82-.11,1.19,.17Z"/>
  <path class="cls-9" d="M258.96,88.95c-.59-.57-.55-1.01,.25-1.29-.08,.43-.17,.86-.25,1.29Z"/>
  <path class="cls-12" d="M119.41,155.09c-.4,.31-.81,.32-1.22,0,.4-.55,.81-.55,1.22,0Z"/>
  <path class="cls-12" d="M187.2,110.38c.29-.47,.71-.54,1.2-.45-.16,.82-.55,.99-1.2,.45Z"/>
  <path class="cls-11" d="M116.65,83c-.45,.27-.86,.23-1.23-.15,.47-.48,.89-.45,1.23,.15Z"/>
  <path class="cls-12" d="M261.56,47.72c-.11,.55-.22,1.09-.95,1.05-.07-.72-.08-1.38,.95-1.05Z"/>
  <path class="cls-11" d="M111.06,82.51c-.45,.24-.88,.26-1.27-.13,.48-.55,.89-.35,1.27,.13Z"/>
  <path class="cls-16" d="M259.86,121c-.5-.32-.53-.8-.45-1.33,.49,.32,.64,.76,.45,1.33Z"/>
  <path class="cls-17" d="M295.08,59.34c-.31,.54-.81,.46-1.3,.43,.31-.55,.81-.48,1.3-.43Z"/>
  <path class="cls-12" d="M182.3,113.93c.22-.6,.6-.92,1.25-.77-.05,.88-.65,.84-1.25,.77Z"/>
  <path class="cls-17" d="M302.22,56.81c-.36,.4-.8,.58-1.33,.45,.3-.58,.83-.46,1.33-.45Z"/>
  <path class="cls-17" d="M299.82,57.61c-.31,.34-.66,.59-1.14,.54,.27-.42,.63-.66,1.14-.54Z"/>
  <path class="cls-17" d="M289.46,61.27c-.21,.71-.76,.57-1.27,.55,.39-.28,.76-.57,1.27-.55Z"/>
  <path class="cls-17" d="M315.1,67.38c.14-.55,.51-.63,.98-.53-.23,.36-.55,.56-.98,.53Z"/>
  <path class="cls-12" d="M264.15,42.53c-.18,.37-.35,.74-.53,1.11-.28-.6-.16-1,.53-1.11Z"/>
  <path class="cls-12" d="M262.05,46.62c.09,.45-.05,.78-.43,1.02-.29-.54-.14-.87,.43-1.02Z"/>
  <path class="cls-17" d="M310.69,68.97c.16-.52,.54-.58,.99-.48-.27,.29-.55,.56-.99,.48Z"/>
  <path class="cls-12" d="M259.77,71.29c0,.5-.3,.79-.7,1-.15-.61,.09-.94,.7-1Z"/>
  <path class="cls-17" d="M255.78,162.91c-.03-.36,.03-.67,.37-.86,.16,.42,.02,.69-.37,.86Z"/>
  <path class="cls-11" d="M118.67,83.35c-.27,.06-.55,.11-.82,.17-.07-.1-.08-.21-.03-.32,.38-.5,.63-.25,.85,.15Z"/>
  <path class="cls-12" d="M150.3,155.43c-.32,0-.66,.08-.83-.32,.54-.62,.74-.3,.83,.32Z"/>
  <path class="cls-12" d="M147.89,154.62c-.35,.09-.63,0-.82-.33,.55-.6,.73-.26,.82,.33Z"/>
  <path class="cls-12" d="M266.19,39.26c0,.46-.26,.8-.57,1.09-.27-.62-.13-1,.57-1.09Z"/>
  <path class="cls-11" d="M131.9,85.87c-.32,.16-.63,.24-.86-.16,.39-.53,.66-.38,.86,.16Z"/>
  <path class="cls-11" d="M133.9,86.34c-.35,.14-.62,.02-.84-.26,.43-.42,.7-.28,.84,.26Z"/>
  <path class="cls-17" d="M297.08,58.53c-.18,.37-.5,.45-.87,.42,.21-.31,.43-.6,.87-.42Z"/>
  <path class="cls-17" d="M281.01,64.35c-.19,.32-.49,.38-.82,.36,.17-.38,.42-.54,.82-.36Z"/>
  <path class="cls-17" d="M283.42,63.53c-.26,.38-.63,.36-1.01,.3,.24-.45,.61-.41,1.01-.3Z"/>
  <path class="cls-17" d="M92.94,172c-.01,.33-.11,.6-.44,.73-.13,0-.26,0-.39,0,0-.33,0-.66-.01-1,.28,.09,.56,.18,.84,.27Z"/>
  <path class="cls-3" d="M92.11,172.73c.13,0,.26,.01,.39,0,.04,.25,.09,.51,.13,.76-.5-.02-1.13,.05-.52-.76Z"/>
  <path class="cls-3" d="M94.12,181.18c.28,0,.56-.02,.83-.02-.04,.3-.18,.54-.5,.46-.14-.04-.22-.29-.33-.44Z"/>
  <path class="cls-17" d="M99.78,180.59c-.04,.12-.05,.24-.02,.36-.27-.08-.55-.17-.82-.25,.21-.58,.48-.68,.84-.11Z"/>
  <path class="cls-16" d="M158.71,180.09c.28-.39,.64-.4,1.04-.22-.29,.35-.64,.42-1.04,.22Z"/>
  <path class="cls-9" d="M258.69,114.15c-.16-.4-.09-.73,.27-.97,.29,.43,.13,.74-.27,.97Z"/>
  <path class="cls-16" d="M166.3,178.36c.12-.59,.49-.73,1.02-.59-.22,.41-.54,.64-1.02,.59Z"/>
  <path class="cls-17" d="M239.31,178.91c.19-.4,.43-.51,.77-.15-.21,.27-.47,.35-.77,.15Z"/>
  <path class="cls-16" d="M202.83,179.27c.25-.39,.59-.43,.98-.27-.26,.32-.57,.49-.98,.27Z"/>
  <path class="cls-16" d="M258.72,117.74c-.55-.19-.61-.58-.43-1.07,.31,.28,.48,.63,.43,1.07Z"/>
  <path class="cls-9" d="M259.18,104.16c-.32-.43-.29-.9-.11-1.37,.28,.44,.32,.89,.11,1.37Z"/>
  <path class="cls-12" d="M256.58,71.24c-.26-.2-.36-.45-.26-.78,.3,.19,.34,.46,.26,.78Z"/>
  <path class="cls-17" d="M259.11,143.51c-.04-.11-.09-.22-.11-.33-.01-.05,.02-.11,.04-.17,.06,.11,.13,.22,.16,.34,.01,.04-.06,.11-.09,.17Z"/>
  <path class="cls-17" d="M259.18,144.78c-.04-.08-.09-.16-.12-.25,0-.02,.06-.07,.1-.11,.13,.11,.14,.23,.02,.36Z"/>
  <path class="cls-12" d="M192.29,109c.13-.21,.3-.24,.5-.1-.17,.03-.34,.07-.5,.1Z"/>
  <path class="cls-16" d="M156.52,180.23c.23-.01,.47-.03,.7-.04-.22,.22-.45,.25-.7,.04Z"/>
  <path class="cls-9" d="M259.13,110.87c-.14-.21-.13-.41,.05-.59,.16,.21,.13,.41-.05,.59Z"/>
  <path class="cls-12" d="M270.59,53.45c.14,0,.27,0,.41,0-.14,.21-.28,.21-.41,0Z"/>
  <path class="cls-12" d="M151.53,156.17c-.12-.08-.23-.17-.35-.25,.23-.08,.33,.02,.35,.25Z"/>
  <path class="cls-12" d="M183.55,113.17c.14-.13,.28-.25,.43-.38-.03,.26-.17,.39-.43,.38Z"/>
  <path class="cls-9" d="M197.13,155.78c.07,.26-.02,.43-.26,.53-.08-.26,.01-.43,.26-.53Z"/>
  <path class="cls-12" d="M273.8,51.19c-.24-.05-.38-.17-.3-.45,.1,.15,.2,.3,.3,.45Z"/>
  <path class="cls-17" d="M313.96,67.74c.13-.04,.26-.08,.39-.12-.13,.04-.26,.08-.39,.12Z"/>
  <path class="cls-10" d="M149.48,158.43c1.47-.07,2.93-.15,4.4-.22,1.62,0,3.23,.01,4.85,.02,.93,.05,1.86,.1,2.78,.15,1.2,.28,2.36,.8,3.63,.72,.26,.03,.52,.07,.78,.1,.54,.14,1.07,.28,1.61,.42,.57,.52,1.28,.49,1.98,.49,1.21,1.12,3.09,.77,4.33,2.04-16.21,8.46-32.89,9.78-50.1,4.38-.04-.19-.09-.38-.13-.57,3.68-1.19,7.36-2.38,11.05-3.57,.22-.06,.44-.12,.65-.18,2.24-.59,4.47-1.17,6.61-2.08,.14-.02,.28-.05,.42-.07,2.38-.53,4.83-.74,7.14-1.6Z"/>
  <path class="cls-7" d="M230.09,137c.09,.15,.18,.31,.27,.46,.04,.12,.08,.25,.13,.38,0,0,0,0,0,0,.05,.29,.1,.58,.15,.87,.05,.13,.11,.26,.16,.38,.13,.64,.15,1.36,.93,1.61,.36,1.78,.72,3.56,1.08,5.33-.25,1.24-.18,2.48,0,3.72-.25,2.16-1.08,4-2.83,5.33-.61,.47-1.39,.86-1.48-.18-.14-1.51-1.22-2.47-1.65-3.81-1.49-4.71-4.06-8.95-6.26-13.32-2.08-4.12-4.21-8.19-5.71-12.57-1.31-3.84-1.97-7.77-.54-11.77,.23-.64,.43-1.55,1.05-1.6,.44-.03,1.15,.68,1.38,1.23,1.54,3.53,3.73,6.67,5.61,10,1.75,3.09,3.74,6.03,5.51,9.11,.8,1.39,1.32,2.96,1.96,4.44,.08,.13,.17,.27,.25,.4Z"/>
  <path class="cls-7" d="M214.42,97.52c-.14-4.42,.06-8.2,1.56-11.67,1.15-2.66,2.37-5.34,4.99-7.09,3.14-2.1,8.12-.56,10.54,2.46,.34,.43,.33,1.01-.3,1.1-2.08,.31-3.75,2.27-6.19,1.31-1.23-.48-1.78,.65-2.03,1.89-.76,3.77-.06,7.49,.25,11.22,.49,5.92,1.12,11.83-.12,17.73-.24,1.12-.19,2.72-1.12,3.1-1.01,.42-1.15-1.35-1.89-2-.79-.7-1.11-1.95-1.7-2.91-2.96-4.84-4.42-10.07-3.98-15.15Z"/>
  <path class="cls-7" d="M238.95,74.58c1.54-5.29,6.41-6.95,10.61-7.38,1.14-.12,2.18,.48,3.11,1.2,.11,.65,.64,.65,1.11,.75,.37,.72,.74,1.45,1.11,2.17,.13,.19,.26,.39,.39,.58,0,.56,0,1.13,0,1.69-.4,.15-.86,.2-1.11,.63-1.96,.8-4,1.1-6.11,1.04-.15,.15-.29,.29-.44,.44h-.03c-1.33,.99-1.77,2.35-1.91,3.99-.23,2.56,.89,4.66,1.86,6.83,.28,1.08,.55,2.16,.83,3.23-.16,.34-.1,.62,.21,.83,.44,1.06,.09,2.3,.75,3.3,.01,.68,.01,1.37,.82,1.63,.02,.55,.04,1.1,.05,1.66,0,.82,0,1.63,0,2.45,0,1.48-1.2,2.33-1.83,3.46-.39,.7-1.19,.61-1.59-.19-.59-1.2-1.41-2.24-1.92-3.5-1.67-4.1-4.06-7.87-5.18-12.23-.27-1.04-.1-2.2-.77-3.13-.08-.76,.17-1.65-.79-2.05-.01-1.95-.02-3.9-.03-5.85,.99-.1,.76-.92,.88-1.54Z"/>
  <path class="cls-10" d="M164.11,176.19c.06,.44,.11,.88,.17,1.31-3.05,.54-6.11,1.08-9.16,1.62-2.55,.01-5.1,.02-7.65,.03-1.97-.49-3.97-.72-5.99-.69-.23-.23-.5-.33-.82-.22-4.33-1.06-8.66-2.11-12.82-3.76-3.28-1.3-6.51-2.72-9.59-4.48-.61-.35-1.38-.81-1.26-1.68,.1-.73,.97-.59,1.45-.9,1.25-.8,2.39-.56,3.75,.03,5.14,2.22,10.6,3.28,16.13,3.56,4.99,.25,10,.44,15.02,.27,2.25-.08,3.75,1.87,5.73,2.66,1.7,.68,3.31,1.64,5.06,2.26Z"/>
  <path class="cls-10" d="M208.73,162.22c-2.67,1.46-5.51,1.94-8.21,2.7-4.21,1.19-8.44,2.28-12.67,3.4-6.02,1.6-12.16,2.39-18.42,1.91-2.44-.19-4.85-.38-7.8-1.33,2.42-.99,4.26-1.86,6.18-2.51,4.6-1.55,9-3.66,13.7-4.92,8.26-2.21,16.55-2.79,24.9-.56,.83,.22,1.6,.54,2.33,1.3Z"/>
  <path class="cls-10" d="M92.95,167.72c-.39-.92-.07-1.27,.83-1.74,1.23-.65,3.04-.5,3.56-2.32,.35-.32,.78-.34,1.22-.34,.68,.53,.73,.01,.78-.5,.18-.07,.35-.14,.53-.21,.59,.24,1.19,.31,1.81,.1-.14-.27-.28-.55-.43-.82,1.62-.38,2.85-1.81,4.61-1.82,.65,.38,1,.16,1.08-.58,.38-.13,.76-.26,1.14-.39,.64,0,1.37,.3,1.73-.57,.26-.06,.52-.13,.77-.19,.96,.75,1.52,.14,2.03-.64,.65-.08,1.31-.15,1.96-.23,1.47,.65,2.88,.88,4.05-.58,1.18,0,2.37,0,3.55,0,1.39,.95,2.83,1.47,4.45,.59,.27-.03,.54-.07,.81-.1,.66,.07,1.31,.13,1.97,.2,.14,.14,.27,.28,.41,.42,.1,.59,.29,.93,.83,.31,.4,0,.8,.01,1.19,.02,.25,.12,.5,.23,.75,.35,.06,.93,.53,.94,1.17,.54,.15,.03,.31,.06,.46,.08,.02,.39,.04,.77,.05,1.16-1.07,.29-2.14,.57-3.21,.86-.49-.68-.71-.36-.84,.25-.25,.06-.5,.12-.75,.18-1.21-.96-2.13-.48-2.92,.62-.91,.42-2.1,.11-2.76,1.16-.47,.36-.94,.68-1.57,.61-.48-.59-.7-.33-.83,.26-.55,.57-1.23,.7-1.97,.57-.49-.59-.71-.31-.84,.27-.26,.18-.51,.35-.77,.53-1.06-.8-1.7-.45-2.02,.77-.3,.09-.6,.17-.9,.26-1.53-.22-2.87,.1-3.91,1.35-.63,.34-1.29,.5-2.01,.42-.55-.55-.71-.16-.81,.36-.26,.05-.52,.09-.77,.14-.68-.7-1.12-.06-1.61,.3-.39,.05-.79,.11-1.18,.16-.79-.63-1.52-.91-2.03,.32-.93,.19-1.87,.21-2.8-.02-.79-1.43-2.01-.62-3.07-.61-.18-.06-.37-.11-.55-.17-.5-1.31-1.59-1.15-2.63-1.11-.19-.07-.38-.14-.56-.21Z"/>
  <path class="cls-10" d="M167.89,176.29c-3.96-1.57-7.74-3.53-11.7-5.7,1.26-.82,2.4-.62,3.43-.3,7.32,2.2,14.7,2.05,22.15,.89,1.77-.28,3.56-.46,5.33-.77,2.44-.42,4.52-.04,6.59,1.8,2.36,2.1,5.28,3.55,7.97,5.29-.63,.71-1.53,.76-2.35,.84-7.3,.69-14.6,1.6-21.93,.5-1.22-.18-2.53,.35-3.68-.43-.19-.1-.37-.19-.56-.29-1.4-.46-2.8-.93-4.2-1.39-.22-.48-.61-.51-1.05-.41Z"/>
  <path class="cls-7" d="M211.62,120.63c1.57,4.62,2.72,9.04,4.97,13.02,.5,.88,.5,1.8,.22,2.56-1.55,4.26-.75,8.78-1.54,13.12-.51,2.81-.22,5.74-1.15,8.5-.17,.51-.27,1.05-.47,1.55-.28,.67-.45,1.44-1.42,1.47-.9,.03-1.27-.55-1.66-1.23-1.73-2.99-2.35-6.3-2.62-9.68-.52-6.57-.25-13.16,.96-19.6,.59-3.16,1.34-6.44,2.72-9.71Z"/>
  <path class="cls-7" d="M194.66,95.5c-2.63-.07-4.35,1.12-5.33,3.67-.46,1.2-.8,2.45-1.17,3.69-1.81,6.08-5.86,9.97-11.51,12.27-.24,.1-.52,.18-.78,.16-1.21-.06-2.84,.76-3.52-.51-.62-1.15,1.11-1.6,1.72-2.41,1.95-2.6,3.3-5.44,4.4-8.55,1.87-5.32,4.58-10.16,10.32-12.06,3.49-1.16,6.85-.44,10.06,1.19,.71,.36,.63,.96,0,1.2-1.42,.55-2.91,.94-4.2,1.35Z"/>
  <path class="cls-10" d="M225.29,180.2c-4.29,.82-8.56,.38-12.84-.1-3.7-1.34-7.41-2.62-10.86-4.58-2.9-1.65-5.61-3.6-8.32-5.55-.35-.25-.9-.52-.73-1.1,.13-.44,.66-.37,1.02-.49,.19-.07,.4-.08,.58-.16,3.48-1.51,6.42-.93,9.43,1.61,2.52,2.13,5.94,2.26,9.15,2.36,1.44,.04,2.6,.25,3.76,1.31,2.55,2.34,5.75,3.57,8.83,4.98,.4,.19,1.04,.14,1.09,.73,.06,.72-.65,.75-1.1,1Z"/>
  <path class="cls-1" d="M247.22,154.98c.16,3.02-.17,5.75-1.98,8.07-.41,.53-.9,1-1.4,1.43-.59,.5-1.33,.79-2.04,.41-.78-.41-.13-1.11-.09-1.65,.22-3.11-.98-5.89-1.96-8.69-1.63-4.61-3.04-9.24-2.51-14.24,.15-1.41,.35-2.74,1.48-3.84,.96-.93,1.37-.96,1.98,.31,1.84,3.87,3.99,7.6,5.59,11.56,.84,2.07,1.3,4.45,.94,6.64Z"/>
  <path class="cls-5" d="M175.12,107.42c-.97,2.15-1.88,4.21-4.29,5.3-2.21,1-2.21,2.14-.43,3.81,.77,.73,1.66,1.33,2.47,2.01,.69,.58,.75,1.18-.2,1.46-5.56,1.7-11.19,2.57-16.87,.67-2.23-.75-2.65-2.16-1.58-4.3,1.47-2.96,4.15-4.53,6.79-6.06,2.22-1.28,4.62-2.24,6.93-3.34,.24,.12,.48,.24,.73,.36,.05,.06,.11,.11,.16,.17-.02,.11-.05,.21-.09,.3-1.46,.73-2.97,1.37-4.37,2.21-2.6,1.57-5.33,2.98-6.9,5.9-.53,.98-.64,1.4,.31,2.11,2.15,1.61,4.57,1.12,6.93,1.15,.37,0,.85-.16,.77-.71-.08-.55-.58-.46-.95-.47-1-.03-2,.02-2.99-.07-1.02-.09-2.42,.19-2.74-1.12-.27-1.11,.85-1.88,1.56-2.65,.18-.19,.43-.32,.65-.47,4.1-2.94,8.59-5.05,13.29-6.75,.28,.16,.56,.31,.84,.47Z"/>
  <path class="cls-1" d="M248.94,136.16c.21,2.03-.14,3.96-.93,5.79-.29,.67-.68,1.39-1.53,1.44-.9,.06-.94-.76-1.24-1.35-2.46-4.99-5.11-9.91-6.93-15.17-1.1-3.17-1.75-6.61-.48-10.03,.18-.48,.09-1.17,.83-1.22,.61-.04,.92,.38,1.22,.88,1.67,2.84,3.68,5.48,5.64,8.08,2.68,3.55,3.31,7.41,3.43,11.57Z"/>
  <path class="cls-1" d="M258.62,133.7c-.25,.39-.31,.81-.24,1.26-.08,.08-.11,.17-.07,.28-.19,.43-.38,.87-.57,1.3-.51,.06-.8,.31-.69,.88-1.54,3.48-3.5,6.68-5.86,9.63-.21,.26-.36,.61-.62,.8-.68,.5-1.55,1.74-2.19,.85-.67-.93-1.86-2.52-.59-3.67,3.86-3.48,3.85-7.96,2.92-12.38-.61-2.91-.23-5,1.99-6.79,1.6-1.3,2.52-3.11,3.48-4.88,.31-.57,.32-1.46,1.24-1.32,.86,.14,.74,1,.93,1.62,.06,.19,.18,.36,.27,.54,.09,.2,.17,.41,.26,.61,.13,2.46,.26,4.91,.39,7.37-.01,.19-.03,.38-.04,.58-.09,.82-.19,1.65-.28,2.47-.25,.23-.37,.51-.32,.86Z"/>
  <path class="cls-1" d="M248.12,115.71c-.08,2.02,.2,4.06-.56,6.06-.51,1.34-1,.85-1.64,.3-.2-.17-.34-.42-.46-.66-1.49-2.82-3.81-5.04-5.43-7.75-2.43-4.07-2.77-8.46-1.15-12.98,.48-1.34,.78-2.74,1.26-4.08,.34-.93,.92-.95,1.38-.05,1.69,3.33,3.4,6.64,5.01,10.01,1.37,2.87,1.83,5.95,1.59,9.15Z"/>
  <path class="cls-1" d="M251.35,166.2c-3.29,2.03-6.89,2.56-10.65,2.38-.71-.03-1.59,.1-1.29-1.14,.67-.53,1.44-.57,2.26-.58,3.02-.05,5.81-2.43,6.52-5.43,.22-.91,.55-1.8,.84-2.7,.57,.02,1.1-.05,1.1-.81,.01-1.89,0-3.79,0-5.68,0-.76-.49-.86-1.08-.84,3.34-2.55,5.56-6.08,7.94-9.48,.23,.7-.29,1.69,.77,2.06,.03,.97,.06,1.94,.09,2.92-.65,.18-.68,.69-.7,1.26-.06,1.61-.16,3.22-.25,4.83,0,0,0,0,0,0-.28,.22-.37,.5-.27,.84-.39,2.28-1.22,4.47-1.37,6.8-.1,.2-.2,.4-.3,.6-.55,2.17-2.36,3.37-3.63,4.98Z"/>
  <path class="cls-4" d="M221.2,171.45c2.31,2.76,8.87,3.93,12.05,1.31,2.39-1.97,4.94-2.94,8.19-2.56,3.45,.41,6.9-.33,9.96-2.26,.99-.62,1.18-.06,1.1,.79-.17,1.97-1.28,3.44-2.72,4.56-2.4,1.88-5.12,3.1-8.14,3.58-.36,.06-.68,.37-1.03,.56-.16,.04-.32,.08-.48,.12-.3-.23-.58-.22-.84,.07-3.04,0-6.09-.01-9.13-.02-.48-.37-1.04-.49-1.63-.52-.38-.35-.83-.28-1.27-.22-.64-.33-1.25-.73-2-.74-1.51-.49-2.93-1.16-4.12-2.26-.05-.95-.84-.94-1.45-1.17-.01-.54-.03-1.08-.04-1.62,0,0-.01,0-.01,0,.43,.03,.87,.05,1.3,.08l.26,.28Z"/>
  <path class="cls-7" d="M233.67,98.39c-.36,4.35-.89,8.74-2.19,12.83-1.31,4.11-2.12,8.52-4.87,12.09-.8,1.04-1.17,1.11-1.71-.1-.35-.78-.59-1.58-1.31-2.2-.56-.48-.47-1.44-.12-2.12,2.79-5.41,2.71-11.23,2.24-17.06-.15-1.85,.35-2.58,1.98-3.01,1.54-.4,3.01-1.06,4.51-1.59,1.03-.36,1.75-.25,1.46,1.15Z"/>
  <path class="cls-10" d="M221.94,168.3c-.69,.07-1.15,.48-1.5,1.05-.25,.06-.5,.12-.76,.18-.3,0-.46,.13-.43,.45-.27,.52-.37,.97,.39,1.1,0,0,.01,0,.01,0,0,0,.02-.04,.02-.04-.1-.31-.33-.35-.61-.3,.11-.58-.17-.63-.6-.47-3.12,.17-6.24,.47-9.35-.1-2.24-.41-4.35-1.22-6.17-2.65-.84-.66-.97-1.07,.33-1.55,7.81-2.89,15.93-3.67,24.13-3.99,.62-.02,1.6-.44,1.82,.22,.31,.9-.78,1.25-1.33,1.77-.18,.17-.44,.26-.67,.39-1.33,.97-2.65,1.94-3.98,2.92-.43,.34-.86,.69-1.3,1.03Z"/>
  <path class="cls-5" d="M209.6,97.18c-.13,0-.35-.04-.39,.02-1.41,2.27-3.52,3.76-5.53,5.4-.67,.55-1.07,1.24-2.06,1.16-1.08-.09-1.78,.43-2.01,1.54-3.77,1.19-7.58,2.19-11.66,2.99,.72-2.23,1.4-4.19,1.98-6.18,.38-1.3,1.43-1.46,2.44-1.76,1.45-.44,3.09-.46,4.05-1.95,0,0-.02,.01-.02,.01,1.92,.49,3.43-.78,5.06-1.37,2.08-.75,4.32-1.13,6.18-2.47,.66-.13,1.31-.26,1.97-.39-.14,1.1,1.14,1.74,.88,2.88-.3,.04-.6,.08-.9,.11Z"/>
  <path class="cls-4" d="M237.97,166.45c-2.04,2.23-4.1,4.44-6.93,5.65-2.82,1.21-5.34,.22-7.81-1.13-.86-.47-.92-1.08-.24-1.79,0,0,0-.02,0-.02,.14-.13,.29-.25,.43-.38h.02c.92,0,1.55-.67,2.26-1.12,.4-.25,.95-.61,.7-1.23-.05-.12,0,.19,.02,.2,.6,.29,.9-.41,1.42-.45,.41-.04,.71-.32,.8-.77,1.47-1.12,3.01-2.16,4.38-3.39,1.37-1.23,2.99-1.96,4.58-2.75,1.51-.75,2.26-.16,2.33,1.49,.04,.95,.09,1.9,.14,2.84-.25,.57-.5,1.15-.76,1.72-.09,.03-.12,.09-.09,.19-.41,.3-1.07,.25-1.23,.91l-.03,.03Z"/>
  <path class="cls-1" d="M257.73,104.21c0,1.75,.02,3.51,.03,5.26-1.39,1.31-.54,3.02-.78,4.53-1.22,4.27-3.04,8.21-6.14,11.42-.61,.63-1.16,1.54-2.13,.82-.83-.61-.69-1.59-.27-2.42,1.46-2.88,2.43-5.95,1.82-9.16-.54-2.85,.92-4.58,2.66-6.13,1.66-1.48,2.72-3.29,3.64-5.25,.46,.22,.56,.9,1.17,.92Z"/>
  <path class="cls-7" d="M216.75,158.74c.5-5.68,1.46-11.1,2.62-16.49,.1-.48,.03-1.27,.67-1.35,.8-.09,.77,.81,1.02,1.31,1.21,2.41,2.03,5.01,3.52,7.29,1.06,1.62,.77,3.25-.42,4.72-1.59,1.96-2.47,4.53-4.81,5.86-.63,.36-1.18,1.12-1.95,.7-.84-.46-.61-1.42-.65-2.04Z"/>
  <path class="cls-7" d="M200.44,113.52c2.22-1.57,4.31-3.3,6.01-5.47,.34-.08,.68-.15,1.02-.23,1.52,1.95,2.84,4.04,3.92,6.29,.24,.51,.33,.97,.12,1.56-.69,1.91-1.24,3.88-1.99,5.76-.26,.65-.76,1.73-1.74,.75-2.67-2.68-5.93-4.85-7.33-8.66Z"/>
  <path class="cls-7" d="M257.04,93.96c.3,3.26-.48,6.69-2.51,9.72-1.19,1.78-2.65,3.37-4.05,4.99-.58,.67-1.1,.58-1.49-.33-.72-1.68-1.15-2.93,.96-4.23,1.57-.97,1.71-3.28,1.92-5.2,.25-2.29-.35-4.49-.87-6.67-.32-1.35,.21-1.9,1.27-2.28,1.13-.4,2.29-.66,3.38-1.22,.98-.5,1.46-.01,1.4,1.13-.06,1.23-.01,2.46-.01,4.1Z"/>
  <path class="cls-5" d="M236.93,84.35c1.31,1.43,1.17,3.48,2.08,5.09,.28,.5,.15,1.23,.41,1.75,.76,1.53,.22,2.13-1.3,2.17-.1-2.88-.72-3.27-3.44-2.35-1.16,.39-2.05,1.41-3.47,1.28-2.48-.24-4.54,.68-5.98,2.86-.76-2.12-1.72-4.22-.72-6.55,4.14-1.41,8.28-2.83,12.42-4.24Zm.16,3.55c-.25-.56,.06-1.76-1.12-1.42-3.31,.94-6.59,1.99-9.88,3.02-1.03,.33-.62,1.2-.55,1.9,.11,1.12,.83,.79,1.47,.61,3.04-.89,6.08-1.78,9.12-2.68,.65-.19,.97-.68,.96-1.42Z"/>
  <path class="cls-6" d="M203.02,158.52c-1.06-.08-2.11-.23-3.17-.24-1.27-.01-1.48-.62-1.08-1.7,1.13-3.07,3.6-4.78,6.21-6.27,.83-.48,1.69-.32,1.71,1.06,.02,1.43,.14,2.85,.61,4.22,.41,1.21-.38,1.65-1.26,2.16-.96,.55-1.97,.74-3.02,.76Z"/>
  <path class="cls-10" d="M181.17,156.75c.53,.13,1.06,.25,1.59,.38,.23,.29,.53,.23,.82,.14,.77,.63,2.23-.03,2.61,1.63-3.1,.4-6.04,1.36-9.01,2.21-.86,.25-1.75,0-2.5-.43-1.58-.91-3.29-1.37-5.03-1.79-.18-.18-.36-.35-.54-.53,0-.2,.02-.41,.03-.61,.14-.07,.28-.14,.42-.21,0,0-.02,.05-.02,.04,2.66-.31,5.29-.99,8-.91,.14,0,.27,0,.41,0l3.21,.09Z"/>
  <path class="cls-5" d="M262.02,73.66c.71,.02,.44,2.14,1.76,.87,.37-.08,.73-.16,1.1-.23,.04,.41,.1,.91-.41,1-2.29,.43-3.71,2.02-5.14,3.73-.85,1.01-2.79,1.04-2.55,3.04-2.2,.06-3.26,2.47-5.3,2.74-1.06,.14-1.39,.53-1.31,1.54,.09,1.19,.94,.95,1.63,.95,.9,0,1.81-.43,2.72,0-.01,.13-.03,.25-.06,.38-1.56-.33-2.71,1.38-4.31,.91-.12-.4-.48-.39-.79-.46-.13-.55-.26-1.09-.39-1.64-1.01-1.92-1.83-3.88-1.45-6.14,.11,.01,.21,0,.31-.07,.65-.47,1.25-1.05,2.15-.9,.22,.23,.44,.45,.66,.68-1.01,.72-2.66,1.02-1.75,2.96,.37,.78,.79,1.01,1.55,.51,3.28-2.14,6.56-4.28,9.19-7.29,.77-.88,1.6-1.71,2.4-2.57Z"/>
  <path class="cls-10" d="M135.84,155.09c2.41,0,4.81,0,7.22,0,1.1,.52,2.27,.72,3.46,.88,.93,.12,1.88,.27,2.04,1.5-.36,.04-.72,.08-1.08,.11-.57-.09-1.13-.1-1.66,.18-.12,.04-.24,.08-.36,.11-.32-.05-.63-.03-.85,.26-.79,.15-1.59,.3-2.38,.46-.19-.1-.31-.03-.38,.17-2.14,.99-4.13,.21-6.12-.56-.5-.64-1.21-.61-1.9-.64l-1.58-.45c-.66-.92-.03-1.15,.68-1.33,.97-.24,1.93-.46,2.9-.69Z"/>
  <path class="cls-7" d="M231.62,121.1c.19,1.19,.37,2.38,.56,3.58-.01,1.37-.02,2.74-.04,4.11-.59,1.45-.16,3.34-2.09,4.48-.88-2.34-2.11-4.52-3.63-6.52-.41-.53-.04-.9,.32-1.21,1.56-1.36,2.58-3.06,3.21-5.04,.14-.43,.5-.35,.84-.27,.06,.5,.31,.81,.82,.87Z"/>
  <path class="cls-5" d="M225.23,95.14c1.43-2.18,3.5-3.1,5.98-2.86,1.42,.14,2.31-.89,3.47-1.28,2.72-.92,3.34-.53,3.44,2.35-3.83,1.28-7.53,2.97-11.48,3.87-.52-.16-.65-.92-1.3-.88-.19-.39-.25-.78-.1-1.2Z"/>
  <path class="cls-5" d="M192.39,99.53c-.32-.04-.79,0-.84-.37-.08-.63,.47-1.04,.9-1.2,1.63-.58,3.27-1.09,4.88-1.72,4.44-1.74,8.94-3.33,13.41-4.98,.13-.05,.25-.12,.38-.13,.67-.03,1.56-1.02,1.94-.14,.43,1.01-.94,.8-1.41,1.26-.14,.14-.26,.29-.38,.44-1.32,.03-2.5,.54-3.68,1.08-2.58,.89-5.24,1.6-7.7,2.76-1.16,.55-2.98,.04-3.48,1.88,0,0,.02-.01,.02-.01-1.57-.49-2.83,.24-4.04,1.12Z"/>
  <path class="cls-7" d="M236.71,102.69c-.29,2.43-.28,4.51,.05,6.6,.23,1.47-1.9,3.35-3.35,3.05-.72-.15-.47-.68-.37-1.12,.43-1.99,.99-3.96,1.25-5.97,.19-1.51,1.11-1.91,2.42-2.55Z"/>
  <path class="cls-1" d="M233.38,157.76c-.04-.93,.35-2.09,1.11-2.75,.76-.67,1.62-2.24,2.72-1.44,.87,.63,1.19,2.12,1.65,3.28,.13,.34-.35,.46-.67,.59-1.17,.47-2.37,.89-3.49,1.48-1.14,.59-1.46,.23-1.31-1.15Z"/>
  <path class="cls-6" d="M225.66,154.84c1.39,1.17,1.38,2.81,2.23,4.02,.64,.91-.29,1.68-1.27,1.69-1.15,.02-2.14-.66-3.09-1.26-.58-.37-.45-.98,.03-1.37,.96-.77,1.48-1.84,2.09-3.08Z"/>
  <path class="cls-17" d="M247.51,80.35c-.38,2.26,.44,4.22,1.45,6.14-.47,.01-.94,.02-1.41,.03-.97-2.17-2.1-4.27-1.87-6.83,.15-1.64,.58-3,1.91-3.99,.74,.66-1.78,1.76,.29,2.24-.05,.25-.09,.49-.14,.74,0,.27,0,.53,.01,.8-.13,.2-.25,.39-.38,.59,.02,.11,.07,.2,.13,.29Z"/>
  <path class="cls-5" d="M224.52,87.24c-.13-1.87,1.7-1.5,2.42-1.72,2.96-.91,5.77-2.19,8.66-3.25,1.23-.45,1.48-.07,1.06,1.09-.81,.27-1.65,.4-2.47,.69-3.21,1.11-6.33,2.5-9.67,3.2Z"/>
  <path class="cls-5" d="M168.66,107.34c-.24-.12-.48-.24-.73-.36,2.41-.94,4.82-1.87,7.22-2.83,.5-.2,1.05-.55,1.45,0,.36,.49,.03,1.08-.23,1.53-.35,.62-.83,1.16-1.25,1.74-.28-.16-.56-.31-.84-.47-.09-1.36-.92-.75-1.54-.58-1.37,.38-2.56,1.29-4.01,1.44,.05-.1,.08-.2,.09-.3,.05-.1,.1-.19,.14-.29-.1,.04-.2,.08-.31,.12Z"/>
  <path class="cls-16" d="M224.52,87.24c3.34-.7,6.46-2.1,9.67-3.2,.82-.28,1.66-.41,2.47-.69,.09,.33,.18,.66,.28,.99-4.14,1.41-8.28,2.83-12.42,4.24,.27-.45,.16-.9,0-1.35Z"/>
  <path class="cls-1" d="M236.56,136.47c-.79-1.99-.42-3.72-.07-5.44,.09-.45,.25-1,.82-1.02,.54-.02,.48,.54,.6,.89,.13,.39,.36,.68,.62,.99,.7,.83,1.1,1.64-.24,2.43-.68,.4-1.08,1.31-1.73,2.14Z"/>
  <path class="cls-4" d="M232.45,155.5c-.42,1.23-.73,2.47-.68,3.79,.02,.61,.07,1.29-.81,1.35-.84,.06-1.33-.27-1.56-1.19-.32-1.29-.05-2.21,1.06-2.97,.54-.37,1.29-.44,1.63-1.11,.1,.1,.22,.14,.36,.12Z"/>
  <path class="cls-15" d="M177.55,156.67c-2.71-.08-5.33,.6-8,.91,0-.34,.02-.68,.02-1.02,3.83-.77,7.68-1.3,11.59-.68,0,.29,0,.58,0,.87-1.07-.03-2.14-.06-3.21-.09-.14-.23-.27-.23-.41,0Z"/>
  <path class="cls-1" d="M249.06,151.39c.58-.02,1.07,.08,1.08,.84,0,1.89,0,3.79,0,5.68,0,.76-.53,.83-1.1,.81,0-2.44,.02-4.89,.03-7.33Z"/>
  <path class="cls-17" d="M228.64,165.41c-.09,.45-.4,.74-.8,.77-.52,.05-.82,.74-1.42,.45-.01,0-.07-.32-.02-.2,.26,.62-.3,.98-.7,1.23-.71,.44-1.34,1.11-2.26,1.11-.07-.5-.14-1.01-.21-1.51,1.33-.97,2.65-1.94,3.98-2.92,.05,.96,.73,1.02,1.42,1.06Z"/>
  <path class="cls-5" d="M212.45,95.93c-1-.24-1.07,1.19-1.96,1.14,.26-1.14-1.01-1.78-.88-2.88,.55-.29,1.09-.59,1.64-.88,.26-.05,.53-.09,.79-.14,.13,.24,.26,.47,.4,.71,0,.4,.01,.8,.02,1.2,0,.28,0,.56,0,.85Z"/>
  <path class="cls-15" d="M169.13,158.36c.18,.18,.36,.35,.54,.53-.06,.4-.11,.8-.17,1.2-.7,0-1.4,.03-1.98-.49-.29-1.14-.91-.94-1.61-.42-.26-.03-.52-.07-.78-.1,0-.83-.97-.49-1.28-1.12,1.43,0,2.78,0,4.09-.42,.07,.77,.59,.84,1.18,.81Z"/>
  <path class="cls-17" d="M147.46,179.15c2.55-.01,5.1-.02,7.65-.03-.36,.88-1.14,.64-1.72,.56-1.97-.26-4.05,.72-5.93-.53Z"/>
  <path class="cls-17" d="M256.91,152.98c.09-1.61,.19-3.22,.25-4.83,.02-.57,.06-1.08,.7-1.26,.43,1.81-.13,5.4-.95,6.09Z"/>
  <path class="cls-1" d="M237.7,113.21c-.02,2.01-2.04,3.15-1.62,5.52-1.25-2.3-.59-4.25,1.62-5.52Z"/>
  <path class="cls-16" d="M192.39,99.53c1.21-.88,2.46-1.6,4.04-1.12-.97,1.48-2.61,1.5-4.05,1.95l.02-.83Z"/>
  <path class="cls-16" d="M256.98,114c.24-1.51-.62-3.22,.78-4.53-.01,1.55,.65,3.23-.78,4.53Z"/>
  <path class="cls-17" d="M211.25,93.31c-.55,.29-1.09,.59-1.64,.88-.66,.13-1.31,.26-1.97,.39-.02-.27-.04-.54-.07-.81,1.18-.54,2.36-1.05,3.68-1.08,0,.21,0,.41,0,.62Z"/>
  <path class="cls-14" d="M111.5,83.94c-1.52,.06-3.05,.13-4.53-.33,1.58-.89,3.05-.19,4.53,.33Z"/>
  <path class="cls-10" d="M126.55,162.37c.79-1.1,1.71-1.58,2.92-.62-.5,.72-1.31,.7-2.04,.87-.24-.02-.48-.05-.71-.07-.06-.06-.11-.12-.16-.19Z"/>
  <path class="cls-17" d="M232.79,149.74c-.18-1.24-.25-2.48,0-3.72,.77,1.24,.8,2.48,0,3.72Z"/>
  <path class="cls-10" d="M110.97,168.16c1.04-1.25,2.39-1.57,3.91-1.35-1.07,1.15-2.61,.9-3.91,1.35Z"/>
  <path class="cls-10" d="M123.79,163.53c.66-1.05,1.85-.74,2.76-1.16,.05,.06,.11,.12,.16,.18-.05,.1-.07,.21-.07,.32-.78,1.02-1.81,.85-2.85,.65Z"/>
  <path class="cls-17" d="M232.45,155.5c-.14,.02-.26-.02-.36-.12,.26-.9,.55-1.79,1.31-2.41,.24,.06,.48,.13,.72,.19-.55,.78-1.11,1.56-1.66,2.34Z"/>
  <path class="cls-10" d="M96.69,169.21c1.06,0,2.28-.82,3.07,.61-1.09,.16-2.11-.08-3.07-.61Z"/>
  <path class="cls-17" d="M231.82,134.59c-.01,.79-.02,1.58-.04,2.37-1.24-.92-1.23-1.53,.04-2.37Z"/>
  <path class="cls-10" d="M115.79,166.54c.32-1.22,.96-1.57,2.02-.77-.53,.66-1.25,.77-2.02,.77Z"/>
  <path class="cls-17" d="M257.77,143.98c-1.07-.37-.54-1.37-.77-2.06,1.03,.39,1.12,1.14,.77,2.06Z"/>
  <path class="cls-17" d="M225.27,176.13c.75,.01,1.37,.41,2,.74-1.01,.71-1.65,.4-2-.74Z"/>
  <path class="cls-10" d="M102.56,169.84c.51-1.23,1.25-.94,2.03-.32-.62,.48-1.32,.44-2.03,.32Z"/>
  <path class="cls-17" d="M238.11,81.98c.96,.4,.71,1.29,.79,2.05-1.28-.28-.66-1.31-.79-2.05Z"/>
  <path class="cls-17" d="M231.72,140.69c-.78-.25-.8-.96-.93-1.61,.98,.13,1.47,.55,.93,1.61Z"/>
  <path class="cls-17" d="M129.03,179.3c.65-.28,1.31-.43,2.01-.32-.51,1.14-1.24,.86-2.01,.32Z"/>
  <path class="cls-10" d="M93.51,167.93c1.04-.04,2.13-.2,2.63,1.11-.91-.28-1.91-.34-2.63-1.11Z"/>
  <path class="cls-16" d="M232.14,128.79c.01-1.37,.02-2.74,.04-4.11,.51,1.37,.55,2.74-.04,4.11Z"/>
  <path class="cls-10" d="M134.27,160.46c-.02-.39-.04-.77-.05-1.16,.49-.01,1.24-.19,1.31,.41,.09,.8-.74,.64-1.25,.76Z"/>
  <path class="cls-5" d="M225.33,96.34c.65-.04,.78,.72,1.3,.88-.2,.39-.52,.7-.93,.52-.65-.27-.41-.89-.36-1.41Z"/>
  <path class="cls-17" d="M133.84,157.56c.69,.03,1.4,0,1.9,.64-.72,.05-1.6,.61-1.9-.64Z"/>
  <path class="cls-17" d="M238.95,74.58c-.11,.62,.12,1.45-.88,1.54,.06-.65-.17-1.48,.88-1.54Z"/>
  <path class="cls-17" d="M112.44,178.95s-.18-.03-.18-.03c-.28-.32-.57-.63-.85-.95,.68,.05,1.38,.04,1.99,.43-.19,.43-.59,.47-.97,.55Z"/>
  <path class="cls-17" d="M133.13,178.68c.29-.28,.5-.58,.14-.96,.47,.01,1.23-.32,1.14,.53-.07,.61-.74,.63-1.29,.43Z"/>
  <path class="cls-17" d="M145.82,157.76c.53-.29,1.09-.27,1.66-.18-.44,1.15-1.01,1.05-1.66,.18Z"/>
  <path class="cls-17" d="M250.15,95.52c-.81-.27-.8-.96-.82-1.63,1.1,.11,.77,.97,.82,1.63Z"/>
  <path class="cls-11" d="M219.7,172.7c.61,.22,1.4,.21,1.45,1.17-.46-.03-.78-.58-1.3-.39-.08-.23-.16-.46-.23-.69l.08-.09Z"/>
  <path class="cls-16" d="M257.73,104.21c-.61-.02-.71-.71-1.17-.92,1.06-.47,1.12-.42,1.17,.92Z"/>
  <path class="cls-10" d="M133.76,159.22c-.65,.4-1.11,.39-1.17-.54,.53-.15,.85,.19,1.17,.54Z"/>
  <path class="cls-11" d="M212.44,93.88c-.13-.24-.26-.47-.4-.71,.38-.19,.84-.13,.98,.21,.17,.42-.3,.43-.59,.5Z"/>
  <path class="cls-17" d="M254.17,74.22c.25-.43,.71-.48,1.11-.63,.04,.31,.08,.63,.12,.94-.04,.08-.1,.11-.18,.1-.35-.14-.69-.27-1.04-.41Z"/>
  <path class="cls-17" d="M250.19,99.62c0-.82,0-1.63,0-2.45,.52,.82,.52,1.63,0,2.45Z"/>
  <path class="cls-10" d="M105.77,169.36c.49-.36,.93-1,1.61-.3-.49,.36-1.04,.42-1.61,.3Z"/>
  <path class="cls-17" d="M239.31,165.33c.25-.57,.5-1.15,.76-1.72,0,.69,.33,1.53-.76,1.72Z"/>
  <path class="cls-11" d="M219.68,171.04s-.02,.04-.02,.04c.01,.54,.03,1.08,.04,1.62,0,0-.08,.09-.08,.09-.11-.02-.22-.03-.33-.02-.41-.7-.53-1.34,.39-1.72Z"/>
  <path class="cls-17" d="M118.59,179.16c.43-.23,.84-.14,1.22,.13-.47,.57-.88,.57-1.22-.13Z"/>
  <path class="cls-16" d="M234.47,114.47c-.11-.19-.23-.39-.34-.58,.3-.34,.75-.41,.94-.06,.28,.53-.29,.53-.6,.65Z"/>
  <path class="cls-17" d="M253.79,69.15c-.47-.1-1-.1-1.11-.75,.52,0,1.03,.05,1.11,.75Z"/>
  <path class="cls-17" d="M238,166.42c.16-.65,.82-.61,1.23-.91-.07,.79-.5,1.05-1.23,.91Z"/>
  <path class="cls-17" d="M183.59,157.27c-.3,.09-.59,.15-.82-.14,.37-.55,.63-.39,.82,.14Z"/>
  <path class="cls-17" d="M144.61,158.13c.23-.29,.53-.3,.85-.26-.1,.24-.14,.61-.31,.69-.28,.13-.45-.16-.54-.43Z"/>
  <path class="cls-10" d="M130.22,161.57c.14-.6,.35-.92,.84-.25-.2,.38-.51,.34-.84,.25Z"/>
  <path class="cls-10" d="M121.39,164.4c.13-.59,.36-.85,.83-.26-.28,.09-.56,.17-.83,.26Z"/>
  <path class="cls-10" d="M118.58,165.25c.13-.59,.35-.87,.84-.27-.28,.09-.56,.18-.84,.27Z"/>
  <path class="cls-10" d="M108.16,168.93c.1-.52,.26-.9,.81-.36-.18,.33-.45,.44-.81,.36Z"/>
  <path class="cls-17" d="M249.35,88.13c.31,.07,.66,.05,.79,.46-.65,.55-.74,.09-.79-.46Z"/>
  <path class="cls-17" d="M248.58,90.58c-.31-.21-.37-.49-.21-.83,.46,.17,.72,.4,.21,.83Z"/>
  <path class="cls-17" d="M230.63,138.7c-.05-.29-.1-.58-.15-.87,.22,.12,.57,.19,.63,.36,.09,.29-.21,.43-.48,.5Z"/>
  <path class="cls-17" d="M161.9,107.54c.28,.05,.56,.1,.83,.15-.41,.72-.66,.5-.83-.15Z"/>
  <path class="cls-16" d="M167.89,176.29c.44-.1,.83-.06,1.05,.41-.45,.13-.85,.14-1.05-.41Z"/>
  <path class="cls-17" d="M257.05,137.42c-.11-.57,.19-.81,.69-.88,.05,.53-.15,.84-.69,.88Z"/>
  <path class="cls-17" d="M228.55,177.09c.59,.03,1.15,.15,1.63,.52-.6,0-1.29,.32-1.63-.52Z"/>
  <path class="cls-17" d="M239.31,177.63c.26-.29,.54-.3,.84-.07-.24,.47-.52,.54-.84,.07Z"/>
  <path class="cls-17" d="M140.65,178.23c.32-.11,.59,0,.82,.22-.45,.59-.67,.34-.82-.22Z"/>
  <path class="cls-16" d="M231.62,121.1c-.51-.06-.76-.37-.82-.87,.6-.04,.94,.19,.82,.87Z"/>
  <path class="cls-17" d="M258.62,133.7c-.05-.35,.07-.63,.32-.86,.05,.35,0,.66-.32,.86Z"/>
  <path class="cls-16" d="M126.64,162.88c0-.11,.02-.22,.07-.32,.24,.02,.48,.05,.71,.07-.26,.08-.52,.17-.78,.25Z"/>
  <path class="cls-14" d="M125.05,84.58c.29,.07,.58,.14,.87,.21-.32,.05-.63,.06-.87-.21Z"/>
  <path class="cls-17" d="M256.65,153.82c-.1-.35,0-.62,.27-.84,.06,.33,.03,.63-.27,.84Z"/>
  <path class="cls-17" d="M219.28,172.76c.11,0,.22,0,.33,.02,.08,.23,.16,.46,.23,.69-.44-.03-.56-.32-.56-.71Z"/>
  <path class="cls-17" d="M232.14,137.72c.08,.17,.16,.33,.25,.5-.08-.17-.16-.33-.25-.5Z"/>
  <path class="cls-17" d="M230.48,137.84c-.04-.13-.08-.25-.13-.38,.09,.11,.13,.23,.13,.38Z"/>
  <path class="cls-16" d="M106.78,170.85c-.21,.05-.41,.09-.62,.14,.21-.05,.41-.09,.62-.14Z"/>
  <path class="cls-15" d="M218.47,170.27c.43-.16,.72-.12,.6,.47-.2-.16-.4-.31-.6-.47Z"/>
  <path class="cls-16" d="M233.94,117.27c.03-.17,.06-.33,.09-.5-.03,.17-.06,.33-.09,.5Z"/>
  <path class="cls-17" d="M254.44,87.67c.03-.12,.05-.25,.06-.38,.15,0,.3,0,.46,0-.17,.12-.34,.25-.51,.37Z"/>
  <path class="cls-17" d="M254.95,87.3c.06-.21,.18-.31,.39-.22-.13,.07-.26,.15-.39,.22Z"/>
  <path class="cls-17" d="M230.09,137c-.08-.13-.17-.27-.25-.4,.08,.13,.17,.27,.25,.4Z"/>
  <path class="cls-17" d="M258.31,135.24c-.03-.11,0-.2,.07-.28,.09,.05,.18,.1,.27,.15-.11,.04-.23,.09-.34,.13Z"/>
  <path class="cls-17" d="M135.31,162.18c-.22,.06-.44,.12-.65,.18,.22-.06,.44-.12,.65-.18Z"/>
  <path class="cls-17" d="M254.98,161.22c.1-.2,.2-.4,.3-.6-.1,.2-.2,.4-.3,.6Z"/>
  <path class="cls-17" d="M142.34,160.03c-.14,.02-.28,.05-.42,.07,.14-.02,.28-.05,.42-.07Z"/>
  <path class="cls-17" d="M259.22,130.37c.01-.19,.03-.38,.04-.58-.01,.19-.03,.38-.04,.58Z"/>
  <path class="cls-16" d="M232.62,114.49c-.16,.14-.31,.28-.47,.42,.05-.27,.2-.41,.47-.42Z"/>
  <path class="cls-17" d="M255.28,71.9c-.13-.19-.26-.39-.39-.58,.13,.19,.26,.39,.39,.58Z"/>
  <path class="cls-16" d="M173.13,178.1c.19,.1,.37,.19,.56,.29-.27,.08-.47,0-.56-.29Z"/>
  <path class="cls-17" d="M141.86,158.76c.06-.2,.18-.27,.38-.17-.13,.06-.25,.11-.38,.17Z"/>
  <path class="cls-17" d="M258.88,122.43c-.09-.2-.17-.41-.26-.61,.09,.2,.17,.41,.26,.61Z"/>
  <path class="cls-5" d="M266.28,72.23c-.06-.27-.12-.54-.18-.82,.04-.14,.08-.29,.13-.43,5.13-1.79,10.27-3.55,15.39-5.38,7.9-2.83,15.79-5.71,23.69-8.55,.3-.11,.65-.08,.98-.12,0,.41-.01,.81-.02,1.22-.46,.04-.96-.02-1.39,.13-5.19,1.89-10.38,3.8-15.56,5.72-1.1,.41-2.41,.55-2.7,2.07-.77,.24-1.55,.48-2.32,.72-.07-1.42-.88-.6-1.37-.43-5.56,1.93-11.1,3.9-16.65,5.85Z"/>
  <path class="cls-16" d="M266.28,72.23c5.55-1.96,11.1-3.92,16.65-5.85,.49-.17,1.3-.99,1.37,.43-2.06,1.38-4.5,1.72-6.74,2.6-3.93,1.55-7.93,2.9-11.9,4.36-.29,.11-.53,.35-.8,.53-.37,.08-.73,.16-1.1,.23-.42-.23-.85-.4-.29-1,.78-.85,1.9-.79,2.8-1.29Z"/>
  <path class="cls-16" d="M286.63,66.09c.29-1.52,1.6-1.66,2.7-2.07,5.18-1.92,10.37-3.83,15.56-5.72,.42-.15,.92-.09,1.39-.13,.25,.64,.04,.98-.61,1.2-3.31,1.13-6.6,2.31-9.9,3.47-3.05,1.08-6.09,2.17-9.14,3.25Z"/>
  <path class="cls-17" d="M283.84,77.13c-.46,1.27-1.55,.55-2.34,.76,.7-.51,1.55-.54,2.34-.76Z"/>
  <path class="cls-17" d="M288.62,75.34c-.56,1.34-1.75,.76-2.7,.92,.9-.31,1.8-.61,2.7-.92Z"/>
  <path class="cls-17" d="M291.07,74.53c-.43,.49-.83,1.06-1.59,.55,.44-.45,.94-.72,1.59-.55Z"/>
  <path class="cls-17" d="M302.28,70.51c-.48,.97-1.33,.78-2.14,.72,.61-.57,1.43-.47,2.14-.72Z"/>
  <path class="cls-17" d="M309.52,67.93c-.23,.52-.64,.49-1.08,.37,.25-.45,.65-.46,1.08-.37Z"/>
  <path class="cls-17" d="M285.86,76.29c-.14,.67-.56,.77-1.12,.58,.3-.35,.67-.55,1.12-.58Z"/>
  <path class="cls-17" d="M272.21,81.29c-.12,.54-.31,.86-.8,.28,.16-.4,.48-.35,.8-.28Z"/>
  <path class="cls-17" d="M269.81,82.13c-.14,.62-.56,.68-1.06,.55,.27-.35,.59-.61,1.06-.55Z"/>
  <path class="cls-17" d="M292.67,73.91c-.11,.47-.25,.84-.78,.37,.2-.25,.44-.43,.78-.37Z"/>
  <path class="cls-17" d="M268.26,82.76c-.15,.01-.31,.03-.46,.04,.15-.01,.31-.03,.46-.04Z"/>
  <path class="cls-17" d="M293.44,73.54c-.14,.07-.27,.13-.41,.2l.41-.2Z"/>
  <path class="cls-17" d="M109.78,177.66c-.55,.6-.96,.53-1.21-.27,.43-.04,.85-.02,1.21,.27Z"/>
  <path class="cls-10" d="M104.13,155.28c2.53-.39,4.96-.26,7.38-.14,.33,.02,.73,.08,.75,.48,.01,.2-.22,.48-.42,.62-1.92,1.43-5.98,.99-7.71-.97Z"/>
  <path class="cls-15" d="M129.41,157.59c-.66-.07-1.31-.13-1.97-.2-.03-.63-.93-.76-.81-1.48,.53-.01,1.06-.02,1.6-.03,.7,.86,1.04-.5,1.69-.24,.17,.72-.2,1.33-.5,1.95Z"/>
  <path class="cls-10" d="M126.63,157.49c-1.62,.88-3.06,.36-4.45-.59,1.53-.18,3.03-.12,4.45,.59Z"/>
  <path class="cls-10" d="M118.63,156.91c-1.18,1.46-2.59,1.23-4.05,.58,1.27-.76,2.66-.71,4.05-.58Z"/>
  <path class="cls-10" d="M112.62,157.72c-.51,.77-1.07,1.38-2.03,.64,.57-.56,1.28-.69,2.03-.64Z"/>
  <path class="cls-10" d="M101.25,161.9c.14,.27,.28,.55,.43,.82-.62,.21-1.22,.13-1.81-.1,.39-.38,.8-.72,1.39-.72Z"/>
  <path class="cls-10" d="M109.81,158.55c-.36,.87-1.09,.58-1.73,.57,.42-.67,1.05-.72,1.73-.57Z"/>
  <path class="cls-10" d="M106.95,159.51c-.08,.74-.43,.95-1.08,.58,.27-.38,.57-.67,1.08-.58Z"/>
  <path class="cls-10" d="M99.34,162.83c-.05,.51-.09,1.03-.78,.5,.17-.31,.4-.53,.78-.5Z"/>
  <path class="cls-15" d="M219.68,169.53c.25-.06,.5-.12,.76-.18,.17,.63,2.1,.4,.82,1.75-.12-.06-.22-.04-.31,.06-.43-.03-.87-.05-1.3-.08-.76-.13-.66-.58-.39-1.1,.14-.15,.28-.3,.43-.45Z"/>
  <path class="cls-13" d="M223.24,167.27c.07,.5,.14,1.01,.21,1.51,0,0-.02,0-.02,0-.28-.04-.42,.1-.43,.38,0,0,0,.02,0,.02-.48-.14-.89-.35-1.05-.88,.43-.34,.86-.69,1.3-1.03Z"/>
  <path class="cls-11" d="M220.94,171.17c.09-.1,.19-.12,.31-.06,.01,.12,0,.24-.05,.35-.09-.09-.17-.19-.26-.28Z"/>
  <path class="cls-8" d="M198.59,113.01c.09,.13,.3,.34,.27,.39-.18,.27-.41,.09-.63,0,.12-.13,.24-.26,.36-.39Z"/>
  <path class="cls-17" d="M266.23,70.99c-.04,.14-.08,.29-.13,.43-.3,.13-.7,.34-.87-.01-.2-.42,.18-.72,.51-.95,.16,.18,.33,.36,.49,.53Z"/>
  <path class="cls-17" d="M104.94,178.41c-.08-.21-.15-.43-.23-.64,.43-.04,.9-.29,1.23,.19,.07,.11,.01,.39-.08,.52-.31,.4-.64,.36-.92-.07Z"/>
  <path class="cls-17" d="M100.54,179.24c.23-.27,.52-.3,.83-.19-.17,.58-.41,.81-.83,.19Z"/>
  <path class="cls-13" d="M225.28,180.94c-.03,.06-.06,.12-.09,.17,.03-.06,.06-.12,.09-.18,0,0,0,0,0,0Z"/>
  <path class="cls-15" d="M254.17,74.22c.35,.14,.69,.27,1.04,.41-1.53,1.67-3.56,2.23-5.67,2.46-.73,.08-1.2,.39-1.67,.85-2.06-.48,.45-1.58-.29-2.24,0,0,.03,0,.03,0,.28,0,.42-.16,.44-.44,2.1,.05,4.14-.25,6.11-1.04Z"/>
  <path class="cls-16" d="M247.76,79.47c0-.27,0-.53-.01-.8,.65,.55,1.98-1.17,2.23,.7-.9-.15-1.5,.43-2.15,.9-.02-.11-.05-.22-.09-.32,0-.16,.02-.33,.03-.49Z"/>
  <path class="cls-10" d="M130.64,158.32c-.54,.62-.72,.28-.83-.31,.34-.08,.62,.02,.83,.31Z"/>
  <path class="cls-16" d="M169.13,158.36c-.59,.03-1.11-.05-1.18-.81,0,0-.01,0-.01,0,.27,0,.54,0,.81,0,.21,.03,.42,.06,.63,.09-.05,.09-.12,.13-.22,.11,0,.2-.02,.41-.03,.61Z"/>
  <path class="cls-15" d="M168.75,157.54c-.27,0-.54,0-.81,0,.27-.48,.54-.44,.81,0Z"/>
  <path class="cls-15" d="M169.16,157.74c.1,.01,.17-.03,.22-.11,.08-.01,.14-.05,.2-.1-.14,.07-.28,.14-.42,.21Z"/>
  <path class="cls-17" d="M158.73,158.22c-1.62,0-3.23-.01-4.85-.02,1.62-1.02,3.24-1.04,4.85,.02Z"/>
  <path class="cls-17" d="M165.92,159.19c.7-.52,1.32-.72,1.61,.42-.54-.14-1.07-.28-1.61-.42Z"/>
  <path class="cls-17" d="M248.07,75.26c-.03,.27-.17,.43-.44,.44,.15-.15,.29-.29,.44-.44Z"/>
  <path class="cls-16" d="M168.73,107.81c1.45-.15,2.64-1.06,4.01-1.44,.62-.17,1.45-.79,1.54,.58-4.69,1.71-9.19,3.81-13.29,6.75-.22,.16-.47,.28-.65,.47-.72,.78-1.83,1.54-1.56,2.65,.32,1.31,1.72,1.03,2.74,1.12,.99,.09,2,.03,2.99,.07,.38,.01,.88-.07,.95,.47,.08,.54-.4,.71-.77,.71-2.36-.03-4.78,.46-6.93-1.15-.94-.71-.83-1.13-.31-2.11,1.57-2.92,4.3-4.33,6.9-5.9,1.4-.84,2.91-1.48,4.37-2.21Z"/>
  <path class="cls-17" d="M219.68,169.53c-.14,.15-.28,.3-.43,.45-.04-.33,.13-.45,.43-.45Z"/>
  <path class="cls-16" d="M207.58,93.78c.02,.27,.04,.54,.07,.81-1.86,1.34-4.1,1.72-6.18,2.47-1.63,.58-3.14,1.86-5.06,1.37,.5-1.85,2.31-1.34,3.48-1.88,2.46-1.16,5.12-1.87,7.7-2.76Z"/>
  <path class="cls-17" d="M222.99,169.16c.01-.28,.15-.42,.43-.38-.14,.13-.29,.25-.43,.38Z"/>
  <path class="cls-15" d="M237.09,87.9c0,.75-.31,1.23-.96,1.42-3.04,.9-6.08,1.79-9.12,2.68-.64,.19-1.36,.51-1.47-.61-.07-.7-.48-1.57,.55-1.9,3.28-1.04,6.57-2.09,9.88-3.02,1.18-.33,.88,.87,1.12,1.42Z"/>
  <path class="cls-17" d="M177.55,156.67c.13-.23,.27-.24,.41,0-.14,0-.27,0-.41,0Z"/>
  <path class="cls-12" d="M247.73,79.96c.04,.1,.07,.21,.09,.32-.1,.06-.2,.08-.31,.07-.06-.09-.11-.18-.13-.29,.11-.06,.23-.1,.36-.1Z"/>
  <path class="cls-15" d="M247.73,79.96c-.13,0-.25,.03-.36,.1,.13-.2,.25-.39,.38-.59,0,.16-.02,.33-.03,.49Z"/>
  <path class="cls-2" d="M168.66,107.34c.1-.04,.2-.08,.31-.12-.05,.1-.1,.19-.14,.29-.06-.05-.11-.11-.16-.17Z"/>
</svg>