<?xml version="1.0" encoding="UTF-8"?>
<svg id="Layer_1" data-name="Layer 1" xmlns="http://www.w3.org/2000/svg" viewBox="0 0 414 200">
  <defs>
    <style>
      .cls-1 {
        fill: #f7b7d3;
      }

      .cls-2 {
        fill: #00bff3;
      }

      .cls-3 {
        fill: #ebeae9;
      }

      .cls-4 {
        fill: #ebe2cd;
      }

      .cls-5 {
        fill: #fff200;
      }

      .cls-6 {
        fill: #fff8b8;
      }

      .cls-7 {
        fill: #fbb040;
      }

      .cls-8 {
        fill: #a19b94;
      }

      .cls-9 {
        fill: #9ddcf9;
      }

      .cls-10 {
        fill: #b9ac98;
      }

      .cls-11 {
        fill: #beb8b7;
      }

      .cls-12 {
        fill: #dad5d0;
      }

      .cls-13 {
        fill: #373232;
      }

      .cls-14 {
        fill: #45413a;
      }

      .cls-15 {
        fill: #645d52;
      }

      .cls-16 {
        fill: #4c4b4b;
      }

      .cls-17 {
        fill: #757474;
      }
    </style>
  </defs>
  <path class="cls-14" d="M271.49,45.26c.98-1.54-.01-3.4,.57-5.01,.69-.49,.38-1.24,.35-1.92-.01-1.44,.44-2.68,1.13-3.81,.37,0,.63-.17,.66-.66,.22-.55,.46-1.1,.93-1.41,.14-.16,.28-.33,.41-.49,.09-.1,.18-.2,.26-.3,.51,.01,.92-.22,1.23-.72,.13-.24,.23-.53,.54-.49,.1-.07,.2-.14,.31-.2,.39-.5,.9-.45,1.4-.49,.55,.49,.89-.13,1.3-.36,.24-.02,.48-.04,.73-.06,.78,.55,1.61,.25,2.43,.24,1.42,.18,2.76,.68,3.86,1.77,.75,.74,1.32,.69,2.1,.1,7.41-5.59,14.84-11.14,22.28-16.67,.55-.41,1.31-1.5,1.83,.14-.8,.72-1.93,.84-2.46,2.03h0c-1.04,.42-2.03,.92-2.7,2.05h0c-1.66,.7-3.14,1.75-4.39,3.26h0c-.39,.07-.84,.07-.68,.82h0c-1.97,.26-3.32,1.82-4.73,3.26h0c-1.04,.26-2.03,.59-2.37,2.04h0c-1-.39-1.54,.35-2.03,1.22h0c-.43,.03-.85,.06-.68,.81h0c-.95-.25-1.56,.32-2.03,1.23h0c-.62,.29-1.38,.3-1.69,1.22h0c-.47-.01-.77,.24-.84,.82h0c-.83-.05-1.43,.41-1.86,1.24h.01c-.83,.6-2.01,.63-2.38,2.04h.01c-1.15,.09-1.9,.92-2.54,2.06,.4-.14,.79-.28,1.19-.42,0,.26,0,.52,0,.79-.17,.05-.34,.1-.51,.15-.16,.1-.33,.2-.49,.29-1.07,.88-1.29,2.12-1.07,3.56,.15,1,.34,1.99,.47,2.99,.2,1.59,.87,1.5,1.73,.75,.73-.63,1.39-1.37,2.15-1.93,3.66-2.7,7.36-5.34,11.03-8.03,3.76-2.76,7.53-5.52,11.26-8.33,3.5-2.63,6.96-5.32,10.44-7.98,.24-.05,.49-.09,.73-.14,.11,.36,.22,.72,.33,1.08-7.73,5.77-15.46,11.55-23.2,17.32-.24,.18-.49,.32-.74,.48-2.26,1.44-4.02,2.78-3.38,6.81,.71,4.44,.28,9.13-.98,13.48-.59,2.04-.52,3.69-.16,5.81,.76,4.43,.78,9.02-.85,13.33-.23,.6-.16,1.15,.04,1.76,1.7,5.11,1.47,10.23,.02,15.36-.5,1.77-.97,3.47-.82,5.51,.43,5.67-1.21,10.78-3.67,15.49-.35,.67-.24,1.26-.39,1.88,.02,1.34,.04,2.67,.05,4.01-.06,.58-.12,1.15-.18,1.73-.31,.65-.59,1.3-.45,2.09-.25,3.77-2.09,6.76-3.35,10.03-.21,.55-.58,1.01-.54,1.67,.49,7.75-3.18,12.83-7.59,17.5-1.95,2.07-4.18,3.35-6.66,4.05-1.01,.29-1.46,1.46-2.38,1.8-.33-.06-.64-.06-.81,.39-.21,.13-.42,.25-.64,.38-.12,.07-.23,.14-.35,.2-.1,.07-.21,.14-.31,.22-1.55,.11-3.02,.6-4.45,1.3-.33,.07-.67,.15-1,.22-.12-.2-.23-.17-.33,.03-.6,.06-1.21,.11-1.81,.17-1.51-.03-3.03-.13-4.54-.07-1.26,.04-2.6-.45-3.76,.58-.33,.52-.76,.85-1.28,1.05-.42,0-.9-.18-1.14,.46-.3,.42-.69,.49-1.11,.44-.38-.11-.7-.06-.93,.38-.35,.07-.7,.13-1.06,.2-.34-.25-.66-.28-.95,.12-2.14,.41-4.28,.51-6.41,.01-.3-.49-.63-.53-1-.1-.24-.03-.48-.05-.72-.08-.47-.38-.95-.73-1.56-.52-.62,.07-1.24,.12-1.78-.4-.66-1.11-1.15-.19-1.69,.2-.38,.21-.75,.41-1.13,.62-.62-.23-1.16,.05-1.73,.32-.86,.4-1.74,.78-2.58-.1,1.24-.42,2.47-.84,3.71-1.27,.3-.1,.75-.1,.72-.62-.01-.26-.29-.58-.51-.72-1.89-1.19-3.66-2.57-5.25-4.29-.58-.63-1.32-.73-2.18-.6-3.92,.61-7.86,.81-11.7-.51-1.12-.39-1.99-.36-3.03,.19-.98,.52-.91,.67-.17,1.53,2.75,3.2,6.21,4.69,9.69,6.17,.13,.03,.27,.06,.4,.09,.74,.07,1.47,.14,2.21,.21-.37,1.16-1.3,.43-1.9,.82h-.14s-.08-.12-.09-.12c-.31,0-.62-.01-.94-.02-2.23-1.26-4.26-.27-6.28,.83-.13,.04-.26,.08-.39,.12-.63,.11-1.26,.21-1.89,.32-.53-.04-1.09-.28-1.53,.34-.39,.02-.78,.04-1.17,.05-.47,0-.93,0-1.4,0-.43,.23-.86,.24-1.28,0-.57,0-1.15,0-1.72,0-.28-.02-.56-.04-.84-.05-.56-.67-1.24-.36-1.88-.33-.16-.02-.32-.04-.48-.07-.47-.63-1.05-.39-1.61-.27-1.92-.28-3.35,1.77-5.24,1.63-.72-.29-1.34,0-1.92,.49-.35,.03-.7,.06-1.05,.09-.77-.81-1.47,.15-2.2,.12-1.51,.43-3.02,.11-4.53-.03-.64-.67-1.32-.53-2.02-.17-.34-.06-.68-.11-1.01-.17-.43-.78-1.04-.44-1.6-.37-.26-.04-.52-.09-.78-.13-.38-.58-.9-.37-1.39-.38-.36-.09-.71-.19-1.07-.28-.4-.14-.76-.17-.94,.41-.32,.23-.65,.45-.97,.68-.12,.07-.23,.15-.35,.22-1.02,.48-1.99,1.17-3.13,1.18-.35-.17-.67-.19-.94,.2-.27,.04-.54,.07-.8,.11-1.49,0-2.98,0-4.47,0-.27-.04-.54-.07-.81-.11-.31-.48-.64-.5-.99-.06-.37,.08-.71-.03-1.02-.28-.49-.79-1.18-.37-1.79-.41-.87-.16-1.72-.18-2.5,.42-.15,.1-.3,.21-.45,.31-.84,.84-1.91,1.02-2.89,1.46-.35-.2-.66-.21-.89,.23-.9,.5-1.87,.47-2.83,.58-.99-.29-1.99-.25-2.98-.05-.18-.04-.37-.07-.55-.11-.46-.53-.99-.37-1.51-.23-.17-.05-.34-.1-.51-.15-.19-.37-.45-.47-.79-.35-.83,.12-1.5-.39-2.19-.83-.19-.44-.52-.44-.86-.38-.48-.16-.9-.59-1.44-.39-.48-.09-.91,0-1.18,.56-1.39,.8-2.78,1.53-4.5,1.05,.85-1.39,2.05-1.31,3.08-1.7,1.26-.48,1.62-1.18,.4-2.24-1.33-1.15-2.38-2.57-3.24-4.25-.29-.57-.4-1.07-.36-1.68,.67-.41,1.26,.02,1.87,.28,4.18,1.81,8.31,1.76,12.49-.16,3.81-1.75,7.1-4.62,11.14-6.8-6.82-2.47-13-1.05-19.06,1.63-2.01,.89-3.89,2.23-5.83,3.37,.03-.36,.06-.72,.09-1.08,.92-1.29,2.49-1.48,3.54-2.89-1.37-.85-2.93-.39-4.16-1.67,4.24-1.88,8.4-2.89,12.86-1.85,2.75,.64,5.56,.26,8.21-.91,3.46-1.53,6.93-2.26,10.49-.62,.97,.45,1.92,.39,2.92,.39,3.7,.01,7.11-1.54,10.63-2.55,2.08-.6,4.03-.04,6.1,.55,2.19,.62,4.66,.86,6.76-.83,1.87-1.5,4-1.94,6.11-2.08,2.69-.18,5.42-.02,7.82,1.9,.4,.32,.84-.05,1.24-.06,2.63-.09,4.79-1.91,7.22-2.69,.46,.1,.95,.31,1.27-.36,.66-.34,1.35-.35,2.04-.22,.55,.45,1.1,.46,1.64-.02,1.56-.11,3.06,.11,4.41,1.17,.4,.6,.93,.77,1.53,.7,2.5-.53,3.43-1.67,3.63-4.66,.1-1.42-.84-2.35-1.48-3.32-1.93-2.92-4-5.71-5.97-8.6-3.37-4.98-6.72-9.99-10.05-15-.69-1.03-1.26-.59-1.8,.1-1.82,2.3-4.01,4.06-6.03,6.07-.3,.29-.69,.45-1,.72-.45,.41-.88,.65-1.31,0-.52-.79-.05-1.24,.41-1.66,1.87-1.7,3.7-3.43,5.49-5.26,2.89-2.97,2.56-2.3,.73-6.09-.73-1.52-1.67-1.99-3.1-1.08-1.78,1.14-3.42,2-3.71,5.03-.32,3.29-2.54,5.3-5.29,5.75-.32,.05-.64-.02-.92,.33-3.25,4.11-7.43,4.92-11.82,4.56-2.71-.23-3.46-2.71-2.02-5.5,.87-1.67,1.69-3.31,3.03-4.51,.84-.76,.62-1.46-.15-2.07-4.37-3.46-8.76-6.9-13.12-10.38-2.74-2.19-5.46-4.43-8.19-6.65-3.82-3.12-7.67-6.19-11.45-9.38-3.61-3.05-7.18-6.16-10.7-9.36-2.09-1.9-4.35-3.55-6.15-5.91-.21-.27-.35-.48-.33-.84,.52,.12,1.03,.03,1.54,.52,2.2,2.08,4.48,4.03,6.7,6.07,7.51,6.9,15.39,13.16,23.18,19.58,5.62,4.63,11.38,9.01,17,13.66,3.65,3.02,3.65,2.92,6.88,.22,1.12-.93,1.02-1.48,0-2.27-2.31-1.77-4.61-3.56-6.89-5.38-3.72-2.97-7.42-5.98-11.13-8.97-4.55-3.66-9.14-7.23-13.62-11.01-3.71-3.12-7.42-6.24-11.06-9.48-3.69-3.27-7.32-6.61-10.92-10.01-.69-.66-1.22-1.41-1.15-2.56,2.21,1.34,3.86,3.59,5.83,5.32,3.78,3.31,7.46,6.79,11.33,9.98,2.9,2.39,5.72,4.94,8.61,7.34,3.49,2.9,7,5.76,10.54,8.59,2.83,2.26,5.71,4.42,8.55,6.67,3.68,2.92,7.3,5.95,11,8.81,1.95,1.51,3.99,.1,3.92-2.7-.08-3.32,.62-6.32,2.04-9.14,1.31-2.61,4.24-4.1,7.36-3.54,1.8,.32,3.48,1.06,4.83,2.6,.45,.51,.73,.51,1.29,.21,2.33-1.27,2.6-1.68,2.32-4.68-.78-8.38,5.99-12.49,11.51-11.12,1.08,.27,2.15,.69,3.02,1.67,.63,.7,1.29,.69,2.09,.02,1.74-1.45,3.59-2.71,5.39-4.05,.44,0,.75-.22,.76-.8,.02-1.35,.03-2.7,.04-4.05,.04-.29,.08-.57,.12-.86,.4-.39,.57-.87,.4-1.48,.05-.31,.11-.62,.16-.94,.33,0,.65,0,.98,0-.59,2.48-1.16,5.01-.88,7.6,.63,5.76,.56,11.58,1.45,17.32,1.01,6.55,1.03,13.25,2.24,19.83,1.14,6.23,1.83,12.56,3.61,18.62,.65,2.2,1.44,3.79,3.43,4.41,1.64,.51,1.63,.6,1.42-1.47-.51-5.15-1.64-10.18-2.05-15.37-.52-6.65-1.37-13.26-2.04-19.89-.26-2.56-.46-5.12-.6-7.69-.3-5.34-.76-10.67-.72-16.03,.25,.05,.49,.1,.74,.15,.2,1.41,.02,3.32,.71,4.1,.65,.73,1.48-1.26,2.4-1.65,.98-.41,1.66-1.35,2.54-1.92,.47-.3,.64-.71,.73-1.25,.37-2.25,.62-4.5,.17-6.78-.12-.27-.24-.54-.35-.81,.16-.21,.56-.64,.26-.69-2.13-.38-.76-1.42-.2-1.94,.59-.55,.76-1.07,.61-1.86,.37-2.47,1.02-4.71,2.54-6.63,1.8-2.28,6.26-3.5,8.34-1.64,.28,.44,.68,.57,1.11,.6,.3-.16,.6-.32,.91-.47,.54-.41,.89-.88,.34-1.63-.02-.46-.02-.92,.24-1.3,.07-.1,.09-.22,.07-.35h0c.97-.12,.61-1.05,.71-1.7,.11-.28,.22-.57,.32-.85,.24,.18,.48,.36,.72,.53-.14,.54-.28,1.08-.42,1.62-.3,.2-.33,.53-.29,.9-.1,2.69-.19,5.38-.29,8.07-.25,.08-.62,.03-.55,.5,.02,.14,.34,.23,.53,.34,.21,3.46-.37,6.41-3.33,7.96-.48,.25-.65,.77,.11,1.06,3.89,1.51,8.6-.03,9.04-5.99,.26-3.59,.26-7.17,.23-10.75-.03-2.78,.77-4.76,2.79-6.11,.43-.29,1.3-.28,1.19-1.18-.1-.8-1.02-.33-1.38-.88l-.12-.06c-1.85-.26-3.59,.11-5.18,1.32-.26-.2-.52-.41-.78-.61,.1-.09,.21-.18,.31-.26,.15-.15,.31-.29,.46-.44,.59-.69,1.34-.87,2.12-.92,.46,.1,.92,.23,1.26-.33,.33,0,.66,.01,.99,.02,.18,.39,.4,.5,.67,.11,.84,.15,1.73,.15,2.37,1.01,.67,.96,1.22,.62,1.71-.24,.31-.45,.69-.76,1.15-.93,.42,.08,.78,.03,.88-.59Zm-1.71,19.44c-.21,0-.43,0-.64,0h-.01c-.03-.75-.47-.8-.93-.81-.19-.25-.36-.52-.58-.74-.49-.51-.58-1.93-1.55-1.33-.86,.53-1.76,1.14-1.73,2.71,.05,2.37-.95,4.38-1.84,6.39-.23,.52-.62,.91-1.05,1.28-2.58,2.21-5.36,2.11-8.22,1.13-2.23-.77-2.25-.81-2.39,2.1-.28,5.81-4,9.02-8.45,8.38-1.05-.15-2.09-.53-3.12-.84-1.67-.51-2.93,.74-2.89,2.79,.07,3.61,.72,7.12,1.07,10.68,.71,7.19,.82,14.44,2.1,21.57,.73,4.1,.76,8.37,1.26,12.53,.5,4.15,.56,8.5,2.98,11.96,.69,.99,1.24,2.05,1.36,3.36,.07,.71,.3,1.06,.87,.64,2.07-1.51,4.33-1.18,6.56-.93,.62,.07,.94,.03,1.36-.66,1.38-2.24,3.27-3.59,5.56-4.06,2.18-.46,4.23-2.98,4.36-5.69,.12-2.45,.62-4.93,1.89-6.57,1.65-2.11,1.62-4.59,2.11-7,.05-.26,.04-.55,.12-.8,.62-1.89,.9-3.64,.64-5.85-.3-2.57,.82-5.23,2.28-7.34,1.02-1.48,.92-3.21,.3-4.5-1.91-4-1.82-7.75,.28-11.53,.35-.63,.66-1.27,.5-2.08-.3-1.61-.16-3.25-.18-4.88,0-.68,.05-1.38-.37-1.93-1.19-1.59-1.08-3.69-.44-5.16,1.15-2.65,1.79-5.25,1.43-8.2,0-.21,0-.43,0-.64,.01-1.01-.46-1.65-1.17-1.97-.65-.29-1.17-.71-1.56-1.39,.03-.2,.05-.4,.08-.6,.23,0,.45-.01,.68-.02,1.96,1.23,1.94,1.22,2.45-1.34,.17-.85,.28-1.86,.73-2.44,.76-.97,.45-1.26-.15-2.17-1.34-2.04-2.35-.81-3.47,.08q-2.52,2-.5,4.57c.15,.19,.25,.44,.38,.66-.04,.21-.09,.43-.13,.64Zm-90.3,51.3c-.12,.14-.24,.28-.35,.42-2.14,1.47-3.83,3.44-4.64,6.31-.48,1.72,.02,2.64,1.46,2.82,3.71,.48,7.02-.83,10.36-3.26-.85-.56-1.51-.99-2.17-1.43-2.09-1.35-2.09-1.82-.06-3.38,2.25-1.72,3.07-3.93,2.6-7.15-.87,.48-1.75,.86-2.3,1.88-.34,.02-.61,.19-.8,.55-.48-.05-.83,.22-1.11,.66-.89,.68-1.89,1.18-2.61,2.16-.12,.14-.23,.28-.35,.41Zm18.01-13.35c-.34-.12-.67-.21-.7,.42l.02-.02c-.55-.21-1,.17-1.37,.51-.66,.63-.21,.81,.33,.87l.04,.72c-1.97,1.49-.87,3.9-1.38,5.88,.77,.11,1.27-.17,1.77-.47,1.55-.93,3.11-1.82,4.66-2.75,2.15-1.29,4.28-2.64,6.46-3.88,.59-.34,.92-.87,.55-1.35-1.1-1.39-.96-3.44-1.93-4.86l-.16-1.2c-1.13-.63-1.69,.28-2.22,1.22h0c-.78-.01-1.34,.4-1.69,1.24l.02-.02c-.45,.08-.79,.37-1.03,.83v-.02c-.59,.33-1.32,.43-1.69,1.24h.01c-.41,.05-.73,.22-.69,.82l.02-.02c-.53-.05-1.12-.21-1.03,.84l.02-.02Zm70.61-53.05c-.35-.16-.58,0-.69,.42h.01c-.83,.29-1.66,.61-2.23,1.49-.12,.18-.38,.39-.04,.54,.15,.06,.38-.16,.58-.25,0,.23,.01,.47,.02,.7-.42,.61-1.25,.91-1.28,1.79-.07,2.31-.02,4.63-.02,7.1,3.19-2.38,6.15-4.6,9.13-6.79,.4-.29,1.01-.63,.65-1.11-1.21-1.6-.96-3.95-2.08-5.56-.02-.28-.05-.56-.07-.85,.04-.3,.13-.85-.24-.65-.4,.21-1.31-.03-1.05,1.14h0c-.92-.3-1.35,.38-1.7,1.23h.01c-.52-.06-1.08-.17-1.03,.82h.02Zm-50.02,37.53h0c-.89-.09-1.54,.39-2.04,1.23,0,0,0-.01,0-.01-.74,.42-1.5,.78-2.21,1.26-.67,.45-.36,.77,.18,.98,.02,.23,.03,.47,.05,.7-.75,1.49,.11,2.76,.4,4.1,.05,.26,.04,.57,.16,.78,.32,.61-.32,1.67,.45,1.93,.78,.26,1.04-.83,1.39-1.39,3.14-4.99,6.73-9.41,10.93-13.09,.33-.29,.66-.62,.56-1.15-.11-.63-.5-.86-1.02-.73-.24-.38-.24-.75,.09-1.04,.21-.18,.61-.24,.31-.67-.19-.29-.56-.25-.76-.01-1,1.26-2.65,1.43-3.44,3.03h0c-1.74,.76-3.3,1.82-4.4,3.68h.02c-.42-.33-.62-.13-.69,.4Zm34.13-25.71c-.11-.05-.21-.04-.31,.03-1.15,.25-.51,1.36-.68,2.07-.62,2.32-.13,4.71-.3,7.06-.04,.49,.25,.52,.54,.5,.74-.05,3.93-3.3,4.01-4.23,.17-1.89,.23-3.79,.34-5.68,.05-.95-.33-.82-.81-.48-.19-.04-.37-.07-.56-.11,.36-.66,1.2-.87,1.42-2.47-1.37,1.49-2.87,1.74-3.66,3.32h0Zm-31.48,32.11c-1.53,1.23-2.06,3.45-3.35,4.91-1.85,2.09-1.81,3,.24,4.96,.14-1.21-.28-2.44,.15-3.62,.63,.21,.62,.89,.72,1.47,.45,2.62,.95,5.22,1.51,7.81,.96,4.39,2.81,8.24,4.49,12.16,1.96,4.58,3.87,9.18,5.64,13.85,1.31,3.46,2.61,7.02,2.93,10.93,.08,1,.43,2.01,1.58,1.95,1.22-.06,1.83-1.07,1.74-2.26-.25-3.35,.18-6.91-1.3-9.94-1.46-2.96-2.2-6.26-3.38-9.35-1.94-5.09-3.64-10.36-4.97-15.73-1.16-4.69-2.78-9.23-3.36-14.14-.28-2.38-.49-2.38-2.19-1.1-.14,.11-.3,.19-.45,.29,.14-.55,.28-1.11,.42-1.66,.04-.1,.06-.22,.07-.33,.34-.2,.71-.37,1.03-.61,1.7-1.27,3.4-2.53,5.07-3.85,1-.79,.59-2.07,.49-3.12-.04-.42-.67-.16-.95,.17-2.03,2.36-4.34,4.37-6.04,7.14l-.06,.06Zm-27.06,56.93c-2.25,0-4.47,.23-6.6,1.14-.38,.16-1.01,.23-1.01,.87,0,.71,.65,.59,1.05,.72,.54,.17,1.16,.13,1.62,.45,3.14,2.12,5.58-.29,8.32-1.6-.91-1.15-1.99-1.15-2.97-1.49-.14-.03-.28-.05-.41-.08Zm50.41,8.11c-.52-.22-1.04-.48-1.58-.66-1-.32-1.92,.26-2.35,1.13-.44,.9,.51,1.62,1.05,1.99,1.3,.89,2.56,1.95,4.09,2.28,4.78,1.05,9.51,.64,14.22-.59,1.39-.36,2.83-.65,4.3-2.11-3.81-.29-7.25-.6-10.53-2.03-.33-.21-.42-.59-.45-1,.21-.21,.39-.5,.63-.62,2.34-1.24,3.8-3.36,4.54-6.31,.25-.99,.45-2.02,1.1-2.88,.31-.41,.8-1.44,.43-2.02-.4-.62-1.13-.11-1.72,.1-.91,.32-1.79,.71-2.65,1.23-3.63,2.23-7.03,4.85-10.19,7.96-.58,.57-1.79,.85-1.71,1.58,.13,1.2,1.44,.93,2.2,1.39,.27,.17,.66,.07,.99,.09-.71,.9-1.62,.17-2.41,.46Zm1.06,6.59c-1.77-1.55-4.06-2.05-5.59-4.1-.94-1.27-2.12-1.14-3.36-.81-3.93,1.06-7.84,.92-11.6-.86-1.08-.51-1.94-.21-2.89,.02-.94,.23-.77,.9-.2,1.36,1.89,1.55,3.71,3.24,5.87,4.26,3.43,1.62,7,2.12,10.65,2.07,.25,.43,.47,.39,.69-.04,2.03-.42,4.05-.84,6.02-1.62,.13-.1,.27-.2,.4-.29Zm39.8-43.52c-.16-.61,.18-1.38-.49-1.96-2.16,2.46-4.35,4.91-6.89,6.83-.85,.64-.65,1.62-.66,2.55-.09,5.77-1.35,10.74-6.08,13.49-.97,.56-.95,1.94-.67,2.89,.26,.89,1.1,.2,1.62,.03,2.21-.73,3.99-2.35,5.53-4.33,2.37-3.05,4.29-6.48,5.54-10.42,1.06,.02,.75-.92,.78-1.63,.11-.42,.22-.83,.33-1.25,.04-.11,.06-.22,.03-.34,.19-1.07,.39-2.15,.58-3.22,.79-.74,.34-1.74,.38-2.64Zm-102.84,49.49c2.2-.84,4.72-.32,6.94-2.15-2.01-.99-3.9-1.69-5.28-3.29-2.36-2.74-4.72-2.81-7.75-1.46-3.25,1.44-6.78,1.95-10.04-.68-1.06-.86-2.01,.36-2.95,.78-.53,.24-.21,.82,.13,1.11,1.79,1.5,3.6,2.93,5.72,3.71,4.12,1.53,8.37,1.83,12.64,1.99l.59-.02ZM276.66,32.54c-.38-.05-.69,.02-.79,.55-.15,.21-.3,.41-.45,.62-.28,.2-.5,.46-.54,.88-2.34,4.04-2.36,8.47-1.33,12.98,1.41,6.17,4.4,11.42,7,16.9,.46,.98,.99,.63,1.29,.03,.84-1.71,1.88-3.26,2.04-5.43,.18-2.35-.63-4.26-1.21-6.35-.99-3.54-2.51-6.88-2.51-10.8,0-2.58,.99-4.18,2.64-5.44,1.23-.93,2.47-1.83,3.72-2.71,.92-.65,.96-1.23-.02-1.82-3.37-2.04-6.67-2.12-9.84,.6Zm-62.53,49.36c-.47,.07-1.22,.06-1.91,.29-3.85,1.26-6.21,3.38-6.08,8.68,.07,2.91,.8,5.59,1.77,8.31,1.71,4.8,3.66,9.49,5.1,14.39,1.44,4.9,4.03,8.83,6.33,12.99,2.97,5.38,5.93,10.69,7.59,16.93,.38,1.42,.88,2.88,1.47,4.24,.43,.98,1.05,2,2.07,1.66,.9-.3,1.09-1.49,1.12-2.52,.1-3.26-.64-6.39-1.78-9.23-1.25-3.13-2.2-6.42-3.66-9.46-1.42-2.96-2.44-6.22-3.81-9.2-2.16-4.69-3.9-9.6-5.88-14.39-1.51-3.64-2.62-7.52-3.91-11.3-1.03-3.02-.56-5.21,1.39-5.63,1.71-.37,2.85-1.82,4.29-2.68,1.03-.61,.66-1.34-.13-1.9-1.14-.82-2.41-1.08-3.97-1.2Zm10.41,58.27c-.14-.36-.25-.6-.32-.85-.88-3.33-2.62-6.11-4.12-9.01-.76-1.47-1.44-3.04-2.32-4.42-2.87-4.5-5.78-8.96-8.62-13.49-.45-.71-.63-.84-1.28-.33-1.29,1.02-2.04,2.65-3.21,3.8-.51,.5-.04,1.23,.33,1.78,1.27,1.85,2.51,3.73,3.78,5.58,2.12,3.1,4.27,6.18,6.38,9.29,2.01,2.96,3.98,5.97,5.98,8.94,.43,.65,.71,1.98,1.51,1.58,.95-.48,1.33-1.87,1.89-2.86Zm-29.13-45.01c-3.76-.28-5.93,2.63-6.51,6.49-.63,4.17,.01,8.51-1.3,12.59-.54,1.66-.79,3.39-2.46,4.03-.51,.2-1.09,.65-.29,1.43,1.85,1.82,5.65,1.18,6.75-1.29,.92-2.07,1.41-4.36,1.77-6.67,.44-2.8,.17-5.7,.8-8.48,.12-.54,.11-1.42,.73-1.46,2.18-.13,3.47-2.3,5.3-3.22,.83-.42,.66-.82,.02-1.38-1.5-1.33-3.11-2.13-4.8-2.04Zm48.35-12.61c.44-.03,1.19,.03,1.97-.37,2.96-1.55,3.98-4.5,4.12-8.07,.11-2.57,.07-5.16,.09-7.74,.02-2.85-.16-5.8,2.69-7.11,.31-.14,.74-.52,.63-1.08-.11-.55-.61-.51-.96-.68-2.27-1.09-6.11,.8-7.25,3.79-.9,2.34-1.3,4.63-1.31,7.16-.02,2.78-.21,5.56-.31,8.33-.05,1.31-.48,2.39-1.37,3.12-.66,.54-2,.74-1.75,1.76,.23,.95,1.57,.74,2.45,.89,.22,.04,.45,0,1.01,0Zm-79.47,72.72c-5.79-.43-11.29,3.6-16.91,7.2-.95,.61-.97,1.17,.08,1.72,2.47,1.29,5.04,1.8,7.72,1.44,6.02-.8,11-4.54,15.99-8.24,.24-.18,.52-.44,.36-.78-.12-.25-.43-.39-.67-.51-1.81-.94-3.73-.8-6.58-.83Zm105.13-14.9c-.21-2.48-.03-4.42-.89-6.26-.39-.83-.49-.69-1.04-.36-2.14,1.31-3.21,3.8-4.13,6.14-1.34,3.44-2.76,6.86-3.8,10.49-.67,2.33-1.53,4.75-3.43,6.22-.25,.19-.63,.47-.47,.96,.16,.48,.58,.32,.89,.31,3.22-.06,6.08-1.39,8.32-4.15,3.11-3.82,4.28-8.67,4.54-13.36Zm13.25-62.21c-.15-3.38-.17-6.5-1.34-9.25-1.28-3.02-2.88-5.84-4.3-8.78-.51-1.06-.97-1.35-1.5-.08-.94,2.29-1.4,4.79-1.97,7.23-.82,3.55,.82,6.43,2.2,9.21,1.51,3.04,3.24,5.92,4.41,9.2,.19,.54,.18,1.57,.95,1.4,.59-.13,.68-.98,.86-1.63,.69-2.49,.68-5.07,.68-7.31Zm-57.64,80.08c3.92,1.78,7.57,1.73,11.25,.77,4.84-1.27,8.2-5.53,12.06-8.78,.82-.69,.54-1.1-.28-1.47-1.12-.52-2.27-.71-3.46-.71-7.62,0-13.47,4.92-19.57,10.2Zm-14.65-4.63c-1.13-1.08-2.23-1.43-3.42-1.5-3.78-.23-7.43,.09-11.05,1.89-3.7,1.84-7.06,4.3-10.5,6.8,9.52,3.76,17.28-1.16,24.97-7.19Zm-3.9,4.77c.22,.59,.64,.62,1.02,.7,4.66,.96,9.26,.63,13.84-.77,3.26-1,5.84-3.5,8.6-5.61,.35-.27,.98-.45,.89-1.06-.11-.68-.75-.67-1.23-.81-3-.91-5.99-.61-9.01-.1-5.34,.91-9.96,3.61-14.1,7.65Zm84.95-108.64c0-1.32,.06-2.41-.02-3.49-.06-.9,.38-2.09-.36-2.65-.84-.64-1.37,.56-2.02,1.01-1.02,.7-2.01,1.46-3.03,2.15-.3,.21-.72,.41-.7,.79,.18,2.79-.93,5.42-.53,8.26,.5,3.58,.29,7.01-2.22,9.65-.7,.73-.26,3.97,.53,4.5,.36,.24,.66,.08,.91-.23,2.01-2.51,4.27-4.86,5.46-8.08,1.41-3.82,2.45-7.83,1.99-11.91Zm-9.5,47.49c.27-2.24-.67-4.61-1.41-7.07-1.13-3.75-2.71-7.18-4.56-10.46-.56-1-.81-.93-1.43-.04-2.17,3.12-2.05,6.74-1.19,10.18,1.27,5.1,4.16,9.26,6.31,13.85,.34,.72,.6,.43,.98-.1,1.24-1.72,1.34-3.77,1.31-6.36Zm-9.34,9.82c-.46,4.49,1.46,9.02,2.79,13.72,.26,.92,.66,.95,1.24,.44,2.85-2.53,4.27-7.51,3.55-11.74-.74-4.35-2.95-7.75-4.79-11.39-.35-.68-.59-.43-.99,.1-1.76,2.37-1.91,5.21-1.8,8.87Zm-64.32,60.2c-2.41-1.31-4.4-2.63-5.92-4.55-1.09-1.38-1.95-1.32-3.22-.78-3.38,1.43-6.86,2.02-10.44,1.48-1.47-.22-2.83-.83-4.11-1.69-.91-.61-2-.58-2.44,.32-.43,.89,.63,1.38,1.23,1.91,2.37,2.1,4.95,3.66,7.82,4.39,5.62,1.43,11.21,1.78,17.08-1.07Zm-37.2-3.25c2.45,0,4.77-.79,7.06-1.74,3.7-1.53,7.38-3.12,10.74-5.6,.35-.26,.91-.43,.84-1.1-.02-.21-.39-.46-.64-.54-2.88-.97-5.86-1.74-8.8-1.04-4.86,1.17-8.84,4.72-12.99,7.75-.66,.48-.53,.91,.04,1.33,1.15,.86,2.44,.93,3.74,.93Zm104.36-34.94c.36-4.42-1.4-8.49-2.72-12.69-.26-.82-.67-.38-1.05-.03-2.55,2.34-2.34,6.06-3.16,9.26-.23,.91-.2,2.14,.12,3.01,1.27,3.42,1.4,7.07,1.82,10.68,.06,.56-.27,1.36,.27,1.65,.68,.36,1.11-.39,1.56-.9,2.55-2.91,3.31-6.61,3.16-10.97Zm-15.56,29.71c7.37,1.65,12.5-1.99,16.76-8.24,2.21-3.25,3.61-7.62,2.99-10.33-.73,.91-1.41,1.78-2.11,2.61-1.88,2.22-4.04,3.84-6.72,4.18-.72,.09-1.16,.32-1.52,1.23-1.42,3.6-3.19,6.91-6.26,8.82-.92,.57-1.87,1.04-3.14,1.74Zm29.76-76.07c-1.85,2.68-3.44,5.52-5.69,7.44-1.44,1.23-1.68,2.39-1.26,4.15,.11,.46,.18,.93,.23,1.4,.3,3.32-.04,6.5-1.51,9.41-.23,.46-1.16,.59-.66,1.34,.46,.69,1.06,0,1.5-.3,2.43-1.62,4.29-3.84,5.77-6.8,2.66-5.34,2.13-10.95,1.62-16.66Zm.73-12.63c-.11-1.18-.23-2.59-.37-4-.04-.39-.02-.87-.42-1-.32-.11-.46,.26-.66,.5-1.63,2.01-3.05,4.27-4.89,6.03-.48,.46-.37,1.06-.31,1.68,.47,5.26,1.02,10.55-1.84,15.22-.27,.44-.31,.9,.04,1.27,.44,.47,.69-.08,.99-.34,2.71-2.38,4.58-5.61,5.99-9.17,1.23-3.1,1.26-6.56,1.48-10.19Zm-140.14,101.57c-3.03-1.03-5.13-2.78-6.84-5.08-.63-.85-1.13-.93-1.84-.61-3.9,1.77-7.85,2.18-11.89,.77-.31-.11-.68-.28-.87,.19-.15,.38,.18,.55,.37,.79,2.3,2.88,5.03,4.85,8.24,5.89,4.31,1.38,8.41,.8,12.83-1.95Zm-6.47-6.74c2.35,3.86,5.65,5.42,9.25,6.41,4.43,1.22,8.84,1.92,13.17-.51,.34-.19,.87-.16,.87-.77,0-.59-.52-.59-.86-.79-1.4-.84-2.84-1.65-3.9-3.06-.69-.92-1.32-.97-2.23-.59-4.75,1.97-9.47,1.96-14.05-.74-.79-.46-1.44-.58-2.26,.05Zm144.99-61.64c-.06-.37,.26-1.07-.29-1.32-.54-.25-.74,.45-1.01,.85-1.3,1.99-2.87,3.58-4.84,4.52-.97,.46-1.28,1.11-1.08,2.45,.66,4.49-.73,8.12-3.37,11.25-.78,.92-1.97,1.71-1.68,3.5,.14,.88,.35,1.08,.95,.51,1.1-1.03,2.19-2.09,3.3-3.09,5.16-4.66,6.9-11.39,8.01-18.68Zm-57.87,16.8c.46-.99,.29-1.85,.18-2.72-.65-4.93-1.34-9.85-1.9-14.79-.4-3.5-.63-7.03-.91-10.54-.06-.79-.04-1.53-1.04-1.11-2.87,1.21-3.65,2.92-2.66,6.38,1.33,4.7,2.23,9.56,3.72,14.2,.91,2.84,1.75,5.72,2.62,8.58Zm7.96,27.57c1.39-.31,2.6-.73,3.82-.81,1.26-.08,1.24-.89,.97-1.88-.88-3.33-3.24-4.65-5.64-5.87-.52-.27-.7,.21-.66,.77,.16,2.16,.31,4.33,.53,6.48,.07,.71,.21,1.59,.98,1.31Zm-35.41-33.41c.1-.07,.32-.15,.47-.32,.88-1.02,1.75-2.07,2.61-3.11,1.11-1.34,.36-2.53-.29-3.6-.7-1.15-1.42-.23-2.03,.26-.72,.57-1.53,.82-2.29,1.23-.99,.53-1.38,1.26-.62,2.48,.43,.7,.76,1.5,1.11,2.27,.21,.46,.5,.71,1.04,.79Zm22.09,34.59v.14c.51,0,1.01,.04,1.51-.01,.41-.04,.68-.49,.39-.83-1.15-1.32-1.12-3.18-1.59-4.79-.41-1.42-.95-1.4-1.54-.32-.88,1.62-1.69,3.31-2.43,5.03-.4,.92,.15,1.22,.83,1.15,.95-.09,1.89-.24,2.84-.36Zm-19.31,1.63c3.3,.62,6.6,3.29,9.93-.21-3.38-1.54-6.67-1.41-9.93,.21Zm-57.58,5.22c3.2,1.22,6.11,2.01,8.89-.72-3.03-1.12-5.87-.71-8.89,.72Zm28.57-2.16c-2.52-1.25-4.81-.61-7.1,.03-.19,.05-.44,.27-.48,.47-.09,.44,.28,.46,.52,.61,2.47,1.66,4.72,.92,7.06-1.11Zm95.37-61.41c-1.26,2.77-1.77,5.48-.79,8.84,.9-1.83,1.19-3.7,2.4-4.87,.21-.2,.15-.73-.08-.92-.84-.71-.91-1.95-1.53-3.05Zm-2.48,23.65c3.35-1.03,1.34-3.94,1.68-6.16-1.48,.86-2.06,3.09-1.68,6.16Zm-15,29.73c1.84-.53,3.18-1.22,4.65-1.24,.87-.02,1-.98,1.13-1.76,.09-.5-.22-.76-.62-.61-1.79,.65-3.68,1.09-5.15,3.62Zm-117.97,11.1c-1.8-.7-3.53-.04-5.28,.15-.37,.04-.93,.02-.98,.54-.07,.75,.56,.72,.97,.8,1.92,.42,3.53-.9,5.29-1.49Zm135.19-75.45c.69-1.38,1.13-2.45,1.97-3.2,.63-.56,.28-1.32,0-2.02-.21-.54-.68-1.02-.96-.97-.55,.09-.61,.93-.71,1.48-.26,1.4-.82,2.8-.3,4.71Zm-6.84,52.61c.69-.46,1.2-.85,1.74-1.16,1.15-.65,.69-1.77,.6-2.79-.04-.4-.16-1.06-.44-.94-.74,.3-1.16,1.09-1.5,1.94-.34,.85-.62,1.7-.4,2.95Zm-17.59,13.28c2.56,2.04,3.57,1.99,4.62-.11-1.49-.45-2.97-.79-4.62,.11Zm-40.24-41.88c-.19,0-.71,.3-.62,1.03,.12,.98,.77,1.71,1.51,1.8,.57,.07,.67-.82,.56-1.44-.12-.69-.15-1.57-1.45-1.39Zm67.18-46.9c.63-.04,.78-.46,.72-.97-.08-.72-.22-1.61-.93-1.63-.42,0-1.28,.14-1.2,1.01,.08,.93,1.01,1.04,1.41,1.59Zm-41.93,90.32c-.39,.54-.87,1.05-1.17,1.69-.13,.28,.33,.49,.59,.47,.67-.05,1.38-.33,1.6-1.08,.15-.5-.49-.76-1.02-1.08Zm-22.04-35.72c.44-1.12,.08-1.91-.19-2.7-.17-.48-.33-1.12-.92-.68-.42,.32-.55,.87-.24,1.39,.4,.66,.86,1.27,1.35,1.99Zm73.38-62.9c-.03-.46,.25-1.17-.51-1.11-.45,.03-.92,.22-.83,.95,.08,.62,0,1.53,.75,1.53,.65,0,.49-.83,.59-1.37Z"/>
  <path class="cls-7" d="M127.18,62.57c-.06,1.15,.46,1.9,1.15,2.56,3.6,3.41,7.24,6.74,10.92,10.01,3.65,3.23,7.36,6.35,11.06,9.48,4.48,3.77,9.08,7.35,13.62,11.01,3.71,2.99,7.41,6,11.13,8.97,2.28,1.82,4.58,3.61,6.89,5.38,1.03,.79,1.13,1.34,0,2.27-3.24,2.7-3.23,2.8-6.88-.22-5.62-4.65-11.38-9.03-17-13.66-7.79-6.42-15.67-12.68-23.18-19.58-2.22-2.04-4.5-3.99-6.7-6.07-.51-.49-1.02-.39-1.54-.52-.05-2.97-.12-5.93-.15-8.9,0-.44-.15-1.29,.66-.73Z"/>
  <path class="cls-6" d="M283.13,39.53c.17-.05,.34-.1,.51-.15,2.66-1.97,5.32-3.92,7.97-5.9,7.55-5.63,15.09-11.27,22.63-16.91,2.2,.34,3.41,2.16,4.41,4.29-3.48,2.66-6.95,5.36-10.44,7.98-3.74,2.81-7.5,5.57-11.26,8.33-3.67,2.69-7.36,5.33-11.03,8.03-.76,.56-1.43,1.3-2.15,1.93-.86,.75-1.53,.84-1.73-.75-.13-1-.31-2-.47-2.99-.22-1.44,0-2.69,1.07-3.56,.16-.1,.33-.2,.49-.29Z"/>
  <path class="cls-9" d="M127.21,163.03c1.94-1.14,3.82-2.48,5.83-3.37,6.07-2.68,12.25-4.1,19.06-1.63-4.04,2.18-7.33,5.06-11.14,6.8-4.18,1.92-8.31,1.96-12.49,.16-.61-.26-1.19-.69-1.87-.28-.63-.41-.15-.87-.04-1.32,.27,.03,.52,0,.64-.36Z"/>
  <path class="cls-13" d="M235.87,77.91c-.25-.05-.49-.1-.74-.15,0-.94-.01-1.89-.02-2.83l.55-.02c.21,.11,.41,.18,.58-.11,2.78-4.62,3.79-9.84,3.62-15.47,0-.36,0-.73,0-1.09,.34-3.1-.29-6.16-.27-9.25,0-.42-.28-.53-.56-.62-.07-.52-.14-1.04-.21-1.56,.16-.33,.07-.62-.11-.89-.05-.8-.1-1.6-.15-2.39,.11-.34,.1-.65-.17-.87-.06-.4-.12-.79-.18-1.19-.02-.19-.05-.39-.07-.58,.03-.12,0-.22-.06-.31,0-.33-.09-.52-.4-.39-.66,.1-1.33,.2-1.99,.3-.47-.18-.57-.63-.59-1.15,.54-2.21,1.11-4.41,1.6-6.63,.13-.57,.26-1.07,.75-1.2,.48-.13,.63,.44,.89,.78,1.26,1.68,2.53,3.34,3.77,5.04,.29,.39,.7,.94,.65,1.34-.1,.77-.8,.54-1.26,.6-1.12,.14-1.62,.55-1.41,2.18,.72,5.63,1.36,11.28,1.23,17-.05,2.22-.2,4.45-.3,6.67-.33,1.91-.65,3.81-.98,5.72-1.27,2.47-2.14,5.28-4.2,7.07Z"/>
  <path class="cls-15" d="M314.24,16.57c-7.54,5.64-15.08,11.28-22.63,16.91-2.65,1.98-5.31,3.93-7.97,5.9,0-.26,0-.52,0-.79,.36-.65,1.17-.77,1.35-1.65,0,0-.01,.01-.01,.01,.94-.43,2.11-.48,2.38-2.05,0,0-.01,.01-.01,.01,.84,.06,1.66,.09,1.86-1.24,0,0,0,0,0,0,.52,.09,.95,.05,.84-.81,0,0,0,0,0,0,.91,.3,1.55,.04,1.69-1.22,0,0,0,0,0,0,.89,.1,1.58-.27,2.03-1.23,0,0,0,0,0,0,.47,.02,.87-.03,.68-.81,0,0,0,0,0,0,.88,.09,1.58-.28,2.03-1.23,0,0,0,0,0,0,.96-.39,2.07-.53,2.37-2.04,0,0,0,0,0,0,2.01-.17,3.3-1.86,4.73-3.27,0,0,0,0,0,0,.48,.03,.88-.02,.68-.82,0,0,0,0,0,0,1.82-.39,3.34-1.37,4.39-3.26,0,0,0,0,0,0,1.14-.21,2.28-.43,2.7-2.04,0,0,0,0,0,0,1.05,.47,1.73-1.17,2.78-.7l.11,.32Z"/>
  <path class="cls-13" d="M221.91,31.92c1.03-1.09,2.13-1.21,2.45-2.48,.1-.41,.6-.36,.91-.26,.43,.14,.32,.63,.32,1.02,0,2.77,0,5.54,0,8.32,0,.66-.02,1.23-.78,1.17-.62-.06-.7-.51-.68-1.12,.02-.95,.06-1.9,0-2.84-.1-1.68,.82-4.08-2.23-3.81Z"/>
  <path class="cls-16" d="M213.45,168.93c.6-.39,1.53,.34,1.9-.82,2.04-.07,4.08-.14,6.12-.21,.84,.87,1.72,.49,2.58,.1,.57-.26,1.11-.55,1.73-.32-4.01,1.79-8.12,2.21-12.33,1.25Z"/>
  <path class="cls-16" d="M238.23,64.49c.16,.45,.22,.89-.15,1.25-3.06-.71-5.6,.46-7.75,3.08-.37-.15-.74-.31-1.1-.46,1.2-1.94,2.82-3.1,4.72-3.77,.37,.03,.75,.1,1.06-.27,1.08-.12,2.17-.29,3.23,.17Z"/>
  <path class="cls-16" d="M188.05,130.79c-.76-.05-1.12-.68-1.04-1.2,.18-1.29,1.27-1.29,2.05-1.55,.41-.14,.86,.61,.76,1.08-.23,1.09-1.15,1.27-1.76,1.66Z"/>
  <path class="cls-16" d="M193.59,126.95c-1.19-.1-1.53,2.29-2.86,.81-.28-.32-.59-.56-.06-1.08,.92-.91,1.76-1.7,2.93,.27Z"/>
  <path class="cls-16" d="M246.51,165.29c1.16-1.03,2.5-.53,3.76-.58,1.51-.05,3.03,.04,4.54,.07-1.91,.7-3.87,.28-5.8,.4-.83,.05-1.66,.07-2.5,.1Z"/>
  <path class="cls-16" d="M227.61,73.71c-.01,1.35-.02,2.7-.04,4.05,0,.57-.32,.79-.76,.8,.56-1.54,0-3.36,.8-4.84Z"/>
  <path class="cls-16" d="M157.41,173.34c1.49,0,2.98,0,4.47,0-1.49,.67-2.98,.5-4.47,0Z"/>
  <path class="cls-8" d="M314.13,16.25c-1.05-.47-1.73,1.18-2.78,.7,.53-1.2,1.66-1.32,2.46-2.03,.4,.09,.91,.03,.78,.83-.23,.04-.52,.01-.51,.45l.05,.05Z"/>
  <path class="cls-16" d="M285.66,123.01c-.02-1.34-.04-2.67-.05-4.01,.85,1.32,.84,2.65,.05,4.01Z"/>
  <path class="cls-16" d="M257.95,164.37c1.43-.7,2.9-1.18,4.45-1.3-1.42,.77-2.9,1.22-4.45,1.3Z"/>
  <path class="cls-17" d="M140.26,175.43c1-.2,1.99-.23,2.98,.05-1,.48-2,.56-2.98-.05Z"/>
  <path class="cls-11" d="M235.12,39.34c.02,.51,.13,.97,.59,1.15-.4,.69-.93,.77-1.26,.05-.31-.66,.11-1.07,.67-1.2Z"/>
  <path class="cls-16" d="M259.57,47.85c.26,.2,.52,.41,.78,.61-.29,.33-.58,.67-.87,1-.21-.49-.56-.66-.99-.68,.12-.71,.73-.61,1.08-.93Z"/>
  <path class="cls-16" d="M283.74,29.58c-.82,0-1.65,.3-2.43-.24,.84-.34,1.64-.09,2.43,.24Z"/>
  <path class="cls-16" d="M256.98,51.98c-.1,.65,.26,1.58-.71,1.71,0-.72-.03-1.45,.71-1.71Z"/>
  <path class="cls-16" d="M226.9,167.06c.54-.39,1.03-1.31,1.69-.2l-1.69,.2Z"/>
  <path class="cls-16" d="M193.92,170.07c.64-.03,1.32-.34,1.88,.33-.66,.17-1.3,.18-1.88-.33Z"/>
  <path class="cls-16" d="M181.41,172.07c.74,.03,1.44-.93,2.2-.12-.73,.2-1.46,.37-2.2,.12Z"/>
  <path class="cls-16" d="M174.86,171.88c.7-.36,1.38-.51,2.02,.17-.68,.1-1.35,.06-2.02-.17Z"/>
  <path class="cls-16" d="M211.99,148.04c-.54,.48-1.09,.48-1.64,.02,.54-.27,1.09-.29,1.64-.02Z"/>
  <path class="cls-10" d="M127.21,163.03c-.13,.35-.37,.39-.64,.36-.28-.87-.3-1.54,.73-1.44-.03,.36-.06,.72-.09,1.08Z"/>
  <path class="cls-16" d="M229.27,70.43c-.33,0-.65,0-.98,0,.12-.3,.25-.61,.37-.91,.43,.03,.87,.06,1.3,.09-.03,.53-.32,.72-.69,.82Z"/>
  <path class="cls-14" d="M229.96,69.62c-.43-.03-.87-.06-1.3-.09,.1-.24,.2-.49,.31-.73,.09-.15,.17-.3,.26-.45,0,0,0,0,0,0,.37,.15,.74,.31,1.1,.46-.12,.27-.24,.54-.36,.8Z"/>
  <path class="cls-16" d="M269.46,46.78c-.5,.86-1.04,1.2-1.71,.24,.58,.07,1.16,.05,1.71-.24Z"/>
  <path class="cls-16" d="M172.25,171.34c.56-.07,1.17-.41,1.6,.37-.58,.17-1.12,.06-1.6-.37Z"/>
  <path class="cls-16" d="M191.83,169.73c.56-.12,1.13-.37,1.61,.27-.56,.13-1.11,.17-1.61-.27Z"/>
  <path class="cls-16" d="M184.66,171.86c.58-.49,1.2-.78,1.92-.49-.57,.56-1.25,.53-1.92,.49Z"/>
  <path class="cls-16" d="M152.8,172.48c.61,.04,1.29-.38,1.79,.41-.62,.02-1.23,0-1.79-.41Z"/>
  <path class="cls-16" d="M272.41,38.33c.03,.68,.35,1.43-.35,1.92-.1-.7-.02-1.34,.35-1.92Z"/>
  <path class="cls-16" d="M202.21,170.4c.43-.62,.99-.38,1.53-.34-.45,.49-.98,.45-1.53,.34Z"/>
  <path class="cls-17" d="M138.2,175.09c.53-.14,1.06-.3,1.51,.23-.53,.2-1.05,.25-1.51-.23Z"/>
  <path class="cls-16" d="M170.08,170.82c.48,.01,1.01-.19,1.39,.38-.51,.11-.99,.1-1.39-.38Z"/>
  <path class="cls-16" d="M255.97,55.34c.56,.74,.21,1.21-.34,1.63,.11-.54,.22-1.08,.34-1.63Z"/>
  <path class="cls-16" d="M285.03,126.83c-.14-.79,.14-1.44,.45-2.09,.07,.76-.1,1.45-.45,2.09Z"/>
  <path class="cls-4" d="M319.72,21.8c-.11-.36-.22-.72-.33-1.08,.43-.05,.94-.21,1.01,.54,.05,.52-.33,.58-.68,.53Z"/>
  <path class="cls-16" d="M254.73,57.44c-.43-.03-.83-.16-1.11-.6,.41,.08,.89-.02,1.11,.6Z"/>
  <path class="cls-16" d="M155.61,173.17c.35-.43,.68-.42,.99,.06-.34,.14-.67,.18-.99-.06Z"/>
  <path class="cls-16" d="M232.65,167.86c.37-.43,.7-.39,1,.1-.34,.13-.68,.14-1-.1Z"/>
  <path class="cls-16" d="M280.59,29.39c-.41,.23-.75,.85-1.3,.36,.41-.25,.82-.49,1.3-.36Z"/>
  <path class="cls-16" d="M230.37,167.26c.61-.21,1.09,.14,1.56,.52-.58,.08-1.1-.11-1.56-.52Z"/>
  <path class="cls-11" d="M234.99,64.31c-.3,.37-.68,.29-1.06,.27,.24-.72,.6-.79,1.06-.27Z"/>
  <path class="cls-16" d="M244.1,166.8c.24-.64,.72-.46,1.14-.46-.28,.53-.71,.49-1.14,.46Z"/>
  <path class="cls-16" d="M258.03,51.67c-.24-.18-.48-.36-.72-.53,.02-.35,.07-.69,.36-.89,.28,.11,.56,.22,.84,.34-.16,.36-.32,.72-.47,1.08Z"/>
  <path class="cls-16" d="M217.94,149.91c-.6,.07-1.14-.09-1.53-.7,.42,.53,1.21-.14,1.53,.7Z"/>
  <path class="cls-16" d="M208.31,148.28c-.32,.67-.8,.46-1.27,.36,.35-.5,.81-.4,1.27-.36Z"/>
  <path class="cls-16" d="M263.72,45.89c-.34,.57-.8,.44-1.26,.33,.36-.46,.79-.48,1.26-.33Z"/>
  <path class="cls-16" d="M277.04,30.93c-.31,.5-.72,.73-1.23,.72,.27-.58,.79-.56,1.23-.72Z"/>
  <path class="cls-16" d="M228.13,71.37c.16,.61,0,1.09-.4,1.48-.05-.56,.09-1.06,.4-1.48Z"/>
  <path class="cls-17" d="M131.23,173.54c.27-.57,.69-.65,1.18-.56-.26,.59-.78,.38-1.18,.56Z"/>
  <path class="cls-17" d="M146.07,174.9c.23-.43,.55-.43,.89-.23-.24,.38-.56,.34-.89,.23Z"/>
  <path class="cls-16" d="M196.64,170.45c.57,0,1.15,0,1.72,0-.57,.3-1.15,.26-1.72,0Z"/>
  <path class="cls-14" d="M258.49,48.78c.43,.02,.78,.19,.99,.68,0,.08-.04,.14-.11,.18-.23,.01-.46,.02-.69,.03-.21-.06-.41-.12-.62-.18,.14-.24,.28-.47,.42-.71Z"/>
  <path class="cls-17" d="M136.9,174.58c.34-.12,.6-.01,.79,.35-.35,.17-.6,.02-.79-.35Z"/>
  <path class="cls-17" d="M133.85,173.37c.34-.06,.67-.06,.86,.38-.35,.07-.7,.15-.86-.38Z"/>
  <path class="cls-14" d="M258.5,50.58c-.28-.11-.56-.22-.84-.34,.13-.25,.27-.51,.4-.76,.2,.06,.41,.12,.62,.18-.02,.23-.03,.45-.05,.68-.02,.1-.06,.19-.14,.24Z"/>
  <path class="cls-16" d="M162.69,173.23c.26-.39,.59-.37,.94-.2-.28,.31-.59,.34-.94,.2Z"/>
  <path class="cls-16" d="M274.2,33.86c-.03,.5-.29,.67-.66,.66-.02-.57,.38-.52,.66-.66Z"/>
  <path class="cls-16" d="M242.06,167.62c.22-.44,.55-.49,.93-.38-.25,.32-.56,.47-.93,.38Z"/>
  <path class="cls-16" d="M263.7,162.27c.16-.45,.48-.45,.81-.39-.17,.44-.49,.41-.81,.39Z"/>
  <path class="cls-16" d="M240.06,167.94c.28-.4,.61-.37,.95-.12-.3,.24-.62,.26-.95,.12Z"/>
  <path class="cls-11" d="M238.73,45.94c.19,.27,.27,.56,.11,.89-.38-.23-.5-.51-.11-.89Z"/>
  <path class="cls-16" d="M265.38,46.01c-.27,.39-.48,.29-.67-.11,.24-.15,.47-.14,.67,.11Z"/>
  <path class="cls-16" d="M271.49,45.26c-.1,.62-.46,.67-.88,.59,.16-.5,.5-.59,.88-.59Z"/>
  <path class="cls-11" d="M238.41,42.67c.28,.23,.28,.54,.17,.87-.46-.18-.65-.43-.17-.87Z"/>
  <path class="cls-16" d="M168.07,170.95c.18-.59,.54-.56,.94-.41-.24,.38-.59,.4-.94,.41Z"/>
  <path class="cls-16" d="M199.65,170.45c.46,0,.93,0,1.4,0-.46,.26-.93,.29-1.4,0Z"/>
  <path class="cls-16" d="M212.29,168.79c.31,0,.62,.01,.94,.02-.31,.21-.62,.12-.94-.02Z"/>
  <path class="cls-16" d="M275.54,31.95c-.14,.16-.28,.33-.41,.49,.14-.16,.28-.33,.41-.49Z"/>
  <path class="cls-16" d="M277.89,30.24c-.1,.07-.2,.14-.31,.2,.1-.07,.2-.14,.31-.2Z"/>
  <path class="cls-16" d="M256.27,53.69c.03,.13,0,.25-.07,.35,.02-.12,.05-.23,.07-.35Z"/>
  <path class="cls-16" d="M256.62,164.62c.1-.2,.21-.23,.33-.03-.11,0-.22,.02-.33,.03Z"/>
  <path class="cls-16" d="M262.71,162.86c.12-.07,.23-.14,.35-.2-.12,.07-.23,.14-.35,.2Z"/>
  <path class="cls-16" d="M229.22,68.34c-.09,.15-.17,.3-.26,.45,.09-.15,.17-.3,.26-.45Z"/>
  <path class="cls-16" d="M205.63,169.74c.13-.04,.26-.08,.39-.12-.13,.04-.26,.08-.39,.12Z"/>
  <path class="cls-11" d="M237.71,40.2c.3-.12,.4,.06,.4,.39-.13-.13-.27-.26-.4-.39Z"/>
  <path class="cls-11" d="M238.16,40.9c.02,.19,.05,.39,.07,.58-.18-.17-.2-.36-.07-.58Z"/>
  <path class="cls-15" d="M314.08,16.2c0-.44,.28-.41,.51-.45-.06,.33-.14,.63-.51,.45Z"/>
  <path class="cls-16" d="M166.75,171.85c.12-.07,.23-.15,.35-.22-.12,.07-.23,.15-.35,.22Z"/>
  <path class="cls-16" d="M260.34,47.14c-.15,.15-.31,.29-.46,.44,.15-.15,.31-.29,.46-.44Z"/>
  <path class="cls-16" d="M149.85,173.21c.15-.1,.3-.21,.45-.31-.15,.1-.3,.21-.45,.31Z"/>
  <path class="cls-7" d="M229.96,69.62c.12-.27,.24-.54,.36-.8,2.15-2.61,4.7-3.79,7.75-3.08-.09,1.97-.08,3.98-1.39,5.5-.77-.52-1.11,.16-1.37,.81-.37,.91-.37,1.9-.2,2.89,0,.94,.01,1.89,.02,2.83-.05,5.36,.42,10.69,.72,16.03,.14,2.57,.34,5.14,.6,7.69,.67,6.63,1.52,13.24,2.04,19.89,.41,5.19,1.53,10.21,2.05,15.37,.21,2.08,.21,1.99-1.42,1.47-1.99-.62-2.78-2.21-3.43-4.41-1.78-6.06-2.47-12.39-3.61-18.62-1.2-6.58-1.23-13.28-2.24-19.83-.89-5.75-.82-11.57-1.45-17.32-.28-2.58,.29-5.11,.88-7.6,.38-.09,.67-.29,.69-.82Z"/>
  <path class="cls-7" d="M214.13,81.91c1.56,.12,2.82,.38,3.97,1.2,.79,.57,1.16,1.29,.13,1.9-1.44,.86-2.58,2.31-4.29,2.68-1.95,.42-2.42,2.61-1.39,5.63,1.29,3.78,2.4,7.66,3.91,11.3,1.98,4.78,3.72,9.7,5.88,14.39,1.37,2.97,2.39,6.23,3.81,9.2,1.45,3.03,2.4,6.33,3.66,9.46,1.14,2.83,1.88,5.96,1.78,9.23-.03,1.04-.21,2.22-1.12,2.52-1.02,.34-1.64-.69-2.07-1.66-.6-1.35-1.09-2.81-1.47-4.24-1.66-6.24-4.63-11.55-7.59-16.93-2.3-4.17-4.89-8.09-6.33-12.99-1.44-4.9-3.39-9.6-5.1-14.39-.97-2.72-1.7-5.41-1.77-8.31-.13-5.31,2.23-7.43,6.08-8.68,.7-.23,1.45-.22,1.91-.29Z"/>
  <path class="cls-7" d="M220.71,95.75c.15-.1,.3-.18,.45-.29,1.7-1.29,1.91-1.29,2.19,1.1,.58,4.91,2.2,9.45,3.36,14.14,1.33,5.37,3.03,10.64,4.97,15.73,1.18,3.09,1.93,6.39,3.38,9.35,1.49,3.03,1.06,6.59,1.3,9.94,.09,1.19-.52,2.2-1.74,2.26-1.14,.06-1.5-.96-1.58-1.95-.31-3.91-1.62-7.47-2.93-10.93-1.77-4.67-3.68-9.28-5.64-13.85-1.67-3.92-3.53-7.77-4.49-12.16-.57-2.6-1.06-5.19-1.51-7.81-.1-.58-.09-1.26-.72-1.47,.98-1.35,1.96-2.71,2.94-4.06Z"/>
  <path class="cls-7" d="M275.42,33.71c.15-.21,.3-.41,.45-.62,.38,.07,.64-.12,.79-.55,3.18-2.72,6.47-2.63,9.84-.6,.98,.59,.94,1.17,.02,1.82-1.25,.88-2.5,1.78-3.72,2.71-1.65,1.25-2.64,2.85-2.64,5.44,0,3.93,1.52,7.27,2.51,10.8,.58,2.09,1.38,4.01,1.21,6.35-.16,2.17-1.2,3.72-2.04,5.43-.3,.61-.82,.95-1.29-.03-2.59-5.48-5.58-10.73-7-16.9-1.03-4.51-1.02-8.94,1.32-12.98,.26-.23,.51-.45,.54-.88Z"/>
  <path class="cls-7" d="M224.53,140.18c-.56,.99-.94,2.38-1.89,2.86-.79,.4-1.07-.93-1.51-1.58-2-2.98-3.97-5.98-5.98-8.94-2.11-3.11-4.26-6.19-6.38-9.29-1.27-1.85-2.51-3.73-3.78-5.58-.38-.55-.84-1.28-.33-1.78,1.17-1.15,1.93-2.78,3.21-3.8,.65-.51,.83-.39,1.28,.33,2.83,4.53,5.74,8.99,8.62,13.49,.88,1.38,1.56,2.95,2.32,4.42,1.5,2.89,3.25,5.68,4.12,9.01,.07,.26,.18,.49,.32,.85Z"/>
  <path class="cls-7" d="M195.4,95.16c1.69-.08,3.31,.72,4.8,2.04,.64,.57,.82,.96-.02,1.38-1.83,.92-3.12,3.08-5.3,3.22-.62,.04-.61,.92-.73,1.46-.63,2.77-.36,5.67-.8,8.48-.36,2.31-.85,4.6-1.77,6.67-1.1,2.47-4.9,3.11-6.75,1.29-.8-.78-.22-1.24,.29-1.43,1.67-.64,1.93-2.37,2.46-4.03,1.32-4.08,.68-8.42,1.3-12.59,.58-3.86,2.75-6.77,6.51-6.49Z"/>
  <path class="cls-7" d="M243.75,82.56c-.56,0-.79,.03-1.01,0-.88-.15-2.22,.06-2.45-.89-.25-1.01,1.09-1.21,1.75-1.76,.89-.72,1.32-1.81,1.37-3.12,.1-2.78,.29-5.55,.31-8.33,.02-2.52,.42-4.81,1.31-7.16,1.15-2.99,4.98-4.88,7.25-3.79,.35,.17,.85,.13,.96,.68,.11,.56-.32,.93-.63,1.08-2.85,1.32-2.67,4.26-2.69,7.11-.02,2.58,.02,5.16-.09,7.74-.15,3.57-1.17,6.52-4.12,8.07-.78,.41-1.53,.34-1.97,.37Z"/>
  <path class="cls-7" d="M258.5,50.58c.07-.06,.12-.14,.14-.24,.35-.07,.68-.18,.73-.71,.06-.04,.1-.1,.11-.18,.29-.33,.58-.67,.87-1,1.59-1.21,3.33-1.58,5.18-1.32,0,0,.04,.13,.04,.13l.08-.06c.36,.55,1.28,.08,1.38,.88,.11,.9-.76,.9-1.19,1.18-2.02,1.35-2.81,3.34-2.79,6.11,.04,3.58,.04,7.16-.23,10.75-.44,5.96-5.16,7.5-9.04,5.99-.75-.29-.58-.81-.11-1.06,2.96-1.55,3.54-4.5,3.33-7.96,.19-.27,.21-.55,.03-.84,.1-2.69,.19-5.38,.29-8.07,.1-.3,.19-.6,.29-.9,.14-.54,.28-1.08,.42-1.62,.16-.36,.32-.72,.47-1.08Z"/>
  <path class="cls-9" d="M164.28,155.28c2.85,.03,4.77-.11,6.58,.83,.24,.13,.55,.27,.67,.51,.16,.35-.12,.6-.36,.78-4.99,3.7-9.97,7.44-15.99,8.24-2.68,.35-5.25-.15-7.72-1.44-1.05-.55-1.03-1.12-.08-1.72,5.62-3.6,11.13-7.63,16.91-7.2Z"/>
  <path class="cls-2" d="M269.41,140.37c-.27,4.69-1.43,9.53-4.54,13.36-2.24,2.75-5.1,4.09-8.32,4.15-.31,0-.72,.17-.89-.31-.17-.49,.22-.77,.47-.96,1.89-1.48,2.76-3.89,3.43-6.22,1.04-3.63,2.46-7.05,3.8-10.49,.91-2.34,1.99-4.83,4.13-6.14,.55-.33,.65-.47,1.04,.36,.85,1.84,.68,3.78,.89,6.26Z"/>
  <path class="cls-2" d="M282.66,78.17c0,2.24,.01,4.81-.68,7.31-.18,.65-.27,1.5-.86,1.63-.76,.17-.75-.87-.95-1.4-1.17-3.28-2.9-6.16-4.41-9.2-1.38-2.78-3.02-5.66-2.2-9.21,.56-2.44,1.02-4.94,1.97-7.23,.53-1.27,.99-.99,1.5,.08,1.42,2.94,3.01,5.76,4.3,8.78,1.17,2.75,1.19,5.87,1.34,9.25Z"/>
  <path class="cls-9" d="M225.02,158.24c6.1-5.27,11.95-10.21,19.57-10.2,1.19,0,2.33,.2,3.46,.71,.82,.38,1.1,.78,.28,1.47-3.86,3.25-7.22,7.51-12.06,8.78-3.68,.97-7.33,1.01-11.25-.77Z"/>
  <path class="cls-9" d="M210.37,153.61c-7.68,6.03-15.45,10.95-24.97,7.19,3.43-2.5,6.8-4.97,10.5-6.8,3.62-1.8,7.26-2.12,11.05-1.89,1.19,.07,2.29,.43,3.42,1.5Z"/>
  <path class="cls-9" d="M206.46,158.38c4.13-4.05,8.76-6.74,14.1-7.65,3.02-.52,6.01-.81,9.01,.1,.48,.15,1.13,.13,1.23,.81,.09,.6-.54,.79-.89,1.06-2.76,2.11-5.34,4.61-8.6,5.61-4.57,1.4-9.18,1.74-13.84,.77-.38-.08-.8-.1-1.02-.7Z"/>
  <path class="cls-7" d="M291.42,49.74c.46,4.08-.58,8.1-1.99,11.91-1.19,3.22-3.45,5.57-5.46,8.08-.24,.3-.55,.47-.91,.23-.79-.53-1.22-3.77-.53-4.5,2.51-2.64,2.72-6.08,2.22-9.65-.4-2.84,.7-5.47,.53-8.26-.02-.38,.4-.59,.7-.79,1.02-.69,2.02-1.45,3.03-2.15,.65-.45,1.18-1.65,2.02-1.01,.74,.56,.3,1.75,.36,2.65,.07,1.08,.02,2.17,.02,3.49Z"/>
  <path class="cls-9" d="M181.51,171.16c-4.27-.15-8.52-.46-12.64-1.99-2.12-.79-3.93-2.21-5.72-3.71-.34-.29-.66-.87-.13-1.11,.94-.42,1.89-1.63,2.95-.78,3.26,2.63,6.8,2.12,10.04,.68,3.04-1.35,5.39-1.29,7.75,1.46,1.38,1.6,3.26,2.29,5.28,3.29-2.22,1.83-4.74,1.31-6.94,2.15-.2-.18-.4-.16-.59,.02Z"/>
  <path class="cls-2" d="M281.92,97.22c.03,2.59-.07,4.64-1.31,6.36-.38,.53-.64,.82-.98,.1-2.15-4.59-5.04-8.75-6.31-13.85-.85-3.43-.98-7.06,1.19-10.18,.62-.89,.87-.96,1.43,.04,1.85,3.28,3.43,6.71,4.56,10.46,.74,2.46,1.68,4.83,1.41,7.07Z"/>
  <path class="cls-2" d="M272.58,107.04c-.11-3.65,.04-6.5,1.8-8.87,.4-.53,.64-.79,.99-.1,1.84,3.64,4.05,7.04,4.79,11.39,.72,4.23-.7,9.21-3.55,11.74-.58,.51-.98,.48-1.24-.44-1.32-4.7-3.25-9.23-2.79-13.72Z"/>
  <path class="cls-9" d="M221.46,167.9c-2.04,.07-4.08,.14-6.12,.21-.74-.07-1.47-.14-2.21-.21-.12-.14-.24-.27-.4-.09-3.48-1.48-6.94-2.97-9.69-6.17-.75-.87-.82-1.01,.17-1.53,1.04-.55,1.91-.58,3.03-.19,3.84,1.32,7.79,1.12,11.7,.51,.86-.13,1.6-.03,2.18,.6,1.6,1.72,3.37,3.1,5.25,4.29,.22,.14,.5,.46,.51,.72,.03,.52-.42,.51-.72,.62-1.23,.43-2.47,.84-3.71,1.27Z"/>
  <path class="cls-9" d="M208.26,167.24c-5.86,2.85-11.46,2.5-17.08,1.07-2.87-.73-5.46-2.29-7.82-4.39-.6-.53-1.66-1.02-1.23-1.91,.44-.9,1.53-.93,2.44-.32,1.28,.86,2.64,1.47,4.11,1.69,3.58,.54,7.06-.06,10.44-1.48,1.27-.54,2.13-.6,3.22,.78,1.51,1.92,3.5,3.24,5.92,4.55Z"/>
  <path class="cls-9" d="M171.07,163.99c-1.3,0-2.59-.07-3.74-.93-.57-.42-.71-.85-.04-1.33,4.15-3.03,8.14-6.58,12.99-7.75,2.94-.7,5.92,.07,8.8,1.04,.25,.08,.62,.33,.64,.54,.07,.67-.49,.84-.84,1.1-3.36,2.48-7.04,4.07-10.74,5.6-2.29,.95-4.61,1.75-7.06,1.74Z"/>
  <path class="cls-2" d="M282.83,130.73c-1.25,3.94-3.16,7.37-5.54,10.42-1.54,1.98-3.32,3.59-5.53,4.33-.52,.17-1.36,.86-1.62-.03-.28-.95-.3-2.33,.67-2.89,4.74-2.75,5.99-7.72,6.08-13.49,.01-.93-.19-1.91,.66-2.55,2.54-1.91,4.73-4.37,6.89-6.83,.67,.58,.33,1.35,.49,1.96-.27,.85-.41,1.73-.38,2.64-.19,1.07-.39,2.15-.58,3.22-.09,.1-.11,.21-.03,.34-.11,.42-.22,.83-.33,1.25-.82,.15-.63,1.01-.78,1.63Z"/>
  <path class="cls-2" d="M275.43,129.05c.15,4.36-.6,8.06-3.16,10.97-.44,.51-.88,1.26-1.56,.9-.54-.29-.21-1.09-.27-1.65-.41-3.6-.54-7.26-1.82-10.68-.32-.86-.36-2.09-.12-3.01,.82-3.19,.61-6.92,3.16-9.26,.38-.35,.79-.79,1.05,.03,1.32,4.2,3.07,8.27,2.72,12.69Z"/>
  <path class="cls-2" d="M259.87,158.76c1.27-.7,2.22-1.17,3.14-1.74,3.08-1.91,4.84-5.22,6.26-8.82,.36-.91,.8-1.13,1.52-1.23,2.68-.35,4.83-1.96,6.72-4.18,.7-.83,1.38-1.7,2.11-2.61,.62,2.71-.78,7.08-2.99,10.33-4.26,6.25-9.38,9.89-16.76,8.24Z"/>
  <path class="cls-9" d="M238.03,167.13c-3.65,.05-7.22-.45-10.65-2.07-2.16-1.02-3.98-2.71-5.87-4.26-.57-.47-.74-1.13,.2-1.36,.95-.23,1.82-.53,2.89-.02,3.76,1.78,7.67,1.92,11.6,.86,1.24-.33,2.42-.46,3.36,.81,1.52,2.05,3.82,2.54,5.59,4.1-.13,.1-.27,.2-.4,.29-1.96,.77-3.99,1.2-6.02,1.62-.24-.17-.47-.19-.69,.04Z"/>
  <path class="cls-2" d="M289.63,82.69c.5,5.71,1.04,11.32-1.62,16.66-1.48,2.96-3.33,5.18-5.77,6.8-.44,.29-1.04,.98-1.5,.3-.5-.75,.43-.89,.66-1.34,1.47-2.92,1.81-6.09,1.51-9.41-.04-.47-.12-.94-.23-1.4-.41-1.76-.17-2.92,1.26-4.15,2.25-1.93,3.83-4.77,5.69-7.44Z"/>
  <path class="cls-2" d="M290.37,70.06c-.22,3.63-.25,7.09-1.48,10.19-1.41,3.56-3.28,6.8-5.99,9.17-.3,.26-.55,.8-.99,.34-.35-.38-.31-.84-.04-1.27,2.86-4.68,2.32-9.96,1.84-15.22-.06-.62-.17-1.22,.31-1.68,1.84-1.76,3.26-4.02,4.89-6.03,.19-.24,.33-.61,.66-.5,.4,.14,.38,.61,.42,1,.14,1.41,.27,2.83,.37,4Z"/>
  <path class="cls-9" d="M150.22,171.63c-4.42,2.75-8.52,3.33-12.83,1.95-3.21-1.03-5.94-3.01-8.24-5.89-.19-.24-.52-.41-.37-.79,.19-.47,.56-.3,.87-.19,4.04,1.41,7.99,1,11.89-.77,.7-.32,1.2-.24,1.84,.61,1.72,2.3,3.82,4.05,6.84,5.08Z"/>
  <path class="cls-1" d="M246.49,158.13c-.33-.02-.72,.08-.99-.09-.76-.46-2.07-.19-2.2-1.39-.08-.74,1.13-1.02,1.71-1.58,3.15-3.11,6.56-5.73,10.19-7.96,.86-.53,1.73-.91,2.65-1.23,.59-.21,1.32-.72,1.72-.1,.37,.57-.12,1.6-.43,2.02-.65,.87-.85,1.89-1.1,2.88-.74,2.95-2.2,5.07-4.54,6.31-.24,.13-.42,.41-.63,.62-2.09,.73-4.21,.82-6.36,.53Z"/>
  <path class="cls-9" d="M143.76,164.89c.82-.63,1.47-.51,2.26-.05,4.58,2.7,9.3,2.71,14.05,.74,.91-.38,1.54-.33,2.23,.59,1.06,1.41,2.5,2.22,3.9,3.06,.34,.2,.86,.2,.86,.79,0,.6-.53,.58-.87,.77-4.33,2.43-8.74,1.73-13.17,.51-3.6-.99-6.9-2.56-9.25-6.41Z"/>
  <path class="cls-2" d="M288.75,103.25c-1.11,7.29-2.85,14.01-8.01,18.68-1.11,1-2.19,2.07-3.3,3.09-.6,.56-.81,.37-.95-.51-.29-1.8,.9-2.58,1.68-3.5,2.63-3.13,4.03-6.76,3.37-11.25-.2-1.34,.11-1.98,1.08-2.45,1.97-.94,3.53-2.53,4.84-4.52,.26-.4,.46-1.1,1.01-.85,.55,.25,.23,.95,.29,1.32Z"/>
  <path class="cls-1" d="M253.29,158.6c3.28,1.43,6.72,1.74,10.53,2.03-1.47,1.47-2.91,1.75-4.3,2.11-4.71,1.23-9.44,1.64-14.22,.59-1.53-.34-2.79-1.39-4.09-2.28-.54-.37-1.5-1.09-1.05-1.99,.43-.86,1.35-1.45,2.35-1.13,.54,.17,1.05,.43,1.58,.66,1.88,.72,3.79,1.21,5.78,.83,.45-.04,.89-.09,1.34-.13,.79,.18,1.41-.39,2.09-.68Z"/>
  <path class="cls-6" d="M205.94,97.72c.98,1.42,.83,3.47,1.93,4.86,.38,.48,.05,1.01-.55,1.35-2.18,1.24-4.31,2.59-6.46,3.88-1.55,.93-3.11,1.82-4.66,2.75-.5,.3-1,.58-1.77,.47,.52-1.98-.59-4.38,1.38-5.88,3.37-2.48,6.75-4.95,10.12-7.43Z"/>
  <path class="cls-3" d="M230.88,120.05c-.87-2.86-1.7-5.74-2.62-8.58-1.49-4.64-2.38-9.5-3.72-14.2-.98-3.46-.21-5.18,2.66-6.38,1-.42,.97,.31,1.04,1.11,.29,3.52,.52,7.05,.91,10.54,.56,4.94,1.24,9.87,1.9,14.79,.12,.87,.28,1.73-.18,2.72Z"/>
  <path class="cls-6" d="M184.36,112.22c.55-1.02,1.43-1.39,2.3-1.88,.48,3.22-.35,5.42-2.6,7.15-2.03,1.55-2.02,2.03,.06,3.38,.67,.43,1.33,.87,2.17,1.43-3.33,2.42-6.65,3.74-10.36,3.26-1.43-.19-1.94-1.1-1.46-2.82,.81-2.87,2.5-4.84,4.64-6.31,.11,.12,.23,.24,.34,.35-.42,.52-.82,1.08-1.28,1.56-.87,.91-1.48,1.99-1.76,3.34-.27,1.31,.06,2.11,1.25,2.19,.5,.03,1.03,.11,1.51-.02,.69-.19,1.98,.24,1.89-.89-.07-.88-1.23,.02-1.9-.07-.11-.01-.22,.04-.33,.04-.55,0-1.23,.31-1.56-.36-.35-.71,.12-1.41,.43-2.03,.14-.28,.39-.46,.59-.7,1.11-1.36,2.21-2.72,3.32-4.08,0,0,0,0,0,0,.94-.67,1.9-1.31,2.8-2.04,.6-.49,.93-1.1-.12-1.48h.04Z"/>
  <path class="cls-6" d="M272.15,47.92c1.12,1.61,.87,3.95,2.08,5.56,.36,.48-.25,.82-.65,1.11-2.98,2.18-5.94,4.41-9.13,6.79,0-2.46-.05-4.78,.02-7.1,.03-.88,.86-1.18,1.28-1.79,2.36-1.07,4.27-3.05,6.4-4.58Z"/>
  <path class="cls-6" d="M240.07,70.84c.21-.14,.41-.28,.62-.42,.59,1.81,1.16,.05,1.73-.01,.44,2.28,.19,4.53-.17,6.78-.09,.53-.27,.94-.73,1.25-.88,.57-1.55,1.5-2.54,1.92-.92,.39-1.76,2.38-2.4,1.65-.69-.77-.51-2.68-.71-4.1,2.06-1.79,2.93-4.6,4.2-7.07Z"/>
  <path class="cls-5" d="M238.84,147.62c-.77,.27-.9-.61-.98-1.31-.22-2.15-.37-4.32-.53-6.48-.04-.56,.14-1.04,.66-.77,2.39,1.22,4.75,2.54,5.64,5.87,.26,.99,.29,1.81-.97,1.88-1.22,.07-2.43,.5-3.82,.81Z"/>
  <path class="cls-6" d="M255.01,60.7c.48-.34,.86-.47,.81,.48-.11,1.9-.17,3.8-.34,5.68-.08,.92-3.28,4.18-4.01,4.23-.3,.02-.58-.01-.54-.5,.17-2.35-.31-4.74,.3-7.06,1.45-.57,2.53-1.86,3.78-2.84Z"/>
  <path class="cls-6" d="M226.95,81.75c.53-.13,.91,.1,1.02,.73,.1,.53-.23,.87-.56,1.15-4.2,3.68-7.79,8.1-10.93,13.09-.35,.55-.61,1.65-1.39,1.39-.76-.25-.13-1.31-.45-1.93-.11-.22-.11-.52-.16-.78,1.7,.23,2.64-.7,3.32-2.64,.47-1.35,1.02-2.78,2.32-3.45,.91-.47,1.07-1.88,.37-2.41,1.89-2,4.26-3.09,6.22-4.97,.11,0,.19-.06,.24-.19Z"/>
  <path class="cls-7" d="M269.91,64.06c-.12-.22-.23-.47-.38-.66q-2.01-2.55,.5-4.57c1.12-.89,2.14-2.12,3.47-.08,.6,.92,.91,1.2,.15,2.17-.45,.58-.56,1.59-.73,2.44-.51,2.56-.49,2.57-2.45,1.34-.19-.22-.38-.43-.57-.65Z"/>
  <path class="cls-9" d="M194.09,150.56c.97,.35,2.06,.35,2.97,1.49-2.73,1.3-5.17,3.72-8.32,1.6-.46-.31-1.09-.27-1.62-.45-.4-.13-1.04-.01-1.05-.72,0-.64,.62-.7,1.01-.87,2.13-.9,4.36-1.14,6.6-1.14,.14,.03,.28,.05,.41,.08Z"/>
  <path class="cls-7" d="M203.43,114.21c-.53-.08-.83-.33-1.04-.79-.35-.77-.67-1.58-1.11-2.27-.76-1.22-.37-1.94,.62-2.48,.76-.41,1.58-.65,2.29-1.23,.6-.48,1.33-1.41,2.03-.26,.65,1.08,1.4,2.27,.29,3.6-.87,1.04-1.73,2.08-2.61,3.11-.15,.17-.37,.25-.47,.32Z"/>
  <path class="cls-6" d="M220.49,86.91c.7,.53,.53,1.94-.37,2.41-1.3,.67-1.85,2.1-2.32,3.45-.68,1.94-1.62,2.86-3.32,2.64-.29-1.34-1.16-2.61-.4-4.1,2.32-1.09,4.13-3.24,6.42-4.39Z"/>
  <path class="cls-5" d="M225.52,148.8c-.95,.12-1.89,.26-2.84,.36-.68,.07-1.22-.23-.83-1.15,.74-1.72,1.55-3.41,2.43-5.03,.59-1.08,1.13-1.1,1.54,.32,.47,1.62,.43,3.48,1.59,4.79,.3,.34,.02,.79-.39,.83-.5,.05-1,.01-1.5,.01v-.14Z"/>
  <path class="cls-9" d="M206.21,150.44c3.26-1.62,6.54-1.75,9.93-.21-3.33,3.5-6.62,.83-9.93,.21Z"/>
  <path class="cls-6" d="M220.8,93.49c1.7-2.77,4.01-4.78,6.04-7.14,.28-.33,.92-.59,.95-.17,.1,1.05,.51,2.33-.49,3.12-1.67,1.32-3.37,2.58-5.07,3.85-.32,.24-.69,.41-1.03,.61-.14-.09-.27-.18-.41-.27Z"/>
  <path class="cls-9" d="M148.63,155.66c3.03-1.43,5.87-1.84,8.89-.72-2.78,2.73-5.69,1.95-8.89,.72Z"/>
  <path class="cls-9" d="M177.19,153.49c-2.35,2.04-4.59,2.78-7.06,1.11-.23-.16-.6-.17-.52-.61,.04-.19,.29-.42,.48-.47,2.29-.64,4.58-1.28,7.1-.03Z"/>
  <path class="cls-2" d="M272.56,92.08c.63,1.09,.69,2.34,1.53,3.05,.23,.19,.29,.72,.08,.92-1.21,1.17-1.51,3.03-2.4,4.87-.98-3.35-.47-6.07,.79-8.84Z"/>
  <path class="cls-15" d="M220.49,86.91c-2.29,1.15-4.1,3.31-6.42,4.39-.02-.23-.03-.47-.05-.7,.47-1.03,1.93-.73,2.04-2.24,0,0,0,.01,0,.01,.87,.05,1.6-.23,2.04-1.24h0c.33,.11,.59,.04,.69-.41,0,0-.02,.01-.02,.01,1.63-.93,3.38-1.67,4.4-3.68,0,0,0,0,0,0,1.07,.11,1.81-.77,2.66-1.32,.37-.24,.7-.53,.89,.21-1.95,1.87-4.33,2.97-6.22,4.97Z"/>
  <path class="cls-15" d="M205.94,97.72c-3.37,2.48-6.75,4.95-10.12,7.43-.01-.24-.03-.48-.04-.72,.34-.46,.69-.92,1.03-1.38,0,0-.02,.02-.02,.02,.3,.02,.57-.04,.7-.42,0,0-.02,.02-.02,.02,.44-.11,.95-.09,1.03-.84,0,0-.02,.02-.02,.02,.44-.02,.83-.1,.69-.83,0,0-.01,.01-.01,.01,.76-.02,1.65,.21,1.7-1.24,0,0-.01,.02-.01,.02,.56,.11,1.04,.08,1.03-.83,0,0-.02,.02-.02,.02,.74-.06,1.64,.19,1.69-1.24,0,0,0,0,0,0,.97,.21,1.53-.7,2.22-1.22l.16,1.2Z"/>
  <path class="cls-2" d="M270.08,115.73c-.38-3.07,.2-5.31,1.68-6.16-.34,2.22,1.67,5.13-1.68,6.16Z"/>
  <path class="cls-2" d="M255.08,145.46c1.47-2.53,3.37-2.97,5.15-3.62,.41-.15,.71,.11,.62,.61-.13,.78-.26,1.75-1.13,1.76-1.47,.03-2.81,.71-4.65,1.24Z"/>
  <path class="cls-16" d="M249.86,159.41c-1.99,.39-3.89-.11-5.78-.83,.78-.29,1.7,.44,2.41-.46,2.15,.28,4.27,.2,6.36-.53,.02,.42,.11,.79,.45,1-.68,.29-1.3,.86-2.09,.68-.04-.45-.22-.7-.63-.7-.46,0-.7,.26-.71,.83Z"/>
  <path class="cls-9" d="M137.11,156.56c-1.76,.59-3.37,1.91-5.29,1.49-.4-.09-1.04-.06-.97-.8,.05-.53,.61-.5,.98-.54,1.75-.19,3.48-.84,5.28-.15Z"/>
  <path class="cls-2" d="M272.3,81.11c-.52-1.91,.04-3.3,.3-4.71,.1-.55,.16-1.39,.71-1.48,.28-.05,.75,.43,.96,.97,.28,.7,.63,1.46,0,2.02-.85,.75-1.28,1.82-1.97,3.2Z"/>
  <path class="cls-2" d="M265.46,133.71c-.22-1.25,.06-2.1,.4-2.95,.34-.85,.76-1.64,1.5-1.94,.28-.12,.4,.54,.44,.94,.1,1.02,.55,2.14-.6,2.79-.54,.31-1.05,.69-1.74,1.16Z"/>
  <path class="cls-1" d="M247.87,146.99c1.66-.9,3.13-.56,4.62-.11-1.05,2.1-2.06,2.15-4.62,.11Z"/>
  <path class="cls-15" d="M272.15,47.92c-2.13,1.53-4.04,3.51-6.4,4.58,0-.23-.01-.47-.02-.7,.43-.78,1.61-.54,1.69-1.8,0,0-.01,.01-.01,.01,.36,.18,.58,.02,.69-.42h-.02c.45-.07,1.06,.14,1.03-.82,0,0-.01,.01-.01,.01,.86,.17,1.35-.39,1.7-1.24,0,0,0,0,0,0,.53,.23,.92-.11,1.29-.48,.02,.28,.05,.56,.07,.85Z"/>
  <path class="cls-15" d="M255.01,60.7c-1.25,.97-2.33,2.26-3.78,2.84,.17-.72-.48-1.82,.68-2.07,.09,.09,.18,.19,.27,.28,.02-.1,.03-.21,.05-.31,0,0,0,.01,0,.01,.9,.32,1.34-1.17,2.24-.85,.19,.04,.37,.07,.56,.11Z"/>
  <path class="cls-8" d="M226.71,81.94c-.19-.73-.52-.45-.89-.21-.85,.55-1.59,1.44-2.66,1.32,.79-1.59,2.44-1.77,3.44-3.03,.19-.24,.56-.28,.76,.01,.3,.43-.11,.5-.31,.67-.34,.29-.33,.66-.09,1.04-.04,.12-.12,.19-.24,.19Z"/>
  <path class="cls-8" d="M303.57,23.07c-1.43,1.4-2.72,3.1-4.73,3.27,1.41-1.44,2.76-3,4.73-3.27Z"/>
  <path class="cls-8" d="M223.15,83.06c-1.02,2.01-2.76,2.75-4.4,3.68,1.1-1.87,2.66-2.92,4.4-3.68Z"/>
  <path class="cls-8" d="M308.64,19c-1.05,1.9-2.58,2.87-4.39,3.26,1.25-1.51,2.73-2.56,4.39-3.26Z"/>
  <path class="cls-8" d="M254.45,60.59c-.9-.32-1.34,1.17-2.24,.85,.79-1.57,2.29-1.83,3.66-3.32-.22,1.6-1.06,1.81-1.42,2.47Z"/>
  <path class="cls-8" d="M179.83,115.59c.72-.98,1.72-1.48,2.61-2.16,.09,.12,.17,.25,.26,.37-.26,.73-1.29,.84-1.07,1.94,0,0,0,0,0,0-.53-.35-.91,.43-1.41,.29-.13-.15-.25-.3-.38-.45Z"/>
  <path class="cls-8" d="M298.84,26.34c-.3,1.51-1.41,1.65-2.37,2.04,.33-1.45,1.33-1.78,2.37-2.04Z"/>
  <path class="cls-8" d="M216.06,88.36c-.1,1.51-1.57,1.21-2.04,2.24-.54-.2-.84-.52-.18-.98,.71-.48,1.47-.85,2.21-1.26Z"/>
  <path class="cls-8" d="M285,36.94c-.18,.87-.98,1-1.35,1.65-.4,.14-.79,.28-1.19,.42,.63-1.13,1.39-1.97,2.54-2.07Z"/>
  <path class="cls-8" d="M311.34,16.96c-.42,1.61-1.56,1.83-2.7,2.04,.67-1.13,1.66-1.63,2.7-2.04Z"/>
  <path class="cls-8" d="M267.42,50c-.08,1.26-1.26,1.02-1.69,1.8-.2,.09-.43,.31-.58,.25-.34-.15-.08-.36,.04-.54,.57-.88,1.4-1.2,2.23-1.5Z"/>
  <path class="cls-8" d="M287.36,34.91c-.27,1.58-1.44,1.62-2.38,2.05,.37-1.4,1.55-1.43,2.38-2.05Z"/>
  <path class="cls-8" d="M205.78,96.53c-.7,.53-1.25,1.43-2.22,1.22,.54-.95,1.09-1.85,2.22-1.22Z"/>
  <path class="cls-17" d="M242.43,70.41c-.58,.06-1.15,1.82-1.73,.01,.52-.12,.72-1.04,1.38-.82,.12,.27,.24,.54,.35,.81Z"/>
  <path class="cls-8" d="M203.56,97.75c-.05,1.43-.95,1.18-1.69,1.24,.35-.84,.92-1.25,1.69-1.24Z"/>
  <path class="cls-8" d="M293.77,30.42c-.45,.96-1.14,1.33-2.03,1.23,.47-.9,1.08-1.48,2.03-1.23Z"/>
  <path class="cls-8" d="M296.48,28.38c-.45,.95-1.14,1.32-2.03,1.23,.48-.87,1.02-1.61,2.03-1.23Z"/>
  <path class="cls-8" d="M289.21,33.68c-.2,1.33-1.03,1.3-1.86,1.24,.43-.83,1.03-1.29,1.86-1.24Z"/>
  <path class="cls-8" d="M218.09,87.14c-.43,1-1.17,1.28-2.04,1.24,.5-.84,1.15-1.32,2.04-1.24Z"/>
  <path class="cls-8" d="M196.81,103.05c-.34,.46-.69,.92-1.03,1.38-.54-.06-.99-.24-.33-.87,.36-.34,.82-.72,1.37-.51Z"/>
  <path class="cls-8" d="M291.74,31.64c-.14,1.26-.77,1.52-1.69,1.22,.31-.92,1.07-.93,1.69-1.22Z"/>
  <path class="cls-8" d="M272.08,47.08c-.38,.37-.76,.71-1.29,.48-.26-1.17,.66-.92,1.05-1.14,.36-.19,.28,.35,.24,.65Z"/>
  <path class="cls-8" d="M270.8,47.55c-.35,.85-.84,1.41-1.7,1.24,.35-.85,.78-1.53,1.7-1.24Z"/>
  <path class="cls-8" d="M200.86,99.79c-.05,1.44-.94,1.22-1.7,1.24,.37-.81,1.1-.9,1.7-1.24Z"/>
  <path class="cls-16" d="M284.56,124.3c-.03-.91,.12-1.79,.38-2.64-.04,.9,.41,1.9-.38,2.64Z"/>
  <path class="cls-16" d="M282.83,130.73c.15-.62-.04-1.48,.78-1.63-.03,.7,.28,1.64-.78,1.63Z"/>
  <path class="cls-8" d="M269.11,48.78c.04,.96-.58,.75-1.03,.83-.05-.98,.5-.88,1.03-.83Z"/>
  <path class="cls-16" d="M257.04,62.25c.18,.29,.16,.57-.03,.84-.18-.11-.51-.19-.53-.34-.06-.47,.31-.42,.55-.5Z"/>
  <path class="cls-8" d="M182.44,113.42c.28-.44,.63-.71,1.11-.66,.05,.07,.11,.13,.16,.2-.11,.69-.63,.63-1.02,.83-.09-.12-.17-.25-.26-.37Z"/>
  <path class="cls-8" d="M198.5,101.82c-.08,.75-.59,.73-1.03,.84-.09-1.06,.5-.9,1.03-.84Z"/>
  <path class="cls-8" d="M201.88,98.97c0,.91-.47,.94-1.03,.83,.24-.46,.58-.75,1.03-.83Z"/>
  <path class="cls-16" d="M269.13,64.68c-.48,.02-.79-.25-.93-.8,.46,0,.89,.06,.93,.8Z"/>
  <path class="cls-16" d="M276.66,32.54c-.14,.43-.4,.62-.79,.55,.1-.53,.41-.61,.79-.55Z"/>
  <path class="cls-16" d="M238.03,167.13c.22-.22,.45-.2,.69-.04-.22,.43-.44,.46-.69,.04Z"/>
  <path class="cls-8" d="M294.44,29.61c.19,.78-.21,.84-.68,.81-.17-.75,.25-.78,.68-.81Z"/>
  <path class="cls-8" d="M290.05,32.87c.11,.86-.32,.91-.84,.81,.07-.58,.37-.83,.84-.81Z"/>
  <path class="cls-8" d="M199.17,101.01c.14,.73-.25,.81-.69,.83-.04-.6,.28-.77,.69-.83Z"/>
  <path class="cls-8" d="M304.24,22.26c.2,.79-.2,.85-.68,.82-.16-.74,.28-.75,.68-.82Z"/>
  <path class="cls-8" d="M184.36,112.22s-.04,0-.04,0c-.01,.47-.27,.64-.6,.74-.05-.07-.11-.13-.16-.2,.19-.35,.46-.53,.8-.55Z"/>
  <path class="cls-16" d="M275.42,33.71c-.02,.43-.28,.66-.54,.88,.04-.42,.26-.68,.54-.88Z"/>
  <path class="cls-8" d="M268.1,49.59c-.11,.44-.33,.6-.69,.42,.11-.42,.34-.58,.69-.42Z"/>
  <path class="cls-12" d="M179.83,115.59c.13,.15,.25,.3,.38,.45-.15,.12-.29,.25-.44,.37-.1-.14-.19-.27-.29-.41,.12-.14,.23-.28,.35-.41Z"/>
  <path class="cls-8" d="M197.49,102.65c-.14,.38-.4,.44-.7,.42,.03-.63,.36-.54,.7-.42Z"/>
  <path class="cls-16" d="M269.73,65.33c-.19-.21-.39-.42-.58-.63,.21,0,.43,0,.64,0,0,0,.02,.03,.02,.03-.03,.2-.05,.4-.08,.6Z"/>
  <path class="cls-16" d="M257.61,53.29c-.1,.3-.19,.6-.29,.9-.04-.36-.01-.69,.29-.9Z"/>
  <path class="cls-8" d="M218.77,86.73c-.1,.45-.36,.52-.69,.42,.06-.54,.27-.73,.69-.42Z"/>
  <path class="cls-16" d="M269.91,64.06c.19,.22,.38,.43,.57,.65-.23,0-.45,.01-.68,.02,0,0-.02-.03-.02-.03,.04-.21,.09-.43,.13-.64Z"/>
  <path class="cls-16" d="M244.74,165.48c.13-.1,.27-.2,.4-.29-.13,.1-.27,.2-.4,.29Z"/>
  <path class="cls-16" d="M212.73,167.8c.17-.18,.28-.05,.4,.09-.13-.03-.27-.06-.4-.09Z"/>
  <path class="cls-15" d="M194.09,150.56c-.14-.03-.28-.05-.41-.08,.14,.03,.28,.05,.41,.08Z"/>
  <path class="cls-16" d="M283.94,127.86c-.07-.12-.06-.23,.03-.34,.02,.12,.01,.23-.03,.34Z"/>
  <path class="cls-15" d="M283.13,39.53c-.16,.1-.33,.2-.49,.29,.16-.1,.33-.2,.49-.29Z"/>
  <path class="cls-16" d="M181.51,171.16c.19-.18,.39-.2,.59-.02-.2,0-.39,.01-.59,.02Z"/>
  <path class="cls-12" d="M221.13,94.09c-.13-.18-.26-.36-.4-.54,0,0,.06-.06,.06-.06,.13,.09,.27,.18,.4,.27,0,.12-.03,.23-.07,.33Z"/>
  <path class="cls-8" d="M252.22,61.43c-.02,.1-.03,.21-.05,.31-.09-.09-.18-.19-.27-.28,.1-.07,.2-.08,.31-.03Z"/>
  <polygon class="cls-16" points="265.65 47.2 265.57 47.26 265.53 47.14 265.65 47.2"/>
  <path class="cls-16" d="M272.46,69.33c0-.21,0-.43,0-.64,0,.21,0,.43,0,.64Z"/>
  <path class="cls-12" d="M179.13,116.42c.12-.14,.24-.28,.35-.42,.1,.14,.19,.27,.29,.41-.1,.12-.2,.24-.3,.36-.11-.12-.23-.24-.34-.35Z"/>
  <path class="cls-14" d="M235.11,74.93c-.17-.99-.17-1.97,.2-2.89,.26-.65,.6-1.33,1.37-.81-.12,1.31-1.14,2.27-1.02,3.68-.18,0-.37,.01-.55,.02Z"/>
  <path class="cls-16" d="M259.37,49.63c-.05,.53-.38,.63-.73,.71,.02-.23,.03-.45,.05-.68,.23,0,.46-.02,.69-.03Z"/>
  <path class="cls-14" d="M249.86,159.41c0-.56,.25-.82,.71-.83,.41,0,.59,.24,.63,.7-.45,.04-.89,.09-1.34,.13Z"/>
  <path class="cls-15" d="M179.47,116.77c.1-.12,.2-.24,.3-.36,.15-.12,.29-.25,.44-.37,.5,.14,.88-.64,1.41-.29-1.11,1.36-2.21,2.72-3.32,4.08-.19,.24-.45,.42-.59,.7-.31,.62-.77,1.32-.43,2.03,.33,.67,1.01,.37,1.56,.36,.11,0,.22-.06,.33-.04,.67,.09,1.83-.81,1.9,.07,.09,1.13-1.2,.7-1.89,.89-.48,.13-1,.06-1.51,.02-1.19-.07-1.52-.88-1.25-2.19,.28-1.35,.89-2.44,1.76-3.34,.46-.48,.85-1.03,1.28-1.56Z"/>
  <path class="cls-15" d="M183.72,112.97c.32-.1,.58-.28,.6-.74,1.04,.37,.72,.99,.12,1.48-.9,.73-1.87,1.37-2.8,2.04-.21-1.11,.81-1.22,1.07-1.94,.38-.2,.91-.14,1.02-.83Z"/>
</svg>