<svg xmlns="http://www.w3.org/2000/svg" xmlns:xlink="http://www.w3.org/1999/xlink" width="400" zoomAndPan="magnify" viewBox="0 0 300 299.999988" height="400" preserveAspectRatio="xMidYMid meet" version="1.0"><rect x="-30" width="360" fill="#ffffff" y="-29.999999" height="359.999986" fill-opacity="1"/><rect x="-30" width="360" fill="#ffcc5c" y="-29.999999" height="359.999986" fill-opacity="1"/><path fill="#2cb7b3" d="M 161.503906 119.058594 C 160.898438 124.308594 152.367188 123.851562 144.183594 131.191406 C 142.160156 133.003906 140.167969 134.84375 138.253906 136.847656 C 138.0625 137.046875 137.871094 137.25 137.679688 137.453125 C 137.558594 137.585938 137.4375 137.714844 137.316406 137.847656 C 129.902344 145.917969 123.808594 156.730469 121.917969 177.929688 C 121.476562 182.894531 121.304688 188.480469 121.242188 194.019531 C 121.230469 195.125 121.222656 196.234375 121.21875 197.332031 C 121.210938 199.597656 121.214844 201.832031 121.21875 203.988281 C 121.222656 205.117188 121.226562 206.230469 121.230469 207.308594 C 121.257812 216.996094 121.203125 224.375 119.902344 224.507812 C 115.035156 224.996094 113.574219 206.566406 102.621094 206.125 C 96.359375 205.871094 94.441406 215.457031 90.53125 214.832031 C 88.121094 214.445312 85.59375 209.191406 83.988281 201.035156 C 83.761719 199.894531 83.554688 198.695312 83.367188 197.445312 C 83.125 195.808594 82.917969 194.085938 82.75 192.289062 C 82.628906 190.96875 82.53125 189.609375 82.457031 188.210938 C 81.496094 170.128906 84.738281 145.980469 97.613281 126.078125 C 97.652344 126.015625 97.691406 125.957031 97.730469 125.894531 C 98.152344 125.246094 98.585938 124.601562 99.03125 123.960938 C 99.914062 122.683594 100.839844 121.429688 101.808594 120.195312 C 107.015625 113.5625 116.136719 102.285156 130.1875 101.125 C 131.429688 101.023438 132.675781 101.003906 133.917969 101.054688 C 133.9375 101.054688 133.957031 101.058594 133.976562 101.058594 C 134.367188 101.074219 134.757812 101.101562 135.152344 101.132812 C 135.1875 101.136719 135.222656 101.136719 135.257812 101.140625 C 149.179688 102.304688 162.285156 112.292969 161.503906 119.058594 Z M 161.503906 119.058594 " fill-opacity="1" fill-rule="nonzero"/><path fill="#218986" d="M 97.160156 123.65625 C 97.316406 124.722656 97.683594 126.230469 98.648438 127.726562 C 100.664062 130.847656 103.953125 131.839844 107.027344 132.886719 C 118.175781 136.679688 117.980469 136.441406 122.746094 137.203125 C 131.050781 138.527344 138.222656 138.839844 138.355469 136.4375 C 138.484375 134.167969 131.03125 129.136719 97.160156 123.65625 Z M 97.160156 123.65625 " fill-opacity="1" fill-rule="nonzero"/><path fill="#2cb7b3" d="M 141.109375 83.070312 C 135.234375 81.050781 97.667969 75.035156 99.941406 85.148438 C 102.433594 96.222656 88.464844 101.910156 90.453125 113.640625 C 94.40625 136.933594 132.40625 138.132812 163.027344 139.160156 C 169.121094 139.363281 210.902344 141.46875 215.550781 118.992188 C 218.214844 106.105469 205.261719 113.140625 205.792969 92.339844 C 206.050781 82.246094 182.898438 92.777344 168.507812 91.152344 C 158.824219 90.058594 153.074219 87.183594 141.105469 83.070312 Z M 141.109375 83.070312 " fill-opacity="1" fill-rule="nonzero"/><path fill="#d5f1f0" d="M 121.226562 207.308594 C 119.226562 206.621094 117.140625 205.984375 115.457031 204.660156 C 114.609375 203.996094 113.984375 203.105469 113.484375 202.160156 C 113.0625 201.367188 112.675781 200.566406 112.148438 199.839844 C 111.679688 199.265625 111.152344 198.75 110.574219 198.289062 C 110.570312 198.285156 110.570312 198.285156 110.566406 198.28125 C 109.679688 197.625 108.710938 197.085938 107.699219 196.640625 C 107.695312 196.636719 107.695312 196.632812 107.6875 196.632812 C 106.039062 195.953125 104.300781 195.5 102.535156 195.242188 C 100.535156 194.992188 98.511719 195 96.515625 195.25 C 94.417969 195.550781 92.363281 196.113281 90.40625 196.925781 C 88.605469 197.707031 86.902344 198.699219 85.335938 199.886719 C 84.871094 200.25 84.417969 200.636719 83.984375 201.039062 C 83.757812 199.898438 83.554688 198.699219 83.367188 197.445312 C 84.367188 196.667969 85.429688 195.964844 86.527344 195.347656 C 88.929688 193.996094 91.5625 193.003906 94.265625 192.460938 C 96.964844 191.914062 99.75 191.75 102.480469 192.089844 C 105.421875 192.453125 108.347656 193.25 110.921875 194.757812 C 112.222656 195.515625 113.457031 196.480469 114.402344 197.660156 C 114.941406 198.328125 115.398438 199.023438 115.789062 199.789062 C 116.113281 200.417969 116.421875 201.054688 116.832031 201.632812 C 117.042969 201.878906 117.273438 202.105469 117.523438 202.3125 C 118.042969 202.6875 118.613281 202.984375 119.199219 203.242188 C 119.203125 203.246094 119.207031 203.246094 119.214844 203.25 C 119.871094 203.515625 120.542969 203.753906 121.21875 203.988281 C 121.222656 205.121094 121.222656 206.230469 121.226562 207.3125 Z M 121.226562 207.308594 " fill-opacity="1" fill-rule="nonzero"/><path fill="#d5f1f0" d="M 121.238281 194.019531 C 121.226562 195.125 121.222656 196.234375 121.214844 197.332031 C 119.214844 196.644531 117.136719 196.007812 115.457031 194.6875 C 114.609375 194.019531 113.984375 193.128906 113.484375 192.183594 C 113.0625 191.394531 112.679688 190.597656 112.152344 189.871094 C 111.6875 189.296875 111.15625 188.78125 110.582031 188.316406 C 110.578125 188.316406 110.574219 188.3125 110.574219 188.3125 L 110.574219 188.308594 C 109.679688 187.648438 108.707031 187.105469 107.6875 186.660156 C 107.683594 186.652344 107.675781 186.652344 107.667969 186.648438 C 106.015625 185.972656 104.28125 185.515625 102.515625 185.261719 C 100.523438 185.011719 98.503906 185.023438 96.507812 185.273438 C 94.425781 185.574219 92.390625 186.128906 90.445312 186.933594 C 88.617188 187.722656 86.890625 188.726562 85.304688 189.929688 C 84.394531 190.652344 83.539062 191.441406 82.746094 192.289062 C 82.625 190.96875 82.527344 189.609375 82.453125 188.214844 C 83.714844 187.132812 85.085938 186.179688 86.527344 185.371094 C 88.929688 184.019531 91.5625 183.027344 94.265625 182.480469 C 96.964844 181.9375 99.746094 181.773438 102.480469 182.109375 C 105.421875 182.476562 108.347656 183.273438 110.921875 184.78125 C 112.21875 185.539062 113.457031 186.503906 114.402344 187.683594 C 114.941406 188.351562 115.394531 189.046875 115.789062 189.8125 C 116.113281 190.441406 116.421875 191.078125 116.832031 191.652344 C 117.039062 191.902344 117.269531 192.128906 117.519531 192.335938 C 118.035156 192.703125 118.59375 193 119.171875 193.253906 C 119.171875 193.253906 119.175781 193.253906 119.175781 193.257812 C 119.855469 193.53125 120.546875 193.777344 121.238281 194.015625 Z M 121.238281 194.019531 " fill-opacity="1" fill-rule="nonzero"/><path fill="#d5f1f0" d="M 134.585938 101.957031 L 135.257812 100.972656 L 135.226562 102.164062 L 136.351562 101.765625 L 135.621094 102.710938 L 136.765625 103.046875 L 135.621094 103.386719 L 136.351562 104.332031 L 135.226562 103.929688 L 135.257812 105.125 L 134.585938 104.140625 L 133.914062 105.125 L 133.945312 103.929688 L 132.820312 104.332031 L 133.546875 103.386719 L 132.40625 103.046875 L 133.546875 102.710938 L 132.820312 101.765625 L 133.945312 102.164062 L 133.914062 100.972656 Z M 134.585938 101.957031 " fill-opacity="1" fill-rule="nonzero"/><path fill="#d5f1f0" d="M 117.054688 119.953125 L 117.730469 118.96875 L 117.699219 120.160156 L 118.820312 119.761719 L 118.09375 120.707031 L 119.238281 121.046875 L 118.09375 121.382812 L 118.820312 122.328125 L 117.699219 121.929688 L 117.730469 123.121094 L 117.054688 122.136719 L 116.382812 123.121094 L 116.417969 121.929688 L 115.292969 122.328125 L 116.019531 121.382812 L 114.875 121.046875 L 116.019531 120.707031 L 115.292969 119.761719 L 116.417969 120.160156 L 116.382812 118.96875 Z M 117.054688 119.953125 " fill-opacity="1" fill-rule="nonzero"/><path fill="#d5f1f0" d="M 153.085938 111.0625 L 153.761719 110.078125 L 153.726562 111.269531 L 154.851562 110.871094 L 154.125 111.816406 L 155.269531 112.152344 L 154.125 112.492188 L 154.851562 113.4375 L 153.726562 113.039062 L 153.761719 114.230469 L 153.085938 113.246094 L 152.414062 114.230469 L 152.445312 113.039062 L 151.320312 113.4375 L 152.050781 112.492188 L 150.90625 112.152344 L 152.050781 111.816406 L 151.320312 110.871094 L 152.445312 111.269531 L 152.414062 110.078125 Z M 153.085938 111.0625 " fill-opacity="1" fill-rule="nonzero"/><path fill="#d5f1f0" d="M 167.875 123.054688 L 168.550781 122.070312 L 168.515625 123.261719 L 169.640625 122.863281 L 168.914062 123.808594 L 170.058594 124.144531 L 168.914062 124.484375 L 169.640625 125.429688 L 168.515625 125.03125 L 168.550781 126.222656 L 167.875 125.238281 L 167.203125 126.222656 L 167.234375 125.03125 L 166.109375 125.429688 L 166.839844 124.484375 L 165.695312 124.144531 L 166.839844 123.808594 L 166.109375 122.863281 L 167.234375 123.261719 L 167.203125 122.070312 Z M 167.875 123.054688 " fill-opacity="1" fill-rule="nonzero"/><path fill="#d5f1f0" d="M 117.054688 144.792969 L 117.730469 143.808594 L 117.699219 145 L 118.820312 144.601562 L 118.09375 145.546875 L 119.238281 145.886719 L 118.09375 146.222656 L 118.820312 147.167969 L 117.699219 146.769531 L 117.730469 147.960938 L 117.054688 146.976562 L 116.382812 147.960938 L 116.417969 146.769531 L 115.292969 147.167969 L 116.019531 146.222656 L 114.875 145.886719 L 116.019531 145.546875 L 115.292969 144.601562 L 116.417969 145 L 116.382812 143.808594 Z M 117.054688 144.792969 " fill-opacity="1" fill-rule="nonzero"/><path fill="#d5f1f0" d="M 91.039062 172.96875 L 91.714844 171.980469 L 91.679688 173.175781 L 92.804688 172.773438 L 92.078125 173.722656 L 93.222656 174.058594 L 92.078125 174.398438 L 92.804688 175.34375 L 91.679688 174.941406 L 91.714844 176.136719 L 91.039062 175.152344 L 90.367188 176.136719 L 90.398438 174.941406 L 89.273438 175.34375 L 90.003906 174.398438 L 88.859375 174.058594 L 90.003906 173.722656 L 89.273438 172.773438 L 90.398438 173.175781 L 90.367188 171.980469 Z M 91.039062 172.96875 " fill-opacity="1" fill-rule="nonzero"/><path fill="#d5f1f0" d="M 98.953125 140.003906 L 99.625 139.019531 L 99.59375 140.210938 L 100.714844 139.8125 L 99.988281 140.757812 L 101.132812 141.097656 L 99.988281 141.433594 L 100.714844 142.378906 L 99.59375 141.980469 L 99.625 143.171875 L 98.953125 142.1875 L 98.277344 143.171875 L 98.3125 141.980469 L 97.1875 142.378906 L 97.914062 141.433594 L 96.769531 141.097656 L 97.914062 140.757812 L 97.1875 139.8125 L 98.3125 140.210938 L 98.277344 139.019531 Z M 98.953125 140.003906 " fill-opacity="1" fill-rule="nonzero"/><path fill="#d5f1f0" d="M 193.121094 126.246094 L 193.796875 125.261719 L 193.761719 126.453125 L 194.886719 126.054688 L 194.160156 127 L 195.304688 127.339844 L 194.160156 127.675781 L 194.886719 128.621094 L 193.761719 128.222656 L 193.796875 129.414062 L 193.121094 128.429688 L 192.449219 129.414062 L 192.480469 128.222656 L 191.359375 128.621094 L 192.085938 127.675781 L 190.941406 127.339844 L 192.085938 127 L 191.359375 126.054688 L 192.480469 126.453125 L 192.449219 125.261719 Z M 193.121094 126.246094 " fill-opacity="1" fill-rule="nonzero"/><path fill="#d5f1f0" d="M 197.984375 99.9375 L 198.65625 98.953125 L 198.621094 100.144531 L 199.746094 99.746094 L 199.019531 100.691406 L 200.164062 101.027344 L 199.019531 101.367188 L 199.746094 102.3125 L 198.621094 101.914062 L 198.65625 103.105469 L 197.984375 102.121094 L 197.308594 103.105469 L 197.339844 101.914062 L 196.21875 102.3125 L 196.945312 101.367188 L 195.800781 101.027344 L 196.945312 100.691406 L 196.21875 99.746094 L 197.339844 100.144531 L 197.308594 98.953125 Z M 197.984375 99.9375 " fill-opacity="1" fill-rule="nonzero"/><path fill="#d5f1f0" d="M 177.453125 105.769531 L 177.890625 105.125 L 177.871094 105.902344 L 178.601562 105.644531 L 178.128906 106.261719 L 178.875 106.480469 L 178.128906 106.699219 L 178.601562 107.316406 L 177.871094 107.054688 L 177.890625 107.835938 L 177.453125 107.191406 L 177.011719 107.835938 L 177.035156 107.054688 L 176.300781 107.316406 L 176.777344 106.699219 L 176.027344 106.480469 L 176.777344 106.261719 L 176.300781 105.644531 L 177.035156 105.902344 L 177.011719 105.125 Z M 177.453125 105.769531 " fill-opacity="1" fill-rule="nonzero"/><path fill="#d5f1f0" d="M 139.777344 125.511719 L 140.21875 124.867188 L 140.195312 125.648438 L 140.929688 125.386719 L 140.453125 126.003906 L 141.199219 126.222656 L 140.453125 126.445312 L 140.929688 127.0625 L 140.195312 126.800781 L 140.21875 127.578125 L 139.777344 126.9375 L 139.339844 127.578125 L 139.359375 126.800781 L 138.625 127.0625 L 139.101562 126.445312 L 138.355469 126.222656 L 139.101562 126.003906 L 138.625 125.386719 L 139.359375 125.648438 L 139.339844 124.867188 Z M 139.777344 125.511719 " fill-opacity="1" fill-rule="nonzero"/><path fill="#d5f1f0" d="M 102.792969 158.070312 L 103.230469 157.425781 L 103.210938 158.207031 L 103.941406 157.945312 L 103.46875 158.5625 L 104.214844 158.78125 L 103.46875 159.003906 L 103.941406 159.621094 L 103.210938 159.359375 L 103.230469 160.136719 L 102.792969 159.496094 L 102.351562 160.136719 L 102.375 159.359375 L 101.640625 159.621094 L 102.117188 159.003906 L 101.371094 158.78125 L 102.117188 158.5625 L 101.640625 157.945312 L 102.375 158.207031 L 102.351562 157.425781 Z M 102.792969 158.070312 " fill-opacity="1" fill-rule="nonzero"/><path fill="#d5f1f0" d="M 114.875 175.527344 L 115.316406 174.882812 L 115.292969 175.664062 L 116.027344 175.402344 L 115.550781 176.019531 L 116.296875 176.238281 L 115.550781 176.457031 L 116.027344 177.074219 L 115.292969 176.8125 L 115.316406 177.59375 L 114.875 176.949219 L 114.4375 177.59375 L 114.457031 176.8125 L 113.726562 177.074219 L 114.199219 176.457031 L 113.453125 176.238281 L 114.199219 176.019531 L 113.726562 175.402344 L 114.457031 175.664062 L 114.4375 174.882812 Z M 114.875 175.527344 " fill-opacity="1" fill-rule="nonzero"/><path fill="#d5f1f0" d="M 101.132812 107.152344 L 101.644531 106.402344 L 101.621094 107.3125 L 102.476562 107.007812 L 101.921875 107.726562 L 102.792969 107.984375 L 101.921875 108.242188 L 102.476562 108.960938 L 101.621094 108.65625 L 101.644531 109.566406 L 101.132812 108.816406 L 100.621094 109.566406 L 100.644531 108.65625 L 99.789062 108.960938 L 100.34375 108.242188 L 99.472656 107.984375 L 100.34375 107.726562 L 99.789062 107.007812 L 100.644531 107.3125 L 100.621094 106.402344 Z M 101.132812 107.152344 " fill-opacity="1" fill-rule="nonzero"/><path fill="#d5f1f0" d="M 113.21875 89.167969 L 113.730469 88.417969 L 113.703125 89.324219 L 114.558594 89.019531 L 114.007812 89.738281 L 114.875 89.996094 L 114.007812 90.253906 L 114.558594 90.972656 L 113.703125 90.667969 L 113.730469 91.578125 L 113.21875 90.828125 L 112.703125 91.578125 L 112.730469 90.667969 L 111.875 90.972656 L 112.429688 90.253906 L 111.558594 89.996094 L 112.429688 89.738281 L 111.875 89.019531 L 112.730469 89.324219 L 112.703125 88.417969 Z M 113.21875 89.167969 " fill-opacity="1" fill-rule="nonzero"/></svg>