<svg width="50" height="50" viewBox="0 0 50 50" fill="none" xmlns="http://www.w3.org/2000/svg">
<g clip-path="url(#clip0_47_192)">
<path d="M25 0C11.2146 0 0 11.2146 0 25C0 38.7854 11.2146 50 25 50C38.7854 50 50 38.7854 50 25C50 11.2146 38.7854 0 25 0ZM25 47.9167C12.3646 47.9167 2.08333 37.6354 2.08333 25C2.08333 12.3646 12.3646 2.08333 25 2.08333C37.6354 2.08333 47.9167 12.3646 47.9167 25C47.9167 37.6354 37.6354 47.9167 25 47.9167Z" fill="#F76A89"/>
<path d="M23.8042 12.3187C22.9479 11.4729 21.675 11.2291 20.5625 11.6937C19.4437 12.1604 18.75 13.1979 18.75 14.4021V35.6C18.75 36.8041 19.4437 37.8416 20.5625 38.3083C20.9375 38.4646 21.3292 38.5416 21.7188 38.5416C22.4854 38.5416 23.2375 38.2437 23.8042 37.6833L34.5437 27.0854C35.1062 26.5291 35.4167 25.7896 35.4167 25.0021C35.4167 24.2146 35.1062 23.475 34.5437 22.9187L23.8042 12.3187ZM33.0792 25.6L22.3417 36.1979C21.9479 36.5875 21.4958 36.4375 21.3646 36.3833C21.2042 36.3167 20.8333 36.1062 20.8333 35.5979V14.4021C20.8333 13.8937 21.2063 13.6833 21.3646 13.6166C21.4271 13.5916 21.5625 13.5437 21.7312 13.5437C21.9146 13.5437 22.1354 13.6 22.3417 13.8021L33.0792 24.4C33.2438 24.5604 33.3333 24.775 33.3333 25C33.3333 25.225 33.2438 25.4396 33.0792 25.6Z" fill="#F76A89"/>
</g>
<defs>
<clipPath id="clip0_47_192">
<rect width="50" height="50" fill="white"/>
</clipPath>
</defs>
</svg>
