<?xml version="1.0" encoding="UTF-8"?>
<svg id="Layer_1" data-name="Layer 1" xmlns="http://www.w3.org/2000/svg" viewBox="0 0 414 200">
  <defs>
    <style>
      .cls-1 {
        fill: #f7b7d3;
      }

      .cls-2 {
        fill: #00bff3;
      }

      .cls-3 {
        fill: #eeece2;
      }

      .cls-4 {
        fill: #fff9b8;
      }

      .cls-5 {
        fill: #fff200;
      }

      .cls-6 {
        fill: #fbb040;
      }

      .cls-7 {
        fill: #9ed2f1;
      }

      .cls-8 {
        fill: #b7ac97;
      }

      .cls-9 {
        fill: #bbad98;
      }

      .cls-10 {
        fill: #c6c3bf;
      }

      .cls-11 {
        fill: #dfdad5;
      }

      .cls-12 {
        fill: #433e3a;
      }

      .cls-13 {
        fill: #524d4c;
      }
    </style>
  </defs>
  <path class="cls-12" d="M136.82,22.28c-.86-2.19-1.81-4.36-2.22-6.69,.32-.03,.65-.05,.97-.08h-.01c.1,.16,.2,.33,.3,.5,1.61,4.38,3.23,8.76,4.84,13.14,4.7,12.77,10.47,25.08,17.84,36.63,3.64,5.71,1.77,4.75,7.73,1.88,1.05-.51,1.06-1,.41-1.91-2.43-3.36-4.51-6.92-6.5-10.54-4.07-7.43-7.88-14.97-11.01-22.81-2.23-5.56-4.24-11.2-6.34-16.81,.1-.11,.13-.23,.08-.37,.28-.07,.57-.15,.85-.22,1.95,3.43,2.94,7.23,4.32,10.87,3.92,10.41,8.56,20.48,14.11,30.19,1.7,2.98,3.55,5.87,5.39,8.77,.66,1.04,1.27,1.45,2.59,.71,4.68-2.63,9.51-5.02,14.13-7.74,1.76-1.04,3.43-2.26,5.24-3.23,.85-.46,.95-.99,.81-1.87-.71-4.4,1.03-7.74,4.92-10.07,3.98-2.39,7.9-1.97,11.56,.54,1.34,.92,2.23,.93,3.61,.17,7.02-3.88,14.21-7.46,21.11-11.53,3.86-2.28,7.8-4.39,11.69-6.6,1.04-.59,1.9-.91,1.3,.84-3.88,1.62-7.35,3.91-10.95,6-5.97,3.47-12.18,6.57-18.22,9.94-2.32,1.3-4.93,2.19-6.85,4.11h0c-2.53,.58-4.46,2.27-6.71,3.36-.25,.12-.75,.36-.37,.73,.19,.18,.66,.08,1.01,.11,.01,.16,.02,.32,.04,.49-.72,.5-.8,1.09-.27,1.78,.73,.95,1.49,1.88,2.18,2.85,.94,1.33,1.9,1.47,3.41,.64,5.33-2.93,10.78-5.66,16.13-8.55,7.94-4.28,15.83-8.63,23.74-12.95,1.64,1.22,.06,1.55-.66,1.95-4.96,2.72-9.94,5.39-14.92,8.07-4.92,2.64-9.82,5.31-14.77,7.89-1.4,.73-2.04,1.37-1.43,3.06,.75,2.08,1.17,4.3,1.49,6.49,.21,1.44,.94,1.95,2.31,2.25,5.59,1.22,10.6,3.58,14.95,7.19,.06,.13,.17,.2,.32,.21,0,0,.07,.04,.07,.04,.13,.79,.6,1.19,1.44,1.14,.13,.1,.26,.19,.39,.29,1.73,.17,3.42,.71,5.19,.58,.15-.05,.29-.01,.4,.1,.86,.66,1.84,.98,2.94,.98,2.45,.91,4.69,2.17,6.67,3.86-.01,.48-.02,.96-.04,1.44-2.18-1.64-4.53-3-6.96-4.24-.26-.4-.66-.43-1.09-.35-1.82-.32-3.56-1.06-5.45-1.02-.11-.02-.22-.03-.33-.05,.04,.17,.07,.34,.11,.52,.97,1.29,1.96,2.57,2.9,3.88,.51,.71,1.05,1.3,1.99,1.47,3.37,.61,6.37,1.85,9.02,4.07,3.07,2.57,5.67,5.34,6.52,9.3,.21,.99,.63,1.85,2.03,2.05-.45-6.02-4-10.43-7.73-14.76,.53-.04,1.07-.08,1.6-.12,.29,.27,.58,.54,.86,.81,.14,.15,.28,.3,.43,.45,.18,.21,.35,.41,.53,.62-.07,.51,0,.95,.64,1.07,.21,.24,.42,.47,.63,.71,.06,.84,.23,1.61,1.29,1.78,.13,.16,.26,.32,.39,.48,1.17,.81,.76,2.35,1.65,3.29,.62,1.63,1.04,3.29,1.11,5.05,.05,1.3,.27,2.57,1.26,3.67,5.25,5.82,7.48,12.44,5.41,20.1-.4,1.5,.45,2.69,.98,3.91,.31,.71,.87,.84,1.42-.22,1.1-2.12,1.1-4.41,1.6-6.62l.94,.87c-.01,2.85-.71,5.55-2.11,8.05-.45,.8-.41,1.46-.22,2.34,1.42,6.68,2.27,13.27-4.24,18.29-.79,.61-.37,1.65,.04,2.33,.51,.84,1.19,.09,1.63-.22,2.2-1.59,4.2-3.32,5.55-5.73,2.78-4.97,3.44-10.22,2.78-15.74-.37-3.07-1.53-5.91-2.26-8.87l.92-.42c3.62,8.11,4.06,16.29,.39,24.48-.87,1.95-.67,3.96-.96,5.93-1.04,7.01-3.3,13.44-8,19.05-1.89,2.25-2.39,5.3-4.07,7.76-5.32,7.8-12.99,11.53-22.4,12.43-.93,.09-1.87,0-2.67,.65-5.3,4.34-11.3,3.73-17.39,2.2-1-.25-2.09-.36-2.89-1.25-.43-.47-1.24-.29-1.85-.03-5.27,2.27-10.48,2.07-15.78-.05-2.2-.88-4.46-1.61-6.51-2.79-.91-.53-1.65,.02-2.43,.37-.98,.44-1.9,1.01-3.02,1.09-.4-.07-.76-.03-1,.34-.34,.06-.67,.11-1.01,.17-.47-.17-.89-.19-1.19,.29-.82,.41-1.7,.39-2.59,.32-.15-.21-.3-.2-.44,.01-.29,0-.58,0-.87,0-.29-.37-.58-.36-.87,0-.44,0-.88-.01-1.32-.02-.6-.53-1.3-.31-1.97-.25-.21-.03-.42-.07-.63-.1-.3-.41-.71-.39-1.15-.27-.34-.04-.68-.09-1.03-.13-.73-.56-1.54-.83-2.48-.68-.97-.2-1.92-.42-2.74-1-.47-.44-.91-.94-1.68-.6-2.5,.57-4.85,1.7-7.48,1.79-.35-.4-.62-.28-.85,.12-.57,.21-1.14,.4-1.76,.28-.59-.44-1.16-.44-1.7,.09-1.02,0-2.03,0-3.05,0-.63-.6-1.35-.39-2.06-.22-.92-.15-1.84-.31-2.76-.46-.16-.03-.32-.07-.48-.1-1.82-.05-3.49-1.89-5.43-.41-.19,.11-.38,.21-.57,.32-.4,.16-.79,.32-1.19,.49-.93,.29-2.05,.06-2.74,.96-.43,.07-.87,.14-1.3,.21-.13-.35-.27-.7-.4-1.05,1.68-.38,3.34-.79,4.9-1.55,1.17-.57,1.26-.94,.07-1.62-1.61-.92-3.31-1.81-4.63-3.04-1.6-1.5-3.14-1.33-5.11-.98-4.19,.74-8.53,1.99-12.36-1.18-.33-.27-.66-.13-.99,.04-1.13,.57-2.26,1.13-3.72,1.85,5.15,3.25,10.4,5.47,16.17,6.55,.35,1.28-1.19,.19-1.27,.94-.81,.02-1.55-.22-2.25-.59-.17-.03-.34-.06-.51-.09-1.07,.02-1.96-.49-2.9-.87-.32-.52-.63-.49-.91,.03-.86,.55-1.73,1.08-2.74,1.32-.52-.03-1.03-.05-1.55-.08,0,0-.06-.07-.06-.07,.01-.24,.03-.48,.04-.73,.68-.22,1.36-.43,2.04-.65,.28-.16,.83-.37,.81-.48-.09-.53-.59-.64-1.09-.66-1.96-1.27-4.34-1.79-6.18-3.27-.61-.56-1.21-1.16-2.09-.41-1.16,.27-2.32,.54-3.48,.81-2.64-.01-5.27,.63-7.94,.14-.97-.18-1.45-.43-1.23-1.41,10.55,2.02,18.52-3.43,26.82-8.39-4.9-2.83-12.21-3-18.16-.67-3.06,1.2-5.81,3.04-8.98,4.01-.15-.58,.14-1.05,.4-1.53,.3-.12,.59-.25,.89-.37,.69-.28,1.73-.35,1.83-1.13,.1-.75-.72-1.23-1.45-1.54-.56-.34-1.11-.68-1.67-1.02-.05-.57,0-1.08,.78-1.12,1.14,.71,2.33,1.36,3.18,2.41,.39,.49,.85,.82,1.46,.5,2.26-1.15,4.73-1.82,7.57-2.91-4.2-1.86-7.86-3.72-12.22-2.32-.42-.1-.85-.29-.81-.74,.07-.65,.75-.64,1.24-.81,.48,.1,.94,.14,1.33-.24,.82,.02,1.64,.04,2.46,.06,.19,.04,.38,.09,.57,.13,2.13,.37,4.28,.83,6.09,1.96,3.39,2.13,6.38,2.05,9.12-.95,.35,.01,.7,0,.89-.35,.85-.21,1.7-.42,2.55-.63,.62,.1,1.24,.16,1.85-.08,.85,.09,1.7,.18,2.54,.28,.24,.29,.56,.33,.92,.26,1.57,.61,3.27,.9,4.72,1.8,.18,.37,.5,.47,.89,.43,2.24,.68,4.42-.45,6.65-.16,.51,.19,.95,.19,1.2-.37,.64-.88,1.41-1.62,2.5-1.98,.17-.1,.34-.2,.51-.3,.2-.07,.41-.14,.62-.22,.9,.46,2.13-1.23,2.85,.41-1.8,.57-3.83,.68-5.15,2.57,2.35,.64,4.7,1.14,6.32,2.98,.25,.28,.61,.27,.99,.12,3.07-1.23,6.14-2.45,9.51-3.79-1.68-1.01-3.2-1.38-4.7-1.8-.5-1.65,.95-.41,1.3-.81,.49,.11,1.07,.09,1.46,.34,2.43,1.57,5.1,1.47,7.84,1.21,.94-.09,1.79-.25,2.7-.56,4.86-1.66,9.66-2.05,13.82,1.62,1.22,1.08,2.32,.39,3.44,.21,1.11-.19,.52-1.26,.76-1.92,1.07-2.93-.42-4.87-2.38-6.98-5.81-6.24-10.88-13.01-14.4-20.71-2.21-4.85-3.93-9.88-3.19-15.34,.28-2.05-.63-3.97-.79-5.98-.42-5.14-.07-10.04,3.98-13.98,.64-.63,.61-1.36,.6-2.13-.04-5.01-.06-10.03,1.88-14.81,.24-.6,.25-1.02-.25-1.48-.3-.28-.44-.69-.7-1.01-3.58-4.4-4.03-4.56-9.34-2.31-4.33,1.83-8.6,3.8-12.89,5.7-1.06,.47-1.62,.98-.24,1.75,.37,.21,.72,.47,1.06,.73,2.38,1.81,2.26,2.6-.59,3.81-.43-.07-.8-.03-.99,.42,0,0,.03-.02,.03-.02-.17,.08-.34,.16-.5,.24-.56,.19-1.12,.38-1.68,.57-.65-.03-1.35-.21-1.82,.44-.18,.03-.36,.06-.54,.09-2,.1-4,.19-5.99,.29-.63,.07-1.21-.02-1.69-.44-.1-.47-1.43-.65-.35-1.39h0c.08,.32,.3,.45,.62,.42,.2,.05,.4,.09,.6,.14,.52,.6,1.22,.41,1.88,.38,.49,0,.99,.01,1.48,.02,.31-.04,.62-.08,.92-.12,2.42-.38,4.82-.84,7.05-1.91,2-.96,2.03-1.11,.22-2.33-.3-.2-.61-.37-.91-.57-1.9-1.3-1.89-2.22,.23-3.31,2.65-1.36,5.31-2.73,8.09-3.81,13.07-5.06,26.03-10.31,38.15-17.3,1.4-.8,1.98-1.35,.71-2.76-.88-.98-1.48-2.22-2.07-3.4-.3-.6-.61-.89-1.29-.78-.34-.02-.68-.04-1.02-.07,.07-.81,1.37-.84,1.23-1.91-2.04-.03-3.02,1.7-4.53,2.49-5.2,2.73-10.36,5.53-15.49,8.38-.6,.33-1.75,.34-1.64,1.49h0c-.38-.48-.82-.14-1.13,.03-5.85,3.19-11.68,6.41-17.51,9.63-.75,.4-1.5,.8-2.26,1.2-2.19,.84-4.13,2.1-6.08,3.35-2.59,2.49-5.79,4.42-7.49,7.71-.5-.18-.7-.57-.76-1.04l.46-.75c.27-.08,.42-.24,.36-.53,0,0-.02,.03-.02,.03,.41-.08,.54-.37,.55-.73,3.34-4.5,8.25-7.02,13.11-9.6,3.23-1.71,6.39-3.54,9.67-5.14,1.66-.81,1.97-1.41,.84-3.03-7.75-11.15-13.23-23.39-18.39-35.77-.05-.12-.03-.27-.04-.41,.05-.35,0-.67-.37-.86-.07-.19-.14-.37-.21-.56-.04-.23-.09-.46-.13-.68-.84-1.59-1.43-3.26-1.91-4.98,.05-.49,.12-.99-.44-1.29,0,0,0,.02,0,.02-.07-.15-.15-.29-.22-.44-.07-.27-.13-.55-.2-.82,.05-.36-.02-.67-.38-.86Zm129.29,95.89c-.16-.92-.5-1.75-1.25-2.38l-.07-.07c-.49-1.6-1.44-2.93-2.66-4.6-.66,3.23-1.23,6.04-.85,8.95,.03,1.73,.06,3.46,.09,5.18-.06,.08-.06,.15,.02,.22,.08,.83,.04,1.69,.26,2.48,1.45,5.08,2.97,10.13,4.42,15.21,.42,1.45,1.15,.96,1.79,.31,1.75-1.79,2.41-4.04,2.89-6.39,1.12-5.47-.58-10.43-2.81-15.32-.48-1.21-.98-2.41-1.77-3.47l-.06-.12Zm-6.67,16.15c-.8,.95-.67,1.93-.09,2.93,.01,.42,.02,.84,.03,1.25,.04,.19,.04,.53,.12,.56,.28,.07,.3-.19,.33-.39,3.08-2.32,2.48-5.16,1.23-8.1-.14-.34-.29-.71-.68-.67-.64,.06-.38,.58-.42,.96-.15,1.16-.34,2.31-.51,3.47Zm-12.33,30.15c-3.56,1.36-6.77,3.16-9.23,6.57,2.66,0,4.91,.22,6.58-1.67,.42,.13,.55,.44,.56,.83-2.11,2.89-4.31,5.71-7.13,8-1.19,.96-1.53,1.51,.27,2.17,3.68,1.36,7.05,.5,9.89-1.64,6.2-4.68,9.91-10.62,8.91-18.58-.28-2.22-.49-2.25-2.67-1.23-2.9,1.36-3.75,4.29-5.66,6.4-.38-.03-.77-.07-1.15-.1-.01-.1,.02-.18,.11-.23,0-.3-.15-.49-.47-.52Zm-21.2,3.91c.03,.15,.07,.29,.1,.44-.03,.21-.05,.41-.08,.62-.27,.12-.48,.32-.3,.6,.19,.28,.45,.21,.66-.04,.46-.18,.91-.36,1.37-.54,.26-.05,.52-.09,.78-.14,.75-.38,1.55-.54,2.39-.38,.33,0,.66,0,.99,0,.85-.22,1.63-.04,2.37,.36,.19,.03,.37,.06,.56,.08,1.54,.78,2.55,.19,3.62-1,2.22-2.45,5.03-4.14,8.28-5.11,2.45-.73,4.08-2.79,4.22-5.27,.23-4.27,1.53-8.07,5.37-10.68,.34-.23,.76-.58,.81-.92,.39-2.56,1.82-4.93,1.04-7.72-.41-1.48-.09-3.14,.23-4.74,.83-4.23,1.94-8.44,1.4-12.82-.08-.62-.01-1.26-.48-1.78-3.59-3.94-4.1-8.6-3.39-13.53,.09-.63,.33-1.31-.39-1.69-2.32-1.24-4.03-3.39-6.73-4.09-2.99-.77-5.49-2.43-7.81-4.35-1.55-1.28-2.74-2.86-3.98-4.4-.3-.37-.65-.87-1.21-.73-.65,.16-.44,.81-.45,1.24-.09,2.33-.36,4.76-1.72,6.6-1.63,2.22-1.91,4.34-1.07,6.76,.59,1.71,.28,3.65,1.24,5.23,4.67,7.65,5.03,15.64,2.35,23.95-.35,1.09-.93,2.16-.65,3.43,1.04,4.6,1.23,9.26,.45,13.91-.8,4.79-2.81,9.06-6.68,12.28-1.17,.98-1.97,2.05-2.51,3.38-.24,0-.47-.01-.71-.02-.35-.37-.18-.74-.05-1.15,1.07-3.36,1.22-6.77,.53-10.27-2.74,4.34-5.27,8.74-7.77,13.14-.19,.34-.43,.74,.07,1.08,1.01,.69,5.03-.04,5.83-1,.31-.37,.28-1.46,1.3-.75Zm-21.74,14.84c-5.81,.55-11.32,.24-15.16-4.88-.12-.16-.29-.32-.48-.41-.73-.36-1.59-.21-2.02,.25-.67,.72,.33,1.02,.76,1.36,3.54,2.77,7.36,5.15,11.64,6.69,5.23,1.88,10.58,2.28,16.47,.63-3.13-1.67-4.48-5.84-8.89-3.96-.79-.01-1.62-.29-2.32,.32Zm-26.01,3.34c3.94,.2,7.81-.05,11.46-1.65,.5-.22,1.26-.25,1.39-.86,.16-.73-.7-.76-1.12-1.08-.96-.74-2.11-1.29-2.92-2.15-1.88-1.98-3.79-1.98-6.34-1.08-6.36,2.24-12.67,3.27-17.88-2.61-.84-.95-1.94,.22-2.58,.76-.84,.71,.35,1,.74,1.31,4.29,3.42,9.15,5.76,14.58,7,.81,.73,1.78,.35,2.69,.36Zm88.64-79.83c-1.23-3.19-3.17-5.84-5.65-8.34-3.19-3.22-7.08-4.63-11.33-5.57-1.29-.28-1.78,.32-1.43,1.5,.5,1.68,1.28,3.2,2.54,4.51,2.04,2.11,4.5,3.66,6.95,5.26,4.13,2.69,5.77,7.17,8.23,11.05,.49,.82,.51,1.98,1.8,2.38,.67-3.79,.82-7.39-1.11-10.79Zm-51.26,56.05c-.07,.69-.13,1.39-.2,2.08-.31,.24-.35,.5-.09,.8,.27,.81-.33,2.06,.84,2.37,1.12,.3,1.46-.9,2.03-1.57,2.1-2.42,3.04-5.54,5.01-7.98,3.55-4.4,4.16-9.33,3.57-14.55-.26-2.31-.3-4.69-1.38-7.28-3.19,7.45-6.07,14.58-8.51,21.88-.15,.46,.06,1.26-.93,.98,.02-.15,.04-.31,.05-.46-.2-.98,0-1.91,.31-2.86,1.71-5.15,3.83-10.16,5.84-15.2,3.46-8.7,3.58-5.7-.69-13.94-.26-.49-.53-.98-.83-1.45-.25-.39-.35-1.05-.99-.92-.44,.09-.48,.62-.58,1.03-2.4,9.86-4.23,19.81-4.88,29.94-.5,.55-.5,1.11,0,1.66,0,1.12,.01,2.24,.02,3.35-.91,1.56-.06,2.02,1.41,2.11Zm-22.1-61.11c.67,1.59,1.35,3.17,2.02,4.76,1.47,3.46,2.63,7.07,4.88,10.18,.39,.54,.75,1.4,1.59,1.17,.74-.21,.91-1.04,.93-1.75,.05-2.09,.22-4.18-.14-6.25-1.25-7.26-3.01-14.39-5.74-21.29-1.67-4.22-2.51-8.56-1.04-13.03,.35-1.07,.02-1.52-1.21-1.52-2.82-.01-5.12,2.08-5.33,4.99-.55,7.75,.51,15.24,3.92,22.35,.04,.13,.08,.27,.13,.4Zm-5.38-24.65c-3,.73-3.77,3.33-4.62,5.58-3.37,8.92-5.11,18.09-3.56,27.59,.58,3.57,1.69,7.02,3.38,10.28,.44,.85,.88,.85,1.38,.15,.4-.57,.74-1.2,1.02-1.83,2.14-4.81,2.53-9.93,2.85-15.07,.54-8.88-.85-17.74-.36-26.62,.06-.08,.11-.16,.17-.24-.08,.06-.16,.11-.24,.17Zm12.97-1.61c-.66,.43-.46,1.21-.46,1.85,0,3.95,.82,7.72,3.01,11.12,6.01,9.36,13.64,17.59,20.28,26.5,.24,.32,.52,.79,1.02,.63,.73-.22,.53-.91,.57-1.42,.42-6.42-1.09-12.45-4.38-18.01-4.96-8.38-11.99-14.99-20.04-20.69Zm27.43,87.53c2.56-2.71,4.35-5.18,5.32-8.22,1.73-5.47,1.45-10.96,.5-16.5-.73-4.26-1.99-8.32-4.07-12.17-2.89-5.35-6.92-9.9-10.82-14.54-1.27-1.51-1.86-3.55-3.92-4.8,0,.59-.04,.92,0,1.25,.68,5.36,2.38,10.47,5.26,15.04,5.78,9.19,8.17,18.95,7.18,29.66-.3,3.22,.72,6.52,.56,10.29Zm-28.24-120.59c-5.5,.03-9.96,5.43-8.51,10.9,1.73,6.55,5.27,11.78,11.99,14.62,2.64,1.12,5.26,2.26,7.98,3.16,1.13,.38,2.29,.72,1.64-1.39-1.28-4.17-3.85-7.41-7.09-10.29-2.51-2.23-4.6-4.8-5.94-7.84-.6-1.37-.55-2.67,1.26-3.44,1.51-.65,2.86-1.63,4.33-2.37,1.06-.53,1.11-.96,.12-1.59-1.66-1.06-3.41-1.83-5.79-1.76Zm-32.7,82.49c-.56,1.01-.33,1.55-.25,2.09,.76,5.45,2.87,10.43,5.71,15.15,5.28,8.79,11.93,16.55,19.36,23.7,1.83,1.76,3.97,3.26,6.71,3.6,.67,.08,1.46,.12,1.79-.45,.36-.64-.49-.89-.87-1.23-5.31-4.68-9.56-10.19-13.7-15.81-3.89-5.28-5.74-11.77-11.07-16.23-3.35-2.81-5.54-6.67-7.67-10.83Zm20.79,43.64c-1.58,.12-3.23,0-4.73,.39-6.34,1.65-12.44,3.96-18.47,6.45-1.46,.61-1.26,1.19-.32,2.05,2.78,2.55,6.11,3.51,9.78,2.65,8.26-1.95,16.31-4.63,24.63-6.36,1.03-.21,1.13-.71,.59-1.47-.49-.68-1-1.32-1.87-1.66-3.09-1.2-6.16-2.42-9.61-2.07Zm-10.07-38.01c-.19,.11-.38,.22-.58,.33,.44,1.2,.93,2.39,1.33,3.6,4.6,14.07,13.7,25.21,24.78,35.03,.98,.87,2.2,1.35,3.58,1.22,.55-.05,1.25,0,1.53-.58,.25-.52-.3-.86-.56-1.26-3.02-4.73-6.17-9.36-10.29-13.3-.91-.88-1.59-1.98-2.4-2.96-4.34-5.26-6.88-11.79-12.46-16.17-.15-.12-.16-.39-.3-.54-1.54-1.79-3.09-3.57-4.64-5.35Zm27.68,11.59c-.6-4.12-.27-8.23-.61-12.31-.14-1.7-.55-3.22-1.38-4.74-3.57-6.55-8.15-12.61-10.48-19.78-.17-.53,0-1.57-.83-1.45-.65,.1-1.2,.89-1.42,1.63-1.22,4.09-1.39,8.17-.08,12.3,1.72,5.39,4.89,10.05,7.96,14.74,2.13,3.26,3.78,6.84,6.84,9.6Zm21.84,31.77c-2.84-2.08-5.91-2.26-9.02-2.12-9.37,.42-18.29,3.09-27.34,5.09-1.59,.35-1.41,1.06-.49,1.93,3.49,3.33,7.83,3.88,12.44,3.45,4.63-.43,9.04-1.78,13.37-3.34,3.75-1.36,7.4-2.96,11.04-5.01Zm-49.85-66.77c-3.17,5.43-3.8,11.08-1.38,16.92,3.82,9.21,11.27,15.39,19.67,21.57-.55-1.61-.93-2.69-1.29-3.77-1.26-3.8-2.07-7.72-5-10.89-1.35-1.46-2.17-3.36-3.87-4.65-1.36-1.03-2.34-2.42-3.23-3.89-2.85-4.73-3.92-9.95-4.9-15.29Zm-3.91,6.46c.66-3.37,1.77-6.26,3.76-8.78,.29-.37,.33-.76,.32-1.17-.07-3.27,.15-6.52,.81-9.74,1.02-4.9,2.11-9.77,4.53-14.25,1-1.85,.62-2.54-1.58-2.69-.82-.06-1.61,.13-2.24,.63-4.1,3.24-6.83,7.48-7.9,12.35-1.21,5.52-1.09,11.22-.02,16.79,.43,2.22,.58,4.66,2.31,6.86Zm48.52-31.45c3.85,.85,7.46-1.37,11.35-2.25,1.34-.3,.66-.93,.09-1.41-2.71-2.27-6.07-3.06-9.44-3.84-2.69-.62-5.47-.46-8.15-.91-4.74-.8-9.31-2.31-13.58-4.51-1.37-.71-1.7-.48-1.76,.96-.16,3.75,2.39,5.85,5.12,7.71,4.76,3.25,10.19,4.43,16.37,4.24Zm-30.63,42.08c.41,2.18,.75,4.37,1.23,6.53,2.29,10.31,6.35,19.98,11.37,29.32,1.79,3.33,3.42,6.74,6.22,9.43,.66,.63,1.43,1.35,2.44,.55,.96-.77,.81-1.61,.18-2.58-1.63-2.48-2.66-5.21-3.56-8-.47-1.44-.73-2.95-1.53-4.3-2.14-3.62-4.01-7.38-5.37-11.32-2.45-7.11-6.72-13.28-10.97-19.62Zm-44.01,55.8c1.15-.09,2.66-.17,4.15-.52,6.81-1.6,12.48-5.76,19.08-7.82,.8-.25,1-.7,.23-1.34-2.57-2.13-5.26-3.45-8.89-2.57-7.56,1.83-14.34,5.44-21.46,8.27-1.33,.53-1.24,1.13-.31,1.95,1.95,1.74,4.33,2.1,7.21,2.03Zm67.09-58.78c.95-1.87,1.04-3.53,.64-5.26-.79-3.38-1.69-6.76-1.38-10.28,.07-.77-.37-1.31-.81-1.87-2.05-2.61-4.08-5.23-6.13-7.83-4.86-6.17-9.07-12.57-7.85-20.86,.07-.46,.3-1.2-.58-1.33-.68-.1-.76,.49-1.01,.89-2.25,3.55-1.48,7.27-.5,10.91,1.11,4.12,3.3,7.84,5.26,11.63,2.41,4.65,5.17,9.13,7.32,13.92,1.5,3.34,3.28,6.56,5.05,10.08Zm17.14-7.36c0-.63,.06-1.26-.02-1.87-.08-.69-.38-1.36-.42-2.04-.58-8.89-4.15-16.74-9.04-24.14-.67-1.01-1.45-1.93-2.86-1.99-.61-.03-1.21-.03-1.39,.67-.56,2.13-1.94,4.33,.59,6.22,.43,.32,.68,.89,1,1.35,4.67,6.63,7.57,13.9,6.62,21.94-.35,2.95,.15,5,2,7.04,.14,.16,.26,.33,.36,.52,.74,1.36,1.18,.74,1.62-.2,1.12-2.39,1.46-4.92,1.53-7.5Zm25.31-20.1c-1.56-5.76-5.76-8.75-10.32-10.93-5.22-2.5-10.9-2.3-16.47-.49-1.83,.6-1.8,1.53-.83,2.8,1.47,1.94,3.55,2.96,5.87,3.68,4.42,1.36,8.99,1.91,13.56,2.56,2.7,.38,5.27,1.26,8.2,2.38Zm8.64,56.05c-.13-3.17-1.39-7.16-2.66-11.14-.12-.37,0-.92-.49-1.06-.62-.17-.86,.39-1.15,.76-2.14,2.78-2.52,6.13-3.22,9.38-1.14,5.26-.24,10.52,0,15.78,.03,.75-.59,1.83,.54,2.2,1,.33,1.98-.11,2.78-.8,.71-.61,1.35-1.27,1.71-2.12,1.59-3.83,2.61-7.78,2.49-12.98Zm-59.92-43.54c-1.29,1.35-1.34,2.87-1.51,4.26-.57,4.45,0,8.77,2.24,12.75,3.04,5.37,5.68,10.89,7.52,16.82,.65-2.31,1.15-4.59,1.52-6.88,.2-1.21,.75-2.35,.43-3.68-2.02-8.27-6.69-15.42-10.2-23.26Zm-36.35-2.45c-6.94,7.35-3.09,23.08,8.13,32.89,.31-.27,.3-.65,.18-.95-1.77-4.29-2.38-8.85-3.53-13.29-.58-2.25-.02-4.8-1.11-6.73-2.09-3.7-2.88-7.66-3.67-11.92Zm-45.12,75.44c1.36-.16,2.73-.29,4.09-.48,6.28-.87,11.66-4.04,17.37-6.36,.48-.2,1.31-.22,1.33-.87,.02-.7-.75-.96-1.32-1.23-3.81-1.84-7.82-1.45-11.67-.5-5.25,1.3-9.59,4.5-14.2,7.09-1.16,.65-.76,1.17,.15,1.59,1.34,.62,2.79,.71,4.26,.77Zm88.38-15.48c-.4-6.2,.02-12.35,.75-18.49,.08-.68,.06-1.41-.13-2.07-.86-3-1.61-6.05-2.74-8.96-1.08-2.8-2.4-5.55-4.23-8.04,.08,12.84,1.02,25.53,6.36,37.55Zm-16.17-90.7c.88-.4,2.39-.25,2.7-1.44,.3-1.17,.37-2.46,.44-3.68,.06-.9-1.35-1.1-1.95-1.78-.28-.31-.67-.54-.94-.86-.67-.78-1.31-.82-2.25-.3-5.88,3.26-11.8,6.44-17.9,9.3-1.1,.52-.91,.94-.25,1.66,.74,.8,1.4,1,2.42,.4,1.59-.94,3.34-.94,4.94-.06,.95,.53,1.56,.31,2.52-.05,3.3-1.24,5.89-4.61,10.25-3.18Zm67.18,96.39c-2.12,.45-3.77,1.75-5.67,1.18-1.41-.42-1.95,.21-2.51,1.21-1.09,1.97-2.49,3.74-4.03,5.4-4.18,4.5-9.66,6.17-14.51,4.07-2.06-.89-3.38-.5-4.76,1.03,2.08,1.76,4.41,2.72,7.23,2.79,5.93,.16,10.98-2.09,15.67-5.21,3.86-2.56,6.49-6.14,8.58-10.47Zm-109.5,16.37c2.93,.21,6.02-.49,9.09-1.3,.48-.13,1.16-.11,1.28-.62,.17-.72-.68-.78-1.1-1.08-1.21-.88-2.55-1.61-3.66-2.59-1.33-1.17-2.48-1.22-4.24-.67-5.96,1.85-12.03,3.69-17.25-1.85-.94-1-2.21,.08-2.86,.63-.85,.71,.48,1.08,.92,1.41,5.14,3.88,10.82,6.35,17.82,6.08Zm86.8-13.58c-5.29,.2-9.87,1.53-14.29,3.49-2.36,1.05-4.73,2.07-7.04,3.21-.96,.47-2.87,.47-2.7,1.5,.21,1.25,2.03,1.54,3.33,1.94,.34,.1,.71,.08,1.07,.11,4.78,.47,8.92-1.22,12.8-3.63,2.66-1.65,4.89-3.74,6.81-6.62Zm-4.38,13.88c-1.95-.58-3.68-1.3-5-2.55-1.11-1.05-2.07-1.07-3.47-.63-3.97,1.26-8.02,1.67-11.53-1.02-1.36-1.04-2.43-1.05-3.85-.57-1.25,.42-1.43,.76-.48,1.82,2.88,3.24,6.98,4.37,10.88,5.47,4.6,1.3,9.27,.8,13.46-2.53Zm2.75-106.61c-2.78-5.8-10.71-11.55-18.37-13.44q-2.74-.68-2.51,1.99,.38,4.3,4.65,5.04c.99,.17,1.97,.39,2.94,.65,3.27,.87,6.69,1.68,8.88,4.38,1.25,1.55,2.56,1.74,4.41,1.39Zm34.25,65.64c-1.8,1.47-3.35,3.02-5.35,4.04-.88,.44-1.1,1.12-1.15,2.04-.2,3.55-.82,7.03-2.07,10.4-1.12,3.02-2.69,5.42-6.5,5.34-1.13-.02-1.02,.79-1.12,1.43-.12,.78,.44,.95,1.08,.92,.71-.04,1.41,0,2.11-.31,3.98-1.77,6.5-4.8,8.6-8.4,2.82-4.84,3.86-10.06,4.4-15.46Zm-56.35-74.44c-.38-5.33-2.22-10.28-3.11-15.4-.16-.91-.66-.89-1.4-.56-1.88,.86-3.57,2-5.25,3.16-.78,.54-.33,.9,.09,1.3,3.47,3.28,6.13,7,6.92,11.73,.19,1.14,1.16,1.19,1.98,1.21,1.23,.03,.65-.95,.77-1.43Zm16.06,42.96c-.19,3.6-1.02,6.97-2.9,10.08-.12,.2-.12,.57,0,.78,1.6,2.85,2.82,5.85,4.03,9.37,2.31-7.23,2.21-13.8-1.13-20.22Zm-2.46-13.95c1.13-1.03,1.34-2.16,1.8-3.15,.91-1.96,1.07-4.1,.71-6.13-.23-1.33-2.13-1.43-3.09-2.33-.47-.44-.95-.86-1.41-1.3-.25-.25-.47-.55-.9-.38-.37,.15-1.59,3.78-1.36,4.15,1.7,2.82,3.1,5.77,4.24,9.14Zm-98.59,69.17c-2.79-1.56-5.5-2.22-8.27-2.6-1.99-.27-3.83,.47-5.52,1.45-.36,.21-.8,.46-.71,.95,.11,.56,.66,.42,1.05,.48,2.28,.37,4.49,1,6.61,1.88,.71,.29,1.37,.41,2.08,.09,1.48-.69,2.94-1.39,4.76-2.24Zm36.08-2.17q4.68,4.22,10.47,2.13c.2-.07,.41-.15,.62-.19,1.47-.33,.93-.87,.17-1.45-2.66-2.04-8.18-2.28-11.26-.49Zm91.07-49.1c.32-2.1,.55-4.06,.94-6,.55-2.73-.64-4.86-3.41-5.84-.93,5.43-.21,9.08,2.46,11.83Zm-85.63-41.91c-1.9,.71-3.77,1.39-5.63,2.1-.4,.15-.53,.5-.24,.83,1.29,1.47,2.44,3.32,4.24,3.97,.98,.36,1.51-1.74,2.42-2.58,.31-.28,.6-.6,.85-.94,.37-.51,1.39-.9,.66-1.68-.64-.68-1.16-1.63-2.3-1.7Zm64.57,15.25c1.95,3.33,7.11,7.06,9.73,7.14-.78-1.59-1.49-3.2-1.64-4.95-.06-.7-.37-.91-1.07-1.02-2.28-.34-4.54-.75-7.03-1.17Zm-49.83,22.55c-1.05,2.61-1.41,5.17-2.9,7.34-1.51,2.2-1.3,2.76,.78,4.53,1.02,.87,1.38,.72,1.87-.52,1.44-3.64,1.46-7.28,.26-11.35Zm68.17,34.79c-3.65,2.78-4.62,6.08-4.87,9.87,1.38-.31,2.25-1.33,3.54-1.33,.49,0,.75-.44,.78-.87,.19-2.39,.34-4.77,.54-7.67Zm-56.51,7.82c-1.51-5.01-3.66-9.6-9.51-12.32,3.08,4.63,5.84,8.77,9.51,12.32Zm35.61,15.06c-3.16-1.43-5.86-1.43-8.59-.42-.42,.15-1.25,.52-.75,.9,.91,.68,1.82,1.81,3.14,1.49,1.96-.48,3.86-1.21,6.2-1.96Zm-46.68-65.5c3.23-2.83,2.42-5.84,.52-8.9-.03,3-.11,6-.52,8.9Zm27.6,21.19c1.95-3.09,1.9-5.6-.12-7.74-.71,2.56-1.93,5.22,.12,7.74Zm-15.41-27.62c.71,2.72,1.36,5.25,2.07,7.96,1.65-2.78,1.05-5-2.07-7.96Zm-14.09,64.32c-.83,3.96-.13,4.53,3.89,3.37-1.3-1.12-2.54-2.2-3.89-3.37Zm18.24,8.76c-.63-1.03-1.82-1.03-2.51-1.7-.79-.77-1.59-.75-2.47-.12-.74,.53-.12,.97,.09,1.41,.4,.85,.83,1.58,2.09,1.06,.83-.35,1.78-.42,2.8-.64Zm-15.34-48.27c-1.7,3.23-1.32,4.92,1.46,7.1-.48-2.36-.94-4.59-1.46-7.1Zm32.91-39.83c.82,1.38,1.34,2.74,2.69,3.85,.45-1.35,1.53-2.6,.76-3.64-.61-.82-2.11-.27-3.45-.2Zm-19.76,58.47c1,2.25,1.99,4.5,2.99,6.74,.63-2.92-.48-5.12-2.99-6.74Zm11.04-58.1c-.11,1.11,.46,2.11,1.23,2.05,1.14-.1,.95-1.47,1.21-2.32,.27-.88-.4-1.24-1.22-1.32-1.49-.14-.91,1.09-1.21,1.59Zm-9.62,39.71c.13-2.26-.89-3.67-1.27-5.22-.08-.34-.28-.69-.74-.45-.47,.25-.82,.64-.53,1.18,.73,1.36,1.51,2.69,2.53,4.49Zm6.78-42.23c.47,.87,.31,1.81,1.4,1.97,.35,.05,.44-.31,.45-.57,.05-1.09-.68-1.28-1.86-1.4Zm1.8,82.62c-.31,.13-.35,.39-.31,.66,.04,.25,.05,.63,.44,.51,.16-.05,.3-.41,.32-.64,.02-.25-.04-.56-.44-.54Zm-12.53-7.54c.13-.07,.21-.13,.3-.18-.1-.14-.18-.3-.31-.42-.03-.03-.19,.08-.29,.13,.1,.15,.19,.3,.3,.47Zm6.41-6.71c-.04-.1-.08-.2-.12-.3-.03,.11-.07,.22-.09,.33,0,.05,.03,.11,.05,.17,.05-.07,.1-.13,.16-.2Z"/>
  <path class="cls-7" d="M142.8,15.59c2.11,5.61,4.12,11.25,6.34,16.81,3.14,7.84,6.94,15.38,11.01,22.81,1.99,3.63,4.07,7.19,6.5,10.54,.65,.9,.64,1.4-.41,1.91-5.96,2.87-4.09,3.83-7.73-1.88-7.37-11.55-13.14-23.86-17.84-36.63-1.61-4.38-3.23-8.76-4.84-13.14,.05-.25-.04-.43-.3-.51,0,0,.01,.01,.01,.01-.03-.15-.05-.29-.08-.44,1.96-.27,3.98-1.08,5.73,.59,.55,.53,1.05-.18,1.59-.08Z"/>
  <path class="cls-4" d="M247.64,34.54c-7.91,4.32-15.81,8.67-23.74,12.95-5.35,2.89-10.8,5.62-16.13,8.55-1.52,.83-2.48,.69-3.41-.64-.69-.98-1.44-1.91-2.18-2.85-.53-.69-.45-1.27,.27-1.78,.59-.25,1.2-.46,1.75-.76,8.16-4.39,16.25-8.9,24.48-13.16,5.56-2.87,10.62-6.54,16.33-9.15,1.71,1.98,2.19,4.4,2.62,6.83Z"/>
  <path class="cls-7" d="M98.17,175.69c3.17-.97,5.91-2.81,8.98-4.01,5.96-2.33,13.26-2.16,18.16,.67-8.31,4.96-16.27,10.41-26.82,8.39-.41,.02-.83,.03-1.24,.05,.36-1.69-.96-3.67,.92-5.1Z"/>
  <path class="cls-7" d="M107.66,182.02c1.16-.27,2.32-.54,3.48-.81,.61,.55,1.39,.29,2.09,.41,1.84,1.48,4.23,2,6.18,3.27,.09,.38,.19,.76,.28,1.14-.68,.22-1.36,.43-2.04,.65-.62-.17-.86,.25-1.12,.65-.93,.19-1.86,.39-2.79,.58-.58,0-1.15,0-1.73,0-1.32-.73-2.64-.75-3.95,.02l-2.15-.05,.02-.16c-.43-.35-.92-.28-1.42-.2-.11,.04-.21,.1-.29,.18-1.71-.51-3.41-1.02-5.12-1.53-.18-.42-.55-.33-.9-.32-.18-.03-.37-.06-.55-.09,.76-1.25-.62-2.54,.06-3.79,3.2,1.57,6.5,.97,9.8,.43,.07-.01,.11-.24,.17-.37Z"/>
  <path class="cls-13" d="M275.79,116.81c-.31,.14-.61,.28-.92,.42-.37-.18-.66-.56-1.16-.44-.31-.29-.62-.58-.94-.87-.02-1.31-.03-2.63-.07-3.94-.28-8.47-3.09-15.84-10.04-21.41-.42-.33-.75-1.44-1.67-.54-.89-.94-.48-2.48-1.65-3.29,7.47,4.07,11.92,10.27,13.88,18.22,.3,1.22,.63,2.45,.47,3.71-.36,2.98,1.18,5.48,2.08,8.15Z"/>
  <path class="cls-13" d="M245.02,27.71c-5.71,2.61-10.77,6.28-16.33,9.15-8.23,4.26-16.33,8.77-24.48,13.16-.56,.3-1.17,.51-1.75,.76-.01-.16-.02-.32-.04-.49,1.49-1.32,3.44-1.92,5.05-3.03,.39-.27,1.44-.18,1.01-1.16,0,0,0,0,0,0,.8,.61,1.34-.14,1.9-.4,1.36-.64,2.65-1.39,3.97-2.1,10.31-5.54,20.62-11.06,30.63-17.08,.88,.39,.38,.8,0,1.2Z"/>
  <path class="cls-7" d="M98.93,166.66c4.36-1.39,8.02,.46,12.22,2.32-2.84,1.09-5.31,1.75-7.57,2.91-.61,.31-1.07-.02-1.46-.5-.85-1.05-2.04-1.7-3.18-2.41,0-.77,0-1.54,0-2.31Z"/>
  <path class="cls-4" d="M245.01,26.51c-10.01,6.02-20.33,11.54-30.63,17.08-1.32,.71-2.62,1.47-3.97,2.1-.57,.27-1.11,1.01-1.9,.4,1.92-1.93,4.53-2.82,6.85-4.11,6.04-3.37,12.25-6.47,18.22-9.94,3.6-2.09,7.08-4.38,10.95-6,.16,.15,.33,.31,.49,.46Z"/>
  <path class="cls-12" d="M113.74,187.91c.93-.19,1.86-.39,2.79-.58,.36,.03,.72,.05,1.08,.08,0,0,.06,.07,.06,.07-.15,.41-.31,.83-.46,1.24l-.11,.09s-.13-.04-.13-.04c-.56-.09-1.14-.23-1.52,.37-4.53,1.06-9.01,.8-13.45-.47-.03-.79-.58-.88-1.22-.84-.51-.11-1.02-.22-1.52-.32-.19-.24-.41-.42-.76-.33-.18-.18-.36-.36-.53-.53,.09-.14,.19-.29,.28-.43,.28-.02,.56-.04,.84-.06,1.71,.51,3.41,1.02,5.12,1.53,.17,.04,.34,.08,.51,.12,.4-.03,.8-.06,1.2-.09,0,0-.02,.16-.02,.16,.35,1.34,1.43,.72,2.26,.79,1.23,0,2.46-.01,3.69-.02,.74,.02,1.63,.43,1.88-.72Z"/>
  <path class="cls-13" d="M155.91,164.44c-.35,.4-1.8-.85-1.3,.81-2.32-.22-4.65-.48-6.98-.08-.72-1.64-1.95,.05-2.85-.41,3.67-1.4,7.38-1.4,11.13-.32Z"/>
  <path class="cls-12" d="M128.54,187.75c.08-.74,1.62,.34,1.27-.94,.58,.06,1.17,.12,1.75,.19,.54,1.48,1.68,.68,2.63,.65-.15-.21-.31-.43-.46-.64,.59-.09,1.17-.18,1.76-.27,.13,.35,.27,.7,.4,1.05-2.46,1.29-4.9,1.02-7.34-.04Z"/>
  <path class="cls-13" d="M135.13,92.8c-1.08,.74,.25,.92,.35,1.39-2.57-1.12-2.92-2.53-1.35-5.49,.06,.48,.25,.86,.76,1.04-.35,1.05-.61,2.09,.24,3.06Z"/>
  <path class="cls-7" d="M107.66,182.02c-.05,.13-.09,.36-.17,.37-3.3,.53-6.6,1.13-9.8-.43-.25-.35-.53-.69-.45-1.16,.41-.02,.83-.03,1.24-.05-.21,.98,.27,1.23,1.23,1.41,2.67,.49,5.29-.15,7.94-.14Z"/>
  <path class="cls-7" d="M98.16,170.1c.56,.34,1.11,.68,1.67,1.02-.87,.79-.71,1.72-.38,2.67-.3,.12-.59,.25-.89,.37-.76-1.3-.45-2.69-.4-4.06Z"/>
  <path class="cls-13" d="M254.6,80.81c-.53,.04-1.07,.08-1.6,.12-.46-.16-.79-.45-1.01-.87,.01-.48,.02-.96,.04-1.44,1.04,.53,1.87,1.29,2.58,2.18Z"/>
  <path class="cls-13" d="M242.02,73.69c-1.77,.12-3.46-.41-5.19-.58,1.76-.04,3.53-.21,5.19,.58Z"/>
  <path class="cls-13" d="M137.17,94.63c2-.1,3.99-.19,5.99-.29-1.96,.74-3.98,.57-5.99,.29Z"/>
  <path class="cls-13" d="M117.21,188.72c.15-.41,.31-.83,.46-1.24,.52,.03,1.03,.05,1.55,.08-.7,.34-1.06,1.22-2.01,1.16Z"/>
  <path class="cls-13" d="M137.18,187.59c.7-.9,1.82-.67,2.74-.96-.77,.71-1.78,.76-2.74,.96Z"/>
  <path class="cls-13" d="M171.68,186.33c.94-.15,1.75,.12,2.48,.68-.92,.08-1.7-.3-2.48-.68Z"/>
  <path class="cls-13" d="M245.36,74.78c-1.1,0-2.08-.32-2.94-.98,1.16-.17,1.96,.64,2.94,.98Z"/>
  <path class="cls-13" d="M150.36,186.79c.72-.17,1.43-.38,2.06,.22-.71,.13-1.42,.21-2.06-.22Z"/>
  <path class="cls-13" d="M155.47,187c.54-.53,1.11-.53,1.7-.09-.55,.27-1.12,.23-1.7,.09Z"/>
  <path class="cls-13" d="M258.97,86.25c-1.06-.17-1.23-.94-1.29-1.78,.62,.47,1.03,1.07,1.29,1.78Z"/>
  <path class="cls-13" d="M236.44,72.83c-.85,.05-1.31-.35-1.44-1.14,.65,.19,1.07,.63,1.44,1.14Z"/>
  <path class="cls-11" d="M100.69,164.88c-.39,.38-.85,.34-1.33,.24,.3-.8,.74-.89,1.33-.24Z"/>
  <path class="cls-13" d="M143.71,94.25c.48-.65,1.17-.47,1.82-.44-.57,.28-1.15,.55-1.82,.44Z"/>
  <path class="cls-13" d="M167.26,184.73c.77-.34,1.21,.17,1.68,.6-.62-.06-1.2-.19-1.68-.6Z"/>
  <path class="cls-13" d="M100.77,187.83c.65-.04,1.2,.05,1.22,.84-.73,.16-.84-.53-1.22-.84Z"/>
  <path class="cls-13" d="M115.45,189.13c.38-.6,.96-.45,1.52-.37-.46,.29-.95,.48-1.52,.37Z"/>
  <path class="cls-13" d="M141.14,167.26c-.25,.56-.69,.56-1.2,.37,.4-.12,.8-.25,1.2-.37Z"/>
  <path class="cls-13" d="M176.96,187.51c.68-.06,1.38-.27,1.97,.25-.68,.1-1.36,.13-1.97-.25Z"/>
  <path class="cls-10" d="M98.24,186.21c-.09,.14-.19,.29-.28,.43-.64-.12-.76-.41-.33-.89,.18,.03,.37,.06,.55,.09,0,.13,.02,.25,.06,.38Z"/>
  <path class="cls-3" d="M143.74,15.01c-.28,.07-.57,.15-.85,.22,0-.31-.02-.68,.4-.71,.14,0,.3,.31,.45,.48Z"/>
  <path class="cls-13" d="M121.97,186.24c.28-.52,.59-.56,.91-.03-.3,.01-.61,.02-.91,.03Z"/>
  <path class="cls-13" d="M185.01,187.46c.29-.48,.72-.46,1.19-.29-.34,.32-.74,.39-1.19,.29Z"/>
  <path class="cls-13" d="M175.18,187.15c.44-.12,.85-.15,1.15,.27-.46,.21-.82,.05-1.15-.27Z"/>
  <path class="cls-13" d="M158.93,186.64c.23-.4,.5-.52,.85-.12-.26,.22-.54,.26-.85,.12Z"/>
  <path class="cls-13" d="M187.21,187c.24-.37,.6-.41,1-.34-.25,.33-.55,.54-1,.34Z"/>
  <path class="cls-13" d="M133.3,167.79c-.39,.04-.71-.06-.89-.43,.45-.15,.69,.11,.89,.43Z"/>
  <path class="cls-13" d="M257.05,83.76c-.64-.12-.71-.55-.64-1.07,.57,.15,.57,.63,.64,1.07Z"/>
  <path class="cls-13" d="M137.61,24.39c.56,.3,.49,.8,.44,1.29-.15-.43-.3-.86-.44-1.29Z"/>
  <path class="cls-13" d="M147.68,93.02c.19-.45,.56-.49,.99-.42-.25,.31-.6,.42-.99,.42Z"/>
  <path class="cls-13" d="M134.95,87.42c.06,.29-.09,.45-.36,.53-.07-.3,.07-.46,.36-.53Z"/>
  <path class="cls-13" d="M135.49,86.72c-.02,.36-.14,.65-.55,.73,.18-.24,.37-.49,.55-.73Z"/>
  <path class="cls-10" d="M98.5,187.17c.35-.09,.57,.09,.76,.33-.33,.05-.6-.03-.76-.33Z"/>
  <path class="cls-13" d="M136.82,22.28c.36,.19,.43,.5,.38,.86-.13-.29-.25-.57-.38-.86Z"/>
  <path class="cls-13" d="M135.49,15.08c.03,.15,.05,.29,.08,.44-.32,.03-.65,.05-.97,.08-.02-.67,.52-.47,.89-.52Z"/>
  <path class="cls-13" d="M180.25,187.79c.29-.36,.58-.37,.87,0h-.87Z"/>
  <path class="cls-13" d="M140.31,31.9c.36,.2,.41,.51,.37,.86-.12-.29-.24-.57-.37-.86Z"/>
  <path class="cls-13" d="M181.98,187.79c.14-.21,.29-.22,.44-.01-.15,0-.29,0-.44,.01Z"/>
  <path class="cls-13" d="M125.78,187.07c.17,.03,.34,.06,.51,.09-.17-.03-.34-.06-.51-.09Z"/>
  <path class="cls-13" d="M147.11,186.23c.16,.03,.32,.07,.48,.1-.16-.03-.32-.07-.48-.1Z"/>
  <path class="cls-13" d="M141.12,186.14c.19-.11,.38-.21,.57-.32-.19,.11-.38,.21-.57,.32Z"/>
  <path class="cls-13" d="M144.16,164.97c-.17,.1-.34,.2-.51,.3,.17-.1,.34-.2,.51-.3Z"/>
  <path class="cls-11" d="M103.72,165.08c-.19-.05-.38-.09-.57-.13,.19,.05,.38,.09,.57,.13Z"/>
  <path class="cls-13" d="M147.21,93.24c.17-.08,.34-.16,.5-.24-.09,.23-.25,.32-.5,.24Z"/>
  <path class="cls-13" d="M255.89,82.08c-.14-.15-.28-.3-.43-.45,.14,.15,.28,.3,.43,.45Z"/>
  <path class="cls-13" d="M234.92,71.65c-.15-.01-.26-.08-.32-.21,.11,.07,.21,.14,.32,.21Z"/>
  <path class="cls-13" d="M139.97,30.66c.04,.23,.09,.46,.13,.68-.04-.23-.09-.46-.13-.68Z"/>
  <path class="cls-13" d="M137.4,23.97c.07,.15,.15,.29,.22,.44-.07-.15-.15-.29-.22-.44Z"/>
  <path class="cls-4" d="M135.13,92.8c-.85-.96-.59-2.01-.24-3.06,1.7-3.29,4.9-5.22,7.49-7.71,.34,.08,.78-.03,.91,.44-.83,1.21-2.03,2.07-3.13,3.03-1.19,1.03-2.2,2.19-2.83,3.63-.41,.95-.15,1.73,.75,2.1,1.74,.73,3.47,.42,5.15-.28-1.26-.31-2.51-.25-3.76-.33-1.24-.08-1.69-.59-.94-1.78,1.12-1.76,2.72-3.04,4.32-4.35,1.66-1.36,3.3-2.74,4.96-4.1,.52-.06,1.2,.23,1.46-.44,.26-.68-.67-.77-.81-1.27,.75-.4,1.5-.8,2.26-1.2,.49,0,.97,0,1.46,0,.48,1.63,1.29,.26,1.68,.05,6.67-3.53,13.31-7.12,19.94-10.73,5.68-3.09,11.52-5.92,17.01-9.34,.68-.11,.99,.18,1.29,.78,.6,1.18,1.19,2.43,2.07,3.4,1.27,1.41,.69,1.95-.71,2.76-12.12,6.99-25.09,12.24-38.15,17.3-2.78,1.08-5.44,2.45-8.09,3.81-2.12,1.08-2.13,2.01-.23,3.31,.29,.2,.61,.37,.91,.57,1.81,1.22,1.78,1.36-.22,2.33-2.23,1.07-4.63,1.53-7.05,1.91-.34-.16-.64-.11-.92,.12-.49,0-.99-.01-1.48-.02-.56-.45-1.22-.41-1.88-.38-.2-.05-.4-.09-.6-.14-.21-.13-.41-.27-.62-.4h0Z"/>
  <path class="cls-6" d="M201.01,75.43c8.05,5.7,15.08,12.3,20.04,20.69,3.29,5.55,4.8,11.58,4.38,18.01-.03,.52,.17,1.2-.57,1.42-.5,.15-.78-.32-1.02-.63-6.65-8.91-14.27-17.14-20.28-26.5-2.19-3.4-3.02-7.17-3.01-11.12,0-.64-.2-1.42,.46-1.85Z"/>
  <path class="cls-6" d="M228.45,162.95c.15-3.77-.86-7.07-.56-10.29,.99-10.71-1.4-20.47-7.18-29.66-2.87-4.57-4.57-9.68-5.26-15.04-.04-.32,0-.66,0-1.25,2.07,1.25,2.65,3.29,3.92,4.8,3.9,4.64,7.93,9.19,10.82,14.54,2.08,3.85,3.34,7.91,4.07,12.17,.95,5.54,1.24,11.03-.5,16.5-.96,3.04-2.76,5.51-5.32,8.22Z"/>
  <path class="cls-7" d="M200.21,42.37c2.38-.07,4.13,.7,5.79,1.76,.99,.63,.94,1.06-.12,1.59-1.47,.74-2.82,1.72-4.33,2.37-1.81,.77-1.86,2.07-1.26,3.44,1.34,3.04,3.44,5.6,5.94,7.84,3.24,2.88,5.81,6.12,7.09,10.29,.65,2.11-.51,1.77-1.64,1.39-2.72-.9-5.34-2.04-7.98-3.16-6.72-2.85-10.26-8.07-11.99-14.62-1.45-5.47,3.01-10.87,8.51-10.9Z"/>
  <path class="cls-6" d="M188.12,77.11c-.49,8.88,.9,17.74,.36,26.62-.31,5.13-.71,10.25-2.85,15.07-.28,.64-.62,1.26-1.02,1.83-.5,.71-.94,.71-1.38-.15-1.68-3.26-2.8-6.71-3.38-10.28-1.54-9.51,.2-18.68,3.56-27.59,.85-2.25,1.62-4.85,4.62-5.58l.08,.08Z"/>
  <path class="cls-6" d="M193.3,101.28c-3.41-7.11-4.47-14.6-3.92-22.35,.21-2.92,2.51-5,5.33-4.99,1.23,0,1.56,.46,1.21,1.52-1.47,4.48-.63,8.81,1.04,13.03,2.73,6.9,4.49,14.03,5.74,21.29,.36,2.07,.19,4.17,.14,6.25-.02,.71-.19,1.54-.93,1.75-.83,.23-1.2-.63-1.59-1.17-2.25-3.11-3.4-6.72-4.88-10.18-.67-1.59-1.35-3.17-2.02-4.76,.02-.05,.08-.12,.06-.15-.05-.09-.13-.17-.19-.25Z"/>
  <path class="cls-6" d="M167.51,124.86c2.13,4.16,4.32,8.02,7.67,10.83,5.33,4.46,7.19,10.95,11.07,16.23,4.14,5.62,8.39,11.13,13.7,15.81,.38,.34,1.23,.59,.87,1.23-.32,.57-1.12,.53-1.79,.45-2.74-.34-4.88-1.84-6.71-3.6-7.43-7.15-14.08-14.92-19.36-23.7-2.84-4.72-4.95-9.7-5.71-15.15-.08-.55-.3-1.08,.25-2.09Z"/>
  <path class="cls-7" d="M188.3,168.49c3.45-.35,6.52,.87,9.61,2.07,.87,.34,1.38,.98,1.87,1.66,.54,.75,.44,1.25-.59,1.47-8.32,1.72-16.37,4.41-24.63,6.36-3.67,.86-7-.09-9.78-2.65-.94-.87-1.15-1.45,.32-2.05,6.03-2.5,12.13-4.8,18.47-6.45,1.5-.39,3.15-.28,4.73-.39Z"/>
  <path class="cls-6" d="M178.23,130.48c1.55,1.78,3.1,3.56,4.64,5.35,.13,.15,.14,.43,.3,.54,5.57,4.38,8.12,10.92,12.46,16.17,.81,.98,1.48,2.08,2.4,2.96,4.12,3.95,7.27,8.57,10.29,13.3,.26,.41,.81,.74,.56,1.26-.28,.59-.98,.53-1.53,.58-1.37,.13-2.6-.35-3.58-1.22-11.09-9.82-20.18-20.96-24.78-35.03-.4-1.22-.88-2.4-1.33-3.6,.19-.11,.38-.22,.58-.33Z"/>
  <path class="cls-6" d="M205.91,142.07c-3.06-2.76-4.71-6.34-6.84-9.6-3.07-4.69-6.24-9.35-7.96-14.74-1.31-4.13-1.15-8.21,.08-12.3,.22-.74,.77-1.53,1.42-1.63,.83-.12,.66,.91,.83,1.45,2.32,7.17,6.91,13.22,10.48,19.78,.83,1.52,1.24,3.04,1.38,4.74,.34,4.08,.01,8.19,.61,12.31Z"/>
  <path class="cls-7" d="M227.75,173.84c-3.64,2.05-7.29,3.65-11.04,5.01-4.32,1.57-8.73,2.91-13.37,3.34-4.61,.43-8.95-.12-12.44-3.45-.92-.87-1.1-1.58,.49-1.93,9.05-1.99,17.97-4.67,27.34-5.09,3.11-.14,6.18,.04,9.02,2.12Z"/>
  <path class="cls-6" d="M177.89,107.07c.98,5.34,2.05,10.56,4.9,15.29,.89,1.47,1.87,2.86,3.23,3.89,1.7,1.29,2.52,3.19,3.87,4.65,2.93,3.17,3.74,7.09,5,10.89,.36,1.08,.74,2.16,1.29,3.77-8.4-6.18-15.84-12.36-19.67-21.57-2.43-5.84-1.8-11.49,1.38-16.92Z"/>
  <path class="cls-6" d="M173.99,113.53c-1.73-2.21-1.88-4.64-2.31-6.86-1.06-5.57-1.19-11.27,.02-16.79,1.07-4.87,3.8-9.11,7.9-12.35,.63-.5,1.42-.69,2.24-.63,2.19,.16,2.57,.85,1.58,2.69-2.41,4.48-3.51,9.35-4.53,14.25-.67,3.22-.89,6.47-.81,9.74,0,.41-.03,.8-.32,1.17-2,2.51-3.11,5.4-3.76,8.78Z"/>
  <path class="cls-6" d="M222.5,82.08c-6.18,.19-11.61-.99-16.37-4.24-2.72-1.86-5.28-3.96-5.12-7.71,.06-1.44,.39-1.66,1.76-.96,4.27,2.2,8.83,3.71,13.58,4.51,2.67,.45,5.46,.29,8.15,.91,3.37,.78,6.73,1.57,9.44,3.84,.57,.48,1.25,1.11-.09,1.41-3.89,.88-7.5,3.1-11.35,2.25Z"/>
  <path class="cls-6" d="M191.87,124.16c4.25,6.34,8.52,12.51,10.97,19.62,1.36,3.94,3.23,7.7,5.37,11.32,.8,1.35,1.07,2.86,1.53,4.3,.9,2.79,1.93,5.52,3.56,8,.63,.96,.79,1.81-.18,2.58-1.01,.81-1.78,.08-2.44-.55-2.81-2.69-4.44-6.1-6.22-9.43-5.01-9.34-9.08-19.01-11.37-29.32-.48-2.16-.82-4.35-1.23-6.53Z"/>
  <path class="cls-7" d="M147.87,179.96c-2.88,.07-5.26-.29-7.21-2.03-.92-.83-1.01-1.43,.31-1.95,7.12-2.83,13.91-6.44,21.46-8.27,3.63-.88,6.31,.45,8.89,2.57,.77,.63,.57,1.09-.23,1.34-6.6,2.07-12.27,6.22-19.08,7.82-1.5,.35-3,.43-4.15,.52Z"/>
  <path class="cls-6" d="M214.96,121.17c-1.78-3.52-3.56-6.74-5.05-10.08-2.15-4.79-4.91-9.26-7.32-13.92-1.96-3.79-4.15-7.51-5.26-11.63-.99-3.65-1.76-7.36,.5-10.91,.25-.4,.33-1,1.01-.89,.88,.13,.65,.87,.58,1.33-1.22,8.3,2.99,14.69,7.85,20.86,2.05,2.61,4.08,5.23,6.13,7.83,.44,.56,.88,1.09,.81,1.87-.31,3.52,.6,6.89,1.38,10.28,.4,1.73,.31,3.38-.64,5.26Z"/>
  <path class="cls-6" d="M232.1,113.81c-.07,2.58-.41,5.11-1.53,7.5-.44,.94-.88,1.56-1.62,.2-.1-.18-.22-.36-.36-.52-1.85-2.05-2.35-4.1-2-7.04,.95-8.04-1.96-15.31-6.62-21.94-.32-.46-.57-1.02-1-1.35-2.54-1.89-1.15-4.09-.59-6.22,.18-.7,.78-.7,1.39-.67,1.41,.06,2.18,.97,2.86,1.99,4.89,7.39,8.46,15.25,9.04,24.14,.05,.69,.34,1.35,.42,2.04,.07,.62,.02,1.25,.02,1.87Z"/>
  <path class="cls-1" d="M248.61,165.34c1.91-2.11,2.76-5.04,5.66-6.4,2.18-1.02,2.39-1,2.67,1.23,1,7.96-2.7,13.91-8.91,18.58-2.84,2.14-6.21,3-9.89,1.64-1.8-.66-1.46-1.21-.27-2.17,2.83-2.29,5.03-5.11,7.13-8,1.66-1.31,2.59-3.12,3.6-4.88Z"/>
  <path class="cls-7" d="M257.4,93.71c-2.93-1.12-5.5-2-8.2-2.38-4.56-.65-9.14-1.2-13.56-2.56-2.32-.71-4.4-1.74-5.87-3.68-.97-1.27-1-2.21,.83-2.8,5.57-1.82,11.24-2.01,16.47,.49,4.56,2.18,8.76,5.17,10.32,10.93Z"/>
  <path class="cls-2" d="M261.36,125.26c-.03-1.73-.06-3.46-.09-5.18,.82-.84,1.17-1.78,1.13-2.98-.08-2.29,.25-2.43,2.39-1.37,0,0,.07,.07,.06,.07-.2,1.1-.39,2.19,1.26,2.38,0,0,.06,.12,.06,.12-.48,1.66,.09,2.83,1.77,3.47,2.22,4.89,3.93,9.85,2.81,15.32-.48,2.35-1.13,4.61-2.89,6.39-.64,.66-1.38,1.15-1.79-.31-1.45-5.07-2.98-10.13-4.42-15.21-.22-.79-.18-1.65-.26-2.48,.07-.02,.13-.04,.2-.06-.07-.06-.14-.11-.22-.17Z"/>
  <path class="cls-2" d="M266.05,149.76c.12,5.2-.9,9.15-2.49,12.98-.36,.86-1,1.52-1.71,2.12-.8,.69-1.78,1.13-2.78,.8-1.13-.37-.51-1.45-.54-2.2-.24-5.26-1.14-10.52,0-15.78,.7-3.25,1.08-6.59,3.22-9.38,.29-.37,.53-.93,1.15-.76,.5,.14,.38,.7,.49,1.06,1.27,3.98,2.53,7.97,2.66,11.14Z"/>
  <path class="cls-6" d="M206.13,106.22c3.5,7.84,8.18,14.99,10.2,23.26,.32,1.33-.23,2.47-.43,3.68-.37,2.3-.87,4.58-1.52,6.88-1.84-5.93-4.48-11.45-7.52-16.82-2.25-3.98-2.82-8.3-2.24-12.75,.18-1.39,.22-2.91,1.51-4.26Z"/>
  <path class="cls-6" d="M214.12,160.68c0-1.12-.01-2.24-.02-3.35,0-.55,0-1.11,0-1.66,.64-10.13,2.47-20.07,4.88-29.94,.1-.41,.14-.95,.58-1.03,.64-.13,.74,.53,.99,.92,.3,.47,.58,.96,.83,1.45,4.27,8.24,4.15,5.24,.69,13.94-2.01,5.04-4.13,10.05-5.84,15.2-.32,.95-.51,1.88-.31,2.86-.82-.06-.74,.57-.91,1.05-.13,.38-.15,1.04-.9,.56Z"/>
  <path class="cls-6" d="M169.78,103.76c.79,4.26,1.58,8.22,3.67,11.92,1.09,1.93,.53,4.48,1.11,6.73,1.15,4.44,1.76,9,3.53,13.29,.12,.3,.13,.68-.18,.95-11.22-9.81-15.07-25.54-8.13-32.89Z"/>
  <path class="cls-6" d="M215.87,159.52c1,.28,.78-.52,.93-.98,2.45-7.3,5.33-14.44,8.51-21.88,1.08,2.59,1.12,4.97,1.38,7.28,.6,5.22-.02,10.15-3.57,14.55-1.97,2.44-2.91,5.56-5.01,7.98-.58,.66-.91,1.86-2.03,1.57-1.17-.31-.57-1.56-.84-2.37,.03-.27,.06-.53,.09-.8,.07-.69,.13-1.39,.2-2.08,.73-1.03,.71-2.13,.34-3.26Z"/>
  <path class="cls-7" d="M124.66,179.21c-1.47-.06-2.92-.16-4.26-.77-.91-.42-1.3-.94-.15-1.59,4.62-2.59,8.96-5.79,14.2-7.09,3.85-.95,7.87-1.34,11.67,.5,.57,.28,1.34,.53,1.32,1.23-.02,.64-.84,.67-1.33,.87-5.71,2.33-11.09,5.5-17.37,6.36-1.36,.19-2.72,.32-4.09,.48Z"/>
  <path class="cls-2" d="M266.11,115.15c-2.46-3.88-4.1-8.36-8.23-11.05-2.46-1.6-4.92-3.14-6.95-5.26-1.26-1.31-2.04-2.83-2.54-4.51-.35-1.18,.13-1.78,1.43-1.5,4.26,.94,8.14,2.35,11.33,5.57,2.48,2.5,4.42,5.15,5.65,8.34,.06,1.83-.03,3.63,.7,5.45,.35,.88,1.24,2.93-1.38,2.95Z"/>
  <path class="cls-6" d="M213.04,163.72c-5.34-12.03-6.28-24.71-6.36-37.55,1.83,2.49,3.15,5.24,4.23,8.04,1.13,2.91,1.88,5.95,2.74,8.96,.19,.65,.21,1.39,.13,2.07-.72,6.14-1.15,12.29-.75,18.49Z"/>
  <path class="cls-7" d="M175.47,186.21c-5.43-1.24-10.29-3.58-14.58-7-.39-.31-1.58-.61-.74-1.31,.64-.54,1.74-1.71,2.58-.76,5.22,5.88,11.53,4.85,17.88,2.61,2.55-.9,4.46-.9,6.34,1.08,.81,.86,1.97,1.41,2.92,2.15,.42,.32,1.27,.35,1.12,1.08-.13,.61-.89,.64-1.39,.86-3.65,1.61-7.52,1.85-11.46,1.65-.9-.12-1.79-.24-2.69-.36Z"/>
  <path class="cls-7" d="M135.48,186.74c-.59,.09-1.17,.18-1.76,.27-.72,0-1.44,0-2.16,0-.58-.06-1.17-.12-1.75-.19-5.77-1.08-11.02-3.3-16.17-6.55,1.46-.72,2.59-1.28,3.72-1.85,.33-.17,.66-.32,.99-.04,3.83,3.17,8.17,1.92,12.36,1.18,1.97-.35,3.51-.52,5.11,.98,1.32,1.24,3.03,2.12,4.63,3.04,1.19,.68,1.1,1.05-.07,1.62-1.56,.76-3.22,1.17-4.9,1.55Z"/>
  <path class="cls-2" d="M261.01,90.03c.92-.9,1.25,.21,1.67,.54,6.95,5.56,9.76,12.94,10.04,21.41,.04,1.31,.05,2.63,.07,3.94-.5,2.21-.5,4.5-1.6,6.62-.55,1.06-1.11,.93-1.42,.22-.53-1.22-1.38-2.41-.98-3.91,2.07-7.65-.16-14.27-5.41-20.1-1-1.1-1.21-2.37-1.26-3.67-.07-1.76-.5-3.42-1.11-5.05Z"/>
  <path class="cls-1" d="M264.06,169.41c-2.09,4.33-4.72,7.9-8.58,10.47-4.69,3.12-9.74,5.37-15.67,5.21-2.82-.07-5.15-1.03-7.23-2.79,1.38-1.53,2.7-1.92,4.76-1.03,4.86,2.1,10.33,.43,14.51-4.07,1.55-1.66,2.94-3.43,4.03-5.4,.55-1,1.09-1.63,2.51-1.21,1.9,.57,3.56-.73,5.67-1.18Z"/>
  <path class="cls-2" d="M273.72,116.79c.5-.12,.79,.26,1.16,.44,.74,2.96,1.9,5.81,2.26,8.87,.66,5.53,0,10.77-2.78,15.74-1.35,2.41-3.35,4.14-5.55,5.73-.44,.31-1.12,1.07-1.63,.22-.41-.68-.83-1.73-.04-2.33,6.51-5.02,5.66-11.61,4.24-18.29-.19-.88-.23-1.54,.22-2.34,1.41-2.5,2.1-5.2,2.11-8.05Z"/>
  <path class="cls-7" d="M154.55,185.77c-7,.27-12.68-2.21-17.82-6.08-.43-.33-1.77-.69-.92-1.41,.64-.54,1.92-1.62,2.86-.63,5.21,5.54,11.29,3.7,17.25,1.85,1.76-.55,2.91-.5,4.24,.67,1.11,.98,2.45,1.71,3.66,2.59,.42,.31,1.27,.36,1.1,1.08-.12,.51-.8,.49-1.28,.62-3.07,.81-6.16,1.51-9.09,1.3Z"/>
  <path class="cls-7" d="M241.36,172.19c-1.92,2.87-4.15,4.96-6.81,6.62-3.88,2.42-8.02,4.1-12.8,3.63-.36-.04-.74,0-1.07-.11-1.3-.4-3.12-.69-3.33-1.94-.18-1.03,1.73-1.03,2.7-1.5,2.31-1.14,4.68-2.17,7.04-3.21,4.42-1.96,9-3.29,14.29-3.49Z"/>
  <path class="cls-7" d="M236.97,186.08c-4.19,3.33-8.86,3.83-13.46,2.53-3.89-1.1-7.99-2.23-10.88-5.47-.95-1.07-.76-1.41,.48-1.82,1.43-.48,2.49-.47,3.85,.57,3.51,2.69,7.57,2.28,11.53,1.02,1.4-.44,2.35-.43,3.47,.63,1.32,1.24,3.05,1.97,5,2.55Z"/>
  <path class="cls-6" d="M239.72,79.47c-1.86,.35-3.16,.16-4.41-1.39-2.18-2.7-5.6-3.5-8.88-4.38-.97-.26-1.95-.47-2.94-.65q-4.27-.74-4.65-5.04-.23-2.66,2.51-1.99c7.66,1.9,15.59,7.65,18.37,13.44Z"/>
  <path class="cls-2" d="M273.97,145.11c-.54,5.4-1.58,10.62-4.4,15.46-2.1,3.61-4.62,6.64-8.6,8.4-.71,.31-1.4,.27-2.11,.31-.65,.04-1.21-.14-1.08-.92,.1-.64,0-1.46,1.12-1.43,3.81,.08,5.38-2.32,6.5-5.34,1.25-3.37,1.87-6.85,2.07-10.4,.05-.93,.27-1.6,1.15-2.04,2.01-1.01,3.56-2.57,5.35-4.04Z"/>
  <path class="cls-7" d="M251.99,80.07c.22,.41,.56,.71,1.01,.87,3.73,4.33,7.28,8.74,7.73,14.76-1.4-.19-1.81-1.05-2.03-2.05-.85-3.97-3.45-6.73-6.52-9.3-2.65-2.22-5.66-3.46-9.02-4.07-.94-.17-1.48-.76-1.99-1.47-.94-1.31-1.93-2.59-2.9-3.88,.07-.16,.15-.31,.22-.47,1.89-.04,3.63,.69,5.45,1.02,.29,.34,.68,.39,1.09,.35,2.43,1.25,4.79,2.61,6.96,4.24Z"/>
  <path class="cls-7" d="M206.48,182.9c4.4-1.89,5.76,2.29,8.89,3.96-5.89,1.65-11.24,1.25-16.47-.63-4.28-1.54-8.1-3.92-11.64-6.69-.43-.33-1.43-.64-.76-1.36,.43-.46,1.29-.6,2.02-.25,.18,.09,.35,.25,.48,.41,3.84,5.12,9.35,5.43,15.16,4.88,.81,.11,1.59,.1,2.32-.32Z"/>
  <path class="cls-7" d="M217.61,70.67c-.12,.48,.46,1.47-.77,1.43-.82-.02-1.78-.07-1.98-1.21-.8-4.73-3.46-8.45-6.92-11.73-.42-.4-.88-.76-.09-1.3,1.68-1.16,3.37-2.3,5.25-3.16,.73-.34,1.24-.35,1.4,.56,.89,5.13,2.74,10.07,3.11,15.4Z"/>
  <path class="cls-5" d="M225.9,168.39c-1.02-.71-1,.38-1.3,.75-.8,.96-4.82,1.69-5.83,1-.5-.34-.27-.74-.07-1.08,2.51-4.41,5.03-8.8,7.77-13.14,.69,3.5,.54,6.91-.53,10.27-.13,.41-.3,.78,.05,1.15,.19,.37,.12,.72-.09,1.05Z"/>
  <path class="cls-6" d="M233.68,113.64c3.34,6.42,3.44,12.99,1.13,20.22-1.21-3.51-2.43-6.52-4.03-9.37-.12-.21-.12-.58,0-.78,1.88-3.1,2.71-6.47,2.9-10.08Z"/>
  <path class="cls-7" d="M147.63,165.17c2.33-.39,4.65-.14,6.98,.08,1.5,.43,3.02,.8,4.7,1.8-3.37,1.34-6.44,2.55-9.51,3.79-.38,.15-.74,.16-.99-.12-1.63-1.84-3.98-2.34-6.32-2.98,1.32-1.89,3.35-2,5.15-2.57Z"/>
  <path class="cls-6" d="M231.22,99.68c-1.14-3.36-2.54-6.32-4.24-9.14-.23-.38,.99-4,1.36-4.15,.42-.17,.64,.13,.9,.38,.46,.45,.94,.87,1.41,1.3,.96,.9,2.85,1,3.09,2.33,.36,2.03,.2,4.17-.71,6.13-.46,.99-.67,2.13-1.8,3.15Z"/>
  <path class="cls-7" d="M132.63,168.85c-1.82,.86-3.29,1.56-4.76,2.24-.7,.33-1.37,.2-2.08-.09-2.12-.87-4.33-1.51-6.61-1.88-.39-.06-.94,.08-1.05-.48-.09-.49,.35-.74,.71-.95,1.7-.99,3.53-1.72,5.52-1.45,2.77,.37,5.48,1.04,8.27,2.6Z"/>
  <path class="cls-13" d="M190.81,57.46c-5.49,3.42-11.33,6.25-17.01,9.34-6.63,3.61-13.27,7.2-19.94,10.73-.39,.21-1.21,1.57-1.68-.05,5.48-2.94,10.96-5.87,16.43-8.82,.34-.18,.89-.23,.75-.83,0,0,0,0,0,0,.9,.28,1.48-.35,2.15-.71,6.1-3.24,12.19-6.49,18.28-9.73,.34,.02,.68,.04,1.02,.07Z"/>
  <path class="cls-7" d="M168.71,166.68c3.07-1.8,8.59-1.55,11.26,.49,.76,.58,1.3,1.12-.17,1.45-.21,.05-.41,.12-.62,.19q-5.78,2.09-10.47-2.13Z"/>
  <path class="cls-2" d="M259.78,117.58c-2.68-2.75-3.39-6.4-2.46-11.83,2.76,.97,3.96,3.1,3.41,5.84-.39,1.94-.62,3.9-.94,6Z"/>
  <path class="cls-7" d="M174.15,75.67c1.14,.08,1.66,1.02,2.3,1.7,.74,.78-.29,1.18-.66,1.68-.25,.34-.53,.65-.85,.94-.91,.84-1.44,2.94-2.42,2.58-1.8-.66-2.95-2.51-4.24-3.97-.29-.33-.16-.67,.24-.83,1.86-.71,3.73-1.4,5.63-2.1Z"/>
  <path class="cls-7" d="M238.73,90.93c2.48,.42,4.75,.84,7.03,1.17,.69,.1,1,.32,1.07,1.02,.15,1.76,.86,3.36,1.64,4.95-2.63-.08-7.78-3.81-9.73-7.14Z"/>
  <path class="cls-6" d="M188.9,113.48c1.21,4.06,1.18,7.71-.26,11.35-.49,1.24-.85,1.4-1.87,.52-2.07-1.77-2.29-2.33-.78-4.53,1.49-2.17,1.86-4.73,2.9-7.34Z"/>
  <path class="cls-2" d="M257.07,148.27c-.2,2.9-.35,5.29-.54,7.67-.03,.42-.29,.87-.78,.87-1.29,0-2.16,1.01-3.54,1.33,.25-3.79,1.22-7.09,4.87-9.87Z"/>
  <path class="cls-1" d="M244.45,169.38c-1.67,1.89-3.92,1.67-6.58,1.67,2.46-3.41,5.68-5.2,9.23-6.57,.16,.17,.31,.35,.47,.52-.09,.05-.13,.13-.11,.23-1,1.38-2,2.76-3.01,4.14Z"/>
  <path class="cls-6" d="M200.56,156.09c-3.67-3.55-6.43-7.7-9.51-12.32,5.85,2.72,8,7.31,9.51,12.32Z"/>
  <path class="cls-4" d="M189.79,57.4c-6.09,3.25-12.18,6.49-18.28,9.73-.67,.35-1.25,.99-2.15,.71-.12-1.15,1.03-1.15,1.64-1.49,5.13-2.85,10.29-5.65,15.49-8.38,1.51-.79,2.49-2.52,4.53-2.49,.15,1.08-1.16,1.1-1.23,1.91Z"/>
  <path class="cls-7" d="M236.17,171.16c-2.34,.76-4.24,1.48-6.2,1.96-1.32,.32-2.23-.81-3.14-1.49-.5-.37,.34-.74,.75-.9,2.73-1.01,5.43-1.01,8.59,.42Z"/>
  <path class="cls-2" d="M259.37,138.51c-.01-.42-.02-.84-.03-1.25,.03-.98,.06-1.95,.09-2.93,.17-1.16,.37-2.31,.51-3.47,.05-.38-.22-.9,.42-.96,.4-.04,.54,.33,.68,.67,1.25,2.94,1.86,5.77-1.23,8.1-.15-.05-.3-.11-.45-.16Z"/>
  <path class="cls-4" d="M169.36,67.84c.13,.6-.41,.64-.75,.83-5.47,2.94-10.95,5.88-16.43,8.82-.48,0-.97,0-1.46,0,5.83-3.21,11.66-6.43,17.51-9.63,.31-.17,.75-.51,1.13-.02Z"/>
  <path class="cls-6" d="M189.48,105.65c.41-2.89,.5-5.89,.52-8.9,1.9,3.05,2.71,6.07-.52,8.9Z"/>
  <path class="cls-6" d="M217.08,126.85c-2.05-2.52-.82-5.18-.12-7.74,2.02,2.14,2.07,4.64,.12,7.74Z"/>
  <path class="cls-2" d="M264.78,115.73c-2.14-1.06-2.47-.92-2.39,1.37,.04,1.2-.3,2.15-1.13,2.98-.38-2.91,.2-5.72,.85-8.95,1.22,1.67,2.18,3,2.66,4.6Z"/>
  <path class="cls-2" d="M266.11,115.15c2.62-.02,1.73-2.08,1.38-2.95-.72-1.82-.64-3.62-.7-5.45,1.93,3.4,1.78,6.99,1.11,10.79-1.29-.4-1.31-1.56-1.8-2.38Z"/>
  <path class="cls-6" d="M201.67,99.23c3.12,2.96,3.71,5.18,2.07,7.96-.7-2.71-1.36-5.23-2.07-7.96Z"/>
  <path class="cls-5" d="M187.58,163.55c1.35,1.17,2.6,2.25,3.89,3.37-4.02,1.16-4.72,.58-3.89-3.37Z"/>
  <path class="cls-6" d="M190.48,124.04c.51,2.51,.97,4.74,1.46,7.1-2.78-2.18-3.15-3.87-1.46-7.1Z"/>
  <path class="cls-6" d="M203.64,142.67c2.51,1.62,3.62,3.82,2.99,6.74-1-2.25-1.99-4.5-2.99-6.74Z"/>
  <path class="cls-7" d="M214.68,84.57c.3-.5-.27-1.73,1.21-1.59,.82,.08,1.49,.44,1.22,1.32-.26,.84-.06,2.22-1.21,2.32-.77,.07-1.34-.94-1.23-2.05Z"/>
  <path class="cls-4" d="M148.46,78.69c.14,.51,1.07,.6,.81,1.27-.26,.67-.94,.38-1.46,.44-1.9-.1-2.8,1.81-4.52,2.08-.14-.47-.57-.36-.91-.44,1.95-1.25,3.89-2.51,6.08-3.35Z"/>
  <path class="cls-13" d="M244.45,169.38c1-1.38,2-2.76,3.01-4.14,.38,.03,.77,.07,1.15,.1-1.01,1.76-1.94,3.56-3.6,4.88,0-.39-.14-.7-.56-.83Z"/>
  <path class="cls-4" d="M208.48,46.1c.43,.98-.63,.89-1.01,1.16-1.61,1.11-3.57,1.71-5.05,3.03-.34-.03-.82,.07-1.01-.11-.38-.36,.11-.6,.37-.73,2.25-1.09,4.18-2.78,6.71-3.36Z"/>
  <path class="cls-6" d="M205.06,124.28c-1.02-1.8-1.8-3.14-2.53-4.49-.29-.54,.07-.93,.53-1.18,.46-.24,.66,.11,.74,.45,.38,1.55,1.39,2.96,1.27,5.22Z"/>
  <path class="cls-13" d="M215.87,159.52c.37,1.13,.39,2.23-.34,3.26-1.47-.08-2.33-.55-1.41-2.11,.74,.47,.77-.19,.9-.56,.16-.48,.09-1.11,.91-1.05-.02,.15-.04,.31-.05,.46Z"/>
  <path class="cls-7" d="M99.45,173.79c-.33-.95-.49-1.88,.38-2.67,.73,.31,1.54,.79,1.45,1.54-.1,.78-1.14,.85-1.83,1.13Z"/>
  <path class="cls-9" d="M267.94,121.76c-1.69-.64-2.25-1.81-1.77-3.47,.8,1.06,1.29,2.26,1.77,3.47Z"/>
  <path class="cls-7" d="M211.84,82.05c1.18,.12,1.91,.32,1.86,1.4-.01,.26-.1,.61-.45,.57-1.1-.15-.94-1.09-1.4-1.97Z"/>
  <path class="cls-9" d="M266.1,118.18c-1.64-.2-1.46-1.29-1.26-2.38,.76,.63,1.1,1.46,1.26,2.38Z"/>
  <path class="cls-13" d="M213.64,164.67c.4-.02,.47,.29,.44,.54-.02,.23-.15,.59-.32,.64-.39,.12-.4-.26-.44-.51-.04-.27,0-.53,.31-.66Z"/>
  <path class="cls-7" d="M113.23,181.62c-.7-.12-1.48,.14-2.09-.41,.89-.75,1.49-.15,2.09,.41Z"/>
  <path class="cls-13" d="M259.43,134.33c-.03,.98-.06,1.95-.09,2.93-.58-.99-.71-1.97,.09-2.93Z"/>
  <path class="cls-13" d="M175.47,186.21c.9,.12,1.79,.24,2.69,.36-.91-.02-1.88,.37-2.69-.36Z"/>
  <path class="cls-13" d="M225.9,168.39c.21-.34,.28-.68,.09-1.05,.24,0,.47,.01,.71,.02-.23,.49-.46,.98-.69,1.47-.03-.15-.07-.29-.1-.44Z"/>
  <path class="cls-13" d="M206.48,182.9c-.73,.42-1.51,.43-2.32,.32,.7-.61,1.53-.34,2.32-.32Z"/>
  <path class="cls-7" d="M119.69,186.03c-.09-.38-.19-.76-.28-1.14,.5,.02,1,.13,1.09,.66,.02,.11-.52,.32-.81,.48Z"/>
  <path class="cls-13" d="M214.1,155.67c0,.55,0,1.11,0,1.66-.5-.55-.5-1.11,0-1.66Z"/>
  <path class="cls-13" d="M117.61,187.41c-.36-.03-.72-.05-1.08-.08,.26-.39,.51-.82,1.12-.65-.01,.24-.03,.48-.04,.73Z"/>
  <path class="cls-13" d="M136.35,93.36c.66-.03,1.32-.07,1.88,.38-.66,.04-1.36,.22-1.88-.38Z"/>
  <path class="cls-13" d="M225.93,169.45c.12,.19,.24,.37,.36,.56-.2,.25-.47,.32-.66,.04-.19-.28,.02-.48,.3-.6Z"/>
  <path class="cls-8" d="M201.11,157.13c-.11-.16-.2-.32-.3-.47,.1-.05,.27-.15,.29-.13,.12,.12,.21,.27,.31,.42-.09,.05-.18,.1-.3,.18Z"/>
  <path class="cls-8" d="M207.52,150.43c-.05,.07-.1,.13-.16,.2-.02-.06-.06-.12-.05-.17,.02-.11,.06-.22,.09-.33,.04,.1,.08,.2,.12,.3Z"/>
  <path class="cls-13" d="M227.66,169.47c.22-.26,.49-.25,.78-.14-.26,.05-.52,.09-.78,.14Z"/>
  <path class="cls-13" d="M215.33,164.87c-.03,.27-.06,.53-.09,.8-.27-.29-.23-.56,.09-.8Z"/>
  <path class="cls-13" d="M139.71,93.75c.28-.23,.59-.28,.92-.12-.31,.04-.62,.08-.92,.12Z"/>
  <path class="cls-13" d="M245.02,75.83c-.42,.04-.81-.02-1.09-.35,.43-.08,.83-.05,1.09,.35Z"/>
  <path class="cls-13" d="M238.48,74.46c-.07,.16-.15,.31-.22,.47-.04-.17-.07-.34-.11-.52,.11,.02,.22,.03,.33,.05Z"/>
  <path class="cls-13" d="M259.37,138.51c.15,.05,.3,.11,.45,.16-.03,.2-.04,.47-.33,.39-.09-.02-.08-.36-.12-.56Z"/>
  <path class="cls-13" d="M234.2,169.3c.19,.03,.37,.06,.56,.08-.19-.03-.37-.06-.56-.08Z"/>
  <path class="cls-13" d="M230.83,168.95c.33-.26,.66-.26,.99,0-.33,0-.66,0-.99,0Z"/>
  <path class="cls-13" d="M247.57,165.01c-.16-.18-.31-.35-.47-.52,.32,.04,.47,.22,.47,.52Z"/>
  <path class="cls-9" d="M261.36,125.26c.07,.06,.14,.11,.22,.17-.07,.02-.13,.04-.2,.06-.08-.07-.08-.14-.02-.22Z"/>
  <path class="cls-6" d="M193.3,101.28c.07,.08,.14,.16,.19,.25,.02,.03-.04,.1-.06,.15-.04-.13-.09-.27-.13-.4Z"/>
  <path class="cls-13" d="M135.13,92.82c.21,.13,.41,.27,.62,.4-.32,.03-.54-.09-.62-.4Z"/>
  <path class="cls-9" d="M188.05,77.03c.08-.06,.16-.11,.24-.17-.06,.08-.11,.16-.17,.24,0,0-.07-.07-.07-.07Z"/>
  <path class="cls-13" d="M135.55,15.5c.26,.08,.35,.26,.3,.51-.1-.17-.2-.34-.3-.51Z"/>
  <path class="cls-7" d="M111.86,188.63c-1.23,0-2.46,.01-3.69,.02-.04-.24-.07-.49-.11-.73,1.31-.76,2.63-.75,3.95-.02-.05,.24-.1,.49-.15,.73Z"/>
  <path class="cls-13" d="M108.06,187.92c.04,.24,.07,.49,.11,.73-.83-.07-1.91,.55-2.26-.79,.72,.02,1.44,.04,2.15,.05Z"/>
  <path class="cls-13" d="M111.86,188.63c.05-.24,.1-.49,.15-.73,.58,0,1.15,0,1.73,0-.25,1.15-1.14,.75-1.88,.72Z"/>
  <path class="cls-7" d="M105.92,187.7c-.4,.03-.8,.06-1.2,.09-.09-.09-.17-.18-.22-.3,.5-.08,.99-.15,1.42,.2Z"/>
  <path class="cls-13" d="M98.24,186.21c-.04-.12-.06-.25-.06-.38,.34-.01,.72-.11,.9,.32-.28,.02-.56,.04-.84,.06Z"/>
  <path class="cls-7" d="M104.5,187.5c.05,.11,.13,.21,.22,.3-.17-.04-.34-.08-.51-.12,.08-.08,.18-.14,.29-.18Z"/>
  <path class="cls-12" d="M131.56,187c.72,0,1.44,0,2.16,0,.15,.21,.31,.43,.46,.64-.94,.04-2.09,.83-2.63-.65Z"/>
  <path class="cls-13" d="M143.29,82.48c1.72-.26,2.62-2.17,4.52-2.08-1.65,1.37-3.3,2.74-4.96,4.1-1.59,1.31-3.2,2.59-4.32,4.35-.75,1.19-.3,1.7,.94,1.78,1.24,.08,2.5,.02,3.76,.33-1.68,.7-3.41,1.01-5.15,.28-.9-.37-1.16-1.16-.75-2.1,.63-1.45,1.65-2.6,2.83-3.63,1.1-.96,2.3-1.82,3.13-3.03Z"/>
</svg>