<?xml version="1.0" encoding="UTF-8"?>
<svg id="Layer_1" data-name="Layer 1" xmlns="http://www.w3.org/2000/svg" viewBox="0 0 414 200">
  <defs>
    <style>
      .cls-1 {
        fill: #f7b7d3;
      }

      .cls-2 {
        fill: #00bff3;
      }

      .cls-3 {
        fill: #ede3ce;
      }

      .cls-4 {
        fill: #fff9b8;
      }

      .cls-5 {
        fill: #ece9e0;
      }

      .cls-6 {
        fill: #fbb040;
      }

      .cls-7 {
        fill: #9ed2f1;
      }

      .cls-8 {
        fill: #b6aea8;
      }

      .cls-9 {
        fill: #b7cfbb;
      }

      .cls-10 {
        fill: #dedad4;
      }

      .cls-11 {
        fill: #444139;
      }

      .cls-12 {
        fill: #6e665b;
      }

      .cls-13 {
        fill: #4c4742;
      }

      .cls-14 {
        fill: #504c47;
      }
    </style>
  </defs>
  <path class="cls-11" d="M195.36,149.84c-.48-.85-1.07-1.66-.9-2.69-.1-.22-.21-.43-.31-.65-.56-1.85-1.29-3.66-1.29-5.62,.65-.63,.55-1.18-.22-1.64-.06-.41-.12-.82-.18-1.22,.21-.55,.26-1.08-.27-1.51-.05-1.07-.09-2.14-.14-3.21,0-.53-.02-1.06-.02-1.58-.27-.33-.29-.66-.01-.99-.01-.79-.03-1.59-.04-2.38-.5-1.44-.35-2.87,.05-4.3,0-.39,0-.77,0-1.15,.03-1.42-.02-2.85,.1-4.26,.09-1.04-.28-1.71-1.34-2.04-.12-.1-.26-.13-.41-.11-.24-.13-.49-.25-.73-.38-.07-.11-.18-.16-.31-.16-.41-.26-.83-.52-1.24-.77,.31-.27,.61-.55,.92-.82,1.13,.33,2.04,1.72,3.44,.69,.53-.39,1.44-7.32,1.02-7.77-4.08-4.41-5.8-9.86-7.2-15.27-1.05-4.05-2.48-6.78-7.58-6.17-.35,.04-.74-.22-1.11-.34-.12-.07-.26-.11-.41-.1-.22,0-.43,0-.65,0-.85-.35-1.69-.7-2.54-1.04-.74-.21-1.23-.7-1.65-1.26,.04-.47,.2-.86,.74-1.02,3.86,2.78,8.42,2.85,12.99,2.85,.05,.43,.1,.86,.15,1.29,1.64,6.81,3.55,13.53,7.84,19.73,1.01-1.32,.56-2.23,.53-3.13-.1-4.05,.52-7.73,5.22-9.63,1.47-.59,1.96-2.06,1.53-3.48-.69-2.29-.77-4.49,.08-6.76,.58-1.56-1.41-5.25-2.7-5.06-3.21,.46-6.52,.46-9.71,1.47,.45,1.83,2.67,2.66,2.68,4.57-.07,.29-.14,.57-.21,.86-.2,.49-.59,.71-1.15,.67-.07-.13-.16-.26-.24-.39h.05c-.11,.16-.23,.33-.34,.49-.63,.1-1.25,.2-1.88,.3-.02-.35-.03-.71-.05-1.06,2.06-.44,2.93-1.23,.99-2.86-.22-.18-.39-.42-.57-.64-1.75-2.09-1.31-3.2,1.57-3.7,1.95-.34,3.93-.54,5.9-.78,3.85-.48,4.21-.82,2.64-4.01-.44-.88-.13-3.27-2.68-2.46,0-.39,.01-.77,.02-1.16,1.7-.48,2.64-1.22,2.96-3.15,.91-5.51,4.78-9.37,9.5-10.09,.48,.2,.66,.57,.7,1.03-4.53,1.07-7.31,3.94-8.31,7.94-2.46,9.82,1.15,17.72,10.93,22.5,1.04,.51,1.66,.53,1.69-.8,.05-2.48,.25-4.91-.95-7.33-1.71-3.44-2.97-7.04-2.89-10.93,.04-2.32,.84-3.79,3.72-3.43,.58,.07,1.19-.07,1.79-.11,.08,.33,.17,.66,.25,.99-.13,.18-.26,.36-.39,.54-.35,.08-.7,.16-1.05,.23-.39,.01-.78,.02-1.17,.03-2.39,.09-1.04,1.24-.7,2.1-2.23,1.68-.26,3.46,0,5.12,.23,1.39,1.77,.75,2.76,.63,4.7-.58,9.38-1.21,14.07-1.82h.25s.23-.08,.23-.08c4.19-.85,8.38-1.71,12.58-2.56-.15,.46-.29,.93-.44,1.39-1.46,.3-2.92,.61-4.38,.91-.64-.22-1.24-.25-1.65,.39-2.62,.53-5.22,1.12-7.86,1.55-1.45,.24-2.04,.72-1.82,2.18,.34,2.28,.3,4.62,.72,6.88,.39,2.13,2.66,3.05,4.2,4.27,3.22,2.56,5.15,5.79,6.69,9.27,.54,1.22,1.27,1.78,2.53,2.31,8.46,3.53,14.84,8.87,17.29,17.51-.24,.58-.28,1.13,.38,1.52,.17,.12,.21,.27,.12,.46,.1,.39,.2,.79,.3,1.18,.88,2.91-.49,6.27,2.09,8.83-.06,.5-.13,1-.73,1.24-.36-.38-.72-.75-1.07-1.13-.59,0-1.18-.01-1.76-.02,.05-.37,.1-.74,.15-1.11,1.8-2.61,1.35-5.19-.1-7.76-1.73-8.62-7.09-14.66-15.41-18.59-.5-.24-1.23-.56-1.64-.39-.81,.33-.4,1.15-.24,1.71,.49,1.71,.79,3.46,.68,5.21-.11,1.63,.62,2.47,2.11,3.25,3.42,1.8,6.29,4.23,8.47,7.29,1.69,2.37,3.24,5.19,1.89,7.8-1.62,3.15,.03,5.12,1.57,7.93,.91-1.71,1.59-3,2.28-4.3,.42,.03,.83,.06,1.25,.08-.07,1.24-.63,2.34-1.33,3.33-1.07,1.52-1.9,3.03-1.08,4.88-.52-.15-1.03-.3-1.55-.45-2.08-5.9-4.87-11.25-11.64-13.81-3.06-1.16-3.53-.98-3.45,2.18,.08,3.26,2.14,5.87,3.4,8.74-.42,.08-.83,.16-1.25,.24l-.96-.15c-.28-.43-.74-.51-1.23-.53,.88-2.56-.19-4.87-2.02-6.43-3.12-2.66-5.73-5.39-6.98-9.28-.43-1.35-1.66-3.41-4.08-2.56-1.29,.46-2.5,1.14-3.91,1.23-1.16,.07-1.27,.66-.97,1.51l-1.28,.04c-3.29-5.64-7.91-10.37-12.22-15.3-1.75-2-3.55-3.98-4.93-6.25-.53-.87-.41-2.51-2.04-2.35-1.37,.13-2.11,1.34-2.68,2.41-.57,1.07-.89,2.22-.89,3.46,0,4.21,1.75,7.9,3.92,11.45,3.3,5.39,7.58,10.14,11.66,15.02,4.11,4.92,6.02,10.42,4.54,16.59-.71,2.97-.14,5.4,2.12,7.54,.16,.59,.56,.98,1.15,1.24,.14,.79,.26,1.59,.42,2.38,.5,2.33,1.66,2.05,3.08,.65,.25,.84,.51,1.67,.76,2.51-10.2,.1-17.68,5.91-26.06,10.29,1.2,1.22,2.44,1.6,3.62,2.03,4.47,1.59,8.96,1.19,13.44,.03-.12,.91,.4,1.93-.56,2.68-1-.96-2.19-.57-3.36-.44-4.35,.49-8.54,.04-12.42-1.99-.78-.41-1.47-.96-2.28-1.31-1.22-.53-2.59-.15-3.3,.62-.71,.78,.65,1.33,1.16,1.9,1.92,2.15,4.31,3.78,6.96,5.09-.2,.19-.39,.38-.59,.58-.38,.09-.76,.18-1.14,.27-.4,.1-.8,.2-1.2,.31l-1.06,.3c-.43,.23-.78,.22-1.01-.25-.32-1.04,1.26-.67,1.26-.94-3.75-5.37-8.52-8.12-15.22-6.92-.26,.05-.57-.12-.85-.19-.31-.07-.63-.14-.94-.21-2.47,.27-4.77-.43-6.89-1.4-1.71-.78-3.45-.7-4.29,.49-.73,1.03,1.01,1.97,1.82,2.83,2.48,2.59,5.79,4.13,8.9,5.92-.13,.12-.25,.24-.37,.36-.47,.03-.94,.05-1.41,.08-.4,.04-.8,.07-1.2,.11-.53-.25-1.05-.5-1.58-.74-2.36-2.8-5.94-4.48-8.09-7.5-.33-.46-1.11-.29-1.69-.12-7.17,2.11-14.21,2.8-20.8-1.61-.96-.64-2.09-.16-2.69,.49-.73,.79,.45,1.23,.93,1.7,3.34,3.28,7.44,5.47,11.94,7.08-.19,.34-.39,.69-.58,1.03-.6,.01-1.2,.03-1.8,.04-.59-.18-1.18-.37-1.77-.55-.08-.26-.09-.66-.27-.75-3.76-1.8-7.08-4.12-9.86-7.08-.85-.9-1.76-.59-2.73-.34-2.68,.68-5.34,1.49-8.18,1.42-.2-.35-.4-.7-.59-1.05,.61-.17,1.22-.34,1.82-.51,.2-.03,.39-.05,.59-.08,.79-.08,1.58-.15,2.37-.23,.21-.09,.42-.19,.63-.28,6.43-1.55,12.75-3.34,18.37-7.25-2.32-1.52-4.78-1.93-7.11-2.63-.21-.02-.41-.05-.62-.07l-1.05-.26c0-.42,0-.84,0-1.26,.22-.06,.44-.12,.66-.19,.17-.12,.34-.24,.51-.36,.48-.25,.97-.51,1.45-.76,.24,.3,.48,.59,.72,.89-.06,.25-.27,.66-.17,.74,3.45,2.7,10.58,3.04,14.18,.79,1.36-.85,.12-1.08-.26-1.55,.21-.31,.41-.63,.62-.94,3.49,2.1,6.88,1.63,10.51,.09,5.63-2.39,11.41-2.16,16.96,.3,1.56,.69,1.9,.64,2.23-.93,.43-2.04,1.87-3.61,3.58-4.95,.59-.27,.68-.63,.22-1.08Zm28.57-56.75c-.33,.27-.67,.55-1,.82-.39-.04-.83,.01-1.18-.12-5.98-2.35-11.84-4.9-16.79-8.91-.58-.47-1.18-1.32-1.97-1.02-.93,.36-.83,1.46-.76,2.22,.25,2.61,1.01,5.01,3.06,7.02,6.9,6.76,15.94,9.93,25.07,12.94,1.65,.54,1.97-.29,2.16-1.66,.27-1.96-1.76-2.74-2.2-4.29,.3-.3,.6-.59,.9-.89,2.42,1.07,3.24,3.3,2.85,5.27-.66,3.28,1.47,3.61,3.82,4.23,.31-9.99-4.48-18.1-12.02-22.55-.65,2.32-1.29,4.63-1.93,6.94Zm-36.88,76.09c.88,.04,1.78,.28,2.6-.24,6.08-.93,11.32-3.46,16.31-6.99-3.7-2.31-7.55-2.67-11.46-2.83-.21-.27-.41-.24-.59,.03l-2.24,.16c-.67-.08-1.36-.2-1.93,.3-5.64,1.76-11.59,2.99-15.71,7.63,2.25,1.02,4.55,1.18,6.75,1.7,.81,.54,1.71,.29,2.59,.25h3.68Zm18.3-9.89c-.85-3.96-.66-7.82-.69-11.66-.02-2.13,.47-4.38-.13-6.36-1.94-6.37-1.54-12.82-1.49-19.29,0-1.01,.28-2.21-.19-3-2.19-3.66-5.13-6.9-6.84-10.92-.73,1.82-1.1,3.53-1.42,5.24-1.56,8.25-1.83,16.52-.69,24.84,.82,6.02,2.36,11.81,5.87,16.99,1.24,1.83,2.58,3.77,5.59,4.15Zm44.53-31.79c1.86-3.52,1-6.98-2.43-10.46-6.41-6.5-15.31-8.65-23.75-11.57-1.84-.64-1.2,.96-.99,1.61,1.5,4.73,4.86,8.09,9.25,10.73,5.81,3.49,13.14,4.48,17.92,9.69Zm-41.43-1.61c-.63,5.78-3.16,10.48-2.32,15.96,.66,4.32-.26,8.85,.29,13.28,.23,1.86-.27,4.45,2.64,4.54,2.66,.09,2.94-2.53,3.4-4.29,1.02-3.85,1.85-7.76,2.45-11.68,1.02-6.58-.77-12.42-6.47-17.82Zm-29.13,35.22c-12.67-5.41-22.62,.93-32.87,6.16,6.59,5.62,23.08,2.54,32.87-6.16Zm35.66-78.49s-.02,0-.03,0c-.06,.83-.15,1.65-.19,2.48-.14,3.61,2.67,6.49,6.59,6.85,.82,.08,1.04-.32,1.26-.85,1.99-4.95,2.64-10,1.33-15.2-.21-.84-.69-.92-1.49-.89q-7.17,.33-7.43,7.06c0,.18-.02,.37-.04,.55Zm-12.53,10.21c.78,6.13,6,9.55,9.89,14.74,.17-2.05,.27-3.22,.37-4.39,.1-1.16,.62-2.38-.83-3.23-3.42-2.02-6.52-4.41-9.43-7.12Zm14.08,19.13c1.39-1.72,2.18-3.66,2.76-5.7,.5-1.77-2.12-4.55-4.05-4.28-.47,.07-.58,.36-.74,.71-1.55,3.44-.88,6.68,2.03,9.27Zm-43.36,45.51c5.41,1.86,10.13,4.51,15.43,.53-4.98-2.11-9.84-2.03-15.43-.53Zm47.78-50.31c-1.17,2.22-2.02,3.86-2.9,5.48-.69,1.26-.08,2.27,.97,2.82,1.72,.9,3.48,.36,4.99-.63,1.32-.87,.12-1.6-.39-2.26-1.14-1.48-1.96-3.09-2.67-5.41Zm-5.38,43.21c-1.15,1.88-1.01,3.89-1.69,5.69-.23,.6-1.07,1.6-.17,1.96,1.56,.61,3-.63,4.55-.84,.93-.13,.86-.91,.59-1.54-.8-1.84-1.54-3.72-3.28-5.26Zm-10.63-16.1c3.06-8.31,3.04-10.25-.56-12.81,.16,4.43-.56,8.57,.56,12.81Zm-5.02,23.78c-1.21-1.94-2.19-3.51-3.17-5.07-.26-.41-.68-.93-1.12-.57-1.42,1.17-2.76,2.61-2.58,4.42,.17,1.73,1.9,.57,2.9,.79,1.14,.25,2.33,.27,3.97,.43Zm31.78-38.05c1.26,1.69,1.86,3.79,3.6,5.22,.94,.77,1.39,.82,1.67-.53,.59-2.78-1.09-4.32-5.27-4.69Z"/>
  <path class="cls-4" d="M228.67,72.6c-4.69,.61-9.38,1.24-14.07,1.82-.99,.12-2.53,.76-2.76-.63-.27-1.66-2.24-3.44,0-5.12,2.3-.11,.36-1.43,.7-2.1,.39-.01,.78-.02,1.17-.03,.03,.64,.31,1.08,1.07,1.13,4.59-.9,9.31-1.37,13.59-3.36,.25,0,.5,.02,.74,.03,2.44-.32,4.97-.33,7.11-1.7,.18,0,.37,0,.55,0,.29,.05,.59,.1,.88,.15,.28,.23,.49,.17,.65-.13,23.1-5.54,46.19-11.13,69.31-16.6,7.6-1.8,15.07-4.09,22.84-5.27,1.04,.12,1.92-.15,2.58-.94,8.78-2.05,17.56-4.09,26.34-6.14,1.59,.23,2.55-1.53,4.18-1.13,1.06,2.62,.5,5.35,.68,8.04-1.2,.69-2.6,.61-3.89,.91-10.59,2.43-21.14,4.97-31.71,7.49-14.06,3.36-28.13,6.71-42.18,10.1-7.68,1.85-15.48,3.3-23.02,5.64-7.32,1.41-14.53,3.21-21.69,5.2-4.19,.85-8.38,1.71-12.58,2.56-.19-.12-.35-.09-.48,.08Z"/>
  <path class="cls-13" d="M144.15,157.78c0,.42,0,.84,0,1.26-9.07-.77-15.84,4.03-22.92,8.1-.9,.52-.48,1.09,.17,1.52,.65,.42,1.34,.79,2.02,1.18-.09,.37-.18,.75-.27,1.12-1.12-.16-2.18-.59-2.87-1.34-1.73-1.88-3.67-.76-4.62,.25-1.24,1.31,.89,2.09,1.77,2.7,10.1,6.96,21.37,8.13,33.35,5.56,.59,.18,1.18,.37,1.77,.55-2.9,1.97-6.33,2.14-9.69,2.19-5.91,.09-11.73-.64-17.36-2.36-1.08-.33-2.07-.64-3.15-.1-6.64,3.35-13.47,2.73-20.28,.65-1.94-.59-3.52-.51-5.38,.34-7.9,3.62-15.66,2.66-23.15-1.12-1.56-.79-2.74-.9-4.37-.22-2.39,1-4.96,1.6-7.8,.95,.72-1.5,2.37-.41,3.13-1.3,1.14-.24,2.29-.48,3.43-.73,1.75-.37,1.92-1.05,.51-2.1-1.29-.96-2.55-1.95-3.82-2.93-1.22-2.64-4.29-4.79-2.58-8.22,2.32-1.18,4.64-2.35,7.23-3.66-2.27-1.22-4.47-1.56-6.67-1.88-.39-.27-.94-.49-.84-1.04,.15-.78,.87-.75,1.4-.53,1.45,.61,2.69,0,4.03-.34,4.42-1.16,8.85-1.06,13.29,.02,4.78,1.17,9.52,1.24,14.31-.19,5.09-1.51,9.95-1.27,15.09,.81,3.61,1.46,8.1,.98,12-.06,5.32-1.41,10.36-2.28,15.57,.4,1.96,1.01,4.52-.44,6.72,.49Zm-78.51,11.42c-.12-.1-.32-.32-.36-.3-.36,.21-.14,.41,.05,.6,7.44,9.86,22.9,13.82,31.44,7.87-3.88-1.9-7.41-4.09-9.69-7.61-.49-.76-1.17-.46-1.84-.25-6.57,1.99-13.11,1.95-19.6-.3Zm45.95-10.03c-7.35,.88-13.42,4.48-20.29,7.69,8.8,5.33,17.01,4.36,25.29,.76,2.48-.56,4.44-2.03,6.48-3.31,1.5-.94,4.58-1.66,4.05-2.97-.66-1.62-3.48-2.11-5.76-2.05-.53-.05-1.06-.1-1.59-.15-2.05-.61-4.14-.34-6.22-.18-.42,.02-.84,.05-1.26,.07-.24,.05-.47,.09-.71,.14Zm-12.02,1.68c-13.26-4.1-25.59-2.58-37.47,4.73,5.69,3.07,11.18,4.57,17.48,3.68,7.55-1.06,13.45-5.27,19.99-8.42Zm21.73,16.1c-2.87-1.75-5.42-3.37-7.44-5.56-.49-.54-1.11-.82-1.85-.59-7.58,2.31-14.72,1.6-21.36-2.61-.73-.46-1.33-.35-1.87,.13-.74,.65-.04,1.16,.35,1.65,.29,.37,.62,.73,.97,1.05,7.05,6.51,15.79,8.55,25.4,8.02,1.9-.11,3.86-.67,5.8-2.08Zm-13.52-19.11c-3.92-1.73-8.25-1.79-12.35-.12,4.18,1.62,8.06,3.35,12.35,.12Zm27.72,.48c-2.87-1.91-7.93-2-10.78-.26,3.47,3.03,7.09,2.5,10.78,.26Zm-67.57-.81c3.65,2.83,6.81,.71,10.02-.02-3.15-.91-6.3-.66-10.02,.02Z"/>
  <path class="cls-7" d="M163.59,18.67c2.46-1.27,5-2.12,7.87-1.42,.97,10.7,2.83,21.29,4.59,31.88,1.18,7.12,2.28,14.25,4.16,21.25,.5,1.9-.2,3.13-2.26,3.75-.73,.22-1.43,.68-2.02,1.15-1.59,1.28-2.16,.95-2.54-.95-.98-4.87-2.19-9.7-3.31-14.54-.01-.46,.03-.93-.05-1.38-1.7-10.11-3.6-20.2-5-30.35-.43-3.14-2.09-6.14-1.44-9.41Z"/>
  <path class="cls-13" d="M253.38,137.59c.52,.15,1.03,.3,1.55,.45,1.44,4.72,.89,9.24-3.38,12.33-2.81,2.03-3.75,4.28-3.72,7.26,0,.45-.13,.91-.25,1.35-.16,.6-.8,1.3-.1,1.78,.7,.48,1.5,0,2.22-.31,3.66-1.57,6.27-4.16,8.27-7.33,.59,.24,.69,.74,.76,1.25-.1,.16-.2,.33-.3,.49-.11,.18-.22,.36-.34,.55-.43,1.89-.72,3.81-1.32,5.65-2.81,8.58-9.99,12.74-18.53,15.39-3.78,1.17-7.72,1.82-11.75,1.56-1.45-.09-2.7,.39-4.02,.83-7.25,2.45-14.42,2.25-21.49-.65,.56-.08,1.12-.17,1.35-.76,6.27,1.75,12.56,2.46,19.3,.16-2.76-1.41-5.61-2.17-7.29-4.46,.97-.75,.45-1.78,.56-2.68,1.18-.43,2.37-.86,3.55-1.29,.27,.57,.84,.65,1.41,.73-1.14,1.18-4.25,1-4,2.24,.41,1.97,3.1,2.57,5.11,3.35,.27,.11,.56,.19,.86,.24,10.52,2.06,19.68-.7,27.76-6.93,3.16-2.43,5.16-5.58,6.04-9.92-2.38,1.41-4.01,3.19-6.13,3.31-2.97,.16-4.74,1.89-6.86,3.27-.28-.25-.56-.51-.84-.76,6.4-6.2,5.45-13.37,3.16-20.7-.5-1.59-1.43-1.5-2.57-.45-1.73,1.6-2.98,3.54-3.77,5.6-2.95,7.66-7.88,13.91-14.92,18.74-.79,.54-1.49,1.04-.39,1.89-.33,.26-.67,.52-1,.78-.59-.02-1.08-.22-1.45-.66-.02-.64-.03-1.28-.05-1.92,1.85-1.39,3.82-2.67,5.52-4.21,1.51-1.38,4.22-2.93,3.63-4.59-.5-1.39-3.74-.79-5.78-1-.1,0-.2-.03-.29-.05-.25-.84-.51-1.67-.76-2.51,1.27-1.53,2.83-2.64,4.97-2.91,.02,.4,.04,.8,.06,1.2-1.11,.84-2.78,1.05-3.49,2.76,2.43,.23,4.76,.66,7.08,.6,1.89-.06,2.64-1.87,2.68-3.19,.04-1.41-1.67-.57-2.59-.74-.38-.07-.79-.03-1.19-.04-.06-.37-.11-.73-.17-1.1,.39-.04,.78-.12,1.17-.13,4.51-.17,6.9-3.4,5.54-7.39-1.22-3.58-.66-7.06,1.06-10.41,.49,.03,.94,.11,1.23,.53-1.5,3.15-1.56,6.35-.72,9.9q4.49-3.9,2.2-8.47c-.21-.41-.35-.86-.52-1.28,.42-.08,.83-.16,1.25-.24,2.7,4.35,5.51,8.65,6.23,13.76,.1,.7-.14,1.67,.73,1.94,.83,.26,1.42-.55,1.97-1.03,3.79-3.34,3.71-7.47,2.75-11.78Z"/>
  <path class="cls-13" d="M263.42,64.75c7.54-2.34,15.34-3.79,23.02-5.64,14.06-3.39,28.12-6.74,42.18-10.1,10.56-2.52,21.12-5.06,31.71-7.49,1.3-.3,2.69-.22,3.89-.91,1.21,.18,.7,.9,.54,1.5-.8,.04-1.62,.01-2.2,.67-10.23,1.91-20.25,4.65-30.36,7.02-21.32,4.99-42.6,10.09-63.91,15.12-1.15,.27-2.36,.34-3.53,.5-.55-.05-1.07-.15-1.34-.67Z"/>
  <path class="cls-7" d="M181.28,170.15c.29,.07,.59,.24,.85,.19,6.71-1.2,11.47,1.55,15.22,6.92,0,.27-1.58-.1-1.26,.94,0,0-.06-.04-.06-.04-.26-.08-.57-.29-.78-.23-5.15,1.53-10.27,1.08-15.38-.15-3.11-1.79-6.43-3.33-8.9-5.92-.82-.85-2.56-1.8-1.82-2.83,.84-1.18,2.58-1.27,4.29-.49,2.12,.97,4.42,1.67,6.89,1.4,.31,.07,.63,.14,.94,.21Z"/>
  <path class="cls-13" d="M270.03,51.65c10.12-2.46,20.23-4.94,30.35-7.37,19.39-4.64,38.78-9.28,58.2-13.81,1.24-.29,2.7-1.58,4.09-.11-.63,.86-1.71,.92-2.64,1.14-27.08,6.46-54.17,12.89-81.26,19.31-8.68,2.06-17.36,4.1-26.03,6.15l-.08-1.06c5.23-1.62,10.6-2.74,15.95-3.93,.52,.06,1.03,.08,1.41-.34Z"/>
  <path class="cls-4" d="M252.74,56.97c8.68-2.05,17.36-4.1,26.03-6.15,27.09-6.43,54.18-12.86,81.26-19.31,.92-.22,2.01-.28,2.64-1.14,.29,.74,.58,1.48,.87,2.22-1.64-.4-2.6,1.36-4.19,1.13-.24-1.89-1.66-.62-2.21-.5-7.42,1.67-14.81,3.45-22.2,5.25-.78,.19-1.89,.22-1.94,1.38-.66,.79-1.54,1.05-2.58,.94-2.78-1.49-5.32,.02-7.88,.63-14.71,3.48-29.41,7.04-44.11,10.54-12.02,2.86-24.08,5.63-36.07,8.58-1.91,.47-4.31,.12-5.6,2.1-.18,0-.37,0-.55,0-2.59-.23-5.11-.18-7.11,1.7-.25,0-.5-.02-.74-.03-3.5-.62-6.54,1.3-9.88,1.55-.02-.2-.04-.4-.06-.61,2.62-.72,5.24-1.43,7.86-2.15,1.09-.26,2.18-.53,3.26-.79,.52-.11,1.04-.22,1.56-.33,.87,.14,1.65-.09,2.39-.5,6.5-1.23,12.91-2.76,19.27-4.52Z"/>
  <path class="cls-14" d="M180.21,70.39c-1.88-7-2.98-14.14-4.16-21.25-1.76-10.6-3.62-21.19-4.59-31.88,2.29-.24,1.65,1.5,1.76,2.46,1.23,10.87,3.15,21.64,4.95,32.43,1.02,6.1,2.21,12.17,3.33,18.25-.43,0-.86,0-1.29,0Z"/>
  <path class="cls-13" d="M180.21,70.39c.43,0,.86,0,1.29,0,.6,1.5,1.57,1.75,3.27,1.28,3.61-.99,7.3-1.71,10.96-2.54,0,.39-.01,.77-.02,1.16-.79,.25-1.58,.49-2.37,.74-4.4,.82-8.76,1.75-12.82,3.61-1.13,.54-2.36,.95-3.36,1.66-2.06,1.45-4.64,2.66-4.1,5.74-.54,.16-.7,.55-.74,1.02-.98-.48-1.15-1.47-.85-2.14,2.05-4.48-.51-8.59-1.09-12.84-.33-2.44-1.2-4.82-1.27-7.31,.32-.32,.63-.64,.95-.96,1.12,4.85,2.33,9.68,3.31,14.54,.38,1.89,.95,2.22,2.54,.95,.59-.48,1.29-.93,2.02-1.15,2.06-.62,2.76-1.85,2.26-3.75Z"/>
  <path class="cls-14" d="M170.08,59.8c-.32,.32-.63,.64-.95,.96-1.92-6.49-2.59-13.18-3.82-19.78-1.25-6.69-1.77-13.49-3.23-20.15-.17-.8-.04-1.65-.04-2.48,0-.59,.33-.82,.93-.73,.71,.1,.59,.61,.62,1.05-.64,3.27,1.01,6.26,1.44,9.41,1.4,10.15,3.31,20.24,5,30.35,.08,.45,.03,.92,.05,1.38Z"/>
  <path class="cls-14" d="M258.71,154.36c-.06-.52-.16-1.01-.76-1.25,3.23-7.63,4.47-15.34,1.22-23.26,.6-.23,.67-.73,.73-1.24,3.04,4.54,3.14,9.53,2.51,14.59-.48,3.92-1.31,7.77-3.71,11.15Zm2.7-20.83c-.06,.01-.16,0-.18,.05-.04,.06-.03,.14-.05,.22,.11-.02,.21-.04,.32-.06-.03-.07-.06-.13-.08-.2Z"/>
  <path class="cls-13" d="M226.26,63.11c-2.62,.72-5.24,1.43-7.86,2.15-1.09,.17-2.19,.34-3.28,.51-.08-.33-.17-.66-.25-.99,1.17-.8,2.61-.91,3.94-1.14,2.67-.45,2.2-1.47,.84-2.85-2.9-2.95-6.56-4.04-10.76-3.86-.03-.46-.22-.83-.7-1.03,4.82-1.3,9.92,.58,13.6,5.15,.76,.95,1.39,1.77,2.82,1.33,.55,.25,1.1,.49,1.65,.74Z"/>
  <path class="cls-14" d="M263.42,64.75c.27,.53,.79,.62,1.34,.67-7.65,2.56-15.63,4.01-23.47,5.92,.15-.46,.29-.93,.44-1.39,7.16-1.99,14.37-3.79,21.69-5.2Z"/>
  <path class="cls-14" d="M175.33,177.58c.53,.25,1.05,.5,1.58,.74-4.43,2.44-9.28,2.41-14.17,2.01-2.86-.23-5.72-.6-8.4-1.69,.19-.34,.39-.69,.58-1.03,6.8,1.34,13.61,2.54,20.4-.04Z"/>
  <path class="cls-14" d="M252.74,56.97c-6.35,1.76-12.77,3.29-19.27,4.52-1.02-.74-1.91-.99-2.39,.5-.52,.11-1.04,.22-1.56,.33-.08-.09-.16-.18-.25-.26-.02-.24-.05-.48-.07-.73,7.82-1.8,15.64-3.61,23.45-5.41l.08,1.06Z"/>
  <path class="cls-13" d="M173.98,84.32c.85,.35,1.69,.7,2.54,1.04,.22,4.23,2.23,8.08,3.02,12.19,.04,.82-.3,1.75,.74,2.29,.11,.29,.21,.58,.32,.87-.39,.1-.79,.19-1.18,.29,0,0,.02,.02,.02,.02-.12-.21-.25-.43-.37-.64-.08-.29-.15-.59-.23-.88-.08-.25-.17-.5-.25-.75-.11-.33-.22-.67-.33-1-.07-.22-.13-.43-.2-.65-1.36-4.26-2.71-8.53-4.07-12.79Z"/>
  <path class="cls-14" d="M179.42,101.01c.39-.1,.79-.19,1.18-.29,1.66,3.22,3.33,6.43,4.99,9.65-.6,.22-.65,.72-.72,1.21-2.52-3.21-4.71-6.57-5.45-10.57Z"/>
  <path class="cls-7" d="M64.62,171.97c1.27,.98,2.53,1.97,3.82,2.93,1.41,1.05,1.24,1.73-.51,2.1-1.14,.24-2.29,.48-3.43,.73-1.86-2.24-1.81-4.4,.12-5.76Z"/>
  <path class="cls-11" d="M179.88,177.78c5.11,1.24,10.23,1.69,15.38,.15,.21-.06,.52,.15,.78,.23q-.52,1.31-3.67,1.72c-.26,.04-.52,.08-.78,.12-.63,.06-1.26,.13-1.89,.19-.2-.25-.39-.23-.57,.02-1.44,.15-2.89,.27-4.29-.21-.27-.04-.54-.08-.81-.12-.31-.05-.62-.1-.93-.15-.43-.52-1.01-.47-1.6-.33-.75,.07-1.41-.09-1.94-.61l-.04-.66c.12-.12,.24-.24,.37-.36Z"/>
  <path class="cls-7" d="M62.59,158.22c2.2,.32,4.4,.66,6.67,1.88-2.58,1.31-4.9,2.48-7.23,3.66-.57-1.91,1.82-3.57,.56-5.54Z"/>
  <path class="cls-11" d="M158.85,155.29c.3,.06,.61,.13,.91,.19,.27,.39,.69,.46,1.15,.43,.46-.08,.75,.14,.95,.49-.21,.31-.41,.63-.62,.94-4.58-1.74-9.17-1.62-13.75,.01-.24-.3-.48-.59-.72-.89,.89-.86,2.09-.98,3.26-1.15,1.05-.04,2.16,.37,3.09-.42,1.01,0,2.02,0,3.03,0,.8,.74,1.77,.4,2.7,.4Z"/>
  <path class="cls-14" d="M226.26,63.11c-.55-.25-1.1-.49-1.65-.74,1.29-.53,2.62-.94,4.05-.96,.2,.21,.41,.43,.61,.64,.09,.08,.17,.17,.25,.26-1.09,.26-2.18,.53-3.26,.79Z"/>
  <path class="cls-11" d="M188.09,115.15c-1.08-.5-1.78-1.33-2.31-2.3,.4-.16,.8-.32,1.2-.48l2.02,1.96c-.31,.27-.61,.55-.92,.82Z"/>
  <path class="cls-11" d="M184.87,111.58c.07-.49,.12-.99,.72-1.21,.47,.67,.93,1.34,1.4,2.01-.4,.16-.8,.32-1.2,.48-.52-.29-.8-.73-.91-1.28Z"/>
  <path class="cls-14" d="M192.64,139.23c.77,.47,.87,1.01,.22,1.64-.34-.52-.42-1.06-.22-1.64Z"/>
  <path class="cls-13" d="M153.12,154.9c-.93,.79-2.04,.39-3.09,.42,.99-.39,2.01-.57,3.09-.42Z"/>
  <path class="cls-14" d="M179.51,178.14l.04,.66c-.57,0-1.13-.02-1.45-.58,.47-.03,.94-.05,1.41-.08Z"/>
  <path class="cls-13" d="M181.49,179.41c.59-.14,1.17-.19,1.6,.33-.6,.17-1.16,.16-1.6-.33Z"/>
  <path class="cls-14" d="M235.26,72.64c.41-.64,1-.61,1.65-.39-.47,.4-1.04,.48-1.65,.39Z"/>
  <path class="cls-3" d="M362.56,42.79c.58-.66,1.4-.63,2.2-.67-.58,.66-1.28,.98-2.2,.67Z"/>
  <path class="cls-13" d="M158.85,155.29c-.92,0-1.9,.34-2.7-.4,.94-.12,1.85-.02,2.7,.4Z"/>
  <path class="cls-14" d="M192.19,136.5c.54,.43,.49,.96,.27,1.51-.48-.44-.5-.96-.27-1.51Z"/>
  <path class="cls-14" d="M191.97,128.34c.01,.79,.03,1.58,.04,2.38-.46-.79-.53-1.58-.04-2.38Z"/>
  <path class="cls-13" d="M257.39,118.14c-.66-.39-.62-.94-.38-1.52,.13,.51,.25,1.01,.38,1.52Z"/>
  <path class="cls-11" d="M202.32,177.43c-.23,.59-.78,.68-1.35,.76,0,0-.26,0-.26,0l-.2-.16c0-.15,0-.31,0-.46,.2-.19,.39-.38,.59-.58,.41,.14,.82,.29,1.23,.43Z"/>
  <path class="cls-14" d="M192.02,131.71c0,.53,.02,1.06,.02,1.58-.35-.52-.37-1.05-.02-1.58Z"/>
  <path class="cls-14" d="M195.36,149.84c.46,.45,.37,.81-.22,1.08,.07-.36,.15-.72,.22-1.08Z"/>
  <path class="cls-13" d="M257.82,119.78c-.1-.39-.2-.79-.3-1.18,.1,.39,.2,.79,.3,1.18Z"/>
  <path class="cls-14" d="M270.03,51.65c-.39,.42-.89,.4-1.41,.34,.47-.11,.94-.23,1.41-.34Z"/>
  <path class="cls-13" d="M200.5,177.58c.01,.15,.01,.31,0,.46-.38-.06-.76-.13-1.14-.19,.38-.09,.76-.18,1.14-.27Z"/>
  <path class="cls-13" d="M160.91,155.92c-.46,.03-.87-.04-1.15-.43,.38,.14,.77,.29,1.15,.43Z"/>
  <path class="cls-13" d="M145.32,157.24c-.17,.12-.34,.24-.51,.36,.17-.12,.34-.24,.51-.36Z"/>
  <path class="cls-13" d="M191.59,180c.26-.04,.52-.08,.78-.12-.26,.04-.52,.08-.78,.12Z"/>
  <path class="cls-14" d="M178.05,97.11c.07,.22,.13,.43,.2,.65-.07-.22-.13-.43-.2-.65Z"/>
  <path class="cls-13" d="M189.12,180.21c.18-.26,.37-.28,.57-.02-.19,0-.38,.01-.57,.02Z"/>
  <path class="cls-14" d="M178.58,98.76c.08,.25,.17,.5,.25,.75-.08-.25-.17-.5-.25-.75Z"/>
  <path class="cls-13" d="M184.02,179.88c.27,.04,.54,.08,.81,.12-.27-.04-.54-.08-.81-.12Z"/>
  <path class="cls-14" d="M179.07,100.39c.12,.21,.25,.43,.37,.64-.12-.21-.25-.43-.37-.64Z"/>
  <path class="cls-13" d="M197.11,178.45l1.06-.3c-.29,.3-.57,.61-1.06,.3Z"/>
  <path class="cls-14" d="M258.08,155.4c.11-.18,.23-.37,.34-.55-.11,.18-.23,.37-.34,.55Z"/>
  <path class="cls-14" d="M189.33,115.93c.14,0,.24,.05,.31,.16,0,0-.21,.01-.21,.01l-.1-.18Z"/>
  <path class="cls-14" d="M190.37,116.47c.16-.02,.29,.01,.41,.11,0,0-.24,.06-.24,.06l-.18-.17Z"/>
  <path class="cls-14" d="M194.15,146.49c.1,.22,.21,.43,.31,.65-.1-.22-.21-.43-.31-.65Z"/>
  <path class="cls-14" d="M192.02,122.88c0,.38,0,.77,0,1.15-.32-.38-.27-.77,0-1.15Z"/>
  <path class="cls-13" d="M229.28,62.05c-.2-.21-.41-.43-.61-.64,.16-.14,.34-.17,.54-.09,.02,.24,.05,.48,.07,.73Z"/>
  <path class="cls-6" d="M218.47,151.33c-2.27-2.14-2.84-4.57-2.12-7.54,1.48-6.17-.43-11.67-4.54-16.59-4.08-4.88-8.36-9.63-11.66-15.02-2.17-3.55-3.92-7.24-3.92-11.45,0-1.24,.32-2.39,.89-3.46,.57-1.08,1.31-2.28,2.68-2.41,1.62-.16,1.5,1.48,2.04,2.35,1.39,2.27,3.18,4.24,4.93,6.25,4.32,4.94,8.94,9.66,12.22,15.3,2.91,7.19,4.32,14.59,3.16,22.26-.55,3.62-1.03,7.32-3.68,10.33Z"/>
  <path class="cls-6" d="M205.35,159.28c-3.01-.38-4.35-2.32-5.59-4.15-3.51-5.18-5.05-10.97-5.87-16.99-1.14-8.32-.86-16.59,.69-24.84,.32-1.71,.69-3.41,1.42-5.24,1.71,4.02,4.65,7.26,6.84,10.92,.47,.79,.2,1.99,.19,3-.05,6.46-.45,12.92,1.49,19.29,.6,1.97,.12,4.23,.13,6.36,.03,3.84-.16,7.7,.69,11.66Z"/>
  <path class="cls-7" d="M208.89,56.92c4.2-.18,7.86,.91,10.76,3.86,1.36,1.38,1.84,2.39-.84,2.85-1.33,.23-2.77,.34-3.94,1.14-.6,.04-1.21,.18-1.79,.11-2.88-.35-3.68,1.12-3.72,3.43-.07,3.89,1.18,7.49,2.89,10.93,1.2,2.42,1,4.84,.95,7.33-.03,1.33-.65,1.31-1.69,.8-9.78-4.78-13.4-12.69-10.93-22.5,1.01-4.01,3.78-6.87,8.31-7.94Z"/>
  <path class="cls-6" d="M230.32,100.09c.44,1.55,2.47,2.33,2.21,4.29-.19,1.36-.51,2.2-2.16,1.66-9.14-3.01-18.17-6.18-25.07-12.94-2.05-2.01-2.82-4.42-3.06-7.02-.07-.76-.18-1.87,.76-2.22,.78-.3,1.38,.55,1.97,1.02,4.96,4.01,10.82,6.56,16.79,8.91,.35,.14,.78,.09,1.18,.12,2.6,1.92,5.19,3.85,7.39,6.18Z"/>
  <path class="cls-2" d="M249.88,127.5c-4.78-5.21-12.11-6.2-17.92-9.69-4.39-2.64-7.75-6-9.25-10.73-.21-.66-.85-2.25,.99-1.61,8.44,2.92,17.34,5.07,23.75,11.57,3.44,3.48,4.29,6.94,2.43,10.46Z"/>
  <path class="cls-7" d="M223.88,158.1c.1,.02,.2,.04,.29,.05,2.04,.21,5.29-.39,5.78,1,.59,1.66-2.11,3.22-3.63,4.59-1.69,1.54-3.67,2.82-5.52,4.21-.79,.4-1.58,.8-2.37,1.2-1.18,.43-2.37,.86-3.55,1.29-4.48,1.16-8.97,1.56-13.44-.03-1.19-.42-2.43-.81-3.62-2.03,8.38-4.38,15.85-10.18,26.06-10.29Z"/>
  <path class="cls-7" d="M186.99,112.37c-.47-.67-.93-1.34-1.4-2.01-1.66-3.22-3.33-6.43-4.99-9.65-.11-.29-.21-.58-.32-.87-.25-.76-.49-1.53-.74-2.29-.79-4.11-2.8-7.96-3.02-12.19,.22,0,.43,0,.65,0,0,0,.17,.17,.17,.17l.23-.06c.37,.12,.76,.38,1.11,.34,5.09-.61,6.53,2.12,7.58,6.17,1.4,5.42,3.12,10.86,7.2,15.27,.42,.45-.49,7.39-1.02,7.77-1.4,1.03-2.31-.36-3.44-.69l-2.02-1.96Z"/>
  <path class="cls-6" d="M208.45,125.89c5.7,5.41,7.49,11.25,6.47,17.82-.61,3.92-1.43,7.83-2.45,11.68-.47,1.76-.75,4.37-3.4,4.29-2.91-.09-2.41-2.69-2.64-4.54-.55-4.43,.38-8.96-.29-13.28-.84-5.49,1.69-10.19,2.32-15.96Z"/>
  <path class="cls-2" d="M253.38,137.59c.95,4.3,1.03,8.44-2.75,11.78-.55,.49-1.15,1.29-1.97,1.03-.87-.27-.64-1.25-.73-1.94-.72-5.12-3.53-9.42-6.23-13.76-1.26-2.87-3.32-5.48-3.4-8.74-.08-3.15,.4-3.33,3.45-2.18,6.77,2.57,9.56,7.91,11.64,13.81Z"/>
  <path class="cls-7" d="M179.32,161.11c-9.78,8.7-26.28,11.78-32.87,6.16,10.25-5.23,20.2-11.58,32.87-6.16Z"/>
  <path class="cls-7" d="M150.78,178.14c-11.98,2.56-23.25,1.39-33.35-5.56-.88-.61-3-1.39-1.77-2.7,.95-1.01,2.9-2.13,4.62-.25,.69,.75,1.76,1.18,2.87,1.34,1.33,.65,2.76,.69,4.21,.52,.81,.2,1.6,.16,2.39-.1,2.83,.06,5.49-.75,8.18-1.42,.97-.24,1.88-.56,2.73,.34,2.78,2.96,6.1,5.28,9.86,7.08,.18,.09,.18,.49,.27,.75Z"/>
  <path class="cls-7" d="M123.43,169.85c-.67-.39-1.37-.76-2.02-1.18-.65-.42-1.07-1-.17-1.52,7.07-4.06,13.85-8.87,22.92-8.1,.35,.09,.7,.17,1.05,.26,.21,.02,.41,.05,.62,.07,2.33,.7,4.79,1.11,7.11,2.63-5.63,3.91-11.94,5.7-18.37,7.25-.21,.09-.42,.19-.63,.28-.79,.08-1.58,.15-2.37,.23-.24-.28-.44-.27-.59,.08-.61,.17-1.22,.34-1.82,.51-1,.01-2,.03-2.99,.04-.91-.18-1.82-.37-2.73-.55Z"/>
  <path class="cls-2" d="M256.09,129.73c-.69,1.29-1.37,2.59-2.28,4.3-1.54-2.81-3.19-4.79-1.57-7.93,1.35-2.61-.2-5.43-1.89-7.8-2.18-3.05-5.05-5.49-8.47-7.29-1.48-.78-2.22-1.61-2.11-3.25,.12-1.75-.19-3.49-.68-5.21-.16-.56-.57-1.38,.24-1.71,.41-.17,1.13,.16,1.64,.39,8.32,3.93,13.68,9.97,15.41,18.59,.32,2.58,.51,5.16,.1,7.76-.05,.37-.1,.74-.15,1.11-.08,.34-.16,.69-.24,1.03Z"/>
  <path class="cls-7" d="M194.5,159.11c3.91,.16,7.76,.52,11.46,2.83-4.99,3.53-10.23,6.06-16.31,6.99-.89-.18-1.75-.03-2.6,.24-1.23,0-2.45,0-3.68,0-.86-.08-1.73-.17-2.59-.25-2.2-.51-4.5-.67-6.75-1.7,4.12-4.64,10.07-5.87,15.71-7.63,.64-.1,1.28-.2,1.93-.3,.75-.05,1.5-.11,2.24-.16l.59-.03Z"/>
  <path class="cls-7" d="M175.33,177.58c-6.8,2.58-13.6,1.38-20.4,.04-4.5-1.61-8.6-3.8-11.94-7.08-.48-.47-1.66-.91-.93-1.7,.59-.64,1.73-1.13,2.69-.49,6.6,4.42,13.63,3.73,20.8,1.61,.58-.17,1.37-.34,1.69,.12,2.15,3.02,5.73,4.69,8.09,7.5Z"/>
  <path class="cls-2" d="M259.18,129.84c3.25,7.92,2.02,15.63-1.22,23.26-2,3.18-4.6,5.77-8.27,7.33-.72,.31-1.52,.79-2.22,.31-.7-.48-.05-1.18,.1-1.78,.12-.44,.25-.9,.25-1.35-.03-2.98,.91-5.23,3.72-7.26,4.27-3.09,4.82-7.61,3.38-12.33-.81-1.85,.01-3.36,1.08-4.88,.7-.99,1.27-2.09,1.33-3.33,.25-.37,.51-.73,.76-1.1l1.07,1.13Z"/>
  <path class="cls-4" d="M173.07,82.04c-.55-3.08,2.04-4.29,4.1-5.74,1-.7,2.23-1.11,3.36-1.66,.27,.25,.54,.5,.8,.75-1.55,.98-3.29,1.74-4.42,3.22-1.03,1.35-.77,2.59,.78,3.2,1.84,.73,3.83,1.34,6.69,.19-1.96-.31-3.2-.41-4.37-.72-.81-.21-1.97-.14-2.25-1.1-.32-1.12,.85-1.59,1.55-2.16,.74-.59,1.62-1.12,2.54-1.42,3.37-1.1,6.57-2.65,10.11-3.32,.68-.13,1.49-.1,1.21-1.1,.06-.38,.12-.77,.18-1.15,.79-.25,1.58-.49,2.37-.74,2.55-.8,2.25,1.58,2.68,2.46,1.57,3.18,1.21,3.53-2.64,4.01-1.97,.24-3.95,.45-5.9,.78-2.88,.5-3.32,1.6-1.57,3.7,.18,.22,.35,.45,.57,.64,1.95,1.63,1.08,2.42-.99,2.86-.6,.05-1.21,.09-1.81,.14-4.58,0-9.13-.07-12.99-2.85Z"/>
  <path class="cls-7" d="M214.98,82.62c.01-.18,.03-.37,.04-.55q.26-6.74,7.43-7.06c.81-.04,1.28,.04,1.49,.89,1.31,5.21,.66,10.25-1.33,15.2-.21,.53-.44,.93-1.26,.85-3.92-.36-6.73-3.23-6.59-6.85,.03-.83,.12-1.66,.19-2.48,0,0,.02,0,.03,0Z"/>
  <path class="cls-7" d="M202.32,177.43c-.41-.14-.82-.28-1.23-.43-2.65-1.31-5.04-2.95-6.96-5.09-.51-.57-1.87-1.12-1.16-1.9,.71-.78,2.08-1.15,3.3-.62,.8,.35,1.5,.9,2.28,1.31,3.88,2.04,8.07,2.48,12.42,1.99,1.17-.13,2.36-.53,3.36,.44,1.68,2.29,4.53,3.05,7.29,4.46-6.74,2.3-13.03,1.59-19.3-.16Z"/>
  <path class="cls-6" d="M223.93,93.09c.64-2.31,1.28-4.61,1.93-6.94,7.54,4.44,12.33,12.56,12.02,22.55-2.34-.62-4.48-.95-3.82-4.23,.4-1.97-.42-4.2-2.85-5.27-1.72-2.76-4.43-4.52-7.29-6.11Z"/>
  <path class="cls-13" d="M220.27,118.71c4.9,10.11,5.07,20.39,1.27,30.8-.4,1.11-.86,2.26-1.92,3.06-.58-.25-.98-.65-1.15-1.24,2.65-3.01,3.13-6.7,3.68-10.33,1.16-7.67-.25-15.06-3.16-22.26,.43-.01,.85-.02,1.28-.04Z"/>
  <path class="cls-6" d="M202.45,92.83c2.91,2.71,6.01,5.1,9.43,7.12,1.45,.86,.93,2.07,.83,3.23-.1,1.17-.2,2.34-.37,4.39-3.89-5.19-9.11-8.61-9.89-14.74Z"/>
  <path class="cls-7" d="M147.5,157.36c4.58-1.63,9.16-1.76,13.75-.01,.38,.47,1.63,.7,.26,1.55-3.6,2.24-10.73,1.91-14.18-.79-.1-.08,.11-.48,.17-.74Z"/>
  <path class="cls-6" d="M216.52,111.96c-2.91-2.59-3.58-5.83-2.03-9.27,.16-.35,.27-.65,.74-.71,1.93-.27,4.55,2.51,4.05,4.28-.58,2.04-1.37,3.98-2.76,5.7Z"/>
  <path class="cls-7" d="M173.16,157.47c5.59-1.51,10.45-1.58,15.43,.53-5.3,3.98-10.01,1.33-15.43-.53Z"/>
  <path class="cls-6" d="M220.95,107.16c.7,2.32,1.52,3.93,2.67,5.41,.51,.66,1.71,1.39,.39,2.26-1.51,.99-3.27,1.53-4.99,.63-1.05-.55-1.65-1.57-.97-2.82,.89-1.62,1.73-3.26,2.9-5.48Z"/>
  <path class="cls-2" d="M240.43,134.93c.17,.43,.31,.87,.52,1.28q2.28,4.57-2.2,8.47c-.83-3.55-.77-6.75,.72-9.9,.32,.05,.64,.1,.96,.15Z"/>
  <path class="cls-6" d="M215.57,150.37c1.75,1.54,2.48,3.43,3.28,5.26,.28,.63,.35,1.42-.59,1.54-1.55,.21-2.99,1.45-4.55,.84-.91-.35-.06-1.36,.17-1.96,.68-1.8,.53-3.81,1.69-5.69Z"/>
  <path class="cls-6" d="M204.93,134.28c-1.12-4.25-.41-8.38-.56-12.81,3.6,2.56,3.63,4.5,.56,12.81Z"/>
  <path class="cls-6" d="M199.91,158.05c-1.64-.17-2.83-.18-3.97-.43-1-.22-2.72,.94-2.9-.79-.18-1.82,1.16-3.25,2.58-4.42,.43-.36,.86,.16,1.12,.57,.98,1.57,1.96,3.13,3.17,5.07Z"/>
  <path class="cls-2" d="M231.69,120c4.19,.36,5.86,1.91,5.27,4.69-.28,1.34-.73,1.3-1.67,.53-1.74-1.43-2.34-3.53-3.6-5.22Z"/>
  <path class="cls-13" d="M223.93,93.09c2.86,1.6,5.57,3.35,7.29,6.11-.3,.3-.6,.59-.9,.89-2.2-2.33-4.79-4.26-7.39-6.18,.33-.27,.67-.54,1-.82Z"/>
  <path class="cls-13" d="M256.48,127.59c.41-2.59,.21-5.17-.1-7.76,1.45,2.57,1.9,5.15,.1,7.76Z"/>
  <path class="cls-4" d="M215.13,65.76c1.09-.17,2.19-.34,3.28-.51,.02,.2,.04,.4,.06,.61-1.03,.96-2.36,.5-3.56,.65l-.16-.21c.13-.18,.26-.36,.39-.54Z"/>
  <path class="cls-4" d="M212.52,66.57c-.34,.67,1.6,1.99-.7,2.1-.34-.87-1.69-2.02,.7-2.1Z"/>
  <path class="cls-13" d="M126.16,170.39c1-.01,2-.03,2.99-.04,.2,.35,.4,.7,.59,1.05-.79,.25-1.58,.29-2.39,.1-.4-.37-.8-.73-1.2-1.1Z"/>
  <path class="cls-13" d="M186.06,84.89c.6-.05,1.21-.09,1.81-.14,.02,.35,.03,.71,.05,1.06-.57,.12-1.14,.24-1.7,.37-.05-.43-.1-.86-.15-1.29Z"/>
  <path class="cls-13" d="M258.1,128.72c-.25,.37-.51,.73-.76,1.1-.42-.03-.83-.06-1.25-.08,.08-.34,.16-.69,.24-1.03,.59,0,1.18,.01,1.76,.02Z"/>
  <path class="cls-14" d="M214.75,67.67c-.76-.05-1.04-.49-1.07-1.13,.35-.08,.7-.16,1.05-.23,0,0,.16,.2,.16,.2-.05,.39-.1,.77-.15,1.16Z"/>
  <path class="cls-13" d="M180.78,168.93c.86,.08,1.72,.16,2.59,.25-.88,.04-1.78,.29-2.59-.25Z"/>
  <path class="cls-13" d="M187.05,169.18c.85-.27,1.7-.42,2.6-.24-.82,.53-1.72,.28-2.6,.24Z"/>
  <path class="cls-14" d="M191.67,159.31c-.64,.1-1.28,.2-1.93,.3,.57-.49,1.25-.38,1.93-.3Z"/>
  <path class="cls-13" d="M190.33,85.41c-.18,.03-.36,.07-.54,.1,.11-.16,.23-.32,.34-.49,0,0-.05,0-.05,0,.09,.13,.17,.26,.24,.39Z"/>
  <path class="cls-13" d="M177.58,85.47l-.23,.06s-.17-.17-.17-.17c.15,0,.28,.03,.41,.1Z"/>
  <path class="cls-3" d="M190.09,85.02s.05,0,.05,0c0,0-.05,0-.05,0Z"/>
  <path class="cls-14" d="M194.5,159.11l-.59,.03c.18-.27,.37-.3,.59-.03Z"/>
  <path class="cls-9" d="M130.98,169.84c.14-.35,.34-.36,.59-.08-.2,.03-.39,.05-.59,.08Z"/>
  <path class="cls-13" d="M191.7,83.89c.39,.38,.17,.64-.21,.86,.07-.29,.14-.57,.21-.86Z"/>
  <path class="cls-13" d="M145.82,159.37c-.21-.02-.41-.05-.62-.07,.21,.02,.41,.05,.62,.07Z"/>
  <path class="cls-14" d="M228.67,72.6c.13-.17,.29-.2,.48-.08,0,0-.23,.09-.23,.09h-.25Z"/>
  <path class="cls-13" d="M181.28,170.15c-.31-.07-.63-.14-.94-.21,.31,.07,.63,.14,.94,.21Z"/>
  <path class="cls-9" d="M133.94,169.53c.21-.09,.42-.19,.63-.28-.21,.09-.42,.19-.63,.28Z"/>
  <path class="cls-12" d="M236.76,62.64c1.29-1.98,3.7-1.63,5.6-2.1,12-2.96,24.05-5.72,36.07-8.58,14.71-3.5,29.4-7.06,44.11-10.54,2.57-.61,5.1-2.12,7.88-.63-7.77,1.18-15.24,3.48-22.84,5.27-23.12,5.47-46.21,11.05-69.31,16.6-.22,.04-.43,.09-.65,.13-.29-.05-.59-.1-.88-.15Z"/>
  <path class="cls-12" d="M333.01,39.85c.06-1.16,1.16-1.19,1.94-1.38,7.38-1.81,14.77-3.59,22.2-5.25,.55-.12,1.97-1.39,2.21,.5-8.78,2.05-17.56,4.09-26.34,6.14Z"/>
  <path class="cls-12" d="M214.75,67.67c.05-.39,.1-.77,.15-1.16,1.2-.15,2.53,.31,3.56-.65,3.34-.25,6.38-2.17,9.88-1.55-4.28,1.99-9,2.46-13.59,3.36Z"/>
  <path class="cls-12" d="M229.09,64.34c2-1.89,4.52-1.93,7.11-1.7-2.15,1.38-4.67,1.39-7.11,1.7Z"/>
  <path class="cls-8" d="M237.64,62.79c.22-.04,.43-.09,.65-.13-.15,.3-.36,.36-.65,.13Z"/>
  <path class="cls-7" d="M99.56,160.86c-6.54,3.15-12.45,7.35-19.99,8.42-6.3,.89-11.79-.61-17.48-3.68,11.88-7.31,24.22-8.83,37.47-4.73Z"/>
  <path class="cls-7" d="M112.29,159.04c.42-.02,.84-.05,1.26-.07,2.04,.91,4.13,.49,6.22,.18,.53,.05,1.06,.1,1.59,.15,.03,1.09-.16,2.24,.16,3.25,.47,1.5-.19,1.89-1.53,1.7-3.01-.44-3.85,.89-3.41,3.38-8.28,3.6-16.49,4.57-25.29-.76,6.87-3.21,12.94-6.81,20.29-7.69,.24-.05,.47-.09,.71-.14Z"/>
  <path class="cls-7" d="M65.64,169.2c6.5,2.25,13.03,2.3,19.6,.3,.67-.2,1.35-.5,1.84,.25,2.27,3.52,5.81,5.71,9.69,7.61-8.55,5.95-24,1.99-31.44-7.87,.11-.1,.21-.2,.31-.3Z"/>
  <path class="cls-7" d="M121.29,176.96c-1.93,1.41-3.89,1.98-5.8,2.08-9.61,.53-18.35-1.51-25.4-8.02-.35-.32-.68-.68-.97-1.05-.39-.49-1.09-.99-.35-1.65,.53-.47,1.14-.59,1.87-.13,6.64,4.22,13.78,4.93,21.36,2.61,.74-.23,1.36,.05,1.85,.59,2.02,2.2,4.57,3.81,7.44,5.56Z"/>
  <path class="cls-7" d="M116.58,167.62c-.44-2.49,.4-3.81,3.41-3.38,1.34,.19,2-.2,1.53-1.7-.32-1.01-.12-2.16-.16-3.25,2.28-.06,5.1,.42,5.76,2.05,.53,1.31-2.55,2.04-4.05,2.97-2.04,1.28-4,2.75-6.48,3.31Z"/>
  <path class="cls-7" d="M107.77,157.85c-4.29,3.23-8.18,1.5-12.35-.12,4.11-1.67,8.43-1.61,12.35,.12Z"/>
  <path class="cls-7" d="M135.49,158.34c-3.69,2.24-7.31,2.77-10.78-.26,2.85-1.74,7.9-1.65,10.78,.26Z"/>
  <path class="cls-7" d="M67.92,157.52c3.72-.68,6.87-.93,10.02-.02-3.21,.73-6.38,2.85-10.02,.02Z"/>
  <path class="cls-7" d="M119.77,159.14c-2.09,.31-4.17,.74-6.22-.18,2.08-.16,4.16-.43,6.22,.18Z"/>
  <path class="cls-11" d="M126.16,170.39c.4,.37,.8,.73,1.2,1.1-1.45,.17-2.87,.12-4.21-.52,.09-.37,.18-.75,.27-1.12,.91,.18,1.82,.36,2.73,.55Z"/>
  <path class="cls-10" d="M112.29,159.04c-.24,.05-.47,.09-.71,.14,.24-.05,.47-.09,.71-.14Z"/>
  <path class="cls-5" d="M65.33,169.5c-.19-.19-.41-.39-.05-.6,.04-.02,.23,.19,.36,.3-.1,.1-.2,.2-.31,.3Z"/>
  <path class="cls-1" d="M223.32,169.75c-1.1-.85-.4-1.35,.39-1.89,7.03-4.84,11.97-11.08,14.92-18.74,.79-2.06,2.04-4,3.77-5.6,1.13-1.05,2.07-1.14,2.57,.45,2.29,7.33,3.24,14.5-3.16,20.7-5.36,4.19-11.16,7.03-18.48,5.08Z"/>
  <path class="cls-1" d="M220.86,169.87c.37,.44,.86,.64,1.45,.66,5.53,2.91,15.51,.4,20.32-5.1,2.12-1.38,3.9-3.11,6.86-3.27,2.12-.12,3.75-1.89,6.13-3.31-.88,4.34-2.88,7.49-6.04,9.92-8.08,6.23-17.24,8.99-27.76,6.93-.29-.06-.58-.14-.86-.24-2.02-.77-4.7-1.38-5.11-3.35-.26-1.23,2.85-1.05,4-2.24,.34,0,.67,0,1.01-.01Z"/>
  <path class="cls-14" d="M242.63,165.43c-4.8,5.5-14.79,8-20.32,5.1,.33-.26,.67-.52,1-.78,7.33,1.94,13.12-.89,18.48-5.08,.28,.25,.56,.51,.84,.76Z"/>
  <path class="cls-1" d="M230.64,153.27c.4,0,.8-.04,1.19,.04,.93,.18,2.64-.67,2.59,.74-.04,1.32-.79,3.14-2.68,3.19-2.31,.07-4.64-.37-7.08-.6,.71-1.72,2.38-1.92,3.49-2.76,.38-.1,.77-.21,1.15-.31,.47,.07,.92,.07,1.26-.31h.08Z"/>
  <path class="cls-11" d="M220.86,169.87c-.34,0-.67,0-1.01,.01-.57-.08-1.14-.16-1.41-.73,.79-.4,1.58-.8,2.37-1.2,.02,.64,.03,1.28,.05,1.92Z"/>
  <path class="cls-11" d="M229.31,153.58c-.38,.1-.77,.21-1.15,.31-.02-.4-.04-.8-.06-1.2,.15-.1,.31-.15,.5-.14,.23-.12,.45-.25,.68-.37,.4,0,.8,0,1.2,0,.06,.37,.11,.73,.17,1.1,0,0-.08,0-.08,0-.48-.12-.92-.09-1.26,.31Z"/>
  <path class="cls-13" d="M231.09,61.99c.47-1.49,1.37-1.24,2.39-.5-.74,.41-1.52,.64-2.39,.5Z"/>
  <path class="cls-4" d="M181.33,75.4c-.27-.25-.54-.5-.8-.75,4.06-1.86,8.42-2.79,12.82-3.61-.06,.38-.12,.77-.18,1.15-1.03-.28-1.92,.13-2.86,.43-2.98,.95-5.98,1.85-8.97,2.78Z"/>
  <path class="cls-11" d="M261.41,133.53c.03,.07,.06,.13,.08,.2-.11,.02-.21,.04-.32,.06,.01-.07,0-.16,.05-.22,.03-.04,.12-.03,.18-.05Z"/>
  <path class="cls-14" d="M179.54,97.55c.25,.76,.49,1.53,.74,2.29-1.04-.54-.7-1.47-.74-2.29Z"/>
  <path class="cls-13" d="M229.27,152.18c-.23,.12-.45,.25-.68,.37,.16-.23,.29-.51,.68-.37Z"/>
  <path class="cls-12" d="M181.33,75.4c2.99-.92,5.99-1.82,8.97-2.78,.94-.3,1.83-.71,2.86-.43,.28,1.01-.53,.98-1.21,1.1-3.54,.66-6.74,2.21-10.11,3.32-.92,.3-1.8,.83-2.54,1.42-.71,.56-1.88,1.03-1.55,2.16,.28,.96,1.44,.89,2.25,1.1,1.18,.31,2.42,.41,4.37,.72-2.86,1.15-4.85,.54-6.69-.19-1.55-.61-1.81-1.85-.78-3.2,1.13-1.48,2.87-2.23,4.42-3.22Z"/>
  <path class="cls-1" d="M229.31,153.58c.33-.4,.77-.44,1.26-.31-.34,.38-.79,.38-1.26,.31Z"/>
</svg>