<?xml version="1.0" encoding="UTF-8"?>
<svg id="Layer_1" data-name="Layer 1" xmlns="http://www.w3.org/2000/svg" viewBox="0 0 414 200">
  <defs>
    <style>
      .cls-1 {
        fill: #f7b7d3;
      }

      .cls-2 {
        fill: #00b1e7;
      }

      .cls-3 {
        fill: #ece3cd;
      }

      .cls-4 {
        fill: #fff9b8;
      }

      .cls-5 {
        fill: #fff200;
      }

      .cls-6 {
        fill: #ecebeb;
      }

      .cls-7 {
        fill: #eceae0;
      }

      .cls-8 {
        fill: #fbb040;
      }

      .cls-9 {
        fill: #9ed2f1;
      }

      .cls-10 {
        fill: #403c37;
      }

      .cls-11 {
        fill: #46403b;
      }

      .cls-12 {
        fill: #635c51;
      }

      .cls-13 {
        fill: #484341;
      }

      .cls-14 {
        fill: #524a48;
      }
    </style>
  </defs>
  <path class="cls-10" d="M111,159.4c1.85-.47,3.69-.93,5.54-1.4,2.15-.02,4.29-.04,6.44-.06,.2,.02,.4,.04,.6,.06,.32,.06,.65,.13,.97,.19,.66,.17,1.32,.34,1.98,.51,.21,.07,.42,.15,.63,.22,.28,.09,.55,.18,.83,.27,.15,.08,.3,.17,.46,.25,.97,.61,1.94,1.22,2.91,1.82,.16,.15,.33,.29,.49,.44,.24,.14,.49,.29,.73,.43,.56-.14,1.12-.29,1.69-.43,.82-.45,1.64-.89,2.47-1.34,.31-.19,.62-.38,.93-.57,1.46-.54,2.92-1.08,4.38-1.62,3.05,.12,6.1,.24,9.15,.36,0,0,.01,0,.01,0,.69,.28,1.38,.56,2.07,.85,.45,.22,.9,.45,1.35,.67,.16,.09,.32,.18,.48,.28,.81,.02,1.61,.04,2.42,.06,.8,.36,1.6,.71,2.4,1.07-1.27,.09-2.54,.17-3.81,.26-.14-.04-.28-.03-.41,.03-6.77,1.39-12.47,5-18.87,7.59,2.5,1.94,4.74,2.71,7.85,2.83,5.47,.21,10.42-1.54,15.25-3.65,2.81-1.23,5.54-2.6,8.31-3.91-.04-.32-.08-.65-.12-.97-2.41-.71-4.82-1.42-7.23-2.13,.15-.49,.3-.98,.46-1.46,1.12-.51,2.25-1.02,3.37-1.53,.66,.19,1.32,.39,1.99,.58l-3.1,1.24c-.18,.19-.36,.38-.54,.57,.36,.06,.72,.12,1.08,.18,1.52,.62,3.04,1.25,4.56,1.87,.64,.26,1.4,.84,1.91,.69,2.15-.62,4.22-1.45,6.79-2.37-1.81-.87-3.14-1.51-4.48-2.15,.51-.2,1.02-.4,1.54-.6,2.1,.8,4.2,1.59,6.31,2.39,.48-.06,.96-.13,1.44-.19,.19-.03,.38-.06,.57-.09,.61-.39,1.22-.78,1.82-1.17,2.58-2.56,5.96-2.84,9.36-2.53,2.28,.21,4.81,.54,6.7,1.62,4.11,2.37,7.59,2.1,10.98-.95,.18-.11,.36-.21,.55-.32,.22-.1,.43-.2,.65-.3,.27,.33,.53,.67,.8,1-.83,.48-1.66,.96-2.48,1.43,3.01,1.1,5.73,2.1,8.46,3.07,.36,.13,.83,.23,1.17,.11,2.06-.71,4.09-1.49,6.78-2.48-2.16-.96-3.72-1.64-5.28-2.33,.3-.3,.61-.6,.91-.91,.37,.14,.74,.29,1.12,.43,.31,.11,.62,.22,.93,.33,1.24,.61,2.48,1.21,3.98,1.95,.42-3.61,1.11-7.01,3.84-9.64,.11-.61,.22-1.22,.34-1.83-.45-1.45-.91-2.89-1.36-4.34-.12-.21-.25-.42-.37-.62-.07-.36-.14-.73-.21-1.09-.26-.69-.53-1.38-.79-2.08-.18-.48-.37-.97-.56-1.45,.01-.1-.01-.18-.07-.26-.31-.91-.63-1.82-.94-2.74-.14-.33-.28-.66-.43-.99-.16-.48-.32-.96-.48-1.43,0-.12-.04-.22-.13-.3-.29-.78-.57-1.56-.86-2.34-.14-.45-.28-.9-.41-1.36-.14-.1-.18-.22-.11-.37-.25-.78-.5-1.55-.75-2.33l-.58-1.86-.54-2.23c-.06-.35-.12-.69-.18-1.04-.08-.27-.16-.53-.24-.8,0,0-.03-.12-.03-.12,0-.87,0-1.73,0-2.75,.36,.29,.59,.46,.81,.64,.03,.14,.07,.29,.1,.43,.09,.58,.17,1.17,.26,1.75,.42,1.61,.84,3.23,1.27,4.84,.28,.81,.56,1.63,.84,2.44,.02,.16,.04,.32,.06,.48,0,.11,.02,.22,.07,.33,.49,1.46,.98,2.92,1.47,4.38,.14,.24,.28,.48,.41,.71,1.14,3.19,2.1,6.44,3.46,9.55,2.08,4.77,4.39,9.45,6.71,14.13,.52,1.05,1.52,1.89,2.93,.97,1.25-.82,1.59-1.65,.84-3.21-1.38-2.93-2.46-6.02-3.29-9.12-1.91-7.1-2.11-14.45-4.41-21.6-2.14-6.65-7.88-10.03-11.5-15.21-.19,.08-.38,.16-.57,.24,.31,2.5,.62,5.01,.92,7.51-.48-.46-.95-.91-1.43-1.37-.13-.84-.26-1.68-.38-2.53-.06-.47-.11-.95-.17-1.42-.1-.8-.2-1.61-.3-2.41-.21-1.5-.42-3.01-.63-4.51-.17-.66-.33-1.32-.5-1.98-.14-1.47-.29-2.95-.43-4.42,.12-.72,.24-1.45,.36-2.17-.03-.61-.05-1.22-.08-1.83-.57-.58-1.14-1.17-1.71-1.75-.2-.15-.39-.3-.59-.45-.45-.2-.9-.41-1.35-.61-.46-.12-.92-.24-1.38-.35-.26-.47-.52-.93-.78-1.4,.71-.07,1.98,.91,1.81-.83,.61,.29,1.36,.46,1.8,.9,1.36,1.37,2.49,2.95,3.92,4.24,4.02,3.64,8.14,7.19,12.25,10.76,.42,.36,.98,.58,1.71,1,.35-4.44-.37-8.38-2.65-11.81-2.06-3.1-4.68-5.88-7.14-8.74-.92-1.07-1.88-2.42-3.14-2.86-2.26-.79-4.75-1-7.37-1.49v4.37c-.29,0-.59,0-.88,0-.03-.27-.07-.55-.1-.82,0-.27-.02-.53-.03-.8-.09-1.9-1-2.99-3.11-3.47-1.47-.34-2.78-1.3-4.16-1.98,.04-.41,.09-.83,.13-1.24,2.17,.88,4.33,1.75,6.5,2.63,.17,0,.34-.01,.52-.02-.07-.09-.14-.18-.21-.27-1.48-2.48-2.2-5.1-2.07-7.98,.11-2.43-2.77-4.11-5.25-3.25-.34,.15-.67,.3-1.01,.45-1.42,.75-2.85,1.51-4.3,2.28,.45,.73,.76,1.24,1.07,1.75-.45,.03-.89,.06-1.34,.09l-1.28-1.19c-.13,0-.27-.01-.4-.02-2.16,1.09-4.31,2.18-6.67,3.38,1.16,1.48,2.19,2.8,3.22,4.12,.61,.79,1.24,1.59-.52,1.78-.11-.16-.22-.32-.32-.48-.77-1.03-1.54-2.07-2.31-3.1-1.55-2.09-2.08-2.09-3.91,.02,1.08,.72,2.16,1.45,3.24,2.17l.52,.53c.1,.58,.19,1.16,.29,1.74-.96,.47-1.91,.94-2.87,1.41-.29,.29-.59,.57-.88,.86,0,0-.14,.12-.14,.12,0,0-.19-.01-.19-.01-.21,.12-.42,.24-.63,.36-.48,.17-.97,.33-1.45,.5-.17-.01-.31,.04-.43,.16-.57,.13-1.15,.25-1.72,.38-.42,.13-.84,.26-1.25,.38-3.03,.35-6.15,1.26-8.7-1.27-.12-.19-.25-.39-.37-.58,0,0-.11-.07-.11-.07,0,0,.06-.11,.06-.11-.04-.73-.08-1.47-.12-2.2,.04-.26,.09-.51,.13-.77,.47,1.05,.95,2.1,1.42,3.15,4.02,1.65,7.84,1.08,11.52-.92,.16-.07,.33-.14,.49-.21,1.28-.65,2.57-1.29,4.21-2.12-1.66-1.09-2.92-1.92-4.18-2.75-.03-.14-.11-.24-.24-.3-.03-.31-.06-.63-.09-.94,.09-.18,.18-.37,.27-.55,.63-.44,1.21-.98,1.9-1.31,4.99-2.38,10.03-4.68,14.99-7.11,1.15-.56,2.07-1.55,3.1-2.33,.43,.13,.92,.18,1.28,.4,3.14,1.91,6.25,3.85,9.38,5.79,.29,.05,.58,.1,.87,.16,1.37,.15,2.74,.29,4.11,.44,.18-.24,.36-.49,.54-.73-1.99-2.49-4-4.98-5.98-7.47-2-2.5-4.25-4.87-5.89-7.57-1.43-2.36-.46-4.02,2.11-5.36,1.64-.86,3.19-1.89,5.14-3.06-.7-.46-1.03-.67-1.35-.89-5.98-4-13.19-.79-14.74,6.56-.06,.04-.16,.09-.16,.12,.02,.11,.08,.21,.12,.32,.53,2.4,1.07,4.79,1.6,7.19-.48,.08-.96,.17-1.44,.25-.05-.25-.1-.5-.15-.75-.32-.2-.63-.54-.97-.58-.51-.06-1.05,.1-1.58,.16,.24-.43,.48-.86,.73-1.29,.26-.63,.51-1.27,.77-1.9-.22-.27-.44-.54-.65-.81l-.05-2.25c.48-1.32,.96-2.65,1.44-3.97,.15-.33,.31-.67,.46-1,.31-.32,.62-.64,.93-.95,1.72-2.15,3.79-3.79,6.83-3.92,1.08,.02,2.16,.04,3.24,.06,.35,.07,.7,.14,1.05,.21,.38,.15,.76,.3,1.14,.45,.59,.3,1.18,.59,1.77,.89,.22,.16,.45,.31,.67,.47,.19,0,.3,.08,.33,.25,.13,.1,.25,.19,.38,.29,0,0,.06,.06,.06,.06,.52,.48,1.03,.96,1.55,1.44-1.17,.99-2.33,1.99-3.5,2.98h.02c-1.72,.81-3.44,1.63-5.17,2.45,.27,.24,.55,.49,.82,.73,0,.27-.01,.55-.02,.82-.1,.39-.42,.95-.26,1.15,1.36,1.64,2.81,3.21,4.25,4.82,4.93-2.69,9.57-5.22,14.22-7.76,.24-.16,.47-.32,.71-.48l2.22-.27c-.06,.12-.12,.23-.19,.35-.2,.12-.4,.25-.59,.37-.03,.14-.12,.2-.27,.16-.23,.14-.46,.27-.69,.41,0,0,0,0,0,0-.17,.12-.34,.23-.52,.35-.27,.14-.56,.26-.8,.43-1.37,.98-3.53,1.78-3.88,3.03-.37,1.29,.91,3.06,1.67,4.53,.3,.58,1.1,1.17,1.76,1.3,3.93,.72,7.87,1.41,11.84,1.88,1.27,.15,2.63-.44,3.96-.64,1.49-.23,2.99-.41,4.49-.61,.59-.1,1.18-.2,1.77-.3,1.61-.04,3.21-.08,4.82-.13,.98,.42,1.96,.84,2.93,1.27-3.61,.1-7.23,.19-10.84,.29-.25,.1-.51,.19-.76,.29-.77,.18-1.53,.37-2.64,.63,2.18,1.15,4.14,1.82,5.59,3.03,2.3,1.93,4.71,2.02,7.57,1.67,4.85-.59,9.67-.14,13.14,3.52,1.62,1.7,3.12,2.01,5.35,1.39-1.04-2.98-3.43-4.86-5.82-6.74-.08-.14-.2-.23-.36-.28-.38-.25-.75-.5-1.13-.75,.18-.35,.36-.69,.55-1.04,.65,.01,1.3,.02,1.95,.03l.8,1.29c1.5,1.67,3.34,3.16,4.39,5.04,1.17,2.09,2.5,3.11,5,2.67,.31-.05,.64,.01,.96,.04,6.92,.49,11.86,3.78,13.1,9.09,.46,1.97,1.4,2.84,3.46,2.97,.32-.74,.62-1.43,.91-2.12,.3,.46,.6,.93,.9,1.39-.4,1.24-.05,2.07,.99,3.1,5.59,5.47,7.85,11.88,5.75,19.42-.32,1.16-.05,2.46-.05,3.7,.27,.02,.54,.04,.81,.06,1.97-2.24,2.59-4.99,3.15-7.77,.14-.94,.27-1.88,.41-2.82,0-1.42,0-2.85,0-4.27-.16-.8-.32-1.6-.48-2.41l-.21-1.29c.51,.42,1.03,.85,1.54,1.27,.04,.32,.07,.64,.11,.95,.03,.47,.07,.93,.1,1.4,.31,2.24,.62,4.48,.93,6.72,.22,.61,.45,1.21,.67,1.82,.19,.57,.37,1.14,.56,1.72-.41,.03-.82,.06-1.23,.09,0,0,0,0,0,0,0-.15-.06-.28-.17-.39-.18-.38-.35-.77-.5-1.1-1.37,2.62-2.77,5.2-4.05,7.83-.23,.48,.03,1.17,.08,1.77,.21,2.98,.88,6.01,.5,8.92-.28,2.16-1.5,4.52-3.08,6.12-1.49,1.51-1.57,2.67-.99,4.53,4-1.6,6.08-4.68,8.09-7.81,.42,.03,.84,.07,1.26,.1-.05,.13-.09,.27-.14,.4-.14,.23-.28,.45-.42,.68-.18,1.13-.35,2.26-.53,3.38l-1.06,.92c-.38-.06-.92-.29-1.13-.13-.88,.65-1.55,1.6-2.51,2.09-2.57,1.31-3.76,3.05-4.11,5.94-.6,4.99-3.02,9.05-9.04,10.06-.41,.07-.87,.6-1.04,1.02-.39,.98-.62,2.01-.92,3.02-.03,.21-.06,.41-.09,.62-.25-.28-.71-.54-.72-.83-.03-.8,.12-1.61,.2-2.42,.26-3.69,.52-7.38,.78-11.07-.27-.07-.54-.15-.81-.22-4.46,3.29-8.28,7.11-10.78,11.99-.28-.41-.56-.82-.84-1.23,.98-1.55,1.95-3.11,2.93-4.66-.28-.13-.57-.27-.85-.4-.34,.06-.67,.11-1.01,.17,0-.38,0-.75,0-1.13,.77-.52,2.14-.98,2.2-1.56,.67-6,4.01-10.48,8.66-14.37,.63-.53,.97-1.97,.68-2.74-1.39-3.79-1.51-7.66,.01-11.26,1.19-2.83,2.21-5.22-.52-7.62,.14-.29,.28-.59,.42-.88,.41,.29,.82,.59,1.45,1.05,.05-1.04-.15-2.01,.19-2.77,1.63-3.68-.08-6.26-2.95-8.54-.16,.03-.32,.06-.49,.09,0,1.02,.1,2.05-.03,3.05-.04,.32-.67,.57-1.03,.86-.2-2.04-.4-4.08-.61-6.28-1.04,.27-1.94,.66-2.86,.72-2.02,.12-2.58,1.11-2.85,2.87-.39,2.58-1.28,5.09-1.9,7.65-.51,2.08-1.17,4.15-1.35,6.26-.57,6.45-2.3,12.4-7.48,17.08-.63,.57-1.05,1.47-1.28,2.28-.63,2.23-1.1,4.51-1.64,6.76-.06,.2-.12,.4-.18,.6-.08,.25-.16,.5-.24,.76-.11,.27-.22,.55-.33,.82,0,0-.01,.05-.01,.05-.16-.77-.33-1.54-.49-2.31,.08-.15,.15-.3,.23-.45,.09-.44,.19-.88,.28-1.32,.33-2.83,.89-5.65,.94-8.48,.15-9.02-1.87-17.53-6.85-25.42-1.8-2.86-2.82-6.15-4.19-9.24l-1.91-.75c-.57-.61-1.14-1.21-1.71-1.82,.53-.1,1.06-.21,1.6-.31,.43-.12,1.25-.25,1.24-.35-.09-2.05,.37-4.42-.58-6.07-2.09-3.65-2.87-3.67-7.31-2.77-.15,.03-.32,.03-.47,.05-.35,.31-.7,.62-1.05,.93-.08,.45-.16,.91-.24,1.36-.91-.39-1.82-.78-2.73-1.17-.15,.04-.3,.08-.45,.12-.82,1.08-1.65,2.15-2.47,3.23-.19-.03-.38-.05-.57-.08,.16-.95,.31-1.9,.43-2.64-2.69-1.07-5.31-2.1-7.96-3.16,.97,2.87,1.91,5.67,2.86,8.47l.61,.53c.73-.66,1.43-1.35,2.2-1.96,.56-.45,1.21-.81,1.82-1.21,.08,.21,.16,.42,.23,.62-.9,1.01-1.79,2.02-2.69,3.03-.24,.17-.49,.34-.73,.5-.26,.3-.52,.6-.78,.91-.15,.08-.18,.18-.09,.32,.14,1.62,.28,3.24,.42,4.86,.05,.5,.1,1,.16,1.5,.09,.36,.17,.71,.26,1.07,.03,.12,.1,.22,.21,.3,.25,.36,.5,.71,.75,1.07-.25,.32-.5,.63-.76,.95-.33,.58-.66,1.16-.99,1.74-.03,.2-.06,.4-.09,.61-.01,.37-.03,.74-.04,1.12-.15,.38-.29,.76-.44,1.13-1.88,5.25,3.47,7.06,5.75,10.38,0-.97,0-1.94,0-2.91,.36,.13,.73,.25,1.09,.38,.12,1.41,.06,2.86,.41,4.21,.54,2.08,1.37,4.09,2.22,6.55,2.77-7.04,5.28-13.41,7.79-19.78,.04-.14,.08-.28,.11-.42,.12-1.5,.23-3,.35-4.5,.34,.14,.68,.29,1.02,.43,0,1.08,.02,2.16,.02,3.24,.03,.47,.06,.94,.09,1.41,1.83,7.76,3.96,15.47,5.4,23.29,1.29,6.98,.95,14.05-3.22,20.29-1.63,2.43-1.29,4.19,.51,6.39,2.89-2.19,4.34-5.31,6.24-8.1,.27,.27,.54,.54,.81,.81-.49,.85-.98,1.69-1.47,2.54-.08,.07-.12,.15-.14,.25-.43,.64-.85,1.28-1.28,1.92-.15,.21-.3,.43-.45,.64,.26-.03,.51-.06,.77-.09,2.1,.12,4.2,.23,6.3,.35,.25,.41,.49,.83,.74,1.24,.39,.12,.78,.23,1.17,.35-.14,.46-.28,.93-.42,1.39-6.64,2.26-11.93,6.32-16.96,10.89,9.88,4.42,19.71,.14,23.4-12.09-1.55,.19-3.03,.38-4.51,.56,.49-.33,.96-.69,1.48-.97,.6-.32,1.26-.56,1.89-.83l.96-.13c.52,.83,1.03,1.65,1.55,2.48-.89,1.95-1.78,3.9-2.76,6.05,1.19,.3,2.16,.55,3.13,.79-.94,.23-1.89,.45-2.83,.68-2.64-.41-2.49,2.15-4.47,3.09,2.02,.76,3.47,1.3,4.91,1.84l-.05,1.09c-1.59-.46-3.17-.99-4.79-1.34-.84-.18-1.92-.31-2.63,.02-5.33,2.47-10.6,2.48-15.99,.14-.85-.37-2.09,.05-3.15,.11,3.11,4,7.16,5.42,11.6,6.14,0,.36,.01,.71,.02,1.07-.33-.02-.67-.05-1-.07-.27-.05-.54-.1-.81-.16-3.44-1.11-6.48,.84-9.73,1.12-2.61,.22-5.23,.33-7.85,.49-.47,0-.94-.02-1.41-.03-.67-.07-1.34-.15-2.01-.22-.85-.18-1.69-.36-2.54-.54-1.24-.39-2.49-.77-3.73-1.16-.2-.07-.39-.14-.59-.21-.4,0-.81,0-1.21,0-.19,.05-.38,.11-.56,.16-.18,.08-.37,.16-.55,.23-.14-.03-.27,0-.37,.1-.36,.09-.71,.18-1.07,.28-.18-.3-.35-.59-.53-.89h0c.18-.08,.36-.17,.55-.26,.3-.21,.59-.42,.92-.64-1.36-.99-2.69-1.82-3.86-2.82-1.06-.9-1.99-1.08-3.45-.7-5.02,1.33-10.08,1.37-14.59-1.41-2.17-1.34-3.58-.66-5.37,.59,3.15,3.24,6.85,5.26,11.31,6.12,4.78,.92,9.42-.01,14.07-.83-.49,.47-.98,.95-1.47,1.42-.2,.04-.41,.07-.61,.1-1.56,.24-3.13,.48-4.69,.73-3.25-.26-6.51-.51-9.76-.77-.17-.03-.33-.05-.5-.08-2.12,.2-4.23,.39-6.35,.58-.44,.09-.87,.18-1.31,.28-.37,.06-.73,.13-1.1,.19-.44,.09-.88,.18-1.33,.27-.39,.03-.78,.05-1.16,.08-2.02,.08-4.03,.15-6.05,.23-.35-.02-.7-.04-1.06-.07-1.39-.18-2.78-.36-4.17-.54-1.5-.35-3-.71-4.5-1.06-.16-.45-.32-.91-.48-1.36,7.85,2.38,15.68,2.59,23.43,.06-1.73-1.39-3.32-2.75-5.03-3.97-.59-.42-1.55-.78-2.23-.65-2.03,.4-3.97,1.27-6.01,1.56-4.65,.66-9.29,.95-13.44-1.89-.61-.41-1.6-.4-2.43-.44-.39-.02-.79,.3-1.19,.46,.18,.38,.26,.88,.56,1.12,1.1,.87,2.28,1.66,3.43,2.48,.54,.25,1.07,.5,1.61,.75h.18s.14,.1,.14,.1c-.33,.62-.66,1.25-.99,1.87-1.87,.45-3.73,.89-5.6,1.34-.21,.03-.41,.05-.62,.08-.52,.06-1.03,.12-1.55,.17-1.91-.03-3.82-.06-5.73-.09-.66-.08-1.31-.15-1.97-.23-.8-.18-1.6-.36-2.4-.54-.34-.07-.69-.14-1.03-.21-.11-.13-.24-.19-.42-.16-.89-.11-1.78-.23-2.67-.34-.42,.15-.83,.29-1.25,.44-.85,.17-1.7,.33-2.55,.5-2.25,.2-4.51,.44-6.77,.56-.42,.02-.87-.46-1.31-.72,3.41-.46,6.83-.91,10.83-1.45-2.32-1.53-4.08-2.48-5.55-3.73-1.42-1.2-2.67-1.41-4.52-.87-5.41,1.56-10.97,2.24-16-.87-2.34-1.44-4-1.14-6.09,.33,3.96,3.66,8.89,5.07,14.03,6.05,.17,.04,.34,.08,.5,.11,.51,.08,1.01,.16,1.52,.24,.82,.05,1.64,.1,2.46,.15h.87c-.44,.21-.9,.61-1.33,.58-2.62-.16-5.23-.41-7.85-.63-2.16,.22-4.32,.44-6.48,.66-2.04,.21-4.08,.42-6.11,.63-.82,0-1.64,0-2.46,.01-2.59-.25-5.18-.5-7.77-.75-2.8-1.28-5.21,.52-7.81,.85-.61,.16-1.22,.32-1.83,.48-.54,.05-1.07,.11-1.61,.16-.76,.13-1.52,.27-2.29,.4-.48,.05-.96,.1-1.44,.16-.15,0-.31,.02-.46,.03-1.45-.06-2.89-.12-4.34-.19-.76-.13-1.53-.27-2.29-.4-.38-.05-.75-.1-1.13-.15-.48-.15-.97-.3-1.45-.45-1.15-.41-2.3-.82-3.45-1.24,.01-.35,.03-.7,.04-1.05,.01-.09,0-.17-.05-.24,1.31,.53,2.62,1.05,3.94,1.58,.59,.13,1.17,.25,1.76,.38,2.62,.18,5.24,.36,7.86,.54,.65-.07,1.3-.13,1.95-.2,.48-.08,.96-.17,1.44-.25,.16-.04,.33-.08,.49-.12,1.52-.41,3.04-.83,4.59-1.25-2.68-1.91-5.04-3.65-7.49-5.28-.44-.29-1.32-.25-1.9-.08-3.59,1.07-7.21,1.23-10.9,.58-.16-.06-.31-.11-.47-.17-.51-.16-1.03-.33-1.54-.5-.03-.4-.05-.79-.08-1.19,2.45,.28,5,1.09,7.32,.71,3.99-.66,7.89-1.95,11.74-3.19,3.05-.98,5.98-2.28,8.97-3.43,.03-.3,.05-.6,.08-.9-2.12-.62-4.24-1.24-6.37-1.86-.33-.02-.65-.04-.98-.05-4.97,.62-9.95,1.24-14.92,1.85-.51,.14-1.02,.29-1.53,.43,0,0,.01,0,.01,0-.33,.27-.67,.54-1,.81-.8,.03-1.61,.06-2.41,.09,.77-.62,1.54-1.24,2.31-1.87,1.18-.3,2.35-.59,3.53-.89,.75-.16,1.49-.32,2.24-.49,.32-.1,.63-.19,.95-.29-.22-.2-.45-.39-.67-.59-.35-.12-.71-.24-1.06-.36-.61-.1-1.23-.19-1.84-.29-.35-.04-.71-.09-1.06-.13-.48-.28-.96-.57-1.51-.89,.64-.09,1.22-.16,1.8-.24,1.84,.41,3.68,.82,5.52,1.23,.33,.1,.65,.21,.98,.31,2.54,.96,4.73-.07,6.91-1.09,.31,.28,.6,.59,.95,.81,.22,.15,.54,.17,.81,.25,2.88,.85,5.77,1.69,8.65,2.54,.45,.13,.95,.45,1.34,.35,2.91-.71,5.79-1.51,9.01-2.36-2.67-1.79-5.38-2.88-8.27-2.74-3.58,.18-7.12,.91-10.68,1.41-.03-.36-.05-.72-.08-1.08Zm116.98-87.82c.53-.06,1.06-.11,1.59-.17,.43-.46,1.31-1.01,1.23-1.35-.99-3.95-2.13-7.88-3.33-12.16-1.82,1.07-2.92,1.84-4.13,2.41-1.61,.76-1.96,1.69-1.1,3.23,1.44,2.59,2.7,5.27,4.03,7.91,.07,.11,.17,.18,.31,.21,.46-.03,.93-.05,1.39-.08Zm15.68-4.92c-.26-.11-.51-.22-.77-.34-3.75-.44-7.5-.88-11.6-1.37,.5,2.25,.88,3.95,1.28,5.72,1.33-.23,2.34-.48,3.37-.58,4.34-.42,8.86-.91,12.47,1.85,2.29,1.75,3.92,.96,6.18-.03-3.26-2.79-7.12-3.98-10.93-5.25Zm-124.91,111.05c6.1,.99,12.17,1.04,18.55-.24-2-1.21-3.89-2-5.28-3.27-1.79-1.65-3.42-1.8-5.76-1.09-5.46,1.64-10.99,2.02-15.89-1.51-1.57-1.13-2.63-.86-3.96,.2,3.3,3.34,7.54,4.69,11.89,5.86,.15,.02,.3,.04,.46,.05Zm58.31,.61c.24-.03,.49-.07,.73-.1,2.56-.43,5.11-.86,7.95-1.33-1.9-1.49-3.44-2.71-4.99-3.93-.11-.13-.21-.25-.32-.38-1.3-.06-2.63-.31-3.9-.15-4.44,.57-8.91,.89-12.83-1.5-2.2-1.34-3.89-1.14-5.82,.2,.15,.25,.22,.48,.38,.62,.41,.35,.86,.67,1.3,1,5.14,3.76,11.11,5.22,17.49,5.58Zm64.95-85.8c-1.32-3.44-2.59-6.9-4.02-10.3-.26-.61-1.55-1.5-1.72-1.39-.8,.52-1.68,1.25-1.98,2.08-.53,1.48-.77,3.07-.92,4.63-.09,.94-.09,2.11,.42,2.84,3.28,4.68,4.98,9.69,4.6,15.35-.08,1.2,1.02,2.46,1.58,3.69,.28-.07,.57-.14,.85-.22,.32-.91,.63-1.82,.95-2.73,.06-.04,.17-.09,.16-.11-.02-.11-.08-.21-.12-.32,.23-1.84,.47-3.69,.7-5.53,.03-.19,.06-.38,.1-.57-.15-2.34-.3-4.69-.45-7.03l-.16-.39Zm-10.42-20.42l-.95,.25c-5.42,1.67-10.69,1.42-15.71-1.35-1.28,4.94,1.62,8.52,5.34,9.26,1.41,.28,2.82,.56,4.23,.84,1.29,0,2.58,0,3.87,0,7.16-1.16,13.77-3.57,19.93-7.62-1.79-.87-3.62-1.86-5.47-1.91-3.74-.09-7.5,.34-11.25,.55Zm18.11,62.84c.35-1.02,.77-1.92,.95-2.87,.33-1.67,1.06-3.5,.64-5.03-.65-2.34-1.94-4.59-3.29-6.69-5.45-8.45-13.92-14.29-21.22-21.14-1.2-1.12-2.57-2.08-3.86-3.12-.27,.11-.54,.22-.81,.33,.27,2.34,.21,4.77,.89,6.99,1.36,4.4,4.89,7.53,8.08,10.81,3.5,3.61,7.06,7.17,10.42,10.9,2.83,3.13,5.4,6.45,8.2,9.82Zm-1.27,21.13c.25,.01,.49,.03,.74,.04,.35-1.27,.48-2.64,1.08-3.8,3.72-7.22,7.3-14.53,11.45-21.54,2.14-3.61,3.64-6.92,1.81-10.94-.37-.82-.57-1.71-.8-2.58-.71-2.66-1.4-5.32-2.22-8.47-.55,1.16-.93,1.81-1.19,2.5-4.75,12.52-9.22,25.11-10.83,38.4-.26,2.11-.04,4.27-.04,6.4Zm48.92-69.32c-.23-4.22-2.96-7.21-7.59-8.3-6.79-1.59-13.57-.89-20.3,.44-1.9,.38-3.76,.95-6.06,1.54,3.09,2.89,5.94,5.13,9.93,5.33,7.93,.4,15.87,.67,24.02,1Zm-32.58-2.13c-.1,5.4,0,10.64,2.71,15.47,2.25,4.02,4.55,8.01,6.93,12.19,2.41-2.51,3.76-5.62,4.05-9.12,.46-5.61-2.65-10.25-4.88-15.11-.17-.37-.64-.72-1.06-.86-2.46-.86-4.95-1.65-7.74-2.56Zm.56,43.25c-.72,.98-1.18,1.48-1.49,2.04-3.58,6.62-7.22,13.21-10.63,19.9-1.08,2.11-1.68,4.47-2.19,6.78-.17,.76,.4,2.16,1.05,2.45,.62,.28,2.08-.24,2.67-.84,4.92-4.98,9.84-10,10.85-17.15,.6-4.23,.54-8.45-.26-13.19Zm8.35-51.6c-2.75-3.51-6.81-4.28-10.91-4.03-8.05,.5-15.35,3.29-22.33,7.4,3.52,2.74,7.5,3.54,11.59,2.55,7.18-1.74,14.25-3.87,21.65-5.92Zm-87.92,93.47c6.67,4.67,24.37,1.04,32.46-6.42-3.88-1.81-7.87-2.54-12.13-1.79-4.92,.87-9.37,2.78-13.66,5.13-2.05,1.12-4.26,1.98-6.66,3.08Zm80.74-9.11c-4.79-1.41-9.33-1.41-13.55,.28-5.4,2.16-10.56,4.85-15.82,7.33-.6,.28-1.16,.62-2.05,1.09,3.58,2.24,7.12,2.67,10.89,2.24,8.35-.97,14.38-5.74,20.53-10.93Zm42.71-50.66c1.95-5.89,.73-11.1-2.8-15.91-3.39-4.63-8.26-6.3-14.14-6.11,.86,4.88,4.27,9.3,16.94,22.03Zm-96.22,58.47c6.76,4.77,18.63,2.63,29.35-5.12-2.83-2.37-6.21-2.62-9.69-2.43-7.38,.4-13.28,4.19-19.66,7.55Zm61.88-51.71l.96,.32c.55-.28,1.15-.52,1.65-.87,.84-.58,1.69-1.17,2.43-1.86,7.54-7.1,8.36-15.92,7.23-25.19-.16-1.32-3.27-2.07-3.89-.91-1.52,2.82-2.66,5.83-3.91,8.77-.1,.24,.05,.59,.13,.88,1.46,5.58-.03,10.51-3.52,15.12-.74,.98-.74,2.47-1.07,3.72Zm26.55-12.18c-2.3,10.27,3.26,18.56,7,27.47,1.24-1.43,2.42-2.88,2.88-4.5,2.2-7.7-2.35-18.29-9.88-22.97Zm-157.75,59.52c-4.98-1.46-9.49-1.49-13.89-.52-3.82,.84-7.51,2.23-11.22,3.46-2.58,.86-5.1,1.86-7.65,2.79-.02,.32-.03,.63-.05,.95,2.22,.67,4.4,1.63,6.68,1.93,4.32,.58,8.45-.66,12.39-2.15,4.61-1.74,9.35-3.3,13.73-6.46Zm159.19-39.78c-6.49,8.62-2.86,17.91-4.06,26.85,3.79-.57,5.92-2.34,7.07-5.12,3.13-7.57,.9-14.5-3.01-21.72Zm-139.66,44.37c4.81,5.21,20.29,2.41,30.38-4.84-2.95-1.94-8.82-2.93-13.15-1.62-4.97,1.51-9.77,3.51-14.64,5.32-.87,.32-1.7,.74-2.6,1.14Zm76.68-43.16c-.22,.09-.44,.18-.67,.28,.17,2.16,.26,4.33,.52,6.48,.86,7.07,1.47,14.2,4.45,20.87,.52,1.17,1.46,2.17,2.25,3.32,.4-4.21,.72-8,1.13-11.78,.26-2.44,1.46-5.08,.82-7.27-1.39-4.73-5.06-8.32-8.51-11.9Zm20.05,49.96c-1.57-1.11-3.09-1.89-4.18-3.03-1.25-1.33-2.37-1.29-4.01-.77-6.08,1.93-12.09,2.43-17.78-1.28-.51-.33-1.53,.04-2.8,.1,7.65,7.33,20.1,8,28.76,4.97Zm16.97-45.98c4-2.34,7.62-11.41,6.63-16.21-2.23,1.65-4.56,3.31-6.79,5.08-.51,.4-.94,1.24-.89,1.85,.25,3.05,.67,6.09,1.05,9.28Zm-74.7,31.35c-5.66-3.37-13.56-3.59-15.96-.65,1.47,.29,2.99,.52,4.45,.91,1.46,.4,2.85,1,4.29,1.45,.57,.18,1.26,.42,1.77,.27,1.74-.53,3.42-1.23,5.45-1.99Zm-49.42-.2c-4.58-2.54-11.26-2.21-15.27,.98,5.33,.94,10.39,2.7,15.27-.98Zm137.41-14.84c2.36-1.71,4.71-3.4,7.04-5.12,.15-.11,.21-.41,.21-.62,.01-2.2,0-4.39,0-6.87-4.51,3.47-7.49,8.78-7.26,12.61Zm-59.58,13.64h7.66c-.5-3.21-2.85-5.54-3.97-8.65-2.62,2.5-3.38,5.3-3.69,8.65Zm19.78,.51c-1.38-2.12-3.72-3.09-5.28-2.12-1.4,.87-2.72,1.85-4.04,2.75,3.64,2.69,2.02,2.78,9.33-.63Zm24.07-3.38c-3.17-2.47-9.01-1.01-9.77,1.96,3.87,2.28,6.42-.57,9.77-1.96Zm24.15-29.5c3.68-3.25,3.92-5.96,1.17-11-1.82,3.57-1.75,7.11-1.17,11Zm-9.35-30.77c1.58-.45,2.88-.82,4.21-1.2q-2.99-7.13-4.85-7.23c.21,2.68,.41,5.34,.65,8.43Zm-31.97,61.8h5.75c-.68-1.61-1.24-2.92-1.9-4.47-1.46,1.57-2.61,2.79-3.75,4.03-.09,.09-.07,.27-.1,.44Zm24.46-70.34c-1.46,.17-2.52,.02-3.18,.43-1.27,.81-1.09,4.89,.46,6.45,.89-2.26,1.7-4.3,2.72-6.89Zm-51.68-5.66c.71,1.88-1.07,4.06,1.79,5.41,.38-1.99,.71-3.69,1.08-5.64-1.11,.09-1.79,.14-2.87,.23Zm-1.63,2.64c.18-.13,.36-.27,.55-.4-.4-.53-.81-1.06-1.21-1.59-.17,.11-.35,.23-.52,.34,.4,.55,.79,1.1,1.19,1.66Z"/>
  <path class="cls-4" d="M235.74,52.72c-.74,.09-1.48,.18-2.22,.27-.24,.16-.47,.32-.71,.48-4.64,2.53-9.29,5.07-14.22,7.76-1.44-1.61-2.89-3.18-4.25-4.82-.17-.2,.16-.76,.26-1.15,.77-.4,1.57-.75,2.3-1.2,6.77-4.27,13.5-8.62,20.31-12.84,13.99-8.66,28.04-17.25,42.04-25.91,.8-.5,1.37-1.32,2.05-1.99,.11,0,.22-.03,.32-.08,1.55,2.23,3.1,4.46,4.66,6.7-1.42,1.06-2.76,2.23-4.28,3.16-7.59,4.63-15.25,9.15-22.82,13.8-3.12,1.91-6.07,4.06-9.09,6.11-.03,.21-.06,.41-.1,.62,0,0,0,0,0,0-.46,.18-.93,.36-1.39,.54,.3,.19,.6,.38,.9,.57l-.04,.18s-.19,.05-.19,.05c-.34,.16-.68,.32-1.01,.48,0,0,0-.01,0-.01,.54-1.13,.06-1.37-.94-.83-1.27,.69-2.45,1.53-3.66,2.3-.44,.26-.88,.51-1.31,.77-.2,.13-.4,.26-.59,.39-.25,.15-.49,.3-.74,.45-.35,.22-.71,.44-1.06,.66-.78,.57-1.55,1.14-2.33,1.72-.23,.06-.46,.11-.69,.17-.4,.54-.81,1.08-1.21,1.62,0,0,.03,.06,.03,.06Z"/>
  <path class="cls-9" d="M166.22,13.17c2.52-.51,5.05-1.02,7.57-1.53,1.35,5,2.7,10,4.05,15.01,1.03,2.79,2.07,5.58,3.1,8.37,.06,.21,.13,.43,.19,.64,1,1.96,2.01,3.91,3.01,5.87,0,0,0,0,0,0,.11,.67,.21,1.34,.32,2.01,.29-.14,.59-.29,.88-.43,.08,.24,.17,.47,.25,.71-.26,.26-.8,.62-.74,.75,.43,.93,.97,1.82,1.48,2.72,.34,.67,.68,1.33,1.02,2,1.19,2.02,2.38,4.04,3.57,6.06l.89,1.37c.99,1.2,1.99,2.39,2.98,3.59,0,0-.01-.01-.01-.01,.18,.55,.43,1.1,.51,1.67,.1,.7,.07,1.43,.1,2.14-.47,.28-.94,.56-1.41,.84-1.04,.87-2.08,1.73-3.12,2.6h-.05c-.68-.15-1.36-.3-2.04-.46-.11-.17-.21-.33-.32-.5-.1-.15-.21-.3-.31-.45-.11-.15-.22-.31-.33-.46-1.48-2.61-2.93-5.23-4.46-7.81-.2-.34-.79-.47-1.2-.7,0,0,0,0,0,0,.03-.42,.12-.86,.03-1.26-.02-.09-.65-.07-1-.1,0,0,0,0,0,0,.06-.36,.12-.73,.18-1.09-.07-.17-.14-.33-.2-.5-.09-.25-.19-.5-.28-.75,0,0,.03-.18,.03-.18l-.17-.09c-2.44-5.47-4.89-10.95-7.33-16.42-2.39-7.88-4.78-15.75-7.18-23.63Z"/>
  <path class="cls-9" d="M215.55,84.39c.03,.27,.07,.55,.1,.82l.92,1.54,.58,2.1c.17,1.75-1.1,.76-1.81,.83,0,0,.03,.06,.03,.06-.54-.09-1.09-.18-1.63-.27,.05,.25,.11,.49,.16,.74,0,0,0,0,0,0-.26,0-.53,0-.79-.01,0,0,.03,.01,.03,.01-.12-.49-.08-1.29-.37-1.41-1.5-.64-3.08-1.1-4.63-1.62l-5.38-2.89-.04-.18s-.2-.02-.2-.02c-.56-.58-1.05-1.26-1.72-1.7-.44-.29-1.14-.22-1.72-.32,0,0,0,0,0,0,.01-.16,.03-.33,.04-.49-.18,.01-.35,.03-.53,.04,0,0,0,0,0,0-.13-.48-.26-.95-.4-1.43l-1.26,.96c-.1-.17-.2-.33-.3-.5,1.76-.19,1.13-.99,.52-1.78-1.03-1.32-2.06-2.64-3.22-4.12,2.36-1.2,4.52-2.29,6.67-3.38,0,0,.2,.08,.2,.08,0,0,.2-.06,.2-.06,.43,.4,.85,.79,1.28,1.19,.56,.21,1.12,.42,1.68,.63h0c.04,.52,.09,1.05,.13,1.58,.25,.21,.5,.43,.74,.64,.52,.24,1.03,.48,1.55,.72,0,0,0,0,0,0,.32,.46,.64,.92,.96,1.38,.3,.21,.6,.41,.89,.62,1.38,.68,2.69,1.64,4.16,1.98,2.11,.48,3.02,1.57,3.11,3.47,0,.27,.02,.53,.03,.8Z"/>
  <path class="cls-9" d="M91.17,165.79c.8-.03,1.61-.06,2.41-.09,.33-.27,.67-.54,1-.81,0,0-.01,0-.01,0,.51-.14,1.02-.29,1.53-.43,4.97-.62,9.95-1.24,14.92-1.85,.33,.02,.65,.04,.98,.05,2.12,.62,4.24,1.24,6.37,1.86-.03,.3-.05,.6-.08,.9-2.98,1.16-5.92,2.45-8.97,3.43-3.86,1.24-7.75,2.53-11.74,3.19-2.32,.38-4.87-.44-7.32-.71,.3-1.85,.61-3.69,.91-5.54Z"/>
  <path class="cls-13" d="M267.4,177.03c0-.36-.01-.71-.02-1.07,6.05,.12,11.63-1.3,16.97-4.35-.84-.3-1.42-.51-2-.72,.02-.36,.03-.73,.05-1.09,12.82,1.91,20.61-7.42,22.41-13.4-1.78,.42-3.62,.85-5.46,1.28-.17-.31-.33-.62-.5-.94,.27-.15,.53-.38,.82-.45,7.42-1.81,12.34-6.12,14.5-12.99,.9-2.85,1.38-5.82,2.06-8.74l1.06-.92c.09,7.59-2.14,14.33-8.13,19.76-.88,.8-1.59,1.84-2.12,2.89-3.89,7.62-9.07,13.77-18.77,15.15-1.27,.18-2.44,1.07-3.63,1.67-5.38,2.71-10.96,4.67-17.24,3.94Z"/>
  <path class="cls-9" d="M104.18,179.79c-2.62-.18-5.24-.36-7.86-.54-.59-.13-1.17-.25-1.76-.38-1.31-.53-2.62-1.05-3.94-1.58,.16-1.52-.4-3.31,1.74-4.1,3.68,.65,7.31,.49,10.9-.58,.58-.17,1.46-.21,1.9,.08,2.45,1.62,4.81,3.37,7.49,5.28-1.55,.42-3.07,.84-4.59,1.25-.16,.04-.33,.08-.49,.12-.48,.08-.96,.17-1.44,.25-.65,.07-1.3,.13-1.95,.2Z"/>
  <path class="cls-13" d="M222.44,48.27c-.52-.48-1.03-.96-1.55-1.44,.66,0,1.32,0,1.98-.01,.18,.08,.37,.17,.55,.25-.1-.14-.2-.28-.29-.42,9.97-6.26,19.92-12.53,29.91-18.77,8.72-5.45,17.47-10.85,26.22-16.25,.49-.31,1.12-.42,1.69-.63-.51,.66-.87,1.52-1.54,1.95-5.94,3.82-11.92,7.6-17.92,11.33-3.82,2.37-7.73,4.61-11.55,6.98-3.58,2.22-7.1,4.54-10.64,6.82v.05c-.77,.33-1.62,.56-2.32,.99-4.86,3.02-9.68,6.09-14.52,9.15Z"/>
  <path class="cls-13" d="M275.46,68.45l-.8-1.29c8.75-.93,16.89,.96,23.52,6.22,5.18,4.11,9.75,9.03,13.96,14.05,2.07,2.48,2.69,6.02,3.97,9.07-.51-.42-1.03-.85-1.54-1.27-1.76-5.35-4.93-9.76-9.58-13.26-.29,2.04-.54,3.79-.78,5.54-.3-.46-.6-.93-.9-1.39,.15-4.57-1.52-8.5-5.34-11.32-6.56-4.84-14.1-7.01-22.49-6.36Z"/>
  <path class="cls-13" d="M250.08,43c3.03-2.04,5.98-4.19,9.09-6.11,7.57-4.65,15.23-9.17,22.82-13.8,1.52-.93,2.86-2.1,4.28-3.16,1.04,.07,1.72,.42,.7,1.32-1.15,1-2.38,1.95-3.7,2.75-9.15,5.54-18.33,11.02-27.48,16.55-1.65,1-3.2,2.16-4.8,3.24-.3-.26-.6-.53-.91-.79Z"/>
  <path class="cls-4" d="M239.28,38.08c3.54-2.28,7.06-4.59,10.64-6.82,3.82-2.37,7.74-4.61,11.55-6.98,6.01-3.73,11.98-7.51,17.92-11.33,.67-.43,1.03-1.29,1.54-1.95,.23,.74,.45,1.49,.68,2.23-.1,.05-.21,.08-.32,.08-.72,.31-1.49,.55-2.14,.95-4.5,2.84-8.94,5.78-13.48,8.57-8,4.9-16.05,9.72-24.11,14.53-.66,.39-1.52,.48-2.29,.71Z"/>
  <path class="cls-13" d="M166.22,13.17c2.39,7.88,4.78,15.75,7.18,23.63-.32,.31-.63,.62-.95,.93-2.48-7.82-4.95-15.64-7.45-23.46-.39-1.21,.23-1.3,1.22-1.1Z"/>
  <path class="cls-13" d="M177.85,26.65c-1.35-5-2.7-10-4.05-15.01,.48,.41,1.26,.74,1.41,1.24,1.35,4.63,2.59,9.28,3.87,13.92-.41-.05-.82-.1-1.22-.16Z"/>
  <path class="cls-10" d="M172.45,37.73c.32-.31,.63-.62,.95-.93,2.44,5.47,4.89,10.95,7.33,16.42,0,.11,.06,.2,.14,.27,.09,.25,.19,.5,.28,.75,.07,.17,.14,.33,.2,.5-.06,.36-.12,.73-.18,1.09-.15,0-.3-.01-.45-.02-.09-.14-.19-.28-.28-.43-.07-.16-.14-.33-.2-.49-.07-.13-.14-.27-.22-.4-1.37-2.75-2.75-5.51-4.12-8.26,0-.12-.04-.22-.13-.3-.29-.64-.57-1.28-.86-1.91-.08-.13-.17-.27-.25-.4-.11-.37-.21-.73-.32-1.1-.15-.39-.3-.79-.45-1.18l-.92-2.29c-.18-.44-.36-.88-.54-1.32h0Z"/>
  <path class="cls-13" d="M272.7,67.13c-.18,.35-.36,.69-.55,1.04-3.37-1.01-6.74-2.03-10.1-3.04-.98-.42-1.96-.84-2.93-1.27,4.84-.06,9.42,.88,13.59,3.27Z"/>
  <path class="cls-10" d="M177.85,26.65c.41,.05,.82,.1,1.22,.16,.09,.24,.18,.48,.27,.72,.06,.33,.11,.65,.17,.98,.4,.92,.79,1.83,1.19,2.75,.11,.33,.23,.65,.34,.98,.23,.61,.45,1.21,.68,1.82-.03,.15,.02,.29,.13,.41,.6,1.37,1.2,2.74,1.79,4.11,.07,.15,.13,.29,.2,.44,.11,.84,.22,1.68,.32,2.52-1-1.96-2.01-3.91-3.01-5.87-.06-.22-.13-.43-.19-.64-1.03-2.79-2.07-5.58-3.1-8.37Z"/>
  <path class="cls-14" d="M223.2,156.89c-.3,.3-.61,.6-.91,.91-2.88,.06-5.77,.13-8.65,.19-.27-.33-.53-.67-.8-1,3.44-1.48,6.89-1.2,10.36-.1Z"/>
  <path class="cls-14" d="M152.65,178.44c.44,.25,.89,.74,1.31,.72,2.26-.12,4.51-.36,6.77-.56-6.42,1.59-12.81,1.43-19.18-.22,2.61,.22,5.23,.47,7.85,.63,.43,.03,.89-.37,1.33-.57,.64,0,1.29,0,1.93,0Z"/>
  <path class="cls-10" d="M319.67,114.19c.1,.92,.21,1.85,.31,2.77,0,1.63,.01,3.25,.02,4.88-.11,1.07-.23,2.14-.34,3.22-.47,.3-.94,.6-1.41,.9,.17-1.21,.33-2.42,.5-3.63,.06-.03,.17-.08,.17-.1-.01-.11-.06-.22-.1-.32-.18-3.02-.37-6.05-.55-9.07,.47,.45,.93,.91,1.4,1.36Z"/>
  <path class="cls-13" d="M166.7,159.1c-.66-.19-1.32-.39-1.99-.58,3.25-1.19,6.5-1.49,9.75,0-.51,.2-1.02,.4-1.54,.6-2.08-.01-4.15-.02-6.23-.03Z"/>
  <path class="cls-10" d="M195.4,64.11c-.03-.72,0-1.44-.1-2.14-.08-.57-.34-1.11-.51-1.67,.64,.44,1.28,.89,1.92,1.33,.16,.41,.32,.83,.48,1.24l.51-.81c.51-.28,1.02-.55,1.52-.83,.3-.18,.59-.36,.89-.53,.19-.12,.38-.24,.57-.37,.21-.06,.43-.12,.64-.18-.08,.44-.01,1-.28,1.29-.91,1.01-1.94,1.92-2.92,2.87,0,0,.03,.05,.03,.05-.67,.14-1.34,.27-2.01,.41-.24-.22-.49-.44-.73-.66Z"/>
  <path class="cls-10" d="M202.78,84.3l5.38,2.89c-.11,.1-.22,.2-.32,.3-.52,.01-1.04,.03-1.56,.04-.78-.38-1.55-.77-2.33-1.15-.14-.09-.28-.18-.41-.26-.35-.22-.69-.43-1.04-.65-.14-.09-.27-.17-.41-.26-.66-.47-1.32-.94-1.98-1.41-.16-.28-.32-.56-.49-.84-.17-.29-.34-.58-.5-.88,.58,.09,1.28,.03,1.72,.32,.67,.44,1.15,1.12,1.72,1.7,.04,.1,.12,.17,.23,.2Z"/>
  <path class="cls-10" d="M182.15,57.18c.41,.23,1,.36,1.2,.7,1.53,2.58,2.99,5.2,4.46,7.81-.44,.03-.88,.06-1.31,.09,0,0,0,.02,0,.02-.1-.16-.21-.32-.31-.47-.21-.31-.42-.62-.63-.93-.19-.3-.37-.6-.56-.9,0,0-.08-.12-.08-.12-.15-.41-.3-.83-.45-1.24-.11-.18-.22-.35-.34-.53-.18-.27-.35-.54-.53-.82-.49-1.2-.98-2.4-1.47-3.6Z"/>
  <path class="cls-4" d="M198.11,64.32c.98-.95,2.01-1.86,2.92-2.87,.27-.29,.2-.85,.28-1.29-.11-.06-.21-.13-.3-.22l.11-.14s.18,.05,.18,.05c.16,.14,.33,.27,.49,.41,.53-.07,1.07-.22,1.58-.16,.34,.04,.65,.38,.97,.58-.87,.51-1.74,1.03-2.61,1.54-1.2,.7-2.41,1.4-3.62,2.11Z"/>
  <path class="cls-10" d="M190.93,55.35c-1.19-2.02-2.38-4.04-3.57-6.06,.33-.24,.67-.48,1-.72,1.32,2.26,2.64,4.52,3.96,6.78h-1.39Z"/>
  <path class="cls-10" d="M239.94,49.15c.35-.22,.71-.44,1.06-.66,.25-.15,.49-.3,.74-.45,.2-.13,.4-.26,.59-.39,.44-.26,.88-.51,1.31-.77,1.22-.77,2.4-1.61,3.66-2.3,.99-.54,1.48-.3,.94,.83-.23,.14-.47,.29-.7,.43-.49,.3-.97,.61-1.46,.91,0,0,0,0,0,0-.15,.07-.3,.15-.45,.22-.36,.22-.71,.44-1.07,.66-.29,.18-.58,.36-.86,.55,0,0,.03-.02,.03-.02-.51,.3-1.02,.59-1.53,.89-.21,.13-.41,.27-.62,.4-.27,0-.55,.01-.82,.02-.27-.11-.55-.22-.82-.32Z"/>
  <path class="cls-13" d="M151.19,158.55c-3.05-.12-6.1-.24-9.15-.36,3.11-1.08,6.14-.55,9.15,.36Z"/>
  <path class="cls-13" d="M319.67,114.19c-.47-.45-.93-.91-1.4-1.36-.34-1.21-.68-2.41-1.02-3.62,.41-.03,.82-.06,1.23-.09,.4,1.69,.79,3.38,1.19,5.07Zm-1.32-2.6c.07,0,.13,0,.2,0v-.7c-.07,0-.13,0-.2,0v.7Z"/>
  <path class="cls-13" d="M318.24,125.96c.47-.3,.94-.6,1.41-.9-.43,1.37-.86,2.74-1.29,4.12-.42-.03-.84-.07-1.26-.1,.38-1.04,.75-2.07,1.13-3.11Z"/>
  <path class="cls-10" d="M208.15,87.19c1.55,.52,3.13,.98,4.63,1.62,.29,.12,.26,.92,.37,1.41-1.62-.58-3.24-1.17-4.86-1.75-.15-.33-.31-.65-.46-.98,.1-.1,.21-.2,.32-.3Z"/>
  <path class="cls-10" d="M175.87,79.78c.14-.31,.27-.62,.41-.93,.19-.31,.37-.61,.56-.92,.09-.15,.19-.3,.28-.45,.13-.07,.21-.17,.24-.31,.14-.19,.28-.39,.42-.58,.18-.19,.36-.38,.54-.57,.23-.25,.46-.51,.68-.76,.18,.38,.37,.75,.55,1.13,.04,.31,.07,.63,.11,.94-.15-.07-.29-.05-.42,.07-.79,.95-1.58,1.91-2.37,2.86-.33-.16-.66-.33-1-.49Z"/>
  <path class="cls-14" d="M122.98,157.94c-2.15,.02-4.29,.04-6.44,.06,2.14-.02,4.29-.04,6.44-.06Z"/>
  <path class="cls-13" d="M320,121.84c0-1.63-.01-3.25-.02-4.88,0,1.63,.01,3.25,.02,4.88Z"/>
  <path class="cls-14" d="M173.02,179.15c1.91,.03,3.82,.06,5.73,.09-1.91-.03-3.82-.06-5.73-.09Z"/>
  <path class="cls-14" d="M95.85,159.77c-.58,.08-1.16,.15-1.8,.24,.55,.33,1.03,.61,1.51,.89-.9-.13-1.79-.27-2.69-.4,.05-.35,.09-.7,.14-1.04,.94,.11,1.89,.21,2.83,.32Z"/>
  <path class="cls-14" d="M118.72,178.93c2.59,.25,5.18,.5,7.77,.75-2.59-.25-5.18-.5-7.77-.75Z"/>
  <path class="cls-10" d="M188.15,66.15c.1,.15,.21,.3,.31,.45,.11,.17,.21,.33,.32,.5,.68,.16,1.36,.31,2.04,.47,.01,.28,.03,.56,.04,.84-.96,.47-1.92,.94-2.88,1.4-.27-.24-.54-.48-.82-.72,.25-.44,.5-.87,.75-1.31,.08-.55,.16-1.09,.25-1.64Z"/>
  <path class="cls-14" d="M198.69,179.22c2.02-.08,4.03-.15,6.05-.23-2.02,.08-4.03,.15-6.05,.23Z"/>
  <path class="cls-13" d="M159.91,161.48c-.8-.36-1.6-.71-2.4-1.07,1.28-.12,2.56-.24,3.83-.35-.15,.49-.3,.98-.46,1.46-.33-.01-.65-.03-.98-.04Z"/>
  <path class="cls-13" d="M223.3,115.54c.48,.46,.95,.91,1.43,1.37,.14,.46,.29,.91,.43,1.37-.22-.18-.44-.35-.81-.64,0,1.02,0,1.88,0,2.75-.35-1.61-.71-3.23-1.06-4.84Z"/>
  <path class="cls-13" d="M221.81,104.67c.21,1.5,.42,3.01,.63,4.51-.21-1.5-.42-3.01-.63-4.51Z"/>
  <path class="cls-10" d="M194.8,60.31c-.99-1.2-1.99-2.39-2.98-3.59,.44-.05,.89-.09,1.33-.14,.15,.02,.2,.09,.17,.23,.02,.14,.09,.25,.23,.32,.42,1.06,.83,2.12,1.25,3.18Z"/>
  <path class="cls-14" d="M128.95,179.67c2.04-.21,4.08-.42,6.11-.63-2.04,.21-4.08,.42-6.11,.63Z"/>
  <path class="cls-10" d="M186.34,47.28c-.51-.9-1.06-1.79-1.48-2.72-.06-.13,.48-.5,.74-.75,.48,.8,.97,1.61,1.45,2.41-.24,.35-.48,.71-.71,1.06Z"/>
  <path class="cls-14" d="M226.24,178.44c1.56-.24,3.13-.48,4.69-.73-1.56,.24-3.13,.48-4.69,.73Z"/>
  <path class="cls-14" d="M188.48,176.19c.16,.45,.32,.91,.48,1.36-.82,.03-1.63,.07-2.45,.1,.33-.62,.66-1.25,.99-1.87,.33,.14,.65,.28,.98,.41Z"/>
  <path class="cls-14" d="M204.01,50.02c-.48,1.32-.96,2.65-1.44,3.97,.48-1.32,.96-2.65,1.44-3.97Z"/>
  <path class="cls-13" d="M186.34,47.28c.24-.35,.48-.71,.71-1.06,.44,.78,.87,1.56,1.31,2.35-.33,.24-.67,.48-1,.72-.34-.67-.68-1.33-1.03-2Z"/>
  <path class="cls-13" d="M175.87,79.78c.33,.16,.66,.33,1,.49,.01,1.2,.03,2.39,.04,3.59-.47-1.05-.95-2.1-1.42-3.15,.13-.31,.26-.62,.39-.92Z"/>
  <path class="cls-10" d="M237.61,50.86c.78-.57,1.56-1.14,2.33-1.72,.27,.11,.55,.22,.82,.32-.01,.15-.02,.3,0,.44-.77,.49-1.52,1.02-2.34,1.45-.13,.07-.53-.32-.81-.5Z"/>
  <path class="cls-14" d="M215.48,44.21c-1.08-.02-2.16-.04-3.24-.06,1.08,.02,2.16,.04,3.24,.06Z"/>
  <path class="cls-13" d="M220.88,98.27c.14,1.47,.29,2.95,.43,4.42-.14-1.47-.29-2.95-.43-4.42Z"/>
  <path class="cls-10" d="M184.25,70.93c.97-.61,1.94-1.22,2.91-1.83,.27,.24,.54,.48,.82,.72-.86,.57-1.73,1.13-2.59,1.7-.38-.19-.75-.39-1.13-.58Z"/>
  <path class="cls-14" d="M97.01,163.04c-1.18,.3-2.35,.59-3.53,.89,1.18-.3,2.35-.59,3.53-.89Z"/>
  <path class="cls-14" d="M193.46,178.62c1.39,.18,2.78,.36,4.17,.54-1.39-.18-2.78-.36-4.17-.54Z"/>
  <path class="cls-13" d="M193.15,56.58c-.44,.05-.89,.09-1.33,.14-.3-.46-.59-.91-.89-1.37,.46,0,.93,0,1.39,0l.82,1.23Z"/>
  <path class="cls-14" d="M233.43,176.13c.18,.3,.35,.59,.53,.89-.81,.2-1.61,.39-2.42,.59,.49-.47,.98-.95,1.47-1.42,0,0,.2-.12,.2-.12l.22,.07Z"/>
  <path class="cls-10" d="M182.14,72.47c.35-.27,.7-.54,1.05-.82,.3,0,.61-.02,.91-.03,.14,.13,.28,.25,.43,.38-.51,.4-1.01,.8-1.52,1.2-.29-.25-.58-.49-.87-.74Z"/>
  <path class="cls-14" d="M111.02,161.28c-.27-.08-.59-.1-.81-.25-.35-.23-.64-.54-.95-.81,.58-.27,1.16-.55,1.74-.82,.03,.36,.05,.72,.08,1.08-.02,.27-.04,.53-.06,.8Z"/>
  <path class="cls-13" d="M182.14,72.47c.29,.25,.58,.49,.87,.74-.5,.42-1,.85-1.5,1.27-.52-.04-1.04-.08-1.56-.12,.73-.63,1.46-1.26,2.19-1.89Z"/>
  <path class="cls-10" d="M179.95,74.36c.52,.04,1.04,.08,1.56,.12-.6,.64-1.2,1.29-1.8,1.93,0,0-.16-.01-.16-.01-.18-.38-.37-.75-.55-1.13,.32-.31,.63-.61,.95-.92Z"/>
  <path class="cls-13" d="M224.81,122.34l.54,2.23-.54-2.23Z"/>
  <path class="cls-14" d="M168.65,178.38c.8,.18,1.6,.36,2.4,.54-.8-.18-1.6-.36-2.4-.54Z"/>
  <path class="cls-13" d="M221.15,94.26c.03,.61,.05,1.22,.08,1.83-.03-.61-.05-1.22-.08-1.83Z"/>
  <path class="cls-13" d="M188.15,66.15c-.08,.55-.16,1.09-.25,1.64-.47-.67-.93-1.34-1.4-2.01,.44-.03,.88-.06,1.31-.09,.11,.15,.22,.31,.33,.46Z"/>
  <path class="cls-13" d="M134.26,161.71c-.56,.14-1.12,.29-1.69,.43,.56-.14,1.12-.29,1.69-.43Z"/>
  <path class="cls-7" d="M90.34,172.52c.51,.17,1.03,.33,1.54,.5-.62,.06-1.24,.12-1.86,.18,.1-.22,.21-.45,.31-.67Z"/>
  <path class="cls-14" d="M105.19,180.82c.76-.13,1.52-.27,2.29-.4-.76,.13-1.52,.27-2.29,.4Z"/>
  <path class="cls-14" d="M96.66,180.41c.76,.13,1.53,.27,2.29,.4-.76-.13-1.53-.27-2.29-.4Z"/>
  <path class="cls-13" d="M225.93,126.44c.25,.78,.5,1.55,.75,2.33-.25-.78-.5-1.55-.75-2.33Z"/>
  <path class="cls-13" d="M233.4,148.12c-.11,.61-.22,1.22-.34,1.83,.11-.61,.22-1.22,.34-1.83Z"/>
  <path class="cls-13" d="M207.84,87.49c.15,.33,.31,.65,.46,.98-.67-.31-1.35-.63-2.02-.94,.52-.01,1.04-.03,1.56-.04Z"/>
  <path class="cls-13" d="M184.61,159.47c-.61,.39-1.21,.78-1.82,1.17,.61-.39,1.22-.78,1.82-1.17Z"/>
  <path class="cls-14" d="M242.05,177.62c.85,.18,1.69,.36,2.54,.54-.85-.18-1.69-.36-2.54-.54Z"/>
  <path class="cls-10" d="M185.35,43.1c-.29,.14-.59,.29-.88,.43-.11-.67-.21-1.34-.32-2.01,.4,.53,.8,1.06,1.21,1.58Z"/>
  <path class="cls-13" d="M317.92,107.41c-.22-.61-.45-1.21-.67-1.82,.22,.61,.45,1.21,.67,1.82Z"/>
  <path class="cls-13" d="M230.67,139.99c.26,.69,.53,1.38,.79,2.08-.26-.69-.53-1.38-.79-2.08Z"/>
  <path class="cls-13" d="M246.09,46.75c.49-.3,.97-.61,1.46-.91-.49,.3-.97,.61-1.46,.91Z"/>
  <path class="cls-14" d="M109.09,180.26c.61-.16,1.22-.32,1.83-.48-.61,.16-1.22,.32-1.83,.48Z"/>
  <path class="cls-10" d="M196.96,81.16l1.26-.96c.13,.48,.26,.95,.4,1.43-.55-.16-1.11-.31-1.66-.47Z"/>
  <path class="cls-13" d="M153.27,159.4c-.69-.28-1.38-.56-2.07-.85,.69,.28,1.38,.56,2.07,.85Z"/>
  <path class="cls-13" d="M182.21,160.73c-.48,.06-.96,.13-1.44,.19,.48-.06,.96-.13,1.44-.19Z"/>
  <path class="cls-14" d="M96.62,161.03c.61,.1,1.23,.19,1.84,.29-.61-.1-1.23-.19-1.84-.29Z"/>
  <path class="cls-14" d="M246.59,178.38c.47,0,.94,.02,1.41,.03-.47,0-.94-.02-1.41-.03Z"/>
  <path class="cls-13" d="M254.3,63.98c-.59,.1-1.18,.2-1.77,.3,.59-.1,1.18-.2,1.77-.3Z"/>
  <path class="cls-13" d="M197.7,62.06l-.51,.81c-.16-.41-.32-.83-.48-1.24,.33,.14,.66,.29,.98,.43Z"/>
  <path class="cls-13" d="M175.36,81.47c.04,.73,.08,1.47,.12,2.2-.04-.73-.08-1.47-.12-2.2Z"/>
  <path class="cls-13" d="M316.31,98.86c-.03-.47-.07-.93-.1-1.4,.03,.47,.07,.93,.1,1.4Z"/>
  <path class="cls-10" d="M181.19,55.82c.35,.03,.98,0,1,.1,.09,.4,0,.84-.03,1.26-.16,.06-.31,.13-.47,.19-.15-.22-.29-.45-.44-.67-.02-.29-.04-.59-.06-.88Z"/>
  <path class="cls-13" d="M242.21,49.05c.51-.3,1.02-.59,1.53-.89-.51,.3-1.02,.59-1.53,.89Z"/>
  <path class="cls-10" d="M235.71,52.66c.4-.54,.81-1.08,1.21-1.62,.05,.38,.1,.76,.15,1.14-.22,.14-.45,.28-.67,.42-.23,.02-.46,.04-.7,.06Z"/>
  <path class="cls-14" d="M94.08,179.82c.48,.15,.97,.3,1.45,.45-.48-.15-.97-.3-1.45-.45Z"/>
  <path class="cls-13" d="M184.49,62.13c.15,.41,.3,.83,.45,1.24-.15-.41-.3-.83-.45-1.24Z"/>
  <path class="cls-13" d="M222.75,111.59c.06,.47,.11,.95,.17,1.42-.06-.47-.11-.95-.17-1.42Z"/>
  <path class="cls-14" d="M99.52,161.68c.22,.2,.45,.39,.67,.59-.32,.1-.63,.19-.95,.29,.09-.29,.19-.58,.28-.88Z"/>
  <path class="cls-10" d="M249.5,44.72c-.3-.19-.6-.38-.9-.57,.46-.18,.93-.36,1.39-.54-.16,.37-.33,.74-.49,1.11Z"/>
  <path class="cls-14" d="M217.68,44.87c-.38-.15-.76-.3-1.14-.45,.38,.15,.76,.3,1.14,.45Z"/>
  <path class="cls-14" d="M163.28,178.1c.42-.15,.83-.29,1.25-.44-.42,.15-.83,.29-1.25,.44Z"/>
  <path class="cls-14" d="M205.4,48.07c-.31,.32-.62,.64-.93,.95,.31-.32,.62-.64,.93-.95Z"/>
  <path class="cls-14" d="M208.33,178.45c.44-.09,.87-.18,1.31-.28-.44,.09-.87,.18-1.31,.28Z"/>
  <path class="cls-10" d="M213.91,90.22c-.05-.25-.11-.49-.16-.74,.54,.09,1.09,.18,1.63,.27-.06,1.32-.7,1.07-1.47,.47Z"/>
  <path class="cls-14" d="M90.67,177.53c-.01,.35-.03,.7-.04,1.05-.21-.22-.42-.45-.63-.67,.22-.13,.45-.25,.67-.38Z"/>
  <path class="cls-13" d="M184.6,85.69c.42-.13,.84-.26,1.25-.38-.42,.13-.84,.26-1.25,.38Z"/>
  <path class="cls-14" d="M124.55,158.19c-.32-.06-.65-.13-.97-.19,.32,.06,.65,.13,.97,.19Z"/>
  <path class="cls-14" d="M205.9,178.91c.44-.09,.88-.18,1.33-.27-.44,.09-.88,.18-1.33,.27Z"/>
  <path class="cls-13" d="M199.61,82.96c.16,.28,.32,.56,.49,.84-.16-.28-.32-.56-.49-.84Z"/>
  <path class="cls-13" d="M190.41,83.81c.29-.29,.59-.57,.88-.86-.29,.29-.59,.57-.88,.86Z"/>
  <path class="cls-14" d="M202.63,56.24c.22,.27,.44,.54,.65,.81-.22-.27-.44-.54-.65-.81Z"/>
  <path class="cls-13" d="M181.04,32.23c-.11-.33-.23-.65-.34-.98,.11,.33,.23,.65,.34,.98Z"/>
  <path class="cls-14" d="M102.35,161.31c-.33-.1-.65-.21-.98-.31,.33,.1,.65,.21,.98,.31Z"/>
  <path class="cls-13" d="M226.79,129.13c.14,.45,.28,.9,.41,1.36-.14-.45-.28-.9-.41-1.36Z"/>
  <path class="cls-13" d="M172.45,37.72c.18,.44,.36,.88,.54,1.32-.18-.44-.36-.88-.54-1.32Z"/>
  <path class="cls-13" d="M216.12,91.09c.46,.12,.92,.24,1.38,.35-.46-.12-.92-.24-1.38-.35Z"/>
  <path class="cls-14" d="M201.78,60.25c-.16-.14-.33-.27-.49-.41,.41-.3,.81-.59,1.22-.89-.24,.43-.48,.86-.73,1.29Z"/>
  <path class="cls-13" d="M243.71,48.18c.29-.18,.58-.36,.86-.55-.29,.18-.58,.36-.86,.55Z"/>
  <path class="cls-13" d="M173.91,41.33c.15,.39,.3,.79,.45,1.18-.15-.39-.3-.79-.45-1.18Z"/>
  <path class="cls-13" d="M176.84,77.94c-.19,.31-.37,.61-.56,.92,.19-.31,.37-.61,.56-.92Z"/>
  <path class="cls-13" d="M137.66,159.8c-.31,.19-.62,.38-.93,.57,.31-.19,.62-.38,.93-.57Z"/>
  <path class="cls-10" d="M184.1,71.05s.16-.11,.16-.12c.38,.19,.75,.39,1.13,.58-.28,.16-.57,.33-.85,.49-.14-.13-.28-.25-.43-.38,0-.19,0-.39,0-.58Z"/>
  <path class="cls-14" d="M225.25,157.65c-.31-.11-.62-.22-.93-.33,.31,.11,.62,.22,.93,.33Z"/>
  <path class="cls-13" d="M184.1,71.05c0,.19,0,.39,0,.58-.3,0-.61,.02-.91,.03,.3-.2,.6-.41,.9-.61Z"/>
  <path class="cls-13" d="M228.67,134.56c.14,.33,.29,.66,.43,.99-.14-.33-.29-.66-.43-.99Z"/>
  <path class="cls-10" d="M223.12,46.65c.1,.14,.2,.28,.29,.42-.18-.08-.37-.17-.55-.25,.02-.14,.11-.2,.25-.17Z"/>
  <path class="cls-13" d="M240.76,49.91c0-.15,0-.3,0-.44,.27,0,.55-.01,.82-.02-.28,.15-.55,.31-.83,.46Z"/>
  <path class="cls-10" d="M250.08,43c.3,.26,.6,.53,.91,.79-.33-.06-.67-.12-1-.18,.03-.21,.06-.41,.1-.62Z"/>
  <path class="cls-13" d="M183.62,60.78c.18,.27,.35,.54,.53,.82-.18-.27-.35-.54-.53-.82Z"/>
  <path class="cls-13" d="M185.02,63.49c.19,.3,.37,.6,.56,.9-.19-.3-.37-.6-.56-.9Z"/>
  <path class="cls-13" d="M200.11,60.7c-.3,.18-.59,.36-.89,.53,.3-.18,.59-.36,.89-.53Z"/>
  <path class="cls-13" d="M224.39,120.5c.08,.27,.16,.53,.24,.8-.08-.27-.16-.53-.24-.8Z"/>
  <path class="cls-13" d="M317.81,130.25c.14-.23,.28-.45,.42-.68-.14,.23-.28,.45-.42,.68Z"/>
  <path class="cls-13" d="M228.06,132.82c.09,.08,.13,.18,.13,.3,0,0-.17-.11-.17-.11l.04-.19Z"/>
  <path class="cls-13" d="M230.04,138.29c.06,.08,.09,.16,.07,.26,0,0-.15-.11-.15-.11l.07-.15Z"/>
  <path class="cls-13" d="M218.85,92.05c.2,.15,.39,.3,.59,.45-.2-.15-.39-.3-.59-.45Z"/>
  <path class="cls-13" d="M213.13,90.21c.26,0,.53,0,.79,.01-.26,0-.53,0-.79-.01Z"/>
  <path class="cls-13" d="M231.67,143.16c.12,.21,.25,.42,.37,.62-.12-.21-.25-.42-.37-.62Z"/>
  <path class="cls-13" d="M203.53,86.12c.14,.09,.28,.18,.41,.26-.14-.09-.28-.18-.41-.26Z"/>
  <path class="cls-13" d="M202.08,85.21c.14,.09,.27,.17,.41,.26-.14-.09-.27-.17-.41-.26Z"/>
  <path class="cls-13" d="M187.57,84.93c.12-.12,.26-.17,.43-.16-.14,.05-.29,.1-.43,.16Z"/>
  <path class="cls-13" d="M189.45,84.28c.21-.12,.42-.24,.63-.36-.21,.12-.42,.24-.63,.36Z"/>
  <path class="cls-13" d="M175.53,83.85c.12,.19,.25,.39,.37,.58-.12-.19-.25-.39-.37-.58Z"/>
  <path class="cls-10" d="M198.62,81.62c.18-.01,.35-.03,.53-.04-.01,.16-.03,.33-.04,.49-.19-.02-.39-.04-.58-.06,.03-.13,.07-.26,.1-.39Z"/>
  <path class="cls-14" d="M212.19,157.29c-.18,.11-.36,.21-.55,.32,.18-.11,.36-.21,.55-.32Z"/>
  <path class="cls-13" d="M177.36,77.18c-.03,.14-.11,.25-.24,.31,.08-.1,.16-.21,.24-.31Z"/>
  <path class="cls-14" d="M127.16,158.93c-.21-.07-.42-.15-.63-.22,.21,.07,.42,.15,.63,.22Z"/>
  <path class="cls-13" d="M178.32,76.03c-.18,.19-.36,.38-.54,.57,.18-.19,.36-.38,.54-.57Z"/>
  <path class="cls-14" d="M128.44,159.45c-.15-.08-.3-.17-.46-.25,.15,.08,.3,.17,.46,.25Z"/>
  <path class="cls-13" d="M155.1,160.35c-.16-.09-.32-.18-.48-.28,.16,.09,.32,.18,.48,.28Z"/>
  <path class="cls-14" d="M131.84,161.71c-.16-.15-.33-.29-.49-.44,.16,.15,.33,.29,.49,.44Z"/>
  <path class="cls-13" d="M186.21,65.32c.1,.16,.21,.32,.31,.47-.1-.16-.21-.32-.31-.47Z"/>
  <path class="cls-14" d="M201.01,59.93c.09,.09,.19,.16,.3,.22-.21,.06-.42,.12-.64,.18,.11-.13,.22-.27,.33-.4Z"/>
  <path class="cls-13" d="M193.55,57.13c-.14-.07-.21-.18-.23-.32,.08,.11,.15,.21,.23,.32Z"/>
  <path class="cls-13" d="M181.25,56.71c.15,.22,.29,.45,.44,.67-.15-.22-.29-.45-.44-.67Z"/>
  <path class="cls-13" d="M180.45,55.37c.09,.14,.19,.28,.28,.43-.09-.14-.19-.28-.28-.43Z"/>
  <path class="cls-13" d="M180.03,54.48c.07,.13,.14,.27,.22,.4-.07-.13-.14-.27-.22-.4Z"/>
  <path class="cls-13" d="M233.49,54.36c.17-.12,.34-.23,.52-.35-.17,.12-.34,.23-.52,.35Z"/>
  <path class="cls-13" d="M234,54.01c.23-.14,.46-.27,.69-.41-.23,.14-.46,.27-.69,.41Z"/>
  <path class="cls-13" d="M234.96,53.44c.2-.12,.4-.25,.59-.37-.2,.12-.4,.25-.59,.37Z"/>
  <path class="cls-13" d="M236.4,52.59c.22-.14,.44-.28,.67-.42-.22,.14-.44,.28-.67,.42Z"/>
  <path class="cls-13" d="M245.64,46.97c.15-.07,.3-.15,.45-.22-.15,.07-.3,.15-.45,.22Z"/>
  <path class="cls-13" d="M220.82,46.77c-.13-.1-.25-.19-.38-.29,.13,.1,.25,.19,.38,.29Z"/>
  <path class="cls-14" d="M235.95,176.4l.56-.16c-.19,.05-.38,.11-.56,.16Z"/>
  <path class="cls-14" d="M237.73,176.25c.2,.07,.39,.14,.59,.21-.2-.07-.39-.14-.59-.21Z"/>
  <path class="cls-14" d="M235.03,176.74c.1-.1,.23-.13,.37-.1-.12,.03-.25,.07-.37,.1Z"/>
  <path class="cls-13" d="M265.59,176.8c.27,.05,.54,.1,.81,.16-.27-.05-.54-.1-.81-.16Z"/>
  <path class="cls-13" d="M220.12,46.23c-.22-.16-.45-.31-.67-.47,.22,.16,.45,.31,.67,.47Z"/>
  <path class="cls-13" d="M175.79,45.92c.08,.08,.13,.18,.13,.3,0,0-.17-.12-.17-.12l.04-.18Z"/>
  <path class="cls-13" d="M248.25,45.43c.34-.16,.68-.32,1.01-.48-.34,.16-.68,.32-1.01,.48Z"/>
  <path class="cls-14" d="M215.98,177.59c.17,.03,.33,.05,.5,.08-.17-.03-.33-.05-.5-.08Z"/>
  <path class="cls-13" d="M174.68,43.61c.08,.13,.17,.27,.25,.4-.08-.13-.17-.27-.25-.4Z"/>
  <path class="cls-13" d="M183.83,39.01c-.07-.15-.13-.29-.2-.44,.07,.15,.13,.29,.2,.44Z"/>
  <path class="cls-14" d="M167.2,178c.17-.02,.31,.03,.42,.16-.14-.05-.28-.11-.42-.16Z"/>
  <path class="cls-13" d="M181.84,34.46c-.11-.12-.15-.25-.13-.41,.06,.08,.14,.16,.18,.26,.02,.04-.03,.1-.05,.15Z"/>
  <path class="cls-13" d="M179.51,28.51c-.06-.33-.11-.65-.17-.98,.06,.33,.11,.65,.17,.98Z"/>
  <path class="cls-14" d="M180.3,179.07c.21-.03,.41-.05,.62-.08-.21,.03-.41,.05-.62,.08Z"/>
  <path class="cls-14" d="M103.29,181c.15,0,.31-.02,.46-.03-.15,0-.31,.02-.46,.03Z"/>
  <path class="cls-8" d="M272.27,146.97c-.1,.25-.19,.49-.29,.74-.13-.23-.25-.46-.38-.69-.35,.33-.69,.66-1.04,1-1.91,2.79-3.35,5.91-6.24,8.1-1.8-2.21-2.13-3.96-.51-6.39,4.17-6.24,4.51-13.3,3.22-20.29-1.44-7.82-3.57-15.53-5.4-23.29-.03-.47-.06-.94-.09-1.41,0-1.08-.02-2.16-.02-3.24,.3-1.37,.46-2.78,.93-4.09,.31-.87,1.05-1.6,1.6-2.4,1.37,3.09,2.39,6.38,4.19,9.24,4.98,7.88,7,16.39,6.85,25.42-.05,2.83-.61,5.65-.94,8.48-.09,.44-.19,.88-.28,1.32-.08,.15-.15,.3-.22,.45-.74,2.07-1.47,4.14-2.21,6.2,.11,.29,.22,.59,.33,.88,0,0,.17,.05,.17,.05l.16-.07,.18-.02Z"/>
  <path class="cls-8" d="M225.17,118.27c-.14-.46-.29-.91-.43-1.37-.31-2.5-.62-5.01-.92-7.51,.19-.08,.38-.16,.57-.24,3.62,5.18,9.36,8.56,11.5,15.21,2.3,7.14,2.5,14.49,4.41,21.6,.84,3.11,1.91,6.2,3.29,9.12,.74,1.57,.41,2.39-.84,3.21-1.41,.92-2.41,.07-2.93-.97-2.32-4.67-4.62-9.36-6.71-14.13-1.36-3.11-2.32-6.36-3.46-9.55-.14-.24-.28-.48-.41-.71-.49-1.46-.98-2.92-1.47-4.38,.1-.13,.08-.24-.08-.33-.02-.16-.04-.32-.06-.48-.28-.81-.56-1.63-.84-2.44-.42-1.61-.84-3.23-1.27-4.84-.08-.58-.17-1.17-.26-1.75-.03-.14-.07-.29-.1-.43Z"/>
  <path class="cls-8" d="M249.7,134.95c-2.79-3.37-5.37-6.7-8.2-9.82-3.36-3.72-6.92-7.29-10.42-10.9-3.19-3.29-6.72-6.41-8.08-10.81-.69-2.23-.62-4.66-.89-6.99,.27-.11,.54-.22,.81-.33,1.29,1.04,2.66,2,3.86,3.12,7.3,6.85,15.77,12.69,21.22,21.14,1.35,2.1,2.65,4.35,3.29,6.69,.42,1.53-.31,3.36-.64,5.03-.19,.95-.61,1.85-.95,2.87Z"/>
  <path class="cls-8" d="M248.43,156.08c0-2.13-.22-4.29,.04-6.4,1.61-13.29,6.08-25.88,10.83-38.4,.26-.69,.63-1.34,1.19-2.5,.83,3.15,1.51,5.81,2.22,8.47,.23,.87,.43,1.76,.8,2.58,1.83,4.02,.33,7.33-1.81,10.94-4.15,7.01-7.72,14.32-11.45,21.54-.6,1.16-.73,2.53-1.08,3.8-.25-.01-.49-.03-.74-.04Z"/>
  <path class="cls-9" d="M204.36,53.54c1.55-7.35,8.76-10.56,14.74-6.56,.33,.22,.66,.43,1.35,.89-1.96,1.17-3.5,2.2-5.14,3.06-2.57,1.35-3.54,3.01-2.11,5.36,1.64,2.7,3.89,5.07,5.89,7.57,1.99,2.5,3.99,4.98,5.98,7.47-.18,.24-.36,.49-.54,.73-1.37-.15-2.74-.29-4.11-.44-.29-.05-.58-.1-.87-.16-3.12-1.93-6.24-3.87-9.38-5.79-.36-.22-.85-.27-1.28-.4,0,0-.06,0-.06,0-.97-1.36-1.94-2.71-2.9-4.07v-.05c-.54-2.4-1.07-4.79-1.61-7.19,.01-.14,.02-.29,.03-.43Z"/>
  <path class="cls-8" d="M297.35,86.77c-8.15-.33-16.09-.6-24.02-1-3.99-.2-6.84-2.44-9.93-5.33,2.29-.59,4.15-1.16,6.06-1.54,6.73-1.33,13.51-2.03,20.3-.44,4.63,1.09,7.36,4.08,7.59,8.3Z"/>
  <path class="cls-8" d="M264.77,84.64c2.79,.92,5.28,1.71,7.74,2.56,.42,.14,.89,.49,1.06,.86,2.23,4.87,5.35,9.51,4.88,15.11-.29,3.5-1.64,6.62-4.05,9.12-2.38-4.18-4.68-8.17-6.93-12.19-2.71-4.84-2.81-10.07-2.71-15.47Z"/>
  <path class="cls-8" d="M224.51,81.1c-1.41-.28-2.82-.56-4.23-.84-3.72-.73-6.63-4.32-5.34-9.26,5.02,2.77,10.29,3.02,15.7,1.35,.32-.08,.63-.17,.95-.25,3.75-.21,7.5-.64,11.25-.55,1.86,.04,3.68,1.04,5.47,1.91-6.15,4.05-12.77,6.47-19.93,7.62-1.29,0-2.58,0-3.87,0Z"/>
  <path class="cls-8" d="M217.15,88.86c-.19-.7-.39-1.4-.58-2.1-.02-.51-.03-1.03-.05-1.54v-4.37c2.61,.49,5.11,.7,7.37,1.49,1.26,.44,2.22,1.79,3.14,2.86,2.45,2.86,5.08,5.64,7.14,8.74,2.28,3.43,3,7.38,2.65,11.81-.73-.42-1.29-.63-1.71-1-4.1-3.56-8.22-7.11-12.25-10.76-1.43-1.29-2.55-2.88-3.92-4.24-.44-.44-1.19-.61-1.8-.9Z"/>
  <path class="cls-4" d="M176.91,83.86c-.01-1.2-.03-2.39-.04-3.59,.79-.95,1.58-1.91,2.37-2.85,.22,.2,.44,.4,.67,.6-.3,1.39-1.43,2.95,.62,3.95,1.47,.72,4.57,.02,5.33-.89-1.66-.17-3.45-.36-5.25-.54,1-1.56,1.72-3.37,3.05-4.61,2.2-2.05,4.77-3.75,7.22-5.57,.68-.5,1.57-.88,.03-1.37-.01-.19-.03-.38-.04-.58-.01-.28-.03-.56-.04-.84,0,0,.05-.01,.05-.01,1.05-.37,2.1-.75,3.15-1.12,.26,.08,.51,.16,.77,.24,.43,.16,1.05,.58,1.26,.44,2.84-1.85,5.63-3.78,8.43-5.69,.48-.08,.96-.17,1.44-.25,0,0,0,.05,0,.05-.49,1.72,.99,3.8,2.9,4.07,0,0,.06,0,.06,0-1.03,.79-1.95,1.77-3.1,2.33-4.96,2.43-10,4.73-14.99,7.11-.69,.33-1.27,.87-1.9,1.31-.09,.18-.18,.37-.27,.55,.03,.31,.06,.63,.09,.94,.08,.1,.16,.2,.24,.3,1.26,.83,2.53,1.66,4.18,2.75-1.65,.83-2.93,1.48-4.21,2.12-.16,.07-.33,.14-.49,.21-3.69,2-7.5,2.57-11.52,.92Z"/>
  <path class="cls-8" d="M265.33,127.89c.8,4.74,.85,8.96,.26,13.19-1.01,7.15-5.93,12.17-10.85,17.15-.59,.6-2.05,1.12-2.67,.84-.65-.3-1.22-1.69-1.05-2.45,.51-2.31,1.11-4.67,2.19-6.78,3.42-6.69,7.06-13.28,10.63-19.9,.31-.57,.77-1.06,1.49-2.04Z"/>
  <path class="cls-8" d="M273.68,76.29c-7.4,2.05-14.47,4.18-21.65,5.92-4.1,.99-8.07,.19-11.59-2.55,6.98-4.12,14.29-6.91,22.33-7.4,4.1-.25,8.16,.52,10.91,4.03Z"/>
  <path class="cls-9" d="M185.76,169.76c2.4-1.1,4.61-1.96,6.66-3.08,4.29-2.35,8.74-4.26,13.66-5.13,4.27-.75,8.25-.02,12.13,1.79-8.09,7.46-25.78,11.09-32.46,6.42Z"/>
  <path class="cls-9" d="M266.51,160.65c-6.15,5.19-12.18,9.96-20.53,10.93-3.77,.44-7.31,0-10.89-2.24,.89-.47,1.46-.81,2.05-1.09,5.26-2.47,10.42-5.16,15.82-7.33,4.22-1.69,8.77-1.69,13.55-.28Z"/>
  <path class="cls-9" d="M159.91,161.48c.33,.01,.65,.03,.98,.04,2.41,.71,4.82,1.42,7.23,2.13,.04,.32,.08,.65,.12,.97-2.77,1.31-5.5,2.68-8.31,3.91-4.83,2.11-9.78,3.86-15.25,3.65-3.11-.12-5.35-.89-7.85-2.83,6.41-2.58,12.1-6.19,18.87-7.58,0,0,.21,.07,.21,.07l.2-.11c1.27-.09,2.54-.17,3.81-.26Z"/>
  <path class="cls-8" d="M275.46,68.45c8.39-.65,15.93,1.52,22.49,6.36,3.82,2.82,5.49,6.75,5.34,11.32-.3,.69-.6,1.38-.91,2.12-2.06-.12-3-1-3.46-2.97-1.25-5.31-6.18-8.59-13.1-9.09-.32-.02-.66-.09-.96-.04-2.5,.45-3.83-.58-5-2.67-1.05-1.88-2.9-3.38-4.39-5.04Z"/>
  <path class="cls-2" d="M309.22,109.99c-12.67-12.73-16.08-17.15-16.94-22.03,5.88-.19,10.75,1.49,14.14,6.11,3.53,4.82,4.74,10.02,2.8,15.91Z"/>
  <path class="cls-1" d="M286.05,154.63c2.51-4.89,6.32-8.7,10.78-11.99,.27,.07,.54,.15,.81,.22-.26,3.69-.52,7.38-.78,11.07-1.76,5.75-4.97,10.01-12.08,10.26-.97-.24-1.94-.49-3.13-.79,.98-2.15,1.87-4.1,2.76-6.05,.55-.9,1.09-1.81,1.64-2.71Z"/>
  <path class="cls-9" d="M213,168.46c6.38-3.36,12.27-7.15,19.66-7.55,3.48-.19,6.86,.06,9.69,2.43-10.71,7.75-22.58,9.89-29.35,5.12Z"/>
  <path class="cls-8" d="M274.88,116.75c.34-1.25,.33-2.74,1.07-3.72,3.49-4.61,4.98-9.54,3.52-15.12-.08-.29-.23-.64-.13-.88,1.25-2.95,2.39-5.95,3.91-8.77,.63-1.16,3.73-.41,3.89,.91,1.13,9.27,.31,18.09-7.23,25.19-.73,.69-1.58,1.28-2.43,1.86-.51,.35-1.1,.58-1.65,.87l-.96-.32Z"/>
  <path class="cls-2" d="M301.44,104.57c7.52,4.68,12.07,15.27,9.88,22.97-.46,1.63-1.64,3.07-2.88,4.5-3.74-8.91-9.3-17.2-7-27.47Z"/>
  <path class="cls-9" d="M143.69,164.08c-4.38,3.16-9.12,4.72-13.73,6.46-3.94,1.49-8.07,2.72-12.39,2.15-2.28-.3-4.45-1.27-6.68-1.93,.02-.32,.03-.63,.05-.95,2.55-.94,5.07-1.94,7.65-2.79,3.71-1.23,7.4-2.62,11.22-3.46,4.4-.97,8.91-.94,13.89,.52Z"/>
  <path class="cls-2" d="M302.88,124.31c3.91,7.23,6.14,14.16,3.01,21.72-1.15,2.78-3.28,4.55-7.07,5.12,1.2-8.93-2.43-18.22,4.06-26.85Z"/>
  <path class="cls-9" d="M163.22,168.68c.9-.4,1.73-.81,2.6-1.14,4.87-1.81,9.67-3.81,14.64-5.32,4.33-1.31,10.19-.32,13.15,1.62-10.1,7.24-25.58,10.04-30.38,4.84Z"/>
  <path class="cls-9" d="M278.53,156.78c1.48-.18,2.96-.37,4.51-.56-3.69,12.23-13.51,16.5-23.4,12.09,5.03-4.57,10.32-8.63,16.96-10.89,.64-.21,1.29-.42,1.93-.64Z"/>
  <path class="cls-8" d="M239.89,125.52c3.46,3.57,7.12,7.16,8.51,11.9,.64,2.19-.55,4.83-.82,7.27-.41,3.78-.73,7.57-1.13,11.78-.8-1.15-1.73-2.16-2.25-3.32-2.98-6.67-3.59-13.8-4.45-20.87-.26-2.15-.35-4.32-.52-6.48,.22-.09,.44-.18,.67-.28Z"/>
  <path class="cls-8" d="M241.78,106.49c-.32,.91-.63,1.82-.95,2.73-.28,.07-.57,.14-.85,.22-.56-1.23-1.66-2.5-1.58-3.69,.38-5.66-1.32-10.67-4.6-15.35-.51-.73-.51-1.9-.42-2.84,.15-1.56,.39-3.16,.92-4.63,.3-.83,1.17-1.56,1.98-2.08,.17-.11,1.46,.77,1.72,1.39,1.43,3.4,2.7,6.86,4.02,10.3-.02,.16,.04,.29,.16,.39,.15,2.34,.3,4.69,.45,7.03-.03,.19-.06,.38-.1,.57-.23,1.84-.47,3.69-.7,5.53-.09,.14-.1,.28-.04,.43Z"/>
  <path class="cls-8" d="M262.05,65.12c3.37,1.01,6.74,2.03,10.1,3.04,.38,.25,.75,.5,1.13,.75,.12,.09,.24,.19,.36,.28,2.38,1.88,4.77,3.76,5.82,6.74-2.23,.61-3.73,.31-5.35-1.39-3.47-3.66-8.29-4.11-13.14-3.52-2.86,.35-5.27,.26-7.57-1.67-1.45-1.21-3.41-1.88-5.59-3.03,1.11-.26,1.87-.45,2.64-.63,.25-.1,.51-.19,.76-.29l10.84-.29Z"/>
  <path class="cls-2" d="M304.19,87.52c.25-1.75,.5-3.51,.78-5.54,4.65,3.5,7.82,7.91,9.58,13.26,.07,.43,.14,.86,.21,1.29,.16,.8,.32,1.6,.48,2.41,0,1.42,0,2.85,0,4.27-.14,.94-.27,1.88-.41,2.82-.56,2.78-1.18,5.53-3.15,7.77-.27-.02-.54-.04-.81-.06,0-1.24-.28-2.54,.05-3.7,2.11-7.54-.15-13.95-5.75-19.42-1.05-1.03-1.39-1.86-.99-3.1Z"/>
  <path class="cls-1" d="M299.34,157.67c1.84-.43,3.68-.86,5.46-1.28-1.79,5.98-9.59,15.31-22.41,13.4-1.44-.54-2.89-1.08-4.91-1.84,1.98-.95,1.83-3.51,4.47-3.09,.62,.33,1.21,.88,1.87,.96,5.23,.59,8.9-1.95,11.74-5.61,.96-1.24,1.9-2.11,3.43-2.47,0,0,.18,.02,.18,.02l.16-.09Z"/>
  <path class="cls-9" d="M152.65,178.44c-.64,0-1.29,0-1.93,0-.29,0-.58,0-.87-.01-.82-.05-1.64-.1-2.46-.15-.51-.08-1.01-.16-1.52-.24-.17-.04-.34-.08-.5-.11-5.15-.98-10.07-2.39-14.03-6.05,2.09-1.48,3.75-1.78,6.09-.33,5.03,3.11,10.59,2.43,16,.87,1.86-.54,3.1-.33,4.52,.87,1.47,1.24,3.23,2.19,5.55,3.73-4.01,.53-7.42,.99-10.83,1.45Z"/>
  <path class="cls-2" d="M318.24,125.96c-.38,1.04-.75,2.08-1.13,3.11-2.01,3.13-4.08,6.21-8.09,7.81-.58-1.86-.5-3.02,.99-4.53,1.58-1.6,2.8-3.96,3.08-6.12,.38-2.91-.29-5.94-.5-8.92-.04-.59-.31-1.29-.08-1.77,1.28-2.63,2.68-5.21,4.05-7.83,.15,.33,.33,.71,.5,1.1,.06,.13,.11,.26,.17,.39,0,0,0,0,0,0,.34,1.21,.68,2.41,1.02,3.62,.18,3.02,.37,6.05,.55,9.07-.02,.14-.05,.29-.07,.43-.17,1.21-.33,2.42-.5,3.63Z"/>
  <path class="cls-9" d="M188.48,176.19c-.33-.14-.65-.28-.98-.41,0,0-.14-.11-.14-.11,0,0-.18,0-.18,0-.54-.25-1.07-.5-1.61-.75-1.15-.82-2.33-1.61-3.43-2.48-.31-.24-.38-.74-.56-1.12,.4-.16,.8-.48,1.19-.46,.82,.04,1.82,.02,2.43,.44,4.15,2.84,8.8,2.55,13.44,1.89,2.04-.29,3.98-1.16,6.01-1.56,.68-.13,1.64,.22,2.23,.65,1.71,1.22,3.3,2.59,5.03,3.97-7.76,2.54-15.58,2.33-23.43-.06Z"/>
  <path class="cls-2" d="M316.22,134.56c-.67,2.92-1.16,5.88-2.06,8.74-2.16,6.87-7.08,11.18-14.5,12.99-.3,.07-.55,.3-.82,.45-.32,.01-.64,.03-.97,.04-.1-.12-.24-.2-.4-.23,.29-1.01,.52-2.04,.92-3.02,.17-.41,.63-.95,1.04-1.02,6.02-1,8.44-5.06,9.04-10.06,.35-2.89,1.54-4.63,4.11-5.94,.96-.49,1.63-1.44,2.51-2.09,.21-.15,.74,.08,1.13,.13Z"/>
  <path class="cls-9" d="M180.75,172.96c1.55,1.22,3.1,2.44,4.99,3.93-2.84,.48-5.39,.9-7.95,1.33-.24,.03-.49,.07-.73,.1-6.38-.37-12.35-1.82-17.49-5.58-.44-.32-.89-.64-1.3-1-.16-.14-.23-.37-.38-.62,1.94-1.34,3.62-1.54,5.82-.2,3.92,2.4,8.39,2.08,12.83,1.5,1.27-.16,2.6,.09,3.9,.15,.11,.13,.21,.25,.32,.38Z"/>
  <path class="cls-9" d="M233.43,176.13l-.22-.07s-.2,.12-.2,.12c-4.65,.82-9.29,1.75-14.07,.83-4.46-.86-8.16-2.88-11.31-6.12,1.79-1.25,3.19-1.92,5.37-.59,4.51,2.78,9.57,2.73,14.59,1.41,1.46-.39,2.39-.21,3.45,.7,1.17,1,2.49,1.84,3.86,2.82-.32,.23-.62,.43-.92,.64-.18,.09-.36,.18-.55,.27,0,0,0-.01,0-.01Z"/>
  <path class="cls-9" d="M282.35,170.89c.58,.21,1.16,.42,2,.72-5.34,3.05-10.93,4.47-16.97,4.35-4.44-.72-8.49-2.14-11.6-6.14,1.06-.06,2.3-.48,3.15-.11,5.39,2.34,10.66,2.33,15.99-.14,.72-.33,1.79-.2,2.63-.02,1.62,.35,3.2,.88,4.79,1.34Z"/>
  <path class="cls-9" d="M118.29,177.66c-4.35-1.17-8.59-2.52-11.89-5.86,1.34-1.06,2.39-1.33,3.96-.2,4.9,3.53,10.43,3.15,15.89,1.51,2.34-.7,3.96-.56,5.76,1.09,1.39,1.27,3.28,2.07,5.28,3.27-6.37,1.28-12.45,1.23-18.55,.24-.15-.02-.31-.04-.46-.05Z"/>
  <path class="cls-9" d="M259.95,175.47c-8.66,3.03-21.12,2.36-28.76-4.97,1.27-.07,2.29-.43,2.8-.1,5.68,3.7,11.69,3.2,17.78,1.28,1.64-.52,2.75-.56,4.01,.77,1.08,1.14,2.61,1.92,4.18,3.03Z"/>
  <path class="cls-8" d="M243.66,66.66c3.81,1.28,7.67,2.46,10.93,5.25-2.25,.98-3.89,1.78-6.18,.03-3.61-2.76-8.13-2.27-12.47-1.85-1.03,.1-2.04,.35-3.37,.58-.39-1.76-.77-3.46-1.28-5.72,4.09,.48,7.85,.93,11.6,1.37,.26,.11,.51,.22,.77,.34Z"/>
  <path class="cls-12" d="M239.28,38.08c.77-.23,1.63-.32,2.29-.71,8.06-4.81,16.11-9.64,24.11-14.53,4.54-2.78,8.98-5.73,13.48-8.57,.65-.41,1.42-.64,2.14-.95-.68,.67-1.25,1.5-2.05,1.99-14,8.66-28.04,17.24-42.04,25.91-6.81,4.22-13.53,8.57-20.31,12.84-.73,.46-1.53,.81-2.3,1.2,0-.27,.01-.55,.02-.82,1.45-1.07,2.9-2.13,4.34-3.2,0,0-.02,.01-.02,.01,.31-.04,.68,0,.91-.15,6.43-4.07,12.86-8.15,19.26-12.26,.16-.1,.12-.47,.17-.72,0,0,0-.05,0-.05Z"/>
  <path class="cls-9" d="M226.28,71.45c-1.34-2.64-2.6-5.32-4.03-7.91-.85-1.54-.51-2.46,1.1-3.23,1.21-.57,2.31-1.34,4.13-2.41,1.2,4.28,2.33,8.21,3.33,12.16,.09,.34-.8,.9-1.23,1.35-.53,.06-1.06,.11-1.59,.17-.46,.03-.93,.05-1.39,.08-.02-.17-.12-.24-.31-.21Z"/>
  <path class="cls-8" d="M276.91,129.5c-.38-3.19-.8-6.23-1.05-9.28-.05-.6,.38-1.44,.89-1.85,2.23-1.78,4.56-3.43,6.79-5.08,.99,4.8-2.63,13.87-6.63,16.21Z"/>
  <path class="cls-9" d="M111.02,161.28c.02-.27,.04-.53,.06-.8,3.56-.49,7.1-1.23,10.68-1.41,2.89-.14,5.6,.94,8.27,2.74-3.22,.86-6.1,1.65-9.01,2.36-.39,.1-.89-.22-1.34-.35-2.89-.85-5.77-1.69-8.65-2.54Z"/>
  <path class="cls-8" d="M254.91,83c.16-.02,.32-.02,.47-.05,4.44-.9,5.22-.88,7.31,2.77,.95,1.65,.49,4.02,.58,6.07,0,.1-.81,.23-1.24,.35-.64-.43-1.28-.86-1.92-1.29-.1-.13-.23-.21-.4-.23-.47-.36-.95-.71-1.42-1.07-.22,.09-.44,.18-.65,.27,0,0-.02-.02-.02-.02-.32-.46-.65-.91-.97-1.37,0,0,.04,.04,.04,.04-.66-.77-1.32-1.54-1.97-2.31,0,0,.03,.04,.03,.04-.33-.31-.66-.61-.99-.92,0,0-.13,0-.13,0,.08-.45,.16-.91,.24-1.36,.35-.31,.7-.62,1.05-.93Z"/>
  <path class="cls-9" d="M213.64,157.99c2.88-.06,5.77-.13,8.65-.19,1.56,.69,3.11,1.38,5.28,2.33-2.69,.99-4.72,1.77-6.78,2.48-.33,.11-.81,.01-1.17-.11-2.73-.97-5.45-1.97-8.46-3.07,.82-.47,1.65-.95,2.48-1.43Z"/>
  <path class="cls-8" d="M248.52,114.64v2.91c-2.28-3.32-7.63-5.13-5.75-10.38,.15-.38,.29-.76,.44-1.13,.01-.37,.03-.74,.04-1.12,.03-.2,.06-.4,.09-.6,.33-.58,.66-1.16,.99-1.74,1.4,4.02,2.79,8.05,4.19,12.07Z"/>
  <path class="cls-9" d="M202.22,160.85c-2.03,.76-3.72,1.45-5.45,1.99-.51,.16-1.2-.09-1.77-.27-1.44-.46-2.83-1.06-4.29-1.45-1.46-.4-2.97-.62-4.45-.91,2.39-2.94,10.3-2.73,15.96,.65Z"/>
  <path class="cls-9" d="M152.8,160.65c-4.88,3.69-9.94,1.92-15.27,.98,4.01-3.19,10.7-3.52,15.27-.98Z"/>
  <path class="cls-2" d="M290.2,145.82c-.23-3.83,2.75-9.14,7.26-12.61,0,2.48,0,4.68,0,6.87,0,.21-.06,.51-.21,.62-2.33,1.71-4.68,3.41-7.04,5.12Z"/>
  <path class="cls-5" d="M230.63,159.46c.31-3.35,1.08-6.15,3.69-8.65,1.12,3.1,3.47,5.44,3.97,8.65h-7.66Z"/>
  <path class="cls-1" d="M282.86,154.86c-.32,.04-.64,.09-.96,.13-1.63,.35-3.25,.69-4.88,1.04-.39-.12-.78-.23-1.17-.35,2.34-3.84,6.24-5.69,10.42-7.18,.34-.06,.67-.11,1.01-.17,.28,.13,.57,.27,.85,.4-.98,1.55-1.95,3.11-2.93,4.66-.78,.49-1.56,.97-2.35,1.46Z"/>
  <path class="cls-9" d="M166.7,159.1c2.08,.01,4.15,.02,6.23,.03,1.34,.64,2.67,1.28,4.48,2.15-2.57,.92-4.64,1.76-6.79,2.37-.51,.15-1.27-.43-1.91-.69-1.52-.62-3.04-1.24-4.56-1.86-.18-.25-.36-.5-.54-.76l3.1-1.24Z"/>
  <path class="cls-8" d="M242.73,90.08c-.95-2.8-1.89-5.61-2.86-8.47,2.66,1.05,5.27,2.09,7.96,3.16-.12,.74-.28,1.69-.43,2.64,0,0-.05,.03-.05,.03-.61,.4-1.25,.76-1.81,1.21-.77,.62-1.47,1.31-2.2,1.96-.2-.18-.41-.35-.61-.53Z"/>
  <path class="cls-13" d="M299,157.74c-1.53,.36-2.47,1.24-3.43,2.47-2.85,3.65-6.52,6.2-11.74,5.61-.65-.07-1.25-.63-1.87-.96,.94-.23,1.89-.45,2.83-.68,7.11-.25,10.32-4.51,12.08-10.26-.08,.81-.23,1.62-.2,2.42,.01,.28,.47,.55,.72,.83,0,0,.04,.03,.04,.03,.52,.18,1.05,.36,1.57,.55Z"/>
  <path class="cls-2" d="M294.95,102.68s-.08,0-.08,0c.36-.28,.99-.54,1.03-.86,.13-1,.04-2.03,.03-3.05,.16-.03,.32-.06,.49-.09,2.87,2.27,4.58,4.86,2.95,8.54-.34,.76-.13,1.74-.19,2.77-.64-.46-1.04-.75-1.45-1.04,0,0-.02-.02-.02-.01-.02-.23-.04-.46-.06-.7-.46-1.62-.86-3.26-1.42-4.85-.12-.33-.84-.47-1.28-.7Z"/>
  <path class="cls-9" d="M274.47,156.58c-3.35,1.39-5.91,4.24-9.77,1.96,.76-2.97,6.6-4.43,9.77-1.96Z"/>
  <path class="cls-2" d="M298.63,127.08c-.59-3.89-.65-7.43,1.17-11,2.76,5.04,2.51,7.75-1.17,11Z"/>
  <path class="cls-8" d="M289.28,96.31c-.24-3.09-.44-5.75-.65-8.43q1.86,.1,4.85,7.23c-1.32,.38-2.63,.75-4.21,1.2Z"/>
  <path class="cls-4" d="M239.28,38.13c-.05,.25,0,.62-.17,.72-6.41,4.1-12.83,8.19-19.26,12.26-.23,.15-.6,.1-.91,.15,1.16-.99,2.33-1.99,3.49-2.98,4.84-3.05,9.66-6.12,14.52-9.15,.7-.44,1.54-.67,2.32-.99Z"/>
  <path class="cls-11" d="M248.52,114.64c-1.4-4.02-2.79-8.05-4.19-12.07,.25-.32,.5-.63,.75-.95,2.52,4.17,4.32,8.55,4.53,13.4-.36-.13-.73-.25-1.09-.38Z"/>
  <path class="cls-14" d="M286.27,148.5c-4.18,1.49-8.08,3.34-10.42,7.18-.25-.41-.49-.83-.74-1.24,2.57-3.94,6.43-6.11,11.16-7.07,0,.38,0,.75,0,1.13Z"/>
  <path class="cls-5" d="M257.31,158.11c.04-.17,.02-.34,.1-.44,1.13-1.24,2.28-2.46,3.75-4.03,.66,1.55,1.21,2.86,1.9,4.47h-5.75Z"/>
  <path class="cls-8" d="M281.77,87.77c-1.02,2.59-1.83,4.63-2.72,6.89-1.55-1.57-1.73-5.65-.46-6.45,.66-.42,1.72-.26,3.18-.43Z"/>
  <path class="cls-14" d="M264.05,95.02c-.55,.79-1.29,1.53-1.6,2.4-.47,1.32-.64,2.72-.93,4.09-.34-.14-.68-.29-1.02-.43,.55-2.27,1.09-4.54,1.64-6.82,.64,.25,1.27,.5,1.91,.75Z"/>
  <path class="cls-9" d="M230.09,82.11c1.08-.09,1.76-.14,2.87-.23-.37,1.95-.7,3.65-1.08,5.64-2.86-1.35-1.08-3.53-1.79-5.41Z"/>
  <path class="cls-12" d="M204.48,61.42c-2.8,1.91-5.59,3.84-8.43,5.69-.21,.14-.83-.28-1.26-.44,1.12-.77,2.23-1.53,3.35-2.3,0,0-.03-.05-.03-.05,1.21-.7,2.41-1.4,3.62-2.11,.87-.51,1.74-1.03,2.61-1.54,.05,.25,.1,.5,.14,.75Z"/>
  <path class="cls-13" d="M271.44,146.13c.74-2.07,1.47-4.14,2.21-6.2,.16,.77,.33,1.54,.49,2.31-.62,1.58-1.24,3.16-1.86,4.73,0,0-.18,.02-.17,.01-.11-.22-.23-.43-.35-.65-.09-.09-.2-.15-.31-.2Z"/>
  <path class="cls-4" d="M218.96,51.24c-1.45,1.07-2.9,2.13-4.34,3.2-.27-.24-.55-.49-.82-.73,1.72-.82,3.44-1.64,5.17-2.46Z"/>
  <path class="cls-14" d="M277.02,156.03c1.63-.35,3.25-.69,4.88-1.04-.63,.27-1.29,.51-1.89,.83-.52,.27-.99,.64-1.48,.97-.64,.21-1.29,.42-1.93,.64,.14-.46,.28-.93,.42-1.39Z"/>
  <path class="cls-14" d="M282.86,154.86c.78-.49,1.56-.97,2.35-1.46,.28,.41,.56,.82,.84,1.23-.55,.9-1.09,1.81-1.64,2.71-.52-.83-1.03-1.65-1.55-2.48Z"/>
  <path class="cls-13" d="M228.46,84.74c-.4-.55-.79-1.1-1.19-1.66,.17-.11,.35-.23,.52-.34,.4,.53,.81,1.06,1.21,1.59-.18,.13-.36,.27-.55,.4Z"/>
  <path class="cls-13" d="M260.11,90.84c.64,.43,1.28,.86,1.92,1.29-.53,.1-1.06,.21-1.6,.31-.13-.03-.24-.09-.32-.19,0-.47,0-.95,0-1.42Z"/>
  <path class="cls-13" d="M224.51,81.1c1.29,0,2.58,0,3.87,0-1.29,0-2.58,0-3.87,0Z"/>
  <path class="cls-13" d="M226.79,125.3c.28,.81,.56,1.63,.84,2.44-.28-.81-.56-1.63-.84-2.44Z"/>
  <path class="cls-13" d="M314.85,106.03c.14-.94,.27-1.88,.41-2.82-.14,.94-.27,1.88-.41,2.82Z"/>
  <path class="cls-13" d="M216.52,85.22c.02,.51,.03,1.03,.05,1.54-.31-.51-.62-1.03-.92-1.54,.29,0,.59,0,.88,0Z"/>
  <path class="cls-13" d="M315.25,98.94c-.16-.8-.32-1.6-.48-2.41,.16,.8,.32,1.6,.48,2.41Z"/>
  <path class="cls-14" d="M147.39,178.27c.82,.05,1.64,.1,2.46,.15-.82-.05-1.64-.1-2.46-.15Z"/>
  <path class="cls-13" d="M225.27,118.7c.09,.58,.17,1.17,.26,1.75-.09-.58-.17-1.17-.26-1.75Z"/>
  <path class="cls-14" d="M185.57,174.92c.54,.25,1.07,.5,1.61,.75-.54-.25-1.07-.5-1.61-.75Z"/>
  <path class="cls-13" d="M163.61,160.35c.18,.25,.36,.51,.54,.76-.36-.06-.72-.12-1.08-.19,.18-.19,.36-.38,.54-.57Z"/>
  <path class="cls-14" d="M112.01,162.66c-.33-.02-.65-.04-.98-.05,.33,.02,.65,.04,.98,.05Z"/>
  <path class="cls-14" d="M104.18,179.79c.65-.07,1.3-.13,1.95-.2-.65,.07-1.3,.13-1.95,.2Z"/>
  <path class="cls-13" d="M203.64,72.5c.11,.24,.23,.48,.34,.72-.56-.21-1.12-.42-1.68-.63,.45-.03,.89-.06,1.34-.09Z"/>
  <path class="cls-13" d="M270.57,148.02c.35-.33,.69-.66,1.04-1,.13,.23,.25,.46,.38,.69-.2,.37-.41,.75-.61,1.12-.27-.27-.54-.54-.81-.81Z"/>
  <path class="cls-14" d="M94.58,164.89c-.33,.27-.67,.54-1,.81,.33-.27,.67-.54,1-.81Z"/>
  <path class="cls-13" d="M207.86,76.52c.17,.13,.35,.26,.52,.39-.04,.41-.09,.83-.13,1.24-.3-.21-.6-.41-.89-.62,.17-.34,.34-.67,.51-1.01Z"/>
  <path class="cls-14" d="M268.49,153.54c.11,.18,.21,.37,.32,.55-.26,.03-.51,.06-.77,.09,.15-.21,.3-.43,.45-.64Z"/>
  <path class="cls-13" d="M254.91,83c-.35,.31-.7,.62-1.05,.93,.35-.31,.7-.62,1.05-.93Z"/>
  <path class="cls-14" d="M261.54,104.74c.03,.47,.06,.94,.09,1.41-.03-.47-.06-.94-.09-1.41Z"/>
  <path class="cls-14" d="M96.1,164.46c-.51,.14-1.02,.29-1.53,.43,.51-.14,1.02-.29,1.53-.43Z"/>
  <path class="cls-11" d="M243.72,97.68c.05,.5,.1,1,.16,1.5-.05-.5-.1-1-.16-1.5Z"/>
  <path class="cls-13" d="M273.87,139.48c.09-.44,.19-.88,.28-1.32-.09,.44-.19,.88-.28,1.32Z"/>
  <path class="cls-13" d="M227.98,71.58c.53-.06,1.06-.11,1.59-.17-.53,.06-1.06,.11-1.59,.17Z"/>
  <path class="cls-14" d="M94.56,178.87c.59,.13,1.17,.25,1.76,.38-.59-.13-1.17-.25-1.76-.38Z"/>
  <path class="cls-14" d="M145.37,177.91c.17,.04,.34,.08,.5,.11-.17-.04-.34-.08-.5-.11Z"/>
  <path class="cls-14" d="M288.13,148.74c-.28-.13-.57-.27-.85-.4,.28,.13,.57,.27,.85,.4Z"/>
  <path class="cls-13" d="M274.48,141.37c-.11,.27-.22,.55-.33,.82,.11-.27,.22-.55,.33-.82Z"/>
  <path class="cls-13" d="M231.59,72.11c-.32,.08-.63,.17-.95,.25,.32-.08,.63-.17,.95-.25Z"/>
  <path class="cls-11" d="M244.9,91.1c-.24,.17-.49,.34-.73,.5,.24-.17,.49-.34,.73-.5Z"/>
  <path class="cls-13" d="M219.55,71.48c.29,.05,.58,.1,.87,.16-.29-.05-.58-.1-.87-.16Z"/>
  <path class="cls-13" d="M207.88,68.02c-.34,.15-.67,.3-1.01,.45,.34-.15,.67-.3,1.01-.45Z"/>
  <path class="cls-11" d="M243.21,106.03c-.15,.38-.29,.75-.44,1.13,.15-.38,.29-.75,.44-1.13Z"/>
  <path class="cls-14" d="M297.31,109.82c-.12-.2-.25-.41-.37-.61l.77-.29s.01,.02,.02,.02c-.14,.29-.28,.58-.42,.88Z"/>
  <path class="cls-13" d="M317.24,109.21c-.06-.13-.11-.26-.17-.39,.11,.11,.17,.24,.17,.39Z"/>
  <path class="cls-11" d="M241.78,106.49c-.06-.15-.05-.3,.04-.43,.04,.11,.1,.21,.12,.32,0,.03-.11,.08-.16,.11Z"/>
  <path class="cls-14" d="M260.04,106.01c.04-.14,.08-.28,.11-.42-.04,.14-.08,.28-.11,.42Z"/>
  <path class="cls-13" d="M227.69,128.23c.15,.09,.18,.2,.08,.33-.05-.1-.08-.21-.08-.33Z"/>
  <path class="cls-11" d="M243.35,104.31c-.03,.2-.06,.4-.09,.6,.03-.2,.06-.4,.09-.6Z"/>
  <path class="cls-13" d="M229.23,132.94c.14,.24,.28,.48,.41,.71-.14-.24-.28-.48-.41-.71Z"/>
  <path class="cls-11" d="M244.13,100.25c.18,.03,.25,.13,.21,.3-.11-.08-.18-.18-.21-.3Z"/>
  <path class="cls-11" d="M242.53,100.52c.03-.19,.06-.38,.1-.57-.03,.19-.06,.38-.1,.57Z"/>
  <path class="cls-14" d="M296.42,98.67c-.16,.03-.32,.06-.49,.09,.16-.03,.32-.06,.49-.09Z"/>
  <path class="cls-11" d="M243.38,92.5c.05,.13,.02,.23-.09,.32-.09-.14-.06-.24,.09-.32Z"/>
  <path class="cls-11" d="M242.17,92.92c-.12-.11-.17-.24-.16-.39,.05,.13,.11,.26,.16,.39Z"/>
  <path class="cls-13" d="M274.9,140.02c-.06,.2-.12,.4-.18,.6,.06-.2,.12-.4,.18-.6Z"/>
  <path class="cls-11" d="M242.73,90.08c.2,.18,.41,.35,.61,.53-.2-.18-.41-.35-.61-.53Z"/>
  <path class="cls-11" d="M247.97,87.48c-.13,.19-.25,.39-.38,.58-.08-.21-.15-.42-.23-.62,0,0,.04-.03,.04-.03,.19,.03,.38,.05,.57,.08Z"/>
  <path class="cls-13" d="M269.91,151.38l.02,.16-.15,.09c.01-.1,.06-.18,.14-.25Z"/>
  <path class="cls-13" d="M250.89,84.12c-.15,.04-.3,.08-.45,.12,.15-.04,.3-.08,.45-.12Z"/>
  <path class="cls-13" d="M215.55,84.39c0-.27-.02-.53-.03-.8,0,.27,.02,.53,.03,.8Z"/>
  <path class="cls-13" d="M188.43,82.94c.16-.07,.33-.14,.49-.21-.16,.07-.33,.14-.49,.21Z"/>
  <path class="cls-13" d="M297.48,156.55c.16,.03,.3,.11,.4,.23-.15,.14-.3,.28-.45,.42,0,0-.04-.03-.04-.03,.03-.21,.06-.41,.09-.62Z"/>
  <path class="cls-6" d="M215.2,79.25c.07,.09,.14,.18,.21,.27-.17,0-.34,.01-.52,.02,.1-.1,.2-.19,.31-.29Z"/>
  <path class="cls-13" d="M193.35,79.26c.17,.18,.35,.36,.52,.53-.17-.18-.35-.36-.52-.53Z"/>
  <path class="cls-13" d="M188.96,77.86c-.08-.1-.16-.2-.24-.3,.13,.07,.21,.17,.24,.3Z"/>
  <path class="cls-13" d="M188.63,76.61c.09-.18,.18-.37,.27-.55-.09,.18-.18,.37-.27,.55Z"/>
  <path class="cls-13" d="M226.28,71.45c.18-.03,.29,.05,.31,.21-.13-.03-.23-.11-.31-.21Z"/>
  <path class="cls-13" d="M201.02,71.4l-.2,.06s-.2-.08-.2-.08c.13,0,.27,.01,.4,.02Z"/>
  <path class="cls-13" d="M273.65,69.2c-.12-.09-.24-.19-.36-.28,.16,.05,.28,.15,.36,.28Z"/>
  <path class="cls-13" d="M243.66,66.66c-.26-.11-.51-.22-.77-.34,.26,.11,.51,.22,.77,.34Z"/>
  <path class="cls-13" d="M251.21,65.41c-.25,.1-.51,.19-.76,.29,.25-.1,.51-.19,.76-.29Z"/>
  <path class="cls-13" d="M156.1,161.73l-.2,.11s-.21-.07-.21-.07c.13-.06,.27-.07,.41-.03Z"/>
  <path class="cls-14" d="M204.36,53.54c-.01,.14-.02,.29-.03,.43-.04-.11-.1-.21-.12-.32,0-.03,.1-.08,.16-.12Z"/>
  <path class="cls-13" d="M232.81,53.47c.24-.16,.47-.32,.71-.48-.24,.16-.47,.32-.71,.48Z"/>
  <path class="cls-14" d="M180.75,172.96c-.11-.13-.21-.25-.32-.38,.11,.13,.21,.25,.32,.38Z"/>
  <path class="cls-14" d="M233.43,176.14c.18-.09,.36-.18,.55-.27-.18,.09-.36,.18-.55,.27Z"/>
  <path class="cls-14" d="M118.29,177.66c.15,.02,.31,.04,.46,.05-.15-.02-.31-.04-.46-.05Z"/>
  <path class="cls-14" d="M177.06,178.33c.24-.03,.49-.07,.73-.1-.24,.03-.49,.07-.73,.1Z"/>
  <path class="cls-14" d="M107.57,179.34c.16-.04,.33-.08,.49-.12-.16,.04-.33,.08-.49,.12Z"/>
  <path class="cls-13" d="M243.64,46.89c-.44,.26-.88,.51-1.31,.77,.44-.26,.88-.51,1.31-.77Z"/>
  <path class="cls-13" d="M241.74,48.04c-.24,.15-.49,.3-.74,.45,.24-.15,.49-.3,.74-.45Z"/>
  <path class="cls-10" d="M194.03,66.43c-1.05,.37-2.1,.75-3.15,1.12,1.04-.87,2.08-1.73,3.12-2.6,.23,.25,.46,.49,.69,.74-.22,.25-.44,.49-.66,.74Z"/>
  <path class="cls-10" d="M194,64.95c.47-.28,.94-.56,1.41-.84,.24,.22,.49,.44,.73,.66-.48,.31-.96,.61-1.44,.92-.23-.25-.46-.49-.69-.74Z"/>
  <path class="cls-13" d="M188.79,67.09c-.11-.17-.21-.33-.32-.5,.11,.17,.21,.33,.32,.5Z"/>
  <path class="cls-13" d="M181.36,54.73c-.07-.17-.14-.33-.2-.5,.07,.17,.14,.33,.2,.5Z"/>
  <path class="cls-13" d="M180.88,53.48c-.09-.07-.14-.16-.14-.27,0,0,.17,.09,.17,.09l-.03,.18Z"/>
  <path class="cls-13" d="M180.95,35.02c.06,.21,.13,.43,.19,.64-.06-.21-.13-.43-.19-.64Z"/>
  <path class="cls-10" d="M205.21,74.28c.4,.63,.8,1.25,1.2,1.88-.52-.24-1.03-.48-1.55-.72,.01-.2,.03-.4,.04-.6,.1-.19,.2-.37,.31-.56Z"/>
  <path class="cls-10" d="M207.86,76.52c-.17,.34-.34,.67-.51,1.01-.32-.46-.64-.92-.96-1.38,.49,.12,.97,.24,1.46,.37Z"/>
  <path class="cls-10" d="M203.98,73.21c.41,.36,.82,.71,1.23,1.07-.1,.19-.2,.37-.31,.56-.26-.01-.53-.03-.79-.04-.04-.53-.09-1.06-.13-1.59Z"/>
  <path class="cls-13" d="M204.11,74.8c.26,.01,.53,.03,.79,.04-.02,.2-.03,.4-.04,.6-.25-.21-.5-.43-.74-.64Z"/>
  <path class="cls-13" d="M202.78,84.3c-.11-.03-.19-.1-.23-.2,0,0,.2,.02,.2,.02l.04,.18Z"/>
  <path class="cls-10" d="M297.43,157.2c.15-.14,.3-.28,.45-.42,.32-.01,.64-.03,.97-.04,.17,.31,.33,.62,.5,.94,0,0-.16,.09-.16,.09,0,0-.18-.02-.18-.02-.52-.18-1.05-.36-1.57-.55Z"/>
  <path class="cls-13" d="M318.75,122.33c.02-.14,.05-.29,.07-.43,.04,.11,.09,.21,.1,.32,0,.03-.11,.07-.17,.1Z"/>
  <path class="cls-4" d="M194.69,65.69c.48-.31,.96-.61,1.44-.92,.67-.14,1.34-.27,2.01-.41-1.12,.77-2.23,1.53-3.35,2.3-.26-.08-.51-.16-.77-.24,.22-.25,.44-.49,.66-.74Z"/>
  <path class="cls-10" d="M318.35,111.59v-.7c.07,0,.13,0,.2,0v.7c-.07,0-.13,0-.2,0Z"/>
  <path class="cls-4" d="M179.9,78.02c-.22-.2-.45-.39-.67-.6,.14-.12,.28-.15,.43-.07,.02-.31,.03-.62,.05-.93,.6-.64,1.2-1.29,1.8-1.93,.5-.42,1-.85,1.5-1.27,.51-.4,1.01-.8,1.52-1.2,.28-.16,.57-.33,.85-.49,.86-.57,1.73-1.13,2.59-1.7,.96-.47,1.92-.94,2.88-1.4,.01,.19,.03,.38,.04,.58-3.67,3.01-7.33,6.02-11,9.04Z"/>
  <path class="cls-3" d="M179.72,76.42c-.02,.31-.03,.62-.05,.93-.04-.31-.07-.63-.11-.94,0,0,.16,.01,.16,.01Z"/>
  <path class="cls-14" d="M294.95,102.68c.44,.23,1.16,.37,1.28,.7,.56,1.59,.96,3.23,1.42,4.85-.37,.06-.74,.12-1.1,.18-.53-1.91-1.06-3.82-1.6-5.73Z"/>
  <path class="cls-10" d="M296.54,108.41c.37-.06,.73-.12,1.1-.18,.02,.23,.04,.47,.06,.7-.25,.09-.51,.19-.77,.28-.13-.27-.26-.53-.4-.8Z"/>
  <path class="cls-13" d="M258.28,89.55c.47,.36,.95,.71,1.42,1.07-.19,.33-.38,.65-.56,.98-.56-.44-1.12-.89-1.68-1.33,.27-.24,.55-.47,.82-.71Z"/>
  <path class="cls-10" d="M254.7,86.17c.66,.77,1.32,1.54,1.97,2.31-1.63,.07-2.29-.7-1.97-2.31Z"/>
  <path class="cls-10" d="M259.14,91.59c.19-.33,.38-.65,.56-.98,.17,.02,.3,.1,.4,.23,0,.47,0,.95,0,1.42-.32-.22-.65-.45-.97-.67Z"/>
  <path class="cls-10" d="M256.64,88.43c.32,.46,.65,.91,.97,1.37-.32-.46-.65-.91-.97-1.37Z"/>
  <path class="cls-10" d="M253.75,85.29c.33,.31,.66,.61,.99,.92-.31,.04-.63,.09-.94,.13-.02-.35-.03-.7-.05-1.05Z"/>
  <path class="cls-10" d="M258.28,89.55c-.27,.24-.55,.47-.82,.71,.05-.15,.11-.29,.17-.44,.22-.09,.44-.18,.65-.27Z"/>
  <path class="cls-13" d="M271.76,147.01c-.11-.29-.22-.59-.33-.88,.12,.05,.22,.12,.31,.2,0,.23,0,.45,.01,.68Z"/>
  <path class="cls-10" d="M271.76,147.01c0-.23,0-.45-.01-.68,.12,.22,.23,.43,.35,.65,0,0-.16,.08-.16,.08l-.17-.05Z"/>
  <path class="cls-10" d="M208.83,65.29c-1.91-.27-3.4-2.35-2.9-4.07,.97,1.36,1.94,2.71,2.9,4.07Z"/>
  <path class="cls-12" d="M179.9,78.02c3.67-3.01,7.33-6.02,11-9.04,1.54,.49,.65,.87-.03,1.37-2.45,1.81-5.02,3.51-7.22,5.57-1.33,1.24-2.05,3.06-3.05,4.61,1.8,.18,3.59,.37,5.25,.54-.75,.92-3.86,1.62-5.33,.89-2.05-1.01-.92-2.56-.62-3.95Z"/>
</svg>