<?xml version="1.0" encoding="UTF-8"?>
<svg id="Layer_1" data-name="Layer 1" xmlns="http://www.w3.org/2000/svg" viewBox="0 0 414 200">
  <defs>
    <style>
      .cls-1 {
        fill: #68645c;
      }

      .cls-2 {
        fill: #eae6de;
      }

      .cls-3 {
        fill: #fff9b8;
      }

      .cls-4 {
        fill: #fff200;
      }

      .cls-5 {
        fill: #fbb040;
      }

      .cls-6 {
        fill: #746c63;
      }

      .cls-7 {
        fill: #9f9891;
      }

      .cls-8 {
        fill: #9ddcf9;
      }

      .cls-9 {
        fill: #cdbfb5;
      }

      .cls-10 {
        fill: #bbac97;
      }

      .cls-11 {
        fill: #e0d9d0;
      }

      .cls-12 {
        fill: #47423c;
      }

      .cls-13 {
        fill: #3a3535;
      }

      .cls-14 {
        fill: #787676;
      }

      .cls-15 {
        fill: #504a45;
      }
    </style>
  </defs>
  <path class="cls-12" d="M291.18,107.48c-3.24-.62-6.47-1.3-9.72-1.86-3.1-.53-3.7,2.37-4.95,4.1-.32,.44,.9,2.24,1.69,3.19,4.95,5.95,10.42,11.63,9.54,20.33,.28,2.07,.55,4.14,.85,6.42-.63-.32-.96-.49-1.3-.66-.13-.87-.26-1.75-.37-2.52-2.14,1.31-4.02,2.82-6.15,3.66-2.7,1.07-4.35,2.39-4.34,5.61,0,1.84-.62,3.83-1.48,5.48-2.81,5.44-7.03,9.4-14.34,7.77-2.01-.45-3.25-.01-4.32,1.88,3.76,2.26,7.65,3.78,11.95,3.07,8.48-1.42,18.25-7.95,19.19-19.73,.26-.53,.52-1.06,.77-1.6,.19,.04,.38,.08,.57,.12-.24,2.34-.49,4.67-.73,7.01-.11,.26-.22,.52-.32,.77-.16,.43-.32,.87-.48,1.3-1.41,4.86-5.33,7.49-9.04,10.35-1.9,1.47-3.79,2.99-5.51,4.67-2.44,2.39-4.89,4.65-8.51,4.93-.74,.35-1.49,.69-2.23,1.04-.21,.04-.42,.08-.62,.12-.36,.14-.72,.27-1.08,.41-1.01,.14-2.01,.28-3.02,.42-.53,.11-1.06,.21-1.59,.32-.49,.04-.98,.07-1.47,.11-.25,.05-.51,.09-.76,.14-3.49,0-6.98,0-10.46,0-1.29-.14-2.58-.27-3.87-.41-1.16-.12-2.32-.24-3.48-.36-.71-.14-1.43-.29-2.14-.43,0,0-.19,0-.19,0,0-.45,.02-.89,.03-1.34,1.38,.17,2.77,.34,4.15,.5l.22,.08s.23,0,.23,0c5.43,.11,10.87,.59,16.27,.25,6.25-.39,12.27-1.93,17.05-6.93-.53-.13-.79-.27-1.02-.23-5.22,.98-9.96-.2-14.46-2.92-.77-.46-2.25-.37-3.12,.06-9.61,4.7-19.29,5.35-29.25,1.13-1.07-.45-2.63,.27-3.96,.45-.07,.43-.14,.86-.21,1.29,4.32,2.03,8.63,4.05,12.95,6.08-.37,.44-.74,.88-1.11,1.32-.59,0-1.19,.01-1.78,.02-.95,.24-1.9,.48-2.85,.72-.25,.03-.49,.07-.74,.1-.71,.15-1.41,.3-2.12,.46-1.77,.24-3.54,.47-5.3,.71-1.28,.13-2.56,.25-3.84,.38-1.91,0-3.83,0-5.74,0-.55-.05-1.11-.1-1.66-.14-.62-.07-1.24-.14-1.86-.2-.26-.03-.51-.07-.77-.1-1.59-.23-3.2-.37-4.77-.69-3.05-.63-5.95-1.21-9.22-.61-8.75,1.6-17.57,1.91-26.36-.29-1.37-.34-3.01,.08-4.47,.39-8.07,1.71-16.16,2.36-24.33,.74-1.17-.24-2.33-.49-3.5-.73-.71-.17-1.42-.34-2.13-.51-1.55-.92-3.1-2.38-4.6,.06-.03,.15-.12,.21-.27,.18-.33-.35-.66-.7-.99-1.05-.31-.65-.46-1.5-.96-1.91-1.72-1.44-3.51-2.82-5.39-4.03-1.01-.65-2.35-1.44-3.4-1.27-7.44,1.19-14.52-.06-21.56-2.44-1.86-.63-4.1-.09-6.16-.09l-.23,.91c.74,.65,1.47,1.33,2.23,1.96,3.75,3.11,8.01,5.18,12.77,6.22-.84,.15-1.67,.36-2.51,.43-1.27,.12-2.56,.14-3.83,.21-2.65,.83-5.29,1.66-7.94,2.48-2.32,.13-4.63,.26-6.95,.39-3.26-.53-6.52-1.07-9.79-1.6-.61-.17-1.23-.34-1.84-.51-.73-.25-1.45-.49-2.18-.74-.44-.13-.88-.26-1.32-.39-.85,.17-1.7,.34-2.54,.51-1.19,.24-2.38,.48-3.56,.71-.58,.11-1.17,.21-1.75,.32-.76,.12-1.53,.24-2.29,.36-.18-.12-.35-.11-.51,.02-1.16,.14-2.31,.28-3.47,.42-.98-.08-1.97-.16-2.95-.24-.05-.31-.1-.62-.15-.94,2.07-.36,4.14-.75,6.21-1.09,2.25-.37,4.51-.7,6.77-1.04-1-1.47-2.11-2.13-3.15-2.9-1.14-.84-2.23-1.74-3.29-2.68-1.49-1.31-3.02-1.64-4.9-.77-.41,.19-1.21-.46-1.84-.72,0,0-.1-.12-.1-.12,0,0,.09,.13,.09,.13,2.09-.87,4.19-1.72,6.27-2.63,4.73-2.06,9.45-4.14,14.17-6.21-.02-.32-.05-.64-.07-.96-1.93-.58-3.84-1.51-5.8-1.65-3.86-.27-7.76-.04-11.64-.14-1.05-.03-3.37,1.28-2.47-1.73,1.82-.64,3.65-1.29,5.47-1.93,.57,.61,1.13,1.22,1.7,1.82,3.1,.28,6.23,.38,9.29,.9,2.19,.37,4.31,1.89,6.43,1.82,2.43-.08,4.82-1.36,7.89-2.32-8.01-4.8-15.75-4.44-23.66-1.94-.52-.12-1.04-.25-1.55-.37-.06-.15-.12-.3-.18-.46,.5-.18,1-.37,1.49-.55,.92-.35,1.83-.71,2.75-1.06,.18-.02,.37-.05,.55-.07,5.44-1.5,10.84-1.18,16.21,.41,.19,.09,.37,.18,.56,.26,1.48,.74,2.89,1.68,4.45,2.18,1.43,.46,3.01,.44,4.52,.64,.21-.02,.42-.05,.63-.07,9.44-9.38,19.8-7.78,30.8-2.61,1.9-5.88,7.08-6.91,12.38-8.12,1.47-.33,2.91-2.18,3.77-3.68,5.6-9.78,12.71-18.15,21.94-24.67,3.7-2.62,7.49-5.18,10.77-8.27,1.03-.97,.53-3.58,.73-5.44-.06-3.43-.21-6.87-.12-10.29,.02-.69,.9-1.36,1.39-2.03,.22,5.23,.44,10.45,.69,16.27,1.95-.89,3.24-1.83,4.64-2.05,6.16-.97,7.52-4.9,6.63-10.32-.3-1.81-.74-3.59-1.11-5.39,.15-.15,.31-.31,.46-.46,3.92,.64,7.83,1.29,11.75,1.91,2.13,.34,4.99,1.61,6.24,.69,2.18-1.6,4.53-3.92,4.33-7.32,.02-.27,.04-.54,.07-.81,.45-.15,.91-.3,1.36-.45,.01-.25,.02-.51,.03-.76-5.65-1.02-11.31-2.05-16.96-3.07-.77-.09-1.53-.19-2.3-.28-1.87-.27-3.75-.54-5.63-.81-.64-.02-1.29-.05-1.93-.07-2.11-.53-4.21-1.06-6.32-1.59-2.41-.65-4.79-1.46-7.25-1.85-.71-.11-1.61,.96-2.43,1.49-.71-.03-1.42-.05-2.13-.08-.22,.11-.44,.22-.66,.33-2.02,1.13-4.04,2.25-6.05,3.38,.07,.28,.15,.55,.22,.83,2.69,.71,5.38,1.42,8.07,2.13,2.24,.93,4.48,1.85,6.73,2.78-.05,.23-.11,.46-.16,.69-1.78-.25-3.56-.5-5.35-.75-3.96-1.27-7.9-2.61-11.89-3.76-.82-.24-1.9,.04-2.75,.37-5.02,1.92-9.64,1.88-13.54-2.44-.32-.36-.98-.41-1.52-.62-.28,4.15-1.07,4.62-4.93,3.38-4.97-1.6-9.77-3.39-13.53-7.32-1.98-2.07-2.36-3.48-.69-5.83,.51,.32,1.02,.64,1.53,.96,.15,1.06-.08,2.48,.51,3.12,1.58,1.7,3.35,3.4,5.36,4.5,2.98,1.63,6.1,3.23,10.08,3.16-.35-1.3-.54-2.22-.84-3.1-.96-2.73-.49-3.4,2.46-3.34,.66,.01,1.33,.09,1.98,.19,3.33,.5,5.51-1.52,7.73-3.48,.52-.06,1.05-.13,1.57-.19,.23,.43,.45,.87,.68,1.3-3.01,1.74-6.01,3.49-9.09,5.28,.91,2.85,4.93,4.87,8.68,3.61,3.48-1.17,6.82-2.79,10.16-4.35,2.74-1.28,5.33-2.88,8.08-4.14,2.75-1.27,4.99-1.32,7.97,.84,2.77,2.01,7.03,1.97,10.74,2.85-.27-7.99-7.83-14.96-15.72-12.54-5.12,1.57-10.06,3.73-15.08,5.62-.73-.2-1.45-.4-2.18-.6,4.72-2.11,9.31-4.64,14.2-6.21,6.21-2,12.43-1.37,16.97,3.89,2.03,2.35,2.85,5.74,4.34,8.59,.43,.81,1.18,1.84,1.96,2.02,5.12,1.18,10.39,1.81,15.41,3.3,3.97,1.17,6.52-.51,9.26-2.75,7.19-5.86,15.13-5.5,23.32-2.62-.67,.29-1.34,.58-2.01,.87-1.5-.27-3.01-.84-4.49-.76-3.75,.19-7.82-.17-11.15,1.2-7.92,3.26-12.39,10.29-15.93,17.69-1.97,4.13-2.94,8.75-4.41,13.13-.41,1.24-1.03,2.41-1.51,3.63-1.42,3.63-2.82,7.28-4.23,10.92,.25,.1,.41,.21,.59,.23,.18,.02,.39-.02,.55-.11,7.14-4.07,13.69-8.64,17.21-16.62,1.88-4.26,4.58-8.16,6.9-12.22,.31,.02,.61,.05,.92,.07-.06,.25-.13,.51-.19,.76-.05,.32-.1,.64-.15,.96,.36,.35,.67,.93,1.08,1.03,2.85,.63,5.73,1.11,8.58,1.73,6.12,1.34,12.23,2.74,18.34,4.11,.32,.1,.65,.2,.97,.3,1.37,.21,2.73,.57,4.1,.6,1.4,.04,2.81-.24,4.21-.37l1.11,1.22c-2.75,7.07-1.43,10.06,7.16,15.56,1.17-2.13,2.41-4.19,3.47-6.34,2.49-5.07,4.78-10.24,7.39-15.24,1.11-2.13,2.73-3.32,5.55-1.67,1.94,1.13,4.5,1.2,6.78,1.74,.29-.2,.58-.39,.87-.59-.59-2.09-.79-4.41-1.86-6.21-2.38-4.01-9.72-6.83-15.21-4.29-5.63,2.61-8.81,7.43-11.74,12.54-.29-.3-.58-.6-.87-.9,.12-.87,.25-1.74,.34-2.42-.92-.35-1.73-.65-2.53-.95,0-.15,0-.29-.02-.44,1.24-.09,2.47-.18,3.71-.27-.45-.69-.93-.83-1.41-.95-3.63-.85-7.26-1.69-10.89-2.53,.19-.31,.39-.61,.58-.92,3.63,.67,7.28,1.25,10.89,2.04,1.72,.38,2.82-.02,3.95-1.38,5.52-6.71,14.19-8.79,21.73-3.6,2,1.37,3.26,3.82,4.86,5.78,.13,.39,.27,.78,.4,1.17,.07,1.33,.14,2.66,.21,3.99-1.28,.55-2.52,1.36-3.86,1.58-1.11,.19-2.34-.31-3.52-.5-.42-.23-1.11-.74-1.21-.64-1.3,1.26-3.55-2.29-4.39,.89-3.21,.55-3.85,3.25-4.52,5.74-.16,.61,.77,1.51,1.2,2.28,7.17,1.59,14.35,3.14,21.5,4.85,.8,.19,1.38,1.31,2.06,1.99Zm-45.02,17.91c-.23,.04-.46,.07-.69,.11,.09,.15,.18,.31,.26,.47,.36,1.5,.72,3,1.12,4.71,3.03-2.75,2.79-3.9-.69-5.28Zm-72.2,10.44c8.48-.82,20.96-7.73,21.36-11.56-3.83,0-7.7-.04-11.58,.03-.89,.02-2.16,.09-2.59,.64-2.62,3.43-5.05,7-7.55,10.53-.11,.13-.23,.27-.34,.4,.23-.02,.46-.03,.69-.04Zm26.19,8.55c-2.8,1.08-5.76,1.94-7.62,4.83,3.99,.84,7.84,1.05,11.15,2.49,5.91,2.57,9.97-1.66,15.53-2.87-5.87-4.86-11.9-5.72-18.41-4.57-.22,.04-.43,.08-.65,.12Zm44.59-46.72c-.19-.03-.37-.06-.56-.1-.39-.03-.78-.05-1.18-.08-.55-.14-1.09-.29-1.64-.43-.97-.18-1.94-.37-2.92-.55-.19-.03-.38-.05-.57-.08-1.76-.34-3.55-.61-5.29-1.05-1.44-.37-2.22-.09-3.25,1.24-2.62,3.38-5.63,6.44-8.63,9.8,2.78,1.59,5.69,3.29,8.62,4.93,2.55,1.43,3.98,1.15,5.03-1.44,1.81-4.47,5.41-6.48,9.63-7.97,1.51-.53,2.82-1.65,4.64-2.77-1.8-.69-2.85-1.09-3.9-1.49ZM86.46,173.44c.24-.08,.47-.15,.71-.23,.86-.13,1.73-.25,2.59-.38,.49-.25,.98-.49,1.47-.74,.61-.29,1.22-.59,1.88-.91-2.95-2.35-5.6-4.58-8.4-6.61-.75-.54-2-.77-2.93-.62-8.47,1.4-16.84,1.73-25.04-1.49-.56-.22-1.35,.12-2.03,.2l-.34,.82c2.4,1.71,4.66,3.7,7.24,5.09,7.75,4.19,16.16,5.35,24.85,4.86Zm171.71-20.07c0-.27,0-.54,0-.81-.63-.48-1.25-1.35-1.9-1.38-2.5-.11-5.01,.04-7.52,.1-.25,.08-.51,.17-.76,.25-.91,.2-1.91,.23-2.73,.63-4.98,2.45-9.92,4.98-14.88,7.47-1.61,.81-3.25,1.56-4.88,2.34l.11,.96c2.74,.61,5.45,1.47,8.23,1.79,8.15,.95,15.32-1.96,22.04-6.19,1.8-1.13,2.78-2.87,2.28-5.15Zm-91.42-9.82c.34,.19,.49,.35,.64,.34,.76-.05,1.51-.16,2.27-.23,6.31-.54,12.5-.02,17.65,4,1.91,1.49,2.99,1.31,4.18-.18,5.69-7.11,22.69-6.94,28.31-.23,.46,.55,1.49,.6,2.26,.89-.16-.29-.33-.58-.49-.87,1.36-2.24,2.79-4.44,4.04-6.74,.6-1.1,1.25-2.39,1.21-3.57-.12-3.42-.49-6.84-.96-10.23-.11-.78-.84-1.78-1.55-2.11-4.67-2.18-9.39-4.25-14.13-6.24-.76-.32-1.9-.43-2.6-.1-4.64,2.24-9.53,4.2-12.01,9.28-.16,.33-.46,.62-.75,.86-5.73,4.6-12.12,7.91-19.4,8.93-4.18,.59-6.44,3.13-8.67,6.2Zm14.4-45.81c-.79-.04-1.26-.12-1.72-.07-.46,.05-.92,.22-1.36,.38-6.24,2.27-12.38,4.8-17.51,9.14-6.19,5.24-12.56,10.33-18.24,16.1-3.79,3.84-6.83,8.55-9.57,13.25-1.65,2.83-3.29,5.86-3.86,9.31-.5,3.04,1.34,3.93,3.48,4.53,2.1,.59,3.71-.03,4.24-2.51,.25-1.16,.92-2.23,1.38-3.35,1.84-4.49,5-7.99,8.45-11.25,4.68-4.4,9.03-9.28,14.21-12.98,8.4-6,14.31-14.04,20.5-22.56Zm10.11-1.19c-3.62-.32-7.42,.89-9.21,3.27-4.99,6.64-10.29,13.1-14.69,20.12-4.59,7.32-8.16,15.27-12.43,22.81-1.28,2.26-.05,3.43,1.09,4.73,1.39,1.6,2.51,.17,3.63-.62,1-.71,2.16-1.27,2.95-2.17,4.65-5.3,9.59-10.4,13.71-16.09,5.48-7.58,9.37-16.13,12.7-24.89,.86-2.27,1.47-4.64,2.26-7.15Zm54.94,6.46c-1.14,.36-2.04,.61-2.92,.94-8.33,3.14-7.72,8.77-3.98,13.57,2.12,2.71,5.29,4.96,8.44,6.44,9.15,4.29,18.53,8.08,27.84,12.08,1.94-3.26,1.92-7.05-.8-9.55-2.53-2.32-5.42-4.35-8.43-5.98-8-4.35-16.13-8.44-20.15-17.5Zm-11.96,10.3c-2.94,2.32-3.81,6.01-5.37,9.43-1.93,4.24-1.75,8.51-.49,12.44,1.75,5.49,5.36,10.04,9.79,13.87,3.36,2.9,6.35,2.12,7.58-2.21,1.57-5.53,.44-11.02-.63-16.44-.72-3.63-2.53-6.7-5.37-9.36-2.2-2.07-3.62-4.98-5.52-7.72Zm-51.64,8.91c.63,.18,1.23,.45,1.86,.53,8.37,1,16.06-1.73,22.44-6.43,6.78-4.98,12.43-11.51,18.47-17.47,1.11-1.1,1.71-2.72,2.71-4.38-3.92-.81-7.15-1.62-10.43-2.06-.94-.13-2.29,.58-3.01,1.33-2.62,2.7-5.01,5.62-7.58,8.37-1.02,1.09-2.32,1.89-3.44,2.89-3.29,2.92-6.52,5.89-9.83,8.79-3.49,3.06-8.88,3.57-11.2,8.44Zm56.69,30.93c-6.62-2.99-12.72-4.49-18.79-2.7-6.86,2.03-13.43,5.06-20.1,7.73-2.93,1.18-5.78,2.56-9.35,4.15,7.97,3.25,15.38,4.33,22.89,1.88,5.37-1.75,10.54-4.12,15.74-6.36,3.01-1.3,5.9-2.87,9.62-4.7Zm-114.89,9.1c4.4,.87,8.77,1.9,13.2,2.56,9.44,1.42,19.25-4.73,31.12-10.46-4.11-.99-7.66-2.39-11.28-2.62-12.09-.76-22.72,3.87-33.03,10.51Zm80.46-8.41c-.52-.23-.76-.35-1.01-.44-.54-.18-1.09-.32-1.64-.49-11.38-3.61-22.15-1.51-32.65,3.41-3.36,1.57-6.77,3.03-10.44,4.66,11.97,5.06,35.32,1.37,45.74-7.15Zm-145.48,7.32c7.57,4.91,36.38,.24,42.88-6.94-8.91-5.84-32.13-2.08-42.88,6.94Zm33.91-.05c7.34,2.41,14.7,4.18,22.06,1.71,6.98-2.34,13.63-5.66,20.42-8.54-15.61-5.93-29.02-.22-42.48,6.83Zm166.57-3.79c3.99,.47,7.33,.78,9.65-2.09,1.66-2.06,2.89-4.51,4.07-6.9,3.32-6.7,2.27-9.83-4.18-13.11-.42-.22-.83-.47-1.26-.68-3.28-1.63-5.71-.55-6.18,3.08-.83,6.42-1.39,12.88-2.1,19.71Zm-107.06,6.86c7.24,8.84,22.7,10.45,38.09,7.28-2.08-1.75-4.06-3.65-6.29-5.19-1.18-.82-2.84-1.49-4.22-1.38-7.19,.56-14.35,.53-21.17-1.92-2.63-.94-4.31-.25-6.41,1.22Zm6.73,7.57c-3.03-2.17-5.42-4-7.95-5.6-.83-.53-2.15-.87-3.05-.61-8.39,2.39-16.43,.81-24.31-2.08-2.34-.86-4.25-.79-6.15,.64,5.12,5.99,11.95,7.85,19.17,8.87,7.34,1.03,14.58,.59,22.3-1.2Zm66.85-.22c-3.04-1.91-6.03-3.85-9.1-5.66-.56-.33-1.5-.35-2.16-.16-8.84,2.64-17.31,1.3-25.68-2.06-1.17-.47-2.69-.06-4.58-.06,7.37,9.29,31.03,13.48,41.52,7.94Zm-63.79-47.94c-1.73,.93-2.9,1.32-3.79,2.06-4.78,3.95-9.8,7.69-14.13,12.11-2.68,2.73-5.37,5.92-5.75,10.19-.31,3.45,.9,4.01,4.21,3.16,3.45-.89,4.32-4.06,6.48-6.04,2.47-2.25,5-4.65,5.78-8.23,.19-.86,.92-1.6,1.36-2.42,1.82-3.36,3.62-6.72,5.83-10.83Zm114.03,15.62c.32,.33,.64,.66,.95,1,2.33-1.62,4.72-3.16,6.98-4.88,2.27-1.72,1.8-4.2,1.35-6.53-.17-.88-.86-1.64-1.14-2.51-1.71-5.3-5.4-9.23-9.08-13.14-.36-.39-1.61-.53-1.97-.22-2.1,1.81-4.05,3.79-6.18,5.84,2.53,1.72,4.57,3.06,6.57,4.46,5.1,3.6,6.13,8.31,3.1,13.65-.38,.67-.4,1.55-.59,2.33Zm-30.43,10.55c3.49-.37,6.25-.08,8.14-2.81,1.58-2.3,4.07-4.16,5.04-6.65,.98-2.53,1.08-5.7,.58-8.39-.21-1.11-3.01-1.74-4.65-2.55-.84-.41-1.79-.64-2.6-1.1-1.3-.75-2.24-.51-2.59,.94-.64,2.66-1.66,5.36-1.6,8.03,.08,4.16,.77,8.29-2.31,12.52Zm-35.98-33.6c1.23,.86,1.98,1.59,2.87,1.99,3.2,1.41,6.5,2.6,9.66,4.08,2.54,1.18,3.94,.77,4.64-2.13,.34-1.4,1.54-2.58,1.99-3.98,.27-.84,.2-2.46-.31-2.78-2.86-1.83-5.88-3.42-8.9-4.98-.5-.26-1.54-.17-1.94,.19-2.63,2.38-5.15,4.87-8.01,7.61Zm49.47-2.15c4.46,4.32,5.47,4.34,10.12,.15,.21-.19,.5-.29,.67-.5,2.29-2.77,4.57-5.56,7.28-8.88-4.48-.97-8.05-1.78-11.64-2.47-.39-.08-1.12,.37-1.31,.76-1.75,3.62-3.42,7.27-5.13,10.95Zm-74.23,35.08c-4.54-5.7-22.22-5.09-25.79,.96,3.39,1.11,6.77,2.3,10.21,3.29,.92,.27,2.08,.15,3.02-.14,4.15-1.28,8.26-2.68,12.57-4.1Zm-71.36,1.5c-3.79-7.07-21.11-7.76-26.83-.94,1.23,0,2.16-.12,3.04,.02,3.56,.57,7.53,.41,10.55,2.02,5.03,2.69,8.85,0,13.23-1.1Zm79.97-63.17c-4.73-1-9.03-1.91-13.96-2.96,0,3.57-.05,6.86,.06,10.14,.02,.47,.73,1.01,1.23,1.34,.99,.64,10.31-1.42,10.98-2.36,.11-.15,.16-.35,.21-.53,.46-1.73,.92-3.47,1.49-5.63Zm-66.06,54.09c-5.25-1.59-11.84,3.42-10.83,8.22h9.67c.4-2.86,.76-5.42,1.16-8.22Zm107.12,7.61c-1.95-2.64-3.82-5.22-5.79-7.73-.3-.38-1.48-.66-1.56-.54-1.3,2-2.5,4.07-3.63,6.17-.02,.03,1.06,.9,1.68,.99,3.07,.44,6.17,.75,9.3,1.11Zm-83.38-3.86c-1.43,1.67-2.37,2.78-3.58,4.2h7.24c-1.53-1.75-2.51-2.88-3.66-4.2Zm61.93-53.29c-2.54-1.24-5.71,1.89-5.74,6.4,2.17-2.42,3.95-4.41,5.74-6.4Zm41.06,57.6c1.53-.14,2.88,.08,3.16-.37,.53-.86,.47-2.1,.65-3.18-.23-.07-.45-.13-.68-.2-.88,1.06-1.77,2.12-3.12,3.75Z"/>
  <path class="cls-3" d="M291.18,107.48c-.68-.69-1.26-1.8-2.06-1.99-7.14-1.71-14.33-3.26-21.5-4.85-.2-1.83,.57-2.36,2.42-2.48,5.39-.33,10.89,1.15,16.19-1.01,.7-.28,1.75,.45,2.64,.48,.94,.03,1.89-.2,2.84-.32,4.8,.89,9.59,1.79,14.39,2.68,2.48,.17,4.96,.35,7.44,.52,.56,.53,1.13,1.07,1.69,1.6,.55,0,1.11,.02,1.66,.03,2.51,.55,5.01,1.09,7.52,1.64,.55,.09,1.11,.19,1.66,.28,.77,.18,1.54,.36,2.31,.55,2.8,.59,5.59,1.19,8.39,1.78,2.75,.54,5.49,1.08,8.24,1.62,1.36-.03,2.72-.06,4.08-.09l1.05-.02c.7,.24,1.38,.62,2.09,.7,3.3,.41,6.62,.73,9.93,1.09-.82,3.35-1.64,6.7-2.46,10.05-19.99-4.04-39.99-8.09-60.33-12.2,.3,.91,.47,1.42,.64,1.93-2.95-.66-5.9-1.32-8.85-1.98Z"/>
  <path class="cls-5" d="M120.82,12.24c2.42,.38,4.84,.75,7.27,1.13-.18,15.91-.91,31.88,4.7,47.24-5.7,.79-7.47-.38-8.61-5.24-.39-1.66-1.04-3.25-1.57-4.88,0-1.96,.18-3.94-.05-5.87-.12-1.08-.9-2.08-1.38-3.12-.02-.63-.04-1.27-.06-1.9-.1-9.12-.2-18.24-.31-27.36Z"/>
  <path class="cls-13" d="M292.29,91.33c5.46-1.26,10.22-3.99,14.46-7.51,2.46-2.04,4.45-4.66,6.77-7.15-1.97-1.38-3.48-2.44-5.5-3.86,4.64-2.79,8.96-5.42,13.35-7.95,.26-.15,1.5,.62,1.49,.94-.12,4.47-.38,8.93-.63,13.95-1.97-.8-3.5-1.42-5.44-2.21-5.3,6.95-12.14,12.27-20.54,15.42-2.46,.77-4.93,1.53-7.39,2.3-6.61,1.4-13.23,2.75-20.18,2.13-.06-2.45,1.26-2.39,2.78-2.54,5.05-.5,10.08-1.19,15.11-1.81,.38-.06,.76-.12,1.13-.18,.38-.16,.76-.33,1.14-.49,.39-.05,.79-.1,1.18-.16,.24-.08,.48-.16,.72-.24,.17,.07,.31,.03,.42-.13,.38-.18,.77-.35,1.15-.53Z"/>
  <path class="cls-13" d="M162.26,83.84c-11.36,1.76-22.72,3.53-34.07,5.29-.38,.06-.83,.28-1.11,.15-.71-.33-1.34-.83-2.01-1.26,.56-.45,1.06-1.21,1.67-1.3,9.76-1.54,19.53-2.99,29.3-4.49,1.87-.29,3.72-.69,5.58-1.04,6.31-.77,12.61-1.69,18.93-2.25,5.5-.49,10.91,.31,16.19,2.67-1.11,.66-2.28,.99-3.44,.94-5.57-.25-11.15-.6-16.72-.91-4.78,.73-9.55,1.47-14.33,2.2Z"/>
  <path class="cls-13" d="M122.61,50.49c.53,1.62,1.18,3.22,1.57,4.88,1.14,4.86,2.91,6.03,8.61,5.24-5.61-15.36-4.88-31.33-4.7-47.24,.5,.6,1.42,1.19,1.45,1.8,.3,7.81,.32,15.64,.75,23.45,.23,4.15,.92,8.31,1.76,12.39,.62,3.05,1.59,6.08,2.85,8.92,.48,1.09,2.2,1.62,3.36,2.4,.21,.06,.43,.12,.64,.18,1.91,.02,3.81,.04,5.72,.06,.73,.2,1.45,.4,2.18,.6-.79,.37-1.58,.74-2.37,1.1-.18,.04-.33,.13-.45,.28-.97,.48-1.95,.97-2.92,1.45-.23-.43-.45-.87-.68-1.3-4.17-.89-8.34-1.78-12.51-2.67-3.4-.19-6.81-.38-10.21-.57-.8,.19-1.59,.39-2.39,.58-1.25,.6-2.5,1.19-3.76,1.79-.51-.32-1.02-.64-1.53-.96,3.75-3.27,8.46-2.68,12.92-3.01-.83-4.6-1.62-9.01-2.42-13.41-.04-.38-.07-.76-.11-1.14l-.38-4.63c.38-.36,.76-.73,1.13-1.09,.02,.63,.04,1.27,.06,1.9,.13,2.27,.18,4.55,.43,6.8,.08,.76,.65,1.46,.99,2.19Z"/>
  <path class="cls-8" d="M47.69,150.54c-.91,3.01,1.42,1.7,2.47,1.73,3.88,.11,7.78-.13,11.64,.14,1.96,.14,3.87,1.07,5.8,1.65,.02,.32,.05,.64,.07,.96-4.72,2.07-9.44,4.15-14.17,6.21-2.08,.9-4.18,1.75-6.27,2.63-.97-3.32-2.22-6.63-.42-10.09,.12-.24-.32-.78-.51-1.18-.72-1.49-.2-2.13,1.38-2.06Z"/>
  <path class="cls-3" d="M176.59,81.64c5.57,.31,11.14,.67,16.72,.91,1.16,.05,2.33-.28,3.44-.94-5.28-2.36-10.69-3.16-16.19-2.67-6.33,.56-12.62,1.49-18.93,2.25-.93-.69-1.86-1.39-2.79-2.08,1.78,.25,3.56,.5,5.35,.75,.05-.23,.11-.46,.16-.69-2.24-.93-4.48-1.85-6.73-2.78,2.17,.38,4.34,.99,6.53,1.08,4.46,.17,8.93,.15,13.38,0,1.71-.06,3.45-1.15,5.09-.98,3.35,.35,6.64,1.31,9.98,1.82,.71,.11,1.54-.59,2.31-.91,1.53,.21,3.07,.42,4.6,.63,.2,3.4-2.15,5.71-4.33,7.32-1.24,.91-4.11-.36-6.24-.69-3.92-.62-7.83-1.27-11.75-1.91-.2-.37-.41-.73-.61-1.1Z"/>
  <path class="cls-15" d="M300.02,109.46c-.17-.51-.34-1.02-.64-1.93,20.34,4.11,40.33,8.16,60.33,12.2-1.79,1.3-3.65,1.65-5.91,1.13-9.6-2.23-19.23-4.33-28.88-6.37-8.28-1.75-16.6-3.36-24.9-5.03Z"/>
  <path class="cls-12" d="M316.9,102.14c-.55,0-1.11-.02-1.66-.03-.43-.88-.87-1.76-1.3-2.64-6.17-1.22-12.33-2.44-18.49-3.71-.29-.06-.49-.59-.73-.91,1.11-.07,2.23-.15,3.34-.22,.37,.06,.74,.11,1.11,.17,.59,.13,1.17,.26,1.76,.39,12.29,2.54,24.58,5.07,36.86,7.64,5.1,1.07,10.18,2.24,15.27,3.36-.97,.56-1.94,1.13-2.91,1.69-.35,0-.7,.02-1.05,.02-.77-2.74-3.04-1.3-4.66-1.68h0c-1.25,.02-2.51,.03-3.76,.03l-.04-.22s-.21-.07-.21-.08c-.39-.45-.77-.89-1.16-1.33-.77-.05-1.54-.1-2.31-.14-2.1-.55-4.17-1.24-6.29-1.6-1.49-.26-3.05-.08-4.58-.1,0,.42-.01,.85-.02,1.27-.55-.09-1.11-.19-1.66-.28-.34-.69-.52-1.74-1.06-2-1.3-.63-2.82-.77-4.16-1.33-1.85-.77-2.14,.31-2.29,1.7Z"/>
  <path class="cls-8" d="M47.25,163.85c.62,.26,1.42,.91,1.84,.72,1.87-.87,3.41-.55,4.9,.77,1.06,.94,2.16,1.84,3.29,2.68,1.04,.77,2.15,1.43,3.15,2.9-2.26,.35-4.52,.67-6.77,1.04-2.07,.34-4.14,.72-6.21,1.09,.05,.31,.1,.62,.15,.94,.98,.08,1.97,.16,2.95,.24-1.67,1.97-3.87,1.04-4.13-.5-.54-3.14-.06-6.46,.04-9.71,0-.06,.52-.11,.8-.16Z"/>
  <path class="cls-13" d="M241.88,83.29c-.19,.31-.39,.61-.58,.92-.19,.08-.39,.15-.58,.23-.76-.06-1.51-.11-2.27-.17-2.48-.55-4.97-1.09-7.45-1.64-2.65-.57-5.3-1.14-7.95-1.72-.34-.09-.67-.18-1.01-.26-1.32-.43-2.99-1.96-3.2,1.04-.95,.51-1.89,1.03-2.84,1.54-.43-.23-.85-.46-1.28-.7,1.57-1.6,3.02-3.35,4.77-4.71,.62-.48,2.33-.42,2.92,.1,3.62,3.19,8.28,2.1,12.27,3.86,.83-5.43,.19-7.41-3.09-10.44-.37-.24-.73-.49-1.1-.73-.81-.32-1.62-.63-2.44-.95,.67-.29,1.34-.58,2.01-.87,.7,.44,1.4,.89,2.1,1.33,.39,.16,.78,.33,1.17,.49,.18,.19,.35,.38,.53,.57,.16,.2,.33,.4,.49,.6,.22,.37,.44,.74,.67,1.1,.12,.21,.25,.42,.37,.63l.14,.05s-.02,.15-.02,.15c.37,.5,.73,1,1.1,1.5,.04,.19,.08,.38,.12,.57,.2,2.02,.4,4.05,.6,6.07,.75,.28,1.51,.56,2.26,.85,.52,.12,1.04,.23,1.57,.35,.24,.08,.48,.15,.71,.23Z"/>
  <path class="cls-12" d="M121.13,39.6c-.38,.36-.76,.73-1.13,1.09-.26-8.95-.53-17.89-.74-26.84-.02-.89-.34-2.45,1.57-1.61,.1,9.12,.2,18.24,.31,27.36Z"/>
  <path class="cls-1" d="M288.04,149.75l.73-7.01c-.19-.04-.38-.08-.57-.12-.26,.53-.52,1.06-.77,1.6-.05-1.74-.09-3.48-.14-5.22,.33,.17,.66,.34,1.3,.66-.3-2.28-.58-4.35-.85-6.42,3.1,5.45,2.64,10.96,.3,16.5Z"/>
  <path class="cls-15" d="M350.15,107.89c.97-.56,1.94-1.13,2.91-1.69,2.95,.53,5.92,1,8.86,1.61,1.55,.32,1.26,1.1,.25,1.88-3.31-.36-6.62-.68-9.93-1.09-.71-.09-1.39-.46-2.09-.7Z"/>
  <path class="cls-15" d="M94.68,172.23c1.28-.06,2.56-.09,3.83-.21,.84-.08,1.68-.28,2.51-.43,2.45,.43,4.91,.87,7.36,1.3,.19,.54,.37,1.08,.56,1.62-3.76-.7-7.51-1.42-11.27-2.08-.98-.17-2-.14-3-.2Z"/>
  <path class="cls-13" d="M109.09,90.38c-1.07-.75-1.98-1.4-2.89-2.04,.88-.4,1.79-1.17,2.64-1.11,1.16,.08,3.28-.97,3.15,1.51-.03,.52-1.61,.95-2.89,1.64Z"/>
  <path class="cls-12" d="M108.96,174.51c-.19-.54-.37-1.08-.56-1.62,5.15,.49,10.3,1.05,15.35-.64,.33,.35,.66,.7,.99,1.05-.74,.31-1.48,.62-2.22,.93-.3,.05-.6,.1-.9,.15-4.22,.04-8.44,.08-12.66,.12Z"/>
  <path class="cls-13" d="M116.73,86.66c1.54,.75,2.77,1.34,4,1.94-.68,.52-1.29,1.36-2.04,1.5-1.85,.36-2.64-.58-1.96-3.44Z"/>
  <path class="cls-15" d="M79.8,175.1c2.32-.13,4.63-.26,6.95-.39-2.32,.13-4.63,.26-6.95,.39Z"/>
  <path class="cls-12" d="M237.33,81.87c-.2-2.02-.4-4.05-.6-6.07,.2,2.02,.4,4.05,.6,6.07Z"/>
  <path class="cls-15" d="M125.01,173.12c1.5-2.43,3.06-.98,4.6-.06-1.53,.02-3.07,.04-4.6,.06Z"/>
  <path class="cls-15" d="M214.39,175.21c1.28-.13,2.56-.25,3.84-.38-1.28,.13-2.56,.25-3.84,.38Z"/>
  <path class="cls-15" d="M239.07,173.91c1.29,.14,2.58,.27,3.87,.41-1.29-.14-2.58-.27-3.87-.41Z"/>
  <path class="cls-15" d="M233.29,171.77c0,.45-.02,.89-.03,1.34-.75-.09-1.49-.18-2.24-.27,.37-.44,.74-.88,1.11-1.32,.39,.08,.78,.17,1.16,.25Z"/>
  <path class="cls-15" d="M226.4,173.57c.95-.24,1.9-.48,2.85-.72-.95,.24-1.9,.48-2.85,.72Z"/>
  <path class="cls-15" d="M131.73,173.57c1.17,.24,2.33,.49,3.5,.73-1.17-.24-2.33-.49-3.5-.73Z"/>
  <path class="cls-15" d="M233.45,173.12c.71,.14,1.43,.29,2.14,.43-.71-.14-1.43-.29-2.14-.43Z"/>
  <path class="cls-2" d="M56.82,173.41c.58-.11,1.17-.21,1.75-.32-.58,.11-1.17,.21-1.75,.32Z"/>
  <path class="cls-15" d="M261.95,172.81c.74-.35,1.49-.69,2.23-1.04-.74,.35-1.49,.69-2.23,1.04Z"/>
  <path class="cls-15" d="M223.54,174.12c.71-.15,1.41-.3,2.12-.46-.71,.15-1.41,.3-2.12,.46Z"/>
  <path class="cls-9" d="M300.93,95.19c-.59-.13-1.17-.26-1.76-.39,.59,.13,1.17,.26,1.76,.39Z"/>
  <path class="cls-12" d="M236.61,75.23c-.37-.5-.73-1-1.1-1.5,.37,.5,.73,1,1.1,1.5Z"/>
  <path class="cls-15" d="M206.99,175.07c.55,.05,1.11,.1,1.66,.14-.55-.05-1.11-.1-1.66-.14Z"/>
  <path class="cls-15" d="M68.17,172.99c.61,.17,1.23,.34,1.84,.51-.61-.17-1.23-.34-1.84-.51Z"/>
  <path class="cls-2" d="M62.13,172.38c.85-.17,1.7-.34,2.54-.51,.11,.14,.18,.3,.22,.48-.92,.01-1.84,.02-2.76,.03Z"/>
  <path class="cls-15" d="M64.9,172.35c-.04-.18-.11-.34-.22-.48,.44,.13,.88,.26,1.32,.39-.37,.03-.73,.06-1.1,.09Z"/>
  <path class="cls-12" d="M120.38,45.32c.04,.38,.07,.76,.11,1.14-.04-.38-.07-.76-.11-1.14Z"/>
  <path class="cls-15" d="M255.64,174.07c.53-.11,1.06-.21,1.59-.32-.53,.11-1.06,.21-1.59,.32Z"/>
  <path class="cls-11" d="M288.83,92.38c-.38,.16-.76,.33-1.14,.49,.38-.16,.76-.33,1.14-.49Z"/>
  <path class="cls-1" d="M287.23,151.82c.16-.43,.32-.87,.48-1.3-.16,.43-.32,.87-.48,1.3Z"/>
  <path class="cls-11" d="M292.29,91.33c-.38,.18-.77,.35-1.15,.53,.38-.18,.77-.35,1.15-.53Z"/>
  <path class="cls-12" d="M241.16,83.06c-.52-.12-1.04-.23-1.57-.35,.52,.12,1.04,.23,1.57,.35Z"/>
  <path class="cls-11" d="M283.71,87.29c-.13-.39-.27-.78-.4-1.17,.13,.39,.27,.78,.4,1.17Z"/>
  <path class="cls-15" d="M54.57,147.52c-.5,.18-1,.37-1.49,.55,.5-.18,1-.37,1.49-.55Z"/>
  <path class="cls-12" d="M233.33,70.62c-.39-.16-.78-.33-1.17-.49,.39,.16,.78,.33,1.17,.49Z"/>
  <path class="cls-15" d="M260.24,173.34c.36-.14,.72-.27,1.08-.41-.36,.14-.72,.27-1.08,.41Z"/>
  <path class="cls-15" d="M74.63,147.06c-.19-.09-.37-.18-.56-.26,.19,.09,.37,.18,.56,.26Z"/>
  <path class="cls-2" d="M54.01,173.79c.17-.13,.34-.14,.51-.02-.17,0-.34,.01-.51,.02Z"/>
  <path class="cls-11" d="M290.73,91.98c-.24,.08-.48,.16-.72,.24,.24-.08,.48-.16,.72-.24Z"/>
  <path class="cls-15" d="M121.62,174.39c.3-.05,.6-.1,.9-.15-.3,.05-.6,.1-.9,.15Z"/>
  <path class="cls-15" d="M253.4,174.32c.25-.05,.51-.09,.76-.14-.25,.05-.51,.09-.76,.14Z"/>
  <path class="cls-15" d="M204.37,174.76c.26,.03,.51,.07,.77,.1-.26-.03-.51-.07-.77-.1Z"/>
  <path class="cls-12" d="M235.39,73.52c-.12-.21-.25-.42-.37-.63,.12,.21,.25,.42,.37,.63Z"/>
  <path class="cls-12" d="M234.36,71.79c-.16-.2-.33-.4-.49-.6,.16,.2,.33,.4,.49,.6Z"/>
  <path class="cls-15" d="M84.23,149.81c-.21,.02-.42,.05-.63,.07,.21-.02,.42-.05,.63-.07Z"/>
  <path class="cls-15" d="M57.87,146.38c-.18,.02-.37,.05-.55,.07,.18-.02,.37-.05,.55-.07Z"/>
  <path class="cls-12" d="M138.9,62.52c-.21-.06-.43-.12-.64-.18,.21,.06,.43,.12,.64,.18Z"/>
  <path class="cls-5" d="M231.59,71.35c3.28,3.03,3.92,5.01,3.09,10.44-3.99-1.76-8.65-.67-12.27-3.86-.59-.52-2.31-.58-2.92-.1-1.75,1.36-3.2,3.11-4.77,4.71-1.04,1.41-2.08,2.81-3.13,4.22-2.33,4.06-5.02,7.96-6.9,12.22-3.52,7.98-10.07,12.55-17.21,16.62-.16,.09-.37,.13-.55,.11-.17-.01-.34-.13-.59-.23,1.41-3.64,2.81-7.28,4.23-10.92,.48-1.22,1.09-2.39,1.51-3.63,1.47-4.38,2.43-9,4.41-13.13,3.53-7.4,8.01-14.42,15.93-17.69,3.33-1.37,7.4-1.01,11.15-1.2,1.48-.08,2.99,.49,4.49,.76,.81,.32,1.62,.63,2.44,.95,.37,.24,.73,.49,1.1,.73Z"/>
  <path class="cls-5" d="M181.15,97.75c-6.19,8.52-12.1,16.56-20.5,22.56-5.18,3.7-9.53,8.58-14.21,12.98-3.46,3.25-6.61,6.76-8.45,11.25-.46,1.12-1.13,2.19-1.38,3.35-.53,2.48-2.14,3.1-4.24,2.51-2.14-.6-3.98-1.49-3.48-4.53,.57-3.46,2.21-6.48,3.86-9.31,2.74-4.7,5.78-9.41,9.57-13.25,5.68-5.76,12.05-10.86,18.24-16.1,5.13-4.34,11.27-6.87,17.51-9.14,.44-.16,.9-.33,1.36-.38,.45-.05,.93,.03,1.72,.07Z"/>
  <path class="cls-5" d="M191.26,96.56c-.79,2.51-1.4,4.88-2.26,7.15-3.33,8.76-7.21,17.3-12.7,24.89-4.12,5.69-9.06,10.79-13.71,16.09-.79,.9-1.95,1.46-2.95,2.17-1.11,.79-2.24,2.22-3.63,.62-1.13-1.3-2.37-2.46-1.09-4.73,4.27-7.53,7.84-15.49,12.43-22.81,4.4-7.02,9.7-13.48,14.69-20.12,1.79-2.38,5.59-3.59,9.21-3.27Z"/>
  <path class="cls-8" d="M246.2,103.02c4.02,9.05,12.15,13.15,20.15,17.5,3.01,1.64,5.91,3.67,8.43,5.98,2.72,2.49,2.74,6.29,.8,9.55-9.31-4-18.69-7.79-27.84-12.08-3.15-1.48-6.32-3.72-8.44-6.44-3.74-4.79-4.34-10.42,3.98-13.57,.88-.33,1.79-.58,2.92-.94Z"/>
  <path class="cls-5" d="M252.97,92.67c2.92-5.11,6.11-9.94,11.74-12.54,5.49-2.54,12.84,.28,15.21,4.29,1.07,1.8,1.27,4.12,1.86,6.21-.29,.2-.58,.39-.87,.59-2.28-.54-4.84-.61-6.78-1.74-2.81-1.65-4.43-.46-5.55,1.67-2.61,5-4.9,10.17-7.39,15.24-1.06,2.15-2.3,4.21-3.47,6.34-8.59-5.5-9.91-8.49-7.16-15.56,.8-1.5,1.6-2.99,2.41-4.49Z"/>
  <path class="cls-8" d="M234.24,113.32c1.9,2.73,3.31,5.65,5.52,7.72,2.83,2.66,4.65,5.73,5.37,9.36,1.07,5.41,2.2,10.9,.63,16.44-1.23,4.33-4.22,5.11-7.58,2.21-4.43-3.82-8.04-8.38-9.79-13.87-1.26-3.93-1.43-8.19,.49-12.44,1.55-3.42,2.42-7.1,5.37-9.43Z"/>
  <path class="cls-5" d="M182.6,122.24c2.31-4.87,7.7-5.38,11.2-8.44,3.31-2.89,6.54-5.87,9.83-8.79,1.12-.99,2.42-1.8,3.44-2.89,2.57-2.75,4.96-5.67,7.58-8.37,.73-.75,2.07-1.46,3.01-1.33,3.28,.44,6.51,1.25,10.43,2.06-1,1.66-1.6,3.28-2.71,4.38-6.04,5.96-11.7,12.49-18.47,17.47-6.39,4.69-14.08,7.43-22.44,6.43-.62-.07-1.22-.34-1.86-.53Z"/>
  <path class="cls-8" d="M239.29,153.16c-3.71,1.83-6.6,3.41-9.62,4.7-5.2,2.24-10.38,4.61-15.74,6.36-7.51,2.45-14.92,1.37-22.89-1.88,3.57-1.59,6.42-2.97,9.35-4.15,6.67-2.68,13.24-5.71,20.1-7.73,6.07-1.79,12.17-.29,18.79,2.7Z"/>
  <path class="cls-5" d="M144.42,64.28c.79-.37,1.58-.74,2.37-1.1,5.02-1.89,9.96-4.05,15.08-5.62,7.88-2.42,15.45,4.55,15.72,12.54-3.71-.89-7.97-.84-10.74-2.85-2.98-2.16-5.21-2.11-7.97-.84-2.75,1.26-5.34,2.86-8.08,4.14-3.34,1.56-6.68,3.18-10.16,4.35-3.75,1.26-7.77-.76-8.68-3.61,3.08-1.79,6.08-3.53,9.09-5.28,.97-.48,1.95-.97,2.92-1.45,.15-.09,.3-.18,.45-.28Z"/>
  <path class="cls-8" d="M124.4,162.26c10.31-6.64,20.94-11.27,33.03-10.51,3.62,.23,7.17,1.63,11.28,2.62-11.87,5.72-21.68,11.88-31.12,10.46-4.43-.67-8.8-1.7-13.2-2.56Z"/>
  <path class="cls-8" d="M204.86,153.85c-10.41,8.52-33.77,12.2-45.74,7.15,3.67-1.63,7.08-3.09,10.44-4.66,10.5-4.92,21.27-7.02,32.65-3.41,.54,.17,1.09,.31,1.64,.49,.25,.08,.49,.21,1.01,.44Z"/>
  <path class="cls-8" d="M233.29,171.77c-.39-.08-.78-.17-1.16-.25-4.32-2.03-8.63-4.05-12.95-6.08,.07-.43,.14-.86,.21-1.29,1.33-.18,2.89-.9,3.96-.45,9.97,4.22,19.65,3.57,29.25-1.13,.87-.42,2.35-.52,3.12-.06,4.51,2.73,9.25,3.9,14.46,2.92,.23-.04,.49,.11,1.02,.23-4.78,5-10.8,6.54-17.05,6.93-5.4,.34-10.85-.13-16.27-.25,0,0-.2-.18-.2-.18l-.25,.1c-1.38-.17-2.77-.34-4.15-.5Z"/>
  <path class="cls-8" d="M59.39,161.17c10.75-9.03,33.97-12.79,42.88-6.94-6.5,7.18-35.31,11.85-42.88,6.94Z"/>
  <path class="cls-8" d="M287.29,139c.05,1.74,.09,3.48,.14,5.22-.94,11.79-10.71,18.32-19.19,19.73-4.3,.72-8.19-.8-11.95-3.07,1.06-1.89,2.31-2.33,4.32-1.88,7.32,1.64,11.53-2.33,14.34-7.77,.86-1.65,1.48-3.65,1.48-5.48,0-3.22,1.64-4.54,4.34-5.61,2.14-.85,4.01-2.36,6.15-3.66,.11,.77,.24,1.65,.37,2.52Z"/>
  <path class="cls-8" d="M93.3,161.12c13.46-7.05,26.87-12.76,42.48-6.83-6.79,2.89-13.45,6.2-20.42,8.54-7.36,2.47-14.72,.7-22.06-1.71Z"/>
  <path class="cls-8" d="M259.86,157.33c.71-6.83,1.27-13.29,2.1-19.71,.47-3.63,2.9-4.71,6.18-3.08,.43,.21,.83,.46,1.26,.68,6.45,3.28,7.5,6.41,4.18,13.11-1.19,2.39-2.41,4.84-4.07,6.9-2.32,2.87-5.66,2.56-9.65,2.09Z"/>
  <path class="cls-8" d="M248.76,151.28c2.51-.06,5.02-.21,7.52-.1,.65,.03,1.27,.9,1.9,1.38,0,.27,0,.54,0,.81,.51,2.28-.48,4.02-2.28,5.15-6.73,4.23-13.9,7.14-22.04,6.19-2.77-.32-5.49-1.18-8.23-1.79l-.11-.96c1.63-.78,3.27-1.53,4.88-2.34,4.96-2.49,9.9-5.03,14.88-7.47,.82-.4,1.82-.43,2.73-.63,.25-.08,.51-.17,.76-.25Z"/>
  <path class="cls-8" d="M89.76,172.83c-.86,.13-1.73,.25-2.59,.38-.24,.08-.47,.15-.71,.23-8.7,.5-17.1-.66-24.85-4.86-2.58-1.39-4.84-3.38-7.24-5.09l.34-.82c.68-.08,1.46-.42,2.03-.2,8.2,3.21,16.57,2.89,25.04,1.49,.93-.15,2.18,.08,2.93,.62,2.8,2.03,5.46,4.26,8.4,6.61-.66,.32-1.27,.61-1.88,.91-.49,.25-.98,.49-1.47,.74Z"/>
  <path class="cls-3" d="M238.45,84.27c.76,.06,1.51,.11,2.27,.17-.02,.57-.04,1.14-.06,1.7,3.09,.75,6.17,1.5,9.26,2.25,.8,.3,1.61,.61,2.53,.95-.1,.68-.22,1.55-.34,2.42-.88,1.39-1.77,2.78-2.65,4.18-1.4,.14-2.81,.41-4.21,.37-1.37-.04-2.73-.39-4.1-.6-.32-.1-.65-.2-.97-.3-6.11-1.37-12.22-2.77-18.34-4.11-2.85-.62-5.73-1.1-8.58-1.73-.42-.09-.73-.67-1.08-1.03,.05-.32,.1-.64,.15-.96,.06-.25,.13-.51,.19-.76,1.16-1.2,2.32-2.4,3.49-3.6,.95-.51,1.89-1.03,2.84-1.54,1.06,.41,2.11,.82,3.2,1.25v-2.29c.34,.09,.67,.18,1.01,.26,.46,.81,.8,2.2,1.4,2.33,2.13,.45,4.36,.46,6.55,.64,.95,.51,2.35,1.69,2.76,1.41,1.51-1.04,3.76,1.8,4.7-1.02Zm-23.51,1.94c.06,.33,.12,.66,.18,.98,1.53,.34,3.05,.7,4.59,1.02,9.21,1.9,18.41,3.8,27.63,5.65,1.58,.32,2.58-.26,2.3-2.12-10.67-2.21-21.24-4.43-31.84-6.52-.85-.17-1.89,.63-2.85,.99Z"/>
  <path class="cls-8" d="M152.81,164.2c2.1-1.46,3.78-2.16,6.41-1.22,6.83,2.45,13.98,2.48,21.17,1.92,1.38-.11,3.03,.57,4.22,1.38,2.23,1.54,4.21,3.44,6.29,5.18-15.39,3.17-30.85,1.56-38.09-7.27Z"/>
  <path class="cls-8" d="M159.54,171.77c-7.72,1.79-14.96,2.23-22.3,1.2-7.22-1.01-14.04-2.88-19.17-8.87,1.9-1.43,3.82-1.5,6.15-.64,7.89,2.89,15.92,4.47,24.31,2.08,.9-.26,2.22,.09,3.05,.61,2.53,1.61,4.92,3.44,7.95,5.6Z"/>
  <path class="cls-8" d="M123.75,172.25c-5.06,1.69-10.21,1.12-15.35,.64-2.45-.43-4.91-.87-7.36-1.3-4.76-1.04-9.02-3.12-12.77-6.22-.76-.63-1.49-1.3-2.23-1.96l.23-.91c2.07,0,4.31-.53,6.16,.09,7.05,2.38,14.12,3.63,21.56,2.44,1.05-.17,2.39,.62,3.4,1.27,1.88,1.21,3.67,2.59,5.39,4.03,.5,.42,.65,1.26,.96,1.91Z"/>
  <path class="cls-8" d="M226.38,171.55c-10.49,5.54-34.15,1.34-41.52-7.94,1.88,0,3.4-.41,4.58,.06,8.37,3.36,16.84,4.7,25.68,2.06,.66-.2,1.59-.18,2.16,.16,3.07,1.81,6.06,3.75,9.1,5.66Z"/>
  <path class="cls-5" d="M162.6,123.61c-2.21,4.1-4.01,7.47-5.83,10.83-.44,.82-1.18,1.55-1.36,2.42-.78,3.58-3.3,5.98-5.78,8.23-2.17,1.97-3.03,5.15-6.48,6.04-3.32,.85-4.52,.29-4.21-3.16,.38-4.27,3.08-7.46,5.75-10.19,4.33-4.42,9.34-8.15,14.13-12.11,.89-.74,2.05-1.13,3.79-2.06Z"/>
  <path class="cls-8" d="M276.63,139.23c.19-.78,.21-1.66,.59-2.33,3.03-5.34,2-10.05-3.1-13.65-1.99-1.41-4.03-2.75-6.57-4.46,2.13-2.05,4.08-4.02,6.18-5.84,.36-.31,1.61-.16,1.97,.22,3.67,3.92,7.37,7.84,9.08,13.14,.28,.87,.97,1.63,1.14,2.51,.45,2.33,.91,4.81-1.35,6.53-2.26,1.72-4.64,3.26-6.98,4.88-.32-.33-.64-.66-.95-1Z"/>
  <path class="cls-8" d="M246.2,149.77c3.08-4.24,2.39-8.36,2.31-12.52-.05-2.67,.96-5.37,1.6-8.03,.35-1.45,1.29-1.69,2.59-.94,.81,.46,1.75,.69,2.6,1.1,1.64,.8,4.45,1.44,4.65,2.55,.51,2.7,.41,5.86-.58,8.39-.97,2.49-3.45,4.35-5.04,6.65-1.89,2.73-4.65,2.44-8.14,2.81Z"/>
  <path class="cls-3" d="M194.91,77.4c-.77,.33-1.61,1.02-2.31,.91-3.34-.52-6.63-1.48-9.98-1.82-1.65-.17-3.38,.92-5.09,.98-4.46,.15-8.93,.17-13.38,0-2.19-.08-4.35-.7-6.53-1.08-2.69-.71-5.38-1.42-8.07-2.13-.07-.28-.15-.55-.22-.83,2.02-1.13,4.04-2.25,6.05-3.38,.22-.11,.44-.22,.66-.33,.71,.03,1.42,.05,2.13,.08,2.5,.27,5,.54,7.5,.82l5.62,1.86c3.34,.71,6.68,1.43,10.02,2.1,.12,.02,.33-.4,.49-.62-.03-.44-.06-.88-.09-1.32,.77,.09,1.53,.19,2.3,.28-1.01,1.77-.69,2.56,1.46,2.01,3.15,.82,6.29,1.64,9.44,2.46Z"/>
  <path class="cls-5" d="M210.23,116.17c2.85-2.74,5.38-5.24,8.01-7.61,.4-.36,1.44-.45,1.94-.19,3.03,1.55,6.05,3.14,8.9,4.98,.51,.33,.58,1.94,.31,2.78-.45,1.4-1.65,2.58-1.99,3.98-.7,2.89-2.11,3.31-4.64,2.13-3.17-1.48-6.46-2.67-9.66-4.08-.9-.39-1.65-1.12-2.87-1.99Z"/>
  <path class="cls-5" d="M165.88,84.68c3.62-.49,7.24-.99,10.86-1.49,.37,1.8,.81,3.58,1.11,5.39,.89,5.42-.47,9.35-6.63,10.32-1.4,.22-2.69,1.16-4.64,2.05-.25-5.82-.47-11.05-.69-16.27Z"/>
  <path class="cls-8" d="M200.79,144.27c6.52-1.15,12.55-.29,18.41,4.57-5.56,1.21-9.62,5.45-15.53,2.87-3.31-1.44-7.16-1.65-11.15-2.49,1.86-2.88,4.82-3.75,7.62-4.83,.22-.04,.43-.08,.65-.12Z"/>
  <path class="cls-3" d="M111.51,63.84c1.25-.6,2.5-1.19,3.76-1.79,.72-.05,1.44-.09,2.16-.14,.23,.38,.46,.76,.69,1.14-1.25,.79-2.5,1.59-4.36,2.77,2.45,1.86,4.53,3.43,6.61,5,.25-.32,.5-.65,.75-.97-1.6-1.25-3.21-2.5-5.27-4.12,4.81-2.19,9.15-1.42,13.44-1.23,.82,.04,1.65-.14,2.48-.22,2.33,.39,4.57,1.86,7.04,.61-2.22,1.96-4.41,3.98-7.73,3.48-.66-.1-1.32-.18-1.98-.19-2.95-.06-3.42,.6-2.46,3.34,.31,.88,.49,1.8,.84,3.1-3.98,.07-7.1-1.53-10.08-3.16-2.02-1.1-3.78-2.8-5.36-4.5-.6-.64-.37-2.06-.51-3.12Z"/>
  <path class="cls-5" d="M259.69,114.02c1.71-3.68,3.38-7.33,5.13-10.95,.19-.39,.92-.83,1.31-.76,3.59,.7,7.16,1.5,11.64,2.47-2.72,3.32-4.99,6.11-7.28,8.88-.17,.21-.46,.32-.67,.5-4.66,4.19-5.67,4.17-10.12-.15Z"/>
  <path class="cls-8" d="M185.46,149.1c-4.31,1.42-8.42,2.83-12.57,4.1-.94,.29-2.09,.41-3.02,.14-3.44-.99-6.82-2.18-10.21-3.29,3.57-6.05,21.26-6.65,25.79-.96Z"/>
  <path class="cls-8" d="M114.11,150.6c-4.39,1.1-8.2,3.8-13.23,1.1-3.02-1.62-7-1.45-10.55-2.02-.89-.14-1.81-.02-3.04-.02,5.72-6.83,23.04-6.13,26.83,.94Z"/>
  <path class="cls-5" d="M173.6,135.48c2.5-3.53,4.93-7.1,7.55-10.53,.43-.56,1.7-.63,2.59-.64,3.87-.07,7.75-.03,11.58-.03-.4,3.83-12.88,10.74-21.36,11.56-.11-.13-.23-.24-.35-.36Z"/>
  <path class="cls-8" d="M54.81,148.9c7.92-2.51,15.65-2.86,23.66,1.94-3.07,.96-5.46,2.24-7.89,2.32-2.12,.07-4.23-1.45-6.43-1.82-3.06-.52-6.19-.62-9.29-.9-.02-.51-.04-1.02-.06-1.53Z"/>
  <path class="cls-4" d="M128.01,141.52c-.39,2.8-.75,5.36-1.16,8.22h-9.67c-1-4.8,5.58-9.81,10.83-8.22Z"/>
  <path class="cls-8" d="M235.14,149.13c-3.13-.36-6.22-.67-9.3-1.11-.62-.09-1.7-.96-1.68-.99,1.13-2.1,2.33-4.17,3.63-6.17,.08-.13,1.26,.16,1.56,.54,1.97,2.51,3.83,5.1,5.79,7.73Z"/>
  <path class="cls-3" d="M185.47,74.94c-2.15,.55-2.48-.23-1.46-2.01,5.65,1.02,11.31,2.05,16.96,3.07-.01,.25-.02,.51-.03,.76-.45,.15-.91,.3-1.36,.45-4.7-.76-9.4-1.52-14.1-2.27Z"/>
  <path class="cls-4" d="M151.76,145.28c1.15,1.32,2.13,2.45,3.66,4.2h-7.24c1.21-1.42,2.15-2.53,3.58-4.2Z"/>
  <path class="cls-3" d="M138.8,64.9c-2.47,1.24-4.71-.23-7.04-.61-1.26-.41-2.52-.81-3.78-1.22-.04-.34-.07-.68-.11-1.03,4.17,.89,8.34,1.78,12.51,2.67-.52,.06-1.05,.13-1.57,.19Z"/>
  <path class="cls-3" d="M165.67,70.63c-2.5-.27-5-.54-7.5-.82,.81-.53,1.72-1.6,2.43-1.49,2.45,.39,4.84,1.2,7.25,1.85-.72,.15-1.45,.3-2.18,.45Z"/>
  <path class="cls-1" d="M185.47,74.94c4.7,.76,9.4,1.52,14.1,2.27-.02,.27-.04,.54-.07,.81-1.53-.21-3.07-.42-4.6-.63-3.15-.82-6.29-1.64-9.44-2.46Z"/>
  <path class="cls-3" d="M240.66,86.14c.02-.57,.04-1.14,.06-1.7,.19-.08,.39-.15,.58-.23,3.63,.84,7.26,1.68,10.89,2.53,.48,.11,.96,.25,1.41,.95-1.24,.09-2.47,.18-3.71,.27-3.08-.6-6.16-1.21-9.24-1.81Z"/>
  <path class="cls-11" d="M213.69,91.98c-1.79,1.99-3.57,3.98-5.74,6.4,.03-4.52,3.2-7.64,5.74-6.4Z"/>
  <path class="cls-14" d="M165.67,70.63c.73-.15,1.45-.3,2.18-.45,2.1,.53,4.21,1.06,6.32,1.59-.96,.24-1.91,.48-2.87,.72l-5.62-1.86Z"/>
  <path class="cls-1" d="M171.29,72.49c.96-.24,1.91-.48,2.87-.72,.64,.02,1.28,.05,1.93,.07,.6,.34,1.17,.79,1.81,1.01,1.28,.44,2.6,.76,3.91,1.13-.17,.22-.37,.64-.49,.62-3.35-.67-6.68-1.39-10.02-2.1Z"/>
  <path class="cls-15" d="M240.66,86.14c3.08,.6,6.16,1.21,9.24,1.81,.02,.15,.03,.29,.02,.44-3.09-.75-6.17-1.5-9.26-2.25Z"/>
  <path class="cls-5" d="M246.15,125.39c3.48,1.39,3.73,2.54,.69,5.29-.41-1.71-.77-3.21-1.12-4.71,.14-.19,.29-.39,.43-.58Z"/>
  <path class="cls-13" d="M276.55,92.36c-1.77,2.39-3.72,.61-5.6,.25,.84-3.18,3.09,.37,4.39-.89,.1-.1,.79,.41,1.21,.64Z"/>
  <path class="cls-1" d="M249.45,95.95c.88-1.39,1.77-2.78,2.65-4.18,.29,.3,.58,.6,.87,.9-.8,1.5-1.6,3-2.41,4.49-.37-.41-.74-.81-1.11-1.22Z"/>
  <path class="cls-13" d="M215.99,83.23c-1.16,1.2-2.32,2.4-3.49,3.6-.31-.02-.61-.05-.92-.07,1.04-1.41,2.09-2.81,3.13-4.22,.43,.23,.85,.46,1.28,.7Z"/>
  <path class="cls-7" d="M181.81,73.97c-1.31-.37-2.63-.69-3.91-1.13-.64-.22-1.21-.66-1.81-1.01,1.88,.27,3.75,.54,5.63,.81,.03,.44,.06,.88,.09,1.32Z"/>
  <path class="cls-15" d="M54.81,148.9c.02,.51,.04,1.02,.06,1.53-.56-.61-1.13-1.22-1.7-1.82,0,0,.09-.08,.09-.08,.52,.12,1.03,.25,1.55,.37Z"/>
  <path class="cls-15" d="M243,97.49c-.55-.14-1.09-.29-1.64-.43,.55,.14,1.09,.29,1.64,.43Z"/>
  <path class="cls-15" d="M89.76,172.83c.49-.25,.98-.49,1.47-.74-.49,.25-.98,.49-1.47,.74Z"/>
  <path class="cls-9" d="M245.72,125.97c-.09-.15-.18-.31-.26-.46,.23-.04,.46-.07,.69-.11-.14,.19-.29,.39-.43,.58Z"/>
  <polygon class="cls-15" points="237.44 172.27 237.69 172.18 237.89 172.35 237.66 172.36 237.44 172.27"/>
  <path class="cls-15" d="M244.73,97.67c-.19-.03-.37-.06-.56-.1,.19,.03,.37,.06,.56,.1Z"/>
  <path class="cls-9" d="M258.17,153.38c0-.27,0-.54,0-.81,0,.27,0,.54,0,.81Z"/>
  <path class="cls-15" d="M238.44,96.51c-.19-.03-.38-.05-.57-.08l.57,.08Z"/>
  <path class="cls-15" d="M86.46,173.44c.24-.08,.47-.16,.71-.23-.24,.08-.47,.15-.71,.23Z"/>
  <path class="cls-10" d="M173.95,135.84c-.23,.01-.46,.03-.69,.04,.11-.13,.23-.27,.34-.4,.12,.11,.24,.23,.35,.36Z"/>
  <path class="cls-15" d="M240.17,95.42c.32,.1,.64,.2,.97,.3-.32-.1-.64-.2-.97-.3Z"/>
  <path class="cls-9" d="M248.76,151.28c-.25,.08-.51,.17-.76,.25,.25-.08,.51-.17,.76-.25Z"/>
  <path class="cls-1" d="M212.31,87.59c-.05,.32-.1,.64-.15,.96,.05-.32,.1-.64,.15-.96Z"/>
  <path class="cls-15" d="M200.79,144.27c-.22,.04-.43,.08-.65,.12,.22-.04,.43-.08,.65-.12Z"/>
  <path class="cls-7" d="M156.04,69.73c-.22,.11-.44,.22-.66,.33,.22-.11,.44-.22,.66-.33Z"/>
  <path class="cls-3" d="M292.88,96.01c.62-.38,1.23-.77,1.85-1.15,.24,.31,.44,.85,.73,.91,6.16,1.27,12.32,2.48,18.49,3.71-.13,.35-.26,.7-.39,1.05-2.48-.17-4.96-.35-7.44-.52-.83-.56-1.59-1.41-2.5-1.64-3.55-.89-7.15-1.58-10.73-2.34Z"/>
  <path class="cls-12" d="M326.11,102.79c1.53,.02,3.09-.16,4.58,.1,2.13,.37,4.2,1.05,6.29,1.6,0,.29,0,.59,0,.88-.06,.34-.13,.67-.19,1.01-2.8-.59-5.59-1.19-8.39-1.78-.76-.6-1.52-1.21-2.28-1.81Z"/>
  <path class="cls-12" d="M292.88,96.01c3.58,.76,7.18,1.45,10.73,2.34,.91,.23,1.67,1.08,2.5,1.64-4.8-.89-9.59-1.79-14.39-2.68-.4-.27-.81-.54-1.21-.8,.79-.17,1.58-.33,2.37-.5Z"/>
  <path class="cls-12" d="M316.9,102.14c.15-1.39,.44-2.47,2.29-1.7,1.34,.56,2.87,.7,4.16,1.33,.55,.27,.72,1.31,1.06,2-2.51-.55-5.01-1.09-7.52-1.64Z"/>
  <path class="cls-12" d="M336.78,106.38c.06-.34,.13-.67,.19-1.01,.77,.06,1.53,.12,2.3,.17,.39,.14,.78,.28,1.18,.42l.21,.07s.04,.22,.04,.22c1.25,0,2.51-.02,3.76-.03,0,0,0,0,0,0,.19,.59,.39,1.18,.58,1.77-2.75-.54-5.49-1.08-8.24-1.62Z"/>
  <path class="cls-12" d="M345.02,108c-.19-.59-.39-1.18-.58-1.77,1.62,.38,3.89-1.07,4.66,1.68-1.36,.03-2.72,.06-4.08,.09Z"/>
  <path class="cls-12" d="M313.55,100.51c.13-.35,.26-.7,.39-1.05,.43,.88,.87,1.76,1.3,2.64-.56-.53-1.13-1.07-1.69-1.6Z"/>
  <path class="cls-12" d="M326.11,102.79c.76,.6,1.52,1.21,2.28,1.81-.77-.18-1.54-.36-2.31-.55,0-.42,.01-.85,.02-1.27Z"/>
  <path class="cls-12" d="M122.61,50.49c-.35-.73-.91-1.43-.99-2.19-.25-2.26-.3-4.53-.43-6.8,.48,1.04,1.25,2.04,1.38,3.12,.22,1.93,.05,3.91,.05,5.87Z"/>
  <path class="cls-3" d="M127.87,62.04c.04,.34,.07,.68,.11,1.03-1.12-.06-2.23-.13-3.35-.19-1.59,.1-3.18,.19-4.77,.29-.58-.04-1.16-.08-1.74-.12-.23-.38-.46-.76-.69-1.14,.06-.16,.14-.3,.23-.44,3.4,.19,6.81,.38,10.21,.57Z"/>
  <path class="cls-12" d="M117.66,61.47c-.09,.14-.17,.29-.23,.44-.72,.05-1.44,.09-2.16,.14,.8-.19,1.59-.39,2.39-.58Z"/>
  <path class="cls-12" d="M144.42,64.28c-.15,.09-.3,.19-.45,.28,.12-.15,.27-.24,.45-.28Z"/>
  <path class="cls-12" d="M339.27,105.55c-.77-.06-1.53-.11-2.3-.17,0-.29,0-.59,0-.88,.77,.05,1.54,.1,2.31,.14,0,.3-.01,.61-.02,.91Z"/>
  <path class="cls-7" d="M344.45,106.24c-1.25,0-2.51,.02-3.76,.03,1.25,0,2.51-.02,3.76-.03Z"/>
  <path class="cls-12" d="M339.27,105.55c0-.3,.01-.61,.02-.91,.39,.44,.77,.89,1.16,1.33-.39-.14-.78-.28-1.18-.42Z"/>
  <path class="cls-3" d="M238.45,84.27c-.94,2.82-3.19-.01-4.7,1.02-.41,.28-1.81-.9-2.76-1.41,0-.42,0-.84,0-1.26,2.48,.55,4.97,1.09,7.45,1.64Z"/>
  <path class="cls-3" d="M230.99,82.63c0,.42,0,.84,0,1.26-2.19-.18-4.42-.2-6.55-.64-.6-.13-.94-1.52-1.4-2.33,2.65,.57,5.3,1.14,7.95,1.72Z"/>
  <path class="cls-3" d="M222.03,80.65v2.29c-1.09-.43-2.15-.84-3.2-1.25,.21-3,1.89-1.47,3.2-1.04Z"/>
  <path class="cls-12" d="M231.59,71.35c-.37-.24-.73-.49-1.1-.73,.37,.24,.73,.49,1.1,.73Z"/>
  <path class="cls-13" d="M214.94,86.21c.95-.35,1.99-1.15,2.85-.99,10.6,2.08,21.18,4.31,31.84,6.52,.28,1.86-.72,2.44-2.3,2.12-9.22-1.85-18.42-3.76-27.63-5.65-1.53-.32-3.06-.68-4.59-1.02-.06-.33-.12-.66-.18-.98Z"/>
  <path class="cls-6" d="M124.63,62.88c1.12,.06,2.23,.12,3.35,.19,1.26,.41,2.52,.81,3.78,1.22-.83,.08-1.66,.25-2.48,.22-4.29-.19-8.62-.97-13.44,1.23,2.06,1.61,3.67,2.86,5.27,4.12-.25,.32-.5,.65-.75,.97-2.08-1.57-4.15-3.14-6.61-5,1.85-1.18,3.11-1.97,4.36-2.77,.58,.04,1.16,.08,1.74,.12,1.59-.1,3.18-.19,4.77-.29Z"/>
  <path class="cls-7" d="M124.63,62.88c-1.59,.1-3.18,.19-4.77,.29,1.59-.1,3.18-.19,4.77-.29Z"/>
</svg>