<?xml version="1.0" encoding="UTF-8"?>
<svg id="Layer_1" data-name="Layer 1" xmlns="http://www.w3.org/2000/svg" viewBox="0 0 414 200">
  <defs>
    <style>
      .cls-1 {
        fill: #f7b7d3;
      }

      .cls-2 {
        fill: #00bff3;
      }

      .cls-3 {
        fill: #6a635a;
      }

      .cls-4 {
        fill: #ece3cd;
      }

      .cls-5 {
        fill: #fff9b8;
      }

      .cls-6 {
        fill: #fff200;
      }

      .cls-7 {
        fill: #fbb040;
      }

      .cls-8 {
        fill: #9ed2f1;
      }

      .cls-9 {
        fill: #b9ac97;
      }

      .cls-10 {
        fill: #bcad99;
      }

      .cls-11 {
        fill: #47433f;
      }

      .cls-12 {
        fill: #3c3631;
      }

      .cls-13 {
        fill: #757373;
      }

      .cls-14 {
        fill: #514c4c;
      }

      .cls-15 {
        fill: #231f20;
        font-family: MyriadPro-Regular, 'Myriad Pro';
        font-size: 12px;
      }
    </style>
  </defs>
  <path class="cls-11" d="M173.17,163.33c1.83,.5,3.85,1.75,5.43,1.29,1.84-.54,1.42-3.69,2.72-5.15,1.48-1.66,.86-2.34-.55-3.47-5.32-4.28-10.72-8.41-15.44-13.53-4.98-5.41-7.16-11.92-7.73-19.14-.16-1.99-.81-2.86-2.15-3.82-3.17-2.27-6.27-4.67-6.1-9.43,1.34-.15,1.69,1,2.19,1.94,.04,2.48,1.96,3.7,3.31,5.16,.79,.86,2.48,2.82,3.29,1.5,1.2-1.96,4.21-3.17,3.21-6.32-.6-1.91-1.13-3.89-2.39-5.49,.07-.41,.15-.83,.22-1.24,.76-.1,1.57-.41,1.78,.86,.17,1.01,.37,2.03,.69,3,.24,.71,.22,1.77,1.25,1.84,.94,.06,1.03-.88,1.18-1.5,.9-3.76,.27-7.41-.87-11,.02-1.64,.03-3.28,.05-4.93,0-.24,0-.48,0-.72,.55-.69,.81-1.47-.42-1.23-2.42,.47-4.97,.47-7.18,1.88l.03-.02c-3.96,.04-7.76,1.16-11.62,1.95-2.27,.42-.32,1.14-.11,1.73-2.97,.85-3.89,3.52-5.31,6.29,5.06-.12,9.55-1.12,14.1-.57-.9,1.43-2.88,.37-3.73,1.77-.75,1.23-1.38,.69-2.11,.09-4.39-.08-8.87-1.15-12.3,3.42-2.72,3.63-8.25,3.66-11.76,.57-.37-.33-.65-.79-1.04-1.09-.7-.54-1.65-1.23-2.29-.38-.59,.78,.41,1.44,.9,2.02,2.29,2.74,2.29,2.84-.38,4-.11-.27-.27-.39-.53-.19-.4,.04-.8,.08-1.2,.12,0-.36-.02-.72-.02-1.08,1.16-.35,2.71-.64,.77-2.13-1.07-.82-2.27-1.67-1.94-3.07,.36-1.53,2.08-1.17,3.21-1.58,.54-.2,1.14-.16,1.71-.26,3.25-.6,4.85-2.54,5.22-6.43-2.18,.38-4.34,.76-6.5,1.14-.5-.15-.96-.1-1.33,.33l-1.68,.24c-.6-.04-1.21-.16-1.74,.28-.4,.12-.8,.25-1.2,.37,.14-1.44-.66-2.12-1.79-2.54-5.48-4.15-9.76-9.64-14.29-14.82-4.71-5.39-9.23-10.98-13.59-16.69-3.58-4.7-6.79-9.71-10.17-14.59,.66-1.81,1.14-1.02,1.87,.04,2.67,3.87,5.31,7.76,8.16,11.48,5.15,6.71,10.37,13.36,15.85,19.77,4.13,4.84,8.46,9.46,13,13.85,3.68,3.57,7.52,.23,12.02,.12-1.52-1.25-2.37-1.9-3.16-2.63-7.36-6.73-14.08-14.07-20.33-22.03-7.3-9.3-14.49-18.66-21.26-28.4-1.87-2.69-3.36-5.79-5.99-7.85v-2.81c3.51,3.59,6.07,7.51,8.56,11.39,4.09,6.37,8.75,12.27,13.23,18.29,4.36,5.85,8.88,11.6,13.76,17.01,4.83,5.36,9.81,10.52,15.27,15.13,1.56,1.32,2.77,1.36,4.1-.95,4.02-7,12.77-12.15,20.2-7.8,1.12,.65,2.39,1.45,2.94,2.31,2.82,4.42,6.15,1.01,9.22,.97,2.48-.03,2.82-2.45,3.66-4.2,2.58-5.38,6.71-8.33,12.3-8.76,4.97-.38,9.38,.9,12.31,5.69-.29,.23-.58,.47-.87,.7-.38-.3-.76-.59-1.12-.91-8.04-7.2-18.71-4.67-21.88,5.81-2.7,8.91-2.68,17.93,4,25.42,2.88,3.23,5.9,6.29,10.05,8.73-.18-2.95-.36-5.31-.46-7.68-.23-5.31-2.64-10.11-3.09-15.37,.03-.7-.09-1.46,.64-1.89,6.84-1.15,13.68-2.33,20.54-3.41,1.34-.21,1.39-1.15,1.54-2.16,.28-.04,.56-.08,.84-.12,1.44,2.17,1.11,5.06,2.35,7.2,3.2,5.5,6.65,10.84,10.07,16.19,.43,.67,.33,2.13,1.43,1.91,1.37-.27,1.1-1.77,1.24-2.83,.69-5.57-1.38-10.76-2.03-16.14-.15-1.22-.3-2.51-.78-3.59-1.84-4.12-1.66-8.38-.96-12.67,.27-1.63,1.37-3.21,2.93-2.7,2.15,.71,4.03-.04,5.99-.37,.87-.15,2.12,.1,2.5-1.08,.39-1.22-.9-1.66-1.38-2.49,.27-.65,.8-.79,1.38-.84,.33,.54,.67,1.09,1,1.63-.07,.96,.26,1.55,1.25,1.54,.7,.03,1.41,.06,2.11,.09,.05,.34,.1,.68,.15,1.02-4.59,1.41-9.46,1.47-13.98,3.24,0,.44,0,.89,0,1.33-.32,.85-.68,1.68-.95,2.55-.88,2.81,.83,5.08,3.48,4.63,3.62-.62,7.24-1.27,10.87-1.89,2.11-.36,2.66-1.84,2.22-3.8-.3-1.35-1.18-2.55-1.01-4.05,.7,0,1.39,.02,2.09,.03,.18,2.89,.12,5.82,.6,8.65,.84,4.91,2.24,9.68,3.46,14.5,1.29,5.07,2.96,10.07,3.39,15.6,2.03-.95,2.87-2.53,3.16-4.37,.2-1.3,.71-2.31,1.49-3.23,.32,0,.63,0,.95,.01,.02,3.01-.72,5.98-2.96,7.69-2.55,1.94-2.45,4.29-2.2,6.96,.13,1.4-.59,3.43,.36,4.07,1.31,.89,2.32-1.12,3.27-1.93,5.63-4.82,11.07-10.13,12.17-18.17,.95-6.97,2.8-13.89,2.22-21.06,.36-.05,.73-.1,1.09-.15,.2,.73,1.46,.35,1.33,1.44-1.89,1.83-1.95,3.69-.04,5.55,2.9,4.51,8.92,6.43,14.87,4.84,8.03-2.14,16.08-3.4,24.15-.17,.8,.32,.58-.5,.68-.93,.56,0,1.11,0,1.67,0,.27,.99,.45,2.02,.85,2.94,.39,.87,1.32,1.4,2.11,1.27,.77-.13,.5-1.2,.58-1.89,.27-2.34,0-4.68-1.35-6.53-3.83-5.27-8.89-8.51-14.97-10.14-2.49-.67-3.98-.41-3.93,2.69,.02,.96-.84,1.45-1.01,2.38,1.54,.38,2.94,.74,4.35,1.09-.03,.39-.06,.78-.09,1.16-5.92-.88-11.89-1.04-17.85-1.2-2.69-.07-4.77-.85-6.36-3.14-1.05-.61-1.81-1.79-2.47-3.87-.09-.29-.2-.58-.31-.87,.39-.08,.78-.16,1.17-.23,0,0,.06-.1,.06-.1,.27,.27,.54,.54,.81,.81,2.04,3.47,4.09,6.37,8.8,5.93,4.32-.4,4.82-.61,2.95-4.93-.16-.37-.42-.69-.58-1.06-1.26-2.83-2.67-5.6-3.53-8.62l1.68-.04c.1,.08,.22,.11,.34,.11,.17,3.15,1.51,4.24,4.52,3.46,3.19-.84,6.41-1.73,9.76-1.64,.57,.05,1.14,.1,1.96,.16-.81,.6-1.66,.23-2.03,1.02-.34,.74-.77,1.44-1.02,2.21-.58,1.77-.27,2.78,1.78,3.15,6.01,1.09,11.52,3.56,15.44,8.73,2.3,3.03,5.1,4.86,8.31,6.56,4.88,2.59,7.26,7.3,7.62,13.11,.08,1.23,.4,2.03,1.39,3.05,4.95,5.04,8.27,11.07,7.47,18.72-.39,3.76-2.2,7.18-2.99,10.92-.43,2.08-.6,4.23-1.16,6.31-2.24,8.34-6.39,14.75-14.55,17.34-3,.95-5.38,3.13-8.2,4.45-8.72,4.1-17.95,5.88-27.35,6.3-4.38,.19-8.19,2.5-12.47,2.62-.19-.3-.38-.59-.56-.89,1.69-.93,3.81-.67,5.6-2.05-1.4-.69-2.83-.94-3.56-1.84-3.22-3.92-7.24-3.53-11.38-2.81,0-.38,0-.76-.01-1.13,1.34-.21,2.67-.44,4.01-.62,6.77-.91,13.13-2.89,18.6-7.56,1.48-1.26,.02-1.03-.38-1.39,.03-.37,.07-.75,.1-1.12,1.07,.22,2.15,.44,3.22,.65,.28,.3,.56,.6,.84,.9-2.5,2.85-6.01,4.27-9.39,7.19,2.37,0,4,.05,5.62,0,10.35-.37,18.57-4.96,24.37-14.2,.61-.97,1.35-2.33,.74-3.47-.54-.99-1.79-.39-2.73-.33-.96,.06-1.91,.29-2.86,.44-4.15,.67-7.2,3.61-10.6,5.83-.22-.27-.44-.55-.66-.82-.35-.17-.71-.34-1.06-.51,.03-.19,.03-.37,0-.56,1.33-.8,2.86-.92,4.28-1.75,2.76-1.62,4.61-4.13,6.77-6.35,.5,.22,.6,.68,.61,1.18-.08,.55-.97,1.14,.08,1.63,.67,.46,1.25,.45,1.69-.35,1.73-.21,3.45-.42,5.18-.62,1.34,1.32,.32,3.08,.75,4.57-.65,1.79-1.29,3.58-1.96,5.42,5.84,.45,11.64-4.75,12.86-9.14,1.69-6.12,.48-11.79-2.89-16.97-1.44-2.21-2.56-1.98-3.78,.44-1.8,3.57-2.75,7.38-3.18,11.37-.55,0-1.1,0-1.64,0-.22-.23-.45-.45-.67-.68-.03-.47-.06-.93-.09-1.4,1.44-2.51,1.2-5.18,.64-7.88,.23-.27,.45-.54,.68-.81,.34,.07,.67,.13,1.01,.2,2.36-.54,2.86-2.86,3.43-4.72,.39-1.29-1.1-2.26-2.25-2.77-1.07-.48-.78,.77-1.09,1.25-.38,.04-.75,.07-1.13,.11,.01-1.78,.02-3.56,.03-5.35,5.97,4.07,10.18,9.75,13.08,16.73,4.03-6.02,4.16-13.75,.37-19.16-1.94-2.77-5.04-3.73-7.86-4.93-2.27-.97-5.46-3.51-6.83-1.97-1.65,1.84,.02,5.48,.65,8.29-.4,0-.79,0-1.19,.01-1.32-1.7-2.76-3.21-4.53-4.41-2.12-1.44-3.84-3.35-4.34-6.15-.14-.78-.4-1.31-1.23-1.47-2.76-.55-5.3-1.85-8.13-2.28-3.88-.6-7.92-1.25-10.16-5.49-.46-.87-.94-.84-1.56-.08-2.48,3.03-5.84,4.27-9.41,4.85-1.17,.19-1.54,.66-1.92,1.79-1.51,4.49-2.95,9.16-6.41,12.38-1.75,1.63-1.88,3.32-1.89,5.4-.04,8.49-2.98,15.29-10.13,19.64-.71,.43-1.56,.66-1.73,1.86-.49,3.41-2.16,6.05-4.93,7.88-.97,.64-.88,1.39-.4,2.37,.49,1,1.04,1.4,2.08,.96,1.07-.45,2.17-.8,3.26-1.19,0,.4,.01,.8,.02,1.2-.74,.77-2.06,.49-2.76,1.76,1.41,.56,2.75,1.03,4.03,1.64,1.37,.65,2.51,1.99,4.23,1.49,2.7-.78,5.4-1.56,8.1-2.34,1.05-.3,1.25-.85,.4-1.68,.32-.78,.98-.58,1.56-.63,1.27,.86,2.56,1.02,4.1,.72,2.34-.47,4.7-1.13,7.13-.83,.68,.19,1.65-.22,1.83,1.01-12.91,.99-24.84,6.17-37.92,9.77,2.47,.93,4.46,.39,6.36,1.9-1.54,.58-2.61,.39-3.68-.06-.37-.01-.74-.03-1.11-.04-3.24-.4-6.51-1.22-9.57,.88,.19,.89,.87,1.22,1.52,1.7,3.87,2.91,8.5,3.17,12.88,4.29-.18,.34-.36,.69-.55,1.03-.65,.13-1.28,.12-1.86-.28-.21-.05-.41-.11-.62-.16-2.27,.05-4.54-1.18-6.81,0-.66-.07-1.34-.2-1.84,.47-1.15,.69-2.44,.74-3.69,.95-.33,.07-.65,.15-.97,.22-.76,.08-1.52,.15-2.28,.23-.47-.07-.91-.02-1.23,.42-8.49,1.06-16.87,.38-25.15-1.88-.25-.29-.44-.19-.59,.12-9.85,2.38-19.74,3.82-29.77,1.35-1.2-.3-2.34-.87-3.5-1.31-.25-.18-.49-.35-.74-.53-.19,.04-.34-.02-.46-.19-1.17-.58-2.34-1.16-3.5-1.74-1.91-1.41-3.28-3.46-6.4-2.22-8.1,3.19-16.2,2.24-24.06-1.39-1.48-.68-2.95-.86-4.49-.23-.66,.27-1.79-.3-1.93,.83-.1,.79,.68,1.28,1.3,1.84,3.47,3.14,7.73,3.64,11.94,4.15,6.9,.83,13.75,0,20.56-1.23,.66,.18,1.45-.04,1.93,.7-.33,.04-.66,.07-1,.11-.24,.11-.48,.21-.73,.32-.71,.11-1.41,.22-2.12,.33-.26,.09-.53,.18-.79,.28-1.23,.34-2.46,.57-3.74,.39-.57-.13-1.11-.15-1.53,.38-5.44,.5-10.84,.45-16.27-.37-5.37-.82-10.56,1.3-15.88,1.63-5.24,.32-10.59,1.19-15.67-.17-4.74-1.27-9.28-1.36-13.97-.43-.62,.12-1.33,.31-2.06-.58,2.32-1.49,5.03-.82,7.77-1.82-2.37-2.78-4.77-4.96-7.61-6.63,.22-1.06,1.37-.55,1.82-1.22,6.9-.89,13.39-3.35,19.92-5.94-7.1-3.12-14.38-2.96-21.74-1.77-.15-1.32,.21-1.91,1.8-2.01,3.19-.21,6.38-.72,9.58-.34,2.99,.35,5.98,.52,8.95-.11,.04,.4,.09,.79,.13,1.19,.08,.73,.63,.92,1.14,1.19,4.12,2.21,7.83-.33,12.35-.98-2.69-1.31-4.93-.67-7.07-.99-.2-.37-.4-.74-.61-1.11,.2,0,.4-.01,.6-.02,.2,0,.39,0,.59,0,1.97-.17,3.93-.19,5.86,.4,.25,.04,.49,.07,.74,.11,.91-.2,1.72,.12,2.48,.62,1.16,.3,2.32,.26,3.47-.03,1.56,0,3.13,0,4.69,0,.35,0,.71,.02,1.06,.03,2.76,.9,5.19-.25,7.74-1.22,6.33-2.43,12.68-2.68,18.82,.81,.91,.52,1.84,.5,2.82,.43,1.94-.14,3.9-.25,5.8,.28,1.8,.5,3.37,.18,5.02-.73,3.06-1.7,6.34-2.49,9.83-1.92,.68,.88,1.47,.73,2.29,.28Zm53.81-55.11c1.46-.07,1.85-1.27,2.08-2.45,.12-.61-.5-.74-1-.62-1.47,.37-1.02,1.68-1.14,2.71-.01,.1,.01,.2,.02,.3-.07,.1-.15,.2-.22,.3,.09-.08,.18-.16,.28-.25Zm-20.38,47.29c.29,1.57,.17,3.36,1.91,4.33,.95-1.93-1.01-2.87-.96-4.37-.05-2.76-.07-5.4,1.02-8.12,2.15-5.35,1.27-8.41-3.17-12.87-.26,7.27,1.51,14.1,1.2,21.03Zm7.39,27.96c.72-.49,1.53-.54,2.35-.53,.61,.07,1.24,.19,1.79-.25,1.54-.94,3.52-.61,4.99-1.87-1.61-1.07-3.35-1.74-4.68-3.17-.95-1.02-2.23-1.3-3.51-.96-9.13,2.4-18.1,1.49-26.97-1.42-1.2-.39-2.23-.09-3.39,.12-2.45,.45-1.51,1.6-.56,2.59,1.73,1.81,3.79,3.09,6.14,3.8,.51,.74,1.22,.59,1.92,.5,7.04,1.66,14.16,1.7,21.31,1.24,.21-.02,.41-.04,.62-.06Zm23.66-53.14c-1.41-6.74-1.06-14.26-3.7-21.24-.49-1.3,.07-3.46-1.14-3.87-1.74-.59-1.99,2.17-3.41,2.81-.28,.13-.37,.7-.57,1.06-3.38,5.98-4.65,12.44-4.34,19.42,.29,6.62,.5,13.3,.07,19.9-.24,3.68,.29,6.52,2.86,8.86,1.24,1.13,2.33,1.21,3.8-.08,2.43-2.14,3.29-5.17,3.85-8,1.2-6.03,1.72-12.21,2.58-18.86Zm-76.03-14.1c-.65,2.41-2.25,4.12-2.39,6.42-.29,4.99,1.73,9.32,3.63,13.66,1.81,4.13,5.13,6.88,8.23,9.73,7.15,6.58,14.8,12.43,23.5,16.51,1.4,.66,3.57,2.52,4.59,.52,.87-1.7-1.16-3.56-2.55-4.7-2.38-1.95-4.5-4.11-6.46-6.51-4.52-5.53-9.02-11.09-13.71-16.45-3.78-4.31-8.44-7.66-11.44-12.85-1.15-1.99-.9-4.76-3.39-6.33Zm38.51-6.53c-1.69,.47-2.42,1.47-3.21,2.72-2.46,3.94-2.53,8.25-2.29,12.72,.29,5.45,1.41,10.76,2.13,16.13,.66,4.97,.84,10.02,1.99,14.92,.61,2.61,2.24,4.04,4.52,4.72,1.5,.45,2.3-.38,2.07-1.98-1.25-8.84-1.18-17.74-1.26-26.64,0-.52,.08-1.08-.08-1.55-2.24-6.77-4.3-13.56-3.88-21.05Zm38.36,58.46c-2.53-1.89-6.12-3.31-7.95-3.45-14.45-1.16-27.48,4.78-40.89,9.03,.46,1.02,1.2,1.02,1.95,1.22,9.37,2.53,18.61,2.15,27.84-.97,6.21-2.1,12.52-3.85,19.04-5.83Zm-45.33-59.8c.21-2.52-.46-5.69-.61-8.89-.07-1.33-.41-2.22-1.92-1.91-3.62,.73-7.25,1.41-10.86,2.16-.41,.09-1.09-.03-.82,1.08,1.79,7.44,4,14.81,3.57,22.65-.13,2.32,1.85,2.77,3.17,3.57,1.16,.7,1.73-.7,2.49-1.48,4.45-4.55,5.05-10.38,4.99-17.17Zm1.5,31.62c-.46-1.44,.69-4.02-1.43-5.61-1.49-1.12-3.11-2.06-4.59-3.18-7.4-5.62-15.37-10.47-21.09-18.33-.38-.52-.72-2.17-2-1.61-1.17,.51-1.23,1.72-1.26,2.9-.12,4.89,2.41,8.63,5.18,11.95,6.39,7.68,14.73,12.39,23.41,16.47,2.39,1.12,2.12-.38,1.78-2.6Zm21.46-10.11c-.06-4.4-1.45-7.25-2.74-9.87-2.55-5.19-5.48-10.2-8.83-14.89-.38-.53-.48-1.49-1.43-1.18-.7,.23-.59,.96-.73,1.54-1.06,4.33-.48,8.67,.13,12.95,.87,6.08,2.64,11.89,6.06,16.96,.76,1.13,.71,3.28,2.29,3.28,1.65,0,1.69-2.27,2.36-3.43,1.16-2.01,2.85-3.93,2.9-5.35Zm-83.57,40.95c-3.21-1.54-5.65-2.79-8.38-3.41-5.65-1.27-11.19-.58-16.72,.7-7.19,1.67-14.13,4.24-21.11,6.84,15.64,4.54,30.49-.14,46.21-4.13Zm93.88-71.93c-.09-1.66-.21-3.31-.25-4.97-.05-2.28-.93-3.16-3.11-2.55-1.87,.52-3.79,.85-5.7,1.19-3.11,.55-3.26,1.4-2.19,4.64,1.87,5.71,2.44,11.7,1.98,17.73-.26,3.37-2.2,6.66-.25,10.1,.31,.55-.12,1.69,.9,1.65,.8-.03,.96-.96,1.16-1.63,.91-3.03,2.57-5.69,3.59-8.7,1.93-5.69,4.22-11.22,3.88-17.46Zm-62.62,70.96c-4.53-1.93-9.07-3.5-14.01-2.56-5.92,1.14-11.54,3.45-17.37,4.97-3.96,1.03-7.91,2.11-12.45,3.32,7.1,3.19,13.75,4.18,20.53,2.24,7.84-2.25,15.63-4.7,23.3-7.97Zm158.63-24.46c-2.86,1.38-4.99,2.68-7.44,2.79-1.56,.07-2.15,.81-2.28,2.47-.25,3.15-1.66,5.71-3.73,8-3.28,3.64-7.41,5.1-11.91,5.51-2.07,.19-3.36,1.32-4.64,2.74-.73,.81-.8,1.43,.43,1.6,2.1,.3,4.21,.84,6.32,.82,10.5-.13,16.4-3.45,20.56-13.47,1.28-3.08,1.72-6.56,2.69-10.46Zm-15.14-27.72c-.16-1.17-.82-1.78-.96-2.66-.74-4.47-3.5-7.5-6.68-10.22-4.67-3.99-10.14-3.49-15.54-3.2-1.94,.1-5.01-.61-5.5,1.42-.62,2.57,2.19,4.25,3.91,6.01,.19,.2,.56,.19,.78,.37,3.07,2.45,6.92,2.37,10.36,3.62,4.44,1.61,8.92,3.06,13.63,4.66Zm-184.45-10.7c5.21,4.22,8.37,3.83,11.92-1.09,2.26-3.14,4.56-6.24,6.67-9.49,1.18-1.82,2.68-2.49,4.62-2.65,2.35-.19,4.7-.49,7.01-1.4-3.06-4.71-8.46-6.59-13.44-4.05-4.52,2.31-7.4,6.11-9.92,10.64-1.65,2.97-1.62,7.83-6.85,8.04Zm76.24,62.39c-4.1-2.74-8.08-2.66-12.07-2.68-7.98-.04-15.32,3.23-22.94,5.02-2.63,.62-5.14,1.81-8.32,2.96,3.54,1.5,6.46,2.37,9.56,2.65,11.94,1.09,22.21-5.39,33.77-7.95Zm-82.47,13.83c-2.01-1.66-3.7-2.67-4.9-4.14-1.21-1.48-2.33-1.54-4.03-1.36-7.56,.79-15.18,1.42-22.49-1.48-1.84-.73-3.37-.45-5.06-.14-1.48,.28-1.25,1.17-.46,1.88,2.93,2.63,5.84,5.4,9.74,6.22,8.91,1.87,17.71,.37,27.21-.99Zm184.29-11.99c-1.14-.12-2.35,0-3.41-.39-5.07-1.88-9.99-2.22-14.76,1-.55,.37-1.27,.46-1.93,.62-5.15,1.3-10.35,1.53-15.61,.81-1.87-.26-4.7,.08-5,1.33-.4,1.72,2.26,2.24,3.72,3.06,.84,.47,1.82,.65,2.76,.89,5.16,1.33,10.26,.17,15.31-.73,6.55-1.16,13.04-2.69,18.91-6.6Zm16.99-53.53c-.49,1.64-.31,3.34-1.44,4.26-1.74,1.43-1.19,2.97-.21,4.26,.56,.74,.63,1.42,.79,2.2,1.2,5.87,.25,11.19-3.49,15.82-.51,.63-.98,1.54-.51,2.28,.48,.77,1.43,.51,2.17,.3,3.58-1.04,6.47-2.47,8.37-6.61,3.51-7.63,.37-18.06-5.68-22.51Zm-149.53,66.47c5.24-.18,10.47-.52,15.62-1.72,.6-.14,1.94,.31,1.43-1.16-.79-2.3-5.17-4.37-7.48-3.77-7.56,1.99-15.01,1.87-22.29-1.37-1.59-.71-3.12-.93-4.73-.02-.64,.36-1.72,.09-1.8,1.17-.08,1.03,.7,1.45,1.52,1.97,5.47,3.49,11.36,5.13,17.73,4.88Zm54.81-63.04c-.51,.45-.78,.58-.91,.81-3.29,6.1-6.87,12.06-9.75,18.38-2.54,5.56-4.34,11.52-2.53,17.93,.23,.8,.19,1.87,1.16,1.82,.94-.04,1.04-1.08,1.36-1.94,.55-1.49-.62-2.78-.1-4.2,2.02-5.53,4.05-11.29,7.58-15.7,4.25-5.33,2.9-11,3.19-17.09Zm93.62-6.07c.22-2.25-1.05-4.1-1.5-6.17-.92-4.21-3.91-6.59-7.31-8.48-.64-.35-1.74-.52-1.71,.24,.13,3.22-2.03,6.6,.07,9.59,1.54,2.19,1.95,4.6,2.43,7.09,.22,1.13,4.25,4.75,5.24,4.63,.33-.04,.85-.34,.9-.61,.4-2.18,2.1-3.92,1.88-6.3Zm-93.49,21.3c-3.06,3.1-4.18,6.63-5.84,9.75-2.38,4.48-3.75,9.37-3.82,14.58-.01,.92,.29,1.94,1.27,2.24,1,.31,1.52-.46,2.07-1.26,1.98-2.84,3.42-6.1,5.84-8.61,.3-.32,.45-.94,.46-1.42,.03-4.84,.02-9.67,.02-15.28Zm22.66-7.66c-2.14,1.52-4.24,3.06-6.38,4.53-.54,.37-.85,.79-.91,1.46-.34,4.19-.69,8.38-1.03,12.6,5.39-2.07,9.54-11.73,8.32-18.58Zm-51.69-30.17c.7,3.6,.64,7.34,.69,11.07,0,.47-.24,1.11,.31,1.37,.61,.28,.99-.17,1.45-.64,1.84-1.86,3.62-3.54,4.43-6.42,.7-2.46,.96-6.39-1.01-7.54-1.62-.95-3.55,.2-5.33,.53-.76,.14-.58,.94-.55,1.64Zm-12.97,40.34c1.56,1.91,2.94,3.68,4.39,5.37,3.14,3.67,6.3,7.32,9.51,10.92,.71,.8,1.35,.7,1.46-.64,.26-3.15-.79-6.09-1.61-8.96-.46-1.62-2.91-1.67-4.45-2.44-1.83-.91-3.57-2.07-5.46-2.81-1.18-.47-2.09-1.86-3.84-1.45Zm-34.55,27.53c-6.33-3.47-13.42-3.38-19.26,0,6.23,5.87,12.62,2.05,19.26,0Zm132.43-74.82c1.56,.21,2.18-.66,2.66-2.17,.74-2.33,.41-4.87,1.62-7.14,.6-1.12,.17-2.48-1.71-2-1.98,.5-3.99,.83-5.99,1.22-.55,.11-1.19-.07-1.48,.68-.32,.84,2.95,9,3.75,9.25,.37,.12,.77,.11,1.16,.17Zm-64.9,72.82c-1.27-.93-2.12-2.16-3.45-1.84-2.83,.67-5.51-.88-8.36-.43-.98,.16-1.82-.48-1.82,1.18,0,2.17-1.5,2.2-2.87,1.96-1.12-.2-2.19-.75-3.26-1.21-.7-.31-1.35-.49-1.67,.45-.36,1.07,.44,1.18,1.11,1.31,1.91,.38,3.77,.93,5.46,1.94,.91,.54,1.71,.72,2.74,.38,3.86-1.26,7.76-2.41,12.12-3.74Zm16.04-.93c-2-3.1-3.97-5.14-6.23-6.89-3.03-2.35-2.19,1.94-3.68,2.52-.92,.36-2.16,2.21-1.01,3.94,.18,.27,.67,.41,1.02,.42,3.16,.03,6.32,.02,9.91,.02Zm-48.23,1.78c2.22,0,4.43,0,6.65,0,.19,0,.39-.04,.58,0,1.18,.26,1.91-.6,2.3-1.46,.62-1.36-.87-1.36-1.45-1.78-1.58-1.13-3.31-2.03-4.96-3.06-.65-.41-1.46-.7-1.74,.12-.63,1.83-2.27,3.01-2.63,5.02-.23,1.27,.05,1.76,1.26,1.15Zm84.7-61.28c-1.39-.61-2.5-1.33-3.7-1.57-1.86-.36-3.2-3.8-4.92-1.97-1.14,1.21-.62,4.15-.97,6.29-.33,2.03,.72,2.15,2.02,1.72,2.66-.88,5.37-1.69,7.57-4.47Zm-105.83,62.98c7.29,2.74,9.38,2.65,16.06-.6-5.25-2.98-11.54-2.83-16.06,.6Zm67.8-76.6c-.76,.33-2.01,.37-1.56,1.67,1.21,3.48,1.01,7.07,1.08,10.66,.03,1.46,1.12,1.57,2.08,1.48,1.16-.1,1.99-1.32,1.74-2.17-1.01-3.36-1.29-6.82-1.74-10.26-.15-1.13-.89-1.15-1.61-1.38Zm51.18,19.07c-1-2.5-2.7-3.94-3.75-5.88-.87-1.61-2.44-.01-3.69,.09-.49,.04-1.35,.08-1.28,.92,.1,1.18,.77,1.99,1.8,2.58,2.06,1.18,4.23,1.85,6.92,2.3Zm-86.6,23.13c-.18-2.08-.18-3.54-.45-4.94-.22-1.11,.35-2.79-1.04-3.18-1.32-.38-1.38,1.52-2.19,2.09-2.2,1.53-1.9,2.57,.32,3.65,1.02,.5,1.9,1.33,3.37,2.38Zm97.51-18.57c-.09,2.9,1.95,4.11,3.43,5.62,.65,.66,1.51,.74,1.66-.86,.33-3.48-.29-4.16-5.1-4.76Z"/>
  <path class="cls-7" d="M75.15,37.09c2.63,2.06,4.12,5.15,5.99,7.85,6.78,9.74,13.96,19.1,21.26,28.4,6.24,7.95,12.97,15.3,20.33,22.03,.79,.73,1.65,1.37,3.16,2.63-4.5,.11-8.34,3.45-12.02-.12-4.53-4.39-8.86-9.02-13-13.85-5.48-6.41-10.7-13.06-15.85-19.77-2.85-3.71-5.5-7.61-8.16-11.48-.73-1.05-1.21-1.84-1.87-.04-.94-2.85,.53-5.63,.18-8.51-.28-2.34-.04-4.75-.02-7.14Z"/>
  <path class="cls-5" d="M286.03,78.3c-3.34-.08-6.57,.81-9.76,1.64-3.01,.79-4.35-.31-4.52-3.46,1.69-.83,3.25-1.78,3.2-4.14,.35-.12,.7-.23,1.05-.35,1.48,.8,2.93,1.34,4.14-.48,1.98-.39,3.98-.7,5.94-1.22,.99-.26,2.48,.43,2.83-1.38,.62-.03,1.23-.07,1.85-.1,1.36,.01,2.75,.24,4.07,0,6.02-1.1,12.06-2.17,18.03-3.57,4.7-1.1,9.62-1.09,14.11-3.17,2.75,1.53,5.68,2.88,5.71,6.96-9.11,1.79-18.22,3.57-27.33,5.38-6.44,1.28-12.87,2.59-19.31,3.89Z"/>
  <path class="cls-12" d="M276,72c-.35,.12-.7,.23-1.05,.35-1.07,.33-2.3,2.19-3.16,.71-1.09-1.88,1.14-2.02,2.09-2.8,2.15-1.76,4.92-2.75,6.26-5.56,2.75-1.7,4.36-4.61,5.73-7.37,1.74-3.48,3.08-7.28,3.02-11.47-.03-2.18-.29-3.16-2.67-2.91-3.21,.33-3.36,0-1.82-2.96,1.38-2.65,3.01-5.16,4.47-7.76,.7-1.25,1.51-1.28,2.28-.24,2.22,2.99,3.93,6.38,6.31,9.27,.94,1.14-.05,1.46-1.09,1.58-4.45,.51-4.38,.54-4.84,5.26-.73,7.37-3.37,13.65-9.3,18-.41,.3-.56,1.02-.82,1.54-.04,.2-.07,.41-.11,.61-2.18,.59-3.63,2.35-5.3,3.75Z"/>
  <path class="cls-11" d="M230.5,75.87c1.23-5.44,4.72-8.92,9.54-9.89,5.69-1.14,11.21,.03,15.18,5.33,.29,.39,.58,.78,.81,1.09,.78-.09,.86-.61,.95-1.12,1.28-7.51,5.35-11.33,12.58-11.78,3.89-.24,7.55,.23,10.21,3.78-.19,.7-.6,1.08-1.31,1.01-2.38-3.73-8.33-4.27-13.31-2.22-3.92,1.62-6.04,4.49-6.19,9.1-.09,2.83,.41,5.57,.66,8.35-.36,0-.72,0-1.09,0-1.15-1.09-.26-4-2.93-3.73-1.19-1.23-4.95-.95-5.55,.45-.08,.18,.21,.54,.32,.82-.36,.07-.72,.14-1.07,.21-.44-.35-.89-.69-1.33-1.05-.67-.55-1.65-.76-1.97-.04-.53,1.19,1.05,.73,1.35,1.4-3.66,.93-4.59,4.6-2.05,8.04-.64,.05-1.27,.1-1.91,.15-.86-3.07-.69-6.15,.04-9.2,.44-1.86,1.6-2.75,3.44-2.45,2.61,.43,5.01-.39,7.6-1.11-6.56-7.53-14.07-8.13-19.88-1.61-1.69,1.89-2.84,4.31-3.55,6.88-.88-.62-.4-1.59-.55-2.4Z"/>
  <path class="cls-8" d="M75.08,167.46c7.36-1.19,14.64-1.35,21.74,1.77-6.52,2.58-13.02,5.05-19.92,5.94-2.19-.94-2.4-2.88-2.19-5.02,.09-.9,.24-1.79,.36-2.69Z"/>
  <path class="cls-14" d="M286.03,78.3c6.44-1.3,12.87-2.61,19.31-3.89,9.11-1.81,18.22-3.59,27.33-5.38,.94,.22,1.93-.43,2.9,.16,.03,1.67-1.37,1.24-2.09,1.38-12.67,2.47-25.36,4.86-38.05,7.25-3.15,.59-6.31,1.11-9.47,1.66,.37-.79,1.22-.43,2.03-1.02-.82-.07-1.39-.12-1.96-.16Z"/>
  <path class="cls-12" d="M245.66,59.56c-10.11-13-20.77-25.34-35.58-33.58,3.67,.05,6.17,1.84,8.5,3.62,9.42,7.19,17.72,15.68,25.1,25.22,.97,1.26,2.21,2.27,2.68,3.91-.23,.28-.46,.56-.69,.83Z"/>
  <path class="cls-14" d="M200.87,92.49c-.28,.04-.56,.08-.84,.12-.72-1.87,.24-4.52-2.3-5.53-.19,.03-.37,.05-.56,.08-.21-.06-.43-.12-.64-.18,.39-1.1,1.93-.12,2.41-1.95-2.76,.48-5.28,.92-7.8,1.37-.35-.43-.7-.86-1.04-1.29-.09-.35-.19-.69-.28-1.04,.29-.23,.58-.47,.87-.7,3.06,2.69,7.99,.99,9.54-2.96,3.79-9.67,16.44-13.95,23.37-5.32-.59,.04-1.12,.19-1.38,.84-5.79-5.81-12.85-5.11-18.06,1.38-3.67,4.57-4.08,9.67-3.3,15.19Z"/>
  <path class="cls-12" d="M148.67,109.65c-3.93,1.88-7.85,3.78-11.79,5.63-.96,.45-2.24,1.57-2.82-.31-.48-1.55,1.03-1.5,1.87-1.93,3.88-2,7.75-4.01,11.62-6.02,3.32-1.03,6.49-2.43,9.44-4.36,.88,.11,1.57-.28,2.2-.89,.53,.07,1.07,.16,1.39-.49,.19,.03,.33-.06,.4-.25,.88-.21,1.83-.23,2.1,.86,.21,.84-.8,1.04-1.28,1.4-.76,.58-1.71,.88-2.58,1.29-3.57,1.56-7.27,2.83-10.55,5.06Z"/>
  <path class="cls-14" d="M281.92,67.74c11.84-2.19,23.68-4.37,35.52-6.56,2.77-.51,5.51-1.14,8.29-1.58,.66-.11,2.57-.83,1.17,1.35-.57-.07-1.16-.2-1.52,.49l.04-.02c-2.34-.08-4.63,.1-6.76,1.26,0,0,.04-.02,.04-.02-9.07,1.01-17.97,3.12-26.92,4.85-2.79,.36-5.63,.49-8.17,2.03l.04-.02c-.57-.03-1.13-.07-1.7-.1-.06-.18-.13-.36-.22-.52l.19-1.16Z"/>
  <path class="cls-14" d="M113.04,98.84c1.13,.42,1.94,1.1,1.79,2.54-.47,.63-1.73-.12-1.82,1.18l.04-.03c-.93-.4-1.78-.45-2.37,.63l.02-.03c-2.25-.1-3.95,1.42-5.87,2.3-1.61,.74-3.17,2.45-3.09,3.67,.09,1.52,2.25,2.15,3.85,2.62,4.19,1.22,8.45,.93,12.7,.77,0,.36,.02,.72,.02,1.08-5.44,.87-10.81,.96-15.91-1.69-2.77-1.44-2.92-4.18-.45-6.23,2.96-2.45,6.37-3.82,9.93-4.8,1.2-.33,1.79-.66,1.15-2Z"/>
  <path class="cls-12" d="M167.98,55.24c1.86-8.7,5.22-16.72,10.2-23.87,1.15-1.65,2.41-3.74,5.52-4.04-8.79,8.41-11.73,19.51-15.18,30.34-.85-.64-.34-1.63-.53-2.43Z"/>
  <path class="cls-14" d="M232.83,182.86c.18-.34,.36-.69,.55-1.03,8.76,1.28,17.53,1.5,26.31,.23,.19,.3,.38,.59,.56,.89-6.87,2.01-13.87,1.51-20.83,1-2.19-.16-4.49-.07-6.59-1.09Z"/>
  <path class="cls-3" d="M325.41,61.42s-.04,.02-.04,.02c.46,.01,.92,.03,1.38,.04,.07,.2,.14,.39,.21,.59-4.5,2.09-9.42,2.07-14.11,3.17-5.97,1.4-12,2.47-18.03,3.57-1.32,.24-2.71,.01-4.07,0,.35-.2,.7-.4,1.05-.6,4.56-.83,9.17-1.46,13.68-2.54,4.4-1.05,9.03-.94,13.21-3.03,0,0-.04,.02-.04,.02,2.36,.24,4.64-.05,6.76-1.26Z"/>
  <path class="cls-12" d="M167.98,55.24c.19,.81-.32,1.79,.53,2.43-.3,4.53-2.28,8.66-2.68,13.16-.46-.01-.91-.03-1.37-.04,.59-5.34,1.36-10.62,3.51-15.56Z"/>
  <path class="cls-11" d="M119.92,121.98c-1.19,.09-2.31-.15-2.03-1.32,.45-1.9,2.39-1.18,3.63-1.72,.86-.37,1.73,.27,1.62,1.19-.27,2.22-2.46,.88-3.22,1.85Z"/>
  <path class="cls-11" d="M126.09,117.49c1.49-.44,2.62-2.42,4.38-.63,.58,.59,.34,.98-.19,1.41-1.56,1.27-2.92,1.23-4.19-.78Z"/>
  <path class="cls-14" d="M230.5,75.87c.14,.81-.33,1.78,.55,2.4-.07,1.04-.14,2.09-.21,3.13-.7,0-1.39-.02-2.09-.03l-.17,.1c-.45-.63,1.29-1.8-.46-2.11-.05-.34-.1-.68-.15-1.02,1.23-.38,1.67-1.67,2.53-2.47Z"/>
  <path class="cls-12" d="M245.66,59.56c.23-.28,.46-.56,.69-.83,2.03,.48,1.55,3.18,3.16,4.08,.41,.23,.08,.82-.28,.96-.45,.18-1.02,.2-1.27-.38-.61-1.39-2.06-2.19-2.3-3.83Z"/>
  <path class="cls-3" d="M95.55,166.18c-.04-.4-.09-.79-.13-1.19,1.93-.75,3.94-.76,5.95-.69,.2,.37,.4,.74,.61,1.11-2.14,.26-4.28,.52-6.42,.78Z"/>
  <path class="cls-14" d="M148.67,182.95c-.48-.75-1.27-.52-1.93-.7,.81-1.02,2.64,.01,3.08-1.74,1.17,.58,2.34,1.16,3.5,1.74-1.55,.24-3.11,.47-4.66,.71Z"/>
  <path class="cls-14" d="M164.47,70.79c.46,.01,.91,.03,1.37,.04-.07,1.85-.13,3.71-.2,5.56-.42,.01-.83,.03-1.25,.04-.03-.55-.07-1.1-.1-1.66,0-.38,0-.75,0-1.13,.06-.95,.13-1.9,.19-2.86Z"/>
  <path class="cls-14" d="M225.85,78.26c-.98,0-1.31-.59-1.25-1.54,.54,.4,1.29,.61,1.25,1.54Z"/>
  <path class="cls-3" d="M115.11,165.36c-1.16,.29-2.31,.33-3.47,.03,1.16-.17,2.31-.35,3.47-.03Z"/>
  <path class="cls-14" d="M173.17,163.33c-.82,.45-1.61,.6-2.29-.28,.78-.07,1.56-.17,2.29,.28Z"/>
  <path class="cls-13" d="M164.38,76.43c.42-.01,.83-.03,1.25-.04-.39,1.14-.81,.99-1.25,.04Z"/>
  <path class="cls-14" d="M221.72,182.87c.5-.67,1.18-.54,1.84-.47-.61,.16-1.23,.31-1.84,.47Z"/>
  <path class="cls-9" d="M326.75,61.48c-.46-.01-.92-.03-1.38-.04,.36-.68,.95-.55,1.52-.49,.03,.2-.01,.38-.14,.53Z"/>
  <path class="cls-10" d="M281.92,67.74c-.06,.39-.13,.77-.19,1.16-.14-.22-.29-.43-.43-.65,.04-.21,.07-.41,.11-.61,.18,0,.35,.04,.51,.11Z"/>
  <path class="cls-14" d="M138.77,184.76c.42-.53,.96-.51,1.53-.38-.44,.45-.97,.48-1.53,.38Z"/>
  <path class="cls-14" d="M213.54,184.68c.32-.43,.75-.49,1.23-.42-.41,.14-.82,.28-1.23,.42Z"/>
  <path class="cls-14" d="M217.05,184.04c.32-.07,.65-.15,.97-.22-.32,.07-.65,.15-.97,.22Z"/>
  <path class="cls-14" d="M144.04,183.98c.26-.09,.53-.18,.79-.28-.26,.09-.53,.18-.79,.28Z"/>
  <path class="cls-14" d="M146.95,183.38c.24-.11,.48-.21,.73-.32-.24,.11-.48,.21-.73,.32Z"/>
  <path class="cls-14" d="M230.36,182.41c.21,.05,.41,.11,.62,.16-.21-.05-.41-.11-.62-.16Z"/>
  <path class="cls-14" d="M187.81,182.92c.15-.31,.33-.41,.59-.12-.2,.04-.39,.08-.59,.12Z"/>
  <path class="cls-14" d="M153.79,182.43c.25,.18,.49,.35,.74,.53-.25-.18-.49-.35-.74-.53Z"/>
  <path class="cls-3" d="M120.86,165.4c-.35,0-.7-.02-1.06-.03,.36-.27,.71-.24,1.06,.03Z"/>
  <path class="cls-3" d="M109.16,164.77c-.25-.04-.49-.07-.74-.11,.25,.04,.49,.07,.74,.11Z"/>
  <path class="cls-3" d="M102.56,164.27c-.2,0-.39,0-.59,0,.2,0,.39,0,.59,0Z"/>
  <path class="cls-14" d="M119.53,113.44c.26-.2,.42-.08,.53,.19-.19-.01-.37-.08-.53-.19Z"/>
  <path class="cls-13" d="M164.27,73.65c0,.38,0,.75,0,1.13-.3-.37-.31-.75,0-1.13Z"/>
  <path class="cls-8" d="M259.69,182.06c-8.78,1.27-17.55,1.04-26.31-.23-4.38-1.12-9.01-1.38-12.88-4.29-.64-.48-1.32-.82-1.52-1.7,3.06-2.1,6.33-1.28,9.57-.88,.37,.19,.73,.39,1.11,.04,1.07,.45,2.14,.64,3.68,.06-1.89-1.52-3.88-.97-6.36-1.9,13.09-3.6,25.01-8.78,37.92-9.77,1.77,.22,3.53,.44,5.3,.66,.38,.07,.77,.14,1.15,.21,.4,.14,.8,.27,1.19,.41,.4,.37,1.86,.13,.38,1.39-5.46,4.67-11.82,6.65-18.6,7.56-1.34,.18-2.68,.41-4.01,.62h-17.34v1.11c5.77,.99,11.56,.64,17.35,.03,4.15-.72,8.16-1.11,11.38,2.81,.74,.9,2.17,1.15,3.56,1.84-1.78,1.38-3.9,1.12-5.6,2.05Z"/>
  <path class="cls-7" d="M237.66,130.33c-.87,6.65-1.38,12.83-2.58,18.86-.56,2.83-1.43,5.86-3.85,8-1.46,1.29-2.55,1.22-3.8,.08-2.57-2.35-3.1-5.19-2.86-8.86,.43-6.6,.22-13.27-.07-19.9-.31-6.98,.96-13.44,4.34-19.42,.2-.35,.29-.93,.57-1.06,1.42-.64,1.67-3.4,3.41-2.81,1.21,.41,.64,2.56,1.14,3.87,2.65,6.97,2.29,14.5,3.7,21.24Z"/>
  <path class="cls-7" d="M230.83,81.4c.07-1.04,.14-2.09,.21-3.13,.71-2.57,1.86-4.99,3.55-6.88,5.81-6.52,13.31-5.91,19.88,1.61-2.59,.73-4.99,1.54-7.6,1.11-1.83-.3-2.99,.59-3.44,2.45-.73,3.05-.9,6.13-.04,9.2,.67,8.94,.38,17.86-.47,26.78-.79,.93-1.29,1.94-1.49,3.23-.29,1.84-1.13,3.42-3.16,4.37-.43-5.53-2.1-10.53-3.39-15.6-1.22-4.81-2.62-9.59-3.46-14.5-.48-2.83-.42-5.76-.6-8.65Zm11.9,16.63c0-1.27-.01-2.21,0-3.14,.02-1.22-.03-2.25-1.61-2.3-1.65-.06-1.95,.86-1.9,2.32,.05,1.65,0,3.31,.02,4.97,.01,1.38,.13,2.58-1.79,2.81-1.52,.18-1.51,1.4-.35,2.31,1.39,1.09,1.32,2.55,1.16,4.09-.07,.71-.16,1.43-.16,2.15,0,.89,.49,1.41,1.3,1.2,1.32-.34,.26-.93,.13-1.53-.38-1.68-.86-3.5,.28-5,1.83-2.43,3.51-4.84,2.93-7.87Z"/>
  <path class="cls-7" d="M161.63,116.24c2.49,1.57,2.23,4.34,3.39,6.33,3,5.19,7.66,8.55,11.44,12.85,4.7,5.36,9.19,10.92,13.71,16.45,1.96,2.4,4.09,4.56,6.46,6.51,1.4,1.15,3.43,3,2.55,4.7-1.02,1.99-3.19,.13-4.59-.52-8.69-4.08-16.35-9.93-23.5-16.51-3.1-2.85-6.42-5.6-8.23-9.73-1.9-4.34-3.92-8.67-3.63-13.66,.14-2.3,1.73-4.01,2.39-6.42Z"/>
  <path class="cls-7" d="M189.83,84.07c.09,.35,.19,.69,.28,1.04-3.41,.86-6.76,2.22-10.36,1.53-1.71-.33-2.21,.72-2.46,2.18-.8,.36-1.21,1.03-1.11,1.93,.35,3.11-1.22,6.49,1.14,9.32,.45,5.26,2.86,10.06,3.09,15.37,.1,2.37,.28,4.73,.46,7.68-4.15-2.44-7.17-5.51-10.05-8.73-6.68-7.49-6.7-16.52-4-25.42,3.17-10.47,13.84-13,21.88-5.81,.36,.32,.75,.61,1.12,.91Z"/>
  <path class="cls-7" d="M200.87,92.49c-.78-5.53-.37-10.62,3.3-15.19,5.21-6.49,12.26-7.19,18.06-1.38,.48,.83,1.77,1.27,1.38,2.49-.38,1.19-1.63,.93-2.5,1.08-1.97,.34-3.84,1.08-5.99,.37-1.56-.51-2.67,1.07-2.93,2.7-.7,4.29-.87,8.55,.96,12.67,.48,1.09,.63,2.37,.78,3.59,.65,5.39,2.73,10.57,2.03,16.14-.13,1.07,.13,2.57-1.24,2.83-1.09,.21-1-1.24-1.43-1.91-3.42-5.35-6.87-10.69-10.07-16.19-1.25-2.14-.91-5.03-2.35-7.2Z"/>
  <path class="cls-7" d="M256.75,90.11c.58,7.17-1.27,14.09-2.22,21.06-1.1,8.03-6.54,13.34-12.17,18.17-.95,.81-1.96,2.82-3.27,1.93-.95-.64-.23-2.67-.36-4.07-.25-2.67-.35-5.02,2.2-6.96,2.24-1.71,2.98-4.68,2.96-7.69,.17-.66,.67-1.06,.83-1.85,1.01-5.17,.75-10.39,.98-15.6,.12-2.66-1.73-6.13,.47-7.77,1.99-1.49,5.17-1.17,7.83-1.65,.1-.02,.2,0,.29-.04,1.81-.63,1.9,.61,1.88,1.97-.73,.95-.26,1.54,.55,2.01-.06,.17-.05,.34,.05,.49Z"/>
  <path class="cls-7" d="M278.45,64.29c-1.93,2.38-4.22,4.19-7.02,5.25-2.12-.75-2.73,.2-2.56,2.37,.12,1.55,.3,3.05,.86,4.49,.86,3.02,2.27,5.79,3.53,8.62,.16,.37,.42,.69,.58,1.06,1.87,4.32,1.37,4.53-2.95,4.93-4.71,.44-6.76-2.46-8.8-5.93-.11-.45-.23-.89-.81-.81,0,0-.06,.1-.06,.1-.54-1.62-1.08-3.24-1.62-4.86-.26-2.78-.76-5.51-.66-8.35,.15-4.6,2.27-7.47,6.19-9.1,4.97-2.06,10.93-1.51,13.31,2.22Z"/>
  <path class="cls-7" d="M200.14,109.71c-.43,7.49,1.64,14.29,3.88,21.05,.15,.47,.07,1.03,.08,1.55,.08,8.9,0,17.8,1.26,26.64,.23,1.6-.58,2.43-2.07,1.98-2.28-.68-3.91-2.11-4.52-4.72-1.15-4.91-1.33-9.95-1.99-14.92-.72-5.38-1.83-10.68-2.13-16.13-.24-4.47-.18-8.78,2.29-12.72,.78-1.26,1.52-2.25,3.21-2.72Z"/>
  <path class="cls-8" d="M238.5,168.17c-6.52,1.98-12.84,3.73-19.04,5.83-9.23,3.12-18.47,3.5-27.84,.97-.75-.2-1.5-.2-1.95-1.22,13.41-4.25,26.44-10.19,40.89-9.03,1.83,.15,5.42,1.56,7.95,3.45Z"/>
  <path class="cls-7" d="M193.18,108.37c.06,6.79-.54,12.62-4.99,17.17-.76,.78-1.34,2.19-2.49,1.48-1.32-.8-3.29-1.25-3.17-3.57,.43-7.84-1.77-15.21-3.57-22.65-.27-1.11,.41-.99,.82-1.08,3.62-.75,7.25-1.43,10.86-2.16,1.51-.31,1.85,.58,1.92,1.91,.16,3.21,.83,6.37,.61,8.89Z"/>
  <path class="cls-7" d="M194.68,139.99c.34,2.22,.6,3.72-1.78,2.6-8.68-4.08-17.02-8.8-23.41-16.47-2.77-3.33-5.3-7.06-5.18-11.95,.03-1.17,.1-2.39,1.26-2.9,1.29-.56,1.62,1.09,2,1.61,5.72,7.86,13.69,12.71,21.09,18.33,1.49,1.13,3.1,2.07,4.59,3.18,2.12,1.59,.98,4.17,1.43,5.61Z"/>
  <path class="cls-8" d="M262.85,89.36c1.58,2.29,3.67,3.07,6.36,3.14,5.96,.15,11.93,.32,17.85,1.2,4.42,1.38,9.11,2.27,11.78,7.01-.1,.42,.11,1.25-.68,.93-8.08-3.23-16.12-1.97-24.15,.17-5.95,1.59-11.97-.33-14.87-4.84,.02-1.45,.05-2.89,.07-4.34,2.62,.7,2.49-2.1,3.65-3.26Z"/>
  <path class="cls-7" d="M216.13,129.87c-.06,1.42-1.74,3.34-2.9,5.35-.67,1.16-.71,3.43-2.36,3.43-1.57,0-1.52-2.15-2.29-3.28-3.42-5.07-5.19-10.87-6.06-16.96-.61-4.28-1.19-8.62-.13-12.95,.14-.58,.03-1.31,.73-1.54,.95-.31,1.05,.65,1.43,1.18,3.36,4.69,6.28,9.7,8.83,14.89,1.29,2.62,2.69,5.47,2.74,9.87Z"/>
  <path class="cls-8" d="M132.57,170.83c-15.71,3.99-30.57,8.67-46.21,4.13,6.98-2.6,13.91-5.17,21.11-6.84,5.53-1.28,11.07-1.97,16.72-.7,2.73,.61,5.17,1.87,8.38,3.41Z"/>
  <path class="cls-7" d="M226.45,98.9c.34,6.24-1.94,11.77-3.88,17.46-1.02,3.01-2.68,5.67-3.59,8.7-.2,.67-.36,1.6-1.16,1.63-1.02,.04-.58-1.09-.9-1.65-1.95-3.43,0-6.73,.25-10.1,.46-6.03-.11-12.03-1.98-17.73-1.07-3.25-.92-4.1,2.19-4.64,1.91-.34,3.83-.66,5.7-1.19,2.19-.61,3.07,.27,3.11,2.55,.03,1.66,.16,3.31,.25,4.97Z"/>
  <path class="cls-8" d="M163.83,169.86c-7.67,3.27-15.46,5.72-23.3,7.97-6.79,1.94-13.43,.95-20.53-2.24,4.54-1.21,8.49-2.29,12.45-3.32,5.83-1.51,11.45-3.83,17.37-4.97,4.94-.95,9.48,.63,14.01,2.56Z"/>
  <path class="cls-2" d="M322.46,145.4c-.97,3.9-1.41,7.38-2.69,10.46-4.16,10.02-10.06,13.34-20.56,13.47-2.1,.03-4.21-.51-6.32-.82-1.23-.18-1.17-.8-.43-1.6,1.28-1.41,2.57-2.55,4.64-2.74,4.49-.41,8.63-1.87,11.91-5.51,2.06-2.29,3.48-4.85,3.73-8,.13-1.66,.72-2.4,2.28-2.47,2.45-.11,4.58-1.42,7.44-2.79Z"/>
  <path class="cls-2" d="M307.32,117.68c-4.71-1.6-9.19-3.05-13.63-4.66-3.44-1.25-7.29-1.17-10.36-3.62-.22-.18-.59-.17-.78-.37-1.72-1.75-4.54-3.43-3.91-6.01,.49-2.03,3.56-1.32,5.5-1.42,5.4-.29,10.88-.79,15.54,3.2,3.18,2.72,5.94,5.75,6.68,10.22,.15,.89,.8,1.49,.96,2.66Z"/>
  <path class="cls-7" d="M122.87,106.98c5.23-.22,5.2-5.07,6.85-8.04,2.52-4.54,5.4-8.33,9.92-10.64,4.98-2.54,10.39-.66,13.44,4.05-2.31,.91-4.66,1.2-7.01,1.4-1.94,.16-3.44,.84-4.62,2.65-2.11,3.25-4.41,6.36-6.67,9.49-3.55,4.92-6.71,5.31-11.92,1.09Z"/>
  <path class="cls-8" d="M199.11,169.37c-11.56,2.56-21.83,9.04-33.77,7.95-3.09-.28-6.02-1.15-9.56-2.65,3.18-1.15,5.69-2.34,8.32-2.96,7.62-1.79,14.96-5.06,22.94-5.02,3.99,.02,7.97-.06,12.07,2.68Z"/>
  <path class="cls-2" d="M298.89,124.99c-.63-2.81-2.3-6.45-.65-8.29,1.37-1.53,4.56,1,6.83,1.97,2.82,1.2,5.92,2.16,7.86,4.93,3.79,5.41,3.66,13.14-.37,19.16-2.9-6.98-7.11-12.66-13.08-16.73-.2-.35-.39-.69-.59-1.04Z"/>
  <path class="cls-1" d="M281.86,160.54c3.4-2.21,6.45-5.15,10.6-5.83,.95-.15,1.9-.38,2.86-.44,.93-.06,2.19-.67,2.73,.33,.62,1.14-.13,2.5-.74,3.47-5.79,9.24-14.01,13.83-24.37,14.2-1.63,.06-3.25,0-5.62,0,3.38-2.91,6.89-4.34,9.39-7.19,1.88-1.3,3.63-2.77,5.15-4.55Z"/>
  <path class="cls-2" d="M300.55,148.08c.43-3.99,1.38-7.8,3.18-11.37,1.22-2.42,2.34-2.65,3.78-.44,3.37,5.17,4.58,10.85,2.89,16.97-1.21,4.39-7.02,9.59-12.86,9.14,.66-1.84,1.31-3.63,1.96-5.42,1.26-.56,1.05-1.81,1.08-2.86,.07-2.01,0-4.02-.03-6.03Z"/>
  <path class="cls-8" d="M116.64,183.2c-9.5,1.36-18.3,2.86-27.21,.99-3.9-.82-6.81-3.59-9.74-6.22-.79-.71-1.02-1.61,.46-1.88,1.7-.32,3.23-.59,5.06,.14,7.31,2.9,14.94,2.27,22.49,1.48,1.71-.18,2.82-.12,4.03,1.36,1.2,1.47,2.89,2.48,4.9,4.14Z"/>
  <path class="cls-8" d="M216.34,182.94c-.82-.01-1.63,.05-2.35,.53-.21,.02-.41,.04-.62,.06-7.15,.46-14.27,.42-21.31-1.24-.64-.17-1.28-.34-1.92-.5-2.35-.71-4.41-1.99-6.14-3.8-.95-1-1.89-2.15,.56-2.59,1.16-.21,2.19-.51,3.39-.12,8.87,2.9,17.85,3.82,26.97,1.42,1.28-.34,2.56-.05,3.51,.96,1.33,1.43,3.07,2.1,4.68,3.17-1.47,1.26-3.45,.93-4.99,1.87-.6,.08-1.19,.16-1.79,.25Z"/>
  <path class="cls-1" d="M300.93,171.2c-5.87,3.91-12.36,5.44-18.91,6.6-5.05,.9-10.15,2.06-15.31,.73-.93-.24-1.92-.43-2.76-.89-1.47-.82-4.13-1.33-3.72-3.06,.29-1.25,3.13-1.59,5-1.33,5.25,.72,10.45,.49,15.61-.81,.66-.17,1.38-.25,1.93-.62,4.76-3.23,9.68-2.88,14.76-1,1.05,.39,2.27,.27,3.41,.39Z"/>
  <path class="cls-2" d="M317.92,117.67c6.05,4.45,9.19,14.88,5.68,22.51-1.91,4.15-4.79,5.57-8.37,6.61-.74,.22-1.69,.47-2.17-.3-.47-.75,0-1.65,.51-2.28,3.74-4.64,4.69-9.96,3.49-15.82-.16-.77-.23-1.46-.79-2.2-.97-1.29-1.53-2.83,.21-4.26,1.13-.92,.96-2.62,1.44-4.26Z"/>
  <path class="cls-8" d="M168.38,184.14c-6.37,.25-12.26-1.39-17.73-4.88-.81-.52-1.59-.94-1.52-1.97,.08-1.08,1.17-.81,1.8-1.17,1.61-.91,3.13-.69,4.73,.02,7.27,3.24,14.73,3.35,22.29,1.37,2.32-.61,6.69,1.47,7.48,3.77,.51,1.47-.83,1.02-1.43,1.16-5.15,1.19-10.38,1.54-15.62,1.72Z"/>
  <path class="cls-7" d="M223.19,121.1c-.29,6.09,1.06,11.76-3.19,17.09-3.53,4.42-5.56,10.18-7.58,15.7-.52,1.42,.65,2.72,.1,4.2-.32,.86-.42,1.89-1.36,1.94-.97,.04-.93-1.02-1.16-1.82-1.81-6.41,0-12.36,2.53-17.93,2.89-6.32,6.46-12.27,9.75-18.38,.12-.23,.39-.36,.91-.81Z"/>
  <path class="cls-2" d="M316.8,115.03c.22,2.38-1.48,4.12-1.88,6.3-.05,.26-.57,.57-.9,.61-1,.11-5.03-3.5-5.24-4.63-.48-2.49-.9-4.9-2.43-7.09-2.1-2.99,.06-6.37-.07-9.59-.03-.76,1.07-.6,1.71-.24,3.4,1.89,6.39,4.27,7.31,8.48,.45,2.08,1.72,3.92,1.5,6.17Z"/>
  <path class="cls-5" d="M118.3,112.49c-4.26,.16-8.51,.45-12.7-.77-1.6-.47-3.76-1.09-3.85-2.62-.07-1.22,1.48-2.93,3.09-3.67,1.92-.88,3.61-2.4,5.87-2.3-.72,1.9-2.72,1.72-3.96,2.8-1.59,1.38-1.7,3.31,0,3.89,1.65,.56,3.44,1.11,5.78,.27-2.24-.85-4.33-.44-5.9-2.07,4.72-4.52,11-4.63,16.56-6.71-.67-1.3-1.94-.03-2.41-1.16,2.16-.38,4.32-.76,6.5-1.14-.38,3.89-1.97,5.83-5.22,6.43-.57,.1-1.18,.06-1.71,.26-1.14,.41-2.86,.05-3.21,1.58-.33,1.4,.88,2.25,1.94,3.07,1.94,1.49,.39,1.78-.77,2.13Z"/>
  <path class="cls-8" d="M149.83,180.5c-.45,1.75-2.27,.72-3.08,1.74-6.81,1.22-13.66,2.05-20.56,1.23-4.21-.5-8.47-1.01-11.94-4.15-.62-.56-1.4-1.05-1.3-1.84,.14-1.13,1.26-.56,1.93-.83,1.54-.63,3.02-.45,4.49,.23,7.86,3.64,15.96,4.59,24.06,1.39,3.12-1.23,4.49,.81,6.4,2.22Z"/>
  <path class="cls-5" d="M157,102.65c-1.44-.03-2.92-.41-4.23,.57-4.54-.55-9.04,.46-14.1,.57,1.43-2.77,2.34-5.44,5.31-6.29,6.43-1.2,12.86-2.4,19.29-3.59-.02,1.64-.03,3.28-.05,4.93-1.15,.27-2.29,.54-2.23,2.2-.07,.19-.21,.28-.4,.25-.19-.44-.29-1.09-.93-.84-.55,.21-.39,.84-.46,1.33-.62,.6-1.32,1-2.2,.89Z"/>
  <path class="cls-7" d="M223.32,136.33c0,5.61,.01,10.44-.02,15.28,0,.48-.15,1.11-.46,1.42-2.42,2.51-3.86,5.76-5.84,8.61-.55,.8-1.07,1.57-2.07,1.26-.98-.3-1.28-1.32-1.27-2.24,.06-5.21,1.44-10.11,3.82-14.58,1.66-3.12,2.78-6.65,5.84-9.75Z"/>
  <path class="cls-8" d="M287.14,92.53c-1.4-.35-2.81-.7-4.35-1.09,.16-.94,1.02-1.42,1.01-2.38-.05-3.1,1.45-3.36,3.93-2.69,6.08,1.63,11.14,4.87,14.97,10.14,1.34,1.85,1.62,4.18,1.35,6.53-.08,.68,.19,1.76-.58,1.89-.8,.13-1.73-.4-2.11-1.27-.41-.92-.58-1.96-.85-2.94-2.82-5.76-7.94-7.25-13.36-8.18Z"/>
  <path class="cls-5" d="M196.54,86.98c.21,.06,.43,.12,.64,.18,.22,.25,.4,.17,.56-.08,2.54,1,1.58,3.66,2.3,5.53-.15,1.01-.2,1.95-1.54,2.16-6.85,1.08-13.69,2.27-20.54,3.41-.7-2.26,.13-4.53-.03-6.8,.2-.21,.39-.41,.59-.62,1.62,.21,3.08-.57,4.62-.88,.59-.14,1.17-.28,1.76-.42,1.72,0,3.4-.25,4.94-1.13,2.41,.54,4.35-1.56,6.71-1.35Zm2.2,4.27c.08-1.29-.86-1.31-1.37-1.2-5.95,1.24-11.93,2.38-17.68,4.49-.65,.24-1.43,.49-.97,1.46,.32,.69,.98,.91,1.71,.65,5.51-1.91,11.2-3,16.85-4.29,.55-.13,1.36-.35,1.46-1.11Z"/>
  <path class="cls-7" d="M245.98,128.67c1.22,6.85-2.93,16.52-8.32,18.58,.35-4.21,.69-8.4,1.03-12.6,.05-.67,.37-1.09,.91-1.46,2.14-1.48,4.25-3.01,6.38-4.53Z"/>
  <path class="cls-5" d="M228.75,81.37c-.17,1.5,.71,2.69,1.01,4.05,.44,1.96-.11,3.43-2.22,3.8-3.62,.62-7.24,1.28-10.87,1.89-2.65,.45-4.36-1.82-3.48-4.63,.27-.87,.63-1.7,.95-2.55,2.73-.42,5.52-.58,8.06-1.91,2.15,.1,4.28,.04,6.38-.55l.17-.1Zm-1.59,3.09c-3.9,.68-7.8,1.37-11.71,2.03-.84,.14-1.2,.67-1.14,1.48,.07,.94,.71,1.14,1.47,1,3.89-.71,7.79-1.43,11.68-2.15,.81-.15,1.17-.67,1-1.53-.15-.73-.63-.98-1.3-.82Z"/>
  <path class="cls-7" d="M181.31,138.85c1.75-.41,2.66,.98,3.84,1.45,1.89,.75,3.63,1.9,5.46,2.81,1.55,.77,3.99,.83,4.45,2.44,.82,2.87,1.87,5.81,1.61,8.96-.11,1.34-.74,1.44-1.46,.64-3.21-3.6-6.37-7.26-9.51-10.92-1.45-1.69-2.83-3.46-4.39-5.37Z"/>
  <path class="cls-7" d="M151.56,112.02c-.07-3.37,2.73-3.39,4.62-4.41,.83-.45,1.86-.51,2.79-.74,1.26,1.6,1.79,3.58,2.39,5.49,1,3.15-2.01,4.36-3.21,6.32-.8,1.31-2.49-.64-3.29-1.5-1.35-1.46-3.27-2.68-3.31-5.16Z"/>
  <path class="cls-12" d="M259.61,79.52c.54,1.62,1.08,3.24,1.62,4.86-.39,.08-.78,.16-1.16,.23-1.87-.03-3.55,.07-2.48,2.94,.27,.72,.18,1.6,.25,2.41-.36,.05-.73,.1-1.09,.15-.1-.15-.12-.32-.05-.49,.06-.75,.24-1.53-.55-2.01,.02-1.36-.07-2.59-1.88-1.97-.09,.03-.19,.02-.29,.04-2.66,.48-5.83,.16-7.83,1.65-2.2,1.65-.35,5.11-.47,7.77-.23,5.21,.04,10.43-.98,15.6-.15,.79-.66,1.19-.83,1.85-.32,0-.63,0-.95-.01,.84-8.91,1.14-17.83,.47-26.78,.64-.05,1.27-.1,1.91-.15,2.55-.4,5.1-.8,7.64-1.21,.92,.05,1.89,.43,2.64-.5,1.21-.27,2.43-.54,4-.89-1.19-1.08-1.11-2.29-1.06-3.5,.36,0,.72,0,1.09,0Z"/>
  <path class="cls-8" d="M146.76,166.38c-6.64,2.04-13.03,5.86-19.26,0,5.84-3.38,12.93-3.47,19.26,0Z"/>
  <path class="cls-7" d="M279.19,91.57c-.39-.05-.79-.05-1.16-.17-.8-.25-4.07-8.41-3.75-9.25,.29-.75,.93-.58,1.48-.68,2-.39,4.02-.71,5.99-1.22,1.88-.48,2.3,.88,1.71,2-1.2,2.27-.88,4.81-1.62,7.14-.48,1.51-1.1,2.38-2.66,2.17Z"/>
  <path class="cls-8" d="M250.29,163.12c.85,.83,.65,1.37-.4,1.68-2.7,.78-5.4,1.56-8.1,2.34-1.72,.5-2.86-.84-4.23-1.49-1.28-.61-2.62-1.07-4.03-1.64,.7-1.27,2.01-.99,2.76-1.76,4.76-1.47,9.42-1.06,14,.87Z"/>
  <path class="cls-6" d="M230.32,163.45c-3.59,0-6.75,.01-9.91-.02-.35,0-.84-.15-1.02-.42-1.15-1.73,.09-3.58,1.01-3.94,1.49-.58,.65-4.87,3.68-2.52,2.26,1.76,4.23,3.79,6.23,6.89Z"/>
  <path class="cls-6" d="M182.09,165.23c-1.21,.61-1.48,.12-1.26-1.15,.36-2.01,2-3.18,2.63-5.02,.28-.82,1.09-.53,1.74-.12,1.65,1.03,3.38,1.93,4.96,3.06,.58,.41,2.07,.41,1.45,1.78-.39,.86-1.12,1.72-2.3,1.46-.18-.04-.38,0-.58,0-2.22,0-4.43,0-6.65,0Z"/>
  <path class="cls-7" d="M266.78,103.95c-2.2,2.78-4.92,3.59-7.57,4.47-1.3,.43-2.35,.31-2.02-1.72,.35-2.14-.18-5.08,.97-6.29,1.72-1.83,3.06,1.61,4.92,1.97,1.2,.23,2.32,.96,3.7,1.57Z"/>
  <path class="cls-8" d="M160.96,166.94c4.52-3.43,10.82-3.58,16.06-.6-6.68,3.25-8.77,3.34-16.06,.6Z"/>
  <path class="cls-7" d="M206.6,155.51c.32-6.93-1.46-13.76-1.2-21.03,4.44,4.46,5.32,7.52,3.17,12.87-1.09,2.72-1.07,5.36-1.02,8.12-.32,.01-.63,.03-.95,.04Z"/>
  <path class="cls-1" d="M275.88,164.19c-1.07-.22-2.15-.44-3.22-.65,0,0-.05,.04-.05,.04-.64-.86-1.59-.69-2.44-.83-.97-.48-1.59-1.08-.13-1.67,1.6-.65,3.25-1.12,4.89-1.66,1.74-.06,3.48-.13,5.21-.19,.35,.17,.71,.34,1.06,.51-2.06,1.1-3.55,2.97-5.32,4.47Z"/>
  <path class="cls-3" d="M120.78,100.16c.47,1.13,1.73-.14,2.41,1.16-5.57,2.08-11.85,2.19-16.56,6.71,1.57,1.64,3.66,1.22,5.9,2.07-2.33,.84-4.13,.29-5.78-.27-1.7-.58-1.58-2.51,0-3.89,1.24-1.08,3.24-.9,3.96-2.8,0,0-.02,.03-.02,.03,.94,.43,1.79,.5,2.37-.63,0,0-.04,.03-.04,.03,1.72,.2,3.29-.27,4.78-1.14,.55-.32,1.71,.6,1.65-.94,.37-.44,.83-.49,1.33-.33Z"/>
  <path class="cls-8" d="M279.94,109.41c-2.69-.44-4.86-1.12-6.92-2.3-1.03-.59-1.69-1.4-1.8-2.58-.07-.83,.79-.87,1.28-.92,1.25-.11,2.82-1.7,3.69-.09,1.05,1.95,2.75,3.38,3.75,5.88Z"/>
  <path class="cls-14" d="M274.92,159.4c-1.63,.55-3.29,1.02-4.89,1.66-1.46,.59-.85,1.19,.13,1.67,.02,.43,.03,.87,.05,1.3-1.77-.22-3.53-.44-5.3-.66-.18-1.22-1.15-.82-1.83-1.01,3.36-.99,6.3-3.18,9.74-3.91,1.39-.3,2.78-.73,4.22-.34-.49,.83-1.75,.22-2.12,1.28Z"/>
  <path class="cls-14" d="M250.34,175.36c-5.79,.62-11.58,.96-17.34-.03v-1.11h17.33c0,.38,0,.76,.01,1.13Z"/>
  <path class="cls-8" d="M95.55,166.18c2.14-.26,4.28-.52,6.42-.78,2.14,.31,4.38-.32,7.07,.99-4.51,.66-8.22,3.2-12.35,.98-.52-.28-1.06-.47-1.14-1.19Z"/>
  <path class="cls-7" d="M193.34,132.54c-1.47-1.06-2.35-1.88-3.37-2.38-2.22-1.08-2.51-2.11-.32-3.65,.81-.57,.87-2.47,2.19-2.09,1.39,.4,.82,2.08,1.04,3.18,.27,1.4,.28,2.86,.45,4.94Z"/>
  <path class="cls-2" d="M291.88,153.37c-1.06-.48-.16-1.08-.08-1.63,2.14-1.46,4.03-3.36,6.44-4.35,.22,.23,.45,.45,.67,.68-.06,1.44-.11,2.89-.17,4.33-1.73,.21-3.45,.42-5.18,.62-.56,.12-1.13,.23-1.69,.35Z"/>
  <path class="cls-14" d="M287.14,92.53c5.42,.94,10.54,2.42,13.36,8.18-.56,0-1.11,0-1.67,0-2.67-4.74-7.35-5.63-11.78-7.01,.03-.39,.06-.78,.09-1.16Z"/>
  <path class="cls-11" d="M250.29,163.12c-4.58-1.93-9.24-2.34-14-.87,0-.4-.01-.8-.02-1.2,5.39-1.92,10.56-1.23,15.58,1.43-.58,.05-1.24-.15-1.56,.63Z"/>
  <path class="cls-5" d="M228.57,81.47c-2.1,.59-4.23,.64-6.38,.55-2.73-.54-5.33,1.13-8.06,.58,4.52-1.76,9.39-1.82,13.98-3.24,1.74,.31,0,1.48,.46,2.11Z"/>
  <path class="cls-3" d="M163.26,93.91c-6.43,1.2-12.86,2.4-19.29,3.59-.21-.59-2.17-1.31,.11-1.73,4.05,.58,7.83-.69,11.62-1.95,0,0-.03,.02-.03,.02,2.58,.42,5.04-.8,7.6-.65,0,.24,0,.48,0,.72Z"/>
  <path class="cls-2" d="M290.85,113.97c4.81,.6,5.43,1.28,5.1,4.76-.15,1.6-1.02,1.51-1.66,.86-1.49-1.51-3.52-2.72-3.43-5.62Z"/>
  <path class="cls-2" d="M300.58,131.27c.31-.48,.02-1.73,1.09-1.25,1.14,.51,2.64,1.49,2.25,2.77-.56,1.86-1.07,4.18-3.43,4.72,.03-2.08,.06-4.16,.09-6.24Z"/>
  <path class="cls-14" d="M177.93,91.38c.16,2.27-.67,4.54,.03,6.8-.73,.43-.61,1.19-.64,1.89-2.36-2.83-.79-6.21-1.14-9.32-.1-.9,.31-1.57,1.11-1.93,.13,.88-.31,1.92,.64,2.56Z"/>
  <path class="cls-14" d="M298.89,124.99c.2,.35,.39,.69,.59,1.04-.01,1.78-.02,3.56-.03,5.34,0,1.98,.02,3.95,.03,5.93-.23,.27-.45,.54-.68,.81-.82-1.99-.68-4.12-.24-6.08,.58-2.55,.42-4.83-.86-7.04,.4,0,.79,0,1.19-.01Z"/>
  <path class="cls-14" d="M298.24,147.39c-2.42,1-4.3,2.89-6.44,4.35-.01-.51-.11-.96-.61-1.18,1.85-2.35,4.22-3.77,6.97-4.56,.03,.47,.06,.93,.09,1.4Z"/>
  <path class="cls-14" d="M298.74,152.4c.06-1.44,.11-2.89,.17-4.33,.55,0,1.1,0,1.64,0,.02,2.01,.1,4.03,.03,6.03-.04,1.04,.18,2.3-1.08,2.86-.43-1.49,.59-3.25-.75-4.57Z"/>
  <path class="cls-5" d="M155.7,93.82c-3.78,1.26-7.56,2.53-11.62,1.95,3.85-.79,7.65-1.91,11.62-1.95Z"/>
  <path class="cls-14" d="M269.73,76.41c-.55-1.44-.73-2.95-.86-4.49-.17-2.18,.44-3.13,2.56-2.37-2.41,2.27-1.81,4.55-.02,6.83-.56,.01-1.12,.03-1.68,.04Z"/>
  <path class="cls-14" d="M275.88,164.19c1.77-1.49,3.26-3.36,5.32-4.47,.22,.27,.44,.55,.66,.82-1.51,1.78-3.27,3.24-5.15,4.55-.28-.3-.56-.6-.84-.9Z"/>
  <path class="cls-5" d="M163.27,93.18c-2.56-.15-5.02,1.07-7.6,.65,2.21-1.41,4.76-1.41,7.18-1.88,1.23-.24,.97,.54,.42,1.23Z"/>
  <path class="cls-3" d="M214.14,82.6c2.73,.55,5.33-1.12,8.06-.58-2.54,1.33-5.33,1.49-8.06,1.91,0-.44,0-.89,0-1.33Z"/>
  <path class="cls-2" d="M299.47,137.31c0-1.98-.02-3.95-.03-5.93,.38-.04,.75-.07,1.13-.11-.03,2.08-.06,4.16-.09,6.24-.34-.07-.67-.13-1.01-.2Z"/>
  <path class="cls-8" d="M259.17,91.4c0,.4,.02,.81,.03,1.21-.02,1.45-.05,2.89-.07,4.34-1.91-1.87-1.85-3.72,.04-5.55Z"/>
  <path class="cls-11" d="M274.92,159.4c.37-1.07,1.63-.45,2.12-1.28,1.08-.17,2.3-1.25,3.09,.54,.03,.19,.04,.37,0,.56-1.74,.06-3.48,.13-5.21,.19Z"/>
  <path class="cls-13" d="M226.93,108.16c0-.1-.03-.2-.02-.3,.13-1.03-.33-2.34,1.14-2.71,.5-.13,1.12,0,1,.62-.23,1.18-.62,2.38-2.08,2.45l-.05-.05Z"/>
  <path class="cls-7" d="M206.6,155.51c.32-.01,.63-.03,.95-.04-.05,1.5,1.91,2.44,.96,4.37-1.74-.96-1.62-2.76-1.91-4.33Z"/>
  <path class="cls-5" d="M117.8,101.43c-1.49,.87-3.07,1.34-4.79,1.14,.09-1.3,1.35-.55,1.82-1.18,.4-.12,.8-.25,1.2-.37,.5,.04,1.01,.07,1.51,.11,.09,.1,.17,.2,.26,.3Z"/>
  <path class="cls-4" d="M119.45,100.49c.07,1.54-1.1,.62-1.65,.94-.08-.1-.17-.2-.26-.3,.04-.15,.12-.29,.22-.4l1.68-.24Z"/>
  <path class="cls-14" d="M117.77,100.73c-.11,.11-.18,.24-.22,.4-.5-.04-1.01-.08-1.51-.11,.53-.44,1.14-.32,1.74-.28Z"/>
  <path class="cls-14" d="M291.88,153.37c.56-.12,1.13-.23,1.69-.35-.44,.79-1.02,.81-1.69,.35Z"/>
  <path class="cls-14" d="M272.55,164.66c-.4-.14-.8-.27-1.19-.41,.41-.23,.83-.45,1.24-.68,0,0,.05-.04,.05-.04-.03,.37-.07,.75-.1,1.12Z"/>
  <path class="cls-14" d="M190.15,181.79c.64,.17,1.28,.34,1.92,.5-.7,.08-1.41,.24-1.92-.5Z"/>
  <path class="cls-14" d="M216.34,182.94c.6-.08,1.19-.16,1.79-.25-.55,.44-1.17,.31-1.79,.25Z"/>
  <path class="cls-14" d="M213.38,183.53c.21-.02,.41-.04,.62-.06-.21,.02-.41,.04-.62,.06Z"/>
  <path class="cls-14" d="M229.66,174.99c-.38,.35-.75,.15-1.11-.04,.37,.01,.74,.03,1.11,.04Z"/>
  <path class="cls-13" d="M226.98,108.21c-.09,.08-.18,.16-.28,.25,.07-.1,.15-.2,.22-.3,0,0,.05,.05,.05,.05Z"/>
  <path class="cls-12" d="M261.29,84.28c.58-.08,.7,.36,.81,.81-.27-.27-.54-.54-.81-.81Z"/>
  <path class="cls-5" d="M281.3,68.25c.14,.22,.29,.44,.43,.65,.09,.17,.17,.34,.22,.52-.05,.2-.08,.4-.1,.6-.73,.2-1.6,.2-2.17,.64-1.15,.91,.16,.64,.46,.86-1.21,1.82-2.66,1.28-4.14,.48,1.67-1.4,3.12-3.16,5.3-3.75Z"/>
  <path class="cls-3" d="M280.14,71.52c-.3-.22-1.61,.05-.46-.86,.56-.44,1.43-.44,2.17-.64,.63-.02,1.35,.29,1.8-.5,0,0-.04,.02-.04,.02,1.77-.21,3.54-.41,5.31-.62-.35,1.81-1.84,1.12-2.83,1.38-1.95,.52-3.96,.82-5.94,1.22Z"/>
  <path class="cls-5" d="M288.91,68.92c-1.77,.21-3.54,.41-5.31,.62,2.53-1.54,5.38-1.67,8.17-2.03,.01,.24,.02,.47,.04,.71-.35,.2-.7,.4-1.05,.6-.62,.03-1.23,.07-1.85,.1Z"/>
  <path class="cls-5" d="M258.53,79.51c-.05,1.21-.13,2.42,1.06,3.5-1.57,.35-2.79,.62-4,.89-.88,.17-1.76,.33-2.64,.5l-7.64,1.21c-2.55-3.44-1.61-7.12,2.05-8.04,.68,.14,1.34,.08,1.95-.31,.36-.07,.72-.14,1.07-.21,1.8-.14,3.62-.2,5.23-1.27,2.67-.27,1.78,2.65,2.93,3.73Zm-11.44,3.23c2.68-.71,5.58-1.48,8.48-2.26,.75-.2,1.66-.34,1.4-1.51-.32-1.47-1.3-.82-2.09-.61-2.81,.73-5.62,1.5-8.43,2.23-.66,.17-1.43,.14-1.38,1.17,.07,1.42,1.12,.68,2.02,.98Z"/>
  <path class="cls-5" d="M255.6,75.78c-1.61,1.07-3.43,1.13-5.23,1.27-.12-.28-.4-.64-.32-.82,.61-1.4,4.36-1.68,5.55-.45Z"/>
  <path class="cls-5" d="M249.29,77.26c-.61,.39-1.26,.45-1.95,.31-.31-.67-1.88-.21-1.35-1.4,.32-.72,1.3-.51,1.97,.04,.44,.36,.88,.7,1.33,1.05Z"/>
  <path class="cls-11" d="M177.93,91.38c-.95-.65-.5-1.69-.64-2.56,.25-1.46,.76-2.51,2.46-2.18,3.6,.69,6.95-.67,10.36-1.53,.35,.43,.7,.86,1.04,1.29-.77,.81-2.17-.03-2.78,1.21l.04-.02c-1.39-.07-2.81-.45-4.05,.6,.17,.42,.35,.85,.52,1.27-.59,.14-1.17,.28-1.76,.42-1.89-1.81-3.47-1.76-4.62,.88-.2,.21-.39,.41-.59,.62Z"/>
  <path class="cls-5" d="M188.37,87.6c.61-1.24,2.01-.4,2.78-1.21,2.52-.44,5.04-.88,7.8-1.36-.49,1.83-2.02,.86-2.41,1.95-2.35-.22-4.3,1.89-6.71,1.35-.37-.5-.88-.7-1.45-.72Z"/>
  <path class="cls-9" d="M197.74,87.08c-.16,.26-.34,.33-.56,.08,.19-.03,.38-.05,.56-.08Z"/>
  <path class="cls-5" d="M159.19,101.77c.06-.48-.09-1.11,.46-1.33,.64-.25,.74,.4,.93,.84-.31,.65-.85,.56-1.39,.49Z"/>
  <path class="cls-5" d="M291.8,68.22c-.01-.24-.02-.47-.04-.71,8.96-1.73,17.85-3.84,26.92-4.85-4.18,2.09-8.82,1.98-13.21,3.03-4.51,1.08-9.11,1.71-13.68,2.54Z"/>
  <path class="cls-5" d="M325.41,61.42c-2.12,1.22-4.4,1.5-6.76,1.26,2.13-1.16,4.42-1.34,6.76-1.26Z"/>
  <path class="cls-10" d="M283.65,69.52c-.45,.79-1.16,.48-1.8,.5,.02-.2,.05-.4,.1-.6,.57,.03,1.13,.06,1.7,.1Z"/>
  <path class="cls-5" d="M113.06,102.54c-.57,1.13-1.43,1.06-2.37,.63,.59-1.08,1.44-1.03,2.37-.63Z"/>
  <path class="cls-11" d="M272.6,163.57c-.41,.23-.83,.45-1.24,.68-.38-.07-.77-.14-1.15-.21-.02-.43-.03-.87-.05-1.3,.85,.15,1.8-.03,2.44,.83Z"/>
  <path class="cls-7" d="M242.73,98.03c.58,3.03-1.1,5.45-2.93,7.87-1.14,1.51-.66,3.33-.28,5,.14,.6,1.19,1.19-.13,1.53-.81,.21-1.3-.31-1.3-1.2,0-.72,.09-1.43,.16-2.15,.16-1.54,.23-3-1.16-4.09-1.16-.91-1.17-2.13,.35-2.31,1.91-.23,1.8-1.43,1.79-2.81-.02-1.66,.04-3.31-.02-4.97-.05-1.46,.26-2.37,1.9-2.32,1.58,.05,1.63,1.09,1.61,2.3-.01,.93,0,1.86,0,3.14Z"/>
  <path class="cls-11" d="M256.15,87.61c.79,.48,.61,1.26,.55,2.01-.81-.47-1.28-1.06-.55-2.01Z"/>
  <path class="cls-12" d="M198.73,91.25c-.1,.77-.91,.99-1.46,1.11-5.65,1.29-11.34,2.38-16.85,4.29-.74,.26-1.39,.04-1.71-.65-.45-.97,.33-1.23,.97-1.46,5.75-2.12,11.73-3.25,17.68-4.49,.51-.11,1.46-.09,1.37,1.2Z"/>
  <path class="cls-5" d="M178.52,90.76c1.15-2.64,2.73-2.69,4.62-.88-1.54,.31-2.99,1.09-4.62,.88Z"/>
  <path class="cls-13" d="M188.37,87.6c.58,.03,1.08,.22,1.45,.72-1.54,.89-3.21,1.14-4.94,1.13-.17-.42-.35-.85-.52-1.27,1.37-.04,2.8,.36,4.05-.6l-.04,.02Z"/>
  <path class="cls-12" d="M227.15,84.46c.66-.16,1.15,.09,1.3,.82,.18,.86-.19,1.38-1,1.53-3.89,.72-7.79,1.44-11.68,2.15-.76,.14-1.4-.06-1.47-1-.06-.81,.3-1.33,1.14-1.48,3.9-.66,7.8-1.35,11.71-2.03Z"/>
  <path class="cls-11" d="M252.95,84.4c.88-.17,1.76-.33,2.64-.5-.75,.93-1.72,.55-2.64,.5Z"/>
  <path class="cls-12" d="M247.09,82.74c-.89-.3-1.95,.44-2.02-.98-.05-1.04,.72-1,1.38-1.17,2.81-.73,5.62-1.5,8.43-2.23,.79-.21,1.78-.85,2.09,.61,.25,1.17-.65,1.31-1.4,1.51-2.9,.78-5.8,1.55-8.48,2.26Z"/>
  <path class="cls-5" d="M188.42,87.59c-1.25,.96-2.68,.56-4.05,.6,1.24-1.06,2.67-.68,4.05-.6Z"/>
  <text class="cls-15" transform="translate(132.71 22.77)"><tspan x="0" y="0">3 mi kp cha hon chnh</tspan></text>
</svg>