<?xml version="1.0" encoding="UTF-8"?>
<svg id="Layer_1" data-name="Layer 1" xmlns="http://www.w3.org/2000/svg" viewBox="0 0 414 200">
  <defs>
    <style>
      .cls-1 {
        fill: #f7b7d3;
      }

      .cls-2 {
        fill: #00bff3;
      }

      .cls-3 {
        fill: #fff9b8;
      }

      .cls-4 {
        fill: #fff200;
      }

      .cls-5 {
        fill: #fbb040;
      }

      .cls-6 {
        fill: #9da8b6;
      }

      .cls-7 {
        fill: #b9ac98;
      }

      .cls-8 {
        fill: #a4d3f2;
      }

      .cls-9 {
        fill: #5c5c5b;
      }

      .cls-10 {
        fill: #393836;
      }

      .cls-11 {
        fill: #767474;
      }

      .cls-12 {
        fill: #4f4e45;
      }
    </style>
  </defs>
  <path class="cls-12" d="M119.84,142.4c-3.87-1.99-6.91,3.28-10.79,2.06-1.79-.56-3.76-.16-5.65-.19,0-.49,.01-.97,.02-1.46,3.56,.23,7.07,0,10.91-1.87-6.33-3.92-12.03-8.1-19.17-6.07-3.51,1-7.1-.28-10.32-2.63-1.25-.91-2.46-1.85-3.63,.46,5.38,4.96,11.42,7.45,17.59,9.56-.01,.4-.03,.79-.04,1.19-4.11-1.91-8.02,1.21-12,.87-9.47-.79-18.91-.9-28.39-.04-3.85,.35-7.66-2.63-11.64-.85-.01-.39-.03-.78-.04-1.17-.04-.45,.02-1.21-.15-1.32-5.98-3.65-11.64-8.61-18.7-7.85-.05-.5-.11-1-.16-1.5,8.48,1,14.78-5.98,22.26-9.82-6.3-5.72-14.39-5.76-20.85-.5-1.66-2.97-1.47-4.4,.73-4.46,5.54-.16,10.99-1.07,16.67,.05,4.17,.83,8.78,.55,13.21,.41,6.17-.2,12.36-.86,18.56,.01,2.87,.4,5.82-.4,8.72-.25,1.45,.07,3.4-.55,4.1,2.24,0,0,.09-.05,.09-.05-9.61-2.84-17.48,2.65-25.16,9.02-.64,.06-1.27,.13-1.91,.2-1.62,1.27-3.25,2.54-5.33,4.17,10.24,7.86,20.46,12.14,32,8.75-4.43-1.96-7.97-6.38-12.69-7.35-.43-.75-.91-.84-1.45-.19-.52,.08-1.05,.15-1.57,.23,0-.52,0-1.04,0-1.56,5.48-.76,9.36-6.46,14.58-8.02-.01,.58-.02,1.17-.03,1.75-.67,.45-1.41,.8-2.01,1.39-.74,.73-2.29,.39-2.17,2.25,.11,1.59,1.4,1.75,2.29,2.25,2.78,1.56,5.73,1.53,8.64,1.05,7.56-1.25,13.53-7.44,20.64-10.87-1.5-2.2-3.11-2.29-4.51-2.86-3.48-1.43-7.05,.28-10.57-.39,.1-.26,.13-.52,.08-.79,2.07-.96,4.24-1.31,6.37-1.01,8.06,1.15,16.05-1.8,24.1-.63,0,.38,0,.76,0,1.14-8.96-1-15.35,7.01-22.81,11.25-.93,.53-1.32,2.32,.41,3.03,5.78,2.37,11.22,1.45,16.32-2.8,3.88-3.24,7.66-6.72,12.28-8.03-1.63,3.38-4.7,3.77-7.04,5.68-1.41,1.15-2.49,2.08-1.4,4.41-.83,1.74-2.14-1.57-2.71,.35-.18,.61,.76,1.78,1.19,2.7-4.06-.06-8.12-.7-12.17,.6-4.11,1.31-7.71-3.4-11.86-2.44,3.81,3.41,7.93,5.58,12.17,7.39,1.15,.49,2.63,.36,2.98,2.51Zm-48.42-20.64c-2.47-2.72-5.24-3.13-8.04-3.29-7.3-.43-12.96,5.34-19.18,8.93-1.6,.93-.93,2.42,.2,3.38,3.26,2.77,7.59,3.55,10.4,1.7,5.44-3.59,11.01-6.96,16.61-10.72Zm-1.67,19.88c-6.84-3.82-12.15-9.13-19.18-7.28-2.45,.64-4.94-.24-6.9-2.22-2.35-2.37-4.27-2.09-6.43,.64,9.81,7.87,20,11.98,32.51,8.86Z"/>
  <path class="cls-12" d="M239.79,142.76c-.04-.55-.07-1.09-.11-1.64-1.75-2.73-3.54-5.42-6.13-6.88-.79-.09-1.69,.29-2.2-.93,1.51-.8,3.1-1.41,4.51-2.46,2.87-2.14,5.07-5.76,8.55-6.56-1.43,3.7-4.92,4.45-6.59,7.83,8.25,2.75,15.95-3.61,15.2-12.7-1.89,.98-3.75,1.94-5.61,2.9-1.43-1.63,2.56-2.23,.54-3.41-2.01-1.17-4.34-1.14-6.57,.75,2.17,.93,4.12,1.77,6.07,2.6-.77,1.32-1.46,2.85-3.06,2.05-.08-2.66-1.69-2.6-3-2.63-8.53-.19-15.97,3.73-23.16,10.14,2.25,1.64,4.23,1.19,6.08,1.67-.85,1.17-2.01,.48-3,.87-.96,.19-1.98-.6-2.97,.26,.8,2.94,3.51,3.15,4.62,5.58-.18,.25-.36,.5-.55,.75-2.79-1.68-5.03-4.32-7.19-7.08-.5-.53-.99-1.07-1.49-1.6,4.1-2.58,7.72-6.26,12.61-8.3-4.09-3.21-8.79-.45-12.34,.99-3.19,1.12-4-2,.96-3.71,1.11-.38,2.04-1.07,2.77-2.22,2.68,1.31,5.34,1.58,8.03-.01,.79-.47,1.78-.98,2.57-.78,6.95,1.81,13.74-1.97,20.65-.92,.65,.1,1.26,.37,1.63-.58,1.64-4.2,4.07-7.28,7.27-9.5,1.1-.76,1.37-2.52,1.64-4.25,.82-5.21,1.92-10.3,6.46-12.33,1.76-.79,1.44-2.36,.45-3.89-2.28-3.56-4.66-7.03-5.65-11.67-.2-.96-.72-1.69-1.58-1.93-4.46-1.27-8.89-2.69-13.36-3.83-.9-.23-1.94,.54-2.91,.85-.53-.28-1.06-.55-1.6-.83,3.65-1.33,6.57-4.49,9.88-6.67,.04,.5,.09,1.01,.13,1.51-1.01,1.38-2.75,1.64-3.41,3.69,8.16,3.64,16.69,3.97,25,5.94,1.1,.26,2.03,.12,2.24-1.67,1.27,3.3,.13,6.91,.78,10.29,0,1.66,.18,3.37-.07,4.96-.43,2.64,.61,3.41,2.25,3.73-1.49,2.75-3.85,4.95-3.46,9.24,6.76-1.04,10.43-7.5,14.37-13.32,1.3-1.91,3.31-4.63,2.48-6.68-.84-2.09-3.62-1.39-5.63-1.12-.9-.39-1.81-.78-2.71-1.18-.58-3.98-.31-7.82,.93-11.59,1.19-3.62,2.83-4.88,5.48-2.29-.78,2.08-3.64-.64-3.81,2.83-1.38,1.67-1.35,3.96-1.59,6.14-.09,.09-.27,.22-.26,.26,.06,.24,.17,.46,.26,.68,2.88,3.28,6.89,1.87,10.03,4.1-.01,.54-.02,1.08-.03,1.62-5.21,8.25-7.89,18.46-12.34,27.31-.24-.34-.47-.68-.71-1.02,.97-2.91,2.89-5.29,3.2-9.2-3.44,2.56-6.48,4.93-10.06,5.53-1.02,.17-1.45,1.16-1.85,2.24-1.71,4.53-2.47,9.87-7.42,12.56,3.95,1.33,6.55,.5,9.05-1.26l1.06,1.36c-.41,1.04-.81,2.07-1.22,3.11-.39-.09-.78-.17-1.18-.26-3.51-.96-6.89-.82-9.95,2.05,2.18-6.02,2.78-12.39,2.81-19.15-2.85,.63-4.62,2.83-6.31,5.03-4.79,6.23-3.54,15.68-7.83,22.92,4.12-.84,5.7-5.52,9.05-5.8-1.48,3.91-3.99,6.22-7.32,7.59,3.17,1.99,5.95,.66,8.75-.25,.03,.54,.06,1.07,.09,1.61-2.75,3.08-5.69,5.75-9.23,7.06-.73-.38-1.76,.5-2.25-.9,2.39-.98,5.02-1.39,6.12-3.54-6.11-7.41-12.78-1.67-19.97-2.44,2.31,3.85,4.87,5.26,7.77,5.92-.68,1.73-2.44,.13-3.16,1.74m25.7-29.22c4.27-7.84,7.49-16.13,7.68-25.89,.05-2.7,1.22-7.11-.53-7.7-2.17-.73-3.33,3.46-4.32,6.09-3.27,8.68-2.4,18.19-2.83,27.5Zm-5.03-39.17c1.26,5.31,3.1,9,6.05,12.28,.63-3.48,3.97-5.46,2.1-9.28-1.86-3.8-5.06-1.86-8.15-3Zm-1.1,29.34c5.32-.89,5.88-5.21,5.42-11.17-2.99,3.22-4.91,6.49-5.42,11.17Zm-35.31,17.9c3.69,4.39,6.21-.36,9.02-.22-2.85-2.04-5.63-1.41-9.02,.22Z"/>
  <path class="cls-3" d="M284.16,73.21c.24-2.17,.21-4.47,1.59-6.14,2.78,.56,5.56,1.11,8.34,1.67,.34,.05,.67,.1,1.01,.15l.2-.02s.2,0,.2,0c1.92,.37,3.83,.74,5.75,1.12,4.84,.3,9.56,2.12,14.43,1.85,1.01,.1,2.01,.2,3.02,.3,.85,1.06,1.91,.94,2.96,.9,1.86,.11,3.57,1.52,5.49,1.08,5.41,.8,10.97,.9,16.19,2.68,2.76,.94,2.27-.75,2.67-2.43,1.82-.32,3.67-.86,2.82,3.15-.7,3.29,1.48,6.24,.9,9.59-18.51-2.95-37.03-5.9-55.54-8.84-3.14-2.23-7.15-.82-10.03-4.1,.12-.31,.12-.63,0-.95Z"/>
  <path class="cls-12" d="M227.48,143.44c-5.58,.3-11.27,1.31-16.71-.52-7.59-2.54-14.62,3.8-22.09,1.58-1.85-.55-3.74-.79-5.62-1.18,.01-.43,.02-.85,.03-1.28,6.71,1.51,13.34,1.74,20.73-1.5-3.98-2.42-7.13-6.02-10.11-5.81-6.55,.48-13.02,1.56-20.07-.9,.88,1.7,1.34,2.6,1.8,3.49-2.76,.05-4.55-3.38-7.76-2.84-5.96,1-11.95-.05-17.49-3.58-3.1-1.97-3.31,.39-3.14,3.43-2.59-.93-5.1-.88-7.79-.14-2.83,.79-6,1.71-8.35-1.97,4.89,1.63,9.87,1.28,14.01-2.17,3.79-3.15,7.95-4.56,11.92-6.83,.63-.36,1.54-.2,1.68-1.69-1.77-.78-3.56-1.56-5.35-2.34,.01-.51,.02-1.02,.03-1.53,5.74-2.51,11.17-2.63,17.04,.61,3.16,1.74,7.32,2.18,11.09,.46,4.11-1.88,8.22-1.61,12.31,.39,3.64,1.79,6.87,.25,8.69-3.92,.36,.01,.72,.02,1.08,.04,2.41,1.28,4.83-1.22,7.24,.02-.45,1.84-1.69,.94-2.58,1.26-2.33,.85-5.04,.43-6.88,3.36,2.35,1.89,6.15,3.44,9.78,3.1-2.07,1.01-1,5-5.72,1.36-11.17-7.8-19.18,2.14-28.7,8.29,4.43,1.49,8.01,1.56,11.71,1.12,6.21-.73,11.36-5.08,16.97-7.82,.76-.22,1.74-.95,2.28-.67-1.69,4.33-5.46,4.35-8.08,6.69-.16,1.55,2.01,.71,1.56,2.61-.95,.66-1.66-.53-2.51-.45-.41-.72-.9-1.02-1.55-.48,.32,.42,.64,.85,.96,1.27,6.99,5.43,14.63,7.46,22.67,7.32,.64-.01,1.93,.91,1.82-1.25,.18-.25,.36-.5,.55-.75,1.51,.7,3.03,1.4,4.54,2.1v1.1Zm-43.58-20.03c-2.2-.75-4.39-1.6-6.62-2.23-8.94-2.53-16.7,3.04-24.79,6.3-.68,.27-1.14,.89-1.01,1.81,.18,1.23,1.16,1.12,1.82,1.41,10.8,4.76,20.95,3.02,30.44-5.29,.88-.77-.07-1.41,.1-2.09,2.86,.24,5.49-.57,8.47-3.17-3.88-1.01-7.05-1.49-10.21,.21,.13,1.59,2.24,.99,1.8,3.05Zm-16.12-4.48c-3.88-1.94-7.35-2.41-11.15-.62,3.74,3.79,7.22,3.23,11.15,.62Z"/>
  <path class="cls-9" d="M241.32,69.4c.53,.28,1.06,.55,1.6,.83-3.26,2.15-6.57,2.25-9.94,.46-.99-.53-1.6-.72-2.86,.26-3.07,2.39-12.75-4.07-13.37-8.6-.72-5.2,2.47-6.23,5.37-7.75-1.1-2.25-2.81-3.47-4.35-4.78-5.29-4.5-9.88-10.31-15.55-14.1-.93-.62-2.05-1.55-.05-2.41,6.36,4.5,12.05,10.33,17.61,16.25,3.76,4.01,7.51,5.38,12.53,4.24-8.17-11.34-17.41-20.04-27.69-26.94-.04-.8-.33-1.79-.07-2.35,.38-.83,1.12-.53,1.58,.18,2.42,3.75,5.93,5.48,8.99,7.92,7.08,5.64,12.94,13.02,18.76,20.58,2.86,3.71,6.8,2.48,10.37,2.69,.08,.48,.15,.95,.23,1.43,0,0,0-.04,0-.04-1.25,.01-2.5,.02-3.75,.04-1.91,.54-3.76-.19-5.64-.47-2.15-2.3-4.66,1.8-6.8-.67-1.79,.49-3.79-.88-5.43,1l.07-.04c-2.16-.23-4.03,.31-4.65,3.48-.57,2.93,1.3,4.07,2.67,5.21,2.5,2.09,5.12,4.06,8.31,3.41,1.04-.11,1.68-.91,2.1-2.09,2.98,3.33,6.38,3.45,9.96,2.27Z"/>
  <path class="cls-9" d="M294.09,68.74c-2.78-.56-5.56-1.11-8.34-1.67,.18-3.47,3.03-.75,3.81-2.83,1.26,.22,2.51,.44,3.77,.65,1.32,.22,1.58-.56,1.12-2.04-1.14-3.69-2.71-6.94-6.03-7.43-3.24-.48-6.14,.08-8.35,4.13-3.81,7-3.81,14.97-4.15,22.93-.65-3.38,.5-6.99-.78-10.29q.83-6.48-4.26-7.13c-1.52-.2-3.03-.73-4.55-.7-5.01,.09-10-3.29-15.01-.12-.04-.5-.09-1.01-.13-1.51,4.07-4.69,8.96-3.75,13.91-2.96-2.78-6.09-6.74-8.1-11.57-7.81-.56-.31-1.12-.63-1.69-.94,4.5-3.32,12.52,1.96,14.73,7.34,1.79,4.35,9.69,4.43,11.84,.44,2.22-4.12,5.48-5.91,9.28-5.31,3.74,.59,6.72,2.81,7.9,7.93,.35,1.54,.26,3.38,1.66,4.22,0,.41,0,.82,.01,1.23-.86,.28-1.75,.52-1.79,2.03h-.2s-.2,.01-.2,.01c-.3-.43-.63-.6-1.01-.15Z"/>
  <path class="cls-5" d="M204.62,26.85c10.28,6.9,19.52,15.6,27.69,26.94-5.02,1.14-8.76-.23-12.53-4.24-5.55-5.92-11.24-11.75-17.61-16.25,.38-2.43,1.1-4.65,2.44-6.45Z"/>
  <path class="cls-8" d="M29.07,121.28c6.46-5.26,14.55-5.21,20.85,.5-7.48,3.84-13.78,10.82-22.26,9.82-.82-2.4-1.89-4.89,.96-6.3,2.06-1.02,.12-2.72,.45-4.02Z"/>
  <path class="cls-10" d="M203.43,115.26c-.36-.01-.72-.02-1.08-.04-4.02-7-8.47-13.51-12.84-20.13-3.08-4.67-2.85-4.93-6.03,0-1.19-5.07-2.35-10.01-3.73-15.86,4.14,1.96,7.61,3.61,11.62,5.52-3.1,2.77-2.16,4.56-.5,7.59,3.98,7.25,9.49,12.89,12.66,20.93,.29,.73,.75,1.4-.1,1.99Z"/>
  <path class="cls-8" d="M119.84,142.4c-.35-2.15-1.83-2.02-2.98-2.51-4.24-1.82-8.36-3.98-12.17-7.39,4.15-.96,7.75,3.75,11.86,2.44,4.05-1.29,8.11-.66,12.17-.6,0,0-.06-.08-.06-.08,.85,3.33,3.52,3.15,5.29,4.7,1.02,1.11,2.63,.94,3.55,2.88-4.85,1.58-9.54,1.12-14.24,.06-1.17-.26-2.41-1.41-3.44,.42l.02,.08Z"/>
  <path class="cls-9" d="M119.82,142.32c1.02-1.83,2.27-.69,3.44-.42,4.7,1.06,9.39,1.52,14.24-.06-.91-1.94-2.53-1.77-3.55-2.88,.03-.5,.06-1,.08-1.5,7.48,3.6,14.98,6.95,23.84,4.49-3.18-2.35-6.24-3.1-8.64-5.53,.29-.33,.58-.66,.88-.98,4.6,3.32,9.84,4.46,14.55,7.42l-.14-.04c-7.54,1.23-15.05,2.98-22.65,.3-1.34-.47-2.96,.46-4.46,.73-5.94,1.07-11.84,1.38-17.58-1.51Z"/>
  <path class="cls-9" d="M294.18,78.26c18.51,2.95,37.03,5.89,55.54,8.84-.85,2.63-2.59,1.19-3.71,1.02-17.3-2.63-34.58-5.46-51.86-8.24,.01-.54,.02-1.08,.03-1.62Z"/>
  <path class="cls-8" d="M27.83,133.11c7.06-.77,12.73,4.19,18.7,7.85,.17,.1,.1,.86,.15,1.32-6.25,.94-12.4,.43-18.4-2.21,1.21-2.47-2.34-4.41-.45-6.95Z"/>
  <path class="cls-10" d="M212.25,112.25c1.09-9.02,1.73-18.1,2.26-27.2,.09-1.5-.51-4.17,1.16-4.09,1.87,.09,.88,2.63,.79,4.06-.61,9.75-1.31,19.5-1.99,29.24-.75,3.66-1.5,7.33-2.25,10.99-1.32,1.42-2.64,1.47-3.99,.06,1.07-1.34,2.94-1.58,3.12-4.19,.2-2.97,.59-5.91,.9-8.87Z"/>
  <path class="cls-4" d="M210,123c-3.63,.33-6.43-1.22-8.78-3.1,1.84-2.93,4.55-2.5,6.88-3.36,.89-.33,2.12,.58,2.58-1.26"/>
  <path class="cls-12" d="M346.01,74.37c-.4,1.69,.09,3.38-2.67,2.43-5.22-1.78-10.77-1.88-16.19-2.68,1.35-2.44,3.81,.42,5.2-1.86,.8,.31,1.6,.61,2.4,.92,3.86-1.36,7.66-1.8,11.25,1.19Z"/>
  <path class="cls-12" d="M153.23,117.67c-.01,.51-.02,1.02-.03,1.53-3.87-.38-7.71-.29-11.49,1.09-.39-5.25-2.43-.03-3.5-.95-1.91-.54-3.82-1.07-5.73-1.61,0-.38,0-.76,0-1.14,6.96-1.21,13.86-.12,20.75,1.07Z"/>
  <path class="cls-12" d="M334.75,73.19c-.8-.31-1.6-.61-2.4-.92-4.1-.55-8.2-1.11-12.31-1.66-1.34-.83-1.33,.39-1.35,1.54-1.01-.1-2.01-.2-3.02-.3-.75-3.91-3.99-1.4-5.4-3.6,7.62-.3,15.04,1.9,22.56,2.87,1,.13,1.52,.99,1.91,2.06Z"/>
  <path class="cls-10" d="M28.28,140.06c6,2.64,12.15,3.15,18.4,2.21,.01,.39,.03,.78,.04,1.17-6.07,2.27-12,.84-17.89-1.24-.77-.27-1.36-.99-.56-2.14Z"/>
  <path class="cls-12" d="M164.51,142.8s.14,.04,.14,.04c2.59-1.33,5.29,.19,7.88-.49,1.72-.46,3.9,.99,5.07-1.94,.32-.08,.65-.16,.97-.23l-.04-.05c.6,4.14,3.09,1.27,4.59,2.12l-.02-.2c-.01,.43-.02,.85-.03,1.28-4.93-.84-9.69,2.22-14.61,1.12-1.35-.3-3.13,.91-3.94-1.65Z"/>
  <path class="cls-9" d="M272.68,120.24c.39,.09,.78,.17,1.18,.26-2.72,6.41-6,12-11.89,13.73-.03-.54-.06-1.07-.09-1.61,4.71-2.47,7.97-7.1,10.8-12.38Z"/>
  <path class="cls-12" d="M310.27,68.25c1.41,2.2,4.66-.31,5.4,3.6-4.88,.27-9.6-1.55-14.44-1.85,1.91-2.28,4.53,.38,6.49-1.57,.64-.1,1.28-.19,1.92-.29,.22-.1,.43-.06,.62,.11Z"/>
  <path class="cls-9" d="M227.48,143.44c0-.37,0-.73,.01-1.1,4.1,.32,8.2,.54,12.19-1.21,.04,.55,.07,1.09,.11,1.64-2.48,1.12-5.01,1.9-7.66,1.55"/>
  <path class="cls-10" d="M102,118.24c.04,.27,.02,.53-.08,.79-1.86-.18-3.25,3.05-5.33,1.25l-3.21-1.09c2.67-3.53,5.64-2.3,8.62-.95Z"/>
  <path class="cls-4" d="M214,122s-1,0-1,0c.5-2.42,.22-1.63,.71-4.05,.3-1.45,2.16-1.88,3.07-.71h0s0,.02,0,.02c-.52,.07-1.53-.43-1.4,.43,.18,1.18,1.17,1.82,2.25,1.51,0,0,.1-.13,.1-.13-.74,1.15-1.77,1.61-2.77,2.22"/>
  <path class="cls-9" d="M281.1,106.17c.24,.34,.47,.68,.71,1.02-1.64,4.08-4.16,7.17-6.73,10.2-.35-.45-.71-.91-1.06-1.36,2.36-3.29,4.72-6.58,7.08-9.86Z"/>
  <path class="cls-10" d="M93.38,119.19c1.07,.36,2.14,.73,3.21,1.09-1.27,4.12-4.69,3.89-7,5.93,.01-.58,.02-1.17,.03-1.75,1.18-.91,2.35-1.82,3.32-2.58,.19-1.93-1.68-1.09-1.79-2.66,0,0-.09,.05-.09,.05,.77-.03,1.54-.05,2.3-.08Z"/>
  <path class="cls-12" d="M251.86,51.01c.56,.31,1.12,.63,1.69,.94-3.36,.79-6.09,3.42-9.06,5.34-.08-.48-.15-.95-.23-1.43,2.32-2.19,4.68-4.26,7.6-4.86Z"/>
  <path class="cls-12" d="M309.65,68.14c-.64,.1-1.28,.19-1.92,.29-3.48-.52-6.97-1.05-10.45-1.57,0-.41,0-.82-.01-1.23,4.15,.69,8.4,.43,12.38,2.51Z"/>
  <path class="cls-12" d="M241.26,142.07c.72-1.61,2.47-.01,3.16-1.74,2.03,.02,4.06,.04,6.08,.06,.49,1.4,1.52,.53,2.25,.9-3.74,2.51-7.66,.53-11.49,.77Z"/>
  <path class="cls-9" d="M98.76,143.45c.01-.4,.03-.79,.04-1.19,1.54,.18,3.08,.37,4.62,.55,0,.49-.01,.97-.02,1.46-1.59,.19-3.2,.44-4.64-.82Z"/>
  <path class="cls-12" d="M217.64,119.19c-1.08,.31-2.07-.33-2.25-1.51-.14-.87,.9-.35,1.41-.43,.2,.71,1.43,.65,.84,1.94Z"/>
  <path class="cls-9" d="M172.28,158.24c0,.43-.02,.86-.03,1.29-.06-.3-.15-.6-.18-.91,0-.12,.13-.25,.21-.38Z"/>
  <path class="cls-9" d="M173.26,158.15c-.33,.04-.66,.08-.98,.11,.14-.34,.29-.68,.43-1.03,.18,.3,.37,.61,.55,.91Z"/>
  <path class="cls-6" d="M363.04,134.68c.31,0,.63,0,.94,0-.31,.6-.62,.6-.94,0Z"/>
  <path class="cls-8" d="M89.59,126.21c2.3-2.04,5.73-1.81,7-5.93,2.08,1.8,3.47-1.43,5.33-1.25,3.51,.67,7.09-1.04,10.57,.39,1.4,.58,3,.66,4.51,2.86-7.12,3.43-13.08,9.62-20.64,10.87-2.91,.48-5.86,.51-8.64-1.05-.89-.5-2.18-.66-2.29-2.25-.13-1.86,1.42-1.51,2.17-2.25,.6-.59,1.33-.94,2.01-1.39Z"/>
  <path class="cls-8" d="M132.48,117.74c1.91,.54,3.82,1.07,5.73,1.61,.14,.64,.28,1.28,.41,1.93l.06-.09c-4.62,1.31-8.4,4.8-12.28,8.03-5.1,4.25-10.54,5.17-16.32,2.8-1.73-.71-1.34-2.5-.41-3.03,7.46-4.24,13.85-12.25,22.81-11.25Z"/>
  <path class="cls-8" d="M141.71,120.3c3.77-1.38,7.62-1.48,11.49-1.09,1.79,.78,3.58,1.57,5.35,2.34-.14,1.49-1.05,1.33-1.68,1.69-3.97,2.27-8.14,3.68-11.92,6.83-4.14,3.44-9.12,3.79-14.01,2.17,0,0,.06,.08,.06,.08,.46-1.29-.27-1.06-.81-1.08l.05,.04c-1.09-2.33,0-3.26,1.4-4.41,2.34-1.91,5.4-2.3,7.04-5.68,0,0-.06,.09-.06,.09,1.25,.87,2.09-.45,3.08-.98Z"/>
  <path class="cls-8" d="M71.42,121.75c-5.6,3.76-11.16,7.13-16.61,10.72-2.81,1.85-7.14,1.07-10.4-1.7-1.13-.96-1.8-2.45-.2-3.38,6.22-3.6,11.87-9.36,19.18-8.93,2.8,.16,5.57,.57,8.04,3.29Z"/>
  <path class="cls-8" d="M91.16,119.22c.11,1.57,1.97,.73,1.79,2.66-.97,.76-2.15,1.67-3.32,2.58-5.22,1.56-9.1,7.27-14.58,8.02-3.47,.25-6.78-.08-9.04-4.24,7.68-6.37,15.55-11.85,25.16-9.02Z"/>
  <path class="cls-8" d="M75.05,134.04c.52-.08,1.05-.15,1.57-.23,.48,.06,.97,.13,1.45,.19,4.72,.97,8.26,5.39,12.69,7.35-11.54,3.38-21.76-.9-32-8.75,2.08-1.63,3.7-2.9,5.33-4.17,2.64,5.26,6.46,6.55,10.95,5.61Z"/>
  <path class="cls-8" d="M69.75,141.64c-12.51,3.12-22.7-.99-32.51-8.86,2.17-2.73,4.09-3.02,6.43-.64,1.96,1.98,4.45,2.87,6.9,2.22,7.03-1.85,12.33,3.46,19.18,7.28Z"/>
  <path class="cls-8" d="M103.42,142.81c-1.54-.18-3.08-.37-4.62-.55-6.17-2.11-12.21-4.6-17.59-9.56,1.17-2.32,2.38-1.38,3.63-.46,3.22,2.36,6.81,3.63,10.32,2.63,7.13-2.03,12.84,2.15,19.17,6.07-3.83,1.86-7.35,2.1-10.91,1.87Z"/>
  <path class="cls-8" d="M149.23,136.41c2.4,2.43,5.46,3.18,8.64,5.53-8.86,2.46-16.36-.89-23.84-4.49-1.8-1.05-3.27-3.02-5.37-3.2,0,0,.06,.08,.06,.08-.43-.91-1.37-2.09-1.19-2.7,.57-1.92,1.88,1.39,2.71-.35,0,0-.05-.04-.05-.04-.47,1.31,.23,1.11,.81,1.08,0,0-.06-.08-.06-.08,2.35,3.68,5.52,2.76,8.35,1.97,2.69-.75,5.2-.8,7.79,.14,0,0-.04-.08-.04-.08,.31,1.46,1.36,1.61,2.2,2.13Z"/>
  <path class="cls-10" d="M75.05,134.04c-4.49,.94-8.32-.35-10.95-5.61,.64-.06,1.27-.13,1.91-.2,2.26,4.17,5.57,4.5,9.04,4.24,0,.52,0,1.04,0,1.56Z"/>
  <path class="cls-9" d="M78.08,134c-.48-.06-.97-.13-1.45-.19,.54-.65,1.02-.56,1.45,.19Z"/>
  <path class="cls-5" d="M275.93,82.48c.35-7.96,.34-15.94,4.15-22.93,2.21-4.05,5.11-4.6,8.35-4.13,3.32,.49,4.89,3.74,6.03,7.43,.46,1.48,.2,2.26-1.12,2.04-1.26-.21-2.52-.43-3.77-.65-2.65-2.59-4.29-1.33-5.48,2.29-1.23,3.76-1.51,7.6-.93,11.59,0,.7,.01,1.4,.02,2.1-.21,.98-.41,1.95-.62,2.93-1.29,1.97-2.58,3.95-3.87,5.92-.6,.52-1.6,.85-.62,2.15l.04-.06c-1.64-.32-2.69-1.09-2.25-3.73,.26-1.59,.06-3.3,.07-4.96Z"/>
  <path class="cls-8" d="M212.22,125.25c.77-1.26,1.84-1.88,2.97-2.37,3.55-1.44,7.06-2.08,11.15,1.13-4.89,2.03-8.52,5.72-12.61,8.3-3.2,1.52-6.53,1.94-9.91,1.92h-.02c-.86-.35-1.69-1.03-2.62-.27-.46,1.46,.46,1.18,1.01,1.37,4.48,1.72,8.72-.31,13.03-1.43,2.17,2.76,4.4,5.4,7.19,7.08,.11,2.15-1.17,1.24-1.82,1.25-8.04,.14-15.68-1.89-22.67-7.32,.2-.26,.39-.52,.59-.79,.85-.08,1.57,1.11,2.51,.45,.45-1.9-1.72-1.05-1.56-2.61,2.62-2.34,6.4-2.36,8.08-6.69,.23,.12,.46,.13,.7,.03,1.34,1.41,2.67,1.36,3.99-.06Z"/>
  <path class="cls-5" d="M244.48,57.3c2.97-1.92,5.7-4.55,9.06-5.34,4.83-.29,8.79,1.72,11.57,7.81-4.95-.79-9.85-1.73-13.91,2.96-3.31,2.18-6.23,5.34-9.88,6.67-3.58,1.18-6.98,1.06-9.96-2.27-.6-3.17,1.21-2.59,2.49-2.66,4.42-.24,7.99-2.53,10.63-7.22v.04Z"/>
  <path class="cls-3" d="M251.33,64.24c5.01-3.16,10.01,.22,15.01,.12,1.51-.03,3.03,.5,4.55,.7q5.09,.67,4.26,7.13c-.2,1.79-1.13,1.93-2.24,1.67-8.31-1.96-16.84-2.3-25-5.94,.66-2.05,2.4-2.31,3.41-3.69Z"/>
  <path class="cls-2" d="M260.45,125.28c-3.35,.28-4.93,4.96-9.05,5.8,4.3-7.24,3.04-16.68,7.83-22.92,1.69-2.2,3.46-4.39,6.31-5.03-.03,6.76-.63,13.13-2.81,19.15,0,0,.03-.04,.03-.04-.99-.6-1.13-.09-.79,1.04l.03-.04c-1.42-.51-1.96,.11-1.54,2.01v.02Z"/>
  <path class="cls-1" d="M224.3,133.52c-1.85-.48-3.83-.03-6.08-1.67,7.19-6.41,14.63-10.33,23.16-10.14,1.31,.03,2.92-.04,3,2.63,0,0,.02-.03,.02-.03-3.48,.8-5.68,4.42-8.55,6.56-1.4,1.05-3,1.65-4.51,2.46-2.35,.07-4.71,.13-7.06,.2Z"/>
  <path class="cls-2" d="M266.95,112.85c.43-9.31-.44-18.82,2.83-27.5,.99-2.63,2.15-6.82,4.32-6.09,1.75,.59,.58,5,.53,7.7-.19,9.76-3.41,18.06-7.68,25.89Z"/>
  <path class="cls-2" d="M281.1,106.17c-2.36,3.29-4.72,6.58-7.08,9.86-2.5,1.76-5.1,2.59-9.05,1.26,4.95-2.69,5.71-8.02,7.42-12.56,.4-1.07,.83-2.06,1.85-2.24,3.58-.6,6.62-2.97,10.06-5.53-.31,3.91-2.23,6.29-3.2,9.2Z"/>
  <path class="cls-5" d="M285.87,79.3c2.01-.28,4.79-.97,5.63,1.12,.83,2.05-1.19,4.76-2.48,6.68-3.95,5.82-7.61,12.28-14.37,13.32-.39-4.29,1.97-6.48,3.46-9.24,0,0-.04,.06-.04,.06,.77,.34,1.12-.46,1.57-.99,2-1.8,3.48-4.18,4.5-7.05,.28-.66,.57-1.32,.85-1.98,.29-.64,.58-1.28,.88-1.92Z"/>
  <path class="cls-2" d="M272.68,120.24c-2.83,5.28-6.09,9.91-10.8,12.38-2.8,.91-5.58,2.25-8.75,.25,3.32-1.38,5.84-3.68,7.32-7.59,0,0,.01-.02,.01-.02,1.11,.11,1.54-.66,1.54-2.01,0,0-.03,.04-.03,.04,.6,.09,.87-.25,.79-1.04,0,0-.03,.04-.03,.04,3.05-2.86,6.43-3,9.95-2.05Z"/>
  <path class="cls-1" d="M239.68,141.12c-3.98,1.75-8.08,1.53-12.19,1.21-1.51-.7-3.03-1.4-4.54-2.1-1.11-2.44-3.83-2.65-4.62-5.58,1-.86,2.01-.07,2.97-.26,4.09,1.09,8.18,1.71,12.25-.14,2.59,1.46,4.37,4.15,6.13,6.88Z"/>
  <path class="cls-2" d="M250.5,140.39c-2.03-.02-4.06-.04-6.08-.06-2.9-.66-5.45-2.07-7.77-5.92,7.19,.77,13.86-4.97,19.97,2.44-1.09,2.15-3.73,2.56-6.12,3.54Z"/>
  <path class="cls-2" d="M247.41,122.34c1.86-.96,3.72-1.92,5.61-2.9,.74,9.09-6.95,15.44-15.2,12.7,1.67-3.38,5.16-4.13,6.59-7.83,0,0-.02,.03-.02,.03,1.6,.8,2.29-.73,3.06-2.05l-.04,.05Z"/>
  <path class="cls-5" d="M261.92,73.69c3.09,1.15,6.29-.8,8.15,3,1.87,3.82-1.47,5.79-2.1,9.28-2.95-3.28-4.79-6.97-6.05-12.28Z"/>
  <path class="cls-2" d="M260.82,103.03c.51-4.67,2.43-7.95,5.42-11.17,.47,5.96-.09,10.28-5.42,11.17Z"/>
  <path class="cls-12" d="M215.21,133.9c-4.3,1.12-8.54,3.14-13.03,1.43,.62-.18,1.32-.15,1.63-1.11,3.38,.02,6.7-.39,9.91-1.92,.5,.53,.99,1.07,1.49,1.6Z"/>
  <path class="cls-1" d="M225.51,120.92c3.4-1.63,6.17-2.26,9.02-.22-2.82-.14-5.34,4.61-9.02,.22Z"/>
  <path class="cls-9" d="M233.56,134.25c-4.07,1.85-8.16,1.23-12.25,.14,.98-.39,2.15,.3,3-.87,2.35-.07,4.7-.13,7.06-.2,.51,1.22,1.41,.84,2.2,.93Z"/>
  <path class="cls-2" d="M247.45,122.28c-1.95-.84-3.9-1.67-6.07-2.6,2.22-1.9,4.56-1.92,6.57-.75,2.02,1.18-1.97,1.78-.54,3.41,0,0,.04-.05,.04-.05Z"/>
  <path class="cls-9" d="M285.87,79.3c-.29,.64-.58,1.28-.88,1.92-.34-1.15-1.08-1.07-1.81-.99,0-.7-.01-1.4-.02-2.1,.9,.39,1.81,.78,2.71,1.18Z"/>
  <path class="cls-9" d="M284.16,73.21c.12,.32,.11,.63,0,.95-.09-.23-.2-.45-.26-.68-.01-.05,.17-.17,.26-.26Z"/>
  <path class="cls-3" d="M320.04,70.6c4.1,.55,8.2,1.11,12.31,1.66-1.39,2.27-3.85-.58-5.2,1.86-1.92,.44-3.63-.98-5.49-1.08-.54-.81-1.07-1.63-1.61-2.44Z"/>
  <path class="cls-3" d="M297.28,66.86c3.48,.52,6.97,1.05,10.45,1.57-1.96,1.95-4.58-.71-6.49,1.57-1.92-.37-3.83-.74-5.75-1.12,.04-1.51,.93-1.75,1.79-2.03Z"/>
  <path class="cls-12" d="M320.04,70.6c.54,.81,1.07,1.63,1.61,2.44-1.05,.04-2.11,.16-2.96-.9,.02-1.15,0-2.37,1.35-1.54Z"/>
  <path class="cls-7" d="M294.09,68.74c.38-.44,.71-.28,1.01,.15-.34-.05-.67-.1-1.01-.15Z"/>
  <path class="cls-8" d="M183.86,123.34c-.17,.67,.78,1.31-.1,2.08-9.49,8.31-19.64,10.05-30.44,5.29-.66-.29-1.64-.18-1.82-1.41-.14-.92,.33-1.54,1.01-1.81,8.09-3.26,15.85-8.83,24.79-6.3,2.22,.63,4.41,1.48,6.62,2.23l-.05-.08Z"/>
  <path class="cls-8" d="M206.59,125.34c-4.59,1.66-11.6,7.64-18.3,8.43-3.7,.44-7.28,.37-11.71-1.12,9.89-6.38,18.42-17.65,30.01-7.31Z"/>
  <path class="cls-8" d="M177.61,140.41c-1.17,2.93-3.35,1.48-5.07,1.94-2.59,.69-5.29-.83-7.88,.49-4.7-2.96-9.95-4.1-14.55-7.42-1.04-.33-1.62-2.75-3.08-1.15,0,0,.04,.08,.04,.08-.17-3.05,.04-5.4,3.14-3.43,5.54,3.53,11.53,4.58,17.49,3.58,3.21-.54,5,2.89,7.76,2.84l-.06-.08c-.46,2.49,1.39,2.2,2.21,3.16Z"/>
  <path class="cls-8" d="M175.45,137.34c-.46-.89-.92-1.79-1.8-3.49,7.06,2.45,13.53,1.37,20.07,.9,2.98-.22,6.13,3.38,10.11,5.81-7.39,3.24-14.03,3.01-20.73,1.5,0,0,.02,.19,.02,.19-1.37-1.28-2.74-2.59-4.59-2.12,0,0,.04,.05,.04,.05-.38-2.24-1.9-2.36-3.18-2.93l.06,.08Z"/>
  <path class="cls-8" d="M167.79,118.93c-3.93,2.61-7.41,3.18-11.15-.62,3.8-1.8,7.27-1.32,11.15,.62Z"/>
  <path class="cls-8" d="M183.91,123.42c.44-2.06-1.67-1.46-1.8-3.05,3.16-1.7,6.33-1.22,10.21-.21-2.98,2.6-5.61,3.42-8.47,3.18,0,0,.05,.08,.05,.08Z"/>
  <path class="cls-8" d="M197.92,134.91c-.32-.42-.64-.85-.96-1.27,.64-.54,1.13-.24,1.55,.48-.2,.26-.39,.52-.59,.79Z"/>
  <path class="cls-3" d="M235.09,56.83c1.87,.27,3.72,1,5.64,.46-.39,1.43-2.69,.19-2.2,1.72,1.16,3.67-1.15,2.69-2.18,3.14-1.18,.52-2.47,.71-3.73,.78-4.7,.25-4.7,.21-3.36,6.3-3.19,.64-5.81-1.33-8.31-3.41-1.37-1.15-3.24-2.29-2.67-5.21,.62-3.17,2.49-3.71,4.65-3.48-.84,1.81-2.92,2.88-2.06,5.72,.46,1.5,2,2.44,4.08,2.58-3.62-4.04-3.58-4.67,1.04-6.73,2.03-.91,4.54-1.29,6.32-.02,2.25,1.62,2.22-.34,2.79-1.84Z"/>
  <path class="cls-12" d="M229.27,69.22c-1.34-6.09-1.34-6.05,3.36-6.3,1.25-.07,2.55-.26,3.73-.78,1.03-.45,3.33,.53,2.18-3.14-.48-1.53,1.81-.29,2.2-1.72,1.25-.01,2.5-.02,3.75-.04-2.64,4.69-6.21,6.98-10.63,7.22-1.29,.07-3.09-.52-2.49,2.66-.42,1.18-1.05,1.98-2.1,2.09Z"/>
  <path class="cls-11" d="M235.09,56.83c-.57,1.49-.54,3.45-2.79,1.84-1.77-1.27-4.28-.89-6.32,.02-4.61,2.06-4.65,2.69-1.04,6.73-2.08-.14-3.62-1.08-4.08-2.58-.87-2.84,1.21-3.91,2.06-5.72,0,0-.07,.04-.07,.04,1.81-.3,3.76,.66,5.43-1,2.14,2.47,4.65-1.63,6.8,.67Z"/>
  <path class="cls-3" d="M228.29,56.16c-1.67,1.66-3.62,.7-5.43,1,1.64-1.88,3.64-.5,5.43-1Z"/>
  <path class="cls-12" d="M128.65,134.25c2.1,.18,3.58,2.14,5.37,3.2-.03,.5-.06,1-.08,1.5-1.77-1.55-4.44-1.37-5.29-4.7Z"/>
  <path class="cls-12" d="M147.03,134.28c1.46-1.61,2.04,.82,3.08,1.15-.29,.33-.58,.66-.88,.98-.84-.52-1.89-.67-2.2-2.13Z"/>
  <path class="cls-12" d="M141.71,120.3c-.99,.53-1.83,1.85-3.08,.98-.14-.64-.28-1.28-.41-1.93,1.07,.92,3.11-4.3,3.5,.95Z"/>
  <path class="cls-12" d="M178.54,140.13c1.85-.47,3.21,.83,4.59,2.12-1.49-.84-3.98,2.02-4.59-2.12Z"/>
  <path class="cls-12" d="M175.4,137.26c1.28,.57,2.8,.68,3.18,2.93-.32,.08-.65,.16-.97,.23-.82-.96-2.68-.67-2.21-3.16Z"/>
  <path class="cls-12" d="M130.99,132.32c-.58,.04-1.28,.23-.81-1.08,.53,.02,1.27-.22,.81,1.08Z"/>
  <path class="cls-12" d="M284.14,83.19c-1.02,2.87-2.5,5.24-4.5,7.05-.31-.39-.63-.77-.94-1.16,1.29-1.97,2.58-3.95,3.87-5.92,.53,.01,1.05,.02,1.58,.04Z"/>
  <path class="cls-12" d="M284.14,83.19c-.53-.01-1.05-.02-1.58-.04,.21-.98,.41-1.95,.62-2.93,.73-.08,1.47-.16,1.81,.99-.28,.66-.57,1.32-.85,1.98Z"/>
  <path class="cls-12" d="M278.69,89.08c.31,.39,.63,.77,.94,1.16-.45,.53-.8,1.33-1.57,.99-.98-1.3,.02-1.63,.62-2.15Z"/>
  <path class="cls-12" d="M203.82,134.22c-.31,.95-1.01,.93-1.63,1.11-.54-.2-1.47,.09-1.01-1.37,.87,.09,1.74,.17,2.62,.26h.02Z"/>
  <path class="cls-9" d="M203.8,134.22c-.87-.09-1.74-.17-2.62-.26,.92-.76,1.76-.09,2.62,.26Z"/>
  <path class="cls-12" d="M262,123.25c0,1.34-.44,2.12-1.54,2.01-.42-1.89,.13-2.52,1.54-2.01Z"/>
  <path class="cls-12" d="M262.77,122.25c.07,.79-.19,1.13-.79,1.04-.34-1.13-.2-1.64,.79-1.04Z"/>
</svg>