<svg width="24" height="24" viewBox="0 0 24 24" fill="none" xmlns="http://www.w3.org/2000/svg">
<g clip-path="url(#clip0_31_11)">
<path d="M16.6667 12.3333C16.6667 12.7933 16.2933 13.1667 15.8333 13.1667H13.3333V15.6667C13.3333 16.1267 12.96 16.5 12.5 16.5C12.04 16.5 11.6667 16.1267 11.6667 15.6667V13.1667H9.16667C8.70667 13.1667 8.33333 12.7933 8.33333 12.3333C8.33333 11.8733 8.70667 11.5 9.16667 11.5H11.6667V9C11.6667 8.54 12.04 8.16667 12.5 8.16667C12.96 8.16667 13.3333 8.54 13.3333 9V11.5H15.8333C16.2933 11.5 16.6667 11.8733 16.6667 12.3333ZM21.6667 12.3333C21.6667 14.615 20.8283 16.705 19.4433 18.3108C20.1483 18.6842 20.8333 19.4083 20.8333 20.6667C20.8333 21.1267 20.46 21.5 20 21.5C19.54 21.5 19.1667 21.1267 19.1667 20.6667C19.1667 19.8333 18.4517 19.6717 18.2317 19.6425C18.1775 19.635 18.1242 19.6225 18.0742 19.605C16.5283 20.7925 14.595 21.5 12.5 21.5C10.405 21.5 8.4725 20.7933 6.9275 19.6067C6.87333 19.6242 6.8175 19.6367 6.75833 19.6433C6.54833 19.6725 5.83333 19.8342 5.83333 20.6675C5.83333 21.1275 5.46 21.5008 5 21.5008C4.54 21.5008 4.16667 21.1275 4.16667 20.6675C4.16667 19.4092 4.85083 18.6858 5.55667 18.3117C4.17167 16.7058 3.33333 14.6158 3.33333 12.3342C3.33333 7.56 7.00083 3.6275 11.6667 3.205V2.33333C11.6667 1.87333 12.04 1.5 12.5 1.5C12.96 1.5 13.3333 1.87333 13.3333 2.33333V3.205C17.9992 3.6275 21.6667 7.56 21.6667 12.3333ZM12.5 19.8333C16.635 19.8333 20 16.4683 20 12.3333C20 8.19833 16.635 4.83333 12.5 4.83333C8.365 4.83333 5 8.19833 5 12.3333C5 16.4683 8.365 19.8333 12.5 19.8333ZM18.5125 1.5C18.0525 1.5 17.6792 1.87333 17.6792 2.33333C17.6792 2.79333 18.0525 3.16667 18.5125 3.16667C20.02 3.16667 20.8333 4.24 20.8333 5.25C20.8333 5.71 21.2067 6.08333 21.6667 6.08333C22.1267 6.08333 22.5 5.71 22.5 5.25C22.5 3.1475 20.7483 1.5 18.5125 1.5ZM4.16667 5.25C4.16667 4.24 4.98 3.16667 6.4875 3.16667C6.9475 3.16667 7.32083 2.79333 7.32083 2.33333C7.32083 1.87333 6.9475 1.5 6.4875 1.5C4.25167 1.5 2.5 3.1475 2.5 5.25C2.5 5.71 2.87333 6.08333 3.33333 6.08333C3.79333 6.08333 4.16667 5.71 4.16667 5.25Z" fill="#DE5F7B"/>
</g>
<defs>
<clipPath id="clip0_31_11">
<rect width="20" height="20" fill="white" transform="translate(2.5 1.5)"/>
</clipPath>
</defs>
</svg>
