<svg width="24" height="24" viewBox="0 0 24 24" fill="none" xmlns="http://www.w3.org/2000/svg">
<g clip-path="url(#clip0_31_11)">
<path d="M16.5833 12.9167C16.5833 13.4227 16.1727 13.8333 15.6667 13.8333H12.9167V16.5833C12.9167 17.0893 12.506 17.5 12 17.5C11.494 17.5 11.0833 17.0893 11.0833 16.5833V13.8333H8.33333C7.82733 13.8333 7.41667 13.4227 7.41667 12.9167C7.41667 12.4107 7.82733 12 8.33333 12H11.0833V9.25C11.0833 8.744 11.494 8.33333 12 8.33333C12.506 8.33333 12.9167 8.744 12.9167 9.25V12H15.6667C16.1727 12 16.5833 12.4107 16.5833 12.9167ZM22.0833 12.9167C22.0833 15.4265 21.1612 17.7255 19.6377 19.4919C20.4132 19.9026 21.1667 20.6992 21.1667 22.0833C21.1667 22.5893 20.756 23 20.25 23C19.744 23 19.3333 22.5893 19.3333 22.0833C19.3333 21.1667 18.5468 20.9888 18.3048 20.9568C18.2453 20.9485 18.1866 20.9348 18.1316 20.9155C16.4312 22.2218 14.3045 23 12 23C9.6955 23 7.56975 22.2227 5.87025 20.9173C5.81067 20.9366 5.74925 20.9503 5.68417 20.9577C5.45317 20.9898 4.66667 21.1676 4.66667 22.0843C4.66667 22.5903 4.256 23.0009 3.75 23.0009C3.244 23.0009 2.83333 22.5903 2.83333 22.0843C2.83333 20.7001 3.58592 19.9044 4.36233 19.4928C2.83883 17.7264 1.91667 15.4274 1.91667 12.9176C1.91667 7.666 5.95092 3.34025 11.0833 2.8755V1.91667C11.0833 1.41067 11.494 1 12 1C12.506 1 12.9167 1.41067 12.9167 1.91667V2.8755C18.0491 3.34025 22.0833 7.666 22.0833 12.9167ZM12 21.1667C16.5485 21.1667 20.25 17.4652 20.25 12.9167C20.25 8.36817 16.5485 4.66667 12 4.66667C7.4515 4.66667 3.75 8.36817 3.75 12.9167C3.75 17.4652 7.4515 21.1667 12 21.1667ZM18.6138 1C18.1078 1 17.6971 1.41067 17.6971 1.91667C17.6971 2.42267 18.1078 2.83333 18.6138 2.83333C20.272 2.83333 21.1667 4.014 21.1667 5.125C21.1667 5.631 21.5773 6.04167 22.0833 6.04167C22.5893 6.04167 23 5.631 23 5.125C23 2.81225 21.0732 1 18.6138 1ZM2.83333 5.125C2.83333 4.014 3.728 2.83333 5.38625 2.83333C5.89225 2.83333 6.30292 2.42267 6.30292 1.91667C6.30292 1.41067 5.89225 1 5.38625 1C2.92683 1 1 2.81225 1 5.125C1 5.631 1.41067 6.04167 1.91667 6.04167C2.42267 6.04167 2.83333 5.631 2.83333 5.125Z" fill="#F76A89"/>
</g>
<defs>
<clipPath id="clip0_31_11">
<rect width="22" height="22" fill="white" transform="translate(1 1)"/>
</clipPath>
</defs>
</svg>
