<svg width="24" height="24" viewBox="0 0 24 24" fill="none" xmlns="http://www.w3.org/2000/svg">
<path d="M21.4029 6.48822L14.344 1.07646C13.6382 0.488224 12.8146 0.25293 11.9911 0.25293C11.1676 0.25293 10.344 0.488224 9.63816 1.07646L1.87346 7.07646C1.28522 7.4294 1.04993 8.01764 1.04993 8.60587V19.6647C1.04993 21.7823 2.81463 23.547 4.93228 23.547H19.1676C21.2852 23.547 23.0499 21.7823 23.0499 19.6647V9.54705C22.9323 8.37058 22.4617 7.19411 21.4029 6.48822Z" fill="#F76A89"/>
<path d="M12 20C8.6915 20 6 17.3085 6 14C6 10.6915 8.6915 8 12 8C15.3085 8 18 10.6915 18 14C18 17.3085 15.3085 20 12 20ZM12 8.5C8.9675 8.5 6.5 10.9675 6.5 14C6.5 17.0325 8.9675 19.5 12 19.5C15.0325 19.5 17.5 17.0325 17.5 14C17.5 10.9675 15.0325 8.5 12 8.5ZM12.5 14.3355V10.5H12V14.1645L10.3025 16.347L10.697 16.6535L12.4995 14.336L12.5 14.3355Z" fill="white" stroke="white"/>
</svg>
