<?xml version="1.0" encoding="UTF-8"?>
<svg id="Layer_1" data-name="Layer 1" xmlns="http://www.w3.org/2000/svg" viewBox="0 0 414 200">
  <defs>
    <style>
      .cls-1 {
        fill: #00bff3;
      }

      .cls-2 {
        fill: #fff9b8;
      }

      .cls-3 {
        fill: #fff200;
      }

      .cls-4 {
        fill: #fbb040;
      }

      .cls-5 {
        fill: #9ed2f1;
      }

      .cls-6 {
        fill: #dfdcd6;
      }

      .cls-7 {
        fill: #6e6b66;
      }

      .cls-8 {
        fill: #5b5b5b;
      }

      .cls-9 {
        fill: #504b45;
      }
    </style>
  </defs>
  <path class="cls-9" d="M187.98,154.58c-2.07-.81-4.05-.75-6.18,.05-4.45,1.67-9.02,1.4-13.47-.14-2.12-.73-4.1-1.06-6.16-.05-.02-.41-.04-.82-.07-1.23,.14-.18,.28-.36,.42-.54-2.85-2.64-5.35-5.75-9.09-6.86-5.26-1.56-11.07,.67-15.91-3.68-.81-.73-1.78-.05-2.24,.78-.63,1.13,.46,1.63,.97,2.01,3.5,2.57,6.66,5.9,10.58,7.53-.39,.29-.77,.58-1.16,.87-1.22-.37-2.28,.39-3.37,.81-2.45,.95-5.02,1.8-7.5,1.27-5.44-1.15-10.73-.44-16.18,0-6.57,.53-13.17-.55-19.7,1.87-3.02,1.12-6.36,.46-9.4-.76-2.9-1.16-5.75-1.84-8.75-1,.53-1.27,3.04-1.57,1.22-3.98,1.3-1.19,1.77,.73,2.56,1.2,6.9,4.11,13.84,4.64,21.69,.84-3.37-1.47-5.48-3.82-7.81-5.75-.92-.77-1.71-1.17-2.88-.43-4.21,2.66-8.62,2.65-12.97,1-1.05,.92,.55,2.36-.58,3.15-1.63-2.75-4.94-4.01-5.23-7.8-.29-3.76-2.05-3.09-3.73-2.63-2.17,.6-2.95,2.65-2.12,5.15,1.16,3.47,2.92,6.36,5.97,7.63,.95,.4,2.13,.31,2.74,1.63-.06,.11-.12,.33-.17,.32-8.01-1.09-15.36,4.05-23.29,3.9-2.2-.04-4.46,.22-6.6,.86-3.37,1.01-4.21-2.1-5.11-4.75-.67-1.99,1.95-6.11,4.05-6.31,5.97-.59,11.88-1.68,17.79-2.83,1.8-.35,2.95-.74,3.34-3.52,.46-3.27,2.79-4.13,5.17-3.87,1.83,.2,3.32-.1,4.27-2.31,.14-.33,.39-.76,.63-.81,6.48-1.38,11.99-9.93,19.44-4.12,.92,.72,1.57-.11,2.25-.76,1.2-1.15,2.57-1.77,4.07-1.97,.01,.41,.02,.83,.03,1.24-.91,.78-2.28,.53-2.93,2.01,2.53,2.09,4.99,1.61,7.11-.59,1.38-1.43-.25-1-.72-1.23-.17-2.01,.91-1.27,1.62-1.09,4.14,1.07,8.11,1.46,12.08-1.45,2.29-1.68,5.22-1.55,7.7-.18,4.3,2.36,8.47,2.44,12.74,.09,1.69-.93,3.58-1.21,5.27-.36,2.9,1.45,5.8,1.81,8.9,1.63,1.79-.1,3.45,.16,5.16-1.01,1.57-1.08,3.63-1.73,5.23-.78,4.09,2.43,8.49,1.14,12.65,2.26,.77,.21,1.45,.22,2.13-.27,3.29-2.37,6.53-1.51,10.07-.59,3.69,.96,7.63,2.32,11.37-1.19,2.58-2.42,5.86-2.15,8.79-.48,3.1,1.76,5.88,1.72,8.9-.5,2.67-1.97,5.77-1.77,8.57-.2,3.64,2.05,7.19,2.35,10.87,.32,2.78-1.54,5.53-.84,8.21,.52,1.84,.93,1.83,.94,3.67-1.41-.71-.06-1.43,.14-1.88-.21-.82-.63-2.05-1.33-1.69-2.82,.29-1.2,1.4-1.7,2.4-1.23,1.8,.84,2.36-.02,2.9-2.19,.68-2.72,1.94-5.21,2.94-7.77-1.14-1-1.98-.37-2.87,.06-6.21,2.94-8.41,2.08-11.84-4.68-.52-1.03-.95-2.5-2.03-1.97-1.32,.66,.27,2.01-.08,3.04-.36,0-.72,.01-1.08,.02-.33-1.45-1.47-2.98-.41-4.38,.89-1.16,2.19-.36,3.28,.01,3.31,1.12,6.34,.28,9.16-2.04,.45-.36,.76-.85,.59-1.54-.24-.96-.88-.79-1.47-.7-1.83-.32-3.66-.64-5.49-.96-1.05-.79-2.18-.91-3.35-.67-1.42-.11-2.84-.22-4.25-.34-.04-.53-.13-1.08-.65-1.08-.52,0-.59,.57-.64,1.09-1.45,.26-2.89,.51-4.34,.77-.03-.73-.07-1.46-.1-2.18,.09-.17,.21-.21,.35-.12,1.19,.09,2.43,.6,3.46-.67,2-.32,.95-1.74,.6-2.81-3.99-12.35-7.17-25.03-9.63-37.99-.19-1.02-1.48-2.56,.6-2.9,2.61,12.83,5.59,25.52,9.4,37.88,2.1,6.82,2.33,6.9,8.37,6.1-4.53-10.9-7.05-22.69-9.87-34.32-.91-3.74-2.15-7.47-2.03-11.53,1.85,1.1,1.57,3.53,1.98,5.4,2.51,11.51,5.33,22.89,8.86,33.97,.24,.74,.5,1.47,.77,2.19,2.21,5.93,5.32,8.14,10.39,7.44,1.02-.14,1.56-.9,2.22-1.88,5.4-8.05,14.11-9.36,19.75-3.25,1.86,2.02,2.31,4.97,3.62,7.34,0,.61-.15,1.57,.39,1.63,.67,.07,.96-.82,1.06-1.63,2.27-3.71,3.43-8.16,5.16-12.23,.72-1.69-.13-2.08-1.05-2.55-2.3-1.18-2.01-2.6-.3-4.27,1.75-1.72,3.45-3.53,5.17-5.29,.48-.49,.91-1.3,1.62-.95,.74,.37,.54,1.31,.55,2.09,.06,3.33,.11,6.66,.2,9.98,.05,1.82-.47,2.69-1.85,1.57-1.58-1.29-2.08-.3-2.76,1.42-1.78,4.5-3.19,9.25-5.63,13.31-.65,.44-1.11,1.06-1.23,2.01-2.4,2.67-3.52,6.82-6.79,8.83,5.06,.97,9.78,1.87,14.5,2.76,1.13,.21,2.34,.72,2.8-1.35,.47-2.15,1-4.27,1.51-6.41,.03-.33,.06-.67,.08-1,.07-.09,.17-.17,.21-.28,.03-.08,0-.24-.05-.31-1.35-1.67-3.06-.8-4.61-1.01l.04,.04c-1.91-1.64-4.39-.69-6.33-2.19,3.08-1.18,6.02,.37,8.98,.94,1.91,.37,3.06,.05,4.27-1.99,2.67-4.53,6.43-6.3,10.88-5.48,4.24,.78,6.48,3.33,7.22,8.98,.4,3.03,1.46,3.99,3.77,4.42,13.35,2.47,26.67,5.12,40,7.81,.93,.19,2.87-.78,2.39,2.14-.64-.09-1.28-.17-1.92-.26-.92-1.2-2.13-.59-3.21-.82l.05,.03c-1.36-1.21-2.89-.71-4.37-.71-.76-.15-1.36,0-1.44,1.17-.81-.23-1.62-.46-2.43-.69,.01-.63-.13-1.13-.64-1.37-2.67-1.37-5.47-1.67-8.31-1.67-2.6-2.01-5.63-.27-8.32-1.54-2.81-1.53-5.85-1.65-8.8-2.25-4.56-.92-9.22-1.27-13.7-2.58-2.28-.67-4.28-3.01-5.98,.89-1.48,.99-1.51,3.07-2.21,4.64-.91,2.04-.18,2.81,1.39,3.09,6.11,1.08,12.15,2.49,18.19,4.12,7.82,2.11,15.79,3.33,23.71,4.82,1.33,.25,2.37,.83,3.18,2.12-10.91-2.11-21.82-4.18-32.71-6.37-1.38-.28-2.42-.35-3.21,1.37-.42,.9-1.07,1.65-1.67,2.39-3.17,3.92-6.22,7.7-8.66,12.69-3.26,6.65-8.06,12.19-15.21,12.56-1.77,.09-3.44,1.92-5.24,2.58-4.74,1.76-9.46,.74-14.09-.76-2.16-.7-4.1-.66-6.07,.55-.03-.55-.06-1.1-.09-1.65,.33-.31,.88-.77,.52-1.2-4.5-5.38-9.76-8.63-16.06-8.87-.56-.16-1.1-.2-1.52,.42-2.74,.7-5.28,.04-7.48-2.09-1.07-1.03-2.12-.97-2.79,.1-1.05,1.67,.62,1.94,1.23,2.36,3.85,2.62,7.34,6.07,11.56,7.82-.32,1.16-1.47,.5-1.92,1.38-.43,.2-.86,.39-1.28,.59-.28,.1-.56,.2-.83,.29-3.43,.07-6.83,.68-10.24-.81-4.39-1.91-8.62,1.51-13.04,1.12-2.33-.2-4.71-.17-6.87-1.18-3.24-1.52-6.35-2.29-9.52,.02-.04-.42-.09-.85-.13-1.27,.76-.59,1.86-.39,2.33-1.44-3.87-7.13-9.92-6.15-15.39-6.19-3.33-.02-6.35-.16-8.91-2.85-1.93-2.03-3.49-1.73-5.41,.66,4.79,3.79,9.08,8.26,14.65,9.87l-.15,1.3Zm92.38-50.16c-1.29,.53-2.59,1.06-3.88,1.59-2.88-.31-5.6-.03-7.63,3.06-.27,.41-.76,1.02-1.24,.15,2.54-4.48,5.73-7.27,10.97-5.73-3.27-4.18-6.56-4.34-9.81-2.44-7.91,4.64-11.71,13.31-13.86,23.43-.15,.73-.42,1.55,.33,2.1,1.65,1.22,5.13-.62,5.74-3.01,1.39-5.4,3.42-10.33,6.65-14.38,.71,1.38-.06,2.26-.68,3.19-.4,.75-.8,1.49-1.19,2.24-.88,1.91-1.76,3.81-2.63,5.72-.9,1.1-1.23,2.47-1.14,4.02-.57,1.48-.65,2.52,.96,3.17,1.03,.41,2.72,.19,2.75,2.52-2.27-.33-4.27-1.83-6.68-1.86-9.55-.14-16.12,7.78-23.83,13.12,2.82,2.83,5.73,2.53,8.67,1.74,7.68-2.04,14.11-7.75,21.24-11.41,.67-.34,.44-1.07,.56-1.66q5.04-.08,5.26-6.74c.04-1.02,.28-2.04,.42-3.06,1.69,1.14,.32,3.11,.78,4.58,.38,1.22-.97,3.53,1.29,3.54,1.79,0,3.94,.56,4.18-3.03,.1-1.44,.51-2.84,.57-4.28,.05-1.22,1.12-3.04-.05-3.56-1.2-.53-2.65-1.73-4.12-.44-.85,.75-1.77,1.37-2.66,2.05-2.31,1.26-4.62,2.52-6.93,3.78-1.9,.29-1.11-1.19-.94-2.26,6.17-2.54,11.4-6.75,15.3-13.39,.68-.8,1.4-1.56,1.52-2.84,.14-.25,.27-.5,.41-.75-.1-.03-.24-.12-.3-.07-.31,.26-.29,.57-.04,.88Zm-.13,18.46c-2.6-.22-.72,2.77-1.7,3.83-.41,.45-.24,1.51,.54,1.86,1.33,.59,2.78,1.44,2.35-1.74,.87-.77,2.03-.15,2.93-1.39,1.18-1.63,3.08-2.79,1.93-5.43-1.09-2.49-3.32-2.25-5.06-1.92-2.48,.47-.22,3.03-.84,4.45-.05,.12-.1,.23-.15,.35Zm-2.24-22.8c.28,.31,.57,.62,.85,.93,.47-.73,.08-1.15-.36-1.56-.78-3.5-2.77-5.5-5.34-6.75-4.76-2.33-9.44-1.15-12.63,3.24-4.52,6.22-9.84,9.49-16.33,10.51,2.78,6.19,6.27,6.71,9.76,3.45,3.05-2.84,6.34-5.27,9.47-7.98,4.61-3.99,9.4-5.21,14.57-1.84Zm10.18,33.77c3.87,.08,5.99-1.7,7.3-5.41,1.8-5.11,2.29-10.78,4.41-15.73,2.18-5.1,3.96-5.71,8.32-3.7,1.72,.79,4.54,2.51,5.41,.19,.95-2.52-.76-5.55-2.85-7.27-.78-.64-1.7-1.1-2.61-1.37-4.81-1.42-9.94,1.59-11.74,7.38-2.65,8.49-4.49,17.36-8.24,25.92Zm-71.63,7.07c2.58,3.56,5.73,4.03,9.23,2.96,6.52-1.99,11.93-6.72,17.56-11.11-7.52-5.91-16.44-3.17-26.79,8.15Zm65.7,12.06c-4.42,.06-6.36-4.44-9.47-5.06-5.74-1.14-10.93-3.91-16.06-7.01-1.67-1.01-3.01-.5-4.52,.22-1.46,.7-1.15,1.52-.26,2.51,5.99,6.71,12.46,12.08,20.94,11.9,2.93-.06,5.92,.46,9.36-2.57Zm18.4-14.96c-3.32,1.67-5.72,2.94-8.16,4.08-2.5,1.16-5.11,1.62-7.78,1.65-2.78,.03-5.43-.74-6.98-3.74-1.89-3.65-3.18-.5-4.56,.35-2.06,1.27-.66,3.09,.05,4.26,2.8,4.63,8.87,8.94,13.79,7.14,5.64-2.07,9.68-6.98,13.64-13.74Zm-95.68-4.29c-2.31-1.36-4.26-2.19-6.38-2.35-6.01-.47-11.37,1.57-16.06,6.37-1.1,1.12-3.73,1.51-3.29,2.92,.76,2.42,3.16,3.26,5.32,3.49,1.03,.11,2.12,.02,3.13-.26,6.2-1.69,11.89-4.77,17.28-10.16Zm-153.57,19.82c-1.97,1.08-4.1,.18-5.89,1.81,1.99,2,4.22-.83,6.1,1.06-1.38,1.59-3.45,.09-5.02,2.84,9.58-.98,18.48-1.69,27.64-5.33-1.32-1.49-2.65-2.27-2.95-3.47-.82-3.25-2.34-2.81-4.41-2.34-6.06,1.4-12.01,3.67-18.26,3.56-.52,0-1.05,.09-1.39,.79,1.17,1.3,2.7-.7,4.19,1.08Zm48.64-9.69c10.39,4.86,17.03-2.11,23.64-9.67-5.7-3.42-12.18-3.25-15.97,1.14-2.36,2.73-4.74,5.47-7.66,8.53Zm59.3-3.79c3.46,7.28,14.01,3.11,24.51-6.63-9.79-6.57-17.03,.68-24.51,6.63Zm-20.5,1.16c3.28,2.35,6.43,2.6,9.7,1.87,3.27-.72,6.18-2.61,9.11-4.42,2.24-1.39,4.37-3.02,6.09-5.35-2.59-2.08-5.45-2.68-8.47-2.46-.42,.03-.83,.19-1.25,.27-5.87,1.02-10.25,5.58-15.19,10.09Zm5.67-7.97c-9.81-4.71-17.9-.88-24.49,8.17,9.76,5.11,17.15-.78,24.49-8.17Zm79.94-.95c-10.84-5.86-17.54,2.2-24.81,8.38,3.49,4.29,7.3,3.53,11.26,1.84,4.87-2.08,8.06-7.42,13.55-10.22Zm-125.18,1.51c-3.31,.47-6.23,.97-8.76,4.03-1.35,1.63-2.43,3.77-4.33,4.9-1.14,.68-3.01,2.15-2.55,3.96,.34,1.35,2.39,1.05,3.72,1.17,1.04,.09,2.1,.02,3.13-.14,5.6-.85,9.34-5.81,13.43-9.9,1.09-1.09,1.69-2.89-.77-3.18-1.35-.16-2.69-.58-3.87-.84Zm83.36,19.29c-4.34-3.66-7.65-7.84-12.48-7.83-4.45,0-8.85,.33-12.46-4-.85-1.02-2.25,.17-2.79,1.04-.83,1.35,.51,2.04,1.22,2.61,1.86,1.49,3.92,2.63,5.71,4.23,6.25,5.58,13.11,5.44,20.81,3.95Zm-39.76-.72c-3.68-2.62-6.05-6.69-9.78-7.33-4.96-.84-10.12,.24-14.89-2.59-.68-.41-1.56,.26-1.81,1.15-.26,.92,.55,1.28,1.07,1.67,1.88,1.44,3.81,2.8,5.66,4.3,6.04,4.87,12.45,5.19,19.75,2.8Zm136.94-22.18c-8.89-1.75-15.73,3.35-22.74,8.62,7.18,5.86,15.12,3.23,22.74-8.62Zm23.32-8.17c-1.28-.41-1.52,.93-2.14,2.05-2.89,5.23-5.78,10.57-11.38,11.59-2.27,.42-1.01,2.39-1.04,3.7-.04,1.88,.76,1.95,2.08,1.51,5.86-1.91,10.57-6.22,15.03-11.05,1.41-1.53,3.89-3.25,3.45-5.19-.63-2.8-3.64-1.74-5.58-2.54-.1-.04-.21-.04-.43-.07Zm-79.17,30.88c-2.57-1.63-4.42-4.4-6.93-5.95-2.48-1.54-5.18-2.64-7.85-2.05-3.64,.79-6.89,.52-9.88-2.36-.74-.71-1.76-1.82-2.42-.45-.55,1.13,.52,2.19,1.3,2.8,1.97,1.54,4.1,2.75,5.99,4.43,6.13,5.44,12.84,5.21,19.79,3.59Zm-125.78-7.45c7.58,7.96,15.98,10.45,25.97,7.45-1.49-1.24-2.61-1.92-3.48-2.93-3-3.48-6.25-4.89-10.37-3.4-2.62,.94-5.42,.68-8.15-.17-1.24-.39-2.37-1.75-3.96-.95Zm118.63-.9c7.57,7.47,15.09,11.04,24.81,8.73-3.44-1.52-5.42-4.04-7.85-5.68-1.75-1.18-3.41-3.63-5.38-2.94-3.64,1.28-7.17,1.63-11.59-.11Zm73.5-21.43c-5.21,2.03-8.22,7.05-11.64,11.42-1.57,2-.51,3.67,.54,5.19,1.18,1.7,2.37,1.27,3.41-.34,1.58-2.44,3.43-4.69,4.67-7.39,1.25-2.73,2.91-5.41,3.02-8.88Zm-201.3,13.8c-4.35-2.15-7.52-.29-10.3,3.01-1.59,1.89-1.23,4.02,.23,5.89,.61,.78,1.25,2.31,2.21,.76,2.2-3.55,5.34-5.88,7.85-9.65Zm123.15-7.8c-3.36-2.06-6.4-1.64-9.29,1.33,3.7,4.49,6.33-.09,9.29-1.33Zm18.23-.54c-3.1-2.1-5.94-1.97-9,.11,3.21,3.2,6.02,2.11,9-.11Zm-99.17,1.46c-3.7-1.72-6.81-1.87-9.98,.87q4.29,2.43,9.98-.87Zm-43.85,4.26q3.08,1.37,8.72-2.15c-3.19-1.05-5.94-.65-8.72,2.15Zm153.4-5.45c2.81,2.48,5.26,3.99,7.82,.12-2.47-1.91-4.93-1.79-7.82-.12Zm-70.62,1.31c-2.68-1.51-5.16-1.59-7.85,.05,2.68,3.26,5.17,2.84,7.85-.05Zm21.43,.29c-3.38-1.56-5.82-1.53-8.21,.45,2.76,3.84,5.01,.47,8.21-.45Zm-49.24-.23c2.88,2,5.41,3.18,7.96-.07-2.57-1.47-5.07-1.59-7.96,.07Zm141,11.08c1.39,.64,2.96,1.51,3.68,.26,.85-1.48-.25-3.24-.54-5.07-1.2,1.83-2.17,3.32-3.14,4.81Zm5.91-19.62c.66-.46,2.28,.27,2.11-1.27-.18-1.73-1.88-.85-2.86-1.33-.76-.37-1.21,.15-1.04,1.16,.19,1.09,.59,1.99,1.79,1.45Zm8.86,4.27c1.39-.82,1.86-2.42,2.04-4.23,.01-.1-.53-.47-.77-.41-1.72,.41-.96,2.58-1.64,3.74-.29,.49-.01,.63,.38,.9Zm-32.71,17.87c1.2,.39,2.25,2.27,3.62,.76,.22-.24,.29-1.24,.15-1.35-1.31-1.11-2.49,.17-3.78,.59Z"/>
  <path class="cls-2" d="M347.71,120.91c.81,.23,1.62,.46,2.43,.69,2.3,1.11,4.9,.51,7.16,2.2,1.18,.89,1.02-1.04,1.34-1.85l.24,.06,.23-.08c.64,.09,1.28,.17,1.92,.26,.28,3.44,.9,6.86,.55,10.36-3.44-.61-6.89-1.2-10.33-1.86-1.05-.2-2.1-.74-2.47,1.18-.98,.51-1.89,.6-2.57-.69-.82-1.29-1.86-1.87-3.18-2.12-7.92-1.5-15.89-2.72-23.71-4.82-6.04-1.63-12.08-3.04-18.19-4.12-1.57-.28-2.3-1.04-1.39-3.09,.7-1.57,.73-3.65,2.21-4.64,7.68,.86,15.1,4.09,22.89,3.97,1.31,1.41,3,.98,4.49,1.25,6.12,1.14,12.17,2.94,18.37,3.29Z"/>
  <path class="cls-4" d="M233.25,50c-.12,4.06,1.13,7.79,2.03,11.53,2.82,11.63,5.34,23.42,9.87,34.32-6.04,.81-6.27,.72-8.37-6.1-3.81-12.36-6.79-25.05-9.4-37.88,1.88-1.02,3.79-1.87,5.87-1.87Z"/>
  <path class="cls-5" d="M79.63,155.53c-.62-1.32-1.79-1.24-2.74-1.63-3.05-1.27-4.81-4.16-5.97-7.63-.83-2.5-.05-4.55,2.12-5.15,1.68-.46,3.45-1.13,3.73,2.63,.29,3.8,3.6,5.05,5.23,7.8l-.02-.02c1.82,2.41-.69,2.71-1.22,3.98-.38,0-.76,.02-1.14,.03Z"/>
  <path class="cls-8" d="M239.67,108.37c.36,0,.72-.01,1.08-.02,.17,3.99-.38,4.73-3.23,3.31-2.22-1.11-4.35-2.66-6.31-4.37-4.64-4.05-4.35-7.47,.78-10.93,.03,.73,.07,1.46,.1,2.18-1.19,1.13-3.55,1.29-2.51,4.35,1.03,3.01,7.29,7.13,9.78,6.52,.15-.04,.2-.68,.3-1.04Z"/>
  <path class="cls-8" d="M145.68,153.33c.39-.29,.77-.58,1.16-.87,5.04,1.79,10.13,2.02,15.27,.77,.02,.41,.04,.82,.07,1.23-5.61,2.21-11.1,1.59-16.5-1.12Z"/>
  <path class="cls-7" d="M242.8,154.48c.44-.89,1.6-.22,1.92-1.38,4.78,1.53,9.61,2.29,14.54,1.46,.03,.55,.06,1.1,.09,1.65-5.63,1.11-11.09-.38-16.55-1.73Z"/>
  <path class="cls-8" d="M348.79,131.87c.37-1.92,1.42-1.38,2.47-1.18,3.44,.66,6.89,1.24,10.33,1.86,1.32,3.05-.9,1.53-1.37,1.46-3.82-.61-7.62-1.4-11.43-2.13Z"/>
  <path class="cls-8" d="M200.87,153.24c.04,.42,.09,.85,.13,1.27-4.33,1.85-8.68,1.57-13.02,.07,.05-.43,.1-.87,.15-1.3,4.25,.95,8.5,.99,12.74-.04Z"/>
  <path class="cls-5" d="M108.98,130.8c.46,.24,2.1-.2,.72,1.23-2.13,2.2-4.58,2.68-7.11,.59,.66-1.47,2.02-1.23,2.93-2.01,1.18,.05,2.36,.1,3.55,.14l-.08,.04Z"/>
  <path class="cls-2" d="M283.53,105.37c1.94,1.5,4.42,.55,6.33,2.19-1.64,.69-3.51-1.11-5.05,.75-1.29,.19-2.33-.16-2.63-2.01,.12-.95,.58-1.57,1.23-2.01,.04,.36,.08,.72,.12,1.08Z"/>
  <path class="cls-8" d="M109.06,130.76c-1.18-.05-2.36-.1-3.55-.14-.01-.41-.02-.83-.03-1.24q3.25-.64,3.58,1.38Z"/>
  <path class="cls-8" d="M235.81,95.57c-1.02,1.27-2.27,.76-3.46,.67,1.11-.59,2.24-.95,3.46-.67Z"/>
  <path class="cls-6" d="M240.68,155.36c.28-.1,.56-.2,.83-.29-.28,.1-.56,.2-.83,.29Z"/>
  <path class="cls-4" d="M288.18,133.86c3.74-8.56,5.59-17.43,8.24-25.92,1.8-5.79,6.93-8.8,11.74-7.38,.91,.27,1.83,.73,2.61,1.37,2.08,1.73,3.79,4.76,2.85,7.27-.87,2.32-3.69,.6-5.41-.19-4.36-2-6.13-1.39-8.32,3.7-2.12,4.95-2.61,10.62-4.41,15.73-1.3,3.71-3.43,5.49-7.3,5.41Z"/>
  <path class="cls-4" d="M278,100.1c-5.17-3.38-9.96-2.16-14.57,1.83-3.13,2.71-6.42,5.14-9.47,7.98-3.5,3.26-6.98,2.73-9.76-3.45,6.48-1.02,11.81-4.3,16.33-10.51,3.19-4.39,7.87-5.56,12.63-3.24,2.57,1.25,4.56,3.25,5.34,6.75l-.49,.64Z"/>
  <path class="cls-5" d="M265.66,129.99c-.12,.58,.11,1.31-.56,1.66-7.13,3.66-13.56,9.37-21.24,11.41-2.95,.78-5.85,1.09-8.67-1.74,7.71-5.35,14.28-13.26,23.83-13.12,2.42,.03,4.41,1.54,6.68,1.86,0,0-.04-.06-.04-.06Z"/>
  <path class="cls-5" d="M216.55,140.93c10.35-11.33,19.27-14.06,26.79-8.15-5.63,4.39-11.04,9.12-17.56,11.11-3.49,1.07-6.65,.6-9.23-2.96Z"/>
  <path class="cls-5" d="M282.25,152.99c-3.44,3.03-6.43,2.51-9.36,2.57-8.48,.18-14.95-5.18-20.94-11.9-.89-1-1.2-1.82,.26-2.51,1.51-.72,2.84-1.24,4.52-.22,5.13,3.1,10.32,5.87,16.06,7.01,3.11,.62,5.04,5.11,9.47,5.06Z"/>
  <path class="cls-1" d="M300.65,138.04c-3.96,6.76-7.99,11.67-13.64,13.74-4.92,1.8-11-2.51-13.79-7.14-.71-1.17-2.11-2.99-.05-4.26,1.38-.85,2.67-4,4.56-.35,1.56,3,4.2,3.77,6.98,3.74,2.67-.03,5.28-.49,7.78-1.65,2.44-1.13,4.84-2.41,8.16-4.08Z"/>
  <path class="cls-5" d="M204.97,133.75c-5.39,5.39-11.08,8.47-17.28,10.16-1.01,.28-2.1,.37-3.13,.26-2.16-.23-4.56-1.07-5.32-3.49-.44-1.4,2.19-1.79,3.29-2.92,4.68-4.8,10.05-6.83,16.06-6.37,2.12,.16,4.07,.99,6.38,2.35Z"/>
  <path class="cls-3" d="M267.64,109.2c-3.23,4.06-5.26,8.99-6.65,14.38-.61,2.39-4.1,4.22-5.74,3.01-.75-.55-.48-1.38-.33-2.1,2.16-10.11,5.96-18.79,13.86-23.43,3.25-1.91,6.55-1.74,9.81,2.44-5.24-1.54-8.43,1.25-10.97,5.73l.02-.03Z"/>
  <path class="cls-5" d="M51.4,153.57c-1.49-1.78-3.03,.22-4.19-1.08,.33-.71,.87-.8,1.39-.79,6.24,.11,12.2-2.17,18.26-3.56,2.07-.48,3.59-.91,4.41,2.34,.3,1.19,1.63,1.98,2.95,3.47-9.15,3.65-18.05,4.35-27.64,5.33,1.57-2.75,3.64-1.25,5.02-2.84-1.87-1.89-4.11,.95-6.1-1.06,1.79-1.64,3.92-.73,5.89-1.81Z"/>
  <path class="cls-5" d="M100.04,143.88c2.93-3.06,5.3-5.8,7.66-8.53,3.79-4.39,10.27-4.56,15.97-1.14-6.61,7.56-13.24,14.53-23.64,9.67Z"/>
  <path class="cls-5" d="M200.87,153.24c-4.24,1.03-8.49,.99-12.74,.04-5.57-1.6-9.86-6.08-14.65-9.87,1.92-2.39,3.48-2.69,5.41-.66,2.56,2.69,5.59,2.83,8.91,2.85,5.48,.04,11.52-.95,15.39,6.19-.47,1.06-1.57,.85-2.33,1.44Z"/>
  <path class="cls-5" d="M159.34,140.1c7.47-5.95,14.71-13.2,24.51-6.63-10.5,9.75-21.04,13.92-24.51,6.63Z"/>
  <path class="cls-5" d="M138.84,141.26c4.94-4.51,9.32-9.07,15.19-10.09,.42-.07,.83-.23,1.25-.27,3.01-.23,5.88,.37,8.47,2.46-1.72,2.33-3.85,3.96-6.09,5.35-2.93,1.81-5.84,3.7-9.11,4.42-3.27,.72-6.42,.48-9.7-1.87Z"/>
  <path class="cls-5" d="M144.51,133.28c-7.34,7.39-14.73,13.28-24.49,8.17,6.6-9.04,14.69-12.88,24.49-8.17Z"/>
  <path class="cls-5" d="M224.45,132.33c-5.49,2.8-8.68,8.14-13.55,10.22-3.96,1.69-7.77,2.45-11.26-1.84,7.27-6.18,13.96-14.24,24.81-8.38Z"/>
  <path class="cls-5" d="M259.26,154.56c-4.93,.82-9.76,.07-14.54-1.46-4.22-1.75-7.71-5.2-11.56-7.82-.62-.42-2.28-.69-1.23-2.36,.67-1.07,1.73-1.13,2.79-.1,2.2,2.13,4.74,2.79,7.48,2.09,.51-.14,1.01-.28,1.52-.42,6.3,.23,11.56,3.49,16.06,8.87,.36,.43-.19,.89-.52,1.2Z"/>
  <path class="cls-5" d="M99.27,133.84c1.18,.26,2.52,.68,3.87,.84,2.46,.29,1.86,2.09,.77,3.18-4.09,4.09-7.83,9.05-13.43,9.9-1.04,.16-2.1,.23-3.13,.14-1.33-.12-3.38,.19-3.72-1.17-.46-1.81,1.41-3.29,2.55-3.96,1.9-1.13,2.98-3.27,4.33-4.9,2.54-3.06,5.45-3.56,8.76-4.03Z"/>
  <path class="cls-5" d="M182.64,153.12c-7.7,1.49-14.56,1.63-20.81-3.95-1.79-1.6-3.85-2.74-5.71-4.23-.7-.56-2.05-1.26-1.22-2.61,.54-.87,1.94-2.06,2.79-1.04,3.61,4.33,8.01,4.01,12.46,4,4.84-.01,8.15,4.17,12.48,7.83Z"/>
  <path class="cls-5" d="M162.1,153.22c-5.14,1.26-10.23,1.03-15.27-.77-3.92-1.63-7.08-4.95-10.58-7.53-.51-.37-1.6-.88-.97-2.01,.46-.83,1.44-1.51,2.24-.78,4.85,4.36,10.65,2.13,15.91,3.68,3.74,1.11,6.24,4.21,9.09,6.86-.14,.18-.28,.36-.42,.54Z"/>
  <path class="cls-5" d="M142.88,152.4c-7.3,2.39-13.71,2.07-19.75-2.8-1.86-1.49-3.78-2.86-5.66-4.3-.52-.4-1.33-.75-1.07-1.67,.25-.9,1.13-1.56,1.81-1.15,4.77,2.83,9.93,1.75,14.89,2.59,3.73,.64,6.11,4.71,9.78,7.33Z"/>
  <path class="cls-5" d="M279.82,130.23c-7.61,11.85-15.55,14.48-22.74,8.62,7-5.28,13.84-10.37,22.74-8.62Z"/>
  <path class="cls-4" d="M303.14,122.05c.23,.04,.34,.03,.43,.07,1.94,.8,4.94-.26,5.58,2.54,.44,1.94-2.04,3.67-3.45,5.19-4.47,4.84-9.18,9.14-15.03,11.05-1.33,.43-2.13,.37-2.08-1.51,.03-1.31-1.23-3.28,1.04-3.7,5.6-1.03,8.49-6.36,11.38-11.59,.62-1.12,.86-2.46,2.14-2.05Z"/>
  <path class="cls-5" d="M223.97,152.93c-6.95,1.62-13.66,1.85-19.79-3.59-1.89-1.67-4.02-2.89-5.99-4.43-.78-.61-1.85-1.66-1.3-2.8,.67-1.37,1.68-.26,2.42,.45,2.99,2.88,6.24,3.15,9.88,2.36,2.67-.58,5.37,.52,7.85,2.05,2.51,1.55,4.37,4.33,6.93,5.95Z"/>
  <path class="cls-5" d="M82,151.55c1.13-.79-.47-2.23,.58-3.15,4.34,1.64,8.76,1.66,12.97-1,1.17-.74,1.96-.34,2.88,.43,2.32,1.93,4.44,4.28,7.81,5.75-7.85,3.79-14.79,3.27-21.69-.84-.79-.47-1.26-2.39-2.56-1.2,0,0,.02,.02,.02,.02Z"/>
  <path class="cls-2" d="M282.17,106.3c.31,1.85,1.34,2.2,2.63,2.01,3.13,.61,6.25,1.21,9.38,1.82-.5,2.13-1.03,4.26-1.51,6.41-.46,2.08-1.67,1.56-2.8,1.35-4.72-.89-9.44-1.8-14.5-2.76,3.27-2.01,4.39-6.16,6.79-8.83Z"/>
  <path class="cls-5" d="M98.2,145.48c1.59-.8,2.72,.57,3.96,.95,2.74,.85,5.53,1.11,8.15,.17,4.13-1.49,7.37-.08,10.37,3.4,.87,1.01,1.99,1.69,3.48,2.93-10,3-18.39,.51-25.97-7.45Z"/>
  <path class="cls-2" d="M239.67,108.37c-.1,.36-.15,1.01-.3,1.04-2.49,.61-8.76-3.51-9.78-6.52-1.04-3.06,1.32-3.21,2.51-4.35,1.45-.26,2.89-.51,4.34-.77,.43,0,.86,0,1.29-.01,1.42,.11,2.84,.22,4.25,.34-2.65,1.38-5.6,.02-8.26,1.44-1.69,.9-2.92,1.83-1.23,4.22,.21,.43,.46,.89,.88,.4,.08-.09-.14-.6-.22-.91-.83-2.9,1.17-2.72,2.25-2.82,2.51-.25,5.04-.11,7.56-.02,1.1,.04,2.13,.18,2.37-1.63,1.83,.32,3.66,.64,5.49,.96-.69,1-1.92-.26-2.59,1.02,.98,1.2,2.27,1.04,3.47,1.21-2.82,2.32-5.84,3.16-9.16,2.04-1.09-.37-2.4-1.17-3.28-.01-1.07,1.4,.07,2.93,.41,4.38Zm-4.84-3.64c-.32-.3-.67-.72-1-.09-.04,.08,.34,.5,.52,.77,.32,.59,.69,.84,1.19,.3-.24-.33-.47-.66-.71-.98Z"/>
  <path class="cls-5" d="M216.83,144.58c4.42,1.74,7.95,1.39,11.59,.11,1.97-.69,3.63,1.76,5.38,2.94,2.43,1.64,4.41,4.17,7.85,5.68-9.73,2.31-17.24-1.26-24.81-8.73Z"/>
  <path class="cls-1" d="M290.33,123.15c-.1,3.47-1.77,6.16-3.02,8.88-1.24,2.7-3.09,4.95-4.67,7.39-1.04,1.61-2.23,2.04-3.41,.34-1.06-1.52-2.11-3.18-.54-5.19,3.43-4.37,6.44-9.4,11.64-11.42Z"/>
  <path class="cls-3" d="M271.34,119.07c.89-.68,1.81-1.3,2.66-2.05,1.47-1.29,2.92-.09,4.12,.44,1.16,.51,.1,2.33,.05,3.56-.06,1.43-.48,2.84-.57,4.28-.25,3.59-2.39,3.04-4.18,3.03-2.26-.01-.91-2.32-1.29-3.54-.46-1.47,.92-3.44-.78-4.58,0-.38,0-.75,0-1.13Z"/>
  <path class="cls-5" d="M89.03,136.95c-2.51,3.77-5.65,6.11-7.85,9.65-.96,1.55-1.6,.03-2.21-.76-1.46-1.87-1.82-4-.23-5.89,2.77-3.3,5.95-5.15,10.3-3.01Z"/>
  <path class="cls-2" d="M324.84,116.37c-7.79,.13-15.21-3.1-22.89-3.97,1.7-3.9,3.7-1.56,5.98-.89,4.48,1.31,9.14,1.66,13.7,2.58,2.95,.59,6,.72,8.8,2.25-1.86,.01-3.73,.02-5.59,.04Z"/>
  <path class="cls-4" d="M280.24,122.89c.05-.12,.1-.23,.15-.35,.62-1.42-1.64-3.98,.84-4.45,1.74-.33,3.97-.56,5.06,1.92,1.15,2.64-.75,3.8-1.93,5.43-.9,1.24-2.07,.62-2.93,1.39l.09-.06c.44-1.76-.15-3.01-1.27-3.99v.11Z"/>
  <path class="cls-7" d="M324.84,116.37c1.86-.01,3.73-.02,5.59-.04,2.68,1.27,5.72-.48,8.32,1.54,2.64,1.56,5.46,1.8,8.31,1.67,.51,.24,.66,.74,.64,1.37-6.21-.35-12.26-2.15-18.37-3.29-1.49-.28-3.18,.16-4.49-1.25Z"/>
  <path class="cls-5" d="M212.18,129.15c-2.96,1.23-5.59,5.82-9.29,1.33,2.89-2.97,5.94-3.39,9.29-1.33Z"/>
  <path class="cls-5" d="M230.42,128.61c-2.98,2.22-5.79,3.31-9,.11,3.06-2.08,5.9-2.21,9-.11Z"/>
  <path class="cls-5" d="M131.25,130.07q-5.69,3.3-9.98,.87c3.17-2.74,6.28-2.59,9.98-.87Z"/>
  <path class="cls-7" d="M232.49,103.76c-1.69-2.38-.46-3.31,1.23-4.22,2.67-1.42,5.61-.07,8.26-1.44,1.18-.24,2.31-.11,3.35,.67-.24,1.81-1.27,1.67-2.37,1.63-2.52-.08-5.05-.23-7.56,.02-1.08,.11-3.09-.08-2.25,2.82-.22,.17-.45,.34-.67,.51Z"/>
  <path class="cls-5" d="M87.4,134.34c2.78-2.8,5.53-3.2,8.72-2.15q-5.64,3.52-8.72,2.15Z"/>
  <path class="cls-5" d="M240.8,128.89c2.89-1.67,5.35-1.8,7.82,.12-2.56,3.87-5.01,2.36-7.82-.12Z"/>
  <path class="cls-5" d="M170.18,130.2c-2.68,2.89-5.17,3.31-7.85,.05,2.68-1.64,5.17-1.56,7.85-.05Z"/>
  <path class="cls-5" d="M191.61,130.49c-3.21,.92-5.45,4.29-8.21,.45,2.39-1.97,4.83-2,8.21-.45Z"/>
  <path class="cls-5" d="M142.37,130.26c2.88-1.66,5.38-1.55,7.96-.07-2.55,3.25-5.07,2.07-7.96,.07Z"/>
  <path class="cls-7" d="M358.64,121.96c-.32,.8-.15,2.73-1.34,1.85-2.26-1.69-4.86-1.09-7.16-2.2,.08-1.17,.69-1.32,1.44-1.17,1.34,1.41,2.91,.47,4.37,.71,0,0-.05-.03-.05-.03,.7,1.36,1.84,.47,2.74,.84Z"/>
  <path class="cls-7" d="M294.19,110.13c-3.13-.61-6.25-1.21-9.38-1.82,1.53-1.86,3.4-.06,5.05-.75,0,0-.04-.04-.04-.04,1.25,1.56,3.14,.3,4.46,1.6-.03,.33-.06,.67-.08,1Z"/>
  <path class="cls-8" d="M266.96,112.39c1.11,1.7,2.91,.96,4.45,2-1.94,1.89-3.85-.2-5.64,.25,.4-.75,.8-1.5,1.19-2.24Z"/>
  <path class="cls-5" d="M265.44,143.84c1.29-.42,2.47-1.7,3.78-.59,.14,.12,.06,1.12-.15,1.35-1.37,1.5-2.42-.38-3.62-.76Z"/>
  <path class="cls-7" d="M251.7,101.97c-1.2-.18-2.49-.01-3.47-1.21,.67-1.29,1.9-.02,2.59-1.02,.59-.09,1.23-.26,1.47,.7,.17,.68-.14,1.18-.59,1.54Z"/>
  <path class="cls-2" d="M347.07,119.55c-2.86,.12-5.67-.12-8.31-1.67,2.84,0,5.65,.3,8.31,1.67Z"/>
  <path class="cls-2" d="M294.27,109.13c-1.31-1.3-3.2-.03-4.46-1.6,1.55,.22,3.26-.66,4.61,1.01,.05,.06,.08,.22,.05,.31-.04,.11-.13,.19-.21,.28Z"/>
  <path class="cls-2" d="M355.96,121.15c-1.46-.24-3.03,.7-4.37-.71,1.48,0,3.01-.5,4.37,.71Z"/>
  <path class="cls-2" d="M358.64,121.96c-.9-.37-2.03,.52-2.74-.84,1.08,.23,2.29-.38,3.21,.82l-.23,.08-.24-.06Z"/>
  <path class="cls-8" d="M237.73,97.76c-.43,0-.86,0-1.29,.01,.05-.52,.13-1.09,.64-1.09,.51,0,.61,.55,.65,1.08Z"/>
  <path class="cls-8" d="M243.71,144.49c-.51,.14-1.01,.28-1.52,.42,.42-.62,.96-.58,1.52-.42Z"/>
  <path class="cls-4" d="M278.49,99.46c.43,.41,.83,.83,.36,1.56-.28-.31-.57-.62-.85-.92,.16-.21,.33-.42,.49-.63Z"/>
  <path class="cls-6" d="M280.37,104.42c-.26-.31-.27-.62,.04-.88,.06-.05,.2,.04,.3,.07-.14,.25-.27,.5-.41,.75,0,0,.07,.06,.07,.06Z"/>
  <path class="cls-7" d="M234.83,104.72c.24,.33,.47,.66,.71,.98-.5,.55-.87,.29-1.19-.3,.16-.23,.32-.46,.48-.69Z"/>
  <path class="cls-7" d="M234.35,105.41c-.18-.26-.56-.69-.52-.77,.33-.64,.67-.21,1,.08-.16,.23-.32,.46-.48,.68Z"/>
  <path class="cls-7" d="M233.15,103.25c.08,.31,.3,.82,.22,.91-.42,.49-.67,.03-.88-.4,.22-.17,.45-.34,.67-.51Z"/>
  <path class="cls-9" d="M276.45,105.94c.73-.3,1.41-.4,1.8,.69-.61-.2-1.49,.74-1.8-.69Z"/>
  <path class="cls-9" d="M281.52,126.77c-1.16-.96-1.99-2.09-1.27-3.99,1.12,.98,1.71,2.23,1.27,3.99Z"/>
</svg>