<?xml version="1.0" encoding="UTF-8"?>
<svg id="Layer_1" data-name="Layer 1" xmlns="http://www.w3.org/2000/svg" viewBox="0 0 414 200">
  <defs>
    <style>
      .cls-1 {
        fill: #f7b7d3;
      }

      .cls-2 {
        fill: #00bff3;
      }

      .cls-3 {
        fill: #fff9b8;
      }

      .cls-4 {
        fill: #fff200;
      }

      .cls-5 {
        fill: #fbb040;
      }

      .cls-6 {
        fill: #9ed2f1;
      }

      .cls-7 {
        fill: #737272;
      }

      .cls-8 {
        fill: #bbae99;
      }

      .cls-9 {
        fill: #565454;
      }

      .cls-10 {
        fill: #494643;
      }

      .cls-11 {
        fill: #787576;
      }
    </style>
  </defs>
  <path class="cls-10" d="M110.74,132.51c3.43-.05,6.71-.14,9.8-2.48,2.45-1.85,5.6-1.85,8.18,.08,3.52,2.64,7.04,1.59,10.4,.16,4.02-1.71,7.82-1.89,11.56,.45,2.87,1.8,5.63,.98,7.87-.83,4.57-3.69,10.31-4.07,14.86-.17,1.6,1.37,2.18,1.02,3.48-.61,2.55-3.2,1.93-5.44-.37-8.47-4.02-5.3-7.53-11.05-11.28-16.59-.9-1.33-1.78-2.81-3.45-.84-.72,.85-1.46,.68-1.69-.57-.57-3.15-1.1-6.32-1.78-10.25,3.57,1.91,6.5,3.47,9.88,5.28-3.73,2.08-2.06,3.94-.53,6.14,4.41,6.4,8.66,12.94,12.96,19.43,.08,.69,.16,1.37,.24,2.06-.07,.24-.08,.52-.21,.7-1.36,1.84-4.6,3.84,.45,5.03,.21,.05,.3,.63,.45,.96-7.67-.45-14.58,1.58-20.79,7.52,6.51,3.02,12.51,2.89,19.37-.84-1.74,2.67-.82,3.27,.8,3.71,5.01,1.37,9.75,.68,14.3-1.89,.05,.88,.02,1.72-.9,2.11-6.1,3.08-12.19,2.07-19.13-1,1.1,1.63,1.47,2.22,1.88,2.79,4.11,5.8,18.83,6.81,23.69,4.21,.6-.32,.4-.74,.02-1.13,.47-.2,.94-.41,1.41-.61,2.41,.1,4.94-.27,7.19,.42,2.26,.7,3.51-2.07,6.01-1,1.94,.82,4.63-.42,6.62-3.18-3.67,.16-5.59-3.27-8.78-3.53,0-.47-.01-.94-.02-1.4,3.78-2.78,6.54-6.54,8.88-10.75,.62-1.11,.44-1.51-.59-1.79-.39-.97,1.17-2.82-1.11-2.94,.66-1.13,1.75-1.93,2.8-2.01,6-.45,6.84-6.32,9.06-10.46,1.02-1.89,1.52-4.09,3.23-5.52,1.23-1.03,1.65-2.6,.24-3.37-5.53-3-7.67-9.02-10.87-14.05-1.05-1.64-1.76-2.13-3.52-1.66-2.19,.58-4.49,.68-6.74,.99-1.04-1.56,.08-1.39,.99-1.53,8.15-1.25,16.24-2.86,24.25-4.94,3.24-.84,4.9-4.66,3.42-7.96-.24-.53-.79-.26-1.2-.05,.42-.58,.84-1.16,1.79-2.49-4.79,1.25-8.8,2.29-12.8,3.34-2.07,.4-4.19,.58-6.09,1.7-1.22,.08-2.52-.1-3.65,.3-1.62,.57-4.12-.23-4.38,2.86-3.12,1.76-5.52,5.94-5.1,8.89-1.4,.01-2.27,.94-3.15,1.98-4.11,4.87-8.57,8.52-15.03,4.87-.33-.19-.65-.54-1.12,.04-3.03,3.78-6.89,1.88-10.49,1.72-.25-.1-.51-.19-.77-.29l-.29,.03s-.27-.14-.27-.14c.33-.64,.94-.66,1.5-.79,2.17,.01,4.33,.05,6.5,.03,1.72-.02,2.3-.54,1.16-2.43-2.04-3.39-1.87-3.56,1.93-4.52,3.53-.89,7.02-1.92,9.43-5.36-.84-.55-1.46-.31-2.08,0,.57-1.68,2.73-.55,3.45-2.66-2.17,.59-4.12,1.13-6.06,1.66-.89,.23-1.77,.47-2.66,.7-2.34,.6-4.78,.73-7,1.85-.92,.45-2.08-.11-2.9,.8-1.59,.4-3.05,1.04-4.19,2.38-1.74,.88-2.94,2.22-3.13,4.41-.25,.31-.51,.62-.76,.93-1.3-4.24,1.52-6.09,4.16-7.35,3.26-1.56,2.61-2.87,.77-5.18-10.45-13.12-21-26.15-32.34-38.37-3.45-3.72-7.52-6.73-10.66-10.82,.82-.16,1.54-.12,2.24,.56,2.73,2.66,5.65,5.1,8.24,7.91,11.07,12.02,21.79,24.42,31.64,37.62,3.25,4.36,6.21,6.96,11.29,4.19,.17-.09,.3-.29,.62-.59-2.1-3.36-4.84-6.1-7.4-9.06-7.88-9.1-15.45-18.51-23.14-27.79,.26-.27,.51-.54,.77-.81,6.87,7.23,13.08,15.13,19.49,22.83,3.68,4.43,7.78,8.45,11.08,13.25,.86,1.25,1.75,1.77,3.23,1.2,1.4-.54,2.89-.96,4.36-1.06,2.85-.2,4.43-1.87,5.78-4.5,5.07-9.87,15.56-11.41,23.08-3.46,.9,.95,1.66,1.07,2.75,.76,1.66-.48,3.35-.89,5.04-1.2,4.1-.76,7.33-1.87,9.56-6.81,3.52-7.82,12-8.1,16.82-1.23,1.3,1.84,2.61,1.06,3.96,.74,10.76-2.55,21.51-5.16,32.27-7.74,.72,.17,1.56-.14,2.14,.63-3.64,1.24-7.58,1.25-11.06,3.16l.04-.02c-3.21-.19-6.19,.68-9.03,2.27l.03-.02c-1.25-.16-2.48-.26-3.5,.8-2.9,.55-5.6,2.27-8.58,2.09-4.22-.26-8.02,1.51-11.99,2.46-1.07,.25-1.44,1.12-1.53,2.2-1.62,.94-1.37,2.68-1.5,4.23-.2,2.49,.14,4.05,3.1,2.91,2.1-.81,4.42-.94,6.65-1.38,.1,.51,.2,1.02,.3,1.54-.05,.27-.1,.55-.15,.82,0,.37,0,.74-.01,1.1-.3,3.66-.96,7.26-2.06,10.73-1.91,6.01-3.24,12.18-4.65,18.34-1.61,7.02-5.94,12.35-11.2,16.69-1.49,1.23-2.41,2.61-3.06,4.69-2.59,8.19-9.05,11.65-15.99,14.02-1.9,.65-3.49,1.16-4.94,2.8-1.88,2.13-4.65,2.61-7.21,3.36-.52,.03-1.03,.06-1.55,.09-.79,.04-1.59,.07-2.38,.11-.76-.25-1.52-.38-2.27,.06-3.21-.15-6.2,.48-9.29,1.66-5.72,2.18-11.57,.99-17.29-.69-1.22-.36-2.32-.73-3.66-.28-4.42,1.5-8.85,1.28-13.15-.55-1.52-.65-2.62-.44-4.13,.29-4.94,2.36-10.05,2.37-15.21,.52-1.37-.49-2.86-.96-4.37-.46-.27-.32-.55-.65-.82-.97-2.06-1.96-4.61-3.28-6.3-5.72-.79-1.15-1.82-.75-2.83-.49-3.67,.93-7.29,.88-10.79-.77-1.25-.59-2.69-1.09-3.32,.42-.55,1.33,1.05,1.97,1.87,2.71,3.23,2.91,7.19,3.75,11.18,4.46,.31,.08,.61,.15,.92,.23,.6,.07,1.19,.15,1.79,.22-.02,.38-.04,.75-.05,1.13-.56-.11-1.12-.22-1.68-.33-.4-.01-.81-.02-1.21-.03-.93,.08-1.82-.01-2.65-.53-.3-.06-.6-.11-.91-.17-.29-.01-.59-.02-.88-.04-.28,.07-.57,.15-.85,.22-1.2,1.04-2.47,1.94-4.08,2.01-.28-.29-.56-.58-.83-.88,1.05-.72,2.49-.64,3.37-1.94-2.62-1.53-5.27-3.02-7.25-5.52-.87-1.09-1.81-.62-2.82-.3-5.11,1.63-10.12,1.81-14.89-1.3-.91-.6-2.03-1.47-1.93,.84-.44,0-.87-.01-1.31-.02-4.57,.74-9.14,1.95-14.19-.45,1.95,4.33,5.02,6.03,7.98,7.87-.27,.31-.55,.62-.82,.93-2.49-1.9-5.19-1.74-8.33-.86,3.66-2.01,2.26-3.89,.43-5.98-.83-.95-1.4-2.27-.92-3.75,.28-.05,.56-.1,.84-.15,7.35,3.8,13.91,2.13,19.88-3.45,.47-.44,1.28-.78,.61-1.72,.03-.38,.05-.75,.08-1.13,2.64,.74,5.13,.23,7.52-1.08,.63-.04,1.27-.09,1.9-.13Zm152.82-55.86c-.03-1.16-.44-1.4-1.27-.63-1.77,.52-3.51,1.17-5.31,1.51-1.66,.31-2.24,1.1-2.27,2.98-.15,7.68-.46,15.34-6.55,20.87-.69,.62-.71,2.03-.25,2.82,.67,1.15,1.62,.19,2.42-.13,3.7-1.5,6.45-4.03,8.14-8.06,2.61-6.19,4.09-12.69,5.09-19.35Zm-15.76,22.87c3.19-2.77,4.08-6.35,4.81-10.02,1.11-5.58,.6-11.23,.66-16.85,.05-5.08,1.47-6.87,5.97-8.16,1-.28,2.72,.34,2.86-1.28,.12-1.36-1.08-2.41-2.19-3.15-.98-.65-2-1.12-3.2-1.25-4.94-.5-9.31,2.95-10.86,8.91-2.78,10.72,.4,21,1.95,31.79Zm-56.29-10.68c2.92,4.69,6.83,5.81,10.94,3.54,5-2.76,7.54-7.89,10.4-12.7,2.19-3.68,4.53-6.95,9.24-6.4,1.21,.14,2.48-.42,3.72-.68,.66-.14,1.49-.14,1.74-.96,.33-1.07-.56-1.61-1.17-2.04-6.19-4.28-15.33-3.23-18.83,4.36-3.37,7.32-7.46,13.96-16.05,14.88Zm52.02-3.34c-9.25,10.06-3.93,22.71-4.79,34.28,10.78-9.71,7.22-22.08,4.79-34.28Zm-7.29,23.12c-7.08,8.93-11.49,18.98-18.18,27.37,10.6,3.67,21.79-11.97,18.18-27.37Zm21.37-6.99c-2.52,1.49-4.42,3.22-6.56,3.73-3.17,.75-3.98,2.91-4.72,5.84-1.08,4.29-2.86,8.3-7.03,10.06-1.5,.63-2.68,1.72-2.34,3.18,.41,1.8,2.27,1.03,3.54,1.09,.54,.02,1.15-.25,1.63-.56,8.07-5.22,13.57-12.48,15.49-23.33Zm-158.25,38.31c6.84,4.83,19.71,2.08,23.84-4.89-8.14-3.07-18.52-1-23.84,4.89Zm62.18,7.34c-.48-1.43-2.04-1.6-2.7-2.72-1.78-3.01-4.01-2.98-7.02-2.29-4.37,1.01-8.91,.99-13.16-1.18-.82-.42-1.8-1.21-2.42-.05-.61,1.13,.63,1.74,1.23,2.28,6.3,5.65,13.63,6.69,21.42,5.52,.99-.15,1.95-.62,2.66-1.57Zm54.49-8.94c3.45,4.19,7.79,3.74,11.93,2.25,6.36-2.28,12.1-5.68,14.48-13.23-.99-.88-1.66-.02-2.26-.25-3.73-1.44-5.29,1.1-7.15,4-3.58,5.59-8.73,7.78-14.98,6.8-.61-.1-1.33-.51-2.02,.42Zm-76.94,1.33c8.46,3.7,20.29,.81,25.44-6.03-9.43-3.13-17.03,1.55-25.44,6.03Zm4.56-4.39c-6.34-4.72-15.34-1.85-20.11,2.24-.66,.57-1.92,.93-1.67,2.07,.23,1.03,1.44,1.12,2.28,1.24,7.14,1.03,13.43-1.38,19.5-5.55Zm92.5-35.58c.32-1.99,.57-3.68,.87-5.36,.17-.97,.79-2.09,.12-2.88-1.81-2.14-2.91-4.8-4.49-7.04-1.44-2.04-3.6,.25-5.47,.23-.97-.01-.92,.98-.62,1.7,2.17,5.22,4.45,10.37,9.59,13.35Zm-78.5,40.48c3.73,7.15,14.67,10.87,20.38,7.5-2.01-3.48-4.63-5.63-8.72-4.58-.83,.21-1.8-.28-2.71-.3-3-.05-5.55-2.05-8.95-2.63Zm80.16-50.37c.29-.18,.69-.27,.83-.53,1.23-2.29,2.74-4.29,4.63-5.99,.31-.28,.35-1.2,.22-1.73-.2-.81-.87-.55-1.43-.42-1.68,.4-3.42,.63-5.02,1.25-.98,.38-3.1-.21-2.65,1.83,.46,2.14,1.7,4.08,3.43,5.58Zm-65.4,41.19c-3.36-3.54-8.25-3.67-12.3-.31,4.02,1.8,7.96,3.69,12.3,.31Zm-32.4,.38c5.74,3.48,6.81,3.54,10.22,.67-3.29-2.02-6.55-2.18-10.22-.67Zm-20.59,.92c3.68,1.06,6.77,3.2,9.94-.21-3.19-2.32-6.21-2.25-9.94,.21Z"/>
  <path class="cls-3" d="M264.29,74.37c-2.22,.43-4.54,.57-6.65,1.38-2.96,1.14-3.31-.43-3.1-2.91,.13-1.55-.12-3.29,1.5-4.23,4.72-1,9.5-1.76,14.14-3.07,7.28-2.04,14.8-3.01,21.88-5.9,6.53-1.24,13.15-2.05,19.41-4.66,2.59,.54,4.94-.72,7.34-1.33,5.8-1.46,11.75-2.21,17.35-4.58,2.34-1.54,5.23,.04,7.56-1.58,1.95,1.96,1.53,4.95,2.67,7.26-8.73,2.07-17.47,4.14-26.19,6.24-.37,.09-1.36-.24-.8,.91-2.87,.74-6.19-.8-8.66,2.01-.56,1.35-1.7,.84-2.64,.98-1.16-1.59-2.55-.49-3.72-.21-12.65,3.03-25.29,6.17-37.93,9.28-.75-.08-1.51-.18-2.16,.4Z"/>
  <path class="cls-5" d="M161.34,43.06c7.69,9.29,15.26,18.7,23.14,27.79,2.56,2.96,5.3,5.69,7.4,9.06-.31,.31-.44,.5-.62,.59-5.08,2.76-8.04,.17-11.29-4.19-9.85-13.21-20.57-25.61-31.64-37.62-2.59-2.81-5.51-5.25-8.24-7.91-.69-.67-1.42-.72-2.24-.56-.5-.4-1-.81-1.62-1.3,4.04-1.52,8.09-.65,12.06-.87,.17,.57,.19,1.31,.54,1.68,4.14,4.47,8.33,8.89,12.5,13.33Z"/>
  <path class="cls-3" d="M242.07,72.13c.41-.2,.96-.48,1.2,.05,1.48,3.29-.19,7.11-3.42,7.96-8.01,2.08-16.1,3.69-24.25,4.94-.91,.14-2.03-.03-.99,1.53-.89,1.13-1.81,1.22-2.77,.11-.42-2.95,1.98-7.13,5.1-8.89,1.49,.06,2.94,.01,3.79-1.66,.72,1.1,1.46,.9,2.19,.02,0,0-.03,.02-.03,.02,2.17-.06,4.38,.06,6.25-1.51h-.02c2.46,.3,4.76-.26,6.93-1.52,0,0-.03,.02-.03,.02,.9-.03,1.8-.07,2.69-.1,1.12-.32,2.24-.64,3.35-.96Z"/>
  <path class="cls-9" d="M220.41,122.68c2.29,.12,.72,1.97,1.11,2.94-9.56,.87-15.49,8.48-22.56,14.38,5.27,2.98,9.84,1.25,14.27-1.84,0,.47,.01,.94,.02,1.4-.14,.19-.25,.44-.43,.56-4.41,2.96-9,4.13-13.92,1.57-.88-.46-1.91-.99-2.47-.05-.82,1.39,.71,1.86,1.39,2.39,1.37,1.08,2.92,1.89,4.39,2.81-.47,.2-.94,.41-1.41,.61-2.66-.84-4.66-2.69-6.46-4.87,.92-.39,.95-1.23,.9-2.11,3.2-2.35,6.54-4.47,9.37-7.4,1.38-1.44,1.18-2.04-.57-2.66-3.12-1.1-6.03-.38-8.98,.72-.54,.2-2.1,1.73-1.85-.8l-.06,.08c2.15-.22,2.3-2.18,2.79-3.83,1.86,2.24,3.53,2.69,5.57,0,2.96-3.89,6.98-4.19,10.91-2.35,3.21,1.5,5.65,.84,8.02-1.53Zm-7.29,3.77c-3.33-1.86-6.22-2.07-9.1-.17-.56,.37-1.27,.79-1.18,1.65,.07,.79,.9,.59,1.33,.92,3.74,2.84,5.89-.71,8.95-2.39Z"/>
  <path class="cls-9" d="M110.74,132.51c-.63,.04-1.27,.09-1.9,.13-3.44-2.36-6.96-2.04-10.72-.58,.94,1.34,2.32,.89,3.2,1.67-.03,.38-.05,.75-.08,1.13-.89-.18-1.8-.3-2.68-.54-6.11-1.67-11.72-.32-16.9,3.41-.69,.5-2.29,.74-.92,2.29-.28,.05-.56,.1-.84,.15-.67-3.2,1.69-4.27,3.5-5.56-.82-1.61-2.89-.44-3.49-2.36,.27-.18,.63-.58,.78-.51,3.95,1.95,7.93,.89,11.96,.39,1.83-.23,3.44-.49,5.09-1.51,3.86-2.39,9.75-1.4,13,1.88Z"/>
  <path class="cls-10" d="M192.5,123.91c1.7,.12,1.61-1.52,1.9-2.54,.99-3.44,1.85-6.93,2.7-10.41,.25-1.01,.39-2.11,1.65-1.81,1.27,.3,.62,1.38,.45,2.11-.92,3.97-1.69,7.99-3.27,11.74-.7,2.58-2.58,4.63-2.81,7.42,0,0,.06-.08,.06-.08-3.1,2.38-6.46,2.72-10.01,1.46,.2-2.84,2.49-2.37,4.06-3.05,1.22-.47,1.99,3.02,3.35,.55,.89-1.63,3.45-2.66,1.88-5.34l.03-.04Z"/>
  <path class="cls-10" d="M266.46,73.97c12.64-3.11,25.27-6.24,37.93-9.28,1.17-.28,2.57-1.38,3.72,.21-4.26,1.84-8.82,2.35-13.24,3.45-8.92,2.22-17.88,4.29-26.82,6.42-.57-.16-1.23-.13-1.58-.8Z"/>
  <path class="cls-9" d="M120.57,150.66c.28,.29,.56,.58,.83,.88-4.6,1.82-9.08,.41-13.49-.85-2.42-.69-4.51-.86-6.92,.33-4.03,1.99-8.23,1.97-12.28-.26,.27-.31,.55-.62,.82-.93,4.11,1.05,8.19,1.78,12.28-1.11-2.52-1.82-4.89-3.42-6.07-6.31,.44,0,.87,.01,1.31,.02,2.09,2.48,4.37,4.69,7.43,5.68,5.25,1.69,10.54,3.12,16.09,2.55Z"/>
  <path class="cls-9" d="M301.66,55.67c-.57-.77-1.42-.45-2.14-.63,11.38-2.78,22.76-5.56,34.15-8.33,2.46-.6,4.93-1.14,7.39-1.7,.46,.08,.92,.15,1.38,.23,0,.28-.02,.56-.02,.83-3.69,.95-7.5,1.36-11.03,3,0,0,.05-.04,.05-.04-.96,.18-2.09-.39-2.82,.78l.04-.02c-1.2,.06-2.51-.41-3.5,.78l.04-.02c-1.1,.03-2.27-.25-3.16,.78l.03-.04c-1.07,.14-2.28-.37-3.13,.79l.04-.02c-1.01-.05-2.05-.26-2.8,.78l.04-.02c-5,.07-9.65,2.25-14.56,2.86Z"/>
  <path class="cls-10" d="M306.51,65.39c-.93-1.06,.55-.88,1.08-1.03,12.51-3.43,25.04-6.83,37.56-10.23,.79,.05,2.04-.11,2.29,.21,.65,.8-.59,.97-1.29,1.13-13.25,3-25.91,7.5-39.27,10.2,0,0-.05-.24-.05-.24l-.32-.05Z"/>
  <path class="cls-9" d="M161.34,43.06c-4.18-4.43-8.36-8.85-12.5-13.33-.35-.38-.37-1.11-.54-1.68,2.75,.77,4.08,3.45,5.95,5.37,2.74,2.8,5.25,5.88,7.85,8.83-.26,.27-.51,.54-.77,.81Z"/>
  <path class="cls-9" d="M192.5,123.91s-.03,.04-.03,.04c-.08,.69-.53,.86-1.07,.9-3.6-2.35-7.04-.35-10.52,.45-.08-.69-.16-1.37-.24-2.06,2.19,.46,4.06-1.2,6.23-1.05,2.02,.14,4.08-.13,5.63,1.72Z"/>
  <path class="cls-3" d="M331.39,49.07c3.53-1.64,7.34-2.05,11.03-3,.63,.26,1.13,.67,1.31,1.43-2.33,1.62-5.22,.05-7.56,1.58-1.59,0-3.19,0-4.78,0Z"/>
  <path class="cls-9" d="M141.19,148.23c.27,.32,.55,.65,.82,.97-2.61,1.88-5.45,1.76-8.36,1.21,.02-.38,.04-.75,.05-1.13,2.52-.12,5.08,.08,7.48-1.05Z"/>
  <path class="cls-9" d="M182.24,94.15c-.56,.12-1.17,.14-1.5,.79-1.95-.33-3.78-.9-4.8-2.99,.25-.31,.51-.62,.76-.93,1.45,1.89,3.65,2.19,5.55,3.13Z"/>
  <path class="cls-9" d="M266.46,73.97c.35,.67,1.01,.64,1.58,.8-1.15,.38-2.3,.76-3.44,1.13-.1-.51-.2-1.02-.3-1.53,.65-.58,1.41-.48,2.16-.4Z"/>
  <path class="cls-7" d="M209.1,148.72c.75-.44,1.51-.31,2.27-.06-.75,.54-1.5,.44-2.27,.06Z"/>
  <path class="cls-7" d="M109.21,161.57c.31,.88,.42,1.76-.02,2.64-.35-.88-.34-1.76,.02-2.64Z"/>
  <path class="cls-8" d="M342.44,45.23c-.46-.08-.92-.15-1.38-.23,.55-.59,1.04-.72,1.38,.23Z"/>
  <path class="cls-9" d="M130.77,150.04c.4,.01,.81,.02,1.21,.03-.4-.01-.81-.02-1.21-.03Z"/>
  <path class="cls-7" d="M110.3,161.19c-.31-.01-.62-.02-.93-.03,.33-.74,.64-.68,.93,.03Z"/>
  <path class="cls-9" d="M127.21,149.34c.3,.06,.6,.11,.91,.17-.3-.06-.6-.11-.91-.17Z"/>
  <path class="cls-9" d="M181.29,95.05c.26,.1,.51,.19,.77,.29-.26-.1-.51-.19-.77-.29Z"/>
  <path class="cls-9" d="M264.43,77.83c0-.37,0-.74,.01-1.1,.31,.37,.29,.74-.01,1.1Z"/>
  <path class="cls-9" d="M125.48,149.52c.28-.07,.57-.15,.85-.22-.28,.07-.57,.15-.85,.22Z"/>
  <path class="cls-6" d="M183.17,131.78c3.55,1.26,6.91,.93,10.01-1.46-.24,2.54,1.31,1,1.85,.8,2.95-1.09,5.86-1.82,8.98-.72,1.76,.62,1.96,1.23,.57,2.66-2.83,2.93-6.17,5.06-9.37,7.4-4.55,2.58-9.29,3.26-14.3,1.89-1.61-.44-2.54-1.04-.8-3.71-6.85,3.73-12.86,3.86-19.37,.84,6.22-5.94,13.12-7.97,20.79-7.52,.54-.07,1.08-.13,1.62-.2Zm4.91,2.55c-.19-.34-.38-.68-.57-1.01-3.14,1.01-5.47,3.37-7.89,5.58,.16,.27,.32,.55,.48,.82,2.66-1.79,5.32-3.59,7.98-5.38Z"/>
  <path class="cls-5" d="M247.8,99.51c-1.55-10.79-4.73-21.07-1.95-31.79,1.55-5.96,5.92-9.41,10.86-8.91,1.21,.12,2.22,.59,3.2,1.25,1.11,.74,2.31,1.79,2.19,3.15-.15,1.62-1.87,.99-2.86,1.28-4.5,1.29-5.92,3.07-5.97,8.16-.06,5.63,.45,11.28-.66,16.85-.73,3.67-1.62,7.24-4.81,10.02Z"/>
  <path class="cls-5" d="M191.51,88.83c8.59-.92,12.68-7.56,16.05-14.88,3.49-7.58,12.64-8.63,18.83-4.36,.61,.42,1.5,.96,1.17,2.04-.25,.82-1.08,.82-1.74,.96-1.24,.27-2.52,.82-3.72,.68-4.72-.55-7.05,2.72-9.24,6.4-2.87,4.81-5.41,9.94-10.4,12.7-4.12,2.27-8.03,1.16-10.94-3.54Z"/>
  <path class="cls-2" d="M243.52,85.5c2.43,12.2,5.99,24.58-4.79,34.28,.85-11.58-4.46-24.23,4.79-34.28Z"/>
  <path class="cls-2" d="M236.24,108.61c3.6,15.4-7.59,31.05-18.18,27.37,6.7-8.39,11.1-18.44,18.18-27.37Z"/>
  <path class="cls-5" d="M263.56,76.64c-1,6.67-2.47,13.17-5.09,19.35-1.7,4.02-4.45,6.55-8.14,8.06-.8,.32-1.76,1.28-2.42,.13-.46-.8-.43-2.2,.25-2.82,6.09-5.53,6.4-13.18,6.55-20.87,.04-1.87,.61-2.66,2.27-2.98,1.8-.34,3.54-.99,5.31-1.51,.42,.21,.85,.42,1.27,.63Z"/>
  <path class="cls-2" d="M257.61,101.63c-1.92,10.85-7.42,18.11-15.49,23.33-.48,.31-1.09,.58-1.63,.56-1.27-.05-3.13,.71-3.54-1.09-.33-1.46,.84-2.55,2.34-3.18,4.17-1.76,5.95-5.77,7.03-10.06,.74-2.94,1.55-5.09,4.72-5.84,2.14-.51,4.04-2.24,6.56-3.73Z"/>
  <path class="cls-1" d="M213.24,138.16c-4.43,3.09-9,4.82-14.27,1.84,7.07-5.9,13-13.51,22.56-14.38,1.03,.28,1.2,.68,.59,1.79-2.34,4.21-5.1,7.97-8.88,10.75Z"/>
  <path class="cls-6" d="M99.35,139.93c5.33-5.89,15.7-7.96,23.84-4.89-4.14,6.97-17,9.72-23.84,4.89Z"/>
  <path class="cls-6" d="M120.57,150.66c-5.55,.57-10.84-.85-16.09-2.55-3.06-.99-5.33-3.19-7.43-5.68-.1-2.3,1.01-1.43,1.93-.84,4.77,3.12,9.78,2.93,14.89,1.3,1.01-.32,1.95-.8,2.82,.3,1.98,2.5,4.63,3.99,7.25,5.52-.88,1.31-2.31,1.22-3.37,1.94Z"/>
  <path class="cls-6" d="M161.53,147.27c-.71,.95-1.67,1.42-2.66,1.57-7.79,1.17-15.12,.13-21.42-5.52-.6-.54-1.84-1.15-1.23-2.28,.62-1.16,1.6-.37,2.42,.05,4.25,2.17,8.79,2.18,13.16,1.18,3.01-.69,5.25-.72,7.02,2.29,.66,1.12,2.23,1.29,2.7,2.72Z"/>
  <path class="cls-2" d="M216.02,138.33c.69-.94,1.41-.52,2.02-.42,6.25,.98,11.4-1.21,14.98-6.8,1.86-2.91,3.42-5.45,7.15-4,.6,.23,1.27-.63,2.26,.25-2.38,7.55-8.11,10.94-14.48,13.23-4.15,1.49-8.49,1.94-11.93-2.25Z"/>
  <path class="cls-6" d="M139.09,139.66c8.42-4.48,16.01-9.17,25.44-6.03-5.16,6.85-16.99,9.74-25.44,6.03Z"/>
  <path class="cls-3" d="M182.24,94.15c-1.9-.94-4.1-1.24-5.55-3.13,.18-2.19,1.38-3.53,3.13-4.41,.3,.21,.6,.42,.9,.63-.56,1.16-2.29,2.14-.46,3.65,1.34,1.32,2.79,1.73,4.44,.6-1.26-.4-2.53-.8-3.79-1.19-.72-1.14,.96-1.74,.53-2.82h0c.76,.39,1.19,.06,1.39-.76,0,0,0,0,0,0,2.08-.29,4.05-.9,5.77-2.26,1.65-1.23,4.89,1.01,5.32-2.89,.89-.23,1.77-.47,2.66-.7,.31,2.08,1.45,1.58,2.61,1,.62-.31,1.24-.55,2.08,0-2.41,3.43-5.9,4.47-9.43,5.36-3.8,.96-3.97,1.12-1.93,4.52,1.14,1.89,.56,2.41-1.16,2.43-2.17,.02-4.33-.01-6.5-.03Z"/>
  <path class="cls-6" d="M80.73,140.02c-1.36-1.55,.23-1.8,.92-2.29,5.18-3.73,10.78-5.08,16.9-3.41,.88,.24,1.78,.36,2.68,.54,.66,.94-.14,1.28-.62,1.72-5.98,5.58-12.53,7.25-19.88,3.45Z"/>
  <path class="cls-6" d="M143.64,135.27c-6.08,4.17-12.37,6.58-19.5,5.55-.84-.12-2.06-.21-2.28-1.24-.25-1.14,1.01-1.5,1.67-2.07,4.77-4.09,13.78-6.95,20.11-2.24Z"/>
  <path class="cls-6" d="M141.19,148.23c-2.4,1.13-4.96,.93-7.48,1.05-.6-.07-1.19-.15-1.79-.22-.31-.08-.61-.15-.92-.23-3.99-.71-7.94-1.54-11.18-4.46-.82-.74-2.42-1.38-1.87-2.71,.62-1.51,2.06-1.01,3.32-.42,3.5,1.65,7.13,1.7,10.79,.77,1.01-.26,2.04-.65,2.83,.49,1.69,2.44,4.24,3.76,6.3,5.72Z"/>
  <path class="cls-6" d="M194.33,142.59c1.8,2.18,3.81,4.04,6.46,4.87,.38,.38,.58,.8-.02,1.13-4.86,2.61-19.58,1.59-23.69-4.21-.4-.57-.78-1.16-1.88-2.79,6.94,3.07,13.03,4.08,19.13,1Z"/>
  <path class="cls-1" d="M202.2,146.85c-1.47-.92-3.02-1.73-4.39-2.81-.68-.54-2.21-1.01-1.39-2.39,.56-.94,1.59-.4,2.47,.05,4.92,2.56,9.51,1.38,13.92-1.57,.18-.12,.29-.37,.43-.56,3.18,.26,5.11,3.69,8.78,3.53-1.99,2.76-4.68,4.01-6.62,3.18-2.51-1.06-3.75,1.7-6.01,1-2.25-.69-4.78-.33-7.19-.42Z"/>
  <path class="cls-6" d="M95.74,142.41c1.18,2.89,3.54,4.49,6.07,6.31-4.09,2.89-8.17,2.16-12.28,1.11-2.95-1.85-6.02-3.54-7.98-7.87,5.05,2.41,9.62,1.19,14.19,.45Z"/>
  <path class="cls-5" d="M236.15,99.69c-5.14-2.98-7.42-8.13-9.59-13.35-.3-.72-.35-1.71,.62-1.7,1.87,.02,4.03-2.27,5.47-.23,1.58,2.24,2.68,4.9,4.49,7.04,.67,.79,.05,1.91-.12,2.88-.3,1.68-.55,3.37-.87,5.36Z"/>
  <path class="cls-6" d="M157.64,140.17c3.4,.58,5.94,2.58,8.95,2.63,.91,.02,1.88,.51,2.71,.3,4.09-1.05,6.71,1.09,8.72,4.58-5.72,3.37-16.66-.35-20.38-7.5Z"/>
  <path class="cls-11" d="M292.07,59.64c-7.08,2.88-14.6,3.86-21.88,5.9-4.65,1.3-9.43,2.06-14.14,3.07,.08-1.08,.46-1.95,1.53-2.2,3.97-.95,7.78-2.71,11.99-2.46,2.98,.18,5.68-1.54,8.58-2.09,1.19-.16,2.53,.53,3.5-.8,0,0-.03,.02-.03,.02,3.11-.3,6.15-.89,9.03-2.27,0,0-.04,.02-.04,.02,.49,.27,.98,.54,1.47,.81Z"/>
  <path class="cls-4" d="M183.17,131.78c-.54,.07-1.08,.13-1.62,.2-.14-.33-.24-.91-.45-.96-5.05-1.19-1.81-3.19-.45-5.03,.13-.18,.14-.46,.21-.7,3.48-.8,6.92-2.81,10.52-.45-.37,1.49-.98,2.64-2.65,2.64-.72,0-1.66-.09-1.51,1.26-1.57,.68-3.86,.21-4.06,3.05Z"/>
  <path class="cls-3" d="M292.07,59.64c-.49-.27-.98-.54-1.47-.81,3.48-1.91,7.42-1.92,11.06-3.16,4.91-.61,9.56-2.79,14.56-2.86-1.33,1.37-3.48,.62-4.74,2.18-6.26,2.61-12.87,3.42-19.41,4.66Z"/>
  <path class="cls-6" d="M172.4,130.99c-4.34,3.38-8.28,1.49-12.3-.31,4.05-3.36,8.94-3.23,12.3,.31Z"/>
  <path class="cls-6" d="M140.01,131.38c3.66-1.51,6.93-1.35,10.22,.67-3.4,2.87-4.48,2.81-10.22-.67Z"/>
  <path class="cls-6" d="M119.41,132.3c3.73-2.46,6.75-2.53,9.94-.21-3.17,3.41-6.26,1.27-9.94,.21Z"/>
  <path class="cls-6" d="M101.31,133.72c-.88-.78-2.26-.33-3.2-1.67,3.76-1.46,7.28-1.78,10.72,.58-2.39,1.31-4.88,1.82-7.52,1.08Z"/>
  <path class="cls-3" d="M242.07,72.13c-1.12,.32-2.24,.64-3.35,.96-.94-1.19-1.83-1.13-2.69,.1,0,0,.03-.02,.03-.02-1.63-.02-3.25-.03-4.88-.05l-.11-.15c4.01-1.04,8.01-2.09,12.8-3.34-.96,1.33-1.37,1.91-1.79,2.49Z"/>
  <path class="cls-3" d="M193.9,81.58c-.43,3.9-3.67,1.65-5.33,2.89-.58-.08-1.16-.16-1.74-.24,.02-.27,.04-.53,.06-.8,2.22-1.12,4.66-1.25,7-1.85Z"/>
  <path class="cls-3" d="M220.73,76.17c-.85,1.68-2.3,1.72-3.79,1.66,.27-3.08,2.76-2.29,4.38-2.86,1.13-.39,2.43-.22,3.65-.3,0,0-.02-.03-.02-.03-.41,.96-1.84,.31-2.06,1.56,0,0,.03-.02,.03-.02-.73,0-1.46-.01-2.19-.02Z"/>
  <path class="cls-3" d="M199.18,81.87c-1.16,.58-2.3,1.08-2.61-1,1.95-.53,3.89-1.07,6.06-1.66-.72,2.11-2.88,.98-3.45,2.66Z"/>
  <path class="cls-3" d="M290.64,58.81c-2.88,1.38-5.92,1.97-9.03,2.27,2.83-1.59,5.82-2.46,9.03-2.27Z"/>
  <path class="cls-3" d="M180.72,87.24c-.3-.21-.6-.42-.9-.63,1.13-1.35,2.6-1.99,4.19-2.38,.14,.18,.28,.36,.41,.55-.39,.8-1.82,.57-1.61,1.95,0,0,0,0,0,0-.79-.46-1.25-.21-1.39,.76,0,0,0,0,0,0-.24-.08-.47-.16-.71-.25Z"/>
  <path class="cls-3" d="M224.97,74.68c1.9-1.12,4.02-1.3,6.09-1.7,0,0,.11,.15,.11,.15-.3,1.12-1.8,.37-2.05,1.57,0,0,.02-.01,.02-.01-1.39-.02-2.79-.03-4.18-.05l.02,.03Z"/>
  <path class="cls-3" d="M281.64,61.06c-.96,1.32-2.31,.63-3.5,.8,1.01-1.06,2.25-.96,3.5-.8Z"/>
  <path class="cls-3" d="M186.91,83.43c-.02,.27-.04,.53-.06,.8-.81,.18-1.62,.36-2.42,.55-.14-.18-.28-.36-.41-.55,.82-.91,1.98-.35,2.9-.8Z"/>
  <path class="cls-9" d="M263.56,76.64c-.42-.21-.85-.42-1.27-.63,.83-.77,1.24-.52,1.27,.63Z"/>
  <path class="cls-9" d="M131,148.83c.31,.08,.61,.15,.92,.23-.31-.08-.61-.15-.92-.23Z"/>
  <path class="cls-7" d="M311.48,54.98c1.26-1.56,3.41-.81,4.74-2.18,0,0-.04,.02-.04,.02,.97-.13,2.1,.46,2.8-.78,0,0-.04,.02-.04,.02,1.1,.02,2.26,.26,3.13-.79,0,0-.03,.04-.03,.04,1.07-.17,2.31,.46,3.16-.78l-.04,.02c1.19-.11,2.52,.49,3.5-.78l-.04,.02c.99-.06,2.09,.38,2.82-.78,0,0-.05,.04-.05,.04,1.59,0,3.19,0,4.78,0-5.59,2.37-11.55,3.11-17.35,4.58-2.4,.61-4.75,1.87-7.34,1.33Z"/>
  <path class="cls-7" d="M229.12,74.71c.25-1.2,1.75-.46,2.05-1.57,1.63,.02,3.25,.03,4.88,.05-2.17,1.26-4.47,1.81-6.93,1.53Z"/>
  <path class="cls-7" d="M224.95,74.65c1.39,.02,2.79,.03,4.18,.05-1.87,1.57-4.07,1.45-6.25,1.51,.22-1.25,1.66-.6,2.06-1.56Z"/>
  <path class="cls-7" d="M236.02,73.2c.86-1.24,1.75-1.3,2.69-.1-.9,.03-1.8,.07-2.69,.1Z"/>
  <path class="cls-7" d="M220.73,76.17c.73,0,1.46,.01,2.19,.02-.74,.88-1.47,1.08-2.19-.02Z"/>
  <path class="cls-1" d="M213.12,126.45c-3.06,1.69-5.21,5.23-8.95,2.39-.43-.33-1.26-.13-1.33-.92-.08-.86,.63-1.28,1.18-1.65,2.88-1.9,5.77-1.69,9.1,.17Z"/>
  <path class="cls-4" d="M187.23,128.73c-.15-1.34,.78-1.26,1.51-1.26,1.67,0,2.28-1.15,2.65-2.64,.55-.03,.99-.2,1.07-.9,1.57,2.68-.98,3.71-1.88,5.34-1.36,2.47-2.13-1.02-3.35-.55Z"/>
  <path class="cls-3" d="M328.66,49.79c-.98,1.26-2.31,.67-3.5,.78,.99-1.19,2.3-.72,3.5-.78Z"/>
  <path class="cls-3" d="M331.43,49.03c-.73,1.16-1.83,.72-2.82,.78,.73-1.17,1.86-.6,2.82-.78Z"/>
  <path class="cls-3" d="M325.21,50.54c-.85,1.24-2.09,.61-3.16,.78,.89-1.03,2.06-.75,3.16-.78Z"/>
  <path class="cls-3" d="M322.07,51.28c-.88,1.05-2.03,.8-3.13,.79,.85-1.16,2.06-.65,3.13-.79Z"/>
  <path class="cls-3" d="M318.98,52.04c-.7,1.24-1.84,.65-2.8,.78,.75-1.04,1.8-.83,2.8-.78Z"/>
  <path class="cls-10" d="M188.09,134.34c-2.66,1.79-5.32,3.59-7.98,5.38-.16-.27-.32-.55-.48-.82,2.42-2.21,4.75-4.57,7.89-5.58,.19,.34,.38,.68,.57,1.01Z"/>
  <path class="cls-7" d="M184.42,84.77c.81-.18,1.62-.36,2.42-.55,.58,.08,1.16,.16,1.74,.24-1.72,1.36-3.69,1.98-5.77,2.26-.21-1.38,1.22-1.16,1.61-1.95Z"/>
  <path class="cls-7" d="M180.9,90.3c1.26,.4,2.53,.8,3.79,1.19-1.64,1.13-3.09,.72-4.43-.6,.22-.2,.43-.4,.64-.59Z"/>
  <path class="cls-7" d="M180.72,87.24c.24,.08,.47,.16,.71,.25,.43,1.07-1.25,1.68-.53,2.82-.21,.2-.43,.39-.64,.59-1.83-1.51-.1-2.5,.46-3.65Z"/>
  <path class="cls-7" d="M181.43,87.48c.13-.97,.6-1.21,1.39-.76-.2,.82-.63,1.15-1.39,.76Z"/>
</svg>