<?xml version="1.0" encoding="UTF-8"?>
<svg id="Layer_1" data-name="Layer 1" xmlns="http://www.w3.org/2000/svg" viewBox="0 0 414 200">
  <defs>
    <style>
      .cls-1 {
        fill: #ebe9e9;
      }

      .cls-2 {
        fill: #ede4cf;
      }

      .cls-3 {
        fill: #fff9b8;
      }

      .cls-4 {
        fill: #fff200;
      }

      .cls-5 {
        fill: #fbb040;
      }

      .cls-6 {
        fill: #fdfdfd;
      }

      .cls-7 {
        fill: #9ed2f1;
      }

      .cls-8 {
        fill: #91bfdc;
      }

      .cls-9 {
        fill: #bbae9a;
      }

      .cls-10 {
        fill: #c6c1bc;
      }

      .cls-11 {
        fill: #dcd8d0;
      }

      .cls-12 {
        fill: #71685b;
      }

      .cls-13 {
        fill: #555049;
      }

      .cls-14 {
        fill: #48453e;
      }

      .cls-15 {
        fill: #302c2b;
      }
    </style>
  </defs>
  <path class="cls-14" d="M145.69,92.02c-.2-.07-.39-.14-.59-.21,.33-.19,.66-.39,.99-.58,6,1.93,12.08,.5,18.11,.31,2.25-.07,4.01,.27,5.66,1.81,.89,.83,1.75,2.56,3.23,1.78,1.39-.72,1.53-2.49,1.71-3.99,.12-.99-.12-1.92-.47-2.83,.04-.45,.09-.9,.6-1.12,0,0,0,0,0,0-.05,.45,.05,.84,.48,1.1,1.04,2,.72,3.95-.19,5.89-.57,.99,.14,.98,.83,1,4.24-1.76,8.52-1.08,12.7,.08,1.56,.43,2.72,.52,4.28-.21,6.74-3.16,13.33-2.53,19.15,1.99,2.29,1.78,4.45,2.71,7.32,2.55,1.52-.08,3.06,.28,4.59,.44-.17,.51-.41,.96-1,1.12-4.08-.46-8.13-.43-12.19,.38-5.57,1.11-9.4,4.26-12.37,9.17,3.39-.19,6.28-.39,9.17-.49,2.92-.1,5.76,.58,8.63,1,.4,1.42-.65,1.11-1.43,1.14-8.01-1.62-15.81-1.07-23.36,2.12-.16-1.4,.29-3-1.35-3.93,.43-.13,.93-.48,1.27-.37,5.01,1.67,7.05-2.01,9.68-4.85,1.22-1.32,.82-1.86-.48-2.51-3.79-1.88-7.68-1.92-11.64-.65-8.63,2.78-16.33,7.21-23.61,12.4-1.27,.91-1.17,1.38,.24,2.17,3.94,2.2,7.61,2.57,11.16-.72,.63-.58,1.58-.83,2.39-1.23,.37,.21,.74,.41,1.11,.62-.02,.38,.7,.74,.05,1.15-1.66-.02-2.87,1.02-4.21,1.72-3.1,1.61-3.09,1.63-1.85,5.2,2.43-1.98,6.06-1.29,8.18-3.87,.77-.3,.63-.97,.66-1.57,1.13,.49,1.68-.26,2.24-.98,.15-.02,.29-.05,.44-.08,.21,.2,.41,.4,.62,.61-1.46,1.08-2.7,2.37-3.75,3.82-3.51,4.87-1.04,13.04,4.57,14.64,5.1,1.46,9.96,.03,15.21-1.56-2.14-1.69-3.87-3.12-5.67-4.45-.74-.55-2.57,.01-2.12-1.7,.41-1.55,.55-3.44,2.73-3.89-.61,1.74-2.54,3.67,.72,4.88,17.03,13.66,33.94,27.46,51.35,40.67,10.32,7.83,20.35,16.02,30.5,24.05-.38,2.34-1.39,.52-1.86,.16-4.47-3.47-8.87-7.03-13.31-10.53-3.09-2.44-6.21-4.84-9.27-7.22-.22,.15-.31,.18-.34,.24-.65,1.38,1.11,3.49-.43,4.14-2.29,.97-4.97,.88-7.45-.07-.42-.16-.81-.38-1.22-.57-5.51-4.52-7.02-11.45-10.93-17.81-.24,3.06-.26,5.33-.62,7.55-.7,4.29,1.45,7.03,4.9,9.19,.72,.45,1.8,.55,1.9,1.68-1.28,.52-2.17-.94-3.41-.64-1.33-1.58-2.67-3.17-4.13-4.9-.38,1.34-.66,2.35-.95,3.35-.33-.04-.65-.08-.98-.11,.99-5.46,2.1-10.91,1.96-16.5-.07-2.62-3.4-6.35-6.08-6.83-3.57-.63-3.65-.63-3.82,2.99-.11,2.28,.16,4.58,.07,6.86-.15,3.93,2.3,7.22,2.7,10.97,.16,1.53,.78,2.65,1.85,3.65-.25,.22-.51,.44-.76,.66-.67-.07-1.08-1.27-1.86-.57-3.02,2.73-5.97,1.44-8.94-.02-5.4-4.54-7.39-11.27-11.26-17.37-.79,3.38-.64,6.25-1.65,8.92-.05,.19-.09,.38-.14,.57-.23,1.02-.46,2.05-.7,3.07-.33-.08-.66-.16-.99-.23,.49-2.07,.97-4.14,1.46-6.2,.03-.22,.06-.44,.09-.65,.33-4.04,.97-8.08-.03-12.13-.34-1.4-.72-2.26-2.44-1.31-1.55,.86-3.28,1.04-5.02,.49-1.03-.32-1.51,.02-1.62,1.06-.59,5.55-1.25,11.09,.86,16.5,.49,1.26,.89,2.6,.62,3.89-.39,1.93,.71,2.5,2.24,2.87-.17,.29-.34,.58-.51,.87-1.21-.17-2.32-.51-3.56,.32-2.14,1.44-4.58,1.41-6.53-.21-1.78-1.48-2.66-.84-3.65,.67-.41,.63-.9,1.47-1.81,.45,2.45-2.25,2.49-4.49,.34-7.08-1.11-1.33-1.61-3.14-2.41-4.72-.97-1.93-1.37-4.15-2.99-6.01-1.59,4.68-4.04,8.71-6.95,12.44-.91,1.17-.67,1.82,.18,2.66-.17,.43-.54,.52-.96,.52-.59-.33-1.01-.78-1.89-.23-5.34,3.36-8.25,3.25-13.4-.3-.15-.1-.31-.17-.47-.26-.22-.22-.42-.59-.8-.31-.38,.28-.07,.57,.06,.85q.11,2.3-1.15,1.88c-.23-1.03-.35-2.09-.71-3.07-.99-2.68-2.26-5.24-5.11-6.53-.88-.4-2.01-1.23-2.55,.52-.67,2.19-1.4,4.36-2.15,6.52-.25,.74,.02,1.18,.65,1.52-.13,.5-.64,.45-.98,.65-5.56,1.1-11.15,.61-16.73,.19-.15-.01-.27-.56-.4-.86,0,0,.08,.02,.08,.02-1.23-3.06-3.76-5.12-6.05-7.37-.61-.6-1.93-1-.86-2.23,1.35,.03,.93-.7,.6-1.36-.89-1.78-1.8-3.56-2.73-5.38-.62,.65,.28,2.22-1.47,1.73-.15-3.62-.62-7.19-1.6-10.7-.44-1.57-.83-2.65-2.78-1.41-1.24,.79-2.74,.99-4.21,.73-1.4-.25-1.98,.3-2.3,1.53-1.32,5.03-2.04,10.01,.52,14.94,1.07,2.05,1.73,4.3,1.75,6.61,.02,1.55,.63,2.27,2.11,2.47,.99,.13,1.97,.29,2.96,.44-.2,1.62-1.5,1.05-2.25,.84-2.09-.58-4.05-.53-6.08,.22-2.07,.77-4.07-.41-6.13-.36-.84-.09-1.69-.17-2.53-.26,1.65-.41,2.3-.92,.92-2.44-1.08-1.19-1.5-2.78-1.95-4.31-1.28-4.38-5.18-7.29-10.15-7.57,.08,3.1-.1,6.19-1.22,9.1-.58,1.49,.5,1.76,1.36,1.99,2.82,.74,5.33,2.42,8.31,2.64,.94,.07,1,.55,.92,1.22-3.34,.05-6.15-1.72-9.19-2.66-1.67-.51-2.67-.52-3.45,1.02-.16,.19-.32,.39-.48,.59,0,0,0,0,0,0-.22-.24-.45-.48-.67-.72,3.59-5.97,3.63-12.33,2.59-18.94-.62-3.91-1.66-6.95-6.58-6.63-.16,.01-.34-.11-.51-.18-1.35-.52-2.14-.15-2.7,1.22-1.98,4.87-4.11,9.7-.71,14.82,.23,.35,.25,.83,.37,1.26,.07,.2,.13,.39,.2,.59,.83,2.62,1.92,5.21,.82,8.01-.26-.3-.51-.61-.77-.91,.06-.48,.12-.96,.18-1.44,.04-.64,.23-1.3-.26-1.87-.1-.46-.21-.92-.31-1.38,.09-.49,.1-.96-.36-1.31-.14-.14-.18-.29-.12-.47-.07-.18-.14-.37-.21-.55-3.53-5.55-3.1-11.17-.09-16.7,1.02-1.88,.74-3.22-.63-4.68-.99-1.06-1.99-2.22-1.65-3.86,1.14-.18,1.33,.72,1.6,1.41,1.49,3.79,4.64,5.1,8.47,5.52,1.92,.21,3.2-.02,2.97-2.37-.16-1.57-.08-3.16-.11-4.74,.24-.24,.48-.47,.72-.71,.23,.45,.46,.9,.9,1.78,.91-4.04,3.64-6.94,4.45-10.69-1.77-.31-3.03,.4-4.31,1.01-.21-.21-.43-.43-.64-.64-1.13-1.83-2.24-.56-3.35,.02-.09-2.78,.05-5.58-1.08-8.23,.23-.25,.46-.49,.69-.74,.46,.18,.36,1.4,1.36,.62,3.57-2.78,3.94-5.81,.79-9.09-3.41-3.55-7.67-5.86-12.46-7.23-.51-1.31,.61-1.81,1.39-2.24,8.26-4.6,17.08-6.4,26.52-4.71,1.14,.2,2.47,.59,3.22,1.35,2.24,2.24,4.62,1.58,7.2,.92,7.27-1.87,14.64-2.87,22.17-1.7,1.92,.3,3.53-.68,5.26-1.16,5.1-1.42,10.33-1.93,15.61-2.2,.78,.45,1.63,.43,2.48,.31,.8,.06,1.59,.11,2.39,.17,1.69,.55,3.42,1.01,5.06,1.69,1.17,.49,2.18,.46,3.25-.09-.38,2.16-2.3,3.49-3.11,5.4-.46,1.09-2.13,2.13-.69,3.47,1.63,1.52,5.26,1.89,6.54,.97,2.67-1.92,5.34-3.87,8.13-5.63,4.86-3.06,10.09-5.45,15.59-7.17,1.94-.61,2.34-1.97,2.38-3.38,.04-1.51-1.65-1.34-2.68-1.63-1.22-.33-2.49-.5-3.76-.61-7.83-.7-14,2.93-19.95,7.2-.74,.53-1.03,1.96-2.45,1.38,1.45-2.16,1.41-2.35-.55-2.62h-.01c.46-1.06-.45-1.24-1.08-1.6-.37-.28-.74-.76-1.11,0l.05,.03c.46-1.86-1.49-2.27-2.26-3.37-.84-1.21-2.12-2.14-3.21-3.19-.12-.23-.28-.34-.53-.15-2.08,.02-4.14-.03-6.07-.92-.25-.12-.49-.25-.74-.37Zm24.84,4.78c.36-.09,1.24-.08,.73-.59-1.33-1.3-2.83-2.45-4.38-3.49-.5-.34-1.58-.45-1.2,.86-.22,0-.44,.02-.65,.03-3.23-1.62-6.47,.04-10.51-.55,2.4,2.5,4.2,4.32,5.94,6.19,1.6,1.73,3.07,2.83,5.26,.59,.94-.96,2.49-1.36,3.77-2.02,.61-.1,.78-.61,1.05-1.04Zm51.1,52.91c-.2-.08-.39-.16-.59-.24,.08,.19,.16,.38,.24,.57,1.12,2.01,2.75,3.36,5.59,4.04-1.81-1.92-3.52-3.16-5.25-4.37Zm-129.2,5.46c-.44,.03-.89,.05-1.33,.08-.8-.58-1.62-1.12-2.38-1.75-.89-.74-1.72-1.28-2.88-.43-1.18,.86-1.17,1.96-.62,3.06,.67,1.34,1.43,2.65,2.31,3.88,2.78,3.88,4.98,7.94,5.54,12.76,.23,1.99,1.11,3.92,2.7,5.38,1.54,1.41,5.11,1.96,6.92,.85,2.08-1.27,.81-3.14,.58-4.77-.12-.86-.45-1.7-.77-2.52-2-5.09-5.29-9.42-8.69-13.68,.21-.23,.42-.45,.63-.68,.95,.62,1.29,1.9,2.74,2.3-.45-1.56-.77-3.02-1.31-4.4-.64-1.65-1.97-1.64-3.46-.07Zm56.21,15.98c.12,.1,.24,.2,.35,.31,0-.08,.04-.18,0-.25-.11-.22-.26-.22-.4,0-.36-3.05-2.58-5.21-3.66-8.3-1.51,4.21-.94,7.07,3.43,8.18,.09,.02,.18,.05,.26,.07Zm-39.42-25.54c.16,.15,.32,.31,.48,.46,.22-.3,.44-.6,.66-.9,.14,0,.28,0,.42-.05,.63,.82,.37,1.77,.44,2.68-.05,.05-.15,.13-.14,.16,.04,.12,.12,.23,.19,.35,.75,3.1,4.96,5.57,7.97,4.61,.48-.15,1.05-.53,1.23-.95,2.64-5.86,3.64-11.98,2.8-18.35-.09-.66-.29-1.29-1.17-1.07-2.73,.68-5.61,1.08-8.1,2.25-1.42,.66-1.31,2.97-2.01,4.48-.33-.02-.67-.04-1-.07,.29-1.17,.57-2.34,.93-3.78-2.69,.23-5.34-.26-7.07,2.26-2.04-1.07-4.23-1.75-6.5-2.14-.7-.12-1.8-.62-1.58,.88,.7,4.9,1.37,9.83,4.63,13.9,1.96,2.45,4.39,2.86,7.28,1.58,1.42-.63,1.88-1.3,1.11-2.82-.52-1.05-1.79-2-1.09-3.45,.17-.01,.35-.03,.52-.04Zm-17.92-34.04c2.45,.82,4.24-.36,6.23-1.58,1.82-1.12,1.44-1.68-.06-2.44-.64-.33-1.32-.61-2-.85-4.26-1.56-8.64-1.21-12.97-.56-4.84,.73-9.57,1.96-13.78,4.71,.78,.96,1.61,1.03,2.54,.65,.25,.24,.51,.48,.76,.71-.08,.05-.18,.08-.22,.14-.03,.04,0,.18,.04,.2,3.76,1.98,7.36,4.14,9.81,7.7,.46,.67,1.37,.28,2.06,.39,7,1.09,14.08,1.86,20.36,5.5,1.94,1.13,4.71-.12,6.06-2.53,1.47-2.65,1.21-3.66-1.3-5.19-6.08-3.7-12.97-4.97-19.86-6.24l.02-1.02c.54,.08,1.09,.15,1.63,.23,.23,.06,.45,.11,.68,.17Zm26.18-.2c.27,.06,.53,.12,.8,.18,4.67,1.72,5.42-2.57,8.29-4.95-10.9-.44-20.79,.4-30.41,5.48,2.12,1.09,3.57,1.08,5.23,.53,1.96-.65,4.04-1,6.09-1.35,.91-.16,2.09-.46,2.31,1.03-2.62,.04-5.15,.47-8.07,1.41,2.43,1.13,4.62,1.81,6.39,3.05,4.41,3.09,9.17,3.68,14.47,3.2,5.6-.51,10.85,.82,14.98,4.96,1.37,1.38,2.92,1.01,3.31-.84,.36-1.75,.49-3.5-1.7-4.48-1.89-.85-3.64-2.02-5.53-2.86-6.36-2.81-13.16-3.92-20.02-4.77,1.15-1.07,2.5-.89,3.87-.6Zm9.97,1.91c4.8,1.43,8.69,2.96,12.16,5.25,3.12,2.06,6.52,2.62,10.09,2.13,7.2-.98,13.75,.13,19.25,5.09,1.24,1.12,2.3,.72,2.69-.59,.59-1.95,1.03-4.03-1.62-5.18-1.4-.61-2.7-1.4-4.15-1.96-4.49-1.74-8.89-3.69-13.72-5.72q3.28-.22,4.69-2.89c.17-.31,.34-.63,.52-.93,1.63-2.68,1.66-2.76-1.38-3.59-9.45-2.59-18.56-.98-27.48,2.34-1.43,.53-2.55,1.69-3.52,2.88-.49,.61-1.25,1.29-.64,2.1,.68,.9,1.6,.5,2.45,.07,7.4-3.72,15.1-3.39,22.91-1.6,.72,.17,1.74,.15,1.67,1.64-7.82-2.04-15.62-2.94-23.94,.96Zm-3.46,7.64c-5.14,.05-9.62,1.72-13.37,5.15-1.38,1.26-2.13,2.83-2.11,4.72,.03,1.81,.84,2.79,2.81,2.79,2.04,0,3.97-.46,5.88-1.06,5-1.56,9.99-1.79,15.01-.12,.68,.23,1.4,.41,2.12,.48,1.31,.13,2.9,.8,3.76-.62,.81-1.33,.71-2.93,.04-4.36-.89-1.91-2.37-3.32-4.22-4.38-3.06-1.77-6.43-2.4-9.93-2.6Zm36.91,59.14c3.48-.04,4.01-.66,3.77-3.34-.26-2.87-1.23-5.53-2.54-8.05-2.77-5.36-6.23-10.19-11.84-13.16-1.52-.81-3.65-1.51-4.76-.72-1.5,1.06-.89,3.28-.34,4.97,1.88,5.77,4.77,11.08,8.28,16.05,1.89,2.68,4.64,4.19,7.44,4.24Zm8.55-49.47c.28-2.42-.98-4.14-2.71-5.29-3.65-2.42-7.73-3.95-12.24-3.89-5.09,.06-9.71,1.46-13.29,5.18-1.68,1.74-1.79,4-.92,5.96,.8,1.81,2.91,.92,4.47,.92,.98,0,1.99-.27,2.94-.56,5.4-1.69,10.75-1.44,16.1,.26,.76,.24,1.61,.24,2.42,.37,2.5,.4,3.68-.52,3.25-2.94Zm-39.42,49.16c4.04-.02,4.77-.78,3.98-4.26-1.89-8.28-6.88-14.67-13.27-20.18-.52-.45-1.25-.76-1.94-.93-4.21-1.01-5.41,.09-4.14,4.17,2.03,6.54,5.2,12.58,9.3,18.16,1.57,2.13,3.84,2.84,6.07,3.04Zm76.03-21.75c.08,1.13-.09,2.3,.51,3.37,2.34,4.18,4.6,8.41,7.05,12.52,1.42,2.38,3.28,4.46,5.94,5.67,1.59,.72,3.15,.71,4.65-.3,1.56-1.05,1.53-2.49,1.13-4.02-2.19-8.23-7.22-14.57-14.33-19.29-3.27-2.18-4.93-1.3-4.95,2.05Zm-102.85-22.58c2.97,.16,4.17-1.29,3.41-4.13-.52-1.93-1.92-3.16-3.59-4.15-2.99-1.76-6.28-2.75-9.66-3.46-5.44-1.13-10.75,1-13.89,5.36-1.12,1.56-1.3,3.23-.55,4.73,.8,1.58,2.64,1.39,4.16,1.06,6.49-1.41,12.93-1.94,19.31,.48,.25,.09,.54,.07,.81,.1Zm75.76,19.95c-2.48-1.11-2.5,.47-2.34,2.15,.06,.61,.22,1.22,.46,1.78,1.66,3.82,3.32,7.64,5.06,11.43,1.34,2.92,3.01,5.67,5.7,7.64,1.76,1.29,3.78,2.07,5.81,.72,1.89-1.25,1.57-3.23,1.12-5.07-.27-1.11-.64-2.22-1.13-3.26-2.51-5.4-6.17-9.97-10.74-13.88-1.11-.95-2.27-1.81-3.95-1.51Zm-11.92,22.92c4.09-6.7,10.74-11.94,8.34-20.8-.13-.49-.01-1.06,0-1.59,.09-2.36-1.54-3.41-3.81-2.38-1.77,.8-3.62,1.53-5.51,.95-2.19-.67-2.31,.4-2.61,2.02-1.42,7.49,.41,14.45,3.59,21.79Zm-34.25-16.65c-.06,3-.03,6.01,.98,8.89,.76,2.18,1.55,4.34,1.66,6.65,.06,1.27-.04,2.56,1.7,2.81,1.68,.24,2.55-.84,3.07-2.1,.77-1.88,1.48-3.8,1.97-5.76,1.43-5.82,1.79-11.67,.18-17.53-.38-1.38-.76-2.47-2.65-1.24-1.35,.88-3.09,1.17-4.72,.59-1.26-.44-1.49,0-1.71,1.11-.44,2.19-.46,4.38-.47,6.58Zm24.16-28.63c-1.91-.19-3.2,.07-1.71,2.33,.33,.5,.36,1.17,.51,1.77,1.18,4.56,2.59,9.04,5.44,12.91,2.35,3.2,5.49,4.18,8.79,2.98,1.68-.61,2.49-1.46,1.92-3.37-.83-2.8-1.86-5.54-2.67-8.33-1.79-6.14-6.4-8.02-12.27-8.29Zm-30.63-.72c-1.9-.32-2.04,.61-1.65,2.01,.17,.59,.23,1.21,.4,1.81,1.51,5.33,2.75,10.79,7,14.91,2.09,2.03,4.46,2.44,7.22,1.35,1.59-.63,1.95-1.58,1.57-3.09-1.23-4.8-2.91-9.43-5.42-13.76-.35-.6-.63-1.27-1.46-1.46-2.56-.57-5.11-1.18-7.66-1.77Zm27.88,6.23c-.09-1.23-.23-2.46-.25-3.69-.04-1.73-.85-1.8-2.47-1.64-3.73,.37-5.78,2.34-7.12,5.56-.99,2.39-1.87,4.78-2.27,7.32-.73,4.66,1.37,7.13,6.23,7.5,1.57,.12,2.51-.4,3.1-1.9,1.66-4.25,2.74-8.58,2.78-13.15Zm31.03,1.72c0-.79-.03-1.59,0-2.38,.11-2.1-1.79-3.05-3.08-3.6-1.37-.59-3.51-.26-4.57,1.37-2.61,3.99-4.39,8.24-4.51,13.09-.07,2.61,1.27,3.88,3.54,4.6,.86,.27,1.76,.41,2.63,.63,1.61,.41,2.66-.2,3.19-1.67,1.4-3.91,2.81-7.82,2.78-12.05Zm12.63,13.75c3.71,.1,5.18-1.55,4.33-4.83-.91-3.51-2.16-6.91-3.78-10.18-.69-1.39-1.43-2.04-3.13-1.59-2.21,.59-4.52,.61-6.77,.19-1.25-.23-1.76-.06-1.39,1.25,1.13,4.01,2.48,7.95,4.94,11.39,1.43,2,3.25,3.57,5.79,3.76Zm-102.28-16.76c-.12-.68,.16-1.55-.51-2.16-1.15-1.05-7.41-.04-7.97,1.41-1.86,4.82-4.55,9.31-5.92,14.32-.42,1.55-.34,2.02,1.52,1.71,5.73-.97,12.86-9.27,12.87-15.28Zm107.96,11.11c-.15,3.31,1.32,4.95,5.11,5.64,3.25,.59,2.93-2.16,3.72-3.84,.3-.64,.51-1.32,.74-1.99,1.38-3.89,1.31-4.17-1.85-6.71-1.19-.96-2.43-1.87-3.58-2.87-1-.86-1.54-.94-2.06,.49-1.11,3.02-1.9,6.08-2.08,9.29Zm33.15,14.64c1.94,2.37,2.7,5.13,3.96,7.64,1.52,3.02,3.11,6.02,5.86,8.21,1.61,1.28,5.85,2.02,6.68,1,1.28-1.58,.17-3.36-.13-5.04-.15-.85-.93-1.28-1.57-1.77-4.2-3.22-8.41-6.43-12.62-9.63-.57-.43-1.13-.92-2.19-.4Zm-23.74-63.71c-3.4-2.79-6.81-4.51-10.88-4.71-3.35-.17-6.48,.58-9.42,2.17-1.2,.65-1.81,1.74-1.57,2.82,.26,1.17,1.54,.44,2.33,.42,3.27-.08,6.33,.51,9.04,2.39,.49,.34,.93,.95,1.66,.44,2.55-1.8,5.64-2.37,8.84-3.52Zm-32.36,23.23c-1.8,.62-3.13,.93-4.32,1.51-3.05,1.5-5.41,3.49-5.34,7.26,.04,2.04,.91,2.9,2.95,2.85,2.57-.06,5-.69,7.57-1.48-1.46-3.18-2.26-6.38-.86-10.15Zm-90.03,45.66c-.11-1.66-.97-2.73-1.65-3.82-1.92-3.08-4.32-5.93-5.42-9.41-.6-1.89-1.7-1.03-2.71-.89-1.69,.24-.66,1.29-.53,2.01,.38,2.17,.86,4.33,1.2,6.51,.13,.84,.22,1.61,1.22,1.82,2.85,.61,5.28,2.1,7.88,3.77Zm1.5-14.76c.48-.1,1.02-.17,1.54-.34,1.45-.47,2.88-1.03,4.34-1.46,1.71-.5,1.91-1.21,1.04-2.78-2.2-3.97-2.29-4.07-5.91-1.16-.97,.78-1.85,1.68-2.67,2.61-.49,.57-1.27,1.23-.74,2.07,.49,.78,1.36,1.12,2.39,1.06Zm95.66-8.32c-3.03,2.46-3.28,6.03-4.4,9.18-.29,.81,.53,1.1,1.2,.86,2.19-.8,4.34-1.7,6.51-2.56,.81-.32,.87-.76,.31-1.39-1.55-1.74-2.2-4-3.61-6.1Zm-27.05,6.25c-1.27-1.57-2.33-3.23-3.03-5.05-.62-1.62-1.38-1.77-2.35-.34-1.58,2.33-2.18,5.03-2.92,7.67-.25,.87,.26,1.16,1.04,1,2.43-.5,4.62-1.59,6.81-2.65,.2-.1,.29-.4,.46-.63Zm-30.55-.55c-1.35-1.6-2.41-3.35-3.18-5.25-.6-1.51-1.39-1.15-2.09-.15-1.61,2.31-2.27,4.99-2.96,7.64-.2,.76,.15,1.22,1.02,1.07,2.46-.41,4.62-1.58,6.82-2.61,.18-.09,.24-.42,.39-.71Zm82.47,2.85c-.24,1.57,.55,1.77,1.76,1.32,1.86-.69,3.71-1.42,5.54-2.18,.64-.27,1.41-.53,.73-1.53-1-1.47-1.86-3.03-2.85-4.49-.94-1.39-1.96-1.19-2.58,.22-.96,2.18-1.74,4.43-2.59,6.66Zm-80.92,11.79c-.31-3.76-.06-7.4,.47-11.03,.13-.87,.32-2.12-.83-2.1-1.23,.03-2.98,.42-3.03,2.03-.12,3.92-1.24,8.17,3.39,11.1Zm-31.39-.87c-.02-3.65,.25-6.43,1.01-9.18,.27-.98,1.49-2.09,.2-3.13-1.31-1.05-2.33,.27-3.48,.57-1.42,.37-1.52,1.16-.98,2.38,.71,1.62,1.21,3.36,1.11,5.12-.1,1.62,.86,2.52,2.14,4.23Zm122.7,1.42c-.49-3.69-.26-7.2,0-10.71,.07-.9,.37-2.31-1.18-2.05-1.07,.18-3.04,.55-2.69,1.99,.86,3.6-.42,7.92,3.87,10.76Zm-29.95,.65c-.27-4.21,.1-7.72,.56-11.22,.1-.76,.61-1.57-.35-2.13-.8-.47-1.36,.23-2.01,.45-1.18,.4-1.7,1.04-1.32,2.39,.38,1.34,.83,2.89,.5,4.16-.67,2.58,.77,4.11,2.62,6.36Zm-20.86-20.96c.75-4.05,2.29-7,3.8-10.04-2.2-.45-3.96,.27-5.75,.93-1.35,.5-1.49,1.17-.85,2.43,.96,1.89,1.66,3.9,2.8,6.68Zm-27.1-10.72c-2.63-.08-4.61,.66-6.56,1.57-.61,.29-.81,.63-.56,1.23,.95,2.22,1.89,4.45,3.06,7.2,.94-3.83,2.27-6.86,4.06-9.99Zm57.37,10.35c.76-2.43,1.42-4.51,2.06-6.58,.24-.78,1.22-1.69,.19-2.35-1.47-.95-2.69,.42-4.01,.83-.85,.26-1.42,.79-.97,1.8,.88,1.99,1.73,4,2.73,6.3Zm-40.65,19.7c.07-3.61,.17-6.76,.79-9.86,.15-.75,.51-1.51-.24-2.21-.66-.61-1.13-.07-1.69,.12-1.19,.4-.94,1.29-.89,2.18,.12,1.92,.39,3.87,.19,5.77-.17,1.61,.41,2.64,1.84,4Zm-2.91-3.97c.15-2.61,0-4.67-.6-6.79-1.58,.54-3.09,1.05-4.53,1.53,1.64,1.68,3.21,3.29,5.13,5.26Zm25.56-4.55c.89,.93,1.63,1.68,2.35,2.44,.69,.72,1.38,1.45,2.27,2.39,.64-5.76-.09-6.52-4.62-4.83Zm-61.62-1.12c.91,.93,1.43,1.54,2.04,2.05,.62,.52,.8,1.65,2.16,1.45,.19-1.48,.74-3.33-.16-4.29-.88-.94-2.39,.56-4.04,.79Zm95.73,5.3c.06-2.16,.15-4.06-1.1-5.21-.7-.64-2.2,.35-3.35,1.08,1.5,1.39,2.82,2.62,4.45,4.14Zm-122.37-19.61c-.76,1.48-1.37,2.67-2.07,4.02,2.97-.22,3.3-1.61,2.07-4.02Zm44.26-6.67c-.7-.42-1.39-.99-1.53-.88-.77,.57-2.13,.24-2.41,1.4-.06,.23,.65,.93,.82,.88,.99-.34,1.92-.83,3.13-1.4Zm-54.33-11.68c-1.5-.74-2.44-1.31-3.39-.34-.16,.16-.13,.77,.05,.93,1.14,1.02,1.84-.22,3.34-.59Zm83.75,11.23c-.41,.85-2.02,.19-2.27,1.51-.06,.34,.38,.85,.91,.68,.9-.29,1.9-.56,2.43-1.37,.19-.3-.36-.7-1.07-.81Zm-57.69-10.78c1.13-.94,2.45-.96,2.91-2.28-1.67-.35-3.07-.49-2.91,2.28Zm43.91,19.09c0-.55-.26-.74-.66-.73-.41,0-.64,.28-.65,.66,0,.36,.16,.75,.59,.66,.3-.07,.52-.42,.72-.59Z"/>
  <path class="cls-14" d="M282.4,180.57c-1.26,.25-1.29,.67-.3,1.43,2.12,1.64,4.2,3.33,6.27,5.02,.37,.3,1.13,.61,.64,1.19-.59,.69-1.09-.06-1.59-.36-.53-.58-.99-1.27-1.92-1.32l-.02-.02c-.16-.57-.38-1.02-1.09-.53h.02c-.05-1.43-1.51-1.62-2.29-2.42-.84-.64-1.69-1.29-2.53-1.93-.28-.24-.56-.48-.85-.72-.62-.48-1.24-.96-1.86-1.43-.34-.27-.67-.54-1.01-.82-.13-.12-.26-.24-.4-.36l-1.9-1.46c-.27-.23-.54-.47-.8-.7-.62-.49-1.24-.98-1.86-1.47-.21-.16-.43-.31-.64-.47-1.23-1-2.47-1.99-3.7-2.98-.09-.14-.21-.26-.36-.34-.66-.46-1.32-.93-1.97-1.39,0,0-.08-.09-.08-.09-.55-.68-1.15-1.3-2-1.64-.21-.16-.41-.33-.62-.49-.28-.23-.56-.46-.84-.7-.82-.64-1.64-1.28-2.47-1.92-.29-.24-.57-.48-.86-.72-.43-.31-.85-.62-1.28-.93-.36-.29-.72-.58-1.08-.87-.07-.1-.16-.18-.26-.25-.97-.77-1.93-1.53-2.9-2.3-.85-.69-1.7-1.38-2.55-2.07-1.21-.82-2.42-1.64-3.63-2.45-.91-.71-1.83-1.41-2.74-2.12-.34-.28-.67-.56-1.01-.84-.09-.14-.21-.26-.37-.34-.72-.56-1.44-1.12-2.16-1.67-1.14-.91-2.29-1.82-3.43-2.73-.95-.75-1.9-1.5-2.85-2.25-.08-.09-.17-.18-.27-.25-.92-.74-1.84-1.48-2.76-2.21-.86-.91-1.82-1.7-2.96-2.27-.08-.12-.17-.21-.29-.28-.1-.48-1.25-.61-.48-1.37,.83-1.96-.05-3.16-2.26-3.95-1.78-.63-1.71,.15-1.56,1.33-.32-.06-.63-.12-.95-.17-.29-.23-.59-.46-.88-.69-.96-.76-1.93-1.53-2.89-2.29-.1-.14-.23-.24-.38-.32-.62-.5-1.23-1-1.85-1.5-.29-.23-.57-.46-.86-.68-.63-.48-1.26-.95-1.89-1.43-.35-.29-.7-.59-1.04-.88-.1-.14-.22-.24-.38-.31-.53-.83-1.72-1.11-1.99-2.17,3.06,.25,4.61,2.76,6.63,4.42,3.69,3.03,7.88,3.96,12.5,3.89,.21,.19,.41,.37,.62,.56-.31,.81-2.03,.14-1.74,1.52,.13,.59,.86,.97,1.19,.48,.59-.88,3.05-.25,2.06-2.35,.1-.36,.2-.73,.3-1.09,1.21,1.39,2.75,1.18,4.27,.76,6.43-1.78,12.83-2.31,19.29-.06,1.27,.45,2.68,.53,4.03,.02,.04,.28,.07,.57,.11,.85-.26,.71-2.03,.2-1.46,1.37,.64,1.29,1.53,.18,2.23-.19,.57-.31,1.53-.32,1.39-1.35,.22-.19,.43-.37,.65-.56,1.73,.47,3.45,.15,5.07-.36,5.71-1.78,11.34-1.71,17.02,.17,1.42,.47,3.02,.69,4.47-.16,.06,.32,.11,.63,.17,.95-1.12,.37-1.86,1.13-2.32,2.16-2.89-2.84-6.82-2.7-10.45-3.36-1.41-.26-.98,.94-.85,1.63,.95,5.04,2.39,9.94,5.15,14.35,1.27,2.03,2.86,3.86,5.46,4.48,3.82,.91,6.12-1.19,5.23-4.8-.25-1.02-.48-2.05-.72-3.08,.23-.27,.45-.54,.68-.81,1.24,.54,.7-.77,1.15-1.05,.65,.45,.43,1.16,.57,1.76-.02,1.49-.22,3.01-.04,4.48,.34,2.77,2.84,3.22,4.98,3.73,2.12,.5,2.6-1.15,3.25-2.72,2.35-5.62,2.79-11.42,2.17-17.36,.35,0,.7,0,1.05,0,.38,2.28,1.47,4.43,1.3,6.81-.55,.08-1.11,.15-1.22,.82-.05,.27,.04,.57,.39,.48,.62-.17,.59-.83,.88-1.25,1.24,2.61,2.38,5.26,3.74,7.81,1.22,2.3,2.86,4.32,5.57,5.13,1.98,.6,3.87,.09,5.37-1.1,1.26-1,.3-2.43,.06-3.69-.9-4.73-3.27-8.9-5.21-13.24-.07-.35-.27-.54-.64-.56l.16-.05s-.15,.07-.15,.07c.06-.36,.11-.73,.17-1.09,3.66-.06,4.9-1.94,3.42-5.24-.74-1.66-1.96-2.97-3.64-3.76-1.53-.72-3.15-1.28-4.73-1.91,0-.29,0-.58,0-.87,2.54,.14,5.02,.95,6.61,2.71,2.53,2.81,5.24,2.04,8.11,1.19,2.37-.71,4.4-1.99,6.32-3.51,4.67-3.69,5.28-7.96,1.69-12.51,.78-.24,.42-.72,.26-1.15,2.71,1.4,3.25,3.89,3.24,6.51,0,1.4,.42,2.17,1.64,2.95,4,2.55,4.91,5.71,3.09,10.08-.27,.66-.65,1.27-.55,2.01,.74,5.22-1.34,9.75-3.91,14.06-1.28,2.14-.14,3.9,1.19,4.48,6.9,3,6.58,8.71,6.12,14.44-.33,4.08-1.76,7.98-1.57,12.22,.17,3.91-3.14,6.13-6.29,8.06-.42,.26-.99,.31-1.19-.13-.3-.69,.32-1.21,.81-1.5,1.64-.97,3.02-2.17,4.03-3.76,.37-.59,.87-1.14,.11-2.27-2.35,2.77-5.45,3.93-9.01,4.08-.75,.03-.84,.89-1.07,1.41-1.08,2.52-2.93,2.91-5.33,1.96-.59-.23-1.25-.34-1.77-.67-2.89-1.85-5.36-2.72-9.19-1.03-3.03,1.33-7.38,.68-10.72-1.12-1.72-.93-3.01-1.56-4.67-.16-.52,.44-1.27,.76-1.95,.09,2.29-2.75,1.68-6.26-1.44-8.61-1.09-.82-1.82-1.01-2.37,.52-1,2.77-2.64,5.2-4.43,7.54-.51,.4-1.01,.8-1.74,.6,.03-1.18,1.47-1.58,1.59-2.71,5.15-6.74,6.85-14.26,5.44-22.49-.25-1.46-.7-2.22-2.43-1.25-1.42,.8-3.08,1.01-4.76,.51-.84-.25-1.65-.3-1.82,.86-1.02,6.9-2.11,13.8-.27,20.74-.11,1.37-.22,2.74-.33,4.1Zm11.74-9.31c.07,0,.14,0,.22,0,.03,0,.06-.03,.08-.05-.11,.03-.22,.07-.33,.1,.47-1.45-.43-2.45-1.1-3.68-1.25,1.88-.41,2.88,1.13,3.64Zm-20.71-13.39c1.7,1.32,2.42,3.42,4.42,5.3-.3-2.6-.49-4.66-.8-6.7-.22-1.46-1.09-1.39-2.11-.67-.88-.61-.31-1.01,.24-1.37,1.52-1,4.38-.89,4.56-2.67,.14-1.5-1.65-3.17-2.59-4.76-.09-.15-.2-.3-.26-.46-.63-1.69-1.48-1.21-2.23-.15-1.5,2.14-1.99,4.68-2.82,7.08-.51,1.44,.06,1.98,1.59,1.55,.73-.2,1.67-.69,1.59,.76-.81,.36-2.44-.3-2.06,1.55-.42,.02-.84,.04-1.25,.06-1.38-1.36-2.99-2.13-5-2.31-.91-.08-1.38-.13-1.45,.86-.14,2.12-.46,4.26,.87,6.17,1.8,2.58,3.15,5.41,4.2,8.31,1.55,4.26,5.23,6.46,8.57,8.96,1.36,1.02,2.65,.56,2.59-1.44-.02-.79-.13-1.58-.27-2.36-1.16-6.44-4.47-11.88-8.42-17.02,.21-.23,.42-.45,.64-.68Zm43.23-22.84c-.63,.32-1.34,.49-.74,1.5,1.59,2.64,2.74,5.48,3.74,8.39,.1,.3,.45,.56,.84,.22,.83,.61,.39,1.53,.6,2.3,.24,1.7-.59,4.12,1.06,4.89,1.99,.94,4.18-.43,6.04-1.58,.38-.23,.72-.53,1.09-.79,4.76-3.34,6.5-8.42,8.24-13.5,.56-1.64,.79-3.29,.28-5.17-2.66,1.61-4.91,3.5-7.96,3.68-.02-.33-.04-.65-.06-.98,2.56-.72,4.92-1.81,6.96-3.49,3.73-3.08,3.44-8.54-.54-10.82-.8-.46-1.39-.76-1.97,.28-2.26,4.08-6.25,5.94-10.45,7.46-1.59,.57-4.09,.32-4.78,1.33-.82,1.21-.14,3.38-.11,5.14-.43,.97-1.77,.29-2.25,1.16Zm-8.7,32.95c.33,.05,.65,.09,.98,.14-.23,1.2-.47,2.4-.7,3.59-.08,.26-.16,.53-.23,.79-.15,1.75-.32,3.5-.45,5.26-.19,2.76,1.02,3.9,3.81,3.3,2.05-.45,3.94-1.33,4.73-3.53,1.16-3.23,2.49-6.41,3.53-9.68,1.28-4.05,2.23-8.18,1.47-12.48-.23-1.31-.64-1.9-2.1-1.08-1.26,.71-2.77,1.22-4.18,.73-2.07-.72-2.76,.11-3.05,1.9-.11,.69-.4,1.34-.61,2.01-.52-.29-.53-.82-.62-1.31,.09-.52,.23-1.03,.27-1.55,.07-1.01,1.34-2.57-.48-2.8-1.16-.15-3.36,.53-3.29,2.11,.24,4.92-1.99,9.85,.16,15.08,.31-1.02,.54-1.76,.76-2.49Zm-61.91-34.57c-.4,.06-1.7-.59-1.41,1.04,1.14,6.48,3.45,12.47,7.98,17.5,.93,1.03,2.16,1.62,3.5,1.92,3.72,.83,5.99-1.37,5.07-4.86-1.13-4.28-2.71-8.39-4.94-12.25-.44-.76-.79-1.57-1.84-1.79-2.66-.54-5.24-1.47-8.35-1.57Zm60.17,42.12c-.02-5.1-1.4-9.9-3.19-14.66-1.19-3.14-3.42-4.76-6.65-5.56-1.64-.4-2.06,.03-2.12,1.53-.07,1.85-.52,3.7-.45,5.54,.25,6.51,2.64,12.19,7.62,16.67,1.05,.94,2.59,1.71,4.03,1.13,1.5-.61,.48-2.2,.76-3.32,.1-.42,.02-.88,.02-1.32Zm35.44-15.59c-.3-2.47-.32-5.35-2.49-7.6-.49-.5-.99-1.22-1.79-.94-.76,.26-.33,1.08-.43,1.65-.99,5.44-2.35,10.87-7.01,14.44-2.85,2.18-3.69,4-1.43,6.86,.31,.39,.36,.99,.52,1.5,.88,2.85,2.16,3.47,5.05,2.36,2.32-.89,4.02-2.51,4.86-4.75,1.59-4.25,2.41-8.67,2.72-13.51Zm-68.12-20.65c-.06-1.23-.17-2.47-.18-3.7,0-1.78-.75-2.17-2.56-1.85-2.78,.49-4.42,1.84-5.45,4.42-1.56,3.89-3.05,7.76-2.58,12.02,.22,2.05,2.7,3.7,5.46,3.89,2.18,.15,2.37-1.56,2.89-2.91,1.47-3.82,2.47-7.74,2.43-11.87Zm-32.07,10.9c2.29-5.17,2.54-10.28,1.94-15.51-.12-1.09-.74-1.36-1.69-1.03-1.6,.56-3.73,.2-4.73,1.72-1.61,2.45-2.7,5.19-3.33,8.06-.06,.29,.38,.77,.7,1.03,2.28,1.87,4.6,3.71,7.11,5.73Zm80.01,15.93c-.55,1.64-.94,2.89-1.37,4.12-.44,1.25-.9,2.49-1.38,3.72-2.11,5.5-2.07,5.59,3.7,7.9,3.59,1.44,4.54,.99,5.78-2.53,.27-.75,.07-1.37-.08-2.04-.95-4.25-3.2-7.78-6.64-11.17Zm8.2-1.71c-.34-3.07-1.25-6.01-1.99-9-.48-1.92-1.08-2.48-3.29-2-1.98,.43-2.57,.87-2.02,2.79,.54,1.89,.2,3.84-.14,5.76-.39,2.24,1.23,5.57,3.16,6.72,.44,.26,.83,.32,1.25,.05,1.61-1.04,3.21-2.09,3.02-4.32Zm-66.93,2.26c.69-4.17,.75-7.75-.07-11.33-.3-1.31-.66-1.9-2.11-1.1-1.54,.85-3.22,1.17-4.99,.67-.49-.14-1.3-.37-1.28,.39,.04,1.71-.85,3.71,.64,5.07,2.35,2.15,4.96,4.03,7.81,6.3Zm68.99-2.87c4.94-8.91,5.18-13.37,1.76-15.94-.59,.65-1.05,1.61-1.8,1.9-3.97,1.56-3.76,4.24-2.35,7.35,.96,2.12,.48,4.72,2.39,6.68Zm-22.46-11.95c-.22-.32-.45-.59-.62-.89-.84-1.45-1.78-2.86-2.48-4.37-.68-1.47-1.35-1.49-2.22-.26-1.67,2.36-2.23,5.15-3.04,7.83-.23,.77,.25,1.18,1.08,.96,2.37-.61,4.61-1.52,6.74-2.69,.21-.12,.35-.37,.54-.58Zm-58.44,.11c-.28-.4-.52-.75-.78-1.1-.86-1.19-1.7-2.4-2.59-3.57-.49-.64-.35-1.98-1.49-1.85-.89,.1-1.31,1.12-1.73,1.9-.33,.62-.6,1.28-.84,1.94-.63,1.75,1.14,4.58,3.04,4.47,1.54-.09,3.17-.55,4.39-1.79Zm29.68,16.69c.27-5.17,.67-9.61,1.54-13.99,.15-.77-.1-1.44-1.06-1.52-1.51-.12-3.03,1.64-2.86,3.18,.24,2.28,.69,4.59,.54,6.85-.14,1.93,.58,3.32,1.84,5.47Zm-19.21-23.67c1.1-3.23,2.63-6.25,3.97-9.63-1.05,.1-1.68,.09-2.27,.23-4.25,.98-4.78,1.95-3.17,5.79,.5,1.2,.98,2.41,1.47,3.62Zm-29.26-2.43c.64,.08,.63-.4,.77-.8,.28-.83,.73-1.62,.9-2.46,.27-1.28,2.13-2.71,.95-3.63-1.12-.87-2.87,.46-4.19,1.15-.72,.38-2.08,.55-1.6,1.96,.56,1.65,1.56,2.94,3.16,3.78Zm32.65,19.77c-1.15,5.05-.95,5.66,2.28,7.76,.37,.24,.73,.68,1.2,.45,.6-.3,.46-.92,.27-1.4-.92-2.3-1.86-4.59-3.75-6.82Zm-11.6-3.87c0-1.17-.02-2.13,0-3.08,.02-.9,.08-1.98-1.02-2.13-1.28-.18-2.58,.49-3.2,1.49-.59,.94,.64,1.46,1.33,1.94,.84,.59,1.4,1.59,2.9,1.78Zm51.91,3.8l.78-.03c0-1.87,0-3.74,0-5.62,0-.48,.2-1.27-.57-1.18-.96,.11-1.92,.48-2.8,.89-.56,.26-.12,.77,.05,1.12,.83,1.62,1.7,3.21,2.55,4.82Zm-1.44-17.99c-.13,.08-.34,.13-.37,.23-.03,.12,.09,.27,.15,.41,.17-.1,.33-.2,.5-.3-.09-.11-.18-.22-.28-.34Z"/>
  <path class="cls-3" d="M279.97,194.02c-10.16-8.03-20.19-16.22-30.5-24.05-17.41-13.21-34.32-27.01-51.35-40.67,3.35-2.07,7.06-.98,10.63-1.14,.39,.11,.79,.42,1.18,0,0,0-.03-.03-.03-.03,.44,1.66,1.61,2.47,3.3,2.68,0,0-.02-.01-.02-.01,.33,1.42,1.2,2.2,2.76,2.14,0,0-.02-.02-.02-.02,.42,1.69,1.53,2.57,3.31,2.67,0,0-.02-.02-.02-.02,.43,1.66,1.59,2.48,3.3,2.67,0,0-.01-.01-.01-.01,.09,1.34,1.18,1.71,2.21,2.13,0,0-.01,0-.01-.01,.68,.99,1.51,1.79,2.73,2.12h0c.16,.58,.5,.83,1.11,.54,0,0-.02-.01-.02-.01,1.31,2.06,2.98,3.67,5.49,4.27l-.02-.02c-.29,.64,0,.72,.56,.54h0c.18,1.26,.91,1.81,2.22,1.6l-.04-.03c-.26,.61-.03,.76,.56,.56h-.01c-.27,.61,.04,.67,.56,.53,0,0-.01,0-.01,0-.15,1.21,.87,1.28,1.64,1.59,0,0,0,0,0,0,1.07,1.17,1.94,2.61,3.83,2.66h-.01c-.26,.6-.01,.72,.55,.52h0c.36,1.38,1.29,2.08,2.75,2.13,0,0-.01-.01-.01-.01,.09,1.7,1.54,1.76,2.74,2.13h0c.19,.53,.44,.93,1.11,.54h-.02c.03,1.38,1.3,1.56,2.19,2.11,0,0,0,0,0,0,1.97,1.88,3.8,3.94,6.57,4.79,0,0,0,0,0,0,1.21,2.17,3,3.65,5.5,4.26,0,0-.03-.02-.03-.02,1.23,2.61,3.82,3.76,6.03,5.32,0,0,0,0,0,0,.65,1.02,1.54,1.75,2.73,2.12,0,0,.01,.01,.01,0,1.07,1.17,1.99,2.54,3.83,2.66,0,0-.01-.01-.01-.01,.29,1.47,1.26,2.13,2.75,2.14l-.02-.02c-.29,.65,.09,.64,.56,.54h-.01c.32,1.42,1.24,2.13,2.75,2.13l-.02,.07c.32,1.51,1.8,1.92,2.8,2.78-1.39,2.4-3.65,3.84-6.05,5.11Z"/>
  <path class="cls-5" d="M147.55,75.86s.04-.07,.04-.07c-2.28-.56-3.6-2.52-5.52-3.6-1.23-.7-1.58-1.54-1.45-3.03,.34-3.87,.81-7.72,1.39-11.56,2.14-14.23,7.17-27.46,14.67-39.84,2.36,.49,4.48,1.43,6.18,3.15-.42,.97-.74,2-1.28,2.91-9.56,16.11-13.35,33.68-14.02,52.05Z"/>
  <path class="cls-14" d="M267.54,99.6c3.23,.19,6.45,.37,9.68,.56,6.16,1.27,12.27,3.71,18.64,.93,6.36-.4,12.38,1.1,18.28,3.14,2.76,.96,5.24,2.41,6.84,4.95-.35,.12-.71,.24-1.06,.37-3.24-3.77-7.85-4.9-12.43-6.04-5.45-1.35-10.92-2.01-16.77,.14,3.9,1.91,7.48,3.72,9.65,7.11,.91,1.42,1.89,1.71,3.36,1.4,2.78-.59,5.62-.57,8.42-.39,2.68,.18,5.32,.67,6.15,3.8-.49,.3-.98,.6-1.48,.9,.35-2.12-1.13-2.74-2.79-3.21-3.81-1.08-7.58-.19-11.34,.26-7.04,.85-13.29,3.99-19.7,6.64-.12-.28-.24-.56-.36-.83,3.94-2.54,8.58-3.6,12.89-5.61-1.26-1.84-3.06-2.48-4.87-3.01-5.86-1.73-11.63-1.39-17.34,.76-6.04,2.27-11.45,5.68-17.12,8.62-.3-.16-.6-.32-.9-.49,2.68-1.69,5.36-3.38,8.2-5.17-3.14-2.02-6.36-3.05-9.85-3.43-8.84-.96-16.66,1.86-24.13,6.05-.79,.44-1.4,1.48-2.59,.95-.28-1.22,.87-1.25,1.51-1.65,3.11-1.96,6.48-3.44,9.98-4.82-4.07-3.43-7.02-3.9-14.35-2.38,.15-1.41,1.51-1.49,2.41-2.06,4.71-.61,8.99,.38,12.76,3.25,.48,.36,1.07,.96,1.66,.43,.81-.72-.07-1.3-.5-1.75-2.39-2.55-5.06-4.74-8.41-6.05-.92-.98-2.89-.09-3.4-1.8,2.86,.34,5.62-.21,8.38-.8,.29-.06,.57-.13,.86-.19,.19-.09,.39-.18,.58-.27,.18,.05,.35,.1,.53,.15,0,.31,0,.62,0,.93-1.45,.72-3.28,.2-4.69,1.35,1.81,1.39,3.99,2.47,5.26,4.17,2.39,3.2,5.11,3.81,9.03,3.21,5.34-.82,10.49,.63,15.15,3.35,1.13,.66,2.13,.59,3-.19,1.1-.99-.04-1.79-.55-2.49-.62-.85-1.46-1.58-2.26-2.3-5.03-4.51-11.06-6.68-17.82-7.1,.36-.28,.71-.56,1.07-.84,.57,.04,1.14,.08,1.72,.12,.24,.05,.48,.09,.72,.14,2.6-.17,5,1.46,7.68,.72,2.75-.76,5.58-1.21,8.45-1.35,.65,.25,1.39,1.5,1.85-.18Zm-9.91,2.79c2.46,1.78,5.19,2.79,7.08,4.83,2.95,3.18,6.72,3.05,10.41,2.28,7.72-1.6,15.15-2.27,21.6,3.42,.94,.83,2.03,.2,2.73-.29,.73-.51-.07-1.28-.47-1.8-1.45-1.87-3.37-3.21-5.44-4.35-6.9-3.79-14.47-5.14-22.26-5.48-4.5-.19-9.03-.26-13.65,1.4Z"/>
  <path class="cls-15" d="M316.81,116.46c.49-.3,.98-.6,1.48-.9,2.11-1.61,2.27-3.71,1.63-6.02,.35-.12,.71-.24,1.06-.37,.54-.07,1.07-.14,1.61-.21,.21-.1,.42-.21,.63-.31,.78-.14,1.55-.28,2.33-.42,.84,.25,1.65,.23,2.4-.25,.63,.82,.06,1.05-.64,1.17-1.16,.2-2.34,.29-3.47,.58-.9,.23-1.94,.38-1.82,1.8,.19,2.23-1.14,3.79-2.77,5.15-2.94,2.47-6.45,3.76-10.18,4.58-.41-.02-.89-.08-.97,.44-.08,.56,.41,.57,.82,.61h.05c0,.3,0,.59,0,.88-4.82-.98-9.33,.47-13.82,1.8-1.93,.57-3.47,1.81-4.5,3.6-.91,1.57-1.21,3.25-.29,4.73,.9,1.42,2.61,.71,4.02,.74,.77,.01,1.85-1.26,2.33,.4,.36,.97-.86,1.32-.9,2.13-.25-.36-.51-.72-.76-1.07-1.47-.22-2.9-.04-4.31,.36-.39-.14-.79-.28-1.18-.41,.96-1.12,.21-1.31-.79-1.37-.05-.46-.1-.93-.15-1.39,.1-1.86-.65-3.39-1.85-4.79-4.64-5.45-10.82-5.36-17.17-4.49-4.97,.68-8.34,3.18-9.22,8.24-.03,.07-.09,.15-.08,.22,.03,.15,.09,.29,.14,.43,.34,.54,.69,1.08,1.03,1.63-.22,.19-.43,.37-.65,.56-.78-.7-1.46-.09-2.16,.17-.04-.28-.07-.57-.11-.85,1.5-3.42,.26-6.86-3.59-8.74-6.29-3.07-12.82-2.87-19.19-.26-3.78,1.55-5.1,4.21-4.8,8.27-.1,.36-.2,.73-.3,1.09-.61-.31-1.03,.16-1.51,.36-.21-.19-.41-.37-.62-.56,2.22-3.46,.45-8.17-3.84-10.23-3.37-1.62-6.95-1.69-10.58-1.39,.48-1.53,1.88-1.51,3.1-1.62,1.71-.16,3.4-.33,4.97-1.07,1.32,.48,2.23-1.56,3.63-.57,.3,1.37,1.62,1.31,2.58,1.56,8.38,2.18,16.75,1.77,25.07-.38,.21,.27,.41,.55,.62,.82-.91,.31-1.81,.63-3.05,1.06,3.91,.68,6.82,2.41,8.88,5.47,.72-.81,1.21-1.44,1.78-1.98,.58-.55,1.25-1.02,2.27-1.84-1.56-.25-2.35-.37-3.14-.5,0-.31,0-.62,0-.93,2-.02,4.01-.04,6.01-.06,.68,.68,1.24,.62,1.68-.25,4.73-.77,9.54-1.14,14.09-2.75,.12,.28,.24,.56,.36,.83-.21,.92,.42,1.25,1.13,1.52,1.69,.66,3.42,1.15,5.25,1.25,9.28,.5,17.85-2.27,26.36-5.36,.57-.21,.86-.61,1.09-1.1Zm-90.76,5.66c-.04,.16-.08,.33-.13,.49,.56,.39,1.09,.85,1.7,1.16,1.43,.73,1.47,3.37,3.15,3.02,1.35-.28,2.39-2.01,3.56-3.1,.06-.06,.07-.16,.19-.42-2.86-.39-5.67-.77-8.48-1.14Zm59.09,1.38c1.44,1.52,2.85,2.79,3.88,4.46,1.12-1.21,2.15-2.33,3.32-3.6-2.6-.31-4.9-.58-7.2-.86Zm-1.54-.09c-2.16-2.01-2.38-2.08-4.48-1.8,1.17,1.05,2.62,1.01,4.48,1.8Z"/>
  <path class="cls-7" d="M109.98,179.67c-.99-.15-1.97-.31-2.96-.44-1.49-.2-2.1-.92-2.11-2.47-.03-2.3-.69-4.55-1.75-6.61-2.56-4.93-1.84-9.9-.52-14.94,.32-1.23,.9-1.79,2.3-1.53,1.46,.27,2.97,.06,4.21-.73,1.95-1.25,2.34-.16,2.78,1.41,.98,3.51,1.45,7.08,1.6,10.7,0,0,.06-.03,.06-.03,0,1.15,.02,2.3,.03,3.46,.02,.36,.04,.71,.06,1.07,0,.35-.01,.7-.02,1.05-.04,.98-.08,1.96-.11,2.94-.21,.54-.32,1.08,.02,1.61-.32,1.25-.64,2.51-.95,3.76-.1,.08-.21,.16-.33,.23l-2.25,.46s-.03,.04-.03,.04Z"/>
  <path class="cls-7" d="M309.08,121.26c3.73-.82,7.23-2.11,10.18-4.58,1.63-1.36,2.96-2.93,2.77-5.15-.12-1.42,.92-1.57,1.82-1.8,1.13-.29,2.31-.38,3.47-.58,.7-.12,1.27-.35,.64-1.17,0,0-.06-.07-.06-.07,.51-.11,1-.15,1.38,.31-.41-.13-.87-.42-1.19,.1-.35,.56,.1,.8,.53,.94,1.03,.34,2.07,.63,3.11,.94,3.59,4.55,2.98,8.82-1.69,12.51-1.92,1.52-3.95,2.8-6.32,3.51-2.88,.86-5.58,1.62-8.11-1.19-1.59-1.76-4.07-2.56-6.61-2.71h-.05c-.3-.41-.1-.74,.16-1.07Z"/>
  <path class="cls-15" d="M225.25,99.97c3.02-4.75,5.12-9.9,7.02-15.15,.66-1.82,.37-2.77-1.76-3.06-2.09-.28-2.37-1.1-.74-2.63,2.15-2.02,4.09-4.25,6.15-6.37,.41-.42,.74-1.19,1.5-.91,.7,.25,.58,1.03,.68,1.61,.52,2.95,.92,5.93,1.55,8.86,.36,1.68-.07,2.33-1.71,1.58-2.2-.99-2.91-.14-3.39,1.89-.92,3.85-2.91,7.33-4.41,10.99-.56,1.04-1.11,2.07-1.67,3.11-4.77,7.8-9.87,15.39-15.85,22.38-1.09,.88-2.17,1.77-3.26,2.65-2.92,1.58-6.04,1.97-9.34,1.73-2.04-.15-2.38-.69-1.03-2.17,1.45-.07,2.89-.14,4.34-.21,2.64,.04,4.82-1.14,6.51-2.89,6.19-6.4,11.32-13.55,15.4-21.4Z"/>
  <path class="cls-14" d="M156.68,17.76c-7.5,12.37-12.53,25.61-14.67,39.84-.58,3.84-1.05,7.69-1.39,11.56-.13,1.49,.22,2.34,1.45,3.03,1.92,1.08,3.24,3.04,5.52,3.6,2.03,2.19,4.33,4.07,6.73,5.87,.78,.59,1.48,1.3,2.52,1.45,.21,.27,.39,.21,.53-.06,.89-.3,1.76-.67,2.73-.5,0,.33,.01,.67,.02,1-6.59,1.47-13.11,2.1-19.24-1.66-.59,1.36,.19,2.43,.2,3.54-.21,.41-.43,.83-.64,1.24,0,0-.01-.04-.01-.04-.12-.33-.25-.66-.37-.98-.89-1.84-.43-3.93-1.03-6.08-1.38,1.08-1.07,2.54-1.63,3.64-.67,1.32-1.4,2.14-2.86,.86-3.66-3.19-6.63-6.82-7.59-11.65-.59-2.92,.65-4.35,3.68-4.51,2.45-.12,4.68,.58,6.8,1.64,1.31,.65,1.78,.57,1.94-1.06,1-9.94,2.57-19.78,5.82-29.32,2.47-7.24,5.88-14.06,9.63-20.73,.28-.5,.42-2.56,1.85-.7Zm-10.52,59.07c-.27-.08-.54-.16-.8-.23-.09-.75-.66-1.08-1.27-1.39-.44-.3-.88-.6-1.32-.91-3.46-2.83-7.24-5.02-11.9-5.21-2.22-.09-3.22,1.07-2.73,3.19,1.08,4.66,3.88,8.2,7.62,11.17,.27-.3,.44-.41,.5-.57,.16-.41,.29-.83,.4-1.26,1.03-4.04,1.85-4.32,4.86-1.47,2.45,2.33,5.27,3.54,8.72,3.2,1.2-.44,2.44,.03,3.99-.08-1.2-1.47-2.53-2.31-3.85-3.18-.22-.02-.44-.04-.66-.06h0c-.58-1.34-1.88-1.93-2.99-2.7-.19-.17-.38-.33-.57-.5Z"/>
  <path class="cls-7" d="M79.59,145.79c.03,1.58-.05,3.17,.11,4.74,.24,2.34-1.05,2.58-2.97,2.37-3.83-.43-6.98-1.73-8.47-5.52-.27-.69-.46-1.6-1.6-1.41,.15-1.7,.29-3.4,.44-5.1,.69-1.91,2.85-4.02,4.91-4.77,.8-.1,1.28,1.03,2.18,.55h0c.23,.81,.57,1.48,1.65,1.06,0,0,0,0,0,0-.3,1.46,1.22,2.06,1.62,3.19,.71,1.63,1.43,3.27,2.14,4.9Z"/>
  <path class="cls-7" d="M170.54,178.56c-.85-.83-1.09-1.49-.18-2.66,2.91-3.73,5.36-7.76,6.95-12.44,1.62,1.86,2.01,4.07,2.99,6.01,.8,1.58,1.3,3.39,2.41,4.72,2.15,2.59,2.11,4.82-.34,7.08-2.66-.33-5.37,0-8-.67-1.27-.68-2.54-1.36-3.82-2.04Z"/>
  <path class="cls-7" d="M66.67,111.88c4.79,1.37,9.05,3.68,12.46,7.23,3.15,3.28,2.78,6.31-.79,9.09-1,.78-.9-.44-1.36-.62-2.01-3.98-5.39-5.47-9.81-5.09-.95-1.55-.72-3.28-.59-4.92,.15-1.91,.25-3.8,.08-5.7Z"/>
  <path class="cls-7" d="M91.18,180.75c.07-.68,.01-1.15-.92-1.22-2.98-.22-5.49-1.9-8.31-2.64-.86-.23-1.93-.49-1.36-1.99,1.12-2.92,1.3-6.01,1.22-9.1,4.97,.28,8.87,3.2,10.15,7.57,.45,1.54,.87,3.12,1.95,4.31,1.38,1.52,.73,2.02-.92,2.44,.84,.09,1.69,.17,2.53,.26-1.34,1.37-2.81,1.17-4.35,.37Z"/>
  <path class="cls-7" d="M203.26,174.86c.23-1.02,.46-2.05,.7-3.07,.05-.19,.09-.38,.14-.57,1-2.67,.86-5.54,1.65-8.92,3.86,6.11,5.86,12.83,11.26,17.37-1.35,2.14-3.56,.82-5.16,.83-3.33,.02-6.77,.02-10.07-.84,.63-.98,1.04-2.03,1-3.21,.13-.1,.17-.23,.12-.39,.37-.33,.44-.75,.37-1.21Z"/>
  <path class="cls-7" d="M76.28,128.33c1.13,2.65,.99,5.45,1.08,8.23,0,0,.07,.05,.07,.05-.53,.36-1.07,.73-1.6,1.09,0,0,0,0,0,0-.07-1.06-.38-1.75-1.65-1.07,0,0,0,0,0,0,.65-.74,0-.88-.53-1.08-.18-.1-.36-.2-.54-.29-.19-.09-.37-.17-.56-.26-1.68-1.05-3.57-1.5-5.5-1.83,.18-3.2-.11-6.39-.36-9.58,4.17-.28,7.46,1.1,9.58,4.73Z"/>
  <path class="cls-13" d="M147.55,75.86c.67-18.36,4.46-35.93,14.02-52.05,.54-.91,.86-1.94,1.28-2.91,1.94,.51,.84,1.58,.39,2.4-3.66,6.72-7.06,13.54-9.33,20.85-3.01,9.7-4.35,19.66-5.09,29.72-.12,1.66-.15,1.66-1.28,1.99Z"/>
  <path class="cls-7" d="M241.35,180.78c-.1-1.12-1.18-1.23-1.9-1.68-3.45-2.16-5.6-4.9-4.9-9.19,.36-2.22,.38-4.5,.62-7.55,3.91,6.36,5.43,13.28,10.93,17.81-1.64-.23-3.15,.56-4.75,.61Z"/>
  <path class="cls-8" d="M142.06,179.68c-.62-.34-.9-.78-.65-1.52,.75-2.17,1.48-4.34,2.15-6.52,.54-1.76,1.67-.92,2.55-.52,2.86,1.3,4.12,3.85,5.11,6.53,.36,.98,.48,2.05,.71,3.07-2.12-.01-4.24-.03-6.36-.04-1.01-.86-2.34-.66-3.51-1Z"/>
  <path class="cls-15" d="M152.99,101.35c-4.54-1.84-9.03-3.75-13.18-6.35-.77-.48-1.67-.79-.88-1.99,.77-1.17,1.45-.61,2.25-.12,4.64,2.84,9.62,4.99,14.78,6.75,.82,.28,1.6,.87,2.55,.39,0,0-.05-.03-.05-.03-.12,.87,.74,.55,1.09,.85,.24,.42,.42,.92,1.09,.74,0,0,.01,.01,.01,.01,.25,1.49-.2,2.15-1.85,1.59-1.92-.65-3.87-1.23-5.81-1.84Z"/>
  <path class="cls-8" d="M286.72,180.21c1.79-2.34,3.43-4.78,4.43-7.54,.55-1.53,1.28-1.34,2.37-.52,3.12,2.35,3.74,5.86,1.44,8.61-2.76-.06-5.52,.03-8.24-.55Z"/>
  <path class="cls-13" d="M160.14,83.55l-.02-1c3.26-.47,6.5-.52,9.7,.35,2.4,.65,4.2,1.99,5.12,4.3-.51,.22-.56,.66-.6,1.12-1.87-3.67-5.17-4.82-9.1-4.83-1.7,0-3.41,.04-5.11,.07Z"/>
  <path class="cls-13" d="M70.11,178.21c.26,.3,.51,.61,.77,.91-.31,.84-.72,1.61,.84,1.72,2.2,.15,4.04-.5,5.67-1.86,.22,.24,.45,.48,.67,.72-2.46,2.45-6.37,3.11-9.63,1.65-.41-.18-.92-.24-.91-.78,0-.54,.51-.68,.94-.77,.92-.2,1.25-.92,1.66-1.59Z"/>
  <path class="cls-13" d="M76.28,128.33c-2.12-3.63-5.41-5.01-9.58-4.73-.15-.49,.18-.79,.47-1.1,4.41-.38,7.8,1.11,9.81,5.09-.23,.25-.46,.49-.69,.74Z"/>
  <path class="cls-13" d="M112.26,179.17c.11-.07,.22-.15,.33-.23,.64,.24,1.2,.2,1.59-.42,3.2,.98,6.59,.47,9.83,1.15,0,0-.08-.02-.08-.02,1,1.25-.15,1.14-.81,1.09-2.59-.19-5.18-.37-7.74-.74-1.01-.15-1.93-.23-2.89,.05-.08-.29-.16-.59-.24-.88Z"/>
  <path class="cls-7" d="M72.01,136.08c-2.06,.75-4.22,2.86-4.91,4.77-1.15-2.15-.4-4.41-.4-6.62,1.68,.47,3.36,.94,5.03,1.41,.11,.14,.2,.29,.28,.44Z"/>
  <path class="cls-7" d="M232.85,178.58c.29-1.01,.57-2.02,.95-3.35,1.46,1.74,2.8,3.32,4.13,4.9-1.71,.32-3.32-.4-4.99-.47-.03-.36-.06-.72-.09-1.08Z"/>
  <path class="cls-14" d="M133.22,86.86c-.48,.65-.79,1.75-1.66,1.49-1.09-.32-2.06-1.28-2.21-2.39-.09-.67,.91-1.47,1.7-1.27,1.04,.27,1.58,1.29,2.17,2.16Z"/>
  <path class="cls-7" d="M282.4,180.57c.11-1.37,.22-2.74,.33-4.1,1.28,.54,2.56,1.09,3.84,1.63-.13,1.13-1.56,1.53-1.59,2.71-.86-.08-1.72-.16-2.58-.24Z"/>
  <path class="cls-13" d="M137.35,90.53c-.41,.67-.58,1.7-1.52,1.61-.86-.08-1.75-.72-1.83-1.64-.06-.67,.63-1.38,1.33-1.45,.99-.1,1.51,.73,2.02,1.48Z"/>
  <path class="cls-13" d="M202.77,176.46c.04,1.18-.37,2.22-1,3.21-1.25,.43-2.48,1.07-3.85,.36,.17-.29,.34-.58,.51-.87,2.05,.19,2.9-1.01,3.34-2.7,.33,0,.66,0,.99,0Z"/>
  <path class="cls-13" d="M232.85,178.58c.03,.36,.06,.72,.09,1.08-1.22,2.21-2.63,2.38-5.15,.61,.25-.22,.51-.44,.76-.66,1.59,.94,2.83,.93,3.32-1.14,.33,.04,.65,.08,.98,.11Z"/>
  <path class="cls-13" d="M247.13,100.15c-.36,.28-.71,.56-1.07,.84-2.38,0-4.75,0-7.13,0,0-.31,0-.62,0-.93,2.74-.44,5.47-.32,8.2,.09Z"/>
  <path class="cls-13" d="M170.54,178.56c1.27,.68,2.55,1.36,3.82,2.04-2.38,1.83-3.29-.68-4.77-1.52,.42,0,.79-.09,.96-.52Z"/>
  <path class="cls-13" d="M71.73,135.64c-1.68-.47-3.36-.94-5.03-1.41-.09-.42,.03-.78,.37-1.06,1.93,.33,3.82,.78,5.5,1.83-.28,.21-.55,.43-.83,.64Z"/>
  <path class="cls-13" d="M140.45,86.68c.21-.41,.43-.83,.64-1.24,.6,1.64,1.72,2.98,2.75,4.38-.38,.09-.76,.18-1.14,.26-1.2-.86-1.92-2.01-2.25-3.4Z"/>
  <path class="cls-13" d="M142.06,179.68c1.17,.34,2.5,.14,3.51,1-1.62,1.35-3.05,.36-4.5-.36,.34-.19,.86-.14,.98-.65Z"/>
  <path class="cls-12" d="M286.03,188.91c-1-.86-2.48-1.27-2.8-2.78,.39-.04,.78-.08,1.17-.12,0,0-.02-.01-.02-.01,.11,.67,.35,1.08,1.09,.53,0,0,.02,.02,.02,.02-.55,1.11,1.04,1.25,1.02,2.12l-.49,.25Z"/>
  <path class="cls-15" d="M331.71,110.21c-1.04-.31-2.08-.61-3.11-.94-.44-.14-.88-.38-.53-.94,.33-.52,.78-.23,1.19-.1,.73,.17,1.46,.33,2.18,.5,.16,.1,.32,.2,.48,.3l.05,.02c.16,.44,.52,.91-.26,1.15Z"/>
  <path class="cls-10" d="M286.51,188.66c.03-.87-1.56-1.01-1.02-2.12,.92,.05,1.39,.73,1.92,1.32-.3,.27-.6,.54-.9,.8Z"/>
  <path class="cls-14" d="M142.71,90.08c.38-.09,.76-.18,1.14-.26,.75,.47,1.5,.95,2.25,1.42-.33,.19-.66,.39-.99,.58-.94-.39-1.81-.88-2.39-1.74Z"/>
  <path class="cls-14" d="M327.88,107.92s.06,.07,.06,.07c-.76,.48-1.57,.5-2.4,.25,.71-.59,1.54-.36,2.34-.32Z"/>
  <path class="cls-9" d="M265.69,99.78c-.02-.14,0-.28,.06-.41,.6,.08,1.19,.16,1.79,.23-.45,1.68-1.2,.42-1.85,.18Z"/>
  <path class="cls-14" d="M112.26,179.17c.08,.29,.16,.59,.24,.88-.9,.23-2,1.65-2.49-.42,.75-.15,1.5-.31,2.25-.46Z"/>
  <path class="cls-10" d="M150.52,102.44c-.86,.12-1.7,.14-2.48-.31,.87-.18,1.71-.19,2.48,.31Z"/>
  <path class="cls-13" d="M176.05,95.17c-.69-.01-1.39,0-.83-1,0,.55,.49,.71,.83,1Z"/>
  <path class="cls-13" d="M70.04,174.91c.49,.57,.3,1.23,.26,1.87-.33-.59-.36-1.22-.26-1.87Z"/>
  <path class="cls-13" d="M140.08,85.66c.12,.33,.25,.66,.37,.98-.12-.33-.25-.66-.37-.98Z"/>
  <path class="cls-13" d="M175.41,88.28c-.43-.26-.53-.65-.48-1.1,.16,.37,.32,.73,.48,1.1Z"/>
  <path class="cls-13" d="M69.36,172.23c.46,.35,.45,.82,.36,1.31-.12-.44-.24-.87-.36-1.31Z"/>
  <path class="cls-13" d="M78.06,179.7c.16-.2,.32-.39,.48-.59-.16,.2-.32,.39-.48,.59Z"/>
  <path class="cls-14" d="M331.92,109.03c-.16-.1-.32-.2-.48-.3,.16,.1,.32,.2,.48,.3Z"/>
  <path class="cls-14" d="M323.22,108.65c-.21,.1-.42,.21-.63,.31,.21-.1,.42-.21,.63-.31Z"/>
  <path class="cls-13" d="M249.31,100.05c.05,.14,.14,.26,.25,.36-.24-.05-.48-.09-.72-.14,.15-.09,.31-.16,.47-.22Z"/>
  <path class="cls-13" d="M152.5,93.32c.25-.19,.41-.08,.53,.15-.18-.05-.35-.1-.53-.15Z"/>
  <path class="cls-13" d="M145.69,92.02c.25,.12,.49,.25,.74,.37-.25-.12-.49-.25-.74-.37Z"/>
  <path class="cls-13" d="M157.38,83.05c-.15,.27-.32,.33-.53,.06,.18-.02,.36-.04,.53-.06Z"/>
  <path class="cls-13" d="M69.03,171.2c.07,.18,.14,.37,.21,.55-.07-.18-.14-.37-.21-.55Z"/>
  <path class="cls-7" d="M127.43,113.28c8.32-3.9,16.11-3,23.94-.96,.07-1.5-.95-1.48-1.67-1.64-7.8-1.79-15.51-2.12-22.91,1.6-.85,.43-1.77,.83-2.45-.07-.61-.81,.15-1.49,.64-2.1,.97-1.19,2.09-2.35,3.52-2.88,8.92-3.32,18.02-4.93,27.48-2.34,3.04,.83,3.01,.91,1.38,3.59-.18,.3-.35,.62-.52,.93q-1.42,2.68-4.69,2.89c4.83,2.03,9.23,3.98,13.72,5.72,1.45,.56,2.75,1.36,4.15,1.96,2.65,1.14,2.21,3.23,1.62,5.18-.39,1.31-1.45,1.71-2.69,.59-5.49-4.97-12.04-6.08-19.25-5.09-3.57,.49-6.97-.07-10.09-2.13-3.47-2.29-7.36-3.82-12.16-5.25Z"/>
  <path class="cls-5" d="M214.9,112.33c-.73,2.64-2.7,4.49-4.31,6.59-.96,1.26-2.78,.08-3.56,1.47-3.37-1.19-8.05,.61-9.11,3.51h0c-.16-.04-.32-.08-.48-.12-.02,.22-.05,.44-.07,.66,0,0,.03-.02,.03-.02-2.17,.45-2.32,2.34-2.73,3.89-.46,1.71,1.37,1.15,2.12,1.7,1.8,1.33,3.53,2.76,5.67,4.45-5.25,1.59-10.11,3.02-15.21,1.56-5.61-1.6-8.08-9.77-4.57-14.64,1.05-1.46,2.29-2.74,3.75-3.82,1.7-1.03,3.41-2.07,5.11-3.1,7.55-3.19,15.35-3.74,23.36-2.12Z"/>
  <path class="cls-7" d="M88.97,112.19c6.89,1.27,13.78,2.55,19.86,6.24,2.51,1.53,2.77,2.54,1.3,5.19-1.34,2.41-4.11,3.66-6.06,2.53-6.28-3.64-13.36-4.41-20.36-5.5-.7-.11-1.6,.28-2.06-.39-2.46-3.56-6.05-5.72-9.81-7.7-.04-.02-.07-.16-.04-.2,.05-.07,.15-.1,.22-.14,5.65-1.24,11.3-.5,16.95-.02Z"/>
  <path class="cls-4" d="M161.21,104.22c1.42,.58,1.71-.85,2.45-1.38,5.95-4.27,12.12-7.9,19.95-7.2,1.26,.11,2.54,.28,3.76,.61,1.04,.28,2.73,.12,2.68,1.63-.04,1.41-.43,2.77-2.38,3.38-5.5,1.72-10.73,4.11-15.59,7.17-2.79,1.76-5.45,3.7-8.13,5.63-1.28,.92-4.91,.55-6.54-.97-1.44-1.35,.22-2.39,.69-3.47,.81-1.91,2.73-3.24,3.11-5.4,0,0,0,0,0,0Z"/>
  <path class="cls-7" d="M123.97,120.92c3.5,.2,6.87,.83,9.93,2.6,1.85,1.07,3.33,2.48,4.22,4.38,.67,1.43,.77,3.03-.04,4.36-.87,1.42-2.45,.75-3.76,.62-.72-.07-1.44-.25-2.12-.48-5.02-1.67-10.02-1.43-15.01,.12-1.91,.59-3.84,1.06-5.88,1.06-1.97,0-2.79-.98-2.81-2.79-.03-1.89,.72-3.46,2.11-4.72,3.75-3.43,8.23-5.1,13.37-5.15Z"/>
  <path class="cls-4" d="M179.18,114.77c-.8,.4-1.76,.65-2.39,1.23-3.54,3.29-7.21,2.93-11.16,.72-1.41-.79-1.51-1.26-.24-2.17,7.28-5.2,14.98-9.63,23.61-12.4,3.96-1.28,7.86-1.24,11.64,.65,1.3,.65,1.7,1.19,.48,2.51-2.63,2.84-4.67,6.52-9.68,4.85-.34-.11-.84,.24-1.27,.37-4.03,.54-7.61,2.16-11,4.25Z"/>
  <path class="cls-7" d="M160.88,180.06c-2.8-.05-5.54-1.56-7.44-4.24-3.51-4.97-6.4-10.28-8.28-16.05-.55-1.69-1.16-3.91,.34-4.97,1.12-.79,3.24-.09,4.76,.72,5.62,2.97,9.07,7.8,11.84,13.16,1.31,2.52,2.28,5.18,2.54,8.05,.25,2.68-.29,3.3-3.77,3.34Z"/>
  <path class="cls-7" d="M169.44,130.6c.42,2.41-.75,3.34-3.25,2.94-.81-.13-1.65-.13-2.42-.37-5.34-1.7-10.69-1.95-16.1-.26-.95,.3-1.96,.57-2.94,.56-1.56,0-3.67,.89-4.47-.92-.87-1.95-.75-4.22,.92-5.96,3.59-3.72,8.2-5.11,13.29-5.18,4.51-.06,8.59,1.47,12.24,3.89,1.73,1.15,3,2.87,2.71,5.29Z"/>
  <path class="cls-7" d="M130.02,179.76c-2.23-.2-4.5-.91-6.07-3.04-4.09-5.57-7.27-11.61-9.3-18.16-1.27-4.08-.07-5.18,4.14-4.17,.69,.16,1.42,.48,1.94,.93,6.39,5.5,11.38,11.9,13.27,20.18,.8,3.49,.07,4.25-3.98,4.26Z"/>
  <path class="cls-7" d="M77.4,178.98c-1.63,1.36-3.48,2.01-5.67,1.86-1.56-.1-1.15-.88-.84-1.72,1.1-2.8,0-5.39-.82-8.01-.07-.2-.13-.39-.2-.59-.12-.42-.14-.91-.37-1.26-3.41-5.11-1.27-9.94,.71-14.82,.56-1.37,1.35-1.75,2.7-1.22,.17,.07,.34,.19,.51,.18,4.92-.32,5.96,2.72,6.58,6.63,1.04,6.61,1,12.98-2.59,18.94Z"/>
  <path class="cls-5" d="M146.09,91.24c-.75-.47-1.5-.95-2.25-1.42-1.03-1.4-2.14-2.74-2.75-4.38,0-1.12-.78-2.18-.2-3.55,6.13,3.75,12.65,3.12,19.24,1.66,1.7-.02,3.41-.07,5.11-.07,3.93,0,7.22,1.16,9.1,4.83,.35,.91,.59,1.85,.47,2.83-.19,1.5-.33,3.27-1.71,3.99-1.48,.77-2.35-.96-3.23-1.78-1.65-1.54-3.41-1.88-5.66-1.81-6.03,.19-12.11,1.63-18.11-.31Z"/>
  <path class="cls-7" d="M206.05,158.01c.01-3.35,1.67-4.23,4.95-2.05,7.11,4.73,12.14,11.06,14.33,19.29,.41,1.53,.44,2.97-1.13,4.02-1.51,1.01-3.06,1.02-4.65,.3-2.66-1.21-4.52-3.29-5.94-5.67-2.45-4.12-4.71-8.34-7.05-12.52-.6-1.07-.43-2.23-.5-3.37Z"/>
  <path class="cls-7" d="M103.2,135.43c-.27-.03-.56,0-.81-.1-6.38-2.42-12.82-1.89-19.31-.48-1.52,.33-3.36,.52-4.16-1.06-.76-1.5-.58-3.17,.55-4.73,3.14-4.36,8.45-6.49,13.89-5.36,3.38,.71,6.67,1.7,9.66,3.46,1.67,.98,3.07,2.22,3.59,4.15,.77,2.84-.44,4.29-3.41,4.13Z"/>
  <path class="cls-7" d="M178.96,155.38c1.68-.3,2.84,.56,3.95,1.51,4.56,3.91,8.22,8.49,10.74,13.88,.48,1.04,.86,2.15,1.13,3.26,.45,1.84,.77,3.82-1.12,5.07-2.03,1.35-4.05,.57-5.81-.72-2.69-1.97-4.36-4.72-5.7-7.64-1.74-3.79-3.39-7.61-5.06-11.43-.24-.56-.41-1.18-.46-1.78-.16-1.68-.14-3.25,2.34-2.15Z"/>
  <path class="cls-7" d="M167.04,178.3c-3.18-7.34-5.01-14.3-3.59-21.79,.31-1.62,.42-2.69,2.61-2.02,1.89,.58,3.75-.15,5.51-.95,2.26-1.03,3.89,.03,3.81,2.38-.02,.53-.14,1.09,0,1.59,2.4,8.85-4.25,14.1-8.34,20.8Z"/>
  <path class="cls-7" d="M132.79,161.65c.01-2.2,.03-4.4,.47-6.58,.22-1.11,.45-1.55,1.71-1.11,1.63,.57,3.36,.29,4.72-.59,1.89-1.23,2.27-.13,2.65,1.24,1.61,5.86,1.25,11.71-.18,17.53-.48,1.96-1.2,3.88-1.97,5.76-.52,1.26-1.39,2.34-3.07,2.1-1.74-.25-1.64-1.54-1.7-2.81-.1-2.31-.9-4.47-1.66-6.65-1-2.88-1.03-5.88-.98-8.89Z"/>
  <path class="cls-7" d="M156.95,133.02c5.87,.27,10.49,2.15,12.27,8.29,.81,2.79,1.83,5.53,2.67,8.33,.57,1.91-.24,2.76-1.92,3.37-3.3,1.2-6.43,.22-8.79-2.98-2.85-3.88-4.26-8.36-5.44-12.91-.15-.6-.19-1.28-.51-1.77-1.48-2.26-.19-2.52,1.71-2.33Z"/>
  <path class="cls-7" d="M113.6,111.97c6.86,.85,13.67,1.96,20.02,4.77,1.9,.84,3.64,2.01,5.53,2.86,2.19,.98,2.06,2.73,1.7,4.48-.38,1.85-1.93,2.22-3.31,.84-4.13-4.14-9.38-5.47-14.98-4.96-5.3,.48-10.06-.11-14.47-3.2-1.77-1.24-3.97-1.92-6.39-3.05,2.92-.94,5.45-1.37,8.06-1.41,1.27-.11,2.55-.22,3.83-.32Z"/>
  <path class="cls-7" d="M93.82,158.02c3.4,4.26,6.69,8.59,8.69,13.68,.32,.82,.65,1.66,.77,2.52,.23,1.63,1.49,3.5-.58,4.77-1.81,1.11-5.38,.56-6.92-.85-1.6-1.46-2.47-3.4-2.7-5.38-.56-4.83-2.76-8.88-5.54-12.76-.88-1.22-1.64-2.54-2.31-3.88-.55-1.1-.55-2.2,.62-3.06,1.15-.85,1.99-.31,2.88,.43,.75,.63,1.58,1.17,2.38,1.75,.91,.93,1.81,1.85,2.72,2.78Z"/>
  <path class="cls-7" d="M126.32,132.29c2.55,.59,5.1,1.2,7.66,1.77,.83,.19,1.11,.85,1.46,1.46,2.5,4.33,4.19,8.95,5.42,13.76,.39,1.51,.02,2.47-1.57,3.09-2.76,1.09-5.13,.68-7.22-1.35-4.24-4.13-5.49-9.58-7-14.91-.17-.59-.23-1.21-.4-1.81-.39-1.4-.25-2.33,1.65-2.01Z"/>
  <path class="cls-7" d="M201.78,176.46c-.44,1.68-1.3,2.89-3.34,2.7-1.53-.38-2.63-.94-2.24-2.87,.26-1.29-.13-2.64-.62-3.89-2.11-5.41-1.45-10.96-.86-16.5,.11-1.05,.59-1.39,1.62-1.06,1.74,.55,3.47,.37,5.02-.49,1.72-.96,2.1-.09,2.44,1.31,.99,4.05,.36,8.09,.03,12.13-.03,.22-.06,.44-.09,.65-.49,2.07-.97,4.14-1.46,6.2,0,0,.02,.02,.02,.02,0,0-.04,.08-.04,.08-.05,.2-.11,.4-.16,.61-.11,.38-.22,.76-.32,1.13Z"/>
  <path class="cls-7" d="M111.22,147.8c-.07-.9,.19-1.86-.44-2.68,.9-1.85,.77-3.9,1.21-5.83,.7-1.52,.59-3.82,2.01-4.48,2.49-1.17,5.37-1.57,8.1-2.25,.88-.22,1.08,.41,1.17,1.07,.85,6.37-.15,12.48-2.8,18.35-.19,.42-.76,.79-1.23,.95-3.01,.96-7.22-1.51-7.97-4.61-.02-.17-.03-.34-.05-.51Z"/>
  <path class="cls-7" d="M231.87,178.47c-.49,2.07-1.73,2.08-3.32,1.14-1.07-1-1.69-2.12-1.85-3.65-.4-3.75-2.85-7.05-2.7-10.97,.09-2.28-.18-4.58-.07-6.86,.17-3.63,.25-3.62,3.82-2.99,2.68,.47,6.01,4.21,6.08,6.83,.14,5.59-.97,11.04-1.96,16.5Z"/>
  <path class="cls-7" d="M154.2,138.52c-.04,4.57-1.12,8.9-2.78,13.15-.59,1.5-1.52,2.02-3.1,1.9-4.86-.38-6.96-2.85-6.23-7.5,.4-2.54,1.28-4.93,2.27-7.32,1.33-3.22,3.39-5.18,7.12-5.56,1.61-.16,2.43-.09,2.47,1.64,.03,1.23,.17,2.46,.25,3.69Z"/>
  <path class="cls-7" d="M185.22,140.24c.03,4.22-1.38,8.14-2.78,12.05-.53,1.47-1.58,2.08-3.19,1.67-.87-.22-1.78-.36-2.63-.63-2.28-.72-3.61-1.99-3.54-4.6,.12-4.85,1.9-9.1,4.51-13.09,1.06-1.63,3.2-1.96,4.57-1.37,1.29,.55,3.18,1.5,3.08,3.6-.04,.79,0,1.59,0,2.38Z"/>
  <path class="cls-7" d="M197.85,154c-2.53-.19-4.36-1.77-5.79-3.76-2.46-3.45-3.81-7.38-4.94-11.39-.37-1.31,.14-1.48,1.39-1.25,2.25,.42,4.56,.4,6.77-.19,1.7-.45,2.44,.2,3.13,1.59,1.62,3.27,2.87,6.67,3.78,10.18,.84,3.27-.63,4.93-4.33,4.83Z"/>
  <path class="cls-5" d="M223.09,101.13c-2.19,3.4-3.62,7.27-6.76,10.07-2.87-.42-5.71-1.1-8.63-1-2.9,.1-5.79,.3-9.17,.49,2.97-4.91,6.81-8.06,12.37-9.17,4.05-.81,8.11-.84,12.19-.38Z"/>
  <path class="cls-7" d="M95.58,137.24c-.01,6.01-7.14,14.31-12.87,15.28-1.86,.32-1.95-.16-1.52-1.71,1.37-5.02,4.06-9.5,5.92-14.32,.56-1.45,6.82-2.46,7.97-1.41,.67,.61,.39,1.48,.51,2.16Z"/>
  <path class="cls-7" d="M108.69,145.65c-.7,1.45,.57,2.4,1.09,3.45,.76,1.53,.31,2.19-1.11,2.82-2.89,1.28-5.32,.87-7.28-1.58-3.26-4.08-3.94-9-4.63-13.9-.21-1.5,.88-1,1.58-.88,2.28,.39,4.46,1.07,6.5,2.14v-.03c-.76,.84-.6,1.39,.55,1.61h0c-.01,.19-.03,.38-.04,.58l.6-.03-.02-.03c-.7,.82-.61,1.39,.55,1.6h0c-.54,.71-.31,1.03,.54,1.06,0,0,.01,.01,.01,.01,.01,.38,.02,.75,.04,1.13,0,0,0-.06,0-.06,.16,.67,.39,1.31,.95,1.77,.09,.34,.17,.7,.65,.35h0Z"/>
  <path class="cls-7" d="M203.53,148.35c.18-3.2,.97-6.27,2.08-9.29,.52-1.43,1.07-1.35,2.06-.49,1.16,1,2.39,1.91,3.58,2.87,3.16,2.55,3.23,2.83,1.85,6.71-.24,.67-.44,1.35-.74,1.99-.79,1.68-.47,4.43-3.72,3.84-3.79-.69-5.26-2.33-5.11-5.64Z"/>
  <path class="cls-7" d="M236.68,162.99c1.06-.52,1.62-.03,2.19,.4,4.21,3.21,8.42,6.42,12.62,9.63,.64,.49,1.42,.92,1.57,1.77,.29,1.68,1.41,3.46,.13,5.04-.83,1.02-5.07,.28-6.68-1-2.75-2.19-4.33-5.19-5.86-8.21-1.27-2.51-2.03-5.26-3.96-7.64Z"/>
  <path class="cls-7" d="M113.6,111.97c-1.28,.11-2.55,.22-3.83,.32-.21-1.49-1.4-1.19-2.31-1.03-2.05,.35-4.13,.7-6.09,1.35-1.65,.55-3.11,.57-5.23-.53,9.62-5.09,19.51-5.93,30.41-5.48-2.87,2.39-3.62,6.67-8.29,4.95-.27-.06-.53-.12-.8-.18-1.37-.3-2.72-.47-3.87,.6Z"/>
  <path class="cls-7" d="M90.61,111.4c-.54-.08-1.09-.15-1.63-.23-3.59-.96-7.29-1-10.96-.98-2.29,.01-4.69,.03-6.76,1.31-.93,.37-1.76,.31-2.54-.65,4.21-2.75,8.93-3.98,13.78-4.71,4.32-.66,8.71-1.01,12.97,.56,.68,.25,1.35,.53,2,.85,1.5,.76,1.88,1.32,.06,2.44-1.98,1.22-3.78,2.4-6.23,1.58-.23-.06-.45-.11-.68-.17Z"/>
  <path class="cls-7" d="M212.94,99.28c-3.2,1.16-6.29,1.72-8.84,3.52-.73,.52-1.17-.1-1.66-.44-2.71-1.88-5.77-2.46-9.04-2.39-.8,.02-2.07,.75-2.33-.42-.24-1.08,.37-2.17,1.57-2.82,2.94-1.59,6.07-2.34,9.42-2.17,4.07,.21,7.48,1.92,10.88,4.71Z"/>
  <path class="cls-7" d="M180.59,122.51c-1.4,3.77-.6,6.97,.86,10.15-2.57,.79-5,1.42-7.57,1.48-2.04,.05-2.91-.81-2.95-2.85-.07-3.78,2.29-5.76,5.34-7.26,1.19-.58,2.52-.89,4.32-1.51Z"/>
  <path class="cls-3" d="M169.48,97.84c-1.27,.66-2.82,1.06-3.77,2.02-2.2,2.24-3.67,1.14-5.26-.59-1.73-1.88-3.54-3.7-5.94-6.19,4.04,.58,7.29-1.07,10.51,.55,1.4,.98,2.54,2.36,4.37,2.68h0c.03,.51,.06,1.03,.09,1.54Z"/>
  <path class="cls-7" d="M90.56,168.17c-2.61-1.68-5.03-3.17-7.88-3.77-.99-.21-1.09-.98-1.22-1.82-.34-2.18-.82-4.34-1.2-6.51-.12-.72-1.16-1.77,.53-2.01,1-.14,2.11-1.01,2.71,.89,1.1,3.48,3.5,6.33,5.42,9.41,.68,1.09,1.54,2.15,1.65,3.82Z"/>
  <path class="cls-7" d="M124.02,179.67c-3.24-.68-6.63-.18-9.83-1.15,.01-.81,.02-1.61,.03-2.42,.4-.72,.47-1.48,.35-2.27,.59-1.23-.89-3.38,1.75-3.71h0c-.15,.41,0,.74,.42,.73,.41-.01,.56-.37,.44-.77h-.08c-1.07,1.22,.25,1.62,.86,2.22,2.29,2.25,4.82,4.31,6.05,7.37Z"/>
  <path class="cls-7" d="M92.06,153.41c-1.04,.06-1.9-.29-2.39-1.06-.53-.84,.24-1.51,.74-2.07,.82-.93,1.7-1.83,2.67-2.61,3.63-2.91,3.71-2.81,5.91,1.16,.87,1.57,.66,2.29-1.04,2.78-1.47,.43-2.89,.99-4.34,1.46-.51,.17-1.06,.24-1.54,.34Z"/>
  <path class="cls-7" d="M187.73,145.09c1.41,2.1,2.06,4.36,3.61,6.1,.56,.63,.5,1.07-.31,1.39-2.17,.86-4.32,1.75-6.51,2.56-.66,.24-1.48-.05-1.2-.86,1.12-3.15,1.37-6.72,4.4-9.18Z"/>
  <path class="cls-7" d="M160.68,151.33c-.16,.23-.26,.53-.46,.63-2.2,1.06-4.39,2.15-6.81,2.65-.78,.16-1.28-.14-1.04-1,.75-2.64,1.34-5.34,2.92-7.67,.97-1.43,1.73-1.28,2.35,.34,.7,1.83,1.76,3.48,3.03,5.05Z"/>
  <path class="cls-7" d="M130.13,150.78c-.15,.29-.21,.62-.39,.71-2.21,1.04-4.37,2.2-6.82,2.61-.87,.15-1.21-.32-1.02-1.07,.69-2.65,1.35-5.33,2.96-7.64,.7-1.01,1.49-1.36,2.09,.15,.76,1.9,1.83,3.65,3.18,5.25Z"/>
  <path class="cls-7" d="M212.61,153.63c.86-2.22,1.64-4.47,2.59-6.66,.62-1.41,1.64-1.61,2.58-.22,1,1.47,1.85,3.03,2.85,4.49,.68,1-.08,1.26-.73,1.53-1.83,.76-3.68,1.49-5.54,2.18-1.21,.45-2,.25-1.76-1.32Z"/>
  <path class="cls-8" d="M131.68,165.43c-4.63-2.93-3.51-7.18-3.39-11.1,.05-1.61,1.8-2.01,3.03-2.03,1.15-.02,.96,1.23,.83,2.1-.53,3.63-.78,7.27-.47,11.03Z"/>
  <path class="cls-7" d="M104.85,137.7c1.73-2.52,4.38-2.03,7.07-2.26-.35,1.44-.64,2.61-.93,3.78-.61,1.94-1.16,3.89-.63,5.95-.22,.3-.44,.6-.66,.9-.16-.15-.32-.31-.48-.46-.17,.01-.35,.03-.52,.04,0,0,0,0,0,0,.64-.35,.19-.7,0-1.06-.36-.72-.73-1.45-1.09-2.17-.18,.02-.37,.03-.55,.05,0,0-.01-.01-.01-.01,.38-.18,.45-.43,.26-.8-.19-.37-.43-.47-.8-.25,0,0,0,0,0,0,.72-.83,.21-1.26-.55-1.6,0,0,.02,.03,.02,.03,.12-.48,.15-.86-.56-.55,0,0,0,0,0,0,.75-.84,.13-1.23-.56-1.61v.03Z"/>
  <path class="cls-8" d="M100.3,164.56c-1.28-1.71-2.24-2.6-2.14-4.23,.11-1.75-.39-3.5-1.11-5.12-.54-1.22-.44-2.01,.98-2.38,1.14-.3,2.17-1.62,3.48-.57,1.3,1.04,.07,2.14-.2,3.13-.76,2.75-1.03,5.53-1.01,9.18Z"/>
  <path class="cls-7" d="M182.46,119.58c-2.12,2.58-5.75,1.89-8.18,3.87-1.24-3.57-1.25-3.59,1.85-5.2,1.34-.7,2.55-1.74,4.21-1.72,0,0,0-.06,0-.06,0,.67,.57,.82,1.02,1.07,.33,.7,1.63,.9,1.09,2.03Z"/>
  <path class="cls-7" d="M81.35,137.18c1.29-.6,2.54-1.31,4.31-1.01-.81,3.75-3.54,6.65-4.45,10.69-.45-.88-.67-1.33-.9-1.78-.12-1.58-.72-2.97-1.71-4.21,.02-.3,.05-.59,.07-.89,.89-.93,1.78-1.86,2.68-2.79Z"/>
  <path class="cls-8" d="M223,165.98c-4.3-2.84-3.01-7.17-3.87-10.76-.35-1.44,1.62-1.81,2.69-1.99,1.55-.26,1.25,1.15,1.18,2.05-.26,3.51-.5,7.02,0,10.71Z"/>
  <path class="cls-8" d="M193.05,166.63c-1.85-2.25-3.29-3.78-2.62-6.36,.33-1.27-.12-2.81-.5-4.16-.38-1.35,.14-2,1.32-2.39,.65-.22,1.22-.91,2.01-.45,.96,.57,.45,1.38,.35,2.13-.46,3.5-.83,7.01-.56,11.22Z"/>
  <path class="cls-7" d="M172.18,145.67c-1.15-2.78-1.84-4.8-2.8-6.68-.64-1.26-.5-1.92,.85-2.43,1.79-.66,3.54-1.38,5.75-.93-1.51,3.05-3.05,5.99-3.8,10.04Z"/>
  <path class="cls-7" d="M145.08,134.95c-1.79,3.14-3.12,6.17-4.06,9.99-1.17-2.75-2.11-4.97-3.06-7.2-.26-.6-.05-.95,.56-1.23,1.95-.91,3.93-1.65,6.56-1.57Z"/>
  <path class="cls-7" d="M202.45,145.3c-.99-2.3-1.85-4.31-2.73-6.3-.45-1.01,.12-1.54,.97-1.8,1.31-.4,2.53-1.78,4.01-.83,1.03,.66,.05,1.57-.19,2.35-.64,2.08-1.3,4.15-2.06,6.58Z"/>
  <path class="cls-13" d="M179.18,114.77c3.39-2.08,6.98-3.7,11-4.25,1.64,.93,1.19,2.52,1.35,3.93-1.7,1.03-3.41,2.07-5.11,3.1-.21-.2-.41-.4-.62-.61,.82-.96,1.96-1.51,2.93-2.27,.49-.38,1.99-.33,1.25-1.49-.49-.78-1.34-1.42-2.54-.9-1.4,.6-2.85,1.1-4.28,1.64-1.03,.35-2.08,.65-2.87,1.46-.37-.21-.74-.41-1.11-.62Z"/>
  <path class="cls-14" d="M71.26,111.5c2.08-1.28,4.47-1.3,6.76-1.31,3.67-.02,7.37,.02,10.96,.98,0,.34-.01,.68-.02,1.02-5.65-.48-11.3-1.22-16.95,.02-.25-.24-.51-.48-.76-.71Z"/>
  <path class="cls-8" d="M161.79,165.01c-1.44-1.36-2.01-2.4-1.84-4,.2-1.9-.07-3.85-.19-5.77-.06-.89-.3-1.78,.89-2.18,.56-.19,1.04-.73,1.69-.12,.75,.7,.39,1.46,.24,2.21-.62,3.11-.72,6.26-.79,9.86Z"/>
  <path class="cls-8" d="M158.88,161.04c-1.92-1.97-3.49-3.58-5.13-5.26,1.44-.49,2.95-1,4.53-1.53,.6,2.12,.75,4.18,.6,6.79Z"/>
  <path class="cls-8" d="M148.63,171.15c-.09-.02-.18-.05-.26-.07-4.37-1.11-4.94-3.97-3.43-8.18,1.07,3.1,3.3,5.25,3.66,8.3,0,0,.03-.06,.03-.06Z"/>
  <path class="cls-3" d="M183.16,113.93c1.43-.54,2.88-1.04,4.28-1.64,1.2-.51,2.05,.12,2.54,.9,.74,1.16-.76,1.11-1.25,1.49-.97,.76-2.12,1.31-2.93,2.27-.15,.03-.29,.06-.44,.08-.15-.15-.3-.3-.45-.45,.84-.99-.2-1.35-.68-1.91-.36-.25-.71-.5-1.07-.75Z"/>
  <path class="cls-8" d="M184.44,156.49c4.53-1.68,5.26-.93,4.62,4.83-.89-.94-1.57-1.67-2.27-2.39-.73-.76-1.46-1.51-2.35-2.44Z"/>
  <path class="cls-8" d="M117.11,170.08s.08,0,.08,0c-.29,.01-.57,.03-.86,.04,0,0,0,0,0,0,.2-1.25-1.55-1.1-1.63-2.15q.11-2.74-1.12-2.93s-.06,.03-.06,.03c1.75,.49,.85-1.08,1.47-1.73,.92,1.82,1.83,3.6,2.73,5.38,.33,.66,.75,1.39-.6,1.36Z"/>
  <path class="cls-8" d="M122.82,155.37c1.65-.23,3.16-1.73,4.04-.79,.9,.97,.35,2.82,.16,4.29-1.36,.19-1.54-.93-2.16-1.45-.61-.51-1.13-1.12-2.04-2.05Z"/>
  <path class="cls-8" d="M92.42,155.17c1.48-1.57,2.81-1.58,3.46,.07,.54,1.38,.85,2.84,1.31,4.4-1.45-.4-1.79-1.69-2.74-2.3-.67-.72-1.35-1.45-2.02-2.17Z"/>
  <path class="cls-8" d="M218.55,160.67c-1.63-1.51-2.95-2.74-4.45-4.14,1.15-.72,2.66-1.72,3.35-1.08,1.25,1.15,1.16,3.06,1.1,5.21Z"/>
  <path class="cls-13" d="M110.36,145.17c-.52-2.06,.02-4.01,.63-5.95,.33,.02,.67,.04,1,.07-.44,1.94-.31,3.99-1.21,5.83-.14,.04-.28,.06-.42,.05Z"/>
  <path class="cls-10" d="M221.63,149.71c1.73,1.22,3.44,2.45,5.25,4.37-2.84-.68-4.47-2.04-5.59-4.04,.12-.11,.23-.22,.34-.33Z"/>
  <path class="cls-9" d="M165.68,93.59c-.38-1.31,.69-1.2,1.2-.86,1.55,1.05,3.05,2.19,4.38,3.49,.51,.5-.37,.49-.73,.59-.28-.38-.58-.7-1.13-.51,0,0,0,0,0,0-.83-1.43-1.99-2.44-3.72-2.71Z"/>
  <path class="cls-7" d="M77.36,136.56c1.11-.58,2.22-1.84,3.35-.02-1.27,.48-1.68,2.14-3.24,2.22-.27-.71,1.09-1.46-.04-2.16l-.07-.05Z"/>
  <path class="cls-8" d="M96.18,141.06c1.23,2.41,.9,3.8-2.07,4.02,.69-1.35,1.31-2.54,2.07-4.02Z"/>
  <path class="cls-13" d="M78.6,140.87c.99,1.24,1.59,2.64,1.71,4.21-.24,.24-.48,.47-.72,.71-.71-1.63-1.43-3.27-2.14-4.9,.38,0,.77-.01,1.15-.02Z"/>
  <path class="cls-8" d="M140.44,134.39c-1.21,.56-2.14,1.06-3.13,1.4-.16,.06-.87-.64-.82-.88,.28-1.16,1.64-.83,2.41-1.4,.15-.11,.83,.47,1.53,.88Z"/>
  <path class="cls-10" d="M183.16,113.93c.36,.25,.71,.5,1.07,.75-.9,.28-2.49-.05-1.67,1.77-.18,.14-.36,.28-.54,.42,.03,.09,.04,.18,0,.27-.5-.35-.81-1.18-1.67-.66,0,0,0,.06,0,.06,.65-.41-.07-.77-.05-1.15,.78-.81,1.84-1.11,2.87-1.46Z"/>
  <path class="cls-8" d="M86.11,122.7c-1.5,.36-2.2,1.6-3.34,.59-.18-.16-.21-.77-.05-.93,.95-.97,1.9-.4,3.39,.34Z"/>
  <path class="cls-8" d="M169.86,133.94c.71,.12,1.26,.52,1.07,.81-.52,.81-1.52,1.08-2.43,1.37-.53,.17-.98-.33-.91-.68,.25-1.32,1.86-.66,2.27-1.51Z"/>
  <path class="cls-8" d="M112.17,123.16c-.15-2.77,1.24-2.62,2.91-2.28-.47,1.31-1.78,1.33-2.91,2.28Z"/>
  <path class="cls-14" d="M77.47,138.77c1.56-.08,1.97-1.74,3.24-2.22,.21,.21,.43,.43,.64,.64-.89,.93-1.78,1.86-2.68,2.79-.4-.4-.8-.81-1.2-1.21Z"/>
  <path class="cls-12" d="M165.68,93.59c1.73,.26,2.89,1.28,3.72,2.71-1.83-.32-2.97-1.7-4.37-2.68,.22,0,.44-.02,.65-.03Z"/>
  <path class="cls-13" d="M92.42,155.17c.67,.72,1.35,1.45,2.02,2.17-.21,.23-.42,.45-.63,.68-.91-.93-1.82-1.85-2.72-2.78,.44-.03,.89-.05,1.33-.08Z"/>
  <path class="cls-11" d="M185.36,117.03c-.56,.72-1.11,1.47-2.24,.98-.19-.35-.38-.71-.57-1.06,.75-.32,1.68,.42,2.36-.37,.15,.15,.3,.3,.45,.45Z"/>
  <path class="cls-12" d="M156.08,142.24c-.2,.17-.43,.52-.72,.59-.43,.1-.59-.29-.59-.66,0-.39,.24-.65,.65-.66,.39,0,.66,.18,.66,.73Z"/>
  <path class="cls-13" d="M182.55,116.95c.19,.35,.38,.71,.57,1.06-.03,.6,.11,1.26-.66,1.57,.54-1.13-.76-1.34-1.09-2.03,.22-.14,.43-.28,.65-.42,.03-.09,.02-.18,0-.27,.19,.04,.39,.07,.58,.11,0,0-.04-.02-.04-.02Z"/>
  <path class="cls-12" d="M169.39,96.29c.55-.19,.85,.13,1.13,.51-.27,.42-.44,.94-1.05,1.04-.03-.52-.06-1.03-.09-1.55Z"/>
  <path class="cls-10" d="M160.64,101.59c-.67,.18-.85-.32-1.09-.74,0-.28,.01-.57,.02-.85,.63,.36,1.54,.53,1.08,1.58Z"/>
  <path class="cls-6" d="M159.56,100c0,.28-.01,.56-.02,.85-.35-.3-1.21,.03-1.09-.85,.37-.76,.74-.28,1.11,0Z"/>
  <path class="cls-13" d="M203.26,174.86c.07,.46,0,.88-.37,1.21-.2-.48-.4-.95-.59-1.43,0,0-.02-.02-.02-.02,.33,.08,.66,.16,.99,.23Z"/>
  <path class="cls-13" d="M203.73,168.42c.03-.22,.06-.44,.09-.65-.03,.22-.06,.44-.09,.65Z"/>
  <path class="cls-6" d="M153.08,178.84c-.12-.28-.44-.57-.06-.85,.39-.28,.58,.09,.8,.31-.25,.18-.5,.36-.75,.54Z"/>
  <path class="cls-13" d="M117.47,111.37c.27,.06,.53,.12,.8,.18-.27-.06-.53-.12-.8-.18Z"/>
  <path class="cls-12" d="M90.61,111.4c.23,.06,.45,.11,.68,.17-.23-.06-.45-.11-.68-.17Z"/>
  <path class="cls-13" d="M109.21,145.61c.16,.15,.32,.31,.48,.46-.16-.15-.32-.31-.48-.46Z"/>
  <path class="cls-13" d="M204.1,171.22c-.05,.19-.09,.38-.14,.57,.05-.19,.09-.38,.14-.57Z"/>
  <path class="cls-11" d="M148.59,171.21c.14-.22,.28-.22,.4,0,.03,.07,0,.16,0,.25-.12-.1-.24-.2-.36-.31,0,0-.03,.06-.03,.06Z"/>
  <path class="cls-13" d="M69.86,170.52c.07,.2,.13,.39,.2,.59-.07-.2-.13-.39-.2-.59Z"/>
  <path class="cls-13" d="M111.22,147.8c.02,.17,.03,.34,.05,.51-.07-.12-.15-.23-.19-.35-.01-.03,.09-.1,.14-.16Z"/>
  <path class="cls-10" d="M221.28,150.04c-.08-.19-.16-.38-.24-.57,.2,.08,.39,.16,.59,.24-.11,.11-.23,.22-.34,.33Z"/>
  <path class="cls-7" d="M311.16,158.93c.21-.67,.5-1.33,.61-2.01,.29-1.78,.98-2.62,3.05-1.9,1.4,.49,2.91-.03,4.18-.73,1.46-.82,1.87-.23,2.1,1.08,.75,4.3-.19,8.43-1.47,12.48-1.03,3.27-2.37,6.45-3.53,9.68-.79,2.2-2.67,3.08-4.73,3.53-2.79,.61-4.01-.53-3.81-3.3,.12-1.75,.3-3.5,.45-5.26,.08-.26,.16-.53,.23-.79,.23-1.2,.47-2.4,.7-3.59,.74-3.06,1.48-6.12,2.22-9.18Z"/>
  <path class="cls-7" d="M230.98,133.09c-.3-4.06,1.02-6.72,4.8-8.27,6.37-2.61,12.89-2.81,19.19,.26,3.85,1.88,5.1,5.32,3.59,8.74-1.34,.51-2.75,.43-4.03-.02-6.45-2.26-12.86-1.72-19.29,.06-1.52,.42-3.06,.63-4.27-.76Z"/>
  <path class="cls-7" d="M260.38,131.67c.88-5.06,4.25-7.56,9.22-8.24,6.35-.87,12.53-.96,17.17,4.49,1.2,1.41,1.95,2.93,1.85,4.79-.19,.29-.39,.59-.58,.88-1.46,.86-3.05,.64-4.47,.16-5.67-1.88-11.31-1.95-17.02-.17-1.62,.5-3.34,.82-5.07,.36-.34-.54-.69-1.08-1.03-1.63,.03-.07,.08-.15,.07-.22-.03-.15-.09-.29-.14-.43Z"/>
  <path class="cls-7" d="M296.72,134.47c-.47-1.67-1.56-.39-2.33-.4-1.41-.03-3.12,.68-4.02-.74-.93-1.48-.62-3.16,.29-4.73,1.03-1.79,2.57-3.03,4.5-3.6,4.49-1.33,9-2.79,13.82-1.8,1.58,.63,3.2,1.19,4.73,1.91,1.68,.79,2.89,2.1,3.64,3.76,1.49,3.3,.24,5.18-3.42,5.24-5.21-1.65-10.46-2.82-15.87-1.01-.53,.18-2.23-.21-1.39,1.42l.05-.04Z"/>
  <path class="cls-7" d="M246.05,133.41c3.11,.11,5.69,1.04,8.35,1.57,1.06,.21,1.41,1.03,1.84,1.79,2.22,3.86,3.8,7.97,4.94,12.25,.93,3.49-1.35,5.69-5.07,4.86-1.34-.3-2.57-.89-3.5-1.92-4.53-5.03-6.84-11.02-7.98-17.5-.29-1.64,1.02-.98,1.41-1.04Z"/>
  <path class="cls-7" d="M306.23,175.53c0,.44,.09,.9-.02,1.32-.28,1.12,.74,2.71-.76,3.32-1.44,.59-2.98-.19-4.03-1.13-4.98-4.47-7.37-10.15-7.62-16.67-.07-1.84,.38-3.69,.45-5.54,.06-1.5,.48-1.93,2.12-1.53,3.23,.8,5.46,2.42,6.65,5.56,1.8,4.75,3.17,9.56,3.19,14.66Z"/>
  <path class="cls-7" d="M289.7,145.93c.24,1.03,.47,2.05,.72,3.08,.89,3.61-1.41,5.71-5.23,4.8-2.6-.62-4.19-2.45-5.46-4.48-2.76-4.41-4.2-9.31-5.15-14.35-.13-.69-.56-1.89,.85-1.63,3.63,.66,7.56,.52,10.45,3.36,0,0,.08-.04,.08-.04-.03,1.35,.42,2.46,1.69,3.15,0,0,0,0,0,0-.55,.38-.08,.71,.05,1.05,.67,1.69,1.33,3.38,2,5.07Z"/>
  <path class="cls-7" d="M341.67,159.94c-.31,4.84-1.13,9.26-2.72,13.51-.84,2.25-2.54,3.86-4.86,4.75-2.89,1.11-4.17,.49-5.05-2.36-.16-.51-.2-1.1-.52-1.5-2.26-2.86-1.42-4.68,1.43-6.86,4.66-3.57,6.02-9,7.01-14.44,.1-.57-.33-1.38,.43-1.65,.8-.28,1.3,.44,1.79,.94,2.16,2.24,2.18,5.12,2.49,7.6Z"/>
  <path class="cls-7" d="M304.82,140.78c.17-2.38-.92-4.53-1.3-6.8,.58-1.12,1.57-.61,2.37-.46,2.63,.51,5.25,1.11,7.87,1.68l.15-.07s-.16,.05-.16,.05c.21,.19,.43,.38,.64,.56,1.94,4.34,4.31,8.51,5.21,13.24,.24,1.26,1.2,2.69-.06,3.69-1.49,1.19-3.39,1.69-5.37,1.1-2.71-.82-4.35-2.83-5.57-5.13-1.35-2.55-2.5-5.2-3.74-7.81l-.05-.05Z"/>
  <path class="cls-7" d="M286.57,178.1c-1.28-.54-2.56-1.09-3.84-1.63-1.84-6.94-.75-13.84,.27-20.74,.17-1.16,.98-1.11,1.82-.86,1.67,.5,3.33,.29,4.76-.51,1.73-.97,2.18-.21,2.43,1.25,1.41,8.23-.3,15.75-5.44,22.49Z"/>
  <path class="cls-7" d="M329.86,134.96c3.05-.18,5.3-2.06,7.96-3.68,.51,1.88,.28,3.53-.28,5.17-1.74,5.08-3.48,10.16-8.24,13.5-.37,.26-.71,.55-1.09,.79-1.86,1.15-4.05,2.51-6.04,1.58-1.65-.78-.82-3.2-1.06-4.89,.2-.85,.3-1.73,.61-2.54,1.59-4.16,1.96-9.3,8.14-9.92Z"/>
  <path class="cls-8" d="M272.79,158.55c3.95,5.14,7.26,10.58,8.42,17.02,.14,.78,.24,1.57,.27,2.36,.06,2.01-1.23,2.46-2.59,1.44-3.35-2.51-7.02-4.71-8.57-8.96-1.06-2.9-2.4-5.73-4.2-8.31-1.33-1.91-1.02-4.06-.87-6.17,.07-.98,.54-.93,1.45-.86,2.01,.17,3.63,.94,5,2.31,.37,.39,.73,.78,1.1,1.17Z"/>
  <path class="cls-7" d="M318.91,133.86c-.03-1.75-.71-3.92,.11-5.14,.69-1.01,3.18-.76,4.78-1.33,4.19-1.51,8.19-3.37,10.45-7.46,.57-1.04,1.17-.73,1.97-.28,3.97,2.28,4.27,7.74,.54,10.82-2.04,1.68-4.4,2.77-6.96,3.49-3.64,.73-7.27,.67-10.89-.12Z"/>
  <path class="cls-7" d="M273.55,139.29c.04,4.12-.96,8.04-2.43,11.87-.52,1.35-.7,3.06-2.89,2.91-2.76-.19-5.23-1.84-5.46-3.89-.47-4.26,1.03-8.13,2.58-12.02,1.03-2.57,2.67-3.93,5.45-4.42,1.81-.32,2.55,.07,2.56,1.85,0,1.23,.12,2.47,.18,3.7Z"/>
  <path class="cls-7" d="M296.72,134.47s-.05,.04-.05,.04c1.98,.21,3.75-1.54,5.81-.55,.62,5.94,.17,11.75-2.17,17.36-.65,1.57-1.14,3.22-3.25,2.72-2.14-.51-4.63-.96-4.98-3.73-.18-1.47,.01-2.99,.04-4.48,.86-3.22,2.39-6.18,3.72-9.23,.05-.81,1.26-1.16,.9-2.13Z"/>
  <path class="cls-7" d="M209.42,125.67l-.05-.75c1.09-.88,2.17-1.77,3.26-2.65,.5,.03,.99,.06,1.49,.09,3.63-.29,7.21-.23,10.58,1.39,4.28,2.06,6.06,6.77,3.84,10.23-4.61,.07-8.8-.85-12.5-3.89-2.02-1.66-3.57-4.17-6.63-4.42Z"/>
  <path class="cls-7" d="M241.49,150.2c-2.51-2.02-4.83-3.86-7.11-5.73-.32-.26-.76-.74-.7-1.03,.63-2.87,1.72-5.61,3.33-8.06,1-1.53,3.13-1.17,4.73-1.72,.95-.33,1.56-.06,1.69,1.03,.6,5.23,.35,10.34-1.94,15.51Z"/>
  <path class="cls-7" d="M321.49,166.13c3.44,3.4,5.69,6.92,6.64,11.17,.15,.67,.35,1.29,.08,2.04-1.24,3.52-2.19,3.97-5.78,2.53-5.77-2.31-5.81-2.4-3.7-7.9,.47-1.24,.94-2.47,1.38-3.72,.43-1.23,.83-2.47,1.37-4.12Z"/>
  <path class="cls-7" d="M329.69,164.42c.19,2.23-1.4,3.28-3.02,4.32-.42,.27-.81,.21-1.25-.05-1.93-1.15-3.56-4.47-3.16-6.72,.34-1.92,.67-3.87,.14-5.76-.55-1.93,.04-2.36,2.02-2.79,2.21-.48,2.81,.08,3.29,2,.74,2.99,1.64,5.93,1.99,9Z"/>
  <path class="cls-7" d="M262.76,166.67c-2.85-2.27-5.46-4.15-7.81-6.3-1.48-1.36-.59-3.36-.64-5.07-.02-.76,.79-.53,1.28-.39,1.78,.5,3.45,.17,4.99-.67,1.45-.8,1.81-.2,2.11,1.1,.82,3.59,.76,7.16,.07,11.33Z"/>
  <path class="cls-7" d="M331.75,163.81c-1.92-1.96-1.43-4.56-2.39-6.68-1.41-3.11-1.62-5.8,2.35-7.35,.74-.29,1.21-1.26,1.8-1.9,3.42,2.56,3.19,7.03-1.76,15.94Z"/>
  <path class="cls-7" d="M275.01,155.77c.08-1.45-.85-.97-1.59-.76-1.53,.43-2.1-.11-1.59-1.55,.84-2.4,1.32-4.94,2.82-7.08,.74-1.06,1.6-1.54,2.23,.15,.06,.16,.17,.31,.26,.46,.94,1.59,2.73,3.27,2.59,4.76-.17,1.78-3.03,1.67-4.56,2.67-.55,.36-1.12,.75-.24,1.37,0,0,.07-.02,.07-.02Z"/>
  <path class="cls-7" d="M309.29,151.85c-.19,.21-.33,.46-.54,.58-2.13,1.17-4.37,2.08-6.74,2.69-.83,.21-1.31-.19-1.08-.96,.81-2.68,1.37-5.47,3.04-7.83,.87-1.23,1.54-1.22,2.22,.26,.7,1.51,1.63,2.92,2.48,4.37,.17,.3,.4,.57,.62,.89Z"/>
  <path class="cls-7" d="M307.96,167.98c-.22,.73-.45,1.46-.76,2.49-2.15-5.23,.08-10.16-.16-15.08-.08-1.58,2.12-2.26,3.29-2.11,1.81,.23,.55,1.8,.48,2.8-.04,.52-.18,1.03-.27,1.55-1.3,3.35-2.05,6.82-2.58,10.35Z"/>
  <path class="cls-8" d="M320.5,145.13c-.4,.34-.74,.08-.84-.22-.99-2.91-2.14-5.75-3.74-8.39-.61-1.01,.1-1.18,.74-1.5,2.53-.39,4.84,.94,7.62,.59-1.52,3.34-3.4,6.16-3.78,9.52Z"/>
  <path class="cls-7" d="M250.85,151.96c-1.22,1.25-2.85,1.7-4.39,1.79-1.9,.11-3.67-2.72-3.04-4.47,.24-.66,.51-1.32,.84-1.94,.41-.77,.83-1.8,1.73-1.9,1.14-.13,1,1.2,1.49,1.85,.89,1.17,1.73,2.38,2.59,3.57,.25,.35,.5,.7,.78,1.1Z"/>
  <path class="cls-8" d="M280.52,168.66c-1.26-2.15-1.98-3.54-1.84-5.47,.16-2.26-.29-4.57-.54-6.85-.16-1.54,1.35-3.3,2.86-3.18,.95,.07,1.21,.75,1.06,1.52-.87,4.38-1.27,8.81-1.54,13.99Z"/>
  <path class="cls-8" d="M290.74,135.89c1.41-.4,2.85-.58,4.31-.36-1.16,2.85-3,5.44-3.52,8.54-.45,.28,.1,1.59-1.15,1.05-.4-1.93-1.1-3.75-2.17-5.43l-.56,.12s0,0,0,0c1.19-.65-.7-1.94,.57-2.57,.84-.45,1.67-.9,2.51-1.35Z"/>
  <path class="cls-7" d="M261.31,144.98c-.49-1.21-.96-2.42-1.47-3.62-1.61-3.84-1.08-4.81,3.17-5.79,.59-.14,1.22-.13,2.27-.23-1.35,3.38-2.87,6.41-3.97,9.63Z"/>
  <path class="cls-13" d="M320.5,145.13c.38-3.36,2.26-6.18,3.78-9.52-2.78,.35-5.09-.98-7.62-.59,.48-.87,1.82-.2,2.25-1.16,3.62,.78,7.25,.84,10.89,.12,.02,.33,.04,.65,.06,.98-6.18,.62-6.55,5.76-8.14,9.92-.31,.81-.41,1.69-.61,2.54-.21-.76,.23-1.68-.6-2.29Z"/>
  <path class="cls-8" d="M232.05,142.55c-1.6-.84-2.6-2.13-3.16-3.78-.48-1.41,.88-1.58,1.6-1.96,1.32-.7,3.06-2.03,4.19-1.15,1.18,.92-.68,2.35-.95,3.63-.18,.85-.62,1.64-.9,2.46-.14,.41-.14,.88-.77,.8Z"/>
  <path class="cls-13" d="M302.47,133.96c-2.05-.99-3.83,.77-5.81,.55-.84-1.64,.86-1.25,1.39-1.42,5.42-1.81,10.67-.64,15.87,1.01-.06,.36-.11,.73-.17,1.09-2.62-.57-5.24-1.17-7.87-1.68-.8-.15-1.78-.66-2.37,.46-.35,0-.7,0-1.05,0Z"/>
  <path class="cls-8" d="M275.01,155.77s-.07,.02-.07,.02c1.03-.72,1.9-.79,2.11,.67,.3,2.04,.49,4.1,.8,6.7-1.99-1.88-2.71-3.99-4.42-5.3-.16-.18-.32-.36-.48-.55-.38-1.85,1.25-1.19,2.06-1.55Z"/>
  <path class="cls-8" d="M264.7,162.32c1.9,2.23,2.84,4.52,3.75,6.82,.19,.47,.33,1.09-.27,1.4-.46,.23-.82-.21-1.2-.45-3.23-2.1-3.43-2.71-2.28-7.76Z"/>
  <path class="cls-8" d="M253.1,158.45c-1.49-.19-2.06-1.19-2.9-1.78-.68-.49-1.91-1-1.33-1.94,.62-1,1.92-1.67,3.2-1.49,1.1,.15,1.05,1.23,1.02,2.13-.02,.96,0,1.92,0,3.08Z"/>
  <path class="cls-8" d="M305,162.24c-.85-1.6-1.72-3.2-2.55-4.82-.18-.35-.62-.86-.05-1.12,.89-.41,1.84-.78,2.8-.89,.77-.09,.57,.7,.57,1.18,.01,1.87,0,3.74,0,5.62l-.78,.03Z"/>
  <path class="cls-13" d="M307.96,167.98c.53-3.53,1.28-7,2.58-10.35,.09,.49,.1,1.01,.62,1.3-.74,3.06-1.48,6.12-2.22,9.18-.33-.05-.65-.09-.98-.14Z"/>
  <path class="cls-13" d="M291.53,144.08c.52-3.1,2.36-5.69,3.52-8.54,.25,.36,.51,.72,.76,1.07-1.32,3.04-2.85,6.01-3.72,9.23-.14-.6,.08-1.31-.57-1.76Z"/>
  <path class="cls-8" d="M222.53,136.11c-.15-1.18-.22-1.96,1.56-1.33,2.21,.78,3.08,1.99,2.26,3.95l.03,.04c-.55-1.16-1.41-1.93-2.76-2.13h-.01c-.07-.76-.36-1.09-1.1-.54h.02Z"/>
  <path class="cls-13" d="M288.21,139.69c1.07,1.68,1.77,3.5,2.17,5.43-.23,.27-.45,.54-.68,.81-.67-1.69-1.33-3.38-2-5.07,.48-.26,.47-.73,.51-1.17Z"/>
  <path class="cls-10" d="M288.76,134.1c1,.06,1.75,.25,.79,1.37-.64-.01-1.08,.34-1.46,.79-.6,.68-1.51-.18-2.13,.41,0,0-.08,.04-.08,.04,.46-1.03,1.2-1.79,2.32-2.16,.19-.15,.37-.3,.56-.44Z"/>
  <path class="cls-8" d="M229.16,134.54c.49-.19,.9-.67,1.51-.36,.99,2.11-1.46,1.47-2.06,2.35-.33,.49-1.06,.11-1.19-.48-.29-1.38,1.43-.71,1.74-1.52Z"/>
  <path class="cls-10" d="M258.67,134.67c.7-.26,1.38-.86,2.16-.17,.14,1.02-.82,1.04-1.39,1.35-.7,.37-1.59,1.49-2.23,.19-.58-1.18,1.2-.66,1.46-1.37Z"/>
  <path class="cls-13" d="M294.13,171.27c-1.53-.76-2.38-1.76-1.13-3.64,.67,1.23,1.57,2.23,1.1,3.68l.03-.04Z"/>
  <path class="cls-10" d="M245.66,155.06c1.21,.82,2.42,1.64,3.63,2.45-.19,.15-.39,.3-.58,.45-.71-.2-1.43-.4-2.14-.6,0,0,.01,.01,.01,.01-.05-.93-.99-1.15-1.46-1.75,.18-.19,.36-.38,.54-.56Z"/>
  <path class="cls-10" d="M266.56,171.22c1.23,1,2.47,1.99,3.7,2.99-.16,.19-.32,.38-.48,.57-1.22-.97-2.44-1.94-3.66-2.9,.15-.22,.29-.43,.44-.65Z"/>
  <path class="cls-10" d="M235.96,147.35c1.14,.91,2.29,1.82,3.43,2.73-.2,.17-.39,.33-.59,.5-.33-.04-.66-.09-.99-.13,0,0,.01,0,.01,0,.07-.43-.14-.59-.56-.54,0,0,.01,.01,.01,.01,.05-.41-.2-.53-.56-.56,0,0,.04,.03,.04,.03-.43-.47-.85-.95-1.28-1.42,.16-.21,.32-.42,.48-.63Z"/>
  <path class="cls-10" d="M251.85,159.58c.97,.77,1.93,1.53,2.9,2.3-.22,.14-.43,.28-.65,.42-.5-.01-.92-.89-1.5-.15,0,0,0,0,0,0,.56-1.2-.97-1.24-1.19-2.01,.15-.18,.3-.37,.45-.55Z"/>
  <path class="cls-10" d="M249.3,157.51c.85,.69,1.7,1.38,2.55,2.07-.15,.18-.3,.37-.45,.55-.33-.04-.67-.08-1-.12,0,0,.02,.01,.02,.01-.12-.66-.35-1.11-1.11-.54,0,0,0,0,0,0,.58-.79-.47-.99-.6-1.53,.19-.15,.39-.3,.58-.45Z"/>
  <path class="cls-10" d="M227.12,140.38c1.14,.57,2.1,1.36,2.96,2.27-.21,.18-.41,.36-.62,.55-.32-.06-.64-.12-.95-.18,0,0,.02,.01,.02,.01-.13-.64-.37-1.07-1.11-.54,0,0,0,0,0,0,.59-.83-.48-.96-.67-1.47,.12-.21,.25-.43,.37-.64Z"/>
  <path class="cls-10" d="M217.81,132.95c.96,.76,1.93,1.53,2.89,2.29-.19,.18-.38,.36-.57,.55-.31-.07-.62-.14-.93-.2,0,0,.02,.02,.02,.02-.17-1.03-1.3-1.24-1.81-1.98,.13-.22,.26-.44,.39-.66Z"/>
  <path class="cls-10" d="M221.58,135.93c.32,.06,.63,.12,.95,.17,0,0-.02-.01-.02-.01,.13,.63,.37,1.06,1.1,.53,0,0,.01,0,.01,0-.78,.55,.57,.97,.09,1.5-.41,.04-.81,.07-1.22,.11,0,0,.01,.01,.01,.01-.07-.92-1.05-1.11-1.46-1.76,.18-.19,.37-.37,.55-.56Z"/>
  <path class="cls-10" d="M242.92,152.94c.91,.71,1.83,1.41,2.74,2.12-.18,.19-.36,.38-.54,.56-.41-.19-.76-.57-1.29-.38,0,0,0,0,0,0,.07-.43-.11-.61-.55-.53,0,0,.01,.01,.01,.01,.06-.66-.61-.83-.9-1.25,.18-.18,.35-.36,.53-.53Z"/>
  <path class="cls-10" d="M230.08,142.65c.92,.74,1.84,1.48,2.76,2.21-.22,.16-.44,.31-.66,.47-.91-.71-1.81-1.43-2.72-2.14,.21-.18,.41-.36,.62-.55Z"/>
  <path class="cls-10" d="M258.22,164.65c.82,.64,1.64,1.28,2.47,1.92-.19,.17-.37,.34-.56,.51-.32-.05-.65-.1-.97-.15,0,0,0,0,0,0-.03-.95-1.08-1.08-1.48-1.73,.18-.18,.36-.37,.54-.55Z"/>
  <path class="cls-10" d="M233.1,145.11c.95,.75,1.9,1.5,2.85,2.25-.16,.21-.32,.42-.48,.63-.31-.06-.63-.12-.94-.18h0c.1-.46-.17-.55-.56-.54,0,0,.02,.02,.02,.02-.4-.5-.8-1-1.21-1.51,.1-.22,.21-.45,.31-.67Z"/>
  <path class="cls-10" d="M279.58,181.64c.84,.64,1.69,1.29,2.53,1.93-.2,.15-.4,.31-.6,.46-.34-.04-.67-.07-1.01-.11h.01c.09-.45-.18-.55-.56-.54,0,0,.02,.02,.02,.02-.3-.42-.6-.83-.9-1.25,.17-.17,.34-.35,.5-.52Z"/>
  <path class="cls-10" d="M284.4,186c-.39,.04-.78,.08-1.17,.12,0,0,.02-.07,.02-.07-.07-1.09-1.38-1.17-1.74-2.03,.2-.15,.4-.31,.6-.46,.78,.79,2.24,.99,2.29,2.43Z"/>
  <path class="cls-10" d="M239.39,150.09c.72,.56,1.44,1.12,2.16,1.67-.21,.17-.42,.33-.63,.5-.49-.03-.86-.91-1.46-.2,0,0,0,0,0,0,.57-.82-.51-.95-.65-1.46,.2-.17,.39-.33,.59-.5Z"/>
  <path class="cls-10" d="M226.34,138.72c-.77,.76,.38,.9,.48,1.37-.22,.15-.44,.3-.65,.44-.49-.07-.91-.75-1.49-.18,0,0,.01,0,.01,0,.5-.56-.6-1.17,.07-1.72,.55-.22,1.01,.89,1.61,.11l-.03-.04Z"/>
  <path class="cls-10" d="M270.9,174.68c.62,.49,1.24,.98,1.86,1.47-.2,.16-.39,.33-.59,.49-.51-.03-.94-.82-1.52-.15,0,0,0,0,0,0,.7-.67-.2-.86-.4-1.26,.21-.18,.43-.37,.64-.55Z"/>
  <path class="cls-10" d="M273.57,176.85l1.9,1.46c-.2,.16-.4,.33-.6,.49-.5-.01-.87-.93-1.47-.18,0,0-.01-.01-.01,0,.63-.61-.17-.84-.36-1.23,.18-.18,.36-.36,.53-.54Z"/>
  <path class="cls-10" d="M215.58,131.14l1.85,1.5-.57,.48c-.31-.06-.63-.12-.94-.19,0,0,.02,.02,.02,.02-.31-.41-.62-.81-.93-1.22,.19-.2,.38-.39,.57-.59Z"/>
  <path class="cls-10" d="M262.15,167.76c.84,.34,1.45,.96,1.99,1.64-.24,.11-.49,.22-.73,.33-.61-.49-1.23-.97-1.85-1.46,.2-.17,.39-.34,.59-.52Z"/>
  <path class="cls-10" d="M212.83,129.02c.63,.48,1.26,.95,1.89,1.43-.19,.17-.38,.34-.57,.51-.32-.05-.64-.11-.97-.16,0,0,.02,.01,.02,.01,.09-.67-.62-.83-.88-1.27,.17-.17,.34-.34,.51-.52Z"/>
  <path class="cls-10" d="M276.87,179.48c.62,.48,1.24,.96,1.86,1.43-.18,.17-.36,.34-.55,.51l-.97-.16s.01,.01,.01,.01c.05-.64-.61-.84-.87-1.28,.17-.17,.34-.35,.51-.52Z"/>
  <path class="cls-10" d="M264.22,169.49c.66,.46,1.32,.93,1.97,1.39-.21,.16-.42,.32-.63,.48-.31-.07-.62-.13-.94-.2,0,0,.03,.02,.03,.02-.21-.33-.43-.66-.64-1,.07-.23,.14-.47,.21-.7Z"/>
  <path class="cls-13" d="M304.87,140.82c-.29,.42-.26,1.08-.88,1.25-.35,.09-.43-.2-.39-.48,.12-.67,.67-.74,1.22-.82,0,0,.05,.05,.05,.05Z"/>
  <path class="cls-13" d="M272.95,157.32c.16,.18,.32,.36,.48,.55-.21,.23-.42,.45-.64,.68-.37-.39-.73-.78-1.1-1.17,.42-.02,.84-.04,1.25-.06Z"/>
  <path class="cls-13" d="M303.56,144.25c.1,.12,.19,.23,.28,.34-.17,.1-.33,.2-.5,.3-.06-.14-.18-.29-.15-.41,.03-.1,.23-.15,.37-.23Z"/>
  <path class="cls-10" d="M256.09,163c.43,.31,.85,.62,1.28,.93-.17,.16-.34,.33-.51,.49-.43-.29-.85-.59-1.28-.88,.17-.18,.35-.36,.52-.54Z"/>
  <path class="cls-13" d="M288.76,134.1c-.19,.15-.37,.3-.56,.44-.06-.32-.11-.63-.17-.95,.19-.3,.39-.59,.58-.88,.05,.46,.1,.93,.15,1.39Z"/>
  <path class="cls-10" d="M211.78,128.15c.35,.29,.7,.59,1.04,.88-.17,.17-.34,.34-.51,.52-.3-.24-.61-.47-.91-.71,.13-.23,.25-.46,.38-.68Z"/>
  <path class="cls-10" d="M255,162.13c.36,.29,.72,.58,1.08,.87-.17,.18-.35,.36-.52,.54-.29-.26-.58-.52-.86-.78,.1-.21,.2-.42,.3-.63Z"/>
  <path class="cls-10" d="M260.69,166.57c.28,.23,.56,.46,.84,.7-.16,.19-.33,.37-.49,.56-.3-.25-.61-.5-.91-.75,.19-.17,.37-.34,.56-.51Z"/>
  <path class="cls-10" d="M241.92,152.09c.34,.28,.67,.56,1.01,.84-.18,.18-.35,.36-.53,.53-.3-.24-.6-.48-.9-.72,.14-.22,.28-.44,.42-.65Z"/>
  <path class="cls-10" d="M257.36,163.93c.29,.24,.57,.48,.86,.72-.18,.18-.36,.37-.54,.55-.28-.26-.55-.53-.83-.79,.17-.16,.34-.33,.51-.49Z"/>
  <path class="cls-10" d="M285.47,186.52c-.74,.54-.98,.13-1.09-.53,.71-.49,.93-.03,1.09,.53Z"/>
  <path class="cls-10" d="M214.72,130.45c.29,.23,.57,.46,.86,.68-.19,.2-.38,.39-.57,.59-.29-.25-.57-.51-.86-.76,.19-.17,.38-.34,.57-.51Z"/>
  <path class="cls-10" d="M278.73,180.92c.28,.24,.56,.48,.85,.72-.17,.17-.34,.35-.5,.52-.3-.24-.59-.49-.89-.73,.18-.17,.36-.34,.55-.51Z"/>
  <path class="cls-10" d="M272.76,176.14c.27,.23,.54,.47,.8,.7-.18,.18-.36,.36-.53,.54-.29-.25-.57-.5-.86-.75,.2-.16,.39-.33,.59-.49Z"/>
  <path class="cls-10" d="M275.86,178.67c.34,.27,.67,.54,1.01,.82-.17,.17-.34,.35-.51,.52-.3-.25-.59-.49-.89-.74,.13-.2,.26-.4,.39-.6Z"/>
  <path class="cls-10" d="M220.7,135.24c.29,.23,.59,.46,.88,.69-.18,.19-.37,.37-.55,.56-.3-.24-.6-.47-.9-.71,.19-.18,.38-.36,.57-.55Z"/>
  <path class="cls-10" d="M275.47,178.31c.13,.12,.26,.24,.4,.36-.13,.2-.26,.4-.39,.59-.2-.15-.4-.31-.6-.46,.2-.16,.4-.33,.6-.49Z"/>
  <path class="cls-13" d="M314.39,135.74c-.21-.19-.43-.38-.64-.56,.37,.02,.58,.22,.64,.56Z"/>
  <path class="cls-10" d="M241.55,151.76c.15,.08,.28,.19,.37,.34-.14,.22-.28,.44-.42,.65-.19-.16-.38-.33-.57-.49l.63-.5Z"/>
  <path class="cls-10" d="M217.43,132.63c.16,.07,.28,.18,.38,.32-.13,.22-.26,.44-.39,.66-.19-.17-.37-.34-.56-.51,.19-.16,.38-.32,.57-.48Z"/>
  <path class="cls-10" d="M226.82,140.1c.12,.07,.22,.17,.29,.28-.12,.21-.24,.43-.37,.64-.19-.16-.39-.32-.58-.48,.22-.15,.44-.3,.65-.44Z"/>
  <path class="cls-10" d="M264.14,169.41s.08,.09,.08,.09c-.07,.23-.14,.46-.21,.7-.2-.15-.4-.31-.6-.46,.25-.11,.49-.22,.74-.33Z"/>
  <path class="cls-10" d="M211.41,127.84c.16,.07,.28,.17,.38,.31-.13,.23-.25,.45-.38,.68-.19-.17-.37-.34-.56-.5l.56-.48Z"/>
  <path class="cls-10" d="M270.26,174.21c.21,.16,.43,.31,.64,.47-.21,.18-.43,.37-.64,.55-.16-.15-.32-.3-.48-.45,.16-.19,.32-.38,.48-.57Z"/>
  <path class="cls-13" d="M308.24,171.71c-.08,.26-.16,.53-.23,.79,.08-.26,.16-.53,.23-.79Z"/>
  <path class="cls-10" d="M232.84,144.86c.1,.07,.19,.16,.27,.25-.1,.22-.21,.45-.31,.67-.21-.15-.41-.3-.62-.45,.22-.16,.44-.31,.66-.47Z"/>
  <path class="cls-10" d="M294.11,171.31c.11-.03,.22-.07,.33-.1-.03,.02-.05,.05-.08,.05-.07,0-.14,0-.22,0,0,0-.03,.04-.03,.04Z"/>
  <path class="cls-10" d="M266.19,170.88c.15,.08,.27,.2,.36,.34-.15,.21-.29,.43-.44,.65-.19-.17-.37-.34-.56-.51,.21-.16,.42-.32,.63-.48Z"/>
  <path class="cls-10" d="M261.53,167.27c.21,.16,.41,.33,.62,.49-.19,.17-.39,.34-.58,.52-.17-.15-.35-.3-.52-.44,.16-.19,.33-.37,.49-.56Z"/>
  <path class="cls-10" d="M254.74,161.88c.1,.07,.19,.15,.26,.25-.1,.21-.2,.42-.3,.63-.2-.15-.4-.3-.61-.46,.22-.14,.43-.28,.65-.42Z"/>
  <path class="cls-12" d="M265.56,171.36c.19,.17,.37,.34,.56,.51,1.22,.97,2.44,1.94,3.66,2.9,.16,.15,.32,.3,.48,.45,.2,.4,1.1,.59,.4,1.27-2.21-1.56-4.8-2.72-6.03-5.32,.31,.07,.62,.13,.94,.2Z"/>
  <path class="cls-12" d="M254.1,162.3c.2,.15,.4,.3,.61,.46,.29,.26,.58,.52,.86,.78,.43,.29,.85,.59,1.28,.88,.28,.26,.55,.52,.83,.79,.4,.65,1.45,.78,1.48,1.73-2.77-.85-4.6-2.91-6.57-4.79,.59-.74,1,.14,1.5,.15Z"/>
  <path class="cls-12" d="M261.04,167.83c.17,.15,.35,.3,.52,.44,.61,.49,1.23,.97,1.84,1.46,.2,.15,.4,.31,.6,.46,.21,.33,.43,.66,.64,1-2.5-.61-4.28-2.09-5.5-4.26,.32,.05,.65,.1,.97,.15,.3,.25,.61,.5,.91,.75Z"/>
  <path class="cls-12" d="M232.18,145.33c.21,.15,.41,.3,.62,.45,.4,.5,.8,1,1.21,1.51-2.51-.59-4.18-2.21-5.49-4.27,.32,.06,.64,.12,.95,.18,.91,.71,1.81,1.43,2.72,2.14Z"/>
  <path class="cls-12" d="M240.92,152.26c.19,.16,.38,.33,.57,.49,.3,.24,.6,.48,.9,.72,.29,.42,.96,.59,.9,1.25-1.9-.05-2.76-1.49-3.83-2.66,.6-.71,.97,.17,1.46,.2Z"/>
  <path class="cls-12" d="M274.87,178.8c.2,.15,.4,.31,.6,.46,.3,.25,.59,.49,.89,.74,.27,.44,.92,.63,.87,1.28-1.85-.12-2.77-1.48-3.83-2.66,.6-.75,.97,.17,1.47,.18Z"/>
  <path class="cls-12" d="M220.13,135.78c.3,.24,.6,.47,.9,.71,.41,.65,1.4,.84,1.46,1.76-1.7-.19-2.86-1.01-3.3-2.67,.31,.07,.62,.14,.93,.2Z"/>
  <path class="cls-12" d="M210.84,128.32c.19,.17,.37,.34,.56,.51,.3,.24,.61,.47,.91,.71,.27,.44,.97,.6,.88,1.27-1.69-.21-2.86-1.02-3.3-2.68,.32,.06,.63,.13,.95,.19Z"/>
  <path class="cls-12" d="M216.86,133.11c.19,.17,.37,.34,.56,.51,.51,.74,1.64,.95,1.81,1.98-1.78-.1-2.89-.98-3.31-2.67,.31,.06,.63,.12,.94,.19Z"/>
  <path class="cls-12" d="M248.71,157.96c.13,.54,1.17,.73,.6,1.53-1.2-.37-2.65-.42-2.74-2.13,.71,.2,1.43,.4,2.14,.6Z"/>
  <path class="cls-12" d="M278.18,181.43c.3,.24,.59,.49,.89,.73,.3,.42,.6,.83,.9,1.25-1.5,0-2.46-.67-2.75-2.14,.32,.05,.64,.11,.97,.16Z"/>
  <path class="cls-12" d="M214.15,130.96c.29,.25,.57,.51,.86,.76,.31,.41,.62,.81,.93,1.22-1.56,.06-2.42-.72-2.76-2.14,.32,.05,.64,.11,.97,.16Z"/>
  <path class="cls-12" d="M243.83,155.24c.53-.2,.88,.18,1.29,.38,.46,.6,1.41,.83,1.46,1.75-1.46-.05-2.39-.75-2.75-2.13Z"/>
  <path class="cls-12" d="M272.18,176.63c.29,.25,.57,.5,.86,.75,.19,.39,.99,.61,.36,1.23-1.19-.37-2.08-1.1-2.73-2.12,.58-.68,1.01,.12,1.52,.15Z"/>
  <path class="cls-12" d="M281.51,184.03c.35,.86,1.67,.94,1.74,2.03-1.51,0-2.42-.71-2.75-2.14,.34,.04,.67,.07,1.01,.11Z"/>
  <path class="cls-12" d="M224.76,138.65c-.67,.55,.44,1.17-.07,1.72-1.03-.43-2.12-.8-2.21-2.13,.41-.04,.81-.07,1.22-.11,0,0-.07,.05-.07,.05,.13,.63,.37,1.05,1.09,.54l.04-.06Z"/>
  <path class="cls-12" d="M226.17,140.54c.19,.16,.39,.32,.58,.48,.19,.5,1.25,.63,.66,1.47-1.22-.33-2.05-1.14-2.73-2.12,.58-.57,.99,.1,1.49,.18Z"/>
  <path class="cls-12" d="M250.4,160.02c.33,.04,.67,.08,1,.12,.23,.76,1.75,.8,1.19,2.01-.9-.55-2.17-.73-2.19-2.13Z"/>
  <path class="cls-12" d="M234.53,147.81c.31,.06,.63,.12,.94,.18,.43,.47,.85,.95,1.28,1.42-1.31,.21-2.04-.34-2.22-1.6Z"/>
  <path class="cls-12" d="M238.8,150.59c.15,.52,1.22,.65,.65,1.46-.77-.31-1.79-.39-1.64-1.59,.33,.04,.66,.09,.99,.13Z"/>
  <path class="cls-12" d="M249.32,159.49c.76-.57,.98-.12,1.11,.54-.66,.39-.91-.02-1.11-.54Z"/>
  <path class="cls-12" d="M208.75,128.15c-.01-.13-.04-.26-.07-.39,.15-.16,.3-.32,.45-.48,.4,.18,.76,.4,.8,.88-.4,.41-.79,.1-1.18,0Z"/>
  <path class="cls-12" d="M227.42,142.5c.74-.53,.98-.11,1.11,.54-.61,.29-.94,.04-1.11-.54Z"/>
  <path class="cls-12" d="M237.26,149.92c.42-.05,.63,.11,.56,.54-.52,.14-.83,.08-.56-.54Z"/>
  <path class="cls-12" d="M279.95,183.39c.38-.01,.66,.09,.56,.54-.48,.1-.86,.11-.56-.54Z"/>
  <path class="cls-12" d="M236.71,149.38c.36,.03,.61,.15,.56,.56-.6,.2-.82,.05-.56-.56Z"/>
  <path class="cls-12" d="M243.29,154.71c.44-.07,.62,.11,.55,.53-.56,.19-.81,.07-.55-.53Z"/>
  <path class="cls-12" d="M233.98,147.27c.39-.02,.66,.08,.56,.54-.55,.18-.84,.09-.56-.54Z"/>
  <path class="cls-5" d="M282.62,119.31c-4.55,1.61-9.36,1.98-14.09,2.75-.61-.22-1.17-.15-1.68,.25-2,.02-4.01,.04-6.01,.06-1.06-.41-2.15-.65-3.3-.62-.39-.15-.78-.45-1.14,.06l-.04,.12c.53-.67-.69-1.17-.19-1.84,5.67-2.94,11.08-6.35,17.12-8.62,5.71-2.15,11.48-2.5,17.34-.76,1.81,.53,3.61,1.17,4.87,3.01-4.31,2.01-8.96,3.07-12.89,5.61Z"/>
  <path class="cls-5" d="M253.47,120.28c-8.32,2.15-16.69,2.56-25.07,.38-.95-.25-2.27-.19-2.58-1.56l-.04,.02c.58-.17,1.27-.22,1.11-1.09v-.03c1.2,.53,1.81-.5,2.6-.95,7.47-4.19,15.29-7.01,24.13-6.05,3.49,.38,6.72,1.41,9.85,3.43-2.84,1.79-5.52,3.48-8.2,5.17-.6,.23-1.21,.46-1.81,.69Z"/>
  <path class="cls-5" d="M257.63,102.39c4.62-1.66,9.15-1.59,13.65-1.4,7.79,.34,15.36,1.69,22.26,5.48,2.07,1.14,4,2.48,5.44,4.35,.4,.52,1.2,1.29,.47,1.8-.7,.49-1.79,1.12-2.73,.29-6.45-5.7-13.88-5.02-21.6-3.42-3.69,.76-7.46,.9-10.41-2.28-1.89-2.04-4.62-3.04-7.08-4.83Z"/>
  <path class="cls-5" d="M316.81,116.46c-.24,.49-.52,.89-1.09,1.1-8.5,3.09-17.08,5.86-26.36,5.36-1.83-.1-3.56-.59-5.25-1.25-.7-.27-1.34-.6-1.13-1.52,6.41-2.65,12.66-5.79,19.7-6.64,3.76-.45,7.53-1.34,11.34-.26,1.66,.47,3.14,1.1,2.79,3.21Z"/>
  <path class="cls-5" d="M238.93,100.99c2.38,0,4.75,0,7.13,0,6.76,.42,12.79,2.59,17.82,7.1,.8,.72,1.63,1.44,2.26,2.3,.51,.7,1.65,1.5,.55,2.49-.87,.78-1.87,.85-3,.19-4.67-2.72-9.81-4.17-15.15-3.35-3.92,.6-6.64,0-9.03-3.21-1.27-1.7-3.44-2.78-5.26-4.17,1.41-1.15,3.24-.64,4.69-1.35Z"/>
  <path class="cls-5" d="M319.91,109.54c.65,2.31,.48,4.41-1.63,6.02-.83-3.13-3.47-3.62-6.15-3.8-2.81-.19-5.64-.2-8.42,.39-1.47,.31-2.45,.02-3.36-1.4-2.17-3.39-5.75-5.2-9.65-7.11,5.85-2.15,11.32-1.5,16.77-.14,4.59,1.14,9.2,2.27,12.43,6.04Z"/>
  <path class="cls-5" d="M225.83,119.1c-1.41-.99-2.31,1.05-3.63,.57-.63,0-1.27,.06-1.89-.03-.91-.12-2.14,.49-2.61-.73-.37-.96,.55-1.54,1.02-2.27,1.65-2.59,4.16-4.59,5.35-7.49,7.33-1.52,10.27-1.05,14.35,2.38-3.5,1.38-6.87,2.86-9.98,4.82-.63,.4-1.79,.43-1.51,1.65,0,0-.01,.03-.01,.03-1.1-.33-1.58-.08-1.11,1.09l.04-.02Z"/>
  <path class="cls-5" d="M231.98,102.98c3.35,1.3,6.02,3.49,8.41,6.05,.42,.45,1.31,1.03,.5,1.75-.59,.53-1.18-.07-1.66-.43-3.77-2.87-8.05-3.86-12.76-3.25-.06-3.24,1.06-4.12,4.42-3.51,.52,.1,.82-.24,1.09-.6Z"/>
  <path class="cls-15" d="M253.47,120.28c.6-.23,1.21-.46,1.81-.69,.3,.16,.6,.32,.9,.49-.5,.67,.72,1.17,.19,1.84-1.05,.48-1.41-.84-2.28-.82-.21-.27-.41-.55-.62-.82Z"/>
  <path class="cls-13" d="M236.96,100.37c.29-.06,.57-.13,.86-.19-.29,.06-.57,.13-.86,.19Z"/>
  <path class="cls-8" d="M254.09,121.1c.87-.02,1.23,1.3,2.28,.82,0,0,.04-.12,.04-.12-.29,.45,.04,.53,.38,.6,1.23,.81,2.63,.86,4.04,.9,.79,.12,1.57,.25,3.14,.5-1.02,.82-1.69,1.29-2.27,1.84-.57,.54-1.06,1.17-1.78,1.98-2.06-3.06-4.97-4.79-8.88-5.47,1.24-.43,2.14-.74,3.05-1.06Z"/>
  <path class="cls-8" d="M226.04,122.13c2.81,.38,5.62,.76,8.48,1.14-.12,.26-.13,.37-.19,.42-1.17,1.09-2.21,2.82-3.56,3.1-1.68,.35-1.72-2.29-3.15-3.02-.61-.31-1.14-.77-1.7-1.16,.04-.16,.08-.33,.13-.49Z"/>
  <path class="cls-8" d="M285.13,123.51c2.3,.27,4.6,.55,7.2,.86-1.17,1.27-2.21,2.39-3.32,3.6-1.03-1.67-2.43-2.94-3.88-4.46Z"/>
  <path class="cls-9" d="M283.59,123.41c-1.86-.79-3.32-.75-4.48-1.8,2.1-.28,2.33-.2,4.48,1.8Z"/>
  <path class="cls-14" d="M260.84,123.3c-1.41-.04-2.81-.09-4.04-.9,.25-.22,.5-.44,.75-.66,1.15-.03,2.24,.22,3.3,.62,0,.31,0,.62,0,.93Z"/>
  <path class="cls-13" d="M288.1,136.26c.38-.45,.82-.8,1.46-.79,.39,.14,.79,.28,1.18,.41-.84,.45-1.67,.9-2.51,1.35-.04-.33-.09-.65-.13-.98Z"/>
  <path class="cls-14" d="M266.86,122.31c.51-.39,1.07-.47,1.68-.25-.44,.87-1,.93-1.68,.25Z"/>
  <path class="cls-14" d="M309.08,121.26c-.25,.32-.46,.65-.16,1.06-.41-.04-.9-.05-.82-.61,.08-.52,.56-.46,.97-.44Z"/>
  <path class="cls-14" d="M260.38,131.67c.05,.14,.11,.28,.14,.43,.01,.07-.05,.15-.07,.22-.05-.14-.11-.28-.14-.43-.01-.07,.05-.14,.08-.22Z"/>
  <path class="cls-14" d="M114.68,167.97c.08,1.05,1.83,.91,1.63,2.15-2.63,.33-1.16,2.47-1.75,3.71-.64,.68-.4,1.49-.35,2.27-.01,.81-.02,1.61-.03,2.42-.39,.62-.95,.67-1.59,.42,.32-1.26,.63-2.51,.95-3.77,0-.54-.01-1.08-.02-1.61,.04-.98,.08-1.96,.11-2.94,.49-.34,.53-.69,.02-1.05-.02-.36-.04-.71-.06-1.07,.36-.18,.72-.35,1.09-.53Z"/>
  <path class="cls-13" d="M114.68,167.97c-.36,.18-.72,.35-1.09,.53,0-1.15-.02-2.3-.03-3.46q1.23,.19,1.12,2.93Z"/>
  <path class="cls-13" d="M113.66,169.57c.51,.36,.47,.71-.02,1.05,0-.35,.01-.7,.02-1.05Z"/>
  <path class="cls-13" d="M113.53,173.57c0,.54,.01,1.08,.02,1.61-.33-.53-.23-1.07-.02-1.61Z"/>
  <path class="cls-11" d="M199,124.48c-.04-.27-.09-.54-.13-.8,1.37-1.56,2.86-1.64,4.48-.37,0,.32,0,.64,0,.96-1.45,.07-2.89,.14-4.34,.21Z"/>
  <path class="cls-3" d="M146.73,77.33c1.11,.78,2.41,1.36,2.99,2.69-.23,.45-.89,.86,0,1.61v-1.59c.22,.02,.44,.04,.66,.06-.05,1.08-.1,2.17-.14,3.25-3.46,.34-6.27-.88-8.72-3.2-3.01-2.85-3.82-2.57-4.86,1.47-.11,.43-.24,.85-.4,1.26-.06,.15-.23,.27-.5,.57-3.75-2.97-6.55-6.51-7.62-11.17-.49-2.12,.5-3.28,2.73-3.19,4.67,.19,8.44,2.38,11.9,5.21-.18,.19-.35,.38-.53,.57-2.81-1.4-5.37-3.37-8.65-3.66-.95-.08-2.05-.22-2.56,.97-.32,.76-.13,1.35,.86,2.5,.06-2.55,.72-3,3.37-2.11,1.28,.43,2.56,.95,3.7,1.63,2.16,1.29,4.23,2.71,6.31,4.12,.94,.63,1.31,.52,1.11-.63,.12-.12,.24-.24,.34-.38Z"/>
  <path class="cls-3" d="M150.24,83.35c.05-1.08,.1-2.17,.14-3.25,1.31,.87,2.65,1.71,3.85,3.18-1.55,.11-2.8-.36-3.99,.08Z"/>
  <path class="cls-2" d="M142.77,74.3c.44,.3,.88,.6,1.32,.91-.17,.16-.34,.31-.5,.47-.45-.27-.9-.54-1.34-.8,.18-.19,.35-.38,.53-.57Z"/>
  <path class="cls-2" d="M144.08,75.21c.61,.31,1.18,.64,1.27,1.39l.02-.02c-.93,.33-1.31-.39-1.79-.9,.17-.16,.34-.31,.5-.47Z"/>
  <path class="cls-2" d="M146.16,76.83c.19,.17,.38,.33,.57,.5-.1,.13-.22,.26-.34,.38-.24-.12-.48-.24-.71-.37,.16-.17,.32-.34,.48-.51Z"/>
  <path class="cls-2" d="M145.35,76.6c.27,.08,.54,.16,.81,.23-.16,.17-.32,.34-.48,.51-.2-.22-.68-.33-.31-.77l-.02,.02Z"/>
  <path class="cls-14" d="M77.47,138.77c.4,.4,.8,.81,1.2,1.21-.02,.3-.05,.59-.07,.89-.38,0-.77,.01-1.15,.02-.4-1.13-1.92-1.72-1.62-3.19,.53-.36,1.07-.73,1.6-1.09,1.13,.7-.23,1.44,.04,2.16Z"/>
  <path class="cls-14" d="M71.73,135.64c.28-.21,.55-.43,.83-.64,.19,.09,.37,.17,.56,.26,.18,.1,.36,.2,.54,.29,.52,.2,1.17,.34,.53,1.08-.9,.47-1.38-.65-2.18-.55-.08-.16-.17-.3-.28-.44Z"/>
  <path class="cls-14" d="M74.18,136.63c1.26-.69,1.58,0,1.65,1.07-1.08,.42-1.41-.25-1.65-1.07Z"/>
  <path class="cls-14" d="M202.29,174.64c.2,.48,.4,.95,.59,1.43,.05,.16,.01,.28-.12,.39-.33,0-.66,0-.99,0,.11-.38,.22-.76,.32-1.13,.05-.2,.11-.4,.16-.61,0,0,.04-.08,.04-.08Z"/>
  <path class="cls-13" d="M73.66,135.56c-.18-.1-.36-.2-.54-.29,.18,.1,.36,.2,.54,.29Z"/>
  <path class="cls-14" d="M203.35,123.3c-1.61-1.27-3.11-1.19-4.48,.37-.32,.08-.64,.15-.95,.23,1.06-2.9,5.73-4.7,9.11-3.51,.03,.56,1.41,.94,.28,1.65-.65,.41-1.28,1.06-2.18,.56-.39-.21-.72-.51-1.1-.75-.29-.18-.6-.31-.9-.46-.79,.8,.47,1.25,.23,1.9Z"/>
  <path class="cls-14" d="M197.91,123.9c.08,.43-.1,.61-.55,.53,.02-.22,.05-.44,.07-.66,.16,.04,.32,.08,.48,.12Z"/>
  <path class="cls-13" d="M202.26,174.72c-.05,.2-.11,.4-.16,.61,.05-.2,.11-.4,.16-.61Z"/>
  <path class="cls-13" d="M107.6,142.42c.36,.72,.73,1.45,1.09,2.17-.22,.24-.44,.47-.65,.71-.57-.47-.79-1.1-.96-1.78,0,0-.08-.14-.08-.14l.06,.03c.18-.33,.36-.66,.55-1Z"/>
  <path class="cls-14" d="M104.85,137.67c.68,.37,1.3,.77,.56,1.61-1.16-.22-1.31-.76-.56-1.61Z"/>
  <path class="cls-14" d="M105.94,139.8c.77,.34,1.27,.77,.55,1.6-1.16-.22-1.25-.78-.55-1.6Z"/>
  <path class="cls-14" d="M108.04,145.3c.22-.24,.44-.47,.65-.71,.18,.35,.63,.71,0,1.06-.48,.35-.56,0-.65-.35Z"/>
  <path class="cls-14" d="M106.5,141.41c.37-.22,.61-.12,.8,.25,.19,.37,.12,.62-.26,.8-.85-.03-1.08-.35-.54-1.05Z"/>
  <path class="cls-14" d="M105.4,139.27c.7-.31,.68,.07,.56,.55-.2,.01-.4,.02-.6,.03,.01-.19,.03-.39,.04-.58Z"/>
  <path class="cls-14" d="M107.6,142.42c-.18,.33-.36,.66-.55,1,0,0,.03,.18,.03,.18-.01-.38-.02-.75-.04-1.13,.18-.02,.37-.03,.55-.05Z"/>
  <path class="cls-1" d="M107.08,143.59s-.03-.18-.03-.18c0,0-.06-.03-.06-.03,0,0,.08,.14,.08,.14,0,0,0,.07,0,.07Z"/>
  <path class="cls-13" d="M114.22,176.1c-.05-.78-.29-1.59,.35-2.27,.11,.79,.05,1.56-.35,2.27Z"/>
  <path class="cls-14" d="M116.32,170.12c.29-.01,.57-.03,.86-.04,.12,.4-.03,.76-.44,.77-.43,.01-.57-.32-.42-.73Z"/>
  <path class="cls-14" d="M182.02,117.13c-.22,.14-.43,.28-.65,.42-.45-.26-1.03-.41-1.02-1.07,.87-.52,1.17,.31,1.67,.66Z"/>
  <path class="cls-12" d="M208.67,127.76c-.35-.19-.99-.4-.71-.8,.44-.63,.81,.03,1.16,.32-.15,.16-.3,.32-.45,.48Z"/>
  <path class="cls-14" d="M184.91,116.58c-.67,.79-1.6,.05-2.36,.37,0,0,.04,.02,.04,.02,.05-.06,.14-.13,.13-.18-.03-.12-.11-.23-.16-.34-.82-1.82,.77-1.49,1.67-1.77,.48,.55,1.51,.91,.68,1.91Z"/>
  <path class="cls-11" d="M182.55,116.44c.06,.11,.13,.22,.16,.34,.01,.05-.08,.12-.13,.18-.19-.04-.39-.07-.58-.11,.18-.14,.36-.28,.54-.42Z"/>
  <path class="cls-8" d="M288.1,136.26c.04,.33,.09,.65,.13,.98-1.27,.63,.61,1.92-.57,2.57-1.27-.69-1.71-1.8-1.69-3.15,.62-.58,1.53,.27,2.13-.41Z"/>
  <path class="cls-14" d="M288.21,139.69c-.04,.44-.03,.91-.51,1.17-.13-.35-.6-.68-.05-1.05,.19-.04,.37-.08,.56-.12Z"/>
  <path class="cls-14" d="M226.37,138.76c-.59,.78-1.05-.33-1.61-.11,0,0-.04,.06-.04,.06-.13-.62-.37-1.05-1.09-.54,0,0,.07-.05,.07-.05,.48-.53-.87-.95-.09-1.5,1.34,.19,2.21,.96,2.76,2.13Z"/>
  <path class="cls-14" d="M223.6,136.62c-.73,.53-.97,.1-1.1-.53,.74-.55,1.03-.22,1.1,.53Z"/>
  <path class="cls-10" d="M223.63,138.18c.72-.51,.96-.09,1.09,.54-.73,.51-.96,.09-1.09-.54Z"/>
  <path class="cls-15" d="M257.55,121.75c-.25,.22-.5,.44-.75,.66-.34-.07-.68-.14-.38-.6,.35-.5,.75-.21,1.14-.06Z"/>
  <path class="cls-15" d="M225.79,119.12c-.47-1.17,.01-1.43,1.11-1.09,.16,.87-.54,.93-1.11,1.09Z"/>
  <path class="cls-12" d="M145.37,76.57c-.37,.43,.1,.55,.31,.77,.24,.12,.47,.24,.71,.37,.19,1.15-.18,1.26-1.11,.63-2.08-1.41-4.16-2.83-6.31-4.12-1.15-.69-2.42-1.2-3.7-1.63-2.65-.89-3.31-.44-3.37,2.11-.98-1.15-1.18-1.74-.86-2.5,.5-1.19,1.61-1.06,2.56-.97,3.29,.29,5.84,2.26,8.65,3.66,.45,.27,.9,.54,1.34,.8,.49,.51,.86,1.23,1.79,.9Z"/>
  <path class="cls-10" d="M149.73,80.04v1.59c-.89-.75-.23-1.15,0-1.61,0,0,0,.01,0,.01Z"/>
</svg>