<svg width="56" height="56" viewBox="0 0 56 56" fill="none" xmlns="http://www.w3.org/2000/svg">
<rect width="56" height="56" fill="#FF6F69" fill-opacity="0.3"/>
<path d="M23.0628 24.6535C22.633 24.205 22.648 23.4925 23.0965 23.0627L26.161 20.1273C26.6395 19.648 27.2988 19.375 28 19.375C28.7013 19.375 29.3605 19.648 29.8563 20.1437L32.9028 23.0627C33.3513 23.4925 33.367 24.2043 32.9365 24.6535C32.716 24.8845 32.4205 25 32.1243 25C31.8438 25 31.564 24.8965 31.3458 24.6873L29.1243 22.5587V30.625C29.1243 31.2467 28.621 31.75 27.9993 31.75C27.3775 31.75 26.8743 31.2467 26.8743 30.625V22.5587L24.6528 24.6873C24.2043 25.117 23.4925 25.102 23.0628 24.6535ZM34.375 25.75C33.7533 25.75 33.25 26.2533 33.25 26.875V32.875C33.25 33.9085 32.4085 34.75 31.375 34.75H24.625C23.5915 34.75 22.75 33.9085 22.75 32.875V26.875C22.75 26.2533 22.2468 25.75 21.625 25.75C21.0033 25.75 20.5 26.2533 20.5 26.875V32.875C20.5 35.1497 22.3503 37 24.625 37H31.375C33.6498 37 35.5 35.1497 35.5 32.875V26.875C35.5 26.2533 34.9968 25.75 34.375 25.75Z" fill="#FF6F69"/>
</svg>
