<svg width="56" height="56" viewBox="0 0 56 56" fill="none" xmlns="http://www.w3.org/2000/svg">
<rect width="56" height="56" fill="#FF6F69" fill-opacity="0.3"/>
<path d="M21.9656 23.9098C21.4403 23.3617 21.4587 22.4908 22.0068 21.9656L25.7523 18.3778C26.3372 17.792 27.1429 17.4583 28 17.4583C28.8571 17.4583 29.6628 17.792 30.2688 18.3979L33.9923 21.9656C34.5404 22.4908 34.5597 23.3608 34.0335 23.9098C33.764 24.1922 33.4028 24.3333 33.0408 24.3333C32.6979 24.3333 32.356 24.2068 32.0893 23.9511L29.3741 21.3496V31.2083C29.3741 31.9683 28.759 32.5833 27.9991 32.5833C27.2392 32.5833 26.6241 31.9683 26.6241 31.2083V21.3496L23.9089 23.9511C23.3608 24.4763 22.4908 24.458 21.9656 23.9098ZM35.7917 25.25C35.0318 25.25 34.4167 25.8651 34.4167 26.625V33.9583C34.4167 35.2215 33.3882 36.25 32.125 36.25H23.875C22.6118 36.25 21.5833 35.2215 21.5833 33.9583V26.625C21.5833 25.8651 20.9683 25.25 20.2083 25.25C19.4484 25.25 18.8333 25.8651 18.8333 26.625V33.9583C18.8333 36.7386 21.0948 39 23.875 39H32.125C34.9053 39 37.1667 36.7386 37.1667 33.9583V26.625C37.1667 25.8651 36.5516 25.25 35.7917 25.25Z" fill="#FF6F69"/>
</svg>
