<?xml version="1.0" encoding="UTF-8"?>
<svg id="Layer_1" data-name="Layer 1" xmlns="http://www.w3.org/2000/svg" viewBox="0 0 414 200">
  <defs>
    <style>
      .cls-1 {
        fill: #f7b7d3;
      }

      .cls-2 {
        fill: #00bff3;
      }

      .cls-3 {
        fill: #6a635a;
      }

      .cls-4 {
        fill: #fff9b8;
      }

      .cls-5 {
        fill: #fff200;
      }

      .cls-6 {
        fill: #ece9e0;
      }

      .cls-7 {
        fill: #fbb040;
      }

      .cls-8 {
        fill: #fdfdfd;
      }

      .cls-9 {
        fill: #9ed2f1;
      }

      .cls-10 {
        fill: #c1c0c0;
      }

      .cls-11 {
        fill: #bcad99;
      }

      .cls-12 {
        fill: #e1dcd4;
      }

      .cls-13 {
        fill: #47433f;
      }

      .cls-14 {
        fill: #3c3631;
      }

      .cls-15 {
        fill: #514c4c;
      }
    </style>
  </defs>
  <path class="cls-13" d="M87.41,157.81c4.94-1.56,9.92-2.44,15.07-1.24,2.18,.51,4.25,1.3,6.08,2.65,.86,.64,1.61,.82,2.59,.27,8.87-4.98,17.94-4.94,26.93-.62,2.86,1.37,5.33,0,7.97,.07,5.03,.15,9.36-2.68,14.11-3.72,.32,.08,.58,0,.78-.28,.76-.06,1.53-.12,2.29-.18,.26-.03,.52-.05,.78-.08,.38,0,.77,0,1.15,0,.13,0,.26,.02,.4,.03,.25,0,.5,.01,.75,.02,.26,.01,.53,.02,.79,.04,.63,.09,1.25,.19,1.88,.28,.21,.34,.52,.26,.82,.2,2.44,.72,4.79,1.64,6.79,3.35,.62,.53,1.39,.58,2.16,.6,3.35,.08,6.51,.37,9.74-1.77,3.93-2.61,8.6-2.52,13.09-1.07,1.14,.37,1.47,.16,1.48-1.06,0-.91,.16-1.88,1.21-2.25,.04,.38,.18,.7,.55,.84-.63,2.11-.57,3.92,1.86,4.73,.16,.05,.27,.27,.4,.41-.21,.62-.2,1.22,.23,1.75-7.43,.17-14.29,2.76-21.14,5.4-.34,.13-.78,.27-.78,.74,0,.46,.45,.65,.79,.77,1.93,.69,3.91,1.21,5.95,1.26,8.15,.21,16.1-.8,23.6-4.42,.52,.55-1.7,.61-.22,1.33-.22,.47-1.14,.14-1.03,.9,.08,.59,.69,.44,1.08,.55,1.2,.36,2.41,.68,3.61,1.01,0,.33,0,.66,0,.99-1.06-.2-2.13-.37-3.18-.62-1.3-.31-2.58-.71-3.87-1.03-.29-.07-.69-.04-.83,.31-.15,.38,.15,.57,.44,.76,4.05,2.7,8.15,5.36,12.88,6.49,6.97,1.67,13.98,1.31,20.88-.41,1.14-.29,2.73-.31,3.72-1.63-3.02-1.16-5.84-2.48-8.58-3.99-1.58-.87-3.11-1.24-4.88-.53-1.35,.54-2.83,.77-4.3,.78,0-.3-.01-.6-.02-.9,7.94-1.38,14.73-5.67,22.09-9.34-4.54-2.21-9.09-2.41-13.67-2.44,1.86-.23,3.37-1.97,5.42-1.37,.11,.37,.39,.54,.71,.56,2.94,.2,5.77,.82,8.34,2.43,.28,.18,.79,.18,1.1,.04,2.9-1.25,5.87-2.31,9.01-3.17-1.76-1.73-3.97-1.3-5.83-2.04,.16-.54,.51-.75,1.03-.62,.62,1.17,1.35,.95,2.14,.2,1.26,0,2.31,.51,3.32,1.29,1.43,1.1,4.7,1.23,5.71,.23,2.48-2.46,5.53-3.65,8.76-4.48,.47-.12,1.22,.1,1.19-.63-.05-1.38,.74-2.49,.92-3.75,.74-5.19,3.34-9.08,7.49-11.84,.82-.55,1.02-1.05,.93-1.9,.43-.46,.37-.86-.13-1.2,0-.39,0-.78,0-1.17,.63-.75,.79-1.46-.2-2.04-1.06-1.53-1.82-3.16-1.65-5.12-.18-.84,.64-2-.71-2.47,0-.26,0-.53,0-.79,1.05-.2,.67-1.05,.7-1.71,.28-1.63-.05-3.27,.04-4.88,.09-1.6-.49-2.31-1.82-2.88-3.2-1.38-5.45-3.9-5.79-7.5-.28-2.92-1.63-4.14-4.08-4.74-2.46-.61-4.82-1.55-7.09-2.72-.5-.75-1.41-1.01-1.86-1.92-.28-.57-1.16-1.2-1.43,.24-.45,.03-.9,.06-1.34,.09-.43-.37-.85-.74-1.28-1.12,.6-.11,1.32-.05,1.35-1,.89,.02,1.78,.03,2.66,.08,4.89,.25,9.76-.75,14.66-.34,.56,.05,1.4,.53,1.67-.28,.21-.63-.47-1.16-.93-1.6-3.3-3.12-7.37-4.36-11.58-5.35-4.51-1.06-8.96-.47-13.42,.26,0-.36,0-.72,0-1.08,.35-.74,.23-1.33-.32-1.96-2.86-3.28-6.47-4.86-10.62-5.29-2.5-.25-5.01-.42-7.43-1.23,.43-.39,1.18-.36,1.32-1.12,1.57,.98,3.36,.88,5.07,.99,.83,.06,.06-.58-.03-.9,.31-.12,.48-.36,.52-.71,2,.95,3.99,1.92,6,2.83,3.04,1.38,5.86,2.97,7.51,6.22,.56,1.1,1.74,.47,2.58,.25,.74-.19,.48-1.05,.26-1.54-.48-1.06-1.01-2.14-1.7-3.05-4.09-5.45-9.6-8.98-15.31-12.22-.85-.48-1.42-.4-1.64,.75-.24,1.24-.85,2.34-1.54,3.38-.43-.02-.86-.05-1.29-.07,.06-.39,.03-.83,.19-1.17,1.32-3.02,2.31-6.14,3.19-9.33,.42-1.54,.64-3.19,1.35-4.66,.4,0,.81,0,1.21,0-.12,2.72-1.38,5.16-1.75,7.84-.17,1.26,.16,1.8,1.12,2.33,4.5,2.46,8.96,5.01,12.48,8.96,1.3,1.46,3,1.04,4.58,1.27,.94,.71,1.95,.44,2.95,.23,.8,.06,1.61,.12,2.41,.19,.67,.69,1.45,.37,2.21,.28,.15,.02,.3,.05,.45,.07,.43,.62,.96,.6,1.53,.22,.28,.03,.57,.06,.85,.09,.53,.6,1.75,.17,1.86,1.38-2.55-.38-5.09-.76-7.64-1.14-.21-.47-.46-.58-.78-.09-1.29-.07-2.58-.14-3.87-.22-.19-.02-.39-.04-.58-.06-.84,.14-1.73,.42-.72,1.39,.67,.64,.94,1.41,1.2,2.18,.71,2.13,1.9,3.21,4.22,3.16,1.88-.04,3.81,.37,5.66,.85,4.27,1.09,8.38,2.55,11.37,6.26,.77,.96,1.01,2.46,2.51,2.76,1.18,.24,2.3,.7,3.35,1.36,.82,.51,1.24,.24,1.31-.83,.21-3.32-.99-6.15-2.81-8.71-2.05-2.89-5.13-4.16-8.22-5.37,.05-.86,.69-.72,1.21-.78,4.02,1.4,7.58,3.45,9.61,7.58,.32,.66,.73,.78,1.35,.79,6.33,.1,12.68,4.61,14.75,12.06,.36,1.31,.61,2.61,.88,3.93,.27,1.28,.79,2.35,1.53,3.5,1.85,2.84,3.76,5.77,3.95,9.43,0,2.96,0,5.93,0,8.89-.3,1.48-.44,2.96,0,4.43,.02,.99,.05,1.97,.04,2.96,0,.71,.02,1.35,.93,1.36,.27,.67,.23,1.35,.03,2.03-.62,1.53-1.22,3.05-1.01,4.77-.22,.68-.08,1.47-.62,2.04-.09,.08-.13,.18-.13,.31,0,0,0,.03,0,.03-.74,.05-.77,.59-.76,1.17-.13,.28-.25,.56-.38,.84-.08,.17-.17,.35-.25,.52l-.11-.05s.11,.06,.11,.06c-1.2-.12-.9,1-1.22,1.61-.13,.61-.5,1.03-.96,1.43-2.06,1.81-3.13,4.19-4.02,6.84-1.47,4.34-4.59,7.37-8.3,9.76-2.27,1.46-4.68,2.53-7.23,3.34-2.33,.74-3.9,2.83-6.1,3.87-1.21,.57-2.41,1.14-3.64,1.68-.92,.3-1.84,.6-2.76,.9-.23,.09-.47,.18-.7,.26-.98-.14-1.87,.17-2.73,.62-.62,.08-1.24,.16-1.85,.24-.3-.14-.6-.19-.83,.13-.89,.08-1.78,.17-2.67,.25-.8-.19-1.6-.13-2.38,.12-4.09,0-8.18,.03-12.22-.67-2.63-.46-5.04,.48-7.44,1.14-7.02,1.93-14.12,3-21.21,1.2-3.34-.85-6.11,0-9.16,.74-7.5,1.85-14.95,.79-22.33-1-1.45-.35-2.86-.47-4.35-.33-8.64,.82-17.29,1.68-25.98,.71-1.99-.22-3.86-1.33-5.98-.56-4.98,1.79-10.12,2.51-15.4,2.45-5.29-.06-10.34-1.23-15.2-3.31-1.41-.6-2.7-.9-4.22-.71-2.46,.31-4.95,.36-7.43,.53,.01-.31,.03-.62,.04-.93,2.37-.27,4.74-.55,7.11-.82-1.72-1.41-2.97-3.12-4.26-4.77-.67-.85-1.35-.42-2.07-.24-4.91,1.23-9.88,1.97-14.94,1.87-3.4-.07-6.76-.58-9.73-2.37-1.37-.83-2.39-.94-3.57,.04,4.7,3.49,9.86,5.66,15.59,6.29,0,.33,0,.66,0,.99-.69-.05-1.44,.07-2.06-.18-4.79-1.95-9.4-.07-14.06,.62-.43-.06-.86-.12-1.3-.18,.05-.32,.09-.64,.14-.97,.29,.01,.61,.1,.82-.21l2.25-.22c1.46-.06,2.83-.45,4.44-1.16-1.15-.44-1.79-1.26-2.79-1.3-.25-.2-.5-.41-.75-.61-.15-.46-.51-.44-.87-.41-.41-.48-.87-.84-1.52-.85-.38-.59-.81-1.09-1.56-1.11-.12-.41-.24-.82-.36-1.23,4.36-2.29,9.11-3.43,14.25-5.15-4.95-1.48-9.42-1.76-13.9-1.88-.11-.33-.22-.65-.34-.98,.1-.41,.2-.82,.3-1.23,0,0,.03-.03,.03-.03,.28-.05,.61,.06,.81-.27Zm202.21-35.32c.25,1.12,.22,2.34,.89,3.35,.91-.79,2.64-3.01,2.68-3.45,.09-1.14-1.04-1.39-1.47-2.17-.55-1.01-1.2-2.7-2.2-2.35-1.29,.45-.39,2.22-.56,3.4-.39,.77,0,1.07,.66,1.22Zm-17.98,41.27c-.34,0-.6,.12-.69,.5-.15,.99,.57,1.01,1.18,1.2,5.66,1.79,11.35,2.25,17.07,.33,3.37-1.13,6.73-2.29,9.33-5.01,1.11-.28,1.73-1.16,2.31-2.09,1.67-1.55,2.86-3.43,3.51-5.67,.4-1.38-.19-1.52-1.22-1.07-2.67,1.18-5.44,1.82-8.34,1.86-1-.92-.67-2.21-.41-3.15,.59-2.16-.33-4.19-.12-6.28,.08-.78-.36-1.06-1.03-1.06-.11-.09-.14-.21-.1-.34-.04-.13-.08-.27-.12-.4-.3-.54-.63-.68-1.24-.38-5.41,2.75-9.32,7.07-11.44,12.87-.83,2.29-2.08,4-3.69,5.48-1.33,1.22-.3,1.23,.44,1.56-1.26,.99-2.69,.25-4.03,.44-.76,.11-1.41,.11-1.34,1.16l-.05,.05Zm42.15-31.17c.02-.68,.2-1.37-.14-2.02-.44-.63-.13-1.76-1.19-1.99-1.79,3.99-3.53,5.79-7.16,7.32-.6,.25-.95,.52-.95,1.26-.03,2.58-.5,5.05-1.31,7.52-.84,2.56-2.35,4.39-4.32,5.99-.82,.67-2.03,.63-2.77,1.78,6.6-.75,11.68-3.69,14.98-9.64,.9,.13,1.02-.44,.95-1.17,.29-.91,.58-1.82,.87-2.73,1.06-.25,.63-1.09,.64-1.76,.14-1.52,.28-3.05,.41-4.57Zm-1.48-18.88c-.21-2.95-2.11-5.13-3.24-7.66-.39-.86-1.06-.36-1.31,.16-.99,2.01-2.68,3.08-4.56,3.94-.88,.4-1.03,.93-.56,1.88,1.6,3.21,2.96,6.48,3.82,10.07,.99,4.11,.88,7.7-1.65,11.09-.3,.4-.65,.95-.19,1.42,.35,.35,.79,.14,1.22-.1,2.9-1.63,4.51-4.25,5.39-7.47,.17-.08,.45-.12,.49-.25,1.55-4.29,2.49-8.62,.59-13.08Zm-69.66,54.3c-.77-.54-1.58-.88-2.71-.53,.83,.48,1.37,1.14,2.26,1.03,12.03,7.02,34.75,6.92,43-.19-.09-.06-.19-.19-.27-.18-5.42,.66-10.61-.38-15.65-2.42-.58-.23-1.02-.16-1.61,.08-8.14,3.19-16.43,4.59-25.02,2.22Zm-72.96-6.72c-.69-.09-1.22,.33-1.79,.6-.53-.03-.98,.12-1.31,.57-2.88,1.03-5.47,2.73-8.23,4.03-.4,.19-.99,.19-.99,.73,0,.52,.59,.59,.99,.79,5.31,2.59,10.82,2.77,16.4,1.36,5.62-1.41,10.65-4.5,16.09-6.43,.39-.01,1.08,.19,1.01-.38-.09-.71-.88-.39-1.37-.51-.93-.18-1.85-.45-2.78-.54-5.84-.57-11.66-1.86-17.54-.39-.21-.1-.37-.04-.47,.17Zm-46.29,4.92c.69,.44,.94,.69,1.22,.77,13.5,3.85,26.41,2.01,38.81-4.52,.99-.52,.54-1.07-.16-1.36-1.54-.63-3.11-1.11-4.77-1.31-5.52-.65-10.9,.57-16.34,1.12-6.43,.65-12.24,3.28-18.76,5.29Zm118.95,.1c.83,.69,1.59,.78,2.32,.94,6.26,1.36,12.44,.85,18.49-1.18,4.9-1.64,9.6-3.71,13.3-7.68,.61-.66,1.14-1.26-.11-1.35-4.62-.32-9.26-1.4-13.86-.01-7.03,2.12-13.35,5.92-20.14,9.28Zm-84.83,8.71c-2.39-1.73-4.62-3.17-6.4-5.17-.78-.87-1.55-1.02-2.54-.86-2.45,.41-4.9,.77-7.39,.93-6.47,.43-12.85,.3-18.86-2.71-.66-.33-1.24,0-1.86,.09-.92,.13-.65,.73-.31,1.1,1.05,1.12,1.91,2.45,3.22,3.28,4.21,2.67,8.74,4.44,13.61,5.17,6.87,1.03,13.62,.48,20.52-1.85Zm148.07-48.38c.07-4.75-1.71-8.76-3.65-12.67-.7-1.4-1.11-3.22-2.83-3.79-2.54-.83-4.99-1.9-7.38-3.12-1.02-.52-1.35-.18-1.59,.81-.96,3.98-.07,7.47,2.22,10.79,3.17,4.6,8.2,7.35,11,12.31,.26,.47,.71,.88,1.31-.15,.84-1.42,.72-2.89,.93-4.18Zm-2.81,10.16c-.15-1.63,.43-3.39-.45-4.9-1.83-3.11-4.45-5.46-7.06-7.82-.53-.48-1.05-.66-1.44-.13-.8,1.08-1.59,2.24-1.86,3.58-.85,4.13,.38,8.06,1.78,11.75,1.02,2.69,1.37,5.49,2.22,8.18,.3,.97-.53,2.52,.45,2.88,1.09,.4,1.84-1.14,2.78-1.75,.25-.16,.36-.54,.54-.81,2.32-3.26,3.21-6.96,3.05-10.98Zm-23.3-45.12c-.89,0-1.79-.03-2.68,0-.69,.03-1.04,.6-.51,1.02,.75,.61,1.01,1.5,1.6,2.18,5.62,6.52,12.64,10.78,20.43,13.79,1.25,.48,1.39,.01,1.35-1.14-.13-3.73-1.81-6.9-4.18-9.29-4.37-4.42-9.84-6.6-16.01-6.57Zm-95.81,76.53c2.01,2.69,4.44,4.8,7.49,5.88,4.29,1.51,8.73,2.36,13.24,2.79,4.49,.42,8.91,.08,13.27-1.06,.59-.15,1.46-.12,1.53-.87,.06-.64-.79-.7-1.27-.97-1.89-1.05-3.84-2-5.54-3.39-2.03-1.66-4.07-2.25-6.8-1.63-5.17,1.18-10.45,1.68-15.78,.9-2.1-.31-4.13-.81-6.14-1.64Zm-53.52-5.88c-13.03-3-25.49-.3-38.3,3.89,1.8,1.35,3.38,1.92,5.05,2.27,5.29,1.11,10.52,.41,15.75-.51,6.07-1.07,11.74-3.44,17.5-5.66Zm177.17-59.32c-.54-4.53-2-8.69-5.07-11.99-2.05-2.2-4.67-3.57-7.63-4.07-1.07-.18-1.95-.18-1.38,1.49,.54,1.59,.36,3.29,.26,4.95-.04,.65-.15,1.15,.53,1.7,4.17,3.39,7.03,7.61,7.28,13.36,.03,.64,.26,1.08,.94,.84,2.12-.75,5.27-3.71,5.07-6.28Zm-118.66,71.63c-2.02-1.37-3.96-2.82-5.42-4.63-1.23-1.52-2.19-1.44-3.72-.86-7.64,2.89-15.29,3.41-22.76-.56-1.24-.66-2.33-.85-3.61-.54-1.18,.28-1.15,.85-.39,1.62,3.13,3.15,6.77,5.18,11.14,5.77,3.88,.53,7.76,.63,11.65,.46,4.37-.19,8.73-.43,13.11-1.25Zm-75.67-14.59c.82,0,1.27,.05,1.7,0,5.24-.64,10.48-.53,15.56,.96,2.66,.78,4.94,.16,7.38-.68-5.85-4.21-17.63-4.51-24.64-.27Zm74.01,.05c2.45,.52,4.86,1.5,7.25,1.45,3.82-.08,7.45-1.89,11.53-1.84-5.57-4.22-15.15-3.87-18.78,.39Zm-31.7-1.61c3.74-.03,7.02,.57,10.01,2.39,.35,.21,.72,.31,1.1,.17,2.67-.98,5.42-1.59,8.44-1.82-4.82-4.59-15.49-3.85-19.55-.74Zm-46.88,2.27c-5.12-3.83-16.07-4.64-19.47-1.55,3.97,.26,7.87,.49,11.51,1.8,2.68,.96,5.05,.12,7.96-.24Zm175.02-14.74c1.94-1.45,3.55-2.8,5.29-3.93,3.58-2.32,3.56-2.25,2.52-6.45-.26-1.06-.65-1.25-1.39-.69-3.54,2.71-6.32,5.91-6.42,11.07Zm-11.42,9.19c1.33,.17,2.45,.3,3.57,.45,2.76,.37,3.96-.51,4.6-3.32,.16-.71,.15-1.31-.71-1.04-2.64,.81-5.27,1.69-7.46,3.91Zm9.95-54.05c.68,3.58,2.19,5.81,4.88,7.12,.55,.27,1.34,.85,1.6-.04,.25-.84,1.1-2,.08-2.75-1.99-1.47-4.12-2.74-6.56-4.33Zm-13.05-8.9c2.24,2.04,4.57,2.78,7.1,3.45-1.12-3.59-2.19-4.12-7.1-3.45Z"/>
  <path class="cls-14" d="M257.88,82.43c0,.36,0,.72,0,1.08-.38,.04-.76,.09-1.14,.13-.4-.48-.78-.53-1.13,.06-2.21,.98-4.7,.63-7.22,1.64,3.87,2.69,8.04,3.67,12.18,4.73,0,.26,0,.52,0,.78-.07,.08-.13,.17-.16,.27-4.63-.69-8.98-2.25-12.98-4.76-2.01-1.26-4.1-1.15-6.27-.98,.2,.35,.44,.53,.7,.68,4.93,3.06,9.83,6.15,14.12,10.19,3.02,2.85,5.52,6.12,6.79,10.17,.48,1.53,.29,3.26-.3,4.99-.56,1.64-2.05,2.86-1.92,4.77-.03,.72,.17,1.22,.99,1.09,.68-.4,1.35-.81,2.03-1.21,.65,.03,1.08-.23,1.15-.95,1.39-2.38,3.37-4.43,3.64-7.41,.46-.04,.64-.32,.65-.77,.21-2.96,.17-5.86-.92-8.7-.78-2.04-2.23-3.57-3.35-5.35,.45-.03,.9-.06,1.34-.09,1.3,.93,1.59,2.75,2.92,3.65,0,.14,0,.28-.01,.43-.02,.13,.01,.25,.1,.35,.38,.89,.8,1.78,.69,2.8,0,2.45,0,4.89,0,7.34,.09,.69,0,1.35-.4,1.93-.58,.42-.38,1.04-.39,1.62h0c-1.25,.64-1.26,1.31-.03,1.99,.26,.35,.34,.76,.3,1.19-.43-.01-.87-.02-1.3-.03-.18-.02-.36-.04-.54-.06-.66-.46-.68,.04-.73,.52-.75,1.69-2.07,2.88-3.62,3.53-1.43,.6-1.38,1.68-.86,2.47,1.05,1.59,.64,3.28,.78,4.94-.18,.81,.19,1.5,.44,2.22,.22,2.03,.2,4.06,.01,6.09-.33,.56-.69,1.12-.42,1.83-.1,1.19-.1,2.24,1.51,1.39h-.03c.1,.28,.2,.57,.31,.86-.27,.77-1.06,.72-1.58,1.09-.5,0-1.04-.08-1.16,.65-2.05,4.94-4.72,9.33-9.57,11.8-.78,.39-1.41,1.02-.01,1.55,1.04-.1,2.15,.4,3.09-.44,.56,0,1.13,0,1.69,0,.12,.43,0,.73-.42,.88-.4,.04-.81,.09-1.21,.13-.99,.08-1.98,.16-2.98,.23l.06-.07,.09,.09c-1.04,.41-2.12,.55-3.23,.48-.21-.22-.42-.45-.63-.67,.31-.39,1.26,.04,1.08-1.2-1.68,.81-3.75-.07-5.31,1.73,.72,.05,1.27,.09,1.83,.13-.05,.23-.11,.46-.16,.68-.37,.16-.73,.32-1.1,.48-2.05-.6-3.56,1.14-5.42,1.37-.16,.06-.32,.12-.47,.18-.08,0-.15,.03-.21,.09-3.58,1.06-7.16,2.12-10.74,3.18-.15,.08-.3,.16-.45,.24-.26,.04-.51,.09-.77,.13,.05-.37,.11-.74,.16-1.11,.13-.98,0-.99-.98-.05-1.32,.27-2.38-1.37-4.16-.56,1.54,.74,2.6,1.98,4.14,.81,.18,.36,.37,.72,.55,1.08-3.88,1.54-7.76,3.09-11.44,5.11-1.48-.72,.74-.78,.22-1.33,2.3-1.14,4.56-2.38,6.92-3.39,1.3-.56-.16-.58-.05-.86-.11-.41-.34-.79-.74-.79-2.17-.02-4.35-.46-6.49,.21-.75,.04-1.5,.08-2.25,.11-.79,.07-1.67-.41-2.33,.43-.27,.05-.55,.1-.82,.16-.31-.28-.55-.21-.73,.16-.21,.03-.41,.07-.62,.1-.17,.07-.34,.13-.51,.2-.26-.02-.52-.05-.79-.07-.44-.53-.44-1.12-.23-1.75,.63,.07,1.27,.26,1.88,.19,.8-.09,1.48-.69,.85-1.48-1.29-1.62-2.3-3.53-4.12-4.64-.52-.24-.64,.09-.69,.53-.02,.12-.08,.2-.18,.25-.38-.14-.51-.45-.55-.84,.18-.3,.35-.61,.53-.91,.05-.18,.1-.37,.15-.55-.22-.45-.45-.89-.67-1.34,.02-.58-.22-.91-.81-.88,0,0,0,0,0,0-.08-.14-.17-.27-.25-.41l-.14-.38c-.08-.15-.16-.31-.24-.46h-.1s.02-.12,.02-.12c0-.6-.16-1.07-.86-1.03,0,0,.01,.02,.01,.02-.08-.15-.16-.3-.24-.44-.16-.33-.31-.65-.47-.98,.02-.75,.03-1.49-1-1.45-.18-.44-.36-.89-.54-1.33,.03-.58-.09-1.05-.78-1.06h0c-.03-.7,.14-1.24,.9-1.34l-.02,.06c-.1,.36-.07,.67,.28,.88,.13,.26,.25,.52,.38,.78-.03,.51,.2,.8,.69,.84,1.3,2.15,2.59,4.3,3.89,6.45,.02,.49,.27,.73,.73,.74,.39,.7,.78,1.39,1.17,2.09,.05,.51,.34,.72,.81,.7,.24,.44,.48,.87,.72,1.31,.05,.51,.35,.7,.8,.71,1.58,2.66,3.97,3.57,6.84,3.52,1.51-.03,3.02,.02,4.54,.03,.58,.06,1.17,.16,1.27-.72,.03-1.14-1.34-1.08-1.55-2.02,0-.56-.28-.81-.8-.8-.24-.43-.48-.85-.72-1.28-.01-.13-.06-.23-.15-.32-.11-.07-.17-.17-.18-.3-.02-.6-.29-.94-.89-.96-.23-.39-.47-.77-.7-1.16,0-.53-.25-.8-.76-.81-.25-.46-.5-.91-.76-1.37-.05-.44-.3-.63-.71-.64-.28-.56-.55-1.11-.83-1.67-.01-.49-.27-.72-.73-.74-.72-1.5-2.11-2.6-2.36-4.37,.02-.54-.25-.8-.75-.83-.66-1.68-2.1-2.98-2.27-4.9,0-.59-.09-1.1-.82-1.09-.36-1.24-.73-2.48-1.09-3.72-.31-.89,.64-2.22-.86-2.69-.15-2.02-1.01-3.74-2.09-5.36-1.39-2.08-2.71-4.2-2.92-6.84-.09-.21-.17-.42-.26-.63-.27-.01-.54-.02-.81-.04-.14-.42-.28-.85-.42-1.27-.02-.16,.04-.26,.18-.31,.08-.13,.16-.27,.24-.4h0c.67-.06,.79-.53,.77-1.11-.05-2.57,.01-5.13,.39-7.67-.05-.34,.07-.61,.31-.83,.39,.13,.79,.27,1.18,.4,.04,.44-.01,.86-.29,1.22-1.5,.35-.58,1.59-.81,2.41-.58,3.74,.46,7.24,1.88,10.53,1.85,4.29,4.49,8.07,7.91,11.21,2.33,2.14,4.91,3.91,7.63,5.44,.41,.23,1.48,1.19,1.43-.34-.1-3.11,.45-6.26-.46-9.32-.59-1.99-2.3-3.24-3.08-5.1-.07-.14-.14-.28-.21-.43-.09-.02-.12-.07-.11-.16-.05-.56-.18-1.04-.87-1-.23-.34-.46-.68-.7-1.02,0-.58-.16-1.01-.82-1-.89-1-1.81-1.97-2.26-3.3-.03-.48-.3-.7-.74-.72-.52-1.31-1.63-2.27-1.95-3.7,0-.1-.05-.18-.11-.25-.1-.41-.19-.82-.29-1.23,.04-.52-.18-.81-.69-.84-.55-1.85-1.01-3.72-.92-5.68,.04-.72,.05-1.4-.95-1.24-.12-.34-.24-.69-.36-1.03,0,0,.1-.09,.1-.09,.47,.04,.85-.06,.96-.63l.21-.51c1.27,.02,.73,1.05,.9,1.71,.22,.9-.66,2.15,.76,2.67,.02,.22,.04,.44,.07,.66,0,.23,0,.47,0,.7,.22,1.14,.76,2.21,.72,3.42-.03,.53,.2,.82,.71,.84,.27,.8,.53,1.61,.8,2.41,0,.52,.24,.78,.73,.8,.26,.55,.52,1.1,.79,1.65,.02,.51,.28,.74,.75,.75,.26,.53,.53,1.07,.79,1.6,.06,.5,.14,.98,.76,.45,.11-.04,.22-.07,.33-.08,.75-.51,.38-1.3,.44-1.98,.02-.26,.03-.52,.05-.79,.49,0,.98,0,1.47-.01-.15,1.47-.3,2.95-.46,4.42-.04,.04-.12,.08-.11,.11,.02,.1,.07,.18,.1,.28,.62,1.93,1.88,2.37,3.17,.98,1.62-1.74,2.83-3.71,3.2-6.23,.27-1.85-.01-3.76,.44-5.54,.97-3.8-1.53-5.46-3.78-7.49-.62,1.49,.17,3.14-1.03,4.27-.08,.21-.17,.43-.25,.64-.02,1.42,.04,2.85-.35,4.23-1.63-.37-.6-1.87-1.06-2.74,.06-.58,.12-1.16,.18-1.74,1.43-.94,.42-2.41,.73-3.6-.1-1.42,.89-2.89-.02-4.24-1.84-2.72-2.9-5.7-3.02-9.03-.2-.8,.51-1.9-.71-2.37l-.02-1.99c1.11-.75,1.27-1.42-.16-1.96-1.53,.64-2.68,1.75-3.55,3.19-.04,.17-.08,.33-.12,.5,.04,.1,.03,.19-.05,.27-.64,.15-1.32,.35-1.16-.79,.12-.27,.24-.54,.36-.81,.5-.02,.79-.25,.78-.81,.3-.77,.57-1.56,1.56-1.59l.35-.26c.21-.33,.48-.48,.86-.32,.48,.19,.89,.19,1.07-.43,1.77-.69,3.36-1.95,5.4-1.81,.73,.05,.71-.8,1.08-1.2,.32-.04,.67-.06,.71-.5,.06-.56-.34-.63-.73-.69-.09-.41-.17-.82-.26-1.23,.58-.48,.05-.77-.17-1.12-.24-.42-.25-.85-.1-1.3,.23-.31,.19-.66,.1-1.01-.1-.65,.06-1.23,.42-1.76,.51-.02,.83-.24,.78-.83h0c.32-.1,.43-.35,.44-.68l.06-.08c.43-.31,.4-.71,.18-1.14-.44-1.03-.67-2.11-.65-3.24-.02-.65,.29-1.47-.73-1.63-.12-.71-.24-1.42-.37-2.13-.15-.65-.39-.89-.82-.19-.74,.28-1.49,.4-2.28,.34-.08-.6,.43-.75,.73-1.07,1.85-.06,2.26-1.11,1.87-2.83-.22-.95-.32-1.94-.36-2.91-.03-.82-.38-1.17-1.11-1.22-.22-.43-.09-.69,.34-.82,.48-.01,.91-.18,.72-.76-.18-.54-.62-.48-1.03-.19-1.68,.78-3.63,.61-5.23,1.65-.44-.33-.86,.1-1.3,.02-.07-.62,.63-.68,.77-1.15,1.21-.34,2.37-.94,3.68-.81,.39,.06,.73-.02,.93-.42,.17,0,.34,0,.5,0,.4,.08,.77,.07,.98-.38,0,0-.03,.02-.03,.02,1.26,.02,1.19-.94,1.2-1.81,.01-1.08,.38-.42,.67-.17-.21,2.81-.04,5.62,.09,8.43,.11,.72-.44,1.7,.73,2,.18,1.88,.86,3.68,.81,5.59-.04,.59-.04,1.15,.73,1.22,.14,.81,.28,1.62,.42,2.43-.01,.91-.09,1.87,1.16,1.97,.9,1.2,2.4,1.39,3.49,2.28,.31,.76,.96,.46,1.49,.52h0c.36,.61,.94,.39,1.45,.44l.07,.03c.29,.44,.71,.39,1.14,.35l2.74,.52c1.09-.59,1.08-3.01-.02-4.13-.26-2.53-.53-5.06-.79-7.6-.18-.97,.64-2.24-.8-2.81-.31-.91-.34-1.86-.29-2.81,.37-.41,.67-.97,1.36-.75,.18,0,.36-.02,.55-.03,.4,.02,.81,.08,1.1-.33,.71-.19,1.42-.38,2.13-.57l.5-.04c.92-.23,1.83-.46,2.75-.69,.17-.02,.34-.03,.51-.05,.12-.04,.24-.07,.35-.11,.61,.24,1.07,.03,1.42-.5,.89-.05,1.66-.76,2.6-.58,.14-.03,.28-.06,.43-.09,.96-.73,2.06-.7,3.16-.65,.49,0,.99,0,1.48,0-.76,.4-1.52,.8-2.28,1.21,0,0,0,0,0,0-.62,.47-.81,1.11-.66,1.87-.03,.17-.06,.34-.08,.51-.4,0-.81,0-1.21,0,.35-1.71-.41-1.85-1.74-1.46-1.45,.43-2.93,.71-4.4,1.05-.1-.02-.18,0-.26,.07-1.58,.45-3.15,.93-4.74,1.33-.95,.24-1.43,.7-1.19,1.79,.11,.51,.08,1.05,.11,1.58,.1,.73-.48,1.73,.7,2.05,.02,.37,.05,.75,.07,1.12,0,.22,.02,.43,.03,.65,.58,2.17,.72,4.39,.7,6.64-.05,1.27-.57,2.64,.73,3.61,1.36,.45,2.74,1.2,3.9-.4,.45-.01,.74-.22,.77-.72,.07-.17,.13-.34,.19-.52,.03-.19,.06-.37,.09-.56-.07-.41-.01-.78,.31-1.07,.43,.02,.86,.05,1.29,.07-.09,.73,.21,1.13,.84,1.52,1,.62,2.2,.89,3,1.86-.04,.35-.21,.58-.52,.71-.71-.4-1.44-.77-2.13-1.2-1.41-.87-2.44-.72-2.91,1.1-.13,.77-.89,.73-1.32,1.12-1.74,.05-3.42-.42-5.09-.8-4.09-.93-8.2-1.85-11.76-4.36-1.39-.98-1.95-.78-2.17,.97-.38,3.01,.31,5.57,2.81,7.5,3.54,2.73,7.47,4.44,11.74,5.34,4.73,.99,9.46,2.04,14.35,1.09,2.81-.54,5.66-.85,8.49-1.27Zm-47.11,56.09c0,.14,.04,.26,.13,.36l3.69,6.48c0,.51,.26,.76,.74,.79,.27,.52,.54,1.03,.82,1.55-.03,.56,.24,.82,.76,.84,.25,.44,.5,.88,.74,1.31-.01,.64,.14,1.12,.89,1.04,1,1.92,2.36,3.62,3.85,5.02,.9,.85,1.67,2.83,3.69,1.96-.78-2.69-2.62-4.77-3.51-7.3-1.16-3.27-2.11-6.6-2.33-10.15-.1-1.67-.76-3.1-2.53-4.02-3.71-1.93-7.23-4.25-9.99-7.6-.28-.64-.78-1.46-1.35-1.09-.53,.34-.28,1.29,.26,1.86,.04,.05,.1,.08,.14,.12,.51,1.63,1.53,3.07,1.67,4.84-.03,.63,.04,1.17,.83,1.16,.24,.66,.48,1.33,.73,1.99-.03,.56,.25,.81,.76,.83h0Zm20.74-10.41c.14,1.09,1.3,1.13,1.77,1.88,.36,.57,1.19,1.24,1.42,1.04,.58-.52,1.55-.98,1.3-2.12,.63-.64,1.02-1.56,1.36-2.29,.95-2.02,2.85-3.71,.84-6.65-3.78-5.53-8.01-10.54-12.83-15.05-.3-.28-.55-.63-.96-.37-.37,.23-.27,.7-.32,1.08-.55,3.73-.35,7.46,.18,11.14,.25,1.78,.85,3.68,1.82,5.14,1.52,2.29,3.32,4.41,5.42,6.2Zm12.57,24.82c1.39-1.54,1.77-3.52,2.37-5.47,1.69-5.46,1.24-11,.94-16.55-.02-.41-.01-1.02-.59-1.12-.54-.09-.73,.43-.99,.8-3.04,4.22-6.3,8.28-8.59,13.02-1.71,3.55-3.44,7.11-3.65,11.23-.07,1.38,.47,1.93,1.65,1.66,2.03-.45,4.16-.59,6.05-1.63,.43,.08,.81,.03,.94-.5,.23-.22,.47-.43,.7-.65,.58,.04,1.14,.06,1.17-.79Zm17.25-43.78c-.04-1,.08-1.73-.13-2.32-1.4-3.95-3.76-7.18-6.75-10-2.83-2.67-5.98-4.87-9.18-6.92-3.8-2.43-7.45-5.19-11.96-6.32-4.13-1.03-8.1-2.65-11.43-5.6-.81-.72-1.45-.71-1.48,.74-.02,1.06-.25,2.09-.15,3.18,.4,4.26,3.12,6.94,5.95,9.45,6.18,5.48,13.62,8.82,20.59,12.95,4.24,2.51,9.02,4.25,12.08,8.61,.4,.57,1.04,.57,1.2-.04,.37-1.37,1.63-2.45,1.26-3.73Zm.44,21.2c.41-4.21-.6-8.2-1.95-12.07-.59-1.69-1.26-3.38-2.39-4.85-2.21-2.88-5.34-4.31-8.23-6.15-1.31-.83-1.64-.48-1.58,1.04,.31,7.07-.03,14.15,1.18,21.21,1.16,6.79,.96,13.64-1.23,20.28-.18,.55-.67,1.2-.24,1.68,.48,.54,1.21,.14,1.81-.03,5.53-1.55,8.66-5.82,11.01-10.86,1.5-3.21,1.99-6.66,1.62-10.24Zm-38.75-11.01c-.57,2.96-2.23,5.48-2.02,8.59,.27,4.07,.1,8.11,.75,12.22,.87,5.48,2.33,10.59,5.17,15.25,.65,1.07,1.55,2.27,3.03,1.95,1.52-.33,1.79-1.69,1.9-3.08,.06-.79-.05-1.7,.28-2.36,1.03-2.09,.58-3.89,.08-6.14-1.08-4.79-2.29-9.64-2.41-14.63-.03-1.29-.29-2.42-1.08-3.47-1.99-2.65-4.68-4.79-5.7-8.34Zm-4.42-38.61c-.09-.91,.5-1.74-.33-2.23-.69-.41-1.37,.09-2.01,.32-.67,.24-.78,.98-1.02,1.6-.57,1.47-.13,2.93-.04,4.39,.28,4.92,2.23,9.08,5.08,12.94,1.95,2.65,4.62,4.43,6.85,6.74,2.27,2.36,4.64,4.61,6.72,7.17,.22,.27,.78,1.33,1.24,.44,.37-.71,.94-1.32,1.03-2.28,.23-2.33,.39-4.63-.03-6.96-.36-2.01-1.15-3.69-2.93-4.72-3.71-2.13-7.18-4.63-10.18-7.75-2.59-2.7-4.75-5.71-4.38-9.66Zm19.14,20.36c-.04,.37-.1,.56-.09,.75,.3,3.41,.83,6.8-.76,10.09-.73,1.52-.72,2.99,.76,4.39,.96,.91,1.84,2.19,2.2,3.63,.32,1.29,.8,1.21,1.5,.31,1.35-1.73,2.74-3.42,4.03-5.19,.45-.61,.67-1.39,.65-2.25-.05-2-.01-3.99,0-5.99,0-.61,.06-1.3-.53-1.6-2.58-1.33-4.97-3.07-7.77-4.15Zm-2.12,41.74c2.37-4.4,5.33-8.28,8.27-12.18,1-1.32,2.71-2.37,2.6-4.24-.18-3.03-.47-6.05-.39-9.62-6.31,7.87-11.7,15.51-10.48,26.04Zm-4.17-12.19c.22,4.25,.73,8.28,1.88,12.49,.63-1.86,.09-3.66,.62-5.26,1.26-3.85,.95-4.92-2.49-7.22Zm-11.24-6.92c.13-2.9,1.74-5,2.21-7.71-1.47,1.76-2.85,3.24-4.73,4.32,1.11,.82,1.1,2.38,2.52,3.4Z"/>
  <path class="cls-9" d="M121.19,19.55c2.68-.59,5.38-.45,8.09-.27,1.47,1.71,2.23,3.88,3.42,5.77,3.3,5.23,6.72,10.38,9.97,15.64,3.1,5,6.43,9.81,10.05,14.41,1.25,1.79,2.37,3.7,3.77,5.35,2.85,3.37,5.61,6.83,8.65,10.02,3.23,3.39,6.46,6.79,10.31,9.42,8.16,5.58,17.22,7.97,26.92,7.91,3.96-.02,3.89-.03,3.78,4.2-.04,1.58-.57,2.08-2.02,2.07-4.28-.03-8.54-.21-12.76-1-9.24-1.73-17.67-5.27-24.97-11.64-4.3-3.74-8.3-7.78-11.95-12.18-3.39-4.1-6.82-8.18-9.81-12.62-2.27-3.36-4.54-6.71-6.88-10.02-2.64-3.74-5.11-7.59-7.49-11.51-1.82-3-3.7-5.95-5.42-9-1.22-2.17-2.73-4.18-3.66-6.53Z"/>
  <path class="cls-4" d="M245.15,50.75c-.94-.17-1.7,.53-2.6,.58-.53,0-1.06,0-1.42,.5-.12,.04-.24,.07-.35,.11-.17,.02-.34,.03-.51,.05-.92,.23-1.83,.46-2.75,.69-.17,.01-.34,.02-.5,.04-.71,.19-1.42,.38-2.13,.57-.37,.11-.73,.22-1.1,.33-.18,0-.36,.02-.55,.03-.41-1.17-.66-2.43-.86-3.6-.47-2.71-.72-3.03,2.12-3.69,1.15-.26,2.31-.51,3.46-.77,.95-.03,1.87-.17,2.7-.7,5.52-1.41,11.03-2.84,16.55-4.23,8.07-2.04,16.16-4.03,24.23-6.08,8.99-2.29,17.98-4.56,26.93-7,2.86-.78,5.85-1.03,8.57-2.36,1.75-.41,3.49-.83,5.24-1.22,.49-.11,1.02-.1,1.05-.83,0,0-.04,.02-.04,.02,.72,.63,1.42,.27,2.11-.06,1.03-.25,2.17-.08,3.06-.87l4.12-.8c.15,.02,.3,.04,.44,.06,.91,1.53,1.2,3.03,.13,4.69-.27,.41-.82,1.33,.31,1.96,.69,.39,.62,1.25-.49,1.36,.24-1.24-.6-.93-1.15-.8-1.93,.43-3.85,.88-5.75,1.41-3.67,1.01-7.44,1.65-11.02,3.03-1.51-.03-2.81,.89-4.29,.99l-3.38,.86c-.16,.04-.31,.07-.47,.11-7.14,1.78-14.28,3.51-21.4,5.35-6.39,1.64-12.75,3.4-19.12,5.1-.13,.01-.26,.03-.39,.04-1.06,.22-2.13,.37-3.16,.66-3.66,1.02-7.43,1.56-10.99,2.98-.4,.08-.81,.16-1.21,.24-.67-.07-1.3,.02-1.82,.54-1.1-.06-2.2-.09-3.16,.65-.14,.03-.28,.06-.43,.09Z"/>
  <path class="cls-13" d="M121.19,19.55c.93,2.35,2.43,4.36,3.66,6.53,1.72,3.05,3.6,6.01,5.42,9,2.38,3.92,4.85,7.77,7.49,11.51,2.33,3.31,4.61,6.66,6.88,10.02,3,4.44,6.42,8.52,9.81,12.62,3.65,4.4,7.65,8.44,11.95,12.18,7.3,6.36,15.74,9.91,24.97,11.64,4.22,.79,8.48,.98,12.76,1,1.45,0,1.98-.49,2.02-2.07,.11-4.23,.18-4.22-3.78-4.2-9.7,.06-18.75-2.33-26.92-7.91-3.84-2.63-7.08-6.02-10.31-9.42-3.04-3.19-5.8-6.65-8.65-10.02-1.4-1.65-2.52-3.56-3.77-5.35,.21-.54,.62-.72,1.14-.67,.19,.33,.37,.65,.56,.98,.05,.46,.34,.61,.73,.62,2.14,3.47,5,6.32,7.42,9.56,.39,.53,1.24,1.73,2.04,.33,1.65-2.88,4.33-4.25,7.12-5.47,1.1-.48,2.24-.87,3.37-1.3h1.98c-1.54,1.3-3.54,1.44-5.07,2.63-1.86,.54-3.39,1.72-4.83,2.94-2.06,1.74-1.77,3.15,.72,4.17,.69,.29,1.4,.52,2.11,.78,.14,.35,.29,.69,.43,1.04-1.1-.19-2.2-.37-3.3-.56,.71,.7,1.02,1.67,1.71,2.31,.83,.78,1.71,1.52,2.53,2.3,9.05,8.61,19.9,11.83,31.9,11.94,2.65,.02,4.03-1.04,4.8-3.45-.16,1.14,.52,.94,1.16,.79-.4,.79-.76,1.56-.93,2.49-.36,2.03-.55,4.07-.73,6.11-.11,1.23-1.11,2.45-.53,3.62,.88,1.77,.43,3.6,.64,5.4-1.42-.52-.54-1.77-.76-2.67-.16-.67,.37-1.69-.9-1.71,.2-1.81-.71-2.16-2.26-2.12-11.6,.27-22.55-2.22-32.6-8.48-4.45-2.77-8.32-6.31-11.99-10.08-5.59-5.73-10.58-12.05-15.39-18.48-3.59-4.8-6.86-9.87-10.11-14.93-4.11-6.4-8.06-12.91-12.05-19.39-.85-1.38-1.56-2.85-2.33-4.28,.14-.23,.28-.46,.43-.68,.53,.16,1.15,.1,1.47,.72Z"/>
  <path class="cls-13" d="M234.5,46.35c-2.84,.66-2.59,.98-2.12,3.69,.2,1.17,.45,2.43,.86,3.6-.69-.22-.98,.34-1.36,.75-.85-3.13-1.03-6.3-.5-9.49,.33-1.97,1.39-2.96,2.58-2.23,1.24,.77,2.29,.39,3.42,.1,1.79-.45,3.57-.95,5.36-1.41,2.22-.57,2.51-1.33,.96-3.07-3.59-4.04-7.94-5.85-13.17-4.33-5.06,1.47-8.54,4.81-10.1,10.15-.21,.71-.27,1.44-.95,1.85-.29-.26-.66-.91-.67,.17,0,.87,.06,1.83-1.2,1.81,.59-1.26,.88-2.61,1.26-3.95,1.69-6.09,5.77-9.76,11.5-11.26,5.3-1.39,10.03,0,13.89,4.19,.34,.37,.86,.67,1.02,1.11,.78,2.13,1.98,2.23,4,1.67,6.62-1.83,13.33-3.35,20-4.98l.47-.17c.88-.13,1.66-.76,2.6-.62,1.06,.53,2.25-1.15,3.26,.2-4.98,1.26-9.96,2.5-14.94,3.78-5.16,1.33-10.3,2.7-15.45,4.05-.24,.08-.49,.15-.73,.23-3.85,.99-7.7,1.99-11.55,2.98-.31,.03-.72,.1-.58,.51,.14,.45,.58,.37,.94,.24,.4-.08,.79-.16,1.19-.24,0,.22,.01,.45,.02,.67Z"/>
  <path class="cls-4" d="M245.21,41.97c5.15-1.35,10.3-2.72,15.45-4.05,4.97-1.28,9.96-2.52,14.94-3.78,.24-.1,.47-.19,.71-.29,1.4-.33,2.81-.67,4.21-1,2.72-.61,5.46-1.16,8.09-2.13,.38-.03,.77-.02,1.14-.11,9.96-2.56,19.92-5.14,29.88-7.71,4.02-.99,8.03-1.98,12.06-2.95,.58-.14,.94-.39,.83-1.07,1.41,.46,1.56,1.43,.4,2.64-.15-.02-.3-.04-.44-.06,.19-1.17-.66-.71-1.05-.64-1.03,.2-2.03,.54-3.04,.82-1.04,.26-2.15,.28-3.11,.86-.74,.1-1.52,.06-2.1,.69l.04-.02c-2.32,.19-4.53,.89-6.75,1.58-7.44,1.47-14.69,3.77-22.07,5.52-4.84,1.15-9.67,2.41-14.49,3.65-10.92,2.8-21.83,5.62-32.76,8.36-.55,.14-1.48,.88-1.96-.31Z"/>
  <path class="cls-15" d="M153.87,54.42c-.53-.05-.93,.13-1.14,.67-3.62-4.6-6.96-9.4-10.05-14.41-3.26-5.26-6.67-10.41-9.97-15.64-1.19-1.89-1.96-4.05-3.42-5.77,0,0-.05,.03-.05,.03,.45,.17,.66-.14,.87-.47,.23,.02,.47,.05,.7,.07,.33,.38,.26,1.15,1.01,1.11,1.55,3.45,3.72,6.51,5.62,9.73,1.76,2.99,3.8,5.8,5.59,8.77,2.2,3.66,4.73,7.08,7.12,10.59,1.22,1.79,2.48,3.54,3.73,5.31Z"/>
  <path class="cls-13" d="M307.3,35.01c1.13-.29,2.25-.57,3.38-.86,.06,.32,.12,.63,.19,.95-5.37,1.8-10.91,2.91-16.37,4.35-8.69,2.3-17.43,4.41-26.15,6.59-.15,.03-.31,.07-.46,.1-.36,.3-.78,.26-1.2,.21-.13-.26-.25-.53-.38-.79,6.37-1.7,12.74-3.46,19.12-5.1,7.12-1.83,14.27-3.57,21.4-5.35,.16-.04,.31-.07,.47-.11Z"/>
  <path class="cls-13" d="M199.79,140.38c-.76,.11-.94,.64-.9,1.34-3.19-5.86-5.51-12-4.66-18.89,.41-3.36,1.55-6.57,4.23-8.85,.14,.42,.28,.85,.42,1.27-.99,1.75-1.9,3.51-2.56,5.47-1.02,3.1-.93,6.22-.29,9.21,.77,3.62,2,7.17,3.75,10.45Z"/>
  <path class="cls-9" d="M86.61,160.34c4.49,.12,8.96,.4,13.9,1.88-5.14,1.72-9.9,2.86-14.25,5.15-.5-1.42,1.12-.76,1.28-1.74-.58-.5-1.86-.78-1.61-2.23,.23-1.36,1.32-1.64,2.34-2.09-.42-.71-1.51,.04-1.65-.97Z"/>
  <path class="cls-13" d="M319.64,22.89c-9.96,2.57-19.92,5.15-29.88,7.71-.37,.09-.76,.08-1.14,.11-.11-.49,.23-.65,.54-.82,2.91-1.55,6.17-1.85,9.26-2.71,5.99-1.66,12.06-3.04,18.1-4.52,.23-.06,.5,.06,.75,.1,.78,.12,1.64-1.06,2.37,.13Z"/>
  <path class="cls-15" d="M314.96,33.15c3.58-1.38,7.35-2.02,11.02-3.03,1.9-.53,3.83-.98,5.75-1.41,.56-.13,1.4-.44,1.15,.8-3.86,1.43-7.93,2.05-11.87,3.2-2.12,.62-4.29,1.04-6.44,1.56,.12-.37,.25-.75,.37-1.12Z"/>
  <path class="cls-14" d="M178.59,58.39c2.58-1.33,5.44-1.66,8.17-2.47,3-.89,6.07-1.55,9.11-2.31,.22-.04,.44-.09,.65-.13,.51-.43,1.14-.33,1.73-.39,.55,.15,1.05-.03,1.58-.15,.56-.12,.26,.33,.2,.57-1.84,.49-3.69,.91-5.51,1.48-3,.94-6.15,1.27-9.05,2.6-.25,.04-.5,.07-.75,.11-.52-.18-.97,.19-1.42,.24-1.56,.17-3.04,1.54-4.7,.45Z"/>
  <path class="cls-13" d="M251.76,49.24c3.56-1.42,7.33-1.95,10.99-2.98,1.04-.29,2.11-.44,3.16-.66,.05,.61-.51,.79-.75,1.2-.54,.12-1.07,.24-1.61,.36-.22,.09-.45,.18-.67,.26-4.99,1.26-9.97,2.52-14.96,3.78,.76-.4,1.52-.8,2.29-1.21,0,0,.02-.02,.02-.02,.6-.05,1.37,.28,1.53-.75Z"/>
  <path class="cls-15" d="M319.64,22.89c-.73-1.19-1.58,0-2.37-.13,2.68-1.46,5.68-1.75,8.54-2.54,2.2-.61,4.38-1.42,6.71-1.35,.11,.68-.25,.93-.83,1.07-4.02,.97-8.04,1.96-12.06,2.95Z"/>
  <path class="cls-4" d="M178.59,58.39c1.67,1.09,3.14-.28,4.7-.45,.46-.05,.9-.42,1.42-.24-.02,.3-.06,.58-.38,.7-.98,1.14-2.41,.52-3.59,1.02-2.69,1.14-5.47,2.03-8.22,3.02-.17-.22-.35-.45-.52-.67,1.53-1.19,3.53-1.33,5.07-2.63h-1.98c.91-1.52,2.3-.63,3.49-.74Z"/>
  <path class="cls-13" d="M200.02,53.52c.06-.25,.36-.7-.2-.57-.53,.12-1.03,.3-1.58,.15,4.35-1.5,8.83-2.49,13.29-3.55-.14,.47-.84,.53-.77,1.15-3.52,1.2-7.14,1.98-10.75,2.82Z"/>
  <path class="cls-15" d="M289.16,29.89c-.31,.18-.66,.34-.54,.82-2.63,.97-5.37,1.53-8.09,2.13-.14-.29-.27-.57-.41-.86,2.97-.91,5.91-1.97,9.05-2.1Z"/>
  <path class="cls-14" d="M103.88,175.17c0-.33,0-.66,0-.99,3.96,0,7.91,0,11.87,0-.01,.31-.03,.62-.04,.93-1.13,.28-2.28,.3-3.43,.19-1.27-.51-2.53-.54-3.79,.02-.91-.02-1.82-.04-2.73-.05-.22-.35-.45-.36-.7-.03-.4,.13-.8,.14-1.18-.07Z"/>
  <path class="cls-15" d="M275.88,76.45c-.11-1.21-1.33-.78-1.86-1.38,2.79,.31,5.49,.94,8.06,2.14-.52,.06-1.16-.09-1.21,.78-1.67-.51-3.33-1.02-5-1.53Z"/>
  <path class="cls-13" d="M201.53,104.07c-.39-.13-.79-.27-1.18-.4,.61-1.69,1.59-3.08,3.03-4.1,.05,.05,.1,.1,.15,.15-.05,.57,.28,.73,.73,.76-.91,1.2-1.82,2.4-2.73,3.6Z"/>
  <path class="cls-13" d="M200.04,104.49c-.38,2.54-.45,5.1-.39,7.67,.01,.58-.11,1.06-.77,1.12-.06-2.99-.43-6.03,1.17-8.79Z"/>
  <path class="cls-15" d="M314.16,123.37c0-2.96,0-5.93,0-8.89,.41,.12,.65,.38,.68,.84,.13,2.4,.19,4.79,.01,7.19-.04,.49-.33,.68-.69,.86Z"/>
  <path class="cls-9" d="M91.32,171.57c1,.04,1.63,.86,2.79,1.3-1.61,.7-2.98,1.09-4.44,1.16,.61-.77,2.02-.96,1.65-2.45Z"/>
  <path class="cls-15" d="M315.14,132.13c-.91,0-.94-.65-.93-1.36,.01-.99-.02-1.97-.04-2.96,1.29,1.2,.71,2.87,.97,4.32Z"/>
  <path class="cls-14" d="M314.96,33.15c-.12,.37-.25,.75-.37,1.12-.63,.17-1.27,.34-1.9,.52-.16,.02-.33,.04-.49,.07-.44,.08-.89,.16-1.33,.25-.06-.32-.12-.63-.19-.95,1.48-.11,2.78-1.03,4.29-.99Z"/>
  <path class="cls-13" d="M280.11,31.99c.14,.29,.27,.57,.41,.86-1.4,.33-2.81,.67-4.21,1,0-.33-.02-.67-.03-1,.42-.07,.83-.15,1.25-.22,.4,.14,.78,.19,1.05-.25,.45-.41,.98-.45,1.53-.39Z"/>
  <path class="cls-15" d="M314.16,138.93c-.22-1.72,.39-3.25,1.01-4.77-.25,1.61,.4,3.43-1.01,4.77Z"/>
  <path class="cls-13" d="M108.48,175.32c1.26-.56,2.53-.53,3.79-.02-1.26,.21-2.53,.2-3.79,.02Z"/>
  <path class="cls-15" d="M276.28,32.85c0,.33,.02,.67,.03,1-.24,.1-.47,.19-.71,.29-1.01-1.35-2.2,.33-3.26-.2,1.24-.66,2.63-.73,3.94-1.08Z"/>
  <path class="cls-3" d="M266.57,74.22c-1,.21-2.01,.48-2.95-.23,1-.16,1.99-.2,2.95,.23Z"/>
  <path class="cls-10" d="M277.79,173.28c.92-.3,1.84-.6,2.76-.9-.65,1.2-1.67,1.16-2.76,.9Z"/>
  <path class="cls-10" d="M274.36,174.16c.86-.45,1.75-.76,2.73-.62-.8,.76-1.68,1.09-2.73,.62Z"/>
  <path class="cls-12" d="M86.62,168.59c.75,.01,1.18,.52,1.56,1.11-1.44,1.05-1.56,.07-1.56-1.11Z"/>
  <path class="cls-13" d="M200.21,144.11c1.03-.04,1.02,.7,1,1.45-.81-.12-.81-.85-1-1.45Z"/>
  <path class="cls-13" d="M204.77,98.52c.12,.34,.24,.69,.36,1.03-.16,.18-.33,.35-.49,.53-.37-.12-.74-.24-1.1-.35-.05-.05-.1-.1-.15-.15,.21-.72,.96-.64,1.39-1.05Z"/>
  <path class="cls-15" d="M271.2,74.68c-.76,.09-1.54,.41-2.21-.28,.75-.06,1.52-.24,2.21,.28Z"/>
  <path class="cls-15" d="M265.16,46.8c.24-.4,.8-.59,.75-1.2,.13-.01,.26-.03,.39-.04,.13,.26,.25,.53,.38,.79-.47,.29-.91,.68-1.52,.45Z"/>
  <path class="cls-15" d="M310.8,145.47c.32-.61,.03-1.73,1.22-1.61-.09,.8-.74,1.14-1.22,1.61Z"/>
  <path class="cls-15" d="M273.17,74.97c-.57,.38-1.09,.4-1.53-.22,.54-.13,1.05-.1,1.53,.22Z"/>
  <path class="cls-12" d="M86.46,175.43c.43,.06,.87,.12,1.3,.18-.48,.3-1.05,1.3-1.3-.18Z"/>
  <path class="cls-13" d="M203.47,149.34c.59-.03,.83,.3,.81,.88-.41-.16-.84-.28-.81-.88Z"/>
  <path class="cls-13" d="M201.91,146.96c.7-.04,.85,.43,.86,1.03-.45-.19-.89-.39-.86-1.03Z"/>
  <path class="cls-9" d="M89.7,170.55c.36-.02,.72-.04,.87,.41-.09,.29-.18,.69-.55,.56-.42-.14-.31-.61-.32-.98Z"/>
  <path class="cls-12" d="M86.57,158.12l-.3,1.23c-.63-.61-.5-1.01,.3-1.23Z"/>
  <path class="cls-6" d="M131.81,20.02c-.75,.04-.68-.73-1.01-1.11,.97-.26,1.07,.34,1.01,1.11Z"/>
  <path class="cls-10" d="M266.62,174.91c.78-.25,1.58-.3,2.38-.12-.78,.39-1.58,.29-2.38,.12Z"/>
  <path class="cls-12" d="M87.41,157.81c-.19,.33-.53,.22-.81,.27,.04-.35-.06-.83,.37-.92,.41-.08,.37,.37,.44,.64Z"/>
  <path class="cls-15" d="M312.66,142.48c-.01-.58,.02-1.12,.76-1.17,.15,.67-.32,.91-.76,1.17Z"/>
  <path class="cls-13" d="M198.89,141.72c.69,0,.81,.47,.78,1.06-.43-.21-.92-.38-.78-1.06Z"/>
  <path class="cls-13" d="M247.28,53.08c-.15-.77,.04-1.4,.66-1.87-.22,.62-.44,1.25-.66,1.87Z"/>
  <path class="cls-6" d="M119.72,18.82c-.14,.23-.28,.46-.43,.68-.28-.03-.74,.04-.64-.39,.14-.59,.67-.31,1.06-.3Z"/>
  <path class="cls-12" d="M87.42,174.25c-.22,.31-.53,.23-.82,.21,.15-.61,.38-.87,.82-.21Z"/>
  <path class="cls-10" d="M271.67,174.54c.24-.33,.53-.27,.83-.13-.21,.48-.48,.63-.83,.13Z"/>
  <path class="cls-13" d="M105.06,175.24c.25-.33,.48-.32,.7,.03-.24,.17-.47,.19-.7-.03Z"/>
  <path class="cls-15" d="M278.58,32.37c-.27,.45-.65,.4-1.05,.25,.29-.34,.67-.32,1.05-.25Z"/>
  <path class="cls-13" d="M205.82,97.79c-.1,.57-.48,.68-.96,.63,.11-.56,.61-.46,.96-.63Z"/>
  <path class="cls-15" d="M155.16,56.02c-.4,0-.69-.16-.73-.62,.26,.19,.76,.06,.73,.62Z"/>
  <path class="cls-10" d="M169.8,155.24c-.3,.06-.61,.14-.82-.2,.42-.61,.66-.38,.82,.2Z"/>
  <path class="cls-13" d="M216.15,48.31c-.2,.41-.53,.49-.93,.42,.25-.29,.5-.57,.93-.42Z"/>
  <path class="cls-10" d="M160.95,154.93c-.2,.28-.46,.36-.78,.28,.19-.31,.46-.37,.78-.28Z"/>
  <path class="cls-10" d="M164.02,154.68c-.26,.03-.52,.05-.78,.08,.23-.32,.49-.33,.78-.08Z"/>
  <path class="cls-13" d="M196.52,53.48c-.22,.04-.44,.09-.65,.13,.17-.31,.41-.22,.65-.13Z"/>
  <path class="cls-10" d="M167.1,154.76c-.26-.01-.53-.02-.79-.04,.28-.29,.54-.28,.79,.04Z"/>
  <path class="cls-13" d="M217.63,47.94c-.21,.45-.58,.46-.98,.38,.33-.13,.65-.25,.98-.38Z"/>
  <path class="cls-15" d="M262.89,47.43c.22-.09,.45-.18,.67-.26-.22,.09-.45,.18-.67,.26Z"/>
  <path class="cls-6" d="M130.1,18.84c-.21,.33-.42,.64-.87,.47,.08-.58,.47-.54,.87-.47Z"/>
  <path class="cls-3" d="M312.2,34.85c.16-.02,.33-.04,.49-.07-.16,.02-.33,.04-.49,.07Z"/>
  <path class="cls-15" d="M269.74,34.55l-.47,.17c.16-.06,.31-.12,.47-.17Z"/>
  <path class="cls-15" d="M313.42,141.28c0-.12,.04-.23,.13-.31,.03,.14-.01,.24-.13,.31Z"/>
  <path class="cls-15" d="M312.03,143.84c.08-.17,.17-.35,.25-.52-.08,.17-.17,.35-.25,.52Z"/>
  <path class="cls-13" d="M201.67,146.54c.08,.15,.16,.3,.24,.44-.08-.15-.16-.3-.24-.44Z"/>
  <path class="cls-10" d="M165.56,154.71c-.13,0-.26-.02-.4-.03,.14-.17,.28-.17,.4,.03Z"/>
  <path class="cls-15" d="M267.89,46.14c.15-.03,.31-.07,.46-.1-.15,.03-.31,.07-.46,.1Z"/>
  <path class="cls-13" d="M202.85,148.1c.08,.15,.16,.31,.24,.46-.08-.15-.16-.31-.24-.46Z"/>
  <path class="cls-13" d="M203.22,148.94c.08,.14,.17,.27,.25,.41-.08-.14-.17-.27-.25-.41Z"/>
  <path class="cls-13" d="M204.95,151.56c-.05,.18-.1,.37-.15,.55,.05-.18,.1-.37,.15-.55Z"/>
  <path class="cls-13" d="M198.88,113.27c-.08,.13-.16,.27-.24,.4,.08-.13,.16-.27,.24-.4Z"/>
  <path class="cls-7" d="M257.88,82.43c-2.83,.41-5.68,.72-8.49,1.27-4.89,.95-9.62-.09-14.35-1.09-4.27-.9-8.2-2.6-11.74-5.34-2.5-1.93-3.19-4.5-2.81-7.5,.22-1.75,.78-1.95,2.17-.97,3.56,2.52,7.67,3.44,11.76,4.36,1.67,.38,3.35,.85,5.09,.8,2.42,.8,4.93,.97,7.43,1.23,4.15,.42,7.76,2,10.62,5.29,.55,.64,.68,1.23,.32,1.96Z"/>
  <path class="cls-9" d="M227.24,160.55c.26-.04,.51-.09,.77-.13,.15-.08,.3-.16,.45-.24,3.58-1.06,7.16-2.12,10.74-3.18,0,0,.14,.06,.14,.06,0,0,.08-.15,.08-.15,.16-.06,.32-.12,.47-.18,4.58,.03,9.13,.23,13.67,2.44-7.36,3.67-14.15,7.97-22.09,9.34-4.1,.29-8.19,.34-12.27-.21-1.2-.33-2.41-.65-3.61-1.01-.39-.12-.99,.04-1.08-.55-.1-.76,.81-.44,1.03-.9,3.68-2.02,7.56-3.58,11.44-5.11,.14,.03,.23-.03,.28-.17Z"/>
  <path class="cls-7" d="M268.36,107.69c-.27,2.98-2.25,5.04-3.64,7.41-.37,.33-1.02,.31-1.15,.95-.68,.4-1.35,.81-2.03,1.21-.19-.5-.36-1.03-1-1.09-.13-1.91,1.37-3.12,1.92-4.77,.59-1.74,.77-3.46,.3-4.99-1.27-4.05-3.76-7.32-6.79-10.17-4.29-4.03-9.19-7.13-14.12-10.19-.25-.16-.5-.33-.7-.68,2.17-.17,4.26-.28,6.27,.98,4,2.51,8.35,4.08,12.98,4.76,1.02,.21,2.04,.42,3.06,.63,.43,.37,.85,.74,1.28,1.12,1.12,1.78,2.57,3.31,3.35,5.35,1.08,2.84,1.12,5.74,.92,8.7-.39,.1-.74,.23-.65,.77Z"/>
  <path class="cls-9" d="M123.39,166.23c6.52-2.01,12.33-4.64,18.76-5.29,5.44-.55,10.82-1.77,16.34-1.12,1.66,.2,3.24,.68,4.77,1.31,.69,.28,1.15,.83,.16,1.36-12.4,6.53-25.3,8.37-38.81,4.52-.29-.08-.53-.33-1.22-.77Z"/>
  <path class="cls-9" d="M242.34,166.32c6.78-3.35,13.11-7.15,20.14-9.28,4.6-1.39,9.24-.31,13.86,.01,1.25,.09,.72,.69,.11,1.35-3.7,3.97-8.4,6.04-13.3,7.68-6.05,2.03-12.22,2.54-18.49,1.18-.73-.16-1.5-.26-2.32-.94Z"/>
  <path class="cls-9" d="M157.51,175.03c-6.91,2.32-13.66,2.88-20.52,1.85-4.87-.73-9.4-2.51-13.61-5.17-1.31-.83-2.17-2.16-3.22-3.28-.34-.37-.61-.97,.31-1.1,.62-.09,1.2-.42,1.86-.09,6.01,3.02,12.39,3.14,18.86,2.71,2.48-.17,4.94-.53,7.39-.93,.99-.16,1.76-.01,2.54,.86,1.78,1.99,4.01,3.44,6.4,5.17Z"/>
  <path class="cls-9" d="M275.88,76.45c1.67,.51,3.33,1.02,5,1.53,3.09,1.21,6.17,2.49,8.22,5.37,1.82,2.56,3.02,5.39,2.81,8.71-.07,1.07-.49,1.34-1.31,.83-1.05-.66-2.17-1.12-3.35-1.36-1.5-.3-1.74-1.8-2.51-2.76-2.99-3.71-7.1-5.17-11.37-6.26-1.85-.47-3.78-.88-5.66-.85-2.33,.05-3.51-1.03-4.22-3.16-.26-.77-.53-1.54-1.2-2.18-1.01-.96-.11-1.25,.72-1.39,.19,.02,.39,.04,.58,.06,1.29,.07,2.58,.14,3.87,.22,.24,.18,.5,.22,.78,.09,2.55,.38,5.09,.76,7.64,1.14Z"/>
  <path class="cls-2" d="M305.58,126.65c-.21,1.29-.09,2.76-.93,4.18-.6,1.03-1.05,.62-1.31,.15-2.8-4.96-7.83-7.71-11-12.31-2.29-3.32-3.18-6.8-2.22-10.79,.24-.98,.57-1.33,1.59-.81,2.38,1.22,4.83,2.29,7.38,3.12,1.73,.57,2.14,2.38,2.83,3.79,1.95,3.91,3.72,7.92,3.65,12.67Z"/>
  <path class="cls-9" d="M190.85,162.96c-5.44,1.92-10.48,5.01-16.09,6.43-5.58,1.4-11.09,1.23-16.4-1.36-.4-.2-.99-.26-.99-.79,0-.54,.59-.55,.99-.73,2.76-1.3,5.34-3,8.23-4.03,.54,.06,1.09,.16,1.31-.57,.58-.27,1.11-.68,1.8-.6,.16-.06,.32-.11,.47-.17,5.88-1.47,11.7-.17,17.54,.39,.94,.09,1.86,.36,2.78,.54,.12,.3,.24,.59,.37,.89Z"/>
  <path class="cls-9" d="M256.74,83.64c.38-.04,.76-.09,1.14-.13,4.46-.73,8.9-1.33,13.42-.26,4.22,.99,8.29,2.24,11.58,5.35,.47,.44,1.14,.96,.93,1.6-.27,.81-1.11,.33-1.67,.28-4.9-.4-9.77,.6-14.66,.34-.89-.05-1.77-.05-2.66-.08-.65-.09-1.3-.18-1.96-.26-.74-.3-1.48-.58-2.29-.41-4.14-1.07-8.31-2.05-12.18-4.73,2.52-1.01,5.02-.65,7.22-1.64,.38-.02,.75-.04,1.13-.06Z"/>
  <path class="cls-9" d="M213.12,159.78c.75-.04,1.5-.08,2.25-.11,2.4,.35,4.87-.29,7.23,.59-.1,.28,1.35,.3,.05,.86-2.35,1.01-4.62,2.25-6.92,3.39-7.5,3.62-15.45,4.63-23.6,4.42-2.04-.05-4.02-.57-5.95-1.26-.34-.12-.78-.31-.79-.77,0-.47,.44-.61,.78-.74,6.85-2.64,13.71-5.24,21.14-5.4,.26,.02,.52,.05,.79,.07,.23,.11,.4,.02,.51-.2,.21-.03,.41-.07,.62-.1,.24-.05,.49-.11,.73-.16,.27-.05,.55-.1,.82-.16,.78-.14,1.56-.29,2.33-.43Z"/>
  <path class="cls-2" d="M302.77,136.81c.16,4.02-.73,7.72-3.05,10.98-.19,.27-.3,.65-.54,.81-.95,.61-1.7,2.15-2.78,1.75-.98-.36-.15-1.91-.45-2.88-.84-2.69-1.2-5.49-2.22-8.18-1.39-3.69-2.63-7.62-1.78-11.75,.27-1.33,1.06-2.5,1.86-3.58,.4-.53,.91-.35,1.44,.13,2.61,2.35,5.24,4.71,7.06,7.82,.89,1.51,.3,3.27,.45,4.9Z"/>
  <path class="cls-1" d="M277.06,162.11c-.74-.33-1.78-.34-.44-1.56,1.61-1.47,2.86-3.19,3.69-5.48,2.12-5.8,6.03-10.12,11.44-12.87,.61-.31,.94-.16,1.24,.38-.02,.05-.06,.11-.04,.15,.04,.09,.1,.17,.16,.25-.04,.14,0,.25,.1,.34,.15,1.59,.37,3.17,.43,4.76,.19,5.58-1.47,9.43-6.59,12.43-3.16,1.85-6.57,1.68-9.99,1.61Z"/>
  <path class="cls-9" d="M242.65,168.02c8.59,2.37,16.89,.97,25.02-2.22,.59-.23,1.03-.31,1.61-.08,5.04,2.04,10.22,3.08,15.65,2.42,.08-.01,.18,.12,.27,.18-8.25,7.11-30.97,7.21-43,.19,.15-.17,.3-.33,.45-.5Z"/>
  <path class="cls-2" d="M279.48,91.68c6.17-.03,11.64,2.15,16.01,6.57,2.36,2.39,4.04,5.56,4.18,9.29,.04,1.15-.1,1.62-1.35,1.14-7.8-3.01-14.81-7.27-20.43-13.79-.59-.68-.85-1.57-1.6-2.18-.53-.42-.18-.99,.51-1.02,.89-.04,1.79,0,2.68,0Z"/>
  <path class="cls-9" d="M231.47,169.42c1.48,0,2.95-.23,4.3-.78,1.77-.71,3.3-.35,4.88,.53,2.74,1.51,5.56,2.83,8.58,3.99-.99,1.32-2.58,1.35-3.72,1.63-6.9,1.72-13.91,2.08-20.88,.41-4.74-1.13-8.83-3.79-12.88-6.49-.28-.19-.59-.38-.44-.76,.14-.34,.54-.38,.83-.31,1.3,.32,2.57,.72,3.87,1.03,1.05,.25,2.12,.42,3.18,.62,4.09,.91,8.18,.92,12.28,.12Z"/>
  <path class="cls-9" d="M183.66,168.21c2.01,.83,4.04,1.33,6.14,1.64,5.32,.78,10.61,.28,15.78-.9,2.73-.62,4.77-.03,6.8,1.63,1.7,1.39,3.65,2.34,5.54,3.39,.49,.27,1.33,.33,1.27,.97-.07,.74-.94,.71-1.53,.87-4.37,1.14-8.78,1.49-13.27,1.06-4.52-.42-8.95-1.28-13.24-2.79-3.05-1.07-5.48-3.19-7.49-5.88Z"/>
  <path class="cls-9" d="M130.14,162.33c-5.76,2.22-11.44,4.59-17.5,5.66-5.23,.92-10.46,1.62-15.75,.51-1.67-.35-3.25-.92-5.05-2.27,12.82-4.19,25.28-6.9,38.3-3.89Z"/>
  <path class="cls-2" d="M307.31,103.01c.19,2.57-2.95,5.53-5.07,6.28-.68,.24-.91-.2-.94-.84-.25-5.75-3.11-9.97-7.28-13.36-.68-.55-.58-1.05-.53-1.7,.11-1.66,.28-3.36-.26-4.95-.57-1.68,.3-1.68,1.38-1.49,2.96,.5,5.58,1.87,7.63,4.07,3.07,3.3,4.53,7.46,5.07,11.99Z"/>
  <path class="cls-1" d="M298.52,160.79c-2.59,2.72-5.96,3.88-9.33,5.01-5.72,1.92-11.41,1.46-17.07-.33-.6-.19-1.33-.21-1.18-1.2,.3-.07,.57-.17,.69-.5,0,0,.05-.05,.05-.05,1.7-1.06,3.52-.74,5.33-.53,1.07,.12,2.15,.23,3.22,.22,6.72-.08,11.64-3.16,14.54-9.59,2.9-.04,5.67-.68,8.34-1.86,1.03-.46,1.62-.31,1.22,1.07-.65,2.24-1.84,4.12-3.51,5.67-.95,.48-2.85-.19-2.31,2.09Z"/>
  <path class="cls-9" d="M188.65,174.64c-4.38,.82-8.75,1.06-13.11,1.25-3.89,.17-7.77,.07-11.65-.46-4.37-.59-8.01-2.62-11.14-5.77-.76-.77-.79-1.33,.39-1.62,1.28-.31,2.37-.12,3.61,.54,7.47,3.97,15.12,3.45,22.76,.56,1.52-.58,2.48-.66,3.72,.86,1.47,1.81,3.4,3.26,5.42,4.63Z"/>
  <path class="cls-9" d="M239.9,71.63c-1.16,1.61-2.54,.86-3.9,.4-.25-1.2,.43-2.61-.73-3.61,.03-2.24-.12-4.46-.7-6.64,.15-.23,.13-.44-.03-.65-.02-.37-.05-.75-.07-1.12,.07-.8,.15-1.6-.7-2.05-.03-.53,0-1.07-.11-1.58-.24-1.1,.24-1.55,1.19-1.79,1.59-.41,3.16-.89,4.74-1.33,0,0,.15,.05,.15,.05l.11-.12c1.47-.34,2.96-.62,4.4-1.05,1.33-.4,2.1-.26,1.74,1.46-.71,1.47-.93,3.12-1.35,4.66-.88,3.2-1.87,6.32-3.19,9.33-.15,.35-.13,.78-.19,1.17-.32,.29-.37,.66-.31,1.07-.03,.19-.06,.37-.09,.56-.06,.17-.13,.34-.19,.52-.33,.16-.84,.1-.77,.72Z"/>
  <path class="cls-2" d="M311.22,127.05c-.87,3.22-2.49,5.84-5.39,7.47-.43,.24-.87,.46-1.22,.1-.46-.47-.1-1.02,.19-1.42,2.53-3.39,2.64-6.98,1.65-11.09-.86-3.59-2.23-6.86-3.82-10.07-.47-.95-.32-1.48,.56-1.88,1.88-.85,3.57-1.93,4.56-3.94,.26-.52,.93-1.02,1.31-.16,1.13,2.53,3.03,4.71,3.24,7.66,0,2.57,.03,5.14,.02,7.7,0,.52,.08,1.31-.19,1.51-1.55,1.13-.81,2.71-.91,4.12Z"/>
  <path class="cls-2" d="M312.73,138.93c-.29,.91-.58,1.82-.87,2.73-.63,.12-.76,.67-.95,1.17-3.3,5.95-8.38,8.89-14.98,9.64,.74-1.15,1.94-1.11,2.77-1.78,1.98-1.6,3.48-3.43,4.32-5.99,.81-2.47,1.27-4.94,1.31-7.52,0-.74,.35-1.01,.95-1.26,3.64-1.54,5.37-3.33,7.16-7.32,1.06,.23,.75,1.35,1.19,1.98-.1,.68-.14,1.36,.14,2.02-.14,1.52-.28,3.05-.41,4.57-.82,.35-.6,1.11-.64,1.76Z"/>
  <path class="cls-9" d="M115.75,174.18c-3.96,0-7.91,0-11.87,0-5.73-.62-10.89-2.79-15.59-6.29,1.19-.98,2.21-.87,3.57-.04,2.97,1.79,6.33,2.31,9.73,2.37,5.06,.1,10.03-.64,14.94-1.87,.71-.18,1.39-.61,2.07,.24,1.29,1.65,2.54,3.35,4.26,4.77-2.37,.27-4.74,.55-7.11,.82Z"/>
  <path class="cls-7" d="M246.38,72.21c-.8-.97-2-1.24-3-1.86-.63-.39-.92-.79-.84-1.52,.68-1.04,1.29-2.13,1.54-3.38,.22-1.15,.79-1.24,1.64-.75,5.71,3.24,11.22,6.78,15.31,12.22,.69,.92,1.21,1.99,1.7,3.05,.22,.48,.49,1.35-.26,1.54-.83,.21-2.02,.85-2.58-.25-1.65-3.25-4.47-4.84-7.51-6.22-2.01-.91-4-1.89-6-2.83Z"/>
  <path class="cls-9" d="M112.98,160.05c7.01-4.23,18.79-3.93,24.64,.27-2.44,.84-4.72,1.46-7.38,.68-5.08-1.49-10.32-1.61-15.56-.96-.44,.05-.88,0-1.7,0Z"/>
  <path class="cls-9" d="M186.98,160.1c3.63-4.26,13.21-4.61,18.78-.39-4.08-.05-7.71,1.76-11.53,1.84-2.39,.05-4.8-.92-7.25-1.45Z"/>
  <path class="cls-9" d="M155.28,158.48c4.06-3.12,14.73-3.86,19.55,.74-3.03,.23-5.78,.83-8.44,1.82-.37,.14-.75,.04-1.1-.17-2.99-1.82-6.27-2.41-10.01-2.39Z"/>
  <path class="cls-9" d="M258.49,153.34c0-.09,.05-.14,.13-.15,1.86,.74,4.07,.31,5.83,2.04-3.14,.85-6.1,1.92-9.01,3.17-.32,.14-.82,.14-1.1-.04-2.57-1.61-5.4-2.23-8.34-2.43-.32-.02-.61-.19-.71-.56,.37-.16,.73-.32,1.1-.48,1.12,.05,2.2-.1,3.19-.67,1.11,.08,2.19-.06,3.23-.48,0,0-.14-.02-.14-.02,.99-.08,1.98-.16,2.98-.23,.42,.16,.83,.18,1.21-.13,.42-.14,.54-.45,.42-.88,0,0,.04,.03,.04,.03-.43,1.54,.67,.72,1.17,.83Z"/>
  <path class="cls-9" d="M108.39,160.76c-2.91,.37-5.29,1.21-7.96,.24-3.64-1.31-7.54-1.54-11.51-1.8,3.4-3.09,14.35-2.28,19.47,1.55Z"/>
  <path class="cls-2" d="M283.41,146.02c.1-5.16,2.89-8.36,6.42-11.07,.73-.56,1.12-.37,1.39,.69,1.04,4.2,1.06,4.14-2.52,6.45-1.74,1.13-3.36,2.48-5.29,3.93Z"/>
  <path class="cls-15" d="M294.78,153.81c-2.9,6.42-7.82,9.51-14.54,9.59-1.07,.01-2.15-.1-3.22-.22-1.82-.21-3.64-.53-5.33,.53-.07-1.05,.58-1.06,1.34-1.16,1.34-.19,2.78,.55,4.03-.44,3.42,.07,6.83,.24,9.99-1.61,5.12-2.99,6.78-6.85,6.59-12.43-.05-1.59-.28-3.17-.43-4.76,.68,0,1.11,.29,1.03,1.06-.21,2.09,.71,4.12,.12,6.28-.26,.94-.59,2.23,.41,3.15Z"/>
  <path class="cls-1" d="M271.99,155.21c2.19-2.22,4.82-3.1,7.46-3.91,.87-.27,.88,.33,.71,1.04-.64,2.81-1.84,3.69-4.6,3.32-1.12-.15-2.24-.28-3.57-.45Z"/>
  <path class="cls-2" d="M281.93,101.16c2.44,1.59,4.57,2.86,6.56,4.33,1.02,.75,.17,1.91-.08,2.75-.26,.89-1.05,.31-1.6,.04-2.69-1.31-4.21-3.54-4.88-7.12Z"/>
  <path class="cls-5" d="M204.82,153.86c.1-.05,.16-.13,.18-.25,.29-.09,.62-.12,.69-.53,1.82,1.11,2.83,3.02,4.12,4.64,.63,.79-.05,1.39-.85,1.48-.61,.07-1.25-.12-1.88-.19-.13-.14-.24-.36-.4-.41-2.43-.81-2.49-2.62-1.86-4.73Z"/>
  <path class="cls-2" d="M288.96,121.27c.17-1.18-.72-2.95,.56-3.4,1-.35,1.65,1.34,2.2,2.35,.42,.78,1.55,1.03,1.47,2.17-.03,.44-1.77,2.67-2.68,3.45-.67-1.02-.64-2.23-.89-3.35-.03-.52,.22-1.2-.66-1.22Z"/>
  <path class="cls-15" d="M231.47,169.42c-4.1,.81-8.2,.79-12.28-.12,0-.33,0-.66,0-.99,4.08,.55,8.18,.5,12.27,.21,0,.3,.01,.6,.02,.9Z"/>
  <path class="cls-9" d="M268.88,92.26c4.91-.68,5.98-.14,7.1,3.45-2.53-.67-4.86-1.41-7.1-3.45Z"/>
  <path class="cls-2" d="M311.22,127.05c.1-1.41-.64-3,.91-4.12,.27-.2,.19-.99,.19-1.51,0-2.57,0-5.14-.02-7.7,1.9,4.46,.97,8.79-.59,13.08-.05,.13-.32,.17-.49,.25Z"/>
  <path class="cls-14" d="M262.86,90.48c.65,.09,1.31,.18,1.96,.26-.02,.96-.74,.9-1.35,1-1.02-.21-2.04-.42-3.06-.63,.03-.1,.09-.19,.16-.27,.67-.77,1.59,.19,2.29-.37Z"/>
  <path class="cls-1" d="M298.52,160.79c-.54-2.28,1.37-1.61,2.31-2.09-.58,.93-1.2,1.81-2.31,2.09Z"/>
  <path class="cls-9" d="M242.65,168.02c-.15,.17-.3,.33-.45,.5-.89,.12-1.43-.55-2.26-1.03,1.13-.35,1.94-.01,2.71,.53Z"/>
  <path class="cls-15" d="M288.13,122.16c-.79-.65-.86-1.53-.71-2.47,1.35,.47,.53,1.63,.71,2.47Z"/>
  <path class="cls-3" d="M289.97,129.32c-.07-.68-.13-1.36-.2-2.04,.98,.58,.83,1.29,.2,2.04Z"/>
  <path class="cls-14" d="M259.65,152.58c.75-.33,1.45-.18,2.14,.2-.78,.75-1.52,.97-2.14-.2Z"/>
  <path class="cls-15" d="M312.73,138.93c.04-.65-.18-1.41,.64-1.76-.02,.67,.42,1.51-.64,1.76Z"/>
  <path class="cls-15" d="M287.41,118.9c-.22-.77-.01-1.35,.7-1.71-.02,.66,.35,1.51-.7,1.71Z"/>
  <path class="cls-10" d="M190.85,162.96c-.12-.3-.24-.59-.37-.89,.49,.12,1.29-.2,1.37,.51,.07,.57-.61,.37-1.01,.38Z"/>
  <path class="cls-15" d="M288.96,121.27c.88,.02,.63,.7,.66,1.22-.65-.15-1.05-.46-.66-1.22Z"/>
  <path class="cls-15" d="M310.92,142.83c.19-.5,.32-1.06,.95-1.17,.07,.73-.04,1.3-.95,1.17Z"/>
  <path class="cls-3" d="M290.11,131.7c-.28-.37-.37-.77-.13-1.2,.5,.35,.57,.74,.13,1.2Z"/>
  <path class="cls-15" d="M313.79,132.59c-.28-.65-.24-1.33-.14-2.02,.34,.65,.17,1.34,.14,2.02Z"/>
  <path class="cls-10" d="M167.89,161.9c-.22,.73-.78,.63-1.31,.57,.33-.45,.79-.6,1.31-.57Z"/>
  <path class="cls-15" d="M268.24,75.31c-.28,.14-.53,.1-.78-.09,.31-.49,.56-.38,.78,.09Z"/>
  <path class="cls-15" d="M271.64,163.76c-.12,.34-.39,.44-.69,.5,.09-.38,.35-.49,.69-.5Z"/>
  <path class="cls-15" d="M293.11,142.97c-.05-.08-.12-.16-.16-.25-.02-.03,.03-.1,.04-.15,.04,.13,.08,.27,.12,.4Z"/>
  <path class="cls-10" d="M170.16,161.14c-.16,.06-.32,.11-.47,.17,.11-.21,.27-.27,.47-.17Z"/>
  <path class="cls-15" d="M263.59,75c-.19-.02-.39-.04-.58-.06,.19,.02,.39,.04,.58,.06Z"/>
  <path class="cls-7" d="M261.32,109.14c.38,1.28-.89,2.36-1.26,3.73-.17,.61-.8,.62-1.2,.04-3.05-4.36-7.84-6.1-12.08-8.61-6.97-4.13-14.41-7.47-20.59-12.95-2.83-2.51-5.55-5.19-5.95-9.45-.1-1.09,.13-2.12,.15-3.18,.03-1.46,.67-1.46,1.48-.74,3.33,2.95,7.3,4.57,11.43,5.6,4.51,1.13,8.16,3.89,11.96,6.32,3.2,2.05,6.35,4.25,9.18,6.92,2.99,2.82,5.35,6.05,6.75,10,.21,.59,.08,1.32,.13,2.32Z"/>
  <path class="cls-9" d="M219.48,45.98c.68-.42,.75-1.15,.95-1.85,1.56-5.33,5.04-8.68,10.1-10.15,5.23-1.52,9.58,.29,13.17,4.33,1.55,1.74,1.26,2.5-.96,3.07-1.79,.46-3.57,.95-5.36,1.41-1.14,.29-2.18,.66-3.42-.1-1.19-.74-2.25,.26-2.58,2.23-.53,3.2-.35,6.37,.5,9.49-.05,.95-.02,1.9,.29,2.81,0,1.02-.08,2.06,.8,2.81,.26,2.53,.53,5.06,.79,7.6,0,1.38,.01,2.75,.02,4.13-.91-.17-1.82-.35-2.74-.52-.38-.12-.76-.23-1.14-.35,0,0-.07-.03-.07-.03-.41-.41-.96-.31-1.45-.44,0,0,0,0,0,0-.37-.59-.98-.39-1.49-.52-1.09-.88-2.59-1.08-3.49-2.28-.39-.66-.77-1.32-1.16-1.97-.14-.81-.28-1.62-.42-2.43,.13-.64-.19-1-.73-1.22,.06-1.92-.63-3.71-.81-5.59,.02-.77,.16-1.59-.73-2-.13-2.81-.29-5.62-.09-8.43Z"/>
  <path class="cls-7" d="M261.76,130.34c.38,3.57-.12,7.03-1.62,10.24-2.35,5.04-5.48,9.31-11.01,10.86-.6,.17-1.33,.57-1.81,.03-.42-.48,.06-1.13,.24-1.68,2.19-6.64,2.39-13.5,1.23-20.28-1.21-7.06-.87-14.14-1.18-21.21-.07-1.51,.27-1.87,1.58-1.04,2.89,1.84,6.02,3.27,8.23,6.15,1.13,1.47,1.8,3.17,2.39,4.85,1.36,3.88,2.36,7.87,1.95,12.07Z"/>
  <path class="cls-7" d="M199.79,140.38c-1.76-3.29-2.98-6.83-3.75-10.45-.64-2.99-.73-6.12,.29-9.21,.65-1.96,1.56-3.72,2.56-5.47,.27,.01,.54,.02,.81,.04,.09,.21,.17,.42,.26,.63,.21,2.64,1.54,4.75,2.92,6.84,1.08,1.63,1.94,3.34,2.09,5.36,.26,.9-.38,2.13,.86,2.69,.36,1.24,.73,2.48,1.09,3.72-.05,.62,.36,.88,.82,1.09,.18,1.93,1.61,3.22,2.27,4.9-.07,.59,.3,.75,.75,.83,.26,1.77,1.64,2.87,2.36,4.37-.03,.54,.36,.63,.73,.74,.28,.56,.55,1.11,.83,1.67-.03,.54,.32,.61,.71,.64,.25,.46,.5,.91,.76,1.37-.02,.55,.3,.75,.76,.81,.23,.39,.47,.77,.7,1.16-.03,.65,.27,.97,.89,.96,.01,.13,.07,.23,.18,.3,.05,.11,.1,.21,.15,.32,.24,.43,.48,.85,.72,1.28,.02,.53,.36,.72,.8,.8,.21,.93,1.59,.88,1.55,2.02-.42,.24-.85,.48-1.27,.72-1.51-.01-3.02-.05-4.54-.03-2.86,.05-5.26-.87-6.84-3.52-.02-.54-.48-.55-.8-.71-.24-.44-.48-.87-.72-1.31-.02-.54-.45-.58-.81-.7-.39-.7-.78-1.39-1.17-2.09,.05-.57-.3-.7-.73-.74-1.3-2.15-2.59-4.3-3.89-6.45,.04-.52-.38-.63-.69-.84-.13-.26-.25-.52-.38-.78,.02-.33,0-.65-.28-.88l.02-.06Z"/>
  <path class="cls-7" d="M204.64,100.07c.16-.18,.33-.35,.49-.53,1-.16,.98,.52,.95,1.24-.1,1.96,.37,3.83,.92,5.68-.06,.54,.35,.65,.69,.84,.1,.41,.19,.82,.29,1.23,0,0-.03,.16-.03,.16l.14,.08c.32,1.42,1.43,2.39,1.95,3.7-.06,.58,.33,.67,.74,.72,.45,1.33,1.37,2.3,2.26,3.3-.02,.59,.17,1.01,.82,1,.23,.34,.46,.68,.7,1.02,0,.6,.21,1.01,.87,1-.01,.09,.02,.15,.11,.16,.07,.14,.14,.28,.21,.43,.79,1.86,2.5,3.11,3.08,5.1,.9,3.06,.36,6.22,.46,9.32,.05,1.53-1.02,.57-1.43,.34-2.72-1.53-5.3-3.29-7.63-5.44-3.42-3.14-6.05-6.92-7.91-11.21-1.42-3.29-2.46-6.79-1.88-10.53,.94-.56,.55-1.6,.81-2.41,.28-.36,.33-.77,.29-1.22,.91-1.2,1.82-2.4,2.73-3.6,.12-.13,.25-.27,.37-.4Z"/>
  <path class="cls-4" d="M184.35,58.4c.32-.12,.36-.4,.38-.7,.25-.04,.5-.07,.75-.11,.93,.04,1.88-.17,2.79,.15,.53,.84,1.22,.36,1.84,.2,6.14-1.58,12.28-3.13,18.4-4.8,2.19-.6,4.49-.78,6.53-1.94,.75-.14,1.49-.27,2.24-.41,.73,.05,1.08,.4,1.11,1.22,.04,.98,.14,1.97,.36,2.91,.39,1.72-.02,2.77-1.87,2.83-1.93,.33-3.86,.68-5.8,.99-5.09,.81-10.22,1.28-15.25,2.44-.25,.02-.51,.04-.76,.06-.68-.07-1.34-.05-1.91,.4-.78,.11-1.56,.22-2.34,.33v-.02c-.11-.09-.23-.08-.34,.04-2.68,.46-5.36,.92-8.03,1.38-1.12,.12-2.46,.08-3,1.25-.7,1.52,1.13,1.59,1.65,2.45,.2,.32,.51,.59,.81,.82,.24,.19,.62,.25,.54,.69-.09,.52-.55,.49-.89,.56-1.3,.28-2.6,.53-3.9,.79-.97,.03-1.93,.06-2.9,.08-.13,0-.25,0-.38,0-.38,0-.77,0-1.15,0-1.07-.11-2.14-.23-3.2-.34-.7-.26-1.41-.5-2.11-.78-2.49-1.03-2.78-2.43-.72-4.17,1.45-1.23,2.98-2.41,4.83-2.94,.17,.22,.35,.45,.52,.67-1.17,.76-2.2,1.68-3.15,2.71-.7,.77-.82,1.38,.22,2.01,1.86,1.14,3.91,.89,5.91,1.03,.34,.02,.37-.46,.38-.82-1.07-.11-2.15-.12-3.18-.37-.84-.2-2.22,.24-2.38-.97-.14-1.07,1.27-1.28,1.91-1.97,.08-.08,.25-.05,.36-.12,3.34-2.08,7.08-3.12,10.75-4.28,.76-.24,1.15-.43,1-1.27Z"/>
  <path class="cls-7" d="M223.02,119.33c1.02,3.54,3.71,5.69,5.7,8.34,.79,1.05,1.05,2.18,1.08,3.47,.12,4.99,1.33,9.84,2.41,14.63,.5,2.25,.96,4.05-.08,6.14-.33,.66-.21,1.56-.28,2.36-.11,1.39-.38,2.75-1.9,3.08-1.48,.32-2.38-.88-3.03-1.95-2.84-4.66-4.29-9.76-5.17-15.25-.65-4.11-.48-8.15-.75-12.22-.21-3.11,1.45-5.63,2.02-8.59Z"/>
  <path class="cls-7" d="M218.6,80.73c-.37,3.95,1.78,6.95,4.38,9.66,3,3.13,6.47,5.62,10.18,7.75,1.79,1.03,2.58,2.71,2.93,4.72,.41,2.33,.26,4.63,.03,6.96-.09,.95-.67,1.57-1.03,2.28-.46,.89-1.02-.17-1.24-.44-2.08-2.56-4.45-4.81-6.72-7.17-2.23-2.31-4.9-4.09-6.85-6.74-2.84-3.85-4.8-8.02-5.08-12.94-.08-1.46-.53-2.92,.04-4.39,.24-.62,.35-1.36,1.02-1.6,.64-.23,1.32-.73,2.01-.32,.83,.49,.23,1.33,.33,2.23Z"/>
  <path class="cls-7" d="M207.69,101.67c-.2-1.79,.24-3.63-.64-5.4-.58-1.17,.42-2.39,.53-3.62,.18-2.05,.37-4.09,.73-6.11,.17-.93,.53-1.69,.93-2.49,.07-.08,.09-.17,.05-.27,.04-.17,.08-.33,.12-.5,.87-1.45,2.02-2.55,3.55-3.19,.05,.65,.1,1.31,.15,1.96,0,.66,.02,1.33,.02,1.99,.05,.85-.43,1.88,.71,2.37,.12,3.34,1.18,6.31,3.02,9.03,.91,1.35-.07,2.82,.02,4.24-1.34,.96-.55,2.39-.73,3.6-.06,.58-.12,1.16-.18,1.74-.69,.95-.42,2.04-.44,3.09-.04,.26-.09,.52-.13,.79-1.38,.77-.64,2.1-.77,3.2-.02,.26-.03,.52-.05,.79-.43,.59-.26,1.33-.44,1.98-.11,.02-.22,.04-.33,.08-.25-.15-.5-.3-.76-.45-.26-.53-.53-1.07-.79-1.6-.01-.51-.39-.63-.75-.75-.26-.55-.52-1.1-.79-1.65,0-.51-.42-.6-.73-.8-.27-.8-.53-1.61-.8-2.41,.05-.55-.34-.69-.72-.84,.04-1.2-.5-2.27-.72-3.42,.16-.23,.15-.47,0-.7-.02-.22-.04-.44-.07-.66Z"/>
  <path class="cls-7" d="M241.25,154.87c-1.89,1.04-4.01,1.17-6.05,1.63-1.18,.26-1.72-.28-1.65-1.66,.21-4.11,1.94-7.67,3.65-11.23,2.29-4.75,5.56-8.81,8.59-13.02,.26-.36,.45-.89,.99-.8,.58,.1,.57,.71,.59,1.12,.3,5.55,.75,11.09-.94,16.55-.6,1.95-.98,3.92-2.37,5.47-.39,.26-.78,.53-1.17,.79-.23,.22-.47,.43-.7,.65-.42-.04-.75,.08-.94,.5Z"/>
  <path class="cls-7" d="M231.51,128.1c-2.09-1.79-3.9-3.91-5.42-6.2-.97-1.46-1.57-3.36-1.82-5.14-.53-3.68-.73-7.42-.18-11.14,.06-.38-.05-.85,.32-1.08,.41-.26,.66,.1,.96,.37,4.82,4.51,9.05,9.52,12.83,15.05,2.01,2.93,.11,4.63-.84,6.65-.35,.73-.73,1.65-1.36,2.29-1.36-1.13-2.96-.75-4.49-.8Z"/>
  <path class="cls-7" d="M208.46,134.53c-.14-1.77-1.16-3.21-1.67-4.84,.03-.62,.23-1.05,.94-.89,2.76,3.35,6.28,5.67,9.99,7.6,1.77,.92,2.42,2.35,2.53,4.02,.22,3.55,1.17,6.88,2.33,10.15,.9,2.53,2.73,4.6,3.51,7.3-2.02,.87-2.79-1.11-3.69-1.96-1.5-1.4-2.86-3.11-3.85-5.02-.11-.52-.26-1.01-.89-1.04-.25-.44-.5-.88-.74-1.31-.01-.51-.35-.71-.76-.84-.27-.52-.54-1.03-.82-1.55,.02-.53-.34-.68-.74-.79-1.23-2.16-2.46-4.32-3.69-6.48-.04-.12-.09-.24-.13-.36,0,0,0,0,0,0,0-.53-.38-.67-.76-.83-.24-.66-.48-1.33-.73-1.99,.02-.62-.33-.95-.83-1.16Z"/>
  <path class="cls-7" d="M237.73,101.08c2.79,1.08,5.18,2.82,7.77,4.15,.59,.31,.54,.99,.53,1.6-.02,2-.06,4,0,5.99,.02,.86-.2,1.63-.65,2.25-1.29,1.77-2.68,3.46-4.03,5.19-.7,.9-1.18,.97-1.5-.31-.36-1.44-1.24-2.72-2.2-3.63-1.48-1.41-1.49-2.87-.76-4.39,1.58-3.29,1.06-6.68,.76-10.09-.02-.19,.04-.38,.09-.75Z"/>
  <path class="cls-7" d="M263.46,133.75c.19-2.03,.21-4.06-.01-6.09,.08-.79,.25-1.6-.44-2.22-.14-1.66,.26-3.35-.78-4.94-.52-.79-.57-1.87,.86-2.47,1.55-.65,2.87-1.84,3.62-3.53,.28-.11,.61-.15,.73-.52,.18,.02,.36,.04,.54,.06,.6,2.28,1.2,4.57,1.8,6.85,0,.27,.02,.53,.03,.8,0,1.74,0,3.48,0,5.21,.15,1.53-.75,2.88-.71,4.39-.06,.12-.11,.24-.17,.37-1.02,.29-.89,1.32-1.22,2.06h.01c-1.19,.94-2.23,2.03-3.14,3.26h-.03c-1.61,.85-1.62-.21-1.52-1.4,.59-.5,.45-1.18,.43-1.83Z"/>
  <path class="cls-7" d="M235.61,142.82c-1.23-10.53,4.17-18.17,10.48-26.04-.08,3.57,.21,6.59,.39,9.62,.11,1.88-1.6,2.92-2.6,4.24-2.94,3.9-5.9,7.78-8.27,12.18Z"/>
  <path class="cls-7" d="M215.65,116.5c.15-1.47,.3-2.95,.46-4.42,1.34-1.2,.43-2.93,.94-4.33,.39-1.39,.34-2.81,.35-4.23,.08-.21,.17-.43,.25-.64,1.19-1.13,.41-2.78,1.03-4.27,2.24,2.03,4.74,3.69,3.78,7.49-.45,1.78-.17,3.69-.44,5.54-.37,2.52-1.59,4.49-3.2,6.23-1.29,1.39-2.55,.95-3.17-.98,0-.13,0-.26,0-.39Z"/>
  <path class="cls-13" d="M195.81,61.19c5.03-1.16,10.17-1.63,15.25-2.44,1.94-.31,3.87-.66,5.8-.99-.3,.31-.82,.46-.73,1.07-2.13,.87-4.39,1.06-6.62,1.36-3.06,.4-6.09,1.09-9.19,1.18-1.49-.39-3.05,1-4.51-.18Z"/>
  <path class="cls-7" d="M231.44,130.63c3.44,2.3,3.75,3.38,2.49,7.22-.53,1.61,.01,3.4-.62,5.26-1.15-4.21-1.66-8.24-1.88-12.49Z"/>
  <path class="cls-4" d="M188.26,57.74c-.92-.32-1.86-.11-2.79-.15,2.89-1.33,6.05-1.65,9.05-2.6,1.81-.57,3.67-.99,5.51-1.48,3.61-.84,7.23-1.62,10.75-2.82,.43,.09,.86-.34,1.3-.01,.2,.15,.4,.31,.61,.46-.31,.04-.64,.03-.94,.13-4.12,1.4-8.38,2.21-12.55,3.35-3.65,.99-7.37,1.73-10.92,3.12Z"/>
  <path class="cls-13" d="M269.77,120.9c-.6-2.28-1.2-4.57-1.8-6.85,.44,.01,.87,.02,1.3,.03,.93,2.07,1.89,4.13,1.73,6.51-.36,.35-.8,.31-1.24,.31Z"/>
  <path class="cls-13" d="M217.04,107.75c-.51,1.4,.4,3.13-.94,4.33-.49,0-.98,0-1.47,.01,.13-1.1-.6-2.43,.77-3.2,.19-.11,.5-.19,.55-.35,.11-.31-.18-.39-.42-.43,.02-1.05-.25-2.14,.44-3.09,.46,.87-.56,2.36,1.06,2.74Z"/>
  <path class="cls-7" d="M231.51,128.1c1.53,.05,3.14-.33,4.49,.8,.25,1.14-.72,1.6-1.3,2.12-.22,.2-1.06-.47-1.42-1.04-.47-.75-1.64-.79-1.77-1.88Z"/>
  <path class="cls-4" d="M212.68,51.14c-.2-.15-.4-.31-.61-.46,1.6-1.04,3.55-.88,5.23-1.65,.46,.19,.47,.54,.31,.95-.43,.13-.56,.4-.34,.82-.75,.14-1.49,.27-2.24,.41-.77-.81-1.57,.11-2.35-.06Z"/>
  <path class="cls-13" d="M269.78,100.01c1.23,1.71,1.23,5.6,0,7.34,0-2.45,0-4.89,0-7.34Z"/>
  <path class="cls-5" d="M246.55,154.2c-.55-.04-1.1-.08-1.83-.13,1.56-1.79,3.63-.91,5.31-1.73,.19,1.24-.77,.81-1.08,1.2-.83,.12-1.72-.01-2.41,.66Z"/>
  <path class="cls-13" d="M233.79,71.75c0-1.38-.01-2.75-.02-4.13,1.1,1.12,1.11,3.54,.02,4.13Z"/>
  <path class="cls-13" d="M222.6,160.25c-2.36-.88-4.83-.24-7.23-.59,2.15-.66,4.33-.23,6.49-.21,.4,0,.63,.39,.74,.79Z"/>
  <path class="cls-13" d="M235.27,68.42c1.16,1,.48,2.41,.73,3.61-1.3-.97-.78-2.34-.73-3.61Z"/>
  <path class="cls-13" d="M216.16,103.28c.18-1.21-.61-2.64,.73-3.6-.31,1.19,.7,2.66-.73,3.6Z"/>
  <path class="cls-13" d="M246.55,154.2c.69-.68,1.58-.54,2.41-.66,.21,.22,.42,.45,.63,.67-1,.58-2.08,.73-3.19,.67,.05-.23,.11-.46,.16-.68Z"/>
  <path class="cls-13" d="M207.72,128.8c-.71-.17-.91,.27-.94,.89-.05-.04-.1-.08-.14-.12-.55-.57-.79-1.52-.26-1.86,.57-.37,1.07,.46,1.35,1.09Z"/>
  <path class="cls-13" d="M205.82,130.8c-1.24-.56-.6-1.78-.86-2.69,1.5,.47,.55,1.8,.86,2.69Z"/>
  <path class="cls-13" d="M232.98,60.02c-.88-.75-.8-1.79-.8-2.81,1.44,.57,.62,1.85,.8,2.81Z"/>
  <path class="cls-13" d="M201.24,105.28c-.26,.81,.13,1.85-.81,2.41,.23-.82-.68-2.06,.81-2.41Z"/>
  <path class="cls-13" d="M213.84,86.4c-1.14-.49-.66-1.52-.71-2.37,1.22,.47,.51,1.57,.71,2.37Z"/>
  <path class="cls-13" d="M269,110.89c0,.67-.02,1.33-.03,2-1.23-.69-1.22-1.35,.03-2Z"/>
  <path class="cls-13" d="M219.57,54.41c.89,.41,.75,1.23,.73,2-1.17-.3-.62-1.28-.73-2Z"/>
  <path class="cls-13" d="M213.11,82.04c-.05-.65-.1-1.31-.15-1.96,1.43,.53,1.26,1.2,.15,1.96Z"/>
  <path class="cls-15" d="M226.41,159.64c-.02-.08-.01-.17,.01-.25,.98-.94,1.1-.93,.98,.05-.05,.37-.11,.74-.16,1.11-.04,.14-.13,.2-.28,.17-.18-.36-.37-.72-.55-1.08Z"/>
  <path class="cls-13" d="M233.77,57.96c.85,.45,.77,1.26,.7,2.05-1.19-.33-.61-1.32-.7-2.05Z"/>
  <path class="cls-13" d="M262.86,90.48c-.7,.55-1.62-.4-2.29,.37,0-.26,0-.52,0-.78,.82-.17,1.56,.12,2.29,.41Z"/>
  <path class="cls-13" d="M222.25,65.65c.39,.66,.77,1.32,1.16,1.97-1.25-.1-1.17-1.06-1.16-1.97Z"/>
  <path class="cls-13" d="M220.33,62.44c-.66-.34-.88-.9-.73-1.63,1.03,.16,.71,.98,.73,1.63Z"/>
  <path class="cls-13" d="M252.5,152.93c1-.35,2.02-.57,3.09-.44-.94,.85-2.05,.35-3.09,.44Z"/>
  <path class="cls-13" d="M263,125.44c.69,.62,.52,1.43,.44,2.22-.25-.72-.62-1.41-.44-2.22Z"/>
  <path class="cls-13" d="M218.48,153.06c-.62,.01-.92-.31-.89-.96,.6,.01,.87,.36,.89,.96Z"/>
  <path class="cls-13" d="M248.73,50.01c.51-.52,1.14-.61,1.82-.54-.11,.17-.21,.34-.32,.52,0,0-.02,.02-.02,.02-.49,0-.99,0-1.48,0Z"/>
  <path class="cls-13" d="M217.61,49.97c.17-.41,.15-.76-.31-.95,.4-.29,.85-.35,1.03,.19,.19,.58-.24,.75-.72,.76Z"/>
  <path class="cls-13" d="M260.54,116.18c.63,.06,.8,.58,1,1.09-.82,.13-1.02-.36-1-1.09Z"/>
  <path class="cls-13" d="M221.11,62c.54,.21,.85,.57,.73,1.22-.77-.06-.77-.62-.73-1.22Z"/>
  <path class="cls-13" d="M213.85,117.49c-.65,0-.83-.41-.82-1,.66-.01,.82,.43,.82,1Z"/>
  <path class="cls-13" d="M217.64,149.84c.64,.03,.78,.52,.89,1.04-.76,.08-.91-.4-.89-1.04Z"/>
  <path class="cls-13" d="M215.42,119.51c-.66,.01-.86-.4-.87-1,.69-.04,.82,.44,.87,1Z"/>
  <path class="cls-13" d="M213.12,159.78c-.78,.14-1.56,.29-2.33,.43,.66-.84,1.54-.37,2.33-.43Z"/>
  <path class="cls-13" d="M207.73,135.61c-.45-.22-.86-.47-.82-1.09,.73,0,.82,.5,.82,1.09Z"/>
  <path class="cls-13" d="M219.55,76.02c0-.4-.01-.79-.02-1.19,.39,.06,.79,.13,.73,.69-.05,.43-.4,.45-.71,.5Z"/>
  <path class="cls-13" d="M266.19,136.91c-.25,.64-.91,.62-1.36,.93-.1-.29-.2-.58-.31-.87,0,0,.04,.08,.04,.08,.54-.05,1.09-.09,1.63-.14Z"/>
  <path class="cls-13" d="M208.46,134.53c.5,.21,.85,.54,.83,1.16-.79,.01-.86-.54-.83-1.16Z"/>
  <path class="cls-13" d="M263.46,133.75c.03,.65,.17,1.34-.43,1.83-.26-.71,.09-1.27,.43-1.83Z"/>
  <path class="cls-13" d="M241.13,51.83c.36-.51,.89-.5,1.42-.5-.35,.54-.81,.74-1.42,.5Z"/>
  <path class="cls-13" d="M220.61,158.49c.42-.24,.85-.48,1.27-.72-.09,.87-.69,.78-1.27,.72Z"/>
  <path class="cls-13" d="M219.27,73.61c-.26-.34-.27-.72-.17-1.12,.22,.34,.75,.64,.17,1.12Z"/>
  <path class="cls-13" d="M263.25,138.92c-.23,.53-.66,.65-1.16,.65,.12-.73,.66-.65,1.16-.65Z"/>
  <path class="cls-13" d="M214.14,114.86c.18-.65,0-1.39,.44-1.98-.07,.68,.31,1.47-.44,1.98Z"/>
  <path class="cls-13" d="M263.57,116.06c.13-.65,.78-.62,1.15-.95-.07,.73-.5,.98-1.15,.95Z"/>
  <path class="cls-13" d="M210.01,137.68c.37,.16,.76,.3,.76,.83-.51-.02-.79-.27-.76-.83Z"/>
  <path class="cls-13" d="M210.75,141.35c-.44-.09-.82-.24-.75-.83,.5,.03,.77,.29,.75,.83Z"/>
  <path class="cls-13" d="M268.36,107.69c-.09-.54,.26-.67,.65-.77,0,.45-.19,.74-.65,.77Z"/>
  <path class="cls-13" d="M219.53,68.42c-.07-.61,.29-.8,.78-.83,.04,.59-.27,.81-.78,.83Z"/>
  <path class="cls-13" d="M226.9,69.9c.51,.12,1.13-.07,1.49,.52-.53-.06-1.18,.24-1.49-.52Z"/>
  <path class="cls-13" d="M200.42,142.11c.31,.21,.73,.32,.69,.84-.5-.04-.72-.33-.69-.84Z"/>
  <path class="cls-13" d="M228.39,70.41c.49,.12,1.04,.03,1.45,.44-.51-.05-1.1,.17-1.45-.44Z"/>
  <path class="cls-13" d="M239.9,71.63c-.07-.62,.44-.57,.77-.72-.03,.51-.31,.71-.77,.72Z"/>
  <path class="cls-13" d="M214.58,145.36c.4,.11,.76,.25,.74,.79-.48-.02-.74-.27-.74-.79Z"/>
  <path class="cls-13" d="M213.83,146.46c-.37-.11-.76-.2-.73-.74,.46,.02,.71,.25,.73,.74Z"/>
  <path class="cls-13" d="M208.48,106.44c.38,.15,.77,.29,.72,.84-.51-.02-.75-.3-.72-.84Z"/>
  <path class="cls-13" d="M216.14,147.69c.41,.13,.74,.32,.76,.84-.52-.01-.79-.28-.76-.84Z"/>
  <path class="cls-13" d="M212,79.46c.3-.3,.65-.47,1.07-.43-.18,.62-.59,.63-1.07,.43Z"/>
  <path class="cls-13" d="M215.37,148.77c-.39-.03-.74-.1-.71-.64,.41,0,.66,.2,.71,.64Z"/>
  <path class="cls-13" d="M208.44,82.44c-.07-.62,.36-.71,.78-.81,0,.56-.29,.79-.78,.81Z"/>
  <path class="cls-13" d="M205.01,149.4c.43,.05,.78,.18,.73,.74-.46-.02-.71-.25-.73-.74Z"/>
  <path class="cls-13" d="M213.06,114.5c.25,.15,.5,.3,.76,.45-.62,.54-.69,.05-.76-.45Z"/>
  <path class="cls-13" d="M216.89,150.94c-.46-.06-.77-.26-.76-.81,.51,.01,.76,.28,.76,.81Z"/>
  <path class="cls-13" d="M206.91,152.23c.36,.12,.78,.16,.81,.7-.47,.02-.76-.19-.81-.7Z"/>
  <path class="cls-13" d="M267.43,113.98c-.11,.37-.45,.41-.73,.52,.04-.48,.07-.98,.73-.52Z"/>
  <path class="cls-13" d="M210.77,113.19c-.41-.05-.8-.14-.74-.72,.44,.02,.71,.24,.74,.72Z"/>
  <path class="cls-13" d="M211.51,112.14c.37,.13,.74,.24,.75,.75-.47-.01-.74-.25-.75-.75Z"/>
  <path class="cls-13" d="M219.23,58.68c-.27-.06-.55-.13-.82-.19,.43-.7,.67-.46,.82,.19Z"/>
  <path class="cls-13" d="M205.69,153.08c-.06,.41-.4,.43-.69,.53,.05-.44,.17-.77,.69-.53Z"/>
  <path class="cls-13" d="M242.9,153.72c.39-.26,.78-.53,1.17-.79-.03,.85-.6,.83-1.17,.79Z"/>
  <path class="cls-13" d="M209.99,109.69c.32,.19,.73,.29,.73,.8-.49-.02-.74-.28-.73-.8Z"/>
  <path class="cls-13" d="M269.39,109.28c.04,.58-.05,1.13-.39,1.62,0-.57-.19-1.19,.39-1.62Z"/>
  <path class="cls-13" d="M207.68,107.3c-.33-.19-.75-.3-.69-.84,.51,.03,.72,.32,.69,.84Z"/>
  <path class="cls-13" d="M208.44,154.23c.33,.16,.78,.17,.8,.71-.45-.01-.76-.2-.8-.71Z"/>
  <path class="cls-13" d="M241.25,154.87c.19-.42,.53-.54,.94-.5-.14,.53-.51,.58-.94,.5Z"/>
  <path class="cls-13" d="M220.33,155.76c-.44-.08-.78-.26-.8-.8,.52-.01,.8,.23,.8,.8Z"/>
  <path class="cls-13" d="M256.85,153.36c-.38,.31-.79,.29-1.21,.13,.4-.04,.81-.09,1.21-.13Z"/>
  <path class="cls-13" d="M233.79,53.62c.37-.11,.73-.22,1.1-.33-.29,.4-.7,.35-1.1,.33Z"/>
  <polygon class="cls-8" points="252.67 153.72 252.81 153.74 252.73 153.65 252.67 153.72"/>
  <path class="cls-13" d="M256.74,83.64c-.38,.02-.75,.04-1.13,.06,.35-.59,.73-.54,1.13-.06Z"/>
  <path class="cls-13" d="M229.91,70.88c.38,.12,.76,.23,1.14,.35-.42,.04-.85,.09-1.14-.35Z"/>
  <path class="cls-13" d="M220.8,66.82c.06-.38,.12-.76,.18-1.14,.23,.43,.25,.82-.18,1.14Z"/>
  <path class="cls-13" d="M220.3,67.6c0-.33,.16-.56,.44-.69,0,.33-.12,.58-.44,.69Z"/>
  <path class="cls-13" d="M219,71.19c-.16-.36-.16-.7,.1-1.01,.09,.35,.13,.69-.1,1.01Z"/>
  <path class="cls-13" d="M209.96,160.36c-.24,.05-.49,.11-.73,.16,.18-.37,.42-.44,.73-.16Z"/>
  <path class="cls-13" d="M199.77,140.45c.28,.23,.3,.55,.28,.88-.35-.2-.38-.52-.28-.88Z"/>
  <path class="cls-13" d="M210.76,138.51c.04,.12,.09,.24,.13,.36-.09-.1-.13-.22-.13-.36Z"/>
  <path class="cls-13" d="M208.62,160.62c-.12,.22-.28,.31-.51,.2,.17-.07,.34-.13,.51-.2Z"/>
  <polygon class="cls-8" points="264.55 136.98 264.57 136.98 264.56 137.04 264.52 136.97 264.55 136.98"/>
  <path class="cls-15" d="M228.45,160.19c-.15,.08-.3,.16-.45,.24,.15-.08,.3-.16,.45-.24Z"/>
  <path class="cls-13" d="M240.86,70.39c.03-.19,.06-.37,.09-.56-.03,.19-.06,.37-.09,.56Z"/>
  <path class="cls-13" d="M245.15,50.75c.14-.03,.29-.06,.43-.09-.14,.03-.29,.06-.43,.09Z"/>
  <path class="cls-13" d="M215.74,120.1c-.07-.14-.14-.28-.21-.43,.07,.14,.14,.28,.21,.43Z"/>
  <path class="cls-13" d="M234.55,61.14c.16,.21,.18,.43,.03,.65,0-.22-.02-.43-.03-.65Z"/>
  <path class="cls-13" d="M210.78,80.05c.12-.09,.23-.18,.35-.27-.12,.09-.23,.18-.35,.27Z"/>
  <path class="cls-13" d="M215.65,116.5c0,.13,0,.26,0,.39-.04-.09-.08-.18-.1-.28,0-.03,.07-.07,.11-.11Z"/>
  <path class="cls-13" d="M209.41,83.28c-.04,.16-.08,.33-.12,.5,.04-.16,.08-.33,.12-.5Z"/>
  <path class="cls-13" d="M199.95,115.92c-.09-.21-.17-.42-.26-.63,.09,.21,.17,.42,.26,.63Z"/>
  <path class="cls-13" d="M218.81,153.68c-.05-.11-.1-.21-.15-.32,.09,.09,.14,.19,.15,.32Z"/>
  <path class="cls-13" d="M269,96.86c.06,.07,.12,.14,.16,.22,.01,.02-.04,.08-.06,.13-.09-.1-.12-.22-.1-.35Z"/>
  <path class="cls-13" d="M239.4,156.92l-.08,.15s-.14-.06-.14-.06c.06-.06,.13-.09,.21-.09Z"/>
  <path class="cls-13" d="M240.27,51.99c.17-.02,.34-.03,.51-.05-.17,.02-.34,.03-.51,.05Z"/>
  <path class="cls-13" d="M239.84,53.19l-.11,.12s-.15-.05-.15-.05c.08-.06,.16-.09,.26-.07Z"/>
  <path class="cls-13" d="M207.76,102.32c.15,.23,.16,.47,0,.7,0-.23,0-.47,0-.7Z"/>
  <path class="cls-13" d="M217.64,102.88c-.08,.21-.17,.43-.25,.64,.08-.21,.17-.43,.25-.64Z"/>
  <path class="cls-13" d="M237.01,52.72c.17-.01,.34-.02,.5-.04-.17,.01-.34,.02-.5,.04Z"/>
  <path class="cls-13" d="M208.08,108.78l-.14-.08s.03-.17,.03-.16c.07,.07,.1,.15,.11,.25Z"/>
  <path class="cls-3" d="M245.21,41.97c.48,1.19,1.41,.45,1.96,.31,10.93-2.74,21.84-5.57,32.76-8.36,4.83-1.24,9.65-2.5,14.49-3.65,7.38-1.76,14.63-4.05,22.07-5.52,.15,.15,.31,.31,.46,.46-2.72,1.33-5.71,1.59-8.57,2.36-8.95,2.44-17.95,4.71-26.93,7-8.07,2.06-16.15,4.05-24.23,6.08-5.52,1.39-11.04,2.82-16.55,4.23-.29-.09-.76-.1-.84-.29-.18-.42,.27-.46,.54-.54,1.38-.4,2.77-.78,4.15-1.16,.09-.13,.18-.25,.27-.38-.11-.03-.21-.06-.32-.09,0-.08,0-.16,.01-.23,.24-.08,.49-.15,.73-.23Z"/>
  <path class="cls-4" d="M244.52,42.89c-1.38,.39-2.77,.76-4.15,1.16-.27,.08-.72,.12-.54,.54,.08,.19,.55,.2,.84,.29-.83,.54-1.75,.67-2.7,.7,.02-.79-.51-.81-1.01-.68-.84,.21-1.65,.51-2.47,.78-.4,.08-.79,.16-1.19,.24-.12-.25-.24-.5-.36-.75,3.85-.99,7.7-1.98,11.55-2.98-.01,.08-.01,.15-.01,.23,.02,.15,.03,.31,.05,.46Z"/>
  <path class="cls-15" d="M316.95,25.21c-.15-.15-.31-.31-.46-.46,2.21-.69,4.42-1.39,6.75-1.58-.03,.72-.55,.72-1.05,.83-1.75,.39-3.49,.81-5.24,1.22Z"/>
  <path class="cls-15" d="M328.4,19.63c1.01-.28,2.01-.62,3.04-.82,.39-.08,1.25-.54,1.05,.64-1.37,.27-2.75,.54-4.12,.8,0-.21,.02-.42,.03-.62Z"/>
  <path class="cls-3" d="M234.49,45.68c.82-.26,1.64-.56,2.47-.78,.5-.13,1.02-.11,1.01,.68-1.15,.26-2.31,.51-3.46,.77,0-.22-.01-.45-.02-.67Z"/>
  <path class="cls-3" d="M328.4,21.63c0,.21-.02,.42-.03,.62-.89,.79-2.03,.62-3.06,.87,0-.21-.01-.42-.02-.63,.96-.58,2.07-.6,3.11-.86Z"/>
  <path class="cls-15" d="M325.29,22.5c0,.21,.01,.42,.02,.63-.7,.33-1.39,.69-2.11,.06,.58-.63,1.36-.59,2.1-.69Z"/>
  <path class="cls-14" d="M250.23,49.99c.11-.17,.21-.34,.32-.52,.4-.08,.81-.16,1.21-.24-.16,1.03-.93,.7-1.53,.75Z"/>
  <path class="cls-3" d="M307.3,35.01c-.16,.04-.31,.07-.47,.11,.16-.04,.31-.07,.47-.11Z"/>
  <path class="cls-15" d="M170.01,69.67c1.07,.11,2.14,.23,3.2,.34-.39,.3-.78,.59-1.17,.89-.55,.05-1.1,.19-1.61-.19-.14-.35-.29-.69-.43-1.04Z"/>
  <path class="cls-3" d="M232.93,45.17c.12,.25,.24,.5,.36,.75-.37,.14-.8,.22-.95-.23-.13-.42,.27-.48,.58-.51Z"/>
  <path class="cls-3" d="M184.35,58.4c.15,.85-.24,1.03-1,1.27-3.68,1.16-7.41,2.19-10.75,4.28-.1,.07-.28,.04-.36,.12-.64,.68-2.06,.9-1.91,1.97,.16,1.21,1.54,.77,2.38,.97,1.03,.25,2.12,.26,3.18,.37-.01,.36-.04,.84-.38,.82-2-.14-4.05,.11-5.91-1.03-1.04-.63-.92-1.25-.22-2.01,.95-1.04,1.99-1.95,3.15-2.71,2.74-.99,5.53-1.88,8.22-3.02,1.18-.5,2.61,.12,3.59-1.02Z"/>
  <path class="cls-14" d="M204.64,100.07c-.12,.13-.25,.27-.37,.4-.45-.03-.78-.19-.73-.76,.37,.12,.74,.24,1.1,.35Z"/>
  <path class="cls-14" d="M269.77,120.9c.44,0,.88,.04,1.24-.31,.06,.38,.11,.76,.17,1.14-.57,2.37-.12,4.78-.28,7.16,.02,.7,0,1.4-.38,2.02-.48,.13-.95,.26-1.43,.39-.03-1.51,.86-2.86,.71-4.39,1.05-1.15,1.05-4.07,0-5.21,0-.27-.02-.53-.03-.8Z"/>
  <path class="cls-14" d="M264.56,137.04s.02-.06,.02-.06c.91-1.23,1.95-2.32,3.14-3.25,.18,.26,.36,.53,.54,.79-.21,1.24-1.33,1.63-2.06,2.38-.54,.05-1.09,.09-1.63,.14Z"/>
  <path class="cls-14" d="M267.7,133.72c.33-.74,.2-1.77,1.22-2.06,.27,.15,.55,.29,.82,.44-.06,.62-.32,1.15-.68,1.64l-1.35-.02Z"/>
  <path class="cls-13" d="M270.9,128.89c.16-2.38-.3-4.8,.28-7.16,.24,2.4,.47,4.8-.28,7.16Z"/>
  <path class="cls-13" d="M269.74,132.1c-.27-.15-.55-.29-.82-.44,.06-.12,.11-.24,.17-.37,.48-.13,.95-.26,1.43-.39,.15,.69-.45,.85-.78,1.2Z"/>
  <path class="cls-13" d="M267.7,133.72l1.35,.02c0,.57-.34,.74-.81,.78-.18-.26-.36-.53-.54-.79,0,0-.01,0-.01,0Z"/>
  <path class="cls-14" d="M258.49,153.34c-.5-.11-1.6,.7-1.17-.83,.55,.03,1.61-.71,1.17,.83Z"/>
  <path class="cls-15" d="M177.64,69.92c1.3-.26,2.6-.51,3.9-.79,.34-.07,.8-.04,.89-.56,.07-.44-.3-.5-.54-.69-.3-.24-.61-.5-.81-.82-.52-.86-2.35-.93-1.65-2.45,.54-1.17,1.88-1.12,3-1.25,.48,1.24,1.5,.38,2.24,.63-.79,.54-1.74,.33-2.59,.57-.37,.1-.83,.13-.81,.64,.01,.27,.28,.56,.51,.77,.99,.91,2.81,1.39,2.45,3.08-.36,1.68-2.26,1-3.42,1.46-.9,.36-1.97,.56-3,.33,.18-.58,.96-.17,1.17-.74-.46-.06-.89-.12-1.33-.18Z"/>
  <path class="cls-13" d="M184.66,64c-.73-.26-1.76,.6-2.24-.63,2.68-.46,5.36-.92,8.03-1.38,.15,.29,.26,.26,.35-.04,0,0-.01,.02-.01,.02,.79,0,1.63,.34,2.34-.33,.58-.45,1.24-.47,1.91-.4,0,.37,0,.73,0,1.1-.46,.04-.91,.09-1.37,.13-.17,.03-.33,.06-.49,.09-.57,.12-1.15,.23-1.72,.35-.2,.04-.4,.08-.6,.12-.62,.07-1.24,.15-1.86,.22-.14,.04-.28,.08-.41,.12-1.26,.5-2.6,.52-3.92,.64Z"/>
  <path class="cls-13" d="M177.64,69.92c.43,.06,.87,.12,1.33,.18-.21,.57-.99,.16-1.17,.74-.89,.25-1.78,.38-2.69,.18-.11,0-.23,0-.34,.01-.92,.25-1.82,.07-2.72-.14,.39-.3,.78-.59,1.17-.89,.38,0,.77,0,1.15,0,.12,.28,.25,.28,.38,0,.97-.03,1.93-.06,2.9-.08Z"/>
  <path class="cls-15" d="M190.86,63.03c.2-.04,.4-.08,.6-.12-.2,.04-.4,.08-.6,.12Z"/>
  <path class="cls-15" d="M193.18,62.56c.16-.03,.33-.06,.49-.08-.16,.03-.33,.06-.49,.08Z"/>
  <path class="cls-15" d="M188.58,63.36c.14-.04,.28-.08,.41-.12-.14,.04-.28,.08-.41,.12Z"/>
  <path class="cls-15" d="M174.77,71.04c.11,0,.23,0,.34-.01,0,0-.17,.09-.17,.09l-.17-.08Z"/>
  <path class="cls-3" d="M212.68,51.14c.78,.17,1.59-.75,2.35,.06-2.03,1.16-4.34,1.34-6.53,1.94-6.11,1.67-12.26,3.22-18.4,4.8-.62,.16-1.31,.64-1.84-.2,3.55-1.39,7.27-2.13,10.92-3.12,4.18-1.13,8.44-1.95,12.55-3.35,.3-.1,.62-.09,.94-.13Z"/>
  <path class="cls-15" d="M193.14,61.64c-.71,.67-1.55,.32-2.34,.33,.78-.11,1.56-.22,2.34-.33Z"/>
  <path class="cls-15" d="M174.75,70.01c-.13,.27-.26,.27-.38,0,.13,0,.25,0,.38,0Z"/>
  <path class="cls-15" d="M190.81,61.95c-.09,.3-.2,.33-.35,.04,.11-.11,.22-.13,.35-.04Z"/>
  <path class="cls-14" d="M215.54,108.1c.24,.05,.53,.13,.42,.43-.06,.17-.36,.24-.55,.35,.04-.26,.09-.52,.13-.79Z"/>
  <path class="cls-13" d="M269.8,121.69c1.05,1.14,1.06,4.07,0,5.21,0-1.74,0-3.48,0-5.21Z"/>
  <path class="cls-11" d="M244.52,42.89c-.02-.15-.03-.31-.05-.46,.11,.03,.21,.06,.32,.09-.09,.13-.18,.25-.27,.38Z"/>
</svg>