<?xml version="1.0" encoding="UTF-8"?>
<svg id="Layer_1" data-name="Layer 1" xmlns="http://www.w3.org/2000/svg" viewBox="0 0 414 200">
  <defs>
    <style>
      .cls-1 {
        fill: #f7b7d3;
      }

      .cls-2 {
        fill: #6a6258;
      }

      .cls-3 {
        fill: #00bff3;
      }

      .cls-4 {
        fill: #ece2cd;
      }

      .cls-5 {
        fill: #fff9b8;
      }

      .cls-6 {
        fill: #fff200;
      }

      .cls-7 {
        fill: #fbb040;
      }

      .cls-8 {
        fill: #6b6b6b;
      }

      .cls-9 {
        fill: #9ed2f1;
      }

      .cls-10 {
        fill: #737372;
      }

      .cls-11 {
        fill: #baac98;
      }

      .cls-12 {
        fill: #aea8a1;
      }

      .cls-13 {
        fill: #c3bebe;
      }

      .cls-14 {
        fill: #48443f;
      }

      .cls-15 {
        fill: #35312e;
      }

      .cls-16 {
        fill: #524d4b;
      }
    </style>
  </defs>
  <path class="cls-14" d="M159.12,184.25c-1.98,.04-3.97,.08-5.95,.13-.7-.49-1.4-.98-2.1-1.48,.53,.05,1.07,.11,1.6,.16,.18,.02,.35,.03,.53,.05,4.8-.01,9.58-.18,14.18-2.32-2.55-1.77-4.87-3.54-7.34-5.02-.92-.55-2.31-.87-3.26-.53-6.69,2.46-13.09,2.02-19.18-1.95-1.73-1.13-2.87-.34-4.31,.71,4.03,4.5,9.1,6.24,14.09,8.15-.05,.39-.11,.78-.16,1.16-4.14-2.06-8.18-.7-12.4-.09-4.49,.65-9.14-.13-13.72-.26-1.29-.04-2.66-.31-3.86,.07-7,2.23-13.93,3.13-20.83-.46-.71-.37-1.71-.13-2.58-.08-1.76,.09-3.52,.24-5.28,.36-.23-.18-.46-.36-.69-.55,.21-.28,.42-.55,.63-.83,.39,0,.79,0,1.18,0,.33-.02,.65-.03,.98-.05,.24-.06,.48-.11,.73-.17,.5-.06,1.01-.12,1.51-.18,.27-.13,.54-.26,.81-.39-.3-.24-.6-.48-.9-.72-1.87-1.99-3.74-3.97-5.81-6.17,1.03-.93,1.6-1.44,2.16-1.95,3.92-1.88,7.83-3.77,12.34-5.93-4.45-2.68-8.29-2.96-12.29-1.66-.34-.23-.69-.45-1.03-.68,.3-.29,.6-.84,.89-.83,3.75,.07,6.47-3,9.79-3.92,4.59-1.27,9.38-1.93,13.63,1.88,.75,.67,2.57,.74,3.48,.21,6.15-3.58,12.1-4.01,18.09,.44,.77,.58,2.36,.71,3.16,.22,6.52-3.94,12.83-3.64,19.17,.46,.64,.42,1.89,.1,2.7-.28,2.33-1.1,4.59-2.4,6.87-3.63,.55-.14,1.1-.27,1.65-.41,4.39-.47,8.37,.01,12.4,2.76,1.82,1.24,5.27-.22,7.94-.7,3.01-.54,5.98-1.35,8.96-2.04,2.43,.96,4.86,1.92,7.92,3.14-.16-1.33-.28-2.31-.39-3.28l1.1-2.2c.28,.32,.57,.64,.85,.96,.23-.56,.46-1.12,.69-1.68,.33-.21,.67-.41,1-.62,.6-.44,1.64-.8,1.73-1.35,.36-2.06,.42-4.19,.59-6.29,2.26-8.02,4.14-16.2,6.92-23.99,1.88-5.27,4.82-10.13,7.66-14.91,2.69-4.53,6.12-8.31,10.97-10.28,2.41-.98,2.47-2.51,.41-4.27-2.58-2.2-5.28-4.25-7.83-6.49-1.52-1.34-3.25-2.68-4.22-4.46-3.38-6.25-8.43-7.89-14.56-7.23-1.23,.13-2.49-.03-3.73-.18-3.03-.35-5.83-.32-8.54,1.92-2.38,1.96-5.34,1.84-8.15,.54-.7-.32-1.43-.54-2.41-.9,1.47,3.42,1.13,4.17-1.9,4.18-3.84,.02-7.64-.4-10.98-2.84-.25-.19-.49-.38-.74-.58-.14-.13-.28-.26-.41-.38,.1-.43,.2-.85,.29-1.28,3.75,2.96,7.94,3.95,12.99,3.54-.7-1.37-1.19-2.35-1.71-3.31-.84-1.56-.38-2.25,1.1-3.05,2.65-1.44,5.12-3.31,7.66-5l.58-.76-.59-.2c-.66,.08-1.32,.15-1.98,.23-2.01,.12-4.02,.24-6.03,.36-.33,.06-.66,.12-.99,.19-.4,.07-.8,.13-1.2,.2-.32,.01-.64,.03-.96,.04-.01-.4-.02-.79-.03-1.19,2.21-.37,4.42-.74,6.38-1.07-2.87-5.1-5.9-10.01-8.49-15.17-4.81-9.61-9.37-19.37-14.03-29.07,.59,.31,1.48,.45,1.74,.97,5.79,11.51,11.45,23.1,17.28,34.58,1.45,2.86,3.38,5.43,5.16,8.07,.87,1.29,5.07,.69,6.84-.84,2.5-2.16,5.11-4.18,7.5-6.47,5.6-5.38,15.97-3.22,18.64,3.76,.25,.67,1.52,1.28,2.28,1.23,6.92-.48,13.84-1.06,20.75-1.76,.73-.07,1.66-.96,2-1.73,1.63-3.7,4-6.67,7.21-8.66,5.82-3.6,13.11-.5,14.91,6.19,.12,.39,.23,.79,.35,1.18,.04,.28,.07,.55,.11,.83,.02,.52,.04,1.04,.06,1.56-1.66,.22-3.32,.41-4.98,.66-2.27,.34-4.54,.73-6.81,1.09-.17,.39-.33,.78-.49,1.17-2,2.12-.78,4.24-.08,6.42,.7,2.17,2.18,1.17,3.37,1.12,3.29-.13,6.57-.37,9.85-.56,1.02,.03,2.05-.02,3.05,.13,.33,.05,.61,.6,.91,.91-1.67,.16-3.33,.32-4.99,.48-.12,.17-.24,.3-.32,.46-2.58,5.1-1.9,9.05,2.27,13.22,3.71,3.72,5.86,9.01,7.07,14.58,.24,1.12,1.26,2.14,2.1,3,3.81,3.9,5.88,8.86,6.7,14.35,.58,3.88,1.41,7.46,3.25,10.95,2.98,5.66,3.87,11.93,2.57,18.44-.16-.99-.37-1.97-.47-2.96-.19-1.95-.32-3.9-.47-5.85-.79-4.27-1.87-8.4-4.27-11.73-2.87,3.59-3.43,7.33-1.24,11.39,.39,.72,.48,1.69,.52,2.56,.24,4.74,1.1,9.59-2.54,13.51-.55,.59-.38,1.98-.62,3.46,4.18-1.8,6.17-4.87,7.53-8.6,.37,0,.73,0,1.1,.01-.1,.4-.21,.81-.31,1.21-.08,.2-.16,.4-.24,.6-.24,.58-.49,1.15-.73,1.73-.06,.04-.16,.08-.16,.13,0,.13,.04,.27,.06,.4,.05,.41,.11,.82,.16,1.24-.33,.23-.67,.46-1,.69-1.37,1.01-2.65,2.25-4.14,2.98-1.74,.85-2.44,2.08-2.77,4.11-.85,5.08-3.18,9-7.97,10.56-1.76-.2-3.52-.4-5.29-.61-.06-.1-.13-.17-.22-.23,1.94-3.6,3.22-7.4,2.88-12.28-1.96,.78-3.65,1.47-5.36,2.11-.89,.33-1.81,.58-2.71,.87,.68-.89,1.35-1.78,2.03-2.67-4.18-3.72-11.25-2.53-13.73,2.59,3.95-.94,7.66,2.47,11.48-.09,.02-.02,.13,.12,.2,.18,.07,.23,.26,.6,.2,.65-3.28,2.93-6.58,5.83-9.89,8.74-.34,.65-.69,1.29-1.03,1.94-1.27,.34-2.54,.68-3.81,1.03-.01,.31-.02,.61-.03,.92,1.68,1.01,3.36,2.01,5.04,3.02-.26,.29-.52,.58-.77,.87-1.13-.54-2.46-.82-3.33-1.67-1.96-1.94-3.87-1.88-6.29-1.1-5.41,1.73-10.63,1.14-15.45-2.51-.75-.57-2.17-.08-3.89-.08,3.76,4.96,8.2,6.38,12.52,8.11,.67,.27,1.11,1.25,1.65,1.9-3.09-1.54-6.22-.86-9.34-.17-5.99,1.31-11.81,.5-17.57-1.49-1.01-.35-2.23-.39-3.28-.16-6.08,1.32-12.11,1.75-18.15-.3-.94-.32-2.12-.21-3.08,.09-5.75,1.79-11.46,2.01-17.34,.64-2-.46-4.28,.54-6.43,.87-.22,.06-.44,.13-.66,.19-.63,.17-1.26,.33-1.89,.5-.27,.06-.53,.12-.8,.17-.83,.11-1.67,.22-2.5,.34-.22,.03-.44,.06-.67,.09Zm77.76-85.75c-.36,.18-.72,.35-1.09,.53-2.63,2.23-5.99,3.93-7.75,6.81-4.16,6.84-8.08,13.99-11.1,21.5-2.49,6.18-3.85,12.99-5.13,19.66-.72,3.73-.41,7.74-.25,11.6,.08,2,1.22,3.46,2.65,3.21,1.41-4.69,2.46-9.08,4.06-13.21,1.48-3.82,3.79-7.24,5.3-11.04,1.95-4.91,3.51-10.01,5.15-15.07,.56-1.72,1.23-3.54,1.23-5.32,0-6.82,1.25-12.98,6.35-17.51,.28-.28,.57-.56,.85-.85,.1-.12,.19-.24,.29-.35l-.57,.04Zm43.2,16.33l.03,.1c1.15,2.64,2.31,5.28,3.46,7.92l.15,1.21c.16,2,.31,4,.51,6.54,5.27-5.04,3.51-16.04-.1-21.96-1.16-1.65-2.31-3.3-3.9-5.57-.51,2.91-.82,4.7-1.13,6.49-1.57,2.18-.67,3.82,.98,5.28Zm-18.95-7.29c.03,.06,.06,.13,.11,.18,.02,.02,.08-.02,.13-.03-.09-.04-.17-.08-.26-.11-.13-2.33-.27-4.67-.4-7-.22-.02-.45-.04-.67-.06-.51,1.97-1.03,3.94-1.6,6.13,1.04,.35,1.87,.63,2.69,.9Zm13.19,49.93c.44,.03,.89,.07,1.33,.1-.06,.59-.11,1.17-.17,1.76-.14,1.21-.28,2.42-.42,3.64-.47,2.24-.93,4.48-1.4,6.72,3.28,1.23,6.21-.04,8.2-4.16,3.17-6.54,3.07-17-3.03-23.06-1.06,4.3-2.01,8.21-2.97,12.11-.35-.37-.69-.74-1.04-1.12-.64,.04-1.28,.08-1.91,.12,0-.43-.01-.85-.02-1.28,2.96-1.56,3.05-1.99,1.41-5.21-2.09-4.1-2.3-8.44-.73-12.72,.57-1.57,.19-2.31-.75-3.18,.1-.35,.2-.71,.31-1.06,.3-.28,.6-.55,.9-.83,.37-.03,.75-.05,1.12-.08,1.38,3.26,2.66,6.58,4.18,9.76,1.96,4.13,4.11,8.14,6.13,12.1,5.52-5.82,.3-21.09-10.33-28.68-.19,.43-.37,.85-.55,1.27-.08,.32-.16,.65-.43,1.74-.15-1.47-.21-2.14-.28-2.82-.51-2.26-2.71-4.29-4.82-4.46-.32,1.36-.63,2.73-.95,4.09-.11-.16-.13-.33-.05-.51-.02-.73-.03-1.46-.05-2.19-.11-1.23,.21-3.01-.41-3.61-2.95-2.85-4.91-7.29-9.38-7.72-1.77,2.48-3.52,4.92-5.25,7.37-.21,.29-.4,.7-.39,1.05,.16,5.67-2.75,9.9-6.01,13.5-3.72,4.1-6.12,8.28-6.36,14.31-.15,3.79-1.92,7.51-2.99,11.36,5.96-1.78,11.28-.73,16.01,3.82,4.61-4.94,9.82-5.29,15.43-2.51,.34,.33,.68,.66,1.02,1,1.55-.22,3.1-.44,4.65-.66Zm-54.38-92.19c-.02,.23-.04,.47-.06,.7-1.2,.09-2.4,.18-3.6,.27-2.09-2.07-5.09-1.77-5.96,.6-3.65,.19-5.14,3.52-7.9,6.05,15.58,1.65,30.39-.17,45.53-1.39-.47-2.79-.9-5.41-1.34-8.03,.17-.48,.34-.97,.57-1.62-5.01,.38-9.76,.7-14.51,1.13-4.66,.42-9.32,.96-13.98,1.44,0,.24,.02,.48,.03,.72,.41,.05,.81,.1,1.22,.15Zm12.08,95.57c1.68-2.87,3.1-4.97,4.2-7.26,2.64-5.48,3.68-11.48,3.52-17.58-.25-9.39-.88-18.76-1.4-28.14-.12-2.27-.43-4.52-.65-6.78-.33-.13-.67-.27-1-.4-1.48,2.75-3.83,5.34-4.27,8.28-.9,6.02-.98,12.23-1.02,18.37-.07,9.3,.42,18.62-2.76,27.54-.2,.56,0,1.52,.33,2.05,.75,1.19,1.7,2.22,3.04,3.91Zm37.31-102.04c-.25-3.38-1.42-5.75-3.89-7.15-8.62-4.88-15.2,3.36-16.61,10.43-1.3,6.5,1.41,11.98,4.52,17.12,1.07,1.77,2.89,2.98,4.36,4.45,.34-.1,.69-.21,1.03-.31,.16-2.42,.73-4.92,.36-7.25-.43-2.74-1.72-5.31-2.54-7.99-1.68-5.5,1.38-9.54,6.51-8.93,1.97,.23,4.01-.21,6.26-.36Zm4.72,48.28c-1.15-6.57-4.74-11.05-8.66-15.33-4.8-5.25-11.84-7.78-15.11-14.95-.09-.19-1.81,.15-1.84,.37-.26,2.18-.83,4.53-.33,6.55,1.36,5.57,4.77,9.86,9.01,12.9,5.29,3.8,11.03,6.86,16.94,10.45Zm-52.13-44.41c-1.36-4.56-4.39-5.93-7.77-6.75-5.78-1.4-9.52,2.97-13.46,6.21-4.5,3.7-8.61,7.97-12.86,11.97,2.91,2.96,6.58,3.33,10.09,.48,2.69-2.19,5.22-4.65,7.74-7.09,3.05-2.95,6.42-4.77,10.61-4.53,1.74,.1,3.51-.18,5.65-.3Zm24.82,14.76c-3.83,1.5-5.66,4.27-6.55,7.94-2.6,10.68-.21,21.27,.83,32.39,.89-.49,1.17-1.48,1.72-2.22,3-4.06,4.33-8.81,4.36-13.89,.06-7.96-.22-15.92-.36-24.22Zm-39.04,93.72c3.74,3.43,7.54,4.51,12.16,3.57,7.7-1.58,14.29-6.15,21.91-9.88-1.4-.83-2.2-1.67-3.05-1.74-3.68-.31-7.64-1.41-11.01-.35-6.68,2.08-13.04,5.4-20.01,8.41Zm54.1-7.13c-11.76-3.9-20.87,3.18-30.64,7.92,7.91,7.74,22.94,1.76,30.64-7.92Zm-147.93,8.51c2.61,2.55,5.54,3.01,8.6,2.74,8.32-.71,15.35-5.65,23.02-8.58-11.82-7.44-21.34,.15-31.62,5.84Zm81.17-7.16c-9.67-6.66-23.63-.89-31.48,6.68,2.87,2.02,6.18,2.77,9.22,1.76,7.32-2.42,14.48-5.45,22.26-8.45Zm-57.03,6.34c8.89,6.09,23.95,3.03,30.71-6.17-11.33-4.27-20.68,2.28-30.71,6.17Zm-16.45-5.73c-3.53-3.37-7.64-3.53-11.56-2.03-6.19,2.37-12.19,5.39-18.62,8.29,8.59,6.84,20.12,1.11,30.18-6.26Zm108.45-33.35c-.29-.17-.58-.35-.86-.52-3.24,5.99-6.64,11.88-9.64,18.01-1.37,2.81-2.12,6.04-2.83,9.17-.42,1.84,.32,3.46,2.27,4,1.9,.52,3.03-.39,3.79-2.24,1.14-2.76,2.07-5.68,3.58-8.18,3.78-6.25,4.06-13.14,3.69-20.23Zm-44.35,38.01c7.5,5.15,23.5,2.02,31.48-6.15-11.83-5.56-21.26,2.09-31.48,6.15Zm54.9-50.09c.2,.19,.4,.37,.6,.56,1.21-.58,2.43-1.15,3.64-1.73,7.12-3.39,11.91-8.98,13.47-17.52,.16-.88,.04-2.26-.48-2.78-1.54-1.57-3.34-2.83-5.11-4.28-2.3,2.84-4.23,5.69-4.58,9.81-.46,5.46-2.4,10.37-6.35,14.07-.51,.47-.79,1.25-1.18,1.88Zm21.68-18.79c-.1,.85-.23,1.33-.19,1.79,.27,3.58,1.72,6.43,4.25,8.73,4.38,3.97,8.65,8.1,13.05,12.05,.51,.46,1.77,.57,2.29,.19,.42-.31,.5-1.69,.27-2.42-.41-1.34-1.13-2.57-1.76-3.82-4.02-7.94-10.22-12.97-17.9-16.5Zm14.53,9.22c4.07-8.81-1.44-24.85-9.99-29.99-.58,.97-1.9,2.29-1.67,2.92,1.06,2.86,.35,6.21,2.89,8.75,4.13,4.14,6.92,9.34,7.62,15.67,.09,.78,.64,1.5,1.16,2.65Zm-39.17-19.12c.54-2.71,1.09-4.97,1.39-7.26,.1-.75-.27-1.9-.8-2.38-2.65-2.41-5.41-4.69-8.18-6.93-.53-.43-1.29-.74-1.94-.72-2.29,.07-4.58,.3-7.42,.51,4.8,7.08,10.27,12.51,16.95,16.79Zm-120.75,89.6c-2.18-1.7-4.31-3.12-6.16-4.89-1.31-1.26-2.44-1.55-4.06-.9-5.12,2.05-10.11,1.52-14.92-1.23-.57-.33-1.17-.61-2.08-1.07,5.17,9.83,16.16,12.62,27.22,8.1Zm-6.01-7.59c7.08,9.18,20.1,10.74,28.05,6.52-1.65-1.25-3.48-2.21-4.76-3.72-1.74-2.05-3.4-2.05-5.63-1.25-5.14,1.84-10.26,2.22-15.12-1.26-.63-.45-1.68-.21-2.53-.29Zm49.05-.7c5.68,7.29,20.88,10.91,28.47,6.71-2.14-1.79-4.31-3.75-6.64-5.46-.77-.57-2.06-.95-2.9-.67-5.5,1.88-10.89,2.72-16.25-.54-.59-.36-1.51-.05-2.68-.05Zm73.88,8.27c-2.21-1.7-4.52-2.97-6.2-4.9-1.61-1.84-3.02-1.71-4.93-1.13-5.36,1.63-10.5,1.34-15.28-2.33-.75-.58-2.18-.08-3.3-.08,8.7,8.85,18.68,10.96,29.71,8.44Zm-23.81-1.36c-2.46-1.94-4.63-3.79-6.94-5.38-.71-.49-1.9-.61-2.73-.36-5.36,1.62-10.35,.6-15.23-2.08-.79-.44-1.9-.18-3.41-.28,6.43,8.13,18.29,11.36,28.31,8.09Zm42.08-18.7c-3.4-6.18-13.99-6.77-17.31-1.14,8.92,3.71,10.33,3.81,17.31,1.14Zm-10.71-27.31c4.68-4.92,8.39-9.62,10.1-16.88-3.9,2.17-7.65,3.34-10.07,5.98-1.27,1.38-.24,5.34-.22,8.14,0,.67,.09,1.34,.2,2.76Zm27.34-62.65c-1.66,.09-2.97,.16-4.29,.24-3.54,.21-3.81,.7-3.84,4.58-.02,2.75-.49,5.49-.81,8.81,.18,0,1.15,.33,1.55-.05,3.71-3.56,6.79-7.59,7.4-13.57Zm-29.33,9.78c3.41-2.62,6.43-4.96,9.46-7.29-.11-.31-.22-.62-.32-.93-5.6,.42-11.21,.85-16.81,1.27-.07,.21-.14,.43-.21,.64,2.79,2.24,5.58,4.47,7.88,6.31Zm-78.2,81c2.93,.85,6.02,1.75,9.12,2.61,.39,.11,.88,.07,1.25-.09,2.33-1.05,4.65-2.15,7.02-3.26-5.27-4.07-13.2-3.59-17.4,.74Zm-6.58,.88c-3.83-3.56-9.98-4.05-14.34-1.06,4.63,3.11,9.35,5.22,14.34,1.06Zm-36.97-1.32c1.65,1.07,3.12,2.13,4.68,2.99,.63,.35,1.54,.53,2.19,.31,2.59-.87,5.12-1.93,7.68-2.93-3.15-3.26-9.63-3.46-14.55-.37Zm-21.43,.5c2.6,.8,5.09,2.22,7.55,2.15,2.47-.07,4.9-1.61,7.49-2.56-4.09-3.72-11.1-3.53-15.04,.41Zm106.4-.76c-4.29-2.89-8.76-3.19-13.74-.64,4.75,1.83,9.07,4.56,13.74,.64Zm72.61-27.19c-2.04,3.93-1.69,9.3,.82,12.32,3.12-6.01,3.06-6.8-.82-12.32Zm-51.26,27.64c2.46-.55,4.24-.95,6.62-1.49-1.71-1.52-2.96-2.63-4.46-3.95-.76,1.91-1.35,3.4-2.17,5.44Zm1.85-27.34c2.74-2.93,5.6-5.81,3.85-11.03-1.37,3.92-2.61,7.48-3.85,11.03Zm-16.14,21.44c-.29-.15-.58-.3-.87-.45-.67,1.6-1.34,3.21-2,4.81,1.25,.27,2.51,.54,3.97,.85-.46-2.18-.78-3.7-1.09-5.22Zm39.29-65.65v5.86c3.49-2.06,3.48-3.41,0-5.86Z"/>
  <path class="cls-5" d="M271.61,69.83c-3.28,.19-6.57,.43-9.85,.56-1.19,.05-2.67,1.05-3.37-1.12-.71-2.19-1.93-4.3,.08-6.42,3.18-.22,6.37-.44,9.55-.66,.21-.05,.42-.1,.64-.16,.35-.02,.7-.03,1.05-.05,.96,.07,1.93,.29,2.88,.18,2.61-.3,5.21-.73,7.82-1.12,6.71-.43,13.42-.85,20.12-1.28,3.7-.42,7.4-.88,11.1-1.23,2.41-.23,4.83-.31,7.25-.45,.53,.02,1.07,.1,1.59,.06,8.47-.64,16.95-1.3,25.42-1.95,1.66-.14,3.32-.28,4.98-.41,.72,2.43,1.47,4.84,2.12,7.29,.12,.44-.23,1.04-.37,1.56-.26-.22-.53-.64-.78-.62-6.34,.33-12.68,.7-19.01,1.12-.06,0-.07,.78-.1,1.2-.66,.1-1.32,.2-1.98,.3-.71-.31-1.42-.9-2.12-.87-5.13,.16-10.26,.32-15.37,.71-13.88,1.06-27.76,2.23-41.63,3.36Z"/>
  <path class="cls-7" d="M165.9,21c4.66,9.7,9.22,19.46,14.03,29.07,2.59,5.17,5.61,10.07,8.49,15.17-1.96,.33-4.17,.7-6.38,1.07-.23-.03-.47-.07-.7-.1-3.75-6.6-7.77-13.03-11.19-19.83-3.64-7.25-6.7-14.84-10.02-22.29,1.92-1.03,3.85-2.06,5.77-3.09Z"/>
  <path class="cls-15" d="M205.55,155.38l-1.1,2.2c-.31-.04-.63-.07-.94-.11-.14-.55-.14-1.21-.43-1.63-4.83-7.2-9.72-14.34-14.53-21.55-1.66-2.48-3.14-5.09-4.77-7.74-1.14,.51-2.34,1.05-3.9,1.75v-13.97c3.68,2.9,6.99,5.51,10.73,8.47-1.81,1.04-3.1,1.79-4.75,2.74,5.11,8.2,10.15,16.39,15.31,24.49,1.24,1.95,2.9,3.58,4.37,5.35Z"/>
  <path class="cls-16" d="M291.54,154.15c.33-.23,.67-.46,1-.69,.62,7.8-1.51,14.11-7.15,19.36-5.76,5.37-12.05,8.09-19.55,8.45-3.27,.15-6.44,2.34-9.73,2.67-4.64,.46-9.36,.04-14.05,0,.83-.41,1.65-1.13,2.5-1.16,2.38-.07,4.79,.38,7.16,.18,3.27-.28,6.51-.96,9.77-1.47-.03-.27-.06-.55-.09-.82-.93-.22-1.88-.39-2.79-.68-1.01-.32-1.99-.76-2.98-1.15,.26-.29,.52-.58,.77-.87,7.94,2,15.77,2.8,23.34-2.4-7.28-.87-14.16-2.42-21.19-1.77-1.09,.1-2.23-.51-3.34-.79,.34-.65,.69-1.29,1.03-1.94,.66,.39,1.33,1.16,1.96,1.12,4.32-.31,8.63-.8,12.94-1.23,.09,.06,.16,.13,.22,.23,.27,.73,.48,2.06,.82,2.09,2.07,.24,4.17,.19,6.27,.24,5.34-.5,9.31-3.32,11.1-8.91,1.07-3.33,1.35-6.97,1.99-10.47Z"/>
  <path class="cls-15" d="M206.04,142.83c-.94-6.01-1.81-12.03-2.83-18.03-1.77-10.45-3.63-20.87-5.45-31.31q-.41-2.34,1.84-3.02c.3,2.01,.57,3.99,.91,5.96,2.5,14.43,5.01,28.86,7.54,43.28,.22,1.24,.53,2.47,.8,3.7,.15,2.12,.31,4.23,.46,6.35-.23,.04-.47,.07-.7,.11-.86-2.35-1.71-4.69-2.57-7.04Z"/>
  <path class="cls-15" d="M197.6,156.92c-6.18-5.67-12.36-11.34-18.73-17.18-.75,.64-1.77,1.52-3.25,2.81-1.17-4.51-2.26-8.7-3.6-13.84,4.46,1.95,8.14,3.56,11.82,5.17,.09,.31,.18,.62,.27,.92-1.1,.79-2.21,1.59-3.78,2.72,4.98,4.76,9.42,9.01,13.86,13.26,2.57,2.46,5.15,4.92,7.72,7.38-1.43-.41-2.87-.82-4.3-1.24Z"/>
  <path class="cls-15" d="M208.09,154.05c-.33,.21-.67,.41-1,.62-1.03-2.39-2.29-4.69-3.04-7.18-4.73-15.82-9.37-31.68-13.96-47.56-.21-.74,.3-1.74,.47-2.61,.26,.07,.52,.14,.77,.22,4.53,15.12,9.07,30.24,13.6,45.36,.21,.91,.37,1.84,.64,2.74,.82,2.81,1.67,5.61,2.51,8.41Z"/>
  <path class="cls-9" d="M255.63,178.84c.99,.39,1.97,.83,2.98,1.15,.91,.29,1.86,.46,2.79,.68,.03,.27,.06,.55,.09,.82-3.26,.51-6.5,1.19-9.77,1.47-2.37,.2-4.78-.25-7.16-.18-.84,.03-1.66,.75-2.5,1.16-.41-.15-.82-.3-1.22-.46-.54-.65-.98-1.63-1.65-1.9-4.32-1.72-8.77-3.14-12.52-8.11,1.72,0,3.14-.49,3.89,.08,4.82,3.65,10.04,4.24,15.45,2.51,2.42-.78,4.33-.84,6.29,1.1,.87,.86,2.21,1.13,3.33,1.67Z"/>
  <path class="cls-5" d="M350.86,55.78c-1.66,.14-3.32,.28-4.98,.41-2.5-.16-5-.54-7.48-.42-6.08,.3-12.16,.81-18.24,1.31-.45,.04-.86,.65-1.29,1-2.42,.15-4.84,.22-7.25,.45-3.7,.35-7.4,.82-11.1,1.23-1.35-.32-2.71-.96-4.04-.89-5.03,.26-10.04,.73-15.06,1.19-.36,.03-.68,.64-1.02,.98-2.61,.38-5.21,.82-7.82,1.12-.94,.11-1.92-.11-2.88-.18-.75-.26-1.5-.75-2.25-.74-2.83,.05-5.66,.27-8.49,.43,2.27-.37,4.54-.75,6.81-1.09,1.66-.25,3.32-.44,4.98-.66,1.08-.1,2.15-.2,3.23-.3,6.22-.5,12.45-1.01,18.67-1.51,.72-.02,1.44-.05,2.15-.07,14.42-1.15,28.84-2.3,43.26-3.45,3.49-.22,6.98-.39,10.46-.7,.67-.06,1.29-.71,1.93-1.08,.14,1,.27,1.99,.41,2.99Z"/>
  <path class="cls-16" d="M271.61,69.83c13.88-1.13,27.75-2.3,41.63-3.36,5.12-.39,10.25-.55,15.37-.71,.7-.02,1.41,.57,2.12,.87-18.39,1.41-36.78,2.83-55.17,4.24-.3-.32-.57-.87-.91-.91-1-.15-2.03-.1-3.05-.13Z"/>
  <path class="cls-14" d="M160.13,24.09c3.32,7.44,6.38,15.04,10.02,22.29,3.41,6.8,7.43,13.24,11.18,19.83-.72-.34-1.43-.69-2.14-1.03-.11-.17-.22-.35-.33-.52-.14-.22-.28-.45-.42-.67-1.88-3.41-3.88-6.75-5.62-10.24-4.49-9-8.9-18.07-13.27-27.14-.38-.8-1.83-2.32,.58-2.52Z"/>
  <path class="cls-9" d="M89.21,164.25c4-1.3,7.84-1.02,12.29,1.66-4.5,2.17-8.42,4.05-12.34,5.93,.02-2.53,.03-5.06,.05-7.59Z"/>
  <path class="cls-14" d="M338.06,54.58c-14.42,1.15-28.84,2.3-43.26,3.45v-1.11c5.46-.41,10.92-.81,16.39-1.22,.2-.01,.4-.03,.59-.04,1.46-.14,2.93-.28,4.39-.42,.35-.02,.71-.03,1.06-.05,1.62-.13,3.24-.27,4.86-.4,.51-.05,1.03-.1,1.54-.15,.84-.03,1.68-.06,2.53-.09,2.01-.18,4.02-.36,6.03-.54,1.96-.16,3.93-.32,5.89-.48,0,.35-.01,.7-.02,1.05Z"/>
  <path class="cls-16" d="M179.19,65.18c.71,.34,1.43,.69,2.14,1.03,.23,.03,.47,.06,.7,.1,.01,.4,.02,.79,.03,1.19-.72,.19-1.45,.37-2.17,.56l-1.07-.39c.07,.2,.14,.4,.21,.6-1.65,.93-3.37,1.73-4.93,2.82-1.39,.97-2.13,2.39-.92,4.18-.1,.43-.2,.85-.29,1.28-2.96-2.24-1.95-4.37-.14-6.08,1.55-1.47,3.68-2.17,5.46-3.38,.5-.34,.66-1.26,.98-1.91Z"/>
  <path class="cls-15" d="M332.72,66.33c.03-.42,.05-1.2,.1-1.2,6.34-.42,12.67-.79,19.01-1.12,.25-.01,.52,.41,.78,.62-.22,.07-.44,.14-.66,.22-.17,.02-.34,.03-.51,.05-6.24,.48-12.48,.95-18.72,1.43Z"/>
  <path class="cls-14" d="M292.64,58.1c-6.22,.5-12.45,1.01-18.67,1.51,0-.32,0-.64,0-.96l11.23-.99c.7-.04,1.41-.08,2.11-.12,1.78-.15,3.55-.3,5.33-.45,0,.33,0,.67,0,1Z"/>
  <path class="cls-16" d="M338.06,54.58c0-.35,.01-.7,.02-1.05,3.36-.29,6.72-.57,10.08-.86,.57-.05,1.14-.1,1.71-.15,.19,.09,.39,.18,.58,.28-.64,.38-1.27,1.02-1.93,1.09-3.48,.32-6.97,.48-10.46,.7Z"/>
  <path class="cls-2" d="M147.22,183.32c.05-.39,.11-.78,.16-1.16,1.23,.25,2.46,.49,3.69,.74,.7,.49,1.4,.98,2.1,1.48-1.98-.35-3.97-.7-5.95-1.05Z"/>
  <path class="cls-16" d="M293.28,137.55c.15,1.95,.28,3.91,.47,5.85,.1,.99,.31,1.97,.47,2.96-.15,.6-.3,1.2-.46,1.8-.37,0-.73,0-1.1-.01,.21-3.53,.41-7.06,.62-10.6Z"/>
  <path class="cls-16" d="M273.97,58.64c0,.32,0,.64,0,.96-1.08,.1-2.15,.2-3.23,.31-.02-.52-.04-1.04-.06-1.56,1.1,.1,2.19,.2,3.29,.29Z"/>
  <path class="cls-16" d="M332.19,54.01c-2.01,.18-4.02,.36-6.03,.54,2.01-.18,4.02-.36,6.03-.54Z"/>
  <path class="cls-16" d="M292.64,58.1c0-.33,0-.67,0-1,.72-.06,1.44-.12,2.16-.18,0,.37,0,.74,0,1.11-.72,.02-1.44,.05-2.15,.07Z"/>
  <path class="cls-16" d="M287.31,57.54c-.7,.04-1.41,.08-2.11,.12,.7-.04,1.41-.08,2.11-.12Z"/>
  <path class="cls-16" d="M323.63,54.64c-.51,.05-1.03,.1-1.54,.15,.51-.05,1.03-.1,1.54-.15Z"/>
  <path class="cls-13" d="M89.69,181.47c-.39,0-.79,0-1.18,0,.39,0,.79,0,1.18,0Z"/>
  <path class="cls-13" d="M87.87,182.31c.23,.18,.46,.36,.69,.55-.25,.09-.5,.18-.74,.28,.02-.27,.04-.55,.05-.82Z"/>
  <path class="cls-16" d="M317.23,55.19c-.35,.02-.71,.03-1.06,.05,.35-.02,.71-.03,1.06-.05Z"/>
  <path class="cls-16" d="M167.62,157.71c-.55,.14-1.1,.27-1.65,.41,.55-.14,1.1-.27,1.65-.41Z"/>
  <path class="cls-12" d="M349.87,52.52c-.57,.05-1.14,.1-1.71,.15,.57-.05,1.14-.1,1.71-.15Z"/>
  <path class="cls-9" d="M92.81,179.96c.3,.24,.6,.48,.9,.72-.27,.13-.54,.26-.81,.39-.03-.37-.06-.74-.09-1.11Z"/>
  <path class="cls-16" d="M173.31,76.93c.25,.19,.49,.38,.74,.58-.25-.19-.49-.38-.74-.58Z"/>
  <path class="cls-16" d="M270.57,57.52c-.12-.39-.23-.79-.35-1.18,.12,.39,.23,.79,.35,1.18Z"/>
  <path class="cls-13" d="M91.4,181.26c-.24,.06-.48,.11-.73,.17,.24-.06,.48-.11,.73-.17Z"/>
  <path class="cls-2" d="M164.98,183.14c.22-.06,.44-.13,.66-.19-.22,.06-.44,.13-.66,.19Z"/>
  <path class="cls-2" d="M162.29,183.82c.27-.06,.53-.12,.8-.17-.27,.06-.53,.12-.8,.17Z"/>
  <path class="cls-2" d="M159.12,184.25c.22-.03,.44-.06,.67-.09-.22,.03-.44,.06-.67,.09Z"/>
  <path class="cls-16" d="M293.2,149.96c.08-.2,.16-.4,.24-.6-.08,.2-.16,.4-.24,.6Z"/>
  <path class="cls-16" d="M292.37,152.22c-.02-.13-.06-.27-.06-.4,0-.04,.11-.08,.16-.13,.03,.19,0,.37-.1,.53Z"/>
  <path class="cls-16" d="M311.78,55.66c-.2,.01-.39,.03-.59,.04,.2-.01,.39-.03,.59-.04Z"/>
  <path class="cls-4" d="M351.43,64.9c.17-.02,.34-.03,.51-.05-.17,.02-.34,.03-.51,.05Z"/>
  <path class="cls-16" d="M178.44,63.99c.14,.22,.28,.45,.42,.67-.14-.22-.28-.45-.42-.67Z"/>
  <path class="cls-7" d="M236.32,99.65c-5.1,4.53-6.35,10.69-6.35,17.5,0,1.78-.67,3.6-1.23,5.32-1.64,5.05-3.2,10.16-5.15,15.07-1.51,3.8-3.82,7.23-5.3,11.04-1.6,4.13-2.65,8.52-4.06,13.21-1.43,.25-2.57-1.21-2.65-3.21-.16-3.87-.46-7.88,.25-11.6,1.28-6.67,2.64-13.48,5.13-19.66,3.02-7.51,6.94-14.66,11.1-21.5,1.75-2.88,5.12-4.57,7.75-6.81,.17,.21,.35,.42,.52,.63Z"/>
  <path class="cls-7" d="M232.02,160.85c-1.34-1.69-2.29-2.72-3.04-3.91-.33-.53-.54-1.49-.33-2.05,3.18-8.92,2.7-18.24,2.76-27.54,.04-6.14,.12-12.34,1.02-18.37,.44-2.94,2.79-5.53,4.27-8.28,.33,.13,.67,.27,1,.4,.22,2.26,.52,4.51,.65,6.78,.52,9.38,1.15,18.75,1.4,28.14,.16,6.1-.88,12.1-3.52,17.58-1.1,2.29-2.52,4.39-4.2,7.26Z"/>
  <path class="cls-5" d="M216.29,66.26c1.2-.09,2.4-.18,3.6-.27,2.46-.13,4.92-.26,7.38-.39,2.03-.34,4.06-.77,6.1-.99,2.14-.24,4.29-.24,6.43-.42,2.28-.19,4.55-.47,6.82-.71,.44,2.62,.88,5.24,1.34,8.03-15.14,1.22-29.95,3.05-45.53,1.39,2.76-2.52,4.25-5.85,7.9-6.05,1.99-.2,3.97-.4,5.96-.6Z"/>
  <path class="cls-7" d="M269.34,58.82c-2.24,.15-4.28,.6-6.26,.36-5.13-.61-8.19,3.43-6.51,8.93,.82,2.68,2.11,5.25,2.54,7.99,.36,2.32-.21,4.82-.36,7.25-.34,.1-.69,.21-1.03,.31-1.48-1.47-3.3-2.68-4.36-4.45-3.11-5.14-5.82-10.62-4.52-17.12,1.41-7.07,7.99-15.31,16.61-10.43,2.47,1.4,3.64,3.77,3.89,7.15Z"/>
  <path class="cls-7" d="M274.06,107.09c-5.91-3.6-11.65-6.65-16.94-10.45-4.23-3.04-7.65-7.34-9.01-12.9-.49-2.02,.08-4.37,.33-6.55,.03-.23,1.76-.56,1.84-.37,3.27,7.17,10.31,9.7,15.11,14.95,3.92,4.29,7.51,8.77,8.66,15.33Z"/>
  <path class="cls-7" d="M221.93,62.69c-2.15,.13-3.91,.4-5.65,.3-4.19-.24-7.56,1.58-10.61,4.53-2.52,2.44-5.04,4.9-7.74,7.09-3.51,2.85-7.17,2.48-10.09-.48,4.25-4,8.36-8.27,12.86-11.97,3.95-3.25,7.68-7.61,13.46-6.21,3.38,.81,6.4,2.19,7.77,6.75Z"/>
  <path class="cls-7" d="M246.75,77.44c.14,8.31,.41,16.27,.36,24.22-.04,5.08-1.36,9.84-4.36,13.89-.55,.74-.83,1.73-1.72,2.22-1.04-11.12-3.42-21.71-.83-32.39,.89-3.68,2.72-6.44,6.55-7.94Z"/>
  <path class="cls-9" d="M207.71,171.16c6.97-3.01,13.33-6.32,20.01-8.41,3.38-1.05,7.33,.04,11.01,.35,.85,.07,1.65,.91,3.05,1.74-7.62,3.73-14.2,8.3-21.91,9.88-4.62,.95-8.42-.14-12.16-3.57Z"/>
  <path class="cls-9" d="M261.81,164.04c-7.7,9.68-22.73,15.66-30.64,7.92,9.77-4.75,18.88-11.82,30.64-7.92Z"/>
  <path class="cls-9" d="M113.88,172.55c10.28-5.69,19.8-13.27,31.62-5.84-7.67,2.93-14.7,7.87-23.02,8.58-3.06,.26-5.99-.2-8.6-2.74Z"/>
  <path class="cls-9" d="M195.05,165.39c-7.78,3-14.94,6.02-22.26,8.45-3.04,1.01-6.35,.25-9.22-1.76,7.85-7.57,21.81-13.34,31.48-6.68Z"/>
  <path class="cls-9" d="M138.03,171.72c10.03-3.89,19.38-10.44,30.71-6.17-6.76,9.2-21.82,12.26-30.71,6.17Z"/>
  <path class="cls-9" d="M121.57,166c-10.06,7.37-21.59,13.11-30.18,6.26,6.43-2.9,12.42-5.92,18.62-8.29,3.92-1.5,8.03-1.35,11.56,2.03Z"/>
  <path class="cls-7" d="M230.03,132.65c.37,7.09,.08,13.98-3.69,20.23-1.51,2.49-2.44,5.42-3.58,8.18-.76,1.85-1.9,2.76-3.79,2.24-1.95-.53-2.69-2.16-2.27-4,.71-3.13,1.46-6.36,2.83-9.17,3-6.13,6.4-12.02,9.64-18.01,.29,.17,.58,.35,.86,.52Z"/>
  <path class="cls-9" d="M185.68,170.65c10.22-4.05,19.64-11.7,31.48-6.15-7.98,8.16-23.97,11.3-31.48,6.15Z"/>
  <path class="cls-7" d="M240.59,120.56c.39-.63,.67-1.4,1.18-1.88,3.96-3.7,5.89-8.61,6.35-14.07,.35-4.12,2.28-6.97,4.58-9.81,1.78,1.45,3.58,2.71,5.11,4.28,.51,.53,.64,1.9,.48,2.78-1.55,8.55-6.35,14.13-13.47,17.52-1.21,.58-2.43,1.15-3.64,1.73-.2-.19-.4-.37-.6-.56Z"/>
  <path class="cls-3" d="M275.49,159.34c.06-.59,.11-1.17,.17-1.76,.07-.99,.14-1.99,.21-2.98,.96-3.9,1.92-7.81,2.97-12.11,6.11,6.05,6.2,16.52,3.03,23.06-1.99,4.11-4.93,5.39-8.2,4.16,.47-2.24,.93-4.48,1.4-6.72,.14-1.21,.28-2.42,.42-3.64Z"/>
  <path class="cls-9" d="M151.07,182.9c-1.23-.25-2.46-.49-3.69-.74-4.99-1.91-10.06-3.65-14.09-8.15,1.44-1.05,2.58-1.84,4.31-.71,6.09,3.96,12.49,4.41,19.18,1.95,.94-.35,2.34-.03,3.26,.53,2.47,1.48,4.79,3.25,7.34,5.02-4.59,2.14-9.37,2.31-14.18,2.32-.18-.02-.35-.03-.53-.05-.53-.05-1.07-.11-1.6-.16Z"/>
  <path class="cls-3" d="M262.26,101.77c7.68,3.53,13.88,8.55,17.9,16.5,.63,1.25,1.36,2.48,1.76,3.82,.22,.74,.15,2.12-.27,2.42-.52,.38-1.77,.28-2.29-.19-4.4-3.95-8.67-8.08-13.05-12.05-2.53-2.3-3.98-5.15-4.25-8.73-.04-.46,.09-.93,.19-1.79Z"/>
  <path class="cls-3" d="M274.57,123.7c.18-.42,.37-.84,.55-1.27,10.64,7.59,15.86,22.86,10.33,28.68-2.02-3.96-4.17-7.98-6.13-12.1-1.51-3.18-2.79-6.5-4.18-9.76-.19-1.85-.39-3.7-.58-5.55Z"/>
  <path class="cls-7" d="M276.79,110.99c-.52-1.15-1.07-1.87-1.16-2.65-.69-6.33-3.49-11.54-7.62-15.67-2.54-2.54-1.82-5.89-2.89-8.75-.23-.62,1.08-1.95,1.67-2.92,8.55,5.14,14.07,21.18,9.99,29.99Z"/>
  <path class="cls-7" d="M237.62,91.87c-6.67-4.27-12.14-9.71-16.95-16.79,2.83-.21,5.12-.44,7.42-.51,.65-.02,1.41,.29,1.94,.72,2.77,2.25,5.53,4.52,8.18,6.93,.52,.48,.89,1.62,.8,2.38-.29,2.3-.85,4.56-1.39,7.26Z"/>
  <path class="cls-9" d="M116.87,181.47c-11.06,4.51-22.04,1.73-27.22-8.1,.91,.47,1.5,.75,2.08,1.07,4.82,2.75,9.81,3.28,14.92,1.23,1.62-.65,2.74-.36,4.06,.9,1.85,1.77,3.98,3.19,6.16,4.89Z"/>
  <path class="cls-3" d="M293.28,137.55c-.21,3.53-.41,7.06-.62,10.6-1.36,3.73-3.35,6.8-7.53,8.6,.24-1.48,.07-2.87,.62-3.46,3.65-3.92,2.79-8.78,2.54-13.51-.04-.87-.13-1.84-.52-2.56-2.19-4.06-1.63-7.8,1.24-11.39,2.4,3.33,3.48,7.46,4.27,11.73Z"/>
  <path class="cls-9" d="M110.86,173.88c.85,.08,1.9-.16,2.53,.29,4.86,3.48,9.98,3.1,15.12,1.26,2.24-.8,3.89-.8,5.63,1.25,1.28,1.51,3.11,2.46,4.76,3.72-7.95,4.21-20.97,2.65-28.05-6.52Z"/>
  <path class="cls-9" d="M159.92,173.18c1.17,0,2.09-.31,2.68,.05,5.36,3.26,10.75,2.42,16.25,.54,.84-.29,2.12,.1,2.9,.67,2.32,1.71,4.5,3.68,6.64,5.46-7.59,4.2-22.78,.58-28.47-6.71Z"/>
  <path class="cls-1" d="M271.15,170.96c-4.31,.43-8.62,.91-12.94,1.23-.63,.05-1.31-.72-1.96-1.12,3.3-2.9,6.6-5.81,9.89-8.74,.06-.05-.13-.43-.2-.65l.02-.02c.91-.29,1.82-.53,2.71-.87,1.7-.64,3.39-1.33,5.36-2.11,.34,4.88-.93,8.68-2.88,12.28Z"/>
  <path class="cls-9" d="M233.79,181.45c-11.04,2.52-21.01,.41-29.71-8.44,1.12,0,2.55-.5,3.3,.08,4.78,3.67,9.92,3.95,15.28,2.33,1.91-.58,3.32-.71,4.93,1.13,1.68,1.93,3.99,3.2,6.2,4.9Z"/>
  <path class="cls-9" d="M209.98,180.09c-10.03,3.27-21.88,.03-28.31-8.09,1.51,.1,2.62-.16,3.41,.28,4.88,2.68,9.87,3.7,15.23,2.08,.83-.25,2.02-.14,2.73,.36,2.31,1.59,4.48,3.44,6.94,5.38Z"/>
  <path class="cls-1" d="M255.21,173.01c1.12,.28,2.26,.89,3.34,.79,7.02-.65,13.9,.9,21.19,1.77-7.57,5.19-15.4,4.4-23.34,2.4-1.68-1.01-3.36-2.01-5.04-3.02,.01-.31,.02-.61,.03-.92l3.81-1.03Z"/>
  <path class="cls-5" d="M179.9,68.06c.72-.19,1.45-.37,2.17-.56,.32-.01,.64-.03,.96-.04,.4-.07,.8-.13,1.2-.2,.33-.06,.66-.12,.99-.19,0,.31,0,.62,0,.93-2.74,.97-5.55,1.79-8.19,3.02-.72,.33-1.45,2.02-1.31,2.9,.25,1.52,3.33,2.53,5.09,1.94-1.49-.8-2.91-1.57-4.9-2.65,4.54-3.81,9.32-4.04,13.98-4.66,.46-.61,.91-1.23,1.37-1.84,.66-.08,1.32-.15,1.98-.23,0,.32,0,.64,0,.96-2.54,1.69-5,3.56-7.66,5-1.48,.8-1.94,1.49-1.1,3.05,.52,.96,1,1.95,1.71,3.31-5.05,.41-9.23-.58-12.99-3.54-1.2-1.8-.47-3.21,.92-4.18,1.56-1.09,3.28-1.89,4.93-2.82,.29-.07,.57-.14,.86-.21Z"/>
  <path class="cls-3" d="M291.54,154.15c-.64,3.5-.92,7.13-1.99,10.47-1.79,5.59-5.77,8.41-11.1,8.91-.6-.58-1.2-1.15-1.79-1.73,4.79-1.57,7.12-5.48,7.97-10.56,.34-2.03,1.04-3.26,2.77-4.11,1.49-.73,2.77-1.97,4.14-2.98Z"/>
  <path class="cls-9" d="M252.06,161.39c-6.99,2.67-8.39,2.57-17.31-1.14,3.32-5.63,13.91-5.04,17.31,1.14Z"/>
  <path class="cls-7" d="M241.36,134.08c-.1-1.41-.19-2.09-.2-2.76-.01-2.8-1.05-6.76,.22-8.14,2.42-2.64,6.17-3.81,10.07-5.98-1.71,7.26-5.41,11.96-10.1,16.88Z"/>
  <path class="cls-7" d="M268.69,71.43c-.61,5.98-3.7,10.01-7.4,13.57-.4,.38-1.36,.05-1.55,.05,.32-3.31,.79-6.06,.81-8.81,.03-3.88,.3-4.37,3.84-4.58,1.32-.08,2.64-.15,4.29-.24Z"/>
  <path class="cls-3" d="M283.73,124.05c-.05-.4-.1-.8-.15-1.21,.17-.8,.51-1.61,.46-2.39-.14-2.21-2.57-5.51-3.92-5.52,0,0-.03-.1-.03-.1,.54-1.95,.49-3.78-.98-5.28,.31-1.79,.63-3.58,1.13-6.49,1.59,2.27,2.74,3.92,3.9,5.57,.45,2.68,.96,5.35,1.32,8.04,.42,3.11,.7,6.24,1.03,9.35-.24,.02-.48,.03-.72,.05-.68-.67-1.36-1.35-2.05-2.02Z"/>
  <path class="cls-9" d="M161.17,162.2c4.2-4.33,12.12-4.81,17.4-.74-2.38,1.11-4.69,2.21-7.02,3.26-.37,.17-.86,.2-1.25,.09-3.1-.86-6.19-1.76-9.12-2.61Z"/>
  <path class="cls-1" d="M265.93,161.68c-.07-.06-.17-.2-.2-.18-3.82,2.56-7.54-.85-11.48,.09,2.48-5.12,9.55-6.31,13.73-2.59-.68,.89-1.35,1.78-2.03,2.67,0,0-.02,.02-.02,.02Z"/>
  <path class="cls-9" d="M154.59,163.09c-4.99,4.15-9.72,2.05-14.34-1.06,4.36-2.99,10.51-2.5,14.34,1.06Z"/>
  <path class="cls-9" d="M117.62,161.77c4.93-3.08,11.4-2.89,14.55,.37-2.55,.99-5.09,2.05-7.68,2.93-.65,.22-1.56,.04-2.19-.31-1.57-.86-3.04-1.92-4.68-2.99Z"/>
  <path class="cls-9" d="M96.18,162.27c3.94-3.94,10.95-4.13,15.04-.41-2.58,.95-5.02,2.49-7.49,2.56-2.46,.07-4.95-1.35-7.55-2.15Z"/>
  <path class="cls-5" d="M246.62,63.47c-2.27,.24-4.54,.52-6.82,.71-2.14,.18-4.3,.19-6.43,.42-2.04,.23-4.07,.65-6.1,.99-2.44-.11-4.88-.21-7.32-.32-.41-.05-.81-.1-1.22-.15,0-.24-.02-.48-.03-.72,4.66-.48,9.31-1.02,13.98-1.44,4.75-.43,9.5-.74,14.51-1.13-.23,.65-.4,1.14-.57,1.62Z"/>
  <path class="cls-9" d="M202.58,161.51c-4.67,3.91-8.99,1.19-13.74-.64,4.98-2.55,9.46-2.25,13.74,.64Z"/>
  <path class="cls-3" d="M269.04,118.16c2.11,.16,4.31,2.19,4.82,4.46,.06,2.24,.11,4.47,.17,6.71-.3,.28-.6,.55-.9,.83,0,0-.02,0-.02,0,.03-.14-.02-.23-.15-.27-3.05-3.2-3.97-7.26-3.92-11.72Z"/>
  <path class="cls-3" d="M275.19,134.32c3.88,5.52,3.94,6.31,.82,12.32-2.51-3.02-2.87-8.39-.82-12.32Z"/>
  <path class="cls-3" d="M283.73,124.05c.68,.67,1.36,1.35,2.05,2.02,.24-.02,.48-.03,.72-.05-.34-3.12-.62-6.25-1.03-9.35-.36-2.69-.88-5.36-1.32-8.04,3.61,5.93,5.37,16.92,.1,21.96-.2-2.54-.36-4.54-.51-6.54Z"/>
  <path class="cls-6" d="M223.93,161.96c.81-2.04,1.41-3.53,2.17-5.44,1.49,1.33,2.75,2.44,4.46,3.95-2.38,.53-4.16,.93-6.62,1.49Z"/>
  <path class="cls-12" d="M225.78,134.63c1.24-3.55,2.48-7.11,3.85-11.03"/>
  <path class="cls-16" d="M269.04,118.16c-.05,4.46,.88,8.52,3.92,11.72-.1,.13-.19,.25-.29,.38,.15-.04,.29-.07,.44-.11,0,0,.02,0,.02,0-.1,.35-.2,.71-.31,1.06-2.95-2.11-4.44-5.15-4.73-8.96,.32-1.36,.63-2.73,.95-4.09Z"/>
  <path class="cls-6" d="M209.65,156.06c.32,1.52,.64,3.04,1.09,5.22-1.46-.31-2.71-.58-3.97-.85,.67-1.6,1.34-3.21,2-4.81,.29,.15,.58,.3,.87,.45Z"/>
  <path class="cls-3" d="M272.92,153.6c.64-.04,1.28-.08,1.91-.12-.17,1.33-.33,2.66-.5,4-1.55,.22-3.1,.44-4.65,.66,1.08-1.51,2.16-3.03,3.24-4.54Z"/>
  <path class="cls-3" d="M276.65,171.8c.6,.58,1.2,1.15,1.79,1.73-2.09-.05-4.19,0-6.26-.24-.33-.04-.55-1.36-.82-2.09,1.76,.2,3.52,.4,5.29,.61Z"/>
  <path class="cls-7" d="M261.13,107.54c-.83-.28-1.65-.55-2.69-.9,.57-2.19,1.09-4.16,1.6-6.13,.22,.02,.45,.04,.67,.06,.13,2.33,.27,4.67,.4,7,0,0,.02-.03,.02-.03Z"/>
  <path class="cls-7" d="M248.94,90.41c3.48,2.46,3.49,3.8,0,5.86v-5.86Z"/>
  <path class="cls-2" d="M258.96,61.67c2.83-.16,5.66-.38,8.49-.43,.75-.01,1.5,.48,2.25,.74-.35,.02-.7,.03-1.05,.05-.21,.05-.42,.1-.64,.16l-9.55,.66c.17-.39,.33-.78,.49-1.17Z"/>
  <path class="cls-3" d="M280.12,114.93c1.35,.02,3.78,3.32,3.92,5.52,.05,.78-.3,1.59-.46,2.39-1.15-2.64-2.31-5.28-3.46-7.92Z"/>
  <path class="cls-14" d="M272.92,153.6c-1.08,1.51-2.16,3.03-3.24,4.54-.34-.33-.68-.66-1.02-1,1.41-1.61,2.83-3.22,4.24-4.82,0,.43,.01,.85,.02,1.28Z"/>
  <path class="cls-14" d="M216.29,66.26c-1.99,.2-3.97,.4-5.96,.6,.87-2.37,3.87-2.67,5.96-.6Z"/>
  <path class="cls-16" d="M274.03,129.33c-.06-2.24-.11-4.47-.17-6.71,.07,.68,.13,1.35,.28,2.82,.27-1.09,.35-1.42,.43-1.74,.19,1.85,.39,3.7,.58,5.55-.37,.03-.75,.05-1.12,.08Z"/>
  <path class="cls-3" d="M279.11,109.55c1.47,1.5,1.52,3.32,.98,5.28-1.65-1.46-2.55-3.09-.98-5.28Z"/>
  <path class="cls-5" d="M191.24,66.72c-.46,.61-.91,1.23-1.37,1.84-1.56-.19-3.12-.37-4.67-.56,0-.31,0-.62,0-.93,2.01-.12,4.02-.24,6.03-.36Z"/>
  <path class="cls-10" d="M219.95,65.28c2.44,.11,4.88,.21,7.32,.32-2.46,.13-4.92,.26-7.38,.39,.02-.23,.04-.47,.06-.7Z"/>
  <path class="cls-16" d="M274.33,157.48c.17-1.33,.33-2.66,.5-4,.35,.37,.69,.74,1.04,1.12-.07,.99-.14,1.99-.21,2.98-.44-.03-.89-.07-1.33-.1Z"/>
  <path class="cls-16" d="M275.49,159.34c-.14,1.21-.28,2.42-.42,3.64,.14-1.21,.28-2.42,.42-3.64Z"/>
  <path class="cls-16" d="M268.04,121.75c-.02-.73-.03-1.46-.05-2.19,.02,.73,.03,1.46,.05,2.19Z"/>
  <path class="cls-11" d="M235.8,99.02c.36-.18,.72-.35,1.09-.53,.09,.11,.19,.21,.28,.31-.28,.28-.57,.56-.85,.85-.17-.21-.35-.42-.52-.63Z"/>
  <path class="cls-12" d="M193.23,67.45c0-.32,0-.64,0-.96,.2,.07,.39,.14,.59,.2l-.58,.76Z"/>
  <path class="cls-12" d="M184.22,67.26c-.4,.07-.8,.13-1.2,.2,.4-.07,.8-.13,1.2-.2Z"/>
  <path class="cls-2" d="M152.67,183.06c.18,.02,.35,.03,.53,.05-.18-.02-.35-.03-.53-.05Z"/>
  <path class="cls-12" d="M261.11,107.57c.09,.04,.17,.08,.26,.11-.04,.01-.11,.05-.13,.03-.05-.04-.07-.12-.11-.18,0,0-.02,.03-.02,.03Z"/>
  <path class="cls-11" d="M236.88,98.5l.57-.04c-.1,.12-.19,.24-.29,.35-.1-.1-.19-.2-.28-.31Z"/>
  <path class="cls-8" d="M318.87,58.08c.43-.35,.84-.97,1.29-1,6.08-.5,12.15-1.01,18.24-1.31,2.48-.12,4.99,.27,7.48,.42-8.47,.65-16.95,1.31-25.42,1.95-.53,.04-1.06-.04-1.59-.06Z"/>
  <path class="cls-8" d="M280.39,61.05c.34-.34,.66-.95,1.02-.98,5.01-.46,10.03-.93,15.06-1.19,1.33-.07,2.69,.58,4.04,.89-6.71,.43-13.42,.85-20.12,1.28Z"/>
  <path class="cls-12" d="M268.01,62.19c.21-.05,.42-.1,.64-.16-.21,.05-.42,.1-.64,.16Z"/>
  <path class="cls-14" d="M179.9,68.06c-.29,.07-.57,.14-.86,.21-.07-.2-.14-.4-.21-.6,.36,.13,.72,.26,1.07,.39Z"/>
  <path class="cls-2" d="M185.2,68c1.56,.19,3.12,.37,4.67,.56-4.66,.62-9.44,.84-13.98,4.66,1.99,1.07,3.41,1.84,4.9,2.65-1.76,.6-4.83-.42-5.09-1.94-.15-.89,.59-2.57,1.31-2.9,2.64-1.23,5.45-2.05,8.19-3.02Z"/>
  <path class="cls-14" d="M273.11,130.15c-.15,.04-.29,.07-.44,.11,.1-.13,.19-.25,.29-.38,.13,.03,.18,.12,.15,.27Z"/>
</svg>