<?xml version="1.0" encoding="UTF-8"?>
<svg id="Layer_1" data-name="Layer 1" xmlns="http://www.w3.org/2000/svg" viewBox="0 0 414 200">
  <defs>
    <style>
      .cls-1 {
        fill: #f7b7d3;
      }

      .cls-2 {
        fill: #00b1e7;
      }

      .cls-3 {
        fill: #f4f3f2;
      }

      .cls-4 {
        fill: #fff9b8;
      }

      .cls-5 {
        fill: #fff200;
      }

      .cls-6 {
        fill: #e5e1d9;
      }

      .cls-7 {
        fill: #fbb040;
      }

      .cls-8 {
        fill: #9ed2f1;
      }

      .cls-9 {
        fill: #b4aa94;
      }

      .cls-10 {
        fill: #b6afa9;
      }

      .cls-11 {
        fill: #baac97;
      }

      .cls-12 {
        fill: #332d2b;
      }

      .cls-13 {
        fill: #afc2b1;
      }

      .cls-14 {
        fill: #c4bfba;
      }

      .cls-15 {
        fill: #d4cdcb;
      }

      .cls-16 {
        fill: #403c37;
      }

      .cls-17 {
        fill: #46403b;
      }

      .cls-18 {
        fill: #635c51;
      }

      .cls-19 {
        fill: #484341;
      }

      .cls-20 {
        fill: #797878;
      }

      .cls-21 {
        fill: #524a48;
      }
    </style>
  </defs>
  <path class="cls-16" d="M302.3,103.43s.06,.06,.06,.06c.17,.26,.33,.52,.5,.78,.39,.73,.79,1.45,1.18,2.18,.13,.25,.26,.5,.39,.75,.34,1.84,.69,3.68,1.03,5.53,.14,.28,.28,.56,.42,.84,5.77,6.78,7.35,18.95,1,26.33-.88,1.02-.95,2.63-1.13,4-.98,7.4-4.42,13.43-12.55,16.97-.43,.19-.76,.53-1.14,.79-.11,.16-.22,.32-.33,.48-.34,.54-.67,1.08-1.01,1.63-.36-.18-.72-.36-1.08-.54,.02-.34,.04-.68,.06-1.02-.32,.06-.64,.11-.95,.17-.4,.07-.8,.2-1.19,.19-3.15-.03-5.5,.65-7.39,3.27-2.12,2.93-5.78,4.68-9.8,5.55-.44,.1-.97-.1-1.46-.16-.04-.17-.08-.33-.12-.5,.73-.32,1.45-.64,2.18-.96,1.04-.37,2.17-.63,3.12-1.13,6.53-3.44,9.22-8.78,10.05-15.01,.25-1.88,.43-3.76,.65-5.64-.3-.15-.59-.3-.89-.45-3.04,2.58-6.07,5.17-9.11,7.75-.51-.06-1.02-.11-1.53-.17-.12-.2-.24-.4-.35-.59,.01-.34,.03-.67,.04-1.01,.7-.1,1.39-.19,2.09-.29l.38-.26v-.12s.13-.03,.13-.03c.61-.67,1.21-1.34,1.82-2.01,.22-.08,.44-.17,.66-.25,.27-.24,.55-.48,.82-.72,.6-.46,1.12-1.07,1.82-1.36,3.9-1.65,4.74-4.68,5-7.95,.04-.45-.59-.94-.91-1.41-.53-.11-1.06-.21-1.59-.32,.81-.99,3.31-.85,2.41-3.04-1.61-3.89-.52-7.64,1.68-11.11,.96-1.51,.45-2.27-.61-3.47-1.69-1.91-3.38-3.98-4.26-6.21-.78-1.98-.44-4.28-.59-6.44-.11-.38-.21-.75-.32-1.13-.14,.01-.27,.03-.41,.04-.07,.37-.14,.75-.2,1.12l-.95,.36c-.17,.08-.34,.17-.51,.25-.06,.11-.15,.15-.28,.11-1.09-.02-2.18-.03-3.28-.05,.75-.25,1.5-.5,2.25-.75,.27-.25,.53-.49,.8-.74,.16-.04,.33-.08,.49-.12l.59-.86-.08-.11c-.12-.11-.25-.21-.38-.32-2.54-2.87-5.8-3.65-9.75-2.47-.22,.06-.49,0-.73-.02-.48,.2-.97,.39-1.45,.59,.08,1.2,.17,2.39,.25,3.59-.42,0-.83,0-1.25,.01-.28-1.79-.56-3.58-.84-5.31-2.38-.6-3.94,.05-5.11,1.72-.54,.77-1.48,1.34-2,2.12-.52,.79-1.17,1.78-1.02,2.58,1.21,6.24,.41,12.14-3.3,17.7-.44,.65-.39,1.54-.56,2.32,1.45-.27,2.26-.73,3.06-1.2,.27-.16,.55-.31,.79-.51,5.05-4.18,8.13-9.21,8.98-15.2,.4,.03,.8,.05,1.2,.08-1.16,3.36-2.32,6.72-3.48,10.08,.03,1.11,.06,2.21,.09,3.32,0,.71,0,1.42,0,2.13-.05,.04-.15,.08-.15,.11,.02,.1,.08,.19,.13,.29-.03,.3-.06,.6-.09,.89-.05,.19-.11,.39-.16,.58-.14,.52-.28,1.04-.42,1.56-.03,.17-.06,.34-.09,.51-.04,.23-.08,.47-.12,.7-.46,.14-.93,.28-1.39,.41,.37-2.71,.74-5.42,1.17-8.52-2.71,2.14-4.76,4.01-7.12,5.53-1.46,.94-1.64,1.81-1.33,3.19,.56,2.46,.88,4.95,1.3,7.43,.14,.07,.29,.14,.43,.21,.38-.31,.77-.63,1.15-.94,.37,.12,.74,.24,1.11,.36-.13,.12-.26,.24-.39,.36-.1,.1-.21,.2-.31,.3-1.93,1.29-2.07,3.07-2.18,5-.11,2.05-.72,4.09-1.1,6.13-.05,.13-.11,.27-.16,.4h0c-.18,.5-.36,1-.54,1.51-.61,1.22-1.22,2.44-1.82,3.66-.05,.34-.1,.69-.15,1.03-1.47,.74-2.95,1.48-4.42,2.22-.18-.3-.36-.59-.54-.89,1.68-1.76,3.66-3.37,4.96-5.31,1.14-1.71,1.52-3.78,2.24-5.69,.06-.3,.12-.6,.17-.91,.85-12.78-3.93-24.55-8.7-36.35-3.5,4.15-4.58,8.77-3.76,13.46,.77,4.38,2.4,8.67,3.88,12.94,1.5,4.32,2.66,8.75,.54,12.97-1.57,3.12-2.4,5.89-.29,8.93,.22,.69,.44,1.37,.65,2.06,4.08,2.73,7.57-.13,11.82-.56-.87-.69-1.28-1.01-1.69-1.34,.38-.2,.76-.39,1.14-.59,.64,.05,1.29,.11,1.93,.16,.28,.27,.55,.54,.83,.81,.2,.22,.41,.44,.61,.67,.48,.39,.96,.78,1.45,1.16-4.18,.88-8.5,1.43-12.49,2.73-4.43,1.44-8.56,3.57-12.81,5.4-.74,.32-1.48,.63-2.85,1.21,2.58,.96,4.51,1.67,6.44,2.38,0,.37,0,.73,.01,1.1-.51-.08-1.01-.15-1.52-.23-.16-.06-.32-.13-.49-.19-2.74,.05-4.29-3.41-7.9-1.9,4.02,3.21,8.77,4.73,13.43,6.39l-3.44,.11c-.22-.09-.44-.18-.66-.27-.45,.02-.9,.04-1.34,.06-1.08,.25-2.16,.5-3.24,.75-.71,.13-1.42,.26-2.14,.39-.38,.08-.77,.15-1.15,.23-.59,0-1.19,.1-1.75,0-.57-.1-1.1-.39-1.65-.6,2.66-.47,5.33-.94,8.7-1.53-1.93-1-3.42-1.43-4.33-2.3-2.88-2.77-6.16-2.45-9.67-1.3-.22,.07-.42,.19-.65,.24-5.08,1.05-9.94,.71-13.94-2.37-2.1-1.61-3.48-.87-5.28,.21,3.39,3.38,7.5,5.48,12.32,6.62,.52,.09,1.05,.18,1.57,.28,.46,.05,.91,.1,1.37,.16-.56,.2-1.12,.54-1.7,.58-.77,.05-1.57-.14-2.35-.23-1.63-.06-3.26-.12-4.88-.18-.31,.04-.63,.08-.94,.13-.42,.03-.84,.05-1.26,.08-1.35,.08-2.7,.28-4.03,.22-1.04-.05-2.07-.41-3.1-.63,2.9-.26,5.79-.52,9.32-.84-2.02-1.26-3.84-1.92-4.81-3.08-2.34-2.82-4.98-2.59-8.44-1.76-6.01,1.44-12.03,1.64-17.31-2.16-.55-.4-1.84-.05-2.78-.05-.13,.27-.27,.55-.4,.82,2.45,1.43,4.79,3.05,7.39,4.26,4.65,2.16,9.82,2.66,15.03,2.85,0,.35,0,.71,0,1.06-.33,0-.66,0-.99,0-2.35-.23-4.7-.47-7.05-.7-2.05-.42-4.11-.84-6.16-1.27-.19,.03-.38,.07-.57,.1-.22,.08-.44,.16-.66,.24-2.39,.36-4.77,.76-7.17,1.03-.5,.06-1.07-.35-1.61-.54,.29-.02,.58-.05,.87-.07,.86-.11,1.72-.22,2.58-.33,1.43-.37,2.86-.75,4.28-1.11-2.21-1.55-4.36-2.83-6.16-4.4-1.17-1.02-2.09-.89-3.46-.55-2.89,.72-5.86,1.24-8.79,1.84-.37,.04-.73,.09-1.1,.13-3.87,.65-7.4-.06-10.73-1.82-.7-.37-1.71-.3-2.58-.44-.21,.07-.41,.14-.62,.2,.47,.59,.79,1.43,1.45,1.74,3.09,1.46,6.28,2.78,9.43,4.15,.89,.19,1.79,.38,2.68,.57,.42,.04,.85,.07,1.27,.11-.47,.2-.92,.56-1.4,.58-.87,.04-1.75-.11-2.63-.19-2.11-.14-4.22-.27-6.33-.41-.02-.33-.04-.66-.07-.99-1.57-1.11-3.27-2.11-4.67-3.35-1.26-1.12-2.51-1.3-4.07-.74-.19,.07-.38,.15-.57,.22-.84,.2-1.67,.4-2.51,.59-.93,.05-1.85,.1-2.78,.14-2.22,.03-4.44,.06-6.65,.09-.35-.07-.69-.14-1.04-.21-.82-.25-1.69-.44-2.43-.81-.2-.1-.04-.75-.04-1.14,.01,.11,.02,.22,.03,.34,.19-.04,.37-.09,.56-.13,3.61,1.19,7.31,1.59,11.12,.81,.23-.03,.45-.07,.68-.1,6.15-2.33,12.3-4.67,18.46-7,.45-.18,.89-.36,1.34-.54,.16-.15,.31-.31,.47-.46-.21-.21-.42-.42-.62-.63-3.26-.58-6.5-1.47-9.79-1.65-2.89-.16-5.85,.47-8.78,.75-.33,.27-.67,.54-1,.81-.65,.16-1.29,.31-1.94,.47-.51,.14-1.01,.27-1.52,.41-.4,.16-.8,.32-1.21,.48-.25,.08-.5,.16-.74,.24-2.25,.98-4.48,2.01-6.77,2.92-1.39,.56-2.77,1.02-2.66,2.63-.45-.11-.9-.21-1.35-.32-1.37-.33-2.72-.63-3,1.13l-.12,.1c-.5,0-.99,0-1.49-.01-1.04,.1-2.11,.12-3.12,.32-6.07,1.23-12.07,1.81-18.06-.42-1.06-.39-2.4-.25-3.6-.35-.14,.09-.28,.18-.42,.26,1.75,1.46,3.25,3.28,5.3,4.29,2.54,1.25,5.53,1.82,8.33,2.69-.46,.25-.92,.5-1.37,.74-.54-.1-1.07-.19-1.61-.29-2.05-.16-4.1-.33-6.14-.49-.16,.04-.32,.08-.48,.12-.51,.09-1.02,.18-1.54,.27-.02-.33-.05-.65-.07-.98,.59-.25,1.18-.5,1.81-.77-2.37-1.7-4.59-3.3-6.81-4.89-.38,.06-.77,.12-1.15,.18-1.54,.31-3.09,.62-4.63,.93,.04-.3,.09-.6,.13-.9,5.74-1.92,11.48-3.84,17.22-5.76,.45-.18,.91-.37,1.36-.55-1.84-.78-3.68-1.56-5.52-2.35-.18,0-.35-.01-.53-.02-.77-.05-1.54-.1-2.31-.15-.69-1.09-1.35-1.08-1.98,.04-2.78,.4-5.56,.81-8.34,1.21,.28-.37,.56-.73,.84-1.1,.17-.09,.33-.18,.5-.27,.35-.21,.69-.42,1.04-.63,.29-.16,.57-.31,.86-.47-.3-.27-.6-.53-.9-.8-.31-.17-.63-.35-.94-.52-.15-.1-.3-.2-.46-.3-.2-.28-.41-.55-.61-.83,.41-.02,.82-.05,1.23-.07,.48,.25,1.04,.43,1.41,.76,2.61,2.3,3.9,1.63,6.22,.15,.21-.14,.42-.29,.63-.43,.57-.32,1.15-.64,1.72-.96,.28,.24,.57,.47,.85,.71-.73,.49-1.46,.99-2.19,1.48,.07,.14,.13,.28,.2,.41,2.13,.35,4.71,.17,6.28,1.16,2.95,1.86,5.55,2.1,8.57,.56,.58-.3,1.17-.59,1.76-.89,.18-.04,.36-.08,.54-.11,1.39-.47,2.78-.95,3.89-1.33-.87-.99-1.68-1.91-2.49-2.84,1.05,.45,2.09,.89,3.14,1.34,.5,.29,.99,.58,1.49,.87,1,0,2,.01,3.01,.02,.13-.08,.27-.15,.4-.23,.35-.21,.7-.42,1.05-.63,.16,.03,.32,.05,.48,.04,.32,.13,.65,.26,.97,.39,.69,.23,1.38,.45,2.06,.68,.2,.04,.41,.07,.61,.11,2.09,.89,4.18,1.77,6.26,2.66,.48,.02,.95,.04,1.43,.06,2.4-.83,4.81-1.63,7.18-2.49,.69-.25,1.3-.69,1.94-1.04,.27-.14,.53-.27,.8-.41l.63-.05c.28,.15,.57,.3,.85,.46,.96,1.53,2.24,.22,3.37,.28,.15-.09,.3-.18,.45-.27,0,0-.11-.02-.11-.02,.33-.12,.65-.24,.98-.36,0,0,.19-.14,.19-.14,2.04-.74,4.08-1.48,6.12-2.22,.29,.25,.58,.5,.88,.75-1.92,.65-3.84,1.3-5.95,2.02,3.07,.93,5.75,1.74,8.42,2.55,.38,.26,.76,.51,1.14,.77l.13-.08h.16c.02,.42,.04,.83,.06,1.25-3.67,1.67-7.33,3.33-11,5,.05,.22,.1,.44,.15,.67,1.98,.58,3.95,1.16,5.93,1.75,.31,.03,.62,.06,.93,.08,10.59-.59,19.71-4.9,29.59-8.24-2.2-2.62-5.28-3.01-8.28-3.54-.17-.35-.35-.7-.52-1.05,2.29-.9,4.59-1.81,6.88-2.71l1.06-.21c.48-.06,.95-.11,1.43-.17,1.19,0,2.38,0,3.56,0,.61,.07,1.22,.14,1.83,.22,.21,.05,.41,.11,.62,.16,.48,.07,.97,.14,1.45,.21,.34,.11,.68,.22,1.03,.33,1.6,.69,3.24,1.34,4.8,2.09,1.53,.74,2.33,.47,2.9-.99,.58-1.51,1.48-2.93,2.23-4.39,.11-.57,.22-1.14,.33-1.71-.64-.81-1.29-1.63-1.93-2.44-.26-.31-.53-.62-.79-.93-.22-.31-.44-.63-.66-.94-.02-.14-.1-.23-.25-.29-.24-.32-.47-.63-.71-.95-.17-.25-.35-.51-.52-.76-.16-.25-.32-.49-.48-.74-.15-.17-.3-.35-.45-.52-.51-.86-1.02-1.72-1.54-2.58-.09-.12-.17-.24-.26-.36-.41-.59-.81-1.18-1.22-1.76,.3-.26,.61-.53,.91-.79,2.58,3.67,5.13,7.34,7.76,10.98,.35,.48,1,1.1,1.55,1.12,1.52,.07,3.92-3.18,3.24-4.36-2.84-4.94-5.75-9.86-8.62-14.79-3.14-5.38-6.27-10.76-9.4-16.15,.38-.02,.77-.03,1.15-.05,2.29,3.95,4.57,7.9,6.86,11.85,.52,.65,1.04,1.31,1.56,1.96l.88-.6-1.75-3c-2.34-4.6-4.7-9.19-7-13.8-.21-.42-.08-.96-.11-1.45,.61,.52,1.48,.95,1.79,1.58,3.95,8,7.91,16,11.67,24.06,3.39,7.27,6.94,14.52,8.13,22.38,.05,.36,.58,.85,1,.97,2.86,.82,5.37-.67,5.55-3.26,.08-1.17,.01-2.34,.01-3.51,.29-.03,.59-.07,.88-.1,1.8,1.59,.72,3.67,.44,5.61,2.25-.36,3.28-1.39,3.21-3.85-.08-3.15-.21-6.34-.89-9.42-2.52-11.35-5.3-22.65-7.93-33.98-.91-3.91-1.67-7.84-2.49-11.76,.29-.03,.57-.07,.86-.1,.28,.45,.56,.9,.9,1.45,0-.76,.1-1.33-.02-1.86-.63-2.92-1.3-5.84-1.96-8.76,.09-1.44,.19-2.89,.28-4.33,.27,0,.55,0,.82,0,.68,4.31,1.37,8.62,2.05,12.93,.11,.75,.22,1.49,.32,2.24,.52,4.04,1.02,8.08,1.56,12.12,.24,1.76,.58,3.51,.87,5.26,2.05,8.65,4.09,17.3,6.14,25.95,.67-.72,1.05-1.44,1.07-2.17,.14-3.61,.41-7.24,.21-10.85-.5-8.98-1.22-17.94-1.86-26.91-.32-2.18-.68-4.36-.94-6.55-.86-7.14-1.81-14.27-2.45-21.42-.28-3.12,.02-6.3,3.8-8.16-.29,.85-.3,1.89-.9,2.53-3.52,3.75-1.54,7.52-.37,11.47,.75-.57,1.34-1.01,1.92-1.45,1.47-.74,2.94-1.48,4.41-2.22-.35,.68-.7,1.37-1.05,2.05-1.12,.74-2.13,1.89-3.38,2.14-1.94,.4-2.01,1.42-1.96,2.62,.05,1.17,.23,2.35,.47,3.51,.09,.43,.51,.82,.59,.94,.87-.54,1.47-.92,2.07-1.29-.08,4.98-.16,9.97-.25,14.95,0,.33-.01,.65-.02,.98,0,.2,0,.4-.01,.61-.04,.04-.12,.09-.12,.13,0,.11,.04,.21,.06,.32,0,.36,0,.72,0,1.07,.04,.52,.09,1.04,.13,1.56l.26,5.9,.18,.87c.17,2.24,.33,4.48,.5,6.72,.03,.42,.06,.84,.09,1.27,.07,.84,.13,1.69,.2,2.53v7.47c.21,0,.42,0,.64,0,.35-1.28,.67-2.56,1.04-3.83,.39-1.34,.83-2.67,1.25-4,2.63-5.98,2.11-12.36,3.18-18.54,0-.18,.02-.37,.03-.55,.08-1.26,.17-2.53,.25-3.79,.11-.66,.21-1.32,.32-1.98,.15-2.42,.29-4.84,.44-7.26,.11-.36,.21-.73,.32-1.09,.03-.42,.06-.84,.09-1.26,.03-1.05,.06-2.09,.1-3.14-.05-.14-.05-.28,0-.42,0-.56,.01-1.13,.02-1.69,.01-1.27,.03-2.53,.04-3.8,.06-.04,.17-.09,.16-.12-.02-.11-.08-.21-.12-.32-.09-.04-.17-.02-.23,.04,.57-.75,1.13-1.5,1.7-2.25l.1,.95c0,.15-.02,.3-.03,.46-.09,1.12-.18,2.24-.27,3.36-.02,.27-.04,.55-.06,.82,.04,.43,.08,.86,.12,1.28-.13,.56-.26,1.12-.4,1.68l-.15,3.8c-.09,1.43-.17,2.86-.26,4.29-.02,.17-.03,.33-.05,.5v4.38c3.64-2.47,3.53-6.11,4.78-9.2,.74-1.82,1.07-3.78,1.44-5.69,.28-1.45,.34-2.92,.49-4.39-.12-.57-.24-1.14-.36-1.7-.05-.84-.1-1.68-.14-2.52v-2.97c0-.28,0-.56,0-.84,.04-.28,.08-.57,.11-.85,.13-.21,.26-.42,.39-.63,.19-.08,.38-.16,.57-.24l.6,.04-.34,2.18c-.04,1-.08,2.01-.12,3.01,.18,1.18,.3,2.37,.55,3.53,1.24,5.6,4.12,9,10.21,8.47,1.04-7.28-1.76-13.61-6.4-19.59-1.15,.62-2.04,1.11-2.93,1.59-.2-.19-.39-.37-.59-.55,1.23-1.37,3.3-2.41,2.43-4.58,.78,.76,1.72,1.44,2.3,2.29,1.56,2.31,2.97,4.69,4.44,7.05,.24,.01,.47,.03,.71,.04,.57-1.98,1.35-3.95,1.68-5.96,.73-4.57-1.32-8.61-3.68-12.56,.21-.19,.43-.37,.64-.56,.57,.54,1.14,1.08,1.71,1.63,.35,.75,.71,1.51,1.06,2.26,.27,.6,.55,1.19,.96,2.07,1.19-.86,2.09-1.51,2.99-2.16,3.67-2.1,7.33-4.21,11-6.31,.18,.31,.37,.61,.55,.92-1.55,1.07-3.11,2.14-4.66,3.21-2.72,1.57-5.47,3.1-8.12,4.75-.58,.36-1.19,1.27-1.05,1.79,1.1,4.21,.05,8.06-2.15,11.82-.44,.76-.32,1.75-.46,2.64,.3,.07,.6,.14,.9,.21,3.38-5.69,6.76-11.37,10.02-16.86-.04-.11,.05,.14,.14,.4-.07,.7-.15,1.39-.22,2.09-.08,.38-.17,.76-.25,1.15,.12,.2,.25,.39,.37,.59-.27,.33-.54,.66-.81,.99-1.67,2.46-3.24,4.96-5.03,7.36-3.26,4.38-5.18,8.96-3.3,14.26,3.37,.6,5.19,.2,6.68-1.56,.36,.2,.73,.39,1.09,.59,1.42,.2,2.84,.55,4.28,.59,5.73,.14,13.46,3.22,14.51,9.08,.11,.6,1.54,1.03,2.45,1.6,1.22-2.54,1.16-4.15-.06-7.7-.15-.22-.31-.45-.46-.67,1.3-.72,1.36-.68,2,1.35,.09,.21,.19,.42,.28,.63,.72,.53,1.44,1.06,2.17,1.59,.3,.18,.6,.37,.9,.55,.18,.13,.37,.26,.55,.39,.18,.14,.37,.28,.55,.42,.66,.53,1.31,1.07,1.97,1.6,.33,.31,.66,.62,.99,.93,0,0-.02-.02-.02-.02,.15,.16,.31,.31,.46,.47l1.05,1.14c-.13,.4-.26,.79-.39,1.19-2.26-2.02-4.53-4.04-6.8-6.05-.68,1.03-.59,1.69-.84,2.25-.81,1.85,.08,2.92,1.56,4.35,2.23,2.15,3.96,4.75,5.45,7.34,1.16,2.02,1,4.36-.63,6.24-1.17,1.35-.83,2.22,.52,3.34,.58-.66,1.14-1.25,1.64-1.87,3.53-4.47,2.63-9.04,.39-13.64-.1-.16-.21-.31-.31-.47-.3-.46-.6-.92-.89-1.38,.49,.04,.97,.07,1.46,.11Zm-169.79,62.43h-.02c-.34-.28-.68-.55-1.02-.83-3.74-.92-7.51-1.19-11.33-.42-.15,0-.28,.02-.41,.08-.67,.12-1.34,.24-2.01,.36-.36,.26-.71,.53-1.07,.79-3.73,1.27-7.46,2.54-11.19,3.8-.22,.09-.43,.18-.65,.28-1.63,.74-3.26,1.48-5.23,2.38,.97,.37,1.59,.67,2.25,.85,6.32,1.69,12.43,.59,18.5-1.02,.24-.06,.49-.12,.73-.18,4.18-1.59,8.36-3.19,12.54-4.78,.21-.16,.43-.33,.64-.49-.25-.13-.51-.26-.76-.39-.2-.11-.41-.21-.61-.32-.11-.07-.24-.11-.38-.11Zm164.21-46.88c-.25-.32-.5-.65-.75-.97l-.08-.11c-1.38-1.22-2.75-2.44-4.13-3.65-.81-.52-1.62-1.04-2.58-1.66-1.43,3.46-1.16,6.62,.11,9.7,1.95,4.73,4.08,9.41,6.13,14.11,.22,.9,.44,1.8,.68,2.76,6.7-2.94,5.3-13.68,1.64-18.54h.02c-.36-.56-.71-1.11-1.07-1.66h.02Zm-111.65,43.4c.32,.03,.64,.05,.97,.08,1.22,.54,2.44,1.08,3.67,1.61,.78,.34,1.71,1.05,2.35,.9,3.24-.76,6.41-1.74,9.79-2.7-4.77-2.89-10.78-3.2-17.6-1.05l-.13,.44c.32,.24,.64,.48,.96,.72Zm55.55-5.36c5.94-5.22,6.61-11.99,3.69-17.82-1.79,5.31-3.41,10.09-5.02,14.88-.65,1.73-1.29,3.46-1.94,5.2,.23,.1,.46,.2,.69,.31,.86-.85,1.72-1.71,2.58-2.56Zm.1-28.69c-.01-.14-.02-.29-.03-.43-.03-.55-.06-1.1-.09-1.66-.02-.16-.04-.32-.07-.48-.03-.24-.06-.48-.09-.72,.08-.96,.16-1.92,.24-2.88-.25-.05-.5-.09-.75-.14-.39,.69-.77,1.38-1.16,2.06-.55,1.8-1.11,3.61-1.66,5.41-2.87,9.43-5.47,18.89-5.71,28.7-.01,.48,.32,1.1,.74,1.41,1.58,1.16,3.19,.65,3.88-1.21,2.55-6.86,5.08-13.72,7.54-20.6,.22-.6,.02-1.38-.2-2.02-.84-2.49-1.77-4.96-2.66-7.44Zm30.16-27.69c5.09-.45,10.19-.9,15.56-1.38-.26-.6-.41-1.53-.98-2.21-1.71-2.04-3.96-3.48-6.84-4.23-5.04-1.31-10.08-.55-15.16-.26-5.34,.31-10.84,.63-13.78-4.55-.03-.06-.29-.03-.6-.04-.26,.77-.46,1.57-.8,2.34-1.4,3.12-.49,5.76,2.25,8.02,2.86,2.36,6.43,2.96,10.23,2.89,3.04-.06,6.07-.22,9.11-.33,.34-.09,.67-.17,1.01-.26Zm-61.66,70.32c4.29,2.58,8.03,4.13,13.17,2.98,8.03-1.8,15.27-5.06,22.73-7.95,1.15-.45,2.12-1.23,3.37-1.98-3.89-1.73-7.64-2.31-11.57-1.91-5.05,.51-9.8,1.75-14.34,3.85-4.08,1.89-8.51,3.23-13.35,5.01Zm-28.14-.18c3.04,2.62,7.48,3.5,12.15,2.84,8.1-1.14,15.5-3.95,22.94-6.68,.62-.23,1.11-.69,1.67-1.04-.53-.47-.96-1.14-1.61-1.38-3.78-1.43-7.79-2.03-11.8-1.1-4.29,.99-8.5,2.25-12.68,3.56-3.53,1.11-6.95,2.46-10.68,3.8Zm71.89-44.87c.71-1.16,1.18-1.85,1.55-2.57,2.6-5.1,2.58-10.34,1.04-15.63-.59-2.02-.9-4.32-2.28-5.88-1.69-1.91-4.37-3.19-6.89-4.93-.28,1.42-.73,2.82-.8,4.24-.24,4.88,1.77,9.36,3.51,13.89,1.31,3.42,2.45,6.88,3.86,10.89Zm43.7,18.07c6.62-1.49,10.84-5.13,12.23-11.08,1.43-6.1,.51-11.97-3.32-17.32-1.41,1.95-2.78,3.67-3.92,5.49-.46,.74-.69,1.73-.58,2.57,.33,2.49,1.19,4.96,1.28,7.45,.12,3.23-.88,6.42-4.04,8.44-2,1.28-2.11,2.58-1.66,4.45Zm-20.46-42.51c5.73,6.88,15.36,9.47,21.38,15.7,2.47-2.76,2.01-5.81-1.37-10.12-3.98-5.08-11.84-7.34-20-5.58Zm15.26,30.69c-6.7,7.78-4.09,16.91-6.63,25.3,8.5-1.45,13.69-14.84,6.63-25.3Zm-8.1,28.73c.18,.27,.36,.53,.53,.8,3.84,.17,7.27-1.16,10.45-2.83,6.99-3.68,9.4-9.52,10.12-16.34-1.86,.8-3.43,1.88-5.18,2.15-2.66,.41-3.2,1.77-3.73,3.69-1.36,4.85-4.27,8.73-10.05,10.65-.87,.29-1.44,1.23-2.15,1.87Zm-75.64,.55c2.15,.33,4.25,.61,6.32,.98,2.21,.4,3.25-.16,3-2.14-.25-2.07-.88-4.12-1.58-6.12-.33-.95-1.27-1.41-2.44-.52-2.76,2.11-4.71,4.6-5.31,7.79Zm31.78-42.87c.2,.02,.41,.05,.61,.07,1.08-2.21,1.72-4.71,3.35-6.57,2.8-3.17,.64-6.02,.17-9.02-4.46,4.65-2.71,10.36-4.14,15.51Zm47.42,17.25c1.57-2.14,3.5-3.78,3.89-5.65,.3-1.44-1.34-3.17-2.35-5.26-1.91,3.71-2.81,6.92-1.54,10.91Zm-.44-16.45c.26-1.99,.42-3.53,.66-5.05,.46-2.85-.19-3.67-3.83-4.5-.31,3.43,.09,6.61,3.16,9.55Zm-47.43,41.25c2.23,.21,3.91,.36,6.04,.56-.66-1.61-1.19-2.87-1.87-4.53-1.5,1.42-2.66,2.53-4.17,3.96Zm-21.61,2.49c2.35,2.71,2.48,2.38,9.74-.78-1.62,.16-3.13,.76-4.7,.93-1.61,.17-3.29-.08-5.04-.15Zm56.38-60.92c-.08-.28-.16-.55-.24-.83-2.15,.3-4.31,.6-6.46,.9,.06,.27,.12,.54,.18,.81,2.17-.3,4.35-.59,6.52-.89Zm-13.55,.59c-2.76-.1-4.01,1.22-3.22,3.29,1.06-1.08,2-2.05,3.22-3.29Zm-53.63,32.24c.32-.3,.65-.61,.97-.91l-1.36-.79c-.15,.16-.3,.31-.45,.47,.28,.41,.55,.82,.83,1.23Zm13.78-30.05c.13-.05,.31-.08,.35-.16,.04-.08-.07-.21-.11-.32l-.46,.21c.07,.09,.14,.18,.22,.28Zm-12.42,30.93s-.07-.09-.1-.13l-.13,.23c.05,.01,.12,.05,.15,.03,.04-.03,.05-.09,.08-.13Z"/>
  <path class="cls-17" d="M231.42,64.02c.16,.05,.31,.11,.47,.16-.17,.42-.35,.85-.52,1.27-4.87-.33-9.17,1.6-10.75,5.42-1.07,2.58-1.27,5.42-1.86,8.15-.05,.19-.1,.37-.16,.56,.03,.04,.1,.09,.1,.13-.02,.1-.07,.19-.1,.28,.07,.34,.13,.68,.2,1.02,.06,1.29,.12,2.58,.17,3.87-.32,.42-.63,.84-.95,1.27,0,0-.03,0-.03,0-.1-.57-.21-1.13-.31-1.7-.38-.32-.77-.64-1.15-.96,0-.25,0-.5,0-.75,.23-.36,.46-.71,.69-1.07-.18-.13-.35-.27-.53-.4-1.38,1.05-2.75,2.1-4.13,3.15h0c-.33,.28-.66,.57-1,.85h.01c-1.69,.82-3.46,1.55-5.04,2.5-1.37,.82-2.53,1.89-3.79,2.85,.15,.16,.31,.32,.46,.47,.47-.21,.94-.42,1.41-.63l.05,.74c-.68,.85-1.89,1.69-1.93,2.56-.09,1.67,.49,3.37,.79,5.06,.51,.53,1.03,1.06,1.54,1.58-1.37,.92-1.22,2.01-.49,3.17l.09,.05c2.46,5.59,4.91,11.17,7.37,16.76,.46-1.01,.45-1.93,.26-2.83-1.07-5.01-2.17-10.02-3.27-15.02,.34-.19,.68-.38,1.02-.57,.13,.33,.31,.65,.39,1,1.87,8.19,3.36,16.46,5.72,24.54,1.62,5.53,4.52,10.77,6.73,16.18,1.12,2.72,1.98,5.52,2.96,8.29-.26,.12-.52,.25-.78,.37-.37-.42-.9-.79-1.1-1.27-3.52-8.36-6.91-16.76-10.53-25.08-2.85-6.56-6.29-12.95-8.88-19.59-1.69-4.34-2.67-8.95-3.29-13.5-.36-2.61,.6-5.2,4.36-6.33,2.05-.62,3.74-2.11,6.03-3.47-1.6-.7-2.61-1.37-3.74-1.59-5.93-1.14-13.08,2.93-14.73,7.96-1.61,4.92-.63,9.58,.97,14.29,.77,2.26,1.4,4.56,2.1,6.84-.82-.95-1.64-1.91-2.55-2.96-.58,.54-1.19,1.11-1.41,1.32v3.07c-1.4-2.47-3.3-1.82-5.36-.68-.96,.53-2.02,.91-3.04,1.36-.66,.31-1.32,.61-1.98,.92-.99,.49-1.94,1.05-2.98,1.44-1.62,.62-2.46,1.52-2.92,3.08-1.12,3.78-4.29,5.65-8.76,5.86,.3,.98,1.12,2.14,.74,2.77-.57,.94-1.88,1.67-3.05,2.22-3.94,1.87-8.09,3.13-12.71,2.47-2.72-.39-3.98-1.58-3.24-3.78,.7-2.1,2.04-4.06,3.32-5.98,.67-1,1.8-1.78,2.76-2.68-3.77-2.78-7.68-5.26-11.04-8.2-7.73-6.77-15.26-13.71-22.71-20.71-2.8-2.63-5.13-5.63-7.71-8.43-.72-.78-.96-1.35,.47-1.63,3.48,3.81,6.78,7.75,10.47,11.4,4.41,4.35,9,8.57,13.79,12.61,5.24,4.42,10.77,8.6,16.26,12.8,.63,.48,2.1,.84,2.7,.55,1.81-.88,3.38-2.12,5.06-3.23-3.22-2.46-6.26-4.77-9.28-7.08-8.5-6.51-16.55-13.39-23.65-21.07-3.04-3.28-6.29-6.42-9.45-9.62,.77-1.54,1.47-.75,2.23,.03,3.83,3.94,7.59,7.93,11.53,11.79,3.98,3.9,7.95,7.83,12.27,11.44,5.08,4.25,10.49,8.23,15.86,12.23,2.23,1.66,5.02,.68,5.78-1.86,.7-2.38,1.26-4.79,2.07-7.14,2.08-6.04,10.5-8.59,16.43-3.89,2.41-1.29,4.71-2.21,4.8-5.5,.2-7.12,4.79-11.69,12.25-13.25,2.67-.56,5.22-.28,7.59,.97,2.52,1.34,6.18-.33,6.48-2.89,.22-1.95,.39-3.92,.92-5.81,1.52-5.39,5.82-8.05,12.13-8.58,.36,.02,.72,.04,1.08,.07Zm-45.05,36.85h0c-1.81,1.13-3.62,2.25-5.43,3.37h0c-.49,.44-.97,.87-1.46,1.31,.16,.25,.31,.5,.47,.75-2.81,2.18-2.16,5.23-2.76,8.11,5.02-2.27,9.8-4.75,14.64-7.16,1.33-.66,1.89-1.3,1.2-2.68-.63-1.27-.82-2.7-1.2-4.06-.4-.45-.79-.91-1.19-1.36,.19-.37,.38-.74,.56-1.11-.17-.12-.34-.23-.51-.35-1.43,1.06-2.87,2.12-4.3,3.18Zm-22.26,13.9c-3.48,2.53-6.96,5.07-10.45,7.6-1.1,1.83-2.39,3.6-3.24,5.51-.62,1.39,.54,2.38,2.15,2.42,2.02,.06,4.14,.03,6.07-.41,3-.68,6.07-1.49,8.04-4.11-1.24-.57-2.32-1.05-3.39-1.56-1.36-.64-1.44-1.37-.66-2.58,1.51-2.34,2.72-4.82,4.06-7.25-1.27-.12-1.87,.04-2.46,.21-.06,.02-.09,.11-.14,.17Zm20.54-14.63c-2.82-3.15-8.85-3.03-11.61,.3-1.37,1.66-2.22,3.73-2.85,5.72-1.7,5.37-2.07,11.07-5.98,16.46,1.81,0,3.17,.18,4.45-.03,4.13-.7,5.89-3.23,6.51-6.54,.51-2.77,.95-5.55,1.59-8.3,.87-3.73,4.45-5.55,7.89-7.61Z"/>
  <path class="cls-4" d="M260.9,62.13c-.35-.75-.71-1.51-1.06-2.26,.21-1.25,.42-2.5,.63-3.74l.09-.02c.33,0,.66,0,.99,0,.49-.4,.98-.8,1.47-1.19,2.82-1.89,5.59-3.84,8.48-5.66,11.75-7.37,23.54-14.69,35.29-22.06,.53-.33,.84-.93,1.25-1.41h-.02c.35,0,.7,0,1.05,0,.47,1.68,.95,3.36,1.41,5.05,.25,.89,.47,1.79,.7,2.69-11.78,7.4-23.56,14.79-35.33,22.19-3.67,2.1-7.33,4.21-11,6.31-1.32,.03-2.63,.06-3.95,.09Z"/>
  <path class="cls-7" d="M120,76.41c3.16,3.2,6.41,6.34,9.45,9.62,7.1,7.67,15.15,14.55,23.65,21.07,3.02,2.32,6.06,4.62,9.28,7.08-1.68,1.11-3.25,2.35-5.06,3.23-.6,.29-2.07-.07-2.7-.55-5.49-4.2-11.02-8.38-16.26-12.8-4.79-4.04-9.38-8.27-13.79-12.61-3.7-3.65-7-7.59-10.47-11.4,1.96-1.21,3.93-2.43,5.89-3.64Z"/>
  <path class="cls-12" d="M261.36,37.99c-.07-1.51-.14-3.02-.21-4.52-.03-.31-.06-.61-.09-.92-.58-3.67-1.15-7.34-1.74-11.06-.76,0-1.16-.05-1.54,0-4.09,.59-4.05,.6-2.87-2.94,.72-2.16,1.29-4.35,1.96-6.51,.22-.71,.56-1.39,1.1-2.68,3.12,3.71,5.85,6.95,8.83,10.5-1.84,.42-3.36,.77-5.05,1.16,.45,2.34,.88,4.61,1.32,6.87,.14,.71,.28,1.42,.42,2.13,.03,.27,.07,.55,.1,.82,.16,1.97,.31,3.95,.47,5.92,.01,.41,.02,.83,.03,1.24,0,.72,0,1.44,0,2.16-.03,.55-.05,1.1-.08,1.66-.85,4.87-1.55,9.77-4.15,14.27-.3,.29-.6,.58-1.45,1.39-.11-1.41-.42-2.31-.21-3.12,.91-3.61,1.97-7.2,2.98-10.79,.07-1.7,.14-3.4,.21-5.1,0-.16-.01-.31-.02-.47Z"/>
  <path class="cls-12" d="M228.8,38.42c1.23-2.71,2.46-5.42,3.89-8.59,2.4,3.23,4.55,6.12,6.69,9.02,.13,.15,.25,.31,.38,.46,.56,.94,.41,1.62-.92,1.9-.51,.05-1.02,.11-1.54,.16-2.78-.24-1.66,1.41-1.68,2.51,.08,.57,.16,1.15,.24,1.72,.05,.41,.1,.83,.14,1.24,.06,.44,.12,.88,.18,1.32,.03,4.77,.06,9.54,.09,14.31-.12,.71-.23,1.42-.35,2.14-.06,.27-.12,.54-.18,.81-1.18,4.97-2.43,9.91-6.83,13.81,.05-1.48,.45-2.88,.88-4.27,1.13-3.61,2.28-7.21,3.42-10.82,.05-.41,.09-.83,.14-1.24,.11-1.13,.23-2.27,.34-3.4,0-2.23,0-4.46-.01-6.69-.1-1.28-.2-2.55-.31-3.83-.06-.84-.13-1.69-.19-2.53-.1-1.13-.2-2.25-.3-3.38-.03-.27-.06-.55-.1-.82-.3-.13-.6-.27-.9-.4-.98,.08-1.95,.15-2.93,.23-.35-.08-.7-.17-1.05-.25-.02-.43-.04-.86-.06-1.29,.32-.71,.63-1.41,.95-2.12Z"/>
  <path class="cls-7" d="M290.73,93.66c1.23,3.55,1.28,5.16,.06,7.7-.91-.57-2.34-1-2.45-1.6-1.05-5.86-8.78-8.93-14.51-9.08-1.43-.04-2.85-.38-4.28-.59,.89-1.72,1.82-3.42,2.64-5.16,.45-.96,.81-1.43,2.31-1.08,5.46,1.29,10.53,3.04,14.07,7.07,.32,.36,.83,.6,1.26,.89,0,0-.05-.06-.05-.06,.17,.31,.33,.62,.5,.93,.04,.1,.08,.19,.1,.29,0,.01-.11,.05-.17,.07,.17,.2,.35,.41,.52,.61Z"/>
  <path class="cls-8" d="M109.03,180.69c-2.8-.87-5.79-1.44-8.33-2.69-2.05-1.01-3.56-2.83-5.31-4.29,.14-.09,.28-.18,.42-.26,1.21,.1,2.54-.04,3.6,.35,5.98,2.23,11.99,1.64,18.06,.42,1.01-.21,2.08-.22,3.12-.32,.31,.29,.62,.58,.93,.86,1.14,.86,2.33,1.68,3.41,2.6,.48,.41,.75,1.01,1.12,1.52-5.7,.59-11.39,1.18-17.09,1.77,0,0,.05,.05,.05,.05Z"/>
  <path class="cls-8" d="M100.23,165.94c1.84,.78,3.68,1.56,5.52,2.35-.45,.18-.91,.37-1.36,.55-5.74,1.92-11.48,3.84-17.22,5.76-.03-2.53-.07-5.06-.1-7.59,2.78-.4,5.56-.81,8.34-1.21,.66-.01,1.32-.02,1.98-.04,.77,.05,1.54,.1,2.31,.15,.18,0,.35,.01,.53,.02Z"/>
  <path class="cls-8" d="M97.27,163.74c.73-.49,1.46-.99,2.19-1.48,.32-.15,.64-.29,.96-.44,.31-.09,.61-.17,.92-.26,3.49-.3,6.99-.61,10.48-.91,.97,.04,1.93,.08,2.9,.12,0,0,0,0,0,0,.21,.26,.42,.52,.63,.78,.19-.26,.39-.52,.58-.78,0,0,.09-.07,.09-.07,.81,.92,1.62,1.85,2.49,2.84-1.1,.38-2.5,.85-3.89,1.33-.18,.04-.36,.08-.54,.11-.59,.3-1.17,.59-1.76,.89-3.02,1.54-5.62,1.31-8.57-.56-1.57-.99-4.15-.81-6.28-1.16-.07-.14-.13-.28-.2-.41Z"/>
  <path class="cls-7" d="M271.02,64.62c-.09-.26-.18-.51-.14-.4-3.26,5.49-6.64,11.18-10.02,16.86-.3-.07-.6-.14-.9-.21,.14-.89,.02-1.88,.46-2.64,2.2-3.76,3.24-7.62,2.15-11.82-.14-.52,.47-1.43,1.05-1.79,2.64-1.66,5.4-3.18,8.12-4.75-.24,1.59-.48,3.18-.72,4.77Z"/>
  <path class="cls-19" d="M265.53,46.4c.52,.53,1.05,1.06,1.79,1.81,3.05-1.86,6.03-3.68,9.01-5.5,5.49-3.34,11.02-6.64,16.47-10.04,4.89-3.05,9.69-6.2,14.57-9.27,.46-.29,1.14-.33,1.72-.48-.06,.36-.12,.73-.18,1.09-1.92,1.12-3.88,2.2-5.74,3.38-.95,.6-1.73,1.4-2.59,2.11,0,0,0,.05,0,.05-.68,.21-1.46,.29-2.02,.64-3.66,2.31-7.28,4.67-10.9,7.03-2.3,1.5-4.58,3.04-6.86,4.57,0,0,0,0,0,0-.24,.03-.53-.02-.7,.09-4.62,2.9-9.22,5.82-13.86,8.7-.85,.53-1.83,.9-2.75,1.34,.66-1.05,1.33-2.09,1.89-2.98-.29-.97-.57-1.92-.85-2.87,.17-.02,.33-.04,.5-.06,.17,.12,.34,.25,.5,.37Z"/>
  <path class="cls-19" d="M275.85,55.73c11.78-7.4,23.56-14.79,35.33-22.19,2.43,.6,.55,1.26-.06,1.65-3.51,2.21-7.1,4.33-10.61,6.52-7.36,4.59-14.69,9.22-22.04,13.82-.66,.41-1.38,.75-2.07,1.12-.18-.31-.37-.61-.55-.92Z"/>
  <path class="cls-17" d="M258.55,43.37c.5,.05,1,.09,1.5,.14-.15,.34-.29,.67-.44,1.01-5.91-1.09-11.75,2.19-12.38,7.23-.27,2.17-.03,4.48,.52,6.63,.67,2.6,1.92,5.09,2.92,7.62-.83-.66-1.65-1.32-2.48-1.98h-.49c-.16,.08-.32,.15-.48,.23-.04-.21-.07-.41-.11-.62,.16-.32,.33-.63,.49-.95-.15-.13-.31-.25-.46-.38-2.12,1.46-4.25,2.92-6.37,4.39,0,0-.02,.01-.02,.01-1.32,.78-2.65,1.57-3.97,2.35-.15-.74-.3-1.47-.42-2.02,1.05-.46,1.79-.79,2.52-1.11,2.3-1.35,4.66-2.63,6.84-4.1,.54-.37,.72-1.38,.68-2.08-.13-2.78-.94-5.61-.54-8.32,.75-5.04,4.23-7.46,10.24-7.94,.82-.03,1.63-.07,2.45-.1Z"/>
  <path class="cls-17" d="M291,93c-.42-.29-2.1-1.71-2.42-2.07-3.54-4.04-8.61-5.78-14.07-7.07-1.49-.35-1.85,.12-2.31,1.08-.83,1.74-1.76,3.44-2.64,5.16-.36-.2-.73-.39-1.09-.59,.33-.78,.6-1.57,.99-2.33,2.11-4.08,3.67-8.24,2.47-12.76-.45-1.69-1.2-3.31-1.82-4.97,.27-.33,.54-.66,.81-.99,2.77,4.27,3.44,8.82,2.36,13.6,2.86,.91,5.66,1.67,8.33,2.68,3.4,1.28,7.53,4.37,9.39,7.28,.19,.3,.06,.58,0,1Z"/>
  <path class="cls-19" d="M241.27,18.98h7.46c0,.33-.01,.67-.02,1-3.29,.55-6.65,.09-10.1,.27,.02-2.24,1.39-3.39,3.05-4.35,1.15-.67,2.62-1.06,3.52-1.9,.83-.78,1.37-1.98,1.49-3.04,.05-.45-1.34-1.5-1.96-1.44-1.22,.12-2.38,.81-3.53,1.3-.16,.07-.13,.43-.3,.55-.38,.27-.83,.46-1.25,.69-.15-.41-.52-.88-.4-1.22,.58-1.74,2.08-2.64,4.14-2.81,2.22-.18,4.24,.3,5.07,2.22,.73,1.69,.32,3.39-1.51,4.52-1.46,.9-3.06,1.63-4.59,2.45-.49,.26-.95,.56-1.43,.84,.12,.31,.23,.61,.35,.92Z"/>
  <path class="cls-8" d="M87.04,175.51c1.54-.31,3.09-.62,4.63-.94,.38-.06,.77-.12,1.15-.17,2.22,1.59,4.44,3.19,6.81,4.89-.62,.26-1.21,.52-1.81,.77-2.94,.47-5.89,.95-8.83,1.42-.66,.13-1.32,.27-1.98,.4,.01-2.12,.03-4.25,.04-6.37Z"/>
  <path class="cls-12" d="M183.45,124.11c-.84,.7-1.67,1.4-2.51,2.1-.5,.56-.99,1.11-1.49,1.67-.68,.01-1.35,.03-2.03,.04-.12-.57-.24-1.13-.37-1.7,1.65-1.38,3.31-2.76,4.96-4.14,.34-.28,.69-.56,1.03-.84l-.11-.1s.11,.09,.11,.09c.33-.29,.66-.59,.98-.88,.28-.21,.56-.42,.84-.62,.13-.1,.26-.21,.4-.31,.19-.17,.39-.34,.58-.51,2.14-1.79,4.27-3.59,6.41-5.38,.87-.67,1.73-1.34,2.57-1.99,2.18,1.75,.03,2.55-.82,3.62-2.51,2.14-5.01,4.28-7.52,6.43-.18,.17-.36,.34-.55,.51-.32,.25-.63,.5-.95,.74-.19,.16-.37,.31-.56,.47-.32,.26-.65,.53-.97,.8Z"/>
  <path class="cls-19" d="M201.16,141.4c-.3,.26-.61,.53-.91,.79-3.86-6.02-7.72-12.04-11.58-18.06-.1-.15-.21-.29-.31-.44-.07-.13-.14-.27-.21-.4-.1-.14-.2-.28-.3-.41-.06-.15-.12-.29-.19-.44,.39-.35,.78-.7,1.16-1.05,4.11,6.67,8.23,13.35,12.34,20.02Z"/>
  <path class="cls-21" d="M289.64,163.22c.36,.18,.72,.36,1.08,.54-3.35,6.6-9.35,10.49-17.32,12.39,0-.36-.01-.72-.02-1.08,1.05-.36,2.11-.72,3.16-1.09,5.98-2.15,10.05-6,13.1-10.75Z"/>
  <path class="cls-16" d="M218.23,24.79c0,1.78,0,3.55,0,5.33,0,1.82,.07,3.64-.01,5.45-.02,.43-.5,.85-.77,1.28-.33-.45-.92-.88-.94-1.34-.1-2.23-.04-4.46-.04-6.75-.99-.21-1.85-.39-2.71-.58l.81,.38c1.36-.95,2.73-1.91,4.09-2.86-.14-.3-.28-.61-.41-.91Z"/>
  <path class="cls-16" d="M253.12,180.74c-1.97,0-3.93,0-5.9,.01,0-.34-.02-.68-.02-1.02,3.34-.26,6.75-.28,10.01-.87,2.2-.4,4.21-1.59,6.31-2.43,0-.17,.02-.35,.03-.52,2.3,.03,4.59,.05,6.89,.08-1.16,.29-2.32,.59-3.48,.88-1.07,.41-2.15,.83-3.22,1.24-.24,.09-.47,.19-.7,.28-2.39,.62-4.78,1.24-7.18,1.87-.91,.16-1.83,.32-2.74,.48Z"/>
  <path class="cls-21" d="M160.1,180.25c.88,.07,1.76,.23,2.63,.19,.48-.02,.94-.38,1.4-.58,3.63-.01,7.26-.02,10.9-.03,.54,.19,1.11,.6,1.61,.54,2.4-.28,4.78-.67,7.17-1.03-7.8,2.14-15.69,2.82-23.7,.91Z"/>
  <path class="cls-17" d="M126.54,162.49c-.32-.13-.65-.26-.97-.39,.03-.12,.04-.24,.02-.35,.8-.32,1.6-.65,2.41-.97,.18-.09,.36-.17,.54-.26,1.09-.22,2.19-.43,3.28-.65,.21-.02,.42-.04,.63-.06,2.35,.02,4.7,.03,7.05,.05,.85,.15,1.69,.31,2.54,.46,.78,.19,1.55,.37,2.33,.56,.36,.11,.72,.21,1.08,.32,.31,.13,.62,.26,.94,.39-.15,.3-.31,.6-.46,.9-.36-.12-.72-.23-1.08-.35-.27-.1-.53-.2-.8-.3-5.92-1.35-11.78-1.62-17.51,.66Z"/>
  <path class="cls-17" d="M153.71,178.86c.02,.33,.04,.66,.07,.99-.49,.13-.98,.26-1.47,.39-.32,.05-.63,.09-.95,.14-2.35,.32-4.71,.63-7.06,.95-1.28,.02-2.56,.03-3.84,.05-1.34-.12-2.67-.24-4.01-.37-.69-.11-1.37-.21-2.06-.32,0,0-.22,.02-.22,.02,0,0-.18-.11-.18-.11-.33-.16-.67-.32-1-.48,.02-.28,.04-.56,.06-.83,.8,.14,1.6,.27,2.39,.42,6.19,1.16,12.25,.35,18.29-.83Z"/>
  <path class="cls-16" d="M170.03,159.66c.68,.12,1.36,.25,2.04,.37,.69,.24,1.38,.49,2.07,.73,1.61,.31,3.22,.63,4.83,.94,0,.33,0,.66,0,.99-3.63,.77-7.25,1.54-10.88,2.31-.49,.31-.98,.62-1.47,.94-.3,.13-.61,.26-.91,.38-.19-.45-.39-.91-.58-1.36,2.76-.99,5.52-1.98,8.69-3.11-1.77-.53-3.25-.97-4.74-1.42,.32-.26,.63-.51,.95-.77Z"/>
  <path class="cls-17" d="M108.98,180.64c5.7-.59,11.39-1.18,17.09-1.77,0,.16,0,.33,0,.49,0,.16-.02,.31-.03,.47-1.81,.38-3.63,.76-5.44,1.14-.32,.04-.64,.07-.97,.11-.36,.06-.73,.11-1.09,.17-.46,.07-.91,.14-1.37,.21-2.33,.09-4.67,.23-7,.22-.4,0-.8-.67-1.2-1.03Z"/>
  <path class="cls-21" d="M229.42,179.9c.55,.21,1.08,.5,1.65,.6,.56,.1,1.17,0,1.75,0-5.81,1.1-11.61,1.32-17.37-.25,.78,.09,1.58,.28,2.35,.23,.58-.03,1.13-.37,1.7-.58,3.31,0,6.61,0,9.92,0Z"/>
  <path class="cls-16" d="M126.07,179.37c0-.16,0-.33,0-.49-.37-.51-.64-1.11-1.12-1.52-1.08-.92-2.27-1.74-3.41-2.6l.56-.85,.12-.1c3.61,1.82,7.22,3.64,10.82,5.46-.02,.28-.04,.56-.06,.83-.33,.02-.66,.04-.98,.05-.5-.16-.99-.32-1.49-.48-.83-.09-1.65-.19-2.48-.28-.33,.1-.67,.19-1,.29-.32-.11-.63-.21-.95-.32Z"/>
  <path class="cls-19" d="M175.77,130.77q-3.65,3.2-5.12,1.3c1.03-.82,2.07-1.66,3.49-2.79,.51,.47,1.03,.94,1.63,1.49Z"/>
  <path class="cls-17" d="M170.03,159.66c-.32,.26-.63,.51-.95,.77-2.96,.02-5.93,.04-8.89,.05-.29-.25-.58-.5-.88-.75,3.56-.97,7.13-.98,10.71-.07Z"/>
  <path class="cls-17" d="M167.39,134.06c.95,.86,1.43,1.3,2.21,2.01-1.39,.94-2.52,1.75-3.73,2.44-.13,.07-1.21-.75-1.16-.83,.7-1.08,1.53-2.11,2.68-3.62Z"/>
  <path class="cls-17" d="M111.82,160.66c-3.49,.3-6.99,.61-10.48,.91-.28-.3-.56-.6-.84-.89,3.67-1.07,7.37-1.83,11.22-.7,.03,.22,.07,.45,.1,.67Z"/>
  <path class="cls-4" d="M300.58,29.51c.86-.71,1.64-1.5,2.59-2.11,1.87-1.18,3.82-2.26,5.74-3.38,.19,.32,.37,.63,.56,.95-.48,.28-.96,.57-1.43,.85,0,0,.02-.01,.02-.01-.89,.41-1.79,.79-2.65,1.22-1.62,.81-3.22,1.65-4.83,2.48Z"/>
  <path class="cls-17" d="M88.98,181.48c2.94-.47,5.89-.95,8.83-1.42,.02,.33,.05,.65,.07,.98,0,0-.12,.12-.12,.12,0,0-.18-.03-.18-.03-.22,.06-.44,.11-.66,.17-1.15,.21-2.29,.42-3.44,.63-.17-.04-.32-.01-.46,.08-.53,.08-1.07,.16-1.6,.24h-3.15c.33-.35,.52-.55,.71-.76Z"/>
  <path class="cls-19" d="M186.15,116.54c-.08,.42-.17,.83-.25,1.25-.32-.01-.65-.02-.97-.03-.15-.16-.3-.32-.46-.48-.85-1.22-1.69-2.44-2.54-3.65,.66-.31,1.32-.61,1.98-.92,.74,1.28,1.49,2.56,2.23,3.84Z"/>
  <path class="cls-21" d="M199.23,180.98c0-.35,0-.71,0-1.06,.67-.01,1.34-.03,2.01-.04,1.03,.22,2.06,.58,3.1,.63,1.34,.06,2.69-.13,4.03-.22-3.05,.23-6.09,.46-9.14,.69Z"/>
  <path class="cls-19" d="M266.96,176.88c1.16-.29,2.32-.59,3.48-.88,.16-.15,.32-.3,.48-.46h-.01c.16-.05,.32-.11,.48-.17,.67-.1,1.34-.21,2-.31,0,.36,.01,.72,.02,1.08-2.15,.24-4.29,.49-6.44,.73Z"/>
  <path class="cls-19" d="M247.2,179.74c0,.34,.02,.68,.02,1.02-1.96-.47-3.92-.94-5.87-1.41,1.15-.04,2.29-.08,3.44-.11,.8,.17,1.6,.34,2.41,.51Zm-1.49,.37c.07-.03,.14-.06,.2-.09-.06-.04-.12-.11-.18-.11-.06,0-.13,.05-.2,.08,.06,.04,.12,.08,.18,.12Z"/>
  <path class="cls-21" d="M88.98,181.48c-.19,.2-.38,.4-.71,.76h3.15c-1.49,.02-3.16,1.7-4.43-.36,.66-.13,1.32-.27,1.98-.4Z"/>
  <path class="cls-14" d="M264.06,36.75c-.16-1.97-.31-3.95-.47-5.92,.16,1.97,.31,3.95,.47,5.92Z"/>
  <path class="cls-15" d="M233.37,48.99c.1,1.28,.2,2.55,.31,3.83-.1-1.28-.2-2.55-.31-3.83Z"/>
  <path class="cls-21" d="M191.19,180.26c2.35,.23,4.7,.47,7.05,.7-2.35-.23-4.7-.47-7.05-.7Z"/>
  <path class="cls-15" d="M233.69,59.51c-.11,1.13-.23,2.27-.34,3.4,.11-1.13,.23-2.27,.34-3.4Z"/>
  <path class="cls-21" d="M140.45,181.36c1.28-.02,2.56-.03,3.84-.05-1.28,.02-2.56,.03-3.84,.05Z"/>
  <path class="cls-17" d="M178.97,162.69c0-.33,0-.66,0-.99,.65-.02,1.3-.04,1.96-.07,.17,.35,.35,.7,.52,1.05-.83,0-1.66,0-2.48,0Z"/>
  <path class="cls-14" d="M193.86,158.54c-1.19,0-2.38,0-3.56,0,1.19,0,2.38,0,3.56,0Z"/>
  <path class="cls-15" d="M232.88,43.08c.1,1.13,.2,2.25,.3,3.38-.1-1.13-.2-2.25-.3-3.38Z"/>
  <path class="cls-11" d="M258.55,43.37c-.82,.03-1.63,.07-2.45,.1,.75-1.23,1.58-1.02,2.45-.1Z"/>
  <path class="cls-15" d="M235.93,64.62c.12-.71,.23-1.42,.35-2.14-.12,.71-.23,1.42-.35,2.14Z"/>
  <path class="cls-15" d="M228.8,38.42c-.32,.71-.63,1.41-.95,2.12,.32-.71,.63-1.41,.95-2.12Z"/>
  <path class="cls-17" d="M151.68,162.74c-1.13-.06-2.41,1.25-3.37-.28,1.12,.09,2.25,.19,3.37,.28Z"/>
  <path class="cls-19" d="M253.12,180.74c.91-.16,1.83-.32,2.74-.48-.91,.16-1.83,.32-2.74,.48Z"/>
  <path class="cls-16" d="M111.82,160.66c-.03-.22-.07-.45-.1-.67,.66,0,1.33,0,1.99,0,.39,.13,.78,.26,1.17,.39-.05,.14-.11,.27-.16,.41-.97-.04-1.93-.08-2.9-.12Z"/>
  <path class="cls-14" d="M263.49,30.01c-.14-.71-.28-1.42-.42-2.13,.14,.71,.28,1.42,.42,2.13Z"/>
  <path class="cls-15" d="M235.87,45.61c-.08-.57-.16-1.15-.24-1.72,.08,.57,.16,1.15,.24,1.72Z"/>
  <path class="cls-21" d="M128.02,179.4c.83,.09,1.65,.19,2.48,.28-.83-.09-1.65-.19-2.48-.28Z"/>
  <path class="cls-18" d="M142.04,160.31c-.85-.15-1.69-.31-2.54-.46,.85,.15,1.69,.31,2.54,.46Z"/>
  <path class="cls-14" d="M179.45,127.88c.5-.56,.99-1.11,1.49-1.67-.5,.56-.99,1.11-1.49,1.67Z"/>
  <path class="cls-19" d="M209.05,154.47c-.11,.57-.22,1.14-.33,1.71,.11-.57,.22-1.14,.33-1.71Z"/>
  <path class="cls-15" d="M237.31,41.37c.51-.05,1.02-.11,1.54-.16-.51,.05-1.02,.11-1.54,.16Z"/>
  <path class="cls-17" d="M88.63,162.02c-.41,.02-.82,.05-1.23,.07,.1-.18,.2-.36,.31-.53,.31,.15,.61,.31,.92,.46Z"/>
  <path class="cls-15" d="M236.19,48.17c-.06-.44-.12-.88-.18-1.32,.06,.44,.12,.88,.18,1.32Z"/>
  <path class="cls-17" d="M174.14,160.77c-.69-.24-1.38-.49-2.07-.73,.69,.24,1.38,.49,2.07,.73Z"/>
  <path class="cls-21" d="M233.97,180.28c.71-.13,1.42-.26,2.14-.39-.71,.13-1.42,.26-2.14,.39Z"/>
  <path class="cls-17" d="M100.43,161.83c-.32,.15-.64,.29-.96,.44-.28-.24-.57-.47-.85-.71,.58-.27,1.16-.53,1.74-.8,.02,.36,.05,.72,.07,1.07Z"/>
  <path class="cls-17" d="M300.76,103.22c.13-.4,.26-.79,.39-1.19,.38,.47,.77,.94,1.15,1.4-.49-.04-.97-.07-1.46-.11l.07-.12h-.15Z"/>
  <path class="cls-17" d="M89.41,163.74c.3,.27,.6,.53,.9,.8-.29,.16-.57,.31-.86,.47-.01-.42-.03-.85-.04-1.27Z"/>
  <path class="cls-17" d="M120.64,162.91c-.5-.29-.99-.58-1.49-.87,.5,.29,.99,.58,1.49,.87Z"/>
  <path class="cls-21" d="M131.99,180.16c.33-.02,.66-.04,.98-.05,.33,.16,.67,.32,1,.47-.66-.14-1.32-.28-1.99-.42Z"/>
  <path class="cls-21" d="M134.38,180.67c.69,.11,1.37,.21,2.06,.32-.69-.11-1.37-.21-2.06-.32Z"/>
  <path class="cls-21" d="M117.17,181.46c.46-.07,.91-.14,1.37-.21-.45,.07-.91,.14-1.37,.21Z"/>
  <path class="cls-16" d="M100.43,161.83c-.02-.36-.05-.72-.07-1.07,0,0,.15-.08,.15-.08,.28,.3,.56,.59,.84,.89-.31,.09-.61,.17-.92,.26Z"/>
  <path class="cls-14" d="M198.78,159.46c-.34-.11-.68-.22-1.03-.33,.34,.11,.68,.22,1.03,.33Z"/>
  <path class="cls-17" d="M114.89,160.37c-.39-.13-.78-.26-1.17-.39,.39,.13,.78,.26,1.17,.39Z"/>
  <path class="cls-21" d="M209.63,180.2c.31-.04,.63-.08,.94-.13-.31,.04-.63,.08-.94,.13Z"/>
  <path class="cls-21" d="M126.07,179.37c.32,.11,.63,.21,.95,.32-.33,.05-.65,.1-.98,.15,0-.16,.02-.31,.03-.47Z"/>
  <path class="cls-15" d="M231.88,41.85c.3,.13,.6,.27,.9,.4-.3-.13-.6-.27-.9-.4Z"/>
  <path class="cls-21" d="M106.04,181.14c.54,.1,1.07,.19,1.61,.29-.54-.1-1.07-.19-1.61-.29Z"/>
  <path class="cls-17" d="M305.88,113.57c-.14-.28-.28-.56-.42-.84,.14,.28,.28,.56,.42,.84Z"/>
  <path class="cls-14" d="M188.86,158.72l-1.06,.21c.35-.07,.7-.14,1.06-.21Z"/>
  <path class="cls-18" d="M308.04,25.82c.48-.28,.96-.57,1.43-.85-.13,.28-.26,.56-.39,.83-.35,0-.7,.01-1.05,.02Z"/>
  <path class="cls-15" d="M227.91,41.83c.35,.08,.7,.17,1.05,.25-.35-.08-.7-.17-1.05-.25Z"/>
  <path class="cls-15" d="M231.42,64.02c-.36-.02-.72-.04-1.08-.07,.36,.02,.72,.04,1.08,.07Z"/>
  <path class="cls-19" d="M206.32,151.09c.26,.31,.53,.62,.79,.93-.26-.31-.53-.62-.79-.93Z"/>
  <path class="cls-9" d="M261.07,32.55c.03,.31,.06,.61,.09,.92-.03-.31-.06-.61-.09-.92Z"/>
  <path class="cls-14" d="M184.03,120.36c-.33,.29-.66,.59-.98,.88,.33-.29,.66-.59,.98-.88Z"/>
  <path class="cls-14" d="M183.04,121.24c-.34,.28-.69,.56-1.03,.84,.34-.28,.69-.56,1.03-.84Z"/>
  <path class="cls-21" d="M119.63,181.08c.32-.04,.64-.07,.97-.11-.32,.04-.64,.07-.97,.11Z"/>
  <path class="cls-17" d="M88.41,165.65c-.17,.09-.33,.18-.5,.27,.14-.18,.29-.37,.43-.55,.02,.1,.04,.19,.07,.29Z"/>
  <path class="cls-17" d="M270.54,67.86c.08-.38,.17-.76,.25-1.15-.08,.38-.17,.76-.25,1.15Z"/>
  <path class="cls-14" d="M183.45,124.11c.32-.27,.65-.53,.97-.8-.32,.27-.65,.53-.97,.8Z"/>
  <path class="cls-14" d="M184.98,122.84c.32-.25,.63-.5,.95-.74-.32,.25-.63,.5-.95,.74Z"/>
  <path class="cls-17" d="M299.67,100.44c-.33-.31-.66-.62-.99-.93,.33,.31,.66,.62,.99,.93Z"/>
  <path class="cls-21" d="M239.34,179.13c.45-.02,.9-.04,1.34-.06-.45,.02-.9,.04-1.34,.06Z"/>
  <path class="cls-16" d="M290.28,92.69c-.17-.31-.33-.62-.5-.93,.38,.11,.76,.21,1.14,.32-.21,.2-.43,.41-.64,.61Z"/>
  <path class="cls-19" d="M204.19,148.15c.17,.25,.35,.51,.52,.76-.17-.25-.35-.51-.52-.76Z"/>
  <path class="cls-17" d="M302.86,104.27c-.17-.26-.33-.52-.5-.78,.17,.26,.33,.52,.5,.78Z"/>
  <path class="cls-17" d="M295.61,97.1c-.3-.18-.6-.37-.9-.55,.3,.18,.6,.37,.9,.55Z"/>
  <path class="cls-18" d="M145.45,161.19c-.36-.11-.72-.22-1.08-.32,.36,.11,.72,.21,1.08,.32Z"/>
  <path class="cls-18" d="M145.93,162.49c.15-.3,.31-.6,.46-.9,.36,.14,.72,.28,1.07,.43-.21,.02-.42,.03-.63,.05-.26,.12-.52,.24-.79,.37l-.12,.06Z"/>
  <path class="cls-16" d="M115.93,160.77c-.19,.26-.39,.52-.58,.78-.21-.26-.42-.52-.63-.78,.4,0,.81,0,1.21,0Z"/>
  <path class="cls-17" d="M304.43,107.2c-.13-.25-.26-.5-.39-.75,.13,.25,.26,.5,.39,.75Z"/>
  <path class="cls-21" d="M151.35,180.36c.32-.05,.63-.09,.95-.14-.32,.05-.63,.09-.95,.14Z"/>
  <path class="cls-14" d="M184.47,117.27c.15,.16,.3,.32,.46,.48-.15-.16-.3-.32-.46-.48Z"/>
  <path class="cls-14" d="M185.26,119.43c-.13,.1-.26,.21-.4,.31,.13-.1,.26-.21,.4-.31Z"/>
  <path class="cls-17" d="M300.11,100.88c-.15-.16-.31-.31-.46-.47,.15,.16,.31,.31,.46,.47Z"/>
  <path class="cls-14" d="M187.85,122.87c.1,.14,.2,.28,.3,.41-.1-.14-.2-.28-.3-.41Z"/>
  <path class="cls-14" d="M188.36,123.69c.1,.15,.21,.29,.31,.44-.1-.15-.21-.29-.31-.44Z"/>
  <path class="cls-17" d="M296.71,97.91c-.18-.14-.37-.28-.55-.42,.18,.14,.37,.28,.55,.42Z"/>
  <path class="cls-17" d="M292.55,94.96c-.09-.21-.19-.42-.28-.63,.09,.21,.19,.42,.28,.63Z"/>
  <path class="cls-17" d="M290.73,93.66c-.17-.2-.35-.41-.52-.61,0,0,.07-.06,.06-.06,.15,.22,.3,.45,.46,.67Z"/>
  <path class="cls-19" d="M201.47,143.95c.09,.12,.17,.24,.26,.36-.09-.12-.17-.24-.26-.36Z"/>
  <path class="cls-19" d="M203.26,146.89c.15,.17,.3,.35,.45,.52-.15-.17-.3-.35-.45-.52Z"/>
  <path class="cls-19" d="M205.42,149.86c.14,.06,.23,.16,.25,.29-.08-.1-.16-.2-.25-.29Z"/>
  <path class="cls-14" d="M196.3,158.92c-.21-.05-.41-.11-.62-.16,.21,.05,.41,.11,.62,.16Z"/>
  <path class="cls-18" d="M132.45,159.8c-.21,.02-.42,.04-.63,.06,.21-.02,.42-.04,.63-.06Z"/>
  <path class="cls-18" d="M128.54,160.52c-.18,.09-.36,.17-.54,.26,.18-.09,.36-.17,.54-.26Z"/>
  <path class="cls-18" d="M125.59,161.75c.02,.12,.01,.24-.02,.35-.16,.01-.32,0-.48-.03,.16-.11,.33-.21,.49-.32Z"/>
  <polygon class="cls-17" points="153.19 161.95 153.01 162.09 153.03 161.94 153.19 161.95"/>
  <path class="cls-21" d="M291.73,162.13c.11-.16,.22-.32,.33-.48-.11,.16-.22,.32-.33,.48Z"/>
  <path class="cls-21" d="M93.03,182c.14-.09,.29-.11,.46-.08-.15,.03-.31,.05-.46,.08Z"/>
  <path class="cls-9" d="M261.36,37.99c0,.16,.01,.31,.02,.47,0-.16-.01-.31-.02-.47Z"/>
  <path class="cls-21" d="M96.93,181.29c.22-.06,.44-.11,.66-.17-.22,.06-.44,.11-.66,.17Z"/>
  <path class="cls-21" d="M99.42,180.77c.16-.04,.32-.08,.48-.12-.16,.04-.32,.08-.48,.12Z"/>
  <path class="cls-17" d="M152.02,162.45s.11,.02,.11,.02c0,0-.11-.02-.11-.02Z"/>
  <path class="cls-21" d="M184.46,179.1c.19-.03,.38-.07,.57-.1-.19,.03-.38,.07-.57,.1Z"/>
  <path class="cls-19" d="M263.04,178.4c.23-.09,.47-.19,.7-.28-.23,.09-.47,.19-.7,.28Z"/>
  <path class="cls-17" d="M96.89,162.51c-.21,.14-.42,.29-.63,.43,.21-.14,.42-.29,.63-.43Z"/>
  <path class="cls-17" d="M124.05,162.7c-.13,.08-.27,.15-.4,.23,.13-.08,.27-.15,.4-.23Z"/>
  <path class="cls-17" d="M88.01,162.92c.15,.1,.3,.2,.46,.3-.15-.1-.3-.2-.46-.3Z"/>
  <path class="cls-14" d="M265.53,46.4c-.17-.12-.34-.25-.5-.37,.17,.12,.34,.25,.5,.37Z"/>
  <path class="cls-15" d="M239.77,39.32c-.13-.15-.25-.31-.38-.46,.13,.15,.25,.31,.38,.46Z"/>
  <path class="cls-7" d="M196.28,110.6c-.7-2.28-1.33-4.58-2.1-6.84-1.6-4.7-2.59-9.37-.97-14.29,1.65-5.03,8.79-9.1,14.73-7.96,1.13,.22,2.14,.89,3.74,1.59-2.3,1.36-3.98,2.85-6.03,3.47-3.76,1.13-4.72,3.72-4.36,6.33,.62,4.55,1.6,9.16,3.29,13.5,2.59,6.63,6.03,13.02,8.88,19.59,3.62,8.33,7,16.72,10.53,25.08,.2,.47,.73,.85,1.1,1.27,.26-.12,.52-.25,.78-.37-.98-2.77-1.84-5.56-2.96-8.29-2.21-5.41-5.12-10.65-6.73-16.18-2.37-8.08-3.85-16.35-5.72-24.54-.08-.34-.26-.66-.39-1,2.13-2.05,4.25-4.09,6.38-6.14,.72,2,1.45,4.01,2.17,6.01,.83,3.92,1.59,7.85,2.49,11.76,2.63,11.33,5.41,22.63,7.93,33.98,.68,3.08,.81,6.27,.89,9.42,.07,2.46-.96,3.49-3.21,3.85,.28-1.94,1.36-4.02-.44-5.61-.29,.03-.59,.07-.88,.1,0,1.17,.07,2.35-.01,3.51-.18,2.59-2.69,4.08-5.55,3.26-.43-.12-.95-.6-1-.97-1.19-7.87-4.74-15.11-8.13-22.38-3.76-8.07-7.72-16.06-11.67-24.06-.31-.63-1.18-1.06-1.79-1.58-.32-.84-.65-1.68-.97-2.52Z"/>
  <path class="cls-7" d="M231.37,65.45c-.36,1.74-.72,3.48-1.08,5.22-3.78,1.87-4.08,5.05-3.8,8.17,.65,7.15,1.6,14.28,2.45,21.42,.26,2.19,.63,4.37,.94,6.55-.16,.66-.44,1.31-.46,1.98-.06,2.1-.08,4.21,0,6.31,.04,1.26-.27,2.03-1.87,2.53-.9,.28-1.44,1.39-2.16,2.11-.35,.36-.72,.7-1.08,1.05-.29-1.75-.63-3.5-.87-5.26-.55-4.04-1.05-8.08-1.56-12.11-.11-.75-.22-1.49-.32-2.24-.68-4.31-1.37-8.62-2.05-12.93-.18-1.12-.36-2.24-.54-3.36-.06-1.29-.12-2.58-.17-3.87-.07-.34-.13-.68-.2-1.02,.04-.09,.09-.18,.1-.28,0-.04-.06-.09-.1-.13,.05-.19,.1-.37,.16-.56,.59-2.73,.8-5.57,1.86-8.15,1.58-3.81,5.88-5.74,10.75-5.42Z"/>
  <path class="cls-7" d="M246.22,159.96c-2.1-3.04-1.28-5.8,.29-8.93,2.12-4.22,.96-8.65-.54-12.97-1.48-4.27-3.12-8.55-3.88-12.94-.82-4.69,.26-9.31,3.76-13.46,4.76,11.8,9.54,23.57,8.7,36.35-.06,.3-.12,.6-.17,.91-.72,1.91-1.1,3.99-2.24,5.69-1.3,1.94-3.28,3.55-4.96,5.31-.32,.01-.64,.02-.96,.03Z"/>
  <path class="cls-7" d="M269.88,100.89c-3.04,.11-6.07,.27-9.11,.33-3.79,.07-7.37-.53-10.23-2.89-2.74-2.26-3.65-4.9-2.25-8.02,.34-.76,.54-1.57,.8-2.34,.32,.02,.57-.01,.6,.04,2.93,5.17,8.44,4.86,13.78,4.55,5.08-.29,10.12-1.05,15.16,.26,2.88,.75,5.13,2.19,6.84,4.23,.57,.68,.73,1.61,.98,2.21-5.38,.48-10.47,.93-15.56,1.38-.34,.09-.67,.17-1.01,.26Z"/>
  <path class="cls-7" d="M231.86,105.92c.08-4.98,.16-9.97,.25-14.95,1-.91,1.89-1.93,3.02-2.69,1.72-1.17,1.56-2.23,.15-3.42,1.92-.02,3.87,.08,5.38-1.25,.06-.06,.14-.08,.23-.04-.01,.15-.03,.29-.04,.44-.01,1.27-.03,2.53-.04,3.8,0,.56-.01,1.13-.02,1.69-.05,.14-.06,.28,0,.42-.03,1.05-.06,2.09-.1,3.14-.03,.42-.06,.84-.09,1.26-.11,.36-.21,.73-.32,1.09-.15,2.42-.29,4.84-.44,7.26-.11,.66-.21,1.32-.32,1.98-.08,1.26-.17,2.53-.25,3.79,0,.18-.02,.37-.03,.55-1.07,6.18-.55,12.55-3.18,18.54-.98,.12-1.95,.24-2.93,.36-.07-.84-.13-1.69-.2-2.53-.03-.42-.06-.84-.09-1.27-.17-2.24-.33-4.48-.5-6.72-.06-.29-.12-.58-.18-.87-.09-1.97-.17-3.93-.26-5.9-.04-.52-.09-1.04-.13-1.56,0-.36,0-.72,0-1.07,.02-.15,.04-.3,.06-.45,0-.2,0-.4,.02-.61,0-.33,.01-.65,.02-.97Z"/>
  <path class="cls-7" d="M188.82,121.38c1.86-1.49,3.72-2.99,5.58-4.48,.42,.44,.85,.88,1.27,1.31,3.13,5.38,6.26,10.77,9.4,16.15,2.88,4.93,5.79,9.84,8.62,14.79,.68,1.18-1.72,4.43-3.24,4.36-.54-.02-1.2-.64-1.55-1.12-2.62-3.64-5.18-7.32-7.76-10.98-4.11-6.67-8.23-13.35-12.34-20.02Z"/>
  <path class="cls-7" d="M259.61,44.52c-.56,2.24-1.12,4.49-1.67,6.73-2.71,1.19-3.43,2.66-2.26,4.87,.49,.94,1.21,1.79,1.83,2.68,2.36,3.95,4.41,7.99,3.68,12.56-.32,2.01-1.1,3.97-1.68,5.96-.24-.01-.47-.03-.71-.04-1.47-2.35-2.88-4.74-4.44-7.05-.58-.86-1.52-1.53-2.3-2.29-.28-.27-.56-.55-.84-.82-.18-.37-.36-.75-.54-1.12-1-2.54-2.25-5.02-2.92-7.62-.55-2.14-.79-4.45-.52-6.63,.63-5.04,6.47-8.32,12.38-7.23Z"/>
  <path class="cls-8" d="M209.23,170.96c4.84-1.79,9.27-3.13,13.35-5.01,4.54-2.1,9.29-3.34,14.34-3.85,3.93-.4,7.68,.18,11.57,1.91-1.25,.75-2.21,1.53-3.37,1.98-7.45,2.89-14.7,6.14-22.73,7.95-5.13,1.15-8.88-.39-13.17-2.98Z"/>
  <path class="cls-8" d="M178.97,162.69c.83,0,1.66,0,2.48,0,3,.54,6.08,.92,8.28,3.54-9.87,3.34-19,7.65-29.59,8.24-.31-.03-.62-.06-.93-.08-1.98-.58-3.95-1.16-5.93-1.75-.05-.22-.1-.44-.15-.67,3.67-1.67,7.33-3.33,11-5,.52-.22,1.05-.44,1.57-.66,.3-.13,.61-.26,.91-.38,.49-.31,.98-.62,1.47-.94,3.63-.77,7.25-1.54,10.88-2.31Z"/>
  <path class="cls-8" d="M142.39,165.03c2.93-.28,5.88-.91,8.78-.75,3.29,.18,6.53,1.07,9.79,1.65,.21,.21,.42,.42,.62,.63-.16,.15-.31,.31-.47,.46-.45,.18-.89,.36-1.34,.54-6.15,2.33-12.3,4.67-18.46,7-.23,.03-.45,.07-.68,.1-3.81,.78-7.5,.38-11.12-.81-.16-.06-.32-.12-.49-.17-.04-.11-.13-.19-.25-.23-.74-.14-1.48-.28-2.22-.42l-.02-.03c-.1-1.61,1.27-2.08,2.66-2.63,2.29-.91,4.52-1.94,6.77-2.92,.25-.08,.5-.16,.75-.24,.4-.16,.8-.32,1.21-.48,.51-.14,1.01-.27,1.52-.41,.65-.16,1.29-.31,1.94-.47,.33-.27,.67-.54,1-.81Z"/>
  <path class="cls-7" d="M240.45,125.04c.03,.24,.06,.48,.09,.72-.04,.05-.13,.12-.11,.16,.04,.11,.12,.22,.18,.32,.03,.55,.06,1.1,.09,1.66-.04,.05-.13,.1-.12,.14,.03,.1,.1,.2,.15,.3,.89,2.48,1.82,4.95,2.66,7.44,.22,.64,.41,1.42,.2,2.02-2.46,6.88-5,13.74-7.54,20.6-.69,1.87-2.3,2.37-3.88,1.21-.42-.31-.75-.94-.74-1.41,.24-9.8,2.84-19.27,5.71-28.7,.55-1.8,1.1-3.61,1.66-5.41,.56,.32,1.11,.64,1.67,.96Z"/>
  <path class="cls-8" d="M181.09,170.78c3.73-1.34,7.15-2.69,10.68-3.8,4.17-1.31,8.39-2.57,12.68-3.56,4.02-.93,8.02-.33,11.8,1.1,.65,.24,1.08,.91,1.61,1.38-.55,.35-1.05,.81-1.67,1.04-7.44,2.73-14.85,5.55-22.94,6.68-4.68,.66-9.11-.22-12.15-2.84Z"/>
  <path class="cls-8" d="M241.25,174.06c-1.93-.71-3.85-1.43-6.44-2.38,1.37-.58,2.11-.89,2.85-1.21,4.26-1.83,8.38-3.96,12.81-5.4,3.99-1.3,8.31-1.85,12.49-2.73,1.25,.12,2.5,.23,3.81,.36-1.43,3.75-3.55,6.18-6.93,8-5.71,3.08-11.86,4.4-18.6,3.37Z"/>
  <path class="cls-1" d="M274.79,155.3c3.04-2.58,6.07-5.17,9.11-7.75,.3,.15,.59,.3,.89,.45-.21,1.88-.4,3.76-.65,5.64-.83,6.23-3.51,11.58-10.05,15.01-.95,.5-2.08,.76-3.12,1.13-.09-.39-.18-.77-.28-1.19-2.75,1.15-4.1,.93-4.76-.69,2.95-4.2,5.91-8.39,8.86-12.59Z"/>
  <path class="cls-8" d="M117.74,165.05c.67-.12,1.34-.24,2.01-.36,.14-.03,.27-.06,.41-.08,3.82-.77,7.59-.49,11.33,.42,.34,.27,.68,.55,1.02,.82,0,0,.02,0,.02,0,0,0,.16,.15,.16,.15l.22-.03c.2,.11,.41,.21,.61,.32,.04,.29,.08,.59,.12,.88-4.18,1.59-8.36,3.19-12.54,4.78-.24,.06-.49,.12-.73,.18-6.07,1.61-12.18,2.71-18.5,1.02-.66-.18-1.27-.47-2.25-.85,1.97-.9,3.6-1.64,5.23-2.38,.22-.09,.43-.18,.65-.28,3.73-1.27,7.46-2.54,11.19-3.8,.36-.26,.71-.53,1.07-.79Z"/>
  <path class="cls-7" d="M252.98,125.9c-1.41-4-2.55-7.47-3.86-10.89-1.74-4.53-3.75-9.01-3.51-13.89,.07-1.42,.52-2.82,.8-4.24,2.53,1.74,5.2,3.02,6.89,4.93,1.38,1.57,1.69,3.87,2.28,5.88,1.54,5.29,1.56,10.53-1.04,15.63-.37,.72-.84,1.41-1.55,2.57Z"/>
  <path class="cls-2" d="M296.68,143.97c-.45-1.87-.35-3.16,1.66-4.45,3.16-2.02,4.16-5.2,4.04-8.44-.09-2.49-.95-4.95-1.28-7.45-.11-.84,.12-1.83,.58-2.57,1.14-1.83,2.51-3.55,3.92-5.49,3.83,5.34,4.74,11.22,3.32,17.32-1.39,5.95-5.61,9.59-12.23,11.08Z"/>
  <path class="cls-7" d="M266.57,112.29c-.85,5.99-3.93,11.02-8.98,15.2-.23,.19-.51,.35-.79,.51-.8,.47-1.61,.92-3.06,1.2,.18-.78,.13-1.67,.56-2.32,3.71-5.56,4.51-11.47,3.3-17.7-.15-.8,.5-1.79,1.02-2.58,.51-.78,1.46-1.35,2-2.12,1.16-1.67,2.72-2.32,5.11-1.72,.27,1.73,.55,3.52,.84,5.31,0,1.41,0,2.83,0,4.24Z"/>
  <path class="cls-2" d="M276.23,101.46c8.16-1.76,16.02,.5,20,5.58,3.38,4.32,3.85,7.36,1.37,10.12-6.01-6.24-15.64-8.83-21.38-15.7Z"/>
  <path class="cls-1" d="M265.92,167.89c.66,1.62,2.01,1.84,4.76,.69,.1,.42,.19,.81,.28,1.19-.73,.32-1.45,.64-2.18,.96,.04,.17,.08,.33,.12,.5,.49,.06,1.02,.25,1.46,.16,4.02-.88,7.68-2.62,9.8-5.55,1.9-2.62,4.24-3.3,7.39-3.27,.4,0,.8-.12,1.19-.19,.32-.06,.64-.11,.95-.17-.02,.34-.04,.68-.06,1.02-3.05,4.75-7.12,8.6-13.1,10.75-1.05,.38-2.11,.73-3.16,1.09-.67,.1-1.34,.21-2,.31-.16,.06-.32,.12-.48,.17,0,0,.01,0,.01,0-2.63-.12-5.26-.24-7.88-.36-1.55-.54-3.1-1.09-4.66-1.63-.02-.29-.04-.58-.05-.87,2.4-.59,4.8-1.17,7.36-1.8-.77-.38-1.45-.72-2.2-1.09,.92-.72,1.68-1.31,2.44-1.91Z"/>
  <path class="cls-2" d="M291.49,132.15c7.07,10.46,1.87,23.86-6.63,25.3,2.54-8.39-.07-17.52,6.63-25.3Z"/>
  <path class="cls-7" d="M270.11,69.44c.61,1.65,1.37,3.28,1.82,4.97,1.2,4.52-.36,8.69-2.47,12.76-.39,.75-.66,1.55-.99,2.33-1.49,1.76-3.31,2.16-6.68,1.56-1.89-5.3,.04-9.88,3.3-14.26,1.78-2.4,3.36-4.9,5.03-7.36Z"/>
  <path class="cls-2" d="M295.43,136.4c-2.05-4.7-4.18-9.38-6.13-14.11-1.27-3.08-1.54-6.23-.11-9.7,.96,.62,1.77,1.14,2.58,1.66,.44,1.99,1.82,3.21,4.13,3.65,0,0,.08,.11,.07,.11,.25,.32,.5,.65,.75,.97,0,0-.02-.01-.02-.01,.36,.55,.71,1.1,1.07,1.65,0,0-.02,0-.03,0,.03,1.04-.23,2.16,.13,3.1,1.2,3.15,2.03,6.33,1.72,9.66-.23,2.51-1.72,3.55-4.18,3.01Z"/>
  <path class="cls-7" d="M250.2,73.08c.89-.48,1.78-.97,2.93-1.59,4.64,5.98,7.44,12.31,6.4,19.59-6.09,.53-8.97-2.86-10.21-8.47-.26-1.17-.37-2.35-.55-3.53,.04-1,.08-2.01,.12-3.01,.11-.73,.23-1.45,.34-2.18,.33-.27,.65-.54,.98-.81Z"/>
  <path class="cls-8" d="M175.02,179.82c-3.63,.01-7.26,.02-10.9,.03-.42-.04-.85-.07-1.27-.11-.89-.19-1.79-.38-2.68-.57-3.15-1.37-6.34-2.69-9.43-4.15-.66-.31-.97-1.15-1.45-1.74,.21-.07,.41-.14,.62-.2,.87,.13,1.88,.07,2.58,.44,3.33,1.76,6.86,2.47,10.73,1.82,.37-.04,.73-.09,1.1-.13,2.94-.6,5.9-1.12,8.79-1.84,1.37-.34,2.29-.47,3.46,.55,1.81,1.57,3.96,2.86,6.16,4.4-1.42,.37-2.85,.74-4.28,1.11-.86,.11-1.72,.22-2.58,.33-.29,.02-.58,.05-.87,.07Z"/>
  <path class="cls-8" d="M229.42,179.9c-3.31,0-6.61,0-9.92,0-.46-.05-.91-.1-1.37-.16-.52-.09-1.05-.18-1.57-.28-4.82-1.14-8.93-3.24-12.32-6.62,1.8-1.08,3.18-1.83,5.28-.21,4,3.08,8.86,3.42,13.94,2.37,.22-.05,.43-.17,.65-.24,3.51-1.15,6.79-1.47,9.67,1.3,.91,.88,2.41,1.31,4.33,2.3-3.37,.59-6.04,1.06-8.7,1.53Z"/>
  <path class="cls-7" d="M224.32,120.78c.36-.35,.73-.7,1.08-1.05,.71-.73,1.26-1.83,2.16-2.11,1.59-.5,1.91-1.27,1.87-2.53-.07-2.1-.06-4.21,0-6.31,.02-.66,.3-1.32,.46-1.98,.63,8.97,1.36,17.94,1.86,26.91,.2,3.61-.08,7.23-.21,10.85-.03,.73-.4,1.45-1.07,2.17-2.05-8.65-4.09-17.3-6.14-25.95Z"/>
  <path class="cls-2" d="M283.38,160.89c.71-.64,1.28-1.58,2.15-1.87,5.78-1.92,8.69-5.81,10.05-10.65,.54-1.92,1.08-3.27,3.73-3.69,1.75-.27,3.32-1.35,5.18-2.15-.72,6.81-3.13,12.66-10.12,16.34-3.18,1.67-6.61,2.99-10.45,2.83-.18-.27-.36-.53-.53-.8Z"/>
  <path class="cls-8" d="M201.24,179.87c-.67,.01-1.34,.03-2.01,.04-5.21-.2-10.38-.69-15.03-2.85-2.6-1.21-4.93-2.83-7.39-4.26,.13-.27,.27-.55,.4-.82,.94,0,2.23-.34,2.78,.05,5.28,3.8,11.3,3.6,17.31,2.16,3.47-.83,6.1-1.06,8.44,1.76,.97,1.17,2.78,1.82,4.81,3.08-3.53,.32-6.42,.58-9.32,.84Z"/>
  <path class="cls-8" d="M128.79,173.45c.12,.05,.21,.12,.25,.23,0,0-.1-.02-.1-.02,0,.4-.16,1.04,.04,1.14,.74,.37,1.61,.55,2.43,.81,.35,.07,.69,.14,1.04,.21,2.22-.03,4.44-.06,6.65-.1,.93-.05,1.85-.09,2.78-.14,.84-.2,1.67-.4,2.51-.59,.19-.07,.38-.15,.57-.22,1.56-.56,2.81-.38,4.07,.74,1.4,1.24,3.1,2.24,4.67,3.35-6.04,1.18-12.1,1.99-18.29,.83-.79-.15-1.59-.28-2.39-.42-3.61-1.82-7.22-3.64-10.82-5.46,.28-1.76,1.63-1.46,3-1.13,.45,.11,.9,.21,1.35,.32,0,0,.02,.03,.02,.03,.68,.48,1.37,.96,2.05,1.45,.06-.34,.11-.68,.17-1.02Z"/>
  <path class="cls-8" d="M247.2,179.74c-.8-.17-1.6-.34-2.41-.51-4.66-1.66-9.41-3.18-13.43-6.39,3.61-1.51,5.16,1.95,7.9,1.9,.16,.06,.32,.13,.49,.19,.51,.08,1.01,.15,1.52,.23,4.43,1.23,8.75,.54,12.97-.73,1.34-.41,2.33-.33,3.61,.23,1.78,.78,3.78,1.2,5.68,1.78-2.1,.84-4.1,2.03-6.31,2.43-3.26,.59-6.67,.61-10.01,.87Z"/>
  <path class="cls-4" d="M233,76c2-3,2.77-3,3.31-4.28,2.12-1.45,4.23-2.91,6.35-4.36,1.39,.54,2.12,.11,2.36-1.39,.55-.34,1.1-.69,1.65-1.03,.17,.67,.7,1.48,.43,1.98-1.58,3-3.47,5.83-6.21,8.22-.75,.66-1.08,1.68-1.6,2.54-1.3,1.32-1.07,1.85-2.3,2.32-.19,.49-1.45,.49-1.65,1-1.47,.74-2.94,1.48-4.41,2.22-2.37-1.1-2.66-2.81-.94-4.23"/>
  <path class="cls-2" d="M300.84,103.32c.3,.46,.6,.92,.89,1.38,.1,.15,.21,.31,.31,.47,2.24,4.59,3.14,9.16-.39,13.64-.49,.63-1.06,1.21-1.64,1.87-1.35-1.11-1.69-1.99-.52-3.34,1.63-1.88,1.79-4.22,.63-6.24-1.49-2.6-3.22-5.2-5.45-7.34-1.49-1.43-2.37-2.51-1.56-4.35,.24-.56,.16-1.22,.84-2.25,2.27,2.02,4.53,4.03,6.8,6.05,0,0,.15-.01,.15-.01,0,0-.07,.12-.07,.12Z"/>
  <path class="cls-19" d="M263.52,176.44c-1.9-.57-3.9-.99-5.68-1.78-1.28-.56-2.26-.64-3.61-.23-4.22,1.27-8.53,1.96-12.97,.73,0-.37,0-.73-.01-1.1,6.74,1.03,12.89-.29,18.6-3.37,3.38-1.82,5.5-4.25,6.93-8-1.3-.12-2.56-.24-3.81-.36-.48-.39-.96-.78-1.45-1.16,.31-.06,.65-.23,.92-.18,3.92,.8,6.88-.02,8.59-3.4,.47-.92,1.46-1.65,2.21-2.47,.51,.06,1.02,.11,1.53,.17-2.95,4.2-5.91,8.39-8.86,12.59-.76,.59-1.52,1.19-2.44,1.91,.75,.37,1.43,.71,2.2,1.09-2.56,.62-4.96,1.21-7.36,1.8,.02,.29,.04,.58,.05,.87,1.55,.54,3.1,1.09,4.66,1.63,.17,.25,.34,.49,.51,.74,0,.17-.02,.35-.03,.52Z"/>
  <path class="cls-7" d="M257.68,139.85c-.38,.31-.77,.63-1.15,.94-.14-.08-.28-.15-.43-.2-.42-2.48-.75-4.98-1.3-7.43-.31-1.38-.13-2.25,1.33-3.19,2.36-1.52,4.41-3.39,7.12-5.53-.43,3.11-.8,5.81-1.17,8.52-.1,.24-.21,.49-.31,.73-.92,1.54-1.85,3.08-2.77,4.63-.44,.51-.87,1.02-1.31,1.54Z"/>
  <path class="cls-7" d="M278.07,108.5c-.75,.25-1.5,.5-2.25,.75-2.6,.44-5.21,.87-7.81,1.31h0c-.07-.84-.14-1.68-.2-2.52-.08-1.2-.17-2.39-.25-3.59,.48-.2,.97-.39,1.45-.59,.25,0,.52,.08,.73,.02,3.95-1.18,7.21-.4,9.75,2.47,.12,.11,.25,.21,.38,.32,0,0,.08,.11,.08,.11-.2,.29-.39,.58-.59,.86-.16,.04-.33,.08-.49,.12-.27,.25-.53,.49-.8,.74Z"/>
  <path class="cls-7" d="M239.29,154.07c1.62-4.79,3.23-9.57,5.02-14.88,2.92,5.83,2.25,12.6-3.69,17.82-2.46-.31-.89-1.96-1.34-2.94Z"/>
  <path class="cls-5" d="M207.75,161.43c.6-3.19,2.55-5.68,5.31-7.79,1.17-.89,2.1-.43,2.44,.52,.7,2,1.32,4.05,1.58,6.12,.24,1.98-.79,2.53-3,2.14-2.07-.37-4.17-.65-6.32-.98Z"/>
  <path class="cls-8" d="M160.19,160.48c2.96-.02,5.93-.04,8.89-.05,1.49,.44,2.97,.89,4.74,1.42-3.17,1.13-5.93,2.12-8.69,3.11-.35,.26-.7,.53-1.05,.79h-.16s-.13,.07-.13,.07c-.38-.26-.76-.51-1.14-.77-2.67-.81-5.35-1.62-8.42-2.55,2.11-.72,4.03-1.37,5.95-2.02Z"/>
  <path class="cls-8" d="M126.54,162.49c5.73-2.28,11.59-2.01,17.51-.66,.27,.1,.53,.2,.79,.3,.36,.12,.72,.23,1.08,.35,0,0,.12-.06,.12-.06,0,0-.01,.04-.01,.04-.65,.35-1.25,.78-1.94,1.04-2.38,.87-4.79,1.67-7.18,2.49-.48-.02-.95-.04-1.43-.06-2.09-.89-4.18-1.77-6.26-2.66-.2-.04-.41-.07-.61-.11-.69-.23-1.38-.45-2.06-.68Z"/>
  <path class="cls-8" d="M184.25,161.21c6.83-2.15,12.84-1.84,17.6,1.05-3.38,.96-6.55,1.94-9.79,2.7-.64,.15-1.57-.56-2.35-.9-1.23-.53-2.45-1.07-3.67-1.61-.32-.03-.64-.05-.97-.08-.32-.24-.64-.48-.96-.72,.04-.15,.09-.29,.13-.44Z"/>
  <path class="cls-2" d="M282.09,140.95s.02-.14,.02-.14c0,0,.17-.02,.17-.02,.26-.37,.52-.73,.78-1.1-.42-.06-.83-.13-1.25-.19l.05-.17s.19-.05,.19-.05c1.01,1.32,1.83,.26,2.71-.15,.32,.47,.95,.96,.91,1.41-.26,3.27-1.1,6.3-5,7.95-.7,.3-1.22,.9-1.82,1.36-.27,.24-.55,.48-.82,.72-.22,.08-.44,.17-.66,.25,.29-1.73,.58-3.46,.87-5.19,.22-.4,.44-.8,.66-1.2,.24-.31,.48-.62,.72-.93l1.05-1.33s.06-.1,.05-.14c-.03-.09-.08-.17-.12-.26,0,0-.04,0-.04,0,.25-.14,.51-.28,.76-.41,0,0-.05,.03-.05,.03,.27-.14,.55-.29,.82-.43Z"/>
  <path class="cls-1" d="M273.26,155.12c-.75,.82-1.75,1.55-2.21,2.47-1.71,3.38-4.67,4.2-8.59,3.4-.28-.06-.62,.11-.92,.18-.2-.22-.41-.44-.61-.67,2.9-3.59,7.16-5.2,11.99-5.97,.12,.2,.24,.4,.35,.59Z"/>
  <path class="cls-7" d="M239.53,118.57c1.43-5.15-.32-10.86,4.14-15.51,.46,3,2.62,5.85-.17,9.02-1.64,1.85-2.27,4.36-3.35,6.57-.2-.02-.41-.05-.61-.07Z"/>
  <path class="cls-8" d="M257.01,160.12c.41,.32,.82,.65,1.69,1.34-4.25,.42-7.75,3.29-11.82,.56,.28-.4,.56-.8,.85-1.2,1.47-.74,2.95-1.48,4.42-2.22,1.62,.51,3.25,1.02,4.87,1.53Z"/>
  <path class="cls-2" d="M286.94,135.82c-1.27-3.99-.36-7.2,1.54-10.91,1.01,2.09,2.65,3.82,2.35,5.26-.39,1.87-2.32,3.5-3.89,5.65Z"/>
  <path class="cls-2" d="M295.43,136.4c2.46,.54,3.95-.5,4.18-3.01,.31-3.33-.53-6.5-1.72-9.66-.36-.95-.11-2.06-.13-3.1,3.66,4.86,5.06,15.6-1.64,18.54-.24-.97-.46-1.87-.68-2.76Z"/>
  <path class="cls-2" d="M286.5,119.37c-3.08-2.94-3.47-6.12-3.16-9.55,3.63,.83,4.29,1.66,3.83,4.5-.25,1.52-.4,3.05-.66,5.05Z"/>
  <path class="cls-19" d="M272.91,154.53c-4.83,.77-9.09,2.39-11.99,5.97-.28-.27-.55-.54-.83-.81,3-4,7.44-5.83,12.86-6.17-.01,.34-.03,.67-.04,1.01Z"/>
  <path class="cls-21" d="M268.01,110.56c2.6-.44,5.21-.87,7.81-1.31,1.09,.02,2.19,.03,3.28,.05-3.78,1.03-7.56,2.05-11.33,3.07-.4-.03-.8-.05-1.2-.08,0-1.41,0-2.83,0-4.24,.42,0,.83,0,1.25-.01,.07,.84,.14,1.68,.2,2.52-.24,.11-.47,.23-.71,.34,.1,.09,.2,.17,.3,.26,.13-.2,.27-.4,.4-.6Z"/>
  <path class="cls-5" d="M239.07,160.61c1.51-1.43,2.68-2.54,4.17-3.96,.68,1.65,1.21,2.92,1.87,4.53-2.13-.2-3.82-.36-6.04-.56Z"/>
  <path class="cls-10" d="M217.54,93.96c.29-.47,.57-.93,.86-1.4,.66,2.92,1.34,5.84,1.96,8.76,.11,.53,.02,1.1,.02,1.86-.34-.55-.62-1-.9-1.45-.64-2.59-1.29-5.18-1.93-7.77Z"/>
  <path class="cls-7" d="M233.12,127.88c.98-.12,1.95-.24,2.93-.36-.42,1.33-.85,2.66-1.25,4-.37,1.27-.7,2.55-1.04,3.83-.21,0-.42,0-.64,0v-7.47Z"/>
  <path class="cls-19" d="M278.23,145.63c-.29,1.73-.58,3.46-.87,5.19-.61,.67-1.21,1.34-1.82,2.01,.61-2.69,1.21-5.37,1.82-8.06,.29,.28,.58,.57,.87,.85Z"/>
  <path class="cls-19" d="M217.54,93.96c.64,2.59,1.29,5.18,1.93,7.77-.29,.03-.57,.07-.86,.1-.72-2-1.45-4.01-2.17-6.01,.37-.62,.73-1.24,1.1-1.86Z"/>
  <path class="cls-21" d="M257.5,58.81c-.62-.89-1.33-1.74-1.83-2.68-1.16-2.22-.44-3.68,2.26-4.87,.04,.2,.2,.5,.1,.6-2.23,2.17-1.45,4.28,.11,6.4-.21,.19-.43,.37-.64,.56Z"/>
  <path class="cls-7" d="M239.29,154.07c.45,.98-1.13,2.63,1.34,2.94-.86,.85-1.72,1.71-2.58,2.56-.23-.1-.46-.2-.69-.31,.65-1.73,1.29-3.46,1.94-5.2Z"/>
  <path class="cls-7" d="M273.84,102.19c-2.17,.3-4.35,.59-6.52,.89-.06-.27-.12-.54-.18-.81,2.15-.3,4.31-.6,6.46-.9,.08,.28,.16,.55,.24,.83Z"/>
  <path class="cls-19" d="M257.01,160.12c-1.62-.51-3.25-1.02-4.87-1.53,.05-.34,.1-.69,.15-1.03,1.95,.66,3.91,1.31,5.86,1.97-.38,.2-.76,.39-1.14,.59Z"/>
  <path class="cls-7" d="M260.29,102.78c-1.21,1.24-2.16,2.21-3.22,3.29-.79-2.07,.46-3.39,3.22-3.29Z"/>
  <path class="cls-2" d="M295.9,117.91c-2.31-.45-3.69-1.67-4.13-3.65,1.38,1.22,2.75,2.44,4.13,3.65Z"/>
  <path class="cls-7" d="M260.9,62.13c1.32-.03,2.63-.06,3.95-.09-.9,.65-1.8,1.3-2.99,2.16-.41-.88-.68-1.48-.96-2.07Z"/>
  <path class="cls-17" d="M194.81,115.73c.67,.81,1.35,1.62,2.02,2.43-.38,.02-.77,.03-1.15,.05-.42-.44-.85-.88-1.27-1.31,.14-.39,.27-.78,.41-1.17Z"/>
  <path class="cls-7" d="M240.45,125.04c-.56-.32-1.11-.64-1.67-.96,.39-.69,.77-1.38,1.16-2.06,.25,.05,.5,.09,.75,.14-.08,.96-.16,1.92-.24,2.88Z"/>
  <path class="cls-19" d="M218.69,88.24c-.22-.7-.44-1.4-.66-2.1,.32-.42,.63-.84,.95-1.26,.18,1.12,.36,2.24,.54,3.36-.27,0-.55,0-.82,0Z"/>
  <path class="cls-17" d="M203.7,130.01c.23-.55,.45-1.1,.68-1.65,.58,1,1.17,2,1.75,3l-.88,.6c-.52-.65-1.04-1.31-1.56-1.96Z"/>
  <path class="cls-14" d="M242.21,88.23c-.07,1.13-.14,2.26-.2,3.39-.06-.57-.13-1.14-.19-1.71l.4-1.68Z"/>
  <path class="cls-19" d="M261.76,133.68c.1-.24,.21-.49,.31-.73,.46-.14,.93-.28,1.39-.41-.48,1.1-.97,2.2-1.45,3.3-.08-.72-.17-1.44-.25-2.16Z"/>
  <path class="cls-19" d="M247.72,160.82c-.28,.4-.56,.8-.85,1.2-.22-.69-.44-1.37-.65-2.06,.32-.01,.64-.02,.96-.03,.18,.3,.36,.59,.54,.89Z"/>
  <path class="cls-17" d="M164.08,165.75c.35-.26,.7-.53,1.05-.79,.19,.45,.39,.91,.58,1.36-.52,.22-1.05,.44-1.57,.66-.02-.41-.04-.82-.06-1.23Z"/>
  <path class="cls-21" d="M241.81,89.91c.06,.57,.13,1.14,.19,1.71-.04,.41-.07,.83-.11,1.24-.01,.15-.02,.3-.04,.45-.07,.13-.14,.26-.21,.4,.05-1.27,.1-2.53,.15-3.8Z"/>
  <path class="cls-19" d="M257.68,139.85c.44-.51,.87-1.02,1.31-1.54,.2,.33,.41,.65,.61,.98l-.81,.91c-.37-.12-.74-.24-1.11-.36Z"/>
  <path class="cls-17" d="M206.66,135.02c-.28-.41-.55-.82-.83-1.23,.15-.16,.3-.31,.45-.47l1.36,.79c-.32,.3-.65,.61-.97,.91Z"/>
  <path class="cls-17" d="M97.39,165.77c-.66,.01-1.32,.02-1.98,.04,.63-1.12,1.29-1.13,1.98-.04Z"/>
  <path class="cls-19" d="M264.28,122.45c.03,1.11,.06,2.21,.09,3.32-.03-1.11-.06-2.21-.09-3.32Z"/>
  <path class="cls-21" d="M240.68,93.05c.03-1.05,.06-2.09,.1-3.14-.03,1.05-.06,2.09-.1,3.14Z"/>
  <path class="cls-21" d="M248.88,76.07c-.04,1-.08,2.01-.12,3.01,.04-1,.08-2.01,.12-3.01Z"/>
  <path class="cls-14" d="M247.56,79.38c0-.99,0-1.98,0-2.97,0,.99,0,1.98,0,2.97Z"/>
  <path class="cls-21" d="M281.78,108.55c-.31,.01-.62,.02-.93,.03,.07-.37,.14-.75,.2-1.12,.14-.01,.27-.03,.41-.04,.11,.38,.21,.75,.32,1.13Z"/>
  <path class="cls-9" d="M231.76,109.03c.04,.52,.09,1.04,.13,1.56-.04-.52-.09-1.04-.13-1.56Z"/>
  <path class="cls-13" d="M297.77,120.62c-.36-.55-.71-1.1-1.07-1.65,.36,.55,.71,1.1,1.07,1.65Z"/>
  <path class="cls-17" d="M160.18,179.18c.89,.19,1.78,.38,2.68,.57-.89-.19-1.79-.38-2.68-.57Z"/>
  <path class="cls-21" d="M248.63,73.86c.33-.44,.66-.88,.98-1.33,.2,.18,.39,.37,.59,.55-.33,.27-.65,.54-.98,.81-.2-.01-.4-.02-.6-.04Z"/>
  <path class="cls-21" d="M239.51,104.65c.11-.66,.21-1.32,.32-1.98-.11,.66-.21,1.32-.32,1.98Z"/>
  <path class="cls-19" d="M221.56,101.17c.11,.75,.22,1.49,.32,2.24-.11-.75-.22-1.49-.32-2.24Z"/>
  <path class="cls-17" d="M122.08,173.91l-.56,.85c-.31-.29-.62-.58-.93-.86,.5,0,.99,0,1.49,.01Z"/>
  <path class="cls-9" d="M232.83,124.08c.03,.42,.06,.84,.09,1.27-.03-.42-.06-.84-.09-1.27Z"/>
  <path class="cls-17" d="M141.88,175.58c-.93,.05-1.85,.09-2.78,.14,.93-.05,1.85-.09,2.78-.14Z"/>
  <path class="cls-21" d="M175.89,179.75c.86-.11,1.72-.22,2.58-.33-.86,.11-1.72,.22-2.58,.33Z"/>
  <path class="cls-19" d="M284.75,139.13c-.87,.41-1.7,1.47-2.71,.15,.37-.16,.75-.31,1.12-.47,.53,.11,1.06,.21,1.59,.32Z"/>
  <path class="cls-17" d="M117.74,165.05c-.36,.26-.71,.53-1.07,.79,.36-.26,.71-.53,1.07-.79Z"/>
  <path class="cls-21" d="M240.27,95.4c.11-.36,.21-.73,.32-1.09-.11,.36-.21,.73-.32,1.09Z"/>
  <path class="cls-17" d="M132.5,165.85c-.34-.27-.68-.55-1.02-.82,.34,.27,.68,.55,1.02,.82Z"/>
  <path class="cls-17" d="M142.39,165.03c-.33,.27-.67,.54-1,.81,.33-.27,.67-.54,1-.81Z"/>
  <path class="cls-17" d="M162.65,165.05c.38,.26,.76,.51,1.14,.77-.38-.26-.76-.51-1.14-.77Z"/>
  <path class="cls-21" d="M278.07,108.5c.27-.25,.53-.49,.8-.74-.27,.25-.53,.49-.8,.74Z"/>
  <path class="cls-19" d="M220.44,104.96c-.08-.1-.15-.19-.22-.28,.15-.07,.31-.14,.46-.21,.04,.11,.15,.24,.11,.32-.04,.08-.22,.11-.35,.16Z"/>
  <path class="cls-9" d="M232.15,116.5c.06,.29,.12,.58,.18,.87-.06-.29-.12-.58-.18-.87Z"/>
  <path class="cls-17" d="M133.63,167.17c-.04-.29-.08-.59-.12-.88,.25,.13,.51,.26,.76,.39-.21,.16-.43,.33-.64,.49Z"/>
  <path class="cls-19" d="M254.65,152.38c-.18,.51-.36,1.01-.54,1.52,.18-.51,.36-1.01,.54-1.52Z"/>
  <path class="cls-21" d="M240.78,89.5c0-.56,.01-1.13,.02-1.69,0,.56-.01,1.13-.02,1.69Z"/>
  <path class="cls-14" d="M248.06,83.6c-.12-.57-.24-1.14-.36-1.7,.12,.57,.24,1.14,.36,1.7Z"/>
  <path class="cls-13" d="M296.73,118.98c-.25-.32-.5-.64-.75-.97,.25,.32,.5,.64,.75,.97Z"/>
  <path class="cls-21" d="M279.36,107.65c.2-.29,.39-.58,.59-.86-.2,.29-.39,.58-.59,.86Z"/>
  <path class="cls-21" d="M216.56,179.48c.52,.09,1.05,.18,1.57,.28-.52-.09-1.05-.18-1.57-.28Z"/>
  <path class="cls-21" d="M269.01,103.86c-.48,.2-.97,.39-1.45,.59,.48-.2,.97-.39,1.45-.59Z"/>
  <path class="cls-17" d="M104.39,168.84c.45-.18,.91-.37,1.36-.55-.45,.18-.91,.37-1.36,.55Z"/>
  <path class="cls-17" d="M135.48,165.94c.48,.02,.95,.04,1.43,.06-.48-.02-.95-.04-1.43-.06Z"/>
  <path class="cls-17" d="M159.78,167.56c.45-.18,.89-.36,1.34-.54-.45,.18-.89,.36-1.34,.54Z"/>
  <path class="cls-17" d="M139.46,166.31c-.51,.14-1.01,.27-1.52,.41,.51-.14,1.01-.27,1.52-.41Z"/>
  <path class="cls-21" d="M289.7,162.2c-.32,.06-.64,.11-.95,.17,.32-.06,.64-.11,.95-.17Z"/>
  <path class="cls-17" d="M132.45,175.81c-.35-.07-.69-.14-1.04-.21,.35,.07,.69,.14,1.04,.21Z"/>
  <path class="cls-17" d="M164.33,175.2c-.37,.04-.73,.09-1.1,.13,.37-.04,.73-.09,1.1-.13Z"/>
  <path class="cls-17" d="M161.59,166.55c-.21-.21-.41-.42-.62-.63,.21,.21,.42,.42,.62,.63Z"/>
  <path class="cls-21" d="M242.15,86.13c-.02,.27-.04,.55-.06,.82,.02-.27,.04-.55,.06-.82Z"/>
  <path class="cls-17" d="M159.21,174.39c.31,.03,.62,.06,.93,.08-.31-.03-.62-.06-.93-.08Z"/>
  <path class="cls-19" d="M278.02,150.57c.27-.24,.55-.48,.82-.72-.27,.24-.55,.48-.82,.72Z"/>
  <path class="cls-17" d="M92.82,174.4c-.38,.06-.77,.11-1.15,.17,.38-.05,.77-.11,1.15-.17Z"/>
  <path class="cls-14" d="M247.56,75.57c-.22-.35-.45-.71-.67-1.06,0,0,0-.01,0-.01,.26,.08,.52,.15,.79,.23-.04,.28-.08,.57-.11,.85Z"/>
  <path class="cls-19" d="M254.38,148.93c.06-.3,.12-.6,.17-.91-.06,.3-.12,.6-.17,.91Z"/>
  <path class="cls-9" d="M231.86,105.92c0,.32-.01,.65-.02,.97,0-.32,.01-.65,.02-.97Z"/>
  <path class="cls-17" d="M208.02,135.9s-.04,.11-.08,.13c-.03,.02-.1-.02-.15-.03l.13-.23s.07,.09,.1,.13Z"/>
  <path class="cls-3" d="M247.67,74.72c-.26-.08-.52-.15-.79-.22,.2-.34,.39-.68,.58-1.02,.2,.2,.39,.41,.59,.61-.13,.21-.26,.42-.39,.63Z"/>
  <path class="cls-17" d="M269.88,100.89c.34-.09,.67-.17,1.01-.26-.34,.09-.67,.17-1.01,.26Z"/>
  <path class="cls-21" d="M279.87,106.67c-.13-.11-.25-.21-.38-.32,.13,.11,.25,.21,.38,.32Z"/>
  <path class="cls-9" d="M231.82,107.5c-.02,.15-.04,.3-.06,.45-.02-.11-.06-.21-.06-.32,0-.05,.08-.09,.12-.13Z"/>
  <path class="cls-17" d="M302.05,105.17c-.1-.16-.21-.31-.31-.47,.1,.16,.21,.31,.31,.47Z"/>
  <path class="cls-21" d="M239.23,108.99c0-.18,.02-.37,.03-.55,0,.18-.02,.37-.03,.55Z"/>
  <path class="cls-21" d="M279.89,108.94c-.17,.08-.34,.17-.51,.25,.17-.08,.34-.17,.51-.25Z"/>
  <path class="cls-20" d="M240.61,126.23c-.06-.11-.14-.21-.18-.32-.01-.04,.07-.1,.11-.16,.02,.16,.04,.32,.07,.48Z"/>
  <path class="cls-21" d="M241.4,98c-.02,.17-.03,.33-.05,.5,.02-.17,.03-.33,.05-.5Z"/>
  <path class="cls-20" d="M240.73,128.32c-.05-.1-.12-.2-.15-.3-.01-.03,.08-.09,.12-.14,.01,.15,.02,.29,.03,.43Z"/>
  <path class="cls-19" d="M264.36,127.9c0,.13-.01,.27-.02,.4-.05-.1-.1-.19-.13-.29,0-.03,.1-.07,.15-.11Z"/>
  <path class="cls-19" d="M264.26,129.2c-.05,.19-.11,.39-.16,.58,.05-.19,.11-.39,.16-.58Z"/>
  <path class="cls-19" d="M263.68,131.33c-.03,.17-.06,.34-.09,.51,.03-.17,.06-.34,.09-.51Z"/>
  <path class="cls-19" d="M256.09,140.58c.15,.06,.29,.13,.43,.2-.14-.07-.29-.14-.43-.2Z"/>
  <path class="cls-19" d="M258.4,140.56c-.1,.1-.21,.2-.31,.3,.1-.1,.21-.2,.31-.3Z"/>
  <path class="cls-21" d="M240.84,84.01c.01-.15,.03-.29,.04-.44,.04,.11,.1,.21,.12,.32,0,.03-.11,.08-.16,.12Z"/>
  <path class="cls-14" d="M242.44,82.31c0,.15-.02,.3-.03,.46,0-.15,.02-.3,.03-.46Z"/>
  <path class="cls-19" d="M254.81,151.99c-.05,.13-.11,.27-.16,.4,.05-.13,.11-.27,.16-.4Z"/>
  <path class="cls-19" d="M275.03,153.23c.13-.09,.26-.17,.38-.26-.13,.09-.26,.17-.38,.26Z"/>
  <path class="cls-17" d="M184.25,161.21c-.04,.15-.09,.29-.13,.44,.04-.15,.09-.29,.13-.44Z"/>
  <path class="cls-17" d="M146.04,162.47s.02-.05,.01-.04c.26-.12,.52-.24,.78-.36-.27,.14-.53,.27-.8,.41Z"/>
  <path class="cls-17" d="M185.08,162.37c.32,.03,.64,.05,.97,.08-.32-.03-.64-.05-.97-.08Z"/>
  <path class="cls-19" d="M239.75,174.93c-.16-.06-.32-.13-.49-.19,.16,.06,.32,.13,.49,.19Z"/>
  <path class="cls-17" d="M144.97,174.77c-.19,.07-.38,.15-.57,.22,.19-.07,.38-.15,.57-.22Z"/>
  <path class="cls-17" d="M140.65,174.66c.23-.03,.45-.07,.68-.1-.23,.03-.45,.07-.68,.1Z"/>
  <path class="cls-17" d="M128.94,173.65s.1,.02,.1,.02c.16,.06,.32,.12,.49,.18-.19,.04-.37,.09-.56,.13-.01-.11-.02-.22-.03-.34Z"/>
  <path class="cls-17" d="M128.6,163.17c.2,.04,.41,.07,.61,.11-.2-.04-.41-.07-.61-.11Z"/>
  <path class="cls-17" d="M97.27,163.74c.07,.14,.13,.28,.2,.41-.07-.14-.13-.28-.2-.41Z"/>
  <path class="cls-17" d="M95.82,173.45c-.14,.09-.28,.18-.42,.26,.14-.09,.28-.18,.42-.26Z"/>
  <path class="cls-17" d="M114.08,164.98c.18-.04,.36-.08,.54-.11-.18,.04-.36,.08-.54,.11Z"/>
  <path class="cls-17" d="M120.15,164.61c-.14,.03-.27,.06-.41,.08,.13-.07,.26-.09,.41-.08Z"/>
  <path class="cls-17" d="M149.92,173.08c-.21,.07-.41,.14-.62,.2,.21-.07,.41-.14,.62-.2Z"/>
  <path class="cls-17" d="M120.36,172.12c.24-.06,.49-.12,.73-.18-.24,.06-.49,.12-.73,.18Z"/>
  <path class="cls-17" d="M105.48,169.65c-.22,.09-.43,.19-.65,.28,.22-.09,.43-.19,.65-.28Z"/>
  <path class="cls-17" d="M136.73,167.2c-.25,.08-.5,.16-.75,.24,.25-.08,.5-.16,.75-.24Z"/>
  <path class="cls-17" d="M132.89,165.97l-.22,.03s-.16-.15-.16-.15c.14,0,.26,.04,.38,.11Z"/>
  <path class="cls-17" d="M100.23,165.94c-.18,0-.35-.01-.53-.02,.17,0,.35,.01,.53,.02Z"/>
  <path class="cls-7" d="M184.65,100.14c-3.43,2.06-7.01,3.88-7.89,7.61-.64,2.75-1.08,5.53-1.59,8.3-.62,3.31-2.38,5.84-6.51,6.54-1.27,.22-2.64,.03-4.45,.03,3.91-5.4,4.27-11.09,5.98-16.46,.63-1.99,1.48-4.06,2.85-5.72,2.76-3.33,8.79-3.45,11.61-.3Z"/>
  <path class="cls-4" d="M164.11,114.76c.04-.06,.07-.15,.14-.17,.59-.17,1.18-.33,2.46-.21-1.34,2.42-2.55,4.9-4.06,7.25-.78,1.21-.7,1.94,.66,2.58,1.07,.51,2.15,.99,3.39,1.56-1.97,2.63-5.04,3.43-8.04,4.11-1.93,.44-4.05,.47-6.07,.41-1.6-.04-2.76-1.03-2.15-2.42,.85-1.91,2.14-3.68,3.24-5.51,.38,.16,.76,.32,1.15,.47-.22,.3-.57,.57-.63,.89-.26,1.38-.43,2.77-.63,4.16,1.68,.06,3.36,.23,5.03,.13,.63-.04,1.2-.72,1.79-1.11-.14-.2-.28-.4-.42-.6-.7,.23-1.39,.57-2.12,.66-1.05,.13-2.12,.07-3.19,.1,.1-.85,.01-1.76,.36-2.52,.34-.76,1.03-1.45,1.73-2.03,2.24-1.85,4.59-3.61,6.81-5.48,.41-.35,.42-1.04,.62-1.57-.02-.23-.03-.47-.05-.7Z"/>
  <path class="cls-4" d="M191.8,100.51c.38,1.36,.57,2.79,1.2,4.06,.69,1.39,.13,2.02-1.2,2.68-4.83,2.41-9.62,4.89-14.64,7.16,.6-2.88-.04-5.93,2.76-8.11,3.22-1.88,6.42-3.81,9.7-5.62,.54-.3,1.44-.13,2.17-.17Z"/>
  <path class="cls-4" d="M217.73,86.06c.27,.94-.73,2.94-2.19,3.87-3.46,3.29-6.92,6.57-10.38,9.86l-1.54-.52c-.27-1.83-.95-3.68-.86-5.51,.05-.88,1.25-1.71,1.93-2.56,4.32-2.81,8.64-5.62,12.96-8.43,.03,1.1,.05,2.2,.08,3.29Z"/>
  <path class="cls-7" d="M192.32,112.02c-.25,.33-.5,.65-.76,.98-1.07,.81-2.11,1.66-3.23,2.42-.66,.45-1.45,.75-2.18,1.12-.74-1.28-1.48-2.56-2.23-3.84,1.02-.45,2.08-.83,3.04-1.36,2.06-1.14,3.96-1.79,5.36,.68Z"/>
  <path class="cls-18" d="M216.54,83.49c-3.95,2.57-7.9,5.14-11.85,7.71-.02-.25-.04-.49-.05-.74,2.32-1.74,4.64-3.47,6.95-5.21,0,0-.01,.01-.01,.01,.33-.28,.66-.57,1-.85,0,0,0,0,0,0,1.32-.56,2.65-1.12,3.97-1.68,0,.25,0,.5,0,.75Z"/>
  <path class="cls-4" d="M154.81,122.84c-.38-.16-.76-.32-1.15-.47,3.48-2.53,6.96-5.07,10.45-7.6,.02,.23,.03,.47,.05,.7-3.12,2.46-6.23,4.91-9.35,7.37Z"/>
  <path class="cls-18" d="M191.8,100.51c-.73,.04-1.63-.13-2.17,.17-3.28,1.81-6.47,3.73-9.7,5.62-.16-.25-.31-.5-.47-.75,.49-.43,.97-.87,1.46-1.3,0,0,0,0,0,0,1.81-1.12,3.62-2.25,5.43-3.37,0,0,0,0,0,0,1.41-.57,2.83-1.15,4.24-1.72,.4,.45,.79,.91,1.19,1.36Z"/>
  <path class="cls-4" d="M211.59,85.25c-2.32,1.74-4.64,3.47-6.95,5.21-.47,.21-.94,.42-1.41,.63-.15-.16-.31-.32-.46-.47,1.25-.96,2.42-2.03,3.79-2.85,1.59-.95,3.35-1.68,5.04-2.51Z"/>
  <path class="cls-10" d="M186.37,100.87c-1.81,1.12-3.62,2.25-5.43,3.37,1.81-1.12,3.62-2.25,5.43-3.37Z"/>
  <path class="cls-4" d="M190.61,99.15c-1.41,.57-2.83,1.15-4.24,1.72,1.43-1.06,2.87-2.12,4.3-3.18,.17,.12,.34,.23,.51,.35-.19,.37-.38,.74-.56,1.11Z"/>
  <path class="cls-4" d="M216.54,82.73c-1.32,.56-2.65,1.12-3.97,1.68,1.38-1.05,2.75-2.1,4.13-3.15,.18,.13,.35,.27,.53,.4-.23,.36-.46,.71-.69,1.07Z"/>
  <path class="cls-4" d="M203.54,98.82c1.04-.15,2.07-.31,3.11-.46-.05,.63-.1,1.26-.16,1.89l-.16-.09c-.18,.15-.35,.3-.53,.46l.16,.06-.03,.15c-.22-.09-.43-.18-.65-.27-.07-.05-.14-.1-.2-.15-.51-.53-1.03-1.06-1.54-1.58Z"/>
  <path class="cls-10" d="M180.93,104.25c-.49,.43-.97,.87-1.46,1.3,.49-.43,.97-.87,1.46-1.3Z"/>
  <path class="cls-18" d="M217.73,86.06c-.01-.54-.03-1.08-.04-1.61,.1,.57,.21,1.13,.31,1.7-.09-.03-.18-.06-.27-.09Z"/>
  <path class="cls-10" d="M212.57,84.41c-.33,.28-.66,.57-1,.85,.33-.28,.66-.57,1-.85Z"/>
  <path class="cls-6" d="M204.6,103.57c.22-.34,.43-.67,.65-1.01,.07,.22,.14,.43,.21,.65-.26,.14-.51,.27-.77,.41,0,0-.09-.05-.09-.05Z"/>
  <path class="cls-19" d="M218.6,79.98c.07,.34,.13,.68,.2,1.02-.07-.34-.13-.68-.2-1.02Z"/>
  <path class="cls-19" d="M218.76,79.01c-.05,.19-.1,.37-.16,.56,.05-.18,.1-.37,.16-.56Z"/>
  <path class="cls-18" d="M300.58,29.51c1.61-.83,3.21-1.67,4.83-2.48,.87-.43,1.77-.82,2.65-1.22-.41,.47-.72,1.07-1.25,1.41-11.75,7.37-23.54,14.69-35.29,22.06-2.89,1.81-5.65,3.77-8.48,5.66-.17,0-.34-.02-.51-.03l-.03-.05c.58-.67,1.17-1.33,1.75-2,.22-.08,.48-.13,.66-.24,5.22-3.31,10.43-6.63,15.63-9.97,.21-.14,.18-.55,.27-.83,0,0,0,0,0,0,.84-.28,1.78-.44,2.5-.87,3.95-2.34,7.9-4.69,11.74-7.17,1.97-1.27,3.7-2.79,5.54-4.2,0,0,0-.05,0-.05Z"/>
  <path class="cls-15" d="M260.57,56.11c.33,0,.66,0,.99,0-.33,0-.66,0-.99,0Z"/>
  <path class="cls-4" d="M300.59,29.56c-1.84,1.41-3.57,2.94-5.54,4.2-3.84,2.47-7.79,4.82-11.74,7.17-.72,.43-1.66,.59-2.5,.87,2.29-1.52,4.56-3.06,6.86-4.57,3.62-2.36,7.23-4.72,10.9-7.03,.55-.35,1.34-.43,2.02-.64Z"/>
  <path class="cls-4" d="M280.8,41.8c-.08,.28-.05,.69-.27,.83-5.19,3.34-10.41,6.66-15.63,9.97-.19,.12-.44,.16-.66,.24q-1.74,.1-1.26-.91c.13,.11,.27,.21,.4,.32,.04-.11,.09-.22,.13-.33,0,0-.03,.01-.03,.01,.92-.44,1.91-.81,2.75-1.34,4.63-2.88,9.23-5.81,13.86-8.7,.17-.11,.46-.06,.7-.09Z"/>
  <path class="cls-4" d="M251.21,67.12c-.39,.17-.79,.33-1.18,.5-1.22-1.11-1.48,.12-1.89,.63-2.06,2.59-4.08,5.21-6.07,7.85-.23,.31-.19,.77-.27,1.16-.84,.14-1.67,.29-2.51,.43,.52-.86,.84-1.88,1.6-2.54,2.73-2.39,4.63-5.23,6.21-8.22,.26-.5-.27-1.31-.43-1.98,.18-.23,.37-.46,.55-.7,.16-.07,.32-.15,.48-.22,.16,0,.33,0,.49,0,.83,.66,1.65,1.32,2.48,1.98,.18,.37,.36,.75,.54,1.12Z"/>
  <path class="cls-18" d="M247.22,64.25c-.18,.23-.37,.46-.55,.7-.55,.34-1.1,.69-1.65,1.03-.79,.46-1.57,.93-2.36,1.39-2.12,1.45-4.23,2.91-6.35,4.36-.2-.27-.65-.63-.56-.8,.24-.47,.69-.86,1.06-1.29,1.31-.98,2.63-1.96,3.94-2.94,0,0,.02-.01,.02-.01,.66-.17,1.41-.24,1.98-.54,1.49-.78,2.91-1.67,4.36-2.52,.04,.21,.07,.41,.11,.62Z"/>
  <path class="cls-4" d="M247.11,63.63c-1.45,.85-2.87,1.73-4.36,2.52-.57,.3-1.31,.36-1.98,.54,2.12-1.46,4.25-2.92,6.37-4.39,.15,.13,.31,.25,.46,.38-.16,.32-.33,.63-.49,.95Z"/>
  <path class="cls-4" d="M240.74,66.7l-3.94,2.94c-.01-.2-.02-.39-.03-.59,1.32-.78,2.65-1.57,3.97-2.35Z"/>
  <path class="cls-18" d="M248.19,64.02c-.16,0-.33,0-.49,0,.16,0,.33,0,.49,0Z"/>
  <path class="cls-21" d="M263.55,175.92c-.17-.25-.34-.49-.51-.74,2.63,.12,5.26,.24,7.88,.36-.16,.15-.32,.3-.48,.46-2.3-.03-4.59-.05-6.89-.08Z"/>
  <path class="cls-18" d="M262.53,54.9c-.19,.1-.38,.19-.56,.29-.02-.1-.04-.19-.06-.29,.2-.02,.4-.03,.59-.05,0,0,.03,.05,.03,.05Z"/>
  <path class="cls-19" d="M263.51,51.92c-.04,.11-.09,.22-.13,.33-.13-.11-.27-.21-.4-.32,.18,0,.35,0,.53-.01Z"/>
  <path class="cls-18" d="M144.85,162.14c-.26-.1-.53-.2-.79-.3,.26,.1,.53,.2,.79,.3Z"/>
  <path class="cls-17" d="M168.08,165c-.49,.31-.98,.62-1.47,.94,.49-.31,.98-.62,1.47-.94Z"/>
  <path class="cls-21" d="M270.9,175.55c.16-.06,.32-.12,.48-.17-.16,.06-.32,.12-.48,.17Z"/>
  <path class="cls-16" d="M245.7,180.11c-.06-.04-.12-.08-.18-.12,.07-.03,.14-.09,.2-.08,.06,0,.12,.07,.18,.11-.07,.03-.14,.06-.2,.09Z"/>
  <path class="cls-16" d="M259.6,139.29c-.2-.33-.41-.65-.61-.98,.92-1.54,1.85-3.08,2.77-4.63,.08,.72,.17,1.44,.25,2.16-.8,1.15-1.61,2.3-2.41,3.45Z"/>
  <path class="cls-16" d="M278.23,145.63c-.29-.29-.58-.57-.87-.85,.56-.84,1.13-1.68,1.69-2.52l1.61-.09c-.35,.44-.7,.89-1.05,1.33-.24,.31-.48,.62-.72,.93-.22,.4-.44,.8-.66,1.2Z"/>
  <path class="cls-19" d="M280.66,142.16l-1.61,.09c.27-.28,.54-.57,.81-.85,.22-.07,.44-.14,.66-.22,.02,.19,.05,.38,.07,.58,.04,.09,.1,.17,.12,.26,.01,.04-.03,.09-.05,.14Z"/>
  <path class="cls-19" d="M281.8,139.5c.42,.06,.83,.13,1.25,.19-.26,.37-.52,.73-.78,1.1-.16-.43-.32-.86-.47-1.29Z"/>
  <path class="cls-19" d="M282.09,140.95c-.27,.14-.55,.29-.82,.43,0-.31-.02-.62-.03-.93,.28,.17,.57,.33,.85,.5Z"/>
  <path class="cls-16" d="M280.52,141.18c-.22,.07-.44,.14-.66,.22,.22-.07,.44-.14,.66-.22Z"/>
  <path class="cls-16" d="M281.31,141.35c-.25,.14-.51,.28-.76,.41,.25-.14,.51-.28,.76-.41Z"/>
  <path class="cls-16" d="M128.79,173.45c-.06,.34-.11,.68-.17,1.02-.68-.48-1.37-.96-2.05-1.45,.74,.14,1.48,.28,2.22,.42Z"/>
  <path class="cls-16" d="M241.8,77.25c.08-.39,.04-.85,.27-1.16,1.99-2.64,4-5.26,6.07-7.85,.41-.51,.67-1.74,1.89-.63-.23,1.06-.29,2.17-.72,3.17-.41,.96-1.21,1.8-1.83,2.69-.19,.34-.39,.68-.58,1.02,0,0,0,.01,0,.01-1.04,1.1-2.08,2.2-3.12,3.31-.66-.19-1.32-.38-1.97-.57Z"/>
  <path class="cls-14" d="M241.86,93.31c.01-.15,.02-.3,.04-.45,.05,.11,.11,.21,.14,.33,0,.03-.11,.08-.18,.12Z"/>
  <path class="cls-4" d="M242.65,67.36c.79-.46,1.58-.92,2.36-1.39-.25,1.5-.97,1.92-2.36,1.39Z"/>
  <path class="cls-19" d="M278.89,144.43c.24-.31,.48-.62,.72-.93-.24,.31-.48,.62-.72,.93Z"/>
  <path class="cls-12" d="M237.72,83.98c-.68-.59-1.11-.97-1.83-1.61,1.87-.55,1.87-3.61,4.89-1.51-.95,.97-1.82,1.86-3.06,3.12Z"/>
  <path class="cls-16" d="M231.85,89.64c-.5-.66-.92-1.21-1.54-2.02,1.05-.7,2.06-1.38,3.26-2.18,.59,.36,2.05,.56,.71,1.88-.73,.73-1.49,1.43-2.43,2.33Z"/>
  <path class="cls-12" d="M205.46,103.21c-.07-.22-.14-.43-.21-.65,.2-.53,.39-1.07,.59-1.6,0,0,.1-.15,.1-.15l.03-.15s-.16-.06-.16-.06c.18-.15,.35-.3,.53-.45,0,0,.16,.09,.16,.09,3.03-3.29,6.06-6.57,9.09-9.86,.48-.53,.96-1.06,1.49-1.66,1,1.71,.63,3.13-.76,4.58-2.71,2.82-5.29,5.73-7.92,8.6-.56,.5-1.06,1.07-1.7,1.47-.24,.15-.81-.1-1.23-.16Z"/>
  <path class="cls-4" d="M215.58,90.38c-3.03,3.29-6.06,6.57-9.09,9.86,.05-.63,.11-1.26,.16-1.89,1.83-1.73,3.66-3.47,5.48-5.2,1.14-1.08,2.27-2.16,3.4-3.23,.01,.15,.03,.31,.04,.46Z"/>
  <path class="cls-16" d="M268.01,110.56c-.13,.2-.27,.4-.4,.6-.1-.09-.2-.17-.3-.26,.24-.11,.47-.23,.71-.34,0,0,0,0,0,0Z"/>
  <path class="cls-18" d="M154.81,122.84c3.12-2.46,6.23-4.91,9.35-7.37-.19,.53-.2,1.23-.62,1.57-2.22,1.87-4.57,3.63-6.81,5.48-.7,.58-1.39,1.27-1.73,2.03-.35,.77-.26,1.68-.36,2.52,1.06-.02,2.14,.03,3.19-.1,.73-.09,1.41-.43,2.12-.66,.14,.2,.28,.4,.42,.6-.6,.39-1.17,1.07-1.79,1.11-1.66,.1-3.35-.07-5.03-.13,.2-1.39,.37-2.78,.63-4.16,.06-.32,.41-.6,.63-.89Z"/>
  <path class="cls-6" d="M205.94,100.82s-.1,.15-.1,.15c-.18-.14-.37-.28-.55-.42,.22,.09,.43,.18,.65,.27Z"/>
  <path class="cls-6" d="M206.34,100.16c-.18,.15-.35,.3-.53,.45,.18-.15,.35-.3,.53-.45Z"/>
</svg>