<svg width="56" height="56" viewBox="0 0 56 56" fill="none" xmlns="http://www.w3.org/2000/svg">
<rect width="56" height="56" fill="#D62D20" fill-opacity="0.4"/>
<g clip-path="url(#clip0_72_13)">
<path d="M34.4167 39H21.5833C20.3682 38.9985 19.2033 38.5152 18.344 37.656C17.4848 36.7967 17.0015 35.6318 17 34.4167V21.5833C17.0015 20.3682 17.4848 19.2033 18.344 18.344C19.2033 17.4848 20.3682 17.0015 21.5833 17H34.4167C35.6318 17.0015 36.7967 17.4848 37.656 18.344C38.5152 19.2033 38.9985 20.3682 39 21.5833V34.4167C38.9985 35.6318 38.5152 36.7967 37.656 37.656C36.7967 38.5152 35.6318 38.9985 34.4167 39ZM21.5833 18.8333C20.854 18.8333 20.1545 19.1231 19.6388 19.6388C19.1231 20.1545 18.8333 20.854 18.8333 21.5833V34.4167C18.8333 35.146 19.1231 35.8455 19.6388 36.3612C20.1545 36.8769 20.854 37.1667 21.5833 37.1667H34.4167C35.146 37.1667 35.8455 36.8769 36.3612 36.3612C36.8769 35.8455 37.1667 35.146 37.1667 34.4167V21.5833C37.1667 20.854 36.8769 20.1545 36.3612 19.6388C35.8455 19.1231 35.146 18.8333 34.4167 18.8333H21.5833ZM25.5635 32.5879C25.1814 32.5866 24.8063 32.4845 24.4763 32.2918C24.1503 32.1052 23.8797 31.8354 23.6922 31.5099C23.5048 31.1844 23.4071 30.8149 23.4093 30.4393V25.5607C23.409 25.185 23.5075 24.8159 23.6949 24.4903C23.8824 24.1647 24.1521 23.8941 24.4772 23.7056C24.8022 23.5172 25.1711 23.4176 25.5468 23.4167C25.9225 23.4159 26.2918 23.5139 26.6177 23.7008L31.4558 26.1162C31.7919 26.2977 32.0733 26.5657 32.271 26.8925C32.4686 27.2193 32.5752 27.593 32.5798 27.9749C32.5844 28.3568 32.4868 28.7329 32.297 29.0644C32.1073 29.3958 31.8324 29.6705 31.5008 29.8599L26.5728 32.323C26.2654 32.4983 25.9173 32.5897 25.5635 32.5879ZM25.5406 25.2546C25.4901 25.2546 25.4404 25.2678 25.3967 25.2931C25.3491 25.3195 25.3097 25.3584 25.2825 25.4056C25.2554 25.4527 25.2416 25.5064 25.2427 25.5607V30.4393C25.243 30.4928 25.2572 30.5454 25.284 30.5918C25.3108 30.6382 25.3492 30.6769 25.3954 30.704C25.4416 30.7311 25.4941 30.7457 25.5477 30.7464C25.6013 30.747 25.6541 30.7338 25.701 30.7078L30.629 28.2438C30.6657 28.2151 30.6949 28.1779 30.714 28.1355C30.7332 28.093 30.7418 28.0465 30.739 28C30.7401 27.9455 30.7263 27.8917 30.699 27.8445C30.6717 27.7973 30.6319 27.7585 30.5841 27.7323L25.7496 25.3169C25.6866 25.2782 25.6145 25.2568 25.5406 25.2546Z" fill="#D62D20"/>
</g>
<defs>
<clipPath id="clip0_72_13">
<rect width="22" height="22" fill="white" transform="translate(17 17)"/>
</clipPath>
</defs>
</svg>
