<?xml version="1.0" encoding="UTF-8"?>
<svg id="Layer_1" data-name="Layer 1" xmlns="http://www.w3.org/2000/svg" viewBox="0 0 414 200">
  <defs>
    <style>
      .cls-1 {
        fill: #ebeaea;
      }

      .cls-2 {
        fill: #fff9b8;
      }

      .cls-3 {
        fill: #fefdfd;
      }

      .cls-4 {
        fill: #fbb040;
      }

      .cls-5 {
        fill: #6b6a6a;
      }

      .cls-6 {
        fill: #c1c0c0;
      }

      .cls-7 {
        fill: #8accf0;
      }

      .cls-8 {
        fill: #32302d;
      }

      .cls-9 {
        fill: #bdb6ad;
      }

      .cls-10 {
        fill: #46403b;
      }

      .cls-11 {
        fill: #645c52;
      }

      .cls-12 {
        fill: #4c4740;
      }

      .cls-13 {
        fill: #231f20;
        font-family: MyriadPro-Regular, 'Myriad Pro';
        font-size: 12px;
      }
    </style>
  </defs>
  <path class="cls-12" d="M198.45,47.49c-.55,11.46-1.35,22.9-1.58,34.37-.03,1.62,.48,2.57,2.06,3.37,3.07,1.57,6.05,3.28,9.02,5,1.09,.63,1.82,.61,2.91-.14,5.14-3.56,11.54-4.1,16.22-1.51,4.75,2.63,7.1,7.69,5.77,13.22-.41,1.7,.29,2.36,1.69,3.13,14.44,7.93,28.87,15.88,43.25,23.89,.62,.34,2.55,.4,1.22,1.88-.35-.16-.71-.33-1.06-.49-.34-.19-.69-.38-1.03-.58-.22-.13-.44-.27-.66-.4-.44-.26-.89-.51-1.33-.77-.58-.32-1.16-.65-1.74-.97-.83-.43-1.65-.87-2.48-1.3-.67-.39-1.34-.79-2.01-1.18-.95-.5-1.91-1-2.86-1.5-.33-.42-.76-.71-1.36-.75-.69-.42-1.38-.83-2.07-1.25-.23-.1-.45-.21-.68-.31l-2-1.16c-1.41-.75-2.82-1.51-4.24-2.26-.68-.39-1.37-.79-2.05-1.18-1.73-.95-3.47-1.89-5.2-2.84-.34-.2-.68-.41-1.02-.61-.94-.51-1.88-1.02-2.81-1.53-.22-.11-.45-.23-.67-.35-.59-.31-1.17-.61-1.76-.92-2.28-1.54-4.7-2.89-7.28-4-.92-.51-1.85-1.02-2.77-1.53-.7-.39-1.4-.77-2.1-1.16-.45-.25-.9-.5-1.36-.75-.35-.2-.69-.4-1.04-.59-.34-.2-.69-.4-1.03-.61-.23-.11-.47-.22-.7-.33-.69-.39-1.38-.77-2.06-1.16-.81-.44-1.62-.88-2.44-1.32-.97-.23-1.68-2.38-2.96-.31-3.67,2.31-3.76,5.35-.22,7.31,11.01,6.1,22,12.22,33.02,18.3,7.68,4.24,15.41,8.41,23.12,12.61,.2,.17,.42,.32,.6,.51,.42,.42,1.76,.49,.97,1.37-.56,.63-1.16-.18-1.66-.45-7.61-4.2-15.21-8.43-22.81-12.64-6.9-3.82-13.85-7.55-20.68-11.46-1.69-.97-2.39-.66-3.06,.8-.42,.92-.9,1.83-1.49,2.66-2.05,2.87-3.23,5.65-2.8,9.35,.72,6.17-2.8,10.78-9.33,13.31-1.43,.55-1.93,1.22-2.01,2.54-.43,7.25-.85,14.5-2.13,21.69l-1.08-.05,.42-1.62,.05-1.02c.02-.66-.03-1.33,.06-1.98,.82-5.49,1.05-11.02,1.41-16.54,.04-.68,.74-1.73-.82-1.95-3.76-.53-5.26,.57-5.45,4-.02,.33-.02,.66-.04,.99-.79,11.79-1.85,23.54-5.72,34.94-.15,.44-.8,1.05,.27,1.48,1.35-.96,.52-3.05,2.46-3.93,.34,1.54-.63,2.69-.86,3.95-.09,.46-.43,1.03,.4,1.18,.56,.1,.7-.41,.92-.76,.71-1.14,.49-2.69,1.99-3.82,.75,1.85-1.25,3.24-.34,5.16,1.79-2.71,1.99-5.55,3.03-8.12,.71,.4,.47,1.09,.65,1.64-.41,1.44-.76,2.89-1.23,4.31-.64,1.95-.95,3.84-4.52,2.97-3.05-.74-4.95-2.27-3.79-4.82,1.37-3.01,1.48-6.21,2.23-9.3,2.19-9.07,2.96-18.29,3.5-27.53,.07-1.15,.36-2.09-1.35-2.78-5.59-2.27-7.43-5.55-6.11-11.08,.43-1.82,.1-3.54-.93-4.7-5-5.64-5.31-12.36-6.07-18.99-.58-5.1-.59-10.23-.59-15.35,0-1.08-.28-1.86-1.27-2.56-4.19-2.91-8.34-5.87-12.47-8.84-1.57-1.13-2.19-1.1-2.39,.92-.26,2.67-1.26,2.96-3.69,1.4-2.93-1.88-5.31-4.19-6.71-7.16-1.6-3.41,.16-5.51,4.37-5.2,4.01,.3,7.56,1.79,10.94,3.61,3.11,1.68,6.2,3.39,9.23,5.16,1.68,.98,2.16,.67,2.24-1.07,.44-9.49,.98-18.97,1.47-28.46,.01-.21-.19-.43-.3-.65l-.07,.06c1.52-2.02,.08-4.27,.66-6.37,.44-.68,.38-1.39,.19-2.11,.11-1.97,.22-3.95,.33-5.92,.41-.02,.83-.04,1.24-.06-.79,14.27-1.61,28.53-2.36,42.8-.2,3.81,1.45,5.52,6.04,6.49-.07-9.94,.78-19.83,1.2-29.73,.28-6.51,1.2-13,.99-19.53,.27-.45,.59-.86,1.23-.93,.39,2.62-.14,5.23-.17,7.84-.02,2.35-1.18,4.63-.48,7.01Zm-3.54,36.81c-.2-.13-.39-.25-.59-.38-.58-.33-1.16-.65-1.74-.98-.89-.52-1.79-1.05-2.68-1.57-2.09-1.14-4.18-2.29-6.27-3.43-.25-.11-.51-.22-.76-.33-.88-.54-1.66-1.24-2.77-1.46-.32-.23-.65-.47-.97-.7-2.73-1.54-5.25-3.46-8.67-3.76-1.34-.41-2.65-.9-4.02-1.22-1.31-.31-2.7-.21-3.67,.71-.99,.95-.3,2.03,.14,3.01,1.16,2.51,3.12,4.47,5.51,6.13,.58,.4,1.16,1.1,1.9,.87,.84-.26,.51-1.14,.61-1.76,.42-2.68,1.18-2.99,3.72-1.29,3.05,2.04,6.03,4.17,9.01,6.3,6.32,4.5,12.35,9.34,19.3,13.11,.65,.35,1.62,1.53,2.18,.14,.68-1.7,2.11-3.11,2.32-4.97,.08-.15,.11-.31,.11-.47,.37,0,.94-.18,.78-.41-.25-.37-.84-.56-1.29-.82-.68-.4-1.35-.8-2.03-1.2-.83-.43-1.66-.85-2.48-1.28-.66-.4-1.33-.81-1.99-1.21-1.52-.84-3.05-1.68-4.57-2.52-.36-.17-.73-.34-1.1-.51Zm9.3,25.79c-.23,4.17,1.4,7.91,3.54,11.53,.79,1.34,1.73,1.52,3.03,.39,1.67-1.45,2.52-3.23,3.08-5.17,.98-3.37,.15-6.7-.2-10.07-.42-3.99,.98-7.48,4.54-10.14,1.22-.91,2.59-1.19,3.61,.18,2.02,2.71,5.56,3.5,8.3,5.3,.74,.49,1.26,.44,1.59-.52,2.41-7.02-4.52-14.3-12.74-13.4-6.06,.66-9.65,3.93-12.02,8.58-2.15,4.24-2.55,8.75-2.73,13.31Zm-7.11,19.6c-1,6.26,1.45,9.79,7.33,10.76,2.35,.39,4.67-.04,6.94-.53,7.63-1.64,12.64-9.07,10.22-15.07-10.51,8.99-15.15,9.94-24.48,4.84Zm30.18-16.97c.01-.52-.67-.73-1.19-1.02-1.26-.7-2.57-1.35-3.83-2.04-3.63-2-5.27-1.38-6.21,2.39-.1,.4-.03,.83-.11,1.23-.64,3.4-.92,6.96-4.12,9.43-1.4,1.08-1.61,2.01-.66,3.34,.34,.48,.48,1.07,.67,1.62,.86,2.55,1.07,2.65,3.54,.93,5.7-3.97,8.36-9.78,11.67-15.19,.09-.14,.12-.31,.24-.68Zm-32.57,9.89c.53-1.83,1.29-3.49,2.24-5.04,.63-1.03,.65-2.01,.42-3.1-1.05-4.96-1.89-10-1.53-15.02,.32-4.49-2.08-6.98-6.37-9.01,.35,10.99-.45,21.94,5.24,32.16Zm8.14-9.92c-3.05,2.53-5.04,5.15-6.11,8.29-1.73,5.1,1.58,9.8,7.52,10.59,2.24,.3,5.01,.52,6.3-1.08,1.38-1.71-.08-3.95-1.46-5.42-3.34-3.54-5.02-7.65-6.25-12.39Zm-5.98-17.44c.08,6.77,.36,13.06,1.84,19.31,3.39-1.95,4.65-4.53,4.6-7.83-.03-1.87,.12-3.79,.73-5.63,.23-.7,.37-1.45-.56-1.98-2.09-1.19-4.14-2.42-6.6-3.87Zm18.68,14.58q2.32-2.9-.72-4.13c-.29,1.4,.2,2.62,.72,4.13Z"/>
  <path class="cls-2" d="M274.15,136.82c-7.71-4.2-15.43-8.37-23.12-12.61-11.02-6.08-22.01-12.2-33.02-18.3-3.54-1.96-3.45-4.99,.22-7.31,0,0-.02-.03-.02-.03,1.57,1.46,3.29,2.69,5.65,2.99,0,0-.03-.02-.03-.02,.98,1.58,2.65,2.19,4.53,2.5l-.03-.02c.12,.93,.75,1.19,1.71,1.01l-.03-.02c.57,1.05,1.52,1.55,2.84,1.51l-.03-.02c.06,1.01,.83,1.08,1.7,1.01h-.01c.14,.58,.44,.9,1.15,.5l-.03-.02c.08,.99,.77,1.17,1.72,1.01l-.03-.02c.1,.96,.81,1.11,1.71,1.01,0,0-.02-.02-.02-.02,.55,1.08,1.5,1.57,2.83,1.5,0,0-.02-.02-.02-.02,.52,1.13,1.49,1.59,2.84,1.51,0,0-.03-.02-.03-.02,.65,1.3,1.88,1.84,3.39,2h-.01c.15,.57,.41,.96,1.16,.5l-.04-.02c.44,1.25,1.48,1.62,2.85,1.51,0,0-.04-.02-.04-.02,2.04,2.31,4.87,3.54,7.91,4.49l-.03-.02c.54,1.11,1.49,1.6,2.85,1.51l-.04-.03c.07,.99,.81,1.11,1.7,1.01h-.01c.16,.86,.76,1.16,1.71,.99,0,0-.02-.02-.02-.02,.61,.98,1.49,1.58,2.83,1.51h-.02c.09,.95,.89,.98,1.71,.99l-.02-.02c-.09,.43,.19,.52,.59,.52,0,0-.02-.01-.02-.01,.6,.61,1.15,1.3,2.27,1.01,0,0-.03-.02-.03-.02,1.07,1.46,2.61,2.24,4.53,2.5l-.04-.02c-.25,.55,.42,.68,.6,1.04-.06,3.9-.42,4.28-4.29,4.5Z"/>
  <path class="cls-8" d="M213.72,35.63c1.12,5.87-.9,8.62-7.43,10.1-.72,.16-1.43,.35-2.14,.52-.22,.05-.44,.11-.66,.16-1.3-.12-2.55,.07-3.78,.43-1.26-1.55-.23-2.03,1.35-2.19,2.51-.25,5.01-.58,7.32-1.52,3.69-1.51,4.9-5.1,2.65-8.04-1.72-2.24-4.38-2.93-7.28-3.07-.19-.2-.4-.29-.67-.11-1.29-.25-2.59-.26-3.9-.08-3.67,.03-7.32,.21-10.87,1.17-1.84,.28-3.69,.53-5.52,.84-1.9,.32-4.17,.36-2.8,3.09,.38,.75-.15,1.27-1.2,1.04-2.81-.61-5.61-1.25-8.42-1.83-1.7-.35-1.49-.94-.37-1.73,2.04-1.44,4.11-2.85,6.11-4.34,1.34-1,2.14-.95,2.32,.72,.18,1.64,1.02,1.88,2.81,1.5,3.25-.7,6.6-1.08,9.9-1.59,.41-.03,.82-.07,1.23-.1,.49-.03,.98-.06,1.47-.09,.43-.04,.87-.08,1.3-.13,1.54-.15,3.07-.3,4.61-.45,2.6-.04,5.18,.16,7.67,.81,2.67,.69,4.77,2.09,6.03,4.35,.09,.18,.18,.36,.27,.54Z"/>
  <path class="cls-8" d="M189.63,47.94c-8.94,.78-17.75,2.12-26.31,4.58-1.5,.43-2.94,1.06-4.32,1.74-6,3-7.4,6.98-4.46,12.45,.28,.52,.61,1.02,.9,1.53,.4,.68-.01,1.14-.63,1.41-.67,.29-.98-.18-1.27-.63-3.43-5.23-4.3-11.72,3.44-15.87,3.97-2.12,8.3-3.33,12.79-4.2,5.75-1.11,11.55-1.95,17.37-2.76,1.96-.28,2.53,.25,2.41,1.81,0,0,.07-.06,.07-.06Z"/>
  <path class="cls-10" d="M178.56,173.43c2.39-3.37,3.33-7.1,4.07-10.87,1-5.05,1.34-10.15,1.39-15.28,0-.85-.61-2.42,.92-2.41,1.28,0,.69,1.49,.68,2.29-.12,8.27-.91,16.46-3.82,24.4-.25,.68-1.17,1.6-.09,2.22,.86,.49,1.45-.47,2.15-.81,.68-.33,1.38-1.34,2.12-.54,.81,.87-.51,1.22-1.08,1.62-1.67,1.19-3.42,2.29-5.14,3.43-1.17,.78-1.96,.92-2.2-.73-.37-2.53-.89-5.04-1.35-7.55-.09-.5-.18-1.1,.52-1.23,.97-.19,.94,.54,1.04,1.1,.26,1.45,.53,2.9,.79,4.35Zm2.92,.91c.08-.07,.14-.12,.2-.18-.13-.06-.25-.13-.38-.16-.05,0-.12,.1-.18,.16,.12,.06,.24,.12,.36,.18Z"/>
  <path class="cls-4" d="M199.75,29.94c-1.54,.15-3.07,.3-4.61,.45-.33-.06-.66-.12-.98-.18-.35-.8-1.18-.53-1.84-.66,.19-4.24,.37-8.47,.56-12.71,2.08,.18,4.24-.51,6.25,.45-.21,3.29-.44,6.58-.6,9.88-.03,.72-.51,1.77,1.03,1.86,.06,.3,.13,.61,.19,.91Z"/>
  <path class="cls-12" d="M192.88,16.84c-.19,4.24-.37,8.47-.56,12.71-.64,.38-.68,.73,.05,1.06-.41,.03-.82,.07-1.23,.1,.2-4.06,.38-8.12,.64-12.18,.04-.65-.64-1.83,1.1-1.69Z"/>
  <path class="cls-11" d="M208.68,164.43l1.08,.05c-.35,4.6-1.28,9.11-2.67,13.55-.18-.56,.07-1.25-.65-1.64,.75-3.99,1.49-7.97,2.24-11.96Z"/>
  <path class="cls-12" d="M199.56,29.03c-1.55-.09-1.07-1.14-1.03-1.86,.16-3.29,.39-6.59,.6-9.88,1.44-.23,1.21,.68,1.16,1.38-.22,3.45-.48,6.91-.73,10.36Z"/>
  <path class="cls-11" d="M278.44,132.32c-.18-.35-.85-.49-.6-1.04,.37,.01,.75,.03,1.12,.04,.71,.69,.57,1.03-.52,.99Z"/>
  <path class="cls-6" d="M190.42,39.52c.18,.72,.24,1.44-.19,2.11-.21-.72-.36-1.44,.19-2.11Z"/>
  <path class="cls-2" d="M278.95,131.32c-.37-.01-.75-.03-1.12-.04,0,0,.04,.02,.04,.02-.12-.22-.24-.45-.36-.67,.15-.14,.29-.28,.44-.42,.35,.16,.71,.33,1.06,.49-.02,.21-.04,.41-.05,.62Z"/>
  <path class="cls-1" d="M213.72,35.63c-.09-.18-.18-.36-.27-.54,.09,.18,.18,.36,.27,.54Z"/>
  <path class="cls-1" d="M203.48,46.42c.22-.05,.44-.11,.66-.16-.22,.05-.44,.11-.66,.16Z"/>
  <path class="cls-4" d="M204.21,110.1c.18-4.56,.58-9.07,2.73-13.31,2.36-4.65,5.95-7.92,12.02-8.58,8.22-.9,15.15,6.38,12.74,13.4-.33,.96-.85,1-1.59,.52-2.73-1.8-6.28-2.59-8.3-5.3-1.02-1.37-2.39-1.09-3.61-.18-3.57,2.65-4.96,6.15-4.54,10.14,.35,3.36,1.18,6.69,.2,10.07-.56,1.94-1.41,3.72-3.08,5.17-1.31,1.13-2.24,.95-3.03-.39-2.14-3.62-3.76-7.36-3.54-11.53Z"/>
  <path class="cls-4" d="M192,33.53c1.96,.01,3.91,.02,5.87,.03,.21,6.53-.71,13.02-.99,19.53-.43,9.9-1.27,19.79-1.2,29.73-4.59-.97-6.24-2.68-6.04-6.49,.75-14.27,1.57-28.53,2.36-42.8Z"/>
  <path class="cls-2" d="M180.11,76.16c1.1,.22,1.88,.91,2.77,1.46-.03,.17-.06,.35-.09,.52-.49,.07-1.48,.43-.82,.67,1.87,.67,3.18,2.3,5.34,2.41l-.03-.02c.12,.63,.4,.98,1.16,.52,0,0-.04-.02-.04-.02,.04,1.04,.7,1.26,1.72,1.01,0,0-.03-.02-.03-.02,2.16,2.15,4.86,3.55,7.9,4.48,0,0-.03-.02-.03-.02,.59,1.03,1.46,1.63,2.84,1.51,0,0-.03-.02-.03-.02,1.62,1.79,3.7,2.93,6.21,3.49l-.03-.02c-.26,.48,.17,.52,.51,.62-.21,1.85-1.64,3.27-2.32,4.97-.55,1.39-1.52,.22-2.18-.14-6.95-3.78-12.98-8.62-19.3-13.11-2.98-2.12-5.96-4.25-9.01-6.3-2.55-1.7-3.31-1.39-3.72,1.29-.1,.62,.23,1.51-.61,1.76-.74,.23-1.32-.47-1.9-.87-2.39-1.65-4.36-3.62-5.51-6.13-.45-.98-1.14-2.06-.14-3.01,.96-.92,2.35-1.01,3.67-.71,1.37,.32,2.68,.81,4.02,1.22,0,.19-.01,.37-.02,.56-.9-.15-1.8-.33-2.71-.46-1.09-.15-2.16,.06-2.72,.9-.51,.77-.18,1.56,.94,2.21-.44-2.37,1.05-2.41,2.8-1.96,1.52,.39,2.97,.98,4.49,1.33,1.56,.36,2.62,1.87,4.48,1.48,0,0-.01,0-.01,0,.32,1.09,.81,1.67,1.86,.46l.27,.02,.26-.06Zm-14.43-1.39c.5,1.31,.85,2.02,2.1,2.48-.12-1.28-.71-1.82-2.1-2.48Z"/>
  <path class="cls-7" d="M208.68,164.43c-.75,3.99-1.49,7.97-2.24,11.96-1.05,2.58-1.24,5.41-3.03,8.12-.9-1.91,1.09-3.31,.34-5.16-1.5,1.13-1.28,2.68-1.99,3.82-.22,.35-.35,.86-.92,.76-.84-.15-.49-.72-.4-1.18,.23-1.26,1.2-2.4,.86-3.95-1.94,.87-1.11,2.96-2.46,3.93-1.07-.43-.42-1.04-.27-1.48,3.87-11.4,4.93-23.15,5.72-34.94,.02-.33,.02-.66,.04-.99,.19-3.43,1.69-4.53,5.45-4,1.56,.22,.86,1.28,.82,1.95-.36,5.52-.59,11.05-1.41,16.54-.1,.65-.05,1.32-.06,1.98-.21,.33-.34,.67-.05,1.01l-.42,1.62Z"/>
  <path class="cls-7" d="M197.09,129.7c9.34,5.1,13.98,4.15,24.48-4.84,2.42,6.01-2.59,13.43-10.22,15.07-2.27,.49-4.59,.92-6.94,.53-5.88-.97-8.33-4.5-7.33-10.76Z"/>
  <path class="cls-4" d="M227.27,112.73c-.13,.37-.16,.54-.24,.68-3.32,5.41-5.98,11.22-11.67,15.19-2.47,1.72-2.69,1.62-3.54-.93-.19-.55-.33-1.14-.67-1.62-.94-1.33-.74-2.26,.66-3.34,3.2-2.46,3.49-6.03,4.12-9.43,.08-.4,0-.83,.11-1.23,.94-3.77,2.58-4.39,6.21-2.39,1.27,.7,2.57,1.34,3.83,2.04,.52,.29,1.2,.5,1.19,1.02Z"/>
  <path class="cls-4" d="M194.7,122.62c-5.69-10.22-4.89-21.18-5.24-32.16,4.29,2.03,6.69,4.52,6.37,9.01-.36,5.01,.48,10.05,1.53,15.02,.23,1.09,.21,2.06-.42,3.1-.95,1.56-1.71,3.21-2.24,5.04Z"/>
  <path class="cls-7" d="M202.84,112.7c1.23,4.74,2.91,8.85,6.25,12.39,1.39,1.47,2.84,3.71,1.46,5.42-1.29,1.6-4.06,1.38-6.3,1.08-5.94-.8-9.25-5.49-7.52-10.59,1.07-3.14,3.06-5.76,6.11-8.29Z"/>
  <path class="cls-2" d="M170.45,72.26c0-.19,.01-.37,.02-.56,3.43,.29,5.95,2.21,8.67,3.76-.12,.12-.24,.24-.36,.37-.35-.02-.71-.05-1.06-.07,0,0,.01,0,.01,0-2.02-1.82-4.84-2.37-7.28-3.5Z"/>
  <path class="cls-2" d="M234.69,106.36c2.58,1.11,5,2.46,7.28,4-.16,.15-.33,.31-.49,.46-.83-.25-1.42-1.05-2.45-.85,0,0,.02,.02,.02,.02-.2-.83-.87-1.03-1.71-1.01,0,0,.03,.02,.03,.02-.3-.7-.86-1.05-1.72-1.01,0,0,.03,.02,.03,.02-.16-.56-.6-.63-1.15-.52h.01c-.11-.21-.23-.44-.34-.67,.16-.15,.32-.3,.49-.46Z"/>
  <path class="cls-2" d="M183.63,77.95c2.09,1.14,4.18,2.29,6.27,3.43-.16,.15-.32,.3-.49,.45-.34-.05-.68-.09-1.02-.14,0,0,.04,.02,.04,.02-.15-.58-.61-.62-1.16-.52,0,0,.03,.02,.03,.02-.84-1.52-2.97-1.63-4.06-2.88,.13-.13,.26-.26,.39-.39Z"/>
  <path class="cls-2" d="M248.24,113.75c1.73,.95,3.47,1.89,5.2,2.84-.16,.16-.32,.32-.49,.48-.33-.06-.66-.11-.99-.17,0,0,.04,.02,.04,.02-.73-.83-1.61-1.44-2.85-1.51,0,0,.04,.02,.04,.02-.16-.57-.6-.64-1.16-.51,0,0,.01,.01,.01,.01,.19-.34-.1-.51-.31-.71l.51-.48Z"/>
  <path class="cls-2" d="M196,84.81c1.52,.84,3.05,1.68,4.57,2.52-.16,.15-.32,.3-.48,.45-.75-.1-1.26-.84-2.13-.63,0,0,.03,.02,.03,.02-.28-1.11-1.8-1.05-2.34-1.91,.12-.15,.24-.3,.36-.45Z"/>
  <path class="cls-2" d="M255.49,117.77c1.41,.75,2.82,1.51,4.24,2.26-.18,.15-.36,.3-.54,.45-1.4-.75-2.8-1.49-4.2-2.24,.17-.16,.33-.32,.5-.48Z"/>
  <path class="cls-2" d="M218.23,98.6c1.28-2.07,1.99,.08,2.96,.31-.16,.16-.32,.31-.48,.47-.82-.3-1.47-1.02-2.5-.81l.02,.03Z"/>
  <path class="cls-2" d="M270.7,126.19c.83,.43,1.65,.87,2.48,1.3-.16,.14-.32,.28-.48,.43-.53-.06-1.03-.5-1.6-.1,0,0,.02,.01,.02,.01,.21-.53-.19-.52-.59-.52l.02,.02c-.11-.24-.21-.48-.32-.71,.16-.15,.31-.29,.47-.44Z"/>
  <path class="cls-2" d="M231.92,104.82c.92,.51,1.85,1.02,2.77,1.53-.16,.15-.32,.3-.49,.46-.45-.11-.91-.21-1.37-.32,0,0,.03,.02,.03,.02-.07-.74-.99-.77-1.36-1.26,.14-.14,.27-.28,.41-.42Z"/>
  <path class="cls-2" d="M189.9,81.38c.89,.52,1.79,1.05,2.68,1.57-.13,.14-.27,.28-.4,.42-.72-.16-1.24-.83-2.1-.68,0,0,.03,.02,.03,.02-.23-.29-.47-.58-.7-.88,.16-.15,.32-.3,.49-.45Z"/>
  <path class="cls-2" d="M265.83,123.51c.95,.5,1.91,1,2.86,1.5-.18,.16-.37,.32-.55,.48-.72-.18-1.23-.88-2.12-.65,0,0,.02,.02,.02,.02,.19-.52-.5-.59-.62-.95l.4-.4Z"/>
  <path class="cls-2" d="M221.2,98.91c.81,.44,1.62,.88,2.44,1.32-.16,.15-.32,.3-.48,.46-.81-.44-1.63-.87-2.44-1.31,.16-.16,.32-.31,.48-.47Z"/>
  <path class="cls-2" d="M244.41,111.62c.94,.51,1.88,1.02,2.81,1.53-.15,.15-.3,.31-.45,.46-.7-.22-1.41-.45-2.11-.67,0,0,.03,.02,.03,.02,.06-.5-.53-.53-.77-.82,.17-.17,.33-.35,.5-.52Z"/>
  <path class="cls-2" d="M202.57,88.55c.83,.43,1.66,.85,2.48,1.28-.16,.16-.33,.32-.49,.48-.79-.44-1.59-.88-2.38-1.32,.13-.15,.26-.29,.39-.44Z"/>
  <path class="cls-2" d="M268.69,125.01c.67,.39,1.34,.79,2.01,1.18-.16,.15-.31,.29-.47,.44-.46-.1-.93-.19-1.39-.29,0,0,.02,.01,.02,.01,.13-.52-.55-.52-.71-.86,.18-.16,.37-.32,.55-.48Z"/>
  <path class="cls-2" d="M223.63,100.23c.69,.39,1.38,.77,2.06,1.16-.15,.16-.31,.32-.46,.48-.47-.11-.93-.22-1.4-.33,0,0,.03,.02,.03,.02-.24-.29-.47-.58-.71-.87,.16-.15,.32-.3,.48-.46Z"/>
  <path class="cls-2" d="M259.73,120.03l2,1.16c-.16,.16-.32,.33-.47,.49-.47-.11-.94-.21-1.41-.32,0,0,.03,.02,.03,.02-.22-.3-.45-.6-.67-.9,.18-.15,.36-.3,.54-.45Z"/>
  <path class="cls-2" d="M229.82,103.67c.7,.39,1.4,.77,2.1,1.16-.14,.14-.27,.28-.41,.42-.49-.08-.99-.16-1.48-.25,0,0,.03,.02,.03,.02,.13-.5-.49-.59-.65-.92,.14-.14,.28-.29,.42-.43Z"/>
  <path class="cls-2" d="M253.44,116.59c.68,.39,1.37,.79,2.05,1.18-.17,.16-.33,.32-.5,.48-.68-.39-1.36-.79-2.04-1.18,.16-.16,.32-.32,.49-.48Z"/>
  <path class="cls-9" d="M273.18,127.49c.58,.32,1.16,.65,1.74,.97-.17,.15-.34,.29-.52,.44-.35-.03-.71-.06-1.06-.09,0,0,.03,.02,.03,.02-.22-.3-.45-.61-.67-.91,.16-.14,.32-.28,.48-.43Z"/>
  <path class="cls-2" d="M200.58,87.34c.66,.4,1.33,.81,1.99,1.21-.13,.15-.26,.29-.39,.44-.47-.12-.94-.23-1.41-.35,0,0,.03,.02,.03,.02-.23-.29-.47-.58-.7-.88,.16-.15,.32-.3,.48-.45Z"/>
  <path class="cls-2" d="M205.05,89.83c.68,.4,1.35,.8,2.03,1.2-.16,.14-.31,.29-.47,.43-.68-.38-1.36-.77-2.05-1.15,.16-.16,.33-.32,.49-.48Z"/>
  <path class="cls-2" d="M207.08,91.03c.45,.26,1.04,.45,1.29,.82,.16,.23-.41,.41-.78,.41-.21-.05-.42-.1-.63-.15,0,0,.03,.02,.03,.02-.13-.22-.25-.45-.38-.67,.16-.14,.31-.29,.47-.43Z"/>
  <path class="cls-2" d="M241.97,110.36c.59,.31,1.17,.61,1.76,.92l-.48,.49c-.47-.1-.94-.2-1.42-.31,0,0,.02,.02,.02,.02-.13-.22-.25-.44-.38-.66,.16-.15,.33-.31,.49-.46Z"/>
  <path class="cls-2" d="M262.4,121.51c.69,.42,1.38,.83,2.07,1.25-.15,.14-.3,.28-.45,.42-.45-.11-.91-.22-1.36-.32,0,0,.04,.03,.04,.03-.25-.28-.5-.56-.75-.85,.16-.17,.31-.35,.47-.52Z"/>
  <path class="cls-2" d="M264.47,122.76c.6,.04,1.03,.33,1.36,.75-.13,.13-.27,.26-.4,.4-.36-.02-.73-.03-1.09-.05,0,0,.01,.01,.01,.01-.11-.23-.23-.46-.34-.69,.15-.14,.3-.28,.45-.42Z"/>
  <path class="cls-2" d="M228.47,102.92c.45,.25,.9,.5,1.36,.75-.14,.14-.28,.29-.42,.43-.36-.03-.71-.06-1.07-.09,0,0,.03,.02,.03,.02-.11-.23-.23-.47-.34-.7,.15-.14,.3-.27,.44-.41Z"/>
  <path class="cls-2" d="M192.58,82.95c.58,.33,1.16,.65,1.74,.98-.14,.13-.27,.26-.41,.39-.58-.31-1.15-.63-1.73-.94,.13-.14,.27-.28,.4-.42Z"/>
  <path class="cls-2" d="M274.92,128.46c.44,.26,.89,.51,1.33,.77-.13,.14-.27,.27-.4,.41l-1.45-.74,.52-.44Z"/>
  <path class="cls-9" d="M276.92,129.64c.34,.19,.69,.38,1.03,.58-.15,.14-.29,.28-.44,.42-.35-.19-.69-.38-1.04-.57,.15-.14,.3-.28,.44-.42Z"/>
  <path class="cls-2" d="M194.91,84.3c.36,.17,.73,.34,1.1,.51-.12,.15-.24,.3-.36,.44-.36-.18-.72-.37-1.08-.55,.11-.14,.23-.27,.34-.41Z"/>
  <path class="cls-2" d="M247.22,113.14c.34,.2,.68,.41,1.02,.61-.17,.16-.34,.32-.51,.48-.32-.21-.64-.41-.97-.62,.15-.15,.3-.31,.45-.46Z"/>
  <path class="cls-2" d="M227.43,102.33c.35,.2,.69,.4,1.04,.59-.15,.14-.29,.27-.44,.41-.34-.18-.69-.35-1.03-.53,.14-.16,.29-.32,.43-.47Z"/>
  <path class="cls-2" d="M226.4,101.72c.34,.2,.69,.4,1.03,.61-.14,.16-.29,.32-.43,.47-.36-.2-.72-.39-1.08-.59,.16-.16,.32-.33,.48-.49Z"/>
  <path class="cls-6" d="M180.11,76.16l-.26,.06s-.27-.02-.27-.02c-.27-.13-.53-.26-.8-.38,.12-.12,.24-.25,.36-.37,.32,.23,.65,.47,.97,.7Z"/>
  <path class="cls-11" d="M206.96,92.11c.21,.05,.42,.1,.63,.15,0,.16-.04,.32-.11,.47-.34-.1-.77-.14-.51-.62Z"/>
  <path class="cls-2" d="M225.69,101.39c.23,.11,.47,.22,.7,.33-.16,.16-.32,.33-.48,.49-.23-.12-.45-.23-.68-.35,.15-.16,.31-.32,.46-.48Z"/>
  <path class="cls-9" d="M182.78,78.15c.03-.17,.06-.35,.09-.52,.25,.11,.5,.22,.76,.33-.13,.13-.26,.26-.39,.39-.18-.02-.33-.09-.46-.2Z"/>
  <path class="cls-9" d="M243.73,111.27c.22,.12,.45,.23,.67,.35-.17,.17-.33,.35-.5,.52-.22-.13-.43-.25-.65-.38l.48-.49Z"/>
  <path class="cls-9" d="M194.32,83.93c.2,.13,.39,.25,.59,.38-.11,.13-.23,.27-.34,.41-.22-.13-.44-.26-.66-.4,.14-.13,.27-.26,.41-.39Z"/>
  <path class="cls-2" d="M276.25,129.23c.22,.14,.44,.27,.66,.4-.15,.14-.3,.28-.44,.42-.21-.14-.42-.28-.62-.42,.13-.14,.27-.27,.4-.41Z"/>
  <path class="cls-2" d="M261.73,121.19c.23,.1,.45,.21,.68,.31-.16,.17-.31,.35-.47,.52-.23-.11-.46-.23-.68-.34,.16-.16,.32-.33,.47-.49Z"/>
  <path class="cls-11" d="M209.1,162.81c-.29-.35-.17-.68,.05-1.01-.02,.34-.03,.68-.05,1.01Z"/>
  <path class="cls-11" d="M252.96,117.07c.68,.39,1.36,.79,2.04,1.18,1.4,.75,2.8,1.49,4.2,2.24,.22,.3,.45,.6,.67,.9-3.04-.95-5.86-2.18-7.91-4.49,.33,.06,.66,.11,.99,.17Z"/>
  <path class="cls-11" d="M223.16,100.69c.24,.29,.47,.58,.71,.87-2.36-.3-4.08-1.53-5.65-2.99,1.03-.2,1.68,.51,2.5,.81,.81,.44,1.63,.87,2.44,1.31Z"/>
  <path class="cls-11" d="M225.24,101.86c.23,.12,.45,.23,.68,.35,.36,.2,.72,.39,1.08,.59,.34,.18,.69,.35,1.03,.53,.11,.23,.23,.47,.34,.7-1.88-.31-3.55-.93-4.53-2.5,.47,.11,.93,.22,1.4,.33Z"/>
  <path class="cls-11" d="M275.85,129.64c.21,.14,.42,.28,.62,.42,.34,.19,.69,.38,1.04,.57,.12,.23,.24,.45,.36,.67-1.92-.25-3.46-1.04-4.53-2.5,.35,.03,.71,.06,1.06,.09,.48,.25,.96,.49,1.45,.74Z"/>
  <path class="cls-11" d="M246.77,113.61c.32,.21,.64,.41,.97,.62,.21,.2,.5,.37,.31,.71-1.51-.16-2.74-.7-3.39-2,.7,.22,1.41,.45,2.11,.67Z"/>
  <path class="cls-11" d="M230.03,105c.49,.08,.99,.16,1.48,.25,.36,.5,1.29,.52,1.36,1.27-1.32,.04-2.27-.46-2.84-1.51Z"/>
  <path class="cls-11" d="M261.25,121.69c.23,.11,.46,.23,.68,.34,.25,.28,.5,.56,.75,.85-1.36,.09-2.31-.4-2.85-1.51,.47,.11,.94,.21,1.41,.32Z"/>
  <path class="cls-11" d="M241.48,110.81c.13,.22,.25,.44,.38,.66-1.33,.06-2.28-.42-2.83-1.5,1.03-.21,1.62,.6,2.45,.85Z"/>
  <path class="cls-11" d="M243.25,111.76c.22,.13,.44,.25,.65,.38,.24,.29,.83,.32,.77,.82-1.35,.09-2.32-.38-2.84-1.51,.47,.1,.94,.2,1.42,.31Z"/>
  <path class="cls-11" d="M249.15,115.42c1.25,.07,2.13,.68,2.85,1.51-1.37,.11-2.41-.26-2.85-1.51Z"/>
  <path class="cls-11" d="M268.15,125.49c.17,.33,.84,.33,.71,.86-1.34,.07-2.22-.52-2.83-1.51,.88-.23,1.4,.47,2.12,.65Z"/>
  <path class="cls-11" d="M268.84,126.33c.46,.1,.93,.19,1.39,.29,.11,.24,.21,.48,.32,.71-.82,0-1.62-.04-1.71-1Z"/>
  <path class="cls-11" d="M272.7,127.92c.22,.3,.45,.61,.67,.91-1.12,.29-1.67-.4-2.27-1.01,.57-.4,1.07,.04,1.6,.1Z"/>
  <path class="cls-11" d="M232.84,106.49c.46,.11,.91,.21,1.37,.32,.11,.23,.23,.46,.34,.69-.88,.07-1.65,0-1.7-1.01Z"/>
  <path class="cls-11" d="M264.01,123.18c.11,.23,.23,.46,.34,.69-.9,.09-1.64-.02-1.7-1.01,.45,.11,.91,.22,1.36,.32Z"/>
  <path class="cls-11" d="M264.34,123.85c.36,.02,.73,.03,1.09,.05,.12,.36,.81,.43,.62,.95-.95,.17-1.55-.13-1.71-1Z"/>
  <path class="cls-11" d="M228.34,104.01c.36,.03,.71,.06,1.07,.09,.16,.34,.78,.42,.65,.92-.97,.18-1.59-.09-1.71-1.01Z"/>
  <path class="cls-11" d="M235.65,107.98c.86-.04,1.42,.31,1.72,1.01-.95,.16-1.64-.02-1.72-1.01Z"/>
  <path class="cls-11" d="M237.34,108.97c.84-.02,1.51,.18,1.71,1.01-.9,.1-1.62-.05-1.71-1.01Z"/>
  <path class="cls-11" d="M248.03,114.92c.55-.12,1-.06,1.16,.51-.75,.46-1.01,.07-1.16-.51Z"/>
  <path class="cls-11" d="M234.53,107.49c.55-.12,.99-.05,1.15,.52-.71,.39-1.01,.08-1.15-.52Z"/>
  <path class="cls-11" d="M270.53,127.31c.4,0,.8,0,.59,.52-.4,0-.68-.09-.59-.52Z"/>
  <path class="cls-3" d="M192.37,30.61c-.72-.33-.69-.68-.05-1.06,.65,.13,1.49-.14,1.84,.66-.14,.07-.25,.17-.32,.31-.49,.03-.98,.06-1.47,.09Z"/>
  <path class="cls-12" d="M193.84,30.52c.07-.13,.17-.23,.32-.31,.33,.06,.66,.12,.98,.18-.43,.04-.87,.08-1.3,.13Z"/>
  <path class="cls-6" d="M203.75,32.03c-.22-.04-.44-.07-.67-.11,.27-.19,.48-.1,.67,.11Z"/>
  <path class="cls-3" d="M181.49,174.34c-.12-.06-.24-.12-.36-.18,.06-.06,.14-.16,.18-.16,.13,.03,.25,.1,.38,.16-.06,.06-.13,.11-.2,.18Z"/>
  <path class="cls-5" d="M170.45,72.26c2.45,1.13,5.26,1.67,7.28,3.5-1.86,.38-2.92-1.13-4.48-1.48-1.52-.35-2.98-.94-4.49-1.33-1.75-.45-3.24-.41-2.8,1.96-1.12-.65-1.44-1.44-.94-2.21,.56-.84,1.63-1.05,2.72-.9,.91,.13,1.81,.3,2.71,.46Z"/>
  <path class="cls-11" d="M193.91,84.32c.22,.13,.44,.26,.66,.4,.36,.18,.72,.37,1.08,.55,.54,.87,2.06,.8,2.34,1.91-3.05-.93-5.74-2.34-7.9-4.48,.86-.15,1.37,.52,2.1,.68,.58,.32,1.15,.63,1.73,.95Z"/>
  <path class="cls-11" d="M206.61,91.46c.13,.22,.25,.45,.38,.67-2.51-.56-4.59-1.7-6.21-3.49,.47,.12,.94,.23,1.41,.35,.79,.44,1.59,.88,2.38,1.32,.68,.38,1.36,.77,2.05,1.15Z"/>
  <path class="cls-11" d="M182.78,78.15c.13,.11,.29,.17,.46,.2,1.09,1.25,3.21,1.36,4.06,2.88-2.16-.11-3.47-1.74-5.34-2.41-.66-.24,.33-.59,.82-.67Z"/>
  <path class="cls-5" d="M165.68,74.77c1.39,.66,1.97,1.2,2.1,2.48-1.24-.46-1.6-1.17-2.1-2.48Z"/>
  <path class="cls-11" d="M200.1,87.79c.23,.29,.47,.58,.7,.88-1.37,.12-2.25-.48-2.84-1.51,.87-.21,1.38,.53,2.14,.63Z"/>
  <path class="cls-2" d="M178.78,75.83c.27,.13,.53,.26,.8,.38-1.05,1.21-1.53,.63-1.86-.46,.35,.02,.71,.05,1.06,.07Z"/>
  <path class="cls-11" d="M189.41,81.83c.23,.29,.47,.58,.7,.88-1.02,.25-1.68,.03-1.72-1.01,.34,.05,.68,.09,1.02,.14Z"/>
  <path class="cls-11" d="M187.28,81.21c.55-.11,1.01-.07,1.16,.52-.75,.47-1.04,.12-1.16-.52Z"/>
  <text class="cls-13" transform="translate(155.98 166.81)"><tspan x="0" y="0">Kéo</tspan></text>
</svg>