<svg width="414" height="896" viewBox="0 0 414 896" fill="none" xmlns="http://www.w3.org/2000/svg">
<g clip-path="url(#clip0_6_3103)">
<path d="M414 0H0V896H414V0Z" fill="#FDDBA0"/>
<path d="M101.136 410.76V416.04H95.4961V432H88.8361V416.04H83.2561V410.76H101.136ZM116.022 419.01V424.5H102.042V419.01H116.022ZM145.758 410.76V432H139.128V421.41L135.858 432H130.158L126.888 421.41V432H120.228V410.76H128.388L133.068 423.51L137.628 410.76H145.758ZM147.863 423.54C147.863 421.76 148.163 420.22 148.763 418.92C149.383 417.6 150.223 416.6 151.283 415.92C152.343 415.22 153.533 414.87 154.853 414.87C155.953 414.87 156.903 415.1 157.703 415.56C158.503 416 159.113 416.61 159.533 417.39V415.08H166.163V432H159.533V429.69C159.113 430.47 158.503 431.09 157.703 431.55C156.903 431.99 155.953 432.21 154.853 432.21C153.533 432.21 152.343 431.87 151.283 431.19C150.223 430.49 149.383 429.49 148.763 428.19C148.163 426.87 147.863 425.32 147.863 423.54ZM159.533 423.54C159.533 422.64 159.303 421.94 158.843 421.44C158.383 420.94 157.793 420.69 157.073 420.69C156.353 420.69 155.763 420.94 155.303 421.44C154.843 421.94 154.613 422.64 154.613 423.54C154.613 424.44 154.843 425.14 155.303 425.64C155.763 426.14 156.353 426.39 157.073 426.39C157.793 426.39 158.383 426.14 158.843 425.64C159.303 425.14 159.533 424.44 159.533 423.54ZM168.253 423.54C168.253 421.76 168.553 420.22 169.153 418.92C169.773 417.6 170.613 416.6 171.673 415.92C172.733 415.22 173.923 414.87 175.243 414.87C176.343 414.87 177.283 415.1 178.063 415.56C178.863 416 179.473 416.61 179.893 417.39V409.8H186.553V432H179.893V429.69C179.473 430.47 178.863 431.09 178.063 431.55C177.283 431.99 176.343 432.21 175.243 432.21C173.923 432.21 172.733 431.87 171.673 431.19C170.613 430.49 169.773 429.49 169.153 428.19C168.553 426.87 168.253 425.32 168.253 423.54ZM179.923 423.54C179.923 422.64 179.693 421.94 179.233 421.44C178.773 420.94 178.183 420.69 177.463 420.69C176.743 420.69 176.153 420.94 175.693 421.44C175.233 421.94 175.003 422.64 175.003 423.54C175.003 424.44 175.233 425.14 175.693 425.64C176.153 426.14 176.743 426.39 177.463 426.39C178.183 426.39 178.773 426.14 179.233 425.64C179.693 425.14 179.923 424.44 179.923 423.54ZM205.924 423.39C205.924 423.85 205.894 424.29 205.834 424.71H195.124C195.224 426.17 195.834 426.9 196.954 426.9C197.674 426.9 198.194 426.57 198.514 425.91H205.564C205.324 427.11 204.814 428.19 204.034 429.15C203.274 430.09 202.304 430.84 201.124 431.4C199.964 431.94 198.684 432.21 197.284 432.21C195.604 432.21 194.104 431.86 192.784 431.16C191.484 430.46 190.464 429.46 189.724 428.16C189.004 426.84 188.644 425.3 188.644 423.54C188.644 421.78 189.004 420.25 189.724 418.95C190.464 417.63 191.484 416.62 192.784 415.92C194.104 415.22 195.604 414.87 197.284 414.87C198.964 414.87 200.454 415.22 201.754 415.92C203.074 416.6 204.094 417.58 204.814 418.86C205.554 420.14 205.924 421.65 205.924 423.39ZM199.174 421.8C199.174 421.24 198.994 420.82 198.634 420.54C198.274 420.24 197.824 420.09 197.284 420.09C196.104 420.09 195.414 420.66 195.214 421.8H199.174ZM212.528 421.35C212.528 419.25 212.948 417.38 213.788 415.74C214.648 414.1 215.868 412.83 217.448 411.93C219.028 411.01 220.888 410.55 223.028 410.55C224.868 410.55 226.508 410.9 227.948 411.6C229.408 412.28 230.588 413.25 231.488 414.51C232.408 415.77 233.018 417.24 233.318 418.92H226.298C225.978 418.22 225.518 417.68 224.918 417.3C224.338 416.9 223.668 416.7 222.908 416.7C221.788 416.7 220.898 417.12 220.238 417.96C219.598 418.8 219.278 419.93 219.278 421.35C219.278 422.77 219.598 423.9 220.238 424.74C220.898 425.58 221.788 426 222.908 426C223.668 426 224.338 425.81 224.918 425.43C225.518 425.03 225.978 424.48 226.298 423.78H233.318C233.018 425.46 232.408 426.93 231.488 428.19C230.588 429.45 229.408 430.43 227.948 431.13C226.508 431.81 224.868 432.15 223.028 432.15C220.888 432.15 219.028 431.7 217.448 430.8C215.868 429.88 214.648 428.6 213.788 426.96C212.948 425.32 212.528 423.45 212.528 421.35ZM242.376 418.2C243.056 417.22 243.886 416.44 244.866 415.86C245.846 415.26 246.866 414.96 247.926 414.96V422.07H246.036C244.776 422.07 243.846 422.29 243.246 422.73C242.666 423.17 242.376 423.95 242.376 425.07V432H235.716V415.08H242.376V418.2ZM257.76 432.21C256.06 432.21 254.53 431.86 253.17 431.16C251.81 430.46 250.74 429.46 249.96 428.16C249.2 426.84 248.82 425.3 248.82 423.54C248.82 421.78 249.2 420.25 249.96 418.95C250.74 417.63 251.81 416.62 253.17 415.92C254.53 415.22 256.06 414.87 257.76 414.87C259.46 414.87 260.99 415.22 262.35 415.92C263.71 416.62 264.77 417.63 265.53 418.95C266.31 420.25 266.7 421.78 266.7 423.54C266.7 425.3 266.31 426.84 265.53 428.16C264.77 429.46 263.71 430.46 262.35 431.16C260.99 431.86 259.46 432.21 257.76 432.21ZM257.76 426.45C258.38 426.45 258.9 426.21 259.32 425.73C259.74 425.23 259.95 424.5 259.95 423.54C259.95 422.58 259.74 421.86 259.32 421.38C258.9 420.88 258.38 420.63 257.76 420.63C257.14 420.63 256.62 420.88 256.2 421.38C255.78 421.86 255.57 422.58 255.57 423.54C255.57 424.5 255.77 425.23 256.17 425.73C256.59 426.21 257.12 426.45 257.76 426.45ZM267.892 423.54C267.892 421.78 268.252 420.25 268.972 418.95C269.712 417.63 270.732 416.62 272.032 415.92C273.352 415.22 274.852 414.87 276.532 414.87C278.732 414.87 280.582 415.49 282.082 416.73C283.602 417.97 284.562 419.69 284.962 421.89H277.912C277.652 421.01 277.142 420.57 276.382 420.57C275.842 420.57 275.412 420.82 275.092 421.32C274.792 421.82 274.642 422.56 274.642 423.54C274.642 424.52 274.792 425.26 275.092 425.76C275.412 426.26 275.842 426.51 276.382 426.51C277.142 426.51 277.652 426.07 277.912 425.19H284.962C284.562 427.39 283.602 429.11 282.082 430.35C280.582 431.59 278.732 432.21 276.532 432.21C274.852 432.21 273.352 431.86 272.032 431.16C270.732 430.46 269.712 429.46 268.972 428.16C268.252 426.84 267.892 425.3 267.892 423.54ZM298.923 414.96C300.863 414.96 302.373 415.61 303.453 416.91C304.553 418.21 305.103 419.97 305.103 422.19V432H298.473V423.03C298.473 422.23 298.253 421.6 297.813 421.14C297.393 420.66 296.823 420.42 296.103 420.42C295.363 420.42 294.783 420.66 294.363 421.14C293.943 421.6 293.733 422.23 293.733 423.03V432H287.073V409.8H293.733V417.66C294.253 416.86 294.943 416.21 295.803 415.71C296.683 415.21 297.723 414.96 298.923 414.96ZM324.371 423.39C324.371 423.85 324.341 424.29 324.281 424.71H313.571C313.671 426.17 314.281 426.9 315.401 426.9C316.121 426.9 316.641 426.57 316.961 425.91H324.011C323.771 427.11 323.261 428.19 322.481 429.15C321.721 430.09 320.751 430.84 319.571 431.4C318.411 431.94 317.131 432.21 315.731 432.21C314.051 432.21 312.551 431.86 311.231 431.16C309.931 430.46 308.911 429.46 308.171 428.16C307.451 426.84 307.091 425.3 307.091 423.54C307.091 421.78 307.451 420.25 308.171 418.95C308.911 417.63 309.931 416.62 311.231 415.92C312.551 415.22 314.051 414.87 315.731 414.87C317.411 414.87 318.901 415.22 320.201 415.92C321.521 416.6 322.541 417.58 323.261 418.86C324.001 420.14 324.371 421.65 324.371 423.39ZM317.621 421.8C317.621 421.24 317.441 420.82 317.081 420.54C316.721 420.24 316.271 420.09 315.731 420.09C314.551 420.09 313.861 420.66 313.661 421.8H317.621ZM337.008 426.33V432H334.488C329.848 432 327.528 429.69 327.528 425.07V420.63H325.428V415.08H327.528V411H334.188V415.08H336.948V420.63H334.188V425.19C334.188 425.59 334.278 425.88 334.458 426.06C334.658 426.24 334.978 426.33 335.418 426.33H337.008Z" fill="#F99430"/>
<path d="M385.933 757.768C384.373 757.976 382.849 758.372 381.376 758.834C379.575 759.399 377.817 760.066 376.151 760.859C374.552 761.62 372.998 762.502 371.673 763.559C370.55 764.455 369.512 765.551 369.113 766.811C368.909 767.457 368.892 768.113 369.057 768.765C369.23 769.45 369.668 770.057 370.193 770.599C371.539 771.986 373.656 772.82 375.633 773.451C380.277 774.932 385.449 774.963 390.356 774.688C395.647 774.391 400.896 773.71 406.196 773.514C408.811 773.417 411.43 773.448 414.031 773.709C414.261 773.732 413.958 773.703 413.933 773.698C414.014 773.713 414.101 773.717 414.184 773.727C414.337 773.745 414.49 773.764 414.643 773.784C414.962 773.825 415.281 773.871 415.598 773.921C416.23 774.021 416.859 774.138 417.481 774.274C418.09 774.408 418.694 774.559 419.288 774.731C419.585 774.818 419.876 774.916 420.17 775.008C419.777 774.886 420.278 775.048 420.371 775.082C420.509 775.134 420.647 775.188 420.783 775.243C421.249 775.432 421.702 775.645 422.128 775.889C422.222 775.943 422.51 776.136 422.152 775.897C422.234 775.952 422.317 776.004 422.397 776.06C422.554 776.169 422.704 776.285 422.845 776.407C422.914 776.467 422.979 776.529 423.045 776.591C423.237 776.771 422.848 776.362 423.016 776.559C423.119 776.681 423.218 776.803 423.302 776.934C423.335 776.986 423.362 777.04 423.395 777.091C423.164 776.74 423.323 776.946 423.368 777.057C423.415 777.172 423.445 777.289 423.476 777.407C423.518 777.565 423.436 777.088 423.451 777.249C423.455 777.281 423.459 777.313 423.462 777.345C423.467 777.398 423.469 777.451 423.469 777.504C423.469 777.568 423.465 777.631 423.459 777.695C423.457 777.716 423.453 777.737 423.451 777.759C423.436 777.919 423.524 777.418 423.469 777.632C423.439 777.75 423.407 777.865 423.36 777.98C423.338 778.032 423.313 778.084 423.29 778.136C423.222 778.289 423.446 777.859 423.357 778.005C423.332 778.046 423.31 778.088 423.284 778.129C423.215 778.24 423.138 778.348 423.055 778.452C423.01 778.509 422.961 778.564 422.914 778.619C422.751 778.809 423.154 778.381 422.92 778.612C422.676 778.854 422.402 779.074 422.111 779.278C422.043 779.325 421.974 779.371 421.905 779.417C421.823 779.472 421.647 779.553 422 779.36C421.954 779.385 421.911 779.414 421.866 779.441C421.697 779.542 421.524 779.639 421.348 779.731C420.953 779.939 420.541 780.125 420.119 780.295C419.904 780.381 419.686 780.461 419.466 780.541C419.231 780.626 419.774 780.438 419.534 780.518C419.492 780.532 419.45 780.546 419.408 780.56C419.26 780.609 419.11 780.656 418.959 780.701C418.465 780.85 417.963 780.981 417.455 781.096C416.89 781.223 416.32 781.33 415.744 781.417C415.458 781.461 415.17 781.501 414.882 781.535C414.829 781.542 414.776 781.548 414.722 781.554C414.43 781.588 415.045 781.522 414.751 781.551C414.588 781.567 414.425 781.583 414.262 781.597C412.952 781.709 411.63 781.733 410.315 781.673C410.016 781.66 409.717 781.642 409.418 781.62C409.237 781.606 409.056 781.591 408.876 781.574C408.785 781.566 408.694 781.557 408.603 781.548C408.505 781.538 408.238 781.552 408.588 781.547C408.25 781.552 407.864 781.455 407.531 781.41C407.099 781.352 406.667 781.298 406.234 781.246C404.531 781.042 402.822 780.876 401.11 780.734C397.846 780.464 394.572 780.277 391.307 780.013C388.024 779.748 384.758 779.31 381.471 779.803C379.954 780.031 378.165 780.462 377.384 781.653C376.584 782.873 376.972 784.352 378.041 785.374C378.985 786.277 380.448 786.747 381.842 786.976C382.515 787.086 383.296 786.818 383.462 786.228C383.611 785.694 383.264 785.029 382.542 784.91C382.224 784.858 381.908 784.796 381.598 784.718C381.443 784.678 381.292 784.63 381.139 784.587C380.958 784.535 381.436 784.702 381.169 784.598C381.064 784.556 380.958 784.517 380.855 784.472C380.726 784.417 380.601 784.357 380.479 784.292C380.441 784.272 380.279 784.206 380.266 784.171C380.309 784.198 380.352 784.225 380.395 784.252C380.362 784.229 380.328 784.207 380.296 784.183C380.175 784.097 380.069 784.001 379.955 783.909C379.762 783.754 380.085 784.068 379.986 783.947C379.933 783.883 379.879 783.821 379.83 783.755C379.789 783.698 379.754 783.639 379.715 783.581C379.58 783.385 379.792 783.765 379.734 783.625C379.687 783.51 379.638 783.398 379.605 783.279C379.596 783.246 379.566 783.036 379.587 783.229C379.609 783.426 379.588 783.208 379.587 783.178C379.582 783.114 379.582 783.05 379.585 782.985C379.587 782.943 379.59 782.9 379.595 782.858C379.564 783.027 379.558 783.069 379.576 782.985C379.605 782.887 379.689 782.748 379.692 782.651C379.687 782.82 379.591 782.832 379.677 782.706C379.69 782.688 379.787 782.581 379.781 782.57C379.746 782.606 379.711 782.643 379.676 782.679C379.712 782.643 379.75 782.608 379.79 782.575C379.839 782.533 379.895 782.497 379.946 782.456C380.073 782.352 379.674 782.595 379.917 782.475C380.015 782.426 380.11 782.374 380.212 782.329C380.276 782.301 380.343 782.278 380.407 782.25C380.574 782.178 380.097 782.342 380.374 782.26C380.526 782.216 380.676 782.171 380.83 782.133C381.204 782.039 381.584 781.964 381.967 781.901C382.154 781.871 382.342 781.844 382.53 781.82C382.608 781.81 382.85 781.778 382.54 781.816C382.642 781.803 382.746 781.795 382.849 781.786C383.246 781.751 383.645 781.728 384.044 781.716C385.6 781.669 387.156 781.78 388.7 781.926C391.959 782.235 395.23 782.438 398.498 782.675C400.095 782.791 401.691 782.917 403.283 783.071C403.681 783.109 404.079 783.149 404.476 783.191C404.528 783.197 404.894 783.233 404.56 783.2C404.632 783.207 404.704 783.216 404.776 783.224C405.029 783.252 405.282 783.282 405.534 783.312C406.29 783.402 407.041 783.514 407.797 783.602C410.526 783.92 413.255 783.919 415.977 783.551C418.142 783.258 420.314 782.709 422.219 781.809C423.759 781.082 425.168 780.081 425.829 778.706C426.466 777.379 425.908 775.975 424.776 774.954C424.126 774.368 423.287 773.903 422.436 773.531C421.271 773.022 420.013 772.642 418.746 772.339C416.24 771.739 413.619 771.455 411.014 771.358C405.776 771.163 400.55 771.73 395.352 772.177C392.771 772.399 390.184 772.599 387.589 772.659C386.372 772.687 385.154 772.684 383.939 772.632C383.319 772.605 382.7 772.566 382.083 772.512C381.95 772.5 381.817 772.488 381.685 772.475C381.605 772.467 381.526 772.459 381.447 772.451C381.168 772.422 381.707 772.481 381.52 772.458C381.219 772.423 380.919 772.386 380.619 772.344C379.463 772.18 378.319 771.953 377.208 771.646C376.938 771.572 376.67 771.492 376.405 771.409C376.284 771.371 376.164 771.331 376.044 771.292C375.78 771.206 376.332 771.395 376.072 771.302C375.997 771.275 375.922 771.249 375.847 771.222C375.318 771.03 374.798 770.821 374.296 770.587C373.867 770.386 373.463 770.162 373.063 769.926C373.436 770.147 373.138 769.971 373.052 769.913C372.965 769.854 372.879 769.793 372.795 769.731C372.65 769.624 372.51 769.512 372.377 769.395C372.308 769.334 372.242 769.272 372.177 769.209C372.156 769.189 372.136 769.168 372.115 769.147C371.976 769.014 372.324 769.381 372.203 769.24C372.097 769.116 371.991 768.994 371.899 768.863C371.826 768.761 371.769 768.652 371.702 768.547C371.933 768.906 371.772 768.687 371.726 768.581C371.699 768.517 371.674 768.454 371.652 768.389C371.613 768.272 371.59 768.155 371.561 768.037C371.672 768.492 371.572 768.076 371.57 767.935C371.568 767.816 371.578 767.699 371.59 767.58C371.614 767.357 371.526 767.888 371.576 767.672C371.593 767.596 371.61 767.521 371.632 767.446C371.664 767.337 371.702 767.229 371.746 767.123C371.773 767.058 371.803 766.994 371.833 766.93C371.93 766.72 371.672 767.22 371.817 766.961C371.954 766.717 372.117 766.483 372.297 766.259C372.393 766.141 372.494 766.026 372.596 765.911C372.772 765.715 372.372 766.14 372.584 765.924C372.652 765.855 372.72 765.788 372.79 765.721C373.037 765.485 373.3 765.26 373.572 765.044C373.861 764.816 374.162 764.597 374.471 764.387C374.632 764.277 374.795 764.171 374.959 764.066C375.144 763.948 374.687 764.235 374.876 764.119C374.914 764.095 374.953 764.071 374.992 764.047C375.093 763.985 375.195 763.923 375.298 763.863C376.768 762.995 378.36 762.262 379.999 761.628C380.414 761.468 380.833 761.316 381.255 761.168C381.344 761.136 381.517 761.081 381.135 761.209C381.191 761.19 381.246 761.171 381.302 761.152C381.394 761.121 381.486 761.09 381.579 761.06C381.798 760.988 382.019 760.918 382.24 760.85C383.02 760.609 383.812 760.391 384.616 760.207C385.28 760.055 385.952 759.925 386.632 759.835C387.314 759.744 387.755 759.027 387.552 758.517C387.314 757.916 386.664 757.671 385.933 757.768Z" fill="#3D84D1"/>
<path d="M442 760.204C458.569 746.728 458.569 724.878 442 711.401C425.431 697.925 398.569 697.925 382 711.401C365.431 724.878 365.431 746.728 382 760.204C398.569 773.681 425.431 773.681 442 760.204Z" fill="#56BBE8"/>
<path d="M431.009 704.944C437.566 711.019 441.543 718.981 441.543 727.7C441.543 746.759 422.548 762.209 399.117 762.209C392.283 762.209 385.829 760.893 380.111 758.559C387.887 765.763 399.292 770.312 412.004 770.312C435.436 770.312 454.431 754.862 454.431 735.803C454.431 722.302 444.898 710.614 431.009 704.944Z" fill="#50B1D3"/>
<path d="M376.182 749.037C377.187 747.142 378.367 745.311 379.705 743.558C380.371 742.684 381.076 741.829 381.814 740.995C382.183 740.577 382.562 740.165 382.948 739.757C382.761 739.954 383.051 739.65 383.098 739.601C383.196 739.5 383.294 739.399 383.393 739.298C383.591 739.097 383.79 738.897 383.992 738.699C387.241 735.495 390.973 732.627 394.985 730.063C395.097 729.992 395.21 729.92 395.322 729.849C395.515 729.726 395.346 729.833 395.309 729.856C395.38 729.812 395.451 729.768 395.522 729.724C395.79 729.556 396.061 729.39 396.332 729.224C396.847 728.912 397.366 728.603 397.889 728.3C398.934 727.692 399.996 727.103 401.072 726.531C403.227 725.386 405.438 724.311 407.692 723.3C410.243 722.156 412.851 721.095 415.518 720.142C415.833 720.029 416.149 719.918 416.466 719.808C416.704 719.726 416.537 719.784 416.487 719.801C416.58 719.769 416.674 719.737 416.767 719.706C416.954 719.642 417.142 719.58 417.329 719.517C418.004 719.294 418.682 719.077 419.363 718.869C420.724 718.452 422.098 718.066 423.487 717.715C426.229 717.022 429.025 716.464 431.858 716.078C432.214 716.029 432.57 715.984 432.926 715.94C433.085 715.921 433.243 715.903 433.402 715.885C433.784 715.84 433.235 715.901 433.468 715.877C433.567 715.866 433.666 715.856 433.766 715.846C434.48 715.772 435.197 715.71 435.914 715.66C437.351 715.559 438.794 715.506 440.236 715.505C440.96 715.504 441.684 715.517 442.407 715.542C443.096 715.565 443.754 715.033 443.723 714.471C443.69 713.87 443.145 713.425 442.407 713.4C436.499 713.197 430.564 713.871 424.874 715.151C419.135 716.442 413.606 718.342 408.337 720.587C403.658 722.581 399.146 724.85 394.918 727.428C390.709 729.994 386.76 732.846 383.294 736.07C379.888 739.238 376.925 742.739 374.697 746.542C374.423 747.01 374.161 747.481 373.909 747.957C373.637 748.47 373.7 749.129 374.381 749.422C374.948 749.665 375.891 749.587 376.182 749.037Z" fill="#3D84D1"/>
<path d="M379.106 752.844C380.189 751.034 381.494 749.317 382.975 747.705C383.063 747.61 383.153 747.514 383.242 747.419C383.391 747.258 383.268 747.391 383.238 747.422C383.283 747.375 383.328 747.328 383.373 747.281C383.577 747.069 383.785 746.858 383.995 746.65C384.38 746.267 384.775 745.891 385.178 745.521C385.999 744.765 386.855 744.036 387.739 743.329C389.509 741.911 391.389 740.586 393.333 739.33C393.583 739.168 393.834 739.007 394.086 738.848C394.146 738.81 394.205 738.773 394.265 738.735C394.225 738.76 394.068 738.858 394.266 738.735C394.4 738.651 394.535 738.567 394.67 738.484C395.164 738.178 395.662 737.877 396.163 737.578C397.18 736.972 398.21 736.38 399.249 735.798C403.758 733.271 408.384 730.856 413.12 728.621C415.614 727.443 418.153 726.325 420.751 725.304C421.41 725.045 422.072 724.793 422.739 724.547C423.052 724.431 423.367 724.317 423.682 724.204C423.84 724.148 423.998 724.092 424.156 724.036C424.235 724.009 424.314 723.981 424.393 723.953C424.419 723.944 424.721 723.84 424.592 723.884C424.459 723.93 424.704 723.846 424.731 723.837C424.81 723.81 424.889 723.783 424.968 723.757C425.127 723.703 425.286 723.65 425.445 723.598C425.783 723.487 426.121 723.377 426.461 723.27C427.141 723.054 427.826 722.847 428.513 722.649C431.202 721.873 433.951 721.231 436.744 720.76C437.457 720.64 438.172 720.53 438.89 720.433C439.228 720.388 439.566 720.345 439.904 720.304C439.989 720.294 440.073 720.284 440.158 720.275C440.191 720.271 440.456 720.241 440.301 720.258C440.146 720.275 440.41 720.247 440.444 720.243C440.55 720.232 440.656 720.221 440.762 720.21C442.183 720.069 443.612 719.977 445.044 719.938C445.75 719.919 446.456 719.914 447.162 719.921C447.851 719.928 448.51 719.424 448.479 718.85C448.446 718.264 447.9 717.786 447.162 717.779C441.284 717.721 435.415 718.577 429.827 720.031C424.23 721.487 418.881 723.533 413.756 725.86C408.823 728.1 404.048 730.581 399.364 733.148C395.104 735.482 390.936 737.965 387.167 740.811C383.468 743.603 380.141 746.788 377.702 750.395C377.397 750.844 377.108 751.301 376.832 751.762C376.531 752.265 376.643 752.943 377.304 753.228C377.896 753.482 378.785 753.382 379.106 752.844Z" fill="#3D84D1"/>
<path d="M382.608 756.983C383.635 755.163 384.901 753.438 386.354 751.821C386.53 751.625 386.709 751.431 386.89 751.238C386.902 751.226 387.016 751.105 386.924 751.202C386.824 751.306 386.97 751.154 386.993 751.13C387.097 751.023 387.201 750.916 387.307 750.809C387.693 750.418 388.09 750.034 388.496 749.656C389.309 748.899 390.16 748.169 391.043 747.465C391.912 746.771 392.811 746.101 393.735 745.456C394.221 745.116 394.714 744.784 395.212 744.457C395.455 744.298 395.699 744.141 395.944 743.985C396.009 743.944 396.075 743.902 396.14 743.861C396.308 743.755 396 743.947 396.169 743.843C396.318 743.751 396.466 743.658 396.615 743.567C398.8 742.226 401.079 740.988 403.404 739.813C407.976 737.505 412.703 735.381 417.45 733.321C419.815 732.295 422.203 731.304 424.628 730.377C425.819 729.921 427.02 729.482 428.23 729.063C428.262 729.052 428.495 728.971 428.352 729.021C428.209 729.07 428.442 728.99 428.474 728.979C428.623 728.928 428.772 728.878 428.921 728.828C429.238 728.721 429.556 728.616 429.875 728.513C430.492 728.313 431.112 728.118 431.734 727.929C434.193 727.185 436.697 726.538 439.245 726.027C440.524 725.771 441.812 725.549 443.11 725.367C443.425 725.322 443.74 725.28 444.056 725.241C444.214 725.221 444.372 725.202 444.53 725.183C444.609 725.174 444.688 725.165 444.767 725.156C444.889 725.141 444.905 725.14 444.774 725.154C445.448 725.081 446.125 725.02 446.803 724.97C447.443 724.922 448.085 724.886 448.727 724.859C449.414 724.831 450.076 724.387 450.044 723.788C450.013 723.233 449.464 722.686 448.727 722.717C443.327 722.943 438.012 723.894 432.906 725.319C427.747 726.759 422.786 728.641 417.953 730.686C413.12 732.732 408.338 734.889 403.669 737.172C399.001 739.456 394.463 741.969 390.444 744.974C386.757 747.731 383.48 750.935 381.147 754.553C380.861 754.997 380.59 755.447 380.334 755.903C380.047 756.411 380.135 757.08 380.806 757.368C381.386 757.616 382.301 757.527 382.608 756.983Z" fill="#3D84D1"/>
<path d="M386.014 760.569C386.99 758.772 388.234 757.081 389.68 755.51C389.725 755.461 389.77 755.413 389.815 755.364C389.838 755.34 389.982 755.187 389.883 755.291C389.785 755.396 389.929 755.243 389.952 755.219C389.987 755.183 390.022 755.147 390.057 755.112C390.254 754.908 390.455 754.707 390.659 754.508C391.055 754.121 391.463 753.742 391.881 753.37C392.693 752.649 393.544 751.957 394.427 751.293C395.335 750.61 396.277 749.957 397.245 749.33C397.375 749.246 397.505 749.162 397.636 749.079C397.701 749.038 397.767 748.996 397.833 748.955C397.788 748.982 397.656 749.064 397.862 748.937C398.126 748.774 398.391 748.611 398.659 748.451C399.193 748.13 399.733 747.816 400.279 747.509C402.5 746.258 404.808 745.112 407.151 744.019C411.719 741.89 416.387 739.884 421.149 738.058C422.35 737.597 423.559 737.149 424.775 736.716C425.056 736.616 425.337 736.517 425.618 736.419C425.749 736.373 425.881 736.327 426.012 736.282C426.087 736.256 426.162 736.23 426.237 736.204C425.992 736.288 426.358 736.163 426.374 736.158C426.976 735.953 427.579 735.752 428.185 735.556C430.6 734.772 433.049 734.055 435.532 733.424C438.021 732.791 440.545 732.245 443.098 731.807C444.383 731.587 445.674 731.394 446.972 731.232C447.272 731.194 447.571 731.158 447.872 731.124C447.952 731.115 448.032 731.106 448.112 731.097C448.323 731.072 447.911 731.117 448.123 731.096C448.303 731.077 448.484 731.057 448.664 731.039C449.308 730.975 449.952 730.918 450.597 730.869C451.244 730.82 451.891 730.78 452.539 730.746C453.225 730.711 453.889 730.279 453.856 729.675C453.826 729.125 453.275 728.566 452.539 728.604C447.192 728.88 441.897 729.684 436.752 730.889C431.578 732.1 426.553 733.705 421.656 735.516C416.815 737.307 412.094 739.312 407.451 741.42C402.686 743.585 398.018 745.933 393.868 748.833C390.118 751.455 386.786 754.579 384.513 758.169C384.239 758.602 383.982 759.042 383.74 759.487C383.463 759.998 383.536 760.662 384.213 760.952C384.785 761.198 385.717 761.116 386.014 760.569Z" fill="#3D84D1"/>
<path d="M376.081 741.942C375.738 740.857 375.442 739.762 375.197 738.659C375.071 738.094 374.958 737.526 374.858 736.957C374.848 736.901 374.838 736.844 374.828 736.787C374.777 736.497 374.865 737.02 374.819 736.73C374.801 736.616 374.782 736.502 374.765 736.388C374.719 736.088 374.678 735.788 374.639 735.488C374.352 733.245 374.266 730.984 374.383 728.731C374.449 727.467 374.58 726.207 374.772 724.952C374.811 724.699 374.597 724.366 374.386 724.194C374.158 724.009 373.783 723.869 373.455 723.881C373.115 723.893 372.762 723.984 372.524 724.194C372.272 724.418 372.184 724.653 372.139 724.952C371.438 729.531 371.6 734.171 372.548 738.719C372.813 739.994 373.146 741.259 373.542 742.512C373.713 743.055 374.493 743.436 375.162 743.26C375.85 743.079 376.265 742.524 376.081 741.942Z" fill="#3D84D1"/>
<path d="M380.746 736.805C380.561 736.11 380.394 735.412 380.248 734.711C380.184 734.403 380.124 734.094 380.068 733.784C380.037 733.616 380.002 733.447 379.979 733.277C380.018 733.56 379.978 733.271 379.97 733.224C379.952 733.111 379.935 732.998 379.918 732.885C379.711 731.502 379.581 730.111 379.528 728.718C379.476 727.353 379.497 725.987 379.593 724.624C379.643 723.914 379.713 723.205 379.802 722.497C379.842 722.186 379.885 721.875 379.933 721.565C379.945 721.48 379.959 721.396 379.972 721.311C379.98 721.263 380.02 720.975 379.981 721.258C380.008 721.06 380.049 720.863 380.085 720.666C380.371 719.119 380.755 717.585 381.232 716.069C381.402 715.527 381.014 714.882 380.312 714.752C379.627 714.625 378.875 714.919 378.692 715.5C376.955 721.017 376.441 726.801 377.224 732.462C377.452 734.111 377.775 735.752 378.207 737.375C378.354 737.923 379.176 738.294 379.827 738.123C380.536 737.936 380.903 737.393 380.746 736.805Z" fill="#3D84D1"/>
<path d="M386.247 732.184C385.798 729.282 385.644 726.352 385.787 723.429C385.859 721.968 386.005 720.51 386.223 719.059C386.249 718.89 386.276 718.721 386.303 718.552C386.323 718.426 386.291 718.617 386.291 718.625C386.294 718.583 386.305 718.54 386.312 718.499C386.331 718.386 386.351 718.274 386.371 718.162C386.434 717.81 386.501 717.46 386.572 717.11C386.721 716.382 386.888 715.656 387.073 714.933C387.488 713.321 387.996 711.726 388.592 710.152C388.795 709.617 388.351 708.96 387.672 708.835C386.959 708.703 386.27 709.009 386.052 709.583C384.975 712.425 384.201 715.335 383.714 718.283C383.224 721.244 383.019 724.232 383.133 727.219C383.197 728.879 383.358 730.536 383.613 732.184C383.659 732.479 383.73 732.723 383.999 732.941C384.227 733.127 384.602 733.267 384.93 733.255C385.57 733.232 386.339 732.779 386.247 732.184Z" fill="#3D84D1"/>
<path d="M392.314 727.674C392.156 724.936 392.237 722.189 392.561 719.46C392.642 718.779 392.726 718.095 392.848 717.418C392.803 717.668 392.84 717.468 392.851 717.406C392.863 717.335 392.875 717.264 392.887 717.193C392.917 717.024 392.947 716.854 392.979 716.685C393.041 716.346 393.108 716.008 393.178 715.67C393.459 714.318 393.799 712.975 394.198 711.644C394.647 710.145 395.171 708.662 395.766 707.198C395.982 706.666 395.516 706.005 394.846 705.881C394.121 705.747 393.458 706.059 393.227 706.629C391.075 711.923 389.871 717.478 389.641 723.05C389.577 724.591 389.591 726.134 389.68 727.674C389.712 728.233 390.263 728.772 390.997 728.745C391.683 728.72 392.348 728.274 392.314 727.674Z" fill="#3D84D1"/>
<path d="M414.319 743.166C417.768 744.129 421.502 744.474 425.128 744.153C425.487 744.121 425.794 744.055 426.059 743.84C426.287 743.654 426.459 743.349 426.445 743.082C426.415 742.554 425.861 741.946 425.128 742.011C423.386 742.166 421.627 742.168 419.885 742.013C419.783 742.004 419.68 741.994 419.578 741.984C419.51 741.977 419.442 741.97 419.374 741.963C419.423 741.968 419.471 741.974 419.52 741.979C419.299 741.963 419.076 741.926 418.858 741.896C418.435 741.838 418.013 741.771 417.594 741.695C416.723 741.536 415.864 741.337 415.019 741.101C414.367 740.919 413.551 741.309 413.399 741.849C413.233 742.444 413.621 742.972 414.319 743.166Z" fill="#3D84D1"/>
<path d="M407.87 745.201C409.582 746.501 412.02 746.858 414.241 747.21C416.73 747.604 419.258 747.86 421.79 747.967C423.169 748.026 424.55 748.038 425.93 748.008C426.618 747.993 427.279 747.526 427.246 746.937C427.215 746.37 426.667 745.85 425.93 745.866C423.564 745.918 421.195 745.841 418.843 745.631C418.558 745.606 418.273 745.578 417.988 745.549C417.902 745.54 417.485 745.501 417.805 745.53C417.645 745.515 417.486 745.494 417.326 745.475C416.741 745.405 416.157 745.327 415.575 745.241C414.459 745.076 413.341 744.891 412.244 744.652C411.982 744.595 411.722 744.533 411.465 744.463C411.337 744.428 411.209 744.391 411.083 744.352C411.027 744.335 410.972 744.316 410.916 744.299C410.762 744.251 411.164 744.392 410.943 744.306C410.702 744.213 410.465 744.116 410.238 744.001C410.118 743.94 410 743.847 409.873 743.798C409.906 743.811 410.098 743.955 409.931 743.831C409.865 743.782 409.797 743.735 409.732 743.686C409.228 743.303 408.362 743.249 407.87 743.686C407.401 744.102 407.332 744.792 407.87 745.201Z" fill="#3D84D1"/>
<path d="M404.238 748.459C410.364 750.491 416.996 751.533 423.61 751.542C425.449 751.544 427.286 751.463 429.114 751.302C429.474 751.27 429.781 751.204 430.045 750.989C430.274 750.803 430.446 750.498 430.431 750.231C430.402 749.703 429.848 749.096 429.114 749.16C425.898 749.444 422.651 749.475 419.428 749.253C419.021 749.225 418.614 749.193 418.208 749.157C418.022 749.141 417.836 749.123 417.65 749.105C417.565 749.097 417.481 749.089 417.396 749.08C417.328 749.073 416.871 749.026 417.24 749.065C416.43 748.98 415.623 748.87 414.82 748.749C413.247 748.513 411.687 748.216 410.148 747.859C408.38 747.449 406.641 746.959 404.939 746.394C404.644 746.296 404.186 746.377 403.924 746.502C403.651 746.632 403.39 746.887 403.319 747.142C403.242 747.416 403.258 747.724 403.452 747.967C403.649 748.217 403.903 748.348 404.238 748.459Z" fill="#3D84D1"/>
<path d="M397.275 751.765C398.642 753.102 400.752 753.743 402.756 754.184C405.028 754.685 407.339 755.076 409.662 755.381C414.416 756.003 419.237 756.263 424.05 756.113C426.815 756.027 429.569 755.803 432.305 755.467C432.609 755.429 432.943 755.18 433.091 754.974C433.257 754.745 433.327 754.407 433.224 754.149C432.983 753.543 432.337 753.311 431.604 753.401C431.325 753.435 431.046 753.469 430.766 753.5C430.696 753.508 430.626 753.518 430.556 753.524C430.601 753.52 430.841 753.494 430.591 753.52C430.434 753.537 430.276 753.554 430.119 753.57C429.541 753.628 428.962 753.681 428.382 753.728C427.223 753.823 426.061 753.893 424.897 753.941C422.587 754.035 420.272 754.037 417.962 753.948C416.798 753.903 415.636 753.835 414.476 753.744C413.896 753.698 413.317 753.647 412.739 753.59C412.598 753.576 412.458 753.562 412.318 753.547C412.231 753.538 411.816 753.497 412.143 753.53C411.863 753.501 411.583 753.467 411.304 753.433C408.999 753.157 406.71 752.788 404.45 752.328C403.907 752.217 403.363 752.104 402.826 751.974C402.56 751.909 402.296 751.84 402.034 751.766C401.91 751.731 401.786 751.694 401.664 751.656C401.61 751.639 401.555 751.622 401.501 751.604C401.461 751.591 401.42 751.578 401.38 751.564C401.288 751.534 401.326 751.547 401.494 751.604C401.437 751.618 401.242 751.511 401.179 751.487C401.049 751.437 400.921 751.384 400.794 751.329C400.568 751.231 400.347 751.124 400.134 751.007C400.087 750.981 400.041 750.955 399.994 750.928C399.96 750.908 399.925 750.888 399.891 750.867C399.813 750.819 399.845 750.84 399.989 750.93C399.966 750.94 399.764 750.777 399.73 750.752C399.516 750.597 399.32 750.429 399.137 750.251C398.695 749.818 397.726 749.851 397.275 750.251C396.756 750.71 396.803 751.304 397.275 751.765Z" fill="#3D84D1"/>
<path d="M392.689 755.301C396.878 757.392 401.61 758.715 406.429 759.438C411.607 760.215 416.887 760.343 422.136 760.161C425.156 760.057 428.17 759.855 431.179 759.633C431.863 759.583 432.53 759.177 432.496 758.562C432.466 758.025 431.914 757.437 431.179 757.491C425.896 757.881 420.589 758.208 415.279 758.057C413.962 758.019 412.646 757.953 411.333 757.85C410.726 757.802 410.121 757.747 409.516 757.683C409.452 757.676 409.385 757.666 409.32 757.662C409.359 757.665 409.62 757.696 409.376 757.668C409.246 757.653 409.115 757.638 408.984 757.622C408.658 757.583 408.332 757.542 408.007 757.498C405.668 757.182 403.354 756.733 401.104 756.123C400.466 755.95 399.833 755.763 399.206 755.563C399.038 755.51 398.871 755.455 398.704 755.4C398.643 755.38 398.583 755.359 398.522 755.339C398.267 755.253 398.75 755.42 398.474 755.322C398.173 755.216 397.873 755.109 397.575 754.998C396.353 754.54 395.165 754.024 394.018 753.451C393.43 753.157 392.543 753.331 392.216 753.835C391.877 754.358 392.062 754.987 392.689 755.301Z" fill="#3D84D1"/>
<path d="M389.901 759.187C394.775 760.839 399.703 762.506 404.913 763.319C407.676 763.75 410.477 763.92 413.288 763.847C416.17 763.771 419.034 763.479 421.889 763.166C425.038 762.821 428.184 762.462 431.331 762.11C431.633 762.076 431.972 761.821 432.118 761.618C432.283 761.388 432.353 761.05 432.251 760.793C432.147 760.533 431.95 760.283 431.646 760.153C431.31 760.008 431.003 760.003 430.631 760.045C427.846 760.356 425.062 760.669 422.278 760.98C421.951 761.016 421.625 761.052 421.298 761.088C421.045 761.116 421.274 761.091 421.321 761.086C421.231 761.096 421.14 761.105 421.049 761.115C420.849 761.137 420.649 761.158 420.449 761.179C419.759 761.252 419.067 761.322 418.375 761.385C417.011 761.51 415.644 761.612 414.273 761.67C412.907 761.728 411.537 761.742 410.169 761.691C409.486 761.666 408.803 761.625 408.123 761.565C407.952 761.55 407.78 761.534 407.609 761.517C407.547 761.51 407.46 761.511 407.404 761.496C407.643 761.561 407.539 761.511 407.447 761.5C407.106 761.46 406.765 761.419 406.425 761.372C403.84 761.017 401.309 760.436 398.832 759.743C396.044 758.963 393.321 758.043 390.601 757.121C390.308 757.022 389.845 757.105 389.586 757.229C389.313 757.359 389.052 757.614 388.981 757.869C388.904 758.143 388.92 758.451 389.113 758.694C389.312 758.945 389.565 759.073 389.901 759.187Z" fill="#3D84D1"/>
<path d="M386.968 762.672C392.291 764.907 398.067 766.412 403.995 767.11C410 767.816 416.083 767.754 422.057 766.885C425.305 766.413 428.495 765.693 431.575 764.731C431.904 764.629 432.178 764.495 432.362 764.239C432.527 764.01 432.597 763.671 432.495 763.414C432.292 762.906 431.563 762.451 430.875 762.666C428.147 763.518 425.333 764.18 422.468 764.648C421.76 764.764 421.049 764.868 420.335 764.96C419.994 765.004 419.652 765.045 419.31 765.084C419.237 765.092 418.919 765.142 419.287 765.087C419.195 765.101 419.1 765.107 419.007 765.116C418.82 765.135 418.632 765.154 418.445 765.172C417.01 765.307 415.567 765.395 414.123 765.437C411.202 765.521 408.273 765.415 405.373 765.119C405.279 765.109 404.767 765.063 405.162 765.098C404.975 765.081 404.789 765.056 404.602 765.033C404.229 764.989 403.857 764.941 403.485 764.891C402.772 764.794 402.062 764.685 401.355 764.564C399.94 764.324 398.538 764.037 397.152 763.705C395.586 763.329 394.041 762.895 392.524 762.402C392.349 762.345 392.175 762.288 392.001 762.229C391.913 762.2 391.826 762.171 391.739 762.141C391.606 762.096 391.624 762.102 391.793 762.16C391.736 762.14 391.678 762.12 391.62 762.1C391.245 761.969 390.872 761.834 390.5 761.696C389.757 761.419 389.023 761.128 388.297 760.823C387.685 760.566 386.839 760.677 386.496 761.207C386.177 761.698 386.314 762.397 386.968 762.672Z" fill="#3D84D1"/>
<path d="M393.61 724.921C394.07 724.928 394.528 724.957 394.985 725.005C394.868 724.993 394.751 724.98 394.635 724.967C395.351 725.047 396.056 725.177 396.744 725.358C397.4 725.53 398.211 725.157 398.364 724.61C398.528 724.023 398.147 723.476 397.445 723.292C396.211 722.969 394.906 722.8 393.61 722.779C392.921 722.767 392.262 723.279 392.294 723.85C392.326 724.44 392.872 724.908 393.61 724.921Z" fill="#3D84D1"/>
<path d="M394.085 721.776C394.738 721.809 395.39 721.856 396.04 721.92C396.128 721.928 396.216 721.938 396.304 721.946C396.563 721.972 396.155 721.928 396.322 721.948C396.479 721.968 396.637 721.985 396.794 722.005C397.127 722.047 397.458 722.093 397.789 722.144C399.093 722.342 400.381 722.607 401.647 722.931C402.305 723.1 403.113 722.733 403.267 722.183C403.43 721.6 403.051 721.046 402.348 720.866C399.67 720.179 396.887 719.775 394.085 719.634C393.396 719.6 392.738 720.152 392.768 720.706C392.802 721.315 393.347 721.74 394.085 721.776Z" fill="#3D84D1"/>
<path d="M395.672 717.623C396.176 717.654 396.68 717.692 397.182 717.739C397.442 717.763 397.702 717.787 397.962 717.817C397.733 717.791 397.889 717.809 398.026 717.825C398.164 717.841 398.302 717.858 398.44 717.875C399.405 717.996 400.366 718.145 401.318 718.323C403.257 718.683 405.16 719.161 407.014 719.747C407.658 719.95 408.487 719.524 408.634 718.999C408.806 718.385 408.403 717.899 407.714 717.681C403.859 716.463 399.794 715.738 395.672 715.481C394.984 715.438 394.325 716.004 394.355 716.552C394.389 717.169 394.935 717.577 395.672 717.623Z" fill="#3D84D1"/>
<path d="M396.455 713.758C397.063 713.724 397.672 713.712 398.282 713.728C398.568 713.736 398.854 713.749 399.14 713.768C399.283 713.778 399.425 713.789 399.568 713.801C399.639 713.807 399.711 713.814 399.782 713.821C400.042 713.844 399.639 713.802 399.805 713.822C400.939 713.96 402.052 714.173 403.145 714.454C403.7 714.597 404.248 714.755 404.791 714.924C405.048 715.004 405.303 715.086 405.557 715.171C405.684 715.213 405.814 715.252 405.938 715.299C405.898 715.284 405.684 715.211 405.908 715.289C405.987 715.317 406.066 715.344 406.145 715.372C407.201 715.745 408.243 716.145 409.282 716.547C410.522 717.027 411.762 717.507 413.002 717.986C413.623 718.227 414.452 718.143 414.803 717.602C415.113 717.125 414.995 716.394 414.331 716.137C412.13 715.285 409.942 714.403 407.71 713.606C405.51 712.82 403.245 712.114 400.862 711.801C399.402 711.608 397.932 711.533 396.455 711.616C395.769 711.655 395.105 712.081 395.139 712.687C395.169 713.234 395.719 713.8 396.455 713.758Z" fill="#3D84D1"/>
<path d="M397.727 709.651C398.536 709.627 399.366 709.647 400.167 709.749C399.826 709.706 400.182 709.753 400.238 709.76C400.344 709.773 400.449 709.787 400.554 709.801C400.729 709.825 400.904 709.851 401.079 709.879C401.499 709.945 401.917 710.021 402.333 710.103C403.887 710.408 405.423 710.78 406.96 711.14C408.45 711.489 409.936 711.849 411.409 712.245C412.111 712.434 412.811 712.631 413.506 712.839C414.221 713.053 414.979 713.25 415.662 713.527C415.361 713.405 415.661 713.528 415.717 713.547C415.84 713.59 415.963 713.634 416.086 713.678C416.27 713.744 416.453 713.811 416.636 713.879C417.032 714.026 417.425 714.179 417.815 714.337C418.595 714.654 419.361 714.994 420.11 715.358C420.702 715.645 421.582 715.482 421.912 714.974C422.248 714.456 422.071 713.815 421.439 713.508C418.69 712.174 415.709 711.172 412.683 710.336C409.685 709.508 406.621 708.781 403.553 708.142C401.656 707.748 399.692 707.451 397.727 707.509C397.04 707.529 396.378 707.987 396.41 708.58C396.441 709.143 396.989 709.672 397.727 709.651Z" fill="#3D84D1"/>
<path d="M400.594 705.568C401.054 705.606 401.513 705.649 401.972 705.697C402.036 705.704 402.099 705.711 402.162 705.717C402.315 705.733 402.051 705.705 402.049 705.705C402.158 705.723 402.271 705.73 402.381 705.743C402.618 705.77 402.855 705.799 403.091 705.829C404.02 705.948 404.946 706.088 405.867 706.247C407.677 706.56 409.467 706.95 411.227 707.413C412.122 707.649 413.01 707.904 413.889 708.177C414.321 708.312 414.751 708.451 415.179 708.594C415.279 708.628 415.384 708.675 415.488 708.699C415.484 708.698 415.257 708.619 415.394 708.667C415.453 708.687 415.512 708.707 415.57 708.728C415.79 708.804 416.01 708.882 416.228 708.962C417.919 709.574 419.571 710.256 421.175 711.007C423 711.861 424.761 712.805 426.449 713.829C426.705 713.984 427.17 714.002 427.463 713.937C427.769 713.868 428.1 713.677 428.25 713.445C428.615 712.883 428.37 712.338 427.778 711.979C424.76 710.147 421.505 708.579 418.081 707.304C414.567 705.996 410.9 704.968 407.128 704.281C404.973 703.889 402.789 703.609 400.593 703.426C399.906 703.369 399.247 703.959 399.277 704.497C399.312 705.126 399.857 705.506 400.594 705.568Z" fill="#3D84D1"/>
<path d="M411.655 703.767C415.138 704.356 418.556 705.195 421.858 706.273C422.051 706.336 422.244 706.4 422.437 706.465C422.535 706.498 422.645 706.551 422.748 706.57C422.743 706.569 422.517 706.49 422.655 706.538C422.714 706.558 422.773 706.579 422.832 706.599C423.244 706.743 423.655 706.89 424.063 707.041C424.866 707.338 425.66 707.648 426.446 707.973C428.032 708.628 429.583 709.34 431.092 710.106C432.791 710.968 434.437 711.9 436.023 712.896C436.273 713.053 436.749 713.068 437.037 713.004C437.343 712.935 437.674 712.743 437.824 712.512C437.986 712.263 438.067 711.962 437.957 711.686C437.844 711.402 437.639 711.227 437.352 711.046C434.522 709.27 431.501 707.699 428.331 706.356C425.092 704.983 421.697 703.837 418.214 702.943C416.288 702.45 414.332 702.036 412.355 701.701C411.683 701.587 410.9 701.861 410.735 702.449C410.585 702.985 410.934 703.645 411.655 703.767Z" fill="#3D84D1"/>
<path d="M34.0903 241.478C34.1909 241.395 34.293 241.315 34.3956 241.234C34.5426 241.119 34.4737 241.174 34.4397 241.199C34.4924 241.161 34.5459 241.123 34.5996 241.086C34.8408 240.918 35.0896 240.761 35.345 240.613C35.5721 240.482 35.804 240.359 36.0405 240.244C36.1587 240.186 36.278 240.131 36.3986 240.078C36.4587 240.051 36.5194 240.025 36.5798 239.999C36.759 239.922 36.5529 240.005 36.7211 239.942C37.2476 239.745 37.7847 239.58 38.3355 239.456C38.5943 239.398 38.8552 239.348 39.1178 239.308C39.1833 239.298 39.2491 239.288 39.3148 239.279C39.1756 239.298 39.3407 239.276 39.3602 239.274C39.5253 239.257 39.6906 239.241 39.8563 239.229C40.4191 239.19 40.9853 239.192 41.5477 239.236C41.68 239.246 41.8121 239.259 41.9439 239.273C41.9637 239.275 42.128 239.298 41.9885 239.278C42.0543 239.288 42.1198 239.297 42.1853 239.308C42.4802 239.354 42.7728 239.414 43.0623 239.485C43.319 239.547 43.5742 239.619 43.824 239.704C43.8868 239.726 43.9489 239.748 44.0109 239.771C44.0245 239.776 44.1742 239.84 44.0608 239.791C44.1962 239.849 44.3291 239.913 44.4581 239.984C44.7483 240.142 44.8049 240.18 45.0074 240.374C45.0534 240.418 45.0967 240.464 45.1402 240.51C45.1589 240.53 45.2485 240.654 45.1638 240.537C45.2321 240.631 45.2951 240.727 45.3511 240.828C45.3752 240.871 45.3947 240.917 45.42 240.96C45.485 241.07 45.3865 240.824 45.4118 240.947C45.4331 241.05 45.4835 241.153 45.5091 241.256C45.525 241.32 45.5582 241.591 45.5396 241.37C45.5488 241.479 45.5595 241.586 45.5621 241.695C45.5667 241.895 45.5393 242.091 45.5316 242.289C45.5265 242.425 45.5626 242.142 45.5342 242.277C45.5209 242.341 45.5132 242.405 45.5012 242.469C45.4797 242.585 45.4546 242.701 45.4277 242.816C45.2183 243.718 44.8866 244.589 44.6641 245.488C44.4217 246.466 44.295 247.495 44.5625 248.483C44.8262 249.455 45.4592 250.257 46.2942 250.853C47.8525 251.966 50.0039 252.221 51.8966 252.203C54.5968 252.177 57.307 251.8 59.9847 251.502C65.2457 250.917 70.696 250.364 75.8336 251.587C77.0267 251.871 78.2208 252.252 79.2895 252.728C79.5365 252.838 79.7794 252.954 80.0133 253.088C80.1206 253.149 80.2261 253.214 80.329 253.282C80.3799 253.316 80.4316 253.35 80.4808 253.386C80.3807 253.312 80.5051 253.41 80.5412 253.441C80.632 253.517 80.7191 253.598 80.8015 253.683C80.8168 253.699 80.9369 253.833 80.8706 253.753C80.8051 253.674 80.9121 253.812 80.9251 253.83C80.9563 253.876 80.9858 253.923 81.0134 253.971C81.0375 254.013 81.0982 254.173 81.0408 254.014C81.0587 254.064 81.0713 254.119 81.0905 254.168C81.1506 254.322 81.0989 254.114 81.1043 254.21C81.1145 254.403 81.0851 254.555 81.0239 254.688C80.9049 254.947 80.7277 255.187 80.5565 255.417C80.3876 255.644 80.3318 255.712 80.1162 255.952C79.9317 256.157 79.739 256.355 79.5385 256.546C79.3384 256.737 79.1305 256.921 78.9165 257.098C78.8157 257.182 78.7135 257.264 78.6101 257.344C78.5581 257.385 78.5062 257.424 78.4537 257.464C78.4035 257.501 78.4012 257.504 78.4471 257.47C78.4204 257.489 78.3936 257.509 78.3669 257.528C77.9075 257.855 77.4306 258.158 76.9379 258.437C75.989 258.975 74.8532 259.491 73.9489 259.842C72.7822 260.293 71.5901 260.686 70.3907 261.051C67.8832 261.813 65.3294 262.427 62.7679 263.001C57.6308 264.15 52.4328 265.137 47.4488 266.82C46.2814 267.214 45.0302 267.589 43.9635 268.198C42.9826 268.759 42.0673 269.684 42.1413 270.852C42.2214 272.119 43.223 273.137 44.2344 273.866C45.0609 274.461 46.0428 274.865 47.0411 275.118C49.2253 275.671 51.5152 275.567 53.7352 275.309C56.5399 274.982 59.3054 274.435 62.0798 273.937C64.659 273.474 67.2138 273.066 69.8385 272.974C72.3409 272.885 74.694 273.05 77.0679 273.706C78.2305 274.028 79.1932 274.403 80.244 274.958C80.244 274.44 80.244 273.922 80.244 273.404C78.7345 274.3 77.1764 274.893 75.4282 275.242C74.9283 275.342 74.6385 275.901 74.768 276.349C74.9103 276.842 75.4294 277.077 75.9309 276.977C77.7915 276.606 79.5854 275.916 81.1982 274.958C81.7852 274.61 81.8364 273.741 81.1982 273.404C76.6898 271.023 71.3434 270.842 66.3387 271.461C63.4953 271.813 60.6912 272.377 57.874 272.875C55.4082 273.311 52.9253 273.75 50.4076 273.721C49.8777 273.714 49.3499 273.681 48.8234 273.625C48.7947 273.621 48.6375 273.6 48.7991 273.622C48.7381 273.614 48.6772 273.606 48.6163 273.596C48.4952 273.578 48.3747 273.558 48.2541 273.536C47.9859 273.487 47.7197 273.429 47.4568 273.359C47.2264 273.299 46.9981 273.23 46.7736 273.151C46.7408 273.14 46.4221 273.018 46.5875 273.085C46.4526 273.03 46.3195 272.971 46.1887 272.907C45.9806 272.807 45.7773 272.697 45.5815 272.576C45.4837 272.515 45.389 272.451 45.2936 272.387C45.0663 272.234 45.3709 272.45 45.2424 272.35C45.1858 272.305 45.1295 272.261 45.0745 272.215C44.8971 272.066 44.7286 271.907 44.5717 271.739C44.5321 271.696 44.4937 271.652 44.4545 271.609C44.2692 271.406 44.5026 271.68 44.3905 271.532C44.294 271.405 44.2054 271.273 44.1297 271.134C44.0378 270.965 44.0173 270.879 44.0334 270.638C44.017 270.884 44.111 270.426 44.068 270.533C44.026 270.637 44.0915 270.489 44.1061 270.466C44.1407 270.41 44.1762 270.355 44.2136 270.3C44.1197 270.437 44.2881 270.221 44.3347 270.175C44.3751 270.137 44.4168 270.099 44.4593 270.062C44.4483 270.071 44.6669 269.898 44.5669 269.972C44.4832 270.034 44.6324 269.928 44.6511 269.916C44.7007 269.884 44.7509 269.852 44.8016 269.821C44.917 269.751 45.0353 269.686 45.1556 269.624C45.2623 269.569 45.3709 269.517 45.4804 269.468C45.548 269.437 45.6161 269.408 45.6844 269.379C45.8288 269.318 45.5362 269.435 45.7151 269.367C46.0228 269.251 46.3289 269.131 46.6379 269.018C51.6088 267.194 56.8378 266.15 62.0151 265.014C64.6185 264.442 67.2177 263.846 69.7771 263.115C72.1784 262.428 74.5873 261.65 76.8211 260.555C78.9375 259.518 80.8816 258.123 82.2475 256.246C82.6447 255.7 82.9608 255.094 82.9969 254.42C83.0271 253.858 82.827 253.274 82.484 252.819C81.7657 251.866 80.6758 251.336 79.5692 250.889C74.574 248.868 69.0363 248.842 63.7183 249.317C60.8934 249.569 58.0823 249.947 55.2569 250.195C54.018 250.303 52.7658 250.42 51.5203 250.402C51.0388 250.396 50.5576 250.366 50.0799 250.308C50.2763 250.332 49.9709 250.291 49.9115 250.282C49.8004 250.264 49.6898 250.245 49.5795 250.223C49.3351 250.176 49.0927 250.12 48.8533 250.053C48.6452 249.994 48.4425 249.925 48.24 249.852C48.0719 249.79 48.2134 249.84 48.2456 249.854C48.1978 249.833 48.1499 249.813 48.1023 249.791C47.9851 249.738 47.8699 249.681 47.757 249.62C47.6682 249.571 47.5809 249.52 47.4957 249.467C47.446 249.436 47.22 249.274 47.3805 249.396C47.2051 249.263 47.0408 249.117 46.8926 248.957C46.8596 248.922 46.8291 248.884 46.7963 248.849C46.9213 248.985 46.8337 248.897 46.8089 248.861C46.7544 248.78 46.6968 248.702 46.6464 248.619C46.5885 248.524 46.5376 248.427 46.4889 248.328C46.4311 248.21 46.5245 248.464 46.4951 248.336C46.481 248.275 46.45 248.215 46.4306 248.155C46.3983 248.056 46.3709 247.955 46.3487 247.853C46.3374 247.802 46.3287 247.751 46.3187 247.7C46.3558 247.89 46.321 247.721 46.3172 247.669C46.3008 247.447 46.2952 247.227 46.3087 247.004C46.3151 246.898 46.3266 246.793 46.3379 246.688C46.3653 246.431 46.3169 246.804 46.3443 246.648C46.3538 246.594 46.3628 246.541 46.3727 246.488C46.4157 246.259 46.4692 246.031 46.5283 245.805C46.6489 245.346 46.7933 244.894 46.9323 244.44C47.2097 243.533 47.491 242.577 47.4498 241.623C47.4048 240.572 46.9564 239.559 46.0902 238.884C45.1418 238.145 43.931 237.776 42.7367 237.58C40.3172 237.184 37.8663 237.499 35.6253 238.444C34.5771 238.887 33.6195 239.492 32.7533 240.205C32.3668 240.523 32.4106 241.151 32.7533 241.477C33.1363 241.843 33.7027 241.797 34.0903 241.478Z" fill="#F2D025"/>
<path d="M33.1917 243.813C46.1137 231.513 46.1136 211.571 33.1917 199.271C20.2698 186.971 -0.680818 186.971 -13.6028 199.271C-26.5247 211.571 -26.5247 231.513 -13.6028 243.813C-0.68084 256.113 20.2698 256.113 33.1917 243.813Z" fill="#E8A538"/>
<path d="M-13.7894 237.337C-13.987 235.483 -14.0656 233.619 -14.0208 231.757C-13.9778 229.964 -13.8144 228.069 -13.5518 226.378C-12.9823 222.71 -11.9456 219.108 -10.4638 215.679C-9.10179 212.527 -7.24292 209.404 -5.09687 206.601C-4.56215 205.903 -4.14161 205.385 -3.55877 204.709C-3.00818 204.071 -2.43938 203.447 -1.85347 202.838C-0.658598 201.597 0.608451 200.418 1.9395 199.309C3.29691 198.178 4.53912 197.254 6.00993 196.284C7.4495 195.334 8.9441 194.459 10.4861 193.668C10.8754 193.468 11.2678 193.274 11.6628 193.084C12.1187 192.866 12.2484 192.254 12.0019 191.853C11.7306 191.412 11.1659 191.311 10.7085 191.531C7.47458 193.082 4.44415 194.992 1.65228 197.187C-1.13549 199.378 -3.64987 201.869 -5.85966 204.592C-8.13139 207.391 -10.0652 210.426 -11.5896 213.653C-13.2293 217.125 -14.4334 220.773 -15.1386 224.521C-15.8466 228.285 -16.0913 232.129 -15.8072 235.945C-15.7726 236.409 -15.7296 236.874 -15.6802 237.337C-15.6288 237.82 -15.2827 238.237 -14.7349 238.237C-14.2634 238.236 -13.7374 237.823 -13.7894 237.337Z" fill="#F2D025"/>
<path d="M-17.6719 233.196C-17.6798 226.533 -16.552 219.925 -13.9331 213.701C-11.6031 208.163 -8.05353 203.143 -3.41894 199.116C-0.903519 196.931 1.8858 195.101 5.01811 193.649C5.47706 193.436 5.6012 192.815 5.35726 192.418C5.08311 191.972 4.52459 191.881 4.06385 192.095C-1.66681 194.752 -6.53536 198.876 -10.2922 203.751C-14.3565 209.025 -17.0073 215.219 -18.3727 221.611C-19.1862 225.42 -19.5671 229.311 -19.5625 233.197C-19.5619 233.683 -19.1283 234.096 -18.6172 234.096C-18.1052 234.096 -17.6714 233.684 -17.6719 233.196Z" fill="#F2D025"/>
<path d="M-9.7867 219.385C-7.40387 222.308 -5.68401 225.831 -4.40442 229.327C-3.03779 233.06 -2.06587 236.912 -1.05172 240.741C-0.401809 243.196 0.248085 245.65 0.897993 248.106C1.02265 248.577 1.57634 248.861 2.06089 248.734C2.56336 248.603 2.84645 248.1 2.72128 247.627C1.60525 243.412 0.528628 239.186 -0.644483 234.985C-1.7106 231.168 -2.94181 227.373 -4.75075 223.808C-5.77591 221.789 -7.00506 219.885 -8.44976 218.113C-8.76307 217.729 -9.45752 217.8 -9.7867 218.113C-10.1855 218.492 -10.101 219 -9.7867 219.385Z" fill="#F2D025"/>
<path d="M-7.31602 212.958C-4.63858 217.333 -2.32896 221.909 -0.446044 226.604C1.46196 231.36 2.96887 236.262 4.05162 241.248C4.65852 244.043 5.12849 246.845 5.45536 249.625C5.51219 250.108 5.8493 250.525 6.40066 250.525C6.86755 250.525 7.40329 250.111 7.34595 249.625C6.73726 244.448 5.70134 239.321 4.21979 234.305C2.74975 229.329 0.84917 224.469 -1.43946 219.782C-2.7275 217.144 -4.14505 214.563 -5.68368 212.05C-6.29571 211.049 -7.93035 211.954 -7.31602 212.958Z" fill="#F2D025"/>
<path d="M-1.33329 205.175C-0.99797 208.334 -1.17743 211.512 -1.89491 214.598C-2.00524 215.072 -1.74438 215.571 -1.23449 215.705C-0.760689 215.829 -0.18246 215.553 -0.0716251 215.076C0.682975 211.831 0.908487 208.483 0.557552 205.175C0.506102 204.691 0.159776 204.275 -0.387744 204.275C-0.859241 204.275 -1.38474 204.688 -1.33329 205.175Z" fill="#F2D025"/>
<path d="M1.92934 201.431C2.79298 206.429 2.88233 211.594 2.23293 216.641C2.0558 218.017 1.8034 219.427 1.50417 220.804C1.40101 221.28 1.64955 221.777 2.16456 221.911C2.63273 222.034 3.22379 221.761 3.32746 221.283C4.45193 216.104 4.81283 210.775 4.34953 205.503C4.21565 203.98 4.01346 202.461 3.75263 200.952C3.66969 200.472 3.04459 200.205 2.58973 200.324C2.05399 200.464 1.84615 200.95 1.92934 201.431Z" fill="#F2D025"/>
<path d="M6.83512 198.004C7.55235 202.057 7.85054 206.236 7.73817 210.387C7.62452 214.584 7.10132 218.676 6.14885 222.766C5.6126 225.067 4.94452 227.34 4.15152 229.574C3.98796 230.035 4.33965 230.557 4.81192 230.681C5.32898 230.816 5.8107 230.514 5.97478 230.053C7.4246 225.97 8.43568 221.762 9.03414 217.491C9.62339 213.284 9.79463 209.026 9.53124 204.788C9.37996 202.354 9.08354 199.929 8.65837 197.525C8.57339 197.045 7.95165 196.777 7.49551 196.896C6.9613 197.036 6.74988 197.523 6.83512 198.004Z" fill="#F2D025"/>
<path d="M11.3685 195.744C12.1277 200.774 12.367 206.008 12.1029 211.135C11.8364 216.3 11.067 221.35 9.77635 226.382C9.04581 229.23 8.15299 232.039 7.10479 234.796C6.93099 235.253 7.30035 235.781 7.76493 235.903C8.29044 236.04 8.75351 235.733 8.92783 235.274C10.8095 230.326 12.185 225.207 13.0346 220.007C13.8854 214.801 14.2377 209.526 14.0449 204.26C13.9349 201.249 13.6415 198.248 13.1915 195.266C13.1188 194.784 12.4766 194.52 12.0286 194.637C11.4855 194.779 11.2955 195.261 11.3685 195.744Z" fill="#F2D025"/>
<path d="M15.1248 198.93C17.1121 197.521 18.9899 195.981 20.7287 194.3C21.0758 193.964 21.107 193.358 20.7287 193.027C20.3537 192.7 19.7624 192.669 19.3918 193.027C18.5632 193.829 17.7044 194.601 16.8147 195.341C16.3762 195.705 15.9303 196.062 15.4777 196.41C14.9752 196.797 14.6786 197.015 14.1705 197.376C13.7753 197.656 13.5337 198.167 13.8313 198.607C14.0835 198.979 14.7006 199.231 15.1248 198.93Z" fill="#F2D025"/>
<path d="M16.4951 201.527C19.6412 199.987 22.5017 197.908 24.8927 195.426C25.2378 195.068 25.2649 194.507 24.8927 194.153C24.5431 193.82 23.9021 193.793 23.5558 194.153C21.2398 196.557 18.5918 198.48 15.5406 199.973C15.0868 200.196 14.9536 200.801 15.2014 201.205C15.4712 201.643 16.0395 201.75 16.4951 201.527Z" fill="#F2D025"/>
<path d="M15.9991 207.749C17.9281 206.63 19.823 205.46 21.6801 204.237C23.5088 203.032 25.3643 201.812 27.0491 200.427C27.9552 199.682 28.7712 198.851 29.4414 197.905C29.7268 197.502 29.5228 196.908 29.1022 196.673C28.6369 196.414 28.095 196.592 27.8088 196.996C26.769 198.465 25.15 199.635 23.6542 200.688C21.8877 201.931 20.0836 203.127 18.245 204.272C17.1894 204.93 16.1222 205.57 15.0448 206.194C14.6092 206.447 14.4446 207.001 14.7057 207.426C14.9606 207.84 15.5614 208.002 15.9991 207.749Z" fill="#F2D025"/>
<path d="M15.6581 211.823C16.9761 211.663 18.1067 210.942 19.2373 210.322C20.3167 209.73 21.3839 209.119 22.4385 208.488C24.5308 207.237 26.5731 205.909 28.5595 204.51C29.7208 203.692 30.8635 202.85 31.9879 201.986C32.3857 201.681 32.3217 201.032 31.9879 200.714C31.5948 200.34 31.0495 200.408 30.651 200.714C26.9689 203.541 23.0415 206.115 18.9498 208.399C18.387 208.713 17.821 209.022 17.2517 209.326C16.9627 209.48 16.6748 209.637 16.3779 209.777C16.1705 209.875 15.8406 210.001 15.6581 210.023C15.1518 210.085 14.7128 210.393 14.7128 210.923C14.7125 211.361 15.1482 211.884 15.6581 211.823Z" fill="#F2D025"/>
<path d="M8.99317 240.445C11.8931 237.12 14.4494 233.53 16.5932 229.72C18.7351 225.914 20.4844 221.897 21.7909 217.762C22.5214 215.449 23.1112 213.097 23.5589 210.72C23.649 210.243 23.4225 209.75 22.8985 209.613C22.4408 209.494 21.8262 209.761 21.7356 210.242C20.9521 214.402 19.729 218.484 18.0919 222.413C17.3045 224.302 16.3833 226.215 15.3663 228.08C14.3478 229.947 13.2323 231.767 12.0241 233.529C10.6585 235.522 9.22405 237.375 7.65598 239.173C7.33013 239.546 7.27151 240.079 7.65598 240.445C7.99156 240.764 8.66527 240.821 8.99317 240.445Z" fill="#F2D025"/>
<path d="M8.91656 247.186C13.0553 242.399 17.115 237.526 20.6267 232.296C24.0523 227.195 26.9468 221.726 28.7873 215.916C29.8201 212.656 30.4984 209.294 30.7569 205.897C30.7941 205.411 30.2962 204.997 29.8117 204.997C29.2693 204.997 28.9032 205.41 28.8664 205.897C28.4294 211.636 26.6251 217.39 24.0854 222.621C21.4302 228.09 17.9574 233.162 14.177 237.981C12.0601 240.679 9.83551 243.305 7.5799 245.914C7.25559 246.289 7.19441 246.82 7.5799 247.187C7.91394 247.504 8.59045 247.563 8.91656 247.186Z" fill="#F2D025"/>
<path d="M9.22834 252.165C12.0814 250.118 14.6114 247.721 16.8573 245.079C19.119 242.418 21.1128 239.565 22.9563 236.629C24.8023 233.689 26.5143 230.674 28.2165 227.657C30.0771 224.359 31.8738 221.013 33.2345 217.495C34.5635 214.059 35.4425 210.415 35.3849 206.737C35.378 206.283 35.3552 205.83 35.3199 205.377C35.2823 204.892 34.9124 204.477 34.3746 204.477C33.8923 204.477 33.3914 204.89 33.4293 205.377C33.9917 212.597 30.6953 219.367 27.2113 225.629C23.9082 231.566 20.5619 237.584 16.2516 242.927C15.7771 243.515 15.1203 244.283 14.5453 244.92C13.908 245.627 13.2486 246.315 12.5657 246.982C11.2364 248.279 9.71595 249.577 8.27407 250.611C7.86708 250.903 7.65566 251.388 7.93493 251.842C8.16939 252.224 8.81802 252.459 9.22834 252.165Z" fill="#F2D025"/>
<path d="M16.1546 251.203C20.5424 247.018 24.4462 242.36 27.6789 237.309C30.8465 232.359 33.3635 227.03 35.1855 221.501C36.2306 218.329 37.043 215.091 37.6428 211.818C37.7303 211.339 37.5081 210.848 36.9826 210.711C36.527 210.592 35.9078 210.858 35.8198 211.339C35.2907 214.229 34.5957 217.09 33.7211 219.903C33.2864 221.301 32.8075 222.686 32.2845 224.056C32.0304 224.722 31.7657 225.385 31.4908 226.043C31.3536 226.372 31.2138 226.699 31.0715 227.026C30.9497 227.305 30.8486 227.532 30.6922 227.874C28.2976 233.122 25.2218 238.079 21.5701 242.623C21.1432 243.154 20.577 243.832 20.0604 244.43C19.5142 245.064 18.9567 245.688 18.389 246.304C17.2402 247.549 16.0479 248.757 14.8179 249.93C14.4573 250.274 14.4568 250.859 14.8179 251.203C15.1796 251.547 15.7926 251.548 16.1546 251.203Z" fill="#F2D025"/>
<path d="M23.6719 249.871C27.2071 246.328 30.2951 242.372 32.8438 238.131C35.3746 233.919 37.3901 229.412 38.8184 224.754C39.6206 222.137 40.2339 219.469 40.6537 216.773C40.7285 216.293 40.5277 215.806 39.9935 215.666C39.5479 215.549 38.9059 215.811 38.8307 216.295C38.0945 221.022 36.7586 225.66 34.8698 230.088C33.9839 232.165 32.8676 234.382 31.6789 236.43C30.4653 238.521 29.123 240.545 27.6589 242.486C26.8241 243.592 26.0613 244.534 25.1511 245.579C24.2488 246.616 23.3089 247.622 22.3352 248.598C21.9835 248.95 21.9676 249.521 22.3352 249.871C22.6897 250.208 23.3189 250.225 23.6719 249.871Z" fill="#F2D025"/>
<path d="M97.7279 -36.8081C100.021 -36.5611 102.367 -36.3731 104.517 -35.4621C105.15 -35.2341 105.302 -34.8261 104.982 -34.2321C103.519 -34.1131 102.17 -34.7561 100.751 -34.9451C90.9839 -36.4661 80.8099 -34.7601 71.9239 -30.4901C68.4009 -28.0201 64.7949 -25.5481 61.9569 -22.2621C53.8419 -13.2021 50.1829 -0.906115 50.1229 11.1119C50.1539 16.3809 50.7499 21.6909 52.3099 26.7379C61.3759 21.3619 72.2039 19.0209 82.6949 20.0729C91.2689 20.9409 99.9639 25.0399 104.725 32.4629C107.113 36.5179 108.537 41.3869 107.548 46.0979C106.709 48.7419 105.578 51.3919 103.557 53.3719C99.4498 57.7879 93.2779 59.6829 87.3729 59.7359C78.8429 59.7809 70.6758 55.8269 64.6148 49.9729C58.5468 44.2369 54.1249 36.9269 51.3199 29.0999C43.8819 33.8599 37.6519 40.4029 33.0639 47.9389C27.7789 56.4129 25.0328 66.3639 24.6668 76.3369C24.2598 85.2349 25.3729 94.2609 28.4019 102.658C31.2579 111.69 36.7499 119.758 43.6069 126.248C46.1469 128.64 49.1559 130.448 52.2199 132.089C52.0349 133.449 50.3638 133.049 49.6358 132.382C42.3118 128.342 36.7819 121.773 32.2849 114.851C26.9689 106.013 24.0189 95.8559 23.1969 85.6019C22.5999 76.4149 23.2698 66.9819 26.4678 58.2879C27.6908 53.7199 30.1989 49.6379 32.6379 45.6399C37.3399 38.4639 43.4329 32.0589 50.8239 27.6269C48.1739 18.2039 47.7559 8.1289 49.9409 -1.4291C52.1229 -11.6431 57.4629 -21.3751 65.6779 -27.9611C69.4049 -31.4391 74.2278 -33.3671 79.0058 -34.9121C85.0738 -36.6171 91.4359 -37.3901 97.7279 -36.8081ZM83.3989 21.7539C72.8569 20.4889 61.8678 22.8379 52.7858 28.3269C55.9498 37.4909 61.4938 45.9739 69.2758 51.8569C75.9678 56.8359 84.7629 59.4789 93.0199 57.4899C97.6889 56.3019 102.265 53.6139 104.615 49.2779C107.359 44.4299 106.483 38.2199 103.562 33.6639C99.3518 26.6469 91.2989 22.7689 83.3989 21.7539Z" fill="black"/>
<path d="M363.729 931.329C362.008 932.864 360.295 934.477 358.177 935.461C357.583 935.777 357.178 935.616 356.953 934.98C357.846 933.816 359.228 933.247 360.32 932.321C368 926.098 373.56 917.408 376.354 907.954C376.885 903.684 377.471 899.352 376.938 895.043C375.663 882.947 368.999 871.985 360.126 863.878C356.198 860.367 351.86 857.247 347.071 855.018C344.976 865.348 339.448 874.948 331.63 882.023C325.235 887.799 316.362 891.498 307.663 890.049C303.054 889.1 298.488 886.889 295.658 882.996C294.26 880.6 293.053 877.983 292.941 875.156C292.421 869.148 295.156 863.3 299.078 858.885C304.767 852.529 313.178 849.124 321.585 848.556C329.909 847.904 338.297 849.529 345.983 852.699C347.443 843.99 346.77 834.98 344.259 826.522C341.52 816.918 335.982 808.206 328.831 801.245C322.506 794.974 315.065 789.745 306.806 786.358C298.192 782.417 288.524 781.078 279.111 781.809C275.633 782.088 272.274 783.107 269.002 784.278C268.117 783.229 269.535 782.258 270.518 782.165C278.427 779.444 287.008 779.75 295.159 781.058C305.279 783.045 314.791 787.67 322.946 793.939C330.16 799.66 336.706 806.484 341.009 814.688C343.576 818.66 344.921 823.258 346.249 827.749C348.417 836.05 349.08 844.865 347.408 853.319C356.174 857.675 363.926 864.124 369.549 872.156C375.66 880.626 379.295 891.115 378.668 901.625C378.747 906.723 376.942 911.593 374.882 916.172C372.076 921.816 368.382 927.053 363.729 931.329ZM329.911 881.417C337.921 874.448 343.551 864.722 345.573 854.305C336.654 850.504 326.644 848.925 317.061 850.749C308.879 852.372 301.019 857.122 296.955 864.579C294.704 868.839 293.628 874.036 295.267 878.687C297.022 883.974 302.215 887.491 307.553 888.381C315.581 889.966 323.859 886.595 329.911 881.417Z" fill="black"/>
<path d="M471.411 159.781C471.235 162.543 471.123 165.368 470.247 167.979C470.031 168.747 469.609 168.942 468.976 168.577C468.799 166.823 469.423 165.182 469.57 163.471C470.81 151.69 468.658 139.521 463.869 128.979C461.157 124.825 458.44 120.57 454.898 117.264C445.124 107.799 432.123 103.789 419.543 104.094C414.029 104.297 408.493 105.179 403.267 107.212C409.22 117.935 412.06 130.869 411.337 143.506C410.737 153.834 406.761 164.408 399.163 170.361C395.005 173.357 389.96 175.22 384.994 174.18C382.197 173.255 379.382 171.979 377.237 169.614C372.468 164.818 370.262 157.463 369.994 150.371C369.639 140.124 373.484 130.189 379.392 122.724C385.177 115.254 392.668 109.712 400.759 106.097C395.509 97.3103 388.437 90.0312 380.384 84.7558C371.325 78.6725 360.811 75.6858 350.36 75.559C341.033 75.3493 331.626 76.9698 322.947 80.8722C313.597 84.5867 305.35 91.4377 298.805 99.8791C296.393 103.006 294.609 106.677 293.002 110.41C291.572 110.23 291.93 108.21 292.602 107.314C296.567 98.3889 303.243 91.5393 310.325 85.9196C319.384 79.2559 329.908 75.3931 340.61 74.0838C350.204 73.0783 360.101 73.5872 369.315 77.1563C374.14 78.4822 378.503 81.3672 382.775 84.1719C390.455 89.5955 397.378 96.7144 402.283 105.455C412.05 101.975 422.579 101.157 432.662 103.482C443.43 105.783 453.808 111.893 460.997 121.555C464.771 125.923 466.963 131.657 468.752 137.349C470.755 144.585 471.793 152.204 471.411 159.781ZM409.603 144.404C410.547 131.7 407.693 118.572 401.621 107.833C392.144 111.922 383.465 118.849 377.588 128.382C372.618 136.578 370.169 147.227 372.548 157.084C373.959 162.656 376.938 168.069 381.56 170.756C386.733 173.901 393.201 172.653 397.864 169.001C405.057 163.723 408.825 153.927 409.603 144.404Z" fill="black"/>
<path d="M347.761 697.818C347.761 697.818 380.953 687.157 383.007 686.498C385.061 685.838 387.788 685.621 388.658 687.207C389.696 689.099 388.138 691.557 387.078 692.568C385.279 694.284 382.606 694.059 382.606 694.059C382.606 694.059 382.264 693.557 382.603 692.128C382.942 690.7 383.729 690.292 383.729 690.292L349.009 702.093L347.761 697.818Z" fill="#BAA386"/>
<path d="M383.729 690.292L349.009 702.093L348.575 700.609L384.118 689.194L383.729 690.292Z" fill="#93806C"/>
<path d="M382.606 694.059C382.606 694.059 383.953 694.073 385.408 693.613C387.998 692.793 388.926 689.315 388.926 689.315C388.926 689.315 386.985 691.453 385.925 692.23C384.48 693.289 382.606 694.059 382.606 694.059Z" fill="#93806C"/>
<path d="M345.973 696.445L347.761 697.818L349.009 702.093L348.412 704.796L295.397 725C295.397 725 292.56 725.119 291.367 721.038C290.087 716.657 292.566 714.894 292.566 714.894L345.973 696.445Z" fill="#EA81A2"/>
<path d="M345.973 696.445L348.412 704.796L349.009 702.093L347.761 697.818L345.973 696.445Z" fill="#E8AAD3"/>
<path d="M344.868 698.054C344.868 698.054 292.886 715.63 292.879 715.963C292.871 716.296 293.196 719.208 293.196 719.208L345.22 699.262L344.868 698.054Z" fill="#E8AAD3"/>
</g>
<defs>
<clipPath id="clip0_6_3103">
<rect width="414" height="896" fill="white"/>
</clipPath>
</defs>
</svg>
