<?xml version="1.0" encoding="UTF-8"?>
<svg id="Layer_1" data-name="Layer 1" xmlns="http://www.w3.org/2000/svg" viewBox="0 0 414 200">
  <defs>
    <style>
      .cls-1 {
        letter-spacing: 0em;
      }

      .cls-2 {
        fill: #00bff3;
      }

      .cls-3 {
        fill: #fff9b8;
      }

      .cls-4 {
        fill: #fff200;
      }

      .cls-5 {
        fill: #fbb040;
      }

      .cls-6 {
        fill: #9ed2f1;
      }

      .cls-7 {
        fill: #dfdcd6;
      }

      .cls-8 {
        fill: #6e6b66;
      }

      .cls-9 {
        fill: #5b5b5b;
      }

      .cls-10 {
        fill: #504b45;
      }

      .cls-11 {
        fill: #757575;
      }

      .cls-12 {
        letter-spacing: 0em;
      }

      .cls-13 {
        letter-spacing: .02em;
      }

      .cls-14 {
        letter-spacing: .02em;
      }

      .cls-15 {
        letter-spacing: 0em;
      }

      .cls-16 {
        font-size: 8.1px;
      }

      .cls-16, .cls-17 {
        fill: #231f20;
        font-family: MyriadPro-Regular, 'Myriad Pro';
      }

      .cls-18 {
        letter-spacing: 0em;
      }

      .cls-19 {
        letter-spacing: 0em;
      }

      .cls-17 {
        font-size: 9.13px;
      }
    </style>
  </defs>
  <path class="cls-9" d="M193.28,105.23c-3.62-1.09-7.24-2.4-10.89-.13-.76-.2-1.66,.11-2.25-.8,1.6-.56,3.49-.19,4.76-2.01-2.05-2.1-3.71-4.38-6.7-4.78-5.55-.74-11.57,1.65-16.55-3.34-.56-.56-1.46-.33-1.91,.4-.79,1.3,.35,1.72,.94,2.14,3.35,2.38,6.3,5.67,10.25,6.72-.32,.3-.64,.61-.96,.91-.79,0-1.57,0-2.36,0-.47-.33-.94-.65-1.41-.98-2.87-2.16-5.11-5.57-8.69-6.3-.05-.92,0-1.88-.83-2.41,3.24-1.84,6.49-3.68,9.73-5.54,.69-.4,1.72-.54,1.56-1.89-.14-1.22-1.18-1.26-1.87-1.56-2.81-1.2-5.69-1.18-8.58-.4,0-.53,.01-1.06,.02-1.59,4.24-.61,8.48,.15,12.79-1.36,3.45-1.21,7.17,2.1,10.99,1.36,.68-.13,1.64,.43,2.05,.03,4.01-3.91,8.1-3.17,12.53-1.11,1.4,.65,3.31,.15,5.01-1.04,3.16-2.2,6.53-2.11,9.59,.59,1.54,1.36,2.72,1.42,4.35-.09,3.09-2.85,6.74-2.92,10.43-2.06,.74,.64,1.99,.47,2.17,1.99-4.02-.73-8.1-2.14-11.8,1.17,3.71,4.8,7.79,1.9,11.7,1,1.47-.34-.47-1.48,.05-2.23,.95-.57,1.39,.62,2.1,.89,.47,.91,.94,1.82,1.4,2.74-6.43-.96-11.04,4.5-16.51,6.92-.24,.11-.25,.96-.37,1.46-1.77,0-3.77-.6-4.26,2.53-.47,.47-.93,.19-1.4,0-.38-.13-.77-.25-1.15-.38-1.33-1.21-.15-1.39,.51-1.76,2.86-1.61,5.73-3.17,8.57-4.82,.87-.51,2.31-.61,2.09-2.33-.17-1.32-1.43-1.26-2.24-1.62-8.11-3.56-13,4.06-19.05,7.45,.87,2.22,2.92,1.75,3.62,3.6-.98,1.08-1.81-.49-2.68-.02-.23,.13-.78,.12-.19,.62,.28,.23,.54,.48,.82,.72-.22,.3-.45,.6-.67,.89-2.63-1.67-5.44-2.73-8.38-1.95-2.72,.73-5.04,.11-7.33-1.65-.77-.59-1.51-2.02-3.16-.56,4.75,4.78,9.6,8.72,15.8,9.6-.55,.32-1.11,.63-1.66,.95Zm-6.76-16.48c-.2,3.04-3.43,2.13-4.15,4.6,1.56,1.82,3.4,2.51,5.47,2.28,5.63-.63,9.87-4.98,14.53-8.16,.91-.62,1.02-2.04-.55-2.56-4.41-1.47-8.49-1.01-12.19,2.54-.87,.84-1.7,2.27-3.15,1.35-.41-2.09-1.74-2.91-3.29-3.17-3.92-.68-7.66-1.03-11.29,2.15-2.61,2.29-5.92,3.39-9.18,5.17,3.72,3.66,7.24,3.28,10.86,2.12,4.53-1.45,8.57-4.37,12.94-6.31Zm7.35-5.23c-3.82-2.04-6.31-1.56-8.79,.77,3.19,3.75,5.34-.35,8.79-.77Zm15.68-.34c-4.06-2.24-5.09-2.2-7.64,.05,2.43,2.29,4.96,1.8,7.64-.05Zm-41.48,1.54c2.37,2.35,3.87,.78,5.4-.67-1.72-.27-3.45-.77-5.4,.67Z"/>
  <path class="cls-10" d="M277.6,80.85c-4.26,.16-4.91,5.06-5.93,8.09-1.48,4.37-3.34,8.28-5.51,12.09,.04,.41,.08,.82,.11,1.24-6.34,2.98-13.28,1.9-19.71,4.24,0-.44,0-.87-.01-1.31,1.38-.21,2.8-.25,4.08-1.44-1.12-.79-2.6-1.23-3.22-2.37-2.18-4.01-5.38-3.58-8.4-2.86-2.74,.65-5.27,.62-7.84-.59-1.2-.95-2.03-2.61-3.62-2.83-.05-.42-.09-.84-.14-1.26,2.35-1.19,4.69-2.39,7.04-3.58,.02,.38,.05,.75,.07,1.13-1.58,1-3.15,2-4.87,3.09,3.01,3.87,6.4,3.51,9.89,2.38,3.86-1.25,7.16-3.85,10.47-6.41-.47,3.69-4.04,3.5-5.66,6.57,1.05,.12,1.81,.27,2.57,.29,3.96,.11,7.23-2.03,10.26-4.78,1.15-1.05,2.22-11.1,1.35-11.23-3.13-.47-4.52,2.74-6.35,4.95-.19-1.73,.17-3.57-.68-5.17,2.53,1.85,4.1-.53,6.02-1.86-2.28-4.4-5.84-4.39-9.37-4.94,.56,2.97,3.15,3.99,3.36,6.81-.46,.05-.92,.06-1.36,.16-1.02,.21-2.76,.76-2.55,1.5,.52,1.85,1.57,3.67,2.8,4.97,.93,.98,.61-2,1.84-1.53,.04,2.02-.04,3.96-2.23,4.29-.63-2.6-2.86-1.47-4.13-2.57,1.75-1.93,1.41-3.56-.41-5.11-.23-.2-.13-.99-.17-1.51,1.56,.09,3.23-.31,3.94-1.82,.28-.59-1.34-2.37-1.92-3.71-.64-1.51-2.34-1.96-2.51-3.86,.64-.1,1.28-.21,1.92-.31,4.06,1.8,8.19,3.28,12.54,3.68,.37,.28,.74,.56,1.12,.85-.03,3.89-.82,7.8-.16,11.83,1.82-.82,1.87-3.81,3.99-3.43-.54,2.24-1.45,4.16-3.42,4.88-1.28,.47-1.81,1.56-1.45,2.87,.42,1.55,1.71,1.13,2.67,.88,4.83-1.27,8.43-4.63,10.96-9.73,1.17-2.36,1.15-3.37-1.56-4.08-2.94-.78-4.65-.13-5.72,3.18-.29,.89-.56,1.89-1.54,2.08-.22-2.65,.97-4.94,1.33-7.46,1.46-10.3,1.52-10.29,9.88-8.9,.48,.05,.95,.09,1.43,.14,.54,.99,1.47,.61,2.2,.91-2.72,1.76-5.23-.48-7.85-.59-1.04-.04-2.29-1.18-2.77,.99-2.82,4.29-2.05,7.32,2.02,8.17,2.64,.55,5.25,1.26,7.87,1.89-.21,.37-.41,.74-.62,1.11Zm-8.41,10.74c-3.73,1.92-7.17,4.5-11.39,2.56-.31-.14-.89,.3-1.25,.63-2.48,2.23-5.46,3.12-8.35,4.52,3.04,4.85,7.27,4.62,11.23,3.69,5-1.18,8.09-5.49,9.75-11.39Z"/>
  <path class="cls-3" d="M278.22,79.74c-2.62-.64-5.24-1.34-7.87-1.89-4.07-.85-4.83-3.87-2.02-8.17,4.21,1.32,8.4,2.84,12.65,3.92,5.92,1.51,11.88,2.87,17.86,3.97,3.96,.73,7.81,2.65,11.94,1.9,2.5,1.36,5.11,.83,7.7,.69-.25,.45-.75,1.27-.73,1.29,2.65,2.51,.73,5.3,.36,7.98-13.1-4.42-26.5-7.03-39.9-9.69Z"/>
  <path class="cls-10" d="M157.55,83.68c0,.53-.01,1.06-.02,1.59-3.1,2.01-6.11,4.32-9.35,5.93-1.87,.93-1.47,2.12-1.23,3.64-1.59-.99-3.18-1.86-5-.83,1.59-3.02,4.62-3.11,6.83-4.88,.58-.46,1.35-.71,1.37-1.75,.03-1.16-.85-1.24-1.44-1.53-2.45-1.19-4.94-1.65-7.59-.94-4.65,1.25-7.86,5.55-12.26,7.68,2.67,3.73,5.59,3.35,8.7,2.51,1.47-.4,2.72-2.21,4.44-1.15,.59,3.62,3.77,3.65,5.46,5.75-.45,.1-.9,.19-1.35,.29-3.03-2.28-6.39-3.6-9.88-3.1-2.34,.33-4.5,.32-6.29-1.35-1.56-1.46-3.1-1.92-4.94-1.61,1.92-2.56,4.79-3.28,7.01-5.24,.44-.38,.96-.96,1.03-1.53,.11-.84-.65-1.06-1.2-1.2-4.57-1.1-9.07-2.17-13.3,1.79-1.03,.96-2.27,2.85-4.12,1.9,.64-1.36-1.11-2.07-.63-3.39,2.6,.24,5.08-.12,7.26-2.28-2.19-1.44-4.31-1.2-6.54-.51-1.91,.58-1.07,1.7-.66,2.85-5.05-1.5-9.77-1.2-13.79,3.43-.43,.5-.92,1.86-1.9,.74,.12-1.33-.62-1.52-1.46-1.82-4.65-1.67-8.7,.06-12.53,3.11-.02-.9-.04-1.8-.06-2.71,2.48,.27,4.25-1.08,5.92-3.44-2.51-.65-4.5-.1-6.46,.8-.19-.23-.37-.45-.56-.68,.39-.3,.77-.66,1.19-.88,3.41-1.78,6.82,1.16,9.78,.52,3.09-.67,6.05-3.21,9.33-1.68,3.14,1.47,5.92,.21,8.72-.83,3.44-1.28,6.69-1.68,10.14,.04,3.25,1.63,6.63,.8,9.92-.25,.95,.44-1.01,1.99,.82,2.5,1.67,.47,3.12,.93,4.54-.37,1.75-1.59-1.48-.7-.65-1.81,.19-.26,.64-.23,.97-.33,3.95,1.1,7.84,1.5,11.79-.33,2.73-1.26,5.48-.63,7.97,1.3Zm-54.33,1.29c-2.05-.67-3.56-.57-5.02-.22-.6,.15-1.78,.12-1.56,1.46,.15,.94,.79,1.48,1.72,1.78,2.44,.79,2.9-2.04,4.86-3.03Zm52.33-.92c-2.23-1.06-4.23-1.41-6.41,.24,2.45,2.53,4.41,2.31,6.41-.24Z"/>
  <path class="cls-5" d="M220.42,10.12c.63-.33,1.36-1.07,1.87-.9,1.44,.48,2.68,1.42,3.63-1.07,.22-.57,.74,.58,.81,1.25-.78,1.22-.28,2.4,.09,3.57,4.62,14.41,10.22,28.25,16.61,41.62,.93,1.95,1.82,3.94,2.73,5.91,.28,.6,.63,1.18,0,1.84-.65,.67-1.1,.84-1.6-.22-.34-.72-1.02-.52-1.6-.5-.96-.41-2.15-.15-2.76-1.53-2.31-5.23-4.71-10.41-6.97-15.67-4.78-11.15-8.85-22.7-12.81-34.31Z"/>
  <path class="cls-10" d="M55.1,100.75c-.01-1.36,.73-1.44,1.62-1.56,2.31-.3,4.6-.76,6.91-1.08,1.71-.24,3.13-.65,3.4-3.23,.16-1.52,1.37-2.85,2.4-2.63,3.58,.78,5.94-2.65,9.03-3.38,.02,.41,.05,.82,.07,1.24-3.22,.88-4.5,3.44-4.3,7.27-.3-.38-.82-.73-.87-1.16-.28-2.73-1.41-3.85-3.56-2.71-2.34,1.23-2.09,3.22-1.07,5.61,1.42,3.3,3.61,5.12,6.56,5.67,1,.19,2.34,.68,2.88-.7,.47-1.17-1.1-1.71-1.26-2.72-.24-1.56-2.06-1.5-2.02-3.2,2.81,.94,3.42-2.89,5.45-3.66,.22,.26,.45,.51,.67,.77-.28,1.15-2.07,1.4-1.45,2.9,.44,1.07,1.67,.66,2.57,.81,3.37,.57,6.34-.9,9.28-2.59l1.36,.33c2.06,3.04,4.78,4.87,7.75,6.3,.82,.39,10.81,0,13.7,1.22,.36,.15,.24,.69-.15,.67-3.48-.15-14.16,.21-15.59,.91-5.01,2.43-10.25,2.42-15.37,.41-1.83-.72-3.57-.21-5.26-.41-7.6-.9-14.58,3.18-22,3.33v-1.48c4.82-.56,9.64-1.21,14.31-3.25-.58-1.88-1.93-2.63-2.48-4.28-.72-2.14-2.43-.82-3.72-.61-1.37,.22-2.85,.34-4.03,1.09-1.7,1.08-3.21,1.4-4.85,.13Zm22.86-1.93c2.58,7.17,14.75,9.35,20.58,4.87-2.07-1.11-4.09-2.09-5.63-4.13-.55-.73-1.38-1.56-2.49-1.01-3.85,1.89-7.6,5.08-12.46,.27Z"/>
  <path class="cls-8" d="M242.95,61.63c.58-.02,1.26-.22,1.6,.5,.5,1.06,.96,.89,1.6,.22,.64-.66,.29-1.24,0-1.84-.9-1.97-1.79-3.96-2.73-5.91-6.39-13.38-11.99-27.22-16.61-41.62-.37-1.16-.87-2.35-.09-3.57,2.5,6.69,5.11,13.32,7.48,20.07,2.65,7.56,6.36,14.47,9.07,21.95,3.27,9.01,8.35,14.06,16.67,13.76-.02,1.07-.04,2.15-.05,3.22-1.37-.35-2.74-.68-4.1-1.07-5.62-1.6-11.47-1.78-16.96-4.17,1.16-1.34,2.96-.17,4.11-1.54Z"/>
  <path class="cls-10" d="M225.39,77.57c-5.57-5.06-11.12-10.14-16.71-15.17-.92-.83-1.84-2.71-3.12-.54-1.33,2.27-1.94,1.12-2.5-.67-.94-3-1.89-5.99-2.93-9.26,3.12-.04,5.71,1.4,8.42,1.97,.58,.12,1.3,.72,.79,1.41-2.87,3.86,.52,4.88,2.03,6.69,.74,.89,1.67,1.55,2.51,2.31,2.17,2.56,4.6,4.68,7.29,6.35,2.46,3.08,5.64,4.97,8.46,7.46l-.32,1.78c-1.31-.78-2.62-1.55-3.93-2.33Z"/>
  <path class="cls-10" d="M310.79,79.47c-4.13,.76-7.98-1.17-11.94-1.9-5.98-1.1-11.94-2.46-17.86-3.97-4.26-1.09-8.44-2.6-12.65-3.92,.48-2.17,1.73-1.03,2.77-.99,2.62,.11,5.14,2.35,7.85,.59,8.19,1.28,16.03,4.52,24.12,6.36,2.59,.59,5.33,.22,7.72,1.95,0,.63-.01,1.25-.02,1.88Z"/>
  <path class="cls-6" d="M55.1,100.75c1.65,1.28,3.15,.95,4.85-.13,1.18-.75,2.66-.86,4.03-1.09,1.29-.21,3-1.53,3.72,.61,.55,1.65,1.9,2.4,2.48,4.28-4.68,2.05-9.49,2.69-14.32,3.25-.78-.13-1.51,0-2.16,.59-1.4,.08-2.8,.16-4.2,.25-.63-.25-1.41,.3-1.95-.55,.89-1.02,2.59,.09,3.27-2.01-1.54-.1-2.98-.19-4.94-.31,1.83-1.13,3.61-.2,4.64-1.9-.61-1.21-1.81-.05-2.51-.97,1.96-.86,4.51,.97,5.9-2.06,.4,0,.79,.02,1.19,.03Z"/>
  <path class="cls-6" d="M141.96,94.02c1.81-1.04,3.41-.16,5,.82l-.05-.08c.73,1.76,2.2,1.79,3.5,2.13,2.36,.62,4.76-.76,7.12,.17,3.58,.73,5.83,4.14,8.69,6.3-3.61,1.29-7.3,.86-10.98,.76-.42,0-.84,.01-1.25,.02-2.17-1.48-4.34-2.96-6.52-4.45-1.69-2.1-4.87-2.13-5.46-5.75l-.05,.06Z"/>
  <path class="cls-9" d="M242.95,61.63c-1.15,1.37-2.95,.2-4.11,1.54-1.94,.19-4.99-.61-6.84-1.17,.2-.85,1.6-1.39,1.8-2.24,1.4-.86,3.09,2.03,4.04,.04,.88-1.86-.7-3.69-1.49-5.37-6.12-13.01-11.34-26.53-15.74-40.5-.36-1.14-1.51-2.45-.19-3.81,3.95,11.61,8.02,23.15,12.81,34.31,2.26,5.26,4.65,10.44,6.97,15.67,.61,1.38,1.8,1.13,2.76,1.53Z"/>
  <path class="cls-10" d="M147.47,99.71c2.17,1.48,4.34,2.96,6.52,4.45-6.76,1.23-13.47,2.94-20.32,.09-1.41-.59-3.35,.81-5.07,1.14-3.13,.6-6.25,.71-9.25-.84,.01-.37,.02-.74,.03-1.11,3.72,.7,7.44,1.34,10.75-.11-1.23-1.73-2.45-3.43-3.66-5.14,2.06-.71,3.42,1.11,4.81,2.25,5.49,4.49,11.33,4.54,17.63,2.95-.8-1.69-2.76-1.33-2.78-3.39,.45-.1,.9-.19,1.35-.29Z"/>
  <path class="cls-9" d="M278.22,79.74c13.4,2.65,26.8,5.26,39.9,9.69-.13,.59-.44,1.19-.92,1.05-4.6-1.32-9.32-1.86-13.91-3.49-5.34-1.89-10.93-2.76-16.41-4.05-3.09-.73-6.19-1.4-9.28-2.1,.21-.37,.41-.74,.62-1.11Z"/>
  <path class="cls-8" d="M231.72,105.72c-6.84-.05-13.69-.1-20.53-.15,0-.43,0-.87,0-1.3,2.14-.12,4.31,.39,6.82-.49-1.75-1.6-3.93-1.85-4.81-4.14,.03-.44,.06-.88,.1-1.32,5.49,4.88,11.67,6.65,18.39,5.9,0,.5,.01,1,.02,1.5Z"/>
  <path class="cls-9" d="M259.9,68.41c.02-1.07,.04-2.15,.05-3.22,.89-1.1,1.78-2.2,2.67-3.3,4.38-5.44,7.61-5.35,12.24,.35-.21,.25-.42,.5-.63,.74-6.38-5.26-11.62-2.72-13.11,6.41-.36,2.22-.52,4.48-.77,6.72-.37-.28-.74-.56-1.12-.84,.22-2.29,.44-4.57,.65-6.86Z"/>
  <path class="cls-10" d="M53.91,100.73c-1.39,3.03-3.94,1.2-5.9,2.06,.7,.92,1.9-.25,2.51,.97-1.03,1.7-2.81,.77-4.64,1.9,1.96,.12,3.4,.21,4.94,.31-.67,2.1-2.38,.99-3.27,2.01,.54,.85,1.32,.3,1.95,.55,.03,.42,.05,.83,.08,1.25-2.97,1.6-4.3-1.07-4.85-3.51-.49-2.13,.71-3.98,2.71-5.1,2.22-1.24,4.22-2.03,6.47-.43Z"/>
  <path class="cls-10" d="M245.53,113.73c-5.74,8.41-13.73,9.98-22,10.71,7.8-1.98,15.59-3.98,21.45-11.36,.18,.22,.37,.43,.55,.65Z"/>
  <path class="cls-10" d="M266.27,102.26c-.04-.41-.08-.82-.11-1.24,6.31,2.78,12.33,6.21,17.59,11.38,1.29,1.27,2.38,2.66,3.11,4.45-.18,.17-.35,.35-.52,.53-5.51-7.34-12.69-11.42-20.07-15.13Z"/>
  <path class="cls-10" d="M93.76,124.14c-6.53,1.52-16.32-4.5-17.3-10.52,4.45,6.63,10.18,9.33,17.3,10.52Z"/>
  <path class="cls-9" d="M211.2,104.27c0,.43,0,.87,0,1.3-2.78-.12-5.48-2.06-8.32-.45-.58-.17-1.25-.11-1.54-.95,.27-.62,2.48,.3,1.01-1.55-1.21-1.53-2.87-2.55-4.33-3.79,.22-.3,.45-.6,.67-.89,4.01,2.59,7.76,5.91,12.52,6.33Z"/>
  <path class="cls-6" d="M137.79,83.56c-.33,.07-.78,.05-.97,.24-.83,.79,2.4,.16,.65,1.29-1.42,.92-2.88,.59-4.54,.26-1.82-.36,.14-1.47-.82-1.78,2.49-2.08,4.16-2.08,5.69,0Z"/>
  <path class="cls-10" d="M291.98,124.59c3.1,5.05,5.4,10.53,6.18,16.86-2.03-5.64-4-11.31-6.18-16.86Z"/>
  <path class="cls-11" d="M155.24,104.14c3.68,.09,7.37,.52,10.98-.76,.47,.33,.94,.65,1.41,.98-4.15,1.66-8.3,3.36-12.39-.21Z"/>
  <path class="cls-8" d="M180.15,104.3c.59,.92,1.48,.6,2.25,.8-4.21,1.46-8.35,1.21-12.41-.76,.32-.3,.64-.61,.96-.91,3.03,.84,6.12,.92,9.21,.87Z"/>
  <path class="cls-8" d="M310.79,79.47c0-.63,.01-1.25,.02-1.88,2.63,.53,5.61-.41,7.68,2.57-2.59,.14-5.2,.67-7.7-.69Z"/>
  <path class="cls-8" d="M246.55,105.19c0,.44,0,.87,.01,1.31-3.47,.75-6.75-.09-9.96-1.63,0-.45,0-.9-.01-1.35,3.24,1.24,6.57,1.72,9.96,1.67Z"/>
  <path class="cls-10" d="M119.38,103.44c-.01,.37-.02,.74-.03,1.11-1.88-.91-3.65,.29-5.48,.41-.31-.88,2.13-2.02-.28-2.83-.93-.31-1.62-1.65-2.42-2.51l.55-.67c2.67,1.22,4.65,4.13,7.66,4.5Z"/>
  <path class="cls-11" d="M201.32,104.17c.29,.84,.97,.78,1.54,.95-3.18,1.25-6.38,1.32-9.58,.11,.55-.32,1.11-.63,1.66-.95,2.13-.04,4.25-.07,6.38-.11Z"/>
  <path class="cls-10" d="M244.98,113.08c1.37-1.8,2.74-3.6,4.12-5.4-.06,3.16-1.87,4.56-3.57,6.05-.18-.22-.36-.43-.55-.65Z"/>
  <path class="cls-10" d="M236.59,103.52c0,.45,0,.9,.01,1.35-1.72-.54-3.3,.16-4.88,.84,0-.5-.01-1-.02-1.5,2.73,0-.16-1.98,.64-2.66,1.64-.05,2.75,1.56,4.24,1.97Z"/>
  <path class="cls-10" d="M78.53,90.11c-.02-.41-.05-.82-.07-1.24,2.14,.3,3.29-1.54,4.57-3.09,.19,.23,.37,.45,.56,.68,.24,.97-.39,1.47-.78,2.1-.05,.44-.1,.88-.15,1.32-1.37,.08-2.75,.16-4.12,.23Z"/>
  <path class="cls-9" d="M276.76,68.37c-.48-.05-.95-.09-1.43-.14,.41-1.98-.43-3.59-1.09-5.25,.21-.25,.42-.5,.63-.74,1.57,1.62,1.88,3.81,1.89,6.13Z"/>
  <path class="cls-10" d="M75.27,113.21c-1.13-1.36-1.61-2.98-1.41-5.66,.79,2.06,1.35,3.52,1.91,4.98-.17,.23-.34,.45-.51,.68Z"/>
  <path class="cls-10" d="M289.3,119.95c1.14,.95,1.91,2.22,2.64,4.42-1.84-1.06-2.45-2.52-3.19-3.84,.18-.19,.37-.39,.55-.58Z"/>
  <path class="cls-9" d="M49.59,109.77c-.03-.42-.05-.83-.08-1.25,1.4-.08,2.8-.16,4.2-.25,0,.35,.02,.7,.03,1.05-.37,.03-.75,.06-1.12,.09-.48,.01-.95,.03-1.42,.04l-1.6,.32Z"/>
  <path class="cls-10" d="M53.73,109.32c0-.35-.02-.7-.03-1.05,.65-.59,1.38-.72,2.16-.59,0,.49,0,.98,0,1.48-.71,.05-1.42,.11-2.13,.16Z"/>
  <path class="cls-10" d="M286.87,116.86c.54,.24,1.13,.98,.82,1.36-.75,.9-1-.24-1.34-.82,.17-.18,.34-.36,.52-.53Z"/>
  <path class="cls-10" d="M288.75,120.53c-.46-.45-1.35-.93-.53-1.68,.5-.46,.81,.58,1.08,1.1-.18,.19-.37,.39-.55,.58Z"/>
  <path class="cls-10" d="M75.77,112.53c.17,.29,.55,.73,.49,.86-.38,.76-.68,.14-.99-.18,.17-.23,.34-.45,.5-.68Z"/>
  <path class="cls-8" d="M51.19,109.45c.47-.01,.95-.03,1.42-.04-.47,.29-.94,.47-1.42,.04Z"/>
  <path class="cls-6" d="M211.2,104.27c-4.76-.42-8.51-3.74-12.52-6.33-.27-.24-.54-.49-.82-.72-.59-.5-.04-.5,.19-.62,.86-.47,1.69,1.09,2.68,.02-.7-1.85-2.76-1.39-3.62-3.6,6.06-3.39,10.95-11.01,19.05-7.45,.82,.36,2.07,.29,2.24,1.62,.22,1.72-1.22,1.82-2.09,2.33-2.84,1.66-5.71,3.22-8.57,4.82-.66,.37-1.83,.55-.51,1.76,.39,.13,.77,.25,1.15,.38,.47,.19,.93,.47,1.4,0,0,0,.02,.03,.02,.03,.31,1.29,.97,1.95,2.12,1.71l-.03-.02c-.04,1.11,.82,1.04,1.31,1.45,.88,2.29,3.06,2.54,4.81,4.14-2.51,.88-4.68,.37-6.82,.49Zm-8.48-7.06c1.53,.03,3.04-.03,4.23-1.91-1.67-.49-2.92,.4-4.24,.6-.58,.2-1.64-.41-1.63,.69,.01,1.09,1.02,.58,1.63,.62Z"/>
  <path class="cls-6" d="M186.52,88.75c-4.37,1.93-8.4,4.86-12.94,6.31-3.62,1.16-7.14,1.54-10.86-2.12,3.26-1.78,6.58-2.88,9.18-5.17,3.63-3.18,7.36-2.83,11.29-2.15,1.55,.27,2.88,1.08,3.29,3.17l.04-.05Z"/>
  <path class="cls-6" d="M146.95,94.85c-.24-1.52-.64-2.72,1.23-3.64,3.24-1.61,6.25-3.92,9.35-5.93,2.89-.78,5.77-.8,8.58,.4,.69,.3,1.72,.34,1.87,1.56,.16,1.35-.87,1.49-1.56,1.89-3.24,1.87-6.48,3.7-9.73,5.54-3.25,1.36-6.52,.99-9.79,.1l.05,.08Z"/>
  <path class="cls-6" d="M234.45,90.27c-2.35,1.19-4.69,2.39-7.04,3.58-4.45,2.65-8.91,3.12-13.39,.07l.02,.02c.12-.5,.13-1.35,.37-1.46,5.47-2.41,10.07-7.88,16.51-6.92,.83,.28,1.67,.57,2.5,.85-.73,1.7,3.14,1.62,1.02,3.86Z"/>
  <path class="cls-6" d="M186.48,88.79c1.45,.93,2.27-.51,3.15-1.35,3.7-3.55,7.78-4.01,12.19-2.54,1.57,.52,1.46,1.94,.55,2.56-4.66,3.18-8.9,7.53-14.53,8.16-2.07,.23-3.91-.46-5.47-2.28,.72-2.46,3.95-1.56,4.15-4.6,0,0-.04,.05-.04,.05Z"/>
  <path class="cls-6" d="M180.15,104.3c-3.09,.05-6.17-.03-9.21-.87-3.95-1.05-6.9-4.33-10.25-6.72-.59-.42-1.73-.84-.94-2.14,.44-.73,1.35-.96,1.91-.4,4.98,4.99,11.01,2.6,16.55,3.34,2.99,.4,4.65,2.67,6.7,4.78-1.27,1.82-3.16,1.45-4.76,2.01Z"/>
  <path class="cls-6" d="M232.34,101.55c-.8,.68,2.09,2.66-.64,2.66-6.73,.75-12.9-1.02-18.39-5.9-.46-.16-.88-1.03-1.41-.13l.03,.02c-.15-1.58-.81-2.22-2.12-1.71,0,0-.02-.03-.02-.03,.49-3.13,2.49-2.54,4.26-2.53,0,0-.02-.02-.02-.02,.85,3.27,3.21,3.3,5.37,3.46,2.44,.17,4.89,.02,7.33,.01,.49,.06,.98,.94,1.45-.03l-.04-.05c.95,2.13,1.97,4.16,4.28,4.32l-.08-.07Z"/>
  <path class="cls-6" d="M201.32,104.17c-2.13,.04-4.25,.07-6.38,.11-6.2-.88-11.06-4.82-15.8-9.6,1.64-1.46,2.38-.04,3.16,.56,2.29,1.76,4.61,2.38,7.33,1.65,2.94-.78,5.75,.28,8.38,1.95,1.46,1.24,3.11,2.26,4.33,3.79,1.46,1.84-.74,.93-1.01,1.55Z"/>
  <path class="cls-6" d="M227.42,81.93c-.53,.75,1.42,1.89-.05,2.23-3.92,.9-7.99,3.8-11.7-1,3.7-3.31,7.78-1.9,11.8-1.17,0,0-.05-.06-.05-.06Z"/>
  <path class="cls-10" d="M233.42,86.41c-.83-.28-1.67-.57-2.5-.85-.47-.91-.94-1.82-1.4-2.74,.82-.54,1.16-1.28,.62-2.35,.23-.27,.6-.6,.14-.9-.19-.12-.59,.21-.89,.34,0,0-.06-.02-.06-.02,.11-.59,.21-1.18,.32-1.78,3.19,3.15,6.22,.74,9.29-.38,.14-.02,.24,.05,.32,.19-.03,2.77-1.77,2.4-3.16,2.37-1.87-.04-3.36,1.37-3.91,2.87-.53,1.47,1.73,1.78,2.44,3-.4,.08-.81,.16-1.21,.24Z"/>
  <path class="cls-6" d="M193.86,83.51c-3.45,.42-5.6,4.51-8.79,.77,2.48-2.32,4.98-2.8,8.79-.77Z"/>
  <path class="cls-6" d="M209.54,83.18c-2.68,1.85-5.21,2.35-7.64,.05,2.55-2.25,3.58-2.29,7.64-.05Z"/>
  <path class="cls-10" d="M146.9,94.76c3.27,.89,6.53,1.25,9.79-.1,.83,.52,.78,1.49,.83,2.41-2.36-.93-4.76,.45-7.12-.17-1.3-.34-2.77-.37-3.5-2.13Z"/>
  <path class="cls-6" d="M168.06,84.72c1.95-1.44,3.68-.94,5.4-.67-1.53,1.46-3.04,3.02-5.4,.67Z"/>
  <path class="cls-8" d="M208.39,96.47c-.38-.13-.77-.25-1.15-.38,.38,.13,.77,.25,1.15,.38Z"/>
  <path class="cls-3" d="M218.26,66.43c.01-.86,.02-1.72,.03-2.59,.18,.17,.38,.27,.61,.32,.39,.38,.79,.77,1.18,1.15,.26,.09,.52,.18,.78,.27-.13-.25-.27-.49-.4-.74-.38-.42-.77-.83-1.15-1.25-.98-2.82,1.87-1.5,2.17-2.93,0,0-.04,.02-.04,.02,1.07,.11,2.14,.22,3.2,.33,1.75,.75,3.64,1.2,5.29,.19,1.59-.98,2.25,.45,3.25,1.09,1.86,.56,3.72,1.06,5.65,.87,5.48,2.39,11.34,2.57,16.96,4.17,1.36,.39,2.73,.71,4.1,1.07-.22,2.29-.44,4.57-.65,6.86-4.35-.4-8.47-1.89-12.54-3.68-6.08-2.66-12.25-4.91-18.52-6.79-3.93-1.57-4.01-1.49-3.81,3.93-1.36,.34-2.58-1.27-3.96-.45,0,0,.01,.01,.01,.01-.14-1.61-1.18-1.68-2.16-1.85Z"/>
  <path class="cls-5" d="M274.24,62.98c.67,1.66,1.5,3.26,1.09,5.25-8.36-1.39-8.42-1.4-9.88,8.9-.36,2.52-1.54,4.81-1.33,7.46l.06-.08c-2.12-.38-2.18,2.61-3.99,3.43-.66-4.03,.14-7.93,.16-11.83,.25-2.24,.41-4.51,.77-6.72,1.49-9.13,6.72-11.67,13.11-6.41Z"/>
  <path class="cls-2" d="M269.19,91.59c-1.66,5.91-4.75,10.22-9.75,11.39-3.96,.93-8.2,1.16-11.23-3.69,2.89-1.4,5.88-2.29,8.35-4.52,.36-.32,.94-.77,1.25-.63,4.22,1.94,7.66-.63,11.39-2.56Z"/>
  <path class="cls-6" d="M245.86,87.91c1.28,1.1,3.5-.04,4.13,2.57l.02-.03c-3.31,2.56-6.61,5.17-10.47,6.41-3.49,1.13-6.88,1.49-9.89-2.38,1.72-1.09,3.29-2.09,4.87-3.09,.95-.22,1.88-.49,2.45-1.58,.55-.3,1.1-.61,1.65-.91,2.34,1.29,4.78,3.6,6.55-.94h.35s.35-.05,.35-.05Z"/>
  <path class="cls-2" d="M249.99,90.48c2.19-.33,2.26-2.27,2.23-4.29,0,0-.05,.06-.05,.06,1.84-2.21,3.22-5.42,6.35-4.95,.87,.13-.19,10.18-1.35,11.23-3.03,2.75-6.3,4.89-10.26,4.78-.77-.02-1.53-.17-2.57-.29,1.63-3.07,5.2-2.88,5.66-6.57,0,0-.02,.03-.02,.03Z"/>
  <path class="cls-5" d="M264.13,84.6c.98-.18,1.25-1.18,1.54-2.08,1.07-3.32,2.78-3.96,5.72-3.18,2.71,.71,2.73,1.72,1.56,4.08-2.53,5.1-6.12,8.45-10.96,9.73-.96,.25-2.25,.67-2.67-.88-.36-1.31,.17-2.41,1.45-2.87,1.97-.72,2.87-2.64,3.42-4.88,0,0-.06,.08-.06,.08Z"/>
  <path class="cls-6" d="M236.59,103.52c-1.49-.41-2.61-2.02-4.24-1.97,0,0,.08,.07,.08,.07,.29-1.8-1.15-1.97-1.83-2.85,.2-.28,.39-.56,.59-.84,2.56,1.21,5.09,1.24,7.84,.59,3.02-.72,6.21-1.15,8.4,2.86,.62,1.13,2.1,1.58,3.22,2.37-1.28,1.18-2.7,1.23-4.08,1.44-3.39,.05-6.72-.42-9.96-1.67Z"/>
  <path class="cls-5" d="M251.5,81.1c-.21-2.83-2.8-3.85-3.36-6.81,3.53,.55,7.1,.54,9.37,4.94-1.93,1.33-3.49,3.71-6.02,1.86h.01Z"/>
  <path class="cls-9" d="M244.79,71.89c-5.55-2.01-11.11-4.03-16.66-6.04,.02-.35,.04-.7,.06-1.06,6.27,1.88,12.45,4.14,18.52,6.79-.64,.1-1.28,.21-1.93,.31Z"/>
  <path class="cls-9" d="M226.73,97.39c-2.44,0-4.89,.16-7.33-.01-2.16-.15-4.52-.19-5.37-3.46,4.47,3.05,8.94,2.58,13.39-.07,.05,.42,.09,.84,.14,1.26,.04,.41,.09,.81,.13,1.22-.32,.36-.64,.71-.96,1.07Z"/>
  <path class="cls-2" d="M251.49,81.09c.85,1.6,.5,3.44,.68,5.17,0,0,.05-.06,.05-.06-1.23-.47-.91,2.51-1.84,1.53-1.22-1.3-2.28-3.12-2.8-4.97-.21-.74,1.53-1.29,2.55-1.5,.45-.09,.91-.11,1.36-.16,0,0-.01,0-.01,0Z"/>
  <path class="cls-9" d="M236.97,89.81c-.57,1.09-1.5,1.36-2.45,1.58-.02-.38-.05-.75-.07-1.13,2.11-2.24-1.75-2.16-1.02-3.86,.4-.08,.81-.16,1.21-.24,.71-.05,1.42-.1,2.13-.15,.23,1.25-.69,2.6,.21,3.79Z"/>
  <path class="cls-4" d="M245.86,87.91l-.35,.06s-.35,0-.35,0c.05-2.45-.53-4.69-1.54-6.79,.55,.04,1.1,.08,1.65,.11,.05,.52-.06,1.31,.17,1.51,1.82,1.55,2.16,3.18,.41,5.11Z"/>
  <path class="cls-6" d="M227.68,96.32c-.04-.41-.09-.81-.13-1.22,1.59,.23,2.42,1.88,3.62,2.83-.2,.28-.39,.56-.59,.84-.82-.49-1.64-.98-2.45-1.47,0,0,.04,.05,.04,.05,.14-.56-.14-.83-.5-1.04Z"/>
  <path class="cls-6" d="M78.53,90.11c1.37-.08,2.75-.16,4.12-.23,.89,.72,.48,1.43,0,2.14-.01,.33-.14,.87-.03,.96,.46,.36,.76-.05,.97-.53,.2-.21,.4-.42,.6-.64,3.83-3.05,7.88-4.78,12.53-3.11,.84,.3,1.58,.49,1.46,1.82l.06-.05c-1.29,.34-2.21,1.27-2.88,2.61,0,0,.06-.06,.06-.06-1.58,.69-2.83,1.95-3.99,3.38-2.94,1.69-5.92,3.15-9.28,2.59-.9-.15-2.13,.26-2.57-.81-.61-1.49,1.17-1.75,1.45-2.9,.4-.43,1.29-.86,.88-1.46-.64-.94-1.13,.09-1.55,.69-2.02,.77-2.64,4.6-5.45,3.66l.02,.03c.01-.31,.03-.63,.04-.94-.26,.02-.52,.04-.78,.06l.05,.07c-.2-3.83,1.07-6.39,4.3-7.27Z"/>
  <path class="cls-6" d="M98.18,90.52c.98,1.12,1.47-.24,1.9-.74,4.03-4.63,8.74-4.93,13.79-3.43l-.06-.06c-.49,1.32,1.27,2.03,.63,3.39,0,0,.03-.03,.03-.03-2.71,.64-4.63,3.01-6.84,4.69-4.37,3.32-8.83,3.46-13.44,1.64-.23-1.65,2.26-1.03,1.22-2.95,0,0-.06,.06-.06,.06,1.72,.34,2.64-.59,2.88-2.61l-.06,.05Z"/>
  <path class="cls-6" d="M142,93.97c-1.72-1.06-2.97,.75-4.44,1.15-3.11,.85-6.03,1.23-8.7-2.51,4.41-2.13,7.61-6.43,12.26-7.68,2.65-.71,5.14-.25,7.59,.94,.59,.29,1.47,.37,1.44,1.53-.02,1.04-.8,1.29-1.37,1.75-2.21,1.76-5.24,1.85-6.83,4.88,0,0,.05-.06,.05-.06Z"/>
  <path class="cls-6" d="M114.44,89.67c1.85,.95,3.09-.94,4.12-1.9,4.22-3.96,8.72-2.89,13.3-1.79,.55,.13,1.31,.35,1.2,1.2-.08,.57-.6,1.15-1.03,1.53-2.22,1.96-5.09,2.68-7.01,5.24,0,0,.06-.05,.06-.05-4.65,1.19-9.3,2.14-13.97-.11,.75-2.03,3.26-1.62,3.37-4.14l-.03,.03Z"/>
  <path class="cls-6" d="M146.12,100c.02,2.05,1.98,1.69,2.78,3.39-6.3,1.59-12.15,1.54-17.63-2.95-1.39-1.14-2.75-2.96-4.81-2.25,0,0,.01,.02,.01,.02,.76-1.22-.23-1.24-.74-1.59-1.18-.57-.21-1.89-.66-2.72,0,0-.06,.05-.06,.05,1.83-.31,3.38,.15,4.94,1.61,1.79,1.67,3.95,1.68,6.29,1.35,3.5-.49,6.85,.82,9.88,3.1Z"/>
  <path class="cls-6" d="M113.87,86.35c-.41-1.15-1.25-2.27,.66-2.85,2.23-.68,4.35-.93,6.54,.51-2.18,2.16-4.65,2.52-7.26,2.28,0,0,.06,.06,.06,.06Z"/>
  <path class="cls-6" d="M82.8,88.56c.4-.63,1.03-1.12,.78-2.1,1.96-.89,3.95-1.45,6.46-.8-1.67,2.36-3.44,3.71-5.92,3.44-.44-.18-.89-.37-1.33-.55Z"/>
  <path class="cls-6" d="M103.22,84.97c-1.97,.99-2.43,3.82-4.86,3.03-.92-.3-1.56-.84-1.72-1.78-.22-1.34,.95-1.32,1.56-1.46,1.46-.36,2.98-.45,5.02,.22Z"/>
  <path class="cls-6" d="M155.55,84.04c-2,2.55-3.97,2.76-6.41,.24,2.18-1.64,4.18-1.29,6.41-.24Z"/>
  <path class="cls-10" d="M82.8,88.56c.44,.18,.89,.37,1.33,.55,.02,.9,.04,1.8,.06,2.71-.2,.21-.4,.42-.6,.64-.31-.14-.63-.29-.94-.43,.49-.71,.9-1.42,0-2.14,.05-.44,.1-.88,.15-1.32Z"/>
  <path class="cls-6" d="M77.96,98.83c4.86,4.81,8.61,1.63,12.46-.27,1.11-.54,1.94,.28,2.49,1.01,1.54,2.04,3.56,3.02,5.63,4.13-5.83,4.48-18,2.29-20.58-4.87Z"/>
  <path class="cls-10" d="M125.07,93.9c.45,.83-.52,2.15,.66,2.72,0,.46,0,.91-.01,1.37-1.82-1.63-3.93-1.61-6.02-1.44-2.82,.23-5.57-.18-8.29-1.05-.96-.3-2.19-1.52-2.79-.06-.58,1.43,1.43,1.4,1.73,2.59-.15,.26-.3,.52-.45,.78-1.89-1.36-3.88-1.69-6.02-1.05-3.83,1.14-7.57,.78-11.18-1.17-.42-.06-.84-.13-1.26-.19,1.16-1.43,2.4-2.69,3.99-3.38,1.04,1.91-1.45,1.3-1.22,2.95,4.61,1.82,9.07,1.67,13.44-1.64,2.21-1.68,4.13-4.06,6.84-4.69-.1,2.52-2.61,2.11-3.37,4.14,4.67,2.25,9.32,1.3,13.97,.11Z"/>
  <path class="cls-6" d="M74.91,98.18c-.04,1.7,1.77,1.64,2.02,3.2,.16,1.01,1.72,1.55,1.26,2.72-.55,1.37-1.88,.88-2.88,.7-2.95-.55-5.14-2.37-6.56-5.67-1.03-2.39-1.27-4.37,1.07-5.61,2.16-1.14,3.28-.02,3.56,2.71,.04,.42,.56,.77,.87,1.16,0,0-.05-.07-.05-.07-.04,.64,.15,1.01,.74,.89l-.02-.03Z"/>
  <path class="cls-10" d="M111.16,99.61c-.42-.27-.85-.53-1.27-.8,.15-.26,.3-.52,.45-.78,.46,.3,.92,.6,1.38,.91l-.55,.67Z"/>
  <path class="cls-6" d="M111.72,98.94c-.46-.3-1.26-.64-1.72-.94-.3-1.19-1.97-1.13-1.39-2.56,.6-1.47,1.83-.25,2.79,.06,2.72,.87,5.47,1.28,8.29,1.05,2.1-.17,4.21-.19,6.02,1.44,.2,.33,.42,.59,.76,.22,0,0-.01-.02-.01-.02,1.22,1.71,2.43,3.41,3.66,5.14-3.31,1.45-7.02,.81-10.75,.11-3.01-.37-4.99-3.28-7.66-4.5Z"/>
  <path class="cls-9" d="M211.9,98.19c.53-.9,.94-.03,1.41,.13-.03,.44-.06,.88-.1,1.32-.49-.42-1.35-.34-1.31-1.45Z"/>
  <path class="cls-11" d="M218.09,63.11c-.14-1.41,.35-2.29,1.51-2.59,.62,.05,1.25,.1,1.87,.16-.3,1.43-3.15,.11-2.17,2.93-.14,.19-.27,.37-.4,.57-.23-.04-.43-.15-.61-.32,0-.28-.06-.53-.2-.74Z"/>
  <path class="cls-9" d="M229,65c-.02,.35-.12,.15-1,1,.88,.15-2.39-.93-2,1,1,5-2,4-4,3-.34-.73-2-1-2.58-1.73,1.38-.82,2.61,.78,3.96,.45-.2-5.41,1.62-5.72,5.62-3.72Z"/>
  <polygon class="cls-7" points="217.16 65.49 217.11 65.26 217.28 65.3 217.16 65.49"/>
  <path class="cls-10" d="M229.39,79.92c.3-.13,.7-.46,.89-.34,.46,.29,.09,.63-.14,.9-.25-.19-.5-.37-.75-.56Z"/>
  <path class="cls-8" d="M202.71,95.9c1.32-.2,2.56-1.09,4.24-.6-1.19,1.88-2.7,1.94-4.23,1.91,0-.44,0-.87,0-1.31Z"/>
  <path class="cls-9" d="M209.81,96.5c1.3-.5,1.97,.14,2.12,1.71-1.15,.23-1.81-.43-2.12-1.71Z"/>
  <path class="cls-9" d="M202.71,95.9c0,.44,0,.87,0,1.31-.61-.03-1.62,.47-1.63-.62-.01-1.1,1.05-.5,1.63-.69Z"/>
  <path class="cls-10" d="M228.14,97.31c.82,.49,1.64,.98,2.45,1.47,.68,.88,2.12,1.06,1.83,2.85-2.31-.16-3.33-2.19-4.28-4.32Z"/>
  <path class="cls-10" d="M227.68,96.32c.36,.21,.63,.48,.5,1.04-.47,.97-.97,.08-1.45,.03,.32-.36,.64-.71,.96-1.07Z"/>
  <path class="cls-4" d="M236.76,86.02c-.71,.05-1.42,.1-2.13,.15-.71-1.21-2.97-1.53-2.44-3,.55-1.5,2.04-2.91,3.91-2.87,1.39,.03,3.13,.4,3.16-2.37,1.31,1.92,2.92,3.56,3.69,5.96-1.68,2.34-3.98,2.06-6.19,2.13Z"/>
  <path class="cls-10" d="M242.95,83.89c-.78-2.4-2.38-4.04-3.69-5.96-.07-.14-.18-.21-.32-.19-.36-.35-.78-.64-1.06-1.07-.41-.63-1.76-.99-.7-2.16,.61-.67,1.26-.08,1.77,.59,1.55,2.04,3.11,4.05,4.67,6.07,1.01,2.1,1.59,4.34,1.54,6.79-1.77,4.54-4.21,2.23-6.55,.94,.13-.96,.77-1.07,1.29-.86,3.82,1.56,3.91-.78,3.04-4.16Z"/>
  <path class="cls-11" d="M220.09,65.31c-.39-.38-.79-.77-1.18-1.15,.13-.19,.26-.38,.4-.57,.39,.41,.77,.83,1.16,1.24-.14,.15-.26,.3-.38,.47Z"/>
  <path class="cls-11" d="M220.46,64.84c.13,.25,.27,.49,.4,.74-.26-.09-.52-.18-.78-.27,.11-.17,.24-.32,.38-.47Z"/>
  <path class="cls-4" d="M236.76,86.02c2.22-.08,4.51,.21,6.19-2.13,.86,3.39,.78,5.73-3.04,4.16"/>
  <path class="cls-10" d="M98.24,90.48c-.25,2.02-1.17,2.96-2.88,2.61,.67-1.34,1.59-2.27,2.88-2.61Z"/>
  <path class="cls-9" d="M80.36,94.52c.42-.6,.91-1.63,1.55-.69,.41,.6-.49,1.03-.88,1.46-.22-.26-.45-.51-.67-.77Z"/>
  <path class="cls-9" d="M83.58,92.45c-.22,.48-.51,.89-.97,.53-.11-.09,.02-.63,.03-.96,.31,.14,.62,.29,.94,.43Z"/>
  <path class="cls-9" d="M74.93,98.21c-.59,.12-.78-.24-.74-.89,.26-.02,.52-.04,.78-.06-.01,.31-.03,.63-.04,.94Z"/>
  <path class="cls-8" d="M126.47,98.2c-.34,.38-.55,.11-.76-.22,0-.46,0-.91,.01-1.37,.51,.35,1.5,.37,.74,1.59Z"/>
  <path class="cls-9" d="M224.34,66.75c.36,0,.72-.01,1.08-.02,.17,3.99-.38,4.73-3.23,3.31-2.22-1.11-4.35-2.66-6.31-4.37-2.5-2.18-3.46-3.81-3.28-5.62,.22-2.21,2.45-4.13,5.4-5.05-.19,.48,4,2-1.23,1.93-1.1,1.11-2.15,1.15-2.59,2.12-.4,.89-.05,1.82,.08,2.22,1.17,3.49,9.55,5.36,10.08,5.48Z"/>
  <path class="cls-3" d="M232,59c-.13,0-.23-.03-.28-.04,.35,.36,2.28,.04,2.28,1.04,.99,.32,.91-.03,.98,.16,.16,.4-2.41,2.64-5.43,2.6-2.01-.03-3.15-.46-3.15-.46-1.03-.36-2.26-1.16-3.08,.02-.99,1.42,.1,2.96,.42,4.43-.09,.37-.13,1.02-.27,1.06-2.33,.64-8.25-3.47-9.24-6.51-1.01-3.09,1.21-3.26,2.31-4.42,1.35-.27,2.71-.55,4.06-.82,.4-.02,.8-.02,1.21-.02,2.67,0,5.08,2.41,7.17,2.97m-11.41,2.62c-.81-2.93,1.12-2.57,2.09-2.88,2.33-.74,4.73-.15,7.09-.09,.36,0,1.05,.16,1.58-.24,.49-.37,.61-1.01,.65-1.41m-12.03,5.14,2.21,.96c-.31-.3-.63-.73-.94-.08-.04,.08,.32,.51,.49,.77,.3,.59,.65,.85,1.12,.29-.22-.33-.45-.66-.67-.99Z"/>
  <path class="cls-8" d="M219.5,63.11c.24,.33,.47,.66,.71,.98-.5,.55-.87,.29-1.19-.3,.16-.23,.32-.46,.48-.69Z"/>
  <path class="cls-8" d="M219.02,63.79c-.18-.26-.56-.69-.52-.77,.33-.64,.67-.21,1,.08-.16,.23-.32,.46-.48,.68Z"/>
  <path class="cls-9" d="M239.97,60.25l-14.47-4.35c-4.51-.9-4.82-1.29-7.51-.9-3.43,.49,14.84,5.78,17.54,5.72"/>
  <path class="cls-6" d="M94.92,99.86c-.21-.64-1.73-1.81-2.17-2.59-.2-.36,.35-.98,.54-.62,.67,1.29,7.65,1.53,8.39,1.29,2.89-.96,4.82-.96,6.75,0s1.93,.96,2.89,1.92l1.93,1.92s-.69-.64-.11-.1c.07,.07,.2,.03,.26,.11,.81,.95,2.44,1.3,.6,2.21-3.86,0-7.77,.37-11.36-.3-2.9-.35-2.25-.75-4.82-1.92"/>
  <text class="cls-16" transform="translate(100.34 125.78) scale(.86 1)"><tspan class="cls-12" x="0" y="0">D</tspan><tspan class="cls-15" x="5.42" y="0">ùng </tspan><tspan class="cls-14" x="20.63" y="0">k</tspan><tspan x="24.57" y="0">im móc lớn hơn để móc d</tspan><tspan class="cls-19" x="110.76" y="0">â</tspan><tspan x="114.6" y="0">y bính </tspan></text>
  <text class="cls-17" transform="translate(248.27 148.64) scale(.79 1)"><tspan class="cls-1" x="0" y="0">Đ</tspan><tspan x="6.16" y="0">ổi sang </tspan><tspan class="cls-13" x="35.37" y="0">k</tspan><tspan class="cls-18" x="39.81" y="0">im móc nhỏ hơn để móc </tspan></text>
</svg>