<?xml version="1.0" encoding="utf-8"?>
<!-- Generator: Adobe Illustrator 27.0.0, SVG Export Plug-In . SVG Version: 6.00 Build 0)  -->
<svg version="1.1" id="Layer_1" xmlns="http://www.w3.org/2000/svg" xmlns:xlink="http://www.w3.org/1999/xlink" x="0px" y="0px"
	 viewBox="0 0 414 200" style="enable-background:new 0 0 414 200;" xml:space="preserve">
<style type="text/css">
	.st0{fill:#47413F;}
	.st1{fill:#322C27;}
	.st2{fill:#FBB040;}
	.st3{fill:#FFF8B8;}
	.st4{fill:#A3CEDA;}
	.st5{fill:#655F55;}
	.st6{fill:#737171;}
	.st7{fill:#BDB5B3;}
	.st8{fill:#BBAC97;}
	.st9{fill:#E8E0CB;}
	.st10{fill:#E9E5DD;}
	.st11{fill:#B5D3DA;}
	.st12{fill:#F7B7D3;}
	.st13{fill:#00BFF3;}
	.st14{fill:#ECEAEA;}
	.st15{fill:#FFF200;}
	.st16{fill:#101010;}
	.st17{fill:#4F4A48;}
	.st18{fill:#433E3A;}
	.st19{fill:#E6E2DA;}
	.st20{fill:#6C635C;}
	.st21{fill:#BAB8B9;}
	.st22{fill:#EDE9E0;}
	.st23{fill:#E7E0CC;}
	.st24{fill:#BAAD98;}
	.st25{fill:#EBEAEA;}
	.st26{fill:#B0D2DA;}
	.st27{fill:#FDFDFD;}
</style>
<path class="st16" d="M267.17,178.04c-2.14-0.08-2.95,1.78-4.54,2.52c-0.18,0.11-0.36,0.21-0.55,0.32c-6.48,3.63-13.64,3.48-20.83,3
	c-4.27-0.29-8.52-0.76-12.56-2.17c-0.57-0.2-1.28-0.09-1.92-0.12c-0.18,0.12-0.37,0.24-0.55,0.36c-0.05,0.17-0.18,0.24-0.37,0.21
	c-0.25,0.16-0.49,0.32-0.74,0.47c-0.19,0.4-0.53,0.55-1,0.53c-0.23,0.08-0.46,0.16-0.68,0.24c-0.9,0.81-2.09,0.95-3.26,1.13
	c-5.38,0.08-10.77,0.4-16.13-0.32c-0.28-0.04-0.56-0.07-0.83-0.11c-0.94-0.66-1.99-0.97-3.19-0.84c-2.01-0.51-3.59,1.03-5.52,0.95
	c-1.37,0.53-3.34-0.36-4.2,1.42c-0.6,0.09-1.19,0.19-1.79,0.28c-0.59-0.25-1.14-0.25-1.59,0.26c-0.66,0.02-1.32,0.05-1.98,0.07
	c-0.25,0.02-0.49,0.04-0.74,0.07c-0.61,0.27-1.23,0.3-1.87,0.09c-2.52-0.5-5.05-0.28-7.58-0.09l-0.22,0.06c0,0-0.17-0.13-0.17-0.13
	c-0.36-0.01-0.73-0.01-1.09-0.02c-0.31-0.02-0.62-0.04-0.93-0.06c-0.49-0.61-1.18-0.53-1.87-0.44l-0.21,0.04
	c0,0-0.17-0.12-0.17-0.12c-0.04-0.9-0.81-0.91-1.52-1.1c-0.83-0.22-1.04-0.65-0.21-1.16c2.07,0.39,4.15,0.78,6.23,1.16
	c0.14,0.29,0.24,0.82,0.43,0.85c2.91,0.43,5.83,0.46,8.73-0.03c0.18-0.03,0.26-0.57,0.39-0.88c3.9-0.67,8-0.59,11.99-2.46
	c-2.8-1.24-5.45-2.06-7.07-3.88c-1.77-2-3.2-1.25-5.22-0.61c-5.23,1.66-10.61,1.52-15.86,0.05c-3.26-0.91-6.54-1.85-9.63-3.23
	c-0.75-0.33-1.81-0.19-2.3,0.44c-0.58,0.74,0.45,1.11,0.87,1.61c2.93,3.49,7.35,4.99,11.41,6.98c-0.87,0.15-1.74,0.3-2.61,0.46
	c-0.79-0.29-1.58-0.57-2.37-0.86c-0.21-0.26-0.39-0.23-0.55,0.04c-2.33,1.02-4.77,1.57-7.37,1.43c-1.57-0.62-3.18-0.29-4.79-0.17
	c-0.43-0.02-0.86-0.05-1.29-0.07c0.01-0.41,0.02-0.82,0.02-1.23c3.79,0.1,7.59,0.38,11.91-1.14c-3.14-1.69-5.41-3.7-7.4-5.97
	c-0.7-0.81-1.74-0.42-2.62-0.2c-2.18,0.55-4.4,0.55-6.63,0.6c0.07-0.43,0.14-0.85,0.21-1.28c3.83-0.63,7.66-1.2,11.46-2.04
	c6.66-1.47,11.94-5.66,18.47-7.3c0.56-0.14,1.49-0.12,1.58-0.83c0.1-0.8-0.83-1.01-1.4-1.4c-5.11-3.62-11.08-3.09-16.51-1.68
	c-8.31,2.15-16.36,5.18-23.89,9.15c-0.47,0.25-1.25,0.28-1.3,0.81c-0.06,0.67,0.7,0.96,1.29,1.17c1.9,0.67,3.82,1.28,5.73,1.92
	c0.02,0.43,0.04,0.87,0.06,1.3c-3.12,0.05-5.66-1.37-8.22-2.7c-0.95-0.49-2.03-1.5-2.88-0.42c-0.7,0.88,0.71,1.56,1.31,2.22
	c2.6,2.89,6.22,4.52,9.78,6.18c-0.79,1.65-2.01-0.1-2.96,0.31c-0.64,0-1.4-0.21-1.9,0.03c-7.48,3.55-15.26,2.19-23,1.14
	c-1.92-0.26-3.88-0.71-5.61-1.48c-1.57-0.7-2.78-0.64-4.07,0.26c-0.19,0.11-0.38,0.22-0.57,0.33c-0.47,0.44-1.04,0.68-1.73,0.66
	c-0.64-0.02-1.28-0.02-1.67,0.57c-0.43,0.03-0.85,0.06-1.28,0.09c-1.07-0.38-2.52,0.36-3.31-0.88c0.8-0.06,1.59-0.13,2.39-0.19
	c1.29,0.28,2.48,0.22,3.36-0.85c2.89-1.48,2.87-1.44,0.2-3.04c-1.91-1.14-3.85-2.28-5.57-3.64c-1.45-1.15-2.85-1.29-4.62-0.89
	c-3.35,0.75-6.74,1.3-10.22,1.24c0-0.49,0-0.98,0-1.47c12.86-0.5,24.07-5.49,35.45-10.32c-2.67-2.8-8.37-4.21-12.97-3.81
	c-4.87,0.42-9.29,1.78-13.69,3.69c-3.99,1.73-7.84,3.86-12.2,4.87c0-0.35,0.01-0.7,0.01-1.05c0.5-0.34,1-0.69,1.5-1.03
	c0.25-0.13,0.5-0.25,0.76-0.38c0.31-0.12,0.62-0.24,0.94-0.36c0.59-0.23,1.17-0.46,1.76-0.68c0.66-0.25,1.59-0.36,1.59-1.15
	c0-0.7-1.04-0.51-1.46-0.89c-1.36-1.23-3.17-1.47-4.91-1.87c0.01-0.14-0.07-0.21-0.22-0.21c0.02-0.34,0.04-0.68,0.07-1.01
	c0,0,0-0.02,0-0.02c2.89-0.2,5.32,1.03,7.82,2.05c0.79,0.91,1.57,2.39,2.42,0.04c2.16-0.3,4.07-1.12,6.29-2.17
	c-4.72-2.31-9.24-3.14-14.08-2.57c-1.05,0.12-2.3,0.67-2.59-0.93c0,0,0.09-0.11,0.09-0.11c0.19-0.12,0.37-0.24,0.56-0.36
	c0.2-0.05,0.39-0.1,0.59-0.14c2.63,0,5.26-0.01,7.9-0.01c0.71,0.07,1.42,0.14,2.13,0.21c0.2,0.05,0.41,0.1,0.61,0.15
	c0.89,0.43,1.81,0.8,2.85,0.82c0.49,1.2,1.54,1.52,2.82,1.47c2.84,1.16,5.54,0.18,8.2-0.56c1.5-0.41,2.9-1.14,4.29-1.82
	c6.83-3.34,13.03-1.09,19.03,1.88c3.64,1.8,7.27,1.15,10.62,0c7.85-2.69,15.3-3.47,22.26,1.8c0.46,0.35,0.97,0.67,1.5,0.5
	c2.98-0.92,6.14-0.7,9.2-1.8c5.48-1.97,11.06-1.05,16.06,1.72c1.67,0.92,2.1,0.48,2.91-0.75c1.94-2.96,3.84-5.99,6.7-8.33
	c1.14-0.93,0.76-1.66,0.23-2.64c-3.77-6.95-6.65-14.2-8.44-21.78c-1.54-6.54-2.18-13.16-1.72-19.84c0.09-1.35-0.31-2.26-1.38-3.32
	c-7.92-7.87-14.14-16.77-19.54-26.2c-3.81-6.65-7.11-13.48-10-20.48c-3.16-7.64-5.45-15.52-7.71-23.41c0.1-0.65,0.01-1.26-0.48-1.79
	c0.02-1.66-0.32-3.26-0.95-4.81c-0.07-0.21-0.14-0.42-0.21-0.64c-0.12-3.36-0.94-6.64-1.51-9.95c0.11-0.37,0.22-0.74-0.17-1.05
	c0.15-0.84,0.63-1.26,1.62-1.08c1.79,10.03,3.43,20.08,6.68,29.87c4.47,13.48,10.26,26.42,18.01,38.65
	c4.21,6.64,9.2,12.77,14.37,18.79c0.32,0.37,0.88,0.78,1.34,0.79c0.9,0.02,0.82-0.8,0.88-1.32c0.2-1.63,0.64-3.3,1.91-4.38
	c2.06-1.76,1.29-3.23-0.09-4.73c-6.78-7.34-11.82-15.65-16.38-24.21c-4.12-7.73-7.7-15.65-10.09-23.98
	c0.98-0.25,1.16,0.66,1.75,0.98c1,1.09,1.16,2.42,1.35,3.75c-0.15,0.59-0.1,1.1,0.65,1.33c0.14,0.44,0.29,0.87,0.43,1.31
	c-0.11,0.54-0.02,0.99,0.62,1.22c0.13,0.35,0.26,0.71,0.39,1.06c0.11,1.67,0.36,3.29,1.83,4.51c0.85,0.98,1.32,2.1,1.66,3.29
	c0.02,1.06,0.13,2.09,1.18,2.79c0.13,0.18,0.25,0.37,0.38,0.55c0.01,0.18,0.1,0.31,0.26,0.4c3.93,7.14,7.99,14.22,12.96,20.82
	c1.57,2.08,3.44,3.98,5.16,5.97c0.8,0.93,1.52,0.88,2.58,0.18c2.69-1.78,5.75-2.74,9.12-2.83c1.06-0.03,2-0.3,2.86-0.89
	c1.57-1.08,3.31-1.79,5.23-2.27c1.5-0.37,2.92-0.97,4.04-2.12c2.33-2.4,5.44-3.11,8.87-2.91c4.19,0.25,8.8-3.3,8.89-7.04
	c0.04-2.01,1.82-3,2.72-4.5c0.47-0.78,0.94-1.39,0.54-2.3c-0.46-1.06-1.46-0.92-2.36-0.9c-9.24,0.27-18.48,0.56-27.72,0.85
	c-1.43,0.04-2.24,0.44-1.22,1.83c0.05,0.07,0.13,0.13,0.16,0.2c3.03,5.75,2.92,5.81-4.58,6.42c-1.43-0.69-2.93-0.67-4.47-0.42
	c-0.73-0.13-1.47-0.25-2.2-0.38c-0.35-0.56-0.87-0.61-1.47-0.39c-1.9-0.14-3.59-0.86-5.17-1.74c-4.1-2.29-4.33-5.65-0.97-8.77
	c3.54-3.28,7.94-4.93,12.69-5.8c5.93-1.08,12-1.58,17.91-2.76c5.09-1.02,10.2-1.9,15.36-2.5c1.75-0.2,1.54-1.46,1.81-2.45
	c1.93-6.95,6.77-10.16,14.62-9.63c4.32,0.29,7.51,2.47,9.14,5.81c1.04,2.13,2.23,2.59,4.37,2.31c0.18-0.03,0.37-0.06,0.55-0.09
	c0.42-0.07,0.85-0.15,1.27-0.22c1.01,0.77,1.78-0.11,2.65-0.3c0.43-0.05,0.86-0.11,1.29-0.16c0.66,0.49,1.21,0.43,1.63-0.26
	c0.91-0.42,1.88-0.46,2.87-0.41c1.48-0.37,3.5,0.99,4.42-1.13c1.23-0.41,2.51-0.44,3.8-0.46c1.53,0.3,2.92-0.28,4.36-0.53
	c0.59-0.36,1.25-0.43,1.94-0.36c0.48,0.57,0.83,0.37,1.11-0.16c1.65-0.66,3.42-0.53,5.16-0.63c1.84-0.15,3.74-0.03,5.48-0.79
	c0.44-0.06,0.87-0.11,1.31-0.17c0.76,0.13,1.54,0.37,2.08-0.4c0.95-0.11,1.89-0.21,2.84-0.32c0.65,0.54,1.21,0.49,1.65-0.23
	c1.49-0.61,3.08-0.58,4.67-0.55c0.93,0.05,1.94,0.5,2.62-0.5c1.36-0.5,2.8-0.43,4.23-0.47c0.88,0.07,1.8,0.32,2.49-0.46
	c1.9-0.24,3.81-0.49,5.71-0.73c2.46-0.23,5.12,0.33,7.15-1.55c0.39-0.03,0.78-0.06,1.17-0.09c0.22,0.26,0.41,0.2,0.58-0.05
	c0,0,0.12-0.02,0.12-0.02c0.26-0.03,0.52-0.06,0.79-0.09c1.08-0.46,2.2-0.65,3.39-0.54c0.22-0.03,0.43-0.06,0.65-0.08
	c0.6-0.07,1.21-0.14,1.81-0.22c0.84,0.71,1.48,0.21,2.12-0.28c0.41-0.08,0.82-0.16,1.24-0.24c0.43,0.45,0.78,0.33,1.08-0.12
	c2.61-0.35,5.16-1.11,7.84-1.02c0.03,0.4,0.07,0.8,0.1,1.21c-5.13,1.01-10.37,1.38-15.49,2.64c-4.54,1.11-9.36,1.3-14.05,1.94
	c-13.16,1.79-26.33,3.6-39.49,5.4c-1.16,0.29-2.76-0.79-3.45,0.93c-7.87,1.14-15.76,2.19-23.6,3.47c-2.44,0.4-5.17-0.03-7.27,1.64
	c0,0,0.04-0.02,0.04-0.02c-0.55-0.13-1.16-0.16-1.54,0.23c-0.31,0.32,0.07,0.58,0.41,0.73c-0.23,0.6-1.35,0.64-1.17,1.5
	c-0.43,1.94,0.31,3.78,0.52,5.67c0.3,2.72,1.72,3.57,4.51,3c0.29-0.02,0.57-0.03,0.86-0.05c0.34-0.05,0.68-0.09,1.02-0.14
	c0.87,0.31,1.59-0.09,2.34-0.39c1.97-0.44,3.96-0.42,5.96-0.33c3.07,0.5,5.57-1.29,8.41-1.72c1.06-0.46,2.19-0.44,3.32-0.38
	c1.17-0.08,2.47,0.45,3.42-0.6c1.12-0.11,2.24-0.22,3.36-0.32c0.68,0.6,1.25,0.57,1.68-0.24c0.61-0.42,1.31-0.49,2.05-0.41
	c0.34-0.01,0.68-0.01,1.02-0.02c2.89-0.71,5.84-1.11,8.84-1.15c0.63,0.23,1.19,0.24,1.55-0.39c0.56-0.07,1.12-0.14,1.68-0.21
	c0.2,0.21,0.38,0.18,0.54-0.04c1.64-0.24,3.28-0.48,4.92-0.72c0.2-0.02,0.4-0.03,0.59-0.05c0.98-0.11,1.95-0.22,2.93-0.34
	c0.55,0.63,0.88,0.35,1.13-0.23c1.05-0.48,2.18-0.42,3.3-0.35c0.23-0.01,0.47-0.02,0.7-0.03c0.72-0.15,1.44-0.31,2.16-0.46
	c1.48,0,2.95,0,5.07,0c-1.55,0.57-2.45,0.89-3.34,1.22c-0.59,0.07-1.19,0.13-1.78,0.2c-0.42-0.47-0.78-0.36-1.09,0.11
	c-0.43,0.05-0.86,0.1-1.29,0.14c-2.04,0.12-4.12,0-6.02,0.89c-1.39,0.6-2.87,0.58-4.36,0.52c-1.34-0.3-2.53,0.35-3.79,0.51
	c-0.58,0.46-1.27,0.42-1.97,0.35c-1.38-0.28-2.67-0.09-3.88,0.58c-1.14,0.14-2.28,0.28-3.42,0.42c-0.44-0.47-0.79-0.34-1.09,0.14
	c-0.41,0.07-0.82,0.15-1.24,0.22c-0.57-0.22-1.11-0.25-1.55,0.23c-0.81,0.06-1.62,0.12-2.43,0.18c-1.71-0.17-3.31,0.25-4.89,0.77
	c-4.39,1.51-9.04,1.86-13.62,2.48c-1.54,0.21-2.8,0.38-3.02,2.27c-0.21,1.87,0.76,2.27,2.36,3c6.23,2.84,12.83,5.29,17.01,10.8
	c0.57,0.75,1.18,1.47,2.28,1.76c6.38,1.68,9.55,6.38,12.54,11.14c3.23,5.15,5.49,10.65,6.22,16.6c0.06,0.46,0.39,0.96,0.76,1.3
	c4.81,4.44,6.51,10.04,5.46,15.82c-1.45,8-3.15,16.02-6.09,23.73c-1.67,4.4-4.27,8.37-8.03,11.68c-1.03,0.91-1.65,2.19-2.46,3.31
	c-0.1,0.29-0.2,0.58-0.3,0.87c-0.16,0.26-0.33,0.52-0.49,0.78c-0.97-0.19-0.6-1.33-1.43-1.62c-0.35,0-0.69,0-1.04,0
	c-0.6-0.04-1.2-0.08-1.8-0.12c0.2-0.32,0.4-0.65,0.6-0.97c0.73-0.79,1.91-0.78,2.84-1.38c4.35-2.81,7.23-6.54,9.21-10.92
	c1.08-1.1,1.65-2.41,1.91-3.84c0.76-0.73,0.52-1.68,0.7-2.55c0.62-1.2,1.32-2.4,0.68-4.13c-1.17,1.09-2.04,1.9-2.92,2.72
	c-0.26,0.21-0.51,0.43-0.77,0.64c-0.37,0.24-0.75,0.47-1.12,0.71c-2.52,1.62-4.32,3.46-5.12,6.44c-1.37,5.07-4.25,9.18-11.11,9.14
	c-1.57-0.01-1.61,1.47-1.99,2.39c-0.51,1.22,0.94,0.89,1.54,1.23c0.29,0.76,1.81,0.46,1.68,1.59c-0.37,0-0.74,0.01-1.12,0.01
	c-0.17-0.26-0.35-0.29-0.56-0.03c-0.56-0.04-1.11-0.07-1.67-0.11c-0.35-1.03-1.19-0.92-2.03-0.66c-0.71,0.22-1.4,0.59-1.96-0.22
	c1.06-1.14,2.18-2.21,2.85-3.63c1.81-3.84,1.73-7.76,1.21-11.8c-0.26-2.01-1.33-1.98-2.76-1.37c-1.91,0.81-3.72,1.82-5.58,2.75
	c-1.65-0.54-3.59-0.57-4.66-2.14c2.12,0.39,3.25-0.18,2.8-2.33c-0.04-0.21,0.14-0.47,0.22-0.7c0.08-0.22,0.17-0.44,0.25-0.66
	c0.76-3.9,4.01-5.79,7.5-7.4c2.05-0.94,2.58-2.12,1.24-3.39c-3.52-3.35-3.73-7.52-0.14-10.95c1.35-1.29,0.97-1.76-0.13-2.73
	c-4.79-4.18-6.59-9.24-5.13-15.16c0.15-0.6,0.41-1.18-0.32-1.56c-0.76-0.39-1.22,0.24-1.68,0.58c-2.43,1.8-5.15,2.64-8.32,2.28
	c-0.66-0.08-1.57-0.47-1.96,0.43c-0.32,0.75-0.13,1.47,0.52,2.09c4.96,4.71,4.93,10.45,4.13,16.35c-0.11,0.15-0.13,0.31-0.07,0.48
	c0.18,1.94-0.26,3.78-1.01,5.58c-0.03,0.19-0.05,0.38-0.08,0.56c0.13,0.71-0.31,1.28-0.55,1.92c-1.33,3.58-4.38,6.31-5.97,9.76
	c-0.06,0.39-0.11,0.78-0.17,1.17c-0.41,1.7-0.99,3.34-2.13,4.78c-1.76,0.77-1.19,2.25-1.33,3.52c-0.15,0.18-0.31,0.36-0.46,0.53
	c-0.21,0.2-0.41,0.41-0.62,0.61c-0.02,0.44-0.04,0.88-0.05,1.32c3.72,0.94,7.45,0.75,11.19,0.11c0.14-0.09,0.3-0.13,0.47-0.11
	c0.8,0.37,0.64,1.07,0.72,1.69c-2.42,3.71-4.04,7.9-7.99,10.67c-0.69,0.49-0.03,0.86,0.12,1.28c0.06,1.06-0.91,1.04-1.63,1.28
	c-1.39-0.19-2.18,0.78-2.57,1.57c-0.44,0.9,0.87,1.31,1.55,1.8c5.33,3.86,11.41,2.47,17.36,2.01c0.12,0,0.23-0.04,0.32-0.12
	c0.72-0.42,1.52-0.41,2.33-0.38c1.19,0.32,2.49-0.39,3.63,0.32c-1.92,0.83-3.94,1.36-6.06,1.54
	C269.48,176.76,267.96,176.44,267.17,178.04z M269.45,147.58c0.12,0.35,0.39,0.5,0.78,0.51c1.88-1.15,3.58-2.58,5.88-3.03
	c0.92-0.18,1.23-0.61,1.21-1.39c-0.03-1.01-0.12-2.02-0.04-3.02c0.15-1.81-0.9-1.76-2.23-1.23
	C271.11,140.97,269.27,143.72,269.45,147.58z M262.15,116.2c-0.14-0.82,0.33-1.76-0.53-2.45c-0.99-1.14-1.26-2.79-2.99-3.55
	c-1.24,2.82-1.51,5.55-1.29,8.45c0.41,5.46,0.68,10.93,0.12,16.41c-0.64,0.71-0.6,1.62-0.27,2.29c0.49,0.99,0.85,0.39,1.01-0.28
	C262.49,130.56,263.29,123.53,262.15,116.2z M279.51,145.04c0.15,3.87,1.05,7.7,0.54,11.6c-0.28,2.1,0.41,2.54,2.65,1.68
	c5.13-1.97,7.01-5.97,7.23-10.52c0.33-6.97-3.57-12.94-6.42-19.13c-0.7-1.53-1.39-0.48-1.79,0.27c-1.41,2.69-2.17,5.53-2.26,8.5
	C278.68,139.98,278.52,142.51,279.51,145.04z M104.54,173.38c3.2,1.43,6.53,1.88,10.02,1.07c0.65-0.04,1.31-0.04,1.95-0.13
	c7.58-1.13,14.55-3.79,21.35-6.9c1.91-0.87,3.91-1.59,5.86-2.37c1.29-0.51,1.36-0.99,0.35-2.01c-2.28-2.31-5.12-3.25-8.41-3.22
	c-5.1,0.05-10.01,0.53-14.74,2.78c-6.28,3-12.99,5.26-19.25,8.35c-0.18,0.11-0.37,0.22-0.55,0.33c0.2,0.2,0.39,0.39,0.59,0.59
	C102.58,172.48,103.36,173.23,104.54,173.38z M196.24,73.05c0.88,0.32,1.78,0.3,2.68,0.06c4.7-0.79,4.7-0.79,2.53-4.51
	c-0.17-0.3-0.43-0.55-0.62-0.84c-1.02-1.47-0.46-2.33,1.27-2.81c2.08-0.57,4.23-0.58,6.36-0.64c7.73-0.23,15.45-0.44,23.18-0.67
	c0.76-0.02,1.93,0.27,1.69-1c-0.43-2.22-0.99-4.41-1.49-6.62c-0.03-0.54-0.06-1.08-0.08-1.62c-0.01-0.11-0.01-0.21,0.02-0.32
	c-1.06-1.57-1.98-1.56-3.24,0.04c-7.12,1.01-14.24,2.01-21.36,3.02c-3.25,0.18-6.45,0.69-9.58,1.42c-3.26,0.77-6.65,1.39-8.98,3.92
	c-2.26,1.04-4.84,2.18-4.54,4.79c0.31,2.74,3.11,3.7,5.72,4.38C191.91,72.2,194.09,72.59,196.24,73.05z M246.75,122.91
	c0.37,4.85,0.46,9.71-0.01,14.56c-1.77,5.63,0.07,11.32-0.66,17.28c4.61-3.05,7.08-6.9,8.74-11.31c0.67-1.78,0.07-3.72,1.1-5.41
	c0.91-0.62,0.58-1.53,0.58-2.32c0.03-4.09,0.04-8.18,0-12.27c-0.01-0.88,0.36-1.86-0.52-2.61c-0.18-0.99-0.46-1.97-0.53-2.97
	c-0.33-4.98-1.4-9.83-3.14-14.54c-2.18-5.9-5.62-11.25-10.74-15.32c-3.45-2.73-6.94-5.24-9.04-9c-0.8-1.43-1.65-1.13-2.43-0.03
	c-1.03,1.44-0.92,3.04-0.59,4.65c0.89,4.29,3.11,8.07,5.86,11.57c3.04,3.86,5.22,8.07,7.23,12.41
	C244.86,112.53,245.63,117.75,246.75,122.91z M211.16,88.09c0.34-1.46-0.27-1.93-1.8-1.41c-3.24,1.11-5.72,2.88-7.29,5.84
	c-3.47,6.53-4.18,13.41-3.46,20.44c0.59,5.77,1.44,11.51,3.15,17.15c2.57,8.48,5.51,16.71,12.07,23.51
	c1.04,1.08,1.88,2.24,3.36,2.89c1.76,0.78,3.43,0.29,4.73-0.63c1.36-0.96,0.53-2.29-0.11-3.44c-0.25-0.45-0.42-0.93-0.64-1.39
	c-4.83-9.89-7.84-20.27-10.02-30.84c-1.12-5.45-1.91-10.97-1.65-16.56C209.73,98.44,209.87,93.21,211.16,88.09z M201.23,90.19
	c-4.93-0.61-12.41,4.67-13.63,9.21c-2.38,8.82-1.29,17.56,0.63,26.27c1.65,7.51,4.58,14.66,8.41,21.48c2.26,4.03,5.15,7.78,9,10.76
	c2.38,1.84,5.75,2.17,7.82,1.02c1.14-0.63,1.66-1.26,0.56-2.38c-5.62-5.73-9.43-12.37-12.02-19.63c-3.42-9.59-5.46-19.37-5.34-29.46
	C196.74,101.43,198.08,95.64,201.23,90.19z M223.87,152.42c0.47-0.8,0.69-1.16,0.89-1.53c3.1-5.79,5.28-11.74,5.71-18.3
	c0.31-4.79,2.92-9.35,1.87-14.37c-0.73-3.49-0.44-7.07-0.68-10.6c-0.49-7.31,0.87-14.87-3.49-21.71c-0.47-0.74-0.2-1.83-0.43-2.73
	c-0.17-0.66,0.25-1.75-0.87-1.87c-0.88-0.1-1.34,0.81-1.85,1.38c-0.33,0.37-0.44,0.91-0.6,1.39c-1.84,5.34-2.54,10.86-3.16,16.38
	c-1.49,13.11-1.66,26.25-1.51,39.41C219.8,144.3,221.55,148.2,223.87,152.42z M233.67,54.11c0.03,3.29,0.71,7.4,2.34,11.25
	c1.64,3.86,2.49,8.56,8.42,9.35c1.82,0.24,4.08,1.69,5.28,0.72c1.48-1.2-0.13-3.28-0.55-4.93c-1.16-4.57-3.38-8.88-4.1-13.58
	c-0.84-5.43,0.48-7.23,6.22-8.04c1.26-0.18,3.19-0.01,3.49-1c0.35-1.12-0.72-2.47-1.73-3.46c-1.34-1.31-2.84-2.37-4.85-2.81
	C239.87,39.81,233.7,44.73,233.67,54.11z M194.71,173.85c0.74,0.39,1.02,0.6,1.35,0.7c5.42,1.59,10.85,1.14,16.29,0.03
	c9.31-1.91,16.8-6.9,24.45-11.64c1.78-1.1,1.02-2.05-0.3-2.95c-5.68-3.88-16.97-2.91-23.1,1.53
	C207.52,165.77,202.23,170.8,194.71,173.85z M233.05,73.88c0.67,3.26,1.62,6.1,4.14,8.53c4.37,4.22,9.94,5.63,15.92,6.18
	c6.74,0.62,13.62-0.83,20.3,1.04c0.49,0.14,1.18,0.32,1.5-0.25c0.29-0.52-0.11-0.97-0.49-1.35c-1.74-1.73-3.39-3.55-5.6-4.84
	c-5.64-3.29-12.03-4.22-18.54-4.95c-5.59-0.62-10.91-2.03-13.87-6.99c-0.88-1.48-1.64-1.2-2.32-0.05
	C233.57,72.06,233.35,73.08,233.05,73.88z M194.9,162.64c-1.49,0.11-3.05,0-4.45,0.38c-9.58,2.56-19.32,4.73-27.94,9.58
	c-0.38,0.22-0.97,0.26-1.02,0.72c-0.06,0.64,0.61,0.74,1.12,0.93c4.03,1.44,8.24,2.27,12.55,2.26c10.97-0.03,20.36-3.89,28.77-10.01
	c1.23-0.89,0.95-1.44-0.18-2.07C201.03,162.91,198.05,162.45,194.9,162.64z M234.96,175.72c2.84-0.05,5.53-0.72,8.13-1.68
	c8.49-3.1,13.55-9.36,17.98-16.13c1.02-1.56-0.77-1.34-1.58-1.36c-5.7-0.2-11.16,0.6-15.99,3.54c-1.28,0.78-2.25,1.96-3.51,2.76
	c-4.54,2.87-9.13,5.68-13.75,8.44c-1.38,0.82-1,1.25,0.08,1.95C228.91,174.93,231.81,175.65,234.96,175.72z M265.21,90.23
	c-1.21,0.19-2.57-0.49-3,0.58c-0.32,0.79,0.45,1.72,1.09,2.45c0.12,0.13,0.26,0.24,0.38,0.37c5.81,6,12.55,11.09,19.33,16.14
	c2.5,1.86,5.78,2.84,7.62,5.41c0.32,0.44,0.51,0.96,1.12,0.91c0.92-0.06,0.73-0.84,0.87-1.37c0.86-3.26,0.46-6.45-1.42-9.29
	C285.28,96.48,276.74,91.06,265.21,90.23z M217.68,124.35c0.16-1.26,0.26-1.82,0.29-2.38c0.26-4.63,0.34-9.27,0.79-13.88
	c0.82-8.44,1.21-16.95,4.11-25.12c0.25-0.72,0.01-1.05-0.83-1.24c-2.71-0.62-6.61,0.97-7.79,3.28c-1.46,2.86-1.71,5.95-2.26,9.02
	C210.12,104.48,212.22,114.26,217.68,124.35z M245,129c-1.08-0.07-1.41,0.65-1.84,1.13c-3.99,4.52-8.43,8.7-12.25,13.36
	c-2.48,3.03-4.15,6.33-5.11,9.96c-0.28,1.07-0.1,1.73,1.34,1.93c3.66,0.49,6.49,0.39,9.53-2.6C243.69,145.86,245.79,137.96,245,129z
	 M295.06,130.94c0.07-8.52-6.52-17.69-14.27-20.62c-1.19-0.45-1.59-0.08-1.43,0.96c0.57,3.48,0.68,7.03,2.36,10.32
	c2.95,5.78,6.33,11.4,8.38,17.53c0.5,1.48,1.23,0.65,1.65,0.04C293.61,136.44,295.21,133.6,295.06,130.94z M246.3,182.45
	c4.89,0.15,9.84-0.35,14.41-2.6c0.51-0.25,1.1-0.53,1-1.09c-0.11-0.65-0.85-0.47-1.37-0.52c-3.43-0.32-6.35-1.79-8.74-3.85
	c-1.6-1.38-2.58-1.37-4.46-0.45c-7.74,3.79-15.56,5.29-23.15-0.43c-0.34-0.25-0.87-0.55-1.22-0.48c-0.79,0.16-1.59,0.46-2.26,0.87
	c-0.45,0.27-0.16,0.87,0.18,1.1c1.83,1.25,3.13,3.07,5.29,3.95C232.38,181.56,239.13,182.53,246.3,182.45z M284.09,93.48
	c-0.47-4.06-2.2-7.48-4.25-10.77c-3.58-5.75-9.18-9.3-15.8-11.74c-3.89-1.43-4-1.43-4.73,2.32c-0.82,4.22-0.8,4.16,3.66,5.54
	c5.78,1.79,11.06,4.43,13.63,9.68c1.34,2.72,3.66,4.03,6.05,5.53C283.8,94.76,284.12,94.28,284.09,93.48z M300.48,111.53
	c-0.58,4.05-1.19,7.39-3.48,10.17c-1.06,1.29-1.18,2.53-0.75,4.01c0.93,3.24,0.93,6.5-0.41,9.67c-0.92,2.19-1.92,4.35-3.94,5.97
	c-1.14,0.91-0.64,2.06-0.25,3.04c0.29,0.73,1.13,0.43,1.65,0.05c2.59-1.88,5.35-3.52,7.23-6.17c3.86-5.43,4.9-11.39,4.3-17.61
	C304.53,117.55,303.45,114.5,300.48,111.53z M189.69,175.9c1.2,1.23,2.15,2.32,3.55,3.04c7,3.58,14.55,5,22.53,4.64
	c2.9-0.13,5.72-0.62,8.25-2.06c0.97-0.55,1.56-1.05,0.08-1.71c-1.69-0.75-3.04-1.85-4.14-3.24c-1.26-1.59-2.81-1.7-4.88-1.14
	c-7.27,1.96-14.58,2.73-21.83-0.19C192.02,174.75,190.91,175.11,189.69,175.9z M298.52,109.6c0.25-2-0.28-4.13-0.98-6.23
	c-2.42-7.3-5.76-14.11-12.43-19.17c-0.57-0.43-1.32-1.03-1.9-0.73c-0.8,0.4-0.23,1.13,0.09,1.74c1.79,3.34,3.09,6.79,2.62,10.59
	c-0.1,0.84,0.5,1.39,1.09,1.95c5.85,5.65,10.17,11.69,6.39,19.88c-0.5,1.09,0.4,2.13,1.22,2.56c1.16,0.62,1.49-0.71,1.85-1.35
	C298.04,116.02,298.69,112.99,298.52,109.6z M95.04,173c7.43,4.63,14.69,8.78,23.84,9.14c4.3,0.17,8.58,0.39,12.8-0.6
	c0.83-0.19,1.85-0.35,2.08-1.09c0.23-0.77-0.86-0.97-1.44-1.3c-1.86-1.07-2.97-2.76-4.24-4.27c-1.01-1.2-1.8-1.28-3.25-0.84
	c-2.38,0.73-4.83,1.4-7.3,1.73c-5.79,0.77-11.68,1.2-16.58-2.46C99.04,171.87,97.52,171.52,95.04,173z M231.52,139.83
	c4.11-4.68,8.78-8.85,12.97-13.39c0.53-0.57,0.32-1.27,0.36-1.94c0.25-3.77-1.38-7.27-1.9-10.93c-0.04-0.3-0.19-0.7-0.44-0.83
	c-0.49-0.26-0.89,0.08-1.12,0.45c-0.88,1.38-1.69,2.8-2.6,4.16C234.23,124.24,231.43,131.61,231.52,139.83z M233.35,95.9
	c-0.51,4.43,0.04,8.7,0.17,12.98c0.07,2.44,2.16,3.59,3.64,5.15c0.33,0.35,0.89,0.47,1.23,0.09c1.19-1.36,3.2-2.75,2.82-4.42
	C240.03,104.49,237.01,100.01,233.35,95.9z M258.17,67.7c0.28-4.49,0.28-4.49-4.34-3.93c-1.1,0.13-2.2,0.32-3.3,0.47
	c-0.94,0.13-1.59,0.33-1.11,1.44c1.26,2.89,2.08,5.91,2.4,9c0.21,2.04,2.32,1.77,3.54,2.24c0.9,0.34,1.48-1.2,1.71-2.15
	C257.65,72.31,258.29,69.85,258.17,67.7z M188.79,160.62c4.36-0.11,8.07-0.62,11.77,0.07c1.22,0.23,1.81-0.65,2.39-1.44
	c0.59-0.8-0.06-1.31-0.58-1.72c-1.92-1.52-3.12-3.54-4.69-5.3c-0.85-0.96-1.55-1.01-2.47-0.08
	C192.8,154.59,191,157.39,188.79,160.62z M156.73,160.29c-2.92-4.11-14.19-5.16-17.95-1.82c2.8,0.87,5.7,1.54,7.24,4.17
	c0.61,1.03,1.58,0.93,2.65,0.51C151.26,162.12,153.65,160.67,156.73,160.29z M244.65,150.18c0-0.25,0.03-0.51-0.01-0.76
	c-0.09-0.65,0.28-1.59-0.5-1.84c-1.06-0.35-1.23,0.8-1.71,1.32c-2.09,2.25-4.08,4.58-6.18,6.81c-0.7,0.74-1.21,1.31-0.02,2.01
	c0.7,0.41,1.52,0.77,2.02,1.34c1.28,1.46,2.24,0.99,3.34-0.16C244.03,156.39,244.42,153.31,244.65,150.18z M105.6,157.66
	c4.16,0.75,8.08,1.65,11.51,3.72c0.23,0.14,0.38,0.42,0.88,0.22c2.22-0.87,4.49-1.64,6.89-2.5
	C119.59,155.37,111.07,154.75,105.6,157.66z M262.69,104.63c2.54-0.01,6.41-1.8,6.29-2.91c-0.08-0.79-4.32-4.65-5.12-4.67
	c-1.63-0.04-4.79,1.77-4.79,2.73C259.08,103.76,259.73,104.64,262.69,104.63z M169.8,159.27c3.43,0.56,6.17,1.94,8.21,4.41
	c0.52,0.63,1.12,0.79,1.95,0.55c1.33-0.39,2.69-0.69,4.02-1.09c0.58-0.17,1.34-0.21,1.35-1.04c0.01-0.6-0.4-0.94-0.9-1.18
	C179.82,158.63,174.99,157.7,169.8,159.27z M278.22,118.62c-0.33-3.15-0.8-6.3-0.93-9.47c-0.08-1.91-1.41-2.79-2.79-3.77
	c-0.74-0.52-1.07-0.23-1.41,0.45C271.43,109.11,274.5,116.79,278.22,118.62z M256.11,110.01c0.25-0.02,0.51-0.05,0.76-0.07
	c0.13-1.8,0.02-3.65,0.45-5.39c0.64-2.57-0.17-4.79-1.39-6.99c-0.32-0.58-0.7-1.36-1.49-1.4c-1.05-0.05-1.01,1.07-1.55,1.6
	c-0.53,0.53-0.44,1.29-0.18,1.94C254.13,103.06,255.45,106.44,256.11,110.01z M255.38,93.2c-0.08,1.47,2.01,3.99,3.28,3.68
	c1.4-0.33,3.28-0.11,3.94-1.72c0.24-0.59-3.66-4.67-4.29-4.74C255.98,90.18,255.47,91.5,255.38,93.2z M276.15,127.68
	c-0.19,1.48,0.33,2.74,1.03,3.93c0.39,0.66,1.23,1.19,1.53,0.08c0.54-1.99,1.67-3.68,2.71-5.44c0.71-1.2-0.7-1.98-0.97-3
	c-0.12-0.46-0.76-0.51-1.12-0.14C277.98,124.51,275.64,125.36,276.15,127.68z M213.27,120.14c0.68,5.52,2.24,10.81,4.07,16.41
	C219.21,130.12,216.11,125.14,213.27,120.14z M252.58,90.1c-0.82-0.09-1.51,0.1-1.69,0.91c-0.36,1.56-2.37,2.99-0.4,4.74
	c0.37,0.33,0.5,0.93,1.24,0.6c0.56-0.25,2.61-4.88,2.41-5.44C253.88,90.19,253.22,90.16,252.58,90.1z M206.5,164.34
	c1.17-0.76,3.09-1.34,2.93-2.41c-0.25-1.65-2.63-1.47-4.04-2.07c-1.03-0.44-1.84,0.94-1.88,1.73
	C203.43,163.27,205.48,163.3,206.5,164.34z M234.14,120.71c3.53-3.48,3.45-4.87,0-6.6C234.14,116.21,234.14,118.33,234.14,120.71z
	 M245.87,89.61c0.96,1.13,1.64,1.94,2.39,2.82C249.41,89.91,249.41,89.91,245.87,89.61z M247.62,155.84
	c1.44,0.18,2.25-0.28,2.52-1.29c0.07-0.26-0.21-0.63-0.41-0.48C248.98,154.61,248.32,155.24,247.62,155.84z M246.61,156.48
	c-0.08-0.02-0.16-0.06-0.24-0.06c-0.03,0-0.05,0.11-0.08,0.16c0.08,0.02,0.16,0.06,0.24,0.06
	C246.56,156.64,246.58,156.53,246.61,156.48z"/>
<path class="st3" d="M284.39,57.98c-0.74-0.08-1.43,0-2.05,0.41c-0.6-0.17-1.17-0.1-1.68,0.24c-1.12,0.11-2.24,0.22-3.36,0.32
	c-1.22-0.18-2.3,0.31-3.42,0.6c-1.13-0.06-2.26-0.07-3.32,0.38c-2.81,0.53-5.93-0.14-8.41,1.72c-2-0.09-4-0.11-5.96,0.33
	c-0.84-0.15-1.65-0.19-2.34,0.39c-0.34,0.05-0.68,0.09-1.03,0.14c-0.3-0.19-0.59-0.18-0.86,0.05c-2.79,0.58-4.2-0.28-4.51-3
	c-0.21-1.89-0.95-3.73-0.52-5.67c1.89-0.01,3.41-1.12,5.29-1.33c7.07-0.79,14.13-1.74,21.18-2.68c5.87-0.78,11.71-1.72,17.58-2.43
	c4.12-0.5,8.09-1.67,12.18-2.17c6.94-0.85,13.84-1.91,20.78-2.75c5.84-0.7,11.74-1.57,17.55-2.65c2.9-0.54,5.98-0.22,8.71-1.5
	c1.11-0.04,2.23-0.08,3.34-0.12c-0.26,3.23,1.52,6.45,0,9.68c-12.86,1.72-25.72,3.44-38.58,5.15c-0.66,0.09-0.95,0.45-1.22,0.91
	c-0.72,0.15-1.44,0.31-2.16,0.46c-0.23,0.01-0.47,0.02-0.7,0.03c-1.13-0.07-2.25-0.12-3.3,0.35c-0.43-0.14-0.82-0.1-1.13,0.23
	c-0.98,0.11-1.95,0.22-2.93,0.34c-0.2,0.02-0.4,0.03-0.59,0.05c-1.64,0.24-3.28,0.48-4.92,0.72c-0.18,0.01-0.36,0.03-0.54,0.04
	c-0.56,0.07-1.12,0.14-1.68,0.21c-0.61-0.17-1.14-0.08-1.55,0.39c-3,0.04-5.95,0.43-8.84,1.15
	C285.07,57.97,284.73,57.97,284.39,57.98z"/>
<path class="st4" d="M160.98,42.9c2.39,8.33,5.97,16.25,10.09,23.98c4.56,8.56,9.6,16.86,16.38,24.21c1.38,1.49,2.15,2.97,0.09,4.73
	c-1.27,1.08-1.71,2.75-1.91,4.38c-0.06,0.53,0.02,1.35-0.88,1.32c-0.46-0.01-1.02-0.42-1.34-0.79
	c-5.17-6.03-10.16-12.15-14.37-18.79c-7.75-12.23-13.54-25.17-18.01-38.65c-3.25-9.78-4.88-19.83-6.68-29.87
	c3.05-1.11,6.25-0.88,9.43-0.94c0.97,5.39,1.74,10.81,2.95,16.15C157.82,33.45,158.84,38.32,160.98,42.9z"/>
<path class="st4" d="M76.41,167.95c4.36-1.01,8.2-3.13,12.2-4.87c4.4-1.91,8.81-3.27,13.69-3.69c4.59-0.4,10.3,1.01,12.97,3.81
	c-11.39,4.83-22.6,9.82-35.45,10.32c-0.94-0.06-1.89-0.12-2.83-0.18c-0.11-1.22-0.28-2.46-1.17-3.41
	C74.86,168.9,75.86,168.52,76.41,167.95z"/>
<path class="st4" d="M96.66,182.16c-0.8,0.06-1.59,0.13-2.39,0.19c-1.24,0.02-2.48,0.04-3.72,0.06c-1.16-0.09-2.31-0.19-3.47-0.28
	c-1.06-0.48-2.19-0.56-3.34-0.5c-2.07-0.44-4.14-0.88-6.21-1.32c-0.77-0.15-1.66-0.04-1.41-1.28c0.28-1.34,0.26-2.72,0.36-4.08
	c0.36,0.01,0.72,0.02,1.08,0.04c0.38,0.01,0.75,0.02,1.13,0.03c0.37-0.01,0.74-0.02,1.11-0.03c3.48,0.05,6.87-0.49,10.22-1.24
	c1.77-0.4,3.17-0.26,4.62,0.89c1.72,1.36,3.66,2.49,5.57,3.64c2.67,1.6,2.69,1.56-0.2,3.04C98.87,181.51,97.67,181.55,96.66,182.16z
	"/>
<path class="st3" d="M283.51,45.42c13.16-1.8,26.32-3.61,39.49-5.4c4.69-0.64,9.51-0.82,14.05-1.94c5.12-1.26,10.36-1.63,15.49-2.64
	c0.38-0.06,0.77-0.12,1.15-0.18c0.46,0.52,0.53,1.03-0.08,1.51c-1.17,0.08-2.38-0.11-3.49,0.39c-2.88,0.55-5.75,1.21-8.66,1.62
	c-9.56,1.36-19.16,2.52-28.7,3.98c-7.12,1.09-14.26,1.99-21.35,3.36c-9.86,1.9-19.93,3.01-29.96,4.08
	c-4.08,0.43-8.02,2.18-12.26,1.24c2.11-1.67,4.83-1.24,7.27-1.64c7.84-1.28,15.73-2.33,23.6-3.47
	C281.28,46.25,282.74,46.87,283.51,45.42z"/>
<path class="st17" d="M313.76,54c0.26-0.45,0.56-0.82,1.22-0.91c12.86-1.7,25.72-3.43,38.58-5.15c0.92,1.73-0.45,1.76-1.72,1.93
	c-5.25,0.72-10.51,1.41-15.74,2.22c-6.24,0.95-12.45,2.01-18.68,3.01c-0.63,0.1-1.29,0.08-1.94,0.12c0.9-0.33,1.79-0.65,3.34-1.22
	C316.71,54,315.23,54,313.76,54z"/>
<path class="st17" d="M160.98,42.9c-2.14-4.58-3.16-9.45-4.25-14.27c-1.21-5.34-1.99-10.76-2.95-16.15c1.91-1.5,1.87,0.07,2.05,1.1
	c0.77,4.57,1.55,9.13,2.48,13.67c1.15,5.62,3.19,11.04,4.42,16.64C162.14,43.56,161.96,42.64,160.98,42.9z"/>
<path class="st4" d="M84.26,161.34c-2.5-1.01-4.93-2.24-7.82-2.05c-0.04-0.79,0.05-1.55-0.73-2.22c-0.69-0.59-0.36-1.17,0.59-1.37
	c0.3,1.6,1.55,1.06,2.59,0.93c4.83-0.57,9.35,0.25,14.08,2.57c-2.22,1.05-4.13,1.87-6.29,2.17
	C85.87,161.37,85.06,161.36,84.26,161.34z"/>
<path class="st16" d="M287.89,164.39c0.83,0.29,0.46,1.43,1.43,1.62c-1.63,3.44-4.07,6.18-8.08,7.56c-0.33-0.55-0.97-0.64-1.55-0.81
	c0.93-0.55,1.99-1,2.78-1.68C284.72,169.14,287.31,167.41,287.89,164.39z"/>
<path class="st17" d="M204.05,184.21c5.36,0.72,10.75,0.4,16.13,0.32c-0.15,0.21-0.27,0.59-0.45,0.61
	C214.44,185.88,209.13,186.62,204.05,184.21z"/>
<path class="st4" d="M78.68,165.49c-0.25,0.13-0.5,0.25-0.76,0.38c-0.25-0.12-0.5-0.23-0.75-0.35c-0.75-1.61-0.89-3.27-0.58-4.98
	c1.74,0.4,3.55,0.64,4.91,1.87c0.42,0.38,1.46,0.19,1.46,0.89c0,0.79-0.93,0.9-1.59,1.15c-0.59,0.22-1.18,0.45-1.76,0.68
	C79.19,165.01,78.89,165.14,78.68,165.49z M80.76,163.39c-0.13-0.15-0.21-0.33-0.32-0.35c-0.13-0.02-0.38,0.07-0.41,0.16
	c-0.09,0.26,0.06,0.45,0.38,0.44C80.53,163.63,80.64,163.48,80.76,163.39z"/>
<path class="st17" d="M137.42,181.64c0.95-0.41,2.17,1.34,2.96-0.31c3.01,0.54,6.02,1.08,9.03,1.61c-0.01,0.41-0.02,0.82-0.02,1.23
	C145.19,184.12,141.13,183.55,137.42,181.64z"/>
<path class="st18" d="M87.09,182.14c1.16,0.09,2.31,0.19,3.47,0.28c-1.22,1.36-3.02,0.28-4.42,0.85c-1.21,0.11-2.39,0.03-3.55-0.34
	c-0.34-0.36-0.77-0.38-1.23-0.29c-1.49-0.04-2.92-0.35-4.19-1.04c-1.01-0.55-0.97-0.61,0.37-1.3c2.07,0.44,4.14,0.88,6.21,1.32
	C84.8,182.12,85.78,182.98,87.09,182.14z"/>
<path class="st17" d="M86.13,183.27c1.41-0.58,3.21,0.51,4.42-0.85c1.24-0.02,2.48-0.04,3.72-0.06c0.79,1.24,2.23,0.5,3.31,0.88
	C93.77,184.5,89.95,184.01,86.13,183.27z"/>
<path class="st17" d="M331.65,37c-2.02,1.87-4.69,1.32-7.15,1.55C326.74,37.49,329.15,37.05,331.65,37z"/>
<path class="st17" d="M174.78,186.29c2.53-0.19,5.06-0.41,7.58,0.09C179.83,186.86,177.29,187.13,174.78,186.29z"/>
<path class="st17" d="M150.67,184.25c1.6-0.12,3.22-0.45,4.79,0.17C153.83,185.28,152.23,185.26,150.67,184.25z"/>
<path class="st16" d="M276.98,175.32c-1.15-0.71-2.44,0-3.63-0.32c1.89-1.08,4.1-1.4,6.15-2.1c0.01,0.37,0.02,0.74,0.03,1.11
	c-0.02,0.14-0.03,0.27-0.02,0.41c-0.32,0.13-0.64,0.27-0.95,0.4c-0.17-0.38-0.36-0.79-0.92-0.66c-0.61,0.15-0.78,0.59-0.66,1.13
	L276.98,175.32z"/>
<path class="st17" d="M275.05,45.3c-0.93,2.12-2.95,0.76-4.42,1.13C271.93,45.5,273.44,45.24,275.05,45.3z"/>
<path class="st17" d="M350.12,37.17c1.11-0.5,2.32-0.32,3.49-0.39c-0.02,0.5-0.04,1-0.05,1.49c-1.11,0.04-2.23,0.08-3.34,0.12
	C350.18,37.98,350.15,37.57,350.12,37.17z"/>
<path class="st16" d="M267.17,178.04c0.78-1.6,2.3-1.28,3.74-1.18C269.8,177.59,268.76,178.53,267.17,178.04z"/>
<path class="st17" d="M168.01,57.05c-1.47-1.22-1.73-2.84-1.83-4.51C166.78,54.05,167.39,55.55,168.01,57.05z"/>
<path class="st17" d="M79.81,175c-0.37,0.01-0.74,0.02-1.11,0.03c-0.36-0.54-0.74-0.56-1.13-0.03c-0.36-0.01-0.72-0.02-1.08-0.04
	c0,0,0.01,0.01,0.01,0.01c0.02-0.48,0.03-0.96,0.05-1.44c0.19,0.03,0.34-0.03,0.44-0.18c0.94,0.06,1.89,0.12,2.83,0.18
	C79.81,174.01,79.81,174.5,79.81,175z"/>
<path class="st17" d="M190.32,185.62c0.86-1.78,2.82-0.88,4.2-1.42C193.42,185.41,191.98,185.79,190.32,185.62z"/>
<path class="st17" d="M168.41,183.35c-0.84,0.52-0.62,0.94,0.2,1.16c0.7,0.19,1.48,0.2,1.52,1.1c-1.9,0.28-2.84-1.33-4.37-1.8
	c0.87-0.15,1.74-0.3,2.6-0.45C168.35,183.37,168.41,183.35,168.41,183.35z"/>
<path class="st17" d="M305.3,56.55c1.9-0.89,3.98-0.77,6.02-0.89C309.4,56.42,307.34,56.42,305.3,56.55z"/>
<path class="st17" d="M291.31,58.52c1.21-0.67,2.5-0.86,3.88-0.58C293.91,58.22,292.68,58.73,291.31,58.52z"/>
<path class="st19" d="M93.85,157.72c-1.29,0.05-2.34-0.27-2.82-1.47C92.53,155.87,93.23,156.74,93.85,157.72z"/>
<path class="st17" d="M276.7,60.48c1.58-0.51,3.18-0.94,4.89-0.77C280.04,60.41,278.39,60.54,276.7,60.48z"/>
<path class="st17" d="M296.91,42.37c-1.74,0.75-3.63,0.63-5.48,0.79C293.17,42.4,295.03,42.36,296.91,42.37z"/>
<path class="st20" d="M194.27,74.19c1.54-0.25,3.04-0.27,4.47,0.42C197.25,74.47,195.76,74.33,194.27,74.19z"/>
<path class="st17" d="M200.03,183.25c1.2-0.13,2.25,0.18,3.19,0.84C202,184.31,200.98,183.89,200.03,183.25z"/>
<path class="st17" d="M283.21,44.31c-1.44,0.26-2.83,0.84-4.36,0.53C280.26,44.37,281.68,43.98,283.21,44.31z"/>
<path class="st17" d="M170.84,63.13c-1.05-0.7-1.16-1.73-1.18-2.79C170.3,61.19,170.68,62.12,170.84,63.13z"/>
<path class="st17" d="M297.15,57.59c1.27-0.16,2.45-0.81,3.79-0.51C299.74,57.58,298.5,57.91,297.15,57.59z"/>
<path class="st17" d="M312.08,40.21c-0.68,1-1.7,0.55-2.62,0.5C310.24,40.16,311.13,40.09,312.08,40.21z"/>
<path class="st17" d="M318.8,39.28c-0.69,0.78-1.61,0.53-2.49,0.46C317.05,39.18,317.89,39.1,318.8,39.28z"/>
<path class="st17" d="M264.84,47.27c-0.87,0.2-1.65,1.07-2.65,0.3C263.03,47.17,263.92,47.15,264.84,47.27z"/>
<path class="st17" d="M342.27,35.63c-0.64,0.49-1.28,0.99-2.12,0.28C340.82,35.59,341.53,35.49,342.27,35.63z"/>
<path class="st21" d="M77.18,165.51c0.25,0.12,0.5,0.23,0.75,0.35c-0.5,0.34-1,0.69-1.5,1.03
	C75.61,165.96,76.46,165.77,77.18,165.51z"/>
<path class="st17" d="M170.51,185.7c0.69-0.08,1.38-0.17,1.87,0.44C171.65,186.36,171.03,186.2,170.51,185.7z"/>
<path class="st17" d="M300.29,41.8c-0.54,0.77-1.32,0.53-2.08,0.4C298.81,41.67,299.54,41.69,300.29,41.8z"/>
<path class="st16" d="M279.52,174.02c-0.01-0.37-0.02-0.74-0.03-1.11c0.02-0.1,0.09-0.15,0.21-0.15c0.58,0.17,1.21,0.26,1.55,0.81
	c-0.32,0.18-0.64,0.37-0.96,0.55C280.03,174.09,279.78,174.05,279.52,174.02z"/>
<path class="st22" d="M76.55,173.52c-0.02,0.48-0.03,0.96-0.05,1.44c-0.58,0.01-1.1-0.13-1.08-0.74
	C75.44,173.6,75.98,173.5,76.55,173.52z"/>
<path class="st17" d="M304.78,41.26c-0.44,0.72-1,0.77-1.65,0.23C303.64,41.15,304.19,41.11,304.78,41.26z"/>
<path class="st17" d="M267.76,46.84c-0.42,0.69-0.97,0.75-1.63,0.26C266.62,46.76,267.17,46.71,267.76,46.84z"/>
<path class="st17" d="M98.86,183.15c0.39-0.59,1.02-0.59,1.67-0.57C100.06,182.99,99.59,183.38,98.86,183.15z"/>
<path class="st16" d="M276.98,175.31c-0.12-0.54,0.05-0.98,0.66-1.13c0.56-0.14,0.75,0.28,0.92,0.66
	C278.02,174.99,277.5,175.15,276.98,175.31z"/>
<path class="st17" d="M344.59,35.26c-0.3,0.45-0.65,0.57-1.08,0.12C343.84,35.1,344.2,35.08,344.59,35.26z"/>
<path class="st17" d="M164.73,48.95c-0.75-0.23-0.8-0.74-0.65-1.33C164.5,47.99,164.75,48.41,164.73,48.95z"/>
<path class="st17" d="M165.78,51.48c-0.64-0.23-0.73-0.68-0.62-1.22C165.61,50.57,165.83,50.97,165.78,51.48z"/>
<path class="st17" d="M312.61,55.52c0.31-0.47,0.67-0.58,1.09-0.11C313.36,55.67,313,55.7,312.61,55.52z"/>
<path class="st17" d="M286.27,43.79c-0.28,0.53-0.63,0.74-1.11,0.16C285.53,43.9,285.9,43.84,286.27,43.79z"/>
<path class="st17" d="M286.8,59.08c0.29-0.48,0.64-0.61,1.09-0.14C287.56,59.19,287.2,59.27,286.8,59.08z"/>
<path class="st17" d="M284.01,59.53c0.44-0.48,0.98-0.45,1.55-0.23C285.1,59.67,284.58,59.7,284.01,59.53z"/>
<path class="st20" d="M190.59,73.42c0.61-0.22,1.12-0.17,1.47,0.39C191.48,73.99,191,73.81,190.59,73.42z"/>
<path class="st17" d="M353.69,35.27c-0.38,0.06-0.77,0.12-1.15,0.18c-0.03-0.4-0.07-0.8-0.1-1.21c0,0-0.04-0.15-0.04-0.15
	c0.22-0.01,0.44-0.02,0.66-0.04C353.84,34.22,353.9,34.68,353.69,35.27z"/>
<path class="st23" d="M76.45,159.31c-0.02,0.34-0.04,0.68-0.07,1.01c-0.28-0.14-0.76-0.25-0.79-0.43
	C75.5,159.37,75.99,159.32,76.45,159.31z"/>
<path class="st22" d="M142.73,14.48c0.39,0.31,0.28,0.68,0.17,1.05C142.06,15.29,141.9,14.95,142.73,14.48z"/>
<path class="st17" d="M186.94,186.16c0.45-0.5,0.99-0.5,1.59-0.26C188.06,186.28,187.52,186.32,186.94,186.16z"/>
<path class="st22" d="M145.58,30.93c0.5,0.52,0.58,1.13,0.48,1.79C145.26,32.26,145.44,31.59,145.58,30.93z"/>
<path class="st17" d="M81.35,182.64c0.47-0.09,0.9-0.07,1.23,0.29C82.18,182.84,81.76,182.74,81.35,182.64z"/>
<path class="st17" d="M334.31,36.75c-0.26,0.03-0.52,0.06-0.79,0.09C333.75,36.6,334.01,36.57,334.31,36.75z"/>
<path class="st19" d="M76.95,155.24c-0.19,0.12-0.37,0.24-0.56,0.36C76.58,155.49,76.77,155.36,76.95,155.24z"/>
<path class="st24" d="M353.05,34.06c-0.22,0.01-0.44,0.02-0.66,0.04C352.59,33.77,352.81,33.72,353.05,34.06z"/>
<path class="st19" d="M88.18,155.44c-0.2-0.05-0.41-0.1-0.61-0.15C87.77,155.34,87.98,155.39,88.18,155.44z"/>
<path class="st17" d="M173.3,186.2c0.36,0.01,0.73,0.01,1.09,0.02C174.02,186.48,173.66,186.38,173.3,186.2z"/>
<path class="st17" d="M289.81,165.23c0.1-0.29,0.2-0.58,0.3-0.87C290.01,164.65,289.91,164.94,289.81,165.23z"/>
<path class="st17" d="M338.34,36.13c-0.22,0.03-0.43,0.06-0.65,0.08C337.91,36.18,338.13,36.15,338.34,36.13z"/>
<path class="st17" d="M223.44,183.39c0.23-0.08,0.46-0.16,0.68-0.24C223.9,183.23,223.67,183.31,223.44,183.39z"/>
<path class="st17" d="M162.84,182.99c0.16-0.26,0.34-0.3,0.55-0.04c0,0-0.27,0.06-0.27,0.06L162.84,182.99z"/>
<path class="st17" d="M171.49,64.09c-0.17-0.09-0.25-0.23-0.26-0.4C171.31,63.82,171.4,63.95,171.49,64.09z"/>
<path class="st17" d="M225.12,182.63c0.25-0.16,0.49-0.32,0.74-0.47C225.61,182.31,225.37,182.47,225.12,182.63z"/>
<path class="st17" d="M226.23,181.94c0.18-0.12,0.37-0.24,0.55-0.36C226.6,181.7,226.41,181.82,226.23,181.94z"/>
<path class="st17" d="M102.26,181.92c0.19-0.11,0.38-0.22,0.57-0.33C102.64,181.7,102.45,181.81,102.26,181.92z"/>
<path class="st20" d="M279.52,174.02c0.25,0.03,0.51,0.07,0.76,0.1c-0.26,0.1-0.52,0.21-0.78,0.31
	C279.49,174.29,279.5,174.16,279.52,174.02z"/>
<path class="st22" d="M144.41,25.48c0.07,0.21,0.14,0.42,0.21,0.64C144.55,25.91,144.48,25.69,144.41,25.48z"/>
<path class="st17" d="M184.23,186.3c0.25-0.02,0.49-0.04,0.74-0.07C184.72,186.25,184.47,186.27,184.23,186.3z"/>
<path class="st20" d="M262.09,180.87c0.18-0.11,0.36-0.21,0.55-0.32C262.58,180.84,262.41,180.97,262.09,180.87z"/>
<path class="st17" d="M260.91,47.79c-0.18,0.03-0.37,0.06-0.55,0.09C260.54,47.85,260.72,47.82,260.91,47.79z"/>
<path class="st17" d="M333.4,36.86c-0.17,0.25-0.35,0.31-0.58,0.05C333.01,36.9,333.2,36.88,333.4,36.86z"/>
<path class="st2" d="M211.16,88.09c-1.29,5.13-1.43,10.35-1.67,15.57c-0.26,5.59,0.53,11.11,1.65,16.56
	c2.18,10.57,5.19,20.96,10.02,30.84c0.23,0.46,0.39,0.95,0.64,1.39c0.64,1.15,1.47,2.48,0.11,3.44c-1.3,0.91-2.97,1.41-4.73,0.63
	c-1.48-0.65-2.32-1.82-3.36-2.89c-6.56-6.8-9.5-15.03-12.07-23.51c-1.71-5.65-2.56-11.38-3.15-17.15
	c-0.72-7.03-0.01-13.91,3.46-20.44c1.57-2.96,4.04-4.73,7.29-5.84C210.9,86.15,211.5,86.62,211.16,88.09z"/>
<path class="st2" d="M201.23,90.19c-3.15,5.45-4.5,11.24-4.57,17.26c-0.13,10.1,1.92,19.88,5.34,29.46
	c2.59,7.26,6.4,13.9,12.02,19.63c1.1,1.12,0.58,1.75-0.56,2.38c-2.07,1.15-5.44,0.82-7.82-1.02c-3.86-2.98-6.74-6.73-9-10.76
	c-3.82-6.81-6.75-13.97-8.41-21.48c-1.92-8.71-3.01-17.45-0.63-26.27C188.82,94.87,196.3,89.59,201.23,90.19z"/>
<path class="st2" d="M255.91,138.03c-1.03,1.69-0.43,3.63-1.1,5.41c-1.66,4.41-4.14,8.25-8.74,11.31
	c0.73-5.96-1.11-11.65,0.67-17.28c1.24,0.48,1.37-0.11,1.36-1.05c-0.03-5.01-0.01-10.03-0.01-15.19c-0.83,0.5-0.39,1.52-1.34,1.68
	c-1.12-5.16-1.89-10.38-4.17-15.32c-2.01-4.35-4.19-8.55-7.23-12.41c-2.75-3.5-4.97-7.28-5.86-11.57c-0.33-1.6-0.44-3.2,0.59-4.65
	c0.78-1.1,1.63-1.4,2.43,0.03c2.1,3.76,5.59,6.27,9.04,9c5.13,4.06,8.57,9.42,10.74,15.32c1.74,4.72,2.81,9.57,3.14,14.54
	c0.07,1,0.35,1.98,0.53,2.97C255.95,126.56,255.93,132.29,255.91,138.03z"/>
<path class="st2" d="M223.87,152.42c-2.32-4.22-4.07-8.11-4.12-12.55c-0.16-13.16,0.02-26.31,1.51-39.41
	c0.63-5.52,1.32-11.05,3.16-16.38c0.16-0.48,0.27-1.02,0.6-1.39c0.51-0.57,0.97-1.48,1.85-1.38c1.12,0.13,0.7,1.21,0.87,1.87
	c0.23,0.9-0.04,1.99,0.43,2.73c4.36,6.83,3,14.4,3.49,21.71c0.24,3.53-0.06,7.11,0.68,10.6c1.05,5.02-1.55,9.58-1.87,14.37
	c-0.43,6.56-2.62,12.5-5.71,18.3C224.56,151.25,224.34,151.61,223.87,152.42z"/>
<path class="st25" d="M256.24,143.27c1.6-3.45,4.64-6.18,5.97-9.76c0.23-0.63,0.68-1.2,0.55-1.92c0.05-0.06,0.15-0.11,0.15-0.17
	c0-0.13-0.04-0.26-0.07-0.4c0.74-1.8,1.18-3.64,1.01-5.58c0.05-0.05,0.14-0.09,0.14-0.14c0-0.11-0.05-0.23-0.08-0.34
	c0.81-5.9,0.83-11.64-4.13-16.35c-0.65-0.62-0.84-1.34-0.52-2.09c0.38-0.9,1.29-0.5,1.96-0.43c3.16,0.36,5.88-0.48,8.32-2.28
	c0.46-0.34,0.93-0.97,1.68-0.58c0.73,0.38,0.47,0.96,0.32,1.56c-1.46,5.92,0.34,10.97,5.13,15.16c1.11,0.97,1.48,1.44,0.13,2.73
	c-3.59,3.43-3.38,7.59,0.14,10.95c1.34,1.27,0.8,2.45-1.24,3.39c-3.49,1.61-6.74,3.5-7.5,7.4c-0.08,0.22-0.17,0.44-0.25,0.66
	c-0.08,0.24-0.26,0.49-0.22,0.7c0.45,2.15-0.67,2.72-2.8,2.33c-1.3-0.61-2.7-0.44-4.08-0.45c-2.46-0.02-4.54,1.31-6.92,1.54
	c1.13-1.44,1.72-3.08,2.13-4.79C256.41,144.08,256.69,143.72,256.24,143.27z"/>
<path class="st4" d="M233.67,54.11c0.03-9.38,6.2-14.3,14.52-12.5c2.01,0.44,3.51,1.49,4.85,2.81c1.01,0.99,2.09,2.33,1.73,3.46
	c-0.31,0.99-2.24,0.82-3.49,1c-5.74,0.81-7.06,2.61-6.22,8.04c0.73,4.7,2.94,9.01,4.1,13.58c0.42,1.65,2.03,3.73,0.55,4.93
	c-1.2,0.97-3.46-0.48-5.28-0.72c-5.93-0.79-6.78-5.49-8.42-9.35C234.38,61.51,233.7,57.4,233.67,54.11z"/>
<path class="st4" d="M194.71,173.85c7.51-3.05,12.8-8.08,18.69-12.34c6.13-4.43,17.42-5.41,23.1-1.53c1.32,0.9,2.08,1.85,0.3,2.95
	c-7.65,4.74-15.14,9.74-24.45,11.64c-5.44,1.11-10.87,1.56-16.29-0.03C195.74,174.45,195.46,174.24,194.71,173.85z"/>
<path class="st3" d="M207.17,57.13c7.12-1.01,14.24-2.01,21.36-3.02c1.08-0.01,2.16-0.03,3.24-0.04c-0.02,0.11-0.03,0.21-0.02,0.32
	c-0.81,0.2-1.6,0.47-2.42,0.58c-4.84,0.67-9.69,1.31-14.54,1.96c-0.59,0.08-1.52-0.13-1.44,0.72c0.09,0.84,1,0.53,1.59,0.51
	c0.93-0.03,1.86-0.13,2.78-0.26c4.7-0.62,9.4-1.26,14.1-1.89c0.51,2.21,1.07,4.4,1.49,6.62c0.24,1.27-0.93,0.98-1.69,1
	c-7.73,0.23-15.45,0.44-23.18,0.67c-2.14,0.06-4.28,0.07-6.36,0.64c-1.73,0.48-2.29,1.34-1.27,2.81c0.2,0.28,0.45,0.54,0.62,0.84
	c2.17,3.72,2.17,3.72-2.53,4.51c-0.88-0.35-1.77-0.46-2.68-0.06c-2.15-0.46-4.33-0.85-6.45-1.4c-2.61-0.68-5.41-1.64-5.72-4.38
	c-0.3-2.61,2.28-3.75,4.54-4.79c0.26,0.39,0.52,0.78,0.78,1.17c-0.85,1.58-2.69,3.22,0.33,4.58c0.39,0.49,0.95,0.56,1.56,0.53
	c0.2,0.55,0.48,1.02,1.24,1c0.43,0.13,0.86,0.35,1.3,0.38c0.78,0.06,1.87,0.4,1.94-0.76c0.06-0.99-1.02-0.71-1.67-0.88
	c-1.41-0.39-2.82-0.79-4.24-1.19c-0.77-2.14,1.04-2.91,2.57-3.5c4.32-1.69,8.44-3.9,13.31-4.34c0.84-0.08,2.71,0.35,2.54-1.5
	C207.91,57.69,207.54,57.41,207.17,57.13z"/>
<path class="st2" d="M233.05,73.88c0.29-0.79,0.51-1.81,1.04-2.69c0.69-1.14,1.44-1.43,2.32,0.05c2.96,4.96,8.28,6.36,13.87,6.99
	c6.51,0.73,12.89,1.65,18.54,4.95c2.21,1.29,3.86,3.11,5.6,4.84c0.38,0.38,0.78,0.83,0.49,1.35c-0.32,0.57-1.01,0.39-1.5,0.25
	c-6.68-1.86-13.56-0.42-20.3-1.04c-5.98-0.55-11.55-1.96-15.92-6.18C234.67,79.98,233.72,77.13,233.05,73.88z"/>
<path class="st4" d="M194.9,162.64c3.15-0.19,6.13,0.27,8.85,1.79c1.12,0.63,1.4,1.18,0.18,2.07c-8.41,6.12-17.79,9.98-28.77,10.01
	c-4.31,0.01-8.52-0.82-12.55-2.26c-0.51-0.18-1.18-0.28-1.12-0.93c0.04-0.46,0.63-0.51,1.02-0.72c8.61-4.86,18.36-7.03,27.94-9.58
	C191.85,162.64,193.41,162.75,194.9,162.64z"/>
<path class="st4" d="M234.96,175.71c-3.15-0.07-6.05-0.78-8.65-2.48c-1.07-0.7-1.46-1.13-0.08-1.95c4.63-2.76,9.21-5.57,13.75-8.44
	c1.26-0.8,2.24-1.98,3.51-2.76c4.83-2.94,10.29-3.75,15.99-3.54c0.81,0.03,2.6-0.19,1.58,1.36c-4.43,6.77-9.49,13.03-17.98,16.13
	C240.49,174.99,237.8,175.66,234.96,175.71z"/>
<path class="st4" d="M101.68,170.94c6.26-3.09,12.96-5.35,19.25-8.35c4.73-2.26,9.64-2.73,14.74-2.78c3.29-0.03,6.13,0.91,8.41,3.22
	c1.01,1.02,0.94,1.5-0.35,2.01c-1.96,0.78-3.96,1.5-5.86,2.37c-6.8,3.11-13.77,5.77-21.35,6.9c-0.64,0.1-1.3,0.09-1.95,0.13
	c-0.75-0.74-1.74-0.44-2.63-0.44c-1.63,0-2.91,0.14-3.11-2.08c-0.17-1.96-1.89-0.48-2.75-0.21c-0.64,0.2-1.03,1.08-1.53,1.65
	c-1.18-0.15-1.96-0.9-2.82-1.52C101.7,171.55,101.69,171.25,101.68,170.94z"/>
<path class="st4" d="M140.33,174.76c-1.91-0.64-3.83-1.25-5.73-1.92c-0.59-0.21-1.35-0.5-1.29-1.17c0.04-0.54,0.82-0.57,1.3-0.81
	c7.53-3.98,15.58-7.01,23.89-9.15c5.44-1.4,11.4-1.94,16.51,1.68c0.56,0.4,1.5,0.61,1.4,1.4c-0.09,0.71-1.01,0.68-1.58,0.83
	c-6.54,1.64-11.82,5.83-18.47,7.3c-3.8,0.84-7.63,1.41-11.46,2.04c-0.39-0.25-0.77-0.23-1.14,0.02c-0.37,0-0.73,0-1.1,0
	C141.9,174.68,141.14,174.53,140.33,174.76z"/>
<path class="st4" d="M265.21,90.23c11.53,0.83,20.07,6.25,26.01,15.22c1.88,2.84,2.28,6.03,1.42,9.29
	c-0.14,0.53,0.05,1.31-0.87,1.37c-0.62,0.04-0.81-0.47-1.12-0.91c-1.84-2.57-5.12-3.55-7.62-5.41
	c-6.79-5.05-13.52-10.14-19.33-16.14c-0.12-0.13-0.26-0.24-0.38-0.37c-0.64-0.73-1.41-1.67-1.09-2.45
	C262.65,89.73,264.01,90.42,265.21,90.23z"/>
<path class="st12" d="M256,168.84c-0.15-0.42-0.81-0.8-0.12-1.28c3.94-2.78,5.57-6.97,7.99-10.67c2.11-2.07,2.6-5.27,5.73-6.61
	c1.85-0.93,3.66-1.94,5.58-2.75c1.43-0.61,2.5-0.64,2.76,1.37c0.52,4.04,0.6,7.96-1.21,11.8c-0.67,1.43-1.79,2.49-2.85,3.63
	c-2.91,1.76-5.86,3.38-9.12,4.66C261.6,170.22,258.89,170.34,256,168.84z"/>
<path class="st2" d="M217.68,124.35c-5.46-10.09-7.56-19.86-5.69-30.3c0.55-3.07,0.8-6.16,2.26-9.02c1.18-2.31,5.08-3.9,7.79-3.28
	c0.84,0.19,1.08,0.52,0.83,1.24c-2.9,8.17-3.29,16.68-4.11,25.12c-0.45,4.61-0.53,9.25-0.79,13.88
	C217.94,122.53,217.84,123.08,217.68,124.35z"/>
<path class="st2" d="M245,129c0.79,8.96-1.31,16.86-8.33,23.78c-3.04,3-5.87,3.1-9.53,2.6c-1.45-0.2-1.63-0.86-1.34-1.93
	c0.96-3.63,2.63-6.93,5.11-9.96c3.82-4.66,8.26-8.84,12.25-13.36C243.58,129.65,243.91,128.93,245,129z"/>
<path class="st13" d="M279.46,137.45c0.09-2.98,0.85-5.82,2.26-8.5c0.39-0.75,1.08-1.8,1.79-0.27c2.85,6.18,6.75,12.15,6.42,19.13
	c-0.21,4.55-2.1,8.56-7.23,10.52c-2.25,0.86-2.93,0.42-2.65-1.68c0.51-3.9-0.39-7.73-0.54-11.6
	C279.49,142.51,279.48,139.98,279.46,137.45z"/>
<path class="st13" d="M295.06,130.94c0.15,2.65-1.45,5.49-3.31,8.23c-0.42,0.61-1.15,1.45-1.65-0.04
	c-2.05-6.13-5.43-11.75-8.38-17.53c-1.68-3.29-1.79-6.84-2.36-10.32c-0.17-1.03,0.24-1.4,1.43-0.96
	C288.54,113.25,295.13,122.42,295.06,130.94z"/>
<path class="st4" d="M246.3,182.45c-7.17,0.08-13.91-0.89-20.31-3.5c-2.16-0.88-3.46-2.7-5.29-3.95c-0.34-0.23-0.62-0.83-0.18-1.1
	c0.67-0.41,1.47-0.7,2.26-0.87c0.35-0.07,0.88,0.23,1.22,0.48c7.59,5.71,15.41,4.21,23.15,0.43c1.87-0.92,2.85-0.93,4.46,0.45
	c2.38,2.06,5.31,3.53,8.74,3.85c0.52,0.05,1.26-0.13,1.37,0.52c0.1,0.55-0.5,0.84-1,1.09C256.14,182.1,251.19,182.6,246.3,182.45z"
	/>
<path class="st4" d="M174.63,184.51c-2.08-0.39-4.16-0.77-6.23-1.16c0.01,0-0.05,0.01-0.04,0.01c-4.04-1.99-8.47-3.49-11.4-6.98
	c-0.42-0.5-1.45-0.87-0.87-1.61c0.49-0.63,1.55-0.78,2.3-0.44c3.09,1.38,6.37,2.31,9.63,3.23c5.25,1.47,10.63,1.61,15.86-0.05
	c2.02-0.64,3.45-1.39,5.22,0.61c1.61,1.82,4.27,2.64,7.07,3.88c-3.98,1.87-8.09,1.79-11.99,2.46
	C181,184.48,177.81,184.5,174.63,184.51z"/>
<path class="st2" d="M284.09,93.48c0.03,0.8-0.29,1.28-1.44,0.56c-2.39-1.5-4.71-2.81-6.05-5.53c-2.57-5.24-7.86-7.88-13.63-9.68
	c-4.46-1.38-4.48-1.32-3.66-5.54c0.73-3.75,0.84-3.75,4.73-2.32c6.63,2.44,12.23,5.99,15.8,11.74
	C281.89,86,283.62,89.42,284.09,93.48z"/>
<path class="st12" d="M279.7,172.76c-0.11,0-0.18,0.05-0.21,0.15c-2.05,0.7-4.26,1.02-6.15,2.1c-0.81-0.02-1.61-0.04-2.33,0.38
	c0,0-0.21-0.05-0.21-0.05l-0.11,0.16c-5.95,0.46-12.03,1.85-17.36-2.01c-0.68-0.49-1.99-0.91-1.55-1.8
	c0.39-0.79,1.19-1.76,2.57-1.57c3.76,2.24,10.65,1.69,14.47-0.6c2.81-1.68,5.01-4.61,9.02-4.32c0.56,0.04,1.11,0.07,1.67,0.11
	c0.19,0.01,0.37,0.02,0.56,0.03c0.37,0,0.74-0.01,1.12-0.01c1.99,0.18,3.94,0.17,5.67-0.94c0.35,0,0.69,0,1.04,0
	c-0.59,3.03-3.18,4.76-5.41,6.69C281.69,171.76,280.64,172.21,279.7,172.76z"/>
<path class="st13" d="M300.48,111.53c2.97,2.97,4.05,6.02,4.35,9.14c0.6,6.22-0.44,12.17-4.3,17.61c-1.88,2.65-4.64,4.29-7.23,6.17
	c-0.52,0.38-1.36,0.67-1.65-0.05c-0.39-0.98-0.89-2.13,0.25-3.04c2.02-1.62,3.02-3.78,3.94-5.97c1.34-3.17,1.34-6.43,0.41-9.67
	c-0.43-1.49-0.31-2.72,0.75-4.01C299.29,118.92,299.9,115.58,300.48,111.53z"/>
<path class="st4" d="M189.69,175.9c1.22-0.79,2.33-1.16,3.55-0.66c7.25,2.92,14.57,2.15,21.83,0.19c2.08-0.56,3.62-0.45,4.88,1.14
	c1.1,1.39,2.45,2.49,4.14,3.24c1.49,0.66,0.89,1.16-0.08,1.71c-2.52,1.43-5.35,1.93-8.25,2.06c-7.98,0.36-15.53-1.06-22.53-4.64
	C191.84,178.22,190.89,177.13,189.69,175.9z"/>
<path class="st4" d="M298.52,109.6c0.17,3.39-0.48,6.42-2.05,9.25c-0.36,0.64-0.68,1.96-1.85,1.35c-0.82-0.44-1.72-1.48-1.22-2.56
	c3.78-8.19-0.54-14.24-6.39-19.88c-0.59-0.57-1.19-1.11-1.09-1.95c0.47-3.8-0.83-7.25-2.62-10.59c-0.33-0.61-0.89-1.34-0.09-1.74
	c0.58-0.29,1.34,0.31,1.9,0.73c6.67,5.06,10.01,11.87,12.43,19.17C298.24,105.48,298.77,107.6,298.52,109.6z"/>
<path class="st4" d="M95.04,173c2.47-1.47,4-1.12,5.91,0.31c4.89,3.66,10.79,3.23,16.58,2.46c2.48-0.33,4.92-1,7.3-1.73
	c1.45-0.44,2.25-0.36,3.25,0.84c1.26,1.51,2.38,3.2,4.24,4.27c0.58,0.33,1.67,0.53,1.44,1.3c-0.22,0.74-1.25,0.9-2.08,1.09
	c-4.22,0.99-8.5,0.77-12.8,0.6C109.74,181.78,102.47,177.62,95.04,173z"/>
<path class="st2" d="M231.52,139.83c-0.09-8.22,2.7-15.59,7.27-22.49c0.9-1.37,1.72-2.78,2.6-4.16c0.24-0.37,0.64-0.71,1.12-0.45
	c0.25,0.13,0.4,0.54,0.44,0.83c0.52,3.66,2.15,7.16,1.9,10.93c-0.04,0.67,0.16,1.37-0.36,1.94
	C240.3,130.98,235.63,135.15,231.52,139.83z"/>
<path class="st4" d="M149.41,182.95c-3.01-0.54-6.02-1.08-9.03-1.61c-3.57-1.67-7.18-3.29-9.78-6.18c-0.6-0.66-2.01-1.34-1.31-2.22
	c0.85-1.07,1.93-0.07,2.88,0.42c2.56,1.33,5.1,2.75,8.22,2.7c0.54,0.33,1.12,0.43,1.73,0.18c0.81-0.01,1.61-0.03,2.42-0.04
	c0,0,0.14,0.04,0.14,0.04c2.23-0.05,4.45-0.05,6.63-0.6c0.87-0.22,1.91-0.6,2.62,0.2c1.99,2.27,4.26,4.28,7.4,5.97
	C157,183.33,153.2,183.05,149.41,182.95z"/>
<path class="st20" d="M350.12,37.17c0.03,0.41,0.07,0.81,0.1,1.22c-2.74,1.29-5.82,0.97-8.71,1.5c-5.81,1.08-11.71,1.95-17.55,2.65
	c-6.94,0.83-13.84,1.89-20.78,2.75c-4.09,0.5-8.06,1.67-12.18,2.17c-5.88,0.71-11.72,1.65-17.58,2.43
	c-7.05,0.94-14.11,1.89-21.18,2.68c-1.88,0.21-3.4,1.33-5.29,1.33c-0.18-0.86,0.94-0.9,1.17-1.5c0.27-0.42,1.08-0.32,1.12-0.96
	c0,0-0.04,0.02-0.04,0.02c4.24,0.93,8.18-0.81,12.26-1.24c10.03-1.07,20.1-2.17,29.96-4.08c7.09-1.37,14.23-2.27,21.35-3.36
	c9.54-1.46,19.14-2.62,28.7-3.98C344.37,38.38,347.23,37.71,350.12,37.17z"/>
<path class="st13" d="M279.51,163.74c-0.6-0.34-2.05-0.01-1.54-1.23c0.38-0.92,0.42-2.4,1.99-2.39c6.86,0.04,9.75-4.07,11.11-9.14
	c0.8-2.98,2.61-4.82,5.12-6.44c0.58,0.03,1.07-0.06,1.12-0.71c0.26-0.21,0.51-0.43,0.77-0.64c0.54,0.73,1.18,1.34,2.24,1.42
	c-0.18,0.86,0.06,1.82-0.7,2.55c-3.63,0.07-1.68,2.4-1.91,3.85c-1.99,4.38-4.86,8.11-9.21,10.92c-0.93,0.6-2.11,0.59-2.84,1.38
	C283.61,163.45,281.56,163.59,279.51,163.74z"/>
<path class="st2" d="M257.46,135.05c0.56-5.47,0.29-10.95-0.12-16.41c-0.22-2.9,0.05-5.63,1.29-8.45c1.73,0.77,2,2.41,2.99,3.55
	c0.2,0.81-0.16,1.73,0.54,2.45c1.13,7.33,0.33,14.37-3.96,20.86C257.16,136.63,257.71,135.72,257.46,135.05z"/>
<path class="st2" d="M233.35,95.9c3.66,4.11,6.68,8.59,7.85,13.79c0.38,1.68-1.63,3.06-2.82,4.42c-0.34,0.38-0.9,0.26-1.23-0.09
	c-1.47-1.56-3.56-2.71-3.64-5.15C233.39,104.6,232.83,100.33,233.35,95.9z"/>
<path class="st4" d="M258.17,67.7c0.12,2.15-0.51,4.61-1.1,7.07c-0.23,0.96-0.81,2.5-1.71,2.15c-1.22-0.47-3.33-0.2-3.54-2.24
	c-0.32-3.09-1.13-6.11-2.4-9c-0.48-1.11,0.16-1.31,1.11-1.44c1.1-0.15,2.2-0.34,3.3-0.47C258.45,63.21,258.45,63.22,258.17,67.7z"/>
<path class="st15" d="M188.79,160.62c2.21-3.23,4.01-6.03,6.43-8.48c0.92-0.93,1.62-0.87,2.47,0.08c1.57,1.76,2.77,3.78,4.69,5.3
	c0.52,0.41,1.17,0.92,0.58,1.72c-0.58,0.79-1.17,1.66-2.39,1.44C196.86,160,193.15,160.51,188.79,160.62z"/>
<path class="st4" d="M156.73,160.29c-3.08,0.38-5.47,1.83-8.06,2.85c-1.07,0.42-2.04,0.52-2.65-0.51c-1.54-2.63-4.44-3.3-7.24-4.17
	C142.54,155.13,153.81,156.18,156.73,160.29z"/>
<path class="st15" d="M244.65,150.18c-0.23,3.13-0.62,6.21-3.05,8.72c-1.11,1.15-2.07,1.62-3.34,0.16c-0.5-0.57-1.32-0.93-2.02-1.34
	c-1.19-0.7-0.68-1.26,0.02-2.01c2.1-2.24,4.09-4.56,6.18-6.81c0.48-0.52,0.65-1.67,1.71-1.32c0.78,0.26,0.41,1.2,0.5,1.84
	C244.68,149.68,244.65,149.93,244.65,150.18z"/>
<path class="st12" d="M251.48,155.2c0.02-0.44,0.04-0.88,0.05-1.32c0.21-0.2,0.41-0.41,0.62-0.61c0.15-0.18,0.31-0.36,0.46-0.53
	c4.19-3.21,8.79-4.5,14.34-2.56c-1.46,1.68-3.19,3.02-3.81,5.01c-0.17-0.02-0.33,0.02-0.47,0.11
	C258.95,154.45,255.21,155.16,251.48,155.2z"/>
<path class="st4" d="M105.6,157.66c5.47-2.92,13.99-2.29,19.29,1.45c-2.4,0.86-4.67,1.62-6.89,2.5c-0.51,0.2-0.66-0.09-0.88-0.22
	C113.67,159.31,109.75,158.42,105.6,157.66z"/>
<path class="st2" d="M262.69,104.63c-2.96,0.01-3.61-0.87-3.63-4.85c0-0.97,3.16-2.78,4.79-2.73c0.8,0.02,5.04,3.88,5.12,4.67
	C269.09,102.83,265.22,104.62,262.69,104.63z"/>
<path class="st4" d="M169.8,159.27c5.19-1.57,10.02-0.64,14.64,1.65c0.49,0.25,0.9,0.59,0.9,1.18c-0.01,0.83-0.77,0.87-1.35,1.04
	c-1.33,0.39-2.69,0.7-4.02,1.09c-0.82,0.24-1.42,0.08-1.95-0.55C175.97,161.21,173.22,159.83,169.8,159.27z"/>
<path class="st4" d="M278.22,118.62c-3.71-1.82-6.78-9.51-5.13-12.78c0.34-0.68,0.67-0.97,1.41-0.45c1.39,0.98,2.71,1.86,2.79,3.77
	C277.42,112.32,277.89,115.47,278.22,118.62z"/>
<path class="st13" d="M269.45,147.58c-0.18-3.86,1.66-6.61,5.6-8.17c1.33-0.53,2.39-0.58,2.23,1.23c-0.08,1,0.01,2.01,0.04,3.02
	c0.02,0.78-0.29,1.21-1.21,1.39c-2.3,0.45-4,1.89-5.88,3.03C269.97,147.92,269.71,147.75,269.45,147.58z"/>
<path class="st16" d="M277.85,165.2c-4.01-0.3-6.21,2.63-9.02,4.32c-3.83,2.29-10.71,2.84-14.47,0.6c0.72-0.24,1.7-0.23,1.63-1.28
	c2.89,1.5,5.61,1.38,8.75,0.14c3.26-1.28,6.21-2.9,9.12-4.66c0.55,0.81,1.24,0.44,1.96,0.22
	C276.66,164.28,277.5,164.17,277.85,165.2z"/>
<path class="st2" d="M256.11,110.01c-0.66-3.57-1.98-6.95-3.39-10.31c-0.27-0.64-0.35-1.4,0.18-1.94c0.53-0.54,0.5-1.65,1.55-1.6
	c0.78,0.04,1.16,0.82,1.49,1.4c1.22,2.2,2.03,4.42,1.39,6.99c-0.43,1.74-0.32,3.59-0.45,5.39
	C256.62,109.96,256.37,109.99,256.11,110.01z"/>
<path class="st16" d="M263.15,155.19c0.62-1.99,2.35-3.33,3.81-5.01c-5.55-1.94-10.15-0.66-14.34,2.56
	c0.14-1.26-0.43-2.75,1.33-3.52c2.38-0.23,4.47-1.56,6.92-1.54c1.38,0.01,2.78-0.16,4.08,0.45c1.07,1.57,3,1.6,4.66,2.14
	c-3.13,1.34-3.62,4.55-5.73,6.61C263.78,156.26,263.95,155.56,263.15,155.19z"/>
<path class="st13" d="M276.15,127.68c-0.5-2.32,1.84-3.17,3.18-4.57c0.36-0.37,1-0.32,1.12,0.14c0.27,1.02,1.68,1.8,0.97,3
	c-1.05,1.76-2.17,3.45-2.71,5.44c-0.3,1.11-1.14,0.58-1.53-0.08C276.48,130.43,275.96,129.17,276.15,127.68z"/>
<path class="st2" d="M213.27,120.14c2.84,5,5.94,9.97,4.07,16.41C215.51,130.95,213.95,125.66,213.27,120.14z"/>
<path class="st3" d="M207.17,57.13c0.37,0.28,0.73,0.55,1.1,0.83c-6.77,0.62-13.05,2.56-18.88,5.69c-0.26-0.39-0.52-0.78-0.78-1.17
	c2.33-2.53,5.72-3.16,8.98-3.92C200.73,57.82,203.93,57.31,207.17,57.13z"/>
<path class="st20" d="M231.84,56.01c-4.7,0.63-9.4,1.27-14.1,1.89c-0.92,0.12-1.85,0.22-2.78,0.26c-0.59,0.02-1.5,0.33-1.59-0.51
	c-0.09-0.85,0.85-0.64,1.44-0.72c4.85-0.65,9.69-1.28,14.54-1.96c0.82-0.11,1.62-0.39,2.42-0.58
	C231.78,54.93,231.81,55.47,231.84,56.01z"/>
<path class="st2" d="M252.58,90.1c0.64,0.07,1.3,0.1,1.55,0.8c0.2,0.57-1.85,5.2-2.41,5.44c-0.74,0.33-0.87-0.27-1.24-0.6
	c-1.97-1.74,0.04-3.18,0.4-4.74C251.08,90.2,251.76,90.01,252.58,90.1z"/>
<path class="st4" d="M206.5,164.34c-1.02-1.05-3.07-1.07-2.99-2.74c0.04-0.8,0.85-2.17,1.88-1.73c1.41,0.6,3.8,0.41,4.04,2.07
	C209.59,163.01,207.67,163.59,206.5,164.34z"/>
<path class="st2" d="M246.75,122.91c0.95-0.16,0.5-1.18,1.34-1.68c0,5.17-0.02,10.18,0.01,15.19c0.01,0.93-0.13,1.52-1.36,1.05
	C247.21,132.62,247.12,127.76,246.75,122.91z"/>
<path class="st4" d="M104.54,173.38c0.5-0.57,0.89-1.45,1.53-1.65c0.86-0.27,2.58-1.75,2.75,0.21c0.2,2.22,1.48,2.07,3.11,2.08
	c0.89,0,1.87-0.3,2.63,0.44C111.06,175.26,107.73,174.81,104.54,173.38z"/>
<path class="st2" d="M234.14,120.71c0-2.38,0-4.51,0-6.6C237.6,115.84,237.67,117.23,234.14,120.71z"/>
<path class="st17" d="M174.63,184.51c3.18-0.02,6.37-0.04,9.55-0.06c-0.13,0.3-0.21,0.85-0.39,0.88c-2.9,0.49-5.82,0.46-8.73,0.03
	C174.87,185.33,174.77,184.81,174.63,184.51z"/>
<path class="st17" d="M255.91,138.03c0.02-5.74,0.04-11.47,0.06-17.21c0.88,0.75,0.51,1.73,0.52,2.61c0.04,4.09,0.03,8.18,0,12.27
	C256.49,136.5,256.82,137.4,255.91,138.03z"/>
<path class="st16" d="M279.51,163.74c2.05-0.15,4.1-0.3,6.15-0.44c-0.2,0.32-0.4,0.65-0.6,0.97c0.6,0.04,1.2,0.08,1.8,0.12
	c-1.72,1.12-3.68,1.12-5.67,0.94C281.33,164.21,279.81,164.5,279.51,163.74z"/>
<path class="st17" d="M262.15,61.66c2.48-1.86,5.6-1.19,8.41-1.72C267.72,60.37,265.22,62.16,262.15,61.66z"/>
<path class="st12" d="M251.48,155.2c3.73-0.04,7.47-0.75,11.19,0.11C258.93,155.95,255.2,156.15,251.48,155.2z"/>
<path class="st13" d="M300.33,144.61c-1.06-0.07-1.7-0.68-2.24-1.42c0.88-0.82,1.75-1.63,2.92-2.72
	C301.64,142.21,300.95,143.4,300.33,144.61z"/>
<path class="st2" d="M245.87,89.61c3.54,0.3,3.54,0.3,2.39,2.82C247.51,91.55,246.82,90.74,245.87,89.61z"/>
<path class="st13" d="M297.72,151c0.23-1.45-1.72-3.77,1.91-3.85C299.37,148.59,298.8,149.9,297.72,151z"/>
<path class="st13" d="M279.46,137.45c0.02,2.53,0.03,5.06,0.05,7.59C278.52,142.51,278.68,139.98,279.46,137.45z"/>
<path class="st20" d="M142.12,176.24c-0.62,0.25-1.19,0.15-1.73-0.18c-0.02-0.43-0.04-0.87-0.06-1.3c0.81-0.23,1.58-0.08,2.32,0.23
	C142.47,175.4,142.3,175.82,142.12,176.24z"/>
<path class="st17" d="M283.51,45.42c-0.77,1.46-2.23,0.83-3.45,0.93C280.75,44.63,282.35,45.7,283.51,45.42z"/>
<path class="st20" d="M231.77,54.08c-1.08,0.01-2.16,0.03-3.24,0.04C229.79,52.52,230.71,52.51,231.77,54.08z"/>
<path class="st17" d="M96.66,182.16c1.02-0.61,2.21-0.65,3.36-0.85C99.14,182.38,97.95,182.45,96.66,182.16z"/>
<path class="st4" d="M84.26,161.34c0.81,0.01,1.62,0.03,2.42,0.04C85.83,163.74,85.05,162.25,84.26,161.34z"/>
<path class="st17" d="M257.46,135.05c0.25,0.67-0.31,1.58,0.74,2.01c-0.16,0.67-0.52,1.27-1.01,0.28
	C256.86,136.66,256.82,135.76,257.46,135.05z"/>
<path class="st17" d="M273.88,59.56c1.12-0.29,2.2-0.78,3.42-0.6C276.35,60.01,275.05,59.47,273.88,59.56z"/>
<path class="st17" d="M280.66,58.63c0.52-0.34,1.08-0.4,1.68-0.24C281.91,59.21,281.34,59.23,280.66,58.63z"/>
<path class="st17" d="M253.85,62.38c0.69-0.58,1.5-0.54,2.34-0.39C255.44,62.29,254.72,62.69,253.85,62.38z"/>
<path class="st17" d="M262.15,116.2c-0.7-0.72-0.34-1.64-0.54-2.45C262.49,114.44,262.02,115.37,262.15,116.2z"/>
<path class="st20" d="M144.68,176.23c0,0-0.14-0.04-0.14-0.04c-0.26-0.41-0.53-0.81-0.79-1.22c0.37-0.26,0.75-0.27,1.14-0.02
	C144.82,175.38,144.75,175.81,144.68,176.23z"/>
<path class="st24" d="M249.22,51.43c-0.04,0.64-0.85,0.55-1.12,0.96c-0.34-0.16-0.72-0.42-0.41-0.73
	C248.07,51.27,248.67,51.31,249.22,51.43z"/>
<path class="st17" d="M306.46,55.07c0.31-0.33,0.7-0.37,1.13-0.23C307.34,55.42,307.02,55.7,306.46,55.07z"/>
<path class="st17" d="M294.25,56.81c0.41-0.47,0.94-0.55,1.55-0.39C295.44,57.05,294.88,57.04,294.25,56.81z"/>
<path class="st20" d="M196.24,73.05c0.9-0.4,1.79-0.29,2.68,0.06C198.02,73.35,197.13,73.37,196.24,73.05z"/>
<path class="st23" d="M101.68,170.94c0.01,0.31,0.02,0.61,0.04,0.92c-0.2-0.2-0.39-0.39-0.59-0.59
	C101.31,171.16,101.49,171.05,101.68,170.94z"/>
<path class="st20" d="M246.61,156.48c-0.03,0.06-0.05,0.16-0.08,0.16c-0.08,0-0.16-0.04-0.24-0.06c0.03-0.06,0.05-0.16,0.08-0.16
	C246.45,156.41,246.53,156.45,246.61,156.48z"/>
<path class="st24" d="M297.32,143.83c-0.06,0.65-0.54,0.74-1.12,0.71C296.58,144.31,296.95,144.07,297.32,143.83z"/>
<path class="st17" d="M252.15,153.27c-0.21,0.2-0.41,0.41-0.62,0.61C251.74,153.68,251.95,153.47,252.15,153.27z"/>
<path class="st17" d="M269.45,147.58c0.26,0.17,0.52,0.34,0.78,0.51C269.84,148.08,269.57,147.93,269.45,147.58z"/>
<path class="st17" d="M267.95,145.1c0.08-0.22,0.17-0.44,0.25-0.66C268.12,144.65,268.04,144.88,267.95,145.1z"/>
<path class="st17" d="M256.24,143.27c0.45,0.45,0.17,0.81-0.17,1.16C256.12,144.05,256.18,143.66,256.24,143.27z"/>
<path class="st17" d="M262.84,131.03c0.03,0.13,0.07,0.26,0.07,0.4c0,0.06-0.09,0.11-0.15,0.17
	C262.78,131.41,262.81,131.22,262.84,131.03z"/>
<path class="st17" d="M263.91,124.98c0.03,0.11,0.07,0.23,0.08,0.34c0,0.04-0.09,0.09-0.14,0.14
	C263.78,125.28,263.81,125.13,263.91,124.98z"/>
<path class="st21" d="M78.68,165.49c0.21-0.35,0.51-0.47,0.93-0.36C79.3,165.25,78.99,165.37,78.68,165.49z"/>
<path class="st17" d="M280.08,165.34c-0.19-0.01-0.37-0.02-0.56-0.03C279.72,165.05,279.91,165.08,280.08,165.34z"/>
<path class="st17" d="M270.7,175.51l0.11-0.16c0,0,0.21,0.05,0.21,0.05C270.93,175.46,270.82,175.5,270.7,175.51z"/>
<path class="st17" d="M251.97,62.57c0.27-0.23,0.56-0.24,0.86-0.05C252.54,62.54,252.25,62.55,251.97,62.57z"/>
<path class="st17" d="M284.39,57.98c0.34-0.01,0.68-0.01,1.02-0.02C285.07,57.97,284.73,57.97,284.39,57.98z"/>
<path class="st17" d="M297.48,56.22c0.18-0.01,0.36-0.03,0.54-0.04C297.86,56.4,297.68,56.42,297.48,56.22z"/>
<path class="st17" d="M302.94,55.45c0.2-0.02,0.4-0.03,0.59-0.05C303.33,55.42,303.13,55.44,302.94,55.45z"/>
<path class="st17" d="M310.9,54.49c0.23-0.01,0.47-0.02,0.7-0.03C311.36,54.47,311.13,54.48,310.9,54.49z"/>
<path class="st17" d="M87.09,182.14c-1.3,0.84-2.29-0.02-3.34-0.5C84.9,181.58,86.03,181.66,87.09,182.14z"/>
<path class="st18" d="M77.56,174.99c0.4-0.53,0.77-0.51,1.13,0.03C78.32,175.01,77.94,175,77.56,174.99z"/>
<path class="st27" d="M80.76,163.39c-0.12,0.09-0.23,0.24-0.35,0.25c-0.32,0.02-0.47-0.18-0.38-0.44c0.03-0.09,0.28-0.19,0.41-0.16
	C80.55,163.06,80.63,163.24,80.76,163.39z"/>
<path class="st20" d="M189.39,63.65c5.84-3.13,12.12-5.07,18.88-5.69c0.17,1.85-1.71,1.42-2.54,1.5c-4.86,0.45-8.98,2.65-13.31,4.34
	c-1.53,0.6-3.35,1.37-2.58,3.51c-0.04,0.31-0.09,0.61-0.13,0.92C186.71,66.88,188.54,65.24,189.39,63.65z"/>
<path class="st17" d="M189.72,68.23c0.04-0.31,0.09-0.61,0.13-0.92c1.41,0.4,2.82,0.8,4.24,1.19c0.65,0.18,1.73-0.11,1.67,0.88
	c-0.07,1.15-1.17,0.81-1.94,0.76c-0.44-0.03-0.86-0.25-1.3-0.38c-0.01-0.75-0.32-1.18-1.24-1
	C190.68,68.79,190.11,68.73,189.72,68.23z"/>
<path class="st20" d="M191.28,68.76c0.92-0.18,1.24,0.26,1.24,1C191.75,69.78,191.48,69.31,191.28,68.76z"/>
<path class="st18" d="M143.75,174.98c0.26,0.41,0.53,0.81,0.79,1.22c-0.8,0.01-1.61,0.03-2.42,0.04c0.18-0.42,0.35-0.83,0.53-1.25
	C143.01,174.98,143.38,174.98,143.75,174.98z"/>
</svg>
