<?xml version="1.0" encoding="UTF-8"?>
<svg id="Layer_1" data-name="Layer 1" xmlns="http://www.w3.org/2000/svg" viewBox="0 0 414 200">
  <defs>
    <style>
      .cls-1 {
        fill: #f7b7d3;
      }

      .cls-2 {
        fill: #00bff3;
      }

      .cls-3 {
        fill: #edeae0;
      }

      .cls-4 {
        fill: #edebea;
      }

      .cls-5 {
        fill: #fff9b8;
      }

      .cls-6 {
        fill: #fff200;
      }

      .cls-7 {
        fill: #fbb040;
      }

      .cls-8 {
        fill: #e5decb;
      }

      .cls-9 {
        fill: #fdfdfd;
      }

      .cls-10 {
        fill: #655d54;
      }

      .cls-11 {
        fill: #9ed2f1;
      }

      .cls-12 {
        fill: #c1c0c0;
      }

      .cls-13 {
        fill: #b9b1ad;
      }

      .cls-14 {
        fill: #b3cdb7;
      }

      .cls-15 {
        fill: #bcad98;
      }

      .cls-16 {
        fill: #e1dcd6;
      }

      .cls-17 {
        fill: #403b36;
      }

      .cls-18 {
        fill: #46413d;
      }

      .cls-19 {
        fill: #6d6b6b;
      }

      .cls-20 {
        fill: #342e2c;
      }

      .cls-21 {
        fill: #494542;
      }

      .cls-22 {
        fill: #524d4a;
      }
    </style>
  </defs>
  <path class="cls-17" d="M158.68,180.23c-.21-.05-.43-.1-.64-.15-.47,.02-.94,.03-1.41,.05-1.26,.3-2.51,.59-3.77,.89-1.07,.15-2.13,.3-3.2,.46-.28,.03-.55,.06-.83,.09-.65,.07-1.29,.13-1.94,.2-2.37-.03-4.73-.06-7.1-.08-.47-.04-.94-.08-1.41-.12-.28-.03-.56-.07-.84-.1-.15-.03-.31-.05-.46-.08-.63-.13-1.26-.25-1.88-.38-.88-.23-1.77-.47-2.65-.7-3.02,.3-6.04,.61-9.06,.91-.76,.08-1.53,.13-2.29,.19-2.42,.03-4.86,.21-7.26,.03-1.47-.11-2.89-.8-4.34-1.22,5.95,.22,11.91,.47,17.43-1.06-.24-1.03-.41-1.75-.57-2.47,11.29,4.17,24.61,5.13,28.59,2.11-2.39-1.79-4.77-3.63-7.22-5.36-.49-.34-1.27-.43-1.89-.36-2.84,.3-5.67,.9-8.51,1-3.4,.12-6.84-.06-9.91-1.93-2.28-1.39-4.61-1.23-6.85,.58,1.99,1.37,3.94,2.72,5.9,4.07-.86,.97-1.05,1.13-2.63-.13-3.34-2.66-6.82-4.32-11.14-2.73-.64,.24-1.41,.4-2.06,.29-3.16-.56-7-.3-9.27-2.08-2.86-2.24-5.08-1.97-7.85-.99-.87,.31-1.75,.58-2.45,.81-.27,.81-.49,1.47-.71,2.14-.91-.53-1.82-1.07-2.74-1.6,.15-.47,.29-.93,.44-1.4,.48-.11,.96-.22,1.45-.33,.15-.05,.3-.09,.45-.14,4.16-1.43,8.3-2.9,12.48-4.28,.71-.24,1.54-.12,2.31-.17,.02,.3,.04,.6,.06,.9-.8,.22-1.59,.44-2.39,.65-.13,.01-.25,.07-.34,.17-.33,.1-.67,.2-1,.3-.16,.1-.31,.19-.47,.29-1.24,.92-.26,1.44,.38,1.91,3.12,2.29,6.73,3.06,10.34,2.24,5.99-1.37,11.86-3.23,17.79-4.89,.13,0,.24-.06,.34-.15,1.84-.7,3.69-1.4,5.53-2.1,.03-.23,.07-.45,.1-.68l-5.21-2.67c-.11-.08-.24-.11-.37-.09-5.2-1.37-10.15-.06-15.07,1.51-.41,.14-.83,.27-1.24,.41-2.31,.79-4.62,1.58-6.93,2.37-.28,.05-.56,.1-.84,.16-.19-.19-.37-.37-.56-.56,.24-.21,.48-.42,.72-.63,.4-.46,.8-.91,1.2-1.37,.51,.11,1.08,.44,1.51,.3,3.03-.98,6.04-2.06,9.05-3.1,.01-.17,.02-.33,.04-.5-1.26-.43-2.52-.86-3.78-1.29-.19-.03-.38-.06-.56-.09-2.21,0-4.43,0-6.64,0-.19,.03-.38,.06-.57,.09-1.1,.29-2.21,.58-3.08,.81,1.38,1.29,2.62,2.46,3.87,3.62-.32,.07-.64,.14-.96,.2-2.32-1.05-4.64-2.1-6.96-3.16-.6-.42-1.2-.84-1.79-1.26,2.39-.32,4.77-.64,7.16-.96,.57-.14,1.15-.27,1.72-.41,2.42-.09,4.85-.18,7.28-.28,.22,.03,.44,.07,.66,.11,1.14,.33,2.28,.66,3.43,.99,.42,.16,.84,.32,1.26,.49,.45,.23,.89,.46,1.34,.7,.47,0,.94-.01,1.41-.02,2.83-.38,5.66-.77,8.5-1.15,.43-.11,.86-.22,1.29-.32,.35-.05,.7-.09,1.05-.14,.42-.11,.85-.21,1.27-.32,1.56,0,3.11,.01,4.67,.02,.46,.45,.92,.9,1.39,1.35-.65-.09-1.29-.19-1.94-.28-.21-.02-.42-.04-.62-.07-.62,0-1.24,0-1.86,0-.21,.03-.42,.05-.62,.08-1.52,.29-3.04,.59-4.56,.88,2.59,1.55,4.94,2.95,7.3,4.36,.15-.01,.29-.02,.44-.03,1.73-.52,3.49-.99,5.19-1.59,.78-.27,1.47-.81,2.2-1.23l.09-1.15c1.68,.34,3.36,.64,5.03,1.04,.74,.18,1.43,.56,2.14,.85-2.13,.38-4.26,.76-6.39,1.13-.26,.07-.51,.15-.77,.22-5.85,1.95-11.71,3.9-17.56,5.85,.03,.37,.05,.74,.08,1.11,1.81,.54,3.59,1.3,5.44,1.57,10.57,1.56,19.89-3.18,29.94-6.02-2.54-2.34-5.26-3.05-8.12-3.39,0-.54,0-1.07,0-1.61,.3-.08,.6-.16,.89-.24,.17,0,.33,0,.5,.01,.16,0,.32,0,.49,.01,.46,.16,.92,.32,1.38,.49,2.15,1.35,4.31,2.7,6.47,4.04,.12,.07,.31,.09,.44,.05,2.52-.81,5.03-1.63,7.54-2.45,0-.23,.02-.45,.03-.68-1.72-.53-3.44-1.07-5.16-1.6,0-.4-.01-.79-.02-1.19,.36,.1,.72,.2,1.07,.31,0,0,.22,.05,.22,.05,0,0,.22-.03,.22-.03,.28,.04,.56,.08,.84,.12,.43,.14,.86,.28,1.29,.42,2.86,1.94,6.02,1.98,9.22,1.33,1.69-.34,3.32-1.01,4.97-1.53,1.68-.43,3.35-.87,5.03-1.3,2.58-.01,5.16-.02,7.74-.03-.47,.35-.93,.98-1.43,1.01-2.07,.12-4.15,.06-6.22,.07-.66,.2-1.32,.39-1.98,.59-1.13,.37-2.25,.74-3.48,1.15,2.85,1.53,5.44,2.92,8.05,4.3,.19,.1,.46,.18,.66,.13,3.7-.95,7.4-1.92,11.1-2.88,.16-.34,.32-.68,.49-1.02,.56,.17,1.13,.34,1.67,.5,1.12-3.06-1.46-4.08-2.96-5.54-2.79-2.72-5.8-5.19-8.67-7.82-.41-.38-.57-1.05-.85-1.58,.4,.05,.92-.05,1.17,.16,2.12,1.82,4.19,3.71,6.29,5.55,1.72,1.51,3.47,2.99,5.27,4.54,1.36-1.74,1.8-2.95,.37-4.49-4.19-4.5-8.25-9.13-12.39-13.68-5.21-5.71-10.42-11.41-15.69-17.06-1.14-1.22-2.51-2.2-3.78-3.3-.28-.72-.56-1.44-.84-2.17,.21-.23,.41-.45,.62-.68,1.38,1.36,2.82,2.66,4.14,4.08,5.27,5.67,10.5,11.37,15.74,17.06,.53,.58,1.01,1.2,1.53,1.78,4.26,4.76,8.66,9.39,12.73,14.31,2.62,3.16,4.82,6.7,7.06,10.17,.97,1.51,1.79,1.21,2.78,.26,1.93-1.87,1.54-4.17,.51-6.12-1.47-2.8-3.14-5.57-5.16-7.98-5.47-6.52-11.16-12.84-16.78-19.23-5.97-6.79-11.96-13.57-17.94-20.35,1.52-1.11,1.89,.49,2.52,1.21,2.94,3.35,5.81,6.76,8.96,10.46,.09-.79,.29-1.25,.15-1.49-1.31-2.21-2.75-4.35-4.02-6.58-1.36-2.38-2.58-4.83-3.87-7.25h-.03c.15-.1,.3-.18,.45-.27,1.79,2.64,3.69,5.22,5.36,7.94,4.79,7.81,9.41,15.71,15.72,22.43,4.3,4.59,8.53,9.27,12.47,14.19,1.9,2.37,3.05,5.38,4.7,8.39,1.09-.55,2.25-1.14,3.37-1.71-1.77-1.74-3.65-3.01-4.76-4.79-5.38-8.61-10.56-17.34-15.78-26.05-2.93-4.89-5.84-9.8-8.69-14.75-1.32-2.29-2.46-4.68-3.68-7.03,.71-.35,1.43-.69,2.14-1.04,.97,1.67,2.15,3.25,2.88,5.03,2.66,6.48,5.87,12.6,9.75,18.43,3.95,5.95,7.38,12.25,11.04,18.4l.85-.04-.77-.92c-.67-3.55-1.34-7.11-2-10.66-.1-.87-.2-1.73-.3-2.6-.04-.17-.08-.34-.12-.51-.29-.32-.58-.63-.88-.95-.32-.79-.63-1.59-.95-2.38,.62-.3,1.23-.6,1.85-.9l.17-1.98c.08-1.01,.16-2.03,.23-3.04,.17-1.19,.33-2.38,.5-3.57,.3,.11,.6,.23,.9,.34-.07,1.01-.13,2.02-.2,3.03-.18,.56-.35,1.12-.53,1.69,.03,.31,.1,.63,.09,.94-.17,9.21,1.45,18.06,5.02,26.52,.83,1.97,1.74,4.02,4.16,4.72,.09-.3,.24-.52,.2-.72-1.34-7.63-.93-15.26-.28-22.92,.08-.89-.69-1.94-1.24-2.8-1.91-3-3.89-5.94-5.84-8.91,.39-.1,.78-.19,1.17-.29,1.13,1.88,2.07,3.91,3.42,5.61,2.84,3.59,5.89,7,8.83,10.46,.64-1.3,1.32-2.82,2.12-4.27,1.8-3.24,1.93-6.23-1.06-8.86-.16-.14-.21-.42-.33-.62-3.73-5.97-7.46-11.94-11.19-17.9-.36,.52-.97,1.38-1.58,2.25-.33-.07-.66-.14-1-.22,.81-1.56,1.68-3.09,2.43-4.68,.54-1.16,.64-2.14-1.15-1.41-.06-.43-.12-.86-.18-1.29,.38-.49,.77-.98,1.15-1.46-2.86-.92-5.51-1.78-8.16-2.63-.3-.12-.6-.23-.9-.35,0,0-.01,0-.01,0,.03-.42,.06-.83,.09-1.25,.75,.3,1.5,.61,2.26,.91,.34,.1,.68,.21,1.02,.31,1.89,.43,3.78,.86,5.65,1.29,.34-1.02,.53-1.61,.73-2.2l.97-5.22c-.05-.12-.07-.24-.05-.36l-.41-.22c-3.41-1.27-6.83-2.54-10.24-3.81,.17-.29,.33-.58,.5-.86,2.01,.83,4.01,1.67,6.02,2.5l.95,.36c.49,.13,.98,.27,1.48,.4,.15,.01,.31,.03,.46,.04l.84,.16c.29,0,.59,.01,.88,.02,.16-.22,.31-.44,.47-.65,.26,.02,.51,.05,.77,.07-.27-.16-.55-.31-.82-.47-.78-2.41-2.09-4.8-2.18-7.24-.1-2.65-1.24-3.59-3.34-4.12-.42-.81-.83-1.62-1.25-2.43,1.26,.68,2.51,1.39,3.79,2.05,4.64,2.4,9.21,5,14.91,5.7-.27-1.1-.33-2.05-.73-2.8-2.69-4.96-6.83-8.38-11.57-11.15-.21-.12-.43-.25-.64-.37-.13-.02-.22-.09-.27-.21,.3-.28,.6-.56,.9-.83,1.3,.26,2.79,2.24,3.78-.42,2.66-2.11,5.39-4.13,7.95-6.35,6.23-5.42,12.39-10.92,18.55-16.42,8.09-7.2,16.15-14.43,24.22-21.65,1.74,.61,.49,1.27-.02,1.77-1.92,1.85-3.85,3.68-5.84,5.44-6.16,5.49-12.35,10.95-18.54,16.41-5.25,4.63-10.53,9.24-15.78,13.87-.81,.72-1.56,1.51-2.05,1.98,2.04,3.42,3.95,6.62,5.86,9.82,.14,.41,.29,.82,.43,1.23,.12,.11,.16,.25,.13,.41,.9,.35,1.81,.7,2.71,1.04,.17,.04,.35,.07,.52,.11,.18,.08,.36,.17,.54,.25,0,0-.08,.09-.08,.09,0,0,.07-.1,.07-.1,.13,.04,.26,.08,.39,.12,.32,.06,.63,.12,.95,.18,.19,.07,.37,.15,.56,.22,.16-.05,.28,0,.36,.14,.22,.1,.44,.2,.66,.3,.71,.23,1.42,.47,2.13,.7,.22,.08,.43,.17,.65,.25,.56,.2,1.11,.39,1.67,.59,.3,.15,.61,.3,.91,.46,.36,.4,.72,.8,1.08,1.2-.31,.06-.61,.12-.91,.17-3.57-1.23-7.13-2.45-10.7-3.68-1.47,.87-1.52,1.96-.16,3.24,0,.32,0,.64,0,.96-1.47,1.25-1.45,2.53-.05,3.82,.81,.09,1.63,.17,2.44,.26l3.12,.23c5.05,.3,9.5,1.72,12.77,6.1,.73,.98,2.58,1.1,4.45,1.82-.68-3.69-2.26-5.88-4.41-7.61-2.11-1.7-4.41-3.17-6.62-4.74,.05-.17,.11-.34,.16-.51,.86,.25,1.72,.51,2.58,.76,.16,.11,.33,.22,.49,.33,0,0,.02,0,.02,0,.27,.17,.54,.33,.81,.5,.82,.32,1.64,.63,2.46,.95l.18,.04,.18-.03c8.64,.41,16.71,2.45,23.39,8.48,0,.32,0,.64,0,.97-.1,.1-.2,.21-.3,.31-6.27-5.29-13.55-7.71-21.54-8.36,1.44,2.82,2.7,5.38,4.08,7.87,.23,.42,.99,.61,1.54,.76,3.65,.97,7.36,1.72,10.95,2.89,3.4,1.1,6.62,3.05,7.79,6.58,1.01,3.07,3.06,2.84,5.49,3.25-.98-2.34-1.85-4.43-2.72-6.52,.42-.04,.85-.07,1.27-.11,.81,1.85,1.54,3.75,2.46,5.55,.45,.88,1.12,1.95,1.94,2.27,4.64,1.79,7.95,5,10.31,9.35v9.17c.87-1.59,1.42-2.61,1.98-3.64,.16-.91,.32-1.82,.47-2.73l.22,.02c.42,.03,.84,.06,1.26,.09-.07,.6-.14,1.2-.21,1.8-.08,.22-.16,.44-.24,.67-.1,.42-.2,.83-.3,1.25-.08,.13-.16,.27-.23,.4-.62,1.25-1.23,2.5-1.72,3.48,.53,1.53,.99,2.87,1.46,4.21-.04,.94-.05,1.87-.13,2.81-.25,2.88-.52,5.76-.78,8.64-.26-.88-.52-1.75-.78-2.63-.05-.13-.04-.24,.04-.35,1.35-1.2,1.39-5.28,.05-6.62-.26-1.13-.52-2.27-.78-3.4-1.71-5.52-5.44-8.85-11.07-10.81-.16,4.19,.21,7.92,1.67,11.44,1.42,3.44,3.1,6.77,4.66,10.15,.05,.21,.11,.43,.16,.64,.24,.97,.48,1.94,.72,2.9-.41,.04-.81,.07-1.21,.11-.55-1.79-1.1-3.58-1.65-5.37-.23-.02-.46-.04-.69-.05-.68,1.14-1.36,2.28-2.04,3.42-.82,2.35-1.64,4.71-2.47,7.06-.1,.18-.2,.35-.3,.53-.15,.69-.3,1.38-.45,2.07-.08,1.21-.15,2.42-.23,3.63-.41-.63-.83-1.26-1.24-1.89,.14-1.06,.28-2.12,.42-3.18,.15-.45,.39-.89,.42-1.34,.06-1.01,.01-2.03,0-3.05-2.35-5.83-2.96-11.53,1.04-16.98,.21-.29-.28-1.13-.45-1.71-.01-.42-.02-.84-.03-1.26l.46-2.85c.02-1.18-.09-2.38,.1-3.53,.16-.98,.11-2.37,1.76-2.2,2.88,1.67,5.77,3.35,8.85,5.14,.11-.49,.45-1.27,.44-2.05-.06-4.47-2.79-7.28-5.98-9.79-7.38-4.71-15.66-4.75-23.85-5.27-.08,.19-.16,.39-.24,.58,.56,.62,1.12,1.24,1.68,1.87,1.8,1.28,3.47,2.85,5.44,3.78,3.68,1.75,7.53,3.13,11.31,4.66-.18,.37-.36,.75-.54,1.12-2.42-.8-4.84-1.6-7.26-2.4-.48,.14-.95,.28-1.43,.43-.44-.9-.69-2.04-2.14-1.26-3.88,2.08-8,3.27-12.39,3.59-.51,.04-1.23,.67-1.41,1.19-1.78,5.15-3.46,10.32-5.17,15.49-.11,.51-.22,1.02-.33,1.53-.11,.31-.21,.62-.32,.93-.21-.62-.41-1.24-.62-1.86,.18-1.01,.36-2.02,.54-3.03,.02-.24,.04-.48,.06-.73-.22,.12-.44,.24-.66,.36-2.08,1.35-4.18,2.67-6.23,4.07-.59,.4-1.46,1.03-1.46,1.56,0,2.79,.24,5.58,.42,8.82,1.06-.93,1.8-1.58,2.53-2.22,.19,.34,.38,.68,.57,1.03-.34,.4-.62,.93-1.04,1.19-1.69,1.04-2.47,2.44-2.54,4.52-.05,1.58-.69,3.15-1.06,4.72-.15,.52-.29,1.03-.44,1.55-.18,.43-.36,.87-.54,1.3-.43-.31-.85-.61-1.28-.92,.14-.48,.27-.96,.41-1.45,.28-.34,.56-.68,.85-1.03,.08-.46,.17-.91,.25-1.37,.07-.18,.14-.36,.21-.54,.14-.85,.27-1.71,.41-2.56,0-.27,.02-.54,.03-.81-.26-4.88-.23-9.79-.88-14.61-.67-5.03-2.05-9.96-3-14.96-.4-2.09-.49-4.24-.72-6.36l-.96-.23c-1.11,2.17-2.52,4.23-3.28,6.52-1.63,4.91-.96,9.98-.43,15.02,.6,5.72,1.36,11.45,1.6,17.19,.22,5.34,0,5.58,2.17,9.9,.36,.85,.72,1.71,1.23,2.91,.09-.76,.13-1.13,.17-1.51,1.24-.13,2.48-.26,3.72-.39,.16,.32,.32,.65,.48,.97-1.29,.49-2.65,.85-3.82,1.55-.42,.25-.62,1.86-.48,1.93,1.61,.82,3.11,1.92,5.18,.96,2.37-1.09,4.92-1.78,7.39-2.64,.42-.35,.84-.69,1.26-1.04,.15,0,.23,.08,.24,.23,.45,.04,.9,.08,1.35,.12,.28-.41,.55-.82,.83-1.23,.44,.05,.88,.1,1.33,.15,.2,.34,.35,.92,.61,.97,.8,.18,1.64,.16,2.46,.22,.46,.29,.93,.58,1.58,.98-.95,.09-1.68,.16-2.4,.23-.79-.02-1.58-.05-2.37-.07-.28,.01-.55,.02-.83,.04-7.45,1.33-14.32,4.08-20.72,8.48,3.01,3.82,6.84,4.37,10.99,3.57,2.18-.42,4.3-1.22,6.45-1.84,.35,.19,.7,.38,1.23,.66-.64,.34-1.04,.55-1.43,.76-1.16,.43-2.29,.94-3.47,1.28-4.89,1.41-9.7,1.66-13.69-2.21-1.65-1.59-2.7-1.15-4.07,.25,3.27,5.22,7.69,8.15,13.77,8.21,0,.4,.01,.81,.02,1.21-.31-.01-.62-.02-.94-.04-.31-.02-.61-.03-.92-.05-.62-.08-1.23-.15-1.85-.23-.68-.2-1.36-.4-2.03-.6-2.86-1.68-5.73-.43-8.59,0-1.12,.25-2.25,.49-3.37,.74-.21,.03-.42,.07-.63,.1-1.35,.17-2.69,.34-4.04,.51-.68,.06-1.37,.12-2.05,.18-.24,.03-.49,.06-.73,.09l-1.46,.08c-1.68,0-3.36,0-5.04,0-1.41-.12-2.83-.24-4.24-.36-.4-.1-.8-.2-1.2-.3-.68-.12-1.35-.25-2.03-.37-.58-.18-1.16-.36-1.74-.54l-.18,.04s-.15-.1-.15-.11c-.56,.06-1.11,.11-1.67,.17-.3,.07-.61,.14-.91,.21-.15,.04-.3,.08-.45,.12-.39,.09-.78,.18-1.17,.27,0,0-.18,.02-.18,.02-.32,.03-.64,.05-.96,.08-1.11,.16-2.23,.31-3.34,.47-3.26,0-6.52-.01-9.78-.02l-1.72-.31c-.83-.12-1.66-.23-2.49-.35-.8-.25-1.6-.49-2.41-.74-2.13,0-4.25,0-6.38-.01-.96,.16-1.91,.32-2.87,.49-.62,.12-1.25,.25-1.87,.37-.82,.04-1.64,.08-2.46,.12-2.56,0-5.11,0-7.67,0-.19-.02-.38-.03-.58-.05-.92-.15-1.85-.29-2.77-.44-.69-.15-1.37-.29-2.06-.44-.72-.21-1.44-.42-2.16-.62-.72-.25-1.43-.49-2.15-.74Zm121.41-80.56c2.57,.3,5.14,.6,8.11,.95-1.75-4.95-5.38-6.64-9.38-7.84-7.79-3.08-15.74-3.59-23.86-1.55h-3.87c.68,3.28,3.83,5.63,8.5,6.81l20.49,1.63Zm-41.48,81.35c.31-.05,.61-.11,.92-.16,1.83-.5,3.67-1,5.66-1.54-1.2-1.41-2.58-2.59-3.38-4.08-.84-1.56-1.48-1.48-2.87-.79-4.95,2.45-10.08,4.43-15.67,4.6-4.13,.13-8.22-.47-11.06-3.78-1.77-2.07-3.22-2.5-5.42-.86,.21,.3,.38,.64,.63,.91,3.54,3.91,8.15,5.85,13.15,6.26,5.06,.41,10.19-.01,15.29-.07,.17-.04,.33-.07,.5-.11,.75-.13,1.5-.26,2.26-.39Zm-75.41-.61c.16,.04,.32,.09,.48,.13,1.56,.29,3.12,.57,4.69,.86,.59,.05,1.18,.1,1.77,.16,1.71-.01,3.43-.02,5.14-.03,.61-.09,1.22-.19,1.83-.28,.32-.03,.64-.06,.96-.09,.15,0,.31-.01,.46-.02,1.77-.35,3.54-.69,5.8-1.13-1.89-1.32-3.4-2.26-4.77-3.36-2.1-1.69-4.14-3.13-6.96-1.51-.77,.44-1.79,.48-2.7,.6-5.12,.66-10.06,.21-14.39-2.98-2.55-1.87-3.27-1.98-6.28-.25,4.14,3.67,8.71,6.42,13.98,7.89Zm27.94,.39c.3,.08,.6,.17,.9,.25,4.14,.29,8.28,.58,12.42,.87,.29,0,.59-.01,.88-.02,.85-.09,1.7-.17,2.55-.26,.16-.02,.31-.03,.47-.05,1.07-.28,2.14-.56,3.41-.9-2.1-1.59-4.23-2.8-5.81-4.53-1.31-1.43-2.36-1.43-4.03-1.02-6.33,1.57-12.42,1.35-17.81-3.06-.4-.33-1.19-.5-1.67-.35-1.37,.42-2.67,1.06-4.34,1.74,.98,.88,1.62,1.73,2.47,2.16,3.49,1.79,7.04,3.45,10.57,5.15Zm40.5-23.5c.76,1.34,.84,3.36,3.21,3.43v-5.82c1.3-6.99,4.18-13.33,7.48-19.53,.62-1.16,.98-2.64,.96-3.96-.05-2.99-.43-5.97-.64-8.96-.06-.84,0-1.69,0-2.53-4.77,8.68-8.83,17.48-10.59,27.11-.61,3.33-.29,6.84-.4,10.27Zm-32.14,16.82c.16-.06,.32-.12,.48-.19,.61-.07,1.23-.15,1.84-.22,.18-.07,.36-.14,.55-.22,5.59-1.64,11.17-3.28,17.21-5.06-8.04-5.8-20.57-2.82-34.21,2.33,2.05,3.03,9.01,4.68,14.13,3.35Zm52.04-8.61c-5.48-2.63-10.83-2.54-16.03-1.24-5.15,1.29-10.11,3.37-15.15,5.11-2.82,.98-5.63,1.98-8.49,2.99,.17,.47,.2,.72,.34,.88,.41,.47,.83,.95,1.3,1.34,4.31,3.59,9.27,3.63,14.33,2.45,8.58-2,15.9-6.76,23.69-11.54Zm-27.69-87.71c-1.62,5.08,4.27,10.96,8.98,11.64,3.6,.52,7.26,.99,10.87,.87,5.68-.18,11.34-.86,17.01-1.33,.09-.29,.18-.57,.27-.86-.79-.88-1.48-1.9-2.4-2.61-3.14-2.4-6.9-2.57-10.61-2.9-4.32-.38-8.68-.56-12.92-1.38-3.75-.73-7.36-2.23-11.21-3.44Zm8.51,39.99c3.04-3.8,4.37-8.01,3.44-12.61-.73-3.61-2.5-7.02-3.09-10.64-.67-4.11-3.85-4.92-6.52-6.64-5.86,11.27-.51,21.03,6.16,29.89Zm-76.95,52.47l-.11,.76c1.4,.77,2.76,1.67,4.22,2.28,4.43,1.85,8.99,1.64,13.43,.2,6.07-1.96,12.05-4.22,18.32-6.44-.51-.45-.76-.77-1.08-.94-4.76-2.52-9.75-3.48-15.01-2.03-3.86,1.06-7.69,2.22-11.52,3.41-2.77,.86-5.51,1.84-8.26,2.76Zm97.08-73.47c-3.17,10.38-.27,20.07,2.2,30.03,3.29-2.02,5.15-4.81,5.88-8.47,1.05-5.3-.5-10.26-1.61-15.35-.77-3.54-3.05-4.96-6.47-6.22Zm-8.13,39.68c-.38-.09-.75-.19-1.13-.28-1.78,4.29-3.65,8.54-5.29,12.89-1.36,3.61-2.52,7.35-1.39,11.28,.21,.73,1.04,1.77,1.6,1.78,.8,.02,1.98-.56,2.38-1.25,1.47-2.56,3.02-5.15,3.91-7.94,1.76-5.46,.49-10.99-.08-16.48Zm-16.29-69.86c.56,.53,.88,.86,1.24,1.16,3.89,3.16,7.75,6.27,8.78,11.73,.12,.64,1.96,1.1,3.06,1.27,.31,.05,1.11-1.17,1.19-1.87,.74-6.97-1.96-12.64-6.68-17.44-.36-.37-1.56-.45-1.94-.13-1.9,1.6-3.65,3.38-5.65,5.28Zm26.63,63.52c.3,.19,.6,.38,.9,.57,5.03-2.78,9.85-5.77,11.8-11.83,1.92-5.94,1.7-11.92,.56-17.98-.74,4.02-2.63,7.24-5.78,9.59,.22,.91,.57,1.72,.58,2.53,.08,5.79-1.72,10.74-6.28,14.48-.78,.64-1.19,1.74-1.77,2.63Zm-11.75-37.93c-2.16,3.01-4.1,5.68-5.99,8.38-.23,.33-.22,.89-.19,1.34,.13,2.82,.71,5.7,.34,8.45-.34,2.56-1.46,5.09-2.67,7.4-.59,1.13-1.44,2.01-.3,2.94,.33,.27,1.79-.37,2.32-.97,3.92-4.46,5.92-9.7,7.18-15.6,.92-4.32-.73-7.92-.68-11.95Zm-13.4,66.7c.27-.07,.54-.14,.81-.21-1.38-5.94,.11-11.61,1.4-17.29,.63-2.76-1.2-6.51-3.81-7.78,0,6.78-.1,13.54,.07,20.3,.04,1.67,.99,3.32,1.52,4.98Zm52.9-49.4c0-.28,0-.56,0-.83-.97-.58-2-1.07-2.9-1.75-.93-.7-1.74-1.57-2.59-2.38-.63-.61-5.86-.76-6.43-.13-.19,.21-.29,.56-.3,.85-.02,2.27-.01,4.54-.01,7.41,4.41-1.14,8.32-2.16,12.23-3.17Zm-55.12,49.3c-1.3,.69-2.75,1.43-4.18,2.23-.47,.26-1.03,.59-1.26,1.04-.72,1.42-1.3,2.91-2.09,4.71,.68,.14,1.62,.65,2.32,.42,4.42-1.45,8.78-3.06,12.94-4.54-2.51-1.25-5.14-2.56-7.74-3.86Zm67.97-18.77c2.95-4.44,5.62-8.87,1.09-13.83-2.67,2.46-3.27,9.1-1.09,13.83Zm-49.63-39.87c1.91-.48,3.85,.3,5.06-1.89,1.36-2.48,.1-4.46-1.33-5.84-.93-.9-2.99-.59-4.76-.85,.38,3.15,.69,5.7,1.03,8.59Zm-1.26,9.96c3.65,.3,5.6-3.15,5.12-8.94-1.27,.06-2.55,.13-3.69,.18-.5,3.06-.95,5.84-1.43,8.76Zm3.64,52.35c.48-3.31-.72-5.93-3.2-7.04-1.01,2.04-2.02,4.08-3.18,6.42,2.43,.24,4.33,.42,6.38,.62Zm-34.07,1.84c.18-.14,.36-.28,.53-.41-1.56-2.3-3.12-4.6-4.67-6.91-.78,1.19-.99,2.1-1.18,3.01-.6,2.84-.13,3.5,2.61,3.8,.91,.1,1.81,.33,2.71,.51Zm23.51-38.61c3.79-5.69,5.14-9.08,4.24-10.62-1.35,1.81-2.49,3.87-4.12,5.38-2.06,1.91-1.83,3.46-.12,5.25Zm24.23-17.55c2.41-.54,4.29-3.84,4.22-7.65-.79,.04-2.17-.16-2.29,.14-.92,2.41-3.3,4.48-1.93,7.5Zm-25.03-8.64c1.51-2.58,2.84-4.85,4.16-7.12-.18-.24-.36-.48-.55-.72-.97,.23-2.54,.17-2.8,.74-.92,1.98-3.42,3.79-.81,7.1Zm38.73,2.48c-1.91-1.89-3.88-1.08-5.74-1.26,.15,2.42,1.57,2.74,5.74,1.26Zm-31.94,12.64c.32-.02,.63-.04,.95-.06,.37-.94,.74-1.88,1.11-2.82-.13-.18-.26-.36-.39-.54-.76,.26-2.03,.36-2.16,.81-.22,.76,.29,1.73,.49,2.61Zm-10.55-23.48c.58,1.48,.94,2.42,1.56,3.99,.68-1.56,1.07-2.47,1.62-3.73-1.16-.09-1.93-.16-3.18-.26Zm-38.72,15.01c.01,.05,0,.12,.03,.15,.04,.03,.11,.03,.17,.04-.02-.08-.03-.17-.05-.25-.05,.02-.11,.04-.16,.07Z"/>
  <path class="cls-7" d="M100.85,36.16c.05-.3,.06-.85,.14-.87,2.56-.35,5.12-.66,7.69-.97,1.69,6.31,3.39,12.61,5.08,18.92,.46,1.83,.8,3.71,1.41,5.48,2.63,7.69,5.24,15.39,8.04,23.01,3.51,9.58,8.4,18.42,14.9,26.21,3.58,4.29,7.86,7.91,13.16,10.26-1.63,1.44-3.15,2.62-4.47,4.01-.99,1.04-1.71,.79-2.81,.21-5.64-2.97-9.84-7.68-13.62-12.6-3.59-4.68-6.78-9.8-9.35-15.13-3.6-7.44-6.46-15.25-9.64-22.91-.61-2.03-1.26-4.05-1.81-6.1-2.55-9.46-5.05-18.93-7.62-28.38-.12-.46-.72-.78-1.1-1.16Z"/>
  <path class="cls-18" d="M111.39,71.8c3.18,7.65,6.04,15.46,9.64,22.91,2.57,5.33,5.77,10.45,9.35,15.13,3.78,4.92,7.97,9.62,13.62,12.6,1.1,.58,1.82,.83,2.81-.21,1.32-1.39,2.84-2.57,4.47-4.01-5.3-2.35-9.58-5.97-13.16-10.26-6.49-7.79-11.38-16.63-14.9-26.21-2.8-7.63-5.41-15.32-8.04-23.01-.61-1.78-.94-3.65-1.41-5.48,.17-.79,.35-1.58,.52-2.37,1.81,6.03,3.28,12.19,5.5,18.05,3.16,8.36,6.53,16.67,10.46,24.68,2.43,4.94,5.68,9.6,9.27,13.75,3.32,3.82,6.94,7.67,12.03,9.29,.34,.11,.72,.13,1.1,.2,0-2.78,0-5.44,0-8.09,0-3.75,1.48-6.75,4.99-8.03,1.79-.65,3.92-.35,6.03-.48,0-4.98,1.42-9.23,6.18-12.11,4.94-2.98,8.99-1.55,12.87,1.66,2.44-1.5,3.52-3.13,3.18-6.21-.86-7.91,4.58-13.76,12.21-13.71,.46,.16,.92,.32,1.38,.48,0,0,.01,0,.01,0-.16,.47-.33,.94-.49,1.41-4.32-1.6-10.49,2.21-11.11,7.12-.31,2.46-.32,5.12,.28,7.49,.94,3.77,2.5,7.39,3.79,11.07-.41-.15-.82-.31-1.23-.46l-2.43-4.8c-.05-1.18-.42-1.97-1.8-1.55-.03-.26-.06-.52-.09-.78,.12-.38,.24-.76,.35-1.14-.2-.15-.4-.29-.6-.44-1.64,1.95-3.27,3.9-4.91,5.84l.03-.02c-.32,.16-.63,.32-.95,.49h0c-1.38,1.27-2.76,2.54-4.14,3.81,.02,.49,.04,.98,.06,1.46-.88,2,.02,4.76,2.04,6.25,.46,.96,.97,1.89,1.35,2.88,.23,.6,.25,1.28,.36,1.92-1.42-1.84-3.02-3.57-4.21-5.55-2.69-4.48-1.76-8.14,2.5-11.19,1.22-.87,2.26-2,3.39-3.02-5.7-5.55-10.6-3.34-14.44,1.2-4.08,4.82-1.72,12.25,1.41,16.42,2.1,2.81,4.43,5.44,6.66,8.14-.21,.23-.41,.45-.62,.68-1.24-.72-2.48-1.45-3.71-2.17-1.48,.82-2.96,1.64-4.69,2.6,.75,.58,1.21,.94,1.67,1.29,0,.29,0,.59,0,.88-.06,.22-.11,.44-.17,.66-.86-.64-1.73-1.28-2.91-2.15-.47,1.09-1.09,2-1.25,2.99-.9,5.39-4,7.6-9.28,6.56-.66-.13-1.38,.08-2.07,.13-.01,.24-.03,.47-.04,.71,1.11,.51,2.25,.95,3.32,1.53,1.4,.76,1.71,1.9,.44,3-4.19,3.64-8.91,5.96-14.58,5.72-1.96-.08-3.3-1.2-3.03-3.09,.34-2.35,1.04-4.74,2.11-6.85,.88-1.75,2.51-3.11,4.01-4.88-1.11-.79-2.11-1.48-3.08-2.19-1.5-1.09-3.09-2.07-4.46-3.31-5.25-4.73-9.4-10.35-13.17-16.38-4.28-6.83-7.31-14.19-10.2-21.66-.69-1.79-1.46-3.54-2.19-5.32-.08-.17-.16-.34-.24-.52-.24-.75-.48-1.5-.73-2.25,.32-.36,.63-.73,.95-1.09Zm35.73,52.27c-.28,.28-.56,.56-.84,.84-2.15,3.01-4.48,5.92-6.35,9.1-.64,1.08-1.08,3.2,1.26,3.79,3.8,.97,11.71-2.28,14.05-5.92-1.1-.43-2.17-.8-3.21-1.26-1.4-.62-1.89-1.45-.8-2.91,.71-.96,1.12-2.15,1.67-3.24,.2-1.82,.41-3.64,.61-5.46-.21-.04-.43-.08-.64-.11-1.51,1.31-3.02,2.61-4.53,3.92-.33,.34-.66,.68-.98,1.03-.09,.07-.17,.15-.23,.23Zm7.1,2.48c5.25,1.44,7.85-1.23,7.99-5.65,.07-2.19-.05-4.43-.38-6.59-.46-2.99-.3-5.58,2.3-7.63,1.39-1.1,.8-3.58-.86-4.45-3.97-2.08-8.89,.69-9.01,5.28-.16,6.36-.04,12.73-.04,19.04Zm12.55-17.73c-4.24,3.01-4.47,3.79-2.68,9.23,2.17-1.52,4.33-3.02,6.58-4.59-1.44-1.71-2.67-3.17-3.9-4.64Z"/>
  <path class="cls-5" d="M278.7,19.83c-8.07,7.22-16.14,14.45-24.22,21.65-6.17,5.49-12.32,11-18.55,16.42-2.56,2.23-5.3,4.24-7.95,6.35-.77-.56-2.18-1.12-2.18-1.68,0-1.47,.31-3.13,1.05-4.38,.83-1.4,.52-2.29-.32-3.32,.1-.05,.21-.09,.32-.1,.41-.14,.9-.18,1.2-.44,2.59-2.24,5.14-4.52,7.71-6.78,6.19-5.47,12.4-10.91,18.56-16.41,5.52-4.94,10.98-9.95,16.47-14.93,.56,0,1.13-.02,1.69-.03,1.06,.3,2.25,.4,3.16,.96,1.14,.7,2.05,1.79,3.06,2.7Z"/>
  <path class="cls-18" d="M292.76,95.05c-.42,.04-.85,.07-1.27,.11-.54-.61-1.09-1.23-1.63-1.84-.29-1.2-.58-2.4-.87-3.6,.68,.13,1.39,.15,2.02,.4,5.44,2.16,10.83,4.67,14.36,9.57,6.51,9.04,11.18,19,11.62,30.43,.12,3.06-1.03,6.16-1.61,9.24-.39,2.05-.82,4.09-1.2,6.14-.78,4.16-.93,8.57-2.43,12.44-2.38,6.1-6.62,10.71-13.26,12.42-1.24,.32-2.37,1.08-3.55,1.64-.58-.31-1.17-.63-1.75-.94-1.91-.29-3.81-.63-5.73-.85-.8-.09-1.68-.09-2.44,.14-2.5,.78-4.9,2.09-7.45,2.44-2.45,.34-5.17,.21-7.5-.57-1.93-.65-3.14-.65-4.47,.85,2.04,2.88,5,3.87,8.15,4.52-1.02,.25-2.03,.51-3.05,.76-.88-.38-1.82-.65-2.61-1.17-1.63-1.07-3.17-2.28-4.75-3.43,.4-.21,.79-.42,1.43-.76-.53-.28-.88-.47-1.23-.66,1.48-.91,2.96-1.82,4.44-2.73,.57,.16,1.14,.33,1.7,.49,.93,.45,1.88,1.33,2.77,1.27,3.05-.21,6.17-.43,9.11-1.22,5.92-1.59,11.43-9.61,11.3-16.36-2.54,1.36-5.06,2.42-7.26,3.95-3.19,2.21-6.16,4.75-9.22,7.16-.36-.18-.72-.37-1.08-.55-.29-.44-.59-.88-.88-1.32,.34-.17,.68-.34,1.02-.51,.2-.03,.4-.06,.6-.09,2.01-1.42,4.01-2.83,6.46-4.56-3.95-1.04-7.27-1.65-10.69-.54-.16,.02-.32,.03-.48,.05-1.19,.79-2.38,1.58-3.57,2.37-.44-.05-.88-.1-1.33-.15,.41-.46,.83-.91,1.24-1.37,.12,0,.21-.07,.26-.18,.42-.28,.84-.56,1.26-.84,.21-.14,.43-.27,.64-.41l.09-.11,.14,.03c.23-.11,.46-.22,.69-.33,2.5-.33,5-.66,7.5-.99l.11,.04h.12c.84,.18,1.69,.36,2.53,.54,.25,.07,.5,.15,.74,.22,.36-.25,.92-.42,1.04-.75,1.9-5.11,5.48-8.53,10.32-10.63,1.6-.69,1.88-1.68,1.3-3.17,0,1.02,.05,2.03,0,3.05-.03,.46-.27,.9-.42,1.34-5.35,2.15-9.77,7-9.56,10.35,1.89-.95,3.73-2.2,5.76-2.81,2.32-.7,3.69-1.75,3.39-4.37,.41,.63,.83,1.26,1.24,1.89-.8,3.77-1.61,7.54-2.41,11.3-.57,1.01-1.14,2.03-2.02,3.6,1.66-.28,2.67-.45,3.68-.62,4.67-1.57,7.65-4.75,8.86-9.62,1.32-5.34,.58-10.64-.28-15.95,.41-.04,.81-.07,1.22-.11,.33,.98,.66,1.95,.99,2.93,.21,.04,.41,.08,.62,.13,.7-1.5,1.4-2.99,2.1-4.49,.28-.84,.56-1.68,.84-2.52,.26,.88,.52,1.75,.78,2.63-.87,1.69-1.75,3.38-2.62,5.07h0c-2.62,1.27-1.65,3.45-1.45,5.9,.69-.65,1.12-1.04,1.54-1.44,2.09-2.25,4.73-4.18,6.17-6.8,4.62-8.45,3.24-17-.57-25.38-.13-.29-.61-.41-.92-.61-.42-.03-.84-.06-1.26-.09-.07-.33-.13-.66-.2-.98-.08-1.25,.08-2.57-.27-3.73-2.83-9.37-9.45-14.93-18.06-18.44-.06-.02-.21,.17-.37,.31,.5,.94,1,1.89,1.51,2.84Zm-5.07,72.84c5.69,2.83,12.97,1.54,17.24-2.55,5.71-5.47,8.08-12.28,7.74-20.27-1.67,1.42-3.02,2.85-4.63,3.86-2.25,1.42-3.14,3.32-3.46,5.95-.91,7.54-7.88,13.27-14.47,12.41-.77-.1-1.62,.38-2.43,.6Z"/>
  <path class="cls-11" d="M106.36,166.34c2.31-.79,4.62-1.58,6.93-2.37,.41-.14,.83-.27,1.24-.41,4.92-1.57,9.87-2.88,15.07-1.51,0,0,.16,.14,.16,.14l.21-.05,5.21,2.67c-.03,.23-.07,.45-.1,.68-1.84,.7-3.69,1.4-5.53,2.1-.11,.05-.22,.1-.34,.15-5.92,1.66-11.8,3.53-17.79,4.89-3.61,.82-7.22,.05-10.34-2.24-.64-.47-1.63-.99-.38-1.91,.16-.1,.31-.19,.47-.29,.33-.1,.67-.2,1-.3,0,0,.21,.01,.21,.01l.13-.18c.8-.22,1.59-.44,2.39-.65-.02-.3-.04-.6-.06-.9-.77,.05-1.6-.07-2.31,.17-4.17,1.38-8.32,2.84-12.48,4.28-.15,.05-.3,.09-.45,.14-.48,.11-.96,.22-1.45,.33,0-.81-.01-1.62-.02-2.44,0-1.08,0-2.16,0-3.23-.16-.96-.33-1.93-.49-2.89,.5-.09,.99-.18,1.49-.28,.18-.05,.37-.09,.55-.14,1.67-.4,3.34-.8,5-1.21l.21,.07,.19-.11c.32-.05,.63-.1,.95-.14,.91,.04,1.83,.08,2.74,.12,2.32,1.05,4.64,2.1,6.96,3.16-.02,.44-.04,.88-.06,1.32-.24,.21-.48,.42-.72,.63,.19,.19,.37,.37,.56,.56,.28-.05,.56-.1,.84-.16Z"/>
  <path class="cls-7" d="M223.3,65.51c.05,.12,.14,.19,.27,.21,.21,.12,.43,.25,.64,.37,4.74,2.77,8.88,6.19,11.57,11.15,.41,.75,.46,1.71,.73,2.8-5.7-.71-10.27-3.31-14.91-5.7-1.28-.66-2.53-1.37-3.79-2.05-.52-.53-1.05-1.06-1.57-1.59-2.57-1.98-4.56-4.38-5.63-7.54-1.37-4.02-.78-7.73,1.97-10.83,2.57-2.91,6-2.38,9.34-1.66,.01,.91-.08,1.84,.07,2.72,.1,.62,.52,1.19,.79,1.78-.05,.32-.1,.64-.14,.96-.37,0-.74,0-1.1,0-.44,.26-1,.43-1.29,.81-2.27,2.92-.98,6.48,3.07,8.58Z"/>
  <path class="cls-7" d="M175.56,119.74c1.27,1.09,2.64,2.08,3.78,3.3,5.27,5.65,10.48,11.35,15.69,17.06,4.14,4.55,8.2,9.18,12.39,13.68,1.43,1.54,.99,2.75-.37,4.49-1.8-1.55-3.55-3.03-5.27-4.54-2.1-1.85-4.17-3.73-6.29-5.55-.26-.22-.77-.12-1.17-.16,0,0-.02-.14-.02-.14-.31-.32-.62-.63-.93-.95,0,0-.01-.02-.01-.02,.02-.17,.04-.34,.07-.51-.17,.02-.34,.04-.5,.07,0,0-.02,0-.02,0-.11-1.58-.55-1.93-1.81-1.44,0,0-.04-.04-.04-.04,.12-.21,.25-.43,.37-.64-.29-.09-.57-.18-.86-.27,0,0,0,0,0,0-1.18-1.39-2.35-2.77-3.53-4.16-.65-.71-1.3-1.43-1.95-2.14-1.07-1.24-2.09-2.54-3.25-3.69-.36-.36-1.12-.31-1.69-.45,0,0-.05-.04-.05-.04-.05-.49-.1-.98-.15-1.46-1.18-1.14-2.36-2.29-3.54-3.43-.79-.86-1.58-1.73-2.37-2.59-.37-.67-.74-1.34-1.11-2.01,.11-1.93,.57-3.63,2.62-4.34Z"/>
  <path class="cls-11" d="M145.78,163.6c2.13-.38,4.26-.76,6.39-1.13,0,0,.03,.02,.03,.02,.39,.12,.78,.23,1.17,.35,.47,.03,.94,.06,1.41,.09,2.86,.34,5.58,1.05,8.12,3.39-10.05,2.84-19.38,7.58-29.94,6.02-1.85-.27-3.63-1.04-5.44-1.57-.03-.37-.05-.74-.08-1.11,5.85-1.95,11.71-3.9,17.56-5.85,.26-.07,.51-.15,.77-.22Z"/>
  <path class="cls-20" d="M222.62,56.12c.05-.32,.1-.64,.14-.96,1.01-8.18,.92-16.31-.6-24.58-1.62,.33-2.95,.61-4.87,1.01,1.12-4.68,2.13-8.92,3.3-13.85,3.35,3.9,6.18,7.2,9.36,10.89-2.13,.68-3.69,1.17-5.06,1.61,.3,1.75,.57,3.34,.84,4.93,.1,.65,.19,1.3,.29,1.95,.04,4.59,.08,9.17,.12,13.76-.82,4-1.64,8-2.52,12.26-.95-.7-1.44-1.05-1.92-1.41l-.03,.07c.31-1.89,.63-3.78,.94-5.67Z"/>
  <path class="cls-20" d="M200.76,70.32c-.02-1.55-.03-3.11-.05-4.66-.07-.65-.14-1.3-.22-1.95-.2-1.57-.41-3.15-.61-4.72-.11-.49-.23-.97-.34-1.46-.23-1.1-.46-2.2-.69-3.29-.07-.2-.14-.39-.21-.59,.1-1.55-.86-1.38-1.82-1.16-1.04,.23-2.07,.49-3.66,.88,.89-4.63,1.7-8.82,2.64-13.68,4.19,2.73,6.27,6.83,9.83,10.24-1.82,.7-3.19,1.22-4.62,1.76,.68,4.04,1.35,8.05,2.03,12.06,.02,.55,.04,1.1,.06,1.64,.05,1.65,.1,3.31,.15,4.96-.41,5.11-1.39,10.06-3.82,14.63-.39-.22-1.13-.47-1.12-.65,.09-1.23,.32-2.44,.55-3.66,.63-3.45,1.27-6.9,1.91-10.35Z"/>
  <path class="cls-5" d="M199.42,84.99c2.43-4.56,3.4-9.52,3.82-14.63,.31,.16,.62,.32,.93,.48-.02,.48-.04,.97-.07,1.45,.04,.49,.08,.97,.12,1.46-.13,.43-.27,.86-.4,1.29,.16,.11,.31,.21,.47,.32,2.29-2.14,4.58-4.29,6.88-6.43,.78,.47,1.56,.94,2.35,1.42-.32,1.9-.64,3.79-.95,5.69l-.04,.04c-1.54,1.53-3.18,2.97-4.59,4.62-1.23,1.45-2.2,3.13-3.28,4.71-1.8,1.61-3.61,3.23-5.6,5.01-.4-1.18-.69-2.05-.99-2.92,.46-.83,.91-1.67,1.37-2.5Z"/>
  <path class="cls-18" d="M227.06,50.92c8.39-7.55,16.77-15.11,25.18-22.63,5.85-5.23,11.73-10.43,17.63-15.6,.78-.68,1.76-1.13,2.65-1.68,.2,.28,.4,.57,.6,.85-.61,.51-1.22,1.02-1.84,1.52-.33,.45-.66,.9-.99,1.34,0,0,.04,.04,.04,.04-.31,.32-.63,.64-.94,.97,0,0,.02-.02,.02-.02-.16,.16-.32,.33-.48,.49l.03-.02c-1.56,1.43-3.12,2.86-4.69,4.29h.02c-.31,.15-.62,.31-.94,.47,0,0,0,0,0,0-1.71,1.59-3.42,3.17-5.13,4.76,0,0,.01-.01,.01-.01-.32,.32-.63,.64-.95,.97l.02-.02c-.31,.16-.63,.32-.94,.48h-.01c-1.4,1.12-2.79,2.22-4.19,3.33h0c-.16,.32-.32,.64-.47,.96,0,0,.02-.02,.02-.02-.31,.16-.62,.32-.93,.47,0,0-.02,.02-.02,.02l-4.65,4.27h0c-.16,.16-.31,.32-.47,.48h0c-1.4,1.27-2.8,2.54-4.2,3.8h.01c-.32,.31-.63,.63-.95,.95,0,0,.02-.02,.02-.02-.31,.16-.62,.32-.93,.48,0,0-.02,.02-.02,.02-2.41,1.96-4.85,3.87-7.2,5.91-.84,.73-1.42,1.75-2.12,2.64h.02c-.31,.15-.62,.31-.94,.47h0c-.16,.33-.32,.65-.47,.97l.02-.02c-.47,.26-.94,.53-1.41,.79-.13-.56-.26-1.12-.39-1.68Z"/>
  <path class="cls-11" d="M204.64,163.47c-3.7,.97-7.4,1.94-11.1,2.88-.2,.05-.47-.02-.66-.13-2.6-1.38-5.2-2.78-8.05-4.3,1.23-.4,2.36-.78,3.48-1.15,.66-.2,1.32-.39,1.98-.59,2.08,0,4.15,.05,6.22-.07,.49-.03,.95-.66,1.43-1.01,0,0-.04,.06-.05,.06,.32,.47,.54,1.13,.99,1.37,1.88,1.04,3.83,1.96,5.76,2.93Z"/>
  <path class="cls-18" d="M213.51,70.33c-.78-.47-1.56-.94-2.35-1.42,0-.31,0-.62,0-.93-.11-.27-.22-.55-.32-.82-1.61,1.53-3.22,3.07-4.82,4.6h.01c-.31,.15-.62,.31-.93,.47h0c-.33,.02-.65,.03-.98,.05,.02-.48,.04-.97,.07-1.45,1.54-1.25,3.05-2.52,4.62-3.73,1.1-.85,1.24-1.74,.72-3.06-1.33-3.38-1.26-6.81,.27-10.12,1.97-4.24,6.81-6.35,11.15-4.93,.78,.25,1.86,.38,.98,1.67-3.34-.71-6.76-1.24-9.34,1.66-2.75,3.1-3.34,6.81-1.97,10.83,1.08,3.16,3.07,5.56,5.64,7.54-.99,.51-1.99,1.15-2.73-.35Z"/>
  <path class="cls-22" d="M111.39,71.8c-.32,.36-.63,.73-.95,1.09-1.98-6.7-3.97-13.4-5.93-20.11-1.05-3.6-2.17-7.19-3.04-10.84-.45-1.87-.43-3.85-.62-5.78,.38,.38,.98,.71,1.1,1.16,2.57,9.45,5.08,18.92,7.62,28.38,.55,2.05,1.21,4.07,1.81,6.1Z"/>
  <path class="cls-11" d="M87.71,172.47c.91,.53,1.82,1.07,2.74,1.6,0,0,.05,.09,.05,.09,2.32,1.51,4.64,3.02,7.32,4.76-2.88,.36-5.37,.68-7.86,.99-.21,.02-.42,.05-.64,.07-.24,.02-.48,.04-.73,.07-.28,.06-.55,.13-.83,.19-.02-2.59-.04-5.18-.06-7.77Z"/>
  <path class="cls-22" d="M293.19,171.06c.58,.31,1.17,.63,1.75,.94-6.23,4.61-12.96,7.63-20.88,6.84,.02-.4,.03-.81,.05-1.21,6.25,.39,11.84-1.74,17.2-4.72,.74-.41,1.27-1.23,1.89-1.85Z"/>
  <path class="cls-21" d="M114.29,50.87c-.17,.79-.35,1.58-.52,2.37-1.69-6.31-3.39-12.61-5.08-18.92,1.17-.72,1.42,.03,1.64,1.01,.62,2.75,1.26,5.5,1.96,8.24,.62,2.45,1.33,4.87,2.01,7.3Z"/>
  <path class="cls-17" d="M89.96,179.91c2.49-.31,4.99-.63,7.86-.99-2.68-1.74-5-3.25-7.32-4.76,.58-.06,1.28-.37,1.73-.15,2.26,1.1,4.46,2.33,6.67,3.51,.14,.06,.29,.12,.43,.18l2.5,.96c-.07,.34-.14,.68-.21,1.02-3.89,.51-7.78,1.02-11.67,1.54-.13,0-.26,0-.39,.01-.32-.06-.65-.13-.97-.19,0-.33,0-.66,0-.99,.24-.02,.48-.04,.73-.07,.21-.02,.42-.05,.63-.07Z"/>
  <path class="cls-22" d="M255.9,182.49c0-.4-.01-.81-.02-1.21,3.57-.42,7.15-.84,10.72-1.25,.64,.18,1.28,.36,1.92,.54-4.05,1.71-8.27,2.29-12.62,1.92Z"/>
  <path class="cls-18" d="M158.05,161.59c-.46-.16-.92-.32-1.38-.49,1.64-.52,3.26-1.3,4.93-1.5,1.88-.22,3.82,.09,5.74,.16,0,.4,.01,.79,.02,1.19-3.11,.21-6.21,.42-9.32,.63Z"/>
  <path class="cls-18" d="M169.21,124.35c-1.05,1.23-1.97,2.33-2.98,3.52-1.02-.59-1.88-1.13-.79-2.6,1.13-1.52,2.17-2.69,3.77-.92Z"/>
  <path class="cls-17" d="M163.8,130.85q-2.57,3.3-5.24,1.26c2.09,.2,2.52-4.07,5.24-1.26Z"/>
  <path class="cls-21" d="M204.64,163.47c-1.93-.97-3.87-1.89-5.76-2.93-.44-.25-.66-.9-.99-1.37,2.83,.12,5.29,1.11,7.23,3.28-.16,.34-.32,.68-.49,1.02Z"/>
  <path class="cls-22" d="M109.59,180.19c1.44,.43,2.87,1.11,4.34,1.22,2.41,.19,4.84,0,7.26-.03-5.78,.81-11.5,.61-17.12-1.09,1.23,.09,2.46,.19,3.92,.3-.38-.44-.56-.66-.75-.87,.78,.16,1.57,.31,2.35,.47Z"/>
  <path class="cls-17" d="M96.04,160.71c-.32,.05-.63,.1-.95,.14-.13,.01-.27,.03-.4,.04-1.67,.4-3.34,.8-5,1.21-.18,.05-.37,.09-.55,.14-.5,.09-.99,.18-1.49,.28,.16-.5,.33-1,.49-1.49,.16,.02,.33,.05,.49,.07,.67-.63,1.35-1.26,2.02-1.88,1.81,.12,3.61,.25,5.42,.37,0,.38-.02,.75-.02,1.13Z"/>
  <path class="cls-17" d="M268.52,180.58c-.64-.18-1.28-.36-1.92-.54,1.37-.56,2.73-1.11,4.1-1.67,1.02-.25,2.03-.51,3.05-.76,0,0,.18-.04,.18-.04l.17,.08c-.02,.4-.03,.81-.05,1.21-.92,.26-1.83,.53-2.75,.79-.32,.1-.63,.2-.95,.3-.61,.21-1.22,.43-1.84,.64Z"/>
  <path class="cls-17" d="M288.99,89.72c.29,1.2,.58,2.4,.87,3.6-1.32-1.54-2.63-3.08-3.95-4.62,.1-.1,.2-.21,.3-.31,.33,0,.65,0,.98,0,.31,.28,.61,.56,.92,.83,.06,.08,.13,.14,.22,.17,.22,.11,.44,.22,.66,.33Z"/>
  <path class="cls-17" d="M180.14,133.62c.58,.14,1.33,.09,1.69,.45,1.16,1.15,2.18,2.45,3.25,3.69-.17,.36-.35,.73-.52,1.09-.15-.17-.3-.35-.45-.52-.15-.17-.29-.34-.44-.51,0,0-.02-.02-.02-.02-.3-.31-.6-.62-.89-.93-.48-.53-.96-1.06-1.44-1.59-.11-.11-.21-.23-.32-.34-.29-.44-.57-.88-.86-1.32Z"/>
  <path class="cls-17" d="M169.54,122.63c.39-.06,.88-.3,1.15-.14,.8,.45,1.51,1.06,2.25,1.6,.37,.67,.74,1.34,1.1,2.01-.11,.4-.22,.81-.33,1.21-.72-.82-1.44-1.63-2.16-2.45-.18-.26-.36-.52-.54-.77,0,0,.03,.03,.03,.03-.27-.27-.54-.53-.81-.8l-.7-.68Z"/>
  <path class="cls-18" d="M107.23,179.73c.19,.21,.37,.43,.75,.87-1.46-.11-2.69-.2-3.92-.3-.81-.21-1.62-.41-2.43-.62,.07-.34,.14-.68,.21-1.02,1.8,.35,3.6,.71,5.39,1.06Z"/>
  <path class="cls-17" d="M176.41,128.68c1.18,1.14,2.36,2.29,3.54,3.43-.44,.07-.88,.14-1.32,.21,0,0-.03-.05-.03-.05-.35-.21-.69-.42-1.04-.63-.64-.71-1.28-1.42-1.92-2.13,.26-.28,.52-.55,.78-.83Z"/>
  <path class="cls-22" d="M224.25,183.27c1.68,0,3.36,0,5.04,0-1.68,0-3.36,0-5.04,0Z"/>
  <path class="cls-17" d="M187.04,139.91c1.18,1.39,2.35,2.77,3.53,4.16-.77-.58-1.54-1.16-2.31-1.74-.49-.35-.97-.71-1.46-1.06l.12-.11s-.11,.12-.11,.12c.08-.46,.16-.91,.23-1.37Z"/>
  <path class="cls-21" d="M190.2,159.14c-1.68,.43-3.35,.87-5.03,1.3,1.67-.43,3.35-.87,5.03-1.3Z"/>
  <path class="cls-5" d="M270.29,14.72c.33-.45,.66-.9,.99-1.34,.4,.93,.79,1.86,1.19,2.79-.57,0-1.13,.02-1.69,.03,.61-.76,.66-1.32-.49-1.47Z"/>
  <path class="cls-18" d="M145,160.58c-.03,.38-.06,.76-.09,1.15-.47-.25-.95-.51-1.42-.76-.02-.15-.04-.3-.07-.45-.11,.09-.22,.18-.32,.28-.32-.16-.63-.33-.95-.49,.02-.36,.03-.72,.05-1.09,.94,.46,1.87,.91,2.81,1.37Z"/>
  <path class="cls-18" d="M187.04,139.91c-.08,.46-.16,.91-.23,1.37-.75-.8-1.49-1.61-2.24-2.41,.17-.36,.35-.73,.52-1.09,.65,.71,1.3,1.43,1.95,2.14Z"/>
  <path class="cls-18" d="M176.41,128.68c-.26,.28-.52,.55-.78,.83-.64-.74-1.28-1.47-1.92-2.21,.11-.4,.22-.81,.33-1.21,.79,.86,1.58,1.73,2.37,2.59Z"/>
  <path class="cls-16" d="M88.13,165.41c0,1.08,0,2.16,0,3.23-1.27-1.17-1.27-2.06,0-3.23Z"/>
  <path class="cls-18" d="M139.39,159.62c-.46-.45-.92-.9-1.39-1.35,1.22,.25,2.44,.5,3.66,.75-.6,.25-1.21,.5-1.81,.74-.15-.05-.31-.09-.46-.14Z"/>
  <path class="cls-22" d="M233.54,182.92c1.35-.17,2.69-.34,4.04-.51-1.35,.17-2.69,.34-4.04,.51Z"/>
  <path class="cls-22" d="M206.03,182.97c1.11-.16,2.23-.31,3.34-.47-1.11,.16-2.23,.31-3.34,.47Z"/>
  <path class="cls-18" d="M154.78,162.93c-.47-.03-.94-.06-1.41-.09,0-.39,0-.79,0-1.18,.47-.11,.94-.23,1.41-.34,0,.54,0,1.07,0,1.61Z"/>
  <path class="cls-22" d="M149.66,181.48c1.07-.15,2.13-.3,3.2-.46-1.07,.15-2.13,.3-3.2,.46Z"/>
  <path class="cls-18" d="M96.04,160.71c0-.38,.02-.75,.02-1.13,.31,0,.61,0,.92,0,.6,.42,1.2,.84,1.79,1.26-.91-.04-1.83-.08-2.74-.12Z"/>
  <path class="cls-22" d="M132.54,180.29c.88,.23,1.77,.47,2.65,.7-.88-.23-1.77-.47-2.65-.7Z"/>
  <path class="cls-17" d="M139.86,159.76c.6-.25,1.21-.5,1.81-.74,.18,.07,.35,.13,.53,.2-.02,.36-.03,.72-.05,1.09-.76-.18-1.52-.36-2.29-.54Z"/>
  <path class="cls-22" d="M238.2,182.31c1.12-.25,2.25-.49,3.37-.74-1.12,.25-2.25,.49-3.37,.74Z"/>
  <path class="cls-18" d="M90.64,159.21c-.67,.63-1.35,1.26-2.02,1.88,.11-.1,.19-.22,.24-.36,.05-.35,.11-.7,.16-1.05,.54-.15,1.07-.31,1.61-.46h0Z"/>
  <path class="cls-17" d="M191.09,145.01c1.26-.49,1.7-.14,1.81,1.44-.29-.05-.57-.09-.86-.14-.14-.14-.27-.29-.41-.43,0,0-.04-.04-.04-.04-.12-.14-.24-.27-.36-.41-.07-.08-.15-.15-.2-.24-.02-.04,.03-.11,.05-.17Z"/>
  <path class="cls-13" d="M226.03,37.12c-.1-.65-.19-1.3-.29-1.95,.1,.65,.19,1.3,.29,1.95Z"/>
  <path class="cls-22" d="M180.39,182.03c.96-.16,1.91-.32,2.87-.49-.96,.16-1.91,.32-2.87,.49Z"/>
  <path class="cls-17" d="M90.64,159.22c-.54,.15-1.07,.31-1.61,.46-.34-.31-.67-.62-1.01-.93,.5-.01,1-.02,1.5-.03,.37,.17,.75,.34,1.12,.5Z"/>
  <path class="cls-12" d="M200.49,63.71c.07,.65,.14,1.3,.22,1.95-.07-.65-.14-1.3-.22-1.95Z"/>
  <path class="cls-22" d="M245.6,71.81c-.9-.35-1.81-.7-2.71-1.04,.9,.35,1.81,.7,2.71,1.04Z"/>
  <path class="cls-22" d="M176.06,182.52c.82-.04,1.64-.08,2.46-.12-.82,.04-1.64,.08-2.46,.12Z"/>
  <path class="cls-22" d="M250.16,181.58c.68,.2,1.36,.4,2.03,.6-.68-.2-1.36-.4-2.03-.6Z"/>
  <path class="cls-22" d="M189.64,181.56c.8,.25,1.6,.49,2.41,.74-.8-.25-1.6-.49-2.41-.74Z"/>
  <path class="cls-18" d="M89.51,158.72c-.5,.01-1,.02-1.5,.03,.5-.01,1-.02,1.5-.03Z"/>
  <path class="cls-18" d="M105.86,158.2c-.57,.14-1.14,.27-1.72,.41,.57-.14,1.14-.27,1.72-.41Z"/>
  <path class="cls-22" d="M194.53,182.64c.57,.1,1.15,.21,1.72,.31-.57-.1-1.15-.21-1.72-.31Z"/>
  <path class="cls-12" d="M121.23,160.18c-.47,0-.94,.01-1.41,.02,.47,0,.94-.01,1.41-.02Z"/>
  <path class="cls-22" d="M158.68,180.23c.72,.25,1.43,.49,2.15,.74-.72-.25-1.43-.49-2.15-.74Z"/>
  <path class="cls-22" d="M156.63,180.13c.47-.02,.94-.03,1.41-.05-.47,.02-.94,.03-1.41,.05Z"/>
  <path class="cls-17" d="M153.37,161.65c0,.39,0,.79,0,1.18-.39-.12-.78-.23-1.17-.35,.39-.28,.78-.55,1.17-.83Z"/>
  <path class="cls-22" d="M215.04,181.69c.58,.18,1.16,.36,1.74,.54-.58-.18-1.16-.36-1.74-.54Z"/>
  <path class="cls-12" d="M199.54,57.53c.11,.49,.23,.97,.34,1.46-.11-.49-.23-.97-.34-1.46Z"/>
  <path class="cls-22" d="M162.99,181.59c.69,.15,1.37,.29,2.06,.44-.69-.15-1.37-.29-2.06-.44Z"/>
  <path class="cls-18" d="M178.63,132.32c.44-.07,.88-.14,1.32-.21,.05,.49,.1,.98,.15,1.46-.49-.42-.98-.84-1.47-1.26Z"/>
  <path class="cls-18" d="M186.8,141.26c.49,.35,.97,.71,1.46,1.06-.49-.35-.97-.71-1.46-1.06Z"/>
  <path class="cls-22" d="M88.59,180.05c0,.33,0,.66,0,.99-.28-.27-.56-.53-.84-.8,.28-.06,.55-.13,.83-.19Z"/>
  <path class="cls-18" d="M131.01,158.71c-.43,.11-.86,.22-1.29,.32,.43-.11,.86-.22,1.29-.32Z"/>
  <path class="cls-12" d="M118.47,159.5c-.42-.16-.84-.32-1.26-.49,.42,.16,.84,.32,1.26,.49Z"/>
  <path class="cls-18" d="M287.19,88.38c-.33,0-.65,0-.98,0,0-.32,0-.65,0-.97,.33,.32,.66,.64,.98,.96Z"/>
  <path class="cls-17" d="M193.38,146.93c.31,.32,.62,.63,.93,.95-.31-.32-.62-.63-.93-.95Z"/>
  <path class="cls-18" d="M133.34,158.25c-.42,.11-.85,.21-1.27,.32,.42-.11,.85-.21,1.27-.32Z"/>
  <path class="cls-18" d="M177.56,131.64c.35,.21,.69,.42,1.04,.63-.35-.21-.69-.42-1.04-.63Z"/>
  <path class="cls-22" d="M146.89,181.76c.65-.07,1.29-.13,1.94-.2-.65,.07-1.29,.13-1.94,.2Z"/>
  <path class="cls-22" d="M218.8,182.61c.4,.1,.8,.2,1.2,.3-.4-.1-.8-.2-1.2-.3Z"/>
  <path class="cls-22" d="M254.05,182.41c.31,.02,.61,.03,.92,.05-.31-.02-.61-.03-.92-.05Z"/>
  <path class="cls-22" d="M242.76,70.36c-.14-.41-.29-.82-.43-1.23,.14,.41,.29,.82,.43,1.23Z"/>
  <path class="cls-12" d="M199.52,70.35c-.46-.16-.92-.32-1.38-.48,.46,.16,.92,.32,1.38,.48Z"/>
  <path class="cls-8" d="M203.08,65.4c-.02-.55-.04-1.1-.06-1.64,.02,.55,.04,1.1,.06,1.64Z"/>
  <path class="cls-22" d="M213.05,181.8c.56-.06,1.11-.11,1.67-.17-.56,.06-1.11,.11-1.67,.17Z"/>
  <path class="cls-18" d="M170.23,123.31c.27,.27,.54,.53,.81,.8-.27-.27-.54-.53-.81-.8Z"/>
  <path class="cls-18" d="M170.99,160.65c-.43-.14-.86-.28-1.29-.42,.43,.14,.86,.28,1.29,.42Z"/>
  <path class="cls-18" d="M182.76,136.87c.3,.31,.6,.62,.89,.93-.3-.31-.6-.62-.89-.93Z"/>
  <path class="cls-22" d="M138.38,181.56c.47,.04,.94,.08,1.41,.12-.47-.04-.94-.08-1.41-.12Z"/>
  <path class="cls-22" d="M254.94,75.12c-.3-.15-.61-.3-.91-.46,.3,.15,.61,.3,.91,.46Z"/>
  <path class="cls-22" d="M270.36,179.93c.32-.1,.63-.2,.95-.3-.32,.1-.63,.2-.95,.3Z"/>
  <path class="cls-22" d="M259.99,77.98c-.27-.17-.54-.33-.81-.5,.27,.17,.54,.33,.81,.5Z"/>
  <path class="cls-18" d="M171.01,124.08c.18,.26,.36,.52,.54,.77-.18-.26-.36-.52-.54-.77Z"/>
  <path class="cls-17" d="M190.57,144.06c.29,.09,.57,.18,.86,.27-.12,.21-.25,.43-.37,.64-.16-.3-.32-.61-.49-.91Z"/>
  <path class="cls-16" d="M89.57,181.23c.13,0,.26,0,.39-.01-.13,0-.26,0-.39,.01Z"/>
  <path class="cls-18" d="M288.33,89.39c-.09-.03-.17-.09-.22-.17,0,0,.17,.01,.17,.01l.06,.16Z"/>
  <path class="cls-18" d="M168.86,160.1l-.22,.03s-.22-.05-.22-.05c.15,0,.3,.02,.44,.03Z"/>
  <path class="cls-22" d="M262.82,78.95s-.18,.03-.18,.03c0,0-.18-.04-.18-.04,.12,0,.24,.01,.37,.02Z"/>
  <path class="cls-22" d="M259.16,77.47c-.16-.11-.33-.22-.49-.33,.16,.11,.33,.22,.49,.33Z"/>
  <path class="cls-3" d="M88.86,160.73c-.05,.14-.13,.26-.24,.36-.16-.02-.33-.05-.49-.07,.24-.1,.49-.19,.73-.29Z"/>
  <path class="cls-12" d="M113.79,158.03c-.22-.04-.44-.07-.66-.11,.22,.04,.44,.07,.66,.11Z"/>
  <path class="cls-22" d="M111.17,75.13c.08,.17,.16,.34,.24,.52-.08-.17-.16-.34-.24-.52Z"/>
  <path class="cls-22" d="M252.36,74.07c-.22-.08-.43-.17-.65-.25,.22,.08,.43,.17,.65,.25Z"/>
  <path class="cls-22" d="M249.58,73.12c-.22-.1-.44-.2-.66-.3,.22,.1,.44,.2,.66,.3Z"/>
  <path class="cls-22" d="M248.55,72.69c-.19-.07-.37-.15-.56-.22,.19,.07,.37,.15,.56,.22Z"/>
  <path class="cls-18" d="M156.18,161.09c-.17,0-.33,0-.5-.01,.17,0,.33,0,.5,.01Z"/>
  <path class="cls-22" d="M247.04,72.29c-.13-.04-.26-.08-.39-.12,.17-.08,.29-.04,.39,.12Z"/>
  <path class="cls-22" d="M246.66,72.17c-.18-.08-.36-.17-.54-.25,.18,.08,.36,.17,.54,.25Z"/>
  <path class="cls-22" d="M230.75,183.19c.24-.03,.49-.06,.73-.09-.24,.03-.49,.06-.73,.09Z"/>
  <polygon class="cls-22" points="210.33 182.42 210.51 182.4 210.44 182.56 210.33 182.42"/>
  <path class="cls-22" d="M167.82,182.47c.19,.02,.38,.03,.58,.05-.19-.02-.38-.03-.58-.05Z"/>
  <path class="cls-22" d="M211.68,182.13c.15-.04,.3-.08,.45-.12-.15,.04-.3,.08-.45,.12Z"/>
  <path class="cls-12" d="M198.64,53.65c.07,.2,.14,.39,.21,.59-.07-.2-.14-.39-.21-.59Z"/>
  <path class="cls-18" d="M181,134.94c.11,.11,.21,.23,.32,.34-.11-.11-.21-.23-.32-.34Z"/>
  <path class="cls-18" d="M183.68,137.82c.15,.17,.29,.34,.44,.51-.15-.17-.29-.34-.44-.51Z"/>
  <path class="cls-22" d="M137.07,181.37c.15,.03,.31,.05,.46,.08-.15-.03-.31-.05-.46-.08Z"/>
  <path class="cls-17" d="M192.93,146.45c.17-.02,.34-.04,.5-.07-.02,.17-.04,.34-.07,.51-.15-.15-.29-.3-.44-.45Z"/>
  <path class="cls-18" d="M191.64,145.88c.14,.14,.27,.29,.41,.43-.14-.14-.27-.29-.41-.43Z"/>
  <path class="cls-18" d="M191.24,145.43c.12,.14,.24,.27,.36,.41-.12-.14-.24-.27-.36-.41Z"/>
  <path class="cls-7" d="M175.34,116.89c-2.23-2.71-4.56-5.34-6.66-8.14-3.13-4.17-5.49-11.6-1.41-16.42,3.84-4.54,8.74-6.75,14.44-1.2-1.14,1.02-2.18,2.15-3.39,3.02-4.26,3.05-5.19,6.71-2.5,11.19,1.19,1.98,2.8,3.71,4.21,5.55,0,0-.09-.02-.09-.02,5.98,6.78,11.97,13.56,17.94,20.35,5.62,6.39,11.31,12.71,16.78,19.23,2.02,2.41,3.69,5.18,5.16,7.98,1.03,1.96,1.43,4.25-.51,6.12-.98,.95-1.8,1.26-2.78-.26-2.23-3.47-4.44-7.01-7.06-10.17-4.07-4.92-8.47-9.55-12.73-14.31-.52-.58-1-1.21-1.53-1.78-5.24-5.69-10.47-11.39-15.74-17.06-1.32-1.42-2.76-2.73-4.14-4.08Z"/>
  <path class="cls-7" d="M199.04,71.76c-.01,1.61-.03,3.23-.04,4.84-.36,.07-.79,.04-1.06,.24-2.73,2.03-2.6,4.85-2.01,7.78,.6,2.05,1,4.18,1.82,6.13,3.19,7.57,6.46,15.11,9.79,22.62,2.23,5.02,4.61,9.96,6.92,14.94,.32,.79,.63,1.59,.95,2.38,.29,.32,.58,.63,.88,.95,.04,.17,.08,.34,.12,.51,.1,.87,.2,1.73,.3,2.6,.67,3.55,1.34,7.11,2,10.66-.03,.32-.05,.64-.08,.96-3.66-6.15-7.09-12.45-11.04-18.4-3.88-5.83-7.09-11.96-9.75-18.43-.73-1.77-1.91-3.36-2.88-5.03-.13-.4-.26-.79-.38-1.19-.86-1.96-1.71-3.93-2.57-5.89-1.3-3.68-2.85-7.3-3.79-11.07-.59-2.38-.58-5.03-.28-7.49,.62-4.91,6.79-8.71,11.11-7.12Z"/>
  <path class="cls-7" d="M192.81,105.56c1.22,2.35,2.36,4.74,3.68,7.03,2.84,4.95,5.75,9.86,8.69,14.75,5.22,8.71,10.41,17.44,15.78,26.05,1.11,1.77,2.99,3.05,4.76,4.79-1.12,.57-2.28,1.16-3.37,1.71-1.65-3.01-2.8-6.02-4.7-8.39-3.93-4.91-8.16-9.6-12.47-14.19-6.31-6.72-10.92-14.63-15.72-22.43-1.67-2.72-3.57-5.29-5.36-7.94,.61-.89,1.47-1.7,1.78-2.69,.68-2.23,2.2-2.69,4.18-2.55,.92,1.23,1.85,2.45,2.77,3.68l-.02,.18Z"/>
  <path class="cls-7" d="M254.4,146.09c-.14,.85-.27,1.71-.41,2.56-.07,.18-.14,.36-.21,.54-.08,.46-.17,.91-.25,1.37-.28,.34-.56,.68-.85,1.03-.14,.48-.27,.96-.41,1.45-1.12,1.57-2.24,3.14-3.36,4.7-2.16-4.32-1.95-4.55-2.17-9.9-.24-5.74-1-11.47-1.6-17.19-.53-5.03-1.2-10.1,.43-15.02,.76-2.29,2.17-4.36,3.28-6.52l.96,.23c.23,2.12,.33,4.27,.72,6.36,.95,5,2.33,9.93,3,14.96,.64,4.82,.61,9.74,.88,14.61,0,.27-.02,.54-.03,.81Z"/>
  <path class="cls-11" d="M251.55,165.5c-7.79,4.79-15.11,9.54-23.69,11.54-5.05,1.18-10.01,1.14-14.33-2.45-.48-.4-.89-.87-1.3-1.34-.14-.16-.17-.42-.34-.88,2.85-1.01,5.66-2.01,8.49-2.99,5.04-1.75,10-3.82,15.15-5.11,5.2-1.3,10.55-1.4,16.03,1.24Z"/>
  <path class="cls-7" d="M223.87,77.79c3.85,1.22,7.46,2.71,11.21,3.44,4.24,.82,8.6,1,12.92,1.38,3.72,.33,7.48,.5,10.61,2.9,.92,.71,1.61,1.73,2.4,2.61-.09,.29-.18,.57-.27,.86-5.67,.47-11.33,1.15-17.01,1.33-3.61,.11-7.28-.36-10.87-.87-4.71-.68-10.6-6.56-8.98-11.64Z"/>
  <path class="cls-7" d="M220.86,107.09c.61-.87,1.21-1.73,1.57-2.25,3.73,5.96,7.46,11.93,11.19,17.9,.12,.2,.17,.47,.33,.62,2.99,2.63,2.86,5.62,1.06,8.86-.8,1.45-1.48,2.97-2.12,4.27-2.94-3.46-5.99-6.88-8.83-10.46-1.35-1.7-2.29-3.73-3.42-5.6-.26-1-.51-2.01-.77-3.02-.12-.48-.23-.96-.35-1.44,.45-2.96,.89-5.92,1.34-8.88Z"/>
  <path class="cls-7" d="M232.38,117.78c-6.67-8.87-12.02-18.62-6.16-29.89,2.66,1.72,5.84,2.53,6.52,6.64,.59,3.62,2.36,7.03,3.09,10.64,.93,4.6-.4,8.81-3.44,12.61Z"/>
  <path class="cls-11" d="M155.43,170.26c2.75-.92,5.49-1.9,8.26-2.76,3.82-1.19,7.66-2.34,11.52-3.41,5.26-1.45,10.25-.49,15.01,2.03,.32,.17,.56,.49,1.08,.94-6.27,2.22-12.25,4.48-18.32,6.44-4.44,1.43-9,1.65-13.43-.2-1.47-.61-2.82-1.51-4.22-2.28l.11-.76Z"/>
  <path class="cls-7" d="M252.51,96.79c3.42,1.25,5.69,2.67,6.47,6.22,1.11,5.08,2.66,10.05,1.61,15.35-.73,3.66-2.6,6.45-5.88,8.47-2.46-9.96-5.37-19.65-2.2-30.03Z"/>
  <path class="cls-11" d="M107.23,179.73c-1.8-.35-3.6-.71-5.39-1.06-.83-.32-1.67-.64-2.5-.96-.14-.06-.29-.12-.43-.18-2.22-1.19-4.41-2.42-6.67-3.51-.45-.22-1.15,.09-1.73,.15,0,0-.05-.09-.05-.09,.22-.66,.44-1.33,.71-2.14,.7-.23,1.58-.5,2.45-.81,2.77-.97,4.99-1.25,7.85,.99,2.27,1.78,6.11,1.52,9.27,2.08,.65,.12,1.42-.05,2.06-.29,4.32-1.59,7.8,.07,11.14,2.73,1.58,1.26,1.77,1.1,2.62,.13,0,0-.12-.11-.12-.11,.17,.72,.33,1.43,.57,2.47-5.52,1.53-11.48,1.28-17.43,1.06-.78-.16-1.57-.31-2.35-.47Z"/>
  <path class="cls-11" d="M268,169.61c-1.48,.91-2.96,1.82-4.44,2.73-2.15,.63-4.26,1.42-6.45,1.84-4.15,.8-7.98,.25-10.99-3.57,6.4-4.4,13.28-7.15,20.72-8.48,.28-.01,.55-.02,.83-.04,.79,.02,1.58,.05,2.37,.07,1.19,.24,2.38,.47,3.57,.71,.28,.05,.56,.1,.83,.15,.29,.44,.59,.88,.88,1.32-2.44,1.75-4.89,3.51-7.33,5.26Z"/>
  <path class="cls-7" d="M217.9,122.19c.07-1.01,.13-2.02,.2-3.03,.46,.52,.92,1.03,1.38,1.55,1.95,2.96,3.94,5.91,5.84,8.91,.55,.86,1.32,1.9,1.24,2.8-.65,7.66-1.06,15.29,.28,22.92,.03,.19-.11,.42-.2,.72-2.42-.7-3.32-2.74-4.16-4.72-3.57-8.46-5.19-17.32-5.02-26.52,0-.31-.06-.62-.09-.94,.18-.56,.35-1.12,.53-1.68Z"/>
  <path class="cls-11" d="M201.84,173.7c-.61,.07-1.23,.15-1.84,.22-.16,.06-.32,.12-.48,.19-5.12,1.33-12.08-.32-14.13-3.35,13.64-5.16,26.18-8.13,34.21-2.33-6.04,1.77-11.63,3.41-17.21,5.05-.18,.07-.36,.14-.55,.22Z"/>
  <path class="cls-11" d="M126.44,176.67s.12,.11,.12,.11c-1.96-1.35-3.92-2.7-5.9-4.07,2.24-1.81,4.57-1.97,6.85-.58,3.07,1.87,6.5,2.05,9.91,1.93,2.84-.1,5.67-.7,8.51-1,.62-.07,1.41,.02,1.89,.36,2.45,1.73,4.83,3.57,7.22,5.36-3.98,3.02-17.3,2.06-28.59-2.11Z"/>
  <path class="cls-7" d="M285.91,88.7c1.32,1.54,2.63,3.08,3.95,4.62,.54,.61,1.09,1.23,1.63,1.84,.87,2.09,1.74,4.18,2.72,6.52-2.43-.4-4.47-.18-5.49-3.25-1.16-3.52-4.39-5.48-7.79-6.58-3.59-1.16-7.3-1.92-10.95-2.89-.55-.15-1.3-.34-1.54-.76-1.38-2.49-2.64-5.06-4.08-7.87,7.98,.65,15.27,3.07,21.54,8.36Z"/>
  <path class="cls-7" d="M231.65,157.29c.11-3.43-.21-6.94,.4-10.27,1.77-9.63,5.83-18.43,10.59-27.11,0,.84-.05,1.69,0,2.53,.21,2.99,.59,5.97,.64,8.96,.02,1.32-.34,2.8-.96,3.96-3.31,6.2-6.18,12.54-7.48,19.53-.25-.15-.54-.27-.75-.47-.43-.42-.82-.89-1.23-1.34-.25,.58-.56,1.15-.73,1.76-.22,.8-.34,1.63-.5,2.44Z"/>
  <path class="cls-2" d="M295.01,112.06c-3.78-1.53-7.63-2.91-11.31-4.66-1.96-.93-3.63-2.5-5.44-3.78,1-.43,2.04-1.28,3.01-1.21,3.17,.22,6.35,.63,9.46,1.27,2.04,.42,4.46,.87,5.81,2.23,1.58,1.58,2.62,1.41,4.13,.53,3.18,2.51,5.92,5.32,5.98,9.79,0,.78-.33,1.56-.44,2.05-3.09-1.79-5.97-3.47-8.85-5.14l-2.34-1.07Z"/>
  <path class="cls-11" d="M204.47,181.92c-4.14-.29-8.28-.58-12.42-.87-.3-.08-.6-.17-.9-.25-3.53-1.71-7.08-3.37-10.57-5.15-.84-.43-1.48-1.28-2.47-2.16,1.67-.69,2.97-1.32,4.34-1.74,.49-.15,1.27,.02,1.67,.35,5.39,4.41,11.48,4.63,17.81,3.06,1.67-.41,2.72-.42,4.03,1.02,1.58,1.73,3.71,2.94,5.81,4.53-1.27,.33-2.34,.62-3.41,.9-.16,.02-.31,.03-.47,.05-.85,.09-1.7,.17-2.55,.26-.29,0-.59,.01-.88,.02Z"/>
  <path class="cls-2" d="M307.63,138.28c-.7,1.5-1.4,2.99-2.1,4.49-.21-.04-.41-.08-.62-.13-.33-.98-.66-1.95-.99-2.93-.24-.97-.48-1.94-.72-2.9-.05-.21-.11-.43-.16-.64-1.56-3.38-3.24-6.71-4.66-10.15-1.46-3.52-1.83-7.25-1.67-11.44,5.63,1.95,9.36,5.29,11.07,10.81-.13,.93-.07,1.93-.42,2.76-1.45,3.44-.46,6.77,.27,10.12Z"/>
  <path class="cls-11" d="M175.28,181.52c-1.71,.01-3.43,.02-5.14,.03-.59-.05-1.18-.1-1.77-.16-1.56-.29-3.12-.57-4.69-.86-.16-.04-.32-.09-.48-.13-5.27-1.47-9.84-4.22-13.98-7.89,3.02-1.74,3.73-1.63,6.28,.25,4.34,3.19,9.27,3.63,14.39,2.98,.92-.12,1.94-.16,2.7-.6,2.82-1.62,4.86-.18,6.96,1.51,1.37,1.11,2.88,2.04,4.77,3.36-2.26,.44-4.03,.78-5.8,1.13-.15,0-.31,.01-.46,.02-.32,.03-.64,.06-.96,.09-.61,.09-1.22,.19-1.83,.28Z"/>
  <path class="cls-2" d="M294.12,165.39c-1.01,.17-2.02,.34-3.68,.62,.88-1.57,1.45-2.58,2.02-3.6,.5-.11,1.43-.31,1.43-.33-.53-2.79,2.06-4.21,2.72-6.48,.32-1.1-.36-1.88-.47-2.69-.28-1.99,.37-4.1,.48-6.17,.03-.61-.49-1.24-.76-1.86,.82-2.35,1.64-4.71,2.47-7.06,1.98-.39,2.85,.49,3.24,2.49,1.05,5.41,1,10.83,.46,16.27-.03,.31-.04,.71-.23,.89-2.11,1.99-4.27,3.91-6.35,5.93-.56,.54-.89,1.33-1.32,2Z"/>
  <path class="cls-11" d="M235.86,181.51c-5.1,.06-10.23,.49-15.29,.07-4.99-.41-9.6-2.35-13.15-6.26-.25-.27-.42-.61-.63-.91,2.2-1.65,3.65-1.21,5.42,.86,2.84,3.31,6.93,3.9,11.06,3.78,5.6-.17,10.72-2.15,15.67-4.6,1.39-.69,2.03-.77,2.87,.79,.8,1.5,2.18,2.67,3.38,4.08-1.99,.54-3.83,1.04-5.66,1.54-.31,.05-.61,.11-.92,.16-.75,.13-1.5,.26-2.26,.39-.17,.04-.33,.07-.5,.11Z"/>
  <path class="cls-7" d="M244.38,136.47c.57,5.49,1.84,11.02,.08,16.48-.9,2.79-2.45,5.38-3.91,7.94-.4,.69-1.58,1.28-2.38,1.25-.57-.02-1.4-1.05-1.6-1.78-1.13-3.93,.03-7.67,1.39-11.28,1.64-4.35,3.52-8.6,5.29-12.89,.38,.09,.75,.19,1.13,.28Z"/>
  <path class="cls-7" d="M228.09,66.61c2-1.9,3.75-3.68,5.65-5.28,.38-.32,1.58-.23,1.94,.13,4.73,4.8,7.42,10.47,6.68,17.44-.07,.69-.88,1.92-1.19,1.87-1.1-.18-2.94-.64-3.06-1.27-1.03-5.46-4.9-8.58-8.78-11.73-.36-.29-.68-.63-1.24-1.16Z"/>
  <path class="cls-11" d="M270.71,178.36c-1.37,.56-2.73,1.11-4.1,1.67-3.57,.42-7.15,.84-10.72,1.25-6.08-.06-10.5-2.99-13.77-8.21,1.37-1.4,2.42-1.84,4.07-.25,4,3.87,8.8,3.62,13.69,2.21,1.18-.34,2.31-.85,3.47-1.28,1.58,1.15,3.12,2.36,4.75,3.43,.79,.52,1.74,.79,2.61,1.17Z"/>
  <path class="cls-7" d="M244.41,72.82c3.57,1.23,7.13,2.45,10.7,3.68,.28,.13,.55,.26,.83,.39,2.21,1.57,4.5,3.04,6.62,4.74,2.15,1.73,3.73,3.92,4.41,7.61-1.86-.72-3.71-.84-4.45-1.82-3.27-4.38-7.72-5.8-12.76-6.1-1.04-.08-2.08-.15-3.12-.23-.81-.09-1.63-.17-2.44-.26,.02-1.27,.03-2.55,.05-3.82,0-.32,0-.64,0-.96,.05-1.08,.1-2.16,.16-3.24Z"/>
  <path class="cls-7" d="M259.6,98.04c-4.67-1.17-7.83-3.53-8.5-6.81,1.35,0,2.61,0,3.87,0,.44,.32,.84,.84,1.32,.94,3.24,.68,6.48,1.35,9.74,1.85,1.27,.2,2.78,.33,3.89-.17,1.92-.87,3.53-.93,5.44-.02,1.19,.57,2.78,.89,3.47-1.05,4,1.2,7.63,2.89,9.38,7.84-2.98-.35-5.55-.65-8.11-.95-.84-1.04-1.68-2.08-2.95-3.65-2.55,0-5.84-.01-9.14,0-.99,0-2.1-.15-2.95,.22-.99,.43-1.57,.64-2.65-.02-1.52-.94-2.57-.1-2.8,1.82Z"/>
  <path class="cls-7" d="M254.72,130.13c.58-.89,.99-1.99,1.77-2.63,4.56-3.74,6.36-8.69,6.28-14.48-.01-.81-.36-1.62-.58-2.53,3.15-2.35,5.04-5.57,5.78-9.59,1.14,6.06,1.36,12.03-.56,17.98-1.95,6.05-6.77,9.04-11.8,11.83-.3-.19-.6-.38-.9-.57Z"/>
  <path class="cls-7" d="M242.97,92.2c-.05,4.02,1.6,7.63,.68,11.95-1.25,5.9-3.26,11.14-7.18,15.6-.53,.6-1.99,1.24-2.32,.97-1.14-.93-.29-1.81,.3-2.94,1.21-2.31,2.33-4.84,2.67-7.4,.37-2.75-.21-5.63-.34-8.45-.02-.45-.04-1.01,.19-1.34,1.88-2.71,3.82-5.37,5.99-8.38Z"/>
  <path class="cls-2" d="M311.41,115.13c.32,.2,.79,.33,.92,.61,3.81,8.37,5.19,16.93,.57,25.38-1.43,2.62-4.08,4.55-6.17,6.8-1.28-1.46,.1-2.98-.09-4.47,0,0,0,0,0,0,2.14-.33,3.71-1.1,3.38-3.81-.07-.57,.62-1.2,.86-1.85,.3-.82,.71-1.68,.68-2.51-.03-1.11-.47-2.2-.65-3.31-.28-1.67-.5-3.36-.74-5.04-.46-1.34-.93-2.68-1.46-4.21,.49-.98,1.1-2.23,1.72-3.48,.08-.13,.16-.27,.23-.4,.1-.42,.2-.83,.3-1.25,.08-.22,.16-.44,.24-.67,.07-.6,.14-1.2,.21-1.8Z"/>
  <path class="cls-2" d="M292.76,95.05c-.5-.95-1.01-1.9-1.51-2.84,.16-.14,.31-.34,.37-.31,8.61,3.51,15.23,9.07,18.06,18.44,.35,1.16,.19,2.48,.27,3.73-.82-.61-1.65-1.23-2.47-1.84-2.36-4.35-5.67-7.56-10.31-9.35-.82-.32-1.49-1.39-1.94-2.27-.92-1.79-1.65-3.69-2.46-5.55Z"/>
  <path class="cls-7" d="M223.69,88.54c-.02,.13,0,.25,.05,.36-.32,1.74-.65,3.48-.97,5.22-.19,.59-.39,1.18-.73,2.2-1.86-.42-3.75-.85-5.65-1.29-.34-.1-.68-.21-1.02-.31-.75-.3-1.5-.61-2.26-.91-1.43-1.01-2.86-2.01-4.29-3.02,.68-2.54,1.48-5.01,3.69-6.66,.17,.12,.35,.25,.52,.37,3.41,1.27,6.83,2.54,10.24,3.81,.14,.07,.27,.15,.41,.22Z"/>
  <path class="cls-18" d="M203.68,87.93c-.11,.11-.22,.23-.35,.31-4.16,2.53-3.51,5.69-1.66,9.51,4.51,9.32,8.7,18.79,13.07,28.18,.28,.61,1.02,.99,1.55,1.48-.62,.3-1.23,.6-1.85,.9-2.31-4.98-4.69-9.92-6.92-14.94-3.33-7.51-6.61-15.05-9.79-22.62-.82-1.95-1.23-4.08-1.82-6.13,.24,0,.48,0,.72,0,.47,.96,.94,1.91,1.41,2.87,.3,.87,.59,1.74,.99,2.92,2-1.79,3.8-3.4,5.6-5.01l-.96,2.53Z"/>
  <path class="cls-7" d="M229.58,158.9c-.53-1.66-1.48-3.31-1.52-4.98-.18-6.76-.07-13.52-.07-20.3,2.61,1.26,4.44,5.02,3.81,7.78-1.3,5.68-2.78,11.35-1.4,17.29-.27,.07-.54,.14-.81,.21Z"/>
  <path class="cls-7" d="M282.48,109.5c-3.91,1.01-7.82,2.03-12.23,3.17,0-2.88-.01-5.15,.01-7.41,0-.29,.11-.64,.3-.85,.57-.63,5.79-.48,6.43,.13,.85,.81,1.66,1.68,2.59,2.38,.9,.68,1.93,1.17,2.9,1.75,0,.28,0,.56,0,.83Z"/>
  <path class="cls-7" d="M278.82,92.78c-.68,1.94-2.28,1.62-3.47,1.05-1.91-.91-3.53-.85-5.44,.02-1.11,.5-2.61,.37-3.89,.17-3.26-.5-6.51-1.17-9.74-1.85-.48-.1-.88-.62-1.32-.94,8.11-2.05,16.06-1.54,23.86,1.55Z"/>
  <path class="cls-7" d="M259.6,98.04c.23-1.92,1.28-2.75,2.8-1.82,1.08,.66,1.66,.46,2.65,.02,.86-.38,1.96-.22,2.95-.22,3.3-.02,6.59,0,9.14,0,1.26,1.57,2.11,2.61,2.95,3.65-6.83-.54-13.66-1.09-20.49-1.63Z"/>
  <path class="cls-7" d="M263.94,127.8c-.18,1.01-.36,2.02-.54,3.03-1.6,2.94-3.2,5.88-4.79,8.82-.74,.65-1.47,1.29-2.53,2.22-.18-3.23-.42-6.02-.42-8.82,0-.53,.87-1.16,1.46-1.56,2.05-1.4,4.15-2.72,6.23-4.07,.2,.12,.4,.25,.59,.37Z"/>
  <path class="cls-11" d="M106.48,159.26c2.21,0,4.43,0,6.64,0,.19,.03,.38,.06,.56,.09,1.26,.43,2.52,.86,3.78,1.29-.01,.17-.02,.33-.04,.5-3.01,1.05-6.02,2.12-9.05,3.1-.43,.14-1-.19-1.51-.3,0,0-.07,0-.07,0l-.09-.08-.03-.07c-1.25-1.17-2.49-2.33-3.87-3.62,.88-.23,1.98-.52,3.08-.81,.19-.03,.38-.06,.57-.09Z"/>
  <path class="cls-1" d="M267.8,159.76c1.19-.79,2.38-1.58,3.57-2.37,.16-.02,.32-.03,.48-.05,3.41-1.11,6.74-.5,10.69,.54-2.44,1.72-4.45,3.14-6.46,4.56-.52-.24-1.03-.47-1.55-.71-.3-.06-.61-.11-.91-.17-.92-.2-1.84-.4-2.75-.6-.82-.06-1.66-.04-2.46-.22-.26-.06-.41-.63-.61-.97Z"/>
  <path class="cls-2" d="M287.21,110.78c2.42,.8,4.84,1.6,7.26,2.4,.23,.67,.56,1.33,.67,2.03,.19,1.2,.24,2.43,.35,3.64-.15,.95-.3,1.9-.46,2.85-.56-.42-1.14-.8-1.67-1.26-3-2.59-6-5.19-6.16-9.66Z"/>
  <path class="cls-11" d="M139.86,159.76c.76,.18,1.52,.36,2.29,.54,.32,.16,.63,.33,.95,.49,.09,.15,.22,.2,.39,.18,.47,.25,.95,.51,1.42,.76-.73,.42-1.42,.96-2.2,1.23-1.71,.6-3.46,1.07-5.19,1.59-.15-.06-.3-.05-.44,.03-2.35-1.41-4.71-2.81-7.3-4.36,1.52-.29,3.04-.59,4.56-.88,.21-.03,.42-.05,.62-.08,.62,0,1.24,0,1.86,0,.21,.02,.42,.04,.62,.07,.65,.09,1.29,.19,1.94,.28,.15,.05,.31,.09,.46,.14Z"/>
  <path class="cls-2" d="M294.12,165.39c.43-.67,.76-1.46,1.32-2,2.08-2.01,4.25-3.94,6.35-5.93,.19-.18,.2-.58,.23-.89,.53-5.44,.59-10.86-.46-16.27-.39-2-1.26-2.87-3.24-2.49,.68-1.14,1.36-2.28,2.04-3.42,.23,.02,.46,.04,.69,.05,.55,1.79,1.1,3.58,1.65,5.37,.86,5.3,1.59,10.61,.28,15.95-1.2,4.88-4.19,8.06-8.86,9.62Z"/>
  <path class="cls-2" d="M295.33,140.03c-2.18-4.73-1.57-11.37,1.09-13.83,4.53,4.95,1.85,9.39-1.09,13.83Z"/>
  <path class="cls-2" d="M293.63,149.22c.3,2.62-1.07,3.67-3.39,4.37-2.03,.61-3.87,1.86-5.76,2.81-.21-3.36,4.22-8.2,9.56-10.35-.14,1.06-.28,2.12-.42,3.18Z"/>
  <path class="cls-11" d="M158.05,161.59c3.11-.21,6.21-.42,9.32-.63,1.72,.53,3.44,1.07,5.16,1.6,0,.23-.02,.45-.03,.68-2.51,.82-5.02,1.64-7.54,2.45-.13,.04-.33,.02-.44-.05-2.16-1.34-4.31-2.69-6.47-4.04Z"/>
  <path class="cls-11" d="M262.79,161.53c-2.47,.86-5.02,1.55-7.39,2.64-2.07,.96-3.58-.15-5.18-.96-.14-.07,.06-1.68,.48-1.93,1.17-.7,2.53-1.06,3.82-1.55,2.91-.11,5.86-.43,8.27,1.8Z"/>
  <path class="cls-20" d="M183.69,107.21c-.87,.4-1.74,.8-2.88,1.32-.19-.47-.5-1.2-.81-1.94,2.79-3.96,5.59-7.91,8.38-11.87,2.2,2.06,.29,3.51-.76,5.05-1.44,2.12-2.98,4.18-4.41,6.32-.12,.19,.27,.73,.43,1.11h.03Z"/>
  <path class="cls-7" d="M244.44,110.13c.48-2.92,.93-5.7,1.43-8.76,1.14-.06,2.42-.12,3.69-.18,.48,5.79-1.47,9.24-5.12,8.94Z"/>
  <path class="cls-2" d="M300.68,106.43c-1.51,.88-2.55,1.05-4.13-.53-1.36-1.36-3.78-1.81-5.81-2.23-3.11-.64-6.29-1.05-9.46-1.27-.97-.07-2,.78-3.01,1.21-.56-.62-1.12-1.24-1.68-1.87,.08-.19,.16-.39,.24-.58,8.19,.52,16.47,.56,23.85,5.27Z"/>
  <path class="cls-6" d="M248.08,162.48c-2.05-.2-3.96-.39-6.38-.62,1.16-2.34,2.17-4.38,3.18-6.42,2.49,1.11,3.68,3.73,3.2,7.04Z"/>
  <path class="cls-7" d="M221.14,100.78c1.79-.73,1.7,.25,1.15,1.41-.75,1.59-1.61,3.12-2.43,4.68-.79,2.91-1.58,5.82-2.37,8.75-.21-.66-.44-1.37-.67-2.08-.12-4.8,1.42-9.02,4.31-12.76Z"/>
  <path class="cls-6" d="M214.01,164.32c-.9-.17-1.8-.41-2.71-.51-2.73-.3-3.21-.96-2.61-3.8,.19-.91,.4-1.82,1.18-3.01,1.56,2.3,3.12,4.6,4.67,6.91-.18,.14-.36,.28-.53,.41Z"/>
  <path class="cls-2" d="M295.85,144.88c.27,.62,.8,1.26,.76,1.86-.11,2.07-.76,4.18-.48,6.17,.11,.81,.79,1.59,.47,2.69-.66,2.26-3.25,3.69-2.72,6.48,0,.01-.93,.21-1.43,.33,.8-3.77,1.61-7.54,2.41-11.3,.08-1.21,.15-2.42,.23-3.63,.15-.69,.3-1.38,.45-2.07,.1-.18,.2-.35,.3-.53Z"/>
  <path class="cls-18" d="M221.14,100.78c-2.9,3.74-4.43,7.96-4.31,12.76-.18,.81-.36,1.61-.54,2.42-.31-.47-.85-.91-.91-1.41-.67-5.98,1.44-10.92,5.59-15.06,.06,.43,.12,.86,.18,1.29Z"/>
  <path class="cls-7" d="M237.52,125.71c-1.71-1.79-1.94-3.34,.12-5.25,1.63-1.51,2.76-3.56,4.12-5.38,.91,1.54-.44,4.94-4.24,10.63Z"/>
  <path class="cls-20" d="M216.28,115.97c.18-.81,.36-1.61,.54-2.42,.23,.71,.45,1.42,.67,2.08,.8-2.93,1.58-5.84,2.37-8.75,.33,.07,.66,.14,1,.22-.44,2.96-.89,5.92-1.33,8.88,.12,.48,.23,.96,.35,1.44,.26,1.01,.51,2.01,.77,3.02-.39,.1-.78,.19-1.17,.29-.46-.52-.92-1.03-1.38-1.55-.3-.11-.6-.23-.9-.34-.31-.95-.61-1.9-.92-2.85Z"/>
  <path class="cls-7" d="M261.75,108.16c-1.37-3.02,1.01-5.1,1.93-7.5,.12-.31,1.5-.11,2.29-.14,.07,3.8-1.81,7.1-4.22,7.65Z"/>
  <path class="cls-21" d="M287.21,110.78c.17,4.47,3.16,7.07,6.16,9.66,.53,.45,1.11,.84,1.67,1.26,.01,.42,.02,.84,.03,1.26-4.92-2.43-8.39-6.03-9.3-11.76,.48-.14,.95-.28,1.43-.43Z"/>
  <path class="cls-7" d="M236.72,99.52c-2.61-3.32-.11-5.12,.81-7.1,.26-.57,1.83-.51,2.8-.74,.18,.24,.36,.48,.55,.72-1.33,2.27-2.65,4.53-4.16,7.12Z"/>
  <path class="cls-2" d="M310.16,126.95c.24,1.68,.46,3.36,.74,5.04,.19,1.11,.62,2.2,.65,3.31,.02,.83-.38,1.69-.68,2.51-.24,.64-.93,1.28-.86,1.85,.34,2.71-1.24,3.47-3.38,3.81,.87-1.69,1.75-3.38,2.62-5.07,.26-2.88,.53-5.76,.78-8.64,.08-.93,.09-1.87,.13-2.81Z"/>
  <path class="cls-7" d="M231.65,157.29c.16-.82,.28-1.65,.5-2.44,.17-.61,.48-1.17,.73-1.76,.41,.45,.8,.92,1.23,1.34,.21,.2,.5,.32,.75,.47,0,1.88,0,3.76,0,5.82-2.37-.07-2.44-2.09-3.21-3.43Z"/>
  <path class="cls-2" d="M307.63,138.28c-.72-3.35-1.72-6.68-.27-10.12,.35-.83,.29-1.84,.42-2.76,.26,1.13,.52,2.27,.78,3.4-.02,2.21-.03,4.41-.05,6.62-.08,.11-.09,.23-.04,.35-.28,.84-.56,1.68-.84,2.52Z"/>
  <path class="cls-22" d="M221.71,61.73c-.5,2.14,1.52,2.08,2.48,2.94-.3,.28-.6,.56-.9,.83-4.05-2.11-5.34-5.66-3.07-8.58,.29-.38,.86-.54,1.29-.81-.23,1.51-.53,3-.65,4.52-.03,.36,.53,.77,.81,1.16,0,0,.03-.07,.03-.07Z"/>
  <path class="cls-21" d="M258.6,139.65c1.6-2.94,3.2-5.88,4.79-8.82,.21,.62,.41,1.24,.62,1.86-.51,3.36-2.79,5.61-4.85,7.99-.19-.34-.38-.68-.57-1.03Z"/>
  <path class="cls-22" d="M262.79,161.53c-2.41-2.23-5.36-1.91-8.27-1.8-.16-.32-.32-.65-.48-.97,3.61-1.06,6.95-.52,10.01,1.74-.42,.35-.84,.69-1.26,1.04Z"/>
  <path class="cls-2" d="M307.48,112.22c.82,.61,1.65,1.23,2.47,1.84,.07,.33,.13,.66,.2,.98,0,0-.22-.02-.22-.02-.16,.91-.32,1.82-.47,2.73-.56,1.02-1.11,2.05-1.98,3.64v-9.17Z"/>
  <path class="cls-21" d="M206.95,91.74c.63-.32,1.25-.63,1.88-.95,1.43,1.01,2.86,2.01,4.29,3.02-.03,.42-.06,.83-.09,1.25-2.03-1.11-4.05-2.21-6.08-3.32Z"/>
  <path class="cls-22" d="M248.92,157.74c1.12-1.57,2.24-3.14,3.36-4.7,.43,.31,.85,.61,1.28,.92-1.08,1.73-2.15,3.46-3.23,5.18-.04,.38-.09,.75-.17,1.51-.51-1.21-.87-2.06-1.23-2.91Z"/>
  <path class="cls-7" d="M232.96,91.16c1.25,.1,2.02,.16,3.18,.26-.55,1.26-.95,2.18-1.62,3.73-.61-1.57-.98-2.51-1.56-3.99Z"/>
  <path class="cls-10" d="M308.51,135.41c.02-2.21,.03-4.41,.05-6.62,1.33,1.34,1.3,5.42-.05,6.62Z"/>
  <path class="cls-21" d="M295.49,118.85c-.11-1.22-.16-2.44-.35-3.64-.11-.69-.44-1.35-.67-2.03,.18-.37,.36-.75,.54-1.12,.78,.36,1.56,.71,2.34,1.07-1.66-.17-1.61,1.22-1.76,2.2-.18,1.15-.08,2.35-.1,3.53Z"/>
  <path class="cls-22" d="M270.87,160.96c.92,.2,1.84,.4,2.75,.6,0,.44,0,.88,0,1.32-1.19-.24-2.38-.47-3.57-.71,.72-.07,1.45-.14,2.4-.23-.65-.4-1.12-.69-1.58-.98Z"/>
  <path class="cls-22" d="M244.25,77.02c-.02,1.27-.03,2.55-.05,3.82-1.4-1.29-1.42-2.57,.05-3.82Z"/>
  <path class="cls-22" d="M244.41,72.82c-.05,1.08-.1,2.16-.16,3.24-1.37-1.28-1.31-2.37,.16-3.24Z"/>
  <path class="cls-21" d="M222.77,94.12c.32-1.74,.65-3.48,.97-5.22-.32,1.74-.65,3.48-.97,5.22Z"/>
  <path class="cls-18" d="M192.81,105.56s.02-.18,.02-.18c.58-.68,1.15-1.37,1.73-2.05,.13,.4,.26,.79,.38,1.19-.71,.35-1.43,.69-2.14,1.04Z"/>
  <path class="cls-22" d="M246.64,81.1c1.04,.08,2.08,.15,3.12,.23-1.04-.08-2.08-.15-3.12-.23Z"/>
  <path class="cls-14" d="M309.46,117.75c.16-.91,.32-1.82,.47-2.73-.16,.91-.32,1.82-.47,2.73Z"/>
  <path class="cls-18" d="M218.62,146.37c.03-.32,.05-.64,.08-.96,.26,.31,.51,.61,.77,.92l-.85,.04Z"/>
  <path class="cls-18" d="M216.47,125.43c.08-1.01,.16-2.03,.23-3.04-.08,1.01-.16,2.03-.23,3.04Z"/>
  <path class="cls-22" d="M168.37,181.4c.59,.05,1.18,.1,1.77,.16-.59-.05-1.18-.1-1.77-.16Z"/>
  <path class="cls-22" d="M175.28,181.52c.61-.09,1.22-.19,1.83-.28-.61,.09-1.22,.19-1.83,.28Z"/>
  <path class="cls-18" d="M216.7,134.74c-.1-.87-.2-1.73-.3-2.6,.1,.87,.2,1.73,.3,2.6Z"/>
  <path class="cls-21" d="M190.29,160.18c-.66,.2-1.32,.39-1.98,.59,.66-.2,1.32-.39,1.98-.59Z"/>
  <path class="cls-18" d="M105.69,165.31c.02-.44,.04-.88,.06-1.32,.32-.07,.64-.14,.96-.2,0,0,.03,.07,.03,.07,.03,.03,.06,.05,.09,.08,0,0,.07,0,.07,0-.4,.45-.8,.91-1.2,1.37Z"/>
  <path class="cls-18" d="M217.9,122.19c-.18,.56-.36,1.12-.53,1.68,.18-.56,.36-1.12,.53-1.68Z"/>
  <path class="cls-18" d="M295.55,145.41c-.15,.69-.3,1.38-.45,2.07,.15-.69,.3-1.38,.45-2.07Z"/>
  <path class="cls-21" d="M224.64,86.47c-.1-.12-.12-.25-.05-.39,.27,.16,.55,.31,.82,.47-.26-.02-.51-.05-.77-.07Z"/>
  <path class="cls-21" d="M212.52,84.13c.02-.28,.05-.57,.07-.85,.32,.12,.63,.24,.95,.36-.17,.29-.33,.58-.5,.86-.17-.12-.35-.25-.52-.37Z"/>
  <path class="cls-22" d="M252.68,151.59c.28-.34,.56-.68,.85-1.03-.28,.34-.56,.68-.85,1.03Z"/>
  <path class="cls-21" d="M263.94,127.8c-.2-.12-.4-.25-.59-.37,.22-.12,.44-.24,.66-.36-.02,.24-.04,.48-.06,.73Z"/>
  <path class="cls-18" d="M216.28,131.64c-.29-.32-.58-.63-.88-.95,.29,.32,.58,.63,.88,.95Z"/>
  <path class="cls-21" d="M264.67,130.22c-.11,.51-.22,1.02-.33,1.53,.11-.51,.22-1.02,.33-1.53Z"/>
  <path class="cls-22" d="M254.53,151.11c-.15,.52-.29,1.03-.44,1.55,.15-.52,.29-1.03,.44-1.55Z"/>
  <path class="cls-22" d="M264.3,160.71c.45,.04,.9,.08,1.35,.12-.45-.04-.9-.08-1.35-.12Z"/>
  <path class="cls-22" d="M235.86,181.51c.17-.04,.33-.07,.5-.11-.17,.04-.33,.07-.5,.11Z"/>
  <path class="cls-22" d="M255.94,76.89c-.28-.13-.55-.26-.83-.39,.3-.06,.61-.12,.91-.17,0,0,.07,.06,.07,.06-.05,.17-.1,.34-.16,.51Z"/>
  <path class="cls-18" d="M114.53,163.56c-.41,.14-.83,.27-1.24,.41,.41-.14,.83-.27,1.24-.41Z"/>
  <path class="cls-18" d="M101.18,168.19c-.16,.1-.31,.19-.47,.29,.16-.1,.31-.19,.47-.29Z"/>
  <path class="cls-21" d="M219.56,86.14c.32,.12,.63,.24,.95,.36-.32-.12-.63-.24-.95-.36Z"/>
  <path class="cls-18" d="M194.25,106.17c.05-.02,.11-.04,.16-.07,.02,.08,.03,.17,.05,.25-.06-.01-.13,0-.17-.04-.03-.02-.02-.1-.03-.15Z"/>
  <path class="cls-22" d="M238.61,181.02c.31-.05,.61-.11,.92-.16-.31,.05-.61,.11-.92,.16Z"/>
  <path class="cls-21" d="M213.94,95.41c-.3-.12-.6-.23-.9-.35,.3,.12,.6,.23,.9,.35Z"/>
  <path class="cls-21" d="M223.29,87.11c.29,0,.59,.01,.88,.02-.29,0-.59-.01-.88-.02Z"/>
  <path class="cls-21" d="M215.38,94.72c.34,.1,.68,.21,1.02,.31-.34-.1-.68-.21-1.02-.31Z"/>
  <path class="cls-22" d="M191.15,180.79c.3,.08,.6,.17,.9,.25-.3-.08-.6-.17-.9-.25Z"/>
  <path class="cls-18" d="M106.48,159.26c-.19,.03-.38,.06-.57,.09,.19-.03,.38-.06,.57-.09Z"/>
  <path class="cls-18" d="M113.69,159.34c-.19-.03-.38-.06-.56-.09,.19,.03,.38,.06,.56,.09Z"/>
  <path class="cls-21" d="M223.69,88.54c-.14-.07-.27-.15-.41-.22,.14,.07,.27,.15,.41,.22Z"/>
  <path class="cls-18" d="M134.97,159.27c-.21,.03-.42,.05-.62,.08,.21-.03,.42-.05,.62-.08Z"/>
  <path class="cls-18" d="M137.45,159.34c-.21-.02-.42-.04-.62-.07,.21,.02,.42,.04,.62,.07Z"/>
  <path class="cls-21" d="M221.98,86.9c.15,.01,.31,.03,.46,.04-.15-.01-.31-.03-.46-.04Z"/>
  <path class="cls-18" d="M311.2,116.94c-.08,.22-.16,.44-.24,.67,.08-.22,.16-.44,.24-.67Z"/>
  <path class="cls-18" d="M310.66,118.86c-.08,.13-.16,.27-.23,.4,.08-.13,.16-.27,.23-.4Z"/>
  <path class="cls-18" d="M129.98,162.14l-.21,.05s-.16-.14-.16-.14c.13-.01,.26,.02,.37,.09Z"/>
  <path class="cls-22" d="M267.68,162.1c-.28,.01-.55,.02-.83,.04,.28-.01,.55-.02,.83-.04Z"/>
  <path class="cls-18" d="M145.78,163.6c-.26,.07-.51,.15-.77,.22,.26-.07,.51-.15,.77-.22Z"/>
  <path class="cls-18" d="M137.08,164.58c.14-.08,.29-.09,.44-.03-.15,.01-.29,.02-.44,.03Z"/>
  <path class="cls-18" d="M106.36,166.34c-.28,.05-.56,.1-.84,.16,.28-.05,.56-.1,.84-.16Z"/>
  <path class="cls-18" d="M129.21,167.74c.11-.05,.22-.1,.34-.15-.09,.1-.2,.15-.34,.15Z"/>
  <path class="cls-18" d="M102.52,167.73l-.13,.18s-.21-.01-.21-.01c.09-.1,.21-.15,.34-.17Z"/>
  <path class="cls-16" d="M89.6,170.75c.15-.05,.3-.09,.45-.14-.15,.05-.3,.09-.45,.14Z"/>
  <path class="cls-12" d="M201.84,173.7c.18-.07,.36-.14,.55-.22-.18,.07-.36,.14-.55,.22Z"/>
  <path class="cls-22" d="M254.4,146.09c0-.27,.02-.54,.03-.81,0,.27-.02,.54-.03,.81Z"/>
  <path class="cls-12" d="M199.51,174.11c.16-.06,.32-.12,.48-.19-.16,.06-.32,.12-.48,.19Z"/>
  <path class="cls-22" d="M224.21,66.09c-.21-.12-.43-.25-.64-.37,.21,.12,.43,.25,.64,.37Z"/>
  <path class="cls-22" d="M207.9,181.64c.16-.02,.31-.03,.47-.05-.16,.02-.31,.03-.47,.05Z"/>
  <path class="cls-22" d="M204.47,181.92c.29,0,.59-.01,.88-.02-.29,0-.59,.01-.88,.02Z"/>
  <path class="cls-22" d="M253.78,149.2c.07-.18,.14-.36,.21-.54-.07,.18-.14,.36-.21,.54Z"/>
  <path class="cls-18" d="M303.04,136.17c.05,.21,.11,.43,.16,.64-.05-.21-.11-.43-.16-.64Z"/>
  <path class="cls-22" d="M178.08,181.16c.15,0,.31-.01,.46-.02-.15,0-.31,.01-.46,.02Z"/>
  <path class="cls-22" d="M163.21,180.41c.16,.04,.32,.09,.48,.13-.16-.04-.32-.09-.48-.13Z"/>
  <path class="cls-7" d="M154.22,126.54c0-6.32-.12-12.68,.04-19.04,.12-4.59,5.04-7.36,9.01-5.28,1.67,.87,2.26,3.35,.86,4.45-2.6,2.05-2.76,4.64-2.3,7.63,.33,2.17,.45,4.4,.38,6.59-.14,4.41-2.74,7.09-7.99,5.65Z"/>
  <path class="cls-5" d="M152.89,124.47c-.54,1.09-.95,2.28-1.67,3.24-1.09,1.46-.6,2.29,.8,2.91,1.04,.46,2.11,.83,3.21,1.26-2.35,3.64-10.25,6.89-14.05,5.92-2.33-.6-1.89-2.72-1.26-3.79,1.88-3.18,4.2-6.09,6.35-9.1,.18,.15,.36,.31,.55,.46-1.24,1.91-2.48,3.83-3.73,5.74-.04,.27-.08,.53-.12,.8,.32-.07,.8-.02,.94-.21,1.4-1.96,2.76-3.94,4.09-5.95,.33-.5,.5-1.11,.74-1.68h0c.62-.47,1.24-.94,1.87-1.42h0c.16-.16,.31-.32,.47-.48h0c.43-.2,.85-.4,1.28-.61,.18,.97,.36,1.94,.54,2.91Zm-3.94,9.89c-1.98-1.72-4.99,2.77-6.01-2.26-.38,.83-.78,1.68-.54,2.26,.24,.59,1.16,1.36,1.68,1.28,1.65-.24,3.25-.83,4.87-1.29Z"/>
  <path class="cls-5" d="M188.35,92.17c.01,.85,.03,1.7,.04,2.54-2.79,3.96-5.59,7.91-8.38,11.87-.56-.16-1.11-.33-1.67-.49-2.02-1.49-2.92-4.25-2.04-6.25,.7-.45,1.52-.78,2.09-1.36,1.52-1.52,2.93-3.15,4.39-4.74l-.02-.07c.13,.03,.27,.06,.4,.09,.02-.19,.05-.38,.07-.57,0,0-.01,.01-.01,.01,1.11-.86,2.22-1.72,3.33-2.58,1.38-.42,1.75,.37,1.8,1.55Z"/>
  <path class="cls-5" d="M166.77,108.81c1.23,1.46,2.46,2.93,3.9,4.64-2.25,1.57-4.41,3.07-6.58,4.59-1.78-5.44-1.55-6.22,2.68-9.23Z"/>
  <path class="cls-17" d="M194.57,103.33c-.58,.68-1.15,1.36-1.73,2.05-.93-1.22-1.85-2.45-2.78-3.68-.54-.24-1.09-.48-1.7-.75,.8-1.32,1.61-2.65,2.42-3.98,.41,.15,.82,.31,1.23,.46,.86,1.96,1.71,3.93,2.57,5.89Zm-1.99-.15l.85-.37c-.39-.81-.78-1.62-1.17-2.43-.21,.1-.42,.2-.64,.29,.32,.84,.64,1.67,.96,2.51Z"/>
  <path class="cls-10" d="M182.78,93.74c-1.46,1.59-2.87,3.22-4.39,4.74-.58,.58-1.39,.92-2.09,1.36-.02-.49-.04-.98-.06-1.46,1.38-1.27,2.76-2.54,4.14-3.81,0,0,0,0,0,0,.32-.16,.63-.32,.95-.49,0,0-.03,.02-.03,.02,.49-.12,.98-.25,1.47-.37Z"/>
  <path class="cls-5" d="M152.89,124.47c-.18-.97-.36-1.94-.54-2.91-.16-.18-.32-.35-.49-.53-.26,.38-.53,.76-.79,1.14,0,0,0,0,0,0-.16,.16-.31,.32-.47,.48,0,0,0,0,0,0-.59,.18-1.19,.36-1.78,.55-.17-.13-.33-.25-.5-.38,1.51-1.31,3.02-2.61,4.53-3.92,.21,.04,.43,.08,.64,.11-.2,1.82-.41,3.64-.61,5.46Z"/>
  <path class="cls-5" d="M182.78,93.74c-.49,.12-.98,.25-1.47,.37,1.64-1.95,3.27-3.9,4.91-5.84,.2,.15,.4,.29,.6,.44-.12,.38-.24,.76-.35,1.14-1.08,1.12-2.17,2.24-3.25,3.36,0,0,.01-.01,.01-.01-.16,.16-.31,.32-.47,.48l.02,.07Z"/>
  <path class="cls-13" d="M180.39,94.57c-1.38,1.27-2.76,2.54-4.14,3.81,1.38-1.27,2.76-2.54,4.14-3.81Z"/>
  <path class="cls-10" d="M183.22,93.2c1.08-1.12,2.17-2.24,3.25-3.36,.03,.26,.06,.52,.09,.78-1.11,.86-2.22,1.72-3.33,2.58Z"/>
  <path class="cls-5" d="M147.34,123.83c.33-.34,.66-.68,.98-1.03,.17,.13,.33,.25,.5,.38-.03,.29-.06,.59-.09,.88,0,0,0,0,0,0-.27,.05-.53,.11-.8,.16-.2-.13-.41-.26-.61-.4Z"/>
  <path class="cls-5" d="M146.82,125.36c-.18-.15-.36-.31-.55-.46,.28-.28,.56-.56,.84-.84,.13,.21,.26,.42,.4,.62-.23,.22-.46,.45-.69,.67Z"/>
  <path class="cls-13" d="M181.34,94.08c-.32,.16-.63,.32-.95,.49,.32-.16,.63-.32,.95-.49Z"/>
  <path class="cls-13" d="M147.12,124.07c.07-.09,.14-.17,.23-.23,.2,.13,.4,.26,.61,.4-.15,.15-.29,.31-.44,.46-.13-.21-.26-.42-.4-.62Z"/>
  <path class="cls-10" d="M270.29,14.72c1.15,.15,1.1,.71,.49,1.47-5.49,4.98-10.94,9.99-16.47,14.93-6.16,5.51-12.37,10.95-18.56,16.41-2.56,2.27-5.12,4.54-7.71,6.78-.3,.26-.8,.3-1.2,.44,0-.2,0-.39-.01-.58,.22-.3,.43-.61,.65-.91,.46-.49,.92-.98,1.38-1.46,0,0-.02,.02-.02,.02,.16-.32,.32-.64,.47-.96,0,0,0,0,0,0,.31-.16,.62-.32,.94-.48,0,0-.02,.01-.02,.01,2.1-1.63,4.28-3.18,6.28-4.94,1.16-1.02,2.03-2.39,3.04-3.61,0,0,.02-.02,.02-.02,.31-.16,.62-.32,.93-.48,0,0-.02,.02-.02,.02,.32-.32,.63-.64,.95-.96,0,0-.01,.01-.01,.01,1.4-1.27,2.8-2.54,4.2-3.8,0,0,0,0,0,0,.19-.02,.38-.05,.58-.07-.03-.14-.07-.27-.1-.41,0,0,0,0,0,0,1.55-1.42,3.1-2.84,4.65-4.27,0,0,.02-.02,.02-.02,.31-.16,.62-.32,.93-.48,0,0-.02,.02-.02,.02,.16-.32,.32-.64,.47-.95,0,0,0,0,0,0,2.27,.03,3.4-1.42,4.19-3.32,0,0,.01,0,.01,0,.31-.16,.63-.32,.94-.48,0,0-.02,.02-.02,.02,.32-.32,.63-.64,.95-.97,0,0-.01,.01-.01,.01,1.49-1.11,3.02-2.18,4.46-3.35,.36-.29,.46-.93,.68-1.4,0,0,0,0,0,0,.31-.16,.62-.32,.94-.48,0,0-.02,.01-.02,.01,1.56-1.43,3.12-2.86,4.69-4.29,0,0-.03,.02-.03,.02,.16-.16,.32-.33,.48-.49,0,0-.02,.02-.02,.02,.31-.32,.63-.64,.94-.97,0,0-.04-.04-.04-.04Z"/>
  <path class="cls-13" d="M226.83,54.18c0,.19,0,.39,.01,.58-.11,.02-.22,.05-.32,.1,.1-.23,.21-.46,.31-.69Z"/>
  <path class="cls-1" d="M276.41,164.9c3.06-2.4,6.03-4.95,9.22-7.16,2.21-1.53,4.72-2.59,7.26-3.95,.13,6.75-5.38,14.77-11.3,16.36-2.94,.79-6.06,1.01-9.11,1.22-.89,.06-1.85-.82-2.77-1.27,2.23-1.74,4.47-3.47,6.7-5.21Z"/>
  <path class="cls-2" d="M287.69,167.89c.81-.21,1.66-.7,2.43-.6,6.59,.86,13.56-4.87,14.47-12.41,.32-2.64,1.2-4.54,3.46-5.95,1.6-1.01,2.95-2.44,4.63-3.86,.33,7.99-2.03,14.8-7.74,20.27-4.26,4.08-11.55,5.38-17.24,2.55Z"/>
  <path class="cls-1" d="M274.1,177.64l-.17-.08s-.18,.04-.18,.04c-3.15-.65-6.11-1.64-8.15-4.52,1.33-1.5,2.55-1.5,4.47-.85,2.32,.79,5.05,.92,7.5,.57,2.54-.35,4.95-1.66,7.45-2.44,.76-.24,1.64-.23,2.44-.14,1.92,.22,3.82,.56,5.73,.85-.63,.63-1.15,1.44-1.89,1.85-5.35,2.98-10.95,5.11-17.2,4.72Z"/>
  <path class="cls-17" d="M276.41,164.9c-2.23,1.74-4.47,3.47-6.7,5.21-.57-.16-1.14-.33-1.7-.49,2.44-1.75,4.89-3.51,7.33-5.26,.36,.18,.72,.37,1.08,.55Z"/>
  <path class="cls-2" d="M306.65,143.46c.19,1.49-1.19,3.01,.09,4.47-.42,.39-.84,.79-1.54,1.44-.2-2.45-1.17-4.63,1.45-5.91Z"/>
  <path class="cls-17" d="M273.62,162.88c0-.44,0-.88,0-1.32,.3,.06,.61,.11,.91,.17,.32,.27,.63,.53,.95,.8-.34,.17-.68,.34-1.02,.51-.28-.05-.56-.1-.83-.15Z"/>
  <path class="cls-22" d="M275.48,162.52c-.32-.27-.63-.53-.95-.8,.52,.24,1.03,.47,1.55,.71-.2,.03-.4,.06-.6,.09Z"/>
  <path class="cls-22" d="M267.71,158.24l.08-.17s.19,0,.19,0c-.05,.11-.14,.17-.26,.18Z"/>
  <path class="cls-22" d="M271.85,157.34c-.16,.02-.32,.03-.48,.05,.16-.02,.32-.03,.48-.05Z"/>
  <path class="cls-22" d="M269.24,157.22c.21-.14,.43-.27,.64-.41-.21,.14-.43,.27-.64,.41Z"/>
  <path class="cls-22" d="M270.12,156.73c.23-.11,.46-.22,.69-.33-.23,.11-.46,.22-.69,.33Z"/>
  <path class="cls-22" d="M281.07,155.99c.25,.07,.5,.15,.74,.22-.25-.07-.5-.15-.74-.22Z"/>
  <polygon class="cls-22" points="278.31 155.41 278.46 155.29 278.54 155.44 278.42 155.44 278.31 155.41"/>
  <path class="cls-18" d="M94.68,160.9c.13-.01,.27-.03,.4-.04,0,0-.19,.11-.19,.11,0,0-.21-.07-.21-.07Z"/>
  <path class="cls-18" d="M89.13,162.24c.18-.05,.37-.09,.55-.14-.18,.05-.37,.09-.55,.14Z"/>
  <path class="cls-9" d="M221.68,61.79c-.29-.39-.84-.8-.81-1.16,.12-1.51,.42-3.01,.65-4.52,.37,0,.74,0,1.1,0-.31,1.89-.63,3.78-.94,5.67Z"/>
  <path class="cls-10" d="M211.16,67.99c0,.31,0,.62,0,.93-2.29,2.14-4.58,4.29-6.88,6.43-.16-.11-.31-.21-.47-.32,.13-.43,.27-.86,.4-1.29,.29-.5,.58-1,.86-1.5,0,0,0,0,0,0,.31-.16,.62-.32,.93-.48,0,0-.01,.01-.01,.01,1.72-1.26,3.43-2.52,5.15-3.78Z"/>
  <path class="cls-13" d="M205.08,72.25c-.29,.5-.58,1-.86,1.5-.04-.49-.08-.97-.12-1.46,.33-.01,.65-.03,.98-.04Z"/>
  <path class="cls-5" d="M239.56,41.85c-1,1.21-1.87,2.58-3.04,3.61-2,1.76-4.18,3.3-6.28,4.94,.7-.89,1.29-1.91,2.12-2.64,2.34-2.03,4.79-3.95,7.2-5.91Z"/>
  <path class="cls-5" d="M263.33,20.94c-.22,.48-.32,1.11-.68,1.4-1.44,1.17-2.96,2.24-4.46,3.35,1.71-1.59,3.42-3.17,5.13-4.76Z"/>
  <path class="cls-13" d="M250.74,31.87c-1.55,1.42-3.1,2.84-4.65,4.27,1.55-1.42,3.1-2.84,4.65-4.27Z"/>
  <path class="cls-13" d="M268.94,16.18c-1.56,1.43-3.12,2.86-4.69,4.29,1.56-1.43,3.12-2.86,4.69-4.29Z"/>
  <path class="cls-13" d="M245.62,36.62c-1.4,1.27-2.8,2.54-4.2,3.8,1.4-1.27,2.8-2.54,4.2-3.8Z"/>
  <path class="cls-5" d="M256.34,27.12c-.79,1.9-1.92,3.35-4.19,3.32,1.4-1.11,2.79-2.21,4.19-3.32Z"/>
  <path class="cls-5" d="M228.86,51.81c-.46,.49-.92,.98-1.38,1.46,0-.22-.02-.45-.03-.67,.47-.26,.94-.53,1.41-.79Z"/>
  <path class="cls-13" d="M270.33,14.76c-.31,.32-.63,.64-.94,.97,.31-.32,.63-.64,.94-.97Z"/>
  <path class="cls-13" d="M258.21,25.69c-.32,.32-.63,.64-.95,.97,.32-.32,.63-.64,.95-.97Z"/>
  <path class="cls-13" d="M241.44,40.41c-.32,.32-.63,.64-.95,.96,.32-.32,.63-.64,.95-.96Z"/>
  <path class="cls-13" d="M240.51,41.36c-.31,.16-.62,.32-.93,.48,.31-.16,.62-.32,.93-.48Z"/>
  <path class="cls-13" d="M251.69,31.38c-.31,.16-.62,.32-.93,.48,.31-.16,.62-.32,.93-.48Z"/>
  <path class="cls-13" d="M252.15,30.45c-.16,.32-.32,.64-.47,.95,.16-.32,.32-.64,.47-.95Z"/>
  <path class="cls-13" d="M230.26,50.38c-.31,.16-.62,.32-.94,.48,.31-.16,.62-.32,.94-.48Z"/>
  <path class="cls-13" d="M257.29,26.63c-.31,.16-.63,.32-.94,.48,.31-.16,.63-.32,.94-.48Z"/>
  <path class="cls-13" d="M264.28,20.46c-.31,.16-.63,.32-.94,.48,.31-.16,.62-.32,.94-.48Z"/>
  <path class="cls-13" d="M229.31,50.87c-.16,.32-.32,.64-.47,.96,.16-.32,.32-.64,.47-.96Z"/>
  <path class="cls-13" d="M246.1,36.14c.03,.14,.07,.27,.1,.41-.19,.02-.38,.05-.58,.07,.16-.16,.31-.32,.47-.48Z"/>
  <path class="cls-13" d="M269.4,15.71c-.16,.16-.32,.33-.48,.49,.16-.16,.32-.33,.48-.49Z"/>
  <path class="cls-5" d="M211.16,67.99c-1.72,1.26-3.43,2.52-5.15,3.78,1.61-1.53,3.22-3.07,4.82-4.6,.11,.27,.22,.55,.32,.82Z"/>
  <path class="cls-13" d="M206.02,71.76c-.31,.16-.62,.32-.93,.48,.31-.16,.62-.32,.93-.48Z"/>
  <path class="cls-22" d="M89.96,179.91c-.21,.02-.42,.05-.63,.07,.21-.02,.42-.05,.63-.07Z"/>
  <path class="cls-17" d="M170.03,120.16c.88-1.19,1.57-2.11,2.25-3.04,2.12,1.45,2.12,1.52-.37,4.11-.16,0-.34,.06-.45-.01-.43-.29-.84-.62-1.43-1.06Z"/>
  <path class="cls-21" d="M196.64,84.62c-.24,0-.48,0-.72,0-.59-2.93-.71-5.75,2.01-7.78,.27-.2,.7-.17,1.06-.24-.79,2.67-1.57,5.35-2.36,8.02Z"/>
  <path class="cls-18" d="M98.91,177.52c.14,.06,.29,.12,.43,.18-.14-.06-.29-.12-.43-.18Z"/>
  <path class="cls-17" d="M143.48,160.97c-.17,.03-.3-.03-.39-.18,.11-.09,.22-.18,.32-.28l.07,.45Z"/>
  <path class="cls-17" d="M204.53,88.91c1.24-2.94,2.78-3.74,4.78-2-1.11,1.05-2.2,2.07-3.28,3.08-.5-.36-1-.72-1.5-1.09Z"/>
  <path class="cls-18" d="M219.87,117.41c-.12-.48-.23-.96-.35-1.44,.12,.48,.23,.96,.35,1.44Z"/>
  <path class="cls-17" d="M212.48,82.57c-1.08,1.14-1.94,.84-2.75-.56,1.31-.76,.82-4.04,3.72-2.52-.32,1.03-.65,2.05-.97,3.08Z"/>
  <path class="cls-17" d="M215.82,76.55c-.6-.34-1.2-.69-2.33-1.34,.91-.85,1.64-1.52,2.37-2.2,.43,.69,.86,1.38,1.29,2.07-.44,.49-.89,.97-1.33,1.46Z"/>
  <path class="cls-4" d="M212.56,76.02c.41,.13,.82,.26,1.23,.39-.09,.17-.18,.33-.27,.5-.34-.28-.67-.56-1.01-.84,0,0,.04-.04,.04-.04Z"/>
  <polygon class="cls-15" points="209.99 84.93 209.95 84.81 210.07 84.82 209.99 84.93"/>
  <path class="cls-17" d="M106.81,163.93s-.06-.05-.09-.08c0,0,.09,.08,.09,.08Z"/>
  <path class="cls-10" d="M147.51,124.69c.15-.15,.29-.31,.44-.46,.27-.05,.53-.11,.8-.16-.24,.56-.41,1.17-.74,1.68-1.33,2.01-2.69,3.99-4.09,5.95-.14,.2-.62,.15-.94,.21,.04-.27,.08-.53,.12-.8,1.24-1.91,2.48-3.83,3.73-5.74,.23-.22,.46-.45,.69-.67Z"/>
  <path class="cls-19" d="M148.95,134.36c-1.62,.46-3.22,1.05-4.87,1.29-.52,.07-1.44-.69-1.68-1.28-.23-.58,.17-1.43,.54-2.26,1.02,5.03,4.02,.54,6.01,2.26Z"/>
  <path class="cls-10" d="M148.74,124.07c.03-.29,.06-.59,.09-.88,.59-.18,1.19-.36,1.78-.55-.62,.48-1.24,.95-1.87,1.43Z"/>
  <path class="cls-10" d="M151.07,122.17c.26-.38,.53-.76,.79-1.14,.16,.18,.32,.35,.49,.53-.43,.2-.85,.41-1.28,.61Z"/>
  <path class="cls-10" d="M150.61,122.64c.16-.16,.31-.32,.47-.48-.16,.16-.31,.32-.47,.48Z"/>
  <path class="cls-19" d="M143.09,131.1c-.04,.27-.08,.53-.12,.8,.04-.27,.08-.53,.12-.8Z"/>
  <path class="cls-10" d="M182.76,93.67c.16-.16,.31-.32,.47-.48-.02,.19-.04,.38-.07,.57-.13-.03-.27-.06-.4-.09Z"/>
  <path class="cls-18" d="M192.58,103.17c-.32-.84-.64-1.67-.96-2.51,.21-.1,.42-.2,.64-.29,.39,.81,.78,1.62,1.17,2.43l-.85,.37Z"/>
</svg>