<svg width="50" height="50" viewBox="0 0 50 50" fill="none" xmlns="http://www.w3.org/2000/svg">
<path d="M25.8029 35C27.6438 35 29.1362 30.1497 29.1362 24.1667C29.1362 18.1836 27.6438 13.3333 25.8029 13.3333C23.962 13.3333 22.4696 18.1836 22.4696 24.1667C22.4696 30.1497 23.962 35 25.8029 35Z" stroke="#484848" stroke-width="0.833333"/>
<path d="M25.891 35C29.2736 35 32.0157 30.1497 32.0157 24.1667C32.0157 18.1836 29.2736 13.3333 25.891 13.3333C22.5085 13.3333 19.7663 18.1836 19.7663 24.1667C19.7663 30.1497 22.5085 35 25.891 35Z" stroke="#484848" stroke-width="0.833333"/>
<path d="M19.7663 13.3333H32.0157" stroke="#484848" stroke-width="0.833333"/>
<path d="M25.8911 13.3333V35" stroke="#484848" stroke-width="0.833333"/>
<path d="M18.4412 24.9965L21.616 22.7545" stroke="#484848" stroke-width="0.833333"/>
<path d="M20.9107 24.9965L24.0856 22.7545" stroke="#484848" stroke-width="0.833333"/>
<path d="M24.1594 24.9998L27.419 22.7545" stroke="#484848" stroke-width="0.833333"/>
<path d="M27.4927 24.9998L30.7523 22.7545" stroke="#484848" stroke-width="0.833333"/>
<path d="M30.0231 24.9998L33.2827 22.7545" stroke="#484848" stroke-width="0.833333"/>
</svg>
