<?xml version="1.0" encoding="utf-8"?>
<!-- Generator: Adobe Illustrator 27.0.0, SVG Export Plug-In . SVG Version: 6.00 Build 0)  -->
<svg version="1.1" id="Layer_1" xmlns="http://www.w3.org/2000/svg" xmlns:xlink="http://www.w3.org/1999/xlink" x="0px" y="0px"
	 viewBox="0 0 414 200" style="enable-background:new 0 0 414 200;" xml:space="preserve">
<style type="text/css">
	.st0{fill:#47413F;}
	.st1{fill:#322C27;}
	.st2{fill:#FBB040;}
	.st3{fill:#FFF8B8;}
	.st4{fill:#A3CEDA;}
	.st5{fill:#655F55;}
	.st6{fill:#737171;}
	.st7{fill:#BDB5B3;}
	.st8{fill:#BBAC97;}
	.st9{fill:#E8E0CB;}
	.st10{fill:#E9E5DD;}
	.st11{fill:#B5D3DA;}
	.st12{fill:#F7B7D3;}
	.st13{fill:#00BFF3;}
	.st14{fill:#ECEAEA;}
	.st15{fill:#FFF200;}
	.st16{fill:#101010;}
	.st17{fill:#4F4A48;}
	.st18{fill:#433E3A;}
	.st19{fill:#E6E2DA;}
	.st20{fill:#6C635C;}
	.st21{fill:#BAB8B9;}
	.st22{fill:#EDE9E0;}
	.st23{fill:#E7E0CC;}
	.st24{fill:#BAAD98;}
	.st25{fill:#EBEAEA;}
	.st26{fill:#B0D2DA;}
	.st27{fill:#FDFDFD;}
	.st28{font-family:'MyriadPro-Regular';}
	.st29{font-size:10.2557px;}
</style>
<path class="st16" d="M191.79,88.23c0.15-0.36,0.3-0.72,0.44-1.07c0.16-0.21,0.33-0.41,0.49-0.62c2.08-2.88,4.58-5.24,8.82-5.03
	c1.51,0.07,2.3-0.57,3.16-1.52c5.24-5.81,11.24-6.9,18.32-3.21c1.41,0.74,2.16,0.65,3.29-0.28c2.84-2.35,6.34-2.88,9.69-1.38
	c3.12,1.39,4.67,0.09,6.28-1.82c3.82-4.52,9.67-5.36,14.93-2.3c1.29,0.75,1.78,1.92,2.65,2.87c2.77,3.05,5.73,2.91,7.56-0.66
	c1.57-3.07,4.08-5.3,7.09-7.1c5.12-3.06,10.8-2.02,14.49,2.48c0.24,0.9,0.44,1.9,1.61,0.53c0.4-1.52,0.92-2.99,2.25-4.11
	c0.31,0.35,0.62,0.69,0.93,1.04c-4.2,7.28-1.68,13.93,2.96,20.02c4.25,5.58,8.88,10.95,13.99,15.97c0.78,0.13,1.56,0.26,2.34,0.39
	c-0.07,0.45-0.2,0.9-0.19,1.35c0.04,1.61,0.86,3.21,2.53,3.38c1.53,0.16,1.74-1.66,2.21-2.79c1.34-3.19,2.66-6.38,3.99-9.58
	c0.46,0.01,0.92,0.01,1.38,0.02c0.13,0.55,0.08,1.23,0.43,1.64c7.33,8.59,7.62,18.28,5.68,28.34c-0.22,1.11-0.3,2.32-0.07,3.41
	c2.01,9.32,0.91,18.11-5.22,26.14c-0.41,0.54-0.77,1.26-0.76,1.89c0.11,12.41-12.61,18.58-22.39,20.33
	c-2.02,0.36-4.1,0.46-6.15,0.68c-0.75-0.01-1.5-0.02-2.24-0.04c-2.24-1.29-5.09-2.01-5.57-4.89c0-0.61,0-1.22,0-1.84
	c4.3-0.88,5.68-4.23,7.62-7.12c1.71-2.55,1.39-4.23-2.33-4.53c-1.84-0.35-3.69-0.88-5.32,0.5c-0.49,0.05-0.97,0.09-1.46,0.14
	c-0.27-0.66-0.84-0.93-1.6-0.95c-0.83-2.81-3.42-2.21-5.63-2.26c-1.87-0.04-3.98,0.49-4.44,1.95c-0.3,0.95,1.54,2.16,3.07,2.63
	c0.25,0.38,0.5,0.76,0.74,1.14c-5.11,3.31-10.38,6.38-16.36,8.33c-0.24,0.46-0.49,0.93-0.73,1.39c-1.38-0.63-3.09-1.46-4.24-0.35
	c-1.12,1.08,0.92,1.87,1.29,2.88c-0.35,0.32-0.7,0.64-1.05,0.96c-1.05-0.71-1.73-1.67-2.26-2.73c-0.19-0.27-0.39-0.55-0.58-0.82
	l-0.11-0.13c-0.27-0.58-0.54-1.15-0.81-1.73c3.1-0.52,6.19-1.05,9.29-1.57c0.83,0.04,1.51-0.1,1.61-0.99
	c2.43-1.04,4.93-1.99,7.28-3.17c1.25-0.62,3.45-0.96,3.16-2.52c-0.27-1.47-2.17-2.22-3.81-2.62c-5.46-1.35-10.94-1.63-16.27,0.42
	c-6.39,2.45-12.71,5.02-19.06,7.54c-0.64-0.07-1.29-0.12-1.62-0.73c3.49-1.47,6.99-2.92,10.47-4.43c0.66-0.29,1.62-0.68,1.75-1.18
	c0.27-1-1.08-1.05-1.71-1.54c-4.21-3.34-9.41-2.18-14.28-2.49c-1.16-0.11-2.14-0.43-2.49-1.56c2.88-2.16,5.67-4.39,7.34-7.48
	c5.44-10.05,10.26-20.34,14.8-30.72c2.89-6.62,6.46-13.11,7.06-20.37c0.12-1.42,1.25-3.56-0.24-4.11c-1.68-0.62-3.99,0.06-5.79,1.16
	c-1.14,0.7-1.57,1.75-2.13,2.77c-5.03,9.16-7.52,19.03-10.55,28.78c-3.2,10.31-7.08,20.43-13.93,29.39
	c-0.52-0.04-1.04-0.08-1.56-0.12c3.8-5.86,6.92-11.98,9.7-18.29c5.07-11.49,7.03-23.71,10.94-35.45c1.67-5.02,2.04-10.39,5.04-15.05
	c0.11,0.56,0.21,1.12,0.32,1.68c0.29,1.58-1.37,2.94-0.67,4.64c2.37-0.42,4.69-1.03,7.05-1.2c4.39-0.31,6.37-2.53,6.85-6.18
	c-0.19-1.54,0.67-2.14,2.3-2.04c0.32,1.97-1.16,3.48-1.7,5.24c-5.97,19.35-14.13,37.97-23.83,56.05c-1.82,3.39-2.08,6.15,0.6,9.39
	c0.8-0.96,1.66-1.79,2.28-2.75c5.56-8.67,10.64-17.54,15.08-26.74c4.95-10.25,9.36-20.67,13.83-31.08
	c2.8-6.51,5.01-13.3,10.07-18.93c1.6-1.78,3.29-2.76,5.68-3.06c0.71-0.09,1.69,0.19,2.02-0.65c0.36-0.94-0.57-1.46-1.17-2.01
	c-1.13-1.03-2.57-1.46-4.16-1.65c-5.78-0.7-9.16,2.36-12,6.14c-2,2.67-3.77,5.47-5.65,8.21c-0.39-0.33-0.78-0.67-1.17-1
	c0.63-0.77,2-2.25-0.38-1.81c-4.16,0.77-8.73,0.64-12.29,3.29c-0.38,0-0.77,0-1.15-0.01c1.43-3.99,5.41-4.7,9.67-5.48
	c-1.47-1.37-2.5-2.53-3.74-3.47c-2.42-1.82-7.07-1.77-9.37,0.16c-3.22,2.7-5.66,5.76-7.04,9.68c-4.58,12.97-7.72,26.23-10.49,39.58
	c-2.06,9.94-4.26,19.85-7.8,29.48c-0.48,0-0.97,0-1.45,0.01c0.04-0.23,0.06-0.46,0.12-0.68c4.58-15.72,8.64-31.52,10.88-47.67
	c0.64-4.66,1.15-9.49,4.03-13.59c2.13-3.03,2.4-6.54,3.97-9.68c0.52-1.04,0.04-1.64-1.03-2.22c-4.43-2.41-10.06-0.98-11.9,3.41
	c-1.9,4.52-3.44,9.17-3.71,14.07c-0.89,15.78-1.8,31.55-2.7,47.33c-0.59,0.23-1.19,0.46-1.78,0.7c0.76-13.11,1.56-26.22,2.21-39.33
	c0.05-1.1,1.88-3.56-1.29-3.22c-2.24,0.24-6.31-0.78-5.77,3.66c0.36,2.97,0.38,5.99,0.28,8.98c-0.43,13.24-0.96,26.48-1.43,39.72
	c-0.14,3.98,0.87,4.66,4.81,3.34c0.35,0.34,0.7,0.68,1.05,1.02c-2.01,2.67-3.82,2.63-6.55,0.38c-1.74-1.43-4.84,3-7.08-0.39
	c-0.06-0.08-0.22-0.11-0.33-0.17c-0.58-0.04-1.16-0.08-1.75-0.12c0.02-1.83,0.18-3.68,0.03-5.5c-1.17-14.72-5.91-28.8-9.83-43.02
	c0.6-1.56-0.03-1.99-1.64-1.34c-1.64,0.66-3.23,1.42-4.85,2.12c-1.05,0.45-1.8,0.98-0.83,2.07c2.2,7.2,4.29,14.44,6.65,21.6
	c2.64,8.05,5.52,16.03,8.29,24.04c-0.49,0-0.99,0.01-1.48,0.01c-6.23-16.26-11.78-32.7-16.39-49.38c-0.89-3.21-1.42-6.57-0.91-9.9
	c0.44-2.86,1.42-5.47,5.63-5.19c1.62,0.11,2.77-0.37,2.93-1.99C190.28,89.97,191.59,89.86,191.79,88.23z M182.61,95.47
	c-0.01,0.42-0.02,0.84-0.04,1.26c-1.76,2.51-0.18,5.13-0.32,7.7c-0.05,0.86,0.59,1.1,1.56,0.75c6.11-2.21,7.26-4.12,5.76-9.67
	c0-0.25,0-0.5,0-0.75c0.1-0.98,0.22-2.65-1.38-1.69C186.41,94.16,184.02,93.9,182.61,95.47z M215.97,87.86
	c-2.4-0.01-1.02,1.2-0.82,2.03c-1.59,0.39-2.04,1.39-2.12,3.06c2.3-0.67,4.29-1.09,6.13-1.82c1.94-0.76,2.64-1.77-0.06-2.59
	c0.31-0.87,2.15-0.28,1.93-1.7c-1.51-0.3-2.89,0.19-4.26,0.7C216.51,87.65,216.24,87.76,215.97,87.86z M291.28,85.79
	c-0.52,0.01-1.04,0.02-1.56,0.03c-3.03-0.37-6.51-0.11-8.33,1.59c-1.45,1.36,1.22,3.81,2.05,5.77c0.09,0.21,0.05,0.47,0.17,0.67
	c2.75,4.63,6.27,8.44,12.59,9.65c-0.33-3.36-0.64-6.41-0.94-9.47c0.25-0.65,0.5-1.31,0.75-1.96c1.44-2.09-0.77-7.13-3.34-7.55
	C291.63,84.37,291.38,85.05,291.28,85.79z M240.8,152.7c1.52,0.47,2.74,0.04,4-0.22c2.94-0.61,6.22-1.12,8.71,0.34
	c3.96,2.33,8.2,2.53,12.61,3.25c4.2,0.69,7.56-0.86,11.3-1.26c3.35-0.36,6.55,1.87,9.25,1.28c2.94-0.65,5.21-3.57,8.58-4.3
	c0.5-0.11,1.01-0.22,1.5-0.36c0.77-0.22,1.34-0.61,1.64-1.34c1.24-3.03,3.69-5.67,2.49-9.39c-0.72-2.21,0.11-4.82,2.04-6.4
	c4.03-3.29,2.53-6.87,0.91-10.25c-1.19-2.47-2.13-4.7-0.62-7.21c0.69-1.16,0.69-2.24-0.22-3.21c-2.91-3.09-3.61-8.18-9.62-8.49
	c-0.3-0.02-0.54-0.45-0.86-0.63c-6.18-3.39-10.26-8.24-12.61-14.32c-0.47-1.22-0.62-2.95-2.9-2.56c-2,0.34-3.95,0.56-4.81,2.8
	c-4.58,11.97-9.7,23.76-15.51,35.29C252.04,134.89,247.34,144.06,240.8,152.7z M201.8,122.6c0.46,8.94,1,19.19,1.5,29.44
	c0.09,1.8,0.05,3.67,2.78,3.74c2.68,0.07,2.9-1.65,3.04-3.54c1.17-16.35,1.92-32.71,1.55-49.1c-0.11-4.74,0.16-9.45,1.77-14
	c1.02-2.88,3.2-4.96,6.76-4.78c3.51,0.18,3.53-2.22,4.19-3.99c0.81-2.17-1.5-2.68-3.02-3.3c-6.34-2.6-13.84,0.55-15.56,6.69
	C201.33,96.11,202.23,108.74,201.8,122.6z M298.67,91.21c-2.72,7.15-0.19,12.83,3.37,18.52c4.17,6.68,11.38,11.23,15.3,18.08
	c1.35,2.37,2.24,0.22,2.61-0.82c2.1-5.9-0.85-11.03-4.19-15.56C310.68,104.57,304.7,98.26,298.67,91.21z M202.67,84.15
	c-5.95-0.8-10.16,2.66-10.76,8.52c-0.85,8.33,1.85,16.17,3.85,24.11c1.29,5.13,2.75,10.22,4.13,15.33
	C200.58,116.03,199.23,99.99,202.67,84.15z M296.22,175.7c7.49-0.69,13.88-2.85,18.95-7.12c2.79-2.35,5.36-5.25,5.9-9.01
	c0.19-1.3,0.09-2.28-1.66-1.48c-2.94,1.34-5.94,2.19-9.27,1.89c-1.32-0.12-1.77,0.84-2.24,1.61c-3.38,5.58-7.85,9.61-15.67,9.09
	c-0.25-0.02-0.53,0-0.76,0.09c-1,0.39-2.52,0.31-2.55,1.67c-0.02,1.18,1.08,1.84,2.2,2.15C292.94,175.1,294.83,175.41,296.22,175.7z
	 M322.59,98.16c-1.73,3.43-3.33,6.52-4.84,9.64c-1.92,3.96,2.92,6.22,3.16,9.66c0.05,0.67,0.56,1.3,0.71,1.97
	c0.69,3.08,1.08,6.15-0.6,9.12c-0.75,1.33-3.07,2.87-0.89,4.1c1.77,0.99,3.45-0.84,4.51-2.24c0.92-1.23,1.85-2.57,2.23-3.97
	c1.33-4.94,2.12-9.94,1.2-15.06C327.23,106.75,326.42,102.14,322.59,98.16z M311.35,152.55c3.27-0.25,4.72-2.24,5.48-4.39
	c3.38-9.58,1.81-18.31-5.94-25.93c-1.65-1.62-2.44-1.17-3.27,0.48c-1.33,2.65-1.32,5.44-0.4,8.09
	C309.67,137.85,311.63,144.95,311.35,152.55z M292.9,169.35c3.45-0.45,5.38-0.66,7.3-1.97c7.42-5.08,9.39-12.04,9.19-19.83
	c-0.06-2.12,0.49-5.79-1.23-5.97c-2.7-0.29-4.15,2.89-5.62,5C297.76,153.42,298.63,161.99,292.9,169.35z M327.49,130.01
	c-1.55,2.18-3.05,3.64-5.14,4.26c-1.99,0.58-2.56,1.61-2.26,3.35c0.16,0.9,0.14,1.85,0,2.76c-0.87,5.74-0.56,12.03-8.91,14.15
	c-1.23,0.31-1.8,2.06-1.22,3.32c0.56,1.22,2.07,0.82,3.08,0.59c6.29-1.45,10.59-5.09,12.75-10.41
	C328.05,142.47,329.11,136.7,327.49,130.01z M274.53,86.52c4.77-0.95,9.36-1.92,13.97-2.77c2.15-0.39,3.89-0.57,3.18-3.37
	c-0.64-2.55-1.62-3.13-4.31-2.13c-1.75,0.65-3.72,1.07-5.62,1.16C276.83,79.63,275.07,82.29,274.53,86.52z M242.2,155.36
	c5.45,4.81,4.57,6.09,13.89,0.56C251.74,152.86,247.22,152.68,242.2,155.36z M306.37,133.96c-3.58,2.11-4.56,4.99-2.94,8.32
	C307.26,140.41,308.81,137.84,306.37,133.96z M280.23,76.18c2.96-0.65,5.92-1.29,8.87-1.97c1.03-0.24,1.53-0.88,1.22-1.81
	c-0.31-0.93-1.17-0.77-1.88-0.49C285.61,73.01,282.36,73.38,280.23,76.18z M297.56,152.95c-3.15,0.59-5.48,1.47-7.97,3.52
	c2.58-0.24,4.08,1.78,5.81,1.21C297.44,157.01,296.68,154.82,297.56,152.95z M230.15,154.99c2.64-0.27,4.7,0.67,5.67-0.74
	c0.72-1.04-0.06-2.57-1.39-3.62C233.16,151.93,232,153.1,230.15,154.99z M214.22,99.02c1.42-1.38,4.95,0.59,5.66-2.58
	c0.22-0.99-0.43-1.3-1.27-0.92c-2.09,0.95-4.91,0.75-6.27,2.72C211.87,98.91,213.18,99.06,214.22,99.02z M305.31,122.66
	c0.23-1.59,3.49-2.05,1.63-4.36c-0.44-0.55-1.22-1.68-2.09-0.85C303.19,119.02,303.83,120.82,305.31,122.66z"/>
<path class="st16" d="M221.82,154.22c0.52,0.04,1.04,0.08,1.56,0.12c0.82,1.7,2.26,0.52,3.43,0.58c0.35,1.13,1.34,1.46,2.49,1.56
	c-0.58,0.41-0.83,1.09-1.72,1.28c-10.8,2.29-19.25,8.77-29.44,12.77c4.81,2.63,9.62,2.95,14.58,2.29c7.3-0.98,14.01-3.43,20.36-6.7
	c0.34,0.61,0.99,0.66,1.62,0.73c-0.52,0.69-1.03,1.38-1.68,2.24c6.58,1.51,13.03,1.3,19.49,0.68c0.27,0.58,0.54,1.15,0.81,1.73
	c-7.73,0.17-15.51,0.93-23.03-1.57c-1.16-0.38-2.48,0.05-3.06,0.95c-0.63,0.98,0.56,1.7,1.28,2.24c5.35,4.09,11.52,6.78,18.4,8.09
	c4.99,0.95,10.03,1.54,15.33-0.22c-2.22-2.16-4.09-3.98-5.97-5.81c0.35-0.32,0.7-0.64,1.05-0.96c6.03,6.8,14.17,7.97,23.13,6.84
	c4.23-0.53,8.72-0.53,11.82-3.86c0.75,0.01,1.5,0.02,2.24,0.04c-1,2.63-3.56,3.52-6.19,4.13c-6.94,1.62-13.95,2.28-21.06,0.79
	c-0.86-0.18-1.93-0.44-2.66-0.17c-8.65,3.27-17.01,1.25-25.3-1.13c-2.38-0.68-4.25-0.57-6.54,0.38c-9.28,3.88-18.84,3.42-28.33,0.69
	c-2.29-0.66-3.99-0.6-6.13,0.45c-8.55,4.21-17.47,3.24-26.3,0.8c-2.35-0.65-4.23-0.82-6.55,0.16c-3.12,1.32-6.48,2.24-10.05,2.15
	c-0.01-0.4-0.02-0.8-0.04-1.2c3.38-1.09,7.29-0.85,10.58-3.28c-2.81-1.03-4.31-2.97-5.92-4.66c-1.98-2.07-3.6-2.14-6.23-1.03
	c-4.22,1.79-8.37,3.9-13.17,4.35c0.05-0.74,0.04-1.45-0.86-1.84c11.52-2.17,21.65-7.24,32.62-11.98c-4.14-1.55-7.7-2.01-11.32-1.8
	c-6.44,0.39-12.62,1.38-18.52,4.19c-5.47,2.61-11.49,4.31-17.97,6.66c3.52,1.09,5.83,3.06,9.08,2.91c0,0.69,0.01,1.39,0.01,2.08
	c-1.8,0.25-3.09-0.8-4.61-1.33c-2.63-0.92-4.84-3.1-8.34-2.7c2.29,3.62,5.58,5.12,9.42,6.08c4.74,1.19,9.6,1.73,14.44,2.37
	c-0.01,0.41-0.02,0.82-0.03,1.24c-12.42-2.98-24.96,0.32-37.41-0.62c-4.7-0.35-9.33-1.46-13.99-2.24c-1.57-0.26-0.68-1.52-1.12-2.25
	c1.42-0.94,2.38,0.28,3.5,0.63c9.76,2.99,19.62,3.44,30.03,1.4c-1.87-1.75-4.31-2.08-5.28-4.03c-0.89-1.78-2.39-1.97-4.45-1.52
	c-7.88,1.69-15.59,1.28-22.98-1.94c-0.81-1.42-1.06-2.79,0.41-4.02c3.03-0.49,5.8-1.61,8.55-2.78c0.96-0.03,1.78-0.21,1.8-1.28
	c0.1-0.07,0.21-0.13,0.28-0.22c0.05-0.07,0.08-0.23,0.04-0.25c-2.24-1.32-4.81-1.57-7.39-1.78c-0.72-0.66-1.61-0.45-2.48-0.37
	c-0.28,0-0.55-0.01-0.83-0.01c-1.57-1.06-1.46-2.14,0.55-1.87c2.16,0.29,3.22-0.51,4.64-1.64c4.09-3.24,14.2-2.94,19.42,0.29
	c4.52,2.8,9.64,2.38,14.15,0.69c6.8-2.56,12.97-3.98,19.71,0.26c2.88,1.81,7.35,1.22,9.83-0.68c6.99-5.34,13.73-3.91,20.76-0.64
	c0.85,0.4,1.48,1.42,2.67,0.62c0.95,0.23,1.89,0.45,2.84,0.68c-7.61,3.04-15.22,6.08-22.84,9.13c16.62,6.73,29.73-1.45,43.4-7.26
	c-0.22-0.94-0.75-1-1.25-1.1c-2.75-0.56-5.51-1.12-8.26-1.68c0.09-1.02-1.1-1.18-1.56-1.83c0.09-0.94,0.18-1.89,0.26-2.83
	c0.49,0,0.99-0.01,1.48-0.01c0.71,1.05,1.42,1.51,2.18,0.03c0.58,0.04,1.16,0.08,1.75,0.12c0.07,1.36-1.59,1.96-1.8,3.01
	c6.59,2.68,12.94,3.41,18.66-1.5c-0.96-0.45-1.93-0.89-2.9-1.34c-0.35-0.34-0.7-0.68-1.05-1.02c0.1-0.46,0.19-0.92,0.29-1.38
	c2.63-1.6,1.37-3.56,0.65-5.48c0.08-2.1,0.16-4.19,0.24-6.29c0.59-0.23,1.19-0.46,1.78-0.7c-0.05,1.35-0.2,2.71-0.14,4.06
	c0.08,1.66-1.46,3.46,0.47,4.98c0.48,0,0.97,0,1.45-0.01c-0.26,0.86-0.58,1.72-0.76,2.6C219.32,156.26,220.95,154.46,221.82,154.22z
	 M93.54,173.42c5.77,2.75,11.75,3.38,18.05,2.69c8.6-0.94,16.32-4.25,24.27-6.96c0.79-0.27,1.97-0.41,1.95-1.42
	c-0.03-1.18-1.36-1.26-2.26-1.54c-4.57-1.44-9.29-1.77-14.13-1.62c-8.66,0.27-15.75,4.65-23.66,6.89
	C96.35,171.85,94.72,172.05,93.54,173.42z M192.87,172.45c8.31,10.44,28.21,12.4,39.29,7.34c1.53-0.7,1.42-1.5,0.02-2.23
	c-2.13-1.12-4.26-2.31-5.66-4.12c-1.41-1.83-2.73-1.69-4.87-1.02c-8.24,2.56-16.55,3.81-24.6-0.61
	C195.38,170.89,194.17,171.71,192.87,172.45z M198.71,180.32c-2.53-2.25-4.87-4.33-7.21-6.42c-0.7-0.63-1.4-0.76-2.42-0.47
	c-8.81,2.51-17.57,3.89-25.99-1.15c-1.19-0.71-2.4,0.14-3.06,0.84c-0.96,1.02,0.54,1.57,1.13,2.15c6.06,5.84,13.95,7.82,22.5,8.26
	C189,183.8,194.07,183.11,198.71,180.32z M99.09,162.86c6.01,3.16,12.03,2.88,18.29,0.15C111.53,159.04,102.84,159.06,99.09,162.86z
	 M181.69,162.57c-6.27-4.2-14.25-4.28-18-0.1C169.72,162.42,175.42,167.07,181.69,162.57z M150.29,163.46
	c-5.25-3.73-11.2-3.62-17.15,0.08C141.04,166.81,141.04,166.81,150.29,163.46z"/>
<path class="st16" d="M197.34,159.24c0.46,0.65,1.65,0.8,1.56,1.83c-1.04-0.01-2.08-0.01-3.12-0.02c-0.49-0.51-0.99-0.54-1.49-0.02
	c-2.15,0.32-4.3,0.63-6.45,0.95c-0.95-0.23-1.89-0.45-2.84-0.68c0.1-1.02-1.34-1.67-0.83-2.79c1.46-1.45-0.56-3.34,0.77-4.8
	c3.04-3,1.62-5.99,0.04-9.01c-1.31-2.5-2.66-5-3.77-7.57c-2.65-6.1-5.6-12.06-9.8-17.47c-0.37-0.98,0.69-1.71,0.91-3.28
	c-4.58,2.62-8.61,4.93-12.64,7.24c-3.35,2.11-6.9,3.87-10.77,5.08c-1.38,0.43-2.72,1.54-3.79-0.56c-1-1.96,0.4-2.81,1.8-3.46
	c2.39-1.12,4.93-2.01,7.44-2.92c2.43-0.88,3.51-2.06,1.76-4.31c-0.57-0.74-0.81-1.69-1.14-2.55c-1.61-4.14-6.52-5.18-9.62-1.66
	c-3.53,4-7.46,6.2-13.25,4.75c-0.5-0.13-1.19-0.14-1.21,0.44c-0.12,3.51-3.27,2.67-5.44,2.91c-4.56,0.49-9.06,0.03-13.22-1.84
	c-4-1.8-4.63-4.82-1.74-7.89c1.87-1.98,4.31-3.33,6.98-4.25c1.73-0.6,1.76-1.14,0.78-2.45c-0.56-0.75-1.11-1.52-1.74-2.23
	c-8.39-9.39-14.82-19.84-20.87-30.5c-2.97-5.22-6.05-10.39-8.99-15.62c-2.41-4.31-4.67-8.69-7.03-13.02
	c-0.39-0.72-0.45-1.29,0.3-1.81c1.11,0.35,1.46,1.29,1.9,2.09c3.2,5.78,6.32,11.59,9.51,17.37c8.21,14.84,16.57,29.59,28.33,42.58
	c1.78,1.96,3.32,1.86,5.21,1.06c0.76-0.32,1.36-0.92,2.32-1.03c1.88-0.22,2.05-0.9,0.92-2.27C116.66,87.66,108.03,72.36,99.55,57
	c-3.98-7.2-7.72-14.5-11.56-21.76c0.89-2.43,1.69-0.9,2.23,0.11c2.67,4.98,5.58,9.88,7.8,15.02c1.91,4.42,4.41,8.58,6.82,12.73
	c7.47,12.83,14.8,25.78,24.6,37.4c2.77,3.29,7.76,2.73,10.22-0.81c2.37-3.42,4.11-7.54,9.42-8.4c1.32,0.23,2.78-0.34,3.98,0.55
	c-7.04,1.1-10.8,5.47-13.06,10.95c-2.06,4.98-3.86,9.96-10.45,11.94c4.01,2.56,8.23,2.93,10.72,0.8c3.71-3.17,7.2-6.55,8.99-11.01
	c1.62-4.02,4.73-6.47,9.59-7.01c0.98-0.11,2.06-0.11,2.9-1.13c-1.76-1.54-3.1-3.49-5.57-4.37c0.54-0.83,1.47-0.57,2.28-0.66
	c2.45,0.38,3.18,2.44,4.64,3.78c0.78,0.71,1.34,1.74,2.79,1.41c1.54-0.35,1.88-1.43,1.99-2.61c0.11-1.16,0.43-2.24,1.11-3.24
	c1.12-0.5,1.06-2.33,2.88-2.04c-0.1,1.65-1.56,2.77-1.98,4.39c-1.73,6.7,0.31,13,2.58,19.17c2.99,8.15,6.37,16.2,10.25,24.08
	c3.62,7.34,6.85,14.84,11.7,21.65C195.13,158.93,196.03,159.42,197.34,159.24z M130.25,105.5c-3.64,0.54-7.25,1.21-10.61,2.65
	c-2.95,0.86-5.64,2.08-7.7,4.24c-2.34,2.47-2.01,4.3,1.24,5.76c4.04,1.81,8.38,1.92,12.81,1.72c3.2-0.14,3-1.08,1.44-2.99
	c-2.94-3.61-2.37-4.75,2.79-5.23c2.61-0.25,4.34-1.21,5.38-3.27c0.71-1.41,2.32-3.11,0.91-4.31c-1.31-1.12-2.94,0.63-4.41,1.18
	C131.5,105.34,130.88,105.42,130.25,105.5z M167.05,98.93c-0.08-0.33-0.21-0.95-0.22-0.95c-4.32,0.63-8.85,0.61-12.62,3.05
	c-0.13,0.4-0.27,0.81-0.4,1.21c-4,1.23-3,5.24-6.24,7.8c5.6-0.36,10.17-0.51,14.7-0.99c6.74-0.72,6.72-0.83,5.7-6.93
	c-0.09-0.57-0.12-1.14-0.18-1.71C167.55,99.92,167.3,99.43,167.05,98.93z M158.42,117.69c-1.34,2.21,0.93,1.44,1.55,1.27
	c4.26-1.2,7.22-4.15,10.56-6.57c0.69-0.5,0.29-1.28-0.14-1.88c-0.36-0.51-0.87-0.9-1.59-0.71c-1.12,0.29-0.73,0.96-0.47,1.63
	c0.3,0.78-0.48,0.91-1.02,1.17c-0.43-0.55-0.75-1.45-1.32-1.59c-3.24-0.84-6.51-0.06-9.76,0.15c-0.8,0.05-0.74,0.81-0.39,1.35
	C156.93,114.13,156.79,116.26,158.42,117.69z M192.75,159.54c-0.56-1.25-0.88-2.5-1.64-3.49c-0.94-1.23-1.4-3.81-3.12-3.3
	c-2.06,0.61-2.3,3.08-2.18,5.08c0.13,2.11,1.16,3.19,3.72,2.41C190.49,159.96,191.51,159.81,192.75,159.54z"/>
<path class="st2" d="M87.99,35.25C91.84,42.5,95.58,49.81,99.55,57c8.48,15.36,17.11,30.65,28.55,44.5
	c1.13,1.37,0.95,2.06-0.92,2.27c-0.95,0.11-1.56,0.71-2.32,1.03c-1.89,0.8-3.43,0.91-5.21-1.06C107.9,90.76,99.54,76.01,91.33,61.17
	c-3.2-5.78-6.31-11.6-9.51-17.37c-0.44-0.8-0.79-1.74-1.9-2.09C81.8,38.75,84.42,36.53,87.99,35.25z"/>
<path class="st3" d="M336.34,64.3c1.09,3.05,2.5,6.01,3.01,9.21c-1.46-0.36-2.82,0.14-4.19,0.4c-7.45,1.4-14.87,2.89-22.33,4.24
	c-7.08,1.28-7.09,1.22-9.83-4.82c0.96-2.26,3.81-2.58,5.42-4.17c1.33,0.96,2.65,0.87,3.97-0.03c1.38-0.2,2.8-0.29,4.14-0.63
	c5.99-1.54,12.36-1.7,18.1-4.1C335.19,64.36,335.77,64.33,336.34,64.3z"/>
<path class="st16" d="M308.41,69.15c-1.61,1.59-4.45,1.91-5.42,4.17c-0.49,0-0.98-0.01-1.47-0.01c-0.23-0.96-0.46-1.92-0.68-2.88
	c0.19-0.17,0.26-0.38,0.2-0.62c0.19-0.18,0.25-0.38,0.16-0.62c5.32-1.51,7.92-4.99,8.88-9.68c2.65-6.08,2.13-12.43,2.12-18.75
	c0-1.31-0.71-1.59-1.94-1.33c-2.65,0.57-2.83-0.35-2.03-2.33c1.3-3.22,2.36-6.53,3.77-10.51c2.48,3.46,4.71,6.57,7.05,9.83
	c0.43,0.6,0.12,1.42-0.58,1.66c-2.15,0.72-2.14,2.57-2.04,4.69c0.36,7.41-0.23,14.72-3.89,21.56
	C311.18,65.95,309.79,67.55,308.41,69.15z"/>
<path class="st4" d="M92.88,175c7.39,3.21,15.1,3.63,22.98,1.94c2.06-0.44,3.56-0.25,4.45,1.52c0.97,1.95,3.41,2.29,5.28,4.03
	c-10.41,2.04-20.28,1.59-30.03-1.4c-1.13-0.35-2.08-1.57-3.5-0.63C92.46,178.66,89.55,176.45,92.88,175z"/>
<path class="st16" d="M301.53,73.32c0.49,0,0.98,0.01,1.47,0.01c2.74,6.04,2.76,6.1,9.83,4.82c7.46-1.35,14.89-2.83,22.33-4.24
	c1.38-0.26,2.74-0.76,4.19-0.4c-0.14,1.85-1.91,1.59-3.16,1.85c-4.13,0.84-8.28,1.64-12.44,2.34c-2.12,0.36-2.64,0.95-1.77,2.94
	c1.99,4.57,2.43,9.34,1.01,14.16c-0.46-0.01-0.92-0.01-1.38-0.02c0-2.98,0.29-5.98-0.05-8.92c-0.79-6.93-1.48-7.28-8.99-5.85
	c-0.75,0.14-1.51,0.29-2.27,0.33c-2.82,0.16-2.65,1.44-1.59,3.16c1.24,2,2.74,3.94,3.56,6.08c1.6,4.16,3.78,8.4,0.8,12.83
	c-0.78-0.13-1.56-0.26-2.34-0.39c2.55-1.36,1.83-3.59,1.68-5.54c-0.32-4.1-2.54-7.59-4.59-11.18
	C305.57,81.38,302.22,77.89,301.53,73.32z"/>
<path class="st18" d="M245.07,22.21c14.95,2.94,36.97,23,38.79,38.2C277.01,42.72,263.35,30.61,245.07,22.21z"/>
<path class="st17" d="M184.95,153.7c-1.33,1.46,0.68,3.35-0.77,4.8c-0.28-1.21-0.32-2.39-1.46-3.42
	c-8.87-7.97-14.79-17.76-21.05-27.34c-0.79-1.2-1.72-2.37-0.52-3.78c0.33,0.07,0.66,0.14,0.99,0.21c0.45,1.06,0.76,2.19,1.37,3.17
	c4.48,7.17,9.28,14.18,14.81,20.74C180.11,150.24,181.44,153.07,184.95,153.7z"/>
<path class="st18" d="M165.6,56.02c0.34-11.72,2.62-22.92,11.13-32.45c-6.7,9.75-8.96,20.58-9.84,31.74
	c-0.22,0.25-0.45,0.5-0.67,0.75C166.01,56.02,165.8,56.01,165.6,56.02z"/>
<path class="st18" d="M171.89,88.66c-1.82-0.29-1.76,1.54-2.88,2.04c-2.1-8-3.35-16.09-3.41-24.31c0.4-0.02,0.8-0.03,1.2-0.05
	c0.87,6.32,1.7,12.64,2.65,18.96c0.15,1.02-0.4,2.8,2.03,2.38c0,0,0.27,0.22,0.27,0.22c0.01,0.24,0.02,0.48,0.03,0.72L171.89,88.66z
	"/>
<path class="st4" d="M96.57,164.66c2.58,0.22,5.15,0.46,7.39,1.78c0.04,0.02,0.01,0.18-0.04,0.25c-0.07,0.09-0.18,0.15-0.28,0.22
	c-1.1-0.14-1.72,0.27-1.8,1.28c-2.75,1.18-5.52,2.29-8.55,2.78c-0.01-2.23-0.01-4.47-0.02-6.7c0.28,0,0.55,0.01,0.83,0.01
	C94.73,165.4,95.63,165.15,96.57,164.66z"/>
<path class="st16" d="M313.91,65.19c6.44-0.6,12.48-2.65,18.64-4.23c1.02-0.18,2.05-0.35,3.07-0.53c0.38,0.13,0.75,0.25,1.13,0.38
	c-0.78,1.47-2.17,1.93-3.87,2.34c-3.75,0.89-7.74,0.96-11.28,2.55l0.05-0.03c-1.04,0.08-2.09,0.17-3.13,0.25
	C316.89,66.1,315.13,67.01,313.91,65.19z"/>
<path class="st16" d="M128.75,134.08c-1.41-0.14-3.05,0.34-2.85-1.84c0.21-2.21,1.1-3.06,3.78-3.06c2.58,0,2.55,1.17,2.7,2.75
	C132.67,134.86,130.06,133.57,128.75,134.08z"/>
<path class="st18" d="M191.79,88.23c-0.19,1.63-1.5,1.74-2.92,1.71c-4.3-4.13-9.16-5.33-14.84-2.26c0.01-0.4,0.02-0.8,0.02-1.2
	c0.03-0.19,0.05-0.39,0.06-0.59c6.3-2.66,9.86-2.21,15.02,2.14C190.15,88.89,190.78,89.38,191.79,88.23z"/>
<path class="st16" d="M140.05,127.33c2.19,0.06,2.18,1.83,2.31,2.95c0.32,2.79-2.68,1.97-4.16,2.36c-2.09,0.56-1.86-1.52-2.08-2.55
	C135.49,127.17,138.7,128.36,140.05,127.33z"/>
<path class="st17" d="M293.78,66.04c-0.31-0.35-0.62-0.69-0.93-1.04c3.71-5.25,9.04-6.24,15.35-4.66c0.07,0.52,0.18,1.06-0.54,1.32
	C301.69,59.74,297.79,63.01,293.78,66.04z"/>
<path class="st3" d="M313.91,65.19c1.22,1.82,2.98,0.91,4.6,0.73c0.02,0.29,0.03,0.58,0.05,0.86c-1.83,1.27-4.91-0.11-6.18,2.33
	c-1.31,0.91-2.63,1-3.97,0.03c1.38-1.6,2.76-3.21,4.14-4.81C313.01,64.63,313.46,64.91,313.91,65.19z"/>
<path class="st3" d="M321.59,65.7c3.55-1.59,7.53-1.66,11.28-2.55c1.7-0.4,3.1-0.87,3.87-2.34c0.71,1.24,0.61,2.41-0.41,3.49
	c-0.57,0.03-1.14,0.06-1.72,0.09C330.13,63.62,326.07,66.34,321.59,65.7z"/>
<path class="st18" d="M166.8,66.34c-0.4,0.02-0.8,0.03-1.2,0.05c0-3.45,0-6.91,0-10.36c0.2-0.01,0.41,0,0.61,0.03
	c0,0,0.26,0.07,0.26,0.07l0.27-0.04C166.76,59.51,166.78,62.92,166.8,66.34z"/>
<path class="st16" d="M144.56,185.57c0.01-0.41,0.02-0.82,0.03-1.24c3.6-0.01,7.19-0.02,10.79-0.03c0.01,0.4,0.02,0.8,0.04,1.2
	C151.8,185.93,148.18,185.87,144.56,185.57z"/>
<path class="st18" d="M158.47,91.35c-0.81,0.08-1.74-0.17-2.28,0.66c-1.04-0.05-2.08-0.11-3.12-0.16c-1.2-0.89-2.66-0.32-3.98-0.55
	C152.22,90.2,155.35,89.9,158.47,91.35z"/>
<path class="st17" d="M290.6,69.1c-1.18,1.37-1.37,0.37-1.61-0.53C289.46,68.92,289.91,69.3,290.6,69.1z"/>
<path class="st18" d="M171.48,87.67c0.35-0.65,0.91-1.08,1.67-1.31c0.09,0.09,0.18,0.18,0.27,0.27c-0.29,0.43-0.58,0.86-0.87,1.29
	c0,0,0.01-0.01,0.01-0.01c-0.27-0.01-0.54-0.02-0.81-0.03C171.75,87.89,171.48,87.67,171.48,87.67z"/>
<path class="st17" d="M192.72,86.54c-0.16,0.21-0.33,0.41-0.49,0.62C192.39,86.95,192.56,86.75,192.72,86.54z"/>
<path class="st18" d="M174.11,85.9c-0.01,0.2-0.03,0.39-0.06,0.59c-0.22,0.03-0.43,0.08-0.64,0.15c-0.09-0.09-0.18-0.18-0.27-0.28
	C173.47,86.2,173.79,86.05,174.11,85.9z"/>
<path class="st18" d="M166.75,56.09c0,0-0.27,0.04-0.27,0.04s-0.26-0.07-0.26-0.07c0.22-0.25,0.45-0.5,0.67-0.75
	C166.84,55.57,166.79,55.83,166.75,56.09z"/>
<path class="st2" d="M264.42,80.49c1.87-2.74,3.65-5.54,5.65-8.21c2.83-3.78,6.22-6.84,12-6.14c1.59,0.19,3.03,0.62,4.16,1.65
	c0.6,0.55,1.53,1.07,1.17,2.01c-0.33,0.84-1.3,0.56-2.02,0.65c-2.4,0.3-4.08,1.28-5.68,3.06c-5.06,5.63-7.27,12.42-10.07,18.93
	c-4.47,10.41-8.88,20.83-13.83,31.08c-4.44,9.19-9.52,18.07-15.08,26.74c-0.62,0.96-1.47,1.79-2.28,2.75c-2.68-3.25-2.41-6-0.6-9.39
	c9.7-18.07,17.86-36.7,23.83-56.05c0.54-1.75,2.01-3.27,1.7-5.24C263.71,81.71,264.07,81.1,264.42,80.49z"/>
<path class="st2" d="M201.8,122.6c0.44-13.86-0.46-26.49,3-38.83c1.72-6.14,9.22-9.29,15.56-6.69c1.52,0.62,3.83,1.13,3.02,3.3
	c-0.66,1.77-0.68,4.16-4.19,3.99c-3.56-0.18-5.74,1.9-6.76,4.78c-1.61,4.55-1.88,9.25-1.77,14c0.37,16.39-0.38,32.75-1.55,49.1
	c-0.14,1.89-0.35,3.61-3.04,3.54c-2.73-0.07-2.69-1.94-2.78-3.74C202.8,141.79,202.26,131.54,201.8,122.6z"/>
<path class="st2" d="M221.82,154.22c-0.87,0.24-2.5,2.04-1.92-0.73c0.19-0.88,0.5-1.73,0.76-2.6c3.55-9.63,5.75-19.54,7.8-29.48
	c2.76-13.35,5.9-26.6,10.49-39.58c1.38-3.92,3.82-6.98,7.04-9.68c2.3-1.92,6.95-1.98,9.37-0.16c1.24,0.94,2.27,2.09,3.74,3.47
	c-4.26,0.78-8.24,1.49-9.67,5.48c-0.73,1.06-2.13,1.91-1.33,3.43c-0.08,0.24-0.16,0.48-0.23,0.71c-0.21,0.02-0.33,0.13-0.36,0.31
	c-3,4.66-3.37,10.03-5.04,15.05c-3.91,11.75-5.87,23.96-10.94,35.45C228.74,142.23,225.62,148.36,221.82,154.22z"/>
<path class="st2" d="M174.03,87.68c5.68-3.06,10.54-1.87,14.84,2.26c-0.16,1.62-1.31,2.1-2.93,1.99c-4.21-0.28-5.19,2.32-5.63,5.19
	c-0.51,3.34,0.02,6.69,0.91,9.9c4.61,16.68,10.16,33.12,16.39,49.38c-0.09,0.94-0.18,1.89-0.26,2.83c-1.31,0.18-2.21-0.31-2.9-1.28
	c-4.85-6.81-8.08-14.31-11.7-21.65c-3.88-7.88-7.26-15.92-10.25-24.08c-2.27-6.17-4.31-12.46-2.58-19.17
	c0.42-1.62,1.88-2.74,1.98-4.39c0,0-0.11-0.06-0.11-0.06c0.72,0.18,1.08,0.04,0.78-0.69c0,0-0.01,0.01-0.01,0.01
	C173.15,88.39,173.56,87.88,174.03,87.68z"/>
<path class="st2" d="M219.21,150.9c-1.93-1.52-0.39-3.31-0.47-4.98c-0.07-1.35,0.08-2.71,0.14-4.06c0.9-15.78,1.81-31.55,2.7-47.33
	c0.28-4.9,1.82-9.54,3.71-14.07c1.84-4.39,7.47-5.82,11.9-3.41c1.07,0.58,1.55,1.17,1.03,2.22c-1.57,3.14-1.84,6.65-3.97,9.68
	c-2.88,4.09-3.39,8.93-4.03,13.59c-2.23,16.15-6.3,31.95-10.88,47.67C219.27,150.44,219.25,150.67,219.21,150.9z"/>
<path class="st2" d="M226.81,154.91c-1.17-0.06-2.6,1.12-3.43-0.58c6.86-8.96,10.73-19.08,13.93-29.39
	c3.02-9.75,5.52-19.62,10.55-28.78c0.56-1.02,0.99-2.07,2.13-2.77c1.79-1.1,4.1-1.78,5.79-1.16c1.48,0.55,0.35,2.68,0.24,4.11
	c-0.61,7.26-4.17,13.76-7.06,20.37c-4.54,10.38-9.36,20.68-14.8,30.72C232.48,150.53,229.69,152.76,226.81,154.91z"/>
<path class="st2" d="M307.66,61.66c-1.25,2.9-2.78,5.45-6.64,6.3c-1.66,0.36-1.6,1.56-0.17,2.48c0.23,0.96,0.46,1.92,0.68,2.88
	c0.69,4.58,4.04,8.06,6.29,11.99c2.05,3.59,4.28,7.08,4.59,11.18c0.15,1.96,0.87,4.18-1.68,5.54c-5.11-5.01-9.74-10.39-13.99-15.97
	c-4.64-6.09-7.16-12.74-2.96-20.02C297.79,63.01,301.69,59.74,307.66,61.66z"/>
<path class="st4" d="M233.08,166.11c-6.36,3.27-13.07,5.73-20.36,6.7c-4.95,0.66-9.77,0.34-14.58-2.29
	c10.19-4.01,18.65-10.49,29.44-12.77c0.89-0.19,1.14-0.87,1.72-1.28c4.88,0.31,10.07-0.85,14.28,2.49c0.62,0.5,1.98,0.55,1.71,1.54
	c-0.13,0.49-1.08,0.89-1.75,1.18C240.08,163.19,236.57,164.64,233.08,166.11z"/>
<path class="st2" d="M216.2,154.33c-0.1,0.46-0.19,0.92-0.29,1.38c-3.94,1.33-4.95,0.64-4.81-3.34c0.48-13.24,1.01-26.48,1.43-39.72
	c0.1-2.99,0.08-6.01-0.28-8.98c-0.54-4.44,3.53-3.41,5.77-3.66c3.17-0.34,1.34,2.12,1.29,3.22c-0.65,13.11-1.45,26.22-2.21,39.33
	c-0.08,2.1-0.16,4.19-0.24,6.29C216.64,150.68,216.42,152.5,216.2,154.33z"/>
<path class="st2" d="M201.26,156.39c-0.78,1.53-1.53,1.06-2.27-0.03c-2.89-8.31-5.88-16.6-8.63-24.95
	c-2.45-7.44-4.63-14.94-6.92-22.42c3.05,0.05,6.15-3.81,8.33-2.48c4.2,14.76,8.31,28.89,9.53,44.17
	C201.44,152.58,201.28,154.49,201.26,156.39z"/>
<path class="st26" d="M298.67,91.21c6.03,7.05,12.01,13.37,17.08,20.22c3.35,4.53,6.29,9.67,4.19,15.56
	c-0.37,1.04-1.25,3.19-2.61,0.82c-3.91-6.85-11.13-11.4-15.3-18.08C298.48,104.03,295.95,98.36,298.67,91.21z"/>
<path class="st4" d="M252.51,169.77c-6.47,0.62-12.91,0.83-19.49-0.68c0.65-0.87,1.17-1.55,1.68-2.24
	c6.35-2.52,12.67-5.09,19.06-7.54c5.33-2.04,10.81-1.76,16.27-0.42c1.64,0.41,3.54,1.16,3.81,2.62c0.29,1.56-1.91,1.9-3.16,2.52
	c-2.35,1.17-4.85,2.13-7.28,3.17c-1.04-0.32-1.03,0.72-1.61,0.99C258.71,168.72,255.61,169.24,252.51,169.77z"/>
<path class="st2" d="M202.67,84.15c-3.44,15.85-2.1,31.89-2.78,47.96c-1.38-5.11-2.84-10.2-4.13-15.33c-2-7.94-4.7-15.78-3.85-24.11
	C192.51,86.81,196.73,83.35,202.67,84.15z"/>
<path class="st12" d="M285.21,159.46c0.49-0.05,0.97-0.09,1.46-0.14c1.77-0.17,3.55-0.34,5.32-0.5c3.73,0.3,4.05,1.98,2.33,4.53
	c-1.94,2.89-3.32,6.24-7.62,7.12c-1.64,0.32-3.27,0.73-4.92,0.95c-7.01,0.94-14.05,2.05-20.78-1.13c5.99-1.94,11.25-5.02,16.36-8.33
	C279.97,161.13,282.59,160.29,285.21,159.46z"/>
<path class="st4" d="M256.27,175.17c1.88,1.83,3.75,3.65,5.97,5.81c-5.3,1.76-10.34,1.17-15.33,0.22c-6.88-1.31-13.05-4-18.4-8.09
	c-0.72-0.55-1.91-1.26-1.28-2.24c0.58-0.9,1.9-1.33,3.06-0.95c7.52,2.49,15.3,1.73,23.03,1.57c0,0,0.11,0.13,0.11,0.13
	c0.19,0.27,0.39,0.55,0.58,0.82C254.54,173.5,255.22,174.46,256.27,175.17z"/>
<path class="st13" d="M296.22,175.7c-1.39-0.29-3.28-0.6-5.1-1.11c-1.11-0.31-2.22-0.97-2.2-2.15c0.03-1.37,1.55-1.29,2.55-1.67
	c0.23-0.09,0.51-0.1,0.76-0.09c7.82,0.52,12.29-3.51,15.67-9.09c0.46-0.77,0.92-1.73,2.24-1.61c3.33,0.31,6.33-0.54,9.27-1.89
	c1.75-0.8,1.85,0.18,1.66,1.48c-0.54,3.76-3.11,6.66-5.9,9.01C310.1,172.85,303.71,175.02,296.22,175.7z"/>
<path class="st26" d="M322.59,98.16c3.83,3.98,4.64,8.59,5.48,13.21c0.93,5.11,0.14,10.11-1.2,15.06c-0.38,1.41-1.31,2.74-2.23,3.97
	c-1.06,1.41-2.74,3.23-4.51,2.24c-2.19-1.22,0.14-2.77,0.89-4.1c1.68-2.96,1.29-6.04,0.6-9.12c-0.15-0.67-0.66-1.3-0.71-1.97
	c-0.24-3.44-5.08-5.7-3.16-9.66C319.26,104.68,320.86,101.59,322.59,98.16z"/>
<path class="st12" d="M292.27,177.2c-3.1,3.33-7.59,3.33-11.82,3.86c-8.96,1.13-17.1-0.04-23.13-6.84
	c-0.38-1.02-2.41-1.81-1.29-2.88c1.15-1.11,2.85-0.28,4.24,0.35c2.94,1.65,6.21,2.02,9.6,2.21c5.72,0.31,11.23-1,16.84-1.58
	C287.17,175.18,290.03,175.91,292.27,177.2z"/>
<path class="st13" d="M311.35,152.55c0.28-7.6-1.68-14.7-4.13-21.74c-0.92-2.66-0.93-5.44,0.4-8.09c0.83-1.65,1.62-2.1,3.27-0.48
	c7.75,7.62,9.33,16.36,5.94,25.93C316.08,150.31,314.62,152.3,311.35,152.55z"/>
<path class="st2" d="M313.07,102.41c2.98-4.43,0.8-8.67-0.8-12.83c-0.82-2.14-2.32-4.07-3.56-6.08c-1.06-1.72-1.23-3,1.59-3.16
	c0.76-0.04,1.52-0.19,2.27-0.33c7.52-1.43,8.2-1.08,8.99,5.85c0.34,2.94,0.05,5.95,0.05,8.92c-1.33,3.19-2.65,6.39-3.99,9.58
	c-0.47,1.13-0.68,2.95-2.21,2.79c-1.67-0.18-2.49-1.77-2.53-3.38C312.87,103.31,313,102.86,313.07,102.41z"/>
<path class="st13" d="M292.9,169.35c5.73-7.36,4.86-15.93,9.62-22.76c1.47-2.12,2.92-5.29,5.62-5c1.72,0.18,1.18,3.85,1.23,5.97
	c0.21,7.78-1.77,14.75-9.19,19.83C298.28,168.69,296.35,168.89,292.9,169.35z"/>
<path class="st13" d="M327.49,130.01c1.62,6.69,0.55,12.46-1.69,18.01c-2.16,5.33-6.46,8.97-12.75,10.41
	c-1.02,0.23-2.52,0.64-3.08-0.59c-0.58-1.27-0.01-3.01,1.22-3.32c8.35-2.11,8.04-8.41,8.91-14.15c0.14-0.9,0.16-1.86,0-2.76
	c-0.31-1.74,0.27-2.76,2.26-3.35C324.45,133.65,325.95,132.19,327.49,130.01z"/>
<path class="st2" d="M295.25,94.04c0.3,3.05,0.61,6.11,0.94,9.47c-6.32-1.21-9.84-5.02-12.59-9.65c-0.12-0.19-0.08-0.46-0.17-0.67
	c-0.83-1.97-3.5-4.41-2.05-5.77c1.82-1.7,5.31-1.96,8.33-1.59C290.75,89,292.69,91.68,295.25,94.04z"/>
<path class="st3" d="M274.53,86.52c0.54-4.23,2.3-6.89,7.23-7.11c1.9-0.09,3.87-0.51,5.62-1.16c2.68-1,3.66-0.41,4.31,2.13
	c0.7,2.8-1.03,2.98-3.18,3.37C283.89,84.6,279.3,85.57,274.53,86.52z"/>
<path class="st16" d="M247.51,85.42c0.03-0.19,0.15-0.29,0.36-0.31c0.62-0.1,0.84-0.3,0.23-0.71c-0.8-1.53,0.6-2.38,1.33-3.43
	c0.38,0,0.77,0,1.15,0.01c0.83,1.96,2.42,0.62,3.49,0.45c3.09-0.48,6.12-1.27,9.17-1.93c0.39,0.33,0.78,0.67,1.17,1
	c-0.35,0.61-0.7,1.23-1.05,1.84c-1.64-0.1-2.49,0.5-2.3,2.04c-4.41,0.91-8.82,1.83-13.23,2.74
	C247.72,86.54,247.62,85.98,247.51,85.42z"/>
<path class="st3" d="M189.58,95.52c1.5,5.55,0.35,7.45-5.76,9.67c-0.97,0.35-1.6,0.11-1.56-0.75c0.14-2.57-1.44-5.19,0.32-7.7
	c1.53-0.55,3.48,0.17,4.74-1.23l-0.08,0.03C188.02,95.53,188.8,95.52,189.58,95.52z"/>
<path class="st3" d="M247.83,87.1c4.41-0.91,8.82-1.83,13.23-2.74c-0.48,3.65-2.46,5.86-6.85,6.18c-2.36,0.17-4.68,0.78-7.05,1.2
	C246.46,90.04,248.12,88.68,247.83,87.1z"/>
<path class="st4" d="M242.2,155.36c5.02-2.68,9.54-2.5,13.89,0.56C246.78,161.45,247.65,160.18,242.2,155.36z"/>
<path class="st16" d="M286.7,172.3c-5.61,0.58-11.11,1.89-16.84,1.58c-3.39-0.18-6.66-0.56-9.6-2.21c0.24-0.46,0.49-0.93,0.73-1.39
	c6.74,3.18,13.77,2.07,20.78,1.13c1.66-0.22,3.28-0.63,4.92-0.95C286.7,171.08,286.7,171.69,286.7,172.3z"/>
<path class="st12" d="M276.61,160.82c-1.53-0.47-3.37-1.68-3.07-2.63c0.46-1.46,2.57-2,4.44-1.95c2.21,0.05,4.8-0.54,5.63,2.26
	C281.07,158.79,278.82,159.74,276.61,160.82z"/>
<path class="st13" d="M306.37,133.96c2.45,3.88,0.89,6.45-2.94,8.32C301.81,138.95,302.79,136.07,306.37,133.96z"/>
<path class="st3" d="M263.25,79.48c-3.05,0.67-6.08,1.46-9.17,1.93c-1.07,0.16-2.66,1.51-3.49-0.45c3.56-2.64,8.13-2.51,12.29-3.29
	C265.25,77.23,263.88,78.71,263.25,79.48z"/>
<path class="st3" d="M280.23,76.18c2.13-2.8,5.37-3.17,8.21-4.27c0.71-0.28,1.57-0.44,1.88,0.49c0.31,0.93-0.19,1.58-1.22,1.81
	C286.15,74.89,283.19,75.52,280.23,76.18z"/>
<path class="st13" d="M297.56,152.95c-0.88,1.87-0.12,4.06-2.16,4.73c-1.74,0.57-3.24-1.46-5.81-1.21
	C292.08,154.42,294.41,153.55,297.56,152.95z"/>
<path class="st3" d="M219.1,88.54c2.7,0.81,2,1.83,0.06,2.59c-1.85,0.72-3.83,1.15-6.13,1.82c0.08-1.67,0.53-2.66,2.12-3.06
	c2.41,0.01,0.47-1.38,0.82-2.03c0.27-0.11,0.53-0.21,0.8-0.32C217.07,88.77,218.11,88.62,219.1,88.54z"/>
<path class="st15" d="M230.15,154.99c1.85-1.88,3-3.06,4.28-4.36c1.32,1.05,2.1,2.58,1.39,3.62
	C234.85,155.66,232.79,154.72,230.15,154.99z"/>
<path class="st3" d="M214.22,99.02c-1.04,0.04-2.35-0.11-1.89-0.78c1.36-1.96,4.18-1.77,6.27-2.72c0.84-0.38,1.49-0.07,1.27,0.92
	C219.16,99.61,215.63,97.64,214.22,99.02z"/>
<path class="st26" d="M305.31,122.66c-1.47-1.84-2.11-3.64-0.46-5.22c0.87-0.83,1.65,0.3,2.09,0.85
	C308.8,120.61,305.54,121.07,305.31,122.66z"/>
<path class="st16" d="M291.28,85.79c1.32,2.25,2.29,4.71,4.73,6.29c-0.25,0.65-0.5,1.31-0.75,1.96c-2.56-2.35-4.51-5.04-5.53-8.22
	C290.24,85.81,290.76,85.8,291.28,85.79z"/>
<path class="st16" d="M276.61,160.82c2.2-1.09,4.46-2.04,7-2.32c0.76,0.02,1.32,0.29,1.6,0.95c-2.62,0.83-5.23,1.67-7.85,2.5
	C277.11,161.58,276.86,161.2,276.61,160.82z"/>
<path class="st3" d="M182.61,95.47c1.41-1.58,3.8-1.31,5.59-2.39c1.6-0.96,1.48,0.7,1.38,1.69c-0.82,0.17-1.82-0.12-2.34,0.76
	c0,0,0.08-0.03,0.08-0.03C185.75,95.49,184.18,95.48,182.61,95.47z"/>
<path class="st3" d="M219.1,88.54c-0.99,0.07-2.03,0.23-2.33-1c1.37-0.51,2.74-1,4.26-0.7C221.24,88.26,219.41,87.67,219.1,88.54z"
	/>
<path class="st18" d="M291.99,158.82c-1.77,0.17-3.55,0.34-5.32,0.5C288.3,157.93,290.15,158.46,291.99,158.82z"/>
<path class="st17" d="M182.61,95.47c1.57,0.01,3.13,0.02,4.7,0.03c-1.26,1.4-3.21,0.67-4.74,1.23
	C182.59,96.31,182.6,95.89,182.61,95.47z"/>
<path class="st3" d="M215.97,87.86c-0.35,0.65,1.59,2.04-0.82,2.03C214.95,89.06,213.58,87.85,215.97,87.86z"/>
<path class="st17" d="M261.8,168.19c0.58-0.27,0.57-1.32,1.61-0.99C263.31,168.09,262.63,168.24,261.8,168.19z"/>
<path class="st17" d="M187.24,95.53c0.52-0.88,1.53-0.59,2.34-0.76c0,0.25,0,0.5,0,0.75C188.8,95.52,188.02,95.53,187.24,95.53z"/>
<path class="st17" d="M254.02,172.45c-0.19-0.27-0.39-0.55-0.58-0.82C253.63,171.9,253.82,172.17,254.02,172.45z"/>
<path class="st4" d="M133.67,177.83c-3.25,0.15-5.57-1.82-9.09-2.91c6.48-2.36,12.5-4.06,17.97-6.66c5.89-2.81,12.08-3.8,18.52-4.19
	c3.62-0.22,7.19,0.25,11.32,1.8c-10.96,4.74-21.09,9.81-32.62,11.98C137.74,177.84,135.7,177.84,133.67,177.83z"/>
<path class="st4" d="M93.54,173.42c1.19-1.37,2.81-1.57,4.22-1.97c7.9-2.24,14.99-6.62,23.66-6.89c4.85-0.15,9.56,0.18,14.13,1.62
	c0.9,0.28,2.23,0.36,2.26,1.54c0.02,1.01-1.16,1.15-1.95,1.42c-7.95,2.71-15.68,6.02-24.27,6.96
	C105.29,176.8,99.31,176.17,93.54,173.42z"/>
<path class="st4" d="M195.78,161.05c1.04,0.01,2.08,0.01,3.12,0.02c2.75,0.56,5.51,1.12,8.26,1.68c0.49,0.1,1.02,0.16,1.25,1.1
	c-13.66,5.8-26.78,13.99-43.4,7.26c7.61-3.04,15.22-6.08,22.84-9.13c2.15-0.32,4.3-0.63,6.45-0.95
	C194.79,161.03,195.28,161.04,195.78,161.05z"/>
<path class="st4" d="M192.87,172.45c1.3-0.74,2.52-1.56,4.18-0.65c8.06,4.42,16.37,3.17,24.6,0.61c2.14-0.67,3.46-0.81,4.87,1.02
	c1.39,1.81,3.53,3,5.66,4.12c1.4,0.74,1.51,1.53-0.02,2.23C221.08,184.85,201.18,182.89,192.87,172.45z"/>
<path class="st4" d="M198.71,180.32c-4.64,2.79-9.72,3.49-15.04,3.21c-8.56-0.45-16.45-2.42-22.5-8.26c-0.6-0.58-2.1-1.12-1.13-2.15
	c0.66-0.7,1.87-1.56,3.06-0.84c8.42,5.05,17.18,3.66,25.99,1.15c1.02-0.29,1.72-0.15,2.42,0.47
	C193.84,175.99,196.18,178.07,198.71,180.32z"/>
<path class="st4" d="M155.38,184.3c-3.6,0.01-7.19,0.02-10.79,0.03c-4.84-0.64-9.7-1.18-14.44-2.37c-3.84-0.96-7.13-2.47-9.42-6.08
	c3.5-0.39,5.72,1.79,8.34,2.7c1.52,0.53,2.81,1.58,4.61,1.33c2.33,0.09,4.66,0.23,6.96-0.23c4.8-0.45,8.95-2.56,13.17-4.35
	c2.63-1.11,4.25-1.04,6.23,1.03c1.61,1.68,3.11,3.63,5.92,4.66C162.67,183.45,158.76,183.21,155.38,184.3z"/>
<path class="st4" d="M99.09,162.86c3.75-3.8,12.44-3.82,18.29,0.15C111.12,165.74,105.1,166.02,99.09,162.86z"/>
<path class="st4" d="M181.69,162.57c-6.28,4.49-11.97-0.16-18-0.1C167.44,158.29,175.42,158.37,181.69,162.57z"/>
<path class="st4" d="M150.29,163.46c-9.25,3.35-9.25,3.35-17.15,0.08C139.09,159.84,145.04,159.74,150.29,163.46z"/>
<path class="st18" d="M140.64,179.68c-2.3,0.46-4.63,0.32-6.96,0.23c0-0.69-0.01-1.39-0.01-2.08c2.04,0,4.08,0.01,6.11,0.01
	C140.68,178.23,140.69,178.94,140.64,179.68z"/>
<path class="st18" d="M216.2,154.33c0.22-1.83,0.44-3.65,0.65-5.48C217.57,150.77,218.83,152.73,216.2,154.33z"/>
<path class="st19" d="M101.83,168.19c0.08-1.01,0.7-1.42,1.8-1.28C103.61,167.98,102.78,168.16,101.83,168.19z"/>
<path class="st19" d="M96.57,164.66c-0.94,0.49-1.84,0.74-2.48-0.37C94.95,164.21,95.84,164,96.57,164.66z"/>
<path class="st2" d="M162.12,124.18c2.85-1.92,6.12-3.14,9.29-4.53c4.2,5.41,7.14,11.36,9.8,17.47c1.12,2.57,2.47,5.06,3.77,7.57
	c1.58,3.02,3,6.02-0.04,9.01c-3.5-0.64-4.83-3.46-6.64-5.6c-5.53-6.56-10.33-13.57-14.81-20.74
	C162.88,126.37,162.57,125.24,162.12,124.18z"/>
<path class="st2" d="M153.07,91.84c1.04,0.05,2.08,0.11,3.12,0.16c2.47,0.88,3.8,2.83,5.57,4.37c-0.84,1.03-1.92,1.02-2.9,1.13
	c-4.86,0.54-7.98,2.99-9.59,7.01c-1.79,4.46-5.28,7.84-8.99,11.01c-2.49,2.13-6.71,1.77-10.72-0.8c6.59-1.98,8.39-6.96,10.45-11.94
	C142.27,97.31,146.03,92.94,153.07,91.84z"/>
<path class="st3" d="M132.12,105.25c1.46-0.56,3.1-2.3,4.41-1.18c1.4,1.2-0.2,2.91-0.91,4.31c-1.05,2.07-2.78,3.03-5.38,3.27
	c-5.16,0.49-5.73,1.62-2.79,5.23c1.56,1.92,1.76,2.86-1.44,2.99c-4.43,0.19-8.77,0.09-12.81-1.72c-3.25-1.46-3.59-3.29-1.24-5.76
	c2.06-2.17,4.75-3.38,7.7-4.24c0.01,0.35,0.02,0.7,0.03,1.05c-1.26,0.74-2.54,1.45-3.77,2.21c-2.41,1.49-2.28,4.38,0.37,5.34
	c1.62,0.59,3.39,1.32,6.15,0.47c-1.61-0.47-2.44-0.69-3.24-0.96c-1.25-0.41-3-0.18-3.23-1.92c-0.22-1.65,1.36-2.1,2.49-2.73
	c1.93-1.07,3.97-1.98,5.96-2.96c0,0-0.03,0.02-0.03,0.02c2.59-0.5,5.2-0.94,7.75-1.55c0.92-0.22,0.44-0.86,0-1.31
	C132.11,105.64,132.12,105.44,132.12,105.25z"/>
<path class="st3" d="M167.79,100.41c0.06,0.57,0.09,1.15,0.18,1.71c1.02,6.11,1.03,6.21-5.7,6.93c-4.53,0.49-9.1,0.63-14.7,0.99
	c3.24-2.56,2.23-6.57,6.24-7.8C158.54,102.04,162.93,99.82,167.79,100.41z"/>
<path class="st2" d="M158.42,117.69c-1.63-1.43-1.49-3.56-2.58-5.2c-0.35-0.53-0.41-1.3,0.39-1.35c3.25-0.21,6.52-0.99,9.76-0.15
	c0.57,0.15,0.89,1.04,1.32,1.59C164.63,114.66,162.12,117,158.42,117.69z"/>
<path class="st15" d="M192.75,159.54c-1.24,0.27-2.26,0.41-3.21,0.7c-2.56,0.78-3.59-0.3-3.72-2.41c-0.12-2,0.12-4.47,2.18-5.08
	c1.71-0.51,2.17,2.07,3.12,3.3C191.87,157.05,192.19,158.3,192.75,159.54z"/>
<path class="st20" d="M167.79,100.41c-4.86-0.59-9.26,1.63-13.98,1.84c0.13-0.4,0.27-0.81,0.4-1.21c4.28-0.7,8.56-1.4,12.84-2.1
	C167.3,99.43,167.55,99.92,167.79,100.41z"/>
<path class="st3" d="M119.67,109.21c-0.01-0.35-0.02-0.7-0.03-1.05c3.36-1.44,6.97-2.11,10.61-2.65c0.12,0.17,0.26,0.32,0.4,0.48
	c-1.66,1.7-5.03,0.26-6.29,2.7c0,0,0.03-0.02,0.03-0.02C122.67,107.81,121.3,109.46,119.67,109.21z"/>
<path class="st3" d="M167.05,98.93c-4.28,0.7-8.56,1.4-12.84,2.1c3.77-2.44,8.3-2.42,12.62-3.05
	C166.85,97.98,166.98,98.6,167.05,98.93z"/>
<path class="st17" d="M195.78,161.05c-0.5-0.01-1-0.01-1.49-0.02C194.8,160.5,195.29,160.54,195.78,161.05z"/>
<path class="st3" d="M132.12,105.25c-0.01,0.19-0.01,0.39-0.01,0.58c-0.49,0.05-0.98,0.1-1.46,0.15c-0.14-0.15-0.27-0.31-0.4-0.48
	C130.88,105.42,131.5,105.34,132.12,105.25z"/>
<path class="st20" d="M321.59,65.7c4.48,0.64,8.53-2.08,13.03-1.31c-5.74,2.39-12.11,2.56-18.1,4.1c-1.34,0.34-2.76,0.43-4.14,0.63
	c1.27-2.44,4.35-1.06,6.18-2.33c0.95-0.54,2.47,0.17,3.08-1.12L321.59,65.7z"/>
<path class="st24" d="M301.05,69.82c-0.03-0.16-0.09-0.32-0.09-0.48c0-0.05,0.16-0.09,0.25-0.14
	C301.3,69.44,301.24,69.65,301.05,69.82z"/>
<path class="st18" d="M172.55,87.92c0.3,0.73-0.06,0.87-0.78,0.69c-0.01-0.24-0.02-0.48-0.03-0.72
	C172.02,87.9,172.29,87.91,172.55,87.92z"/>
<path class="st3" d="M321.64,65.67c-0.61,1.29-2.13,0.57-3.08,1.12c-0.02-0.29-0.03-0.58-0.05-0.86
	C319.56,65.84,320.6,65.76,321.64,65.67z"/>
<path class="st18" d="M174.03,87.68c-0.47,0.2-0.88,0.71-1.49,0.24c0.29-0.43,0.58-0.86,0.87-1.29c0.21-0.07,0.42-0.12,0.64-0.15
	C174.05,86.88,174.04,87.28,174.03,87.68z"/>
<path class="st18" d="M248.1,84.39c0.61,0.42,0.39,0.62-0.23,0.71C247.94,84.87,248.02,84.63,248.1,84.39z"/>
<path class="st20" d="M119.67,109.21c1.64,0.26,3-1.4,4.72-0.54c-1.99,0.98-4.03,1.89-5.96,2.96c-1.14,0.63-2.71,1.08-2.49,2.73
	c0.23,1.74,1.98,1.52,3.23,1.92c0.81,0.26,1.63,0.48,3.24,0.96c-2.76,0.85-4.53,0.12-6.15-0.47c-2.65-0.96-2.77-3.85-0.37-5.34
	C117.13,110.65,118.41,109.94,119.67,109.21z"/>
<path class="st20" d="M130.65,105.98c0.49-0.05,0.98-0.1,1.46-0.15c0.44,0.45,0.91,1.09,0,1.31c-2.56,0.61-5.16,1.04-7.75,1.55
	C125.63,106.25,128.99,107.68,130.65,105.98z"/>
<text transform="matrix(0.929 0 0 1 155.6046 19.9417)" class="st28 st29">3 mũi nửa kép chưa hoàn chỉnh</text>
</svg>
