<?xml version="1.0" encoding="UTF-8"?>
<svg id="Layer_1" data-name="Layer 1" xmlns="http://www.w3.org/2000/svg" viewBox="0 0 414 200">
  <defs>
    <style>
      .cls-1 {
        fill: #231f20;
        font-family: MyriadPro-Regular, 'Myriad Pro';
        font-size: 17px;
      }

      .cls-2 {
        fill: #f7b7d3;
      }

      .cls-3 {
        fill: #f7f6f5;
      }

      .cls-4 {
        fill: #00b1e7;
      }

      .cls-5 {
        fill: #fff9b8;
      }

      .cls-6 {
        fill: #fff200;
      }

      .cls-7 {
        fill: #fbb040;
      }

      .cls-8 {
        fill: #9ed2f1;
      }

      .cls-9 {
        fill: #9e968d;
      }

      .cls-10 {
        fill: #b9ac97;
      }

      .cls-11 {
        fill: #dedad1;
      }

      .cls-12 {
        fill: #6e665e;
      }

      .cls-13 {
        fill: #46403a;
      }

      .cls-14 {
        fill: #898888;
      }

      .cls-15 {
        fill: #47423e;
      }

      .cls-16 {
        fill: #3b3635;
      }

      .cls-17 {
        fill: #4e4944;
      }

      .cls-18 {
        fill: #514e4e;
      }
    </style>
  </defs>
  <path class="cls-13" d="M249.57,75.6c.66,1.45,1.31,2.9,1.97,4.35,.2,.15,.4,.31,.59,.46,0,.31,0,.61,0,.92-3.68,1.17-.56,4.17-1.91,5.65,4.12,1.48,8.04,2.44,11.53,4.25,3.84,1.99,4.87,5.94,4.8,10.21,.29,0,.58-.01,.87-.02,.46-2.11,.91-4.22,1.37-6.33-.07-.58-.14-1.16-.21-1.74-.14-.52-.29-1.04-.43-1.55,.37-.07,.74-.14,1.11-.21l2.32,1.77c-.53,.68-1.06,1.35-1.59,2.03,.02,.07,.08,.15,.07,.22-.03,.14-.1,.28-.15,.41-.01,.33-.02,.66-.04,1-.16,.95-.15,1.97-.52,2.84-1.09,2.6-.31,4.91,1.32,6.8,3.04,3.53,3.96,7.62,3.3,12-.36,2.34,.39,3.67,2.44,5.1,.65-2,1.25-3.83,1.84-5.66,.11-.63,.22-1.26,.33-1.9,.35-5.96-1.41-11.48-3.49-16.93,.41,0,.82-.01,1.23-.02,.43,1.25,.86,2.5,1.29,3.74,.15,.33,.3,.65,.45,.98,0,0,0,0,0,0,.08,.37,.16,.74,.24,1.1,.13,.37,.27,.75,.4,1.13,.11,.44,.22,.89,.34,1.33,.16,.07,.19,.18,.09,.33,.17,.85,.35,1.71,.52,2.56,.04,.66,.09,1.31,.13,1.97,.13,.52,.27,1.04,.4,1.56,.17,.06,.23,.18,.18,.36,.22,.28,.43,.56,.65,.84,0,0,.01,.02,.01,.02,.18,.2,.35,.41,.53,.61l.16,.07s.01,.17,.01,.17c-.04,.5-.08,1-.11,1.5l-.1,.09c-.47-.38-.94-.76-1.39-1.12-.45,1.69-.84,3.18-1.24,4.66-.07,.2-.14,.39-.21,.59-.28,1.64-1.31,3.66-.71,4.85,3.08,6.15,3.12,11.98-.67,17.77-.29,1.79-.58,3.58-.87,5.37l1,.32c.65-.76,1.29-1.52,1.94-2.28,3.78-4.46,5.4-9.73,5.76-15.47,.22,1.63,.44,3.25,.66,4.88-.07,1.53-.14,3.07-.21,4.6-.54,.76-1.08,1.53-1.63,2.29-1.85,2.34-3.77,4.64-5.54,7.04-.83,1.13-1.75,2.41-1.95,3.72-.9,5.7-3.49,9.83-9.31,11.51-.71,.21-1.18,1.27-1.76,1.94-.5-.02-1-.04-1.5-.06,.08-.38,.15-.77,.23-1.15,.11-.23,.23-.46,.34-.68l-.04,.06c.21-.68,.42-1.36,.62-2.04,.32-2.95,.64-5.9,1-9.18-3.84,.51-5,3.73-7.31,5.4-.31-.78-.62-1.56-.93-2.35-.91-5.52,2.55-8.95,6.03-12.22,3.46-3.25,3.71-3.88,1.35-8.07-.15-.32-.3-.65-.45-.97-.06-.21-.13-.42-.19-.63,.22-.6,.44-1.19,.66-1.79,.48,1.14,.97,2.29,1.49,3.52,3.54-3.86,1.02-6.45-.74-9.42-.35,.59-.54,.92-.73,1.25-.37-.02-.75-.04-1.12-.05,.06-.4,.12-.8,.18-1.19,.08-.21,.16-.42,.24-.63-.8-3.26-1.6-6.52-2.4-9.77,.22-.47,.44-.95,.66-1.42,1.06-2.41,.67-4.48-1.44-6.13-1.09-.86-1.93-.98-2.04,.78,.36,.62,.71,1.25,1.07,1.87l.65,1.76c-.21,.4-.41,.8-.62,1.19-2.78-2.1-2.4-4.94-1.83-7.83-.18-.14-.36-.28-.54-.42-3.46,.49-6.93,.98-10.98,1.56-.34,2.17-.89,4.6-1.06,7.06-.2,2.96,.72,6.24-.25,8.86-1.81,4.88-4.64,9.38-7.04,14.04-.49,.94-1.18,1.84-1.41,2.84-.64,2.87-1.09,5.78-1.62,8.68-.22,0-.44-.01-.67-.02,1.23-15-2.51-29.06-8.02-42.91-2.51,1.19-3.15,3.39-3.04,5.6,.28,5.94,.08,12.07,1.51,17.76,1.91,7.55,3.04,15.08,2.51,22.74-.25,3.71,.69,6.26,3.55,8.53,.4-.78,.79-1.53,1.18-2.28,.24,.46,.49,.93,.73,1.39-.42,1.32-.85,2.64-1.51,4.7,4.44-2.25,8.24-2.81,12.02-.5,.18,.04,.35,.08,.53,.11,.4-.32,.8-.64,1.2-.97,1.18,.79,2.37,1.57,3.55,2.36-8.1,1.08-15.24,4.85-23.28,8.07,8.68,3.26,16.42,3.13,23.83-1.6-.19,.81-.37,1.62-.56,2.43-.74,.2-1.47,.4-2.21,.61-.49,.41-.99,.81-1.48,1.22-7.31,1.7-14.44,1.28-21.4-1.7-.63-.27-1.58,.18-3.13,.4,4.47,3.92,9.25,5,14.1,5.92-.05,.37-.11,.74-.16,1.11-2.62-.32-5.23-.63-7.85-.95-.27,.07-.55,.14-.82,.2-.4,.03-.81,.06-1.21,.09-.2-.31-.4-.63-.59-.94-.53-1.87-4.65-4.81-6.27-4.41-5.96,1.48-11.72,1.47-17.25-1.74-.86-.5-2.27-.07-3.43-.07-.06,.27-.13,.53-.19,.8,.82,.78,1.64,1.56,2.47,2.33-.27,.29-.54,.59-.81,.88-2.42-2.44-5.19-2.66-8.6-2.49-4.34,.22-8.76-.94-13.15-1.47-1.64-.2-3.3-.27-4.95-.4l-.73,.34c.02,.23,.04,.45,.05,.68-.3,.27-.61,.54-.91,.82-1.08-.17-2.17-.54-3.23-.46-2.86,.23-5.71,.65-8.56,.99-.41,0-.82,0-1.23,0-.16,0-.32,0-.48,0-.42,0-.84,0-1.25,0-2.05-.4-4.11-.81-6.16-1.21,.02-.44,.03-.89,.05-1.33,3.16,.44,6.42,1.59,9.47,1.17,5.84-.81,11.57-2.5,17.34-3.83,.22,.54,.44,1.08,.66,1.62,2.42,.68,4.84,1.36,7.25,2.04,.3,.08,.6,.15,.9,.23,2.36-.19,4.72-.38,7.08-.57,.65-.14,1.3-.28,1.95-.41,.08-.18,.21-.24,.4-.19,.25-.07,.5-.14,.75-.21,.82-.29,1.64-.58,2.47-.88,.17-.16,.35-.32,.52-.49,3.85-1.21,7.71-2.43,11.56-3.64,.09,.27,.19,.55,.28,.82-2.57,1.23-5.13,2.46-8.57,4.1,3.06,.8,5.43,1.75,7.86,1.99,6.57,.65,12.38-2.34,18.36-4.38,2.44-.83,4.77-2,7.14-3.01,.01-.34,.03-.69,.04-1.03-2.46-.71-4.91-1.92-7.4-2-3.26-.1-6.55,.7-9.82,1.11,.89-1.17,1.78-2.35,2.67-3.52,1.51-2.95,2.85-6.01,4.59-8.81,1.64-2.65,1.83-11.58-.06-14.15-.08-.11-.31-.12-.79-.29-2.32,4.56-4.65,9.14-6.99,13.73-.15-2.29-.31-4.59-.46-6.88,2.07-6.07,4.16-12.14,6.2-18.22,.21-.62,.24-1.35,.18-2.01-.47-5.85-.98-11.7-1.51-17.98-.59,.8-1.31,1.77-2.03,2.75-.22-.62-.44-1.23-.67-1.85,.27-1.17,.54-2.34,.81-3.51,.13-.38,.26-.76,.39-1.14,2.6-4.22,3.82-8.67,2.55-13.66-.22-.85,.29-1.89,.46-2.84,.16-.42,.31-.84,.47-1.26,0,0-.01,.04-.01,.04,1.01-1,2.02-2.01,3.04-3.01,.75,3.4,2.85,5.86,5.86,7.29,2.52,1.2,5.26,2.11,8,2.64,8.01,1.55,16.08,2.85,24.09,4.24,.29-3.28-1.68-7-5.21-8.02-3.9-1.13-7.94-1.97-11.97-2.39-6.4-.66-12.7-1.29-17.46-6.3-.7-.73-.99-1.85-1.47-2.8-.34,.32-.68,.64-1.02,.96-.24,.52-.48,1.04-.72,1.56-.22-.57-.45-1.14-.67-1.71-.04-1.23-.07-2.47-.11-3.7,.95,.74,2.03,1.35,2.84,2.22,3.4,3.66,6.92,7.03,12.56,7.26-.09-.99-.03-1.78-.24-2.49-.93-3.1-2.31-5.78-4.89-8.07-3.6-3.18-6.64-6.99-10.02-10.64-1.72,2.89-2.33,5.66-.43,8.73,.47,.77,.15,2.03,.2,3.06-1.56-.41-3.17-.68-4.67-1.25-6.77-2.59-12.78-6.24-17.21-12.22-.71-.96-2.31-1.5-3.59-1.72-1.51-.26-3.12,.15-4.68,.09-4.19-.15-8.09-.23-11.57,3.18-3.46,3.39-7.89,2.58-11.19,1.05-1.92,.82-3.28,1.94-4.5,1.81-3.84-.42-7.67-1.13-11.4-2.15-1.13-.31-2.53-1.93-2.64-3.06-.11-1.17,.94-2.81,1.97-3.64,1.31-1.06,3.11-1.51,4.7-2.23,.42-.16,.85-.31,1.27-.47,.69-.31,1.37-.63,2.26-1.04-.15-.64-.31-1.33-.48-2.02,.24-.41,.47-.81,.71-1.22,.74,1,1.48,2.01,2.22,3.01,0,.55-.02,1.11-.03,1.66-1.07,.16-2.18,.28-1.19,1.8-.17,.09-.35,.12-.54,.09-1.55-1.66-1.75-1.69-2.4-.48-2.27,1.04-4.59,2.01-6.77,3.22-.3,.17-.19,2.1,.24,2.36,4.16,2.51,8.66,3.56,13.79,2.68-.5-.86-.83-1.44-1.16-2.01-.49-.84-.97-1.69-1.46-2.53,1.05-.41,2.07-.92,3.15-1.2,.73-.19,1.55-.04,2.33-.1,3.74-.3,8.89-4.56,9.14-7.54,1.3-.74,2.68-1.37,3.88-2.26,2.24-1.66,4.17-3.9,6.61-5.12,4.38-2.21,9.02-.89,12.61,2.58,.89,.86,2.44,1.35,3.71,1.42,1.83,.09,3.68-.43,5.54-.57,3.41-.26,6.18-.53,7.55-4.91,1.99-6.39,12.37-6.75,16.79-.8,1.5,2.02,2.88,2.41,5.07,2.15,3.98-.48,7.99-.76,11.98-1.12,0,.24,.02,.49,.03,.73-1.62,.31-3.24,.61-4.86,.92-3.5,.45-7,.89-10.5,1.34-2.71,.24-5.42,.48-8.95,.79,1.15,.94,1.5,1.23,1.86,1.52-1.18,.11-2.75,.16-2.09,1.88,.7,1.83,.04,5,3.53,4.69,5.44-.47,10.86-1.07,16.29-1.62-.37,.44-.74,.88-1.11,1.31-2.18,.31-4.37,.61-6.39,.89-.97,6.21,1.47,11.14,4.6,15.86,.11,.23,.23,.47,.34,.7l.11,.19c.16,.49,.32,.98,.47,1.46Zm-32.76-24.73h.03c-3.54,.38-7.09,.78-10.63,1.18-1.82,.16-3.69,.13-5.44,.55-1.01,.24-1.84,1.22-2.75,1.87-.5,.07-1,.14-1.5,.22-.28,.12-.57,.24-.85,.36-1.91,1.81-3.81,3.63-5.72,5.44,.13,.32,.26,.65,.39,.97,10.65-.88,21.31-1.75,32.19-2.64-.65-2.71-1.13-4.7-1.61-6.69-.02-.44-.04-.88-.06-1.32-1.35,.02-2.7,.05-4.05,.07Zm2.36,96.71c1.36-2.23,2.59-4.56,4.12-6.67,1.85-2.55,1.28-5.07,.64-7.67-.32-.07-.63-.14-.95-.21-1.26,4.86-2.52,9.72-3.78,14.58-.09,.08-.19,.17-.28,.25,.07,0,.17,0,.19-.03,.04-.07,.04-.17,.06-.26Zm4.54-72.34c.15,.03,.3,.07,.45,.1-.04-.14-.09-.28-.13-.42,.06-3.85-1.09-6.88-5.1-8.32-1.12-.4-2.05-1.48-2.95-2.37-3.49-3.42-5.98-3.89-10.83-1.83,4.55,6.75,11.02,10.56,18.57,12.83Zm15.19-28.7c.15-.28,.31-.55,.46-.83-1.74-1.26-3.41-2.66-5.25-3.76-3.6-2.15-10.74-.08-11.22,5.16-.24,2.59-.36,5.3,.14,7.82,1.11,5.67,5.21,9.69,8.5,14.13,.84,1.13,1.9,2.08,3.39,3.68,.16-1.93,.54-3.13,.29-4.17-.85-3.6-1.89-7.15-2.92-10.7-.59-2.05-1.55-4.04-1.9-6.12-.43-2.6,.63-4.35,3.6-4.5,1.64-.09,3.27-.46,4.9-.7Zm-5.93,74.55c.77-1.23,1.41-1.9,1.67-2.7,3.75-11.63,2.01-22.47-9.44-29.82-.27,.99-.58,1.87-.74,2.78-.66,3.73,.89,6.92,2.18,10.31,2.37,6.19,4.15,12.61,6.33,19.42Zm-61.37-58.15c-.08,.35-.16,.71-.23,1.06,1.93,.71,3.82,1.73,5.81,2.06,4.76,.81,7.86-1.97,10.66-5.38,4.35-5.3,9.18-9.87,16.68-9.9,.09,0,.18-.28,.41-.64-2.34-2.32-5.01-3.88-8.47-3.54-3.73,.37-6.42,2.5-8.71,5.32-4.27,5.27-8.95,9.96-16.15,11.01Zm104.58,80.12c2.27-3.26,3.16-6.9,2.2-10.8-1.9-7.75-7.91-12.31-13.64-17.78-.95,5.18,.49,9.32,2.52,13.18,2.74,5.21,5.88,10.2,8.92,15.4Zm-9.64,21.42c4.86-.78,7.64-4.17,8.45-10.32,1-7.56-1.64-16.05-6.32-18.13-.72,9.68-1.43,19.06-2.13,28.45Zm-32.12-39.36c8.76-3.77,13.24-18.18,13.04-25.47-.01-.51-1.36-1.5-1.9-1.39-2.92,.63-7.11,6.38-7.02,9.43,.12,4.26-.39,8.29-2.81,12.03-.9,1.4-2.78,2.99-1.31,5.39Zm37.63-6.28c1.65-9.54-7.18-20.04-17.4-19.21,4.11,8.03,11.08,13.3,17.4,19.21Zm-27.75-50.74c-3.01,5.22-5.47,10.19-1.56,15.67,.15,.21,.13,.57,.12,.86-.04,2.5,1.4,3,3.59,3.02,2.62,.02,2.37-1.87,2.53-3.41,.62-5.96-2.44-10.84-4.68-16.14Zm.2,49.72c-2.99,3.32-5.86,6.45-8.65,9.64-.41,.47-.77,1.27-.69,1.85,.4,3.03,.95,6.04,1.47,9.18,4.96-2.91,9.53-15.04,7.87-20.68Zm-8.64-44.25c1.09,.69,1.93,1.21,2.83,1.78,2.88-3.51,4.03-7.31,4.03-11.57,0-6.66-.23-6.87-6.75-5.31-.16,.04-.28,.24-.39,.34-.88,4.9,4.36,9.5,.28,14.76Zm-12.57-5.5c.68-1.71,1.56-2.81,1.36-3.65-.38-1.6-1.19-4.18-2.16-4.35-2.29-.38-4.78,.41-7.19,.73-.09,.28-.18,.56-.27,.84,2.62,2.04,5.24,4.08,8.25,6.43Zm25.47,39.53c1.37,0,2.61,.06,3.84-.01,4.9-.29,4.73-.22,2.36-4.58-1.1-2.03-2.59-1.94-4.04-1.37-.8,.31-1.32,1.68-1.68,2.67-.34,.95-.31,2.04-.48,3.29Zm10.73,49.15c1.89-1.03,3.82-2.02,5.69-3.13,.41-.25,.79-.91,.81-1.4,.09-1.89,.04-3.79,.04-5.82-3.76,2.1-7.08,7.58-6.54,10.36Zm-29.44,8.59c-.87-3.26-3.25-6.01-4.65-5.21-1.92,1.09-2.46,3-1.91,5.21h6.56Zm-9.61-56.15q6.24-3.73,3.45-7.47c-1.12,2.43-2.15,4.64-3.45,7.47Zm22.22,58.16c-2.39-1.74-5.05-1.8-8.16-.16,2.72,3.08,5.43,1.24,8.16,.16Zm-5.3-66.55l.56,1.11c1.79-1.21,3.58-2.42,5.87-3.97-4.09-1.49-4.67,1.68-6.43,2.86Z"/>
  <path class="cls-5" d="M251.54,55.18c-5.43,.55-10.85,1.14-16.29,1.62-3.48,.3-2.82-2.86-3.53-4.69-.66-1.72,.91-1.77,2.09-1.88,2.61-.33,5.22-.65,7.84-.98,4.39-.62,8.78-1.24,13.16-1.86,3.03-.23,6.07-.46,9.1-.7,6.79-.84,13.59-1.68,20.38-2.51,3.4-.41,6.81-.81,10.21-1.22,3.48-.31,6.96-.56,10.43-.97,.88-.1,1.7-.71,2.55-1.08,3.51-.21,7.03-.42,10.54-.62,.21,2.16,.42,4.32,.62,6.48-11.23,1.41-22.46,2.83-33.69,4.24-11.14,1.4-22.28,2.8-33.42,4.19Z"/>
  <path class="cls-15" d="M149.79,175.79c-.02,.44-.03,.89-.05,1.33-1.98-.2-3.56-3.16-6.18-.7,3.92,2.78,7.82,5.15,12.47,6.15,.74,.16,1.32,1.08,1.98,1.66-5.7,.13-11.4,.26-17.1,.38-1.17-.5-2.34-.99-3.51-1.49,2.06,.12,4.13,.25,6.19,.37,.37,0,.75,0,1.12,0,1.85-.22,3.7-.44,5.87-.69-3.01-2.02-5.52-3.82-8.17-5.4-.71-.42-1.91-.43-2.75-.17-5.86,1.8-11.52,1.62-17.03-1.28-.79-.41-1.79-.41-2.69-.6-.12,.33-.24,.66-.36,1,2.31,1.3,4.63,2.6,6.94,3.9-.28,.31-.57,.61-.85,.92-2.04-1.08-4.03-2.28-6.15-3.18-1.2-.51-2.74-.94-3.93-.64-6.35,1.6-12.58,2.65-18.64-1.02-.57-.34-1.48-.12-2.78-.18,3.52,4.18,8.01,5.07,12.07,6.76l-2.07,.76c-5.37,.34-10.74,.68-16.12,1.01,.69-.43,1.35-1.18,2.07-1.24,3.18-.25,6.37-.31,9.56-.43-1.77-1.88-3.7-2.85-5.26-4.24-1.42-1.26-2.65-1.24-4.12-.44-1.13-.07-2.25-.14-4.23-.27,.99-.82,1.44-1.2,1.89-1.57,1.67-.39,3.42-.57,5-1.2,4.64-1.83,9.2-3.84,14.33-6-6.97-3.39-13.26-2.84-19.58-.53-.31-1.83-.61-3.66-.99-5.88,1.35,.5,2.62,.58,3.2,1.26,2.19,2.55,3.75,1.02,5.93-.2,5.86-3.28,11.95-2.8,17.96-.12-.22,.31-.44,.62-.65,.92-7.56-2.29-13.24-2.13-15.75,.24,2.67,.64,5.71,.9,8.3,2.11,2.46,1.15,4.58,1.15,6.94,.31,.73-.26,1.5-.4,2.26-.6,.03,.44,.07,.88,.1,1.32-5.65,2.19-11.3,4.38-17.3,6.7,7.02,4.51,25.29,1.04,33.1-5.98-2.44-.61-4.7-1.18-6.96-1.75,.04-.4,.08-.8,.12-1.2,2.08,.46,4.36,.53,6.2,1.47,4.02,2.04,7.11-.61,10.67-1.71-1.3-.84-2.59-1.68-3.89-2.52,.71-.06,1.43-.13,2.14-.19,3.15,3.23,6.23,3.11,9.52,.08,.83-.77,2.31-.84,3.49-1.23,0,.39,0,.78,0,1.18-1.57,.78-3.14,1.56-5.03,2.5,3.36,.85,6.23,1.22,8.79,2.31,3.82,1.63,6.74-.88,10.04-1.61,.04,0-.06-.68-.1-1.04,.25-.28,.51-.56,.76-.84,2.16,1.99,3.97,1.86,6.35-.14,4.82-4.04,10.49-3.9,16.11-1.95,2.33,.81,4.41,2.32,6.26,3.33,1.61-2.37,3.32-4.87,5.02-7.37,.03,.46,.07,.91,.1,1.37-.8,2.15-1.59,4.3-2.39,6.44,.19,.53,.38,1.07,.57,1.6-7.86,.15-14.42,4.18-21.33,7.15-.22-.54-.44-1.08-.66-1.62,2.33-.97,4.67-1.94,7.56-3.14-13.48-6.6-24.45,.22-36.25,4.34,.88,.68,1.38,1.07,1.88,1.47Zm6.45-6.28c-12.35-4.79-22.28,0-32.27,5.3,2.55,1.02,5.15,2.04,7.74,2.03,8.6-.03,15.98-4.28,24.52-7.34Zm36.96-2.99c-3.81-4.87-15.04-5.54-18.76-1.41,3.54,1.21,7.18,2.48,10.85,3.69,.51,.17,1.17,.15,1.68-.02,2.09-.7,4.15-1.49,6.23-2.25Z"/>
  <path class="cls-7" d="M167.4,55.6c-.74-1-1.48-2.01-2.22-3.01-1.36-3.88-2.85-7.72-4.05-11.65-3.09-10.17-6.05-20.39-9.06-30.59,2.21-.39,4.42-.77,6.62-1.16,3.15,15.63,8.13,30.68,14.95,45.39-2.44,.4-4.34,.71-6.24,1.02Z"/>
  <path class="cls-16" d="M207.36,138.2c-3.94-8.59-7.84-17.2-11.84-25.76-4.08-8.75-8.29-17.44-12.38-26.18-.3-.65-.12-1.53-.16-2.3,.68,.47,1.62,.79,1.99,1.44,.92,1.61,1.55,3.37,2.35,5.05,4.75,10.04,9.5,20.08,14.27,30.11,2.33,4.9,4.69,9.78,7.04,14.68,.26,.73,.49,1.48,.77,2.2,2.22,5.69,4.67,11.3,6.61,17.08,1.42,4.22,2.73,8.63,.97,13.18-2.17,2.55-4.39,3.16-6.88,1.72-1.17-.68-2.18-1.63-3.27-2.46,0-.16,0-.32,0-.47,.57-.4,1.14-.79,1.7-1.19,.42,.21,.84,.42,1.26,.63,0,0-.05-.04-.05-.04,.58,.62,1.08,1.66,1.74,1.77,3.32,.56,5.21-2.07,4.14-5.99-1.27-4.63-2.79-9.19-4.31-13.74-.71-2.12-1.66-4.16-2.51-6.23-.15-.38-.31-.75-.46-1.13-.33-.79-.66-1.57-.99-2.36Z"/>
  <path class="cls-17" d="M263.85,168.21c.5,.02,1,.04,1.5,.06,.95-.1,1.96-.04,2.85-.34,8.96-3.07,13.96-9.67,16.37-18.56,1.57-1.61,1.55-3.78-.05-5.29-.2,0-.41-.02-.61-.03,.54-.76,1.08-1.53,1.63-2.29,2.13,9.35-1.74,16.51-8.21,22.77-.96,.92-1.91,2.02-2.41,3.22-3.53,8.45-10.22,12.89-18.78,14.66-4.86,1.01-9.85,1.43-14.8,1.9-2.12,.2-4.28-.12-6.43-.2,.05-.37,.11-.74,.16-1.11,4.77-.27,9.54-.54,14.32-.81-.05-.26-.09-.51-.14-.77-1.25-1.02-2.5-2.03-3.75-3.05,.49-.41,.99-.81,1.48-1.22,.36,.52,.61,1.19,1.1,1.53,3.62,2.46,7.39,2.98,11.62,1.38,5.98-2.26,10.17-6.35,13.99-12.17-4.98,1.36-8.85,2.71-12.21,5.9-3.81,3.61-7.6,5.6-12.28,2.77,.19-.81,.37-1.62,.56-2.43,1.17-1.41,2.33-2.82,3.5-4.24,.22,.44,.43,.87,.65,1.31-1.03,1.47-2.05,2.94-3.08,4.41,.11,.3,.22,.6,.32,.9,1.78-.36,3.95-.21,5.26-1.2,2.72-2.04,4.99-4.69,7.45-7.1Z"/>
  <path class="cls-16" d="M200.55,156.99c-.64-.52-1.47-.93-1.9-1.59-5.28-8.2-10.49-16.44-15.74-24.66-.36-.56-.82-1.07-1.28-1.66-1.35,.71-2.61,1.38-4.47,2.35-.72-4.11-1.38-7.95-2.22-12.74,4.42,2.15,8.07,3.92,12.15,5.91-1.47,1.33-2.45,2.21-3.55,3.2,4.07,6.18,8.11,12.25,12.07,18.38,1.7,2.63,3.28,5.34,4.75,8.11,.38,.73,.12,1.8,.16,2.71,0,0,.04-.01,.04-.01Z"/>
  <path class="cls-8" d="M158.01,184.23c-.65-.57-1.23-1.5-1.98-1.66-4.65-1-8.55-3.37-12.47-6.15,2.62-2.46,4.21,.5,6.18,.7,2.05,.4,4.11,.81,6.17,1.22,.42,0,.84,0,1.25,0,.16,0,.32,0,.48,0,.41,0,.82,0,1.23,0,2.85-.34,5.7-.77,8.56-.99,1.06-.08,2.15,.29,3.23,.46,2.06,1.4,4.11,2.8,6.44,4.39-1.15,.23-1.9,.38-2.64,.53-.24,.05-.48,.11-.72,.16-.21,.04-.41,.07-.62,.11-1.96,.12-3.93,.23-5.89,.35,.02,.14,.04,.28,.07,.41,1.61,.24,3.22,.49,4.83,.73-3.11,.29-6.22,.76-9.33,.81-1.59,.03-3.19-.68-4.78-1.06Z"/>
  <path class="cls-5" d="M165.64,59.15c.19,.03,.37,0,.54-.09,2.35-.45,4.69-.9,6.5-1.24-.21-.32-.59-.92-.97-1.52,2.83-.31,5.65-.62,8.48-.94-.03-.16-.06-.31-.08-.47-1.09-.2-2.18-.41-3.27-.61,1.89-.24,3.78-.49,5.66-.73-.25,2.98-5.4,7.24-9.14,7.54-.78,.06-1.59-.09-2.33,.1-1.08,.28-2.11,.79-3.15,1.2,.49,.84,.97,1.69,1.46,2.53,.33,.57,.66,1.15,1.16,2.01-5.13,.88-9.63-.17-13.79-2.68-.43-.26-.53-2.19-.24-2.36,2.18-1.22,4.49-2.18,6.77-3.22-.64,.42-1.39,.75-1.9,1.29-.77,.82-1.99,1.87-1.88,2.67,.11,.82,1.51,1.58,2.49,2.12,.63,.35,1.51,.26,2.28,.37l.14-.59c-1.31-.6-2.63-1.21-4.78-2.2,2.53-1.33,4.29-2.25,6.05-3.18Z"/>
  <path class="cls-17" d="M251.54,55.18c11.14-1.4,22.28-2.79,33.42-4.19,11.23-1.41,22.46-2.82,33.69-4.24,.52,.15,1.04,.3,1.56,.46,.02,.34,.04,.68,.05,1.02-23.28,2.76-46.56,5.51-69.84,8.27,.37-.44,.74-.88,1.11-1.31Z"/>
  <path class="cls-8" d="M87.72,168.77c6.32-2.31,12.62-2.85,19.58,.53-5.13,2.16-9.7,4.17-14.33,6-1.58,.62-3.33,.81-5,1.2-.08-2.58-.16-5.15-.25-7.73Z"/>
  <path class="cls-17" d="M176.84,54.29c1.09,.2,2.18,.41,3.27,.61,.03,.16,.06,.31,.08,.47-2.83,.31-5.65,.62-8.48,.94-1.45,.32-2.89,.64-4.34,.96,0-.55,.02-1.11,.03-1.66,1.9-.31,3.8-.62,6.24-1.02-6.81-14.71-11.8-29.76-14.95-45.39,.65,.87,1.62,1.64,1.91,2.62,2.19,7.43,3.98,14.98,6.42,22.32,2.11,6.36,4.85,12.51,7.46,18.7,.29,.7,1.55,.99,2.35,1.47Z"/>
  <path class="cls-17" d="M152.08,10.34c3.01,10.2,5.97,20.41,9.06,30.59,1.19,3.93,2.69,7.77,4.05,11.65-.24,.41-.47,.81-.71,1.22-1.77-4.67-3.71-9.28-5.28-14.02-3.04-9.14-5.88-18.35-8.76-27.54-.41-1.32-.24-2.43,1.64-1.9Z"/>
  <path class="cls-9" d="M318.02,40.27c-3.51,.21-7.03,.42-10.54,.62-2.4,.16-4.83,.17-7.2,.52-1.96,.29-3.85,1-5.78,1.53-3.4,.41-6.81,.81-10.21,1.22-.46-.29-.95-.88-1.38-.83-5.4,.57-10.8,1.17-16.17,1.91-.99,.14-1.89,.94-2.82,1.43-3.03,.23-6.07,.46-9.1,.7-1.07-.17-2.13-.34-3.2-.51-.07-.1-.14-.2-.21-.29,1.62-.31,3.24-.61,4.86-.92,16.67-2,33.33-3.99,50-5.99,3.16-.31,6.33-.56,9.47-.99,.62-.08,1.14-.85,1.71-1.3,.19,.97,.39,1.94,.58,2.91Z"/>
  <path class="cls-15" d="M306.26,39.66c-16.67,2-33.33,3.99-50,5.99,0-.24-.02-.49-.03-.73,4.48-.67,8.94-1.44,13.43-1.98,11.16-1.35,22.33-2.61,33.5-3.9,1.03,.21,2.06,.42,3.09,.62Z"/>
  <path class="cls-16" d="M249.57,75.6c-.16-.49-.32-.98-.47-1.46,.35-.09,.83-.07,1.04-.29,1.61-1.72,3.17-3.49,5.04-5.04-.63,1.08-1.26,2.17-2.13,3.67,7.13-1.89,13.89-2.61,20.84-1.34-6.33,.58-12.65,1.16-18.98,1.74,0,.35,0,.69,0,1.04,1.01,.27,2.02,.53,3.02,.8,0,.3-.02,.59-.03,.89h-8.34Z"/>
  <path class="cls-13" d="M200.55,156.99s-.04,.01-.04,.01c2.05,.31,5.27-1.7,5.53-3.43,.51-3.45,1.04-6.9,1.56-10.35,.42,.48,.84,.97,1.26,1.45,0,.19-.02,.39-.03,.58-.08,.59-.16,1.19-.24,1.78-1.07,6.69-3.6,13.66,3.48,18.83-.78,0-1.55,0-2.33,0,0,0,.05,.04,.05,.04-.42-.21-.84-.42-1.26-.63-.57,.4-1.14,.79-1.7,1.19-1.36-.14-2.72-.27-4.07-.41,4.37-.46,4.88-2.12,2.69-9.35-1.71,.96-3.37,1.9-5.03,2.83-.03-.46-.07-.91-.1-1.37,.08-.39,.16-.79,.24-1.18Z"/>
  <path class="cls-18" d="M115.02,168.14c-.03-.44-.07-.88-.1-1.32-.58-.69-1.17-1.37-1.75-2.06,.22-.31,.44-.62,.65-.92,.61,.3,1.32,.47,1.8,.91,1.85,1.72,3.17,1.36,4.83-.51,3.51-3.96,13.26-5.04,18.66-1.27-.71,.06-1.43,.13-2.14,.19-5.31-1.49-10.46-1.77-15.54,2.19,1.15,.26,1.85,.42,2.56,.57-.04,.4-.08,.8-.12,1.2-2.95,.34-5.89,.68-8.84,1.03Zm1.17-1.56v.47c.42-.06,.84-.12,1.27-.17,0-.1-.02-.2-.02-.29h-1.25Z"/>
  <path class="cls-8" d="M90.3,178.34c1.47-.8,2.7-.82,4.12,.44,1.56,1.39,3.5,2.36,5.26,4.24-3.19,.12-6.38,.18-9.56,.43-.72,.06-1.38,.81-2.06,1.24-.8-.51-1.6-1.03-2.78-1.78,1.81-.95,2.1-3.14,4.29-2.62,.09,.02,.48-1.27,.73-1.95Z"/>
  <path class="cls-17" d="M210.82,136.87c-.16-1.53-.31-3.06-.47-4.59,2.03-7.47,5.12-14.51,8.8-21.29l.67,1.85c-3.79,7.72-7.02,15.64-9,24.03Z"/>
  <path class="cls-7" d="M208.59,147.03c.08-.59,.16-1.19,.24-1.78,.06-.05,.19-.12,.18-.15-.03-.15-.1-.29-.16-.43-.42-.48-.84-.97-1.26-1.45,.4-.51,.8-1.03,1.21-1.54,.84,2.07,1.8,4.11,2.51,6.23,1.52,4.55,3.04,9.12,4.31,13.74,1.08,3.92-.82,6.55-4.14,5.99-.66-.11-1.16-1.16-1.74-1.77,.78,0,1.55,0,2.33,0,.95-.27,1.9-.54,3.55-1-1.38-.67-1.99-.96-2.6-1.25l.87-.16c.08-1.22,.39-2.49,.18-3.66-.25-1.37-1.03-2.63-1.47-3.97-.79-2.39-1.41-4.83-2.29-7.19-.24-.66-1.13-1.07-1.72-1.6Z"/>
  <path class="cls-18" d="M104.17,183.68c.69-.25,1.38-.51,2.07-.76,6.69,1.39,13.33,.77,19.95-.54,0,.39,0,.78,0,1.18-7.33,2.07-14.68,2.45-22.03,.13Z"/>
  <path class="cls-17" d="M269.24,91.58c-.37,.07-.74,.14-1.1,.21-2.14-2.35-3.94-5.24-6.52-6.89-2.78-1.79-6.3-2.42-9.5-3.56,0-.31,0-.61,0-.92,.58,0,1.15,0,1.73-.01,5.66,1.14,10.72,3.34,14.15,8.28,.59,.85,.84,1.93,1.24,2.9Z"/>
  <path class="cls-15" d="M173.12,182.99c.21-.04,.41-.07,.62-.1,.24-.05,.48-.11,.72-.16,.75-.15,1.49-.3,2.64-.53-2.33-1.59-4.39-2.99-6.44-4.39,.3-.27,.61-.54,.91-.82,4.3,1.84,8.6,3.67,12.89,5.51,.78,.28,1.56,.56,3.15,1.12-1.66,0-2.43,0-3.21,0-2.33,.04-4.65,.07-6.98,.11-1.11,.12-2.22,.25-3.34,.37-.32-.37-.65-.74-.97-1.1Z"/>
  <path class="cls-17" d="M285.74,137.16l-.66-4.88c-.04-1.06-.02-2.13-.13-3.19-.37-3.61-.28-7.35-2.86-10.36,.46-.31,.93-.62,1.39-.93,3.62,6.12,3.13,12.71,2.25,19.36Z"/>
  <path class="cls-18" d="M306.26,39.66c-1.03-.21-2.06-.42-3.09-.62,4.76-.56,9.52-1.12,14.27-1.67-.57,.45-1.09,1.22-1.71,1.3-3.14,.43-6.31,.68-9.47,.99Z"/>
  <path class="cls-13" d="M223.87,183.68c-4.32,.28-8.64,.56-12.96,.84-.4-.24-.8-.48-1.4-.84,.94-.1,1.57-.16,2.2-.23,.64,0,1.27,.02,1.91,.03,.36,0,.72,0,1.08,0,3.25-.29,6.5-.58,9.74-.88l-.58,1.07Z"/>
  <path class="cls-17" d="M152.11,162.99c0-.39,0-.78,0-1.18,3.13,0,6.26-.01,9.4-.02,0,.38,0,.77,0,1.15-3.14,.01-6.27,.03-9.41,.04Z"/>
  <path class="cls-13" d="M204.5,183.52l-5.33,.58c-.19-.35-.39-.7-.58-1.06,.94-.2,1.87-.4,3.01-.64-1.01-.79-1.83-1.44-2.65-2.08,.27-.29,.54-.59,.81-.88,2.18,.95,4.36,1.9,6.55,2.86l-1.81,1.23Z"/>
  <path class="cls-18" d="M184.4,183.61h3.21c-1.59-.57-2.37-.84-3.15-1.12,2.75,.25,5.5,.49,8.25,.74,.66,.36,1.32,.72,1.99,1.08-3.43-.23-6.86-.46-10.29-.69Z"/>
  <path class="cls-17" d="M269.97,95.38c.53-.68,1.06-1.35,1.59-2.03,1.58,1.96,3.16,3.93,4.74,5.89-.41,0-.82,.01-1.23,.02-.92-1.24-1.72-2.6-2.82-3.67-.43-.41-1.5-.16-2.28-.21Z"/>
  <path class="cls-18" d="M137.4,183.12c1.17,.5,2.34,.99,3.51,1.49-3.39-.51-6.77-1.02-10.16-1.53,.46-.27,.91-.54,1.37-.81,1.76,.28,3.52,.56,5.28,.85Z"/>
  <path class="cls-18" d="M226.86,85.6c-1.01,1-2.02,2.01-3.04,3.01,.38-1.75,.68-3.52,1.18-5.24,.24-.82,.85-1.53,1.29-2.29,.22,.57,.45,1.14,.67,1.71-.03,.94-.07,1.87-.1,2.81Z"/>
  <path class="cls-15" d="M132.11,182.27c-.46,.27-.91,.54-1.37,.81-.88-.01-1.76-.02-2.64-.04-.43,.12-.86,.24-1.29,.36-.2,.05-.4,.09-.61,.14,0-.39,0-.78,0-1.18-.17-.4-.35-.8-.52-1.2,.28-.31,.57-.61,.85-.92,1.86,.67,3.72,1.35,5.59,2.02Z"/>
  <path class="cls-18" d="M204.5,183.52c.6-.41,1.2-.82,1.81-1.23,.77,.22,1.54,.45,2.31,.67-.45,.05-.9,.1-1.34,.15,.04,.14,.08,.27,.13,.41,.41-.18,.83-.37,1.24-.55,1.03,.16,2.05,.33,3.08,.49-.63,.07-1.26,.13-2.2,.23,.6,.36,1,.6,1.4,.84-2.14-.33-4.28-.67-6.41-1Z"/>
  <path class="cls-15" d="M172.12,184.48c-1.61-.24-3.22-.49-4.83-.73-.02-.14-.04-.28-.07-.41,1.96-.12,3.93-.23,5.89-.35,.32,.37,.65,.74,.97,1.1-.06,.09-.12,.17-.18,.25-.6,.04-1.19,.09-1.79,.13Z"/>
  <path class="cls-15" d="M194.7,184.3c-.66-.36-1.32-.72-1.99-1.08,1.96-.06,3.92-.13,5.88-.19,.19,.35,.39,.7,.58,1.06-1.49,.07-2.98,.14-4.47,.21Z"/>
  <path class="cls-15" d="M161.52,162.95c0-.38,0-.77,0-1.15,.42,.13,.83,.26,1.25,.39,.51,.21,1.01,.41,1.52,.62,.28,.16,.56,.33,.83,.49,.11,.15,.27,.23,.45,.26,.34,.25,.67,.51,1.01,.76-.25,.28-.51,.56-.76,.84-1.43-.74-2.86-1.47-4.29-2.21Z"/>
  <path class="cls-11" d="M207.36,138.2c.33,.79,.66,1.57,.99,2.36-.33-.79-.66-1.57-.99-2.36Z"/>
  <path class="cls-13" d="M283.49,117.8c-.46,.31-.93,.62-1.39,.93-.21-.38-.41-.76-.62-1.13,0,0,.1-.09,.1-.09,.59,0,1.17,.01,1.76,.02,.15,.04,.19,.13,.14,.27Z"/>
  <path class="cls-17" d="M283.35,117.53c-.59,0-1.17-.01-1.76-.02,.04-.5,.08-1,.11-1.5,.55,.51,1.1,1.02,1.65,1.52Z"/>
  <path class="cls-17" d="M279.63,110.42c-.17-.86-.35-1.71-.52-2.56,.17,.86,.35,1.71,.52,2.56Z"/>
  <path class="cls-12" d="M223.87,183.68c.19-.36,.39-.71,.59-1.06,0,0-.03-.09-.03-.09,.2,.31,.4,.63,.59,.94-.38,.07-.77,.15-1.15,.22Z"/>
  <path class="cls-12" d="M253.85,80.4c-.58,0-1.15,0-1.73,.01-.2-.15-.4-.31-.59-.46,.77,.15,1.55,.3,2.32,.45Z"/>
  <path class="cls-17" d="M280.17,113.95c-.13-.52-.27-1.04-.4-1.56,.13,.52,.27,1.04,.4,1.56Z"/>
  <path class="cls-18" d="M223.84,88.57c-.16,.42-.31,.84-.47,1.26,.16-.42,.31-.84,.47-1.26Z"/>
  <path class="cls-17" d="M162.69,56.86c-.42,.16-.85,.31-1.27,.47,.42-.16,.85-.31,1.27-.47Z"/>
  <path class="cls-17" d="M278.28,105.07c-.08-.37-.16-.74-.24-1.1,.08,.37,.16,.74,.24,1.1Z"/>
  <path class="cls-17" d="M220.36,106.33c-.13,.38-.26,.76-.39,1.14,.13-.38,.26-.76,.39-1.14Z"/>
  <path class="cls-17" d="M279.01,107.53c-.11-.44-.22-.89-.34-1.33,.11,.44,.22,.89,.34,1.33Z"/>
  <path class="cls-18" d="M126.81,183.41c.43-.12,.86-.24,1.29-.36-.43,.12-.86,.24-1.29,.36Z"/>
  <path class="cls-17" d="M280.99,115.14c-.22-.28-.44-.56-.65-.84,.22,.28,.44,.56,.65,.84Z"/>
  <path class="cls-17" d="M164.28,162.8c-.51-.21-1.01-.41-1.52-.62,.51,.21,1.01,.41,1.52,.62Z"/>
  <path class="cls-17" d="M281.53,115.77c-.18-.2-.35-.41-.53-.61,.18,.2,.35,.41,.53,.61Z"/>
  <path class="cls-12" d="M226.24,183.37c.27-.07,.55-.14,.82-.2-.27,.07-.55,.14-.82,.2Z"/>
  <path class="cls-17" d="M165.56,163.55c-.19-.03-.34-.11-.45-.26,.15,.09,.3,.17,.45,.26Z"/>
  <path class="cls-17" d="M278.04,103.96c-.15-.33-.3-.65-.45-.98,.15,.33,.3,.65,.45,.98Z"/>
  <path class="cls-12" d="M248.98,73.95c-.11-.23-.23-.47-.34-.7,.11,.23,.23,.47,.34,.7Z"/>
  <path class="cls-3" d="M243.91,166.15c-3.77-2.3-7.58-1.75-12.02,.5,.66-2.06,1.09-3.38,1.51-4.7,.74-3.6,1.48-7.2,2.23-10.8,.53-2.9,.97-5.81,1.62-8.68,.22-1,.92-1.9,1.41-2.84,2.4-4.66,5.23-9.16,7.04-14.04,.97-2.62,.05-5.9,.25-8.86,.16-2.45,.72-4.88,1.06-7.06,4.05-.57,7.52-1.07,10.98-1.56,.18,.14,.36,.28,.54,.42-.57,2.89-.95,5.73,1.83,7.83,.57,.65,1.14,1.3,1.71,1.95,.8,3.26,1.6,6.52,2.4,9.77-.08,.21-.16,.42-.24,.62-.06,.4-.12,.8-.18,1.19-.06,.6-.13,1.19-.19,1.79,0,.35,0,.7-.01,1.05-.04,.08-.14,.17-.12,.24,.03,.17,.11,.34,.17,.5h0c.2,.97,.4,1.94,.6,2.91,.06,.21,.13,.42,.19,.63,.15,.32,.3,.65,.45,.97,2.36,4.19,2.11,4.82-1.35,8.07-3.48,3.27-6.94,6.71-6.03,12.22,.07,2.06-.81,2.82-2.96,2.86-3.55,.08-6.81,1.2-9.15,4.16-.4,.32-.8,.64-1.2,.97-.16-.12-.34-.15-.53-.11Z"/>
  <path class="cls-8" d="M216.98,167.69c.35,.18,.7,.36,1.06,.54,3.27-.41,6.56-1.21,9.82-1.11,2.48,.08,4.93,1.29,7.4,2-.01,.34-.03,.69-.04,1.03-2.38,1.01-4.7,2.18-7.14,3.01-5.98,2.04-11.79,5.03-18.36,4.38-2.43-.24-4.8-1.19-7.86-1.99,3.44-1.64,6-2.87,8.57-4.1-.09-.27-.19-.55-.28-.82-3.85,1.21-7.71,2.43-11.56,3.64-.17,.16-.35,.32-.52,.49-.82,.29-1.64,.58-2.47,.88-.25,.07-.5,.14-.75,.21-.19-.06-.32,0-.4,.19-.65,.14-1.3,.28-1.95,.41-2.36,.19-4.72,.38-7.08,.57-.3-.08-.6-.15-.89-.23-2.42-.68-4.84-1.36-7.25-2.04,6.91-2.97,13.47-7,21.33-7.15,.98,0,1.96,0,2.94,0,1.77-.22,3.53-.44,5.3-.65,1.08,.83,2.1,1.78,3.27,2.46,2.49,1.45,4.71,.84,6.88-1.72Z"/>
  <path class="cls-7" d="M232.67,160.56c-.39,.75-.78,1.5-1.18,2.28-2.86-2.27-3.81-4.82-3.55-8.53,.53-7.66-.61-15.2-2.51-22.74-1.44-5.69-1.23-11.82-1.51-17.76-.11-2.2,.53-4.41,3.04-5.6,5.51,13.86,9.25,27.91,8.02,42.91-.76,3.14-1.53,6.29-2.29,9.43Z"/>
  <path class="cls-7" d="M226.86,85.6c.03-.94,.07-1.87,.1-2.81,.24-.52,.48-1.04,.72-1.56,.34-.32,.68-.64,1.02-.96,.48,.94,.77,2.06,1.47,2.8,4.76,5.01,11.06,5.64,17.46,6.3,4.03,.41,8.07,1.26,11.97,2.39,3.53,1.02,5.5,4.75,5.21,8.02-8.01-1.39-16.07-2.69-24.09-4.24-2.74-.53-5.48-1.44-8-2.64-3-1.43-5.11-3.89-5.86-7.29Z"/>
  <path class="cls-7" d="M210.82,136.87c1.99-8.39,5.22-16.32,9-24.03,.72-.97,1.44-1.95,2.03-2.75,.53,6.29,1.04,12.13,1.51,17.98,.05,.66,.03,1.39-.18,2.01-2.04,6.08-4.12,12.15-6.2,18.22-.79-.63-1.93-1.09-2.3-1.91-1.42-3.12-2.6-6.35-3.87-9.53Z"/>
  <path class="cls-7" d="M238.91,46.56c-1.63,.24-3.26,.62-4.9,.7-2.97,.16-4.03,1.91-3.6,4.5,.35,2.09,1.3,4.07,1.9,6.12,1.03,3.55,2.07,7.11,2.92,10.7,.25,1.05-.13,2.24-.29,4.17-1.48-1.59-2.55-2.55-3.39-3.68-3.29-4.44-7.39-8.47-8.5-14.13-.5-2.52-.38-5.23-.14-7.82,.48-5.24,7.62-7.32,11.22-5.16,1.84,1.1,3.51,2.5,5.25,3.76-.15,.28-.31,.55-.46,.83Z"/>
  <path class="cls-8" d="M149.79,175.79c-.5-.39-1-.78-1.88-1.47,11.8-4.12,22.77-10.94,36.25-4.34-2.89,1.2-5.23,2.17-7.56,3.14-5.77,1.33-11.5,3.02-17.34,3.83-3.04,.42-6.31-.73-9.47-1.17Z"/>
  <path class="cls-7" d="M232.98,121.11c-2.18-6.81-3.96-13.23-6.33-19.42-1.3-3.39-2.84-6.58-2.18-10.31,.16-.91,.47-1.79,.74-2.78,11.44,7.35,13.19,18.18,9.44,29.82-.26,.8-.9,1.47-1.67,2.7Z"/>
  <path class="cls-7" d="M171.61,62.96c7.19-1.05,11.88-5.74,16.15-11.01,2.29-2.83,4.98-4.96,8.71-5.32,3.46-.34,6.13,1.22,8.47,3.54-.22,.36-.31,.64-.41,.64-7.5,.03-12.34,4.6-16.68,9.9-2.8,3.41-5.9,6.19-10.66,5.38-2-.34-3.88-1.36-5.81-2.06,.08-.35,.16-.71,.23-1.06Z"/>
  <path class="cls-5" d="M220.92,52.13c.48,1.99,.96,3.98,1.61,6.69-10.88,.89-21.54,1.77-32.19,2.64-.13-.32-.26-.65-.39-.97,1.91-1.81,3.81-3.63,5.72-5.44,.28-.12,.57-.24,.85-.36,.5-.07,1-.14,1.5-.22,.39,0,.78,.02,1.16-.02,7.25-.77,14.49-1.55,21.74-2.33Z"/>
  <path class="cls-4" d="M276.19,143.08c-3.04-5.2-6.18-10.19-8.92-15.4-2.03-3.86-3.48-8-2.52-13.18,5.74,5.47,11.74,10.03,13.64,17.78,.96,3.91,.07,7.54-2.2,10.8Z"/>
  <path class="cls-4" d="M266.55,164.51c.7-9.39,1.41-18.78,2.13-28.45,4.68,2.09,7.32,10.57,6.32,18.13-.81,6.15-3.59,9.54-8.45,10.32Z"/>
  <path class="cls-7" d="M234.43,125.14c-1.47-2.41,.41-4,1.31-5.39,2.41-3.74,2.93-7.77,2.81-12.03-.09-3.06,4.1-8.81,7.02-9.43,.54-.12,1.89,.88,1.9,1.39,.2,7.29-4.28,21.7-13.04,25.47Z"/>
  <path class="cls-8" d="M253.25,169.89c-1.17,1.41-2.33,2.82-3.5,4.24-7.41,4.74-15.15,4.86-23.83,1.6,8.04-3.22,15.18-6.99,23.28-8.07,.98,.19,1.97,.39,2.95,.58,.37,.55,.74,1.1,1.1,1.65Z"/>
  <path class="cls-7" d="M226.2,77.45c-.04-1.03,.28-2.3-.2-3.06-1.9-3.07-1.29-5.84,.43-8.73,3.38,3.65,6.42,7.46,10.02,10.64,2.58,2.29,3.96,4.97,4.89,8.07,.21,.71,.15,1.5,.24,2.49-5.64-.24-9.16-3.6-12.56-7.26-.81-.87-1.89-1.49-2.84-2.22,0,0,.02,.08,.02,.08Z"/>
  <path class="cls-4" d="M269.97,95.38c.78,.05,1.85-.2,2.28,.21,1.09,1.06,1.9,2.43,2.82,3.67,2.08,5.46,3.83,10.98,3.49,16.93-.11,.63-.22,1.26-.33,1.9-.6,1.83-1.19,3.66-1.84,5.66-2.05-1.43-2.8-2.77-2.44-5.1,.67-4.38-.25-8.47-3.3-12-1.63-1.89-2.41-4.2-1.32-6.8,.36-.87,.35-1.89,.52-2.84,.01-.33,.02-.66,.04-1,.05-.14,.12-.27,.15-.41,.01-.06-.04-.14-.07-.22Z"/>
  <path class="cls-4" d="M281.48,117.6c.21,.38,.41,.76,.62,1.13,2.57,3,2.49,6.74,2.86,10.36,.11,1.06,.09,2.13,.13,3.19-.36,5.74-1.98,11.01-5.76,15.47-.69-1.13-1.38-2.27-2.06-3.4,3.79-5.79,3.76-11.62,.67-17.77-.6-1.2,.43-3.21,.71-4.85,.07-.2,.14-.39,.21-.59,.39-1.48,.79-2.97,1.24-4.66,.45,.36,.92,.74,1.39,1.12Z"/>
  <path class="cls-2" d="M263.85,168.21c-2.45,2.4-4.72,5.05-7.45,7.1-1.31,.99-3.48,.83-5.26,1.2-.11-.3-.22-.6-.32-.9,1.03-1.47,2.05-2.94,3.08-4.41,.4-.77,.8-1.54,1.21-2.32,1.2-2.75,2.39-5.5,3.59-8.26,2.31-1.67,3.47-4.89,7.31-5.4-.36,3.28-.68,6.23-1,9.18-.21,.68-.42,1.36-.62,2.03,0,0,.04-.06,.04-.06-.11,.23-.23,.45-.34,.68-.08,.38-.15,.77-.23,1.15Z"/>
  <path class="cls-4" d="M272.06,118.87c-6.32-5.91-13.3-11.17-17.4-19.21,10.22-.83,19.05,9.67,17.4,19.21Z"/>
  <path class="cls-7" d="M252.13,81.33c3.2,1.14,6.71,1.78,9.5,3.56,2.58,1.66,4.38,4.55,6.52,6.89,.14,.52,.29,1.04,.43,1.55,.07,.58,.14,1.16,.21,1.74-.46,2.11-.91,4.22-1.37,6.33-.29,0-.58,.01-.87,.02,.07-4.27-.96-8.23-4.8-10.21-3.49-1.8-7.4-2.77-11.53-4.25,1.35-1.48-1.77-4.48,1.91-5.65Z"/>
  <path class="cls-8" d="M198.59,183.04c-1.96,.06-3.92,.13-5.88,.19-2.75-.25-5.5-.49-8.25-.74-4.3-1.84-8.6-3.67-12.89-5.51-.02-.23-.04-.45-.05-.68,.24-.11,.49-.23,.73-.34,1.65,.13,3.31,.2,4.95,.4,4.39,.52,8.8,1.69,13.15,1.47,3.41-.18,6.18,.05,8.6,2.49,.82,.64,1.64,1.28,2.65,2.08-1.14,.24-2.07,.44-3.01,.64Z"/>
  <path class="cls-7" d="M220.7,164.71c-.51-.36-1.36-.64-1.48-1.1-.68-2.78-1.2-5.61-1.77-8.42,2.33-4.59,4.67-9.17,6.99-13.73,.48,.17,.7,.17,.79,.29,1.89,2.57,1.7,11.5,.06,14.15-1.74,2.81-3.08,5.87-4.59,8.81Z"/>
  <path class="cls-7" d="M223.72,75.26c-7.55-2.28-14.02-6.08-18.57-12.83,4.85-2.06,7.34-1.59,10.83,1.83,.9,.89,1.83,1.97,2.95,2.37,4.01,1.44,5.16,4.47,5.1,8.32-.11,.1-.21,.21-.32,.32Z"/>
  <path class="cls-8" d="M224.43,182.52s.03,.09,.03,.09c-3.25,.29-6.5,.58-9.75,.87-.36,0-.72,0-1.08,0-.64,0-1.27-.02-1.91-.02-1.03-.16-2.05-.33-3.08-.49,0,0-.02,0-.02,0-.77-.22-1.54-.45-2.31-.67-2.18-.95-4.36-1.9-6.55-2.86-.82-.78-1.64-1.56-2.47-2.33,.06-.27,.13-.53,.19-.8,1.16,0,2.56-.43,3.43,.07,5.53,3.22,11.29,3.22,17.25,1.74,1.62-.4,5.74,2.54,6.27,4.41Z"/>
  <path class="cls-4" d="M283.91,144.05c.2,0,.41,.02,.61,.03,.02,1.76,.03,3.52,.05,5.29-2.41,8.89-7.42,15.49-16.37,18.56-.88,.3-1.89,.24-2.85,.34,.58-.67,1.05-1.73,1.76-1.94,5.83-1.68,8.42-5.81,9.31-11.51,.21-1.32,1.13-2.6,1.95-3.72,1.76-2.41,3.68-4.7,5.54-7.04Z"/>
  <path class="cls-7" d="M244.31,68.12c2.24,5.3,5.31,10.18,4.68,16.14-.16,1.55,.09,3.44-2.53,3.41-2.19-.02-3.63-.52-3.59-3.02,0-.29,.03-.65-.12-.86-3.91-5.48-1.45-10.45,1.56-15.67Z"/>
  <path class="cls-2" d="M249.19,176.55c4.68,2.84,8.48,.84,12.28-2.77,3.36-3.19,7.24-4.54,12.21-5.9-3.82,5.83-8.01,9.91-13.99,12.17-4.23,1.6-8,1.09-11.62-1.38-.49-.33-.74-1.01-1.1-1.53,.74-.2,1.47-.4,2.21-.61Z"/>
  <path class="cls-7" d="M244.52,117.84c1.66,5.64-2.91,17.76-7.87,20.68-.52-3.15-1.07-6.16-1.47-9.18-.08-.59,.28-1.38,.69-1.85,2.79-3.19,5.65-6.32,8.65-9.64Z"/>
  <path class="cls-8" d="M245.5,178.38c1.25,1.02,2.5,2.03,3.75,3.05,.05,.26,.09,.51,.14,.77-4.77,.27-9.54,.54-14.32,.81-4.85-.92-9.63-2-14.1-5.92,1.55-.22,2.49-.68,3.13-.4,6.96,2.98,14.09,3.39,21.4,1.7Z"/>
  <path class="cls-7" d="M235.87,73.59c4.08-5.27-1.17-9.87-.28-14.76,.11-.1,.23-.31,.39-.34,6.52-1.56,6.75-1.35,6.75,5.31,0,4.26-1.15,8.07-4.03,11.57-.9-.56-1.74-1.09-2.83-1.78Z"/>
  <path class="cls-18" d="M258.69,160.62c-1.2,2.75-2.39,5.5-3.59,8.26-.27-.65-.55-1.29-.82-1.94,.55-1.37,1.09-2.75,1.64-4.12-.22-.28-.44-.55-.66-.83l-7.75,3.13c.08,.29,.15,.59,.23,.88,2.06,.35,4.12,.71,6.18,1.06-.59,.39-1.18,.78-1.77,1.17-.98-.19-1.97-.39-2.95-.58-1.18-.79-2.37-1.57-3.55-2.36,2.34-2.96,5.6-4.08,9.15-4.16,2.15-.05,3.03-.8,2.96-2.86,.31,.78,.62,1.56,.93,2.35Z"/>
  <path class="cls-7" d="M248.77,107.62c.16-1.25,.13-2.33,.48-3.29,.36-1,.88-2.36,1.68-2.67,1.45-.57,2.94-.66,4.04,1.37,2.37,4.36,2.54,4.28-2.36,4.58-1.23,.07-2.47,.01-3.84,.01Z"/>
  <path class="cls-4" d="M259.5,156.77c-.54-2.78,2.78-8.25,6.54-10.36,0,2.03,.06,3.93-.04,5.82-.02,.49-.4,1.16-.81,1.4-1.86,1.11-3.8,2.11-5.69,3.13Z"/>
  <path class="cls-12" d="M220.92,52.13c-7.25,.78-14.49,1.56-21.74,2.33-.38,.04-.77,.01-1.16,.02,.91-.65,1.74-1.63,2.75-1.87,1.76-.42,3.62-.39,5.44-.55,3.54-.4,7.09-.79,10.63-1.19,0,0-.03,.01-.03,.01,1.35-.02,2.7-.05,4.05-.07,.02,.44,.04,.88,.06,1.32Z"/>
  <path class="cls-7" d="M219.21,147.63c1.26-4.86,2.52-9.72,3.78-14.58,.32,.07,.63,.14,.95,.21,.64,2.6,1.21,5.11-.64,7.67-1.53,2.11-2.76,4.44-4.12,6.67,0,0,.03,.03,.03,.03Z"/>
  <path class="cls-6" d="M230.07,165.36h-6.56c-.55-2.21,0-4.12,1.91-5.21,1.4-.8,3.78,1.95,4.65,5.21Z"/>
  <path class="cls-4" d="M265.17,129.95c.19-.33,.39-.65,.73-1.25,1.76,2.97,4.28,5.55,.74,9.42-.52-1.24-1.01-2.38-1.49-3.52-.07-.39-.14-.78-.21-1.16,0-.57-.01-1.15-.02-1.72,.08-.59,.16-1.17,.24-1.76Z"/>
  <path class="cls-7" d="M220.45,109.2c1.31-2.83,2.33-5.04,3.45-7.47q2.79,3.74-3.45,7.47Z"/>
  <path class="cls-8" d="M242.68,167.37c-2.73,1.09-5.44,2.93-8.16-.16,3.11-1.65,5.77-1.58,8.16,.16Z"/>
  <path class="cls-18" d="M232.67,160.56c.76-3.14,1.53-6.29,2.29-9.43,.22,0,.44,.01,.67,.02-.74,3.6-1.48,7.2-2.23,10.8-.24-.46-.49-.93-.73-1.39Z"/>
  <path class="cls-12" d="M165.64,59.15c-1.76,.92-3.52,1.85-6.05,3.18,2.16,.99,3.47,1.59,4.78,2.2l-.14,.59c-.77-.11-1.65-.02-2.28-.37-.97-.54-2.38-1.3-2.49-2.12-.11-.8,1.11-1.85,1.88-2.67,.51-.54,1.26-.87,1.9-1.29,.65-1.21,.84-1.17,2.4,.48Z"/>
  <path class="cls-4" d="M260.98,115.17c-.22-.59-.44-1.17-.65-1.76-.36-.62-.71-1.25-1.07-1.87,.11-1.76,.95-1.64,2.04-.78,2.11,1.66,2.49,3.73,1.44,6.13-.58-.57-1.17-1.15-1.75-1.72Z"/>
  <path class="cls-14" d="M241.65,49.24c-2.61,.33-5.22,.65-7.84,.98-.35-.29-.71-.58-1.86-1.52,3.52-.31,6.24-.55,8.95-.79h.05c.23,.45,.46,.89,.69,1.33Z"/>
  <path class="cls-12" d="M167.38,57.26c1.45-.32,2.89-.64,4.34-.96,.38,.6,.76,1.19,.97,1.52-1.81,.35-4.16,.8-6.5,1.24-.99-1.52,.13-1.65,1.19-1.8Z"/>
  <path class="cls-4" d="M277.26,144.34c.69,1.13,1.38,2.27,2.06,3.4-.65,.76-1.29,1.52-1.94,2.28l-1-.32c.29-1.79,.58-3.58,.87-5.37Z"/>
  <path class="cls-9" d="M216.84,50.86c-3.54,.4-7.09,.79-10.63,1.19,3.54-.4,7.09-.79,10.63-1.19Z"/>
  <path class="cls-9" d="M240.9,47.91c3.5-.45,7-.89,10.5-1.34,.07,.1,.14,.2,.2,.29-3.55,.35-7.1,.71-10.65,1.06h-.05Z"/>
  <path class="cls-18" d="M260.98,115.17c.58,.57,1.17,1.15,1.75,1.72-.22,.47-.44,.95-.66,1.42-.57-.65-1.14-1.3-1.71-1.95,.21-.4,.41-.8,.62-1.2Z"/>
  <path class="cls-9" d="M220.86,50.81c-1.35,.02-2.7,.05-4.05,.07,1.35-.02,2.7-.05,4.05-.07Z"/>
  <path class="cls-18" d="M264.95,133.44c.07,.39,.14,.78,.21,1.16-.22,.6-.44,1.19-.66,1.79-.2-.97-.4-1.95-.6-2.92l1.06-.03Z"/>
  <path class="cls-18" d="M265.17,129.95c-.08,.59-.16,1.17-.24,1.76-.36,0-.71-.02-1.07-.03,.06-.6,.13-1.19,.19-1.79,.37,.02,.75,.04,1.12,.05Z"/>
  <path class="cls-18" d="M259.25,111.53c.36,.62,.71,1.25,1.07,1.87-.36-.62-.71-1.25-1.07-1.87Z"/>
  <path class="cls-17" d="M268.78,95.09c-.07-.58-.14-1.16-.21-1.74,.07,.58,.14,1.16,.21,1.74Z"/>
  <path class="cls-17" d="M278.22,118.09c.11-.63,.22-1.26,.33-1.9-.11,.63-.22,1.26-.33,1.9Z"/>
  <path class="cls-15" d="M192.49,176.44c.65-.14,1.3-.28,1.95-.41-.65,.14-1.3,.28-1.95,.41Z"/>
  <path class="cls-17" d="M264.37,166.44c.21-.68,.42-1.36,.62-2.03-.21,.68-.42,1.36-.62,2.03Z"/>
  <path class="cls-18" d="M265.14,137.98c-.15-.32-.3-.65-.45-.97,.15,.32,.3,.65,.45,.97Z"/>
  <path class="cls-15" d="M184.52,176.78c.3,.08,.6,.15,.89,.23-.3-.08-.6-.15-.89-.23Z"/>
  <path class="cls-15" d="M157.16,178.34c-.42,0-.83,0-1.25,0,.42,0,.84,0,1.25,0Z"/>
  <path class="cls-15" d="M172.25,175.96c-.24,.11-.49,.23-.73,.34,.24-.12,.49-.23,.73-.34Z"/>
  <path class="cls-15" d="M194.85,175.84c.25-.07,.5-.14,.75-.21-.25,.07-.5,.14-.75,.21Z"/>
  <path class="cls-18" d="M258.53,108.53c-.18-.14-.36-.28-.54-.42,.18,.14,.36,.28,.54,.42Z"/>
  <path class="cls-15" d="M198.06,174.75c.17-.16,.35-.32,.52-.49-.17,.16-.35,.32-.52,.49Z"/>
  <path class="cls-10" d="M219.17,147.59c-.02,.09-.02,.19-.06,.26-.02,.03-.12,.02-.19,.03,.09-.08,.19-.17,.28-.25,0,0-.03-.03-.03-.03Z"/>
  <path class="cls-17" d="M278.86,121.13c-.07,.2-.14,.39-.21,.59,.07-.2,.14-.39,.21-.59Z"/>
  <path class="cls-17" d="M269.88,96c-.01,.33-.03,.66-.04,1,.01-.33,.03-.66,.04-1Z"/>
  <path class="cls-18" d="M264.23,128.71c.08-.21,.16-.42,.24-.62-.08,.21-.16,.42-.24,.62Z"/>
  <path class="cls-17" d="M264.07,167.06c.11-.23,.23-.45,.34-.68-.11,.23-.23,.45-.34,.68Z"/>
  <path class="cls-12" d="M196.52,54.69c-.28,.12-.57,.24-.85,.36,.28-.12,.57-.24,.85-.36Z"/>
  <path class="cls-18" d="M243.91,166.15c.19-.04,.37,0,.53,.11-.18-.04-.35-.08-.53-.11Z"/>
  <path class="cls-10" d="M224.03,74.94c.04,.14,.09,.28,.13,.42-.15-.03-.3-.07-.45-.1,.1-.11,.21-.21,.32-.32Z"/>
  <path class="cls-15" d="M158.87,178.34c-.41,0-.82,0-1.23,0,.41,0,.82,0,1.23,0Z"/>
  <path class="cls-12" d="M263.91,46.68c.94-.49,1.84-1.29,2.82-1.43,5.38-.74,10.77-1.35,16.17-1.91,.43-.04,.92,.54,1.38,.83-6.79,.84-13.59,1.68-20.38,2.51Z"/>
  <path class="cls-12" d="M240.96,47.92c3.55-.35,7.1-.71,10.65-1.06,1.07,.17,2.13,.35,3.2,.52-4.39,.62-8.78,1.24-13.16,1.86-.23-.44-.46-.88-.69-1.32Z"/>
  <path class="cls-12" d="M294.51,42.94c1.92-.53,3.82-1.23,5.78-1.53,2.37-.36,4.8-.36,7.2-.52-.85,.37-1.67,.97-2.55,1.08-3.47,.41-6.95,.66-10.43,.97Z"/>
  <path class="cls-8" d="M115.02,168.14c2.95-.34,5.89-.68,8.84-1.03,2.26,.57,4.52,1.13,6.96,1.75-7.81,7.03-26.08,10.49-33.1,5.98,6-2.33,11.65-4.51,17.3-6.7Z"/>
  <path class="cls-8" d="M156.25,169.51c-8.55,3.06-15.93,7.31-24.52,7.34-2.59,0-5.19-1.01-7.74-2.03,9.99-5.3,19.92-10.1,32.27-5.3Z"/>
  <path class="cls-8" d="M125.68,181.17c.17,.4,.35,.8,.52,1.2-6.62,1.31-13.26,1.94-19.95,.54-4.06-1.69-8.55-2.58-12.07-6.76,1.31,.07,2.22-.16,2.78,.18,6.06,3.67,12.29,2.63,18.64,1.02,1.19-.3,2.73,.13,3.93,.64,2.12,.89,4.11,2.1,6.15,3.18Z"/>
  <path class="cls-8" d="M132.11,182.27c-1.86-.67-3.72-1.35-5.59-2.02-2.31-1.3-4.63-2.6-6.94-3.9,.12-.33,.24-.66,.36-1,.9,.19,1.91,.19,2.69,.6,5.51,2.9,11.17,3.08,17.03,1.28,.84-.26,2.04-.25,2.75,.17,2.65,1.58,5.16,3.38,8.17,5.4-2.17,.26-4.02,.47-5.88,.69-.37,0-.75,0-1.12,0-2.06-.12-4.13-.25-6.19-.37-1.76-.28-3.52-.56-5.28-.85Z"/>
  <path class="cls-8" d="M193.2,166.52c-2.09,.76-4.14,1.56-6.23,2.25-.51,.17-1.17,.19-1.68,.02-3.66-1.21-7.31-2.48-10.85-3.69,3.71-4.13,14.95-3.46,18.76,1.41Z"/>
  <path class="cls-8" d="M123.98,165.91c-.7-.16-1.41-.32-2.56-.57,5.08-3.96,10.23-3.67,15.54-2.19,1.3,.84,2.59,1.68,3.89,2.52-3.55,1.1-6.64,3.75-10.67,1.71-1.84-.94-4.12-1.01-6.2-1.47Z"/>
  <path class="cls-8" d="M161.52,162.95c1.43,.74,2.86,1.47,4.29,2.21,.04,.36,.14,1.03,.1,1.04-3.3,.73-6.22,3.24-10.04,1.61-2.56-1.09-5.43-1.46-8.79-2.31,1.89-.94,3.46-1.72,5.03-2.51,3.14-.01,6.27-.03,9.41-.04Z"/>
  <path class="cls-6" d="M200.42,159.55c1.66-.93,3.32-1.87,5.03-2.83,2.2,7.23,1.68,8.89-2.69,9.35-.4-.02-.81-.04-1.21-.06-1.17,0-2.35,0-3.52,0,.8-2.15,1.59-4.3,2.39-6.44Z"/>
  <path class="cls-8" d="M113.17,164.76c.58,.69,1.17,1.37,1.75,2.06-.75,.2-1.53,.34-2.26,.6-2.37,.84-4.48,.84-6.94-.31-2.59-1.21-5.63-1.48-8.3-2.11,2.51-2.37,8.19-2.53,15.75-.24Z"/>
  <path class="cls-13" d="M198.03,165.99c1.17,0,2.35,0,3.52,0,0,.53,0,1.07-.01,1.6-.98,0-1.96,0-2.94,0-.19-.53-.38-1.07-.57-1.6Z"/>
  <path class="cls-18" d="M143.59,183.49c.37,0,.74,0,1.12,0-.37,0-.74,0-1.12,0Z"/>
  <path class="cls-15" d="M201.53,167.6c0-.53,0-1.07,.01-1.6,.4,.02,.81,.04,1.21,.06,1.36,.14,2.72,.27,4.07,.41,0,.16,.01,.32,0,.47-1.77,.22-3.53,.44-5.3,.65Z"/>
  <path class="cls-11" d="M208.54,165.29c.42,.21,.84,.42,1.26,.63-.42-.21-.84-.42-1.26-.63Z"/>
  <path class="cls-13" d="M254.28,166.94c.27,.65,.55,1.29,.82,1.94-.4,.77-.8,1.54-1.21,2.32-.22-.44-.43-.87-.65-1.31-.37-.55-.74-1.1-1.1-1.65,.59-.39,1.18-.78,1.77-1.17,.1-.11,.23-.15,.37-.12Z"/>
  <path class="cls-13" d="M284.57,149.37c-.02-1.76-.03-3.52-.05-5.29,1.6,1.5,1.62,3.67,.05,5.29Z"/>
  <path class="cls-12" d="M174.46,182.72c-.24,.05-.48,.11-.72,.16,.24-.05,.48-.11,.72-.16Z"/>
  <path class="cls-7" d="M208.59,147.03c.59,.53,1.48,.94,1.72,1.6,.88,2.35,1.5,4.8,2.29,7.19,.44,1.34,1.22,2.6,1.47,3.97,.22,1.17-.1,2.44-.18,3.66l-.87,.16c.61,.29,1.22,.59,2.6,1.25-1.65,.47-2.6,.74-3.55,1-7.09-5.18-4.56-12.14-3.48-18.83Z"/>
  <path class="cls-10" d="M208.86,144.67c.06,.14,.13,.28,.16,.43,0,.04-.12,.1-.18,.15,0-.19,.02-.39,.03-.58Z"/>
  <path class="cls-15" d="M116.19,166.58h1.25c0,.1,.02,.2,.02,.29-.43,.06-.85,.12-1.28,.17v-.47Z"/>
  <path class="cls-18" d="M213.63,183.48c.36,0,.72,0,1.08,0-.36,0-.72,0-1.08,0Z"/>
  <path class="cls-15" d="M208.64,182.97c-.41,.18-.83,.37-1.24,.55-.04-.14-.08-.27-.13-.41,.45-.05,.9-.1,1.34-.15,0,0,.02,0,.02,0Z"/>
  <path class="cls-13" d="M263.86,131.68c.36,0,.71,.02,1.07,.03,0,.58,.01,1.15,.02,1.72-.35,.01-.7,.02-1.06,.03,0,0,0,0,0,0-.01-.25-.03-.49-.04-.74,0-.35,0-.7,.01-1.05Z"/>
  <path class="cls-18" d="M263.85,132.73c.01,.25,.03,.49,.04,.74-.06-.17-.14-.33-.17-.5-.01-.07,.08-.16,.12-.24Z"/>
  <path class="cls-2" d="M254.28,166.94c-.15-.03-.27,.01-.37,.12-2.06-.35-4.12-.71-6.18-1.06-.08-.29-.15-.59-.23-.88l7.75-3.13c.22,.28,.44,.55,.66,.83-.55,1.37-1.09,2.75-1.64,4.12Z"/>
  <text class="cls-1" transform="translate(277.75 74.11)"><tspan x="0" y="0">1 bính</tspan></text>
</svg>