<?xml version="1.0" encoding="UTF-8"?>
<svg id="Layer_1" data-name="Layer 1" xmlns="http://www.w3.org/2000/svg" viewBox="0 0 414 200">
  <defs>
    <style>
      .cls-1 {
        fill: #f7b7d3;
      }

      .cls-2 {
        fill: #00bff3;
      }

      .cls-3 {
        fill: #ede3cd;
      }

      .cls-4 {
        fill: #fff9b8;
      }

      .cls-5 {
        fill: #fff200;
      }

      .cls-6 {
        fill: #fbb040;
      }

      .cls-7 {
        fill: #9ed2f1;
      }

      .cls-8 {
        fill: #bbac98;
      }

      .cls-9 {
        fill: #727272;
      }

      .cls-10 {
        fill: #47423d;
      }

      .cls-11 {
        fill: #34302e;
      }

      .cls-12 {
        fill: #57534f;
      }
    </style>
  </defs>
  <path class="cls-6" d="M177.1,11.27c.74,4.71,1.23,9.49,2.23,14.12,.75,3.49,1.17,7.12,1.95,10.59,1.16,5.18,1.94,10.53,3.43,15.58,1.13,3.82,1.94,7.83,3,11.7,.91,3.3,1.83,6.62,3,9.74,1.47,3.93,2.92,7.87,4.61,11.66,3.42,7.69,7.48,14.42,12.8,19.54,.38,.36,1.01,.46,.91,1.31-.08,.7-.67,.56-1.03,.74-1.77,.88-3.61,3.2-5.25,2.47-2.2-.97-3.9-3.82-5.6-6.21-4.18-5.86-7.44-12.76-10.35-19.88-1.83-4.47-3.5-9.18-4.75-14.13-1.06-4.18-2.54-8.16-3.52-12.38-1.63-7-3.29-13.99-4.58-21.15-.98-5.4-1.81-10.85-2.81-16.24-.45-2.43-.86-4.83-1.11-7.3,2.35-.63,4.72-.35,7.08-.16Z"/>
  <path class="cls-4" d="M255.22,86.21c.09,.04,.15-.01,.18-.14,.85-.35,1.71-.65,2.55-1.07,7.12-3.51,14.23-7.05,21.35-10.57,1.72-.72,3.46-1.38,5.05-2.61,6.56-3.18,13.12-6.34,19.67-9.54,5.88-2.87,11.75-5.77,17.62-8.66,1.72,2.12,1.57,4.97,1.52,7.79-5.5,3.29-11.21,5.73-16.83,8.52-11.74,5.8-23.47,11.62-35.2,17.44-4.89,2.43-9.77,4.89-14.65,7.33-.13,.1-.27,.21-.4,.31-.35,0-.72,.14-1.01-.31h0c-.59-1.74-1.25-3.46-1.26-5.47,0-.96-.18-2.03,.54-2.71,.33,.12,.65,.14,.88-.31Z"/>
  <path class="cls-7" d="M186.83,169.42c.87,.64,1.7,0,2.52-.15,4.15-.71,8.27-.95,12.24,1.46,.43,.26,.84,.61,1.28,.85,.41,.22,.85,.49,.87,1.11,.03,.86-.59,.62-.94,.77-6.38,2.78-12.69,5.97-19.27,7.64-3.73,.95-7.55,1.5-11.02-1.72-.09-.09-.27-.05-.33-.15-.56-.94-1.8-1.46-1.73-2.6,.08-1.2,1.34-.95,2.08-1.31,1.06-.51,2.14-.92,3.21-1.38,.43,.16,.8,.18,.86-.65,0,0,.01-.03,.01-.03,.24-.17,.49-.34,.73-.51,3.5,3.02,4.85,2.59,7.66-2.1"/>
  <path class="cls-7" d="M88.26,177.19c1.67-.61,2.99,.56,4.44,1.53,4.16,2.79,8.69,3.1,13.04,1.87,3.69-1.04,6.82-.67,9.83,2.52,.86,.92,1.95,1.41,3.25,2.32-2.44,1.01-4.63,1.34-6.8,1.66-6.47,.94-12.87,.72-19.05-2.76-1.63-.92-2.94-2.81-4.78-3.03,.02-1.37,.05-2.74,.07-4.12Z"/>
  <path class="cls-11" d="M174.73,161.33c-.7,.02-1.14-.28-1.32-1.62-.93-6.72-2.54-13.21-3.3-19.99-.16-1.43-.72-2.26-1.86-1.86-.34,.12-.71,.2-1.06,.17-.67-.05-1.51,.74-1.99-.28-.49-1.05,.45-1.68,.65-2.53,.75-3.15,1.88-6.03,2.92-8.97,.5-1.4,.94-1.48,1.72-.39,2.11,2.95,3.72,6.51,5.95,9.32,.64,.8,.32,1.56-.64,1.76-3.32,.67-3.47,.75-2.8,5.36,.83,5.75,1.83,11.47,2.96,17.12,.4,2.01-.3,1.82-1.23,1.92Z"/>
  <path class="cls-11" d="M189.06,161.03c-1.42,3.15-2.31,6.73-4.05,9.63-2.82,4.69-4.17,5.12-7.66,2.1,.46-1.95,1.5-.83,2.18-.63,1.33,.38,2.3,.14,2.85-1.77,1.58-2.18,2.52-4.94,3.49-7.68,2.33-7.77,4.82-15.46,6.17-23.74,.17-1.05,.73-1.83,.94-2.92,.26-1.35,1.06-.45,1.64-.31,.94,.24,.71,1.3,.51,1.97-1.06,3.54-1.77,7.23-2.59,10.88-.78,3.49-1.79,6.89-2.72,10.31-.2,.75-.5,1.45-.76,2.18Z"/>
  <path class="cls-7" d="M88.26,167.57c3.73-.14,7.46-.19,10.92,2.31,.25,.18,.49,.4,1.04,.84-4.16,2.06-8.21,3.33-12.02,5.55-.71-2.91,.53-5.79,.06-8.7Z"/>
  <path class="cls-12" d="M321.65,53.62c-5.87,2.89-11.74,5.79-17.62,8.66-6.55,3.2-13.11,6.36-19.67,9.54-.01-.29-.02-.57-.03-.86,4.83-2.39,9.67-4.74,14.48-7.23,.52-.27,1.52,.02,1.53-1.48,0,0,0,0,0,0,.44,.52,.92,.25,1.35,.05,3.18-1.54,6.33-3.18,9.52-4.68,3.46-1.63,6.83-3.67,10.38-4.93,.03,.31,.06,.61,.09,.92Z"/>
  <path class="cls-4" d="M321.56,52.7c-3.55,1.26-6.91,3.3-10.38,4.93-3.19,1.5-6.34,3.14-9.52,4.68-.42,.21-.91,.47-1.35-.05,2.55-2.05,5.41-2.95,8.13-4.38,4.4-2.32,8.84-4.5,13.27-6.73,.36,.61,.23,1.11-.16,1.55Z"/>
  <path class="cls-7" d="M105.33,165.61c-1.68-.07-3.38,.54-5.04-.29,1.4-1.05,4.08-.89,5.04,.29Z"/>
  <path class="cls-7" d="M88.55,183.03c.39-.07,.71,.07,.87,.64-.48,.31-.78,.13-.87-.64Z"/>
  <path class="cls-3" d="M324.57,62.25c-.08-.24-.16-.48-.24-.72,.26-.13,.6-.35,.73,.12,.17,.62-.24,.54-.5,.59Z"/>
  <path class="cls-8" d="M321.41,50.44c-.27,0-.53-.01-.8-.02,.28-.79,.54-.79,.8,.02Z"/>
  <path class="cls-12" d="M253.62,176.82c-.03-.15,0-.29,.07-.4,.07,.17,.05,.3-.07,.4Z"/>
  <path class="cls-6" d="M257.87,103.36c.02,1.96,1.09,3.46,1.16,5.39,.05,1.27,.09,2.69-.79,3.36-.65,.5-1.22-.52-1.81-.94-2.52-1.78-4.47-4.71-6.88-6.73-.96-.81-1.09-3.22-2.3-4.17-.59-1.62-1.2-3.24-2.21-4.43-.39-2.97-.99-5.88-.8-8.98,.33-5.4,2.37-9.05,6.1-10.3,5.2-1.75,8-.9,10.21,3.27-1.29,1.04-2.67,1.69-4.07,2.22-3.75,1.41-5.42,5.39-3,11.63,.31,.8,.39,1.77,.87,2.45,1.17,2.41,2.34,4.83,3.52,7.24Z"/>
  <path class="cls-7" d="M126.41,171.48c-7.86,3.7-15.35,7.37-23.34,8.17-3.54,.36-6.97-.23-10.21-2.46-.33-.23-.7-.39-.72-.97-.02-.56,.37-.53,.63-.64,8.15-3.47,16.21-7.55,24.9-7.28,2.96,.09,5.89,.56,8.74,3.2Z"/>
  <path class="cls-7" d="M150.97,171.3c-8.01,3.15-15.77,7.58-24.06,9.24-3.5,.7-6.84-.33-9.97-3.15,7.49-3.28,14.58-7.18,22.07-9.25,0,0,.02,.02,.02,.02,2.75-.15,5.49-.81,8.23,.02,1.31,.4,2.64,.75,3.68,2.11,0,.34,.02,.67,.03,1.01Z"/>
  <path class="cls-6" d="M210.46,114.21c2.15-3.63,3.03-7.78,3.96-11.94,1.2-5.33,2.81-10.22,7.19-11.7,3.43-1.16,6.55-.32,9.39,2.58,.79,.81,.68,1.39-.27,1.82-1.51,.69-3,1.52-4.49,2.27-2.72,1.37-3.95,4.67-5.1,8.03-.48,1.41-.68,2.95-1.22,4.38-1.77,4.72-4.32,6.46-8.1,5.11-.4-.14-.79-.32-1.37-.55Z"/>
  <path class="cls-7" d="M204.84,183.19c-3.16-.12-6.06-1.19-8.6-3.98-.52-.58-.96-.95,.09-1.37,7.64-3.07,15.08-7.39,23.21-7.38,2.02,0,4,.39,5.9,1.47,.34,.19,.73,.42,.69,.98-.02,.29-.36,.63-.6,.77-5.53,3.25-10.84,7.32-16.81,8.87-1.28,.33-2.58,.43-3.88,.63Z"/>
  <path class="cls-7" d="M174.09,173.01c-5.72,2.32-11.23,5.63-17.08,7.32-4.36,1.26-8.57,1-12.37-2.85-.34-.34-.82-.52-.81-1.16,0-1.01,.69-.7,1.09-.87,5.83-2.43,11.66-4.87,17.7-6,4.21-.79,8.36-.73,12.22,2.33-.25,.41-.49,.82-.74,1.23Z"/>
  <path class="cls-1" d="M248.99,176.28c.76-.14,1.52-.29,2.28-.41,.33-.05,.76-.31,.92,.32,.14,.54-.19,.82-.45,1.19-3.1,4.55-6.99,6.91-11.2,8.52-1.72,.66-3.54,.48-5.2,1.47-4.38,.05-8.77,.54-13.07-1.35-2.32-1.02-4.4-2.61-6.48-4.54,1.89-1.81,3.38-2.32,5.42-.19,2.6,2.73,5.86,2.21,8.94,1.59,3.94-.8,7.77-2.06,10.91-5.92,.59-.72,1.36-.43,2.06-.46,1.96-.08,3.91-.15,5.87-.22Z"/>
  <path class="cls-2" d="M251.18,108.15c3.08,2.89,6.19,5.71,9.23,8.68,1.95,1.91,3.33,4.56,4.31,7.64,.88,2.75,1.68,5.51,1.47,8.62-.06,.9-.01,1.96-.77,2.35-.67,.35-.89-.6-1.24-1.11-3.43-4.84-7.64-8.42-10.84-13.63-2.04-3.32-3.65-7.02-4.49-11.32,.81-.31,1.97,.74,2.33-1.25Z"/>
  <path class="cls-1" d="M220.78,178.44c7.17-4.61,14-10.09,21.98-10.9,.52-.05,1.17-.49,1.51,.2,.43,.86-.39,1.22-.61,1.83-2.8,7.82-7.67,10.8-13.44,11.81-2.6,.46-5.17,1.01-7.66-.76-.66-.47-1.23-.96-1.79-2.18Z"/>
  <path class="cls-2" d="M256.88,156.1c-.78,9.03-4.41,16.27-10.92,16.5-1.7,.06-2.01-.38-.97-2.34,1.95-3.69,2.19-8.26,3.54-12.25,1.26-3.72,2.71-7.13,5.04-9.68,.22,.14,.42,.32,.65,.41q2.63,.98,2.62,4.85c0,.84,.03,1.68,.05,2.52Z"/>
  <path class="cls-2" d="M257.6,128.54c3.45,4.42,7.44,7.28,8.35,13.83,.79,5.72-2.42,12.67-6.49,14.27-.89,.35-1.35,.08-1.08-1.23,.91-4.39-.4-8.52-.68-12.77-.15-2.23-.25-4.48-.68-6.67-.45-2.31,.57-4.38,.58-7.44Z"/>
  <path class="cls-7" d="M145.37,185.8c-2.71,.42-5.42,.92-8.13,1.25-6.95,.84-13.71-.19-20.11-4.45-1.22-.81-2.37-1.81-3.54-2.75-.19-.15-.3-.49-.52-.86,1.24-.92,2.2-.89,3.46,.13,4.4,3.56,9.15,3.56,13.95,2.06,2.3-.72,4.58-1.65,6.85-2.53,1.04-.4,1.8-.19,2.71,.92,1.63,1.99,3.41,3.77,5.43,4.96,.17,.47,.06,.88-.12,1.28Z"/>
  <path class="cls-4" d="M245.23,99.27c-.11,1.14-.82,1.03-1.34,1.3-6.74,3.38-13.78,5.13-20.65,7.81-.9,.35-1.63,.29-1.02-1.5,.83-2.46,1.32-5.35,3.64-5.99,5.7-2.76,11.4-5.52,17.1-8.29,.33,1.78,.96,3.34,1.72,4.8,.19,.62,.37,1.25,.56,1.87Z"/>
  <path class="cls-7" d="M165.05,178.81c.51-.27,.8-.37,1.04-.56,1.59-1.2,2.82-1.05,4.29,.88,3.43,4.5,7.76,4.45,12.05,3.61,2.51-.5,4.98-1.4,7.46-2.22,.75-.25,1.28-.21,1.92,.57,1.33,1.62,2.85,2.89,4.44,3.96,.32,.21,.7,.33,.61,1-.06,.43-.36,.35-.58,.4-7.17,1.68-14.34,2.62-21.47-.34-3.52-1.45-6.71-3.79-9.76-7.31Z"/>
  <path class="cls-7" d="M169.14,187.54c-3.92,.44-7.85,.69-11.78,.21-1.87-.45-3.74-.89-5.61-1.34-.11-.22-.23-.36-.42-.16-4.07-1.77-7.81-4.4-11.03-8.63,.91-.95,1.68-.89,2.55,.07,4.78,5.28,10.24,5.99,15.74,3.51,3.59-1.62,6.45-1.32,9.25,2.26,1.03,1.32,2.43,1.98,3.8,2.5,.12,.15,.24,.3,.36,.45-.71,1.61-1.94,.57-2.86,1.13Z"/>
  <path class="cls-2" d="M271.39,125.65c.06,4.41-.21,8.25-2.69,11.02-.48,.54-1.05,.74-1.52,1.24-.28,.3-.7,.47-.97,0-.42-.74,.2-.84,.41-1.27,1.57-3.21,1.01-6.59,.17-9.86-.77-3.02-1.73-5.94-3.38-8.26-.51-.72-.38-1.51,.06-2.25,1.18-1.97,1.98-4.22,2.53-6.69,.31-1.39,.74-.89,1.21-.06,2.75,4.83,4.49,10.15,4.18,16.14Z"/>
  <path class="cls-6" d="M257.3,95.79c2.11-1.06,4.22-2.11,6.32-3.21,.79-.41,1.09-.14,1.36,1.04,1.72,7.51,.41,14.36-2.07,21.01-.5,1.34-1.21,1.59-1.97,.68-.6-.73-2.13-.91-.94-3.09,.82-1.5,.6-3.68,.17-5.31-.32-1.19-.56-2.53-1.11-3.61-1.02-2.3-1.32-4.94-1.76-7.52Z"/>
  <path class="cls-6" d="M248.39,117.47c-6.12-.78-11.45-3.79-16.03-9.39-.23-.28-.55-.45-.45-.94,.1-.47,.46-.42,.74-.52,1.94-.72,3.88-1.44,5.82-2.18,.83-.32,1.51,.09,2.14,.77,1.38,1.48,2.92,2.74,4.53,3.33,2.1,.76,2.82,2.8,3.43,5.25,.14,.55,.31,1.09,.45,1.65,.16,.66,1.08,.95,.58,1.81-.21,.36-.88,.19-1.22,.24Z"/>
  <path class="cls-4" d="M211.32,108.34c-.25,2.32-1.13,4.07-2.54,5.22-.58,.47-1.2,.78-1.18,1.92,.02,1.07,.64,1.25,1.16,1.64,.82,.62,1.61,1.34,2.54,2.13-1.6,1.73-3.44,1.81-5.17,2.25-2.98,.76-6,1.05-8.95-.21-1.69-.72-1.85-2.04-.75-4.01,2.09-3.75,5.02-5.59,7.99-7.36,.24,.13,.57-.03,.7,.47-.64,.55-1.25,1.18-1.92,1.65-1.58,1.11-2.96,2.6-4.22,4.33-.53,.73-.77,1.57-.28,2.44,.8,1.44,5.03,1.61,6.54-.07-1.74,0-3.15,.03-4.55-.02-.4-.01-.86-.12-1.04-.78-.19-.72,.23-.96,.54-1.37,3.19-4.18,7.16-6.21,11.14-8.23Z"/>
  <path class="cls-2" d="M271.78,133.68c2.07,9.38-.02,18.11-5.75,22.73-2.19,1.77-4.52,2.76-6.95,3.47-.4,.12-.9,.4-1.05-.37-.16-.82,.28-1.19,.81-1.3,3.55-.74,5.84-3.77,7.57-8.04,1.1-2.74,1.04-5.62,.86-8.52-.09-1.46,.07-2.18,1.1-2.83,1.43-.9,2.68-2.33,3.42-5.15Z"/>
  <path class="cls-7" d="M220.73,186.88c-8.4,2.21-16.66,2.6-24.43-3.49-1.02-.8-2.01-1.67-2.99-2.56-.28-.25-.68-.67-.53-1.19,.17-.61,.68-.7,1.08-.57,.39,.12,.81,.34,1.12,.7,4.41,5.13,9.51,5.83,14.73,3.89,3-1.12,5.59-1.61,8.16,1.36,.79,.91,1.9,1.26,2.86,1.86Z"/>
  <path class="cls-2" d="M252.89,170.75c1.82-1.57,2.89-4,3.71-6.67,.46-1.49,1.05-2.41,2.28-2.69,2.03-.47,4.07-1.09,5.93-2.49,.26-.2,.58-.38,.82-.05,.32,.42,.17,1,0,1.4-2.69,6.72-6.5,11.42-11.91,13.17-1.17-.33-.76-1.65-.83-2.67Z"/>
  <path class="cls-4" d="M300.32,62.27c-.01,1.5-1.01,1.21-1.53,1.48-4.8,2.49-9.65,4.84-14.48,7.23-1.85,.78-3.74,1.43-5.45,2.75-4.62,2.24-9.25,4.45-13.86,6.72-3.21,1.58-6.41,3.25-9.61,4.87-.34,.07-.68,.14-1.48,.3,2.04-2.21,4.12-2.74,6.02-3.71,9.53-4.85,19.1-9.54,28.66-14.28,3.28-1.63,6.56-3.24,9.84-4.84,.61-.29,1.21-.7,1.89-.52Z"/>
  <path class="cls-7" d="M200.98,168.52c4.51-2.04,8.95-2.14,13.59,.53-1.1,1.07-2.19,.84-3.15,1.22-.79,.31-1.7,.27-2.4,.79-3.23,2.41-5.43-1.2-8.04-2.55Z"/>
  <path class="cls-1" d="M235.53,167.79c-2.35,1.31-4.54,2.52-6.72,3.76-.45,.26-.87,.53-1.35,.16-1.44-1.12-3-1.81-4.62-2.5,2.34-3.05,9.13-3.83,12.69-1.42Z"/>
  <path class="cls-7" d="M129.51,165.8c1.59,.51,3.22,.83,5.13,2.14-2.42,1-4.46,1.85-6.5,2.66-.21,.08-.51,.02-.69-.14-1.91-1.72-4.01-2.7-6.52-3.17,1.15-1.15,2.22-.9,3.1-1.51,.33,.22,.67,.21,.99-.03,1.37,0,2.74,0,4.11,0,.13,.02,.25,.04,.38,.06Z"/>
  <path class="cls-2" d="M247.34,156.75c-.57,3-1.36,5.71-2.3,8.31-.53,1.48-1.71,.69-2.58,.92-.84,.22-2.06,1.03-2.51,.1-.41-.84,.66-2.05,1.06-3.1,.83-2.19,4.25-5.47,6.34-6.23Z"/>
  <path class="cls-12" d="M255.39,85.31c3.2-1.63,6.4-3.29,9.61-4.87,4.61-2.27,9.24-4.48,13.86-6.72,.15,.24,.29,.48,.44,.72-7.12,3.53-14.23,7.06-21.35,10.57-.84,.41-1.7,.71-2.55,1.07,0-.25,0-.51-.01-.76Z"/>
  <path class="cls-7" d="M153.63,170.47c-.94-.73-2.14-1.46-3.15-2.54-.51-.54,.19-.98,.54-1.08,2.82-.76,5.63-1.05,8.4,.44,.33,.18,.71,.31,.69,.95,0,.16-.21,.39-.34,.43-1.97,.59-3.94,1.15-6.14,1.79Z"/>
  <path class="cls-2" d="M255.56,138.38c.33,1.19,.25,2.25,.66,3.29,.49,1.26,.5,2.74-.91,3.29-1.53,.6-2.57,2.51-4.06,3.43-.06-3.48,2.08-8.44,4.31-10.01Z"/>
  <path class="cls-12" d="M211.32,108.34c-3.98,2.02-7.94,4.05-11.14,8.23-.31,.41-.73,.65-.54,1.37,.17,.66,.64,.76,1.04,.78,1.4,.05,2.81,.02,4.55,.02-1.52,1.68-5.75,1.51-6.54,.07-.49-.88-.25-1.71,.28-2.44,1.26-1.73,2.63-3.23,4.22-4.33,.67-.47,1.28-1.09,1.92-1.65,.37,.2,.66-.08,1-.26,1.8-.96,3.5-2.37,5.46-2.64-.08,.29-.17,.57-.25,.86Z"/>
  <path class="cls-7" d="M98.03,167.29c3.29-.81,6.52-.86,9.79,.82-1.69,.59-3.4,1.07-5.07,1.78-2.06,.87-3.04-2.07-4.72-2.61Z"/>
  <path class="cls-12" d="M242.94,92.6c-5.7,2.76-11.4,5.52-17.1,8.29-.01-.33-.03-.66-.04-1,.97-.49,2.05-.61,2.87-1.64,0,0-.02,.02-.02,.02,1.1,.04,2.01-.65,2.87-1.54,0,0-.01,.01-.01,.01,.74,.23,1.39-.27,2.05-.59,3.12-1.5,6.22-3.05,9.33-4.58,.02,.34,.04,.68,.05,1.02Z"/>
  <path class="cls-2" d="M253,127.98c.1-1.54-.72-3.76,.15-4.43,.71-.55,1.52,1.75,2.38,2.64,.91,.94,.91,4.92,0,5.77-.32,.3-.89,.45-1.12-.52-.19-.79-.48-1.52-.73-2.28,.02-.69-.2-1.09-.69-1.18Z"/>
  <path class="cls-2" d="M256.88,156.1c-.02-.84-.05-1.68-.05-2.52q0-3.87-2.62-4.85c-.23-.08-.43-.27-.65-.41,.78-1.33,1.92-2.71,2.93-2.1,.8,.48,1.06,2.63,.95,4.22-.13,1.89,.58,3.97-.57,5.66Z"/>
  <path class="cls-4" d="M242.89,91.58c-3.11,1.53-6.21,3.08-9.33,4.58-.66,.32-1.31,.81-2.05,.59,.57-1.73,1.91-1.54,2.88-2.14,2.36-1.47,4.85-2.51,7.3-3.69,.49-.24,1.18-.92,1.21,.67Z"/>
  <path class="cls-4" d="M211.57,107.48c-1.96,.27-3.66,1.68-5.46,2.64-.33,.18-.62,.46-1,.26-.12-.49-.46-.33-.69-.47,2.11-1.68,4.44-2.56,6.71-3.63,1.15-.55,.89,.35,.44,1.2Z"/>
  <path class="cls-2" d="M252.89,170.75c.07,1.02-.33,2.34,.83,2.67-.3,.2-.6,.41-.9,.61-1.28,.29-2.56,.57-3.84,.86,0,0,.03-.18,.03-.18,0-.3,0-.59,0-.89,1.44-.67,2.7-1.78,3.89-3.07Z"/>
  <path class="cls-2" d="M251.18,108.15c-.36,1.99-1.52,.94-2.33,1.25-.19-1.18-.62-2.84,.23-3.33,.93-.54,1.33,1.46,2.1,2.08Z"/>
  <path class="cls-2" d="M248.29,174.87c-1.41,.71-2.88,.44-4.33,.46-.36,0-.97,.29-.93-.61,.03-.82,.61-1.02,1.08-.84,1.17,.44,2.32,.23,3.48,.02,.23,.32,.47,.64,.7,.96Z"/>
  <path class="cls-4" d="M228.68,98.25c-.82,1.04-1.9,1.15-2.87,1.64,.53-2.05,1.72-1.77,2.87-1.64Z"/>
  <path class="cls-4" d="M231.53,96.73c-.86,.89-1.76,1.58-2.87,1.54,.71-1.43,1.71-1.79,2.87-1.54Z"/>
  <path class="cls-5" d="M183.69,164.47c-.69,.32-1.18,.75-1.1,2.03,.1,1.64-.23,2.93-1.69,2.9-.27,0-.06,.52-.03,.81-1.75-.49-3.49-.8-5.25,0-.76,.35-1.37-.47-2.01-.81-2.01-1.07-4.11-1.32-6.49-1.56,1.44-2.34,3.33-2.43,4.85-3.53,3.52-1.09,7.04-1.61,10.61-.46,.41,.13,.79,.25,1.12,.64Z"/>
  <path class="cls-10" d="M105.33,165.61c3.53,.83,6.99,1.96,10.67,1.33,2.18-.37,4.17-1.75,6.37-1.81,.13-.06,.27-.12,.4-.18,.25-.07,.5-.13,.75-.2,.3,.48,.53,.32,.72-.18,.17,0,.34,0,.51,0,.3,.11,.6,.16,.87-.16,.37,0,.75-.01,1.12-.02,.34,.4,.68,.4,1.02,0,.38,.04,.76,.08,1.14,.12,.25,.04,.5,.07,.75,.11,.33,.06,.66,.12,.99,.19,.32,.55,.73,.43,1.14,.32,1.26,.06,2.34,.89,3.46,1.58,.71,.44,1.42,.71,2.19,.61,.53,.27,1.05,.55,1.58,.82-7.49,2.07-14.58,5.98-22.07,9.25,3.13,2.82,6.47,3.85,9.97,3.15,8.29-1.66,16.05-6.09,24.06-9.24,.28,.01,.64,.16,.63-.48,0-.6-.38-.48-.65-.53-1.04-1.36-2.36-1.71-3.68-2.11-2.74-.83-5.49-.17-8.23-.02-.34-.31-.33-.74-.21-1.21,1.12-.16,2.25-.55,3.35-.43,3.92,.44,7.72-.73,11.56-1.52,2.75-.56,5.45,.12,7.87,2.13,1.65,1.37,3.07,.7,4.44-.57,1.33-1.23,2.67-2.4,4.24-2.89,.58,.19,1.29-.46,1.75,.52-1.52,1.1-3.4,1.19-4.85,3.53,2.38,.24,4.49,.49,6.49,1.56,.64,.34,1.24,1.15,2.01,.81,1.76-.8,3.5-.49,5.25,0,0,0,.06,.06,.06,.06-.06,.43-.24,.98-.52,.8-2-1.27-3.8-.09-5.63,.81-3.86-3.06-8-3.12-12.22-2.33-6.04,1.13-11.87,3.58-17.7,6-.4,.17-1.08-.14-1.09,.87,0,.64,.47,.82,.81,1.16,3.8,3.84,8.02,4.11,12.37,2.85,5.85-1.69,11.36-5,17.08-7.32,.84,.04,1.76-1.4,2.52,.25v.03c-.36,.05-.68,.18-.87,.65-1.07,.45-2.16,.87-3.21,1.38-.74,.36-2,.11-2.08,1.31-.08,1.14,1.17,1.66,1.73,2.6,.06,.11,.24,.07,.33,.15,3.47,3.23,7.29,2.67,11.02,1.72,6.58-1.67,12.89-4.86,19.27-7.64,.35-.15,.96,.09,.94-.77-.02-.62-.46-.89-.87-1.11-.44-.24-.85-.59-1.28-.85-3.97-2.41-8.09-2.16-12.24-1.46-.82,.14-1.65,.79-2.52,.15,.43-1.1,1.43-1.12,1.67-1.92,.47-1.56,.34-1.63,1.31-1.29,.49,1.45,1.41,1.19,2.3,1.27,4.28,.4,8.44-.66,12.64-1.62,3.84-.89,7.64-.17,11.21,2.52,1.6,1.21,3.37,1.12,5.09-.18,4.72-3.56,9.67-4.24,14.77-2,1.3,.57,2.15,.89,2.91-1.33,1.69-4.94,4.64-8.02,8.21-9.84,2.46-1.25,2.83-4.17,2.96-7.16,.21-4.83,2.24-8.08,4.6-10.88,1.28-1.52,1.45-2.17-.07-3.25-.42-.3-.65-.96-.77-1.64-.03-.63-.31-.86-.72-.88-.08-.11-.1-.24-.06-.39-.06-.2-.13-.41-.19-.61-.33-.49-.46-1.09-.43-1.76-.13-.84,.28-2.05-.75-2.31-.12-1.35-.2-2.7,.04-4.04,.27-.04,.59-.1,.51-.62-.03-.18-.32-.28-.49-.42-.16-1.76-1.05-2-2.07-2.06-6.36-.36-12.22-2.94-17.07-8.88-1.96-2.39-3.72-2.55-5.88-1.48-.56,.28-1.14,.45-1.71,.68-1.75,.68-3.38,.89-4.62,3.71-1.49,3.39-4.41,3.8-7.16,3.46-.63-.08-1.26-.22-1.99-.36,.09,1.37,.76,1.77,1.27,2.37,.69,.83,.8,1.7-.19,2.21-5.16,2.65-10.43,4-15.83,1.73-2.56-1.08-2.62-4.5-.19-7.49,1.28-1.57,2.59-3.1,4.19-4.01,1.25-.71,.93-1.6,.08-2.47-4.2-4.29-7.43-9.82-10.51-15.68-2.11-4.03-3.73-8.46-5.64-12.63-1.39-3.02-2.28-6.54-3.25-9.91-1.71-5.9-3.43-11.8-4.92-17.81-1.22-4.91-2.23-9.92-3.12-14.99-1.03-5.89-2.28-11.71-3.33-17.59-.45-2.53-.7-5.14-.9-7.73-.14-1.86,.82-.58,1.29-.7,.25,2.47,.66,4.87,1.11,7.3,1,5.38,1.83,10.83,2.81,16.24,1.3,7.16,2.96,14.15,4.58,21.15,.98,4.22,2.46,8.19,3.52,12.38,1.25,4.95,2.92,9.66,4.75,14.13,2.92,7.12,6.17,14.02,10.35,19.88,1.71,2.39,3.4,5.24,5.6,6.21,1.64,.72,3.48-1.6,5.25-2.47,.37-.18,.96-.03,1.03-.74,.1-.85-.54-.95-.91-1.31-5.32-5.12-9.38-11.86-12.8-19.54-1.68-3.79-3.14-7.73-4.61-11.66-1.17-3.12-2.09-6.44-3-9.74-1.06-3.87-1.87-7.88-3-11.7-1.5-5.05-2.27-10.39-3.43-15.58-.78-3.47-1.2-7.11-1.95-10.59-.99-4.64-1.49-9.41-2.23-14.12,.59-.26,1.17-.51,1.39,.74,.79,4.62,1.62,9.22,2.41,13.84,1.06,6.19,2.2,12.36,3.63,18.4,.54,2.3,1.08,4.59,1.59,6.9,1.36,6.07,3.27,11.83,4.9,17.74,1.28,4.66,3.04,8.88,4.73,13.17,2.54,6.41,5.69,12.2,9.61,17.08,1.44,1.8,2.93,3.5,4.67,4.73,1.55,1.1,2.25,.67,2.91-1.53,.94-3.16,1.52-6.65,3.26-9.19,3.63-5.29,10.53-6.47,15.26-1.45,1.53,1.62,2.72,1.82,4.39,.66,1.63-1.13,3.41-1.85,5.16-2.55,1.16-.46,1.62-1.53,1.84-3.02,1.22-8.3,3.94-11.66,9.89-12.47,3.21-.44,6.11,.33,8.46,3.66,.73,1.04,1.38,1.07,2.35,.59,12.45-6.2,24.91-12.32,37.37-18.46,6.56-3.23,13.12-6.47,19.68-9.71,.27,0,.53,.01,.8,.02,.2,.16,.37,.33,.31,.71-4.43,2.24-8.87,4.41-13.27,6.73-2.72,1.43-5.58,2.34-8.13,4.38h0c-.68-.19-1.28,.22-1.89,.52-3.29,1.59-6.57,3.21-9.84,4.84-9.56,4.74-19.12,9.43-28.66,14.28-1.9,.97-3.98,1.5-6.02,3.71,.79-.16,1.14-.23,1.48-.3,0,.25,0,.51,.01,.76-.03,.13-.09,.18-.18,.14-.33-.11-.64-.12-.88,.31-.72,.68-.54,1.75-.54,2.71,0,2.01,.68,3.73,1.26,5.48-.68,.02-.72,.69-.71,1.41-.49-.68-.56-1.65-.87-2.45-2.42-6.24-.75-10.22,3-11.63,1.4-.53,2.79-1.17,4.07-2.22-2.22-4.16-5.02-5.02-10.21-3.27-3.73,1.26-5.77,4.91-6.1,10.3-.19,3.09,.41,6.01,.8,8.98-.13,.52-.25,1.04-.38,1.56-.76-1.46-1.39-3.02-1.72-4.8-.02-.34-.04-.68-.05-1.02-.02-1.59-.72-.91-1.21-.67-2.45,1.18-4.94,2.22-7.3,3.69-.96,.6-2.31,.41-2.88,2.14h.01c-1.16-.27-2.15,.1-2.87,1.53l.02-.02c-1.15-.13-2.34-.41-2.87,1.64,.01,.33,.03,.66,.04,1-2.32,.64-2.81,3.53-3.64,5.99-.6,1.78,.12,1.85,1.02,1.5,6.87-2.68,13.91-4.43,20.65-7.81,.53-.26,1.23-.16,1.34-1.3,.89,.21,.46,1.22,.57,1.91-1.48,1.04-3.22,1.15-4.88,2.6,1.9,1.4,3.54,2.65,5.21,3.81,.67,.46,.94,.17,1.4-.92,.97-2.29-.29-3.56-.7-5.24,.02-.48,.11-.9,.43-1.16,1.2,.94,1.33,3.36,2.3,4.17,2.41,2.03,4.37,4.95,6.88,6.73,.59,.42,1.16,1.44,1.81,.94,.88-.67,.83-2.09,.79-3.36-.07-1.93-1.14-3.44-1.16-5.39,.39-.02,.79-.03,1.18-.05,.55,1.08,.79,2.43,1.11,3.61,.44,1.63,.65,3.81-.17,5.31-1.19,2.18,.34,2.35,.94,3.09,.76,.92,1.47,.66,1.97-.68,2.48-6.65,3.79-13.51,2.07-21.01-.27-1.19-.58-1.46-1.36-1.04-2.1,1.1-4.21,2.14-6.32,3.21-.38-.2-.65-.57-.82-1.09,4.88-2.44,9.76-4.9,14.65-7.33,11.73-5.82,23.47-11.64,35.2-17.44,5.63-2.78,11.33-5.23,16.83-8.52,.39,.04,.78,.08,1.16,.13,.08,.24,.16,.48,.24,.72-1.98,1.71-4.24,2.44-6.39,3.51-13.94,6.95-27.9,13.8-41.85,20.68-2.78,1.37-5.55,2.79-8.35,4.06-1.2,.54-1.73,1.1-1.33,3.17,.47,2.41,.67,5.03,.41,7.53-.35,3.26,.09,5.95,1.71,8.44,3.63,5.6,4.39,12.47,3.98,19.78-.09,1.6,.4,3.03,.64,4.53,.97,6.06,.91,11.98-1.74,17.52-1.08,2.25-2.76,3.53-3.74,5.85-.76,1.79-1.06,3.8-1.89,5.59-2.4,5.18-5.57,8.82-9.62,10.96-1.06,.56-2.14,.96-2.7,2.54-.08,.11-.1,.25-.07,.4,0,0,0,.01,0,.01-1.21-.39-.54-1.87-.8-2.8,.3-.2,.6-.41,.9-.61,5.41-1.75,9.22-6.46,11.91-13.17,.16-.4,.31-.98,0-1.4-.25-.33-.56-.15-.82,.05-1.86,1.4-3.9,2.01-5.93,2.49-1.23,.29-1.82,1.21-2.28,2.69-.82,2.67-1.89,5.1-3.71,6.67-1.19,1.29-2.45,2.4-3.89,3.07-.47,.03-.94,.06-1.41,.09-1.16,.21-2.31,.42-3.48-.02-.47-.18-1.05,.02-1.08,.84-.04,.9,.57,.61,.93,.61,1.45-.02,2.92,.24,4.33-.46,.24-.05,.48-.11,.72-.16,0,0-.03,.18-.03,.18v1.39c-1.94,.07-3.9,.14-5.86,.22-.7,.03-1.47-.26-2.06,.46-3.14,3.85-6.97,5.12-10.91,5.92-3.08,.62-6.33,1.13-8.94-1.59-2.04-2.13-3.53-1.62-5.42,.19,2.08,1.93,4.16,3.52,6.48,4.54,4.3,1.89,8.69,1.4,13.07,1.35,1.3,.08,2.6,.16,3.9,.24-4.47,1.64-8.99,1.79-13.54,.89-1.31-.26-2.57-.2-3.88,.08-7.18,1.57-14.32,2.15-21.43-.95-2.48-1.08-5.02,.66-7.53,1.06-5.68,.9-11.33,1.3-16.94-.66-.31-.62-.65-.72-1.05-.17-.97,.16-1.94,.32-2.91,.47-.3-.46-.51-.27-.68,.19-.71,.12-1.42,.24-2.12,.37,0-.45,0-.9,0-1.35,.92-.56,2.15,.48,2.86-1.13-.12-.15-.24-.3-.36-.45-1.37-.52-2.77-1.18-3.8-2.5-2.79-3.58-5.65-3.88-9.25-2.26-5.5,2.48-10.96,1.76-15.74-3.51-.87-.96-1.64-1.02-2.55-.07,3.22,4.24,6.96,6.87,11.03,8.63,.14,.05,.28,.11,.42,.16,1.87,.45,3.74,.89,5.61,1.34,0,.67-.5,.73-.69,1.17-1.36,.12-2.64-.38-3.93-.89-.38-.75-.93-.56-1.45-.53-.39,.11-.74,.04-1.03-.39-.22-.65-.59-.62-.99-.43-.15-.05-.3-.1-.44-.16-.48-.74-.96-.79-1.45-.01-3.41,1-6.85,1.8-10.34,1.91-.51-.74-.97,.14-1.46,.1-1.65,.17-3.3,.29-4.94-.04-.32-.6-.67-.64-1.05-.1-1.09,.05-2.18-.08-3.24-.46-.25-.47-.58-.43-.93-.3-1.06,.06-2.05-.37-3.01-.91-.26-.32-.55-.27-.85-.16-.39-.01-.79-.03-1.18-.04-.13,.04-.27,.08-.4,.12-8.05,2.53-16.11,3.6-24.23,.56-2.11-.79-4.21,.42-6.32,.48-.53,.02-1.05,.41-1.2-.71,1.21-.4,2.43-.81,3.89-1.29-1-.94-1.73-1.71-2.65-1.98,0,0-.03-.03-.03-.03-.16-.57-.48-.71-.87-.64-.26-.52-.4-1.09-.37-1.73,1.84,.21,3.16,2.11,4.78,3.03,6.17,3.49,12.57,3.71,19.05,2.76,2.17-.32,4.36-.65,6.8-1.66-1.3-.91-2.38-1.41-3.25-2.32-3.01-3.19-6.14-3.57-9.83-2.52-4.36,1.23-8.88,.92-13.04-1.87-1.45-.97-2.76-2.14-4.44-1.53-.02-.31-.04-.61-.06-.92,3.82-2.21,7.86-3.49,12.02-5.55-.55-.44-.79-.66-1.04-.84-3.46-2.5-7.18-2.45-10.92-2.31-.05-1.85,1-1.45,1.64-1.4,3.5,.27,6.95-.32,10.4-.85,1.66,.83,3.36,.22,5.04,.29Zm147.66-37.63c-.1,.78,.17,1.13,.69,1.18,.25,.76,.54,1.49,.73,2.28,.23,.96,.8,.82,1.12,.52,.9-.85,.91-4.83,0-5.77-.86-.89-1.67-3.19-2.38-2.64-.87,.67-.05,2.89-.15,4.43Zm-41.42-20.5c.44-.85,.71-1.74-.44-1.2-2.27,1.07-4.6,1.95-6.71,3.63-2.97,1.77-5.9,3.61-7.99,7.36-1.09,1.96-.93,3.28,.75,4.01,2.96,1.27,5.97,.97,8.95,.21,1.72-.44,3.57-.52,5.17-2.25-.94-.79-1.72-1.52-2.54-2.13-.52-.39-1.15-.57-1.16-1.64-.02-1.14,.61-1.45,1.18-1.92,1.42-1.15,2.29-2.89,2.54-5.22,.08-.29,.17-.57,.25-.86Zm-87.54,58.3c-.88,.61-1.95,.37-3.1,1.51,2.51,.47,4.61,1.46,6.52,3.17,.18,.16,.48,.22,.69,.14,2.04-.81,4.08-1.66,6.5-2.66-1.92-1.31-3.54-1.63-5.13-2.14-.13-.02-.25-.04-.38-.06-1.37,0-2.74,0-4.11,0-.33,0-.66,.02-.99,.03Zm21.46,18.74c-2.02-1.19-3.81-2.97-5.43-4.96-.91-1.1-1.67-1.32-2.71-.92-2.28,.88-4.55,1.8-6.85,2.53-4.8,1.51-9.56,1.5-13.95-2.06-1.26-1.02-2.22-1.04-3.46-.13,.22,.37,.33,.71,.52,.86,1.17,.95,2.32,1.94,3.54,2.75,6.39,4.27,13.15,5.3,20.11,4.45,2.72-.33,5.42-.83,8.13-1.25,.4,.08,.86,.21,.87-.64,0-.65-.41-.64-.75-.65Zm108.08-36.18c-2.32,2.55-3.78,5.97-5.04,9.68-1.35,3.98-1.58,8.56-3.54,12.25-1.04,1.96-.73,2.4,.97,2.34,6.51-.23,10.14-7.46,10.92-16.5,1.14-1.69,.44-3.76,.57-5.66,.11-1.59-.15-3.74-.95-4.22-1.01-.6-2.15,.78-2.93,2.1Zm-2.39-40.18c-.77-.62-1.17-2.63-2.1-2.08-.85,.5-.42,2.15-.23,3.33,.84,4.3,2.45,8,4.49,11.32,3.19,5.2,7.41,8.79,10.84,13.63,.36,.51,.57,1.46,1.24,1.11,.75-.39,.7-1.45,.77-2.35,.21-3.11-.59-5.87-1.47-8.62-.98-3.09-2.36-5.73-4.31-7.64-3.04-2.97-6.15-5.79-9.23-8.68Zm-124.77,63.32c-2.85-2.64-5.78-3.1-8.74-3.2-8.68-.27-16.75,3.81-24.9,7.28-.27,.11-.65,.09-.63,.64,.02,.59,.39,.75,.72,.97,3.24,2.23,6.68,2.82,10.21,2.46,7.99-.8,15.48-4.47,23.34-8.17Zm84.05-57.27c.58,.23,.97,.41,1.37,.55,3.77,1.35,6.33-.4,8.1-5.11,.54-1.44,.74-2.98,1.22-4.38,1.15-3.36,2.37-6.66,5.1-8.03,1.5-.75,2.98-1.57,4.49-2.27,.94-.43,1.06-1.01,.27-1.82-2.85-2.9-5.97-3.73-9.39-2.58-4.38,1.48-6,6.37-7.19,11.7-.93,4.16-1.8,8.31-3.96,11.94Zm-5.62,68.98c1.29-.2,2.6-.3,3.88-.63,5.97-1.55,11.28-5.62,16.81-8.87,.25-.14,.58-.49,.6-.77,.04-.55-.35-.78-.69-.98-1.89-1.08-3.88-1.46-5.9-1.47-8.12-.01-15.57,4.3-23.21,7.38-1.05,.42-.61,.79-.09,1.37,2.53,2.79,5.44,3.86,8.6,3.98Zm15.94-4.76c.56,1.22,1.13,1.71,1.79,2.18,2.5,1.78,5.06,1.22,7.66,.76,5.77-1.01,10.64-4,13.44-11.81,.22-.61,1.04-.97,.61-1.83-.34-.69-1-.26-1.51-.2-7.99,.81-14.81,6.3-21.98,10.9Zm36.82-49.89c-.01,3.05-1.02,5.13-.58,7.44,.42,2.19,.53,4.44,.68,6.67,.28,4.25,1.59,8.37,.68,12.77-.27,1.3,.19,1.57,1.08,1.23,4.08-1.6,7.29-8.54,6.49-14.27-.91-6.55-4.89-9.41-8.35-13.83Zm-92.56,50.27c3.05,3.52,6.24,5.86,9.76,7.31,7.13,2.95,14.3,2.01,21.47,.34,.22-.05,.52,.04,.58-.4,.09-.67-.29-.79-.61-1-1.59-1.07-3.11-2.34-4.44-3.96-.64-.78-1.17-.82-1.92-.57-2.48,.81-4.95,1.72-7.46,2.22-4.29,.85-8.61,.89-12.05-3.61-1.47-1.93-2.7-2.07-4.29-.88-.25,.19-.53,.29-1.04,.56Zm106.34-53.16c.31-5.99-1.44-11.32-4.18-16.14-.47-.83-.9-1.33-1.21,.06-.54,2.47-1.35,4.72-2.53,6.69-.44,.74-.57,1.53-.06,2.25,1.65,2.33,2.6,5.25,3.38,8.26,.84,3.28,1.4,6.66-.17,9.86-.21,.43-.83,.52-.41,1.27,.27,.47,.69,.3,.97,0,.47-.5,1.04-.7,1.52-1.24,2.47-2.77,2.75-6.61,2.69-11.02Zm-23-8.18c.34-.05,1.01,.12,1.22-.24,.5-.86-.43-1.15-.58-1.81-.13-.56-.31-1.09-.45-1.65-.61-2.45-1.33-4.49-3.43-5.25-1.61-.59-3.15-1.84-4.53-3.33-.63-.68-1.31-1.09-2.14-.77-1.94,.75-3.88,1.46-5.82,2.18-.28,.1-.64,.05-.74,.52-.1,.49,.22,.67,.45,.94,4.58,5.6,9.91,8.62,16.03,9.39Zm23.39,16.21c-.75,2.81-1.99,4.25-3.42,5.15-1.03,.65-1.19,1.37-1.1,2.83,.18,2.9,.24,5.79-.86,8.52-1.73,4.28-4.02,7.31-7.57,8.04-.53,.11-.97,.48-.81,1.3,.15,.77,.66,.48,1.05,.37,2.43-.72,4.76-1.7,6.95-3.47,5.73-4.62,7.82-13.35,5.75-22.73Zm-51.05,53.2c-.96-.61-2.07-.95-2.86-1.86-2.57-2.97-5.16-2.48-8.16-1.36-5.22,1.94-10.32,1.24-14.73-3.89-.31-.36-.73-.58-1.12-.7-.41-.13-.92-.03-1.08,.57-.14,.52,.25,.93,.53,1.19,.98,.89,1.97,1.76,2.99,2.56,7.77,6.09,16.03,5.7,24.43,3.49Zm-19.75-18.36c2.6,1.34,4.8,4.96,8.04,2.55,.7-.53,1.61-.48,2.4-.79,.96-.38,2.05-.15,3.15-1.22-4.64-2.68-9.08-2.57-13.59-.53Zm34.55-.73c-3.56-2.4-10.35-1.63-12.69,1.42,1.62,.69,3.18,1.38,4.62,2.5,.48,.37,.9,.1,1.35-.16,2.18-1.24,4.37-2.45,6.72-3.76Zm11.81-11.04c-2.09,.76-5.5,4.03-6.34,6.23-.4,1.05-1.47,2.26-1.06,3.1,.46,.93,1.67,.12,2.51-.1,.87-.23,2.05,.57,2.58-.92,.94-2.6,1.73-5.31,2.3-8.31Zm-93.71,13.72c2.2-.64,4.17-1.2,6.14-1.79,.14-.04,.34-.28,.34-.43,.02-.64-.36-.77-.69-.95-2.76-1.49-5.58-1.21-8.4-.44-.35,.1-1.05,.54-.54,1.08,1.01,1.08,2.2,1.8,3.15,2.54Zm101.94-32.09c-2.23,1.57-4.37,6.53-4.31,10.01,1.49-.93,2.53-2.83,4.06-3.43,1.4-.55,1.4-2.03,.91-3.29-.4-1.03-.33-2.1-.66-3.29Zm-157.53,28.91c1.68,.54,2.66,3.48,4.72,2.61,1.67-.71,3.38-1.2,5.07-1.78-3.27-1.68-6.5-1.64-9.79-.82Z"/>
  <path class="cls-12" d="M252.74,174.14c.27,.93-.4,2.41,.8,2.8-3.61,6.79-8.77,9.41-14.39,10.78-1.3-.08-2.6-.16-3.9-.24,1.66-1,3.48-.82,5.2-1.47,4.21-1.61,8.1-3.97,11.2-8.52,.26-.38,.59-.66,.45-1.19-.16-.62-.59-.37-.92-.32-.76,.12-1.52,.27-2.28,.41,0-.46,0-.93-.01-1.39,1.28-.29,2.56-.57,3.84-.86Z"/>
  <path class="cls-12" d="M169.66,187.65c0,.45,0,.9,0,1.35-4.16,.69-8.32,1.02-12.47,.03,.19-.44,.69-.51,.69-1.17,3.93,.49,7.86,.23,11.78-.21Z"/>
  <path class="cls-12" d="M171.63,164.32c-.47-.98-1.17-.33-1.75-.52,4.06-1.83,8.2-2.36,12.42-1.53q1.62,.82,1.06,2.23c-.33-.38-.71-.51-1.12-.64-3.57-1.15-7.1-.62-10.61,.46Z"/>
  <path class="cls-12" d="M139.34,167.06c-.12,.47-.13,.9,.21,1.21,0,0-.02-.02-.02-.02-.53-.27-1.05-.55-1.58-.82,.46-.12,.93-.24,1.39-.37Z"/>
  <path class="cls-12" d="M175.38,187.96c.4-.55,.75-.45,1.05,.17-.36,.12-.72,.14-1.05-.17Z"/>
  <path class="cls-12" d="M130.1,188.5c.38-.54,.72-.51,1.05,.1-.36,.17-.71,.18-1.05-.1Z"/>
  <path class="cls-12" d="M125.93,187.75c.35-.13,.68-.18,.93,.3-.36,.21-.68,.2-.93-.3Z"/>
  <path class="cls-11" d="M257.42,95.78c.46,2.56,.77,5.19,1.84,7.48-.41,.02-.82,.03-1.24,.05-1.23-2.4-2.45-4.8-3.68-7.2-.01-.72,.03-1.38,.74-1.4,0,0,0,0,0,0,.25,.77,.63,.68,1.05,.31,.14-.1,.28-.21,.42-.31,.18,.52,.46,.88,.86,1.08Z"/>
  <path class="cls-11" d="M246.82,101.34c-.35-.09-.69-.18-1.04-.27-.11-.71,.32-1.78-.57-2-.19-.65-.37-1.31-.56-1.96,.13-.54,.25-1.09,.38-1.63,1.01,1.26,1.62,2.95,2.21,4.65-.32,.26-.41,.71-.43,1.21Z"/>
  <path class="cls-12" d="M145.89,185.91c.18-.4,.29-.82,.12-1.28,.34,0,.75,0,.75,.65,0,.85-.47,.71-.87,.64Z"/>
  <path class="cls-2" d="M248.29,174.87c-.23-.32-.47-.64-.7-.96,.47-.03,.94-.06,1.41-.09,0,.3,0,.59,0,.89-.24,.05-.48,.11-.72,.16Z"/>
  <path class="cls-7" d="M150.97,171.3c0-.34-.02-.67-.03-1.01,.27,.04,.64-.07,.65,.53,0,.64-.35,.49-.63,.48Z"/>
  <path class="cls-7" d="M176.61,173.29c-.06,.83-.44,.81-.86,.65,.19-.48,.51-.6,.86-.65Z"/>
  <path class="cls-12" d="M255.22,86.21c-.23,.45-.55,.43-.88,.31,.24-.43,.55-.42,.88-.31Z"/>
  <path class="cls-12" d="M172,186.4c-.12-.15-.24-.3-.36-.45,.12,.15,.24,.3,.36,.45Z"/>
  <path class="cls-9" d="M279.3,74.43c-.15-.24-.29-.48-.44-.72,1.72-1.32,3.6-1.97,5.45-2.75,.01,.29,.02,.57,.03,.86-1.59,1.23-3.33,1.89-5.05,2.61Z"/>
  <path class="cls-10" d="M256.07,95.01c-.41,.38-.77,.46-1.01-.31,.28,.45,.66,.31,1.01,.31Z"/>
  <path class="cls-7" d="M89.63,183.61c.92,.27,1.65,1.04,2.65,1.98-1.46,.49-2.68,.89-3.89,1.29,.26-1.21,1.4-1.74,1.24-3.27Z"/>
</svg>