<svg width="20" height="20" viewBox="0 0 20 20" fill="none" xmlns="http://www.w3.org/2000/svg">
<g clip-path="url(#clip0_14_3)">
<mask id="mask0_14_3" style="mask-type:luminance" maskUnits="userSpaceOnUse" x="1" y="1" width="18" height="18">
<path d="M19 1H1V19H19V1Z" fill="white"/>
</mask>
<g mask="url(#mask0_14_3)">
<path d="M18.3607 3.48305C17.9739 3.44779 17.6319 3.73273 17.5966 4.11945L17.5034 5.1414C15.9229 2.65916 13.1792 1 10 1C6.57997 1 3.56599 2.95195 2.06981 5.88159C1.89318 6.22742 2.03036 6.65095 2.37619 6.82756C2.7221 7.0042 3.14555 6.86705 3.32218 6.52118C4.58841 4.04182 7.13115 2.40625 10 2.40625C12.6148 2.40625 14.9746 3.76789 16.3265 5.90107L15.3239 5.18504C15.0079 4.95937 14.5688 5.03257 14.3431 5.34854C14.1174 5.66457 14.1907 6.10367 14.5066 6.32938L17.5468 8.50065C17.9923 8.81829 18.6068 8.52751 18.6556 7.99233L18.997 4.24714C19.0323 3.86038 18.7474 3.51832 18.3607 3.48305Z" fill="#F76A38"/>
<path d="M17.6238 13.173C17.2779 12.9964 16.8544 13.1335 16.6777 13.4794C15.4116 15.9588 12.8688 17.5943 9.99996 17.5943C7.38514 17.5943 5.02539 16.2326 3.67349 14.0995L4.67604 14.8155C4.99207 15.0412 5.43116 14.968 5.65686 14.652C5.88253 14.336 5.80934 13.8969 5.49335 13.6712L2.45322 11.4999C2.01309 11.1855 1.39357 11.4675 1.34435 12.0082L1.00295 15.7535C0.967688 16.1402 1.25263 16.4822 1.63931 16.5174C2.02652 16.5527 2.36814 16.2675 2.40337 15.8811L2.49653 14.8591C4.07709 17.3414 6.82081 19.0005 9.99996 19.0005C13.42 19.0005 16.434 17.0487 17.9302 14.1189C18.1068 13.7731 17.9696 13.3496 17.6238 13.173Z" fill="#F76A38"/>
</g>
</g>
<defs>
<clipPath id="clip0_14_3">
<rect width="18" height="18" fill="white" transform="translate(1 1)"/>
</clipPath>
</defs>
</svg>
