<svg width="50" height="50" viewBox="0 0 50 50" fill="none" xmlns="http://www.w3.org/2000/svg">
<g clip-path="url(#clip0_46_177)">
<mask id="mask0_46_177" style="mask-type:luminance" maskUnits="userSpaceOnUse" x="0" y="0" width="50" height="50">
<path d="M50 0H0V50H50V0Z" fill="white"/>
</mask>
<g mask="url(#mask0_46_177)">
<path d="M25 50C38.8071 50 50 38.8071 50 25C50 11.1929 38.8071 0 25 0C11.1929 0 0 11.1929 0 25C0 38.8071 11.1929 50 25 50Z" fill="#B6B6B6"/>
<mask id="mask1_46_177" style="mask-type:luminance" maskUnits="userSpaceOnUse" x="8" y="8" width="34" height="34">
<path d="M41.6667 8.33331H8.33334V41.6666H41.6667V8.33331Z" fill="white"/>
</mask>
<g mask="url(#mask1_46_177)">
<mask id="mask2_46_177" style="mask-type:luminance" maskUnits="userSpaceOnUse" x="8" y="8" width="34" height="34">
<path d="M41.6667 8.33331H8.33334V41.6666H41.6667V8.33331Z" fill="white"/>
</mask>
<g mask="url(#mask2_46_177)">
<path d="M16.6667 25H33.3334" stroke="white" stroke-width="2.66667" stroke-miterlimit="10" stroke-linecap="round"/>
</g>
</g>
</g>
</g>
<defs>
<clipPath id="clip0_46_177">
<rect width="50" height="50" fill="white"/>
</clipPath>
</defs>
</svg>
