<svg width="30" height="30" viewBox="0 0 30 30" fill="none" xmlns="http://www.w3.org/2000/svg">
<g clip-path="url(#clip0_46_177)">
<mask id="mask0_46_177" style="mask-type:luminance" maskUnits="userSpaceOnUse" x="0" y="0" width="30" height="30">
<path d="M30 0H0V30H30V0Z" fill="white"/>
</mask>
<g mask="url(#mask0_46_177)">
<path d="M15 30C23.2843 30 30 23.2843 30 15C30 6.71573 23.2843 0 15 0C6.71573 0 0 6.71573 0 15C0 23.2843 6.71573 30 15 30Z" fill="#B6B6B6"/>
<mask id="mask1_46_177" style="mask-type:luminance" maskUnits="userSpaceOnUse" x="5" y="5" width="20" height="20">
<path d="M25 5H5V25H25V5Z" fill="white"/>
</mask>
<g mask="url(#mask1_46_177)">
<mask id="mask2_46_177" style="mask-type:luminance" maskUnits="userSpaceOnUse" x="5" y="5" width="20" height="20">
<path d="M25 5H5V25H25V5Z" fill="white"/>
</mask>
<g mask="url(#mask2_46_177)">
<path d="M10 15H20" stroke="white" stroke-width="1.6" stroke-miterlimit="10" stroke-linecap="round"/>
</g>
</g>
</g>
</g>
<defs>
<clipPath id="clip0_46_177">
<rect width="30" height="30" fill="white"/>
</clipPath>
</defs>
</svg>
