<?xml version="1.0" encoding="UTF-8"?>
<svg id="Layer_1" data-name="Layer 1" xmlns="http://www.w3.org/2000/svg" viewBox="0 0 414 200">
  <defs>
    <style>
      .cls-1 {
        fill: #f0ebe4;
      }

      .cls-2 {
        fill: #e6e1d5;
      }

      .cls-3 {
        fill: #fefdfd;
      }

      .cls-4 {
        fill: #fbf2e9;
      }

      .cls-5 {
        fill: #fde8e6;
      }

      .cls-6 {
        fill: #9ddcf9;
      }

      .cls-7 {
        fill: #cab09e;
      }

      .cls-8 {
        fill: #403f3d;
      }

      .cls-9 {
        fill: #6f6b66;
      }

      .cls-10 {
        fill: #625e57;
      }

      .cls-11 {
        fill: #777676;
      }
    </style>
  </defs>
  <path class="cls-5" d="M158.7,129.03c-.45,.07-.9,.13-1.35,.2-1.59,.48-3.36,.47-4.6,1.84,0,0,.04-.02,.04-.02-.69,.02-1.43-.1-2.07,.1-7.03,2.16-14.11,4.19-21.06,6.61-8.18,2.85-15.54,7.52-23.34,11.24-5.29,2.52-10.38,5.5-16.09,7.03-1.42,.31-2.84,.61-4.26,.92-4.6,.41-9.2,.81-13.8,1.22,0,1.01-.51,1.48-1.51,1.37-1.06-.12-.98-.8-1.12-1.69-.33-2.16-1.49-4.16-2.04-6.2-2.03-7.46-7.72-13.52-7.94-21.59-.04-1.51-1.57-1.69-1.99-3.08-.79-2.64-.46-5.29-.87-7.9-.35-2.19-.71-4.33-1.5-6.38-.34-.86-.87-1.99-.31-2.59,1.88-2.04,.72-3.86-.37-5.44-2.21-3.2-.69-6.63-.98-9.93,3.93-3.01,6.59-7.28,10.29-10.54,.55-.48,1.84-.99,1.13-2.28,0,0-.03,.03-.03,.03,.32,.49,.64,.26,.93-.02,3.95-3.77,7.86-7.59,11.86-11.31,3.89-3.63,8.29-6.58,13.23-8.51,7.71-3.02,15.14-6.57,22.43-10.5,4.98-2.69,9.95-5.46,15.32-7.35l7.91-2.59c3.19-.93,6.37-1.85,9.56-2.78,.6-.2,1.21-.4,1.81-.59,1.82-.5,3.7-.85,5.45-1.55,2.61-1.04,3.95,.14,4.59,2.45,.76,2.7,1.53,5.44,1.87,8.21,.2,1.66,1.55,3.3,.38,5.07-6.44,3.14-12.89,6.29-19.68,8.56-2.62,.87-5.16,1.33-5.97,4.45-.28,.29-.57,.58-.85,.87-3.36,2.85-6.35,6.17-10.24,8.35-.39-1.26-1.17-1.3-2.23-.81-1.25,.58-.64,1.36-.33,2.14-.38,.29-.76,.58-1.14,.87-.87-1.51-2.24-1.16-3.43-.73-1.28,.47-1.57,1.68-1.52,2.99,.05,1.41,.08,2.83,0,4.23-.2,3.11-2,4.45-5.02,4.11-1.97-.23-4.18-.55-4.54,2.44,2.71,7.33,5.56,14.6,9.17,21.54-.16,.19-.32,.39-.49,.58-.89-.32-1.77-.63-2.66-.95,.93,1.5,2.31,2.01,3.81,2.42,4.87,1.36,9.72,.14,14.58-.05,9.29-.37,18.52-1.08,26.91-5.75,2.53-.46,4.88-1.79,7.54-1.62,13.11,.29,15.98,.76,18.91,3.42-3.57-.19-6.21,1.55-8.98,2.82-1.68,.77-4.31,1.24-3.7,4.26,.25,.54,.38,1.19,.76,1.59,1.76,1.85,1.09,2.95-1,3.72-.24,.09-.41,.39-.62,.59-2.84,.58-4.77,2.9-7.34,3.98l-.04,.06c-.49,.08-.95,.2-1.14,.75l-.03-.07c-1.13,.14-1.49,1.27-2.3,1.82Z"/>
  <path class="cls-5" d="M334.46,150.93c-4.97,2.31-10.23,4.15-14.82,7.08-3.56,2.27-7.1,2.1-10.8,2.15-8.87,.14-17.82-.69-26.5,1.84-4.91,1.43-9.74,3.16-14.58,4.82-1.18,.4-2.25,1.2-2.6-.89-.2-1.17-1.04-.65-1.6-.27-.85,.58-.35,.93,.3,1.2,.68,.29,.95,.82,.47,1.41-.48,.59-1.19,.39-1.55-.12-.85-1.2-2.48-1.83-2.59-3.57,0,0,.04,.06,.04,.06-.35-.34-.71-.68-1.06-1.02-.01-1.25-.68-1.86-1.77-2.45-3.57-1.95-7.4-3.49-10.37-6.43-.58-.58-1.3-1.16-2.25-.62,0,0,.01,.01,.01,.01-1.15-2.32-2.98-4.13-4.86-5.74-.88-.75-1.22-2.57-2.97-2.16,0,0,.03,.02,.03,.02,.01-.23,.02-.45,.04-.68-.22,.01-.45,.03-.67,.04,0,0,.02,.03,.02,.03,.6-.82,.06-1.07-.62-1.24,0,0,.02,.03,.02,.03-4.62-4.15-5.72-10.53-9.5-15.22-.27-.58-.55-1.16-.82-1.74-.44-1.98-2.09-3.45-2.32-5.52,.18-.46,.48-.47,.91-.33,3.47,1.1,6.52,.4,9.09-2.23,2.62-1.07,2.45-3.25,1.7-5.25-1.11-2.96-3.13-5.43-5.03-7.93-.73-.97-1.67-1.67-2.84-2.03-.31-.96,.33-.91,.95-.92,1.74-.04,3.24,.75,4.8,1.35,1.01,.54,2.03,1.07,3.04,1.61h0c.27,.47,.42,1.17,1.21,.61h0c.68,2.5,3.1,3.33,4.69,4.96,.9,1.31,1.46,2.95,3.19,3.49,.39,1.22,1.39,1.31,2.4,1.22,1-.09,1.82-.22,2.45,.97,1.7,3.26,4.74,5.47,6.79,8.47,1.07,.92,1.81,2.27,3.31,2.65-.8-1.19-1.08-2.85-2.8-3.15-1.99-4.24-6.59-6.68-7.73-12-1.11,2.21-2.65,2.48-4.46,1.89-.44-1.6-1.52-2.79-2.54-4.02-.49-1.89,.89-.93,1.4-.82,5.98,1.2,11.93,2.56,17.92,3.68,3.24,.6,6.41,1.17,8.82,3.71,.46,.59,.92,1.18,1.37,1.77,.92,1.28,1.41,2.95,3.15,3.47,.26,.26,.53,.53,.79,.79-.27-.25-.54-.5-.82-.76-.17-1.8-1.76-2.66-2.61-4.01-.48-.56-.97-1.12-1.45-1.68-.24-2.14,1.22-1.06,1.92-.92,17.08,3.52,34.15,7.1,51.23,10.65,1.14,.24,2.05,.64,2.5,1.84,2.05,5.5,5.08,10.61,6.36,16.42,.41,1.86,1.08,3.65,1.63,5.48Zm-55.23-14.86c2.7-1.3,5.4-2.6,8.09-3.9-.1-.22-.2-.44-.3-.66-2.78,1.25-5.95,1.62-8.2,4.09-.36,.26-.71,.53-1.07,.79-4.25,2.59-8.34,3.2-12.15-.86-.8-.86-1.81-1.51-3.01-1.77q-2.6-2.35-2.77-3.3c1.79,0,3.23,2.06,5.51,1-1.66-1.06-3.35-1.23-4.8-2.13-1.27-.79-.1,.94-.67,1.16-2.75-.22-4.97-1.41-6.74-3.56-2.29-2.79-3.68-6.19-5.97-8.98,.4,3.78,4.26,6.15,3.88,10.21-.01,.12,.44,.36,.7,.42,3.96,.96,7.01,3.62,10.38,5.68,5.13,3.77,10.22,7.62,16.88,8.14-1.65-1.66-4.39-1.04-6.29-2.99,2.18-.73,4.24-.93,5.65-2.49,.3-.28,.59-.56,.89-.84Z"/>
  <path class="cls-2" d="M353,127.3c-1.01,1.6-2.88,2.68-2.58,5.1,.08,.7-1.03,.55-1.55-.09-.09-1.56-1.39-1.18-2.26-1.36-10.94-2.32-21.88-4.61-32.82-6.89-18.96-3.96-37.95-7.75-56.86-11.95-6.71-1.49-13.8-1.67-19.97-5.28,0,0,0,0,0,0-.09-.83-.41-1.2-1.21-.62,0,0,0,0,0,0,.72-.93-.4-.98-.67-1.45-.19-.35-1.37-.25-.51-1.1,5.95,.78,11.76,2.3,17.62,3.53,12.73,2.66,25.47,5.26,38.2,7.87,10.65,2.18,21.3,4.35,31.94,6.53,.62,.11,1.24,.22,1.85,.33,5.14,1.35,10.29,2.64,15.64,2.8,4.37,.92,8.67,2.2,13.15,2.56Z"/>
  <path class="cls-10" d="M322.36,121.61c-10.65-2.18-21.3-4.35-31.94-6.53-12.74-2.61-25.48-5.21-38.2-7.87-5.87-1.23-11.67-2.74-17.62-3.53-.15-.64-.42-1.21-1.19-.9-.84,.33-.52,1.2-.67,1.84-1.56-.6-3.06-1.39-4.8-1.35-.61,.01-1.26-.04-.95,.92-.16,.13-.29,.28-.4,.45-.73-.31-1.44-.72-2.2-.92-5.16-1.37-8.26,1.69-7.08,6.92,.59,2.63,2.09,4.74,3.7,6.8-.48,.3-.97,.6-1.45,.91-1-.25-.07-3.12-2.29-1.71-.16-.15-.33-.31-.49-.46,1.5-1.53,.39-3.01-.18-4.43-.77-1.93-1.98-3.68-.58-5.91,.61-.97-.52-1.27-1.28-1.52,.01-.29,.03-.57,.04-.86,4.12,.72,7.78-1.9,11.9-1.25-1.01-1.22-2.16-.58-3.19-.84-8.86-2.32-17.92-3.67-26.8-5.85-1.94-.48-3.6-.74-5.45-.2,1.25-3.31,3.9-1.24,5.89-1.41,.28-1.48-.85-2.32-1.09-3.46,.97-.62,1.24,.31,1.38,.81,.77,2.7,2.76,3.31,5.18,3.26,.07,.89,.38,1.51,1.43,1.31,4.63,.87,9.25,1.73,13.75,2.57,.7-.88-1.38-2.73,1.17-2.5,0,.16,.01,.33,.03,.49,.04,.68-.28,1.46,.48,1.96,.22,0,.44,0,.65,.01h-.03c2.48,2.4,6.07,1.95,9.04,3.17,2.31,.96,6.03,1.09,9.06,.04-.08,.66-.91,1.67,.71,1.54,7.08,1.36,14.15,2.72,21.23,4.07,.26,.14,.54,.33,.73-.05,.02-.04-.25-.24-.38-.37-.03-.39-.05-.79-.08-1.18,1.81,2.14,4.31,2.68,6.89,3.19,6.53,1.29,13.03,2.71,19.54,4.07,.63,.06,1.19-.09,1.66-.55,.6,1.34,1.95,1.37,3.05,1.6,9.86,2.04,19.74,4.01,29.61,5.99,.66,.39,1.54,.62,1.17,1.72Z"/>
  <path class="cls-9" d="M236.96,106.83c6.17,3.62,13.26,3.79,19.97,5.28,18.91,4.2,37.9,7.99,56.86,11.95,10.94,2.28,21.89,4.57,32.82,6.89,.87,.18,2.17-.2,2.26,1.36-6.22-1.24-12.44-2.49-18.66-3.73-.76-.15-1.64-.69-2.27-.09-.71,.66-.1,1.57,.27,2.17,3.17,5.05,4.32,10.86,6.13,16.42,.26,.8,.8,1.35,1.11,2.06,.42,.95,.46,1.83-.99,1.8-.55-1.82-1.22-3.62-1.63-5.48-1.28-5.81-4.31-10.92-6.36-16.42-.45-1.2-1.36-1.61-2.5-1.84-17.08-3.55-34.15-7.12-51.23-10.65-.7-.15-2.16-1.23-1.92,.92l-.43,.42c-2.4-2.54-5.57-3.1-8.82-3.71-5.99-1.12-11.94-2.48-17.92-3.68-.51-.1-1.89-1.07-1.4,.82-.2,.16-.4,.32-.6,.49-1.6-1.63-4.01-2.46-4.69-4.97Z"/>
  <path class="cls-6" d="M155.23,181.99c-1.45,.11-2.8-.81-4.36-.2-.76,.3-1.12-.54-.74-1.6,.62,.79,1.21,1.33,1.43-.23,.09-.69,.08-1.4,.11-2.09,.29-.26,.33-.53,.02-.81,.01-.96,.03-1.93,.04-2.89,.85-11.94,.41-23.89,.24-35.83,.36-2.42-.51-4.97,.81-7.28,0,0-.04,.02-.04,.02,1.88-.01,2.73,.56,2.67,2.81-.15,5.84,.18,11.7,.16,17.55-.05,10.19-.23,20.37-.35,30.56Z"/>
  <path class="cls-6" d="M168.46,58.41s-.06,.29-.06,.29c-1.19,.57-2.38,1.15-3.57,1.72-1.49-1.59-.39-4.23-2.25-5.68-.78-.06-1.33-.38-1.39-1.26,.84,0,1.01-.57,.85-1.21-1.2-4.95-2.36-9.9-3.67-14.82-.57-2.13-2.22-2.69-4.22-2.12-2.47,.71-4.92,1.51-7.37,2.27,.12-1.97,1.69-2.92,2.98-3.9,4.48-3.41,9.75-2.54,11.57,2.05,1.13,2.84,2.52,5.59,3.07,8.69,.74,4.16,1.84,8.26,2.75,12.39,.17,.79,.11,1.69,1.31,1.57Z"/>
  <path class="cls-9" d="M170.41,116.6c-.61-3.02,2.02-3.49,3.7-4.26,2.76-1.27,5.41-3.01,8.98-2.82-2.93-2.66-5.8-3.14-18.91-3.42,0-.2,.01-.41,.02-.61,.56-.54,1.27-.49,1.96-.47,3.1,.05,6.19,.11,9.29,.17,.24,.07,.49,.14,.73,.21-.04-.23-.07-.46-.11-.69-.42-1.99-2.04-3.35-2.72-5.2l.5-1.21c1.34,.51,1.37,1.87,1.81,2.93,1.99,4.75,8.26,8.57,13.23,8-1.25,1.53,.16,2.77,.67,3.89,.85,1.87,5.46,2.39,6.51,.98,1.41-3.43-.2-6.39-1.36-9.42-.67,3.05-.72,6.02,.77,8.84-2.6-.58-1.84-2.9-2.16-4.54-.26-1.33-.42-2.35-2.07-2.15,1.76-1.95,4.09-3.55,4.1-6.61l1.46,.61c-.97,1.45-.91,2.89-.41,4.56,.68,2.3,1,4.71,1.39,7.09,.51,3.1-.19,3.83-3.29,3.59-1.08-.08-2.17-.13-3.25-.2,0,0,.03,.02,.03,.02-.79-.95-1.69-1.6-3.01-1.19-.05-.32-.1-.64-.15-.95,.25-3.18-2.08-3.26-4.16-3.32-4.27-.13-7.82,2.13-11.46,3.95-.82,.41-1.47,1.08-1.31,2.16-.26,.02-.52,.05-.78,.07Z"/>
  <path class="cls-10" d="M128.7,44.25c-5.37,1.89-10.34,4.66-15.32,7.35-7.29,3.93-14.72,7.48-22.43,10.5-4.94,1.93-9.34,4.88-13.23,8.51-3.99,3.73-7.9,7.54-11.86,11.31-.29,.28-.61,.51-.93,.02,4.53-5.38,9.69-10.11,15.11-14.55,6.99-5.73,15.73-7.92,23.66-11.75,5.28-2.55,10.31-5.62,15.57-8.21,2.82-1.39,5.44-3.32,8.67-3.79,.25,.21,.5,.41,.75,.62Z"/>
  <path class="cls-9" d="M152.79,131.04c-1.33,2.31-.45,4.86-.81,7.28-.49,0-.99,0-1.48,0-.42-1.82,.77-4.41-.7-5.33-1.05-.66-3.34,.6-5.06,1.1-9.5,2.73-18.86,5.7-27.61,10.57-7.4,4.12-15.19,7.51-22.85,11.14-1.24,.59-2.67,.8-4.01,1.18-.01-.32-.02-.64-.03-.96,5.71-1.53,10.8-4.51,16.09-7.03,7.79-3.72,15.16-8.39,23.34-11.24,6.95-2.42,14.02-4.45,21.06-6.61,.64-.2,1.38-.07,2.07-.1Z"/>
  <path class="cls-9" d="M168.46,58.41c-1.2,.12-1.14-.78-1.31-1.57-.91-4.13-2.02-8.23-2.75-12.39-.55-3.1-1.94-5.85-3.07-8.69-1.82-4.59-7.09-5.46-11.57-2.05-1.29,.98-2.86,1.93-2.98,3.9,.18,.62,.71,.6,1.19,.68-.6,.2-1.21,.4-1.81,.59-.09-1.81-1.29-.28-1.86-.63,2.41-2.86,4.38-6.18,8.44-7.12,2.42-.56,4.86-.86,6.8,.82,1.6,1.38,3.05,1.4,4.88,.93,2.1-.55,4.15-1.43,6.39-1.27,.01,.25,.02,.5,.03,.75-2.41,.6-4.81,1.27-7.24,1.76-1.23,.25-1.72,.87-.92,1.77,1.37,1.54,1.39,3.49,1.93,5.27,.72,2.38,.24,5.64,2.02,7.03,1.9,1.49,4.74-.5,7.21-.67,.02,.28,.04,.56,.06,.85-1.23,.32-2.46,.92-3.68,.91-3.17-.02-3.73,1.45-2.87,4.19,.5,1.6,.74,3.28,1.09,4.93Z"/>
  <path class="cls-8" d="M164.82,60.43c1.19-.57,2.38-1.15,3.57-1.72,1.58-.03,3.16-.1,4.74-.08,2.74,.04,4.87,1.13,5.71,3.93,.8,2.67-.77,4.4-2.64,5.88-.92,.72-1.99,1.24-3,1.86-.39-.01-.79-.03-1.18-.04,.07-.19,.06-.37-.05-.55,.75-.98,1.94-1.24,2.91-1.86,1.71-1.1,3.29-2.55,2.68-4.88-.54-2.11-2.19-2.99-4.31-2.95-1.19,.03-2.38,.09-3.57,.14-.68-.1-1.37-.27-1.91,.37-1.31,.66-2.87,.87-3.9,2.08-.09,.19-.19,.38-.28,.58-1.48,.14-3.97-.87-2.66,2.4,.36,.89-.26,1.09-.86,1.09-2.04,0-4.09,.65-6.37,.07,.93-1.49,1.72-2.74,2.49-4.01,.49-.81,1.61-1.64,2.05-1.15,2,2.19,3.06,.08,4.42-.72l.05-.09c.35,.25,.7,.25,1.05,0,.41,.07,.8,.06,1.06-.34Z"/>
  <path class="cls-6" d="M182.27,131.08c-.57-.33-.63-.85-.51-1.42,1.24-.06,1.11-1.05,1.02-1.78-.27-2.18-.67-4.35-1.01-6.52,.19-1.06-.46-2.2,.29-3.21,1.07,.13,2.3-2.51,3.24,.18,.02,.22,.04,.43,.06,.65l.02,1.74c-.14,4.36,1.7,8.35,2.29,12.59,.31,2.22-2.24,1.71-2.48,3.22-1.15-.6-1.72-1.45-1.74-2.85-.01-.93,.59-2.38-1.17-2.6Z"/>
  <path class="cls-11" d="M150.5,138.33c.49,0,.99,0,1.48,0,.17,11.95,.61,23.89-.24,35.83-.43,0-.85,0-1.28,.01,.01-11.95,.02-23.89,.04-35.84Z"/>
  <path class="cls-9" d="M155.23,181.99c.12-10.19,.3-20.37,.35-30.56,.03-5.85-.3-11.7-.16-17.55,.06-2.26-.79-2.83-2.67-2.81,1.24-1.36,3.01-1.36,4.6-1.84-1.1,1.13-.93,2.55-.93,3.95,0,14.2,.04,28.4-.04,42.59-.01,2.08,.63,4.41-1.14,6.21Z"/>
  <path class="cls-10" d="M170.85,32.36c-.01-.25-.02-.5-.03-.75,2.4-.78,4.88-1.17,7.36-.71,3.78,.7,6.9-1.45,10.33-2.23,3.46-.79,6.9-.89,10.38-.82,2.06,.04,2.69,.98,2.33,3.14-.73,4.35-4.79,5.6-7.19,8.37-.16-.2-.32-.4-.47-.6,1.83-2.97,6.07-4,6.77-8.35-1.64,.55-2.91,.98-4.19,1.41-.01-.25-.02-.51-.04-.76l3.47-1.65c-5.67-1.09-10.9,.02-16,1.99-.04,.29-.08,.58-.11,.87-1.41-.12-2.83-.25-4.24-.37-.26-.06-.51-.13-.77-.19-2.57-.26-5.05,.46-7.58,.66Z"/>
  <path class="cls-9" d="M322.36,121.61c.37-1.1-.51-1.33-1.17-1.72-.63-3.97-3.06-7.04-4.9-10.46-4.2-7.78-8.97-15.17-13.87-22.5,.17-.2,.34-.39,.51-.59,5.01,6.33,9.04,13.27,13.06,20.26,2.19,3.8,4.24,7.65,6.15,11.59,.88,1.82,2.51,2.36,4.15,3.01-.7,.23-1.56-.02-2.07,.74-.62-.11-1.24-.22-1.85-.33Z"/>
  <path class="cls-9" d="M182.27,131.08c1.76,.22,1.16,1.67,1.17,2.6,.02,1.4,.59,2.25,1.74,2.85,.24-1.51,2.79-.99,2.48-3.22-.59-4.24-2.43-8.23-2.29-12.59,.59-.59,.57-1.17-.02-1.74-.02-.22-.04-.43-.06-.65,.2,0,.39-.02,.59-.04,.57,.46,.89,1.05,.99,1.79,.76,5.56,1.5,11.13,2.31,16.68,.28,1.94-.88,2.96-2.35,3.23-1.48,.27-3.09-.3-3.47-2.1-.48-2.25-.74-4.54-1.09-6.82Z"/>
  <path class="cls-10" d="M216.58,138.44c-2.28,1.13-4.41,2.52-7.14,2.56-1.99,.03-2.77-.67-2.59-2.6,.6-6.54,2.57-12.59,6.32-18,.17,.16,.34,.33,.51,.49-.94,1.43-1.41,3.01-1.34,4.73-3.12,2.99-5.35,11.25-3.73,14.51,1.31-4.97,3.73-9.43,3.69-14.55,.9,.08,.8,.85,.73,1.34-.57,3.81-.94,7.68-2.66,11.2-.28,.57-.64,1.08-.3,1.61,.41,.65,1.06,.2,1.61,.08,1.76-.38,3-1.97,4.85-2.15,.02,.26,.04,.52,.06,.78Z"/>
  <path class="cls-9" d="M167.78,60.52c.54-.64,1.23-.47,1.91-.37,.32,3.29,.92,6.52,2.28,9.55,.11,.17,.13,.36,.05,.55-.35,1.2,0,2.28,.55,3.32-.11,2.6,.86,4.19,3.53,5.09,4.56,1.54,8.4,4.35,11.59,8.01-.05,.29-.1,.58-.15,.87-.77-.58-1.68-1.05-2.29-1.77-2.6-3.06-6.07-4.73-9.6-6.34-.92-.42-1.89-1.15-1.99,.71-.26,.01-.53,.03-.79,.04-.99-4.5-1.83-9.04-3.05-13.47-.57-2.08-.31-4.49-2.05-6.19Z"/>
  <path class="cls-9" d="M181.04,120.17c-2.01-1.44-1.94,.68-2.13,1.49-.74,3.14-1.61,6.23-3.16,9.05-1.27,2.33-2.65,4.63-4.22,6.76-1.76,2.36-3.51,1.92-5.82-1.24,.16-.15,.31-.3,.47-.45,.64,.23,1.55,2.27,1.73-.38,.08-1.22,.54-2.65,2.33-2.53-.05,1.48-1.55,2.86-.14,4.77,2.36-3.67,4.73-7.1,6.34-11.03,.49-1.2-.44-1.15-.81-1.63,1.67-1.39,2.82-3.01,2.3-5.36,1.02,.31,2.49-2.06,3.12,.54Z"/>
  <path class="cls-9" d="M216.58,138.44c-.02-.26-.04-.52-.06-.78,1.47-1.42,2.94-2.84,4.4-4.26,.54,.03,1.09,.06,1.63,.09,0,0,0,0,0,0,.02,.33,.04,.66,.06,1-1.32,2.73-2.8,5.41-2.93,9.33,1.71-1.89,2.65-3.38,3.36-5.03,.05,.37,.1,.75,.15,1.12,.47,1.34-.99,2.33-.6,3.93,2.7-.38,5.08-1.79,7.63-2.63,.15,.17,.29,.34,.44,.51-2.83,1.64-5.65,3.13-9.11,2.96-2.56-.13-3.36-1.22-2.66-3.62,.08-.29,.16-.58,.19-.87,.12-1.12,1.52-2.47,.42-3.25-1.11-.79-1.73,1.33-2.92,1.5Zm3.36-2.42c-.13,.07-.26,.14-.39,.21,.07,.06,.15,.19,.19,.18,.14-.03,.27-.12,.4-.18-.06-.07-.13-.14-.2-.21Z"/>
  <path class="cls-10" d="M196.81,100.82l-1.46-.61c-2.65-1.12-4.54-.49-5.95,2.17-.69,1.3-1.65,2.78-3.57,2.64,1.17-2.46,2.3-4.93,3.54-7.35,.24-.47,.29-1.48,1.32-1.18-.4,1.48,.4,1.75,1.66,2.01,5.27,1.1,10.51,2.34,15.76,3.53-.02,.3-.03,.59-.05,.89-3.75-.68-7.42-1.84-11.25-2.1Z"/>
  <path class="cls-10" d="M173.91,48.38c-.02-.28-.04-.56-.06-.85,7.07-1.79,13.99-3.91,19.7-8.79,.16,.2,.32,.4,.47,.6-5.63,5.44-12.81,7.39-20.12,9.03Z"/>
  <path class="cls-10" d="M64.96,81.91c.71,1.29-.58,1.8-1.13,2.28-3.7,3.25-6.36,7.52-10.29,10.54-.65-1.14,.36-1.68,.94-2.2,3.71-3.33,6.38-7.69,10.48-10.61Z"/>
  <path class="cls-9" d="M243.8,78.8c5.82,2.42,11.54,.9,17.27-.45-.01,.18-.02,.36-.01,.54-4.02,1.16-8.04,2.32-12.06,3.48-.01-.26-.02-.53-.03-.79-1.54-1.95-4.08-1.14-5.94-2.2,.26-.2,.52-.39,.78-.59Z"/>
  <path class="cls-9" d="M206.86,79.36c6.41-3.45,13.31-4.64,20.49-4.61-.02,.31-.04,.62-.06,.92-7.14-.15-13.85,1.73-20.38,4.45-.02-.25-.03-.51-.05-.76Z"/>
  <path class="cls-9" d="M226.28,129.22c3.78,4.68,4.88,11.06,9.5,15.22-1.48-.12-2.41-1.1-3.19-2.2-.55-.79-1.12-.95-1.92-.51-.15-.17-.29-.34-.44-.51,1.75-1.74-.42-2.81-.8-4.12-.8-2.76-2.26-5.23-4.44-7.18,.17-.73,.79-.59,1.29-.69Z"/>
  <path class="cls-10" d="M324.21,121.94c.51-.76,1.37-.51,2.07-.74,4.59,.49,9.03,1.77,13.53,2.7,.01,.28,.02,.56,.03,.84-5.35-.16-10.5-1.45-15.64-2.8Z"/>
  <path class="cls-9" d="M244.78,154.13c.95-.54,1.66,.04,2.25,.62,2.98,2.94,6.8,4.48,10.37,6.43,1.09,.59,1.76,1.2,1.77,2.45-4.37-2.86-9.22-4.92-13.33-8.2-.47-.38-.99-.62-1.06-1.3Z"/>
  <path class="cls-11" d="M227.29,75.67c.02-.31,.04-.62,.06-.93,5.55,1.07,11.12,2.04,16.45,4.06-.26,.2-.52,.39-.78,.59-5.24-1.24-10.49-2.48-15.73-3.72Z"/>
  <path class="cls-9" d="M286.89,78.36c3.02-.46,5.6,1.04,8.15,2.2,2.2,1,4.1,2.67,6.13,4.04-.18,.16-.35,.32-.53,.49-4.33-2.62-8.62-5.33-13.73-6.21,0-.17,0-.34-.02-.51Z"/>
  <path class="cls-10" d="M181.04,120.17c-.63-2.6-2.1-.23-3.12-.54-2.59,1.24-5.51,1.67-7.9,3.38l-.47-.5c.2-.2,.37-.49,.62-.59,2.09-.77,2.76-1.87,1-3.72-.38-.4-.51-1.06-.76-1.59,.26-.02,.52-.05,.78-.07q2.33,3.86,6.39,2.27c1.29-.51,2.56-1.12,3.98-1.19,.17,.18,.33,.35,.5,.53-.75,1.01-.1,2.15-.29,3.21-.23,0-.45,0-.68,0-.02-.4-.03-.79-.05-1.19Z"/>
  <path class="cls-11" d="M339.85,124.74c-.01-.28-.02-.56-.03-.84,4.24,.82,8.47,1.64,12.71,2.46,.55,.11,.4,.59,.47,.95-4.48-.37-8.78-1.64-13.15-2.56Z"/>
  <path class="cls-8" d="M286.89,78.36c.02,.17,.03,.34,.02,.51-8.62,0-17.24,.01-25.86,.02,0-.18,0-.36,.01-.54,8.61-.18,17.22-.3,25.82,.01Z"/>
  <path class="cls-9" d="M72.19,158.16c4.6-.41,9.2-.81,13.8-1.22,0,.24,.02,.49,.03,.73-3.72,.42-7.44,.82-11.15,1.27-1.03,.12-1.93,.03-2.67-.78Z"/>
  <path class="cls-9" d="M165.71,136.22c-2.07-2.46-3.03-5.54-4.52-8.33-.06-.23-.12-.46-.18-.69,0,0,.03,.07,.03,.07,.58,.06,1.21,.2,1.13-.75,0,0,.04-.06,.04-.05,.47,.12,.94,.23,1.41,.35-.48,3.37,1.19,6.11,2.56,8.95-.16,.15-.31,.3-.47,.45Z"/>
  <path class="cls-9" d="M236.96,146.24c1.75-.41,2.09,1.41,2.97,2.16,1.89,1.61,3.71,3.42,4.86,5.74-2.91-2.34-5.93-4.56-7.84-7.9Z"/>
  <path class="cls-10" d="M197.32,82.66c2.9-1.08,6.08-1.2,8.87-2.67,.09,.1,.18,.2,.26,.3-1.65,1.37-3.3,2.74-4.95,4.11-.89-.7,1.07-1.12,.2-1.82-1.24,.22-2.46,.44-3.68,.65l-.7-.58Z"/>
  <path class="cls-10" d="M144.3,38.25c.57,.35,1.77-1.19,1.86,.63-3.19,.93-6.37,1.85-9.56,2.78-.02-.29-.03-.58-.05-.87,2.58-.84,5.17-1.69,7.75-2.53Z"/>
  <path class="cls-9" d="M136.55,40.78c.02,.29,.03,.58,.05,.87-2.64,.86-5.27,1.73-7.91,2.59-.25-.21-.5-.41-.75-.62,2.71-1.43,5.71-1.99,8.61-2.85Z"/>
  <path class="cls-9" d="M197.32,82.66c.23,.19,.47,.39,.7,.58-2.95,1.59-6.29,2.33-9.06,4.29-.04-.27-.07-.54-.11-.81,2.34-2.37,5.53-2.94,8.47-4.06Z"/>
  <path class="cls-11" d="M181.09,121.35c.23,0,.45,0,.68,0,.35,2.17,.74,4.34,1.01,6.52,.09,.73,.22,1.72-1.02,1.78-.22-2.77-.45-5.53-.67-8.3Z"/>
  <path class="cls-8" d="M188.85,86.71c.04,.27,.07,.54,.11,.81-.23,.47-.88,1.18,.29,1.12,1.87-.1,3.74-.4,5.6-.62,.02,.22,.04,.45,.06,.67-.2,.19-.4,.38-.6,.57-1.72,.04-3.39,.23-4.75,1.48-.19-.74-.54-1.34-1.37-1.47-.94-.29-.43-1.14-.65-1.71,.05-.29,.1-.58,.15-.87,.39,.01,.77,.02,1.16,.03Z"/>
  <path class="cls-10" d="M185.89,118.29c-.2,.02-.39,.03-.59,.04-.93-2.69-2.16-.05-3.24-.18-.17-.18-.33-.35-.5-.53,1.98-1.03,3.96-2.06,5.94-3.09,.17,.17,.35,.34,.52,.5-.93,.95-2.4,1.53-2.14,3.26Z"/>
  <path class="cls-9" d="M208.06,102.92c.02-.3,.03-.59,.05-.89,2.22,.48,4.45,.95,6.67,1.43-.01,.29-.03,.57-.04,.86-2.23-.46-4.45-.93-6.68-1.39Z"/>
  <path class="cls-8" d="M150.46,174.17c.43,0,.85,0,1.28-.01-.01,.96-.03,1.93-.04,2.89,0,.27-.02,.54-.02,.81-.03,.7-.02,1.4-.11,2.09-.21,1.56-.81,1.02-1.43,.23,.04-.8,.08-1.6,.12-2.41,0-.41,.01-.82,.02-1.23,.06-.79,.12-1.59,.19-2.38Z"/>
  <path class="cls-10" d="M213.17,120.4c.95-1.63,1.95-3.22,3.61-4.23,.16,.15,.33,.31,.49,.46-.73,1.82-2.64,2.63-3.6,4.26-.17-.16-.34-.33-.51-.49Z"/>
  <path class="cls-11" d="M86.01,157.67c0-.24-.02-.49-.03-.73,1.42-.31,2.84-.61,4.26-.92,.01,.32,.02,.64,.03,.96-1.42,.23-2.84,.46-4.26,.69Z"/>
  <path class="cls-10" d="M161,127.21c.06,.23,.12,.46,.18,.69-.86,.23-1.71,.46-2.57,.71-.05,.01-.1,.16-.08,.23,.01,.08,.1,.14,.17,.2,.81-.56,1.17-1.69,2.3-1.83Z"/>
  <path class="cls-4" d="M172.57,73.57c-.55-1.05-.9-2.13-.55-3.32,.39,.01,.79,.03,1.18,.04-.21,1.09-.42,2.19-.63,3.28Z"/>
  <path class="cls-9" d="M301.17,84.6c.59,.58,1.17,1.16,1.76,1.74-.17,.19-.34,.39-.51,.58-.78-.43-1.39-1.03-1.78-1.84,.18-.16,.35-.32,.53-.49Z"/>
  <path class="cls-1" d="M150.28,176.55c0,.41-.01,.82-.02,1.23-.39-.07-.84-.13-.83-.62,0-.49,.47-.54,.85-.61Z"/>
  <path class="cls-9" d="M235.76,144.41c.68,.18,1.21,.42,.62,1.24-.6-.21-1.18-.44-.62-1.24Z"/>
  <path class="cls-10" d="M206.86,79.36c.02,.25,.03,.51,.05,.76-.12,.14-.27,.2-.46,.17-.09-.1-.17-.2-.26-.3,.22-.21,.45-.42,.68-.63Z"/>
  <path class="cls-10" d="M188.12,113.74c.05,.32,.1,.64,.15,.95-.01,.16-.09,.27-.24,.32-.17-.17-.35-.34-.52-.5,.21-.26,.41-.52,.62-.77Z"/>
  <path class="cls-9" d="M260.24,164.65s-.04-.06-.04-.06c0,0,.04,.06,.04,.06Z"/>
  <path class="cls-9" d="M236.35,145.62c.22-.01,.45-.03,.67-.04-.01,.23-.02,.45-.04,.68-.44,.01-.63-.21-.63-.64Z"/>
  <path class="cls-9" d="M114.48,111.47c-3.61-6.94-6.46-14.21-9.17-21.54,.37,.05,.82-.03,1.08,.17,1.27,.95,.71,3.83,3.06,3.46,1.66-.26,2.53-2.13,3.74-3.28,.21-.2,.48-.34,.73-.5,.95,.06,1.88,.05,2.69-.57-.02,.42-.04,.84-.06,1.26-.16,.21-.32,.41-.49,.62-.97-.58-1.74-.91-2.65,.35-.93,1.27-2.13,2.5-3.48,3.24-1.58,.87-1.39,2.09-.7,2.93,.82,1,.99,2.15,1.47,3.22,1.68,3.81,3.09,7.74,5.81,11.03,1.14,1.38,2.48,1.39,3.72,1.07,1.44-.37,.28-1.66,.35-2.53,.19-2.49-.19-4.78-1.43-7.09-.94-1.74-1.08-3.94-.24-6.08,.29,.26,.51,.36,.54,.5,.11,.59,.16,1.19,.23,1.79-.15,4.29,.85,6.18,3.6,5.98,6.07-.45,11.99-1.73,17.72-3.84,.95-.35,1.47-.76,1-1.97-1.35-3.49-1.63-7.21-2.03-10.8-1.1-.63-1.79,.98-2.82,.34,.01-.87,.92-.94,1.29-1.5,1.46-.1,1.62-1.11,1.64-2.3,.02-1.77,.11-3.54,.17-5.32,.29,0,.58,.01,.87,.02-.08,4.43-.19,8.87,.32,13.29,.98,8.42,3.6,11.24,10.17,10.93-2.4,2.08-5.08,1.7-7.87-1.14-.5-.51-.62-1.37-1.84-.89-5.71,2.23-11.63,3.66-17.77,4.04-2.81,.17-1.9,2.33-1.93,3.86-.03,1.44,.14,2.85,2.28,2.64,6.38-.6,12.79-.75,19.14-1.65,4.29-.61,8.07-2.76,12.21-3.8,.27,.1,.55,.2,.82,.3-8.39,4.67-17.62,5.38-26.91,5.75-4.85,.19-9.7,1.4-14.58,.05-1.5-.42-2.89-.93-3.81-2.42,.89,.32,1.77,.63,2.66,.95,.23,.02,.46,.05,.69,.08-.07-.22-.13-.44-.2-.65Z"/>
  <path class="cls-5" d="M113.91,89.78c-.24,.17-.51,.3-.73,.5-1.22,1.15-2.08,3.01-3.74,3.28-2.34,.37-1.78-2.51-3.06-3.46-.26-.19-.72-.12-1.08-.17,.36-2.99,2.57-2.67,4.54-2.44,3.03,.35,4.82-1,5.02-4.11,.09-1.4,.06-2.82,0-4.23-.05-1.32,.24-2.53,1.52-2.99,1.18-.43,2.56-.79,3.43,.73-1.04,.6-2.08,1.2-3.12,1.81,2.93-.49,2.52,1.19,2.13,2.87-.77,3.27-2.79,5.78-4.93,8.22Z"/>
  <path class="cls-10" d="M113.91,89.78c2.14-2.44,4.16-4.95,4.93-8.22,.39-1.68,.81-3.36-2.13-2.87,1.04-.6,2.08-1.2,3.12-1.81,.38-.29,.76-.58,1.14-.87,1.11,.05,1.91-.5,2.56-1.34,3.89-2.19,6.88-5.5,10.24-8.35,.17,.19,.35,.39,.52,.58-.05,.4-.32,.88,.36,1,.22,.21,.45,.43,.67,.64-1.31,.39-2.81,.13-3.92,1.24-3.12,3.11-6.61,5.69-10.53,7.69-.68,.34-1.01,.83-.93,1.68,.2,2.29-.88,4.29-1.54,6.38-.84,1.1-1.79,2.14-1.8,3.66-.81,.61-1.74,.63-2.69,.57Z"/>
  <path class="cls-10" d="M134.62,65.46c.81-3.12,3.35-3.57,5.97-4.45,6.79-2.26,13.24-5.42,19.68-8.55,.17,.19,.33,.37,.5,.56-.03,.15-.07,.3-.1,.44-2.68,1.26-5.24,3.03-8.05,3.66-5.51,1.23-6.06,5.02-5.79,9.54l-.12,1.21c-.25,.04-.51,.08-.76,.12-.16-2.54,.53-5.1,.05-7.61-3.32-.08-4.42,1.64-4.14,4.56h-.83c.61-2.35,.02-3.02-2.53-2.45-2.12,.48-2.05,2.53-3.34,3.49-.18-.17-.35-.34-.53-.51Z"/>
  <path class="cls-10" d="M147.97,38.28c-.48-.08-1.01-.06-1.19-.68,2.46-.76,4.9-1.56,7.37-2.27,2-.57,3.65,0,4.22,2.12,1.31,4.92,2.47,9.87,3.67,14.82,.16,.64,0,1.21-.85,1.21l-.05-.03c-.12-.15-.24-.3-.37-.45-.17-.19-.33-.37-.5-.56,1.17-1.77-.18-3.41-.38-5.07-.34-2.77-1.11-5.51-1.87-8.21-.65-2.3-1.99-3.49-4.59-2.45-1.75,.7-3.63,1.04-5.45,1.55Z"/>
  <path class="cls-8" d="M156.64,107.72c-.27-.1-.55-.2-.82-.3-.11-1.96-2.71-1.37-3.09-3.06,3.65,2.16,7.59,1.37,11.48,1.13,0,.2-.01,.41-.02,.61-2.66-.17-5.01,1.16-7.54,1.62Z"/>
  <path class="cls-10" d="M163.62,126.83c-.47-.12-.94-.23-1.41-.35,2.58-1.08,4.5-3.4,7.34-3.98l.47,.5c-2.13,1.27-4.27,2.55-6.4,3.82Z"/>
  <path class="cls-5" d="M123.53,74.68c-.65,.84-1.46,1.38-2.56,1.34-.31-.78-.92-1.56,.33-2.14,1.06-.49,1.84-.45,2.23,.81Z"/>
  <path class="cls-10" d="M162.17,126.53c.08,.95-.55,.81-1.13,.75,.18-.55,.65-.66,1.13-.75Z"/>
  <path class="cls-10" d="M133.77,66.33c.28-.29,.57-.58,.85-.87,.18,.17,.35,.34,.53,.51-.29,.32-.58,.63-.86,.95-.17-.19-.35-.39-.52-.58Z"/>
  <path class="cls-9" d="M262.6,133.76c1.19,.26,2.2,.92,3.01,1.77,3.81,4.06,7.9,3.45,12.15,.86,.2,.17,.39,.35,.59,.52-1.42,1.56-3.47,1.75-5.65,2.49,1.9,1.95,4.64,1.34,6.29,2.99-6.66-.52-11.75-4.37-16.88-8.14,.16-.17,.33-.33,.49-.5Z"/>
  <path class="cls-9" d="M262.11,134.25c-3.37-2.06-6.42-4.72-10.38-5.68-.26-.06-.71-.3-.7-.42,.38-4.06-3.48-6.43-3.88-10.21,2.3,2.79,3.68,6.2,5.97,8.98,1.77,2.15,3.99,3.35,6.74,3.56l-.03-.03q.17,.96,2.77,3.3c-.16,.17-.33,.33-.49,.5Z"/>
  <path class="cls-9" d="M226.98,104.18c1.17,.36,2.1,1.07,2.84,2.03,1.9,2.5,3.92,4.97,5.03,7.93,.75,1.99,.92,4.18-1.7,5.25-.16-.18-.31-.36-.46-.55,1.23-1.86,1.06-3.74,.26-5.73-1.38-3.41-3.57-6.17-6.35-8.49,.11-.17,.24-.32,.4-.45Z"/>
  <path class="cls-9" d="M256.48,125.95c-2.05-3-5.09-5.21-6.79-8.47-.62-1.19-1.44-1.06-2.45-.97-1.02,.09-2.01,0-2.4-1.22,0,0-.05,.05-.05,.05,1.81,.59,3.35,.32,4.46-1.89,1.14,5.32,5.75,7.76,7.73,12-.17,.17-.34,.34-.51,.51Z"/>
  <path class="cls-11" d="M219.55,118.34c.48-.3,.97-.6,1.45-.91,0,0-.17,.15-.17,.15,.01,.47,.13,.68,.5,.19,.59,.2,1.01,.57,1.21,1.18-.02,.23-.03,.46-.05,.69-.49-.09-1.04-.23-1.01,.55,.04,.72,.6,.62,1.09,.58l-.04-.04c.02,.52-.03,1.07,.64,1.26l-.04-.03c.23,2.07,1.88,3.54,2.32,5.52-.19,.2-.38,.4-.56,.6-1.45-3.43-4.33-6.07-5.34-9.75Z"/>
  <path class="cls-9" d="M222.5,119.64c.02-.23,.03-.46,.05-.69,2.19,2.34,4.72,2.92,7.6,1.43,.87-.45,1.69-1.02,2.53-1.53,.15,.18,.31,.36,.46,.55-2.58,2.63-5.62,3.34-9.09,2.23-.43-.14-.73-.13-.91,.33,0,0,.04,.03,.04,.03,.86-.97,.23-1.18-.64-1.26,0,0,.04,.04,.04,.04,.56-.42-.08-.75-.09-1.12Z"/>
  <path class="cls-9" d="M278.82,135.6c2.25-2.47,5.42-2.85,8.2-4.09,.1,.22,.2,.44,.3,.66-2.7,1.3-5.4,2.6-8.09,3.9-.14-.16-.27-.31-.41-.47Z"/>
  <path class="cls-8" d="M224.9,128.08c.19-.2,.38-.4,.56-.6,.27,.58,.55,1.16,.82,1.74-.5,.1-1.13-.04-1.29,.69-.63,1.11-.79,2.32-.68,3.57-.22,.03-.45,.05-.67,.08-.12-.03-.24-.03-.36,0-.24-.02-.48-.05-.71-.07,0,0,0,0,0,0-.02-.44-.05-.89-.07-1.33,.8-1.36,1.61-2.72,2.41-4.07Z"/>
  <path class="cls-9" d="M259.86,130.49c.58-.22-.59-1.94,.67-1.16,1.45,.9,3.14,1.07,4.8,2.13-2.28,1.06-3.72-1.01-5.51-1,0,0,.03,.03,.03,.03Z"/>
  <path class="cls-9" d="M232.73,104.62c.15-.64-.17-1.51,.67-1.84,.77-.3,1.04,.26,1.19,.9-.86,.84,.32,.75,.51,1.1,.26,.47,1.38,.52,.67,1.45-1.01-.54-2.03-1.07-3.04-1.61Z"/>
  <path class="cls-10" d="M272.27,119.14c.85,1.35,2.45,2.21,2.61,4.01l.03-.04c-1.74-.52-2.23-2.19-3.15-3.47,.17-.17,.34-.34,.51-.51Z"/>
  <path class="cls-9" d="M242.26,111.31c1.01,1.23,2.09,2.42,2.54,4.02,0,0,.05-.05,.05-.05-1.73-.54-2.29-2.18-3.19-3.49,.2-.16,.4-.32,.6-.49Z"/>
  <path class="cls-9" d="M256.98,125.44c1.73,.3,2,1.96,2.8,3.15-1.5-.38-2.24-1.73-3.31-2.65,.17-.17,.34-.34,.51-.51Z"/>
  <path class="cls-10" d="M270.82,117.46c.48,.56,.97,1.12,1.45,1.68-.17,.17-.34,.34-.51,.51-.46-.59-.92-1.18-1.37-1.77,.14-.14,.29-.28,.43-.42Z"/>
  <path class="cls-10" d="M274.89,123.15c.27,.25,.54,.5,.82,.76-.26-.26-.53-.53-.79-.79,0,0-.03,.04-.03,.04Z"/>
  <path class="cls-9" d="M235.76,106.22c.8-.58,1.12-.21,1.21,.62-.79,.56-.94-.14-1.21-.62Z"/>
  <path class="cls-9" d="M279.23,136.07c-.3,.28-.59,.56-.89,.84-.2-.17-.39-.35-.59-.52,.36-.26,.71-.53,1.07-.79,.14,.16,.27,.31,.41,.47Z"/>
  <path class="cls-5" d="M300.63,85.09c.39,.81,1,1.41,1.78,1.84,4.9,7.32,9.67,14.72,13.87,22.5,1.85,3.42,4.27,6.49,4.9,10.46-9.87-1.99-19.75-3.95-29.61-5.99-1.11-.23-2.46-.26-3.05-1.6-2.3-2.48-2.68-6.17-5.21-8.51h0c.41-1.09-.56-1.81-.76-2.75-.4-1.91-1.19-3.84,.65-5.47,.14-.09,.26-.2,.35-.34,1.12-.85,1.76-1.94,1.39-3.58-.59,.97-1.18,1.94-1.76,2.91-.2,.2-.4,.4-.6,.6-6.74,2.14-13.67,1.3-20.53,1.09-2.68-.08-6.73,.98-6.21-4.71-.09,2.46-.36,4.31-2.61,5.15-4.93,1.85-9.77,4-15.01,4.87-3.04,1.05-6.75,.92-9.06-.04-2.97-1.23-6.56-.77-9.04-3.19,.68-.82,1.47-.11,2.19-.1,2.48,.02,4.52-.69,6.3-2.35l-.04,.03c1.1,.32,1.82,.06,1.84-1.24l-.04,.03c.74,.45,1-.07,1.24-.62l-.04,.03c.4-.02,.61-.24,.64-.64l-.04,.04c.4-.03,.63-.22,.64-.64l-.02,.03c.57-.65,2.14-.3,1.82-1.84l-.02,.02c.76,.35,.7-.14,.63-.63,0,0-.03,.03-.03,.03,1.55-.75,.19-2.98,1.84-3.68l-.04,.04c3.8-2.06,8-3.01,12.02-4.44,4.02-1.16,8.04-2.32,12.06-3.48,8.62,0,17.24-.01,25.86-.02,5.11,.88,9.4,3.59,13.73,6.21Z"/>
  <path class="cls-5" d="M206.45,80.29c.19,.03,.34-.03,.46-.17,6.53-2.71,13.23-4.6,20.38-4.45,5.24,1.24,10.49,2.48,15.73,3.72,1.86,1.06,4.4,.25,5.94,2.2-3.09,.93-6.21,1.77-9.25,2.85-1.11,.39-2.61,.68-2.74,2.38,0,0,.04-.04,.04-.04-3.51,.62-6.59,2.42-9.75,3.87-2.59,1.19-3.6,1.21-3.11-1.96,0-.03-.3-.1-.7-.23,.41,3.06-2.03,3.14-3.9,3.84-5.57,1.33-11.28,1.6-16.94,2.19-2.43,.05-4.41-.56-5.18-3.26-.14-.51-.41-1.44-1.38-.81,0,0,.07,.02,.07,.02,.35-.78,.1-.96-.64-.65,0,0,.04,.04,.04,.04,.4-.72-.27-.68-.61-.87,0,0,0-.28,0-.28-.02-.22-.04-.45-.06-.67,1.16-.19,2.1-.81,3.02-1.5,.68-.2,1.57,.03,1.86-.94l-.04,.03c.46,.03,.79-.07,.64-.65l-.06,.05c.61,.18,1.03-.04,1.26-.63l-.03,.02c1.65-1.37,3.3-2.74,4.95-4.11Z"/>
  <path class="cls-5" d="M286.86,112.83c-6.51-1.37-13.02-2.78-19.54-4.07-2.58-.51-5.08-1.05-6.89-3.19,0,0,.04,.03,.04,.03-.02-.98-.2-1.99,.51-3.04-1.74,.78-3.41,.82-5,.4-2.35-.62-4.64-1.48-6.95-2.24l.02,.02c-.07-.37-.25-1.04-.18-1.07,2.63-1.07,5.05-3.08,8-2.8,7.16,.68,14.32,.94,21.48,.3,1.49-.13,2.23,.19,2.24,1.78,.02,2.1,1.18,3.6,2.73,4.84h0c-.48,.98,.32,1.64,.63,2.43,.87,2.25,2.47,4.17,2.92,6.61Z"/>
  <path class="cls-1" d="M232.68,118.85c-.84,.51-1.66,1.08-2.53,1.53-2.89,1.49-5.41,.91-7.6-1.43-.2-.6-.62-.97-1.21-1.18-.17-.06-.34-.13-.5-.19,0,0,.17-.15,.17-.15-1.6-2.06-3.1-4.18-3.69-6.8-1.18-5.24,1.92-8.29,7.08-6.92,.76,.2,1.47,.61,2.2,.92,2.79,2.32,4.98,5.08,6.35,8.49,.8,1.99,.97,3.87-.26,5.73Z"/>
  <path class="cls-5" d="M224.9,128.08c-.8,1.36-1.61,2.72-2.41,4.07-.82,.03-1.36,.42-1.56,1.24-1.47,1.42-2.94,2.84-4.4,4.26-1.85,.18-3.08,1.77-4.85,2.15-.56,.12-1.2,.57-1.61-.08-.34-.53,.03-1.04,.3-1.61,1.72-3.52,2.09-7.39,2.66-11.2,.07-.49,.17-1.26-.73-1.34l.04,.04c-.07-1.73,.4-3.3,1.34-4.73,.95-1.63,2.86-2.44,3.6-4.26,2.22-1.41,1.29,1.46,2.29,1.71,1.01,3.68,3.89,6.31,5.34,9.75Z"/>
  <path class="cls-2" d="M214.78,103.45c-2.22-.48-4.45-.95-6.67-1.43-5.25-1.19-10.49-2.43-15.76-3.53-1.26-.26-2.06-.53-1.66-2.01,0,0-.05,.03-.05,.03,.63-.21,1.17-.46,.62-1.26l-.02,.05c1.84-.53,3.51-.27,5.45,.2,8.88,2.18,17.94,3.53,26.8,5.85,1.02,.27,2.17-.37,3.19,.84-4.11-.65-7.78,1.96-11.9,1.25Z"/>
  <path class="cls-6" d="M189.56,90.73c1.35-1.25,3.03-1.43,4.75-1.48,0,0-.06-.04-.06-.04,.07,.93,.73,.64,1.26,.62l-.04-.04c-.02,.45,.21,.66,.64,.65,0,0-.07-.02-.07-.02,.24,1.15,1.37,1.98,1.09,3.46-1.99,.17-4.64-1.91-5.89,1.41,0,0,.02-.05,.02-.05-.5,.27-1.21,.44-.62,1.26,0,0,.05-.03,.05-.03-1.03-.3-1.08,.71-1.32,1.18-1.24,2.42-2.37,4.89-3.54,7.35,0,0,.05-.04,.05-.04-1.02,0-2.04,0-3.05,0l.04,.03c-.22-1.76,.3-3.38,.8-5.05,1.1-3.66,3.59-6.37,5.89-9.23Z"/>
  <path class="cls-9" d="M283.31,103.8c-1.56-1.24-2.72-2.74-2.73-4.84-.01-1.6-.75-1.92-2.24-1.78-7.17,.64-14.32,.38-21.48-.3-2.95-.28-5.37,1.74-8,2.8-.07,.03,.11,.7,.18,1.07-3.68-.57-6.96,.66-10.12,2.36-1.62,.13-.78-.88-.71-1.54,5.24-.87,10.08-3.02,15.01-4.87,2.25-.84,2.52-2.7,2.61-5.15-.52,5.69,3.53,4.63,6.21,4.71,6.86,.21,13.78,1.05,20.53-1.09,.21,.14,.42,.27,.63,.41-1.84,1.63-1.05,3.56-.65,5.47,.2,.94,1.17,1.66,.76,2.76Z"/>
  <path class="cls-5" d="M238.92,103.1c3.16-1.7,6.44-2.93,10.12-2.36,0,0-.02-.02-.02-.02,.29,1.7,1.87,1.5,2.95,2.08,2.68,1.43,6.05,.68,8.5,2.8,0,0-.04-.03-.04-.03,.03,.39,.05,.79,.08,1.18-.14,.13-.25,.27-.36,.42-7.08-1.36-14.15-2.72-21.23-4.08Z"/>
  <path class="cls-1" d="M219,96.38c-.02-.16-.03-.33-.03-.49l-.05,.03c.41-.02,.68-.19,.64-.65l-.04,.04c.67-.17,1.6-.08,1.23-1.27,0,0-.05,.03-.05,.03,1.48,.71,2.54-.37,3.7-.9,2.81-1.28,5.61-2.58,8.38-3.96,1.48-.74,2.24-.44,2.38,1.25,0,0,.03-.03,.03-.03-.61-.2-.68,.15-.63,.63,0,0,.02-.02,.02-.02-1.31-.09-2.15,.29-1.82,1.84,0,0,.02-.03,.02-.03-.22-.01-.45-.03-.67-.04,.01,.23,.02,.46,.04,.68,0,0,.04-.04,.04-.04-.23-.01-.45-.02-.68-.04,.01,.23,.03,.45,.04,.68,0,0,.04-.03,.04-.03-.81-.6-1.12-.18-1.24,.62l.04-.03c-.88,0-1.57,.3-1.84,1.24l.04-.03c-3.17,.71-6.3,2.11-9.59,.49Z"/>
  <path class="cls-11" d="M219.58,93.04c-4.1,1.64-8.48,1.6-12.76,2.19-.94,.13-2-.31-2.78,.58-1.05,.21-1.36-.42-1.43-1.31,5.67-.59,11.37-.86,16.94-2.19,0,.24,.02,.49,.03,.73Z"/>
  <path class="cls-9" d="M219,96.38c3.29,1.62,6.42,.21,9.59-.49-1.77,1.66-3.82,2.37-6.3,2.35-.72,0-1.5-.71-2.19,.1,0,0,.03,.01,.03,.01,.15-.28,.09-.54-.22-.53-.15,0-.29,.33-.43,.51-.77-.5-.44-1.27-.48-1.96Z"/>
  <path class="cls-11" d="M286.86,112.83c-.46-2.44-2.05-4.36-2.92-6.61-.31-.79-1.11-1.45-.63-2.44,2.53,2.34,2.91,6.02,5.21,8.51-.47,.45-1.03,.6-1.66,.54Z"/>
  <path class="cls-1" d="M260.5,106.75c.13,.13,.4,.33,.38,.37-.2,.38-.48,.19-.73,.05,.1-.15,.22-.29,.36-.42Z"/>
  <path class="cls-4" d="M219.48,98.34c.14-.18,.28-.51,.43-.51,.31-.01,.37,.25,.22,.53-.22,0-.44,0-.65-.01Z"/>
  <path class="cls-11" d="M151.68,177.86c0-.27,.02-.54,.02-.81,.3,.28,.27,.55-.02,.81Z"/>
  <path class="cls-9" d="M162.66,60.86c.41-2.04-2.05-4.04-.09-6.1,1.86,1.45,.75,4.08,2.25,5.68-.26,.4-.65,.42-1.06,.34-.12-.37-.28-.77-.75-.64-.15,.04-.2,.41-.3,.64l-.05,.09Z"/>
  <path class="cls-5" d="M164.2,105.49c-3.89,.25-7.82,1.04-11.48-1.13,0,0,.08,.01,.08,.01,.39-1.21-.14-1.5-1.22-1.23h.01c.13-1.54-.82-1.43-1.85-1.21l.04,.04c.59-.81-.05-1.02-.62-1.26l.02,.04c.01-.43-.1-.74-.62-.63,0,0,.01,0,.01,0,0-.2-.02-.4-.03-.61,.03-1.56,.06-3.12,.08-4.68,0-.7,.09-1.52-1.05-.94-.73-1.26,.76-3.27-1.34-4.07,0-1.39,.01-2.79,.02-4.18,4.64,1.67,8.84,4.22,13.04,6.77,.33,.26,.67,.52,1,.78,.26,.13,.52,.26,.78,.4,1.69,2.65,3.28-.36,4.92-.08l-.04-.03c.39,.88,1.08,.87,1.85,.64l-.05-.03c.03,.82,.65,.99,1.27,1.17,.62,.21,1.25,.42,1.87,.63,.51,1.41,1.45,2.52,2.44,3.59,.68,1.85,2.3,3.21,2.72,5.2-.21,.16-.42,.33-.62,.49-3.1-.06-6.19-.12-9.29-.17-.69-.01-1.4-.07-1.96,.47Z"/>
  <path class="cls-10" d="M173.35,99.49c-.99-1.07-1.94-2.18-2.44-3.59,2.71-.29,.46-1.63,.52-2.48,.58,.05,1.19,0,1.74,.16,3.15,.94,6.28,1.94,9.42,2.91,2.16,.67,1.98-1.4,2.73-2.38-.58-.45,.29-1.93-.66-1.69-3.43,.86-6.42-1.01-9.63-1.19-2.4-.14-4.24-1.61-6.42-2.12-2.2-.51-4.52-.51-6.78-.74,.21-.33,.42-.66,.63-.99,1.27,.03,2.57,.26,3.79,.05,1.19-.2,2.88,.78,3.48-1.2,1.31-.19,.88,1.02,1.28,1.57,.92,1.26,2.45,1.26,3.73,1.1,.69-.09,.47-1.41,.12-1.86-1.6-2.04-1.28-4.59-1.98-6.85,.26-.01,.53-.03,.79-.04,.45,.96,1.29,1.93,1.28,2.89-.1,5.91,3.35,7.79,8.47,8.02,.98,.04,1.93,.44,2.91,.54,1.75,.19,2.41-.61,1.86-2.33,.84,.13,1.18,.73,1.37,1.47-2.3,2.86-4.79,5.57-5.89,9.23-.5,1.67-1.02,3.29-.8,5.05-2.68-1.46-4.07-3.94-4.79-6.73-.71-2.76-2.43-3.49-5.05-3.4,.3,1.27,.56,2.34,.81,3.4l-.5,1.21Zm8.54,3c1.95-5.43,1.88-5.55-3.3-5.73,.35,2.26,1.39,4.07,3.3,5.73Z"/>
  <path class="cls-6" d="M173.85,98.28c-.25-1.07-.51-2.13-.81-3.4,2.62-.1,4.34,.63,5.05,3.4,.72,2.8,2.11,5.27,4.79,6.73,0,0-.04-.03-.04-.03,1.02,1.45,2.04,1.39,3.05,0,0,0-.05,.04-.05,.04,1.92,.14,2.88-1.34,3.57-2.64,1.42-2.66,3.31-3.29,5.95-2.17-.01,3.06-2.34,4.65-4.1,6.61l.03-.03c-.61,.22-1.21,.44-.61,1.25l.03-.03c-1.14-.38-1.7,.12-1.84,1.24l.04-.04c-4.97,.56-11.24-3.25-13.23-8-.44-1.06-.48-2.42-1.81-2.93Z"/>
  <path class="cls-1" d="M188.12,113.74c-.21,.26-.41,.52-.62,.77-1.98,1.03-3.96,2.06-5.94,3.09-1.42,.06-2.68,.68-3.98,1.19q-4.06,1.59-6.39-2.27c-.16-1.09,.49-1.76,1.31-2.16,3.65-1.82,7.19-4.07,11.46-3.95,2.08,.06,4.41,.15,4.15,3.32Z"/>
  <path class="cls-5" d="M191.25,106.82c1.65-.2,1.81,.82,2.07,2.15,.32,1.64-.44,3.96,2.16,4.54l-.03-.02c-.17,.61-.03,.89,.64,.63l-.03-.03c-1.05,1.41-5.65,.89-6.51-.98-.51-1.12-1.92-2.36-.67-3.89,0,0-.04,.04-.04,.04,.88,0,1.56-.32,1.84-1.24,0,0-.03,.03-.03,.03,.61-.22,1.22-.43,.61-1.25l-.03,.03Z"/>
  <path class="cls-1" d="M195.48,113.5c-1.49-2.82-1.45-5.79-.77-8.84,1.16,3.04,2.77,5.99,1.36,9.42,0,0,.03,.03,.03,.03,.02-.45-.13-.73-.64-.63l.03,.02Z"/>
  <path class="cls-4" d="M176.07,104.7c.04,.23,.07,.46,.11,.69-.24-.07-.49-.14-.73-.21,.21-.16,.41-.33,.62-.49Z"/>
  <path class="cls-5" d="M193.56,38.74c-5.71,4.88-12.64,6.99-19.7,8.79-2.47,.17-5.31,2.16-7.21,.67-1.77-1.39-1.29-4.65-2.02-7.03-.54-1.78-.56-3.73-1.93-5.27-.8-.9-.32-1.52,.92-1.77,2.43-.49,4.83-1.17,7.24-1.76,2.53-.2,5.01-.92,7.58-.66,.26,.06,.51,.13,.77,.19,1.41,.12,2.83,.25,4.24,.37,4.27,.97,8.51,1.21,12.68-.45,1.28-.43,2.55-.86,4.19-1.41-.7,4.34-4.94,5.37-6.77,8.35Z"/>
  <path class="cls-6" d="M172.87,80.18c.7,2.26,.38,4.81,1.98,6.85,.35,.45,.57,1.77-.12,1.86-1.29,.17-2.81,.16-3.73-1.1-.4-.55,.03-1.76-1.28-1.57-.92-.09-1.35-.56-1.17-1.51,1.27-.02,1.85-.47,1.35-1.87-.73-2.03-1.49-4.08-1.99-6.18-.93-3.91-1.66-7.87-2.52-11.8-.2-.92-.13-2.11-1.51-2.27,1.03-1.21,2.58-1.42,3.9-2.08,1.73,1.7,1.47,4.12,2.05,6.19,1.22,4.43,2.06,8.97,3.05,13.47Z"/>
  <path class="cls-9" d="M163.88,62.6c1.38,.16,1.31,1.35,1.51,2.27,.86,3.93,1.59,7.89,2.52,11.8,.5,2.1,1.25,4.14,1.99,6.18,.5,1.4-.08,1.85-1.35,1.87-.47-2.37-1.07-4.72-1.37-7.11-.29-2.27-1.81-2.81-3.62-3.16,.52-.79,2.14-.6,1.82-2.12,.88-.66,.34-1.41,.14-2.15-.65-2.33-1.28-4.67-1.92-7,.09-.19,.19-.38,.28-.58Z"/>
  <path class="cls-4" d="M162.71,60.77c.1-.22,.15-.6,.3-.64,.47-.13,.63,.27,.75,.64-.35,.24-.7,.24-1.05,0Z"/>
  <path class="cls-10" d="M185.36,118.97c.59,.57,.61,1.15,.02,1.74,0-.58-.01-1.16-.02-1.74Z"/>
  <path class="cls-2" d="M183.56,31.4c5.1-1.97,10.33-3.08,16-1.99-1.16,.55-2.31,1.1-3.47,1.65-4.15,1.2-8.32,1.5-12.53,.35Z"/>
  <path class="cls-9" d="M183.56,31.4c4.21,1.15,8.39,.85,12.53-.35,.01,.25,.02,.51,.04,.76-4.18,1.66-8.42,1.43-12.68,.45,.04-.29,.08-.58,.11-.87Z"/>
  <path class="cls-9" d="M179.2,31.89c-.26-.06-.51-.13-.77-.19,.26,.06,.51,.13,.77,.19Z"/>
  <path class="cls-1" d="M212.29,125.58c.05,5.13-2.38,9.58-3.69,14.55-1.62-3.27,.61-11.52,3.73-14.51,0,0-.04-.04-.04-.04Z"/>
  <path class="cls-5" d="M188.19,89.26c.54,1.73-.11,2.52-1.86,2.33-.98-.11-1.93-.5-2.91-.54-5.12-.23-8.57-2.11-8.47-8.02,.02-.96-.83-1.92-1.28-2.89,.09-1.86,1.07-1.13,1.99-.71,3.52,1.61,6.99,3.28,9.6,6.34,.61,.72,1.52,1.19,2.29,1.77,.22,.57-.3,1.42,.65,1.71Z"/>
  <path class="cls-5" d="M163.62,126.83c2.13-1.27,4.27-2.55,6.4-3.82,2.39-1.71,5.32-2.14,7.9-3.38,.52,2.35-.63,3.97-2.3,5.36h.01c-.39,.02-.65,.18-.63,.62l.02-.02c-.9-.08-1.56,.08-1.22,1.24l.03-.03c-1.85,.81-2.44,2.54-3.04,4.26h0c-.71,.44-1.12,.99-.61,1.85l.04-.03c-1.8-.12-2.25,1.31-2.33,2.53-.18,2.64-1.09,.6-1.73,.38-1.36-2.83-3.03-5.58-2.56-8.95Z"/>
  <path class="cls-1" d="M175.63,124.98c.38,.48,1.3,.43,.81,1.63-1.61,3.94-3.98,7.36-6.34,11.03-1.41-1.92,.09-3.29,.14-4.77,0,0-.04,.03-.04,.03,.58-.49,1.38-.91,.61-1.85,0,0,0,0,0,0,1.84-.82,2.44-2.54,3.04-4.26,0,0-.03,.03-.03,.03,.82,0,1.79,.15,1.22-1.24,0,0-.02,.02-.02,.02,.76,.35,.94,.1,.63-.63h-.01Z"/>
  <path class="cls-5" d="M224.31,133.48c-.1-1.25,.05-2.46,.68-3.57,2.18,1.95,3.64,4.42,4.44,7.18,.38,1.31,2.55,2.38,.8,4.12-2.55,.83-4.92,2.25-7.63,2.63-.4-1.6,1.06-2.59,.6-3.93,1.12-2.01,1.32-4.18,1.11-6.42Z"/>
  <path class="cls-1" d="M223.27,133.56c.12-.03,.24-.03,.36,0-.2,1.74-.39,3.48-.59,5.22-.72,1.65-1.65,3.14-3.36,5.03,.14-3.92,1.62-6.6,2.93-9.33,.45-.14,.61-.49,.65-.92Z"/>
  <path class="cls-10" d="M223.05,138.79c.2-1.74,.39-3.48,.59-5.22,.22-.03,.45-.05,.67-.08,.2,2.24,0,4.41-1.11,6.42-.05-.37-.1-.75-.15-1.12Z"/>
  <path class="cls-10" d="M220.92,133.4c.2-.82,.74-1.21,1.56-1.24,.02,.44,.05,.89,.07,1.33-.54-.03-1.09-.06-1.63-.09Z"/>
  <path class="cls-10" d="M223.27,133.56c-.05,.43-.2,.78-.65,.92-.02-.33-.04-.66-.06-1,.24,.02,.48,.05,.71,.07Z"/>
  <path class="cls-3" d="M219.94,136.02c.07,.08,.14,.15,.2,.21-.13,.07-.26,.15-.4,.18-.05,.01-.13-.12-.19-.18,.13-.07,.26-.14,.39-.21Z"/>
  <path class="cls-3" d="M191.01,118.59c-.06-.27-.12-.53-.18-.8,.24,.03,.49,.05,.73,.07-.18,.24-.37,.48-.55,.72Z"/>
  <path class="cls-10" d="M236.97,86.82c.13-1.69,1.64-1.98,2.74-2.38,3.04-1.08,6.16-1.92,9.25-2.85,.01,.26,.02,.53,.03,.79-4.03,1.43-8.23,2.38-12.02,4.44Z"/>
  <path class="cls-1" d="M197.87,86.52c-.91,.69-1.86,1.31-3.02,1.5-1.87,.22-3.73,.52-5.6,.62-1.17,.06-.52-.65-.29-1.12,2.78-1.96,6.11-2.7,9.06-4.29,1.22-.22,2.44-.43,3.68-.65,.87,.71-1.09,1.12-.2,1.82,0,0,.03-.02,.03-.02-.82-.6-1.07-.05-1.26,.63,0,0,.06-.05,.06-.05-.43,0-.97-.1-.64,.65,0,0,.04-.03,.04-.03-.82-.08-1.81-.52-1.86,.94Z"/>
  <path class="cls-2" d="M194.91,88.69s0,.28,0,.28c-.22,.08-.44,.17-.65,.25,0,0,.06,.04,.06,.04,.2-.19,.4-.38,.6-.57Z"/>
  <path class="cls-5" d="M118.41,85.55c.66-2.09,1.74-4.09,1.54-6.38-.08-.85,.25-1.34,.93-1.68,3.92-1.99,7.41-4.58,10.53-7.69,1.11-1.11,2.61-.85,3.92-1.24,.58-.09,1.16-.16,1.74-.28,3.66-.74,3.71-.72,3.58,2.92-.11,2.98-.27,5.95-.41,8.93-.06,1.77-.15,3.54-.17,5.32-.01,1.19-.17,2.19-1.64,2.3-.3-1.32-.69-2.29-1.91-.58-1.35,1.89-3.07,2.95-5.52,2.7-1.8-.18-3.5,.52-5.18,1.09-1.64,.56-2.7,1.62-2.47,3.55-1.02,.07-2.04,.13-3.06,.2,.95-2.86-1.96-5.31-.86-8.22,.06-.16-.67-.61-1.03-.93Z"/>
  <path class="cls-5" d="M137.14,89.24c1.03,.64,1.72-.97,2.82-.34,.41,3.58,.68,7.31,2.03,10.8,.47,1.21-.05,1.62-1,1.97-5.73,2.11-11.65,3.4-17.72,3.84-2.74,.2-3.75-1.69-3.6-5.98q6.04-.4,6.03-4.34c3.52-1.37,7.36-2.03,10.26-4.75l-.03,.03c.64-.18,1.51-.13,1.23-1.24l-.03,.02Z"/>
  <path class="cls-5" d="M152.72,104.36c.38,1.69,2.98,1.09,3.09,3.06-4.14,1.04-7.92,3.19-12.21,3.8-6.36,.9-12.77,1.04-19.14,1.65-2.14,.2-2.31-1.2-2.28-2.64,.03-1.53-.87-3.69,1.93-3.86,6.14-.37,12.06-1.8,17.77-4.04,1.21-.47,1.33,.38,1.84,.89,2.8,2.84,5.48,3.23,7.87,1.14l-.05,.04c.42,.3,.84,.15,1.25-.03h-.08Z"/>
  <path class="cls-5" d="M125.7,95.19q.02,3.95-6.03,4.34c-.07-.6-.12-1.2-.23-1.79-.03-.14-.25-.24-.54-.5-.85,2.14-.7,4.33,.24,6.08,1.24,2.3,1.62,4.6,1.43,7.09-.07,.87,1.09,2.16-.35,2.53-1.25,.32-2.59,.3-3.72-1.07-2.72-3.29-4.13-7.22-5.81-11.03-.47-1.07-.64-2.21-1.47-3.22-.69-.84-.89-2.07,.7-2.93,1.35-.74,2.56-1.97,3.48-3.24,.92-1.26,1.68-.93,2.65-.35-.05,.84,.24,1.55,.83,2.14,.38,.63,.64,1.39,1.61,1.54,.05-1.02-.61-1.45-1.14-1.96l-.81-2.33c.02-.42,.04-.84,.06-1.26,0-1.52,.95-2.56,1.8-3.66,.36,.32,1.09,.78,1.03,.93-1.1,2.91,1.81,5.36,.86,8.22-.35,.12-.93,.16-1.01,.38-.28,.75,.34,.68,.82,.73,1.91,.17,3.74-.37,5.6-.63Z"/>
  <path class="cls-6" d="M146.25,89.82c2.1,.8,.61,2.81,1.34,4.07-.38,1.91-1.48,3.83,.16,5.68,.13,.41,.13,1.02,.83,.55,0,0-.01,0-.01,0-.02,.23-.03,.45-.05,.68l.67-.04s-.02-.04-.02-.04c-.64,.84-.09,1.09,.62,1.26,0,0-.04-.04-.04-.04,.29,.91,.65,1.71,1.85,1.23,0,0-.01-.01-.01-.01-.01,.42-.02,.84-.03,1.25l.05-.04c-6.57,.32-9.19-2.51-10.17-10.93-.52-4.42-.41-8.86-.32-13.29,.25-5.07,.5-10.14,.75-15.21-.28-2.92,.82-4.64,4.14-4.56,.49,2.51-.21,5.07-.05,7.61-.11,5.3-1.63,10.46-1.44,15.79-.01,.6-.02,1.2-.03,1.8-.03,1.4-.1,2.79-.05,4.19,.02,.62-.2,1.59,.83,1.62,1,.03,.76-.97,1-1.56Z"/>
  <path class="cls-5" d="M123.36,94.5c-.23-1.93,.83-2.99,2.47-3.55,1.68-.57,3.38-1.27,5.18-1.09,2.45,.25,4.16-.81,5.52-2.7,1.22-1.71,1.61-.74,1.91,.58-.37,.55-1.28,.63-1.29,1.5,0,0,.03-.02,.03-.02-.67,.16-1.55,.1-1.23,1.24,0,0,.03-.03,.03-.03-.59-.62-1.05-.07-1.54,.17-3.54,1.73-7.13,3.32-11.07,3.9Z"/>
  <path class="cls-11" d="M141.86,64.93c-.25,5.07-.5,10.14-.75,15.21-.29,0-.58-.01-.87-.02,.14-2.98,.3-5.95,.41-8.93,.13-3.64,.08-3.66-3.58-2.92-.57,.12-1.16,.19-1.74,.28-.22-.21-.45-.43-.67-.64,1.39-.83,2.99-.82,4.49-.95,1.48-.12,1.71-.93,1.88-2.03,.28,0,.56,0,.83,0Z"/>
  <path class="cls-10" d="M116.55,90.47c.27,.78,.54,1.56,.81,2.33-.16,.14-.31,.28-.47,.43-.59-.59-.88-1.3-.83-2.14,.16-.21,.32-.41,.49-.62Z"/>
  <path class="cls-4" d="M114.48,111.47c.07,.22,.13,.44,.2,.65-.23-.03-.46-.05-.69-.08,.16-.19,.32-.38,.49-.58Z"/>
  <path class="cls-11" d="M144.51,83.77c-.2-5.33,1.33-10.49,1.44-15.79,.25-.04,.51-.08,.76-.11,0,0,.1,.19,.1,.19-.67,5.22,.13,10.51-.79,15.71-.5,0-1.01,0-1.51,0Z"/>
  <path class="cls-9" d="M146.83,66.66c5.04,1.49,9.9,3.49,14.57,5.89,.81,.41,1.49,.25,2.22,.43-.58,.66-1.32,.6-2.08,.47-.82-.36-1.62-.8-2.46-1.07-4.12-1.34-7.82-3.92-12.27-4.32,0,0-.1-.19-.1-.19,.04-.4,.08-.8,.12-1.21Z"/>
  <path class="cls-1" d="M161.14,53.47h-.23s-.23,0-.23,0c.03-.15,.06-.3,.1-.44,.12,.15,.24,.3,.37,.45Z"/>
  <path class="cls-4" d="M222.5,119.64c.01,.38,.64,.7,.09,1.12-.49,.04-1.06,.14-1.09-.58-.04-.78,.52-.64,1.01-.55Z"/>
  <path class="cls-4" d="M222.54,120.72c.87,.08,1.5,.29,.64,1.26-.67-.19-.61-.74-.64-1.26Z"/>
  <path class="cls-10" d="M220.83,117.58c.17,.06,.34,.13,.5,.19-.38,.49-.49,.28-.5-.19Z"/>
  <path class="cls-10" d="M219.58,93.04c0-.24-.02-.49-.03-.73,1.87-.7,4.31-.78,3.9-3.84,.4,.13,.71,.2,.7,.23-.5,3.17,.52,3.15,3.11,1.96,3.16-1.45,6.24-3.26,9.75-3.87-1.65,.7-.29,2.93-1.84,3.68-.13-1.69-.9-1.99-2.38-1.25-2.76,1.38-5.57,2.68-8.38,3.96-1.17,.53-2.23,1.62-3.7,.9,.28-.35,.55-.71,.83-1.06-.65,0-1.31,.02-1.96,.03Z"/>
  <path class="cls-9" d="M283.18,94.56l1.76-2.91c.37,1.64-.27,2.72-1.39,3.58-.12-.22-.25-.44-.37-.66Z"/>
  <path class="cls-9" d="M232.78,92.89c-.33-1.55,.51-1.94,1.82-1.84,.32,1.55-1.25,1.19-1.82,1.84Z"/>
  <path class="cls-9" d="M228.55,95.91c.27-.94,.96-1.23,1.84-1.24-.03,1.3-.74,1.56-1.84,1.24Z"/>
  <path class="cls-9" d="M230.36,94.7c.12-.8,.43-1.22,1.24-.62-.24,.56-.5,1.08-1.24,.62Z"/>
  <path class="cls-9" d="M234.58,91.06c-.05-.47,.02-.82,.63-.63,.07,.49,.13,.97-.63,.63Z"/>
  <path class="cls-9" d="M232.17,93.5c-.01-.23-.02-.46-.04-.68,.22,.01,.45,.03,.67,.04,0,.43-.24,.61-.64,.64Z"/>
  <path class="cls-9" d="M231.57,94.1c-.01-.23-.03-.45-.04-.68,.23,.01,.45,.02,.68,.04-.03,.4-.24,.62-.64,.64Z"/>
  <path class="cls-9" d="M282.57,95.16c.2-.2,.4-.4,.6-.6,.12,.22,.25,.44,.37,.66-.09,.14-.2,.26-.35,.35-.21-.14-.42-.27-.63-.41Z"/>
  <path class="cls-10" d="M197.87,86.52c.05-1.46,1.05-1.02,1.86-.94-.3,.97-1.19,.74-1.86,.94Z"/>
  <path class="cls-10" d="M194.25,89.22c.22-.08,.44-.17,.65-.25,.34,.2,1.01,.16,.61,.87-.53,.02-1.19,.31-1.26-.62Z"/>
  <path class="cls-10" d="M200.28,85.01c.19-.67,.44-1.22,1.26-.63-.23,.59-.65,.81-1.26,.63Z"/>
  <path class="cls-10" d="M199.7,85.62c-.34-.76,.21-.65,.64-.65,.15,.58-.17,.68-.64,.65Z"/>
  <path class="cls-10" d="M196.11,90.46c-.44,0-.66-.2-.64-.65,.74-.31,.99-.12,.64,.65Z"/>
  <path class="cls-9" d="M260.47,105.6c-2.45-2.12-5.82-1.37-8.5-2.8-1.08-.57-2.66-.37-2.95-2.08,2.31,.76,4.6,1.62,6.95,2.24,1.59,.42,3.26,.38,5-.4-.71,1.05-.53,2.05-.51,3.04Z"/>
  <path class="cls-10" d="M190.65,96.52c-.59-.82,.11-.99,.62-1.26,.55,.8,0,1.05-.62,1.26Z"/>
  <path class="cls-10" d="M185.89,104.98c-1.02,1.39-2.04,1.46-3.05,0,1.02,0,2.04,0,3.05,0Z"/>
  <path class="cls-10" d="M219.53,95.31c-.28-1.11,.57-1.09,1.23-1.27,.37,1.19-.56,1.1-1.23,1.27Z"/>
  <path class="cls-10" d="M218.93,95.92c-.01-.23-.03-.45-.04-.68,.23,0,.46,.02,.68,.03,.03,.47-.23,.64-.64,.65Z"/>
  <path class="cls-8" d="M161.54,73.45c.76,.12,1.5,.19,2.08-.47,.51-.43,.97-.99,1.76-.65,.32,1.52-1.3,1.34-1.82,2.12-4.77,.96-6.37,5.28-8.91,8.63,.05-4.89,3.56-7.19,6.9-9.63Z"/>
  <path class="cls-9" d="M144.51,83.77c.5,0,1.01,0,1.51,0,3.63,2.26,6.96,5.37,11.87,3.38,1.38-.56,3.08-.75,4.55,.23-.21,.33-.42,.66-.63,.99q-3.94,.48-2.33,3.02c-.06,.34-.12,.69-.18,1.03-4.19-2.55-8.39-5.1-13.04-6.77-.6-.02-1.2-.05-1.79-.07,.01-.6,.02-1.2,.03-1.8Z"/>
  <path class="cls-11" d="M144.48,85.57c.6,.02,1.2,.05,1.79,.07,0,1.39-.01,2.79-.02,4.18-.24,.59,0,1.6-1,1.56-1.02-.04-.81-1-.83-1.62-.04-1.39,.03-2.79,.05-4.19Z"/>
  <path class="cls-10" d="M165.4,92.24c.2,.42,.4,.84,.6,1.27-1.65-.28-3.24,2.74-4.92,.08,.15-.17,.29-.35,.44-.52,.53,.28,1.37,.57,1.51-.06,.51-2.35,.43-2.37,2.66-1.76-.09,.12-.19,.25-.28,.38-.32,.17-1.04-.22-.92,.5,.06,.37,.57,.32,.92,.11h-.02Z"/>
  <path class="cls-11" d="M147.76,99.57c-1.65-1.85-.55-3.77-.16-5.68,1.14-.58,1.06,.24,1.05,.94-.02,1.56-.05,3.12-.08,4.68-.27,.02-.54,.04-.81,.05Z"/>
  <path class="cls-10" d="M151.6,103.16c-1.2,.49-1.56-.32-1.85-1.23,1.02-.22,1.98-.32,1.85,1.23Z"/>
  <path class="cls-10" d="M167.77,94.1c.69,.09,1.49-.29,2,.44,.03,.05-.48,.48-.73,.73-.61-.18-1.24-.35-1.27-1.17Z"/>
  <path class="cls-10" d="M151.55,104.4c.01-.42,.02-.84,.03-1.25,1.08-.27,1.61,.01,1.22,1.23-.41,.18-.83,.33-1.25,.03Z"/>
  <path class="cls-10" d="M165.97,93.49c.71-.06,1.46-.25,1.85,.64-.77,.23-1.46,.25-1.85-.64Z"/>
  <path class="cls-10" d="M159.31,92.42c.06-.34,.12-.69,.18-1.03,.42,.44,.83,.88,1.25,1.32l-.43,.49c-.33-.26-.67-.52-1-.78Z"/>
  <path class="cls-10" d="M149.79,101.98c-.7-.18-1.26-.42-.62-1.26,.57,.24,1.21,.45,.62,1.26Z"/>
  <path class="cls-10" d="M161.08,93.6c-.26-.13-.52-.27-.78-.4,.14-.16,.29-.33,.43-.49,.26,.12,.52,.24,.79,.37-.15,.17-.29,.35-.44,.52Z"/>
  <path class="cls-10" d="M147.76,99.57c.27-.02,.54-.04,.81-.05,0,.2,.02,.4,.03,.61-.7,.46-.7-.15-.83-.55Z"/>
  <path class="cls-10" d="M149.2,100.75l-.67,.04c.02-.23,.03-.45,.05-.68,.53-.11,.63,.2,.62,.63Z"/>
  <path class="cls-5" d="M162.44,87.38c-1.47-.98-3.18-.78-4.55-.23-4.91,1.99-8.24-1.12-11.87-3.38,.91-5.2,.11-10.5,.79-15.71,4.45,.4,8.14,2.98,12.27,4.32,.85,.28,1.64,.71,2.46,1.07-3.33,2.43-6.85,4.74-6.9,9.63,2.54-3.35,4.15-7.67,8.91-8.63,1.8,.35,3.33,.88,3.62,3.16,.3,2.39,.9,4.74,1.37,7.11-.18,.95,.24,1.43,1.17,1.51-.6,1.98-2.29,1-3.48,1.2-1.23,.2-2.53-.02-3.79-.05Z"/>
  <path class="cls-2" d="M161.52,93.07c-.26-.12-.52-.24-.79-.37-.42-.44-.83-.88-1.25-1.32q-1.61-2.54,2.33-3.02c2.27,.23,4.58,.23,6.78,.74,2.17,.5,4.02,1.98,6.42,2.12,3.21,.18,6.21,2.05,9.63,1.19,.96-.24,.08,1.24,.66,1.69-.75,.98-.57,3.05-2.73,2.38-3.14-.97-6.27-1.97-9.42-2.91-.55-.16-1.16-.11-1.74-.16,0,0,.04,.04,.04,.04-.11-.82-.74-.61-1.24-.64,0,0,.04,.03,.04,.03-1.52-.53-3.04-1.06-4.56-1.58-2.24-.61-2.15-.6-2.66,1.76-.14,.63-.98,.33-1.51,.06Z"/>
  <path class="cls-5" d="M181.89,102.5c-1.9-1.66-2.95-3.47-3.3-5.73,5.17,.18,5.24,.29,3.3,5.73Z"/>
  <path class="cls-9" d="M190.69,108.01c-.28,.92-.96,1.23-1.84,1.24,.14-1.12,.7-1.62,1.84-1.24Z"/>
  <path class="cls-9" d="M191.28,106.79c.61,.82,0,1.04-.61,1.25-.6-.82,0-1.04,.61-1.25Z"/>
  <path class="cls-9" d="M195.46,113.48c.51-.1,.66,.18,.64,.63-.67,.26-.81-.02-.64-.63Z"/>
  <path class="cls-9" d="M173.84,126.79c-.59,1.72-1.2,3.44-3.04,4.26,.6-1.72,1.18-3.45,3.04-4.26Z"/>
  <path class="cls-9" d="M175.02,125.59c.57,1.39-.4,1.24-1.22,1.24-.34-1.16,.31-1.32,1.22-1.24Z"/>
  <path class="cls-9" d="M170.81,131.05c.77,.94-.03,1.36-.61,1.85-.51-.86-.11-1.41,.61-1.85Z"/>
  <path class="cls-9" d="M175.64,124.97c.31,.74,.13,.98-.63,.63-.02-.44,.24-.6,.63-.63Z"/>
  <path class="cls-9" d="M123.36,94.5c3.94-.58,7.53-2.17,11.07-3.9,.49-.24,.95-.79,1.54-.17-2.91,2.72-6.75,3.38-10.26,4.75-1.86,.25-3.69,.8-5.6,.63-.48-.04-1.1,.02-.82-.73,.08-.22,.66-.26,1.01-.38,1.02-.07,2.04-.13,3.06-.2Z"/>
  <path class="cls-9" d="M135.94,90.46c-.32-1.14,.56-1.09,1.23-1.24,.29,1.11-.59,1.06-1.23,1.24Z"/>
  <path class="cls-10" d="M117.36,92.8c.53,.51,1.19,.94,1.14,1.96-.97-.15-1.23-.91-1.61-1.54,.16-.14,.31-.28,.47-.43Z"/>
  <path class="cls-10" d="M165.7,91.26c1.52,.53,3.04,1.06,4.56,1.58-1.73,.67-3.19-.78-4.86-.6,0,0,.02,.01,.02,.01,0-.21,0-.41,0-.62,.09-.13,.18-.25,.28-.38Z"/>
  <path class="cls-10" d="M170.22,92.82c.51,.03,1.13-.18,1.24,.64-.47-.11-1.19,.29-1.24-.64Z"/>
  <path class="cls-7" d="M165.42,91.64c0,.21,0,.41,0,.62-.35,.2-.86,.25-.92-.11-.12-.72,.6-.34,.92-.5Z"/>
</svg>