<svg xmlns="http://www.w3.org/2000/svg" xmlns:xlink="http://www.w3.org/1999/xlink" width="414" zoomAndPan="magnify" viewBox="0 0 310.5 149.999998" height="200" preserveAspectRatio="xMidYMid meet" version="1.0"><defs><clipPath id="291a1b46ee"><path d="M 52.0625 18.132812 L 121.414062 18.132812 L 121.414062 62.25 L 52.0625 62.25 Z M 52.0625 18.132812 " clip-rule="nonzero"/></clipPath><clipPath id="db483b9e19"><path d="M 52.136719 61.851562 C 54.640625 57.363281 63.578125 47.605469 67.628906 43.882812 C 70.074219 41.636719 71.488281 40.542969 74.054688 39.003906 C 77.464844 37.015625 82.222656 35.796875 86.527344 33.613281 C 91.542969 31.109375 96.6875 26.933594 102.28125 24.371094 C 108.128906 21.738281 119.3125 17.820312 120.855469 18.207031 C 121.113281 18.273438 121.308594 18.398438 121.308594 18.59375 C 121.050781 19.554688 108.578125 22.1875 102.730469 24.820312 C 97.136719 27.386719 91.996094 31.558594 86.976562 34.125 C 82.542969 36.371094 77.527344 37.59375 74.125 39.582031 C 71.613281 41.121094 70.332031 42.214844 67.949219 44.394531 C 64.027344 47.992188 55.734375 57.042969 53.742188 59.929688 C 53.101562 60.957031 53.035156 61.984375 52.652344 62.109375 C 52.460938 62.175781 52.136719 61.851562 52.136719 61.851562 " clip-rule="nonzero"/></clipPath><clipPath id="3677559e26"><path d="M 124.898438 12.933594 L 151.867188 12.933594 L 151.867188 17.933594 L 124.898438 17.933594 Z M 124.898438 12.933594 " clip-rule="nonzero"/></clipPath><clipPath id="91236559e3"><path d="M 124.90625 17.308594 C 129.730469 15.320312 132.234375 14.675781 134.292969 14.738281 C 136.285156 14.808594 138.152344 15.960938 140.140625 16.089844 C 142.328125 16.28125 145.222656 15.769531 146.894531 15.511719 C 147.855469 15.320312 148.5 15.253906 149.269531 14.933594 C 150.042969 14.484375 151.136719 12.878906 151.519531 12.945312 C 151.648438 13.007812 151.84375 13.457031 151.78125 13.457031 C 151.78125 13.519531 151.261719 13.074219 151.328125 13.074219 C 151.328125 13.074219 151.84375 13.199219 151.84375 13.332031 C 151.90625 13.648438 150.945312 14.484375 150.363281 14.871094 C 149.71875 15.382812 149.078125 15.703125 148.113281 15.960938 C 146.378906 16.410156 143.226562 16.859375 140.851562 16.734375 C 138.601562 16.664062 136.347656 15.445312 134.164062 15.382812 C 132.105469 15.382812 129.664062 15.960938 127.992188 16.476562 C 126.835938 16.859375 125.550781 18.015625 125.101562 17.886719 C 124.90625 17.757812 124.90625 17.308594 124.90625 17.308594 " clip-rule="nonzero"/></clipPath><clipPath id="f33fe6a939"><path d="M 128.199219 12.929688 L 151.796875 12.929688 L 151.796875 28.691406 L 128.199219 28.691406 Z M 128.199219 12.929688 " clip-rule="nonzero"/></clipPath><clipPath id="87c047e329"><path d="M 138.277344 15.382812 C 148.5 12.6875 150.171875 12.75 150.945312 13.136719 C 151.328125 13.332031 151.648438 13.457031 151.714844 13.90625 C 151.90625 14.675781 151.199219 16.601562 150.171875 18.078125 C 148.5625 20.390625 144.707031 23.792969 141.621094 25.527344 C 138.792969 27.128906 135 28.027344 132.492188 28.480469 C 130.824219 28.734375 128.25 28.734375 128.25 28.480469 C 128.1875 28.09375 137.25 27.128906 140.914062 25.203125 C 144.320312 23.40625 148.113281 19.941406 149.71875 17.628906 C 150.621094 16.28125 151.394531 14.421875 151.070312 13.84375 C 150.8125 13.457031 150.042969 13.519531 149.402344 13.457031 C 148.5625 13.394531 147.726562 13.332031 146.570312 13.519531 C 144.578125 13.84375 139.308594 16.347656 138.472656 15.960938 C 138.277344 15.894531 138.277344 15.382812 138.277344 15.382812 " clip-rule="nonzero"/></clipPath><clipPath id="aef7bccd9f"><path d="M 107.460938 30.890625 L 124.5 30.890625 L 124.5 38.324219 L 107.460938 38.324219 Z M 107.460938 30.890625 " clip-rule="nonzero"/></clipPath><clipPath id="95cfa752db"><path d="M 124.332031 31.558594 C 115.519531 37.335938 113.527344 38.105469 111.792969 38.296875 C 110.25 38.425781 107.742188 38.042969 107.484375 37.59375 C 107.421875 37.464844 107.808594 37.015625 107.808594 37.078125 C 107.808594 37.078125 107.679688 37.65625 107.617188 37.65625 C 107.617188 37.65625 107.421875 37.207031 107.550781 37.078125 C 107.871094 36.824219 109.734375 37.65625 110.828125 37.65625 C 111.921875 37.65625 113.078125 37.335938 114.171875 37.015625 C 115.394531 36.628906 116.421875 36.179688 117.707031 35.472656 C 119.445312 34.445312 122.402344 31.6875 123.492188 31.175781 C 123.945312 30.980469 124.332031 30.851562 124.457031 30.917969 C 124.519531 31.042969 124.332031 31.558594 124.332031 31.558594 " clip-rule="nonzero"/></clipPath><clipPath id="11aa8433fb"><path d="M 93 38.433594 L 108.835938 38.433594 L 108.835938 51.769531 L 93 51.769531 Z M 93 38.433594 " clip-rule="nonzero"/></clipPath><clipPath id="358dbd862c"><path d="M 108.773438 39.003906 C 99.578125 49.019531 97.972656 49.980469 96.492188 50.6875 C 95.269531 51.199219 93.40625 51.90625 93.085938 51.652344 C 92.957031 51.519531 93.085938 51.070312 93.152344 51.070312 C 93.152344 51.070312 93.34375 51.652344 93.34375 51.652344 C 93.28125 51.714844 92.957031 51.328125 93.019531 51.136719 C 93.152344 50.75 94.886719 50.75 96.042969 50.238281 C 97.585938 49.46875 99.644531 48.25 101.441406 46.640625 C 103.691406 44.652344 106.972656 39.710938 108 38.8125 C 108.257812 38.617188 108.449219 38.425781 108.578125 38.492188 C 108.707031 38.492188 108.773438 39.003906 108.773438 39.003906 " clip-rule="nonzero"/></clipPath><clipPath id="e0bff83f70"><path d="M 89.257812 50.714844 L 96.914062 50.714844 L 96.914062 62.382812 L 89.257812 62.382812 Z M 89.257812 50.714844 " clip-rule="nonzero"/></clipPath><clipPath id="f557155192"><path d="M 96.878906 50.945312 C 96.042969 55.628906 95.464844 56.71875 94.695312 57.875 C 93.730469 59.226562 91.996094 61.277344 90.902344 61.921875 C 90.320312 62.242188 89.421875 62.433594 89.292969 62.304688 C 89.101562 61.921875 93.152344 58.96875 94.242188 57.425781 C 95.011719 56.398438 95.398438 55.4375 95.789062 54.347656 C 96.105469 53.253906 95.851562 50.945312 96.238281 50.75 C 96.429688 50.621094 96.878906 50.945312 96.878906 50.945312 " clip-rule="nonzero"/></clipPath><clipPath id="7927fbe41a"><path d="M 105.480469 41.75 L 112.175781 41.75 L 112.175781 43.410156 L 105.480469 43.410156 Z M 105.480469 41.75 " clip-rule="nonzero"/></clipPath><clipPath id="f41d5ec61b"><path d="M 105.492188 42.726562 C 110.121094 41.636719 111.792969 41.636719 112.113281 41.957031 C 112.242188 42.082031 112.050781 42.535156 112.050781 42.535156 C 112.050781 42.535156 111.984375 41.894531 111.984375 41.894531 C 111.984375 41.894531 112.179688 42.40625 112.050781 42.535156 C 111.792969 42.921875 109.542969 42.277344 108.449219 42.46875 C 107.421875 42.597656 105.941406 43.5625 105.621094 43.371094 C 105.429688 43.238281 105.492188 42.726562 105.492188 42.726562 " clip-rule="nonzero"/></clipPath><clipPath id="b67ee3e0cf"><path d="M 114.765625 41.753906 L 126.476562 41.753906 L 126.476562 46.714844 L 114.765625 46.714844 Z M 114.765625 41.753906 " clip-rule="nonzero"/></clipPath><clipPath id="6cea8858c1"><path d="M 115.007812 41.765625 C 125.421875 45.484375 126.324219 45.808594 126.449219 46.128906 C 126.449219 46.324219 126.195312 46.640625 126.195312 46.640625 C 126.128906 46.640625 126.324219 46.066406 126.324219 46.066406 C 126.324219 46.066406 126.324219 46.515625 126.0625 46.640625 C 125.101562 47.09375 115.328125 43.371094 114.816406 42.339844 C 114.683594 42.152344 115.007812 41.765625 115.007812 41.765625 " clip-rule="nonzero"/></clipPath><clipPath id="c3ffb86014"><path d="M 126.699219 46.761719 L 128.585938 46.761719 L 128.585938 48.257812 L 126.699219 48.257812 Z M 126.699219 46.761719 " clip-rule="nonzero"/></clipPath><clipPath id="5571d8f174"><path d="M 128.378906 48.25 C 126.644531 47.15625 127.09375 46.835938 127.09375 46.835938 C 127.09375 46.835938 126.707031 47.347656 126.707031 47.347656 C 126.707031 47.347656 126.773438 46.835938 126.964844 46.773438 C 127.222656 46.707031 128.441406 47.347656 128.574219 47.667969 C 128.636719 47.863281 128.378906 48.25 128.378906 48.25 " clip-rule="nonzero"/></clipPath><clipPath id="96571c9221"><path d="M 133.695312 49.835938 L 143.53125 49.835938 L 143.53125 57 L 133.695312 57 Z M 133.695312 49.835938 " clip-rule="nonzero"/></clipPath><clipPath id="b1d16ea759"><path d="M 134.035156 49.851562 C 142.328125 55.050781 143.550781 56.140625 143.484375 56.59375 C 143.421875 56.785156 142.972656 56.910156 142.972656 56.910156 C 142.972656 56.910156 143.484375 56.527344 143.484375 56.59375 C 143.484375 56.59375 143.035156 57.042969 143.035156 56.976562 C 143.035156 56.976562 143.359375 56.460938 143.359375 56.460938 C 143.359375 56.460938 143.164062 56.976562 142.972656 56.976562 C 142.519531 57.042969 141.558594 55.179688 140.464844 54.28125 C 138.792969 52.996094 133.84375 51.136719 133.714844 50.363281 C 133.648438 50.109375 134.035156 49.851562 134.035156 49.851562 " clip-rule="nonzero"/></clipPath><clipPath id="9ba4f1e51b"><path d="M 94.113281 56.59375 L 111.035156 56.59375 L 111.035156 63.8125 L 94.113281 63.8125 Z M 94.113281 56.59375 " clip-rule="nonzero"/></clipPath><clipPath id="c33c9bd6f3"><path d="M 94.820312 58.453125 C 96.300781 62.816406 97.070312 63.074219 97.90625 63.140625 C 99 63.203125 100.222656 62.691406 101.699219 62.109375 C 104.140625 61.082031 111.085938 57.425781 111.023438 56.847656 C 111.023438 56.71875 110.507812 56.59375 110.507812 56.65625 C 110.507812 56.65625 111.023438 56.847656 111.023438 56.976562 C 111.085938 57.296875 110.183594 58.003906 109.542969 58.519531 C 108.707031 59.15625 107.679688 59.863281 106.265625 60.507812 C 104.140625 61.597656 99.898438 63.847656 97.90625 63.78125 C 96.75 63.78125 95.851562 63.265625 95.269531 62.628906 C 94.5625 61.851562 94.308594 60.1875 94.179688 59.414062 C 94.113281 58.96875 94.050781 58.386719 94.242188 58.324219 C 94.308594 58.195312 94.820312 58.453125 94.820312 58.453125 " clip-rule="nonzero"/></clipPath><clipPath id="79f7503d95"><path d="M 113.632812 51.574219 L 115.15625 51.574219 L 115.15625 56.222656 L 113.632812 56.222656 Z M 113.632812 51.574219 " clip-rule="nonzero"/></clipPath><clipPath id="613bb74306"><path d="M 115.132812 51.90625 C 114.109375 56.398438 113.722656 56.140625 113.722656 56.078125 C 113.722656 56.015625 114.363281 56.140625 114.363281 56.140625 C 114.363281 56.140625 113.851562 56.273438 113.722656 56.140625 C 113.402344 55.753906 114.109375 53.445312 114.300781 52.613281 C 114.429688 52.164062 114.429688 51.652344 114.621094 51.582031 C 114.75 51.519531 115.132812 51.90625 115.132812 51.90625 " clip-rule="nonzero"/></clipPath><clipPath id="d3e0876d87"><path d="M 95.792969 64.398438 L 114.058594 64.398438 L 114.058594 71.828125 L 95.792969 71.828125 Z M 95.792969 64.398438 " clip-rule="nonzero"/></clipPath><clipPath id="9561f11bbb"><path d="M 96.558594 64.617188 C 97.972656 70.070312 98.421875 70.839844 99.449219 71.164062 C 101.957031 71.804688 113.976562 66.667969 114.042969 66.800781 C 114.042969 66.863281 113.660156 67.117188 113.59375 67.054688 C 113.527344 67.054688 113.722656 66.542969 113.59375 66.476562 C 113.335938 66.347656 112.113281 67.953125 110.765625 68.59375 C 108.320312 69.8125 101.699219 71.933594 99.578125 71.804688 C 98.742188 71.742188 98.230469 71.355469 97.78125 70.972656 C 97.394531 70.585938 97.261719 70.132812 97.007812 69.496094 C 96.621094 68.59375 96.042969 66.988281 95.914062 66.027344 C 95.851562 65.386719 95.722656 64.617188 95.980469 64.421875 C 96.042969 64.359375 96.558594 64.617188 96.558594 64.617188 " clip-rule="nonzero"/></clipPath><clipPath id="adaffb69ab"><path d="M 96.171875 64.507812 L 96.898438 64.507812 L 96.898438 65.589844 L 96.171875 65.589844 Z M 96.171875 64.507812 " clip-rule="nonzero"/></clipPath><clipPath id="45c7cf9598"><path d="M 96.878906 64.617188 C 96.558594 66.667969 96.042969 64.808594 96.238281 64.617188 C 96.363281 64.421875 96.878906 64.617188 96.878906 64.617188 " clip-rule="nonzero"/></clipPath><clipPath id="5d376e346d"><path d="M 86.972656 58.828125 L 96.058594 58.828125 L 96.058594 76.367188 L 86.972656 76.367188 Z M 86.972656 58.828125 " clip-rule="nonzero"/></clipPath><clipPath id="b8fd6a4127"><path d="M 87.496094 58.839844 C 90.0625 63.074219 89.421875 64.9375 90.0625 66.800781 C 91.027344 69.496094 96.300781 75.011719 96.042969 75.976562 C 96.042969 76.230469 95.53125 76.300781 95.53125 76.300781 C 95.53125 76.300781 95.980469 75.847656 96.042969 75.847656 C 96.042969 75.914062 95.789062 76.363281 95.59375 76.363281 C 95.269531 76.363281 94.949219 75.59375 94.4375 74.886719 C 93.40625 73.34375 90.386719 69.496094 89.550781 67.117188 C 88.972656 65.386719 89.613281 63.714844 89.101562 62.304688 C 88.652344 61.082031 86.914062 59.738281 86.976562 59.226562 C 86.976562 59.03125 87.496094 58.839844 87.496094 58.839844 " clip-rule="nonzero"/></clipPath><clipPath id="b49419a5a5"><path d="M 90.890625 69.5625 L 141.3125 69.5625 L 141.3125 77.484375 L 90.890625 77.484375 Z M 90.890625 69.5625 " clip-rule="nonzero"/></clipPath><clipPath id="b6e85bd2e2"><path d="M 91.351562 75.011719 C 100.09375 77.195312 107.933594 76.363281 113.335938 75.144531 C 118.476562 73.921875 123.042969 69.945312 127.800781 69.621094 C 132.300781 69.300781 140.59375 71.609375 141.234375 72.640625 C 141.363281 72.828125 141.109375 73.214844 141.109375 73.214844 C 141.109375 73.214844 141.300781 72.640625 141.300781 72.640625 C 141.300781 72.640625 141.042969 73.214844 141.042969 73.214844 C 141.042969 73.214844 141.234375 72.640625 141.234375 72.640625 C 141.234375 72.640625 141.300781 73.085938 141.109375 73.214844 C 140.207031 73.859375 132.300781 69.945312 127.863281 70.265625 C 123.171875 70.648438 118.738281 74.5625 113.660156 75.785156 C 108.191406 77.003906 100.09375 77.773438 96.171875 77.324219 C 94.050781 77.070312 92.1875 76.167969 91.414062 75.785156 C 91.09375 75.59375 90.902344 75.460938 90.902344 75.335938 C 90.902344 75.207031 91.351562 75.011719 91.351562 75.011719 " clip-rule="nonzero"/></clipPath><clipPath id="16ea330a2c"><path d="M 97.0625 71.789062 L 99.53125 71.789062 L 99.53125 76.773438 L 97.0625 76.773438 Z M 97.0625 71.789062 " clip-rule="nonzero"/></clipPath><clipPath id="9d7f10dd4a"><path d="M 98.101562 72.316406 C 98.035156 74.886719 99.578125 76.683594 99.511719 76.746094 C 99.386719 76.8125 97.648438 75.144531 97.261719 74.304688 C 97.070312 73.730469 97.007812 73.085938 97.136719 72.640625 C 97.261719 72.253906 97.585938 71.804688 97.714844 71.804688 C 97.84375 71.804688 98.101562 72.316406 98.101562 72.316406 " clip-rule="nonzero"/></clipPath><clipPath id="d503d417b4"><path d="M 115.71875 61.601562 L 116.875 61.601562 L 116.875 66.957031 L 115.71875 66.957031 Z M 115.71875 61.601562 " clip-rule="nonzero"/></clipPath><clipPath id="383fef6c2b"><path d="M 116.871094 61.726562 C 116.550781 66.988281 116.101562 66.800781 116.101562 66.800781 C 116.101562 66.800781 116.613281 66.988281 116.675781 66.925781 C 116.871094 66.730469 115.90625 65.640625 115.777344 64.871094 C 115.652344 63.972656 115.84375 61.984375 116.226562 61.664062 C 116.421875 61.535156 116.871094 61.726562 116.871094 61.726562 " clip-rule="nonzero"/></clipPath><clipPath id="7898cbd4e7"><path d="M 115.242188 55.285156 L 121.769531 55.285156 L 121.769531 59.117188 L 115.242188 59.117188 Z M 115.242188 55.285156 " clip-rule="nonzero"/></clipPath><clipPath id="b4a9dff3e8"><path d="M 115.519531 55.308594 C 121.886719 58.710938 121.5 59.03125 121.5 59.03125 C 121.5 59.03125 121.757812 58.453125 121.757812 58.453125 C 121.757812 58.519531 121.695312 58.96875 121.5 59.09375 C 120.792969 59.289062 115.519531 56.59375 115.265625 55.886719 C 115.203125 55.628906 115.519531 55.308594 115.519531 55.308594 " clip-rule="nonzero"/></clipPath><clipPath id="10958efd33"><path d="M 126.832031 60.503906 L 133.753906 60.503906 L 133.753906 65.964844 L 126.832031 65.964844 Z M 126.832031 60.503906 " clip-rule="nonzero"/></clipPath><clipPath id="bc7cfe5cea"><path d="M 127.285156 60.507812 C 132.941406 63.460938 133.777344 65.066406 133.714844 65.578125 C 133.648438 65.769531 133.457031 65.960938 133.265625 65.960938 C 132.878906 65.898438 132.367188 63.652344 131.59375 63.074219 C 130.886719 62.496094 129.664062 62.628906 128.828125 62.242188 C 128.054688 61.921875 126.898438 61.339844 126.835938 61.019531 C 126.835938 60.828125 127.285156 60.507812 127.285156 60.507812 " clip-rule="nonzero"/></clipPath><clipPath id="0419401bd5"><path d="M 143.386719 68.621094 L 149.605469 68.621094 L 149.605469 78.386719 L 143.386719 78.386719 Z M 143.386719 68.621094 " clip-rule="nonzero"/></clipPath><clipPath id="a721231c00"><path d="M 148.820312 68.65625 C 149.65625 75.398438 149.789062 77.386719 149.207031 78.03125 C 148.886719 78.351562 148.371094 78.414062 147.792969 78.351562 C 146.765625 78.15625 144.382812 75.65625 143.808594 75.785156 C 143.550781 75.847656 143.421875 76.300781 143.421875 76.300781 C 143.421875 76.300781 143.550781 75.847656 143.746094 75.785156 C 144.453125 75.527344 147.792969 78.289062 148.695312 77.644531 C 149.71875 76.9375 149.078125 72.191406 148.820312 70.585938 C 148.695312 69.8125 148.113281 69.171875 148.246094 68.851562 C 148.308594 68.722656 148.820312 68.65625 148.820312 68.65625 " clip-rule="nonzero"/></clipPath><clipPath id="4ffb0723fb"><path d="M 145.160156 69.019531 L 149.066406 69.019531 L 149.066406 77.800781 L 145.160156 77.800781 Z M 145.160156 69.019531 " clip-rule="nonzero"/></clipPath><clipPath id="3ea98b9815"><path d="M 147.085938 69.621094 C 145.542969 71.675781 145.925781 72.574219 146.1875 73.410156 C 146.445312 74.304688 146.699219 75.398438 147.214844 76.105469 C 147.664062 76.8125 149.078125 77.707031 149.015625 77.773438 C 149.015625 77.773438 148.5625 77.644531 148.5625 77.519531 C 148.5625 77.453125 148.949219 77.195312 149.015625 77.195312 C 149.078125 77.261719 149.015625 77.707031 148.820312 77.773438 C 148.5 77.902344 147.46875 77.324219 146.957031 76.8125 C 146.378906 76.167969 145.996094 75.207031 145.671875 74.242188 C 145.414062 73.085938 144.964844 71.355469 145.285156 70.457031 C 145.542969 69.8125 146.507812 68.980469 146.828125 69.042969 C 147.019531 69.042969 147.085938 69.621094 147.085938 69.621094 " clip-rule="nonzero"/></clipPath><clipPath id="b08a667b37"><path d="M 62.460938 73.128906 L 143.714844 73.128906 L 143.714844 110.632812 L 62.460938 110.632812 Z M 62.460938 73.128906 " clip-rule="nonzero"/></clipPath><clipPath id="811224230e"><path d="M 131.078125 77.324219 C 135.898438 74.304688 137.890625 73.28125 139.5 73.214844 C 140.851562 73.214844 142.714844 73.667969 143.292969 74.5 C 143.746094 75.078125 143.746094 76.363281 143.359375 77.070312 C 143.035156 77.839844 142.070312 78.289062 141.042969 78.863281 C 139.5 79.632812 136.542969 80.019531 134.617188 80.917969 C 132.75 81.691406 131.398438 82.585938 129.597656 83.742188 C 127.09375 85.347656 123.75 88.558594 121.113281 89.777344 C 119.121094 90.675781 117.769531 90.355469 115.394531 91.125 C 111.023438 92.535156 103.371094 95.488281 97.585938 98.378906 C 91.609375 101.265625 84.601562 106.527344 79.972656 108.453125 C 77.207031 109.609375 75.40625 109.996094 72.964844 110.316406 C 70.394531 110.703125 66.664062 110.636719 64.800781 110.378906 C 63.835938 110.253906 62.550781 109.742188 62.550781 109.742188 C 62.550781 109.675781 63.128906 109.742188 63.128906 109.804688 C 63.195312 109.867188 62.871094 110.253906 62.808594 110.1875 C 62.746094 110.1875 62.613281 109.742188 62.808594 109.609375 C 63.449219 108.902344 69.8125 110.0625 72.898438 109.675781 C 75.597656 109.355469 77.398438 108.902344 80.359375 107.683594 C 85.179688 105.695312 92.507812 100.242188 98.550781 97.289062 C 104.140625 94.589844 111.339844 91.703125 115.265625 90.484375 C 117.320312 89.902344 118.285156 90.289062 120.019531 89.585938 C 122.71875 88.429688 126.449219 84.898438 129.148438 83.230469 C 131.144531 82.011719 132.621094 81.046875 134.546875 80.277344 C 136.480469 79.441406 139.113281 79.183594 140.59375 78.414062 C 141.621094 77.902344 142.652344 77.324219 142.90625 76.617188 C 143.164062 76.042969 142.90625 75.078125 142.457031 74.5625 C 141.941406 74.050781 140.59375 73.859375 139.5 73.859375 C 138.152344 73.921875 136.285156 74.753906 134.871094 75.460938 C 133.585938 76.167969 131.847656 78.03125 131.335938 77.902344 C 131.144531 77.902344 131.078125 77.324219 131.078125 77.324219 " clip-rule="nonzero"/></clipPath><clipPath id="fac1d41bd3"><path d="M 130.542969 76.34375 L 133.605469 76.34375 L 133.605469 81.722656 L 130.542969 81.722656 Z M 130.542969 76.34375 " clip-rule="nonzero"/></clipPath><clipPath id="4e30fc63a4"><path d="M 132.816406 76.9375 C 130.949219 79.121094 133.714844 81.496094 133.585938 81.691406 C 133.457031 81.816406 132.300781 81.175781 131.785156 80.726562 C 131.273438 80.214844 130.691406 79.441406 130.566406 78.800781 C 130.5 78.289062 130.628906 77.707031 130.949219 77.324219 C 131.273438 76.875 132.300781 76.300781 132.621094 76.363281 C 132.75 76.425781 132.816406 76.9375 132.816406 76.9375 " clip-rule="nonzero"/></clipPath><clipPath id="e9955874e2"><path d="M 114.457031 71.347656 L 115.738281 71.347656 L 115.738281 73.375 L 114.457031 73.375 Z M 114.457031 71.347656 " clip-rule="nonzero"/></clipPath><clipPath id="30c5dbb7da"><path d="M 115.132812 71.355469 C 115.714844 73.214844 115.203125 73.28125 115.203125 73.28125 C 115.203125 73.214844 115.714844 72.898438 115.714844 72.960938 C 115.777344 72.960938 115.457031 73.410156 115.265625 73.34375 C 115.007812 73.28125 114.363281 71.804688 114.496094 71.484375 C 114.558594 71.355469 115.132812 71.355469 115.132812 71.355469 " clip-rule="nonzero"/></clipPath><clipPath id="edf05461f4"><path d="M 125.628906 80.417969 L 137.558594 80.417969 L 137.558594 95.441406 L 125.628906 95.441406 Z M 125.628906 80.417969 " clip-rule="nonzero"/></clipPath><clipPath id="ab2f1201b5"><path d="M 137.507812 80.726562 C 133.90625 92.152344 132.429688 94.589844 131.273438 95.167969 C 130.691406 95.488281 130.113281 95.488281 129.664062 95.296875 C 129.085938 95.105469 128.765625 94.460938 128.3125 93.757812 C 127.480469 92.535156 126.0625 89.714844 125.871094 88.234375 C 125.804688 87.339844 126.511719 86.117188 126.324219 85.863281 C 126.191406 85.730469 125.679688 85.925781 125.679688 85.925781 C 125.679688 85.925781 126.128906 85.730469 126.324219 85.863281 C 126.582031 86.054688 126.257812 87.339844 126.511719 88.300781 C 126.898438 89.714844 127.992188 92.152344 128.699219 93.304688 C 129.148438 93.949219 129.472656 94.527344 129.921875 94.71875 C 130.304688 94.914062 130.691406 94.847656 131.078125 94.589844 C 132.042969 94.074219 133.328125 91.960938 134.164062 90.097656 C 135.386719 87.59375 136.09375 80.917969 136.929688 80.472656 C 137.121094 80.402344 137.507812 80.726562 137.507812 80.726562 " clip-rule="nonzero"/></clipPath><clipPath id="b9295ec2eb"><path d="M 129.246094 84.351562 L 134.324219 84.351562 L 134.324219 95.324219 L 129.246094 95.324219 Z M 129.246094 84.351562 " clip-rule="nonzero"/></clipPath><clipPath id="175d418bf7"><path d="M 134.292969 85.027344 C 131.53125 87.65625 130.304688 91.316406 129.984375 92.988281 C 129.792969 93.886719 130.113281 95.230469 129.984375 95.296875 C 129.855469 95.296875 129.28125 94.144531 129.28125 93.242188 C 129.28125 91.636719 131.144531 87.65625 131.917969 86.246094 C 132.234375 85.539062 132.492188 85.15625 132.878906 84.835938 C 133.265625 84.578125 134.035156 84.257812 134.230469 84.386719 C 134.359375 84.511719 134.292969 85.027344 134.292969 85.027344 " clip-rule="nonzero"/></clipPath><clipPath id="e577dcdba5"><path d="M 135.953125 83.15625 L 136.296875 83.15625 L 136.296875 83.453125 L 135.953125 83.453125 Z M 135.953125 83.15625 " clip-rule="nonzero"/></clipPath><clipPath id="b33a37f0a5"><path d="M 136.285156 83.167969 C 136.027344 83.804688 135.964844 83.167969 135.964844 83.167969 " clip-rule="nonzero"/></clipPath><clipPath id="239a636be1"><path d="M 134.40625 83.226562 L 136.363281 83.226562 L 136.363281 84.917969 L 134.40625 84.917969 Z M 134.40625 83.226562 " clip-rule="nonzero"/></clipPath><clipPath id="256aaf1132"><path d="M 134.421875 84.320312 C 136.160156 83.167969 136.347656 83.679688 136.347656 83.679688 C 136.347656 83.679688 135.898438 83.230469 135.898438 83.230469 C 135.898438 83.230469 136.347656 83.484375 136.347656 83.617188 C 136.347656 83.9375 135.066406 84.960938 134.808594 84.898438 C 134.617188 84.835938 134.421875 84.320312 134.421875 84.320312 " clip-rule="nonzero"/></clipPath><clipPath id="97a113a8ec"><path d="M 133.054688 85.652344 L 133.527344 85.652344 L 133.527344 86.328125 L 133.054688 86.328125 Z M 133.054688 85.652344 " clip-rule="nonzero"/></clipPath><clipPath id="a6391fc13b"><path d="M 133.265625 86.3125 C 132.6875 85.539062 133.523438 85.667969 133.523438 85.667969 " clip-rule="nonzero"/></clipPath><clipPath id="bc981f0420"><path d="M 142.449219 47.410156 L 185.34375 47.410156 L 185.34375 58.523438 L 142.449219 58.523438 Z M 142.449219 47.410156 " clip-rule="nonzero"/></clipPath><clipPath id="cb84074c8f"><path d="M 142.777344 57.492188 C 146.894531 57.75 147.664062 57.617188 148.628906 57.105469 C 150.300781 56.140625 152.742188 52.996094 154.542969 51.714844 C 155.828125 50.8125 156.664062 50.363281 158.144531 49.789062 C 160.457031 48.953125 164.441406 47.925781 167.078125 47.605469 C 169.007812 47.410156 170.292969 47.347656 172.351562 47.734375 C 175.308594 48.3125 180.707031 50.621094 182.957031 51.652344 C 184.050781 52.097656 185.273438 52.484375 185.335938 52.871094 C 185.398438 53.058594 184.949219 53.382812 184.949219 53.382812 C 184.949219 53.382812 185.273438 52.804688 185.273438 52.804688 C 185.335938 52.871094 185.207031 53.382812 185.207031 53.382812 C 185.144531 53.382812 185.207031 52.804688 185.207031 52.804688 C 185.144531 52.804688 185.207031 53.316406 185.011719 53.382812 C 184.050781 53.832031 176.65625 49.46875 173.3125 48.695312 C 171 48.179688 169.457031 48.054688 167.140625 48.25 C 164.121094 48.503906 159.878906 49.273438 156.792969 50.878906 C 153.644531 52.484375 150.878906 56.785156 148.371094 57.875 C 146.828125 58.582031 145.09375 58.519531 144.066406 58.453125 C 143.421875 58.386719 142.652344 58.324219 142.519531 58.070312 C 142.457031 57.9375 142.777344 57.492188 142.777344 57.492188 " clip-rule="nonzero"/></clipPath><clipPath id="526431c7c9"><path d="M 142.851562 52.382812 L 152.921875 52.382812 L 152.921875 58.804688 L 142.851562 58.804688 Z M 142.851562 52.382812 " clip-rule="nonzero"/></clipPath><clipPath id="d468361b77"><path d="M 152.808594 53.125 C 143.871094 56.140625 143.550781 56.460938 143.359375 56.910156 C 143.164062 57.425781 143.550781 58.773438 143.484375 58.773438 C 143.421875 58.773438 142.777344 57.105469 142.90625 56.527344 C 143.101562 55.949219 143.613281 55.566406 144.320312 55.117188 C 145.671875 54.214844 149.71875 52.933594 151.261719 52.613281 C 151.96875 52.484375 152.679688 52.289062 152.871094 52.484375 C 153 52.613281 152.808594 53.125 152.808594 53.125 " clip-rule="nonzero"/></clipPath><clipPath id="562342f6e3"><path d="M 149.574219 60.101562 L 167.238281 60.101562 L 167.238281 63.191406 L 149.574219 63.191406 Z M 149.574219 60.101562 " clip-rule="nonzero"/></clipPath><clipPath id="88eafc2902"><path d="M 149.851562 62.046875 C 163.027344 61.40625 166.371094 59.800781 166.949219 60.1875 C 167.140625 60.3125 167.078125 60.828125 167.078125 60.828125 C 167.078125 60.828125 167.015625 60.1875 167.015625 60.1875 C 167.015625 60.1875 167.273438 60.570312 167.207031 60.699219 C 167.015625 61.082031 165.921875 61.40625 165.085938 61.664062 C 163.867188 61.984375 162.386719 62.175781 160.648438 62.371094 C 158.144531 62.691406 153.320312 63.332031 151.457031 63.140625 C 150.558594 63.074219 149.71875 62.882812 149.59375 62.628906 C 149.527344 62.496094 149.851562 62.046875 149.851562 62.046875 " clip-rule="nonzero"/></clipPath><clipPath id="a21e9b14b4"><path d="M 166.078125 57.46875 L 167.933594 57.46875 L 167.933594 60.449219 L 166.078125 60.449219 Z M 166.078125 57.46875 " clip-rule="nonzero"/></clipPath><clipPath id="ef72119636"><path d="M 167.140625 57.75 C 167.015625 60.058594 167.976562 60.378906 167.914062 60.445312 C 167.914062 60.445312 166.433594 60.121094 166.179688 59.671875 C 165.921875 59.226562 166.242188 57.683594 166.566406 57.492188 C 166.691406 57.425781 167.140625 57.75 167.140625 57.75 " clip-rule="nonzero"/></clipPath><clipPath id="cfd9c4d7cc"><path d="M 163.515625 50.128906 L 232.886719 50.128906 L 232.886719 81.300781 L 163.515625 81.300781 Z M 163.515625 50.128906 " clip-rule="nonzero"/></clipPath><clipPath id="d09e96a25e"><path d="M 163.542969 63.203125 C 184.304688 52.675781 186.554688 51.394531 190.542969 50.75 C 196.265625 49.851562 206.679688 50.042969 211.820312 51.199219 C 215.035156 51.90625 217.800781 53.125 219.148438 54.601562 C 220.046875 55.5 219.664062 56.460938 220.371094 57.8125 C 222.042969 60.957031 228.535156 68.53125 230.402344 71.742188 C 231.300781 73.28125 231.621094 74.050781 232.007812 75.398438 C 232.519531 77.070312 232.96875 81.175781 232.84375 81.242188 C 232.777344 81.242188 232.007812 76.875 231.300781 75.011719 C 230.722656 73.28125 230.144531 72.191406 228.984375 70.328125 C 227.058594 67.183594 221.527344 61.082031 219.921875 58.195312 C 219.148438 56.847656 219.535156 55.886719 218.636719 54.921875 C 217.347656 53.574219 214.78125 52.546875 211.820312 51.839844 C 206.808594 50.6875 196.265625 50.496094 190.605469 51.394531 C 186.6875 52.035156 184.5 53.253906 180.835938 54.859375 C 175.886719 57.042969 165.148438 64.167969 163.796875 63.78125 C 163.609375 63.714844 163.542969 63.203125 163.542969 63.203125 " clip-rule="nonzero"/></clipPath><clipPath id="de0b0769c4"><path d="M 163.070312 63.378906 L 165.21875 63.378906 L 165.21875 66.171875 L 163.070312 66.171875 Z M 163.070312 63.378906 " clip-rule="nonzero"/></clipPath><clipPath id="d60e239bd9"><path d="M 163.609375 63.398438 C 165.214844 65.898438 164.699219 66.027344 164.699219 66.027344 C 164.699219 66.027344 165.214844 65.640625 165.214844 65.707031 C 165.214844 65.707031 165.023438 66.15625 164.890625 66.15625 C 164.507812 66.15625 163.027344 64.230469 163.09375 63.78125 C 163.09375 63.589844 163.609375 63.398438 163.609375 63.398438 " clip-rule="nonzero"/></clipPath><clipPath id="49fc8a5abe"><path d="M 163.375 57.070312 L 175.222656 57.070312 L 175.222656 65.230469 L 163.375 65.230469 Z M 163.375 57.070312 " clip-rule="nonzero"/></clipPath><clipPath id="c271847735"><path d="M 163.867188 63.847656 C 166.5 64.742188 169.203125 64.617188 170.613281 63.910156 C 171.964844 63.265625 172.925781 61.726562 173.699219 60.570312 C 174.40625 59.480469 175.113281 57.042969 175.175781 57.105469 C 175.308594 57.105469 174.984375 59.480469 174.40625 60.632812 C 173.699219 61.984375 172.414062 63.714844 170.933594 64.484375 C 169.390625 65.253906 166.433594 65.324219 165.085938 65.128906 C 164.378906 65 163.480469 64.550781 163.414062 64.292969 C 163.414062 64.167969 163.867188 63.847656 163.867188 63.847656 " clip-rule="nonzero"/></clipPath><clipPath id="fe69fef163"><path d="M 174.820312 60.097656 L 189.203125 60.097656 L 189.203125 68.308594 L 174.820312 68.308594 Z M 174.820312 60.097656 " clip-rule="nonzero"/></clipPath><clipPath id="8245139471"><path d="M 189.191406 60.25 C 189 62.753906 188.484375 63.332031 187.714844 63.910156 C 186.492188 64.808594 184.304688 65.578125 182.3125 66.285156 C 180.0625 67.054688 174.921875 68.402344 174.859375 68.273438 C 174.792969 68.082031 185.207031 64.742188 187.199219 63.398438 C 187.972656 62.882812 188.355469 62.558594 188.617188 62.046875 C 188.804688 61.46875 188.355469 60.378906 188.617188 60.1875 C 188.742188 60.058594 189.191406 60.25 189.191406 60.25 " clip-rule="nonzero"/></clipPath><clipPath id="3b670fd6ed"><path d="M 188.207031 58.945312 L 209.285156 58.945312 L 209.285156 65.15625 L 188.207031 65.15625 Z M 188.207031 58.945312 " clip-rule="nonzero"/></clipPath><clipPath id="0e52ec2194"><path d="M 188.617188 63.398438 C 193.308594 64.679688 201.019531 64.550781 203.851562 63.847656 C 205.328125 63.523438 206.164062 63.140625 207 62.371094 C 207.964844 61.535156 209.121094 58.902344 209.25 58.96875 C 209.378906 59.03125 208.605469 61.664062 207.769531 62.558594 C 206.871094 63.523438 205.714844 64.035156 204.042969 64.484375 C 201.019531 65.253906 193.117188 65.324219 190.542969 64.871094 C 189.386719 64.679688 188.355469 64.230469 188.230469 63.910156 C 188.164062 63.714844 188.617188 63.398438 188.617188 63.398438 " clip-rule="nonzero"/></clipPath><clipPath id="df780f9d81"><path d="M 204.949219 63.378906 L 210.382812 63.378906 L 210.382812 75.425781 L 204.949219 75.425781 Z M 204.949219 63.378906 " clip-rule="nonzero"/></clipPath><clipPath id="7ff2940817"><path d="M 205.777344 63.652344 C 206.488281 68.914062 209.25 72.640625 209.894531 74.050781 C 210.148438 74.5625 210.40625 74.949219 210.34375 75.144531 C 210.28125 75.269531 209.699219 75.269531 209.699219 75.269531 C 209.699219 75.269531 210.28125 75.144531 210.34375 75.144531 C 210.34375 75.144531 210.085938 75.460938 209.894531 75.398438 C 209.058594 75.207031 206.101562 69.363281 205.394531 67.3125 C 205.007812 66.15625 204.945312 65.253906 205.007812 64.550781 C 205.007812 64.101562 205.007812 63.523438 205.199219 63.398438 C 205.328125 63.332031 205.777344 63.652344 205.777344 63.652344 " clip-rule="nonzero"/></clipPath><clipPath id="21f592294d"><path d="M 182.621094 66.464844 L 194.121094 66.464844 L 194.121094 69.664062 L 182.621094 69.664062 Z M 182.621094 66.464844 " clip-rule="nonzero"/></clipPath><clipPath id="202c4bee90"><path d="M 183.023438 66.476562 C 190.796875 69.042969 191.378906 69.042969 191.957031 68.851562 C 192.664062 68.65625 193.5 67.503906 193.820312 67.570312 C 194.015625 67.632812 194.140625 68.144531 194.078125 68.144531 C 194.078125 68.207031 193.628906 67.953125 193.628906 67.824219 C 193.628906 67.761719 194.078125 67.570312 194.078125 67.632812 C 194.140625 67.695312 193.046875 69.042969 192.410156 69.363281 C 191.699219 69.6875 190.992188 69.6875 190.027344 69.621094 C 188.421875 69.429688 184.949219 68.019531 183.730469 67.503906 C 183.214844 67.3125 182.699219 67.183594 182.636719 66.988281 C 182.636719 66.863281 183.023438 66.476562 183.023438 66.476562 " clip-rule="nonzero"/></clipPath><clipPath id="e0888048ec"><path d="M 190.539062 69.621094 L 193.832031 69.621094 L 193.832031 72.15625 L 190.539062 72.15625 Z M 190.539062 69.621094 " clip-rule="nonzero"/></clipPath><clipPath id="60f9d75a10"><path d="M 190.929688 69.621094 C 193.886719 71.804688 193.5 72.125 193.5 72.125 C 193.5 72.125 193.820312 71.546875 193.820312 71.546875 C 193.820312 71.546875 193.691406 72.058594 193.5 72.125 C 193.046875 72.253906 190.671875 70.648438 190.542969 70.199219 C 190.542969 69.945312 190.929688 69.621094 190.929688 69.621094 " clip-rule="nonzero"/></clipPath><clipPath id="9780e00403"><path d="M 196.613281 77.355469 L 205.894531 77.355469 L 205.894531 85.257812 L 196.613281 85.257812 Z M 196.613281 77.355469 " clip-rule="nonzero"/></clipPath><clipPath id="2c34deb1e5"><path d="M 197.101562 77.386719 C 199.351562 79.441406 199.351562 80.660156 200.183594 81.558594 C 201.34375 82.78125 205.777344 84.128906 205.84375 84.707031 C 205.90625 84.898438 205.457031 85.15625 205.457031 85.15625 C 205.394531 85.15625 205.777344 84.644531 205.777344 84.644531 C 205.777344 84.644531 205.777344 85.15625 205.585938 85.21875 C 204.945312 85.414062 200.828125 83.167969 199.734375 82.011719 C 199.027344 81.242188 199.15625 80.339844 198.644531 79.632812 C 198.128906 78.925781 196.652344 78.222656 196.652344 77.773438 C 196.652344 77.582031 197.101562 77.386719 197.101562 77.386719 " clip-rule="nonzero"/></clipPath><clipPath id="96a2348c45"><path d="M 161.464844 67.671875 L 175.082031 67.671875 L 175.082031 82.796875 L 161.464844 82.796875 Z M 161.464844 67.671875 " clip-rule="nonzero"/></clipPath><clipPath id="c696321ff5"><path d="M 167.273438 69.238281 C 166.308594 68.207031 165.984375 68.339844 165.664062 68.464844 C 164.890625 68.851562 163.15625 70.007812 162.578125 70.972656 C 162.128906 71.742188 162.066406 72.703125 162.128906 73.667969 C 162.191406 74.820312 162.449219 76.105469 163.15625 77.261719 C 164.121094 78.800781 166.5 80.984375 168.042969 81.691406 C 169.070312 82.140625 170.164062 82.140625 171 82.074219 C 171.707031 81.945312 172.285156 81.816406 172.800781 81.304688 C 173.507812 80.597656 174.152344 78.996094 174.34375 77.902344 C 174.472656 76.875 174.34375 75.976562 173.894531 74.949219 C 173.25 73.410156 171.320312 70.972656 170.035156 69.945312 C 169.203125 69.300781 168.429688 69.042969 167.589844 68.851562 C 166.820312 68.722656 165.472656 69.238281 165.277344 68.980469 C 165.148438 68.851562 165.410156 68.339844 165.472656 68.339844 C 165.535156 68.339844 165.664062 68.851562 165.597656 68.914062 C 165.535156 68.980469 165.085938 68.851562 165.085938 68.789062 C 165.085938 68.65625 166.820312 68.207031 167.527344 68.207031 C 168.234375 68.273438 168.816406 68.53125 169.390625 68.914062 C 170.226562 69.300781 171.066406 69.945312 171.902344 70.777344 C 172.863281 71.867188 174.277344 73.730469 174.726562 75.078125 C 175.050781 76.042969 175.113281 76.875 174.984375 77.839844 C 174.859375 78.925781 174.40625 80.339844 173.699219 81.175781 C 173.058594 81.945312 171.964844 82.523438 171 82.652344 C 169.972656 82.84375 168.75 82.714844 167.589844 82.140625 C 166.050781 81.433594 163.796875 79.25 162.898438 77.964844 C 162.324219 77.195312 162.191406 76.617188 161.9375 75.785156 C 161.679688 74.886719 161.421875 73.730469 161.484375 72.703125 C 161.617188 71.804688 161.808594 70.839844 162.386719 70.070312 C 163.222656 69.109375 165.410156 67.761719 166.371094 67.695312 C 166.949219 67.695312 167.464844 68.082031 167.660156 68.402344 C 167.851562 68.65625 167.976562 69.171875 167.914062 69.300781 C 167.785156 69.363281 167.273438 69.238281 167.273438 69.238281 " clip-rule="nonzero"/></clipPath><clipPath id="e4e6e821bd"><path d="M 167.566406 68.519531 L 206.183594 68.519531 L 206.183594 97.5 L 167.566406 97.5 Z M 167.566406 68.519531 " clip-rule="nonzero"/></clipPath><clipPath id="099f25d4d0"><path d="M 167.722656 68.65625 C 172.222656 68.464844 172.609375 68.53125 173.378906 68.980469 C 175.050781 69.878906 178.261719 72.828125 180.320312 75.078125 C 182.378906 77.324219 184.824219 80.214844 185.847656 82.460938 C 186.554688 84 187.265625 85.988281 186.816406 86.824219 C 186.554688 87.402344 184.886719 87.65625 184.886719 87.59375 C 184.824219 87.53125 185.335938 87.082031 185.722656 86.953125 C 186.492188 86.695312 188.097656 86.757812 189.257812 87.207031 C 190.605469 87.789062 191.507812 89.390625 193.046875 90.484375 C 195.300781 92.085938 199.285156 94.460938 201.40625 95.554688 C 202.628906 96.195312 203.59375 96.773438 204.425781 96.839844 C 205.007812 96.839844 205.714844 96.195312 205.90625 96.386719 C 206.039062 96.453125 205.96875 96.964844 205.96875 96.964844 C 206.039062 96.964844 206.164062 96.453125 206.101562 96.453125 C 205.96875 96.324219 205.265625 97.351562 204.6875 97.476562 C 203.976562 97.609375 203.207031 97.160156 202.050781 96.644531 C 199.863281 95.617188 195.042969 92.730469 192.664062 90.996094 C 191.058594 89.839844 190.285156 88.234375 188.871094 87.722656 C 187.648438 87.207031 185.011719 87.976562 184.886719 87.59375 C 184.757812 87.339844 185.980469 87.015625 186.171875 86.5 C 186.429688 85.730469 185.980469 84.386719 185.398438 83.101562 C 184.4375 81.046875 182.054688 77.964844 180.0625 75.71875 C 178.007812 73.472656 174.792969 70.519531 173.183594 69.558594 C 172.476562 69.171875 172.15625 69.109375 171.453125 68.980469 C 170.484375 68.851562 168.171875 69.621094 167.785156 69.300781 C 167.589844 69.171875 167.722656 68.65625 167.722656 68.65625 " clip-rule="nonzero"/></clipPath><clipPath id="f7a5a923b4"><path d="M 201.1875 89.835938 L 210.992188 89.835938 L 210.992188 95.601562 L 201.1875 95.601562 Z M 201.1875 89.835938 " clip-rule="nonzero"/></clipPath><clipPath id="5c1955654c"><path d="M 201.214844 94.976562 C 207.707031 90.417969 210.148438 89.648438 210.730469 89.902344 C 210.921875 90.035156 210.988281 90.484375 210.988281 90.484375 C 210.988281 90.484375 210.730469 89.902344 210.664062 89.902344 C 210.664062 89.902344 211.050781 90.355469 210.921875 90.546875 C 210.664062 91.058594 207.578125 91.058594 206.164062 91.828125 C 204.75 92.601562 203.402344 94.589844 202.433594 95.167969 C 201.984375 95.425781 201.472656 95.683594 201.277344 95.554688 C 201.152344 95.488281 201.214844 94.976562 201.214844 94.976562 " clip-rule="nonzero"/></clipPath><clipPath id="0b6232793d"><path d="M 182.53125 77.042969 L 185.773438 77.042969 L 185.773438 78.632812 L 182.53125 78.632812 Z M 182.53125 77.042969 " clip-rule="nonzero"/></clipPath><clipPath id="8296996263"><path d="M 182.699219 77.964844 C 185.722656 77.132812 185.59375 77.644531 185.65625 77.644531 C 185.65625 77.644531 185.847656 77.132812 185.722656 77.070312 C 185.59375 76.9375 184.304688 78.222656 183.730469 78.480469 C 183.34375 78.609375 182.699219 78.671875 182.570312 78.542969 C 182.507812 78.414062 182.699219 77.964844 182.699219 77.964844 " clip-rule="nonzero"/></clipPath><clipPath id="696ed98341"><path d="M 183.6875 77.09375 L 196.628906 77.09375 L 196.628906 89.941406 L 183.6875 89.941406 Z M 183.6875 77.09375 " clip-rule="nonzero"/></clipPath><clipPath id="698c8166e4"><path d="M 184.242188 77.132812 C 188.9375 84.320312 191.058594 87.082031 192.472656 88.171875 C 193.308594 88.816406 194.015625 89.265625 194.722656 89.265625 C 195.363281 89.265625 196.523438 88.429688 196.585938 88.492188 C 196.585938 88.558594 195.363281 89.839844 194.660156 89.902344 C 193.691406 89.902344 192.472656 88.941406 191.378906 87.976562 C 189.898438 86.695312 188.097656 84.257812 186.816406 82.460938 C 185.59375 80.789062 183.601562 78.222656 183.730469 77.519531 C 183.792969 77.261719 184.242188 77.132812 184.242188 77.132812 " clip-rule="nonzero"/></clipPath><clipPath id="5b0a61b956"><path d="M 154.101562 77.34375 L 168.152344 77.34375 L 168.152344 98.496094 L 154.101562 98.496094 Z M 154.101562 77.34375 " clip-rule="nonzero"/></clipPath><clipPath id="5e1e493210"><path d="M 162.324219 77.902344 C 155.3125 92.730469 154.414062 95.488281 154.863281 96.644531 C 155.054688 97.289062 155.636719 97.671875 156.214844 97.734375 C 156.921875 97.863281 157.824219 97.546875 158.847656 96.902344 C 160.777344 95.746094 164.441406 91.894531 165.859375 89.902344 C 166.757812 88.75 167.015625 86.886719 167.464844 86.757812 C 167.660156 86.695312 167.976562 87.144531 168.042969 87.144531 C 168.042969 87.082031 167.660156 86.632812 167.660156 86.632812 C 167.660156 86.632812 168.042969 86.824219 168.109375 87.015625 C 168.171875 87.59375 167.140625 89.265625 166.371094 90.355469 C 165.472656 91.636719 164.183594 92.792969 162.835938 94.011719 C 161.355469 95.425781 159.105469 97.609375 157.757812 98.183594 C 156.988281 98.507812 156.34375 98.570312 155.761719 98.378906 C 155.121094 98.121094 154.414062 97.546875 154.222656 96.707031 C 153.835938 95.296875 154.738281 92.601562 155.507812 90.160156 C 156.535156 86.953125 159.171875 81.304688 160.457031 79.25 C 161.035156 78.289062 161.617188 77.386719 161.9375 77.386719 C 162.128906 77.386719 162.324219 77.902344 162.324219 77.902344 " clip-rule="nonzero"/></clipPath><clipPath id="4cb31972cb"><path d="M 154.132812 85.132812 L 160.125 85.132812 L 160.125 97.71875 L 154.132812 97.71875 Z M 154.132812 85.132812 " clip-rule="nonzero"/></clipPath><clipPath id="ddaef17879"><path d="M 159.300781 85.15625 C 160.457031 89.007812 160.136719 90.484375 159.621094 91.703125 C 159.042969 92.921875 158.078125 94.269531 157.113281 95.296875 C 156.214844 96.257812 154.222656 97.800781 154.15625 97.671875 C 153.964844 97.476562 158.144531 93.371094 158.980469 91.574219 C 159.554688 90.484375 159.75 89.519531 159.75 88.492188 C 159.6875 87.464844 158.59375 85.796875 158.785156 85.347656 C 158.847656 85.15625 159.300781 85.15625 159.300781 85.15625 " clip-rule="nonzero"/></clipPath><clipPath id="df901800ae"><path d="M 162.65625 89.894531 L 172.875 89.894531 L 172.875 100.765625 L 162.65625 100.765625 Z M 162.65625 89.894531 " clip-rule="nonzero"/></clipPath><clipPath id="c98fbdd70b"><path d="M 166.371094 90.160156 C 163.542969 97.863281 163.285156 98.828125 163.671875 99.339844 C 163.992188 99.855469 164.957031 100.046875 165.664062 100.109375 C 166.433594 100.171875 167.335938 99.855469 168.171875 99.535156 C 169.070312 99.210938 170.101562 98.632812 170.742188 97.929688 C 171.453125 97.351562 171.835938 95.746094 172.285156 95.683594 C 172.476562 95.617188 172.800781 95.9375 172.800781 95.9375 C 172.800781 96 172.222656 95.683594 172.222656 95.683594 C 172.222656 95.683594 172.734375 95.8125 172.800781 96 C 172.925781 96.386719 172.15625 97.476562 171.515625 98.121094 C 170.808594 98.828125 169.652344 99.597656 168.621094 100.046875 C 167.660156 100.496094 166.566406 100.816406 165.664062 100.753906 C 164.828125 100.6875 163.929688 100.304688 163.414062 99.917969 C 163.09375 99.597656 162.835938 99.339844 162.707031 98.890625 C 162.578125 98.378906 162.835938 97.671875 163.09375 96.773438 C 163.542969 95.167969 165.023438 90.226562 165.730469 89.902344 C 165.984375 89.839844 166.371094 90.160156 166.371094 90.160156 " clip-rule="nonzero"/></clipPath><clipPath id="c4421f685e"><path d="M 163.785156 89.601562 L 167.285156 89.601562 L 167.285156 99.75 L 163.785156 99.75 Z M 163.785156 89.601562 " clip-rule="nonzero"/></clipPath><clipPath id="c46b010c8c"><path d="M 167.273438 89.714844 C 166.308594 97.734375 165.597656 98.890625 164.957031 99.277344 C 164.570312 99.535156 163.796875 99.535156 163.796875 99.597656 C 163.796875 99.660156 164.378906 99.726562 164.378906 99.726562 C 164.441406 99.660156 163.929688 99.535156 163.867188 99.339844 C 163.796875 98.828125 165.730469 97.546875 166.179688 96.195312 C 166.820312 94.460938 166.117188 90.160156 166.691406 89.648438 C 166.820312 89.519531 167.273438 89.714844 167.273438 89.714844 " clip-rule="nonzero"/></clipPath><clipPath id="482d38bc48"><path d="M 117.96875 89.835938 L 121.710938 89.835938 L 121.710938 127 L 117.96875 127 Z M 117.96875 89.835938 " clip-rule="nonzero"/></clipPath><clipPath id="3f50c5f326"><path d="M 121.113281 90.933594 C 122.078125 110.445312 121.371094 112.050781 121.242188 114.550781 C 121.113281 117.441406 122.015625 121.9375 121.5625 124.117188 C 121.308594 125.335938 120.921875 126.554688 120.34375 126.878906 C 119.894531 127.070312 118.996094 126.746094 118.609375 126.429688 C 118.351562 126.109375 118.222656 125.335938 118.351562 124.890625 C 118.476562 124.503906 118.996094 124.050781 119.378906 123.925781 C 119.765625 123.796875 120.46875 123.925781 120.792969 124.246094 C 121.113281 124.503906 121.371094 125.144531 121.371094 125.59375 C 121.308594 125.976562 120.921875 126.554688 120.539062 126.746094 C 120.152344 127.003906 119.445312 127.003906 119.058594 126.746094 C 118.671875 126.554688 118.222656 125.976562 118.222656 125.59375 C 118.285156 125.015625 119.1875 123.859375 119.699219 123.859375 C 120.214844 123.859375 121.242188 124.890625 121.371094 125.402344 C 121.4375 125.851562 120.988281 126.429688 120.664062 126.683594 C 120.40625 126.878906 119.957031 127.070312 119.636719 126.941406 C 119.121094 126.8125 118.542969 126.296875 118.222656 125.402344 C 117.320312 122.769531 119.1875 113.460938 119.25 107.621094 C 119.25 101.972656 117.515625 93.304688 118.476562 90.996094 C 118.800781 90.289062 119.3125 89.839844 119.765625 89.839844 C 120.214844 89.777344 121.113281 90.933594 121.113281 90.933594 " clip-rule="nonzero"/></clipPath><clipPath id="d01b0a2653"><path d="M 110.835938 37.425781 L 119 37.425781 L 119 70.859375 L 110.835938 70.859375 Z M 110.835938 37.425781 " clip-rule="nonzero"/></clipPath><clipPath id="ee9bf5714a"><path d="M 114.683594 38.765625 C 115.132812 64.066406 116.359375 67.804688 117.320312 68.394531 C 117.707031 68.652344 118.285156 67.996094 118.542969 68.195312 C 118.800781 68.324219 118.996094 68.785156 118.996094 69.179688 C 118.996094 69.570312 118.800781 70.226562 118.476562 70.488281 C 118.09375 70.753906 117.195312 70.882812 116.746094 70.6875 C 116.359375 70.425781 115.90625 69.769531 115.972656 69.3125 C 115.972656 68.785156 116.613281 67.933594 117.128906 67.804688 C 117.515625 67.667969 118.222656 67.804688 118.476562 68.132812 C 118.863281 68.457031 119.058594 69.507812 118.863281 69.96875 C 118.671875 70.425781 117.707031 70.882812 117.257812 70.816406 C 116.808594 70.816406 116.292969 70.359375 116.101562 69.96875 C 115.90625 69.570312 115.972656 68.851562 116.164062 68.457031 C 116.484375 68.066406 117.449219 67.738281 117.902344 67.804688 C 118.351562 67.867188 118.925781 68.851562 118.925781 68.851562 C 118.996094 68.785156 118.542969 68.132812 118.542969 68.195312 C 118.476562 68.195312 119.058594 69.113281 118.996094 69.507812 C 118.996094 69.898438 118.738281 70.296875 118.476562 70.488281 C 118.15625 70.753906 117.578125 70.816406 117.0625 70.816406 C 116.421875 70.753906 115.519531 70.621094 114.816406 69.898438 C 113.402344 68.394531 111.984375 64.265625 111.410156 60.328125 C 110.507812 54.558594 110.703125 40.992188 112.050781 38.4375 C 112.433594 37.71875 113.078125 37.390625 113.527344 37.453125 C 113.914062 37.453125 114.683594 38.765625 114.683594 38.765625 " clip-rule="nonzero"/></clipPath><clipPath id="771b769acb"><path d="M 119.304688 69.164062 L 122.566406 69.164062 L 122.566406 72.132812 L 119.304688 72.132812 Z M 119.304688 69.164062 " clip-rule="nonzero"/></clipPath><clipPath id="17e8fa330c"><path d="M 119.636719 69.171875 C 122.789062 71.804688 122.65625 72.058594 122.464844 72.125 C 121.949219 72.191406 119.445312 70.265625 119.3125 69.75 C 119.3125 69.496094 119.636719 69.171875 119.636719 69.171875 " clip-rule="nonzero"/></clipPath><clipPath id="b84ae055d0"><path d="M 115 14.855469 L 134.5625 14.855469 L 134.5625 57.285156 L 115 57.285156 Z M 115 14.855469 " clip-rule="nonzero"/></clipPath><clipPath id="a24468011a"><path d="M 115.585938 17.566406 C 121.113281 14.871094 121.5625 14.738281 122.144531 14.933594 C 122.980469 15.125 123.945312 15.640625 124.714844 16.539062 C 125.9375 17.953125 126.964844 21.09375 127.671875 23.664062 C 128.378906 26.359375 127.992188 28.796875 128.636719 32.394531 C 129.730469 38.234375 134.871094 52.097656 134.421875 55.371094 C 134.292969 56.335938 133.84375 56.910156 133.390625 57.167969 C 133.007812 57.363281 132.367188 57.167969 131.980469 56.910156 C 131.722656 56.71875 131.464844 56.335938 131.398438 56.015625 C 131.398438 55.566406 131.65625 54.792969 131.980469 54.472656 C 132.300781 54.214844 133.007812 54.089844 133.390625 54.28125 C 133.84375 54.472656 134.421875 55.308594 134.484375 55.753906 C 134.484375 56.207031 134.097656 56.785156 133.714844 57.042969 C 133.390625 57.234375 132.6875 57.296875 132.300781 57.105469 C 131.917969 56.910156 131.464844 56.398438 131.398438 55.949219 C 131.398438 55.5 131.847656 54.535156 132.300781 54.347656 C 132.621094 54.089844 133.328125 54.152344 133.714844 54.410156 C 134.097656 54.601562 134.421875 55.179688 134.484375 55.628906 C 134.484375 56.078125 134.164062 56.785156 133.714844 56.976562 C 133.328125 57.234375 132.429688 57.234375 131.980469 56.910156 C 131.464844 56.527344 131.398438 55.824219 131.015625 54.601562 C 129.792969 51.007812 126.644531 38.234375 125.679688 32.652344 C 125.101562 29.3125 125.421875 26.933594 124.84375 24.496094 C 124.332031 22.3125 123.363281 19.75 122.65625 18.59375 C 122.269531 18.015625 122.144531 17.566406 121.628906 17.503906 C 120.539062 17.246094 117.257812 20.132812 116.164062 20.003906 C 115.585938 19.875 115.132812 19.363281 115.070312 18.980469 C 114.945312 18.59375 115.585938 17.566406 115.585938 17.566406 " clip-rule="nonzero"/></clipPath><clipPath id="d035f4ec4f"><path d="M 132.117188 61.257812 L 148.316406 61.257812 L 148.316406 73.554688 L 132.117188 73.554688 Z M 132.117188 61.257812 " clip-rule="nonzero"/></clipPath><clipPath id="cf0df4e7a6"><path d="M 134.617188 62.144531 C 136.609375 68.046875 136.929688 68.691406 137.699219 69.203125 C 138.726562 69.910156 141.171875 70.488281 142.265625 70.488281 C 142.84375 70.488281 143.101562 70.488281 143.550781 70.167969 C 144.453125 69.65625 145.476562 66.828125 146.378906 66.636719 C 146.957031 66.507812 147.855469 66.957031 148.050781 67.339844 C 148.308594 67.792969 148.175781 68.816406 147.855469 69.203125 C 147.539062 69.523438 146.894531 69.71875 146.445312 69.589844 C 146.058594 69.523438 145.476562 69.140625 145.351562 68.691406 C 145.222656 68.179688 145.734375 66.828125 146.25 66.703125 C 146.699219 66.507812 147.988281 67.085938 148.246094 67.664062 C 148.5 68.5 147.085938 70.617188 146.25 71.582031 C 145.609375 72.351562 144.769531 72.925781 144.066406 73.183594 C 143.550781 73.441406 143.164062 73.507812 142.519531 73.507812 C 141.171875 73.441406 138.214844 72.925781 136.671875 71.964844 C 135.386719 71.128906 134.421875 69.847656 133.714844 68.433594 C 132.878906 66.894531 131.980469 64.261719 132.171875 62.980469 C 132.234375 62.273438 132.6875 61.4375 133.136719 61.3125 C 133.523438 61.179688 134.617188 62.144531 134.617188 62.144531 " clip-rule="nonzero"/></clipPath><clipPath id="057d531694"><path d="M 142.5 57.339844 L 150.445312 57.339844 L 150.445312 63.246094 L 142.5 63.246094 Z M 142.5 57.339844 " clip-rule="nonzero"/></clipPath><clipPath id="35a2a3b711"><path d="M 142.519531 61.40625 C 144.769531 57.554688 145.285156 57.363281 145.863281 57.363281 C 146.699219 57.363281 148.050781 57.8125 148.820312 58.386719 C 149.527344 58.839844 150.171875 59.738281 150.363281 60.445312 C 150.429688 60.957031 150.300781 61.789062 149.980469 62.046875 C 149.59375 62.371094 148.628906 62.433594 148.246094 62.175781 C 147.855469 61.921875 147.601562 60.957031 147.726562 60.507812 C 147.792969 60.121094 148.308594 59.738281 148.695312 59.609375 C 149.078125 59.542969 149.71875 59.671875 149.980469 59.929688 C 150.300781 60.25 150.558594 61.214844 150.300781 61.597656 C 150.105469 62.046875 149.015625 62.371094 148.371094 62.242188 C 147.601562 62.046875 146.765625 59.863281 146.121094 59.996094 C 145.542969 60.058594 145.351562 62.175781 144.835938 62.691406 C 144.453125 63.011719 144.066406 63.265625 143.679688 63.203125 C 143.359375 63.203125 142.84375 62.945312 142.652344 62.628906 C 142.457031 62.304688 142.519531 61.40625 142.519531 61.40625 " clip-rule="nonzero"/></clipPath><clipPath id="2d4fa047fe"><path d="M 138.808594 59.039062 L 146.425781 59.039062 L 146.425781 71.441406 L 138.808594 71.441406 Z M 138.808594 59.039062 " clip-rule="nonzero"/></clipPath><clipPath id="aa480abd82"><path d="M 146.378906 60.699219 C 140.785156 71.355469 140.078125 71.484375 139.691406 71.289062 C 139.242188 71.097656 138.726562 70.132812 138.859375 69.6875 C 138.984375 69.238281 140.140625 68.53125 140.660156 68.53125 C 141.042969 68.59375 141.492188 69.109375 141.683594 69.429688 C 141.816406 69.8125 141.683594 70.457031 141.492188 70.777344 C 141.234375 71.097656 140.660156 71.421875 140.273438 71.421875 C 139.886719 71.421875 139.242188 71.164062 139.113281 70.777344 C 138.792969 70.132812 139.242188 68.980469 139.628906 67.761719 C 140.402344 65.640625 142.84375 60.25 144.195312 59.351562 C 144.835938 58.96875 145.609375 59.03125 145.996094 59.289062 C 146.3125 59.542969 146.378906 60.699219 146.378906 60.699219 " clip-rule="nonzero"/></clipPath><clipPath id="9535a2f97c"><path d="M 138.191406 79.160156 L 143.40625 79.160156 L 143.40625 93.894531 L 138.191406 93.894531 Z M 138.191406 79.160156 " clip-rule="nonzero"/></clipPath><clipPath id="1d601ba90a"><path d="M 140.660156 80.246094 C 143.164062 93.234375 142.585938 93.804688 142.070312 93.867188 C 141.621094 93.929688 140.660156 93.234375 140.464844 92.792969 C 140.335938 92.414062 140.527344 91.722656 140.851562 91.472656 C 141.234375 91.15625 142.203125 90.964844 142.585938 91.21875 C 143.035156 91.40625 143.421875 92.355469 143.359375 92.792969 C 143.292969 93.171875 142.84375 93.742188 142.457031 93.804688 C 141.941406 93.929688 140.660156 93.363281 140.527344 92.921875 C 140.335938 92.480469 141.042969 91.21875 141.558594 91.09375 C 142.007812 90.964844 143.226562 91.722656 143.359375 92.164062 C 143.484375 92.605469 142.90625 93.613281 142.457031 93.804688 C 142.007812 93.992188 141.171875 93.742188 140.59375 93.113281 C 139.308594 91.597656 138.152344 83.78125 138.214844 81.507812 C 138.214844 80.496094 138.339844 79.679688 138.726562 79.363281 C 138.984375 79.113281 139.628906 79.175781 139.953125 79.300781 C 140.273438 79.488281 140.660156 80.246094 140.660156 80.246094 " clip-rule="nonzero"/></clipPath><clipPath id="9474dc1a32"><path d="M 127 59.277344 L 141.054688 59.277344 L 141.054688 64.558594 L 127 64.558594 Z M 127 59.277344 " clip-rule="nonzero"/></clipPath><clipPath id="fe9cfac47b"><path d="M 127.222656 59.289062 C 134.359375 62.304688 136.414062 62.242188 137.957031 62.691406 C 139.113281 63.011719 140.722656 63.523438 140.914062 63.910156 C 140.976562 64.101562 140.660156 64.550781 140.660156 64.550781 C 140.660156 64.550781 140.851562 63.910156 140.914062 63.910156 C 140.914062 63.910156 141.109375 64.359375 140.976562 64.421875 C 140.660156 64.742188 137.699219 63.074219 136.160156 62.691406 C 134.742188 62.371094 133.523438 62.558594 132.105469 62.175781 C 130.5 61.726562 127.285156 60.507812 127.03125 59.929688 C 126.898438 59.671875 127.222656 59.289062 127.222656 59.289062 " clip-rule="nonzero"/></clipPath><clipPath id="3e500c3310"><path d="M 144 64.78125 L 162.65625 64.78125 L 162.65625 70.398438 L 144 70.398438 Z M 144 64.78125 " clip-rule="nonzero"/></clipPath><clipPath id="4e44fbab0a"><path d="M 144.195312 64.808594 C 154.605469 68.144531 158.015625 68.207031 159.941406 68.722656 C 161.097656 68.980469 162.515625 69.363281 162.640625 69.75 C 162.707031 69.878906 162.257812 70.265625 162.257812 70.265625 C 162.257812 70.265625 162.578125 69.6875 162.578125 69.6875 C 162.640625 69.6875 162.640625 70.132812 162.386719 70.265625 C 161.421875 70.839844 153.511719 68.65625 150.171875 67.695312 C 147.792969 66.988281 144.453125 66.09375 144.066406 65.449219 C 143.933594 65.191406 144.195312 64.808594 144.195312 64.808594 " clip-rule="nonzero"/></clipPath><clipPath id="0d8ee36ba7"><path d="M 178.128906 72.851562 L 252.230469 72.851562 L 252.230469 90.941406 L 178.128906 90.941406 Z M 178.128906 72.851562 " clip-rule="nonzero"/></clipPath><clipPath id="4576b4b5e8"><path d="M 178.328125 72.898438 C 196.070312 76.105469 197.933594 77.386719 199.925781 77.839844 C 201.664062 78.289062 203.015625 78.03125 204.8125 78.351562 C 207.128906 78.863281 208.992188 79.828125 212.59375 80.855469 C 220.433594 83.035156 246.34375 89.132812 250.585938 89.902344 C 251.484375 90.097656 252.066406 90.226562 252.128906 90.097656 C 252.191406 89.972656 251.421875 89.199219 251.164062 89.199219 C 251.035156 89.199219 250.839844 89.714844 250.839844 89.714844 C 250.839844 89.714844 251.035156 89.199219 251.164062 89.199219 C 251.421875 89.199219 252.386719 90.417969 252.128906 90.742188 C 250.910156 92.410156 210.019531 79.699219 202.820312 78.542969 C 200.894531 78.222656 200.378906 78.609375 199.027344 78.289062 C 197.292969 77.902344 195.75 76.683594 193.308594 76.042969 C 189.515625 74.949219 178.96875 74.5 178.261719 73.472656 C 178.070312 73.28125 178.328125 72.898438 178.328125 72.898438 " clip-rule="nonzero"/></clipPath><clipPath id="a140b4f4d6"><path d="M 121.699219 55.8125 L 143.648438 55.8125 L 143.648438 62.347656 L 121.699219 62.347656 Z M 121.699219 55.8125 " clip-rule="nonzero"/></clipPath><clipPath id="89c9bc2165"><path d="M 126.582031 59.996094 C 126.964844 62.304688 126.449219 62.433594 126 62.304688 C 125.035156 62.046875 122.59375 60.058594 122.015625 58.839844 C 121.628906 58.070312 121.628906 56.847656 121.949219 56.398438 C 122.269531 56.015625 122.789062 55.949219 123.558594 55.886719 C 125.355469 55.691406 129.855469 56.460938 133.136719 57.167969 C 136.542969 57.9375 143.035156 59.414062 143.421875 60.25 C 143.484375 60.445312 143.101562 60.828125 143.164062 60.828125 C 143.164062 60.828125 143.613281 60.507812 143.613281 60.445312 C 143.550781 60.25 142.328125 60.699219 141.363281 60.570312 C 139.179688 60.3125 134.359375 58.070312 131.144531 57.425781 C 128.507812 56.847656 124.972656 56.398438 123.558594 56.527344 C 122.980469 56.59375 122.53125 56.59375 122.402344 56.910156 C 122.144531 57.234375 122.402344 58.003906 122.71875 58.582031 C 123.171875 59.480469 124.714844 60.890625 125.613281 61.40625 C 126.191406 61.789062 127.09375 61.726562 127.15625 61.921875 C 127.15625 62.046875 126.898438 62.304688 126.773438 62.304688 C 126.449219 62.175781 125.742188 60.378906 125.9375 60.121094 C 126 59.929688 126.582031 59.996094 126.582031 59.996094 " clip-rule="nonzero"/></clipPath><clipPath id="9737cd2d7e"><path d="M 147.726562 62.035156 L 254.925781 62.035156 L 254.925781 86.757812 L 147.726562 86.757812 Z M 147.726562 62.035156 " clip-rule="nonzero"/></clipPath><clipPath id="e8cd78f3c4"><path d="M 147.988281 62.046875 C 187.136719 70.265625 194.464844 73.472656 200.828125 74.886719 C 205.714844 75.914062 208.480469 75.527344 213.941406 76.554688 C 223.199219 78.289062 244.800781 84.707031 250.839844 85.667969 C 252.773438 85.988281 254.441406 85.605469 254.765625 85.988281 C 254.890625 86.117188 254.828125 86.5 254.632812 86.632812 C 254.378906 86.757812 252.449219 85.988281 252.320312 85.605469 C 252.257812 85.476562 252.449219 85.15625 252.578125 85.09375 C 252.964844 84.960938 254.957031 86.3125 254.890625 86.570312 C 254.765625 86.824219 252.835938 86.632812 250.839844 86.3125 C 244.734375 85.414062 223.070312 78.925781 213.941406 77.195312 C 208.542969 76.167969 205.84375 76.554688 201.019531 75.527344 C 194.589844 74.179688 186.816406 70.777344 179.164062 68.914062 C 170.871094 66.863281 158.398438 65.128906 153.0625 63.972656 C 150.621094 63.460938 148.175781 63.265625 147.855469 62.691406 C 147.726562 62.496094 147.988281 62.046875 147.988281 62.046875 " clip-rule="nonzero"/></clipPath><clipPath id="0374d4392c"><path d="M 160.449219 64.605469 L 209.433594 64.605469 L 209.433594 75.921875 L 160.449219 75.921875 Z M 160.449219 64.605469 " clip-rule="nonzero"/></clipPath><clipPath id="959e9ba6f5"><path d="M 160.585938 64.617188 C 176.71875 67.695312 178.457031 68.65625 180.644531 69.109375 C 182.761719 69.558594 184.4375 69.363281 187.003906 69.878906 C 191.183594 70.648438 198.769531 73.28125 202.886719 74.179688 C 205.457031 74.691406 208.863281 74.628906 209.3125 75.207031 C 209.445312 75.398438 209.1875 75.785156 209.121094 75.785156 C 209.121094 75.785156 209.1875 75.207031 209.25 75.207031 C 209.3125 75.144531 209.507812 75.59375 209.378906 75.71875 C 209.1875 75.976562 208.21875 75.914062 207.0625 75.785156 C 203.71875 75.335938 191.765625 71.421875 187.003906 70.519531 C 184.371094 70.007812 182.832031 70.199219 180.769531 69.75 C 178.652344 69.300781 176.914062 68.402344 174.34375 67.761719 C 170.613281 66.800781 161.230469 66.15625 160.523438 65.191406 C 160.328125 65 160.585938 64.617188 160.585938 64.617188 " clip-rule="nonzero"/></clipPath><clipPath id="ee29f654cc"><path d="M 120.585938 32 L 136.898438 32 L 136.898438 48.804688 L 120.585938 48.804688 Z M 120.585938 32 " clip-rule="nonzero"/></clipPath><clipPath id="2c61594748"><path d="M 130.429688 28.347656 L 141.59375 42.449219 L 130.5 51.207031 L 119.335938 37.105469 Z M 130.429688 28.347656 " clip-rule="nonzero"/></clipPath><clipPath id="e77c0a1bbd"><path d="M 141.558594 42.402344 L 130.394531 28.300781 L 119.300781 37.058594 L 130.460938 51.160156 Z M 141.558594 42.402344 " clip-rule="nonzero"/></clipPath><clipPath id="1afc4fefce"><path d="M 141.558594 42.402344 L 130.394531 28.300781 L 119.300781 37.058594 L 130.460938 51.160156 Z M 141.558594 42.402344 " clip-rule="nonzero"/></clipPath><clipPath id="bca0c9de00"><path d="M 124.199219 50.257812 L 130.246094 50.257812 L 130.246094 55.757812 L 124.199219 55.757812 Z M 124.199219 50.257812 " clip-rule="nonzero"/></clipPath><clipPath id="ca9fea05b4"><path d="M 130.242188 50.945312 C 126.0625 53.382812 125.292969 55.566406 124.78125 55.691406 C 124.585938 55.691406 124.332031 55.242188 124.332031 55.242188 C 124.261719 55.308594 124.648438 55.753906 124.648438 55.753906 C 124.648438 55.753906 124.261719 55.566406 124.199219 55.371094 C 124.199219 54.859375 125.613281 52.933594 126.582031 52.097656 C 127.542969 51.265625 129.535156 50.175781 129.984375 50.300781 C 130.179688 50.429688 130.242188 50.945312 130.242188 50.945312 " clip-rule="nonzero"/></clipPath><clipPath id="f799425bfa"><path d="M 164.414062 79.796875 L 195.460938 79.796875 L 195.460938 117.136719 L 164.414062 117.136719 Z M 164.414062 79.796875 " clip-rule="nonzero"/></clipPath><clipPath id="ea04ef1ab9"><path d="M 164.890625 79.828125 C 168.816406 84.511719 171.578125 93.4375 173.570312 97.160156 C 174.792969 99.535156 175.5 101.203125 177.042969 102.742188 C 178.714844 104.347656 181.414062 105.117188 183.214844 106.527344 C 184.824219 107.746094 185.785156 109.484375 187.394531 110.636719 C 189.066406 111.730469 191.765625 111.988281 193.117188 113.207031 C 194.273438 114.167969 195.558594 116.222656 195.363281 116.734375 C 195.363281 116.929688 194.851562 116.992188 194.851562 116.992188 C 194.851562 116.992188 195.363281 116.671875 195.363281 116.734375 C 195.429688 116.734375 195.109375 117.121094 194.914062 117.058594 C 194.335938 116.992188 193.628906 114.488281 192.472656 113.527344 C 191.121094 112.371094 188.617188 112.179688 186.941406 111.085938 C 185.335938 109.996094 184.242188 108.070312 182.570312 106.851562 C 180.835938 105.503906 178.328125 104.925781 176.789062 103.386719 C 175.113281 101.78125 174.277344 99.917969 172.996094 97.351562 C 170.933594 93.5625 168.300781 84.898438 166.5 82.265625 C 165.730469 81.175781 164.378906 80.660156 164.441406 80.214844 C 164.441406 80.019531 164.890625 79.828125 164.890625 79.828125 " clip-rule="nonzero"/></clipPath><clipPath id="7fbc6b652a"><path d="M 133.507812 55.9375 L 135 55.9375 L 135 57.566406 L 133.507812 57.566406 Z M 133.507812 55.9375 " clip-rule="nonzero"/></clipPath><clipPath id="0aacaf671b"><path d="M 135 56.65625 C 135 57.425781 134.097656 57.683594 133.84375 57.492188 C 133.585938 57.296875 133.523438 55.949219 133.523438 55.949219 " clip-rule="nonzero"/></clipPath><clipPath id="c1949bfcf2"><path d="M 125.667969 46.375 L 128.902344 46.375 L 128.902344 48.480469 L 125.667969 48.480469 Z M 125.667969 46.375 " clip-rule="nonzero"/></clipPath><clipPath id="42a5fd3e2e"><path d="M 125.9375 46.386719 C 129.023438 48.054688 128.765625 48.4375 128.765625 48.4375 C 128.765625 48.4375 128.894531 47.863281 128.894531 47.863281 C 128.894531 47.863281 128.894531 48.375 128.699219 48.4375 C 128.441406 48.566406 127.671875 48.117188 127.15625 47.863281 C 126.644531 47.605469 125.804688 47.285156 125.679688 46.960938 C 125.613281 46.773438 125.9375 46.386719 125.9375 46.386719 " clip-rule="nonzero"/></clipPath></defs><g clip-path="url(#291a1b46ee)"><g clip-path="url(#db483b9e19)"><path fill="#000000" d="M 49.566406 15.640625 L 123.90625 15.640625 L 123.90625 64.742188 L 49.566406 64.742188 Z M 49.566406 15.640625 " fill-opacity="1" fill-rule="nonzero"/></g></g><g clip-path="url(#3677559e26)"><g clip-path="url(#91236559e3)"><path fill="#000000" d="M 122.335938 10.378906 L 154.46875 10.378906 L 154.46875 20.453125 L 122.335938 20.453125 Z M 122.335938 10.378906 " fill-opacity="1" fill-rule="nonzero"/></g></g><g clip-path="url(#f33fe6a939)"><g clip-path="url(#87c047e329)"><path fill="#000000" d="M 125.679688 10.25 L 154.316406 10.25 L 154.316406 31.042969 L 125.679688 31.042969 Z M 125.679688 10.25 " fill-opacity="1" fill-rule="nonzero"/></g></g><g clip-path="url(#aef7bccd9f)"><g clip-path="url(#95cfa752db)"><path fill="#000000" d="M 104.917969 28.347656 L 127.046875 28.347656 L 127.046875 40.863281 L 104.917969 40.863281 Z M 104.917969 28.347656 " fill-opacity="1" fill-rule="nonzero"/></g></g><g clip-path="url(#11aa8433fb)"><g clip-path="url(#358dbd862c)"><path fill="#000000" d="M 90.449219 35.921875 L 111.347656 35.921875 L 111.347656 54.28125 L 90.449219 54.28125 Z M 90.449219 35.921875 " fill-opacity="1" fill-rule="nonzero"/></g></g><g clip-path="url(#e0bff83f70)"><g clip-path="url(#f557155192)"><path fill="#000000" d="M 86.722656 48.179688 L 99.449219 48.179688 L 99.449219 64.863281 L 86.722656 64.863281 Z M 86.722656 48.179688 " fill-opacity="1" fill-rule="nonzero"/></g></g><g clip-path="url(#7927fbe41a)"><g clip-path="url(#f41d5ec61b)"><path fill="#000000" d="M 102.921875 39.199219 L 114.757812 39.199219 L 114.757812 45.9375 L 102.921875 45.9375 Z M 102.921875 39.199219 " fill-opacity="1" fill-rule="nonzero"/></g></g><g clip-path="url(#b67ee3e0cf)"><g clip-path="url(#6cea8858c1)"><path fill="#000000" d="M 112.242188 39.199219 L 129.039062 39.199219 L 129.039062 49.273438 L 112.242188 49.273438 Z M 112.242188 39.199219 " fill-opacity="1" fill-rule="nonzero"/></g></g><g clip-path="url(#c3ffb86014)"><g clip-path="url(#5571d8f174)"><path fill="#000000" d="M 124.136719 44.203125 L 131.199219 44.203125 L 131.199219 50.8125 L 124.136719 50.8125 Z M 124.136719 44.203125 " fill-opacity="1" fill-rule="nonzero"/></g></g><g clip-path="url(#96571c9221)"><g clip-path="url(#b1d16ea759)"><path fill="#000000" d="M 131.144531 47.285156 L 146.140625 47.285156 L 146.140625 59.609375 L 131.144531 59.609375 Z M 131.144531 47.285156 " fill-opacity="1" fill-rule="nonzero"/></g></g><g clip-path="url(#9ba4f1e51b)"><g clip-path="url(#c33c9bd6f3)"><path fill="#000000" d="M 91.609375 54.089844 L 113.640625 54.089844 L 113.640625 66.414062 L 91.609375 66.414062 Z M 91.609375 54.089844 " fill-opacity="1" fill-rule="nonzero"/></g></g><g clip-path="url(#79f7503d95)"><g clip-path="url(#613bb74306)"><path fill="#000000" d="M 111.152344 49.019531 L 117.769531 49.019531 L 117.769531 58.960938 L 111.152344 58.960938 Z M 111.152344 49.019531 " fill-opacity="1" fill-rule="nonzero"/></g></g><g clip-path="url(#d3e0876d87)"><g clip-path="url(#9561f11bbb)"><path fill="#000000" d="M 93.34375 61.851562 L 116.605469 61.851562 L 116.605469 74.371094 L 93.34375 74.371094 Z M 93.34375 61.851562 " fill-opacity="1" fill-rule="nonzero"/></g></g><g clip-path="url(#adaffb69ab)"><g clip-path="url(#45c7cf9598)"><path fill="#000000" d="M 93.664062 62.046875 L 99.449219 62.046875 L 99.449219 69.246094 L 93.664062 69.246094 Z M 93.664062 62.046875 " fill-opacity="1" fill-rule="nonzero"/></g></g><g clip-path="url(#5d376e346d)"><g clip-path="url(#b8fd6a4127)"><path fill="#000000" d="M 84.410156 56.273438 L 98.679688 56.273438 L 98.679688 78.925781 L 84.410156 78.925781 Z M 84.410156 56.273438 " fill-opacity="1" fill-rule="nonzero"/></g></g><g clip-path="url(#b49419a5a5)"><g clip-path="url(#b6e85bd2e2)"><path fill="#000000" d="M 88.328125 67.054688 L 143.925781 67.054688 L 143.925781 79.890625 L 88.328125 79.890625 Z M 88.328125 67.054688 " fill-opacity="1" fill-rule="nonzero"/></g></g><g clip-path="url(#16ea330a2c)"><g clip-path="url(#9d7f10dd4a)"><path fill="#000000" d="M 94.5625 69.238281 L 102.085938 69.238281 L 102.085938 79.328125 L 94.5625 79.328125 Z M 94.5625 69.238281 " fill-opacity="1" fill-rule="nonzero"/></g></g><g clip-path="url(#d503d417b4)"><g clip-path="url(#383fef6c2b)"><path fill="#000000" d="M 113.207031 59.09375 L 119.507812 59.09375 L 119.507812 69.488281 L 113.207031 69.488281 Z M 113.207031 59.09375 " fill-opacity="1" fill-rule="nonzero"/></g></g><g clip-path="url(#7898cbd4e7)"><g clip-path="url(#b4a9dff3e8)"><path fill="#000000" d="M 112.691406 52.738281 L 124.386719 52.738281 L 124.386719 61.664062 L 112.691406 61.664062 Z M 112.691406 52.738281 " fill-opacity="1" fill-rule="nonzero"/></g></g><g clip-path="url(#10958efd33)"><g clip-path="url(#bc7cfe5cea)"><path fill="#000000" d="M 124.261719 57.9375 L 136.277344 57.9375 L 136.277344 68.53125 L 124.261719 68.53125 Z M 124.261719 57.9375 " fill-opacity="1" fill-rule="nonzero"/></g></g><g clip-path="url(#0419401bd5)"><g clip-path="url(#a721231c00)"><path fill="#000000" d="M 140.851562 66.09375 L 152.230469 66.09375 L 152.230469 80.914062 L 140.851562 80.914062 Z M 140.851562 66.09375 " fill-opacity="1" fill-rule="nonzero"/></g></g><g clip-path="url(#4ffb0723fb)"><g clip-path="url(#3ea98b9815)"><path fill="#000000" d="M 142.714844 66.476562 L 151.648438 66.476562 L 151.648438 80.417969 L 142.714844 80.417969 Z M 142.714844 66.476562 " fill-opacity="1" fill-rule="nonzero"/></g></g><g clip-path="url(#b08a667b37)"><g clip-path="url(#811224230e)"><path fill="#000000" d="M 59.976562 70.648438 L 146.03125 70.648438 L 146.03125 112.949219 L 59.976562 112.949219 Z M 59.976562 70.648438 " fill-opacity="1" fill-rule="nonzero"/></g></g><g clip-path="url(#fac1d41bd3)"><g clip-path="url(#4e30fc63a4)"><path fill="#000000" d="M 127.992188 73.792969 L 136.160156 73.792969 L 136.160156 84.273438 L 127.992188 84.273438 Z M 127.992188 73.792969 " fill-opacity="1" fill-rule="nonzero"/></g></g><g clip-path="url(#e9955874e2)"><g clip-path="url(#30c5dbb7da)"><path fill="#000000" d="M 111.921875 68.789062 L 118.351562 68.789062 L 118.351562 75.90625 L 111.921875 75.90625 Z M 111.921875 68.789062 " fill-opacity="1" fill-rule="nonzero"/></g></g><g clip-path="url(#edf05461f4)"><g clip-path="url(#ab2f1201b5)"><path fill="#000000" d="M 123.105469 77.902344 L 140.078125 77.902344 L 140.078125 97.894531 L 123.105469 97.894531 Z M 123.105469 77.902344 " fill-opacity="1" fill-rule="nonzero"/></g></g><g clip-path="url(#b9295ec2eb)"><g clip-path="url(#175d418bf7)"><path fill="#000000" d="M 126.707031 81.816406 L 136.867188 81.816406 L 136.867188 97.863281 L 126.707031 97.863281 Z M 126.707031 81.816406 " fill-opacity="1" fill-rule="nonzero"/></g></g><g clip-path="url(#e577dcdba5)"><g clip-path="url(#b33a37f0a5)"><path fill="#000000" d="M 133.390625 80.597656 L 138.859375 80.597656 L 138.859375 86.4375 L 133.390625 86.4375 Z M 133.390625 80.597656 " fill-opacity="1" fill-rule="nonzero"/></g></g><g clip-path="url(#239a636be1)"><g clip-path="url(#256aaf1132)"><path fill="#000000" d="M 131.847656 80.597656 L 138.917969 80.597656 L 138.917969 87.464844 L 131.847656 87.464844 Z M 131.847656 80.597656 " fill-opacity="1" fill-rule="nonzero"/></g></g><g clip-path="url(#97a113a8ec)"><g clip-path="url(#a6391fc13b)"><path fill="#000000" d="M 130.113281 83.101562 L 136.148438 83.101562 L 136.148438 88.878906 L 130.113281 88.878906 Z M 130.113281 83.101562 " fill-opacity="1" fill-rule="nonzero"/></g></g><g clip-path="url(#bc981f0420)"><g clip-path="url(#cb84074c8f)"><path fill="#000000" d="M 139.953125 45.039062 L 187.972656 45.039062 L 187.972656 61.019531 L 139.953125 61.019531 Z M 139.953125 45.039062 " fill-opacity="1" fill-rule="nonzero"/></g></g><g clip-path="url(#526431c7c9)"><g clip-path="url(#d468361b77)"><path fill="#000000" d="M 140.335938 49.917969 L 155.4375 49.917969 L 155.4375 61.40625 L 140.335938 61.40625 Z M 140.335938 49.917969 " fill-opacity="1" fill-rule="nonzero"/></g></g><g clip-path="url(#562342f6e3)"><g clip-path="url(#88eafc2902)"><path fill="#000000" d="M 147.019531 57.617188 L 169.792969 57.617188 L 169.792969 65.769531 L 147.019531 65.769531 Z M 147.019531 57.617188 " fill-opacity="1" fill-rule="nonzero"/></g></g><g clip-path="url(#a21e9b14b4)"><g clip-path="url(#ef72119636)"><path fill="#000000" d="M 163.609375 54.921875 L 170.484375 54.921875 L 170.484375 63 L 163.609375 63 Z M 163.609375 54.921875 " fill-opacity="1" fill-rule="nonzero"/></g></g><g clip-path="url(#cfd9c4d7cc)"><g clip-path="url(#d09e96a25e)"><path fill="#000000" d="M 160.972656 48.179688 L 235.535156 48.179688 L 235.535156 83.804688 L 160.972656 83.804688 Z M 160.972656 48.179688 " fill-opacity="1" fill-rule="nonzero"/></g></g><g clip-path="url(#de0b0769c4)"><g clip-path="url(#d60e239bd9)"><path fill="#000000" d="M 160.523438 60.828125 L 167.851562 60.828125 L 167.851562 68.71875 L 160.523438 68.71875 Z M 160.523438 60.828125 " fill-opacity="1" fill-rule="nonzero"/></g></g><g clip-path="url(#49fc8a5abe)"><g clip-path="url(#c271847735)"><path fill="#000000" d="M 160.84375 54.535156 L 177.808594 54.535156 L 177.808594 67.761719 L 160.84375 67.761719 Z M 160.84375 54.535156 " fill-opacity="1" fill-rule="nonzero"/></g></g><g clip-path="url(#fe69fef163)"><g clip-path="url(#8245139471)"><path fill="#000000" d="M 172.285156 57.617188 L 191.839844 57.617188 L 191.839844 70.839844 L 172.285156 70.839844 Z M 172.285156 57.617188 " fill-opacity="1" fill-rule="nonzero"/></g></g><g clip-path="url(#3b670fd6ed)"><g clip-path="url(#0e52ec2194)"><path fill="#000000" d="M 185.65625 56.398438 L 211.832031 56.398438 L 211.832031 67.4375 L 185.65625 67.4375 Z M 185.65625 56.398438 " fill-opacity="1" fill-rule="nonzero"/></g></g><g clip-path="url(#df780f9d81)"><g clip-path="url(#7ff2940817)"><path fill="#000000" d="M 202.433594 60.828125 L 212.980469 60.828125 L 212.980469 77.976562 L 202.433594 77.976562 Z M 202.433594 60.828125 " fill-opacity="1" fill-rule="nonzero"/></g></g><g clip-path="url(#21f592294d)"><g clip-path="url(#202c4bee90)"><path fill="#000000" d="M 180.0625 63.910156 L 196.714844 63.910156 L 196.714844 72.191406 L 180.0625 72.191406 Z M 180.0625 63.910156 " fill-opacity="1" fill-rule="nonzero"/></g></g><g clip-path="url(#e0888048ec)"><g clip-path="url(#60f9d75a10)"><path fill="#000000" d="M 187.972656 67.054688 L 196.460938 67.054688 L 196.460938 74.691406 L 187.972656 74.691406 Z M 187.972656 67.054688 " fill-opacity="1" fill-rule="nonzero"/></g></g><g clip-path="url(#9780e00403)"><g clip-path="url(#2c34deb1e5)"><path fill="#000000" d="M 194.078125 74.820312 L 208.484375 74.820312 L 208.484375 87.789062 L 194.078125 87.789062 Z M 194.078125 74.820312 " fill-opacity="1" fill-rule="nonzero"/></g></g><g clip-path="url(#96a2348c45)"><g clip-path="url(#c696321ff5)"><path fill="#000000" d="M 158.914062 65.128906 L 177.558594 65.128906 L 177.558594 85.269531 L 158.914062 85.269531 Z M 158.914062 65.128906 " fill-opacity="1" fill-rule="nonzero"/></g></g><g clip-path="url(#e4e6e821bd)"><g clip-path="url(#099f25d4d0)"><path fill="#000000" d="M 165.148438 65.769531 L 208.730469 65.769531 L 208.730469 100.046875 L 165.148438 100.046875 Z M 165.148438 65.769531 " fill-opacity="1" fill-rule="nonzero"/></g></g><g clip-path="url(#f7a5a923b4)"><g clip-path="url(#5c1955654c)"><path fill="#000000" d="M 198.644531 87.339844 L 213.625 87.339844 L 213.625 98.183594 L 198.644531 98.183594 Z M 198.644531 87.339844 " fill-opacity="1" fill-rule="nonzero"/></g></g><g clip-path="url(#0b6232793d)"><g clip-path="url(#8296996263)"><path fill="#000000" d="M 180 74.4375 L 188.355469 74.4375 L 188.355469 81.109375 L 180 81.109375 Z M 180 74.4375 " fill-opacity="1" fill-rule="nonzero"/></g></g><g clip-path="url(#696ed98341)"><g clip-path="url(#698c8166e4)"><path fill="#000000" d="M 181.15625 74.5625 L 199.15625 74.5625 L 199.15625 92.535156 L 181.15625 92.535156 Z M 181.15625 74.5625 " fill-opacity="1" fill-rule="nonzero"/></g></g><g clip-path="url(#5b0a61b956)"><g clip-path="url(#5e1e493210)"><path fill="#000000" d="M 151.648438 74.820312 L 170.679688 74.820312 L 170.679688 101.019531 L 151.648438 101.019531 Z M 151.648438 74.820312 " fill-opacity="1" fill-rule="nonzero"/></g></g><g clip-path="url(#4cb31972cb)"><g clip-path="url(#ddaef17879)"><path fill="#000000" d="M 151.585938 82.585938 L 163.027344 82.585938 L 163.027344 100.308594 L 151.585938 100.308594 Z M 151.585938 82.585938 " fill-opacity="1" fill-rule="nonzero"/></g></g><g clip-path="url(#df901800ae)"><g clip-path="url(#c98fbdd70b)"><path fill="#000000" d="M 160.136719 87.339844 L 175.371094 87.339844 L 175.371094 103.320312 L 160.136719 103.320312 Z M 160.136719 87.339844 " fill-opacity="1" fill-rule="nonzero"/></g></g><g clip-path="url(#c4421f685e)"><g clip-path="url(#c46b010c8c)"><path fill="#000000" d="M 161.230469 87.082031 L 169.84375 87.082031 L 169.84375 102.300781 L 161.230469 102.300781 Z M 161.230469 87.082031 " fill-opacity="1" fill-rule="nonzero"/></g></g><g clip-path="url(#482d38bc48)"><g clip-path="url(#3f50c5f326)"><path fill="#e7191f" d="M 115.652344 87.273438 L 124.78125 87.273438 L 124.78125 129.570312 L 115.652344 129.570312 Z M 115.652344 87.273438 " fill-opacity="1" fill-rule="nonzero"/></g></g><g clip-path="url(#d01b0a2653)"><g clip-path="url(#ee9bf5714a)"><path fill="#e7191f" d="M 108.835938 34.832031 L 121.628906 34.832031 L 121.628906 73.503906 L 108.835938 73.503906 Z M 108.835938 34.832031 " fill-opacity="1" fill-rule="nonzero"/></g></g><g clip-path="url(#771b769acb)"><g clip-path="url(#17e8fa330c)"><path fill="#000000" d="M 116.746094 66.605469 L 125.351562 66.605469 L 125.351562 74.691406 L 116.746094 74.691406 Z M 116.746094 66.605469 " fill-opacity="1" fill-rule="nonzero"/></g></g><g clip-path="url(#b84ae055d0)"><g clip-path="url(#a24468011a)"><path fill="#e7191f" d="M 112.5 12.367188 L 137.058594 12.367188 L 137.058594 59.777344 L 112.5 59.777344 Z M 112.5 12.367188 " fill-opacity="1" fill-rule="nonzero"/></g></g><g clip-path="url(#d035f4ec4f)"><g clip-path="url(#cf0df4e7a6)"><path fill="#e7191f" d="M 129.597656 58.742188 L 150.832031 58.742188 L 150.832031 76.136719 L 129.597656 76.136719 Z M 129.597656 58.742188 " fill-opacity="1" fill-rule="nonzero"/></g></g><g clip-path="url(#057d531694)"><g clip-path="url(#35a2a3b711)"><path fill="#e7191f" d="M 139.953125 54.792969 L 152.949219 54.792969 L 152.949219 65.835938 L 139.953125 65.835938 Z M 139.953125 54.792969 " fill-opacity="1" fill-rule="nonzero"/></g></g><g clip-path="url(#2d4fa047fe)"><g clip-path="url(#aa480abd82)"><path fill="#e7191f" d="M 136.285156 56.71875 L 148.949219 56.71875 L 148.949219 74.007812 L 136.285156 74.007812 Z M 136.285156 56.71875 " fill-opacity="1" fill-rule="nonzero"/></g></g><g clip-path="url(#9535a2f97c)"><g clip-path="url(#1d601ba90a)"><path fill="#e7191f" d="M 135.640625 76.777344 L 145.996094 76.777344 L 145.996094 96.4375 L 135.640625 96.4375 Z M 135.640625 76.777344 " fill-opacity="1" fill-rule="nonzero"/></g></g><g clip-path="url(#9474dc1a32)"><g clip-path="url(#fe9cfac47b)"><path fill="#077615" d="M 124.457031 56.71875 L 143.617188 56.71875 L 143.617188 67.117188 L 124.457031 67.117188 Z M 124.457031 56.71875 " fill-opacity="1" fill-rule="nonzero"/></g></g><g clip-path="url(#3e500c3310)"><g clip-path="url(#4e44fbab0a)"><path fill="#077615" d="M 141.492188 62.242188 L 165.210938 62.242188 L 165.210938 72.898438 L 141.492188 72.898438 Z M 141.492188 62.242188 " fill-opacity="1" fill-rule="nonzero"/></g></g><g clip-path="url(#0d8ee36ba7)"><g clip-path="url(#4576b4b5e8)"><path fill="#077615" d="M 175.695312 70.328125 L 254.753906 70.328125 L 254.753906 93.371094 L 175.695312 93.371094 Z M 175.695312 70.328125 " fill-opacity="1" fill-rule="nonzero"/></g></g><g clip-path="url(#a140b4f4d6)"><g clip-path="url(#89c9bc2165)"><path fill="#077615" d="M 119.378906 53.316406 L 146.195312 53.316406 L 146.195312 64.9375 L 119.378906 64.9375 Z M 119.378906 53.316406 " fill-opacity="1" fill-rule="nonzero"/></g></g><g clip-path="url(#9737cd2d7e)"><g clip-path="url(#e8cd78f3c4)"><path fill="#077615" d="M 145.285156 59.480469 L 257.480469 59.480469 L 257.480469 89.199219 L 145.285156 89.199219 Z M 145.285156 59.480469 " fill-opacity="1" fill-rule="nonzero"/></g></g><g clip-path="url(#0374d4392c)"><g clip-path="url(#959e9ba6f5)"><path fill="#077615" d="M 157.949219 62.046875 L 211.996094 62.046875 L 211.996094 78.414062 L 157.949219 78.414062 Z M 157.949219 62.046875 " fill-opacity="1" fill-rule="nonzero"/></g></g><g clip-path="url(#ee29f654cc)"><g clip-path="url(#2c61594748)"><g clip-path="url(#e77c0a1bbd)"><g clip-path="url(#1afc4fefce)"><path fill="#000100" d="M 121.570312 35.726562 C 121.707031 35.898438 121.6875 36.152344 121.699219 36.363281 C 121.722656 36.65625 121.726562 36.949219 121.730469 37.242188 L 121.734375 37.457031 C 122.757812 36.121094 124.074219 34.957031 125.449219 34.042969 C 127.113281 32.929688 129.128906 32.054688 131.164062 32.230469 C 133.210938 32.402344 134.777344 33.839844 135.554688 35.664062 C 136.46875 37.816406 136.550781 40.351562 136.238281 42.652344 C 136.0625 43.945312 135.726562 45.238281 135.152344 46.417969 C 134.699219 47.339844 134.023438 48.34375 133.042969 48.777344 C 132.839844 48.867188 132.644531 48.5625 132.839844 48.433594 C 134.582031 47.285156 135.265625 45.113281 135.601562 43.171875 C 136 40.863281 135.945312 38.324219 135.09375 36.132812 C 134.386719 34.304688 132.886719 32.9375 130.867188 32.84375 C 128.867188 32.75 126.898438 33.796875 125.328125 34.949219 C 123.949219 35.960938 122.765625 37.195312 121.769531 38.578125 C 122.234375 38.425781 122.695312 38.273438 123.15625 38.105469 C 123.648438 37.925781 124.21875 37.71875 124.644531 37.460938 C 124.8125 37.359375 125.050781 37.488281 124.96875 37.699219 C 124.875 37.925781 124.664062 38.027344 124.457031 38.144531 C 124.152344 38.304688 123.835938 38.449219 123.511719 38.570312 C 122.839844 38.839844 122.152344 39.074219 121.460938 39.3125 C 121.25 39.386719 121.027344 39.246094 121.035156 39.015625 C 120.894531 38.894531 120.871094 38.75 120.96875 38.585938 C 121.007812 38.523438 121.039062 38.464844 121.078125 38.40625 C 121.09375 38.050781 121.09375 37.695312 121.085938 37.335938 C 121.082031 37.066406 121.070312 36.796875 121.054688 36.527344 C 121.042969 36.3125 120.957031 36.007812 121.058594 35.804688 C 121.15625 35.601562 121.421875 35.539062 121.570312 35.726562 Z M 121.570312 35.726562 " fill-opacity="1" fill-rule="nonzero"/></g></g></g></g><g clip-path="url(#bca0c9de00)"><g clip-path="url(#ca9fea05b4)"><path fill="#000000" d="M 121.628906 47.734375 L 132.816406 47.734375 L 132.816406 58.324219 L 121.628906 58.324219 Z M 121.628906 47.734375 " fill-opacity="1" fill-rule="nonzero"/></g></g><g clip-path="url(#f799425bfa)"><g clip-path="url(#ea04ef1ab9)"><path fill="#000000" d="M 161.871094 77.261719 L 198 77.261719 L 198 119.675781 L 161.871094 119.675781 Z M 161.871094 77.261719 " fill-opacity="1" fill-rule="nonzero"/></g></g><g clip-path="url(#7fbc6b652a)"><g clip-path="url(#0aacaf671b)"><path fill="#e7191f" d="M 130.949219 53.382812 L 137.75 53.382812 L 137.75 60.121094 L 130.949219 60.121094 Z M 130.949219 53.382812 " fill-opacity="1" fill-rule="nonzero"/></g></g><g clip-path="url(#c1949bfcf2)"><g clip-path="url(#42a5fd3e2e)"><path fill="#000000" d="M 123.105469 43.820312 L 131.460938 43.820312 L 131.460938 51.007812 L 123.105469 51.007812 Z M 123.105469 43.820312 " fill-opacity="1" fill-rule="nonzero"/></g></g></svg>