<?xml version="1.0" encoding="UTF-8"?>
<svg id="Layer_1" data-name="Layer 1" xmlns="http://www.w3.org/2000/svg" viewBox="0 0 414 200">
  <defs>
    <style>
      .cls-1 {
        fill: #eeece1;
      }

      .cls-2 {
        fill: #fff9b8;
      }

      .cls-3 {
        fill: #fff200;
      }

      .cls-4 {
        fill: #fefdfd;
      }

      .cls-5 {
        fill: #fbb040;
      }

      .cls-6 {
        fill: #747474;
      }

      .cls-7 {
        fill: #7cb9db;
      }

      .cls-8 {
        fill: #9ed2f1;
      }

      .cls-9 {
        fill: #332e2d;
      }

      .cls-10 {
        fill: #bbae9a;
      }

      .cls-11 {
        fill: #d1ccc4;
      }

      .cls-12 {
        fill: #d6c1ad;
      }

      .cls-13 {
        fill: #535048;
      }

      .cls-14 {
        fill: #48453e;
      }
    </style>
  </defs>
  <path class="cls-2" d="M282.66,128.36c-4.01-2.67-8.04-5.31-12.01-8.04-2.25-1.54-4.21-3.37-5.49-5.89-.8-1.59-1.01-2.76,.92-3.65,.74-.34,1.84-.63,1.81-1.87l-.02,.02c1.99-.89,3.5,.1,4.95,1.28,.76,.62,1.62,.87,2.59,.82,.59,.02,.58,.46,.61,.87-2.03,.31-3.8-.54-5.58-1.29-1.1-.46-1.82-.51-2.38,.82-.67,1.6,.67,1.51,1.37,1.76,4.27,1.53,8.68,2.01,13.18,1.54,0,.24,0,.49,0,.73-.22,.2-.44,.39-.66,.59-.47,.02-.95,.03-1.42,.05-.46,.04-1-.69-1.31-.12-.36,.65,.51,.7,.84,.97,.26,.21,.6,.66,1.03,.18l-.03-.03c.09,.99,.63,1.32,1.56,1.06l-.03-.03c.8,1.76,2.57,2.26,4.05,3.14,4.51,2.99,9.03,5.99,13.54,8.98,5.95,3.94,11.9,7.88,17.85,11.82,1.7,1.05,3.39,2.1,5.09,3.14,.51,.32,1.01,.65,1.52,.97,4.2,3.26,8.74,5.98,13.29,8.7,1.6,.98,2.84,2.6,4.87,2.82l-.04-.03c-.21,.88,.63,.86,1.03,1.21,.02,.17,.04,.34,.05,.51,.2,2.88-1.75,4.72-3.24,6.78-2.59-1.6-5.22-3.15-7.77-4.81-9.67-6.3-19.33-12.62-28.97-18.96-7.09-4.66-14.14-9.37-21.21-14.05Z"/>
  <path class="cls-5" d="M224.56,72.42c-.64,4.52-.61,4.46-4.56,2.41-2.4-1.24-3.43-2.74-3.31-5.77,.56-15.48-1.92-30.64-5.6-45.62-.18-.74-.26-1.5-.39-2.25,1.96-1.65,4.43-1.65,6.77-2.08,.97,4.07,1.95,8.15,2.92,12.22-.46,1.82,.91,3.15,1.25,4.78,1.7,8.27,2.29,16.66,3,25.04,0,2.71,0,5.43,.01,8.14-.03,1.04-.06,2.08-.09,3.13Z"/>
  <path class="cls-8" d="M89.72,104.12c.75,.12,1.49,.24,2.24,.36,.22,.07,.44,.15,.66,.23,4.44,.55,8.43,2.38,12.36,4.37,1.58,.8,3.07,1.76,4.64,2.58,1.62,.85,1.53,2,.75,3.38-1.32,2.33-4.19,2.81-6.1,1.09-5.14-4.64-11.31-5.55-17.63-3.85-3.41,.91-6.56,1.13-9.9,.48,.35-3.16,.81-6.32-.15-9.45,.16-.02,.31-.03,.47-.03,3.95,.13,7.93-.25,11.84,.68,.28,.06,.55,.12,.83,.18Z"/>
  <path class="cls-9" d="M282.62,114.73c-4.51,.47-8.92-.02-13.18-1.54-.7-.25-2.04-.16-1.37-1.76,.56-1.33,1.28-1.28,2.38-.82,1.78,.75,3.55,1.6,5.58,1.29,1.86,.4,3.73,.26,5.6,.04,3.45-.2,6.55-1.3,9.18-3.6,2.1-.57,3.29-2.3,4.56-3.84,3.81-4.62,5.93-10.09,7.57-15.78,.3-1.03,.54-2.02-1.28-1.69-.8,.14-2.09,.15-2.45-.89-.3-.87,.67-1.48,1.19-2.11,1.93-2.34,3.37-5.05,5.68-7.12,1.37-1.23,1.65-.54,1.97,.61,.81,2.87,1.59,5.75,2.34,8.64,.21,.8,1.09,2.07-.24,2.29-.9,.15-2.73,.63-2.99-1.39-.02-.13-.2-.23-.43-.49-1.23,3.22-2.42,6.37-3.65,9.51-2.31,5.9-5.64,11.06-10.69,14.98-3.23,1.28-6.23,3.18-9.76,3.68Zm21.8-28.42c.65,.62,1.18,.91,1.76,.17-.42-.54-.92-.58-1.76-.17Zm-.17-.31c-.19-.06-.46-.2-.74-.24-.42-.07-.59,.25-.69,.59-.13,.43,.14,.67,.48,.56,.35-.11,.87-.12,.95-.9Z"/>
  <path class="cls-9" d="M221.93,96.74c-9.05-1.7-17.23-5.54-25-10.38-.61-.38-1.22-.63-.59-1.52,.55-.78,1.01-1.27,2.04-.64,2.98,1.78,6.05,3.41,9.08,5.1,6.64,3.69,13.91,4.81,21.16,6.12,1.16,.21,2.34,.32,3.51,.47,3.22,.75,6.44,1.5,9.65,2.24,.34,1.55-.21,2.1-1.73,1.7-4.6-1.2-9.28-1.84-14-2.32-.11-.1-.24-.12-.37-.05-.23-.04-.45-.09-.68-.13-.33-.04-.67-.08-1-.12-.67-.3-1.33-.61-2.1-.47Z"/>
  <path class="cls-14" d="M281.97,116.06c.22-.2,.44-.39,.66-.59,.6,.1,1.2,.2,1.8,.3,1.61,1.23,3.21,2.47,4.84,3.68,.39,.29,1.24,.61,1.19-.05-.16-1.99,2.29-3.85,.3-5.89,.48-.47,.81-1.15,1.62-1.14,.09,1.42,.19,2.83,.28,4.25-.04,.34-.09,.67-.13,1.01-.99,2.69,.1,4.18,2.45,5.67,8.01,5.11,15.82,10.55,23.75,15.78,8.63,5.69,17.33,11.28,25.97,16.96,.49,.32,2.58,.9,.16,1.67-.97-.63-1.54-2.02-3.05-1.6l.02,.02c.29-.98-.41-.97-1.03-1.04h0c-1.05-.95-1.85-2.34-3.59-2.06l.03,.03c.03-1.17-.58-1.39-1.55-1.05l.02,.02c-.08-1.92-1.97-1.69-2.99-2.36-4.92-3.21-9.4-7.15-14.87-9.47h0c-1-1.04-1.85-2.32-3.59-2.06l.02,.02c.19-.17,.37-.4,.11-.59-4.62-3.34-9.36-6.49-14.39-9.18h0c-.26-.73-.75-1.1-1.53-1.03,0,0,0,0,0,0-3.45-3.27-7.69-5.34-11.73-7.71h.01c-1.28-1.62-3.25-2.31-4.78-3.59Z"/>
  <path class="cls-13" d="M282.66,128.36c7.07,4.69,14.13,9.39,21.21,14.05,9.64,6.34,19.3,12.66,28.97,18.96,2.55,1.66,5.18,3.21,7.77,4.81,.24,.4,.97,.73,.45,1.25-.57,.57-1.07-.08-1.54-.38-5.32-3.48-10.64-6.96-15.95-10.45-10.34-6.79-20.66-13.61-31.02-20.37-2.87-1.87-6.07-3.23-8.77-5.38-.69-.55-1.44-.37-2.17-.46-.03-.88,1.17-1.11,1.04-2.04Z"/>
  <path class="cls-8" d="M77.04,99.67c6.25-2.66,12.46-1.03,18.72,.03,.08,1.15-1.13,1.52-1.26,2.44-.2,1.41-.95,1.44-2.18,1.18-5-1.05-10.07-1.46-15.18-1.12,.34-.86-.84-1.66-.1-2.54Z"/>
  <path class="cls-8" d="M85.14,172.12c-3.73-.68-4.84-2.65-3.45-6.14,.16-.39,.34-.78,.48-1.18,1.18-3.35,1.73-3.55,4.35-1.17,1.24,1.13,2.2,2.56,3.29,3.85,.18,.36,.36,.72,.54,1.08l1.1,3.5c-2.1,.85-4.21,.09-6.32,.07Z"/>
  <path class="cls-2" d="M241.8,98.13c-3.22-.75-6.44-1.5-9.65-2.24,0-.29,.01-.59,.02-.88,.58-.09,.98,.69,1.62,.34,.3-.38,.05-.64-.21-.82-1.89-1.28-1.28-2.07,.54-2.36,2.05-.33,3.92-1.57,6.09-1.2,2.15,1.51,4.3,3.02,6.46,4.54-.13,1.13-1.19,1.38-1.88,1.97-1.2-.74-2.14-.25-2.98,.66Z"/>
  <path class="cls-8" d="M279.48,172.01c.19-.46,.66-1.04,.52-1.36-1.45-3.24,.87-4.32,3.01-5.54,.66-.38,1.27-.83,1.9-1.26,2.49-1.72,3.07-1.46,3.47,1.6,.37,2.84-1.11,4.84-3.02,6.63-.84,1.03-1.88,.69-2.93,.46-.97-.22-1.96-.36-2.94-.54Z"/>
  <path class="cls-13" d="M224.64,61.16c-.71-8.38-1.31-16.77-3-25.04-.33-1.63-1.71-2.96-1.25-4.78,.49,0,.99,0,1.48,0,1.62,6.03,2.43,12.2,2.97,18.39,.66,7.53,1.52,15.08,.63,22.67-.3,0-.61,.01-.91,.02,.03-1.04,.06-2.08,.09-3.13,1.15-1.56,1.15-6.58-.01-8.14Z"/>
  <path class="cls-7" d="M145.72,171.48c-3.91-.64-5.68-4.68-3.4-7.78,.7-.95,1.7-.41,2.29-.06,2.53,1.46,3.96,3.85,4.85,6.59,.42,1.28-.62,1.09-1.29,1.26,0,0,.08,.04,.08,.04-.87,0-1.74,0-2.61,0l.08-.04Z"/>
  <path class="cls-14" d="M221.87,31.35c-.49,0-.99,0-1.48,0-.97-4.07-1.95-8.15-2.92-12.22,.77-.36,1.24,.21,1.33,.73,.64,3.94,2.61,7.52,3.07,11.5Z"/>
  <path class="cls-14" d="M188.73,78.79c-.34,.78-.68,1.82-1.41,1.69-1.07-.19-2.33-.74-2.52-2.01-.08-.53,.54-1.66,1.39-1.47,1.01,.23,1.91,.91,2.54,1.79Z"/>
  <path class="cls-14" d="M192.43,83.73c-.81-.1-1.71-.45-1.74-1.18-.04-.9,.59-1.77,1.67-1.76,.77,0,1.61,.38,1.62,1.24,0,.88-.7,1.45-1.56,1.7Z"/>
  <path class="cls-13" d="M289.25,151.52c.32,0,.65,0,.97,.01,.36,2.2,.08,4.32-.87,6.34-.09-.47-.11-.97-.61-1.23,.17-1.71,.34-3.42,.52-5.13Z"/>
  <path class="cls-14" d="M284.73,99.47c1.45,1.17,2.95,2.28,3.78,4.03-.23,.23-.47,.47-.7,.7-1.36-1.37-2.73-2.73-4.09-4.1,.21-.22,.41-.43,.62-.65l.19,.04,.2-.02Z"/>
  <path class="cls-13" d="M290.61,107.63c-.53,.32-1.02,.35-1.39-.25-.34-.87-.68-1.73-1.01-2.6,.43-.16,.51-.53,.54-.93,.95,1.09,1.75,2.26,1.86,3.77Z"/>
  <path class="cls-11" d="M341.8,156.12c1.51-.42,2.08,.97,3.05,1.6-.16,.16-.31,.32-.47,.48-.57-.06-.94-.76-1.6-.51,0,0,.04,.03,.04,.03,.11-.82-1.16-.76-1.02-1.6Z"/>
  <path class="cls-14" d="M183.13,97.82c-.33,.21-.65,.41-.98,.62,0-.08-.04-.14-.14-.18-.33-.04-.65-.07-.98-.11-.15,.06-.27,.02-.37-.1,.41-.59,1.06-.42,1.62-.51,.28,.09,.56,.19,.85,.28Z"/>
  <path class="cls-13" d="M342.78,157.68c.66-.24,1.04,.45,1.6,.51,0,.23,0,.46,0,.68-.19,0-.39,.01-.58,.02-.4-.35-1.24-.33-1.03-1.21Z"/>
  <path class="cls-13" d="M277.01,96.62c-.57,.81-.97,.12-1.41-.16,.47,.05,.94,.11,1.41,.16Z"/>
  <path class="cls-13" d="M225.41,78.09c-.67-.79-.48-1.64-.19-2.5,.06,.83,.13,1.66,.19,2.5Z"/>
  <path class="cls-8" d="M77.06,103.26c-.16,0-.31,.01-.47,.03-.65-.79-.23-1.03,.55-1.08-.03,.35-.06,.7-.08,1.05Z"/>
  <path class="cls-14" d="M110.27,170.52c-.4-.03-.8-.08-1.01-.51,.21-.14,.42-.28,.63-.42,.21,.26,.43,.53,.64,.79-.04,.14-.13,.18-.27,.14Z"/>
  <path class="cls-13" d="M290.09,150.46c-.1-.37-.2-.74-.3-1.11,.1,.37,.2,.74,.3,1.11Z"/>
  <path class="cls-11" d="M292.52,117.63c.04-.34,.09-.67,.13-1.01,.32,.39,.3,.73-.13,1.01Z"/>
  <path class="cls-14" d="M288.75,103.86c-.03,.4-.11,.77-.54,.93-.13-.19-.26-.39-.39-.58,.23-.23,.47-.47,.7-.7,.17,.06,.25,.17,.24,.36Z"/>
  <path class="cls-13" d="M77.11,141.68c.07,.43,.02,.81-.37,1.08,.12-.36,.24-.72,.37-1.08Z"/>
  <path class="cls-14" d="M283.57,98.79c.22,.1,.44,.2,.66,.3,0,.13,.04,.25,.12,.36-.21,.22-.41,.43-.62,.65-.3-.19-.61-.37-.91-.56,.25-.25,.5-.5,.75-.75Z"/>
  <path class="cls-11" d="M216.34,98.62c-.29,.29-.62,.42-1.02,.29,.26-.37,.62-.41,1.02-.29Z"/>
  <path class="cls-13" d="M187.27,98.26c-.18,.11-.35,.23-.53,.34,.18-.11,.35-.23,.53-.34Z"/>
  <path class="cls-11" d="M218.4,98.39c-.18,.02-.36,.04-.54,.06,.15-.28,.33-.33,.54-.06Z"/>
  <path class="cls-11" d="M219.9,98.25c-.16,.01-.32,.02-.48,.04,.15-.22,.31-.23,.48-.04Z"/>
  <path class="cls-13" d="M282.18,98.08c-.17-.07-.34-.14-.51-.21,.17,.07,.34,.14,.51,.21Z"/>
  <path class="cls-11" d="M343.81,158.89c.19,0,.39-.01,.58-.02-.18,.18-.35,.35-.53,.53-.02-.17-.04-.34-.05-.51Z"/>
  <path class="cls-13" d="M289.48,148.79c-.05-.33-.1-.66-.16-.99,.21,.3,.47,.6,.16,.99Z"/>
  <path class="cls-13" d="M143.39,172.08c.3,.06,.6,.11,.9,.17-.36,.28-.64,.07-.9-.17Z"/>
  <path class="cls-10" d="M284.35,99.45c-.08-.11-.12-.23-.12-.36,.17,.13,.34,.25,.51,.38,0,0-.2,.02-.2,.02l-.19-.04Z"/>
  <path class="cls-13" d="M279.2,97.02c-.2-.06-.4-.12-.59-.18,.2,.06,.4,.12,.59,.18Z"/>
  <path class="cls-8" d="M163.28,96.81c-.22,.06-.44,.12-.66,.19,.22-.06,.44-.12,.66-.19Z"/>
  <path class="cls-10" d="M209.75,20.94c-.03,.2-.15,.29-.34,.27-.1-.37-.05-.54,.34-.27Z"/>
  <path class="cls-8" d="M153.56,99.15c-2.83,1.25-.57,4.3-2.27,5.82,.61,.38,1.18,.96,1.84,1.12,3.98,.97,7.63,2.78,11.35,4.44,3.34,1.49,4.4,2.98,3.92,5.64-.14,.79-.36,1.48-1.16,1.86-.89,.41-1.36-.13-1.96-.67-4.48-4.01-9.75-5.98-15.68-5.11-5.55,.82-10.52-.03-15.13-3.26-1.3-.91-2.76-1.58-4.56-2.59,5.89-2.15,11.48-2.47,17.18-1.46,.41,.07,.79,.33,1.2,.35,.44,.01,1.11,.27,1.26-.43,.15-.69-.46-.86-.95-.93-1.85-.26-3.7-.59-5.56-.67-4.62-.21-9.14,.26-13.47,2.09-1.73,.73-4.77-.33-5.3-1.74-.71-1.9,.26-3.34,2.87-4.27,8.7-3.09,17.44-2.95,26.43-.19Z"/>
  <path class="cls-8" d="M246.79,126.09c-8.41-.93-16.2-4.49-22.92-10.76-3.33-3.1-6.49-6.5-10.44-8.86-1.15-.69-.91-1.08-.12-1.83,2.68-2.51,7.1-2.9,10.67-.78,2.93,1.74,5.46,4.03,8,6.3,4.58,4.09,9.41,7.81,15.71,8.81,.92,.15,1.85,.27,2.77,.29,1.11,.02,2.14-.16,2.62,1.34,.48,1.48,.37,2.69-.77,3.73-1.38,1.26-3.05,1.81-5.52,1.76Z"/>
  <path class="cls-5" d="M214.34,83.52c.05-.82,0-1.63,.61-2.01,.6-.37,1.14,.3,1.48,.68,4.5,5.07,9.43,4.83,15.27,2.21,5.35-2.4,11.27-3.08,17.19-2.66,4.6,.33,8.61,1.88,11.13,6.07,.79,1.31,1.23,2.61-1.16,2.66-.65,.01-1.33,.28-1.94,.55-2.02,.89-3.56,.88-5.69-.55-3.56-2.38-7.86-1.6-11.87-.86-2.49,.46-4.94,1.2-7.34,2.01-4.37,1.49-8.59,.72-12.61-.99-3.02-1.29-4.4-4.09-5.07-7.11Z"/>
  <path class="cls-8" d="M211.33,114.26c4.64,.37,9.63,1.53,14.1,4.4,.71,.45,1.36,1.04,1.93,1.66,1.24,1.37,2.32,2.92,1.47,4.84-.87,1.96-2.8,1.7-4.46,1.53-2.1-.21-4.24-.46-6.27-1.03-4.47-1.27-8.87-1.19-13.27,.14-1.9,.57-3.84,.54-5.79,.62-1.52,.07-2.11-.61-2.25-2.08-.31-3.3,1.24-5.56,3.81-7.28,3.07-2.04,6.51-2.78,10.72-2.81Z"/>
  <path class="cls-3" d="M267.45,91.73c1.74,.37,3.09,1.39,4.21,2.71,.86,1.01,.97,1.79-.76,1.9-2.2,.14-4.33,.86-6.49,1.15-4.75,.64-8.36,3.04-11.49,6.48-3.38,3.71-7.38,6.68-11.33,9.73-2.03,1.57-2.8-.26-4.06-.93-1.31-.7-1.52-1.59-.78-2.91,4.37-7.8,10.07-14.09,18.77-17.04,1.19-.24,2.83,1.11,3.5-.99,0,0,.12-.04,.12-.04,2.77,.14,5.54,.23,8.31-.05Z"/>
  <path class="cls-8" d="M202.14,158.1c.17-1.82-1.05-3.31-1.17-5.08-.07-1.02-.2-2.02-.01-3.04,.29-1.56,.8-2.16,2.71-1.96,4.56,.47,7.47,3.37,10.32,6.39,3.49,3.71,6.43,7.89,7.89,12.82,.98,3.29-1.28,5.26-4.69,4.38-3.43-.89-6.02-3.16-8.54-5.55-.79-.75-1.22-2.36-2.88-1.74l-.08,.02c.54-.7,.33-1.02-.51-1.02v-.02c.04-1.11-.35-1.87-1.53-2.05h0c.47-.66,.29-.99-.5-1.01l-.02-.03c.03-.14,.06-.29,.1-.43-.2-.02-.4-.05-.6-.07v.02c.67-.79,.52-1.31-.49-1.54l.02-.08Z"/>
  <path class="cls-8" d="M237.17,156.68c-.53,4.73-2.28,9.06-5.23,12.85-1.11,1.42-2.74,2.29-4.58,2.53-2.54,.33-3.69-.63-3.99-3.22-.25-2.12-.65-4.22-1.69-6.12-.67-1.2-.54-2.22,.31-3.28,2.24-2.8,3.45-6.04,3.89-9.59,.1-.81,.09-1.95,1.32-1.73,1.53,.28,2.96-2.34,4.51-.1,.28,.4,.71,.89,1.14,.97,4.41,.84,3.75,4.53,4.32,7.67Z"/>
  <path class="cls-8" d="M180.77,113.88c4.55-.4,8.66,1.33,12.34,4.07,2.25,1.68,2.65,4.28,2.2,6.96-.23,1.36-1.34,1.41-2.36,1.25-1.75-.27-3.55-.49-5.22-1.04-3.69-1.23-7.34-1.12-11-.07-2.39,.69-4.83,.79-7.29,.86-1.27,.04-1.86-.5-1.97-1.76-.22-2.74,.5-5.04,2.73-6.79,3.06-2.4,6.54-3.51,10.57-3.48Z"/>
  <path class="cls-8" d="M90.27,112.82c5.32-.04,9.71,.68,13.16,4.18,1.49,1.5,2.41,3.23,2.37,5.46-.04,2.11-.99,2.98-3.03,2.69-.33-.05-.67-.12-.99-.24-6.06-2.31-12.12-2.11-18.2-.08-.98,.33-1.93,.42-2.98,.11-3.14-.9-4.24-4.42-1.82-6.72,3.38-3.22,7.21-5.71,11.5-5.4Z"/>
  <path class="cls-8" d="M122.47,112.82c5.53-.07,10.06,1.95,13.49,6.37,1.18,1.53,1.13,3.36,.53,4.85-.61,1.54-2.41,1.28-3.83,1.01-1.25-.23-2.48-.59-3.69-.97-3.5-1.1-7-1.16-10.54-.22-1.39,.37-2.8,.72-4.21,1.01-1.8,.37-3.97,1.24-5.13-.72-1.28-2.18-.5-4.55,1.06-6.42,3.2-3.85,7.6-4.84,12.31-4.91Z"/>
  <path class="cls-8" d="M151.07,123.9c-3.48,.14-6.73,1.64-10.28,1.54-1.85-.05-2.56-.5-2.68-2.41-.21-3.35,1.44-5.52,4.05-7.13,6.1-3.76,16.07-4.1,22.67,2.84,1.62,1.71,1.58,4,.88,6.06-.46,1.35-2.02,1.05-3.15,.83-2.16-.43-4.29-1.02-6.43-1.54-1.32-.32-2.65-.59-4.02-.26l-1.03,.07Z"/>
  <path class="cls-8" d="M142.42,150.84c-.05-4.4,1.17-4.96,5.52-2.8,4.81,2.39,7.65,6.58,10.15,11.05,1.84,3.28,3.04,6.83,3.56,10.59,.24,1.75-.03,2.47-2.15,1.85-10.81-3.16-16.44-11.12-17.07-20.7Z"/>
  <path class="cls-5" d="M281.17,128.96c-4.15,1.45-7.65,1.83-11.29,.03-6.77-3.34-12.43-7.64-14.63-15.36-.5-1.74-.58-3.53-.87-5.29-.78-4.75,2.84-7,5.65-8.35,1.15-.55,1.77-.33,1.68,1.11-.07,1.02,.04,2.06-.04,3.08-.62,8.45,3.59,14.22,10.18,18.66,2.94,1.98,5.93,3.89,9.33,6.12Z"/>
  <path class="cls-8" d="M102.12,164.88c.03,.25,.04,.51,.09,.76,.34,1.72,1.66,3.91,.37,5.04-1,.88-3.11-.54-4.63-1.2-2.87-1.24-5.63-2.67-7.93-4.86-2.9-3.63-5.14-7.58-5.97-12.24-.12-.67-.3-1.35-.27-2.02,.08-1.82-.33-3.86,1.78-4.93,2.31-1.16,3.38,.81,4.71,1.97,5.48,4.77,9.22,10.75,11.85,17.48Z"/>
  <path class="cls-8" d="M112.94,149.79c.23-1.08-.01-3.03,1.21-3.2,1.51-.22,3.41-.15,4.82,.93,6.93,5.32,11.16,12.42,13.15,20.87,.74,3.13,.2,3.45-2.82,2.41-11.17-3.86-15.29-11.37-16.36-21.01Z"/>
  <path class="cls-8" d="M109.9,169.59c-.21,.14-.42,.28-.63,.42-.31,.14-.61,.28-.92,.42-3.35,1.49-3.65,1.3-4.26-2.13-.2-1.16-.27-2.39-.96-3.42-2.54-5.48-2.71-11.16-1.5-17,.33-1.58,.66-2.47,2.58-1.94,1.48,.41,3.1,.14,4.44-.65,1.28-.74,1.9-.63,2.29,.87,1.86,7.27,1.5,14.55,.2,21.84-.14,.76-.8,1.07-1.23,1.58Z"/>
  <path class="cls-8" d="M136.3,146.31c3.75-1,3.84-1.01,4.53,3.13,1.04,6.21,.84,12.43-.41,18.6-.47,2.34-3.77,4.36-6.08,3.89-.99-.2-.85-.9-.87-1.56-.06-2.78-.78-5.44-1.9-7.93-2.25-5.01-1.41-10.01-.4-15.07,.2-.99,.64-1.31,1.56-1.14,1.18,.55,2.37,.31,3.56,.08Z"/>
  <path class="cls-8" d="M256.07,158.55c1.08-3.48,.85-7.99,.81-12.5-.01-1.88,2-2.09,3.03-3.11,.9-.88,1.44,.29,2.08,.71,5.09,3.33,6.22,8.19,5.15,13.82-.96,5.04-2.11,10.02-6.69,13.22-2,1.39-2.46,1.18-2.72-1.18-.38-3.37-1.83-6.56-1.67-10.97Z"/>
  <path class="cls-8" d="M243.67,136.05c-4.39-.35-8.84-1.24-12.62-4.17-1.22-.94-2.51-2.07-2.17-3.79,.37-1.88,2.11-2.32,3.7-2.66,2.26-.48,4.48-.5,6.77,.25,4.39,1.44,8.86,2.35,13.47,.79,.87-.3,1.83-.36,2.76-.46,1.32-.14,2.55-.03,3.24,1.39,.7,1.43,.05,2.51-.92,3.43-3.92,3.73-8.75,5.01-14.23,5.21Z"/>
  <path class="cls-8" d="M170.52,164.24c-.69,2.15-.6,4.49-1.88,6.53-1.17,1.86-2.36,3.31-4.8,2.8-.33-.38-.95-.78-.93-1.15,.3-5.16-2.45-9.72-2.85-14.73,.07-2.12,.08-4.25,.22-6.37,.28-4.18,.32-4.17,4.34-4.31,.25,0,.49-.1,.74-.16,1.35,.53,2.57-2.07,3.75-.4,.71,1.01,.58,2.6,.97,3.89,.8,2.64,.19,5.4,.76,8.06-.03,.26-.06,.51-.08,.77-.08,1.69-.15,3.38-.23,5.07Z"/>
  <path class="cls-8" d="M222.17,114.9c-2.19,.3-3.36-.56-4.65-.85-4.09-.93-8.17-1.19-12.33-.33-2.46,.51-5.04,.05-7.06-1.36-3.09-2.16-6.38-3.83-9.89-5.05-1.96-.68-1.58-1.62-.67-2.77,1.23-1.56,2.92-2.36,4.86-2.4,9.22-.16,17.45,2.62,24.57,8.57,1.53,1.28,2.72,2.95,5.18,4.19Z"/>
  <path class="cls-8" d="M159.55,106.8c5.21-1.82,10.05-2.19,14.99-1.64,7.69,.86,14.9,3.15,21.52,7.24,1.07,.66,1.9,1.43,1.74,2.85-.14,1.23,.25,2.7-1.26,3.34-1.45,.62-1.79-.89-2.6-1.52-5.14-3.98-10.93-5.23-17.26-4.03-3.24,.61-6.24,.17-8.91-1.83-2.4-1.8-5.29-2.65-8.23-4.42Z"/>
  <path class="cls-8" d="M239.97,152.18c-.15-1.26-.08-2.28,1.68-1.78,.47,.13,1.1,.19,1.51,0,4.19-2.04,5.62,1.41,7.21,3.9,2.71,4.24,4.89,8.8,5.98,13.78,.75,3.4-.1,4.4-3.55,4.06-2.59-.26-4.86-.98-5.84-3.98-.93-2.84-2.56-5.42-4.57-7.64-1.99-2.19-2.65-4.69-2.41-7.55,0-.26,0-.52,0-.78Z"/>
  <path class="cls-8" d="M124.36,111.58c-2.63-.03-5.24,.11-7.81,.77-1.63,.42-3.4,.18-4.68-.67-3.31-2.19-6.86-3.89-10.96-5.91,4.73-1.71,9.02-2.13,13.39-1.83,8.19,.57,15.67,3.33,22.59,7.69,.57,.36,1.19,.73,1.6,1.25,1.1,1.4,.89,2.96-.09,4.25-1.08,1.4-2.31,.27-3.02-.46-2.86-2.98-6.45-4.28-10.35-5-.23-.03-.45-.06-.68-.1Z"/>
  <path class="cls-8" d="M190.73,168.89c-.14,1.39-1.14,1.44-2.19,1.45-2.26,0-4.23-.77-5.91-2.28,0,0-.15-.11-.15-.11-2.03-1.52-2.71-4.24-4.87-5.64-.99-1.97-1.99-3.92-2.95-5.91-.44-.91-.8-1.87-1.16-2.82-.75-1.97-1.29-5.05-.09-5.75,1.58-.91,4.27,.1,6.01,1.6,5.89,5.08,9.98,11.27,11.31,19.1-.12,.13-.11,.24,.02,.36Z"/>
  <path class="cls-8" d="M193.31,146.36c-3.18,.03-4.84-2.18-6.27-4.52-2.28-3.75-3.43-7.96-4.37-12.22-1.05-4.74-1.06-4.54,3.67-3.72,4.35,.75,7.04,2.97,8.4,7.19,.89,2.75,1.79,5.49,2.61,8.27,1.25,4.27-.81,4.67-4.03,5.01Z"/>
  <path class="cls-8" d="M152.69,124.85c3.02-.12,5.75,1.22,8.64,1.72,.55,.09,.83,.53,1.11,.96,2.87,4.44,4.66,9.31,5.83,14.46,.6,2.65-1.18,3.18-2.92,3.89-2.08,.22-3.94-.31-5.56-1.65-.31-.33-.61-.67-.92-1-1.98-2.82-3.14-6.04-4.4-9.21-.61-2.65-1.23-5.3-1.84-7.95v.04c.02-.42,.04-.84,.06-1.25Z"/>
  <path class="cls-8" d="M133.23,145.37c-2.32-.94-3.9-2.7-5.08-4.83-2.49-4.54-3.78-9.48-4.73-14.54-.3-1.61,.35-1.83,1.6-1.55,2.23,.5,4.46,1.03,6.69,1.57,.7,.17,1.2,.59,1.52,1.25,2.08,4.24,4.42,8.35,5.48,13.07,.58,2.58,.37,4.3-2.44,4.98-1.01,.02-2.03,.04-3.04,.06Z"/>
  <path class="cls-8" d="M198.56,163.66c-.29,1.13-.59,2.25-.86,3.39-.87,3.71-.91,3.75-4.78,3.94-.49-.24-1.06-.39-1.25-1.01,.11-.15,.11-.31,0-.46,.3-1.83-.13-3.58-.74-5.25-1.89-5.14-1.6-10.39-.99-15.67,.14-1.22,.54-1.5,1.8-1.23,1.73,.37,3.57,.38,5.16-.68,1.28-.85,1.56-.09,1.84,.96,.98,3.69,.82,7.43,.5,11.18-.08,.93-.18,1.86-.27,2.79-.17,.33-.36,.66-.04,1-.12,.35-.24,.69-.36,1.04Z"/>
  <path class="cls-8" d="M110.36,135.8c.69-2.63,1.37-5.27,2.06-7.9,.2-.75,.38-1.48,1.32-1.69,2.23-.48,4.46-1.01,6.69-1.5,1.17-.26,1.61,.23,1.79,1.44,.99,6.4-.97,12.26-3.09,18.1-.25,.68-.79,1.09-1.52,1.22-2.63,.45-6.1-1.65-7.04-4.27,.03-.77,.16-1.56-.22-2.29,0-.49,0-.99,0-1.48,.32-.55,.37-1.09,0-1.64Z"/>
  <path class="cls-5" d="M282.82,99.55c.3,.19,.61,.37,.91,.56,1.36,1.37,2.73,2.73,4.09,4.1,.13,.19,.26,.39,.39,.58,.34,.87,.68,1.73,1.01,2.6-.63,1.8-2.4,1.83-3.75,2.59-1.7,.96-2.83-.58-4.27-.58-4.06-3.95-8.85-5.65-14.52-5.23-3.15,.23-4.04-.87-4-3.39,.02-1.4,.8-1.73,1.8-2.01,6.19-1.72,12.34-2.19,18.34,.78Z"/>
  <path class="cls-8" d="M78.25,140.75c2.2-3.64,2.79-7.8,3.75-11.85,.22-2.05,1.28-3.12,3.39-3.3,1.42-.12,2.86-.47,4.2-.95,2.17-.78,2.76-.1,2.8,2.14,.12,5.98-2.19,11.14-4.98,16.16-.67,1.21-2.2,1.16-3.41,1.29-1.08,.11-2.19-.18-3.28-.19-2.28-.02-3.37-.89-2.47-3.3Z"/>
  <path class="cls-8" d="M211.26,125.9c3.37-.04,6.28,.88,9.22,1.61,.88,.22,1.14,.91,1.48,1.6,2.44,4.87,4.82,9.77,7.36,14.59,1.04,1.98,.36,2.78-1.53,3.11-4.01,.69-6.62-1.76-8.78-4.49-3.74-4.73-5.79-10.36-7.76-16.42Z"/>
  <path class="cls-8" d="M172.78,128.88c1.39-3.11,4.47-2.59,6.97-3.25,.89-.24,1.13,.6,1.2,1.28,.58,6.04-.09,11.94-2.4,17.56-.58,1.4-1.82,2.33-3.68,1.82-4.38-1.21-6.99-2.54-5.34-8.03,.35-1.16,.87-2.37,.42-3.66,0,0,.01-.02,.01-.02,.84,.19,.49-.5,.61-.84,.47-1.09,.95-2.19,1.42-3.28,.13-.34,.57-.67,0-1.01,0,0,0,0,0,0,.64,.36,.58-.27,.76-.55h.02Z"/>
  <path class="cls-8" d="M182.01,98.26c.1,.04,.14,.1,.14,.18,.61,.4,1.23,.8,1.85,1.21-1.39,1.06-2.59,2.22-2.3,4.23,.22,1.56-.77,1.06-1.57,.91-5.19-.95-10.38-1.56-15.65-.54-1.84,.35-3.66,.72-5.34,1.56-2.01,1-3.77-.02-5.15-1.09-1.91-1.49-1.04-4.07,1.49-4.88,3.55-1.15,7.22-1.81,10.9-2.38,4.79-.37,9.56-.3,14.29,.6,.1,.12,.22,.16,.37,.1,.31,.21,.61,.45,.98,.11Z"/>
  <path class="cls-8" d="M152.64,126.1s0-.04,0-.04c-1.36-.25-.94,.79-.95,1.41-.02,2.18,.02,4.36,.04,6.54-.2,1.38-.39,2.75-.59,4.13-.82,2.08-1.61,4.17-2.49,6.22-.6,1.4-1.56,2.05-3.22,1.59-4.9-1.34-5.98-2.96-5.23-8.04,.16-1.09,.89-2.18,.18-3.32,0,0,.02-.03,.02-.03,.16,0,.33-.02,.49-.03,.15-.1,.17-.23,.08-.37,.14-.38,.27-.77,.41-1.15,.68-1.54,1.37-3.08,2.05-4.62,1.57-3.33,4.97-2.58,7.63-3.48,.55,.37,.12,2.08,1.59,1.18Z"/>
  <path class="cls-8" d="M210.59,131.3c-.3,4.79-.75,9.11-2.45,13.21-.76,1.84-1.97,2.79-3.93,2.27-2.15-.57-4.88-.66-5.24-3.61-.68-5.61,1.34-10.57,4.19-15.24,.41-.68,5.81-2.12,6.45-1.84,.56,.25,.59,.79,.64,1.29,.14,1.44,.25,2.89,.34,3.92Z"/>
  <path class="cls-2" d="M227.56,82.68c.57,.73,1.61,1.22-.19,2.05-3.07,1.41-5.34,.19-7.61-1.58-1.21-.94-2.36-1.96-3.61-2.84-1.47-1.05-2.45-.86-2.8,1.18-.21,1.22,.16,3.23-.85,3.49-1.32,.35-2.39-1.34-3.4-2.31-2.31-2.2-4.78-4.3-5.57-7.68-.63-2.72,.07-3.83,2.89-3.98,3.43-.18,6.5,1.15,9.45,2.66,2.13,1.1,4.08,2.54,6.11,3.83-1.33,.59-2.19-.43-3.19-.96-2.35-1.24-4.67-2.56-7.44-2.61,3.97,1.5,7.41,4.09,11.32,5.65,.48-1.11-1.17-1.13-.68-2.06,2,.52,3.39,2.04,5.05,3.12-.34,.33-.68,.67-1.02,1,.3,.67,.87,.96,1.55,1.08l-.02-.04Zm-19.11-9.31c-1.42,.3-2.31,.45-2.23,1.41,.12,1.53,1.35,2.37,2.32,3.37,.15-1.59-1.59-2.77-.09-4.78Zm.96,6.09c.06-.16,.22-.37,.18-.51-.06-.19-.26-.37-.45-.47-.33-.17-.4,.15-.4,.35,0,.35,.21,.58,.67,.64Z"/>
  <path class="cls-8" d="M105.2,144.86c-2.24,.03-3.64-1.14-4.75-2.54-3.88-4.9-5.12-10.85-6.37-16.78-.19-.87,.15-1.25,1.11-1.07,3.5,.65,6.66,1.55,8.13,5.49,1.36,3.62,3.34,6.99,5.22,10.39,1.67,3.02,1.28,3.6-2.09,4.34-.49,.11-1,.14-1.25,.17Z"/>
  <path class="cls-8" d="M125.53,98.44c-1.8,1.33-2.78,2.69-2.54,4.72,.18,1.55-.95,.75-1.53,.66-4.78-.79-9.54-1.49-14.42-.76-2.12,.31-4.18,.73-6.13,1.57-1.1,.47-2.14,.61-3.17,.05-.8-.44-2.3-.06-2.23-1.57,.06-1.32,.99-2.11,2.18-2.59,2.7-1.08,5.54-1.59,8.37-2.08,5.02-.87,10.06-1.64,15.19-1.08,1.34,.15,2.67,.3,4.29,1.08Z"/>
  <path class="cls-8" d="M289.25,151.52c-.17,1.71-.34,3.42-.52,5.13-1.14,4.75-5.09,6.73-8.75,9.01-.66,.41-1.12,.57-1.68-.22-.51-.74-1.18-1.41-1.9-1.95-1.65-1.24-1.41-2.22,.04-3.52,4.22-3.81,7.33-8.6,11-13.11,1.27,1.36,1.25,3.13,1.81,4.67Z"/>
  <path class="cls-8" d="M278,137.48c1.74,0,1.03-1.29,.83-1.94-.67-2.08,.56-2.35,2.06-2.44,2.35-.14,3.94,1.16,4.82,3.12,1.84,4.1,2.38,8.21-.82,12.02-.99,1.17-1.81,2.49-2.86,3.6-.54,.57-.81,2.03-2,1.36-1.24-.7-2.1-1.77-1.43-3.45,1.44-3.62,1.14-7.38,.7-11.12-.07-.56,.29-2.06-1.29-1.23,0,0,0,.07,0,.07Z"/>
  <path class="cls-8" d="M222.35,99.46c5.3,.05,10.4,1.08,15.33,3.07,1.48,.6,1.89,1.01,.77,2.43-1.1,1.39-1.98,2.98-2.77,4.57-.67,1.35-1.28,1.32-2.27,.38-2.46-2.35-5.01-4.6-7.87-6.46-4.87-3.18-8.98-2.93-13.5,.79-.58,.48-1.1,1.26-1.9,.43-.65-.67-.34-1.41,.04-2.12,.52-.99,1.42-1.4,2.41-1.73,3.17-1.07,6.44-1.36,9.76-1.36Z"/>
  <path class="cls-8" d="M273.5,172.76c-2.87-.12-5.46-1.56-7.96-3.21-.78-.52-.83-1.13-.44-1.98,1.16-2.48,2.21-5,2.79-7.68,.25-1.14,.77-1.09,1.61-.6,3.67,2.12,6.6,5.05,8.68,8.7,1.58,2.78-.32,4.72-4.68,4.76Z"/>
  <path class="cls-8" d="M230.7,140.31c0-.69-.02-1.2,0-1.71,.18-3.76,.87-4.29,4.23-3.2,2.1,.68,4.19,1.39,6.4,1.58,1.15,.1,1.42,.55,1.05,1.65-.86,2.6-1.78,5.16-3.3,7.45-1.03,1.55-2.38,2.73-4.43,2.36-1.91-.35-2.78-1.82-3.32-3.5-.5-1.55-.75-3.15-.63-4.62Z"/>
  <path class="cls-8" d="M187.23,99.42c7.95-4,16.79-3.05,23.78,.47-.81,1.06-2.08,1.75-2.33,3.22-.23,1.37-1.21,.57-1.78,.41-3.09-.86-6.08-2.11-9.31-2.49-4.71-.55-9.19-.64-11.92,4.42-.76,1.4-1.93,.42-2.39-.38-.92-1.61-.6-3.09,1.09-4.16,.86-.54,2.01-.46,2.68-1.36,0,0,.02-.15,.02-.15l.15,.03Z"/>
  <path class="cls-8" d="M239.36,172.62c-1.83,.27-3.46-.79-5.17-1.45-.94-.36-1.27-1.1-.42-1.97,2.41-2.47,3.11-5.75,3.87-8.92,.46-1.93,1.2-1.83,2.29-.76,2.83,2.77,4.77,6.14,6.31,9.78,.45,1.06-.28,1.38-.93,1.74-1.8,1-3.71,1.65-5.93,1.58Z"/>
  <path class="cls-8" d="M268.56,129.92c1.93,.27,3.53,1.58,5.55,1.58,1.06,0,.91,1.15,.68,1.83-1.32,3.91-3.15,7.55-6.45,10.16-1.78,1.41-5.41,.46-6.39-1.47-.49-.96,.37-1.25,.83-1.57,3.66-2.52,5.54-6.02,5.78-10.54Z"/>
  <path class="cls-8" d="M267.27,131.16c-.37,4.2-3.05,6.83-6.17,9.16-.19,.14-.45,.23-.68,.23-.45,0-5.39-4.84-5.47-5.29-.07-.4,.13-.63,.44-.8,2.61-1.48,4.62-3.75,7.1-5.37,1.11-.72,2.49-1.2,3.84-.42,.95,.55,1,1.51,.93,2.49Z"/>
  <path class="cls-8" d="M253.04,145.02c-2.61-.06-7.5-4.23-8.16-6.9-.23-.93,.28-.93,.92-1.03,2.16-.33,4.36-.47,6.41-1.35,.84-.36,1.39,.03,1.98,.64,1.41,1.46,2.9,2.85,4.38,4.23,.53,.49,1.12,.96,.29,1.61-1.73,1.34-3.42,2.82-5.81,2.8Z"/>
  <path class="cls-8" d="M278,137.48s0-.07,0-.07c.15,.97,.3,1.93,.45,2.9-.03,.06-.09,.13-.08,.19,.02,.13,.08,.26,.12,.39-.26,2.99,.44,6.11-1.48,8.86-1.22,1.75-2.72,1.94-3.64,.02-1.58-3.28-2.53-6.68-.23-10.15,1.32-1.99,2.3-4.17,3.03-6.51,.71,.48,.63,1.32,.97,1.94-.17,.8,.26,1.27,.87,1.64,0,.26,0,.51-.01,.77Z"/>
  <path class="cls-8" d="M270.45,143.54c.3,1.52,.55,2.91,.85,4.3,.31,1.44,.95,2.69,2.03,3.75,.72,.69,2.26,.47,2.14,2.13-.15,2.12-.12,4.26-.93,6.27-.16,.39-.53,.81-.99,.54-1.23-.73-2.33-1.75-3.64-2.29-1.8-.75-1.28-2.06-1.25-3.39,.06-2.67-.23-5.32-1.69-7.62-.76-1.2-.73-1.67,.71-2.08,.92-.26,1.72-.98,2.75-1.6Z"/>
  <path class="cls-3" d="M248.42,117.7c-1.95,.08-3.79-.86-5.7-1.55-1.22-.45-1.21-1.05-.27-1.76,3-2.25,6.49-3.62,9.78-5.35,.81-.43,1.05,.15,1.12,.82,.08,.76,.17,1.53,.2,2.29,.06,1.37,1.74,2.88,.52,3.96-1.43,1.27-3.49,1.65-5.65,1.59Z"/>
  <path class="cls-8" d="M210.98,170.55c-2.86,3.36-8.97,3.39-12.13,.11-.6-.62-.43-1.19-.29-1.85,.34-1.65,.66-3.3,.99-4.96h0c.16-.05,.32-.1,.48-.16,.17,.07,.33,.15,.5,.22,.86,.93,1.97,1.45,3.08,1.98,1.61,1.43,3.72,1.97,5.51,3.09,.69,.43,1.64,.56,1.87,1.56Z"/>
  <path class="cls-7" d="M209.98,147.9c-1.66,.2-1.95-.3-1.17-1.8,1.28-2.48,2.28-5.12,3.6-7.58,1.08-2,1.72-1.91,2.8,0,.88,1.55,1.69,3.17,2.81,4.53,.96,1.17,1.02,1.71-.43,2.37-2.46,1.12-4.88,2.3-7.61,2.48Z"/>
  <path class="cls-8" d="M92.08,145.37c-2.71-.01-3.4-1.11-2.33-3.59,.95-2.22,2.04-4.19,4.47-5.24,1.3-.57,1.62-.15,2.04,.83,.4,.94,.8,1.88,1.28,2.78,1.77,3.33,1.78,3.32-1.72,4.56-1.21,.43-2.45,.64-3.73,.66Z"/>
  <path class="cls-8" d="M243.7,138.6c1.95,2.48,3.03,5.21,5.81,6.39,.55,.23,.83,.82,.21,1.16-2.77,1.53-5.3,3.85-8.87,2.9-1.2-.32-2.09-.62-.95-2.15,1.78-2.39,2.61-5.29,3.8-8.3Z"/>
  <path class="cls-7" d="M218.63,157.77c-2.5-3.04-5.21-5.76-8.45-8.54,3.2-.65,5.87-1.69,8.72-3.12-.08,4.09-.4,7.81-.27,11.66Z"/>
  <path class="cls-7" d="M124.67,136.43c1.24,2.26,2.31,4.27,3.45,6.25,.36,.62,.51,1.07-.28,1.38-2.04,.81-3.88,2.09-6.06,2.54-1.05,.22-1.71-.02-1.35-1.3,.88-3.16,2.08-6.16,4.24-8.88Z"/>
  <path class="cls-7" d="M219.71,152.85c.12-1.96,.23-3.57,.33-5.18,.09-1.47,.23-2.08,2.07-1.17,2.65,1.3,2.96,3.04,2.14,5.47-.08,.24-.12,.49-.19,.74-.6,2.3-1.43,5.67-3.4,5.58-1.62-.07-.46-3.76-.96-5.44Z"/>
  <path class="cls-7" d="M157.75,144.31c-2.11,.82-4,2.13-6.23,2.65-.66,.15-1.42,.43-1.84-.24-.31-.5,.22-.99,.46-1.51,1.12-2.42,1.44-5.18,2.97-7.45,.54-.28,1.03-1,1.54,.16,.96,2.17,2.06,4.27,3.09,6.4Z"/>
  <path class="cls-8" d="M110.47,130.44c-.07,.32-.15,.64-.22,.97-.06,.18-.12,.37-.18,.55-.32,2.06-.65,4.13-1.01,6.4-1.47-2.92-3.25-5.44-4.51-8.28-.64-1.44-.27-2.08,1.02-2.45,.89-.26,1.81-.44,2.73-.54,2.94-.31,3.06-.15,2.42,2.67-.08,.23-.16,.46-.24,.68Z"/>
  <path class="cls-7" d="M183.07,137.72c.84-.08,.84,.53,1.06,.96,.8,1.59,1.61,3.18,2.46,4.75,.33,.62,.81,1.11-.2,1.59-1.83,.89-3.58,1.94-5.59,2.41-.68,.16-1.61,.32-1.36-.75,.67-2.88,1.24-5.83,2.97-8.33,.19-.27,.47-.46,.65-.63Z"/>
  <path class="cls-7" d="M169.95,134.6c-1.55,.18-.75,1.71-1.57,2.67-.99-2.45-1.94-4.78-2.86-7.11-.34-.86,.42-1.21,.92-1.58,1.74-1.29,3.77-1.25,5.79-1.19-.08,.34-.16,.68-.24,1.02-.26,.35-.67,.7,.01,1.04,0,0,0,0,0,0-.9-.47-.77,.37-.99,.78-.56,.85-.98,1.76-1.09,2.79-.24,.52-.92,1.06,.04,1.55v.02Z"/>
  <path class="cls-8" d="M138.83,136.68c-.69-1.92-1.18-3.94-2.11-5.72-.94-1.8-.35-2.7,1.22-3.34,1.62-.66,3.27-1.52,4.88,.06-1.22,1.6-2,3.4-2.46,5.35-.13,.52-.86,1.05,.03,1.55,0,0-.02,.03-.02,.03-1.11,.25-.87,1.22-1.03,1.97-.17,.03-.34,.06-.51,.1Z"/>
  <path class="cls-7" d="M197.82,138.01c-1.05-2.65-1.91-4.85-2.8-7.04-.38-.93,.15-1.41,.8-1.91,1.69-1.28,3.59-1.31,5.77-1.13-1.54,3.18-2.86,6.3-3.77,10.07Z"/>
  <path class="cls-1" d="M281.65,111.27c-.01,.22-.02,.45-.04,.67-1.87,.21-3.74,.36-5.6-.04-.03-.41-.02-.86-.61-.87-.63-1.34-2.08-1.67-3.08-2.55-.53-.46-1.51-.7-.7-1.73,.57-.73,1.09-1.25,2.11-.73,2.18,1.11,4.5,1.96,6.13,3.93,.48,.58,.94,1.23,1.79,1.33Z"/>
  <path class="cls-7" d="M159.48,157.57c-1.84-.36-2.35-1.68-2.37-3.34-.03-2.13,.19-4.3-.13-6.39-.28-1.84,.45-2.51,1.97-2.88,.65,.51,.95,1.13,.71,1.99-.96,3.52,.12,7.09-.18,10.62Z"/>
  <path class="cls-7" d="M99.7,156.62c-1.39-1.37-1.99-2.3-1.82-3.77,.23-1.95-.23-3.89-.6-5.8-.14-.75-.54-1.57,.51-1.91,.92-.29,1.75-1.43,2.76-.82,1.24,.74,.21,1.84,.03,2.75-.57,3-.78,6.03-.89,9.55Z"/>
  <path class="cls-8" d="M188.3,157.58c-3.39-2.44-1.62-5.95-2.67-8.69-.7-1.83,.3-2.43,1.63-3,1.44-.61,1.9-.01,1.67,1.38-.55,3.32-.75,6.68-.64,10.31Z"/>
  <path class="cls-3" d="M267.89,108.91c-.43-.3-.78-.05-1.16,.14-.89,.44-2.13,1.83-2.55,1.23-.85-1.21-1.59-2.74-1.41-4.44,.08-.8,.42-1.12,1.14-.86,2.16,.78,4.39,.1,6.66,.38,0,1.92-2.59,1.82-2.7,3.57,0,0,.02-.02,.02-.02Z"/>
  <path class="cls-7" d="M129.03,156.74c-1.35-1.15-2.01-2.12-1.9-3.52,.16-1.88-.11-3.72-.52-5.55-.2-.91-.2-1.71,.81-2.1,.82-.32,1.56-1.34,2.5-.69,.91,.63,.2,1.58,.02,2.34-.71,2.99-1.02,6.01-.92,9.52Z"/>
  <path class="cls-8" d="M253.33,152.18c0,.58,.17,1.27-.49,1.59-.74,.35-1.3-.11-1.73-.66-.92-1.18-1.56-2.56-2.79-3.53-.59-.46-.37-1.28,.3-1.38,1.41-.22,2.11-2.38,3.39-1.76,1.18,.58,.83,2.41,1.05,3.71,.12,.67,.18,1.35,.27,2.02Z"/>
  <path class="cls-8" d="M224.59,131.77c2.1,.55,3.69,.96,5.28,1.37,.66,.17,.72,.53,.47,1.12-.78,1.79-.75,3.78-1.33,6.38-1.58-3.17-2.88-5.77-4.42-8.87Z"/>
  <path class="cls-7" d="M205.77,164.31c-.22,.7,.02,2.11-1.43,.96-1.19-.77-2.38-1.54-3.57-2.31-1.71-1.88-.12-3.9-.24-5.84,.17,.02,.35,.03,.52,.05,.24,.45,.04,1.44,1.09,.94,0,0-.02,.08-.02,.08-.87,.86-.18,1.2,.51,1.54,0,0-.01-.02-.01-.02-.09,.43-.16,.84,.51,.51,0,0,.02,.03,.02,.03-.6,.72-.29,.99,.5,1.01,0,0,0,0,0,0-.16,1.18,.07,2.08,1.52,2.05,0,0,.01,.02,.01,.02-.71,.79-.14,.92,.51,1.02l.08-.02Z"/>
  <path class="cls-7" d="M156.04,153.25c-1.72-1.7-3.24-3.22-4.76-4.72,.12-.18,.18-.38,.3-.42,4.88-1.55,4.94-1.48,4.46,5.14Z"/>
  <path class="cls-13" d="M159.54,157.58c.3-3.54-.78-7.11,.18-10.63,.23-.86-.06-1.48-.71-1.99,.26-.24,.53-.49,.79-.73,1.62,1.34,3.48,1.87,5.56,1.65,0,.32,0,.65,0,.97-.25,.05-.49,.15-.74,.16-4.02,.14-4.05,.13-4.34,4.31-.14,2.12-.15,4.25-.22,6.37-.17-.04-.35-.07-.52-.11Z"/>
  <path class="cls-7" d="M90.98,146.81c5.6-.98,5.64-.93,5.89,5.8-1.89-2.14-3.39-4.09-5.89-5.8Z"/>
  <path class="cls-7" d="M255.33,124.83c2.52-1.87,4.28-2.01,5.96,.16,.63,.82,1.65,1.33,2.77,2.2-1.39,.33-2.4,1.01-3.63,1.86-.34-2.89-1.86-4.35-5.1-4.22Z"/>
  <path class="cls-8" d="M258.18,122.02c-.58,.28-1.04,.5-1.49,.72-1.31,.62-2.57,1.29-2.28-1.24,.08-.68-.45-1.43-.7-2.14-.23-.65-.9-1.23,.3-1.81,1.15-.56,1.47,0,1.92,.8,.67,1.17,1.41,2.31,2.26,3.69Z"/>
  <path class="cls-7" d="M255.89,150.34c0,.94,.01,1.87,0,2.81,0,.5-.02,1.13-.67,1.15-.54,.02-.89-.37-.89-1,0-2.05-.14-4.07-.63-6.08-.22-.87,.38-1.18,1.16-1.29,.89-.12,.95,.46,.96,1.09,.01,1.11,0,2.21,0,3.32,.03,0,.06,0,.08,0Z"/>
  <path class="cls-7" d="M180.65,149.01c3.85-2.02,3.94-1.93,4.24,3.79-1.14,0-1.4-1.1-2.05-1.68-.7-.61-1.34-1.29-2.18-2.11Z"/>
  <path class="cls-7" d="M228.52,131.64c-1.78-.69-3.51-.74-4.81-1.91-.42-.38-.86-.93-.63-1.55,.23-.61,.86-.22,1.31-.32,2.76-.59,3.64,1.15,4.14,3.78Z"/>
  <path class="cls-7" d="M125.52,152.18c-.74-.85-1.52-1.68-2.21-2.57-.43-.56-1.61-1.04-1.13-1.71,.44-.61,1.58-.95,2.43-.98,1.2-.04,.89,1.2,1.06,1.93,.22,.97,.29,1.98,.43,2.97-.19,.12-.39,.24-.58,.35Z"/>
  <path class="cls-7" d="M239.97,152.18c0,.26,0,.52,0,.78-1.26-.16-1.01,.79-1.11,1.5-.13,.89,.55,1.78-.25,3.2-.56-2.79-1.06-5.12-1.49-7.46-.08-.45,.24-.85,.73-.84,.45,0,.72,.35,.91,.77,.33,.72-.39,2.09,1.21,2.05Z"/>
  <path class="cls-7" d="M211.18,137.65c.15-2.07,.29-3.97,.45-6.21q2.4,3.8-.45,6.21Z"/>
  <path class="cls-7" d="M276.54,157.12c0-1.08-.06-1.93,.02-2.76,.05-.59-.38-1.43,.51-1.72,.8-.26,1.16,.5,1.65,.93,.58,.5,.85,1.09,.29,1.74-.68,.77-1.03,2.03-2.47,1.82Z"/>
  <path class="cls-7" d="M91.89,136.18c.57-1.95,1.02-3.52,1.55-5.33,2.31,3.8,2.26,3.97-1.55,5.33Z"/>
  <path class="cls-7" d="M79.57,145.25q3.79,.12,2.74,4.87c-.97-1.72-1.83-3.25-2.74-4.87Z"/>
  <path class="cls-7" d="M83.55,155.66c.75,1.63,1.27,2.73,1.76,3.84,.22,.5,.81,.98,.35,1.58-.3,.39-.78,.14-1.16,0-.62-.25-1.25-.47-1.17-1.38,.1-1.13,.13-2.27,.22-4.02Z"/>
  <path class="cls-11" d="M241.27,90.92c.51-.92,1.16-.45,1.7-.11,1.57,.99,3.1,2.03,4.63,3.08,.31,.21,.83,.48,.55,.93-.25,.4-.77,.17-1.18,.09-1.9-1.33-3.81-2.66-5.71-3.99Z"/>
  <path class="cls-7" d="M230.14,121.71c1.2,.66,2.33,1.29,3.57,1.98q-3.54,1.52-3.57-1.98Z"/>
  <path class="cls-13" d="M140.36,133.02c.46-1.95,1.24-3.75,2.46-5.35,.2,.24,.4,.48,.6,.72-.68,1.54-1.37,3.08-2.05,4.62-.34,0-.67,0-1.01,0Z"/>
  <path class="cls-7" d="M172.16,155.55c1.1,1,1.81,2.17,2.27,3.63-3.87,.68-2.02-2.19-2.27-3.63Z"/>
  <path class="cls-13" d="M241.27,90.92c1.9,1.33,3.81,2.66,5.71,3.99-.11,.2-.21,.39-.32,.59-2.15-1.51-4.3-3.02-6.46-4.54,.36-.01,.71-.03,1.07-.04Z"/>
  <path class="cls-3" d="M267.45,91.73c-2.77,.28-5.54,.18-8.31,.05,2.77-.8,5.54-1.23,8.31-.05Z"/>
  <path class="cls-7" d="M142.65,158.03c.88,1.72,1.44,2.81,2,3.92-2.42,.86-2.52-.17-2-3.92Z"/>
  <path class="cls-7" d="M123.06,171.31c-.23,0-.46,.01-.68,.02-.06-1.21-1.19-1.84-1.52-2.9,.14-.12,.27-.25,.41-.37,.9,.91,3.78,.72,1.8,3.25Z"/>
  <path class="cls-7" d="M254.58,158.69c-.84-1.1-1.39-2.15-1.75-3.37q2.69-.1,1.75,3.37Z"/>
  <path class="cls-7" d="M113.54,157.86c.88,1.76,1.46,2.93,2.11,4.22q-2.7-.54-2.11-4.22Z"/>
  <path class="cls-12" d="M226.03,81.64c.34-.33,.68-.67,1.02-1,1.22,.76,2.44,1.53,3.8,2.38-1.49,1.21-2.16-1.01-3.29-.34,0,0,.02,.04,.02,.04,.04-1.17-.7-1.21-1.55-1.08Z"/>
  <path class="cls-7" d="M165.05,128.23c-.99-.01-1.56-.44-1.31-.89,.56-1,1.92-.61,2.77-1.27,.37-.28,.61,.49,.55,.54-.73,.64-1.51,1.22-2.02,1.62Z"/>
  <path class="cls-7" d="M135.39,127.61c-.5,.14-1-.09-.96-.5,.14-1.52,1.85-.68,2.52-1.56,.17-.23,.79,.11,.7,.4-.34,1.06-1.32,1.36-2.26,1.66Z"/>
  <path class="cls-8" d="M108.19,118.96c-.29,.53-.22,1.48-1.04,1.51-.71,.03-.79-.78-.88-1.35-.1-.65,.29-.94,.89-.95,.51,0,1.07-.04,1.03,.79Z"/>
  <path class="cls-7" d="M196.37,126.77c-.49,1.07-1.24,1.74-2.34,1.84-.13,.01-.52-.65-.45-.77,.63-.96,1.71-.97,2.78-1.07Z"/>
  <path class="cls-7" d="M123.17,136.18c-.23-1.36-.04-2.4,.66-3.96,.08,1.68,1.65,2.93-.66,3.96Z"/>
  <path class="cls-13" d="M133.23,145.37c1.01-.02,2.03-.04,3.04-.06,0,.34,.02,.67,.02,1.01-1.19,.23-2.39,.47-3.56-.08,.17-.29,.33-.58,.5-.87Z"/>
  <path class="cls-7" d="M151.01,168.98c.08,0,.18-.03,.25,0,.69,.38,1.62,.51,1.73,1.5,.01,.12-.52,.46-.78,.45-1.33-.07-1.28-1.02-1.16-1.99l-.03,.04Z"/>
  <path class="cls-3" d="M259.01,91.82c-.67,2.1-2.3,.75-3.5,.99,1.09-.62,2.27-.87,3.5-.99Z"/>
  <path class="cls-13" d="M152.64,126.1c-1.47,.89-1.04-.82-1.59-1.18,0-.34,.02-.68,.03-1.02,.34-.02,.69-.05,1.03-.07,.02,.44,.17,.81,.59,1.02-.02,.42-.04,.84-.05,1.25Z"/>
  <path class="cls-4" d="M226.07,97.51c-.03,.29-.05,.59-.08,.88-.65-.01-1.3-.02-1.95-.03,0-.38-.01-.77-.02-1.15,.33,.04,.67,.08,1,.12,.19,.26,.42,.28,.68,.13,.14-.06,.26-.04,.37,.05Z"/>
  <path class="cls-13" d="M278.02,136.71c-.62-.37-1.05-.84-.87-1.64,1.05,.13,.92,.91,.87,1.64Z"/>
  <path class="cls-13" d="M110.35,138.91c.38,.73,.25,1.52,.22,2.29-.5-.72-.25-1.52-.22-2.29Z"/>
  <path class="cls-13" d="M171.99,128.4c.08-.34,.16-.68,.24-1.02,.18,.5,.36,1,.54,1.5,0,0-.02,.01-.02,0-.26-.16-.52-.32-.77-.48Z"/>
  <path class="cls-13" d="M110.36,135.8c.36,.55,.32,1.09,0,1.64,0-.55,0-1.09,0-1.64Z"/>
  <path class="cls-13" d="M138.83,136.68c.17-.03,.34-.06,.51-.1-.1,.4-.26,.5-.51,.1Z"/>
  <path class="cls-13" d="M200.02,163.7c-.16,.06-.32,.12-.48,.17,.08-.3,.21-.43,.48-.17Z"/>
  <path class="cls-13" d="M198.91,162.62c-.32-.35-.13-.68,.04-1-.01,.33-.03,.67-.04,1Z"/>
  <path class="cls-13" d="M121.29,168.08c-.14,.12-.27,.25-.41,.37-.3-.6,.16-.38,.41-.37Z"/>
  <path class="cls-10" d="M151.11,168.96c-.08-.02-.15-.03-.23-.05,.07,.03,.13,.06,.2,.08,0,0,.03-.04,.03-.04Z"/>
  <path class="cls-13" d="M190.73,168.89c-.13-.11-.13-.23-.02-.36,.12,.11,.13,.23,.02,.36Z"/>
  <path class="cls-13" d="M191.66,169.52c.11,.16,.11,.31,0,.46-.04-.11-.1-.22-.13-.33,0-.03,.08-.09,.13-.13Z"/>
  <path class="cls-13" d="M170.75,159.17c.03-.26,.06-.51,.08-.77-.03,.26-.06,.51-.08,.77Z"/>
  <path class="cls-13" d="M278.49,140.9c-.04-.13-.1-.26-.12-.39-.01-.06,.05-.13,.08-.19,.02,.2,.03,.39,.05,.59Z"/>
  <path class="cls-8" d="M89.72,104.12c-.28-.06-.55-.12-.83-.18,.28,.06,.55,.12,.83,.18Z"/>
  <path class="cls-13" d="M110.08,131.95c.06-.18,.12-.37,.18-.55-.06,.18-.12,.37-.18,.55Z"/>
  <path class="cls-8" d="M92.62,104.7c-.22-.08-.44-.15-.66-.23,.22,.08,.44,.15,.66,.23Z"/>
  <path class="cls-8" d="M124.36,111.58c.23,.03,.45,.06,.68,.1-.23-.03-.45-.06-.68-.1Z"/>
  <path class="cls-13" d="M110.47,130.44c.08-.23,.16-.46,.24-.68-.08,.23-.16,.46-.24,.68Z"/>
  <path class="cls-13" d="M201.05,157.17c-.17-.02-.35-.03-.52-.05,.21-.37,.38-.33,.52,.05Z"/>
  <path class="cls-13" d="M318.05,142.08c-5.95-3.94-11.9-7.88-17.85-11.82,.13-.14,.25-.28,.38-.42,2.79,1.71,5.55,3.46,8.36,5.12,1.79,1.05,3.22,2.7,5.34,3.2,0,0-.02-.02-.02-.02,.94,1.14,1.84,2.35,3.59,2.06,0,0,0,0,0,0-.67,.84,.48,.93,.59,1.44-.13,.14-.25,.29-.38,.43Z"/>
  <path class="cls-13" d="M300.2,130.26c-4.51-2.99-9.03-5.99-13.54-8.98,.12-.14,.25-.27,.37-.41,3.05,1.92,6.09,3.86,9.17,5.75,.67,.41,1.22,1.42,2.27,.74,0,0,0,0,0,0,.05,1.13,.4,1.36,1.53,1.03,0,0,0,0,0,0-.72,.86,.49,.93,.58,1.45-.13,.14-.25,.28-.38,.42Z"/>
  <path class="cls-13" d="M337.95,154.89c-4.55-2.72-9.1-5.43-13.29-8.7,.13-.14,.26-.28,.39-.42,.93,.55,1.86,1.1,2.78,1.66,2.59,1.59,4.76,3.91,7.87,4.59,0,0-.02-.02-.02-.02,.19,.84,.77,1.09,1.55,1.05,0,0-.03-.03-.03-.03-.06,.84,.89,.84,1.15,1.42-.13,.15-.27,.29-.4,.44Z"/>
  <path class="cls-2" d="M281.97,116.06c1.53,1.29,3.5,1.98,4.78,3.6-1.85,.78-2.5-1.74-4.14-1.52,0,0,.03,.03,.03,.03-.18-.86-.81-1.05-1.56-1.06,0,0,.03,.03,.03,.03-.19-.34-.37-.69-.56-1.03,.47-.02,.95-.03,1.42-.05Z"/>
  <path class="cls-13" d="M341.8,156.12c-.14,.84,1.13,.77,1.02,1.6-2.03-.23-3.27-1.84-4.87-2.82,.13-.15,.27-.29,.4-.44,.89-.07,1.36,1.47,2.44,.64,0,0,0,0,0,0-.29,.98,.32,1.06,1.03,1.04l-.02-.02Z"/>
  <path class="cls-13" d="M282.61,118.14c1.64-.21,2.29,2.3,4.14,1.52,0,0-.01,0-.01,0-.79,.63,.17,.82,.3,1.22-.12,.14-.25,.27-.37,.41-1.48-.88-3.25-1.38-4.05-3.14Z"/>
  <path class="cls-13" d="M323.14,145.22c-1.7-1.05-3.39-2.1-5.09-3.14,.13-.14,.25-.29,.38-.43,1.92,.66,3.6,1.72,5.1,3.08-.13,.17-.26,.33-.4,.5Z"/>
  <path class="cls-13" d="M280.55,116.1c.19,.34,.37,.69,.56,1.03-.43,.47-.77,.03-1.03-.18-.33-.28-1.2-.32-.84-.97,.31-.56,.85,.16,1.31,.12Z"/>
  <path class="cls-13" d="M324.66,146.19c-.51-.32-1.01-.65-1.52-.97,.13-.17,.26-.33,.4-.5,.61,.2,1.19,.43,1.51,1.05-.13,.14-.26,.28-.39,.42Z"/>
  <path class="cls-13" d="M281.08,117.11c.75,0,1.38,.2,1.56,1.06-.93,.26-1.47-.06-1.56-1.06Z"/>
  <path class="cls-9" d="M224.64,61.16c1.16,1.56,1.17,6.58,.01,8.14,0-2.71,0-5.43-.01-8.14Z"/>
  <path class="cls-4" d="M304.41,86.31c.84-.41,1.34-.36,1.76,.17-.58,.74-1.11,.45-1.76-.17Z"/>
  <path class="cls-4" d="M304.24,86c-.08,.78-.6,.79-.95,.9-.35,.11-.61-.13-.48-.56,.1-.34,.27-.65,.69-.59,.28,.04,.56,.18,.74,.24Z"/>
  <path class="cls-11" d="M225.7,97.46c-.26,.15-.49,.13-.68-.13,.23,.04,.45,.09,.68,.13Z"/>
  <path class="cls-5" d="M284.43,115.76c2.34-.11,3.95-2.26,6.33-2.26,1.99,2.05-.46,3.9-.3,5.89,.05,.66-.8,.33-1.19,.05-1.63-1.21-3.23-2.45-4.84-3.68Z"/>
  <path class="cls-2" d="M325.05,145.77c-.32-.62-.9-.85-1.51-1.05-1.5-1.36-3.19-2.42-5.1-3.08-.11-.52-1.26-.6-.59-1.44,5.47,2.32,9.95,6.26,14.87,9.47,1.02,.66,2.91,.43,2.99,2.36-3.11-.68-5.28-3-7.87-4.59-.92-.56-1.85-1.11-2.78-1.66Z"/>
  <path class="cls-2" d="M300.58,129.84c-.1-.52-1.3-.59-.58-1.45,5.03,2.69,9.77,5.83,14.39,9.18,.27,.19,.08,.42-.11,.59-2.11-.5-3.55-2.15-5.34-3.2-2.82-1.66-5.58-3.41-8.36-5.12Z"/>
  <path class="cls-2" d="M287.03,120.87c-.13-.4-1.09-.59-.3-1.22,4.04,2.37,8.28,4.43,11.73,7.71-1.05,.68-1.59-.32-2.27-.74-3.07-1.89-6.11-3.83-9.17-5.75Z"/>
  <path class="cls-2" d="M317.85,140.2c-1.75,.29-2.65-.92-3.59-2.06,1.73-.26,2.59,1.02,3.59,2.06Z"/>
  <path class="cls-11" d="M340.79,155.09c-1.08,.83-1.55-.71-2.44-.64-.26-.58-1.21-.58-1.15-1.42,1.74-.28,2.54,1.11,3.59,2.06Z"/>
  <path class="cls-11" d="M337.23,153.06c-.78,.04-1.36-.21-1.55-1.05,.98-.34,1.58-.11,1.55,1.05Z"/>
  <path class="cls-11" d="M299.99,128.38c-1.14,.33-1.48,.1-1.53-1.03,.78-.07,1.28,.3,1.53,1.03Z"/>
  <path class="cls-11" d="M341.82,156.13c-.71,.02-1.31-.06-1.03-1.04,.62,.07,1.32,.06,1.03,1.04Z"/>
  <path class="cls-13" d="M182.01,98.26c-.37,.34-.67,.1-.98-.11,.33,.04,.65,.07,.98,.11Z"/>
  <path class="cls-14" d="M202.63,159.73c-.68-.34-1.38-.68-.51-1.54,1.02,.23,1.16,.75,.51,1.54Z"/>
  <path class="cls-14" d="M203.64,161.25c-.8-.02-1.1-.29-.5-1.01,.79,.02,.97,.36,.5,1.01Z"/>
  <path class="cls-14" d="M205.68,164.34c-.65-.1-1.22-.23-.51-1.02,.83,0,1.05,.32,.51,1.02Z"/>
  <path class="cls-8" d="M182.47,167.94s.15,.11,.15,.11c-.34,.42-1.04,.59-.93,1.34-.57,2-2,2.56-3.89,2.38-.17-.02-.34-.01-.5-.03-2.05-.2-4.19-.66-5.67-1.93-1.68-1.44,.15-3.62-.19-5.46,.06-.41,.03-.86,.19-1.23,.39-.89-.45-2.46,1.17-2.63,1.48-.16,3.04-.13,3.62,1.79,.12,.38,.43,.71,.65,1.06,1.3,1.6,2.58,3.22,3.92,4.78,.47,.54,1.1,.91,1.48-.17Z"/>
  <path class="cls-13" d="M157.81,144.3c-1.04-2.13-2.14-4.24-3.1-6.4-.51-1.16-1-.44-1.54-.16-1.03-1.62-1.51-.46-2.04,.41,.2-1.38,.39-2.75,.59-4.13,.92-1,1.84-1.12,2.76,0,1.26,3.17,2.43,6.38,4.4,9.21-.36,.36-.71,.72-1.07,1.08Z"/>
  <path class="cls-13" d="M120.97,171.56c.48-.07,.96-.14,1.43-.2,.23,0,.46-.01,.69-.02,.34,.08,.68,.16,1.02,.23-1.35,2.34-3.56,2.25-5.71,1.87-2.52-.44-4.62-1.86-6.6-3.43,.42-.03,.83-.08,1.03-.53,1.85,.95,3.5,2.35,5.62,2.72,.9,.16,2.01,.84,2.51-.65Z"/>
  <path class="cls-13" d="M170.52,164.24c.3,.04,.61,.07,.91,.11,.34,1.84-1.49,4.02,.19,5.46,1.49,1.27,3.63,1.73,5.67,1.93,.17,.02,.34,.01,.5,.03,1.89,.18,3.32-.38,3.89-2.38,.81,.09,1.59,.23,2.01,1.05-.38-.04-.89-.46-1.13,.03-1.67,3.34-4.44,2.77-7.24,2.13-.33-.07-.69-.09-.97-.25-2.58-1.5-4.67-1.8-6.51,1.37-.95,1.64-3.02,1.58-4.74,.49,.24-.21,.49-.43,.73-.64,2.44,.51,3.63-.94,4.8-2.8,1.28-2.04,1.19-4.38,1.88-6.53Z"/>
  <path class="cls-13" d="M166.37,97.45c-.16-.3-.33-.59-.49-.89,5.55-.99,11.03-.89,16.4,.98-.56,.09-1.21-.08-1.62,.51-4.73-.91-9.5-.97-14.29-.6Z"/>
  <path class="cls-13" d="M186.75,98.59c.16,.28,.32,.55,.47,.83l-.15-.03-.02,.15c-1.04-.48-2.07-.7-3.06,.11-.62-.4-1.23-.8-1.85-1.2,.33-.21,.65-.41,.98-.62,1.28-.08,2.25,1.33,3.63,.77Z"/>
  <path class="cls-13" d="M145.7,171.53c.87,0,1.74,0,2.61,0,.62,1.64-.78,1.07-1.33,1.08-.54,0-1.96,.55-1.28-1.09Z"/>
  <path class="cls-8" d="M120.97,171.56c-.51,1.49-1.62,.81-2.51,.65-2.12-.37-3.77-1.77-5.62-2.72-1.21-2.09,.05-4.12,.28-6.14,.1-.91,1.11-.3,1.68-.06,2.4,1.02,3.8,2.99,4.87,5.26,.47,.99,.88,2.01,1.31,3.01Z"/>
  <path class="cls-13" d="M182.47,167.94c-.37,1.08-1.01,.71-1.48,.17-1.35-1.56-2.62-3.18-3.92-4.78,.45-.2,.5-.61,.53-1.03,2.17,1.4,2.84,4.12,4.87,5.64Z"/>
  <path class="cls-13" d="M200.77,162.96c1.19,.77,2.38,1.54,3.57,2.31-.24,.21-.49,.42-.73,.63-1.11-.53-2.22-1.05-3.08-1.98l.24-.96Z"/>
  <path class="cls-14" d="M205.16,163.29c-1.45,.03-1.68-.86-1.52-2.05,1.18,.17,1.58,.94,1.52,2.05Z"/>
  <path class="cls-14" d="M203.12,160.21c-.67,.34-.59-.08-.51-.51,.2,.02,.4,.05,.6,.07-.03,.14-.06,.29-.1,.43Z"/>
  <path class="cls-14" d="M289.35,157.87c-.97,2.08-1.36,3.93-.1,6.3,1.33,2.5-.4,6.77-2.62,8.44-.76,.57-1.21,.55-1.27-.53,1.91-1.79,3.39-3.79,3.02-6.63-.4-3.06-.97-3.32-3.47-1.6-.63,.43-1.24,.88-1.9,1.26-2.14,1.22-4.45,2.3-3.01,5.54,.14,.31-.33,.9-.52,1.36-4.25,3.01-8.52,2.32-12.56-.27-2.23-1.43-3.65-1.49-6.2-.06-3.73,2.1-8.21,2.41-12.38,.4-.83-.4-1.36-.63-2.27-.13-4.41,2.42-8.84,2.72-13.15-.26-.96-.67-1.57-.03-2.28,.39-2.26,1.37-4.59,1.82-6.95,.37-.79-.49-1.35-.25-2.1,.03-2.97,1.11-5.8,.86-8.35-1.2-.58-.81-1.42-.78-2.27-.73-.22-1-1.18-1.13-1.87-1.56-1.79-1.12-3.89-1.66-5.51-3.09,.25-.21,.49-.42,.73-.63,1.45,1.15,1.2-.26,1.43-.96,1.66-.61,2.08,.99,2.88,1.74,2.52,2.39,5.11,4.66,8.54,5.55,3.4,.88,5.66-1.09,4.69-4.38-1.47-4.93-4.4-9.11-7.89-12.82-2.84-3.03-5.75-5.92-10.32-6.39-1.9-.2-2.42,.4-2.71,1.96-.19,1.03-.06,2.02,.01,3.04,.12,1.77,1.34,3.26,1.17,5.08-1.05,.5-.84-.49-1.09-.94-.14-.38-.31-.43-.52-.05,.12,1.95-1.47,3.96,.24,5.84l-.24,.96c-.17-.07-.33-.15-.5-.22-.27-.25-.41-.12-.48,.17h0c-.33-.08-.66-.15-.99-.21,.12-.35,.24-.69,.36-1.04,.01-.33,.03-.67,.04-1,.09-.93,.19-1.86,.27-2.79,.32-3.75,.48-7.49-.5-11.18-.28-1.04-.56-1.8-1.84-.96-1.59,1.05-3.42,1.05-5.16,.68-1.26-.27-1.66,0-1.8,1.23-.61,5.29-.9,10.54,.99,15.67,.61,1.67,1.05,3.42,.74,5.25-.05,.05-.14,.1-.13,.13,.02,.11,.08,.22,.13,.33,.19,.62,.76,.77,1.25,1.01-.8,1.42-2.29-.81-3.09,.6-2.2,.48-4.23,.08-6.11-1.15-.43-.83-1.21-.96-2.01-1.05-.11-.74,.59-.92,.93-1.34,1.69,1.51,3.65,2.29,5.91,2.29,1.05,0,2.05-.06,2.19-1.45,.11-.13,.11-.24-.02-.36-1.32-7.83-5.41-14.03-11.31-19.1-1.74-1.5-4.43-2.51-6.01-1.6-1.2,.69-.66,3.77,.09,5.75,.36,.95,.72,1.91,1.16,2.82,.96,1.98,1.96,3.94,2.95,5.91-.03,.42-.08,.83-.53,1.03-.22-.35-.53-.68-.65-1.06-.58-1.91-2.15-1.94-3.62-1.79-1.62,.17-.79,1.74-1.17,2.63-.16,.37-.13,.82-.19,1.23-.3-.04-.61-.07-.91-.11,.08-1.69,.15-3.38,.23-5.07,.03-.26,.06-.51,.08-.77-.56-2.65,.04-5.41-.76-8.06-.39-1.29-.26-2.87-.97-3.89-1.18-1.67-2.39,.92-3.75,.4,0-.32,0-.65,0-.97,1.74-.71,3.52-1.24,2.92-3.89-1.17-5.15-2.96-10.02-5.83-14.46-.28-.43-.57-.86-1.11-.96-2.9-.5-5.63-1.84-8.64-1.72-.42-.21-.57-.57-.59-1.02,1.37-.33,2.69-.06,4.02,.26,2.14,.52,4.27,1.11,6.43,1.54,1.13,.22,2.69,.52,3.15-.83,.7-2.06,.74-4.35-.88-6.06-6.6-6.93-16.57-6.6-22.67-2.84-2.61,1.61-4.26,3.77-4.05,7.13,.12,1.91,.83,2.36,2.68,2.41,3.55,.09,6.8-1.41,10.28-1.54,0,.34-.02,.68-.03,1.02-2.66,.89-6.06,.15-7.63,3.48-.2-.24-.4-.48-.6-.72-1.61-1.57-3.27-.71-4.88-.06-1.57,.64-2.16,1.54-1.22,3.34,.93,1.79,1.43,3.8,2.11,5.72,.25,.4,.41,.3,.51-.1,.16-.75-.08-1.72,1.03-1.97,.71,1.14-.02,2.23-.18,3.32-.75,5.08,.33,6.71,5.23,8.04,1.66,.45,2.62-.2,3.22-1.59,.88-2.05,1.66-4.15,2.49-6.22,.53-.87,1.01-2.03,2.04-.41-1.53,2.28-1.85,5.03-2.97,7.46-.24,.52-.77,1.01-.46,1.51,.42,.67,1.18,.4,1.84,.24,2.23-.52,4.13-1.84,6.24-2.65,.36-.36,.71-.72,1.07-1.08,.31,.33,.61,.67,.92,1-.26,.24-.53,.49-.79,.73-1.51,.37-2.25,1.04-1.97,2.88,.32,2.09,.11,4.26,.13,6.4,.02,1.66,.53,2.98,2.37,3.35,.17,.04,.35,.07,.52,.11,.4,5.01,3.14,9.57,2.85,14.73-.02,.36,.61,.76,.93,1.15-.24,.21-.49,.43-.73,.64-3.99-1.25-7.77-3.68-12.28-1.85-.6,.24-2.37,1.27-2.6-.86,.67-.17,1.71,.02,1.29-1.26-.9-2.73-2.32-5.13-4.86-6.59-.59-.34-1.59-.88-2.29,.06-2.29,3.1-.52,7.14,3.4,7.79,.11,1.46-.69,1.1-1.48,.76-.3-.06-.6-.11-.9-.17-1.83-1.27-3.35-.74-5.3,.2-3.84,1.87-7.75,.74-11.41-1.02-1.03-.49-1.82-.8-2.57,.3-.34-.08-.68-.16-1.02-.23,1.98-2.53-.9-2.34-1.8-3.25-.25,0-.7-.23-.41,.37,.33,1.06,1.46,1.7,1.53,2.9-.48,.07-.96,.14-1.43,.2-.44-1.01-.85-2.02-1.31-3.01-1.07-2.27-2.47-4.25-4.87-5.26-.56-.24-1.57-.85-1.68,.06-.23,2.02-1.49,4.05-.28,6.14-.21,.45-.62,.5-1.03,.53-.42,.12-.84,.25-1.26,.37-.21-.26-.43-.53-.64-.79,.43-.51,1.09-.82,1.23-1.58,1.3-7.29,1.66-14.57-.2-21.84-.38-1.5-1.01-1.62-2.29-.87-1.34,.78-2.97,1.05-4.44,.65-1.92-.53-2.25,.36-2.58,1.94-1.2,5.84-1.04,11.51,1.5,17-.34,0-.67,0-1.01,0-2.64-6.73-6.38-12.71-11.85-17.48-1.33-1.16-2.4-3.13-4.71-1.97-2.12,1.07-1.71,3.11-1.78,4.93-.03,.67,.15,1.35,.27,2.02,.83,4.65,3.07,8.61,5.97,12.24-.37,.93,1.08,2-.21,2.87-1.09-1.29-2.06-2.72-3.29-3.85-2.62-2.38-3.17-2.18-4.35,1.17-.14,.4-.32,.79-.48,1.18-1.38,3.49-.28,5.46,3.45,6.14-.41,2.35-2.12,.97-2.5,.49-2.63-3.34-4.34-1.64-6.02,.88-.03,.04-.15,.02-.23,.03-.08-1.09,1.18-3.7,2.67-5.53,4.55-5.58,4.24-15.9-.52-21.4-.89-1.03-2.71-1.84-1.8-3.82,.38-.27,.43-.66,.37-1.08-.08-.16-.06-.31,.06-.44,.36-.16,.72-.33,1.08-.49-.9,2.41,.19,3.28,2.47,3.3,1.1,.01,2.21,.3,3.28,.19,1.22-.13,2.74-.08,3.41-1.29,2.79-5.01,5.1-10.18,4.98-16.16-.04-2.24-.63-2.92-2.8-2.14-1.34,.49-2.78,.83-4.2,.95-2.12,.18-3.17,1.25-3.39,3.3-.39-.03-.67-.21-.82-.59-.07-.74,.53-1.73-.89-1.91-1.87-.23-3.91-.62-4.2-2.88-.37-2.9,.47-5.55,2.81-7.52,.23-.2,.66-.16,.72-.58-.62-1.26-3.22-.38-2.87-2.69,3.34,.65,6.49,.44,9.9-.48,6.32-1.7,12.49-.79,17.63,3.85,1.91,1.72,4.79,1.24,6.1-1.09,.78-1.38,.87-2.53-.75-3.38-1.57-.82-3.06-1.78-4.64-2.58-3.93-1.99-7.92-3.82-12.36-4.37-.22-.08-.44-.15-.66-.23-.75-.12-1.49-.24-2.24-.36-.28-.06-.55-.12-.83-.18-3.91-.93-7.89-.55-11.84-.68,.03-.35,.06-.7,.08-1.05,0,0,0,0,0,0,5.11-.34,10.18,.07,15.18,1.12,1.23,.26,1.98,.23,2.18-1.18,.13-.92,1.34-1.3,1.26-2.44-6.26-1.06-12.48-2.69-18.72-.03,0-1.68,1.31-1.73,2.45-2.02,5.38-1.38,10.64-.15,15.88,.84,1.9,.36,3.62,.32,5.47-.11,7.38-1.7,14.86-3.56,22.38-1.74,3.47,.84,6.53,.55,9.85-.06,7.21-1.33,14.37-.92,21.36,1.42,.93,.31,1.78,.34,2.73,.11,1.81-.43,3.57-1.14,5.47-1.11,.22-.06,.44-.12,.66-.19,.86-.08,1.73-.17,2.59-.25,.16,.3,.33,.59,.49,.89-3.68,.57-7.35,1.23-10.9,2.38-2.53,.82-3.41,3.39-1.49,4.88,1.38,1.08,3.13,2.09,5.15,1.09,1.68-.84,3.5-1.2,5.34-1.56,5.27-1.01,10.46-.4,15.65,.54,.8,.15,1.8,.65,1.57-.91-.28-2.01,.91-3.16,2.3-4.23,.99-.81,2.02-.59,3.06-.11-.67,.9-1.82,.82-2.68,1.36-1.69,1.07-2.01,2.55-1.09,4.16,.46,.81,1.63,1.79,2.39,.38,2.73-5.05,7.21-4.97,11.92-4.42,3.22,.38,6.21,1.63,9.31,2.49,.58,.16,1.55,.96,1.78-.41,.25-1.48,1.52-2.16,2.33-3.22-7-3.52-15.83-4.46-23.78-.47-.16-.28-.32-.55-.47-.83,0,0,0,0,0,0,.18-.11,.35-.23,.53-.34,7.94-4.04,15.85-3.09,23.7,.22,1.47,.62,2.83,1,4.35,.44,.4,.12,.73,0,1.02-.29,.51-.06,1.01-.12,1.52-.17,.18-.02,.36-.04,.54-.06,.34-.03,.68-.07,1.01-.1,.16-.01,.32-.02,.48-.04,.66,0,1.33-.02,1.99-.03,.7,.3,1.43,.25,2.16,.14,.65,.01,1.3,.02,1.95,.03,3.06,.67,6.5,.66,9.08,2.16,4.78,2.77,7.2,.23,9.71-3.07,.69-.6,1.74-.84,1.88-1.98,.11-.2,.21-.39,.32-.59,.41,.08,.93,.31,1.18-.09,.28-.45-.24-.71-.55-.93-1.53-1.05-3.07-2.09-4.63-3.08-.54-.34-1.19-.81-1.7,.11-.36,.01-.71,.03-1.07,.04-2.18-.37-4.05,.87-6.09,1.2-1.82,.3-2.43,1.08-.54,2.36,.27,.18,.51,.45,.21,.82-.64,.35-1.04-.43-1.62-.34-.95-1.29-2.18-1.54-3.77-1.53-5.67,.04-11.11-.64-14.15-6.49-.16-.31-.28-.58-.68-.65-4.72-.82-7.47-4.21-9.79-7.96-1.28-2.07-2.76-4.6-1.05-6.91,1.65-2.23,4.38-1.82,6.84-1.26,1.23,.28,2.51,.53,3.63,1.08,1.68,.82,2.37,.66,2.43-1.41,.16-5.65-.16-11.28-.64-16.91-.92-10.75-3.15-21.27-5.58-31.75,.2,.02,.31-.07,.34-.27,.32,.09,.63,.17,.95,.26,.13,.75,.21,1.51,.39,2.25,3.67,14.98,6.16,30.14,5.6,45.62-.11,3.03,.91,4.53,3.31,5.77,3.95,2.04,3.92,2.1,4.56-2.41,.3,0,.61-.01,.91-.02,.08,1.07,.08,2.14-.25,3.18-.3,.86-.49,1.71,.19,2.5,4.46,4.5,9.59,4.41,15.34,2.9,4.15-1.09,8.57-.92,12.83,.42,3.62,1.13,6.36,3.23,7.86,6.74,.6,1.42,1.43,1.78,2.89,1.81,3.87,.07,7.18,1.44,9.04,5.12,.53,1.05,1.36,1.16,2.24,1.39,.45,.28,.85,.97,1.41,.16,.55-.09,1.09-.11,1.59,.21,.2,.06,.4,.12,.59,.18,.9,.05,1.73,.32,2.47,.85,.17,.07,.34,.14,.51,.21,.46,.24,.93,.48,1.39,.71l-.75,.75c-6-2.97-12.14-2.51-18.34-.78-.99,.28-1.78,.61-1.8,2.01-.04,2.52,.85,3.63,4,3.39,5.67-.42,10.46,1.28,14.52,5.23,.29,.59,.81,1.13,.45,1.88-.84-.1-1.31-.75-1.79-1.33-1.63-1.97-3.95-2.82-6.13-3.93-1.03-.52-1.55,0-2.11,.73-.81,1.04,.18,1.28,.7,1.73,1.01,.88,2.45,1.21,3.08,2.55-.97,.06-1.83-.2-2.59-.82-1.46-1.19-2.96-2.17-4.95-1.29,.11-1.75,2.69-1.64,2.7-3.57-2.27-.28-4.5,.4-6.66-.38-.72-.26-1.06,.06-1.14,.86-.18,1.7,.57,3.23,1.41,4.44,.42,.59,1.66-.8,2.55-1.23,.38-.19,.73-.44,1.16-.14,.04,1.24-1.06,1.53-1.81,1.87-1.93,.89-1.72,2.06-.92,3.65,1.27,2.52,3.24,4.35,5.49,5.89,3.97,2.73,8.01,5.36,12.01,8.04,.13,.93-1.08,1.16-1.04,2.04-1.56,.08-3.07,.29-4.84,1.5,.88,.05,1.26,.09,1.63,.1,6.8,.08,9.94,3.22,9.84,10.18-.03,2.01,.14,3.86,1.08,5.63,.05,.33,.1,.66,.16,.99,.1,.19,.21,.37,.31,.56,.1,.37,.2,.74,.3,1.11,.04,.36,.09,.71,.13,1.07-.32,0-.65,0-.97-.01-.55-1.53-.54-3.31-1.81-4.67-3.67,4.51-6.78,9.3-11,13.11-1.44,1.31-1.68,2.28-.04,3.52,.72,.54,1.39,1.21,1.9,1.95,.55,.79,1.01,.64,1.68,.22,3.65-2.28,7.61-4.26,8.75-9.01,.5,.26,.52,.76,.61,1.23Zm-138.27,11.13c-.07-.03-.13-.06-.2-.08,.08,.02,.15,.03,.23,.05-.12,.97-.17,1.93,1.16,1.99,.27,.01,.8-.32,.79-.45-.11-.99-1.04-1.12-1.73-1.5-.07-.04-.17,0-.25,0Zm107.94-77.18c-1.22,.12-2.41,.37-3.5,.99-8.7,2.95-14.4,9.25-18.77,17.04-.74,1.32-.53,2.21,.78,2.91,1.26,.68,2.04,2.5,4.06,.93,3.95-3.05,7.96-6.02,11.33-9.73,3.13-3.44,6.74-5.84,11.49-6.48,2.16-.29,4.29-1.01,6.49-1.15,1.73-.11,1.61-.89,.76-1.9-1.12-1.32-2.47-2.34-4.21-2.71-2.78-1.18-5.55-.76-8.31,.04l-.12,.04Zm-86.77,35.56c-2.02-.06-4.05-.1-5.79,1.19-.5,.37-1.26,.72-.92,1.58,.92,2.34,1.87,4.66,2.86,7.11,.81-.96,.01-2.48,1.57-2.67,.44,1.29-.07,2.49-.42,3.66-1.65,5.49,.96,6.82,5.34,8.03,1.86,.52,3.11-.42,3.68-1.82,2.32-5.62,2.99-11.52,2.4-17.56-.07-.69-.32-1.52-1.2-1.28-2.5,.67-5.58,.15-6.97,3.25-.18-.5-.36-1-.54-1.5Zm-62.16,4.57c.06-.18,.12-.37,.18-.55,.07-.32,.15-.64,.22-.97,.08-.23,.16-.46,.24-.68,.64-2.82,.52-2.98-2.42-2.67-.92,.1-1.84,.28-2.73,.54-1.29,.38-1.66,1.01-1.02,2.45,1.26,2.84,3.04,5.36,4.51,8.28,.36-2.28,.68-4.34,1.01-6.4Zm168.37,8.36c-.15-.97-.3-1.93-.45-2.9,1.57-.84,1.22,.66,1.29,1.23,.45,3.74,.75,7.5-.7,11.12-.67,1.68,.19,2.75,1.43,3.45,1.19,.67,1.46-.79,2-1.36,1.05-1.11,1.88-2.43,2.86-3.6,3.2-3.81,2.66-7.92,.82-12.02-.88-1.97-2.47-3.27-4.82-3.12-1.5,.09-2.73,.36-2.06,2.44,.21,.65,.92,1.94-.83,1.94,0-.26,0-.51,.01-.77,.05-.73,.18-1.5-.87-1.64-.34-.62-.27-1.46-.97-1.94-.73,2.33-1.71,4.52-3.03,6.51-2.3,3.47-1.35,6.87,.23,10.15,.92,1.92,2.42,1.73,3.64-.02,1.92-2.75,1.22-5.87,1.48-8.86-.02-.2-.03-.39-.05-.59Zm-56.45-62.79h-.01c-2.03-1.3-3.98-2.74-6.11-3.84-2.94-1.52-6.01-2.84-9.45-2.66-2.82,.14-3.52,1.26-2.89,3.98,.79,3.38,3.25,5.48,5.57,7.68,1.01,.97,2.08,2.66,3.4,2.31,1.01-.27,.64-2.27,.85-3.49,.35-2.04,1.32-2.23,2.8-1.18,1.25,.89,2.4,1.9,3.61,2.84,2.27,1.77,4.54,2.99,7.61,1.58,1.8-.83,.76-1.32,.19-2.05,1.13-.67,1.81,1.54,3.29,.34-1.36-.85-2.58-1.62-3.8-2.38-1.66-1.08-3.05-2.6-5.05-3.12Zm-111.64,61.39c-.03,.77-.28,1.57,.22,2.29,.93,2.62,4.41,4.72,7.04,4.27,.74-.13,1.28-.54,1.52-1.22,2.11-5.84,4.08-11.71,3.09-18.1-.19-1.21-.63-1.7-1.79-1.44-2.23,.49-4.45,1.03-6.69,1.5-.94,.2-1.12,.94-1.32,1.69-.69,2.63-1.38,5.26-2.06,7.9,0,.55,0,1.09,0,1.64,0,.49,0,.99,0,1.48Zm25.92,6.39c2.8-.68,3.02-2.4,2.44-4.98-1.06-4.72-3.39-8.83-5.48-13.07-.32-.66-.83-1.08-1.52-1.25-2.23-.53-4.45-1.07-6.69-1.57-1.25-.28-1.9-.06-1.6,1.55,.95,5.06,2.24,10,4.73,14.54,1.17,2.14,2.75,3.89,5.08,4.83-.17,.29-.33,.58-.5,.87-.92-.17-1.36,.15-1.56,1.14-1.01,5.06-1.86,10.07,.4,15.07,1.12,2.49,1.84,5.15,1.9,7.93,.02,.66-.12,1.35,.87,1.56,2.31,.47,5.61-1.55,6.08-3.89,1.24-6.17,1.45-12.39,.41-18.6-.69-4.14-.78-4.12-4.53-3.13,0-.34-.02-.67-.02-1.01Zm-11.91-33.73c.23,.03,.45,.06,.68,.1,3.9,.72,7.48,2.03,10.35,5,.71,.73,1.94,1.86,3.02,.46,.99-1.28,1.19-2.84,.09-4.25-.41-.52-1.03-.89-1.6-1.25-6.93-4.36-14.4-7.12-22.59-7.69-4.38-.3-8.67,.12-13.39,1.83,4.1,2.01,7.65,3.72,10.96,5.91,1.28,.84,3.05,1.09,4.68,.67,2.57-.66,5.18-.8,7.81-.77Zm115.61,41.38c-.25,2.86,.42,5.36,2.41,7.55,2.01,2.22,3.64,4.8,4.57,7.64,.99,3,3.25,3.73,5.84,3.98,3.45,.34,4.29-.65,3.55-4.06-1.09-4.98-3.27-9.54-5.98-13.78-1.59-2.49-3.02-5.94-7.21-3.9-.41,.2-1.04,.14-1.51,0-1.75-.5-1.82,.52-1.68,1.78-1.6,.04-.88-1.33-1.21-2.05-.19-.42-.46-.76-.91-.77-.49-.01-.82,.38-.73,.84,.43,2.34,.93,4.67,1.49,7.46,.8-1.42,.12-2.31,.25-3.2,.11-.72-.14-1.66,1.11-1.5Zm-86.41-53.81c-8.99-2.77-17.73-2.9-26.43,.19-2.62,.93-3.59,2.37-2.87,4.27,.53,1.41,3.57,2.47,5.3,1.74,4.32-1.83,8.85-2.3,13.47-2.09,1.86,.08,3.71,.41,5.56,.67,.49,.07,1.1,.24,.95,.93-.15,.7-.82,.44-1.26,.43-.4-.01-.79-.27-1.2-.35-5.7-1.01-11.28-.69-17.18,1.46,1.8,1.01,3.26,1.68,4.56,2.59,4.61,3.22,9.58,4.07,15.13,3.26,5.93-.87,11.2,1.1,15.68,5.11,.6,.54,1.07,1.09,1.96,.67,.8-.37,1.02-1.07,1.16-1.86,.48-2.67-.58-4.15-3.92-5.64-3.71-1.66-7.36-3.47-11.35-4.44-.66-.16-1.23-.74-1.84-1.12,1.7-1.52-.56-4.57,2.27-5.82Zm93.23,26.94c2.48,.05,4.14-.5,5.52-1.76,1.13-1.04,1.24-2.25,.77-3.73-.48-1.49-1.51-1.32-2.62-1.34-.93-.02-1.86-.15-2.77-.29-6.3-1-11.13-4.72-15.71-8.81-2.54-2.27-5.07-4.56-8-6.3-3.57-2.12-7.99-1.73-10.67,.78-.8,.75-1.04,1.14,.12,1.83,3.96,2.37,7.12,5.76,10.44,8.86,6.72,6.27,14.51,9.83,22.92,10.76Zm-32.45-42.57c.67,3.02,2.04,5.83,5.07,7.11,4.03,1.71,8.24,2.49,12.61,.99,2.4-.82,4.85-1.56,7.34-2.01,4.01-.74,8.32-1.52,11.87,.86,2.13,1.42,3.68,1.44,5.69,.55,.61-.27,1.29-.54,1.94-.55,2.39-.05,1.94-1.35,1.16-2.66-2.52-4.19-6.53-5.74-11.13-6.07-5.93-.43-11.85,.26-17.19,2.66-5.84,2.62-10.77,2.86-15.27-2.21-.34-.38-.88-1.05-1.48-.68-.6,.37-.56,1.19-.61,2.01Zm-3.01,30.74c-4.21,.03-7.65,.77-10.72,2.81-2.58,1.71-4.12,3.98-3.81,7.28,.14,1.47,.72,2.15,2.25,2.08,1.94-.09,3.88-.05,5.79-.62,4.4-1.33,8.81-1.41,13.27-.14,2.03,.57,4.16,.82,6.27,1.03,1.66,.17,3.59,.43,4.46-1.53,.85-1.92-.23-3.47-1.47-4.84-.57-.62-1.22-1.21-1.93-1.66-4.47-2.87-9.46-4.04-14.1-4.4Zm25.85,42.42c-.57-3.14,.09-6.83-4.32-7.67-.43-.08-.86-.57-1.14-.97-1.56-2.24-2.98,.38-4.51,.1-1.24-.22-1.22,.91-1.32,1.73-.45,3.55-1.65,6.79-3.89,9.59-.85,1.06-.98,2.08-.31,3.28,1.05,1.89,1.44,3.99,1.69,6.12,.31,2.59,1.45,3.55,3.99,3.22,1.84-.24,3.48-1.11,4.58-2.53,2.95-3.79,4.7-8.13,5.23-12.85Zm-56.41-42.8c-4.03-.03-7.51,1.08-10.57,3.48-2.23,1.74-2.95,4.05-2.73,6.79,.1,1.27,.7,1.8,1.97,1.76,2.46-.07,4.9-.17,7.29-.86,3.66-1.05,7.31-1.16,11,.07,1.67,.56,3.47,.77,5.22,1.04,1.03,.16,2.14,.1,2.36-1.25,.45-2.68,.05-5.28-2.2-6.96-3.67-2.75-7.79-4.47-12.34-4.07Zm-90.5-1.06c-4.28-.31-8.11,2.18-11.5,5.4-2.42,2.3-1.32,5.82,1.82,6.72,1.05,.3,2,.21,2.98-.11,6.08-2.03,12.14-2.23,18.2,.08,.31,.12,.65,.19,.99,.24,2.04,.3,2.99-.57,3.03-2.69,.05-2.23-.88-3.96-2.37-5.46-3.45-3.49-7.84-4.22-13.16-4.18Zm32.2,0c-4.72,.06-9.11,1.06-12.31,4.91-1.56,1.87-2.34,4.24-1.06,6.42,1.16,1.97,3.32,1.09,5.13,.72,1.41-.29,2.81-.64,4.21-1.01,3.54-.94,7.04-.88,10.54,.22,1.21,.38,2.44,.74,3.69,.97,1.42,.27,3.22,.53,3.83-1.01,.59-1.49,.65-3.32-.53-4.85-3.43-4.42-7.96-6.44-13.49-6.37Zm19.95,38.02c.64,9.58,6.27,17.53,17.07,20.7,2.12,.62,2.4-.1,2.15-1.85-.52-3.76-1.72-7.31-3.56-10.59-2.5-4.47-5.35-8.66-10.15-11.05-4.35-2.16-5.56-1.6-5.52,2.8Zm138.75-21.88c-3.4-2.22-6.39-4.14-9.33-6.12-6.59-4.44-10.8-10.21-10.18-18.66,.08-1.02-.03-2.06,.04-3.08,.1-1.44-.52-1.66-1.68-1.11-2.81,1.34-6.43,3.59-5.65,8.35,.29,1.76,.38,3.55,.87,5.29,2.2,7.72,7.87,12.02,14.63,15.36,3.64,1.79,7.14,1.41,11.29-.03Zm-168.23,20.83c1.07,9.64,5.19,17.15,16.36,21.01,3.02,1.04,3.56,.72,2.82-2.41-2-8.45-6.22-15.55-13.15-20.87-1.41-1.08-3.3-1.15-4.82-.93-1.22,.17-.97,2.13-1.21,3.2Zm143.14,8.75c-.17,4.41,1.29,7.6,1.67,10.97,.26,2.36,.73,2.57,2.72,1.18,4.59-3.2,5.73-8.18,6.69-13.22,1.07-5.63-.06-10.49-5.15-13.82-.65-.42-1.19-1.6-2.08-.71-1.03,1.02-3.04,1.23-3.03,3.11,.03,4.51,.26,9.02-.81,12.5Zm-12.4-22.49c5.48-.2,10.31-1.48,14.23-5.21,.96-.92,1.62-2,.92-3.43-.69-1.42-1.92-1.53-3.24-1.39-.93,.1-1.89,.17-2.76,.46-4.6,1.56-9.08,.65-13.47-.79-2.29-.75-4.51-.73-6.77-.25-1.59,.34-3.33,.78-3.7,2.66-.34,1.72,.96,2.85,2.17,3.79,3.78,2.94,8.24,3.82,12.62,4.17Zm-21.5-21.15c-2.46-1.23-3.65-2.9-5.18-4.19-7.12-5.95-15.35-8.73-24.57-8.57-1.95,.03-3.63,.84-4.86,2.4-.91,1.15-1.29,2.09,.67,2.77,3.51,1.22,6.8,2.9,9.89,5.05,2.02,1.41,4.6,1.87,7.06,1.36,4.16-.86,8.24-.6,12.33,.33,1.3,.29,2.46,1.15,4.65,.85Zm-62.62-8.1c2.94,1.77,5.83,2.62,8.23,4.42,2.67,2,5.67,2.44,8.91,1.83,6.32-1.2,12.12,.06,17.26,4.03,.81,.63,1.15,2.14,2.6,1.52,1.52-.64,1.12-2.11,1.26-3.34,.16-1.42-.67-2.19-1.74-2.85-6.62-4.09-13.83-6.38-21.52-7.24-4.95-.55-9.78-.18-14.99,1.64Zm33.77,39.55c3.22-.34,5.29-.74,4.03-5.01-.82-2.78-1.72-5.52-2.61-8.27-1.36-4.22-4.05-6.44-8.4-7.19-4.73-.82-4.72-1.02-3.67,3.72,.94,4.26,2.09,8.47,4.37,12.22,1.43,2.35,3.09,4.56,6.27,4.52Zm17.94-20.46c1.97,6.06,4.01,11.69,7.76,16.42,2.16,2.73,4.76,5.18,8.78,4.49,1.89-.32,2.57-1.12,1.53-3.11-2.54-4.82-4.92-9.72-7.36-14.59-.34-.68-.61-1.38-1.48-1.6-2.94-.73-5.85-1.65-9.22-1.61Zm-.67,5.4c-.09-1.03-.2-2.47-.34-3.92-.05-.5-.08-1.05-.64-1.29-.64-.28-6.04,1.16-6.45,1.84-2.85,4.67-4.87,9.63-4.19,15.24,.36,2.95,3.09,3.04,5.24,3.61,1.97,.52,3.17-.43,3.93-2.27,1.7-4.1,2.15-8.41,2.45-13.21Zm-105.39,13.56c.25-.03,.76-.07,1.25-.17,3.37-.74,3.76-1.32,2.09-4.34-1.88-3.4-3.86-6.77-5.22-10.39-1.48-3.94-4.63-4.84-8.13-5.49-.96-.18-1.3,.2-1.11,1.07,1.26,5.93,2.49,11.88,6.37,16.78,1.11,1.4,2.51,2.57,4.75,2.54Zm20.33-46.42c-1.62-.79-2.95-.94-4.29-1.08-5.13-.56-10.17,.2-15.19,1.08-2.83,.49-5.68,1-8.37,2.08-1.19,.47-2.12,1.27-2.18,2.59-.07,1.51,1.43,1.13,2.23,1.57,1.03,.56,2.07,.42,3.17-.05,1.95-.84,4.02-1.25,6.13-1.57,4.88-.72,9.64-.03,14.42,.76,.58,.1,1.71,.89,1.53-.66-.24-2.03,.75-3.39,2.54-4.72Zm96.81,1.02c-3.31,0-6.59,.29-9.76,1.36-.99,.33-1.89,.74-2.41,1.73-.37,.71-.69,1.45-.04,2.12,.8,.83,1.32,.05,1.9-.43,4.52-3.73,8.62-3.97,13.5-.79,2.85,1.86,5.41,4.11,7.87,6.46,.98,.94,1.6,.96,2.27-.38,.79-1.59,1.68-3.18,2.77-4.57,1.12-1.42,.71-1.83-.77-2.43-4.93-1.99-10.03-3.02-15.33-3.07Zm51.15,73.3c4.37-.05,6.27-1.99,4.68-4.76-2.08-3.66-5.01-6.58-8.68-8.7-.84-.49-1.36-.54-1.61,.6-.58,2.69-1.64,5.21-2.79,7.68-.39,.84-.34,1.46,.44,1.98,2.5,1.65,5.09,3.09,7.96,3.21Zm-42.8-32.45c-.12,1.46,.14,3.07,.63,4.62,.54,1.68,1.4,3.15,3.32,3.5,2.05,.38,3.4-.81,4.43-2.36,1.52-2.28,2.44-4.85,3.3-7.45,.36-1.1,.09-1.55-1.05-1.65-2.21-.19-4.3-.9-6.4-1.58-3.36-1.09-4.05-.56-4.23,3.2-.02,.51,0,1.02,0,1.71Zm8.66,32.31c2.23,.07,4.13-.58,5.93-1.58,.65-.36,1.38-.68,.93-1.74-1.54-3.63-3.48-7.01-6.31-9.78-1.09-1.07-1.83-1.17-2.29,.76-.75,3.17-1.45,6.45-3.87,8.92-.85,.87-.52,1.61,.42,1.97,1.72,.65,3.34,1.71,5.17,1.45Zm29.21-42.7c-.24,4.52-2.11,8.02-5.78,10.54-.46,.32-1.32,.6-.83,1.57,.98,1.92,4.61,2.87,6.39,1.47,3.3-2.61,5.13-6.25,6.45-10.16,.23-.68,.38-1.83-.68-1.83-2.02,0-3.62-1.32-5.55-1.58Zm-1.29,1.24c.07-.98,.02-1.94-.93-2.49-1.36-.78-2.74-.3-3.84,.42-2.49,1.62-4.5,3.89-7.1,5.37-.31,.18-.52,.4-.44,.8,.08,.45,5.01,5.29,5.47,5.29,.23,0,.49-.09,.68-.23,3.12-2.33,5.81-4.95,6.17-9.16Zm-14.23,13.85c2.39,.01,4.08-1.46,5.81-2.8,.83-.64,.24-1.11-.29-1.61-1.48-1.39-2.97-2.78-4.38-4.23-.59-.61-1.14-1-1.98-.64-2.05,.88-4.25,1.03-6.41,1.35-.64,.1-1.15,.1-.92,1.03,.66,2.67,5.55,6.84,8.16,6.9Zm17.4-1.47c-1.02,.62-1.82,1.33-2.75,1.6-1.44,.41-1.47,.88-.71,2.08,1.46,2.3,1.75,4.96,1.69,7.62-.03,1.33-.55,2.64,1.25,3.39,1.3,.55,2.4,1.56,3.64,2.29,.45,.27,.83-.15,.99-.54,.81-2.01,.78-4.15,.93-6.27,.11-1.66-1.43-1.44-2.14-2.13-1.09-1.05-1.72-2.3-2.03-3.75-.3-1.39-.55-2.79-.85-4.3Zm-22.03-25.84c2.16,.06,4.22-.32,5.65-1.59,1.22-1.08-.46-2.59-.52-3.96-.03-.77-.12-1.53-.2-2.29-.07-.67-.31-1.25-1.12-.82-3.29,1.73-6.78,3.1-9.78,5.35-.95,.71-.96,1.32,.27,1.76,1.91,.69,3.75,1.63,5.7,1.55Zm-38.44,30.2c2.73-.18,5.15-1.36,7.61-2.48,1.44-.66,1.39-1.2,.43-2.37-1.11-1.36-1.93-2.98-2.81-4.53-1.08-1.9-1.72-2-2.8,0-1.33,2.46-2.32,5.09-3.6,7.58-.78,1.5-.49,2.01,1.17,1.8Zm-117.9-2.53c1.28-.01,2.52-.23,3.73-.66,3.51-1.25,3.5-1.23,1.72-4.56-.48-.9-.88-1.84-1.28-2.78-.42-.98-.74-1.4-2.04-.83-2.43,1.06-3.51,3.02-4.47,5.24-1.07,2.49-.38,3.58,2.33,3.59Zm151.62-6.77c-1.18,3.01-2.02,5.91-3.8,8.3-1.14,1.53-.26,1.83,.95,2.15,3.57,.94,6.1-1.38,8.87-2.9,.62-.34,.34-.92-.21-1.16-2.78-1.17-3.85-3.91-5.81-6.39Zm-25.07,19.17c-.14-3.85,.19-7.57,.27-11.66-2.84,1.44-5.52,2.47-8.72,3.12,3.24,2.78,5.95,5.5,8.45,8.54Zm-93.92-21.35c-2.16,2.72-3.36,5.72-4.24,8.89-.36,1.28,.3,1.52,1.35,1.3,2.19-.45,4.03-1.74,6.07-2.55,.79-.31,.64-.76,.28-1.38-1.14-1.98-2.22-4-3.46-6.26Zm95.01,16.43c.49,1.69-.66,5.38,.96,5.44,1.98,.08,2.8-3.29,3.4-5.58,.06-.25,.11-.5,.19-.74,.81-2.43,.51-4.17-2.14-5.47-1.84-.9-1.98-.3-2.07,1.17-.1,1.61-.2,3.22-.33,5.18Zm-36.56-15.14c-.18,.17-.46,.37-.65,.63-1.74,2.5-2.31,5.45-2.98,8.33-.25,1.08,.68,.91,1.36,.75,2.01-.47,3.76-1.52,5.59-2.41,1.01-.49,.53-.98,.2-1.6-.85-1.57-1.66-3.16-2.46-4.75-.22-.43-.23-1.04-1.06-.96Zm14.67,.3c.91-3.77,2.23-6.89,3.77-10.07-2.18-.18-4.09-.16-5.77,1.13-.65,.5-1.17,.98-.8,1.91,.89,2.19,1.75,4.39,2.8,7.04Zm-98.1,18.62c.11-3.52,.31-6.56,.89-9.56,.17-.91,1.21-2-.03-2.75-1.01-.61-1.84,.53-2.76,.82-1.06,.33-.66,1.16-.51,1.91,.37,1.92,.83,3.86,.6,5.81-.17,1.47,.43,2.4,1.82,3.77Zm88.58,.96c-.11-3.64,.09-6.99,.64-10.31,.23-1.39-.23-1.99-1.67-1.38-1.34,.57-2.34,1.17-1.63,3,1.05,2.74-.73,6.25,2.67,8.69Zm-59.23-.84c-.1-3.51,.21-6.54,.92-9.53,.18-.76,.9-1.72-.02-2.34-.94-.65-1.69,.37-2.51,.69-1.02,.4-1.02,1.19-.81,2.1,.41,1.83,.68,3.68,.52,5.55-.12,1.4,.55,2.37,1.9,3.52Zm124.25-4.57c-.09-.67-.15-1.35-.27-2.02-.22-1.3,.13-3.14-1.05-3.71-1.28-.63-1.98,1.54-3.39,1.76-.67,.1-.9,.92-.3,1.38,1.23,.96,1.87,2.35,2.79,3.53,.43,.55,.99,1.02,1.73,.66,.66-.32,.48-1.01,.49-1.59Zm-28.74-20.42c1.54,3.09,2.84,5.7,4.42,8.87,.57-2.6,.54-4.59,1.33-6.38,.26-.58,.19-.95-.47-1.12-1.59-.41-3.18-.82-5.28-1.37Zm-68.49,21.49c.48-6.63,.42-6.69-4.46-5.15-.12,.04-.18,.25-.3,.42,1.52,1.51,3.04,3.02,4.76,4.72Zm-65.1-6.44c2.5,1.71,4.01,3.66,5.9,5.8-.25-6.74-.29-6.78-5.9-5.8Zm164.34-21.98c3.24-.14,4.76,1.33,5.1,4.22,1.23-.85,2.24-1.53,3.63-1.86-1.12-.86-2.14-1.38-2.77-2.2-1.68-2.17-3.44-2.02-5.96-.16Zm2.85-2.81c-.85-1.38-1.58-2.52-2.26-3.69-.45-.79-.77-1.36-1.92-.8-1.2,.59-.53,1.16-.3,1.81,.25,.72,.78,1.46,.7,2.14-.29,2.54,.97,1.87,2.28,1.24,.46-.22,.91-.44,1.49-.72Zm-13.95-31.72c2.07,1.42,3.5,2.67,5.34,3.32,1.06,.37,2.04-.04,2.39-.84,.37-.84-.75-1.2-1.36-1.5-1.81-.89-3.73-1.2-6.38-.98Zm11.65,60.04s-.06,0-.08,0c0-1.11,0-2.21,0-3.32,0-.63-.07-1.21-.96-1.09-.78,.1-1.37,.41-1.16,1.29,.49,2,.62,4.03,.63,6.08,0,.63,.35,1.02,.89,1,.66-.02,.66-.64,.67-1.15,.01-.94,0-1.87,0-2.81Zm-75.16-1.33c.85,.82,1.49,1.5,2.19,2.12,.65,.58,.92,1.67,2.05,1.68-.29-5.73-.39-5.82-4.24-3.79Zm47.79-17.38c-.5-2.63-1.38-4.36-4.14-3.78-.45,.1-1.08-.3-1.31,.32-.23,.62,.21,1.17,.63,1.55,1.3,1.17,3.04,1.22,4.81,1.91Zm-102.96,20.55c.19-.12,.39-.24,.58-.36-.14-.99-.21-2-.43-2.98-.17-.73,.14-1.97-1.06-1.93-.85,.03-1.99,.36-2.43,.98-.48,.67,.69,1.15,1.13,1.71,.69,.89,1.47,1.72,2.21,2.57Zm85.62-14.53q2.85-2.42,.45-6.21c-.16,2.25-.3,4.15-.45,6.21Zm65.36,19.46c1.44,.22,1.79-1.04,2.47-1.82,.57-.65,.29-1.23-.29-1.74-.49-.43-.85-1.18-1.65-.93-.89,.29-.45,1.13-.51,1.72-.08,.83-.02,1.68-.02,2.76Zm-184.64-20.95c3.81-1.36,3.86-1.53,1.55-5.34-.53,1.82-.98,3.38-1.55,5.34Zm-12.33,9.09c.91,1.62,1.77,3.15,2.75,4.87q1.04-4.75-2.75-4.87Zm3.99,10.41c-.09,1.75-.12,2.89-.22,4.03-.08,.91,.55,1.13,1.17,1.38,.38,.15,.86,.4,1.16,0,.46-.6-.13-1.08-.35-1.58-.49-1.11-1.01-2.2-1.76-3.84Zm146.58-33.95q.04,3.5,3.57,1.98c-1.24-.69-2.38-1.32-3.57-1.98Zm-57.91,33.84c.25,1.44-1.61,4.31,2.27,3.63-.46-1.46-1.17-2.64-2.27-3.63Zm-29.53,2.48c-.51,3.75-.42,4.78,2.01,3.92-.57-1.11-1.12-2.19-2.01-3.92Zm111.89,.65q.94-3.47-1.75-3.37c.36,1.22,.91,2.27,1.75,3.37Zm-141.02-.82q-.59,3.68,2.11,4.22c-.65-1.29-1.23-2.46-2.11-4.22Zm51.48-29.64c.51-.4,1.29-.98,2.02-1.62,.06-.05-.19-.83-.55-.54-.86,.66-2.21,.28-2.77,1.27-.25,.45,.31,.87,1.31,.89Zm-29.61-.63c.94-.3,1.92-.6,2.26-1.66,.09-.29-.53-.63-.7-.4-.66,.88-2.38,.03-2.52,1.56-.04,.41,.47,.64,.96,.5Zm-27.25-8.64c.04-.83-.53-.8-1.03-.79-.6,0-.99,.3-.89,.95,.09,.58,.17,1.38,.88,1.35,.82-.03,.76-.98,1.04-1.51Zm88.19,7.81c-1.07,.1-2.15,.11-2.78,1.07-.08,.12,.31,.78,.45,.77,1.1-.1,1.85-.77,2.34-1.84Zm-73.17,9.4c2.31-1.03,.74-2.28,.66-3.96-.7,1.56-.89,2.6-.66,3.96Z"/>
  <path class="cls-13" d="M198.56,163.66c.33,.07,.66,.13,.99,.2-.33,1.65-.65,3.31-.99,4.96-.14,.66-.31,1.23,.29,1.85,3.15,3.28,9.26,3.25,12.13-.11,.85-.05,1.69-.08,2.27,.73-.55-.06-1.05-.35-1.57,.32-2.87,3.73-6.62,3.39-10.3,1.79-2.41-1.05-4.51-2.27-7.34-1.34-1.23,.4-2.8-.26-4.22-.44,.8-1.41,2.29,.81,3.09-.6,3.88-.19,3.91-.23,4.78-3.94,.27-1.13,.57-2.26,.86-3.39Z"/>
  <path class="cls-13" d="M90.35,168.56c-.18-.36-.36-.72-.54-1.08,1.28-.87-.17-1.94,.21-2.87,2.3,2.19,5.07,3.62,7.93,4.86,1.53,.66,3.63,2.08,4.63,1.2,1.29-1.13-.03-3.32-.37-5.04-.05-.25-.06-.5-.09-.76,.34,0,.67,0,1.01,0,.69,1.03,.76,2.27,.96,3.42,.6,3.43,.9,3.62,4.26,2.13,.31-.14,.61-.28,.92-.42,.21,.43,.6,.48,1.01,.51-2.49,2.18-5.41,2.2-8.39,1.55-2.57-.56-5.05-1.44-7.3-2.85-.97-.61-1.97-.93-3.12-.68-.38-.65-.75-.62-1.12,.01Z"/>
  <path class="cls-13" d="M78.25,140.75c-.36,.16-.72,.33-1.08,.49,.7-4.51,2.88-8.55,4.01-12.92,.15,.37,.43,.56,.82,.59-.96,4.04-1.55,8.2-3.75,11.85Z"/>
  <path class="cls-14" d="M90.35,168.56c.36-.63,.74-.66,1.12-.01,.43,1.09,1.16,2.16,1.23,3.28,.12,1.85-.74,.51-1.24,.23-.37-1.17-.73-2.33-1.1-3.5Z"/>
  <path class="cls-9" d="M154.48,134.02c-.92-1.12-1.84-.99-2.76,0-.02-2.18-.06-4.36-.04-6.54,0-.62-.4-1.66,.95-1.41,.61,2.65,1.23,5.3,1.84,7.95Z"/>
  <path class="cls-13" d="M169.92,133.02c.11-1.03,.53-1.94,1.09-2.79,.33,.08,.65,.15,.98,.23-.47,1.09-.95,2.19-1.42,3.28-.22-.24-.44-.48-.66-.72Z"/>
  <path class="cls-14" d="M169.92,133.02c.22,.24,.44,.48,.66,.72-.12,.34,.23,1.03-.61,.84-.96-.49-.28-1.03-.04-1.55Z"/>
  <path class="cls-14" d="M171.99,128.4c.26,.16,.52,.32,.77,.48-.19,.28-.13,.91-.76,.55-.68-.34-.27-.69-.01-1.04Z"/>
  <path class="cls-14" d="M172,130.46c-.33-.08-.65-.15-.98-.23,.21-.41,.08-1.26,.98-.79,.57,.34,.12,.68,0,1.01Z"/>
  <path class="cls-14" d="M140.36,133.02c.34,0,.67,0,1.01,0-.14,.38-.27,.77-.41,1.15-.08,.11-.1,.24-.08,.37-.16,0-.33,.02-.49,.03-.89-.5-.16-1.03-.03-1.55Z"/>
  <path class="cls-13" d="M140.88,134.55c-.02-.14,0-.26,.08-.37,.1,.15,.07,.27-.08,.37Z"/>
  <path class="cls-6" d="M222,77.52c-.49,.94,1.17,.95,.68,2.06-3.91-1.56-7.35-4.15-11.32-5.65,2.76,.05,5.09,1.37,7.44,2.61,1,.53,1.86,1.55,3.19,.96,0,0,.01,.01,.01,.01Z"/>
  <path class="cls-6" d="M208.45,73.38c-1.51,2.01,.23,3.19,.09,4.78-.97-1-2.2-1.84-2.32-3.37-.08-.96,.82-1.11,2.23-1.41Z"/>
  <path class="cls-14" d="M226.03,81.64c.85-.13,1.59-.09,1.55,1.08-.68-.12-1.25-.41-1.55-1.08Z"/>
  <path class="cls-6" d="M209.41,79.47c-.47-.06-.67-.29-.67-.64,0-.2,.07-.52,.4-.35,.19,.1,.39,.28,.45,.47,.05,.14-.12,.35-.18,.51Z"/>
</svg>