<svg width="200" height="200" viewBox="0 0 200 200" fill="none" xmlns="http://www.w3.org/2000/svg">
<g clip-path="url(#clip0_259_67)">
<mask id="mask0_259_67" style="mask-type:luminance" maskUnits="userSpaceOnUse" x="0" y="0" width="200" height="200">
<path d="M200 0H0V200H200V0Z" fill="white"/>
</mask>
<g mask="url(#mask0_259_67)">
<path d="M200 0H0V200H200V0Z" fill="#F7C0AA" fill-opacity="0.85"/>
<path d="M110.198 93.9375H108.49V85.9167C108.49 83.0417 106.151 80.7083 103.276 80.7083H96.7187C93.849 80.7083 91.5104 83.0417 91.5104 85.9167V93.9375H89.8021C87.974 93.9375 86.4948 95.4167 86.4948 97.2448V113.339C86.4948 115.167 87.974 116.646 89.8021 116.646H110.198C112.021 116.646 113.505 115.167 113.505 113.339V97.2448C113.505 95.4167 112.021 93.9375 110.198 93.9375ZM94.1562 85.9167C94.1562 84.5 95.3073 83.3542 96.7187 83.3542H103.276C104.693 83.3542 105.844 84.5 105.844 85.9167V93.7135H94.1562V85.9167ZM101.729 111.042C101.76 111.255 101.594 111.448 101.38 111.448H98.6198C98.401 111.448 98.2344 111.255 98.2656 111.042L98.8958 106.849C98.1823 106.411 97.7396 105.568 97.9167 104.635C98.0729 103.792 98.7656 103.104 99.6094 102.953C100.953 102.714 102.12 103.745 102.12 105.042C102.12 105.807 101.714 106.474 101.104 106.849L101.729 111.042Z" fill="#F0EFEC"/>
<mask id="mask1_259_67" style="mask-type:luminance" maskUnits="userSpaceOnUse" x="70" y="70" width="61" height="61">
<path d="M70.2344 70.2344H130.234V130.234H70.2344V70.2344Z" fill="white"/>
</mask>
<g mask="url(#mask1_259_67)">
<path d="M100 70.2344C83.5833 70.2344 70.2344 83.5833 70.2344 100C70.2344 116.411 83.5833 129.766 100 129.766C116.411 129.766 129.766 116.411 129.766 100C129.766 83.5833 116.411 70.2344 100 70.2344ZM100 127.12C85.0469 127.12 72.8802 114.953 72.8802 100C72.8802 85.0469 85.0469 72.8802 100 72.8802C114.953 72.8802 127.12 85.0469 127.12 100C127.12 114.953 114.953 127.12 100 127.12Z" fill="#F0EFEC"/>
</g>
</g>
</g>
<defs>
<clipPath id="clip0_259_67">
<rect width="200" height="200" fill="white"/>
</clipPath>
</defs>
</svg>
