<svg width="56" height="56" viewBox="0 0 56 56" fill="none" xmlns="http://www.w3.org/2000/svg">
<rect width="56" height="56" fill="#005B96" fill-opacity="0.3"/>
<g clip-path="url(#clip0_52_25)">
<path d="M23.281 38.4848C22.5814 38.4817 21.9008 38.2571 21.3368 37.8432C20.7604 37.4377 20.3303 36.857 20.1104 36.1874C19.8906 35.5179 19.8928 34.7952 20.1167 34.127L21.1892 30.8096L18.3658 28.7452C17.7997 28.3316 17.379 27.7496 17.1637 27.0824C16.9485 26.4151 16.9498 25.6969 17.1675 25.0305C17.3851 24.364 17.808 23.7835 18.3756 23.372C18.9432 22.9604 19.6264 22.739 20.3275 22.7392H23.7833L24.8329 19.4667C25.0483 18.7966 25.4709 18.2121 26.0397 17.7975C26.6085 17.3828 27.2943 17.1594 27.9982 17.1594C28.7021 17.1594 29.3878 17.3828 29.9566 17.7975C30.5255 18.2121 30.948 18.7966 31.1634 19.4667L32.2167 22.7392H35.6725C36.3735 22.7392 37.0566 22.9608 37.624 23.3724C38.1915 23.784 38.6142 24.3645 38.8318 25.0309C39.0493 25.6973 39.0506 26.4154 38.8353 27.0826C38.62 27.7497 38.1993 28.3317 37.6333 28.7452L34.8108 30.8096L35.8833 34.127C36.0996 34.7962 36.098 35.5167 35.8788 36.1849C35.6596 36.8531 35.2342 37.4346 34.6636 37.8457C34.093 38.2568 33.4068 38.4764 32.7036 38.4728C32.0003 38.4692 31.3163 38.2427 30.75 37.8257L28 35.8036L25.25 37.8267C24.681 38.2511 23.9908 38.4818 23.281 38.4848ZM20.3275 25.4892C20.2065 25.4892 20.0886 25.5275 19.9906 25.5985C19.8927 25.6695 19.8197 25.7697 19.7821 25.8847C19.7444 25.9997 19.7441 26.1236 19.7812 26.2388C19.8182 26.354 19.8907 26.4545 19.9883 26.526L23.6147 29.1761C23.8482 29.3468 24.0219 29.5869 24.1111 29.862C24.2003 30.1372 24.2004 30.4335 24.1115 30.7087L22.7365 34.9712C22.6983 35.0869 22.698 35.2116 22.7354 35.3275C22.7728 35.4433 22.8461 35.5443 22.9447 35.6157C23.0433 35.6872 23.1621 35.7254 23.2838 35.7249C23.4056 35.7244 23.524 35.6852 23.622 35.6129L27.1869 32.9903C27.4231 32.8166 27.7086 32.7228 28.0018 32.7228C28.295 32.7228 28.5806 32.8166 28.8168 32.9903L32.3817 35.612C32.4795 35.6849 32.5981 35.7247 32.7202 35.7255C32.8422 35.7263 32.9614 35.6882 33.0602 35.6165C33.159 35.5449 33.2324 35.4436 33.2696 35.3274C33.3069 35.2111 33.306 35.086 33.2672 34.9703L31.8922 30.7078C31.8032 30.4326 31.8034 30.1363 31.8926 29.8611C31.9818 29.5859 32.1555 29.3459 32.389 29.1752L36.0144 26.5251C36.112 26.4536 36.1844 26.3532 36.2215 26.2381C36.2586 26.123 36.2584 25.9991 36.2208 25.8842C36.1833 25.7692 36.1105 25.6691 36.0127 25.598C35.9149 25.5269 35.7971 25.4885 35.6762 25.4883H31.2083C30.9171 25.4883 30.6334 25.3957 30.3982 25.2241C30.1629 25.0524 29.9883 24.8105 29.8993 24.5332L28.55 20.3064C28.5128 20.1907 28.4399 20.0898 28.3417 20.0182C28.2435 19.9467 28.1252 19.9081 28.0037 19.9081C27.8822 19.9081 27.7638 19.9467 27.6656 20.0182C27.5674 20.0898 27.4945 20.1907 27.4573 20.3064L26.0979 24.5341C26.0091 24.811 25.8349 25.0526 25.6002 25.2242C25.3655 25.3958 25.0824 25.4886 24.7917 25.4892H20.3275Z" fill="#005B96"/>
</g>
<defs>
<clipPath id="clip0_52_25">
<rect width="22" height="22" fill="white" transform="translate(17 17)"/>
</clipPath>
</defs>
</svg>
