<?xml version="1.0" encoding="UTF-8"?>
<svg id="Layer_1" data-name="Layer 1" xmlns="http://www.w3.org/2000/svg" viewBox="0 0 414 200">
  <defs>
    <style>
      .cls-1 {
        fill: #f7b7d3;
      }

      .cls-2 {
        fill: #00bef2;
      }

      .cls-3 {
        fill: #e9e0cb;
      }

      .cls-4 {
        fill: #fff9b8;
      }

      .cls-5 {
        fill: #fff200;
      }

      .cls-6 {
        fill: #e8e5dc;
      }

      .cls-7 {
        fill: #fbb040;
      }

      .cls-8 {
        fill: #fdfdfd;
      }

      .cls-9 {
        fill: #9ed2f1;
      }

      .cls-10 {
        fill: #c2c0bc;
      }

      .cls-11 {
        fill: #45413c;
      }

      .cls-12 {
        fill: #70675c;
      }

      .cls-13, .cls-14 {
        fill: #35302e;
      }

      .cls-15 {
        fill: #767474;
      }

      .cls-16 {
        fill: #4b4642;
      }

      .cls-17 {
        fill: #514c4c;
      }

      .cls-18 {
        font-size: 15.69px;
      }

      .cls-18, .cls-19 {
        fill: #231f20;
      }

      .cls-18, .cls-19, .cls-14 {
        font-family: MyriadPro-Regular, 'Myriad Pro';
      }

      .cls-19, .cls-14 {
        font-size: 14px;
      }
    </style>
  </defs>
  <path class="cls-11" d="M221.83,93.43c1.26-.2,2.29,.31,3.28,.95,.21,.12,.41,.24,.62,.36,3.44,1.44,2.74-2.33,4.38-3.15,.35-.6,.26-1.2,.03-1.81,0,0,0-.07,0-.07,.7,.26,1.4,.51,2.09,.77,.13,1.05-.75,1.63-1.24,2.38-1.79,2.74-3.52,5.6-4.19,8.72-1.1,5.18-1.61,10.46-1.76,15.77-.44,16.08-.46,32.19-2.68,48.18-.1,.7-.85,1.64,.39,2.11,.9,.34,1.81,0,2.36-.6,1.59-1.72,3.28-3.3,4.09-5.63,2.21-6.35,2.66-12.96,3.61-19.5,.38,.01,.77,.03,1.15,.04-.18,7.99-1.65,15.75-4.75,23.2-.34,.81-1.34,1.45-.5,2.44,.53,.63,1.27,.85,2.01,.52,1.11-.49,3.18-.56,3.03-1.78-.52-4.09,1.42-7.44,2.87-10.98,3.34-8.12,4.51-16.8,7.18-25.11,1.76-5.51,2.9-11.24,3.32-17.04,.65-.88,.38-1.37-.72-1.24-3.31,.37-6.37,1.66-9.53,2.57-.35,.1-.9,.47-.48,.85,.32,.28,.97,.22,1.48,.31-1.79,7.15-3.76,14.27-3.44,21.72,.01,.29-.17,.58-.25,.88-.42-.02-.85-.03-1.27-.05,0-.41,.01-.81,.02-1.22,.98-1.43,.41-3,.43-4.52,.34-7.32,.69-14.64,1.03-21.97,.18-3.8,1.81-7.25,2.99-10.79,.81-2.43,2.23-4.05,5.73-3.49,2.35,.38,4.99-.82,7.49-1.34,.99-.21,1.14-.59,.5-1.49-3.75-5.23-8.46-6.71-14.8-4.5-1.38,.48-2.73,1.05-4.09,1.57,0-.36,0-.73,.01-1.09,6.82-4.28,13.35-4.48,20.74,3.23,1.86-3.54,4.32-6.26,8.02-8.31,5.83-3.24,13.54-2.8,17.26,4.68,.15,.3,.7,.41,1.07,.61,0,.3,0,.6,0,.9-1.53,.71-3.19,.9-4.83,1.25-3.13,.65-6.51,.4-9.31,2.26,.06,1.13,1.42,.54,1.8,1.24-2.09-.07-3.39,.74-3.9,2.79-.41,1.65-1.12,3.24-1.69,4.86l-.84-.81c.93-7.83,3.3-10.23,11.29-11.49,.32-.05,.64-.09,.95-.17,1.28-.32,3.46,.23,3.67-1.02,.25-1.5-1.21-2.79-2.77-3.75-1.66-1.03-3.27-2.09-5.29-1.93-5.56,.44-10.06,2.89-12.87,7.43-2.82,4.55-4.27,9.75-5.27,14.84-2.88,14.68-5.29,29.47-9.9,43.76-1.3,4.03-1.42,7.14,1.54,10.25,.54,.57,.59,1.63,1.75,1.5,.9-.1,1.16-.87,1.43-1.5,1.53-3.57,3-7.16,4.49-10.75,.8,.41,.63,1.15,.67,1.82-.92,4.38-3.22,8.26-5.32,12.39,1.67,0,2.84-1.1,4.26-.79,3.91,.85,7.16,.68,8.84-3.68,.46-1.21,2.21-2.37,3.61-2.78,4.68-1.36,7.67-3.75,7.34-8.78,.62,.3,.64,.9,.75,1.44,.87,1.59,1.24,.07,1.5-.31,1.64-2.38,4.1-3.62,6.8-4.53,0,.35,.01,.71,.02,1.06-5.34,2.76-8.36,7.03-9.19,12.73-.82,4.1-2.74,7.77-4.93,11.33-.05-.72-.1-1.45-.15-2.17,1.22-3.73,1.07-3.82-3.04-3.15-2.17,.35-3.91,1.45-5.78,2.37-.18-.79-.38-1.55-1.46-1.61-1.14-.19-2.28-.52-3.43-.52-1.14,0-2.67-.51-3.06,1.26,0,.38,0,.76,.01,1.13-2.45,.07-4.88-.11-7.36,.41-8.72,1.84-15.7,7.21-24.25,10.16,3.57,4.04,7.88,4.44,12.5,3.82,3.11-.41,5.81-2.02,8.8-2.77,.58,.28,.61,.82,.71,1.33,1.07,.95,2.13,1.89,3.2,2.84-.29,.27-.59,.55-.88,.82-2.83-3.1-5.84-2.84-9.73-1.42-4.59,1.68-9.74,1.44-13.62-1.85-2.13-1.81-3.85-1.94-6.15-1.17,0-.39,0-.77,0-1.16,4.07-1.64,8.14-3.31,12.23-4.92,1.24-.49,1.82-1.18,1.31-2.46,1.58,.18,3.24,.77,4.71-.79-1.12-.72-1.98-1.4-3.41-.74-1.19,.55-2.37,1.3-3.81,1.22-7.33-1.94-14.4-.69-21.39,1.54-.67-.03-1.4,.12-1.89-.51l.23-.16,.28,.02c.5-.12,1.03-.27,.92-.87-.02-.13-.68-.15-1.04-.22-7.7-.57-15.41-1.28-23.05,.5-.85,.08-1.77-.21-2.49,.48-.35,.08-.7,.17-1.05,.25-.3,.12-.6,.24-.9,.36-1.02,.29-2.04,.57-3.07,.86l-2.66-.7c-.18-.08-.25-.21-.2-.4,.05-.31,.09-.63,.14-.94,1.03-.36,1.9,.84,3.18,.24-.45-.75-.77-1.51-1.3-2.11-.65-.73-1.51-.54-2.33-.13-.89,.44-1.1,.92-.26,1.58-.44,.18-.87,.37-1.31,.55-4.36-1-8.79-1.55-13.27-1.73-.6-.13-1.23-.21-1.51-.86,.27-.02,.53-.04,.8-.06,.76,.2,1.44,.18,1.83-.6-.02-.56-.05-1.12-.07-1.68,.04-.51,.14-.98,.69-1.23,3.29-3.21,5.79-6.52,3.48-11.41-1.03-2.19-1.1-4.77-1.88-7.09-1.23-3.64-1.12-7.68-3.65-10.92-.15-1.79,2.36-.52,2.61-2.18-2.94-.6-5.64,.58-8.4,.82-1,.08-2.06,.35-2.23-.95-.18-1.39,1.02-1.21,1.96-1.33,2.01-.26,4-.74,6.01-.85,2.08-.12,2.54-1.1,2.08-2.75-.51-1.84-.82-3.68-.67-5.58,.36,0,.71-.01,1.07-.02,1.29,7.54,2.93,15.04,3.77,22.63,.83,7.53,4.4,14.65,3.62,22.39-.07,.71,.29,1.18,1,1.37,.78,.21,1.49,.06,2.07-.51,1.24-1.23,1.66-2.77,1.98-4.4,1.39-6.94,.23-13.82-.36-20.72-.71-8.33-3.29-16.42-3.41-24.82-.09-6.34,.1-6.46,6.6-6.91,.32-.02,.68,.02,.96-.1,1.29-.58,3.55,.03,3.85-1.47,.36-1.79-1.32-3.11-2.93-4.02-.82-.46-1.73-.93-2.65-1.04-5.34-.64-12.33,.5-14.01,7.67-.32-.37-.65-.74-.97-1.11,1.08-8.37,14.8-10.31,19.48-5.97,2.06,1.92,2.8,1.62,3.87-.84,1.87-4.32,5.92-5.73,11.59-4.51,.34,.41,.8,.39,1.28,.31,2.03,.78,3.61,.83,5.44-.97,3.15-3.09,11.71-4.12,15.38-.84,.48,.43,1.02,.73,1.72,.56,.28,.28,.56,.56,.85,.84-2.55,3.58-2.99,7.7-3.34,11.85-.39,4.63,.25,9.29-.53,13.91-.2-.58-.28-1.23-.97-1.52-.8-2.57-2.54-.86-3.76-.61-4.86,1-4.85,1.06-4.51,5.58,.04,8.15,.18,16.29,.07,24.44-.05,3.31,.07,6.69-1.66,9.82-.77,1.39,1.18,4.94,2.76,5.45,3.04,.97,2.27-1.91,3.28-3,.65,.29,.76,.87,.85,1.45,1.82,3.32,4.21,.42,6.32,.48,1.59,.04,1.84-.88,1.35-2.24-1.01-2.82-2.71-5.22-4.74-7.44l.93-.87c1.58,1.87,2.95,1.58,4.07-.41,.75-1.32,1.98-2.32,2.38-3.88,1.19-4.66,2.12-9.36,2.42-14.15,.69-10.88,1.35-21.76,2.13-32.63,.34-4.68,1.28-5.5,6.18-5.93,1.02-.09,1.61-.44,1.87-1.33,.26-.88,.07-1.63-.81-2.11-.93-.51-1.88-.97-2.83-1.45l-.69-1.2Zm18.75,6.22c-.04,.16-.06,.32-.04,.49-1.9,.63-4.6,6.8-3.54,8.17,.16,.2,.56,.41,.79,.37,3.35-.64,6.86-.93,9.97-2.15,1.9-.74,1.04-3.52,1.79-5.29,.27-.65,.4-1.37,.51-2.07,.12-.76-.59-.69-1.06-.82,.04-.13,.05-.27,.04-.41,.67-.39,1.7-.34,2.24-1.56-3.79,.59-7.23,1.04-10.63,1.7-1.21,.24-2.13,.97-.07,1.58Zm-34.88,20.06c1.4-1,.66-2.31,.11-3.19-.53-.86-1.71-.23-2.61,.01-1.31,.35-2.64,.65-3.97,.97-2.21,.4-1.61,2.26-1.42,3.31,.22,1.26,1.59,.3,2.39,.16,1.85-.32,3.66-.83,5.49-1.27Zm-42.46,6.32c-.03,.5-.11,1.05,.63,1.15,2.37,.31,4.67-.17,6.96-.65,1.08-.23,.6-1.12,.68-1.76,.36-1.51,.56-2.71-1.89-1.97-1.72,.52-3.57,.65-5.36,.9-1.74,.25-1.87,1.08-1.01,2.32Zm-.8-11.21c-.97,2.08-.35,4.2-.18,6.31,.07,.84,.38,1.16,1.39,1.19,6.25,.22,8.8-2.28,8.3-8.03-.12-1.37-.97-1.04-1.72-1.17-.22-.57,.28-1.78-.81-1.58-2.6,.48-5.8,.01-6.98,3.28Zm60.73,5.03c.2-.52,.83-1.18,.07-1.56-1.42-.72-4.44,1.18-4.58,2.78-1.02,9.8-.74,19.71-3.12,29.39-.52,2.11-.05,4.33,1.13,6.34,1.16-.71,2.07-1.6,3.14-1.86,2.17-.53,2.49-2,2.6-3.69,.63-10.46,1.04-20.93,.75-31.41Zm-58.57,14.63c.09,1.11-.01,2.27,.29,3.32,2,6.92,2.42,13.99,2.02,21.07-.2,3.58,.44,6.84,2.03,10.01,.14,.2,.28,.41,.42,.61,2.61,.38,3.71-.6,3.61-3.18-.15-3.8,.19-7.6-.05-11.42-.49-7.6-.68-15.22-1-22.84,.83-3.23-.84-3.36-3.54-2.81-4.84,.98-4.87,.89-3.78,5.23Zm18.12,.7c-1.12-1-.93-1.84-.92-2.58,.03-6.73,.06-13.46,.16-20.2,.02-1.21,.29-2.42,.55-3.61,.29-1.3,1.14-2.44,2.57-2.35,3.09,.2,2.42-3.05,4.28-3.95,.39-.19,0-.66-.36-.95-2.87-2.24-9.77-1.44-11.99,1.44-2.26,2.93-2.7,6.39-2.85,9.84-.57,13.67,.64,27.31,.66,40.97,0,3.63,1.71,5.48,4.86,7.19,.82-5.99,1.6-11.74,2.39-17.49,.27,.02,.54,.03,.81,.05,.72,4.8-.33,9.69,.2,14.81,4.3-5.3,4.39-5.31,3.99-11.18-.44-6.4-1.6-12.75-1.46-19.19,.02-.75-.04-1.47-1.1-1.5-1.19-.04-1.37,.69-1.4,1.61-.07,2.21,.31,4.44-.4,7.07Zm18.6-37.99c-3.9,.38-7.36,1.63-9.56,4.88-2.3,3.4-4.32,6.85-4.58,11.14-.34,5.62-.46,11.22-.12,16.82,.32,5.29,.38,10.67,1.58,15.81,1.53,6.59,2.69,13.09,1.82,19.82-.08,.63-.66,1.51,.35,1.86,.96,.33,1.62-.35,2.09-1.07,1.38-2.12,2.08-4.47,2.43-6.91,1.36-9.55,.74-19.14,.4-28.72-.25-7.08-.74-14.15,1.81-21.03,1.52-4.12,3.64-7.44,8.87-7.53,.98-.02,1.62-.38,1.92-1.3,.37-1.13-.38-1.7-1.16-2.28-1.73-1.27-3.82-1.19-5.84-1.5Zm20.61,58.7c-4.91,1.6-6.74,5.02-7.76,8.95-.25,.96-.97,2.9,1.22,2.6,1.88-.26,5.02,2.3,5.55-1.72,.41-3.11,.63-6.23,.98-9.83Zm-32.65,5.05c0-1.12-.02-2.24,0-3.36,.02-.92-.53-1.73-1.25-1.98-.96-.34-1.42,.72-1.9,1.33-1.76,2.26-2.73,4.87-2.97,7.63-.08,.97-1.29,2.75,.79,2.96,1.53,.15,3.51,.93,4.54-1.58,.7-1.7,.87-3.29,.78-4.99Zm17.09-51.7c.75-2.63-.84-2.73-3.16-2.19-3.23,.76-5.68,4.56-5.04,7.81,.18,.89,.75,.81,1.36,.83,4.69,.18,6.64-1.59,6.84-6.45Zm50.36,53.78c3.21-.37,5.61-.56,7.97-.97,1.31-.23,3.32-4.72,2.88-5.94-.32-.89-1.05-.6-1.56-.45-3.92,1.14-6.36,3.93-9.29,7.36Zm-37.49-54.49c.45,1.04-1.02,2.81,.86,3.28,1.17,.29,3.11,.08,3.71-1.16,.64-1.32,.63-2.97,.65-4.48,.01-.95,1.13-2.51-.54-2.79-1.31-.22-2.8,.22-3.85,1.58-.88,1.15-.46,2.33-.83,3.56Zm16.63,55.12c.4,.8-.45,2.28,.78,2.32,1.62,.04,3.29-.62,4.89-1.1,.21-.06,.4-1.12,.18-1.35-1.34-1.39-1.33-3.33-2.36-4.8-.33-.47-.87-1.04-1.38-1.11-.76-.1-.91,.75-1.04,1.29-.4,1.57-.71,3.16-1.05,4.76Zm-60.93-3.66c0,2.5,.09,4.52-.03,6.53-.11,1.86,.86,1.95,2.39,1.69,3.64-.63,3.86-.97,2.06-4.03-.93-1.59-1.93-3.18-4.42-4.19Zm39.2-5.1c-.75,1.59-1.72,2.58-2.88,3.41-1.94,1.4-.06,2.69,.18,4.01,.1,.51,.13,1.43,1.04,1.17,1.21-.35,.91-1.72,1.54-2.5,1.46-1.79,1.39-3.68,.12-6.09Zm-57.55,5.27c-1.66,1.69-2.6,3.35-3.48,5.07-.66,1.29-.25,1.7,1.24,1.86,2.11,.23,3.29-.18,3.01-2.46-.17-1.37,.11-2.79-.76-4.47Zm29.1-45.88c.05-.66,.14-1.08,.09-1.47-.11-.78,.82-2.03-.73-2.19-1.47-.15-1.53,1.11-1.67,2.11-.06,.4-.16,.83-.07,1.21,.37,1.54-1.22,4.34,.75,4.43,2.76,.14,1.03-2.84,1.62-4.09Zm62.26-6.54c-3.57,.82-7.14,1.63-10.7,2.46-.64,.15-.72,.71-.67,1.22,.05,.5,.52,.67,.93,.51,3.5-1.35,7.4-1.69,10.45-4.19Zm-26.17,5.55c-.97,.42-2.99-.04-3.11,2.22-.06,1.12,.73,1.3,1.4,1.04,1.33-.52,3.42-.04,3.69-2.15,.14-1.12-.56-1.4-1.97-1.1Zm-38.67,9.15c.15,.67-.5,1.79,.97,1.76,1.61-.03,1.38-1.25,1.38-2.23,0-.76,.29-1.84-.99-1.82-1.62,.02-1.2,1.35-1.35,2.3Zm17.6-16.12c2.53,.37,4.42-.03,6.92-1.51-2.87-.06-4.84,.03-6.92,1.51Z"/>
  <path class="cls-16" d="M210.25,177.48c0,.39,0,.77,0,1.16-1.15,.51-2.36,1.02-.42,2.09,.83,.46,1.66,.9,2.5,1.33,4.1,2.11,8.54,3.18,13.12,3.86,.79,.12,2.24-.12,1.26,1.45-6.09-1.48-12.06-1.19-18.24,.1-5.94,1.24-11.97,.2-17.63-2.08-1.35-.55-2.56-.63-4.02-.22-9.39,2.71-18.83,3.12-28.03-.57-4.01-1.61-7.27,.75-10.88,1.12-6.24,.64-12.38,1.31-18.33-1.25-1.22-.53-2.31-.16-3.42,.21-8.65,2.87-17.26,3.95-25.91-.07-1.95-.91-3.71,.65-5.48,1.09-6.25,1.56-12.43,2.18-18.7,.39-1.75-.5-3.39,.04-5.02,.39-4.77,1.03-9.58,1.11-14.41,.58-1.05-.11-2.56,.1-2.59-1.63,5.9,.45,11.81,1.27,17.05-.49-1.25-1.43-2.68-2.83-3.8-4.42-1.2-1.72-2.59-2.06-4.64-1.59-2.82,.64-5.71,.86-8.61,.36,.05-.38,.1-.77,.16-1.15,10,.31,18.96-3.09,28.48-7.02-9.75-3.09-18.62-2.33-27.37,.99-.21-.04-.4,0-.57,.13-.28-.09-.56-.17-.83-.26,0-.85-.02-1.69-.03-2.54,3.02,1,5.72-.04,8.83-1.09-1.61-1.3-2.9-2.39-4.77-2.59-.43,.05-.85,.1-1.28,.15q-.77-1.31,1.92-1.45c1.07,.43,2.32,.66,3.2,1.33,4.46,3.35,8.96,2.47,13.38,.15,5.91-3.11,11.65-3.15,17.18,.61,2.45,1.67,5.14,1.1,6.86-.18,7.23-5.36,14.54-3.87,21.94-.82,1.43,.59,2.42,.8,3.82-.02,6.87-4.02,13.64-3.23,20.22,.69,1.01,.6,1.9,1.29,3.15,1.31,.27,.65,.91,.72,1.51,.86-8.06,1.06-15.07,4.7-22.94,8.23,14.3,4.76,26.34,.02,38.29-5.3,.89,.23,1.77,.47,2.66,.7-1.31,1.16-3.23,.98-4.64,1.92-1.42,.95-4.62,1.08-4.26,2.39,.55,2.02,3.41,2.3,5.66,2.62,4,.56,7.83-.58,11.72-1.01,.62,.1,1.27,.12,1.66,.7-6.79,1.93-13.66,3.41-20.1-.65-2.68-1.69-4.39-.49-6.62,.45,6.89,7.27,24.61,9.45,34.9,5.09-1.94-1.2-3.79-2.34-5.64-3.48,.04-.48,.08-.97,.12-1.45,.99-.1,1.53,.63,2.19,1.12,4.34,3.17,9.28,5.04,14.59,6.05,5.68,1.08,11.29,.88,17.4-.97-2.44-1.26-4.63-1.74-6.12-3.21-1.44-1.42-2.94-1.58-4.9-1.24-5.01,.86-9.97,.84-14.88-.95-1.8-.66-2.8-2.6-4.96-2.47-.29-.27-.57-.55-.86-.82,4.97-1.76,9.94-3.52,14.91-5.28,.49,.63,1.22,.48,1.89,.51-3.86,1.41-7.72,2.82-11.58,4.22-.48,.17-1.15,.19-1.18,.82-.03,.57,.51,.87,.98,1.05,3.08,1.17,6.16,2.25,9.58,2.15,4.31-.12,8.44-1.04,12.57-2.1Zm-107.23,1.13c-2.6-1.43-5.06-.88-7.46,.46,3.72,4.12,8.55,6.22,14.15,6.65,5.57,.42,10.96-.38,16.29-2.58-2.57-2.59-4.41-5.7-8.61-3.96-.03-.38-.06-.76-.09-1.14,7.02-1.79,13.52-4.78,20.53-7.91-5.37-2.79-10.56-3.06-15.93-2.11-6.99,1.24-12.5,5.66-18.96,8.06-1.03,.38-.25,.93,.18,1.35-.03,.39-.06,.79-.09,1.18Zm7.29-8.11c-7.55-5.8-25.96,.56-35.8,5.99,6.96,6.61,26.71,.48,35.8-5.99Zm-26.28,15.35c4.2-.12,8.27-.94,12.28-2.03,.69-.19,1.79-.8,.76-1.35-1.86-1-2.86-3.3-5.93-2.6-6.14,1.41-12.31,1.6-17.86-2.21-.7-.48-1.7-1.04-2.69-.56-.94,.46-2.46,.14-2.82,1.17-.36,1.05,.87,1.76,1.61,2.43,4.09,3.7,9.17,4.94,14.64,5.15Zm70.38-3.08c-3.19-1.72-4.73-4.21-8.1-3.49-6.53,1.38-13,1.08-19.35-1.08-1.11-.38-2.71-1.69-3.41-.35-.61,1.18,1.31,2.07,2.21,3.01,.21,.22,.5,.38,.77,.54,8.71,5.21,17.77,3.91,27.87,1.36Zm-52.12-16.19c2.1,.26,4.38,.17,6.01,1.21,4.25,2.7,7.74,.72,11.48-1.01-5.88-2.94-11.68-3.8-17.49-.2Zm-10.87,1.4c-4.19-3.85-11.49-3.92-15.82-.13,5.26,2.04,10.52,3.22,15.82,.13Zm53.09,.03c-4.57-3.82-13-5.25-15.83-1.89,2.69,.23,5.57,.39,7.71,1.81,2.9,1.92,5.32,.83,8.12,.08Z"/>
  <path class="cls-16" d="M151.55,163.96c-.54,.25-.65,.72-.69,1.23-1.85-.53-2.01-2.25-2.58-3.56-1.88-4.31-3.03-8.89-4.75-13.24-2.57-6.47-3.96-13.18-5.61-19.85-.18-.74-.32-1.51-1.3-1.39-2.83,.34-5.73-.46-8.21,2.24-2.84,3.1-7,3.5-11.21,2.41-.6-.15-2.22-1.13-1.17,.87,0,.64,.01,1.29,.02,1.93,0,0,.02-.01,.02-.01-.55-.04-1.04,.07-1.34,.57,0,0-.01,0-.01,0-.87,.02-1.79-.22-2.54,.43-2.21,.27-4.41,.4-6.59-.19-.22-.2-.43-.39-.65-.59,.76-.13,1.52-.26,2.28-.39,1.59-.07,3.18-.09,4.76-.24,.89-.08,2.15,.28,2.58-.64,.45-.94-.65-1.61-1.26-2.24-1.79-1.83-1.72-3.08,1.02-3.85,1.22-.34,2.32-.98,3-2.1,.86-.68,1.73-1.35,2.59-2.03,.33,1.33-.3,2.15-1.27,3.13-.89,.9-3.15,1.29-2.52,2.72,.61,1.39,2.67,1.42,4.27,1.6,1.77,.19,3.34-.3,4.91-1.09,2.89-1.45,4.39-3.8,5.1-6.66,1.09-4.46,4.22-6.6,8.74-7.35,1.49-.25,2.95-.64,4.85-1.06-1.34-.96-2.26-1.62-3.17-2.27-3.78-2.71-6.89-2.8-10.95-.46-3.82,2.2-6.22,5.46-7.97,9.25-.41,.9-.48,2.11-2.03,1.86,.04-1.18,.26-2.25-1.81-1.69-3.71,.99-7.51,1.69-11.27,2.51-.51-.51-1.03-1.03-1.54-1.54-2.11-1.43-3.62-3.35-5-5.4-3.8-5.62-7.5-11.25-10.7-17.24-6.09-11.41-10.97-23.23-15.47-35.26-2.24-6-4.35-12.02-6.24-18.12-.33-1.07-1.64-2.47,.28-3.48,2.26,4.7,3.54,9.75,5.25,14.61,4.74,13.46,10.01,26.66,16.53,39.45,3.47,6.8,7.67,13.14,11.87,19.49,1.23,1.86,2.99,3.4,4.54,5.06,.51,.55,1.14,.97,1.99,.65,2.06-.79,4.42-.61,6.46-1.78-.98-2.25-3.22-3.32-4.63-5.06-6.11-7.49-10.87-15.78-15.47-24.13-2.81-5.11-4.57-10.68-7.12-15.94-3.52-7.27-5.25-15.18-8.51-22.58-1.92-4.37-2.22-9.29-4.38-13.64,.21-.56,.26-1.38,1.01-1.4,.76-.03,.84,.78,1.01,1.34,1.03,3.5,1.73,7.13,3.13,10.49,2.63,6.3,4.05,12.99,6.78,19.22,2.9,6.63,5.2,13.55,8.64,19.9,2.22,4.1,4.08,8.43,6.71,12.33,4.17,6.19,8.04,12.58,13.65,17.79,2.13,1.98,4.72,1.76,6.33-.74,1.68-2.6,3.49-4.97,6.3-6.71,5.45-3.36,11.05-3.12,15.69,1.42,1.53,1.5,2.94,2.18,5.01,1.76,.11,.07,.22,.13,.33,.2,2.77,1.52,1.35,4,1.55,6.11-.36-.1-.72-.21-1.08-.31-.05-.95-.1-1.9-.15-2.86,.01-.41,.03-.83,.04-1.24-.04-.47-.31-.79-.8-.68-4.21,.93-8.56,1.3-12.75,2.74,.86,.71,1.76,.21,2.56,.39,.01,.18,.01,.36,0,.54-4.25,.35-7.27,1.92-7.21,6.72,3.94-.25,7.88-.48,11.8-.77,1.7-.13,3.39-.39,5.08-.59,1.37,.72,1.47,2.7,.24,4.34-.79-3.89-3.99-1.9-6.17-2.21-2.42-.35-3.47,.62-2.41,2.97,.02,1.73-.41,3.55,1.05,5,.3,2.2,1.38,4.16,2.06,6.24,2.55,7.78,4.04,15.9,8.52,23.04Z"/>
  <path class="cls-7" d="M74.64,38.92c2.16,4.35,2.45,9.27,4.38,13.64,3.26,7.4,4.99,15.31,8.51,22.58,2.55,5.26,4.31,10.84,7.12,15.94,4.6,8.35,9.36,16.64,15.47,24.13,1.42,1.74,3.66,2.81,4.63,5.06-2.04,1.17-4.4,1-6.46,1.78-.85,.32-1.48-.1-1.99-.65-1.55-1.66-3.31-3.21-4.54-5.06-4.2-6.36-8.4-12.69-11.87-19.49-6.52-12.79-11.79-25.98-16.53-39.45-1.71-4.86-2.99-9.91-5.25-14.61,2.11-1.39,3.43-3.98,6.52-3.87Z"/>
  <path class="cls-11" d="M302.24,119.83c.02,.84,.04,1.67,.07,2.51-.65,.75-.49,1.61-.37,2.46-.14,.61-.28,1.22-.41,1.83-.06,.23-.13,.46-.19,.69-1.25,2.89-1.32,5.86-1.1,8.95,.66,9.39-2.59,17.29-10.56,23.18-.76,.56-.93,1.31-1.24,2.05-2.59,6.18-7.2,10.43-13.68,12.88-.66-.05-1.33-.15-1.86,.38-.35,.12-.7,.23-1.04,.35-.32,.1-.64,.2-.96,.3,0,0-.09,.14-.09,.14,0,0-.17-.02-.17-.02-.79,.19-1.06,.67-.89,1.4,0,0,0,.01,0,.01-.8-.62-1.39-1.38-2.68-1.4-3.09-.06-6.18-.38-9.27-.6,.56-.38,1.12-.77,1.68-1.15,.56,0,1.12,0,1.68,0,2.21,1.52,4.69,.73,7.04,.63,7.91-.32,17.19-7.25,18.2-12.92-1.83,.09-3.53,1-5.35,.68-1.84-.32-2.57,.61-3.36,2.03-3.19,5.74-8.18,8.59-15.13,8.05-.62-1.74,1.04-.57,1.44-1.02,1.66-.64,3.66-.09,5.14-1.35l.16,.03,.15-.06c.58-.17,1.17-.33,1.39-.96,4.66-2.91,7.1-7.04,7.95-12.25,.63-3.87,.72-7.7,.33-11.57,.44-.04,.87-.08,1.31-.13,.85,3.73,.14,7.5,.07,11.26,3.79-.52,6.64-3.53,7.82-7.91,1.94-7.23-.23-13.68-4.04-19.84-.35-.57-.22-1.72-1.15-1.61-.88,.11-1.79,.7-2.09,1.64-.59,1.85-1.09,3.72-1.62,5.58-.32-1.04,.2-2.21-.52-3.19,.13-.58,.06-1.32,.41-1.71,2.77-3.03,2.85-6.39,1.55-9.96,.55,0,1.09,0,1.64,.01,.97,4.09,2.47,7.98,4.77,11.57,.6,.93,.53,2.68,1.99,2.6,1.71-.1,1.68-1.91,2.02-3.09,.42-1.46,.58-3,.69-4.52,.3-3.92-.9-7.66-1.65-11.45,.79-.37,.42-1.54,1.36-1.81-.3,1.54,.34,2.86,.87,4.52,5-4.92,7.81-10.45,9.3-16.67,.37-1.55-.34-1.77-1.67-1.6-.95,.12-1.92,.2-2.88,.25-2.32,.12-3.21,1.04-3.12,3.46,.12,3.2-.02,6.5-1.94,9.38-.04-.49-.12-.97-.65-1.23,.75-3.04,1.38-6.07,1.16-9.25-.2-3-1.44-5.91-.88-8.97,.34,.15,.69,.3,1.03,.45,.23,5.33,.32,5.4,5.52,4.48,5.66-1,11.32-1.99,16.98-2.99-.19,.44-.38,.88-.57,1.32-2.94,.56-5.88,1.12-8.82,1.67-.81,.15-1.92-.08-2.1,.99-.68,4.02-2.87,7.66-3.33,11.73-.07,.87-.21,1.76,.66,2.39,.12,.14,.16,.31,.11,.49-.12,.91-.35,1.83,.47,2.58,.04,.38,.09,.77,.13,1.15-.13,1.06-.34,2.12,.27,3.11Zm-1.45-2.41c-.37-1.84-.75-3.68-1.19-5.83-1.23,1.22-2.41,2-3,3.07-1.08,1.94-3.97,3.08-3.59,5.54,.83,5.42,.48,10.54-2.55,15.35-.52,.82-.29,2.01,.39,2.57,1.06,.86,1.72-.44,2.3-.95,4.04-3.53,6.59-7.87,7.59-13.01,.78-2.24,.75-4.48,.04-6.73Zm-1.94,22.08c0-.92,.08-1.84-.03-2.74-.08-.64,.29-1.6-.58-1.86-.73-.22-1.32,.38-1.8,.98-1.1,1.39-2.37,2.65-3.93,3.57-1.25,.74-1.59,1.68-1.56,3.05,.16,7.24-2.65,12.8-10.18,15.51-1.17,.42-1.37,1.35-1.22,2.22,.21,1.17,1.38,.7,2.11,.64,4.17-.3,7.7-2.18,10.18-5.15,3.94-4.69,7.09-9.87,7-16.22Z"/>
  <path class="cls-4" d="M315.4,94.39c-5.66,1-11.32,1.99-16.98,2.99-5.2,.92-5.29,.86-5.52-4.48,2.32,.07,2.7-2.08,4.01-3.18,.45-.03,1,.14,1.16-.51l-.04,.03c.65,0,1.3,.01,1.95,.02,.25,.28,.46,.22,.62-.09,.85-.24,1.79-.33,2.29-1.18,.24-.21,.47-.42,.71-.63,.94,1.53,2.3,.59,3.4,.4,7.77-1.34,15.52-2.78,23.27-4.19,.52,1.08,2.44,.17,2.67,1.69-.08,2.03-.16,4.05-.24,6.08-4.77,.23-9.36,1.47-14.01,2.37-.65,.12-1.29,.24-1.94,.36l-1.33,.31Z"/>
  <path class="cls-13" d="M303.25,79.45c4.69-3,6.64-8.03,9.85-12.12,.96-1.22,1.47-2.59-1.14-2.91-.92-.11-2.34-.44-2.5-1.62-.16-1.22,1.25-1.65,2.09-2.06,2.61-1.27,4.6-3.3,6.98-4.84,.81-.53,1.64-1.24,2.58-.86,.92,.37,.6,1.43,.61,2.21,.06,2.76-.03,5.52,.12,8.27,.12,2.23-.92,3-2.81,1.88-2.31-1.37-2.94-.41-3.92,1.48-2.6,5-6.08,9.43-10.62,13.04-1.17,1.14-3.13,1.64-3.29,3.61v-.05c-.94-.54-1.26,.39-1.8,.72-2.63,1.61-5.23,3.26-7.84,4.9,.22-1.17,.45-2.34,.67-3.51,4.39-1.83,8-4.6,11.01-8.12Z"/>
  <path class="cls-9" d="M55.32,172.11c8.76-3.32,17.62-4.08,27.37-.99-9.52,3.93-18.48,7.33-28.48,7.02-2.13-1.96-1.91-4.03-.3-6.16,.28,.09,.56,.17,.83,.26,.19-.04,.38-.09,.57-.13Z"/>
  <path class="cls-13" d="M291.68,112.55c-.94,.27-.57,1.43-1.36,1.81-1.35-.34-1.2-1.53-1.51-2.44-1.2-3.53-2.66-6.94-4.38-10.38-1.48,1.5-.92,3.37-1.59,4.9-.08,.42-.17,.84-.25,1.27-.08,1.39-.17,2.79-.25,4.18-1.73,2.07-1.8,4.13,.09,6.15,.02,.4,.04,.81,.06,1.21-.55,0-1.09,0-1.64-.01-.29-.81-1.41,.1-1.69-.74-.78-1.27,.86-1.96,.82-3.05-.23-.16-.46-.31-.69-.47,0,0,0,0,0,0l.02-1.15c1.91-2.18,1.24-4.73,1.16-7.2,.04-.5,.08-1,.13-1.5,.27-.19,.54-.37,.81-.56,.92-.09,1.18-.61,1.04-1.4,.11-1.23-.58-1.51-1.71-1.32-.87,.15-1.5,.03-1.01-1.04,.74-.11,1.49-.17,2.2-.36,.73-.19,1.93,.22,1.93-1.04,0-.69-.11-1.54-.55-2.02-.65-.72-1.64-.33-2.31,.14-4.14,2.91-9.28,4.05-13.46,6.87-2.51,.36-4.66,1.55-6.84,2.66-.43-.02-.87-.05-1.3-.07,.38-1.63,.76-3.26,1.14-4.9,.28,.27,.56,.54,.84,.81,.74,1.41,1.67,.37,2.41,.09,5.8-2.26,11.53-4.68,16.78-7.98,.76-.48,2.46-.33,1.91-1.88-.42-1.17-1.67-.48-2.53-.68,.02-.22,.04-.44,.05-.65,.82-.31,2.14,.31,2.43-1.09-1.07-.63-2.1-.28-3.11-.19,0-.3,0-.6,0-.9,.42-.13,.84-.25,1.27-.38,2.63,.3,2.68-1.33,2.57-3.09,.03-.2,0-.39-.07-.58,.65,.25,.7,.86,.89,1.38-.83,8.88,2.24,16.64,7.6,23.74,.53,.26,.6,.73,.65,1.23-.19,.22-.37,.43-.56,.65Z"/>
  <path class="cls-17" d="M257.78,174.95c3.09,.22,6.18,.54,9.27,.6,1.29,.03,1.88,.79,2.68,1.4-1.82,5.64-6.73,9.2-13.3,9.51-2.02,.09-4.12,.17-6.08-.23-3.55-.73-6.97-.17-10.43,.33,0-.17,0-.35,.02-.52,.88-.1,1.87,.22,2.58-.57,.75-.25,2.18,.43,2.12-.82-.03-.74-1.37-.4-2.14-.46-.25,.02-.51,.03-.76,.05-.66-.39-1.33-.78-1.99-1.17,.29-.27,.59-.55,.88-.82,5.78,2.63,11.88,3.32,18.15,2.47,4.24-.58,8.44-4.53,9.4-8.67-1.86,0-3.7,.2-5.47-.05-2.14-.3-3.91-.09-5.59,1.34-4.92,4.19-10.4,4.29-16.08,1.59-1.46-.69-2.58-.88-3.62,.47-.1-.51-.13-1.05-.71-1.33,4.53-3.37,9.85-5.87,13.21-10.62-1.11-.38-2.01-.69-2.9-.99,0-.38,0-.76-.01-1.13,1.44,.25,2.88,.48,4.31,.76,1.32,.25,2.33,.16,2.17-1.5,1.07,.06,1.28,.82,1.46,1.61-3.89,3.17-7.8,6.32-11.65,9.55-.58,.48-1.55,.97-1.32,1.92,.24,.97,1.28,.84,2.08,1.08,5.47,1.63,9.88-.09,13.7-3.79Z"/>
  <path class="cls-9" d="M239.75,183.07c.66,.39,1.33,.78,1.99,1.17-.09,1.1-1.18,.84-1.81,1.2-3.82,.43-7.65,.7-11.5,.61-.79-.02-2.13-.37-1.75,1.24,0,0,.02,.07,.02,.07,.98-1.57-.47-1.34-1.26-1.45-4.57-.68-9.01-1.76-13.12-3.86-.84-.43-1.67-.88-2.5-1.33-1.94-1.07-.73-1.57,.42-2.09,2.3-.77,4.02-.64,6.15,1.17,3.88,3.29,9.04,3.53,13.62,1.85,3.9-1.42,6.9-1.69,9.73,1.42Z"/>
  <path class="cls-9" d="M54.06,179.29c2.9,.5,5.79,.28,8.61-.36,2.04-.47,3.43-.12,4.64,1.59,1.12,1.59,2.55,2.99,3.8,4.42-5.24,1.76-11.15,.94-17.05,.49-1.86-2.05-1.86-4.09,0-6.14Z"/>
  <path class="cls-4" d="M291.57,91.09c2.61-1.64,5.21-3.29,7.84-4.9,.54-.33,.85-1.26,1.79-.72-.11,1.66,.87,1.35,1.99,1.06,6.7-1.74,13.58-2.73,20.34-4.17,2.68-.57,5.78-.09,8.02-2.18,.23-.45,.61-1.59,1.01-.76,.8,1.65,1.01,3.57,1.34,5.4,.07,.38-.54,.52-.99,.45-.22-1.51-2.14-.61-2.67-1.69-.44-.57-.78-1.05-1.77-.86-8.29,1.59-16.59,3.11-24.9,4.65-.24,.21-.47,.42-.71,.64-1.81-.27-3.64-.6-4.86,1.24l.04-.03c-.47,0-.96-.05-1.16,.51-1.31,1.09-1.68,3.24-4.01,3.18-.34-.15-.69-.3-1.03-.45-.92-.3-.47-.86-.29-1.37Z"/>
  <path class="cls-13" d="M256.03,56.77c2.13-.07,3.08,.33,3.77,1.09,4,4.45,8.56,8.41,12.14,13.26,2.95,3.99,5.86,7.91,7.56,12.53,.29,.79,1.07,1.94-.19,2.29-1.56,.43-.97-1.03-1.24-1.79-2.43-6.9-7.09-12.42-12.11-17.75-2.98-3.17-5.65-6.6-9.93-9.63Z"/>
  <path class="cls-13" d="M232.24,90.48c-.7-.26-1.4-.51-2.09-.77,.64-6.08,2.42-11.77,5.62-17.15,2.31-3.88,4.02-8.09,5.9-12.19,.7-1.52,1.86-2.53,3.18-3.71,.71,1.59-.23,2.54-.87,3.31-3.29,3.98-4.66,8.85-7.05,13.24-2.22,4.07-4.04,8.26-5.02,12.73-.23,1.06-1.51,2.48,.33,3.46,0,.36,0,.73-.01,1.09,0,0,0,0,0,0Z"/>
  <path class="cls-17" d="M331.56,80.18c-2.25,2.09-5.34,1.61-8.02,2.18-6.77,1.43-13.64,2.42-20.34,4.17-1.12,.29-2.1,.61-1.99-1.06,0,0,0,.05,0,.05,1.87,.3,2.4-1.26,3.38-2.2,3.32,1.56,6.45-.22,9.61-.63,4.55-.59,9.02-1.74,13.55-2.53,1.23-.21,2.54,0,3.82,.02Z"/>
  <path class="cls-13" d="M159.53,86.38c-6.74,2.83-7.92,8.38-8.77,14.08-.19,1.3-.18,2.63-.32,3.94-.07,.68-.63,1.17-1.27,1.19-.58,.02-.8-.6-.81-1.13,0-6.83,1.92-12.93,7.45-17.64,.85-.72,1.87-1.45,3.72-.44Z"/>
  <path class="cls-17" d="M283.99,86.93c-.19-.52-.24-1.12-.89-1.38-.12-5.36,6.37-10.52,12.52-9.85,2.62,.29,5.37,.62,6.21,3.71-.39,.14-.78,.27-1.16,.41-4.13-4.21-11.24-3.49-14.28,1.55-1.04,1.73-1.61,3.7-2.4,5.56Z"/>
  <path class="cls-17" d="M107.21,134.43c-.76,.13-1.52,.26-2.28,.39,.22,.2,.43,.39,.65,.59-5.02-.29-10.02-2.59-9.54-4.77,.8-3.63,4-5.61,7.43-7.03,.76-.32,1.76-.17,1.77-1.33,.51,.51,1.03,1.03,1.54,1.54-.44,.28-.87,.56-1.31,.84-2.18,.56-4.15,1.51-5.8,2.99-2.57,2.3-2.31,3.72,.78,5.24,2.15,1.06,4.54,.92,6.77,1.54Z"/>
  <path class="cls-9" d="M58.58,164.46q-2.69,.14-1.92,1.45c.51,.61,.93,.47,1.28-.15,1.87,.2,3.17,1.29,4.77,2.59-3.1,1.05-5.81,2.09-8.83,1.09-1.66-1.4-1.79-3.31-.24-4.4,1.19-.84,2.96-3.34,4.93-.59Z"/>
  <path class="cls-13" d="M226.59,92.18c-1.72-7.71-6.95-12.5-12.41-17.15,6.5,2.5,13.22,9.97,12.41,17.15Z"/>
  <path class="cls-13" d="M187.65,99.64c-.48,.08-.94,.1-1.28-.31,1.68-.42,.61-1.48,.42-2.14-1.42-4.85-4.6-8.54-8.67-11.65-.75-.57-1.93-.94-1.89-2.82,2.82,1.93,5.37,3.54,7.32,5.87,1.61,1.92,2.83,4.05,3.81,6.32,.67,1.55,1.33,3.09,.29,4.73Z"/>
  <path class="cls-17" d="M318.67,93.71c4.65-.9,9.23-2.14,14.01-2.37,.08,1.08-.69,1.35-1.58,1.47-4.17,.55-8.19,1.86-12.43,2.05,0-.38,0-.77,0-1.15Z"/>
  <path class="cls-17" d="M211.05,99.23c-.28-.28-.56-.56-.85-.84,2.98-3.55,6.69-5.57,11.63-4.96,.23,.4,.46,.8,.69,1.2-4.9-.89-8.06,2.13-11.48,4.6Z"/>
  <path class="cls-13" d="M193.67,86.81c.64-3.93,2.91-6.95,6.02-9.5-.69,3.6-3.73,6.11-4.87,9.49-.38,0-.77,0-1.15,.01Z"/>
  <path class="cls-13" d="M193.67,86.81c.38,0,.77,0,1.15-.01-.91,3.18-1.19,6.46-2.03,9.69-.89-3.32-.19-6.51,.88-9.68Z"/>
  <path class="cls-11" d="M226.69,187.3c-.38-1.62,.96-1.26,1.75-1.24,3.85,.09,7.68-.19,11.5-.61,0,.2,0,.4,0,.6-.02,.17-.02,.35-.02,.52-.36,.05-.73,.11-1.09,.16-.25,.04-.49,.09-.74,.13-3.78,.79-7.59,.72-11.41,.45Z"/>
  <path class="cls-11" d="M125.72,135.6c-1.26,.17-1.81-.32-1.67-1.35,.2-1.47,1.58-1.12,2.53-1.3,.95-.18,1.73,.19,1.68,1.29-.09,1.84-1.79,.93-2.54,1.37Z"/>
  <path class="cls-16" d="M134.33,134.54c-1.03,.09-2.03,.05-2.09-1.24-.07-1.43,1.13-1.23,2.04-1.25,.9-.02,2.13-.36,2.26,1,.14,1.52-1.13,1.44-2.2,1.48Z"/>
  <path class="cls-16" d="M151.44,110.64c.32,.37,.65,.74,.97,1.11,0,0-.06,.05-.06,.05-.64,.25-.82,.74-.81,1.35-.43,.98-1.36,1.19-2.32,1.37-.11-.06-.22-.13-.33-.2,1.92-.56,2.03-2.24,2.55-3.67Z"/>
  <path class="cls-17" d="M283.17,86.13c.11,1.76,.06,3.39-2.57,3.09,1.56-.5,1.19-2.45,2.57-3.09Z"/>
  <path class="cls-11" d="M318.67,93.71c0,.38,0,.77,0,1.15-.58,.43-1.24,.49-1.94,.41,0-.4,0-.8,0-1.21,.65-.12,1.29-.24,1.94-.36Z"/>
  <path class="cls-17" d="M316.73,94.07c0,.4,0,.8,0,1.21-.63,.14-1.26,.29-1.9,.43,.19-.44,.38-.88,.57-1.32,.44-.1,.89-.21,1.33-.31Z"/>
  <path class="cls-12" d="M302.24,119.83c-.62-1-.41-2.06-.27-3.11,.46,1.01,.56,2.04,.27,3.11Z"/>
  <path class="cls-16" d="M150.94,166.87c-.4,.79-1.08,.8-1.83,.6,.47-.6,1.22-.42,1.83-.6Z"/>
  <path class="cls-12" d="M301.25,112.49c-.87-.64-.73-1.52-.66-2.39,.52,.72,.66,1.54,.66,2.39Z"/>
  <path class="cls-12" d="M301.94,124.79c-.12-.85-.27-1.71,.37-2.46,.22,.87,.07,1.68-.37,2.46Z"/>
  <path class="cls-12" d="M301.84,115.56c-.82-.75-.59-1.68-.47-2.58,.58,.79,.59,1.68,.47,2.58Z"/>
  <path class="cls-17" d="M112.16,135.6c.75-.65,1.67-.4,2.54-.43-.8,.38-1.64,.58-2.54,.43Z"/>
  <path class="cls-17" d="M116.04,134.61c0-.64-.01-1.29-.02-1.93,.6,.64,.97,1.28,.02,1.93Z"/>
  <path class="cls-17" d="M272.89,174.77c.53-.53,1.2-.43,1.86-.38l-1.86,.38Z"/>
  <path class="cls-12" d="M230.14,89.78c.24,.61,.32,1.21-.03,1.81-.12-.6-.38-1.21,.03-1.81Z"/>
  <path class="cls-17" d="M269.73,176.94c-.16-.73,.1-1.22,.89-1.4-.3,.47-.6,.94-.89,1.4Z"/>
  <path class="cls-17" d="M114.72,135.17c.3-.5,.79-.6,1.34-.57-.3,.5-.77,.64-1.34,.57Z"/>
  <path class="cls-17" d="M270.88,175.41c.32-.1,.64-.2,.96-.3-.32,.1-.64,.2-.96,.3Z"/>
  <path class="cls-12" d="M301.33,127.31c.06-.23,.13-.46,.19-.69-.06,.23-.13,.46-.19,.69Z"/>
  <path class="cls-16" d="M238.1,186.85c.25-.04,.49-.09,.74-.13-.25,.04-.49,.09-.74,.13Z"/>
  <path class="cls-17" d="M225.73,94.74c-.21-.12-.41-.24-.62-.36,.21,.12,.41,.24,.62,.36Z"/>
  <path class="cls-7" d="M232.83,141.91c-.95,6.54-1.4,13.15-3.61,19.5-.81,2.33-2.51,3.92-4.09,5.63-.55,.6-1.46,.94-2.36,.6-1.24-.47-.49-1.41-.39-2.11,2.21-16,2.24-32.1,2.68-48.18,.14-5.31,.66-10.59,1.76-15.77,.66-3.12,2.39-5.98,4.19-8.72,.49-.75,1.37-1.33,1.24-2.38,0,0,0,0,0,0,1.36-.53,2.71-1.09,4.09-1.57,6.33-2.21,11.05-.73,14.8,4.5,.64,.89,.49,1.28-.5,1.49-2.5,.52-5.14,1.72-7.49,1.34-3.5-.56-4.92,1.05-5.73,3.49-1.18,3.54-2.82,6.99-2.99,10.79-.34,7.32-.69,14.64-1.03,21.97-.68,1.46-.48,2.99-.43,4.52,0,.41-.01,.81-.02,1.22-.03,1.23-.07,2.45-.1,3.68Z"/>
  <path class="cls-7" d="M260.55,102.08c-.38,1.63-.76,3.26-1.14,4.9-.48,1.3-1.33,2.39-1.57,3.88-1.01,6.34-2.53,12.6-3.43,18.95-.95,6.65-2.81,13.06-4.84,19.45-1.49,3.59-2.96,7.18-4.49,10.75-.27,.63-.53,1.4-1.43,1.5-1.17,.13-1.21-.93-1.75-1.5-2.96-3.11-2.84-6.22-1.54-10.25,4.61-14.3,7.03-29.08,9.9-43.76,1-5.09,2.45-10.29,5.27-14.84,2.81-4.55,7.31-6.99,12.87-7.43,2.01-.16,3.62,.9,5.29,1.93,1.56,.97,3.02,2.26,2.77,3.75-.21,1.25-2.39,.7-3.67,1.02-.31,.08-.63,.12-.95,.17-7.99,1.26-10.36,3.67-11.29,11.49Z"/>
  <path class="cls-7" d="M211.05,99.23c3.41-2.46,6.57-5.49,11.48-4.6,.94,.48,1.9,.94,2.83,1.45,.87,.48,1.07,1.23,.81,2.11-.27,.89-.86,1.24-1.87,1.33-4.89,.42-5.84,1.24-6.18,5.93-.78,10.87-1.44,21.75-2.13,32.63-.3,4.8-1.23,9.49-2.42,14.15-.4,1.56-1.63,2.56-2.38,3.88-1.12,1.98-2.49,2.27-4.07,.41,0-3.4-.02-6.81-.03-10.21,.34-.69,.38-1.39,.03-2.1,0-3.14,.02-6.28,.02-9.42,.28-.36,.29-.72,0-1.08,.02-2.9,.04-5.81,.05-8.71,.78-4.62,.14-9.28,.53-13.91,.35-4.15,.78-8.26,3.34-11.85Z"/>
  <path class="cls-7" d="M182.72,135.18c.7-2.63,.33-4.86,.4-7.07,.03-.92,.21-1.64,1.4-1.61,1.06,.03,1.11,.75,1.1,1.5-.14,6.44,1.02,12.79,1.46,19.19,.4,5.87,.31,5.87-3.99,11.18-.53-5.11,.52-10.01-.2-14.81-.27-.02-.54-.03-.81-.05-.79,5.75-1.57,11.5-2.39,17.49-3.15-1.71-4.86-3.56-4.86-7.19-.02-13.66-1.23-27.3-.66-40.97,.14-3.46,.58-6.91,2.85-9.84,2.23-2.88,9.13-3.69,11.99-1.44,.36,.28,.75,.76,.36,.95-1.86,.9-1.19,4.14-4.28,3.95-1.43-.09-2.28,1.05-2.57,2.35-.27,1.19-.54,2.41-.55,3.61-.1,6.73-.13,13.46-.16,20.2,0,.74-.19,1.57,.92,2.58Z"/>
  <path class="cls-7" d="M201.32,97.19c2.01,.31,4.11,.24,5.84,1.5,.78,.57,1.53,1.15,1.16,2.28-.3,.92-.94,1.28-1.92,1.3-5.23,.1-7.34,3.42-8.87,7.53-2.55,6.88-2.06,13.95-1.81,21.03,.34,9.58,.96,19.16-.4,28.72-.35,2.44-1.05,4.79-2.43,6.91-.47,.72-1.12,1.4-2.09,1.07-1.01-.35-.43-1.24-.35-1.86,.87-6.74-.29-13.23-1.82-19.82-1.19-5.13-1.25-10.52-1.58-15.81-.34-5.6-.22-11.2,.12-16.82,.26-4.3,2.27-7.74,4.58-11.14,2.2-3.25,5.66-4.5,9.56-4.88Z"/>
  <path class="cls-7" d="M152.35,111.8s.06-.05,.06-.05c1.68-7.17,8.67-8.31,14.01-7.67,.92,.11,1.83,.58,2.65,1.04,1.62,.91,3.29,2.23,2.93,4.02-.3,1.51-2.56,.89-3.85,1.47-.27,.12-.63,.08-.96,.1-6.5,.45-6.69,.57-6.6,6.91,.12,8.39,2.7,16.49,3.41,24.82,.59,6.9,1.75,13.78,.36,20.72-.33,1.63-.74,3.17-1.98,4.4-.58,.57-1.29,.72-2.07,.51-.7-.19-1.07-.66-1-1.37,.78-7.74-2.78-14.86-3.62-22.39-.84-7.58-2.48-15.09-3.77-22.63,.06-2.85,.12-5.7,.18-8.55,.08-.44,.16-.88,.24-1.32Z"/>
  <path class="cls-7" d="M234.2,138.27c.09-.29,.27-.59,.25-.88-.32-7.45,1.65-14.57,3.44-21.72,2.91-1.43,6.19-1.58,9.25-2.48-.41,5.8-1.55,11.53-3.32,17.04-2.66,8.31-3.83,16.99-7.18,25.11-1.46,3.54-3.4,6.89-2.87,10.98,.16,1.22-1.92,1.29-3.03,1.78-.75,.33-1.48,.11-2.01-.52-.84-1,.16-1.64,.5-2.44,3.09-7.45,4.57-15.21,4.75-23.2,.07-1.22,.14-2.45,.22-3.67Z"/>
  <path class="cls-7" d="M202.39,165.14c-1,1.09-.24,3.97-3.28,3-1.59-.5-3.53-4.06-2.76-5.45,1.74-3.13,1.62-6.51,1.66-9.82,.11-8.14-.03-16.29-.07-24.44,.38-3.78,3.2-4.28,6.39-4.29,.43,0,.85-.02,1.28-.03,.05,1.31,.13,2.62,.14,3.93,.04,9.89-.33,19.76-2.1,29.54-.42,2.52-.84,5.03-1.26,7.54Z"/>
  <path class="cls-9" d="M247.03,166.46c.89,.31,1.79,.61,2.9,.99-3.35,4.75-8.68,7.26-13.21,10.62-3,.75-5.7,2.36-8.8,2.77-4.63,.62-8.93,.22-12.5-3.82,8.55-2.95,15.53-8.33,24.25-10.16,2.47-.52,4.9-.34,7.36-.41Z"/>
  <path class="cls-7" d="M168.94,168.89c-1.59-3.17-2.23-6.43-2.03-10.01,.4-7.09-.02-14.16-2.02-21.07-.3-1.05-.2-2.21-.29-3.32,1.08-4.32,1.15-4.35,5.75-2.53,.46,.18,1.05,.08,1.57,.11,.32,7.61,.51,15.23,1,22.84,.24,3.82-.1,7.62,.05,11.42,.11,2.58-1,3.55-3.61,3.18-.14-.2-.28-.41-.42-.61Z"/>
  <path class="cls-9" d="M210.25,177.48c-4.12,1.05-8.26,1.98-12.57,2.1-3.42,.1-6.5-.98-9.58-2.15-.48-.18-1.02-.48-.98-1.05,.04-.64,.7-.65,1.18-.82,3.86-1.4,7.72-2.81,11.58-4.22,6.99-2.23,14.07-3.48,21.39-1.54,.76,.67,1.66,.32,2.51,.31,.52,1.28-.07,1.97-1.31,2.46-4.09,1.61-8.15,3.27-12.23,4.92Z"/>
  <path class="cls-7" d="M151.55,163.96c-4.48-7.14-5.97-15.26-8.52-23.04-.68-2.07-1.76-4.04-2.06-6.24,2.85,.31,5.67-1.5,8.54-.14,2.52,3.24,2.42,7.28,3.65,10.92,.78,2.32,.85,4.9,1.88,7.09,2.31,4.89-.2,8.19-3.48,11.41Z"/>
  <path class="cls-9" d="M197.99,170.82c-4.97,1.76-9.94,3.52-14.91,5.28-2.37,.23-4.61,.93-6.77,1.86-3.9,.43-7.72,1.57-11.72,1.01-2.25-.32-5.11-.6-5.66-2.62-.36-1.31,2.84-1.43,4.26-2.39,1.41-.94,3.33-.76,4.64-1.92,1.02-.29,2.04-.57,3.07-.86,.3-.12,.6-.24,.9-.36,.35-.08,.7-.17,1.05-.25,.9,.16,1.75,.12,2.49-.48,7.64-1.78,15.35-1.07,23.05-.5,.28,.34,.41,.69,.13,1.09l-.28-.02-.23,.16Z"/>
  <path class="cls-9" d="M165.17,171.33c-11.95,5.32-23.99,10.06-38.29,5.3,7.87-3.53,14.88-7.17,22.94-8.23,4.48,.18,8.91,.73,13.27,1.73,.63,.27,1.25,.54,1.88,.81-.05,.18,.02,.32,.2,.4Z"/>
  <path class="cls-7" d="M223.17,119.85c.28,10.48-.12,20.95-.75,31.41-.1,1.69-.42,3.16-2.6,3.69-1.07,.26-1.98,1.15-3.14,1.86-1.18-2.01-1.65-4.24-1.13-6.34,2.38-9.68,2.1-19.6,3.12-29.39,1.69,.23,2.71-1.78,4.5-1.22Z"/>
  <path class="cls-2" d="M279.11,145.1c.39,3.87,.31,7.7-.33,11.57-.85,5.21-3.29,9.34-7.95,12.25-.61,.13-1.72-.39-1.39,.96l-.15,.06s-.16-.03-.16-.03c-2.27-.56-2.52-2.1-1.55-4.7,.87-2.33,3.49-4.52,1.3-7.38,.83-5.7,3.85-9.97,9.19-12.73,.35,0,.7,0,1.05,0Z"/>
  <path class="cls-1" d="M257.78,174.95c-3.82,3.69-8.23,5.42-13.7,3.79-.81-.24-1.84-.1-2.08-1.08-.24-.94,.74-1.43,1.32-1.92,3.84-3.23,7.76-6.37,11.65-9.55,1.86-.92,3.61-2.02,5.78-2.37,4.11-.66,4.26-.58,3.04,3.15-1.44,2.27-2.88,4.55-4.32,6.82l-1.68,1.15Z"/>
  <path class="cls-1" d="M237.44,179.41c1.04-1.35,2.16-1.17,3.62-.47,5.68,2.7,11.16,2.6,16.08-1.59,1.68-1.43,3.45-1.64,5.59-1.34,1.77,.25,3.61,.05,5.47,.05-.96,4.15-5.16,8.1-9.4,8.67-6.27,.85-12.38,.16-18.15-2.47-1.07-.95-2.13-1.89-3.2-2.84Z"/>
  <path class="cls-4" d="M279.96,92.44c.86,.2,2.12-.49,2.53,.68,.55,1.55-1.15,1.4-1.91,1.88-5.25,3.3-10.98,5.73-16.78,7.98-.74,.29-1.67,1.32-2.41-.09,.58-1.62,1.28-3.2,1.69-4.86,.51-2.05,1.81-2.86,3.9-2.79,4.32-.94,8.86-1,12.97-2.8Z"/>
  <path class="cls-4" d="M249,98.34c.48,.14,1.18,.07,1.06,.82-.11,.7-.24,1.42-.51,2.07-.74,1.77,.11,4.55-1.79,5.29-3.11,1.21-6.62,1.5-9.97,2.15-.23,.04-.63-.16-.79-.37-1.06-1.37,1.64-7.54,3.54-8.17,2.82-.58,5.82-.44,8.46-1.8Z"/>
  <path class="cls-16" d="M249.58,149.25c2.03-6.39,3.89-12.8,4.84-19.45,.9-6.35,2.42-12.61,3.43-18.95,.24-1.49,1.09-2.58,1.57-3.88,.43,.02,.87,.05,1.3,.07-.87,6.32-3.29,12.35-4.25,18.59-.97,6.33-2.04,12.63-3.56,18.85-.55,2.27-.42,4.89-2.66,6.59-.04-.67,.13-1.4-.67-1.82Z"/>
  <path class="cls-4" d="M170.23,113.12c.76,.14,1.61-.19,1.72,1.17,.5,5.75-2.05,8.25-8.3,8.03-1.01-.04-1.33-.36-1.39-1.19-.17-2.11-.79-4.23,.18-6.31,2.57-.69,5.36-.45,7.79-1.7Z"/>
  <path class="cls-5" d="M221.92,155.89c-.35,3.6-.57,6.73-.98,9.83-.53,4.02-3.67,1.46-5.55,1.72-2.2,.3-1.47-1.65-1.22-2.6,1.02-3.93,2.86-7.34,7.76-8.95Z"/>
  <path class="cls-5" d="M189.27,160.94c.09,1.71-.08,3.3-.78,4.99-1.04,2.5-3.01,1.72-4.54,1.58-2.08-.2-.88-1.99-.79-2.96,.24-2.77,1.21-5.37,2.97-7.63,.48-.61,.93-1.66,1.9-1.33,.72,.25,1.27,1.06,1.25,1.98-.02,1.12,0,2.24,0,3.36Z"/>
  <path class="cls-13" d="M203.65,157.6c1.77-9.78,2.14-19.64,2.11-29.54,0-1.31-.09-2.62-.14-3.93,.2-.22,.4-.44,.59-.66,.69,.29,.77,.94,.97,1.52-.02,2.9-.04,5.81-.05,8.71,0,.36,0,.72,0,1.08,0,3.14-.02,6.28-.02,9.42,0,.7-.02,1.4-.03,2.09,0,3.4,.02,6.81,.03,10.21-.31,.29-.62,.58-.93,.87-1.03,.49-.72,1.55-1.08,2.32-1.51-.07-1.18-1.27-1.43-2.11Z"/>
  <path class="cls-4" d="M206.36,109.24c-.2,4.87-2.15,6.63-6.84,6.45-.62-.02-1.19,.06-1.36-.83-.64-3.25,1.82-7.05,5.04-7.81,2.32-.55,3.91-.44,3.16,2.19Z"/>
  <path class="cls-5" d="M205.08,159.71c.36-.77,.05-1.83,1.08-2.32,2.03,2.22,3.73,4.62,4.74,7.44,.49,1.36,.24,2.29-1.35,2.24-2.11-.06-4.5,2.84-6.32-.48,.39-2.35,2.38-4.31,1.84-6.89Z"/>
  <path class="cls-2" d="M256.72,163.02c2.92-3.43,5.36-6.22,9.29-7.36,.52-.15,1.25-.44,1.56,.45,.44,1.22-1.57,5.72-2.88,5.94-2.36,.41-4.77,.59-7.97,.97Z"/>
  <path class="cls-4" d="M219.23,108.53c.37-1.23-.04-2.41,.83-3.56,1.04-1.36,2.54-1.8,3.85-1.58,1.66,.29,.55,1.84,.54,2.79-.02,1.51-.01,3.16-.65,4.48-.6,1.23-2.54,1.45-3.71,1.16-1.88-.47-.41-2.25-.86-3.28Z"/>
  <path class="cls-5" d="M235.86,163.65c.35-1.6,.65-3.19,1.05-4.76,.14-.55,.29-1.39,1.04-1.29,.51,.06,1.06,.64,1.38,1.11,1.03,1.48,1.03,3.42,2.36,4.8,.22,.23,.03,1.29-.18,1.35-1.6,.49-3.26,1.15-4.89,1.1-1.23-.03-.38-1.52-.78-2.32Z"/>
  <path class="cls-13" d="M279.11,145.1c-.35,0-.7,0-1.05,0,0-.35-.01-.71-.02-1.06,1.07-1.92,1.34-3.75-.76-5.26,.89-1.87,.25-3.57-.32-5.42-1.01-3.24-1.05-6.59,.11-9.86,.08-.23,.17-.45,.25-.68,.05-.98-.14-2.07,1.24-2.43,.71,1.01-.06,1.91-.24,2.86-.58,3.04-1.64,6.08,.04,9.33,.22-.7,.37-1.18,.52-1.66,.72,.98,.2,2.15,.52,3.19-.01,.33-.03,.65-.04,.98,.13,2.29-.76,4.66,.63,6.84l.42,3.05-1.31,.13Z"/>
  <path class="cls-5" d="M174.94,159.98c2.5,1.02,3.49,2.61,4.42,4.19,1.8,3.06,1.57,3.4-2.06,4.03-1.52,.27-2.5,.17-2.39-1.69,.12-2.01,.03-4.03,.03-6.53Z"/>
  <path class="cls-2" d="M277.28,138.77c2.1,1.51,1.83,3.33,.76,5.26-2.71,.91-5.16,2.15-6.8,4.53-.26,.38-.63,1.9-1.5,.31,1.06-3.64,3.49-6.37,6.46-8.75,.26-.31,.2-.55-.17-.71,0,0,.03-.02,.03-.02,.86,.62,1.16,.14,1.33-.61h-.09Z"/>
  <path class="cls-2" d="M268.87,157.83c2.19,2.85-.42,5.05-1.3,7.38-.97,2.6-.72,4.14,1.55,4.7-1.48,1.26-3.48,.71-5.13,1.35-1.24-.67,.18-1.4-.05-2.1,2.2-3.56,4.11-7.23,4.93-11.33Z"/>
  <path class="cls-7" d="M214.14,154.88c1.27,2.42,1.35,4.3-.12,6.09-.63,.77-.33,2.15-1.54,2.5-.91,.26-.94-.65-1.04-1.17-.25-1.32-2.13-2.61-.18-4.01,1.16-.83,2.13-1.82,2.88-3.41Z"/>
  <path class="cls-7" d="M163.24,126.03c-.86-1.25-.73-2.07,1.01-2.32,1.8-.26,3.65-.39,5.36-.9,2.45-.74,2.25,.46,1.89,1.97-2.65,1.05-5.41,1.44-8.27,1.26Z"/>
  <path class="cls-5" d="M156.59,160.15c.88,1.68,.6,3.1,.76,4.47,.28,2.28-.89,2.69-3.01,2.46-1.49-.16-1.9-.57-1.24-1.86,.88-1.72,1.82-3.38,3.48-5.07Z"/>
  <path class="cls-4" d="M279.32,90.5c1.02-.09,2.05-.44,3.11,.19-.29,1.4-1.61,.78-2.43,1.09-4.95,.69-9.74,2.37-14.83,2.22,2.8-1.86,6.19-1.61,9.31-2.26,1.64-.34,3.3-.53,4.83-1.25Z"/>
  <path class="cls-4" d="M185.69,114.26c-.59,1.25,1.14,4.23-1.62,4.09-1.97-.1-.39-2.89-.75-4.43-.09-.38,.01-.81,.07-1.21,.14-1,.19-2.26,1.67-2.11,1.55,.16,.62,1.41,.73,2.19,.06,.39-.04,.8-.09,1.47Z"/>
  <path class="cls-13" d="M276.19,140.13c-2.97,2.37-5.39,5.11-6.46,8.75-.11-.54-.12-1.14-.75-1.44,.85-3.61,2.79-6.44,6.43-8.03l.78,.73Z"/>
  <path class="cls-3" d="M247.14,113.19c-3.06,.91-6.35,1.06-9.25,2.48-.5-.09-1.16-.03-1.48-.31-.43-.38,.13-.75,.48-.85,3.16-.91,6.22-2.19,9.53-2.57,1.09-.12,1.37,.36,.72,1.24Z"/>
  <path class="cls-7" d="M206.21,123.47c-.2,.22-.4,.44-.59,.66-.43,0-.85,.03-1.28,.03-3.19,0-6.01,.5-6.39,4.29-.34-4.52-.36-4.59,4.51-5.58,1.22-.25,2.95-1.97,3.76,.61Z"/>
  <path class="cls-12" d="M265.18,94c5.09,.15,9.88-1.53,14.83-2.22-.02,.22-.04,.44-.05,.65-4.12,1.8-8.65,1.87-12.97,2.8-.38-.7-1.75-.11-1.8-1.24Z"/>
  <path class="cls-12" d="M170.23,113.12c-2.43,1.25-5.22,1.01-7.79,1.7,1.18-3.27,4.38-2.8,6.98-3.28,1.08-.2,.58,1.01,.81,1.58Z"/>
  <path class="cls-16" d="M205.08,159.71c.54,2.57-1.45,4.54-1.84,6.89-.09-.59-.2-1.16-.85-1.45,.42-2.51,.84-5.03,1.26-7.54,.26,.84-.07,2.04,1.43,2.11Z"/>
  <path class="cls-4" d="M240.58,99.65c-2.07-.61-1.15-1.35,.07-1.58,3.4-.66,6.83-1.11,10.63-1.7-.55,1.22-1.57,1.17-2.24,1.56-2.85,.45-5.87,.12-8.45,1.72Z"/>
  <path class="cls-13" d="M150.87,121.7c-.03-.36-.07-.71-.1-1.07-.19-2.11,1.23-4.59-1.55-6.11,.96-.17,1.89-.38,2.32-1.36,.19-.02,.38-.02,.57-.02-.06,2.85-.12,5.7-.18,8.55-.36,0-.71,.01-1.07,.02Z"/>
  <path class="cls-1" d="M253.5,164.59c.16,1.65-.86,1.75-2.17,1.5-1.43-.27-2.87-.51-4.31-.76,.38-1.78,1.92-1.27,3.06-1.26,1.14,0,2.29,.34,3.43,.52Z"/>
  <path class="cls-17" d="M263.93,169.16c.24,.69-1.19,1.43,.05,2.1-.4,.45-2.06-.72-1.44,1.02-.47,.51-.93,1.02-1.4,1.53-.56,0-1.12,0-1.68,0,1.44-2.27,2.88-4.55,4.32-6.82,.05,.72,.1,1.45,.15,2.17Z"/>
  <path class="cls-12" d="M240.58,99.65c2.59-1.6,5.61-1.28,8.45-1.72,.01,.14,0,.28-.04,.41-2.64,1.35-5.63,1.21-8.46,1.8-.02-.16,0-.33,.04-.49Z"/>
  <path class="cls-4" d="M200.71,106.31c2.08-1.48,4.05-1.56,6.92-1.51-2.5,1.48-4.39,1.88-6.92,1.51Z"/>
  <path class="cls-17" d="M234.2,138.27c-.07,1.22-.14,2.45-.22,3.67-.38-.01-.77-.03-1.15-.04,.03-1.23,.07-2.45,.1-3.68,.42,.02,.85,.03,1.27,.05Z"/>
  <path class="cls-17" d="M232.95,137.01c-.06-1.52-.25-3.06,.43-4.52-.01,1.52,.55,3.08-.43,4.52Z"/>
  <path class="cls-16" d="M175.33,170.08c-.74,.6-1.59,.64-2.49,.48,.72-.68,1.64-.4,2.49-.48Z"/>
  <path class="cls-16" d="M164.4,169.57c.24,.14,.47,.28,.71,.43-.05,.31-.09,.63-.14,.94-.63-.27-1.25-.54-1.88-.81,.44-.18,.87-.37,1.31-.55Z"/>
  <path class="cls-16" d="M198.5,170.67c.28-.4,.16-.75-.13-1.09,.36,.07,1.02,.09,1.04,.22,.11,.6-.42,.75-.92,.87Z"/>
  <path class="cls-16" d="M171.79,170.81c-.3,.12-.6,.24-.9,.36,.3-.12,.6-.24,.9-.36Z"/>
  <path class="cls-16" d="M168.94,168.89c.14,.2,.28,.41,.42,.61-.14-.2-.28-.41-.42-.61Z"/>
  <path class="cls-9" d="M110.31,170.5c-9.09,6.47-28.84,12.61-35.8,5.99,9.84-5.43,28.25-11.79,35.8-5.99Z"/>
  <path class="cls-9" d="M103.11,177.43c-.43-.41-1.21-.96-.18-1.35,6.46-2.4,11.96-6.82,18.96-8.06,5.37-.95,10.55-.68,15.93,2.11-7.01,3.14-13.51,6.12-20.53,7.91-4.79,1.14-9.5,.5-14.18-.61Z"/>
  <path class="cls-9" d="M180.49,180.06c1.85,1.14,3.7,2.28,5.64,3.48-10.28,4.37-28,2.18-34.9-5.09,2.23-.94,3.94-2.14,6.62-.45,6.44,4.07,13.32,2.59,20.1,.65,.84,.47,1.69,.94,2.53,1.4Z"/>
  <path class="cls-9" d="M117.39,179.18c4.2-1.74,6.04,1.37,8.61,3.96-5.33,2.2-10.72,3-16.29,2.58-5.6-.43-10.43-2.53-14.15-6.65,2.4-1.35,4.86-1.89,7.46-.46,4.73,1.6,9.5,2.11,14.37,.57Z"/>
  <path class="cls-9" d="M183.93,176.91c2.16-.13,3.16,1.82,4.96,2.47,4.91,1.79,9.87,1.81,14.88,.95,1.96-.33,3.46-.17,4.9,1.24,1.49,1.47,3.68,1.96,6.12,3.21-6.11,1.85-11.72,2.05-17.4,.97-5.32-1.01-10.26-2.88-14.59-6.05-.66-.48-1.19-1.21-2.19-1.12,.72-1.25,2.41-.79,3.32-1.69Z"/>
  <path class="cls-9" d="M84.03,185.85c-5.47-.22-10.55-1.46-14.64-5.16-.74-.67-1.97-1.38-1.61-2.43,.36-1.03,1.88-.71,2.82-1.17,.99-.48,1.99,.08,2.69,.56,5.55,3.81,11.72,3.62,17.86,2.21,3.07-.7,4.07,1.6,5.93,2.6,1.04,.56-.07,1.17-.76,1.35-4.02,1.09-8.09,1.91-12.28,2.03Z"/>
  <path class="cls-9" d="M154.41,182.77c-10.1,2.55-19.17,3.84-27.87-1.36-.27-.16-.56-.32-.77-.54-.9-.94-2.82-1.84-2.21-3.01,.7-1.34,2.3-.02,3.41,.35,6.35,2.16,12.82,2.46,19.35,1.08,3.37-.71,4.9,1.78,8.1,3.49Z"/>
  <path class="cls-9" d="M102.29,166.57c5.81-3.6,11.61-2.74,17.49,.2-3.73,1.72-7.23,3.7-11.48,1.01-1.63-1.04-3.91-.95-6.01-1.21Z"/>
  <path class="cls-9" d="M91.41,167.97c-5.3,3.09-10.56,1.9-15.82-.13,4.33-3.78,11.63-3.72,15.82,.13Z"/>
  <path class="cls-9" d="M144.5,168c-2.79,.75-5.22,1.84-8.12-.08-2.14-1.42-5.02-1.58-7.71-1.81,2.82-3.35,11.26-1.93,15.83,1.89Z"/>
  <path class="cls-17" d="M117.39,179.18c-4.87,1.54-9.64,1.03-14.37-.57,.03-.39,.06-.79,.1-1.18,4.68,1.11,9.39,1.75,14.18,.61,.03,.38,.06,.76,.09,1.14Z"/>
  <path class="cls-17" d="M183.93,176.91c-.92,.9-2.61,.43-3.32,1.69-.04,.48-.08,.97-.12,1.45-.84-.47-1.69-.94-2.53-1.4-.39-.58-1.04-.6-1.66-.7,2.16-.93,4.39-1.63,6.77-1.86,.29,.27,.57,.55,.86,.82Z"/>
  <path class="cls-8" d="M57.94,165.76c-.36,.61-.77,.76-1.28,.15,.43-.05,.85-.1,1.28-.15Z"/>
  <path class="cls-6" d="M55.32,172.11c-.19,.04-.38,.09-.57,.13,.17-.13,.36-.18,.57-.13Z"/>
  <path class="cls-7" d="M119.86,123.01c1.56,.24,1.62-.97,2.03-1.86,1.74-3.79,4.14-7.05,7.97-9.25,4.06-2.34,7.17-2.25,10.95,.46,.91,.66,1.83,1.31,3.17,2.27-1.9,.42-3.36,.82-4.85,1.06-4.52,.75-7.65,2.89-8.74,7.35-.7,2.86-2.21,5.21-5.1,6.66-1.57,.79-3.14,1.28-4.91,1.09-1.6-.17-3.67-.21-4.27-1.6-.63-1.43,1.63-1.82,2.52-2.72,.97-.98,1.61-1.8,1.27-3.13-.06-.1-.08-.21-.04-.32Z"/>
  <path class="cls-4" d="M107.21,134.43c-2.23-.62-4.63-.48-6.77-1.54-3.09-1.52-3.35-2.94-.78-5.24,1.65-1.48,3.62-2.43,5.8-2.99,.59,.06,1.17,.12,1.76,.18-1.34,1.35-3.73,1.26-5.38,3.82,5.16-2.08,9.38-4.23,14.1-4.93,.46,.54,.91,1.08,1.37,1.62-.68,1.12-1.78,1.76-3,2.1-2.74,.77-2.81,2.02-1.02,3.85,.61,.63,1.71,1.29,1.26,2.24-.43,.91-1.68,.55-2.58,.64-1.58,.15-3.17,.17-4.76,.24Zm-5.02-6.25c-1.26,.73-1.61,1.86-.62,2.54,1.8,1.24,3.95,1.69,6.77,1.43-2.27-1.82-5.98-.26-6.15-3.96Z"/>
  <path class="cls-4" d="M149.69,120.31c.15,1.61-1.45,2.69-1.43,4.26-1.69,.2-3.38,.47-5.08,.59-3.93,.29-7.86,.52-11.8,.77-.05-4.8,2.97-6.37,7.21-6.72,.41,.02,.73-.08,.69-.56l-.05,.02c3.58,.75,6.82-1.18,10.3-1.21,.05,.95,.1,1.9,.15,2.86Z"/>
  <path class="cls-7" d="M148.5,128.91c-2.87,.14-5.67,1.03-8.59,.76-1.05-2.35,0-3.32,2.41-2.97,2.19,.31,5.39-1.68,6.17,2.21Z"/>
  <path class="cls-4" d="M107.23,124.85c-.59-.06-1.17-.12-1.76-.18,.44-.28,.87-.56,1.31-.84,3.76-.82,7.56-1.52,11.27-2.51,2.07-.55,1.85,.52,1.81,1.69-.03,.11-.02,.22,.04,.32-.86,.68-1.73,1.35-2.59,2.03-.46-.54-.91-1.08-1.37-1.62,.43-.55,1.81-.07,1.58-1.54-3.47,.89-6.89,1.77-10.3,2.65Z"/>
  <path class="cls-4" d="M138.59,118.67c-.8-.18-1.7,.32-2.56-.39,4.19-1.45,8.54-1.81,12.75-2.74,.49-.11,.76,.22,.8,.68-3.45,.82-6.89,1.63-10.34,2.45,0,0,.05-.02,.05-.02-.23,0-.46,.01-.7,.02Z"/>
  <path class="cls-12" d="M139.24,118.67c3.45-.82,6.89-1.63,10.34-2.45-.01,.41-.03,.83-.04,1.24-3.48,.04-6.72,1.96-10.3,1.21Z"/>
  <path class="cls-12" d="M138.59,118.67c.23,0,.46-.01,.7-.02,.04,.49-.28,.58-.69,.56,0-.18,0-.36,0-.54Z"/>
  <path class="cls-7" d="M300.66,79.82c-.37,.35-.74,1-1.1,.99-3.89-.03-3.63,4.92-7.14,5.34-.12,.01-.12,.92-.18,1.42-.22,1.17-.45,2.34-.67,3.51-.18,.51-.63,1.07,.29,1.37-.56,3.06,.68,5.97,.88,8.97,.22,3.18-.41,6.21-1.16,9.25-5.36-7.1-8.43-14.86-7.6-23.74,.79-1.86,1.36-3.84,2.4-5.56,3.03-5.05,10.15-5.76,14.28-1.55Z"/>
  <path class="cls-2" d="M280.41,144.97c-.14-1.02-.28-2.03-.42-3.05-.21-2.28-.42-4.56-.63-6.84,.01-.33,.03-.66,.04-.98,.54-1.86,1.04-3.73,1.62-5.58,.3-.94,1.22-1.54,2.09-1.64,.93-.11,.8,1.04,1.15,1.61,3.81,6.15,5.98,12.61,4.04,19.84-1.18,4.39-4.04,7.4-7.82,7.91,.07-3.77,.78-7.53-.07-11.26Z"/>
  <path class="cls-9" d="M282.34,111.88c.08-1.39,.17-2.79,.25-4.18,.37-.37,.43-.8,.25-1.27,.67-1.53,.11-3.4,1.59-4.9,1.72,3.44,3.18,6.86,4.38,10.38,.31,.91,.16,2.1,1.51,2.44,.75,3.79,1.94,7.53,1.65,11.45-.11,1.52-.27,3.06-.69,4.52-.34,1.18-.32,3-2.02,3.09-1.46,.08-1.39-1.67-1.99-2.6-2.3-3.59-3.8-7.48-4.77-11.57-.02-.4-.04-.81-.06-1.21-.03-2.05-.06-4.1-.09-6.15Z"/>
  <path class="cls-2" d="M298.85,139.49c.09,6.35-3.06,11.53-7,16.22-2.49,2.97-6.01,4.85-10.18,5.15-.73,.05-1.9,.53-2.11-.64-.15-.86,.06-1.8,1.22-2.22,7.53-2.71,10.34-8.27,10.18-15.51-.03-1.37,.3-2.31,1.56-3.05,1.56-.92,2.82-2.18,3.93-3.57,.48-.6,1.06-1.2,1.8-.98,.87,.26,.5,1.22,.58,1.86,.11,.9,.03,1.83,.03,2.74Z"/>
  <path class="cls-9" d="M300.76,124.15c-1,5.14-3.55,9.49-7.59,13.01-.58,.51-1.24,1.81-2.3,.95-.69-.56-.91-1.75-.39-2.57,3.03-4.81,3.38-9.93,2.55-15.35-.38-2.46,2.51-3.59,3.59-5.54,.6-1.07,1.77-1.85,3-3.07,.44,2.15,.81,3.99,1.19,5.83-.01,2.24-.03,4.49-.04,6.73Z"/>
  <path class="cls-2" d="M261.14,173.8c.47-.51,.93-1.02,1.4-1.53,6.95,.55,11.94-2.31,15.13-8.05,.79-1.41,1.52-2.35,3.36-2.03,1.81,.31,3.52-.59,5.35-.68-1,5.67-10.28,12.6-18.2,12.92-2.35,.1-4.83,.89-7.04-.63Z"/>
  <path class="cls-7" d="M291.68,112.55c.19-.22,.37-.43,.56-.65,1.92-2.89,2.06-6.19,1.94-9.38-.09-2.41,.8-3.33,3.12-3.46,.96-.05,1.92-.13,2.88-.25,1.34-.17,2.05,.05,1.67,1.6-1.48,6.22-4.3,11.75-9.3,16.67-.53-1.66-1.17-2.98-.87-4.52Z"/>
  <path class="cls-2" d="M278.88,130.9c-.15,.48-.3,.96-.52,1.66-1.68-3.24-.62-6.29-.04-9.33,.18-.95,.95-1.85,.24-2.86,0,0,.02,.09,.02,.09,1-.38,1.21-1,.65-1.87,0,0-.07-.11-.07-.11,.27,.84,1.4-.06,1.69,.74,1.3,3.57,1.23,6.93-1.55,9.96-.36,.39-.29,1.13-.41,1.71Z"/>
  <path class="cls-12" d="M300.76,124.15c.01-2.24,.03-4.49,.04-6.73,.71,2.25,.75,4.49-.04,6.73Z"/>
  <path class="cls-10" d="M269.43,169.87c-.32-1.35,.79-.83,1.39-.96-.23,.63-.82,.79-1.39,.96Z"/>
  <path class="cls-12" d="M303.59,87.37c8.3-1.54,16.61-3.06,24.9-4.65,.99-.19,1.33,.29,1.77,.86-7.76,1.41-15.5,2.85-23.27,4.19-1.1,.19-2.46,1.13-3.4-.4Z"/>
  <path class="cls-15" d="M298.02,89.25c1.22-1.84,3.05-1.51,4.86-1.24-.5,.85-1.44,.94-2.29,1.18-.22-.05-.43-.02-.62,.09-.65,0-1.3-.01-1.95-.02Z"/>
  <path class="cls-15" d="M296.9,89.72c.2-.55,.69-.5,1.16-.51-.15,.65-.71,.47-1.16,.51Z"/>
  <path class="cls-10" d="M299.96,89.27c.19-.11,.4-.14,.62-.09-.16,.31-.37,.36-.62,.09Z"/>
  <path class="cls-7" d="M280.48,106.61c.07,2.47,.75,5.02-1.16,7.2-4.53-1.9-7.35-5.4-9.71-9.34,1.19-1.21,3.05-.95,4.4-1.8,1.21,1.1,2.59-.45,3.83,.22,.46,1.51,1.08,2.91,2.63,3.72Z"/>
  <path class="cls-4" d="M274.01,102.67c-1.35,.86-3.21,.59-4.4,1.8-.96,.42-.49,1.19-.5,1.84-1-.29-.69-1.54-1.56-1.93,4.19-2.82,9.32-3.96,13.46-6.87,.67-.47,1.66-.86,2.31-.14,.43,.48,.55,1.33,.55,2.02,0,1.25-1.2,.85-1.93,1.04-.72,.18-1.47,.24-2.2,.36-.43-.07-.83-.06-1.09,.35-.21,.08-.42,.16-.64,.24-1.5-.04-2.83,.38-3.99,1.28Z"/>
  <path class="cls-11" d="M269.11,106.31c0-.65-.46-1.42,.5-1.84,2.35,3.94,5.17,7.44,9.71,9.34l-.02,1.15c-4.92-1.27-7.95-4.55-10.19-8.66Z"/>
  <path class="cls-11" d="M282.34,111.88c.03,2.05,.06,4.1,.09,6.15-1.89-2.03-1.82-4.08-.09-6.15Z"/>
  <path class="cls-11" d="M279.16,102.57c.48,.85,.96,1.7,1.44,2.54-.04,.5-.08,1-.13,1.5-1.56-.81-2.18-2.22-2.63-3.72,0,0,.19-.21,.19-.21,.38-.04,.75-.07,1.13-.11Z"/>
  <path class="cls-11" d="M281.42,104.55c-.13-.79,.22-1.25,1.04-1.4,.14,.79-.12,1.32-1.04,1.4Z"/>
  <path class="cls-11" d="M282.84,106.43c.17,.47,.12,.9-.25,1.27,.08-.42,.17-.84,.25-1.27Z"/>
  <path class="cls-11" d="M279.98,115.44c-.23-.16-.46-.31-.69-.47,.23,.16,.46,.31,.69,.47Z"/>
  <path class="cls-11" d="M242.5,184.19c.77,.06,2.11-.28,2.14,.46,.06,1.24-1.37,.57-2.12,.82,0-.43-.01-.85-.02-1.28Z"/>
  <path class="cls-16" d="M242.5,184.19c0,.43,.01,.85,.02,1.28-.72,.78-1.7,.47-2.58,.57,0-.2,0-.4,0-.6,.63-.36,1.72-.11,1.81-1.2,.25-.02,.51-.03,.76-.05Z"/>
  <path class="cls-11" d="M152.11,113.12c-.19,0-.38,0-.57,.02,0-.6,.18-1.09,.81-1.34-.08,.44-.16,.88-.24,1.32Z"/>
  <path class="cls-13" d="M279.23,118.59c.56,.87,.35,1.49-.65,1.87-.87-.97-.62-1.58,.65-1.87Z"/>
  <path class="cls-13" d="M277.37,138.78c-.16,.75-.46,1.23-1.33,.61,.06-.95,.38-1.39,1.33-.61Z"/>
  <path class="cls-13" d="M276.19,140.13c-.26-.24-.52-.48-.78-.73,.2,0,.4,0,.6,.01,.38,.17,.43,.41,.17,.71Z"/>
  <path class="cls-11" d="M277.32,122.81c-.08,.23-.17,.45-.25,.68,.08-.23,.17-.45,.25-.68Z"/>
  <path class="cls-11" d="M207.07,146.3c0-.7,.02-1.4,.03-2.09,.36,.7,.31,1.4-.03,2.09Z"/>
  <path class="cls-11" d="M207.12,134.78c0-.36,0-.72,0-1.08,.28,.36,.27,.72,0,1.08Z"/>
  <path class="cls-11" d="M279.36,135.08c.21,2.28,.42,4.56,.63,6.84-1.39-2.18-.5-4.56-.63-6.84Z"/>
  <path class="cls-12" d="M107.23,124.85c3.41-.88,6.82-1.75,10.3-2.65,.23,1.47-1.16,.99-1.58,1.54-4.72,.69-8.94,2.85-14.1,4.93,1.66-2.55,4.05-2.47,5.38-3.82Z"/>
  <path class="cls-12" d="M102.2,128.19c.17,3.7,3.88,2.14,6.15,3.96-2.82,.27-4.97-.19-6.77-1.43-.99-.68-.64-1.81,.62-2.54Z"/>
  <path class="cls-11" d="M274.01,102.67c1.16-.91,2.5-1.32,3.99-1.28,.01,.43,.02,.86,.03,1.3,0,0-.19,.21-.19,.21-1.24-.67-2.62,.88-3.83-.22Z"/>
  <path class="cls-13" d="M278.04,102.68c-.01-.43-.02-.86-.03-1.3,.21-.08,.42-.16,.64-.24,.91,.24,.94,.76,.52,1.43-.37,.04-.75,.07-1.12,.11Z"/>
  <text class="cls-19" transform="translate(248.87 54.04)"><tspan x="0" y="0">1</tspan></text>
  <text class="cls-14" transform="translate(203.57 72.51) scale(.74 1)"><tspan x="0" y="0">2</tspan></text>
  <text class="cls-14" transform="translate(162.1 82.81)"><tspan x="0" y="0">3</tspan></text>
  <text class="cls-18" transform="translate(118.92 41.13) scale(.86 1)"><tspan x="0" y="0">3 mi na kp cha hon chnh</tspan></text>
</svg>