<?xml version="1.0" encoding="UTF-8"?>
<svg id="Layer_1" data-name="Layer 1" xmlns="http://www.w3.org/2000/svg" viewBox="0 0 414 200">
  <defs>
    <style>
      .cls-1 {
        fill: #f7b7d3;
      }

      .cls-2 {
        fill: #00bff3;
      }

      .cls-3 {
        fill: #ebe1cd;
      }

      .cls-4 {
        fill: #eae7df;
      }

      .cls-5 {
        fill: #fff9b8;
      }

      .cls-6 {
        fill: #fff200;
      }

      .cls-7 {
        fill: #fbb040;
      }

      .cls-8 {
        fill: #9ed2f1;
      }

      .cls-9 {
        fill: #737272;
      }

      .cls-10 {
        fill: #d6d2cf;
      }

      .cls-11 {
        fill: #101010;
      }

      .cls-12 {
        fill: #565454;
      }

      .cls-13 {
        fill: #494643;
      }

      .cls-14 {
        fill: #787576;
      }
    </style>
  </defs>
  <path class="cls-13" d="M58.11,166.97c-.39-.62-.35-1.19,.18-1.71,6.56,2.57,12.65,1.33,18.21-2.62,3.72-2.64,7.22-5.58,10.76-8.47,.62-.51,1.96-.83,1.5-1.96-.32-.79-1.47-.44-2.24-.62-.29-.07-.61-.07-.91-.06-8.98,.24-16.88,3.6-23.96,8.82-1.34,.99-2.46,1.86-4.06,2.12,.32-1.17,.78-2.23,1.98-2.78,2.88-1.81,5.77-3.63,8.71-5.47-.83-1.09-1.91-1.09-2.81-1.47-2.52-1.05-5.3-.21-7.82-1.16,.52-1.92,2.11-1.28,3.3-1.23,1.72,.07,3.43,.43,5.14,.67,.31,.46,.77,.49,1.25,.45,1.89,1.2,3.71,1.5,6.02,.71,4.48-1.53,9.25-2.05,13.29-4.96,2.16-1.55,5.05-1.84,7.68-1.55,2.66,.3,5.22,.37,7.8-.32,.27-.1,.54-.2,.81-.3,.73-.11,1.47-.23,2.21-.34,.27-.03,.54-.06,.81-.09,1.61,.4,2.52-2.04,4.28-1.04,3.53,2.88,7.49,2.25,10.03-1.72-3.61-.74-6.76,.79-10,1.7-1.06-1.6,.67-1.34,1.24-1.84,1.38,0,2.66-.33,3.76-1.21,.53-.03,1.06-.05,1.6-.08,.62-.01,1.23-.02,1.85-.04l.23-.14s.23,.14,.23,.15c.99,.02,1.98,.04,2.97,.07,.92,0,1.84-.02,2.76-.02,.26-.1,.52-.21,.78-.31,.32-.11,.64-.23,.97-.34,.28-.06,.56-.11,.85-.17,.56-.14,1.12-.28,1.69-.42,.25-.06,.51-.11,.76-.17,.44-.06,.89-.12,1.33-.18,1.49,.48,3,1.11,4.28-.45,.43-.41,.93-.57,1.51-.46,.6,.14,1.14,.09,1.52-.47,.33-.04,.66-.08,1-.12,.36,0,.73,0,1.09,0,.74,.03,1.48,.06,2.21,.09,.65,.88,1.59,.59,2.45,.62,1.5,.19,2.92-.18,4.33-.61,.39-.14,.78-.27,1.17-.41,.13-.18,.31-.26,.52-.26,1.2-.26,2.39-.52,3.59-.78,2.99-.22,6.26-1.13,8.8,.8,3.26,2.47,5.13,.44,7.54-1.25-1.92-1.58-4.31-.85-6.58-2.13,.85-.23,1.19-.36,1.55-.42,2.44-.44,4.6,.28,6.73,1.43,1.26,.68,2.46,.38,2.95-1.09,.53-1.62-.59-1.87-1.84-1.99-.64-.07-1.52,.11-1.59-.96q4.49-1.26,4.91-3.31c-.43,.15-.81,.26-1.18,.4-5.88,2.31-11.75,4.63-17.63,6.92-.71,.27-1.61,.81-2.09-.31-.39-.91-.06-1.5,.97-1.81,7.61-2.3,14.58-6.3,22.27-8.4,1.19,.7,.14,1.41-.04,2.07-.54,1.96-1.16,3.9-1.79,5.83-.51,1.56-.24,2.26,1.64,2.03,2.34-.28,4.72-.17,6.95,.66,1.32,.49,1.57-.17,2.2-1.12,1.39-2.08,1.5-4.63,2.81-6.69,1.51-2.38,2.71-5.14,6.14-5.3,6.59-1.51,11.03-5.99,15.12-10.96,2.89-2.92,5.1-6.37,7.53-9.66,1.11-1.51,.75-2.4-.74-3.03-2.27-.96-1.64-1.76,0-2.71,2.9-1.68,5.79-3.4,8.65-5.15,1.15-.71,1.7-.63,1.56,.88-.31,3.36-.62,6.72-.88,10.09-.13,1.59-.66,2.09-2.04,.97-2.28-1.86-3.67-.93-5.09,1.29-2.14,3.35-4.51,6.57-7.35,9.4-2.72,3.28-5.96,5.99-9.3,8.6-3.01,1.61-6.03,3.16-9.51,3.48-1.49,.14-1.85,1.31-2.24,2.46-.44,.8-.87,1.59-1.31,2.39-1.22,2.22-.73,3.27,1.97,3.29,3.55,.02,7.2-.18,10.64,.53,8.25,1.7,14.51-2.24,20.76-6.52,.32-.22,.32-.72-.25-.89-.36-2.42,2.62,.02,2.66-1.88-.95-.71-2.1-.47-3.17-.51-5.46-.21-10.93-.36-16.4-.57-.96-.04-2.07,.32-2.79-.71,.14-.13,.21-.29,.22-.48,1.3-.64,2.72-.6,4.11-.75,1.37,.96,2.93,.39,4.39,.48,1.14,.06,2.67,.84,3.37-.28,.77-1.22-.52-2.42-1.07-3.56-.2-.43-.65-.73-.99-1.09-.21-1.02-1.87-1.97-.13-3.07,1.65,1.45,2.94,3.28,3.46,5.33,.7,2.78,2.35,3.18,4.86,3.36,3.93,.28,6.88-.42,10-3.43,7.34-7.08,17.65-6.73,25.48,0,1.29,1.11,2.82,1.93,3.13,3.89,.16,1.02,1.09,1.31,2.1,1.35,5.82,.26,11.64,.51,17.45,.88,1.75,.11,2.22-1.1,2.95-2.18,4.93-7.35,12.9-9.78,20.23-6.08,3.23,1.63,5.65,4.01,6.33,7.77,.21,1.16,.51,2.04,2.05,2.11,10.86,.44,21.69,1.51,32.57,1.42,1.67,.56,3.38,.37,5.08,.28,6.9,.33,13.8,.65,20.7,.98,.43,.38,.91,.34,1.4,.16,.65,.18,.99,.64,1.13,1.28-3.6,.75-7.2,0-10.79,.01-.5-.09-.99-.25-1.49-.27-14.16-.65-28.33-1.18-42.48-2-4.97-.29-9.94-.2-14.9-.54-2.05-.14-4.09-1.05-6.34-.28,.39,1.02,1.23,.78,1.81,1,0,.2,0,.4,0,.6-.56,.02-1.12,.04-1.68,.05l-.78,.02c-2.1,1.45-2.98,3.63-3.86,5.93-.82,2.14-.5,2.93,1.91,2.9,5.18-.07,10.35,.29,15.5,.84,2.51,1.11,5.13,.39,7.7,.47,.81-.01,1.62-.07,2.43-.03,17.5,.86,35.01,1.74,52.51,2.61,.57,1.54-.21,1.69-1.51,1.62-16.73-.91-33.46-1.76-50.19-2.68-4.48-.25-8.99,.25-13.45-.58-.87-.16-1.53,.03-1.98,.95-3.79,7.66-10.74,11.79-17.83,15.71-2.01,1.11-3.63,2.48-5.03,4.33-5.83,7.71-13.58,12.24-23.2,13.44-2.25,.28-4.32,.87-6.38,1.9-6.68,3.35-13.77,3.44-20.96,2.1,.04-1.85,1.26-1.42,2.39-1.29,3.15,.36,6.33,.44,9.48,.08,2.62-.3,5.27-.65,8.12-2.56-4.09-.72-7.21-2.12-9.93-4.35-1.08-.88-2.12-.27-3.17,.08-4.68,1.56-9.05,.96-13.11-1.86-1.08-.75-2.21-1.43-3.25-2.23-.83-.64-1.75-.96-2.49-.24-.78,.76,.14,1.49,.56,2.1,2.34,3.46,5.69,5.76,9.28,7.69,1.25,.67,1.34,1.03,.1,1.67-2.3-.93-4.69-1.26-7.15-1.5-6.35-.62-12-3.26-17.36-6.54-1.97-1.2-3.97-1.76-6.29-1.99-8.15-.82-15.98-2.64-21.49-9.52-.65-.82-1.38-1.16-2.39-.9-.2,.05-.41,.09-.61,.06-8.33-1.06-16.29,.36-24.05,3.4-4.62,1.81-9.77-1.08-14.35,1.51-4.31,2.43-9.15,3.71-13.88,3.07-7.89-1.06-14.04,3.8-21.16,5.13-.7,.13-1.39,.35-2.09,.47-6.26,1.09-12.9-.17-18.83,2.98-.27,.1-.53,.21-.8,.31-1.48,.47-2.91,1.19-4.54,1.02-.62-.16-1.2-.16-1.62,.43-1.24,.16-2.49,.32-3.73,.48-1.07-.92-2.07-.3-3.07,.16-.58,0-1.16,0-1.74,0-1.9-.72-3.89-.68-5.87-.72-.33-.06-.65-.13-.98-.19-.4-.52-.79-1.04-1.19-1.55,.4-.37,.81-.24,1.23-.04,.36,.59,.9,.65,1.5,.52,8.46,1.44,16.46-.23,25.15-3.42-3.84-1.52-6.83-2.79-9.3-4.94-1.05-.91-1.89-.23-2.79,.19-5.14,2.4-10.4,2.78-15.78,.9Zm155.44-18.95c-.24,1.8,1.32,3.19,2.27,3.24,1.54,.08,3.41,.18,4.85-.92,.07-.05-.31-.68-.48-1.04,.35-.31,.7-.62,1.05-.94,2.93,3.2,6.94,3.23,10.68,3,3.84-.23,7.57-.39,11.15,1.09,1.94,.8,3.66,.3,4.77-.93,2.23-2.47,4.85-4.28,7.85-5.53-1.47-2.46-3.08-4.59-4.03-6.97-.59-1.49-1.34-1.82-2.65-1.88-3.47-.15-6.97-.18-10.41-.57-3.71-.42-7.09-.36-9.71,2.86-.55,.68-1.48,1.09-2.3,1.51-7.1,3.59-15.23,3.01-18.45-4.88-.07-.17-.47-.2-.74-.3-1.26,6.47-.65,8,4.48,11.41,.61,.18,1.32,.17,1.66,.87Zm37.32-22.03c0,.26,0,.52,.01,.78-.78-.04-1.57-.08-2.35-.11-2.07-.26-4.15-.81-6.17,.26-2.44,2.54-4.88,5.07-7.34,7.63,.88,.75,1.95,.4,2.92,.44,11.5,.58,23.01,1.05,34.51,1.71,7.13,.41,7.07,.51,8.89-6.19,.45-1.67,.12-2.26-1.6-2.25-.53,0-2.26,.58-1.13-1.21,.8,.09,1.6,.18,2.41,.26,.26,.03,.51,.05,.77,.08,.69-1.73-.8-1.08-1.35-1.11-11.12-.59-22.25-1.14-33.38-1.65-.65-.03-1.68-.52-2,1.03,1.99,.11,3.91,.22,5.83,.33Zm-36.11,39.68l.02-1.33c7.26,.63,13.92-1.14,20.12-4.95,1.65-1.02,1.61-1.62,.17-2.81-5.72-4.74-12.16-5.33-19-3.38-3.04,.87-6.04,1.81-9.18,2.17-.73-.08-1.51-.29-1.95,.59,.01,.19,.01,.38,0,.57-.64,.01-1.28,.03-1.92,.04-.8-.08-1.62-.29-2.41-.2-1.04,.13-2.47-.55-3.05,.64-.52,1.07,.4,2.14,.98,3.07,2.12,3.49,5.15,5.98,8.68,7.97,5.49,3.08,11.04,5.96,17.83,6.5-1.58-1.66-3.24-2.8-4.04-4.55-1.25-2.74-3.15-4.35-6.24-4.34Zm60.8-13.16c1.52,.46,2.66,.21,3.83-.27,6.03-2.5,9.45-7.28,11.41-13.25,1.08-3.3,1.81-6.84,3.84-9.62,1.45-1.98,2.77-5.43,6.15-4.25,2.31,.81,4.58,.84,6.88,1.18,2.34,.34,2.54-.65,1.83-2.64-2.03-5.72-9.97-8.91-15.93-6.37-5.78,2.47-8.68,7.3-10.46,12.9-2.37,7.47-3.65,15.3-7.54,22.32Zm-16.8-28.65c.72-.1,1.55,.36,2-.41,.27-.47-.1-.85-.47-1.27-8.11-9.37-19.71-9.22-28.07,.12-5.65,6.31-12.17,11.49-20.95,12.77-1.43,.21-1.48,.76-.84,1.79,1.96,3.12,4.75,4.75,8.45,4.53,4.34-.26,7.99-2.11,11.23-4.98,4.21-3.72,7.77-8.13,12.26-11.54,1.97-1.5,4.07-2.95,6.72-2.13,3.19,.99,6.5,.59,9.66,1.13Zm-60.86,30.68c4.69,.14,8.89-.64,13.06-1.68,.86-.21,2.08-.08,2.26-1.13,.16-.92-.83-1.53-1.49-2.16-8-7.65-20.15-9.46-30.1-4.57-1.52,.75-1.35,1.24-.39,2.38,4.47,5.33,10.16,7.64,16.67,7.18Zm-85.46,2.71c.97-.17,2.29-.35,3.58-.65,8.07-1.88,14.57-6.76,21.26-11.24,2.63-1.76,2.58-2.74-.32-4.06-3.92-1.79-7.79-.88-11.55,.65-6.27,2.53-11.22,6.96-16.13,11.42-.72,.65-2.11,1.13-1.83,2.21,.3,1.14,1.7,1.3,2.82,1.48,.6,.1,1.22,.12,2.18,.21Zm142.78-5.06c-5.09,.03-9.49,2.22-13.59,4.87-4.45,2.89-8.81,5.88-13.89,7.59-1.66,.56-1.61,1.16-.31,2.19,4.27,3.38,8.86,3.79,13.76,1.63,6.44-2.84,11.16-7.74,15.56-13.01,.63-.75,1.89-1.5,1.5-2.49-.49-1.24-1.99-.49-3.04-.78Zm-147.1-6.14c-5.65-.01-10.51,2.09-14.98,5.44-3.92,2.94-7.26,6.59-11.45,9.18-1.18,.73-1.01,1.33,.34,1.77,4.25,1.41,8.41,1.42,12.54-.49,5.96-2.75,10.64-7.2,15.43-11.49,1.15-1.03,3.56-1.95,2.94-3.39-.63-1.45-3.1-.97-4.83-1.03Zm146.39,18.91c4.76-.61,9.31-1.79,13.18-5.03,5.52-4.62,7.82-11.05,10.16-17.48,.7-1.91-.21-1.77-1.63-1.37-4.72,1.31-8.29,4.29-11.48,7.82-3.87,4.3-7.7,8.63-11.52,12.98-.63,.72-2.09,1.19-1.58,2.31,.43,.93,1.8,.69,2.86,.77Zm27.88-4.7c-3.66,.16-6.76,1.08-9.91,.67-2.06-.27-3.66,.38-5.39,1.52-4.46,2.95-9.45,4.69-14.8,3.74-2.36-.42-3.92-.04-5.85,1.19-2.34,1.49-1.95,2.21,.11,3.4,5.42,3.13,11.14,3.04,16.95,1.69,7.57-1.76,13.87-5.55,18.89-12.2Zm-150.56-9.5c3.12,1.78,5.9,2.22,8.76,1.72,9.07-1.59,16.1-7.18,23.42-12.17,1.3-.89,.33-1.52-.56-1.95-2.9-1.41-5.91-1.33-8.99-.72-8.94,1.78-14.6,8.97-22.63,13.13Zm139.89,8.32c6.28,.3,11.7-.61,16.62-3.77,2.74-1.76,5.6-3.35,8.28-5.19,3.14-2.16,5.72-4.91,7.75-8.17,.83-1.34,.65-1.97-1.1-1.96-2.55,0-5.14,.07-7.65-.31-2.35-.36-3.39,.43-4.35,2.54-2.78,6.07-6.71,11.19-13.91,12.03-3.09,.36-4.24,2.15-5.64,4.83Zm-112.47-13.42c4.5,2.88,8.77,2.28,13.09,1.05,5.97-1.7,11.44-4.92,17.7-5.77,1.88-.26,1.99-1.28,.68-2.37-2.24-1.86-4.9-2.66-7.79-2.98-9.64-1.07-16.24,4.81-23.68,10.07Zm41.6,20.07c-2.3-2.32-4.23-4.41-4.92-7.1-.48-1.85-1.47-2.46-3.1-2.69-5.34-.75-9.46-3.59-12.87-7.62-.39-.47-.79-.94-1.24-1.35-1.03-.94-1.91,.04-2.82,.32-1.31,.41-.52,1.36-.3,2.01,3.41,10,13.83,16.91,25.25,16.43Zm-63.81-5.31c-2.07-.97-4.13-1.43-5.48-2.66-3.75-3.42-7.27-2.82-11.47-.76-3.62,1.78-7.76,2.64-11.87,1.14-1.54-.56-3.36-2.36-4.33,.05-.69,1.72,1.65,2.28,2.86,2.97,7.64,4.37,15.79,2.95,23.87,1.81,2.18-.31,4.41-.84,6.42-2.55Zm-24.95,4.77c-3.56-1.14-6.4-2.13-8.51-4.25-1.31-1.32-2.16-1.24-3.56-.25-6.13,4.38-12.69,5.95-19.89,2.75-.28-.12-.56-.3-.85-.31-.67-.02-1.23,.34-1.48,.91-.24,.55,.29,.85,.69,1.18,2.8,2.32,6.2,4.19,9.5,4.54,8.08,.87,16.05-.4,24.09-4.58Zm47.5-8.95c-2.57-1.33-5.19-2.43-7.51-3.98-1.5-1-2.55-1.06-4.14-.32-5.29,2.45-10.72,3.28-16.28,.74-.53-.25-1.19-.46-1.74-.37-.56,.09-1.29,.45-1.52,.9-.37,.71,.51,.96,.95,1.32,7.51,6.09,22.05,6.95,30.25,1.7Zm-7.27-6.15c5.21,4.89,11.79,5.23,18.28,5.73,6.58,.51,6.43,.51,3.9-5.34-.93-2.16-1.92-2.33-3.88-1.78-3.2,.9-6.63,1.23-9.58-.36-2.66-1.43-4.7-1.29-6.84,.58-.54,.47-1.45,.24-1.88,1.17Zm105.17-12.6c-.69,0-1.71,.04-2.73,0-1.24-.05-1.81,.35-1.18,1.6,1.43,2.83,2.98,5.62,5.34,7.76,.98,.89,2.63,2.15,3.75,1.37,2.13-1.48,3.84-3.57,5.68-5.45,.1-.1-.09-.6-.26-.81-1.42-1.83-2.15-4.45-5.42-4-1.57,.22-3.23-.26-5.18-.46Zm-52,1.99q-.03-4.51-4.54-4.75c-.61-.03-1.23,0-1.83-.11-1.46-.24-1.99,.48-2.21,1.81-.42,2.47-.75,4.76,2.88,4.84,.78,.02,1.56,.45,2.33,.72q3.41,1.21,3.38-2.52Zm-12.48-5.3c-1.4-.24-3.06-.32-2.52,.99,.78,1.93,2.14,4.24,3.85,4.96,1,.42,.7-2.64,1.06-4.09,.65-2.58-1.73-1.44-2.39-1.85Zm49.47,19.84c-2.88-1.4-5.78-1.32-9.01-.99,5.09,4.65,5.44,4.69,9.01,.99Zm25.5-15.99c1.55,5.1,1.95,3.73,9.66,.46-3.61-.17-6.58-.31-9.66-.46Zm-6.41,12.82c-5.73-3.77-7.32-3.73-10.46,.34,3.52-.88,6.77,.24,10.46-.34Zm-175.77-1.34c5.45,1.86,6.32,1.66,9.71-2.15-3.46-.29-6.48,.25-9.71,2.15Zm52.07-10.28c3.02,3.91,3.73,3.95,6.81,.36-2.26-.95-4.46-.92-6.81-.36Z"/>
  <path class="cls-7" d="M147.1,17.09c2.96,.04,5.94-.37,8.89,.22-.45,5.29-1.01,10.58-1.33,15.89-.26,4.27-.24,8.55-.35,12.83-.5,3.66-.3,7.34-.31,11.01,0,.63-.35,1.79,1.1,1.35-.27,.28-.24,.54,.08,.76,.05,.13,.11,.26,.14,.39,0,.05-.09,.11-.14,.16-.34,.27-.35,.55-.05,.85-1.41-.59-1.15,.56-1.14,1.2,.09,5.39-.36,10.79,.47,16.16-.03,4.08,.1,8.15,.45,12.23,.76,8.74,1.74,17.45,3.26,26.09,.23,1.31-.03,1.78-1.48,1.86-6.64,.36-6.96,.14-7.93-6.46-.07-.51-.12-1.01-.2-1.52-1.83-12.34-2.73-24.76-3.38-37.2,0-7.55,0-15.1,0-22.66,.18-3.04,.42-6.08,.54-9.12,.31-8.02,1.52-15.99,1.38-24.04Z"/>
  <path class="cls-5" d="M298.43,129.05c.56-.02,1.12-.04,1.68-.05,.96,.61,2,.33,3.02,.26,1.03,.33,2.04,.85,3.14,.26,1.43,.13,2.87,.25,4.3,.38,.21,0,.42,.01,.63,.02,1.3,.05,2.61,.18,3.91,.12,.72-.03,1.99,.45,1.75-1.16,0,0,.13,.02,.13,.02-.47,1.08,.32,1.19,1.03,1.32,2,.38,4.02,.56,6.06,.39,5.93,.35,11.85,1.05,17.82,.68,3.06,.29,6.12,.4,9.19,.16,7.49,1.47,15.14,.77,22.68,1.61,.02,2.91,.05,5.83,.07,8.74-17.5-.87-35.01-1.75-52.51-2.61-.81-.04-1.62,.02-2.43,.03-2.53-.77-5.12-.55-7.7-.47-5.15-.55-10.32-.91-15.5-.84-2.41,.03-2.73-.76-1.91-2.9,.88-2.29,1.76-4.48,3.86-5.93,.26,0,.52-.01,.78-.02Z"/>
  <path class="cls-13" d="M145.19,72.91c.65,12.44,1.55,24.86,3.38,37.2,.08,.51,.12,1.01,.2,1.52,.97,6.6,1.29,6.82,7.93,6.46,1.45-.08,1.71-.55,1.48-1.86-1.52-8.64-2.5-17.35-3.26-26.09-.35-4.07-.48-8.14-.45-12.23,.23-.02,.46-.04,.68-.06,.19,.21,.38,.42,.57,.62,.86,12.22,1.78,24.42,4.04,36.48,.23,1.24-.38,3.26,1.74,3.38,2.11,.13,4.38,1.19,6.23-1.11,4.56-5.66,10.47-9.35,17.51-11.09,8.5-2.1,16.79-1.67,24.64,2.65,.71,.39,1.48,.73,1.71,1.63-1.09,1.21-2.04,.11-3.04-.18-2.84-2.22-6.32-3.04-9.68-3.34-11.62-1.04-21.89,1.99-29.73,11.2-4.34,5.1-8.76,10.04-17.12,9.58,1.8,1.41,2.87,2.25,3.94,3.09-.46,1.11-1.08,1.08-2.15,.62-1.43-.63-2.14-1.82-2.86-2.98-.72-1.15-1.77-1.64-2.79-1.15-1.2,.58,.02,1.55,.12,2.36,.17,1.43,1.82,3.02-.41,4.22-1.41-.03-2.82-.06-4.23-.09-3.76-.66-7.27-1.9-10.32-4.29-4.46-3.5-4.11-7.04,1.02-9.56,2.98-1.46,6.21-1.89,9.48-2.09q4.32-.27,3.61-4.45c-2.17-12.8-3.15-25.71-3.72-38.66-.03-.6,.11-1.2,.17-1.81,.44,0,.87,.01,1.31,.02Zm19.32,47.55c-1.32-.24-2.09-.48-2.86-.51-5.19-.17-10.38-.27-15.58-.63-4.07-.28-8.18,.49-11.86,2.51-2.99,1.65-3.19,3.52-.63,5.73,3.52,3.05,7.79,4.35,12.3,5.02,1.29,.19,1.73-.31,1.26-1.54-.29-.76-.61-1.51-.92-2.27-.94-2.29-.09-3.32,2.3-3.18,1.73,.1,3.46,.29,5.19,.38,3.39,.17,6.27-.86,8.51-3.37-.8-1.3-2.49,.1-2.92-1.48,1.5-.68,3.08,.48,5.21-.65Z"/>
  <path class="cls-8" d="M57.59,162.48c1.6-.26,2.72-1.13,4.06-2.12,7.08-5.22,14.98-8.58,23.96-8.82,.3,0,.62,0,.91,.06,.77,.18,1.91-.18,2.24,.62,.46,1.13-.87,1.45-1.5,1.96-3.54,2.88-7.04,5.83-10.76,8.47-5.57,3.95-11.65,5.19-18.21,2.62-.24-.93-.47-1.85-.71-2.78Z"/>
  <path class="cls-8" d="M58.11,166.97c5.38,1.89,10.64,1.51,15.78-.9,.9-.42,1.74-1.1,2.79-.19,2.47,2.15,5.46,3.42,9.3,4.94-8.69,3.19-16.69,4.86-25.15,3.42-.5-.17-1-.35-1.5-.52-.42-.2-.83-.33-1.23,.04-.19,.01-.36,.06-.54,.13-.27-2.34,1.67-4.51,.54-6.92Z"/>
  <path class="cls-2" d="M231.29,177.68c1.23-.64,1.14-.99-.1-1.67-3.59-1.94-6.94-4.23-9.28-7.69-.42-.62-1.33-1.34-.56-2.1,.73-.72,1.66-.4,2.49,.24,1.04,.8,2.17,1.48,3.25,2.23,4.06,2.83,8.43,3.43,13.11,1.86,1.05-.35,2.09-.97,3.17-.08,2.72,2.23,5.84,3.63,9.93,4.35-2.85,1.91-5.5,2.26-8.12,2.56-3.15,.36-6.32,.27-9.48-.08-1.13-.13-2.35-.56-2.39,1.29-.89,.18-1.69,.19-2.01-.9Z"/>
  <path class="cls-13" d="M147.1,17.09c.14,8.05-1.07,16.02-1.38,24.04-.12,3.04-.36,6.08-.54,9.12-.42-.04-.84-.09-1.26-.13,.17-7.7-.24-15.42,1.03-23.08,.45-2.71,.45-5.49,.75-8.23,.08-.77-.21-2.09,1.4-1.71Z"/>
  <path class="cls-12" d="M154.32,46.03c.11-4.28,.09-8.56,.35-12.83,.32-5.3,.88-10.59,1.33-15.89,1.57-.87,1.75,.04,1.65,1.29-.67,9.12-1.35,18.23-2.02,27.35-.44,.03-.87,.05-1.31,.08Z"/>
  <path class="cls-8" d="M57.64,151.61c2.52,.96,5.3,.11,7.82,1.16,.91,.38,1.98,.37,2.81,1.47-2.94,1.85-5.83,3.66-8.71,5.47-1.85-2.41-2.64-5.08-1.92-8.1Z"/>
  <path class="cls-11" d="M143.93,50.12c.42,.04,.84,.09,1.26,.13,0,7.55,0,15.1,0,22.66-.44,0-.87-.01-1.31-.02-.44-7.59-.47-15.18,.05-22.77Z"/>
  <path class="cls-12" d="M373.77,133.05c-7.54-.83-15.19-.14-22.68-1.61-.02-.17-.02-.34,0-.5,4.12,0,8.23,.7,12.36,.27,3.49,.24,6.98,.48,10.47,.72-.05,.37-.1,.75-.15,1.12Z"/>
  <path class="cls-11" d="M155.15,77.85c-.23,.02-.46,.04-.68,.06-.83-5.37-.38-10.77-.47-16.16-.01-.64-.27-1.79,1.14-1.2,.05,.5,.1,.99,.15,1.48,0,.92,0,1.83,0,2.75-.26,.53-.26,1.05,0,1.57,0,.29,0,.58,0,.87-.37,1.51-.51,3.02,.14,4.5,.05,1.83,.1,3.66,.16,5.48-.15,.21-.3,.42-.45,.64Z"/>
  <path class="cls-11" d="M154.32,46.03c.44-.03,.87-.05,1.31-.08-.02,.8-.03,1.6-.05,2.39-.98,3.31-.42,6.69-.47,10.05-1.44,.44-1.1-.72-1.1-1.35,0-3.67-.19-7.35,.31-11.01Z"/>
  <path class="cls-5" d="M373.92,131.92c-3.49-.24-6.98-.48-10.47-.72,.02-.24,.04-.47,.05-.71,3.6-.02,7.2,.74,10.79-.01,.16,.56,.17,1.08-.38,1.45Z"/>
  <path class="cls-12" d="M155.11,58.39c.05-3.35-.51-6.74,.47-10.05,.19,3.61,.31,7.23-.4,10.81-.32-.22-.35-.48-.08-.76Z"/>
  <path class="cls-12" d="M135.53,138.43c-1.28,1.56-2.79,.93-4.28,.45,1.43-.15,2.85-.3,4.28-.45Z"/>
  <path class="cls-12" d="M60.28,175.51c1.98,.05,3.97,0,5.87,.72-2.02,.23-3.97-.02-5.87-.72Z"/>
  <path class="cls-12" d="M115.24,140.54c-1.1,.88-2.37,1.22-3.76,1.21,1.12-.81,2.35-1.27,3.76-1.21Z"/>
  <path class="cls-12" d="M67.89,176.23c1-.46,1.99-1.08,3.07-.16-1.01,.34-2.03,.4-3.07,.16Z"/>
  <path class="cls-3" d="M351.07,128.07c-1.7,.1-3.41,.28-5.08-.28,1.71-.16,3.43-.55,5.08,.28Z"/>
  <path class="cls-12" d="M155.45,71.73c-.65-1.48-.52-2.98-.14-4.5,.48,1.49,.47,2.99,.14,4.5Z"/>
  <path class="cls-12" d="M57.57,173.89c.17-.07,.35-.12,.54-.13,.4,.52,.79,1.04,1.19,1.55-1.49,.63-1.46-.57-1.72-1.42Z"/>
  <path class="cls-12" d="M122.12,140.5c-.99-.02-1.98-.04-2.97-.07,1-.51,1.99-.19,2.97,.07Z"/>
  <path class="cls-4" d="M67.33,151.5c-.49,.04-.95,0-1.25-.45,.81-.95,1.09-.4,1.25,.45Z"/>
  <path class="cls-12" d="M74.69,175.59c.42-.59,1-.59,1.62-.43-.45,.49-.99,.64-1.62,.43Z"/>
  <path class="cls-12" d="M138.57,137.51c-.38,.56-.92,.6-1.52,.47,.4-.51,.9-.67,1.52-.47Z"/>
  <path class="cls-12" d="M155.29,62.04c-.05-.49-.1-.99-.15-1.48-.31-.3-.29-.59,.05-.85,.42,.76,.61,1.53,.1,2.34Z"/>
  <path class="cls-12" d="M155.3,66.37c-.27-.52-.27-1.05,0-1.57,.4,.52,.41,1.05,0,1.57Z"/>
  <path class="cls-12" d="M118.68,140.43c-.62,.01-1.23,.02-1.85,.04,.61-.32,1.23-.41,1.85-.04Z"/>
  <path class="cls-12" d="M155.15,77.85c.15-.21,.3-.42,.45-.64,.04,.42,.07,.84,.11,1.26-.19-.21-.38-.42-.57-.62Z"/>
  <path class="cls-3" d="M373.17,129.2c-.49,.18-.97,.22-1.4-.16,.5-.2,.97-.24,1.4,.16Z"/>
  <path class="cls-12" d="M129.92,139.07c-.25,.06-.51,.11-.76,.17,.25-.06,.51-.11,.76-.17Z"/>
  <path class="cls-12" d="M127.47,139.65c-.28,.06-.56,.11-.85,.17,.28-.06,.56-.11,.85-.17Z"/>
  <path class="cls-12" d="M125.66,140.17c-.26,.1-.52,.21-.78,.31,.26-.1,.52-.21,.78-.31Z"/>
  <path class="cls-12" d="M105.94,144.66c-.27,.03-.54,.06-.81,.09,.27-.03,.54-.06,.81-.09Z"/>
  <path class="cls-12" d="M102.93,145.08c-.27,.1-.54,.2-.81,.3,.27-.1,.54-.2,.81-.3Z"/>
  <path class="cls-12" d="M80.85,174.14c.27-.1,.53-.21,.8-.31-.27,.1-.53,.21-.8,.31Z"/>
  <path class="cls-12" d="M140.66,137.39c-.36,0-.73,0-1.09,0,.36-.25,.73-.25,1.09,0Z"/>
  <path class="cls-7" d="M275.55,152.5c3.89-7.02,5.17-14.84,7.54-22.32,1.78-5.6,4.67-10.43,10.46-12.9,5.96-2.54,13.9,.65,15.93,6.37,.71,1.99,.51,2.98-1.83,2.64-2.3-.34-4.57-.37-6.88-1.18-3.37-1.18-4.7,2.27-6.15,4.25-2.03,2.78-2.76,6.32-3.84,9.62-1.95,5.97-5.38,10.74-11.41,13.25-1.16,.48-2.31,.74-3.83,.27Z"/>
  <path class="cls-7" d="M258.76,123.85c-3.16-.54-6.47-.14-9.66-1.13-2.65-.82-4.75,.63-6.72,2.13-4.49,3.41-8.05,7.82-12.26,11.54-3.24,2.87-6.89,4.72-11.23,4.98-3.7,.23-6.5-1.41-8.45-4.53-.65-1.03-.59-1.58,.84-1.79,8.77-1.28,15.29-6.46,20.95-12.77,8.36-9.34,19.96-9.49,28.07-.12,.37,.42,.74,.81,.47,1.27-.45,.77-1.28,.31-2,.41Z"/>
  <path class="cls-5" d="M248.53,126.65c.78,.04,1.57,.08,2.35,.12,.83,.52,1.7,.45,2.58,.2,1.45,.11,2.89,.23,4.34,.34,5.72,.29,11.44,.58,17.15,.87q2.7,.12,2.57-1.16c.35,.36,.71,.37,1.08,.02-1.13,1.78,.6,1.21,1.13,1.21,1.72,0,2.06,.59,1.6,2.25-1.82,6.7-1.76,6.59-8.89,6.19-11.5-.65-23.01-1.12-34.51-1.71-.97-.05-2.04,.3-2.92-.44,2.46-2.56,4.9-5.1,7.34-7.63,2.04-.5,4.14,.45,6.17-.26Z"/>
  <path class="cls-8" d="M197.89,154.53c-6.51,.47-12.2-1.84-16.67-7.18-.95-1.14-1.13-1.63,.39-2.38,9.96-4.89,22.1-3.08,30.1,4.57,.66,.63,1.64,1.24,1.49,2.16-.18,1.06-1.4,.92-2.26,1.13-4.16,1.04-8.36,1.82-13.06,1.68Z"/>
  <path class="cls-1" d="M204.93,156.53c.02-.19,.02-.38,0-.57,.65-.2,1.3-.39,1.95-.59,3.15-.36,6.15-1.31,9.18-2.17,6.84-1.96,13.28-1.37,19,3.38,1.44,1.19,1.49,1.79-.17,2.81-6.2,3.8-12.85,5.57-20.12,4.95-4.38-1.22-7.69-3.78-9.85-7.8Z"/>
  <path class="cls-8" d="M112.44,157.24c-.97-.09-1.58-.11-2.18-.21-1.11-.18-2.51-.34-2.82-1.48-.29-1.07,1.11-1.55,1.83-2.21,4.92-4.46,9.86-8.88,16.13-11.42,3.77-1.52,7.64-2.44,11.55-.65,2.9,1.33,2.96,2.3,.32,4.06-6.7,4.48-13.19,9.36-21.26,11.24-1.29,.3-2.6,.48-3.58,.65Z"/>
  <path class="cls-2" d="M255.22,152.18c1.05,.29,2.55-.46,3.04,.78,.39,.99-.87,1.74-1.5,2.49-4.4,5.26-9.12,10.17-15.56,13.01-4.91,2.16-9.49,1.75-13.76-1.63-1.31-1.03-1.35-1.63,.31-2.19,5.07-1.71,9.43-4.71,13.89-7.59,4.1-2.66,8.5-4.84,13.59-4.87Z"/>
  <path class="cls-8" d="M108.11,146.04c1.73,.06,4.2-.42,4.83,1.03,.62,1.44-1.79,2.36-2.94,3.39-4.79,4.3-9.47,8.75-15.43,11.49-4.13,1.91-8.29,1.9-12.54,.49-1.35-.45-1.52-1.04-.34-1.77,4.19-2.6,7.53-6.24,11.45-9.18,4.47-3.35,9.32-5.46,14.98-5.44Z"/>
  <path class="cls-2" d="M254.5,164.95c-1.07-.08-2.44,.16-2.86-.77-.51-1.12,.95-1.6,1.58-2.31,3.82-4.35,7.65-8.68,11.52-12.98,3.18-3.53,6.75-6.51,11.48-7.82,1.42-.39,2.33-.54,1.63,1.37-2.35,6.43-4.64,12.86-10.16,17.48-3.87,3.24-8.42,4.42-13.18,5.03Z"/>
  <path class="cls-2" d="M282.39,160.24c-5.03,6.65-11.33,10.44-18.89,12.2-5.81,1.35-11.53,1.45-16.95-1.69-2.06-1.19-2.45-1.91-.11-3.4,1.93-1.23,3.49-1.61,5.85-1.19,5.35,.95,10.35-.79,14.8-3.74,1.73-1.14,3.33-1.79,5.39-1.52,3.15,.41,6.25-.51,9.91-.67Z"/>
  <path class="cls-8" d="M131.83,150.74c8.02-4.15,13.69-11.35,22.63-13.13,3.08-.61,6.09-.69,8.99,.72,.88,.43,1.85,1.07,.56,1.95-7.31,5-14.35,10.58-23.42,12.17-2.86,.5-5.64,.06-8.76-1.72Z"/>
  <path class="cls-7" d="M271.72,159.06c1.41-2.68,2.56-4.47,5.64-4.83,7.2-.84,11.12-5.96,13.91-12.03,.97-2.11,2-2.9,4.35-2.54,2.51,.39,5.09,.32,7.65,.31,1.75,0,1.93,.62,1.1,1.96-2.02,3.26-4.6,6.01-7.75,8.17-2.68,1.84-5.54,3.43-8.28,5.19-4.92,3.16-10.34,4.07-16.62,3.77Z"/>
  <path class="cls-6" d="M200.98,118.01c-1.11,1.12-2.22,2.24-3.32,3.36-3.43,.16-4.62,2.92-6.14,5.3-1.31,2.06-1.42,4.61-2.81,6.69-.63,.95-.88,1.61-2.2,1.12-2.23-.83-4.62-.94-6.95-.66-1.88,.22-2.15-.47-1.64-2.03,.63-1.93,1.25-3.87,1.79-5.83,.18-.65,1.24-1.36,.04-2.07,0,0-.04,.04-.04,.04,1.39,.65,1.54-.7,2.06-1.34,4.74-5.87,12.84-7.81,19.22-4.58Z"/>
  <path class="cls-5" d="M225.17,125.81c.57,.17,.56,.68,.25,.89-6.25,4.27-12.51,8.22-20.76,6.52-3.44-.71-7.09-.51-10.64-.53-2.7-.02-3.19-1.07-1.97-3.29,.44-.8,.87-1.59,1.31-2.39,2.6-.94,5.11-2.23,8.01-1.88,.54,0,1.09,0,1.63,0,.46,0,.93,.02,1.39,.03,1.45-.02,2.9-.04,4.36-.06l12.84,.45c.79,.08,1.58,.17,2.37,.25,.41,0,.81,.01,1.22,.02Z"/>
  <path class="cls-8" d="M159.24,145.64c7.44-5.25,14.04-11.13,23.68-10.07,2.89,.32,5.56,1.12,7.79,2.98,1.31,1.09,1.19,2.11-.68,2.37-6.25,.85-11.73,4.07-17.7,5.77-4.33,1.23-8.59,1.83-13.09-1.05Z"/>
  <path class="cls-8" d="M200.84,165.71c-11.42,.48-21.84-6.43-25.25-16.43-.22-.65-1.01-1.6,.3-2.01,.9-.28,1.78-1.26,2.82-.32,.45,.41,.84,.89,1.24,1.35,3.41,4.03,7.53,6.87,12.87,7.62,1.63,.23,2.63,.84,3.1,2.69,.69,2.69,2.62,4.77,4.92,7.1Z"/>
  <path class="cls-8" d="M137.03,160.4c-2.01,1.71-4.24,2.24-6.42,2.55-8.07,1.14-16.22,2.56-23.87-1.81-1.21-.69-3.56-1.25-2.86-2.97,.97-2.41,2.79-.61,4.33-.05,4.11,1.49,8.24,.63,11.87-1.14,4.21-2.06,7.72-2.66,11.47,.76,1.35,1.23,3.41,1.69,5.48,2.66Z"/>
  <path class="cls-8" d="M112.08,165.16c-8.04,4.19-16.01,5.46-24.09,4.58-3.29-.36-6.7-2.23-9.5-4.54-.41-.34-.93-.63-.69-1.18,.24-.57,.81-.94,1.48-.91,.29,0,.57,.19,.85,.31,7.2,3.19,13.77,1.63,19.89-2.75,1.39-1,2.25-1.07,3.56,.25,2.11,2.12,4.95,3.11,8.51,4.25Z"/>
  <path class="cls-8" d="M159.58,156.21c-8.2,5.25-22.74,4.38-30.25-1.7-.44-.36-1.32-.6-.95-1.32,.23-.46,.96-.82,1.52-.9,.55-.09,1.21,.12,1.74,.37,5.56,2.55,10.99,1.71,16.28-.74,1.59-.74,2.65-.68,4.14,.32,2.32,1.55,4.94,2.65,7.51,3.98Z"/>
  <path class="cls-1" d="M214.76,165.66c3.09,0,4.99,1.6,6.24,4.34,.8,1.75,2.46,2.89,4.04,4.55-6.79-.54-12.34-3.42-17.83-6.5-3.54-1.98-6.56-4.48-8.68-7.97-.57-.94-1.5-2-.98-3.07,.58-1.19,2.01-.52,3.05-.64,.78-.09,1.6,.12,2.41,.2,2.63,4.69,5.97,8.47,11.75,9.09Z"/>
  <path class="cls-8" d="M152.31,150.06c.42-.93,1.34-.7,1.88-1.17,2.13-1.86,4.18-2.01,6.84-.58,2.95,1.59,6.38,1.26,9.58,.36,1.96-.55,2.95-.38,3.88,1.78,2.52,5.85,2.67,5.85-3.9,5.34-6.49-.51-13.07-.85-18.28-5.73Z"/>
  <path class="cls-7" d="M257.48,137.46c1.96,.2,3.62,.68,5.18,.46,3.27-.46,4,2.17,5.42,4,.17,.22,.36,.72,.26,.81-1.85,1.88-3.55,3.97-5.68,5.45-1.12,.78-2.77-.48-3.75-1.37-2.36-2.14-3.91-4.93-5.34-7.76-.63-1.25-.06-1.65,1.18-1.6,1.02,.04,2.04,0,2.73,0Z"/>
  <path class="cls-5" d="M363.5,130.49c-.02,.24-.04,.47-.05,.71-4.13,.43-8.24-.26-12.36-.27-3.06-.39-6.13-.38-9.21-.26-6.29-.78-12.6-1.26-18.95-1.08l-5.95-.7s-.13-.02-.13-.02c-3.53,0-7.06,0-10.59,0-.9-1.06-2.04-.6-3.12-.5-1.01,.01-2.03,.02-3.04,.04-.59-.22-1.43,.01-1.81-1,2.25-.77,4.28,.14,6.34,.28,4.96,.34,9.93,.25,14.9,.54,14.15,.82,28.32,1.35,42.48,2,.5,.02,1,.18,1.49,.27Z"/>
  <path class="cls-6" d="M205.48,139.46q.03,3.73-3.38,2.52c-.77-.27-1.55-.71-2.33-.72-3.63-.08-3.3-2.37-2.88-4.84,.23-1.33,.76-2.05,2.21-1.81,.6,.1,1.22,.07,1.83,.11q4.51,.24,4.54,4.75Z"/>
  <path class="cls-5" d="M278.6,127.04c-.37,.35-.72,.34-1.08-.02-.84,.05-1.68,.09-2.52,.14-3.33-.2-6.67-.4-10-.6-3.85-.04-7.71-.09-11.56-.13-.73-.92-1.67-.54-2.57-.44-1.92-.11-3.83-.21-5.83-.33,.32-1.55,1.35-1.06,2-1.03,11.13,.51,22.25,1.06,33.38,1.65,.55,.03,2.04-.62,1.35,1.11-.26-.03-.51-.05-.77-.08-.8-.09-1.6-.18-2.41-.26Z"/>
  <path class="cls-5" d="M208.73,125.09c-1.45,.02-2.9,.04-4.36,.06-.44-1.1-.9-1.4-1.39-.03-.54,0-1.09,0-1.63,0,.63-2.01,2.95-1.71,4.11-3,.73,1.03,1.83,.67,2.79,.71,5.46,.21,10.93,.37,16.4,.57,1.07,.04,2.22-.2,3.17,.51-.03,1.91-3.02-.54-2.66,1.88-.41,0-.81-.01-1.22-.02,0-2.09-1.6-.73-2.39-1.12-4.28,.04-8.61-1.77-12.82,.42Z"/>
  <path class="cls-7" d="M209.8,120.91c.51-3.02,2.82-4.82,5.71-4.46,.34,.36,.79,.67,.99,1.09,.55,1.14,1.83,2.34,1.07,3.56-.7,1.12-2.24,.34-3.37,.28-1.46-.08-3.02,.48-4.39-.48Z"/>
  <path class="cls-12" d="M214.76,165.66c-5.78-.62-9.12-4.4-11.75-9.09,.64-.01,1.28-.03,1.92-.04,2.16,4.02,5.48,6.58,9.85,7.8,0,.44-.02,.89-.02,1.33Z"/>
  <path class="cls-8" d="M110.25,143.6c3.24-.91,6.39-2.45,10-1.7-2.54,3.97-6.49,4.6-10.03,1.72,0,0,.02-.02,.02-.02Z"/>
  <path class="cls-2" d="M242.46,154c-3.57,3.7-3.92,3.66-9.01-.99,3.23-.33,6.13-.41,9.01,.99Z"/>
  <path class="cls-10" d="M267.96,138.01c3.08,.15,6.05,.29,9.66,.46-7.71,3.28-8.1,4.64-9.66-.46Z"/>
  <path class="cls-7" d="M261.56,150.83c-3.69,.58-6.94-.54-10.46,.34,3.14-4.07,4.72-4.11,10.46-.34Z"/>
  <path class="cls-8" d="M85.78,149.48c3.22-1.9,6.24-2.43,9.71-2.15-3.38,3.8-4.25,4.01-9.71,2.15Z"/>
  <path class="cls-1" d="M220.19,149.29c.17,.36,.55,.99,.48,1.04-1.44,1.11-3.31,1-4.85,.92-.96-.05-2.51-1.44-2.27-3.24,2.33-.2,4.65-.32,6.64,1.27Z"/>
  <path class="cls-8" d="M137.85,139.2c2.35-.57,4.55-.59,6.81,.36-3.08,3.59-3.79,3.56-6.81-.36Z"/>
  <path class="cls-12" d="M220.19,149.29c-1.99-1.59-4.31-1.47-6.64-1.27-.34-.7-1.05-.69-1.66-.87,3.37-1.58,6.54-1.52,9.35,1.21-.35,.31-.7,.62-1.05,.94Z"/>
  <path class="cls-12" d="M311.2,138.74c2.58-.09,5.17-.3,7.7,.47-2.57-.07-5.19,.65-7.7-.47Z"/>
  <path class="cls-12" d="M300.1,128.4c1.01-.01,2.03-.02,3.04-.04,0,.3,0,.59-.01,.89-1.02,.08-2.06,.35-3.02-.26-.01-.2-.01-.4,0-.6Z"/>
  <path class="cls-14" d="M248.53,126.65c-2.03,.71-4.13-.24-6.17,.26,2.02-1.07,4.1-.51,6.17-.26Z"/>
  <path class="cls-14" d="M250.87,125.98c.9-.1,1.85-.48,2.57,.44,.06,.18,.06,.36,.02,.54-.89,.25-1.76,.32-2.58-.2,0-.26,0-.52-.01-.78Z"/>
  <path class="cls-12" d="M206.89,155.38c-.65,.2-1.3,.39-1.95,.59,.45-.88,1.22-.67,1.95-.59Z"/>
  <path class="cls-12" d="M59.33,173.72c.5,.17,1,.35,1.5,.52-.6,.13-1.14,.07-1.5-.52Z"/>
  <path class="cls-12" d="M149.66,137.49c.26-.5,.69-.55,1.17-.41-.39,.14-.78,.27-1.17,.41Z"/>
  <path class="cls-14" d="M298.43,129.05c-.26,0-.52,.01-.78,.02,.26,0,.52-.01,.78-.02Z"/>
  <path class="cls-9" d="M281.01,127.3c.26,.03,.51,.05,.77,.08-.26-.03-.51-.05-.77-.08Z"/>
  <path class="cls-12" d="M322.93,129.58c6.35-.18,12.66,.3,18.95,1.08,.02,.2,.02,.4,.02,.61-5.96,.37-11.88-.33-17.82-.68-.38-.34-.77-.67-1.15-1.01Z"/>
  <path class="cls-12" d="M306.27,128.87c3.53,0,7.06,0,10.59,0,.24,1.61-1.03,1.13-1.75,1.16-1.3,.06-2.61-.07-3.91-.12-.2-.26-.41-.27-.63-.02-1.43-.13-2.87-.25-4.3-.38,0-.21,0-.43,0-.64Z"/>
  <path class="cls-14" d="M322.93,129.58c.38,.34,.77,.67,1.15,1.01-2.04,.17-4.06-.01-6.07-.39-.71-.13-1.5-.25-1.03-1.32,1.98,.23,3.96,.47,5.95,.7Z"/>
  <path class="cls-13" d="M341.9,131.27c0-.2,0-.4-.02-.61,3.08-.12,6.15-.12,9.21,.26-.02,.17-.02,.34,0,.5-3.07,.23-6.13,.13-9.19-.16Z"/>
  <path class="cls-14" d="M306.27,128.87c0,.21,0,.43,0,.64-1.1,.6-2.11,.08-3.14-.26,0-.3,0-.59,.01-.89,1.08-.1,2.22-.56,3.12,.5Z"/>
  <path class="cls-14" d="M310.56,129.89c.22-.25,.43-.24,.63,.02-.21,0-.42-.01-.63-.02Z"/>
  <path class="cls-7" d="M176.03,123.44c-1.68,.95-3.43,2.3-4.28-1.72-1.05,3.84-3.51,5.05-6.29,5.91-3.19,.99-6.35,2.09-9.52,3.14-1.07-.84-2.14-1.68-3.94-3.09,8.36,.46,12.78-4.48,17.12-9.58,7.84-9.21,18.11-12.25,29.73-11.2,3.36,.3,6.84,1.12,9.68,3.34,.19,3.64-.51,4.44-5.49,6.36-10.77-3.57-20.01-1.23-27.02,6.83Z"/>
  <path class="cls-5" d="M164.51,120.46c-2.14,1.13-3.71-.03-5.21,.65,.44,1.57,2.12,.17,2.92,1.48-2.24,2.51-5.12,3.54-8.51,3.37-1.73-.09-3.46-.28-5.19-.38-2.39-.14-3.24,.89-2.3,3.18,.31,.75,.62,1.51,.92,2.27,.47,1.23,.03,1.73-1.26,1.54-4.51-.67-8.78-1.97-12.3-5.02-2.55-2.21-2.35-4.08,.63-5.73,3.68-2.02,7.79-2.79,11.86-2.51,5.19,.36,10.38,.46,15.58,.63,.77,.03,1.54,.26,2.86,.51Zm-23.02,8.39c-.7-1.47-2.1-1.56-3.03-2.3-.63-.5-1.6-.87-1.57-1.75,.04-1.07,1.09-1.39,1.95-1.7,2.51-.9,5.09-1.5,7.79-1.47,2.69,.02,5.39,0,8.08,0-.01-.28-.03-.56-.04-.84-5.92-.91-11.78-.67-17.42,1.73-1.24,.53-2.59,1.79-1.29,3.42,1.33,1.67,3.13,2.72,5.53,2.9Z"/>
  <path class="cls-13" d="M176.03,123.44c7-8.06,16.25-10.4,27.02-6.83,.67,2.48-1,1.51-2.07,1.4-6.38-3.23-14.48-1.29-19.21,4.58-.52,.64-.66,1.99-2.06,1.34,.12-.47,.24-.94,.43-1.64-1.43,.49-2.68,1.21-4.1,1.15Z"/>
  <path class="cls-9" d="M265,126.56c3.33,.2,6.67,.4,10,.6-.02,.34-.03,.68-.05,1.02-5.72-.29-11.44-.58-17.15-.87,2.34-.8,4.91,.54,7.2-.75Z"/>
  <path class="cls-13" d="M265,126.56c-2.29,1.29-4.86-.06-7.2,.75-1.45-.11-2.89-.23-4.34-.34,.04-.18,.04-.36-.02-.54l11.56,.13Z"/>
  <path class="cls-13" d="M274.96,128.18c.02-.34,.03-.68,.05-1.02,.84-.05,1.68-.09,2.52-.14q.13,1.28-2.57,1.16Z"/>
  <path class="cls-9" d="M208.73,125.09c4.21-2.19,8.54-.38,12.82-.42,0,.29,.01,.58,.02,.87l-12.84-.45Z"/>
  <path class="cls-13" d="M221.58,125.55c0-.29-.01-.58-.02-.87,.79,.39,2.4-.97,2.39,1.12-.79-.08-1.58-.17-2.37-.25Z"/>
  <path class="cls-10" d="M202.98,125.13c.49-1.38,.95-1.07,1.39,.03-.46,0-.93-.02-1.39-.03Z"/>
  <path class="cls-12" d="M141.49,128.85c-2.4-.18-4.2-1.23-5.53-2.9-1.3-1.63,.05-2.89,1.29-3.42,5.64-2.4,11.5-2.65,17.42-1.73,.01,.28,.03,.56,.04,.84-2.69,0-5.39,.02-8.08,0-2.7-.02-5.27,.57-7.79,1.47-.86,.31-1.91,.63-1.95,1.7-.03,.89,.94,1.25,1.57,1.75,.93,.74,2.33,.82,3.03,2.3Z"/>
</svg>