<?xml version="1.0" encoding="UTF-8"?>
<svg id="Layer_1" data-name="Layer 1" xmlns="http://www.w3.org/2000/svg" viewBox="0 0 414 200">
  <defs>
    <style>
      .cls-1 {
        fill: #f7b7d3;
      }

      .cls-2 {
        fill: #00bff3;
      }

      .cls-3 {
        fill: #fff9b8;
      }

      .cls-4 {
        fill: #fff200;
      }

      .cls-5 {
        fill: #eceaea;
      }

      .cls-6 {
        fill: #eceae0;
      }

      .cls-7 {
        fill: #fbb040;
      }

      .cls-8 {
        fill: #fdfdfd;
      }

      .cls-9 {
        fill: #665e54;
      }

      .cls-10 {
        fill: #9ed2f1;
      }

      .cls-11 {
        fill: #bbac98;
      }

      .cls-12 {
        fill: #d1cdc5;
      }

      .cls-13 {
        fill: #45403c;
      }

      .cls-14 {
        fill: #35302d;
      }

      .cls-15 {
        fill: #757374;
      }

      .cls-16 {
        fill: #504b48;
      }
    </style>
  </defs>
  <path class="cls-13" d="M350.62,55.7c1.04,.07,2.14-.73,3.3,.38-2.71,1.42-5.64,1.76-8.43,2.47-12.48,3.19-25,6.28-37.5,9.39-4.26,1.06-8.52,2.09-12.8,3.08-1.24,.29-2.18,.59-2.1,2.22,.07,1.49,.55,2.12,2.09,2.45,6.94,1.49,13.25,4.24,18,9.8,.67,.79,1.61,1.04,2.46,1.42,5.78,2.57,10.55,6.34,13.79,11.83,.89,1.52,1.89,3.33,1.84,4.98-.13,3.83,2.71,5.71,4.56,8.26,.15,.21,.21,.48,.32,.72,.19,.85,.02,1.91,1.23,2.17,.4,.37,.65,.8,.51,1.37,.07,.24,.14,.48,.21,.72,0,0,.03,.11,.03,.11,.09,.62-.16,1.43,.86,1.53,.58,2.88,1.15,5.76,.45,8.7-.42,.31-.42,.72-.25,1.16-.06,.44-.12,.89-.18,1.33-1.65,1.15-1.01,3.1-1.61,4.62,0,0,.01-.02,.01-.02-1.51,.48-.77,1.96-1.29,2.89,.69,3.01-1.06,5.58-1.9,8.18-.86,2.65-2.26,5.28-4.05,7.63-2.77,3.63-5.9,6.78-10.34,8.11-2.88,.86-5.16,2.71-7.77,3.99-3.65,1.78-7.48,2.96-11.39,3.92,0,0,.02,0,.02,0-.74,.15-1.49,.31-2.23,.46-.41-.03-.83-.1-1.2,.19-.44,.03-.88,.07-1.32,.1-.37-.37-.62-.21-.81,.18-.18,.01-.36,.03-.54,.04-.42-.1-.82-.09-1.1,.31-.24,.01-.47,.03-.71,.04-.4,0-.79,0-1.19,0-1.02,.33-2.06,.34-3.11,.24-.53-.43-1.05-.43-1.58,0-1-.02-1.99-.03-2.99-.05-.53-.39-.95-.36-1.2,.31l-.73,.3c-.34-.04-.67-.04-.88,.3-.18,.08-.36,.16-.54,.24-.45-.16-.88-.21-1.15,.31-.49,.51-1.12,.53-1.77,.49-.42-.11-.81-.15-1.11,.25-.18,.06-.35,.12-.53,.18-.41-.13-.81-.17-1.12,.22-1.79,.42-3.58,.8-5.43,.75-1.12-.4-2.23-.59-3.29,.18-.95,.26-1.9,.15-2.85,0-1.35-.79-2.74-.6-4.14-.15-1.01,.07-2.01,.11-2.99-.23-.14-.02-.29-.04-.43-.06-.25-.02-.5-.03-.74-.05-.28-.41-.67-.39-1.09-.3-.74-.05-1.49-.1-2.23-.15-.28-.38-.66-.36-1.06-.28-.19-.01-.38-.03-.57-.04-.42-.59-.99-.46-1.56-.33-.45-.06-.91-.12-1.36-.18-.48-.4-.91-1.03-1.64-.41-1.93-.49-3.85-.74-5.76,.05-.48-.03-.98-.1-1.29,.42-1.51,.52-3.03,.98-4.66,.95-.57-.12-1.16-.34-1.56,.33-.52,.33-1.09,.35-1.68,.24-.88-.39-1.75-.69-2.46,.3-.96,.27-1.93,.26-2.91,.15-.95-.51-1.9-.51-2.85,0-1.12,.1-2.23,.11-3.32-.27-.49-.7-1.05-.61-1.64-.15-.58-.06-1.15-.12-1.73-.18-.52-.58-1.17-.62-1.86-.46-.33-.03-.66-.07-.99-.1-.83-.56-1.77-.72-2.75-.72-1.3-.21-2.6-.42-3.9-.63-.55-.57-.82,0-1.16,.28-.29,.08-.59,.16-.88,.24-.38,.03-.76,.07-1.14,.1-.31,.09-.62,.18-.93,.27-.33-.46-.6-.36-.83,.09-.51,.35-1.07,.41-1.66,.31-.32-.39-.58-.3-.81,.09-.45,.04-.9,.07-1.36,.11-.96-.29-1.84-.03-2.7,.39-.98,.37-2,.28-3.01,.2-2.19-.47-4.37-.5-6.56,.02-1.13,.05-2.24-.02-3.34-.32-.26-.4-.65-.41-1.06-.33-.79,.11-1.54-.03-2.27-.29-.13-.07-.27-.14-.4-.21-.34-.07-.75-.03-.99-.22-3.94-3.01-8.05-1.11-12.09-.42-7.31,1.25-14.6,1.65-21.9-.07-2.58-.61-5.03,.43-7.54,.72-7.38,.85-14.75,1.9-22.17,.49-.54-.1-1.1-.18-1.6-.39-2.1-.9-4.25-1.43-6.55-1.02-.32-.39-.58-.3-.81,.09-.44,.05-.89,.1-1.33,.14-.69-.13-1.4-.37-1.98,.28-.34,0-.68,.02-1.01,.02-.47-.06-.95-.17-1.4,.1-.31,.03-.63,.06-.94,.1-1.11-.36-2.21-.54-3.26,.17-1.52,.22-3.03,.25-4.55,0-.92-.67-1.88-.54-2.86-.13-.7-.07-1.4-.14-2.1-.21-.62-.84-1.48-.38-2.25-.43-.93-.15-1.87-.3-2.8-.46-.04-.17-.1-.29-.29-.13-.56-.17-1.13-.35-1.69-.52-.09-.78,.34-1.08,1.04-1.12,2.37,.69,4.75,1.31,7.2,1.66,.19,.45,.44,.65,.82,.17,3.6-.01,7.19-.03,10.79-.04,.6,.52,1.16,.59,1.66-.13,2.15-.71,4.6-.06,6.71-1.33-1.17-1-2.25-1.9-3.3-2.85-1.41-1.29-2.25-3.98-5.06-2.59-.45-.09-.9-.15-1.27,.21-5.89,.62-11.78,.82-17.67-.05-.53-.44-1.16-.61-1.82-.67,0,0-.04-.05-.04-.05-.1-1.09,.71-.91,1.34-.97,1.04,.51,2.17,.5,3.28,.55,.37,.41,.82,.34,1.28,.22,4.43,.45,8.84,.27,13.23-.46,.2-.04,.39-.07,.59-.11,8.17-1.04,15.95-3.58,24.05-6.31-8.8-3.76-17.43-3.46-26.12-1.29-5.65,1.41-10.83,4.14-16.3,6.07-.64-.08-1.44,.03-1.24-1.04,0,0,0,0,0,0,3.07-.81,5.92-2.17,8.81-3.55-1.36-1.31-3.13-1.31-4.69-1.87-1,.18-1.58-1.03-2.6-.77-.44-.61-1.56-.35-1.71-1.34,.44-.1,.89-.21,1.33-.31,.17,.06,.34,.12,.51,.18,1.12,.14,2.24,.38,3.3-.24,.49,.14,.91,.03,1.25-.36,.4-.06,.8-.11,1.2-.17,.36,.08,.65-.01,.85-.33,.84-.09,1.68-.18,2.51-.27,.15-.02,.29-.05,.44-.07,3.51-.18,7.01-.37,10.27,1.4,.53,.29,1.37,.14,2.03,.02,4.11-.76,8.22-.85,12.31,.06,2.29,.51,4.48-.72,6.76-.31,.44,.08,.91,.28,1.24-.23,.68-.57,1.54-.25,2.29-.46,.98,.47,2.02,.18,3.03,.25,.6,.05,1.29-.09,1.32,.84-3.26,.17-6.55,.02-9.58,.89,4.42,4.25,9.08,.28,13.71,.43-.94-.32-1.34-1.52-2.45-1.36,.33-.45,.88-.18,1.28-.39,1.85,.46,3.72,.48,5.61,.45,2.89-.05,5.8-.33,8.6,.62,1.43,.49,2.53-.26,3.71-.74,6.68-2.72,13.3-3.14,19.8,.54,.51,.29,1,.47,1.56,.42,2.35-.2,4.66-.07,6.97,.46,1.28,.29,2.39,.04,3.67-.62,5.54-2.83,11.17-3,16.7,.22,1.07,1.08,1.61-.53,2.47-.49-.03,.28-.05,.57-.08,.85-.33,.34-.24,.62,.18,.73,.49,.13,.95,.06,1.14-.54,2.73-.49,5.48-.22,8.22-.24,.47-.14,.94-.6,1.43-.03,.12,.27,.23,.54,.35,.81-.89,1-1.99,.39-2.99,.33-1.25-.07-2.51-.45-3.71,.23-.37,0-.74,.02-1.11,.03-.75-.14-1.5-.24-2.2,.19-3.9,.98-7.77,2.14-11.71,2.9-4.51,.87-8.67,2.69-13.73,4.25,.75,.34,1,.46,1.25,.56,5.18,2.21,10.55,3.04,16.12,2.09,5.62-.96,10.89-3.18,16.31-4.84,2.53-.77,5.21-1.24,7.61-2.59-1.43-1.21-3.2-1.42-4.7-2.2,0-.29,0-.58-.01-.87,2.11,.66,4.36,.89,6.22,2.27,.24,.18,.68,.24,.98,.16,2.06-.55,4.11-1.16,6.16-1.75,1.88-.64,3.72-1.41,5.74-1.54,1.29-.68,3.06,.26,4.12-1.22-.36-.69-1.4-.16-1.7-.95,.74-.58,1.58-.97,2.2-1.79,1.27-1.69,2.24-3.55,3.36-5.31,1.1-1.73,1.17-3.51,.59-5.11-1.05-2.91-2.53-5.67-3.92-8.45-.56-1.11-.76-2.51-2.15-3.19-.14,.2-.27,.43-.45,.62-1.33,1.34-1.29,3.52-2.88,4.69-.14,0-.29,0-.43-.01-.02-.32-.04-.64-.07-.96,.22-1.27,.94-2.32,1.45-3.47,.57-1.27,1.78-2.57,.66-4.18-.27-.38-.35-1-.98-.82-.42,.12-.54,.57-.59,1-.17,1.29-.35,2.58-.53,3.87-.23,.02-.46,.05-.7,.07-.05-.45-.23-.81-.66-1.01l.4-4.38c1.4-.91,1.43-1.65,.09-2.61-.23-.82-.46-1.63-.68-2.45,0-3.57,0-7.14,0-10.71,.13-.55,.26-1.11,.39-1.66,.19-.14,.27-.33,0-.42-.13-.04-.33,.12-.5,.19-.2,.05-.48,.03-.59,.16-2.95,3.27-6.57,5.89-8.76,9.94-.92,1.7-2.26,4.69-3.39,6.27-1.92-.36,.37-2.87,.01-3.71,.54-1.92,1.95-3.33,2.91-5,.3-.53,.68-1.02,1.04-1.51,.8-1.08,.23-1.54-.79-1.89-1.89-.66-3.47-1.73-4.77-3.35-1.71-2.15-1.83-4.79-2.49-7.24-.6-2.24-.63-4.64-.79-6.97-.08-1.09-.35-1.68-1.57-1.49-2.79,.43-5.57,.93-8.37,1.2-1.65,.16-1.8,1.65-2.41,2.51-4.06,5.66-11.33,7.67-17.73,4.93-.4-.17-.75-.32-1.25-.16,.49,1.06,.98,2.1-.81,2.5-6.39,1.46-12.76,2.03-19.15,.03-.52-.16-1.05-.33-1.52-.59-2.22-1.24-2.22-3.64,.06-5.68,2.04-1.84,4.39-3.18,6.97-4.14,.97-.36,2.14-.58,.4-1.93-7.78-6.03-14.4-13.3-20.87-20.65-5.83-6.61-11.59-13.3-16.93-20.34-5.7-7.51-11.63-14.83-17.38-22.31-1.15-1.5-2.28-3.01-3.45-4.49-.03-.14-.05-.27-.08-.41,.06-.57,.48-.63,.93-.64,.7,.53,1.42,.96,1.97,1.74,1.95,2.76,4.03,5.43,6.09,8.11,2.35,3.06,4.73,6.09,7.08,9.15,2.52,3.27,4.95,6.61,7.54,9.83,2.85,3.53,5.83,6.94,8.75,10.42,3.56,4.24,7.17,8.45,10.92,12.53,4.87,5.31,9.93,10.41,15.36,15.15,1.82,1.6,3.55,2.89,6.17,1.66,1.41-.66,3.02-.9,4.55-1.3,.4-.11,.93-.07,1.06-.5,.16-.55-.35-.82-.73-1.12-1.55-1.21-3.15-2.36-4.61-3.67-4.08-3.68-8.02-7.51-11.85-11.48-3.68-3.82-7.17-7.8-10.64-11.78-3.79-4.34-7.37-8.87-10.98-13.37-3.51-4.38-6.93-8.83-10.39-13.24-2.54-3.24-5.17-6.41-7.58-9.75-1.46-2.02-3.28-3.81-4.29-6.16,.83-.46,1.41-.44,2.08,.46,3.26,4.4,6.54,8.78,9.93,13.08,3.42,4.34,6.85,8.68,10.35,12.96,2.98,3.66,5.84,7.43,8.89,11.04,3.49,4.13,6.99,8.25,10.58,12.3,3.85,4.34,8.03,8.37,12.24,12.36,2.71,2.57,5.58,4.94,8.52,7.23,.85,.67,1.91,.62,2.77,.28,2.12-.82,4.32-1.26,6.52-1.61,1.88-.3,2.69-1.54,3.52-2.95,5.42-9.16,15.19-12.06,24.27-7.03,2.74,1.52,5,1.9,7.81,.99,2.15-.69,4.36-1.18,6.57-1.68,1.93-.44,3.1-1.39,3.99-3.33,2.33-5.09,7.26-9.46,13.38-9.07,3.49,.22,6.5,1.72,9.02,3.99,1.59,1.43,3.12,1.08,4.76,.63,1.47-.4,1.54-1.75,1.72-2.99,.82-5.5,4.01-8.38,10-9.57,4.91-.98,9.53-.54,13.93,1.86,.54,.29,1.14,.59,1.5,1.05,1.98,2.54,4.41,2.02,6.94,1.16,.64-.22,1.34-.25,2.01-.37,.58,.09,1.19,.31,1.55-.41,.28-.08,.55-.15,.83-.23,.74,.71,1.89-.82,2.52,.46-7.76,1.85-15.37,4.33-23.24,5.78-.77,.14-1.32,.38-.82,1.31,.37,.39,.85,.27,1.3,.29-1.74,.47-1.88,1.6-1.67,3.22,.17,1.28,1.08,2.22,1.19,3.41,.11,1.21,.66,1.31,1.65,1.07,9.19-2.23,18.39-4.4,27.57-6.66,9.19-2.27,18.36-4.63,27.54-6.96,5.1-1.29,10.27-2.33,15.29-3.97Zm-14.53,78.22c.62-.44,.39-1.09,.41-1.67h0c1.2-.12,.79-1.02,.82-1.71l.58-4.09c.45-1.08,.43-2.17,.02-3.26-.33-4.58-2.54-8.37-5.06-12.03-.32-.46-.95-1.19-1.42-.39-.94,1.63-1.52,3.45-2.71,4.96-.16,.21,.06,.79,.21,1.15,2.06,5.05,2.03,10.05-.06,15.11-.63,1.53-1.39,2.92-2.35,4.25-.36,.5-.54,1.21-.11,1.73,.41,.51,1.06,.15,1.53,0,2.51-.88,5.09-1.61,7.26-3.25,.57,.02,.9-.21,.88-.82h0Zm-148.12-45.93c.21-.51,1.28-.27,1.02-1.34-1.64,.29-3.28,.49-4.75,1.36-6.22,1.37-12.44,2.72-18.36,5.16-2.34,.96-4.6,2.06-6.55,3.71-2.05,1.73-1.77,3.72,.71,4.58,4.34,1.5,8.82,1.21,13.26,.73,1.38-.15,2.9-.16,4.17-1.07-.71-1.09-1.81-1.68-2.7-2.5-.5-.46-1.59-.57-1.36-1.59,.22-1,1.19-1.33,1.99-1.51,2.27-.52,4.57-1.21,6.85-1.22,3.06-.01,4.96-2.29,5.71-5.53,0-.26,0-.51,0-.77Zm15.27-4.08c.28,.02,.56,.04,.84,.06,0,.21,0,.42,.01,.63-2.16,.14-3.38,1.21-3.45,3.45-.02,.69-.08,1.38-.2,2.06-.18,1.05,.24,1.35,1.24,1.2,8.84-1.26,17.54-3.21,26.29-4.93,2.15-.42,2.99-1.41,2.67-3.58-.14-.93,.16-1.85,.58-2.78,.57-1.25,.34-2.3-1.47-2.01-.27-1.08,.6-.83,1.12-.94,.54-.11,1-.38,.83-.92-.13-.4-.69-.29-1.09-.19-1.52,.4-3.04,.78-4.54,1.21-3.06,.88-6.27,1.23-9.17,2.65-.41,.07-.83,.14-1.24,.21-4.1,.89-8.19,1.86-12.21,3.07-.57-.14-1.02,0-.93,.66,.06,.45,.42,.46,.74,.14Zm120.62,51.62l-.1,.03c-.04-3.26-1.52-5.96-3.34-8.52-1.26-1.77-1.28-1.75-2.19,.21-1.95,3.06-3.23,6.38-3.7,10-1.07,.41-.66,1.4-.76,2.14-.36,2.87,.42,5.76-.01,8.64-.5,2.14-1.88,3.86-2.85,5.82,5.39,.32,12.14-4.53,12.89-11.56,1.04-1.29,1.08-5.38,.06-6.74Zm-49.03,17.82c.01,.31,.02,.62,.03,.93-1.18,.71-2.55,.48-3.81,.78-7.34,1.74-14.48,4.18-21.73,6.24-1.84,.52-3.78,.85-5.57,1.84,.52,.55,1.02,.49,1.49,.56,10.95,1.53,21.83,1.3,32.56-1.51,4.1-1.07,7.63-3.3,10.98-6.37-1.95-.54-3.57-.99-5.19-1.43,.27-.35,.55-.69,.82-1.04,.27,.02,.54,.05,.8,.07,.22,.38,.56,.43,.95,.38,1.71-.16,3.12,1.2,4.85,.92,.32,.4,.92,.61,.85,1.27-2.95,2.18-5.81,4.48-9.19,6.01-.57,.26-1.24,.75,.06,1.02-.17,1.18-1.17,.61-1.78,.84-.51-.03-1.02-.06-1.53-.09-.7-.54-1.38-.58-2.06,.03-.45,.16-.91,.32-1.35,.5-.48,.2-1.28-.12-1.43,.55-.13,.61,.57,.82,.98,1.17,3.29,2.78,7.26,3.48,11.33,3.52,7.47,.06,14.62-1.63,21.48-4.56,1.81-.77,3.74-1.39,5.45-3.03-3.63-.38-6.88-.79-9.99-1.89-.15-.57-.3-1.14-.45-1.72,.36-.5,.86-.83,1.34-1.22,3.25-2.57,5.97-5.53,7.11-9.71,.39-1.45-.06-1.85-1.39-1.95-2.37-.18-4.62,.29-6.85,1-.49,0-1.12-.31-1.23,.55l-.07,.07c-.33-.31-.53-.67-.54-1.13,.24-.29,.47-.58,.71-.87,.8,.08,1-.39,.97-1.07,1.08-2.19,2.89-3.67,4.89-4.96,1.76-1.12,3.78-1.66,4.41-4.32,.41-1.75,.9-3.41,.09-4.9-1.11-2.02-.89-4.09-.4-5.99,.49-1.89,1.9-3.71,.3-5.5-1.31-1.47-1.7-3.52-3.38-4.72-2.7-1.94-5.15-4.11-5.53-7.75-.05-.49-.33-.88-.89-1.01-2.66-.62-5.04-2.05-7.81-2.44-2.98-.42-6.27-.92-8.12-3.45-1.83-2.5-3.75-2.56-6.3-1.93-1.25,.31-2.6,.21-3.91,.27-.84,.03-1.66,.13-2.39,.56-4.34,2.5-8.99,4.29-13.77,5.74-.77,.23-1.37,.41-1.62,1.31-1.07,3.8-3.27,7.32-2.75,11.53,.14,1.16,.05,2.34,.04,3.52-.05,4.09-1.63,7.5-4.57,10.32-.78,.75-1.11,1.6-.98,2.78,.4,3.63,.69,7.27,.29,10.94-.25,2.32-1.37,4.05-2.9,5.63-.46,.47-1.72,.59-.9,1.58,.58,.7,1.01,1.77,2.57,1,4.14-2.05,8.56-2.33,13.06-1.3,.03,.23,.16,.31,.38,.21l1.42,.39c.24,.48,.66,.49,1.11,.41,.66,.37,1.31,.74,1.97,1.11,.25,.58,.69,.82,1.32,.73,.54,.35,1.08,.15,1.62,0,.58,0,1.17,.02,1.67-.36,.54-.06,1.08-.12,1.62-.18,.28,.04,.56,.07,.83,.11Zm-24.83-81.02c0,.23,.02,.46,.02,.69-1.58-.02-2.12,.8-2.06,2.31,.06,1.51,0,3.04-.09,4.55-.07,1.18,.36,1.47,1.46,1.14,1.51-.45,3.03-.82,4.56-1.19,3.53-.86,7.07-1.68,10.59-2.56,.57-.14,1.72-.23,1.09-1.21-1.25-1.95-1.54-4.36-3.09-6.13-.02-.21-.04-.41-.07-.62,.44-1.61-.51-1.15-1.34-.92-2.36,.64-4.77,1.12-7.08,1.92-1.91,.66-4.01,.64-5.89,1.7,.65,.44,1.28,.3,1.88,.34Zm12.82,10.54c-.1-.84-.02-1.64,.47-2.36,1.11-.18,.91-1,.72-1.68-.11-.38-.5-.34-.7,.07-.32,.12-.64,.31-.96,.33-1.95,.11-2.64,1.07-2.49,3.03,.17,2.25,.01,4.52,.06,6.79,.01,.61-.41,1.58,.48,1.76,.99,.21,2.05,.02,2.91-.68,.81-.66,.05-1.14-.16-1.72-.28-.77-.46-1.58-.33-2.42,0-1.04,0-2.09,0-3.13Zm-104.67,69.44c-2.34,.2-4.66,.53-6.87,1.34-.88,.32-2.33,.37-2.44,1.2-.13,1.04,1.42,.9,2.15,1.42,.88,.62,1.93,1,2.92,1.47,1.09,.52,2.22,.71,3.4,.38,2.9-.82,5.8-1.64,8.69-2.49,.36-.1,.97-.15,.85-.68-.07-.31-.54-.57-.89-.76-1.9-1.03-3.98-1.46-6.08-1.82-.56-.67-1.14-.69-1.74-.07Zm74.17-57.72c-.62-1.63-.77-3.34-.97-5.05-.19-1.66-.9-2.65-2.82-2.02-1.24,.4-2.51,.75-3.79,.95-1.14,.18-1.4,.71-1.37,1.81,.09,3.19,.93,6.21,2.03,9.15,1.16,3.09,3.77,3.95,5.94,2.06,.86-.75,1.67-1.57,2.5-2.36,.41-.02,.82-.11,.79-.62-.03-.51-.46-.54-.85-.56-.57-.61-.45-1.44-.72-2.15,.01-.57,.05-1.15-.75-1.22Zm-27.96,76.6c.21-.02,.48,.16,.61-.16-.17-.06-.34-.12-.51-.18-1.24-1.04-2.75-1.94-3.45-3.38-.86-1.78-1.9-1.69-3.48-1.21-7.45,2.23-14.83,2.05-21.89-1.39-1.78-.87-3.22-.77-4.86-.04-.54,.24-1.3,.18-1.43,.97-.14,.86,.41,1.52,1.02,1.9,1.73,1.08,3.5,2.1,5.32,3,3.73,1.82,7.78,2.13,11.85,2.2,5.66,.09,11.25-.64,16.81-1.69Zm123.93-43.25c.88-3.49-.18-6.87-.58-10.29-.02-.16-.41-.27-.63-.4-.27-1.14-.71-2.08-1.72-2.89-3.57-2.88-7.74-4.51-11.92-6.15-1.12-.44-1.46,.14-1.63,1.13-.53,3.2,.45,6.06,2.53,8.31,4.45,4.81,9.34,9.26,10.92,16.02,.06,.26,.11,.62,.45,.57,.22-.03,.54-.23,.61-.43,.74-1.92,2.21-3.61,1.96-5.86Zm-196.18,35.92c7.26-.52,14.12-2.81,21.41-4.55-7.29-4.8-14.86-4.97-22.71-3.38-7,1.42-13.63,4.05-20.49,5.92-.41,.11-.88,.18-.87,.68,0,.55,.57,.45,.93,.59,2.86,1.1,5.84,1.48,8.88,1.55,.69,.37,1.4,.32,2.11,.09,3.33,.25,6.6-.25,9.88-.68,.33,.09,.65,.16,.86-.22Zm132.15-78.35c.22,2.4,1.23,4.34,2.92,6.11,4.74,4.96,10.48,5.17,16.51,3.57,6.71-1.78,13.37-3.71,20.41-3.46,.38,.01,.91,.14,1.03-.4,.1-.43-.29-.68-.56-1-1.19-1.42-2.6-2.6-4.17-3.53-3.8-2.26-7.63-3.96-12.39-3.03-4.77,.92-9.59,1.92-14.52,1.72-2.29-.09-4.1-.91-5.19-2.96-.42-.78-.59-1.69-.9-2.53-.38-1.04-.78-1.23-1.74-.36-1.16,1.07-.99,2.5-1.45,3.75-1.33,.74-1.48,1.45,.06,2.12Zm-31.98,.32c-.01,1.17-.04,2.33-.04,3.5,0,.67-.15,1.45,.89,1.53,.08,.07,.09,.14,.03,.23-.03,.64-.28,1.31,.3,1.85l.43,1.28c.16,.73-.47,1.79,.85,2.04,.42,.93,.83,1.87,1.26,2.8,1.88,4.06,3.76,8.11,5.63,12.17,.21,.44-.04,1.22,.85,1.15,.61-.05,.65-.61,.88-1.02,1.58-2.69,2.25-5.74,2.76-8.7,1.07-6.14,1.14-12.44,0-18.55-.82-4.37,.06-8.42,.76-12.56,.22-1.28,1.17-2.59,2.69-2.26,1.67,.36,3.12-.15,4.66-.4,1.36-.22,1.03-.91,.37-1.5-3.26-2.93-8.44-4.64-12.74-2.33-4.48,2.41-6.78,6.64-8.19,11.22-.94,3.03-.95,6.35-1.37,9.55Zm17.42,54.76c-.41-2.83-.86-5.66-1.23-8.49-.34-2.55-1.35-4.92-2.45-7.14-1.37-2.77-2.58-5.61-3.94-8.39-1.51-3.09-2.59-6.4-4.18-9.45-.93-1.8-1.43-3.79-2.53-5.5-.41-.63-.71-1.31-1.52-.58-.81,.73-1.67,1.45-2.27,2.34-2.12,3.11-2.02,6.87-2.53,10.36-.42,2.85,.56,5.74,2.46,8.15,.74,.94,1.45,1.93,2.07,2.96,1.46,2.42,3.07,4.78,4.23,7.35,1.45,3.21,3.4,6.27,3.91,9.82,.34,2.34,1.11,4.25,2.91,5.86,1.56,1.39,2.58,1.44,3.35-.59,.81-2.13,1.8-4.27,1.7-6.68Zm38.9-80.31c-4.25-4.51-11.33-5.85-16.66-4.32-3.97,1.15-6.58,3.61-7.5,7.74-.65,2.93-.02,5.5,1.19,8.27,1.45,3.34,3.14,6.59,4.33,10.05,.38,1.11,1.26,1.76,2.59,1.99,2.09,.36,4.12-.06,6.17-.15,2.31-.1,2.54-.4,1.74-2.59-1.59-4.3-4.15-8.17-4.98-12.85-.37-2.12,.22-3.71,.89-5.4,.39-.99,1.56-1.34,2.65-1.11,3.36,.71,6.24-.94,9.59-1.64Zm-30.68,26.95c.05,0,.11,0,.16,0,0-1.79-.06-3.59,.02-5.38,.05-1.17-.42-1.48-1.47-1.22-2.53,.63-5.05,1.27-7.58,1.87-1.12,.27-1.04,1.03-1.01,1.91,.13,3.51,.16,7.03,.32,10.55,.2,4.72-.59,9.29-1.98,13.76-.47,1.52-1.19,3.07-2.18,4.3-.84,1.04-.82,1.91-.61,3.03,.27,1.41,1.54,2.27,1.87,3.64,.09,.39,.51,.48,.84,.26,2.34-1.51,5.08-2.6,6.66-4.98,2.9-4.38,4.41-9.38,4.88-14.54,.4-4.37,.08-8.8,.08-13.2Zm-50.37,76.09c7.68,2.89,15.51,3.9,23.44,1.86,7.55-1.95,14.98-4.31,22.47-6.49,.38-.11,.92-.08,.97-.57,.07-.65-.62-.58-1-.83-5.63-3.72-11.96-3.01-17.98-2.18-9.64,1.32-18.65,5.22-27.9,8.22Zm-30.15-66.51c3.28,2.31,6.52,3.95,10.28,3.33,6.51-1.08,10.86-6.28,11.47-12.88,.28-3.04,1.79-4.88,4.71-5.66,3.18-.85,6.39-1.61,9.57-2.46,.89-.24,2.34-.04,2.49-1.02,.17-1.09-1.36-1.16-2.13-1.56-9.99-5.09-19.14,.73-22.64,9.93-.98,2.58-2.23,5.08-3.82,7.34-1,1.43-2.4,2.29-4.4,2.01-1.75-.25-3.51,.19-5.54,.99Zm102.81,73.6c-2.5-1.05-4.93-2.18-6.7-4.19-1.04-1.18-2.08-1.27-3.44-1.09-9.56,1.31-19.08,1.03-28.56-.8-2.14-.41-4.07,.36-6.13,1.23,2.02,1.92,4.03,3.53,6.46,4.24,6.89,2,13.95,3.08,21.12,3.23,5.85,.12,11.63-.55,17.25-2.63Zm-138.66-6.67c.68,.42,.89,.58,1.12,.68,6.46,2.77,12.96,3.52,19.87,1.43,6.68-2.02,13.3-4.21,19.97-6.26,.4-.12,.81-.27,.92-.72,.11-.46-.33-.57-.61-.68-3.93-1.49-7.92-2.89-12.21-2.16-6.71,1.14-13.05,3.7-19.65,5.27-2.98,.71-5.92,1.53-9.4,2.44Zm160.41-70.44c-1.84,.16-4.17,.31-6.49,.58-1.41,.16-1.95,.92-1.16,2.27,1.94,3.35,4.59,5.96,8.34,7.06,5.91,1.74,11.74,3.65,17.35,6.2,.35,.16,.8,.53,1.08,.06,.18-.3,.24-.9,.06-1.16-.57-.82-.67-1.76-.94-2.67-1.15-3.86-3.33-7.02-6.61-9.42-3.34-2.45-7.19-2.8-11.62-2.93Zm11.53,67.15c3.73,.08,6.14-.4,8.41-1.8,2.95-1.83,5.08-4.31,6.97-7.19,2.63-4,4.22-8.39,5.62-12.89,.12-.39,.56-.95,0-1.29-.45-.28-.9,.11-1.35,.29-1.2,.49-2.39,1.2-3.63,1.34-2.72,.29-3.69,2.05-4.15,4.34-1.36,6.9-5.96,10.46-12.45,11.83-2.38,.5-4.58,1.04-6.28,2.87-.25,.27-.86,.27-.73,.82,.11,.47,.65,.5,1.02,.59,2.54,.62,5.09,1.13,6.59,1.11Zm-112.07,4.93c1.39,2.06,2.85,4.12,5.2,4.95,8.94,3.15,18.11,3.77,27.42,1.92,1.91-.38,3.85-.67,5.91-1.69-1.93-1-3.55-1.97-4.91-3.26-.98-.93-1.97-1.2-3.34-.9-8.4,1.82-16.66,1.33-24.72-1.72-2.02-.77-3.83-.56-5.56,.71Zm-99.44-1.22c.35,.37,.63,.64,.89,.95,3.02,3.57,6.63,6.22,11.3,7.1,4.99,.93,10.03,.55,15.03,.13,3.03-.25,6.1-.5,9.43-1.37-2.17-1.23-3.92-2.5-5.25-4.18-1.01-1.28-2.05-1.3-3.53-1.17-6.73,.63-13.55,1.22-19.99-1.3-2.75-1.08-5.14-1.4-7.88-.15Zm126.2-60.04c-2.9-1.47-4.2-3.73-5.2-6.64-.78-2.27-.79-4.53-1.27-6.76-.21-1.02-.5-1.46-1.6-1.22-2.27,.5-4.56,.95-6.85,1.36-1.08,.19-1.11,.73-1.11,1.73,0,3.47,1.06,6.75,1.5,10.14,.49,3.71,2.75,5.76,6.03,6.97,.91,.34,1.74,.49,2.63-.38,1.79-1.76,3.75-3.35,5.86-5.2Zm101.77,4.63c.03-4.18-1.36-7.1-3.05-10.01-2.55-4.39-6.36-7.32-10.66-9.73-.83-.46-1.67-.5-1.37,.95,.25,1.22,.24,2.47,.06,3.7-.16,1.05,.14,1.68,1.02,2.43,3.53,3,5.93,7.05,6.61,11.42,.49,3.16,2.25,4.52,4.21,6.2,.71,.61,1.23,.54,1.61-.28,.8-1.72,1.83-3.38,1.57-4.68Zm-16.71-17.12c.25-2.49-.84-4.6-2.3-6.2-4.08-4.46-9.43-6.84-15.24-8.19-2.66-.62-2.62-.51-3.06,2.35-.27,1.77-.29,2.65,1.99,3.16,4.14,.93,7.9,3.04,10.72,6.31,1.63,1.88,3.2,3.29,5.72,4.09,2.21,.7,2.39,.27,2.16-1.51Zm-178.96,73.73c1.9,2.32,3.95,4.31,6.8,5.06,3.85,1.02,7.77,1.63,11.79,1.61,5.45-.03,10.82-.6,16.1-1.96,.43-.11,1.54,.1,.88-1-1.48-2.47-3-3.17-5.88-2.2-7.31,2.45-14.52,2.06-21.43-1.09-2.84-1.3-5.35-1.78-8.27-.43Zm156.75-88.06c0-1.31,0-2.61,0-3.92,0-.71-.21-1.21-1.1-.98-3.17,.81-6.36,1.57-9.52,2.41-.74,.2-.85,.45-.38,1.4,.89,1.79,2.1,3.51,2.35,5.6,.14,1.16,.85,1.46,1.89,1.27,.67-.12,1.34-.27,2.02-.39q4.61-.79,4.75-5.4Zm-27.06,14.4c-3-.06-3.99,.88-4,3.75,0,1.93,.06,3.86-.39,5.76-.21,.9-.04,1.39,.99,1.05,3.83-1.25,7.63-2.6,11.17-4.59,.94-.53,1.02-.83-.03-1.26-2.24-.91-4.12-2.36-5.89-3.98-.5-.46-1.09-.85-1.85-.73Zm-9.36,27.81c0-.77,.06-1.13-.01-1.46-.13-.56,.35-1.38-.42-1.64-.58-.19-.9,.5-1.3,.86-1.63,1.45-3.46,2.64-5.37,3.66-.9,.49-.97,.96-.67,1.81,.59,1.66,1.74,3.1,1.99,4.89,.08,.59,.37,.99,.7,1.43,.55,.73,.92,.85,1.52-.01,2.11-3,3.79-6.13,3.56-9.54Zm-4.87,34.33c2.41,1.29,4.59,2.46,6.78,3.6,.28,.14,.7,.16,1.01,.07,3.17-.93,6.32-1.9,9.76-2.94-5.85-3.65-11.5-3.69-17.55-.73Zm-62.59,4.39c2.92-.28,5.62-1.34,8.35-2.16,1.07-.32,.15-1-.35-1.23-4.51-2.04-9.01-2-13.46,.19-.62,.3-1.14,.91-.12,1.27,1.86,.66,3.57,1.78,5.58,1.93Zm54.32-4.85c1.24,0,2.48,.01,3.72,0,.39,0,.89,.13,1.08-.36,.15-.39,.02-.81-.28-1.14-1.46-1.61-2.93-3.22-4.39-4.84-.48-.54-1.07-.84-1.51-.09-.98,1.61-2,3.18-3.13,4.69-.85,1.13-.42,1.78,1,1.76,1.17-.01,2.34,0,3.52,0Zm54.3-52.11c-1.46-2.3-3.11-4-3.9-6.2-.17-.46-.7-.39-1.09-.3-.8,.17-1.59,.37-2.37,.61-1.64,.5-1.96,1.41-.74,2.52,2.16,1.97,4.86,2.75,8.1,3.38Zm-200.16,52.9c-4.15-1.93-8.17-.86-12.21,.17,1.74,.56,3.02,2.46,4.81,2.12,2.52-.48,4.94-1.5,7.4-2.29Zm213.08-9.95s0,0,0,0c.75,0,1.5-.03,2.25,0,.62,.03,1.13-.02,1.1-.81-.06-1.41,.65-3.5-.29-4.07-1.1-.67-2.41,.98-3.52,1.82-.32,.24-.78,.43-.93,.76-.39,.85-1.98,1.17-1.5,2.16,.38,.77,1.62,.04,2.48,.12,.14,.01,.27,0,.41,0Zm5.97-15.32c3.38-2.49,3.94-4.9,1.77-6.96-.71-.68-1.14-.66-1.39,.38-.51,2.1-.65,4.22-.37,6.58Zm-4.69-16.95c.14-1.4,.26-2.55,.36-3.71,.06-.63,.11-1.34-.71-1.47-1.2-.2-2.24-1.12-3.52-.81-.35,.08-.35,.59-.21,.91,.89,2,1.99,3.83,4.09,5.08Zm-134.73-14.49c.71,.66,1.18,1.57,2.32,1.61,.1,0,.32-.39,.28-.43-.61-.72-1.28-1.38-2.32-1.41-.05,0-.1,.08-.28,.23Z"/>
  <path class="cls-7" d="M115.62,17.6c1.01,2.34,2.83,4.13,4.29,6.16,2.41,3.34,5.04,6.51,7.58,9.75,3.46,4.42,6.89,8.86,10.39,13.24,3.61,4.5,7.19,9.03,10.98,13.37,3.48,3.99,6.96,7.96,10.64,11.78,3.82,3.97,7.76,7.79,11.85,11.48,1.46,1.31,3.06,2.46,4.61,3.67,.38,.3,.89,.57,.73,1.12-.13,.43-.66,.4-1.06,.5-1.53,.41-3.14,.64-4.55,1.3-2.62,1.23-4.35-.06-6.17-1.66-5.42-4.75-10.49-9.84-15.36-15.15-3.75-4.09-7.35-8.29-10.92-12.53-2.92-3.47-5.9-6.89-8.75-10.42-2.59-3.21-5.03-6.55-7.54-9.83-2.35-3.06-4.73-6.09-7.08-9.15-2.06-2.68-4.14-5.35-6.09-8.11-.55-.78-1.27-1.21-1.97-1.74,2.79-1.29,5.49-2.78,8.4-3.8Z"/>
  <path class="cls-3" d="M350.62,55.7c-5.01,1.64-10.19,2.67-15.29,3.97-9.18,2.33-18.35,4.69-27.54,6.96-9.18,2.27-18.38,4.43-27.57,6.66-.99,.24-1.54,.14-1.65-1.07-.11-1.2-1.03-2.13-1.19-3.41-.21-1.62-.06-2.75,1.67-3.22,3.27,.1,6.21-1.35,9.3-2.08,7.7-1.82,15.36-3.84,23.04-5.78,.54-.02,1.13,.17,1.53-.38,.27-.03,.55-.03,.82-.1,8.44-2.08,16.91-4.08,25.31-6.32,1.61-.43,3.65-.09,4.81-1.83,.02-.16,.05-.32,.07-.49,1.77,2.04,3.9,3.64,6.2,5.04,.82,.49,.32,1.37,.48,2.06Z"/>
  <path class="cls-14" d="M133.41,128.04c1.04-.06,.7,.9,.53,1.94-.18,1.1-1.88,2.02-.84,3.09,.64,.66,2.04,.58,3.1,.83,14.93,3.47,29.74,7.46,44.59,11.27,5.44,1.39,10.86,2.86,16.33,4.16,.64,.15,1.92,.21,1.49,1.46-.33,.93-1.19,1.16-2.19,.9-10.59-2.77-21.18-5.55-31.78-8.27-7.75-1.99-15.53-3.89-23.3-5.83-2.52-.63-5.04-1.26-7.56-1.88-1.51-.37-2.61-.3-2.92,1.7-.27,1.79-1.24,2.09-2.73,1.07-3.3-2.25-6.57-4.56-9.86-6.83-.36-.25-.67-.51-.65-.96,.03-.54,.47-.58,.89-.64,4.77-.63,9.55-1.27,14.9-1.98Z"/>
  <path class="cls-14" d="M202.42,145.47c-2.8-.44-5.26-1.83-7.82-2.89-15.13-6.26-30.23-12.6-45.98-17.17-1.73-.5-3.34-1.1-4.05,1.57-.39,1.45-1.39,1.94-3.05,.59-2.76-2.26-5.43-4.67-8.48-6.56-.55-.34-1.26-.92-1.06-1.63,.18-.64,1.03-.52,1.64-.57,4.26-.36,8.51-.73,12.77-1.07,.72-.06,1.68-.45,2.11,.32,.48,.86-.12,1.81-.66,2.42-1.25,1.41-.95,2.07,.77,2.52,9.93,2.64,19.55,6.22,29.09,10.01,8.03,3.19,15.97,6.62,23.99,9.85,.98,.4,1.53,.97,1.96,1.82,0,0,.04,0,.04,0-.71-.43-1.01-.22-1.24,.83v-.04Z"/>
  <path class="cls-14" d="M211.9,119.52c.19,.24,.38,.47,.57,.71,4.05,4.91,8.75,9.31,11.85,14.97,1.75,3.21,3.5,6.42,3.86,10.15,.24,2.46,.09,4.89-1.14,7.13-.2,.46-.4,.92-.6,1.38-.73-.03-.86,.51-.99,1.05-.12,.14-.23,.27-.35,.41-3.78,1.09-7.49,.22-11.19-.49-.61-.12-1.94,.34-1.58-1.19,.27-1.15,1.2-.99,1.99-.87,1.62,.25,3.23,.59,4.83,.94,3.56,.77,5.05-.05,6.04-4.35,.78-3.37-.02-6.57-1.39-9.72-1.79-4.12-4.58-7.54-7.3-11-1.08-1.37-1.96-3.07-3.72-3.83-.22-.31-.43-.62-.65-.92-.03-.64-.44-.79-.98-.77-1.57-2.47-3.99-4.12-5.94-6.22-1.51-1.62-3.24-3.03-4.94-4.46-.51-.44-1.45-.73-.72-1.48,.6-.61,1.53-1.34,2.5-.46,2.34,2.12,4.65,4.28,6.97,6.43,.59,.55,1.16,1.11,1.74,1.66,.21,.52,.37,1.08,1.13,.95Z"/>
  <path class="cls-10" d="M97.76,164.77c2.82-1.39,3.65,1.3,5.06,2.59,1.04,.95,2.12,1.84,3.3,2.85-2.12,1.27-4.56,.62-6.71,1.33-.57-.17-1.13-.17-1.66,.13-3.6,.01-7.19,.03-10.79,.04-.24-.23-.51-.29-.82-.17-2.45-.35-4.83-.98-7.2-1.66-.52-.57-1.13-1.24-1.88-.62-.61,.5-.22,1.26,.13,1.87-1.42-.26-2-1.61-.98-2.68,.95-1.01,1.23-2.24,1.67-3.44,.32-.02,.64-.05,.96-.07,5.89,.87,11.78,.67,17.67,.05,.53,.58,.97,.58,1.27-.21Z"/>
  <path class="cls-14" d="M210.43,139.97c-5.2-5.99-10.93-11.46-16.59-16.99-2.07-2.02-4.35-3.84-6.44-5.86-.47-.45-1.46-.78-.71-1.5,.6-.57,1.59-1.34,2.53-.46,4.42,4.13,8.85,8.25,13.18,12.47,3.23,3.15,6.32,6.44,9.47,9.67,.18,.48,.39,.95,.89,1.2,0,0,0,.02,0,.02,2.02,2.48,4.06,4.96,5.61,7.76,.71,1.3,1.3,2.95,.25,4.31-.97,1.25-2.35,.66-3.59,.17-.26-.1-.52-.16-.57-.49,1.79-1.59,2.01-2.85,.68-4.52-1.55-1.94-2.89-4.05-4.7-5.78Z"/>
  <path class="cls-13" d="M103.68,125.24c.82-1.02,1.79-.68,2.65-.81,1.25-.2,2.73-.56,2.71-1.97-.02-1.51-1.49-1.94-2.87-2.08-1.78-.18-3.3,.33-4.24,1.9-.46,.78-1.05,1.02-1.66,.56-.66-.5-.36-1.3,.09-1.85,1.92-2.4,7.81-2.73,10.02-.58,1.08,1.04,1.09,2.9-.19,3.78-1.09,.74-.8,.88,.09,1.48,1.6,1.07,1.49,3.34-.08,4.44-2.47,1.71-6.96,1.76-9.43,.09-.27-.18-.6-.39-.73-.67-.3-.63-1.13-1.39-.22-1.98,.67-.43,1.45-.07,1.83,.79,.91,2.07,5.34,2.17,7.18,.66,1-.81,.5-2.31-.81-2.93-1.33-.62-2.9,.08-4.35-.84Z"/>
  <path class="cls-13" d="M125.76,110.72c2.94,0,5.39-.02,7.84,.02,.6,0,1.6-.31,1.5,.81-.08,.91-.97,.58-1.51,.58-3.1,.03-6.19,.03-9.29,0-1.28-.01-1.74-.22-.81-1.66,1.58-2.45,4.17-3.14,6.46-4.41,.59-.33,1.27-.51,1.82-.88,1.4-.94,1.19-2.9-.36-3.6-2.28-1.04-4.31-.42-5.5,1.82-.45,.84-1,.91-1.67,.61-.85-.39-.35-1.07-.18-1.62,.36-1.17,1.39-1.67,2.4-2.05,2.06-.78,4.15-.83,6.21,.1,1.21,.54,2.34,1.11,2.5,2.65,.17,1.64-.92,2.41-2.09,3.14-2.13,1.33-4.67,1.91-6.6,3.6-.14,.13-.25,.3-.74,.88Z"/>
  <path class="cls-3" d="M312.93,57.33c-.41,.55-1,.36-1.53,.38-2.21-.63-4.24,.19-6.34,.73-9.09,2.32-18.2,4.57-27.3,6.85-.5-.92,.05-1.16,.82-1.31,7.86-1.45,15.47-3.93,23.24-5.78,.53-.15,1.06-.31,1.59-.46,1.24-.29,2.49-.58,3.73-.87,12.27-3.04,24.55-6.07,36.82-9.11,0,.28-.01,.56-.02,.84-.02,.16-.05,.32-.07,.49-.61,.01-1.25-.1-1.83,.05-9.07,2.27-18.14,4.58-27.2,6.87-.82,.21-1.6,.41-1.91,1.33Z"/>
  <path class="cls-16" d="M343.96,47.76c-12.27,3.04-24.55,6.07-36.82,9.11,0-.14,0-.27-.01-.41l.02-.03c.53,.02,.79-.25,.83-.76,3.12-1.23,6.42-1.81,9.65-2.63,7.89-2.01,15.81-3.95,23.73-5.85,.86-.21,2.1-1.23,2.6,.57Z"/>
  <path class="cls-13" d="M233.41,52.49c0,1.45,.02,2.9-.01,4.34-.02,.77,.3,1.79-1.08,1.74-1.16-.05-1.25-.79-1.21-1.72,.07-1.51,0-3.04,.08-4.55,.08-1.44-.37-2.29-1.97-2.12-.6,.07-1.24-.03-1.28-.7-.04-.55,.62-.57,1.07-.65,1.16-.21,1.88-1.01,2.44-1.94,.33-.55,.7-.87,1.31-.72,.71,.17,.64,.8,.64,1.34,0,1.66,0,3.31,0,4.97Z"/>
  <path class="cls-16" d="M207.79,141.23c.2-.02,.43,.02,.6-.06,.64-.31,1.41-.52,1.73,.19,.28,.63-.77,.52-1.02,.99-.12,.23-.33,.41-.5,.61-2.7,1.31-4.45,3.58-6.19,5.91-1.16,1.55-1.38,3.6-2.85,4.94-.86-.04-1.4,1.57-2.47,.49,2.03-.67,2.31-2.79,3.06-4.28,.67-1.33,1.02-2.73,2.33-3.64,.32-.22,.56-.66-.07-.92,0,0,0,.04,0,.04,1.05,.33,1.28,.18,1.24-.83,0,0-.04,.01-.04,0,1.87-.57,2.45-2.7,4.17-3.45Z"/>
  <path class="cls-10" d="M81.19,155.46c1.55,.56,3.32,.56,4.69,1.87-2.89,1.38-5.74,2.74-8.81,3.55-.05-.56,.68-.81,.66-1.17-.16-2.42,.39-4.11,3.33-3.69,.02,0,.09-.36,.13-.56Z"/>
  <path class="cls-16" d="M212.77,125.69c1.54-.45,1.77,1.29,1.72,3.25-.63,3.32,.38,7.95,.78,11.19-.82,.15-1.5-1.63-1.69-2.39-.82-.44-.24,0-.5-.44-.06-2.21-.41-5.31-.46-7.52,.05-.83,.1-3.26,.15-4.09Z"/>
  <path class="cls-15" d="M130.47,152.94c-.4,.21-.95-.07-1.28,.39-.54,.68-1.11,.25-1.67,.04-.02-.94-.72-.79-1.32-.84-1.01-.08-2.05,.22-3.03-.25,2.49-.34,4.97-.64,7.31,.67Z"/>
  <path class="cls-16" d="M303.41,57.74c-.53,.15-1.06,.31-1.59,.46-.64-1.28-1.78,.25-2.52-.46,2.57-.85,5.17-1.57,7.86-1.92,0,.2,0,.41,0,.61,0,0-.02,.03-.02,.02-1.32,.19-2.84-.2-3.72,1.28Z"/>
  <path class="cls-10" d="M77.07,160.88c-.19,1.08,.6,.97,1.24,1.04,0,.44,0,.88,0,1.32-.64,.06-1.45-.11-1.34,.97-1.44-.03-1.06-1.11-1.13-1.95-.07-.9,.18-1.5,1.24-1.39Z"/>
  <path class="cls-16" d="M185.09,174.03c2.18-.52,4.37-.49,6.56-.02-2.18,.32-4.37,.32-6.56,.02Z"/>
  <path class="cls-16" d="M337.4,134.4c.6-1.52-.04-3.47,1.61-4.62,.33,1.84-1.18,3.04-1.61,4.62Z"/>
  <path class="cls-16" d="M259.16,174.04c1.4-.45,2.79-.64,4.14,.15-1.39,.27-2.77,.15-4.14-.15Z"/>
  <path class="cls-16" d="M77.18,171.13c-.34-.61-.74-1.37-.13-1.87,.75-.62,1.36,.05,1.88,.62-.7,.04-1.13,.34-1.04,1.12-.24,.04-.47,.08-.71,.13Z"/>
  <path class="cls-16" d="M336.12,137.27c.51-.93-.22-2.41,1.29-2.89,.04,1.17-.1,2.26-1.29,2.89Z"/>
  <path class="cls-16" d="M94.42,172.89c1.05-.71,2.15-.54,3.26-.17-1.07,.32-2.16,.35-3.26,.17Z"/>
  <path class="cls-16" d="M266.15,174.18c1.06-.77,2.17-.58,3.29-.18-1.08,.28-2.18,.33-3.29,.18Z"/>
  <path class="cls-16" d="M222.32,174.46c.95-.51,1.9-.51,2.85,0-.95,.19-1.9,.2-2.85,0Z"/>
  <path class="cls-16" d="M87.02,172.75c.97-.41,1.93-.53,2.86,.13-.96,.19-1.92,.17-2.86-.13Z"/>
  <path class="cls-12" d="M76.87,153.36c.15,.98,1.27,.73,1.71,1.34-1.02,.68-1.86,.25-2.42-.6-.5-.77,.32-.62,.71-.74Z"/>
  <path class="cls-16" d="M228.08,174.31c.71-.99,1.58-.69,2.46-.3-.8,.29-1.62,.39-2.46,.3Z"/>
  <path class="cls-16" d="M338.98,118.59c-1.02-.1-.77-.91-.86-1.53,.55,.36,1.2,.66,.86,1.53Z"/>
  <path class="cls-16" d="M337.38,114.86c-1.22-.26-1.05-1.32-1.23-2.17,.31,.78,1.45,1.09,1.23,2.17Z"/>
  <path class="cls-16" d="M194.65,173.81c.86-.42,1.73-.69,2.7-.39-.85,.49-1.75,.55-2.7,.39Z"/>
  <path class="cls-16" d="M210.03,172.57c.98,0,1.92,.17,2.75,.72-1,.06-1.93-.13-2.75-.72Z"/>
  <path class="cls-16" d="M82.68,172.11c.77,.05,1.63-.41,2.25,.43-.79,.05-1.58,.14-2.25-.43Z"/>
  <path class="cls-16" d="M217.36,174.03c.6-.45,1.16-.55,1.64,.15-.56,.13-1.12,.15-1.64-.15Z"/>
  <path class="cls-16" d="M286.9,170.69c.52-.43,1.05-.43,1.58,0-.53,.22-1.05,.24-1.58,0Z"/>
  <path class="cls-16" d="M101.03,172.5c.58-.66,1.29-.42,1.98-.28-.6,.49-1.3,.37-1.98,.28Z"/>
  <path class="cls-16" d="M213.77,173.39c.7-.15,1.35-.12,1.86,.46-.67,.05-1.33,.06-1.86-.46Z"/>
  <path class="cls-12" d="M83.26,152.63c-.34,.39-.76,.51-1.25,.36,.19-.91,.61-1.03,1.25-.36Z"/>
  <path class="cls-15" d="M120.88,152.73c-.33,.51-.8,.31-1.24,.23,.39-.21,.7-.86,1.24-.23Z"/>
  <path class="cls-12" d="M78.82,164.94c-.32,.02-.64,.05-.96,.07-.44-.06-.85-.18-.87-.74,.67,.06,1.3,.23,1.82,.67Z"/>
  <path class="cls-16" d="M238.43,172.48c.31-.52,.8-.45,1.29-.42-.28,.59-.81,.43-1.29,.42Z"/>
  <path class="cls-16" d="M248.49,172.6c.57-.13,1.14-.27,1.56,.33-.55,.03-1.1,.07-1.56-.33Z"/>
  <path class="cls-16" d="M245.49,172.01c.74-.62,1.16,.01,1.64,.41-.55-.14-1.09-.27-1.64-.41Z"/>
  <path class="cls-16" d="M298.46,57.97c-.36,.73-.97,.5-1.55,.41,.42-.49,.94-.62,1.55-.41Z"/>
  <path class="cls-16" d="M282.71,170.95c.25-.67,.68-.7,1.2-.31-.4,.1-.8,.21-1.2,.31Z"/>
  <path class="cls-16" d="M232.22,173.77c.4-.67,.99-.45,1.56-.33-.45,.44-.99,.46-1.56,.33Z"/>
  <path class="cls-13" d="M211.9,119.52c-.75,.14-.92-.43-1.13-.95,.6,.04,1.24,.05,1.13,.95Z"/>
  <path class="cls-16" d="M204.96,172.21c.34-.29,.62-.84,1.16-.28-.36,.19-.71,.45-1.16,.28Z"/>
  <path class="cls-12" d="M212.75,138.51c-.5-.25-.71-.72-.89-1.2,.88-.04,.97,.52,.89,1.2Z"/>
  <path class="cls-16" d="M104.35,172.07c.23-.39,.5-.48,.81-.09-.27,.03-.54,.06-.81,.09Z"/>
  <path class="cls-16" d="M201.18,172.92c.23-.45,.5-.55,.83-.09-.28,.03-.55,.06-.83,.09Z"/>
  <path class="cls-13" d="M307.15,56.43c0-.2,0-.41,0-.61,.28-.05,.55-.1,.83-.14-.04,.51-.3,.78-.83,.76Z"/>
  <path class="cls-16" d="M253.9,173.4c.42-.1,.81-.11,1.09,.3-.44,.18-.78,0-1.09-.3Z"/>
  <path class="cls-12" d="M85.31,152.13c-.2,.32-.49,.41-.85,.33,.12-.55,.31-.88,.85-.33Z"/>
  <path class="cls-16" d="M180.69,173.38c.41-.08,.8-.08,1.06,.33-.43,.13-.78,.03-1.06-.33Z"/>
  <path class="cls-13" d="M211.16,123.1c.55-.03,.96,.13,.98,.77-.61,.11-1.01-.06-.98-.77Z"/>
  <path class="cls-16" d="M274.87,173.25c.31-.38,.71-.34,1.12-.22-.31,.38-.71,.35-1.12,.22Z"/>
  <path class="cls-16" d="M250.61,172.97c.4-.08,.78-.1,1.06,.28-.43,.19-.76,.04-1.06-.28Z"/>
  <path class="cls-16" d="M295.12,170.04c.2-.39,.44-.55,.81-.18-.27,.06-.54,.12-.81,.18Z"/>
  <path class="cls-16" d="M279.4,172.11c.27-.51,.7-.47,1.15-.31-.31,.39-.73,.34-1.15,.31Z"/>
  <path class="cls-16" d="M293.48,170.4c.28-.4,.67-.41,1.1-.31-.3,.35-.66,.46-1.1,.31Z"/>
  <path class="cls-16" d="M339.19,128.45c-.17-.44-.17-.84,.25-1.16,.15,.44,.08,.82-.25,1.16Z"/>
  <path class="cls-16" d="M276.52,172.85c.3-.4,.69-.37,1.11-.25-.3,.38-.69,.38-1.11,.25Z"/>
  <path class="cls-16" d="M198.71,173.31c.23-.39,.5-.47,.81-.09-.27,.03-.54,.06-.81,.09Z"/>
  <path class="cls-16" d="M281.09,171.56c.21-.34,.54-.35,.88-.3-.19,.41-.5,.48-.88,.3Z"/>
  <path class="cls-16" d="M297.25,169.75c.36-.29,.78-.22,1.2-.19-.36,.28-.77,.27-1.2,.19Z"/>
  <path class="cls-16" d="M202.94,172.56c.38-.03,.76-.07,1.14-.1-.36,.24-.74,.24-1.14,.1Z"/>
  <path class="cls-16" d="M98.62,172.62c.45-.27,.92-.16,1.4-.1-.45,.24-.91,.31-1.4,.1Z"/>
  <path class="cls-16" d="M291.58,170.44c.4,0,.79,0,1.19,0-.39,.17-.79,.24-1.19,0Z"/>
  <path class="cls-16" d="M338.1,116.96c-.07-.24-.14-.48-.21-.72,.07,.24,.14,.48,.21,.72Z"/>
  <path class="cls-16" d="M178.01,172.88c.13,.07,.27,.14,.4,.21-.13-.07-.27-.14-.4-.21Z"/>
  <path class="cls-6" d="M79.58,171.52c.19-.16,.25-.05,.29,.13-.12,.01-.22-.03-.29-.13Z"/>
  <path class="cls-16" d="M300.68,169.1s-.02,0-.02,0c0,0,.01,0,.02,0Z"/>
  <path class="cls-12" d="M88.27,151.79c-.15,.02-.29,.05-.44,.07,.15-.02,.29-.05,.44-.07Z"/>
  <path class="cls-12" d="M78.71,153.22c-.17-.06-.34-.12-.51-.18,.23-.1,.4-.04,.51,.18Z"/>
  <path class="cls-16" d="M255.73,173.75c.14,.02,.29,.04,.43,.06-.14-.02-.29-.04-.43-.06Z"/>
  <path class="cls-11" d="M106.3,22.04c.03,.14,.05,.27,.08,.41-.07-.09-.14-.18-.2-.28,0-.02,.08-.08,.12-.13Z"/>
  <path class="cls-7" d="M233.15,91.04c.06-.08,.05-.16-.03-.23-.36-1.66,.23-3.49-.85-5.03,.42-3.19,.43-6.51,1.37-9.55,1.41-4.57,3.71-8.8,8.19-11.22,4.3-2.32,9.48-.6,12.74,2.33,.66,.59,.99,1.28-.37,1.5-1.54,.25-2.99,.77-4.66,.4-1.51-.33-2.47,.98-2.69,2.26-.7,4.14-1.58,8.19-.76,12.56,1.15,6.11,1.08,12.41,0,18.55-.52,2.95-1.18,6.01-2.76,8.7-.24,.4-.27,.97-.88,1.02-.88,.07-.64-.71-.85-1.15-1.88-4.06-3.76-8.11-5.63-12.17-.43-.93-.84-1.86-1.26-2.8-.21-.71,.22-1.69-.85-2.04-.14-.43-.29-.85-.43-1.28,.04-.64,.19-1.3-.3-1.85Z"/>
  <path class="cls-7" d="M249.69,140.54c.1,2.41-.89,4.55-1.7,6.68-.77,2.03-1.79,1.98-3.35,.59-1.81-1.61-2.57-3.53-2.91-5.86-.52-3.55-2.46-6.61-3.91-9.82-1.16-2.56-2.77-4.93-4.23-7.35-.62-1.03-1.33-2.01-2.07-2.96-1.9-2.4-2.88-5.29-2.46-8.15,.51-3.49,.41-7.25,2.53-10.36,.6-.89,1.47-1.61,2.27-2.34,.81-.73,1.11-.05,1.52,.58,1.11,1.71,1.6,3.7,2.53,5.5,1.58,3.05,2.66,6.36,4.18,9.45,1.36,2.77,2.57,5.62,3.94,8.39,1.1,2.22,2.11,4.59,2.45,7.14,.37,2.84,.82,5.66,1.23,8.49Z"/>
  <path class="cls-10" d="M264.2,83.35c.46-1.25,.29-2.68,1.45-3.75,.95-.88,1.35-.68,1.74,.36,.31,.84,.49,1.75,.9,2.53,1.09,2.05,2.9,2.87,5.19,2.96,4.94,.19,9.76-.8,14.52-1.72,4.76-.92,8.59,.77,12.39,3.03,1.57,.93,2.98,2.11,4.17,3.53,.27,.32,.66,.57,.56,1-.12,.54-.64,.41-1.03,.4-7.04-.25-13.7,1.69-20.41,3.46-6.03,1.6-11.77,1.39-16.51-3.57-1.69-1.77-2.71-3.71-2.92-6.11,.1-.71,.21-1.42-.06-2.12Z"/>
  <path class="cls-7" d="M288.59,60.24c-3.35,.7-6.23,2.35-9.59,1.64-1.09-.23-2.26,.13-2.65,1.11-.67,1.69-1.27,3.28-.89,5.4,.83,4.68,3.4,8.55,4.98,12.85,.81,2.2,.58,2.5-1.74,2.59-2.05,.09-4.07,.5-6.17,.15-1.33-.23-2.21-.88-2.59-1.99-1.19-3.46-2.88-6.71-4.33-10.05-1.2-2.77-1.84-5.35-1.19-8.27,.92-4.13,3.53-6.6,7.5-7.74,5.33-1.54,12.41-.19,16.66,4.32Z"/>
  <path class="cls-7" d="M257.91,87.19c0,4.4,.32,8.84-.08,13.2-.47,5.16-1.98,10.16-4.88,14.54-1.58,2.38-4.32,3.47-6.66,4.98-.33,.22-.75,.13-.84-.26-.33-1.37-1.6-2.24-1.87-3.64-.21-1.12-.23-1.99,.61-3.03,.99-1.23,1.71-2.78,2.18-4.3,1.38-4.47,2.18-9.04,1.98-13.76-.15-3.51-.18-7.03-.32-10.55-.03-.88-.12-1.65,1.01-1.91,2.53-.6,5.06-1.24,7.58-1.87,1.05-.26,1.52,.05,1.47,1.22-.08,1.79-.02,3.59-.02,5.38-.05,0-.11,0-.16,0Z"/>
  <path class="cls-10" d="M207.54,163.28c9.25-3,18.26-6.9,27.9-8.22,6.02-.82,12.36-1.54,17.98,2.18,.37,.25,1.06,.18,1,.83-.05,.49-.59,.46-.97,.57-7.49,2.18-14.92,4.55-22.47,6.49-7.93,2.04-15.76,1.03-23.44-1.86Z"/>
  <path class="cls-7" d="M177.38,96.77c2.03-.8,3.79-1.23,5.54-.99,2,.28,3.4-.58,4.4-2.01,1.59-2.26,2.84-4.76,3.82-7.34,3.5-9.19,12.65-15.02,22.64-9.93,.78,.4,2.3,.47,2.13,1.56-.15,.98-1.6,.79-2.49,1.02-3.18,.85-6.39,1.6-9.57,2.46-2.92,.78-4.43,2.62-4.71,5.66-.61,6.61-4.97,11.8-11.47,12.88-3.76,.62-7-1.02-10.28-3.33Z"/>
  <path class="cls-10" d="M283.58,154.35c1.62,.45,3.24,.89,5.19,1.43-3.35,3.06-6.88,5.3-10.98,6.37-10.73,2.8-21.61,3.04-32.56,1.51-.46-.06-.97-.01-1.49-.56,1.78-.99,3.72-1.32,5.57-1.84,7.25-2.05,14.39-4.5,21.73-6.24,1.27-.3,2.64-.07,3.81-.78,2.62-.05,5.24-.32,7.87-.04,.24,.31,.55,.25,.86,.15Z"/>
  <path class="cls-10" d="M280.2,170.36c-5.62,2.09-11.4,2.75-17.25,2.63-7.17-.15-14.23-1.23-21.12-3.23-2.43-.71-4.44-2.31-6.46-4.24,2.07-.87,3.99-1.64,6.13-1.23,9.48,1.83,19,2.1,28.56,.8,1.36-.19,2.4-.09,3.44,1.09,1.77,2.01,4.2,3.13,6.7,4.19Z"/>
  <path class="cls-10" d="M119.25,164.62c-3.04-.07-6.02-.45-8.88-1.55-.36-.14-.92-.04-.93-.59,0-.5,.46-.57,.87-.68,6.86-1.87,13.5-4.5,20.49-5.92,7.86-1.59,15.43-1.43,22.71,3.38-7.29,1.74-14.16,4.03-21.41,4.55-.46-.62-.71-.38-.86,.22-3.28,.43-6.55,.93-9.88,.68-.67-.83-1.38-.73-2.11-.09Z"/>
  <path class="cls-10" d="M78.3,163.24c0-.44,0-.88,0-1.32,5.47-1.94,10.64-4.66,16.3-6.07,8.69-2.17,17.31-2.47,26.12,1.29-8.1,2.73-15.88,5.27-24.05,6.31-.2,.04-.39,.07-.59,.11-4.39,.73-8.8,.92-13.23,.46-.3-.82-.73-.85-1.28-.22-1.12-.05-2.24-.05-3.28-.55Z"/>
  <path class="cls-10" d="M141.54,163.7c3.48-.91,6.43-1.73,9.4-2.44,6.6-1.57,12.94-4.13,19.65-5.27,4.29-.73,8.28,.68,12.21,2.16,.29,.11,.73,.22,.61,.68-.11,.45-.52,.59-.92,.72-6.66,2.06-13.29,4.24-19.97,6.26-6.91,2.09-13.41,1.34-19.87-1.43-.23-.1-.44-.26-1.12-.68Z"/>
  <path class="cls-2" d="M301.95,93.26c4.43,.12,8.28,.48,11.62,2.93,3.28,2.4,5.46,5.55,6.61,9.42,.27,.91,.36,1.85,.94,2.67,.18,.26,.13,.86-.06,1.16-.28,.46-.73,.09-1.08-.06-5.61-2.55-11.45-4.46-17.35-6.2-3.75-1.1-6.4-3.71-8.34-7.06-.78-1.36-.25-2.12,1.16-2.27,2.32-.26,4.65-.42,6.49-.58Z"/>
  <path class="cls-10" d="M211.91,156.37c1.51,.78,3.27,.99,4.7,2.2-2.4,1.35-5.07,1.82-7.61,2.59-5.42,1.65-10.69,3.88-16.31,4.84-5.57,.95-10.94,.12-16.12-2.09-.25-.11-.5-.22-1.25-.56,5.06-1.56,9.22-3.38,13.73-4.25,3.94-.76,7.81-1.92,11.71-2.9,.75,.13,1.49,.14,2.2-.19,.37,0,.74-.02,1.11-.03,2.61,.14,5.22,.27,7.83,.41Z"/>
  <path class="cls-1" d="M282.72,162.97c-1.3-.27-.62-.76-.06-1.02,3.38-1.53,6.24-3.83,9.19-6.01,3.82-2.57,6.52-6.44,10.44-8.89,0,0,.07-.07,.07-.07,.41-.18,.82-.37,1.23-.55,2.23-.71,4.48-1.18,6.85-1,1.33,.1,1.78,.5,1.39,1.95-1.14,4.17-3.86,7.13-7.11,9.71-.48,.38-.98,.71-1.34,1.22-2.28,1.14-4.45,2.5-6.88,3.35-4.5,1.56-9.14,1.33-13.77,1.32Z"/>
  <path class="cls-2" d="M313.48,160.4c-1.49,.03-4.05-.48-6.59-1.11-.36-.09-.9-.11-1.02-.59-.13-.55,.48-.55,.73-.82,1.71-1.83,3.9-2.37,6.28-2.87,6.48-1.36,11.08-4.93,12.45-11.83,.45-2.29,1.43-4.05,4.15-4.34,1.25-.13,2.44-.85,3.63-1.34,.45-.18,.9-.56,1.35-.29,.57,.35,.13,.9,0,1.29-1.4,4.5-2.99,8.89-5.62,12.89-1.89,2.88-4.02,5.36-6.97,7.19-2.27,1.41-4.68,1.88-8.41,1.8Z"/>
  <path class="cls-3" d="M215.64,80.01c.41-.07,.83-.14,1.24-.21,0,.34,0,.68,.01,1.03-.05,.1-.1,.19-.15,.29,.11,.06,.24,.19,.33,.16,3.68-.87,7.45-1.39,10.93-2.97,.62,.1,1.22,.16,1.74-.31,1.8-.29,2.03,.75,1.47,2.01-.42,.92-.71,1.85-.58,2.78,.32,2.17-.52,3.16-2.67,3.58-8.75,1.72-17.45,3.67-26.29,4.93-1,.14-1.42-.15-1.24-1.2,.12-.68,.18-1.37,.2-2.06,.07-2.25,1.29-3.32,3.45-3.45,3.62-.86,7.23-1.71,10.84-2.59,.53-.13,1.27-.28,.78-1.17-.02-.27-.05-.54-.07-.81Z"/>
  <path class="cls-2" d="M328.28,127.9c.25,2.25-1.22,3.94-1.96,5.86-.08,.2-.39,.4-.61,.43-.34,.04-.39-.32-.45-.57-1.58-6.75-6.47-11.2-10.92-16.02-2.08-2.24-3.06-5.11-2.53-8.31,.16-.99,.51-1.57,1.63-1.13,4.18,1.64,8.35,3.27,11.92,6.15,1.01,.81,1.44,1.75,1.72,2.89,.32,2.16-1.13,4.61,1.07,6.49,.18,.16,.19,.7,.08,.99-.44,1.1,.05,2.15,.06,3.22Z"/>
  <path class="cls-10" d="M201.41,165.33c1.73-1.28,3.53-1.48,5.56-.71,8.06,3.06,16.33,3.54,24.72,1.72,1.37-.3,2.36-.03,3.34,.9,1.36,1.3,2.98,2.26,4.91,3.26-2.06,1.02-4,1.31-5.91,1.69-9.31,1.85-18.47,1.23-27.42-1.92-2.35-.83-3.81-2.89-5.2-4.95Z"/>
  <path class="cls-10" d="M101.97,164.11c2.74-1.24,5.13-.93,7.88,.15,6.44,2.52,13.26,1.93,19.99,1.3,1.48-.14,2.52-.11,3.53,1.17,1.32,1.68,3.07,2.95,5.25,4.18-3.33,.88-6.4,1.12-9.43,1.37-5,.42-10.04,.8-15.03-.13-4.66-.87-8.28-3.53-11.3-7.1-.26-.3-.54-.58-.89-.95Z"/>
  <path class="cls-7" d="M228.17,104.07c-2.11,1.85-4.06,3.45-5.86,5.2-.89,.87-1.72,.72-2.63,.38-3.28-1.21-5.54-3.26-6.03-6.97-.45-3.38-1.5-6.67-1.5-10.14,0-1,.04-1.54,1.11-1.73,2.29-.41,4.58-.86,6.85-1.36,1.1-.24,1.39,.2,1.6,1.22,.47,2.24,.49,4.49,1.27,6.76,1,2.91,2.29,5.17,5.2,6.64Z"/>
  <path class="cls-7" d="M226.74,136.28c-1.46-.04-2.92-2.49-3.37-3.45-1.69-3.64-4.82-6.4-7.31-9.33-.78-.77-.05-1.34,.04-1.87,1.13-1.58,1.65-3.47,2.57-5.16,2.19-4.04,5.8-6.67,8.76-9.94,.11-.13,.39-.11,.59-.16,.16,.08,.33,.16,.49,.23-.13,.55-.26,1.11-.39,1.66-.61,.07-.78,.48-.78,1.02,0,2.9,0,5.79-.01,8.69,0,.55,.21,.93,.8,1.01,.23,.82,.46,1.63,.68,2.45-.2,.86-.23,1.73-.09,2.61-.13,1.46-.27,2.92-.4,4.38-.07,.18-.14,.36-.21,.55-.95,.22-.73,1-.77,1.63-.08,1.14-.01,4.63-.6,5.68Z"/>
  <path class="cls-2" d="M323.8,142.25c-.76,7.03-7.51,11.88-12.89,11.56,.98-1.96,2.35-3.68,2.85-5.82,1.04-.11,.83-.92,.83-1.56,0-3.07-.04-6.14-.07-9.21,.47-3.61,1.75-6.93,3.7-10,2.08,.95,3.3,2.42,3.52,4.85,.12,1.31,.9,2.56,2.01,3.46,0,0,.1-.03,.1-.03-.02,2.25-.04,4.49-.06,6.74Z"/>
  <path class="cls-3" d="M187.96,88.74c-.75,3.24-2.64,5.52-5.71,5.53-2.29,0-4.59,.7-6.85,1.22-.81,.18-1.77,.51-1.99,1.51-.23,1.02,.86,1.13,1.36,1.59,.89,.82,1.99,1.41,2.7,2.5-1.27,.9-2.78,.92-4.17,1.07-4.45,.48-8.92,.77-13.26-.73-2.48-.86-2.76-2.85-.71-4.58,1.95-1.64,4.21-2.74,6.55-3.71,5.92-2.44,12.14-3.79,18.36-5.16,0,.26,0,.52,0,.78-.19,.97,.4,.8,.96,.66,.92-.23,1.84-.45,2.77-.68Zm-14.88,3.81c1.88-.51,3.77-1.03,5.65-1.54,.42-.11,1.17,.05,1.02-.64-.15-.73-.95-.49-1.37-.33-1.76,.7-3.7,.81-5.37,1.75-2.89,.86-5.76,1.77-8.3,3.47-.17,.11-.34,.23-.52,.33-1.24,.71-2.74,1.4-2.53,3.07,.23,1.74,2.1,1.14,3.19,1.69,.35,.17,.81,.18,1.22,.16,1.26-.05,2.61,.57,4.07-.56-1.52-.65-2.85-.23-4.09-.47-1.03-.2-2.5,.02-2.87-1.12-.35-1.07,1.16-1.31,1.75-2.01,.13-.16,.25-.32,.38-.49,2.59-1.11,5.18-2.22,7.77-3.33Z"/>
  <path class="cls-1" d="M279.41,163.73c.51,.03,1.02,.06,1.53,.09,4.84,1.26,9.62,.66,14.4-.41,3.01-.67,5.64-2.32,8.49-3.39,3.11,1.1,6.36,1.51,9.99,1.89-1.72,1.65-3.64,2.26-5.45,3.03-6.86,2.92-14.01,4.62-21.48,4.56-4.07-.04-8.05-.74-11.33-3.52-.41-.35-1.12-.57-.98-1.17,.15-.67,.94-.36,1.43-.55,.44-.18,.9-.33,1.35-.5l2.06-.03Z"/>
  <path class="cls-2" d="M337.89,126.44c-.19,1.36-.39,2.73-.58,4.09-.7,.37-.8,1.02-.82,1.71,0,0,0,0,0,0-.52,.46-.39,1.09-.41,1.67,0,0,0-.01,0-.01-.41,.15-.83,.28-.88,.82-2.17,1.64-4.75,2.37-7.26,3.25-.47,.16-1.12,.52-1.53,0-.43-.53-.25-1.23,.11-1.73,.96-1.33,1.72-2.72,2.35-4.25,2.09-5.06,2.12-10.06,.06-15.11-.15-.37-.37-.95-.21-1.15,1.19-1.51,1.77-3.33,2.71-4.96,.46-.8,1.1-.07,1.42,.39,2.52,3.65,4.73,7.45,5.06,12.03,0,1.09-.01,2.17-.02,3.26Z"/>
  <path class="cls-10" d="M204.35,171.15c-5.55,1.05-11.14,1.78-16.81,1.69-4.07-.07-8.12-.37-11.85-2.2-1.83-.89-3.6-1.92-5.32-3-.61-.38-1.16-1.04-1.02-1.9,.12-.79,.88-.73,1.43-.97,1.64-.73,3.08-.82,4.86,.04,7.06,3.44,14.44,3.62,21.89,1.39,1.58-.47,2.62-.56,3.48,1.21,.7,1.44,2.21,2.34,3.45,3.38-.08,.1-.11,.22-.1,.34Z"/>
  <path class="cls-2" d="M329.95,108.7c.25,1.3-.77,2.97-1.57,4.68-.38,.82-.89,.9-1.61,.28-1.96-1.68-3.72-3.04-4.21-6.2-.68-4.37-3.08-8.42-6.61-11.42-.88-.75-1.17-1.38-1.02-2.43,.18-1.23,.19-2.48-.06-3.7-.3-1.46,.55-1.42,1.37-.95,4.3,2.41,8.1,5.34,10.66,9.73,1.69,2.9,3.08,5.83,3.05,10.01Z"/>
  <path class="cls-7" d="M229.72,151.61c.49-4.65,.08-9.28-.24-13.92,.04-1.29,.86-2.44,.68-3.77,1.59-1.17,1.55-3.35,2.88-4.69,.18-.18,.31-.42,.45-.62,1.39,.68,1.59,2.08,2.15,3.19,1.39,2.78,2.87,5.54,3.92,8.45,.58,1.6,.52,3.37-.59,5.11-1.12,1.76-2.09,3.62-3.36,5.31-.62,.82-1.45,1.21-2.2,1.79-1.32,.08-2.61,.07-3.69-.86Z"/>
  <path class="cls-10" d="M313.24,91.57c.22,1.78,.05,2.22-2.16,1.51-2.52-.8-4.09-2.21-5.72-4.09-2.82-3.27-6.58-5.38-10.72-6.31-2.27-.51-2.26-1.39-1.99-3.16,.44-2.86,.4-2.97,3.06-2.35,5.81,1.35,11.16,3.73,15.24,8.19,1.46,1.6,2.55,3.71,2.3,6.2Z"/>
  <path class="cls-10" d="M134.28,165.3c2.91-1.35,5.42-.87,8.27,.43,6.91,3.15,14.11,3.54,21.43,1.09,2.87-.96,4.39-.27,5.88,2.2,.66,1.1-.44,.89-.88,1-5.28,1.35-10.65,1.93-16.1,1.96-4.02,.02-7.94-.59-11.79-1.61-2.84-.75-4.9-2.75-6.8-5.06Z"/>
  <path class="cls-3" d="M262.49,69.88c1.55,1.78,1.84,4.19,3.09,6.13,.63,.99-.52,1.07-1.09,1.21-3.52,.88-7.06,1.7-10.59,2.56-1.53,.37-3.06,.74-4.56,1.19-1.1,.33-1.53,.05-1.46-1.14,.09-1.51,.15-3.04,.09-4.55-.06-1.51,.48-2.34,2.06-2.31,4.21-.83,8.36-1.87,12.47-3.1Z"/>
  <path class="cls-4" d="M199.55,153.82c1.46-1.34,1.69-3.39,2.85-4.94,1.74-2.34,3.49-4.61,6.19-5.91,2.89,.07,4.81,1.66,5.54,4.62-2.66,1.65-4.02,4.25-5.12,7.04-2.74,.02-5.49-.25-8.22,.24-.44-.06-.88-.13-1.32-.19,.03-.28,.05-.57,.08-.85Z"/>
  <path class="cls-7" d="M291.02,77.24q-.14,4.61-4.75,5.4c-.67,.12-1.34,.27-2.02,.39-1.04,.19-1.75-.11-1.89-1.27-.25-2.08-1.46-3.8-2.35-5.6-.47-.96-.36-1.21,.38-1.4,3.16-.84,6.35-1.6,9.52-2.41,.9-.23,1.1,.27,1.1,.98,.01,1.31,0,2.61,0,3.92Z"/>
  <path class="cls-7" d="M263.97,91.63c.76-.11,1.34,.27,1.85,.73,1.77,1.62,3.65,3.07,5.89,3.98,1.05,.43,.97,.73,.03,1.26-3.54,1.99-7.34,3.33-11.17,4.59-1.03,.34-1.2-.15-.99-1.05,.44-1.9,.38-3.83,.39-5.76,.01-2.87,1-3.81,4-3.75Z"/>
  <path class="cls-10" d="M159.89,152.34c2.1,.36,4.18,.78,6.08,1.82,.34,.19,.82,.45,.89,.76,.12,.53-.49,.57-.85,.68-2.89,.85-5.79,1.67-8.69,2.49-1.18,.33-2.32,.15-3.4-.38-.98-.47-2.04-.85-2.92-1.47-.74-.52-2.29-.38-2.15-1.42,.11-.83,1.56-.88,2.44-1.2,2.21-.8,4.53-1.14,6.87-1.34,.57,.34,1.15,.29,1.74,.07Z"/>
  <path class="cls-7" d="M254.61,119.45c.23,3.4-1.45,6.54-3.56,9.54-.6,.86-.97,.74-1.52,.01-.33-.44-.62-.84-.7-1.43-.26-1.78-1.4-3.22-1.99-4.89-.3-.85-.24-1.32,.67-1.81,1.91-1.03,3.74-2.21,5.37-3.66,.4-.36,.73-1.05,1.3-.86,.77,.26,.29,1.08,.42,1.64,.08,.33,.01,.69,.01,1.46Z"/>
  <path class="cls-10" d="M249.74,153.78c6.05-2.96,11.7-2.92,17.55,.73-3.44,1.04-6.6,2.01-9.76,2.94-.31,.09-.73,.08-1.01-.07-2.19-1.13-4.37-2.31-6.78-3.6Z"/>
  <path class="cls-13" d="M302.3,147.05c-3.92,2.45-6.62,6.33-10.44,8.89,.07-.66-.53-.87-.85-1.27,1.24-1.03,2.47-2.09,3.73-3.09,.29-.23,.5-.46,.49-.82-.02-.44-.37-.52-.72-.54-3.53-.24-6.96,.24-10.21,1.68-1.06,.47-.6,.98,.1,1.41-.27,.35-.55,.69-.82,1.04-.31,.11-.61,.16-.86-.15-.01-1.01-.03-2.02-.04-3.02,3.79-2.22,7.93-2.88,12.18-2.25,1.56,.23,2.61-.06,3.69-.96,.99-.82,1.93-1.7,3.21-2.05,0,.46,.21,.82,.54,1.13Z"/>
  <path class="cls-10" d="M187.16,158.17c-2.01-.15-3.72-1.27-5.58-1.93-1.02-.36-.5-.97,.12-1.27,4.45-2.19,8.95-2.22,13.46-.19,.51,.23,1.42,.91,.35,1.23-2.74,.83-5.43,1.89-8.35,2.16Z"/>
  <path class="cls-4" d="M241.48,153.32c-1.17,0-2.34,0-3.52,0-1.42,.02-1.84-.63-1-1.76,1.13-1.51,2.16-3.08,3.13-4.69,.45-.74,1.03-.44,1.51,.09,1.46,1.61,2.93,3.22,4.39,4.84,.29,.33,.42,.74,.28,1.14-.18,.49-.69,.36-1.08,.36-1.24,.02-2.48,0-3.72,0Z"/>
  <path class="cls-13" d="M303.83,160.02c-2.85,1.07-5.48,2.71-8.49,3.39-4.77,1.07-9.56,1.67-14.4,.41,.62-.24,1.61,.34,1.78-.84,4.63,0,9.28,.24,13.77-1.32,2.44-.85,4.6-2.21,6.88-3.35,.15,.57,.3,1.14,.45,1.72Z"/>
  <path class="cls-1" d="M284.4,153.31c-.7-.42-1.16-.94-.1-1.41,3.25-1.44,6.67-1.92,10.21-1.68,.35,.02,.7,.11,.72,.54,.02,.36-.19,.59-.49,.82-1.26,1-2.49,2.06-3.73,3.09-1.73,.28-3.15-1.09-4.85-.92-.23-.34-.56-.44-.95-.38-.27-.02-.54-.05-.8-.07Z"/>
  <path class="cls-9" d="M277.76,65.29c9.1-2.28,18.21-4.53,27.3-6.85,2.09-.53,4.12-1.35,6.34-.73-7.68,1.94-15.33,3.96-23.04,5.78-3.09,.73-6.02,2.18-9.3,2.08-.45-.02-.93,.1-1.3-.29Z"/>
  <path class="cls-10" d="M295.78,101.21c-3.24-.62-5.94-1.41-8.1-3.38-1.22-1.11-.9-2.02,.74-2.52,.78-.24,1.57-.44,2.37-.61,.39-.08,.92-.16,1.09,.3,.79,2.21,2.45,3.9,3.9,6.2Z"/>
  <path class="cls-10" d="M95.62,154.11c-2.46,.79-4.88,1.81-7.4,2.29-1.8,.34-3.07-1.56-4.81-2.12,4.04-1.03,8.06-2.1,12.21-.17Z"/>
  <path class="cls-10" d="M127.52,153.37c.56,.21,1.13,.64,1.67-.04,1.11-.16,1.51,1.04,2.45,1.36-4.63-.15-9.29,3.82-13.71-.43,3.04-.87,6.33-.72,9.58-.89Z"/>
  <path class="cls-2" d="M308.7,144.16c-.14,0-.27,.01-.41,0-.86-.07-2.1,.66-2.48-.12-.48-.98,1.11-1.31,1.5-2.16,.15-.33,.61-.51,.93-.76,1.11-.84,2.42-2.5,3.52-1.82,.94,.57,.23,2.66,.29,4.07,.03,.78-.48,.84-1.1,.81-.75-.04-1.5,0-2.25,0,0,0,0,0,0,0Z"/>
  <path class="cls-2" d="M314.67,128.83c-.28-2.37-.14-4.48,.37-6.58,.25-1.04,.68-1.05,1.39-.38,2.17,2.06,1.61,4.47-1.77,6.96Z"/>
  <path class="cls-2" d="M309.97,111.89c-2.1-1.25-3.2-3.08-4.09-5.08-.14-.32-.13-.83,.21-.91,1.28-.31,2.33,.61,3.52,.81,.83,.14,.77,.85,.71,1.47-.1,1.16-.22,2.31-.36,3.71Z"/>
  <path class="cls-3" d="M229.74,78c-.51,.47-1.12,.42-1.74,.31-.87-1.45-1.82-.04-2.54,.12-2.88,.65-5.91,.91-8.56,2.4,0-.34,0-.68-.01-1.03,2.9-1.42,6.11-1.77,9.17-2.65,1.51-.43,3.03-.81,4.54-1.21,.4-.11,.96-.21,1.09,.19,.18,.55-.29,.81-.83,.92-.52,.11-1.4-.14-1.12,.94Z"/>
  <path class="cls-14" d="M230.16,133.93c.18,1.33-.64,2.48-.68,3.77-.76,.22-.81,.98-1.18,1.63-1.43-1.44-1.71-3.11-1.38-4.95,1.04-.02,1.17-.7,1.16-1.53,0-1.29,0-2.58,.02-3.87,.07-.18,.14-.36,.21-.55,.44,.19,.61,.56,.66,1,.03,.46,.06,.91,.09,1.37l-.28,2.04c-.21,.45-.41,.92,.07,1.29,.33,.26,.64,.08,.88-.21,.14,0,.29,0,.43,.01Z"/>
  <path class="cls-7" d="M228.78,132.83c.09-.68,.18-1.36,.28-2.04,.91-.18,.58-.89,.61-1.44,.18-1.29,.36-2.58,.53-3.87,.06-.43,.17-.88,.59-1,.63-.17,.72,.44,.98,.82,1.12,1.6-.08,2.9-.66,4.18-.52,1.14-1.23,2.19-1.45,3.47-.29-.04-.59-.08-.88-.12Z"/>
  <path class="cls-3" d="M250,72.3c-.6-.05-1.23,.09-1.88-.34,1.87-1.05,3.98-1.03,5.89-1.7,2.3-.8,4.72-1.28,7.08-1.92,.84-.23,1.78-.68,1.34,.92-4.22,.68-8.34,1.8-12.43,3.03Z"/>
  <path class="cls-9" d="M215.71,80.82c.49,.89-.25,1.04-.78,1.17-3.61,.88-7.23,1.73-10.84,2.59,0-.21,0-.42-.01-.63,3.74-1.56,7.76-2.07,11.64-3.13Z"/>
  <path class="cls-14" d="M282.68,151.18c.01,1.01,.03,2.02,.04,3.02-2.62-.27-5.25,0-7.87,.04-.01-.31-.02-.62-.03-.93,.05-.09,.06-.19,.05-.3,.54-.06,1.08-.12,1.61-.17,.99,.11,1.99,.23,2.93-.26,1.27-.06,2.11-1.1,3.27-1.41Z"/>
  <path class="cls-2" d="M323.76,135.53c-1.11-.9-1.9-2.15-2.01-3.46-.22-2.43-1.43-3.89-3.52-4.85,.91-1.96,.93-1.97,2.19-.21,1.82,2.56,3.3,5.26,3.34,8.52Z"/>
  <path class="cls-9" d="M250,72.3c4.09-1.23,8.2-2.35,12.43-3.03,.02,.21,.04,.41,.07,.62-4.11,1.23-8.26,2.27-12.47,3.1,0-.23-.02-.46-.02-.69Z"/>
  <path class="cls-16" d="M209.01,154.62c1.1-2.79,2.46-5.39,5.12-7.04,.81,.6,.24,1.07-.18,1.49-1.59,1.58-2.73,3.43-3.51,5.52-.49-.58-.95-.11-1.43,.03Z"/>
  <path class="cls-3" d="M215.71,80.82c-3.88,1.06-7.9,1.56-11.64,3.13-.28-.02-.56-.04-.84-.06,.06-.27,.13-.54,.19-.81,4.02-1.21,8.11-2.18,12.21-3.07,.02,.27,.05,.54,.07,.81Z"/>
  <path class="cls-2" d="M314.53,137.22c.02,3.07,.06,6.14,.07,9.21,0,.64,.2,1.45-.83,1.56,.43-2.88-.35-5.76,.01-8.64,.09-.74-.32-1.72,.76-2.14Z"/>
  <path class="cls-7" d="M228.12,118.98c-.59-.08-.8-.46-.8-1.01,0-2.9,0-5.79,.01-8.69,0-.54,.18-.95,.78-1.02,0,3.57,0,7.14,0,10.71Z"/>
  <path class="cls-5" d="M227.04,152.47c.49,.03,.99,.07,1.48,.1,.15,1.53,1.26,1.02,2.14,1.01,.11,.35,.22,.71,.34,1.06-2.02,.13-3.86,.9-5.74,1.54-.05-.29-.1-.58-.15-.88,.12-.14,.23-.27,.35-.41,.76,.06,1.08-.3,.99-1.05,.2-.46,.4-.92,.6-1.38Z"/>
  <path class="cls-2" d="M328.28,127.9c-.01-1.07-.5-2.12-.06-3.22,.11-.28,.1-.83-.08-.99-2.2-1.88-.75-4.32-1.07-6.49,.22,.13,.61,.25,.63,.4,.4,3.42,1.46,6.8,.58,10.29Z"/>
  <path class="cls-16" d="M230.66,153.58c-.87,0-1.99,.51-2.14-1.01,.2-.56,.51-1,1.2-.96,1.08,.93,2.38,.94,3.69,.86,.3,.79,1.34,.26,1.7,.95-1.49-.14-2.98-.11-4.46,.16Z"/>
  <path class="cls-2" d="M323.8,142.25c.02-2.25,.04-4.49,.06-6.74,1.02,1.36,.98,5.45-.06,6.74Z"/>
  <path class="cls-13" d="M211.91,156.37c-2.61-.14-5.22-.27-7.83-.41,1.2-.68,2.46-.31,3.71-.23,1,.06,2.1,.67,2.99-.33,.37,.03,.74,.07,1.11,.1,0,.29,0,.58,.01,.87Z"/>
  <path class="cls-3" d="M184.23,88.76c0-.26,0-.52,0-.78,1.47-.87,3.11-1.07,4.75-1.36,.26,1.08-.81,.83-1.02,1.34-1.33-.15-2.5,.5-3.73,.79Z"/>
  <path class="cls-16" d="M232.27,85.79c1.08,1.54,.49,3.37,.85,5.03-1.04-.08-.89-.86-.89-1.53,0-1.17,.02-2.33,.04-3.5Z"/>
  <path class="cls-9" d="M184.23,88.76c1.24-.3,2.4-.95,3.73-.79,0,.26,0,.51,0,.77-.92,.23-1.84,.45-2.77,.68-.57,.14-1.15,.32-.96-.66Z"/>
  <path class="cls-16" d="M175.24,97.39c.18-.15,.23-.24,.28-.23,1.04,.03,1.71,.69,2.32,1.41,.03,.04-.19,.43-.28,.43-1.14-.03-1.61-.94-2.32-1.61Z"/>
  <path class="cls-13" d="M228.71,124.04c-.14-.88-.11-1.75,.09-2.61,1.34,.96,1.31,1.7-.09,2.61Z"/>
  <path class="cls-13" d="M264.2,83.35c.27,.7,.16,1.41,.06,2.12-1.54-.66-1.39-1.37-.06-2.12Z"/>
  <path class="cls-12" d="M119.25,164.62c.73-.64,1.44-.74,2.11,.09-.71,.23-1.42,.28-2.11-.09Z"/>
  <path class="cls-16" d="M233.88,94.18c1.07,.35,.64,1.33,.85,2.04-1.32-.25-.69-1.31-.85-2.04Z"/>
  <path class="cls-13" d="M263.29,80.48c0-.54,.01-1.07,.02-1.61,.2-.41,.59-.45,.7-.07,.19,.68,.39,1.5-.72,1.68Z"/>
  <path class="cls-13" d="M228.78,132.83c.29,.04,.59,.08,.88,.12,.02,.32,.04,.64,.07,.96-.24,.3-.55,.47-.88,.21-.48-.38-.28-.85-.07-1.29Z"/>
  <path class="cls-13" d="M270.7,153.75c.36-1.04,.97-.89,1.67-.36-.5,.38-1.09,.36-1.67,.36Z"/>
  <path class="cls-16" d="M336.49,132.25c.02-.69,.13-1.34,.82-1.71-.03,.69,.37,1.58-.82,1.71Z"/>
  <path class="cls-16" d="M97.75,171.67c.53-.29,1.09-.3,1.66-.13-.5,.72-1.06,.65-1.66,.13Z"/>
  <path class="cls-16" d="M199.47,154.67c.44,.06,.88,.13,1.32,.19-.18,.59-.64,.67-1.14,.54-.42-.11-.52-.39-.18-.73Z"/>
  <path class="cls-16" d="M337.89,126.44c0-1.09,.01-2.17,.02-3.26,.41,1.09,.43,2.17-.02,3.26Z"/>
  <path class="cls-15" d="M159.89,152.34c-.59,.22-1.17,.27-1.74-.07,.61-.62,1.19-.6,1.74,.07Z"/>
  <path class="cls-16" d="M262.82,85.97c-.32-1.04-.33-2.09,0-3.13,0,1.04,0,2.09,0,3.13Z"/>
  <path class="cls-12" d="M97.76,164.77c-.3,.79-.74,.8-1.27,.21,.37-.37,.82-.3,1.27-.21Z"/>
  <path class="cls-12" d="M81.59,163.8c.55-.62,.98-.6,1.28,.22-.46,.12-.91,.19-1.28-.22Z"/>
  <path class="cls-13" d="M229.67,129.35c-.03,.55,.3,1.26-.61,1.44-.03-.46-.06-.91-.09-1.37,.23-.02,.46-.05,.7-.07Z"/>
  <path class="cls-16" d="M233.85,99.11c-.02-.39-.04-.79-.07-1.18,.4,.01,.83,.05,.85,.56,.03,.51-.38,.6-.79,.62Z"/>
  <path class="cls-16" d="M233.07,95.78c-.66-.15-.89-.57-.75-1.22,.8,.06,.77,.65,.75,1.22Z"/>
  <path class="cls-16" d="M302.46,145.06c.03-.63,.54-.81,.97-1.07,.03,.68-.17,1.15-.97,1.07Z"/>
  <path class="cls-9" d="M203.42,83.08c-.06,.27-.13,.54-.19,.81-.32,.31-.68,.31-.74-.14-.09-.67,.36-.8,.93-.66Z"/>
  <path class="cls-13" d="M267.77,153.02c.58-.02,1.2-.11,1.32,.73-.62,.09-1.06-.15-1.32-.73Z"/>
  <path class="cls-16" d="M279.41,163.73l-2.06,.03c.68-.61,1.37-.57,2.06-.03Z"/>
  <path class="cls-15" d="M202.96,156c-.71,.33-1.45,.32-2.2,.19,.7-.43,1.45-.33,2.2-.19Z"/>
  <path class="cls-12" d="M131.24,164.03c.15-.6,.4-.84,.86-.22-.21,.38-.54,.31-.86,.22Z"/>
  <path class="cls-12" d="M274.87,153.03c.02,.1,0,.2-.05,.3-.28-.04-.56-.07-.83-.11,.18-.57,.45-.76,.88-.19Z"/>
  <path class="cls-16" d="M233.15,91.04c.49,.56,.33,1.21,.3,1.85-.58-.54-.32-1.22-.3-1.85Z"/>
  <path class="cls-13" d="M264.7,151.5c.48-.16,.89-.15,1.11,.41-.45,.08-.87,.07-1.11-.41Z"/>
  <path class="cls-16" d="M335.21,134.72c.05-.54,.47-.67,.88-.82,.02,.61-.32,.84-.88,.82Z"/>
  <path class="cls-16" d="M336.09,133.92c.02-.59-.11-1.21,.41-1.67-.02,.59,.21,1.23-.41,1.67Z"/>
  <path class="cls-16" d="M86.13,171.54c.31-.12,.58-.07,.82,.17-.38,.48-.63,.28-.82-.17Z"/>
  <path class="cls-16" d="M303.59,146.43c-.41,.18-.82,.37-1.23,.55,.11-.86,.74-.54,1.23-.55Z"/>
  <path class="cls-16" d="M204.35,171.15c-.01-.13,.02-.24,.1-.34,.17,.06,.34,.12,.51,.18-.13,.33-.4,.15-.61,.16Z"/>
  <path class="cls-13" d="M228.5,106.6c-.16-.08-.33-.16-.49-.23,.17-.07,.37-.23,.5-.19,.27,.09,.19,.28,0,.42Z"/>
  <path class="cls-16" d="M285.2,153.38c.39-.06,.71,.04,.95,.38-.39,.05-.73,0-.95-.38Z"/>
  <path class="cls-12" d="M96.09,163.56c.2-.04,.39-.07,.59-.11-.2,.04-.39,.07-.59,.11Z"/>
  <path class="cls-12" d="M262.9,150.9c.13,.07,.25,.14,.38,.21-.22,.1-.34,.02-.38-.21Z"/>
  <path class="cls-9" d="M312.93,57.33c.31-.92,1.09-1.12,1.91-1.33,9.07-2.29,18.13-4.6,27.2-6.87,.58-.14,1.22-.04,1.83-.05-1.16,1.74-3.2,1.4-4.81,1.83-8.4,2.24-16.86,4.24-25.31,6.32-.27,.07-.55,.07-.82,.1Z"/>
  <path class="cls-8" d="M203.66,144.67c.03,1.01-.19,1.16-1.24,.83,.23-1.05,.53-1.26,1.24-.83Z"/>
  <path class="cls-7" d="M220.16,148.81c-.13-.47-.6-2.94-.98-3.15-1.25-1.2-2.32-3.74-3.91-5.52-.1-.12-.82-4.22-.41-2.83-.4-3.24-1.21-7.38-.58-10.7,1.34,1.21,4.71,6.23,5.3,6.94,2.27,3.45,2.73,4.36,3.77,7.34,1.16,2.16,2.23,6.56,1.04,9-2.11,1.43,.33,0-2.11,1.43-.14,0-1.48-.42-1.62-.42"/>
  <path class="cls-13" d="M219.87,152.44c.65-1.62,2.31,.04,3-1.12,.14,0,.29,0,.43-.01,.47,1.08-.41,1.24-1.05,1.34"/>
  <path class="cls-13" d="M228.1,128.96c0,1.29-.03,2.58-.02,3.87,0,.82-.12,1.51-1.16,1.53-.06-.14-.13-.27-.19-.41,.58-1.05,.52-2.21,.6-3.36,.04-.64-.18-1.42,.77-1.63Z"/>
  <path class="cls-13" d="M303.41,57.74c.88-1.48,2.4-1.09,3.72-1.28,.01,.14,.01,.27,.01,.41-1.24,.29-2.49,.58-3.73,.87Z"/>
  <path class="cls-13" d="M279.41,152.59c-.94,.49-1.94,.37-2.93,.26,.89-1.08,1.9-.8,2.93-.26Z"/>
  <path class="cls-9" d="M216.9,80.83c2.66-1.49,5.68-1.74,8.56-2.4,.72-.16,1.67-1.57,2.54-.12-3.48,1.58-7.25,2.11-10.93,2.97-.09,.02-.22-.11-.33-.16,.05-.1,.1-.19,.15-.29Z"/>
  <path class="cls-9" d="M165.31,95.89c-.13,.16-.25,.33-.38,.49-.58,.7-2.1,.94-1.75,2.01,.37,1.13,1.84,.92,2.87,1.12,1.24,.24,2.57-.18,4.09,.47-1.46,1.13-2.82,.51-4.07,.56-.41,.02-.87,.01-1.22-.16-1.09-.55-2.97,.05-3.19-1.69-.22-1.68,1.28-2.37,2.53-3.07,.18-.1,.35-.22,.52-.33,.2,.2,.4,.4,.6,.61Z"/>
  <path class="cls-16" d="M165.31,95.89c-.2-.2-.4-.4-.6-.61,2.54-1.7,5.41-2.61,8.3-3.47,.02,.25,.05,.5,.07,.75-2.59,1.11-5.18,2.22-7.77,3.33Z"/>
  <path class="cls-9" d="M173.08,92.55c-.02-.25-.05-.5-.07-.75,1.67-.95,3.62-1.05,5.37-1.75,.42-.17,1.22-.4,1.37,.33,.14,.68-.6,.52-1.02,.64-1.88,.51-3.77,1.03-5.65,1.54Z"/>
</svg>