<svg width="24" height="24" viewBox="0 0 24 24" fill="none" xmlns="http://www.w3.org/2000/svg">
<path d="M19.7882 23.7522H4.02839C2.26423 23.7522 0.852905 22.3409 0.852905 20.5768V9.40378C0.852905 8.4629 1.32335 7.52201 2.14662 6.93396L9.67369 1.05344C10.9674 0.112558 12.7316 0.112558 14.0253 1.05344L21.5523 6.81635C22.3756 7.4044 22.8461 8.34529 22.8461 9.28617V20.4592C22.9637 22.3409 21.5523 23.7522 19.7882 23.7522ZM11.9083 1.87671C11.4378 1.87671 10.9674 1.99432 10.6146 2.34716L3.0875 8.11007C2.61706 8.34529 2.38184 8.93334 2.38184 9.40378V20.5768C2.38184 21.5177 3.0875 22.2233 4.02839 22.2233H19.7882C20.7291 22.2233 21.4347 21.5177 21.4347 20.5768V9.40378C21.4347 8.93334 21.1995 8.4629 20.7291 8.11007L13.202 2.22954C12.8492 1.99432 12.3787 1.87671 11.9083 1.87671Z" fill="#B6B6B6"/>
<path d="M12 20C8.6915 20 6 17.3085 6 14C6 10.6915 8.6915 8 12 8C15.3085 8 18 10.6915 18 14C18 17.3085 15.3085 20 12 20ZM12 8.5C8.9675 8.5 6.5 10.9675 6.5 14C6.5 17.0325 8.9675 19.5 12 19.5C15.0325 19.5 17.5 17.0325 17.5 14C17.5 10.9675 15.0325 8.5 12 8.5ZM12.5 14.3355V10.5H12V14.1645L10.3025 16.347L10.697 16.6535L12.4995 14.336L12.5 14.3355Z" fill="#B6B6B6" stroke="#B6B6B6"/>
</svg>
