<svg width="56" height="56" viewBox="0 0 56 56" fill="none" xmlns="http://www.w3.org/2000/svg">
<rect width="56" height="56" fill="#FFCC5C" fill-opacity="0.3"/>
<g clip-path="url(#clip0_52_23)">
<path d="M33.25 19.75H22.75C21.7558 19.7512 20.8027 20.1467 20.0997 20.8497C19.3967 21.5527 19.0012 22.5058 19 23.5V32.5C19.0012 33.4942 19.3967 34.4473 20.0997 35.1503C20.8027 35.8533 21.7558 36.2488 22.75 36.25H33.25C34.2442 36.2488 35.1973 35.8533 35.9003 35.1503C36.6033 34.4473 36.9988 33.4942 37 32.5V23.5C36.9988 22.5058 36.6033 21.5527 35.9003 20.8497C35.1973 20.1467 34.2442 19.7512 33.25 19.75ZM22.75 21.25H33.25C33.6991 21.2509 34.1376 21.3861 34.5092 21.6384C34.8808 21.8906 35.1684 22.2482 35.335 22.6653L29.5915 28.4095C29.1688 28.8305 28.5966 29.0669 28 29.0669C27.4034 29.0669 26.8312 28.8305 26.4085 28.4095L20.665 22.6653C20.8316 22.2482 21.1192 21.8906 21.4908 21.6384C21.8624 21.3861 22.3009 21.2509 22.75 21.25ZM33.25 34.75H22.75C22.1533 34.75 21.581 34.5129 21.159 34.091C20.7371 33.669 20.5 33.0967 20.5 32.5V24.625L25.348 29.47C26.052 30.1722 27.0057 30.5665 28 30.5665C28.9943 30.5665 29.948 30.1722 30.652 29.47L35.5 24.625V32.5C35.5 33.0967 35.2629 33.669 34.841 34.091C34.419 34.5129 33.8467 34.75 33.25 34.75Z" fill="#FFCC5C"/>
</g>
<defs>
<clipPath id="clip0_52_23">
<rect width="18" height="18" fill="white" transform="translate(19 19)"/>
</clipPath>
</defs>
</svg>
