<svg width="56" height="56" viewBox="0 0 56 56" fill="none" xmlns="http://www.w3.org/2000/svg">
<rect width="56" height="56" fill="#FFCC5C" fill-opacity="0.3"/>
<g clip-path="url(#clip0_52_23)">
<path d="M34.4167 17.9167H21.5833C20.3682 17.9181 19.2033 18.4015 18.344 19.2607C17.4848 20.1199 17.0015 21.2849 17 22.5V33.5C17.0015 34.7151 17.4848 35.8801 18.344 36.7393C19.2033 37.5985 20.3682 38.0819 21.5833 38.0833H34.4167C35.6318 38.0819 36.7967 37.5985 37.656 36.7393C38.5152 35.8801 38.9985 34.7151 39 33.5V22.5C38.9985 21.2849 38.5152 20.1199 37.656 19.2607C36.7967 18.4015 35.6318 17.9181 34.4167 17.9167ZM21.5833 19.75H34.4167C34.9656 19.7511 35.5016 19.9164 35.9557 20.2247C36.4099 20.5329 36.7614 20.97 36.965 21.4797L29.9452 28.5005C29.4286 29.015 28.7291 29.3039 28 29.3039C27.2709 29.3039 26.5714 29.015 26.0548 28.5005L19.035 21.4797C19.2386 20.97 19.5901 20.5329 20.0443 20.2247C20.4984 19.9164 21.0344 19.7511 21.5833 19.75ZM34.4167 36.25H21.5833C20.854 36.25 20.1545 35.9603 19.6388 35.4445C19.1231 34.9288 18.8333 34.2293 18.8333 33.5V23.875L24.7587 29.7967C25.6191 30.6549 26.7847 31.1369 28 31.1369C29.2153 31.1369 30.3809 30.6549 31.2413 29.7967L37.1667 23.875V33.5C37.1667 34.2293 36.8769 34.9288 36.3612 35.4445C35.8455 35.9603 35.146 36.25 34.4167 36.25Z" fill="#FFCC5C"/>
</g>
<defs>
<clipPath id="clip0_52_23">
<rect width="22" height="22" fill="white" transform="translate(17 17)"/>
</clipPath>
</defs>
</svg>
