<svg xmlns="http://www.w3.org/2000/svg" xmlns:xlink="http://www.w3.org/1999/xlink" width="400" zoomAndPan="magnify" viewBox="0 0 300 299.999988" height="400" preserveAspectRatio="xMidYMid meet" version="1.0"><defs><clipPath id="fe5362e6f5"><path d="M 203 134 L 223.21875 134 L 223.21875 142 L 203 142 Z M 203 134 " clip-rule="nonzero"/></clipPath></defs><path fill="#ffb20c" d="M 197.449219 150.976562 C 197.449219 126.457031 176.652344 106.621094 151.136719 106.964844 C 126.640625 107.292969 106.605469 126.492188 106.132812 150.105469 C 105.816406 165.863281 114.09375 179.78125 126.753906 187.792969 C 130.003906 189.851562 131.945312 193.363281 131.945312 197.109375 L 131.945312 202.167969 C 131.945312 204.507812 133.910156 206.402344 136.335938 206.402344 L 167.234375 206.402344 C 169.660156 206.402344 171.625 204.507812 171.625 202.167969 L 171.625 197.109375 C 171.625 193.332031 173.621094 189.828125 176.894531 187.746094 C 189.277344 179.875 197.449219 166.34375 197.449219 150.976562 Z M 197.449219 150.976562 " fill-opacity="1" fill-rule="nonzero"/><path fill="#0b2972" d="M 162.691406 203.667969 L 131.792969 203.667969 C 128.429688 203.667969 125.695312 201.03125 125.695312 197.789062 L 125.695312 192.730469 C 125.695312 189.511719 124.039062 186.542969 121.269531 184.789062 C 107.558594 176.109375 99.566406 161.492188 99.882812 145.691406 C 100.121094 133.84375 105.089844 122.679688 113.878906 114.257812 C 122.664062 105.832031 134.273438 101.101562 146.566406 100.9375 C 159.355469 100.753906 171.40625 105.433594 180.5 114.082031 C 189.601562 122.734375 194.609375 134.28125 194.609375 146.597656 C 194.609375 161.992188 186.640625 176.253906 173.289062 184.742188 C 170.472656 186.53125 168.789062 189.519531 168.789062 192.730469 L 168.789062 197.789062 C 168.789062 201.03125 166.054688 203.667969 162.691406 203.667969 Z M 147.246094 104.226562 C 147.035156 104.226562 146.824219 104.226562 146.613281 104.230469 C 123.183594 104.542969 103.75 123.171875 103.296875 145.757812 C 103 160.417969 110.421875 173.984375 123.144531 182.039062 C 126.878906 184.402344 129.109375 188.398438 129.109375 192.730469 L 129.109375 197.789062 C 129.109375 199.214844 130.3125 200.375 131.792969 200.375 L 162.691406 200.375 C 164.171875 200.375 165.375 199.214844 165.375 197.789062 L 165.375 192.730469 C 165.375 188.410156 167.628906 184.394531 171.410156 181.992188 C 183.800781 174.117188 191.195312 160.882812 191.195312 146.597656 C 191.195312 135.167969 186.546875 124.453125 178.105469 116.425781 C 169.8125 108.546875 158.875 104.226562 147.246094 104.226562 Z M 147.246094 104.226562 " fill-opacity="1" fill-rule="nonzero"/><path fill="#0b2972" d="M 134.960938 206.402344 C 133.566406 206.402344 132.5 207.59375 132.6875 208.925781 C 133.964844 217.992188 142.027344 224.980469 151.785156 224.980469 C 161.542969 224.980469 169.605469 217.992188 170.882812 208.925781 C 171.070312 207.59375 170.003906 206.402344 168.609375 206.402344 Z M 134.960938 206.402344 " fill-opacity="0.5" fill-rule="nonzero"/><path fill="#0b2972" d="M 147.242188 222.246094 C 136.792969 222.246094 127.855469 214.730469 126.453125 204.765625 C 126.296875 203.65625 126.644531 202.535156 127.40625 201.695312 C 128.167969 200.855469 129.265625 200.375 130.417969 200.375 L 164.066406 200.375 C 165.21875 200.375 166.316406 200.855469 167.074219 201.695312 C 167.839844 202.535156 168.1875 203.65625 168.03125 204.765625 C 166.628906 214.730469 157.691406 222.246094 147.242188 222.246094 Z M 130.417969 203.667969 C 130.1875 203.667969 130.046875 203.789062 129.980469 203.859375 C 129.914062 203.933594 129.804688 204.09375 129.835938 204.324219 C 131.011719 212.664062 138.496094 218.953125 147.242188 218.953125 C 155.988281 218.953125 163.472656 212.664062 164.648438 204.324219 C 164.679688 204.09375 164.570312 203.933594 164.503906 203.859375 C 164.4375 203.789062 164.296875 203.667969 164.066406 203.667969 Z M 130.417969 203.667969 " fill-opacity="1" fill-rule="nonzero"/><path fill="#0b2972" d="M 151.511719 93.785156 C 150.570312 93.785156 149.804688 93.050781 149.804688 92.140625 L 149.804688 76.664062 C 149.804688 75.757812 150.570312 75.019531 151.511719 75.019531 C 152.457031 75.019531 153.21875 75.757812 153.21875 76.664062 L 153.21875 92.140625 C 153.21875 93.050781 152.457031 93.785156 151.511719 93.785156 Z M 151.511719 93.785156 " fill-opacity="1" fill-rule="nonzero"/><path fill="#0b2972" d="M 167.964844 96.609375 C 167.789062 96.609375 167.609375 96.582031 167.429688 96.527344 C 166.535156 96.242188 166.046875 95.3125 166.34375 94.449219 L 171.371094 79.75 C 171.667969 78.886719 172.632812 78.417969 173.527344 78.703125 C 174.421875 78.988281 174.910156 79.917969 174.613281 80.78125 L 169.585938 95.480469 C 169.351562 96.171875 168.683594 96.609375 167.964844 96.609375 Z M 167.964844 96.609375 " fill-opacity="1" fill-rule="nonzero"/><path fill="#0b2972" d="M 182.660156 103.476562 C 182.34375 103.476562 182.023438 103.394531 181.738281 103.214844 C 180.945312 102.722656 180.714844 101.707031 181.226562 100.941406 L 189.914062 87.925781 C 190.425781 87.164062 191.484375 86.941406 192.277344 87.433594 C 193.070312 87.925781 193.296875 88.945312 192.789062 89.710938 L 184.097656 102.722656 C 183.773438 103.210938 183.222656 103.476562 182.660156 103.476562 Z M 182.660156 103.476562 " fill-opacity="1" fill-rule="nonzero"/><path fill="#0b2972" d="M 193.773438 114.082031 C 193.308594 114.082031 192.84375 113.898438 192.507812 113.542969 C 191.875 112.867188 191.925781 111.828125 192.625 111.214844 L 204.527344 100.828125 C 205.226562 100.21875 206.304688 100.269531 206.9375 100.941406 C 207.570312 101.617188 207.515625 102.65625 206.816406 103.269531 L 194.917969 113.65625 C 194.59375 113.941406 194.179688 114.082031 193.773438 114.082031 Z M 193.773438 114.082031 " fill-opacity="1" fill-rule="nonzero"/><path fill="#0b2972" d="M 201.609375 125.445312 C 200.980469 125.445312 200.375 125.109375 200.074219 124.527344 C 199.660156 123.710938 200.007812 122.726562 200.855469 122.324219 L 215.257812 115.488281 C 216.101562 115.085938 217.125 115.421875 217.542969 116.238281 C 217.960938 117.050781 217.609375 118.039062 216.765625 118.441406 L 202.363281 125.277344 C 202.121094 125.390625 201.863281 125.445312 201.609375 125.445312 Z M 201.609375 125.445312 " fill-opacity="1" fill-rule="nonzero"/><g clip-path="url(#fe5362e6f5)"><path fill="#0b2972" d="M 205.640625 141.121094 C 204.847656 141.121094 204.140625 140.585938 203.96875 139.8125 C 203.773438 138.921875 204.367188 138.050781 205.289062 137.863281 L 220.996094 134.671875 C 221.921875 134.484375 222.828125 135.054688 223.019531 135.945312 C 223.214844 136.832031 222.625 137.707031 221.703125 137.894531 L 205.992188 141.082031 C 205.875 141.109375 205.753906 141.121094 205.640625 141.121094 Z M 205.640625 141.121094 " fill-opacity="1" fill-rule="nonzero"/></g><path fill="#ffb20c" d="M 111.652344 103.402344 C 108.628906 103.402344 106.171875 101.03125 106.171875 98.121094 C 106.171875 95.207031 108.628906 92.835938 111.652344 92.835938 C 114.671875 92.835938 117.132812 95.207031 117.132812 98.121094 C 117.132812 101.03125 114.671875 103.402344 111.652344 103.402344 Z M 111.652344 94.480469 C 109.570312 94.480469 107.878906 96.113281 107.878906 98.121094 C 107.878906 100.125 109.570312 101.757812 111.652344 101.757812 C 113.730469 101.757812 115.425781 100.125 115.425781 98.121094 C 115.425781 96.113281 113.730469 94.480469 111.652344 94.480469 Z M 111.652344 94.480469 " fill-opacity="1" fill-rule="nonzero"/><path fill="#0b2972" d="M 154.714844 195.289062 C 152.628906 195.289062 150.933594 193.652344 150.933594 191.640625 C 150.933594 189.628906 152.628906 187.992188 154.714844 187.992188 C 156.804688 187.992188 158.5 189.628906 158.5 191.640625 C 158.5 193.652344 156.804688 195.289062 154.714844 195.289062 Z M 154.714844 189.640625 C 153.570312 189.640625 152.640625 190.539062 152.640625 191.640625 C 152.640625 192.746094 153.570312 193.644531 154.714844 193.644531 C 155.863281 193.644531 156.792969 192.746094 156.792969 191.640625 C 156.792969 190.539062 155.863281 189.640625 154.714844 189.640625 Z M 154.714844 189.640625 " fill-opacity="1" fill-rule="nonzero"/><path fill="#0b2972" d="M 106.125 214.960938 C 104.039062 214.960938 102.339844 213.324219 102.339844 211.3125 C 102.339844 209.300781 104.039062 207.664062 106.125 207.664062 C 108.210938 207.664062 109.910156 209.300781 109.910156 211.3125 C 109.910156 213.324219 108.210938 214.960938 106.125 214.960938 Z M 106.125 209.308594 C 104.980469 209.308594 104.046875 210.207031 104.046875 211.3125 C 104.046875 212.414062 104.980469 213.3125 106.125 213.3125 C 107.269531 213.3125 108.199219 212.414062 108.199219 211.3125 C 108.199219 210.207031 107.269531 209.308594 106.125 209.308594 Z M 106.125 209.308594 " fill-opacity="1" fill-rule="nonzero"/><path fill="#ffb20c" d="M 77.902344 188.292969 C 77.683594 188.292969 77.464844 188.210938 77.300781 188.050781 C 76.964844 187.730469 76.964844 187.210938 77.300781 186.886719 L 81.476562 182.859375 C 81.984375 182.375 82.804688 182.375 83.3125 182.859375 L 86.769531 186.191406 L 90.734375 182.367188 C 91.226562 181.894531 92.078125 181.894531 92.570312 182.367188 L 96.535156 186.191406 L 100.671875 182.207031 C 101.160156 181.734375 102.015625 181.734375 102.507812 182.207031 L 106.472656 186.03125 L 110.328125 182.316406 C 110.660156 181.992188 111.203125 181.992188 111.535156 182.316406 C 111.867188 182.636719 111.867188 183.15625 111.535156 183.480469 L 107.390625 187.472656 C 106.886719 187.960938 106.0625 187.960938 105.558594 187.472656 L 101.589844 183.648438 L 97.453125 187.636719 C 97.210938 187.871094 96.882812 188.003906 96.539062 188.003906 C 96.539062 188.003906 96.535156 188.003906 96.535156 188.003906 C 96.191406 188.003906 95.863281 187.871094 95.621094 187.636719 L 91.652344 183.8125 L 87.683594 187.636719 C 87.441406 187.871094 87.113281 188.003906 86.769531 188.003906 C 86.421875 188.003906 86.09375 187.871094 85.851562 187.636719 L 82.394531 184.304688 L 78.507812 188.050781 C 78.339844 188.210938 78.121094 188.292969 77.902344 188.292969 Z M 77.902344 188.292969 " fill-opacity="1" fill-rule="nonzero"/><path fill="#ffffff" d="M 165.871094 182.414062 C 165.605469 182.414062 165.339844 182.292969 165.175781 182.066406 C 164.902344 181.695312 164.992188 181.179688 165.378906 180.917969 C 182.6875 169.121094 185.5625 154.648438 185.589844 154.503906 C 185.675781 154.054688 186.117188 153.761719 186.582031 153.839844 C 187.046875 153.917969 187.355469 154.34375 187.273438 154.792969 C 187.15625 155.410156 184.277344 170.054688 166.363281 182.261719 C 166.214844 182.363281 166.042969 182.414062 165.871094 182.414062 Z M 165.871094 182.414062 " fill-opacity="1" fill-rule="nonzero"/><path fill="#ffffff" d="M 186.941406 152.410156 C 186.878906 152.410156 186.8125 152.402344 186.746094 152.386719 C 186.289062 152.285156 186.003906 151.839844 186.109375 151.398438 C 186.347656 150.421875 186.875 147.574219 186.460938 146.171875 C 186.332031 145.738281 186.59375 145.28125 187.046875 145.15625 C 187.5 145.03125 187.972656 145.285156 188.105469 145.722656 C 188.714844 147.785156 187.871094 151.371094 187.773438 151.773438 C 187.679688 152.15625 187.332031 152.410156 186.941406 152.410156 Z M 186.941406 152.410156 " fill-opacity="1" fill-rule="nonzero"/><path fill="#ffffff" d="M 111.183594 144.660156 C 111.097656 143.816406 111.160156 143 111.375 142.210938 C 111.59375 141.421875 111.960938 140.710938 112.488281 140.074219 C 113.011719 139.4375 113.6875 138.894531 114.511719 138.445312 C 115.335938 137.992188 116.320312 137.683594 117.46875 137.511719 C 118.597656 137.34375 119.632812 137.355469 120.566406 137.546875 C 121.5 137.738281 122.316406 138.058594 123.015625 138.511719 C 123.714844 138.96875 124.289062 139.539062 124.742188 140.230469 C 125.191406 140.921875 125.507812 141.679688 125.6875 142.507812 C 125.824219 143.148438 125.945312 143.816406 126.058594 144.519531 C 126.167969 145.222656 126.257812 145.882812 126.324219 146.496094 C 126.40625 147.296875 126.355469 148.0625 126.179688 148.789062 C 126.003906 149.519531 125.691406 150.191406 125.253906 150.808594 L 127.496094 153.089844 C 127.515625 153.117188 127.539062 153.148438 127.558594 153.183594 C 127.578125 153.21875 127.59375 153.253906 127.597656 153.28125 C 127.652344 153.410156 127.632812 153.53125 127.550781 153.644531 C 127.464844 153.757812 127.351562 153.824219 127.210938 153.84375 L 123.933594 154.328125 C 123.640625 154.375 123.414062 154.34375 123.253906 154.234375 C 123.09375 154.128906 122.96875 154.039062 122.875 153.960938 L 122.074219 153.113281 C 121.761719 153.238281 121.4375 153.34375 121.101562 153.429688 C 120.765625 153.519531 120.414062 153.589844 120.042969 153.644531 C 118.894531 153.816406 117.859375 153.808594 116.933594 153.625 C 116.007812 153.441406 115.195312 153.117188 114.496094 152.65625 C 113.792969 152.195312 113.21875 151.617188 112.765625 150.929688 C 112.316406 150.238281 112 149.480469 111.820312 148.648438 C 111.691406 148.042969 111.570312 147.386719 111.460938 146.683594 C 111.347656 145.980469 111.253906 145.308594 111.183594 144.660156 Z M 122.007812 147.023438 C 121.980469 146.753906 121.949219 146.453125 121.910156 146.121094 C 121.875 145.789062 121.828125 145.453125 121.773438 145.109375 C 121.71875 144.765625 121.65625 144.433594 121.589844 144.113281 C 121.523438 143.796875 121.460938 143.511719 121.40625 143.257812 C 121.316406 142.890625 121.179688 142.558594 121 142.265625 C 120.816406 141.96875 120.585938 141.726562 120.308594 141.53125 C 120.03125 141.332031 119.707031 141.195312 119.328125 141.113281 C 118.949219 141.03125 118.519531 141.027344 118.039062 141.097656 C 117.558594 141.167969 117.152344 141.296875 116.816406 141.484375 C 116.480469 141.671875 116.210938 141.898438 116.007812 142.167969 C 115.804688 142.433594 115.664062 142.734375 115.582031 143.066406 C 115.5 143.402344 115.472656 143.757812 115.503906 144.132812 C 115.511719 144.394531 115.539062 144.683594 115.582031 145.007812 C 115.625 145.328125 115.675781 145.660156 115.730469 146.003906 C 115.785156 146.347656 115.839844 146.683594 115.902344 147.011719 C 115.960938 147.339844 116.027344 147.636719 116.101562 147.898438 C 116.285156 148.636719 116.652344 149.21875 117.203125 149.640625 C 117.753906 150.0625 118.507812 150.203125 119.46875 150.0625 C 120.429688 149.917969 121.105469 149.566406 121.492188 149.003906 C 121.875 148.441406 122.046875 147.78125 122.007812 147.023438 Z M 122.007812 147.023438 " fill-opacity="1" fill-rule="nonzero"/><path fill="#ffffff" d="M 140.816406 134.28125 C 140.988281 134.253906 141.144531 134.292969 141.289062 134.394531 C 141.429688 134.496094 141.515625 134.628906 141.542969 134.792969 L 142.96875 143.730469 C 143.132812 144.761719 143.105469 145.699219 142.894531 146.542969 C 142.679688 147.382812 142.300781 148.121094 141.757812 148.75 C 141.214844 149.382812 140.535156 149.898438 139.710938 150.304688 C 138.886719 150.710938 137.957031 150.988281 136.917969 151.144531 C 135.863281 151.300781 134.878906 151.304688 133.96875 151.15625 C 133.058594 151.007812 132.246094 150.710938 131.542969 150.265625 C 130.835938 149.820312 130.25 149.226562 129.78125 148.484375 C 129.316406 147.746094 129 146.859375 128.835938 145.828125 L 127.410156 136.886719 C 127.382812 136.722656 127.421875 136.574219 127.527344 136.433594 C 127.632812 136.296875 127.769531 136.214844 127.941406 136.1875 L 130.984375 135.738281 C 131.15625 135.710938 131.3125 135.75 131.457031 135.851562 C 131.597656 135.953125 131.683594 136.085938 131.710938 136.25 L 133.121094 145.101562 C 133.265625 145.996094 133.605469 146.664062 134.144531 147.105469 C 134.679688 147.546875 135.414062 147.695312 136.34375 147.558594 C 137.273438 147.421875 137.929688 147.0625 138.304688 146.488281 C 138.679688 145.914062 138.796875 145.175781 138.652344 144.28125 L 137.242188 135.429688 C 137.214844 135.265625 137.253906 135.113281 137.359375 134.976562 C 137.464844 134.839844 137.601562 134.757812 137.773438 134.730469 Z M 140.816406 134.28125 " fill-opacity="1" fill-rule="nonzero"/><path fill="#ffffff" d="M 147.667969 149.320312 C 147.496094 149.34375 147.339844 149.308594 147.195312 149.207031 C 147.054688 149.105469 146.96875 148.972656 146.941406 148.808594 L 144.632812 134.332031 C 144.605469 134.167969 144.644531 134.019531 144.75 133.878906 C 144.855469 133.742188 144.992188 133.660156 145.164062 133.636719 L 148.210938 133.183594 C 148.378906 133.160156 148.535156 133.195312 148.679688 133.296875 C 148.824219 133.398438 148.90625 133.53125 148.933594 133.695312 L 151.242188 148.171875 C 151.269531 148.335938 151.230469 148.484375 151.125 148.625 C 151.019531 148.761719 150.882812 148.84375 150.710938 148.867188 Z M 147.667969 149.320312 " fill-opacity="1" fill-rule="nonzero"/><path fill="#ffffff" d="M 156.785156 138.011719 C 156.800781 138.210938 156.832031 138.480469 156.878906 138.824219 C 156.925781 139.171875 156.976562 139.527344 157.035156 139.890625 C 157.09375 140.257812 157.15625 140.617188 157.21875 140.964844 C 157.28125 141.316406 157.339844 141.585938 157.386719 141.777344 C 157.46875 142.117188 157.59375 142.433594 157.75 142.734375 C 157.910156 143.03125 158.125 143.28125 158.394531 143.484375 C 158.664062 143.691406 158.992188 143.835938 159.371094 143.925781 C 159.75 144.015625 160.203125 144.019531 160.726562 143.941406 C 161.253906 143.863281 161.679688 143.742188 162 143.570312 C 162.324219 143.402344 162.578125 143.214844 162.769531 143.007812 C 162.957031 142.804688 163.09375 142.589844 163.175781 142.363281 C 163.261719 142.136719 163.316406 141.929688 163.351562 141.742188 C 163.390625 141.492188 163.449219 141.3125 163.527344 141.199219 C 163.605469 141.089844 163.773438 141.015625 164.039062 140.976562 L 167.082031 140.523438 C 167.222656 140.503906 167.351562 140.535156 167.46875 140.617188 C 167.582031 140.699219 167.652344 140.804688 167.671875 140.941406 C 167.777344 141.703125 167.699219 142.449219 167.433594 143.175781 C 167.171875 143.90625 166.753906 144.5625 166.179688 145.152344 C 165.609375 145.742188 164.90625 146.246094 164.078125 146.667969 C 163.25 147.089844 162.324219 147.375 161.300781 147.527344 C 160.183594 147.691406 159.164062 147.679688 158.238281 147.488281 C 157.308594 147.296875 156.492188 146.972656 155.785156 146.511719 C 155.078125 146.050781 154.496094 145.472656 154.046875 144.785156 C 153.59375 144.09375 153.28125 143.34375 153.101562 142.527344 C 152.972656 141.917969 152.851562 141.265625 152.742188 140.5625 C 152.628906 139.859375 152.539062 139.1875 152.464844 138.539062 C 152.367188 137.714844 152.425781 136.90625 152.648438 136.113281 C 152.875 135.324219 153.246094 134.609375 153.769531 133.964844 C 154.292969 133.320312 154.972656 132.773438 155.804688 132.320312 C 156.636719 131.867188 157.609375 131.558594 158.726562 131.394531 C 159.75 131.242188 160.722656 131.246094 161.644531 131.410156 C 162.566406 131.570312 163.390625 131.851562 164.121094 132.246094 C 164.851562 132.644531 165.453125 133.148438 165.933594 133.765625 C 166.414062 134.382812 166.722656 135.070312 166.859375 135.832031 C 166.878906 135.964844 166.847656 136.089844 166.761719 136.203125 C 166.675781 136.3125 166.566406 136.378906 166.425781 136.398438 L 163.378906 136.851562 C 163.117188 136.890625 162.929688 136.867188 162.824219 136.785156 C 162.714844 136.703125 162.601562 136.546875 162.484375 136.320312 C 162.394531 136.148438 162.277344 135.96875 162.125 135.777344 C 161.976562 135.585938 161.777344 135.417969 161.535156 135.277344 C 161.289062 135.140625 160.988281 135.035156 160.628906 134.964844 C 160.269531 134.898438 159.824219 134.902344 159.296875 134.980469 C 158.769531 135.058594 158.339844 135.195312 158.007812 135.390625 C 157.671875 135.585938 157.410156 135.816406 157.214844 136.089844 C 157.019531 136.363281 156.894531 136.667969 156.835938 136.996094 C 156.777344 137.328125 156.761719 137.664062 156.785156 138.011719 Z M 156.785156 138.011719 " fill-opacity="1" fill-rule="nonzero"/><path fill="#ffffff" d="M 184.578125 143.089844 C 184.632812 143.144531 184.667969 143.222656 184.6875 143.328125 C 184.707031 143.460938 184.675781 143.585938 184.589844 143.695312 C 184.503906 143.808594 184.394531 143.875 184.253906 143.894531 L 180.558594 144.441406 C 180.339844 144.476562 180.15625 144.457031 180 144.386719 C 179.847656 144.320312 179.6875 144.214844 179.523438 144.070312 L 174.277344 139.386719 L 175.113281 144.628906 C 175.140625 144.796875 175.101562 144.945312 174.996094 145.085938 C 174.890625 145.222656 174.753906 145.304688 174.582031 145.328125 L 171.539062 145.78125 C 171.367188 145.804688 171.210938 145.769531 171.070312 145.667969 C 170.925781 145.566406 170.839844 145.433594 170.816406 145.269531 L 168.503906 130.792969 C 168.480469 130.628906 168.519531 130.476562 168.621094 130.339844 C 168.726562 130.203125 168.867188 130.121094 169.035156 130.097656 L 172.082031 129.644531 C 172.25 129.617188 172.40625 129.65625 172.550781 129.757812 C 172.695312 129.859375 172.777344 129.992188 172.804688 130.15625 L 173.558594 134.882812 L 176.878906 129.4375 C 176.941406 129.335938 177.023438 129.21875 177.128906 129.078125 C 177.234375 128.941406 177.433594 128.851562 177.730469 128.804688 L 181.355469 128.269531 C 181.496094 128.25 181.621094 128.277344 181.738281 128.359375 C 181.855469 128.441406 181.925781 128.550781 181.945312 128.6875 C 181.960938 128.789062 181.953125 128.875 181.914062 128.941406 L 177.253906 136.5625 Z M 184.578125 143.089844 " fill-opacity="1" fill-rule="nonzero"/><path fill="#0b2972" d="M 109.84375 144.859375 C 109.753906 144.015625 109.820312 143.199219 110.035156 142.410156 C 110.25 141.621094 110.621094 140.910156 111.144531 140.273438 C 111.671875 139.636719 112.34375 139.09375 113.167969 138.644531 C 113.992188 138.191406 114.980469 137.882812 116.125 137.710938 C 117.257812 137.542969 118.289062 137.554688 119.222656 137.746094 C 120.160156 137.9375 120.976562 138.257812 121.675781 138.710938 C 122.375 139.167969 122.949219 139.738281 123.398438 140.429688 C 123.851562 141.117188 124.167969 141.878906 124.347656 142.707031 C 124.480469 143.347656 124.601562 144.015625 124.714844 144.71875 C 124.828125 145.421875 124.917969 146.078125 124.984375 146.695312 C 125.0625 147.496094 125.015625 148.261719 124.835938 148.988281 C 124.660156 149.71875 124.351562 150.390625 123.910156 151.007812 L 126.152344 153.289062 C 126.175781 153.316406 126.195312 153.347656 126.21875 153.382812 C 126.238281 153.417969 126.25 153.453125 126.257812 153.480469 C 126.308594 153.609375 126.292969 153.730469 126.207031 153.84375 C 126.121094 153.957031 126.007812 154.023438 125.871094 154.042969 L 122.59375 154.527344 C 122.296875 154.574219 122.070312 154.542969 121.910156 154.433594 C 121.75 154.328125 121.625 154.238281 121.535156 154.160156 L 120.734375 153.3125 C 120.417969 153.4375 120.09375 153.542969 119.761719 153.628906 C 119.425781 153.71875 119.070312 153.789062 118.699219 153.84375 C 117.554688 154.015625 116.515625 154.007812 115.589844 153.824219 C 114.664062 153.640625 113.851562 153.316406 113.152344 152.855469 C 112.453125 152.394531 111.875 151.816406 111.425781 151.128906 C 110.972656 150.4375 110.660156 149.675781 110.480469 148.847656 C 110.351562 148.238281 110.230469 147.585938 110.117188 146.882812 C 110.003906 146.179688 109.914062 145.507812 109.84375 144.859375 Z M 120.664062 147.222656 C 120.636719 146.953125 120.605469 146.652344 120.570312 146.320312 C 120.53125 145.988281 120.484375 145.652344 120.429688 145.308594 C 120.375 144.964844 120.316406 144.632812 120.25 144.3125 C 120.183594 143.996094 120.121094 143.710938 120.066406 143.457031 C 119.972656 143.089844 119.835938 142.757812 119.65625 142.464844 C 119.472656 142.167969 119.246094 141.925781 118.96875 141.730469 C 118.691406 141.53125 118.363281 141.394531 117.984375 141.3125 C 117.605469 141.230469 117.175781 141.226562 116.699219 141.296875 C 116.21875 141.367188 115.808594 141.496094 115.476562 141.683594 C 115.140625 141.871094 114.871094 142.097656 114.667969 142.367188 C 114.464844 142.632812 114.320312 142.933594 114.238281 143.265625 C 114.15625 143.601562 114.132812 143.957031 114.160156 144.332031 C 114.167969 144.59375 114.195312 144.882812 114.238281 145.203125 C 114.28125 145.527344 114.332031 145.859375 114.386719 146.203125 C 114.441406 146.546875 114.5 146.882812 114.558594 147.210938 C 114.621094 147.539062 114.6875 147.832031 114.761719 148.097656 C 114.941406 148.835938 115.308594 149.414062 115.859375 149.839844 C 116.410156 150.261719 117.167969 150.402344 118.128906 150.257812 C 119.089844 150.117188 119.761719 149.765625 120.148438 149.203125 C 120.535156 148.640625 120.707031 147.980469 120.664062 147.222656 Z M 120.664062 147.222656 " fill-opacity="1" fill-rule="nonzero"/><path fill="#0b2972" d="M 139.476562 134.480469 C 139.644531 134.453125 139.800781 134.492188 139.945312 134.59375 C 140.089844 134.695312 140.171875 134.828125 140.199219 134.992188 L 141.625 143.929688 C 141.789062 144.960938 141.765625 145.898438 141.550781 146.742188 C 141.335938 147.582031 140.957031 148.320312 140.417969 148.949219 C 139.875 149.582031 139.191406 150.097656 138.367188 150.503906 C 137.542969 150.910156 136.613281 151.1875 135.574219 151.34375 C 134.519531 151.5 133.539062 151.503906 132.625 151.355469 C 131.714844 151.207031 130.90625 150.910156 130.199219 150.464844 C 129.496094 150.019531 128.90625 149.425781 128.441406 148.683594 C 127.972656 147.945312 127.65625 147.058594 127.492188 146.027344 L 126.066406 137.085938 C 126.039062 136.921875 126.078125 136.769531 126.183594 136.632812 C 126.289062 136.496094 126.425781 136.414062 126.597656 136.386719 L 129.644531 135.9375 C 129.8125 135.910156 129.96875 135.949219 130.113281 136.050781 C 130.257812 136.152344 130.339844 136.285156 130.367188 136.449219 L 131.777344 145.300781 C 131.921875 146.195312 132.261719 146.863281 132.800781 147.304688 C 133.339844 147.742188 134.074219 147.894531 135.003906 147.757812 C 135.933594 147.621094 136.585938 147.261719 136.960938 146.6875 C 137.335938 146.113281 137.453125 145.375 137.3125 144.480469 L 135.898438 135.628906 C 135.871094 135.464844 135.910156 135.3125 136.015625 135.175781 C 136.121094 135.039062 136.257812 134.957031 136.429688 134.929688 Z M 139.476562 134.480469 " fill-opacity="1" fill-rule="nonzero"/><path fill="#0b2972" d="M 146.324219 149.519531 C 146.152344 149.542969 145.996094 149.507812 145.855469 149.40625 C 145.710938 149.304688 145.625 149.171875 145.601562 149.007812 L 143.289062 134.53125 C 143.265625 134.367188 143.304688 134.21875 143.410156 134.078125 C 143.515625 133.941406 143.652344 133.859375 143.820312 133.835938 L 146.867188 133.382812 C 147.039062 133.359375 147.195312 133.394531 147.335938 133.496094 C 147.480469 133.597656 147.566406 133.730469 147.589844 133.894531 L 149.902344 148.371094 C 149.925781 148.535156 149.886719 148.683594 149.78125 148.824219 C 149.679688 148.960938 149.539062 149.042969 149.371094 149.066406 Z M 146.324219 149.519531 " fill-opacity="1" fill-rule="nonzero"/><path fill="#0b2972" d="M 155.441406 138.210938 C 155.457031 138.410156 155.488281 138.679688 155.535156 139.023438 C 155.582031 139.371094 155.636719 139.722656 155.695312 140.089844 C 155.753906 140.457031 155.8125 140.816406 155.878906 141.164062 C 155.941406 141.515625 155.996094 141.785156 156.042969 141.976562 C 156.128906 142.316406 156.25 142.632812 156.410156 142.933594 C 156.566406 143.230469 156.78125 143.480469 157.054688 143.683594 C 157.324219 143.890625 157.648438 144.035156 158.027344 144.125 C 158.40625 144.214844 158.859375 144.21875 159.386719 144.140625 C 159.914062 144.0625 160.335938 143.941406 160.660156 143.769531 C 160.980469 143.601562 161.238281 143.414062 161.425781 143.207031 C 161.617188 143.003906 161.753906 142.789062 161.835938 142.5625 C 161.917969 142.335938 161.976562 142.128906 162.007812 141.941406 C 162.046875 141.691406 162.105469 141.511719 162.183594 141.398438 C 162.261719 141.289062 162.433594 141.214844 162.695312 141.175781 L 165.742188 140.722656 C 165.878906 140.703125 166.007812 140.734375 166.125 140.816406 C 166.242188 140.898438 166.308594 141.003906 166.332031 141.140625 C 166.4375 141.902344 166.359375 142.648438 166.09375 143.375 C 165.828125 144.105469 165.410156 144.761719 164.839844 145.351562 C 164.265625 145.941406 163.566406 146.445312 162.734375 146.867188 C 161.90625 147.289062 160.980469 147.574219 159.957031 147.726562 C 158.84375 147.890625 157.820312 147.878906 156.894531 147.6875 C 155.96875 147.496094 155.148438 147.171875 154.441406 146.710938 C 153.734375 146.25 153.15625 145.671875 152.703125 144.984375 C 152.253906 144.292969 151.9375 143.542969 151.761719 142.726562 C 151.632812 142.117188 151.511719 141.464844 151.398438 140.761719 C 151.285156 140.058594 151.195312 139.386719 151.125 138.738281 C 151.023438 137.914062 151.085938 137.105469 151.308594 136.3125 C 151.53125 135.523438 151.90625 134.808594 152.429688 134.164062 C 152.953125 133.519531 153.628906 132.972656 154.460938 132.519531 C 155.292969 132.066406 156.269531 131.757812 157.382812 131.59375 C 158.40625 131.441406 159.378906 131.445312 160.300781 131.609375 C 161.222656 131.769531 162.050781 132.050781 162.777344 132.445312 C 163.507812 132.839844 164.113281 133.347656 164.589844 133.964844 C 165.070312 134.582031 165.378906 135.269531 165.515625 136.03125 C 165.539062 136.164062 165.503906 136.289062 165.421875 136.398438 C 165.335938 136.511719 165.222656 136.578125 165.082031 136.597656 L 162.039062 137.050781 C 161.773438 137.089844 161.589844 137.070312 161.480469 136.984375 C 161.371094 136.902344 161.257812 136.746094 161.144531 136.519531 C 161.054688 136.347656 160.933594 136.167969 160.785156 135.976562 C 160.632812 135.785156 160.4375 135.617188 160.191406 135.476562 C 159.949219 135.339844 159.644531 135.234375 159.285156 135.164062 C 158.925781 135.097656 158.480469 135.101562 157.957031 135.179688 C 157.429688 135.257812 157 135.394531 156.664062 135.589844 C 156.332031 135.785156 156.066406 136.015625 155.871094 136.289062 C 155.679688 136.566406 155.550781 136.867188 155.492188 137.195312 C 155.433594 137.523438 155.417969 137.863281 155.441406 138.210938 Z M 155.441406 138.210938 " fill-opacity="1" fill-rule="nonzero"/><path fill="#0b2972" d="M 183.234375 143.289062 C 183.292969 143.34375 183.328125 143.421875 183.34375 143.523438 C 183.367188 143.660156 183.332031 143.785156 183.25 143.894531 C 183.164062 144.007812 183.050781 144.074219 182.910156 144.09375 L 179.214844 144.640625 C 179 144.675781 178.8125 144.65625 178.660156 144.585938 C 178.503906 144.519531 178.347656 144.414062 178.179688 144.269531 L 172.9375 139.585938 L 173.773438 144.828125 C 173.800781 144.996094 173.757812 145.144531 173.65625 145.285156 C 173.550781 145.421875 173.410156 145.503906 173.242188 145.527344 L 170.195312 145.980469 C 170.027344 146.003906 169.871094 145.96875 169.726562 145.867188 C 169.582031 145.765625 169.5 145.632812 169.472656 145.46875 L 167.164062 130.992188 C 167.136719 130.828125 167.175781 130.675781 167.28125 130.539062 C 167.386719 130.402344 167.523438 130.320312 167.695312 130.292969 L 170.738281 129.84375 C 170.910156 129.816406 171.066406 129.855469 171.210938 129.957031 C 171.351562 130.058594 171.4375 130.191406 171.464844 130.355469 L 172.21875 135.082031 L 175.535156 129.636719 C 175.597656 129.535156 175.683594 129.414062 175.789062 129.277344 C 175.894531 129.140625 176.09375 129.050781 176.386719 129.003906 L 180.011719 128.46875 C 180.152344 128.449219 180.28125 128.476562 180.398438 128.558594 C 180.511719 128.640625 180.582031 128.75 180.605469 128.886719 C 180.621094 128.988281 180.609375 129.074219 180.574219 129.140625 L 175.910156 136.761719 Z M 183.234375 143.289062 " fill-opacity="1" fill-rule="nonzero"/><path fill="#ffffff" d="M 135.671875 156.234375 C 135.839844 156.210938 136 156.246094 136.140625 156.347656 C 136.285156 156.449219 136.371094 156.582031 136.394531 156.746094 L 136.773438 159.121094 C 136.800781 159.285156 136.761719 159.4375 136.65625 159.574219 C 136.550781 159.714844 136.414062 159.796875 136.242188 159.820312 L 132.152344 160.425781 L 133.988281 171.921875 C 134.011719 172.085938 133.972656 172.238281 133.867188 172.375 C 133.761719 172.511719 133.625 172.59375 133.457031 172.621094 L 130.410156 173.070312 C 130.238281 173.097656 130.082031 173.058594 129.941406 172.957031 C 129.796875 172.855469 129.710938 172.722656 129.6875 172.558594 L 127.851562 161.066406 L 123.761719 161.671875 C 123.589844 161.695312 123.433594 161.660156 123.289062 161.558594 C 123.148438 161.457031 123.0625 161.324219 123.035156 161.160156 L 122.65625 158.785156 C 122.632812 158.621094 122.671875 158.46875 122.777344 158.332031 C 122.878906 158.191406 123.019531 158.109375 123.1875 158.085938 Z M 135.671875 156.234375 " fill-opacity="1" fill-rule="nonzero"/><path fill="#ffffff" d="M 141.523438 171.425781 C 141.351562 171.449219 141.195312 171.410156 141.050781 171.308594 C 140.90625 171.210938 140.824219 171.078125 140.796875 170.910156 L 138.488281 156.4375 C 138.460938 156.273438 138.5 156.121094 138.605469 155.984375 C 138.710938 155.847656 138.847656 155.765625 139.019531 155.738281 L 142.0625 155.289062 C 142.234375 155.261719 142.390625 155.300781 142.535156 155.402344 C 142.675781 155.503906 142.761719 155.636719 142.789062 155.800781 L 145.097656 170.273438 C 145.125 170.4375 145.085938 170.589844 144.980469 170.726562 C 144.875 170.867188 144.738281 170.945312 144.566406 170.972656 Z M 141.523438 171.425781 " fill-opacity="1" fill-rule="nonzero"/><path fill="#ffffff" d="M 153.222656 153.632812 C 154.210938 153.484375 155.121094 153.460938 155.945312 153.5625 C 156.769531 153.660156 157.496094 153.890625 158.125 154.246094 C 158.753906 154.605469 159.269531 155.089844 159.679688 155.703125 C 160.085938 156.316406 160.359375 157.054688 160.496094 157.921875 C 160.636719 158.804688 160.609375 159.59375 160.410156 160.296875 C 160.214844 161 159.871094 161.609375 159.382812 162.125 C 158.894531 162.640625 158.273438 163.066406 157.515625 163.410156 C 156.761719 163.75 155.890625 163.996094 154.898438 164.140625 L 151.921875 164.582031 L 152.652344 169.152344 C 152.679688 169.320312 152.636719 169.46875 152.535156 169.609375 C 152.429688 169.746094 152.292969 169.828125 152.121094 169.851562 L 149.074219 170.304688 C 148.90625 170.328125 148.75 170.292969 148.605469 170.191406 C 148.460938 170.089844 148.378906 169.957031 148.351562 169.792969 L 146.042969 155.316406 C 146.015625 155.152344 146.054688 155 146.160156 154.863281 C 146.265625 154.726562 146.402344 154.644531 146.574219 154.617188 Z M 151.363281 161.085938 L 154.222656 160.664062 C 154.875 160.566406 155.390625 160.347656 155.773438 160.007812 C 156.15625 159.671875 156.296875 159.1875 156.195312 158.558594 C 156.097656 157.933594 155.8125 157.511719 155.339844 157.296875 C 154.871094 157.085938 154.308594 157.027344 153.660156 157.125 L 150.800781 157.546875 Z M 151.363281 161.085938 " fill-opacity="1" fill-rule="nonzero"/><path fill="#ffffff" d="M 167.898438 151.226562 C 168.890625 151.078125 169.824219 151.082031 170.695312 151.238281 C 171.570312 151.390625 172.34375 151.636719 173.015625 151.984375 C 173.691406 152.324219 174.238281 152.734375 174.664062 153.207031 C 175.085938 153.679688 175.34375 154.152344 175.4375 154.628906 C 175.457031 154.761719 175.425781 154.886719 175.339844 154.996094 C 175.257812 155.109375 175.152344 155.175781 175.027344 155.191406 L 171.984375 155.644531 C 171.765625 155.675781 171.585938 155.671875 171.445312 155.632812 C 171.304688 155.59375 171.152344 155.523438 170.996094 155.425781 C 170.941406 155.386719 170.855469 155.324219 170.738281 155.234375 C 170.621094 155.144531 170.460938 155.054688 170.257812 154.972656 C 170.054688 154.886719 169.804688 154.824219 169.511719 154.785156 C 169.222656 154.742188 168.875 154.753906 168.46875 154.8125 C 168.175781 154.855469 167.894531 154.917969 167.632812 154.992188 C 167.367188 155.070312 167.136719 155.167969 166.941406 155.28125 C 166.742188 155.394531 166.589844 155.535156 166.484375 155.703125 C 166.375 155.871094 166.339844 156.070312 166.375 156.292969 C 166.410156 156.515625 166.515625 156.691406 166.6875 156.820312 C 166.855469 156.949219 167.125 157.050781 167.496094 157.125 C 167.863281 157.199219 168.34375 157.253906 168.9375 157.289062 C 169.53125 157.324219 170.265625 157.359375 171.144531 157.398438 C 172.023438 157.4375 172.800781 157.535156 173.476562 157.695312 C 174.152344 157.855469 174.730469 158.09375 175.21875 158.410156 C 175.707031 158.726562 176.097656 159.128906 176.386719 159.613281 C 176.679688 160.097656 176.878906 160.691406 176.992188 161.394531 C 177.113281 162.15625 177.042969 162.863281 176.785156 163.511719 C 176.523438 164.164062 176.105469 164.746094 175.527344 165.269531 C 174.953125 165.789062 174.246094 166.226562 173.40625 166.582031 C 172.566406 166.933594 171.628906 167.1875 170.589844 167.34375 C 169.535156 167.5 168.554688 167.507812 167.644531 167.367188 C 166.730469 167.226562 165.925781 166.984375 165.230469 166.636719 C 164.53125 166.289062 163.960938 165.863281 163.515625 165.363281 C 163.070312 164.863281 162.796875 164.332031 162.691406 163.765625 C 162.667969 163.632812 162.699219 163.507812 162.785156 163.398438 C 162.871094 163.285156 162.976562 163.21875 163.097656 163.199219 L 166.144531 162.75 C 166.359375 162.71875 166.535156 162.71875 166.667969 162.753906 C 166.800781 162.785156 166.9375 162.847656 167.078125 162.933594 C 167.148438 162.984375 167.257812 163.066406 167.402344 163.183594 C 167.546875 163.296875 167.738281 163.410156 167.96875 163.523438 C 168.199219 163.632812 168.484375 163.71875 168.820312 163.773438 C 169.152344 163.832031 169.550781 163.828125 170.015625 163.757812 C 170.839844 163.636719 171.511719 163.449219 172.035156 163.195312 C 172.554688 162.941406 172.78125 162.589844 172.710938 162.144531 C 172.675781 161.917969 172.542969 161.746094 172.320312 161.628906 C 172.09375 161.507812 171.769531 161.414062 171.347656 161.347656 C 170.921875 161.28125 170.386719 161.234375 169.742188 161.207031 C 169.09375 161.179688 168.332031 161.140625 167.449219 161.089844 C 165.800781 160.996094 164.546875 160.621094 163.6875 159.960938 C 162.828125 159.300781 162.296875 158.328125 162.09375 157.042969 C 161.992188 156.402344 162.042969 155.765625 162.253906 155.136719 C 162.460938 154.511719 162.816406 153.929688 163.320312 153.398438 C 163.820312 152.863281 164.457031 152.40625 165.230469 152.023438 C 166.003906 151.640625 166.890625 151.375 167.898438 151.226562 Z M 167.898438 151.226562 " fill-opacity="1" fill-rule="nonzero"/><path fill="#0b2972" d="M 134.328125 156.433594 C 134.5 156.410156 134.65625 156.449219 134.800781 156.546875 C 134.941406 156.648438 135.027344 156.78125 135.054688 156.945312 L 135.433594 159.320312 C 135.460938 159.488281 135.417969 159.636719 135.316406 159.773438 C 135.210938 159.914062 135.070312 159.996094 134.902344 160.019531 L 130.8125 160.625 L 132.644531 172.121094 C 132.671875 172.285156 132.632812 172.4375 132.527344 172.574219 C 132.421875 172.710938 132.285156 172.792969 132.113281 172.820312 L 129.070312 173.269531 C 128.898438 173.296875 128.742188 173.257812 128.597656 173.15625 C 128.457031 173.054688 128.371094 172.921875 128.34375 172.757812 L 126.511719 161.265625 L 122.417969 161.871094 C 122.25 161.894531 122.09375 161.859375 121.949219 161.757812 C 121.804688 161.65625 121.722656 161.523438 121.695312 161.359375 L 121.316406 158.984375 C 121.289062 158.820312 121.328125 158.667969 121.433594 158.53125 C 121.539062 158.394531 121.675781 158.3125 121.847656 158.285156 Z M 134.328125 156.433594 " fill-opacity="1" fill-rule="nonzero"/><path fill="#0b2972" d="M 140.179688 171.625 C 140.007812 171.648438 139.851562 171.609375 139.710938 171.507812 C 139.566406 171.410156 139.480469 171.277344 139.457031 171.109375 L 137.144531 156.636719 C 137.121094 156.472656 137.160156 156.320312 137.265625 156.183594 C 137.367188 156.046875 137.507812 155.964844 137.675781 155.9375 L 140.722656 155.488281 C 140.890625 155.460938 141.046875 155.5 141.191406 155.601562 C 141.335938 155.703125 141.417969 155.835938 141.445312 156 L 143.753906 170.472656 C 143.78125 170.636719 143.742188 170.789062 143.636719 170.925781 C 143.53125 171.066406 143.394531 171.148438 143.226562 171.171875 Z M 140.179688 171.625 " fill-opacity="1" fill-rule="nonzero"/><path fill="#0b2972" d="M 151.878906 153.832031 C 152.871094 153.683594 153.777344 153.660156 154.605469 153.761719 C 155.429688 153.859375 156.15625 154.089844 156.785156 154.445312 C 157.410156 154.804688 157.929688 155.289062 158.335938 155.902344 C 158.742188 156.515625 159.015625 157.253906 159.15625 158.121094 C 159.296875 159.003906 159.265625 159.792969 159.070312 160.496094 C 158.871094 161.199219 158.527344 161.808594 158.039062 162.324219 C 157.550781 162.839844 156.929688 163.265625 156.175781 163.609375 C 155.421875 163.949219 154.546875 164.195312 153.554688 164.339844 L 150.582031 164.78125 L 151.308594 169.355469 C 151.335938 169.519531 151.296875 169.667969 151.191406 169.808594 C 151.085938 169.945312 150.949219 170.027344 150.777344 170.050781 L 147.734375 170.503906 C 147.5625 170.527344 147.40625 170.492188 147.261719 170.390625 C 147.121094 170.289062 147.035156 170.15625 147.007812 169.992188 L 144.699219 155.515625 C 144.671875 155.351562 144.714844 155.199219 144.816406 155.0625 C 144.921875 154.925781 145.058594 154.84375 145.230469 154.816406 Z M 150.023438 161.285156 L 152.882812 160.863281 C 153.53125 160.765625 154.050781 160.546875 154.429688 160.207031 C 154.8125 159.871094 154.953125 159.386719 154.855469 158.757812 C 154.753906 158.132812 154.46875 157.710938 154 157.496094 C 153.527344 157.285156 152.96875 157.226562 152.316406 157.324219 L 149.457031 157.746094 Z M 150.023438 161.285156 " fill-opacity="1" fill-rule="nonzero"/><path fill="#0b2972" d="M 166.558594 151.425781 C 167.546875 151.28125 168.480469 151.28125 169.355469 151.4375 C 170.226562 151.589844 171 151.839844 171.675781 152.183594 C 172.347656 152.527344 172.894531 152.933594 173.320312 153.40625 C 173.746094 153.878906 174.003906 154.351562 174.09375 154.828125 C 174.117188 154.960938 174.085938 155.085938 174 155.199219 C 173.914062 155.308594 173.808594 155.375 173.6875 155.394531 L 170.640625 155.84375 C 170.421875 155.875 170.246094 155.871094 170.101562 155.832031 C 169.960938 155.792969 169.8125 155.722656 169.652344 155.625 C 169.601562 155.585938 169.515625 155.523438 169.398438 155.433594 C 169.28125 155.34375 169.117188 155.253906 168.914062 155.171875 C 168.710938 155.085938 168.464844 155.023438 168.171875 154.984375 C 167.878906 154.941406 167.53125 154.953125 167.128906 155.011719 C 166.835938 155.054688 166.554688 155.117188 166.289062 155.195312 C 166.023438 155.273438 165.792969 155.367188 165.597656 155.480469 C 165.402344 155.59375 165.25 155.734375 165.140625 155.902344 C 165.035156 156.074219 164.996094 156.269531 165.035156 156.492188 C 165.070312 156.714844 165.171875 156.894531 165.34375 157.019531 C 165.515625 157.148438 165.785156 157.25 166.152344 157.324219 C 166.523438 157.398438 167.003906 157.453125 167.59375 157.488281 C 168.1875 157.523438 168.921875 157.558594 169.800781 157.597656 C 170.679688 157.636719 171.457031 157.734375 172.132812 157.894531 C 172.808594 158.054688 173.390625 158.292969 173.878906 158.609375 C 174.363281 158.929688 174.753906 159.328125 175.046875 159.8125 C 175.335938 160.296875 175.539062 160.890625 175.652344 161.59375 C 175.773438 162.355469 175.703125 163.0625 175.441406 163.710938 C 175.179688 164.363281 174.761719 164.949219 174.1875 165.46875 C 173.613281 165.988281 172.902344 166.425781 172.066406 166.78125 C 171.226562 167.136719 170.285156 167.390625 169.246094 167.542969 C 168.191406 167.699219 167.210938 167.707031 166.300781 167.566406 C 165.390625 167.425781 164.585938 167.183594 163.886719 166.835938 C 163.191406 166.488281 162.617188 166.0625 162.175781 165.5625 C 161.730469 165.0625 161.453125 164.53125 161.347656 163.964844 C 161.328125 163.832031 161.359375 163.707031 161.445312 163.597656 C 161.527344 163.484375 161.632812 163.417969 161.757812 163.402344 L 164.800781 162.949219 C 165.019531 162.917969 165.195312 162.917969 165.328125 162.953125 C 165.457031 162.984375 165.59375 163.046875 165.734375 163.132812 C 165.808594 163.183594 165.914062 163.265625 166.0625 163.382812 C 166.207031 163.496094 166.394531 163.613281 166.628906 163.722656 C 166.859375 163.832031 167.140625 163.917969 167.476562 163.976562 C 167.8125 164.03125 168.210938 164.027344 168.675781 163.957031 C 169.496094 163.835938 170.167969 163.648438 170.691406 163.394531 C 171.214844 163.140625 171.441406 162.789062 171.367188 162.34375 C 171.332031 162.117188 171.203125 161.945312 170.976562 161.828125 C 170.75 161.707031 170.425781 161.613281 170.003906 161.546875 C 169.582031 161.480469 169.046875 161.433594 168.398438 161.40625 C 167.753906 161.378906 166.988281 161.339844 166.109375 161.289062 C 164.460938 161.195312 163.207031 160.820312 162.347656 160.160156 C 161.488281 159.5 160.957031 158.527344 160.75 157.242188 C 160.648438 156.601562 160.703125 155.964844 160.910156 155.335938 C 161.121094 154.710938 161.476562 154.128906 161.976562 153.597656 C 162.480469 153.0625 163.117188 152.605469 163.886719 152.222656 C 164.660156 151.84375 165.550781 151.574219 166.558594 151.425781 Z M 166.558594 151.425781 " fill-opacity="1" fill-rule="nonzero"/><path fill="#ffffff" d="M 160.082031 122.597656 C 159.769531 122.597656 159.457031 122.519531 159.171875 122.359375 C 158.601562 122.042969 158.261719 121.476562 158.261719 120.839844 L 158.261719 112.546875 C 158.261719 111.914062 158.601562 111.34375 159.171875 111.027344 C 159.742188 110.710938 160.421875 110.710938 160.992188 111.027344 L 168.445312 115.175781 C 169.011719 115.492188 169.351562 116.058594 169.355469 116.695312 C 169.355469 117.328125 169.011719 117.894531 168.445312 118.214844 L 160.992188 122.359375 C 160.707031 122.519531 160.394531 122.597656 160.082031 122.597656 Z M 160.082031 112.4375 C 160.066406 112.4375 160.046875 112.441406 160.027344 112.453125 C 159.96875 112.484375 159.96875 112.53125 159.96875 112.546875 L 159.96875 120.839844 C 159.96875 120.859375 159.96875 120.902344 160.027344 120.933594 C 160.082031 120.96875 160.125 120.945312 160.136719 120.933594 L 167.589844 116.789062 C 167.605469 116.78125 167.644531 116.757812 167.644531 116.695312 C 167.644531 116.632812 167.605469 116.609375 167.589844 116.601562 L 160.136719 112.453125 C 160.128906 112.449219 160.109375 112.4375 160.082031 112.4375 Z M 160.082031 112.4375 " fill-opacity="1" fill-rule="nonzero"/><path fill="#0b2972" d="M 94.417969 151.175781 C 93.988281 151.175781 93.621094 150.871094 93.570312 150.453125 C 93.136719 146.984375 93.128906 143.457031 93.550781 139.964844 C 93.605469 139.511719 94.027344 139.1875 94.5 139.242188 C 94.96875 139.292969 95.304688 139.703125 95.25 140.152344 C 94.839844 143.519531 94.847656 146.917969 95.265625 150.253906 C 95.320312 150.707031 94.988281 151.117188 94.519531 151.171875 C 94.484375 151.175781 94.449219 151.175781 94.417969 151.175781 Z M 94.417969 151.175781 " fill-opacity="1" fill-rule="nonzero"/><path fill="#0b2972" d="M 96.054688 133.121094 C 95.972656 133.121094 95.890625 133.109375 95.8125 133.089844 C 95.359375 132.960938 95.101562 132.5 95.234375 132.066406 C 96.390625 128.28125 98.042969 124.550781 100.144531 120.976562 C 100.375 120.578125 100.898438 120.441406 101.308594 120.664062 C 101.71875 120.886719 101.863281 121.390625 101.628906 121.785156 C 99.59375 125.25 97.992188 128.867188 96.871094 132.53125 C 96.761719 132.890625 96.421875 133.121094 96.054688 133.121094 Z M 96.054688 133.121094 " fill-opacity="1" fill-rule="nonzero"/><path fill="#0b2972" d="M 102.847656 119.109375 C 102.6875 119.109375 102.523438 119.066406 102.378906 118.972656 C 101.988281 118.722656 101.878906 118.214844 102.136719 117.835938 C 104.464844 114.429688 106.328125 112.527344 106.40625 112.445312 C 106.730469 112.117188 107.269531 112.105469 107.613281 112.417969 C 107.953125 112.730469 107.96875 113.25 107.644531 113.582031 C 107.625 113.597656 105.796875 115.464844 103.5625 118.738281 C 103.398438 118.980469 103.125 119.109375 102.847656 119.109375 Z M 102.847656 119.109375 " fill-opacity="1" fill-rule="nonzero"/><path fill="#ffb20c" d="M 190.742188 205.597656 L 177.640625 205.597656 C 177.171875 205.597656 176.789062 205.230469 176.789062 204.773438 C 176.789062 204.320312 177.171875 203.953125 177.640625 203.953125 L 190.742188 203.953125 C 191.214844 203.953125 191.597656 204.320312 191.597656 204.773438 C 191.597656 205.230469 191.214844 205.597656 190.742188 205.597656 Z M 190.742188 205.597656 " fill-opacity="1" fill-rule="nonzero"/><path fill="#ffb20c" d="M 190.742188 209.976562 L 177.640625 209.976562 C 177.171875 209.976562 176.789062 209.609375 176.789062 209.15625 C 176.789062 208.699219 177.171875 208.332031 177.640625 208.332031 L 190.742188 208.332031 C 191.214844 208.332031 191.597656 208.699219 191.597656 209.15625 C 191.597656 209.609375 191.214844 209.976562 190.742188 209.976562 Z M 190.742188 209.976562 " fill-opacity="1" fill-rule="nonzero"/><path fill="#ffb20c" d="M 190.742188 214.359375 L 177.640625 214.359375 C 177.171875 214.359375 176.789062 213.988281 176.789062 213.535156 C 176.789062 213.082031 177.171875 212.710938 177.640625 212.710938 L 190.742188 212.710938 C 191.214844 212.710938 191.597656 213.082031 191.597656 213.535156 C 191.597656 213.988281 191.214844 214.359375 190.742188 214.359375 Z M 190.742188 214.359375 " fill-opacity="1" fill-rule="nonzero"/><path fill="#0b2972" d="M 209.460938 162.652344 C 205.253906 162.652344 201.832031 159.355469 201.832031 155.300781 C 201.832031 151.242188 205.253906 147.945312 209.460938 147.945312 C 213.667969 147.945312 217.089844 151.242188 217.089844 155.300781 C 217.089844 159.355469 213.667969 162.652344 209.460938 162.652344 Z M 209.460938 149.589844 C 206.195312 149.589844 203.539062 152.152344 203.539062 155.300781 C 203.539062 158.445312 206.195312 161.007812 209.460938 161.007812 C 212.726562 161.007812 215.382812 158.445312 215.382812 155.300781 C 215.382812 152.152344 212.726562 149.589844 209.460938 149.589844 Z M 209.460938 149.589844 " fill-opacity="1" fill-rule="nonzero"/><path fill="#ffb20c" d="M 88.421875 194.253906 C 88.203125 194.253906 87.984375 194.171875 87.820312 194.011719 C 87.484375 193.691406 87.484375 193.167969 87.820312 192.847656 L 91.996094 188.820312 C 92.503906 188.332031 93.324219 188.332031 93.832031 188.820312 L 97.289062 192.152344 L 101.253906 188.328125 C 101.746094 187.855469 102.597656 187.855469 103.089844 188.328125 L 107.054688 192.152344 L 111.191406 188.167969 C 111.679688 187.695312 112.535156 187.691406 113.027344 188.167969 L 116.992188 191.992188 L 120.847656 188.277344 C 121.179688 187.953125 121.722656 187.953125 122.054688 188.277344 C 122.386719 188.597656 122.386719 189.117188 122.054688 189.4375 L 117.910156 193.433594 C 117.40625 193.921875 116.582031 193.921875 116.078125 193.433594 L 112.109375 189.609375 L 107.972656 193.59375 C 107.730469 193.832031 107.402344 193.960938 107.058594 193.960938 C 107.058594 193.960938 107.054688 193.960938 107.054688 193.960938 C 106.710938 193.960938 106.382812 193.832031 106.140625 193.59375 L 102.171875 189.773438 L 98.207031 193.59375 C 97.960938 193.832031 97.632812 193.960938 97.289062 193.960938 C 96.941406 193.960938 96.613281 193.832031 96.371094 193.59375 L 92.914062 190.265625 L 89.027344 194.011719 C 88.859375 194.171875 88.640625 194.253906 88.421875 194.253906 Z M 88.421875 194.253906 " fill-opacity="1" fill-rule="nonzero"/><path fill="#0b2972" d="M 112.445312 205.191406 C 111.070312 205.191406 109.957031 204.03125 109.957031 202.605469 C 109.957031 201.179688 111.070312 200.019531 112.445312 200.019531 C 113.816406 200.019531 114.929688 201.179688 114.929688 202.605469 C 114.929688 204.03125 113.816406 205.191406 112.445312 205.191406 Z M 112.445312 201.1875 C 111.691406 201.1875 111.078125 201.824219 111.078125 202.605469 C 111.078125 203.390625 111.691406 204.027344 112.445312 204.027344 C 113.195312 204.027344 113.808594 203.390625 113.808594 202.605469 C 113.808594 201.824219 113.195312 201.1875 112.445312 201.1875 Z M 112.445312 201.1875 " fill-opacity="1" fill-rule="nonzero"/><path fill="#0b2972" d="M 190.355469 185.550781 C 189.886719 185.550781 189.503906 185.183594 189.503906 184.726562 L 189.503906 179.816406 C 189.503906 179.363281 189.886719 178.996094 190.355469 178.996094 C 190.828125 178.996094 191.210938 179.363281 191.210938 179.816406 L 191.210938 184.726562 C 191.210938 185.183594 190.828125 185.550781 190.355469 185.550781 Z M 190.355469 185.550781 " fill-opacity="1" fill-rule="nonzero"/><path fill="#0b2972" d="M 190.355469 194.308594 C 189.886719 194.308594 189.503906 193.941406 189.503906 193.488281 L 189.503906 188.578125 C 189.503906 188.121094 189.886719 187.753906 190.355469 187.753906 C 190.828125 187.753906 191.210938 188.121094 191.210938 188.578125 L 191.210938 193.488281 C 191.210938 193.941406 190.828125 194.308594 190.355469 194.308594 Z M 190.355469 194.308594 " fill-opacity="1" fill-rule="nonzero"/><path fill="#0b2972" d="M 197.445312 187.476562 L 192.355469 187.476562 C 191.882812 187.476562 191.5 187.105469 191.5 186.652344 C 191.5 186.199219 191.882812 185.828125 192.355469 185.828125 L 197.445312 185.828125 C 197.917969 185.828125 198.300781 186.199219 198.300781 186.652344 C 198.300781 187.105469 197.917969 187.476562 197.445312 187.476562 Z M 197.445312 187.476562 " fill-opacity="1" fill-rule="nonzero"/><path fill="#0b2972" d="M 188.359375 187.476562 L 183.265625 187.476562 C 182.796875 187.476562 182.414062 187.105469 182.414062 186.652344 C 182.414062 186.199219 182.796875 185.828125 183.265625 185.828125 L 188.359375 185.828125 C 188.832031 185.828125 189.214844 186.199219 189.214844 186.652344 C 189.214844 187.105469 188.832031 187.476562 188.359375 187.476562 Z M 188.359375 187.476562 " fill-opacity="1" fill-rule="nonzero"/></svg>