<?xml version="1.0" encoding="utf-8"?>
<!-- Generator: Adobe Illustrator 28.1.0, SVG Export Plug-In . SVG Version: 6.00 Build 0)  -->
<svg version="1.1" id="Layer_1" xmlns="http://www.w3.org/2000/svg" xmlns:xlink="http://www.w3.org/1999/xlink" x="0px" y="0px"
	 viewBox="0 0 24 24" style="enable-background:new 0 0 24 24;" xml:space="preserve">
<style type="text/css">
	.st0{fill:#4231C8;}
	.st1{fill:#B4B4FC;}
</style>
<path class="st0" d="M20.1,5.1l-6-3.4c-0.6-0.3-1.3-0.5-2.1-0.5c-0.7,0-1.5,0.2-2.1,0.5l-6,3.4C2.9,5.8,2,7.3,2,8.6v6.8
	c0,1.4,0.9,2.9,2.1,3.6l6,3.4c0.6,0.3,1.3,0.5,2.1,0.5c0.7,0,1.5-0.2,2.1-0.5l6-3.4c1.2-0.7,2.1-2.2,2.1-3.6V8.6
	C22.2,7.3,21.3,5.8,20.1,5.1z"/>
<path class="st1" d="M7,15.7l-1-1l3.9-3.9c0.2-0.2,0.6-0.3,0.9-0.1l3.4,2l3.5-3.5l1,1l-3.9,3.9c-0.2,0.2-0.6,0.3-0.9,0.1l-3.4-2
	L7,15.7z"/>
</svg>
