<?xml version="1.0" encoding="utf-8"?>
<!-- Generator: Adobe Illustrator 28.1.0, SVG Export Plug-In . SVG Version: 6.00 Build 0)  -->
<svg version="1.1" id="Layer_1" xmlns="http://www.w3.org/2000/svg" xmlns:xlink="http://www.w3.org/1999/xlink" x="0px" y="0px"
	 viewBox="0 0 24 24" style="enable-background:new 0 0 24 24;" xml:space="preserve">
<style type="text/css">
	.st0{fill:#8282F8;}
	.st1{fill:#DCDCFF;}
</style>
<path class="st0" d="M20,7.3l-6-4.6C13.4,2.2,12.7,2,12,2l0,0c-0.7,0-1.4,0.2-2,0.7L3.4,7.8C2.9,8.1,2.7,8.6,2.7,9.1v9.4
	c0,1.8,1.5,3.3,3.3,3.3h12.1c1.8,0,3.3-1.5,3.3-3.3V9.9C21.3,8.9,20.9,7.9,20,7.3z"/>
<path class="st1" d="M15.1,10.7l-2.6-1.5c-0.3-0.2-0.8-0.2-1,0l-2.6,1.5c-0.3,0.2-0.5,0.6-0.5,0.9v2.9c0,0.3,0.2,0.7,0.5,0.9
	l2.6,1.5c0.3,0.2,0.8,0.2,1,0l2.6-1.5c0.3-0.2,0.5-0.6,0.5-0.9v-2.9C15.6,11.3,15.4,10.9,15.1,10.7z"/>
</svg>
