<svg width="56" height="56" viewBox="0 0 56 56" fill="none" xmlns="http://www.w3.org/2000/svg">
<rect width="56" height="56" fill="#008080" fill-opacity="0.3"/>
<g clip-path="url(#clip0_52_22)">
<path d="M25.6667 31.3333C25.6667 31.9198 25.1907 32.3958 24.6042 32.3958C24.0177 32.3958 23.5417 31.9198 23.5417 31.3333C23.5417 30.7468 24.0177 30.2708 24.6042 30.2708C25.1907 30.2708 25.6667 30.7468 25.6667 31.3333ZM24.6042 23.1875C24.0177 23.1875 23.5417 23.6635 23.5417 24.25C23.5417 24.8365 24.0177 25.3125 24.6042 25.3125C25.1907 25.3125 25.6667 24.8365 25.6667 24.25C25.6667 23.6635 25.1907 23.1875 24.6042 23.1875ZM24.6042 26.7292C24.0177 26.7292 23.5417 27.2052 23.5417 27.7917C23.5417 28.3782 24.0177 28.8542 24.6042 28.8542C25.1907 28.8542 25.6667 28.3782 25.6667 27.7917C25.6667 27.2052 25.1907 26.7292 24.6042 26.7292ZM33.4583 20H23.5417C21.5888 20 20 21.5888 20 23.5417V32.75C20 34.7029 21.5888 36.2917 23.5417 36.2917H25.6667C26.0577 36.2917 26.375 35.975 26.375 35.5833C26.375 35.1916 26.0577 34.875 25.6667 34.875H23.5417C22.3701 34.875 21.4167 33.9216 21.4167 32.75V23.5417C21.4167 22.3701 22.3701 21.4167 23.5417 21.4167H33.4583C34.6299 21.4167 35.5833 22.3701 35.5833 23.5417V29.9167C35.5833 30.3084 35.9007 30.625 36.2917 30.625C36.6827 30.625 37 30.3084 37 29.9167V23.5417C37 21.5888 35.4112 20 33.4583 20ZM27.7917 24.9583H32.75C33.141 24.9583 33.4583 24.641 33.4583 24.25C33.4583 23.859 33.141 23.5417 32.75 23.5417H27.7917C27.4007 23.5417 27.0833 23.859 27.0833 24.25C27.0833 24.641 27.4007 24.9583 27.7917 24.9583ZM27.7917 28.5H32.75C33.141 28.5 33.4583 28.1827 33.4583 27.7917C33.4583 27.4007 33.141 27.0833 32.75 27.0833H27.7917C27.4007 27.0833 27.0833 27.4007 27.0833 27.7917C27.0833 28.1827 27.4007 28.5 27.7917 28.5ZM36.791 33.1389C37.068 33.5483 37.068 34.0767 36.791 34.4861C36.1564 35.4247 34.6951 37 32.0417 37C29.3882 37 27.927 35.4247 27.2916 34.4861C27.0146 34.076 27.0146 33.5476 27.2916 33.1389C27.9262 32.2003 29.3868 30.625 32.041 30.625C34.6951 30.625 36.1564 32.2003 36.791 33.1389ZM35.5337 33.8125C35.0167 33.0999 33.9308 32.0417 32.0417 32.0417C30.1525 32.0417 29.066 33.1006 28.5496 33.8125C29.066 34.5251 30.1525 35.5833 32.0417 35.5833C33.9308 35.5833 35.0167 34.5251 35.5337 33.8125ZM32.0417 32.75C31.4552 32.75 30.9792 33.226 30.9792 33.8125C30.9792 34.399 31.4552 34.875 32.0417 34.875C32.6282 34.875 33.1042 34.399 33.1042 33.8125C33.1042 33.226 32.6282 32.75 32.0417 32.75Z" fill="#008080"/>
</g>
<defs>
<clipPath id="clip0_52_22">
<rect width="17" height="17" fill="white" transform="translate(20 20)"/>
</clipPath>
</defs>
</svg>
