<svg width="24" height="24" viewBox="0 0 24 24" fill="none" xmlns="http://www.w3.org/2000/svg">
<g clip-path="url(#clip0_79_28)">
<path d="M1 2.15442C1 1.39503 1.61561 0.779419 2.375 0.779419H21.625C22.3844 0.779419 23 1.39503 23 2.15442V21.9685C23 22.7279 22.3844 23.3435 21.625 23.3435H2.375C1.61561 23.3435 1 22.7279 1 21.9685V2.15442Z" stroke="#B6B6B6" stroke-width="1.5"/>
<path d="M11.9866 18C13.4621 18 14.6582 15.3136 14.6582 12C14.6582 8.68631 13.4621 6 11.9866 6C10.5112 6 9.31506 8.68631 9.31506 12C9.31506 15.3136 10.5112 18 11.9866 18Z" stroke="#B6B6B6"/>
<path d="M12.0573 18C14.7683 18 16.966 15.3136 16.966 12C16.966 8.68631 14.7683 6 12.0573 6C9.3463 6 7.14856 8.68631 7.14856 12C7.14856 15.3136 9.3463 18 12.0573 18Z" stroke="#B6B6B6"/>
<path d="M7.14856 6H16.966" stroke="#B6B6B6"/>
<path d="M12.0574 6V18" stroke="#B6B6B6"/>
<path d="M6.08644 12.4595L8.63097 11.2178" stroke="#B6B6B6"/>
<path d="M8.06581 12.4595L10.6103 11.2178" stroke="#B6B6B6"/>
<path d="M10.6694 12.4613L13.2818 11.2177" stroke="#B6B6B6"/>
<path d="M13.3409 12.4613L15.9534 11.2177" stroke="#B6B6B6"/>
<path d="M15.369 12.4613L17.9814 11.2177" stroke="#B6B6B6"/>
</g>
<defs>
<clipPath id="clip0_79_28">
<rect width="24" height="24" fill="white"/>
</clipPath>
</defs>
</svg>
