<svg width="20" height="50" viewBox="0 0 20 50" fill="none" xmlns="http://www.w3.org/2000/svg">
<g clip-path="url(#clip0_55_69)">
<g clip-path="url(#clip1_55_69)">
<path d="M15.75 15.0002H4.25C3.13419 14.9902 2.06 15.4233 1.2632 16.2045C0.466401 16.9856 0.012096 18.051 0 19.1668L0 21.6668C0 21.8878 0.0877974 22.0998 0.244078 22.2561C0.400358 22.4124 0.61232 22.5002 0.833333 22.5002C1.05435 22.5002 1.26631 22.4124 1.42259 22.2561C1.57887 22.0998 1.66667 21.8878 1.66667 21.6668V19.1668C1.67851 18.493 1.95713 17.8514 2.44143 17.3827C2.92572 16.914 3.57614 16.6566 4.25 16.6668H15.75C16.4239 16.6566 17.0743 16.914 17.5586 17.3827C18.0429 17.8514 18.3215 18.493 18.3333 19.1668V30.8335C18.3215 31.5073 18.0429 32.149 17.5586 32.6176C17.0743 33.0863 16.4239 33.3438 15.75 33.3335H4.25C3.57614 33.3438 2.92572 33.0863 2.44143 32.6176C1.95713 32.149 1.67851 31.5073 1.66667 30.8335V28.3335C1.66667 28.1125 1.57887 27.9005 1.42259 27.7442C1.26631 27.588 1.05435 27.5002 0.833333 27.5002C0.61232 27.5002 0.400358 27.588 0.244078 27.7442C0.0877974 27.9005 0 28.1125 0 28.3335L0 30.8335C0.012096 31.9493 0.466401 33.0147 1.2632 33.7959C2.06 34.577 3.13419 35.0102 4.25 35.0002H15.75C16.8658 35.0102 17.94 34.577 18.7368 33.7959C19.5336 33.0147 19.9879 31.9493 20 30.8335V19.1668C19.9879 18.051 19.5336 16.9856 18.7368 16.2045C17.94 15.4233 16.8658 14.9902 15.75 15.0002Z" fill="#F76A89"/>
<path d="M2.5 25C2.5 25.221 2.5878 25.433 2.74408 25.5893C2.90036 25.7455 3.11232 25.8333 3.33333 25.8333L14.3233 25.8083L10.7208 29.4108C10.6412 29.4877 10.5778 29.5797 10.5341 29.6813C10.4904 29.783 10.4674 29.8924 10.4665 30.003C10.4655 30.1137 10.4866 30.2234 10.5285 30.3258C10.5704 30.4282 10.6323 30.5213 10.7105 30.5995C10.7887 30.6777 10.8818 30.7396 10.9842 30.7815C11.0866 30.8234 11.1964 30.8445 11.307 30.8435C11.4176 30.8426 11.527 30.8196 11.6287 30.7759C11.7303 30.7322 11.8223 30.6688 11.8992 30.5892L15.7208 26.7675C16.1895 26.2987 16.4528 25.6629 16.4528 25C16.4528 24.3371 16.1895 23.7013 15.7208 23.2325L11.9008 19.4108C11.7437 19.259 11.5332 19.175 11.3147 19.1769C11.0962 19.1788 10.8872 19.2665 10.7327 19.421C10.5781 19.5755 10.4905 19.7845 10.4886 20.003C10.4867 20.2215 10.5707 20.432 10.7225 20.5892L14.2742 24.1417L3.33333 24.1667C3.11232 24.1667 2.90036 24.2545 2.74408 24.4107C2.5878 24.567 2.5 24.779 2.5 25Z" fill="#F76A89"/>
</g>
</g>
<defs>
<clipPath id="clip0_55_69">
<rect width="20" height="50" fill="white"/>
</clipPath>
<clipPath id="clip1_55_69">
<rect width="20" height="20" fill="white" transform="translate(0 15)"/>
</clipPath>
</defs>
</svg>
