<?xml version="1.0" encoding="UTF-8"?>
<svg id="Layer_1" data-name="Layer 1" xmlns="http://www.w3.org/2000/svg" viewBox="0 0 414 200">
  <defs>
    <style>
      .cls-1 {
        fill: #f7b7d3;
      }

      .cls-2 {
        fill: #f9ae3f;
      }

      .cls-3 {
        fill: #00bff3;
      }

      .cls-4 {
        fill: #686156;
      }

      .cls-5 {
        fill: #fff9b8;
      }

      .cls-6 {
        fill: #fff200;
      }

      .cls-7 {
        fill: #9ed2f1;
      }

      .cls-8 {
        fill: #b3cdb7;
      }

      .cls-9 {
        fill: #baac97;
      }

      .cls-10 {
        fill: #332e2c;
      }

      .cls-11 {
        fill: #cac7c1;
      }

      .cls-12 {
        fill: #454039;
      }

      .cls-13 {
        fill: #494541;
      }
    </style>
  </defs>
  <path class="cls-5" d="M311.99,21.62c3.09,.06,2.31,2.77,3.04,4.45-2.41,1.87-5.3,2.88-7.91,4.39-10.23,5.94-20.37,12.02-30.71,17.76-11.93,6.62-23.54,13.8-35.47,20.42-7.96,4.42-15.78,9.07-23.68,13.61-.62,.35-1.33,1.17-2.03,.46-1.45-1.47-2.87-3.01-3.75-4.93,.55-.24,1.13-.43,1.64-.72,11.13-6.34,22.03-13.08,33.26-19.26,10.96-6.03,21.58-12.65,32.51-18.73,10.13-5.64,20.07-11.63,30.09-17.46,1,0,2.01,0,3.01,.01Z"/>
  <path class="cls-13" d="M211.47,77.77c.88,1.92,2.3,3.46,3.75,4.93,.7,.71,1.41-.11,2.03-.46,7.9-4.53,15.72-9.19,23.68-13.61,11.93-6.62,23.54-13.8,35.47-20.42,10.34-5.74,20.49-11.82,30.71-17.76,2.61-1.52,5.5-2.52,7.91-4.39,.47-.11,1.03-.57,1.26,.3,.22,.8-.5,.79-.92,1.02-5.79,3.29-11.59,6.56-17.36,9.88-6.3,3.64-12.48,7.5-18.87,10.97-11.19,6.07-21.94,12.88-33.09,19-6.85,3.76-13.49,7.85-20.32,11.61-1.36,.75-1.85,1.61-1.48,3.05-.28,.15-.56,.31-.84,.46-.42-1.36-1.08-1.84-2.39-.85-.77,.59-1.65,1.08-2.54,1.45-1.49,.61-1.4,1.54-.72,2.68,.8,1.36,1.89,2.64,2.33,4.1,.68,2.28,1.94,2.81,4.01,2.12,.45,.2,.59,.6,.63,1.05-3.74,.8-7.36,.26-10.9-1.03-.85-.31-1.8-.9-2.45,.11-.59,.92-.59,2.11-.02,3.03,.55,.87,1.42,1.54,2.15,2.29-.23,.23-.47,.46-.7,.69-1.47-.87-1.63,.53-2.17,1.25-.7-.08-1.33-.35-1.89-.78,1.64-.05,1.89-1.49,1.6-2.39-.55-1.74-.85-3.31,.02-5,.26-.5-.28-.76-.65-1.03-.6-.44-1.19-.91-1.78-1.36,.21-.24,.43-.48,.64-.72,2.87,1.71,5.9,3.04,9.18,3.74,.51,.11,1.14,.42,1.52,0,.49-.54-.07-1.14-.31-1.64-1.69-3.46-4.24-6.3-6.94-8.96-2.79-2.74-2.64-5.35,.7-7.16,1.27-.69,2.48-1.47,3.76-2.13,1.15-.59,1.1-1.08,.27-2.02-3.74-4.21-10.71-3.24-13.06,1.93-1.77,3.9-.97,7.71,.68,11.44-.31,.08-.63,.15-.94,.23-.59-.73-1.22-.26-1.85-.06-.26-.05-.52-.09-.78-.14,.43-.57,1.49-.52,1.5-1.89-4.02,2.15-7.81,4.3-11.41,6.81-1.15,.68-2.3,1.37-3.45,2.05-.81,.17-1.48,.59-2.03,1.2-2.86,1.25-5.24,3.22-7.66,5.12-.15,.06-.3,.13-.44,.19-.22-.25-.44-.51-.66-.76,2.7-2.7,6.02-4.52,9.3-6.34,1.53-.85,1.8-1.46,.83-3.08-2.73-4.54-4.89-9.4-7.21-14.16-8.63-17.66-12.7-36.64-16.42-55.73-.38-1.93-.67-3.88-1.02-5.82-.14-.79-.35-1.59,.95-1.4,.33,1.71,.66,3.43,.98,5.14,3.51,18.62,7.34,37.14,15.46,54.46,2.22,4.73,4.28,9.54,6.78,14.14,2.56,4.73,2.51,4.68,7.15,2.09,1.51-.84,1.86-1.47,.84-3.08-7.53-11.94-11.91-25.28-16.55-38.46-2.44-6.93-4-14.16-5.46-21.37-.87-4.29-2.15-8.52-2.22-12.95,1.83,.42,1,2.12,1.52,3.16-.12,.36-.1,.69,.24,.94,.09,.44,.17,.89,.26,1.33-.03,.07-.09,.15-.07,.2,.05,.13,.14,.24,.21,.36,1.34,8.18,3.02,16.32,5.64,24.14,4.25,12.7,8.14,25.59,14.79,37.35,.97,1.72,2.03,3.38,2.94,5.12,.55,1.04,1.1,1.31,2.11,.6,.87-.61,1.78-1.17,2.74-1.62,1.17-.55,1.34-1.29,1.18-2.55-.88-6.69,2.09-11.09,8.16-12.39,3.16-.68,5.75,.35,7.69,2.76,1.13,1.41,1.95,1.32,3.37,.46,7.28-4.37,14.55-8.79,21.99-12.87,11.1-6.07,21.81-12.81,32.88-18.93,11.08-6.12,21.91-12.67,32.89-18.96,.83-.48,1.61-1.21,2.72-.92,.4,1.09-.88,.85-1.13,1.43-.74,.52-2,.4-2.08,1.72h.02c-.66-.47-1.04-.08-1.38,.45h0c-.93,.17-1.79,.46-2.28,1.37h0c-.89,.08-1.71,.26-1.83,1.37h.01c-1.61-.18-2.64,.79-3.65,1.82h-.01c-1.15,.26-2.26,.57-2.74,1.83h.01c-1.12-.15-1.99,.12-2.29,1.36h0c-.66-.45-1.04-.08-1.36,.45h-.01c-.94,.15-1.75,.53-2.27,1.37h0c-.42-.08-.75,.03-.92,.46h0c-.47,.14-1.17,.04-.92,.9h0c-1.62-.2-2.61,.85-3.64,1.83h0c-2.79,1.17-5.45,2.55-7.75,4.56h0c-1.31-.35-2.02,.51-2.72,1.36l-.02,.02c-.35-.05-.68-.09-.45,.45h0c-1.94,.22-3.51,1.05-4.56,2.74h0c-1.66-.33-2.71,.94-3.88,1.66-1.94,1.19-4.3,1.8-5.7,3.81h0c-.37-.32-.71-.07-1.02,.1-5.04,2.68-9.73,5.97-14.88,8.45-.09,.04-.04,.38-.05,.58,0,0,0,0,0,0-.77-.54-1.28,.16-1.8,.46-7.2,4.17-14.38,8.37-21.55,12.58-.39,.23-1.09,.33-.81,1.1h0c-1.22-.16-1.94,.69-2.74,1.37h0c-.91,.2-1.75,.53-2.29,1.36h0c-.3,0-.59,.01-.46,.46h0c-.73-.1-1.4-.1-1.37,.92h.02c-.54-.2-.97-.06-1.31,.4-.02,.47-.04,.94-.06,1.41Z"/>
  <path class="cls-13" d="M205.55,174.93c0,.3,0,.61,0,.91-3.48,.4-6.67-.18-9.06-3-.83-.97-1.61-.42-2.14,.07-.88,.81,.25,1.17,.66,1.49,1.13,.88,2.32,1.71,3.58,2.39,7.19,3.84,14.69,3.6,22.31,1.58,.29,.29,.58,.58,.87,.87-6.35,2.14-12.76,2.35-19.22,.56-1.15-.32-2.16-.31-3.3,.09-8.36,2.92-16.81,4.69-25.57,1.63-.6-.21-1.38-.14-2.01,.04-7.91,2.25-15.59,1.75-22.96-2.01-1.72-.88-3.25-.07-4.82,.25-5.74,1.19-11.65,2.74-17.3,.86-5.23-1.73-10.16-1.17-15.28-.4-3.49,.53-6.96-.11-10.44-.31-.96-.06-.79-.7-1.01-1.18,.81-.46,1.65-.18,2.45-.03,2.18,.4,4.38,.56,6.58,.42,3.1-.19,6.23-.26,9.45-1.4-1.49-1.19-2.89-2.04-3.92-3.22-1.39-1.59-2.85-1.69-4.69-1.09-2.61,.85-5.34,1.15-8.08,1.27-.52,.02-1.42,.31-1.44-.59-.02-.75,.78-.53,1.26-.55,2.59-.13,5.12-.63,7.64-1.2,5.69-1.27,11.17-3.17,16.82-5.18-1.69-2.29-3.97-2.83-6.3-3.1-5.07-.6-9.94,.56-14.82,1.79-1.65,.41-3.11,1.66-4.97,1.19,0-.51,.01-1.03,.02-1.54,3.52,.03,6.65-1.62,10.56-2.21-3.54-1.89-6.7-3-10.18-2.96-.24-.59-.22-1.09,.51-1.3,.44,.04,.87,.09,1.31,.13,1.22,.22,2.44,.43,3.66,.65,.23,.32,.53,.49,.93,.41,1.25,.54,2.57,.95,3.74,1.63,2.74,1.61,5.27,1.31,7.82-.41,5.51-3.73,13.7-3.44,19.51,.64,2.91,2.04,4.17,1.97,7.32,.14,5.88-3.42,11.84-3.1,17.78-.1,1.98,1,3.82,2.65,6.31,1.63,1.95-.8,3.76-1.94,5.89-2.33,4.99-.92,9.77-.58,14.14,2.26,1.82,1.18,3.91,1.01,5.4,.08,5.45-3.41,10.99-3.18,16.75-1.2,1.36,.47,2.75,1.11,4.26,.47,.91,0,.71,1.12,1.38,1.35-4.83,1.13-9.71,2.11-14.13,4.52-1.58,.33-2.91,1.25-4.39,1.82-1.66,.64-1.19,1.39-.18,2.2,2.15,1.72,4.71,1.91,7.31,1.96Zm-88.11-3.61c2.04,1.98,4.04,2.75,6.24,3.12,4.71,.8,9.21-.33,13.64-1.62,5.03-1.46,9.98-3.17,15.23-4.85-1.97-2.07-4.03-2.81-6.36-3.02-10.12-.89-19.03,3.51-28.75,6.37Zm61.77-3.71c-3.53-2.45-7.2-2.85-11.07-2.42-6.69,.75-12.94,3.08-19.21,5.31-.88,.31-2.38,.3-2.45,1.19-.08,1.13,1.28,1.75,2.24,2.33,.77,.47,1.63,.74,2.53,.93,2.74,.58,5.44,.27,8.11-.3,6.83-1.45,13.1-4.47,19.84-7.04Zm-9.5,5.09c1.66,1.94,3.57,2.55,5.63,2.82,10.05,1.34,18.19-3.66,26.87-7.94-2.73-2-5.55-2.25-8.45-2.08-8.48,.48-16.01,4.12-24.05,7.2Zm29.07,5.74c-.18-.15-.33-.34-.53-.43-2.22-1.02-3.83-3.61-6.02-3.83-2.28-.23-4.68,1.53-7.12,1.96-5.67,.98-11.41,2.13-16.33-2.48-1.02-.96-2.55,.04-3.23,.75-.71,.74,.7,1.25,1.25,1.72,9.04,7.7,22.38,6.75,31.98,2.31Zm-53.39-.31c-1.64-1.51-2.98-2.63-4.18-3.87-.73-.75-1.34-.92-2.38-.63-2.7,.77-5.42,1.54-8.18,1.95-4.83,.72-9.6,.58-13.56-2.88-.79-.69-1.64-1.21-2.34-.41-.85,.97,.47,1.36,.97,1.8,8.91,7.89,19.06,6.59,29.67,4.04Zm-3.62-5.21c6.54,7.72,20.73,10.85,29.06,7.33-2-1.11-3.94-2.19-5.47-3.77-1.26-1.31-2.45-1.48-4.22-1.03-5.39,1.36-10.9,2.14-15.43-2.13-1.43-1.35-2.41-1.41-3.95-.4Zm-3.95-8.86c-4.78-4.62-14.43-5.37-18.58-1.29,2.97,.44,5.74,1.1,7.66,3.52,.4,.5,.9,.39,1.44,.21,3.01-.98,6.07-1.78,9.48-2.45Zm26.07,.48c-4.29-3.92-14.18-4.72-17.59-1.09,1.57,.55,3.57,.66,4.61,1.71,2.61,2.67,5.16,1.77,7.96,.74,1.53-.57,3.17-.87,5.03-1.36Zm8.9-.67c2.89,.48,5.31,1.22,7.43,2.77,.38,.28,.83,.33,1.3,.19,2.15-.63,4.3-1.26,6.54-1.91-3.16-3-11.21-3.61-15.27-1.05Zm24.28-.05c4.76,2.96,9.44,3.7,14.21,.05-4.83-1.73-9.5-2.17-14.21-.05Z"/>
  <path class="cls-7" d="M170.03,9.38c.07,4.43,1.36,8.66,2.22,12.95,1.46,7.21,3.02,14.44,5.46,21.37,4.64,13.19,9.02,26.52,16.55,38.46,1.02,1.61,.67,2.24-.84,3.08-4.63,2.59-4.59,2.64-7.15-2.09-2.49-4.6-4.55-9.41-6.78-14.14-8.13-17.32-11.95-35.84-15.46-54.46-.32-1.71-.65-3.43-.98-5.14,2.32-.89,4.65,.61,6.97-.03Z"/>
  <path class="cls-13" d="M261.22,179.77c.37-.31,.93-.46,.87-1.11,2.58-.85,5.34-1.22,7.77-2.85q-5.82-2.61-11.45-1.53c-.88,.17-1.8,.15-2.7,.22-.15-.29-.3-.57-.46-.86,.89-.17,1.78-.35,2.67-.52,4.61-.87,8.84-2.55,12.23-5.92,2.74-2.73,2.68-2.95-.76-4.11,.02-.33,.03-.67,.05-1,.88,.18,1.79,.31,2.65,.57,.58,.17,1.06,.25,1.36-.34,1.11-2.18,2.19-4.37,3.29-6.56-3.3,1.12-6.4,2.31-7.4,5.98h-1.33c1.25-4.34,4.66-6.27,8.53-7.64,1-.35,2.09-.44,1.63-1.95,.55-.02,1.17,.07,1.22-.76,2.07-.65,3.06-2.75,4.91-3.69,.09-.05,.16-.28,.14-.41-.49-2.42-1-4.84-1.56-7.54-.63,.88-1.02,1.43-1.41,1.98-.38-.02-.75-.04-1.13-.07,.39-1.16,1.04-2.18,1.88-3.03,.99-.99,.86-1.73-.15-2.58-1.28-1.08-2.21-2.45-2.99-3.92,.78-.99,1.2-.4,1.66,.34,.59,.93,1.09,1.96,2.38,2.58,.13-1.73,1.67-3.51,.66-4.75-1.55-1.9-3.43-3.63-5.33-5.33,.11,1.52,.46,2.89,.64,4.3,.04,.32,.55,1.94-.98,.91-1.4-2.16-1.41-4.61-1.58-7.05-.11-1.64-.58-3.22-1.73-4.5,.04-.47,.08-.93,.12-1.4-.39-1.22,.68-3.07-.81-3.65-1.97-.77-3.91-1.8-6.07-2.04v.05c-.05-.52-.22-.27-.38-.05-.35,.02-.7,.04-1.06,.06-.68-.6-.6-1.87-1.78-2.03,0-.53,.01-1.06,.02-1.59,4.96,3.53,11.09,4.19,16.44,6.77,1.2,.58,1.25-.31,1.27-1.1,.1-3.03-2.46-8.57-5.57-9.74-2.05-.77-4.18-1.25-6.21-2.02,0-.43-.01-.87-.02-1.3-.01-.28-.02-.57-.04-.85,.36-.02,.73-.03,1.09-.05,.18,1.48,1.39,1.59,2.47,1.85,5,1.21,7.88,4.51,9.18,9.35,.38,1.42,.32,2.86,.19,4.3-.05,.6,.14,1.11,.77,1.17,.61,.06,.67-.55,.73-.96,.38-2.71,.68-5.47-.02-8.14-1.99-7.58-8.03-10.29-14.79-12.06,.04-.77-.54-1.2-.94-1.72,4.76,1.31,9.43,2.81,13.03,6.46,1.69,1.71,3.1,3.66,3.6,5.97,.42,1.96,1.48,3.08,2.98,4.26,7.4,5.81,10.14,13.55,8.87,22.77-.15,1.07,.17,1.94,.46,2.86,1.92,6.19,1.74,12.38-.88,18.23-1.35,3.01-2.61,6.03-3.88,9.06-3.32,7.92-9.45,12.45-18.22,12.87-1.87,.09-3.53,.5-5.22,1.29-2.81,1.31-5.74,2.37-8.9,2.55Zm28.72-20.5c3.49-1.01,5.7-3.37,6.84-6.73,1.81-5.34,1.92-10.73,.4-16.34-2.66,2.65-4.36,5.31-2.97,8.94,.05,.14,.06,.3,.06,.45-.03,4.78-.36,9.46-4.41,12.86-.88,.35-1.97,.22-2.79,1.1,1.15,.5,2.03,.24,2.88-.29Zm.33-22.52c-1.36-1.52-2.56-2.87-3.76-4.21-.9-1-1.45-.86-1.74,.49-.69,3.24-.56,6.5-.09,9.73,.63,4.31,2.58,8.38,2.47,12.85-.02,.65-.46,1.67,.52,2,.97,.33,1.73-.31,2.37-1,.9-.95,1.53-2.07,1.95-3.3,1.5-4.4,1.43-8.78-.16-13.15-.57-1.56-1.96-3.12,.36-4.58,.53-.34,.67-1.51,.75-2.32,.36-3.75-.39-7.25-2.7-10.3-3.19-4.22-7.78-6.43-12.46-8.44-1.23-.53-2.11-.38-1.8,1.52,.92,5.7,4.62,9.52,8.62,13.11,1.7,1.52,3.32,3.09,4.87,4.75,.68,.73,1.26,1.53,.8,2.85Zm-22.57,33.95c5.39,1.74,11.5-.25,15.18-4.21,3.14-3.39,4.33-13.01,1.44-17.14-3.68,2.87-6.28,6.64-8.36,10.68-2.06,3.99-3.89,8.05-8.26,10.67Zm18.98-60.63c.23,2.21-.13,3.89-.43,5.58-.22,1.26,.12,2.03,1.18,2.86,6.67,5.19,8.14,10.86,5.02,18.91-.23,.6-.17,1.12,.28,1.42,.59,.41,.94-.2,1.26-.58,.94-1.11,1.69-2.34,2.14-3.72,1.29-3.96,.99-7.97-.02-11.88-1.35-5.23-4.49-9.26-9.42-12.59Zm6.64,49.37c-1.98,.61-3.55,1.16-5.16,1.55-1.05,.26-1.62,.65-1.96,1.81-.63,2.11-1.74,4.01-3.46,5.51-4.49,3.89-9.53,5.36-15.34,3.69-.65-.19-1.65-.54-1.88,.07-.42,1.09,.87,1.02,1.44,1.27,5.18,2.27,10.46,1.98,15.43-.3,5.67-2.6,9.59-6.93,10.94-13.6Z"/>
  <path class="cls-7" d="M99.84,167.07c1.86,.47,3.32-.77,4.97-1.19,4.87-1.23,9.74-2.39,14.82-1.79,2.33,.28,4.61,.81,6.3,3.1-5.65,2.01-11.13,3.92-16.82,5.18-2.52,.56-5.05,1.06-7.64,1.2-.48,.02-1.28-.19-1.26,.55,.03,.9,.92,.62,1.44,.59,2.74-.11,5.46-.42,8.08-1.27,1.84-.6,3.3-.5,4.69,1.09,1.03,1.18,2.43,2.02,3.92,3.22-3.22,1.14-6.35,1.2-9.45,1.4-2.2,.14-4.4-.02-6.58-.42-.8-.15-1.64-.43-2.45,.03,.15-1.33,.39-2.67-.56-3.86-.17-.21-.38-.65-.28-.78,1.56-2.22,.36-4.74,.83-7.07Z"/>
  <path class="cls-7" d="M220.6,176.78c-.25-1.16-1.54-1.31-2.09-2.17-.31-.48-1.46-.73-.65-1.56,.53-.55,1.34-.78,2.09-.28,.76,.5,1.42,1.14,2.21,1.58,3.61,2.04,7.41,1.79,11.25,.85,.37-.09,.74-.19,1.11-.24,2.48-.33,4.75-3.04,7.1-1.81,2.1,1.1,4.07,2.77,6.1,4.16-.35,1.18-1.57,.54-2.06,1.23-2.57,.49-5.14,.98-7.72,1.47-2.84-.04-5.69,.2-8.53-.16-.82-.11-1.49,.04-1.78,.93-1.37,.25-2.45-.26-3.35-1.25-.07-2.17-1.78-2.03-3.2-2.29v.02c.29-.6-.07-.56-.47-.48h.01Z"/>
  <path class="cls-12" d="M271.78,99.66c-.36,.02-.73,.03-1.09,.05-1.18-4.8-4.04-8.18-8.55-10.19-4.51-2.01-9.23-2.78-14.14-2.58-.15,0-.28,.02-.41,.1-.47,.26-.97,.3-1.49,.19-.15-.18-.29-.16-.42,.02-.7,.44-1.47,.59-2.29,.53l-.47-.88c3.57-1.34,7.24-1.35,10.95-.88,.36,.45,.8,.42,1.28,.23,.84,.02,1.66,.11,2.42,.49,.16,.04,.33,.09,.49,.13,.29,.09,.58,.18,.87,.27,.3,.07,.59,.14,.89,.21,3.84,.99,6.88,3.24,9.53,6.09,.41,.52,.98,.95,.94,1.72,.52,1.49,1.37,2.87,1.47,4.49Z"/>
  <path class="cls-7" d="M100.24,160.37c3.49-.04,6.64,1.07,10.18,2.96-3.91,.59-7.04,2.24-10.56,2.21,.04-1.73,.65-3.42,.38-5.17Z"/>
  <path class="cls-13" d="M242.93,86.89c.16,.29,.31,.59,.47,.88-1.42,.74-.64,1.21,.23,1.58,2.19,.95,4.08,2.3,5.6,4.15-.5,.24-.99,.48-1.49,.71-.43-1.56-1.83-2.09-3.02-2.84-2.96-1.85-6.25-2.98-9.53-4.09,0-.27,0-.53,0-.8,1.07-.32,2.06,.25,2.94,.58,1.71,.64,3.23,.63,4.8-.19Z"/>
  <path class="cls-12" d="M227.61,180.78c.29-.89,.96-1.04,1.78-.93,2.84,.36,5.69,.13,8.53,.16,0,.31,0,.61,0,.92-3.45,.89-6.88,.27-10.32-.15Z"/>
  <path class="cls-13" d="M237.92,180.93c0-.31,0-.61,0-.92,2.57-.49,5.14-.98,7.72-1.47,.37,.64,1.02,.49,1.59,.59-3.03,.99-6.12,1.64-9.31,1.8Z"/>
  <path class="cls-5" d="M308.11,20.75c.08-1.32,1.34-1.2,2.08-1.72,.1,.15,.2,.3,.31,.46-.02,.25-.31,.56,.07,.75,.56,.27,.96-.08,1.35-.42,1.11,.55,0,1.21,.08,1.8-1.01,0-2.01-.01-3.02-.01,.15-.47,1.11-.43,.77-1.23-.55,.13-1.09,.25-1.64,.38Z"/>
  <path class="cls-10" d="M221.05,177.23c1.43,.26,3.14,.13,3.2,2.29-.3-.06-.6-.12-.9-.18-.13-.66-.39-.93-.93-.29-.22,.07-.44,.13-.66,.2-.29-.29-.58-.58-.87-.87,.12-.37-.46-.84,.15-1.14Z"/>
  <path class="cls-5" d="M310.19,19.03c.25-.58,1.53-.34,1.13-1.43,1.38,.3,.4,1.17,.44,1.8-.42,.03-.84,.06-1.26,.09-.1-.15-.2-.3-.31-.46Z"/>
  <path class="cls-13" d="M175.15,99.28c-.34-.11-.67-.21-1.01-.32,.36-.89,.92-1.63,1.69-2.2,.06,.45,.12,.91,.18,1.36-.29,.38-.57,.77-.86,1.15Z"/>
  <path class="cls-13" d="M180.92,105.2c.77-.87,1.8-.38,2.72-.51-.88,.29-1.76,.62-2.72,.51Z"/>
  <path class="cls-12" d="M176.01,98.13c-.06-.45-.12-.91-.18-1.36,.1-.44,.39-.7,.81-.83,.22,.25,.44,.51,.66,.76-.43,.48-.86,.95-1.29,1.43Z"/>
  <path class="cls-4" d="M310.5,19.49c.42-.03,.84-.06,1.26-.09,.1,.12,.15,.26,.16,.41-.39,.34-.79,.7-1.35,.42-.38-.19-.08-.49-.07-.75Z"/>
  <path class="cls-13" d="M174.59,104.69c.64,.05,1.35-.18,1.8,.52-.7,.17-1.24-.2-1.8-.52Z"/>
  <path class="cls-13" d="M231.5,85.69c-.33,.39-.61,.32-.85-.1,.31-.17,.6-.17,.85,.1Z"/>
  <path class="cls-13" d="M222.43,179.05c.54-.64,.79-.36,.93,.29-.31-.1-.62-.2-.93-.29Z"/>
  <path class="cls-13" d="M255.16,86.25c-.47,.19-.92,.22-1.28-.23,.47-.16,.9-.12,1.28,.23Z"/>
  <path class="cls-11" d="M106.65,160.26c-.4,.08-.7-.09-.93-.41,.62-.57,.8-.13,.93,.41Z"/>
  <path class="cls-13" d="M247.5,179.03c.34-.51,.86-.43,1.35-.42-.45,.14-.9,.28-1.35,.42Z"/>
  <path class="cls-11" d="M102.06,159.2c-.44-.04-.87-.09-1.31-.13,.46-.22,.91-.26,1.31,.13Z"/>
  <path class="cls-13" d="M173.18,101.51c0,.33-.02,.66-.02,.99-.25-.34-.21-.66,.02-.99Z"/>
  <path class="cls-13" d="M259.84,87.36c-.3-.07-.59-.14-.89-.21,.3,.07,.59,.14,.89,.21Z"/>
  <path class="cls-13" d="M228.61,85.51c-.48,0-.96,0-1.44,0,.48-.3,.96-.26,1.44,0Z"/>
  <path class="cls-11" d="M171.79,13.49c-.33-.25-.36-.58-.24-.94,.32,.25,.35,.58,.24,.94Z"/>
  <path class="cls-13" d="M185.52,104.06c.17-.08,.35-.15,.52-.23-.17,.08-.35,.15-.52,.23Z"/>
  <path class="cls-11" d="M172.2,15.39c-.07-.12-.16-.23-.21-.36-.02-.05,.04-.13,.07-.2,.07,.12,.16,.23,.21,.36,.02,.05-.04,.13-.07,.2Z"/>
  <path class="cls-13" d="M224.38,82.29c-.1-.11-.14-.24-.13-.39,.07,.08,.14,.16,.19,.25,.02,.03-.04,.1-.06,.15Z"/>
  <path class="cls-13" d="M226.81,85.45c-.22-.01-.44-.03-.66-.04,.22,.01,.44,.03,.66,.04Z"/>
  <path class="cls-13" d="M258.08,86.88c-.16-.04-.33-.09-.49-.13,.16,.04,.33,.09,.49,.13Z"/>
  <path class="cls-13" d="M173.57,103.82c.17,.17,.33,.34,.5,.51-.17-.17-.33-.34-.5-.51Z"/>
  <path class="cls-2" d="M247.47,159.59c-1.65-3.04-1.81-6.4-2.47-9.7-1.12-5.58-2.67-11.13-4.67-16.52-2.11-5.7-3.95-11.49-3.45-17.71,.06-.73-.1-1.5,.57-2.37,1.8,2.31,3.49,4.58,5.28,6.76,7.66,9.34,9.37,20.19,8.14,31.81-.25,2.38-1.17,4.51-2.15,6.64-.42,.37-.84,.73-1.26,1.1Z"/>
  <path class="cls-2" d="M235.7,120.72c.68,5.53,2.65,10.62,4.43,15.76,.29,.85,.1,1.58-.27,2.39-2.35,5.1-4.29,10.34-5.42,15.87-.37,1.81-.52,3.6-.41,5.43,.03,.48,.46,1.12-.22,1.42-.63,.29-1.17-.1-1.61-.56-1.05-1.1-1.37-2.5-1.64-3.92-1.18-6.21-.51-12.43,.16-18.61,.62-5.73,1.83-11.37,4.03-16.74,.14-.34,.12-.76,.95-1.04Z"/>
  <path class="cls-7" d="M204.37,83.19c-1.65-3.73-2.46-7.54-.68-11.44,2.35-5.17,9.33-6.14,13.06-1.93,.83,.94,.88,1.43-.27,2.02-1.28,.66-2.5,1.44-3.76,2.13-3.34,1.81-3.49,4.42-.7,7.16,2.7,2.65,5.25,5.49,6.94,8.96,.25,.5,.8,1.1,.31,1.64-.37,.41-1,.1-1.52,0-3.28-.7-6.31-2.03-9.18-3.74-1.58-1.44-3.02-3.01-4.2-4.8Z"/>
  <path class="cls-2" d="M213.5,97.31c-.73-.76-1.6-1.42-2.15-2.29-.58-.92-.57-2.11,.02-3.03,.65-1.01,1.6-.42,2.45-.11,3.54,1.3,7.16,1.83,10.9,1.03,1.11,.02,2.23,.17,3.27-.37,.46,.19,.87,.09,1.26-.2,3.24,.12,6.53-.47,9.72,.56,.14,.05,.31,.02,.45,.08,1.37,.59,3.39,.88,3.56,2.38,.1,.93-2.01,1.19-3.15,1.7-5.39,2.4-10.91,4.02-16.94,3.27-3.35-.42-6.58-1.02-9.39-3.03Z"/>
  <path class="cls-2" d="M211.29,128.14c.25-1.51-.28-3.32,.6-3.53,1.28-.31,1.12,1.58,1.7,2.44,.55,.81,.76,1.94,1.45,2.55,3.97,3.53,4.22,8.42,5.13,13.13,1.3,6.76,2.65,13.54,6.83,19.29,.34,.46,.63,.9,.01,1.35-.86,.62-1.84,.49-2.57-.03-1.62-1.14-2.93-2.6-3.96-4.32-3.49-5.85-5.7-12.17-6.96-18.85-.78-4.14-1.54-8.28-2.24-12.03Z"/>
  <path class="cls-2" d="M228.86,143.18c-4.2-4.56-8.19-8.61-11.83-12.94-3.89-4.63-4.82-9.97-2.72-15.89,1.47,.69,1.94,2.15,2.84,3.18,3.8,4.32,7.5,8.71,10.74,13.49,1.53,2.26,2.27,4.53,1.72,7.23-.3,1.47-.46,2.97-.75,4.92Z"/>
  <path class="cls-7" d="M228.4,174.8c-2.43-.11-4.56-.57-6.41-1.9-.76-.55-1.38-1.11,.05-1.69,5.48-2.2,10.46-5.51,16.13-7.29,3.29-1.03,6.64-1.57,10.08-.87,.73,.15,1.49,.35,2.15,.69,.78,.4,1.97,.71,1.94,1.68-.03,.86-1.23,.95-1.94,1.31-5.33,2.67-10.67,5.3-16.39,7.08-1.9,.59-3.85,.76-5.6,.99Z"/>
  <path class="cls-2" d="M210.63,99.25c.55-.73,.7-2.12,2.17-1.25,4.08,2.43,6.5,6.45,9.36,10,3.12,3.88,4.21,8.49,3.77,13.44-.05,.6-.23,1.19-.42,1.76-.33,1.02-.71,1.44-1.64,.34-4.45-5.25-8.99-10.44-12.31-16.52-.6-1.1-.74-2.45-1.09-3.69-.01-.77-.02-1.53-.03-2.3l.19-1.8Z"/>
  <path class="cls-5" d="M176.01,98.13c.43-.48,.86-.95,1.29-1.43,.15-.06,.3-.13,.44-.19,.39,.18,.44,.52,.45,.89-.68,1.39-2.49,2.58-1.03,4.37,.97,1.19,3.99,.89,5.49-.38-.8-.71-1.56,.15-2.34,.04-.86-.12-2.03,.42-2.48-.57-.49-1.07,.67-1.57,1.22-2.33,1-1.38,2.99-1.91,3.28-3.86,0,0-.01,.01-.01,.01,2.25-.62,4.21-1.66,5.47-3.73-.11-.26-.23-.52-.34-.78,1.15-.68,2.3-1.37,3.45-2.05,.13,.09,.26,.18,.39,.27-.33,1.19-.26,1.31,.21,1.04,.68-.39,1.72-.46,1.78-1.58h-.02c1.6,.17,2.59-.91,3.65-1.82h0c1.76-.54,3.27-1.51,4.67-2.68,.62-.2,1.25-.67,1.85,.06,.16,.34,.33,.68,.47,1.02,.46,1.16,2.28,1.94,1.78,3.09-.35,.81-2.08,1-3.18,1.49-5.17,2.31-10.33,4.62-15.49,6.95-.96,.43-2.12,.81-2.15,2.07-.03,1.06,1.07,1.34,1.78,1.88,.52,.4,1.48,.56,1.46,1.28-.03,.87-1.03,.95-1.69,1.24-2.51,1.1-5.08,1.86-7.88,1.8-4.4-.1-5.07-1.02-3.36-4.95,.29-.38,.57-.77,.86-1.15Z"/>
  <path class="cls-2" d="M248.48,126.78c-1.73-4.62-5.13-7.72-7.83-11.31-3.02-4.02-4.71-8.43-4.52-13.51,.05-1.38,.28-1.97,1.87-1.17,1.64,.84,3.01,1.76,4.16,3.29,1.66,2.21,3.75,4.11,5.63,6.17,3.54,3.89,3.93,12.15,.7,16.53Z"/>
  <path class="cls-3" d="M270.75,101.86c2.03,.78,4.16,1.25,6.21,2.02,3.12,1.17,5.67,6.71,5.57,9.74-.02,.78-.07,1.68-1.27,1.1-5.35-2.58-11.48-3.24-16.44-6.77-1.94-1.78-4.11-3.32-5.92-5.85,4.14-.6,7.99-.48,11.85-.24Z"/>
  <path class="cls-7" d="M269.38,163.08c3.45,1.15,3.51,1.38,.76,4.11-3.39,3.37-7.62,5.05-12.23,5.92-.89,.17-1.78,.34-2.67,.52-2.65-.04-5.32,.02-7.65-1.54-1.76-1.18-1.71-1.71,.17-2.66,4.91-2.49,9.73-5.18,15.29-6.05,2.11-.33,4.22-.2,6.33-.3Z"/>
  <path class="cls-2" d="M257.99,113.94c-.09,5.79-.79,10.32-3.02,14.51-.28,.53-.57,1.1-1,1.51-.96,.93-1.55,2.68-3.19,2.29-.94-.22-1.28-4.25-.73-5.37,2.25-4.59,2.54-9.3,.66-14.06-.46-1.16-.54-2.11,.08-3.19,.85-1.48,1.05-3.17,1.08-4.83,.02-1.22,.22-1.91,1.64-2.15,1.47-.25,1.91,.56,2.31,1.59,1.33,3.48,2.37,7.03,2.18,9.71Z"/>
  <path class="cls-2" d="M252.52,94.22c3.1,.09,6.23-.31,9.28,.61,2.1,.63,4,1.55,4.71,3.86,.26,.84,.38,1.64-1,1.67-6.89,.15-13.69,1.89-20.64,1.21-1.91-.19-3.73-.65-5.49-1.36-.39-.16-.91-.49-.98-.82-.11-.56,.55-.58,.95-.76,3.66-1.69,7.47-2.93,11.35-3.97,.66,.08,1.25-.15,1.83-.43Z"/>
  <path class="cls-7" d="M202.81,168.95c4.42-2.41,9.3-3.4,14.13-4.52,.92-.04,1.84-.07,2.76-.11,0,0,.21,.07,.21,.07l.21-.07c1.87,.23,3.76,.39,5.24,1.78,.99,.93,1.39,1.69-.26,2.43-5.02,2.23-9.95,4.66-15.45,5.53-1.31-1.59-2.78-1.34-4.1-.13-.94,.86-1.51,.64-2.21-.17-1.29-1.48-1.41-3.08-.54-4.79Z"/>
  <path class="cls-7" d="M209.66,103.34c-.36,1.09,.07,2.07,.38,3.08,.13,.41,.41,1,.24,1.25-.35,.5-.94,.19-1.45,.04-4.05-1.23-7.64-3.28-10.74-6.17-1.77-1.65-3.39-3.46-4.87-5.4-.74-.98-.78-1.6,.52-1.96,.14-.04,.28-.12,.41-.19q4.56-2.12,8.14,1.37c1.69,1.64,3.54,3.09,5.74,4,.83,.34,1.44,.81,1.68,1.69-.02,.76-.04,1.52-.06,2.28Z"/>
  <path class="cls-2" d="M232.85,113.56c-.15,5.11-1.87,9.12-5.22,12.42-.35,.35-.75,.93-1.34,.52-.44-.31-.63-.86-.32-1.41,2.64-4.7,1.45-9.46-.59-13.76-1.36-2.87-1.17-5.11-.21-7.85,.5-1.42,1.16-1.64,2.36-1.7,.89-.05,1.43,.26,1.85,1,1.99,3.48,3.19,7.19,3.45,10.79Z"/>
  <path class="cls-2" d="M249.22,93.52c-1.52-1.86-3.4-3.2-5.6-4.15-.86-.37-1.65-.84-.23-1.58,.82,.06,1.59-.09,2.29-.53,0,0,.21,.04,.21,.04l.21-.07c.52,.11,1.02,.07,1.49-.19,.14-.03,.27-.06,.41-.1,4.91-.2,9.63,.57,14.14,2.58,4.51,2.01,7.37,5.39,8.55,10.19,.01,.28,.02,.57,.04,.85-1.66,.42-2.59,.02-3.07-1.88-.85-3.36-3.55-4.65-6.7-5.35-3.94-.87-7.83-.14-11.73,.18Z"/>
  <path class="cls-2" d="M220.67,136.18c2.67,2.91,5.17,5.61,7.64,8.33,.54,.6,.57,1.35,.57,2.14-.04,4.91-.57,9.89,1.76,14.52,.18,.36,.25,.76-.17,.99-.49,.27-1.08,.26-1.52-.04-1.02-.69-1.75-1.67-2.32-2.76-2.96-5.64-4.4-11.75-5.53-17.95-.29-1.59-.93-3.19-.43-5.24Z"/>
  <path class="cls-2" d="M241,139.49c1.47,4.71,3.13,9.03,2.36,13.45-.56,3.27-2.67,6.21-4.49,9.06-.88,1.38-2.76,.78-3.31-.86-.65-1.94-.3-3.91,.05-5.84,.96-5.37,2.82-10.44,5.4-15.81Z"/>
  <path class="cls-7" d="M255.7,174.49c.9-.07,1.82-.05,2.7-.22q5.63-1.07,11.45,1.53c-2.42,1.64-5.19,2.01-7.77,2.85-6.57,.83-12.44-.9-17.7-4.85-.66-.5-1.48-.93-1.66-1.78-.1-.47,.57-.58,.96-.79,1.14-.59,1.58,.29,2.23,.92,2.78,2.73,6.23,2.75,9.78,2.32Z"/>
  <path class="cls-7" d="M221.05,177.23c-.61,.31-.03,.77-.15,1.14-7.62,2.01-15.12,2.26-22.31-1.58-1.26-.67-2.45-1.51-3.58-2.39-.41-.32-1.54-.68-.66-1.49,.54-.49,1.32-1.04,2.14-.07,2.39,2.82,5.58,3.4,9.06,3,.8,.12,1.57,.01,2.33-.23,.2-.04,.4-.08,.6-.12,.74-.14,1.5-.19,2.21-.42,3.15-1.03,6.2-1.77,8.52,1.63,.25,.36,.86,1.01,1.38,.09,0,0-.01,0-.01,0,0,.17-.02,.34-.03,.51,.17,0,.34-.02,.51-.03v-.02Z"/>
  <path class="cls-2" d="M235.18,87.3c3.28,1.11,6.57,2.23,9.53,4.09,1.19,.74,2.59,1.28,3.02,2.84-.55,.21-1.11,.41-1.66,.62-.58-.08-1.16-.15-1.74-.23-3.87-3.96-8.83-3.65-13.74-3.48-.52,.02-1.04,.19-1.56,.25-3.45,.38-4.14-.35-3.8-3.8,.12-1.19,.93-.94,1.64-1.01,2.82-.27,5.54,.49,8.32,.72Z"/>
  <path class="cls-7" d="M224.09,91.86c-2.07,.69-3.33,.17-4.01-2.12-.44-1.47-1.53-2.75-2.33-4.1-.68-1.14-.77-2.07,.72-2.68,.9-.37,1.77-.87,2.54-1.45,1.31-.99,1.98-.5,2.39,.85,.09,1.46,.33,2.9,.79,4.3-.24,.31-.19,.63,0,.94l-.11,4.26Z"/>
  <path class="cls-2" d="M257.64,131.35c.04,.11,.09,.21,.11,.33,0,.04-.06,.1-.09,.15-1.61-.33-1.04,.95-1.05,1.58,0,2.85-.54,5.59-1.6,8.21-.47,1.18-1.03,2.35-2.4,3.24-.27-3.5-.7-6.83-1.4-10.11-.11-.53,.2-.83,.61-1.1,1.58-1.07,2.82-2.48,3.84-4,1.22,.03,.15,2.45,1.97,1.7Z"/>
  <path class="cls-7" d="M260.95,160.47c.56,.72,1.75,.59,2.17,1.64-2.91,.67-5.79,1.29-8.48,2.57-.25,.12-.74,.19-.84,.07-1.15-1.53-3.31-1.68-4.4-3.27,3.68-2.32,7.58-2.03,11.55-1.01Z"/>
  <path class="cls-7" d="M202.81,168.95c-.87,1.71-.75,3.31,.54,4.79,.7,.81,1.27,1.04,2.21,.17,1.31-1.21,2.78-1.45,4.1,.13-1.37,.29-2.74,.59-4.1,.88-2.6-.05-5.16-.24-7.31-1.96-1.01-.81-1.48-1.56,.18-2.2,1.48-.57,2.81-1.5,4.39-1.82Z"/>
  <path class="cls-2" d="M263.57,108.66c.06,.95-3.22,3.52-4.11,3.31-.34-.08-.5-.32-.52-.65-.1-1.99-.82-3.84-1.3-5.74-.24-.98,.77-1.65,1.57-1.07,1.47,1.05,2.72,2.4,4.05,3.64,.15,.14,.22,.38,.29,.51Z"/>
  <path class="cls-1" d="M269.32,161.74c1-3.68,4.1-4.86,7.4-5.98-1.09,2.19-2.18,4.38-3.29,6.56-.3,.6-.78,.52-1.36,.34-.86-.26-1.76-.39-2.65-.57,0-.13-.03-.25-.11-.35Z"/>
  <path class="cls-2" d="M210.66,122.36c-1.48-3.71-1.19-7.32,.59-10.81,.22-.44,.67-.74,1.12-.47,.67,.41,1.08,1.12,.97,1.89-.13,.88-.48,1.74-.73,2.6-.65,2.26-1.3,4.52-1.96,6.78Z"/>
  <path class="cls-6" d="M217.38,155.94c1.48,2.66,2.86,4.96,4.54,7.04-.22,.18-.35,.36-.42,.34-1.4-.37-3.04,.57-4.25-.6-.64-.61-.49-4.56,.13-6.78Z"/>
  <path class="cls-2" d="M230.41,132.91c-1.1-1.7-1.79-2.85-2.56-3.94-.49-.69-.4-1.16,.18-1.75,.95-.96,1.79-2.03,2.69-3.04,.27-.3,.4-.93,.97-.74,.54,.18,.45,.79,.38,1.17-.48,2.56-1.02,5.11-1.67,8.29Z"/>
  <path class="cls-2" d="M236.53,111.18c-.16,.53-.37,1.03-.44,1.54-.1,.73-.38,1.1-1.17,1.01-.74-.09-1.08-.5-1.07-1.21,.05-1.78-.6-3.42-1.01-5.1-.14-.58-.9-1.34,.21-1.59,.74-.17,1.78-.25,2.13,.79,.51,1.5,.9,3.04,1.34,4.56Z"/>
  <g>
    <path class="cls-12" d="M173.18,101.51c-.06-.99,.4-1.79,.96-2.54,.34,.11,.67,.21,1.01,.32-1.71,3.93-1.04,4.85,3.36,4.95,2.8,.06,5.37-.7,7.88-1.8,.66-.29,1.66-.36,1.69-1.24,.02-.72-.93-.88-1.46-1.28-.7-.54-1.8-.82-1.78-1.88,.03-1.26,1.19-1.64,2.15-2.07,5.16-2.32,10.33-4.64,15.49-6.95,1.1-.49,2.83-.69,3.18-1.49,.5-1.14-1.32-1.92-1.78-3.09-.14-.35-.31-.68-.47-1.02,.31-.08,.63-.15,.94-.23,1.18,1.79,2.63,3.35,4.2,4.8-.21,.24-.43,.48-.64,.72-2.45-.44-4.17,1.42-6.31,1.99-1.15,.31-1.2,.84-.46,1.74,2.11,2.55,4.61,4.58,7.57,6.04,.56,.43,1.18,.7,1.89,.78-.06,.6-.12,1.2-.19,1.8-.24,0-.48,0-.72,0-.24-.88-.86-1.35-1.68-1.69-2.2-.91-4.05-2.36-5.74-4q-3.59-3.48-8.14-1.37c-.14,.06-.27,.15-.41,.19-1.3,.36-1.26,.98-.52,1.96,1.47,1.94,3.09,3.74,4.87,5.4,3.09,2.88,6.68,4.94,10.74,6.17,.51,.16,1.11,.46,1.45-.04,.17-.24-.11-.83-.24-1.25-.32-1.01-.74-1.99-.38-3.08,.27,0,.54,0,.81,0,.35,1.23,.49,2.59,1.09,3.68,3.32,6.08,7.86,11.27,12.31,16.52,.93,1.1,1.31,.68,1.64-.34,.19-.57,.36-1.17,.42-1.76,.44-4.95-.66-9.56-3.77-13.44-2.86-3.56-5.28-7.57-9.36-10,.23-.23,.47-.46,.7-.69,2.81,2,6.04,2.61,9.39,3.03,6.03,.75,11.55-.87,16.94-3.27,1.14-.51,3.26-.77,3.15-1.7-.17-1.51-2.19-1.79-3.56-2.38-.13-.06-.3-.03-.45-.08-3.19-1.02-6.48-.44-9.72-.56-.5-.47-.84,.13-1.26,.2-1.05,.53-2.17,.39-3.28,.37-.04-.45-.18-.84-.63-1.05l.11-4.26c0-.31,0-.63,0-.94-.46-1.4-.7-2.83-.79-4.3,.28-.15,.56-.31,.84-.46,0,0,0,0,0,0,0,.15,.04,.28,.13,.39,.83,.9-.25,2.89,1.77,3.12,.22,.01,.44,.03,.66,.04,.15-.15,.27-.15,.36,.06,.48,0,.96,0,1.44,0,.69-.22,1.36-.13,2.03,.08,.24,.42,.52,.48,.85,.1,1.27,.11,2.57,.03,3.69,.82,0,.27,0,.53,0,.8-2.77-.23-5.5-.99-8.32-.72-.71,.07-1.53-.18-1.64,1.01-.34,3.45,.36,4.18,3.8,3.8,.52-.06,1.04-.23,1.56-.25,4.91-.16,9.87-.47,13.74,3.48,.5,.72,1.1,.62,1.74,.23,.55-.21,1.11-.41,1.66-.62,.5-.24,.99-.48,1.49-.71,3.91-.33,7.79-1.05,11.73-.18,3.15,.7,5.85,1.99,6.7,5.35,.48,1.9,1.41,2.3,3.07,1.88,0,.43,.01,.87,.02,1.3-3.86-.24-7.71-.35-11.85,.24,1.81,2.53,3.98,4.07,5.92,5.85,0,.53-.01,1.06-.02,1.59-3.4,4-5.24,7.75-6.4,13.08-.03,.15-.08,.29-.13,.43-1.09,2.7-1.69,5.43-.62,8.29-1.82,.74-.75-1.68-1.97-1.7-1.03,1.52-2.26,2.94-3.84,4-.4,.27-.72,.57-.61,1.1,.71,3.28,1.13,6.61,1.4,10.11,1.36-.89,1.92-2.07,2.4-3.24,1.06-2.63,1.59-5.36,1.6-8.21,0-.63-.57-1.91,1.05-1.58-.03,.31-.06,.62-.09,.94v2.16c.12,.92,.05,1.81-.28,2.68-.07,.45-.13,.9-.2,1.36-.4,2.63-1.58,4.9-3.35,6.83-.89,.97-1.23,1.94-1.29,3.23-.16,3.51-.76,6.93-2.74,9.96-.32-.16-.64-.33-.97-.49,.98-2.13,1.89-4.26,2.15-6.64,1.23-11.62-.48-22.47-8.14-31.81-1.79-2.18-3.48-4.45-5.28-6.76-.67,.87-.52,1.64-.57,2.37-.5,6.22,1.34,12.01,3.45,17.71,2,5.39,3.55,10.94,4.67,16.52,.66,3.3,.82,6.67,2.47,9.7,.22,1.06,1.39,1.16,1.93,1.89,1.09,1.59,3.25,1.74,4.4,3.27,.09,.12,.59,.05,.84-.07,2.68-1.28,5.57-1.9,8.48-2.57-.43-1.05-1.61-.93-2.17-1.64,.67-.03,1.33-.06,2-.09,.75,.24,1.44,.58,1.91,1.24,.14,.5,.41,.62,.84,.29,.76-.06,1.52-.13,2.28-.19,.44,0,.89,0,1.33,.01,.08,.1,.12,.22,.11,.35-.02,.33-.03,.67-.05,1-2.11,.1-4.21-.03-6.33,.3-5.56,.87-10.38,3.56-15.29,6.05-1.88,.95-1.93,1.48-.17,2.66,2.33,1.56,5.01,1.5,7.65,1.54,.15,.29,.3,.57,.46,.86-3.55,.43-7,.41-9.78-2.32-.65-.64-1.09-1.51-2.23-.92-.4,.2-1.06,.32-.96,.79,.18,.85,1,1.29,1.66,1.78,5.26,3.95,11.13,5.68,17.7,4.85,.07,.65-.5,.8-.87,1.11-3.24,.68-6.41,.28-9.51-.74-.94-.31-1.86-.55-2.85-.42-.5-.01-1.02-.09-1.35,.42l-.11,.12s-.16-.03-.16-.03c-.57-.1-1.23,.05-1.59-.59,.49-.68,1.71-.05,2.06-1.23-2.03-1.39-4-3.06-6.1-4.16-2.35-1.23-4.62,1.47-7.1,1.81-.37,.05-.74,.15-1.11,.24-3.84,.95-7.65,1.19-11.25-.85-.78-.44-1.45-1.09-2.21-1.58-.75-.49-1.56-.26-2.09,.28-.8,.83,.34,1.08,.65,1.56,.55,.85,1.84,1.01,2.09,2.17-.51,.92-1.13,.27-1.38-.09-2.32-3.4-5.37-2.66-8.52-1.63-.71,.23-1.47,.29-2.21,.42-.2,.04-.4,.08-.6,.12-.76,.24-1.53,.35-2.33,.23,0-.3,0-.61,0-.91,1.37-.29,2.74-.59,4.1-.88,5.5-.88,10.43-3.31,15.45-5.53,1.66-.74,1.26-1.5,.26-2.43-1.48-1.38-3.37-1.55-5.24-1.78-.14-.19-.29-.18-.43,0-.92,.04-1.84,.07-2.76,.11-.68-.23-.48-1.36-1.38-1.35,.24-2.86-.27-5.78,.78-8.57,.24-.63-.16-1.16-.39-1.72-1.39-3.37-2.2-6.93-3.28-10.39-1.61-5.19-2.46-10.42-2.5-15.83,0-1.08-.67-2.15-1.01-3.22-1.34-4.25-1.1-8.4,1.03-12.34,.61-1.13,.68-1.56-.76-1.93-7.07-1.79-12.44-6.06-16.83-11.74-.52-.67-.85-1.97-1.91-1.66-1.43,.41-2.75,1.22-4.1,1.91-.3,.15-.27,.51-.02,.76,.1,.11,.26,.16,.37,.26,3.69,3.19,3.62,3.56-.92,5.22-.17,.08-.35,.15-.52,.23-.63,.21-1.26,.42-1.88,.64-.91,.12-1.94-.36-2.72,.51-1.51,.42-3.02,.43-4.52,0-.45-.7-1.17-.47-1.8-.52-.17-.12-.35-.25-.52-.37-.17-.17-.33-.34-.5-.51-.51-.32-.49-.81-.42-1.32,0-.33,.02-.66,.02-.99Zm72.33,56.89c-.06-1.19-.86-1.95-1.83-2.23-.57-.17-.76,.77-.95,1.33-.7,1.39-1.41,2.79-2.22,4.4,1.35-.1,2.39-.2,3.42-.24,2.74-.11,2.75-.1,1.95-2.69-.06-.21-.25-.37-.38-.56Zm7.02-64.18c-.63,.03-1.33-.21-1.83,.43-3.88,1.05-7.7,2.28-11.35,3.97-.39,.18-1.06,.2-.95,.76,.07,.33,.59,.67,.98,.82,1.76,.71,3.58,1.17,5.49,1.36,6.95,.68,13.75-1.06,20.64-1.21,1.39-.03,1.26-.83,1-1.67-.71-2.31-2.61-3.22-4.71-3.86-3.04-.92-6.18-.52-9.28-.61Zm-16.82,26.5c-.83,.28-.81,.7-.95,1.04-2.21,5.37-3.41,11.01-4.03,16.74-.67,6.18-1.34,12.4-.16,18.61,.27,1.43,.6,2.83,1.64,3.92,.44,.46,.98,.84,1.61,.56,.67-.3,.24-.94,.22-1.42-.11-1.83,.04-3.62,.41-5.43,1.12-5.53,3.07-10.77,5.42-15.87,.37-.81,.57-1.54,.27-2.39-1.78-5.14-3.74-10.23-4.43-15.76Zm-24.41,7.42c.7,3.76,1.46,7.89,2.24,12.03,1.25,6.67,3.47,13,6.96,18.85,1.03,1.72,2.34,3.19,3.96,4.32,.73,.52,1.71,.65,2.57,.03,.62-.45,.33-.88-.01-1.35-4.18-5.75-5.53-12.53-6.83-19.29-.91-4.72-1.16-9.6-5.13-13.13-.69-.61-.91-1.74-1.45-2.55-.58-.86-.41-2.75-1.7-2.44-.88,.21-.35,2.02-.6,3.53Zm17.57,15.04c.29-1.96,.45-3.46,.75-4.92,.55-2.7-.19-4.97-1.72-7.23-3.23-4.78-6.94-9.18-10.74-13.49-.91-1.03-1.38-2.5-2.84-3.18-2.1,5.91-1.17,11.26,2.72,15.89,3.64,4.34,7.64,8.38,11.83,12.94Zm-.47,31.63c1.75-.23,3.7-.39,5.6-.99,5.72-1.78,11.06-4.42,16.39-7.08,.71-.35,1.92-.45,1.94-1.31,.03-.98-1.16-1.28-1.94-1.68-.66-.34-1.41-.54-2.15-.69-3.44-.71-6.79-.17-10.08,.87-5.67,1.78-10.65,5.09-16.13,7.29-1.43,.57-.81,1.14-.05,1.69,1.85,1.33,3.98,1.79,6.41,1.9Zm20.08-48.02c3.24-4.38,2.84-12.64-.7-16.53-1.87-2.06-3.96-3.95-5.63-6.17-1.15-1.53-2.51-2.45-4.16-3.29-1.58-.81-1.81-.21-1.87,1.17-.19,5.08,1.49,9.49,4.52,13.51,2.71,3.6,6.1,6.7,7.83,11.31Zm9.51-12.84c.19-2.68-.84-6.22-2.18-9.71-.39-1.03-.84-1.83-2.31-1.59-1.41,.24-1.61,.93-1.64,2.15-.03,1.66-.23,3.35-1.08,4.83-.62,1.09-.54,2.04-.08,3.19,1.88,4.76,1.59,9.48-.66,14.06-.55,1.12-.21,5.15,.73,5.37,1.64,.39,2.23-1.37,3.19-2.29,.42-.41,.72-.98,1-1.51,2.23-4.18,2.93-8.71,3.02-14.51Zm-25.14-.38c-.26-3.6-1.45-7.32-3.45-10.79-.42-.73-.97-1.05-1.85-1-1.21,.07-1.86,.28-2.36,1.7-.97,2.74-1.15,4.98,.21,7.85,2.04,4.31,3.23,9.06,.59,13.76-.31,.56-.13,1.1,.32,1.41,.59,.41,.98-.17,1.34-.52,3.34-3.3,5.07-7.31,5.22-12.42Zm-12.18,22.61c-.5,2.05,.14,3.65,.43,5.24,1.13,6.2,2.57,12.31,5.53,17.95,.57,1.09,1.3,2.07,2.32,2.76,.44,.3,1.03,.31,1.52,.04,.42-.23,.35-.64,.17-.99-2.33-4.63-1.8-9.61-1.76-14.52,0-.78-.02-1.54-.57-2.14-2.48-2.72-4.97-5.42-7.64-8.33Zm20.33,3.32c-2.57,5.36-4.43,10.43-5.4,15.81-.35,1.93-.7,3.89-.05,5.84,.55,1.64,2.43,2.24,3.31,.86,1.82-2.85,3.93-5.79,4.49-9.06,.76-4.43-.89-8.75-2.36-13.45Zm22.57-30.83c-.07-.13-.14-.37-.29-.51-1.33-1.24-2.59-2.6-4.05-3.64-.81-.58-1.82,.09-1.57,1.07,.47,1.91,1.19,3.75,1.3,5.74,.02,.33,.18,.57,.52,.65,.89,.22,4.17-2.36,4.11-3.31Zm-52.92,13.7c.65-2.26,1.3-4.52,1.96-6.78,.25-.87,.6-1.72,.73-2.6,.11-.78-.3-1.49-.97-1.89-.45-.27-.9,.03-1.12,.47-1.78,3.49-2.08,7.1-.59,10.81Zm6.73,33.58c-.62,2.22-.77,6.17-.13,6.78,1.21,1.17,2.85,.22,4.25,.6,.08,.02,.2-.16,.42-.34-1.69-2.08-3.06-4.37-4.54-7.04Zm13.03-23.03c.65-3.18,1.19-5.73,1.67-8.29,.07-.39,.16-.99-.38-1.17-.57-.19-.69,.43-.97,.74-.9,1.01-1.74,2.07-2.69,3.04-.59,.59-.67,1.06-.18,1.75,.77,1.09,1.46,2.24,2.56,3.94Zm6.12-21.74c-.44-1.52-.83-3.06-1.34-4.56-.35-1.03-1.38-.95-2.13-.79-1.11,.25-.36,1.01-.21,1.59,.41,1.69,1.05,3.32,1.01,5.1-.02,.7,.32,1.12,1.07,1.21,.79,.09,1.07-.28,1.17-1.01,.07-.51,.28-1.01,.44-1.54Zm-10.41,54.1c1.02,.6,1.12,2.13,2.26,1.64,2.43-1.04,4.75-2.32,7.7-3.79-4-.65-6.93,.29-9.96,2.16Zm24.62-60.07c.23-1.35-.21-1.98-1.69-1.89-1.48,.09-2.5,2.8-1.57,4.54,.38,.71,.83,1.78,1.62,1.75,.9-.03,.9-1.21,1.12-1.96,.23-.79,.35-1.63,.51-2.44Zm-17.66-.47c2.87,.06,1.33-2.06,1.81-3.12,.27-.59,.15-1.46-.75-1.02-1.21,.58-3.36-.25-3.54,1.48-.1,1.01,.65,2.94,2.49,2.65Zm-12.06-.91c-.1,1.15,.89,2.42,1.52,2.32,1.44-.24,1.17-1.95,1.56-3.08,.31-.91-.03-1.32-.99-1.53-2.04-.43-1.47,1.36-2.08,2.29Zm12.1,18.15c1.01-1.83,2.05-3.63,2.51-5.68,.11-.51,.23-1.1-.46-1.33-.56-.19-1.22-.08-1.26,.55-.14,2.16-1.35,4.16-.8,6.46Zm9.52-19.44c.75,1.67,1.75,2.75,3.31,3.3q.89-2.71-3.31-3.3Zm-24.45-1.58c.43,1.05,.97,1.71,1.74,2.29,.86-1.6,.45-2.35-1.74-2.29Z"/>
    <path class="cls-12" d="M260.95,160.47c-3.97-1.02-7.87-1.3-11.55,1.01-.54-.73-1.71-.83-1.93-1.89,.42-.37,.84-.73,1.26-1.1,.32,.16,.64,.33,.97,.49,.04,.15,.08,.29,.13,.44-.36,.2-.38,.5-.02,.63,.45,.16,.36-.28,.42-.53,4.36-1.53,8.63-1.58,12.72,.86-.67,.03-1.33,.06-2,.09Z"/>
  </g>
  <path class="cls-6" d="M245.51,158.4c.13,.19,.31,.35,.38,.56,.8,2.6,.79,2.59-1.95,2.69-1.04,.04-2.07,.14-3.42,.24,.81-1.61,1.52-3.01,2.22-4.4,1.11-.28,1.67,1.16,2.77,.9Z"/>
  <path class="cls-2" d="M250.74,105.21c-.17,.82-.28,1.65-.51,2.44-.22,.75-.22,1.93-1.12,1.96-.79,.03-1.24-1.04-1.62-1.75-.93-1.74,.09-4.45,1.57-4.54,1.48-.09,1.91,.54,1.69,1.89Z"/>
  <path class="cls-7" d="M221.02,103.84c.61-.93,.04-2.72,2.08-2.29,.96,.2,1.31,.62,.99,1.53-.39,1.13-.11,2.84-1.56,3.08-.63,.1-1.62-1.17-1.52-2.32Z"/>
  <path class="cls-2" d="M233.13,121.99c-.56-2.3,.66-4.3,.8-6.46,.04-.62,.7-.73,1.26-.55,.68,.23,.57,.82,.46,1.33-.46,2.05-1.5,3.85-2.51,5.68Z"/>
  <path class="cls-2" d="M242.64,102.54q4.21,.59,3.31,3.3c-1.56-.55-2.57-1.63-3.31-3.3Z"/>
  <path class="cls-6" d="M245.51,158.4c-1.11,.26-1.66-1.19-2.77-.9,.19-.56,.38-1.5,.95-1.33,.97,.28,1.77,1.04,1.83,2.23Z"/>
  <path class="cls-7" d="M218.19,100.97c2.19-.05,2.61,.69,1.74,2.29-.77-.58-1.31-1.24-1.74-2.29Z"/>
  <path class="cls-13" d="M209.66,103.34c.02-.76,.04-1.52,.06-2.28,.24,0,.48,0,.72,0,.01,.77,.02,1.53,.03,2.3-.27,0-.54,0-.81,0Z"/>
  <path class="cls-13" d="M229.25,92.34c-.38,.29-.8,.4-1.26,.2,.42-.08,.75-.67,1.26-.2Z"/>
  <path class="cls-13" d="M257.57,132.76c.28,.72,.29,1.44,0,2.16,0-.72,0-1.44,0-2.16Z"/>
  <path class="cls-13" d="M252.52,94.22c-.58,.28-1.17,.5-1.83,.43,.49-.64,1.19-.39,1.83-.43Z"/>
  <path class="cls-13" d="M244.33,94.62c.58,.08,1.16,.15,1.74,.23-.64,.39-1.25,.49-1.74-.23Z"/>
  <path class="cls-13" d="M257.29,137.61c.16,.49,.08,.94-.2,1.36,.07-.45,.13-.9,.2-1.36Z"/>
  <path class="cls-13" d="M264.86,161.62c.28,.1,.56,.2,.84,.29-.43,.33-.7,.21-.84-.29Z"/>
  <path class="cls-13" d="M208.49,175.49c-.2,.04-.4,.08-.6,.12,.2-.04,.4-.08,.6-.12Z"/>
  <path class="cls-13" d="M220.13,164.31l-.21,.07-.21-.07c.14-.19,.28-.19,.43,0Z"/>
  <path class="cls-13" d="M224.19,87.6c-.19-.32-.23-.63,0-.94,0,.31,0,.63,0,.94Z"/>
  <path class="cls-13" d="M308.11,20.75c.55-.13,1.09-.25,1.64-.38,.34,.8-.62,.76-.77,1.23-10.02,5.83-19.96,11.82-30.09,17.46-10.93,6.08-21.55,12.7-32.51,18.73-11.23,6.18-22.13,12.92-33.26,19.26-.52,.29-1.1,.48-1.64,.72,.02-.47,.04-.94,.06-1.41,.47-.02,1.05,.3,1.31-.41,0,0-.02,.01-.02,.01,.64-.04,1.22-.16,1.37-.92,0,0,0,0,0,0,.34,.03,.63,.02,.46-.46,0,0,0,0,0,0,1.15,.18,2-.12,2.29-1.37,0,0,0,0,0,0,1.24,.2,2.11-.37,2.74-1.38,0,0,0,0,0,0,.69,.2,1.15-.29,1.66-.58,4.91-2.87,9.83-5.74,14.71-8.66,2.63-1.58,5.51-2.78,7.8-4.9,0,0,0,0,0,0,.9,.22,1.58-.28,2.29-.7,2.39-1.41,4.82-2.75,7.17-4.22,2.19-1.37,4.75-2.16,6.5-4.2,0,0,0,0,0,0,3.55-1.2,6.58-3.3,9.58-5.47,0,0,0,0,0,0,1.76-.51,3.36-1.3,4.56-2.74,0,0,0,0,0,0,.3,0,.69,.09,.45-.45,0,0,.02-.02,.02-.02,1.24,.21,2.07-.41,2.72-1.36,0,0,0,0,0,0,2.89-.37,4.91-2.49,7.39-3.69,.34-.16,.67-.4,.36-.87,0,0,0,0,0,0,1.59,.14,2.7-.68,3.64-1.83,0,0,0,0,0,0,.66,.06,1.17-.05,.92-.91,0,0,0,0,0,0,.51,.25,.92,.3,.92-.46,0,0,0,0,0,0,1.12,.15,2.08,.03,2.27-1.36,0,0,.01,0,.01,0,.65,.43,1.06,.15,1.36-.46,0,0,0,0,0,0,1-.06,1.82-.43,2.29-1.37,0,0-.01,0-.01,0,1.21-.17,2.32-.47,2.74-1.82,0,0,.01,0,.01,0,1.62,.21,2.62-.84,3.65-1.83,0,0-.01,0-.01,0,.85-.13,1.77-.17,1.83-1.37,0,0,0,0,0,0,1.11,.13,2.05-.02,2.28-1.37,0,0,0,0,0,0,.66,.45,1.05,.09,1.38-.46h-.02Z"/>
  <path class="cls-5" d="M243.83,57.7c-2.29,2.12-5.16,3.33-7.8,4.9-4.88,2.92-9.8,5.79-14.71,8.66-.5,.3-.97,.78-1.66,.58-.28-.77,.42-.87,.81-1.1,7.17-4.21,14.35-8.41,21.55-12.58,.52-.3,1.03-1,1.8-.46Z"/>
  <path class="cls-5" d="M259.78,48.57c-1.75,2.04-4.31,2.83-6.5,4.2-2.35,1.47-4.78,2.82-7.17,4.22-.71,.42-1.39,.92-2.29,.7,.02-.2-.04-.54,.05-.58,5.15-2.48,9.85-5.77,14.88-8.45,.31-.16,.65-.42,1.02-.09Z"/>
  <path class="cls-5" d="M190.89,88.13c3.59-2.51,7.39-4.66,11.41-6.81,0,1.37-1.07,1.32-1.5,1.89-1.42,.77-3.2,1.03-3.88,2.81,0,0,0,0,0,0-1.62-.2-2.7,.69-3.65,1.84,0,0,.02-.01,.02-.01-.78-.25-1.26,.62-1.99,.54-.13-.09-.26-.18-.39-.27Z"/>
  <path class="cls-5" d="M178.2,97.4c0-.37-.06-.72-.45-.89,2.42-1.9,4.8-3.87,7.66-5.12,.11,.12,.22,.25,.33,.37-1,1.15-2.77,1.4-3.43,2.94,0,0,.01-.01,.01-.01-1.86,.17-2.33,2.46-4.13,2.71Z"/>
  <path class="cls-5" d="M269.37,43.1c-2.99,2.17-6.03,4.27-9.58,5.47,1.4-2.01,3.76-2.62,5.7-3.81,1.17-.72,2.22-1.99,3.88-1.66Z"/>
  <path class="cls-5" d="M284.86,33.98c.3,.47-.02,.71-.36,.87-2.48,1.2-4.5,3.31-7.39,3.69,2.3-2.01,4.96-3.38,7.75-4.55Z"/>
  <path class="cls-12" d="M196.92,86.03c.69-1.78,2.46-2.05,3.88-2.81,.26,.05,.52,.09,.78,.14-1.4,1.17-2.91,2.13-4.67,2.67Z"/>
  <path class="cls-5" d="M273.92,40.36c-1.2,1.44-2.8,2.23-4.56,2.74,1.05-1.69,2.63-2.52,4.56-2.74Z"/>
  <path class="cls-5" d="M288.51,32.15c-.94,1.15-2.05,1.97-3.64,1.83,1.03-.97,2.02-2.03,3.64-1.83Z"/>
  <path class="cls-5" d="M302.65,23.93c-1.02,.99-2.02,2.03-3.65,1.83,1-1.03,2.04-2,3.65-1.83Z"/>
  <path class="cls-5" d="M298.99,25.77c-.42,1.35-1.53,1.66-2.74,1.82,.48-1.26,1.59-1.57,2.74-1.82Z"/>
  <path class="cls-5" d="M277.11,38.53c-.66,.96-1.48,1.57-2.72,1.36,.71-.86,1.41-1.71,2.72-1.36Z"/>
  <path class="cls-5" d="M216.94,73.21c-.29,1.25-1.14,1.55-2.29,1.37,.53-.84,1.37-1.17,2.29-1.37Z"/>
  <path class="cls-5" d="M219.67,71.84c-.64,1.01-1.5,1.58-2.74,1.38,.8-.68,1.52-1.54,2.74-1.38Z"/>
  <path class="cls-5" d="M292.61,29.42c-.19,1.4-1.15,1.51-2.27,1.36,.53-.84,1.33-1.22,2.27-1.36Z"/>
  <path class="cls-5" d="M296.27,27.59c-.47,.94-1.28,1.32-2.29,1.37,.29-1.24,1.17-1.51,2.29-1.37Z"/>
  <path class="cls-5" d="M306.75,21.21c-.23,1.34-1.16,1.5-2.28,1.37,.48-.91,1.34-1.2,2.28-1.37Z"/>
  <path class="cls-5" d="M304.47,22.57c-.06,1.2-.98,1.24-1.83,1.37,.12-1.11,.94-1.29,1.83-1.37Z"/>
  <path class="cls-5" d="M187.44,90.19c.11,.26,.23,.52,.34,.78-.83-.13-1.32,.63-2.04,.79-.11-.12-.22-.25-.33-.37,.55-.61,1.22-1.03,2.03-1.2Z"/>
  <path class="cls-5" d="M214.2,75.03c-.15,.76-.74,.88-1.37,.92-.02-1.02,.64-1.02,1.37-.92Z"/>
  <path class="cls-5" d="M289.43,31.24c.24,.86-.26,.97-.92,.91-.25-.86,.46-.77,.92-.91Z"/>
  <path class="cls-5" d="M293.99,28.95c-.3,.61-.71,.89-1.36,.46,.33-.53,.71-.91,1.36-.46Z"/>
  <path class="cls-5" d="M212.84,75.94c-.25,.71-.84,.39-1.31,.41,.33-.46,.77-.6,1.31-.41Z"/>
  <path class="cls-5" d="M308.13,20.74c-.33,.55-.72,.91-1.38,.46,.34-.52,.72-.91,1.38-.46Z"/>
  <path class="cls-5" d="M290.34,30.78c0,.77-.41,.71-.92,.46,.17-.43,.5-.54,.92-.46Z"/>
  <path class="cls-9" d="M274.37,39.92c.24,.54-.15,.45-.45,.45-.23-.53,.1-.5,.45-.45Z"/>
  <path class="cls-5" d="M214.66,74.58c.17,.48-.12,.49-.46,.46-.13-.44,.16-.45,.46-.46Z"/>
  <path class="cls-7" d="M117.45,171.32c9.72-2.87,18.63-7.26,28.75-6.37,2.33,.2,4.39,.94,6.36,3.02-5.25,1.69-10.2,3.39-15.23,4.85-4.43,1.29-8.93,2.43-13.64,1.62-2.2-.38-4.2-1.14-6.24-3.12Z"/>
  <path class="cls-7" d="M179.21,167.6c-6.74,2.57-13.01,5.6-19.84,7.04-2.67,.57-5.37,.88-8.11,.3-.91-.19-1.76-.46-2.53-.93-.96-.59-2.32-1.2-2.24-2.33,.06-.89,1.56-.87,2.45-1.19,6.28-2.23,12.52-4.56,19.21-5.31,3.87-.43,7.54-.03,11.07,2.42Z"/>
  <path class="cls-7" d="M169.71,172.69c8.05-3.08,15.57-6.71,24.05-7.2,2.89-.16,5.72,.09,8.45,2.08-8.68,4.28-16.83,9.27-26.87,7.94-2.06-.27-3.96-.89-5.63-2.82Z"/>
  <path class="cls-7" d="M198.78,178.44c-9.6,4.44-22.94,5.39-31.98-2.31-.54-.46-1.95-.98-1.25-1.72,.68-.71,2.21-1.71,3.23-.75,4.92,4.61,10.66,3.46,16.33,2.48,2.43-.42,4.84-2.18,7.12-1.96,2.18,.22,3.79,2.81,6.02,3.83,.2,.09,.35,.28,.53,.43Z"/>
  <path class="cls-7" d="M145.39,178.12c-10.61,2.55-20.76,3.85-29.67-4.04-.5-.45-1.82-.84-.97-1.8,.7-.8,1.55-.28,2.34,.41,3.96,3.46,8.73,3.61,13.56,2.88,2.76-.41,5.48-1.19,8.18-1.95,1.04-.3,1.66-.13,2.38,.63,1.2,1.25,2.54,2.37,4.18,3.87Z"/>
  <path class="cls-7" d="M141.77,172.91c1.54-1.01,2.51-.95,3.95,.4,4.54,4.27,10.05,3.49,15.43,2.13,1.77-.45,2.96-.27,4.22,1.03,1.52,1.58,3.47,2.66,5.47,3.77-8.33,3.53-22.53,.4-29.06-7.33Z"/>
  <path class="cls-7" d="M137.82,164.06c-3.41,.67-6.47,1.47-9.48,2.45-.54,.18-1.05,.29-1.44-.21-1.92-2.42-4.7-3.08-7.66-3.52,4.15-4.09,13.8-3.33,18.58,1.29Z"/>
  <path class="cls-7" d="M163.89,164.54c-1.86,.49-3.49,.79-5.03,1.36-2.8,1.04-5.35,1.93-7.96-.74-1.03-1.06-3.03-1.17-4.61-1.71,3.41-3.63,13.3-2.83,17.59,1.09Z"/>
  <path class="cls-7" d="M172.79,163.87c4.06-2.56,12.11-1.95,15.27,1.05-2.24,.65-4.39,1.28-6.54,1.91-.47,.14-.92,.09-1.3-.19-2.11-1.55-4.54-2.29-7.43-2.77Z"/>
  <path class="cls-7" d="M197.06,163.83c4.71-2.11,9.38-1.67,14.21,.05-4.77,3.65-9.45,2.91-14.21-.05Z"/>
  <path class="cls-3" d="M290.27,136.75c.46-1.32-.13-2.12-.8-2.85-1.54-1.67-3.17-3.23-4.87-4.75-4-3.59-7.7-7.42-8.62-13.11-.31-1.9,.57-2.05,1.8-1.52,4.68,2.01,9.27,4.22,12.46,8.44,2.31,3.06,3.06,6.55,2.7,10.3-.08,.81-.22,1.98-.75,2.32-2.31,1.46-.92,3.02-.36,4.58,1.59,4.37,1.66,8.75,.16,13.15-.42,1.23-1.05,2.35-1.95,3.3-.64,.68-1.4,1.33-2.37,1-.98-.33-.54-1.35-.52-2,.11-4.48-1.84-8.54-2.47-12.85-.47-3.23-.61-6.49,.09-9.73,.29-1.34,.84-1.49,1.74-.49,1.2,1.34,2.4,2.69,3.76,4.21Z"/>
  <path class="cls-1" d="M267.7,170.7c4.37-2.63,6.2-6.68,8.26-10.67,2.08-4.03,4.68-7.8,8.36-10.68,2.88,4.12,1.69,13.75-1.44,17.14-3.68,3.97-9.79,5.95-15.18,4.21Z"/>
  <path class="cls-3" d="M286.69,110.06c4.93,3.33,8.08,7.35,9.42,12.59,1.01,3.91,1.31,7.92,.02,11.88-.45,1.39-1.2,2.62-2.14,3.72-.32,.37-.67,.98-1.26,.58-.44-.31-.51-.83-.28-1.42,3.12-8.05,1.65-13.73-5.02-18.91-1.06-.83-1.4-1.6-1.18-2.86,.3-1.69,.66-3.37,.43-5.58Z"/>
  <path class="cls-1" d="M293.32,159.44c-1.34,6.67-5.27,11-10.94,13.6-4.97,2.28-10.25,2.57-15.43,.3-.57-.25-1.86-.18-1.44-1.27,.23-.61,1.23-.26,1.88-.07,5.81,1.68,10.86,.2,15.34-3.69,1.73-1.5,2.83-3.4,3.46-5.51,.35-1.16,.91-1.55,1.96-1.81,1.61-.39,3.18-.95,5.16-1.55Z"/>
  <path class="cls-3" d="M271.78,99.66c-.1-1.63-.95-3-1.47-4.49,6.77,1.77,12.8,4.48,14.79,12.06,.7,2.68,.4,5.43,.02,8.14-.06,.41-.12,1.02-.73,.96-.64-.06-.83-.57-.77-1.17,.13-1.44,.2-2.88-.19-4.3-1.31-4.84-4.18-8.14-9.18-9.35-1.08-.26-2.3-.37-2.47-1.85Z"/>
  <path class="cls-3" d="M289.85,158.45c4.05-3.4,4.38-8.08,4.41-12.86,0-.15,0-.31-.06-.45-1.39-3.63,.31-6.29,2.97-8.94,1.52,5.61,1.41,11-.4,16.34-1.14,3.36-3.34,5.72-6.84,6.73-.03-.27-.06-.55-.09-.82Z"/>
  <path class="cls-3" d="M281.45,141.73c.39-.55,.78-1.09,1.41-1.98,.56,2.7,1.07,5.12,1.56,7.54,.03,.13-.04,.36-.14,.41-1.86,.94-2.84,3.05-4.91,3.69-.18-3.41,.63-6.61,2.08-9.66Z"/>
  <path class="cls-3" d="M279.06,132.13c-.7-.47-.96-1.16-.97-1.96,1.53,1.03,1.02-.59,.98-.91-.18-1.4-.53-2.78-.64-4.3,1.9,1.69,3.78,3.42,5.33,5.33,1.01,1.24-.53,3.02-.66,4.75-1.28-.62-1.79-1.64-2.38-2.58-.46-.73-.88-1.33-1.66-.34Z"/>
  <path class="cls-3" d="M268.01,111.53c2.17,.24,4.1,1.26,6.07,2.04,1.49,.58,.42,2.43,.81,3.65-3.05-.98-5.45-2.75-6.88-5.69Z"/>
  <path class="cls-12" d="M281.45,141.73c-1.46,3.06-2.26,6.25-2.08,9.66-.05,.83-.67,.74-1.22,.76-.59-3.77,.19-7.25,2.18-10.49,.38,.02,.75,.04,1.13,.07Z"/>
  <path class="cls-12" d="M268.01,111.53c1.43,2.95,3.83,4.71,6.88,5.69-.04,.47-.08,.93-.12,1.4-3.59-1.35-6.6-3.38-8.2-7.04,.35-.02,.7-.04,1.06-.06,0,0,.19,.06,.19,.06h.2s-.01-.06-.01-.06Z"/>
  <path class="cls-9" d="M289.85,158.45c.03,.27,.06,.55,.09,.82-.85,.53-1.73,.79-2.88,.29,.81-.89,1.91-.75,2.79-1.1Z"/>
  <path class="cls-8" d="M268.03,111.57h-.2s-.19-.05-.19-.05c.16-.22,.33-.46,.39,.05Z"/>
  <path class="cls-10" d="M221.06,177.25c-.17,0-.34,.02-.51,.03,0-.17,.02-.34,.03-.51,.4-.08,.76-.12,.48,.48Z"/>
  <path class="cls-13" d="M246.11,87.22l-.21,.07s-.21-.04-.21-.04c.13-.19,.27-.2,.42-.03Z"/>
  <path class="cls-13" d="M248,86.93c-.14,.03-.27,.07-.41,.1,.13-.07,.26-.11,.41-.1Z"/>
  <path class="cls-12" d="M250.23,159.52c-.06,.25,.03,.7-.42,.53-.36-.13-.34-.43,.02-.63,.14,0,.27,.04,.4,.09Z"/>
  <path class="cls-12" d="M178.2,97.4c1.8-.25,2.27-2.54,4.13-2.71-.29,1.95-2.28,2.48-3.28,3.86-.55,.76-1.71,1.26-1.22,2.33,.45,.99,1.62,.44,2.48,.57,.78,.11,1.55-.75,2.34-.04-1.5,1.26-4.52,1.56-5.49,.38-1.46-1.79,.36-2.99,1.03-4.37Z"/>
  <path class="cls-12" d="M185.74,91.76c.72-.16,1.21-.92,2.04-.79-1.26,2.07-3.22,3.12-5.47,3.73,.66-1.55,2.43-1.79,3.43-2.94Z"/>
  <path class="cls-12" d="M193.26,87.87c.95-1.15,2.03-2.04,3.65-1.84-1.07,.91-2.05,2-3.65,1.84Z"/>
  <path class="cls-12" d="M191.28,88.4c.73,.08,1.21-.79,1.99-.54-.06,1.12-1.1,1.19-1.78,1.58-.47,.27-.54,.15-.21-1.04Z"/>
</svg>