<svg width="24" height="24" viewBox="0 0 24 24" fill="none" xmlns="http://www.w3.org/2000/svg">
<g clip-path="url(#clip0_35_139)">
<path d="M10.5705 16.0939C10.5545 15.9961 10.5198 15.8947 10.505 15.8564L10.5013 15.8539L10.4926 15.8304C10.4048 15.6201 10.3281 15.4346 10.2563 15.2688C10.2081 15.3455 10.1636 15.4246 10.1252 15.5088C9.89639 16.0122 9.88649 16.5763 10.098 17.144L10.5272 18.1893C10.6188 18.4071 10.6979 18.5963 10.7313 18.6767L10.7474 18.7163C10.9255 19.1789 10.8687 19.6737 10.5928 20.0782C10.3207 20.4765 9.87165 20.714 9.39293 20.714C8.91298 20.714 8.46397 20.4765 8.19183 20.077C7.91969 19.6786 7.86155 19.1715 8.03597 18.7212C8.07184 18.6359 8.13122 18.4911 8.20172 18.3204L8.34645 17.9703C8.43303 17.7626 8.51839 17.5547 8.58395 17.394L8.60869 17.3334C8.65693 17.2183 8.69033 17.1366 8.69775 17.1169C8.90061 16.5973 8.88453 16.0147 8.6557 15.5088C8.61859 15.4234 8.57405 15.3443 8.52581 15.2664C8.51839 15.2824 8.51096 15.2985 8.50354 15.3146C8.28584 15.7884 8.12874 16.131 8.22399 16.5652L8.2277 16.6035L8.22522 16.6172C8.19306 16.8064 8.06689 17.1057 7.87516 17.5584L7.80713 17.718C7.70941 17.9481 7.59931 18.2128 7.48056 18.5072C7.23565 19.1368 7.31852 19.8506 7.70075 20.4121C8.08915 20.9824 8.70641 21.3103 9.39293 21.3103C10.0918 21.3103 10.714 20.9725 11.1012 20.385C11.4822 19.806 11.5515 19.0923 11.288 18.4751L11.2756 18.4416C11.1556 18.1559 11.0567 17.9159 10.975 17.7168C10.62 16.8571 10.5594 16.7111 10.5582 16.5973L10.4345 16.5936H10.5582C10.5582 16.5627 10.5631 16.5281 10.5705 16.4872C10.5854 16.4068 10.6052 16.2967 10.5705 16.0976" fill="#DE5F7B"/>
<mask id="mask0_35_139" style="mask-type:luminance" maskUnits="userSpaceOnUse" x="18" y="8" width="4" height="2">
<path d="M18.9882 8.51001H21.0107V9.77667H18.9882V8.51001Z" fill="white"/>
</mask>
<g mask="url(#mask0_35_139)">
<path d="M20.8697 9.21882C20.9365 9.17676 20.9846 9.1112 21.0032 9.03451C21.0205 8.95658 21.0082 8.87618 20.9661 8.80815C20.9253 8.74011 20.8597 8.69187 20.7818 8.67331C20.7051 8.65476 20.6259 8.66836 20.5591 8.70918C20.1373 8.97019 19.6215 8.99246 19.1799 8.78217C19.1403 8.87371 19.0971 8.97637 19.05 9.08894C19.1341 9.2015 19.2084 9.32273 19.2715 9.44767C19.8133 9.59239 20.3933 9.51198 20.8697 9.21882Z" fill="#DE5F7B"/>
</g>
<path d="M11.1841 15.2738C11.1433 15.1735 11.1037 15.0796 11.0678 14.9929C11.0344 14.9126 11.0035 14.8384 10.9751 14.769C10.62 13.918 10.5904 13.8364 10.5669 13.7102L10.5644 13.6014C10.6089 13.3836 10.5916 13.1523 10.5161 12.9433L10.4988 12.9247V12.9C10.4803 12.8554 10.4419 12.7639 10.359 12.5623L10.2588 12.3198C10.2094 12.3991 10.1648 12.4782 10.1265 12.561C10.0053 12.8307 9.94342 13.1177 9.94342 13.4146C9.94342 13.7485 9.99043 13.9415 10.1958 14.4487C10.2527 14.5909 10.3219 14.7567 10.4048 14.9534C10.4976 15.1698 10.6052 15.4246 10.7314 15.7315H10.7301C10.7747 15.818 10.8155 15.9875 10.8254 16.053C10.8687 16.2979 10.8427 16.439 10.8254 16.533C10.8217 16.5565 10.8167 16.5763 10.8167 16.5936V16.5948C10.818 16.6517 10.9145 16.8917 11.1235 17.3977C11.4748 16.8397 11.5404 16.1383 11.2855 15.5162C11.2571 15.4506 11.2311 15.3839 11.2051 15.322L11.1853 15.2738" fill="#DE5F7B"/>
<path d="M10.0436 11.7979C10.0337 11.7719 10.0238 11.7497 10.0151 11.7274C9.81723 11.8227 9.60447 11.8734 9.3917 11.8734C9.18266 11.8734 8.97608 11.8251 8.78188 11.7336C8.73858 11.8338 8.69282 11.9365 8.64581 12.0392C8.72746 12.1504 8.80043 12.2705 8.86104 12.3954C9.20493 12.4881 9.57726 12.4881 9.92238 12.3954C9.98422 12.2705 10.0572 12.1504 10.1426 12.0367L10.0436 11.7979Z" fill="#DE5F7B"/>
<path d="M17.9355 11.2659C17.9714 11.3488 18.0159 11.428 18.0641 11.5059C18.2003 11.1769 18.2744 11.0012 18.3239 10.9121L18.3127 10.9072C18.3684 10.7649 18.3598 10.666 18.3499 10.5534C18.3474 10.5064 18.3425 10.4594 18.3425 10.4099C18.3425 10.1069 18.4204 9.92256 18.575 9.55764L18.6616 9.34736C18.7049 9.24098 18.7457 9.14325 18.7828 9.05295C18.867 8.85751 18.935 8.69423 18.9944 8.55198C19.1873 8.08193 19.2479 7.87782 19.2479 7.5191C19.2479 7.11832 19.1366 6.73856 18.9239 6.41077C18.7322 6.83506 18.5676 7.2581 18.6134 7.62795C18.6295 7.74918 18.6159 7.87659 18.5738 7.99534C18.5465 8.07327 18.5045 8.1747 18.434 8.34664L18.3153 8.62991C18.2819 8.71279 18.2472 8.79443 18.2114 8.87483L18.1631 8.98616C18.1062 9.11728 18.0493 9.24593 17.9998 9.37333C17.7314 10.0462 17.6275 10.5955 17.9343 11.2622" fill="#DE5F7B"/>
<path d="M7.80714 8.87494C7.77622 8.95163 7.74158 9.02956 7.70696 9.10997C7.6686 9.19655 7.63026 9.28562 7.59191 9.37716C7.46821 9.67898 7.34204 10.0414 7.34204 10.436C7.34204 10.7119 7.4039 10.9902 7.53007 11.2648C7.56841 11.3489 7.61171 11.4293 7.6587 11.5035C7.73911 11.313 7.82323 11.1176 7.9061 10.9036C7.93332 10.8343 7.95187 10.7675 7.96548 10.7007C7.94569 10.6018 7.93579 10.5078 7.93579 10.4125C7.93579 10.3272 7.94321 10.2467 7.95806 10.1688L7.96424 10.1416C8.09413 9.72227 8.19556 9.48477 8.30317 9.23243L8.37739 9.05554C8.50357 8.75001 8.54809 8.63992 8.57655 8.56693L8.6854 8.30841C8.94145 7.68374 8.87466 6.97989 8.52089 6.42078C8.20669 7.16668 8.1436 7.36088 8.22401 7.72084L8.22772 7.74929C8.22525 7.87423 8.14608 8.06349 7.95558 8.51869L7.80714 8.87494Z" fill="#DE5F7B"/>
<path d="M11.3783 9.14458C11.7667 8.96151 12.2182 8.96027 12.6103 9.14458C12.6549 9.04067 12.6982 8.93554 12.7415 8.8341C12.6586 8.72277 12.5881 8.60526 12.5287 8.48156C12.1774 8.38631 11.81 8.38631 11.4587 8.48279C11.3969 8.60897 11.3264 8.72772 11.2472 8.83657C11.2917 8.93801 11.3363 9.04067 11.3783 9.14458Z" fill="#DE5F7B"/>
<path d="M19.2479 10.4669C19.2479 10.1713 19.1873 9.88431 19.0661 9.61466C19.0278 9.53054 18.982 9.45014 18.9325 9.37097C18.9251 9.38829 18.919 9.40436 18.9116 9.42293L18.8126 9.65918C18.6642 10.013 18.6022 10.1589 18.6022 10.41C18.6022 10.4521 18.606 10.4929 18.6085 10.5325C18.6196 10.6587 18.6307 10.8022 18.5541 11.0013L18.5145 11.104H18.512C18.46 11.2289 18.3635 11.4602 18.2634 11.7027L18.006 12.3261C17.9677 12.4177 17.9368 12.4918 17.9195 12.5364L17.9022 12.5772C17.6906 13.145 17.7017 13.7091 17.9331 14.2088C17.9702 14.293 18.016 14.3733 18.0654 14.4525C18.0877 14.4005 18.1075 14.3511 18.1272 14.3065C18.2077 14.1148 18.2646 13.9799 18.3066 13.8686C18.3487 13.7573 18.3635 13.6361 18.3487 13.5111C18.3066 13.1264 18.4341 12.8308 18.5812 12.4881C18.6073 12.4251 18.6344 12.362 18.6616 12.294L18.8534 11.8363C18.9054 11.7113 18.9523 11.6012 18.9944 11.5011C19.0464 11.3761 19.0884 11.2673 19.1243 11.1683C19.2158 10.9098 19.2479 10.7255 19.2479 10.4669Z" fill="#DE5F7B"/>
<path d="M11.0963 8.48405C11.1049 8.50755 11.1161 8.53106 11.126 8.55456C11.1717 8.4791 11.2163 8.39994 11.2534 8.31706C11.5305 7.69981 11.4723 7.0541 11.2917 6.69043L11.2608 6.61497C11.2336 6.55188 11.2089 6.49004 11.1841 6.43313C11.0901 6.2043 11.0097 6.01256 10.9417 5.84928L10.8526 5.63776C10.5768 4.9735 10.5372 4.8597 10.5372 4.57272C10.5372 3.76621 11.1903 3.11185 11.9931 3.11185C12.7972 3.11185 13.4528 3.76621 13.4528 4.57272C13.4528 4.85599 13.4119 4.97103 13.1348 5.63652L13.0421 5.85918C12.9753 6.01999 12.8961 6.20925 12.8046 6.43066L12.7947 6.4554C12.7674 6.5222 12.6871 6.71517 12.6871 6.71517C12.4879 7.22728 12.5052 7.81113 12.7341 8.31706C12.7711 8.39994 12.8145 8.4791 12.8627 8.5558C12.8726 8.53229 12.8837 8.50755 12.8936 8.48405V8.48157L12.9616 8.322C13.0495 8.10925 13.1719 7.81731 13.1719 7.74928C13.1719 7.59961 13.1633 7.51302 13.1547 7.44251C13.1274 7.19141 13.1348 7.17285 13.5405 6.2043L13.8894 5.36068C14.1553 4.71497 14.0848 4.01237 13.6989 3.43223C13.3179 2.85827 12.6797 2.51562 11.9943 2.51562C11.3214 2.51562 10.6906 2.84837 10.3071 3.40378C9.91621 3.96907 9.842 4.66178 10.0981 5.35325C10.0993 5.35696 10.124 5.42129 10.4085 6.10782C10.4555 6.22162 10.5001 6.32428 10.5409 6.42077C10.7772 6.97369 10.9206 7.31015 10.818 7.76042C10.8291 7.847 10.9429 8.11914 11.0357 8.34056L11.0951 8.48157" fill="#DE5F7B"/>
<path d="M13.4193 16.0977C13.3835 16.2968 13.4045 16.4069 13.418 16.4873C13.4255 16.5281 13.4316 16.5627 13.4316 16.5937C13.4316 16.7124 13.334 16.9499 13.094 17.5202L13.0123 17.7168C12.9134 17.9482 12.8058 18.2104 12.6883 18.5048C12.4384 19.1443 12.5163 19.8395 12.9047 20.4097C13.2869 20.9738 13.9203 21.3102 14.5969 21.3102C15.2835 21.3102 15.8994 20.9825 16.2878 20.4122C16.6701 19.8506 16.7529 19.1369 16.508 18.506C16.3893 18.2091 16.2804 17.9482 16.1815 17.7193L16.1493 17.6426V17.6414L16.0998 17.5251C15.9167 17.0897 15.7955 16.8028 15.7634 16.6171L15.7622 16.5813L15.7646 16.5653C15.8549 16.1595 15.7287 15.8688 15.521 15.3876C15.5036 15.348 15.4851 15.3047 15.4665 15.2615C15.4158 15.3418 15.37 15.4234 15.3329 15.5076L15.2983 15.5843C15.1993 15.8304 15.1498 16.0915 15.1498 16.3623C15.1498 16.6964 15.1944 16.8807 15.4022 17.3952C15.4752 17.5759 15.5654 17.7935 15.6817 18.0706L15.9526 18.7176C16.1271 19.1715 16.0689 19.6787 15.7967 20.077C15.5247 20.4765 15.0768 20.714 14.5969 20.714C14.117 20.714 13.6691 20.4765 13.397 20.0783C13.1199 19.6737 13.063 19.179 13.2399 18.7213C13.2486 18.7014 13.2845 18.6124 13.3389 18.4838L13.4601 18.1894C13.5702 17.9209 13.7001 17.6067 13.7903 17.3915L13.893 17.1404C14.1021 16.5751 14.0922 16.0098 13.8634 15.5089C13.8238 15.4234 13.7792 15.3431 13.731 15.2664L13.4848 15.8565C13.47 15.8947 13.4341 15.9962 13.4193 16.094" fill="#DE5F7B"/>
<path d="M13.7891 14.4462C13.8844 14.2161 13.8856 14.2149 13.8955 14.1902L13.9042 14.1654C14.1058 13.6521 14.0909 13.067 13.8622 12.561C13.8238 12.477 13.7792 12.3965 13.731 12.3198L13.491 12.8963L13.4737 12.9421C13.3983 13.1498 13.3798 13.3824 13.4242 13.6014L13.4094 13.7226C13.3896 13.7659 13.3772 13.7993 13.3562 13.8636C13.3129 13.9836 13.235 14.2087 13.0111 14.7665C12.9628 14.889 12.9048 15.0301 12.8391 15.1897L12.7711 15.3554C12.661 15.6152 12.5472 15.8836 12.5472 16.3054C12.5472 16.6913 12.6598 17.0723 12.8639 17.3989C13.0222 17.0216 13.1707 16.669 13.1719 16.5936C13.1719 16.5763 13.1682 16.5565 13.1633 16.533C13.1472 16.439 13.1212 16.2979 13.1633 16.053C13.1731 15.9875 13.214 15.818 13.2584 15.7315H13.2572L13.5814 14.9484C13.6803 14.7133 13.7447 14.5563 13.7891 14.4462Z" fill="#DE5F7B"/>
<path d="M7.52884 14.2137C7.56594 14.2967 7.60923 14.377 7.65872 14.4537C7.93456 13.7857 7.94941 13.7412 7.96548 13.6485C7.8591 13.119 8.10403 12.5933 8.36132 12.0367L8.37864 11.9983C8.46028 11.8251 8.53203 11.6693 8.59759 11.5072C8.76458 11.0867 8.84004 10.7552 8.84004 10.436C8.84004 10.1527 8.78066 9.88431 8.65696 9.61589C8.61861 9.53054 8.57408 9.45014 8.5246 9.37097C8.42688 9.60229 8.33287 9.82989 8.21412 10.2096C8.20051 10.274 8.19433 10.3408 8.19433 10.4125C8.19433 10.4954 8.20423 10.5807 8.22402 10.6698L8.22772 10.7094L8.22525 10.723C8.20793 10.8145 8.1832 10.9048 8.14732 10.9976C8.04218 11.2673 7.93828 11.5097 7.83685 11.7447L7.80591 11.819C7.72798 11.9958 7.65748 12.1616 7.5944 12.3211C7.32102 13.0126 7.22206 13.5445 7.5276 14.21" fill="#DE5F7B"/>
<path d="M15.2216 14.6738C15.0249 14.7678 14.811 14.816 14.5969 14.816C14.3829 14.816 14.1702 14.7678 13.9747 14.6763C13.9413 14.7579 13.8993 14.8594 13.8473 14.9831C13.9302 15.0944 14.0044 15.2144 14.0687 15.343C14.4102 15.4371 14.78 15.4371 15.1227 15.3442L15.1325 15.3245C15.1907 15.2057 15.2649 15.0895 15.3491 14.9781C15.3045 14.8705 15.2599 14.7665 15.2216 14.6738Z" fill="#DE5F7B"/>
<mask id="mask1_35_139" style="mask-type:luminance" maskUnits="userSpaceOnUse" x="18" y="11" width="4" height="2">
<path d="M18.9882 11.36H21.0107V12.6267H18.9882V11.36Z" fill="white"/>
</mask>
<g mask="url(#mask1_35_139)">
<path d="M20.9673 11.7559C20.9253 11.6878 20.8597 11.6396 20.7818 11.621C20.7051 11.6025 20.6259 11.6161 20.5604 11.6581C20.1361 11.9167 19.6202 11.9389 19.1799 11.7299C19.1515 11.7942 19.123 11.8635 19.0909 11.9377L19.05 12.0379C19.1341 12.1504 19.2084 12.2704 19.269 12.3967C19.8108 12.5401 20.3909 12.4597 20.8697 12.1666C20.9365 12.1233 20.9834 12.0577 21.0032 11.9798C21.0205 11.9031 21.0082 11.8227 20.9673 11.7559Z" fill="#DE5F7B"/>
</g>
<mask id="mask2_35_139" style="mask-type:luminance" maskUnits="userSpaceOnUse" x="18" y="14" width="4" height="2">
<path d="M18.9882 14.5266H21.0107V15.4766H18.9882V14.5266Z" fill="white"/>
</mask>
<g mask="url(#mask2_35_139)">
<path d="M20.9674 14.7047C20.9253 14.6342 20.8597 14.5872 20.7818 14.5687C20.7052 14.5501 20.6259 14.5637 20.5604 14.6058C20.1361 14.8631 19.6216 14.8865 19.1812 14.68C19.1378 14.7864 19.0946 14.889 19.0538 14.983C19.1378 15.0969 19.2084 15.2181 19.2678 15.343C19.8108 15.4877 20.3921 15.4061 20.8697 15.1117C20.9377 15.0696 20.9846 15.004 21.0033 14.9261C21.0206 14.8495 21.0082 14.7702 20.9674 14.7047Z" fill="#DE5F7B"/>
</g>
<mask id="mask3_35_139" style="mask-type:luminance" maskUnits="userSpaceOnUse" x="18" y="17" width="4" height="2">
<path d="M18.6716 17.3766H21.0107V18.6433H18.6716V17.3766Z" fill="white"/>
</mask>
<g mask="url(#mask3_35_139)">
<path d="M20.9674 17.6513C20.9254 17.582 20.8597 17.535 20.7831 17.5152C20.7064 17.4966 20.6259 17.5103 20.5591 17.5523C20.1336 17.8121 19.6179 17.8343 19.1762 17.6228C19.0983 17.8109 19.0377 17.958 18.9895 18.0755L18.9486 18.1733C19.5634 18.4565 20.2871 18.4182 20.8697 18.0595C20.9377 18.0174 20.9847 17.9518 21.0033 17.8739C21.0206 17.7972 21.0082 17.7181 20.9674 17.6513Z" fill="#DE5F7B"/>
</g>
<mask id="mask4_35_139" style="mask-type:luminance" maskUnits="userSpaceOnUse" x="17" y="15" width="5" height="7">
<path d="M17.7216 15.16H21.0106V21.4934H17.7216V15.16Z" fill="white"/>
</mask>
<g mask="url(#mask4_35_139)">
<path d="M21.0032 20.8229C21.0205 20.745 21.0082 20.6658 20.9661 20.5966C20.8808 20.4567 20.6977 20.4135 20.5566 20.5C20.0185 20.8304 19.3555 20.7809 18.8682 20.3714C18.3784 19.9607 18.2126 19.3113 18.4439 18.7176C18.4971 18.5889 18.5342 18.4986 18.5738 18.4046L18.7507 17.9767C18.8101 17.8319 18.8867 17.6476 18.9919 17.3916L19.0129 17.3421C19.034 17.2889 19.0574 17.2332 19.0821 17.1738C19.2764 16.7867 19.3432 16.1285 19.0624 15.5101C19.0253 15.4248 18.982 15.3431 18.9325 15.2627C18.6938 15.807 18.5627 16.1075 18.6109 16.4588C18.6282 16.5986 18.6134 16.731 18.5676 16.8522C18.5194 16.987 18.4191 17.2282 18.2138 17.7181L17.9058 18.4665C17.4939 19.4931 17.9305 20.3554 18.4773 20.8192C19.1675 21.4043 20.1052 21.4785 20.8697 21.0073C20.9364 20.9652 20.9847 20.8996 21.0032 20.8229Z" fill="#DE5F7B"/>
</g>
<path d="M18.7853 14.9508C18.8508 14.8012 18.9214 14.6379 18.9956 14.4524C19.0315 14.3609 19.0686 14.2668 19.1057 14.1666C19.3085 13.6496 19.2937 13.0658 19.0649 12.5635C19.0265 12.4782 18.982 12.3991 18.9325 12.3198L18.9016 12.394C18.8744 12.4621 18.8459 12.5277 18.8187 12.5908C18.6802 12.9123 18.5713 13.1659 18.6059 13.4826C18.6245 13.6484 18.6059 13.8104 18.549 13.9601C18.507 14.0727 18.4489 14.2124 18.3647 14.4078C18.3252 14.5056 18.2769 14.6169 18.2225 14.7468L18.2139 14.7703L18.0852 15.082C18.0444 15.1797 18.0221 15.2317 18.006 15.2725L17.9875 15.3158C17.9689 15.3615 17.9491 15.4098 17.9059 15.5162C17.6671 15.9838 17.6795 16.7742 18.0666 17.3989C18.2089 17.0587 18.2856 16.8707 18.3252 16.7618C18.3561 16.6778 18.366 16.5886 18.3548 16.4934C18.2967 16.0691 18.4464 15.7265 18.695 15.1587L18.7853 14.9508Z" fill="#DE5F7B"/>
<path d="M17.1995 2.51562C16.5228 2.51562 15.8908 2.85085 15.5073 3.4112C15.1202 3.97774 15.0446 4.68529 15.3008 5.35201C15.3057 5.36438 15.4566 5.73053 15.6125 6.10782L15.7263 6.38489C15.8302 6.636 15.9365 6.89577 15.9489 6.92175C16.0936 7.2916 16.0503 7.56497 16.0306 7.69733C16.0269 7.7196 16.0231 7.73691 16.0219 7.75052C16.0244 7.8235 16.137 8.0944 16.2804 8.43828L16.3299 8.55703C16.3782 8.48034 16.4227 8.39993 16.4585 8.3183L16.5773 7.91132L16.461 8.31706C16.5822 8.04863 16.6465 7.753 16.6465 7.46231C16.6465 7.09863 16.5612 6.83021 16.3942 6.4319C16.3521 6.3317 16.3052 6.22409 16.2545 6.10534C16.1951 5.9668 16.1283 5.81218 16.0553 5.63776C15.9897 5.47695 15.918 5.3013 15.8413 5.10215C15.6644 4.6457 15.7213 4.15215 15.9972 3.74889C16.2681 3.34935 16.7171 3.11185 17.1971 3.11185C18.001 3.11185 18.6542 3.76621 18.6542 4.57272C18.6542 4.70012 18.6356 4.83125 18.6022 4.95989C18.5775 5.05391 18.5503 5.11452 18.5478 5.12193L18.3351 5.63652C18.2782 5.77259 18.2151 5.9235 18.1557 6.06823L17.9046 6.67682C17.7228 7.03431 17.6584 7.69362 17.9367 8.31706C17.9739 8.39993 18.0172 8.4791 18.0654 8.55703C18.0691 8.54713 18.0728 8.53848 18.0778 8.52858L18.1941 8.24655C18.2633 8.08203 18.3041 7.98431 18.3301 7.90762C18.3585 7.82845 18.3672 7.7431 18.3561 7.66146C18.2942 7.15677 18.5416 6.61992 18.7803 6.10162C19.0117 5.5957 19.2479 5.07864 19.2479 4.57272C19.2479 3.43841 18.3289 2.51562 17.1995 2.51562Z" fill="#DE5F7B"/>
<path d="M17.8205 6.20183L17.917 5.96803C17.9603 5.86289 18.0048 5.75652 18.0481 5.65261C17.5051 5.40274 16.8842 5.40397 16.3435 5.65384C16.3967 5.77878 16.4462 5.89629 16.492 6.00267C16.5229 6.07195 16.5514 6.13874 16.5773 6.20183C16.9682 6.01504 17.4296 6.01504 17.8205 6.20183Z" fill="#DE5F7B"/>
<path d="M17.8205 15.0437C17.8279 15.0252 17.8366 15.0041 17.8453 14.9818L17.9479 14.7345C17.8638 14.6207 17.7896 14.5019 17.729 14.3782C17.3517 14.2829 16.9596 14.3671 16.6206 14.466C16.5699 14.5588 16.513 14.6503 16.4474 14.7369C16.4871 14.8297 16.5291 14.9323 16.5748 15.0437C16.9658 14.8569 17.4284 14.8569 17.8205 15.0437Z" fill="#DE5F7B"/>
<path d="M17.8204 12.0961L17.9478 11.7881C17.8625 11.6755 17.7883 11.5543 17.7277 11.4281C17.3776 11.3353 17.0127 11.3366 16.6651 11.4293C16.6021 11.5592 16.529 11.678 16.4462 11.7893L16.5736 12.0973C16.9657 11.9105 17.4284 11.9105 17.8204 12.0961Z" fill="#DE5F7B"/>
<path d="M16.5204 9.01219C16.5403 9.05673 16.56 9.10373 16.5798 9.14951C16.9658 8.96395 17.4235 8.96395 17.8143 9.14703C17.8502 9.0592 17.8873 8.97138 17.9269 8.88232L17.9442 8.83902C17.8589 8.72275 17.7871 8.604 17.729 8.48153C17.3814 8.38876 17.0079 8.38876 16.664 8.48277C16.6033 8.60895 16.5316 8.7277 16.4474 8.83902C16.4722 8.89716 16.4969 8.95406 16.5204 9.01219Z" fill="#DE5F7B"/>
<path d="M15.7745 10.2047C15.7337 9.99441 15.6372 9.77051 15.5036 9.46003C15.4912 9.43158 15.4776 9.40066 15.4652 9.37097C15.4158 9.45014 15.37 9.53054 15.3329 9.61466C15.0051 10.3309 15.1795 10.9729 15.3935 11.506C15.4541 11.6532 15.5221 11.8103 15.61 11.9983L15.631 12.0441C15.8859 12.5995 16.1271 13.1252 16.0231 13.6485C16.0429 13.7573 16.064 13.8155 16.3311 14.4549C16.3794 14.377 16.4239 14.2967 16.4598 14.2137L16.461 14.21C16.6911 13.7103 16.7084 13.1289 16.508 12.6131L16.1803 11.8214C15.8339 10.9778 15.7758 10.7898 15.7633 10.7217L15.7621 10.6859L15.7646 10.6698C15.8005 10.5065 15.8042 10.363 15.7745 10.2059" fill="#DE5F7B"/>
<path d="M16.3287 17.399C16.6726 16.8509 16.7443 16.1669 16.508 15.5584L16.4895 15.5163C16.4598 15.4446 16.4314 15.3727 16.4029 15.306L16.3893 15.2739C16.3089 15.0796 16.2396 14.9139 16.1815 14.7691C15.8029 13.8612 15.7943 13.8414 15.7634 13.6707L15.7621 13.6336L15.7646 13.6175C15.8537 13.2167 15.678 12.7764 15.469 12.3113C15.4183 12.3904 15.37 12.4746 15.3304 12.5611C15.0991 13.0733 15.088 13.6533 15.3008 14.194L15.4046 14.4451C15.4627 14.5786 15.537 14.758 15.6162 14.9472C15.6657 15.0697 15.7139 15.181 15.7584 15.2837C15.9675 15.7686 16.1197 16.1212 16.0231 16.5962C16.0552 16.7521 16.1715 17.0266 16.3287 17.399Z" fill="#DE5F7B"/>
<path d="M16.0294 10.1576C16.0628 10.3395 16.0616 10.5114 16.0244 10.6982C16.0417 10.7637 16.1073 10.9567 16.3299 11.5059C16.3733 11.4367 16.4129 11.3662 16.4474 11.2907L16.4598 11.2635C16.8074 10.5102 16.6182 9.91889 16.3955 9.37833C16.3597 9.28926 16.3213 9.20267 16.2829 9.11609C16.2483 9.03568 16.2137 8.95528 16.1815 8.87364L16.0417 8.53842C15.8525 8.08444 15.7647 7.87787 15.7634 7.7517C15.7634 7.72819 15.7684 7.69727 15.7746 7.65645C15.7931 7.53894 15.8265 7.31999 15.7127 7.02683C15.7078 7.01817 15.6595 6.90189 15.4863 6.4838L15.4629 6.42566C15.2575 6.75222 15.1498 7.12579 15.1498 7.51915C15.1498 7.76035 15.1796 7.94343 15.2575 8.17598C15.2946 8.29102 15.3454 8.41224 15.4022 8.55203C15.4344 8.63119 15.4703 8.7153 15.5086 8.80931L15.6125 9.05548C15.6583 9.16433 15.7004 9.26329 15.7411 9.35729C15.881 9.68139 15.9823 9.91642 16.0294 10.1552" fill="#DE5F7B"/>
<path d="M15.1264 12.3953C15.1882 12.2692 15.2612 12.1504 15.344 12.0391C15.2934 11.929 15.2488 11.8276 15.208 11.7336C15.0138 11.8239 14.8059 11.8709 14.5969 11.8709C14.3866 11.8709 14.1751 11.8226 13.9797 11.7299C13.9599 11.7756 13.9401 11.8214 13.9203 11.8672C13.8955 11.9241 13.8721 11.981 13.8485 12.0378C13.9314 12.1492 14.0044 12.2692 14.0675 12.3953C14.4114 12.4881 14.7825 12.4881 15.1264 12.3953Z" fill="#DE5F7B"/>
<path d="M13.9747 17.6228C13.9054 17.7885 13.825 17.9852 13.7471 18.172C14.2852 18.4218 14.9024 18.4218 15.4442 18.1732L15.443 18.1708C15.354 17.9567 15.2784 17.7786 15.2154 17.624C15.0212 17.7168 14.8084 17.7663 14.5969 17.7663C14.3829 17.7663 14.1702 17.7168 13.9747 17.6228Z" fill="#DE5F7B"/>
<path d="M13.9822 8.78336C13.9376 8.89469 13.8943 8.99983 13.8522 9.09632C13.9339 9.20764 14.0057 9.31897 14.0613 9.43154L14.07 9.45009C14.4139 9.54163 14.7849 9.54163 15.1276 9.45009C15.1882 9.32392 15.2612 9.20394 15.3453 9.09014L15.2711 8.91077C15.2513 8.86501 15.234 8.82295 15.2166 8.78088C15.02 8.8749 14.8072 8.92438 14.5957 8.92438C14.3854 8.92438 14.1764 8.87614 13.9822 8.78336Z" fill="#DE5F7B"/>
<path d="M13.1335 8.58295C13.1002 8.66459 13.063 8.74747 13.026 8.83158L12.9839 8.92683C12.9208 9.07032 12.8565 9.21875 12.7971 9.37091C12.5782 9.9226 12.3988 10.5782 12.7228 11.2585C12.7612 11.3414 12.8095 11.423 12.8627 11.5059C12.9777 11.2239 13.1372 10.8206 13.1694 10.6982C13.1323 10.5139 13.1335 10.3481 13.1633 10.1824H13.162V10.1799H13.1633C13.2103 9.91765 13.3266 9.65046 13.4811 9.3004L13.5987 9.03197C13.6593 8.88972 13.7248 8.73262 13.7941 8.55573C13.8312 8.46543 13.8659 8.37142 13.9042 8.27123C14.1454 7.65892 14.0737 6.9724 13.7285 6.42566C13.3934 7.22846 13.3934 7.23836 13.4119 7.41524C13.4205 7.48698 13.4316 7.58594 13.4316 7.74923C13.4316 7.86426 13.3476 8.06961 13.1991 8.42214L13.1335 8.58171" fill="#DE5F7B"/>
<path d="M13.2362 12.8345C13.2387 12.832 13.2387 12.8295 13.2399 12.8271L13.2498 12.8035L13.5813 12.0032C13.6135 11.9241 13.6481 11.8449 13.6828 11.7645C13.7211 11.6767 13.7595 11.5888 13.7953 11.501C14.0118 10.9778 14.1949 10.4075 13.8943 9.68636L13.8596 9.61461C13.8238 9.53297 13.7805 9.45257 13.731 9.37463L13.7186 9.40557C13.4651 9.97705 13.3401 10.264 13.4279 10.6698L13.4316 10.7093L13.4292 10.7205C13.4119 10.8244 13.2956 11.1336 13.0135 11.8214C12.9381 12.0069 12.8639 12.1863 12.8045 12.3273L12.7439 12.472C12.7142 12.5438 12.6944 12.5908 12.6882 12.6056C12.4853 13.1227 12.5015 13.7066 12.7315 14.2124C12.7699 14.2941 12.8132 14.372 12.859 14.4475C13.0135 14.0554 13.0766 13.8785 13.1113 13.7771C13.1347 13.7127 13.1484 13.6731 13.167 13.631C13.1187 13.3701 13.1409 13.0942 13.2325 12.8456L13.2362 12.8345Z" fill="#DE5F7B"/>
<path d="M12.619 6.20177C12.6883 6.03478 12.7489 5.88759 12.8033 5.7577L12.8466 5.65256C12.3097 5.40516 11.6764 5.40516 11.1408 5.65379L11.1804 5.74904C11.2348 5.88016 11.2979 6.03108 11.3697 6.20177C11.763 6.01623 12.2256 6.01623 12.619 6.20177Z" fill="#DE5F7B"/>
<path d="M11.3697 15.045C11.763 14.8582 12.2269 14.8582 12.619 15.0438C12.6647 14.9312 12.7068 14.8272 12.7452 14.7333C12.6598 14.6195 12.5881 14.502 12.5275 14.3783C12.1811 14.2842 11.8075 14.2842 11.4624 14.3783C11.4018 14.5032 11.3276 14.6244 11.2422 14.737C11.2633 14.7877 11.2843 14.8371 11.3066 14.8928C11.3276 14.9411 11.3486 14.993 11.3697 15.045Z" fill="#DE5F7B"/>
<path d="M12.6202 12.0973C12.6585 12.0033 12.7018 11.8981 12.7476 11.7893C12.6573 11.6693 12.5818 11.5481 12.52 11.4281C12.1773 11.3378 11.8087 11.339 11.4686 11.4293C11.4055 11.5518 11.33 11.6718 11.241 11.7905L11.3696 12.0961C11.763 11.9105 12.2256 11.9105 12.6202 12.0973Z" fill="#DE5F7B"/>
<path d="M11.1247 14.4549C11.1742 14.377 11.2187 14.2965 11.2559 14.2124C11.4859 13.7078 11.502 13.1252 11.3029 12.6118C11.288 12.5722 11.2583 12.5017 11.22 12.409L10.9738 11.8226C10.6337 11.0149 10.5743 10.807 10.5594 10.7217L10.5582 10.6858L10.5607 10.6697C10.6003 10.4904 10.604 10.3642 10.5706 10.2084C10.531 10.0179 10.4357 9.77417 10.2638 9.36597C10.2118 9.44637 10.1661 9.52925 10.129 9.61337L10.0931 9.69129C9.8123 10.3716 9.97682 10.9592 10.1982 11.4936C10.2094 11.5183 10.2292 11.5678 10.2836 11.6989L10.5978 12.4622C10.6658 12.6266 10.7202 12.759 10.7388 12.8023L10.7561 12.8308V12.8456C10.8501 13.0991 10.8724 13.3824 10.8192 13.6484C10.8365 13.751 10.86 13.8166 11.1247 14.4549Z" fill="#DE5F7B"/>
<path d="M10.8563 8.58173L10.7969 8.44071C10.646 8.07951 10.5594 7.87046 10.5582 7.75171V7.73563L10.5619 7.71708C10.6535 7.34351 10.5359 7.0689 10.3022 6.52339C10.2885 6.49123 10.2749 6.45783 10.2601 6.42444C9.91003 6.98232 9.84447 7.68368 10.0993 8.30959L10.1995 8.54956C10.2786 8.73758 10.3492 8.90334 10.4135 9.05178C10.6547 9.62449 10.7722 9.91025 10.8254 10.1552C10.8625 10.3382 10.8613 10.499 10.8192 10.6994C10.8402 10.786 10.9132 11 11.1235 11.5084C11.1767 11.4268 11.2262 11.3439 11.267 11.2598C11.5898 10.5807 11.4105 9.92385 11.1915 9.37216C11.126 9.20145 11.0542 9.03817 10.98 8.87242C10.9367 8.77469 10.8947 8.67821 10.8563 8.58296" fill="#DE5F7B"/>
<path d="M9.91864 9.45011L9.92854 9.43154C9.98668 9.31156 10.0597 9.19652 10.145 9.08396C10.1042 8.98995 10.0609 8.88728 10.0151 8.77966C9.81844 8.87243 9.60569 8.92192 9.39169 8.92192C9.17769 8.92192 8.96617 8.87243 8.76949 8.77966C8.74227 8.84646 8.70393 8.94417 8.64331 9.09014C8.72743 9.20394 8.80165 9.32393 8.86102 9.45011C9.2049 9.54164 9.57476 9.54164 9.91864 9.45011Z" fill="#DE5F7B"/>
<path d="M10.009 14.6788C9.81355 14.7703 9.60203 14.8186 9.3905 14.8186C9.18146 14.8186 8.97364 14.7716 8.7782 14.6801C8.73367 14.7939 8.68914 14.8989 8.64832 14.9918C8.73243 15.1043 8.80294 15.2219 8.86231 15.3431C9.20619 15.4371 9.57729 15.4371 9.91993 15.3431C9.98302 15.2157 10.0548 15.0969 10.1364 14.9868C10.0894 14.873 10.0473 14.7703 10.009 14.6788Z" fill="#DE5F7B"/>
<path d="M8.76952 17.6228C8.71385 17.7588 8.64952 17.9146 8.58521 18.0693L8.54315 18.1732C9.08495 18.4218 9.7022 18.4218 10.2403 18.1732L10.0139 17.6228C9.81847 17.7168 9.60447 17.765 9.39171 17.765C9.17771 17.765 8.9662 17.7168 8.76952 17.6228Z" fill="#DE5F7B"/>
<path d="M8.38356 14.9535C8.44169 14.8174 8.51963 14.638 8.59013 14.4537C8.75836 14.0208 8.84001 13.6818 8.84001 13.4147C8.84001 13.1178 8.77815 12.8308 8.6557 12.5611C8.61734 12.4746 8.57034 12.3916 8.51963 12.3125C8.3081 12.7752 8.13493 13.2142 8.22399 13.6175L8.22769 13.6571L8.22522 13.6695C8.19801 13.8228 8.19677 13.8315 7.80713 14.7703C7.74899 14.9139 7.67971 15.0821 7.59932 15.2751L7.49912 15.5163C7.4954 15.5249 7.34326 15.8589 7.34326 16.3054C7.34326 16.6927 7.45582 17.0748 7.65993 17.4015C7.81702 17.0291 7.9333 16.7533 7.96545 16.5961C7.86279 16.089 8.04215 15.6981 8.26851 15.2058C8.30563 15.1254 8.34397 15.0413 8.38356 14.9535Z" fill="#DE5F7B"/>
<path d="M5.19958 6.08555L5.20701 6.10162C5.47295 6.68548 5.72158 7.2347 5.61768 7.75175C5.63376 7.81237 5.69561 7.99915 5.92198 8.55827C6.27328 8.00657 6.3376 7.33613 6.08773 6.68425C6.0766 6.65703 6.05681 6.61126 6.01846 6.51725L5.54469 5.37057C5.48532 5.22832 5.44451 5.1306 5.44079 5.1207C5.43831 5.11451 5.41234 5.05391 5.3876 4.95742C5.35297 4.83125 5.33565 4.70012 5.33565 4.57272C5.33565 3.76621 5.98877 3.11185 6.79157 3.11185C7.27275 3.11185 7.72055 3.34935 7.99268 3.74889C8.26852 4.15215 8.32419 4.6457 8.1473 5.10338C8.1473 5.10586 8.1139 5.18502 8.06443 5.30625L7.78611 5.98164C7.71683 6.14863 7.65127 6.30943 7.59932 6.43438L7.50283 6.66693C7.31234 7.04668 7.2505 7.69733 7.53005 8.31706C7.56716 8.39994 7.61045 8.48034 7.65869 8.5558L7.71683 8.41849C7.86032 8.07461 7.95805 7.84206 7.9667 7.76042C7.86775 7.29655 7.97783 7.03802 8.37367 6.10534L8.44047 5.94577C8.51344 5.77382 8.59509 5.58086 8.68538 5.36068C8.95134 4.71374 8.88083 4.01113 8.49242 3.42975C8.11143 2.85703 7.47438 2.51562 6.79157 2.51562C5.66097 2.51562 4.74066 3.43841 4.74066 4.57272C4.74066 5.07246 4.97445 5.58704 5.19958 6.08555Z" fill="#DE5F7B"/>
<path d="M7.54614 5.88141L7.64139 5.65133C7.10206 5.40394 6.48358 5.40394 5.94177 5.65257L6.16815 6.20179C6.56151 6.01501 7.02414 6.01624 7.41502 6.20302C7.45584 6.10407 7.50037 5.99521 7.54614 5.88141Z" fill="#DE5F7B"/>
<path d="M6.16564 9.15078C6.55777 8.96276 7.01793 8.96276 7.40757 9.14831C7.4286 9.1013 7.44963 9.05183 7.47066 9.00482C7.49416 8.94792 7.51767 8.89349 7.54117 8.83907C7.45829 8.72773 7.38531 8.60775 7.32469 8.48158C6.98329 8.3888 6.61219 8.38757 6.26584 8.48035C6.20275 8.60651 6.1273 8.72897 6.04071 8.84525C6.084 8.9541 6.1273 9.05801 6.16564 9.15078Z" fill="#DE5F7B"/>
<path d="M6.10627 11.9451C6.12607 11.9934 6.14709 12.0441 6.16936 12.096C6.559 11.9117 7.01793 11.9105 7.40757 12.0935C7.44963 11.9921 7.49293 11.8895 7.53869 11.7818C7.45953 11.6767 7.38778 11.5592 7.32469 11.4305C6.97711 11.3365 6.61219 11.3353 6.26213 11.4281C6.20028 11.5555 6.12606 11.6755 6.04071 11.788C6.06174 11.84 6.08277 11.8895 6.10627 11.9451Z" fill="#DE5F7B"/>
<path d="M7.54117 14.7369C7.45581 14.6231 7.3816 14.5019 7.32222 14.3757C6.97092 14.2829 6.60601 14.2842 6.25719 14.3782C6.19657 14.5044 6.12359 14.6243 6.04071 14.7345C6.084 14.8371 6.12482 14.9336 6.16317 15.0227L6.17059 15.0424C6.56272 14.8569 7.02411 14.8569 7.415 15.0437C7.46076 14.9323 7.50282 14.8296 7.54117 14.7369Z" fill="#DE5F7B"/>
<path d="M4.89525 11.2537C4.91628 11.3007 4.95586 11.3922 4.99916 11.4998C5.06224 11.6507 5.14017 11.8387 5.20821 12.0045L5.32696 12.2952C5.35293 12.3583 5.38015 12.4201 5.40612 12.4795C5.53601 12.7813 5.64734 13.0424 5.64734 13.3602C5.64734 13.4542 5.63744 13.5495 5.61642 13.6485C5.64734 13.8018 5.71537 13.9602 5.85515 14.2905C5.87617 14.3399 5.89844 14.3943 5.92318 14.4525C5.97142 14.3758 6.01472 14.2967 6.05306 14.2125C6.17553 13.9429 6.23984 13.6485 6.23984 13.3578C6.23984 12.9421 6.12604 12.6675 6.00482 12.3768L5.98379 12.3261C5.94173 12.2247 5.90339 12.1319 5.86752 12.0466C5.83412 11.9649 5.8032 11.8907 5.77474 11.8214L5.67084 11.5728C5.39747 10.9147 5.38634 10.8887 5.35788 10.7217L5.35293 10.697L5.35912 10.671C5.44571 10.2851 5.33067 10.0154 5.1711 9.64434C5.14389 9.58125 5.11543 9.5157 5.08698 9.44767L5.06966 9.40313C5.06472 9.392 5.06101 9.38211 5.05606 9.37097C5.00658 9.4489 4.96081 9.53054 4.9237 9.61466C4.69734 10.1082 4.68867 10.6735 4.89525 11.2537Z" fill="#DE5F7B"/>
<path d="M5.92197 17.4014C6.12731 17.0735 6.23988 16.6926 6.23988 16.3054C6.23988 15.9429 6.15824 15.6844 5.9863 15.2725L5.92445 15.1253C5.87868 15.0165 5.8292 14.899 5.77478 14.7703L5.76488 14.7443C5.70797 14.6083 5.6585 14.492 5.61644 14.3918C5.46182 14.0256 5.39131 13.8586 5.35791 13.6694L5.35297 13.6446L5.35791 13.6199C5.37894 13.5284 5.38884 13.443 5.38884 13.3602C5.38884 13.0954 5.29112 12.869 5.16742 12.5834C5.14144 12.5227 5.11423 12.4597 5.08702 12.394L5.05733 12.3198C5.00909 12.3965 4.96455 12.477 4.92621 12.5623C4.64665 13.1808 4.71345 13.8401 4.90271 14.2174C4.93858 14.3028 4.96827 14.377 4.99919 14.445L5.00909 14.4697C5.08207 14.6466 5.14763 14.8049 5.20824 14.9459C5.60407 15.8786 5.71416 16.1434 5.61768 16.5961C5.65231 16.747 5.78467 17.0723 5.92197 17.4014Z" fill="#DE5F7B"/>
<mask id="mask5_35_139" style="mask-type:luminance" maskUnits="userSpaceOnUse" x="2" y="15" width="5" height="7">
<path d="M2.96063 15.16H6.3215V21.4934H2.96063V15.16Z" fill="white"/>
</mask>
<g mask="url(#mask5_35_139)">
<path d="M3.12019 21.0073C3.8797 21.4748 4.81485 21.4031 5.50384 20.8229C6.19161 20.2441 6.42539 19.3336 6.09883 18.5036C6.01101 18.2735 5.88483 17.978 5.77598 17.7181C5.5793 17.253 5.39376 16.8127 5.35789 16.6185L5.35294 16.5912L5.35912 16.5665C5.43828 16.2189 5.38262 16.0297 5.05853 15.2566C5.00287 15.3407 4.95587 15.4261 4.91504 15.5126C4.59714 16.1941 4.78639 16.8807 4.98802 17.4027C5.07338 17.6279 5.17233 17.8455 5.26758 18.0546L5.32695 18.1857C5.48776 18.5469 5.6461 18.9254 5.6461 19.2532C5.6461 19.7889 5.36654 20.2639 4.90144 20.5248C4.43386 20.7883 3.88464 20.7772 3.43191 20.4989C3.38366 20.4691 3.32924 20.4556 3.27605 20.4556C3.17585 20.4556 3.07813 20.5051 3.02247 20.5966C2.98041 20.6659 2.96804 20.745 2.98659 20.8229C3.00515 20.8997 3.05215 20.9652 3.12019 21.0073Z" fill="#DE5F7B"/>
</g>
<path d="M6.05681 11.2623C6.28936 10.7551 6.29925 10.2059 6.0865 9.62947C6.08155 9.6171 6.03949 9.52062 5.98259 9.3796C5.9294 9.25962 5.86507 9.10376 5.79704 8.93552L5.77106 8.87615C5.51625 8.25396 5.37647 7.88286 5.35791 7.77524L5.35297 7.74927L5.35915 7.72328C5.44698 7.33735 5.27627 6.88957 5.06351 6.41333C4.85199 6.74113 4.74066 7.1184 4.74066 7.51919C4.74066 7.88409 4.81612 8.12284 4.993 8.55578L5.20329 9.05552C5.23793 9.13097 5.27257 9.21509 5.30844 9.30291L5.33688 9.37218C5.36038 9.43032 5.38512 9.48722 5.40863 9.54041C5.57068 9.91892 5.71168 10.2467 5.61644 10.7032C5.63747 10.817 5.65602 10.8627 5.90961 11.4726L5.92445 11.5072C5.97269 11.4293 6.01846 11.3489 6.05557 11.2648" fill="#DE5F7B"/>
<mask id="mask6_35_139" style="mask-type:luminance" maskUnits="userSpaceOnUse" x="2" y="17" width="4" height="2">
<path d="M2.96063 17.3766H5.05484V18.6433H2.96063V17.3766Z" fill="white"/>
</mask>
<g mask="url(#mask6_35_139)">
<path d="M3.20557 17.5152C3.12887 17.5349 3.06455 17.582 3.02373 17.65C2.98044 17.718 2.96807 17.7971 2.98662 17.8739C3.00518 17.9518 3.05218 18.0173 3.12022 18.0594C3.70036 18.4181 4.42399 18.4552 5.03753 18.1745L5.03135 18.1634C4.95342 17.9902 4.87549 17.8121 4.80127 17.629C4.36832 17.8343 3.85251 17.8121 3.42946 17.5522C3.36266 17.5102 3.28226 17.4978 3.20557 17.5152Z" fill="#DE5F7B"/>
</g>
<mask id="mask7_35_139" style="mask-type:luminance" maskUnits="userSpaceOnUse" x="2" y="14" width="4" height="2">
<path d="M2.96063 14.5266H5.05484V15.4766H2.96063V14.5266Z" fill="white"/>
</mask>
<g mask="url(#mask7_35_139)">
<path d="M4.81361 14.6764C4.37325 14.8866 3.85619 14.8656 3.43067 14.6059C3.36264 14.5638 3.28347 14.5514 3.20678 14.5687C3.13008 14.5872 3.06452 14.6343 3.02247 14.7023C2.98041 14.7703 2.96804 14.8495 2.98659 14.9262C3.00515 15.0041 3.05215 15.0697 3.12019 15.1117C3.59395 15.4037 4.17162 15.4865 4.71095 15.3455C4.77403 15.2206 4.84825 15.0969 4.93978 14.9757C4.9002 14.8841 4.85814 14.7828 4.81361 14.6764Z" fill="#DE5F7B"/>
</g>
<mask id="mask8_35_139" style="mask-type:luminance" maskUnits="userSpaceOnUse" x="2" y="11" width="4" height="2">
<path d="M2.96063 11.36H5.05484V12.6267H2.96063V11.36Z" fill="white"/>
</mask>
<g mask="url(#mask8_35_139)">
<path d="M2.98659 11.9798C3.00515 12.0577 3.05215 12.1233 3.12019 12.1666C3.59766 12.4597 4.17781 12.5401 4.72208 12.3954C4.78392 12.2679 4.8569 12.148 4.94102 12.0354C4.89896 11.934 4.85567 11.8288 4.81361 11.7287C4.37325 11.9389 3.85619 11.9179 3.43067 11.6581C3.36264 11.6161 3.28347 11.6025 3.20678 11.621C3.13008 11.6396 3.06452 11.6878 3.02247 11.7546C2.98041 11.8227 2.96804 11.9031 2.98659 11.9798Z" fill="#DE5F7B"/>
</g>
<mask id="mask9_35_139" style="mask-type:luminance" maskUnits="userSpaceOnUse" x="2" y="8" width="4" height="2">
<path d="M2.96063 8.51001H5.05484V9.77667H2.96063V8.51001Z" fill="white"/>
</mask>
<g mask="url(#mask9_35_139)">
<path d="M3.42943 8.7104C3.36264 8.66834 3.28347 8.65473 3.20678 8.67328C3.13008 8.69183 3.06452 8.74008 3.02247 8.80811C2.98041 8.87615 2.96804 8.95655 2.98659 9.03448C3.00515 9.11117 3.05215 9.17673 3.12019 9.21879C3.59642 9.51196 4.17533 9.59236 4.71837 9.44763C4.77898 9.32517 4.85195 9.20518 4.93731 9.09015L4.80866 8.78337C4.3683 8.99242 3.85371 8.96892 3.42943 8.7104Z" fill="#DE5F7B"/>
</g>
</g>
<defs>
<clipPath id="clip0_35_139">
<rect width="19" height="19" fill="white" transform="translate(2.5 2.5)"/>
</clipPath>
</defs>
</svg>
