<?xml version="1.0" encoding="UTF-8"?>
<svg id="Layer_1" data-name="Layer 1" xmlns="http://www.w3.org/2000/svg" viewBox="0 0 414 200">
  <defs>
    <style>
      .cls-1 {
        fill: #f7b7d3;
      }

      .cls-2 {
        fill: #00bff3;
      }

      .cls-3 {
        fill: #ebe2cc;
      }

      .cls-4 {
        fill: #ebe8df;
      }

      .cls-5 {
        fill: #edeaea;
      }

      .cls-6 {
        fill: #fff9b8;
      }

      .cls-7 {
        fill: #fff200;
      }

      .cls-8 {
        fill: #fbb040;
      }

      .cls-9 {
        fill: #fdfcfc;
      }

      .cls-10 {
        fill: #665f56;
      }

      .cls-11 {
        fill: #9ed2f1;
      }

      .cls-12 {
        fill: #bbad98;
      }

      .cls-13 {
        fill: #d0c8c5;
      }

      .cls-14 {
        fill: #43403b;
      }

      .cls-15 {
        fill: #36302f;
      }

      .cls-16 {
        fill: #4c4744;
      }
    </style>
  </defs>
  <path class="cls-14" d="M112.11,13.71c.54-.17,.84,.17,1.11,.71,2.57,5.05,5.11,10.12,7.74,15.12,3.91,7.44,7.79,14.9,11.84,22.22,3.34,6.05,6.78,12.03,10.41,17.81,4.56,7.25,9.27,14.36,14.6,20.81,1.67,2.02,3.37,1.49,5.2,.76,1.12-.45,2.25-.89,3.39-1.27,.9-.29,1.44-.91,1.83-1.98,1.31-3.66,3.22-6.74,5.88-9.12,3.39-3.04,8.15-3.69,11.65-.71,2.84,2.42,5.49,3.35,8.62,1.22,.56-.38,1.24-.52,1.89-.63,2.75-.46,3.95-2.56,5.08-5.64,1.69-4.6,4.23-8.67,9.04-8.71,3.15-.03,5.48,2.11,7.5,4.65,1.06,1.34,1.97,.89,3.02,.63,1.03-.26,1.41-1.08,1.5-2.43,.15-2.23,.28-4.52,1.18-6.56,.11-.12,.21-.25,.32-.37,.27-.2,.54-.4,.81-.6,.13-.19,.26-.38,.39-.57,.21-.33,.43-.66,.64-.99l.69,.93c-2.17,3.62-3.87,7.62-2.58,12.13,1.19,4.19,2.17,8.49,3.65,12.53,.58,1.59,.69,4.07,2.65,4.4,1.76,.29,3.55,.14,5.32-.15,.8-.13,1.28-.63,.96-1.64-.52-1.65-.86-3.35-1.49-4.99-1.76-4.59-2.86-9.47-2.46-14.62,.13-1.71,.77-3.53,2.63-3.1,1.32,.3,2.47-.09,3.65-.58,1.03-.42,2.82-.41,2.86-1.55,.05-1.7-1.58-2.59-2.71-3.55-.1-.09-.27-.06-.38-.14-2.44-1.81-5.17-1.52-7.84-1.71l.31-1.01c.29-.05,.58-.11,.86-.16,.91,.54,1.81,.57,2.71-.03,.73-.2,1.35,.25,2.01,.48,.24,.45,.62,.42,.98,.43,2.29,.43,3.81,2.41,5.35,4.24,.68,.81,1.15,1.03,2.03,.69,2.5-.95,5.04-1.78,7.56-2.65,.69,.24,1.25-.16,1.81-.56,1.13-.94,2.47-1.02,3.75-1.37,.94-.05,1.87-.15,2.64-.92,.37-.44,.8-.66,1.32-.54,.88,.36,1.85-1.17,2.67,.2-2.44,.92-4.87,1.87-7.31,2.76-7.66,2.81-15.32,5.6-22.99,8.38-.47,.17-.63,.51-.6,1.06,.03,.37,.07,.73,.1,1.1-.46,.6-.32,1.36-.37,2.08,.06,.23,.11,.46,.17,.7,.22,1.18,.55,2.35,.64,3.54,.14,1.81,.79,2.03,2.07,1.56,4.86-1.78,9.74-3.46,14.61-5.18,1.23,.12,.61,.73,.22,1.27-.26,.1-.51,.2-.77,.29-.14,.07-.28,.14-.42,.21-1,.4-1.98,.88-2.99,1.16-1.08,.3-1.7,.73-1.68,2.38,.02,1.63,.52,2.22,1.72,2.63,5.08,1.72,9.61,4.5,12.91,9.91,1.05,1.71,2.82,2.52,4.33,3.65,6.04,4.56,9.76,11.06,10.38,19.97,.06,.92,.14,1.7,.64,2.46,6.44,9.86,6.7,20.54,3.04,31.96-.89,2.79-.86,6.04-1.49,9.03-1.34,6.29-3.7,11.82-7.73,16.11-.63,.68-1.37,1.31-2.15,1.66-4.14,1.86-7.21,6.01-11.41,7.82-4.74,2.03-9.52,3.74-14.54,3.58-2.44-.08-4.43,1.22-6.6,2.02-1.38,.51-2.73,1.24-4.22,1.12-.02-.4-.04-.8-.06-1.2,1.86-.77,3.89-.96,5.87-2.44-2.47-.89-3.83-3.08-5.41-4.83-.69-.76-1.14-1.21-2.16-1-7.02,1.44-14.04,1.37-20.98-.69-1.56-.46-2.81-.1-4.17,.54-1.01,.47-.96,.99-.28,1.88,1.29,1.67,2.71,2.97,4.49,3.81,2.74,1.29,5.49,2.37,8.43,2.6,0,.42,.01,.85,.02,1.27-2.47-.08-4.8-1.03-7.17-1.75-.21-1.01-.84-.71-1.38-.68-1.26,.6-2.48,1.32-3.83,1.56-.43-.12-.82-.07-1.08,.45-.16,.01-.33,.03-.49,.04-.49-.13-.96-.29-1.17-.94,.94-.33,1.88-.66,2.82-1,.49-.18,1.19-.17,1.34-.85,.17-.77-.58-.97-.94-1.37-.78-.85-1.74-1.5-2.38-2.47-.74-1.13-1.35-1.23-2.5-.89-6.23,1.88-12.35,1.45-18.24-1.89-1.3-.74-2.58-.77-3.92,0-.68,.39-.79,.73-.4,1.42,1.64,2.88,3.56,5.29,6.49,6.1,.95,.26,1.88,.66,2.82,1-.71,1.76-1.85-.44-2.65,.43-2.62-1.5-5.12,0-7.67,.47-.64,.12-1.29,.21-1.94,.31,0-.42,0-.84,.01-1.26,1.65-.45,3.3-.9,4.99-1.36-.78-2.25-2.87-2.96-3.08-5.36-.33-1.16-.89-.94-1.51-.39-.68,.18-1,.02-.55-.89,.26-.1,.51-.2,.77-.31,.15-.06,.29-.12,.44-.19,.51,.03,.86-.19,.91-.89,3.98-1.92,8.07-3.48,11.91-5.73-.38-1.72-2.15-1.12-2.4-2.72,0,0-.03,.05-.03,.05,.81-.29,1.53-.02,2.24,.46,1.49,1.02,2.98,1.17,4.62,.35,2.05-1.03,4.18-1.83,6.28-2.7,.37-.15,.83-.06,.69-.82-2.16-.55-2.21-.65-1.18-2.27,.37,.05,.73,.1,1.1,.16,1.12,.99,1.96,.1,2.77-.7,1.77-1.77,2.21-4.49,3.11-6.87,.75-1.99,.63-4.02,.15-6.14-.9-4.03-2.15-7.88-3.63-11.62-.06-.23-.11-.46-.17-.69-.28-.51-.57-.29-.85,0-.3-.06-.59-.11-.89-.17,.17-.76,.48-1.53,.46-2.28-.03-.82-.22-1.89-.97-2.12-1.03-.31-.64,1.08-1.01,1.6-.29,0-.58,0-.88-.01,.03-.66,.06-1.31,.09-1.97,.33-.28,.37-.59,.06-.94-.04-1.15-.08-2.31-.12-3.46,.27-.17,.54-.34,.81-.5,2.65,4.15,4.59,8.83,6.04,13.75,1.33,4.52,3.29,8.83,3.5,13.81,.04,.97,.42,1.87,.97,2.63,.64,.88,1.08,2.44,2.16,2.1,.97-.3,1.28-1.84,1.46-3.01,1.3-8.3,.55-16.49-1.93-24.23-1.6-4.98-3.04-10.05-4.81-14.94-1.37-3.79-1.71-8.1-3.79-11.74-1.87,2.16-3.09,4.65-3.54,7.52-.59,3.68-.77,7.43-.52,11.19-.04,.05-.13,.14-.12,.16,.05,.11,.13,.21,.19,.32,.03,.23,.05,.47,.08,.7-.07,.61-.17,1.19-.8,1.25-.06-.4-.11-.8-.17-1.2,.05-.43,.09-.85-.19-1.19-.23-2.65-.23-5.29,.01-7.93,.4-.63,.22-1.35,.21-2.04-.08-.59,.4-1.23-.21-1.93-3.46,3.61-6.05,7.98-7.68,13.22-.96-.42-.73-1.47-.82-2.36,.22-.48,.44-.97,.66-1.45,.58-1.26,1.64-2.52,1.64-3.79,0-1.54-1.74-1.49-2.64-2.31-1.38-1.27-2.24-3.04-2.6-5.06-.76-4.28-1.83-8.52-1.78-12.97,.02-1.65-.35-2.4-1.86-1.95-1.66,.49-3.37,.68-5.06,1-.9,.17-1.47,.75-1.98,1.75-2.75,5.37-7.73,10.66-13.38,7.37-.3-.17-.76-.28-.8,.24-.19,2.1-1.62,1.87-2.68,2.21-4.15,1.33-8.31,1.48-12.44-.23-1.29-.53-2.53-1.11-2.68-3.09-.15-2.02,.5-3.61,1.8-4.84,1.45-1.37,2.73-3.04,4.53-3.79,1.11-.46,1.22-1.29,.33-2.3-4.67-5.3-8.39-11.65-12.49-17.57-1.36-1.96-2.58-4.1-3.75-6.22-1.96-3.53-3.96-7.04-5.97-10.51-4.18-7.19-7.87-14.79-12.07-21.96-1.29-2.21-2.21-4.71-3.52-6.95-2.14-3.66-3.92-7.63-5.84-11.49-.55-1.1-1.03-2.26,.79-1.87,.27,1.85,1.47,2.99,2.19,4.49,3.59,7.41,7.46,14.59,11.33,21.78,3.47,6.45,7.01,12.84,10.59,19.2,5.65,10.05,11.67,19.69,18.48,28.56,2.55,3.32,1.81,3.88,5.53,1.87,.78-.42,1.62-.71,2.45-.91,1.3-.32,1.4-.83,.44-1.97-2.16-2.57-4.4-5.07-6.33-7.9-3.75-5.49-7.36-11.12-10.91-16.81-2.43-3.9-4.75-7.91-6.97-12-3.94-7.23-7.77-14.54-11.64-21.83-2.19-4.12-4.48-8.16-6.49-12.4-1.02-2.16-2.77-3.98-2.63-6.85Zm54.06,80.24c.13-.01,.26-.03,.39-.04,.55-.51,.29-1.27,.4-1.92,.22-.84-.13-.78-.6-.59-1.91,.75-3.83,1.49-5.74,2.23-2.99,.97-6.05,1.69-8.76,3.65-.23,.06-.46,.12-.7,.18-1.73,.79-3.31,1.89-4.74,3.32-.86,.98-1.86,1.83-2.54,2.97-.78,1.31-.85,2.55,.72,3.45,3.92,2.25,7.92,1.75,11.96,.89,.58-.12,1.29-.05,1.52-.84,.26-.89-.57-1.15-.88-1.72-.15-.27-.36-.47-.53-.72-.49-.71-1.39-1.22-1.06-2.4,.33-1.19,1.22-1.62,2.14-1.86,1.4-.36,2.81-.7,4.23-1.01,2.55-.56,3.26-3.22,4.21-5.61l-.03,.03Zm11.88-5.93c0,.3-.02,.61-.03,.91-2.02,.85-1.96,3.15-2.35,5.15-.35,1.78-.09,2.5,1.59,2,2.4-.72,4.9-.97,7.28-1.76,4.54-1.51,9.22-2.31,13.65-4.33,1.57-1.84,.7-4.2,.87-6.34,0-.77,0-1.53,0-2.3l-.05-.13c-.51-.76,.77-1.3,.23-1.88-.57-.61-1.23,.03-1.85,.26-2.07,.79-4.16,1.47-6.21,2.33-.88,.37-2.08,.17-2.49,1.67h.01c-.24-.07-.52-.26-.73-.18-3.08,1.07-6.15,2.15-9.21,3.28-.47,.17-.72,.68-.72,1.33Zm44.71-15.71c-.21-.17-.41-.34-.62-.52,.56-.9,.6-1.64-.52-1.19-2.94,1.19-5.84,2.55-8.88,3.34-.33,.09-.8,.37-.58,.99,.06,.18,.44,.19,.67,.29,0,.21,.01,.42,.02,.62-.74,.27-1.27,.69-1.28,1.82-.02,1.79-.1,3.58-.22,5.36-.1,1.46,.07,2.08,1.48,1.53,3.61-1.41,7.23-2.79,10.91-3.84,1.63-.46,1.45-1.5,.88-2.51-.89-1.58-1.22-3.35-1.66-5.1-.07-.26-.14-.53-.21-.79Zm-13.88,93.11c.55,.09,1.27,.5,1.51-.4,.18-.67-.09-1.41-.66-1.87-.32-.26-.57-.63-.86-.96-.64-1.21-1.25-2.46-1.93-3.64-.65-1.12-1.2-1.02-1.68,.27-.6,1.61-1.26,3.19-1.93,4.76-.63,1.48-.08,1.9,1.03,1.89,1.5-.02,3-.04,4.51-.06Zm43.49,7.82c-.18,.23-.36,.45-.55,.68-.24-.28-.48-.57-.72-.85,.22-.29,.44-.58,.65-.87,.46-.05,.58-.43,.6-.93,.15-.26,.26-.58,.45-.78,3-3.22,5.37-6.95,6.48-11.77,.39-1.71,0-2.46-1.5-2.11-2.82,.66-5.29,1.99-7.43,4.52-3.96,4.71-7.51,10.01-12.35,13.5-.46,.33-.9,.73-.66,1.55,0,.46-.12,.85-.48,1.07-1.36,.16-2.76-.35-4.09,.35-.67,.35-1.3,.77-.51,1.72,1.9,2.29,3.9,4.39,6.78,4.31,5.15-.14,10.2-1.01,15-3.43,2.53-1.28,5.02-2.69,7.41-5.04-2.74-.54-5.27-.48-7.5-2.04-.62-1.6-1.1-.66-1.59,.13Zm15.11-38.14c.92,1.15,1.04,2.83,1.76,4.11,.28,1.53,.55,3.07,.88,4.88,1.2-2.09,2.03-3.95,2.27-6.16,.33-3.08,.39-6.17,.04-9.24-.39-3.4-1.59-6.42-3.86-8.39-2.18-1.88-4.63-3.29-6.94-4.93-1.31-.93-1.91-.5-2,1.38-.18,3.96,1.23,7.26,3.05,10.18,1.67,2.67,3.71,4.98,4.81,8.16Zm1.14,20.04c.81-2.07,.68-4.3,.61-6.47-.03-1.12,.51-2.5-.61-3.34,.1-4.03-1.57-7.3-2.94-11.21-.89,2.57-2.21,4.22-2.66,6.47-.97,4.83-1.86,9.64-1.58,14.7,.13,2.32-.11,4.61-1.39,6.67-.72,1.15-1.48,2.54-1.67,4.21,5.79-.49,9.19-5.43,10.24-11.02Zm-43.91-70.98c-1.12,.31-.79,1.44-.86,2.35-.27,.95-.21,1.93-.15,2.91,.15,1.24-.33,2.74,.91,3.55,.94,4.44,2.88,7.65,6.8,8.39,1.59,.72,3.17,.68,4.75-.06,.36-.03,.72-.07,1.08-.1,.17-.1,.33-.19,.5-.29,5.21-2.25,10.48-4.12,16.06-4.11,1.37,0,1.05-.84,.54-1.64-2.01-3.17-4.5-5.66-7.58-6.96-.9-.38-1.95-.97-3.02-.63-3.35,1.07-6.8,1.41-10.2,2.03-4.41,.8-5.76-.3-7.31-5.46-.17-.55-.05-1.52-.74-1.49-.62,.03-.59,.95-.8,1.52Zm16.84,21.54c-.37-.39-.95-.71-.28-1.42,.86-.79,1.22,.29,1.73,.73,1.27,1.09,2.57,2.01,4.32,1.94-.68-2.37-2.32-3.88-2.67-6.23-.06-.39-.49-.73-.77-.56-.99,.6-2.3,.14-3.09,1.2-.84,1.13,.75,1.42,.72,2.38-.01,.33-.14,.37-.28,.5-.15,.33-.52,.49-.6,.19-.62-2.57-2.31-2.35-3.81-2.09-2.01,.36-4.01,.69-6.04,.51-.43-.04-.74,.22-1.03,.59-2.47,3.15-5.55,5.07-8.81,6.64-.47,.23-1.16,.27-1.24,1.04-.42,4.1-2.22,7.9-1.8,12.15,.66,6.65-.64,12.56-4.2,17.63-.43,.61-.46,1.1-.37,1.72,1.02,6.67,1.91,13.32-1.96,19.22-.57,.87-.01,1.51,.22,2.22,.35,1.08,.83,.35,1.24,.1,1.39-.88,2.9-1.38,4.42-1.6,3-.43,6.02-.2,8.53,2.14,1.28,1.19,2.38,1.79,3.93,1.06,.78-.37,1.68-.35,2.52-.55,1.58-.38,3.12-.52,4.64-1.66,3.28-2.45,6.85-4.1,10.83-2.71,.43,.15,.75,.01,1.09-.3,1.37-1.24,2.65-2.52,3.62-4.35,1.14-2.15,2.43-4.26,3.95-5.99,1.5-1.71,3.45-2.62,4.13-5.53,.43-1.84,.8-3.5,.08-5.09-1.1-2.43-.78-5-.42-7.37,.31-2.07,1.84-4.07,.29-6.06-1.29-1.66-1.28-4.28-3.04-5.55-2.2-1.59-3.04-4.31-3.48-7.27-.11-.77-.09-1.59-.92-1.94-2.35-.99-4.51-2.62-7-3.09-1.34-.25-2.49-.95-3.5-2.04-.17-.57-.55-.6-.95-.56Zm-33.96,14.35c1.14-3.83,2.33-7.28,2.69-10.94,.68-6.8,.57-13.63,.09-20.49-.34-4.84-.48-9.78,.56-14.57,.33-1.53,.73-2.89,2.56-2.21,1.21,.44,3.02,.37,3.57-1.02,.51-1.3-1.22-1.99-2.01-2.76-3.75-3.69-7.57-2.91-10.35,1.42-3,4.67-4.5,10.11-4.65,16.19-.17,7.22,.56,14.08,3.08,20.73,1.61,4.26,2.36,9.01,4.46,13.65Zm11.59-22.81c0-4.65-.02-8.08,0-11.5,0-1.17-.02-1.86-1.29-1.29-1.66,.75-3.41,1.14-5.12,1.73-.95,.33-1.3,1.02-1.22,2.35,.2,3.49,.39,7,.31,10.5-.19,7.59,.11,15.32-3.5,22.11-.72,1.36,.48,5.72,1.49,6.69,.65,.62,1.03,0,1.38-.28,3.04-2.39,4.92-5.95,5.98-10.09,1.78-6.97,2.33-14.16,1.96-20.22Zm-37.79,79.05c5.11,3.44,10.43,4.3,15.87,2.8,6.13-1.69,11.87-4.95,17.81-7.4,.41-.17,1.02-.25,1.1-.88,.1-.81-.61-.95-1-1.3-4.53-3.97-9.54-2.72-14.44-1.75-4.81,.96-9.18,3.73-13.74,5.71-1.9,.82-3.74,1.86-5.61,2.81Zm-23.02-74.11c-.03,.2-.06,.4-.09,.59,1.32,.73,2.12,2.33,3.51,2.94,3.9,1.7,6.4,.04,8.99-3.29,2.23-2.85,3.67-6.35,4.12-10.48,.42-3.93,2.15-6.54,5.56-7.42,2.39-.62,4.8-1.47,7.16-2.93-1.9-2.46-4.1-3.66-6.58-3.87-4.13-.35-7.09,2.32-9.43,6.21-2.18,3.61-3.2,7.9-4.59,11.99-.99,2.9-2.83,4.77-5.42,5.34-1.08,.24-2.15,.6-3.23,.91Zm50.14,74c.02,.2,.04,.41,.05,.61,1.59,.31,3.18,.69,4.78,.9,6.12,.8,12.21,.48,18.19-1.38,3.58-1.12,6.75-3.37,9.48-6.53,.94-1.09,.61-1.4-.44-1.88-3.3-1.48-6.62-1.84-10.05-.89-5.26,1.46-10.23,4.04-15.3,6.2-2.25,.96-4.48,1.97-6.72,2.96Zm58.2-59.4c-.19-1.52-.27-2.72-.48-3.89-.91-5.08-2.87-9.4-6.41-12.31-3.98-3.29-8.37-1.77-12.64-1.2-.49,.07-.89,.47-.79,1.39,.33,3.04,3.61,8.24,6.06,8.68,2.35,.43,4.27,1.94,6.38,2.93,2.6,1.23,5.09,2.82,7.89,4.4Zm10.15,30.74c-1.03,.46-1.73,.86-2.47,1.1-2.82,.93-4.4,2.66-4.61,6.75-.32,6.25-5.43,11.51-10.28,12.14-.96,.12-2,.33-2.82,.89-.88,.6-1.96,1.69-1.88,2.87,.08,1.1,1.4,1.13,2.31,1.28,.38,.06,.74,.36,1.13,.42,3.06,.48,6.06,1.11,8.91-1.34,3.2-2.74,5.23-6.45,6.66-10.78,.37-1.12,.59-2.33,1.06-3.36,1.39-3.04,1.46-6.4,1.98-9.97Zm-92.2-49.94c.2,4.1,.71,8.35,1.24,12.6,.38,3.03,1.73,4.91,3.83,6.27,1.16,.76,2.01,.79,2.9-.58,.89-1.38,1.74-2.81,2.92-3.89,1.07-.98,.92-2.03-.26-2.72-.85-.5-1.31-1.37-1.6-2.35-.7-2.35-1.15-4.76-1.47-7.26-.8-6.21,.72-6.27-4.84-4.51-.63,.2-1.27,.39-1.9,.61-.65,.23-1,.75-.82,1.83Zm77.63-5.04c.08,2.5,.67,4.44,.12,6.36-.37,1.3-.11,2.32,.67,3.3,3.26,4.08,4.35,9.36,5.19,14.76,.34,2.22,1.92,3.21,3.13,4.5,.51,.54,.95-.35,1.06-.98,.28-1.67,.74-3.28,.84-5.02,.6-10.52-3.78-17.36-11-22.92Zm17.15,40.39c.19-4.87-1.4-9.1-3.07-13.3-.29-.72-.61-1.47-1.04-2.05-.32-.44-1.04-.86-1.12,.19-.25,3.19-2.14,6.03-.89,9.61,.75,2.17,.71,4.79,.51,7.23-.34,4.11-.66,8.22-2.96,11.61-.43,.63-1.1,2.02,.32,2.42,1.09,.31,5.66-2.98,6.13-4.26,1.33-3.63,2.06-7.44,2.12-11.43Zm-18.23-36.09c-.05-2.68-.57-4.11-1.36-5.71-3.07-6.23-7.93-8.91-13.14-11.09-.65-.27-1.2-.28-1.29,.79-.13,1.46-.27,2.92-.35,4.38-.05,.85,.3,1.18,1.04,1.37,3.82,.98,6.89,3.63,9.02,7.55,1.01,1.85,1.94,3.13,3.71,3.8,2.3,.88,2.36,1,2.37-1.1Zm-68.19-1.27c.62,6.76,.85,9.88,2.91,12.34,.52,.62,.97,1.38,1.85,.91,2.12-1.14,3.16-4.18,2.52-7.02-.44-1.96-.77-3.96-1.03-5.97-.54-4.22-.49-4.13-3.93-3.23-1.63,.43-2.88,.89-2.32,2.97Zm51.01-20.54c-1.71,.22-3.21,1.01-4.76,1.61-3.58,1.37-3.59,1.32-2.54,5.53q1.32,5.26,5.66,4.16c.06-.02,.13-.03,.19-.04,.95-.11,1.42-.82,1.43-1.94,.03-3.08,0-6.16,0-9.32Zm-20.58,21.66c-1.51,.33-2.67,.55-2.6,3.11,.06,2.43,.46,5.05-.69,7.37-.13,.26-.07,.87,.1,1.13,.28,.42,.7,.22,1.08,.03,2.51-1.25,4.74-3.11,6.93-5.05,.32-.28,.7-.97,.26-1.17-2.07-.95-2.93-3.31-4.23-5.16-.17-.24-.62-.19-.85-.25Zm2.53,70.23c-3.43-4.14-8.97-4.38-12.92-.77,.98,.76,1.91,1.7,2.98,2.26,.94,.49,1.66,1.98,2.7,1.61,2.42-.85,4.77-2.02,7.23-3.1Zm-9.91-42.83c-1.23,2.22-3.04,3.53-4.68,5.07-.75,.7-.89,1.34-.5,2.46,.63,1.86,1.06,3.82,1.52,5.75,.15,.61,.08,1.4,.76,1.49,.67,.09,.8-.72,1.06-1.25,2.06-4.12,2.39-8.64,1.84-13.53Zm21.52,41.04c1.49,.32,2.77,1.17,4.13,1.73,.7,.29,1.49,.89,2.2-.06,.84-1.13,1.66-2.26,2.76-3.04,.33-.23,.64-.68,.55-1.21-.1-.63-.59-.53-.96-.56-3.17-.28-6.01,.95-8.68,3.14Zm-14.15-82.52c-2.33-.19-2.78,1.24-2.68,3.5,.13,2.76,.02,5.54,.04,8.31,0,.71-.06,1.75,.85,1.35,.65-.29,2.09-.02,1.66-1.7-.99-3.85-.92-7.64,.13-11.47Zm36.22,66.92c-2.31,1.23-4.18,3.61-4.76,6.04,4.92-.08,5.55-.88,4.76-6.04Zm2.24-10.53c1.29-2.06,1.49-4.3,2.78-5.71,.36-.4,.22-1.07-.1-1.27-.91-.59-1.14-2.1-2.21-2.56-.95,3.02-.72,5.99-.48,9.55Zm-3.31-19.55c0-1.15-.02-2,0-2.85,.09-2.91-.34-3.51-2.62-4.11-.81-.21-.9,.06-.79,.93,.33,2.57,1.37,4.5,3.4,6.03Z"/>
  <path class="cls-16" d="M173.69,186.66c0,.42,0,.84-.01,1.26-5.04,1.16-10.05,1.33-15.02-.54-.38-.14-.85-.17-1.1-.47-2.31-2.73-4.77-1.52-7.32-.69-5.68,1.86-11.44,2.17-17.2,.59-1.47-.4-2.83-.31-4.27,.01-5.96,1.34-12.12,3.28-17.97,1.03-4.73-1.82-9.14-.81-13.7-.51-4.43,.3-8.82,.27-13.03-1.78-1.25-.61-2.48,.16-3.7-.23,0-.41,0-.82,0-1.23,.21-.26,.69,.07,.73-.53,.02-.3,0-.56-.33-.53-.46-.62-.92-1.23-1.38-1.85-.1-1.13-1.2-1.12-1.51-2.09-.73-2.26-2.16-2.51-3.85-1.83-1.3-.58-.93-1.17,0-1.77,5.02-.08,9.71-1.7,14.09-4.73,1.17-.81,.78-1.3-.11-1.9-4.44-2.97-9.14-3.05-13.95-2.05-1.64-.35-.5-1.76-.76-2.72,.99,.91,2.01,.81,3.05,.76,2.63-.11,5.27-.26,7.85,.61,.74,.25,1.43,.02,2.13-.25,4.21-1.63,8.41-2.86,12.59,.15,.15,.11,.39,.13,.57,.09,3.72-.83,7.42-.85,11.16,.08,1.13,.28,2.44-.49,3.66-.76,3.67-.81,7.28-.82,10.91,.59,1.45,.56,3.17-.1,4.7,.28,3.47,.86,6.51-.26,9.73-1.82,3.74-1.81,7.65-1.36,11.07,1.71,.8,.72,1.61,.97,2.57,.93,1.57-.07,3.14-.19,4.66,.63,.74,.4,1.57,.27,2.24-.42,.98-1.01,2.16-1.52,3.31-2.08,.23-.08,.46-.16,.7-.24,.69,.4,1.78-.29,2.08,1.17-1.68,.02-3.16,.91-4.64,1.75-.4,.23-1.2,.97-.37,1.29,1.77,.67,3.16,2.88,5.23,2.19,1.63-.54,3.2-1.33,4.81-1.97,1.22-.49,.91-1.09,.11-1.71-.38-.3-.82-.49-1.23-.73-.08-1.01,.58-.68,.98-.83,.99,.28,1.97,1.91,2.99,.06,.3-.44,.28-.91,.08-1.4,.05-.2,.1-.41,.15-.61,1.05-1.03,1.12-2.66,1.61-4.04,.12-.36,.24-.73,.36-1.09,.89-.25,1.25-1.07,1.43-2.08,.8-1.01,1.13-2.51,2.21-3.21,.66,.27,.98-.25,1.25-.85,0,0,.02-.03,.02-.03,.64-.63,1.04-.11,1.43,.46,.07,.14,.07,.29,.02,.43-4.13,2.93-6.06,7.81-7.56,13.07-.24,.84,.26,.93,.72,1.04,2.42,.04,4.85,.09,7.27,.13,.53,.77,1.64,.35,1.99,1.49,0,0,.03-.05,.03-.05-.68,.26-1.34,.12-2-.09-.6-.63-1.29-.39-1.97-.37-.79-.02-1.58-.04-2.38-.06-.16-.27-.28-.22-.39,.05-2.05,.48-4.2,.62-6.13,1.5-4.55,2.06-9.34,3.26-13.73,5.85-.46,.27-1.2,.28-1.16,1.05,.03,.66,.74,.75,1.2,1.02,3.68,2.17,7.53,2.7,11.52,1.87,.03,.43,.05,.87,.08,1.3-4.97,1.1-9.66,.24-13.99-3.13-1.53-1.19-2.84,.05-3.66,1.12-.98,1.27,.33,2.38,1.1,3.1,3.2,2.94,6.63,5.07,10.79,5.12,3.1,.04,6.17-.14,9.24-.51Zm-60.88,.49c1.47,1.76,3.28,.5,4.91,.81,.53,.1,1.23,.22,1.39-.82,3.06-.73,6.22-.71,9.4-1.93-1.24-2.26-3.11-3.62-4.14-5.85-.27-.58-.79-.37-1.26-.3-6.1,.89-12.14,1.49-17.83-2.52-1.02-.72-2.53-.1-3.3,.9-.66,.86,.49,1.83,.97,2.56,2.55,3.89,5.74,6.54,9.86,7.17Zm-6.15-11.64c7.34,5.97,26.13,.5,33.13-3.78-3.86-3.77-8.22-5-12.96-4.19-7.01,1.19-13.36,4.98-20.18,7.98Zm-25.04,.5c12.25,4.22,22.73-.93,33.65-6.16-.78-.59-1.1-.89-1.45-1.08-5.35-3.01-10.87-2.7-16.4-1.04-5.45,1.64-10.11,5.63-15.81,8.28Zm49.56,1.16c5,3.27,9.67,4.88,14.77,2.71,3.41-1.44,6.8-2.92,10.17-4.49,2.42-1.12,4.78-2.42,7.58-3.84-1.73-.88-3.01-1.68-4.37-2.18-2.44-.9-4.87-1.88-7.5-.57-2.43,1.21-4.95,2.12-7.45,3.12-4.22,1.7-8.45,3.36-13.2,5.25Zm-26.02,7.49c-1.71-1.37-2.74-2.62-3.41-4.17-.95-2.2-2.2-2.68-4.19-2.24-5.87,1.29-11.74,1.72-17.34-1.68-.58-.35-1.44-.57-1.83,.13-.54,.96,.58,.96,.86,1.49,.28,.54,.63,1.05,.95,1.55,1.6,2.46,3.58,4.21,6.05,5.07,6.11,2.12,12.19,1.06,18.92-.16Zm35.26,1.7c3.81-.08,7.75-.94,11.64-2.23,.34-.11,.97-.12,.69-.81-.54-1.37-1.78-2.01-2.36-3.45-.29-.73-1.06,.2-1.56,.45-6.38,3.11-12.48,2.54-18.29-2.02-1.29-1.01-2.55-.39-3.81,.02-.74,.24-.6,.87-.25,1.52,1,1.84,2.05,3.53,3.85,4.34,3.19,1.43,6.47,2.16,10.08,2.2Zm10.06-18.73c-3.18-4.17-8.48-4.24-14.16-.25,1.29,.6,2.27,1.5,3.29,2.31,1.43,1.13,2.91,1.65,4.63,.75,1.98-1.04,4.04-1.83,6.24-2.81Zm-52.93-1.43c-3.66-1.97-6.78-1.14-10.11,.18,3.5,4.61,6.53,.62,10.11-.18Zm15.93,.48c3.41,3.8,6.53,1.08,10,.07-2.12-1.35-7.46-1.32-10-.07Z"/>
  <path class="cls-8" d="M112.11,13.71c-.13,2.87,1.61,4.69,2.63,6.85,2.01,4.24,4.31,8.29,6.49,12.4,3.87,7.28,7.7,14.6,11.64,21.83,2.22,4.08,4.54,8.1,6.97,12,3.55,5.69,7.16,11.32,10.91,16.81,1.93,2.83,4.17,5.32,6.33,7.9,.96,1.15,.86,1.66-.44,1.97-.83,.2-1.67,.49-2.45,.91-3.73,2.01-2.98,1.45-5.53-1.87-6.81-8.87-12.83-18.51-18.48-28.56-3.58-6.36-7.11-12.75-10.59-19.2-3.87-7.19-7.74-14.37-11.33-21.78-.73-1.5-1.92-2.64-2.19-4.49,.02-1.16,.86-1.48,1.45-1.71,1.69-.68,2.82-2.59,4.59-3.06Z"/>
  <path class="cls-6" d="M251,70.82c-4.87,1.72-9.75,3.4-14.61,5.18-1.28,.47-1.94,.25-2.07-1.56-.09-1.19-.42-2.36-.64-3.54-.06-.23-.11-.46-.17-.7,.05-.71-.09-1.48,.37-2.08,4.78-1.35,9.41-3.31,14.1-5.03,8.32-3.05,16.63-6.14,24.96-9.14,3.5-1.26,6.91-2.88,10.51-3.72,2.98-.81,5.11,1.72,5.35,6.37-5.9,2.71-12.02,4.55-18.02,6.87-6.57,2.53-13.18,4.91-19.77,7.36Z"/>
  <path class="cls-15" d="M156.64,161.82c-.25-.08-.51-.15-.76-.23-.47-.56-1.04-.42-1.6-.36-.64-.09-1.29-.17-1.93-.26-.34-.52-.78-.45-1.22-.29-9.8-1.9-19.6-3.79-29.39-5.69-.58-.11-1.17-.26-1.74-.46-1.58-.55-2.87-.67-2.88,2.15,0,1.26-.38,1.91-1.59,.88-2.5-2.14-5.15-4.03-7.71-6.88,3.56-1.09,6.76-2.11,9.99-3.01,.59-.16,1.43-.14,.73,1.28-.93,1.88-.5,2.64,1.4,2.99,10.14,1.86,20.25,3.97,30.38,5.95,3.04,.59,6.1,1.05,9.15,1.56l.41,.06c.66,.17,1.32,.35,1.97,.52,1.45,.36,2.88,.89,4.38,.83,.51,.12,1.02,.24,1.52,.36,1.16,.66,2.39,.59,3.62,.57,.25,.04,.49,.09,.74,.13,.42,.65,1.55,.21,1.53,1.53-.85,.8-1.67,1.08-2.83,.76-2.16-.59-4.39-.77-6.59-1.13-.27-.02-.53-.04-.8-.06-.22-.05-.44-.1-.66-.15-.28-.32-.59-.29-.91-.1-.53-.09-1.06-.18-1.59-.27-.21-.39-.49-.46-.82-.29-.65-.07-1.29-.15-1.94-.22-.26-.24-.53-.34-.84-.17Z"/>
  <path class="cls-15" d="M159.07,155.69c-11.06-4.28-22.11-8.63-33.28-12.5-1.47-.51-2.02-.23-2.29,1.59-.28,1.94-.94,2.21-2.18,.69-2.08-2.55-4.32-4.9-6.78-7.65,2.69-.44,5.16-.86,7.63-1.26,.39-.06,.79-.06,1.18-.11q2.29-.3,1.73,2.35c-.15,.73-.29,1.32,.6,1.64,7.41,2.68,14.82,5.41,22.21,8.18,5.7,2.13,11.39,4.34,17.08,6.52,.05,.28,.18,.38,.41,.28,.39,.07,.78,.14,1.17,.21,.21,.3,.47,.5,.81,.43,0,0,.03,.02,.03,.02,.87,.5,1.71,1.12,2.73,.94,.3,.11,.61,.23,.91,.34,.26,.48,.62,.67,1.08,.54,.25,.09,.5,.17,.75,.26,.45,.53,1,.52,1.56,.45,0,0,0,0,0,0,.15,.12,.3,.24,.46,.36,.03,.18,.07,.36,.1,.53-.38,2.21-1.84,1.28-2.89,1.52-.25-.1-.51-.2-.76-.29-.51-.86-1.17-1.25-2.03-1.02-.75-.31-1.5-.62-2.24-.92-.25-.13-.5-.25-.75-.38-.45-.11-.9-.23-1.35-.34-.2-.3-.44-.49-.78-.38-.53-.22-1.06-.43-1.59-.65-.79-.67-1.73-.8-2.63-1.09-.14-.05-.27-.1-.41-.14-.16-.05-.33-.09-.49-.14Z"/>
  <path class="cls-15" d="M176.04,156.56c-.39,0-.77-.01-1.16-.02-.16-.36-.41-.53-.74-.48,0,0-.01,0-.01,0-.08-.29-.24-.35-.46-.26-6.57-3.41-13.15-6.77-19.7-10.25-6.55-3.48-13.22-6.56-19.91-9.56-1.01-.45-1.79-.31-2.19,1.14-.16,.6-.46,1.13-.75,1.82-2.71-2.43-4.14-6.12-6.51-8.75-.87-.97-.31-1.33,.57-1.33,3.03,0,6.05,.01,9.08-.02,1.2-.01,1.07,.57,.65,1.63-1.11,2.81-1.07,2.8,1.39,3.81,6.58,2.7,12.98,6.03,19.4,9.24,6.54,3.27,12.99,6.8,19.48,10.21,.95,.63,1.65,1.38,.85,2.82Z"/>
  <path class="cls-15" d="M141.47,132.52c-.45-.34-1.05-.53-1.29-1-1.43-2.72-3.31-4.99-4.88-7.56-.22-.37-.62-.74-.36-1.28,.26-.53,.71-.25,1.08-.24,2.89,.08,5.79,.2,8.68,.26,1.04,.02,1.4,.34,.69,1.54-1.08,1.85-.71,2.72,1.1,3.54,7.9,3.57,15.21,8.61,22.26,14.27,3.44,2.76,6.88,5.53,10.18,8.54,.8,.73,.81,1.09,.26,1.8-.44,.56-.69,1.38-1.63,.46-4.27-4.2-8.85-7.85-13.52-11.33-6.17-4.59-12.53-8.7-19.28-11.88-2.5-1.18-2.38,1.55-3.29,2.89Z"/>
  <path class="cls-15" d="M186.63,130.68c-.86-3.09-2.68-5.47-3.98-8.24-.38-.81-.97-1.68,.13-2.4,.97-.63,1.42,.07,1.83,1.02,.69,1.57,1.42,3.12,2.13,4.67,.24,.66,.39,1.39,.72,1.96,3.65,6.2,5.95,13.26,8.35,20.24,.78,2.27,1.08,4.79,1.6,7.2,.08,2.24,.35,4.48-.1,6.7-.29,.32-.27,.73-.22,1.16-.7,1.13-1.1,2.43-2.23,3.27-2.83,2.1-5.73,2.01-8.73,1.04-.6-.19-1.68,.16-1.42-1.34,.26-1.5,1.09-1.04,1.84-.66,.17,.07,.33,.14,.5,.21l.16,.07h.17c.16,.19,.33,.23,.51,.04,1.48,.02,2.98,.4,4.37-.61,2.19-1.53,3.53-3.75,3.5-6.96-.02-2.51-.7-4.83-1.29-7.23-1.78-7.26-4.58-13.84-7.87-20.15Z"/>
  <path class="cls-15" d="M185.23,137.86c-2.34-4.34-4.68-8.68-7-13.03-.43-.8-1.29-1.58-.15-2.61,1.13-1.02,1.27,.38,1.75,.99,2.25,2.82,3.47,6.58,5.64,9.47,.45,1.73,1.28,3.2,2.06,4.7,2.69,5.24,5.41,10.43,6.36,16.71,.44,2.92,.07,5.48-1.27,7.87-1.41,1.67-3.22,2.14-5.05,2.48-.58,.11-1.22,.12-1.46-.78-.21-.79,0-1.43,.64-1.78,.13,0,.26-.01,.38-.02,.93,0,1.9,.24,2.62-.78,1.92-1.18,2.53-3.13,2.36-5.68-.11-1.66-.93-2.95-1.28-4.44-1.16-4.85-3.47-8.91-5.6-13.1Z"/>
  <path class="cls-15" d="M181.37,140.89c-2.54-4.65-5.22-9.19-8.11-13.52-.51-.77-1.33-1.36-.43-2.32,.77-.82,1.47-.8,2.24,.44,2.76,4.46,5.7,8.75,8.2,13.46,.1,.29,.15,.63,.3,.88,2.65,4.6,5.14,9.32,6.24,14.91,.39,2,.62,4.05-.71,5.77-.53,0-1.06,.02-1.59,.03,.04-1.31,.34-2.62-.04-3.92-.58-6.11-3.41-10.88-6.1-15.73Z"/>
  <path class="cls-11" d="M74.05,166.83c4.81-1,9.52-.92,13.95,2.05,.89,.6,1.28,1.09,.11,1.9-4.38,3.04-9.06,4.66-14.09,4.73,0-2.9,.01-5.79,.02-8.69Z"/>
  <path class="cls-15" d="M179.98,146.91c-3.13-5.26-6.84-9.86-10.6-14.43-.66-.8-1.21-1.72-1.83-2.56-.57-.77-.2-1.32,.23-1.88,.5-.66,.89-.36,1.32,.17,1.84,2.27,3.82,4.38,5.51,6.81,1.7,2.45,3.78,4.47,5.21,7.21,.24,.46,.57,.64,.97,.72,.94,2.01,2.14,3.78,3.26,5.63,1.06,1.74,1.71,3.78,1.9,5.98,.02,.22,.25,.91-.33,.74-.18-.05-.3-.48-.44-.73-.22-.99-.86-1.47-1.52-1.93-.99-2.14-1.78-4.48-3.68-5.74Z"/>
  <path class="cls-16" d="M251,70.82c6.59-2.45,13.2-4.83,19.77-7.36,6-2.31,12.12-4.15,18.02-6.87,.76,.33,2-1.03,2.22,.19,.25,1.4-1.22,1.24-2.01,1.53-9.27,3.44-18.54,6.85-27.81,10.24-3.31,1.21-6.65,2.36-9.97,3.53,.39-.55,1.01-1.15-.22-1.27Z"/>
  <path class="cls-14" d="M98.43,144.92c.79,0,1.58-.02,2.37,0,.45,.01,1.01,0,1.04,.78,.03,.81-.53,.81-.99,.82-1.18,.03-2.37,.05-3.55,.03-1.72-.03-1.33,1.63-1.42,2.8-.13,1.72,.9,1.23,1.61,1.08,1.02-.22,1.95,.06,2.89,.48,1.95,.86,2.69,3.97,1.39,5.96-1.58,2.41-5.82,2.63-7.46,.27-.28-.4-1.25-.82-.63-1.66,.6-.82,1.23-.26,1.63,.46,.94,1.69,2.34,1.4,3.57,1.05,.95-.27,2.08-1.01,1.99-2.55-.09-1.55-1.18-2.26-2.28-2.49-.95-.2-1.92-.03-2.86,.6-1.12,.75-1.97,.55-1.6-1.46,.12-.63,.19-1.28,.28-1.92q.6-4.25,4.01-4.25Z"/>
  <path class="cls-14" d="M129.36,115.84c1.87,0,3.74-.01,5.6,0,.49,0,1.18-.25,1.2,.76,.01,.97-.67,.83-1.17,.83-2.17,.02-4.34-.02-6.51,.03-1.32,.03-1.45-.68-.98-1.96,.47-1.31,1.17-2.33,2.21-3,1.33-.85,2.64-1.76,3.98-2.62,.88-.57,1.19-1.49,1.05-2.64-.14-1.19-.72-1.84-1.71-1.98-1.69-.25-3.15,.09-3.89,2.27-.21,.63-.47,1.01-1.01,.82-.65-.22-.44-.87-.36-1.42,.26-1.9,1.86-3.19,4.11-3.33,2.29-.14,3.82,.94,4.23,2.98,.42,2.1-.36,4.23-2.24,5.09-1.77,.81-3.11,2.29-4.51,4.16Z"/>
  <path class="cls-16" d="M117.09,115.83c3.46,.04,4.79,2.55,3.2,5.92-.42,.89-.05,1.1,.32,1.53,1.14,1.34,1.19,2.79,.28,4.36-1.58,2.73-6.36,2.73-7.85,0-.38-.7-.81-1.61-.22-2.19,.85-.82,1,.4,1.35,1.03,.96,1.74,3.83,2.21,5.14,.84,.53-.55,.82-1.29,.61-2.18-.19-.82-.54-1.49-1.32-1.57-.46-.04-.92-.12-1.38-.13-.48-.01-1.01,.02-1.01-.77,0-.8,.56-.67,.99-.81,1.01-.33,2.35-.23,2.37-2.2,.01-1.63-2.17-2.9-3.51-1.91-.57,.42-1.32,.79-1.52,1.79-.13,.65-.46,1.05-1,.67-.5-.35-.42-1.02-.27-1.54,.67-2.33,2.32-2.61,3.82-2.83Z"/>
  <path class="cls-10" d="M283.44,50.23c-3.59,.84-7.01,2.46-10.51,3.72-8.33,3-16.64,6.09-24.96,9.14-4.69,1.72-9.33,3.68-14.1,5.03-.03-.37-.07-.73-.1-1.1,3.38-.67,6.56-2.2,9.81-3.4,10.19-3.76,20.34-7.65,30.56-11.25,3.19-1.12,6.26-2.82,9.61-3.25,.09,.45-.07,.8-.32,1.11Z"/>
  <path class="cls-14" d="M108.77,133.65c0,.89,.01,1.79,0,2.68-.02,.83-.1,1.54,.87,1.77,.91,.22,1.13,1.08,.09,1.46-.84,.31-1.05,.76-.93,1.71,.1,.88-.18,1.4-.94,1.44-.81,.04-1.06-.55-.96-1.39,.21-1.79-.7-1.64-1.69-1.73-1.25-.12-3.11,.91-3.63-.57-.57-1.65,1.03-3.2,1.94-4.45,1.14-1.56,2.18-3.19,3.14-4.91,.38-.69,.91-.95,1.53-.77,.7,.2,.58,.96,.58,1.59,0,1.06,0,2.11,0,3.17Zm-1.87-1.21c-.14-.04-.28-.08-.43-.11-.59,1.05-1.21,2.08-1.75,3.17-.41,.84-1.88,1.11-1.34,2.22,.42,.88,1.68,.21,2.56,.31,.64,.07,.97-.25,.96-1.09-.02-1.5,0-3,0-4.5Z"/>
  <path class="cls-6" d="M283.76,49.12c-3.34,.43-6.42,2.13-9.61,3.25-10.22,3.6-20.38,7.49-30.56,11.25-3.26,1.2-6.44,2.73-9.81,3.4-.03-.55,.13-.89,.6-1.06,7.67-2.78,15.33-5.57,22.99-8.38,2.44-.89,4.87-1.84,7.31-2.76,2.45-.86,4.91-1.68,7.35-2.6,3.92-1.47,7.83-3,11.74-4.51,.19,.47,.12,.94,0,1.41Z"/>
  <path class="cls-15" d="M198.69,53.62c1.11-.89,2.54-1.2,2.79-3.16,.06-.52,.6-.55,1-.46,.52,.12,.52,.62,.52,1.12,0,3.82,0,7.63,.03,11.45,0,.88-.35,1.12-.97,1.13-.72,.02-.87-.51-.87-1.25,0-1.79-.05-3.58,.03-5.36,.07-1.7,.04-3.13-1.83-2.92-.19,.02-.41-.32-.7-.56Z"/>
  <path class="cls-16" d="M283.76,47.71c-3.91,1.51-7.82,3.04-11.74,4.51-2.44,.91-4.9,1.74-7.35,2.6-.83-1.37-1.8,.16-2.67-.2,2.75-1.55,5.71-2.26,8.58-3.36,3.62-1.4,7.26-2.75,10.92-3.99,.71-.24,1.73-1.28,2.27,.45Z"/>
  <path class="cls-11" d="M74.04,177.29c1.68-.69,3.11-.44,3.85,1.83,.31,.96,1.41,.95,1.51,2.09-.45,.93-1.81,1.14-1.39,2.74-1.33,.02-2.65,.03-3.98,.05,0-2.23,0-4.46,.01-6.7Z"/>
  <path class="cls-14" d="M229.79,188.18c-.71,.47-1.47,.43-2.23,.35-.5,.02-1,.05-1.5,.07l-.16,.11s-.18-.05-.18-.05c-.73-.21-1.46-.45-2.17,.11-.88,.18-1.75,.17-2.6-.17-.51-.02-1.01-.03-1.52-.05-.75,.03-1.5,.06-2.2-.37,.97-1.48,2.22-.6,3.33-.51,1,.08,1.99,.6,2.96-.14,.26,0,.53-.01,.79-.02,.7,.77,1.43,.2,2.17,.16,1.12-.05,2.35-.95,3.32,.51Z"/>
  <path class="cls-16" d="M197.28,188.63c-2.56,.8-5.12,.86-7.68,.02,.49-.26,1.19-.02,1.44-.87,1.21-.25,2.42-.18,3.63,.06,.69,1.18,1.79,.28,2.61,.79Z"/>
  <path class="cls-15" d="M74.03,183.98c1.33-.02,2.65-.03,3.98-.05,.79,.06,1.57,.11,2.36,.17,0,.41,0,.82,0,1.23-1.19,.04-2.37,.09-3.56,.13-.91-.57-1.82-.55-2.74-.03-.45-.03-.89-.06-.7-.87,.31,.03,.55-.08,.71-.43l-.05-.16Z"/>
  <path class="cls-10" d="M223.51,187.53c-.97,.74-1.95,.23-2.96,.14-1.11-.09-2.36-.97-3.33,.51-.43,.18-.85,.15-1.23-.2,0-.42-.01-.85-.02-1.27,2.51,.27,5.02,.55,7.53,.82Z"/>
  <path class="cls-16" d="M183.28,187.14c.81-.87,1.94,1.33,2.65-.43,.53,.16,1.06,.33,1.59,.49-.92,.41-.28,.84,0,1.26-1.46-.23-2.89-.58-4.24-1.32Z"/>
  <path class="cls-14" d="M197.28,188.63c-.82-.51-1.92,.4-2.61-.79,.88-.14,1.77-.27,2.65-.41,.55,.03,1.12,.22,1.63-.23l1.22-.21c0,.37,0,.74,.01,1.11,0,0-.12,.03-.12,.03-.42-.15-.8-.14-1.09,.35-.57,.05-1.14,.1-1.71,.15Z"/>
  <path class="cls-16" d="M230.98,55.01c-.1,.34-.2,.67-.31,1-.06-.06-.12-.12-.18-.19-.24,.02-.47,.04-.71,.05,.2,.12,.4,.24,.6,.35-.68,.41-1.36,.81-2.03,1.22-.23-.75-.74-.76-1.26-.75,1.2-.92,2.44-1.66,3.89-1.68Z"/>
  <path class="cls-10" d="M229.79,188.18c-.97-1.46-2.21-.56-3.32-.51-.74,.03-1.48,.61-2.17-.16,1.96-.22,3.92-.45,5.88-.67,.02,.4,.04,.8,.06,1.2-.11,.21-.25,.33-.44,.14Z"/>
  <path class="cls-14" d="M187.53,188.46c-.28-.42-.92-.84,0-1.26,1.21-.13,2.36,.22,3.51,.58-.26,.86-.95,.61-1.44,.87-.69-.07-1.38-.13-2.07-.2Z"/>
  <path class="cls-16" d="M234.55,54.82c-.9,.6-1.8,.57-2.71,.03,.9-.37,1.8-.34,2.71-.03Z"/>
  <path class="cls-10" d="M74.07,185.45c.92-.52,1.83-.54,2.74,.03-.91,.3-1.83,.3-2.74-.03Z"/>
  <path class="cls-16" d="M260.68,55.16c-.78,.77-1.7,.88-2.64,.92,.78-.74,1.67-1.03,2.64-.92Z"/>
  <path class="cls-10" d="M223.55,188.77c.71-.56,1.44-.32,2.17-.11-.71,.51-1.43,.49-2.17,.11Z"/>
  <path class="cls-14" d="M227.09,56.69c.52,0,1.04,0,1.26,.75-.42,.27-.85,.54-1.27,.81-.15-.39-.3-.79-.45-1.18,.15-.13,.31-.26,.46-.38Z"/>
  <path class="cls-16" d="M200.19,188.11c0-.37,0-.74-.01-1.11,.23-.11,.46-.22,.68-.33,.21,.65,.68,.81,1.17,.94-.55,.53-1.2,.47-1.84,.5Z"/>
  <path class="cls-16" d="M254.29,57.45c-.56,.4-1.12,.79-1.81,.56,.5-.67,1.2-.39,1.81-.56Z"/>
  <path class="cls-16" d="M226.63,57.07c.15,.39,.3,.79,.45,1.18-.22,.24-.44,.49-.66,.73l-.69-.93c.17-.5,.47-.83,.89-.99Z"/>
  <path class="cls-13" d="M174.44,158.64c-.56,.06-1.11,.07-1.56-.45,.73-.94,1.12-.1,1.56,.45Z"/>
  <path class="cls-13" d="M167.38,156.07c-.34,.07-.59-.13-.81-.43,.55-.66,.73-.25,.81,.43Z"/>
  <path class="cls-16" d="M198.98,188.48c.29-.49,.67-.49,1.09-.35-.29,.45-.67,.52-1.09,.35Z"/>
  <path class="cls-16" d="M207.44,185.56c.54-.03,1.17-.33,1.38,.68-.46-.23-.92-.45-1.38-.68Z"/>
  <path class="cls-13" d="M172.13,157.92c-.46,.12-.82-.07-1.08-.54,.52-.31,.9-.18,1.08,.54Z"/>
  <path class="cls-16" d="M202.53,187.57c.26-.53,.65-.57,1.08-.45-.29,.4-.66,.53-1.08,.45Z"/>
  <path class="cls-10" d="M226.06,188.61c.5-.02,1-.05,1.5-.07-.49,.28-.99,.34-1.5,.07Z"/>
  <path class="cls-16" d="M237.54,55.72c-.37,0-.74,.02-.98-.43,.4-.1,.74,0,.98,.43Z"/>
  <path class="cls-10" d="M219.42,188.55c.51,.02,1.01,.03,1.52,.05-.51,.27-1.02,.24-1.52-.05Z"/>
  <path class="cls-13" d="M161.83,162.77c.32-.18,.63-.21,.91,.1-.32,.19-.63,.24-.91-.1Z"/>
  <path class="cls-12" d="M164.19,157.7c.34-.12,.57,.08,.78,.38-.34,.13-.62,.07-.78-.38Z"/>
  <path class="cls-12" d="M166.31,158.42c.25,.13,.5,.25,.75,.38-.37,.22-.65,.19-.75-.38Z"/>
  <path class="cls-10" d="M74.08,184.15c-.15,.35-.4,.46-.71,.43,.06-.58,.38-.51,.71-.43Z"/>
  <path class="cls-13" d="M159.85,159.51l-.41-.06c.17-.32,.3-.26,.41,.06Z"/>
  <path class="cls-13" d="M174.89,158.99c-.15-.12-.3-.24-.46-.36,.25-.08,.4,.05,.46,.36Z"/>
  <path class="cls-16" d="M250.03,72.59c.14-.07,.28-.14,.42-.21-.14,.07-.28,.14-.42,.21Z"/>
  <path class="cls-13" d="M173.67,155.79c.22-.09,.38-.04,.46,.26-.22,.11-.38,.02-.46-.26Z"/>
  <path class="cls-12" d="M159.07,155.69c.16,.05,.33,.09,.49,.14-.2,.18-.36,.09-.49-.14Z"/>
  <path class="cls-13" d="M165.4,155.42c-.22,.11-.35,0-.41-.28l.41,.28Z"/>
  <path class="cls-16" d="M223.89,60.22c-.11,.12-.21,.25-.32,.37-.03-.3,.04-.48,.32-.37Z"/>
  <path class="cls-16" d="M225.1,59.05c-.13,.19-.26,.38-.39,.57,.13-.19,.26-.38,.39-.57Z"/>
  <path class="cls-9" d="M242.49,106.27c1.01,1.09,2.16,1.79,3.5,2.04,2.49,.47,4.66,2.1,7,3.09,.83,.35,.81,1.18,.92,1.94,.44,2.96,1.28,5.68,3.48,7.27,1.76,1.27,1.75,3.89,3.04,5.55,1.56,1.99,.03,3.99-.29,6.06-.36,2.37-.67,4.93,.42,7.37,.72,1.59,.35,3.25-.08,5.09-.68,2.91-2.63,3.82-4.13,5.53-1.52,1.73-2.8,3.85-3.95,5.99-.97,1.82-2.25,3.11-3.62,4.35-.34,.31-.66,.45-1.09,.3-3.98-1.4-7.55,.26-10.83,2.71-1.52,1.14-3.06,1.27-4.64,1.66-.84,.2-1.74,.18-2.52,.55-1.55,.73-2.65,.13-3.93-1.06-2.51-2.34-5.53-2.57-8.53-2.14-1.51,.22-3.02,.72-4.42,1.6-.41,.26-.89,.99-1.24-.1-.23-.71-.79-1.35-.22-2.22,3.87-5.9,2.98-12.55,1.96-19.22-.09-.62-.06-1.11,.37-1.72,3.56-5.06,4.86-10.97,4.2-17.63-.42-4.25,1.39-8.05,1.8-12.15,.08-.78,.77-.82,1.24-1.04,3.25-1.57,6.33-3.49,8.81-6.64,.29-.37,.6-.63,1.03-.59,2.03,.18,4.03-.15,6.04-.51,1.5-.27,3.19-.48,3.81,2.09,.07,.3,.44,.14,.6-.19l.04,.05c-.67,.7-.09,1.03,.28,1.42,.16,.61,.56,.57,.95,.56Z"/>
  <path class="cls-8" d="M207.58,120.05c-2.1-4.64-2.85-9.39-4.46-13.65-2.52-6.65-3.25-13.51-3.08-20.73,.14-6.08,1.64-11.52,4.65-16.19,2.78-4.33,6.6-5.11,10.35-1.42,.79,.78,2.52,1.46,2.01,2.76-.55,1.39-2.36,1.47-3.57,1.02-1.84-.68-2.23,.68-2.56,2.21-1.04,4.8-.9,9.74-.56,14.57,.48,6.86,.59,13.69-.09,20.49-.36,3.65-1.55,7.11-2.69,10.94Z"/>
  <path class="cls-8" d="M197.35,125.27c-.25-3.76-.06-7.52,.52-11.19,.46-2.87,1.67-5.36,3.54-7.52,2.08,3.64,2.42,7.95,3.79,11.74,1.77,4.9,3.22,9.97,4.81,14.94,2.48,7.74,3.23,15.92,1.93,24.23-.18,1.17-.49,2.7-1.46,3.01-1.08,.34-1.52-1.23-2.16-2.1-.55-.76-.93-1.65-.97-2.63-.21-4.98-2.17-9.29-3.5-13.81-1.45-4.92-3.39-9.6-6.04-13.75-.01-.61,.09-1.24-.32-1.73-.03-.23-.05-.47-.08-.7-.03-.16-.05-.32-.08-.48Z"/>
  <path class="cls-11" d="M170.13,179.67c-3.99,.83-7.84,.3-11.52-1.87-.46-.27-1.17-.36-1.2-1.02-.04-.77,.7-.78,1.16-1.05,4.4-2.59,9.18-3.8,13.73-5.85,1.93-.87,4.08-1.02,6.13-1.5,.13-.02,.26-.04,.39-.05,.79,.02,1.58,.04,2.38,.06,.63,.36,1.29,.42,1.97,.37,.66,.2,1.33,.35,2,.09,.25,1.61,2.02,1,2.4,2.72-3.84,2.25-7.93,3.81-11.91,5.73-.59-.16-.53,.72-.91,.89-.15,.06-.29,.12-.44,.19-.39-.42-.56,.02-.77,.3-.45,.9-.13,1.06,.55,.89,.55-.14,1.06-.09,1.51,.39,.21,2.4,2.3,3.12,3.08,5.36-1.69,.46-3.34,.91-4.99,1.36-3.07,.37-6.14,.55-9.24,.51-4.16-.05-7.59-2.18-10.79-5.12-.77-.71-2.08-1.83-1.1-3.1,.83-1.07,2.13-2.31,3.66-1.12,4.32,3.37,9.01,4.22,13.99,3.13,.94-.15,1.84-.46,2.68-1.01,.18-.08,.54,.08,.41-.44,0-1-.53-.87-1.03-.7-.72,.25-1.43,.56-2.14,.84Z"/>
  <path class="cls-11" d="M231.41,101.36c-3.92-.73-5.86-3.94-6.8-8.39-.2-1.22,.69-2.88-.91-3.55-.06-.98-.12-1.96,.15-2.91,1.17-.29,.75-1.46,.86-2.35,.21-.57,.18-1.49,.8-1.52,.69-.03,.58,.93,.74,1.49,1.55,5.16,2.9,6.26,7.31,5.46,3.41-.62,6.85-.97,10.2-2.03,1.07-.34,2.12,.25,3.02,.63,3.08,1.3,5.56,3.79,7.58,6.96,.5,.8,.83,1.64-.54,1.64-5.58,0-10.85,1.86-16.06,4.11-.17,.1-.33,.19-.5,.29-.36,.03-.72,.07-1.08,.1-1.58,.02-3.17,.04-4.75,.06Z"/>
  <path class="cls-8" d="M226.43,58.99c.22-.24,.44-.49,.66-.73,.42-.27,.85-.54,1.27-.81,.68-.41,1.36-.81,2.03-1.22,.13-.1,.17-.23,.11-.41,.05,.07,.11,.13,.18,.19,2.67,.19,5.4-.1,7.84,1.71,.11,.08,.27,.05,.38,.14,1.13,.96,2.76,1.86,2.71,3.55-.03,1.15-1.83,1.13-2.86,1.55-1.18,.48-2.33,.88-3.65,.58-1.86-.43-2.49,1.39-2.63,3.1-.4,5.15,.7,10.03,2.46,14.62,.63,1.63,.97,3.34,1.49,4.99,.32,1-.16,1.51-.96,1.64-1.77,.29-3.56,.44-5.32,.15-1.96-.33-2.06-2.8-2.65-4.4-1.48-4.03-2.46-8.34-3.65-12.53-1.28-4.51,.41-8.51,2.58-12.13Z"/>
  <path class="cls-8" d="M219.17,97.24c.37,6.06-.18,13.25-1.96,20.22-1.06,4.14-2.93,7.7-5.98,10.09-.36,.28-.73,.9-1.38,.28-1.02-.96-2.22-5.32-1.49-6.69,3.61-6.8,3.31-14.53,3.5-22.11,.09-3.49-.1-7-.31-10.5-.08-1.33,.28-2.03,1.22-2.35,1.7-.59,3.46-.98,5.12-1.73,1.27-.57,1.3,.12,1.29,1.29-.02,3.42,0,6.84,0,11.5Z"/>
  <path class="cls-11" d="M181.39,176.29c1.87-.94,3.71-1.98,5.61-2.81,4.56-1.98,8.93-4.75,13.74-5.71,4.89-.98,9.9-2.23,14.44,1.75,.39,.34,1.1,.49,1,1.3-.08,.63-.69,.71-1.1,.88-5.94,2.45-11.68,5.71-17.81,7.4-5.44,1.5-10.76,.64-15.87-2.8Z"/>
  <path class="cls-8" d="M158.36,102.17c1.07-.31,2.14-.67,3.23-.91,2.59-.58,4.43-2.44,5.42-5.34,1.39-4.09,2.42-8.38,4.59-11.99,2.34-3.89,5.3-6.56,9.43-6.21,2.48,.21,4.68,1.41,6.58,3.87-2.36,1.45-4.77,2.31-7.16,2.93-3.42,.88-5.14,3.48-5.56,7.42-.44,4.13-1.89,7.63-4.12,10.48-2.6,3.33-5.1,4.99-8.99,3.29-1.39-.61-2.19-2.21-3.51-2.94,.03-.2,.06-.4,.09-.59Z"/>
  <path class="cls-11" d="M208.5,176.17c2.24-.99,4.47-2,6.72-2.96,5.07-2.16,10.04-4.74,15.3-6.2,3.43-.95,6.75-.59,10.05,.89,1.05,.47,1.38,.79,.44,1.88-2.73,3.16-5.9,5.41-9.48,6.53-5.97,1.86-12.06,2.18-18.19,1.38-1.6-.21-3.19-.6-4.78-.9-.02-.2-.04-.41-.05-.61Z"/>
  <path class="cls-11" d="M230.18,186.84c-1.96,.22-3.92,.45-5.88,.67-.26,0-.53,.01-.79,.02-2.51-.27-5.02-.55-7.53-.82-2.94-.23-5.7-1.31-8.43-2.6-1.78-.84-3.2-2.14-4.49-3.81-.68-.89-.73-1.41,.28-1.88,1.36-.64,2.61-1,4.17-.54,6.93,2.07,13.96,2.14,20.98,.69,1.02-.21,1.47,.23,2.16,1,1.59,1.76,2.94,3.94,5.41,4.83-1.98,1.48-4.01,1.68-5.87,2.44Z"/>
  <path class="cls-2" d="M266.7,116.77c-2.79-1.58-5.28-3.17-7.89-4.4-2.11-1-4.04-2.51-6.38-2.93-2.45-.44-5.73-5.64-6.06-8.68-.1-.92,.3-1.32,.79-1.39,4.27-.57,8.66-2.08,12.64,1.2,3.54,2.92,5.5,7.23,6.41,12.31,.21,1.17,.3,2.37,.48,3.89Z"/>
  <path class="cls-2" d="M276.85,147.51c-.52,3.57-.59,6.93-1.98,9.97-.47,1.04-.69,2.25-1.06,3.36-1.43,4.34-3.46,8.04-6.66,10.78-2.85,2.44-5.86,1.82-8.91,1.34-.38-.06-.74-.35-1.13-.42-.91-.15-2.23-.18-2.31-1.28-.09-1.18,.99-2.27,1.88-2.87,.82-.56,1.86-.76,2.82-.89,4.85-.63,9.96-5.89,10.28-12.14,.21-4.09,1.79-5.83,4.61-6.75,.74-.24,1.44-.64,2.47-1.1Z"/>
  <path class="cls-1" d="M237.35,176.18c-.25-.82,.19-1.21,.66-1.55,4.84-3.48,8.39-8.79,12.35-13.5,2.13-2.53,4.61-3.86,7.43-4.52,1.51-.35,1.89,.4,1.5,2.11-1.11,4.81-3.48,8.55-6.48,11.77-.19,.2-.31,.52-.45,.78-.36,.15-.51,.51-.6,.93-.22,.29-.44,.58-.65,.87-.76,.77-1.63,1.29-2.54,1.77-3.63,1.93-7.44,1.39-11.21,1.34Z"/>
  <path class="cls-6" d="M198.19,89.99c-4.43,2.02-9.11,2.82-13.65,4.33-2.38,.79-4.88,1.04-7.28,1.76-1.68,.5-1.94-.21-1.59-2,.39-2,.33-4.3,2.35-5.15,1.93-.62,3.86-1.27,5.8-1.85,.69-.2,1.03-.6,.92-1.49,.56-.03,1.12-.06,1.67-.1,.92,0,1.78-.24,2.68-.58,3.3-1.27,6.65-2.39,9.97-3.56,0,.77,0,1.53,0,2.3-1.39,1.88-.48,4.25-.87,6.34Z"/>
  <path class="cls-2" d="M268.61,155.15c-1.06,5.6-4.46,10.54-10.24,11.02,.19-1.67,.96-3.06,1.67-4.21,1.28-2.06,1.52-4.35,1.39-6.67-.28-5.06,.62-9.87,1.58-14.7,.45-2.24,1.77-3.9,2.66-6.47,1.37,3.91,3.04,7.18,2.94,11.21,0,3.27,0,6.54,0,9.82Z"/>
  <path class="cls-2" d="M267.47,135.11c-1.1-3.18-3.15-5.49-4.81-8.16-1.82-2.92-3.23-6.23-3.05-10.18,.09-1.88,.69-2.3,2-1.38,2.32,1.64,4.76,3.05,6.94,4.93,2.28,1.97,3.47,4.99,3.86,8.39,.36,3.07,.3,6.16-.04,9.24-.24,2.21-1.07,4.06-2.27,6.16-.33-1.81-.6-3.35-.88-4.88,.09-1.82,.57-3.88-1.76-4.11Z"/>
  <path class="cls-11" d="M200.86,186.67c-.23,.11-.46,.22-.68,.33-.41,.07-.81,.14-1.22,.21-.57-.21-1.11-.08-1.63,.23-.88,.14-1.77,.27-2.65,.41-1.21-.24-2.41-.32-3.63-.06-1.15-.36-2.31-.71-3.51-.58-.53-.16-1.06-.33-1.59-.49-.94-.34-1.87-.74-2.82-1-2.92-.8-4.85-3.21-6.49-6.1-.39-.68-.28-1.03,.4-1.42,1.35-.76,2.62-.73,3.92,0,5.9,3.33,12.02,3.76,18.24,1.89,1.14-.34,1.76-.24,2.5,.89,.64,.98,1.6,1.62,2.38,2.47,.36,.4,1.11,.6,.94,1.37-.15,.67-.84,.67-1.34,.85-.94,.35-1.88,.67-2.82,1Z"/>
  <path class="cls-8" d="M184.65,97.57c-.18-1.09,.16-1.6,.82-1.83,.63-.22,1.26-.41,1.9-.61,5.56-1.75,4.04-1.7,4.84,4.51,.32,2.5,.77,4.91,1.47,7.26,.29,.98,.75,1.86,1.6,2.35,1.18,.69,1.34,1.74,.26,2.72-1.18,1.08-2.03,2.51-2.92,3.89-.89,1.37-1.74,1.34-2.9,.58-2.1-1.37-3.45-3.24-3.83-6.27-.53-4.25-1.05-8.5-1.24-12.6Z"/>
  <path class="cls-2" d="M262.28,92.53c7.22,5.57,11.6,12.4,11,22.92-.1,1.74-.56,3.35-.84,5.02-.11,.63-.55,1.52-1.06,.98-1.21-1.28-2.79-2.28-3.13-4.5-.84-5.4-1.93-10.68-5.19-14.76-.79-.99-1.04-2.01-.67-3.3,.55-1.92-.04-3.86-.12-6.36Z"/>
  <path class="cls-1" d="M253.96,173.12c2.23,1.56,4.76,1.5,7.5,2.04-2.39,2.35-4.88,3.76-7.41,5.04-4.8,2.42-9.85,3.29-15,3.43-2.88,.08-4.88-2.02-6.78-4.31-.79-.95-.15-1.37,.51-1.72,1.33-.71,2.73-.19,4.09-.35,1.88,.43,3.79,.7,5.69,.52,3.33-.32,6.7-.59,9.25-3.84,.18-.23,.36-.45,.55-.68,.53-.04,1.06-.09,1.59-.13Z"/>
  <path class="cls-2" d="M279.43,132.93c-.06,3.99-.79,7.8-2.12,11.43-.47,1.28-5.04,4.57-6.13,4.26-1.41-.4-.74-1.79-.32-2.42,2.3-3.39,2.62-7.5,2.96-11.61,.2-2.44,.25-5.06-.51-7.23-1.25-3.58,.65-6.42,.89-9.61,.08-1.05,.8-.63,1.12-.19,.43,.59,.75,1.33,1.04,2.05,1.67,4.2,3.26,8.43,3.07,13.3Z"/>
  <path class="cls-6" d="M160.62,93.62c1.91-.74,3.83-1.48,5.74-2.23,.46-.18,.82-.25,.6,.59-1.12,.74-2.76,.15-3.55,2.09,1.05,.32,1.89-.72,2.79-.16-.96,2.39-1.66,5.05-4.21,5.61-1.41,.31-2.82,.65-4.23,1.01-.92,.24-1.81,.67-2.14,1.86-.33,1.18,.57,1.69,1.06,2.4,.17,.25,.38,.46,.53,.72,.31,.57,1.14,.84,.88,1.72-.23,.79-.95,.72-1.52,.84-4.04,.86-8.04,1.36-11.96-.89-1.58-.9-1.5-2.15-.72-3.45,.68-1.14,1.68-1.99,2.54-2.97,.55,.07,1.2-.29,1.58,.55-1.82,1.63-2.28,3.58-.92,4.35,1.72,.98,3.61,1.4,5.51,.58-1.32-1-2.91-.42-4.24-1.28-.67-.43-1.59-.27-.41-1.77,2.1-2.67,4.74-3.9,7.31-5.44,1.64-.98,3.72-.75,4.96-2.77,.14-.46,.28-.91,.42-1.37Z"/>
  <path class="cls-8" d="M198.9,164.08c.79-1.12-.14-2.28,.08-3.46,.69-3.66-.3-7.02-1.34-10.36-.18-.58-.17-1.26-.24-1.89,.9-3.47,2.37-6.69,2.88-10.33,.29-.28,.57-.5,.85,0,.06,.23,.11,.46,.17,.69,1.48,3.75,2.73,7.59,3.63,11.62,.48,2.13,.6,4.15-.15,6.14-.9,2.38-1.34,5.11-3.11,6.87-.8,.8-1.64,1.69-2.77,.7Z"/>
  <path class="cls-8" d="M196.01,141.41c-1.26-.87-1.96-2.38-2.47-3.91-1.28-3.87-3.24-7.25-4.86-10.88,1.63-5.24,4.21-9.61,7.68-13.22,.61,.69,.13,1.34,.21,1.93-.35,.64-.33,1.33-.21,2.04-.25,2.64-.24,5.29-.01,7.93-.09,.44-.06,.84,.19,1.19,.06,.4,.11,.8,.17,1.2,.1,.33,.21,.66,.31,.99,.04,1.15,.08,2.31,.12,3.46-.02,.31-.04,.63-.06,.94-.03,.66-.06,1.31-.09,1.97-.74,2.02-.45,4.28-.98,6.36Z"/>
  <path class="cls-11" d="M261.2,96.84c0,2.09-.07,1.98-2.37,1.1-1.77-.67-2.7-1.95-3.71-3.8-2.13-3.93-5.2-6.57-9.02-7.55-.74-.19-1.09-.52-1.04-1.37,.08-1.46,.22-2.92,.35-4.38,.1-1.07,.65-1.06,1.29-.79,5.21,2.18,10.07,4.86,13.14,11.09,.79,1.6,1.31,3.03,1.36,5.71Z"/>
  <path class="cls-6" d="M222.97,73.11c.44,1.75,.77,3.52,1.66,5.1,.57,1.01,.75,2.04-.88,2.51-3.68,1.04-7.31,2.42-10.91,3.84-1.41,.55-1.58-.06-1.48-1.53,.12-1.78,.2-3.57,.22-5.36,.01-1.13,.54-1.55,1.28-1.82,3.22-.75,6.3-2.16,9.44-3.27,.12,.1,.24,.21,.36,.31,.09,.12,.2,.19,.33,.22Z"/>
  <path class="cls-8" d="M244.02,75.03c0,3.15,.02,6.23,0,9.32,0,1.12-.48,1.83-1.43,1.94-.07,0-.13,.02-.19,.04q-4.34,1.1-5.66-4.16c-1.06-4.21-1.04-4.16,2.54-5.53,1.55-.59,3.05-1.39,4.76-1.61Z"/>
  <path class="cls-8" d="M223.44,96.69c.23,.06,.68,0,.85,.25,1.3,1.86,2.16,4.21,4.23,5.16,.44,.2,.06,.89-.26,1.17-2.18,1.95-4.41,3.8-6.93,5.05-.38,.19-.8,.39-1.08-.03-.17-.25-.23-.86-.1-1.13,1.15-2.33,.76-4.95,.69-7.37-.07-2.55,1.1-2.78,2.6-3.11Z"/>
  <path class="cls-11" d="M225.97,166.92c-2.47,1.08-4.81,2.25-7.23,3.1-1.04,.36-1.76-1.12-2.7-1.61-1.07-.56-2-1.5-2.98-2.26,3.95-3.6,9.49-3.37,12.92,.77Z"/>
  <path class="cls-8" d="M216.06,124.09c.55,4.89,.21,9.41-1.84,13.53-.26,.52-.4,1.33-1.06,1.25-.68-.09-.61-.88-.76-1.49-.47-1.93-.89-3.9-1.52-5.75-.38-1.13-.24-1.77,.5-2.46,1.65-1.54,3.45-2.85,4.68-5.07Z"/>
  <path class="cls-7" d="M208.88,165.43c-1.5,.02-3,.04-4.51,.06-1.11,.02-1.66-.41-1.03-1.89,.67-1.57,1.33-3.15,1.93-4.76,.48-1.3,1.03-1.4,1.68-.27,.68,1.18,1.29,2.42,1.93,3.63,0,1.08,0,2.15,0,3.23Z"/>
  <path class="cls-1" d="M237.59,165.13c2.68-2.2,5.51-3.42,8.68-3.14,.37,.03,.86-.07,.96,.56,.09,.53-.23,.98-.55,1.21-1.1,.78-1.92,1.91-2.76,3.04-.71,.95-1.5,.35-2.2,.06-1.36-.56-2.64-1.41-4.13-1.73Z"/>
  <path class="cls-16" d="M196.01,141.41c.52-2.07,.24-4.33,.98-6.36,.29,0,.58,0,.88,.01-.2,2.45-.41,4.9-.61,7.36,.47-1.76,1.53-3.01,2.14-4.56,.3,.06,.59,.11,.89,.17-.51,3.64-1.98,6.86-2.88,10.33-1.31-2.06-1.75-4.38-1.39-6.95Z"/>
  <path class="cls-11" d="M241.23,104.24c.14-.13,.27-.17,.28-.5,.03-.96-1.56-1.25-.72-2.38,.79-1.06,2.09-.6,3.09-1.2,.28-.17,.72,.17,.77,.56,.35,2.36,1.99,3.87,2.67,6.23-1.75,.06-3.05-.85-4.32-1.94-.51-.44-.87-1.52-1.73-.73,0,0-.04-.04-.04-.04Z"/>
  <path class="cls-16" d="M251.82,173.92c-2.55,3.25-5.92,3.52-9.25,3.84-1.91,.18-3.81-.09-5.69-.52,.37-.21,.47-.61,.48-1.07,3.78,.05,7.58,.6,11.21-1.34,.9-.48,1.77-1,2.54-1.77,.24,.28,.48,.56,.72,.85Z"/>
  <path class="cls-2" d="M259.66,149.54c.78,5.16,.15,5.96-4.76,6.04,.58-2.44,2.46-4.81,4.76-6.04Z"/>
  <path class="cls-2" d="M261.89,139c-.25-3.56-.47-6.53,.48-9.55,1.07,.46,1.3,1.97,2.21,2.56,.32,.21,.46,.88,.1,1.27-1.29,1.41-1.49,3.65-2.78,5.71Z"/>
  <path class="cls-2" d="M258.58,119.45c-2.03-1.53-3.06-3.46-3.4-6.03-.11-.87-.02-1.15,.79-.93,2.28,.6,2.7,1.2,2.62,4.11-.03,.85,0,1.7,0,2.85Z"/>
  <path class="cls-10" d="M199.06,81.35c-3.33,1.18-6.67,2.3-9.97,3.56-.89,.34-1.75,.59-2.68,.58,.19-1.71,1.86-.65,2.3-1.9h-.01c3.05-.31,5.8-2.06,8.75-2.83,.19,.42,.52,.38,.84,.4,.24,.02,.48,.04,.72,.06,0,0,.05,.13,.05,.13Z"/>
  <path class="cls-6" d="M199,81.22c-.24-.02-.48-.04-.72-.06,.02-.06,.08-.13,.07-.19-.01-.12-.06-.24-.09-.37-.18-.22-.34-.12-.48,.06-.12,0-.23,.04-.34,.1-2.95,.77-5.7,2.53-8.75,2.84,.42-1.49,1.61-1.3,2.49-1.67,2.04-.86,4.14-1.54,6.21-2.33,.62-.24,1.28-.87,1.85-.26,.54,.58-.74,1.12-.23,1.88Z"/>
  <path class="cls-6" d="M212.83,75.22c-.23-.09-.61-.11-.67-.29-.21-.62,.25-.91,.58-.99,3.04-.79,5.94-2.15,8.88-3.34,1.12-.45,1.08,.3,.52,1.19-3.2,.75-6.28,1.98-9.31,3.42Z"/>
  <path class="cls-10" d="M212.83,75.22c3.03-1.44,6.11-2.68,9.31-3.42,.2,.17,.41,.34,.62,.52,0,0-.12,.14-.12,.14-.13-.03-.25,0-.35,.11-3.14,1.11-6.21,2.52-9.44,3.27,0-.21-.01-.42-.02-.62Z"/>
  <path class="cls-6" d="M188.7,83.6c-.43,1.25-2.11,.2-2.3,1.9-.56,.03-1.12,.06-1.67,.1-2.23,.81-4.46,1.62-6.69,2.43,0-.64,.25-1.15,.72-1.33,3.06-1.12,6.14-2.21,9.21-3.28,.21-.07,.49,.11,.73,.17Z"/>
  <path class="cls-6" d="M160.62,93.62c-.14,.46-.28,.91-.42,1.37-2.83,.12-5.23,1.91-7.81,3.03-.18-.25-.36-.49-.54-.74,2.72-1.96,5.77-2.69,8.76-3.65Z"/>
  <path class="cls-10" d="M178.05,88.02c2.23-.81,4.46-1.62,6.69-2.43,.11,.89-.22,1.29-.92,1.49-1.94,.57-3.87,1.23-5.8,1.85,0-.3,.02-.61,.03-.91Z"/>
  <path class="cls-6" d="M148,101.32c-.38-.84-1.03-.48-1.58-.55,1.43-1.43,3.01-2.54,4.74-3.32,0,.41,0,.81,0,1.22-1.05,.88-2.11,1.77-3.16,2.65Z"/>
  <path class="cls-2" d="M268.61,155.15c0-3.27,0-6.55,0-9.82,1.12,.85,.58,2.23,.61,3.34,.06,2.18,.2,4.41-.61,6.47Z"/>
  <path class="cls-10" d="M198.19,89.99c.39-2.09-.52-4.46,.87-6.34-.17,2.14,.7,4.5-.87,6.34Z"/>
  <path class="cls-10" d="M166.2,93.92c-.9-.56-1.75,.48-2.79,.16,.79-1.94,2.44-1.35,3.55-2.09-.11,.65,.15,1.41-.4,1.92-.14-.17-.3-.59-.39,.04l.03-.03Z"/>
  <path class="cls-7" d="M208.88,165.43c0-1.08,0-2.15,0-3.23,.28,.32,.54,.7,.86,.96,.57,.46,.84,1.2,.66,1.87-.25,.9-.96,.49-1.51,.4Z"/>
  <path class="cls-2" d="M267.47,135.11c2.32,.23,1.85,2.3,1.76,4.11-.72-1.29-.84-2.96-1.76-4.11Z"/>
  <path class="cls-11" d="M223.7,89.42c1.61,.67,.71,2.32,.91,3.55-1.24-.81-.76-2.3-.91-3.55Z"/>
  <path class="cls-10" d="M231.41,101.36c1.58-.02,3.17-.04,4.75-.06-1.58,.75-3.16,.79-4.75,.06Z"/>
  <path class="cls-11" d="M224.7,84.17c-.11,.88,.32,2.06-.86,2.35,.07-.9-.27-2.03,.86-2.35Z"/>
  <path class="cls-3" d="M151.16,98.67c0-.41,0-.81,0-1.22,.23-.06,.46-.12,.7-.18,.18,.25,.36,.49,.54,.74-.34,.41-.73,.71-1.23,.66Z"/>
  <path class="cls-16" d="M253.96,173.12c-.53,.04-1.06,.09-1.59,.13,.49-.79,.97-1.73,1.59-.13Z"/>
  <path class="cls-16" d="M197.02,128.69c-.1-.33-.21-.66-.31-.99,.63-.06,.73-.64,.8-1.25,.41,.49,.31,1.13,.32,1.73-.27,.17-.54,.34-.81,.5Z"/>
  <path class="cls-16" d="M174.76,178.17c.38-.17,.32-1.05,.91-.89-.05,.7-.4,.92-.91,.89Z"/>
  <path class="cls-16" d="M175.6,179.94c-.44-.48-.96-.53-1.51-.39,.62-.55,1.18-.77,1.51,.39Z"/>
  <path class="cls-16" d="M196.36,117.37c-.13-.71-.14-1.4,.21-2.04,.02,.69,.2,1.41-.21,2.04Z"/>
  <path class="cls-16" d="M242.49,106.27c-.39,0-.8,.04-.95-.56,.4-.04,.78,0,.95,.56Z"/>
  <path class="cls-16" d="M251.76,172.2c.09-.42,.24-.77,.6-.93-.01,.49-.13,.88-.6,.93Z"/>
  <path class="cls-16" d="M196.54,126.5c-.25-.35-.28-.76-.19-1.19,.28,.34,.24,.77,.19,1.19Z"/>
  <path class="cls-16" d="M197.08,133.09c.02-.31,.04-.63,.06-.94,.31,.34,.28,.66-.06,.94Z"/>
  <path class="cls-10" d="M222.97,73.11c-.13-.03-.24-.1-.33-.22,.04-.14,.03-.29,0-.43,0,0,.12-.14,.12-.14,.07,.26,.14,.53,.21,.79Z"/>
  <path class="cls-3" d="M166.17,93.95c.08-.63,.25-.21,.39-.04-.13,.01-.26,.03-.39,.04Z"/>
  <path class="cls-16" d="M201.29,138.74c-.06-.23-.11-.46-.17-.69,.06,.23,.11,.46,.17,.69Z"/>
  <path class="cls-10" d="M237.24,101.19c.17-.1,.33-.19,.5-.29-.17,.1-.33,.19-.5,.29Z"/>
  <path class="cls-10" d="M233.5,70.2c.06,.23,.11,.46,.17,.7-.06-.23-.11-.46-.17-.7Z"/>
  <path class="cls-16" d="M173.55,178.67c.21-.28,.38-.72,.77-.3-.26,.1-.51,.2-.77,.3Z"/>
  <path class="cls-16" d="M197.35,125.27c.03,.16,.05,.32,.08,.48-.07-.1-.14-.2-.19-.32,0-.02,.08-.1,.12-.16Z"/>
  <path class="cls-11" d="M106.67,175.51c6.82-3,13.17-6.78,20.18-7.98,4.74-.81,9.09,.42,12.96,4.19-7.01,4.28-25.79,9.75-33.13,3.78Z"/>
  <path class="cls-11" d="M81.63,176.01c5.7-2.65,10.36-6.64,15.81-8.28,5.53-1.66,11.04-1.97,16.4,1.04,.35,.2,.66,.49,1.45,1.08-10.93,5.23-21.41,10.38-33.65,6.16Z"/>
  <path class="cls-11" d="M131.19,177.17c4.75-1.89,8.98-3.56,13.2-5.25,2.49-1,5.02-1.91,7.45-3.12,2.62-1.31,5.05-.33,7.5,.57,1.36,.5,2.65,1.31,4.37,2.18-2.79,1.43-5.16,2.72-7.58,3.84-3.37,1.57-6.77,3.04-10.17,4.49-5.1,2.16-9.77,.56-14.77-2.71Z"/>
  <path class="cls-11" d="M112.81,187.15c-4.12-.62-7.31-3.27-9.86-7.17-.48-.73-1.63-1.7-.97-2.56,.76-1,2.28-1.61,3.3-.9,5.68,4.01,11.73,3.4,17.83,2.52,.47-.07,.99-.27,1.26,.3,1.03,2.24,2.9,3.59,4.14,5.85-3.17,1.22-6.34,1.2-9.4,1.93-2.1,0-4.2,0-6.29,.01Z"/>
  <path class="cls-11" d="M105.17,184.66c-6.72,1.21-12.81,2.28-18.92,.16-2.47-.86-4.46-2.61-6.05-5.07-.33-.51-.67-1.01-.95-1.55-.28-.53-1.4-.53-.86-1.49,.39-.7,1.26-.48,1.83-.13,5.61,3.41,11.48,2.97,17.34,1.68,1.99-.44,3.24,.04,4.19,2.24,.67,1.55,1.7,2.8,3.41,4.17Z"/>
  <path class="cls-11" d="M140.43,186.36c-3.62-.04-6.89-.77-10.08-2.2-1.81-.81-2.86-2.49-3.85-4.34-.35-.64-.49-1.28,.25-1.52,1.25-.41,2.52-1.03,3.81-.02,5.81,4.56,11.91,5.14,18.29,2.02,.5-.24,1.27-1.17,1.56-.45,.58,1.44,1.82,2.09,2.36,3.45,.27,.69-.36,.7-.69,.81-3.89,1.29-7.83,2.15-11.64,2.23Z"/>
  <path class="cls-7" d="M175.88,167.27c-.47-.1-.96-.2-.72-1.04,1.5-5.26,3.43-10.15,7.56-13.07,.82,1.14,1.64,2.28,2.46,3.41,0,0,.02,.02,.02,.02,.04,1.02,.08,2.03,.12,3.04-.9,1.92-2.53,3.32-2.79,5.71-.16,1.4-.8,1.54-1.78,1.5-1.62-.08-3.27-.25-4.86,.44Z"/>
  <path class="cls-11" d="M150.49,167.62c-2.2,.98-4.27,1.78-6.24,2.81-1.72,.9-3.2,.38-4.63-.75-1.02-.81-2-1.72-3.29-2.31,5.69-3.99,10.99-3.92,14.16,.25Z"/>
  <path class="cls-11" d="M170.18,166.34c.41,.24,.85,.43,1.23,.73,.8,.62,1.12,1.22-.11,1.71-1.61,.64-3.18,1.43-4.81,1.97-2.07,.69-3.46-1.52-5.23-2.19-.83-.32-.03-1.06,.37-1.29,1.48-.84,2.95-1.72,4.64-1.75,1.3,.27,2.6,.55,3.9,.82Z"/>
  <path class="cls-11" d="M97.56,166.19c-3.59,.81-6.62,4.8-10.11,.18,3.34-1.32,6.45-2.16,10.11-.18Z"/>
  <path class="cls-11" d="M113.49,166.67c2.55-1.25,7.89-1.28,10,.07-3.47,1.01-6.6,3.73-10-.07Z"/>
  <path class="cls-10" d="M175.88,167.27c1.59-.69,3.24-.51,4.86-.44,.98,.05,1.63-.1,1.78-1.5,.27-2.38,1.89-3.78,2.79-5.7,.34-.19,.69-.33,1.06-.1-.77,1.77-1.41,3.67-2.37,5.25-.52,.86-.69,1.68-.85,2.61l-7.27-.13Z"/>
  <path class="cls-15" d="M112.81,187.15c2.1,0,4.2,0,6.29-.01-.16,1.04-.85,.92-1.39,.82-1.63-.31-3.44,.95-4.91-.81Z"/>
  <path class="cls-11" d="M80.37,184.11c-.79-.06-1.57-.11-2.36-.17-.42-1.6,.94-1.81,1.39-2.74,.46,.61,.92,1.23,1.38,1.84,.11,.18,.22,.35,.33,.53-.04,.6-.53,.27-.73,.53Z"/>
  <path class="cls-5" d="M171.17,165.52c.61-1.23,2.56,.29,2.65-2.01,.19,.02,.38,.04,.58,.05-.05,.2-.1,.41-.15,.61-.03,.47-.06,.93-.08,1.4-1.02,1.85-2,.22-2.99-.06Z"/>
  <path class="cls-14" d="M170.13,179.67c.71-.28,1.42-.59,2.14-.84,.5-.18,1.03-.31,1.02,.69-.14,.14-.27,.3-.41,.45-.84,.54-1.74,.86-2.68,1.01-.03-.43-.05-.87-.08-1.3Z"/>
  <path class="cls-10" d="M183.17,168.75c-.68,.06-1.34,0-1.97-.37,.67-.03,1.37-.26,1.97,.37Z"/>
  <path class="cls-13" d="M174.16,165.58c.03-.47,.06-.93,.08-1.4,.19,.49,.22,.96-.08,1.4Z"/>
  <path class="cls-13" d="M81.11,183.57c-.11-.18-.22-.35-.33-.53,.33-.03,.35,.23,.33,.53Z"/>
  <path class="cls-10" d="M178.82,168.32c-.13,.02-.26,.04-.39,.05,.11-.27,.23-.32,.39-.05Z"/>
  <path class="cls-9" d="M171.35,161.79c0-.35,0-.69,0-1.04,.25,.1,.51,.2,.76,.29,0,.29-.01,.59-.02,.88-.25-.04-.49-.09-.74-.13Z"/>
  <path class="cls-13" d="M197.34,161.85c.03,.38,.07,.76,.1,1.14,0,0-.16,.02-.16,.02,0,0-.16,0-.16,0-.05-.42-.07-.83,.22-1.16Z"/>
  <path class="cls-12" d="M186.58,165.32c.23-.17,.39-.07,.5,.21-.17-.07-.33-.14-.5-.21Z"/>
  <path class="cls-12" d="M187.42,165.59c.17,.02,.34,.03,.51,.05-.18,.19-.35,.16-.51-.05Z"/>
  <path class="cls-12" d="M186.74,161.89c.12-.26,.25-.27,.38-.02-.13,0-.26,.01-.38,.02Z"/>
  <path class="cls-4" d="M106.9,132.44c0,1.5-.01,3,0,4.5,.01,.84-.31,1.17-.96,1.09-.88-.1-2.14,.57-2.56-.31-.54-1.12,.93-1.38,1.34-2.22,.53-1.1,1.16-2.12,1.75-3.17,.14,.04,.28,.08,.43,.11Z"/>
  <path class="cls-4" d="M197.81,162.99c.11-.16,.22-.33,.33-.49-.11,.16-.22,.33-.33,.49Z"/>
  <path class="cls-16" d="M197.32,187.43c.52-.31,1.06-.44,1.63-.23-.51,.45-1.08,.26-1.63,.23Z"/>
  <path class="cls-14" d="M230.5,55.82c.06,.18,.02,.31-.11,.41-.2-.12-.4-.24-.6-.35,.24-.02,.47-.04,.71-.05Z"/>
  <path class="cls-16" d="M172.89,179.96c.13-.15,.27-.3,.41-.45,.13,.53-.22,.37-.41,.45Z"/>
  <path class="cls-10" d="M151.16,98.67c.51,.05,.89-.24,1.23-.66,2.57-1.12,4.98-2.91,7.81-3.03-1.24,2.03-3.32,1.79-4.96,2.77-2.57,1.55-5.21,2.77-7.31,5.44-1.18,1.5-.25,1.33,.41,1.77,1.33,.87,2.92,.29,4.24,1.28-1.9,.83-3.79,.4-5.51-.58-1.36-.78-.9-2.72,.92-4.35,1.05-.88,2.11-1.77,3.16-2.65Z"/>
  <path class="cls-12" d="M222.63,72.46c.04,.14,.04,.28,0,.43-.12-.1-.24-.21-.36-.31,.1-.11,.22-.14,.35-.11Z"/>
  <path class="cls-14" d="M198.27,80.61c.03,.12,.07,.24,.09,.37,0,.06-.05,.12-.07,.19-.31-.02-.65,.02-.84-.4,.11-.06,.22-.09,.34-.1l.48-.06Z"/>
  <path class="cls-10" d="M198.27,80.61c-.16,.02-.32,.04-.48,.06,.15-.18,.3-.28,.48-.06Z"/>
</svg>