<?xml version="1.0" encoding="UTF-8"?>
<svg id="Layer_1" data-name="Layer 1" xmlns="http://www.w3.org/2000/svg" viewBox="0 0 414 200">
  <defs>
    <style>
      .cls-1 {
        fill: #f7b7d3;
      }

      .cls-2 {
        fill: #00bff3;
      }

      .cls-3 {
        fill: #eae7de;
      }

      .cls-4 {
        fill: #fff9b8;
      }

      .cls-5 {
        fill: #fff000;
      }

      .cls-6 {
        fill: #fbb040;
      }

      .cls-7 {
        fill: #6c675d;
      }

      .cls-8 {
        fill: #9ed2f1;
      }

      .cls-9 {
        fill: #baac98;
      }

      .cls-10 {
        fill: #443d34;
      }

      .cls-11 {
        fill: #534f4e;
      }

      .cls-12 {
        fill: #797878;
      }

      .cls-13 {
        fill: #4b4642;
      }
    </style>
  </defs>
  <path class="cls-10" d="M175.58,156.49c1.42-.49,2.15-1.16,2-2.8-1.06-11.46,.18-22.83,3.78-33.76,1.58-4.79,2.4-9.53,3.33-14.37,1.21-6.33,5.28-11.28,10.77-15.09,5.74-3.99,6.02-5.15,.08-10.1-3.65-3.04-5.8-7.02-8.82-10.44-.96-1.09-4.49-1.65-5.33-.61-.49,.61-.03,1.08,.54,1.29,1.2,.43,1.92,1.31,2.55,2.22,.78,1.13,.57,2.23-.98,2.56-6.11,1.29-12.24,2.05-18.28-.29-3.41-1.32-4.03-4.42-1.33-6.62,2.99-2.43,6.27-4.45,10.17-5.52,.19,.28,.39,.56,.58,.84-.71,.43-1.41,.86-2.12,1.29-3.02,1.1-5.6,2.68-7.67,5.04-1.55,1.77-.87,2.84,.95,3.62,5.78,2.48,11.56,1.55,17.82,.12-1.31-1.02-2.23-1.67-3.05-2.41-2.12-1.93-1.85-3.26,1.02-3.73,9.85-1.6,19.6-3.69,29.56-4.72,0,.35,0,.7,0,1.05-3.84,.67-7.65,1.48-11.51,1.95-2.77,.34-2.57,1.11-1.13,2.77,1.99,2.29,4.57,4.02,6.76,6.12,.89,.85,1.92,.86,2.93,.05,3.72-3.01,7.78-2.51,11.75-.66,2.1,.98,4.05,.7,6.32,.57-2.75-3.42-2.36-6.68,.11-9,1.5-1.41,2.13-2.85-.12-4.19,0-.82-1.11-.9-1.31-1.59-.54-1.93-1.77-3.66-1.95-5.69-.11-1.27-1.09-1.33-2.18-1.16,0-.21,0-.42,0-.63,.51-.15,1.36,.04,1.39-.66,.03-.85-.74-.59-1.27-.48-1.51,.32-3.02,.67-4.53,1.01-.26-.26-.52-.52-.78-.78,.28-.08,.56-.17,.83-.25,.73,.05,1.47,.13,1.94-.55,.74-.19,1.48-.38,2.22-.56,.25-.07,.49-.14,.74-.22,1.47-.62,.99-2,1.4-3.02,.45-.22,.62-1.01,1.4-.55-.04,.12-.12,.2-.24,.25-.03,.85-.07,1.69-.1,2.54l.05,2.59c.08,.39,.16,.78,.25,1.17,1.52,5.75,4.9,10.34,10.35,13.62,1.4,.84,2.99,2.28,4.52,1.67,1.33-.54,.15-2.47,.55-3.74,.38-.18,.77-.36,1.15-.54,0,1.07,.09,2.14,.01,3.2-.12,1.63-.1,3.15,1.91,3.91-1.03,.34-1.88,0-2.83-.43-2.68-1.22-5.31-2.53-7.91-3.89-.94-.49-1.72-2.95-3.54-1.12-1,1.01-1.62,2.29-1.74,3.72-.11,1.39,.15,2.69,.73,3.99,1.76,3.9,5.69,4.83,9.57,5.81,6.35,1.61,12.95,1.09,19.41,1.74-.51,2.14-2.42,.59-3.55,1.12-1.37,0-2.16,.11-.95,1.57,3.88,4.67,9.66,5.88,15.4,7.22,0,.38,0,.77,.01,1.15-2.6,.74-.27,1.61,.12,1.93,2.61,2.17,5.3,4.29,8.68,5.47-.33,.24-.66,.49-.98,.73-.4-.08-.81-.16-1.21-.23-.22-.1-.44-.2-.66-.3-3.75-1.72-7.04-3.93-9.12-7.39-.91,.78-1.27,1.54-1.77,2.18-1.86,2.36-3.66,4.56-2.7,8.06,.95,3.47,1.61,6.81,3.45,10.14,2.88,5.21,3.09,11.08,1.45,16.79-.62,2.15-.32,3.95,.47,5.99,2.93,7.59,6.08,15.19,4.25,23.52-.21,.94,.02,1.83,1.35,2.03,.46,0,.82,.16,.97,.59,0,.16-.03,.31-.09,.46,.21,.17,.42,.34,.63,.51,0,0,0,0,0,0,2.96,1.08,6.05,.33,9.07,.55,.56-.06,1.13-.12,1.69-.18,.02,.59,.03,1.18,.05,1.77-.68,1.11-1.7,1.87-2.78,2.68-1.11,.83-2.93,1.35-2.8,3.15-.73,.12-1.45,.23-2.18,.35-.62-.15-1.23-.3-1.85-.46,2.96-1.47,5.27-3.57,7.5-6.01-2.82-.5-5.4-.64-8.01-.51-8.73,.45-17.13,2.33-25.41,4.73,0-.39-.01-.77-.02-1.16,.83-.95,2.48-.45,3.32-1.49-3.33-1.85-7.21-1.76-10.7-2.87,1.31-1.25,3.14-.35,4.9-.93-1.24-1.59-2.55-2.98-3.35-5.05-1.49,2.04-3.2,3.59-1.78,5.95-4.66,.94-9.43,1.44-13.96,2.89-4.98,1.59-10,3.1-15,4.64-.09-.36-.17-.72-.26-1.07,2.48-1.22,5.45-1.4,8.05-3.07-4.51-2.52-9.16-2.93-13.99-2.11-7.46,1.27-14.63,3.46-21.71,5.88-.7-.05-1.21-.29-1.22-1.03,1.16-.37,2.49-.44,3.37-1.59-2.98-1.56-6.3-1.39-9.37-2.08-.01-.37-.03-.75-.04-1.12,1.1-.21,2.16-.07,3.21,.26,.52,.13,.9,.03,1.01-.5-1.12-2-1.49-4.19-1.87-6.37-.14-.61-.49-.79-1.08-.4-.4,.16-.8,.31-1.21,.47-.02-.44-.04-.88-.06-1.32Zm71.25-28.55c-.13-.06-.26-.12-.39-.18,.06,.12,.12,.25,.18,.37,.3,1.65,.92,3.18,1.97,5,1.07-2.54,.22-4.04-1.76-5.19Zm-13.36,2.29c.06,.23,.12,.46,.17,.69,.09-.08,.26-.21,.25-.22-.14-.16-.3-.31-.45-.46,.18-4.08-1.64-7.74-2.82-11.8-.93,1.34-1.57,2.54-2.49,3.53-.73,.77-.43,1.34,.04,1.91,1.73,2.14,2.87,4.69,5.3,6.35Zm-36.44-30.87c-1.83,1.67-3.41,3.44-4.29,5.75-3.33,8.74-.67,17.19,1.91,25.45,2.26,7.25,4.73,14.43,4.91,21.97,.07,2.92,1.13,4.65,3.51,6.22,1.1,.72,1.51,.62,1.86-.47,.86-2.66,2.17-5.26,2.52-7.97,1.03-7.9-.09-15.7-2.41-23.35-1.24-4.08-2.75-8.04-4.74-11.91-2.46-4.76-2.57-10.05-2.79-15.24,.2-.21,.32-.46,0-.63-.08-.05-.31,.13-.47,.2Zm70.25,58.11c.46-8.83-1.01-16.9-5.51-24.68-3.03-5.24-6.22-10.33-9.99-15.11-2.2-2.79-4.57-5.55-7.31-7.89-4.07-3.46-8.71-6.34-12.19-10.39-.98-1.13-2.34-1.99-4.07-3.43-.04,6.03,.28,11.17,3.98,15.84,3.9,4.91,9.16,8.54,13.63,12.89,3.4,3.3,6.74,6.64,9.79,10.25,3.99,4.74,6.7,9.92,8.05,15.69,.57,2.46,.42,5.1,3.62,6.82Zm-56.27-56.89c-3.39,5.84-3.39,11.58-.99,17.47,3.14,7.7,9.94,13,15.2,19.31,4.27,5.12,8.4,10.38,8.65,17.13,.08,2.17,1.83,3.35,2.67,5.04,.26,.52,1.28,.51,1.51-.01,.86-2.02,3.08-3.55,2.16-6.24-1.05-3.08-1.96-6.2-3.09-9.27-1.88-5.11-3.21-10.3-6.88-14.85-3.69-4.58-7.1-9.41-10.71-14.05-3.49-4.48-5.82-9.32-8.52-14.54Zm-21.12,7.23c-1.55,1.52-2.88,2.98-3.81,4.77-2.18,4.2-3.52,8.72-4.64,13.12-2.84,11.11-3.78,22.46-1.63,33.84,.25,1.33,.53,2.69,1.34,3.88,.76,1.1,2.01,1.73,3.24,1.63,1.46-.11,1.09-1.53,1.23-2.46,.83-5.54,1.35-11.09,3.4-16.48,1.68-4.44,2.42-9.17,3.66-13.76,.22-.83,.33-1.57,.1-2.39-2.05-7.23-3.65-14.51-2.88-22.15Zm42.51,6.92c1.82,8.78,2.99,17.55,5.98,26.01,2.21,6.26,2.79,12.95,6.53,18.82,1.54,2.41,4.12,4.22,7.17,4.04,1.17-.07,1.7-.4,1.24-1.52-3.14-7.47-2.93-15.48-4.57-23.19-.96-4.53-2.91-8.75-5.16-12.93-2.58-4.79-8.01-7-11.18-11.23Zm-23.71,5.3c-.13,9.02,.15,17.8,1.41,26.54,.67,4.6,2.12,8.96,4.32,13.13,1.33,2.52,2.89,4.81,6.19,5.51,1.98,.42,3.13-.48,2.34-2.17-1.99-4.29-1.58-8.75-1.46-13.19,.08-3.03-.3-5.97-1.22-8.89-2.35-7.51-6.33-14.3-11.59-20.93Zm43.17-10.28c.09-3.73-1.26-6.66-3.21-9.64-2.66-4.07-6.08-7.5-10.11-10.24-4.49-3.05-8.83-5.84-9.55-11.41-.18-1.35-.98-2.11-2.67-.85-2.23,1.67-2.45,3.78-2.32,6.1,.18,3.24,2.47,5.65,4.02,8.32,2.43,4.2,6.24,7.37,9.96,10.64,3.15,2.77,6.9,4.94,9.68,8.08,.97,1.1,1.96,3.09,3.36,2.66,1.46-.45,.47-2.6,.85-3.69Zm-27.08-33.48c-4.2,.43-7.15,1.42-8.88,4.34-1.94,3.28-2.74,6.91-3.62,10.5-.95,3.86,.83,7.43,1.76,11.1,.8,3.14,2.35,5.98,4.12,8.71,1.65,2.54,2.67,2.46,4.15-.16,.59-1.04,1.07-2.16,1.43-3.29,2-6.19,1.66-12.41-.09-18.56-1.17-4.12-2.16-8.16,1.12-12.64Zm-5.6-.64c-6.37-3.3-10.73-.48-14,4.56-3.32,5.13-5.6,10.83-5.99,16.91-.37,5.77-.27,11.53,3.17,17.07,2.91-3.61,3.85-7.65,5.48-11.37,1.92-4.4,2.49-9.14,3.08-13.85,.68-5.45,3.18-10.02,8.26-13.32Zm39.58,32.7c.16-9-4.17-16.45-8.44-23.92-.31-.53-.99-.88-1.34-1.41-.94-1.44-1.51-.75-1.96,.26-1.02,2.26-2.11,4.44-4.22,6.1-1.32,1.04-.39,1.85,.6,2.63,3.72,2.93,6.66,6.45,8.55,10.55,1.77,3.84,2.29,7.9,.7,11.97-.81,2.07,.87,3.66,2.2,4.27,1.58,.71,1.82-1.36,2.31-2.45,1.2-2.64,1.7-5.39,1.59-8Zm-64.96,26.29c-.38,1-.67,1.57-.81,2.17-1.41,6.04-2.64,12.13-4.26,18.12-.88,3.26-1.72,6.45-1.59,9.84,.08,2.05,.96,2.28,2.84,1.74,2.85-.81,4.74-2.5,5.98-4.89,2.01-3.87,2.99-7.78,2-12.16-1.11-4.87-1.49-9.89-4.17-14.84Zm57.12-1.96c.28,5.31,.41,10.63,.89,15.92,.37,4.15,.95,8.3,2.62,12.26,.53,1.27,1.42,2.18,2.56,2.89,1.9,1.18,4.04,.18,4.14-1.89,.08-1.73-.15-3.5,.21-5.18,2.13-9.91-3.59-17.07-10.41-24.01Zm-26.81,5.83c-.45,.06-.9,.12-1.35,.18,0,4.97,.04,9.95-.02,14.92-.03,2.29,0,4.57,.87,6.73,.55,1.38,.68,3.24,2.88,3.4,2.25,.15,2.49-1.79,3.37-3.01,.21-.29,.29-.67,.4-1.02,2.55-8.21-.41-15.05-6.16-21.19Zm-36-70.1c2.75,5.57,7.33,9.6,11.35,14.04,1.23,1.36,2.04,1.61,2.87-.3,.58-1.34,1.35-2.64,2.25-3.82,.8-1.05,.67-1.68-.39-2.5-3.03-2.32-6.04-4.69-8.13-7.82-.52-.78-1.28-1.33-2.21-1-1.94,.7-4.22,.32-5.75,1.4Zm10.63,21.17c-7.06,5.58-12.39,11.22-13.14,19.83,4.23-3.63,6.68-8.06,10.46-11.48,2.45-2.22,2.21-4.97,2.68-8.35Zm28.3,15.22c-.92,2.28-1.72,4.69-3.4,6.42-2.84,2.91-1.82,5.21,.41,7.73,.75,.86,1.36,2.08,2.57,2.04,1.36-.04,1.53-1.47,2.02-2.43,2.44-4.81-.38-9.17-1.59-13.76Zm33.1,6.7c-.61,3.18-1.51,5.92-3.03,8.45-.46,.78-.29,1.35,.11,2.02,1.34,2.23,2.65,4.48,3.96,6.73,.29,.5,.57,1,1.31,.87,.6-.11,.65-.64,.74-1.07,1.17-5.85,.66-11.45-3.09-17Zm-17.61-29.94c-2.59-1-2.65,1.7-4.07,2.57-3.94,2.39-1.53,3.15,.8,4.52,1.34,.79,1.85,.57,2.58-.43,.88-1.19,1.92-2.28,2.74-3.49,1.66-2.45,1.32-3-2.05-3.17Zm-29.8,81.36c1.85,.02,1.2-1.06,.7-1.55-1.28-1.23-1.74-2.75-2.26-4.27-.23-.68,.05-1.84-1.42-1.54-1.02,.21-3.76,4.62-3.82,5.84-.04,.92,.49,1.07,1.27,1.06,1.89-.03,3.78-.18,5.53,.46Zm-16.36,1.53c1.93-.37,3.45-.66,4.97-.96,3.04-.6,3.29-1.26,1.13-3.34-.66-.64-1.55-1.08-2.33-1.61-.58-.4-1.07-.42-1.37,.29-.76,1.79-1.52,3.58-2.39,5.63Zm9.62-39.74c-.2-4.36,1.7-8.72-.03-13.33-.78,1.24-1.34,2.21-1.97,3.13-.54,.79-1.55,1.26-.94,2.58,1.15,2.47,1.97,5.07,2.93,7.62Zm48.86-36.44c-.26,.19-.52,.39-.77,.58,2.5,2.15,3.18,5.1,4.59,8.41,1.09-2,1.87-3.34,2.55-4.73,.31-.62,.72-1.31-.45-1.77-2-.77-3.94-1.66-5.91-2.5Zm-16.39-6.92c-2.24-.77-4.19-1.43-6.11-2.12-.59-.21-1.24-.45-1.6,.09-.18,.26,.04,.9,.29,1.23,1.12,1.46,1.7,3.81,3.48,4.16,2.09,.41,2.26-2.31,3.94-3.36Zm25.36,75.29c-1.03,1.34-.67,2.74-.67,4.05,0,.82-.63,2.08,.66,2.36,1.3,.29,2.76,.19,4.05-.44,.66-.32,.39-.58,.07-1-1.28-1.69-2.34-3.53-4.11-4.98Zm-30.79,1.27c-.61,1.2-.39,2.59-1.7,3.46-.41,.27-.63,1.46,.48,1.34,1.23-.13,2.78,.1,3.63-.92,.78-.93-.54-1.59-.86-2.39-.23-.57-.54-1.19-1.55-1.49Zm-11.76-18.97c.93-1.98,.88-3.77-1.72-5.12,.65,1.93,1.18,3.53,1.72,5.12Z"/>
  <path class="cls-13" d="M247.32,167.41c0,.39,.01,.77,.02,1.16-1.63,1.2-4,1.03-5.71,2.47,6.26,2.95,12.76,3.92,19.57,3.51,0,.35,0,.7,0,1.05-6.97,1.31-13.42-.48-19.66-2.98-1.64-.65-2.96-.62-4.54-.19-2.01,.55-1.85,1.37-.46,2.3,2.14,1.44,4.38,2.78,6.57,4.16-.08,.33-.15,.67-.23,1-2.87-.9-5.52-2.27-7.49-4.31-1.61-1.66-3.22-1.81-5.3-1.26-3.02,.79-6.13,.89-9.25,.79-4.15-.14-8.15-.9-11.79-2.82-1.4-.74-3.1-.65-3.84,.36-.94,1.26,.84,1.84,1.74,2.57,3.66,2.97,7.95,4.69,12.72,5.68,6.06,1.26,12.14,.88,18.24,.63l.91-.15c.82-.1,1.64-.19,2.46-.29,0,.38,0,.75,0,1.13-2.77,.8-5.66,.72-8.51,.9-1.77-.58-3.53-.57-5.3,0-2.3,.11-4.56-.11-6.78-.68-1.03-.58-2.1-.93-3.33-.65-1.93-.62-3.68,.19-5.44,.66-3.04,.82-6.12,1.46-9.28,1.71-1.04-.78-2.64,.27-3.56-.9,4.69-.84,9.6-.81,13.85-2.85-3.24-1.47-6.55-2.98-8.79-5.71-1.07-1.31-2.18-1.42-3.61-.98-3.43,1.06-6.94,1.85-10.51,2.27-5.06,.59-10.25,1.26-14.46-2.43-1.34-1.17-2.68-.26-3.38,.39-1.05,.96,.51,1.54,1.15,2.03,5.34,4.11,11.6,6.29,18.51,7.05,0,.41,0,.83,0,1.24-1.03,.09-2.03,.02-2.98-.37-.32-.59-.71-.74-1.2-.14-2.12-.12-4.13-1.46-6.36-.53-.28-.33-.56-.66-.85-.98,.39-.31,.4-.65-.08-.8-3.65-1.16-6.73-3.08-9.43-5.57-1-.93-2.28-1.23-3.83-.9-7.85,1.67-15.69,2.99-23.14-1.4-1.31-.77-2.7,.24-3.42,1.02-.94,1.01,.82,1.29,1.31,1.95,1.35,1.82,4.35,1.75,5.46,3.87-.03,.24-.07,.48-.1,.72-2.62-.55-4.55-2.15-6.5-3.66-1.85-1.43-3.56-1.9-6.12-1.12-6.69,2.03-13.53,2.87-19.86-1.03-2.2-1.36-3.64-.31-5.74,.69,6.09,3.84,12.53,5.97,19.52,6.86,.68,1.1-.33,.96-.97,1.08-.46,0-.93,0-1.39,0-.42-.58-1.02-.63-1.69-.46-2.44-.42-4.88-1.01-7.31,.02-.33-.29-.65-.58-.98-.87,.54-.26,1.08-.52,2-.96-3.53-.87-6.35-2.17-9-3.82-1.7-1.06-3.45-1.15-5.59-.66-7.88,1.8-15.65,1.87-22.74-2.54-1.41-.88-2.44-.07-3.55,.43,3.35,3.2,7.57,4.89,11.45,7.06-.25,.46-.71,.57-1.22,.6,0-.26,.02-.53,.03-.79-1.88,.52-3.26-.86-4.95-1.07-1.25-.9-2.37-2.04-3.77-2.63-1.84-.77-2.71-3.09-5.2-2.71-7.35,1.11-14.46,.81-21.05-2.77-.83-.63-.82-1.26,.03-1.88,3.38-1.02,6.75-2.03,10.69-3.22-3.58-2.25-6.93-3.28-10.77-2.82-.89-.67-.78-1.28,.27-1.59,6.14-1.81,12.31-3.47,18.76-1.09,.37,.14,.91,.06,1.15,.28,3.88,3.68,7.79,2.25,12.1,.51,6.48-2.62,13.01-1.48,19.15,1.23,2.96,1.3,6.13,1.2,8.36-.06,7.09-4,14.26-4.17,21.49-1.17,4.67,1.94,8.73,.83,12.93-.69,1.93-.7,3.74-1.69,5.92-1.63,.43,.17,1.08,.09,1.16,.67,.08,.61-.52,.63-.98,.79-1.49,.52-3.3,.22-4.82,1.55,1.9,.41,3.73,.45,5.12,1.18,2.79,1.47,5.53,1.9,8.55,.89,0,.35,0,.7,.01,1.05-5.18,1.97-10.83,2.9-15.79,5.64,2.83,2.23,5.85,2.93,11.19,2.66,8.62-.43,16.55-3.18,24.49-5.92,0,.73,.52,.97,1.22,1.03-1.2,.41-2.45,.74-3.6,1.26-.65,.29-1.79,.31-1.73,1.23,.05,.75,.9,1.15,1.64,1.46,2.75,1.13,5.66,.93,8.54,.69,7.91-.66,15.27-3.32,22.8-5.34,.09,.36,.17,.72,.26,1.07-.54,1.86,1.37,1.52,2.21,1.79,7.76,2.47,15.35,1.55,22.9-.99,3.83-1.29,7.43-3.13,11.46-3.94Zm-165.45,6.09c5.03,3.09,11.74,4.04,18.13,3.02,5.99-.95,11.52-3.04,16.91-5.45,2.44-1.09,5.31-1.43,8.05-3.68-15.8-4.31-28.89,2.63-43.1,6.11Zm73.16-6.07c-9.3-5.97-28.83,.71-39.64,6.38,3.72,2.93,8.09,3.04,12.52,2.53,9.72-1.1,17.72-6.42,27.12-8.92Zm-61.31,1.02c-5.24-1.83-9.8-2.23-14.5-1.92-6.73,.44-13.22,1.95-19.62,3.78-1.43,.41-3.87,.48-3.81,1.83,.05,1.18,2.44,1.55,4.02,1.86,11.83,2.33,22.33-1.95,33.91-5.54Zm10.41-2.72c-9.84-3.23-16.32-3.42-19.52-.65,3.54,.38,7.02,.71,10.08,2.4,.76,.42,1.57,.24,2.32,.06,2.19-.52,4.36-1.1,7.12-1.81Zm30.42-.7c-6.83-3.25-14.86-3.51-17.74-.64,2.19,.3,4.66-.06,6.38,1.19,2.68,1.95,5.15,1.76,7.92,.4,.94-.46,2.08-.59,3.44-.96Zm-60.14,.19c-4.36-2.93-11.63-3.61-15.98-1.71,4.77,3.37,10.03,4.33,15.98,1.71Z"/>
  <path class="cls-13" d="M275.04,100.17c.33-.24,.66-.49,.98-.73,1.81,.16,3.49,1.29,5.72,.59-2.11-1.56-4-3.09-4.42-5.52,.41-1.07-.2-2-.48-2.98,5-.58,9.99,.26,15.3,.54-3.01-6.94-8.43-9.84-15.89-10.01,0-.38,0-.76,.01-1.14,6.97-.23,12.4,2.11,15.87,7.78,.75,1.23,2.05,2.14,2.55,3.56,.18,.49,.82,.89,1.45,.73,.81-.21,.49-.89,.41-1.37-.42-2.62-1.07-5.27-2.97-7.29-3.74-3.97-8.5-6.69-14-8.32,.5-.33,1-.66,1.49-.99,5.93,1.93,11.25,4.64,14.65,9.7,.71,1.05,1.87,1.32,2.96,1.71,9.53,3.41,16.69,8.95,19.73,18.14,.8,2.43,2.56,4.34,4.04,6.33,4.11,5.52,4.28,11.39,2.37,17.44-.82,2.61-1.03,5.03-.53,7.72,1.92,10.42-3.66,17.95-12.06,24.12-1.63,1.2-2.49,2.74-3.78,4.06-.45-.4-1.2,1.66-1.48-.15-.34-.31,1.69-1.61-.61-1.13-3.11,.66-6.26,1.13-9.46,1.28-.61-.22-.73-.71-.79-1.22,2.01-3.2,2-6.94,3.4-10.31,.22-.52,.39-1.28-.3-1.76-.67-.47-1.38-.2-1.96,.14-2.78,1.58-5.71,2.99-7.76,5.42-.96,.13-1.13-.84-1.83-1.08-2-.04-4-.09-6-.13-.2-.33-.41-.66-.61-.99h0c.83-.03,1.73,.23,2.42-.43,1.42-.5,2.68,.31,4.01,.47,1.78,.21,2.61-.25,2.56-1.89,0-.39,0-.79,0-1.18-.08-.35-.22-.7-.22-1.05,.02-5.62,3.71-9.1,8.47-11.99,.44-.27,2.22-.04,1.06-1.5-4.34-5.47-3.34-11.1-.22-16.61,.64-1.13,.68-1.39-.47-1.99-5.44-2.82-9.02-7.06-11.06-12.38-.93-2.42-2.63-3.61-5.46-3.79-2.47-.16-5.01-.31-7.12-1.77Zm43.39,24.05c-.56,0-1.12-.01-1.68-.02-.82-3.57-1.77-7.21-5.02-9.59-2.97-2.17-6.35-3.88-9.6-5.73-.96-.54-2.1-1.67-3.17-.87-1.1,.82,.48,1.71,.65,2.62,.11,.63,.15,1.26,.26,1.89,.71,3.97,1.8,7.87,4.25,11.24,1.63,2.23,3.75,4.19,5.17,6.57,1.06,1.78,2.69,4.89,3.75,4.63,2.5-.64,3.01-3.51,3.7-5.79,.56-.18,1.12-.37,1.68-.55,.67,3.08-1.84,4.89-3.41,7.08-.63,.87-2.13,1.78-1.14,2.78,1.12,1.13,1.93-.51,2.91-.88,1.23-.46,1.76-1.41,2.44-2.28,1.53-1.94,2.12-4.29,3.27-6.39,3.76-6.83,1.84-12.63-3.12-19.01-.34,2.75,.51,5.77-2.68,7.61-.54,.31-.25,1.08,.17,1.47,1.61,1.49,1.28,3.42,1.57,5.21Zm-37.05-31.34c-.78,.35-2.26-.48-2.83,.49-.54,.91,.38,2,1.13,2.64,2.5,2.16,4.64,4.65,8.05,5.93,7.81,2.95,16.18,4.87,22.82,10.03,1.15,.9,2.06,.63,2.42-1,.98-4.47-1.64-7.51-4.92-10.12-7.54-6-16.82-7.5-26.68-7.98Zm18.95,65.24c11.14-5.39,17.25-15.69,7.04-27.53-3.45,2.38-5.12,5.77-5.65,9.47-.85,5.91-.12,11.91-1.39,18.06Zm21.21-23.6c-1.57,2.71-3.18,4.76-6.06,5.58-1.06,.3-1.22,.97-1.23,1.9-.08,8.63-5.44,13.99-13.45,17.66-1.28,.58-2.53,1.12-2.39,2.71,12.85,1.19,27.7-12.93,23.13-27.85Zm-23.87-46.53c-.33,3.85,.69,6.71,5.14,7.96,3.73,1.05,6.57,3.58,9.02,6.12,2.81,2.91,3.82,6.61,2.22,10.49-.6,1.45-.16,2.79,1.14,3.3,1.51,.59,1.2-1.28,1.94-1.86,.73-.56,.5-1.32,.67-2,.5-1.9-.83-3.47-1.05-5.23-.83-6.61-4.91-11.44-10.65-15.08-2.5-1.59-5.07-3.51-8.44-3.7Zm-5.91,64.2c2.67-.91,5.26-2.19,7.53-3.49,1.41-.81,.21-3.73,.43-5.69,.07-.63,.11-1.26,.12-1.9,0-.43,.1-1.04-.16-1.26-.51-.43-1.14-.06-1.61,.27-3.57,2.62-7.91,6.82-6.32,12.07Zm9.37-16.28c1.59-2.19,2.27-4.75,4.58-6.32,.46-.32,.52-1.16,.02-1.49-2.47-1.67-3.17-4.47-5.02-6.63-3.27,4.95-3.71,9.65,.42,14.44Zm-2.78-19.57c-.41-2.55-1.1-4.53-.94-6.44,.24-2.86-1.34-3.9-3.97-4.44-.97-.2-1.9-.55-2.86-.82-1-.28-1.63-.13-1.23,1,1.57,4.33,4.75,7.52,8.99,10.71Z"/>
  <path class="cls-4" d="M317.9,28.08c0,.18-.05,.48,.03,.52,3.35,1.42,2.2,4.17,2.37,6.53-3.45,1.56-7.34,1.86-10.86,3.21-.21,.05-.41,.09-.62,.14-.29,.11-.59,.21-.88,.32-13.45,3.24-26.79,6.83-40.1,10.5-.68,.17-1.35,.35-2.03,.52l-.09-.09-.08,.14c-2.29,.6-4.59,1.2-6.88,1.81-.36,.12-.71,.24-1.07,.37-5.15,.97-10.15,2.39-15.15,3.84-1.08-.31-2.38,1.17-3.03,.21-1.26-1.87-2.18-3.95-2.95-6.04-.43-1.15,.94-1.09,1.75-1.29,5.46-1.41,10.93-2.81,16.39-4.25,16.38-4.3,32.73-8.67,49.13-12.9,4.68-1.21,9.26-2.8,14.09-3.53Z"/>
  <path class="cls-8" d="M163.23,16.46c.12-1.62,.98-2.35,2.87-2.22,1.86,.12,3.74,.01,5.61,0,1.42,5.24,3.12,10.38,5.03,15.51,2.92,7.82,6.51,15.34,10.1,22.89,.28,.58,.46,1.22,.83,1.75,2.59,3.74,2.56,3.65-1.83,5.1-2.45,.81-3.9,.28-4.94-1.87-2.8-5.78-6.57-11.16-8.66-17.24-.48-1.39-.87-2.83-1.61-4.11-3.6-6.27-4.58-13.33-7.4-19.82Z"/>
  <path class="cls-13" d="M163.23,16.46c2.82,6.5,3.79,13.56,7.4,19.82,.73,1.28,1.13,2.72,1.61,4.11,2.09,6.08,5.86,11.46,8.66,17.24,1.04,2.15,2.49,2.68,4.94,1.87,4.39-1.46,4.42-1.36,1.83-5.1-.37-.53-.55-1.17-.83-1.75-3.59-7.55-7.18-15.07-10.1-22.89-1.91-5.13-3.61-10.27-5.03-15.51,1.95-.88,1.73,.85,1.91,1.52,1.8,6.69,4.49,13.13,7.09,19.55,2.89,7.15,5.82,14.36,10.26,20.94,.83,1.23,1.53,1.32,2.86,1,5.59-1.35,11.01-3.25,16.71-4.24,.04,.33,.07,.67,.11,1-.18,.08-.35,.17-.53,.23-6.83,2.13-14,3.25-20.67,5.84-1.43,.37-2.86,.74-4.3,1.11-.45,.1-.9,.2-1.35,.3l-2.8,.31c-.45-.62-1.18-.42-1.81-.52,1.07-.34,1.77-.76,.97-1.94-4.31-6.37-7.12-13.39-10.62-20.12-1.14-2.2-1.75-4.63-2.59-6.95-1.69-4.64-3.42-9.26-5.03-13.92-.3-.86-1.48-2.62,1.31-1.91Z"/>
  <path class="cls-10" d="M258.74,51.67c2.29-.6,4.59-1.2,6.88-1.81,0,0,.17-.05,.17-.05,.68-.17,1.35-.35,2.03-.52,.1,.83-.8,1.02-1.2,1.53-.9,.28-1.7,.86-2.73,.73-.77-.07-1.58-.31-2.11,.49-.61,.17-1.23,.34-1.84,.51-.19-.01-.35,.05-.48,.17-.33,.1-.66,.2-.99,.31-.54,.02-1.1-.02-1.47,.45-.51,.32-1.07,.37-1.67,.23-.24,.05-.47,.1-.71,.14-2.43,.69-1.99,2.63-2.21,4.25-.61,4.63-.5,4.47,4.03,6.76,2.75,1.38,5.38,3.12,7.61,5.12,1.82,1.63,3.63,2.71,6.16,2.78,.34,.51,.73,.65,1.21,.12,.44,.11,.88,.22,1.33,.32,.2,.04,.39,.08,.59,.11,2.42-.08,4.59,.69,6.71,1.61,0,0,.26,.07,.26,.07l.27-.04c.19-.11,.35-.09,.49,.07-.5,.33-1,.66-1.49,.99-3.73-.93-7.42-2.08-11.45-1.73,1.07,.8,1.62,1.81,1.78,2.83,.46,3.03,2.34,4.06,5.5,3.63,.27-.04,.57,.12,.86,.19,0,.38,0,.76-.01,1.14-2.21-.01-4.42-.03-6.63-.04-.2-.28-.4-.28-.6,0-.4,0-.81,0-1.21,0-1.26-.82-2.62-.41-3.95-.27-1.27,.26-2.74,1.36-3.48-.68,1.71-.35,1.75-1.19,.86-2.35-1.44-1.87-3.38-2.97-5.83-3.49-2.52-.53-4.98-1.27-7.47-1.91-.03-.58-.06-1.15-.09-1.73,.06-.36,.11-.72,.17-1.08,.75-4.35,2.79-8.45,3.01-12.91,.08-1.72-.07-2.63-2.37-1.8-1.75,.64-3.65,.92-5.48,1.36-.22-.43-.44-.86-.66-1.29,5-1.45,10.01-2.87,15.15-3.84,.36-.12,.71-.24,1.07-.37Zm8.08,28.85c.67-.31,2.9,.7,1.95-1.38-2.5-5.45-7.11-9.34-12.51-12.32-4.43-2.45-4.28-2.15-5.85,2.33-1,2.87,0,3.8,2.83,4.14,.49,.06,.94,.33,1.43,.39,4.27,.54,7.24,2.77,9.39,5.98,.68,1.02,1.61,.88,2.77,.86Z"/>
  <path class="cls-13" d="M226.7,39.94c4.95-5.99,15.44-6.08,20.77,.07,1.79,2.06,3.3,2.17,5.81,1.5,18.03-4.8,36.1-9.47,54.16-14.19,.68,.12,1.48-.09,1.97,.57-.46,.17-.91,.39-1.38,.51-14.95,3.93-29.89,7.93-44.88,11.75-5.45,1.39-10.73,3.36-16.4,4v-.2c1.46-.61,1.1-1.34,.33-2.28-4.31-5.3-13-6.98-19.6-.86-.26-.3-.52-.59-.77-.89Z"/>
  <path class="cls-8" d="M52.61,172.77c6.59,3.58,13.71,3.88,21.05,2.77,2.48-.38,3.35,1.94,5.2,2.71,1.41,.59,2.53,1.73,3.77,2.63-2.36,1.02-4.66,1.58-7.41,.91-2.81-.69-5.82-1.15-8.67,.2-1.24,.31-2.3-.23-3.44-.55-3.91-1.1-7.27-3.09-10.54-5.22,.01-1.15,.03-2.3,.04-3.45Z"/>
  <path class="cls-13" d="M273.26,170.36c.62,.15,1.23,.3,1.85,.46-.03,.14-.04,.28-.05,.42-1.18,.26-2.76,.63-2.83,1.65-.08,1.16,1.92,.72,2.53,1.3,1.36,1.29,2.95,.73,4.44,.9,9.62,1.13,18.02-.99,24.68-7.7,.7,.04,1.39,.08,2.09,.12-.12,.16-.24,.31-.36,.47-.46-.03-.85,.05-1.01,.5-3.7,4.39-8.76,6.94-14.6,7.75-5.43,.75-10.65,1.76-15.81,3.58-8.44,2.98-17.27,3.63-26.24,2.21-.13-.84-.87-.83-1.56-.98-.97-.21-.73-.65-.13-1.08,11.18,2.67,21.77,.89,32.67-3.34-3.16-.95-6.01-.75-8.14-2.46,.07-.78,.27-1.63-1.02-1.76,1.17-.68,2.34-1.35,3.51-2.03Z"/>
  <path class="cls-7" d="M317.9,28.08c-4.83,.72-9.4,2.32-14.09,3.53-16.4,4.24-32.75,8.6-49.13,12.9-5.46,1.43-10.92,2.83-16.39,4.25,0-.22-.01-.44-.02-.66,1.85-1.2,4.11-1.31,6.2-1.86,18.88-5,37.77-9.94,56.62-15.04,5.02-1.36,10.28-2.06,14.96-4.38,0,0,0,0,0,0,.98,.02,1.97,.04,2.95,.06,.17,.8-.36,1.08-1.09,1.2Z"/>
  <path class="cls-13" d="M266.62,50.82c.4-.51,1.3-.7,1.2-1.53,13.31-3.67,26.65-7.26,40.1-10.5,.29-.11,.59-.21,.88-.32,.21-.05,.41-.09,.62-.14-.01,.4-.02,.81-.03,1.21-9.65,2.6-19.28,5.22-28.94,7.78-4.59,1.22-9.22,2.33-13.83,3.49Z"/>
  <path class="cls-8" d="M161.7,165.73c-3.02,1.01-5.76,.58-8.55-.89-1.39-.73-3.22-.77-5.12-1.18,1.51-1.33,3.33-1.02,4.82-1.55,.46-.16,1.06-.18,.98-.79-.07-.58-.73-.51-1.16-.67,2.74-1.52,7.48-1.23,9.64,.61-1.3,.23-2.57-1.19-3.82-.13,2.43,1.64,5.77,1.38,8.31,3.14-1.57,1.27-3.62,.53-5.1,1.47Z"/>
  <path class="cls-11" d="M147.23,181.13c.03-.24,.07-.48,.1-.72,5.71,1.71,11.27,3.93,17.4,4.15,0,.4,0,.8,0,1.2-3.03,.3-6.1-.1-8.78-1.13-4.07-1.57-7.9-1.42-12.1-.63-5.36,1.01-10.86,1.26-16.28-.05,.64-.13,1.65,.02,.97-1.08,5.65,.74,11.26,.54,16.83-.57,.74-.15,1.97,.17,1.86-1.16Z"/>
  <path class="cls-13" d="M52.57,176.22c3.27,2.14,6.63,4.13,10.54,5.22,1.13,.32,2.19,.86,3.44,.55,2.2,1.23,4.77,.94,7.14,1.45,0,.31,0,.61,0,.92-.05,.12-.06,.23-.04,.36-2.71-.04-5.44-.33-7.96-1.13-3.23-1.02-6.22-.92-9.29,.27-.72,.28-1.55,.43-2.33,.44-.68,.01-1.82,.63-1.95-.5-.12-.96,1-.98,1.76-1.03,1.51-.1,2.91-.46,4.75-1.29-1.84-.97-3.43-1.73-4.92-2.64-.96-.59-2.64-1.08-1.12-2.61Z"/>
  <path class="cls-11" d="M116.21,182.64c.33,.29,.65,.58,.98,.87-7.52,2.24-15.22,2.78-22.91,1.17-3.16-.66-6.12-.05-9.17-.17,0-.37,.01-.74,.02-1.11,.77-.09,1.54-.18,2.31-.28,2.01,1.14,4.07,.9,6.15,.16,7.6,1.29,15.13,.77,22.63-.65Z"/>
  <path class="cls-8" d="M52.56,164.85c3.85-.46,7.19,.58,10.77,2.82-3.94,1.19-7.32,2.2-10.69,3.22-.03-2.02-.05-4.03-.08-6.05Z"/>
  <path class="cls-10" d="M161.7,165.73c1.48-.93,3.54-.2,5.1-1.47-2.53-1.76-5.87-1.5-8.31-3.14,1.25-1.05,2.52,.37,3.82,.13,.41,.02,.81,.05,1.22,.07,.31,.44,.76,.34,1.21,.27,.99,.54,1.97,1.08,2.96,1.62,.2,.13,.41,.26,.62,.39,.24,.14,.48,.28,.71,.41,1.3,1.43,2.72-.17,4.06,.14l.08,.03c-.12,.37,1.4,.64,.16,.99-.89,.25-1.92,.1-2.88,.13-2.91,.49-5.82,.98-8.73,1.47,0-.35,0-.7-.01-1.05Z"/>
  <path class="cls-11" d="M309.39,39.55c.01-.4,.02-.81,.03-1.21,3.52-1.35,7.42-1.65,10.86-3.21,.63,0,1.28,.07,1.29,.8,.01,.69-.64,.82-1.23,.96-3.66,.86-7.17,2.21-10.95,2.66Z"/>
  <path class="cls-13" d="M164.74,185.76c0-.4,0-.8,0-1.2,2.34-.08,4.68-.17,7.01-.25,.44-.05,.89-.1,1.33-.15,.58-.13,1.16-.26,1.75-.39,.23-.05,.45-.1,.68-.15,1.65-.46,3.3-.92,4.96-1.38,.28,.33,.56,.65,.85,.98-1.19,.48-2.26,1.25-3.67,1.17-.28,.12-.56,.24-.84,.37-.75,.07-1.5,.15-2.26,.22-.24,.08-.49,.15-.73,.23-.58,.1-1.16,.2-1.73,.3-.81,.04-1.61,.08-2.42,.12-1.63,.45-3.27,.44-4.92,.11Z"/>
  <path class="cls-10" d="M85.12,183.4c0,.37-.01,.74-.02,1.11-3.58,.67-7.19,.49-10.8,.26-.2-.14-.41-.28-.61-.41,0-.31,0-.61,0-.92,3.81-.01,7.62-.02,11.42-.04Z"/>
  <path class="cls-13" d="M173.1,164.16c-1.34-.31-2.76,1.29-4.06-.14,1.42,.18,2.11-.26,2.38-1.67,.46-2.43,1.37-4.73,4.16-5.86,.02,.44,.04,.88,.06,1.32-1.73,1.83-3.27,3.71-2.54,6.35Z"/>
  <path class="cls-11" d="M309.41,27.9c-.49-.66-1.29-.45-1.97-.57,3.08-.88,6.15-1.8,9.25-2.61,.82-.21,2.14-.61,1.86,1.05-.81,.4-2.05-.03-2.52,1.06,0,0,0,0,0,0-2.37-.44-4.36,1.05-6.63,1.08Z"/>
  <path class="cls-11" d="M191.84,184.27c0-.41,0-.83,0-1.24,2.42,.08,4.83,.16,7.25,.24,.92,1.17,2.52,.12,3.56,.9-3.6,.48-7.2,.64-10.81,.11Z"/>
  <path class="cls-11" d="M246.25,179.96c-.6,.43-.84,.87,.13,1.08,.69,.15,1.43,.13,1.56,.98-2.21,.07-4.43,.15-6.64,.22,0-.38,0-.75,0-1.13,.44-.5,1.8,0,1.6-1.2,.08-.33,.15-.67,.23-1,1.26-.17,2.14,.6,3.13,1.06Z"/>
  <path class="cls-11" d="M305.97,167.5c-.7-.04-1.39-.08-2.09-.12,1.03-1.1,2.07-2.2,3.1-3.3,.28,1.8,1.03-.25,1.48,.15-.6,1.24-1.35,2.38-2.49,3.27Z"/>
  <path class="cls-10" d="M223.77,43.71c.21-.99,.56-1.92,1.39-2.63,.5,0,.91-.13,1.08-.61-.02-.2,.08-.31,.3-.34,.25,.32,.5,.63,.76,.95-.36,.55-.71,1.09-1.07,1.64-.8,.04-1.24,.38-1.18,1.14-.29,.88-.58,1.75-.88,2.63-.13-.92-.26-1.84-.39-2.76Z"/>
  <path class="cls-10" d="M179.18,61.3c.63,.09,1.36-.11,1.81,.52-2.01,.94-4.18,1.45-6.35,1.98-.19-.28-.39-.56-.58-.84,.37-.45,.89-.59,1.48-.58,1.12,.07,2.25,.15,3.02-.83,.21-.09,.42-.17,.62-.26Z"/>
  <path class="cls-11" d="M227.49,183.12c1.77-.56,3.53-.57,5.3,0-1.77,.39-3.53,.35-5.3,0Z"/>
  <path class="cls-10" d="M210.65,54.03c-.04-.33-.07-.67-.11-1,.44-.44,.98-.61,1.63-.53,.44-.06,.88-.11,1.33-.17,.6-.51,1.33-.7,2.14-.65,.26,.26,.52,.52,.78,.78-1.78,.94-3.87,.98-5.76,1.58Z"/>
  <path class="cls-13" d="M223.77,43.71c.13,.92,.26,1.84,.39,2.76,0,0,0,.04,0,.04-.77-.46-.95,.33-1.4,.55,.07-1.18,.31-2.33,1.01-3.35Z"/>
  <path class="cls-11" d="M217.38,181.78c1.23-.28,2.31,.07,3.33,.65-1.13-.15-2.33,.01-3.33-.65Z"/>
  <path class="cls-9" d="M316.04,26.82c.47-1.09,1.71-.65,2.52-1.06,.47,.27,.52,.67,.43,1.11-.98-.02-1.97-.04-2.95-.06Z"/>
  <path class="cls-13" d="M178.56,61.56c-.77,.98-1.9,.89-3.02,.83,1.01-.28,2.02-.55,3.02-.83Z"/>
  <path class="cls-13" d="M218.4,50.86c-.47,.68-1.21,.61-1.94,.55,.52-.54,1.19-.68,1.94-.55Z"/>
  <path class="cls-13" d="M261.78,52.03c.53-.8,1.34-.55,2.11-.49-.62,.47-1.3,.69-2.11,.49Z"/>
  <path class="cls-3" d="M164.75,161.59c-.45,.07-.9,.17-1.21-.27,.61-.66,.96-.39,1.21,.27Z"/>
  <path class="cls-11" d="M304.59,168.47c.17-.45,.56-.53,1.01-.5-.06,.63-.6,.47-1.01,.5Z"/>
  <path class="cls-13" d="M226.24,40.46c-.17,.48-.58,.62-1.08,.61,.04-.67,.64-.53,1.08-.61Z"/>
  <path class="cls-11" d="M124.49,183.49c.67-.18,1.26-.12,1.69,.46-.65,.12-1.21-.04-1.69-.46Z"/>
  <path class="cls-13" d="M271.42,72.88c-.47,.53-.86,.39-1.21-.12,.43-.18,.83-.14,1.21,.12Z"/>
  <path class="cls-11" d="M187.66,183.76c.49-.61,.87-.45,1.2,.14-.4-.05-.8-.09-1.2-.14Z"/>
  <path class="cls-11" d="M169.66,185.65c.81-.04,1.61-.08,2.42-.12-.79,.23-1.59,.39-2.42,.12Z"/>
  <path class="cls-13" d="M257,53.48c.37-.47,.94-.43,1.47-.45-.49,.15-.98,.3-1.47,.45Z"/>
  <path class="cls-13" d="M213.49,52.32c-.44,.06-.88,.11-1.33,.17,.44-.06,.88-.11,1.33-.17Z"/>
  <path class="cls-13" d="M280.58,74.95l-.27,.04s-.26-.07-.26-.07c.18,0,.36,.02,.53,.03Z"/>
  <path class="cls-13" d="M273.33,73.31c-.2-.04-.39-.08-.59-.11,.2,.04,.39,.08,.59,.11Z"/>
  <path class="cls-7" d="M73.69,184.36c.2,.14,.41,.28,.61,.41-.22-.02-.44-.04-.66-.06-.02-.12,0-.24,.04-.36Z"/>
  <path class="cls-11" d="M176.8,184.78c.28-.12,.56-.24,.84-.37-.28,.12-.56,.24-.84,.37Z"/>
  <path class="cls-11" d="M173.81,185.23c.24-.08,.49-.15,.73-.23-.24,.08-.49,.15-.73,.23Z"/>
  <path class="cls-13" d="M254.62,53.86c.24-.05,.47-.1,.71-.14-.24,.05-.47,.1-.71,.14Z"/>
  <path class="cls-13" d="M259.46,52.72c.13-.13,.29-.19,.48-.17-.16,.06-.32,.12-.48,.17Z"/>
  <path class="cls-13" d="M221.36,50.09c-.25,.07-.49,.14-.74,.22,.25-.07,.49-.14,.74-.22Z"/>
  <path class="cls-10" d="M226.7,39.94c.26,.3,.52,.59,.77,.89-.06,.08-.12,.16-.18,.24-.25-.32-.5-.63-.76-.95,0,0,.17-.18,.17-.18Z"/>
  <path class="cls-13" d="M168.33,163.61c-.21-.13-.41-.26-.62-.39,.21,.13,.41,.26,.62,.39Z"/>
  <path class="cls-6" d="M197.5,99.79c.22,5.19,.33,10.48,2.79,15.24,1.99,3.87,3.5,7.83,4.74,11.91,2.33,7.65,3.44,15.45,2.41,23.35-.35,2.71-1.66,5.31-2.52,7.97-.35,1.1-.77,1.2-1.86,.47-2.38-1.57-3.44-3.3-3.51-6.22-.18-7.54-2.65-14.72-4.91-21.97-2.57-8.25-5.23-16.71-1.91-25.45,.88-2.3,2.46-4.08,4.29-5.75,.16,.15,.32,.29,.48,.44Z"/>
  <path class="cls-6" d="M267.28,157.46c-3.2-1.72-3.04-4.36-3.62-6.82-1.34-5.77-4.05-10.95-8.05-15.69-3.04-3.61-6.39-6.95-9.79-10.25-4.48-4.35-9.74-7.98-13.63-12.89-3.71-4.67-4.03-9.81-3.98-15.84,1.73,1.44,3.09,2.3,4.07,3.43,3.48,4.05,8.12,6.93,12.19,10.39,2.75,2.33,5.12,5.09,7.31,7.89,3.77,4.78,6.96,9.88,9.99,15.11,4.5,7.78,5.97,15.84,5.51,24.68Z"/>
  <path class="cls-6" d="M211.01,100.58c2.71,5.21,5.03,10.06,8.52,14.54,3.61,4.64,7.02,9.47,10.71,14.05,3.67,4.55,5,9.74,6.88,14.85,1.13,3.07,2.04,6.19,3.09,9.27,.92,2.69-1.3,4.22-2.16,6.24-.22,.53-1.25,.54-1.51,.01-.85-1.69-2.59-2.87-2.67-5.04-.26-6.75-4.39-12.02-8.65-17.13-5.26-6.31-12.07-11.61-15.2-19.31-2.4-5.9-2.41-11.63,.99-17.47Z"/>
  <path class="cls-6" d="M189.89,107.8c-.77,7.64,.83,14.92,2.88,22.15,.23,.83,.13,1.57-.1,2.39-1.24,4.59-1.98,9.32-3.66,13.76-2.04,5.39-2.56,10.94-3.4,16.48-.14,.93,.24,2.35-1.23,2.46-1.24,.09-2.49-.53-3.24-1.63-.82-1.19-1.09-2.54-1.34-3.88-2.14-11.38-1.21-22.73,1.63-33.84,1.12-4.4,2.47-8.92,4.64-13.12,.93-1.79,2.26-3.25,3.81-4.77Z"/>
  <path class="cls-6" d="M232.39,114.73c3.17,4.24,8.61,6.44,11.18,11.23,2.25,4.18,4.2,8.4,5.16,12.93,1.64,7.71,1.44,15.72,4.57,23.19,.47,1.12-.07,1.45-1.24,1.52-3.05,.18-5.63-1.63-7.17-4.04-3.75-5.87-4.33-12.57-6.53-18.82-2.99-8.47-4.16-17.23-5.98-26.01Z"/>
  <path class="cls-4" d="M185.15,61.21c1.43-.37,2.86-.74,4.3-1.11,.12,.22,.25,.45,.37,.67,.73,1.15,1.71,.51,2.61,.27,5.34-1.38,10.73-2.63,16-4.21,4.12-1.23,8.45-1.88,12.38-3.61,1.09-.17,2.07-.11,2.18,1.16,.18,2.04,1.41,3.76,1.95,5.69-4.49,1.41-9.21,1.89-13.79,2.94-9.96,1.03-19.72,3.12-29.56,4.72-2.87,.47-3.15,1.8-1.02,3.73,.82,.74,1.75,1.39,3.05,2.41-6.25,1.42-12.04,2.35-17.82-.12-1.82-.78-2.51-1.85-.95-3.62,2.07-2.36,4.65-3.94,7.67-5.04,.32,.27,.65,.54,.97,.8-1.29,.68-2.63,1.3-3.86,2.05-2.37,1.45-2.7,3.75-.59,4.53,1.92,.71,4.05,.82,6.16,.15-1.39-.52-2.82-.72-4.25-.93-.76-.11-1.76,.07-1.93-.91-.15-.86,.7-1.13,1.34-1.59,3.83-2.77,8.26-4.36,12.87-5.65,.92-.26,2.13-.2,1.9-1.58,.01-.25,.02-.5,.04-.75Z"/>
  <path class="cls-8" d="M227.29,41.07c.06-.08,.13-.16,.18-.24,6.61-6.12,15.29-4.44,19.6,.86,.77,.95,1.13,1.68-.32,2.28-1.63,.36-3.27,.73-4.9,1.09-.58-.11-1.16-.22-1.74-.32-4.01-.69-6.22,1.29-5.43,4.92,.17,.79,.51,1.55,.8,2.32,1.61,4.14,3.95,8.08,4.04,12.61-.39,1.27,.79,3.2-.55,3.74-1.53,.62-3.12-.82-4.52-1.67-5.44-3.28-8.83-7.87-10.35-13.62-.08-.39-.16-.78-.25-1.17-.02-.86-.03-1.73-.05-2.59,.28-.84,.71-1.67,.1-2.54,.12-.05,.2-.13,.24-.25,0,0,0-.04,0-.04,.29-.87,.59-1.75,.88-2.62,.47-.32,1.28-.34,1.18-1.14,.36-.55,.71-1.09,1.07-1.64Z"/>
  <path class="cls-6" d="M208.69,120.03c5.26,6.63,9.23,13.42,11.59,20.93,.91,2.92,1.3,5.86,1.22,8.89-.12,4.44-.53,8.89,1.46,13.19,.79,1.7-.36,2.6-2.34,2.17-3.29-.7-4.86-2.98-6.19-5.51-2.2-4.17-3.65-8.53-4.32-13.13-1.27-8.75-1.54-17.53-1.41-26.54Z"/>
  <path class="cls-6" d="M251.85,109.75c-.38,1.08,.61,3.24-.85,3.69-1.4,.43-2.39-1.57-3.36-2.66-2.78-3.14-6.52-5.31-9.68-8.08-3.72-3.27-7.53-6.45-9.96-10.64-1.55-2.67-3.83-5.09-4.02-8.32-.13-2.33,.09-4.44,2.32-6.1,1.69-1.26,2.49-.51,2.67,.85,.73,5.56,5.06,8.36,9.55,11.41,4.03,2.74,7.45,6.16,10.11,10.24,1.95,2.98,3.3,5.91,3.21,9.64Z"/>
  <path class="cls-6" d="M224.77,76.27c-3.28,4.48-2.29,8.52-1.12,12.64,1.75,6.16,2.09,12.38,.09,18.56-.36,1.13-.84,2.24-1.43,3.29-1.48,2.62-2.5,2.7-4.15,.16-1.77-2.73-3.33-5.57-4.12-8.71-.93-3.66-2.71-7.23-1.76-11.1,.88-3.58,1.67-7.22,3.62-10.5,1.73-2.92,4.68-3.92,8.88-4.34Z"/>
  <path class="cls-6" d="M219.18,75.63c-5.08,3.31-7.58,7.88-8.26,13.32-.59,4.71-1.16,9.45-3.08,13.85-1.63,3.72-2.57,7.76-5.48,11.37-3.44-5.55-3.54-11.31-3.17-17.07,.39-6.07,2.67-11.78,5.99-16.91,3.26-5.04,7.63-7.86,14-4.56Z"/>
  <path class="cls-8" d="M269.63,82.02c2.21,.01,4.42,.03,6.63,.04,7.46,.17,12.88,3.07,15.89,10.01-5.3-.28-10.29-1.12-15.3-.54-2.38-.11-4.77-.21-7.15-.32-.78-.38-1.62-.42-2.48-.34-5.74-1.34-11.52-2.55-15.4-7.22-1.21-1.46-.42-1.57,.95-1.57,2.21,.67,4.45,.46,6.69,.21,.77-.09,1.76-.17,.89-1.26l.04,.03c.73,2.03,2.2,.94,3.48,.67,1.26,.78,2.62,.3,3.95,.28,.4,0,.81,0,1.21,0,.2,0,.4,0,.6,0Z"/>
  <path class="cls-6" d="M260.39,81.07s-.04-.03-.04-.03c-1.33-.51-2.68-.5-4.03-.07-6.46-.65-13.06-.13-19.41-1.74-3.88-.98-7.81-1.91-9.57-5.81-.59-1.3-.85-2.59-.73-3.99,.12-1.43,.74-2.71,1.74-3.72,1.81-1.83,2.6,.63,3.54,1.12,2.6,1.36,5.22,2.67,7.91,3.89,.94,.43,1.79,.76,2.83,.43,0,0-.06-.04-.06-.04,1.22,1.91,3.53,1.62,5.4,2.21,2.49,.65,4.95,1.38,7.47,1.91,2.46,.52,4.4,1.62,5.83,3.49,.89,1.16,.86,1.99-.86,2.35Z"/>
  <path class="cls-8" d="M273.26,170.36c-1.17,.68-2.34,1.35-3.51,2.03-2.85,.72-5.7,1.44-8.56,2.16-6.81,.41-13.31-.56-19.57-3.51,1.71-1.44,4.08-1.27,5.71-2.47,8.28-2.41,16.69-4.28,25.41-4.73,2.61-.13,5.19,.01,8.01,.51-2.23,2.44-4.54,4.55-7.5,6.01Z"/>
  <path class="cls-6" d="M258.75,108.33c.11,2.61-.39,5.37-1.59,8-.5,1.09-.73,3.16-2.31,2.45-1.34-.6-3.01-2.2-2.2-4.27,1.59-4.08,1.07-8.13-.7-11.97-1.89-4.1-4.84-7.62-8.55-10.55-.99-.78-1.92-1.58-.6-2.63,2.11-1.67,3.2-3.85,4.22-6.1,.46-1.01,1.02-1.7,1.96-.26,.34,.52,1.03,.87,1.34,1.41,4.27,7.47,8.6,14.92,8.44,23.92Z"/>
  <path class="cls-8" d="M210.48,169.48c-7.53,2.02-14.88,4.67-22.8,5.34-2.88,.24-5.78,.44-8.54-.69-.74-.3-1.59-.7-1.64-1.46-.07-.92,1.08-.94,1.73-1.23,1.15-.51,2.39-.85,3.6-1.26,7.09-2.43,14.25-4.61,21.71-5.88,4.83-.82,9.47-.41,13.99,2.11-2.6,1.67-5.57,1.85-8.05,3.07Z"/>
  <path class="cls-8" d="M247.32,167.41c-4.03,.81-7.63,2.65-11.46,3.94-7.55,2.54-15.14,3.47-22.9,.99-.84-.27-2.75,.08-2.21-1.79,5-1.54,10.02-3.04,15-4.64,4.54-1.45,9.31-1.95,13.96-2.89,0,0,.23,.02,.23,.02,3.49,1.12,7.37,1.02,10.7,2.87-.84,1.04-2.49,.54-3.32,1.49Z"/>
  <path class="cls-6" d="M193.8,134.62c2.68,4.95,3.05,9.97,4.17,14.84,1,4.38,.02,8.29-2,12.16-1.24,2.39-3.13,4.08-5.98,4.89-1.88,.53-2.76,.3-2.84-1.74-.14-3.4,.71-6.58,1.59-9.84,1.61-6,2.84-12.08,4.26-18.12,.14-.6,.43-1.17,.81-2.17Z"/>
  <path class="cls-8" d="M161.72,166.78c2.91-.49,5.82-.98,8.74-1.47,1.7,.41,3.43,.25,5.15,.17,3.08,.69,6.39,.52,9.37,2.08-.87,1.15-2.21,1.23-3.37,1.59-7.94,2.74-15.88,5.49-24.49,5.92-5.34,.27-8.36-.43-11.19-2.66,4.96-2.74,10.61-3.67,15.79-5.64Z"/>
  <path class="cls-6" d="M250.92,132.66c6.83,6.94,12.55,14.1,10.41,24.01-.36,1.67-.12,3.45-.21,5.18-.1,2.06-2.24,3.07-4.14,1.89-1.14-.71-2.02-1.62-2.56-2.89-1.67-3.96-2.25-8.11-2.62-12.26-.48-5.29-.61-10.61-.89-15.92Zm5.36,29.16c2.49,.06,3.45-.81,3.6-2.32,.15-1.53,.35-3.22-2.04-3.76-.71,1.99,.55,4.13-1.56,6.08Z"/>
  <path class="cls-1" d="M289.51,156.49c2.05-2.43,4.98-3.84,7.76-5.42,.59-.33,1.29-.61,1.96-.14,.69,.48,.51,1.24,.3,1.76-1.39,3.37-1.38,7.12-3.4,10.31-4.99,5.17-10.5,9.26-18.85,7.45-.14-1.81,1.69-2.32,2.8-3.15,1.08-.81,2.11-1.57,2.78-2.68,2.22-2.71,4.43-5.42,6.65-8.13Z"/>
  <path class="cls-6" d="M224.11,138.49c5.74,6.15,8.71,12.99,6.16,21.19-.11,.35-.19,.73-.4,1.02-.89,1.23-1.12,3.17-3.37,3.01-2.2-.15-2.33-2.01-2.88-3.4-.86-2.17-.9-4.44-.87-6.73,.06-4.97,.02-9.95,.02-14.92,.45-.06,.9-.12,1.35-.18Z"/>
  <path class="cls-8" d="M243.18,57.16c1.83-.44,3.73-.72,5.48-1.36,2.3-.84,2.45,.07,2.37,1.8-.22,4.47-2.25,8.56-3.01,12.91-.06,.36-.11,.72-.17,1.08-1.91,1.09-3.44-1.27-5.31-.48,0,0,.06,.04,.06,.04-2.01-.75-2.03-2.27-1.91-3.91,.08-1.06,0-2.13-.01-3.2-.05-.99,.13-2.05-.2-2.95-.89-2.41,.23-3.51,2.7-3.93Z"/>
  <path class="cls-8" d="M188.11,68.4c1.53-1.08,3.81-.71,5.75-1.4,.93-.33,1.68,.22,2.21,1,2.09,3.13,5.1,5.5,8.13,7.82,1.06,.81,1.19,1.44,.39,2.5-.9,1.19-1.67,2.48-2.25,3.82-.83,1.91-1.64,1.66-2.87,.3-4.02-4.43-8.6-8.47-11.35-14.04Z"/>
  <path class="cls-6" d="M198.74,89.56c-.47,3.39-.23,6.13-2.68,8.35-3.77,3.42-6.23,7.84-10.46,11.48,.74-8.6,6.08-14.24,13.14-19.83Z"/>
  <path class="cls-6" d="M227.04,104.78c1.21,4.59,4.03,8.95,1.59,13.76-.49,.96-.66,2.39-2.02,2.43-1.21,.04-1.82-1.19-2.57-2.04-2.23-2.53-3.25-4.82-.41-7.73,1.69-1.73,2.49-4.14,3.4-6.42Z"/>
  <path class="cls-1" d="M281.68,155.28c2,.04,4,.09,6,.13,.29,.82-.11,1.45-.76,1.92-2.01,1.46-2.91,3.58-4.11,5.53-.56,.06-1.13,.12-1.69,.18-2.97-.89-6.02-.69-9.07-.55,0,0,0,0,0,0-.21-.17-.42-.34-.63-.51,.06-.15,.09-.3,.09-.46,2.87-2.77,6.04-5.15,10.16-6.25Z"/>
  <path class="cls-6" d="M260.15,111.48c3.74,5.55,4.26,11.16,3.09,17-.09,.43-.14,.95-.74,1.07-.74,.14-1.02-.36-1.31-.87-1.3-2.25-2.62-4.5-3.96-6.73-.4-.67-.58-1.24-.11-2.02,1.51-2.53,2.41-5.27,3.03-8.45Z"/>
  <path class="cls-8" d="M277.33,94.51c.42,2.43,2.31,3.96,4.42,5.52-2.24,.7-3.91-.43-5.72-.59-3.38-1.18-6.07-3.3-8.68-5.47-.39-.33-2.72-1.19-.12-1.93,.73,.35,1.5,.36,2.28,.26,1.19,.17,2.37,.37,3.56,.49,1.63,.17,3.49-.16,4.26,1.73Z"/>
  <path class="cls-13" d="M243.18,57.16c-2.47,.42-3.59,1.52-2.7,3.93,.33,.9,.15,1.96,.2,2.95-.38,.18-.77,.36-1.15,.54-.09-4.53-2.43-8.48-4.04-12.61-.3-.76-.63-1.53-.8-2.32-.79-3.63,1.42-5.61,5.43-4.92,.58,.1,1.16,.21,1.74,.32,0,.26-.02,.51-.02,.77-1.95,.53-4.01,.81-5.59,2.27h2.04c0,.22,.01,.44,.02,.66-.81,.2-2.18,.14-1.75,1.29,.77,2.08,1.7,4.17,2.95,6.04,.65,.96,1.95-.52,3.03-.21,.22,.43,.44,.86,.66,1.29Z"/>
  <path class="cls-6" d="M242.54,81.54c3.38,.17,3.72,.72,2.05,3.17-.82,1.21-1.86,2.31-2.74,3.49-.74,1-1.24,1.21-2.58,.43-2.33-1.37-4.74-2.13-.8-4.52,1.42-.86,1.48-3.57,4.07-2.57Z"/>
  <path class="cls-5" d="M212.74,162.9c-1.75-.63-3.65-.49-5.53-.46-.78,.01-1.31-.14-1.27-1.06,.06-1.22,2.79-5.63,3.82-5.84,1.48-.3,1.19,.85,1.42,1.54,.52,1.53,.98,3.04,2.26,4.27,.51,.49,1.16,1.56-.7,1.55Z"/>
  <path class="cls-11" d="M277.28,170.46c8.34,1.8,13.86-2.28,18.85-7.45,.06,.52,.17,1,.79,1.22-5.97,7.08-14.12,9.9-21.86,7.01,0-.14,.02-.28,.05-.42,.73-.12,1.45-.23,2.18-.35Z"/>
  <path class="cls-4" d="M189.81,60.77c-.12-.22-.25-.45-.37-.67,6.67-2.59,13.84-3.71,20.67-5.84,.19-.06,.36-.15,.53-.23,1.9-.6,3.98-.64,5.76-1.58,1.51-.34,3.01-.69,4.53-1.01,.53-.11,1.3-.37,1.27,.48-.03,.7-.88,.51-1.39,.66-10.33,2.73-20.67,5.45-31,8.18Z"/>
  <path class="cls-5" d="M173.1,164.16c-.74-2.64,.81-4.52,2.54-6.35,.4-.16,.8-.31,1.21-.47,.36,.13,.72,.27,1.08,.4,.38,2.18,.74,4.37,1.87,6.37-.34,.17-.67,.33-1.01,.5-1.05-.33-2.11-.47-3.21-.26-.8-.06-1.59-.11-2.39-.17l-.08-.03Z"/>
  <path class="cls-7" d="M189.81,60.77c10.33-2.73,20.67-5.45,31-8.18,0,.21,0,.42,0,.63-3.94,1.73-8.27,2.38-12.38,3.61-5.27,1.58-10.66,2.83-16,4.21-.9,.23-1.88,.87-2.61-.27Z"/>
  <path class="cls-6" d="M233.47,130.22c-2.43-1.66-3.57-4.21-5.3-6.35-.47-.58-.77-1.14-.04-1.91,.93-.98,1.57-2.18,2.49-3.53,1.17,4.06,3,7.73,2.82,11.8l.03-.02Z"/>
  <path class="cls-5" d="M196.39,164.43c.87-2.04,1.63-3.83,2.39-5.63,.3-.71,.79-.68,1.37-.29,.78,.53,1.67,.97,2.33,1.61,2.16,2.08,1.91,2.74-1.13,3.34-1.52,.3-3.03,.59-4.97,.96Z"/>
  <path class="cls-6" d="M206.01,124.69c-.96-2.55-1.78-5.14-2.93-7.62-.61-1.32,.39-1.79,.94-2.58,.63-.92,1.19-1.88,1.97-3.13,1.73,4.61-.17,8.97,.03,13.33Z"/>
  <path class="cls-6" d="M254.87,88.26c1.97,.84,3.91,1.73,5.91,2.5,1.18,.45,.76,1.14,.45,1.77-.68,1.38-1.46,2.73-2.55,4.73-1.41-3.31-2.09-6.26-4.59-8.41,.26-.19,.52-.39,.77-.58Z"/>
  <path class="cls-6" d="M238.48,81.33c-1.68,1.04-1.85,3.77-3.94,3.36-1.78-.34-2.36-2.7-3.48-4.16-.25-.33-.47-.97-.29-1.23,.37-.54,1.01-.3,1.6-.09,1.92,.7,3.87,1.35,6.11,2.12Z"/>
  <path class="cls-5" d="M263.84,156.62c1.77,1.45,2.83,3.29,4.11,4.98,.32,.42,.59,.68-.07,1-1.29,.63-2.75,.73-4.05,.44-1.29-.28-.66-1.55-.66-2.36,0-1.31-.36-2.71,.67-4.05Z"/>
  <path class="cls-11" d="M226.25,61.66c-3.38,.16-6.51,1.35-9.82,1.86-1.76,.27-3.48,.7-5.29,.54,0-.35,0-.7,0-1.05,4.58-1.05,9.3-1.54,13.79-2.94,.2,.69,1.31,.77,1.31,1.59Z"/>
  <path class="cls-11" d="M281.68,155.28c-4.12,1.1-7.29,3.48-10.16,6.25-.15-.43-.51-.58-.97-.59,2.36-3.72,5.82-6,10.52-6.65,.2,.33,.41,.66,.61,.99Z"/>
  <path class="cls-5" d="M239.93,163.05s-.23-.02-.23-.02c-1.42-2.36,.29-3.91,1.78-5.95,.8,2.07,2.1,3.46,3.35,5.05-1.76,.58-3.59-.32-4.9,.93Z"/>
  <path class="cls-11" d="M282.81,162.86c1.2-1.95,2.1-4.07,4.11-5.53,.65-.47,1.05-1.1,.76-1.92,.7,.24,.87,1.21,1.83,1.08-2.22,2.71-4.43,5.42-6.65,8.13-.02-.59-.03-1.18-.05-1.77Z"/>
  <path class="cls-5" d="M233.05,157.89c1.01,.31,1.32,.92,1.55,1.49,.32,.8,1.64,1.46,.86,2.39-.86,1.02-2.4,.79-3.63,.92-1.11,.12-.89-1.07-.48-1.34,1.31-.87,1.09-2.26,1.7-3.46Z"/>
  <path class="cls-4" d="M173.48,65.89c-.32-.27-.65-.54-.97-.8,.71-.43,1.41-.86,2.12-1.29,2.17-.53,4.34-1.04,6.35-1.98,.93-.1,1.87-.21,2.8-.31,.14,.19,.28,.39,.41,.58-3.57,1.27-7.15,2.53-10.72,3.8Z"/>
  <path class="cls-13" d="M256.31,80.97c1.35-.43,2.7-.45,4.03,.07,.87,1.09-.12,1.17-.89,1.26-2.24,.25-4.48,.45-6.69-.21,1.12-.53,3.04,1.03,3.55-1.12Z"/>
  <path class="cls-11" d="M272.05,162.49c3.05-.14,6.1-.34,9.07,.55-3.02-.22-6.11,.53-9.07-.55Z"/>
  <path class="cls-13" d="M173.18,164.19c.8,.06,1.59,.11,2.39,.17,.01,.37,.03,.75,.04,1.12-1.72,.08-3.45,.24-5.15-.17,.96-.03,1.99,.11,2.88-.13,1.24-.34-.27-.62-.16-.99Z"/>
  <path class="cls-13" d="M269.51,92.29c-.79,.1-1.56,.09-2.28-.26,0-.38,0-.77-.01-1.15,.86-.07,1.7-.04,2.48,.34-.06,.36-.13,.71-.19,1.07Z"/>
  <path class="cls-13" d="M223.92,46.76c.61,.87,.18,1.7-.1,2.54,.03-.85,.07-1.69,.1-2.54Z"/>
  <path class="cls-13" d="M177.92,157.74c-.36-.13-.72-.27-1.08-.4,.6-.38,.94-.21,1.08,.4Z"/>
  <path class="cls-9" d="M233.44,130.24c.15,.15,.31,.3,.45,.46,0,0-.16,.14-.25,.22-.06-.23-.12-.46-.17-.69,0,0-.03,.02-.03,.02Z"/>
  <path class="cls-13" d="M223.87,51.88c.08,.39,.16,.78,.25,1.17-.08-.39-.16-.78-.25-1.17Z"/>
  <path class="cls-13" d="M178.78,164.62c.34-.17,.67-.33,1.01-.5-.11,.54-.49,.64-1.01,.5Z"/>
  <path class="cls-9" d="M197.03,99.35c.16-.07,.39-.24,.47-.2,.32,.18,.2,.42,0,.63-.16-.14-.32-.29-.47-.44Z"/>
  <path class="cls-13" d="M273.83,99.93c-.22-.1-.44-.2-.66-.3,.22,.1,.44,.2,.66,.3Z"/>
  <path class="cls-12" d="M246.62,128.13c-.06-.12-.12-.25-.18-.37,.13,.06,.26,.12,.39,.18,0,0-.21,.19-.21,.19Z"/>
  <path class="cls-11" d="M271.43,161.99c.21,.17,.42,.34,.63,.51-.21-.17-.42-.34-.63-.51Z"/>
  <path class="cls-8" d="M81.86,173.49c14.21-3.48,27.29-10.42,43.1-6.11-2.74,2.25-5.61,2.59-8.05,3.68-5.39,2.4-10.92,4.49-16.91,5.45-6.39,1.02-13.1,.07-18.13-3.02Z"/>
  <path class="cls-8" d="M180.46,182.25c-1.65,.46-3.3,.92-4.96,1.38-.23,.05-.45,.1-.68,.15-.58,.13-1.16,.26-1.74,.39-.44,.05-.89,.1-1.33,.15-2.34,.08-4.68,.17-7.01,.25-6.14-.23-11.7-2.44-17.4-4.15-1.11-2.12-4.11-2.05-5.46-3.87-.49-.65-2.24-.93-1.31-1.95,.72-.78,2.11-1.79,3.42-1.02,7.45,4.39,15.29,3.07,23.14,1.4,1.55-.33,2.82-.03,3.83,.9,2.7,2.5,5.78,4.41,9.43,5.57,.49,.16,.48,.5,.08,.8Z"/>
  <path class="cls-8" d="M199.09,183.26c-2.42-.08-4.83-.16-7.25-.24-6.91-.75-13.17-2.93-18.51-7.05-.64-.5-2.2-1.07-1.15-2.03,.71-.64,2.04-1.56,3.38-.39,4.22,3.69,9.4,3.02,14.46,2.43,3.57-.42,7.09-1.21,10.51-2.27,1.42-.44,2.53-.32,3.61,.98,2.25,2.73,5.55,4.24,8.79,5.71-4.24,2.04-9.16,2.01-13.85,2.85Z"/>
  <path class="cls-8" d="M155.02,167.43c-9.4,2.5-17.4,7.82-27.12,8.92-4.43,.5-8.8,.39-12.52-2.53,10.8-5.67,30.33-12.35,39.64-6.38Z"/>
  <path class="cls-8" d="M246.25,179.96c-1-.47-1.87-1.23-3.13-1.06-2.19-1.38-4.42-2.72-6.57-4.16-1.39-.93-1.55-1.76,.46-2.3,1.58-.43,2.9-.46,4.54,.19,6.24,2.49,12.69,4.28,19.66,2.98,1.32,.16,2.55-.11,3.81-.45,1.88-.51,3.67-1.5,5.76-1,2.14,1.71,4.98,1.52,8.14,2.46-10.9,4.24-21.49,6.02-32.67,3.34Z"/>
  <path class="cls-8" d="M242.89,179.9c.2,1.2-1.16,.7-1.6,1.2-.82,.1-1.64,.19-2.46,.29-.3,.05-.61,.1-.91,.15-6.1,.25-12.18,.63-18.24-.63-4.77-.99-9.06-2.71-12.72-5.68-.9-.73-2.68-1.31-1.74-2.57,.75-1.01,2.44-1.09,3.84-.36,3.64,1.92,7.63,2.68,11.79,2.82,3.12,.11,6.23,0,9.25-.79,2.08-.55,3.69-.4,5.3,1.26,1.97,2.04,4.61,3.41,7.49,4.31Z"/>
  <path class="cls-8" d="M93.71,168.44c-11.58,3.59-22.08,7.87-33.91,5.54-1.57-.31-3.96-.68-4.02-1.86-.06-1.34,2.38-1.42,3.81-1.83,6.4-1.83,12.89-3.34,19.62-3.78,4.7-.31,9.25,.09,14.5,1.92Z"/>
  <path class="cls-8" d="M116.21,182.64c-7.5,1.42-15.03,1.93-22.63,.65-1.6-.38-3.2-.76-4.8-1.14-3.88-2.16-8.1-3.85-11.45-7.06,1.11-.5,2.13-1.31,3.55-.43,7.1,4.4,14.86,4.34,22.74,2.54,2.14-.49,3.89-.41,5.59,.66,2.65,1.65,5.48,2.96,9,3.82-.92,.44-1.46,.7-2,.96Z"/>
  <path class="cls-8" d="M147.23,181.13c.11,1.33-1.12,1.01-1.86,1.16-5.57,1.11-11.18,1.31-16.83,.57-6.99-.89-13.44-3.03-19.52-6.86,2.1-1,3.54-2.04,5.74-.69,6.32,3.9,13.17,3.06,19.86,1.03,2.56-.78,4.26-.31,6.12,1.12,1.95,1.51,3.88,3.11,6.5,3.66Z"/>
  <path class="cls-8" d="M104.13,165.72c-2.77,.71-4.93,1.29-7.12,1.81-.76,.18-1.56,.36-2.32-.06-3.06-1.7-6.53-2.03-10.08-2.4,3.2-2.77,9.69-2.58,19.52,.65Z"/>
  <path class="cls-8" d="M134.55,165.02c-1.36,.37-2.5,.5-3.44,.96-2.77,1.36-5.24,1.55-7.92-.4-1.72-1.25-4.19-.9-6.38-1.19,2.88-2.87,10.91-2.62,17.74,.64Z"/>
  <path class="cls-8" d="M74.41,165.2c-5.95,2.62-11.21,1.66-15.98-1.71,4.35-1.91,11.62-1.22,15.98,1.71Z"/>
  <path class="cls-8" d="M85.12,183.4c-3.81,.01-7.62,.02-11.42,.04-2.37-.51-4.94-.22-7.14-1.45,2.85-1.35,5.87-.88,8.67-.19,2.75,.68,5.05,.12,7.41-.91,1.69,.21,3.07,1.59,4.95,1.07,0,.26-.02,.53-.03,.79-.11,.11-.16,.23-.13,.38-.77,.09-1.54,.18-2.31,.28Z"/>
  <path class="cls-10" d="M270.77,174.15c-2.09-.5-3.89,.48-5.76,1-1.26,.34-2.49,.61-3.81,.45,0-.35,0-.7,0-1.05,2.85-.72,5.7-1.44,8.56-2.16,1.29,.13,1.09,.98,1.02,1.76Z"/>
  <path class="cls-10" d="M87.43,183.13c-.03-.15,.02-.27,.13-.38,.51-.03,.97-.14,1.22-.6,1.6,.38,3.2,.76,4.8,1.14-2.07,.74-4.13,.98-6.15-.16Z"/>
  <path class="cls-11" d="M237.92,181.53c.3-.05,.61-.1,.91-.15-.3,.05-.61,.1-.91,.15Z"/>
  <path class="cls-2" d="M281.38,92.87c9.85,.47,19.13,1.98,26.68,7.98,3.28,2.61,5.9,5.65,4.92,10.12-.36,1.63-1.27,1.89-2.42,1-6.65-5.17-15.02-7.08-22.82-10.03-3.41-1.29-5.55-3.77-8.05-5.93-.75-.64-1.67-1.73-1.13-2.64,.57-.97,2.05-.14,2.83-.49Z"/>
  <path class="cls-2" d="M316.74,129.16c-.68,2.28-1.19,5.15-3.7,5.79-1.06,.27-2.69-2.84-3.75-4.63-1.42-2.39-3.54-4.34-5.17-6.57-2.45-3.36-3.54-7.27-4.25-11.24-.11-.63-.15-1.27-.26-1.89-.16-.91-1.75-1.79-.65-2.62,1.08-.8,2.22,.33,3.17,.87,3.25,1.85,6.63,3.56,9.6,5.73,3.26,2.38,4.2,6.02,5.02,9.59,0,1.65-.01,3.31-.02,4.96Z"/>
  <path class="cls-2" d="M300.34,158.11c1.28-6.14,.55-12.15,1.39-18.06,.53-3.7,2.2-7.09,5.65-9.47,10.2,11.84,4.1,22.14-7.04,27.53Z"/>
  <path class="cls-2" d="M321.54,134.51c4.57,14.92-10.28,29.04-23.13,27.85-.15-1.59,1.11-2.13,2.39-2.71,8.01-3.67,13.37-9.03,13.45-17.66,0-.92,.17-1.6,1.23-1.9,2.88-.82,4.49-2.87,6.06-5.58Z"/>
  <path class="cls-1" d="M275.05,171.24c7.74,2.89,15.9,.07,21.86-7.01,3.2-.14,6.35-.62,9.46-1.28,2.3-.49,.27,.82,.61,1.13-1.03,1.1-2.07,2.2-3.1,3.3-6.66,6.71-15.06,8.83-24.68,7.7-1.49-.17-3.08,.39-4.44-.9-.61-.58-2.61-.14-2.53-1.3,.07-1.02,1.65-1.38,2.83-1.65Z"/>
  <path class="cls-8" d="M276.27,80.92c-.29-.07-.59-.23-.86-.19-3.16,.44-5.04-.6-5.5-3.63-.16-1.02-.71-2.03-1.78-2.83,4.03-.35,7.72,.8,11.45,1.73,5.49,1.63,10.25,4.35,14,8.32,1.9,2.02,2.56,4.67,2.97,7.29,.08,.48,.4,1.16-.41,1.37-.63,.16-1.27-.24-1.45-.73-.5-1.41-1.8-2.32-2.55-3.56-3.47-5.67-8.9-8.01-15.87-7.78Z"/>
  <path class="cls-2" d="M297.67,87.98c3.37,.19,5.93,2.12,8.44,3.7,5.74,3.64,9.82,8.46,10.65,15.08,.22,1.76,1.55,3.33,1.05,5.23-.18,.68,.06,1.44-.67,2-.74,.57-.43,2.44-1.94,1.86-1.3-.5-1.74-1.84-1.14-3.3,1.6-3.88,.59-7.57-2.22-10.49-2.45-2.54-5.29-5.07-9.02-6.12-4.45-1.25-5.47-4.11-5.14-7.96Z"/>
  <path class="cls-2" d="M318.43,124.21c-.29-1.79,.04-3.73-1.57-5.21-.42-.39-.71-1.16-.17-1.47,3.2-1.84,2.34-4.85,2.68-7.61,4.96,6.38,6.88,12.17,3.12,19.01-1.15,2.1-1.74,4.44-3.27,6.39-.68,.87-1.21,1.82-2.44,2.28-.98,.37-1.8,2.01-2.91,.88-.99-1,.52-1.91,1.14-2.78,1.57-2.19,4.08-4,3.41-7.08,0-1.47,0-2.93,.01-4.4Z"/>
  <path class="cls-2" d="M291.76,152.18c-1.59-5.24,2.75-9.45,6.32-12.07,.46-.34,1.09-.71,1.61-.27,.26,.22,.16,.83,.16,1.26,0,.63-.05,1.27-.12,1.9-.22,1.96,.98,4.88-.43,5.69-2.27,1.31-4.86,2.58-7.53,3.49Z"/>
  <path class="cls-2" d="M301.14,135.9c-4.13-4.8-3.69-9.5-.42-14.44,1.85,2.16,2.55,4.96,5.02,6.63,.5,.34,.44,1.18-.02,1.49-2.31,1.57-2.99,4.13-4.58,6.32Z"/>
  <path class="cls-2" d="M298.36,116.34c-4.25-3.19-7.43-6.38-8.99-10.71-.41-1.13,.23-1.27,1.23-1,.96,.27,1.89,.62,2.86,.82,2.63,.54,4.22,1.58,3.97,4.44-.16,1.92,.53,3.89,.94,6.44Z"/>
  <path class="cls-10" d="M269.51,92.29c.06-.36,.13-.71,.19-1.07,2.38,.11,4.77,.21,7.15,.32,.28,.98,.89,1.91,.48,2.98-.78-1.89-2.63-1.56-4.26-1.73-1.19-.12-2.37-.32-3.56-.49Z"/>
  <path class="cls-7" d="M318.43,124.21c0,1.47,0,2.93-.01,4.4-.56,.18-1.12,.37-1.68,.55,0-1.65,.01-3.31,.02-4.96,.56,0,1.12,.01,1.68,.02Z"/>
  <path class="cls-11" d="M281.07,154.29c.66-.81,1.57-.47,2.42-.43-.69,.66-1.59,.4-2.42,.43Z"/>
  <path class="cls-11" d="M290.06,152.43c-.27-.39-.3-.79,0-1.18,0,.39,0,.79,0,1.18Z"/>
  <path class="cls-13" d="M258.74,51.67c-.36,.12-.71,.24-1.07,.37,.36-.12,.71-.24,1.07-.37Z"/>
  <polygon class="cls-13" points="265.8 49.81 265.63 49.86 265.71 49.72 265.8 49.81"/>
  <path class="cls-11" d="M308.81,38.47c-.29,.11-.58,.21-.88,.32,.29-.11,.58-.21,.88-.32Z"/>
  <path class="cls-9" d="M185.15,61.21c-.01,.25-.02,.5-.04,.75-.3,.04-.6,.09-.9,.13-.14-.19-.28-.39-.41-.58,.45-.1,.9-.2,1.35-.3Z"/>
  <path class="cls-6" d="M266.82,80.52c-1.15,.01-2.08,.16-2.77-.86-2.15-3.21-5.12-5.45-9.39-5.98-.49-.06-.94-.33-1.43-.39-2.83-.33-3.83-1.26-2.83-4.14,1.56-4.47,1.42-4.77,5.85-2.33,5.41,2.99,10.01,6.88,12.51,12.32,.95,2.08-1.28,1.07-1.95,1.38Z"/>
  <path class="cls-7" d="M242.54,71.11c1.87-.79,3.4,1.57,5.31,.48,.03,.58,.06,1.15,.09,1.73-1.87-.59-4.18-.3-5.4-2.21Z"/>
  <path class="cls-13" d="M267.82,82.02c-1.33,.03-2.69,.5-3.95-.28,1.34-.14,2.7-.55,3.95,.28Z"/>
  <path class="cls-13" d="M269.63,82.02c-.2,0-.4,0-.6,0,.2-.28,.4-.27,.6,0Z"/>
  <path class="cls-4" d="M238.28,48.1h-2.04c1.58-1.45,3.64-1.74,5.59-2.27,1.6-.64,3.61-.31,4.92-1.67,5.67-.64,10.96-2.61,16.4-4,14.99-3.82,29.93-7.81,44.88-11.75,.48-.13,.92-.34,1.38-.51,2.28-.04,4.26-1.52,6.63-1.08-4.68,2.32-9.94,3.03-14.96,4.38-18.85,5.09-37.74,10.03-56.62,15.04-2.09,.55-4.34,.66-6.2,1.86Z"/>
  <path class="cls-7" d="M246.75,44.16c-1.31,1.36-3.31,1.03-4.92,1.67,0-.26,.02-.52,.02-.77,1.63-.36,3.27-.73,4.9-1.09,0,0,0,.2,0,.2Z"/>
  <path class="cls-11" d="M171.75,184.31c.44-.05,.89-.1,1.33-.15-.44,.05-.89,.1-1.33,.15Z"/>
  <path class="cls-11" d="M174.82,183.78c.23-.05,.45-.1,.68-.15-.23,.05-.45,.1-.68,.15Z"/>
  <path class="cls-13" d="M226.22,42.71c.1,.8-.72,.82-1.18,1.14-.05-.76,.39-1.11,1.18-1.14Z"/>
  <path class="cls-7" d="M184.21,62.09c.3-.04,.6-.09,.9-.13,.23,1.38-.98,1.32-1.9,1.58-4.6,1.29-9.04,2.88-12.87,5.65-.64,.46-1.48,.73-1.34,1.59,.17,.98,1.17,.8,1.93,.91,1.43,.21,2.86,.41,4.25,.93-2.1,.67-4.24,.57-6.16-.15-2.11-.78-1.77-3.08,.59-4.53,1.23-.76,2.57-1.37,3.86-2.05,3.58-1.27,7.15-2.53,10.72-3.8Z"/>
  <path class="cls-6" d="M256.29,161.82c2.11-1.95,.85-4.09,1.56-6.08,2.39,.54,2.19,2.23,2.04,3.76-.15,1.51-1.11,2.39-3.6,2.32Z"/>
</svg>