<svg width="50" height="50" viewBox="0 0 50 50" fill="none" xmlns="http://www.w3.org/2000/svg">
<path d="M22.821 17.9487C27.4918 19.499 31.7376 19.6048 32.3043 18.185C32.871 16.7652 29.5439 14.3574 24.8731 12.8071C20.2024 11.2568 15.9565 11.151 15.3898 12.5708C14.8232 13.9906 18.1502 16.3984 22.821 17.9487Z" stroke="#484848" stroke-width="0.5"/>
<path d="M30.8338 27.628C33.319 23.7025 34.1706 19.9078 32.7357 19.1523C31.3008 18.3968 28.1229 20.9667 25.6376 24.8922C23.1524 28.8177 22.3008 32.6124 23.7357 33.3679C25.1706 34.1234 28.3485 31.5535 30.8338 27.628Z" stroke="#484848" stroke-width="0.5"/>
<path d="M17.7616 21.347C17.3283 16.8315 15.6391 13.2776 13.9886 13.4093C12.338 13.541 11.3512 17.3083 11.7844 21.8239C12.2176 26.3394 13.9068 29.8932 15.5574 29.7616C17.2079 29.6299 18.1948 25.8625 17.7616 21.347Z" stroke="#484848" stroke-width="0.5"/>
<path d="M30.1376 32.7046H38.1376" stroke="#484848" stroke-width="0.5"/>
<path d="M34.1376 29.0568V40" stroke="#484848" stroke-width="0.5"/>
<path d="M19.6735 31.3694C17.7604 30.3621 15.7617 30.2527 15.2094 31.125C14.6571 31.9974 15.7604 33.5211 17.6735 34.5284C19.5867 35.5357 21.5853 35.6451 22.1376 34.7728C22.6899 33.9004 21.5867 32.3767 19.6735 31.3694Z" fill="#484848"/>
</svg>
