<?xml version="1.0" encoding="UTF-8"?>
<svg id="Layer_1" data-name="Layer 1" xmlns="http://www.w3.org/2000/svg" viewBox="0 0 414 200">
  <defs>
    <style>
      .cls-1 {
        fill: #f7b7d3;
      }

      .cls-2 {
        fill: #00bcf2;
      }

      .cls-3 {
        fill: #e4ded6;
      }

      .cls-4 {
        fill: #fff9b8;
      }

      .cls-5 {
        fill: #fbb040;
      }

      .cls-6 {
        fill: #9ed2f1;
      }

      .cls-7 {
        fill: #413d37;
      }

      .cls-8 {
        fill: #545150;
      }

      .cls-9 {
        fill: #4c4743;
      }

      .cls-10 {
        fill: #716a5d;
      }

      .cls-11 {
        fill: #fff200;
        stroke: #fff200;
        stroke-miterlimit: 10;
      }
    </style>
  </defs>
  <path class="cls-7" d="M170.38,160.16c1.9-3.03,3.19-6.54,6.99-7.96,1.2-.45,.04-1.65,.3-2.47-.11-1.1,.37-2.29-.49-3.27,0,0-.02-.14-.02-.14,0-5.1,0-10.21,0-15.31,.04-.2,.07-.41,.11-.61,.43-.39,.37-.88,.28-1.38-.04-1.67,.43-3.23,1.04-4.76,.13-.14,.18-.31,.14-.5,0,0,0,0,0,0,.69,.45,.52,1.21,.67,1.85-.43,2.52-.97,5.02-1.21,7.59-.64,6.91,.07,13.7,1.49,20.46-.41,.04-.81,.08-1.22,.12-2.56,.57-4.33,2.01-5.26,4.53-.4,1.08-.27,1.35,.85,.97,1.57-.53,3.18-.93,4.86-.76,1.39-.07,.56-1.77,1.56-2.12,.87,1.95,2.73,1.94,4.26,1.63,1.6-.32,.71-2,.77-3.06,.13-2.39,.04-4.79,.63-7.14,1.55-6.16,4.72-11.9,4.43-18.54-.07-1.73,.51-3.53,1.25-5.28,1.6-3.8,3.51-7.71,3.89-11.7,.38-3.97,1.66-7.4,3.04-10.97,1.41-3.65,4.02-5.54,7.66-6.33h4.26c-1.15-.7-1.87-1.15-2.6-1.6,11.46-.33,22.56-2.84,34.04-5.3-1.42-1.78-2.72-2.79-4.42-3.46-5.14-2.02-10.42-1.96-15.78-1.45-4.84,.46-9.55,1.96-14.46,1.89-1.96-.03-3.65-.68-3.78-2.78-.1-1.63-.79-3-1.14-4.51-.24-.49-.57-.6-1.03-.28-1.32,.44-1.5,2.28-3.04,2.45-.75-1.08,.22-1.52,.79-2.11,1.24-.52,1.01-1.9,1.6-2.79,0-.36,0-.73,0-1.09,.54,0,1.09,0,1.63,0,1.06,2.73,2.09,5.48,3.22,8.19,.26,.62,.33,1.58,1.22,1.68,2.38,.29,5.3,.38,6.77-1.1,1.55-1.57-.06-4.07-1.21-5.96-.04-.07-.19-.08-.22-.15-1.45-3.46-3.43-6.73-3.89-10.55-.28-2.27,.57-3.67,2.98-4.1,2.43-.44,4.8-1.15,7.22-1.65,1.91-.4,1.91-1.17,.82-2.57-1.25-1.6-3.04-2.29-4.68-3.26-.3-.17-.7-.28-.89-.53-.62-.85,.45-.26,.51-.55,.31,.04,.62,.08,.93,.13,.27,.43,.67,.52,1.13,.48,.19,.1,.39,.2,.58,.29,.33,.1,.67,.19,1,.29,1.36,.69,2.29,1.82,2.97,3.12,.6,1.13,1.42,1.6,2.64,1.46,.17,.3,.33,.61,.5,.91-4.21,1.11-8.43,2.21-12.64,3.34-.9,.24-2.46,.22-.84,1.72-1.92,2.23,.28,3.99,.68,5.96,.34,1.68,1.43,1.83,2.89,1.47,3.61-.9,7.24-1.71,10.86-2.56,.21-.03,.42-.07,.64-.1,.4-.12,.79-.25,1.19-.37,.75-.01,1.55,.23,2.19-.4,2.39-1.11,5.02-1.24,7.52-1.92,.26-.07,.51-.13,.77-.2,4.26-.98,8.42-2.37,12.77-2.93,0,.36,.02,.71,.03,1.07,0,0,.01,0,.01,0-1.23-.16-2.37,.02-3.35,.85-1.08,.27-2.15,.54-3.23,.81-.61-.07-1.23-.2-1.75,.29-.75,.46-1.57,.68-2.45,.7-.68,.06-1.42-.14-1.99,.44-.36,.07-.73,.13-1.09,.2-.19-.04-.36,0-.51,.13-.44,.44-1,.5-1.58,.47-.84-.04-1.74-.34-2.38,.52-.69,.46-1.46,.56-2.27,.51-.34,.13-.68,.27-1.03,.4-1.32,.39-2.86,.24-3.79,1.57-.02,.09-.07,.18-.05,.26,.04,.17,.11,.33,.17,.49,.41,.8,1.36,.64,1.97,1.1,.31,.57,.67,.69,1.11,.13,.61,.14,1.21,.27,1.82,.41,.18,.04,.36,.09,.54,.13,1.1,.32,2.2,.64,3.3,.96,.11,.1,.23,.14,.38,.11,1.95,.55,3.85,1.24,5.58,2.33,0,.49,0,.99,0,1.48-3.1-1.37-6.2-2.72-9.49-3.61-4.86-1.31-4.76-1.31-5.32,3.56-.22,1.97,.44,2.34,2.22,2.29,3.68-.11,7.28,.28,10.83,1.52,2.31,.8,3.83,2.47,5.6,3.86,.91,.72,1.87,1.24,2.69,.67,1.19-.84-.13-1.75-.44-2.58-.28-.76-.79-1.44-1.19-2.16,.24-.25,.48-.5,.73-.75,.45,.57,1.15,1.07,1.32,1.72,.92,3.56,3.52,4.08,6.72,4.71,6.93,1.34,13.82,3.2,15.15,11.94,.18,1.21,1.63,1.21,2.5,1.09,1.07-.14,.44-1.17,.41-1.82-.29-5.06-2.87-9.1-5.8-12.99,.27-.27,.54-.54,.8-.81,1.27,1.53,2.64,2.98,3.76,4.61,.81,1.17,1.97,1.63,3.12,2.14,6.72,2.96,12.38,7.27,16.85,13.12,.11,.14,.22,.31,.25,.49,1.52,6.74,7.13,11.33,9.41,17.55,2.07,5.65,2.28,11.7-.84,17.3-2.29,4.1-2.71,8.7-3.9,13.11-1.86,6.9-4.97,13.12-12.35,15.85-.41-.02-.76,.09-.97,.48-.68,.31-1.28,.87-2.12,.72-.62-.13-1.23-.25-1.74,.29-.19,.07-.39,.14-.58,.21-.16,.06-.33,.13-.49,.19-.71,.51-1.41,1.03-2.12,1.54-.6-.02-1.2-.05-1.8-.07-.06-.08-.13-.15-.19-.22,.42-.5,1.04-1.04-.18-1.29-.89-.18-1.8-.5-2.69-.47-2.35,.07-4.41-1.88-7.06-.34-6.11,3.54-12.54,3.6-19,.73-1.6-.71-3.23-1.05-4.89,.5,4.71,3.06,9.79,4.45,15.02,5.43,.3,0,.6,.02,.9,.02,1.37,0,2.75,0,4.12-.01,.21-.02,.43-.04,.64-.06,1.65-.31,3.3-.62,4.95-.92,.03,.37,.07,.74,.1,1.12-.84,.61-1.8,.55-2.76,.51-.6-.1-1.18-.14-1.66,.34-.38,.04-.76,.08-1.14,.11-1.63-.7-3.27-.63-4.92-.05-.58-.07-1.16-.15-1.74-.22-.22-.04-.44-.07-.66-.11-.69-.1-1.38-.21-2.06-.31-.45-.54-.87-1.19-1.63-.39-5.41,1.01-10.78,2.3-16.35,2.19-4.34-.08-8.64-.45-12.74-1.95-2.41-.88-4.73-.36-7.06-.03-8.71,1.24-17.39,1.73-25.94-.86-2.01-.61-3.5,1.04-5.35,.73-.2,.1-.4,.19-.61,.29-.5,.1-1.01,.21-1.51,.31-.23,.08-.47,.16-.7,.24-.64,.43-1.35,.35-2.06,.31-.22,.03-.43,.06-.65,.09-.71,.15-1.42,.3-2.13,.45-.98-.03-1.99-.34-2.9,.3-.39,.03-.78,.05-1.17,.08-1.28-.66-2.55-.71-3.81,.05-1.61,.21-3.18-.07-4.75-.39-.24-.04-.48-.08-.73-.11-.42-.12-.84-.23-1.26-.35-.2-.04-.41-.08-.61-.13-.34-.11-.68-.22-1.02-.34-.2-.08-.4-.16-.6-.24-1.24,0-2.48,0-3.71,0-.81-.02-1.66-.26-2.29,.5,0,0-.02,0-.02,0-.31,.03-.63,.07-.94,.1-1.28,.5-2.61,.71-3.99,.56,0-.39-.01-.77-.02-1.16,2.14-.33,4.32-.46,6.33-1.22-.19-1.35-2.1-.68-1.89-2.13,2.21-1.09,3.32,1.15,4.99,1.71,9.42,3.17,18.65,2.06,28.46-.89-2.68-1.08-4.28-2.65-5.83-4.33-1.09-1.18-2.37-1.52-4.1-.92-2.39,.84-4.85,1.62-7.45,1.67-.59-.05-1.19-.14-1.68,.33-.52,.09-1.04,.22-1.56,.25-.5,.03-1.22,.04-1.03-.72,.15-.59,.85-.49,1.38-.46,.18-.03,.35-.06,.53-.09,10.05-1.9,19.68-5.25,29.48-8.49-4.27-4.36-14.55-5.22-20.23-2.37-2.77,1.39-5.58,3.03-8.83,3.31,.09-1.91,1.91-1.47,2.87-2.2,.64-.49,2.45,.04,1.79-1.78,.39-.2,.78-.4,1.18-.6,0,0-.02-.01-.02-.01,.13,.55,.46,.71,.98,.48Zm99,7.04c-1.12,.07-2.16,.74-2.13,1.7,.03,1.11,1.28,.95,2.18,.9,14.22,4,25.16-8.98,23.89-21.13-2.44,1.92-4.79,3.77-7.14,5.62-1.55-1.17,.2-3.27-1.25-4.47-.78-.35-.82-1.07-1.02-1.8-.6-2.29-1.42-4.51-2.98-6.45-2.83,4.62-4.9,9.33-5.49,14.64-.19,1.72-1.03,3.19-2.04,4.69-1.1,1.65-2.87,3.14-2.71,5.47-.57,.06-1.03,.29-1.31,.82Zm5.17-34.34c-1.26,5.86-.55,10.44,2,12.6,1.01-1.7,1.15-3.85,2.84-5.2,.7-.56,.22-1.36-.11-2.02,.44-.03,.87-.06,1.31-.09,2.38,2.88,4.18,6.14,5.96,9.77,2.35-3.94,4.74-7.5,3.46-11.99-.61-2.14-1.74-4.13-2.58-6.2-.69-1.71-1.45-3.4-2.79-4.69-2.6-2.51-4.81-5.45-7.97-7.36-.27-.47-.56-1.01-1.21-.78-.55,.2-.35,.73-.29,1.16-.02,.27-.03,.54-.05,.8-.8-.42-.61-1.23-.76-1.91-2-2.37-4.95-3.29-7.51-4.8-1.02-.6-.51,.72-.76,1.12-.3,.36-.6,.71-.9,1.07-.55-4.19-.74-5.17-6.54-5.6-5.65-.42-10.44-2.56-13.46-7.66-1.14-1.93-2.24-1.06-3.21,0-1.47,1.63-2.92,3.23-4.88,4.33-2.24,1.26-3.29,3.05-1.96,5.64,.16,.3,.09,.72,.12,1.08-.39,0-.78,.01-1.17,.02-1.77-3.88-2.93-8.09-5.62-11.49-1.05-1.33-2.34-2.88-3.81-3.31-1.07-.31-.85,2.05-1.68,2.96-.06,.07-.09,.16-.14,.24-2.03,2.67-1.93,6.08,.24,8.7-.26,.56-.77,.7-1.32,.76-2.69-2.86-5.41-5.7-8.06-8.59-.81-.89-1.84-2.05-2.83-1.76-1.19,.36-1.51,1.91-1.71,3.22-.51,3.32,.5,6.32,2.53,8.76,5.18,6.22,10.88,12.03,15.8,18.44,3.74,4.88,7.21,10.13,7.72,16.65,.13,1.72-.04,3.54,.78,5.13,.52,1.02,.77,2.68,1.91,2.79,1.37,.13,1.32-1.69,1.97-2.6,.43,.01,.85,.02,1.28,.04-.43,1.59-.89,3.2-2.12,4.37-1.29,1.23,.16,1.91,.48,2.8,.34,.94,.84,.31,1.22,.02,5.34-4.02,11.12-4.26,17.16-1.91,2.28,.89,4.5,1.95,4.65-2.02,.02-.5,.55-.88,.86-1.3,2.57-3.53,6.32-4.8,10.32-5.67,1.1-.24,2.54-.3,1.11-1.9-3.39-3.76-2.82-8.32-2.53-12.75,.09-1.47,.21-3.31,2.06-4.07,0-.23,0-.46-.01-.69-.92-1.1-1.84-2.21-2.76-3.31,.24-.27,.48-.54,.73-.8,.34,0,.67,0,1.01,0,.39,.69,1.07,.56,1.69,.6,.52,1.37,.8,2.77,.62,4.24,.07,1.21-1.33,1.9-1.1,3.17Zm-75.41,3.52c0,3.13,.24,6.27-.06,9.37-.35,3.61-.42,6.76,4.01,7.85,.55,.14,1.02,.77,1.44,1.25,.85,.95,1.28,.85,2.01-.28,2.99-4.62,3.04-9.72,2.2-14.79-.56-3.37-1.56-6.77-2.09-10.1-1.27-7.97-2.13-16.06-1.69-24.18,.18-3.3,1.11-6.35,4.46-7.94,.49-.23,1.14-.34,.95-1.08-.19-.76-.88-.51-1.38-.48-4.01,.29-7.25,1.86-8.95,5.74-1.61,3.67-2.57,7.5-2.12,11.54,.85,7.68,1.59,15.37,1.22,23.11Zm25.3,25.91c-2.24-3.92-3.62-7.47-3.54-11.26,.23-11.09-3.5-21.42-5.78-32.03-.3-1.39-1.01-2.65-2.07-3.51-2.8-2.26-3.95-5.42-5.06-8.64-.28-.82-.06-1.86-1.14-2.59-.75,1.7-.69,3.42-.53,5.08,.77,7.65,1.47,15.31,2.48,22.93,1.07,8.11,3.01,16.06,7.07,23.25,1.71,3.03,3.93,5.92,8.58,6.78Zm-2.48-23.84c-.63,6.2,.4,12.51,1.97,18.75,.33,1.32,.9,2.59,1.47,3.84,.48,1.05,1.22,1.91,2.55,1.68,1.2-.21,2.37-.56,2.83-1.89,1.8-5.15,2.98-10.68,2.35-15.88-.83-6.8-5.29-12.33-9.58-17.63-.29-.36-.64-.72-1.15-.55-.58,.19-.43,.75-.43,1.17-.01,3.41,0,6.82,0,10.51Zm24.7-49.16c-4.77-.14-9.28,1.36-13.89,2.15-1.3,.22-.9,.97-.22,1.47,3.27,2.39,6.77,4.3,10.75,5.35,6.57,1.74,13.32,1.7,20,2.3,1.15,.1,2.79,1.38,3.47-.12,.58-1.29-.39-2.83-1.18-4.09-.63-1-1.43-1.75-2.45-2.47-4.98-3.52-10.64-4.31-16.47-4.59Zm-52.29,73.62c3.81-12.4,4.22-24.48,3.43-36.67-.78-.06-1.24,.23-1.58,.9-1.88,3.73-4.04,7.35-5.64,11.19-2.25,5.39-3.01,11.13-3.14,16.96-.05,2.03,.32,3.45,2.51,4.24,1.57,.56,3.14,1.41,4.43,3.37Zm21.19,5.51c.26,.98,.94,1.13,1.5,1.34,11.79,4.63,22.65,1.77,33.11-4.19,1.79-1.02,1.14-1.78-.25-2.38-3.46-1.48-7.05-1.83-10.8-1.5-4.42,.39-8.52,2.02-12.78,3.04-3.68,.88-7.19,2.43-10.78,3.69Zm7.54-4.05c-7.65-6.4-27.07-1.39-39.01,3.45,.6,.99,1.4,1.6,2.47,2.04,2.96,1.23,6.03,1.61,9.18,1.33,9.43-.85,18.36-3.68,27.36-6.82Zm34.56-62.8c6.59,9.72,17.96,12.06,25.58,19.84,1.06-4.87,.23-9.63-2.28-12.79-2.07-2.61-5.05-3.78-8.16-4.75-4.84-1.51-9.8-1.94-15.14-2.3Zm29.35,50.17c3.68-3.28,8.51-4.85,10.06-9.71,1.36-4.27,3.09-8.47,1.92-13.22-1.11-4.49-1.73-9.12-6.08-12.34-.69,4.47-1.02,8.68-3.82,12.11-.51,.63,.28,1.03,.62,1.55,2.96,4.57,2.41,12.5-.9,16.83-.93,1.22-2.47,2.34-1.79,4.77Zm1.05-24.63c3.12-4.49,4.14-9.21,2.78-14.22-1.2-4.41-3.41-8.26-7.12-11.25-3.68-2.97-7.38-5.79-11.99-7.58,.41,2.63,.84,4.97,1.12,7.32,.13,1.08,.73,1.16,1.58,1.47,4.08,1.45,7.33,3.69,9.43,7.85,1.6,3.18,1.93,6.29,1.58,9.54-.3,2.75,.58,4.81,2.63,6.87Zm-44.05,43.15c.34,.4,.43,.58,.57,.65,9.47,4.98,24.78-1.58,27.75-11.83,.41-1.42-.38-1.43-1.21-1.38-1.73,.11-3.45,.19-5.17,.73-8.08,2.53-14.15,8.65-21.94,11.83Zm-30.27,6.21c-2.5-1.29-4.32-2.46-5.98-3.87-1.3-1.11-2.74-1.51-4.53-1.14-3.6,.75-7.26,1.23-10.95,.97-3.42-.24-6.77-.65-9.25-3.49-.69-.79-4.57-.32-5.04,.66-.69,1.44,.75,2.08,1.58,2.76,3.88,3.22,8.55,4.39,13.43,5.06,6.79,.93,13.47,.24,20.76-.95Zm-5.73-5.74c7.65,8.15,26.84,9.87,36.08,6.12-1.64-.83-3.29-1.55-4.84-2.46-1.86-1.1-3.67-1.71-5.94-1.37-5.83,.88-11.67,.38-16.94-2.25-2.95-1.48-5.41-1.64-8.36-.05Zm15.61-93.87q.12-5.13-4.95-4.01c-.72,.16-1.43,.36-2.15,.48-2.49,.39-1.61,2.42-1.61,3.74,0,1.93,.12,3.99,1.78,5.45,.06,.05,.18,.02,.27,.03,4.64,.66,6.55-.97,6.66-5.69Zm10.34,29.2c.39-.22,.73-.35,1.01-.57,1.62-1.33,3.31-2.58,4.81-4.03,2.11-2.04,2.04-2.1-.79-3.23-1.1-.44-2.21-.89-3.23-1.48-2.03-1.18-5.38-.4-6.48,1.58-.28,.5-.06,.85,.17,1.25,1.03,1.73,2.02,3.49,3.1,5.19,.32,.5,.9,.84,1.4,1.3Zm8.25,54.01c3.71,.75,7.33,.58,10.09,3.15,.54,.5,1.23,.21,1.77-.14,1.79-1.17,3.55-2.38,5.44-3.66-5.81-2.51-11.43-3.55-17.31,.65Zm21.73-2.8c3.11-.71,5.71-1.66,8.51-1.23,.87,.13,1.68-.43,1.82-1.33,.26-1.68,1.8-3.67,.74-4.89-.93-1.07-2.8,.53-4.27,.91-3.31,.85-5.77,2.6-6.79,6.54Zm-66.54,4.79c1.41-.37,3-.77,4.58-1.2,1.08-.29,2.73,.4,3.14-1.02,.44-1.5-.76-2.71-1.66-3.87-.94-1.22-2.46-1.49-3.69-2.25-.82-.51-1.51-.25-1.59,1-.13,2.07-.43,4.11-1.65,5.91-.41,.6-.6,1.47,.87,1.44Zm62.66-54.53c-2.99-5.39-7.16-7.81-13.41-6.56,3.47,4.38,7.83,6.42,13.41,6.56Zm-43.24,52.41c-1.41-2.23-2.71-4.53-3.77-6.97-.29-.67-.97-1.45-1.61-1.6-.74-.17-1.09,.81-1.43,1.46-.84,1.59-.73,3.39-1.13,5.08-.38,1.65,.31,2.12,1.87,2.05,1.91-.09,3.84-.02,6.07-.02Zm6.14-63.95c-.07-1.24,.22-2.35-1.05-2.27-1.26,.08-3.28-.65-3.55,1.05-.36,2.29-1.35,4.3-1.97,6.46-.19,.66-.11,1.31,.49,1.73,.69,.47,1.38,.4,2-.18,2.1-2,3.05-4.64,4.07-6.79Zm-27.25,21.05c-1.83,4.24-2.86,8.44-2.94,12.89,1.83-4,7.07-7.05,2.94-12.89Zm33.25-24.83c-1.34,.77-3.67-.29-4.54,1.4-.76,1.48,1.15,2.25,2.1,3.12,1.56,1.43,2.67,.02,3.74-.88,.54-.46,1.85-.62,1.28-1.72-.47-.91-1.02-2.02-2.58-1.92Zm5.37,60.8c-.27,2.42-.32,4.37-1.14,6.12-.32,.68-1.45,1.42-.62,2,1.22,.85,2.55-.46,3.9-.48,.88-.01,.89-.74,.72-1.42-.52-2.08-.98-4.19-2.85-6.21Zm-14.34-20.07c1.94-6.03,.88-10.17-3.34-12.36,2.03,3.99,2.44,7.95,3.34,12.36Zm-4.82-32.05c.39-1.66,.79-2.8,.9-3.97,.09-.87,.8-2.19-.74-2.49-1.05-.21-2.42-.24-2.95,.92-.45,.98-.94,2.22,.49,3.13,.74,.48,1.26,1.29,2.3,2.41Z"/>
  <path class="cls-4" d="M226.89,69.53c-.4,.12-.79,.25-1.19,.37-.21,.03-.42,.07-.64,.1-3.62,.85-7.25,1.66-10.86,2.56-1.46,.36-2.55,.21-2.89-1.47-.4-1.96-2.6-3.73-.68-5.96,0,0-.07,0-.07,0,.91-.05,1.86,.04,2.73-.17,13.9-3.36,27.8-6.77,41.7-10.15,14.17-3.44,28.35-6.87,42.52-10.3,1,.33,1.32-.77,2.06-.98,4.23,0,8.11-1.69,12.14-2.64,14.29-3.36,28.55-6.87,42.83-10.32,.2,2.76,.28,5.51-.05,8.26-5.7,1.39-11.4,2.79-17.11,4.18-6.69,1.57-13.39,3.13-20.08,4.73-17.96,4.29-35.91,8.6-53.87,12.9-.96,.23-2.2,.25-1.16,1.78-.76,.98-1.43-.27-2.16-.09-3.5-.37-6.76,.57-9.99,1.76-4.35,.56-8.52,1.95-12.77,2.93-.26,.07-.51,.13-.77,.2-2.5,.68-5.13,.81-7.52,1.92-.73,.13-1.46,.26-2.19,.4Z"/>
  <path class="cls-9" d="M208.09,93.4c.73,.45,1.45,.89,2.6,1.6h-4.26c-.95-1.18-2.22-.93-3.48-.8-5.85,.57-9.67,4.34-12.59,8.81-4.59,7.04-8.43,14.52-10.95,22.61-.15-.64,.03-1.4-.67-1.85,1.1-6.55,4.7-11.97,7.96-17.54,1.16-1.98,1.94-4.45,3.62-5.81,3.09-2.51,2.29-3.88-.23-6.2-4.03-3.71-6.69-8.59-9.6-13.21-.45-.72-.68-1.52-1.77-1.36-3.71,.56-7.42,1.09-11.33,1.67,.29,1.6,1.55,2.25,2.13,3.33,.55,1.04,1.13,2.3-.46,2.67-6.18,1.42-12.32,2.15-18.03-1.77-1.9-1.31-1.47-2.5-.45-4.04,2.45-3.67,6.23-5.35,10.15-6.64,4-1.32,8.11-2.33,12.22-3.29,1.93-.45,2.54-.94,1.72-3.07-2.55-6.67-5.41-13.22-7.94-19.9-1.75-4.62-2.97-9.43-4.95-13.93-2.08-4.73-3.32-9.69-4.8-14.59-.28-.92-.99-1.95,.55-2.48,1.76,3.79,2.37,7.95,4.08,11.8,2.1,4.73,3.39,9.8,5.13,14.69,2.5,7.06,5.58,13.89,8.08,20.94,1.99,5.61,2.1,5.49,7.72,4.23,1.98-.44,2.29-1.18,1.5-2.99-2.77-6.3-5.58-12.6-8.05-19.02-2.22-5.79-3.84-11.79-6.16-17.55-1.77-4.38-2.2-9.24-4.78-13.33,1-1.56,1.82-1.3,2.35,.31,.59,1.83,1,3.73,1.62,5.55,2.21,6.57,4.39,13.16,6.7,19.7,2.91,8.24,6.52,16.24,9.76,24.37,.55,1.38,1.31,1.82,2.72,1.47,3.11-.79,6.23-1.53,9.36-2.26,1.15-.27,1.34-1.05,1.37-2.05,.18-8.01,9.94-11.32,15.44-10.05-.06,.29-1.13-.3-.51,.55,.19,.26,.59,.36,.89,.53-2.49-.14-4.91,.07-7.3,.86-4.74,1.55-7,4.57-7.05,9.46-.03,3.24,.88,6.23,2.14,9.15-.54,0-1.09,0-1.63,0-1.11-1.7-.77-3.98-2.21-5.54-.04-.23-.08-.46-.12-.69,.41-1.84-1-.93-1.47-.81-7.24,1.79-14.47,3.66-21.69,5.5-1.26,.35-2.53,.71-3.79,1.06-1.83-.31-3.4,.69-5.11,1-.34,.09-.68,.19-1.02,.28-3.76,.93-7.32,2.33-10.56,4.49-1.62,1.11-3.52,2.39-3.08,4.5,.42,1.98,2.67,2.12,4.44,2.63,3.2,.92,6.38,.74,9.58,.25,.84-.13,2.08,.09,2.32-.95,.22-.96-.85-1.57-1.49-2.17-.7-.65-2.03-.89-1.62-2.2,.35-1.11,1.59-1.22,2.52-1.37,4.81-.8,9.65-1.41,14.45-2.24,6.25-1.08,12.63-1.21,18.83-2.63-.6,.89-.37,2.26-1.6,2.79-.75-1.65-2.1-.57-3.06-.51-5.07,.32-5.1,.48-2.46,4.71,.38,.61,.71,1.25,1.07,1.87-.21,.28-.43,.57-.64,.85-1.35-1.81-2.75-3.58-4.02-5.45-.52-.77-.97-1.22-1.98-1.04-1.35,.24-2.73,.39-4.1,.48-1.92,.14-2.24,.81-1.39,2.62,2.02,4.28,5.04,7.85,7.99,11.43,2.77,3.35,3.07,3.2,7.03,1.51,.59-.25,1.14-.64,1.75-.81,2.18-.58,1.17-1.48,.29-2.39,.49-.02,.98-.04,1.46-.06l6.87,2.33Z"/>
  <path class="cls-9" d="M169.43,159.68c-.39,.2-.78,.4-1.18,.6-3.7-1.14-7.39-1.74-11.41,.09,1.54,1.05,3.01,1.16,4.33,1.64,.68,.25,1.81,.2,1.36,1.52-.38,.72-.84,1.28-1.76,1.04,1-.49,1.11-.77-.1-1.22-2.69-1.01-5.46-1.6-8.31-1.85-8.24-.74-16.14,.87-23.7,3.9-2.34,.94-5.3,.77-6.97,3.22-.41,.15-.82,.3-1.23,.46-.09-.02-.17-.07-.24-.14,.46-.56,.46-1.24,.47-1.92,3.13-1.89,6.86-2.34,10.18-4.16-3.9-3.5-8.36-3.09-12.81-2.25-7.34,1.37-14.12,4.53-21.2,6.76-2.93,.92-5.84,1.89-9.17,2.97,3.56,2.2,6.99,2.29,10.48,2.02,5.43-.42,10.63-1.92,15.85-3.37,.02,.47,.04,.94,.06,1.41-4.14,1.23-8.32,2.37-12.6,2.98-4.66,.67-9.52,1.27-13.69-1.39-2.1-1.34-3.48-.96-5.47-.03,5.26,3.62,11.01,4.68,16.85,5.42,7.53,.96,15.07,.4,22.6,.01,.36,.36,.72,.72,1.08,1.08-8.71,1.1-17.42,1.14-26.13,.06-1.49-.18-2.94-.07-4.35,.35-7.93,2.35-16.02,3.21-24.26,2.45,.02-.44,.03-.88,.05-1.32,7.64,.45,15.19,.05,22.58-2.53-3.04-.87-5.96-2.02-8.41-3.84-1.62-1.21-3.01-1.33-4.78-.91-5.47,1.29-11.01,1.93-16.64,1.5-.19-.42-.37-.84-.56-1.27,13.42,.59,25.84-3.57,38.7-7.84-1.33-1.4-2.61-2.05-4.02-2.42-3.34-.87-6.73-.91-10.13-.38-4.84,.77-9.32,2.65-13.84,4.45-3.55,1.41-6.84,3.55-10.71,4.13,.21-.55,.43-1.1,.64-1.65,1.87-.38,3.59-1.16,5.33-1.91,1.79-.77,1.19-1.45,.03-2.15-1.65-.99-3.39-1.76-5.38-1.62,0,0,.02,0,.02,0-.2-.17-.4-.33-.59-.5-.12-1.64,1.21-1.95,2.29-2.31,4.59-1.55,9.23-1.55,13.82-.05,2.33,.76,4.57,.74,7.01,.48,4.49-.48,8.75-1.52,13.02-2.98,4.81-1.64,9.64-.78,14.19,1.37,1.16,.55,2.15,.66,3.4,.4,5.47-1.11,10.95-2.24,16.48-3.07,4.31-.65,8.39,.57,12.25,2.48,.67,.33,1.27,.71,2.05,.64,4.5-.37,9.02,.35,13.48-1.65,3.59-1.61,7.58-.92,11.07,1.26Zm-75.4,.89c5.2,3.94,10.57,4.19,15.88,.36-5.18-2.71-10.57-2.63-15.88-.36Zm-30.28,1.54c6.39,3.94,8.55,3.97,13.3,.19-4.46-1.27-8.72-2.13-13.3-.19Zm63.94-3.36c4.04,4.79,8.67,3.03,13.55,1.56-4.52-2.09-8.94-2.8-13.55-1.56Z"/>
  <path class="cls-6" d="M165.05,16.37c2.57,4.09,3.01,8.96,4.78,13.33,2.33,5.76,3.95,11.77,6.16,17.55,2.46,6.43,5.28,12.72,8.05,19.02,.79,1.81,.48,2.55-1.5,2.99-5.63,1.26-5.74,1.38-7.72-4.23-2.5-7.06-5.58-13.88-8.08-20.94-1.73-4.89-3.03-9.97-5.13-14.69-1.71-3.85-2.32-8.01-4.08-11.8,2.47-.62,5.1-.33,7.53-1.23Z"/>
  <path class="cls-9" d="M224.12,60.08c-.17-.3-.33-.61-.5-.91,7.34-2.37,14.91-3.83,22.37-5.7,20.81-5.21,41.66-10.31,62.5-15.43,14.7-3.61,29.4-7.19,44.11-10.76,.73-.18,1.85-1.14,2.01,.64-1.21,.41-2.39,.92-3.63,1.22-7.49,1.83-14.99,3.58-22.48,5.42-16.4,4.03-32.8,8.11-49.2,12.15-17.63,4.35-35.27,8.67-52.91,13.01-.76,.12-1.52,.25-2.28,.37Z"/>
  <path class="cls-6" d="M60.34,170.92c3.87-.58,7.16-2.72,10.71-4.13,4.52-1.8,9-3.69,13.84-4.45,3.4-.54,6.79-.49,10.13,.38,1.41,.37,2.69,1.02,4.02,2.42-12.85,4.27-25.28,8.43-38.7,7.84,0-.68,0-1.37,0-2.05Z"/>
  <path class="cls-6" d="M60.91,174.24c5.63,.44,11.17-.2,16.64-1.5,1.77-.42,3.16-.29,4.78,.91,2.45,1.82,5.37,2.97,8.41,3.84-7.39,2.58-14.94,2.98-22.58,2.53-2.6-.68-5.2-1.36-7.8-2.05,.77-1.16,.54-2.47,.55-3.74Z"/>
  <path class="cls-4" d="M226.39,59.71c17.64-4.33,35.28-8.66,52.91-13.01,16.4-4.04,32.79-8.12,49.2-12.15,7.48-1.84,14.99-3.59,22.48-5.42,1.24-.3,2.42-.81,3.63-1.22-.02,.64-.05,1.28-.07,1.91-.54-.02-1.12-.16-1.63-.03-6.27,1.51-12.53,3.06-18.8,4.58-10.32,2.51-20.66,4.99-30.97,7.53-1.26,.31-2.74,.3-3.56,1.63-.74,.21-1.06,1.31-2.06,.98-1.11-1.1-2.47-.63-3.65-.37-7.07,1.6-14.08,3.43-21.14,5.07-14.93,3.47-29.79,7.28-44.67,10.95-.56-.11-1.2,.05-1.66-.45Z"/>
  <path class="cls-9" d="M262.28,62.43c-1.05-1.53,.19-1.55,1.16-1.78,17.96-4.3,35.91-8.61,53.87-12.9,6.69-1.6,13.39-3.15,20.08-4.73-.13,.47-.26,.93-.39,1.4-24.91,6-49.81,12-74.72,18.01Z"/>
  <path class="cls-10" d="M299.57,43.54c.83-1.33,2.31-1.32,3.56-1.63,10.32-2.55,20.65-5.02,30.97-7.53,6.27-1.52,12.53-3.08,18.8-4.58,.51-.12,1.09,.02,1.63,.03,0,.25,0,.5,0,.75-14.27,3.45-28.53,6.96-42.83,10.32-4.03,.95-7.91,2.64-12.14,2.64Z"/>
  <path class="cls-9" d="M266.34,86.06c-.27,.27-.54,.54-.8,.81-5.66-4.81-12.32-6.44-19.59-6.23-1.63,.05-1.37,.66-.72,1.6-.24,.25-.48,.5-.73,.75-1.63-1.18-3.26-2.36-4.89-3.54,0-.49,0-.99,0-1.48,1.73,1.21,3.61,1.5,5.73,1.34,6.47-.46,12.61,.75,18.21,4.18,1.1,.67,2.16,1.39,2.8,2.58Z"/>
  <path class="cls-8" d="M337,44.42c.13-.47,.26-.93,.39-1.4,5.7-1.39,11.4-2.79,17.11-4.18,.56,1.54-.59,1.62-1.57,1.85-5.31,1.25-10.61,2.49-15.92,3.74Z"/>
  <path class="cls-9" d="M145.02,178.62c0,.39,.01,.77,.02,1.16-6.04,.89-11.97,.42-17.77-1.48,.39-.3,.77-.59,1.16-.89,5.46,1.32,11.02,1.44,16.59,1.21Z"/>
  <path class="cls-9" d="M177.18,131c0,5.11,0,10.21,0,15.31-.89-.92-1.12-2.05-1.08-3.27,.16-4.03-.96-8.18,1.09-12.05Z"/>
  <path class="cls-7" d="M128.42,177.41c-.38,.3-.77,.59-1.16,.89-1.47,.06-2.94,.13-4.41,.19-.36-.36-.72-.72-1.08-1.08,.48-.35,1.68-.38,.29-1.33-1.45-1-3.6-1.18-4.12-3.49,3.52,1.59,6.78,3.7,10.47,4.82Z"/>
  <path class="cls-9" d="M250.14,64.09c3.22-1.19,6.49-2.13,9.99-1.76-3.08,1.78-6.55,2.19-9.96,2.83,0-.36-.02-.71-.03-1.07Z"/>
  <path class="cls-8" d="M264.52,178.07c-.03-.37-.07-.74-.1-1.12,1.69-.55,3.22-1.59,5.04-1.77,.3,.28,.61,.55,.91,.83-1.87,.92-3.75,1.79-5.85,2.05Z"/>
  <path class="cls-8" d="M254.03,178.98c1.65-.58,3.29-.64,4.92,.05-1.64,.31-3.29,.38-4.92-.05Z"/>
  <path class="cls-9" d="M164.95,180.17c1.26-.75,2.53-.7,3.81-.05-1.27,.36-2.54,.29-3.81,.05Z"/>
  <path class="cls-7" d="M270.37,176.01c-.3-.28-.61-.55-.91-.83,1.05-.6,2.1-1.21,3.15-1.81,.07,.07,.13,.15,.19,.22,0,.33-.02,.67-.02,1-.36,.22-.72,.44-1.08,.66-.18,.11-.36,.22-.55,.32-.26,.15-.52,.29-.78,.44Z"/>
  <path class="cls-9" d="M246.84,66.01c.98-.83,2.12-1.01,3.35-.85-.99,.8-2.24,.51-3.35,.85Z"/>
  <path class="cls-8" d="M272.78,174.59c0-.33,.02-.67,.02-1,.6,.02,1.2,.05,1.8,.07-.36,.8-1.25,.56-1.82,.93Z"/>
  <path class="cls-9" d="M177.19,146.45c.86,.99,.38,2.17,.49,3.27-.39-1.06-.57-2.15-.49-3.27Z"/>
  <path class="cls-9" d="M169.94,180.04c.91-.64,1.92-.33,2.9-.3-.94,.4-1.91,.45-2.9,.3Z"/>
  <path class="cls-8" d="M247.93,177.96c.77-.8,1.19-.15,1.63,.39-.54-.13-1.09-.26-1.63-.39Z"/>
  <path class="cls-9" d="M149.99,179.11c.63-.77,1.49-.52,2.29-.5-.71,.42-1.45,.7-2.29,.5Z"/>
  <path class="cls-9" d="M231.87,69.56c.64-.87,1.54-.57,2.38-.52-.79,.17-1.59,.35-2.38,.52Z"/>
  <path class="cls-9" d="M227.98,74.02c-.44,.56-.8,.44-1.11-.13,.39-.13,.78-.2,1.11,.13Z"/>
  <path class="cls-9" d="M237.43,68.25c.57-.57,1.31-.37,1.99-.44-.61,.36-1.25,.63-1.99,.44Z"/>
  <path class="cls-8" d="M277.8,171.72c.5-.54,1.12-.43,1.74-.29-.58,.1-1.16,.2-1.74,.29Z"/>
  <path class="cls-9" d="M241.86,67.11c.52-.49,1.14-.36,1.75-.29-.58,.1-1.16,.19-1.75,.29Z"/>
  <path class="cls-8" d="M260.1,178.92c.48-.49,1.06-.44,1.66-.34-.51,.32-1.04,.56-1.66,.34Z"/>
  <path class="cls-9" d="M216.41,54.01c-.46,.04-.87-.05-1.13-.48,.49-.1,.84,.13,1.13,.48Z"/>
  <path class="cls-9" d="M177.56,129.01c.1,.5,.15,.99-.28,1.38,.09-.46,.18-.92,.28-1.38Z"/>
  <path class="cls-9" d="M149.03,179.21c.31-.03,.63-.07,.94-.1-.31,.03-.63,.07-.94,.1Z"/>
  <path class="cls-9" d="M218,54.6c-.33-.1-.67-.19-1-.29,.34,.1,.67,.19,1,.29Z"/>
  <path class="cls-9" d="M170.38,160.16c-.52,.23-.84,.07-.98-.48,.33,.16,.65,.32,.98,.48Z"/>
  <path class="cls-8" d="M281.66,170.7c.21-.39,.56-.5,.97-.48-.25,.32-.53,.57-.97,.48Z"/>
  <path class="cls-9" d="M228.57,70.48c.34-.13,.68-.27,1.03-.4-.34,.13-.68,.27-1.03,.4Z"/>
  <path class="cls-9" d="M230.34,74.56c-.18-.04-.36-.09-.54-.13,.18,.04,.36,.09,.54,.13Z"/>
  <path class="cls-9" d="M159.47,179.66c.24,.04,.48,.08,.73,.11-.24-.04-.48-.08-.73-.11Z"/>
  <path class="cls-9" d="M174.97,179.29c.22-.03,.43-.06,.65-.09-.22,.03-.43,.06-.65,.09Z"/>
  <path class="cls-9" d="M157.61,179.19c.2,.04,.41,.08,.61,.13-.2-.04-.41-.08-.61-.13Z"/>
  <path class="cls-8" d="M251.63,178.66c.22,.04,.44,.07,.66,.11-.22-.04-.44-.07-.66-.11Z"/>
  <path class="cls-9" d="M177.68,178.89c.23-.08,.47-.16,.7-.24-.23,.08-.47,.16-.7,.24Z"/>
  <path class="cls-9" d="M155.99,178.61c.2,.08,.4,.16,.6,.24-.2-.08-.4-.16-.6-.24Z"/>
  <path class="cls-9" d="M179.89,178.34c.2-.1,.4-.19,.61-.29-.2,.1-.4,.19-.61,.29Z"/>
  <path class="cls-8" d="M271.15,175.58c.18-.11,.36-.22,.55-.32-.18,.11-.36,.22-.55,.32Z"/>
  <path class="cls-8" d="M276.73,172.12c.16-.06,.33-.13,.49-.19-.16,.06-.33,.13-.49,.19Z"/>
  <path class="cls-9" d="M178.74,123.75c.04,.19,0,.36-.14,.5,.05-.17,.09-.33,.14-.5Z"/>
  <path class="cls-9" d="M235.83,68.57c.15-.13,.32-.17,.51-.13-.17,.04-.34,.09-.51,.13Z"/>
  <path class="cls-9" d="M234.02,75.64c-.15,.02-.27-.01-.38-.11,0,0,.22-.06,.22-.06l.16,.17Z"/>
  <path class="cls-9" d="M224.9,72.8c-.06-.16-.13-.32-.17-.49-.02-.08,.03-.17,.05-.26,.04,.25,.08,.5,.12,.75Z"/>
  <path class="cls-5" d="M179.41,125.61c2.52-8.08,6.36-15.57,10.95-22.61,2.92-4.47,6.73-8.24,12.59-8.81,1.27-.12,2.53-.37,3.48,.8-3.64,.79-6.25,2.68-7.66,6.33-1.38,3.58-2.66,7-3.04,10.97-.38,4-2.29,7.91-3.89,11.7-.74,1.75-1.32,3.55-1.25,5.28,.29,6.64-2.89,12.38-4.43,18.54-.59,2.35-.5,4.75-.63,7.14-.06,1.05,.83,2.73-.77,3.06-1.52,.31-3.39,.32-4.26-1.63,.03-1-.22-1.92-.8-2.74-1.42-6.75-2.13-13.54-1.49-20.46,.24-2.57,.77-5.06,1.21-7.59Z"/>
  <path class="cls-5" d="M239.9,152.05c-.65,.91-.6,2.73-1.97,2.6-1.14-.11-1.39-1.76-1.91-2.79-.81-1.6-.64-3.41-.78-5.13-.51-6.52-3.98-11.78-7.72-16.65-4.92-6.41-10.62-12.22-15.8-18.44-2.03-2.44-3.04-5.44-2.53-8.76,.2-1.31,.53-2.86,1.71-3.22,.98-.3,2.01,.87,2.83,1.76,2.66,2.89,5.37,5.73,8.06,8.59,1.34,1.48,2.58,3.08,4.06,4.42,2.6,2.36,4.52,5.29,6.92,7.79,2.9,3.01,5.13,6.44,6.8,10.17,2.88,6.44,2.67,13.07,.33,19.67Z"/>
  <path class="cls-6" d="M162.64,171.9c-.53-.03-1.23-.13-1.38,.46-.19,.76,.53,.75,1.03,.72,.52-.03,1.04-.16,1.56-.25,.61,.17,1.17,.02,1.68-.33,2.59-.05,5.06-.83,7.45-1.67,1.73-.61,3.01-.27,4.1,.92,1.55,1.68,3.15,3.25,5.83,4.33-9.81,2.95-19.04,4.06-28.46,.89-1.66-.56-2.78-2.8-4.99-1.71,0,0-.02-.02-.02-.02,.06-1.9-1.33-2.36-2.76-2.76h0c.66-.78-.38-1.1-.45-1.68,.14-.11,.19-.24,.15-.41,1.06-.19,2.15-.26,3.09-.87,.26-.09,.53-.17,.79-.26,1.37-.15,1.7,1.62,2.99,1.63,0,0,.03,.06,.03,.06,.18,.58,.65,.81,1.18,.98,.15,.06,.31,.12,.46,.18,1.78,.51,3.53,1.62,5.83,.34-2.46-.77-4.51-1.42-6.57-2.07-.19-.13-.38-.25-.57-.38-1.63-2.33,1.04-1.66,1.58-1.89,2.85-1.19,6-1.7,8.37-3.91l.05,.04c3.24-.28,6.06-1.92,8.83-3.31,5.68-2.85,15.96-1.99,20.23,2.37-9.81,3.24-19.43,6.59-29.48,8.49-.18,.03-.35,.06-.53,.09Z"/>
  <path class="cls-5" d="M199.15,136.37c.37-7.74-.37-15.42-1.22-23.11-.45-4.04,.51-7.87,2.12-11.54,1.7-3.87,4.94-5.44,8.95-5.74,.5-.04,1.18-.28,1.38,.48,.19,.74-.46,.85-.95,1.08-3.35,1.59-4.28,4.64-4.46,7.94-.44,8.12,.42,16.21,1.69,24.18,.53,3.33,1.53,6.73,2.09,10.1,.84,5.07,.8,10.17-2.2,14.79-.73,1.12-1.16,1.23-2.01,.28-.43-.48-.89-1.11-1.44-1.25-4.43-1.08-4.36-4.24-4.01-7.85,.3-3.1,.06-6.25,.06-9.37Z"/>
  <path class="cls-5" d="M224.45,162.28c-4.65-.87-6.87-3.76-8.58-6.78-4.06-7.19-5.99-15.13-7.07-23.25-1.01-7.62-1.71-15.28-2.48-22.93-.17-1.66-.22-3.38,.53-5.08,1.08,.73,.86,1.77,1.14,2.59,1.12,3.22,2.26,6.38,5.06,8.64,1.06,.86,1.77,2.12,2.07,3.51,2.27,10.61,6,20.94,5.78,32.03-.08,3.79,1.3,7.34,3.54,11.26Z"/>
  <path class="cls-6" d="M128.42,177.41c-3.7-1.11-6.95-3.23-10.47-4.82,.52,2.3,2.66,2.49,4.12,3.49,1.39,.95,.18,.98-.29,1.33-7.53,.39-15.07,.95-22.6-.01-5.85-.75-11.6-1.8-16.85-5.42,1.99-.93,3.37-1.31,5.47,.03,4.18,2.66,9.03,2.05,13.69,1.39,4.28-.61,8.45-1.75,12.6-2.98,1.45,.23,1.86,2.19,3.37,2.25,.44-.49,.29-.86,.03-1.09-2.06-1.91-.18-2.26,1.12-2.72,.47-.16,1.07,.06,1.62,.1,.07,.07,.15,.11,.24,.13,2.42,2.11,5.38,2.3,8.38,2.36,.54,.25,1.1,.32,1.67,.1,2.3,.49,4.59,.36,6.88-.04,.2-.01,.4-.03,.6-.04,2.22,.64,4.5-1.36,6.69,.17,.39,.91,.92,1.52,1.99,.87,0,0,0,0,0,0,.02,1.83,1.25,2.43,2.76,2.76,0,0,.02,.02,.02,.02-.22,1.45,1.7,.77,1.89,2.13-2.01,.76-4.19,.89-6.33,1.22-5.58,.23-11.13,.11-16.59-1.21Z"/>
  <path class="cls-5" d="M208.09,93.4c-2.29-.78-4.58-1.56-6.87-2.33-1.88-2-2.7-4.42-2.91-7.11-.11-1.35,.94-2.58,.33-3.96l-.14-.03c1.53-.17,1.72-2.01,3.04-2.45,.34,.09,.69,.19,1.03,.28,.34,1.51,1.04,2.87,1.14,4.51,.12,2.1,1.82,2.75,3.78,2.78,4.91,.08,9.62-1.43,14.46-1.89,5.36-.51,10.64-.57,15.78,1.45,1.7,.67,3,1.68,4.42,3.46-11.48,2.46-22.58,4.98-34.04,5.3Z"/>
  <path class="cls-6" d="M202.52,73.97c-1.26-2.92-2.17-5.91-2.14-9.15,.05-4.89,2.31-7.91,7.05-9.46,2.4-.78,4.82-1,7.3-.86,1.64,.96,3.44,1.66,4.68,3.26,1.09,1.4,1.1,2.17-.82,2.57-2.42,.5-4.79,1.21-7.22,1.65-2.4,.43-3.25,1.84-2.98,4.1,.46,3.82,2.44,7.09,3.89,10.55,.03,.07,.18,.08,.22,.15,1.16,1.88,2.76,4.39,1.21,5.96-1.47,1.49-4.39,1.4-6.77,1.1-.89-.11-.96-1.06-1.22-1.68-1.12-2.71-2.15-5.46-3.22-8.19Z"/>
  <path class="cls-5" d="M221.97,138.44c0-3.69,0-7.1,0-10.51,0-.43-.15-.98,.43-1.17,.51-.17,.86,.19,1.15,.55,4.29,5.3,8.75,10.83,9.58,17.63,.63,5.2-.55,10.73-2.35,15.88-.46,1.33-1.63,1.68-2.83,1.89-1.33,.23-2.07-.63-2.55-1.68-.56-1.25-1.13-2.52-1.47-3.84-1.57-6.24-2.59-12.55-1.97-18.75Z"/>
  <path class="cls-4" d="M198.68,68.42c1.44,1.57,1.1,3.84,2.21,5.54,0,.36,0,.73,0,1.09-6.2,1.42-12.58,1.56-18.83,2.63-4.8,.83-9.65,1.44-14.45,2.24-.93,.16-2.17,.26-2.52,1.37-.41,1.31,.93,1.54,1.62,2.2,.64,.6,1.71,1.21,1.49,2.17-.24,1.05-1.48,.83-2.32,.95-3.2,.49-6.38,.67-9.58-.25-1.78-.51-4.02-.65-4.44-2.63-.45-2.1,1.45-3.39,3.08-4.5,.37,.41,.74,.82,1.11,1.23-.81,.89-2.56,1.86-.85,3.03,1.96,1.35,4.34,1.98,7.27,1.27-.6-.49-.77-.74-.98-.79-1.7-.37-4.57,.26-4.67-1.68-.11-2.13,2.75-2.75,4.6-3.74,3.23-1.74,7.08-1.82,10.12-3.97,.04-.37,.07-.74,.11-1.11,1.26-.35,2.53-.71,3.79-1.06-.04,.13-.04,.26,.01,.38-.27,.25-.78,.54-.75,.75,.1,.64,.72,.41,1.09,.34,3.63-.66,7.33-1.06,10.72-2.69,.4-.02,.8-.05,1.21-.07,3.67-.9,7.34-1.8,11-2.7Z"/>
  <path class="cls-6" d="M246.67,89.29c5.83,.28,11.49,1.07,16.47,4.59,1.02,.72,1.82,1.47,2.45,2.47,.79,1.26,1.76,2.8,1.18,4.09-.68,1.49-2.32,.22-3.47,.12-6.68-.6-13.43-.56-20-2.3-3.98-1.05-7.47-2.96-10.75-5.35-.68-.5-1.07-1.25,.22-1.47,4.61-.79,9.12-2.29,13.89-2.15Z"/>
  <path class="cls-5" d="M194.38,162.9c-1.29-1.96-2.86-2.81-4.43-3.37-2.18-.78-2.55-2.21-2.51-4.24,.13-5.83,.89-11.57,3.14-16.96,1.61-3.85,3.76-7.46,5.64-11.19,.34-.67,.8-.97,1.58-.9,.79,12.19,.38,24.27-3.43,36.67Z"/>
  <path class="cls-2" d="M276.68,117.66c3.16,1.91,5.37,4.85,7.97,7.36,1.33,1.29,2.09,2.98,2.79,4.69,.84,2.08,1.98,4.06,2.58,6.2,1.27,4.49-1.11,8.05-3.46,11.99-1.78-3.62-3.58-6.88-5.96-9.77-2.48-2.34-3.86-5.32-4.95-8.46,.18-1.47-.1-2.87-.62-4.24,.03-2.2,.07-4.39,.1-6.59,.02-.27,.03-.54,.05-.8,.41-.49,.92-.57,1.5-.38Z"/>
  <path class="cls-6" d="M215.58,168.41c3.59-1.25,7.1-2.81,10.78-3.69,4.25-1.02,8.36-2.65,12.78-3.04,3.75-.33,7.34,.02,10.8,1.5,1.4,.6,2.04,1.37,.25,2.38-10.46,5.96-21.32,8.82-33.11,4.19-.56-.22-1.24-.37-1.5-1.34Z"/>
  <path class="cls-6" d="M223.12,164.37c-9,3.14-17.93,5.97-27.36,6.82-3.15,.28-6.22-.1-9.18-1.33-1.07-.44-1.87-1.05-2.47-2.04,11.94-4.85,31.36-9.85,39.01-3.45Z"/>
  <path class="cls-2" d="M257.68,101.57c5.34,.36,10.3,.78,15.14,2.3,3.11,.97,6.09,2.14,8.16,4.75,2.51,3.16,3.34,7.93,2.28,12.79-7.62-7.78-18.99-10.12-25.58-19.84Z"/>
  <path class="cls-2" d="M287.02,151.74c-.68-2.43,.86-3.55,1.79-4.77,3.32-4.33,3.86-12.26,.9-16.83-.34-.52-1.13-.93-.62-1.55,2.8-3.43,3.13-7.64,3.82-12.11,4.35,3.22,4.97,7.85,6.08,12.34,1.17,4.75-.56,8.95-1.92,13.22-1.55,4.86-6.38,6.43-10.06,9.71Z"/>
  <path class="cls-2" d="M288.08,127.11c-2.05-2.06-2.93-4.12-2.63-6.87,.35-3.25,.02-6.37-1.58-9.54-2.1-4.16-5.35-6.4-9.43-7.85-.85-.3-1.46-.39-1.58-1.47-.27-2.36-.71-4.7-1.12-7.32,4.61,1.8,8.31,4.61,11.99,7.58,3.71,3,5.92,6.84,7.12,11.25,1.36,5.01,.35,9.73-2.78,14.22Z"/>
  <path class="cls-6" d="M244.02,170.26c7.79-3.18,13.85-9.3,21.94-11.83,1.71-.54,3.43-.61,5.17-.73,.84-.05,1.62-.04,1.21,1.38-2.97,10.25-18.28,16.81-27.75,11.83-.14-.07-.22-.25-.57-.65Z"/>
  <path class="cls-6" d="M245.23,82.23c-.66-.93-.92-1.55,.72-1.6,7.27-.21,13.93,1.42,19.59,6.23,2.93,3.88,5.51,7.93,5.8,12.99,.04,.65,.66,1.68-.41,1.82-.88,.12-2.32,.12-2.5-1.09-1.33-8.74-8.22-10.59-15.15-11.94-3.2-.62-5.81-1.14-6.72-4.71-.17-.64-.87-1.15-1.32-1.72Z"/>
  <path class="cls-1" d="M270.69,166.37c-.16-2.33,1.61-3.83,2.71-5.47,1.01-1.5,1.85-2.98,2.04-4.69,.59-5.3,2.66-10.02,5.49-14.64,1.55,1.94,2.38,4.16,2.98,6.45,.19,.73,.23,1.44,1.02,1.8,.39,2.83-.71,5.35-1.51,7.98-1.34,4.39-3.97,7.37-8.41,8.67-1.1,0-2.19,.01-3.29,.02-.34-.04-.69-.07-1.03-.11Z"/>
  <path class="cls-6" d="M213.75,176.47c-7.29,1.19-13.97,1.88-20.76,.95-4.88-.67-9.55-1.84-13.43-5.06-.82-.68-2.26-1.33-1.58-2.76,.47-.98,4.35-1.45,5.04-.66,2.48,2.84,5.83,3.25,9.25,3.49,3.7,.25,7.35-.23,10.95-.97,1.79-.37,3.23,.03,4.53,1.14,1.66,1.41,3.48,2.58,5.98,3.87Z"/>
  <path class="cls-6" d="M208.02,170.73c2.95-1.59,5.41-1.43,8.36,.05,5.27,2.64,11.11,3.13,16.94,2.25,2.27-.34,4.08,.27,5.94,1.37,1.54,.91,3.19,1.63,4.84,2.46-9.24,3.75-28.43,2.03-36.08-6.12Z"/>
  <path class="cls-5" d="M223.11,109.25c-2.17-2.63-2.27-6.03-.24-8.7,.06-.07,.08-.17,.14-.24,.83-.91,.61-3.27,1.68-2.96,1.48,.43,2.77,1.98,3.81,3.31,2.69,3.41,3.85,7.61,5.62,11.49,.3,2.86,.94,5.7,.4,9.24-4.03-4.29-7.72-8.22-11.41-12.14Z"/>
  <path class="cls-1" d="M286.18,154.28c2.35-1.85,4.7-3.7,7.14-5.62,1.27,12.16-9.66,25.13-23.89,21.13,.01-.77,.03-1.53,.04-2.3,9.19,2.62,15.65-5.32,16.71-13.22Z"/>
  <path class="cls-6" d="M272.61,173.37c-1.05,.6-2.1,1.21-3.15,1.81-1.82,.18-3.34,1.22-5.04,1.77-1.65,.31-3.3,.62-4.95,.92-.21,.02-.43,.04-.64,.06-1.37,0-2.75,0-4.12,.01-.29-.23-.59-.27-.9-.03-5.23-.98-10.31-2.37-15.02-5.43,1.66-1.55,3.3-1.21,4.89-.5,6.46,2.88,12.89,2.81,19-.73,2.65-1.53,4.71,.42,7.06,.34,.89-.03,1.8,.29,2.69,.47,1.22,.25,.61,.79,.18,1.29Z"/>
  <path class="cls-5" d="M239.61,79.44c1.63,1.18,3.26,2.36,4.89,3.54,.41,.72,.91,1.4,1.19,2.16,.31,.83,1.63,1.74,.44,2.58-.82,.58-1.77,.05-2.69-.67-1.77-1.39-3.29-3.06-5.6-3.86-3.56-1.24-7.15-1.63-10.83-1.52-1.78,.05-2.44-.32-2.22-2.29,.56-4.87,.46-4.87,5.32-3.56,3.28,.89,6.39,2.24,9.49,3.61Z"/>
  <path class="cls-9" d="M223.11,109.25c3.69,3.93,7.38,7.85,11.41,12.14,.54-3.54-.1-6.39-.4-9.24,.39,0,.78-.01,1.17-.02,.89,3.3,1.13,6.67,1.03,10.06-.04,1.38,.33,2.5,1.14,3.55,4.02,5.23,5.84,11.23,6.09,17.73,.12,3.09-1.49,5.77-2.38,8.62-.43-.01-.85-.02-1.28-.04,2.34-6.6,2.55-13.23-.33-19.67-1.67-3.73-3.9-7.16-6.8-10.17-2.4-2.49-4.32-5.43-6.92-7.79-1.47-1.34-2.71-2.94-4.06-4.42,.55-.06,1.05-.2,1.32-.76Z"/>
  <path class="cls-6" d="M223.63,76.87c-.11,4.71-2.02,6.34-6.66,5.69-.09-.01-.21,.02-.27-.03-1.66-1.46-1.78-3.52-1.78-5.45,0-1.32-.88-3.35,1.61-3.74,.72-.11,1.44-.32,2.15-.48q5.07-1.13,4.95,4.01Z"/>
  <path class="cls-5" d="M233.98,106.06c-.5-.46-1.08-.8-1.4-1.3-1.08-1.7-2.07-3.46-3.1-5.19-.24-.4-.45-.75-.17-1.25,1.1-1.98,4.45-2.77,6.48-1.58,1.02,.59,2.13,1.04,3.23,1.48,2.83,1.13,2.9,1.2,.79,3.23-1.5,1.45-3.19,2.71-4.81,4.03-.27,.22-.62,.35-1.01,.57Z"/>
  <path class="cls-6" d="M242.22,160.07c5.88-4.2,11.5-3.16,17.31-.65-1.89,1.27-3.65,2.49-5.44,3.66-.54,.35-1.23,.64-1.77,.14-2.76-2.57-6.38-2.4-10.09-3.15Z"/>
  <path class="cls-2" d="M273.34,124.84c-.34,0-.67,0-1.01,0-2.98-3.37-5.65-6.92-6.22-11.58,.26-.4-.25-1.72,.76-1.12,2.55,1.51,5.51,2.42,7.51,4.8-1.96,2.42-.99,5.23-1.04,7.9Z"/>
  <path class="cls-1" d="M263.95,157.27c1.02-3.94,3.49-5.7,6.79-6.54,1.47-.38,3.34-1.98,4.27-.91,1.06,1.22-.48,3.21-.74,4.89-.14,.9-.94,1.47-1.82,1.33-2.8-.43-5.4,.52-8.51,1.23Z"/>
  <path class="cls-11" d="M197.41,162.06c-1.47,.03-1.28-.84-.87-1.44,1.22-1.8,1.52-3.84,1.65-5.91,.08-1.24,.77-1.51,1.59-1,1.22,.76,2.74,1.02,3.69,2.25,.9,1.16,2.1,2.37,1.66,3.87-.41,1.42-2.06,.73-3.14,1.02-1.58,.43-3.17,.83-4.58,1.2Z"/>
  <path class="cls-6" d="M260.07,107.53c-5.57-.14-9.94-2.18-13.41-6.56,6.25-1.25,10.41,1.17,13.41,6.56Z"/>
  <path class="cls-11" d="M216.83,159.93c-2.23,0-4.16-.07-6.07,.02-1.56,.08-2.25-.39-1.87-2.05,.39-1.69,.29-3.49,1.13-5.08,.34-.65,.7-1.63,1.43-1.46,.63,.14,1.32,.93,1.61,1.6,1.06,2.44,2.36,4.74,3.77,6.97Z"/>
  <path class="cls-2" d="M279.29,138.23c.33,.66,.81,1.46,.11,2.02-1.69,1.35-1.83,3.5-2.84,5.2-2.55-2.16-3.26-6.74-2-12.6,1.54-.38,1.08,1.11,1.52,1.71,.98,1.32,1.14,3.31,3.22,3.68Z"/>
  <path class="cls-5" d="M222.97,95.98c-1.02,2.16-1.98,4.79-4.07,6.79-.62,.59-1.31,.65-2,.18-.61-.42-.68-1.07-.49-1.73,.62-2.16,1.61-4.17,1.97-6.46,.27-1.7,2.29-.97,3.55-1.05,1.27-.08,.98,1.03,1.05,2.27Z"/>
  <path class="cls-8" d="M286.18,154.28c-1.06,7.9-7.53,15.84-16.71,13.22-.04-.1-.07-.2-.08-.31,.27-.53,.74-.76,1.31-.82,.34,.04,.69,.07,1.03,.11,1.11,1.59,2.2,1.61,3.29-.02,4.44-1.3,7.07-4.28,8.41-8.67,.8-2.62,1.9-5.14,1.51-7.98,1.45,1.2-.3,3.29,1.25,4.47Z"/>
  <path class="cls-6" d="M163.59,164.25s-.05-.04-.05-.04c.21-1.02-.32-.97-1.01-.69,.44-1.31-.69-1.26-1.37-1.51-1.33-.48-2.79-.59-4.33-1.64,4.03-1.83,7.72-1.23,11.41-.09,.66,1.81-1.15,1.29-1.79,1.78-.96,.73-2.78,.29-2.87,2.2Z"/>
  <path class="cls-3" d="M194.83,83.92c-.36-.62-.69-1.26-1.07-1.87-2.64-4.24-2.6-4.39,2.46-4.71,.96-.06,2.31-1.14,3.06,.51-.56,.59-1.53,1.03-.79,2.11,0,0,.14,.03,.14,.03-1.42-.19-.99,.9-1.11,1.61-1.84,.62-.18,2.79-1.59,3.6-.3-.38-.48-.95-1.16-.72h0s.14-.11,.13-.17c0-.13-.06-.26-.1-.39Z"/>
  <path class="cls-5" d="M195.72,117.03c4.12,5.84-1.11,8.89-2.94,12.89,.08-4.45,1.12-8.64,2.94-12.89Z"/>
  <path class="cls-11" d="M234.35,153c1.87,2.02,2.33,4.13,2.85,6.21,.17,.68,.16,1.41-.72,1.42-1.35,.02-2.68,1.34-3.9,.48-.83-.58,.3-1.32,.62-2,.82-1.75,.87-3.69,1.14-6.12Z"/>
  <path class="cls-11" d="M178.93,158.51c-1.69-.16-3.29,.24-4.86,.76-1.12,.38-1.25,.11-.85-.97,.93-2.51,2.7-3.96,5.26-4.53,.12,1.58,1.56,3.04,.46,4.73Z"/>
  <path class="cls-9" d="M266.11,113.26c.57,4.67,3.23,8.21,6.22,11.58-.24,.27-.48,.54-.73,.8-3.93-2.76-6.04-6.54-6.39-11.32,.3-.36,.6-.71,.9-1.07Z"/>
  <path class="cls-5" d="M220.01,132.92c-.9-4.41-1.31-8.36-3.34-12.36,4.23,2.19,5.28,6.33,3.34,12.36Z"/>
  <path class="cls-5" d="M215.19,100.87c-1.04-1.11-1.56-1.93-2.3-2.41-1.43-.92-.94-2.16-.49-3.13,.53-1.16,1.89-1.13,2.95-.92,1.54,.3,.83,1.62,.74,2.49-.12,1.17-.51,2.31-.9,3.97Z"/>
  <path class="cls-4" d="M226.39,59.71c.46,.5,1.1,.34,1.66,.45-4.79,1.23-9.57,2.47-14.36,3.7-1.1,.28-2.47-.11-3.13,1.28,0,0,.07,0,.07,0-1.62-1.5-.06-1.48,.84-1.72,4.21-1.12,8.43-2.23,12.64-3.34,.76-.12,1.52-.25,2.28-.37Z"/>
  <path class="cls-2" d="M279.29,138.23c-2.07-.36-2.24-2.36-3.22-3.68-.44-.6,.02-2.09-1.52-1.71-.23-1.26,1.17-1.96,1.1-3.17,1.09,3.15,2.47,6.13,4.95,8.46-.44,.03-.87,.06-1.31,.09Z"/>
  <path class="cls-9" d="M273.34,124.84c.06-2.67-.91-5.48,1.04-7.9,.14,.68-.04,1.49,.76,1.91-.03,2.2-.07,4.39-.1,6.59-.62-.04-1.3,.09-1.69-.6Z"/>
  <path class="cls-9" d="M178.93,158.51c1.1-1.7-.34-3.15-.46-4.73,.4-.04,.81-.08,1.22-.12,.58,.82,.83,1.74,.8,2.74-1,.36-.17,2.06-1.56,2.12Z"/>
  <path class="cls-1" d="M269.39,167.19c.02,.11,.04,.21,.08,.31-.01,.77-.03,1.53-.04,2.3-.89,.04-2.15,.21-2.18-.91-.03-.96,1.01-1.63,2.13-1.7Z"/>
  <path class="cls-9" d="M276.68,117.66c-.58-.19-1.09-.11-1.5,.38-.06-.43-.26-.96,.29-1.16,.64-.23,.93,.31,1.21,.78Z"/>
  <path class="cls-9" d="M226.89,69.53c.73-.13,1.46-.26,2.19-.4-.64,.63-1.44,.39-2.19,.4Z"/>
  <path class="cls-9" d="M274.38,129.65c-.25-.23-.38-.46-.01-.69,0,.23,0,.46,.01,.69Z"/>
  <path class="cls-9" d="M165.53,172.51c-.51,.35-1.06,.5-1.68,.33,.49-.46,1.09-.38,1.68-.33Z"/>
  <path class="cls-9" d="M202.56,77.79c-.34-.09-.69-.18-1.03-.28,.46-.32,.79-.21,1.03,.28Z"/>
  <path class="cls-8" d="M258.82,177.94c.21-.02,.43-.04,.64-.06-.21,.02-.43,.04-.64,.06Z"/>
  <path class="cls-8" d="M253.8,177.92c.31-.24,.61-.2,.9,.03-.3,0-.6-.02-.9-.03Z"/>
  <path class="cls-9" d="M162.64,171.9c.18-.03,.35-.06,.53-.09-.18,.03-.35,.06-.53,.09Z"/>
  <path class="cls-9" d="M236.6,67.22c.26-.07,.51-.13,.77-.2-.26,.07-.51,.13-.77,.2Z"/>
  <path class="cls-9" d="M225.07,70.01c.21-.03,.42-.07,.64-.1-.21,.03-.42,.07-.64,.1Z"/>
  <path class="cls-10" d="M210.57,65.14c.65-1.39,2.02-.99,3.13-1.28,4.79-1.22,9.57-2.46,14.36-3.7,14.89-3.67,29.74-7.48,44.67-10.95,7.06-1.64,14.07-3.47,21.14-5.07,1.18-.27,2.54-.74,3.65,.37-14.17,3.43-28.35,6.86-42.52,10.3-13.9,3.38-27.79,6.79-41.7,10.15-.87,.21-1.82,.12-2.73,.17Z"/>
  <path class="cls-6" d="M199.76,91.13c.88,.91,1.9,1.81-.29,2.39-.61,.16-1.16,.55-1.75,.81-3.96,1.69-4.26,1.84-7.03-1.51-2.96-3.57-5.97-7.15-7.99-11.43-.85-1.8-.53-2.48,1.39-2.62,1.37-.1,2.75-.24,4.1-.48,1-.18,1.45,.27,1.98,1.04,1.27,1.86,2.67,3.64,4.02,5.44,.2-.09,.4-.18,.6-.27,0,0,0-.01,0-.01-.96,.76-.07,1.28,.32,1.71,1.51,1.68,3.1,3.29,4.66,4.93Z"/>
  <path class="cls-10" d="M171.5,74.59c-3.04,2.15-6.89,2.23-10.12,3.97-1.85,1-4.71,1.62-4.6,3.74,.1,1.94,2.97,1.32,4.67,1.68,.21,.05,.38,.3,.98,.79-2.92,.71-5.31,.07-7.27-1.27-1.71-1.17,.05-2.14,.85-3.03,2.25-2.03,5.14-2.9,7.79-4.21,.7-.35,1.98-.06,1.67-1.52,.34-.09,.68-.19,1.02-.28-.26,1.05,.32,1.06,1.04,.83,1.29-.41,2.54-1,3.96-.72Z"/>
  <path class="cls-4" d="M175.41,72.8c-.05-.13-.05-.25-.01-.38,7.23-1.85,14.45-3.71,21.69-5.5,.47-.12,1.87-1.03,1.47,.81-3.43,.31-6.68,1.46-9.99,2.28-.6,.15-.99,.44-.89,1.12-.4,.02-.8,.05-1.21,.07-1.24-.39-2.43-.07-3.66,.16-2.47,.46-4.82,1.57-7.4,1.45Z"/>
  <path class="cls-7" d="M199.76,91.13c-1.56-1.64-3.15-3.25-4.66-4.93-.39-.43-1.28-.95-.32-1.71,.68-.23,.86,.33,1.16,.72,.77,.98,1.47,1.28,1.63-.33,.11-1.08-.02-2.18-.04-3.27,.12-.71-.31-1.8,1.11-1.61,.62,1.38-.44,2.61-.33,3.96,.21,2.69,1.04,5.11,2.91,7.11-.49,.02-.98,.04-1.46,.06Z"/>
  <path class="cls-4" d="M165.48,74.76c.3,1.46-.97,1.17-1.67,1.52-2.65,1.31-5.53,2.17-7.79,4.21-.37-.41-.74-.82-1.11-1.23,3.24-2.16,6.8-3.56,10.56-4.49Z"/>
  <path class="cls-10" d="M187.68,71.13c-.09-.69,.29-.97,.89-1.12,3.32-.82,6.56-1.97,9.99-2.28,.04,.23,.08,.46,.12,.69-3.67,.9-7.34,1.8-11,2.7Z"/>
  <path class="cls-4" d="M171.5,74.59c-1.41-.28-2.67,.32-3.96,.72-.73,.23-1.31,.21-1.04-.83,1.71-.31,3.28-1.31,5.11-1-.04,.37-.07,.74-.11,1.11Z"/>
  <path class="cls-7" d="M194.79,84.5c-.2,.09-.4,.18-.6,.27,.21-.28,.43-.56,.64-.85,.03,.13,.09,.26,.1,.39,0,.06-.09,.12-.13,.18Z"/>
  <path class="cls-6" d="M114.02,169c-5.21,1.45-10.41,2.95-15.85,3.37-3.49,.27-6.92,.18-10.48-2.02,3.33-1.08,6.24-2.05,9.17-2.97,7.07-2.23,13.86-5.39,21.2-6.76,4.45-.83,8.92-1.25,12.81,2.25-3.32,1.81-7.05,2.27-10.18,4.16-2.41,.02-4.37,1.59-6.67,1.97Z"/>
  <path class="cls-6" d="M121.69,168.62c1.67-2.45,4.63-2.29,6.97-3.22,7.56-3.03,15.47-4.64,23.7-3.9,2.85,.26,5.62,.85,8.31,1.85,1.2,.45,1.09,.73,.1,1.22-10.71,4.25-21.7,6.86-33.34,5.65-.19-.03-.38-.05-.56-.08-1.72-.51-3.45-1.01-5.17-1.52Z"/>
  <path class="cls-7" d="M127.43,170.22c11.64,1.22,22.63-1.4,33.34-5.65,.93,.24,1.38-.32,1.76-1.04,.7-.29,1.23-.35,1.02,.68-2.38,2.21-5.53,2.71-8.37,3.91-.54,.22-3.21-.45-1.58,1.89-.12,.29-.24,.59-.36,.88-1.29,0-1.61-1.78-2.99-1.63-.26,.09-.53,.17-.79,.26-.94,.62-2.03,.68-3.09,.87-.48-.08-.94-.13-1.25,.36-.15,.29-.3,.58-.45,.86-2.19-1.53-4.48,.48-6.69-.17-.2,.01-.4,.03-.6,.04-2.29,.4-4.58,.53-6.88,.04-.56-.03-1.11-.07-1.67-.1-3-.05-5.96-.25-8.38-2.36,.41-.15,.82-.3,1.23-.46,1.72,.51,3.45,1.01,5.17,1.52,.19,.03,.38,.05,.56,.08Z"/>
  <path class="cls-6" d="M94.03,160.57c5.31-2.27,10.7-2.35,15.88,.36-5.31,3.82-10.68,3.58-15.88-.36Z"/>
  <path class="cls-6" d="M127.7,158.75c4.61-1.24,9.03-.53,13.55,1.56-4.88,1.47-9.51,3.23-13.55-1.56Z"/>
  <path class="cls-7" d="M114.02,169c2.3-.38,4.26-1.95,6.67-1.97,0,.68,0,1.35-.47,1.92-.54-.04-1.15-.27-1.62-.1-1.3,.46-3.18,.8-1.12,2.72,.26,.24,.41,.6-.03,1.09-1.51-.06-1.92-2.02-3.37-2.25-.02-.47-.04-.94-.06-1.41Z"/>
  <path class="cls-7" d="M154.16,170.38c2.05,.65,4.11,1.29,6.57,2.07-2.29,1.28-4.04,.16-5.83-.34-.13-.13-.28-.19-.46-.18-.53-.16-1-.39-1.18-.98,.3-.19,.59-.38,.89-.56Z"/>
  <path class="cls-7" d="M149.44,175.25c-1.51-.33-2.74-.94-2.76-2.76,1.43,.41,2.82,.86,2.76,2.76Z"/>
  <path class="cls-7" d="M146.67,172.49c-1.07,.65-1.6,.04-1.99-.87,.15-.29,.3-.58,.44-.86,.37,.02,.73,.03,1.1,.05,.07,.58,1.11,.9,.45,1.68Z"/>
  <path class="cls-8" d="M146.22,170.81c-.37-.02-.73-.03-1.1-.05,.31-.49,.78-.44,1.25-.36,.04,.17-.01,.31-.15,.41Z"/>
  <path class="cls-9" d="M154.45,171.93c.18,0,.33,.05,.46,.18-.15-.06-.31-.12-.46-.18Z"/>
  <path class="cls-7" d="M153.59,170.01c.19,.13,.38,.25,.57,.38-.3,.19-.59,.38-.89,.56,0,0-.03-.06-.03-.06,.12-.29,.24-.59,.36-.88Z"/>
  <path class="cls-9" d="M149.46,169.52c.26-.09,.52-.17,.79-.26-.26,.09-.53,.17-.79,.26Z"/>
  <path class="cls-9" d="M128.84,171.44c.56,.03,1.11,.07,1.67,.1-.57,.22-1.13,.15-1.67-.1Z"/>
  <path class="cls-9" d="M137.38,171.5c.2-.01,.4-.03,.6-.04-.2,.01-.4,.03-.6,.04Z"/>
  <path class="cls-10" d="M175.41,72.8c2.58,.12,4.93-.99,7.4-1.45,1.23-.23,2.42-.54,3.66-.16-3.39,1.63-7.09,2.03-10.72,2.69-.38,.07-.99,.3-1.09-.34-.03-.21,.48-.5,.75-.75Z"/>
  <path class="cls-7" d="M275.01,166.46c-1.09,1.63-2.18,1.61-3.29,.02,1.1,0,2.19-.01,3.29-.02Z"/>
  <path class="cls-9" d="M197.53,81.6c.02,1.09,.14,2.19,.04,3.27-.16,1.61-.86,1.32-1.63,.33,1.41-.81-.25-2.98,1.59-3.6Z"/>
  <path class="cls-9" d="M127.43,170.22c-.19-.03-.38-.05-.56-.08,.19,.03,.38,.05,.56,.08Z"/>
</svg>